<?xml version="1.0" encoding="UTF-8"?>
<!DOCTYPE svg  PUBLIC '-//W3C//DTD SVG 1.1//EN'  'http://www.w3.org/Graphics/SVG/1.1/DTD/svg11.dtd'>
<svg width="1064pt" height="560pt" version="1.1" viewBox="0 0 1064 560" xmlns="http://www.w3.org/2000/svg" xmlns:xlink="http://www.w3.org/1999/xlink">
<defs>
<style type="text/css">*{stroke-linecap:butt;stroke-linejoin:round;}</style>
</defs>
<path d="m0 560h1064v-560h-1064z" fill="#fff"/>
<g fill="none" stroke="#000">
<path d="m304.14 25.455-255.78 408.9" clip-path="url(#a)"/>
<path d="m304.14 25.455-186.65 205.19" clip-path="url(#a)"/>
<path d="m304.14 25.455-54.583 408.9" clip-path="url(#a)"/>
<path d="m304.14 25.455-12.023 408.9" clip-path="url(#a)"/>
<path d="m304.14 25.455 171.11 307.31" clip-path="url(#a)"/>
<path d="m304.14 25.455 337.91 102.73" clip-path="url(#a)"/>
<path d="m48.364 434.35v100.19" clip-path="url(#a)"/>
<path d="m117.49 230.65-57.52 203.71" clip-path="url(#a)"/>
<path d="m117.49 230.65-42.044 203.71" clip-path="url(#a)"/>
<path d="m117.49 230.65-22.699 203.71" clip-path="url(#a)"/>
<path d="m117.49 230.65 28.889 102.12" clip-path="url(#a)"/>
<path d="m117.49 230.65 93.374 203.71" clip-path="url(#a)"/>
<path d="m249.56 434.35v100.19" clip-path="url(#a)"/>
<path d="m292.12 434.35v100.19" clip-path="url(#a)"/>
<path d="m475.25 332.77 223.12 101.59" clip-path="url(#a)" stroke-dasharray="3.7,1.6"/>
<path d="m475.25 332.77-136.71 101.59" clip-path="url(#a)"/>
<path d="m475.25 332.77-86.41 101.59" clip-path="url(#a)"/>
<path d="m642.05 128.18-139.72 204.59" clip-path="url(#a)"/>
<path d="m642.05 128.18-13.327 306.17" clip-path="url(#a)"/>
<path d="m642.05 128.18 153.04 102.47" clip-path="url(#a)"/>
<path d="m502.34 332.77-59.326 101.59" clip-path="url(#a)"/>
<path d="m502.34 332.77-1.2897 101.59" clip-path="url(#a)"/>
<path d="m502.34 332.77 60.616 101.59" clip-path="url(#a)"/>
<path d="m628.73 434.35v100.19" clip-path="url(#a)"/>
<path d="m795.1 230.65-96.727 203.71" clip-path="url(#a)"/>
<path d="m795.1 230.65 96.727 102.12" clip-path="url(#a)"/>
<path d="m698.37 434.35v100.19" clip-path="url(#a)"/>
<path d="m891.83 332.77-119.94 101.59" clip-path="url(#a)"/>
<path d="m891.83 332.77 38.691 101.59" clip-path="url(#a)"/>
<path d="m891.83 332.77-42.56 101.59" clip-path="url(#a)"/>
<path d="m891.83 332.77 123.81 101.59" clip-path="url(#a)"/>
<path d="m771.88 434.35v100.19" clip-path="url(#a)"/>
<path d="m930.52 434.35v100.19" clip-path="url(#a)"/>
<path d="m443.01 434.35v100.19" clip-path="url(#a)"/>
<path d="m501.05 434.35v100.19" clip-path="url(#a)"/>
<path d="m562.95 434.35v100.19" clip-path="url(#a)"/>
<path d="m338.55 434.35v100.19" clip-path="url(#a)"/>
<path d="m388.84 434.35v100.19" clip-path="url(#a)"/>
<path d="m59.971 434.35v100.19" clip-path="url(#a)"/>
<path d="m75.447 434.35v100.19" clip-path="url(#a)"/>
<path d="m94.793 434.35v100.19" clip-path="url(#a)"/>
<path d="m146.38 332.77-28.373 101.59" clip-path="url(#a)"/>
<path d="m146.38 332.77-1.2897 101.59" clip-path="url(#a)"/>
<path d="m146.38 332.77 29.663 101.59" clip-path="url(#a)"/>
<path d="m210.87 434.35v100.19" clip-path="url(#a)"/>
<path d="m118.01 434.35v100.19" clip-path="url(#a)"/>
<path d="m145.09 434.35v100.19" clip-path="url(#a)"/>
<path d="m176.04 434.35v100.19" clip-path="url(#a)"/>
<path d="m849.27 434.35v100.19" clip-path="url(#a)"/>
<path d="m1015.6 434.35v100.19" clip-path="url(#a)"/>
</g>
<path d="m180.39 235.12 2.3639-3.7791q1.2728-2.0347-0.76195-3.3075l-6.5641-4.106q-2.0347-1.2728-3.3075 0.76195l-2.3639 3.7791q-1.2728 2.0347 0.76195 3.3075l6.5641 4.106q2.0347 1.2728 3.3075-0.76195z" clip-path="url(#a)" fill="#fff" stroke="#fff"/>
<g clip-path="url(#a)">
<defs>
<path id="w" d="m9.8125 72.906h9.8594v-64.609h35.5v-8.2969h-45.359z"/>
</defs>
<g transform="translate(176.94 232.96) rotate(-57.973) scale(.08 -.08)">
<use xlink:href="#w"/>
</g>
</g>
<path d="m213.43 134.5 4.0483-4.4505q1.6149-1.7754-0.16046-3.3903l-5.7275-5.2098q-1.7754-1.6149-3.3903 0.16046l-4.0483 4.4505q-1.6149 1.7754 0.16046 3.3903l5.7275 5.2098q1.7754 1.6149 3.3903-0.16046z" clip-path="url(#a)" fill="#fff" stroke="#fff"/>
<g clip-path="url(#a)">
<defs>
<path id="x" d="m9.8125 72.906h9.8594v-29.891h35.844v29.891h9.8594v-72.906h-9.8594v34.719h-35.844v-34.719h-9.8594z"/>
</defs>
<g transform="translate(210.42 131.76) rotate(-47.71) scale(.08 -.08)">
<use xlink:href="#x"/>
</g>
</g>
<path d="m282.77 232.94 0.58979-4.4183q0.31755-2.3789-2.0613-2.6965l-7.6744-1.0244q-2.3789-0.31755-2.6965 2.0613l-0.58979 4.4183q-0.31755 2.3789 2.0613 2.6965l7.6744 1.0244q2.3789 0.31755 2.6965-2.0613z" clip-path="url(#a)" fill="#fff" stroke="#fff"/>
<g clip-path="url(#a)">
<g transform="translate(278.74 232.4) rotate(-82.397) scale(.08 -.08)">
<use xlink:href="#w"/>
</g>
</g>
<path d="m304.33 232.32 0.13101-4.4556q0.070537-2.399-2.3284-2.4695l-7.7392-0.22756q-2.399-0.070536-2.4695 2.3284l-0.13101 4.4556q-0.070537 2.399 2.3284 2.4695l7.7392 0.22756q2.399 0.070536 2.4695-2.3284z" clip-path="url(#a)" fill="#fff" stroke="#fff"/>
<g clip-path="url(#a)">
<g transform="translate(300.27 232.2) rotate(-88.316) scale(.08 -.08)">
<use xlink:href="#w"/>
</g>
</g>
<path d="m382.75 179.53 2.9268 5.2563q1.1676 2.0969 3.2644 0.92931l6.7646-3.7666q2.0969-1.1676 0.92931-3.2644l-2.9268-5.2563q-1.1676-2.0969-3.2644-0.92931l-6.7646 3.7666q-2.0969 1.1676-0.92931 3.2644z" clip-path="url(#a)" fill="#fff" stroke="#fff"/>
<g clip-path="url(#a)">
<g transform="translate(386.3 177.56) rotate(60.891) scale(.08 -.08)">
<use xlink:href="#x"/>
</g>
</g>
<path d="m468.39 81.943 5.7561 1.7499q2.2962 0.69806 2.9943-1.5982l2.252-7.4078q0.69806-2.2962-1.5982-2.9943l-5.7561-1.7499q-2.2962-0.69806-2.9943 1.5982l-2.252 7.4078q-0.69806 2.2962 1.5982 2.9943z" clip-path="url(#a)" fill="#fff" stroke="#fff"/>
<g clip-path="url(#a)">
<g transform="translate(469.58 78.055) rotate(16.909) scale(.08 -.08)">
<use xlink:href="#x"/>
</g>
</g>
<path d="m42.092 467.55v33.808q0 2.4 2.4 2.4h7.7425q2.4 0 2.4-2.4v-33.808q0-2.4-2.4-2.4h-7.7425q-2.4 0-2.4 2.4z" clip-path="url(#a)" fill="#fff" stroke="#fff"/>
<g clip-path="url(#a)">
<defs>
<path id="l" d="m-0.29688 72.906h61.672v-8.3125h-25.875v-64.594h-9.9062v64.594h-25.891z"/>
<path id="d" d="m56.203 29.594v-4.3906h-41.312q0.59375-9.2812 5.5938-14.141t13.938-4.8594q5.1719 0 10.031 1.2656t9.6562 3.8125v-8.5q-4.8438-2.0469-9.9219-3.125t-10.297-1.0781q-13.094 0-20.734 7.6094-7.6406 7.625-7.6406 20.625 0 13.422 7.25 21.297 7.25 7.8906 19.562 7.8906 11.031 0 17.453-7.1094 6.4219-7.0938 6.4219-19.297zm-8.9844 2.6406q-0.09375 7.3594-4.125 11.75-4.0312 4.4062-10.672 4.4062-7.5156 0-12.031-4.25t-5.2031-11.969z"/>
<path id="i" d="m41.109 46.297q-1.5156 0.875-3.2969 1.2812-1.7812 0.42188-3.9219 0.42188-7.625 0-11.703-4.9531t-4.0781-14.234v-28.812h-9.0312v54.688h9.0312v-8.5q2.8438 4.9844 7.375 7.3906 4.5469 2.4219 11.047 2.4219 0.92188 0 2.0469-0.125 1.125-0.10938 2.4844-0.35938z"/>
<path id="j" d="m52 44.188q3.375 6.0625 8.0625 8.9375t11.031 2.875q8.5469 0 13.188-5.9844 4.6406-5.9688 4.6406-17v-33.016h-9.0312v32.719q0 7.8594-2.7969 11.656-2.7812 3.8125-8.4844 3.8125-6.9844 0-11.047-4.6406-4.0469-4.625-4.0469-12.641v-30.906h-9.0312v32.719q0 7.9062-2.7812 11.688t-8.5938 3.7812q-6.8906 0-10.953-4.6562-4.0469-4.6562-4.0469-12.625v-30.906h-9.0312v54.688h9.0312v-8.5q3.0781 5.0312 7.375 7.4219t10.203 2.3906q5.9688 0 10.141-3.0312 4.1719-3.0156 6.1719-8.7812z"/>
<path id="g" d="m9.4219 54.688h8.9844v-54.688h-8.9844zm0 21.297h8.9844v-11.391h-8.9844z"/>
<path id="e" d="m54.891 33.016v-33.016h-8.9844v32.719q0 7.7656-3.0312 11.609-3.0312 3.8594-9.0781 3.8594-7.2812 0-11.484-4.6406-4.2031-4.625-4.2031-12.641v-30.906h-9.0312v54.688h9.0312v-8.5q3.2344 4.9375 7.5938 7.375 4.375 2.4375 10.094 2.4375 9.4219 0 14.25-5.8281 4.8438-5.8281 4.8438-17.156z"/>
<path id="h" d="m34.281 27.484q-10.891 0-15.094-2.4844t-4.2031-8.5q0-4.7812 3.1562-7.5938 3.1562-2.7969 8.5625-2.7969 7.4844 0 12 5.2969t4.5156 14.078v2zm17.922 3.7188v-31.203h-8.9844v8.2969q-3.0781-4.9688-7.6719-7.3438t-11.234-2.375q-8.3906 0-13.359 4.7188-4.9531 4.7188-4.9531 12.625 0 9.2188 6.1719 13.906 6.1875 4.6875 18.438 4.6875h12.609v0.89062q0 6.2031-4.0781 9.5938t-11.453 3.3906q-4.6875 0-9.1406-1.125-4.4375-1.125-8.5312-3.375v8.3125q4.9219 1.9062 9.5625 2.8438 4.6406 0.95312 9.0312 0.95312 11.875 0 17.734-6.1562 5.8594-6.1406 5.8594-18.641z"/>
<path id="k" d="m9.4219 75.984h8.9844v-75.984h-8.9844z"/>
</defs>
<g transform="translate(46.156 467.55) rotate(90) scale(.08 -.08)">
<use xlink:href="#l"/>
<use x="44.083984" xlink:href="#d"/>
<use x="105.607422" xlink:href="#i"/>
<use x="144.970703" xlink:href="#j"/>
<use x="242.382812" xlink:href="#g"/>
<use x="270.166016" xlink:href="#e"/>
<use x="333.544922" xlink:href="#h"/>
<use x="394.824219" xlink:href="#k"/>
</g>
</g>
<path d="m94.141 336.42 1.2504-4.4281q0.65219-2.3097-1.6575-2.9619l-7.4511-2.104q-2.3097-0.65219-2.9619 1.6575l-1.2504 4.4281q-0.65219 2.3097 1.6575 2.9619l7.4511 2.104q2.3097 0.65219 2.9619-1.6575z" clip-path="url(#a)" fill="#fff" stroke="#fff"/>
<g clip-path="url(#a)">
<defs>
<path id="y" d="m9.8125 72.906h41.891v-8.3125h-32.031v-21.484h28.906v-8.2969h-28.906v-34.812h-9.8594z"/>
</defs>
<g transform="translate(90.23 335.31) rotate(-74.232) scale(.08 -.08)">
<use xlink:href="#y"/>
</g>
</g>
<path d="m102.06 336.45 1.1062-5.3595q0.48513-2.3505-1.8653-2.8356l-7.5827-1.565q-2.3505-0.48513-2.8356 1.8653l-1.1062 5.3595q-0.48513 2.3505 1.8653 2.8356l7.5827 1.565q2.3505 0.48513 2.8356-1.8653z" clip-path="url(#a)" fill="#fff" stroke="#fff"/>
<g clip-path="url(#a)">
<defs>
<path id="n" d="m34.188 63.188-13.391-36.281h26.812zm-5.5781 9.7188h11.188l27.781-72.906h-10.25l-6.6406 18.703h-32.859l-6.6406-18.703h-10.406z"/>
</defs>
<g transform="translate(98.078 335.63) rotate(-78.338) scale(.08 -.08)">
<use xlink:href="#n"/>
</g>
</g>
<path d="m112.03 336.26 0.68218-6.1221q0.26578-2.3852-2.1195-2.651l-7.6949-0.85743q-2.3852-0.26578-2.651 2.1195l-0.68218 6.1221q-0.26578 2.3852 2.1195 2.651l7.6949 0.85743q2.3852 0.26578 2.651-2.1195z" clip-path="url(#a)" fill="#fff" stroke="#fff"/>
<g clip-path="url(#a)">
<defs>
<path id="ak" d="m19.672 64.797v-56.688h11.922q15.094 0 22.094 6.8281 7 6.8438 7 21.594 0 14.641-7 21.453t-22.094 6.8125zm-9.8594 8.1094h20.266q21.188 0 31.094-8.8125 9.9219-8.8125 9.9219-27.562 0-18.859-9.9688-27.703-9.9531-8.8281-31.047-8.8281h-20.266z"/>
</defs>
<g transform="translate(107.99 335.81) rotate(-83.642) scale(.08 -.08)">
<use xlink:href="#ak"/>
</g>
</g>
<path d="m125.16 280.78 1.4897 5.2658q0.65331 2.3094 2.9627 1.6561l7.4501-2.1076q2.3094-0.65331 1.6561-2.9627l-1.4897-5.2658q-0.65331-2.3094-2.9627-1.6561l-7.4501 2.1076q-2.3094 0.65331-1.6561 2.9627z" clip-path="url(#a)" fill="#fff" stroke="#fff"/>
<g clip-path="url(#a)">
<g transform="translate(129.07 279.67) rotate(74.204) scale(.08 -.08)">
<use xlink:href="#n"/>
</g>
</g>
<path d="m157.47 332.92 2.01 4.385q1.0001 2.1817 3.1818 1.1817l7.0383-3.2262q2.1817-1.0001 1.1817-3.1818l-2.01-4.385q-1-2.1817-3.1818-1.1817l-7.0383 3.2262q-2.1817 1.0001-1.1817 3.1818z" clip-path="url(#a)" fill="#fff" stroke="#fff"/>
<g clip-path="url(#a)">
<defs>
<path id="ai" d="m19.672 64.797v-27.391h12.406q6.8906 0 10.641 3.5625 3.7656 3.5625 3.7656 10.156 0 6.5469-3.7656 10.109-3.75 3.5625-10.641 3.5625zm-9.8594 8.1094h22.266q12.266 0 18.531-5.5469 6.2812-5.5469 6.2812-16.234 0-10.797-6.2812-16.312-6.2656-5.5156-18.531-5.5156h-12.406v-29.297h-9.8594z"/>
</defs>
<g transform="translate(161.17 331.23) rotate(65.374) scale(.08 -.08)">
<use xlink:href="#ai"/>
</g>
</g>
<path d="m243.29 467.55v33.808q0 2.4 2.4 2.4h7.7425q2.4 0 2.4-2.4v-33.808q0-2.4-2.4-2.4h-7.7425q-2.4 0-2.4 2.4z" clip-path="url(#a)" fill="#fff" stroke="#fff"/>
<g clip-path="url(#a)">
<g transform="translate(247.35 467.55) rotate(90) scale(.08 -.08)">
<use xlink:href="#l"/>
<use x="44.083984" xlink:href="#d"/>
<use x="105.607422" xlink:href="#i"/>
<use x="144.970703" xlink:href="#j"/>
<use x="242.382812" xlink:href="#g"/>
<use x="270.166016" xlink:href="#e"/>
<use x="333.544922" xlink:href="#h"/>
<use x="394.824219" xlink:href="#k"/>
</g>
</g>
<path d="m285.85 467.55v33.808q0 2.4 2.4 2.4h7.7425q2.4 0 2.4-2.4v-33.808q0-2.4-2.4-2.4h-7.7425q-2.4 0-2.4 2.4z" clip-path="url(#a)" fill="#fff" stroke="#fff"/>
<g clip-path="url(#a)">
<g transform="translate(289.91 467.55) rotate(90) scale(.08 -.08)">
<use xlink:href="#l"/>
<use x="44.083984" xlink:href="#d"/>
<use x="105.607422" xlink:href="#i"/>
<use x="144.970703" xlink:href="#j"/>
<use x="242.382812" xlink:href="#g"/>
<use x="270.166016" xlink:href="#e"/>
<use x="333.544922" xlink:href="#h"/>
<use x="394.824219" xlink:href="#k"/>
</g>
</g>
<path d="m581.72 388.13 4.9806 2.2677q2.1843 0.9945 3.1788-1.1898l3.2083-7.0465q0.9945-2.1843-1.1898-3.1788l-4.9806-2.2677q-2.1843-0.9945-3.1788 1.1898l-3.2083 7.0465q-0.9945 2.1843 1.1898 3.1788z" clip-path="url(#a)" fill="#fff" stroke="#fff"/>
<g clip-path="url(#a)">
<g transform="translate(583.41 384.43) rotate(24.48) scale(.08 -.08)">
<use xlink:href="#n"/>
</g>
</g>
<path d="m408.6 390.11 4.0765-3.0292q1.9264-1.4315 0.4949-3.3578l-4.618-6.2145q-1.4315-1.9264-3.3578-0.4949l-4.0765 3.0292q-1.9264 1.4315-0.4949 3.3578l4.618 6.2145q1.4315 1.9264 3.3578 0.4949z" clip-path="url(#a)" fill="#fff" stroke="#fff"/>
<g clip-path="url(#a)">
<defs>
<path id="v" d="m53.516 70.516v-9.625q-5.6094 2.6875-10.594 4-4.9844 1.3281-9.625 1.3281-8.0469 0-12.422-3.125t-4.375-8.8906q0-4.8438 2.9062-7.3125 2.9062-2.4531 11.016-3.9688l5.9531-1.2188q11.031-2.1094 16.281-7.4062t5.25-14.172q0-10.609-7.1094-16.078-7.0938-5.4688-20.812-5.4688-5.1719 0-11.016 1.1719-5.8281 1.1719-12.078 3.4688v10.156q6-3.3594 11.766-5.0781 5.7656-1.7031 11.328-1.7031 8.4375 0 13.031 3.3125 4.5938 3.3281 4.5938 9.4844 0 5.3594-3.2969 8.3906t-10.812 4.5469l-6.0156 1.1719q-11.031 2.1875-15.969 6.875-4.9219 4.6875-4.9219 13.047 0 9.6719 6.8125 15.234t18.766 5.5625q5.1406 0 10.453-0.9375 5.3281-0.92188 10.891-2.7656z"/>
</defs>
<g transform="translate(406.18 386.85) rotate(-36.616) scale(.08 -.08)">
<use xlink:href="#v"/>
</g>
</g>
<path d="m435.05 389.71 3.5457-4.1685q1.555-1.8281-0.27311-3.3831l-5.8976-5.0165q-1.8281-1.555-3.3831 0.27311l-3.5457 4.1685q-1.555 1.8281 0.27311 3.3831l5.8976 5.0165q1.8281 1.555 3.3831-0.27311z" clip-path="url(#a)" fill="#fff" stroke="#fff"/>
<g clip-path="url(#a)">
<g transform="translate(431.96 387.07) rotate(-49.615) scale(.08 -.08)">
<use xlink:href="#n"/>
</g>
</g>
<path d="m575.83 236.27 3.0863-4.5192q1.3535-1.9819-0.62842-3.3354l-6.3938-4.3665q-1.9819-1.3535-3.3354 0.62842l-3.0863 4.5192q-1.3535 1.9819 0.62842 3.3354l6.3938 4.3665q1.9819 1.3535 3.3354-0.62842z" clip-path="url(#a)" fill="#fff" stroke="#fff"/>
<g clip-path="url(#a)">
<g transform="translate(572.48 233.98) rotate(-55.67) scale(.08 -.08)">
<use xlink:href="#n"/>
</g>
</g>
<path d="m641.54 284.27 0.23798-5.4673q0.10437-2.3977-2.2934-2.5021l-7.7352-0.33669q-2.3977-0.10437-2.5021 2.2934l-0.23798 5.4673q-0.10437 2.3977 2.2934 2.5021l7.7352 0.33669q2.3977 0.10437 2.5021-2.2934z" clip-path="url(#a)" fill="#fff" stroke="#fff"/>
<g clip-path="url(#a)">
<g transform="translate(637.48 284.1) rotate(-87.508) scale(.08 -.08)">
<use xlink:href="#n"/>
</g>
</g>
<path d="m713.08 183.28 4.0083 2.6837q1.9943 1.3352 3.3295-0.65906l4.3075-6.4336q1.3352-1.9943-0.65906-3.3295l-4.0083-2.6837q-1.9943-1.3352-3.3295 0.65906l-4.3075 6.4337q-1.3352 1.9943 0.65906 3.3295z" clip-path="url(#a)" fill="#fff" stroke="#fff"/>
<g clip-path="url(#a)">
<g transform="translate(715.34 179.91) rotate(33.803) scale(.08 -.08)">
<use xlink:href="#ai"/>
</g>
</g>
<path d="m476.69 389.12 2.8033-4.8001q1.2103-2.0725-0.86216-3.2828l-6.6859-3.9045q-2.0725-1.2103-3.2828 0.86216l-2.8033 4.8001q-1.2103 2.0725 0.86216 3.2828l6.6859 3.9045q2.0725 1.2103 3.2828-0.86216z" clip-path="url(#a)" fill="#fff" stroke="#fff"/>
<g clip-path="url(#a)">
<defs>
<path id="ah" d="m44.391 34.188q3.1719-1.0781 6.1719-4.5938t6.0312-9.6719l10.016-19.922h-10.609l-9.3125 18.703q-3.625 7.3281-7.0156 9.7188t-9.25 2.3906h-10.75v-30.812h-9.8594v72.906h22.266q12.5 0 18.656-5.2344 6.1562-5.2188 6.1562-15.766 0-6.8906-3.2031-11.438-3.2031-4.5312-9.2969-6.2812zm-24.719 30.609v-25.875h12.406q7.125 0 10.766 3.2969t3.6406 9.6875-3.6406 9.6406-10.766 3.25z"/>
</defs>
<g transform="translate(473.18 387.07) rotate(-59.715) scale(.08 -.08)">
<use xlink:href="#ah"/>
</g>
</g>
<path d="m507.93 385.94 0.058411-4.6009q0.030467-2.3998-2.3693-2.4303l-7.7419-0.098288q-2.3998-0.030467-2.4303 2.3693l-0.058411 4.6009q-0.030467 2.3998 2.3693 2.4303l7.7419 0.098287q2.3998 0.030467 2.4303-2.3693z" clip-path="url(#a)" fill="#fff" stroke="#fff"/>
<g clip-path="url(#a)">
<g transform="translate(503.87 385.89) rotate(-89.273) scale(.08 -.08)">
<use xlink:href="#y"/>
</g>
</g>
<path d="m525.83 384.37 2.8624 4.7972q1.2298 2.061 3.2908 0.83121l6.6488-3.9673q2.061-1.2298 0.83121-3.2908l-2.8624-4.7972q-1.2298-2.061-3.2908-0.83121l-6.6488 3.9673q-2.061 1.2298-0.83121 3.2908z" clip-path="url(#a)" fill="#fff" stroke="#fff"/>
<g clip-path="url(#a)">
<defs>
<path id="z" d="m64.406 67.281v-10.391q-4.9844 4.6406-10.625 6.9219-5.6406 2.2969-11.984 2.2969-12.5 0-19.141-7.6406t-6.6406-22.094q0-14.406 6.6406-22.047t19.141-7.6406q6.3438 0 11.984 2.2969t10.625 6.9375v-10.312q-5.1719-3.5156-10.969-5.2812-5.7812-1.75-12.219-1.75-16.562 0-26.094 10.125-9.5156 10.141-9.5156 27.672 0 17.578 9.5156 27.703 9.5312 10.141 26.094 10.141 6.5312 0 12.312-1.7344 5.7969-1.7344 10.875-5.2031z"/>
</defs>
<g transform="translate(529.32 382.29) rotate(59.176) scale(.08 -.08)">
<use xlink:href="#z"/>
</g>
</g>
<path d="m622.46 467.55v33.808q0 2.4 2.4 2.4h7.7425q2.4 0 2.4-2.4v-33.808q0-2.4-2.4-2.4h-7.7425q-2.4 0-2.4 2.4z" clip-path="url(#a)" fill="#fff" stroke="#fff"/>
<g clip-path="url(#a)">
<g transform="translate(626.52 467.55) rotate(90) scale(.08 -.08)">
<use xlink:href="#l"/>
<use x="44.083984" xlink:href="#d"/>
<use x="105.607422" xlink:href="#i"/>
<use x="144.970703" xlink:href="#j"/>
<use x="242.382812" xlink:href="#g"/>
<use x="270.166016" xlink:href="#e"/>
<use x="333.544922" xlink:href="#h"/>
<use x="394.824219" xlink:href="#k"/>
</g>
</g>
<path d="m751.2 337.71 2.3962-5.0462q1.0295-2.168-1.1386-3.1975l-6.9941-3.3211q-2.168-1.0295-3.1975 1.1386l-2.3962 5.0462q-1.0295 2.168 1.1386 3.1975l6.9941 3.3211q2.168 1.0295 3.1975-1.1386z" clip-path="url(#a)" fill="#fff" stroke="#fff"/>
<g clip-path="url(#a)">
<g transform="translate(747.53 335.97) rotate(-64.6) scale(.08 -.08)">
<use xlink:href="#z"/>
</g>
</g>
<path d="m837.17 284.18 3.4762 3.67q1.6504 1.7424 3.3929 0.092001l5.6212-5.3244q1.7424-1.6504 0.092001-3.3929l-3.4762-3.67q-1.6504-1.7424-3.3929-0.092001l-5.6212 5.3244q-1.7424 1.6504-0.092001 3.3929z" clip-path="url(#a)" fill="#fff" stroke="#fff"/>
<g clip-path="url(#a)">
<defs>
<path id="aj" d="m9.8125 72.906h46.094v-8.3125h-36.234v-21.578h34.719v-8.2969h-34.719v-26.422h37.109v-8.2969h-46.969z"/>
</defs>
<g transform="translate(840.12 281.39) rotate(46.553) scale(.08 -.08)">
<use xlink:href="#aj"/>
</g>
</g>
<path d="m692.1 467.55v33.808q0 2.4 2.4 2.4h7.7425q2.4 0 2.4-2.4v-33.808q0-2.4-2.4-2.4h-7.7425q-2.4 0-2.4 2.4z" clip-path="url(#a)" fill="#fff" stroke="#fff"/>
<g clip-path="url(#a)">
<g transform="translate(696.16 467.55) rotate(90) scale(.08 -.08)">
<use xlink:href="#l"/>
<use x="44.083984" xlink:href="#d"/>
<use x="105.607422" xlink:href="#i"/>
<use x="144.970703" xlink:href="#j"/>
<use x="242.382812" xlink:href="#g"/>
<use x="270.166016" xlink:href="#e"/>
<use x="333.544922" xlink:href="#h"/>
<use x="394.824219" xlink:href="#k"/>
</g>
</g>
<path d="m833.98 389.98 3.8574-3.2671q1.8314-1.5511 0.28027-3.3825l-5.004-5.9082q-1.5511-1.8314-3.3825-0.28027l-3.8574 3.2671q-1.8314 1.5511-0.28027 3.3825l5.004 5.9082q1.5511 1.8314 3.3825 0.28027z" clip-path="url(#a)" fill="#fff" stroke="#fff"/>
<g clip-path="url(#a)">
<g transform="translate(831.35 386.88) rotate(-40.263) scale(.08 -.08)">
<use xlink:href="#aj"/>
</g>
</g>
<path d="m904.32 383.18 1.9883 5.2204q0.85422 2.2428 3.0971 1.3886l7.2355-2.7558q2.2428-0.85422 1.3886-3.0971l-1.9883-5.2204q-0.85422-2.2428-3.0971-1.3886l-7.2355 2.7558q-2.2428 0.85422-1.3886 3.0971z" clip-path="url(#a)" fill="#fff" stroke="#fff"/>
<g clip-path="url(#a)">
<g transform="translate(908.11 381.74) rotate(69.15) scale(.08 -.08)">
<use xlink:href="#z"/>
</g>
</g>
<path d="m875.2 388.68 2.2624-5.4002q0.92739-2.2136-1.2862-3.141l-7.1411-2.9918q-2.2136-0.92739-3.141 1.2862l-2.2624 5.4002q-0.92739 2.2136 1.2862 3.141l7.1411 2.9918q2.2136 0.92739 3.141-1.2862z" clip-path="url(#a)" fill="#fff" stroke="#fff"/>
<g clip-path="url(#a)">
<defs>
<path id="ag" d="m8.6875 72.906h9.9219v-44.297q0-11.719 4.2344-16.875 4.25-5.1406 13.781-5.1406 9.4688 0 13.719 5.1406 4.25 5.1562 4.25 16.875v44.297h9.9062v-45.516q0-14.25-7.0625-21.531-7.0469-7.2812-20.812-7.2812-13.828 0-20.891 7.2812-7.0469 7.2812-7.0469 21.531z"/>
</defs>
<g transform="translate(871.45 387.11) rotate(-67.269) scale(.08 -.08)">
<use xlink:href="#ag"/>
</g>
</g>
<path d="m947.49 386.55 4.5264 3.7139q1.8554 1.5223 3.3777-0.33305l4.9111-5.9856q1.5223-1.8554-0.33305-3.3777l-4.5264-3.7139q-1.8554-1.5223-3.3777 0.33305l-4.9111 5.9856q-1.5223 1.8554 0.33305 3.3777z" clip-path="url(#a)" fill="#fff" stroke="#fff"/>
<g clip-path="url(#a)">
<g transform="translate(950.07 383.41) rotate(39.369) scale(.08 -.08)">
<use xlink:href="#ag"/>
</g>
</g>
<path d="m765.61 467.55v33.808q0 2.4 2.4 2.4h7.7425q2.4 0 2.4-2.4v-33.808q0-2.4-2.4-2.4h-7.7425q-2.4 0-2.4 2.4z" clip-path="url(#a)" fill="#fff" stroke="#fff"/>
<g clip-path="url(#a)">
<g transform="translate(769.68 467.55) rotate(90) scale(.08 -.08)">
<use xlink:href="#l"/>
<use x="44.083984" xlink:href="#d"/>
<use x="105.607422" xlink:href="#i"/>
<use x="144.970703" xlink:href="#j"/>
<use x="242.382812" xlink:href="#g"/>
<use x="270.166016" xlink:href="#e"/>
<use x="333.544922" xlink:href="#h"/>
<use x="394.824219" xlink:href="#k"/>
</g>
</g>
<path d="m924.25 467.55v33.808q0 2.4 2.4 2.4h7.7425q2.4 0 2.4-2.4v-33.808q0-2.4-2.4-2.4h-7.7425q-2.4 0-2.4 2.4z" clip-path="url(#a)" fill="#fff" stroke="#fff"/>
<g clip-path="url(#a)">
<g transform="translate(928.31 467.55) rotate(90) scale(.08 -.08)">
<use xlink:href="#l"/>
<use x="44.083984" xlink:href="#d"/>
<use x="105.607422" xlink:href="#i"/>
<use x="144.970703" xlink:href="#j"/>
<use x="242.382812" xlink:href="#g"/>
<use x="270.166016" xlink:href="#e"/>
<use x="333.544922" xlink:href="#h"/>
<use x="394.824219" xlink:href="#k"/>
</g>
</g>
<path d="m436.74 467.55v33.808q0 2.4 2.4 2.4h7.7425q2.4 0 2.4-2.4v-33.808q0-2.4-2.4-2.4h-7.7425q-2.4 0-2.4 2.4z" clip-path="url(#a)" fill="#fff" stroke="#fff"/>
<g clip-path="url(#a)">
<g transform="translate(440.8 467.55) rotate(90) scale(.08 -.08)">
<use xlink:href="#l"/>
<use x="44.083984" xlink:href="#d"/>
<use x="105.607422" xlink:href="#i"/>
<use x="144.970703" xlink:href="#j"/>
<use x="242.382812" xlink:href="#g"/>
<use x="270.166016" xlink:href="#e"/>
<use x="333.544922" xlink:href="#h"/>
<use x="394.824219" xlink:href="#k"/>
</g>
</g>
<path d="m494.78 467.55v33.808q0 2.4 2.4 2.4h7.7425q2.4 0 2.4-2.4v-33.808q0-2.4-2.4-2.4h-7.7425q-2.4 0-2.4 2.4z" clip-path="url(#a)" fill="#fff" stroke="#fff"/>
<g clip-path="url(#a)">
<g transform="translate(498.84 467.55) rotate(90) scale(.08 -.08)">
<use xlink:href="#l"/>
<use x="44.083984" xlink:href="#d"/>
<use x="105.607422" xlink:href="#i"/>
<use x="144.970703" xlink:href="#j"/>
<use x="242.382812" xlink:href="#g"/>
<use x="270.166016" xlink:href="#e"/>
<use x="333.544922" xlink:href="#h"/>
<use x="394.824219" xlink:href="#k"/>
</g>
</g>
<path d="m556.68 467.55v33.808q0 2.4 2.4 2.4h7.7425q2.4 0 2.4-2.4v-33.808q0-2.4-2.4-2.4h-7.7425q-2.4 0-2.4 2.4z" clip-path="url(#a)" fill="#fff" stroke="#fff"/>
<g clip-path="url(#a)">
<g transform="translate(560.75 467.55) rotate(90) scale(.08 -.08)">
<use xlink:href="#l"/>
<use x="44.083984" xlink:href="#d"/>
<use x="105.607422" xlink:href="#i"/>
<use x="144.970703" xlink:href="#j"/>
<use x="242.382812" xlink:href="#g"/>
<use x="270.166016" xlink:href="#e"/>
<use x="333.544922" xlink:href="#h"/>
<use x="394.824219" xlink:href="#k"/>
</g>
</g>
<path d="m332.27 467.55v33.808q0 2.4 2.4 2.4h7.7425q2.4 0 2.4-2.4v-33.808q0-2.4-2.4-2.4h-7.7425q-2.4 0-2.4 2.4z" clip-path="url(#a)" fill="#fff" stroke="#fff"/>
<g clip-path="url(#a)">
<g transform="translate(336.34 467.55) rotate(90) scale(.08 -.08)">
<use xlink:href="#l"/>
<use x="44.083984" xlink:href="#d"/>
<use x="105.607422" xlink:href="#i"/>
<use x="144.970703" xlink:href="#j"/>
<use x="242.382812" xlink:href="#g"/>
<use x="270.166016" xlink:href="#e"/>
<use x="333.544922" xlink:href="#h"/>
<use x="394.824219" xlink:href="#k"/>
</g>
</g>
<path d="m382.57 467.55v33.808q0 2.4 2.4 2.4h7.7425q2.4 0 2.4-2.4v-33.808q0-2.4-2.4-2.4h-7.7425q-2.4 0-2.4 2.4z" clip-path="url(#a)" fill="#fff" stroke="#fff"/>
<g clip-path="url(#a)">
<g transform="translate(386.64 467.55) rotate(90) scale(.08 -.08)">
<use xlink:href="#l"/>
<use x="44.083984" xlink:href="#d"/>
<use x="105.607422" xlink:href="#i"/>
<use x="144.970703" xlink:href="#j"/>
<use x="242.382812" xlink:href="#g"/>
<use x="270.166016" xlink:href="#e"/>
<use x="333.544922" xlink:href="#h"/>
<use x="394.824219" xlink:href="#k"/>
</g>
</g>
<path d="m53.7 467.55v33.808q0 2.4 2.4 2.4h7.7425q2.4 0 2.4-2.4v-33.808q0-2.4-2.4-2.4h-7.7425q-2.4 0-2.4 2.4z" clip-path="url(#a)" fill="#fff" stroke="#fff"/>
<g clip-path="url(#a)">
<g transform="translate(57.763 467.55) rotate(90) scale(.08 -.08)">
<use xlink:href="#l"/>
<use x="44.083984" xlink:href="#d"/>
<use x="105.607422" xlink:href="#i"/>
<use x="144.970703" xlink:href="#j"/>
<use x="242.382812" xlink:href="#g"/>
<use x="270.166016" xlink:href="#e"/>
<use x="333.544922" xlink:href="#h"/>
<use x="394.824219" xlink:href="#k"/>
</g>
</g>
<path d="m69.176 467.55v33.808q0 2.4 2.4 2.4h7.7425q2.4 0 2.4-2.4v-33.808q0-2.4-2.4-2.4h-7.7425q-2.4 0-2.4 2.4z" clip-path="url(#a)" fill="#fff" stroke="#fff"/>
<g clip-path="url(#a)">
<g transform="translate(73.24 467.55) rotate(90) scale(.08 -.08)">
<use xlink:href="#l"/>
<use x="44.083984" xlink:href="#d"/>
<use x="105.607422" xlink:href="#i"/>
<use x="144.970703" xlink:href="#j"/>
<use x="242.382812" xlink:href="#g"/>
<use x="270.166016" xlink:href="#e"/>
<use x="333.544922" xlink:href="#h"/>
<use x="394.824219" xlink:href="#k"/>
</g>
</g>
<path d="m88.521 467.55v33.808q0 2.4 2.4 2.4h7.7425q2.4 0 2.4-2.4v-33.808q0-2.4-2.4-2.4h-7.7425q-2.4 0-2.4 2.4z" clip-path="url(#a)" fill="#fff" stroke="#fff"/>
<g clip-path="url(#a)">
<g transform="translate(92.585 467.55) rotate(90) scale(.08 -.08)">
<use xlink:href="#l"/>
<use x="44.083984" xlink:href="#d"/>
<use x="105.607422" xlink:href="#i"/>
<use x="144.970703" xlink:href="#j"/>
<use x="242.382812" xlink:href="#g"/>
<use x="270.166016" xlink:href="#e"/>
<use x="333.544922" xlink:href="#h"/>
<use x="394.824219" xlink:href="#k"/>
</g>
</g>
<path d="m137.49 387.92 1.4953-5.3538q0.64562-2.3115-1.6659-2.9571l-7.4571-2.0828q-2.3115-0.64562-2.9571 1.6659l-1.4953 5.3538q-0.64562 2.3115 1.6659 2.9571l7.4571 2.0828q2.3115 0.64562 2.9571-1.6659z" clip-path="url(#a)" fill="#fff" stroke="#fff"/>
<g clip-path="url(#a)">
<g transform="translate(133.57 386.83) rotate(-74.395) scale(.08 -.08)">
<use xlink:href="#ah"/>
</g>
</g>
<path d="m151.97 386.38 0.069471-5.4721q0.030467-2.3998-2.3693-2.4303l-7.7419-0.098288q-2.3998-0.030467-2.4303 2.3693l-0.069471 5.4721q-0.030466 2.3998 2.3693 2.4303l7.7419 0.098288q2.3998 0.030467 2.4303-2.3693z" clip-path="url(#a)" fill="#fff" stroke="#fff"/>
<g clip-path="url(#a)">
<g transform="translate(147.91 386.32) rotate(-89.273) scale(.08 -.08)">
<use xlink:href="#n"/>
</g>
</g>
<path d="m154.48 382.88 1.4235 4.8752q0.6727 2.3038 2.9765 1.6311l7.4321-2.1702q2.3038-0.6727 1.6311-2.9765l-1.4235-4.8752q-0.6727-2.3038-2.9765-1.6311l-7.4321 2.1702q-2.3038 0.6727-1.6311 2.9765z" clip-path="url(#a)" fill="#fff" stroke="#fff"/>
<g clip-path="url(#a)">
<g transform="translate(158.38 381.74) rotate(73.722) scale(.08 -.08)">
<use xlink:href="#v"/>
</g>
</g>
<path d="m204.59 467.55v33.808q0 2.4 2.4 2.4h7.7425q2.4 0 2.4-2.4v-33.808q0-2.4-2.4-2.4h-7.7425q-2.4 0-2.4 2.4z" clip-path="url(#a)" fill="#fff" stroke="#fff"/>
<g clip-path="url(#a)">
<g transform="translate(208.66 467.55) rotate(90) scale(.08 -.08)">
<use xlink:href="#l"/>
<use x="44.083984" xlink:href="#d"/>
<use x="105.607422" xlink:href="#i"/>
<use x="144.970703" xlink:href="#j"/>
<use x="242.382812" xlink:href="#g"/>
<use x="270.166016" xlink:href="#e"/>
<use x="333.544922" xlink:href="#h"/>
<use x="394.824219" xlink:href="#k"/>
</g>
</g>
<path d="m111.74 467.55v33.808q0 2.4 2.4 2.4h7.7425q2.4 0 2.4-2.4v-33.808q0-2.4-2.4-2.4h-7.7425q-2.4 0-2.4 2.4z" clip-path="url(#a)" fill="#fff" stroke="#fff"/>
<g clip-path="url(#a)">
<g transform="translate(115.8 467.55) rotate(90) scale(.08 -.08)">
<use xlink:href="#l"/>
<use x="44.083984" xlink:href="#d"/>
<use x="105.607422" xlink:href="#i"/>
<use x="144.970703" xlink:href="#j"/>
<use x="242.382812" xlink:href="#g"/>
<use x="270.166016" xlink:href="#e"/>
<use x="333.544922" xlink:href="#h"/>
<use x="394.824219" xlink:href="#k"/>
</g>
</g>
<path d="m138.82 467.55v33.808q0 2.4 2.4 2.4h7.7425q2.4 0 2.4-2.4v-33.808q0-2.4-2.4-2.4h-7.7425q-2.4 0-2.4 2.4z" clip-path="url(#a)" fill="#fff" stroke="#fff"/>
<g clip-path="url(#a)">
<g transform="translate(142.88 467.55) rotate(90) scale(.08 -.08)">
<use xlink:href="#l"/>
<use x="44.083984" xlink:href="#d"/>
<use x="105.607422" xlink:href="#i"/>
<use x="144.970703" xlink:href="#j"/>
<use x="242.382812" xlink:href="#g"/>
<use x="270.166016" xlink:href="#e"/>
<use x="333.544922" xlink:href="#h"/>
<use x="394.824219" xlink:href="#k"/>
</g>
</g>
<path d="m169.77 467.55v33.808q0 2.4 2.4 2.4h7.7425q2.4 0 2.4-2.4v-33.808q0-2.4-2.4-2.4h-7.7425q-2.4 0-2.4 2.4z" clip-path="url(#a)" fill="#fff" stroke="#fff"/>
<g clip-path="url(#a)">
<g transform="translate(173.84 467.55) rotate(90) scale(.08 -.08)">
<use xlink:href="#l"/>
<use x="44.083984" xlink:href="#d"/>
<use x="105.607422" xlink:href="#i"/>
<use x="144.970703" xlink:href="#j"/>
<use x="242.382812" xlink:href="#g"/>
<use x="270.166016" xlink:href="#e"/>
<use x="333.544922" xlink:href="#h"/>
<use x="394.824219" xlink:href="#k"/>
</g>
</g>
<path d="m842.99 467.55v33.808q0 2.4 2.4 2.4h7.7425q2.4 0 2.4-2.4v-33.808q0-2.4-2.4-2.4h-7.7425q-2.4 0-2.4 2.4z" clip-path="url(#a)" fill="#fff" stroke="#fff"/>
<g clip-path="url(#a)">
<g transform="translate(847.06 467.55) rotate(90) scale(.08 -.08)">
<use xlink:href="#l"/>
<use x="44.083984" xlink:href="#d"/>
<use x="105.607422" xlink:href="#i"/>
<use x="144.970703" xlink:href="#j"/>
<use x="242.382812" xlink:href="#g"/>
<use x="270.166016" xlink:href="#e"/>
<use x="333.544922" xlink:href="#h"/>
<use x="394.824219" xlink:href="#k"/>
</g>
</g>
<path d="m1009.4 467.55v33.808q0 2.4 2.4 2.4h7.7425q2.4 0 2.4-2.4v-33.808q0-2.4-2.4-2.4h-7.7425q-2.4 0-2.4 2.4z" clip-path="url(#a)" fill="#fff" stroke="#fff"/>
<g clip-path="url(#a)">
<g transform="translate(1013.4 467.55) rotate(90) scale(.08 -.08)">
<use xlink:href="#l"/>
<use x="44.083984" xlink:href="#d"/>
<use x="105.607422" xlink:href="#i"/>
<use x="144.970703" xlink:href="#j"/>
<use x="242.382812" xlink:href="#g"/>
<use x="270.166016" xlink:href="#e"/>
<use x="333.544922" xlink:href="#h"/>
<use x="394.824219" xlink:href="#k"/>
</g>
</g>
<defs>
<path id="b" d="m0 8.6603c2.2967 0 4.4997-0.9125 6.1237-2.5365 1.624-1.624 2.5365-3.827 2.5365-6.1237s-0.9125-4.4997-2.5365-6.1237c-1.624-1.624-3.827-2.5365-6.1237-2.5365s-4.4997 0.9125-6.1237 2.5365c-1.624 1.624-2.5365 3.827-2.5365 6.1237s0.9125 4.4997 2.5365 6.1237c1.624 1.624 3.827 2.5365 6.1237 2.5365z"/>
</defs>
<g clip-path="url(#a)">
<use x="48.363636" y="534.545455" fill="#ffffff" stroke="#ffffff" xlink:href="#b"/>
</g>
<g clip-path="url(#a)">
<use x="59.970909" y="534.545455" fill="#ffffff" stroke="#ffffff" xlink:href="#b"/>
</g>
<g clip-path="url(#a)">
<use x="75.447273" y="534.545455" fill="#ffffff" stroke="#ffffff" xlink:href="#b"/>
</g>
<g clip-path="url(#a)">
<use x="94.792727" y="534.545455" fill="#ffffff" stroke="#ffffff" xlink:href="#b"/>
</g>
<g clip-path="url(#a)">
<use x="118.007273" y="534.545455" fill="#ffffff" stroke="#ffffff" xlink:href="#b"/>
</g>
<g clip-path="url(#a)">
<use x="145.090909" y="534.545455" fill="#ffffff" stroke="#ffffff" xlink:href="#b"/>
</g>
<g clip-path="url(#a)">
<use x="176.043636" y="534.545455" fill="#ffffff" stroke="#ffffff" xlink:href="#b"/>
</g>
<g clip-path="url(#a)">
<use x="210.865455" y="534.545455" fill="#ffffff" stroke="#ffffff" xlink:href="#b"/>
</g>
<g clip-path="url(#a)">
<use x="249.556364" y="534.545455" fill="#ffffff" stroke="#ffffff" xlink:href="#b"/>
</g>
<g clip-path="url(#a)">
<use x="292.116364" y="534.545455" fill="#ffffff" stroke="#ffffff" xlink:href="#b"/>
</g>
<g clip-path="url(#a)">
<use x="338.545455" y="534.545455" fill="#ffffff" stroke="#ffffff" xlink:href="#b"/>
</g>
<g clip-path="url(#a)">
<use x="388.843636" y="534.545455" fill="#ffffff" stroke="#ffffff" xlink:href="#b"/>
</g>
<g clip-path="url(#a)">
<use x="443.010909" y="534.545455" fill="#ffffff" stroke="#ffffff" xlink:href="#b"/>
</g>
<g clip-path="url(#a)">
<use x="501.047273" y="534.545455" fill="#ffffff" stroke="#ffffff" xlink:href="#b"/>
</g>
<g clip-path="url(#a)">
<use x="562.952727" y="534.545455" fill="#ffffff" stroke="#ffffff" xlink:href="#b"/>
</g>
<g clip-path="url(#a)">
<use x="628.727273" y="534.545455" fill="#ffffff" stroke="#ffffff" xlink:href="#b"/>
</g>
<g clip-path="url(#a)">
<use x="698.370909" y="534.545455" fill="#ffffff" stroke="#ffffff" xlink:href="#b"/>
</g>
<g clip-path="url(#a)">
<use x="771.883636" y="534.545455" fill="#ffffff" stroke="#ffffff" xlink:href="#b"/>
</g>
<g clip-path="url(#a)">
<use x="849.265455" y="534.545455" fill="#ffffff" stroke="#ffffff" xlink:href="#b"/>
</g>
<g clip-path="url(#a)">
<use x="930.516364" y="534.545455" fill="#ffffff" stroke="#ffffff" xlink:href="#b"/>
</g>
<g clip-path="url(#a)">
<use x="1015.636364" y="534.545455" fill="#ffffff" stroke="#ffffff" xlink:href="#b"/>
</g>
<g clip-path="url(#a)">
<use x="304.139205" y="25.454545" fill="#ffffff" stroke="#ffffff" xlink:href="#b"/>
</g>
<g clip-path="url(#a)">
<use x="48.363636" y="434.352857" fill="#ffffff" stroke="#ffffff" xlink:href="#b"/>
</g>
<g clip-path="url(#a)">
<use x="117.491394" y="230.647271" fill="#ffffff" stroke="#ffffff" xlink:href="#b"/>
</g>
<g clip-path="url(#a)">
<use x="249.556364" y="434.352857" fill="#ffffff" stroke="#ffffff" xlink:href="#b"/>
</g>
<g clip-path="url(#a)">
<use x="292.116364" y="434.352857" fill="#ffffff" stroke="#ffffff" xlink:href="#b"/>
</g>
<g clip-path="url(#a)">
<use x="475.253333" y="332.76647" fill="#ffffff" stroke="#ffffff" xlink:href="#b"/>
</g>
<g clip-path="url(#a)">
<use x="642.054141" y="128.180517" fill="#ffffff" stroke="#ffffff" xlink:href="#b"/>
</g>
<g clip-path="url(#a)">
<use x="502.33697" y="332.76647" fill="#ffffff" stroke="#ffffff" xlink:href="#b"/>
</g>
<g clip-path="url(#a)">
<use x="628.727273" y="434.352857" fill="#ffffff" stroke="#ffffff" xlink:href="#b"/>
</g>
<g clip-path="url(#a)">
<use x="795.098182" y="230.647271" fill="#ffffff" stroke="#ffffff" xlink:href="#b"/>
</g>
<g clip-path="url(#a)">
<use x="698.370909" y="434.352857" fill="#ffffff" stroke="#ffffff" xlink:href="#b"/>
</g>
<g clip-path="url(#a)">
<use x="891.825455" y="332.76647" fill="#ffffff" stroke="#ffffff" xlink:href="#b"/>
</g>
<g clip-path="url(#a)">
<use x="771.883636" y="434.352857" fill="#ffffff" stroke="#ffffff" xlink:href="#b"/>
</g>
<g clip-path="url(#a)">
<use x="930.516364" y="434.352857" fill="#ffffff" stroke="#ffffff" xlink:href="#b"/>
</g>
<g clip-path="url(#a)">
<use x="443.010909" y="434.352857" fill="#ffffff" stroke="#ffffff" xlink:href="#b"/>
</g>
<g clip-path="url(#a)">
<use x="501.047273" y="434.352857" fill="#ffffff" stroke="#ffffff" xlink:href="#b"/>
</g>
<g clip-path="url(#a)">
<use x="562.952727" y="434.352857" fill="#ffffff" stroke="#ffffff" xlink:href="#b"/>
</g>
<g clip-path="url(#a)">
<use x="338.545455" y="434.352857" fill="#ffffff" stroke="#ffffff" xlink:href="#b"/>
</g>
<g clip-path="url(#a)">
<use x="388.843636" y="434.352857" fill="#ffffff" stroke="#ffffff" xlink:href="#b"/>
</g>
<g clip-path="url(#a)">
<use x="59.970909" y="434.352857" fill="#ffffff" stroke="#ffffff" xlink:href="#b"/>
</g>
<g clip-path="url(#a)">
<use x="75.447273" y="434.352857" fill="#ffffff" stroke="#ffffff" xlink:href="#b"/>
</g>
<g clip-path="url(#a)">
<use x="94.792727" y="434.352857" fill="#ffffff" stroke="#ffffff" xlink:href="#b"/>
</g>
<g clip-path="url(#a)">
<use x="146.380606" y="332.76647" fill="#ffffff" stroke="#ffffff" xlink:href="#b"/>
</g>
<g clip-path="url(#a)">
<use x="210.865455" y="434.352857" fill="#ffffff" stroke="#ffffff" xlink:href="#b"/>
</g>
<g clip-path="url(#a)">
<use x="118.007273" y="434.352857" fill="#ffffff" stroke="#ffffff" xlink:href="#b"/>
</g>
<g clip-path="url(#a)">
<use x="145.090909" y="434.352857" fill="#ffffff" stroke="#ffffff" xlink:href="#b"/>
</g>
<g clip-path="url(#a)">
<use x="176.043636" y="434.352857" fill="#ffffff" stroke="#ffffff" xlink:href="#b"/>
</g>
<g clip-path="url(#a)">
<use x="849.265455" y="434.352857" fill="#ffffff" stroke="#ffffff" xlink:href="#b"/>
</g>
<g clip-path="url(#a)">
<use x="1015.636364" y="434.352857" fill="#ffffff" stroke="#ffffff" xlink:href="#b"/>
</g>
<g clip-path="url(#a)">
<defs>
<path id="as" d="m30.609 48.391q-7.2188 0-11.422-5.6406t-4.2031-15.453 4.1719-15.453q4.1875-5.6406 11.453-5.6406 7.1875 0 11.375 5.6562 4.2031 5.6719 4.2031 15.438 0 9.7188-4.2031 15.406-4.1875 5.6875-11.375 5.6875zm0 7.6094q11.719 0 18.406-7.625 6.7031-7.6094 6.7031-21.078 0-13.422-6.7031-21.078-6.6875-7.6406-18.406-7.6406-11.766 0-18.438 7.6406-6.6562 7.6562-6.6562 21.078 0 13.469 6.6562 21.078 6.6719 7.625 18.438 7.625z"/>
</defs>
<g transform="translate(42.13 537.3) scale(.1 -.1)">
<use xlink:href="#v"/>
<use x="63.476562" xlink:href="#as"/>
</g>
</g>
<g clip-path="url(#a)">
<defs>
<path id="o" d="m54.891 33.016v-33.016h-8.9844v32.719q0 7.7656-3.0312 11.609-3.0312 3.8594-9.0781 3.8594-7.2812 0-11.484-4.6406-4.2031-4.625-4.2031-12.641v-30.906h-9.0312v75.984h9.0312v-29.797q3.2344 4.9375 7.5938 7.375 4.375 2.4375 10.094 2.4375 9.4219 0 14.25-5.8281 4.8438-5.8281 4.8438-17.156z"/>
<path id="t" d="m48.688 27.297q0 9.9062-4.0781 15.547t-11.203 5.6406q-7.1406 0-11.219-5.6406t-4.0781-15.547 4.0781-15.547 11.219-5.6406q7.125 0 11.203 5.6406t4.0781 15.547zm-30.578 19.094q2.8438 4.875 7.1562 7.2344 4.3281 2.375 10.328 2.375 9.9688 0 16.188-7.9062 6.2344-7.9062 6.2344-20.797t-6.2344-20.812q-6.2188-7.9062-16.188-7.9062-6 0-10.328 2.375-4.3125 2.375-7.1562 7.25v-8.2031h-9.0312v75.984h9.0312z"/>
</defs>
<g transform="translate(47.487 537.3) scale(.1 -.1)">
<use xlink:href="#o"/>
<use x="63.378906" xlink:href="#h"/>
<use x="124.658203" xlink:href="#t"/>
<use x="188.134766" xlink:href="#d"/>
</g>
</g>
<g clip-path="url(#a)">
<defs>
<path id="p" d="m48.781 52.594v-8.4062q-3.8125 2.1094-7.6406 3.1562t-7.7344 1.0469q-8.75 0-13.594-5.5469-4.8281-5.5312-4.8281-15.547t4.8281-15.562q4.8438-5.5312 13.594-5.5312 3.9062 0 7.7344 1.0469t7.6406 3.1562v-8.3125q-3.7656-1.75-7.7969-2.625-4.0156-0.89062-8.5625-0.89062-12.359 0-19.641 7.7656-7.2656 7.7656-7.2656 20.953 0 13.375 7.3438 21.031 7.3594 7.6719 20.156 7.6719 4.1406 0 8.0938-0.85938 3.9531-0.84375 7.6719-2.5469z"/>
</defs>
<g transform="translate(68.14 537.3) scale(.1 -.1)">
<use xlink:href="#g"/>
<use x="27.783203" xlink:href="#p"/>
<use x="82.763672" xlink:href="#o"/>
</g>
</g>
<g clip-path="url(#a)">
<defs>
<path id="ar" d="m2.9844 54.688h9.5156l17.094-45.891 17.094 45.891h9.5156l-20.516-54.688h-12.203z"/>
</defs>
<g transform="translate(85.979 537.3) scale(.1 -.1)">
<use xlink:href="#ar"/>
<use x="59.179688" xlink:href="#g"/>
<use x="86.962891" xlink:href="#d"/>
<use x="148.486328" xlink:href="#k"/>
</g>
</g>
<g clip-path="url(#a)">
<defs>
<path id="aq" d="m8.5 21.578v33.109h8.9844v-32.766q0-7.7656 3.0156-11.656 3.0312-3.875 9.0938-3.875 7.2656 0 11.484 4.6406 4.2344 4.6406 4.2344 12.656v31h8.9844v-54.688h-8.9844v8.4062q-3.2656-4.9844-7.5938-7.4062-4.3125-2.4219-10.031-2.4219-9.4219 0-14.312 5.8594-4.875 5.8594-4.875 17.141zm22.609 34.422m4.4844 19.781h9.9062v-9.8594h-9.9062zm-19.094 0h9.9062v-9.8594h-9.9062z"/>
</defs>
<g transform="translate(106.53 537.3) scale(.1 -.1)">
<use xlink:href="#aq"/>
<use x="63.378906" xlink:href="#t"/>
<use x="126.855469" xlink:href="#d"/>
<use x="188.378906" xlink:href="#i"/>
</g>
</g>
<g clip-path="url(#a)">
<defs>
<path id="an" d="m44.281 53.078v-8.5q-3.7969 1.9531-7.9062 2.9219-4.0938 0.98438-8.5 0.98438-6.6875 0-10.031-2.0469t-3.3438-6.1562q0-3.125 2.3906-4.9062t9.625-3.3906l3.0781-0.6875q9.5625-2.0469 13.594-5.7812t4.0312-10.422q0-7.625-6.0312-12.078-6.0312-4.4375-16.578-4.4375-4.3906 0-9.1562 0.85938t-10.031 2.5625v9.2812q4.9844-2.5938 9.8125-3.8906 4.8281-1.2812 9.5781-1.2812 6.3438 0 9.75 2.1719 3.4219 2.1719 3.4219 6.125 0 3.6562-2.4688 5.6094-2.4531 1.9531-10.812 3.7656l-3.125 0.73438q-8.3438 1.75-12.062 5.3906-3.7031 3.6406-3.7031 9.9844 0 7.7188 5.4688 11.906 5.4688 4.2031 15.531 4.2031 4.9688 0 9.3594-0.73438 4.4062-0.71875 8.1094-2.1875z"/>
<path id="u" d="m8.5 21.578v33.109h8.9844v-32.766q0-7.7656 3.0156-11.656 3.0312-3.875 9.0938-3.875 7.2656 0 11.484 4.6406 4.2344 4.6406 4.2344 12.656v31h8.9844v-54.688h-8.9844v8.4062q-3.2656-4.9844-7.5938-7.4062-4.3125-2.4219-10.031-2.4219-9.4219 0-14.312 5.8594-4.875 5.8594-4.875 17.141z"/>
<path id="s" d="m45.406 27.984q0 9.7656-4.0312 15.125-4.0156 5.375-11.297 5.375-7.2188 0-11.25-5.375-4.0312-5.3594-4.0312-15.125 0-9.7188 4.0312-15.094t11.25-5.375q7.2812 0 11.297 5.375 4.0312 5.375 4.0312 15.094zm8.9844-21.203q0-13.953-6.2031-20.766-6.1875-6.8125-18.984-6.8125-4.7344 0-8.9375 0.70312t-8.1562 2.1719v8.7344q3.9531-2.1406 7.8125-3.1562 3.8594-1.0312 7.8594-1.0312 8.8438 0 13.234 4.6094t4.3906 13.938v4.4531q-2.7812-4.8438-7.125-7.2344t-10.406-2.3906q-10.047 0-16.203 7.6562-6.1562 7.6719-6.1562 20.328 0 12.688 6.1562 20.344 6.1562 7.6719 16.203 7.6719 6.0625 0 10.406-2.3906t7.125-7.2188v8.2969h8.9844z"/>
</defs>
<g transform="translate(118.74 537.3) scale(.1 -.1)">
<use xlink:href="#ak"/>
<use x="77.001953" xlink:href="#an"/>
<use x="129.101562" xlink:href="#p"/>
<use x="184.082031" xlink:href="#o"/>
<use x="247.460938" xlink:href="#u"/>
<use x="310.839844" xlink:href="#e"/>
<use x="374.21875" xlink:href="#s"/>
<use x="437.695312" xlink:href="#d"/>
<use x="499.21875" xlink:href="#k"/>
</g>
</g>
<g clip-path="url(#a)">
<defs>
<path id="r" d="m18.312 70.219v-15.531h18.5v-6.9844h-18.5v-29.688q0-6.6875 1.8281-8.5938t7.4531-1.9062h9.2188v-7.5156h-9.2188q-10.406 0-14.359 3.875-3.9531 3.8906-3.9531 14.141v29.688h-6.5938v6.9844h6.5938v15.531z"/>
</defs>
<g transform="translate(150.22 537.3) scale(.1 -.1)">
<use xlink:href="#h"/>
<use x="61.279297" xlink:href="#t"/>
<use x="124.755859" xlink:href="#d"/>
<use x="186.279297" xlink:href="#e"/>
<use x="249.658203" xlink:href="#r"/>
<use x="288.867188" xlink:href="#d"/>
<use x="350.390625" xlink:href="#u"/>
<use x="413.769531" xlink:href="#d"/>
<use x="475.292969" xlink:href="#i"/>
</g>
</g>
<g clip-path="url(#a)">
<defs>
<path id="af" d="m45.406 46.391v29.594h8.9844v-75.984h-8.9844v8.2031q-2.8281-4.875-7.1562-7.25-4.3125-2.375-10.375-2.375-9.9062 0-16.141 7.9062-6.2188 7.9219-6.2188 20.812t6.2188 20.797q6.2344 7.9062 16.141 7.9062 6.0625 0 10.375-2.375 4.3281-2.3594 7.1562-7.2344zm-30.609-19.094q0-9.9062 4.0781-15.547t11.203-5.6406 11.219 5.6406q4.1094 5.6406 4.1094 15.547t-4.1094 15.547q-4.0938 5.6406-11.219 5.6406t-11.203-5.6406-4.0781-15.547z"/>
</defs>
<g transform="translate(178.35 537.3) scale(.1 -.1)">
<use xlink:href="#e"/>
<use x="63.378906" xlink:href="#h"/>
<use x="124.658203" xlink:href="#p"/>
<use x="179.638672" xlink:href="#o"/>
<use x="243.017578" xlink:href="#s"/>
<use x="306.494141" xlink:href="#d"/>
<use x="368.017578" xlink:href="#af"/>
<use x="431.494141" xlink:href="#h"/>
<use x="492.773438" xlink:href="#p"/>
<use x="547.753906" xlink:href="#o"/>
<use x="611.132812" xlink:href="#r"/>
</g>
</g>
<g clip-path="url(#a)">
<g transform="translate(240.04 537.3) scale(.1 -.1)">
<use xlink:href="#u"/>
<use x="63.378906" xlink:href="#e"/>
<use x="126.757812" xlink:href="#af"/>
</g>
</g>
<g clip-path="url(#a)">
<g transform="translate(279.54 537.3) scale(.1 -.1)">
<use xlink:href="#af"/>
<use x="63.476562" xlink:href="#h"/>
<use x="124.755859" xlink:href="#e"/>
<use x="188.134766" xlink:href="#e"/>
</g>
</g>
<g clip-path="url(#a)">
<g transform="translate(321.5 537.3) scale(.1 -.1)">
<use xlink:href="#s"/>
<use x="63.476562" xlink:href="#d"/>
<use x="125" xlink:href="#k"/>
<use x="152.783203" xlink:href="#h"/>
<use x="214.0625" xlink:href="#e"/>
<use x="277.441406" xlink:href="#s"/>
</g>
</g>
<g clip-path="url(#a)">
<g transform="translate(380.53 537.3) scale(.1 -.1)">
<use xlink:href="#j"/>
<use x="97.412109" xlink:href="#g"/>
<use x="125.195312" xlink:href="#i"/>
</g>
</g>
<g clip-path="url(#a)">
<g transform="translate(434.79 537.3) scale(.1 -.1)">
<use xlink:href="#j"/>
<use x="97.412109" xlink:href="#g"/>
<use x="125.195312" xlink:href="#r"/>
</g>
</g>
<g clip-path="url(#a)">
<g transform="translate(485.47 537.3) scale(.1 -.1)">
<use xlink:href="#d"/>
<use x="61.523438" xlink:href="#g"/>
<use x="89.306641" xlink:href="#e"/>
<use x="152.685547" xlink:href="#d"/>
<use x="214.208984" xlink:href="#j"/>
</g>
</g>
<g clip-path="url(#a)">
<defs>
<path id="at" d="m37.109 75.984v-7.4844h-8.5938q-4.8281 0-6.7188-1.9531-1.875-1.9531-1.875-7.0312v-4.8281h14.797v-6.9844h-14.797v-47.703h-9.0312v47.703h-8.5938v6.9844h8.5938v3.8125q0 9.125 4.25 13.297 4.25 4.1875 13.469 4.1875z"/>
</defs>
<g transform="translate(542.65 537.3) scale(.1 -.1)">
<use xlink:href="#y"/>
<use x="48.394531" xlink:href="#h"/>
<use x="109.673828" xlink:href="#i"/>
<use x="150.787109" xlink:href="#t"/>
<use x="214.263672" xlink:href="#an"/>
<use x="266.363281" xlink:href="#r"/>
<use x="305.572266" xlink:href="#g"/>
<use x="333.355469" xlink:href="#at"/>
<use x="366.810547" xlink:href="#r"/>
</g>
</g>
<g clip-path="url(#a)">
<g transform="translate(613.15 537.3) scale(.1 -.1)">
<use xlink:href="#j"/>
<use x="97.412109" xlink:href="#d"/>
<use x="158.935547" xlink:href="#g"/>
<use x="186.71875" xlink:href="#e"/>
<use x="250.097656" xlink:href="#d"/>
</g>
</g>
<g clip-path="url(#a)">
<defs>
<path id="ao" d="m5.6094 72.906h57.281v-7.5312l-46.094-57.078h47.219v-8.2969h-59.516v7.5156l46.094 57.078h-44.984z"/>
</defs>
<g transform="translate(671.88 537.3) scale(.1 -.1)">
<use xlink:href="#ao"/>
<use x="68.505859" xlink:href="#d"/>
<use x="130.029297" xlink:href="#g"/>
<use x="157.8125" xlink:href="#p"/>
<use x="212.792969" xlink:href="#o"/>
<use x="276.171875" xlink:href="#e"/>
<use x="339.550781" xlink:href="#u"/>
<use x="402.929688" xlink:href="#e"/>
<use x="466.308594" xlink:href="#s"/>
</g>
</g>
<g clip-path="url(#a)">
<defs>
<path id="ap" d="m9.8125 72.906h13.281l32.328-60.984v60.984h9.5625v-72.906h-13.281l-32.312 60.984v-60.984h-9.5781z"/>
</defs>
<g transform="translate(766.09 537.3) scale(.1 -.1)">
<use xlink:href="#ap"/>
<use x="74.804688" xlink:href="#i"/>
</g>
</g>
<g clip-path="url(#a)">
<defs>
<path id="f" d="m10.688 12.406h10.312v-12.406h-10.312z"/>
</defs>
<g transform="translate(847.68 537.3) scale(.1 -.1)">
<use xlink:href="#f"/>
</g>
</g>
<g clip-path="url(#a)">
<defs>
<path id="c" d="m12.406 8.2969h16.109v55.625l-17.531-3.5156v8.9844l17.438 3.5156h9.8594v-64.609h16.109v-8.2969h-41.984z"/>
</defs>
<g transform="translate(927.34 537.3) scale(.1 -.1)">
<use xlink:href="#c"/>
</g>
</g>
<g clip-path="url(#a)">
<g transform="translate(1014 537.3) scale(.1 -.1)">
<use xlink:href="#f"/>
</g>
</g>
<g clip-path="url(#a)">
<g transform="translate(296.19 28.214) scale(.1 -.1)">
<use xlink:href="#c"/>
<use x="63.623047" xlink:href="#f"/>
<use x="95.410156" xlink:href="#c"/>
</g>
</g>
<g clip-path="url(#a)">
<defs>
<path id="m" d="m19.188 8.2969h34.422v-8.2969h-46.281v8.2969q5.6094 5.8125 15.297 15.594 9.7031 9.7969 12.188 12.641 4.7344 5.3125 6.6094 9 1.8906 3.6875 1.8906 7.25 0 5.8125-4.0781 9.4688-4.0781 3.6719-10.625 3.6719-4.6406 0-9.7969-1.6094-5.1406-1.6094-11-4.8906v9.9688q5.9531 2.3906 11.125 3.6094 5.1875 1.2188 9.4844 1.2188 11.328 0 18.062-5.6719 6.7344-5.6562 6.7344-15.125 0-4.5-1.6875-8.5312-1.6719-4.0156-6.125-9.4844-1.2188-1.4219-7.7656-8.1875-6.5312-6.7656-18.453-18.922z"/>
</defs>
<g transform="translate(40.412 437.11) scale(.1 -.1)">
<use xlink:href="#c"/>
<use x="63.623047" xlink:href="#f"/>
<use x="95.410156" xlink:href="#m"/>
</g>
</g>
<g clip-path="url(#a)">
<defs>
<path id="q" d="m40.578 39.312q7.0781-1.5156 11.047-6.3125 3.9844-4.7812 3.9844-11.812 0-10.781-7.4219-16.703-7.4219-5.9062-21.094-5.9062-4.5781 0-9.4375 0.90625t-10.031 2.7188v9.5156q4.0938-2.3906 8.9688-3.6094 4.8906-1.2188 10.219-1.2188 9.2656 0 14.125 3.6562t4.8594 10.641q0 6.4531-4.5156 10.078-4.5156 3.6406-12.562 3.6406h-8.5v8.1094h8.8906q7.2656 0 11.125 2.9062t3.8594 8.375q0 5.6094-3.9844 8.6094-3.9688 3.0156-11.391 3.0156-4.0625 0-8.7031-0.89062-4.6406-0.875-10.203-2.7188v8.7812q5.625 1.5625 10.531 2.3438t9.25 0.78125q11.234 0 17.766-5.1094 6.5469-5.0938 6.5469-13.781 0-6.0625-3.4688-10.234t-9.8594-5.7812z"/>
</defs>
<g transform="translate(109.54 233.41) scale(.1 -.1)">
<use xlink:href="#c"/>
<use x="63.623047" xlink:href="#f"/>
<use x="95.410156" xlink:href="#q"/>
</g>
</g>
<g clip-path="url(#a)">
<defs>
<path id="ad" d="m37.797 64.312-24.906-38.922h24.906zm-2.5938 8.5938h12.406v-47.516h10.406v-8.2031h-10.406v-17.188h-9.8125v17.188h-32.906v9.5156z"/>
</defs>
<g transform="translate(241.6 437.11) scale(.1 -.1)">
<use xlink:href="#c"/>
<use x="63.623047" xlink:href="#f"/>
<use x="95.410156" xlink:href="#ad"/>
</g>
</g>
<g clip-path="url(#a)">
<defs>
<path id="ac" d="m10.797 72.906h38.719v-8.3125h-29.688v-17.859q2.1406 0.73438 4.2812 1.0938 2.1562 0.35938 4.3125 0.35938 12.203 0 19.328-6.6875 7.1406-6.6875 7.1406-18.109 0-11.766-7.3281-18.297-7.3281-6.5156-20.656-6.5156-4.5938 0-9.3594 0.78125-4.75 0.78125-9.8281 2.3438v9.9219q4.3906-2.3906 9.0781-3.5625t9.9062-1.1719q8.4531 0 13.375 4.4375 4.9375 4.4375 4.9375 12.062 0 7.6094-4.9375 12.047-4.9219 4.4531-13.375 4.4531-3.9531 0-7.8906-0.875-3.9219-0.875-8.0156-2.7344z"/>
</defs>
<g transform="translate(284.16 437.11) scale(.1 -.1)">
<use xlink:href="#c"/>
<use x="63.623047" xlink:href="#f"/>
<use x="95.410156" xlink:href="#ac"/>
</g>
</g>
<g clip-path="url(#a)">
<defs>
<path id="am" d="m33.016 40.375q-6.6406 0-10.531-4.5469-3.875-4.5312-3.875-12.438 0-7.8594 3.875-12.438 3.8906-4.5625 10.531-4.5625t10.516 4.5625q3.875 4.5781 3.875 12.438 0 7.9062-3.875 12.438-3.875 4.5469-10.516 4.5469zm19.578 30.922v-8.9844q-3.7188 1.75-7.5 2.6719-3.7812 0.9375-7.5 0.9375-9.7656 0-14.922-6.5938-5.1406-6.5938-5.875-19.922 2.875 4.25 7.2188 6.5156 4.3594 2.2656 9.5781 2.2656 10.984 0 17.359-6.6719 6.375-6.6562 6.375-18.125 0-11.234-6.6406-18.031-6.6406-6.7812-17.672-6.7812-12.656 0-19.344 9.6875-6.6875 9.7031-6.6875 28.109 0 17.281 8.2031 27.562t22.016 10.281q3.7188 0 7.5-0.73438t7.8906-2.1875z"/>
</defs>
<g transform="translate(467.3 335.53) scale(.1 -.1)">
<use xlink:href="#c"/>
<use x="63.623047" xlink:href="#f"/>
<use x="95.410156" xlink:href="#am"/>
</g>
</g>
<g clip-path="url(#a)">
<defs>
<path id="ab" d="m8.2031 72.906h46.875v-4.2031l-26.469-68.703h-10.297l24.906 64.594h-35.016z"/>
</defs>
<g transform="translate(634.1 130.94) scale(.1 -.1)">
<use xlink:href="#c"/>
<use x="63.623047" xlink:href="#f"/>
<use x="95.410156" xlink:href="#ab"/>
</g>
</g>
<g clip-path="url(#a)">
<defs>
<path id="aa" d="m10.984 1.5156v8.9844q3.7188-1.7656 7.5156-2.6875 3.8125-0.92188 7.4844-0.92188 9.7656 0 14.906 6.5625 5.1562 6.5625 5.8906 19.953-2.8281-4.2031-7.1875-6.4531-4.3438-2.25-9.6094-2.25-10.938 0-17.312 6.6094-6.375 6.625-6.375 18.109 0 11.219 6.6406 18 6.6406 6.7969 17.672 6.7969 12.656 0 19.312-9.7031 6.6719-9.6875 6.6719-28.141 0-17.234-8.1875-27.516-8.1719-10.281-21.984-10.281-3.7188 0-7.5312 0.73438-3.7969 0.73438-7.9062 2.2031zm19.625 30.906q6.6406 0 10.516 4.5312 3.8906 4.5469 3.8906 12.469 0 7.8594-3.8906 12.422-3.875 4.5625-10.516 4.5625t-10.516-4.5625-3.875-12.422q0-7.9219 3.875-12.469 3.875-4.5312 10.516-4.5312z"/>
</defs>
<g transform="translate(494.39 335.53) scale(.1 -.1)">
<use xlink:href="#c"/>
<use x="63.623047" xlink:href="#f"/>
<use x="95.410156" xlink:href="#aa"/>
</g>
</g>
<g clip-path="url(#a)">
<defs>
<path id="ae" d="m31.781 66.406q-7.6094 0-11.453-7.5-3.8281-7.4844-3.8281-22.531 0-14.984 3.8281-22.484 3.8438-7.5 11.453-7.5 7.6719 0 11.5 7.5 3.8438 7.5 3.8438 22.484 0 15.047-3.8438 22.531-3.8281 7.5-11.5 7.5zm0 7.8125q12.266 0 18.734-9.7031 6.4688-9.6875 6.4688-28.141 0-18.406-6.4688-28.109-6.4688-9.6875-18.734-9.6875-12.25 0-18.719 9.6875-6.4688 9.7031-6.4688 28.109 0 18.453 6.4688 28.141 6.4688 9.7031 18.719 9.7031z"/>
</defs>
<g transform="translate(617.59 437.11) scale(.1 -.1)">
<use xlink:href="#c"/>
<use x="63.623047" xlink:href="#f"/>
<use x="95.410156" xlink:href="#c"/>
<use x="159.033203" xlink:href="#ae"/>
</g>
</g>
<g clip-path="url(#a)">
<g transform="translate(783.97 233.41) scale(.1 -.1)">
<use xlink:href="#c"/>
<use x="63.623047" xlink:href="#f"/>
<use x="95.410156" xlink:href="#c"/>
<use x="159.033203" xlink:href="#c"/>
</g>
</g>
<g clip-path="url(#a)">
<g transform="translate(687.24 437.11) scale(.1 -.1)">
<use xlink:href="#c"/>
<use x="63.623047" xlink:href="#f"/>
<use x="95.410156" xlink:href="#c"/>
<use x="159.033203" xlink:href="#m"/>
</g>
</g>
<g clip-path="url(#a)">
<g transform="translate(880.69 335.53) scale(.1 -.1)">
<use xlink:href="#c"/>
<use x="63.623047" xlink:href="#f"/>
<use x="95.410156" xlink:href="#c"/>
<use x="159.033203" xlink:href="#q"/>
</g>
</g>
<g clip-path="url(#a)">
<g transform="translate(760.75 437.11) scale(.1 -.1)">
<use xlink:href="#c"/>
<use x="63.623047" xlink:href="#f"/>
<use x="95.410156" xlink:href="#c"/>
<use x="159.033203" xlink:href="#ad"/>
</g>
</g>
<g clip-path="url(#a)">
<g transform="translate(919.38 437.11) scale(.1 -.1)">
<use xlink:href="#c"/>
<use x="63.623047" xlink:href="#f"/>
<use x="95.410156" xlink:href="#c"/>
<use x="159.033203" xlink:href="#ac"/>
</g>
</g>
<g clip-path="url(#a)">
<g transform="translate(431.88 437.11) scale(.1 -.1)">
<use xlink:href="#c"/>
<use x="63.623047" xlink:href="#f"/>
<use x="95.410156" xlink:href="#c"/>
<use x="159.033203" xlink:href="#ab"/>
</g>
</g>
<g clip-path="url(#a)">
<defs>
<path id="al" d="m31.781 34.625q-7.0312 0-11.062-3.7656-4.0156-3.7656-4.0156-10.344 0-6.5938 4.0156-10.359 4.0312-3.7656 11.062-3.7656t11.078 3.7812q4.0625 3.7969 4.0625 10.344 0 6.5781-4.0312 10.344-4.0156 3.7656-11.109 3.7656zm-9.8594 4.1875q-6.3438 1.5625-9.8906 5.9062-3.5312 4.3594-3.5312 10.609 0 8.7344 6.2188 13.812 6.2344 5.0781 17.062 5.0781 10.891 0 17.094-5.0781t6.2031-13.812q0-6.25-3.5469-10.609-3.5312-4.3438-9.8281-5.9062 7.125-1.6562 11.094-6.5 3.9844-4.8281 3.9844-11.797 0-10.609-6.4688-16.281-6.4688-5.6562-18.531-5.6562-12.047 0-18.531 5.6562-6.4688 5.6719-6.4688 16.281 0 6.9688 4 11.797 4.0156 4.8438 11.141 6.5zm-3.6094 15.578q0-5.6562 3.5312-8.8281 3.5469-3.1719 9.9375-3.1719 6.3594 0 9.9375 3.1719 3.5938 3.1719 3.5938 8.8281 0 5.6719-3.5938 8.8438-3.5781 3.1719-9.9375 3.1719-6.3906 0-9.9375-3.1719-3.5312-3.1719-3.5312-8.8438z"/>
</defs>
<g transform="translate(489.91 437.11) scale(.1 -.1)">
<use xlink:href="#c"/>
<use x="63.623047" xlink:href="#f"/>
<use x="95.410156" xlink:href="#c"/>
<use x="159.033203" xlink:href="#al"/>
</g>
</g>
<g clip-path="url(#a)">
<g transform="translate(551.82 437.11) scale(.1 -.1)">
<use xlink:href="#c"/>
<use x="63.623047" xlink:href="#f"/>
<use x="95.410156" xlink:href="#c"/>
<use x="159.033203" xlink:href="#aa"/>
</g>
</g>
<g clip-path="url(#a)">
<g transform="translate(327.41 437.11) scale(.1 -.1)">
<use xlink:href="#c"/>
<use x="63.623047" xlink:href="#f"/>
<use x="95.410156" xlink:href="#m"/>
<use x="159.033203" xlink:href="#ae"/>
</g>
</g>
<g clip-path="url(#a)">
<g transform="translate(377.71 437.11) scale(.1 -.1)">
<use xlink:href="#c"/>
<use x="63.623047" xlink:href="#f"/>
<use x="95.410156" xlink:href="#m"/>
<use x="159.033203" xlink:href="#c"/>
</g>
</g>
<g clip-path="url(#a)">
<g transform="translate(48.838 437.11) scale(.1 -.1)">
<use xlink:href="#c"/>
<use x="63.623047" xlink:href="#f"/>
<use x="95.410156" xlink:href="#m"/>
<use x="159.033203" xlink:href="#m"/>
</g>
</g>
<g clip-path="url(#a)">
<g transform="translate(64.314 437.11) scale(.1 -.1)">
<use xlink:href="#c"/>
<use x="63.623047" xlink:href="#f"/>
<use x="95.410156" xlink:href="#m"/>
<use x="159.033203" xlink:href="#q"/>
</g>
</g>
<g clip-path="url(#a)">
<g transform="translate(83.66 437.11) scale(.1 -.1)">
<use xlink:href="#c"/>
<use x="63.623047" xlink:href="#f"/>
<use x="95.410156" xlink:href="#m"/>
<use x="159.033203" xlink:href="#ad"/>
</g>
</g>
<g clip-path="url(#a)">
<g transform="translate(135.25 335.53) scale(.1 -.1)">
<use xlink:href="#c"/>
<use x="63.623047" xlink:href="#f"/>
<use x="95.410156" xlink:href="#m"/>
<use x="159.033203" xlink:href="#ac"/>
</g>
</g>
<g clip-path="url(#a)">
<g transform="translate(199.73 437.11) scale(.1 -.1)">
<use xlink:href="#c"/>
<use x="63.623047" xlink:href="#f"/>
<use x="95.410156" xlink:href="#m"/>
<use x="159.033203" xlink:href="#am"/>
</g>
</g>
<g clip-path="url(#a)">
<g transform="translate(106.87 437.11) scale(.1 -.1)">
<use xlink:href="#c"/>
<use x="63.623047" xlink:href="#f"/>
<use x="95.410156" xlink:href="#m"/>
<use x="159.033203" xlink:href="#ab"/>
</g>
</g>
<g clip-path="url(#a)">
<g transform="translate(133.96 437.11) scale(.1 -.1)">
<use xlink:href="#c"/>
<use x="63.623047" xlink:href="#f"/>
<use x="95.410156" xlink:href="#m"/>
<use x="159.033203" xlink:href="#al"/>
</g>
</g>
<g clip-path="url(#a)">
<g transform="translate(164.91 437.11) scale(.1 -.1)">
<use xlink:href="#c"/>
<use x="63.623047" xlink:href="#f"/>
<use x="95.410156" xlink:href="#m"/>
<use x="159.033203" xlink:href="#aa"/>
</g>
</g>
<g clip-path="url(#a)">
<g transform="translate(838.13 437.11) scale(.1 -.1)">
<use xlink:href="#c"/>
<use x="63.623047" xlink:href="#f"/>
<use x="95.410156" xlink:href="#q"/>
<use x="159.033203" xlink:href="#ae"/>
</g>
</g>
<g clip-path="url(#a)">
<g transform="translate(1004.5 437.11) scale(.1 -.1)">
<use xlink:href="#c"/>
<use x="63.623047" xlink:href="#f"/>
<use x="95.410156" xlink:href="#q"/>
<use x="159.033203" xlink:href="#c"/>
</g>
</g>
<defs>
<clipPath id="a">
<rect width="1064" height="560"/>
</clipPath>
</defs>
</svg>
