<?xml version="1.0" encoding="UTF-8"?>
<!DOCTYPE svg  PUBLIC '-//W3C//DTD SVG 1.1//EN'  'http://www.w3.org/Graphics/SVG/1.1/DTD/svg11.dtd'>
<svg width="2077.3pt" height="1093.3pt" version="1.1" viewBox="0 0 2077.3 1093.3" xmlns="http://www.w3.org/2000/svg" xmlns:xlink="http://www.w3.org/1999/xlink">
<defs>
<style type="text/css">*{stroke-linecap:butt;stroke-linejoin:round;}</style>
</defs>
<path d="m0 1093.3h2077.3v-1093.3h-2077.3z" fill="#fff"/>
<g fill="none" stroke="#000">
<path d="m436.05 49.697-331.48 666.25" clip-path="url(#a)"/>
<path d="m436.05 49.697-240.99 500.4" clip-path="url(#a)"/>
<path d="m436.05 49.697-127.6 831.22" clip-path="url(#a)"/>
<path d="m436.05 49.697-45.88 333.99" clip-path="url(#a)"/>
<path d="m436.05 49.697 661.23 167.17" clip-path="url(#a)"/>
<path d="m436.05 49.697-303.86 831.22" clip-path="url(#a)"/>
<path d="m436.05 49.697 388.59 831.22" clip-path="url(#a)"/>
<path d="m104.57 715.94-10.142 164.98" clip-path="url(#a)"/>
<path d="m104.57 715.94 5.5955 164.98" clip-path="url(#a)"/>
<path d="m104.57 715.94 4.5464 164.98" clip-path="url(#a)"/>
<path d="m195.06 550.1-48.174 330.82" clip-path="url(#a)"/>
<path d="m195.06 550.1-31.387 330.82" clip-path="url(#a)"/>
<path d="m195.06 550.1 9.1801 165.84" clip-path="url(#a)"/>
<path d="m195.06 550.1 70.381 165.84" clip-path="url(#a)"/>
<path d="m308.45 880.92v162.71" clip-path="url(#a)"/>
<path d="m390.17 383.69-50.243 497.23" clip-path="url(#a)"/>
<path d="m390.17 383.69-16.67 497.23" clip-path="url(#a)"/>
<path d="m390.17 383.69 19.001 497.23" clip-path="url(#a)"/>
<path d="m390.17 383.69 234.43 166.41" clip-path="url(#a)"/>
<path d="m390.17 383.69-243.29 497.23" clip-path="url(#a)" stroke-dasharray="3.7,1.6"/>
<path d="m390.17 383.69 56.771 497.23" clip-path="url(#a)"/>
<path d="m1097.3 216.86-215.98 664.06" clip-path="url(#a)"/>
<path d="m1097.3 216.86-157.23 664.06" clip-path="url(#a)"/>
<path d="m1097.3 216.86-96.38 664.06" clip-path="url(#a)"/>
<path d="m1097.3 216.86-33.43 664.06" clip-path="url(#a)"/>
<path d="m1097.3 216.86 372.64 166.83" clip-path="url(#a)"/>
<path d="m1097.3 216.86 31.617 664.06" clip-path="url(#a)"/>
<path d="m1097.3 216.86 98.764 664.06" clip-path="url(#a)"/>
<path d="m881.29 880.92v162.71" clip-path="url(#a)"/>
<path d="m940.05 880.92v162.71" clip-path="url(#a)"/>
<path d="m1000.9 880.92v162.71" clip-path="url(#a)"/>
<path d="m1063.8 880.92v162.71" clip-path="url(#a)"/>
<path d="m1469.9 383.69-204.64 497.23" clip-path="url(#a)"/>
<path d="m1469.9 383.69 204.64 166.41" clip-path="url(#a)"/>
<path d="m1265.3 880.92v162.71" clip-path="url(#a)"/>
<path d="m1674.6 550.1-337.93 330.82" clip-path="url(#a)"/>
<path d="m1674.6 550.1-264.49 330.82" clip-path="url(#a)"/>
<path d="m1674.6 550.1-110.61 165.84" clip-path="url(#a)"/>
<path d="m1674.6 550.1 50.26 330.82" clip-path="url(#a)"/>
<path d="m1674.6 550.1 134.19 330.82" clip-path="url(#a)"/>
<path d="m1674.6 550.1 220.22 330.82" clip-path="url(#a)"/>
<path d="m1674.6 550.1 308.35 330.82" clip-path="url(#a)"/>
<path d="m1336.6 880.92v162.71" clip-path="url(#a)"/>
<path d="m1410.1 880.92v162.71" clip-path="url(#a)"/>
<path d="m1563.9 715.94-78.337 164.98" clip-path="url(#a)"/>
<path d="m1563.9 715.94-0.69944 164.98" clip-path="url(#a)"/>
<path d="m1563.9 715.94 79.037 164.98" clip-path="url(#a)"/>
<path d="m1724.8 880.92v162.71" clip-path="url(#a)"/>
<path d="m1808.7 880.92v162.71" clip-path="url(#a)"/>
<path d="m1485.6 880.92v162.71" clip-path="url(#a)"/>
<path d="m1563.2 880.92v162.71" clip-path="url(#a)"/>
<path d="m1643 880.92v162.71" clip-path="url(#a)"/>
<path d="m339.93 880.92v162.71" clip-path="url(#a)"/>
<path d="m373.5 880.92v162.71" clip-path="url(#a)"/>
<path d="m409.17 880.92v162.71" clip-path="url(#a)"/>
<path d="m624.6 550.1-137.79 330.82" clip-path="url(#a)"/>
<path d="m624.6 550.1-95.823 330.82" clip-path="url(#a)"/>
<path d="m624.6 550.1-4.8961 165.84" clip-path="url(#a)"/>
<path d="m624.6 550.1 93.025 330.82" clip-path="url(#a)"/>
<path d="m624.6 550.1 145.48 330.82" clip-path="url(#a)"/>
<path d="m486.81 880.92v162.71" clip-path="url(#a)"/>
<path d="m528.78 880.92v162.71" clip-path="url(#a)"/>
<path d="m619.7 715.94-46.862 164.98" clip-path="url(#a)"/>
<path d="m619.7 715.94-0.69944 164.98" clip-path="url(#a)"/>
<path d="m619.7 715.94 47.562 164.98" clip-path="url(#a)"/>
<path d="m717.62 880.92v162.71" clip-path="url(#a)"/>
<path d="m770.08 880.92v162.71" clip-path="url(#a)"/>
<path d="m572.84 880.92v162.71" clip-path="url(#a)"/>
<path d="m619 880.92v162.71" clip-path="url(#a)"/>
<path d="m667.26 880.92v162.71" clip-path="url(#a)"/>
<path d="m146.88 880.92v162.71" clip-path="url(#a)"/>
<path d="m163.67 880.92v162.71" clip-path="url(#a)"/>
<path d="m204.24 715.94-21.683 164.98" clip-path="url(#a)"/>
<path d="m204.24 715.94-0.69944 164.98" clip-path="url(#a)"/>
<path d="m204.24 715.94 22.382 164.98" clip-path="url(#a)"/>
<path d="m265.44 715.94-13.639 164.98" clip-path="url(#a)"/>
<path d="m265.44 715.94 13.639 164.98" clip-path="url(#a)"/>
<path d="m251.8 880.92v162.71" clip-path="url(#a)"/>
<path d="m279.08 880.92v162.71" clip-path="url(#a)"/>
<path d="m182.55 880.92v162.71" clip-path="url(#a)"/>
<path d="m203.54 880.92v162.71" clip-path="url(#a)"/>
<path d="m226.62 880.92v162.71" clip-path="url(#a)"/>
<path d="m94.424 880.92v162.71" clip-path="url(#a)"/>
<path d="m110.16 880.92-9.4424 162.71" clip-path="url(#a)"/>
<path d="m110.16 880.92 9.4424 162.71" clip-path="url(#a)"/>
<path d="m109.11 880.92v162.71" clip-path="url(#a)"/>
<path d="m132.19 880.92v162.71" clip-path="url(#a)"/>
<path d="m446.94 880.92v162.71" clip-path="url(#a)"/>
<path d="m824.64 880.92v162.71" clip-path="url(#a)"/>
<path d="m1128.9 880.92v162.71" clip-path="url(#a)"/>
<path d="m1196 880.92v162.71" clip-path="url(#a)"/>
<path d="m1894.8 880.92v162.71" clip-path="url(#a)"/>
<path d="m1982.9 880.92v162.71" clip-path="url(#a)"/>
</g>
<path d="m274.58 388.31 2.6799-5.3864q1.0691-2.1487-1.0797-3.2178l-6.9319-3.4489q-2.1487-1.0691-3.2178 1.0797l-2.6799 5.3864q-1.0691 2.1487 1.0797 3.2178l6.9319 3.4489q2.1487 1.0691 3.2178-1.0797z" clip-path="url(#a)" fill="#fff" stroke="#fff"/>
<g clip-path="url(#a)">
<defs>
<path id="v" d="m9.8125 72.906h9.8594v-29.891h35.844v29.891h9.8594v-72.906h-9.8594v34.719h-35.844v-34.719h-9.8594z"/>
</defs>
<g transform="translate(270.94 386.5) rotate(-63.548) scale(.08 -.08)">
<use xlink:href="#v"/>
</g>
</g>
<path d="m319.9 305.33 2.6105-5.4204q1.0414-2.1623-1.1209-3.2037l-6.9757-3.3595q-2.1623-1.0414-3.2037 1.1209l-2.6105 5.4204q-1.0414 2.1623 1.1209 3.2037l6.9757 3.3595q2.1623 1.0414 3.2037-1.1209z" clip-path="url(#a)" fill="#fff" stroke="#fff"/>
<g clip-path="url(#a)">
<g transform="translate(316.24 303.57) rotate(-64.284) scale(.08 -.08)">
<use xlink:href="#v"/>
</g>
</g>
<path d="m378.11 468.46 0.67633-4.4059q0.36415-2.3722-2.0081-2.7364l-7.6529-1.1748q-2.3722-0.36415-2.7364 2.0081l-0.67633 4.4059q-0.36415 2.3722 2.0081 2.7364l7.6529 1.1748q2.3722 0.36415 2.7364-2.0081z" clip-path="url(#a)" fill="#fff" stroke="#fff"/>
<g clip-path="url(#a)">
<defs>
<path id="av" d="m9.8125 72.906h9.8594v-64.609h35.5v-8.2969h-45.359z"/>
</defs>
<g transform="translate(374.1 467.85) rotate(-81.273) scale(.08 -.08)">
<use xlink:href="#av"/>
</g>
</g>
<path d="m418.91 220.53 0.81875-5.9603q0.32662-2.3777-2.0511-2.7043l-7.6705-1.0537q-2.3777-0.32662-2.7043 2.0511l-0.81875 5.9603q-0.32662 2.3777 2.0511 2.7043l7.6705 1.0537q2.3777 0.32662 2.7043-2.0511z" clip-path="url(#a)" fill="#fff" stroke="#fff"/>
<g clip-path="url(#a)">
<g transform="translate(414.89 219.97) rotate(-82.178) scale(.08 -.08)">
<use xlink:href="#v"/>
</g>
</g>
<path d="m762.21 138.62 5.8327 1.4746q2.3268 0.58824 2.915-1.7386l1.8977-7.5063q0.58824-2.3268-1.7386-2.915l-5.8327-1.4746q-2.3268-0.58824-2.915 1.7386l-1.8977 7.5063q-0.58824 2.3268 1.7386 2.915z" clip-path="url(#a)" fill="#fff" stroke="#fff"/>
<g clip-path="url(#a)">
<g transform="translate(763.21 134.68) rotate(14.188) scale(.08 -.08)">
<use xlink:href="#v"/>
</g>
</g>
<path d="m289.01 470.21 2.0102-5.4991q0.824-2.2541-1.4301-3.0781l-7.2719-2.6583q-2.2541-0.824-3.0781 1.4301l-2.0102 5.4991q-0.824 2.2541 1.4301 3.0781l7.2719 2.6583q2.2541 0.824 3.0781-1.4301z" clip-path="url(#a)" fill="#fff" stroke="#fff"/>
<g clip-path="url(#a)">
<defs>
<path id="u" d="m8.6875 72.906h9.9219v-44.297q0-11.719 4.2344-16.875 4.25-5.1406 13.781-5.1406 9.4688 0 13.719 5.1406 4.25 5.1562 4.25 16.875v44.297h9.9062v-45.516q0-14.25-7.0625-21.531-7.0469-7.2812-20.812-7.2812-13.828 0-20.891 7.2812-7.0469 7.2812-7.0469 21.531z"/>
</defs>
<g transform="translate(285.19 468.82) rotate(-69.92) scale(.08 -.08)">
<use xlink:href="#u"/>
</g>
</g>
<path d="m623.42 465.31 2.4796 5.304q1.0164 2.1742 3.1905 1.1578l7.0139-3.2789q2.1742-1.0164 1.1578-3.1905l-2.4796-5.304q-1.0164-2.1742-3.1905-1.1578l-7.0139 3.2789q-2.1742 1.0164-1.1578 3.1905z" clip-path="url(#a)" fill="#fff" stroke="#fff"/>
<g clip-path="url(#a)">
<g transform="translate(627.1 463.59) rotate(64.944) scale(.08 -.08)">
<use xlink:href="#u"/>
</g>
</g>
<path d="m105.59 801.55 0.33578-5.4622q0.14726-2.3955-2.2482-2.5427l-7.7279-0.47506q-2.3955-0.14726-2.5427 2.2482l-0.33578 5.4622q-0.14726 2.3955 2.2482 2.5427l7.7279 0.47506q2.3955 0.14726 2.5427-2.2482z" clip-path="url(#a)" fill="#fff" stroke="#fff"/>
<g clip-path="url(#a)">
<defs>
<path id="m" d="m34.188 63.188-13.391-36.281h26.812zm-5.5781 9.7188h11.188l27.781-72.906h-10.25l-6.6406 18.703h-32.859l-6.6406-18.703h-10.406z"/>
</defs>
<g transform="translate(101.53 801.3) rotate(-86.482) scale(.08 -.08)">
<use xlink:href="#m"/>
</g>
</g>
<path d="m101.01 796.11 0.17216 5.0758q0.081353 2.3986 2.48 2.3173l7.7381-0.26245q2.3986-0.081353 2.3173-2.48l-0.17216-5.0758q-0.081353-2.3986-2.48-2.3173l-7.738 0.26245q-2.3986 0.081353-2.3173 2.48z" clip-path="url(#a)" fill="#fff" stroke="#fff"/>
<g clip-path="url(#a)">
<defs>
<path id="y" d="m53.516 70.516v-9.625q-5.6094 2.6875-10.594 4-4.9844 1.3281-9.625 1.3281-8.0469 0-12.422-3.125t-4.375-8.8906q0-4.8438 2.9062-7.3125 2.9062-2.4531 11.016-3.9688l5.9531-1.2188q11.031-2.1094 16.281-7.4062t5.25-14.172q0-10.609-7.1094-16.078-7.0938-5.4688-20.812-5.4688-5.1719 0-11.016 1.1719-5.8281 1.1719-12.078 3.4688v10.156q6-3.3594 11.766-5.0781 5.7656-1.7031 11.328-1.7031 8.4375 0 13.031 3.3125 4.5938 3.3281 4.5938 9.4844 0 5.3594-3.2969 8.3906t-10.812 4.5469l-6.0156 1.1719q-11.031 2.1875-15.969 6.875-4.9219 4.6875-4.9219 13.047 0 9.6719 6.8125 15.234t18.766 5.5625q5.1406 0 10.453-0.9375 5.3281-0.92188 10.891-2.7656z"/>
</defs>
<g transform="translate(105.07 795.97) rotate(88.057) scale(.08 -.08)">
<use xlink:href="#y"/>
</g>
</g>
<path d="m100.5 795.87 0.15075 5.4704q0.066113 2.3991 2.4652 2.333l7.7396-0.21328q2.3991-0.066112 2.333-2.4652l-0.15075-5.4704q-0.066112-2.3991-2.4652-2.333l-7.7396 0.21328q-2.3991 0.066112-2.333 2.4652z" clip-path="url(#a)" fill="#fff" stroke="#fff"/>
<g clip-path="url(#a)">
<g transform="translate(104.56 795.76) rotate(88.421) scale(.08 -.08)">
<use xlink:href="#m"/>
</g>
</g>
<path d="m176.78 719.12 0.78858-5.4154q0.34584-2.375-2.0291-2.7208l-7.6617-1.1157q-2.375-0.34584-2.7208 2.0291l-0.78858 5.4154q-0.34584 2.375 2.0291 2.7208l7.6617 1.1157q2.375 0.34584 2.7208-2.0291z" clip-path="url(#a)" fill="#fff" stroke="#fff"/>
<g clip-path="url(#a)">
<g transform="translate(172.76 718.54) rotate(-81.715) scale(.08 -.08)">
<use xlink:href="#m"/>
</g>
</g>
<path d="m185.38 718.5 0.45562-4.8022q0.22669-2.3893-2.1626-2.616l-7.7079-0.7313q-2.3893-0.22669-2.616 2.1626l-0.45562 4.8022q-0.22669 2.3893 2.1626 2.616l7.7079 0.7313q2.3893 0.22669 2.616-2.1626z" clip-path="url(#a)" fill="#fff" stroke="#fff"/>
<g clip-path="url(#a)">
<defs>
<path id="al" d="m19.672 64.797v-27.391h12.406q6.8906 0 10.641 3.5625 3.7656 3.5625 3.7656 10.156 0 6.5469-3.7656 10.109-3.75 3.5625-10.641 3.5625zm-9.8594 8.1094h22.266q12.266 0 18.531-5.5469 6.2812-5.5469 6.2812-16.234 0-10.797-6.2812-16.312-6.2656-5.5156-18.531-5.5156h-12.406v-29.297h-9.8594z"/>
</defs>
<g transform="translate(181.33 718.12) rotate(-84.58) scale(.08 -.08)">
<use xlink:href="#al"/>
</g>
</g>
<path d="m193.23 630.64 0.30246 5.4641q0.13265 2.3963 2.529 2.2637l7.7307-0.42792q2.3963-0.13265 2.2637-2.529l-0.30246-5.4641q-0.13265-2.3963-2.529-2.2637l-7.7307 0.42792q-2.3963 0.13265-2.2637 2.529z" clip-path="url(#a)" fill="#fff" stroke="#fff"/>
<g clip-path="url(#a)">
<g transform="translate(197.29 630.41) rotate(86.832) scale(.08 -.08)">
<use xlink:href="#m"/>
</g>
</g>
<path d="m223.4 632.95 2.1379 5.0376q0.93758 2.2093 3.1469 1.2717l7.1272-3.0247q2.2093-0.93758 1.2717-3.1469l-2.1379-5.0376q-0.93758-2.2093-3.1469-1.2717l-7.1272 3.0247q-2.2093 0.93758-1.2717 3.1469z" clip-path="url(#a)" fill="#fff" stroke="#fff"/>
<g clip-path="url(#a)">
<g transform="translate(227.15 631.36) rotate(67.005) scale(.08 -.08)">
<use xlink:href="#m"/>
</g>
</g>
<path d="m302.18 945.38v33.808q0 2.4 2.4 2.4h7.7425q2.4 0 2.4-2.4v-33.808q0-2.4-2.4-2.4h-7.7425q-2.4 0-2.4 2.4z" clip-path="url(#a)" fill="#fff" stroke="#fff"/>
<g clip-path="url(#a)">
<defs>
<path id="l" d="m-0.29688 72.906h61.672v-8.3125h-25.875v-64.594h-9.9062v64.594h-25.891z"/>
<path id="c" d="m56.203 29.594v-4.3906h-41.312q0.59375-9.2812 5.5938-14.141t13.938-4.8594q5.1719 0 10.031 1.2656t9.6562 3.8125v-8.5q-4.8438-2.0469-9.9219-3.125t-10.297-1.0781q-13.094 0-20.734 7.6094-7.6406 7.625-7.6406 20.625 0 13.422 7.25 21.297 7.25 7.8906 19.562 7.8906 11.031 0 17.453-7.1094 6.4219-7.0938 6.4219-19.297zm-8.9844 2.6406q-0.09375 7.3594-4.125 11.75-4.0312 4.4062-10.672 4.4062-7.5156 0-12.031-4.25t-5.2031-11.969z"/>
<path id="i" d="m41.109 46.297q-1.5156 0.875-3.2969 1.2812-1.7812 0.42188-3.9219 0.42188-7.625 0-11.703-4.9531t-4.0781-14.234v-28.812h-9.0312v54.688h9.0312v-8.5q2.8438 4.9844 7.375 7.3906 4.5469 2.4219 11.047 2.4219 0.92188 0 2.0469-0.125 1.125-0.10938 2.4844-0.35938z"/>
<path id="j" d="m52 44.188q3.375 6.0625 8.0625 8.9375t11.031 2.875q8.5469 0 13.188-5.9844 4.6406-5.9688 4.6406-17v-33.016h-9.0312v32.719q0 7.8594-2.7969 11.656-2.7812 3.8125-8.4844 3.8125-6.9844 0-11.047-4.6406-4.0469-4.625-4.0469-12.641v-30.906h-9.0312v32.719q0 7.9062-2.7812 11.688t-8.5938 3.7812q-6.8906 0-10.953-4.6562-4.0469-4.6562-4.0469-12.625v-30.906h-9.0312v54.688h9.0312v-8.5q3.0781 5.0312 7.375 7.4219t10.203 2.3906q5.9688 0 10.141-3.0312 4.1719-3.0156 6.1719-8.7812z"/>
<path id="g" d="m9.4219 54.688h8.9844v-54.688h-8.9844zm0 21.297h8.9844v-11.391h-8.9844z"/>
<path id="e" d="m54.891 33.016v-33.016h-8.9844v32.719q0 7.7656-3.0312 11.609-3.0312 3.8594-9.0781 3.8594-7.2812 0-11.484-4.6406-4.2031-4.625-4.2031-12.641v-30.906h-9.0312v54.688h9.0312v-8.5q3.2344 4.9375 7.5938 7.375 4.375 2.4375 10.094 2.4375 9.4219 0 14.25-5.8281 4.8438-5.8281 4.8438-17.156z"/>
<path id="h" d="m34.281 27.484q-10.891 0-15.094-2.4844t-4.2031-8.5q0-4.7812 3.1562-7.5938 3.1562-2.7969 8.5625-2.7969 7.4844 0 12 5.2969t4.5156 14.078v2zm17.922 3.7188v-31.203h-8.9844v8.2969q-3.0781-4.9688-7.6719-7.3438t-11.234-2.375q-8.3906 0-13.359 4.7188-4.9531 4.7188-4.9531 12.625 0 9.2188 6.1719 13.906 6.1875 4.6875 18.438 4.6875h12.609v0.89062q0 6.2031-4.0781 9.5938t-11.453 3.3906q-4.6875 0-9.1406-1.125-4.4375-1.125-8.5312-3.375v8.3125q4.9219 1.9062 9.5625 2.8438 4.6406 0.95312 9.0312 0.95312 11.875 0 17.734-6.1562 5.8594-6.1406 5.8594-18.641z"/>
<path id="k" d="m9.4219 75.984h8.9844v-75.984h-8.9844z"/>
</defs>
<g transform="translate(306.25 945.38) rotate(90) scale(.08 -.08)">
<use xlink:href="#l"/>
<use x="44.083984" xlink:href="#c"/>
<use x="105.607422" xlink:href="#i"/>
<use x="144.970703" xlink:href="#j"/>
<use x="242.382812" xlink:href="#g"/>
<use x="270.166016" xlink:href="#e"/>
<use x="333.544922" xlink:href="#h"/>
<use x="394.824219" xlink:href="#k"/>
</g>
</g>
<path d="m371.06 635.23 0.46258-4.5779q0.24128-2.3878-2.1466-2.6291l-7.7033-0.77838q-2.3878-0.24128-2.6291 2.1466l-0.46258 4.5779q-0.24128 2.3878 2.1466 2.6291l7.7033 0.77838q2.3878 0.24128 2.6291-2.1466z" clip-path="url(#a)" fill="#fff" stroke="#fff"/>
<g clip-path="url(#a)">
<defs>
<path id="z" d="m9.8125 72.906h41.891v-8.3125h-32.031v-21.484h28.906v-8.2969h-28.906v-34.812h-9.8594z"/>
</defs>
<g transform="translate(367.01 634.82) rotate(-84.23) scale(.08 -.08)">
<use xlink:href="#z"/>
</g>
</g>
<path d="m388.01 635.25 0.18337-5.4694q0.080416-2.3987-2.3182-2.4791l-7.7382-0.25943q-2.3987-0.080417-2.4791 2.3182l-0.18337 5.4694q-0.080416 2.3987 2.3182 2.4791l7.7382 0.25943q2.3987 0.080416 2.4791-2.3182z" clip-path="url(#a)" fill="#fff" stroke="#fff"/>
<g clip-path="url(#a)">
<g transform="translate(383.95 635.12) rotate(-88.08) scale(.08 -.08)">
<use xlink:href="#m"/>
</g>
</g>
<path d="m393.31 630.14 0.1842 4.8202q0.091648 2.3982 2.4899 2.3066l7.7369-0.29566q2.3982-0.091648 2.3066-2.4899l-0.1842-4.8202q-0.091648-2.3982-2.4899-2.3066l-7.7369 0.29566q-2.3982 0.091648-2.3066 2.4899z" clip-path="url(#a)" fill="#fff" stroke="#fff"/>
<g clip-path="url(#a)">
<g transform="translate(397.37 629.98) rotate(87.812) scale(.08 -.08)">
<use xlink:href="#al"/>
</g>
</g>
<path d="m501.52 470.43 4.4625 3.1677q1.9571 1.3892 3.3463-0.56785l4.4817-6.3136q1.3892-1.9571-0.56785-3.3463l-4.4625-3.1677q-1.9571-1.3892-3.3463 0.56785l-4.4817 6.3136q-1.3892 1.9571 0.56785 3.3463z" clip-path="url(#a)" fill="#fff" stroke="#fff"/>
<g clip-path="url(#a)">
<g transform="translate(503.88 467.11) rotate(35.369) scale(.08 -.08)">
<use xlink:href="#m"/>
</g>
</g>
<path d="m272.96 637.52 2.4052-4.9156q1.0548-2.1558-1.101-3.2106l-6.9546-3.4028q-2.1558-1.0548-3.2106 1.101l-2.4052 4.9156q-1.0548 2.1558 1.101 3.2106l6.9546 3.4028q2.1558 1.0548 3.2106-1.101z" clip-path="url(#a)" fill="#fff" stroke="#fff"/>
<g clip-path="url(#a)">
<g transform="translate(269.31 635.73) rotate(-63.928) scale(.08 -.08)">
<use xlink:href="#m"/>
</g>
</g>
<path d="m411.99 630.11 0.66418 5.8172q0.27225 2.3845 2.6568 2.1123l7.6925-0.87829q2.3845-0.27225 2.1123-2.6568l-0.66418-5.8172q-0.27225-2.3845-2.6568-2.1123l-7.6925 0.87829q-2.3845 0.27225-2.1123 2.6568z" clip-path="url(#a)" fill="#fff" stroke="#fff"/>
<g clip-path="url(#a)">
<g transform="translate(416.03 629.65) rotate(83.486) scale(.08 -.08)">
<use xlink:href="#u"/>
</g>
</g>
<path d="m994.4 553.43 1.6926-5.2042q0.74232-2.2823-1.54-3.0246l-7.3628-2.3948q-2.2823-0.74232-3.0246 1.54l-1.6926 5.2042q-0.74232 2.2823 1.54 3.0246l7.3628 2.3947q2.2823 0.74232 3.0246-1.54z" clip-path="url(#a)" fill="#fff" stroke="#fff"/>
<g clip-path="url(#a)">
<g transform="translate(990.54 552.18) rotate(-71.983) scale(.08 -.08)">
<use xlink:href="#m"/>
</g>
</g>
<path d="m1024.2 552.58 1.0601-4.4775q0.55296-2.3354-1.7825-2.8884l-7.5342-1.7839q-2.3354-0.55296-2.8884 1.7825l-1.0601 4.4775q-0.55296 2.3354 1.7825 2.8884l7.5342 1.7839q2.3354 0.55296 2.8884-1.7825z" clip-path="url(#a)" fill="#fff" stroke="#fff"/>
<g clip-path="url(#a)">
<g transform="translate(1020.3 551.64) rotate(-76.679) scale(.08 -.08)">
<use xlink:href="#z"/>
</g>
</g>
<path d="m1054.9 552.5 0.78603-5.4158q0.34472-2.3751-2.0304-2.7198l-7.6622-1.1121q-2.3751-0.34472-2.7198 2.0304l-0.78603 5.4158q-0.34472 2.3751 2.0304 2.7198l7.6622 1.1121q2.3751 0.34472 2.7198-2.0304z" clip-path="url(#a)" fill="#fff" stroke="#fff"/>
<g clip-path="url(#a)">
<g transform="translate(1050.9 551.92) rotate(-81.742) scale(.08 -.08)">
<use xlink:href="#m"/>
</g>
</g>
<path d="m1086.7 551.62 0.24253-4.8176q0.12067-2.397-2.2763-2.5176l-7.7327-0.38928q-2.397-0.12067-2.5176 2.2763l-0.24253 4.8176q-0.12067 2.397 2.2763 2.5176l7.7327 0.38928q2.397 0.12067 2.5176-2.2763z" clip-path="url(#a)" fill="#fff" stroke="#fff"/>
<g clip-path="url(#a)">
<g transform="translate(1082.6 551.41) rotate(-87.118) scale(.08 -.08)">
<use xlink:href="#al"/>
</g>
</g>
<path d="m1278.5 304.88 4.9948 2.2361q2.1905 0.98067 3.1712-1.2098l3.1637-7.0666q0.98067-2.1905-1.2098-3.1712l-4.9948-2.2361q-2.1905-0.98067-3.1712 1.2098l-3.1637 7.0666q-0.98067 2.1905 1.2098 3.1712z" clip-path="url(#a)" fill="#fff" stroke="#fff"/>
<g clip-path="url(#a)">
<g transform="translate(1280.2 301.17) rotate(24.118) scale(.08 -.08)">
<use xlink:href="#m"/>
</g>
</g>
<path d="m1106.7 546.27 0.27846 5.8484q0.11414 2.3973 2.5114 2.2831l7.7337-0.36822q2.3973-0.11414 2.2831-2.5114l-0.27846-5.8484q-0.11414-2.3973-2.5114-2.2831l-7.7337 0.36822q-2.3973 0.11414-2.2831 2.5114z" clip-path="url(#a)" fill="#fff" stroke="#fff"/>
<g clip-path="url(#a)">
<g transform="translate(1110.7 546.07) rotate(87.274) scale(.08 -.08)">
<use xlink:href="#u"/>
</g>
</g>
<path d="m1140 546.92 0.86132 5.7913q0.35306 2.3739 2.727 2.0208l7.6583-1.139q2.3739-0.35306 2.0208-2.727l-0.86132-5.7913q-0.35306-2.3739-2.727-2.0208l-7.6583 1.139q-2.3739 0.35306-2.0208 2.727z" clip-path="url(#a)" fill="#fff" stroke="#fff"/>
<g clip-path="url(#a)">
<g transform="translate(1144 546.32) rotate(81.541) scale(.08 -.08)">
<use xlink:href="#u"/>
</g>
</g>
<path d="m875.02 945.38v33.808q0 2.4 2.4 2.4h7.7425q2.4 0 2.4-2.4v-33.808q0-2.4-2.4-2.4h-7.7425q-2.4 0-2.4 2.4z" clip-path="url(#a)" fill="#fff" stroke="#fff"/>
<g clip-path="url(#a)">
<g transform="translate(879.09 945.38) rotate(90) scale(.08 -.08)">
<use xlink:href="#l"/>
<use x="44.083984" xlink:href="#c"/>
<use x="105.607422" xlink:href="#i"/>
<use x="144.970703" xlink:href="#j"/>
<use x="242.382812" xlink:href="#g"/>
<use x="270.166016" xlink:href="#e"/>
<use x="333.544922" xlink:href="#h"/>
<use x="394.824219" xlink:href="#k"/>
</g>
</g>
<path d="m933.77 945.38v33.808q0 2.4 2.4 2.4h7.7425q2.4 0 2.4-2.4v-33.808q0-2.4-2.4-2.4h-7.7425q-2.4 0-2.4 2.4z" clip-path="url(#a)" fill="#fff" stroke="#fff"/>
<g clip-path="url(#a)">
<g transform="translate(937.84 945.38) rotate(90) scale(.08 -.08)">
<use xlink:href="#l"/>
<use x="44.083984" xlink:href="#c"/>
<use x="105.607422" xlink:href="#i"/>
<use x="144.970703" xlink:href="#j"/>
<use x="242.382812" xlink:href="#g"/>
<use x="270.166016" xlink:href="#e"/>
<use x="333.544922" xlink:href="#h"/>
<use x="394.824219" xlink:href="#k"/>
</g>
</g>
<path d="m994.63 945.38v33.808q0 2.4 2.4 2.4h7.7425q2.4 0 2.4-2.4v-33.808q0-2.4-2.4-2.4h-7.7425q-2.4 0-2.4 2.4z" clip-path="url(#a)" fill="#fff" stroke="#fff"/>
<g clip-path="url(#a)">
<g transform="translate(998.69 945.38) rotate(90) scale(.08 -.08)">
<use xlink:href="#l"/>
<use x="44.083984" xlink:href="#c"/>
<use x="105.607422" xlink:href="#i"/>
<use x="144.970703" xlink:href="#j"/>
<use x="242.382812" xlink:href="#g"/>
<use x="270.166016" xlink:href="#e"/>
<use x="333.544922" xlink:href="#h"/>
<use x="394.824219" xlink:href="#k"/>
</g>
</g>
<path d="m1057.6 945.38v33.808q0 2.4 2.4 2.4h7.7425q2.4 0 2.4-2.4v-33.808q0-2.4-2.4-2.4h-7.7425q-2.4 0-2.4 2.4z" clip-path="url(#a)" fill="#fff" stroke="#fff"/>
<g clip-path="url(#a)">
<g transform="translate(1061.6 945.38) rotate(90) scale(.08 -.08)">
<use xlink:href="#l"/>
<use x="44.083984" xlink:href="#c"/>
<use x="105.607422" xlink:href="#i"/>
<use x="144.970703" xlink:href="#j"/>
<use x="242.382812" xlink:href="#g"/>
<use x="270.166016" xlink:href="#e"/>
<use x="333.544922" xlink:href="#h"/>
<use x="394.824219" xlink:href="#k"/>
</g>
</g>
<path d="m1372.3 637.47 2.2897-5.5635q0.9134-2.2194-1.306-3.1328l-7.1599-2.9466q-2.2194-0.9134-3.1328 1.306l-2.2897 5.5635q-0.9134 2.2194 1.306 3.1328l7.1599 2.9466q2.2194 0.9134 3.1328-1.306z" clip-path="url(#a)" fill="#fff" stroke="#fff"/>
<g clip-path="url(#a)">
<g transform="translate(1368.5 635.93) rotate(-67.63) scale(.08 -.08)">
<use xlink:href="#v"/>
</g>
</g>
<path d="m1565.9 469.86 4.6677 3.7957q1.862 1.5142 3.3762-0.34785l4.8849-6.007q1.5142-1.862-0.34785-3.3762l-4.6677-3.7957q-1.862-1.5142-3.3762 0.34785l-4.8849 6.007q-1.5142 1.862 0.34784 3.3762z" clip-path="url(#a)" fill="#fff" stroke="#fff"/>
<g clip-path="url(#a)">
<g transform="translate(1568.5 466.71) rotate(39.118) scale(.08 -.08)">
<use xlink:href="#v"/>
</g>
</g>
<path d="m1259 945.38v33.808q0 2.4 2.4 2.4h7.7425q2.4 0 2.4-2.4v-33.808q0-2.4-2.4-2.4h-7.7425q-2.4 0-2.4 2.4z" clip-path="url(#a)" fill="#fff" stroke="#fff"/>
<g clip-path="url(#a)">
<g transform="translate(1263.1 945.38) rotate(90) scale(.08 -.08)">
<use xlink:href="#l"/>
<use x="44.083984" xlink:href="#c"/>
<use x="105.607422" xlink:href="#i"/>
<use x="144.970703" xlink:href="#j"/>
<use x="242.382812" xlink:href="#g"/>
<use x="270.166016" xlink:href="#e"/>
<use x="333.544922" xlink:href="#h"/>
<use x="394.824219" xlink:href="#k"/>
</g>
</g>
<path d="m1507.8 722.15 4.4018-4.3092q1.715-1.6789 0.036068-3.3939l-5.4163-5.5326q-1.6789-1.715-3.3939-0.036067l-4.4018 4.3092q-1.715 1.6789-0.036068 3.3939l5.4163 5.5326q1.6789 1.715 3.3939 0.036068z" clip-path="url(#a)" fill="#fff" stroke="#fff"/>
<g clip-path="url(#a)">
<defs>
<path id="ao" d="m19.672 64.797v-56.688h11.922q15.094 0 22.094 6.8281 7 6.8438 7 21.594 0 14.641-7 21.453t-22.094 6.8125zm-9.8594 8.1094h20.266q21.188 0 31.094-8.8125 9.9219-8.8125 9.9219-27.562 0-18.859-9.9688-27.703-9.9531-8.8281-31.047-8.8281h-20.266z"/>
</defs>
<g transform="translate(1504.9 719.24) rotate(-44.391) scale(.08 -.08)">
<use xlink:href="#ao"/>
</g>
</g>
<path d="m1545.5 721.56 3.4173-4.2744q1.4987-1.8746-0.37587-3.3732l-6.0474-4.8348q-1.8746-1.4987-3.3732 0.37587l-3.4173 4.2744q-1.4987 1.8746 0.37587 3.3732l6.0474 4.8348q1.8746 1.4987 3.3732-0.37587z" clip-path="url(#a)" fill="#fff" stroke="#fff"/>
<g clip-path="url(#a)">
<g transform="translate(1542.3 719.03) rotate(-51.358) scale(.08 -.08)">
<use xlink:href="#m"/>
</g>
</g>
<path d="m1622.9 638.78 3.0365-4.5528q1.3317-1.9966-0.66496-3.3283l-6.4413-4.2961q-1.9966-1.3317-3.3283 0.66496l-3.0365 4.5528q-1.3317 1.9966 0.66496 3.3283l6.4413 4.2961q1.9966 1.3317 3.3283-0.66496z" clip-path="url(#a)" fill="#fff" stroke="#fff"/>
<g clip-path="url(#a)">
<g transform="translate(1619.6 636.52) rotate(-56.298) scale(.08 -.08)">
<use xlink:href="#m"/>
</g>
</g>
<path d="m1693.1 713.94 0.76283 5.0211q0.36048 2.3728 2.7333 2.0123l7.6547-1.1629q2.3728-0.36048 2.0123-2.7333l-0.76283-5.0211q-0.36048-2.3728-2.7333-2.0123l-7.6547 1.1629q-2.3728 0.36048-2.0123 2.7333z" clip-path="url(#a)" fill="#fff" stroke="#fff"/>
<g clip-path="url(#a)">
<g transform="translate(1697.1 713.33) rotate(81.361) scale(.08 -.08)">
<use xlink:href="#y"/>
</g>
</g>
<path d="m1735 715.74 1.7295 4.2638q0.90213 2.224 3.1261 1.3219l7.1747-2.9103q2.224-0.90213 1.3219-3.1261l-1.7295-4.2638q-0.90213-2.224-3.1261-1.3219l-7.1747 2.9103q-2.224 0.90213-1.3219 3.1261z" clip-path="url(#a)" fill="#fff" stroke="#fff"/>
<g clip-path="url(#a)">
<g transform="translate(1738.7 714.21) rotate(67.921) scale(.08 -.08)">
<use xlink:href="#z"/>
</g>
</g>
<path d="m1777.8 716.55 3.2445 4.8739q1.3299 1.9978 3.3277 0.6679l6.4451-4.2904q1.9978-1.3299 0.6679-3.3277l-3.2445-4.8739q-1.3299-1.9978-3.3277-0.6679l-6.4451 4.2904q-1.9978 1.3299-0.6679 3.3277z" clip-path="url(#a)" fill="#fff" stroke="#fff"/>
<g clip-path="url(#a)">
<g transform="translate(1781.2 714.3) rotate(56.349) scale(.08 -.08)">
<use xlink:href="#u"/>
</g>
</g>
<path d="m1822.1 717.64 3.9921 4.283q1.6364 1.7556 3.392 0.11924l5.6637-5.2791q1.7556-1.6364 0.11924-3.392l-3.9921-4.283q-1.6364-1.7556-3.392-0.11924l-5.6637 5.2791q-1.7556 1.6364-0.11924 3.392z" clip-path="url(#a)" fill="#fff" stroke="#fff"/>
<g clip-path="url(#a)">
<g transform="translate(1825.1 714.87) rotate(47.013) scale(.08 -.08)">
<use xlink:href="#u"/>
</g>
</g>
<path d="m1330.4 945.38v33.808q0 2.4 2.4 2.4h7.7425q2.4 0 2.4-2.4v-33.808q0-2.4-2.4-2.4h-7.7425q-2.4 0-2.4 2.4z" clip-path="url(#a)" fill="#fff" stroke="#fff"/>
<g clip-path="url(#a)">
<g transform="translate(1334.4 945.38) rotate(90) scale(.08 -.08)">
<use xlink:href="#l"/>
<use x="44.083984" xlink:href="#c"/>
<use x="105.607422" xlink:href="#i"/>
<use x="144.970703" xlink:href="#j"/>
<use x="242.382812" xlink:href="#g"/>
<use x="270.166016" xlink:href="#e"/>
<use x="333.544922" xlink:href="#h"/>
<use x="394.824219" xlink:href="#k"/>
</g>
</g>
<path d="m1403.8 945.38v33.808q0 2.4 2.4 2.4h7.7425q2.4 0 2.4-2.4v-33.808q0-2.4-2.4-2.4h-7.7425q-2.4 0-2.4 2.4z" clip-path="url(#a)" fill="#fff" stroke="#fff"/>
<g clip-path="url(#a)">
<g transform="translate(1407.9 945.38) rotate(90) scale(.08 -.08)">
<use xlink:href="#l"/>
<use x="44.083984" xlink:href="#c"/>
<use x="105.607422" xlink:href="#i"/>
<use x="144.970703" xlink:href="#j"/>
<use x="242.382812" xlink:href="#g"/>
<use x="270.166016" xlink:href="#e"/>
<use x="333.544922" xlink:href="#h"/>
<use x="394.824219" xlink:href="#k"/>
</g>
</g>
<path d="m1529.2 803.63 2.3843-5.0214q1.0294-2.168-1.1386-3.1974l-6.9941-3.321q-2.168-1.0294-3.1974 1.1386l-2.3843 5.0214q-1.0294 2.168 1.1386 3.1974l6.9941 3.321q2.168 1.0294 3.1974-1.1386z" clip-path="url(#a)" fill="#fff" stroke="#fff"/>
<g clip-path="url(#a)">
<defs>
<path id="ak" d="m44.391 34.188q3.1719-1.0781 6.1719-4.5938t6.0312-9.6719l10.016-19.922h-10.609l-9.3125 18.703q-3.625 7.3281-7.0156 9.7188t-9.25 2.3906h-10.75v-30.812h-9.8594v72.906h22.266q12.5 0 18.656-5.2344 6.1562-5.2188 6.1562-15.766 0-6.8906-3.2031-11.438-3.2031-4.5312-9.2969-6.2812zm-24.719 30.609v-25.875h12.406q7.125 0 10.766 3.2969t3.6406 9.6875-3.6406 9.6406-10.766 3.25z"/>
</defs>
<g transform="translate(1525.6 801.89) rotate(-64.6) scale(.08 -.08)">
<use xlink:href="#ak"/>
</g>
</g>
<path d="m1569.9 800.76 0.019507-4.6012q0.010175-2.4-2.3898-2.4102l-7.7424-0.032825q-2.4-0.010175-2.4102 2.3898l-0.019508 4.6012q-0.010174 2.4 2.3898 2.4102l7.7424 0.032824q2.4 0.010175 2.4102-2.3898z" clip-path="url(#a)" fill="#fff" stroke="#fff"/>
<g clip-path="url(#a)">
<g transform="translate(1565.8 800.74) rotate(-89.757) scale(.08 -.08)">
<use xlink:href="#z"/>
</g>
</g>
<path d="m1596.6 798.62 2.4135 5.038q1.0369 2.1644 3.2014 1.1275l6.9826-3.3452q2.1644-1.0369 1.1275-3.2014l-2.4135-5.038q-1.0369-2.1644-3.2014-1.1275l-6.9826 3.3452q-2.1644 1.0369-1.1275 3.2014z" clip-path="url(#a)" fill="#fff" stroke="#fff"/>
<g clip-path="url(#a)">
<defs>
<path id="ag" d="m64.406 67.281v-10.391q-4.9844 4.6406-10.625 6.9219-5.6406 2.2969-11.984 2.2969-12.5 0-19.141-7.6406t-6.6406-22.094q0-14.406 6.6406-22.047t19.141-7.6406q6.3438 0 11.984 2.2969t10.625 6.9375v-10.312q-5.1719-3.5156-10.969-5.2812-5.7812-1.75-12.219-1.75-16.562 0-26.094 10.125-9.5156 10.141-9.5156 27.672 0 17.578 9.5156 27.703 9.5312 10.141 26.094 10.141 6.5312 0 12.312-1.7344 5.7969-1.7344 10.875-5.2031z"/>
</defs>
<g transform="translate(1600.3 796.87) rotate(64.402) scale(.08 -.08)">
<use xlink:href="#ag"/>
</g>
</g>
<path d="m1718.5 945.38v33.808q0 2.4 2.4 2.4h7.7425q2.4 0 2.4-2.4v-33.808q0-2.4-2.4-2.4h-7.7425q-2.4 0-2.4 2.4z" clip-path="url(#a)" fill="#fff" stroke="#fff"/>
<g clip-path="url(#a)">
<g transform="translate(1722.6 945.38) rotate(90) scale(.08 -.08)">
<use xlink:href="#l"/>
<use x="44.083984" xlink:href="#c"/>
<use x="105.607422" xlink:href="#i"/>
<use x="144.970703" xlink:href="#j"/>
<use x="242.382812" xlink:href="#g"/>
<use x="270.166016" xlink:href="#e"/>
<use x="333.544922" xlink:href="#h"/>
<use x="394.824219" xlink:href="#k"/>
</g>
</g>
<path d="m1802.5 945.38v33.808q0 2.4 2.4 2.4h7.7425q2.4 0 2.4-2.4v-33.808q0-2.4-2.4-2.4h-7.7425q-2.4 0-2.4 2.4z" clip-path="url(#a)" fill="#fff" stroke="#fff"/>
<g clip-path="url(#a)">
<g transform="translate(1806.5 945.38) rotate(90) scale(.08 -.08)">
<use xlink:href="#l"/>
<use x="44.083984" xlink:href="#c"/>
<use x="105.607422" xlink:href="#i"/>
<use x="144.970703" xlink:href="#j"/>
<use x="242.382812" xlink:href="#g"/>
<use x="270.166016" xlink:href="#e"/>
<use x="333.544922" xlink:href="#h"/>
<use x="394.824219" xlink:href="#k"/>
</g>
</g>
<path d="m1479.3 945.38v33.808q0 2.4 2.4 2.4h7.7425q2.4 0 2.4-2.4v-33.808q0-2.4-2.4-2.4h-7.7425q-2.4 0-2.4 2.4z" clip-path="url(#a)" fill="#fff" stroke="#fff"/>
<g clip-path="url(#a)">
<g transform="translate(1483.4 945.38) rotate(90) scale(.08 -.08)">
<use xlink:href="#l"/>
<use x="44.083984" xlink:href="#c"/>
<use x="105.607422" xlink:href="#i"/>
<use x="144.970703" xlink:href="#j"/>
<use x="242.382812" xlink:href="#g"/>
<use x="270.166016" xlink:href="#e"/>
<use x="333.544922" xlink:href="#h"/>
<use x="394.824219" xlink:href="#k"/>
</g>
</g>
<path d="m1557 945.38v33.808q0 2.4 2.4 2.4h7.7425q2.4 0 2.4-2.4v-33.808q0-2.4-2.4-2.4h-7.7425q-2.4 0-2.4 2.4z" clip-path="url(#a)" fill="#fff" stroke="#fff"/>
<g clip-path="url(#a)">
<g transform="translate(1561 945.38) rotate(90) scale(.08 -.08)">
<use xlink:href="#l"/>
<use x="44.083984" xlink:href="#c"/>
<use x="105.607422" xlink:href="#i"/>
<use x="144.970703" xlink:href="#j"/>
<use x="242.382812" xlink:href="#g"/>
<use x="270.166016" xlink:href="#e"/>
<use x="333.544922" xlink:href="#h"/>
<use x="394.824219" xlink:href="#k"/>
</g>
</g>
<path d="m1636.7 945.38v33.808q0 2.4 2.4 2.4h7.7425q2.4 0 2.4-2.4v-33.808q0-2.4-2.4-2.4h-7.7425q-2.4 0-2.4 2.4z" clip-path="url(#a)" fill="#fff" stroke="#fff"/>
<g clip-path="url(#a)">
<g transform="translate(1640.8 945.38) rotate(90) scale(.08 -.08)">
<use xlink:href="#l"/>
<use x="44.083984" xlink:href="#c"/>
<use x="105.607422" xlink:href="#i"/>
<use x="144.970703" xlink:href="#j"/>
<use x="242.382812" xlink:href="#g"/>
<use x="270.166016" xlink:href="#e"/>
<use x="333.544922" xlink:href="#h"/>
<use x="394.824219" xlink:href="#k"/>
</g>
</g>
<path d="m333.66 945.38v33.808q0 2.4 2.4 2.4h7.7425q2.4 0 2.4-2.4v-33.808q0-2.4-2.4-2.4h-7.7425q-2.4 0-2.4 2.4z" clip-path="url(#a)" fill="#fff" stroke="#fff"/>
<g clip-path="url(#a)">
<g transform="translate(337.72 945.38) rotate(90) scale(.08 -.08)">
<use xlink:href="#l"/>
<use x="44.083984" xlink:href="#c"/>
<use x="105.607422" xlink:href="#i"/>
<use x="144.970703" xlink:href="#j"/>
<use x="242.382812" xlink:href="#g"/>
<use x="270.166016" xlink:href="#e"/>
<use x="333.544922" xlink:href="#h"/>
<use x="394.824219" xlink:href="#k"/>
</g>
</g>
<path d="m367.23 945.38v33.808q0 2.4 2.4 2.4h7.7425q2.4 0 2.4-2.4v-33.808q0-2.4-2.4-2.4h-7.7425q-2.4 0-2.4 2.4z" clip-path="url(#a)" fill="#fff" stroke="#fff"/>
<g clip-path="url(#a)">
<g transform="translate(371.29 945.38) rotate(90) scale(.08 -.08)">
<use xlink:href="#l"/>
<use x="44.083984" xlink:href="#c"/>
<use x="105.607422" xlink:href="#i"/>
<use x="144.970703" xlink:href="#j"/>
<use x="242.382812" xlink:href="#g"/>
<use x="270.166016" xlink:href="#e"/>
<use x="333.544922" xlink:href="#h"/>
<use x="394.824219" xlink:href="#k"/>
</g>
</g>
<path d="m402.9 945.38v33.808q0 2.4 2.4 2.4h7.7425q2.4 0 2.4-2.4v-33.808q0-2.4-2.4-2.4h-7.7425q-2.4 0-2.4 2.4z" clip-path="url(#a)" fill="#fff" stroke="#fff"/>
<g clip-path="url(#a)">
<g transform="translate(406.96 945.38) rotate(90) scale(.08 -.08)">
<use xlink:href="#l"/>
<use x="44.083984" xlink:href="#c"/>
<use x="105.607422" xlink:href="#i"/>
<use x="144.970703" xlink:href="#j"/>
<use x="242.382812" xlink:href="#g"/>
<use x="270.166016" xlink:href="#e"/>
<use x="333.544922" xlink:href="#h"/>
<use x="394.824219" xlink:href="#k"/>
</g>
</g>
<path d="m560.42 720.49 2.1373-5.1314q0.92277-2.2155-1.2927-3.1383l-7.1473-2.9769q-2.2155-0.92277-3.1383 1.2927l-2.1373 5.1314q-0.92277 2.2155 1.2927 3.1383l7.1473 2.9769q2.2155 0.92277 3.1383-1.2927z" clip-path="url(#a)" fill="#fff" stroke="#fff"/>
<g clip-path="url(#a)">
<g transform="translate(556.67 718.92) rotate(-67.388) scale(.08 -.08)">
<use xlink:href="#ak"/>
</g>
</g>
<path d="m581.95 719.88 1.5225-5.2564q0.66772-2.3052-1.6375-2.973l-7.4368-2.1541q-2.3052-0.66772-2.973 1.6375l-1.5225 5.2564q-0.66772 2.3052 1.6375 2.973l7.4368 2.1541q2.3052 0.66772 2.973-1.6375z" clip-path="url(#a)" fill="#fff" stroke="#fff"/>
<g clip-path="url(#a)">
<g transform="translate(578.05 718.75) rotate(-73.846) scale(.08 -.08)">
<use xlink:href="#m"/>
</g>
</g>
<path d="m628.34 635.94 0.16149-5.4701q0.070822-2.399-2.3281-2.4698l-7.7391-0.22848q-2.399-0.070822-2.4698 2.3281l-0.16149 5.4701q-0.070823 2.399 2.3281 2.4698l7.7391 0.22848q2.399 0.070822 2.4698-2.3281z" clip-path="url(#a)" fill="#fff" stroke="#fff"/>
<g clip-path="url(#a)">
<g transform="translate(624.28 635.82) rotate(-88.309) scale(.08 -.08)">
<use xlink:href="#m"/>
</g>
</g>
<path d="m664.39 714.76 1.3748 4.8891q0.64967 2.3104 2.9601 1.6607l7.4534-2.0959q2.3104-0.64967 1.6607-2.9601l-1.3748-4.8891q-0.64967-2.3104-2.9601-1.6607l-7.4534 2.0959q-2.3104 0.64967-1.6607 2.9601z" clip-path="url(#a)" fill="#fff" stroke="#fff"/>
<g clip-path="url(#a)">
<g transform="translate(668.3 713.66) rotate(74.294) scale(.08 -.08)">
<use xlink:href="#y"/>
</g>
</g>
<path d="m690.36 715.22 2.4798 5.6388q0.96614 2.1969 3.1631 1.2308l7.0874-3.1168q2.1969-0.96614 1.2308-3.1631l-2.4798-5.6388q-0.96614-2.1969-3.1631-1.2308l-7.0874 3.1168q-2.1969 0.96614-1.2308 3.1631z" clip-path="url(#a)" fill="#fff" stroke="#fff"/>
<g clip-path="url(#a)">
<g transform="translate(694.08 713.58) rotate(66.262) scale(.08 -.08)">
<use xlink:href="#ao"/>
</g>
</g>
<path d="m480.54 945.38v33.808q0 2.4 2.4 2.4h7.7425q2.4 0 2.4-2.4v-33.808q0-2.4-2.4-2.4h-7.7425q-2.4 0-2.4 2.4z" clip-path="url(#a)" fill="#fff" stroke="#fff"/>
<g clip-path="url(#a)">
<g transform="translate(484.6 945.38) rotate(90) scale(.08 -.08)">
<use xlink:href="#l"/>
<use x="44.083984" xlink:href="#c"/>
<use x="105.607422" xlink:href="#i"/>
<use x="144.970703" xlink:href="#j"/>
<use x="242.382812" xlink:href="#g"/>
<use x="270.166016" xlink:href="#e"/>
<use x="333.544922" xlink:href="#h"/>
<use x="394.824219" xlink:href="#k"/>
</g>
</g>
<path d="m522.5 945.38v33.808q0 2.4 2.4 2.4h7.7425q2.4 0 2.4-2.4v-33.808q0-2.4-2.4-2.4h-7.7425q-2.4 0-2.4 2.4z" clip-path="url(#a)" fill="#fff" stroke="#fff"/>
<g clip-path="url(#a)">
<g transform="translate(526.57 945.38) rotate(90) scale(.08 -.08)">
<use xlink:href="#l"/>
<use x="44.083984" xlink:href="#c"/>
<use x="105.607422" xlink:href="#i"/>
<use x="144.970703" xlink:href="#j"/>
<use x="242.382812" xlink:href="#g"/>
<use x="270.166016" xlink:href="#e"/>
<use x="333.544922" xlink:href="#h"/>
<use x="394.824219" xlink:href="#k"/>
</g>
</g>
<path d="m601.54 802.82 1.5189-5.3472q0.65578-2.3087-1.6529-2.9644l-7.4479-2.1156q-2.3087-0.65578-2.9644 1.6529l-1.5189 5.3472q-0.65578 2.3087 1.6529 2.9644l7.4479 2.1156q2.3087 0.65578 2.9644-1.6529z" clip-path="url(#a)" fill="#fff" stroke="#fff"/>
<g clip-path="url(#a)">
<g transform="translate(597.64 801.71) rotate(-74.143) scale(.08 -.08)">
<use xlink:href="#ak"/>
</g>
</g>
<path d="m625.61 800.99 0.021431-5.055q0.010174-2.4-2.3898-2.4102l-7.7424-0.032825q-2.4-0.010175-2.4102 2.3898l-0.021431 5.055q-0.010175 2.4 2.3898 2.4102l7.7424 0.032824q2.4 0.010175 2.4102-2.3898z" clip-path="url(#a)" fill="#fff" stroke="#fff"/>
<g clip-path="url(#a)">
<defs>
<path id="af" d="m9.8125 72.906h46.094v-8.3125h-36.234v-21.578h34.719v-8.2969h-34.719v-26.422h37.109v-8.2969h-46.969z"/>
</defs>
<g transform="translate(621.55 800.97) rotate(-89.757) scale(.08 -.08)">
<use xlink:href="#af"/>
</g>
</g>
<path d="m636.68 797.49 1.5474 5.3676q0.66482 2.3061 2.9709 1.6413l7.4395-2.1447q2.3061-0.66482 1.6413-2.9709l-1.5474-5.3676q-0.66482-2.3061-2.9709-1.6413l-7.4395 2.1447q-2.3061 0.66482-1.6413 2.9709z" clip-path="url(#a)" fill="#fff" stroke="#fff"/>
<g clip-path="url(#a)">
<g transform="translate(640.59 796.36) rotate(73.918) scale(.08 -.08)">
<use xlink:href="#ag"/>
</g>
</g>
<path d="m711.35 945.38v33.808q0 2.4 2.4 2.4h7.7425q2.4 0 2.4-2.4v-33.808q0-2.4-2.4-2.4h-7.7425q-2.4 0-2.4 2.4z" clip-path="url(#a)" fill="#fff" stroke="#fff"/>
<g clip-path="url(#a)">
<g transform="translate(715.42 945.38) rotate(90) scale(.08 -.08)">
<use xlink:href="#l"/>
<use x="44.083984" xlink:href="#c"/>
<use x="105.607422" xlink:href="#i"/>
<use x="144.970703" xlink:href="#j"/>
<use x="242.382812" xlink:href="#g"/>
<use x="270.166016" xlink:href="#e"/>
<use x="333.544922" xlink:href="#h"/>
<use x="394.824219" xlink:href="#k"/>
</g>
</g>
<path d="m763.81 945.38v33.808q0 2.4 2.4 2.4h7.7425q2.4 0 2.4-2.4v-33.808q0-2.4-2.4-2.4h-7.7425q-2.4 0-2.4 2.4z" clip-path="url(#a)" fill="#fff" stroke="#fff"/>
<g clip-path="url(#a)">
<g transform="translate(767.87 945.38) rotate(90) scale(.08 -.08)">
<use xlink:href="#l"/>
<use x="44.083984" xlink:href="#c"/>
<use x="105.607422" xlink:href="#i"/>
<use x="144.970703" xlink:href="#j"/>
<use x="242.382812" xlink:href="#g"/>
<use x="270.166016" xlink:href="#e"/>
<use x="333.544922" xlink:href="#h"/>
<use x="394.824219" xlink:href="#k"/>
</g>
</g>
<path d="m566.57 945.38v33.808q0 2.4 2.4 2.4h7.7425q2.4 0 2.4-2.4v-33.808q0-2.4-2.4-2.4h-7.7425q-2.4 0-2.4 2.4z" clip-path="url(#a)" fill="#fff" stroke="#fff"/>
<g clip-path="url(#a)">
<g transform="translate(570.63 945.38) rotate(90) scale(.08 -.08)">
<use xlink:href="#l"/>
<use x="44.083984" xlink:href="#c"/>
<use x="105.607422" xlink:href="#i"/>
<use x="144.970703" xlink:href="#j"/>
<use x="242.382812" xlink:href="#g"/>
<use x="270.166016" xlink:href="#e"/>
<use x="333.544922" xlink:href="#h"/>
<use x="394.824219" xlink:href="#k"/>
</g>
</g>
<path d="m612.73 945.38v33.808q0 2.4 2.4 2.4h7.7425q2.4 0 2.4-2.4v-33.808q0-2.4-2.4-2.4h-7.7425q-2.4 0-2.4 2.4z" clip-path="url(#a)" fill="#fff" stroke="#fff"/>
<g clip-path="url(#a)">
<g transform="translate(616.8 945.38) rotate(90) scale(.08 -.08)">
<use xlink:href="#l"/>
<use x="44.083984" xlink:href="#c"/>
<use x="105.607422" xlink:href="#i"/>
<use x="144.970703" xlink:href="#j"/>
<use x="242.382812" xlink:href="#g"/>
<use x="270.166016" xlink:href="#e"/>
<use x="333.544922" xlink:href="#h"/>
<use x="394.824219" xlink:href="#k"/>
</g>
</g>
<path d="m660.99 945.38v33.808q0 2.4 2.4 2.4h7.7425q2.4 0 2.4-2.4v-33.808q0-2.4-2.4-2.4h-7.7425q-2.4 0-2.4 2.4z" clip-path="url(#a)" fill="#fff" stroke="#fff"/>
<g clip-path="url(#a)">
<g transform="translate(665.06 945.38) rotate(90) scale(.08 -.08)">
<use xlink:href="#l"/>
<use x="44.083984" xlink:href="#c"/>
<use x="105.607422" xlink:href="#i"/>
<use x="144.970703" xlink:href="#j"/>
<use x="242.382812" xlink:href="#g"/>
<use x="270.166016" xlink:href="#e"/>
<use x="333.544922" xlink:href="#h"/>
<use x="394.824219" xlink:href="#k"/>
</g>
</g>
<path d="m140.61 945.38v33.808q0 2.4 2.4 2.4h7.7425q2.4 0 2.4-2.4v-33.808q0-2.4-2.4-2.4h-7.7425q-2.4 0-2.4 2.4z" clip-path="url(#a)" fill="#fff" stroke="#fff"/>
<g clip-path="url(#a)">
<g transform="translate(144.67 945.38) rotate(90) scale(.08 -.08)">
<use xlink:href="#l"/>
<use x="44.083984" xlink:href="#c"/>
<use x="105.607422" xlink:href="#i"/>
<use x="144.970703" xlink:href="#j"/>
<use x="242.382812" xlink:href="#g"/>
<use x="270.166016" xlink:href="#e"/>
<use x="333.544922" xlink:href="#h"/>
<use x="394.824219" xlink:href="#k"/>
</g>
</g>
<path d="m157.4 945.38v33.808q0 2.4 2.4 2.4h7.7425q2.4 0 2.4-2.4v-33.808q0-2.4-2.4-2.4h-7.7425q-2.4 0-2.4 2.4z" clip-path="url(#a)" fill="#fff" stroke="#fff"/>
<g clip-path="url(#a)">
<g transform="translate(161.46 945.38) rotate(90) scale(.08 -.08)">
<use xlink:href="#l"/>
<use x="44.083984" xlink:href="#c"/>
<use x="105.607422" xlink:href="#i"/>
<use x="144.970703" xlink:href="#j"/>
<use x="242.382812" xlink:href="#g"/>
<use x="270.166016" xlink:href="#e"/>
<use x="333.544922" xlink:href="#h"/>
<use x="394.824219" xlink:href="#k"/>
</g>
</g>
<path d="m199.28 801.76 0.6587-5.0119q0.31274-2.3795-2.0668-2.6923l-7.6765-1.0089q-2.3795-0.31274-2.6923 2.0668l-0.6587 5.0119q-0.31274 2.3795 2.0668 2.6923l7.6765 1.0089q2.3795 0.31274 2.6923-2.0668z" clip-path="url(#a)" fill="#fff" stroke="#fff"/>
<g clip-path="url(#a)">
<g transform="translate(195.25 801.23) rotate(-82.513) scale(.08 -.08)">
<use xlink:href="#af"/>
</g>
</g>
<path d="m210.15 800.99 0.021431-5.055q0.010175-2.4-2.3898-2.4102l-7.7424-0.032825q-2.4-0.010175-2.4102 2.3898l-0.021431 5.055q-0.010175 2.4 2.3898 2.4102l7.7424 0.032824q2.4 0.010175 2.4102-2.3898z" clip-path="url(#a)" fill="#fff" stroke="#fff"/>
<g clip-path="url(#a)">
<g transform="translate(206.08 800.97) rotate(-89.757) scale(.08 -.08)">
<use xlink:href="#af"/>
</g>
</g>
<path d="m208.84 796.51 0.75099 5.5355q0.32264 2.3782 2.7009 2.0556l7.6722-1.0409q2.3782-0.32264 2.0556-2.7009l-0.75099-5.5355q-0.32264-2.3782-2.7009-2.0556l-7.6722 1.0409q-2.3782 0.32264-2.0556 2.7009z" clip-path="url(#a)" fill="#fff" stroke="#fff"/>
<g clip-path="url(#a)">
<g transform="translate(212.86 795.96) rotate(82.274) scale(.08 -.08)">
<use xlink:href="#ag"/>
</g>
</g>
<path d="m264.68 801.24 0.3791-4.5856q0.19774-2.3918-2.1941-2.5896l-7.7162-0.63791q-2.3918-0.19774-2.5896 2.1941l-0.3791 4.5856q-0.19774 2.3918 2.1941 2.5896l7.7162 0.63791q2.3918 0.19774 2.5896-2.1941z" clip-path="url(#a)" fill="#fff" stroke="#fff"/>
<g clip-path="url(#a)">
<g transform="translate(260.63 800.91) rotate(-85.274) scale(.08 -.08)">
<use xlink:href="#z"/>
</g>
</g>
<path d="m265.78 796.17 0.46026 5.5673q0.19774 2.3918 2.5896 2.1941l7.7162-0.63791q2.3918-0.19774 2.1941-2.5896l-0.46026-5.5673q-0.19774-2.3918-2.5896-2.1941l-7.7162 0.63791q-2.3918 0.19774-2.1941 2.5896z" clip-path="url(#a)" fill="#fff" stroke="#fff"/>
<g clip-path="url(#a)">
<g transform="translate(269.83 795.83) rotate(85.274) scale(.08 -.08)">
<use xlink:href="#ag"/>
</g>
</g>
<path d="m245.53 945.38v33.808q0 2.4 2.4 2.4h7.7425q2.4 0 2.4-2.4v-33.808q0-2.4-2.4-2.4h-7.7425q-2.4 0-2.4 2.4z" clip-path="url(#a)" fill="#fff" stroke="#fff"/>
<g clip-path="url(#a)">
<g transform="translate(249.59 945.38) rotate(90) scale(.08 -.08)">
<use xlink:href="#l"/>
<use x="44.083984" xlink:href="#c"/>
<use x="105.607422" xlink:href="#i"/>
<use x="144.970703" xlink:href="#j"/>
<use x="242.382812" xlink:href="#g"/>
<use x="270.166016" xlink:href="#e"/>
<use x="333.544922" xlink:href="#h"/>
<use x="394.824219" xlink:href="#k"/>
</g>
</g>
<path d="m272.8 945.38v33.808q0 2.4 2.4 2.4h7.7425q2.4 0 2.4-2.4v-33.808q0-2.4-2.4-2.4h-7.7425q-2.4 0-2.4 2.4z" clip-path="url(#a)" fill="#fff" stroke="#fff"/>
<g clip-path="url(#a)">
<g transform="translate(276.87 945.38) rotate(90) scale(.08 -.08)">
<use xlink:href="#l"/>
<use x="44.083984" xlink:href="#c"/>
<use x="105.607422" xlink:href="#i"/>
<use x="144.970703" xlink:href="#j"/>
<use x="242.382812" xlink:href="#g"/>
<use x="270.166016" xlink:href="#e"/>
<use x="333.544922" xlink:href="#h"/>
<use x="394.824219" xlink:href="#k"/>
</g>
</g>
<path d="m176.28 945.38v33.808q0 2.4 2.4 2.4h7.7425q2.4 0 2.4-2.4v-33.808q0-2.4-2.4-2.4h-7.7425q-2.4 0-2.4 2.4z" clip-path="url(#a)" fill="#fff" stroke="#fff"/>
<g clip-path="url(#a)">
<g transform="translate(180.35 945.38) rotate(90) scale(.08 -.08)">
<use xlink:href="#l"/>
<use x="44.083984" xlink:href="#c"/>
<use x="105.607422" xlink:href="#i"/>
<use x="144.970703" xlink:href="#j"/>
<use x="242.382812" xlink:href="#g"/>
<use x="270.166016" xlink:href="#e"/>
<use x="333.544922" xlink:href="#h"/>
<use x="394.824219" xlink:href="#k"/>
</g>
</g>
<path d="m197.27 945.38v33.808q0 2.4 2.4 2.4h7.7425q2.4 0 2.4-2.4v-33.808q0-2.4-2.4-2.4h-7.7425q-2.4 0-2.4 2.4z" clip-path="url(#a)" fill="#fff" stroke="#fff"/>
<g clip-path="url(#a)">
<g transform="translate(201.33 945.38) rotate(90) scale(.08 -.08)">
<use xlink:href="#l"/>
<use x="44.083984" xlink:href="#c"/>
<use x="105.607422" xlink:href="#i"/>
<use x="144.970703" xlink:href="#j"/>
<use x="242.382812" xlink:href="#g"/>
<use x="270.166016" xlink:href="#e"/>
<use x="333.544922" xlink:href="#h"/>
<use x="394.824219" xlink:href="#k"/>
</g>
</g>
<path d="m220.35 945.38v33.808q0 2.4 2.4 2.4h7.7425q2.4 0 2.4-2.4v-33.808q0-2.4-2.4-2.4h-7.7425q-2.4 0-2.4 2.4z" clip-path="url(#a)" fill="#fff" stroke="#fff"/>
<g clip-path="url(#a)">
<g transform="translate(224.41 945.38) rotate(90) scale(.08 -.08)">
<use xlink:href="#l"/>
<use x="44.083984" xlink:href="#c"/>
<use x="105.607422" xlink:href="#i"/>
<use x="144.970703" xlink:href="#j"/>
<use x="242.382812" xlink:href="#g"/>
<use x="270.166016" xlink:href="#e"/>
<use x="333.544922" xlink:href="#h"/>
<use x="394.824219" xlink:href="#k"/>
</g>
</g>
<path d="m88.153 945.38v33.808q0 2.4 2.4 2.4h7.7425q2.4 0 2.4-2.4v-33.808q0-2.4-2.4-2.4h-7.7425q-2.4 0-2.4 2.4z" clip-path="url(#a)" fill="#fff" stroke="#fff"/>
<g clip-path="url(#a)">
<g transform="translate(92.217 945.38) rotate(90) scale(.08 -.08)">
<use xlink:href="#l"/>
<use x="44.083984" xlink:href="#c"/>
<use x="105.607422" xlink:href="#i"/>
<use x="144.970703" xlink:href="#j"/>
<use x="242.382812" xlink:href="#g"/>
<use x="270.166016" xlink:href="#e"/>
<use x="333.544922" xlink:href="#h"/>
<use x="394.824219" xlink:href="#k"/>
</g>
</g>
<path d="m110.72 979.52 1.9586-33.751q0.13904-2.396-2.2569-2.535l-7.7295-0.44855q-2.396-0.13904-2.535 2.2569l-1.9586 33.751q-0.13904 2.396 2.2569 2.535l7.7295 0.44855q2.396 0.13904 2.535-2.2569z" clip-path="url(#a)" fill="#fff" stroke="#fff"/>
<g clip-path="url(#a)">
<g transform="translate(106.66 979.28) rotate(-86.679) scale(.08 -.08)">
<use xlink:href="#l"/>
<use x="44.083984" xlink:href="#c"/>
<use x="105.607422" xlink:href="#i"/>
<use x="144.970703" xlink:href="#j"/>
<use x="242.382812" xlink:href="#g"/>
<use x="270.166016" xlink:href="#e"/>
<use x="333.544922" xlink:href="#h"/>
<use x="394.824219" xlink:href="#k"/>
</g>
</g>
<path d="m107.64 945.77 1.9586 33.751q0.13904 2.396 2.535 2.2569l7.7295-0.44855q2.396-0.13904 2.2569-2.535l-1.9586-33.751q-0.13904-2.396-2.535-2.2569l-7.7295 0.44855q-2.396 0.13904-2.2569 2.535z" clip-path="url(#a)" fill="#fff" stroke="#fff"/>
<g clip-path="url(#a)">
<g transform="translate(111.7 945.53) rotate(86.679) scale(.08 -.08)">
<use xlink:href="#l"/>
<use x="44.083984" xlink:href="#c"/>
<use x="105.607422" xlink:href="#i"/>
<use x="144.970703" xlink:href="#j"/>
<use x="242.382812" xlink:href="#g"/>
<use x="270.166016" xlink:href="#e"/>
<use x="333.544922" xlink:href="#h"/>
<use x="394.824219" xlink:href="#k"/>
</g>
</g>
<path d="m102.84 945.38v33.808q0 2.4 2.4 2.4h7.7425q2.4 0 2.4-2.4v-33.808q0-2.4-2.4-2.4h-7.7425q-2.4 0-2.4 2.4z" clip-path="url(#a)" fill="#fff" stroke="#fff"/>
<g clip-path="url(#a)">
<g transform="translate(106.9 945.38) rotate(90) scale(.08 -.08)">
<use xlink:href="#l"/>
<use x="44.083984" xlink:href="#c"/>
<use x="105.607422" xlink:href="#i"/>
<use x="144.970703" xlink:href="#j"/>
<use x="242.382812" xlink:href="#g"/>
<use x="270.166016" xlink:href="#e"/>
<use x="333.544922" xlink:href="#h"/>
<use x="394.824219" xlink:href="#k"/>
</g>
</g>
<path d="m125.92 945.38v33.808q0 2.4 2.4 2.4h7.7425q2.4 0 2.4-2.4v-33.808q0-2.4-2.4-2.4h-7.7425q-2.4 0-2.4 2.4z" clip-path="url(#a)" fill="#fff" stroke="#fff"/>
<g clip-path="url(#a)">
<g transform="translate(129.99 945.38) rotate(90) scale(.08 -.08)">
<use xlink:href="#l"/>
<use x="44.083984" xlink:href="#c"/>
<use x="105.607422" xlink:href="#i"/>
<use x="144.970703" xlink:href="#j"/>
<use x="242.382812" xlink:href="#g"/>
<use x="270.166016" xlink:href="#e"/>
<use x="333.544922" xlink:href="#h"/>
<use x="394.824219" xlink:href="#k"/>
</g>
</g>
<path d="m440.67 945.38v33.808q0 2.4 2.4 2.4h7.7425q2.4 0 2.4-2.4v-33.808q0-2.4-2.4-2.4h-7.7425q-2.4 0-2.4 2.4z" clip-path="url(#a)" fill="#fff" stroke="#fff"/>
<g clip-path="url(#a)">
<g transform="translate(444.73 945.38) rotate(90) scale(.08 -.08)">
<use xlink:href="#l"/>
<use x="44.083984" xlink:href="#c"/>
<use x="105.607422" xlink:href="#i"/>
<use x="144.970703" xlink:href="#j"/>
<use x="242.382812" xlink:href="#g"/>
<use x="270.166016" xlink:href="#e"/>
<use x="333.544922" xlink:href="#h"/>
<use x="394.824219" xlink:href="#k"/>
</g>
</g>
<path d="m818.37 945.38v33.808q0 2.4 2.4 2.4h7.7425q2.4 0 2.4-2.4v-33.808q0-2.4-2.4-2.4h-7.7425q-2.4 0-2.4 2.4z" clip-path="url(#a)" fill="#fff" stroke="#fff"/>
<g clip-path="url(#a)">
<g transform="translate(822.43 945.38) rotate(90) scale(.08 -.08)">
<use xlink:href="#l"/>
<use x="44.083984" xlink:href="#c"/>
<use x="105.607422" xlink:href="#i"/>
<use x="144.970703" xlink:href="#j"/>
<use x="242.382812" xlink:href="#g"/>
<use x="270.166016" xlink:href="#e"/>
<use x="333.544922" xlink:href="#h"/>
<use x="394.824219" xlink:href="#k"/>
</g>
</g>
<path d="m1122.6 945.38v33.808q0 2.4 2.4 2.4h7.7425q2.4 0 2.4-2.4v-33.808q0-2.4-2.4-2.4h-7.7425q-2.4 0-2.4 2.4z" clip-path="url(#a)" fill="#fff" stroke="#fff"/>
<g clip-path="url(#a)">
<g transform="translate(1126.7 945.38) rotate(90) scale(.08 -.08)">
<use xlink:href="#l"/>
<use x="44.083984" xlink:href="#c"/>
<use x="105.607422" xlink:href="#i"/>
<use x="144.970703" xlink:href="#j"/>
<use x="242.382812" xlink:href="#g"/>
<use x="270.166016" xlink:href="#e"/>
<use x="333.544922" xlink:href="#h"/>
<use x="394.824219" xlink:href="#k"/>
</g>
</g>
<path d="m1189.8 945.38v33.808q0 2.4 2.4 2.4h7.7425q2.4 0 2.4-2.4v-33.808q0-2.4-2.4-2.4h-7.7425q-2.4 0-2.4 2.4z" clip-path="url(#a)" fill="#fff" stroke="#fff"/>
<g clip-path="url(#a)">
<g transform="translate(1193.8 945.38) rotate(90) scale(.08 -.08)">
<use xlink:href="#l"/>
<use x="44.083984" xlink:href="#c"/>
<use x="105.607422" xlink:href="#i"/>
<use x="144.970703" xlink:href="#j"/>
<use x="242.382812" xlink:href="#g"/>
<use x="270.166016" xlink:href="#e"/>
<use x="333.544922" xlink:href="#h"/>
<use x="394.824219" xlink:href="#k"/>
</g>
</g>
<path d="m1888.5 945.38v33.808q0 2.4 2.4 2.4h7.7425q2.4 0 2.4-2.4v-33.808q0-2.4-2.4-2.4h-7.7425q-2.4 0-2.4 2.4z" clip-path="url(#a)" fill="#fff" stroke="#fff"/>
<g clip-path="url(#a)">
<g transform="translate(1892.6 945.38) rotate(90) scale(.08 -.08)">
<use xlink:href="#l"/>
<use x="44.083984" xlink:href="#c"/>
<use x="105.607422" xlink:href="#i"/>
<use x="144.970703" xlink:href="#j"/>
<use x="242.382812" xlink:href="#g"/>
<use x="270.166016" xlink:href="#e"/>
<use x="333.544922" xlink:href="#h"/>
<use x="394.824219" xlink:href="#k"/>
</g>
</g>
<path d="m1976.6 945.38v33.808q0 2.4 2.4 2.4h7.7425q2.4 0 2.4-2.4v-33.808q0-2.4-2.4-2.4h-7.7425q-2.4 0-2.4 2.4z" clip-path="url(#a)" fill="#fff" stroke="#fff"/>
<g clip-path="url(#a)">
<g transform="translate(1980.7 945.38) rotate(90) scale(.08 -.08)">
<use xlink:href="#l"/>
<use x="44.083984" xlink:href="#c"/>
<use x="105.607422" xlink:href="#i"/>
<use x="144.970703" xlink:href="#j"/>
<use x="242.382812" xlink:href="#g"/>
<use x="270.166016" xlink:href="#e"/>
<use x="333.544922" xlink:href="#h"/>
<use x="394.824219" xlink:href="#k"/>
</g>
</g>
<defs>
<path id="b" d="m0 8.6603c2.2967 0 4.4997-0.9125 6.1237-2.5365 1.624-1.624 2.5365-3.827 2.5365-6.1237s-0.9125-4.4997-2.5365-6.1237c-1.624-1.624-3.827-2.5365-6.1237-2.5365s-4.4997 0.9125-6.1237 2.5365c-1.624 1.624-2.5365 3.827-2.5365 6.1237s0.9125 4.4997 2.5365 6.1237c1.624 1.624 3.827 2.5365 6.1237 2.5365z"/>
</defs>
<g clip-path="url(#a)" fill="#ffffff" stroke="#ffffff">
<use x="94.424242" y="1043.636364" xlink:href="#b"/>
<use x="100.719192" y="1043.636364" xlink:href="#b"/>
<use x="109.112458" y="1043.636364" xlink:href="#b"/>
<use x="119.60404" y="1043.636364" xlink:href="#b"/>
<use x="132.193939" y="1043.636364" xlink:href="#b"/>
<use x="146.882155" y="1043.636364" xlink:href="#b"/>
<use x="163.668687" y="1043.636364" xlink:href="#b"/>
<use x="182.553535" y="1043.636364" xlink:href="#b"/>
<use x="203.5367" y="1043.636364" xlink:href="#b"/>
<use x="226.618182" y="1043.636364" xlink:href="#b"/>
<use x="251.79798" y="1043.636364" xlink:href="#b"/>
<use x="279.076094" y="1043.636364" xlink:href="#b"/>
<use x="308.452525" y="1043.636364" xlink:href="#b"/>
<use x="339.927273" y="1043.636364" xlink:href="#b"/>
<use x="373.500337" y="1043.636364" xlink:href="#b"/>
<use x="409.171717" y="1043.636364" xlink:href="#b"/>
<use x="446.941414" y="1043.636364" xlink:href="#b"/>
<use x="486.809428" y="1043.636364" xlink:href="#b"/>
<use x="528.775758" y="1043.636364" xlink:href="#b"/>
<use x="572.840404" y="1043.636364" xlink:href="#b"/>
<use x="619.003367" y="1043.636364" xlink:href="#b"/>
<use x="667.264646" y="1043.636364" xlink:href="#b"/>
<use x="717.624242" y="1043.636364" xlink:href="#b"/>
<use x="770.082155" y="1043.636364" xlink:href="#b"/>
<use x="824.638384" y="1043.636364" xlink:href="#b"/>
<use x="881.292929" y="1043.636364" xlink:href="#b"/>
<use x="940.045791" y="1043.636364" xlink:href="#b"/>
<use x="1000.89697" y="1043.636364" xlink:href="#b"/>
<use x="1063.846465" y="1043.636364" xlink:href="#b"/>
<use x="1128.894276" y="1043.636364" xlink:href="#b"/>
<use x="1196.040404" y="1043.636364" xlink:href="#b"/>
<use x="1265.284848" y="1043.636364" xlink:href="#b"/>
<use x="1336.627609" y="1043.636364" xlink:href="#b"/>
<use x="1410.068687" y="1043.636364" xlink:href="#b"/>
<use x="1485.608081" y="1043.636364" xlink:href="#b"/>
<use x="1563.245791" y="1043.636364" xlink:href="#b"/>
<use x="1642.981818" y="1043.636364" xlink:href="#b"/>
<use x="1724.816162" y="1043.636364" xlink:href="#b"/>
<use x="1808.748822" y="1043.636364" xlink:href="#b"/>
<use x="1894.779798" y="1043.636364" xlink:href="#b"/>
<use x="1982.909091" y="1043.636364" xlink:href="#b"/>
<use x="436.050577" y="49.69697" xlink:href="#b"/>
<use x="104.566105" y="715.943158" xlink:href="#b"/>
<use x="195.056004" y="550.099487" xlink:href="#b"/>
<use x="308.452525" y="880.921532" xlink:href="#b"/>
<use x="390.170296" y="383.69138" xlink:href="#b"/>
<use x="1097.276786" y="216.862298" xlink:href="#b"/>
<use x="881.292929" y="880.921532" xlink:href="#b"/>
<use x="940.045791" y="880.921532" xlink:href="#b"/>
<use x="1000.89697" y="880.921532" xlink:href="#b"/>
<use x="1063.846465" y="880.921532" xlink:href="#b"/>
<use x="1469.920667" y="383.69138" xlink:href="#b"/>
<use x="1265.284848" y="880.921532" xlink:href="#b"/>
<use x="1674.556485" y="550.099487" xlink:href="#b"/>
<use x="1336.627609" y="880.921532" xlink:href="#b"/>
<use x="1410.068687" y="880.921532" xlink:href="#b"/>
<use x="1563.94523" y="715.943158" xlink:href="#b"/>
<use x="1724.816162" y="880.921532" xlink:href="#b"/>
<use x="1808.748822" y="880.921532" xlink:href="#b"/>
<use x="1485.608081" y="880.921532" xlink:href="#b"/>
<use x="1563.245791" y="880.921532" xlink:href="#b"/>
<use x="1642.981818" y="880.921532" xlink:href="#b"/>
<use x="339.927273" y="880.921532" xlink:href="#b"/>
<use x="373.500337" y="880.921532" xlink:href="#b"/>
<use x="409.171717" y="880.921532" xlink:href="#b"/>
<use x="624.598878" y="550.099487" xlink:href="#b"/>
<use x="486.809428" y="880.921532" xlink:href="#b"/>
<use x="528.775758" y="880.921532" xlink:href="#b"/>
<use x="619.702806" y="715.943158" xlink:href="#b"/>
<use x="717.624242" y="880.921532" xlink:href="#b"/>
<use x="770.082155" y="880.921532" xlink:href="#b"/>
<use x="572.840404" y="880.921532" xlink:href="#b"/>
<use x="619.003367" y="880.921532" xlink:href="#b"/>
<use x="667.264646" y="880.921532" xlink:href="#b"/>
<use x="146.882155" y="880.921532" xlink:href="#b"/>
<use x="163.668687" y="880.921532" xlink:href="#b"/>
<use x="204.236139" y="715.943158" xlink:href="#b"/>
<use x="265.437037" y="715.943158" xlink:href="#b"/>
<use x="251.79798" y="880.921532" xlink:href="#b"/>
<use x="279.076094" y="880.921532" xlink:href="#b"/>
<use x="182.553535" y="880.921532" xlink:href="#b"/>
<use x="203.5367" y="880.921532" xlink:href="#b"/>
<use x="226.618182" y="880.921532" xlink:href="#b"/>
<use x="94.424242" y="880.921532" xlink:href="#b"/>
<use x="110.161616" y="880.921532" xlink:href="#b"/>
<use x="109.112458" y="880.921532" xlink:href="#b"/>
<use x="132.193939" y="880.921532" xlink:href="#b"/>
<use x="446.941414" y="880.921532" xlink:href="#b"/>
<use x="824.638384" y="880.921532" xlink:href="#b"/>
<use x="1128.894276" y="880.921532" xlink:href="#b"/>
<use x="1196.040404" y="880.921532" xlink:href="#b"/>
<use x="1894.779798" y="880.921532" xlink:href="#b"/>
<use x="1982.909091" y="880.921532" xlink:href="#b"/>
</g>
<g clip-path="url(#a)">
<g transform="translate(86.784 1046.4) scale(.1 -.1)">
<use xlink:href="#y"/>
<use x="63.476562" xlink:href="#g"/>
<use x="91.259766" xlink:href="#c"/>
</g>
</g>
<g clip-path="url(#a)">
<defs>
<path id="s" d="m44.281 53.078v-8.5q-3.7969 1.9531-7.9062 2.9219-4.0938 0.98438-8.5 0.98438-6.6875 0-10.031-2.0469t-3.3438-6.1562q0-3.125 2.3906-4.9062t9.625-3.3906l3.0781-0.6875q9.5625-2.0469 13.594-5.7812t4.0312-10.422q0-7.625-6.0312-12.078-6.0312-4.4375-16.578-4.4375-4.3906 0-9.1562 0.85938t-10.031 2.5625v9.2812q4.9844-2.5938 9.8125-3.8906 4.8281-1.2812 9.5781-1.2812 6.3438 0 9.75 2.1719 3.4219 2.1719 3.4219 6.125 0 3.6562-2.4688 5.6094-2.4531 1.9531-10.812 3.7656l-3.125 0.73438q-8.3438 1.75-12.062 5.3906-3.7031 3.6406-3.7031 9.9844 0 7.7188 5.4688 11.906 5.4688 4.2031 15.531 4.2031 4.9688 0 9.3594-0.73438 4.4062-0.71875 8.1094-2.1875z"/>
<path id="t" d="m54.891 33.016v-33.016h-8.9844v32.719q0 7.7656-3.0312 11.609-3.0312 3.8594-9.0781 3.8594-7.2812 0-11.484-4.6406-4.2031-4.625-4.2031-12.641v-30.906h-9.0312v75.984h9.0312v-29.797q3.2344 4.9375 7.5938 7.375 4.375 2.4375 10.094 2.4375 9.4219 0 14.25-5.8281 4.8438-5.8281 4.8438-17.156z"/>
</defs>
<g transform="translate(91.882 1046.4) scale(.1 -.1)">
<use xlink:href="#s"/>
<use x="52.099609" xlink:href="#h"/>
<use x="113.378906" xlink:href="#t"/>
</g>
</g>
<g clip-path="url(#a)">
<defs>
<path id="x" d="m30.609 48.391q-7.2188 0-11.422-5.6406t-4.2031-15.453 4.1719-15.453q4.1875-5.6406 11.453-5.6406 7.1875 0 11.375 5.6562 4.2031 5.6719 4.2031 15.438 0 9.7188-4.2031 15.406-4.1875 5.6875-11.375 5.6875zm0 7.6094q11.719 0 18.406-7.625 6.7031-7.6094 6.7031-21.078 0-13.422-6.7031-21.078-6.6875-7.6406-18.406-7.6406-11.766 0-18.438 7.6406-6.6562 7.6562-6.6562 21.078 0 13.469 6.6562 21.078 6.6719 7.625 18.438 7.625z"/>
</defs>
<g transform="translate(103.45 1046.4) scale(.1 -.1)">
<use xlink:href="#s"/>
<use x="52.099609" xlink:href="#x"/>
</g>
</g>
<g clip-path="url(#a)">
<defs>
<path id="ad" d="m8.5 21.578v33.109h8.9844v-32.766q0-7.7656 3.0156-11.656 3.0312-3.875 9.0938-3.875 7.2656 0 11.484 4.6406 4.2344 4.6406 4.2344 12.656v31h8.9844v-54.688h-8.9844v8.4062q-3.2656-4.9844-7.5938-7.4062-4.3125-2.4219-10.031-2.4219-9.4219 0-14.312 5.8594-4.875 5.8594-4.875 17.141z"/>
</defs>
<g transform="translate(110.77 1046.4) scale(.1 -.1)">
<use xlink:href="#h"/>
<use x="61.279297" xlink:href="#ad"/>
<use x="124.658203" xlink:href="#s"/>
</g>
</g>
<g clip-path="url(#a)">
<defs>
<path id="am" d="m11.719 12.406h10.297v-12.406h-10.297zm0 39.297h10.297v-12.391h-10.297z"/>
</defs>
<g transform="translate(130.51 1046.4) scale(.1 -.1)">
<use xlink:href="#am"/>
</g>
</g>
<g clip-path="url(#a)">
<defs>
<path id="aw" d="m9.8125 72.906h9.8594v-72.906h-9.8594z"/>
<path id="aj" d="m48.781 52.594v-8.4062q-3.8125 2.1094-7.6406 3.1562t-7.7344 1.0469q-8.75 0-13.594-5.5469-4.8281-5.5312-4.8281-15.547t4.8281-15.562q4.8438-5.5312 13.594-5.5312 3.9062 0 7.7344 1.0469t7.6406 3.1562v-8.3125q-3.7656-1.75-7.7969-2.625-4.0156-0.89062-8.5625-0.89062-12.359 0-19.641 7.7656-7.2656 7.7656-7.2656 20.953 0 13.375 7.3438 21.031 7.3594 7.6719 20.156 7.6719 4.1406 0 8.0938-0.85938 3.9531-0.84375 7.6719-2.5469z"/>
</defs>
<g transform="translate(139.49 1046.4) scale(.1 -.1)">
<use xlink:href="#aw"/>
<use x="29.492188" xlink:href="#aj"/>
<use x="84.472656" xlink:href="#t"/>
</g>
</g>
<g clip-path="url(#a)">
<defs>
<path id="ba" d="m5.5156 54.688h42.672v-8.2031l-33.781-39.312h33.781v-7.1719h-43.891v8.2031l33.797 39.312h-32.578z"/>
<path id="w" d="m45.406 27.984q0 9.7656-4.0312 15.125-4.0156 5.375-11.297 5.375-7.2188 0-11.25-5.375-4.0312-5.3594-4.0312-15.125 0-9.7188 4.0312-15.094t11.25-5.375q7.2812 0 11.297 5.375 4.0312 5.375 4.0312 15.094zm8.9844-21.203q0-13.953-6.2031-20.766-6.1875-6.8125-18.984-6.8125-4.7344 0-8.9375 0.70312t-8.1562 2.1719v8.7344q3.9531-2.1406 7.8125-3.1562 3.8594-1.0312 7.8594-1.0312 8.8438 0 13.234 4.6094t4.3906 13.938v4.4531q-2.7812-4.8438-7.125-7.2344t-10.406-2.3906q-10.047 0-16.203 7.6562-6.1562 7.6719-6.1562 20.328 0 12.688 6.1562 20.344 6.1562 7.6719 16.203 7.6719 6.0625 0 10.406-2.3906t7.125-7.2188v8.2969h8.9844z"/>
<path id="r" d="m18.312 70.219v-15.531h18.5v-6.9844h-18.5v-29.688q0-6.6875 1.8281-8.5938t7.4531-1.9062h9.2188v-7.5156h-9.2188q-10.406 0-14.359 3.875-3.9531 3.8906-3.9531 14.141v29.688h-6.5938v6.9844h6.5938v15.531z"/>
</defs>
<g transform="translate(148.37 1046.4) scale(.1 -.1)">
<use xlink:href="#ba"/>
<use x="52.490234" xlink:href="#c"/>
<use x="114.013672" xlink:href="#g"/>
<use x="141.796875" xlink:href="#w"/>
<use x="205.273438" xlink:href="#r"/>
<use x="244.482422" xlink:href="#c"/>
</g>
</g>
<g clip-path="url(#a)">
<g transform="translate(170.05 1046.4) scale(.1 -.1)">
<use xlink:href="#j"/>
<use x="97.412109" xlink:href="#c"/>
<use x="158.935547" xlink:href="#g"/>
<use x="186.71875" xlink:href="#e"/>
</g>
</g>
<g clip-path="url(#a)">
<defs>
<path id="au" d="m9.8125 72.906h14.703l18.594-49.609 18.703 49.609h14.703v-72.906h-9.625v64.016l-18.797-50h-9.9062l-18.797 50v-64.016h-9.5781z"/>
</defs>
<g transform="translate(185.06 1046.4) scale(.1 -.1)">
<use xlink:href="#au"/>
<use x="86.279297" xlink:href="#c"/>
<use x="147.802734" xlink:href="#g"/>
<use x="175.585938" xlink:href="#s"/>
<use x="227.685547" xlink:href="#r"/>
<use x="266.894531" xlink:href="#c"/>
<use x="328.417969" xlink:href="#i"/>
</g>
</g>
<g clip-path="url(#a)">
<defs>
<path id="an" d="m4.2031 54.688h8.9844l11.234-42.672 11.172 42.672h10.594l11.234-42.672 11.188 42.672h8.9844l-14.312-54.688h-10.594l-11.766 44.828-11.812-44.828h-10.609z"/>
<path id="bb" d="m9.0781 75.984h9.0312v-44.875l26.812 23.578h11.469l-29-25.578 30.234-29.109h-11.719l-27.797 26.703v-26.703h-9.0312z"/>
</defs>
<g transform="translate(214.5 1046.4) scale(.1 -.1)">
<use xlink:href="#an"/>
<use x="81.787109" xlink:href="#c"/>
<use x="143.310547" xlink:href="#i"/>
<use x="184.423828" xlink:href="#bb"/>
</g>
</g>
<g clip-path="url(#a)">
<defs>
<path id="ar" d="m45.406 46.391v29.594h8.9844v-75.984h-8.9844v8.2031q-2.8281-4.875-7.1562-7.25-4.3125-2.375-10.375-2.375-9.9062 0-16.141 7.9062-6.2188 7.9219-6.2188 20.812t6.2188 20.797q6.2344 7.9062 16.141 7.9062 6.0625 0 10.375-2.375 4.3281-2.3594 7.1562-7.2344zm-30.609-19.094q0-9.9062 4.0781-15.547t11.203-5.6406 11.219 5.6406q4.1094 5.6406 4.1094 15.547t-4.1094 15.547q-4.0938 5.6406-11.219 5.6406t-11.203-5.6406-4.0781-15.547z"/>
</defs>
<g transform="translate(242.38 1046.4) scale(.1 -.1)">
<use xlink:href="#ar"/>
<use x="63.476562" xlink:href="#c"/>
<use x="125" xlink:href="#e"/>
</g>
</g>
<g clip-path="url(#a)">
<g transform="translate(245.69 1046.4) scale(.1 -.1)">
<use xlink:href="#af"/>
<use x="63.183594" xlink:href="#i"/>
<use x="104.296875" xlink:href="#an"/>
<use x="186.083984" xlink:href="#h"/>
<use x="247.363281" xlink:href="#aj"/>
<use x="302.34375" xlink:href="#t"/>
<use x="365.722656" xlink:href="#s"/>
<use x="417.822266" xlink:href="#c"/>
<use x="479.345703" xlink:href="#e"/>
<use x="542.724609" xlink:href="#c"/>
<use x="604.248047" xlink:href="#e"/>
</g>
</g>
<g clip-path="url(#a)">
<g transform="translate(298.94 1046.4) scale(.1 -.1)">
<use xlink:href="#ad"/>
<use x="63.378906" xlink:href="#e"/>
<use x="126.757812" xlink:href="#ar"/>
</g>
</g>
<g clip-path="url(#a)">
<defs>
<path id="ae" d="m48.688 27.297q0 9.9062-4.0781 15.547t-11.203 5.6406q-7.1406 0-11.219-5.6406t-4.0781-15.547 4.0781-15.547 11.219-5.6406q7.125 0 11.203 5.6406t4.0781 15.547zm-30.578 19.094q2.8438 4.875 7.1562 7.2344 4.3281 2.375 10.328 2.375 9.9688 0 16.188-7.9062 6.2344-7.9062 6.2344-20.797t-6.2344-20.812q-6.2188-7.9062-16.188-7.9062-6 0-10.328 2.375-4.3125 2.375-7.1562 7.25v-8.2031h-9.0312v75.984h9.0312z"/>
</defs>
<g transform="translate(327.44 1046.4) scale(.1 -.1)">
<use xlink:href="#t"/>
<use x="63.378906" xlink:href="#h"/>
<use x="124.658203" xlink:href="#ae"/>
<use x="188.134766" xlink:href="#c"/>
</g>
</g>
<g clip-path="url(#a)">
<g transform="translate(366.43 1046.4) scale(.1 -.1)">
<use xlink:href="#s"/>
<use x="52.099609" xlink:href="#g"/>
<use x="79.882812" xlink:href="#c"/>
</g>
</g>
<g clip-path="url(#a)">
<defs>
<path id="bc" d="m37.109 75.984v-7.4844h-8.5938q-4.8281 0-6.7188-1.9531-1.875-1.9531-1.875-7.0312v-4.8281h14.797v-6.9844h-14.797v-47.703h-9.0312v47.703h-8.5938v6.9844h8.5938v3.8125q0 9.125 4.25 13.297 4.25 4.1875 13.469 4.1875z"/>
</defs>
<g transform="translate(390.91 1046.4) scale(.1 -.1)">
<use xlink:href="#w"/>
<use x="63.476562" xlink:href="#c"/>
<use x="125" xlink:href="#bc"/>
<use x="160.205078" xlink:href="#i"/>
<use x="201.318359" xlink:href="#h"/>
<use x="262.597656" xlink:href="#w"/>
<use x="326.074219" xlink:href="#r"/>
</g>
</g>
<g clip-path="url(#a)">
<defs>
<path id="ay" d="m11.719 12.406h10.297v-8.4062l-8-15.625h-6.2969l4 15.625z"/>
</defs>
<g transform="translate(445.35 1046.4) scale(.1 -.1)">
<use xlink:href="#ay"/>
</g>
</g>
<g clip-path="url(#a)">
<g transform="translate(480.58 1046.4) scale(.1 -.1)">
<use xlink:href="#x"/>
<use x="61.181641" xlink:href="#ae"/>
</g>
</g>
<g clip-path="url(#a)">
<g transform="translate(521.71 1046.4) scale(.1 -.1)">
<use xlink:href="#s"/>
<use x="52.099609" xlink:href="#g"/>
<use x="79.882812" xlink:href="#c"/>
</g>
</g>
<g clip-path="url(#a)">
<defs>
<path id="aq" d="m2.9844 54.688h9.5156l17.094-45.891 17.094 45.891h9.5156l-20.516-54.688h-12.203z"/>
</defs>
<g transform="translate(564.77 1046.4) scale(.1 -.1)">
<use xlink:href="#aq"/>
<use x="59.179688" xlink:href="#x"/>
<use x="120.361328" xlink:href="#i"/>
</g>
</g>
<g clip-path="url(#a)">
<g transform="translate(601.37 1046.4) scale(.1 -.1)">
<use xlink:href="#j"/>
<use x="97.412109" xlink:href="#c"/>
<use x="158.935547" xlink:href="#g"/>
<use x="186.71875" xlink:href="#e"/>
<use x="250.097656" xlink:href="#c"/>
<use x="311.621094" xlink:href="#i"/>
</g>
</g>
<g clip-path="url(#a)">
<defs>
<path id="as" d="m5.6094 72.906h57.281v-7.5312l-46.094-57.078h47.219v-8.2969h-59.516v7.5156l46.094 57.078h-44.984z"/>
</defs>
<g transform="translate(640.78 1046.4) scale(.1 -.1)">
<use xlink:href="#as"/>
<use x="68.505859" xlink:href="#c"/>
<use x="130.029297" xlink:href="#g"/>
<use x="157.8125" xlink:href="#aj"/>
<use x="212.792969" xlink:href="#t"/>
<use x="276.171875" xlink:href="#e"/>
<use x="339.550781" xlink:href="#ad"/>
<use x="402.929688" xlink:href="#e"/>
<use x="466.308594" xlink:href="#w"/>
</g>
</g>
<g clip-path="url(#a)">
<g transform="translate(703.3 1046.4) scale(.1 -.1)">
<use xlink:href="#m"/>
<use x="68.408203" xlink:href="#e"/>
<use x="131.787109" xlink:href="#w"/>
<use x="195.263672" xlink:href="#s"/>
<use x="247.363281" xlink:href="#r"/>
</g>
</g>
<g clip-path="url(#a)">
<defs>
<path id="az" d="m34.281 27.484q-10.891 0-15.094-2.4844t-4.2031-8.5q0-4.7812 3.1562-7.5938 3.1562-2.7969 8.5625-2.7969 7.4844 0 12 5.2969t4.5156 14.078v2zm17.922 3.7188v-31.203h-8.9844v8.2969q-3.0781-4.9688-7.6719-7.3438t-11.234-2.375q-8.3906 0-13.359 4.7188-4.9531 4.7188-4.9531 12.625 0 9.2188 6.1719 13.906 6.1875 4.6875 18.438 4.6875h12.609v0.89062q0 6.2031-4.0781 9.5938t-11.453 3.3906q-4.6875 0-9.1406-1.125-4.4375-1.125-8.5312-3.375v8.3125q4.9219 1.9062 9.5625 2.8438 4.6406 0.95312 9.0312 0.95312 11.875 0 17.734-6.1562 5.8594-6.1406 5.8594-18.641zm-18.609 44.578h9.9062v-9.8594h-9.9062zm-19.094 0h9.9062v-9.8594h-9.9062z"/>
</defs>
<g transform="translate(753.68 1046.4) scale(.1 -.1)">
<use xlink:href="#t"/>
<use x="63.378906" xlink:href="#az"/>
<use x="124.658203" xlink:href="#r"/>
<use x="163.867188" xlink:href="#r"/>
<use x="203.076172" xlink:href="#c"/>
<use x="264.599609" xlink:href="#e"/>
</g>
</g>
<g clip-path="url(#a)">
<g transform="translate(822.95 1046.4) scale(.1 -.1)">
<use xlink:href="#am"/>
</g>
</g>
<g clip-path="url(#a)">
<g transform="translate(873.65 1046.4) scale(.1 -.1)">
<use xlink:href="#y"/>
<use x="63.476562" xlink:href="#g"/>
<use x="91.259766" xlink:href="#c"/>
</g>
</g>
<g clip-path="url(#a)">
<g transform="translate(924.39 1046.4) scale(.1 -.1)">
<use xlink:href="#t"/>
<use x="63.378906" xlink:href="#h"/>
<use x="124.658203" xlink:href="#ae"/>
<use x="188.134766" xlink:href="#c"/>
<use x="249.658203" xlink:href="#e"/>
</g>
</g>
<g clip-path="url(#a)">
<g transform="translate(992.58 1046.4) scale(.1 -.1)">
<use xlink:href="#j"/>
<use x="97.412109" xlink:href="#g"/>
<use x="125.195312" xlink:href="#i"/>
</g>
</g>
<g clip-path="url(#a)">
<g transform="translate(1033.2 1046.4) scale(.1 -.1)">
<use xlink:href="#w"/>
<use x="63.476562" xlink:href="#c"/>
<use x="125" xlink:href="#h"/>
<use x="186.279297" xlink:href="#e"/>
<use x="249.658203" xlink:href="#r"/>
<use x="288.867188" xlink:href="#an"/>
<use x="370.654297" xlink:href="#x"/>
<use x="431.835938" xlink:href="#i"/>
<use x="472.949219" xlink:href="#r"/>
<use x="512.158203" xlink:href="#c"/>
<use x="573.681641" xlink:href="#r"/>
</g>
</g>
<g clip-path="url(#a)">
<g transform="translate(1127.2 1046.4) scale(.1 -.1)">
<use xlink:href="#am"/>
</g>
</g>
<g clip-path="url(#a)">
<defs>
<path id="ap" d="m17.922 72.906v-27.109h-8.2969v27.109zm18.453 0v-27.109h-8.2969v27.109z"/>
</defs>
<g transform="translate(1193.7 1046.4) scale(.1 -.1)">
<use xlink:href="#ap"/>
</g>
</g>
<g clip-path="url(#a)">
<defs>
<path id="at" d="m3.3281 72.906h9.9531l15.328-61.625 15.281 61.625h11.094l15.328-61.625 15.281 61.625h10.016l-18.312-72.906h-12.406l-15.375 63.281-15.531-63.281h-12.406z"/>
</defs>
<g transform="translate(1247.5 1046.4) scale(.1 -.1)">
<use xlink:href="#at"/>
<use x="92.501953" xlink:href="#h"/>
<use x="153.78125" xlink:href="#i"/>
<use x="194.894531" xlink:href="#ad"/>
<use x="258.273438" xlink:href="#j"/>
</g>
</g>
<g clip-path="url(#a)">
<g transform="translate(1323.1 1046.4) scale(.1 -.1)">
<use xlink:href="#s"/>
<use x="52.099609" xlink:href="#x"/>
<use x="113.28125" xlink:href="#k"/>
<use x="141.064453" xlink:href="#k"/>
<use x="168.847656" xlink:href="#r"/>
<use x="208.056641" xlink:href="#c"/>
</g>
</g>
<g clip-path="url(#a)">
<g transform="translate(1399 1046.4) scale(.1 -.1)">
<use xlink:href="#j"/>
<use x="97.412109" xlink:href="#h"/>
<use x="158.691406" xlink:href="#e"/>
</g>
</g>
<g clip-path="url(#a)">
<g transform="translate(1477.5 1046.4) scale(.1 -.1)">
<use xlink:href="#aq"/>
<use x="59.179688" xlink:href="#x"/>
<use x="120.361328" xlink:href="#i"/>
</g>
</g>
<g clip-path="url(#a)">
<g transform="translate(1547.7 1046.4) scale(.1 -.1)">
<use xlink:href="#c"/>
<use x="61.523438" xlink:href="#g"/>
<use x="89.306641" xlink:href="#e"/>
<use x="152.685547" xlink:href="#c"/>
<use x="214.208984" xlink:href="#j"/>
</g>
</g>
<g clip-path="url(#a)">
<g transform="translate(1634.1 1046.4) scale(.1 -.1)">
<use xlink:href="#v"/>
<use x="75.195312" xlink:href="#ad"/>
<use x="138.574219" xlink:href="#r"/>
</g>
</g>
<g clip-path="url(#a)">
<g transform="translate(1710.5 1046.4) scale(.1 -.1)">
<use xlink:href="#m"/>
<use x="68.408203" xlink:href="#e"/>
<use x="131.787109" xlink:href="#w"/>
<use x="195.263672" xlink:href="#s"/>
<use x="247.363281" xlink:href="#r"/>
</g>
</g>
<g clip-path="url(#a)">
<g transform="translate(1793.1 1046.4) scale(.1 -.1)">
<use xlink:href="#t"/>
<use x="63.378906" xlink:href="#h"/>
<use x="124.658203" xlink:href="#ae"/>
<use x="188.134766" xlink:href="#c"/>
<use x="249.658203" xlink:href="#e"/>
</g>
</g>
<g clip-path="url(#a)">
<defs>
<path id="ax" d="m19.094 12.406h9.9062v-12.406h-9.9062zm9.625 7.1719h-9.3281v7.5156q0 4.9375 1.3594 8.1094 1.375 3.1719 5.7656 7.375l4.3906 4.3438q2.7812 2.5938 4.0312 4.8906t1.25 4.6875q0 4.3438-3.2031 7.0312t-8.4688 2.6875q-3.8594 0-8.2344-1.7188-4.3594-1.7031-9.1094-4.9844v9.1875q4.5938 2.7812 9.2969 4.1406 4.7188 1.375 9.75 1.375 8.9844 0 14.422-4.7344 5.4531-4.7344 5.4531-12.5 0-3.7188-1.7656-7.0625-1.75-3.3438-6.1406-7.5312l-4.2969-4.2031q-2.2969-2.2969-3.25-3.5938t-1.3438-2.5156q-0.29688-1.0156-0.4375-2.4844t-0.14062-4z"/>
</defs>
<g transform="translate(1892.1 1046.4) scale(.1 -.1)">
<use xlink:href="#ax"/>
</g>
</g>
<g clip-path="url(#a)">
<g transform="translate(1980.6 1046.4) scale(.1 -.1)">
<use xlink:href="#ap"/>
</g>
</g>
<g clip-path="url(#a)">
<defs>
<path id="d" d="m12.406 8.2969h16.109v55.625l-17.531-3.5156v8.9844l17.438 3.5156h9.8594v-64.609h16.109v-8.2969h-41.984z"/>
<path id="f" d="m10.688 12.406h10.312v-12.406h-10.312z"/>
</defs>
<g transform="translate(428.1 52.456) scale(.1 -.1)">
<use xlink:href="#d"/>
<use x="63.623047" xlink:href="#f"/>
<use x="95.410156" xlink:href="#d"/>
</g>
</g>
<g clip-path="url(#a)">
<defs>
<path id="q" d="m19.188 8.2969h34.422v-8.2969h-46.281v8.2969q5.6094 5.8125 15.297 15.594 9.7031 9.7969 12.188 12.641 4.7344 5.3125 6.6094 9 1.8906 3.6875 1.8906 7.25 0 5.8125-4.0781 9.4688-4.0781 3.6719-10.625 3.6719-4.6406 0-9.7969-1.6094-5.1406-1.6094-11-4.8906v9.9688q5.9531 2.3906 11.125 3.6094 5.1875 1.2188 9.4844 1.2188 11.328 0 18.062-5.6719 6.7344-5.6562 6.7344-15.125 0-4.5-1.6875-8.5312-1.6719-4.0156-6.125-9.4844-1.2188-1.4219-7.7656-8.1875-6.5312-6.7656-18.453-18.922z"/>
</defs>
<g transform="translate(96.615 718.7) scale(.1 -.1)">
<use xlink:href="#d"/>
<use x="63.623047" xlink:href="#f"/>
<use x="95.410156" xlink:href="#q"/>
</g>
</g>
<g clip-path="url(#a)">
<defs>
<path id="p" d="m40.578 39.312q7.0781-1.5156 11.047-6.3125 3.9844-4.7812 3.9844-11.812 0-10.781-7.4219-16.703-7.4219-5.9062-21.094-5.9062-4.5781 0-9.4375 0.90625t-10.031 2.7188v9.5156q4.0938-2.3906 8.9688-3.6094 4.8906-1.2188 10.219-1.2188 9.2656 0 14.125 3.6562t4.8594 10.641q0 6.4531-4.5156 10.078-4.5156 3.6406-12.562 3.6406h-8.5v8.1094h8.8906q7.2656 0 11.125 2.9062t3.8594 8.375q0 5.6094-3.9844 8.6094-3.9688 3.0156-11.391 3.0156-4.0625 0-8.7031-0.89062-4.6406-0.875-10.203-2.7188v8.7812q5.625 1.5625 10.531 2.3438t9.25 0.78125q11.234 0 17.766-5.1094 6.5469-5.0938 6.5469-13.781 0-6.0625-3.4688-10.234t-9.8594-5.7812z"/>
</defs>
<g transform="translate(187.1 552.86) scale(.1 -.1)">
<use xlink:href="#d"/>
<use x="63.623047" xlink:href="#f"/>
<use x="95.410156" xlink:href="#p"/>
</g>
</g>
<g clip-path="url(#a)">
<defs>
<path id="o" d="m37.797 64.312-24.906-38.922h24.906zm-2.5938 8.5938h12.406v-47.516h10.406v-8.2031h-10.406v-17.188h-9.8125v17.188h-32.906v9.5156z"/>
</defs>
<g transform="translate(300.5 883.68) scale(.1 -.1)">
<use xlink:href="#d"/>
<use x="63.623047" xlink:href="#f"/>
<use x="95.410156" xlink:href="#o"/>
</g>
</g>
<g clip-path="url(#a)">
<defs>
<path id="n" d="m10.797 72.906h38.719v-8.3125h-29.688v-17.859q2.1406 0.73438 4.2812 1.0938 2.1562 0.35938 4.3125 0.35938 12.203 0 19.328-6.6875 7.1406-6.6875 7.1406-18.109 0-11.766-7.3281-18.297-7.3281-6.5156-20.656-6.5156-4.5938 0-9.3594 0.78125-4.75 0.78125-9.8281 2.3438v9.9219q4.3906-2.3906 9.0781-3.5625t9.9062-1.1719q8.4531 0 13.375 4.4375 4.9375 4.4375 4.9375 12.062 0 7.6094-4.9375 12.047-4.9219 4.4531-13.375 4.4531-3.9531 0-7.8906-0.875-3.9219-0.875-8.0156-2.7344z"/>
</defs>
<g transform="translate(382.22 386.45) scale(.1 -.1)">
<use xlink:href="#d"/>
<use x="63.623047" xlink:href="#f"/>
<use x="95.410156" xlink:href="#n"/>
</g>
</g>
<g clip-path="url(#a)">
<defs>
<path id="ac" d="m33.016 40.375q-6.6406 0-10.531-4.5469-3.875-4.5312-3.875-12.438 0-7.8594 3.875-12.438 3.8906-4.5625 10.531-4.5625t10.516 4.5625q3.875 4.5781 3.875 12.438 0 7.9062-3.875 12.438-3.875 4.5469-10.516 4.5469zm19.578 30.922v-8.9844q-3.7188 1.75-7.5 2.6719-3.7812 0.9375-7.5 0.9375-9.7656 0-14.922-6.5938-5.1406-6.5938-5.875-19.922 2.875 4.25 7.2188 6.5156 4.3594 2.2656 9.5781 2.2656 10.984 0 17.359-6.6719 6.375-6.6562 6.375-18.125 0-11.234-6.6406-18.031-6.6406-6.7812-17.672-6.7812-12.656 0-19.344 9.6875-6.6875 9.7031-6.6875 28.109 0 17.281 8.2031 27.562t22.016 10.281q3.7188 0 7.5-0.73438t7.8906-2.1875z"/>
</defs>
<g transform="translate(1089.3 219.62) scale(.1 -.1)">
<use xlink:href="#d"/>
<use x="63.623047" xlink:href="#f"/>
<use x="95.410156" xlink:href="#ac"/>
</g>
</g>
<g clip-path="url(#a)">
<g transform="translate(870.16 883.68) scale(.1 -.1)">
<use xlink:href="#d"/>
<use x="63.623047" xlink:href="#f"/>
<use x="95.410156" xlink:href="#d"/>
<use x="159.033203" xlink:href="#d"/>
</g>
</g>
<g clip-path="url(#a)">
<g transform="translate(928.91 883.68) scale(.1 -.1)">
<use xlink:href="#d"/>
<use x="63.623047" xlink:href="#f"/>
<use x="95.410156" xlink:href="#d"/>
<use x="159.033203" xlink:href="#q"/>
</g>
</g>
<g clip-path="url(#a)">
<g transform="translate(989.76 883.68) scale(.1 -.1)">
<use xlink:href="#d"/>
<use x="63.623047" xlink:href="#f"/>
<use x="95.410156" xlink:href="#d"/>
<use x="159.033203" xlink:href="#p"/>
</g>
</g>
<g clip-path="url(#a)">
<g transform="translate(1052.7 883.68) scale(.1 -.1)">
<use xlink:href="#d"/>
<use x="63.623047" xlink:href="#f"/>
<use x="95.410156" xlink:href="#d"/>
<use x="159.033203" xlink:href="#o"/>
</g>
</g>
<g clip-path="url(#a)">
<g transform="translate(1458.8 386.45) scale(.1 -.1)">
<use xlink:href="#d"/>
<use x="63.623047" xlink:href="#f"/>
<use x="95.410156" xlink:href="#d"/>
<use x="159.033203" xlink:href="#n"/>
</g>
</g>
<g clip-path="url(#a)">
<defs>
<path id="ab" d="m31.781 34.625q-7.0312 0-11.062-3.7656-4.0156-3.7656-4.0156-10.344 0-6.5938 4.0156-10.359 4.0312-3.7656 11.062-3.7656t11.078 3.7812q4.0625 3.7969 4.0625 10.344 0 6.5781-4.0312 10.344-4.0156 3.7656-11.109 3.7656zm-9.8594 4.1875q-6.3438 1.5625-9.8906 5.9062-3.5312 4.3594-3.5312 10.609 0 8.7344 6.2188 13.812 6.2344 5.0781 17.062 5.0781 10.891 0 17.094-5.0781t6.2031-13.812q0-6.25-3.5469-10.609-3.5312-4.3438-9.8281-5.9062 7.125-1.6562 11.094-6.5 3.9844-4.8281 3.9844-11.797 0-10.609-6.4688-16.281-6.4688-5.6562-18.531-5.6562-12.047 0-18.531 5.6562-6.4688 5.6719-6.4688 16.281 0 6.9688 4 11.797 4.0156 4.8438 11.141 6.5zm-3.6094 15.578q0-5.6562 3.5312-8.8281 3.5469-3.1719 9.9375-3.1719 6.3594 0 9.9375 3.1719 3.5938 3.1719 3.5938 8.8281 0 5.6719-3.5938 8.8438-3.5781 3.1719-9.9375 3.1719-6.3906 0-9.9375-3.1719-3.5312-3.1719-3.5312-8.8438z"/>
</defs>
<g transform="translate(1254.2 883.68) scale(.1 -.1)">
<use xlink:href="#d"/>
<use x="63.623047" xlink:href="#f"/>
<use x="95.410156" xlink:href="#d"/>
<use x="159.033203" xlink:href="#ab"/>
</g>
</g>
<g clip-path="url(#a)">
<defs>
<path id="aa" d="m10.984 1.5156v8.9844q3.7188-1.7656 7.5156-2.6875 3.8125-0.92188 7.4844-0.92188 9.7656 0 14.906 6.5625 5.1562 6.5625 5.8906 19.953-2.8281-4.2031-7.1875-6.4531-4.3438-2.25-9.6094-2.25-10.938 0-17.312 6.6094-6.375 6.625-6.375 18.109 0 11.219 6.6406 18 6.6406 6.7969 17.672 6.7969 12.656 0 19.312-9.7031 6.6719-9.6875 6.6719-28.141 0-17.234-8.1875-27.516-8.1719-10.281-21.984-10.281-3.7188 0-7.5312 0.73438-3.7969 0.73438-7.9062 2.2031zm19.625 30.906q6.6406 0 10.516 4.5312 3.8906 4.5469 3.8906 12.469 0 7.8594-3.8906 12.422-3.875 4.5625-10.516 4.5625t-10.516-4.5625-3.875-12.422q0-7.9219 3.875-12.469 3.875-4.5312 10.516-4.5312z"/>
</defs>
<g transform="translate(1663.4 552.86) scale(.1 -.1)">
<use xlink:href="#d"/>
<use x="63.623047" xlink:href="#f"/>
<use x="95.410156" xlink:href="#d"/>
<use x="159.033203" xlink:href="#aa"/>
</g>
</g>
<g clip-path="url(#a)">
<defs>
<path id="ai" d="m31.781 66.406q-7.6094 0-11.453-7.5-3.8281-7.4844-3.8281-22.531 0-14.984 3.8281-22.484 3.8438-7.5 11.453-7.5 7.6719 0 11.5 7.5 3.8438 7.5 3.8438 22.484 0 15.047-3.8438 22.531-3.8281 7.5-11.5 7.5zm0 7.8125q12.266 0 18.734-9.7031 6.4688-9.6875 6.4688-28.141 0-18.406-6.4688-28.109-6.4688-9.6875-18.734-9.6875-12.25 0-18.719 9.6875-6.4688 9.7031-6.4688 28.109 0 18.453 6.4688 28.141 6.4688 9.7031 18.719 9.7031z"/>
</defs>
<g transform="translate(1325.5 883.68) scale(.1 -.1)">
<use xlink:href="#d"/>
<use x="63.623047" xlink:href="#f"/>
<use x="95.410156" xlink:href="#q"/>
<use x="159.033203" xlink:href="#ai"/>
</g>
</g>
<g clip-path="url(#a)">
<g transform="translate(1398.9 883.68) scale(.1 -.1)">
<use xlink:href="#d"/>
<use x="63.623047" xlink:href="#f"/>
<use x="95.410156" xlink:href="#q"/>
<use x="159.033203" xlink:href="#d"/>
</g>
</g>
<g clip-path="url(#a)">
<g transform="translate(1552.8 718.7) scale(.1 -.1)">
<use xlink:href="#d"/>
<use x="63.623047" xlink:href="#f"/>
<use x="95.410156" xlink:href="#q"/>
<use x="159.033203" xlink:href="#q"/>
</g>
</g>
<g clip-path="url(#a)">
<g transform="translate(1713.7 883.68) scale(.1 -.1)">
<use xlink:href="#d"/>
<use x="63.623047" xlink:href="#f"/>
<use x="95.410156" xlink:href="#q"/>
<use x="159.033203" xlink:href="#p"/>
</g>
</g>
<g clip-path="url(#a)">
<g transform="translate(1797.6 883.68) scale(.1 -.1)">
<use xlink:href="#d"/>
<use x="63.623047" xlink:href="#f"/>
<use x="95.410156" xlink:href="#q"/>
<use x="159.033203" xlink:href="#o"/>
</g>
</g>
<g clip-path="url(#a)">
<g transform="translate(1474.5 883.68) scale(.1 -.1)">
<use xlink:href="#d"/>
<use x="63.623047" xlink:href="#f"/>
<use x="95.410156" xlink:href="#q"/>
<use x="159.033203" xlink:href="#n"/>
</g>
</g>
<g clip-path="url(#a)">
<g transform="translate(1552.1 883.68) scale(.1 -.1)">
<use xlink:href="#d"/>
<use x="63.623047" xlink:href="#f"/>
<use x="95.410156" xlink:href="#q"/>
<use x="159.033203" xlink:href="#ac"/>
</g>
</g>
<g clip-path="url(#a)">
<defs>
<path id="ah" d="m8.2031 72.906h46.875v-4.2031l-26.469-68.703h-10.297l24.906 64.594h-35.016z"/>
</defs>
<g transform="translate(1631.8 883.68) scale(.1 -.1)">
<use xlink:href="#d"/>
<use x="63.623047" xlink:href="#f"/>
<use x="95.410156" xlink:href="#q"/>
<use x="159.033203" xlink:href="#ah"/>
</g>
</g>
<g clip-path="url(#a)">
<g transform="translate(328.79 883.68) scale(.1 -.1)">
<use xlink:href="#d"/>
<use x="63.623047" xlink:href="#f"/>
<use x="95.410156" xlink:href="#q"/>
<use x="159.033203" xlink:href="#ab"/>
</g>
</g>
<g clip-path="url(#a)">
<g transform="translate(362.37 883.68) scale(.1 -.1)">
<use xlink:href="#d"/>
<use x="63.623047" xlink:href="#f"/>
<use x="95.410156" xlink:href="#q"/>
<use x="159.033203" xlink:href="#aa"/>
</g>
</g>
<g clip-path="url(#a)">
<g transform="translate(398.04 883.68) scale(.1 -.1)">
<use xlink:href="#d"/>
<use x="63.623047" xlink:href="#f"/>
<use x="95.410156" xlink:href="#p"/>
<use x="159.033203" xlink:href="#ai"/>
</g>
</g>
<g clip-path="url(#a)">
<g transform="translate(613.47 552.86) scale(.1 -.1)">
<use xlink:href="#d"/>
<use x="63.623047" xlink:href="#f"/>
<use x="95.410156" xlink:href="#p"/>
<use x="159.033203" xlink:href="#d"/>
</g>
</g>
<g clip-path="url(#a)">
<g transform="translate(475.68 883.68) scale(.1 -.1)">
<use xlink:href="#d"/>
<use x="63.623047" xlink:href="#f"/>
<use x="95.410156" xlink:href="#p"/>
<use x="159.033203" xlink:href="#p"/>
</g>
</g>
<g clip-path="url(#a)">
<g transform="translate(517.64 883.68) scale(.1 -.1)">
<use xlink:href="#d"/>
<use x="63.623047" xlink:href="#f"/>
<use x="95.410156" xlink:href="#p"/>
<use x="159.033203" xlink:href="#o"/>
</g>
</g>
<g clip-path="url(#a)">
<g transform="translate(608.57 718.7) scale(.1 -.1)">
<use xlink:href="#d"/>
<use x="63.623047" xlink:href="#f"/>
<use x="95.410156" xlink:href="#p"/>
<use x="159.033203" xlink:href="#n"/>
</g>
</g>
<g clip-path="url(#a)">
<g transform="translate(706.49 883.68) scale(.1 -.1)">
<use xlink:href="#d"/>
<use x="63.623047" xlink:href="#f"/>
<use x="95.410156" xlink:href="#p"/>
<use x="159.033203" xlink:href="#ac"/>
</g>
</g>
<g clip-path="url(#a)">
<g transform="translate(758.95 883.68) scale(.1 -.1)">
<use xlink:href="#d"/>
<use x="63.623047" xlink:href="#f"/>
<use x="95.410156" xlink:href="#p"/>
<use x="159.033203" xlink:href="#ah"/>
</g>
</g>
<g clip-path="url(#a)">
<g transform="translate(561.71 883.68) scale(.1 -.1)">
<use xlink:href="#d"/>
<use x="63.623047" xlink:href="#f"/>
<use x="95.410156" xlink:href="#p"/>
<use x="159.033203" xlink:href="#ab"/>
</g>
</g>
<g clip-path="url(#a)">
<g transform="translate(607.87 883.68) scale(.1 -.1)">
<use xlink:href="#d"/>
<use x="63.623047" xlink:href="#f"/>
<use x="95.410156" xlink:href="#p"/>
<use x="159.033203" xlink:href="#aa"/>
</g>
</g>
<g clip-path="url(#a)">
<g transform="translate(656.13 883.68) scale(.1 -.1)">
<use xlink:href="#d"/>
<use x="63.623047" xlink:href="#f"/>
<use x="95.410156" xlink:href="#o"/>
<use x="159.033203" xlink:href="#ai"/>
</g>
</g>
<g clip-path="url(#a)">
<g transform="translate(135.75 883.68) scale(.1 -.1)">
<use xlink:href="#d"/>
<use x="63.623047" xlink:href="#f"/>
<use x="95.410156" xlink:href="#o"/>
<use x="159.033203" xlink:href="#d"/>
</g>
</g>
<g clip-path="url(#a)">
<g transform="translate(152.54 883.68) scale(.1 -.1)">
<use xlink:href="#d"/>
<use x="63.623047" xlink:href="#f"/>
<use x="95.410156" xlink:href="#o"/>
<use x="159.033203" xlink:href="#q"/>
</g>
</g>
<g clip-path="url(#a)">
<g transform="translate(193.1 718.7) scale(.1 -.1)">
<use xlink:href="#d"/>
<use x="63.623047" xlink:href="#f"/>
<use x="95.410156" xlink:href="#o"/>
<use x="159.033203" xlink:href="#p"/>
</g>
</g>
<g clip-path="url(#a)">
<g transform="translate(254.3 718.7) scale(.1 -.1)">
<use xlink:href="#d"/>
<use x="63.623047" xlink:href="#f"/>
<use x="95.410156" xlink:href="#o"/>
<use x="159.033203" xlink:href="#o"/>
</g>
</g>
<g clip-path="url(#a)">
<g transform="translate(240.67 883.68) scale(.1 -.1)">
<use xlink:href="#d"/>
<use x="63.623047" xlink:href="#f"/>
<use x="95.410156" xlink:href="#o"/>
<use x="159.033203" xlink:href="#n"/>
</g>
</g>
<g clip-path="url(#a)">
<g transform="translate(267.94 883.68) scale(.1 -.1)">
<use xlink:href="#d"/>
<use x="63.623047" xlink:href="#f"/>
<use x="95.410156" xlink:href="#o"/>
<use x="159.033203" xlink:href="#ac"/>
</g>
</g>
<g clip-path="url(#a)">
<g transform="translate(171.42 883.68) scale(.1 -.1)">
<use xlink:href="#d"/>
<use x="63.623047" xlink:href="#f"/>
<use x="95.410156" xlink:href="#o"/>
<use x="159.033203" xlink:href="#ah"/>
</g>
</g>
<g clip-path="url(#a)">
<g transform="translate(192.4 883.68) scale(.1 -.1)">
<use xlink:href="#d"/>
<use x="63.623047" xlink:href="#f"/>
<use x="95.410156" xlink:href="#o"/>
<use x="159.033203" xlink:href="#ab"/>
</g>
</g>
<g clip-path="url(#a)">
<g transform="translate(215.49 883.68) scale(.1 -.1)">
<use xlink:href="#d"/>
<use x="63.623047" xlink:href="#f"/>
<use x="95.410156" xlink:href="#o"/>
<use x="159.033203" xlink:href="#aa"/>
</g>
</g>
<g clip-path="url(#a)">
<g transform="translate(83.291 883.68) scale(.1 -.1)">
<use xlink:href="#d"/>
<use x="63.623047" xlink:href="#f"/>
<use x="95.410156" xlink:href="#n"/>
<use x="159.033203" xlink:href="#ai"/>
</g>
</g>
<g clip-path="url(#a)">
<g transform="translate(99.029 883.68) scale(.1 -.1)">
<use xlink:href="#d"/>
<use x="63.623047" xlink:href="#f"/>
<use x="95.410156" xlink:href="#n"/>
<use x="159.033203" xlink:href="#d"/>
</g>
</g>
<g clip-path="url(#a)">
<g transform="translate(97.98 883.68) scale(.1 -.1)">
<use xlink:href="#d"/>
<use x="63.623047" xlink:href="#f"/>
<use x="95.410156" xlink:href="#n"/>
<use x="159.033203" xlink:href="#q"/>
</g>
</g>
<g clip-path="url(#a)">
<g transform="translate(121.06 883.68) scale(.1 -.1)">
<use xlink:href="#d"/>
<use x="63.623047" xlink:href="#f"/>
<use x="95.410156" xlink:href="#n"/>
<use x="159.033203" xlink:href="#p"/>
</g>
</g>
<g clip-path="url(#a)">
<g transform="translate(435.81 883.68) scale(.1 -.1)">
<use xlink:href="#d"/>
<use x="63.623047" xlink:href="#f"/>
<use x="95.410156" xlink:href="#n"/>
<use x="159.033203" xlink:href="#o"/>
</g>
</g>
<g clip-path="url(#a)">
<g transform="translate(813.51 883.68) scale(.1 -.1)">
<use xlink:href="#d"/>
<use x="63.623047" xlink:href="#f"/>
<use x="95.410156" xlink:href="#n"/>
<use x="159.033203" xlink:href="#n"/>
</g>
</g>
<g clip-path="url(#a)">
<g transform="translate(1117.8 883.68) scale(.1 -.1)">
<use xlink:href="#d"/>
<use x="63.623047" xlink:href="#f"/>
<use x="95.410156" xlink:href="#n"/>
<use x="159.033203" xlink:href="#ac"/>
</g>
</g>
<g clip-path="url(#a)">
<g transform="translate(1184.9 883.68) scale(.1 -.1)">
<use xlink:href="#d"/>
<use x="63.623047" xlink:href="#f"/>
<use x="95.410156" xlink:href="#n"/>
<use x="159.033203" xlink:href="#ah"/>
</g>
</g>
<g clip-path="url(#a)">
<g transform="translate(1883.6 883.68) scale(.1 -.1)">
<use xlink:href="#d"/>
<use x="63.623047" xlink:href="#f"/>
<use x="95.410156" xlink:href="#n"/>
<use x="159.033203" xlink:href="#ab"/>
</g>
</g>
<g clip-path="url(#a)">
<g transform="translate(1971.8 883.68) scale(.1 -.1)">
<use xlink:href="#d"/>
<use x="63.623047" xlink:href="#f"/>
<use x="95.410156" xlink:href="#n"/>
<use x="159.033203" xlink:href="#aa"/>
</g>
</g>
<defs>
<clipPath id="a">
<rect width="2077.3" height="1093.3"/>
</clipPath>
</defs>
</svg>
