<?xml version="1.0" encoding="UTF-8"?>
<!DOCTYPE svg  PUBLIC '-//W3C//DTD SVG 1.1//EN'  'http://www.w3.org/Graphics/SVG/1.1/DTD/svg11.dtd'>
<svg width="1773.3pt" height="933.33pt" version="1.1" viewBox="0 0 1773.3 933.33" xmlns="http://www.w3.org/2000/svg" xmlns:xlink="http://www.w3.org/1999/xlink">
<defs>
<style type="text/css">*{stroke-linecap:butt;stroke-linejoin:round;}</style>
</defs>
<path d="m0 933.33h1773.3v-933.33h-1773.3z" fill="#fff"/>
<g fill="none" stroke="#000">
<path d="m306.12 42.424-221.86 609.08" clip-path="url(#a)"/>
<path d="m306.12 42.424-208.49 729.61" clip-path="url(#a)"/>
<path d="m306.12 42.424-159.56 487.92" clip-path="url(#a)"/>
<path d="m306.12 42.424 688.98 122.33" clip-path="url(#a)"/>
<path d="m306.12 42.424-99.071 729.61" clip-path="url(#a)"/>
<path d="m84.253 651.5-3.6473 120.53" clip-path="url(#a)"/>
<path d="m84.253 651.5 3.6473 120.53" clip-path="url(#a)"/>
<path d="m97.627 772.03v118.88" clip-path="url(#a)"/>
<path d="m146.56 530.34-36.777 241.69" clip-path="url(#a)"/>
<path d="m146.56 530.34-13.677 121.16" clip-path="url(#a)"/>
<path d="m146.56 530.34 14.285 241.69" clip-path="url(#a)"/>
<path d="m146.56 530.34 36.169 241.69" clip-path="url(#a)"/>
<path d="m995.1 164.76-761.3 607.28" clip-path="url(#a)"/>
<path d="m995.1 164.76-732.13 607.28" clip-path="url(#a)"/>
<path d="m995.1 164.76-546.31 122.13" clip-path="url(#a)"/>
<path d="m995.1 164.76 209.7 607.28" clip-path="url(#a)"/>
<path d="m995.1 164.76 456.9 365.58" clip-path="url(#a)"/>
<path d="m995.1 164.76 610.09 607.28" clip-path="url(#a)"/>
<path d="m995.1 164.76 65.424 607.28" clip-path="url(#a)"/>
<path d="m995.1 164.76 697.63 607.28" clip-path="url(#a)"/>
<path d="m233.79 772.03v118.88" clip-path="url(#a)"/>
<path d="m262.97 772.03v118.88" clip-path="url(#a)"/>
<path d="m448.78 286.88-154.2 485.15" clip-path="url(#a)"/>
<path d="m448.78 286.88-120.16 485.15" clip-path="url(#a)"/>
<path d="m448.78 286.88-83.686 485.15" clip-path="url(#a)"/>
<path d="m448.78 286.88-2.6342 364.62" clip-path="url(#a)"/>
<path d="m448.78 286.88 274.16 121.88" clip-path="url(#a)"/>
<path d="m448.78 286.88 86.523 485.15" clip-path="url(#a)"/>
<path d="m1204.8 772.03-73.757 118.88" clip-path="url(#a)"/>
<path d="m1204.8 772.03-0.81052 118.88" clip-path="url(#a)"/>
<path d="m1204.8 772.03 74.568 118.88" clip-path="url(#a)"/>
<path d="m1452 530.34-94.831 241.69" clip-path="url(#a)"/>
<path d="m1452 530.34 26.747 121.16" clip-path="url(#a)"/>
<path d="m1452 530.34 68.084 241.69" clip-path="url(#a)"/>
<path d="m1605.2 772.03v118.88" clip-path="url(#a)"/>
<path d="m1357.2 772.03v118.88" clip-path="url(#a)"/>
<path d="m1478.8 651.5 41.336 120.53" clip-path="url(#a)" stroke-dasharray="3.7,1.6"/>
<path d="m1478.8 651.5-41.336 120.53" clip-path="url(#a)"/>
<path d="m1520.1 772.03v118.88" clip-path="url(#a)"/>
<path d="m1437.4 772.03v118.88" clip-path="url(#a)"/>
<path d="m294.58 772.03v118.88" clip-path="url(#a)"/>
<path d="m328.62 772.03v118.88" clip-path="url(#a)"/>
<path d="m365.1 772.03v118.88" clip-path="url(#a)"/>
<path d="m446.15 651.5-42.147 120.53" clip-path="url(#a)"/>
<path d="m446.15 651.5-0.81052 120.53" clip-path="url(#a)"/>
<path d="m446.15 651.5 42.957 120.53" clip-path="url(#a)"/>
<path d="m722.94 408.77-357.84 363.27" clip-path="url(#a)" stroke-dasharray="3.7,1.6"/>
<path d="m722.94 408.77-139 363.27" clip-path="url(#a)"/>
<path d="m722.94 408.77 23.505 121.57" clip-path="url(#a)"/>
<path d="m722.94 408.77 269.5 363.27" clip-path="url(#a)"/>
<path d="m722.94 408.77 203.85 363.27" clip-path="url(#a)"/>
<path d="m583.94 772.03v118.88" clip-path="url(#a)"/>
<path d="m746.45 530.34-84.699 121.16" clip-path="url(#a)"/>
<path d="m746.45 530.34 86.725 241.69" clip-path="url(#a)"/>
<path d="m746.45 530.34-2.0263 241.69" clip-path="url(#a)"/>
<path d="m992.44 772.03v118.88" clip-path="url(#a)"/>
<path d="m661.75 651.5-26.747 120.53" clip-path="url(#a)"/>
<path d="m661.75 651.5 26.747 120.53" clip-path="url(#a)"/>
<path d="m833.17 772.03-30.394 118.88" clip-path="url(#a)"/>
<path d="m833.17 772.03 30.394 118.88" clip-path="url(#a)"/>
<path d="m635 772.03v118.88" clip-path="url(#a)"/>
<path d="m688.49 772.03v118.88" clip-path="url(#a)"/>
<path d="m404 772.03v118.88" clip-path="url(#a)"/>
<path d="m445.34 772.03v118.88" clip-path="url(#a)"/>
<path d="m489.11 772.03v118.88" clip-path="url(#a)"/>
<path d="m109.78 772.03v118.88" clip-path="url(#a)"/>
<path d="m132.88 651.5-8.5104 120.53" clip-path="url(#a)"/>
<path d="m132.88 651.5 8.5104 120.53" clip-path="url(#a)"/>
<path d="m160.85 772.03v118.88" clip-path="url(#a)"/>
<path d="m182.73 772.03v118.88" clip-path="url(#a)"/>
<path d="m124.37 772.03v118.88" clip-path="url(#a)"/>
<path d="m141.39 772.03v118.88" clip-path="url(#a)"/>
<path d="m80.606 772.03v118.88" clip-path="url(#a)"/>
<path d="m87.901 772.03v118.88" clip-path="url(#a)"/>
<path d="m207.05 772.03v118.88" clip-path="url(#a)"/>
<path d="m535.31 772.03v118.88" clip-path="url(#a)"/>
<path d="m744.42 772.03v118.88" clip-path="url(#a)"/>
<path d="m926.79 772.03v118.88" clip-path="url(#a)"/>
<path d="m1060.5 772.03v118.88" clip-path="url(#a)"/>
<path d="m1692.7 772.03v118.88" clip-path="url(#a)"/>
</g>
<path d="m200.05 351.94 2.0591-5.6529q0.82143-2.255-1.4336-3.0765l-7.2749-2.65q-2.2551-0.82143-3.0765 1.4336l-2.0591 5.6529q-0.82143 2.255 1.4336 3.0765l7.2749 2.65q2.2551 0.82143 3.0765-1.4336z" clip-path="url(#a)" fill="#fff" stroke="#fff"/>
<g clip-path="url(#a)">
<defs>
<path id="ai" d="m9.8125 72.906h9.8594v-29.891h35.844v29.891h9.8594v-72.906h-9.8594v34.719h-35.844v-34.719h-9.8594z"/>
</defs>
<g transform="translate(196.23 350.55) rotate(-69.985) scale(.08 -.08)">
<use xlink:href="#ai"/>
</g>
</g>
<path d="m207.29 411.09 1.2247-4.2859q0.65942-2.3076-1.6482-2.9671l-7.4445-2.1273q-2.3076-0.65942-2.9671 1.6482l-1.2247 4.2859q-0.65942 2.3076 1.6482 2.9671l7.4445 2.1273q2.3076 0.65942 2.9671-1.6482z" clip-path="url(#a)" fill="#fff" stroke="#fff"/>
<g clip-path="url(#a)">
<defs>
<path id="as" d="m9.8125 72.906h9.8594v-64.609h35.5v-8.2969h-45.359z"/>
</defs>
<g transform="translate(203.38 409.98) rotate(-74.052) scale(.08 -.08)">
<use xlink:href="#as"/>
</g>
</g>
<path d="m231.37 291.19 1.87-5.7183q0.74596-2.2811-1.5352-3.0271l-7.359-2.4065q-2.2811-0.74596-3.0271 1.5352l-1.87 5.7183q-0.74596 2.2811 1.5352 3.0271l7.359 2.4065q2.2811 0.74596 3.0271-1.5352z" clip-path="url(#a)" fill="#fff" stroke="#fff"/>
<g clip-path="url(#a)">
<g transform="translate(227.5 289.93) rotate(-71.892) scale(.08 -.08)">
<use xlink:href="#ai"/>
</g>
</g>
<path d="m646.55 109.24 5.9236 1.0518q2.363 0.41957 2.7826-1.9435l1.3536-7.6233q0.41957-2.363-1.9435-2.7826l-5.9236-1.0518q-2.363-0.41957-2.7826 1.9435l-1.3536 7.6233q-0.41957 2.363 1.9435 2.7826z" clip-path="url(#a)" fill="#fff" stroke="#fff"/>
<g clip-path="url(#a)">
<g transform="translate(647.26 105.24) rotate(10.068) scale(.08 -.08)">
<use xlink:href="#ai"/>
</g>
</g>
<path d="m262.4 410.97 0.7878-5.8018q0.32292-2.3782-2.0553-2.7011l-7.6721-1.0418q-2.3782-0.32292-2.7011 2.0553l-0.7878 5.8018q-0.32292 2.3782 2.0553 2.7011l7.6721 1.0418q2.3782 0.32292 2.7011-2.0553z" clip-path="url(#a)" fill="#fff" stroke="#fff"/>
<g clip-path="url(#a)">
<defs>
<path id="t" d="m8.6875 72.906h9.9219v-44.297q0-11.719 4.2344-16.875 4.25-5.1406 13.781-5.1406 9.4688 0 13.719 5.1406 4.25 5.1562 4.25 16.875v44.297h9.9062v-45.516q0-14.25-7.0625-21.531-7.0469-7.2812-20.812-7.2812-13.828 0-20.891 7.2812-7.0469 7.2812-7.0469 21.531z"/>
</defs>
<g transform="translate(258.38 410.43) rotate(-82.267) scale(.08 -.08)">
<use xlink:href="#t"/>
</g>
</g>
<path d="m88.622 714.48 0.1529-5.0527q0.072593-2.3989-2.3263-2.4715l-7.739-0.23419q-2.3989-0.072593-2.4715 2.3263l-0.1529 5.0527q-0.072592 2.3989 2.3263 2.4715l7.739 0.23419q2.3989 0.072592 2.4715-2.3263z" clip-path="url(#a)" fill="#fff" stroke="#fff"/>
<g clip-path="url(#a)">
<defs>
<path id="y" d="m9.8125 72.906h46.094v-8.3125h-36.234v-21.578h34.719v-8.2969h-34.719v-26.422h37.109v-8.2969h-46.969z"/>
</defs>
<g transform="translate(84.56 714.36) rotate(-88.267) scale(.08 -.08)">
<use xlink:href="#y"/>
</g>
</g>
<path d="m79.724 709.17 0.16897 5.5837q0.072593 2.3989 2.4715 2.3263l7.739-0.23419q2.3989-0.072593 2.3263-2.4715l-0.16897-5.5837q-0.072592-2.3989-2.4715-2.3263l-7.739 0.23419q-2.3989 0.072593-2.3263 2.4715z" clip-path="url(#a)" fill="#fff" stroke="#fff"/>
<g clip-path="url(#a)">
<defs>
<path id="u" d="m64.406 67.281v-10.391q-4.9844 4.6406-10.625 6.9219-5.6406 2.2969-11.984 2.2969-12.5 0-19.141-7.6406t-6.6406-22.094q0-14.406 6.6406-22.047t19.141-7.6406q6.3438 0 11.984 2.2969t10.625 6.9375v-10.312q-5.1719-3.5156-10.969-5.2812-5.7812-1.75-12.219-1.75-16.562 0-26.094 10.125-9.5156 10.141-9.5156 27.672 0 17.578 9.5156 27.703 9.5312 10.141 26.094 10.141 6.5312 0 12.312-1.7344 5.7969-1.7344 10.875-5.2031z"/>
</defs>
<g transform="translate(83.786 709.04) rotate(88.267) scale(.08 -.08)">
<use xlink:href="#u"/>
</g>
</g>
<path d="m91.356 814.57v33.808q0 2.4 2.4 2.4h7.7425q2.4 0 2.4-2.4v-33.808q0-2.4-2.4-2.4h-7.7425q-2.4 0-2.4 2.4z" clip-path="url(#a)" fill="#fff" stroke="#fff"/>
<g clip-path="url(#a)">
<defs>
<path id="k" d="m-0.29688 72.906h61.672v-8.3125h-25.875v-64.594h-9.9062v64.594h-25.891z"/>
<path id="d" d="m56.203 29.594v-4.3906h-41.312q0.59375-9.2812 5.5938-14.141t13.938-4.8594q5.1719 0 10.031 1.2656t9.6562 3.8125v-8.5q-4.8438-2.0469-9.9219-3.125t-10.297-1.0781q-13.094 0-20.734 7.6094-7.6406 7.625-7.6406 20.625 0 13.422 7.25 21.297 7.25 7.8906 19.562 7.8906 11.031 0 17.453-7.1094 6.4219-7.0938 6.4219-19.297zm-8.9844 2.6406q-0.09375 7.3594-4.125 11.75-4.0312 4.4062-10.672 4.4062-7.5156 0-12.031-4.25t-5.2031-11.969z"/>
<path id="i" d="m41.109 46.297q-1.5156 0.875-3.2969 1.2812-1.7812 0.42188-3.9219 0.42188-7.625 0-11.703-4.9531t-4.0781-14.234v-28.812h-9.0312v54.688h9.0312v-8.5q2.8438 4.9844 7.375 7.3906 4.5469 2.4219 11.047 2.4219 0.92188 0 2.0469-0.125 1.125-0.10938 2.4844-0.35938z"/>
<path id="l" d="m52 44.188q3.375 6.0625 8.0625 8.9375t11.031 2.875q8.5469 0 13.188-5.9844 4.6406-5.9688 4.6406-17v-33.016h-9.0312v32.719q0 7.8594-2.7969 11.656-2.7812 3.8125-8.4844 3.8125-6.9844 0-11.047-4.6406-4.0469-4.625-4.0469-12.641v-30.906h-9.0312v32.719q0 7.9062-2.7812 11.688t-8.5938 3.7812q-6.8906 0-10.953-4.6562-4.0469-4.6562-4.0469-12.625v-30.906h-9.0312v54.688h9.0312v-8.5q3.0781 5.0312 7.375 7.4219t10.203 2.3906q5.9688 0 10.141-3.0312 4.1719-3.0156 6.1719-8.7812z"/>
<path id="h" d="m9.4219 54.688h8.9844v-54.688h-8.9844zm0 21.297h8.9844v-11.391h-8.9844z"/>
<path id="g" d="m54.891 33.016v-33.016h-8.9844v32.719q0 7.7656-3.0312 11.609-3.0312 3.8594-9.0781 3.8594-7.2812 0-11.484-4.6406-4.2031-4.625-4.2031-12.641v-30.906h-9.0312v54.688h9.0312v-8.5q3.2344 4.9375 7.5938 7.375 4.375 2.4375 10.094 2.4375 9.4219 0 14.25-5.8281 4.8438-5.8281 4.8438-17.156z"/>
<path id="f" d="m34.281 27.484q-10.891 0-15.094-2.4844t-4.2031-8.5q0-4.7812 3.1562-7.5938 3.1562-2.7969 8.5625-2.7969 7.4844 0 12 5.2969t4.5156 14.078v2zm17.922 3.7188v-31.203h-8.9844v8.2969q-3.0781-4.9688-7.6719-7.3438t-11.234-2.375q-8.3906 0-13.359 4.7188-4.9531 4.7188-4.9531 12.625 0 9.2188 6.1719 13.906 6.1875 4.6875 18.438 4.6875h12.609v0.89062q0 6.2031-4.0781 9.5938t-11.453 3.3906q-4.6875 0-9.1406-1.125-4.4375-1.125-8.5312-3.375v8.3125q4.9219 1.9062 9.5625 2.8438 4.6406 0.95312 9.0312 0.95312 11.875 0 17.734-6.1562 5.8594-6.1406 5.8594-18.641z"/>
<path id="j" d="m9.4219 75.984h8.9844v-75.984h-8.9844z"/>
</defs>
<g transform="translate(95.419 814.57) rotate(90) scale(.08 -.08)">
<use xlink:href="#k"/>
<use x="44.083984" xlink:href="#d"/>
<use x="105.607422" xlink:href="#i"/>
<use x="144.970703" xlink:href="#l"/>
<use x="242.382812" xlink:href="#h"/>
<use x="270.166016" xlink:href="#g"/>
<use x="333.544922" xlink:href="#f"/>
<use x="394.824219" xlink:href="#j"/>
</g>
</g>
<path d="m133.96 654.84 0.82325-5.4102q0.36104-2.3727-2.0116-2.7337l-7.6544-1.1647q-2.3727-0.36104-2.7337 2.0116l-0.82325 5.4102q-0.36104 2.3727 2.0116 2.7337l7.6544 1.1647q2.3727 0.36104 2.7337-2.0116z" clip-path="url(#a)" fill="#fff" stroke="#fff"/>
<g clip-path="url(#a)">
<defs>
<path id="r" d="m34.188 63.188-13.391-36.281h26.812zm-5.5781 9.7188h11.188l27.781-72.906h-10.25l-6.6406 18.703h-32.859l-6.6406-18.703h-10.406z"/>
</defs>
<g transform="translate(129.94 654.22) rotate(-81.348) scale(.08 -.08)">
<use xlink:href="#r"/>
</g>
</g>
<path d="m145.68 594.05 0.54811-4.8554q0.26922-2.3849-2.1156-2.6541l-7.6936-0.8685q-2.3849-0.26922-2.6541 2.1156l-0.54811 4.8554q-0.26922 2.3849 2.1156 2.6541l7.6936 0.8685q2.3849 0.26922 2.6541-2.1156z" clip-path="url(#a)" fill="#fff" stroke="#fff"/>
<g clip-path="url(#a)">
<g transform="translate(141.64 593.6) rotate(-83.559) scale(.08 -.08)">
<use xlink:href="#k"/>
</g>
</g>
<path d="m147.29 649.02 0.29966 5.0699q0.14161 2.3958 2.5374 2.2542l7.729-0.45683q2.3958-0.14161 2.2542-2.5374l-0.29966-5.0699q-0.14161-2.3958-2.5374-2.2542l-7.729 0.45683q-2.3958 0.14161-2.2542 2.5374z" clip-path="url(#a)" fill="#fff" stroke="#fff"/>
<g clip-path="url(#a)">
<defs>
<path id="ag" d="m53.516 70.516v-9.625q-5.6094 2.6875-10.594 4-4.9844 1.3281-9.625 1.3281-8.0469 0-12.422-3.125t-4.375-8.8906q0-4.8438 2.9062-7.3125 2.9062-2.4531 11.016-3.9688l5.9531-1.2188q11.031-2.1094 16.281-7.4062t5.25-14.172q0-10.609-7.1094-16.078-7.0938-5.4688-20.812-5.4688-5.1719 0-11.016 1.1719-5.8281 1.1719-12.078 3.4688v10.156q6-3.3594 11.766-5.0781 5.7656-1.7031 11.328-1.7031 8.4375 0 13.031 3.3125 4.5938 3.3281 4.5938 9.4844 0 5.3594-3.2969 8.3906t-10.812 4.5469l-6.0156 1.1719q-11.031 2.1875-15.969 6.875-4.9219 4.6875-4.9219 13.047 0 9.6719 6.8125 15.234t18.766 5.5625q5.1406 0 10.453-0.9375 5.3281-0.92188 10.891-2.7656z"/>
</defs>
<g transform="translate(151.35 648.78) rotate(86.617) scale(.08 -.08)">
<use xlink:href="#ag"/>
</g>
</g>
<path d="m158.1 649.84 0.681 4.5506q0.35521 2.3736 2.7288 2.0184l7.6572-1.1459q2.3736-0.35521 2.0184-2.7288l-0.681-4.5506q-0.35521-2.3736-2.7288-2.0184l-7.6572 1.1459q-2.3736 0.35521-2.0184 2.7288z" clip-path="url(#a)" fill="#fff" stroke="#fff"/>
<g clip-path="url(#a)">
<defs>
<path id="x" d="m9.8125 72.906h41.891v-8.3125h-32.031v-21.484h28.906v-8.2969h-28.906v-34.812h-9.8594z"/>
</defs>
<g transform="translate(162.12 649.24) rotate(81.489) scale(.08 -.08)">
<use xlink:href="#x"/>
</g>
</g>
<path d="m616.56 474.73 3.597-2.8693q1.8762-1.4966 0.3796-3.3728l-4.8281-6.0527q-1.4966-1.8762-3.3728-0.3796l-3.597 2.8693q-1.8762 1.4966-0.3796 3.3728l4.8281 6.0527q1.4966 1.8762 3.3728 0.3796z" clip-path="url(#a)" fill="#fff" stroke="#fff"/>
<g clip-path="url(#a)">
<g transform="translate(614.02 471.56) rotate(-38.579) scale(.08 -.08)">
<use xlink:href="#x"/>
</g>
</g>
<path d="m630.93 474.97 4.2121-3.4938q1.8472-1.5322 0.31501-3.3795l-4.943-5.9593q-1.5322-1.8472-3.3795-0.31501l-4.2121 3.4938q-1.8472 1.5322-0.31501 3.3795l4.943 5.9593q1.5322 1.8472 3.3795 0.31501z" clip-path="url(#a)" fill="#fff" stroke="#fff"/>
<g clip-path="url(#a)">
<g transform="translate(628.34 471.84) rotate(-39.675) scale(.08 -.08)">
<use xlink:href="#r"/>
</g>
</g>
<path d="m720.64 232.54 5.3407-1.1939q2.3422-0.52359 1.8186-2.8658l-1.6891-7.556q-0.52359-2.3422-2.8658-1.8186l-5.3407 1.1939q-2.3422 0.52359-1.8186 2.8658l1.6891 7.556q0.52359 2.3422 2.8658 1.8186z" clip-path="url(#a)" fill="#fff" stroke="#fff"/>
<g clip-path="url(#a)">
<g transform="translate(719.75 228.57) rotate(-12.601) scale(.08 -.08)">
<use xlink:href="#r"/>
</g>
</g>
<path d="m1093 467.53 2.0106 5.8226q0.78335 2.2686 3.0519 1.4852l7.3185-2.5271q2.2686-0.78335 1.4852-3.0519l-2.0106-5.8226q-0.78335-2.2686-3.0519-1.4852l-7.3185 2.5271q-2.2686 0.78335-1.4852 3.0519z" clip-path="url(#a)" fill="#fff" stroke="#fff"/>
<g clip-path="url(#a)">
<defs>
<path id="ax" d="m19.672 64.797v-56.688h11.922q15.094 0 22.094 6.8281 7 6.8438 7 21.594 0 14.641-7 21.453t-22.094 6.8125zm-9.8594 8.1094h20.266q21.188 0 31.094-8.8125 9.9219-8.8125 9.9219-27.562 0-18.859-9.9688-27.703-9.9531-8.8281-31.047-8.8281h-20.266z"/>
</defs>
<g transform="translate(1096.9 466.2) rotate(70.95) scale(.08 -.08)">
<use xlink:href="#ax"/>
</g>
</g>
<path d="m1217.5 350.74 4.273 3.419q1.874 1.4994 3.3734-0.37454l4.8372-6.0455q1.4994-1.874-0.37454-3.3734l-4.273-3.419q-1.874-1.4994-3.3734 0.37454l-4.8372 6.0455q-1.4994 1.874 0.37454 3.3734z" clip-path="url(#a)" fill="#fff" stroke="#fff"/>
<g clip-path="url(#a)">
<g transform="translate(1220 347.56) rotate(38.664) scale(.08 -.08)">
<use xlink:href="#r"/>
</g>
</g>
<path d="m1294 471.14 3.4188 3.403q1.701 1.6931 3.3941-0.007852l5.4621-5.4874q1.6931-1.701-0.007852-3.3941l-3.4188-3.403q-1.701-1.6931-3.3941 0.007851l-5.4621 5.4874q-1.6931 1.701 0.007852 3.3941z" clip-path="url(#a)" fill="#fff" stroke="#fff"/>
<g clip-path="url(#a)">
<defs>
<path id="aq" d="m19.672 64.797v-27.391h12.406q6.8906 0 10.641 3.5625 3.7656 3.5625 3.7656 10.156 0 6.5469-3.7656 10.109-3.75 3.5625-10.641 3.5625zm-9.8594 8.1094h22.266q12.266 0 18.531-5.5469 6.2812-5.5469 6.2812-16.234 0-10.797-6.2812-16.312-6.2656-5.5156-18.531-5.5156h-12.406v-29.297h-9.8594z"/>
</defs>
<g transform="translate(1296.9 468.26) rotate(44.867) scale(.08 -.08)">
<use xlink:href="#aq"/>
</g>
</g>
<path d="m1021.3 466.16 0.62715 5.8213q0.25707 2.3862 2.6433 2.1291l7.698-0.82933q2.3862-0.25707 2.1291-2.6433l-0.62715-5.8213q-0.25707-2.3862-2.6433-2.1291l-7.698 0.82933q-2.3862 0.25707-2.1291 2.6433z" clip-path="url(#a)" fill="#fff" stroke="#fff"/>
<g clip-path="url(#a)">
<g transform="translate(1025.3 465.72) rotate(83.851) scale(.08 -.08)">
<use xlink:href="#t"/>
</g>
</g>
<path d="m1337.6 471.2 4.4162 3.8442q1.8102 1.5758 3.386-0.23445l5.0835-5.8399q1.5758-1.8102-0.23445-3.386l-4.4162-3.8442q-1.8102-1.5758-3.386 0.23445l-5.0835 5.8399q-1.5758 1.8102 0.23445 3.386z" clip-path="url(#a)" fill="#fff" stroke="#fff"/>
<g clip-path="url(#a)">
<g transform="translate(1340.3 468.14) rotate(41.039) scale(.08 -.08)">
<use xlink:href="#t"/>
</g>
</g>
<path d="m227.52 814.57v33.808q0 2.4 2.4 2.4h7.7425q2.4 0 2.4-2.4v-33.808q0-2.4-2.4-2.4h-7.7425q-2.4 0-2.4 2.4z" clip-path="url(#a)" fill="#fff" stroke="#fff"/>
<g clip-path="url(#a)">
<g transform="translate(231.59 814.57) rotate(90) scale(.08 -.08)">
<use xlink:href="#k"/>
<use x="44.083984" xlink:href="#d"/>
<use x="105.607422" xlink:href="#i"/>
<use x="144.970703" xlink:href="#l"/>
<use x="242.382812" xlink:href="#h"/>
<use x="270.166016" xlink:href="#g"/>
<use x="333.544922" xlink:href="#f"/>
<use x="394.824219" xlink:href="#j"/>
</g>
</g>
<path d="m256.7 814.57v33.808q0 2.4 2.4 2.4h7.7425q2.4 0 2.4-2.4v-33.808q0-2.4-2.4-2.4h-7.7425q-2.4 0-2.4 2.4z" clip-path="url(#a)" fill="#fff" stroke="#fff"/>
<g clip-path="url(#a)">
<g transform="translate(260.77 814.57) rotate(90) scale(.08 -.08)">
<use xlink:href="#k"/>
<use x="44.083984" xlink:href="#d"/>
<use x="105.607422" xlink:href="#i"/>
<use x="144.970703" xlink:href="#l"/>
<use x="242.382812" xlink:href="#h"/>
<use x="270.166016" xlink:href="#g"/>
<use x="333.544922" xlink:href="#f"/>
<use x="394.824219" xlink:href="#j"/>
</g>
</g>
<path d="m376.82 534.01 1.6838-5.2976q0.72698-2.2872-1.5603-3.0142l-7.3788-2.3453q-2.2872-0.72699-3.0142 1.5603l-1.6838 5.2976q-0.72698 2.2872 1.5603 3.0142l7.3787 2.3453q2.2872 0.72698 3.0142-1.5603z" clip-path="url(#a)" fill="#fff" stroke="#fff"/>
<g clip-path="url(#a)">
<defs>
<path id="ah" d="m44.391 34.188q3.1719-1.0781 6.1719-4.5938t6.0312-9.6719l10.016-19.922h-10.609l-9.3125 18.703q-3.625 7.3281-7.0156 9.7188t-9.25 2.3906h-10.75v-30.812h-9.8594v72.906h22.266q12.5 0 18.656-5.2344 6.1562-5.2188 6.1562-15.766 0-6.8906-3.2031-11.438-3.2031-4.5312-9.2969-6.2812zm-24.719 30.609v-25.875h12.406q7.125 0 10.766 3.2969t3.6406 9.6875-3.6406 9.6406-10.766 3.25z"/>
</defs>
<g transform="translate(372.95 532.78) rotate(-72.367) scale(.08 -.08)">
<use xlink:href="#ah"/>
</g>
</g>
<path d="m394.24 533.2 1.1062-4.4663q0.57699-2.3296-1.7526-2.9066l-7.5154-1.8614q-2.3296-0.57699-2.9066 1.7526l-1.1062 4.4663q-0.57699 2.3296 1.7526 2.9066l7.5154 1.8614q2.3296 0.57699 2.9066-1.7526z" clip-path="url(#a)" fill="#fff" stroke="#fff"/>
<g clip-path="url(#a)">
<g transform="translate(390.29 532.22) rotate(-76.089) scale(.08 -.08)">
<use xlink:href="#x"/>
</g>
</g>
<path d="m412.65 533.28 0.94958-5.505q0.40796-2.3651-1.9571-2.773l-7.6298-1.3161q-2.3651-0.40796-2.773 1.9571l-0.94958 5.505q-0.40796 2.3651 1.9571 2.773l7.6298 1.3161q2.3651 0.40796 2.773-1.9571z" clip-path="url(#a)" fill="#fff" stroke="#fff"/>
<g clip-path="url(#a)">
<g transform="translate(408.64 532.59) rotate(-80.213) scale(.08 -.08)">
<use xlink:href="#u"/>
</g>
</g>
<path d="m453.72 471.77 0.036519-5.0549q0.017339-2.3999-2.3826-2.4173l-7.7423-0.055934q-2.3999-0.017338-2.4173 2.3826l-0.036519 5.0549q-0.017339 2.3999 2.3826 2.4173l7.7423 0.055934q2.3999 0.017338 2.4173-2.3826z" clip-path="url(#a)" fill="#fff" stroke="#fff"/>
<g clip-path="url(#a)">
<g transform="translate(449.66 471.74) rotate(-89.586) scale(.08 -.08)">
<use xlink:href="#y"/>
</g>
</g>
<path d="m581.01 352.53 4.6191 2.0535q2.193 0.97496 3.168-1.2181l3.1453-7.0749q0.97496-2.193-1.2181-3.168l-4.6191-2.0535q-2.193-0.97496-3.168 1.2181l-3.1453 7.0749q-0.97496 2.193 1.2181 3.168z" clip-path="url(#a)" fill="#fff" stroke="#fff"/>
<g clip-path="url(#a)">
<g transform="translate(582.66 348.82) rotate(23.968) scale(.08 -.08)">
<use xlink:href="#y"/>
</g>
</g>
<path d="m485.36 527.68 1.028 5.7641q0.42138 2.3627 2.7841 1.9413l7.6222-1.3594q2.3627-0.42137 1.9413-2.7841l-1.028-5.7641q-0.42138-2.3627-2.7841-1.9413l-7.6222 1.3594q-2.3627 0.42138-1.9413 2.7841z" clip-path="url(#a)" fill="#fff" stroke="#fff"/>
<g clip-path="url(#a)">
<g transform="translate(489.36 526.96) rotate(79.888) scale(.08 -.08)">
<use xlink:href="#t"/>
</g>
</g>
<path d="m1164.3 849.14 17.824-28.727q1.2653-2.0394-0.77403-3.3047l-6.579-4.082q-2.0394-1.2653-3.3047 0.77403l-17.824 28.727q-1.2653 2.0394 0.77403 3.3047l6.579 4.082q2.0394 1.2653 3.3047-0.77403z" clip-path="url(#a)" fill="#fff" stroke="#fff"/>
<g clip-path="url(#a)">
<g transform="translate(1160.9 847) rotate(-58.182) scale(.08 -.08)">
<use xlink:href="#k"/>
<use x="44.083984" xlink:href="#d"/>
<use x="105.607422" xlink:href="#i"/>
<use x="144.970703" xlink:href="#l"/>
<use x="242.382812" xlink:href="#h"/>
<use x="270.166016" xlink:href="#g"/>
<use x="333.544922" xlink:href="#f"/>
<use x="394.824219" xlink:href="#j"/>
</g>
</g>
<path d="m1210.5 848.42 0.2305-33.807q0.016363-2.3999-2.3836-2.4163l-7.7423-0.052788q-2.3999-0.016363-2.4163 2.3836l-0.2305 33.807q-0.016363 2.3999 2.3836 2.4163l7.7423 0.052788q2.3999 0.016363 2.4163-2.3836z" clip-path="url(#a)" fill="#fff" stroke="#fff"/>
<g clip-path="url(#a)">
<g transform="translate(1206.5 848.39) rotate(-89.609) scale(.08 -.08)">
<use xlink:href="#k"/>
<use x="44.083984" xlink:href="#d"/>
<use x="105.607422" xlink:href="#i"/>
<use x="144.970703" xlink:href="#l"/>
<use x="242.382812" xlink:href="#h"/>
<use x="270.166016" xlink:href="#g"/>
<use x="333.544922" xlink:href="#f"/>
<use x="394.824219" xlink:href="#j"/>
</g>
</g>
<path d="m1227.8 820.48 17.965 28.639q1.2753 2.0331 3.3084 0.7578l6.5589-4.1142q2.0331-1.2753 0.7578-3.3084l-17.965-28.639q-1.2753-2.0331-3.3084-0.7578l-6.5589 4.1142q-2.0331 1.2753-0.7578 3.3084z" clip-path="url(#a)" fill="#fff" stroke="#fff"/>
<g clip-path="url(#a)">
<g transform="translate(1231.2 818.32) rotate(57.901) scale(.08 -.08)">
<use xlink:href="#k"/>
<use x="44.083984" xlink:href="#d"/>
<use x="105.607422" xlink:href="#i"/>
<use x="144.970703" xlink:href="#l"/>
<use x="242.382812" xlink:href="#h"/>
<use x="270.166016" xlink:href="#g"/>
<use x="333.544922" xlink:href="#f"/>
<use x="394.824219" xlink:href="#j"/>
</g>
</g>
<path d="m1409.6 655.62 1.6806-4.2833q0.87661-2.2342-1.3576-3.1108l-7.2076-2.828q-2.2342-0.87661-3.1108 1.3576l-1.6806 4.2833q-0.87661 2.2342 1.3576 3.1108l7.2076 2.828q2.2342 0.87661 3.1108-1.3576z" clip-path="url(#a)" fill="#fff" stroke="#fff"/>
<g clip-path="url(#a)">
<g transform="translate(1405.8 654.13) rotate(-68.577) scale(.08 -.08)">
<use xlink:href="#x"/>
</g>
</g>
<path d="m1458.7 589.81 1.0897 4.9362q0.51736 2.3436 2.8609 1.8262l7.5605-1.669q2.3436-0.51736 1.8262-2.8609l-1.0897-4.9362q-0.51736-2.3436-2.8609-1.8262l-7.5605 1.669q-2.3436 0.51736-1.8262 2.8609z" clip-path="url(#a)" fill="#fff" stroke="#fff"/>
<g clip-path="url(#a)">
<g transform="translate(1462.7 588.93) rotate(77.551) scale(.08 -.08)">
<use xlink:href="#y"/>
</g>
</g>
<path d="m1479.3 650.2 1.5147 5.377q0.65074 2.3101 2.9608 1.6594l7.4525-2.0993q2.3101-0.65074 1.6594-2.9608l-1.5147-5.377q-0.65074-2.3101-2.9608-1.6594l-7.4525 2.0993q-2.3101 0.65074-1.6594 2.9608z" clip-path="url(#a)" fill="#fff" stroke="#fff"/>
<g clip-path="url(#a)">
<g transform="translate(1483.2 649.1) rotate(74.268) scale(.08 -.08)">
<use xlink:href="#u"/>
</g>
</g>
<path d="m1598.9 814.57v33.808q0 2.4 2.4 2.4h7.7425q2.4 0 2.4-2.4v-33.808q0-2.4-2.4-2.4h-7.7425q-2.4 0-2.4 2.4z" clip-path="url(#a)" fill="#fff" stroke="#fff"/>
<g clip-path="url(#a)">
<g transform="translate(1603 814.57) rotate(90) scale(.08 -.08)">
<use xlink:href="#k"/>
<use x="44.083984" xlink:href="#d"/>
<use x="105.607422" xlink:href="#i"/>
<use x="144.970703" xlink:href="#l"/>
<use x="242.382812" xlink:href="#h"/>
<use x="270.166016" xlink:href="#g"/>
<use x="333.544922" xlink:href="#f"/>
<use x="394.824219" xlink:href="#j"/>
</g>
</g>
<path d="m1350.9 814.57v33.808q0 2.4 2.4 2.4h7.7425q2.4 0 2.4-2.4v-33.808q0-2.4-2.4-2.4h-7.7425q-2.4 0-2.4 2.4z" clip-path="url(#a)" fill="#fff" stroke="#fff"/>
<g clip-path="url(#a)">
<g transform="translate(1355 814.57) rotate(90) scale(.08 -.08)">
<use xlink:href="#k"/>
<use x="44.083984" xlink:href="#d"/>
<use x="105.607422" xlink:href="#i"/>
<use x="144.970703" xlink:href="#l"/>
<use x="242.382812" xlink:href="#h"/>
<use x="270.166016" xlink:href="#g"/>
<use x="333.544922" xlink:href="#f"/>
<use x="394.824219" xlink:href="#j"/>
</g>
</g>
<path d="m1492.6 711.21 1.7753 5.1765q0.77858 2.2702 3.0488 1.4916l7.3238-2.5117q2.2702-0.77858 1.4916-3.0488l-1.7753-5.1765q-0.77858-2.2702-3.0488-1.4916l-7.3238 2.5117q-2.2702 0.77858-1.4916 3.0488z" clip-path="url(#a)" fill="#fff" stroke="#fff"/>
<g clip-path="url(#a)">
<g transform="translate(1496.4 709.9) rotate(71.07) scale(.08 -.08)">
<use xlink:href="#r"/>
</g>
</g>
<path d="m1463.2 716.2 1.6476-4.8041q0.77858-2.2702-1.4916-3.0488l-7.3238-2.5117q-2.2702-0.77858-3.0488 1.4916l-1.6476 4.8041q-0.77858 2.2702 1.4916 3.0488l7.3238 2.5117q2.2702 0.77858 3.0488-1.4916z" clip-path="url(#a)" fill="#fff" stroke="#fff"/>
<g clip-path="url(#a)">
<g transform="translate(1459.3 714.89) rotate(-71.07) scale(.08 -.08)">
<use xlink:href="#ag"/>
</g>
</g>
<path d="m1513.8 814.57v33.808q0 2.4 2.4 2.4h7.7425q2.4 0 2.4-2.4v-33.808q0-2.4-2.4-2.4h-7.7425q-2.4 0-2.4 2.4z" clip-path="url(#a)" fill="#fff" stroke="#fff"/>
<g clip-path="url(#a)">
<g transform="translate(1517.9 814.57) rotate(90) scale(.08 -.08)">
<use xlink:href="#k"/>
<use x="44.083984" xlink:href="#d"/>
<use x="105.607422" xlink:href="#i"/>
<use x="144.970703" xlink:href="#l"/>
<use x="242.382812" xlink:href="#h"/>
<use x="270.166016" xlink:href="#g"/>
<use x="333.544922" xlink:href="#f"/>
<use x="394.824219" xlink:href="#j"/>
</g>
</g>
<path d="m1431.1 814.57v33.808q0 2.4 2.4 2.4h7.7425q2.4 0 2.4-2.4v-33.808q0-2.4-2.4-2.4h-7.7425q-2.4 0-2.4 2.4z" clip-path="url(#a)" fill="#fff" stroke="#fff"/>
<g clip-path="url(#a)">
<g transform="translate(1435.2 814.57) rotate(90) scale(.08 -.08)">
<use xlink:href="#k"/>
<use x="44.083984" xlink:href="#d"/>
<use x="105.607422" xlink:href="#i"/>
<use x="144.970703" xlink:href="#l"/>
<use x="242.382812" xlink:href="#h"/>
<use x="270.166016" xlink:href="#g"/>
<use x="333.544922" xlink:href="#f"/>
<use x="394.824219" xlink:href="#j"/>
</g>
</g>
<path d="m288.31 814.57v33.808q0 2.4 2.4 2.4h7.7425q2.4 0 2.4-2.4v-33.808q0-2.4-2.4-2.4h-7.7425q-2.4 0-2.4 2.4z" clip-path="url(#a)" fill="#fff" stroke="#fff"/>
<g clip-path="url(#a)">
<g transform="translate(292.38 814.57) rotate(90) scale(.08 -.08)">
<use xlink:href="#k"/>
<use x="44.083984" xlink:href="#d"/>
<use x="105.607422" xlink:href="#i"/>
<use x="144.970703" xlink:href="#l"/>
<use x="242.382812" xlink:href="#h"/>
<use x="270.166016" xlink:href="#g"/>
<use x="333.544922" xlink:href="#f"/>
<use x="394.824219" xlink:href="#j"/>
</g>
</g>
<path d="m322.35 814.57v33.808q0 2.4 2.4 2.4h7.7425q2.4 0 2.4-2.4v-33.808q0-2.4-2.4-2.4h-7.7425q-2.4 0-2.4 2.4z" clip-path="url(#a)" fill="#fff" stroke="#fff"/>
<g clip-path="url(#a)">
<g transform="translate(326.42 814.57) rotate(90) scale(.08 -.08)">
<use xlink:href="#k"/>
<use x="44.083984" xlink:href="#d"/>
<use x="105.607422" xlink:href="#i"/>
<use x="144.970703" xlink:href="#l"/>
<use x="242.382812" xlink:href="#h"/>
<use x="270.166016" xlink:href="#g"/>
<use x="333.544922" xlink:href="#f"/>
<use x="394.824219" xlink:href="#j"/>
</g>
</g>
<path d="m358.83 814.57v33.808q0 2.4 2.4 2.4h7.7425q2.4 0 2.4-2.4v-33.808q0-2.4-2.4-2.4h-7.7425q-2.4 0-2.4 2.4z" clip-path="url(#a)" fill="#fff" stroke="#fff"/>
<g clip-path="url(#a)">
<g transform="translate(362.89 814.57) rotate(90) scale(.08 -.08)">
<use xlink:href="#k"/>
<use x="44.083984" xlink:href="#d"/>
<use x="105.607422" xlink:href="#i"/>
<use x="144.970703" xlink:href="#l"/>
<use x="242.382812" xlink:href="#h"/>
<use x="270.166016" xlink:href="#g"/>
<use x="333.544922" xlink:href="#f"/>
<use x="394.824219" xlink:href="#j"/>
</g>
</g>
<path d="m430.08 716.46 1.8348-5.2472q0.7922-2.2655-1.4733-3.0577l-7.3086-2.5557q-2.2655-0.7922-3.0577 1.4733l-1.8348 5.2472q-0.7922 2.2655 1.4733 3.0577l7.3086 2.5557q2.2655 0.7922 3.0577-1.4733z" clip-path="url(#a)" fill="#fff" stroke="#fff"/>
<g clip-path="url(#a)">
<g transform="translate(426.24 715.12) rotate(-70.726) scale(.08 -.08)">
<use xlink:href="#ah"/>
</g>
</g>
<path d="m452 714.11 0.030941-4.6011q0.016139-2.3999-2.3838-2.4161l-7.7423-0.052064q-2.3999-0.016139-2.4161 2.3838l-0.030941 4.6011q-0.016139 2.3999 2.3838 2.4161l7.7423 0.052065q2.3999 0.016138 2.4161-2.3838z" clip-path="url(#a)" fill="#fff" stroke="#fff"/>
<g clip-path="url(#a)">
<g transform="translate(447.94 714.08) rotate(-89.615) scale(.08 -.08)">
<use xlink:href="#x"/>
</g>
</g>
<path d="m460.78 711.24 1.8754 5.262q0.80573 2.2607 3.0664 1.455l7.2931-2.5993q2.2607-0.80573 1.455-3.0664l-1.8754-5.262q-0.80573-2.2607-3.0664-1.455l-7.2931 2.5993q-2.2607 0.80573-1.455 3.0664z" clip-path="url(#a)" fill="#fff" stroke="#fff"/>
<g clip-path="url(#a)">
<g transform="translate(464.61 709.88) rotate(70.384) scale(.08 -.08)">
<use xlink:href="#u"/>
</g>
</g>
<path d="m546.57 596.75 3.8404-3.8986q1.6842-1.7098-0.025522-3.394l-5.5158-5.4335q-1.7098-1.6842-3.394 0.025522l-3.8404 3.8986q-1.6842 1.7098 0.025523 3.394l5.5158 5.4335q1.7098 1.6842 3.394-0.025523z" clip-path="url(#a)" fill="#fff" stroke="#fff"/>
<g clip-path="url(#a)">
<g transform="translate(543.67 593.9) rotate(-45.431) scale(.08 -.08)">
<use xlink:href="#r"/>
</g>
</g>
<path d="m658.3 595.24 1.9866-5.1916q0.85771-2.2415-1.3838-3.0992l-7.2312-2.767q-2.2415-0.85771-3.0992 1.3838l-1.9866 5.1916q-0.85771 2.2415 1.3838 3.0992l7.2312 2.767q2.2415 0.85771 3.0992-1.3838z" clip-path="url(#a)" fill="#fff" stroke="#fff"/>
<g clip-path="url(#a)">
<g transform="translate(654.51 593.78) rotate(-69.061) scale(.08 -.08)">
<use xlink:href="#ah"/>
</g>
</g>
<path d="m728.02 468.06 1.0388 5.373q0.45558 2.3564 2.8119 1.9008l7.6017-1.4697q2.3564-0.45558 1.9008-2.8119l-1.0388-5.373q-0.45558-2.3564-2.8119-1.9008l-7.6017 1.4697q-2.3564 0.45558-1.9008 2.8119z" clip-path="url(#a)" fill="#fff" stroke="#fff"/>
<g clip-path="url(#a)">
<g transform="translate(732.01 467.29) rotate(79.058) scale(.08 -.08)">
<use xlink:href="#r"/>
</g>
</g>
<path d="m851.14 592.1 3.026 4.0789q1.43 1.9275 3.3574 0.49754l6.2182-4.6131q1.9275-1.43 0.49754-3.3574l-3.026-4.0789q-1.43-1.9275-3.3574-0.49754l-6.2182 4.6131q-1.9275 1.43-0.49754 3.3574z" clip-path="url(#a)" fill="#fff" stroke="#fff"/>
<g clip-path="url(#a)">
<g transform="translate(854.4 589.68) rotate(53.429) scale(.08 -.08)">
<use xlink:href="#ag"/>
</g>
</g>
<path d="m817.96 590.92 2.8652 5.106q1.1745 2.093 3.2675 0.91852l6.7521-3.7889q2.093-1.1745 0.91852-3.2675l-2.8652-5.106q-1.1745-2.093-3.2675-0.91852l-6.7521 3.7889q-2.093 1.1745-0.91852 3.2675z" clip-path="url(#a)" fill="#fff" stroke="#fff"/>
<g clip-path="url(#a)">
<g transform="translate(821.51 588.93) rotate(60.701) scale(.08 -.08)">
<use xlink:href="#t"/>
</g>
</g>
<path d="m577.67 814.57v33.808q0 2.4 2.4 2.4h7.7425q2.4 0 2.4-2.4v-33.808q0-2.4-2.4-2.4h-7.7425q-2.4 0-2.4 2.4z" clip-path="url(#a)" fill="#fff" stroke="#fff"/>
<g clip-path="url(#a)">
<g transform="translate(581.73 814.57) rotate(90) scale(.08 -.08)">
<use xlink:href="#k"/>
<use x="44.083984" xlink:href="#d"/>
<use x="105.607422" xlink:href="#i"/>
<use x="144.970703" xlink:href="#l"/>
<use x="242.382812" xlink:href="#h"/>
<use x="270.166016" xlink:href="#g"/>
<use x="333.544922" xlink:href="#f"/>
<use x="394.824219" xlink:href="#j"/>
</g>
</g>
<path d="m707.79 596.59 2.8962-4.1431q1.3751-1.967-0.59196-3.3421l-6.3457-4.436q-1.967-1.3751-3.3421 0.59196l-2.8962 4.1431q-1.3751 1.967 0.59196 3.3421l6.3457 4.436q1.967 1.3751 3.3421-0.59196z" clip-path="url(#a)" fill="#fff" stroke="#fff"/>
<g clip-path="url(#a)">
<g transform="translate(704.46 594.26) rotate(-55.044) scale(.08 -.08)">
<use xlink:href="#y"/>
</g>
</g>
<path d="m782.96 650.68 1.8867 5.258q0.81058 2.259 3.0696 1.4484l7.2875-2.615q2.259-0.81058 1.4484-3.0696l-1.8867-5.258q-0.81058-2.259-3.0696-1.4484l-7.2875 2.615q-2.259 0.81058-1.4484 3.0696z" clip-path="url(#a)" fill="#fff" stroke="#fff"/>
<g clip-path="url(#a)">
<g transform="translate(786.79 649.3) rotate(70.261) scale(.08 -.08)">
<use xlink:href="#u"/>
</g>
</g>
<path d="m751.68 654.17 0.049086-5.8548q0.02012-2.3999-2.3798-2.42l-7.7422-0.064909q-2.3999-0.020121-2.42 2.3798l-0.049086 5.8548q-0.02012 2.3999 2.3798 2.42l7.7422 0.064909q2.3999 0.020121 2.42-2.3798z" clip-path="url(#a)" fill="#fff" stroke="#fff"/>
<g clip-path="url(#a)">
<g transform="translate(747.62 654.13) rotate(-89.52) scale(.08 -.08)">
<use xlink:href="#t"/>
</g>
</g>
<path d="m986.17 814.57v33.808q0 2.4 2.4 2.4h7.7425q2.4 0 2.4-2.4v-33.808q0-2.4-2.4-2.4h-7.7425q-2.4 0-2.4 2.4z" clip-path="url(#a)" fill="#fff" stroke="#fff"/>
<g clip-path="url(#a)">
<g transform="translate(990.23 814.57) rotate(90) scale(.08 -.08)">
<use xlink:href="#k"/>
<use x="44.083984" xlink:href="#d"/>
<use x="105.607422" xlink:href="#i"/>
<use x="144.970703" xlink:href="#l"/>
<use x="242.382812" xlink:href="#h"/>
<use x="270.166016" xlink:href="#g"/>
<use x="333.544922" xlink:href="#f"/>
<use x="394.824219" xlink:href="#j"/>
</g>
</g>
<path d="m654 715.37 0.99682-4.492q0.51994-2.343-1.8231-2.8629l-7.5586-1.6774q-2.343-0.51994-2.8629 1.8231l-0.99683 4.492q-0.51994 2.343 1.8231 2.8629l7.5586 1.6774q2.343 0.51994 2.8629-1.8231z" clip-path="url(#a)" fill="#fff" stroke="#fff"/>
<g clip-path="url(#a)">
<g transform="translate(650.03 714.49) rotate(-77.488) scale(.08 -.08)">
<use xlink:href="#x"/>
</g>
</g>
<path d="m668.39 710.4 1.2102 5.4536q0.51994 2.343 2.8629 1.8231l7.5586-1.6774q2.343-0.51994 1.8231-2.8629l-1.2102-5.4536q-0.51994-2.343-2.8629-1.8231l-7.5586 1.6774q-2.343 0.51994-1.8231 2.8629z" clip-path="url(#a)" fill="#fff" stroke="#fff"/>
<g clip-path="url(#a)">
<g transform="translate(672.36 709.52) rotate(77.488) scale(.08 -.08)">
<use xlink:href="#u"/>
</g>
</g>
<path d="m819.86 849.4 8.3745-32.754q0.59451-2.3252-1.7307-2.9197l-7.5012-1.9179q-2.3252-0.59451-2.9197 1.7307l-8.3745 32.754q-0.59451 2.3252 1.7307 2.9197l7.5012 1.9179q2.3252 0.59451 2.9197-1.7307z" clip-path="url(#a)" fill="#fff" stroke="#fff"/>
<g clip-path="url(#a)">
<g transform="translate(815.93 848.39) rotate(-75.658) scale(.08 -.08)">
<use xlink:href="#k"/>
<use x="44.083984" xlink:href="#d"/>
<use x="105.607422" xlink:href="#i"/>
<use x="144.970703" xlink:href="#l"/>
<use x="242.382812" xlink:href="#h"/>
<use x="270.166016" xlink:href="#g"/>
<use x="333.544922" xlink:href="#f"/>
<use x="394.824219" xlink:href="#j"/>
</g>
</g>
<path d="m838.11 816.65 8.3745 32.754q0.59451 2.3252 2.9197 1.7307l7.5012-1.9179q2.3252-0.59451 1.7307-2.9197l-8.3745-32.754q-0.59451-2.3252-2.9197-1.7307l-7.5012 1.9179q-2.3252 0.59451-1.7307 2.9197z" clip-path="url(#a)" fill="#fff" stroke="#fff"/>
<g clip-path="url(#a)">
<g transform="translate(842.04 815.64) rotate(75.658) scale(.08 -.08)">
<use xlink:href="#k"/>
<use x="44.083984" xlink:href="#d"/>
<use x="105.607422" xlink:href="#i"/>
<use x="144.970703" xlink:href="#l"/>
<use x="242.382812" xlink:href="#h"/>
<use x="270.166016" xlink:href="#g"/>
<use x="333.544922" xlink:href="#f"/>
<use x="394.824219" xlink:href="#j"/>
</g>
</g>
<path d="m628.73 814.57v33.808q0 2.4 2.4 2.4h7.7425q2.4 0 2.4-2.4v-33.808q0-2.4-2.4-2.4h-7.7425q-2.4 0-2.4 2.4z" clip-path="url(#a)" fill="#fff" stroke="#fff"/>
<g clip-path="url(#a)">
<g transform="translate(632.79 814.57) rotate(90) scale(.08 -.08)">
<use xlink:href="#k"/>
<use x="44.083984" xlink:href="#d"/>
<use x="105.607422" xlink:href="#i"/>
<use x="144.970703" xlink:href="#l"/>
<use x="242.382812" xlink:href="#h"/>
<use x="270.166016" xlink:href="#g"/>
<use x="333.544922" xlink:href="#f"/>
<use x="394.824219" xlink:href="#j"/>
</g>
</g>
<path d="m682.22 814.57v33.808q0 2.4 2.4 2.4h7.7425q2.4 0 2.4-2.4v-33.808q0-2.4-2.4-2.4h-7.7425q-2.4 0-2.4 2.4z" clip-path="url(#a)" fill="#fff" stroke="#fff"/>
<g clip-path="url(#a)">
<g transform="translate(686.29 814.57) rotate(90) scale(.08 -.08)">
<use xlink:href="#k"/>
<use x="44.083984" xlink:href="#d"/>
<use x="105.607422" xlink:href="#i"/>
<use x="144.970703" xlink:href="#l"/>
<use x="242.382812" xlink:href="#h"/>
<use x="270.166016" xlink:href="#g"/>
<use x="333.544922" xlink:href="#f"/>
<use x="394.824219" xlink:href="#j"/>
</g>
</g>
<path d="m397.73 814.57v33.808q0 2.4 2.4 2.4h7.7425q2.4 0 2.4-2.4v-33.808q0-2.4-2.4-2.4h-7.7425q-2.4 0-2.4 2.4z" clip-path="url(#a)" fill="#fff" stroke="#fff"/>
<g clip-path="url(#a)">
<g transform="translate(401.8 814.57) rotate(90) scale(.08 -.08)">
<use xlink:href="#k"/>
<use x="44.083984" xlink:href="#d"/>
<use x="105.607422" xlink:href="#i"/>
<use x="144.970703" xlink:href="#l"/>
<use x="242.382812" xlink:href="#h"/>
<use x="270.166016" xlink:href="#g"/>
<use x="333.544922" xlink:href="#f"/>
<use x="394.824219" xlink:href="#j"/>
</g>
</g>
<path d="m439.07 814.57v33.808q0 2.4 2.4 2.4h7.7425q2.4 0 2.4-2.4v-33.808q0-2.4-2.4-2.4h-7.7425q-2.4 0-2.4 2.4z" clip-path="url(#a)" fill="#fff" stroke="#fff"/>
<g clip-path="url(#a)">
<g transform="translate(443.13 814.57) rotate(90) scale(.08 -.08)">
<use xlink:href="#k"/>
<use x="44.083984" xlink:href="#d"/>
<use x="105.607422" xlink:href="#i"/>
<use x="144.970703" xlink:href="#l"/>
<use x="242.382812" xlink:href="#h"/>
<use x="270.166016" xlink:href="#g"/>
<use x="333.544922" xlink:href="#f"/>
<use x="394.824219" xlink:href="#j"/>
</g>
</g>
<path d="m482.84 814.57v33.808q0 2.4 2.4 2.4h7.7425q2.4 0 2.4-2.4v-33.808q0-2.4-2.4-2.4h-7.7425q-2.4 0-2.4 2.4z" clip-path="url(#a)" fill="#fff" stroke="#fff"/>
<g clip-path="url(#a)">
<g transform="translate(486.9 814.57) rotate(90) scale(.08 -.08)">
<use xlink:href="#k"/>
<use x="44.083984" xlink:href="#d"/>
<use x="105.607422" xlink:href="#i"/>
<use x="144.970703" xlink:href="#l"/>
<use x="242.382812" xlink:href="#h"/>
<use x="270.166016" xlink:href="#g"/>
<use x="333.544922" xlink:href="#f"/>
<use x="394.824219" xlink:href="#j"/>
</g>
</g>
<path d="m103.51 814.57v33.808q0 2.4 2.4 2.4h7.7425q2.4 0 2.4-2.4v-33.808q0-2.4-2.4-2.4h-7.7425q-2.4 0-2.4 2.4z" clip-path="url(#a)" fill="#fff" stroke="#fff"/>
<g clip-path="url(#a)">
<g transform="translate(107.58 814.57) rotate(90) scale(.08 -.08)">
<use xlink:href="#k"/>
<use x="44.083984" xlink:href="#d"/>
<use x="105.607422" xlink:href="#i"/>
<use x="144.970703" xlink:href="#l"/>
<use x="242.382812" xlink:href="#h"/>
<use x="270.166016" xlink:href="#g"/>
<use x="333.544922" xlink:href="#f"/>
<use x="394.824219" xlink:href="#j"/>
</g>
</g>
<path d="m134.66 715.35 0.44355-6.2819q0.16904-2.394-2.225-2.5631l-7.7233-0.54533q-2.394-0.16904-2.5631 2.225l-0.44355 6.2819q-0.16904 2.394 2.225 2.5631l7.7233 0.54533q2.394 0.16904 2.5631-2.225z" clip-path="url(#a)" fill="#fff" stroke="#fff"/>
<g clip-path="url(#a)">
<defs>
<path id="ap" d="m39.406 66.219q-10.75 0-17.078-8.0156-6.3125-8-6.3125-21.828 0-13.766 6.3125-21.781 6.3281-8 17.078-8 10.734 0 17.016 8 6.2812 8.0156 6.2812 21.781 0 13.828-6.2812 21.828-6.2812 8.0156-17.016 8.0156zm13.812-64.906 13-14.203h-11.922l-10.797 11.672q-1.6094-0.09375-2.4688-0.14062-0.84375-0.0625-1.625-0.0625-15.375 0-24.594 10.281-9.2031 10.281-9.2031 27.516 0 17.281 9.2031 27.562 9.2188 10.281 24.594 10.281 15.328 0 24.5-10.281 9.1875-10.281 9.1875-27.562 0-12.688-5.1094-21.734-5.0938-9.0312-14.766-13.328z"/>
</defs>
<g transform="translate(130.61 715.06) rotate(-85.961) scale(.08 -.08)">
<use xlink:href="#ap"/>
</g>
</g>
<path d="m130.69 709.42 0.39346 5.5724q0.16904 2.394 2.5631 2.225l7.7233-0.54533q2.394-0.16904 2.225-2.5631l-0.39346-5.5724q-0.16904-2.394-2.5631-2.225l-7.7233 0.54533q-2.394 0.16904-2.225 2.5631z" clip-path="url(#a)" fill="#fff" stroke="#fff"/>
<g clip-path="url(#a)">
<g transform="translate(134.74 709.14) rotate(85.961) scale(.08 -.08)">
<use xlink:href="#u"/>
</g>
</g>
<path d="m154.58 814.57v33.808q0 2.4 2.4 2.4h7.7425q2.4 0 2.4-2.4v-33.808q0-2.4-2.4-2.4h-7.7425q-2.4 0-2.4 2.4z" clip-path="url(#a)" fill="#fff" stroke="#fff"/>
<g clip-path="url(#a)">
<g transform="translate(158.64 814.57) rotate(90) scale(.08 -.08)">
<use xlink:href="#k"/>
<use x="44.083984" xlink:href="#d"/>
<use x="105.607422" xlink:href="#i"/>
<use x="144.970703" xlink:href="#l"/>
<use x="242.382812" xlink:href="#h"/>
<use x="270.166016" xlink:href="#g"/>
<use x="333.544922" xlink:href="#f"/>
<use x="394.824219" xlink:href="#j"/>
</g>
</g>
<path d="m176.46 814.57v33.808q0 2.4 2.4 2.4h7.7425q2.4 0 2.4-2.4v-33.808q0-2.4-2.4-2.4h-7.7425q-2.4 0-2.4 2.4z" clip-path="url(#a)" fill="#fff" stroke="#fff"/>
<g clip-path="url(#a)">
<g transform="translate(180.52 814.57) rotate(90) scale(.08 -.08)">
<use xlink:href="#k"/>
<use x="44.083984" xlink:href="#d"/>
<use x="105.607422" xlink:href="#i"/>
<use x="144.970703" xlink:href="#l"/>
<use x="242.382812" xlink:href="#h"/>
<use x="270.166016" xlink:href="#g"/>
<use x="333.544922" xlink:href="#f"/>
<use x="394.824219" xlink:href="#j"/>
</g>
</g>
<path d="m118.1 814.57v33.808q0 2.4 2.4 2.4h7.7425q2.4 0 2.4-2.4v-33.808q0-2.4-2.4-2.4h-7.7425q-2.4 0-2.4 2.4z" clip-path="url(#a)" fill="#fff" stroke="#fff"/>
<g clip-path="url(#a)">
<g transform="translate(122.17 814.57) rotate(90) scale(.08 -.08)">
<use xlink:href="#k"/>
<use x="44.083984" xlink:href="#d"/>
<use x="105.607422" xlink:href="#i"/>
<use x="144.970703" xlink:href="#l"/>
<use x="242.382812" xlink:href="#h"/>
<use x="270.166016" xlink:href="#g"/>
<use x="333.544922" xlink:href="#f"/>
<use x="394.824219" xlink:href="#j"/>
</g>
</g>
<path d="m135.12 814.57v33.808q0 2.4 2.4 2.4h7.7425q2.4 0 2.4-2.4v-33.808q0-2.4-2.4-2.4h-7.7425q-2.4 0-2.4 2.4z" clip-path="url(#a)" fill="#fff" stroke="#fff"/>
<g clip-path="url(#a)">
<g transform="translate(139.19 814.57) rotate(90) scale(.08 -.08)">
<use xlink:href="#k"/>
<use x="44.083984" xlink:href="#d"/>
<use x="105.607422" xlink:href="#i"/>
<use x="144.970703" xlink:href="#l"/>
<use x="242.382812" xlink:href="#h"/>
<use x="270.166016" xlink:href="#g"/>
<use x="333.544922" xlink:href="#f"/>
<use x="394.824219" xlink:href="#j"/>
</g>
</g>
<path d="m74.335 814.57v33.808q0 2.4 2.4 2.4h7.7425q2.4 0 2.4-2.4v-33.808q0-2.4-2.4-2.4h-7.7425q-2.4 0-2.4 2.4z" clip-path="url(#a)" fill="#fff" stroke="#fff"/>
<g clip-path="url(#a)">
<g transform="translate(78.399 814.57) rotate(90) scale(.08 -.08)">
<use xlink:href="#k"/>
<use x="44.083984" xlink:href="#d"/>
<use x="105.607422" xlink:href="#i"/>
<use x="144.970703" xlink:href="#l"/>
<use x="242.382812" xlink:href="#h"/>
<use x="270.166016" xlink:href="#g"/>
<use x="333.544922" xlink:href="#f"/>
<use x="394.824219" xlink:href="#j"/>
</g>
</g>
<path d="m81.629 814.57v33.808q0 2.4 2.4 2.4h7.7425q2.4 0 2.4-2.4v-33.808q0-2.4-2.4-2.4h-7.7425q-2.4 0-2.4 2.4z" clip-path="url(#a)" fill="#fff" stroke="#fff"/>
<g clip-path="url(#a)">
<g transform="translate(85.693 814.57) rotate(90) scale(.08 -.08)">
<use xlink:href="#k"/>
<use x="44.083984" xlink:href="#d"/>
<use x="105.607422" xlink:href="#i"/>
<use x="144.970703" xlink:href="#l"/>
<use x="242.382812" xlink:href="#h"/>
<use x="270.166016" xlink:href="#g"/>
<use x="333.544922" xlink:href="#f"/>
<use x="394.824219" xlink:href="#j"/>
</g>
</g>
<path d="m200.78 814.57v33.808q0 2.4 2.4 2.4h7.7425q2.4 0 2.4-2.4v-33.808q0-2.4-2.4-2.4h-7.7425q-2.4 0-2.4 2.4z" clip-path="url(#a)" fill="#fff" stroke="#fff"/>
<g clip-path="url(#a)">
<g transform="translate(204.84 814.57) rotate(90) scale(.08 -.08)">
<use xlink:href="#k"/>
<use x="44.083984" xlink:href="#d"/>
<use x="105.607422" xlink:href="#i"/>
<use x="144.970703" xlink:href="#l"/>
<use x="242.382812" xlink:href="#h"/>
<use x="270.166016" xlink:href="#g"/>
<use x="333.544922" xlink:href="#f"/>
<use x="394.824219" xlink:href="#j"/>
</g>
</g>
<path d="m529.04 814.57v33.808q0 2.4 2.4 2.4h7.7425q2.4 0 2.4-2.4v-33.808q0-2.4-2.4-2.4h-7.7425q-2.4 0-2.4 2.4z" clip-path="url(#a)" fill="#fff" stroke="#fff"/>
<g clip-path="url(#a)">
<g transform="translate(533.1 814.57) rotate(90) scale(.08 -.08)">
<use xlink:href="#k"/>
<use x="44.083984" xlink:href="#d"/>
<use x="105.607422" xlink:href="#i"/>
<use x="144.970703" xlink:href="#l"/>
<use x="242.382812" xlink:href="#h"/>
<use x="270.166016" xlink:href="#g"/>
<use x="333.544922" xlink:href="#f"/>
<use x="394.824219" xlink:href="#j"/>
</g>
</g>
<path d="m738.15 814.57v33.808q0 2.4 2.4 2.4h7.7425q2.4 0 2.4-2.4v-33.808q0-2.4-2.4-2.4h-7.7425q-2.4 0-2.4 2.4z" clip-path="url(#a)" fill="#fff" stroke="#fff"/>
<g clip-path="url(#a)">
<g transform="translate(742.21 814.57) rotate(90) scale(.08 -.08)">
<use xlink:href="#k"/>
<use x="44.083984" xlink:href="#d"/>
<use x="105.607422" xlink:href="#i"/>
<use x="144.970703" xlink:href="#l"/>
<use x="242.382812" xlink:href="#h"/>
<use x="270.166016" xlink:href="#g"/>
<use x="333.544922" xlink:href="#f"/>
<use x="394.824219" xlink:href="#j"/>
</g>
</g>
<path d="m920.52 814.57v33.808q0 2.4 2.4 2.4h7.7425q2.4 0 2.4-2.4v-33.808q0-2.4-2.4-2.4h-7.7425q-2.4 0-2.4 2.4z" clip-path="url(#a)" fill="#fff" stroke="#fff"/>
<g clip-path="url(#a)">
<g transform="translate(924.58 814.57) rotate(90) scale(.08 -.08)">
<use xlink:href="#k"/>
<use x="44.083984" xlink:href="#d"/>
<use x="105.607422" xlink:href="#i"/>
<use x="144.970703" xlink:href="#l"/>
<use x="242.382812" xlink:href="#h"/>
<use x="270.166016" xlink:href="#g"/>
<use x="333.544922" xlink:href="#f"/>
<use x="394.824219" xlink:href="#j"/>
</g>
</g>
<path d="m1054.3 814.57v33.808q0 2.4 2.4 2.4h7.7425q2.4 0 2.4-2.4v-33.808q0-2.4-2.4-2.4h-7.7425q-2.4 0-2.4 2.4z" clip-path="url(#a)" fill="#fff" stroke="#fff"/>
<g clip-path="url(#a)">
<g transform="translate(1058.3 814.57) rotate(90) scale(.08 -.08)">
<use xlink:href="#k"/>
<use x="44.083984" xlink:href="#d"/>
<use x="105.607422" xlink:href="#i"/>
<use x="144.970703" xlink:href="#l"/>
<use x="242.382812" xlink:href="#h"/>
<use x="270.166016" xlink:href="#g"/>
<use x="333.544922" xlink:href="#f"/>
<use x="394.824219" xlink:href="#j"/>
</g>
</g>
<path d="m1686.5 814.57v33.808q0 2.4 2.4 2.4h7.7425q2.4 0 2.4-2.4v-33.808q0-2.4-2.4-2.4h-7.7425q-2.4 0-2.4 2.4z" clip-path="url(#a)" fill="#fff" stroke="#fff"/>
<g clip-path="url(#a)">
<g transform="translate(1690.5 814.57) rotate(90) scale(.08 -.08)">
<use xlink:href="#k"/>
<use x="44.083984" xlink:href="#d"/>
<use x="105.607422" xlink:href="#i"/>
<use x="144.970703" xlink:href="#l"/>
<use x="242.382812" xlink:href="#h"/>
<use x="270.166016" xlink:href="#g"/>
<use x="333.544922" xlink:href="#f"/>
<use x="394.824219" xlink:href="#j"/>
</g>
</g>
<defs>
<path id="b" d="m0 8.6603c2.2967 0 4.4997-0.9125 6.1237-2.5365 1.624-1.624 2.5365-3.827 2.5365-6.1237s-0.9125-4.4997-2.5365-6.1237c-1.624-1.624-3.827-2.5365-6.1237-2.5365s-4.4997 0.9125-6.1237 2.5365c-1.624 1.624-2.5365 3.827-2.5365 6.1237s0.9125 4.4997 2.5365 6.1237c1.624 1.624 3.827 2.5365 6.1237 2.5365z"/>
</defs>
<g clip-path="url(#a)" fill="#ffffff" stroke="#ffffff">
<use x="80.606061" y="890.909091" xlink:href="#b"/>
<use x="87.900727" y="890.909091" xlink:href="#b"/>
<use x="97.626948" y="890.909091" xlink:href="#b"/>
<use x="109.784725" y="890.909091" xlink:href="#b"/>
<use x="124.374057" y="890.909091" xlink:href="#b"/>
<use x="141.394945" y="890.909091" xlink:href="#b"/>
<use x="160.847388" y="890.909091" xlink:href="#b"/>
<use x="182.731386" y="890.909091" xlink:href="#b"/>
<use x="207.04694" y="890.909091" xlink:href="#b"/>
<use x="233.794049" y="890.909091" xlink:href="#b"/>
<use x="262.972714" y="890.909091" xlink:href="#b"/>
<use x="294.582933" y="890.909091" xlink:href="#b"/>
<use x="328.624709" y="890.909091" xlink:href="#b"/>
<use x="365.098039" y="890.909091" xlink:href="#b"/>
<use x="404.002925" y="890.909091" xlink:href="#b"/>
<use x="445.339367" y="890.909091" xlink:href="#b"/>
<use x="489.107363" y="890.909091" xlink:href="#b"/>
<use x="535.306915" y="890.909091" xlink:href="#b"/>
<use x="583.938023" y="890.909091" xlink:href="#b"/>
<use x="635.000686" y="890.909091" xlink:href="#b"/>
<use x="688.494904" y="890.909091" xlink:href="#b"/>
<use x="744.420677" y="890.909091" xlink:href="#b"/>
<use x="802.778006" y="890.909091" xlink:href="#b"/>
<use x="863.566891" y="890.909091" xlink:href="#b"/>
<use x="926.78733" y="890.909091" xlink:href="#b"/>
<use x="992.439325" y="890.909091" xlink:href="#b"/>
<use x="1060.522876" y="890.909091" xlink:href="#b"/>
<use x="1131.037982" y="890.909091" xlink:href="#b"/>
<use x="1203.984643" y="890.909091" xlink:href="#b"/>
<use x="1279.362859" y="890.909091" xlink:href="#b"/>
<use x="1357.172631" y="890.909091" xlink:href="#b"/>
<use x="1437.413959" y="890.909091" xlink:href="#b"/>
<use x="1520.086841" y="890.909091" xlink:href="#b"/>
<use x="1605.191279" y="890.909091" xlink:href="#b"/>
<use x="1692.727273" y="890.909091" xlink:href="#b"/>
<use x="306.117624" y="42.424242" xlink:href="#b"/>
<use x="84.253394" y="651.502906" xlink:href="#b"/>
<use x="97.626948" y="772.032848" xlink:href="#b"/>
<use x="146.562" y="530.340794" xlink:href="#b"/>
<use x="995.098839" y="164.756596" xlink:href="#b"/>
<use x="233.794049" y="772.032848" xlink:href="#b"/>
<use x="262.972714" y="772.032848" xlink:href="#b"/>
<use x="448.78407" y="286.884284" xlink:href="#b"/>
<use x="1204.795161" y="772.032848" xlink:href="#b"/>
<use x="1452.003291" y="530.340794" xlink:href="#b"/>
<use x="1605.191279" y="772.032848" xlink:href="#b"/>
<use x="1357.172631" y="772.032848" xlink:href="#b"/>
<use x="1478.7504" y="651.502906" xlink:href="#b"/>
<use x="1520.086841" y="772.032848" xlink:href="#b"/>
<use x="1437.413959" y="772.032848" xlink:href="#b"/>
<use x="294.582933" y="772.032848" xlink:href="#b"/>
<use x="328.624709" y="772.032848" xlink:href="#b"/>
<use x="365.098039" y="772.032848" xlink:href="#b"/>
<use x="446.149885" y="651.502906" xlink:href="#b"/>
<use x="722.941938" y="408.766317" xlink:href="#b"/>
<use x="583.938023" y="772.032848" xlink:href="#b"/>
<use x="746.446974" y="530.340794" xlink:href="#b"/>
<use x="992.439325" y="772.032848" xlink:href="#b"/>
<use x="661.747795" y="651.502906" xlink:href="#b"/>
<use x="833.172448" y="772.032848" xlink:href="#b"/>
<use x="635.000686" y="772.032848" xlink:href="#b"/>
<use x="688.494904" y="772.032848" xlink:href="#b"/>
<use x="404.002925" y="772.032848" xlink:href="#b"/>
<use x="445.339367" y="772.032848" xlink:href="#b"/>
<use x="489.107363" y="772.032848" xlink:href="#b"/>
<use x="109.784725" y="772.032848" xlink:href="#b"/>
<use x="132.884501" y="651.502906" xlink:href="#b"/>
<use x="160.847388" y="772.032848" xlink:href="#b"/>
<use x="182.731386" y="772.032848" xlink:href="#b"/>
<use x="124.374057" y="772.032848" xlink:href="#b"/>
<use x="141.394945" y="772.032848" xlink:href="#b"/>
<use x="80.606061" y="772.032848" xlink:href="#b"/>
<use x="87.900727" y="772.032848" xlink:href="#b"/>
<use x="207.04694" y="772.032848" xlink:href="#b"/>
<use x="535.306915" y="772.032848" xlink:href="#b"/>
<use x="744.420677" y="772.032848" xlink:href="#b"/>
<use x="926.78733" y="772.032848" xlink:href="#b"/>
<use x="1060.522876" y="772.032848" xlink:href="#b"/>
<use x="1692.727273" y="772.032848" xlink:href="#b"/>
</g>
<g clip-path="url(#a)">
<defs>
<path id="at" d="m9.8125 72.906h9.8594v-30.812l32.719 30.812h12.703l-36.188-33.984 38.766-38.922h-12.984l-35.016 35.109v-35.109h-9.8594z"/>
<path id="ba" d="m18.109 8.2031v-29h-9.0312v75.484h9.0312v-8.2969q2.8438 4.875 7.1562 7.2344 4.3281 2.375 10.328 2.375 9.9688 0 16.188-7.9062 6.2344-7.9062 6.2344-20.797t-6.2344-20.812q-6.2188-7.9062-16.188-7.9062-6 0-10.328 2.375-4.3125 2.375-7.1562 7.25zm30.578 19.094q0 9.9062-4.0781 15.547t-11.203 5.6406q-7.1406 0-11.219-5.6406t-4.0781-15.547 4.0781-15.547 11.219-5.6406q7.125 0 11.203 5.6406t4.0781 15.547z"/>
<path id="v" d="m18.312 70.219v-15.531h18.5v-6.9844h-18.5v-29.688q0-6.6875 1.8281-8.5938t7.4531-1.9062h9.2188v-7.5156h-9.2188q-10.406 0-14.359 3.875-3.9531 3.8906-3.9531 14.141v29.688h-6.5938v6.9844h6.5938v15.531z"/>
</defs>
<g transform="translate(63.362 893.67) scale(.1 -.1)">
<use xlink:href="#at"/>
<use x="63.826172" xlink:href="#f"/>
<use x="125.105469" xlink:href="#ba"/>
<use x="188.582031" xlink:href="#h"/>
<use x="216.365234" xlink:href="#v"/>
<use x="255.574219" xlink:href="#d"/>
<use x="317.097656" xlink:href="#j"/>
</g>
</g>
<g clip-path="url(#a)">
<defs>
<path id="av" d="m9.8125 72.906h9.8594v-72.906h-9.8594z"/>
</defs>
<g transform="translate(86.426 893.67) scale(.1 -.1)">
<use xlink:href="#av"/>
</g>
</g>
<g clip-path="url(#a)">
<defs>
<path id="p" d="m44.281 53.078v-8.5q-3.7969 1.9531-7.9062 2.9219-4.0938 0.98438-8.5 0.98438-6.6875 0-10.031-2.0469t-3.3438-6.1562q0-3.125 2.3906-4.9062t9.625-3.3906l3.0781-0.6875q9.5625-2.0469 13.594-5.7812t4.0312-10.422q0-7.625-6.0312-12.078-6.0312-4.4375-16.578-4.4375-4.3906 0-9.1562 0.85938t-10.031 2.5625v9.2812q4.9844-2.5938 9.8125-3.8906 4.8281-1.2812 9.5781-1.2812 6.3438 0 9.75 2.1719 3.4219 2.1719 3.4219 6.125 0 3.6562-2.4688 5.6094-2.4531 1.9531-10.812 3.7656l-3.125 0.73438q-8.3438 1.75-12.062 5.3906-3.7031 3.6406-3.7031 9.9844 0 7.7188 5.4688 11.906 5.4688 4.2031 15.531 4.2031 4.9688 0 9.3594-0.73438 4.4062-0.71875 8.1094-2.1875z"/>
</defs>
<g transform="translate(90.213 893.67) scale(.1 -.1)">
<use xlink:href="#r"/>
<use x="68.408203" xlink:href="#j"/>
<use x="96.191406" xlink:href="#p"/>
</g>
</g>
<g clip-path="url(#a)">
<defs>
<path id="s" d="m48.781 52.594v-8.4062q-3.8125 2.1094-7.6406 3.1562t-7.7344 1.0469q-8.75 0-13.594-5.5469-4.8281-5.5312-4.8281-15.547t4.8281-15.562q4.8438-5.5312 13.594-5.5312 3.9062 0 7.7344 1.0469t7.6406 3.1562v-8.3125q-3.7656-1.75-7.7969-2.625-4.0156-0.89062-8.5625-0.89062-12.359 0-19.641 7.7656-7.2656 7.7656-7.2656 20.953 0 13.375 7.3438 21.031 7.3594 7.6719 20.156 7.6719 4.1406 0 8.0938-0.85938 3.9531-0.84375 7.6719-2.5469z"/>
<path id="q" d="m54.891 33.016v-33.016h-8.9844v32.719q0 7.7656-3.0312 11.609-3.0312 3.8594-9.0781 3.8594-7.2812 0-11.484-4.6406-4.2031-4.625-4.2031-12.641v-30.906h-9.0312v75.984h9.0312v-29.797q3.2344 4.9375 7.5938 7.375 4.375 2.4375 10.094 2.4375 9.4219 0 14.25-5.8281 4.8438-5.8281 4.8438-17.156z"/>
</defs>
<g transform="translate(102.48 893.67) scale(.1 -.1)">
<use xlink:href="#h"/>
<use x="27.783203" xlink:href="#s"/>
<use x="82.763672" xlink:href="#q"/>
</g>
</g>
<g clip-path="url(#a)">
<g transform="translate(110.17 893.67) scale(.1 -.1)">
<use xlink:href="#p"/>
<use x="52.099609" xlink:href="#d"/>
<use x="113.623047" xlink:href="#s"/>
<use x="168.603516" xlink:href="#q"/>
<use x="231.982422" xlink:href="#p"/>
</g>
</g>
<g clip-path="url(#a)">
<defs>
<path id="au" d="m9.8125 72.906h9.8594v-67.828q0-13.188-5-19.141t-16.094-5.9531h-3.75v8.2969h3.0781q6.5312 0 9.2188 3.6719 2.6875 3.6562 2.6875 13.125z"/>
</defs>
<g transform="translate(128.67 893.67) scale(.1 -.1)">
<use xlink:href="#au"/>
<use x="29.492188" xlink:href="#f"/>
<use x="90.771484" xlink:href="#q"/>
<use x="154.150391" xlink:href="#i"/>
<use x="193.013672" xlink:href="#d"/>
</g>
</g>
<g clip-path="url(#a)">
<g transform="translate(154.43 893.67) scale(.1 -.1)">
<use xlink:href="#f"/>
<use x="61.279297" xlink:href="#j"/>
<use x="89.0625" xlink:href="#v"/>
</g>
</g>
<g clip-path="url(#a)">
<defs>
<path id="ak" d="m4.2031 54.688h8.9844l11.234-42.672 11.172 42.672h10.594l11.234-42.672 11.188 42.672h8.9844l-14.312-54.688h-10.594l-11.766 44.828-11.812-44.828h-10.609z"/>
</defs>
<g transform="translate(173.52 893.67) scale(.1 -.1)">
<use xlink:href="#ak"/>
<use x="81.787109" xlink:href="#f"/>
<use x="143.066406" xlink:href="#i"/>
</g>
</g>
<g clip-path="url(#a)">
<defs>
<path id="aj" d="m11.719 12.406h10.297v-8.4062l-8-15.625h-6.2969l4 15.625z"/>
</defs>
<g transform="translate(205.46 893.67) scale(.1 -.1)">
<use xlink:href="#aj"/>
</g>
</g>
<g clip-path="url(#a)">
<defs>
<path id="af" d="m48.688 27.297q0 9.9062-4.0781 15.547t-11.203 5.6406q-7.1406 0-11.219-5.6406t-4.0781-15.547 4.0781-15.547 11.219-5.6406q7.125 0 11.203 5.6406t4.0781 15.547zm-30.578 19.094q2.8438 4.875 7.1562 7.2344 4.3281 2.375 10.328 2.375 9.9688 0 16.188-7.9062 6.2344-7.9062 6.2344-20.797t-6.2344-20.812q-6.2188-7.9062-16.188-7.9062-6 0-10.328 2.375-4.3125 2.375-7.1562 7.25v-8.2031h-9.0312v75.984h9.0312z"/>
</defs>
<g transform="translate(221.31 893.67) scale(.1 -.1)">
<use xlink:href="#q"/>
<use x="63.378906" xlink:href="#f"/>
<use x="124.658203" xlink:href="#af"/>
<use x="188.134766" xlink:href="#d"/>
</g>
</g>
<g clip-path="url(#a)">
<g transform="translate(255.67 893.67) scale(.1 -.1)">
<use xlink:href="#h"/>
<use x="27.783203" xlink:href="#s"/>
<use x="82.763672" xlink:href="#q"/>
</g>
</g>
<g clip-path="url(#a)">
<g transform="translate(290.03 893.67) scale(.1 -.1)">
<use xlink:href="#h"/>
<use x="27.783203" xlink:href="#g"/>
</g>
</g>
<g clip-path="url(#a)">
<g transform="translate(313.04 893.67) scale(.1 -.1)">
<use xlink:href="#d"/>
<use x="61.523438" xlink:href="#h"/>
<use x="89.306641" xlink:href="#g"/>
<use x="152.685547" xlink:href="#d"/>
<use x="214.208984" xlink:href="#l"/>
</g>
</g>
<g clip-path="url(#a)">
<defs>
<path id="am" d="m19.672 34.812v-26.703h15.828q7.9531 0 11.781 3.2969 3.8438 3.2969 3.8438 10.078 0 6.8438-3.8438 10.078-3.8281 3.25-11.781 3.25zm0 29.984v-21.969h14.609q7.2188 0 10.75 2.7031 3.5469 2.7188 3.5469 8.2812 0 5.5156-3.5469 8.25-3.5312 2.7344-10.75 2.7344zm-9.8594 8.1094h25.203q11.281 0 17.375-4.6875 6.1094-4.6875 6.1094-13.328 0-6.7031-3.125-10.656t-9.1875-4.9219q7.2812-1.5625 11.312-6.5312 4.0312-4.9531 4.0312-12.375 0-9.7656-6.6406-15.094-6.6406-5.3125-18.906-5.3125h-26.172z"/>
<path id="al" d="m8.5 21.578v33.109h8.9844v-32.766q0-7.7656 3.0156-11.656 3.0312-3.875 9.0938-3.875 7.2656 0 11.484 4.6406 4.2344 4.6406 4.2344 12.656v31h8.9844v-54.688h-8.9844v8.4062q-3.2656-4.9844-7.5938-7.4062-4.3125-2.4219-10.031-2.4219-9.4219 0-14.312 5.8594-4.875 5.8594-4.875 17.141z"/>
</defs>
<g transform="translate(352.58 893.67) scale(.1 -.1)">
<use xlink:href="#am"/>
<use x="68.603516" xlink:href="#al"/>
<use x="131.982422" xlink:href="#s"/>
<use x="186.962891" xlink:href="#q"/>
</g>
</g>
<g clip-path="url(#a)">
<defs>
<path id="ay" d="m8.5 21.578v33.109h8.9844v-32.766q0-7.7656 3.0156-11.656 3.0312-3.875 9.0938-3.875 7.2656 0 11.484 4.6406 4.2344 4.6406 4.2344 12.656v31h8.9844v-54.688h-8.9844v8.4062q-3.2656-4.9844-7.5938-7.4062-4.3125-2.4219-10.031-2.4219-9.4219 0-14.312 5.8594-4.875 5.8594-4.875 17.141zm22.609 34.422m4.4844 19.781h9.9062v-9.8594h-9.9062zm-19.094 0h9.9062v-9.8594h-9.9062z"/>
</defs>
<g transform="translate(392.53 893.67) scale(.1 -.1)">
<use xlink:href="#ay"/>
<use x="63.378906" xlink:href="#af"/>
<use x="126.855469" xlink:href="#d"/>
<use x="188.378906" xlink:href="#i"/>
</g>
</g>
<g clip-path="url(#a)">
<defs>
<path id="w" d="m45.406 46.391v29.594h8.9844v-75.984h-8.9844v8.2031q-2.8281-4.875-7.1562-7.25-4.3125-2.375-10.375-2.375-9.9062 0-16.141 7.9062-6.2188 7.9219-6.2188 20.812t6.2188 20.797q6.2344 7.9062 16.141 7.9062 6.0625 0 10.375-2.375 4.3281-2.3594 7.1562-7.2344zm-30.609-19.094q0-9.9062 4.0781-15.547t11.203-5.6406 11.219 5.6406q4.1094 5.6406 4.1094 15.547t-4.1094 15.547q-4.0938 5.6406-11.219 5.6406t-11.203-5.6406-4.0781-15.547z"/>
</defs>
<g transform="translate(435.92 893.67) scale(.1 -.1)">
<use xlink:href="#w"/>
<use x="63.476562" xlink:href="#d"/>
<use x="125" xlink:href="#g"/>
</g>
</g>
<g clip-path="url(#a)">
<g transform="translate(471.68 893.67) scale(.1 -.1)">
<use xlink:href="#t"/>
<use x="73.193359" xlink:href="#i"/>
<use x="114.306641" xlink:href="#ak"/>
<use x="196.09375" xlink:href="#f"/>
<use x="257.373047" xlink:href="#j"/>
<use x="285.15625" xlink:href="#w"/>
</g>
</g>
<g clip-path="url(#a)">
<g transform="translate(533.72 893.67) scale(.1 -.1)">
<use xlink:href="#aj"/>
</g>
</g>
<g clip-path="url(#a)">
<g transform="translate(575.1 893.67) scale(.1 -.1)">
<use xlink:href="#w"/>
<use x="63.476562" xlink:href="#f"/>
<use x="124.755859" xlink:href="#p"/>
</g>
</g>
<g clip-path="url(#a)">
<g transform="translate(625.58 893.67) scale(.1 -.1)">
<use xlink:href="#w"/>
<use x="63.476562" xlink:href="#d"/>
<use x="125" xlink:href="#g"/>
</g>
</g>
<g clip-path="url(#a)">
<g transform="translate(677.78 893.67) scale(.1 -.1)">
<use xlink:href="#k"/>
<use x="57.958984" xlink:href="#h"/>
<use x="85.742188" xlink:href="#v"/>
<use x="124.951172" xlink:href="#d"/>
<use x="186.474609" xlink:href="#j"/>
</g>
</g>
<g clip-path="url(#a)">
<defs>
<path id="an" d="m17.922 72.906v-27.109h-8.2969v27.109zm18.453 0v-27.109h-8.2969v27.109z"/>
</defs>
<g transform="translate(742.12 893.67) scale(.1 -.1)">
<use xlink:href="#an"/>
</g>
</g>
<g clip-path="url(#a)">
<g transform="translate(784.89 893.67) scale(.1 -.1)">
<use xlink:href="#y"/>
<use x="63.183594" xlink:href="#i"/>
<use x="104.296875" xlink:href="#j"/>
<use x="132.080078" xlink:href="#d"/>
<use x="193.603516" xlink:href="#af"/>
<use x="257.080078" xlink:href="#v"/>
<use x="296.289062" xlink:href="#d"/>
</g>
</g>
<g clip-path="url(#a)">
<defs>
<path id="aw" d="m59.516 10.406v19.578h-16.109v8.1094h25.875v-31.312q-5.7031-4.0469-12.594-6.125-6.875-2.0781-14.688-2.0781-17.094 0-26.75 9.9844-9.6406 10-9.6406 27.812 0 17.875 9.6406 27.859 9.6562 9.9844 26.75 9.9844 7.125 0 13.547-1.7656 6.4219-1.75 11.844-5.1719v-10.5q-5.4688 4.6406-11.625 6.9844t-12.938 2.3438q-13.391 0-20.109-7.4688-6.7031-7.4688-6.7031-22.266 0-14.75 6.7031-22.219 6.7188-7.4688 20.109-7.4688 5.2188 0 9.3125 0.90625 4.1094 0.90625 7.375 2.8125z"/>
</defs>
<g transform="translate(832.58 893.67) scale(.1 -.1)">
<use xlink:href="#aw"/>
<use x="77.490234" xlink:href="#d"/>
<use x="139.013672" xlink:href="#p"/>
<use x="191.113281" xlink:href="#s"/>
<use x="246.09375" xlink:href="#q"/>
<use x="309.472656" xlink:href="#h"/>
<use x="337.255859" xlink:href="#s"/>
<use x="392.236328" xlink:href="#q"/>
<use x="455.615234" xlink:href="#v"/>
<use x="494.824219" xlink:href="#d"/>
<use x="556.347656" xlink:href="#g"/>
</g>
</g>
<g clip-path="url(#a)">
<g transform="translate(924.49 893.67) scale(.1 -.1)">
<use xlink:href="#an"/>
</g>
</g>
<g clip-path="url(#a)">
<defs>
<path id="ao" d="m45.406 27.984q0 9.7656-4.0312 15.125-4.0156 5.375-11.297 5.375-7.2188 0-11.25-5.375-4.0312-5.3594-4.0312-15.125 0-9.7188 4.0312-15.094t11.25-5.375q7.2812 0 11.297 5.375 4.0312 5.375 4.0312 15.094zm8.9844-21.203q0-13.953-6.2031-20.766-6.1875-6.8125-18.984-6.8125-4.7344 0-8.9375 0.70312t-8.1562 2.1719v8.7344q3.9531-2.1406 7.8125-3.1562 3.8594-1.0312 7.8594-1.0312 8.8438 0 13.234 4.6094t4.3906 13.938v4.4531q-2.7812-4.8438-7.125-7.2344t-10.406-2.3906q-10.047 0-16.203 7.6562-6.1562 7.6719-6.1562 20.328 0 12.688 6.1562 20.344 6.1562 7.6719 16.203 7.6719 6.0625 0 10.406-2.3906t7.125-7.2188v8.2969h8.9844z"/>
</defs>
<g transform="translate(982.08 893.67) scale(.1 -.1)">
<use xlink:href="#v"/>
<use x="39.208984" xlink:href="#i"/>
<use x="80.322266" xlink:href="#al"/>
<use x="143.701172" xlink:href="#ao"/>
</g>
</g>
<g clip-path="url(#a)">
<g transform="translate(1058.9 893.67) scale(.1 -.1)">
<use xlink:href="#aj"/>
</g>
</g>
<g clip-path="url(#a)">
<g transform="translate(1122.2 893.67) scale(.1 -.1)">
<use xlink:href="#w"/>
<use x="63.476562" xlink:href="#f"/>
<use x="124.755859" xlink:href="#p"/>
</g>
</g>
<g clip-path="url(#a)">
<g transform="translate(1191.2 893.67) scale(.1 -.1)">
<use xlink:href="#d"/>
<use x="61.523438" xlink:href="#i"/>
<use x="102.636719" xlink:href="#p"/>
<use x="154.736328" xlink:href="#v"/>
<use x="193.945312" xlink:href="#d"/>
</g>
</g>
<g clip-path="url(#a)">
<defs>
<path id="ar" d="m9.8125 72.906h14.703l18.594-49.609 18.703 49.609h14.703v-72.906h-9.625v64.016l-18.797-50h-9.9062l-18.797 50v-64.016h-9.5781z"/>
</defs>
<g transform="translate(1270.6 893.67) scale(.1 -.1)">
<use xlink:href="#ar"/>
<use x="86.279297" xlink:href="#f"/>
<use x="147.558594" xlink:href="#j"/>
</g>
</g>
<g clip-path="url(#a)">
<g transform="translate(1349.5 893.67) scale(.1 -.1)">
<use xlink:href="#d"/>
<use x="61.523438" xlink:href="#h"/>
<use x="89.306641" xlink:href="#g"/>
</g>
</g>
<g clip-path="url(#a)">
<defs>
<path id="az" d="m30.609 48.391q-7.2188 0-11.422-5.6406t-4.2031-15.453 4.1719-15.453q4.1875-5.6406 11.453-5.6406 7.1875 0 11.375 5.6562 4.2031 5.6719 4.2031 15.438 0 9.7188-4.2031 15.406-4.1875 5.6875-11.375 5.6875zm0 7.6094q11.719 0 18.406-7.625 6.7031-7.6094 6.7031-21.078 0-13.422-6.7031-21.078-6.6875-7.6406-18.406-7.6406-11.766 0-18.438 7.6406-6.6562 7.6562-6.6562 21.078 0 13.469 6.6562 21.078 6.6719 7.625 18.438 7.625zm4.6094 19.781h9.9062v-9.8594h-9.9062zm-19.094 0h9.9062v-9.8594h-9.9062z"/>
</defs>
<g transform="translate(1398.2 893.67) scale(.1 -.1)">
<use xlink:href="#ak"/>
<use x="81.787109" xlink:href="#al"/>
<use x="145.166016" xlink:href="#g"/>
<use x="208.544922" xlink:href="#w"/>
<use x="272.021484" xlink:href="#d"/>
<use x="333.544922" xlink:href="#i"/>
<use x="374.658203" xlink:href="#p"/>
<use x="426.757812" xlink:href="#s"/>
<use x="481.738281" xlink:href="#q"/>
<use x="545.117188" xlink:href="#az"/>
<use x="606.298828" xlink:href="#g"/>
<use x="669.677734" xlink:href="#d"/>
<use x="731.201172" xlink:href="#p"/>
</g>
</g>
<g clip-path="url(#a)">
<g transform="translate(1510.7 893.67) scale(.1 -.1)">
<use xlink:href="#am"/>
<use x="68.603516" xlink:href="#h"/>
<use x="96.386719" xlink:href="#j"/>
<use x="124.169922" xlink:href="#w"/>
</g>
</g>
<g clip-path="url(#a)">
<g transform="translate(1583.8 893.67) scale(.1 -.1)">
<use xlink:href="#ao"/>
<use x="63.476562" xlink:href="#d"/>
<use x="125" xlink:href="#p"/>
<use x="177.099609" xlink:href="#d"/>
<use x="238.623047" xlink:href="#q"/>
<use x="302.001953" xlink:href="#d"/>
<use x="363.525391" xlink:href="#g"/>
</g>
</g>
<g clip-path="url(#a)">
<defs>
<path id="e" d="m10.688 12.406h10.312v-12.406h-10.312z"/>
</defs>
<g transform="translate(1691.1 893.67) scale(.1 -.1)">
<use xlink:href="#e"/>
</g>
</g>
<g clip-path="url(#a)">
<defs>
<path id="c" d="m12.406 8.2969h16.109v55.625l-17.531-3.5156v8.9844l17.438 3.5156h9.8594v-64.609h16.109v-8.2969h-41.984z"/>
</defs>
<g transform="translate(298.17 45.184) scale(.1 -.1)">
<use xlink:href="#c"/>
<use x="63.623047" xlink:href="#e"/>
<use x="95.410156" xlink:href="#c"/>
</g>
</g>
<g clip-path="url(#a)">
<defs>
<path id="o" d="m19.188 8.2969h34.422v-8.2969h-46.281v8.2969q5.6094 5.8125 15.297 15.594 9.7031 9.7969 12.188 12.641 4.7344 5.3125 6.6094 9 1.8906 3.6875 1.8906 7.25 0 5.8125-4.0781 9.4688-4.0781 3.6719-10.625 3.6719-4.6406 0-9.7969-1.6094-5.1406-1.6094-11-4.8906v9.9688q5.9531 2.3906 11.125 3.6094 5.1875 1.2188 9.4844 1.2188 11.328 0 18.062-5.6719 6.7344-5.6562 6.7344-15.125 0-4.5-1.6875-8.5312-1.6719-4.0156-6.125-9.4844-1.2188-1.4219-7.7656-8.1875-6.5312-6.7656-18.453-18.922z"/>
</defs>
<g transform="translate(76.302 654.26) scale(.1 -.1)">
<use xlink:href="#c"/>
<use x="63.623047" xlink:href="#e"/>
<use x="95.410156" xlink:href="#o"/>
</g>
</g>
<g clip-path="url(#a)">
<defs>
<path id="m" d="m40.578 39.312q7.0781-1.5156 11.047-6.3125 3.9844-4.7812 3.9844-11.812 0-10.781-7.4219-16.703-7.4219-5.9062-21.094-5.9062-4.5781 0-9.4375 0.90625t-10.031 2.7188v9.5156q4.0938-2.3906 8.9688-3.6094 4.8906-1.2188 10.219-1.2188 9.2656 0 14.125 3.6562t4.8594 10.641q0 6.4531-4.5156 10.078-4.5156 3.6406-12.562 3.6406h-8.5v8.1094h8.8906q7.2656 0 11.125 2.9062t3.8594 8.375q0 5.6094-3.9844 8.6094-3.9688 3.0156-11.391 3.0156-4.0625 0-8.7031-0.89062-4.6406-0.875-10.203-2.7188v8.7812q5.625 1.5625 10.531 2.3438t9.25 0.78125q11.234 0 17.766-5.1094 6.5469-5.0938 6.5469-13.781 0-6.0625-3.4688-10.234t-9.8594-5.7812z"/>
</defs>
<g transform="translate(89.675 774.79) scale(.1 -.1)">
<use xlink:href="#c"/>
<use x="63.623047" xlink:href="#e"/>
<use x="95.410156" xlink:href="#m"/>
</g>
</g>
<g clip-path="url(#a)">
<defs>
<path id="n" d="m37.797 64.312-24.906-38.922h24.906zm-2.5938 8.5938h12.406v-47.516h10.406v-8.2031h-10.406v-17.188h-9.8125v17.188h-32.906v9.5156z"/>
</defs>
<g transform="translate(138.61 533.1) scale(.1 -.1)">
<use xlink:href="#c"/>
<use x="63.623047" xlink:href="#e"/>
<use x="95.410156" xlink:href="#n"/>
</g>
</g>
<g clip-path="url(#a)">
<defs>
<path id="z" d="m10.797 72.906h38.719v-8.3125h-29.688v-17.859q2.1406 0.73438 4.2812 1.0938 2.1562 0.35938 4.3125 0.35938 12.203 0 19.328-6.6875 7.1406-6.6875 7.1406-18.109 0-11.766-7.3281-18.297-7.3281-6.5156-20.656-6.5156-4.5938 0-9.3594 0.78125-4.75 0.78125-9.8281 2.3438v9.9219q4.3906-2.3906 9.0781-3.5625t9.9062-1.1719q8.4531 0 13.375 4.4375 4.9375 4.4375 4.9375 12.062 0 7.6094-4.9375 12.047-4.9219 4.4531-13.375 4.4531-3.9531 0-7.8906-0.875-3.9219-0.875-8.0156-2.7344z"/>
</defs>
<g transform="translate(987.15 167.52) scale(.1 -.1)">
<use xlink:href="#c"/>
<use x="63.623047" xlink:href="#e"/>
<use x="95.410156" xlink:href="#z"/>
</g>
</g>
<g clip-path="url(#a)">
<defs>
<path id="ac" d="m31.781 34.625q-7.0312 0-11.062-3.7656-4.0156-3.7656-4.0156-10.344 0-6.5938 4.0156-10.359 4.0312-3.7656 11.062-3.7656t11.078 3.7812q4.0625 3.7969 4.0625 10.344 0 6.5781-4.0312 10.344-4.0156 3.7656-11.109 3.7656zm-9.8594 4.1875q-6.3438 1.5625-9.8906 5.9062-3.5312 4.3594-3.5312 10.609 0 8.7344 6.2188 13.812 6.2344 5.0781 17.062 5.0781 10.891 0 17.094-5.0781t6.2031-13.812q0-6.25-3.5469-10.609-3.5312-4.3438-9.8281-5.9062 7.125-1.6562 11.094-6.5 3.9844-4.8281 3.9844-11.797 0-10.609-6.4688-16.281-6.4688-5.6562-18.531-5.6562-12.047 0-18.531 5.6562-6.4688 5.6719-6.4688 16.281 0 6.9688 4 11.797 4.0156 4.8438 11.141 6.5zm-3.6094 15.578q0-5.6562 3.5312-8.8281 3.5469-3.1719 9.9375-3.1719 6.3594 0 9.9375 3.1719 3.5938 3.1719 3.5938 8.8281 0 5.6719-3.5938 8.8438-3.5781 3.1719-9.9375 3.1719-6.3906 0-9.9375-3.1719-3.5312-3.1719-3.5312-8.8438z"/>
</defs>
<g transform="translate(225.84 774.79) scale(.1 -.1)">
<use xlink:href="#c"/>
<use x="63.623047" xlink:href="#e"/>
<use x="95.410156" xlink:href="#ac"/>
</g>
</g>
<g clip-path="url(#a)">
<defs>
<path id="aa" d="m10.984 1.5156v8.9844q3.7188-1.7656 7.5156-2.6875 3.8125-0.92188 7.4844-0.92188 9.7656 0 14.906 6.5625 5.1562 6.5625 5.8906 19.953-2.8281-4.2031-7.1875-6.4531-4.3438-2.25-9.6094-2.25-10.938 0-17.312 6.6094-6.375 6.625-6.375 18.109 0 11.219 6.6406 18 6.6406 6.7969 17.672 6.7969 12.656 0 19.312-9.7031 6.6719-9.6875 6.6719-28.141 0-17.234-8.1875-27.516-8.1719-10.281-21.984-10.281-3.7188 0-7.5312 0.73438-3.7969 0.73438-7.9062 2.2031zm19.625 30.906q6.6406 0 10.516 4.5312 3.8906 4.5469 3.8906 12.469 0 7.8594-3.8906 12.422-3.875 4.5625-10.516 4.5625t-10.516-4.5625-3.875-12.422q0-7.9219 3.875-12.469 3.875-4.5312 10.516-4.5312z"/>
</defs>
<g transform="translate(255.02 774.79) scale(.1 -.1)">
<use xlink:href="#c"/>
<use x="63.623047" xlink:href="#e"/>
<use x="95.410156" xlink:href="#aa"/>
</g>
</g>
<g clip-path="url(#a)">
<defs>
<path id="ab" d="m31.781 66.406q-7.6094 0-11.453-7.5-3.8281-7.4844-3.8281-22.531 0-14.984 3.8281-22.484 3.8438-7.5 11.453-7.5 7.6719 0 11.5 7.5 3.8438 7.5 3.8438 22.484 0 15.047-3.8438 22.531-3.8281 7.5-11.5 7.5zm0 7.8125q12.266 0 18.734-9.7031 6.4688-9.6875 6.4688-28.141 0-18.406-6.4688-28.109-6.4688-9.6875-18.734-9.6875-12.25 0-18.719 9.6875-6.4688 9.7031-6.4688 28.109 0 18.453 6.4688 28.141 6.4688 9.7031 18.719 9.7031z"/>
</defs>
<g transform="translate(437.65 289.64) scale(.1 -.1)">
<use xlink:href="#c"/>
<use x="63.623047" xlink:href="#e"/>
<use x="95.410156" xlink:href="#c"/>
<use x="159.033203" xlink:href="#ab"/>
</g>
</g>
<g clip-path="url(#a)">
<g transform="translate(1193.7 774.79) scale(.1 -.1)">
<use xlink:href="#c"/>
<use x="63.623047" xlink:href="#e"/>
<use x="95.410156" xlink:href="#c"/>
<use x="159.033203" xlink:href="#c"/>
</g>
</g>
<g clip-path="url(#a)">
<g transform="translate(1440.9 533.1) scale(.1 -.1)">
<use xlink:href="#c"/>
<use x="63.623047" xlink:href="#e"/>
<use x="95.410156" xlink:href="#c"/>
<use x="159.033203" xlink:href="#o"/>
</g>
</g>
<g clip-path="url(#a)">
<g transform="translate(1594.1 774.79) scale(.1 -.1)">
<use xlink:href="#c"/>
<use x="63.623047" xlink:href="#e"/>
<use x="95.410156" xlink:href="#c"/>
<use x="159.033203" xlink:href="#m"/>
</g>
</g>
<g clip-path="url(#a)">
<g transform="translate(1346 774.79) scale(.1 -.1)">
<use xlink:href="#c"/>
<use x="63.623047" xlink:href="#e"/>
<use x="95.410156" xlink:href="#c"/>
<use x="159.033203" xlink:href="#z"/>
</g>
</g>
<g clip-path="url(#a)">
<defs>
<path id="ae" d="m33.016 40.375q-6.6406 0-10.531-4.5469-3.875-4.5312-3.875-12.438 0-7.8594 3.875-12.438 3.8906-4.5625 10.531-4.5625t10.516 4.5625q3.875 4.5781 3.875 12.438 0 7.9062-3.875 12.438-3.875 4.5469-10.516 4.5469zm19.578 30.922v-8.9844q-3.7188 1.75-7.5 2.6719-3.7812 0.9375-7.5 0.9375-9.7656 0-14.922-6.5938-5.1406-6.5938-5.875-19.922 2.875 4.25 7.2188 6.5156 4.3594 2.2656 9.5781 2.2656 10.984 0 17.359-6.6719 6.375-6.6562 6.375-18.125 0-11.234-6.6406-18.031-6.6406-6.7812-17.672-6.7812-12.656 0-19.344 9.6875-6.6875 9.7031-6.6875 28.109 0 17.281 8.2031 27.562t22.016 10.281q3.7188 0 7.5-0.73438t7.8906-2.1875z"/>
</defs>
<g transform="translate(1467.6 654.26) scale(.1 -.1)">
<use xlink:href="#c"/>
<use x="63.623047" xlink:href="#e"/>
<use x="95.410156" xlink:href="#c"/>
<use x="159.033203" xlink:href="#ae"/>
</g>
</g>
<g clip-path="url(#a)">
<defs>
<path id="ad" d="m8.2031 72.906h46.875v-4.2031l-26.469-68.703h-10.297l24.906 64.594h-35.016z"/>
</defs>
<g transform="translate(1509 774.79) scale(.1 -.1)">
<use xlink:href="#c"/>
<use x="63.623047" xlink:href="#e"/>
<use x="95.410156" xlink:href="#c"/>
<use x="159.033203" xlink:href="#ad"/>
</g>
</g>
<g clip-path="url(#a)">
<g transform="translate(1426.3 774.79) scale(.1 -.1)">
<use xlink:href="#c"/>
<use x="63.623047" xlink:href="#e"/>
<use x="95.410156" xlink:href="#c"/>
<use x="159.033203" xlink:href="#ac"/>
</g>
</g>
<g clip-path="url(#a)">
<g transform="translate(283.45 774.79) scale(.1 -.1)">
<use xlink:href="#c"/>
<use x="63.623047" xlink:href="#e"/>
<use x="95.410156" xlink:href="#c"/>
<use x="159.033203" xlink:href="#aa"/>
</g>
</g>
<g clip-path="url(#a)">
<g transform="translate(317.49 774.79) scale(.1 -.1)">
<use xlink:href="#c"/>
<use x="63.623047" xlink:href="#e"/>
<use x="95.410156" xlink:href="#o"/>
<use x="159.033203" xlink:href="#ab"/>
</g>
</g>
<g clip-path="url(#a)">
<g transform="translate(353.97 774.79) scale(.1 -.1)">
<use xlink:href="#c"/>
<use x="63.623047" xlink:href="#e"/>
<use x="95.410156" xlink:href="#o"/>
<use x="159.033203" xlink:href="#c"/>
</g>
</g>
<g clip-path="url(#a)">
<g transform="translate(435.02 654.26) scale(.1 -.1)">
<use xlink:href="#c"/>
<use x="63.623047" xlink:href="#e"/>
<use x="95.410156" xlink:href="#o"/>
<use x="159.033203" xlink:href="#o"/>
</g>
</g>
<g clip-path="url(#a)">
<g transform="translate(711.81 411.53) scale(.1 -.1)">
<use xlink:href="#c"/>
<use x="63.623047" xlink:href="#e"/>
<use x="95.410156" xlink:href="#o"/>
<use x="159.033203" xlink:href="#m"/>
</g>
</g>
<g clip-path="url(#a)">
<g transform="translate(572.81 774.79) scale(.1 -.1)">
<use xlink:href="#c"/>
<use x="63.623047" xlink:href="#e"/>
<use x="95.410156" xlink:href="#o"/>
<use x="159.033203" xlink:href="#z"/>
</g>
</g>
<g clip-path="url(#a)">
<g transform="translate(735.31 533.1) scale(.1 -.1)">
<use xlink:href="#c"/>
<use x="63.623047" xlink:href="#e"/>
<use x="95.410156" xlink:href="#o"/>
<use x="159.033203" xlink:href="#ae"/>
</g>
</g>
<g clip-path="url(#a)">
<g transform="translate(981.31 774.79) scale(.1 -.1)">
<use xlink:href="#c"/>
<use x="63.623047" xlink:href="#e"/>
<use x="95.410156" xlink:href="#o"/>
<use x="159.033203" xlink:href="#ad"/>
</g>
</g>
<g clip-path="url(#a)">
<g transform="translate(650.61 654.26) scale(.1 -.1)">
<use xlink:href="#c"/>
<use x="63.623047" xlink:href="#e"/>
<use x="95.410156" xlink:href="#o"/>
<use x="159.033203" xlink:href="#aa"/>
</g>
</g>
<g clip-path="url(#a)">
<g transform="translate(822.04 774.79) scale(.1 -.1)">
<use xlink:href="#c"/>
<use x="63.623047" xlink:href="#e"/>
<use x="95.410156" xlink:href="#m"/>
<use x="159.033203" xlink:href="#ab"/>
</g>
</g>
<g clip-path="url(#a)">
<g transform="translate(623.87 774.79) scale(.1 -.1)">
<use xlink:href="#c"/>
<use x="63.623047" xlink:href="#e"/>
<use x="95.410156" xlink:href="#m"/>
<use x="159.033203" xlink:href="#o"/>
</g>
</g>
<g clip-path="url(#a)">
<g transform="translate(677.36 774.79) scale(.1 -.1)">
<use xlink:href="#c"/>
<use x="63.623047" xlink:href="#e"/>
<use x="95.410156" xlink:href="#m"/>
<use x="159.033203" xlink:href="#m"/>
</g>
</g>
<g clip-path="url(#a)">
<g transform="translate(392.87 774.79) scale(.1 -.1)">
<use xlink:href="#c"/>
<use x="63.623047" xlink:href="#e"/>
<use x="95.410156" xlink:href="#m"/>
<use x="159.033203" xlink:href="#n"/>
</g>
</g>
<g clip-path="url(#a)">
<g transform="translate(434.21 774.79) scale(.1 -.1)">
<use xlink:href="#c"/>
<use x="63.623047" xlink:href="#e"/>
<use x="95.410156" xlink:href="#m"/>
<use x="159.033203" xlink:href="#z"/>
</g>
</g>
<g clip-path="url(#a)">
<g transform="translate(477.97 774.79) scale(.1 -.1)">
<use xlink:href="#c"/>
<use x="63.623047" xlink:href="#e"/>
<use x="95.410156" xlink:href="#m"/>
<use x="159.033203" xlink:href="#ae"/>
</g>
</g>
<g clip-path="url(#a)">
<g transform="translate(98.652 774.79) scale(.1 -.1)">
<use xlink:href="#c"/>
<use x="63.623047" xlink:href="#e"/>
<use x="95.410156" xlink:href="#m"/>
<use x="159.033203" xlink:href="#ad"/>
</g>
</g>
<g clip-path="url(#a)">
<g transform="translate(121.75 654.26) scale(.1 -.1)">
<use xlink:href="#c"/>
<use x="63.623047" xlink:href="#e"/>
<use x="95.410156" xlink:href="#m"/>
<use x="159.033203" xlink:href="#ac"/>
</g>
</g>
<g clip-path="url(#a)">
<g transform="translate(149.71 774.79) scale(.1 -.1)">
<use xlink:href="#c"/>
<use x="63.623047" xlink:href="#e"/>
<use x="95.410156" xlink:href="#m"/>
<use x="159.033203" xlink:href="#aa"/>
</g>
</g>
<g clip-path="url(#a)">
<g transform="translate(171.6 774.79) scale(.1 -.1)">
<use xlink:href="#c"/>
<use x="63.623047" xlink:href="#e"/>
<use x="95.410156" xlink:href="#n"/>
<use x="159.033203" xlink:href="#ab"/>
</g>
</g>
<g clip-path="url(#a)">
<g transform="translate(113.24 774.79) scale(.1 -.1)">
<use xlink:href="#c"/>
<use x="63.623047" xlink:href="#e"/>
<use x="95.410156" xlink:href="#n"/>
<use x="159.033203" xlink:href="#c"/>
</g>
</g>
<g clip-path="url(#a)">
<g transform="translate(130.26 774.79) scale(.1 -.1)">
<use xlink:href="#c"/>
<use x="63.623047" xlink:href="#e"/>
<use x="95.410156" xlink:href="#n"/>
<use x="159.033203" xlink:href="#o"/>
</g>
</g>
<g clip-path="url(#a)">
<g transform="translate(69.473 774.79) scale(.1 -.1)">
<use xlink:href="#c"/>
<use x="63.623047" xlink:href="#e"/>
<use x="95.410156" xlink:href="#n"/>
<use x="159.033203" xlink:href="#m"/>
</g>
</g>
<g clip-path="url(#a)">
<g transform="translate(76.768 774.79) scale(.1 -.1)">
<use xlink:href="#c"/>
<use x="63.623047" xlink:href="#e"/>
<use x="95.410156" xlink:href="#n"/>
<use x="159.033203" xlink:href="#n"/>
</g>
</g>
<g clip-path="url(#a)">
<g transform="translate(195.91 774.79) scale(.1 -.1)">
<use xlink:href="#c"/>
<use x="63.623047" xlink:href="#e"/>
<use x="95.410156" xlink:href="#n"/>
<use x="159.033203" xlink:href="#z"/>
</g>
</g>
<g clip-path="url(#a)">
<g transform="translate(524.17 774.79) scale(.1 -.1)">
<use xlink:href="#c"/>
<use x="63.623047" xlink:href="#e"/>
<use x="95.410156" xlink:href="#n"/>
<use x="159.033203" xlink:href="#ae"/>
</g>
</g>
<g clip-path="url(#a)">
<g transform="translate(733.29 774.79) scale(.1 -.1)">
<use xlink:href="#c"/>
<use x="63.623047" xlink:href="#e"/>
<use x="95.410156" xlink:href="#n"/>
<use x="159.033203" xlink:href="#ad"/>
</g>
</g>
<g clip-path="url(#a)">
<g transform="translate(915.65 774.79) scale(.1 -.1)">
<use xlink:href="#c"/>
<use x="63.623047" xlink:href="#e"/>
<use x="95.410156" xlink:href="#n"/>
<use x="159.033203" xlink:href="#ac"/>
</g>
</g>
<g clip-path="url(#a)">
<g transform="translate(1049.4 774.79) scale(.1 -.1)">
<use xlink:href="#c"/>
<use x="63.623047" xlink:href="#e"/>
<use x="95.410156" xlink:href="#n"/>
<use x="159.033203" xlink:href="#aa"/>
</g>
</g>
<g clip-path="url(#a)">
<g transform="translate(1681.6 774.79) scale(.1 -.1)">
<use xlink:href="#c"/>
<use x="63.623047" xlink:href="#e"/>
<use x="95.410156" xlink:href="#z"/>
<use x="159.033203" xlink:href="#ab"/>
</g>
</g>
<defs>
<clipPath id="a">
<rect width="1773.3" height="933.33"/>
</clipPath>
</defs>
</svg>
