<?xml version="1.0" encoding="UTF-8"?>
<!DOCTYPE svg  PUBLIC '-//W3C//DTD SVG 1.1//EN'  'http://www.w3.org/Graphics/SVG/1.1/DTD/svg11.dtd'>
<svg width="810.67pt" height="426.67pt" version="1.1" viewBox="0 0 810.67 426.67" xmlns="http://www.w3.org/2000/svg" xmlns:xlink="http://www.w3.org/1999/xlink">
<defs>
<style type="text/css">*{stroke-linecap:butt;stroke-linejoin:round;}</style>
</defs>
<path d="m0 426.67h810.67v-426.67h-810.67z" fill="#fff"/>
<g fill="none" stroke="#000">
<path d="m129 19.394v65.235" clip-path="url(#a)"/>
<path d="m129 84.629-92.15 259.15" clip-path="url(#a)"/>
<path d="m129 84.629-77.508 259.15" clip-path="url(#a)"/>
<path d="m129 84.629-57.986 259.15" clip-path="url(#a)"/>
<path d="m129 84.629 235.66 65.104" clip-path="url(#a)"/>
<path d="m129 84.629-33.583 259.15" clip-path="url(#a)"/>
<path d="m129 84.629-4.2996 259.15" clip-path="url(#a)"/>
<path d="m129 84.629 29.865 259.15" clip-path="url(#a)"/>
<path d="m36.848 343.77v63.498" clip-path="url(#a)"/>
<path d="m51.49 343.77v63.498" clip-path="url(#a)"/>
<path d="m71.013 343.77v63.498" clip-path="url(#a)"/>
<path d="m364.66 149.73-121.2 129.66" clip-path="url(#a)"/>
<path d="m364.66 149.73 141.54 64.94" clip-path="url(#a)"/>
<path d="m364.66 149.73-20.336 194.04" clip-path="url(#a)"/>
<path d="m243.46 279.39-45.552 64.382" clip-path="url(#a)"/>
<path d="m243.46 279.39-1.6269 64.382" clip-path="url(#a)"/>
<path d="m243.46 279.39 47.179 64.382" clip-path="url(#a)"/>
<path d="m506.2 214.67 267.62 64.719" clip-path="url(#a)"/>
<path d="m506.2 214.67-103.31 129.1" clip-path="url(#a)"/>
<path d="m506.2 214.67-39.858 129.1" clip-path="url(#a)"/>
<path d="m506.2 214.67 143.16 64.719" clip-path="url(#a)"/>
<path d="m402.89 343.77v63.498" clip-path="url(#a)"/>
<path d="m466.34 343.77v63.498" clip-path="url(#a)"/>
<path d="m649.36 279.39-114.69 64.382" clip-path="url(#a)"/>
<path d="m649.36 279.39-41.485 64.382" clip-path="url(#a)"/>
<path d="m649.36 279.39 36.604 64.382" clip-path="url(#a)"/>
<path d="m649.36 279.39 119.57 64.382" clip-path="url(#a)"/>
<path d="m534.67 343.77v63.498" clip-path="url(#a)"/>
<path d="m607.88 343.77v63.498" clip-path="url(#a)"/>
<path d="m197.91 343.77v63.498" clip-path="url(#a)"/>
<path d="m241.83 343.77v63.498" clip-path="url(#a)"/>
<path d="m290.64 343.77v63.498" clip-path="url(#a)"/>
<path d="m95.416 343.77v63.498" clip-path="url(#a)"/>
<path d="m124.7 343.77v63.498" clip-path="url(#a)"/>
<path d="m158.86 343.77v63.498" clip-path="url(#a)"/>
<path d="m344.33 343.77v63.498" clip-path="url(#a)"/>
<path d="m685.97 343.77v63.498" clip-path="url(#a)"/>
<path d="m768.94 343.77v63.498" clip-path="url(#a)"/>
</g>
<path d="m122.73 49.003v6.0162q0 2.4 2.4 2.4h7.7425q2.4 0 2.4-2.4v-6.0162q0-2.4-2.4-2.4h-7.7425q-2.4 0-2.4 2.4z" clip-path="url(#a)" fill="#fff" stroke="#fff"/>
<g clip-path="url(#a)">
<defs>
<path id="u" d="m9.8125 72.906h9.8594v-29.891h35.844v29.891h9.8594v-72.906h-9.8594v34.719h-35.844v-34.719h-9.8594z"/>
</defs>
<g transform="translate(126.79 49.003) rotate(90) scale(.08 -.08)">
<use xlink:href="#u"/>
</g>
</g>
<path d="m87.916 218.88 1.8335-5.1562q0.8041-2.2613-1.4572-3.0654l-7.295-2.5941q-2.2613-0.8041-3.0654 1.4572l-1.8335 5.1562q-0.8041 2.2613 1.4572 3.0654l7.295 2.5941q2.2613 0.8041 3.0654-1.4572z" clip-path="url(#a)" fill="#fff" stroke="#fff"/>
<g clip-path="url(#a)">
<defs>
<path id="n" d="m34.188 63.188-13.391-36.281h26.812zm-5.5781 9.7188h11.188l27.781-72.906h-10.25l-6.6406 18.703h-32.859l-6.6406-18.703h-10.406z"/>
</defs>
<g transform="translate(84.087 217.52) rotate(-70.425) scale(.08 -.08)">
<use xlink:href="#n"/>
</g>
</g>
<path d="m95.562 218.31 1.3822-4.6215q0.68772-2.2994-1.6116-2.9871l-7.4178-2.2186q-2.2994-0.68772-2.9871 1.6116l-1.3822 4.6215q-0.68772 2.2994 1.6116 2.9871l7.4178 2.2186q2.2994 0.68772 2.9871-1.6116z" clip-path="url(#a)" fill="#fff" stroke="#fff"/>
<g clip-path="url(#a)">
<defs>
<path id="r" d="m19.672 64.797v-27.391h12.406q6.8906 0 10.641 3.5625 3.7656 3.5625 3.7656 10.156 0 6.5469-3.7656 10.109-3.75 3.5625-10.641 3.5625zm-9.8594 8.1094h22.266q12.266 0 18.531-5.5469 6.2812-5.5469 6.2812-16.234 0-10.797-6.2812-16.312-6.2656-5.5156-18.531-5.5156h-12.406v-29.297h-9.8594z"/>
</defs>
<g transform="translate(91.668 217.15) rotate(-73.348) scale(.08 -.08)">
<use xlink:href="#r"/>
</g>
</g>
<path d="m105.53 218.24 1.195-5.3404q0.52406-2.3421-1.818-2.8661l-7.5557-1.6906q-2.3421-0.52406-2.8661 1.818l-1.195 5.3404q-0.52406 2.3421 1.818 2.8661l7.5557 1.6906q2.3421 0.52406 2.8661-1.818z" clip-path="url(#a)" fill="#fff" stroke="#fff"/>
<g clip-path="url(#a)">
<g transform="translate(101.56 217.35) rotate(-77.387) scale(.08 -.08)">
<use xlink:href="#n"/>
</g>
</g>
<path d="m242.52 122.5 5.2749 1.4572q2.3133 0.63908 2.9524-1.6743l2.0617-7.463q0.63908-2.3133-1.6743-2.9524l-5.2749-1.4572q-2.3133-0.63908-2.9524 1.6743l-2.0617 7.463q-0.63908 2.3133 1.6743 2.9524z" clip-path="url(#a)" fill="#fff" stroke="#fff"/>
<g clip-path="url(#a)">
<g transform="translate(243.6 118.58) rotate(15.443) scale(.08 -.08)">
<use xlink:href="#n"/>
</g>
</g>
<path d="m118.05 217.91 0.75247-5.8064q0.30844-2.3801-2.0717-2.6885l-7.6783-0.99504q-2.3801-0.30844-2.6885 2.0717l-0.75247 5.8064q-0.30844 2.3801 2.0717 2.6885l7.6783 0.99505q2.3801 0.30844 2.6885-2.0717z" clip-path="url(#a)" fill="#fff" stroke="#fff"/>
<g clip-path="url(#a)">
<defs>
<path id="o" d="m8.6875 72.906h9.9219v-44.297q0-11.719 4.2344-16.875 4.25-5.1406 13.781-5.1406 9.4688 0 13.719 5.1406 4.25 5.1562 4.25 16.875v44.297h9.9062v-45.516q0-14.25-7.0625-21.531-7.0469-7.2812-20.812-7.2812-13.828 0-20.891 7.2812-7.0469 7.2812-7.0469 21.531z"/>
</defs>
<g transform="translate(114.02 217.39) rotate(-82.616) scale(.08 -.08)">
<use xlink:href="#o"/>
</g>
</g>
<path d="m133.07 217.23 0.097129-5.8542q0.039814-2.3997-2.3599-2.4395l-7.7414-0.12844q-2.3997-0.039813-2.4395 2.3599l-0.097129 5.8542q-0.039814 2.3997 2.3599 2.4395l7.7414 0.12844q2.3997 0.039814 2.4395-2.3599z" clip-path="url(#a)" fill="#fff" stroke="#fff"/>
<g clip-path="url(#a)">
<g transform="translate(129.01 217.17) rotate(-89.049) scale(.08 -.08)">
<use xlink:href="#o"/>
</g>
</g>
<path d="m137.37 212.01 0.67031 5.8165q0.27476 2.3842 2.659 2.1095l7.6916-0.8864q2.3842-0.27476 2.1095-2.659l-0.67031-5.8165q-0.27476-2.3842-2.659-2.1095l-7.6916 0.8864q-2.3842 0.27476-2.1095 2.659z" clip-path="url(#a)" fill="#fff" stroke="#fff"/>
<g clip-path="url(#a)">
<g transform="translate(141.4 211.55) rotate(83.426) scale(.08 -.08)">
<use xlink:href="#o"/>
</g>
</g>
<path d="m30.577 358.62v33.808q0 2.4 2.4 2.4h7.7425q2.4 0 2.4-2.4v-33.808q0-2.4-2.4-2.4h-7.7425q-2.4 0-2.4 2.4z" clip-path="url(#a)" fill="#fff" stroke="#fff"/>
<g clip-path="url(#a)">
<defs>
<path id="k" d="m-0.29688 72.906h61.672v-8.3125h-25.875v-64.594h-9.9062v64.594h-25.891z"/>
<path id="f" d="m56.203 29.594v-4.3906h-41.312q0.59375-9.2812 5.5938-14.141t13.938-4.8594q5.1719 0 10.031 1.2656t9.6562 3.8125v-8.5q-4.8438-2.0469-9.9219-3.125t-10.297-1.0781q-13.094 0-20.734 7.6094-7.6406 7.625-7.6406 20.625 0 13.422 7.25 21.297 7.25 7.8906 19.562 7.8906 11.031 0 17.453-7.1094 6.4219-7.0938 6.4219-19.297zm-8.9844 2.6406q-0.09375 7.3594-4.125 11.75-4.0312 4.4062-10.672 4.4062-7.5156 0-12.031-4.25t-5.2031-11.969z"/>
<path id="h" d="m41.109 46.297q-1.5156 0.875-3.2969 1.2812-1.7812 0.42188-3.9219 0.42188-7.625 0-11.703-4.9531t-4.0781-14.234v-28.812h-9.0312v54.688h9.0312v-8.5q2.8438 4.9844 7.375 7.3906 4.5469 2.4219 11.047 2.4219 0.92188 0 2.0469-0.125 1.125-0.10938 2.4844-0.35938z"/>
<path id="j" d="m52 44.188q3.375 6.0625 8.0625 8.9375t11.031 2.875q8.5469 0 13.188-5.9844 4.6406-5.9688 4.6406-17v-33.016h-9.0312v32.719q0 7.8594-2.7969 11.656-2.7812 3.8125-8.4844 3.8125-6.9844 0-11.047-4.6406-4.0469-4.625-4.0469-12.641v-30.906h-9.0312v32.719q0 7.9062-2.7812 11.688t-8.5938 3.7812q-6.8906 0-10.953-4.6562-4.0469-4.6562-4.0469-12.625v-30.906h-9.0312v54.688h9.0312v-8.5q3.0781 5.0312 7.375 7.4219t10.203 2.3906q5.9688 0 10.141-3.0312 4.1719-3.0156 6.1719-8.7812z"/>
<path id="e" d="m9.4219 54.688h8.9844v-54.688h-8.9844zm0 21.297h8.9844v-11.391h-8.9844z"/>
<path id="i" d="m54.891 33.016v-33.016h-8.9844v32.719q0 7.7656-3.0312 11.609-3.0312 3.8594-9.0781 3.8594-7.2812 0-11.484-4.6406-4.2031-4.625-4.2031-12.641v-30.906h-9.0312v54.688h9.0312v-8.5q3.2344 4.9375 7.5938 7.375 4.375 2.4375 10.094 2.4375 9.4219 0 14.25-5.8281 4.8438-5.8281 4.8438-17.156z"/>
<path id="g" d="m34.281 27.484q-10.891 0-15.094-2.4844t-4.2031-8.5q0-4.7812 3.1562-7.5938 3.1562-2.7969 8.5625-2.7969 7.4844 0 12 5.2969t4.5156 14.078v2zm17.922 3.7188v-31.203h-8.9844v8.2969q-3.0781-4.9688-7.6719-7.3438t-11.234-2.375q-8.3906 0-13.359 4.7188-4.9531 4.7188-4.9531 12.625 0 9.2188 6.1719 13.906 6.1875 4.6875 18.438 4.6875h12.609v0.89062q0 6.2031-4.0781 9.5938t-11.453 3.3906q-4.6875 0-9.1406-1.125-4.4375-1.125-8.5312-3.375v8.3125q4.9219 1.9062 9.5625 2.8438 4.6406 0.95312 9.0312 0.95312 11.875 0 17.734-6.1562 5.8594-6.1406 5.8594-18.641z"/>
<path id="l" d="m9.4219 75.984h8.9844v-75.984h-8.9844z"/>
</defs>
<g transform="translate(34.641 358.62) rotate(90) scale(.08 -.08)">
<use xlink:href="#k"/>
<use x="44.083984" xlink:href="#f"/>
<use x="105.607422" xlink:href="#h"/>
<use x="144.970703" xlink:href="#j"/>
<use x="242.382812" xlink:href="#e"/>
<use x="270.166016" xlink:href="#i"/>
<use x="333.544922" xlink:href="#g"/>
<use x="394.824219" xlink:href="#l"/>
</g>
</g>
<path d="m45.219 358.62v33.808q0 2.4 2.4 2.4h7.7425q2.4 0 2.4-2.4v-33.808q0-2.4-2.4-2.4h-7.7425q-2.4 0-2.4 2.4z" clip-path="url(#a)" fill="#fff" stroke="#fff"/>
<g clip-path="url(#a)">
<g transform="translate(49.283 358.62) rotate(90) scale(.08 -.08)">
<use xlink:href="#k"/>
<use x="44.083984" xlink:href="#f"/>
<use x="105.607422" xlink:href="#h"/>
<use x="144.970703" xlink:href="#j"/>
<use x="242.382812" xlink:href="#e"/>
<use x="270.166016" xlink:href="#i"/>
<use x="333.544922" xlink:href="#g"/>
<use x="394.824219" xlink:href="#l"/>
</g>
</g>
<path d="m64.741 358.62v33.808q0 2.4 2.4 2.4h7.7425q2.4 0 2.4-2.4v-33.808q0-2.4-2.4-2.4h-7.7425q-2.4 0-2.4 2.4z" clip-path="url(#a)" fill="#fff" stroke="#fff"/>
<g clip-path="url(#a)">
<g transform="translate(68.805 358.62) rotate(90) scale(.08 -.08)">
<use xlink:href="#k"/>
<use x="44.083984" xlink:href="#f"/>
<use x="105.607422" xlink:href="#h"/>
<use x="144.970703" xlink:href="#j"/>
<use x="242.382812" xlink:href="#e"/>
<use x="270.166016" xlink:href="#i"/>
<use x="333.544922" xlink:href="#g"/>
<use x="394.824219" xlink:href="#l"/>
</g>
</g>
<path d="m306.59 221.04 4.1084-4.3951q1.6389-1.7533-0.11437-3.3922l-5.6561-5.2872q-1.7533-1.6389-3.3922 0.11437l-4.1084 4.3951q-1.6389 1.7533 0.11437 3.3922l5.6561 5.2872q1.7533 1.6389 3.3922-0.11437z" clip-path="url(#a)" fill="#fff" stroke="#fff"/>
<g clip-path="url(#a)">
<g transform="translate(303.62 218.27) rotate(-46.931) scale(.08 -.08)">
<use xlink:href="#u"/>
</g>
</g>
<path d="m430.08 186.65 5.4682 2.5089q2.1814 1.0008 3.1822-1.1805l3.2288-7.0371q1.0008-2.1814-1.1805-3.1822l-5.4682-2.5089q-2.1814-1.0008-3.1822 1.1805l-3.2288 7.0371q-1.0008 2.1814 1.1805 3.1822z" clip-path="url(#a)" fill="#fff" stroke="#fff"/>
<g clip-path="url(#a)">
<g transform="translate(431.78 182.96) rotate(24.646) scale(.08 -.08)">
<use xlink:href="#u"/>
</g>
</g>
<path d="m360.43 250.32 0.61027-5.8231q0.25015-2.3869-2.1368-2.6371l-7.7003-0.80701q-2.3869-0.25015-2.6371 2.1368l-0.61027 5.8231q-0.25015 2.3869 2.1368 2.6371l7.7003 0.80701q2.3869 0.25015 2.6371-2.1368z" clip-path="url(#a)" fill="#fff" stroke="#fff"/>
<g clip-path="url(#a)">
<g transform="translate(356.38 249.9) rotate(-84.017) scale(.08 -.08)">
<use xlink:href="#o"/>
</g>
</g>
<path d="m224.22 317.44 3.1608-4.4674q1.3862-1.9592-0.573-3.3454l-6.3205-4.4719q-1.9592-1.3862-3.3454 0.573l-3.1608 4.4674q-1.3862 1.9592 0.573 3.3454l6.3205 4.4719q1.9592 1.3862 3.3454-0.573z" clip-path="url(#a)" fill="#fff" stroke="#fff"/>
<g clip-path="url(#a)">
<g transform="translate(220.91 315.09) rotate(-54.719) scale(.08 -.08)">
<use xlink:href="#n"/>
</g>
</g>
<path d="m248.86 314.15 0.12185-4.8222q0.060626-2.3992-2.3386-2.4599l-7.74-0.19558q-2.3992-0.060626-2.4599 2.3386l-0.12185 4.8222q-0.060626 2.3992 2.3386 2.4599l7.74 0.19558q2.3992 0.060626 2.4599-2.3386z" clip-path="url(#a)" fill="#fff" stroke="#fff"/>
<g clip-path="url(#a)">
<g transform="translate(244.79 314.05) rotate(-88.552) scale(.08 -.08)">
<use xlink:href="#r"/>
</g>
</g>
<path d="m260.17 312.81 3.6411 4.9687q1.4186 1.9359 3.3545 0.51726l6.2452-4.5765q1.9359-1.4186 0.51726-3.3545l-3.6411-4.9687q-1.4186-1.9359-3.3545-0.51726l-6.2452 4.5765q-1.9359 1.4186-0.51726 3.3545z" clip-path="url(#a)" fill="#fff" stroke="#fff"/>
<g clip-path="url(#a)">
<defs>
<path id="y" d="m19.672 64.797v-56.688h11.922q15.094 0 22.094 6.8281 7 6.8438 7 21.594 0 14.641-7 21.453t-22.094 6.8125zm-9.8594 8.1094h20.266q21.188 0 31.094-8.8125 9.9219-8.8125 9.9219-27.562 0-18.859-9.9688-27.703-9.9531-8.8281-31.047-8.8281h-20.266z"/>
</defs>
<g transform="translate(263.45 310.4) rotate(53.766) scale(.08 -.08)">
<use xlink:href="#y"/>
</g>
</g>
<path d="m635.87 252.49 5.3192 1.2864q2.3328 0.56414 2.8969-1.7686l1.8199-7.5256q0.56414-2.3328-1.7686-2.8969l-5.3192-1.2864q-2.3328-0.56414-2.8969 1.7686l-1.8199 7.5256q-0.56414 2.3328 1.7686 2.8969z" clip-path="url(#a)" fill="#fff" stroke="#fff"/>
<g clip-path="url(#a)">
<g transform="translate(636.83 248.54) rotate(13.595) scale(.08 -.08)">
<use xlink:href="#n"/>
</g>
</g>
<path d="m457.94 285.02 3.0138-3.7664q1.4995-1.8739-0.37442-3.3734l-6.0453-4.8374q-1.8739-1.4995-3.3734 0.37442l-3.0138 3.7664q-1.4995 1.8739 0.37442 3.3734l6.0453 4.8374q1.8739 1.4995 3.3734-0.37442z" clip-path="url(#a)" fill="#fff" stroke="#fff"/>
<g clip-path="url(#a)">
<g transform="translate(454.76 282.49) rotate(-51.333) scale(.08 -.08)">
<use xlink:href="#r"/>
</g>
</g>
<path d="m491.45 283.69 1.6144-5.229q0.70799-2.2932-1.5852-3.0012l-7.3979-2.284q-2.2932-0.70799-3.0012 1.5852l-1.6144 5.229q-0.70799 2.2932 1.5852 3.0012l7.3979 2.284q2.2932 0.70799 3.0012-1.5852z" clip-path="url(#a)" fill="#fff" stroke="#fff"/>
<g clip-path="url(#a)">
<g transform="translate(487.57 282.49) rotate(-72.843) scale(.08 -.08)">
<use xlink:href="#n"/>
</g>
</g>
<path d="m572.7 251.62 4.9866 2.2543q2.1869 0.98863 3.1755-1.1983l3.1894-7.0551q0.98863-2.1869-1.1983-3.1755l-4.9866-2.2543q-2.1869-0.98863-3.1755 1.1983l-3.1894 7.0551q-0.98863 2.1869 1.1983 3.1755z" clip-path="url(#a)" fill="#fff" stroke="#fff"/>
<g clip-path="url(#a)">
<g transform="translate(574.38 247.92) rotate(24.326) scale(.08 -.08)">
<use xlink:href="#n"/>
</g>
</g>
<path d="m396.62 358.62v33.808q0 2.4 2.4 2.4h7.7425q2.4 0 2.4-2.4v-33.808q0-2.4-2.4-2.4h-7.7425q-2.4 0-2.4 2.4z" clip-path="url(#a)" fill="#fff" stroke="#fff"/>
<g clip-path="url(#a)">
<g transform="translate(400.69 358.62) rotate(90) scale(.08 -.08)">
<use xlink:href="#k"/>
<use x="44.083984" xlink:href="#f"/>
<use x="105.607422" xlink:href="#h"/>
<use x="144.970703" xlink:href="#j"/>
<use x="242.382812" xlink:href="#e"/>
<use x="270.166016" xlink:href="#i"/>
<use x="333.544922" xlink:href="#g"/>
<use x="394.824219" xlink:href="#l"/>
</g>
</g>
<path d="m460.07 358.62v33.808q0 2.4 2.4 2.4h7.7425q2.4 0 2.4-2.4v-33.808q0-2.4-2.4-2.4h-7.7425q-2.4 0-2.4 2.4z" clip-path="url(#a)" fill="#fff" stroke="#fff"/>
<g clip-path="url(#a)">
<g transform="translate(464.13 358.62) rotate(90) scale(.08 -.08)">
<use xlink:href="#k"/>
<use x="44.083984" xlink:href="#f"/>
<use x="105.607422" xlink:href="#h"/>
<use x="144.970703" xlink:href="#j"/>
<use x="242.382812" xlink:href="#e"/>
<use x="270.166016" xlink:href="#i"/>
<use x="333.544922" xlink:href="#g"/>
<use x="394.824219" xlink:href="#l"/>
</g>
</g>
<path d="m593.08 318.18 4.0123-2.2523q2.0928-1.1748 0.91805-3.2676l-3.7899-6.7515q-1.1748-2.0928-3.2676-0.91805l-4.0123 2.2523q-2.0928 1.1748-0.91805 3.2676l3.7899 6.7515q1.1748 2.0928 3.2676 0.91805z" clip-path="url(#a)" fill="#fff" stroke="#fff"/>
<g clip-path="url(#a)">
<defs>
<path id="aj" d="m9.8125 72.906h41.891v-8.3125h-32.031v-21.484h28.906v-8.2969h-28.906v-34.812h-9.8594z"/>
</defs>
<g transform="translate(591.09 314.63) rotate(-29.307) scale(.08 -.08)">
<use xlink:href="#aj"/>
</g>
</g>
<path d="m632.38 317.33 3.0258-4.6958q1.3-2.0174-0.71749-3.3174l-6.5084-4.1937q-2.0174-1.3-3.3174 0.71748l-3.0258 4.6958q-1.3 2.0174 0.71749 3.3174l6.5084 4.1937q2.0174 1.3 3.3174-0.71749z" clip-path="url(#a)" fill="#fff" stroke="#fff"/>
<g clip-path="url(#a)">
<defs>
<path id="z" d="m64.406 67.281v-10.391q-4.9844 4.6406-10.625 6.9219-5.6406 2.2969-11.984 2.2969-12.5 0-19.141-7.6406t-6.6406-22.094q0-14.406 6.6406-22.047t19.141-7.6406q6.3438 0 11.984 2.2969t10.625 6.9375v-10.312q-5.1719-3.5156-10.969-5.2812-5.7812-1.75-12.219-1.75-16.562 0-26.094 10.125-9.5156 10.141-9.5156 27.672 0 17.578 9.5156 27.703 9.5312 10.141 26.094 10.141 6.5312 0 12.312-1.7344 5.7969-1.7344 10.875-5.2031z"/>
</defs>
<g transform="translate(628.96 315.13) rotate(-57.204) scale(.08 -.08)">
<use xlink:href="#z"/>
</g>
</g>
<path d="m660.77 312.14 2.8939 5.0899q1.1862 2.0864 3.2726 0.90016l6.7307-3.8268q2.0864-1.1862 0.90016-3.2726l-2.8939-5.0899q-1.1862-2.0864-3.2726-0.90016l-6.7307 3.8268q-2.0864 1.1862-0.90016 3.2726z" clip-path="url(#a)" fill="#fff" stroke="#fff"/>
<g clip-path="url(#a)">
<g transform="translate(664.3 310.13) rotate(60.379) scale(.08 -.08)">
<use xlink:href="#o"/>
</g>
</g>
<path d="m703.6 315.72 5.1552 2.7757q2.1132 1.1378 3.2509-0.97538l3.6705-6.8172q1.1378-2.1132-0.97539-3.2509l-5.1552-2.7757q-2.1132-1.1378-3.2509 0.97539l-3.6705 6.8172q-1.1378 2.1132 0.97539 3.2509z" clip-path="url(#a)" fill="#fff" stroke="#fff"/>
<g clip-path="url(#a)">
<g transform="translate(705.53 312.14) rotate(28.299) scale(.08 -.08)">
<use xlink:href="#o"/>
</g>
</g>
<path d="m528.4 358.62v33.808q0 2.4 2.4 2.4h7.7425q2.4 0 2.4-2.4v-33.808q0-2.4-2.4-2.4h-7.7425q-2.4 0-2.4 2.4z" clip-path="url(#a)" fill="#fff" stroke="#fff"/>
<g clip-path="url(#a)">
<g transform="translate(532.46 358.62) rotate(90) scale(.08 -.08)">
<use xlink:href="#k"/>
<use x="44.083984" xlink:href="#f"/>
<use x="105.607422" xlink:href="#h"/>
<use x="144.970703" xlink:href="#j"/>
<use x="242.382812" xlink:href="#e"/>
<use x="270.166016" xlink:href="#i"/>
<use x="333.544922" xlink:href="#g"/>
<use x="394.824219" xlink:href="#l"/>
</g>
</g>
<path d="m601.61 358.62v33.808q0 2.4 2.4 2.4h7.7425q2.4 0 2.4-2.4v-33.808q0-2.4-2.4-2.4h-7.7425q-2.4 0-2.4 2.4z" clip-path="url(#a)" fill="#fff" stroke="#fff"/>
<g clip-path="url(#a)">
<g transform="translate(605.67 358.62) rotate(90) scale(.08 -.08)">
<use xlink:href="#k"/>
<use x="44.083984" xlink:href="#f"/>
<use x="105.607422" xlink:href="#h"/>
<use x="144.970703" xlink:href="#j"/>
<use x="242.382812" xlink:href="#e"/>
<use x="270.166016" xlink:href="#i"/>
<use x="333.544922" xlink:href="#g"/>
<use x="394.824219" xlink:href="#l"/>
</g>
</g>
<path d="m191.64 358.62v33.808q0 2.4 2.4 2.4h7.7425q2.4 0 2.4-2.4v-33.808q0-2.4-2.4-2.4h-7.7425q-2.4 0-2.4 2.4z" clip-path="url(#a)" fill="#fff" stroke="#fff"/>
<g clip-path="url(#a)">
<g transform="translate(195.7 358.62) rotate(90) scale(.08 -.08)">
<use xlink:href="#k"/>
<use x="44.083984" xlink:href="#f"/>
<use x="105.607422" xlink:href="#h"/>
<use x="144.970703" xlink:href="#j"/>
<use x="242.382812" xlink:href="#e"/>
<use x="270.166016" xlink:href="#i"/>
<use x="333.544922" xlink:href="#g"/>
<use x="394.824219" xlink:href="#l"/>
</g>
</g>
<path d="m235.56 358.62v33.808q0 2.4 2.4 2.4h7.7425q2.4 0 2.4-2.4v-33.808q0-2.4-2.4-2.4h-7.7425q-2.4 0-2.4 2.4z" clip-path="url(#a)" fill="#fff" stroke="#fff"/>
<g clip-path="url(#a)">
<g transform="translate(239.63 358.62) rotate(90) scale(.08 -.08)">
<use xlink:href="#k"/>
<use x="44.083984" xlink:href="#f"/>
<use x="105.607422" xlink:href="#h"/>
<use x="144.970703" xlink:href="#j"/>
<use x="242.382812" xlink:href="#e"/>
<use x="270.166016" xlink:href="#i"/>
<use x="333.544922" xlink:href="#g"/>
<use x="394.824219" xlink:href="#l"/>
</g>
</g>
<path d="m284.37 358.62v33.808q0 2.4 2.4 2.4h7.7425q2.4 0 2.4-2.4v-33.808q0-2.4-2.4-2.4h-7.7425q-2.4 0-2.4 2.4z" clip-path="url(#a)" fill="#fff" stroke="#fff"/>
<g clip-path="url(#a)">
<g transform="translate(288.43 358.62) rotate(90) scale(.08 -.08)">
<use xlink:href="#k"/>
<use x="44.083984" xlink:href="#f"/>
<use x="105.607422" xlink:href="#h"/>
<use x="144.970703" xlink:href="#j"/>
<use x="242.382812" xlink:href="#e"/>
<use x="270.166016" xlink:href="#i"/>
<use x="333.544922" xlink:href="#g"/>
<use x="394.824219" xlink:href="#l"/>
</g>
</g>
<path d="m89.144 358.62v33.808q0 2.4 2.4 2.4h7.7425q2.4 0 2.4-2.4v-33.808q0-2.4-2.4-2.4h-7.7425q-2.4 0-2.4 2.4z" clip-path="url(#a)" fill="#fff" stroke="#fff"/>
<g clip-path="url(#a)">
<g transform="translate(93.208 358.62) rotate(90) scale(.08 -.08)">
<use xlink:href="#k"/>
<use x="44.083984" xlink:href="#f"/>
<use x="105.607422" xlink:href="#h"/>
<use x="144.970703" xlink:href="#j"/>
<use x="242.382812" xlink:href="#e"/>
<use x="270.166016" xlink:href="#i"/>
<use x="333.544922" xlink:href="#g"/>
<use x="394.824219" xlink:href="#l"/>
</g>
</g>
<path d="m118.43 358.62v33.808q0 2.4 2.4 2.4h7.7425q2.4 0 2.4-2.4v-33.808q0-2.4-2.4-2.4h-7.7425q-2.4 0-2.4 2.4z" clip-path="url(#a)" fill="#fff" stroke="#fff"/>
<g clip-path="url(#a)">
<g transform="translate(122.49 358.62) rotate(90) scale(.08 -.08)">
<use xlink:href="#k"/>
<use x="44.083984" xlink:href="#f"/>
<use x="105.607422" xlink:href="#h"/>
<use x="144.970703" xlink:href="#j"/>
<use x="242.382812" xlink:href="#e"/>
<use x="270.166016" xlink:href="#i"/>
<use x="333.544922" xlink:href="#g"/>
<use x="394.824219" xlink:href="#l"/>
</g>
</g>
<path d="m152.59 358.62v33.808q0 2.4 2.4 2.4h7.7425q2.4 0 2.4-2.4v-33.808q0-2.4-2.4-2.4h-7.7425q-2.4 0-2.4 2.4z" clip-path="url(#a)" fill="#fff" stroke="#fff"/>
<g clip-path="url(#a)">
<g transform="translate(156.66 358.62) rotate(90) scale(.08 -.08)">
<use xlink:href="#k"/>
<use x="44.083984" xlink:href="#f"/>
<use x="105.607422" xlink:href="#h"/>
<use x="144.970703" xlink:href="#j"/>
<use x="242.382812" xlink:href="#e"/>
<use x="270.166016" xlink:href="#i"/>
<use x="333.544922" xlink:href="#g"/>
<use x="394.824219" xlink:href="#l"/>
</g>
</g>
<path d="m338.05 358.62v33.808q0 2.4 2.4 2.4h7.7425q2.4 0 2.4-2.4v-33.808q0-2.4-2.4-2.4h-7.7425q-2.4 0-2.4 2.4z" clip-path="url(#a)" fill="#fff" stroke="#fff"/>
<g clip-path="url(#a)">
<g transform="translate(342.12 358.62) rotate(90) scale(.08 -.08)">
<use xlink:href="#k"/>
<use x="44.083984" xlink:href="#f"/>
<use x="105.607422" xlink:href="#h"/>
<use x="144.970703" xlink:href="#j"/>
<use x="242.382812" xlink:href="#e"/>
<use x="270.166016" xlink:href="#i"/>
<use x="333.544922" xlink:href="#g"/>
<use x="394.824219" xlink:href="#l"/>
</g>
</g>
<path d="m679.7 358.62v33.808q0 2.4 2.4 2.4h7.7425q2.4 0 2.4-2.4v-33.808q0-2.4-2.4-2.4h-7.7425q-2.4 0-2.4 2.4z" clip-path="url(#a)" fill="#fff" stroke="#fff"/>
<g clip-path="url(#a)">
<g transform="translate(683.76 358.62) rotate(90) scale(.08 -.08)">
<use xlink:href="#k"/>
<use x="44.083984" xlink:href="#f"/>
<use x="105.607422" xlink:href="#h"/>
<use x="144.970703" xlink:href="#j"/>
<use x="242.382812" xlink:href="#e"/>
<use x="270.166016" xlink:href="#i"/>
<use x="333.544922" xlink:href="#g"/>
<use x="394.824219" xlink:href="#l"/>
</g>
</g>
<path d="m762.67 358.62v33.808q0 2.4 2.4 2.4h7.7425q2.4 0 2.4-2.4v-33.808q0-2.4-2.4-2.4h-7.7425q-2.4 0-2.4 2.4z" clip-path="url(#a)" fill="#fff" stroke="#fff"/>
<g clip-path="url(#a)">
<g transform="translate(766.73 358.62) rotate(90) scale(.08 -.08)">
<use xlink:href="#k"/>
<use x="44.083984" xlink:href="#f"/>
<use x="105.607422" xlink:href="#h"/>
<use x="144.970703" xlink:href="#j"/>
<use x="242.382812" xlink:href="#e"/>
<use x="270.166016" xlink:href="#i"/>
<use x="333.544922" xlink:href="#g"/>
<use x="394.824219" xlink:href="#l"/>
</g>
</g>
<defs>
<path id="b" d="m0 8.6603c2.2967 0 4.4997-0.9125 6.1237-2.5365 1.624-1.624 2.5365-3.827 2.5365-6.1237s-0.9125-4.4997-2.5365-6.1237c-1.624-1.624-3.827-2.5365-6.1237-2.5365s-4.4997 0.9125-6.1237 2.5365c-1.624 1.624-2.5365 3.827-2.5365 6.1237s0.9125 4.4997 2.5365 6.1237c1.624 1.624 3.827 2.5365 6.1237 2.5365z"/>
</defs>
<g clip-path="url(#a)">
<use x="36.848485" y="407.272727" fill="#ffffff" stroke="#ffffff" xlink:href="#b"/>
</g>
<g clip-path="url(#a)">
<use x="51.490267" y="407.272727" fill="#ffffff" stroke="#ffffff" xlink:href="#b"/>
</g>
<g clip-path="url(#a)">
<use x="71.012643" y="407.272727" fill="#ffffff" stroke="#ffffff" xlink:href="#b"/>
</g>
<g clip-path="url(#a)">
<use x="95.415613" y="407.272727" fill="#ffffff" stroke="#ffffff" xlink:href="#b"/>
</g>
<g clip-path="url(#a)">
<use x="124.699177" y="407.272727" fill="#ffffff" stroke="#ffffff" xlink:href="#b"/>
</g>
<g clip-path="url(#a)">
<use x="158.863335" y="407.272727" fill="#ffffff" stroke="#ffffff" xlink:href="#b"/>
</g>
<g clip-path="url(#a)">
<use x="197.908087" y="407.272727" fill="#ffffff" stroke="#ffffff" xlink:href="#b"/>
</g>
<g clip-path="url(#a)">
<use x="241.833434" y="407.272727" fill="#ffffff" stroke="#ffffff" xlink:href="#b"/>
</g>
<g clip-path="url(#a)">
<use x="290.639374" y="407.272727" fill="#ffffff" stroke="#ffffff" xlink:href="#b"/>
</g>
<g clip-path="url(#a)">
<use x="344.325908" y="407.272727" fill="#ffffff" stroke="#ffffff" xlink:href="#b"/>
</g>
<g clip-path="url(#a)">
<use x="402.893036" y="407.272727" fill="#ffffff" stroke="#ffffff" xlink:href="#b"/>
</g>
<g clip-path="url(#a)">
<use x="466.340759" y="407.272727" fill="#ffffff" stroke="#ffffff" xlink:href="#b"/>
</g>
<g clip-path="url(#a)">
<use x="534.669075" y="407.272727" fill="#ffffff" stroke="#ffffff" xlink:href="#b"/>
</g>
<g clip-path="url(#a)">
<use x="607.877985" y="407.272727" fill="#ffffff" stroke="#ffffff" xlink:href="#b"/>
</g>
<g clip-path="url(#a)">
<use x="685.967489" y="407.272727" fill="#ffffff" stroke="#ffffff" xlink:href="#b"/>
</g>
<g clip-path="url(#a)">
<use x="768.937588" y="407.272727" fill="#ffffff" stroke="#ffffff" xlink:href="#b"/>
</g>
<g clip-path="url(#a)">
<use x="773.818182" y="279.392452" fill="#ffffff" stroke="#ffffff" xlink:href="#b"/>
</g>
<g clip-path="url(#a)">
<use x="128.998748" y="19.393939" fill="#ffffff" stroke="#ffffff" xlink:href="#b"/>
</g>
<g clip-path="url(#a)">
<use x="128.998748" y="84.629189" fill="#ffffff" stroke="#ffffff" xlink:href="#b"/>
</g>
<g clip-path="url(#a)">
<use x="36.848485" y="343.774256" fill="#ffffff" stroke="#ffffff" xlink:href="#b"/>
</g>
<g clip-path="url(#a)">
<use x="51.490267" y="343.774256" fill="#ffffff" stroke="#ffffff" xlink:href="#b"/>
</g>
<g clip-path="url(#a)">
<use x="71.012643" y="343.774256" fill="#ffffff" stroke="#ffffff" xlink:href="#b"/>
</g>
<g clip-path="url(#a)">
<use x="364.661717" y="149.733221" fill="#ffffff" stroke="#ffffff" xlink:href="#b"/>
</g>
<g clip-path="url(#a)">
<use x="243.460298" y="279.392452" fill="#ffffff" stroke="#ffffff" xlink:href="#b"/>
</g>
<g clip-path="url(#a)">
<use x="506.198943" y="214.672971" fill="#ffffff" stroke="#ffffff" xlink:href="#b"/>
</g>
<g clip-path="url(#a)">
<use x="402.893036" y="343.774256" fill="#ffffff" stroke="#ffffff" xlink:href="#b"/>
</g>
<g clip-path="url(#a)">
<use x="466.340759" y="343.774256" fill="#ffffff" stroke="#ffffff" xlink:href="#b"/>
</g>
<g clip-path="url(#a)">
<use x="649.363034" y="279.392452" fill="#ffffff" stroke="#ffffff" xlink:href="#b"/>
</g>
<g clip-path="url(#a)">
<use x="534.669075" y="343.774256" fill="#ffffff" stroke="#ffffff" xlink:href="#b"/>
</g>
<g clip-path="url(#a)">
<use x="607.877985" y="343.774256" fill="#ffffff" stroke="#ffffff" xlink:href="#b"/>
</g>
<g clip-path="url(#a)">
<use x="197.908087" y="343.774256" fill="#ffffff" stroke="#ffffff" xlink:href="#b"/>
</g>
<g clip-path="url(#a)">
<use x="241.833434" y="343.774256" fill="#ffffff" stroke="#ffffff" xlink:href="#b"/>
</g>
<g clip-path="url(#a)">
<use x="290.639374" y="343.774256" fill="#ffffff" stroke="#ffffff" xlink:href="#b"/>
</g>
<g clip-path="url(#a)">
<use x="95.415613" y="343.774256" fill="#ffffff" stroke="#ffffff" xlink:href="#b"/>
</g>
<g clip-path="url(#a)">
<use x="124.699177" y="343.774256" fill="#ffffff" stroke="#ffffff" xlink:href="#b"/>
</g>
<g clip-path="url(#a)">
<use x="158.863335" y="343.774256" fill="#ffffff" stroke="#ffffff" xlink:href="#b"/>
</g>
<g clip-path="url(#a)">
<use x="344.325908" y="343.774256" fill="#ffffff" stroke="#ffffff" xlink:href="#b"/>
</g>
<g clip-path="url(#a)">
<use x="685.967489" y="343.774256" fill="#ffffff" stroke="#ffffff" xlink:href="#b"/>
</g>
<g clip-path="url(#a)">
<use x="768.937588" y="343.774256" fill="#ffffff" stroke="#ffffff" xlink:href="#b"/>
</g>
<g clip-path="url(#a)">
<defs>
<path id="ak" d="m9.8125 72.906h46.094v-8.3125h-36.234v-21.578h34.719v-8.2969h-34.719v-26.422h37.109v-8.2969h-46.969z"/>
</defs>
<g transform="translate(31.634 410.03) scale(.1 -.1)">
<use xlink:href="#ak"/>
<use x="63.183594" xlink:href="#h"/>
</g>
</g>
<g clip-path="url(#a)">
<defs>
<path id="p" d="m18.312 70.219v-15.531h18.5v-6.9844h-18.5v-29.688q0-6.6875 1.8281-8.5938t7.4531-1.9062h9.2188v-7.5156h-9.2188q-10.406 0-14.359 3.875-3.9531 3.8906-3.9531 14.141v29.688h-6.5938v6.9844h6.5938v15.531z"/>
<path id="ap" d="m4.2031 54.688h8.9844l11.234-42.672 11.172 42.672h10.594l11.234-42.672 11.188 42.672h8.9844l-14.312-54.688h-10.594l-11.766 44.828-11.812-44.828h-10.609z"/>
<path id="aq" d="m30.609 48.391q-7.2188 0-11.422-5.6406t-4.2031-15.453 4.1719-15.453q4.1875-5.6406 11.453-5.6406 7.1875 0 11.375 5.6562 4.2031 5.6719 4.2031 15.438 0 9.7188-4.2031 15.406-4.1875 5.6875-11.375 5.6875zm0 7.6094q11.719 0 18.406-7.625 6.7031-7.6094 6.7031-21.078 0-13.422-6.7031-21.078-6.6875-7.6406-18.406-7.6406-11.766 0-18.438 7.6406-6.6562 7.6562-6.6562 21.078 0 13.469 6.6562 21.078 6.6719 7.625 18.438 7.625z"/>
</defs>
<g transform="translate(24.02 410.03) scale(.1 -.1)">
<use xlink:href="#g"/>
<use x="61.279297" xlink:href="#i"/>
<use x="124.658203" xlink:href="#p"/>
<use x="163.867188" xlink:href="#ap"/>
<use x="245.654297" xlink:href="#aq"/>
<use x="306.835938" xlink:href="#h"/>
<use x="347.949219" xlink:href="#p"/>
<use x="387.158203" xlink:href="#f"/>
<use x="448.681641" xlink:href="#p"/>
<use x="487.890625" xlink:href="#f"/>
</g>
</g>
<g clip-path="url(#a)">
<g transform="translate(62.698 410.03) scale(.1 -.1)">
<use xlink:href="#j"/>
<use x="97.412109" xlink:href="#e"/>
<use x="125.195312" xlink:href="#h"/>
</g>
</g>
<g clip-path="url(#a)">
<defs>
<path id="al" d="m11.719 12.406h10.297v-12.406h-10.297zm0 39.297h10.297v-12.391h-10.297z"/>
</defs>
<g transform="translate(93.731 410.03) scale(.1 -.1)">
<use xlink:href="#al"/>
</g>
</g>
<g clip-path="url(#a)">
<defs>
<path id="ao" d="m4.8906 31.391h26.312v-8h-26.312z"/>
</defs>
<g transform="translate(122.9 410.03) scale(.1 -.1)">
<use xlink:href="#ao"/>
</g>
</g>
<g clip-path="url(#a)">
<defs>
<path id="ad" d="m17.922 72.906v-27.109h-8.2969v27.109zm18.453 0v-27.109h-8.2969v27.109z"/>
</defs>
<g transform="translate(156.56 410.03) scale(.1 -.1)">
<use xlink:href="#ad"/>
</g>
</g>
<g clip-path="url(#a)">
<defs>
<path id="ae" d="m44.281 53.078v-8.5q-3.7969 1.9531-7.9062 2.9219-4.0938 0.98438-8.5 0.98438-6.6875 0-10.031-2.0469t-3.3438-6.1562q0-3.125 2.3906-4.9062t9.625-3.3906l3.0781-0.6875q9.5625-2.0469 13.594-5.7812t4.0312-10.422q0-7.625-6.0312-12.078-6.0312-4.4375-16.578-4.4375-4.3906 0-9.1562 0.85938t-10.031 2.5625v9.2812q4.9844-2.5938 9.8125-3.8906 4.8281-1.2812 9.5781-1.2812 6.3438 0 9.75 2.1719 3.4219 2.1719 3.4219 6.125 0 3.6562-2.4688 5.6094-2.4531 1.9531-10.812 3.7656l-3.125 0.73438q-8.3438 1.75-12.062 5.3906-3.7031 3.6406-3.7031 9.9844 0 7.7188 5.4688 11.906 5.4688 4.2031 15.531 4.2031 4.9688 0 9.3594-0.73438 4.4062-0.71875 8.1094-2.1875z"/>
</defs>
<g transform="translate(188.39 410.03) scale(.1 -.1)">
<use xlink:href="#y"/>
<use x="77.001953" xlink:href="#g"/>
<use x="138.28125" xlink:href="#ae"/>
</g>
</g>
<g clip-path="url(#a)">
<defs>
<path id="q" d="m48.781 52.594v-8.4062q-3.8125 2.1094-7.6406 3.1562t-7.7344 1.0469q-8.75 0-13.594-5.5469-4.8281-5.5312-4.8281-15.547t4.8281-15.562q4.8438-5.5312 13.594-5.5312 3.9062 0 7.7344 1.0469t7.6406 3.1562v-8.3125q-3.7656-1.75-7.7969-2.625-4.0156-0.89062-8.5625-0.89062-12.359 0-19.641 7.7656-7.2656 7.7656-7.2656 20.953 0 13.375 7.3438 21.031 7.3594 7.6719 20.156 7.6719 4.1406 0 8.0938-0.85938 3.9531-0.84375 7.6719-2.5469z"/>
<path id="s" d="m54.891 33.016v-33.016h-8.9844v32.719q0 7.7656-3.0312 11.609-3.0312 3.8594-9.0781 3.8594-7.2812 0-11.484-4.6406-4.2031-4.625-4.2031-12.641v-30.906h-9.0312v75.984h9.0312v-29.797q3.2344 4.9375 7.5938 7.375 4.375 2.4375 10.094 2.4375 9.4219 0 14.25-5.8281 4.8438-5.8281 4.8438-17.156z"/>
</defs>
<g transform="translate(226.02 410.03) scale(.1 -.1)">
<use xlink:href="#j"/>
<use x="97.412109" xlink:href="#g"/>
<use x="158.691406" xlink:href="#q"/>
<use x="213.671875" xlink:href="#s"/>
<use x="277.050781" xlink:href="#p"/>
</g>
</g>
<g clip-path="url(#a)">
<g transform="translate(275.6 410.03) scale(.1 -.1)">
<use xlink:href="#i"/>
<use x="63.378906" xlink:href="#e"/>
<use x="91.162109" xlink:href="#q"/>
<use x="146.142578" xlink:href="#s"/>
<use x="209.521484" xlink:href="#p"/>
<use x="248.730469" xlink:href="#ae"/>
</g>
</g>
<g clip-path="url(#a)">
<defs>
<path id="d" d="m10.688 12.406h10.312v-12.406h-10.312z"/>
</defs>
<g transform="translate(342.74 410.03) scale(.1 -.1)">
<use xlink:href="#d"/>
</g>
</g>
<g clip-path="url(#a)">
<defs>
<path id="af" d="m5.6094 72.906h57.281v-7.5312l-46.094-57.078h47.219v-8.2969h-59.516v7.5156l46.094 57.078h-44.984z"/>
</defs>
<g transform="translate(382.84 410.03) scale(.1 -.1)">
<use xlink:href="#af"/>
<use x="68.505859" xlink:href="#f"/>
<use x="130.029297" xlink:href="#e"/>
<use x="157.8125" xlink:href="#q"/>
<use x="212.792969" xlink:href="#s"/>
<use x="276.171875" xlink:href="#i"/>
<use x="339.550781" xlink:href="#f"/>
</g>
</g>
<g clip-path="url(#a)">
<g transform="translate(458.03 410.03) scale(.1 -.1)">
<use xlink:href="#j"/>
<use x="97.412109" xlink:href="#e"/>
<use x="125.195312" xlink:href="#h"/>
</g>
</g>
<g clip-path="url(#a)">
<g transform="translate(527.03 410.03) scale(.1 -.1)">
<use xlink:href="#f"/>
<use x="61.523438" xlink:href="#e"/>
<use x="89.306641" xlink:href="#i"/>
</g>
</g>
<g clip-path="url(#a)">
<defs>
<path id="ag" d="m53.516 70.516v-9.625q-5.6094 2.6875-10.594 4-4.9844 1.3281-9.625 1.3281-8.0469 0-12.422-3.125t-4.375-8.8906q0-4.8438 2.9062-7.3125 2.9062-2.4531 11.016-3.9688l5.9531-1.2188q11.031-2.1094 16.281-7.4062t5.25-14.172q0-10.609-7.1094-16.078-7.0938-5.4688-20.812-5.4688-5.1719 0-11.016 1.1719-5.8281 1.1719-12.078 3.4688v10.156q6-3.3594 11.766-5.0781 5.7656-1.7031 11.328-1.7031 8.4375 0 13.031 3.3125 4.5938 3.3281 4.5938 9.4844 0 5.3594-3.2969 8.3906t-10.812 4.5469l-6.0156 1.1719q-11.031 2.1875-15.969 6.875-4.9219 4.6875-4.9219 13.047 0 9.6719 6.8125 15.234t18.766 5.5625q5.1406 0 10.453-0.9375 5.3281-0.92188 10.891-2.7656z"/>
<path id="ar" d="m37.109 75.984v-7.4844h-8.5938q-4.8281 0-6.7188-1.9531-1.875-1.9531-1.875-7.0312v-4.8281h14.797v-6.9844h-14.797v-47.703h-9.0312v47.703h-8.5938v6.9844h8.5938v3.8125q0 9.125 4.25 13.297 4.25 4.1875 13.469 4.1875z"/>
</defs>
<g transform="translate(593.96 410.03) scale(.1 -.1)">
<use xlink:href="#ag"/>
<use x="63.476562" xlink:href="#q"/>
<use x="118.457031" xlink:href="#s"/>
<use x="181.835938" xlink:href="#g"/>
<use x="243.115234" xlink:href="#ar"/>
</g>
</g>
<g clip-path="url(#a)">
<g transform="translate(684.38 410.03) scale(.1 -.1)">
<use xlink:href="#d"/>
</g>
</g>
<g clip-path="url(#a)">
<g transform="translate(766.64 410.03) scale(.1 -.1)">
<use xlink:href="#ad"/>
</g>
</g>
<g clip-path="url(#a)">
<defs>
<path id="t" d="m9.8125 72.906h9.8594v-72.906h-9.8594z"/>
<path id="ah" d="m9.8125 72.906h14.703l18.594-49.609 18.703 49.609h14.703v-72.906h-9.625v64.016l-18.797-50h-9.9062l-18.797 50v-64.016h-9.5781z"/>
<path id="ai" d="m9.8125 72.906h9.8594v-64.609h35.5v-8.2969h-45.359z"/>
</defs>
<g transform="translate(752.73 282.15) scale(.1 -.1)">
<use xlink:href="#t"/>
<use x="29.492188" xlink:href="#ah"/>
<use x="115.771484" xlink:href="#r"/>
<use x="176.074219" xlink:href="#ai"/>
<use x="231.787109" xlink:href="#t"/>
<use x="261.279297" xlink:href="#z"/>
<use x="331.103516" xlink:href="#t"/>
<use x="360.595703" xlink:href="#k"/>
</g>
</g>
<g clip-path="url(#a)">
<defs>
<path id="c" d="m12.406 8.2969h16.109v55.625l-17.531-3.5156v8.9844l17.438 3.5156h9.8594v-64.609h16.109v-8.2969h-41.984z"/>
</defs>
<g transform="translate(121.05 22.153) scale(.1 -.1)">
<use xlink:href="#c"/>
<use x="63.623047" xlink:href="#d"/>
<use x="95.410156" xlink:href="#c"/>
</g>
</g>
<g clip-path="url(#a)">
<defs>
<path id="m" d="m19.188 8.2969h34.422v-8.2969h-46.281v8.2969q5.6094 5.8125 15.297 15.594 9.7031 9.7969 12.188 12.641 4.7344 5.3125 6.6094 9 1.8906 3.6875 1.8906 7.25 0 5.8125-4.0781 9.4688-4.0781 3.6719-10.625 3.6719-4.6406 0-9.7969-1.6094-5.1406-1.6094-11-4.8906v9.9688q5.9531 2.3906 11.125 3.6094 5.1875 1.2188 9.4844 1.2188 11.328 0 18.062-5.6719 6.7344-5.6562 6.7344-15.125 0-4.5-1.6875-8.5312-1.6719-4.0156-6.125-9.4844-1.2188-1.4219-7.7656-8.1875-6.5312-6.7656-18.453-18.922z"/>
</defs>
<g transform="translate(121.05 87.389) scale(.1 -.1)">
<use xlink:href="#c"/>
<use x="63.623047" xlink:href="#d"/>
<use x="95.410156" xlink:href="#m"/>
</g>
</g>
<g clip-path="url(#a)">
<defs>
<path id="ab" d="m10.797 72.906h38.719v-8.3125h-29.688v-17.859q2.1406 0.73438 4.2812 1.0938 2.1562 0.35938 4.3125 0.35938 12.203 0 19.328-6.6875 7.1406-6.6875 7.1406-18.109 0-11.766-7.3281-18.297-7.3281-6.5156-20.656-6.5156-4.5938 0-9.3594 0.78125-4.75 0.78125-9.8281 2.3438v9.9219q4.3906-2.3906 9.0781-3.5625t9.9062-1.1719q8.4531 0 13.375 4.4375 4.9375 4.4375 4.9375 12.062 0 7.6094-4.9375 12.047-4.9219 4.4531-13.375 4.4531-3.9531 0-7.8906-0.875-3.9219-0.875-8.0156-2.7344z"/>
</defs>
<g transform="translate(28.897 346.53) scale(.1 -.1)">
<use xlink:href="#c"/>
<use x="63.623047" xlink:href="#d"/>
<use x="95.410156" xlink:href="#ab"/>
</g>
</g>
<g clip-path="url(#a)">
<defs>
<path id="x" d="m33.016 40.375q-6.6406 0-10.531-4.5469-3.875-4.5312-3.875-12.438 0-7.8594 3.875-12.438 3.8906-4.5625 10.531-4.5625t10.516 4.5625q3.875 4.5781 3.875 12.438 0 7.9062-3.875 12.438-3.875 4.5469-10.516 4.5469zm19.578 30.922v-8.9844q-3.7188 1.75-7.5 2.6719-3.7812 0.9375-7.5 0.9375-9.7656 0-14.922-6.5938-5.1406-6.5938-5.875-19.922 2.875 4.25 7.2188 6.5156 4.3594 2.2656 9.5781 2.2656 10.984 0 17.359-6.6719 6.375-6.6562 6.375-18.125 0-11.234-6.6406-18.031-6.6406-6.7812-17.672-6.7812-12.656 0-19.344 9.6875-6.6875 9.7031-6.6875 28.109 0 17.281 8.2031 27.562t22.016 10.281q3.7188 0 7.5-0.73438t7.8906-2.1875z"/>
</defs>
<g transform="translate(43.539 346.53) scale(.1 -.1)">
<use xlink:href="#c"/>
<use x="63.623047" xlink:href="#d"/>
<use x="95.410156" xlink:href="#x"/>
</g>
</g>
<g clip-path="url(#a)">
<defs>
<path id="w" d="m8.2031 72.906h46.875v-4.2031l-26.469-68.703h-10.297l24.906 64.594h-35.016z"/>
</defs>
<g transform="translate(63.061 346.53) scale(.1 -.1)">
<use xlink:href="#c"/>
<use x="63.623047" xlink:href="#d"/>
<use x="95.410156" xlink:href="#w"/>
</g>
</g>
<g clip-path="url(#a)">
<defs>
<path id="v" d="m31.781 34.625q-7.0312 0-11.062-3.7656-4.0156-3.7656-4.0156-10.344 0-6.5938 4.0156-10.359 4.0312-3.7656 11.062-3.7656t11.078 3.7812q4.0625 3.7969 4.0625 10.344 0 6.5781-4.0312 10.344-4.0156 3.7656-11.109 3.7656zm-9.8594 4.1875q-6.3438 1.5625-9.8906 5.9062-3.5312 4.3594-3.5312 10.609 0 8.7344 6.2188 13.812 6.2344 5.0781 17.062 5.0781 10.891 0 17.094-5.0781t6.2031-13.812q0-6.25-3.5469-10.609-3.5312-4.3438-9.8281-5.9062 7.125-1.6562 11.094-6.5 3.9844-4.8281 3.9844-11.797 0-10.609-6.4688-16.281-6.4688-5.6562-18.531-5.6562-12.047 0-18.531 5.6562-6.4688 5.6719-6.4688 16.281 0 6.9688 4 11.797 4.0156 4.8438 11.141 6.5zm-3.6094 15.578q0-5.6562 3.5312-8.8281 3.5469-3.1719 9.9375-3.1719 6.3594 0 9.9375 3.1719 3.5938 3.1719 3.5938 8.8281 0 5.6719-3.5938 8.8438-3.5781 3.1719-9.9375 3.1719-6.3906 0-9.9375-3.1719-3.5312-3.1719-3.5312-8.8438z"/>
</defs>
<g transform="translate(356.71 152.49) scale(.1 -.1)">
<use xlink:href="#c"/>
<use x="63.623047" xlink:href="#d"/>
<use x="95.410156" xlink:href="#v"/>
</g>
</g>
<g clip-path="url(#a)">
<g transform="translate(232.33 282.15) scale(.1 -.1)">
<use xlink:href="#c"/>
<use x="63.623047" xlink:href="#d"/>
<use x="95.410156" xlink:href="#c"/>
<use x="159.033203" xlink:href="#m"/>
</g>
</g>
<g clip-path="url(#a)">
<defs>
<path id="ac" d="m40.578 39.312q7.0781-1.5156 11.047-6.3125 3.9844-4.7812 3.9844-11.812 0-10.781-7.4219-16.703-7.4219-5.9062-21.094-5.9062-4.5781 0-9.4375 0.90625t-10.031 2.7188v9.5156q4.0938-2.3906 8.9688-3.6094 4.8906-1.2188 10.219-1.2188 9.2656 0 14.125 3.6562t4.8594 10.641q0 6.4531-4.5156 10.078-4.5156 3.6406-12.562 3.6406h-8.5v8.1094h8.8906q7.2656 0 11.125 2.9062t3.8594 8.375q0 5.6094-3.9844 8.6094-3.9688 3.0156-11.391 3.0156-4.0625 0-8.7031-0.89062-4.6406-0.875-10.203-2.7188v8.7812q5.625 1.5625 10.531 2.3438t9.25 0.78125q11.234 0 17.766-5.1094 6.5469-5.0938 6.5469-13.781 0-6.0625-3.4688-10.234t-9.8594-5.7812z"/>
</defs>
<g transform="translate(495.07 217.43) scale(.1 -.1)">
<use xlink:href="#c"/>
<use x="63.623047" xlink:href="#d"/>
<use x="95.410156" xlink:href="#c"/>
<use x="159.033203" xlink:href="#ac"/>
</g>
</g>
<g clip-path="url(#a)">
<g transform="translate(391.76 346.53) scale(.1 -.1)">
<use xlink:href="#c"/>
<use x="63.623047" xlink:href="#d"/>
<use x="95.410156" xlink:href="#c"/>
<use x="159.033203" xlink:href="#x"/>
</g>
</g>
<g clip-path="url(#a)">
<g transform="translate(455.21 346.53) scale(.1 -.1)">
<use xlink:href="#c"/>
<use x="63.623047" xlink:href="#d"/>
<use x="95.410156" xlink:href="#c"/>
<use x="159.033203" xlink:href="#w"/>
</g>
</g>
<g clip-path="url(#a)">
<g transform="translate(638.23 282.15) scale(.1 -.1)">
<use xlink:href="#c"/>
<use x="63.623047" xlink:href="#d"/>
<use x="95.410156" xlink:href="#c"/>
<use x="159.033203" xlink:href="#v"/>
</g>
</g>
<g clip-path="url(#a)">
<defs>
<path id="aa" d="m10.984 1.5156v8.9844q3.7188-1.7656 7.5156-2.6875 3.8125-0.92188 7.4844-0.92188 9.7656 0 14.906 6.5625 5.1562 6.5625 5.8906 19.953-2.8281-4.2031-7.1875-6.4531-4.3438-2.25-9.6094-2.25-10.938 0-17.312 6.6094-6.375 6.625-6.375 18.109 0 11.219 6.6406 18 6.6406 6.7969 17.672 6.7969 12.656 0 19.312-9.7031 6.6719-9.6875 6.6719-28.141 0-17.234-8.1875-27.516-8.1719-10.281-21.984-10.281-3.7188 0-7.5312 0.73438-3.7969 0.73438-7.9062 2.2031zm19.625 30.906q6.6406 0 10.516 4.5312 3.8906 4.5469 3.8906 12.469 0 7.8594-3.8906 12.422-3.875 4.5625-10.516 4.5625t-10.516-4.5625-3.875-12.422q0-7.9219 3.875-12.469 3.875-4.5312 10.516-4.5312z"/>
</defs>
<g transform="translate(523.54 346.53) scale(.1 -.1)">
<use xlink:href="#c"/>
<use x="63.623047" xlink:href="#d"/>
<use x="95.410156" xlink:href="#c"/>
<use x="159.033203" xlink:href="#aa"/>
</g>
</g>
<g clip-path="url(#a)">
<defs>
<path id="an" d="m31.781 66.406q-7.6094 0-11.453-7.5-3.8281-7.4844-3.8281-22.531 0-14.984 3.8281-22.484 3.8438-7.5 11.453-7.5 7.6719 0 11.5 7.5 3.8438 7.5 3.8438 22.484 0 15.047-3.8438 22.531-3.8281 7.5-11.5 7.5zm0 7.8125q12.266 0 18.734-9.7031 6.4688-9.6875 6.4688-28.141 0-18.406-6.4688-28.109-6.4688-9.6875-18.734-9.6875-12.25 0-18.719 9.6875-6.4688 9.7031-6.4688 28.109 0 18.453 6.4688 28.141 6.4688 9.7031 18.719 9.7031z"/>
</defs>
<g transform="translate(596.75 346.53) scale(.1 -.1)">
<use xlink:href="#c"/>
<use x="63.623047" xlink:href="#d"/>
<use x="95.410156" xlink:href="#m"/>
<use x="159.033203" xlink:href="#an"/>
</g>
</g>
<g clip-path="url(#a)">
<g transform="translate(186.78 346.53) scale(.1 -.1)">
<use xlink:href="#c"/>
<use x="63.623047" xlink:href="#d"/>
<use x="95.410156" xlink:href="#m"/>
<use x="159.033203" xlink:href="#c"/>
</g>
</g>
<g clip-path="url(#a)">
<g transform="translate(230.7 346.53) scale(.1 -.1)">
<use xlink:href="#c"/>
<use x="63.623047" xlink:href="#d"/>
<use x="95.410156" xlink:href="#m"/>
<use x="159.033203" xlink:href="#m"/>
</g>
</g>
<g clip-path="url(#a)">
<g transform="translate(279.51 346.53) scale(.1 -.1)">
<use xlink:href="#c"/>
<use x="63.623047" xlink:href="#d"/>
<use x="95.410156" xlink:href="#m"/>
<use x="159.033203" xlink:href="#ac"/>
</g>
</g>
<g clip-path="url(#a)">
<defs>
<path id="am" d="m37.797 64.312-24.906-38.922h24.906zm-2.5938 8.5938h12.406v-47.516h10.406v-8.2031h-10.406v-17.188h-9.8125v17.188h-32.906v9.5156z"/>
</defs>
<g transform="translate(84.283 346.53) scale(.1 -.1)">
<use xlink:href="#c"/>
<use x="63.623047" xlink:href="#d"/>
<use x="95.410156" xlink:href="#m"/>
<use x="159.033203" xlink:href="#am"/>
</g>
</g>
<g clip-path="url(#a)">
<g transform="translate(113.57 346.53) scale(.1 -.1)">
<use xlink:href="#c"/>
<use x="63.623047" xlink:href="#d"/>
<use x="95.410156" xlink:href="#m"/>
<use x="159.033203" xlink:href="#ab"/>
</g>
</g>
<g clip-path="url(#a)">
<g transform="translate(147.73 346.53) scale(.1 -.1)">
<use xlink:href="#c"/>
<use x="63.623047" xlink:href="#d"/>
<use x="95.410156" xlink:href="#m"/>
<use x="159.033203" xlink:href="#x"/>
</g>
</g>
<g clip-path="url(#a)">
<g transform="translate(333.19 346.53) scale(.1 -.1)">
<use xlink:href="#c"/>
<use x="63.623047" xlink:href="#d"/>
<use x="95.410156" xlink:href="#m"/>
<use x="159.033203" xlink:href="#w"/>
</g>
</g>
<g clip-path="url(#a)">
<g transform="translate(674.83 346.53) scale(.1 -.1)">
<use xlink:href="#c"/>
<use x="63.623047" xlink:href="#d"/>
<use x="95.410156" xlink:href="#m"/>
<use x="159.033203" xlink:href="#v"/>
</g>
</g>
<g clip-path="url(#a)">
<g transform="translate(757.8 346.53) scale(.1 -.1)">
<use xlink:href="#c"/>
<use x="63.623047" xlink:href="#d"/>
<use x="95.410156" xlink:href="#m"/>
<use x="159.033203" xlink:href="#aa"/>
</g>
</g>
<defs>
<clipPath id="a">
<rect width="810.67" height="426.67"/>
</clipPath>
</defs>
</svg>
