<?xml version="1.0" encoding="UTF-8"?>
<!DOCTYPE svg  PUBLIC '-//W3C//DTD SVG 1.1//EN'  'http://www.w3.org/Graphics/SVG/1.1/DTD/svg11.dtd'>
<svg width="810.67pt" height="426.67pt" version="1.1" viewBox="0 0 810.67 426.67" xmlns="http://www.w3.org/2000/svg" xmlns:xlink="http://www.w3.org/1999/xlink">
<defs>
<style type="text/css">*{stroke-linecap:butt;stroke-linejoin:round;}</style>
</defs>
<path d="m0 426.67h810.67v-426.67h-810.67z" fill="#fff"/>
<g fill="none" stroke="#000">
<path d="m296.2 19.394-226 78.267" clip-path="url(#a)"/>
<path d="m296.2 19.394-73.887 234.14" clip-path="url(#a)"/>
<path d="m296.2 19.394 106.7 311.54" clip-path="url(#a)"/>
<path d="m296.2 19.394 316.56 234.14" clip-path="url(#a)"/>
<path d="m296.2 19.394-171.5 311.54" clip-path="url(#a)"/>
<path d="m296.2 19.394 48.128 311.54" clip-path="url(#a)"/>
<path d="m70.199 97.661-26.03 78.07" clip-path="url(#a)"/>
<path d="m70.199 97.661 0.81343 233.27" clip-path="url(#a)"/>
<path d="m70.199 97.661 25.216 233.27" clip-path="url(#a)"/>
<path d="m222.31 253.54-63.448 77.399" clip-path="url(#a)"/>
<path d="m222.31 253.54-24.403 77.399" clip-path="url(#a)"/>
<path d="m222.31 253.54 19.522 77.399" clip-path="url(#a)"/>
<path d="m222.31 253.54 68.328 77.399" clip-path="url(#a)"/>
<path d="m402.89 330.94v76.337" clip-path="url(#a)"/>
<path d="m612.76 253.54 161.06 77.399" clip-path="url(#a)"/>
<path d="m612.76 253.54-146.42 77.399" clip-path="url(#a)"/>
<path d="m612.76 253.54-78.09 77.399" clip-path="url(#a)"/>
<path d="m612.76 253.54-4.8806 77.399" clip-path="url(#a)"/>
<path d="m612.76 253.54 73.209 77.399" clip-path="url(#a)"/>
<path d="m612.76 253.54 156.18 77.399" clip-path="url(#a)"/>
<path d="m466.34 330.94v76.337" clip-path="url(#a)"/>
<path d="m534.67 330.94v76.337" clip-path="url(#a)"/>
<path d="m607.88 330.94v76.337" clip-path="url(#a)"/>
<path d="m685.97 330.94v76.337" clip-path="url(#a)"/>
<path d="m158.86 330.94v76.337" clip-path="url(#a)"/>
<path d="m197.91 330.94v76.337" clip-path="url(#a)"/>
<path d="m241.83 330.94v76.337" clip-path="url(#a)"/>
<path d="m290.64 330.94v76.337" clip-path="url(#a)"/>
<path d="m44.169 175.73v77.805" clip-path="url(#a)"/>
<path d="m71.013 330.94v76.337" clip-path="url(#a)"/>
<path d="m95.416 330.94v76.337" clip-path="url(#a)"/>
<path d="m44.169 253.54-7.3209 77.399" clip-path="url(#a)"/>
<path d="m44.169 253.54 7.3209 77.399" clip-path="url(#a)"/>
<path d="m36.848 330.94v76.337" clip-path="url(#a)"/>
<path d="m51.49 330.94v76.337" clip-path="url(#a)"/>
<path d="m124.7 330.94v76.337" clip-path="url(#a)"/>
<path d="m344.33 330.94v76.337" clip-path="url(#a)"/>
<path d="m768.94 330.94v76.337" clip-path="url(#a)"/>
</g>
<path d="m182.41 65.438 5.685-1.9688q2.2679-0.7854 1.4825-3.0532l-2.5337-7.3162q-0.7854-2.2679-3.0532-1.4825l-5.685 1.9688q-2.2679 0.7854-1.4825 3.0532l2.5337 7.3162q0.7854 2.2679 3.0532 1.4825z" clip-path="url(#a)" fill="#fff" stroke="#fff"/>
<g clip-path="url(#a)">
<defs>
<path id="w" d="m9.8125 72.906h9.8594v-29.891h35.844v29.891h9.8594v-72.906h-9.8594v34.719h-35.844v-34.719h-9.8594z"/>
</defs>
<g transform="translate(181.08 61.598) rotate(-19.102) scale(.08 -.08)">
<use xlink:href="#w"/>
</g>
</g>
<path d="m264.33 141.22 1.8105-5.7374q0.72224-2.2887-1.5665-3.011l-7.3836-2.33q-2.2887-0.72224-3.011 1.5665l-1.8105 5.7374q-0.72224 2.2887 1.5665 3.011l7.3836 2.33q2.2887 0.72224 3.011-1.5665z" clip-path="url(#a)" fill="#fff" stroke="#fff"/>
<g clip-path="url(#a)">
<g transform="translate(260.45 140) rotate(-72.486) scale(.08 -.08)">
<use xlink:href="#w"/>
</g>
</g>
<path d="m342.89 175.09 1.4442 4.217q0.7776 2.2705 3.0481 1.4929l7.3248-2.5086q2.2705-0.7776 1.4929-3.0481l-1.4442-4.217q-0.7776-2.2705-3.0481-1.4929l-7.3248 2.5086q-2.2705 0.7776-1.4929 3.0481z" clip-path="url(#a)" fill="#fff" stroke="#fff"/>
<g clip-path="url(#a)">
<defs>
<path id="ab" d="m9.8125 72.906h9.8594v-64.609h35.5v-8.2969h-45.359z"/>
</defs>
<g transform="translate(346.73 173.77) rotate(71.095) scale(.08 -.08)">
<use xlink:href="#ab"/>
</g>
</g>
<path d="m448.33 139.72 4.8369 3.5776q1.9295 1.4272 3.3567-0.50237l4.6041-6.2248q1.4272-1.9295-0.50237-3.3567l-4.8369-3.5776q-1.9295-1.4272-3.3567 0.50237l-4.6041 6.2248q-1.4272 1.9295 0.50237 3.3567z" clip-path="url(#a)" fill="#fff" stroke="#fff"/>
<g clip-path="url(#a)">
<g transform="translate(450.75 136.45) rotate(36.488) scale(.08 -.08)">
<use xlink:href="#w"/>
</g>
</g>
<path d="m214.53 180.75 2.8235-5.1292q1.1574-2.1025-0.9451-3.2599l-6.7827-3.7338q-2.1025-1.1574-3.2599 0.9451l-2.8235 5.1292q-1.1574 2.1025 0.9451 3.2599l6.7827 3.7338q2.1025 1.1574 3.2599-0.9451z" clip-path="url(#a)" fill="#fff" stroke="#fff"/>
<g clip-path="url(#a)">
<defs>
<path id="v" d="m8.6875 72.906h9.9219v-44.297q0-11.719 4.2344-16.875 4.25-5.1406 13.781-5.1406 9.4688 0 13.719 5.1406 4.25 5.1562 4.25 16.875v44.297h9.9062v-45.516q0-14.25-7.0625-21.531-7.0469-7.2812-20.812-7.2812-13.828 0-20.891 7.2812-7.0469 7.2812-7.0469 21.531z"/>
</defs>
<g transform="translate(210.97 178.79) rotate(-61.168) scale(.08 -.08)">
<use xlink:href="#v"/>
</g>
</g>
<path d="m313.62 173.23 0.8939 5.7864q0.36641 2.3719 2.7383 2.0054l7.6517-1.1821q2.3719-0.36642 2.0054-2.7383l-0.8939-5.7864q-0.36641-2.3719-2.7383-2.0054l-7.6517 1.1821q-2.3719 0.36641-2.0054 2.7383z" clip-path="url(#a)" fill="#fff" stroke="#fff"/>
<g clip-path="url(#a)">
<g transform="translate(317.63 172.61) rotate(81.218) scale(.08 -.08)">
<use xlink:href="#v"/>
</g>
</g>
<path d="m62.268 141.28 1.7309-5.1915q0.75912-2.2768-1.5177-3.0359l-7.345-2.4489q-2.2768-0.75912-3.0359 1.5177l-1.7309 5.1915q-0.75912 2.2768 1.5177 3.0359l7.345 2.4489q2.2768 0.75912 3.0359-1.5177z" clip-path="url(#a)" fill="#fff" stroke="#fff"/>
<g clip-path="url(#a)">
<defs>
<path id="o" d="m34.188 63.188-13.391-36.281h26.812zm-5.5781 9.7188h11.188l27.781-72.906h-10.25l-6.6406 18.703h-32.859l-6.6406-18.703h-10.406z"/>
</defs>
<g transform="translate(58.413 139.99) rotate(-71.561) scale(.08 -.08)">
<use xlink:href="#o"/>
</g>
</g>
<path d="m64.327 212.02 0.016044 4.6012q0.008369 2.4 2.4084 2.3916l7.7425-0.026999q2.4-0.008368 2.3916-2.4084l-0.016045-4.6012q-0.008368-2.4-2.4084-2.3916l-7.7425 0.026998q-2.4 0.008368-2.3916 2.4084z" clip-path="url(#a)" fill="#fff" stroke="#fff"/>
<g clip-path="url(#a)">
<defs>
<path id="t" d="m9.8125 72.906h41.891v-8.3125h-32.031v-21.484h28.906v-8.2969h-28.906v-34.812h-9.8594z"/>
</defs>
<g transform="translate(68.39 212.01) rotate(89.8) scale(.08 -.08)">
<use xlink:href="#t"/>
</g>
</g>
<path d="m76.3 212.45 0.54582 5.0493q0.25793 2.3861 2.644 2.1282l7.6977-0.8321q2.3861-0.25793 2.1282-2.644l-0.54582-5.0493q-0.25793-2.3861-2.644-2.1282l-7.6977 0.8321q-2.3861 0.25793-2.1282 2.644z" clip-path="url(#a)" fill="#fff" stroke="#fff"/>
<g clip-path="url(#a)">
<defs>
<path id="ag" d="m53.516 70.516v-9.625q-5.6094 2.6875-10.594 4-4.9844 1.3281-9.625 1.3281-8.0469 0-12.422-3.125t-4.375-8.8906q0-4.8438 2.9062-7.3125 2.9062-2.4531 11.016-3.9688l5.9531-1.2188q11.031-2.1094 16.281-7.4062t5.25-14.172q0-10.609-7.1094-16.078-7.0938-5.4688-20.812-5.4688-5.1719 0-11.016 1.1719-5.8281 1.1719-12.078 3.4688v10.156q6-3.3594 11.766-5.0781 5.7656-1.7031 11.328-1.7031 8.4375 0 13.031 3.3125 4.5938 3.3281 4.5938 9.4844 0 5.3594-3.2969 8.3906t-10.812 4.5469l-6.0156 1.1719q-11.031 2.1875-15.969 6.875-4.9219 4.6875-4.9219 13.047 0 9.6719 6.8125 15.234t18.766 5.5625q5.1406 0 10.453-0.9375 5.3281-0.92188 10.891-2.7656z"/>
</defs>
<g transform="translate(80.34 212.01) rotate(83.83) scale(.08 -.08)">
<use xlink:href="#ag"/>
</g>
</g>
<path d="m193.7 298.33 3.4694-4.2322q1.5215-1.8561-0.33456-3.3776l-5.9878-4.9085q-1.8561-1.5215-3.3776 0.33456l-3.4694 4.2322q-1.5215 1.8561 0.33456 3.3776l5.9878 4.9085q1.8561 1.5215 3.3776-0.33456z" clip-path="url(#a)" fill="#fff" stroke="#fff"/>
<g clip-path="url(#a)">
<g transform="translate(190.56 295.75) rotate(-50.657) scale(.08 -.08)">
<use xlink:href="#o"/>
</g>
</g>
<path d="m215.4 296.32 1.3836-4.3883q0.72167-2.2889-1.5673-3.0106l-7.3842-2.3281q-2.2889-0.72167-3.0106 1.5673l-1.3836 4.3883q-0.72167 2.2889 1.5673 3.0106l7.3842 2.3281q2.2889 0.72167 3.0106-1.5673z" clip-path="url(#a)" fill="#fff" stroke="#fff"/>
<g clip-path="url(#a)">
<g transform="translate(211.52 295.09) rotate(-72.501) scale(.08 -.08)">
<use xlink:href="#t"/>
</g>
</g>
<path d="m225.32 291.12 1.3384 5.3063q0.58697 2.3271 2.9141 1.7401l7.5074-1.8936q2.3271-0.58697 1.7401-2.9141l-1.3384-5.3063q-0.58697-2.3271-2.9141-1.7401l-7.5074 1.8936q-2.3271 0.58697-1.7401 2.9141z" clip-path="url(#a)" fill="#fff" stroke="#fff"/>
<g clip-path="url(#a)">
<g transform="translate(229.26 290.12) rotate(75.844) scale(.08 -.08)">
<use xlink:href="#o"/>
</g>
</g>
<path d="m250.18 294.58 3.1924 3.6162q1.5883 1.7992 3.3876 0.21086l5.8043-5.1241q1.7992-1.5883 0.21086-3.3876l-3.1924-3.6162q-1.5883-1.7992-3.3876-0.21086l-5.8043 5.1241q-1.7992 1.5883-0.21086 3.3876z" clip-path="url(#a)" fill="#fff" stroke="#fff"/>
<g clip-path="url(#a)">
<defs>
<path id="r" d="m19.672 64.797v-27.391h12.406q6.8906 0 10.641 3.5625 3.7656 3.5625 3.7656 10.156 0 6.5469-3.7656 10.109-3.75 3.5625-10.641 3.5625zm-9.8594 8.1094h22.266q12.266 0 18.531-5.5469 6.2812-5.5469 6.2812-16.234 0-10.797-6.2812-16.312-6.2656-5.5156-18.531-5.5156h-12.406v-29.297h-9.8594z"/>
</defs>
<g transform="translate(253.22 291.89) rotate(48.562) scale(.08 -.08)">
<use xlink:href="#r"/>
</g>
</g>
<path d="m396.62 352.2v33.808q0 2.4 2.4 2.4h7.7425q2.4 0 2.4-2.4v-33.808q0-2.4-2.4-2.4h-7.7425q-2.4 0-2.4 2.4z" clip-path="url(#a)" fill="#fff" stroke="#fff"/>
<g clip-path="url(#a)">
<defs>
<path id="k" d="m-0.29688 72.906h61.672v-8.3125h-25.875v-64.594h-9.9062v64.594h-25.891z"/>
<path id="e" d="m56.203 29.594v-4.3906h-41.312q0.59375-9.2812 5.5938-14.141t13.938-4.8594q5.1719 0 10.031 1.2656t9.6562 3.8125v-8.5q-4.8438-2.0469-9.9219-3.125t-10.297-1.0781q-13.094 0-20.734 7.6094-7.6406 7.625-7.6406 20.625 0 13.422 7.25 21.297 7.25 7.8906 19.562 7.8906 11.031 0 17.453-7.1094 6.4219-7.0938 6.4219-19.297zm-8.9844 2.6406q-0.09375 7.3594-4.125 11.75-4.0312 4.4062-10.672 4.4062-7.5156 0-12.031-4.25t-5.2031-11.969z"/>
<path id="g" d="m41.109 46.297q-1.5156 0.875-3.2969 1.2812-1.7812 0.42188-3.9219 0.42188-7.625 0-11.703-4.9531t-4.0781-14.234v-28.812h-9.0312v54.688h9.0312v-8.5q2.8438 4.9844 7.375 7.3906 4.5469 2.4219 11.047 2.4219 0.92188 0 2.0469-0.125 1.125-0.10938 2.4844-0.35938z"/>
<path id="j" d="m52 44.188q3.375 6.0625 8.0625 8.9375t11.031 2.875q8.5469 0 13.188-5.9844 4.6406-5.9688 4.6406-17v-33.016h-9.0312v32.719q0 7.8594-2.7969 11.656-2.7812 3.8125-8.4844 3.8125-6.9844 0-11.047-4.6406-4.0469-4.625-4.0469-12.641v-30.906h-9.0312v32.719q0 7.9062-2.7812 11.688t-8.5938 3.7812q-6.8906 0-10.953-4.6562-4.0469-4.6562-4.0469-12.625v-30.906h-9.0312v54.688h9.0312v-8.5q3.0781 5.0312 7.375 7.4219t10.203 2.3906q5.9688 0 10.141-3.0312 4.1719-3.0156 6.1719-8.7812z"/>
<path id="f" d="m9.4219 54.688h8.9844v-54.688h-8.9844zm0 21.297h8.9844v-11.391h-8.9844z"/>
<path id="i" d="m54.891 33.016v-33.016h-8.9844v32.719q0 7.7656-3.0312 11.609-3.0312 3.8594-9.0781 3.8594-7.2812 0-11.484-4.6406-4.2031-4.625-4.2031-12.641v-30.906h-9.0312v54.688h9.0312v-8.5q3.2344 4.9375 7.5938 7.375 4.375 2.4375 10.094 2.4375 9.4219 0 14.25-5.8281 4.8438-5.8281 4.8438-17.156z"/>
<path id="h" d="m34.281 27.484q-10.891 0-15.094-2.4844t-4.2031-8.5q0-4.7812 3.1562-7.5938 3.1562-2.7969 8.5625-2.7969 7.4844 0 12 5.2969t4.5156 14.078v2zm17.922 3.7188v-31.203h-8.9844v8.2969q-3.0781-4.9688-7.6719-7.3438t-11.234-2.375q-8.3906 0-13.359 4.7188-4.9531 4.7188-4.9531 12.625 0 9.2188 6.1719 13.906 6.1875 4.6875 18.438 4.6875h12.609v0.89062q0 6.2031-4.0781 9.5938t-11.453 3.3906q-4.6875 0-9.1406-1.125-4.4375-1.125-8.5312-3.375v8.3125q4.9219 1.9062 9.5625 2.8438 4.6406 0.95312 9.0312 0.95312 11.875 0 17.734-6.1562 5.8594-6.1406 5.8594-18.641z"/>
<path id="l" d="m9.4219 75.984h8.9844v-75.984h-8.9844z"/>
</defs>
<g transform="translate(400.69 352.2) rotate(90) scale(.08 -.08)">
<use xlink:href="#k"/>
<use x="44.083984" xlink:href="#e"/>
<use x="105.607422" xlink:href="#g"/>
<use x="144.970703" xlink:href="#j"/>
<use x="242.382812" xlink:href="#f"/>
<use x="270.166016" xlink:href="#i"/>
<use x="333.544922" xlink:href="#h"/>
<use x="394.824219" xlink:href="#l"/>
</g>
</g>
<path d="m687.8 296.55 5.5522 2.6682q2.1632 1.0395 3.2027-1.1236l3.3536-6.9785q1.0395-2.1632-1.1236-3.2027l-5.5522-2.6682q-2.1632-1.0395-3.2027 1.1236l-3.3536 6.9785q-1.0395 2.1632 1.1236 3.2027z" clip-path="url(#a)" fill="#fff" stroke="#fff"/>
<g clip-path="url(#a)">
<defs>
<path id="ac" d="m19.672 64.797v-56.688h11.922q15.094 0 22.094 6.8281 7 6.8438 7 21.594 0 14.641-7 21.453t-22.094 6.8125zm-9.8594 8.1094h20.266q21.188 0 31.094-8.8125 9.9219-8.8125 9.9219-27.562 0-18.859-9.9688-27.703-9.9531-8.8281-31.047-8.8281h-20.266z"/>
</defs>
<g transform="translate(689.56 292.89) rotate(25.667) scale(.08 -.08)">
<use xlink:href="#ac"/>
</g>
</g>
<path d="m540.06 299.06 4.8381-2.5575q2.1218-1.1216 1.0002-3.2434l-3.6184-6.845q-1.1216-2.1218-3.2434-1.0002l-4.8381 2.5575q-2.1218 1.1216-1.0002 3.2434l3.6184 6.845q1.1216 2.1218 3.2434 1.0002z" clip-path="url(#a)" fill="#fff" stroke="#fff"/>
<g clip-path="url(#a)">
<g transform="translate(538.16 295.47) rotate(-27.862) scale(.08 -.08)">
<use xlink:href="#o"/>
</g>
</g>
<path d="m576.49 298.31 3.268-3.2391q1.7046-1.6895 0.015069-3.3941l-5.4504-5.499q-1.6895-1.7046-3.3941-0.015069l-3.268 3.2391q-1.7046 1.6895-0.015069 3.3941l5.4504 5.499q1.6895 1.7046 3.3941 0.01507z" clip-path="url(#a)" fill="#fff" stroke="#fff"/>
<g clip-path="url(#a)">
<g transform="translate(573.63 295.42) rotate(-44.746) scale(.08 -.08)">
<use xlink:href="#t"/>
</g>
</g>
<path d="m616.4 295.36 0.3444-5.4617q0.15104-2.3952-2.2442-2.5463l-7.7272-0.48725q-2.3952-0.15104-2.5463 2.2442l-0.3444 5.4617q-0.15104 2.3952 2.2442 2.5463l7.7272 0.48726q2.3952 0.15104 2.5463-2.2442z" clip-path="url(#a)" fill="#fff" stroke="#fff"/>
<g clip-path="url(#a)">
<g transform="translate(612.35 295.11) rotate(-86.392) scale(.08 -.08)">
<use xlink:href="#o"/>
</g>
</g>
<path d="m643.15 294.79 3.3147 3.5044q1.6492 1.7436 3.3928 0.094395l5.6249-5.3204q1.7436-1.6492 0.094395-3.3928l-3.3147-3.5044q-1.6492-1.7436-3.3928-0.094395l-5.6249 5.3204q-1.7436 1.6492-0.094395 3.3928z" clip-path="url(#a)" fill="#fff" stroke="#fff"/>
<g clip-path="url(#a)">
<g transform="translate(646.1 292) rotate(46.594) scale(.08 -.08)">
<use xlink:href="#r"/>
</g>
</g>
<path d="m685.44 296.56 5.2461 2.5999q2.1504 1.0657 3.2161-1.0847l3.438-6.9373q1.0657-2.1504-1.0847-3.2161l-5.2461-2.5999q-2.1504-1.0657-3.2161 1.0847l-3.438 6.9373q-1.0657 2.1504 1.0847 3.2161z" clip-path="url(#a)" fill="#fff" stroke="#fff"/>
<g clip-path="url(#a)">
<g transform="translate(687.24 292.91) rotate(26.362) scale(.08 -.08)">
<use xlink:href="#v"/>
</g>
</g>
<path d="m460.07 352.2v33.808q0 2.4 2.4 2.4h7.7425q2.4 0 2.4-2.4v-33.808q0-2.4-2.4-2.4h-7.7425q-2.4 0-2.4 2.4z" clip-path="url(#a)" fill="#fff" stroke="#fff"/>
<g clip-path="url(#a)">
<g transform="translate(464.13 352.2) rotate(90) scale(.08 -.08)">
<use xlink:href="#k"/>
<use x="44.083984" xlink:href="#e"/>
<use x="105.607422" xlink:href="#g"/>
<use x="144.970703" xlink:href="#j"/>
<use x="242.382812" xlink:href="#f"/>
<use x="270.166016" xlink:href="#i"/>
<use x="333.544922" xlink:href="#h"/>
<use x="394.824219" xlink:href="#l"/>
</g>
</g>
<path d="m528.4 352.2v33.808q0 2.4 2.4 2.4h7.7425q2.4 0 2.4-2.4v-33.808q0-2.4-2.4-2.4h-7.7425q-2.4 0-2.4 2.4z" clip-path="url(#a)" fill="#fff" stroke="#fff"/>
<g clip-path="url(#a)">
<g transform="translate(532.46 352.2) rotate(90) scale(.08 -.08)">
<use xlink:href="#k"/>
<use x="44.083984" xlink:href="#e"/>
<use x="105.607422" xlink:href="#g"/>
<use x="144.970703" xlink:href="#j"/>
<use x="242.382812" xlink:href="#f"/>
<use x="270.166016" xlink:href="#i"/>
<use x="333.544922" xlink:href="#h"/>
<use x="394.824219" xlink:href="#l"/>
</g>
</g>
<path d="m601.61 352.2v33.808q0 2.4 2.4 2.4h7.7425q2.4 0 2.4-2.4v-33.808q0-2.4-2.4-2.4h-7.7425q-2.4 0-2.4 2.4z" clip-path="url(#a)" fill="#fff" stroke="#fff"/>
<g clip-path="url(#a)">
<g transform="translate(605.67 352.2) rotate(90) scale(.08 -.08)">
<use xlink:href="#k"/>
<use x="44.083984" xlink:href="#e"/>
<use x="105.607422" xlink:href="#g"/>
<use x="144.970703" xlink:href="#j"/>
<use x="242.382812" xlink:href="#f"/>
<use x="270.166016" xlink:href="#i"/>
<use x="333.544922" xlink:href="#h"/>
<use x="394.824219" xlink:href="#l"/>
</g>
</g>
<path d="m679.7 352.2v33.808q0 2.4 2.4 2.4h7.7425q2.4 0 2.4-2.4v-33.808q0-2.4-2.4-2.4h-7.7425q-2.4 0-2.4 2.4z" clip-path="url(#a)" fill="#fff" stroke="#fff"/>
<g clip-path="url(#a)">
<g transform="translate(683.76 352.2) rotate(90) scale(.08 -.08)">
<use xlink:href="#k"/>
<use x="44.083984" xlink:href="#e"/>
<use x="105.607422" xlink:href="#g"/>
<use x="144.970703" xlink:href="#j"/>
<use x="242.382812" xlink:href="#f"/>
<use x="270.166016" xlink:href="#i"/>
<use x="333.544922" xlink:href="#h"/>
<use x="394.824219" xlink:href="#l"/>
</g>
</g>
<path d="m152.59 352.2v33.808q0 2.4 2.4 2.4h7.7425q2.4 0 2.4-2.4v-33.808q0-2.4-2.4-2.4h-7.7425q-2.4 0-2.4 2.4z" clip-path="url(#a)" fill="#fff" stroke="#fff"/>
<g clip-path="url(#a)">
<g transform="translate(156.66 352.2) rotate(90) scale(.08 -.08)">
<use xlink:href="#k"/>
<use x="44.083984" xlink:href="#e"/>
<use x="105.607422" xlink:href="#g"/>
<use x="144.970703" xlink:href="#j"/>
<use x="242.382812" xlink:href="#f"/>
<use x="270.166016" xlink:href="#i"/>
<use x="333.544922" xlink:href="#h"/>
<use x="394.824219" xlink:href="#l"/>
</g>
</g>
<path d="m191.64 352.2v33.808q0 2.4 2.4 2.4h7.7425q2.4 0 2.4-2.4v-33.808q0-2.4-2.4-2.4h-7.7425q-2.4 0-2.4 2.4z" clip-path="url(#a)" fill="#fff" stroke="#fff"/>
<g clip-path="url(#a)">
<g transform="translate(195.7 352.2) rotate(90) scale(.08 -.08)">
<use xlink:href="#k"/>
<use x="44.083984" xlink:href="#e"/>
<use x="105.607422" xlink:href="#g"/>
<use x="144.970703" xlink:href="#j"/>
<use x="242.382812" xlink:href="#f"/>
<use x="270.166016" xlink:href="#i"/>
<use x="333.544922" xlink:href="#h"/>
<use x="394.824219" xlink:href="#l"/>
</g>
</g>
<path d="m235.56 352.2v33.808q0 2.4 2.4 2.4h7.7425q2.4 0 2.4-2.4v-33.808q0-2.4-2.4-2.4h-7.7425q-2.4 0-2.4 2.4z" clip-path="url(#a)" fill="#fff" stroke="#fff"/>
<g clip-path="url(#a)">
<g transform="translate(239.63 352.2) rotate(90) scale(.08 -.08)">
<use xlink:href="#k"/>
<use x="44.083984" xlink:href="#e"/>
<use x="105.607422" xlink:href="#g"/>
<use x="144.970703" xlink:href="#j"/>
<use x="242.382812" xlink:href="#f"/>
<use x="270.166016" xlink:href="#i"/>
<use x="333.544922" xlink:href="#h"/>
<use x="394.824219" xlink:href="#l"/>
</g>
</g>
<path d="m284.37 352.2v33.808q0 2.4 2.4 2.4h7.7425q2.4 0 2.4-2.4v-33.808q0-2.4-2.4-2.4h-7.7425q-2.4 0-2.4 2.4z" clip-path="url(#a)" fill="#fff" stroke="#fff"/>
<g clip-path="url(#a)">
<g transform="translate(288.43 352.2) rotate(90) scale(.08 -.08)">
<use xlink:href="#k"/>
<use x="44.083984" xlink:href="#e"/>
<use x="105.607422" xlink:href="#g"/>
<use x="144.970703" xlink:href="#j"/>
<use x="242.382812" xlink:href="#f"/>
<use x="270.166016" xlink:href="#i"/>
<use x="333.544922" xlink:href="#h"/>
<use x="394.824219" xlink:href="#l"/>
</g>
</g>
<path d="m37.898 212.22v4.8238q0 2.4 2.4 2.4h7.7425q2.4 0 2.4-2.4v-4.8238q0-2.4-2.4-2.4h-7.7425q-2.4 0-2.4 2.4z" clip-path="url(#a)" fill="#fff" stroke="#fff"/>
<g clip-path="url(#a)">
<g transform="translate(41.962 212.22) rotate(90) scale(.08 -.08)">
<use xlink:href="#r"/>
</g>
</g>
<path d="m64.741 352.2v33.808q0 2.4 2.4 2.4h7.7425q2.4 0 2.4-2.4v-33.808q0-2.4-2.4-2.4h-7.7425q-2.4 0-2.4 2.4z" clip-path="url(#a)" fill="#fff" stroke="#fff"/>
<g clip-path="url(#a)">
<g transform="translate(68.805 352.2) rotate(90) scale(.08 -.08)">
<use xlink:href="#k"/>
<use x="44.083984" xlink:href="#e"/>
<use x="105.607422" xlink:href="#g"/>
<use x="144.970703" xlink:href="#j"/>
<use x="242.382812" xlink:href="#f"/>
<use x="270.166016" xlink:href="#i"/>
<use x="333.544922" xlink:href="#h"/>
<use x="394.824219" xlink:href="#l"/>
</g>
</g>
<path d="m89.144 352.2v33.808q0 2.4 2.4 2.4h7.7425q2.4 0 2.4-2.4v-33.808q0-2.4-2.4-2.4h-7.7425q-2.4 0-2.4 2.4z" clip-path="url(#a)" fill="#fff" stroke="#fff"/>
<g clip-path="url(#a)">
<g transform="translate(93.208 352.2) rotate(90) scale(.08 -.08)">
<use xlink:href="#k"/>
<use x="44.083984" xlink:href="#e"/>
<use x="105.607422" xlink:href="#g"/>
<use x="144.970703" xlink:href="#j"/>
<use x="242.382812" xlink:href="#f"/>
<use x="270.166016" xlink:href="#i"/>
<use x="333.544922" xlink:href="#h"/>
<use x="394.824219" xlink:href="#l"/>
</g>
</g>
<path d="m46.536 295.12 0.43328-4.5808q0.226-2.3893-2.1633-2.6153l-7.7081-0.72908q-2.3893-0.226-2.6153 2.1633l-0.43328 4.5808q-0.226 2.3893 2.1633 2.6153l7.7081 0.72908q2.3893 0.226 2.6153-2.1633z" clip-path="url(#a)" fill="#fff" stroke="#fff"/>
<g clip-path="url(#a)">
<g transform="translate(42.49 294.73) rotate(-84.597) scale(.08 -.08)">
<use xlink:href="#t"/>
</g>
</g>
<path d="m41.323 290.05 0.52604 5.5614q0.226 2.3893 2.6153 2.1633l7.7081-0.72908q2.3893-0.226 2.1633-2.6153l-0.52603-5.5614q-0.226-2.3893-2.6153-2.1633l-7.7081 0.72908q-2.3893 0.226-2.1633 2.6153z" clip-path="url(#a)" fill="#fff" stroke="#fff"/>
<g clip-path="url(#a)">
<defs>
<path id="ad" d="m64.406 67.281v-10.391q-4.9844 4.6406-10.625 6.9219-5.6406 2.2969-11.984 2.2969-12.5 0-19.141-7.6406t-6.6406-22.094q0-14.406 6.6406-22.047t19.141-7.6406q6.3438 0 11.984 2.2969t10.625 6.9375v-10.312q-5.1719-3.5156-10.969-5.2812-5.7812-1.75-12.219-1.75-16.562 0-26.094 10.125-9.5156 10.141-9.5156 27.672 0 17.578 9.5156 27.703 9.5312 10.141 26.094 10.141 6.5312 0 12.312-1.7344 5.7969-1.7344 10.875-5.2031z"/>
</defs>
<g transform="translate(45.369 289.66) rotate(84.597) scale(.08 -.08)">
<use xlink:href="#ad"/>
</g>
</g>
<path d="m30.577 352.2v33.808q0 2.4 2.4 2.4h7.7425q2.4 0 2.4-2.4v-33.808q0-2.4-2.4-2.4h-7.7425q-2.4 0-2.4 2.4z" clip-path="url(#a)" fill="#fff" stroke="#fff"/>
<g clip-path="url(#a)">
<g transform="translate(34.641 352.2) rotate(90) scale(.08 -.08)">
<use xlink:href="#k"/>
<use x="44.083984" xlink:href="#e"/>
<use x="105.607422" xlink:href="#g"/>
<use x="144.970703" xlink:href="#j"/>
<use x="242.382812" xlink:href="#f"/>
<use x="270.166016" xlink:href="#i"/>
<use x="333.544922" xlink:href="#h"/>
<use x="394.824219" xlink:href="#l"/>
</g>
</g>
<path d="m45.219 352.2v33.808q0 2.4 2.4 2.4h7.7425q2.4 0 2.4-2.4v-33.808q0-2.4-2.4-2.4h-7.7425q-2.4 0-2.4 2.4z" clip-path="url(#a)" fill="#fff" stroke="#fff"/>
<g clip-path="url(#a)">
<g transform="translate(49.283 352.2) rotate(90) scale(.08 -.08)">
<use xlink:href="#k"/>
<use x="44.083984" xlink:href="#e"/>
<use x="105.607422" xlink:href="#g"/>
<use x="144.970703" xlink:href="#j"/>
<use x="242.382812" xlink:href="#f"/>
<use x="270.166016" xlink:href="#i"/>
<use x="333.544922" xlink:href="#h"/>
<use x="394.824219" xlink:href="#l"/>
</g>
</g>
<path d="m118.43 352.2v33.808q0 2.4 2.4 2.4h7.7425q2.4 0 2.4-2.4v-33.808q0-2.4-2.4-2.4h-7.7425q-2.4 0-2.4 2.4z" clip-path="url(#a)" fill="#fff" stroke="#fff"/>
<g clip-path="url(#a)">
<g transform="translate(122.49 352.2) rotate(90) scale(.08 -.08)">
<use xlink:href="#k"/>
<use x="44.083984" xlink:href="#e"/>
<use x="105.607422" xlink:href="#g"/>
<use x="144.970703" xlink:href="#j"/>
<use x="242.382812" xlink:href="#f"/>
<use x="270.166016" xlink:href="#i"/>
<use x="333.544922" xlink:href="#h"/>
<use x="394.824219" xlink:href="#l"/>
</g>
</g>
<path d="m338.05 352.2v33.808q0 2.4 2.4 2.4h7.7425q2.4 0 2.4-2.4v-33.808q0-2.4-2.4-2.4h-7.7425q-2.4 0-2.4 2.4z" clip-path="url(#a)" fill="#fff" stroke="#fff"/>
<g clip-path="url(#a)">
<g transform="translate(342.12 352.2) rotate(90) scale(.08 -.08)">
<use xlink:href="#k"/>
<use x="44.083984" xlink:href="#e"/>
<use x="105.607422" xlink:href="#g"/>
<use x="144.970703" xlink:href="#j"/>
<use x="242.382812" xlink:href="#f"/>
<use x="270.166016" xlink:href="#i"/>
<use x="333.544922" xlink:href="#h"/>
<use x="394.824219" xlink:href="#l"/>
</g>
</g>
<path d="m762.67 352.2v33.808q0 2.4 2.4 2.4h7.7425q2.4 0 2.4-2.4v-33.808q0-2.4-2.4-2.4h-7.7425q-2.4 0-2.4 2.4z" clip-path="url(#a)" fill="#fff" stroke="#fff"/>
<g clip-path="url(#a)">
<g transform="translate(766.73 352.2) rotate(90) scale(.08 -.08)">
<use xlink:href="#k"/>
<use x="44.083984" xlink:href="#e"/>
<use x="105.607422" xlink:href="#g"/>
<use x="144.970703" xlink:href="#j"/>
<use x="242.382812" xlink:href="#f"/>
<use x="270.166016" xlink:href="#i"/>
<use x="333.544922" xlink:href="#h"/>
<use x="394.824219" xlink:href="#l"/>
</g>
</g>
<defs>
<path id="b" d="m0 8.6603c2.2967 0 4.4997-0.9125 6.1237-2.5365 1.624-1.624 2.5365-3.827 2.5365-6.1237s-0.9125-4.4997-2.5365-6.1237c-1.624-1.624-3.827-2.5365-6.1237-2.5365s-4.4997 0.9125-6.1237 2.5365c-1.624 1.624-2.5365 3.827-2.5365 6.1237s0.9125 4.4997 2.5365 6.1237c1.624 1.624 3.827 2.5365 6.1237 2.5365z"/>
</defs>
<g clip-path="url(#a)" fill="#ffffff" stroke="#ffffff">
<use x="36.848485" y="407.272727" xlink:href="#b"/>
<use x="51.490267" y="407.272727" xlink:href="#b"/>
<use x="71.012643" y="407.272727" xlink:href="#b"/>
<use x="95.415613" y="407.272727" xlink:href="#b"/>
<use x="124.699177" y="407.272727" xlink:href="#b"/>
<use x="158.863335" y="407.272727" xlink:href="#b"/>
<use x="197.908087" y="407.272727" xlink:href="#b"/>
<use x="241.833434" y="407.272727" xlink:href="#b"/>
<use x="290.639374" y="407.272727" xlink:href="#b"/>
<use x="344.325908" y="407.272727" xlink:href="#b"/>
<use x="402.893036" y="407.272727" xlink:href="#b"/>
<use x="466.340759" y="407.272727" xlink:href="#b"/>
<use x="534.669075" y="407.272727" xlink:href="#b"/>
<use x="607.877985" y="407.272727" xlink:href="#b"/>
<use x="685.967489" y="407.272727" xlink:href="#b"/>
<use x="768.937588" y="407.272727" xlink:href="#b"/>
<use x="773.818182" y="330.93551" xlink:href="#b"/>
<use x="296.197828" y="19.393939" xlink:href="#b"/>
<use x="70.199211" y="97.661346" xlink:href="#b"/>
<use x="222.311058" y="253.536358" xlink:href="#b"/>
<use x="402.893036" y="330.93551" xlink:href="#b"/>
<use x="612.758579" y="253.536358" xlink:href="#b"/>
<use x="466.340759" y="330.93551" xlink:href="#b"/>
<use x="534.669075" y="330.93551" xlink:href="#b"/>
<use x="607.877985" y="330.93551" xlink:href="#b"/>
<use x="685.967489" y="330.93551" xlink:href="#b"/>
<use x="158.863335" y="330.93551" xlink:href="#b"/>
<use x="197.908087" y="330.93551" xlink:href="#b"/>
<use x="241.833434" y="330.93551" xlink:href="#b"/>
<use x="290.639374" y="330.93551" xlink:href="#b"/>
<use x="44.169376" y="175.731254" xlink:href="#b"/>
<use x="71.012643" y="330.93551" xlink:href="#b"/>
<use x="95.415613" y="330.93551" xlink:href="#b"/>
<use x="44.169376" y="253.536358" xlink:href="#b"/>
<use x="36.848485" y="330.93551" xlink:href="#b"/>
<use x="51.490267" y="330.93551" xlink:href="#b"/>
<use x="124.699177" y="330.93551" xlink:href="#b"/>
<use x="344.325908" y="330.93551" xlink:href="#b"/>
<use x="768.937588" y="330.93551" xlink:href="#b"/>
</g>
<g clip-path="url(#a)">
<g transform="translate(28.533 410.03) scale(.1 -.1)">
<use xlink:href="#ac"/>
<use x="77.001953" xlink:href="#f"/>
<use x="104.785156" xlink:href="#e"/>
</g>
</g>
<g clip-path="url(#a)">
<defs>
<path id="p" d="m18.312 70.219v-15.531h18.5v-6.9844h-18.5v-29.688q0-6.6875 1.8281-8.5938t7.4531-1.9062h9.2188v-7.5156h-9.2188q-10.406 0-14.359 3.875-3.9531 3.8906-3.9531 14.141v29.688h-6.5938v6.9844h6.5938v15.531z"/>
<path id="ao" d="m4.2031 54.688h8.9844l11.234-42.672 11.172 42.672h10.594l11.234-42.672 11.188 42.672h8.9844l-14.312-54.688h-10.594l-11.766 44.828-11.812-44.828h-10.609z"/>
<path id="ar" d="m30.609 48.391q-7.2188 0-11.422-5.6406t-4.2031-15.453 4.1719-15.453q4.1875-5.6406 11.453-5.6406 7.1875 0 11.375 5.6562 4.2031 5.6719 4.2031 15.438 0 9.7188-4.2031 15.406-4.1875 5.6875-11.375 5.6875zm0 7.6094q11.719 0 18.406-7.625 6.7031-7.6094 6.7031-21.078 0-13.422-6.7031-21.078-6.6875-7.6406-18.406-7.6406-11.766 0-18.438 7.6406-6.6562 7.6562-6.6562 21.078 0 13.469 6.6562 21.078 6.6719 7.625 18.438 7.625z"/>
</defs>
<g transform="translate(31.777 410.03) scale(.1 -.1)">
<use xlink:href="#o"/>
<use x="68.408203" xlink:href="#i"/>
<use x="131.787109" xlink:href="#p"/>
<use x="170.996094" xlink:href="#ao"/>
<use x="252.783203" xlink:href="#ar"/>
<use x="313.964844" xlink:href="#g"/>
<use x="355.078125" xlink:href="#p"/>
</g>
</g>
<g clip-path="url(#a)">
<defs>
<path id="n" d="m44.281 53.078v-8.5q-3.7969 1.9531-7.9062 2.9219-4.0938 0.98438-8.5 0.98438-6.6875 0-10.031-2.0469t-3.3438-6.1562q0-3.125 2.3906-4.9062t9.625-3.3906l3.0781-0.6875q9.5625-2.0469 13.594-5.7812t4.0312-10.422q0-7.625-6.0312-12.078-6.0312-4.4375-16.578-4.4375-4.3906 0-9.1562 0.85938t-10.031 2.5625v9.2812q4.9844-2.5938 9.8125-3.8906 4.8281-1.2812 9.5781-1.2812 6.3438 0 9.75 2.1719 3.4219 2.1719 3.4219 6.125 0 3.6562-2.4688 5.6094-2.4531 1.9531-10.812 3.7656l-3.125 0.73438q-8.3438 1.75-12.062 5.3906-3.7031 3.6406-3.7031 9.9844 0 7.7188 5.4688 11.906 5.4688 4.2031 15.531 4.2031 4.9688 0 9.3594-0.73438 4.4062-0.71875 8.1094-2.1875z"/>
</defs>
<g transform="translate(65.059 410.03) scale(.1 -.1)">
<use xlink:href="#f"/>
<use x="27.783203" xlink:href="#n"/>
<use x="79.882812" xlink:href="#p"/>
</g>
</g>
<g clip-path="url(#a)">
<defs>
<path id="au" d="m37.109 75.984v-7.4844h-8.5938q-4.8281 0-6.7188-1.9531-1.875-1.9531-1.875-7.0312v-4.8281h14.797v-6.9844h-14.797v-47.703h-9.0312v47.703h-8.5938v6.9844h8.5938v3.8125q0 9.125 4.25 13.297 4.25 4.1875 13.469 4.1875z"/>
<path id="q" d="m48.781 52.594v-8.4062q-3.8125 2.1094-7.6406 3.1562t-7.7344 1.0469q-8.75 0-13.594-5.5469-4.8281-5.5312-4.8281-15.547t4.8281-15.562q4.8438-5.5312 13.594-5.5312 3.9062 0 7.7344 1.0469t7.6406 3.1562v-8.3125q-3.7656-1.75-7.7969-2.625-4.0156-0.89062-8.5625-0.89062-12.359 0-19.641 7.7656-7.2656 7.7656-7.2656 20.953 0 13.375 7.3438 21.031 7.3594 7.6719 20.156 7.6719 4.1406 0 8.0938-0.85938 3.9531-0.84375 7.6719-2.5469z"/>
<path id="u" d="m54.891 33.016v-33.016h-8.9844v32.719q0 7.7656-3.0312 11.609-3.0312 3.8594-9.0781 3.8594-7.2812 0-11.484-4.6406-4.2031-4.625-4.2031-12.641v-30.906h-9.0312v75.984h9.0312v-29.797q3.2344 4.9375 7.5938 7.375 4.375 2.4375 10.094 2.4375 9.4219 0 14.25-5.8281 4.8438-5.8281 4.8438-17.156z"/>
</defs>
<g transform="translate(77.039 410.03) scale(.1 -.1)">
<use xlink:href="#e"/>
<use x="61.523438" xlink:href="#f"/>
<use x="89.306641" xlink:href="#i"/>
<use x="152.685547" xlink:href="#au"/>
<use x="187.890625" xlink:href="#h"/>
<use x="249.169922" xlink:href="#q"/>
<use x="304.150391" xlink:href="#u"/>
</g>
</g>
<g clip-path="url(#a)">
<defs>
<path id="ai" d="m11.719 12.406h10.297v-12.406h-10.297zm0 39.297h10.297v-12.391h-10.297z"/>
</defs>
<g transform="translate(123.01 410.03) scale(.1 -.1)">
<use xlink:href="#ai"/>
</g>
</g>
<g clip-path="url(#a)">
<defs>
<path id="s" d="m9.8125 72.906h9.8594v-72.906h-9.8594z"/>
</defs>
<g transform="translate(151.47 410.03) scale(.1 -.1)">
<use xlink:href="#s"/>
<use x="29.492188" xlink:href="#q"/>
<use x="84.472656" xlink:href="#u"/>
</g>
</g>
<g clip-path="url(#a)">
<defs>
<path id="aa" d="m48.688 27.297q0 9.9062-4.0781 15.547t-11.203 5.6406q-7.1406 0-11.219-5.6406t-4.0781-15.547 4.0781-15.547 11.219-5.6406q7.125 0 11.203 5.6406t4.0781 15.547zm-30.578 19.094q2.8438 4.875 7.1562 7.2344 4.3281 2.375 10.328 2.375 9.9688 0 16.188-7.9062 6.2344-7.9062 6.2344-20.797t-6.2344-20.812q-6.2188-7.9062-16.188-7.9062-6 0-10.328 2.375-4.3125 2.375-7.1562 7.25v-8.2031h-9.0312v75.984h9.0312z"/>
</defs>
<g transform="translate(185.42 410.03) scale(.1 -.1)">
<use xlink:href="#u"/>
<use x="63.378906" xlink:href="#h"/>
<use x="124.658203" xlink:href="#aa"/>
<use x="188.134766" xlink:href="#e"/>
</g>
</g>
<g clip-path="url(#a)">
<g transform="translate(236.15 410.03) scale(.1 -.1)">
<use xlink:href="#e"/>
<use x="61.523438" xlink:href="#n"/>
</g>
</g>
<g clip-path="url(#a)">
<defs>
<path id="ap" d="m2.9844 54.688h9.5156l17.094-45.891 17.094 45.891h9.5156l-20.516-54.688h-12.203z"/>
<path id="aq" d="m8.5 21.578v33.109h8.9844v-32.766q0-7.7656 3.0156-11.656 3.0312-3.875 9.0938-3.875 7.2656 0 11.484 4.6406 4.2344 4.6406 4.2344 12.656v31h8.9844v-54.688h-8.9844v8.4062q-3.2656-4.9844-7.5938-7.4062-4.3125-2.4219-10.031-2.4219-9.4219 0-14.312 5.8594-4.875 5.8594-4.875 17.141z"/>
</defs>
<g transform="translate(268.9 410.03) scale(.1 -.1)">
<use xlink:href="#ap"/>
<use x="59.179688" xlink:href="#e"/>
<use x="120.703125" xlink:href="#g"/>
<use x="161.816406" xlink:href="#n"/>
<use x="213.916016" xlink:href="#aq"/>
<use x="277.294922" xlink:href="#q"/>
<use x="332.275391" xlink:href="#u"/>
<use x="395.654297" xlink:href="#p"/>
</g>
</g>
<g clip-path="url(#a)">
<defs>
<path id="am" d="m11.719 12.406h10.297v-8.4062l-8-15.625h-6.2969l4 15.625z"/>
</defs>
<g transform="translate(342.74 410.03) scale(.1 -.1)">
<use xlink:href="#am"/>
</g>
</g>
<g clip-path="url(#a)">
<g transform="translate(391.52 410.03) scale(.1 -.1)">
<use xlink:href="#h"/>
<use x="61.279297" xlink:href="#aa"/>
<use x="124.755859" xlink:href="#e"/>
<use x="186.279297" xlink:href="#g"/>
</g>
</g>
<g clip-path="url(#a)">
<g transform="translate(460.66 410.03) scale(.1 -.1)">
<use xlink:href="#e"/>
<use x="61.523438" xlink:href="#n"/>
</g>
</g>
<g clip-path="url(#a)">
<g transform="translate(528.72 410.03) scale(.1 -.1)">
<use xlink:href="#f"/>
<use x="27.783203" xlink:href="#n"/>
<use x="79.882812" xlink:href="#p"/>
</g>
</g>
<g clip-path="url(#a)">
<g transform="translate(599.56 410.03) scale(.1 -.1)">
<use xlink:href="#j"/>
<use x="97.412109" xlink:href="#f"/>
<use x="125.195312" xlink:href="#g"/>
</g>
</g>
<g clip-path="url(#a)">
<defs>
<path id="at" d="m45.406 27.984q0 9.7656-4.0312 15.125-4.0156 5.375-11.297 5.375-7.2188 0-11.25-5.375-4.0312-5.3594-4.0312-15.125 0-9.7188 4.0312-15.094t11.25-5.375q7.2812 0 11.297 5.375 4.0312 5.375 4.0312 15.094zm8.9844-21.203q0-13.953-6.2031-20.766-6.1875-6.8125-18.984-6.8125-4.7344 0-8.9375 0.70312t-8.1562 2.1719v8.7344q3.9531-2.1406 7.8125-3.1562 3.8594-1.0312 7.8594-1.0312 8.8438 0 13.234 4.6094t4.3906 13.938v4.4531q-2.7812-4.8438-7.125-7.2344t-10.406-2.3906q-10.047 0-16.203 7.6562-6.1562 7.6719-6.1562 20.328 0 12.688 6.1562 20.344 6.1562 7.6719 16.203 7.6719 6.0625 0 10.406-2.3906t7.125-7.2188v8.2969h8.9844z"/>
<path id="an" d="m8.5 21.578v33.109h8.9844v-32.766q0-7.7656 3.0156-11.656 3.0312-3.875 9.0938-3.875 7.2656 0 11.484 4.6406 4.2344 4.6406 4.2344 12.656v31h8.9844v-54.688h-8.9844v8.4062q-3.2656-4.9844-7.5938-7.4062-4.3125-2.4219-10.031-2.4219-9.4219 0-14.312 5.8594-4.875 5.8594-4.875 17.141zm22.609 34.422m4.4844 19.781h9.9062v-9.8594h-9.9062zm-19.094 0h9.9062v-9.8594h-9.9062z"/>
<path id="as" d="m9.0781 75.984h9.0312v-44.875l26.812 23.578h11.469l-29-25.578 30.234-29.109h-11.719l-27.797 26.703v-26.703h-9.0312z"/>
</defs>
<g transform="translate(659.16 410.03) scale(.1 -.1)">
<use xlink:href="#j"/>
<use x="97.412109" xlink:href="#f"/>
<use x="125.195312" xlink:href="#n"/>
<use x="177.294922" xlink:href="#n"/>
<use x="229.394531" xlink:href="#at"/>
<use x="292.871094" xlink:href="#l"/>
<use x="320.654297" xlink:href="#an"/>
<use x="384.033203" xlink:href="#q"/>
<use x="439.013672" xlink:href="#as"/>
<use x="496.923828" xlink:href="#p"/>
</g>
</g>
<g clip-path="url(#a)">
<defs>
<path id="d" d="m10.688 12.406h10.312v-12.406h-10.312z"/>
</defs>
<g transform="translate(767.35 410.03) scale(.1 -.1)">
<use xlink:href="#d"/>
</g>
</g>
<g clip-path="url(#a)">
<defs>
<path id="ah" d="m9.8125 72.906h14.703l18.594-49.609 18.703 49.609h14.703v-72.906h-9.625v64.016l-18.797-50h-9.9062l-18.797 50v-64.016h-9.5781z"/>
</defs>
<g transform="translate(752.73 333.69) scale(.1 -.1)">
<use xlink:href="#s"/>
<use x="29.492188" xlink:href="#ah"/>
<use x="115.771484" xlink:href="#r"/>
<use x="176.074219" xlink:href="#ab"/>
<use x="231.787109" xlink:href="#s"/>
<use x="261.279297" xlink:href="#ad"/>
<use x="331.103516" xlink:href="#s"/>
<use x="360.595703" xlink:href="#k"/>
</g>
</g>
<g clip-path="url(#a)">
<defs>
<path id="c" d="m12.406 8.2969h16.109v55.625l-17.531-3.5156v8.9844l17.438 3.5156h9.8594v-64.609h16.109v-8.2969h-41.984z"/>
</defs>
<g transform="translate(288.25 22.153) scale(.1 -.1)">
<use xlink:href="#c"/>
<use x="63.623047" xlink:href="#d"/>
<use x="95.410156" xlink:href="#c"/>
</g>
</g>
<g clip-path="url(#a)">
<defs>
<path id="m" d="m19.188 8.2969h34.422v-8.2969h-46.281v8.2969q5.6094 5.8125 15.297 15.594 9.7031 9.7969 12.188 12.641 4.7344 5.3125 6.6094 9 1.8906 3.6875 1.8906 7.25 0 5.8125-4.0781 9.4688-4.0781 3.6719-10.625 3.6719-4.6406 0-9.7969-1.6094-5.1406-1.6094-11-4.8906v9.9688q5.9531 2.3906 11.125 3.6094 5.1875 1.2188 9.4844 1.2188 11.328 0 18.062-5.6719 6.7344-5.6562 6.7344-15.125 0-4.5-1.6875-8.5312-1.6719-4.0156-6.125-9.4844-1.2188-1.4219-7.7656-8.1875-6.5312-6.7656-18.453-18.922z"/>
</defs>
<g transform="translate(62.248 100.42) scale(.1 -.1)">
<use xlink:href="#c"/>
<use x="63.623047" xlink:href="#d"/>
<use x="95.410156" xlink:href="#m"/>
</g>
</g>
<g clip-path="url(#a)">
<defs>
<path id="z" d="m40.578 39.312q7.0781-1.5156 11.047-6.3125 3.9844-4.7812 3.9844-11.812 0-10.781-7.4219-16.703-7.4219-5.9062-21.094-5.9062-4.5781 0-9.4375 0.90625t-10.031 2.7188v9.5156q4.0938-2.3906 8.9688-3.6094 4.8906-1.2188 10.219-1.2188 9.2656 0 14.125 3.6562t4.8594 10.641q0 6.4531-4.5156 10.078-4.5156 3.6406-12.562 3.6406h-8.5v8.1094h8.8906q7.2656 0 11.125 2.9062t3.8594 8.375q0 5.6094-3.9844 8.6094-3.9688 3.0156-11.391 3.0156-4.0625 0-8.7031-0.89062-4.6406-0.875-10.203-2.7188v8.7812q5.625 1.5625 10.531 2.3438t9.25 0.78125q11.234 0 17.766-5.1094 6.5469-5.0938 6.5469-13.781 0-6.0625-3.4688-10.234t-9.8594-5.7812z"/>
</defs>
<g transform="translate(214.36 256.3) scale(.1 -.1)">
<use xlink:href="#c"/>
<use x="63.623047" xlink:href="#d"/>
<use x="95.410156" xlink:href="#z"/>
</g>
</g>
<g clip-path="url(#a)">
<defs>
<path id="y" d="m37.797 64.312-24.906-38.922h24.906zm-2.5938 8.5938h12.406v-47.516h10.406v-8.2031h-10.406v-17.188h-9.8125v17.188h-32.906v9.5156z"/>
</defs>
<g transform="translate(394.94 333.69) scale(.1 -.1)">
<use xlink:href="#c"/>
<use x="63.623047" xlink:href="#d"/>
<use x="95.410156" xlink:href="#y"/>
</g>
</g>
<g clip-path="url(#a)">
<defs>
<path id="x" d="m10.797 72.906h38.719v-8.3125h-29.688v-17.859q2.1406 0.73438 4.2812 1.0938 2.1562 0.35938 4.3125 0.35938 12.203 0 19.328-6.6875 7.1406-6.6875 7.1406-18.109 0-11.766-7.3281-18.297-7.3281-6.5156-20.656-6.5156-4.5938 0-9.3594 0.78125-4.75 0.78125-9.8281 2.3438v9.9219q4.3906-2.3906 9.0781-3.5625t9.9062-1.1719q8.4531 0 13.375 4.4375 4.9375 4.4375 4.9375 12.062 0 7.6094-4.9375 12.047-4.9219 4.4531-13.375 4.4531-3.9531 0-7.8906-0.875-3.9219-0.875-8.0156-2.7344z"/>
</defs>
<g transform="translate(604.81 256.3) scale(.1 -.1)">
<use xlink:href="#c"/>
<use x="63.623047" xlink:href="#d"/>
<use x="95.410156" xlink:href="#x"/>
</g>
</g>
<g clip-path="url(#a)">
<defs>
<path id="af" d="m31.781 66.406q-7.6094 0-11.453-7.5-3.8281-7.4844-3.8281-22.531 0-14.984 3.8281-22.484 3.8438-7.5 11.453-7.5 7.6719 0 11.5 7.5 3.8438 7.5 3.8438 22.484 0 15.047-3.8438 22.531-3.8281 7.5-11.5 7.5zm0 7.8125q12.266 0 18.734-9.7031 6.4688-9.6875 6.4688-28.141 0-18.406-6.4688-28.109-6.4688-9.6875-18.734-9.6875-12.25 0-18.719 9.6875-6.4688 9.7031-6.4688 28.109 0 18.453 6.4688 28.141 6.4688 9.7031 18.719 9.7031z"/>
</defs>
<g transform="translate(455.21 333.69) scale(.1 -.1)">
<use xlink:href="#c"/>
<use x="63.623047" xlink:href="#d"/>
<use x="95.410156" xlink:href="#c"/>
<use x="159.033203" xlink:href="#af"/>
</g>
</g>
<g clip-path="url(#a)">
<g transform="translate(523.54 333.69) scale(.1 -.1)">
<use xlink:href="#c"/>
<use x="63.623047" xlink:href="#d"/>
<use x="95.410156" xlink:href="#c"/>
<use x="159.033203" xlink:href="#c"/>
</g>
</g>
<g clip-path="url(#a)">
<g transform="translate(596.75 333.69) scale(.1 -.1)">
<use xlink:href="#c"/>
<use x="63.623047" xlink:href="#d"/>
<use x="95.410156" xlink:href="#c"/>
<use x="159.033203" xlink:href="#m"/>
</g>
</g>
<g clip-path="url(#a)">
<g transform="translate(674.83 333.69) scale(.1 -.1)">
<use xlink:href="#c"/>
<use x="63.623047" xlink:href="#d"/>
<use x="95.410156" xlink:href="#c"/>
<use x="159.033203" xlink:href="#z"/>
</g>
</g>
<g clip-path="url(#a)">
<g transform="translate(147.73 333.69) scale(.1 -.1)">
<use xlink:href="#c"/>
<use x="63.623047" xlink:href="#d"/>
<use x="95.410156" xlink:href="#c"/>
<use x="159.033203" xlink:href="#y"/>
</g>
</g>
<g clip-path="url(#a)">
<g transform="translate(186.78 333.69) scale(.1 -.1)">
<use xlink:href="#c"/>
<use x="63.623047" xlink:href="#d"/>
<use x="95.410156" xlink:href="#c"/>
<use x="159.033203" xlink:href="#x"/>
</g>
</g>
<g clip-path="url(#a)">
<defs>
<path id="ae" d="m33.016 40.375q-6.6406 0-10.531-4.5469-3.875-4.5312-3.875-12.438 0-7.8594 3.875-12.438 3.8906-4.5625 10.531-4.5625t10.516 4.5625q3.875 4.5781 3.875 12.438 0 7.9062-3.875 12.438-3.875 4.5469-10.516 4.5469zm19.578 30.922v-8.9844q-3.7188 1.75-7.5 2.6719-3.7812 0.9375-7.5 0.9375-9.7656 0-14.922-6.5938-5.1406-6.5938-5.875-19.922 2.875 4.25 7.2188 6.5156 4.3594 2.2656 9.5781 2.2656 10.984 0 17.359-6.6719 6.375-6.6562 6.375-18.125 0-11.234-6.6406-18.031-6.6406-6.7812-17.672-6.7812-12.656 0-19.344 9.6875-6.6875 9.7031-6.6875 28.109 0 17.281 8.2031 27.562t22.016 10.281q3.7188 0 7.5-0.73438t7.8906-2.1875z"/>
</defs>
<g transform="translate(230.7 333.69) scale(.1 -.1)">
<use xlink:href="#c"/>
<use x="63.623047" xlink:href="#d"/>
<use x="95.410156" xlink:href="#c"/>
<use x="159.033203" xlink:href="#ae"/>
</g>
</g>
<g clip-path="url(#a)">
<defs>
<path id="al" d="m8.2031 72.906h46.875v-4.2031l-26.469-68.703h-10.297l24.906 64.594h-35.016z"/>
</defs>
<g transform="translate(279.51 333.69) scale(.1 -.1)">
<use xlink:href="#c"/>
<use x="63.623047" xlink:href="#d"/>
<use x="95.410156" xlink:href="#c"/>
<use x="159.033203" xlink:href="#al"/>
</g>
</g>
<g clip-path="url(#a)">
<defs>
<path id="ak" d="m31.781 34.625q-7.0312 0-11.062-3.7656-4.0156-3.7656-4.0156-10.344 0-6.5938 4.0156-10.359 4.0312-3.7656 11.062-3.7656t11.078 3.7812q4.0625 3.7969 4.0625 10.344 0 6.5781-4.0312 10.344-4.0156 3.7656-11.109 3.7656zm-9.8594 4.1875q-6.3438 1.5625-9.8906 5.9062-3.5312 4.3594-3.5312 10.609 0 8.7344 6.2188 13.812 6.2344 5.0781 17.062 5.0781 10.891 0 17.094-5.0781t6.2031-13.812q0-6.25-3.5469-10.609-3.5312-4.3438-9.8281-5.9062 7.125-1.6562 11.094-6.5 3.9844-4.8281 3.9844-11.797 0-10.609-6.4688-16.281-6.4688-5.6562-18.531-5.6562-12.047 0-18.531 5.6562-6.4688 5.6719-6.4688 16.281 0 6.9688 4 11.797 4.0156 4.8438 11.141 6.5zm-3.6094 15.578q0-5.6562 3.5312-8.8281 3.5469-3.1719 9.9375-3.1719 6.3594 0 9.9375 3.1719 3.5938 3.1719 3.5938 8.8281 0 5.6719-3.5938 8.8438-3.5781 3.1719-9.9375 3.1719-6.3906 0-9.9375-3.1719-3.5312-3.1719-3.5312-8.8438z"/>
</defs>
<g transform="translate(33.037 178.49) scale(.1 -.1)">
<use xlink:href="#c"/>
<use x="63.623047" xlink:href="#d"/>
<use x="95.410156" xlink:href="#c"/>
<use x="159.033203" xlink:href="#ak"/>
</g>
</g>
<g clip-path="url(#a)">
<defs>
<path id="aj" d="m10.984 1.5156v8.9844q3.7188-1.7656 7.5156-2.6875 3.8125-0.92188 7.4844-0.92188 9.7656 0 14.906 6.5625 5.1562 6.5625 5.8906 19.953-2.8281-4.2031-7.1875-6.4531-4.3438-2.25-9.6094-2.25-10.938 0-17.312 6.6094-6.375 6.625-6.375 18.109 0 11.219 6.6406 18 6.6406 6.7969 17.672 6.7969 12.656 0 19.312-9.7031 6.6719-9.6875 6.6719-28.141 0-17.234-8.1875-27.516-8.1719-10.281-21.984-10.281-3.7188 0-7.5312 0.73438-3.7969 0.73438-7.9062 2.2031zm19.625 30.906q6.6406 0 10.516 4.5312 3.8906 4.5469 3.8906 12.469 0 7.8594-3.8906 12.422-3.875 4.5625-10.516 4.5625t-10.516-4.5625-3.875-12.422q0-7.9219 3.875-12.469 3.875-4.5312 10.516-4.5312z"/>
</defs>
<g transform="translate(59.88 333.69) scale(.1 -.1)">
<use xlink:href="#c"/>
<use x="63.623047" xlink:href="#d"/>
<use x="95.410156" xlink:href="#c"/>
<use x="159.033203" xlink:href="#aj"/>
</g>
</g>
<g clip-path="url(#a)">
<g transform="translate(84.283 333.69) scale(.1 -.1)">
<use xlink:href="#c"/>
<use x="63.623047" xlink:href="#d"/>
<use x="95.410156" xlink:href="#m"/>
<use x="159.033203" xlink:href="#af"/>
</g>
</g>
<g clip-path="url(#a)">
<g transform="translate(33.037 256.3) scale(.1 -.1)">
<use xlink:href="#c"/>
<use x="63.623047" xlink:href="#d"/>
<use x="95.410156" xlink:href="#m"/>
<use x="159.033203" xlink:href="#c"/>
</g>
</g>
<g clip-path="url(#a)">
<g transform="translate(25.716 333.69) scale(.1 -.1)">
<use xlink:href="#c"/>
<use x="63.623047" xlink:href="#d"/>
<use x="95.410156" xlink:href="#m"/>
<use x="159.033203" xlink:href="#m"/>
</g>
</g>
<g clip-path="url(#a)">
<g transform="translate(40.357 333.69) scale(.1 -.1)">
<use xlink:href="#c"/>
<use x="63.623047" xlink:href="#d"/>
<use x="95.410156" xlink:href="#m"/>
<use x="159.033203" xlink:href="#z"/>
</g>
</g>
<g clip-path="url(#a)">
<g transform="translate(113.57 333.69) scale(.1 -.1)">
<use xlink:href="#c"/>
<use x="63.623047" xlink:href="#d"/>
<use x="95.410156" xlink:href="#m"/>
<use x="159.033203" xlink:href="#y"/>
</g>
</g>
<g clip-path="url(#a)">
<g transform="translate(333.19 333.69) scale(.1 -.1)">
<use xlink:href="#c"/>
<use x="63.623047" xlink:href="#d"/>
<use x="95.410156" xlink:href="#m"/>
<use x="159.033203" xlink:href="#x"/>
</g>
</g>
<g clip-path="url(#a)">
<g transform="translate(757.8 333.69) scale(.1 -.1)">
<use xlink:href="#c"/>
<use x="63.623047" xlink:href="#d"/>
<use x="95.410156" xlink:href="#m"/>
<use x="159.033203" xlink:href="#ae"/>
</g>
</g>
<defs>
<clipPath id="a">
<rect width="810.67" height="426.67"/>
</clipPath>
</defs>
</svg>
