<?xml version="1.0" encoding="UTF-8"?>
<!DOCTYPE svg  PUBLIC '-//W3C//DTD SVG 1.1//EN'  'http://www.w3.org/Graphics/SVG/1.1/DTD/svg11.dtd'>
<svg width="1925.3pt" height="1013.3pt" version="1.1" viewBox="0 0 1925.3 1013.3" xmlns="http://www.w3.org/2000/svg" xmlns:xlink="http://www.w3.org/1999/xlink">
<defs>
<style type="text/css">*{stroke-linecap:butt;stroke-linejoin:round;}</style>
</defs>
<path d="m0 1013.3h1925.3v-1013.3h-1925.3z" fill="#fff"/>
<g fill="none" stroke="#000">
<path d="m392.92 46.975-305.25 770.81" clip-path="url(#a)"/>
<path d="m392.92 46.975-198.83 318.07" clip-path="url(#a)"/>
<path d="m392.92 46.975 25.829 770.81" clip-path="url(#a)"/>
<path d="m392.92 46.975 499.72 161.03" clip-path="url(#a)"/>
<path d="m392.92 46.975-21.468 770.81" clip-path="url(#a)"/>
<path d="m87.668 817.79v148.57" clip-path="url(#a)"/>
<path d="m194.09 365.04-59.122 452.74" clip-path="url(#a)"/>
<path d="m194.09 365.04-11.824 452.74" clip-path="url(#a)"/>
<path d="m194.09 365.04 70.946 153.54" clip-path="url(#a)"/>
<path d="m418.75 817.79v148.57" clip-path="url(#a)"/>
<path d="m892.64 208.01-426.6 609.78" clip-path="url(#a)"/>
<path d="m892.64 208.01-379.3 609.78" clip-path="url(#a)"/>
<path d="m892.64 208.01-332 609.78" clip-path="url(#a)"/>
<path d="m892.64 208.01-194.55 157.04" clip-path="url(#a)"/>
<path d="m892.64 208.01 767.66 157.04" clip-path="url(#a)"/>
<path d="m892.64 208.01 140.97 609.78" clip-path="url(#a)"/>
<path d="m892.64 208.01 188.27 609.78" clip-path="url(#a)"/>
<path d="m892.64 208.01 235.56 609.78" clip-path="url(#a)"/>
<path d="m466.05 817.79v148.57" clip-path="url(#a)"/>
<path d="m513.34 817.79v148.57" clip-path="url(#a)"/>
<path d="m560.64 817.79v148.57" clip-path="url(#a)"/>
<path d="m698.1 365.04-90.16 452.74" clip-path="url(#a)"/>
<path d="m698.1 365.04-42.863 452.74" clip-path="url(#a)"/>
<path d="m698.1 365.04 4.4341 452.74" clip-path="url(#a)"/>
<path d="m698.1 365.04 128.59 153.54" clip-path="url(#a)"/>
<path d="m1660.3 365.04-354.73 153.54" clip-path="url(#a)"/>
<path d="m1660.3 365.04-11.824 452.74" clip-path="url(#a)"/>
<path d="m1660.3 365.04-59.122 452.74" clip-path="url(#a)"/>
<path d="m1660.3 365.04 35.473 452.74" clip-path="url(#a)"/>
<path d="m1660.3 365.04 82.77 452.74" clip-path="url(#a)"/>
<path d="m1660.3 365.04 130.07 452.74" clip-path="url(#a)"/>
<path d="m1660.3 365.04 177.36 452.74" clip-path="url(#a)"/>
<path d="m1305.6 518.58-130.07 299.21" clip-path="url(#a)"/>
<path d="m1305.6 518.58-82.77 299.21" clip-path="url(#a)"/>
<path d="m1305.6 518.58-35.473 299.21" clip-path="url(#a)"/>
<path d="m1305.6 518.58 11.824 299.21" clip-path="url(#a)"/>
<path d="m1305.6 518.58 177.36 150.64" clip-path="url(#a)"/>
<path d="m1305.6 518.58 59.122 299.21" clip-path="url(#a)"/>
<path d="m1648.5 817.79v148.57" clip-path="url(#a)"/>
<path d="m1175.5 817.79v148.57" clip-path="url(#a)"/>
<path d="m1222.8 817.79v148.57" clip-path="url(#a)"/>
<path d="m1270.1 817.79v148.57" clip-path="url(#a)"/>
<path d="m1317.4 817.79v148.57" clip-path="url(#a)"/>
<path d="m1482.9 669.22-70.946 148.57" clip-path="url(#a)"/>
<path d="m1482.9 669.22-23.649 148.57" clip-path="url(#a)"/>
<path d="m1482.9 669.22 23.649 148.57" clip-path="url(#a)"/>
<path d="m1482.9 669.22 70.946 148.57" clip-path="url(#a)"/>
<path d="m1412 817.79v148.57" clip-path="url(#a)"/>
<path d="m1459.3 817.79v148.57" clip-path="url(#a)"/>
<path d="m1506.6 817.79v148.57" clip-path="url(#a)"/>
<path d="m1553.9 817.79v148.57" clip-path="url(#a)"/>
<path d="m607.94 817.79v148.57" clip-path="url(#a)"/>
<path d="m655.23 817.79v148.57" clip-path="url(#a)"/>
<path d="m702.53 817.79v148.57" clip-path="url(#a)"/>
<path d="m826.69 518.58-124.16 299.21" clip-path="url(#a)" stroke-dasharray="3.7,1.6"/>
<path d="m826.69 518.58-76.858 299.21" clip-path="url(#a)"/>
<path d="m826.69 518.58 41.385 150.64" clip-path="url(#a)"/>
<path d="m826.69 518.58 159.63 299.21" clip-path="url(#a)"/>
<path d="m749.83 817.79v148.57" clip-path="url(#a)"/>
<path d="m868.07 669.22-70.946 148.57" clip-path="url(#a)"/>
<path d="m868.07 669.22-23.649 148.57" clip-path="url(#a)"/>
<path d="m868.07 669.22 23.649 148.57" clip-path="url(#a)"/>
<path d="m868.07 669.22 70.946 148.57" clip-path="url(#a)"/>
<path d="m986.32 817.79v148.57" clip-path="url(#a)"/>
<path d="m797.13 817.79v148.57" clip-path="url(#a)"/>
<path d="m844.42 817.79v148.57" clip-path="url(#a)"/>
<path d="m891.72 817.79v148.57" clip-path="url(#a)"/>
<path d="m939.02 817.79v148.57" clip-path="url(#a)"/>
<path d="m134.97 817.79v148.57" clip-path="url(#a)"/>
<path d="m182.26 817.79v148.57" clip-path="url(#a)"/>
<path d="m265.03 518.58-35.473 299.21" clip-path="url(#a)"/>
<path d="m265.03 518.58 35.473 150.64" clip-path="url(#a)"/>
<path d="m229.56 817.79v148.57" clip-path="url(#a)"/>
<path d="m300.51 669.22-23.649 148.57" clip-path="url(#a)"/>
<path d="m300.51 669.22 23.649 148.57" clip-path="url(#a)"/>
<path d="m276.86 817.79v148.57" clip-path="url(#a)"/>
<path d="m324.15 817.79v148.57" clip-path="url(#a)"/>
<path d="m371.45 817.79v148.57" clip-path="url(#a)"/>
<path d="m1033.6 817.79v148.57" clip-path="url(#a)"/>
<path d="m1080.9 817.79v148.57" clip-path="url(#a)"/>
<path d="m1128.2 817.79v148.57" clip-path="url(#a)"/>
<path d="m1364.7 817.79v148.57" clip-path="url(#a)"/>
<path d="m1601.2 817.79v148.57" clip-path="url(#a)"/>
<path d="m1695.8 817.79v148.57" clip-path="url(#a)"/>
<path d="m1743.1 817.79v148.57" clip-path="url(#a)"/>
<path d="m1790.4 817.79v148.57" clip-path="url(#a)"/>
<path d="m1837.7 817.79v148.57" clip-path="url(#a)"/>
</g>
<path d="m245.3 436.76 1.6412-4.1444q0.88366-2.2314-1.3477-3.1151l-7.1986-2.8507q-2.2314-0.88366-3.1151 1.3477l-1.6412 4.1444q-0.88366 2.2314 1.3477 3.1151l7.1986 2.8507q2.2314 0.88366 3.1151-1.3477z" clip-path="url(#a)" fill="#fff" stroke="#fff"/>
<g clip-path="url(#a)">
<defs>
<path id="ap" d="m9.8125 72.906h9.8594v-64.609h35.5v-8.2969h-45.359z"/>
</defs>
<g transform="translate(241.53 435.27) rotate(-68.396) scale(.08 -.08)">
<use xlink:href="#ap"/>
</g>
</g>
<path d="m297.23 211.88 3.1891-5.1015q1.2722-2.0351-0.7629-3.3073l-6.5653-4.1041q-2.0351-1.2722-3.3073 0.7629l-3.1891 5.1015q-1.2722 2.0351 0.7629 3.3073l6.5653 4.1041q2.0351 1.2722 3.3073-0.7629z" clip-path="url(#a)" fill="#fff" stroke="#fff"/>
<g clip-path="url(#a)">
<defs>
<path id="ab" d="m9.8125 72.906h9.8594v-29.891h35.844v29.891h9.8594v-72.906h-9.8594v34.719h-35.844v-34.719h-9.8594z"/>
</defs>
<g transform="translate(293.78 209.73) rotate(-57.989) scale(.08 -.08)">
<use xlink:href="#ab"/>
</g>
</g>
<path d="m399.49 430.36 0.14928 4.455q0.080375 2.3987 2.479 2.3183l7.7382-0.25929q2.3987-0.080375 2.3183-2.479l-0.14928-4.455q-0.080375-2.3987-2.479-2.3183l-7.7382 0.25929q-2.3987 0.080375-2.3183 2.479z" clip-path="url(#a)" fill="#fff" stroke="#fff"/>
<g clip-path="url(#a)">
<g transform="translate(403.55 430.23) rotate(88.081) scale(.08 -.08)">
<use xlink:href="#ap"/>
</g>
</g>
<path d="m638 132.54 5.7263 1.8453q2.2843 0.73611 3.0204-1.5482l2.3747-7.3693q0.73611-2.2843-1.5482-3.0204l-5.7263-1.8453q-2.2843-0.73611-3.0204 1.5482l-2.3747 7.3693q-0.73611 2.2843 1.5482 3.0204z" clip-path="url(#a)" fill="#fff" stroke="#fff"/>
<g clip-path="url(#a)">
<g transform="translate(639.24 128.67) rotate(17.861) scale(.08 -.08)">
<use xlink:href="#ab"/>
</g>
</g>
<path d="m388.37 435.48 0.16301-5.8527q0.066818-2.3991-2.3323-2.4659l-7.7395-0.21556q-2.3991-0.066818-2.4659 2.3323l-0.16301 5.8527q-0.066819 2.3991 2.3323 2.4659l7.7395 0.21556q2.3991 0.066819 2.4659-2.3323z" clip-path="url(#a)" fill="#fff" stroke="#fff"/>
<g clip-path="url(#a)">
<defs>
<path id="t" d="m8.6875 72.906h9.9219v-44.297q0-11.719 4.2344-16.875 4.25-5.1406 13.781-5.1406 9.4688 0 13.719 5.1406 4.25 5.1562 4.25 16.875v44.297h9.9062v-45.516q0-14.25-7.0625-21.531-7.0469-7.2812-20.812-7.2812-13.828 0-20.891 7.2812-7.0469 7.2812-7.0469 21.531z"/>
</defs>
<g transform="translate(384.31 435.37) rotate(-88.405) scale(.08 -.08)">
<use xlink:href="#t"/>
</g>
</g>
<path d="m81.397 874.43v35.285q0 2.4 2.4 2.4h7.7425q2.4 0 2.4-2.4v-35.285q0-2.4-2.4-2.4h-7.7425q-2.4 0-2.4 2.4z" clip-path="url(#a)" fill="#fff" stroke="#fff"/>
<g clip-path="url(#a)">
<defs>
<path id="l" d="m-0.29688 72.906h61.672v-8.3125h-25.875v-64.594h-9.9062v64.594h-25.891z"/>
<path id="d" d="m56.203 29.594v-4.3906h-41.312q0.59375-9.2812 5.5938-14.141t13.938-4.8594q5.1719 0 10.031 1.2656t9.6562 3.8125v-8.5q-4.8438-2.0469-9.9219-3.125t-10.297-1.0781q-13.094 0-20.734 7.6094-7.6406 7.625-7.6406 20.625 0 13.422 7.25 21.297 7.25 7.8906 19.562 7.8906 11.031 0 17.453-7.1094 6.4219-7.0938 6.4219-19.297zm-8.9844 2.6406q-0.09375 7.3594-4.125 11.75-4.0312 4.4062-10.672 4.4062-7.5156 0-12.031-4.25t-5.2031-11.969z"/>
<path id="h" d="m41.109 46.297q-1.5156 0.875-3.2969 1.2812-1.7812 0.42188-3.9219 0.42188-7.625 0-11.703-4.9531t-4.0781-14.234v-28.812h-9.0312v54.688h9.0312v-8.5q2.8438 4.9844 7.375 7.3906 4.5469 2.4219 11.047 2.4219 0.92188 0 2.0469-0.125 1.125-0.10938 2.4844-0.35938z"/>
<path id="j" d="m52 44.188q3.375 6.0625 8.0625 8.9375t11.031 2.875q8.5469 0 13.188-5.9844 4.6406-5.9688 4.6406-17v-33.016h-9.0312v32.719q0 7.8594-2.7969 11.656-2.7812 3.8125-8.4844 3.8125-6.9844 0-11.047-4.6406-4.0469-4.625-4.0469-12.641v-30.906h-9.0312v32.719q0 7.9062-2.7812 11.688t-8.5938 3.7812q-6.8906 0-10.953-4.6562-4.0469-4.6562-4.0469-12.625v-30.906h-9.0312v54.688h9.0312v-8.5q3.0781 5.0312 7.375 7.4219t10.203 2.3906q5.9688 0 10.141-3.0312 4.1719-3.0156 6.1719-8.7812z"/>
<path id="g" d="m9.4219 54.688h8.9844v-54.688h-8.9844zm0 21.297h8.9844v-11.391h-8.9844z"/>
<path id="f" d="m54.891 33.016v-33.016h-8.9844v32.719q0 7.7656-3.0312 11.609-3.0312 3.8594-9.0781 3.8594-7.2812 0-11.484-4.6406-4.2031-4.625-4.2031-12.641v-30.906h-9.0312v54.688h9.0312v-8.5q3.2344 4.9375 7.5938 7.375 4.375 2.4375 10.094 2.4375 9.4219 0 14.25-5.8281 4.8438-5.8281 4.8438-17.156z"/>
<path id="i" d="m34.281 27.484q-10.891 0-15.094-2.4844t-4.2031-8.5q0-4.7812 3.1562-7.5938 3.1562-2.7969 8.5625-2.7969 7.4844 0 12 5.2969t4.5156 14.078v2zm17.922 3.7188v-31.203h-8.9844v8.2969q-3.0781-4.9688-7.6719-7.3438t-11.234-2.375q-8.3906 0-13.359 4.7188-4.9531 4.7188-4.9531 12.625 0 9.2188 6.1719 13.906 6.1875 4.6875 18.438 4.6875h12.609v0.89062q0 6.2031-4.0781 9.5938t-11.453 3.3906q-4.6875 0-9.1406-1.125-4.4375-1.125-8.5312-3.375v8.3125q4.9219 1.9062 9.5625 2.8438 4.6406 0.95312 9.0312 0.95312 11.875 0 17.734-6.1562 5.8594-6.1406 5.8594-18.641z"/>
<path id="k" d="m9.4219 75.984h8.9844v-75.984h-8.9844z"/>
</defs>
<g transform="translate(85.461 874.43) rotate(90) scale(.08 -.08)">
<use xlink:href="#l"/>
<use x="60.818359" xlink:href="#d"/>
<use x="122.341797" xlink:href="#h"/>
<use x="163.439453" xlink:href="#j"/>
<use x="260.851562" xlink:href="#g"/>
<use x="288.634766" xlink:href="#f"/>
<use x="352.013672" xlink:href="#i"/>
<use x="413.292969" xlink:href="#k"/>
</g>
</g>
<path d="m170.39 594.94 0.70861-5.4264q0.31076-2.3798-2.069-2.6906l-7.6773-1.0025q-2.3798-0.31076-2.6906 2.069l-0.70861 5.4264q-0.31076 2.3798 2.069 2.6906l7.6773 1.0025q2.3798 0.31076 2.6906-2.069z" clip-path="url(#a)" fill="#fff" stroke="#fff"/>
<g clip-path="url(#a)">
<defs>
<path id="q" d="m34.188 63.188-13.391-36.281h26.812zm-5.5781 9.7188h11.188l27.781-72.906h-10.25l-6.6406 18.703h-32.859l-6.6406-18.703h-10.406z"/>
</defs>
<g transform="translate(166.36 594.42) rotate(-82.56) scale(.08 -.08)">
<use xlink:href="#q"/>
</g>
</g>
<path d="m194.38 593.99 0.12594-4.8221q0.062659-2.3992-2.3365-2.4618l-7.7399-0.20214q-2.3992-0.062659-2.4618 2.3365l-0.12594 4.8221q-0.062659 2.3992 2.3365 2.4618l7.7399 0.20214q2.3992 0.06266 2.4618-2.3365z" clip-path="url(#a)" fill="#fff" stroke="#fff"/>
<g clip-path="url(#a)">
<defs>
<path id="x" d="m19.672 64.797v-27.391h12.406q6.8906 0 10.641 3.5625 3.7656 3.5625 3.7656 10.156 0 6.5469-3.7656 10.109-3.75 3.5625-10.641 3.5625zm-9.8594 8.1094h22.266q12.266 0 18.531-5.5469 6.2812-5.5469 6.2812-16.234 0-10.797-6.2812-16.312-6.2656-5.5156-18.531-5.5156h-12.406v-29.297h-9.8594z"/>
</defs>
<g transform="translate(190.32 593.88) rotate(-88.504) scale(.08 -.08)">
<use xlink:href="#x"/>
</g>
</g>
<path d="m222.72 441.96 2.2955 4.9678q1.0067 2.1787 3.1854 1.172l7.0284-3.2477q2.1787-1.0067 1.172-3.1854l-2.2955-4.9678q-1.0067-2.1787-3.1854-1.172l-7.0284 3.2477q-2.1787 1.0067-1.172 3.1854z" clip-path="url(#a)" fill="#fff" stroke="#fff"/>
<g clip-path="url(#a)">
<g transform="translate(226.41 440.25) rotate(65.2) scale(.08 -.08)">
<use xlink:href="#q"/>
</g>
</g>
<path d="m412.48 874.43v35.285q0 2.4 2.4 2.4h7.7425q2.4 0 2.4-2.4v-35.285q0-2.4-2.4-2.4h-7.7425q-2.4 0-2.4 2.4z" clip-path="url(#a)" fill="#fff" stroke="#fff"/>
<g clip-path="url(#a)">
<g transform="translate(416.54 874.43) rotate(90) scale(.08 -.08)">
<use xlink:href="#l"/>
<use x="60.818359" xlink:href="#d"/>
<use x="122.341797" xlink:href="#h"/>
<use x="163.439453" xlink:href="#j"/>
<use x="260.851562" xlink:href="#g"/>
<use x="288.634766" xlink:href="#f"/>
<use x="352.013672" xlink:href="#i"/>
<use x="413.292969" xlink:href="#k"/>
</g>
</g>
<path d="m683.08 518.5 2.801-4.0037q1.3758-1.9665-0.59076-3.3423l-6.3441-4.4383q-1.9665-1.3758-3.3423 0.59076l-2.801 4.0037q-1.3758 1.9665 0.59076 3.3423l6.3441 4.4383q1.9665 1.3758 3.3423-0.59076z" clip-path="url(#a)" fill="#fff" stroke="#fff"/>
<g clip-path="url(#a)">
<g transform="translate(679.75 516.17) rotate(-55.024) scale(.08 -.08)">
<use xlink:href="#l"/>
</g>
</g>
<path d="m707.05 518.26 2.5478-4.096q1.2676-2.0379-0.77027-3.3056l-6.5744-4.0895q-2.0379-1.2676-3.3056 0.77027l-2.5478 4.096q-1.2676 2.0379 0.77027 3.3056l6.5744 4.0895q2.0379 1.2676 3.3056-0.77027z" clip-path="url(#a)" fill="#fff" stroke="#fff"/>
<g clip-path="url(#a)">
<g transform="translate(703.59 516.11) rotate(-58.117) scale(.08 -.08)">
<use xlink:href="#x"/>
</g>
</g>
<path d="m730.84 518.3 2.6169-4.8063q1.1476-2.1078-0.96019-3.2555l-6.7999-3.7023q-2.1078-1.1476-3.2555 0.96019l-2.6169 4.8063q-1.1476 2.1078 0.96019 3.2555l6.7999 3.7023q2.1078 1.1476 3.2555-0.96019z" clip-path="url(#a)" fill="#fff" stroke="#fff"/>
<g clip-path="url(#a)">
<g transform="translate(727.27 516.36) rotate(-61.433) scale(.08 -.08)">
<use xlink:href="#q"/>
</g>
</g>
<path d="m797.18 293.12 4.2583-3.4373q1.8675-1.5074 0.36008-3.375l-4.8631-6.0247q-1.5074-1.8675-3.375-0.36008l-4.2583 3.4373q-1.8675 1.5074-0.36008 3.375l4.8631 6.0247q1.5074 1.8675 3.375 0.36008z" clip-path="url(#a)" fill="#fff" stroke="#fff"/>
<g clip-path="url(#a)">
<g transform="translate(794.63 289.96) rotate(-38.91) scale(.08 -.08)">
<use xlink:href="#q"/>
</g>
</g>
<path d="m1272.5 292.12 5.3615 1.0968q2.3513 0.481 2.8323-1.8703l1.5517-7.5854q0.481-2.3513-1.8703-2.8323l-5.3615-1.0968q-2.3513-0.481-2.8323 1.8703l-1.5517 7.5854q-0.481 2.3513 1.8703 2.8323z" clip-path="url(#a)" fill="#fff" stroke="#fff"/>
<g clip-path="url(#a)">
<g transform="translate(1273.3 288.14) rotate(11.561) scale(.08 -.08)">
<use xlink:href="#q"/>
</g>
</g>
<path d="m956.36 511.46 1.3188 5.7045q0.54057 2.3383 2.8789 1.7978l7.5435-1.7439q2.3383-0.54057 1.7978-2.8789l-1.3188-5.7045q-0.54057-2.3383-2.8789-1.7978l-7.5435 1.7439q-2.3383 0.54057-1.7978 2.8789z" clip-path="url(#a)" fill="#fff" stroke="#fff"/>
<g clip-path="url(#a)">
<g transform="translate(960.32 510.54) rotate(76.983) scale(.08 -.08)">
<use xlink:href="#t"/>
</g>
</g>
<path d="m979.92 511.95 1.7272 5.5944q0.708 2.2932 3.0012 1.5852l7.3979-2.2841q2.2932-0.70801 1.5852-3.0012l-1.7272-5.5944q-0.70801-2.2932-3.0012-1.5852l-7.3979 2.2841q-2.2932 0.70801-1.5852 3.0012z" clip-path="url(#a)" fill="#fff" stroke="#fff"/>
<g clip-path="url(#a)">
<g transform="translate(983.8 510.75) rotate(72.842) scale(.08 -.08)">
<use xlink:href="#t"/>
</g>
</g>
<path d="m1003.5 512.43 2.1099 5.4616q0.86485 2.2388 3.1036 1.3739l7.2223-2.79q2.2388-0.86485 1.3739-3.1036l-2.1099-5.4616q-0.86485-2.2388-3.1036-1.3739l-7.2223 2.79q-2.2388 0.86485-1.3739 3.1036z" clip-path="url(#a)" fill="#fff" stroke="#fff"/>
<g clip-path="url(#a)">
<g transform="translate(1007.3 510.96) rotate(68.878) scale(.08 -.08)">
<use xlink:href="#t"/>
</g>
</g>
<path d="m459.77 874.43v35.285q0 2.4 2.4 2.4h7.7425q2.4 0 2.4-2.4v-35.285q0-2.4-2.4-2.4h-7.7425q-2.4 0-2.4 2.4z" clip-path="url(#a)" fill="#fff" stroke="#fff"/>
<g clip-path="url(#a)">
<g transform="translate(463.84 874.43) rotate(90) scale(.08 -.08)">
<use xlink:href="#l"/>
<use x="60.818359" xlink:href="#d"/>
<use x="122.341797" xlink:href="#h"/>
<use x="163.439453" xlink:href="#j"/>
<use x="260.851562" xlink:href="#g"/>
<use x="288.634766" xlink:href="#f"/>
<use x="352.013672" xlink:href="#i"/>
<use x="413.292969" xlink:href="#k"/>
</g>
</g>
<path d="m507.07 874.43v35.285q0 2.4 2.4 2.4h7.7425q2.4 0 2.4-2.4v-35.285q0-2.4-2.4-2.4h-7.7425q-2.4 0-2.4 2.4z" clip-path="url(#a)" fill="#fff" stroke="#fff"/>
<g clip-path="url(#a)">
<g transform="translate(511.14 874.43) rotate(90) scale(.08 -.08)">
<use xlink:href="#l"/>
<use x="60.818359" xlink:href="#d"/>
<use x="122.341797" xlink:href="#h"/>
<use x="163.439453" xlink:href="#j"/>
<use x="260.851562" xlink:href="#g"/>
<use x="288.634766" xlink:href="#f"/>
<use x="352.013672" xlink:href="#i"/>
<use x="413.292969" xlink:href="#k"/>
</g>
</g>
<path d="m554.37 874.43v35.285q0 2.4 2.4 2.4h7.7425q2.4 0 2.4-2.4v-35.285q0-2.4-2.4-2.4h-7.7425q-2.4 0-2.4 2.4z" clip-path="url(#a)" fill="#fff" stroke="#fff"/>
<g clip-path="url(#a)">
<g transform="translate(558.43 874.43) rotate(90) scale(.08 -.08)">
<use xlink:href="#l"/>
<use x="60.818359" xlink:href="#d"/>
<use x="122.341797" xlink:href="#h"/>
<use x="163.439453" xlink:href="#j"/>
<use x="260.851562" xlink:href="#g"/>
<use x="288.634766" xlink:href="#f"/>
<use x="352.013672" xlink:href="#i"/>
<use x="413.292969" xlink:href="#k"/>
</g>
</g>
<path d="m658.72 594.9 0.89865-4.5126q0.46874-2.3538-1.885-2.8225l-7.5934-1.5122q-2.3538-0.46874-2.8225 1.885l-0.89866 4.5126q-0.46874 2.3538 1.885 2.8225l7.5934 1.5122q2.3538 0.46874 2.8225-1.885z" clip-path="url(#a)" fill="#fff" stroke="#fff"/>
<g clip-path="url(#a)">
<defs>
<path id="ac" d="m9.8125 72.906h41.891v-8.3125h-32.031v-21.484h28.906v-8.2969h-28.906v-34.812h-9.8594z"/>
</defs>
<g transform="translate(654.73 594.1) rotate(-78.737) scale(.08 -.08)">
<use xlink:href="#ac"/>
</g>
</g>
<path d="m682.67 594.52 0.47645-5.0325q0.22621-2.3893-2.1631-2.6155l-7.708-0.72975q-2.3893-0.22621-2.6155 2.1631l-0.47645 5.0325q-0.22621 2.3893 2.1631 2.6155l7.708 0.72975q2.3893 0.22621 2.6155-2.1631z" clip-path="url(#a)" fill="#fff" stroke="#fff"/>
<g clip-path="url(#a)">
<defs>
<path id="ad" d="m9.8125 72.906h46.094v-8.3125h-36.234v-21.578h34.719v-8.2969h-34.719v-26.422h37.109v-8.2969h-46.969z"/>
</defs>
<g transform="translate(678.63 594.14) rotate(-84.592) scale(.08 -.08)">
<use xlink:href="#ad"/>
</g>
</g>
<path d="m694.02 588.68 0.054708 5.586q0.023504 2.3999 2.4234 2.3764l7.7421-0.075825q2.3999-0.023504 2.3764-2.4234l-0.054708-5.586q-0.023504-2.3999-2.4234-2.3764l-7.7421 0.075826q-2.3999 0.023504-2.3764 2.4234z" clip-path="url(#a)" fill="#fff" stroke="#fff"/>
<g clip-path="url(#a)">
<defs>
<path id="aj" d="m64.406 67.281v-10.391q-4.9844 4.6406-10.625 6.9219-5.6406 2.2969-11.984 2.2969-12.5 0-19.141-7.6406t-6.6406-22.094q0-14.406 6.6406-22.047t19.141-7.6406q6.3438 0 11.984 2.2969t10.625 6.9375v-10.312q-5.1719-3.5156-10.969-5.2812-5.7812-1.75-12.219-1.75-16.562 0-26.094 10.125-9.5156 10.141-9.5156 27.672 0 17.578 9.5156 27.703 9.5312 10.141 26.094 10.141 6.5312 0 12.312-1.7344 5.7969-1.7344 10.875-5.2031z"/>
</defs>
<g transform="translate(698.08 588.64) rotate(89.439) scale(.08 -.08)">
<use xlink:href="#aj"/>
</g>
</g>
<path d="m755.96 443.9 3.2457 3.8754q1.541 1.8399 3.3809 0.29897l5.9357-4.9712q1.8399-1.541 0.29897-3.3809l-3.2457-3.8754q-1.541-1.8399-3.3809-0.29897l-5.9357 4.9712q-1.8399 1.541-0.29897 3.3809z" clip-path="url(#a)" fill="#fff" stroke="#fff"/>
<g clip-path="url(#a)">
<g transform="translate(759.08 441.29) rotate(50.053) scale(.08 -.08)">
<use xlink:href="#ad"/>
</g>
</g>
<path d="m1482.7 448.76 5.5213-2.3898q2.2025-0.95332 1.2492-3.1559l-3.0755-7.1055q-0.95332-2.2025-3.1559-1.2492l-5.5213 2.3898q-2.2025 0.95332-1.2492 3.1559l3.0755 7.1055q0.95333 2.2025 3.1559 1.2492z" clip-path="url(#a)" fill="#fff" stroke="#fff"/>
<g clip-path="url(#a)">
<g transform="translate(1481.1 445.03) rotate(-23.404) scale(.08 -.08)">
<use xlink:href="#ab"/>
</g>
</g>
<path d="m1660.6 594.59 0.15707-6.0142q0.062659-2.3992-2.3365-2.4618l-7.7399-0.20214q-2.3992-0.06266-2.4618 2.3365l-0.15707 6.0142q-0.06266 2.3992 2.3365 2.4618l7.7399 0.20214q2.3992 0.062659 2.4618-2.3365z" clip-path="url(#a)" fill="#fff" stroke="#fff"/>
<g clip-path="url(#a)">
<g transform="translate(1656.5 594.48) rotate(-88.504) scale(.08 -.08)">
<use xlink:href="#ab"/>
</g>
</g>
<path d="m1636.6 595.13 0.75814-5.8057q0.31076-2.3798-2.069-2.6906l-7.6773-1.0025q-2.3798-0.31076-2.6906 2.069l-0.75814 5.8057q-0.31076 2.3798 2.069 2.6906l7.6773 1.0025q2.3798 0.31076 2.6906-2.069z" clip-path="url(#a)" fill="#fff" stroke="#fff"/>
<g clip-path="url(#a)">
<g transform="translate(1632.5 594.6) rotate(-82.56) scale(.08 -.08)">
<use xlink:href="#t"/>
</g>
</g>
<path d="m1671.6 588.99 0.45734 5.8371q0.18747 2.3927 2.5801 2.2052l7.7188-0.60478q2.3927-0.18747 2.2052-2.5801l-0.45734-5.8371q-0.18747-2.3927-2.5801-2.2052l-7.7188 0.60478q-2.3927 0.18747-2.2052 2.5801z" clip-path="url(#a)" fill="#fff" stroke="#fff"/>
<g clip-path="url(#a)">
<g transform="translate(1675.6 588.67) rotate(85.52) scale(.08 -.08)">
<use xlink:href="#t"/>
</g>
</g>
<path d="m1695 589.66 1.053 5.7595q0.43161 2.3609 2.7925 1.9293l7.6163-1.3924q2.3609-0.43161 1.9293-2.7925l-1.053-5.7595q-0.43161-2.3609-2.7925-1.9293l-7.6163 1.3924q-2.3609 0.43161-1.9293 2.7925z" clip-path="url(#a)" fill="#fff" stroke="#fff"/>
<g clip-path="url(#a)">
<g transform="translate(1699 588.93) rotate(79.64) scale(.08 -.08)">
<use xlink:href="#t"/>
</g>
</g>
<path d="m1718.5 590.33 1.6167 5.6274q0.66268 2.3067 2.9694 1.644l7.4415-2.1378q2.3067-0.66268 1.644-2.9694l-1.6167-5.6274q-0.66268-2.3067-2.9694-1.644l-7.4415 2.1378q-2.3067 0.66268-1.644 2.9694z" clip-path="url(#a)" fill="#fff" stroke="#fff"/>
<g clip-path="url(#a)">
<g transform="translate(1722.4 589.21) rotate(73.971) scale(.08 -.08)">
<use xlink:href="#t"/>
</g>
</g>
<path d="m1742.1 590.98 2.1357 5.4516q0.87543 2.2346 3.1101 1.3592l7.209-2.8242q2.2346-0.87543 1.3592-3.1101l-2.1357-5.4516q-0.87543-2.2346-3.1101-1.3592l-7.209 2.8242q-2.2346 0.87543-1.3592 3.1101z" clip-path="url(#a)" fill="#fff" stroke="#fff"/>
<g clip-path="url(#a)">
<g transform="translate(1745.9 589.5) rotate(68.607) scale(.08 -.08)">
<use xlink:href="#t"/>
</g>
</g>
<path d="m1245.4 672.79 1.8344-4.2198q0.9568-2.201-1.2442-3.1578l-7.1006-3.0867q-2.201-0.9568-3.1578 1.2442l-1.8344 4.2198q-0.9568 2.201 1.2442 3.1578l7.1006 3.0867q2.201 0.9568 3.1578-1.2442z" clip-path="url(#a)" fill="#fff" stroke="#fff"/>
<g clip-path="url(#a)">
<g transform="translate(1241.6 671.17) rotate(-66.505) scale(.08 -.08)">
<use xlink:href="#ac"/>
</g>
</g>
<path d="m1269.6 672.07 1.2268-4.4347q0.63988-2.3131-1.6732-2.953l-7.4622-2.0643q-2.3131-0.63988-2.953 1.6732l-1.2268 4.4347q-0.63988 2.3131 1.6732 2.953l7.4622 2.0643q2.3131 0.63988 2.953-1.6732z" clip-path="url(#a)" fill="#fff" stroke="#fff"/>
<g clip-path="url(#a)">
<g transform="translate(1265.7 670.99) rotate(-74.537) scale(.08 -.08)">
<use xlink:href="#ac"/>
</g>
</g>
<path d="m1293.7 671.98 0.72523-6.1172q0.28256-2.3833-2.1008-2.6659l-7.6887-0.91154q-2.3833-0.28256-2.6659 2.1008l-0.72523 6.1172q-0.28256 2.3833 2.1008 2.6659l7.6887 0.91154q2.3833 0.28256 2.6659-2.1008z" clip-path="url(#a)" fill="#fff" stroke="#fff"/>
<g clip-path="url(#a)">
<defs>
<path id="aw" d="m19.672 64.797v-56.688h11.922q15.094 0 22.094 6.8281 7 6.8438 7 21.594 0 14.641-7 21.453t-22.094 6.8125zm-9.8594 8.1094h20.266q21.188 0 31.094-8.8125 9.9219-8.8125 9.9219-27.562 0-18.859-9.9688-27.703-9.9531-8.8281-31.047-8.8281h-20.266z"/>
</defs>
<g transform="translate(1289.7 671.5) rotate(-83.239) scale(.08 -.08)">
<use xlink:href="#aw"/>
</g>
</g>
<path d="m1305.1 665.9 0.20055 5.0748q0.094771 2.3981 2.4929 2.3034l7.7365-0.30574q2.3981-0.094771 2.3034-2.4929l-0.20055-5.0748q-0.094771-2.3981-2.4929-2.3034l-7.7365 0.30574q-2.3981 0.094771-2.3034 2.4929z" clip-path="url(#a)" fill="#fff" stroke="#fff"/>
<g clip-path="url(#a)">
<defs>
<path id="w" d="m53.516 70.516v-9.625q-5.6094 2.6875-10.594 4-4.9844 1.3281-9.625 1.3281-8.0469 0-12.422-3.125t-4.375-8.8906q0-4.8438 2.9062-7.3125 2.9062-2.4531 11.016-3.9688l5.9531-1.2188q11.031-2.1094 16.281-7.4062t5.25-14.172q0-10.609-7.1094-16.078-7.0938-5.4688-20.812-5.4688-5.1719 0-11.016 1.1719-5.8281 1.1719-12.078 3.4688v10.156q6-3.3594 11.766-5.0781 5.7656-1.7031 11.328-1.7031 8.4375 0 13.031 3.3125 4.5938 3.3281 4.5938 9.4844 0 5.3594-3.2969 8.3906t-10.812 4.5469l-6.0156 1.1719q-11.031 2.1875-15.969 6.875-4.9219 4.6875-4.9219 13.047 0 9.6719 6.8125 15.234t18.766 5.5625q5.1406 0 10.453-0.9375 5.3281-0.92188 10.891-2.7656z"/>
</defs>
<g transform="translate(1309.2 665.73) rotate(87.737) scale(.08 -.08)">
<use xlink:href="#w"/>
</g>
</g>
<path d="m1388.1 596.91 4.1711 3.5426q1.8293 1.5536 3.3829-0.27566l5.012-5.9013q1.5536-1.8293-0.27566-3.3829l-4.1711-3.5426q-1.8293-1.5536-3.3829 0.27566l-5.012 5.9013q-1.5536 1.8293 0.27566 3.3829z" clip-path="url(#a)" fill="#fff" stroke="#fff"/>
<g clip-path="url(#a)">
<g transform="translate(1390.7 593.81) rotate(40.341) scale(.08 -.08)">
<use xlink:href="#q"/>
</g>
</g>
<path d="m1328.4 666.53 1.135 5.7439q0.46523 2.3545 2.8197 1.8892l7.5956-1.5009q2.3545-0.46523 1.8892-2.8197l-1.135-5.7439q-0.46523-2.3545-2.8197-1.8892l-7.5956 1.5009q-2.3545 0.46523-1.8892 2.8197z" clip-path="url(#a)" fill="#fff" stroke="#fff"/>
<g clip-path="url(#a)">
<g transform="translate(1332.4 665.74) rotate(78.823) scale(.08 -.08)">
<use xlink:href="#t"/>
</g>
</g>
<path d="m1642.2 874.43v35.285q0 2.4 2.4 2.4h7.7425q2.4 0 2.4-2.4v-35.285q0-2.4-2.4-2.4h-7.7425q-2.4 0-2.4 2.4z" clip-path="url(#a)" fill="#fff" stroke="#fff"/>
<g clip-path="url(#a)">
<g transform="translate(1646.3 874.43) rotate(90) scale(.08 -.08)">
<use xlink:href="#l"/>
<use x="60.818359" xlink:href="#d"/>
<use x="122.341797" xlink:href="#h"/>
<use x="163.439453" xlink:href="#j"/>
<use x="260.851562" xlink:href="#g"/>
<use x="288.634766" xlink:href="#f"/>
<use x="352.013672" xlink:href="#i"/>
<use x="413.292969" xlink:href="#k"/>
</g>
</g>
<path d="m1169.2 874.43v35.285q0 2.4 2.4 2.4h7.7425q2.4 0 2.4-2.4v-35.285q0-2.4-2.4-2.4h-7.7425q-2.4 0-2.4 2.4z" clip-path="url(#a)" fill="#fff" stroke="#fff"/>
<g clip-path="url(#a)">
<g transform="translate(1173.3 874.43) rotate(90) scale(.08 -.08)">
<use xlink:href="#l"/>
<use x="60.818359" xlink:href="#d"/>
<use x="122.341797" xlink:href="#h"/>
<use x="163.439453" xlink:href="#j"/>
<use x="260.851562" xlink:href="#g"/>
<use x="288.634766" xlink:href="#f"/>
<use x="352.013672" xlink:href="#i"/>
<use x="413.292969" xlink:href="#k"/>
</g>
</g>
<path d="m1216.5 874.43v35.285q0 2.4 2.4 2.4h7.7425q2.4 0 2.4-2.4v-35.285q0-2.4-2.4-2.4h-7.7425q-2.4 0-2.4 2.4z" clip-path="url(#a)" fill="#fff" stroke="#fff"/>
<g clip-path="url(#a)">
<g transform="translate(1220.6 874.43) rotate(90) scale(.08 -.08)">
<use xlink:href="#l"/>
<use x="60.818359" xlink:href="#d"/>
<use x="122.341797" xlink:href="#h"/>
<use x="163.439453" xlink:href="#j"/>
<use x="260.851562" xlink:href="#g"/>
<use x="288.634766" xlink:href="#f"/>
<use x="352.013672" xlink:href="#i"/>
<use x="413.292969" xlink:href="#k"/>
</g>
</g>
<path d="m1263.8 874.43v35.285q0 2.4 2.4 2.4h7.7425q2.4 0 2.4-2.4v-35.285q0-2.4-2.4-2.4h-7.7425q-2.4 0-2.4 2.4z" clip-path="url(#a)" fill="#fff" stroke="#fff"/>
<g clip-path="url(#a)">
<g transform="translate(1267.9 874.43) rotate(90) scale(.08 -.08)">
<use xlink:href="#l"/>
<use x="60.818359" xlink:href="#d"/>
<use x="122.341797" xlink:href="#h"/>
<use x="163.439453" xlink:href="#j"/>
<use x="260.851562" xlink:href="#g"/>
<use x="288.634766" xlink:href="#f"/>
<use x="352.013672" xlink:href="#i"/>
<use x="413.292969" xlink:href="#k"/>
</g>
</g>
<path d="m1311.1 874.43v35.285q0 2.4 2.4 2.4h7.7425q2.4 0 2.4-2.4v-35.285q0-2.4-2.4-2.4h-7.7425q-2.4 0-2.4 2.4z" clip-path="url(#a)" fill="#fff" stroke="#fff"/>
<g clip-path="url(#a)">
<g transform="translate(1315.2 874.43) rotate(90) scale(.08 -.08)">
<use xlink:href="#l"/>
<use x="60.818359" xlink:href="#d"/>
<use x="122.341797" xlink:href="#h"/>
<use x="163.439453" xlink:href="#j"/>
<use x="260.851562" xlink:href="#g"/>
<use x="288.634766" xlink:href="#f"/>
<use x="352.013672" xlink:href="#i"/>
<use x="413.292969" xlink:href="#k"/>
</g>
</g>
<path d="m1451.9 748.71 2.3953-5.0162q1.0342-2.1657-1.1315-3.1999l-6.9868-3.3364q-2.1657-1.0342-3.1999 1.1315l-2.3953 5.0162q-1.0342 2.1657 1.1315 3.1999l6.9868 3.3364q2.1657 1.0342 3.1999-1.1315z" clip-path="url(#a)" fill="#fff" stroke="#fff"/>
<g clip-path="url(#a)">
<defs>
<path id="aa" d="m44.391 34.188q3.1719-1.0781 6.1719-4.5938t6.0312-9.6719l10.016-19.922h-10.609l-9.3125 18.703q-3.625 7.3281-7.0156 9.7188t-9.25 2.3906h-10.75v-30.812h-9.8594v72.906h22.266q12.5 0 18.656-5.2344 6.1562-5.2188 6.1562-15.766 0-6.8906-3.2031-11.438-3.2031-4.5312-9.2969-6.2812zm-24.719 30.609v-25.875h12.406q7.125 0 10.766 3.2969t3.6406 9.6875-3.6406 9.6406-10.766 3.25z"/>
</defs>
<g transform="translate(1448.3 746.96) rotate(-64.474) scale(.08 -.08)">
<use xlink:href="#aa"/>
</g>
</g>
<path d="m1476.9 747.19 0.86025-5.4045q0.37727-2.3702-1.9929-2.7474l-7.6462-1.2171q-2.3702-0.37727-2.7474 1.9929l-0.86025 5.4045q-0.37727 2.3702 1.9929 2.7474l7.6462 1.2171q2.3702 0.37727 2.7474-1.9929z" clip-path="url(#a)" fill="#fff" stroke="#fff"/>
<g clip-path="url(#a)">
<g transform="translate(1472.9 746.55) rotate(-80.956) scale(.08 -.08)">
<use xlink:href="#q"/>
</g>
</g>
<path d="m1488.1 741.79 0.86025 5.4045q0.37727 2.3702 2.7474 1.9929l7.6462-1.2171q2.3702-0.37727 1.9929-2.7474l-0.86025-5.4045q-0.37727-2.3702-2.7474-1.9929l-7.6462 1.2171q-2.3702 0.37727-1.9929 2.7474z" clip-path="url(#a)" fill="#fff" stroke="#fff"/>
<g clip-path="url(#a)">
<g transform="translate(1492.2 741.15) rotate(80.956) scale(.08 -.08)">
<use xlink:href="#q"/>
</g>
</g>
<path d="m1511.7 744.03 2.0786 4.3529q1.0342 2.1657 3.1999 1.1315l6.9868-3.3364q2.1657-1.0342 1.1315-3.1999l-2.0786-4.3529q-1.0342-2.1657-3.1999-1.1315l-6.9868 3.3364q-2.1657 1.0342-1.1315 3.1999z" clip-path="url(#a)" fill="#fff" stroke="#fff"/>
<g clip-path="url(#a)">
<g transform="translate(1515.4 742.28) rotate(64.474) scale(.08 -.08)">
<use xlink:href="#x"/>
</g>
</g>
<path d="m1405.7 874.43v35.285q0 2.4 2.4 2.4h7.7425q2.4 0 2.4-2.4v-35.285q0-2.4-2.4-2.4h-7.7425q-2.4 0-2.4 2.4z" clip-path="url(#a)" fill="#fff" stroke="#fff"/>
<g clip-path="url(#a)">
<g transform="translate(1409.8 874.43) rotate(90) scale(.08 -.08)">
<use xlink:href="#l"/>
<use x="60.818359" xlink:href="#d"/>
<use x="122.341797" xlink:href="#h"/>
<use x="163.439453" xlink:href="#j"/>
<use x="260.851562" xlink:href="#g"/>
<use x="288.634766" xlink:href="#f"/>
<use x="352.013672" xlink:href="#i"/>
<use x="413.292969" xlink:href="#k"/>
</g>
</g>
<path d="m1453 874.43v35.285q0 2.4 2.4 2.4h7.7425q2.4 0 2.4-2.4v-35.285q0-2.4-2.4-2.4h-7.7425q-2.4 0-2.4 2.4z" clip-path="url(#a)" fill="#fff" stroke="#fff"/>
<g clip-path="url(#a)">
<g transform="translate(1457.1 874.43) rotate(90) scale(.08 -.08)">
<use xlink:href="#l"/>
<use x="60.818359" xlink:href="#d"/>
<use x="122.341797" xlink:href="#h"/>
<use x="163.439453" xlink:href="#j"/>
<use x="260.851562" xlink:href="#g"/>
<use x="288.634766" xlink:href="#f"/>
<use x="352.013672" xlink:href="#i"/>
<use x="413.292969" xlink:href="#k"/>
</g>
</g>
<path d="m1500.3 874.43v35.285q0 2.4 2.4 2.4h7.7425q2.4 0 2.4-2.4v-35.285q0-2.4-2.4-2.4h-7.7425q-2.4 0-2.4 2.4z" clip-path="url(#a)" fill="#fff" stroke="#fff"/>
<g clip-path="url(#a)">
<g transform="translate(1504.4 874.43) rotate(90) scale(.08 -.08)">
<use xlink:href="#l"/>
<use x="60.818359" xlink:href="#d"/>
<use x="122.341797" xlink:href="#h"/>
<use x="163.439453" xlink:href="#j"/>
<use x="260.851562" xlink:href="#g"/>
<use x="288.634766" xlink:href="#f"/>
<use x="352.013672" xlink:href="#i"/>
<use x="413.292969" xlink:href="#k"/>
</g>
</g>
<path d="m1547.6 874.43v35.285q0 2.4 2.4 2.4h7.7425q2.4 0 2.4-2.4v-35.285q0-2.4-2.4-2.4h-7.7425q-2.4 0-2.4 2.4z" clip-path="url(#a)" fill="#fff" stroke="#fff"/>
<g clip-path="url(#a)">
<g transform="translate(1551.7 874.43) rotate(90) scale(.08 -.08)">
<use xlink:href="#l"/>
<use x="60.818359" xlink:href="#d"/>
<use x="122.341797" xlink:href="#h"/>
<use x="163.439453" xlink:href="#j"/>
<use x="260.851562" xlink:href="#g"/>
<use x="288.634766" xlink:href="#f"/>
<use x="352.013672" xlink:href="#i"/>
<use x="413.292969" xlink:href="#k"/>
</g>
</g>
<path d="m601.67 874.43v35.285q0 2.4 2.4 2.4h7.7425q2.4 0 2.4-2.4v-35.285q0-2.4-2.4-2.4h-7.7425q-2.4 0-2.4 2.4z" clip-path="url(#a)" fill="#fff" stroke="#fff"/>
<g clip-path="url(#a)">
<g transform="translate(605.73 874.43) rotate(90) scale(.08 -.08)">
<use xlink:href="#l"/>
<use x="60.818359" xlink:href="#d"/>
<use x="122.341797" xlink:href="#h"/>
<use x="163.439453" xlink:href="#j"/>
<use x="260.851562" xlink:href="#g"/>
<use x="288.634766" xlink:href="#f"/>
<use x="352.013672" xlink:href="#i"/>
<use x="413.292969" xlink:href="#k"/>
</g>
</g>
<path d="m648.96 874.43v35.285q0 2.4 2.4 2.4h7.7425q2.4 0 2.4-2.4v-35.285q0-2.4-2.4-2.4h-7.7425q-2.4 0-2.4 2.4z" clip-path="url(#a)" fill="#fff" stroke="#fff"/>
<g clip-path="url(#a)">
<g transform="translate(653.03 874.43) rotate(90) scale(.08 -.08)">
<use xlink:href="#l"/>
<use x="60.818359" xlink:href="#d"/>
<use x="122.341797" xlink:href="#h"/>
<use x="163.439453" xlink:href="#j"/>
<use x="260.851562" xlink:href="#g"/>
<use x="288.634766" xlink:href="#f"/>
<use x="352.013672" xlink:href="#i"/>
<use x="413.292969" xlink:href="#k"/>
</g>
</g>
<path d="m696.26 874.43v35.285q0 2.4 2.4 2.4h7.7425q2.4 0 2.4-2.4v-35.285q0-2.4-2.4-2.4h-7.7425q-2.4 0-2.4 2.4z" clip-path="url(#a)" fill="#fff" stroke="#fff"/>
<g clip-path="url(#a)">
<g transform="translate(700.32 874.43) rotate(90) scale(.08 -.08)">
<use xlink:href="#l"/>
<use x="60.818359" xlink:href="#d"/>
<use x="122.341797" xlink:href="#h"/>
<use x="163.439453" xlink:href="#j"/>
<use x="260.851562" xlink:href="#g"/>
<use x="288.634766" xlink:href="#f"/>
<use x="352.013672" xlink:href="#i"/>
<use x="413.292969" xlink:href="#k"/>
</g>
</g>
<path d="m769.35 673.12 2.0974-5.0546q0.91983-2.2167-1.2969-3.1366l-7.1513-2.9674q-2.2167-0.91983-3.1366 1.2969l-2.0974 5.0546q-0.91983 2.2167 1.2969 3.1366l7.1513 2.9674q2.2167 0.91983 3.1366-1.2969z" clip-path="url(#a)" fill="#fff" stroke="#fff"/>
<g clip-path="url(#a)">
<g transform="translate(765.6 671.56) rotate(-67.464) scale(.08 -.08)">
<use xlink:href="#q"/>
</g>
</g>
<path d="m793.64 672.44 1.383-5.384q0.59711-2.3245-1.7274-2.9216l-7.499-1.9263q-2.3245-0.59711-2.9216 1.7274l-1.383 5.384q-0.59711 2.3245 1.7274 2.9216l7.499 1.9263q2.3245 0.59711 2.9216-1.7274z" clip-path="url(#a)" fill="#fff" stroke="#fff"/>
<g clip-path="url(#a)">
<g transform="translate(789.7 671.43) rotate(-75.594) scale(.08 -.08)">
<use xlink:href="#aa"/>
</g>
</g>
<path d="m840.61 592.92 1.4498 5.277q0.6358 2.3142 2.9501 1.6784l7.4659-2.0511q2.3142-0.6358 1.6784-2.9501l-1.4498-5.277q-0.6358-2.3142-2.9501-1.6784l-7.4659 2.0511q-2.3143 0.6358-1.6784 2.9501z" clip-path="url(#a)" fill="#fff" stroke="#fff"/>
<g clip-path="url(#a)">
<g transform="translate(844.53 591.85) rotate(74.638) scale(.08 -.08)">
<use xlink:href="#q"/>
</g>
</g>
<path d="m899.83 669.01 2.2706 4.2559q1.1297 2.1175 3.2472 0.9878l6.8311-3.6444q2.1175-1.1297 0.9878-3.2472l-2.2706-4.2559q-1.1297-2.1175-3.2472-0.9878l-6.8311 3.6444q-2.1175 1.1297-0.9878 3.2472z" clip-path="url(#a)" fill="#fff" stroke="#fff"/>
<g clip-path="url(#a)">
<g transform="translate(903.42 667.1) rotate(61.92) scale(.08 -.08)">
<use xlink:href="#x"/>
</g>
</g>
<path d="m743.56 874.43v35.285q0 2.4 2.4 2.4h7.7425q2.4 0 2.4-2.4v-35.285q0-2.4-2.4-2.4h-7.7425q-2.4 0-2.4 2.4z" clip-path="url(#a)" fill="#fff" stroke="#fff"/>
<g clip-path="url(#a)">
<g transform="translate(747.62 874.43) rotate(90) scale(.08 -.08)">
<use xlink:href="#l"/>
<use x="60.818359" xlink:href="#d"/>
<use x="122.341797" xlink:href="#h"/>
<use x="163.439453" xlink:href="#j"/>
<use x="260.851562" xlink:href="#g"/>
<use x="288.634766" xlink:href="#f"/>
<use x="352.013672" xlink:href="#i"/>
<use x="413.292969" xlink:href="#k"/>
</g>
</g>
<path d="m837.06 748.71 2.3953-5.0162q1.0342-2.1657-1.1315-3.1999l-6.9868-3.3364q-2.1657-1.0342-3.1999 1.1315l-2.3953 5.0162q-1.0342 2.1657 1.1315 3.1999l6.9868 3.3364q2.1657 1.0342 3.1999-1.1315z" clip-path="url(#a)" fill="#fff" stroke="#fff"/>
<g clip-path="url(#a)">
<g transform="translate(833.39 746.96) rotate(-64.474) scale(.08 -.08)">
<use xlink:href="#aa"/>
</g>
</g>
<path d="m862.08 746.76 0.7233-4.544q0.37727-2.3702-1.9929-2.7474l-7.6462-1.2171q-2.3702-0.37727-2.7474 1.9929l-0.7233 4.544q-0.37727 2.3702 1.9929 2.7474l7.6462 1.2171q2.3702 0.37727 2.7474-1.9929z" clip-path="url(#a)" fill="#fff" stroke="#fff"/>
<g clip-path="url(#a)">
<g transform="translate(858.07 746.12) rotate(-80.956) scale(.08 -.08)">
<use xlink:href="#ac"/>
</g>
</g>
<path d="m873.31 741.99 0.79462 4.9922q0.37727 2.3702 2.7474 1.9929l7.6462-1.2171q2.3702-0.37727 1.9929-2.7474l-0.79462-4.9922q-0.37727-2.3702-2.7474-1.9929l-7.6462 1.2171q-2.3702 0.37727-1.9929 2.7474z" clip-path="url(#a)" fill="#fff" stroke="#fff"/>
<g clip-path="url(#a)">
<g transform="translate(877.32 741.35) rotate(80.956) scale(.08 -.08)">
<use xlink:href="#ad"/>
</g>
</g>
<path d="m896.68 743.69 2.4072 5.041q1.0342 2.1657 3.1999 1.1315l6.9868-3.3364q2.1657-1.0342 1.1315-3.1999l-2.4072-5.041q-1.0342-2.1657-3.1999-1.1315l-6.9868 3.3364q-2.1657 1.0342-1.1315 3.1999z" clip-path="url(#a)" fill="#fff" stroke="#fff"/>
<g clip-path="url(#a)">
<g transform="translate(900.35 741.93) rotate(64.474) scale(.08 -.08)">
<use xlink:href="#aj"/>
</g>
</g>
<path d="m980.04 874.43v35.285q0 2.4 2.4 2.4h7.7425q2.4 0 2.4-2.4v-35.285q0-2.4-2.4-2.4h-7.7425q-2.4 0-2.4 2.4z" clip-path="url(#a)" fill="#fff" stroke="#fff"/>
<g clip-path="url(#a)">
<g transform="translate(984.11 874.43) rotate(90) scale(.08 -.08)">
<use xlink:href="#l"/>
<use x="60.818359" xlink:href="#d"/>
<use x="122.341797" xlink:href="#h"/>
<use x="163.439453" xlink:href="#j"/>
<use x="260.851562" xlink:href="#g"/>
<use x="288.634766" xlink:href="#f"/>
<use x="352.013672" xlink:href="#i"/>
<use x="413.292969" xlink:href="#k"/>
</g>
</g>
<path d="m790.86 874.43v35.285q0 2.4 2.4 2.4h7.7425q2.4 0 2.4-2.4v-35.285q0-2.4-2.4-2.4h-7.7425q-2.4 0-2.4 2.4z" clip-path="url(#a)" fill="#fff" stroke="#fff"/>
<g clip-path="url(#a)">
<g transform="translate(794.92 874.43) rotate(90) scale(.08 -.08)">
<use xlink:href="#l"/>
<use x="60.818359" xlink:href="#d"/>
<use x="122.341797" xlink:href="#h"/>
<use x="163.439453" xlink:href="#j"/>
<use x="260.851562" xlink:href="#g"/>
<use x="288.634766" xlink:href="#f"/>
<use x="352.013672" xlink:href="#i"/>
<use x="413.292969" xlink:href="#k"/>
</g>
</g>
<path d="m838.15 874.43v35.285q0 2.4 2.4 2.4h7.7425q2.4 0 2.4-2.4v-35.285q0-2.4-2.4-2.4h-7.7425q-2.4 0-2.4 2.4z" clip-path="url(#a)" fill="#fff" stroke="#fff"/>
<g clip-path="url(#a)">
<g transform="translate(842.22 874.43) rotate(90) scale(.08 -.08)">
<use xlink:href="#l"/>
<use x="60.818359" xlink:href="#d"/>
<use x="122.341797" xlink:href="#h"/>
<use x="163.439453" xlink:href="#j"/>
<use x="260.851562" xlink:href="#g"/>
<use x="288.634766" xlink:href="#f"/>
<use x="352.013672" xlink:href="#i"/>
<use x="413.292969" xlink:href="#k"/>
</g>
</g>
<path d="m885.45 874.43v35.285q0 2.4 2.4 2.4h7.7425q2.4 0 2.4-2.4v-35.285q0-2.4-2.4-2.4h-7.7425q-2.4 0-2.4 2.4z" clip-path="url(#a)" fill="#fff" stroke="#fff"/>
<g clip-path="url(#a)">
<g transform="translate(889.51 874.43) rotate(90) scale(.08 -.08)">
<use xlink:href="#l"/>
<use x="60.818359" xlink:href="#d"/>
<use x="122.341797" xlink:href="#h"/>
<use x="163.439453" xlink:href="#j"/>
<use x="260.851562" xlink:href="#g"/>
<use x="288.634766" xlink:href="#f"/>
<use x="352.013672" xlink:href="#i"/>
<use x="413.292969" xlink:href="#k"/>
</g>
</g>
<path d="m932.75 874.43v35.285q0 2.4 2.4 2.4h7.7425q2.4 0 2.4-2.4v-35.285q0-2.4-2.4-2.4h-7.7425q-2.4 0-2.4 2.4z" clip-path="url(#a)" fill="#fff" stroke="#fff"/>
<g clip-path="url(#a)">
<g transform="translate(936.81 874.43) rotate(90) scale(.08 -.08)">
<use xlink:href="#l"/>
<use x="60.818359" xlink:href="#d"/>
<use x="122.341797" xlink:href="#h"/>
<use x="163.439453" xlink:href="#j"/>
<use x="260.851562" xlink:href="#g"/>
<use x="288.634766" xlink:href="#f"/>
<use x="352.013672" xlink:href="#i"/>
<use x="413.292969" xlink:href="#k"/>
</g>
</g>
<path d="m128.69 874.43v35.285q0 2.4 2.4 2.4h7.7425q2.4 0 2.4-2.4v-35.285q0-2.4-2.4-2.4h-7.7425q-2.4 0-2.4 2.4z" clip-path="url(#a)" fill="#fff" stroke="#fff"/>
<g clip-path="url(#a)">
<g transform="translate(132.76 874.43) rotate(90) scale(.08 -.08)">
<use xlink:href="#l"/>
<use x="60.818359" xlink:href="#d"/>
<use x="122.341797" xlink:href="#h"/>
<use x="163.439453" xlink:href="#j"/>
<use x="260.851562" xlink:href="#g"/>
<use x="288.634766" xlink:href="#f"/>
<use x="352.013672" xlink:href="#i"/>
<use x="413.292969" xlink:href="#k"/>
</g>
</g>
<path d="m175.99 874.43v35.285q0 2.4 2.4 2.4h7.7425q2.4 0 2.4-2.4v-35.285q0-2.4-2.4-2.4h-7.7425q-2.4 0-2.4 2.4z" clip-path="url(#a)" fill="#fff" stroke="#fff"/>
<g clip-path="url(#a)">
<g transform="translate(180.06 874.43) rotate(90) scale(.08 -.08)">
<use xlink:href="#l"/>
<use x="60.818359" xlink:href="#d"/>
<use x="122.341797" xlink:href="#h"/>
<use x="163.439453" xlink:href="#j"/>
<use x="260.851562" xlink:href="#g"/>
<use x="288.634766" xlink:href="#f"/>
<use x="352.013672" xlink:href="#i"/>
<use x="413.292969" xlink:href="#k"/>
</g>
</g>
<path d="m253.23 671.44 0.59793-5.0434q0.28256-2.3833-2.1008-2.6659l-7.6887-0.91154q-2.3833-0.28256-2.6659 2.1008l-0.59793 5.0434q-0.28256 2.3833 2.1008 2.6659l7.6887 0.91154q2.3833 0.28256 2.6659-2.1008z" clip-path="url(#a)" fill="#fff" stroke="#fff"/>
<g clip-path="url(#a)">
<g transform="translate(249.19 670.97) rotate(-83.239) scale(.08 -.08)">
<use xlink:href="#w"/>
</g>
</g>
<path d="m276.04 592.67 1.2544 5.3268q0.55012 2.3361 2.8862 1.786l7.5364-1.7747q2.3361-0.55012 1.786-2.8862l-1.2544-5.3268q-0.55012-2.3361-2.8862-1.786l-7.5364 1.7747q-2.3361 0.55012-1.786 2.8862z" clip-path="url(#a)" fill="#fff" stroke="#fff"/>
<g clip-path="url(#a)">
<g transform="translate(279.99 591.74) rotate(76.749) scale(.08 -.08)">
<use xlink:href="#q"/>
</g>
</g>
<path d="m223.29 874.43v35.285q0 2.4 2.4 2.4h7.7425q2.4 0 2.4-2.4v-35.285q0-2.4-2.4-2.4h-7.7425q-2.4 0-2.4 2.4z" clip-path="url(#a)" fill="#fff" stroke="#fff"/>
<g clip-path="url(#a)">
<g transform="translate(227.35 874.43) rotate(90) scale(.08 -.08)">
<use xlink:href="#l"/>
<use x="60.818359" xlink:href="#d"/>
<use x="122.341797" xlink:href="#h"/>
<use x="163.439453" xlink:href="#j"/>
<use x="260.851562" xlink:href="#g"/>
<use x="288.634766" xlink:href="#f"/>
<use x="352.013672" xlink:href="#i"/>
<use x="413.292969" xlink:href="#k"/>
</g>
</g>
<path d="m294.44 747.23 0.87381-5.4896q0.37727-2.3702-1.9929-2.7474l-7.6462-1.2171q-2.3702-0.37727-2.7474 1.9929l-0.87381 5.4896q-0.37727 2.3702 1.9929 2.7474l7.6462 1.2171q2.3702 0.37727 2.7474-1.9929z" clip-path="url(#a)" fill="#fff" stroke="#fff"/>
<g clip-path="url(#a)">
<g transform="translate(290.42 746.6) rotate(-80.956) scale(.08 -.08)">
<use xlink:href="#aa"/>
</g>
</g>
<path d="m305.7 741.73 0.87814 5.5168q0.37727 2.3702 2.7474 1.9929l7.6462-1.2171q2.3702-0.37727 1.9929-2.7474l-0.87814-5.5168q-0.37727-2.3702-2.7474-1.9929l-7.6462 1.2171q-2.3702 0.37727-1.9929 2.7474z" clip-path="url(#a)" fill="#fff" stroke="#fff"/>
<g clip-path="url(#a)">
<g transform="translate(309.71 741.09) rotate(80.956) scale(.08 -.08)">
<use xlink:href="#aj"/>
</g>
</g>
<path d="m270.59 874.43v35.285q0 2.4 2.4 2.4h7.7425q2.4 0 2.4-2.4v-35.285q0-2.4-2.4-2.4h-7.7425q-2.4 0-2.4 2.4z" clip-path="url(#a)" fill="#fff" stroke="#fff"/>
<g clip-path="url(#a)">
<g transform="translate(274.65 874.43) rotate(90) scale(.08 -.08)">
<use xlink:href="#l"/>
<use x="60.818359" xlink:href="#d"/>
<use x="122.341797" xlink:href="#h"/>
<use x="163.439453" xlink:href="#j"/>
<use x="260.851562" xlink:href="#g"/>
<use x="288.634766" xlink:href="#f"/>
<use x="352.013672" xlink:href="#i"/>
<use x="413.292969" xlink:href="#k"/>
</g>
</g>
<path d="m317.88 874.43v35.285q0 2.4 2.4 2.4h7.7425q2.4 0 2.4-2.4v-35.285q0-2.4-2.4-2.4h-7.7425q-2.4 0-2.4 2.4z" clip-path="url(#a)" fill="#fff" stroke="#fff"/>
<g clip-path="url(#a)">
<g transform="translate(321.95 874.43) rotate(90) scale(.08 -.08)">
<use xlink:href="#l"/>
<use x="60.818359" xlink:href="#d"/>
<use x="122.341797" xlink:href="#h"/>
<use x="163.439453" xlink:href="#j"/>
<use x="260.851562" xlink:href="#g"/>
<use x="288.634766" xlink:href="#f"/>
<use x="352.013672" xlink:href="#i"/>
<use x="413.292969" xlink:href="#k"/>
</g>
</g>
<path d="m365.18 874.43v35.285q0 2.4 2.4 2.4h7.7425q2.4 0 2.4-2.4v-35.285q0-2.4-2.4-2.4h-7.7425q-2.4 0-2.4 2.4z" clip-path="url(#a)" fill="#fff" stroke="#fff"/>
<g clip-path="url(#a)">
<g transform="translate(369.24 874.43) rotate(90) scale(.08 -.08)">
<use xlink:href="#l"/>
<use x="60.818359" xlink:href="#d"/>
<use x="122.341797" xlink:href="#h"/>
<use x="163.439453" xlink:href="#j"/>
<use x="260.851562" xlink:href="#g"/>
<use x="288.634766" xlink:href="#f"/>
<use x="352.013672" xlink:href="#i"/>
<use x="413.292969" xlink:href="#k"/>
</g>
</g>
<path d="m1027.3 874.43v35.285q0 2.4 2.4 2.4h7.7425q2.4 0 2.4-2.4v-35.285q0-2.4-2.4-2.4h-7.7425q-2.4 0-2.4 2.4z" clip-path="url(#a)" fill="#fff" stroke="#fff"/>
<g clip-path="url(#a)">
<g transform="translate(1031.4 874.43) rotate(90) scale(.08 -.08)">
<use xlink:href="#l"/>
<use x="60.818359" xlink:href="#d"/>
<use x="122.341797" xlink:href="#h"/>
<use x="163.439453" xlink:href="#j"/>
<use x="260.851562" xlink:href="#g"/>
<use x="288.634766" xlink:href="#f"/>
<use x="352.013672" xlink:href="#i"/>
<use x="413.292969" xlink:href="#k"/>
</g>
</g>
<path d="m1074.6 874.43v35.285q0 2.4 2.4 2.4h7.7425q2.4 0 2.4-2.4v-35.285q0-2.4-2.4-2.4h-7.7425q-2.4 0-2.4 2.4z" clip-path="url(#a)" fill="#fff" stroke="#fff"/>
<g clip-path="url(#a)">
<g transform="translate(1078.7 874.43) rotate(90) scale(.08 -.08)">
<use xlink:href="#l"/>
<use x="60.818359" xlink:href="#d"/>
<use x="122.341797" xlink:href="#h"/>
<use x="163.439453" xlink:href="#j"/>
<use x="260.851562" xlink:href="#g"/>
<use x="288.634766" xlink:href="#f"/>
<use x="352.013672" xlink:href="#i"/>
<use x="413.292969" xlink:href="#k"/>
</g>
</g>
<path d="m1121.9 874.43v35.285q0 2.4 2.4 2.4h7.7425q2.4 0 2.4-2.4v-35.285q0-2.4-2.4-2.4h-7.7425q-2.4 0-2.4 2.4z" clip-path="url(#a)" fill="#fff" stroke="#fff"/>
<g clip-path="url(#a)">
<g transform="translate(1126 874.43) rotate(90) scale(.08 -.08)">
<use xlink:href="#l"/>
<use x="60.818359" xlink:href="#d"/>
<use x="122.341797" xlink:href="#h"/>
<use x="163.439453" xlink:href="#j"/>
<use x="260.851562" xlink:href="#g"/>
<use x="288.634766" xlink:href="#f"/>
<use x="352.013672" xlink:href="#i"/>
<use x="413.292969" xlink:href="#k"/>
</g>
</g>
<path d="m1358.4 874.43v35.285q0 2.4 2.4 2.4h7.7425q2.4 0 2.4-2.4v-35.285q0-2.4-2.4-2.4h-7.7425q-2.4 0-2.4 2.4z" clip-path="url(#a)" fill="#fff" stroke="#fff"/>
<g clip-path="url(#a)">
<g transform="translate(1362.5 874.43) rotate(90) scale(.08 -.08)">
<use xlink:href="#l"/>
<use x="60.818359" xlink:href="#d"/>
<use x="122.341797" xlink:href="#h"/>
<use x="163.439453" xlink:href="#j"/>
<use x="260.851562" xlink:href="#g"/>
<use x="288.634766" xlink:href="#f"/>
<use x="352.013672" xlink:href="#i"/>
<use x="413.292969" xlink:href="#k"/>
</g>
</g>
<path d="m1594.9 874.43v35.285q0 2.4 2.4 2.4h7.7425q2.4 0 2.4-2.4v-35.285q0-2.4-2.4-2.4h-7.7425q-2.4 0-2.4 2.4z" clip-path="url(#a)" fill="#fff" stroke="#fff"/>
<g clip-path="url(#a)">
<g transform="translate(1599 874.43) rotate(90) scale(.08 -.08)">
<use xlink:href="#l"/>
<use x="60.818359" xlink:href="#d"/>
<use x="122.341797" xlink:href="#h"/>
<use x="163.439453" xlink:href="#j"/>
<use x="260.851562" xlink:href="#g"/>
<use x="288.634766" xlink:href="#f"/>
<use x="352.013672" xlink:href="#i"/>
<use x="413.292969" xlink:href="#k"/>
</g>
</g>
<path d="m1689.5 874.43v35.285q0 2.4 2.4 2.4h7.7425q2.4 0 2.4-2.4v-35.285q0-2.4-2.4-2.4h-7.7425q-2.4 0-2.4 2.4z" clip-path="url(#a)" fill="#fff" stroke="#fff"/>
<g clip-path="url(#a)">
<g transform="translate(1693.6 874.43) rotate(90) scale(.08 -.08)">
<use xlink:href="#l"/>
<use x="60.818359" xlink:href="#d"/>
<use x="122.341797" xlink:href="#h"/>
<use x="163.439453" xlink:href="#j"/>
<use x="260.851562" xlink:href="#g"/>
<use x="288.634766" xlink:href="#f"/>
<use x="352.013672" xlink:href="#i"/>
<use x="413.292969" xlink:href="#k"/>
</g>
</g>
<path d="m1736.8 874.43v35.285q0 2.4 2.4 2.4h7.7425q2.4 0 2.4-2.4v-35.285q0-2.4-2.4-2.4h-7.7425q-2.4 0-2.4 2.4z" clip-path="url(#a)" fill="#fff" stroke="#fff"/>
<g clip-path="url(#a)">
<g transform="translate(1740.9 874.43) rotate(90) scale(.08 -.08)">
<use xlink:href="#l"/>
<use x="60.818359" xlink:href="#d"/>
<use x="122.341797" xlink:href="#h"/>
<use x="163.439453" xlink:href="#j"/>
<use x="260.851562" xlink:href="#g"/>
<use x="288.634766" xlink:href="#f"/>
<use x="352.013672" xlink:href="#i"/>
<use x="413.292969" xlink:href="#k"/>
</g>
</g>
<path d="m1784.1 874.43v35.285q0 2.4 2.4 2.4h7.7425q2.4 0 2.4-2.4v-35.285q0-2.4-2.4-2.4h-7.7425q-2.4 0-2.4 2.4z" clip-path="url(#a)" fill="#fff" stroke="#fff"/>
<g clip-path="url(#a)">
<g transform="translate(1788.2 874.43) rotate(90) scale(.08 -.08)">
<use xlink:href="#l"/>
<use x="60.818359" xlink:href="#d"/>
<use x="122.341797" xlink:href="#h"/>
<use x="163.439453" xlink:href="#j"/>
<use x="260.851562" xlink:href="#g"/>
<use x="288.634766" xlink:href="#f"/>
<use x="352.013672" xlink:href="#i"/>
<use x="413.292969" xlink:href="#k"/>
</g>
</g>
<path d="m1831.4 874.43v35.285q0 2.4 2.4 2.4h7.7425q2.4 0 2.4-2.4v-35.285q0-2.4-2.4-2.4h-7.7425q-2.4 0-2.4 2.4z" clip-path="url(#a)" fill="#fff" stroke="#fff"/>
<g clip-path="url(#a)">
<g transform="translate(1835.5 874.43) rotate(90) scale(.08 -.08)">
<use xlink:href="#l"/>
<use x="60.818359" xlink:href="#d"/>
<use x="122.341797" xlink:href="#h"/>
<use x="163.439453" xlink:href="#j"/>
<use x="260.851562" xlink:href="#g"/>
<use x="288.634766" xlink:href="#f"/>
<use x="352.013672" xlink:href="#i"/>
<use x="413.292969" xlink:href="#k"/>
</g>
</g>
<defs>
<path id="b" d="m0 8.6603c2.2967 0 4.4997-0.9125 6.1237-2.5365 1.624-1.624 2.5365-3.827 2.5365-6.1237s-0.9125-4.4997-2.5365-6.1237c-1.624-1.624-3.827-2.5365-6.1237-2.5365s-4.4997 0.9125-6.1237 2.5365c-1.624 1.624-2.5365 3.827-2.5365 6.1237s0.9125 4.4997 2.5365 6.1237c1.624 1.624 3.827 2.5365 6.1237 2.5365z"/>
</defs>
<g clip-path="url(#a)">
<use x="87.668328" y="966.358525" fill="#ffffff" stroke="#ffffff" xlink:href="#b"/>
</g>
<g clip-path="url(#a)">
<use x="134.965536" y="966.358525" fill="#ffffff" stroke="#ffffff" xlink:href="#b"/>
</g>
<g clip-path="url(#a)">
<use x="182.262743" y="966.358525" fill="#ffffff" stroke="#ffffff" xlink:href="#b"/>
</g>
<g clip-path="url(#a)">
<use x="229.559951" y="966.358525" fill="#ffffff" stroke="#ffffff" xlink:href="#b"/>
</g>
<g clip-path="url(#a)">
<use x="276.857158" y="966.358525" fill="#ffffff" stroke="#ffffff" xlink:href="#b"/>
</g>
<g clip-path="url(#a)">
<use x="324.154366" y="966.358525" fill="#ffffff" stroke="#ffffff" xlink:href="#b"/>
</g>
<g clip-path="url(#a)">
<use x="371.451573" y="966.358525" fill="#ffffff" stroke="#ffffff" xlink:href="#b"/>
</g>
<g clip-path="url(#a)">
<use x="418.748781" y="966.358525" fill="#ffffff" stroke="#ffffff" xlink:href="#b"/>
</g>
<g clip-path="url(#a)">
<use x="466.045988" y="966.358525" fill="#ffffff" stroke="#ffffff" xlink:href="#b"/>
</g>
<g clip-path="url(#a)">
<use x="513.343196" y="966.358525" fill="#ffffff" stroke="#ffffff" xlink:href="#b"/>
</g>
<g clip-path="url(#a)">
<use x="560.640403" y="966.358525" fill="#ffffff" stroke="#ffffff" xlink:href="#b"/>
</g>
<g clip-path="url(#a)">
<use x="607.937611" y="966.358525" fill="#ffffff" stroke="#ffffff" xlink:href="#b"/>
</g>
<g clip-path="url(#a)">
<use x="655.234818" y="966.358525" fill="#ffffff" stroke="#ffffff" xlink:href="#b"/>
</g>
<g clip-path="url(#a)">
<use x="702.532026" y="966.358525" fill="#ffffff" stroke="#ffffff" xlink:href="#b"/>
</g>
<g clip-path="url(#a)">
<use x="749.829233" y="966.358525" fill="#ffffff" stroke="#ffffff" xlink:href="#b"/>
</g>
<g clip-path="url(#a)">
<use x="797.12644" y="966.358525" fill="#ffffff" stroke="#ffffff" xlink:href="#b"/>
</g>
<g clip-path="url(#a)">
<use x="844.423648" y="966.358525" fill="#ffffff" stroke="#ffffff" xlink:href="#b"/>
</g>
<g clip-path="url(#a)">
<use x="891.720855" y="966.358525" fill="#ffffff" stroke="#ffffff" xlink:href="#b"/>
</g>
<g clip-path="url(#a)">
<use x="939.018063" y="966.358525" fill="#ffffff" stroke="#ffffff" xlink:href="#b"/>
</g>
<g clip-path="url(#a)">
<use x="986.31527" y="966.358525" fill="#ffffff" stroke="#ffffff" xlink:href="#b"/>
</g>
<g clip-path="url(#a)">
<use x="1033.612478" y="966.358525" fill="#ffffff" stroke="#ffffff" xlink:href="#b"/>
</g>
<g clip-path="url(#a)">
<use x="1080.909685" y="966.358525" fill="#ffffff" stroke="#ffffff" xlink:href="#b"/>
</g>
<g clip-path="url(#a)">
<use x="1128.206893" y="966.358525" fill="#ffffff" stroke="#ffffff" xlink:href="#b"/>
</g>
<g clip-path="url(#a)">
<use x="1175.5041" y="966.358525" fill="#ffffff" stroke="#ffffff" xlink:href="#b"/>
</g>
<g clip-path="url(#a)">
<use x="1222.801308" y="966.358525" fill="#ffffff" stroke="#ffffff" xlink:href="#b"/>
</g>
<g clip-path="url(#a)">
<use x="1270.098515" y="966.358525" fill="#ffffff" stroke="#ffffff" xlink:href="#b"/>
</g>
<g clip-path="url(#a)">
<use x="1317.395723" y="966.358525" fill="#ffffff" stroke="#ffffff" xlink:href="#b"/>
</g>
<g clip-path="url(#a)">
<use x="1364.69293" y="966.358525" fill="#ffffff" stroke="#ffffff" xlink:href="#b"/>
</g>
<g clip-path="url(#a)">
<use x="1411.990138" y="966.358525" fill="#ffffff" stroke="#ffffff" xlink:href="#b"/>
</g>
<g clip-path="url(#a)">
<use x="1459.287345" y="966.358525" fill="#ffffff" stroke="#ffffff" xlink:href="#b"/>
</g>
<g clip-path="url(#a)">
<use x="1506.584553" y="966.358525" fill="#ffffff" stroke="#ffffff" xlink:href="#b"/>
</g>
<g clip-path="url(#a)">
<use x="1553.88176" y="966.358525" fill="#ffffff" stroke="#ffffff" xlink:href="#b"/>
</g>
<g clip-path="url(#a)">
<use x="1601.178968" y="966.358525" fill="#ffffff" stroke="#ffffff" xlink:href="#b"/>
</g>
<g clip-path="url(#a)">
<use x="1648.476175" y="966.358525" fill="#ffffff" stroke="#ffffff" xlink:href="#b"/>
</g>
<g clip-path="url(#a)">
<use x="1695.773383" y="966.358525" fill="#ffffff" stroke="#ffffff" xlink:href="#b"/>
</g>
<g clip-path="url(#a)">
<use x="1743.07059" y="966.358525" fill="#ffffff" stroke="#ffffff" xlink:href="#b"/>
</g>
<g clip-path="url(#a)">
<use x="1790.367798" y="966.358525" fill="#ffffff" stroke="#ffffff" xlink:href="#b"/>
</g>
<g clip-path="url(#a)">
<use x="1837.665005" y="966.358525" fill="#ffffff" stroke="#ffffff" xlink:href="#b"/>
</g>
<g clip-path="url(#a)">
<use x="392.920071" y="46.974808" fill="#ffffff" stroke="#ffffff" xlink:href="#b"/>
</g>
<g clip-path="url(#a)">
<use x="87.668328" y="817.788414" fill="#ffffff" stroke="#ffffff" xlink:href="#b"/>
</g>
<g clip-path="url(#a)">
<use x="194.087045" y="365.043907" fill="#ffffff" stroke="#ffffff" xlink:href="#b"/>
</g>
<g clip-path="url(#a)">
<use x="418.748781" y="817.788414" fill="#ffffff" stroke="#ffffff" xlink:href="#b"/>
</g>
<g clip-path="url(#a)">
<use x="892.644629" y="208.008009" fill="#ffffff" stroke="#ffffff" xlink:href="#b"/>
</g>
<g clip-path="url(#a)">
<use x="466.045988" y="817.788414" fill="#ffffff" stroke="#ffffff" xlink:href="#b"/>
</g>
<g clip-path="url(#a)">
<use x="513.343196" y="817.788414" fill="#ffffff" stroke="#ffffff" xlink:href="#b"/>
</g>
<g clip-path="url(#a)">
<use x="560.640403" y="817.788414" fill="#ffffff" stroke="#ffffff" xlink:href="#b"/>
</g>
<g clip-path="url(#a)">
<use x="698.097912" y="365.043907" fill="#ffffff" stroke="#ffffff" xlink:href="#b"/>
</g>
<g clip-path="url(#a)">
<use x="1660.300477" y="365.043907" fill="#ffffff" stroke="#ffffff" xlink:href="#b"/>
</g>
<g clip-path="url(#a)">
<use x="1305.571421" y="518.581419" fill="#ffffff" stroke="#ffffff" xlink:href="#b"/>
</g>
<g clip-path="url(#a)">
<use x="1648.476175" y="817.788414" fill="#ffffff" stroke="#ffffff" xlink:href="#b"/>
</g>
<g clip-path="url(#a)">
<use x="1175.5041" y="817.788414" fill="#ffffff" stroke="#ffffff" xlink:href="#b"/>
</g>
<g clip-path="url(#a)">
<use x="1222.801308" y="817.788414" fill="#ffffff" stroke="#ffffff" xlink:href="#b"/>
</g>
<g clip-path="url(#a)">
<use x="1270.098515" y="817.788414" fill="#ffffff" stroke="#ffffff" xlink:href="#b"/>
</g>
<g clip-path="url(#a)">
<use x="1317.395723" y="817.788414" fill="#ffffff" stroke="#ffffff" xlink:href="#b"/>
</g>
<g clip-path="url(#a)">
<use x="1482.935949" y="669.218303" fill="#ffffff" stroke="#ffffff" xlink:href="#b"/>
</g>
<g clip-path="url(#a)">
<use x="1411.990138" y="817.788414" fill="#ffffff" stroke="#ffffff" xlink:href="#b"/>
</g>
<g clip-path="url(#a)">
<use x="1459.287345" y="817.788414" fill="#ffffff" stroke="#ffffff" xlink:href="#b"/>
</g>
<g clip-path="url(#a)">
<use x="1506.584553" y="817.788414" fill="#ffffff" stroke="#ffffff" xlink:href="#b"/>
</g>
<g clip-path="url(#a)">
<use x="1553.88176" y="817.788414" fill="#ffffff" stroke="#ffffff" xlink:href="#b"/>
</g>
<g clip-path="url(#a)">
<use x="607.937611" y="817.788414" fill="#ffffff" stroke="#ffffff" xlink:href="#b"/>
</g>
<g clip-path="url(#a)">
<use x="655.234818" y="817.788414" fill="#ffffff" stroke="#ffffff" xlink:href="#b"/>
</g>
<g clip-path="url(#a)">
<use x="702.532026" y="817.788414" fill="#ffffff" stroke="#ffffff" xlink:href="#b"/>
</g>
<g clip-path="url(#a)">
<use x="826.687195" y="518.581419" fill="#ffffff" stroke="#ffffff" xlink:href="#b"/>
</g>
<g clip-path="url(#a)">
<use x="749.829233" y="817.788414" fill="#ffffff" stroke="#ffffff" xlink:href="#b"/>
</g>
<g clip-path="url(#a)">
<use x="868.072252" y="669.218303" fill="#ffffff" stroke="#ffffff" xlink:href="#b"/>
</g>
<g clip-path="url(#a)">
<use x="986.31527" y="817.788414" fill="#ffffff" stroke="#ffffff" xlink:href="#b"/>
</g>
<g clip-path="url(#a)">
<use x="797.12644" y="817.788414" fill="#ffffff" stroke="#ffffff" xlink:href="#b"/>
</g>
<g clip-path="url(#a)">
<use x="844.423648" y="817.788414" fill="#ffffff" stroke="#ffffff" xlink:href="#b"/>
</g>
<g clip-path="url(#a)">
<use x="891.720855" y="817.788414" fill="#ffffff" stroke="#ffffff" xlink:href="#b"/>
</g>
<g clip-path="url(#a)">
<use x="939.018063" y="817.788414" fill="#ffffff" stroke="#ffffff" xlink:href="#b"/>
</g>
<g clip-path="url(#a)">
<use x="134.965536" y="817.788414" fill="#ffffff" stroke="#ffffff" xlink:href="#b"/>
</g>
<g clip-path="url(#a)">
<use x="182.262743" y="817.788414" fill="#ffffff" stroke="#ffffff" xlink:href="#b"/>
</g>
<g clip-path="url(#a)">
<use x="265.032856" y="518.581419" fill="#ffffff" stroke="#ffffff" xlink:href="#b"/>
</g>
<g clip-path="url(#a)">
<use x="229.559951" y="817.788414" fill="#ffffff" stroke="#ffffff" xlink:href="#b"/>
</g>
<g clip-path="url(#a)">
<use x="300.505762" y="669.218303" fill="#ffffff" stroke="#ffffff" xlink:href="#b"/>
</g>
<g clip-path="url(#a)">
<use x="276.857158" y="817.788414" fill="#ffffff" stroke="#ffffff" xlink:href="#b"/>
</g>
<g clip-path="url(#a)">
<use x="324.154366" y="817.788414" fill="#ffffff" stroke="#ffffff" xlink:href="#b"/>
</g>
<g clip-path="url(#a)">
<use x="371.451573" y="817.788414" fill="#ffffff" stroke="#ffffff" xlink:href="#b"/>
</g>
<g clip-path="url(#a)">
<use x="1033.612478" y="817.788414" fill="#ffffff" stroke="#ffffff" xlink:href="#b"/>
</g>
<g clip-path="url(#a)">
<use x="1080.909685" y="817.788414" fill="#ffffff" stroke="#ffffff" xlink:href="#b"/>
</g>
<g clip-path="url(#a)">
<use x="1128.206893" y="817.788414" fill="#ffffff" stroke="#ffffff" xlink:href="#b"/>
</g>
<g clip-path="url(#a)">
<use x="1364.69293" y="817.788414" fill="#ffffff" stroke="#ffffff" xlink:href="#b"/>
</g>
<g clip-path="url(#a)">
<use x="1601.178968" y="817.788414" fill="#ffffff" stroke="#ffffff" xlink:href="#b"/>
</g>
<g clip-path="url(#a)">
<use x="1695.773383" y="817.788414" fill="#ffffff" stroke="#ffffff" xlink:href="#b"/>
</g>
<g clip-path="url(#a)">
<use x="1743.07059" y="817.788414" fill="#ffffff" stroke="#ffffff" xlink:href="#b"/>
</g>
<g clip-path="url(#a)">
<use x="1790.367798" y="817.788414" fill="#ffffff" stroke="#ffffff" xlink:href="#b"/>
</g>
<g clip-path="url(#a)">
<use x="1837.665005" y="817.788414" fill="#ffffff" stroke="#ffffff" xlink:href="#b"/>
</g>
<g clip-path="url(#a)">
<defs>
<path id="as" d="m8.5 21.578v33.109h8.9844v-32.766q0-7.7656 3.0156-11.656 3.0312-3.875 9.0938-3.875 7.2656 0 11.484 4.6406 4.2344 4.6406 4.2344 12.656v31h8.9844v-54.688h-8.9844v8.4062q-3.2656-4.9844-7.5938-7.4062-4.3125-2.4219-10.031-2.4219-9.4219 0-14.312 5.8594-4.875 5.8594-4.875 17.141z"/>
<path id="u" d="m48.781 52.594v-8.4062q-3.8125 2.1094-7.6406 3.1562t-7.7344 1.0469q-8.75 0-13.594-5.5469-4.8281-5.5312-4.8281-15.547t4.8281-15.562q4.8438-5.5312 13.594-5.5312 3.9062 0 7.7344 1.0469t7.6406 3.1562v-8.3125q-3.7656-1.75-7.7969-2.625-4.0156-0.89062-8.5625-0.89062-12.359 0-19.641 7.7656-7.2656 7.7656-7.2656 20.953 0 13.375 7.3438 21.031 7.3594 7.6719 20.156 7.6719 4.1406 0 8.0938-0.85938 3.9531-0.84375 7.6719-2.5469z"/>
<path id="s" d="m54.891 33.016v-33.016h-8.9844v32.719q0 7.7656-3.0312 11.609-3.0312 3.8594-9.0781 3.8594-7.2812 0-11.484-4.6406-4.2031-4.625-4.2031-12.641v-30.906h-9.0312v75.984h9.0312v-29.797q3.2344 4.9375 7.5938 7.375 4.375 2.4375 10.094 2.4375 9.4219 0 14.25-5.8281 4.8438-5.8281 4.8438-17.156z"/>
</defs>
<g transform="translate(75.161 969.12) scale(.1 -.1)">
<use xlink:href="#q"/>
<use x="68.408203" xlink:href="#as"/>
<use x="131.787109" xlink:href="#u"/>
<use x="186.767578" xlink:href="#s"/>
</g>
</g>
<g clip-path="url(#a)">
<defs>
<path id="v" d="m45.406 46.391v29.594h8.9844v-75.984h-8.9844v8.2031q-2.8281-4.875-7.1562-7.25-4.3125-2.375-10.375-2.375-9.9062 0-16.141 7.9062-6.2188 7.9219-6.2188 20.812t6.2188 20.797q6.2344 7.9062 16.141 7.9062 6.0625 0 10.375-2.375 4.3281-2.3594 7.1562-7.2344zm-30.609-19.094q0-9.9062 4.0781-15.547t11.203-5.6406 11.219 5.6406q4.1094 5.6406 4.1094 15.547t-4.1094 15.547q-4.0938 5.6406-11.219 5.6406t-11.203-5.6406-4.0781-15.547z"/>
<path id="r" d="m44.281 53.078v-8.5q-3.7969 1.9531-7.9062 2.9219-4.0938 0.98438-8.5 0.98438-6.6875 0-10.031-2.0469t-3.3438-6.1562q0-3.125 2.3906-4.9062t9.625-3.3906l3.0781-0.6875q9.5625-2.0469 13.594-5.7812t4.0312-10.422q0-7.625-6.0312-12.078-6.0312-4.4375-16.578-4.4375-4.3906 0-9.1562 0.85938t-10.031 2.5625v9.2812q4.9844-2.5938 9.8125-3.8906 4.8281-1.2812 9.5781-1.2812 6.3438 0 9.75 2.1719 3.4219 2.1719 3.4219 6.125 0 3.6562-2.4688 5.6094-2.4531 1.9531-10.812 3.7656l-3.125 0.73438q-8.3438 1.75-12.062 5.3906-3.7031 3.6406-3.7031 9.9844 0 7.7188 5.4688 11.906 5.4688 4.2031 15.531 4.2031 4.9688 0 9.3594-0.73438 4.4062-0.71875 8.1094-2.1875z"/>
</defs>
<g transform="translate(126.12 969.12) scale(.1 -.1)">
<use xlink:href="#v"/>
<use x="63.476562" xlink:href="#i"/>
<use x="124.755859" xlink:href="#r"/>
</g>
</g>
<g clip-path="url(#a)">
<defs>
<path id="at" d="m45.406 27.984q0 9.7656-4.0312 15.125-4.0156 5.375-11.297 5.375-7.2188 0-11.25-5.375-4.0312-5.3594-4.0312-15.125 0-9.7188 4.0312-15.094t11.25-5.375q7.2812 0 11.297 5.375 4.0312 5.375 4.0312 15.094zm8.9844-21.203q0-13.953-6.2031-20.766-6.1875-6.8125-18.984-6.8125-4.7344 0-8.9375 0.70312t-8.1562 2.1719v8.7344q3.9531-2.1406 7.8125-3.1562 3.8594-1.0312 7.8594-1.0312 8.8438 0 13.234 4.6094t4.3906 13.938v4.4531q-2.7812-4.8438-7.125-7.2344t-10.406-2.3906q-10.047 0-16.203 7.6562-6.1562 7.6719-6.1562 20.328 0 12.688 6.1562 20.344 6.1562 7.6719 16.203 7.6719 6.0625 0 10.406-2.3906t7.125-7.2188v8.2969h8.9844z"/>
</defs>
<g transform="translate(161.26 969.12) scale(.1 -.1)">
<use xlink:href="#at"/>
<use x="63.476562" xlink:href="#d"/>
<use x="125" xlink:href="#r"/>
<use x="177.099609" xlink:href="#u"/>
<use x="232.080078" xlink:href="#s"/>
<use x="295.458984" xlink:href="#i"/>
<use x="356.738281" xlink:href="#s"/>
</g>
</g>
<g clip-path="url(#a)">
<defs>
<path id="ao" d="m9.0781 75.984h9.0312v-44.875l26.812 23.578h11.469l-29-25.578 30.234-29.109h-11.719l-27.797 26.703v-26.703h-9.0312z"/>
</defs>
<g transform="translate(217.26 969.12) scale(.1 -.1)">
<use xlink:href="#v"/>
<use x="63.476562" xlink:href="#i"/>
<use x="124.755859" xlink:href="#f"/>
<use x="188.134766" xlink:href="#ao"/>
</g>
</g>
<g clip-path="url(#a)">
<g transform="translate(263.54 969.12) scale(.1 -.1)">
<use xlink:href="#d"/>
<use x="61.523438" xlink:href="#g"/>
<use x="89.306641" xlink:href="#f"/>
<use x="152.685547" xlink:href="#d"/>
<use x="214.208984" xlink:href="#r"/>
</g>
</g>
<g clip-path="url(#a)">
<defs>
<path id="z" d="m37.109 75.984v-7.4844h-8.5938q-4.8281 0-6.7188-1.9531-1.875-1.9531-1.875-7.0312v-4.8281h14.797v-6.9844h-14.797v-47.703h-9.0312v47.703h-8.5938v6.9844h8.5938v3.8125q0 9.125 4.25 13.297 4.25 4.1875 13.469 4.1875z"/>
</defs>
<g transform="translate(307.63 969.12) scale(.1 -.1)">
<use xlink:href="#w"/>
<use x="63.476562" xlink:href="#u"/>
<use x="118.457031" xlink:href="#s"/>
<use x="181.835938" xlink:href="#i"/>
<use x="243.115234" xlink:href="#z"/>
<use x="278.320312" xlink:href="#r"/>
</g>
</g>
<g clip-path="url(#a)">
<defs>
<path id="al" d="m11.719 12.406h10.297v-8.4062l-8-15.625h-6.2969l4 15.625z"/>
</defs>
<g transform="translate(369.86 969.12) scale(.1 -.1)">
<use xlink:href="#al"/>
</g>
</g>
<g clip-path="url(#a)">
<g transform="translate(406.16 969.12) scale(.1 -.1)">
<use xlink:href="#v"/>
<use x="63.476562" xlink:href="#d"/>
<use x="125" xlink:href="#f"/>
<use x="188.378906" xlink:href="#f"/>
</g>
</g>
<g clip-path="url(#a)">
<defs>
<path id="bd" d="m18.109 8.2031v-29h-9.0312v75.484h9.0312v-8.2969q2.8438 4.875 7.1562 7.2344 4.3281 2.375 10.328 2.375 9.9688 0 16.188-7.9062 6.2344-7.9062 6.2344-20.797t-6.2344-20.812q-6.2188-7.9062-16.188-7.9062-6 0-10.328 2.375-4.3125 2.375-7.1562 7.25zm30.578 19.094q0 9.9062-4.0781 15.547t-11.203 5.6406q-7.1406 0-11.219-5.6406t-4.0781-15.547 4.0781-15.547 11.219-5.6406q7.125 0 11.203 5.6406t4.0781 15.547z"/>
<path id="ba" d="m30.609 48.391q-7.2188 0-11.422-5.6406t-4.2031-15.453 4.1719-15.453q4.1875-5.6406 11.453-5.6406 7.1875 0 11.375 5.6562 4.2031 5.6719 4.2031 15.438 0 9.7188-4.2031 15.406-4.1875 5.6875-11.375 5.6875zm0 7.6094q11.719 0 18.406-7.625 6.7031-7.6094 6.7031-21.078 0-13.422-6.7031-21.078-6.6875-7.6406-18.406-7.6406-11.766 0-18.438 7.6406-6.6562 7.6562-6.6562 21.078 0 13.469 6.6562 21.078 6.6719 7.625 18.438 7.625zm4.6094 19.781h9.9062v-9.8594h-9.9062zm-19.094 0h9.9062v-9.8594h-9.9062z"/>
<path id="ah" d="m18.312 70.219v-15.531h18.5v-6.9844h-18.5v-29.688q0-6.6875 1.8281-8.5938t7.4531-1.9062h9.2188v-7.5156h-9.2188q-10.406 0-14.359 3.875-3.9531 3.8906-3.9531 14.141v29.688h-6.5938v6.9844h6.5938v15.531z"/>
<path id="ar" d="m5.5156 54.688h42.672v-8.2031l-33.781-39.312h33.781v-7.1719h-43.891v8.2031l33.797 39.312h-32.578z"/>
</defs>
<g transform="translate(445.14 969.12) scale(.1 -.1)">
<use xlink:href="#bd"/>
<use x="63.476562" xlink:href="#k"/>
<use x="91.259766" xlink:href="#ba"/>
<use x="152.441406" xlink:href="#ah"/>
<use x="191.650391" xlink:href="#ar"/>
<use x="244.140625" xlink:href="#k"/>
<use x="271.923828" xlink:href="#g"/>
<use x="299.707031" xlink:href="#u"/>
<use x="354.6875" xlink:href="#s"/>
</g>
</g>
<g clip-path="url(#a)">
<g transform="translate(498.25 969.12) scale(.1 -.1)">
<use xlink:href="#z"/>
<use x="35.205078" xlink:href="#h"/>
<use x="76.318359" xlink:href="#i"/>
<use x="137.597656" xlink:href="#at"/>
<use x="201.074219" xlink:href="#ah"/>
<use x="240.283203" xlink:href="#d"/>
</g>
</g>
<g clip-path="url(#a)">
<g transform="translate(548.46 969.12) scale(.1 -.1)">
<use xlink:href="#j"/>
<use x="97.412109" xlink:href="#g"/>
<use x="125.195312" xlink:href="#u"/>
<use x="180.175781" xlink:href="#s"/>
</g>
</g>
<g clip-path="url(#a)">
<g transform="translate(599.63 969.12) scale(.1 -.1)">
<use xlink:href="#v"/>
<use x="63.476562" xlink:href="#d"/>
<use x="125" xlink:href="#h"/>
</g>
</g>
<g clip-path="url(#a)">
<g transform="translate(640.24 969.12) scale(.1 -.1)">
<use xlink:href="#ao"/>
<use x="57.910156" xlink:href="#k"/>
<use x="85.693359" xlink:href="#d"/>
<use x="147.216797" xlink:href="#g"/>
<use x="175" xlink:href="#f"/>
<use x="238.378906" xlink:href="#d"/>
</g>
</g>
<g clip-path="url(#a)">
<g transform="translate(690.28 969.12) scale(.1 -.1)">
<use xlink:href="#x"/>
<use x="60.287109" xlink:href="#h"/>
<use x="101.400391" xlink:href="#g"/>
<use x="129.183594" xlink:href="#f"/>
<use x="192.5625" xlink:href="#ar"/>
</g>
</g>
<g clip-path="url(#a)">
<defs>
<path id="an" d="m4.2031 54.688h8.9844l11.234-42.672 11.172 42.672h10.594l11.234-42.672 11.188 42.672h8.9844l-14.312-54.688h-10.594l-11.766 44.828-11.812-44.828h-10.609z"/>
</defs>
<g transform="translate(741.27 969.12) scale(.1 -.1)">
<use xlink:href="#an"/>
<use x="81.787109" xlink:href="#g"/>
<use x="109.570312" xlink:href="#d"/>
</g>
</g>
<g clip-path="url(#a)">
<defs>
<path id="bc" d="m2.9844 54.688h9.5156l17.094-45.891 17.094 45.891h9.5156l-20.516-54.688h-12.203z"/>
<path id="ai" d="m30.609 48.391q-7.2188 0-11.422-5.6406t-4.2031-15.453 4.1719-15.453q4.1875-5.6406 11.453-5.6406 7.1875 0 11.375 5.6562 4.2031 5.6719 4.2031 15.438 0 9.7188-4.2031 15.406-4.1875 5.6875-11.375 5.6875zm0 7.6094q11.719 0 18.406-7.625 6.7031-7.6094 6.7031-21.078 0-13.422-6.7031-21.078-6.6875-7.6406-18.406-7.6406-11.766 0-18.438 7.6406-6.6562 7.6562-6.6562 21.078 0 13.469 6.6562 21.078 6.6719 7.625 18.438 7.625z"/>
</defs>
<g transform="translate(787.94 969.12) scale(.1 -.1)">
<use xlink:href="#bc"/>
<use x="59.179688" xlink:href="#ai"/>
<use x="120.361328" xlink:href="#f"/>
</g>
</g>
<g clip-path="url(#a)">
<g transform="translate(828.84 969.12) scale(.1 -.1)">
<use xlink:href="#d"/>
<use x="61.523438" xlink:href="#g"/>
<use x="89.306641" xlink:href="#f"/>
<use x="152.685547" xlink:href="#d"/>
<use x="214.208984" xlink:href="#j"/>
</g>
</g>
<g clip-path="url(#a)">
<g transform="translate(864.43 969.12) scale(.1 -.1)">
<use xlink:href="#r"/>
<use x="52.099609" xlink:href="#u"/>
<use x="107.080078" xlink:href="#s"/>
<use x="170.458984" xlink:href="#k"/>
<use x="198.242188" xlink:href="#g"/>
<use x="226.025391" xlink:href="#j"/>
<use x="323.4375" xlink:href="#j"/>
<use x="420.849609" xlink:href="#d"/>
<use x="482.373047" xlink:href="#f"/>
</g>
</g>
<g clip-path="url(#a)">
<defs>
<path id="av" d="m5.6094 72.906h57.281v-7.5312l-46.094-57.078h47.219v-8.2969h-59.516v7.5156l46.094 57.078h-44.984z"/>
</defs>
<g transform="translate(920.81 969.12) scale(.1 -.1)">
<use xlink:href="#av"/>
<use x="68.505859" xlink:href="#an"/>
<use x="150.292969" xlink:href="#d"/>
<use x="211.816406" xlink:href="#g"/>
<use x="239.599609" xlink:href="#z"/>
<use x="274.804688" xlink:href="#d"/>
<use x="336.328125" xlink:href="#k"/>
</g>
</g>
<g clip-path="url(#a)">
<defs>
<path id="az" d="m8.5 21.578v33.109h8.9844v-32.766q0-7.7656 3.0156-11.656 3.0312-3.875 9.0938-3.875 7.2656 0 11.484 4.6406 4.2344 4.6406 4.2344 12.656v31h8.9844v-54.688h-8.9844v8.4062q-3.2656-4.9844-7.5938-7.4062-4.3125-2.4219-10.031-2.4219-9.4219 0-14.312 5.8594-4.875 5.8594-4.875 17.141zm22.609 34.422m4.4844 19.781h9.9062v-9.8594h-9.9062zm-19.094 0h9.9062v-9.8594h-9.9062z"/>
<path id="au" d="m48.688 27.297q0 9.9062-4.0781 15.547t-11.203 5.6406q-7.1406 0-11.219-5.6406t-4.0781-15.547 4.0781-15.547 11.219-5.6406q7.125 0 11.203 5.6406t4.0781 15.547zm-30.578 19.094q2.8438 4.875 7.1562 7.2344 4.3281 2.375 10.328 2.375 9.9688 0 16.188-7.9062 6.2344-7.9062 6.2344-20.797t-6.2344-20.812q-6.2188-7.9062-16.188-7.9062-6 0-10.328 2.375-4.3125 2.375-7.1562 7.25v-8.2031h-9.0312v75.984h9.0312z"/>
</defs>
<g transform="translate(952.9 969.12) scale(.1 -.1)">
<use xlink:href="#az"/>
<use x="63.378906" xlink:href="#au"/>
<use x="126.855469" xlink:href="#d"/>
<use x="188.378906" xlink:href="#h"/>
<use x="229.492188" xlink:href="#ao"/>
<use x="287.355469" xlink:href="#ai"/>
<use x="348.537109" xlink:href="#j"/>
<use x="445.949219" xlink:href="#j"/>
<use x="543.361328" xlink:href="#d"/>
<use x="604.884766" xlink:href="#f"/>
</g>
</g>
<g clip-path="url(#a)">
<defs>
<path id="ay" d="m11.719 12.406h10.297v-12.406h-10.297zm0 39.297h10.297v-12.391h-10.297z"/>
</defs>
<g transform="translate(1031.9 969.12) scale(.1 -.1)">
<use xlink:href="#ay"/>
</g>
</g>
<g clip-path="url(#a)">
<defs>
<path id="aq" d="m4.8906 31.391h26.312v-8h-26.312z"/>
</defs>
<g transform="translate(1079.1 969.12) scale(.1 -.1)">
<use xlink:href="#aq"/>
</g>
</g>
<g clip-path="url(#a)">
<defs>
<path id="am" d="m17.922 72.906v-27.109h-8.2969v27.109zm18.453 0v-27.109h-8.2969v27.109z"/>
</defs>
<g transform="translate(1125.9 969.12) scale(.1 -.1)">
<use xlink:href="#am"/>
</g>
</g>
<g clip-path="url(#a)">
<g transform="translate(1169.7 969.12) scale(.1 -.1)">
<use xlink:href="#ad"/>
<use x="63.183594" xlink:href="#r"/>
</g>
</g>
<g clip-path="url(#a)">
<g transform="translate(1216.8 969.12) scale(.1 -.1)">
<use xlink:href="#g"/>
<use x="27.783203" xlink:href="#r"/>
<use x="79.882812" xlink:href="#ah"/>
</g>
</g>
<g clip-path="url(#a)">
<g transform="translate(1257.9 969.12) scale(.1 -.1)">
<use xlink:href="#v"/>
<use x="63.476562" xlink:href="#ai"/>
<use x="124.658203" xlink:href="#u"/>
<use x="179.638672" xlink:href="#s"/>
</g>
</g>
<g clip-path="url(#a)">
<g transform="translate(1305 969.12) scale(.1 -.1)">
<use xlink:href="#an"/>
<use x="81.787109" xlink:href="#i"/>
<use x="143.066406" xlink:href="#s"/>
<use x="206.445312" xlink:href="#h"/>
</g>
</g>
<g clip-path="url(#a)">
<g transform="translate(1363.1 969.12) scale(.1 -.1)">
<use xlink:href="#al"/>
</g>
</g>
<g clip-path="url(#a)">
<g transform="translate(1400.5 969.12) scale(.1 -.1)">
<use xlink:href="#v"/>
<use x="63.476562" xlink:href="#i"/>
<use x="124.755859" xlink:href="#r"/>
<use x="176.855469" xlink:href="#r"/>
</g>
</g>
<g clip-path="url(#a)">
<g transform="translate(1442.3 969.12) scale(.1 -.1)">
<use xlink:href="#w"/>
<use x="63.476562" xlink:href="#u"/>
<use x="118.457031" xlink:href="#s"/>
<use x="181.835938" xlink:href="#i"/>
<use x="243.115234" xlink:href="#z"/>
<use x="278.320312" xlink:href="#d"/>
</g>
</g>
<g clip-path="url(#a)">
<defs>
<path id="bb" d="m34.281 27.484q-10.891 0-15.094-2.4844t-4.2031-8.5q0-4.7812 3.1562-7.5938 3.1562-2.7969 8.5625-2.7969 7.4844 0 12 5.2969t4.5156 14.078v2zm17.922 3.7188v-31.203h-8.9844v8.2969q-3.0781-4.9688-7.6719-7.3438t-11.234-2.375q-8.3906 0-13.359 4.7188-4.9531 4.7188-4.9531 12.625 0 9.2188 6.1719 13.906 6.1875 4.6875 18.438 4.6875h12.609v0.89062q0 6.2031-4.0781 9.5938t-11.453 3.3906q-4.6875 0-9.1406-1.125-4.4375-1.125-8.5312-3.375v8.3125q4.9219 1.9062 9.5625 2.8438 4.6406 0.95312 9.0312 0.95312 11.875 0 17.734-6.1562 5.8594-6.1406 5.8594-18.641zm-18.609 44.578h9.9062v-9.8594h-9.9062zm-19.094 0h9.9062v-9.8594h-9.9062z"/>
</defs>
<g transform="translate(1482.1 969.12) scale(.1 -.1)">
<use xlink:href="#w"/>
<use x="63.476562" xlink:href="#ah"/>
<use x="102.685547" xlink:href="#h"/>
<use x="143.798828" xlink:href="#bb"/>
<use x="205.078125" xlink:href="#as"/>
<use x="268.457031" xlink:href="#u"/>
<use x="323.4375" xlink:href="#s"/>
<use x="386.816406" xlink:href="#d"/>
<use x="448.339844" xlink:href="#h"/>
</g>
</g>
<g clip-path="url(#a)">
<g transform="translate(1535.5 969.12) scale(.1 -.1)">
<use xlink:href="#z"/>
<use x="35.205078" xlink:href="#h"/>
<use x="76.287109" xlink:href="#d"/>
<use x="137.810547" xlink:href="#r"/>
<use x="189.910156" xlink:href="#r"/>
<use x="242.009766" xlink:href="#d"/>
<use x="303.533203" xlink:href="#f"/>
</g>
</g>
<g clip-path="url(#a)">
<g transform="translate(1599.6 969.12) scale(.1 -.1)">
<use xlink:href="#al"/>
</g>
</g>
<g clip-path="url(#a)">
<g transform="translate(1637.1 969.12) scale(.1 -.1)">
<use xlink:href="#ai"/>
<use x="61.181641" xlink:href="#v"/>
<use x="124.658203" xlink:href="#d"/>
<use x="186.181641" xlink:href="#h"/>
</g>
</g>
<g clip-path="url(#a)">
<defs>
<path id="ax" d="m19.094 12.406h9.9062v-12.406h-9.9062zm9.625 7.1719h-9.3281v7.5156q0 4.9375 1.3594 8.1094 1.375 3.1719 5.7656 7.375l4.3906 4.3438q2.7812 2.5938 4.0312 4.8906t1.25 4.6875q0 4.3438-3.2031 7.0312t-8.4688 2.6875q-3.8594 0-8.2344-1.7188-4.3594-1.7031-9.1094-4.9844v9.1875q4.5938 2.7812 9.2969 4.1406 4.7188 1.375 9.75 1.375 8.9844 0 14.422-4.7344 5.4531-4.7344 5.4531-12.5 0-3.7188-1.7656-7.0625-1.75-3.3438-6.1406-7.5312l-4.2969-4.2031q-2.2969-2.2969-3.25-3.5938t-1.3438-2.5156q-0.29688-1.0156-0.4375-2.4844t-0.14062-4z"/>
</defs>
<g transform="translate(1693.1 969.12) scale(.1 -.1)">
<use xlink:href="#ax"/>
</g>
</g>
<g clip-path="url(#a)">
<g transform="translate(1740.8 969.12) scale(.1 -.1)">
<use xlink:href="#am"/>
</g>
</g>
<g clip-path="url(#a)">
<g transform="translate(1788.6 969.12) scale(.1 -.1)">
<use xlink:href="#aq"/>
</g>
</g>
<g clip-path="url(#a)">
<g transform="translate(1835.4 969.12) scale(.1 -.1)">
<use xlink:href="#am"/>
</g>
</g>
<g clip-path="url(#a)">
<defs>
<path id="c" d="m12.406 8.2969h16.109v55.625l-17.531-3.5156v8.9844l17.438 3.5156h9.8594v-64.609h16.109v-8.2969h-41.984z"/>
<path id="e" d="m10.688 12.406h10.312v-12.406h-10.312z"/>
</defs>
<g transform="translate(384.97 49.734) scale(.1 -.1)">
<use xlink:href="#c"/>
<use x="63.623047" xlink:href="#e"/>
<use x="95.410156" xlink:href="#c"/>
</g>
</g>
<g clip-path="url(#a)">
<defs>
<path id="p" d="m19.188 8.2969h34.422v-8.2969h-46.281v8.2969q5.6094 5.8125 15.297 15.594 9.7031 9.7969 12.188 12.641 4.7344 5.3125 6.6094 9 1.8906 3.6875 1.8906 7.25 0 5.8125-4.0781 9.4688-4.0781 3.6719-10.625 3.6719-4.6406 0-9.7969-1.6094-5.1406-1.6094-11-4.8906v9.9688q5.9531 2.3906 11.125 3.6094 5.1875 1.2188 9.4844 1.2188 11.328 0 18.062-5.6719 6.7344-5.6562 6.7344-15.125 0-4.5-1.6875-8.5312-1.6719-4.0156-6.125-9.4844-1.2188-1.4219-7.7656-8.1875-6.5312-6.7656-18.453-18.922z"/>
</defs>
<g transform="translate(79.717 820.55) scale(.1 -.1)">
<use xlink:href="#c"/>
<use x="63.623047" xlink:href="#e"/>
<use x="95.410156" xlink:href="#p"/>
</g>
</g>
<g clip-path="url(#a)">
<defs>
<path id="o" d="m40.578 39.312q7.0781-1.5156 11.047-6.3125 3.9844-4.7812 3.9844-11.812 0-10.781-7.4219-16.703-7.4219-5.9062-21.094-5.9062-4.5781 0-9.4375 0.90625t-10.031 2.7188v9.5156q4.0938-2.3906 8.9688-3.6094 4.8906-1.2188 10.219-1.2188 9.2656 0 14.125 3.6562t4.8594 10.641q0 6.4531-4.5156 10.078-4.5156 3.6406-12.562 3.6406h-8.5v8.1094h8.8906q7.2656 0 11.125 2.9062t3.8594 8.375q0 5.6094-3.9844 8.6094-3.9688 3.0156-11.391 3.0156-4.0625 0-8.7031-0.89062-4.6406-0.875-10.203-2.7188v8.7812q5.625 1.5625 10.531 2.3438t9.25 0.78125q11.234 0 17.766-5.1094 6.5469-5.0938 6.5469-13.781 0-6.0625-3.4688-10.234t-9.8594-5.7812z"/>
</defs>
<g transform="translate(186.14 367.8) scale(.1 -.1)">
<use xlink:href="#c"/>
<use x="63.623047" xlink:href="#e"/>
<use x="95.410156" xlink:href="#o"/>
</g>
</g>
<g clip-path="url(#a)">
<defs>
<path id="n" d="m37.797 64.312-24.906-38.922h24.906zm-2.5938 8.5938h12.406v-47.516h10.406v-8.2031h-10.406v-17.188h-9.8125v17.188h-32.906v9.5156z"/>
</defs>
<g transform="translate(410.8 820.55) scale(.1 -.1)">
<use xlink:href="#c"/>
<use x="63.623047" xlink:href="#e"/>
<use x="95.410156" xlink:href="#n"/>
</g>
</g>
<g clip-path="url(#a)">
<defs>
<path id="m" d="m10.797 72.906h38.719v-8.3125h-29.688v-17.859q2.1406 0.73438 4.2812 1.0938 2.1562 0.35938 4.3125 0.35938 12.203 0 19.328-6.6875 7.1406-6.6875 7.1406-18.109 0-11.766-7.3281-18.297-7.3281-6.5156-20.656-6.5156-4.5938 0-9.3594 0.78125-4.75 0.78125-9.8281 2.3438v9.9219q4.3906-2.3906 9.0781-3.5625t9.9062-1.1719q8.4531 0 13.375 4.4375 4.9375 4.4375 4.9375 12.062 0 7.6094-4.9375 12.047-4.9219 4.4531-13.375 4.4531-3.9531 0-7.8906-0.875-3.9219-0.875-8.0156-2.7344z"/>
</defs>
<g transform="translate(884.69 210.77) scale(.1 -.1)">
<use xlink:href="#c"/>
<use x="63.623047" xlink:href="#e"/>
<use x="95.410156" xlink:href="#m"/>
</g>
</g>
<g clip-path="url(#a)">
<g transform="translate(454.91 820.55) scale(.1 -.1)">
<use xlink:href="#c"/>
<use x="63.623047" xlink:href="#e"/>
<use x="95.410156" xlink:href="#c"/>
<use x="159.033203" xlink:href="#c"/>
</g>
</g>
<g clip-path="url(#a)">
<g transform="translate(502.21 820.55) scale(.1 -.1)">
<use xlink:href="#c"/>
<use x="63.623047" xlink:href="#e"/>
<use x="95.410156" xlink:href="#c"/>
<use x="159.033203" xlink:href="#p"/>
</g>
</g>
<g clip-path="url(#a)">
<g transform="translate(549.51 820.55) scale(.1 -.1)">
<use xlink:href="#c"/>
<use x="63.623047" xlink:href="#e"/>
<use x="95.410156" xlink:href="#c"/>
<use x="159.033203" xlink:href="#o"/>
</g>
</g>
<g clip-path="url(#a)">
<g transform="translate(686.97 367.8) scale(.1 -.1)">
<use xlink:href="#c"/>
<use x="63.623047" xlink:href="#e"/>
<use x="95.410156" xlink:href="#c"/>
<use x="159.033203" xlink:href="#n"/>
</g>
</g>
<g clip-path="url(#a)">
<g transform="translate(1649.2 367.8) scale(.1 -.1)">
<use xlink:href="#c"/>
<use x="63.623047" xlink:href="#e"/>
<use x="95.410156" xlink:href="#c"/>
<use x="159.033203" xlink:href="#m"/>
</g>
</g>
<g clip-path="url(#a)">
<defs>
<path id="y" d="m10.984 1.5156v8.9844q3.7188-1.7656 7.5156-2.6875 3.8125-0.92188 7.4844-0.92188 9.7656 0 14.906 6.5625 5.1562 6.5625 5.8906 19.953-2.8281-4.2031-7.1875-6.4531-4.3438-2.25-9.6094-2.25-10.938 0-17.312 6.6094-6.375 6.625-6.375 18.109 0 11.219 6.6406 18 6.6406 6.7969 17.672 6.7969 12.656 0 19.312-9.7031 6.6719-9.6875 6.6719-28.141 0-17.234-8.1875-27.516-8.1719-10.281-21.984-10.281-3.7188 0-7.5312 0.73438-3.7969 0.73438-7.9062 2.2031zm19.625 30.906q6.6406 0 10.516 4.5312 3.8906 4.5469 3.8906 12.469 0 7.8594-3.8906 12.422-3.875 4.5625-10.516 4.5625t-10.516-4.5625-3.875-12.422q0-7.9219 3.875-12.469 3.875-4.5312 10.516-4.5312z"/>
</defs>
<g transform="translate(1294.4 521.34) scale(.1 -.1)">
<use xlink:href="#c"/>
<use x="63.623047" xlink:href="#e"/>
<use x="95.410156" xlink:href="#c"/>
<use x="159.033203" xlink:href="#y"/>
</g>
</g>
<g clip-path="url(#a)">
<defs>
<path id="ag" d="m31.781 66.406q-7.6094 0-11.453-7.5-3.8281-7.4844-3.8281-22.531 0-14.984 3.8281-22.484 3.8438-7.5 11.453-7.5 7.6719 0 11.5 7.5 3.8438 7.5 3.8438 22.484 0 15.047-3.8438 22.531-3.8281 7.5-11.5 7.5zm0 7.8125q12.266 0 18.734-9.7031 6.4688-9.6875 6.4688-28.141 0-18.406-6.4688-28.109-6.4688-9.6875-18.734-9.6875-12.25 0-18.719 9.6875-6.4688 9.7031-6.4688 28.109 0 18.453 6.4688 28.141 6.4688 9.7031 18.719 9.7031z"/>
</defs>
<g transform="translate(1637.3 820.55) scale(.1 -.1)">
<use xlink:href="#c"/>
<use x="63.623047" xlink:href="#e"/>
<use x="95.410156" xlink:href="#p"/>
<use x="159.033203" xlink:href="#ag"/>
</g>
</g>
<g clip-path="url(#a)">
<g transform="translate(1164.4 820.55) scale(.1 -.1)">
<use xlink:href="#c"/>
<use x="63.623047" xlink:href="#e"/>
<use x="95.410156" xlink:href="#p"/>
<use x="159.033203" xlink:href="#p"/>
</g>
</g>
<g clip-path="url(#a)">
<g transform="translate(1211.7 820.55) scale(.1 -.1)">
<use xlink:href="#c"/>
<use x="63.623047" xlink:href="#e"/>
<use x="95.410156" xlink:href="#p"/>
<use x="159.033203" xlink:href="#o"/>
</g>
</g>
<g clip-path="url(#a)">
<g transform="translate(1259 820.55) scale(.1 -.1)">
<use xlink:href="#c"/>
<use x="63.623047" xlink:href="#e"/>
<use x="95.410156" xlink:href="#p"/>
<use x="159.033203" xlink:href="#n"/>
</g>
</g>
<g clip-path="url(#a)">
<g transform="translate(1306.3 820.55) scale(.1 -.1)">
<use xlink:href="#c"/>
<use x="63.623047" xlink:href="#e"/>
<use x="95.410156" xlink:href="#p"/>
<use x="159.033203" xlink:href="#m"/>
</g>
</g>
<g clip-path="url(#a)">
<defs>
<path id="af" d="m33.016 40.375q-6.6406 0-10.531-4.5469-3.875-4.5312-3.875-12.438 0-7.8594 3.875-12.438 3.8906-4.5625 10.531-4.5625t10.516 4.5625q3.875 4.5781 3.875 12.438 0 7.9062-3.875 12.438-3.875 4.5469-10.516 4.5469zm19.578 30.922v-8.9844q-3.7188 1.75-7.5 2.6719-3.7812 0.9375-7.5 0.9375-9.7656 0-14.922-6.5938-5.1406-6.5938-5.875-19.922 2.875 4.25 7.2188 6.5156 4.3594 2.2656 9.5781 2.2656 10.984 0 17.359-6.6719 6.375-6.6562 6.375-18.125 0-11.234-6.6406-18.031-6.6406-6.7812-17.672-6.7812-12.656 0-19.344 9.6875-6.6875 9.7031-6.6875 28.109 0 17.281 8.2031 27.562t22.016 10.281q3.7188 0 7.5-0.73438t7.8906-2.1875z"/>
</defs>
<g transform="translate(1471.8 671.98) scale(.1 -.1)">
<use xlink:href="#c"/>
<use x="63.623047" xlink:href="#e"/>
<use x="95.410156" xlink:href="#p"/>
<use x="159.033203" xlink:href="#af"/>
</g>
</g>
<g clip-path="url(#a)">
<defs>
<path id="ae" d="m31.781 34.625q-7.0312 0-11.062-3.7656-4.0156-3.7656-4.0156-10.344 0-6.5938 4.0156-10.359 4.0312-3.7656 11.062-3.7656t11.078 3.7812q4.0625 3.7969 4.0625 10.344 0 6.5781-4.0312 10.344-4.0156 3.7656-11.109 3.7656zm-9.8594 4.1875q-6.3438 1.5625-9.8906 5.9062-3.5312 4.3594-3.5312 10.609 0 8.7344 6.2188 13.812 6.2344 5.0781 17.062 5.0781 10.891 0 17.094-5.0781t6.2031-13.812q0-6.25-3.5469-10.609-3.5312-4.3438-9.8281-5.9062 7.125-1.6562 11.094-6.5 3.9844-4.8281 3.9844-11.797 0-10.609-6.4688-16.281-6.4688-5.6562-18.531-5.6562-12.047 0-18.531 5.6562-6.4688 5.6719-6.4688 16.281 0 6.9688 4 11.797 4.0156 4.8438 11.141 6.5zm-3.6094 15.578q0-5.6562 3.5312-8.8281 3.5469-3.1719 9.9375-3.1719 6.3594 0 9.9375 3.1719 3.5938 3.1719 3.5938 8.8281 0 5.6719-3.5938 8.8438-3.5781 3.1719-9.9375 3.1719-6.3906 0-9.9375-3.1719-3.5312-3.1719-3.5312-8.8438z"/>
</defs>
<g transform="translate(1400.9 820.55) scale(.1 -.1)">
<use xlink:href="#c"/>
<use x="63.623047" xlink:href="#e"/>
<use x="95.410156" xlink:href="#p"/>
<use x="159.033203" xlink:href="#ae"/>
</g>
</g>
<g clip-path="url(#a)">
<g transform="translate(1448.2 820.55) scale(.1 -.1)">
<use xlink:href="#c"/>
<use x="63.623047" xlink:href="#e"/>
<use x="95.410156" xlink:href="#p"/>
<use x="159.033203" xlink:href="#y"/>
</g>
</g>
<g clip-path="url(#a)">
<g transform="translate(1495.5 820.55) scale(.1 -.1)">
<use xlink:href="#c"/>
<use x="63.623047" xlink:href="#e"/>
<use x="95.410156" xlink:href="#o"/>
<use x="159.033203" xlink:href="#ag"/>
</g>
</g>
<g clip-path="url(#a)">
<g transform="translate(1542.7 820.55) scale(.1 -.1)">
<use xlink:href="#c"/>
<use x="63.623047" xlink:href="#e"/>
<use x="95.410156" xlink:href="#o"/>
<use x="159.033203" xlink:href="#c"/>
</g>
</g>
<g clip-path="url(#a)">
<g transform="translate(596.8 820.55) scale(.1 -.1)">
<use xlink:href="#c"/>
<use x="63.623047" xlink:href="#e"/>
<use x="95.410156" xlink:href="#o"/>
<use x="159.033203" xlink:href="#p"/>
</g>
</g>
<g clip-path="url(#a)">
<g transform="translate(644.1 820.55) scale(.1 -.1)">
<use xlink:href="#c"/>
<use x="63.623047" xlink:href="#e"/>
<use x="95.410156" xlink:href="#o"/>
<use x="159.033203" xlink:href="#o"/>
</g>
</g>
<g clip-path="url(#a)">
<g transform="translate(691.4 820.55) scale(.1 -.1)">
<use xlink:href="#c"/>
<use x="63.623047" xlink:href="#e"/>
<use x="95.410156" xlink:href="#o"/>
<use x="159.033203" xlink:href="#n"/>
</g>
</g>
<g clip-path="url(#a)">
<g transform="translate(815.55 521.34) scale(.1 -.1)">
<use xlink:href="#c"/>
<use x="63.623047" xlink:href="#e"/>
<use x="95.410156" xlink:href="#o"/>
<use x="159.033203" xlink:href="#m"/>
</g>
</g>
<g clip-path="url(#a)">
<g transform="translate(738.7 820.55) scale(.1 -.1)">
<use xlink:href="#c"/>
<use x="63.623047" xlink:href="#e"/>
<use x="95.410156" xlink:href="#o"/>
<use x="159.033203" xlink:href="#af"/>
</g>
</g>
<g clip-path="url(#a)">
<defs>
<path id="ak" d="m8.2031 72.906h46.875v-4.2031l-26.469-68.703h-10.297l24.906 64.594h-35.016z"/>
</defs>
<g transform="translate(856.94 671.98) scale(.1 -.1)">
<use xlink:href="#c"/>
<use x="63.623047" xlink:href="#e"/>
<use x="95.410156" xlink:href="#o"/>
<use x="159.033203" xlink:href="#ak"/>
</g>
</g>
<g clip-path="url(#a)">
<g transform="translate(975.18 820.55) scale(.1 -.1)">
<use xlink:href="#c"/>
<use x="63.623047" xlink:href="#e"/>
<use x="95.410156" xlink:href="#o"/>
<use x="159.033203" xlink:href="#ae"/>
</g>
</g>
<g clip-path="url(#a)">
<g transform="translate(785.99 820.55) scale(.1 -.1)">
<use xlink:href="#c"/>
<use x="63.623047" xlink:href="#e"/>
<use x="95.410156" xlink:href="#o"/>
<use x="159.033203" xlink:href="#y"/>
</g>
</g>
<g clip-path="url(#a)">
<g transform="translate(833.29 820.55) scale(.1 -.1)">
<use xlink:href="#c"/>
<use x="63.623047" xlink:href="#e"/>
<use x="95.410156" xlink:href="#n"/>
<use x="159.033203" xlink:href="#ag"/>
</g>
</g>
<g clip-path="url(#a)">
<g transform="translate(880.59 820.55) scale(.1 -.1)">
<use xlink:href="#c"/>
<use x="63.623047" xlink:href="#e"/>
<use x="95.410156" xlink:href="#n"/>
<use x="159.033203" xlink:href="#c"/>
</g>
</g>
<g clip-path="url(#a)">
<g transform="translate(927.89 820.55) scale(.1 -.1)">
<use xlink:href="#c"/>
<use x="63.623047" xlink:href="#e"/>
<use x="95.410156" xlink:href="#n"/>
<use x="159.033203" xlink:href="#p"/>
</g>
</g>
<g clip-path="url(#a)">
<g transform="translate(123.83 820.55) scale(.1 -.1)">
<use xlink:href="#c"/>
<use x="63.623047" xlink:href="#e"/>
<use x="95.410156" xlink:href="#n"/>
<use x="159.033203" xlink:href="#o"/>
</g>
</g>
<g clip-path="url(#a)">
<g transform="translate(171.13 820.55) scale(.1 -.1)">
<use xlink:href="#c"/>
<use x="63.623047" xlink:href="#e"/>
<use x="95.410156" xlink:href="#n"/>
<use x="159.033203" xlink:href="#n"/>
</g>
</g>
<g clip-path="url(#a)">
<g transform="translate(253.9 521.34) scale(.1 -.1)">
<use xlink:href="#c"/>
<use x="63.623047" xlink:href="#e"/>
<use x="95.410156" xlink:href="#n"/>
<use x="159.033203" xlink:href="#m"/>
</g>
</g>
<g clip-path="url(#a)">
<g transform="translate(218.43 820.55) scale(.1 -.1)">
<use xlink:href="#c"/>
<use x="63.623047" xlink:href="#e"/>
<use x="95.410156" xlink:href="#n"/>
<use x="159.033203" xlink:href="#af"/>
</g>
</g>
<g clip-path="url(#a)">
<g transform="translate(289.37 671.98) scale(.1 -.1)">
<use xlink:href="#c"/>
<use x="63.623047" xlink:href="#e"/>
<use x="95.410156" xlink:href="#n"/>
<use x="159.033203" xlink:href="#ak"/>
</g>
</g>
<g clip-path="url(#a)">
<g transform="translate(265.72 820.55) scale(.1 -.1)">
<use xlink:href="#c"/>
<use x="63.623047" xlink:href="#e"/>
<use x="95.410156" xlink:href="#n"/>
<use x="159.033203" xlink:href="#ae"/>
</g>
</g>
<g clip-path="url(#a)">
<g transform="translate(313.02 820.55) scale(.1 -.1)">
<use xlink:href="#c"/>
<use x="63.623047" xlink:href="#e"/>
<use x="95.410156" xlink:href="#n"/>
<use x="159.033203" xlink:href="#y"/>
</g>
</g>
<g clip-path="url(#a)">
<g transform="translate(360.32 820.55) scale(.1 -.1)">
<use xlink:href="#c"/>
<use x="63.623047" xlink:href="#e"/>
<use x="95.410156" xlink:href="#m"/>
<use x="159.033203" xlink:href="#ag"/>
</g>
</g>
<g clip-path="url(#a)">
<g transform="translate(1022.5 820.55) scale(.1 -.1)">
<use xlink:href="#c"/>
<use x="63.623047" xlink:href="#e"/>
<use x="95.410156" xlink:href="#m"/>
<use x="159.033203" xlink:href="#c"/>
</g>
</g>
<g clip-path="url(#a)">
<g transform="translate(1069.8 820.55) scale(.1 -.1)">
<use xlink:href="#c"/>
<use x="63.623047" xlink:href="#e"/>
<use x="95.410156" xlink:href="#m"/>
<use x="159.033203" xlink:href="#p"/>
</g>
</g>
<g clip-path="url(#a)">
<g transform="translate(1117.1 820.55) scale(.1 -.1)">
<use xlink:href="#c"/>
<use x="63.623047" xlink:href="#e"/>
<use x="95.410156" xlink:href="#m"/>
<use x="159.033203" xlink:href="#o"/>
</g>
</g>
<g clip-path="url(#a)">
<g transform="translate(1353.6 820.55) scale(.1 -.1)">
<use xlink:href="#c"/>
<use x="63.623047" xlink:href="#e"/>
<use x="95.410156" xlink:href="#m"/>
<use x="159.033203" xlink:href="#n"/>
</g>
</g>
<g clip-path="url(#a)">
<g transform="translate(1590 820.55) scale(.1 -.1)">
<use xlink:href="#c"/>
<use x="63.623047" xlink:href="#e"/>
<use x="95.410156" xlink:href="#m"/>
<use x="159.033203" xlink:href="#m"/>
</g>
</g>
<g clip-path="url(#a)">
<g transform="translate(1684.6 820.55) scale(.1 -.1)">
<use xlink:href="#c"/>
<use x="63.623047" xlink:href="#e"/>
<use x="95.410156" xlink:href="#m"/>
<use x="159.033203" xlink:href="#af"/>
</g>
</g>
<g clip-path="url(#a)">
<g transform="translate(1731.9 820.55) scale(.1 -.1)">
<use xlink:href="#c"/>
<use x="63.623047" xlink:href="#e"/>
<use x="95.410156" xlink:href="#m"/>
<use x="159.033203" xlink:href="#ak"/>
</g>
</g>
<g clip-path="url(#a)">
<g transform="translate(1779.2 820.55) scale(.1 -.1)">
<use xlink:href="#c"/>
<use x="63.623047" xlink:href="#e"/>
<use x="95.410156" xlink:href="#m"/>
<use x="159.033203" xlink:href="#ae"/>
</g>
</g>
<g clip-path="url(#a)">
<g transform="translate(1826.5 820.55) scale(.1 -.1)">
<use xlink:href="#c"/>
<use x="63.623047" xlink:href="#e"/>
<use x="95.410156" xlink:href="#m"/>
<use x="159.033203" xlink:href="#y"/>
</g>
</g>
<defs>
<clipPath id="a">
<rect width="1925.3" height="1013.3"/>
</clipPath>
</defs>
</svg>
