<?xml version="1.0" encoding="UTF-8"?>
<!DOCTYPE svg  PUBLIC '-//W3C//DTD SVG 1.1//EN'  'http://www.w3.org/Graphics/SVG/1.1/DTD/svg11.dtd'>
<svg width="1520pt" height="800pt" version="1.1" viewBox="0 0 1520 800" xmlns="http://www.w3.org/2000/svg" xmlns:xlink="http://www.w3.org/1999/xlink">
<defs>
<style type="text/css">*{stroke-linecap:butt;stroke-linejoin:round;}</style>
</defs>
<path d="m0 800h1520v-800h-1520z" fill="#fff"/>
<g fill="none" stroke="#000">
<path d="m616.37 37.277-393.34 127.06" clip-path="url(#a)"/>
<path d="m616.37 37.277 97.584 608.22" clip-path="url(#a)"/>
<path d="m616.37 37.277 295.75 250.97" clip-path="url(#a)"/>
<path d="m223.03 164.34-153.75 481.15" clip-path="url(#a)"/>
<path d="m223.03 164.34-107.7 481.15" clip-path="url(#a)"/>
<path d="m223.03 164.34-61.653 481.15" clip-path="url(#a)"/>
<path d="m223.03 164.34-15.605 481.15" clip-path="url(#a)"/>
<path d="m223.03 164.34 308.27 123.91" clip-path="url(#a)"/>
<path d="m223.03 164.34 30.443 481.15" clip-path="url(#a)"/>
<path d="m713.95 645.49v117.23" clip-path="url(#a)"/>
<path d="m912.12 288.25-152.12 357.24" clip-path="url(#a)"/>
<path d="m912.12 288.25-106.07 357.24" clip-path="url(#a)"/>
<path d="m912.12 288.25-60.027 357.24" clip-path="url(#a)"/>
<path d="m912.12 288.25 222.02 121.15" clip-path="url(#a)"/>
<path d="m912.12 288.25-13.979 357.24" clip-path="url(#a)"/>
<path d="m912.12 288.25 32.069 357.24" clip-path="url(#a)"/>
<path d="m912.12 288.25 78.117 357.24" clip-path="url(#a)"/>
<path d="m760 645.49v117.23" clip-path="url(#a)"/>
<path d="m806.05 645.49v117.23" clip-path="url(#a)"/>
<path d="m852.1 645.49v117.23" clip-path="url(#a)"/>
<path d="m1134.1 409.4-97.852 236.09" clip-path="url(#a)"/>
<path d="m1134.1 409.4-51.804 236.09" clip-path="url(#a)"/>
<path d="m1134.1 409.4-5.756 236.09" clip-path="url(#a)"/>
<path d="m1134.1 409.4 155.41 118.86" clip-path="url(#a)"/>
<path d="m1036.3 645.49v117.23" clip-path="url(#a)"/>
<path d="m1082.3 645.49v117.23" clip-path="url(#a)"/>
<path d="m1128.4 645.49v117.23" clip-path="url(#a)"/>
<path d="m1289.6 528.26-115.12 117.23" clip-path="url(#a)"/>
<path d="m1289.6 528.26-69.072 117.23" clip-path="url(#a)"/>
<path d="m1289.6 528.26-23.024 117.23" clip-path="url(#a)"/>
<path d="m1289.6 528.26 23.024 117.23" clip-path="url(#a)"/>
<path d="m1289.6 528.26 69.072 117.23" clip-path="url(#a)"/>
<path d="m1289.6 528.26 115.12 117.23" clip-path="url(#a)"/>
<path d="m1174.4 645.49v117.23" clip-path="url(#a)"/>
<path d="m1220.5 645.49v117.23" clip-path="url(#a)"/>
<path d="m1266.5 645.49v117.23" clip-path="url(#a)"/>
<path d="m1312.6 645.49v117.23" clip-path="url(#a)"/>
<path d="m69.28 645.49v117.23" clip-path="url(#a)"/>
<path d="m115.33 645.49v117.23" clip-path="url(#a)"/>
<path d="m161.38 645.49v117.23" clip-path="url(#a)"/>
<path d="m207.42 645.49v117.23" clip-path="url(#a)"/>
<path d="m531.29 288.25-231.77 357.24" clip-path="url(#a)"/>
<path d="m531.29 288.25-185.73 357.24" clip-path="url(#a)"/>
<path d="m531.29 288.25 236.38 121.15" clip-path="url(#a)"/>
<path d="m531.29 288.25 44.513 357.24" clip-path="url(#a)"/>
<path d="m531.29 288.25 136.61 357.24" clip-path="url(#a)"/>
<path d="m299.52 645.49v117.23" clip-path="url(#a)"/>
<path d="m345.57 645.49v117.23" clip-path="url(#a)"/>
<path d="m767.67 409.4 683.05 353.32" clip-path="url(#a)"/>
<path d="m767.67 409.4-376.06 236.09" clip-path="url(#a)"/>
<path d="m767.67 409.4-306.99 118.86" clip-path="url(#a)"/>
<path d="m575.81 645.49-46.048 117.23" clip-path="url(#a)"/>
<path d="m575.81 645.49v117.23" clip-path="url(#a)"/>
<path d="m575.81 645.49 46.048 117.23" clip-path="url(#a)"/>
<path d="m667.9 645.49v117.23" clip-path="url(#a)"/>
<path d="m391.62 645.49v117.23" clip-path="url(#a)"/>
<path d="m460.69 528.26-23.024 117.23" clip-path="url(#a)"/>
<path d="m460.69 528.26 23.024 117.23" clip-path="url(#a)"/>
<path d="m437.66 645.49v117.23" clip-path="url(#a)"/>
<path d="m483.71 645.49v117.23" clip-path="url(#a)"/>
<path d="m253.47 645.49v117.23" clip-path="url(#a)"/>
<path d="m898.14 645.49v117.23" clip-path="url(#a)"/>
<path d="m944.19 645.49v117.23" clip-path="url(#a)"/>
<path d="m990.24 645.49v117.23" clip-path="url(#a)"/>
<path d="m1358.6 645.49v117.23" clip-path="url(#a)"/>
<path d="m1404.7 645.49v117.23" clip-path="url(#a)"/>
</g>
<path d="m418.76 107.7 5.7249-1.8494q2.2838-0.73776 1.546-3.0216l-2.38-7.3676q-0.73776-2.2838-3.0216-1.546l-5.7249 1.8494q-2.2838 0.73776-1.546 3.0216l2.38 7.3676q0.73776 2.2838 3.0216 1.546z" clip-path="url(#a)" fill="#fff" stroke="#fff"/>
<g clip-path="url(#a)">
<defs>
<path id="am" d="m9.8125 72.906h9.8594v-29.891h35.844v29.891h9.8594v-72.906h-9.8594v34.719h-35.844v-34.719h-9.8594z"/>
</defs>
<g transform="translate(417.51 103.83) rotate(-17.903) scale(.08 -.08)">
<use xlink:href="#am"/>
</g>
</g>
<path d="m658.61 340.18 0.70614 4.4012q0.3802 2.3697 2.7499 1.9895l7.6447-1.2265q2.3697-0.3802 1.9895-2.7499l-0.70614-4.4012q-0.3802-2.3697-2.7499-1.9895l-7.6447 1.2265q-2.3697 0.3802-1.9895 2.7499z" clip-path="url(#a)" fill="#fff" stroke="#fff"/>
<g clip-path="url(#a)">
<defs>
<path id="al" d="m9.8125 72.906h9.8594v-64.609h35.5v-8.2969h-45.359z"/>
</defs>
<g transform="translate(662.63 339.53) rotate(80.885) scale(.08 -.08)">
<use xlink:href="#al"/>
</g>
</g>
<path d="m757.89 165.6 4.5872 3.8927q1.8299 1.5529 3.3828-0.27707l5.0096-5.9034q1.5529-1.8299-0.27707-3.3828l-4.5872-3.8927q-1.8299-1.5529-3.3828 0.27707l-5.0096 5.9034q-1.5529 1.8299 0.27707 3.3828z" clip-path="url(#a)" fill="#fff" stroke="#fff"/>
<g clip-path="url(#a)">
<g transform="translate(760.52 162.5) rotate(40.318) scale(.08 -.08)">
<use xlink:href="#am"/>
</g>
</g>
<path d="m151.19 409.76 1.875-5.8677q0.73052-2.2861-1.5556-3.0166l-7.3751-2.3567q-2.2861-0.73052-3.0166 1.5556l-1.875 5.8677q-0.73052 2.2861 1.5556 3.0166l7.3751 2.3567q2.2861 0.73052 3.0166-1.5556z" clip-path="url(#a)" fill="#fff" stroke="#fff"/>
<g clip-path="url(#a)">
<defs>
<path id="y" d="m19.672 64.797v-56.688h11.922q15.094 0 22.094 6.8281 7 6.8438 7 21.594 0 14.641-7 21.453t-22.094 6.8125zm-9.8594 8.1094h20.266q21.188 0 31.094-8.8125 9.9219-8.8125 9.9219-27.562 0-18.859-9.9688-27.703-9.9531-8.8281-31.047-8.8281h-20.266z"/>
</defs>
<g transform="translate(147.32 408.52) rotate(-72.279) scale(.08 -.08)">
<use xlink:href="#y"/>
</g>
</g>
<path d="m174.8 408.53 1.0051-4.4901q0.52424-2.342-1.8178-2.8663l-7.5555-1.6912q-2.342-0.52424-2.8663 1.8178l-1.0051 4.4901q-0.52424 2.342 1.8178 2.8663l7.5555 1.6912q2.342 0.52424 2.8663-1.8178z" clip-path="url(#a)" fill="#fff" stroke="#fff"/>
<g clip-path="url(#a)">
<defs>
<path id="x" d="m9.8125 72.906h41.891v-8.3125h-32.031v-21.484h28.906v-8.2969h-28.906v-34.812h-9.8594z"/>
</defs>
<g transform="translate(170.83 407.64) rotate(-77.383) scale(.08 -.08)">
<use xlink:href="#x"/>
</g>
</g>
<path d="m198.08 408.43 0.69554-5.4281q0.30503-2.3805-2.0755-2.6856l-7.6797-0.98405q-2.3805-0.30503-2.6856 2.0755l-0.69554 5.4281q-0.30504 2.3805 2.0755 2.6856l7.6797 0.98405q2.3805 0.30504 2.6856-2.0755z" clip-path="url(#a)" fill="#fff" stroke="#fff"/>
<g clip-path="url(#a)">
<defs>
<path id="o" d="m34.188 63.188-13.391-36.281h26.812zm-5.5781 9.7188h11.188l27.781-72.906h-10.25l-6.6406 18.703h-32.859l-6.6406-18.703h-10.406z"/>
</defs>
<g transform="translate(194.04 407.91) rotate(-82.698) scale(.08 -.08)">
<use xlink:href="#o"/>
</g>
</g>
<path d="m221.41 407.66 0.16463-5.0761q0.077798-2.3987-2.3209-2.4765l-7.7384-0.25098q-2.3987-0.077798-2.4765 2.3209l-0.16463 5.0761q-0.077798 2.3987 2.3209 2.4765l7.7384 0.25098q2.3987 0.077798 2.4765-2.3209z" clip-path="url(#a)" fill="#fff" stroke="#fff"/>
<g clip-path="url(#a)">
<defs>
<path id="v" d="m53.516 70.516v-9.625q-5.6094 2.6875-10.594 4-4.9844 1.3281-9.625 1.3281-8.0469 0-12.422-3.125t-4.375-8.8906q0-4.8438 2.9062-7.3125 2.9062-2.4531 11.016-3.9688l5.9531-1.2188q11.031-2.1094 16.281-7.4062t5.25-14.172q0-10.609-7.1094-16.078-7.0938-5.4688-20.812-5.4688-5.1719 0-11.016 1.1719-5.8281 1.1719-12.078 3.4688v10.156q6-3.3594 11.766-5.0781 5.7656-1.7031 11.328-1.7031 8.4375 0 13.031 3.3125 4.5938 3.3281 4.5938 9.4844 0 5.3594-3.2969 8.3906t-10.812 4.5469l-6.0156 1.1719q-11.031 2.1875-15.969 6.875-4.9219 4.6875-4.9219 13.047 0 9.6719 6.8125 15.234t18.766 5.5625q5.1406 0 10.453-0.9375 5.3281-0.92188 10.891-2.7656z"/>
</defs>
<g transform="translate(217.35 407.53) rotate(-88.142) scale(.08 -.08)">
<use xlink:href="#v"/>
</g>
</g>
<path d="m372.28 231.09 5.0777 2.041q2.2268 0.8951 3.1219-1.3317l2.8876-7.1839q0.8951-2.2268-1.3317-3.1219l-5.0777-2.041q-2.2268-0.8951-3.1219 1.3317l-2.8876 7.1839q-0.8951 2.2268 1.3317 3.1219z" clip-path="url(#a)" fill="#fff" stroke="#fff"/>
<g clip-path="url(#a)">
<g transform="translate(373.8 227.32) rotate(21.898) scale(.08 -.08)">
<use xlink:href="#o"/>
</g>
</g>
<path d="m231.81 402.39 0.36971 5.8433q0.15155 2.3952 2.5468 2.2437l7.727-0.4889q2.3952-0.15155 2.2437-2.5468l-0.36971-5.8433q-0.15155-2.3952-2.5468-2.2437l-7.727 0.4889q-2.3952 0.15155-2.2437 2.5468z" clip-path="url(#a)" fill="#fff" stroke="#fff"/>
<g clip-path="url(#a)">
<defs>
<path id="s" d="m8.6875 72.906h9.9219v-44.297q0-11.719 4.2344-16.875 4.25-5.1406 13.781-5.1406 9.4688 0 13.719 5.1406 4.25 5.1562 4.25 16.875v44.297h9.9062v-45.516q0-14.25-7.0625-21.531-7.0469-7.2812-20.812-7.2812-13.828 0-20.891 7.2812-7.0469 7.2812-7.0469 21.531z"/>
</defs>
<g transform="translate(235.86 402.13) rotate(86.38) scale(.08 -.08)">
<use xlink:href="#s"/>
</g>
</g>
<path d="m707.68 686.47v35.285q0 2.4 2.4 2.4h7.7425q2.4 0 2.4-2.4v-35.285q0-2.4-2.4-2.4h-7.7425q-2.4 0-2.4 2.4z" clip-path="url(#a)" fill="#fff" stroke="#fff"/>
<g clip-path="url(#a)">
<defs>
<path id="l" d="m-0.29688 72.906h61.672v-8.3125h-25.875v-64.594h-9.9062v64.594h-25.891z"/>
<path id="d" d="m56.203 29.594v-4.3906h-41.312q0.59375-9.2812 5.5938-14.141t13.938-4.8594q5.1719 0 10.031 1.2656t9.6562 3.8125v-8.5q-4.8438-2.0469-9.9219-3.125t-10.297-1.0781q-13.094 0-20.734 7.6094-7.6406 7.625-7.6406 20.625 0 13.422 7.25 21.297 7.25 7.8906 19.562 7.8906 11.031 0 17.453-7.1094 6.4219-7.0938 6.4219-19.297zm-8.9844 2.6406q-0.09375 7.3594-4.125 11.75-4.0312 4.4062-10.672 4.4062-7.5156 0-12.031-4.25t-5.2031-11.969z"/>
<path id="j" d="m41.109 46.297q-1.5156 0.875-3.2969 1.2812-1.7812 0.42188-3.9219 0.42188-7.625 0-11.703-4.9531t-4.0781-14.234v-28.812h-9.0312v54.688h9.0312v-8.5q2.8438 4.9844 7.375 7.3906 4.5469 2.4219 11.047 2.4219 0.92188 0 2.0469-0.125 1.125-0.10938 2.4844-0.35938z"/>
<path id="k" d="m52 44.188q3.375 6.0625 8.0625 8.9375t11.031 2.875q8.5469 0 13.188-5.9844 4.6406-5.9688 4.6406-17v-33.016h-9.0312v32.719q0 7.8594-2.7969 11.656-2.7812 3.8125-8.4844 3.8125-6.9844 0-11.047-4.6406-4.0469-4.625-4.0469-12.641v-30.906h-9.0312v32.719q0 7.9062-2.7812 11.688t-8.5938 3.7812q-6.8906 0-10.953-4.6562-4.0469-4.6562-4.0469-12.625v-30.906h-9.0312v54.688h9.0312v-8.5q3.0781 5.0312 7.375 7.4219t10.203 2.3906q5.9688 0 10.141-3.0312 4.1719-3.0156 6.1719-8.7812z"/>
<path id="g" d="m9.4219 54.688h8.9844v-54.688h-8.9844zm0 21.297h8.9844v-11.391h-8.9844z"/>
<path id="e" d="m54.891 33.016v-33.016h-8.9844v32.719q0 7.7656-3.0312 11.609-3.0312 3.8594-9.0781 3.8594-7.2812 0-11.484-4.6406-4.2031-4.625-4.2031-12.641v-30.906h-9.0312v54.688h9.0312v-8.5q3.2344 4.9375 7.5938 7.375 4.375 2.4375 10.094 2.4375 9.4219 0 14.25-5.8281 4.8438-5.8281 4.8438-17.156z"/>
<path id="f" d="m34.281 27.484q-10.891 0-15.094-2.4844t-4.2031-8.5q0-4.7812 3.1562-7.5938 3.1562-2.7969 8.5625-2.7969 7.4844 0 12 5.2969t4.5156 14.078v2zm17.922 3.7188v-31.203h-8.9844v8.2969q-3.0781-4.9688-7.6719-7.3438t-11.234-2.375q-8.3906 0-13.359 4.7188-4.9531 4.7188-4.9531 12.625 0 9.2188 6.1719 13.906 6.1875 4.6875 18.438 4.6875h12.609v0.89062q0 6.2031-4.0781 9.5938t-11.453 3.3906q-4.6875 0-9.1406-1.125-4.4375-1.125-8.5312-3.375v8.3125q4.9219 1.9062 9.5625 2.8438 4.6406 0.95312 9.0312 0.95312 11.875 0 17.734-6.1562 5.8594-6.1406 5.8594-18.641z"/>
<path id="h" d="m9.4219 75.984h8.9844v-75.984h-8.9844z"/>
</defs>
<g transform="translate(711.74 686.47) rotate(90) scale(.08 -.08)">
<use xlink:href="#l"/>
<use x="60.818359" xlink:href="#d"/>
<use x="122.341797" xlink:href="#j"/>
<use x="163.439453" xlink:href="#k"/>
<use x="260.851562" xlink:href="#g"/>
<use x="288.634766" xlink:href="#e"/>
<use x="352.013672" xlink:href="#f"/>
<use x="413.292969" xlink:href="#h"/>
</g>
</g>
<path d="m840.76 471.85 2.144-5.035q0.94028-2.2081-1.2679-3.1484l-7.1235-3.0334q-2.2081-0.94028-3.1484 1.2679l-2.144 5.035q-0.94028 2.2081 1.2679 3.1484l7.1235 3.0334q2.2081 0.94028 3.1484-1.2679z" clip-path="url(#a)" fill="#fff" stroke="#fff"/>
<g clip-path="url(#a)">
<g transform="translate(837.02 470.25) rotate(-66.934) scale(.08 -.08)">
<use xlink:href="#o"/>
</g>
</g>
<path d="m864.41 470.97 1.3731-4.6242q0.68315-2.3007-1.6176-2.9839l-7.4222-2.2039q-2.3007-0.68315-2.9839 1.6176l-1.3731 4.6242q-0.68315 2.3007 1.6176 2.9839l7.4222 2.2039q2.3007 0.68315 2.9839-1.6176z" clip-path="url(#a)" fill="#fff" stroke="#fff"/>
<g clip-path="url(#a)">
<defs>
<path id="w" d="m19.672 64.797v-27.391h12.406q6.8906 0 10.641 3.5625 3.7656 3.5625 3.7656 10.156 0 6.5469-3.7656 10.109-3.75 3.5625-10.641 3.5625zm-9.8594 8.1094h22.266q12.266 0 18.531-5.5469 6.2812-5.5469 6.2812-16.234 0-10.797-6.2812-16.312-6.2656-5.5156-18.531-5.5156h-12.406v-29.297h-9.8594z"/>
</defs>
<g transform="translate(860.52 469.81) rotate(-73.462) scale(.08 -.08)">
<use xlink:href="#w"/>
</g>
</g>
<path d="m887.78 470.95 1.0208-6.0748q0.39769-2.3668-1.9691-2.7645l-7.6355-1.283q-2.3668-0.3977-2.7645 1.9691l-1.0208 6.0748q-0.3977 2.3668 1.9691 2.7645l7.6355 1.283q2.3668 0.3977 2.7645-1.9691z" clip-path="url(#a)" fill="#fff" stroke="#fff"/>
<g clip-path="url(#a)">
<g transform="translate(883.78 470.28) rotate(-80.462) scale(.08 -.08)">
<use xlink:href="#y"/>
</g>
</g>
<path d="m1017.7 353.02 4.8038 2.6213q2.1068 1.1496 3.2564-0.95714l3.7087-6.7965q1.1496-2.1068-0.95715-3.2564l-4.8038-2.6213q-2.1068-1.1496-3.2564 0.95715l-3.7087 6.7965q-1.1496 2.1068 0.95715 3.2564z" clip-path="url(#a)" fill="#fff" stroke="#fff"/>
<g clip-path="url(#a)">
<g transform="translate(1019.7 349.45) rotate(28.62) scale(.08 -.08)">
<use xlink:href="#o"/>
</g>
</g>
<path d="m911.29 470.04 0.22893-5.8505q0.09384-2.3982-2.3043-2.492l-7.7366-0.30273q-2.3982-0.09384-2.492 2.3043l-0.22893 5.8505q-0.093841 2.3982 2.3043 2.492l7.7366 0.30273q2.3982 0.093841 2.492-2.3043z" clip-path="url(#a)" fill="#fff" stroke="#fff"/>
<g clip-path="url(#a)">
<g transform="translate(907.22 469.88) rotate(-87.759) scale(.08 -.08)">
<use xlink:href="#s"/>
</g>
</g>
<path d="m921.65 464.52 0.52349 5.8316q0.21458 2.3904 2.605 2.1758l7.7115-0.69225q2.3904-0.21458 2.1758-2.605l-0.52349-5.8316q-0.21458-2.3904-2.605-2.1758l-7.7115 0.69225q-2.3904 0.21458-2.1758 2.605z" clip-path="url(#a)" fill="#fff" stroke="#fff"/>
<g clip-path="url(#a)">
<g transform="translate(925.7 464.15) rotate(84.87) scale(.08 -.08)">
<use xlink:href="#s"/>
</g>
</g>
<path d="m944.43 465.35 1.2507 5.7198q0.51269 2.3446 2.8573 1.8319l7.5638-1.654q2.3446-0.51269 1.8319-2.8573l-1.2507-5.7198q-0.51269-2.3446-2.8573-1.8319l-7.5638 1.654q-2.3446 0.51269-1.8319 2.8573z" clip-path="url(#a)" fill="#fff" stroke="#fff"/>
<g clip-path="url(#a)">
<g transform="translate(948.4 464.48) rotate(77.665) scale(.08 -.08)">
<use xlink:href="#s"/>
</g>
</g>
<path d="m753.73 686.47v35.285q0 2.4 2.4 2.4h7.7425q2.4 0 2.4-2.4v-35.285q0-2.4-2.4-2.4h-7.7425q-2.4 0-2.4 2.4z" clip-path="url(#a)" fill="#fff" stroke="#fff"/>
<g clip-path="url(#a)">
<g transform="translate(757.79 686.47) rotate(90) scale(.08 -.08)">
<use xlink:href="#l"/>
<use x="60.818359" xlink:href="#d"/>
<use x="122.341797" xlink:href="#j"/>
<use x="163.439453" xlink:href="#k"/>
<use x="260.851562" xlink:href="#g"/>
<use x="288.634766" xlink:href="#e"/>
<use x="352.013672" xlink:href="#f"/>
<use x="413.292969" xlink:href="#h"/>
</g>
</g>
<path d="m799.78 686.47v35.285q0 2.4 2.4 2.4h7.7425q2.4 0 2.4-2.4v-35.285q0-2.4-2.4-2.4h-7.7425q-2.4 0-2.4 2.4z" clip-path="url(#a)" fill="#fff" stroke="#fff"/>
<g clip-path="url(#a)">
<g transform="translate(803.84 686.47) rotate(90) scale(.08 -.08)">
<use xlink:href="#l"/>
<use x="60.818359" xlink:href="#d"/>
<use x="122.341797" xlink:href="#j"/>
<use x="163.439453" xlink:href="#k"/>
<use x="260.851562" xlink:href="#g"/>
<use x="288.634766" xlink:href="#e"/>
<use x="352.013672" xlink:href="#f"/>
<use x="413.292969" xlink:href="#h"/>
</g>
</g>
<path d="m845.82 686.47v35.285q0 2.4 2.4 2.4h7.7425q2.4 0 2.4-2.4v-35.285q0-2.4-2.4-2.4h-7.7425q-2.4 0-2.4 2.4z" clip-path="url(#a)" fill="#fff" stroke="#fff"/>
<g clip-path="url(#a)">
<g transform="translate(849.89 686.47) rotate(90) scale(.08 -.08)">
<use xlink:href="#l"/>
<use x="60.818359" xlink:href="#d"/>
<use x="122.341797" xlink:href="#j"/>
<use x="163.439453" xlink:href="#k"/>
<use x="260.851562" xlink:href="#g"/>
<use x="288.634766" xlink:href="#e"/>
<use x="352.013672" xlink:href="#f"/>
<use x="413.292969" xlink:href="#h"/>
</g>
</g>
<path d="m1090 532.38 2.0953-5.0555q0.91892-2.2171-1.2982-3.136l-7.1525-2.9645q-2.2171-0.91892-3.136 1.2982l-2.0953 5.0555q-0.91892 2.2171 1.2982 3.136l7.1525 2.9645q2.2171 0.91892 3.136-1.2982z" clip-path="url(#a)" fill="#fff" stroke="#fff"/>
<g clip-path="url(#a)">
<g transform="translate(1086.2 530.82) rotate(-67.488) scale(.08 -.08)">
<use xlink:href="#o"/>
</g>
</g>
<path d="m1113.8 531.27 1.0885-4.9607q0.51438-2.3442-1.8298-2.8586l-7.5626-1.6594q-2.3442-0.51438-2.8586 1.8298l-1.0885 4.9607q-0.51438 2.3442 1.8298 2.8586l7.5626 1.6594q2.3442 0.51438 2.8586-1.8298z" clip-path="url(#a)" fill="#fff" stroke="#fff"/>
<g clip-path="url(#a)">
<g transform="translate(1109.9 530.4) rotate(-77.624) scale(.08 -.08)">
<use xlink:href="#v"/>
</g>
</g>
<path d="m1137.5 529.9 0.11215-4.5999q0.058495-2.3993-2.3408-2.4578l-7.7402-0.18871q-2.3993-0.058496-2.4578 2.3408l-0.11215 4.5999q-0.058495 2.3993 2.3408 2.4578l7.7402 0.18871q2.3993 0.058495 2.4578-2.3408z" clip-path="url(#a)" fill="#fff" stroke="#fff"/>
<g clip-path="url(#a)">
<g transform="translate(1133.4 529.8) rotate(-88.603) scale(.08 -.08)">
<use xlink:href="#x"/>
</g>
</g>
<path d="m1205.9 472.15 4.3469 3.3246q1.9064 1.458 3.3644-0.44835l4.7036-6.15q1.458-1.9064-0.44835-3.3644l-4.3469-3.3246q-1.9064-1.458-3.3644 0.44835l-4.7036 6.15q-1.458 1.9064 0.44835 3.3644z" clip-path="url(#a)" fill="#fff" stroke="#fff"/>
<g clip-path="url(#a)">
<g transform="translate(1208.3 468.92) rotate(37.409) scale(.08 -.08)">
<use xlink:href="#o"/>
</g>
</g>
<path d="m1030 686.47v35.285q0 2.4 2.4 2.4h7.7425q2.4 0 2.4-2.4v-35.285q0-2.4-2.4-2.4h-7.7425q-2.4 0-2.4 2.4z" clip-path="url(#a)" fill="#fff" stroke="#fff"/>
<g clip-path="url(#a)">
<g transform="translate(1034.1 686.47) rotate(90) scale(.08 -.08)">
<use xlink:href="#l"/>
<use x="60.818359" xlink:href="#d"/>
<use x="122.341797" xlink:href="#j"/>
<use x="163.439453" xlink:href="#k"/>
<use x="260.851562" xlink:href="#g"/>
<use x="288.634766" xlink:href="#e"/>
<use x="352.013672" xlink:href="#f"/>
<use x="413.292969" xlink:href="#h"/>
</g>
</g>
<path d="m1076.1 686.47v35.285q0 2.4 2.4 2.4h7.7425q2.4 0 2.4-2.4v-35.285q0-2.4-2.4-2.4h-7.7425q-2.4 0-2.4 2.4z" clip-path="url(#a)" fill="#fff" stroke="#fff"/>
<g clip-path="url(#a)">
<g transform="translate(1080.1 686.47) rotate(90) scale(.08 -.08)">
<use xlink:href="#l"/>
<use x="60.818359" xlink:href="#d"/>
<use x="122.341797" xlink:href="#j"/>
<use x="163.439453" xlink:href="#k"/>
<use x="260.851562" xlink:href="#g"/>
<use x="288.634766" xlink:href="#e"/>
<use x="352.013672" xlink:href="#f"/>
<use x="413.292969" xlink:href="#h"/>
</g>
</g>
<path d="m1122.1 686.47v35.285q0 2.4 2.4 2.4h7.7425q2.4 0 2.4-2.4v-35.285q0-2.4-2.4-2.4h-7.7425q-2.4 0-2.4 2.4z" clip-path="url(#a)" fill="#fff" stroke="#fff"/>
<g clip-path="url(#a)">
<g transform="translate(1126.2 686.47) rotate(90) scale(.08 -.08)">
<use xlink:href="#l"/>
<use x="60.818359" xlink:href="#d"/>
<use x="122.341797" xlink:href="#j"/>
<use x="163.439453" xlink:href="#k"/>
<use x="260.851562" xlink:href="#g"/>
<use x="288.634766" xlink:href="#e"/>
<use x="352.013672" xlink:href="#f"/>
<use x="413.292969" xlink:href="#h"/>
</g>
</g>
<path d="m1234.5 593.25 3.8948-3.9662q1.6816-1.7124-0.030823-3.394l-5.5243-5.4248q-1.7124-1.6816-3.394 0.030823l-3.8948 3.9662q-1.6816 1.7124 0.030822 3.394l5.5243 5.4248q1.7124 1.6816 3.394-0.030823z" clip-path="url(#a)" fill="#fff" stroke="#fff"/>
<g clip-path="url(#a)">
<defs>
<path id="ak" d="m44.391 34.188q3.1719-1.0781 6.1719-4.5938t6.0312-9.6719l10.016-19.922h-10.609l-9.3125 18.703q-3.625 7.3281-7.0156 9.7188t-9.25 2.3906h-10.75v-30.812h-9.8594v72.906h22.266q12.5 0 18.656-5.2344 6.1562-5.2188 6.1562-15.766 0-6.8906-3.2031-11.438-3.2031-4.5312-9.2969-6.2812zm-24.719 30.609v-25.875h12.406q7.125 0 10.766 3.2969t3.6406 9.6875-3.6406 9.6406-10.766 3.25z"/>
</defs>
<g transform="translate(1231.6 590.41) rotate(-45.52) scale(.08 -.08)">
<use xlink:href="#ak"/>
</g>
</g>
<path d="m1259.3 592.04 2.3358-3.9643q1.2183-2.0678-0.84944-3.2861l-6.6707-3.9304q-2.0678-1.2183-3.2861 0.84944l-2.3358 3.9643q-1.2183 2.0678 0.84944 3.2861l6.6707 3.9304q2.0678 1.2183 3.2861-0.84944z" clip-path="url(#a)" fill="#fff" stroke="#fff"/>
<g clip-path="url(#a)">
<g transform="translate(1255.8 589.98) rotate(-59.493) scale(.08 -.08)">
<use xlink:href="#x"/>
</g>
</g>
<path d="m1283.7 590.57 0.97419-4.9602q0.46252-2.355-1.8925-2.8175l-7.5974-1.4921q-2.355-0.46252-2.8175 1.8925l-0.97419 4.9602q-0.46252 2.355 1.8925 2.8175l7.5974 1.4921q2.355 0.46252 2.8175-1.8925z" clip-path="url(#a)" fill="#fff" stroke="#fff"/>
<g clip-path="url(#a)">
<defs>
<path id="an" d="m9.8125 72.906h46.094v-8.3125h-36.234v-21.578h34.719v-8.2969h-34.719v-26.422h37.109v-8.2969h-46.969z"/>
</defs>
<g transform="translate(1279.7 589.78) rotate(-78.889) scale(.08 -.08)">
<use xlink:href="#an"/>
</g>
</g>
<path d="m1294.4 585.35 1.0766 5.4815q0.46252 2.355 2.8175 1.8925l7.5974-1.4921q2.355-0.46252 1.8925-2.8175l-1.0766-5.4815q-0.46252-2.355-2.8175-1.8925l-7.5974 1.4921q-2.355 0.46252-1.8925 2.8175z" clip-path="url(#a)" fill="#fff" stroke="#fff"/>
<g clip-path="url(#a)">
<defs>
<path id="ae" d="m64.406 67.281v-10.391q-4.9844 4.6406-10.625 6.9219-5.6406 2.2969-11.984 2.2969-12.5 0-19.141-7.6406t-6.6406-22.094q0-14.406 6.6406-22.047t19.141-7.6406q6.3438 0 11.984 2.2969t10.625 6.9375v-10.312q-5.1719-3.5156-10.969-5.2812-5.7812-1.75-12.219-1.75-16.562 0-26.094 10.125-9.5156 10.141-9.5156 27.672 0 17.578 9.5156 27.703 9.5312 10.141 26.094 10.141 6.5312 0 12.312-1.7344 5.7969-1.7344 10.875-5.2031z"/>
</defs>
<g transform="translate(1298.4 584.56) rotate(78.889) scale(.08 -.08)">
<use xlink:href="#ae"/>
</g>
</g>
<path d="m1317.2 587.54 2.9722 5.0445q1.2183 2.0678 3.2861 0.84944l6.6707-3.9304q2.0678-1.2183 0.84944-3.2861l-2.9722-5.0445q-1.2183-2.0678-3.2861-0.84944l-6.6707 3.9304q-2.0678 1.2183-0.84944 3.2861z" clip-path="url(#a)" fill="#fff" stroke="#fff"/>
<g clip-path="url(#a)">
<g transform="translate(1320.7 585.48) rotate(59.493) scale(.08 -.08)">
<use xlink:href="#s"/>
</g>
</g>
<path d="m1340.6 589.18 4.1023 4.1775q1.6816 1.7124 3.394 0.030823l5.5243-5.4248q1.7124-1.6816 0.030823-3.394l-4.1023-4.1775q-1.6816-1.7124-3.394-0.030823l-5.5243 5.4248q-1.7124 1.6816-0.030823 3.394z" clip-path="url(#a)" fill="#fff" stroke="#fff"/>
<g clip-path="url(#a)">
<g transform="translate(1343.5 586.34) rotate(45.52) scale(.08 -.08)">
<use xlink:href="#s"/>
</g>
</g>
<path d="m1168.2 686.47v35.285q0 2.4 2.4 2.4h7.7425q2.4 0 2.4-2.4v-35.285q0-2.4-2.4-2.4h-7.7425q-2.4 0-2.4 2.4z" clip-path="url(#a)" fill="#fff" stroke="#fff"/>
<g clip-path="url(#a)">
<g transform="translate(1172.2 686.47) rotate(90) scale(.08 -.08)">
<use xlink:href="#l"/>
<use x="60.818359" xlink:href="#d"/>
<use x="122.341797" xlink:href="#j"/>
<use x="163.439453" xlink:href="#k"/>
<use x="260.851562" xlink:href="#g"/>
<use x="288.634766" xlink:href="#e"/>
<use x="352.013672" xlink:href="#f"/>
<use x="413.292969" xlink:href="#h"/>
</g>
</g>
<path d="m1214.2 686.47v35.285q0 2.4 2.4 2.4h7.7425q2.4 0 2.4-2.4v-35.285q0-2.4-2.4-2.4h-7.7425q-2.4 0-2.4 2.4z" clip-path="url(#a)" fill="#fff" stroke="#fff"/>
<g clip-path="url(#a)">
<g transform="translate(1218.3 686.47) rotate(90) scale(.08 -.08)">
<use xlink:href="#l"/>
<use x="60.818359" xlink:href="#d"/>
<use x="122.341797" xlink:href="#j"/>
<use x="163.439453" xlink:href="#k"/>
<use x="260.851562" xlink:href="#g"/>
<use x="288.634766" xlink:href="#e"/>
<use x="352.013672" xlink:href="#f"/>
<use x="413.292969" xlink:href="#h"/>
</g>
</g>
<path d="m1260.3 686.47v35.285q0 2.4 2.4 2.4h7.7425q2.4 0 2.4-2.4v-35.285q0-2.4-2.4-2.4h-7.7425q-2.4 0-2.4 2.4z" clip-path="url(#a)" fill="#fff" stroke="#fff"/>
<g clip-path="url(#a)">
<g transform="translate(1264.3 686.47) rotate(90) scale(.08 -.08)">
<use xlink:href="#l"/>
<use x="60.818359" xlink:href="#d"/>
<use x="122.341797" xlink:href="#j"/>
<use x="163.439453" xlink:href="#k"/>
<use x="260.851562" xlink:href="#g"/>
<use x="288.634766" xlink:href="#e"/>
<use x="352.013672" xlink:href="#f"/>
<use x="413.292969" xlink:href="#h"/>
</g>
</g>
<path d="m1306.3 686.47v35.285q0 2.4 2.4 2.4h7.7425q2.4 0 2.4-2.4v-35.285q0-2.4-2.4-2.4h-7.7425q-2.4 0-2.4 2.4z" clip-path="url(#a)" fill="#fff" stroke="#fff"/>
<g clip-path="url(#a)">
<g transform="translate(1310.4 686.47) rotate(90) scale(.08 -.08)">
<use xlink:href="#l"/>
<use x="60.818359" xlink:href="#d"/>
<use x="122.341797" xlink:href="#j"/>
<use x="163.439453" xlink:href="#k"/>
<use x="260.851562" xlink:href="#g"/>
<use x="288.634766" xlink:href="#e"/>
<use x="352.013672" xlink:href="#f"/>
<use x="413.292969" xlink:href="#h"/>
</g>
</g>
<path d="m63.009 686.47v35.285q0 2.4 2.4 2.4h7.7425q2.4 0 2.4-2.4v-35.285q0-2.4-2.4-2.4h-7.7425q-2.4 0-2.4 2.4z" clip-path="url(#a)" fill="#fff" stroke="#fff"/>
<g clip-path="url(#a)">
<g transform="translate(67.072 686.47) rotate(90) scale(.08 -.08)">
<use xlink:href="#l"/>
<use x="60.818359" xlink:href="#d"/>
<use x="122.341797" xlink:href="#j"/>
<use x="163.439453" xlink:href="#k"/>
<use x="260.851562" xlink:href="#g"/>
<use x="288.634766" xlink:href="#e"/>
<use x="352.013672" xlink:href="#f"/>
<use x="413.292969" xlink:href="#h"/>
</g>
</g>
<path d="m109.06 686.47v35.285q0 2.4 2.4 2.4h7.7425q2.4 0 2.4-2.4v-35.285q0-2.4-2.4-2.4h-7.7425q-2.4 0-2.4 2.4z" clip-path="url(#a)" fill="#fff" stroke="#fff"/>
<g clip-path="url(#a)">
<g transform="translate(113.12 686.47) rotate(90) scale(.08 -.08)">
<use xlink:href="#l"/>
<use x="60.818359" xlink:href="#d"/>
<use x="122.341797" xlink:href="#j"/>
<use x="163.439453" xlink:href="#k"/>
<use x="260.851562" xlink:href="#g"/>
<use x="288.634766" xlink:href="#e"/>
<use x="352.013672" xlink:href="#f"/>
<use x="413.292969" xlink:href="#h"/>
</g>
</g>
<path d="m155.1 686.47v35.285q0 2.4 2.4 2.4h7.7425q2.4 0 2.4-2.4v-35.285q0-2.4-2.4-2.4h-7.7425q-2.4 0-2.4 2.4z" clip-path="url(#a)" fill="#fff" stroke="#fff"/>
<g clip-path="url(#a)">
<g transform="translate(159.17 686.47) rotate(90) scale(.08 -.08)">
<use xlink:href="#l"/>
<use x="60.818359" xlink:href="#d"/>
<use x="122.341797" xlink:href="#j"/>
<use x="163.439453" xlink:href="#k"/>
<use x="260.851562" xlink:href="#g"/>
<use x="288.634766" xlink:href="#e"/>
<use x="352.013672" xlink:href="#f"/>
<use x="413.292969" xlink:href="#h"/>
</g>
</g>
<path d="m201.15 686.47v35.285q0 2.4 2.4 2.4h7.7425q2.4 0 2.4-2.4v-35.285q0-2.4-2.4-2.4h-7.7425q-2.4 0-2.4 2.4z" clip-path="url(#a)" fill="#fff" stroke="#fff"/>
<g clip-path="url(#a)">
<g transform="translate(205.22 686.47) rotate(90) scale(.08 -.08)">
<use xlink:href="#l"/>
<use x="60.818359" xlink:href="#d"/>
<use x="122.341797" xlink:href="#j"/>
<use x="163.439453" xlink:href="#k"/>
<use x="260.851562" xlink:href="#g"/>
<use x="288.634766" xlink:href="#e"/>
<use x="352.013672" xlink:href="#f"/>
<use x="413.292969" xlink:href="#h"/>
</g>
</g>
<path d="m419.18 472.58 2.9785-4.5909q1.3063-2.0134-0.70711-3.3196l-6.4952-4.2141q-2.0134-1.3063-3.3196 0.70711l-2.9785 4.5909q-1.3063 2.0134 0.70711 3.3196l6.4952 4.2141q2.0134 1.3063 3.3196-0.70711z" clip-path="url(#a)" fill="#fff" stroke="#fff"/>
<g clip-path="url(#a)">
<g transform="translate(415.77 470.37) rotate(-57.025) scale(.08 -.08)">
<use xlink:href="#o"/>
</g>
</g>
<path d="m442.93 471.81 2.1225-4.0825q1.1071-2.1294-1.0223-3.2365l-6.8696-3.5714q-2.1294-1.1071-3.2365 1.0223l-2.1225 4.0825q-1.1071 2.1294 1.0223 3.2365l6.8696 3.5714q2.1294 1.1071 3.2365-1.0223z" clip-path="url(#a)" fill="#fff" stroke="#fff"/>
<g clip-path="url(#a)">
<g transform="translate(439.33 469.93) rotate(-62.53) scale(.08 -.08)">
<use xlink:href="#x"/>
</g>
</g>
<path d="m644.19 353.16 4.8701 2.496q2.1358 1.0947 3.2305-1.0412l3.5314-6.8902q1.0947-2.1358-1.0412-3.2305l-4.8701-2.496q-2.1358-1.0947-3.2305 1.0412l-3.5314 6.8902q-1.0947 2.1358 1.0412 3.2305z" clip-path="url(#a)" fill="#fff" stroke="#fff"/>
<g clip-path="url(#a)">
<g transform="translate(646.04 349.54) rotate(27.136) scale(.08 -.08)">
<use xlink:href="#o"/>
</g>
</g>
<path d="m547.01 465.13 0.62797 5.0398q0.29675 2.3816 2.6783 2.0848l7.6831-0.95733q2.3816-0.29675 2.0848-2.6783l-0.62797-5.0398q-0.29675-2.3816-2.6783-2.0848l-7.6831 0.95733q-2.3816 0.29675-2.0848 2.6783z" clip-path="url(#a)" fill="#fff" stroke="#fff"/>
<g clip-path="url(#a)">
<g transform="translate(551.05 464.63) rotate(82.897) scale(.08 -.08)">
<use xlink:href="#v"/>
</g>
</g>
<path d="m592.64 466.24 2.2002 5.7537q0.85722 2.2417 3.0989 1.3845l7.2318-2.7654q2.2417-0.85722 1.3845-3.0989l-2.2002-5.7537q-0.85722-2.2417-3.0989-1.3845l-7.2318 2.7654q-2.2417 0.85722-1.3845 3.0989z" clip-path="url(#a)" fill="#fff" stroke="#fff"/>
<g clip-path="url(#a)">
<g transform="translate(596.44 464.78) rotate(69.073) scale(.08 -.08)">
<use xlink:href="#y"/>
</g>
</g>
<path d="m293.25 686.47v35.285q0 2.4 2.4 2.4h7.7425q2.4 0 2.4-2.4v-35.285q0-2.4-2.4-2.4h-7.7425q-2.4 0-2.4 2.4z" clip-path="url(#a)" fill="#fff" stroke="#fff"/>
<g clip-path="url(#a)">
<g transform="translate(297.31 686.47) rotate(90) scale(.08 -.08)">
<use xlink:href="#l"/>
<use x="60.818359" xlink:href="#d"/>
<use x="122.341797" xlink:href="#j"/>
<use x="163.439453" xlink:href="#k"/>
<use x="260.851562" xlink:href="#g"/>
<use x="288.634766" xlink:href="#e"/>
<use x="352.013672" xlink:href="#f"/>
<use x="413.292969" xlink:href="#h"/>
</g>
</g>
<path d="m339.3 686.47v35.285q0 2.4 2.4 2.4h7.7425q2.4 0 2.4-2.4v-35.285q0-2.4-2.4-2.4h-7.7425q-2.4 0-2.4 2.4z" clip-path="url(#a)" fill="#fff" stroke="#fff"/>
<g clip-path="url(#a)">
<g transform="translate(343.36 686.47) rotate(90) scale(.08 -.08)">
<use xlink:href="#l"/>
<use x="60.818359" xlink:href="#d"/>
<use x="122.341797" xlink:href="#j"/>
<use x="163.439453" xlink:href="#k"/>
<use x="260.851562" xlink:href="#g"/>
<use x="288.634766" xlink:href="#e"/>
<use x="352.013672" xlink:href="#f"/>
<use x="413.292969" xlink:href="#h"/>
</g>
</g>
<path d="m1103.9 590.38 4.8607 2.5143q2.1317 1.1027 3.2344-1.029l3.5573-6.8769q1.1027-2.1317-1.029-3.2344l-4.8607-2.5143q-2.1317-1.1027-3.2344 1.029l-3.5573 6.8769q-1.1027 2.1317 1.029 3.2344z" clip-path="url(#a)" fill="#fff" stroke="#fff"/>
<g clip-path="url(#a)">
<g transform="translate(1105.8 586.77) rotate(27.351) scale(.08 -.08)">
<use xlink:href="#o"/>
</g>
</g>
<path d="m580.63 534.24 4.7079-2.9556q2.0326-1.2761 0.75654-3.3087l-4.1167-6.5574q-1.2761-2.0326-3.3087-0.75654l-4.7079 2.9556q-2.0326 1.2761-0.75654 3.3087l4.1167 6.5574q1.2761 2.0326 3.3087 0.75654z" clip-path="url(#a)" fill="#fff" stroke="#fff"/>
<g clip-path="url(#a)">
<g transform="translate(578.47 530.79) rotate(-32.121) scale(.08 -.08)">
<use xlink:href="#ak"/>
</g>
</g>
<path d="m614.08 475.6 4.7361-1.8338q2.2381-0.86656 1.3715-3.1047l-2.7956-7.2202q-0.86656-2.2381-3.1047-1.3715l-4.7361 1.8338q-2.2381 0.86656-1.3715 3.1047l2.7956 7.2202q0.86656 2.2381 3.1047 1.3715z" clip-path="url(#a)" fill="#fff" stroke="#fff"/>
<g clip-path="url(#a)">
<g transform="translate(612.61 471.81) rotate(-21.166) scale(.08 -.08)">
<use xlink:href="#v"/>
</g>
</g>
<path d="m552.17 722.82 12.9-32.842q0.87746-2.2338-1.3564-3.1113l-7.2065-2.8307q-2.2338-0.87746-3.1113 1.3564l-12.9 32.842q-0.87746 2.2338 1.3564 3.1113l7.2065 2.8307q2.2338 0.87746 3.1113-1.3564z" clip-path="url(#a)" fill="#fff" stroke="#fff"/>
<g clip-path="url(#a)">
<g transform="translate(548.39 721.34) rotate(-68.555) scale(.08 -.08)">
<use xlink:href="#l"/>
<use x="60.818359" xlink:href="#d"/>
<use x="122.341797" xlink:href="#j"/>
<use x="163.439453" xlink:href="#k"/>
<use x="260.851562" xlink:href="#g"/>
<use x="288.634766" xlink:href="#e"/>
<use x="352.013672" xlink:href="#f"/>
<use x="413.292969" xlink:href="#h"/>
</g>
</g>
<path d="m569.54 686.47v35.285q0 2.4 2.4 2.4h7.7425q2.4 0 2.4-2.4v-35.285q0-2.4-2.4-2.4h-7.7425q-2.4 0-2.4 2.4z" clip-path="url(#a)" fill="#fff" stroke="#fff"/>
<g clip-path="url(#a)">
<g transform="translate(573.6 686.47) rotate(90) scale(.08 -.08)">
<use xlink:href="#l"/>
<use x="60.818359" xlink:href="#d"/>
<use x="122.341797" xlink:href="#j"/>
<use x="163.439453" xlink:href="#k"/>
<use x="260.851562" xlink:href="#g"/>
<use x="288.634766" xlink:href="#e"/>
<use x="352.013672" xlink:href="#f"/>
<use x="413.292969" xlink:href="#h"/>
</g>
</g>
<path d="m586.54 689.98 12.9 32.842q0.87746 2.2338 3.1113 1.3564l7.2065-2.8307q2.2338-0.87746 1.3564-3.1113l-12.9-32.842q-0.87746-2.2338-3.1113-1.3564l-7.2065 2.8307q-2.2338 0.87746-1.3564 3.1113z" clip-path="url(#a)" fill="#fff" stroke="#fff"/>
<g clip-path="url(#a)">
<g transform="translate(590.33 688.49) rotate(68.555) scale(.08 -.08)">
<use xlink:href="#l"/>
<use x="60.818359" xlink:href="#d"/>
<use x="122.341797" xlink:href="#j"/>
<use x="163.439453" xlink:href="#k"/>
<use x="260.851562" xlink:href="#g"/>
<use x="288.634766" xlink:href="#e"/>
<use x="352.013672" xlink:href="#f"/>
<use x="413.292969" xlink:href="#h"/>
</g>
</g>
<path d="m661.63 686.47v35.285q0 2.4 2.4 2.4h7.7425q2.4 0 2.4-2.4v-35.285q0-2.4-2.4-2.4h-7.7425q-2.4 0-2.4 2.4z" clip-path="url(#a)" fill="#fff" stroke="#fff"/>
<g clip-path="url(#a)">
<g transform="translate(665.7 686.47) rotate(90) scale(.08 -.08)">
<use xlink:href="#l"/>
<use x="60.818359" xlink:href="#d"/>
<use x="122.341797" xlink:href="#j"/>
<use x="163.439453" xlink:href="#k"/>
<use x="260.851562" xlink:href="#g"/>
<use x="288.634766" xlink:href="#e"/>
<use x="352.013672" xlink:href="#f"/>
<use x="413.292969" xlink:href="#h"/>
</g>
</g>
<path d="m385.34 686.47v35.285q0 2.4 2.4 2.4h7.7425q2.4 0 2.4-2.4v-35.285q0-2.4-2.4-2.4h-7.7425q-2.4 0-2.4 2.4z" clip-path="url(#a)" fill="#fff" stroke="#fff"/>
<g clip-path="url(#a)">
<g transform="translate(389.41 686.47) rotate(90) scale(.08 -.08)">
<use xlink:href="#l"/>
<use x="60.818359" xlink:href="#d"/>
<use x="122.341797" xlink:href="#j"/>
<use x="163.439453" xlink:href="#k"/>
<use x="260.851562" xlink:href="#g"/>
<use x="288.634766" xlink:href="#e"/>
<use x="352.013672" xlink:href="#f"/>
<use x="413.292969" xlink:href="#h"/>
</g>
</g>
<path d="m454.84 590.57 0.97419-4.9602q0.46252-2.355-1.8925-2.8175l-7.5974-1.4921q-2.355-0.46252-2.8175 1.8925l-0.97419 4.9602q-0.46252 2.355 1.8925 2.8175l7.5974 1.4921q2.355 0.46252 2.8175-1.8925z" clip-path="url(#a)" fill="#fff" stroke="#fff"/>
<g clip-path="url(#a)">
<g transform="translate(450.85 589.78) rotate(-78.889) scale(.08 -.08)">
<use xlink:href="#an"/>
</g>
</g>
<path d="m465.51 585.35 1.0766 5.4815q0.46252 2.355 2.8175 1.8925l7.5974-1.4921q2.355-0.46252 1.8925-2.8175l-1.0766-5.4815q-0.46252-2.355-2.8175-1.8925l-7.5974 1.4921q-2.355 0.46252-1.8925 2.8175z" clip-path="url(#a)" fill="#fff" stroke="#fff"/>
<g clip-path="url(#a)">
<g transform="translate(469.5 584.56) rotate(78.889) scale(.08 -.08)">
<use xlink:href="#ae"/>
</g>
</g>
<path d="m431.39 686.47v35.285q0 2.4 2.4 2.4h7.7425q2.4 0 2.4-2.4v-35.285q0-2.4-2.4-2.4h-7.7425q-2.4 0-2.4 2.4z" clip-path="url(#a)" fill="#fff" stroke="#fff"/>
<g clip-path="url(#a)">
<g transform="translate(435.46 686.47) rotate(90) scale(.08 -.08)">
<use xlink:href="#l"/>
<use x="60.818359" xlink:href="#d"/>
<use x="122.341797" xlink:href="#j"/>
<use x="163.439453" xlink:href="#k"/>
<use x="260.851562" xlink:href="#g"/>
<use x="288.634766" xlink:href="#e"/>
<use x="352.013672" xlink:href="#f"/>
<use x="413.292969" xlink:href="#h"/>
</g>
</g>
<path d="m477.44 686.47v35.285q0 2.4 2.4 2.4h7.7425q2.4 0 2.4-2.4v-35.285q0-2.4-2.4-2.4h-7.7425q-2.4 0-2.4 2.4z" clip-path="url(#a)" fill="#fff" stroke="#fff"/>
<g clip-path="url(#a)">
<g transform="translate(481.5 686.47) rotate(90) scale(.08 -.08)">
<use xlink:href="#l"/>
<use x="60.818359" xlink:href="#d"/>
<use x="122.341797" xlink:href="#j"/>
<use x="163.439453" xlink:href="#k"/>
<use x="260.851562" xlink:href="#g"/>
<use x="288.634766" xlink:href="#e"/>
<use x="352.013672" xlink:href="#f"/>
<use x="413.292969" xlink:href="#h"/>
</g>
</g>
<path d="m247.2 686.47v35.285q0 2.4 2.4 2.4h7.7425q2.4 0 2.4-2.4v-35.285q0-2.4-2.4-2.4h-7.7425q-2.4 0-2.4 2.4z" clip-path="url(#a)" fill="#fff" stroke="#fff"/>
<g clip-path="url(#a)">
<g transform="translate(251.26 686.47) rotate(90) scale(.08 -.08)">
<use xlink:href="#l"/>
<use x="60.818359" xlink:href="#d"/>
<use x="122.341797" xlink:href="#j"/>
<use x="163.439453" xlink:href="#k"/>
<use x="260.851562" xlink:href="#g"/>
<use x="288.634766" xlink:href="#e"/>
<use x="352.013672" xlink:href="#f"/>
<use x="413.292969" xlink:href="#h"/>
</g>
</g>
<path d="m891.87 686.47v35.285q0 2.4 2.4 2.4h7.7425q2.4 0 2.4-2.4v-35.285q0-2.4-2.4-2.4h-7.7425q-2.4 0-2.4 2.4z" clip-path="url(#a)" fill="#fff" stroke="#fff"/>
<g clip-path="url(#a)">
<g transform="translate(895.94 686.47) rotate(90) scale(.08 -.08)">
<use xlink:href="#l"/>
<use x="60.818359" xlink:href="#d"/>
<use x="122.341797" xlink:href="#j"/>
<use x="163.439453" xlink:href="#k"/>
<use x="260.851562" xlink:href="#g"/>
<use x="288.634766" xlink:href="#e"/>
<use x="352.013672" xlink:href="#f"/>
<use x="413.292969" xlink:href="#h"/>
</g>
</g>
<path d="m937.92 686.47v35.285q0 2.4 2.4 2.4h7.7425q2.4 0 2.4-2.4v-35.285q0-2.4-2.4-2.4h-7.7425q-2.4 0-2.4 2.4z" clip-path="url(#a)" fill="#fff" stroke="#fff"/>
<g clip-path="url(#a)">
<g transform="translate(941.98 686.47) rotate(90) scale(.08 -.08)">
<use xlink:href="#l"/>
<use x="60.818359" xlink:href="#d"/>
<use x="122.341797" xlink:href="#j"/>
<use x="163.439453" xlink:href="#k"/>
<use x="260.851562" xlink:href="#g"/>
<use x="288.634766" xlink:href="#e"/>
<use x="352.013672" xlink:href="#f"/>
<use x="413.292969" xlink:href="#h"/>
</g>
</g>
<path d="m983.97 686.47v35.285q0 2.4 2.4 2.4h7.7425q2.4 0 2.4-2.4v-35.285q0-2.4-2.4-2.4h-7.7425q-2.4 0-2.4 2.4z" clip-path="url(#a)" fill="#fff" stroke="#fff"/>
<g clip-path="url(#a)">
<g transform="translate(988.03 686.47) rotate(90) scale(.08 -.08)">
<use xlink:href="#l"/>
<use x="60.818359" xlink:href="#d"/>
<use x="122.341797" xlink:href="#j"/>
<use x="163.439453" xlink:href="#k"/>
<use x="260.851562" xlink:href="#g"/>
<use x="288.634766" xlink:href="#e"/>
<use x="352.013672" xlink:href="#f"/>
<use x="413.292969" xlink:href="#h"/>
</g>
</g>
<path d="m1352.4 686.47v35.285q0 2.4 2.4 2.4h7.7425q2.4 0 2.4-2.4v-35.285q0-2.4-2.4-2.4h-7.7425q-2.4 0-2.4 2.4z" clip-path="url(#a)" fill="#fff" stroke="#fff"/>
<g clip-path="url(#a)">
<g transform="translate(1356.4 686.47) rotate(90) scale(.08 -.08)">
<use xlink:href="#l"/>
<use x="60.818359" xlink:href="#d"/>
<use x="122.341797" xlink:href="#j"/>
<use x="163.439453" xlink:href="#k"/>
<use x="260.851562" xlink:href="#g"/>
<use x="288.634766" xlink:href="#e"/>
<use x="352.013672" xlink:href="#f"/>
<use x="413.292969" xlink:href="#h"/>
</g>
</g>
<path d="m1398.4 686.47v35.285q0 2.4 2.4 2.4h7.7425q2.4 0 2.4-2.4v-35.285q0-2.4-2.4-2.4h-7.7425q-2.4 0-2.4 2.4z" clip-path="url(#a)" fill="#fff" stroke="#fff"/>
<g clip-path="url(#a)">
<g transform="translate(1402.5 686.47) rotate(90) scale(.08 -.08)">
<use xlink:href="#l"/>
<use x="60.818359" xlink:href="#d"/>
<use x="122.341797" xlink:href="#j"/>
<use x="163.439453" xlink:href="#k"/>
<use x="260.851562" xlink:href="#g"/>
<use x="288.634766" xlink:href="#e"/>
<use x="352.013672" xlink:href="#f"/>
<use x="413.292969" xlink:href="#h"/>
</g>
</g>
<defs>
<path id="b" d="m0 8.6603c2.2967 0 4.4997-0.9125 6.1237-2.5365 1.624-1.624 2.5365-3.827 2.5365-6.1237s-0.9125-4.4997-2.5365-6.1237c-1.624-1.624-3.827-2.5365-6.1237-2.5365s-4.4997 0.9125-6.1237 2.5365c-1.624 1.624-2.5365 3.827-2.5365 6.1237s0.9125 4.4997 2.5365 6.1237c1.624 1.624 3.827 2.5365 6.1237 2.5365z"/>
</defs>
<g clip-path="url(#a)">
<use x="69.279808" y="762.722645" fill="#ffffff" stroke="#ffffff" xlink:href="#b"/>
</g>
<g clip-path="url(#a)">
<use x="115.327821" y="762.722645" fill="#ffffff" stroke="#ffffff" xlink:href="#b"/>
</g>
<g clip-path="url(#a)">
<use x="161.375834" y="762.722645" fill="#ffffff" stroke="#ffffff" xlink:href="#b"/>
</g>
<g clip-path="url(#a)">
<use x="207.423847" y="762.722645" fill="#ffffff" stroke="#ffffff" xlink:href="#b"/>
</g>
<g clip-path="url(#a)">
<use x="253.47186" y="762.722645" fill="#ffffff" stroke="#ffffff" xlink:href="#b"/>
</g>
<g clip-path="url(#a)">
<use x="299.519872" y="762.722645" fill="#ffffff" stroke="#ffffff" xlink:href="#b"/>
</g>
<g clip-path="url(#a)">
<use x="345.567885" y="762.722645" fill="#ffffff" stroke="#ffffff" xlink:href="#b"/>
</g>
<g clip-path="url(#a)">
<use x="391.615898" y="762.722645" fill="#ffffff" stroke="#ffffff" xlink:href="#b"/>
</g>
<g clip-path="url(#a)">
<use x="437.663911" y="762.722645" fill="#ffffff" stroke="#ffffff" xlink:href="#b"/>
</g>
<g clip-path="url(#a)">
<use x="483.711923" y="762.722645" fill="#ffffff" stroke="#ffffff" xlink:href="#b"/>
</g>
<g clip-path="url(#a)">
<use x="529.759936" y="762.722645" fill="#ffffff" stroke="#ffffff" xlink:href="#b"/>
</g>
<g clip-path="url(#a)">
<use x="575.807949" y="762.722645" fill="#ffffff" stroke="#ffffff" xlink:href="#b"/>
</g>
<g clip-path="url(#a)">
<use x="621.855962" y="762.722645" fill="#ffffff" stroke="#ffffff" xlink:href="#b"/>
</g>
<g clip-path="url(#a)">
<use x="667.903974" y="762.722645" fill="#ffffff" stroke="#ffffff" xlink:href="#b"/>
</g>
<g clip-path="url(#a)">
<use x="713.951987" y="762.722645" fill="#ffffff" stroke="#ffffff" xlink:href="#b"/>
</g>
<g clip-path="url(#a)">
<use x="760" y="762.722645" fill="#ffffff" stroke="#ffffff" xlink:href="#b"/>
</g>
<g clip-path="url(#a)">
<use x="806.048013" y="762.722645" fill="#ffffff" stroke="#ffffff" xlink:href="#b"/>
</g>
<g clip-path="url(#a)">
<use x="852.096026" y="762.722645" fill="#ffffff" stroke="#ffffff" xlink:href="#b"/>
</g>
<g clip-path="url(#a)">
<use x="898.144038" y="762.722645" fill="#ffffff" stroke="#ffffff" xlink:href="#b"/>
</g>
<g clip-path="url(#a)">
<use x="944.192051" y="762.722645" fill="#ffffff" stroke="#ffffff" xlink:href="#b"/>
</g>
<g clip-path="url(#a)">
<use x="990.240064" y="762.722645" fill="#ffffff" stroke="#ffffff" xlink:href="#b"/>
</g>
<g clip-path="url(#a)">
<use x="1036.288077" y="762.722645" fill="#ffffff" stroke="#ffffff" xlink:href="#b"/>
</g>
<g clip-path="url(#a)">
<use x="1082.336089" y="762.722645" fill="#ffffff" stroke="#ffffff" xlink:href="#b"/>
</g>
<g clip-path="url(#a)">
<use x="1128.384102" y="762.722645" fill="#ffffff" stroke="#ffffff" xlink:href="#b"/>
</g>
<g clip-path="url(#a)">
<use x="1174.432115" y="762.722645" fill="#ffffff" stroke="#ffffff" xlink:href="#b"/>
</g>
<g clip-path="url(#a)">
<use x="1220.480128" y="762.722645" fill="#ffffff" stroke="#ffffff" xlink:href="#b"/>
</g>
<g clip-path="url(#a)">
<use x="1266.52814" y="762.722645" fill="#ffffff" stroke="#ffffff" xlink:href="#b"/>
</g>
<g clip-path="url(#a)">
<use x="1312.576153" y="762.722645" fill="#ffffff" stroke="#ffffff" xlink:href="#b"/>
</g>
<g clip-path="url(#a)">
<use x="1358.624166" y="762.722645" fill="#ffffff" stroke="#ffffff" xlink:href="#b"/>
</g>
<g clip-path="url(#a)">
<use x="1404.672179" y="762.722645" fill="#ffffff" stroke="#ffffff" xlink:href="#b"/>
</g>
<g clip-path="url(#a)">
<use x="616.367964" y="37.277355" fill="#ffffff" stroke="#ffffff" xlink:href="#b"/>
</g>
<g clip-path="url(#a)">
<use x="223.029007" y="164.341577" fill="#ffffff" stroke="#ffffff" xlink:href="#b"/>
</g>
<g clip-path="url(#a)">
<use x="713.951987" y="645.492499" fill="#ffffff" stroke="#ffffff" xlink:href="#b"/>
</g>
<g clip-path="url(#a)">
<use x="912.122899" y="288.251704" fill="#ffffff" stroke="#ffffff" xlink:href="#b"/>
</g>
<g clip-path="url(#a)">
<use x="760" y="645.492499" fill="#ffffff" stroke="#ffffff" xlink:href="#b"/>
</g>
<g clip-path="url(#a)">
<use x="806.048013" y="645.492499" fill="#ffffff" stroke="#ffffff" xlink:href="#b"/>
</g>
<g clip-path="url(#a)">
<use x="852.096026" y="645.492499" fill="#ffffff" stroke="#ffffff" xlink:href="#b"/>
</g>
<g clip-path="url(#a)">
<use x="1134.140104" y="409.401407" fill="#ffffff" stroke="#ffffff" xlink:href="#b"/>
</g>
<g clip-path="url(#a)">
<use x="1036.288077" y="645.492499" fill="#ffffff" stroke="#ffffff" xlink:href="#b"/>
</g>
<g clip-path="url(#a)">
<use x="1082.336089" y="645.492499" fill="#ffffff" stroke="#ffffff" xlink:href="#b"/>
</g>
<g clip-path="url(#a)">
<use x="1128.384102" y="645.492499" fill="#ffffff" stroke="#ffffff" xlink:href="#b"/>
</g>
<g clip-path="url(#a)">
<use x="1289.552147" y="528.262354" fill="#ffffff" stroke="#ffffff" xlink:href="#b"/>
</g>
<g clip-path="url(#a)">
<use x="1174.432115" y="645.492499" fill="#ffffff" stroke="#ffffff" xlink:href="#b"/>
</g>
<g clip-path="url(#a)">
<use x="1220.480128" y="645.492499" fill="#ffffff" stroke="#ffffff" xlink:href="#b"/>
</g>
<g clip-path="url(#a)">
<use x="1266.52814" y="645.492499" fill="#ffffff" stroke="#ffffff" xlink:href="#b"/>
</g>
<g clip-path="url(#a)">
<use x="1312.576153" y="645.492499" fill="#ffffff" stroke="#ffffff" xlink:href="#b"/>
</g>
<g clip-path="url(#a)">
<use x="69.279808" y="645.492499" fill="#ffffff" stroke="#ffffff" xlink:href="#b"/>
</g>
<g clip-path="url(#a)">
<use x="115.327821" y="645.492499" fill="#ffffff" stroke="#ffffff" xlink:href="#b"/>
</g>
<g clip-path="url(#a)">
<use x="161.375834" y="645.492499" fill="#ffffff" stroke="#ffffff" xlink:href="#b"/>
</g>
<g clip-path="url(#a)">
<use x="207.423847" y="645.492499" fill="#ffffff" stroke="#ffffff" xlink:href="#b"/>
</g>
<g clip-path="url(#a)">
<use x="531.29487" y="288.251704" fill="#ffffff" stroke="#ffffff" xlink:href="#b"/>
</g>
<g clip-path="url(#a)">
<use x="299.519872" y="645.492499" fill="#ffffff" stroke="#ffffff" xlink:href="#b"/>
</g>
<g clip-path="url(#a)">
<use x="345.567885" y="645.492499" fill="#ffffff" stroke="#ffffff" xlink:href="#b"/>
</g>
<g clip-path="url(#a)">
<use x="767.674669" y="409.401407" fill="#ffffff" stroke="#ffffff" xlink:href="#b"/>
</g>
<g clip-path="url(#a)">
<use x="575.807949" y="645.492499" fill="#ffffff" stroke="#ffffff" xlink:href="#b"/>
</g>
<g clip-path="url(#a)">
<use x="667.903974" y="645.492499" fill="#ffffff" stroke="#ffffff" xlink:href="#b"/>
</g>
<g clip-path="url(#a)">
<use x="1450.720192" y="762.722645" fill="#ffffff" stroke="#ffffff" xlink:href="#b"/>
</g>
<g clip-path="url(#a)">
<use x="391.615898" y="645.492499" fill="#ffffff" stroke="#ffffff" xlink:href="#b"/>
</g>
<g clip-path="url(#a)">
<use x="460.687917" y="528.262354" fill="#ffffff" stroke="#ffffff" xlink:href="#b"/>
</g>
<g clip-path="url(#a)">
<use x="437.663911" y="645.492499" fill="#ffffff" stroke="#ffffff" xlink:href="#b"/>
</g>
<g clip-path="url(#a)">
<use x="483.711923" y="645.492499" fill="#ffffff" stroke="#ffffff" xlink:href="#b"/>
</g>
<g clip-path="url(#a)">
<use x="253.47186" y="645.492499" fill="#ffffff" stroke="#ffffff" xlink:href="#b"/>
</g>
<g clip-path="url(#a)">
<use x="898.144038" y="645.492499" fill="#ffffff" stroke="#ffffff" xlink:href="#b"/>
</g>
<g clip-path="url(#a)">
<use x="944.192051" y="645.492499" fill="#ffffff" stroke="#ffffff" xlink:href="#b"/>
</g>
<g clip-path="url(#a)">
<use x="990.240064" y="645.492499" fill="#ffffff" stroke="#ffffff" xlink:href="#b"/>
</g>
<g clip-path="url(#a)">
<use x="1358.624166" y="645.492499" fill="#ffffff" stroke="#ffffff" xlink:href="#b"/>
</g>
<g clip-path="url(#a)">
<use x="1404.672179" y="645.492499" fill="#ffffff" stroke="#ffffff" xlink:href="#b"/>
</g>
<g clip-path="url(#a)">
<defs>
<path id="ap" d="m30.609 48.391q-7.2188 0-11.422-5.6406t-4.2031-15.453 4.1719-15.453q4.1875-5.6406 11.453-5.6406 7.1875 0 11.375 5.6562 4.2031 5.6719 4.2031 15.438 0 9.7188-4.2031 15.406-4.1875 5.6875-11.375 5.6875zm0 7.6094q11.719 0 18.406-7.625 6.7031-7.6094 6.7031-21.078 0-13.422-6.7031-21.078-6.6875-7.6406-18.406-7.6406-11.766 0-18.438 7.6406-6.6562 7.6562-6.6562 21.078 0 13.469 6.6562 21.078 6.6719 7.625 18.438 7.625zm4.6094 19.781h9.9062v-9.8594h-9.9062zm-19.094 0h9.9062v-9.8594h-9.9062z"/>
<path id="r" d="m18.312 70.219v-15.531h18.5v-6.9844h-18.5v-29.688q0-6.6875 1.8281-8.5938t7.4531-1.9062h9.2188v-7.5156h-9.2188q-10.406 0-14.359 3.875-3.9531 3.8906-3.9531 14.141v29.688h-6.5938v6.9844h6.5938v15.531z"/>
<path id="az" d="m5.5156 54.688h42.672v-8.2031l-33.781-39.312h33.781v-7.1719h-43.891v8.2031l33.797 39.312h-32.578z"/>
<path id="u" d="m48.781 52.594v-8.4062q-3.8125 2.1094-7.6406 3.1562t-7.7344 1.0469q-8.75 0-13.594-5.5469-4.8281-5.5312-4.8281-15.547t4.8281-15.562q4.8438-5.5312 13.594-5.5312 3.9062 0 7.7344 1.0469t7.6406 3.1562v-8.3125q-3.7656-1.75-7.7969-2.625-4.0156-0.89062-8.5625-0.89062-12.359 0-19.641 7.7656-7.2656 7.7656-7.2656 20.953 0 13.375 7.3438 21.031 7.3594 7.6719 20.156 7.6719 4.1406 0 8.0938-0.85938 3.9531-0.84375 7.6719-2.5469z"/>
<path id="t" d="m54.891 33.016v-33.016h-8.9844v32.719q0 7.7656-3.0312 11.609-3.0312 3.8594-9.0781 3.8594-7.2812 0-11.484-4.6406-4.2031-4.625-4.2031-12.641v-30.906h-9.0312v75.984h9.0312v-29.797q3.2344 4.9375 7.5938 7.375 4.375 2.4375 10.094 2.4375 9.4219 0 14.25-5.8281 4.8438-5.8281 4.8438-17.156z"/>
</defs>
<g transform="translate(48.536 765.48) scale(.1 -.1)">
<use xlink:href="#w"/>
<use x="60.302734" xlink:href="#h"/>
<use x="88.085938" xlink:href="#ap"/>
<use x="149.267578" xlink:href="#r"/>
<use x="188.476562" xlink:href="#az"/>
<use x="240.966797" xlink:href="#h"/>
<use x="268.75" xlink:href="#g"/>
<use x="296.533203" xlink:href="#u"/>
<use x="351.513672" xlink:href="#t"/>
</g>
</g>
<g clip-path="url(#a)">
<defs>
<path id="ai" d="m4.2031 54.688h8.9844l11.234-42.672 11.172 42.672h10.594l11.234-42.672 11.188 42.672h8.9844l-14.312-54.688h-10.594l-11.766 44.828-11.812-44.828h-10.609z"/>
<path id="ac" d="m8.5 21.578v33.109h8.9844v-32.766q0-7.7656 3.0156-11.656 3.0312-3.875 9.0938-3.875 7.2656 0 11.484 4.6406 4.2344 4.6406 4.2344 12.656v31h8.9844v-54.688h-8.9844v8.4062q-3.2656-4.9844-7.5938-7.4062-4.3125-2.4219-10.031-2.4219-9.4219 0-14.312 5.8594-4.875 5.8594-4.875 17.141z"/>
<path id="aj" d="m45.406 46.391v29.594h8.9844v-75.984h-8.9844v8.2031q-2.8281-4.875-7.1562-7.25-4.3125-2.375-10.375-2.375-9.9062 0-16.141 7.9062-6.2188 7.9219-6.2188 20.812t6.2188 20.797q6.2344 7.9062 16.141 7.9062 6.0625 0 10.375-2.375 4.3281-2.3594 7.1562-7.2344zm-30.609-19.094q0-9.9062 4.0781-15.547t11.203-5.6406 11.219 5.6406q4.1094 5.6406 4.1094 15.547t-4.1094 15.547q-4.0938 5.6406-11.219 5.6406t-11.203-5.6406-4.0781-15.547z"/>
</defs>
<g transform="translate(99.765 765.48) scale(.1 -.1)">
<use xlink:href="#ai"/>
<use x="81.787109" xlink:href="#ac"/>
<use x="145.166016" xlink:href="#j"/>
<use x="186.263672" xlink:href="#aj"/>
<use x="249.740234" xlink:href="#d"/>
</g>
</g>
<g clip-path="url(#a)">
<g transform="translate(153.06 765.48) scale(.1 -.1)">
<use xlink:href="#k"/>
<use x="97.412109" xlink:href="#g"/>
<use x="125.195312" xlink:href="#j"/>
</g>
</g>
<g clip-path="url(#a)">
<defs>
<path id="ar" d="m9.0781 75.984h9.0312v-44.875l26.812 23.578h11.469l-29-25.578 30.234-29.109h-11.719l-27.797 26.703v-26.703h-9.0312z"/>
</defs>
<g transform="translate(198.02 765.48) scale(.1 -.1)">
<use xlink:href="#ar"/>
<use x="57.910156" xlink:href="#h"/>
<use x="85.693359" xlink:href="#f"/>
<use x="146.972656" xlink:href="#j"/>
</g>
</g>
<g clip-path="url(#a)">
<defs>
<path id="ay" d="m11.719 12.406h10.297v-8.4062l-8-15.625h-6.2969l4 15.625z"/>
</defs>
<g transform="translate(251.88 765.48) scale(.1 -.1)">
<use xlink:href="#ay"/>
</g>
</g>
<g clip-path="url(#a)">
<defs>
<path id="p" d="m44.281 53.078v-8.5q-3.7969 1.9531-7.9062 2.9219-4.0938 0.98438-8.5 0.98438-6.6875 0-10.031-2.0469t-3.3438-6.1562q0-3.125 2.3906-4.9062t9.625-3.3906l3.0781-0.6875q9.5625-2.0469 13.594-5.7812t4.0312-10.422q0-7.625-6.0312-12.078-6.0312-4.4375-16.578-4.4375-4.3906 0-9.1562 0.85938t-10.031 2.5625v9.2812q4.9844-2.5938 9.8125-3.8906 4.8281-1.2812 9.5781-1.2812 6.3438 0 9.75 2.1719 3.4219 2.1719 3.4219 6.125 0 3.6562-2.4688 5.6094-2.4531 1.9531-10.812 3.7656l-3.125 0.73438q-8.3438 1.75-12.062 5.3906-3.7031 3.6406-3.7031 9.9844 0 7.7188 5.4688 11.906 5.4688 4.2031 15.531 4.2031 4.9688 0 9.3594-0.73438 4.4062-0.71875 8.1094-2.1875z"/>
</defs>
<g transform="translate(289.76 765.48) scale(.1 -.1)">
<use xlink:href="#ai"/>
<use x="81.787109" xlink:href="#f"/>
<use x="143.066406" xlink:href="#p"/>
</g>
</g>
<g clip-path="url(#a)">
<g transform="translate(339.89 765.48) scale(.1 -.1)">
<use xlink:href="#d"/>
<use x="61.523438" xlink:href="#p"/>
</g>
</g>
<g clip-path="url(#a)">
<g transform="translate(383.4 765.48) scale(.1 -.1)">
<use xlink:href="#k"/>
<use x="97.412109" xlink:href="#g"/>
<use x="125.195312" xlink:href="#r"/>
</g>
</g>
<g clip-path="url(#a)">
<g transform="translate(422.29 765.48) scale(.1 -.1)">
<use xlink:href="#p"/>
<use x="52.099609" xlink:href="#d"/>
<use x="113.623047" xlink:href="#g"/>
<use x="141.40625" xlink:href="#e"/>
<use x="204.785156" xlink:href="#d"/>
<use x="266.308594" xlink:href="#j"/>
</g>
</g>
<g clip-path="url(#a)">
<g transform="translate(451.51 765.48) scale(.1 -.1)">
<use xlink:href="#o"/>
<use x="68.408203" xlink:href="#e"/>
<use x="131.787109" xlink:href="#ai"/>
<use x="213.574219" xlink:href="#d"/>
<use x="275.097656" xlink:href="#p"/>
<use x="327.197266" xlink:href="#d"/>
<use x="388.720703" xlink:href="#e"/>
<use x="452.099609" xlink:href="#t"/>
<use x="515.478516" xlink:href="#d"/>
<use x="577.001953" xlink:href="#g"/>
<use x="604.785156" xlink:href="#r"/>
</g>
</g>
<g clip-path="url(#a)">
<defs>
<path id="as" d="m37.109 75.984v-7.4844h-8.5938q-4.8281 0-6.7188-1.9531-1.875-1.9531-1.875-7.0312v-4.8281h14.797v-6.9844h-14.797v-47.703h-9.0312v47.703h-8.5938v6.9844h8.5938v3.8125q0 9.125 4.25 13.297 4.25 4.1875 13.469 4.1875z"/>
</defs>
<g transform="translate(521.77 765.48) scale(.1 -.1)">
<use xlink:href="#f"/>
<use x="61.279297" xlink:href="#ac"/>
<use x="124.658203" xlink:href="#as"/>
</g>
</g>
<g clip-path="url(#a)">
<g transform="translate(565.9 765.48) scale(.1 -.1)">
<use xlink:href="#p"/>
<use x="52.099609" xlink:href="#g"/>
<use x="79.882812" xlink:href="#u"/>
<use x="134.863281" xlink:href="#t"/>
</g>
</g>
<g clip-path="url(#a)">
<defs>
<path id="at" d="m48.688 27.297q0 9.9062-4.0781 15.547t-11.203 5.6406q-7.1406 0-11.219-5.6406t-4.0781-15.547 4.0781-15.547 11.219-5.6406q7.125 0 11.203 5.6406t4.0781 15.547zm-30.578 19.094q2.8438 4.875 7.1562 7.2344 4.3281 2.375 10.328 2.375 9.9688 0 16.188-7.9062 6.2344-7.9062 6.2344-20.797t-6.2344-20.812q-6.2188-7.9062-16.188-7.9062-6 0-10.328 2.375-4.3125 2.375-7.1562 7.25v-8.2031h-9.0312v75.984h9.0312z"/>
</defs>
<g transform="translate(606.2 765.48) scale(.1 -.1)">
<use xlink:href="#t"/>
<use x="63.378906" xlink:href="#f"/>
<use x="124.658203" xlink:href="#at"/>
<use x="188.134766" xlink:href="#d"/>
<use x="249.658203" xlink:href="#e"/>
</g>
</g>
<g clip-path="url(#a)">
<g transform="translate(650.58 765.48) scale(.1 -.1)">
<use xlink:href="#ar"/>
<use x="57.863281" xlink:href="#ap"/>
<use x="119.044922" xlink:href="#e"/>
<use x="182.423828" xlink:href="#e"/>
<use x="245.802734" xlink:href="#r"/>
<use x="285.011719" xlink:href="#d"/>
</g>
</g>
<g clip-path="url(#a)">
<g transform="translate(704.44 765.48) scale(.1 -.1)">
<use xlink:href="#ac"/>
<use x="63.378906" xlink:href="#e"/>
<use x="126.757812" xlink:href="#aj"/>
</g>
</g>
<g clip-path="url(#a)">
<g transform="translate(752.69 765.48) scale(.1 -.1)">
<use xlink:href="#g"/>
<use x="27.783203" xlink:href="#u"/>
<use x="82.763672" xlink:href="#t"/>
</g>
</g>
<g clip-path="url(#a)">
<defs>
<path id="bb" d="m45.406 27.984q0 9.7656-4.0312 15.125-4.0156 5.375-11.297 5.375-7.2188 0-11.25-5.375-4.0312-5.3594-4.0312-15.125 0-9.7188 4.0312-15.094t11.25-5.375q7.2812 0 11.297 5.375 4.0312 5.375 4.0312 15.094zm8.9844-21.203q0-13.953-6.2031-20.766-6.1875-6.8125-18.984-6.8125-4.7344 0-8.9375 0.70312t-8.1562 2.1719v8.7344q3.9531-2.1406 7.8125-3.1562 3.8594-1.0312 7.8594-1.0312 8.8438 0 13.234 4.6094t4.3906 13.938v4.4531q-2.7812-4.8438-7.125-7.2344t-10.406-2.3906q-10.047 0-16.203 7.6562-6.1562 7.6719-6.1562 20.328 0 12.688 6.1562 20.344 6.1562 7.6719 16.203 7.6719 6.0625 0 10.406-2.3906t7.125-7.2188v8.2969h8.9844z"/>
</defs>
<g transform="translate(790.96 765.48) scale(.1 -.1)">
<use xlink:href="#as"/>
<use x="35.205078" xlink:href="#j"/>
<use x="76.318359" xlink:href="#f"/>
<use x="137.597656" xlink:href="#bb"/>
<use x="201.074219" xlink:href="#r"/>
<use x="240.283203" xlink:href="#d"/>
</g>
</g>
<g clip-path="url(#a)">
<g transform="translate(834.55 765.48) scale(.1 -.1)">
<use xlink:href="#p"/>
<use x="52.099609" xlink:href="#u"/>
<use x="107.080078" xlink:href="#t"/>
<use x="170.458984" xlink:href="#e"/>
<use x="233.837891" xlink:href="#d"/>
<use x="295.361328" xlink:href="#h"/>
<use x="323.144531" xlink:href="#h"/>
</g>
</g>
<g clip-path="url(#a)">
<defs>
<path id="aw" d="m11.719 12.406h10.297v-12.406h-10.297zm0 39.297h10.297v-12.391h-10.297z"/>
</defs>
<g transform="translate(896.46 765.48) scale(.1 -.1)">
<use xlink:href="#aw"/>
</g>
</g>
<g clip-path="url(#a)">
<defs>
<path id="ax" d="m4.8906 31.391h26.312v-8h-26.312z"/>
</defs>
<g transform="translate(942.39 765.48) scale(.1 -.1)">
<use xlink:href="#ax"/>
</g>
</g>
<g clip-path="url(#a)">
<defs>
<path id="ao" d="m17.922 72.906v-27.109h-8.2969v27.109zm18.453 0v-27.109h-8.2969v27.109z"/>
</defs>
<g transform="translate(987.94 765.48) scale(.1 -.1)">
<use xlink:href="#ao"/>
</g>
</g>
<g clip-path="url(#a)">
<g transform="translate(1029.3 765.48) scale(.1 -.1)">
<use xlink:href="#y"/>
<use x="77.001953" xlink:href="#ac"/>
</g>
</g>
<g clip-path="url(#a)">
<g transform="translate(1060.4 765.48) scale(.1 -.1)">
<use xlink:href="#p"/>
<use x="52.099609" xlink:href="#r"/>
<use x="91.308594" xlink:href="#f"/>
<use x="152.587891" xlink:href="#k"/>
<use x="250" xlink:href="#k"/>
<use x="347.412109" xlink:href="#p"/>
<use x="399.511719" xlink:href="#r"/>
</g>
</g>
<g clip-path="url(#a)">
<defs>
<path id="aq" d="m30.609 48.391q-7.2188 0-11.422-5.6406t-4.2031-15.453 4.1719-15.453q4.1875-5.6406 11.453-5.6406 7.1875 0 11.375 5.6562 4.2031 5.6719 4.2031 15.438 0 9.7188-4.2031 15.406-4.1875 5.6875-11.375 5.6875zm0 7.6094q11.719 0 18.406-7.625 6.7031-7.6094 6.7031-21.078 0-13.422-6.7031-21.078-6.6875-7.6406-18.406-7.6406-11.766 0-18.438 7.6406-6.6562 7.6562-6.6562 21.078 0 13.469 6.6562 21.078 6.6719 7.625 18.438 7.625z"/>
</defs>
<g transform="translate(1118.3 765.48) scale(.1 -.1)">
<use xlink:href="#f"/>
<use x="61.279297" xlink:href="#h"/>
<use x="89.0625" xlink:href="#p"/>
<use x="141.162109" xlink:href="#aq"/>
</g>
</g>
<g clip-path="url(#a)">
<defs>
<path id="ba" d="m2.9844 54.688h9.5156l17.094-45.891 17.094 45.891h9.5156l-20.516-54.688h-12.203z"/>
</defs>
<g transform="translate(1165.2 765.48) scale(.1 -.1)">
<use xlink:href="#ba"/>
<use x="59.179688" xlink:href="#aq"/>
<use x="120.361328" xlink:href="#e"/>
</g>
</g>
<g clip-path="url(#a)">
<g transform="translate(1204.9 765.48) scale(.1 -.1)">
<use xlink:href="#d"/>
<use x="61.523438" xlink:href="#g"/>
<use x="89.306641" xlink:href="#e"/>
<use x="152.685547" xlink:href="#d"/>
<use x="214.208984" xlink:href="#k"/>
</g>
</g>
<g clip-path="url(#a)">
<g transform="translate(1245.7 765.48) scale(.1 -.1)">
<use xlink:href="#f"/>
<use x="61.279297" xlink:href="#e"/>
<use x="124.658203" xlink:href="#aj"/>
<use x="188.134766" xlink:href="#d"/>
<use x="249.658203" xlink:href="#j"/>
<use x="290.740234" xlink:href="#d"/>
<use x="352.263672" xlink:href="#e"/>
</g>
</g>
<g clip-path="url(#a)">
<g transform="translate(1290.7 765.48) scale(.1 -.1)">
<use xlink:href="#w"/>
<use x="60.302734" xlink:href="#h"/>
<use x="88.085938" xlink:href="#f"/>
<use x="149.365234" xlink:href="#e"/>
<use x="212.744141" xlink:href="#d"/>
<use x="274.267578" xlink:href="#r"/>
<use x="313.476562" xlink:href="#d"/>
<use x="375" xlink:href="#e"/>
</g>
</g>
<g clip-path="url(#a)">
<defs>
<path id="av" d="m19.094 12.406h9.9062v-12.406h-9.9062zm9.625 7.1719h-9.3281v7.5156q0 4.9375 1.3594 8.1094 1.375 3.1719 5.7656 7.375l4.3906 4.3438q2.7812 2.5938 4.0312 4.8906t1.25 4.6875q0 4.3438-3.2031 7.0312t-8.4688 2.6875q-3.8594 0-8.2344-1.7188-4.3594-1.7031-9.1094-4.9844v9.1875q4.5938 2.7812 9.2969 4.1406 4.7188 1.375 9.75 1.375 8.9844 0 14.422-4.7344 5.4531-4.7344 5.4531-12.5 0-3.7188-1.7656-7.0625-1.75-3.3438-6.1406-7.5312l-4.2969-4.2031q-2.2969-2.2969-3.25-3.5938t-1.3438-2.5156q-0.29688-1.0156-0.4375-2.4844t-0.14062-4z"/>
</defs>
<g transform="translate(1356 765.48) scale(.1 -.1)">
<use xlink:href="#av"/>
</g>
</g>
<g clip-path="url(#a)">
<g transform="translate(1402.4 765.48) scale(.1 -.1)">
<use xlink:href="#ao"/>
</g>
</g>
<g clip-path="url(#a)">
<defs>
<path id="c" d="m12.406 8.2969h16.109v55.625l-17.531-3.5156v8.9844l17.438 3.5156h9.8594v-64.609h16.109v-8.2969h-41.984z"/>
<path id="i" d="m10.688 12.406h10.312v-12.406h-10.312z"/>
</defs>
<g transform="translate(608.42 40.037) scale(.1 -.1)">
<use xlink:href="#c"/>
<use x="63.623047" xlink:href="#i"/>
<use x="95.410156" xlink:href="#c"/>
</g>
</g>
<g clip-path="url(#a)">
<defs>
<path id="m" d="m19.188 8.2969h34.422v-8.2969h-46.281v8.2969q5.6094 5.8125 15.297 15.594 9.7031 9.7969 12.188 12.641 4.7344 5.3125 6.6094 9 1.8906 3.6875 1.8906 7.25 0 5.8125-4.0781 9.4688-4.0781 3.6719-10.625 3.6719-4.6406 0-9.7969-1.6094-5.1406-1.6094-11-4.8906v9.9688q5.9531 2.3906 11.125 3.6094 5.1875 1.2188 9.4844 1.2188 11.328 0 18.062-5.6719 6.7344-5.6562 6.7344-15.125 0-4.5-1.6875-8.5312-1.6719-4.0156-6.125-9.4844-1.2188-1.4219-7.7656-8.1875-6.5312-6.7656-18.453-18.922z"/>
</defs>
<g transform="translate(215.08 167.1) scale(.1 -.1)">
<use xlink:href="#c"/>
<use x="63.623047" xlink:href="#i"/>
<use x="95.410156" xlink:href="#m"/>
</g>
</g>
<g clip-path="url(#a)">
<defs>
<path id="n" d="m40.578 39.312q7.0781-1.5156 11.047-6.3125 3.9844-4.7812 3.9844-11.812 0-10.781-7.4219-16.703-7.4219-5.9062-21.094-5.9062-4.5781 0-9.4375 0.90625t-10.031 2.7188v9.5156q4.0938-2.3906 8.9688-3.6094 4.8906-1.2188 10.219-1.2188 9.2656 0 14.125 3.6562t4.8594 10.641q0 6.4531-4.5156 10.078-4.5156 3.6406-12.562 3.6406h-8.5v8.1094h8.8906q7.2656 0 11.125 2.9062t3.8594 8.375q0 5.6094-3.9844 8.6094-3.9688 3.0156-11.391 3.0156-4.0625 0-8.7031-0.89062-4.6406-0.875-10.203-2.7188v8.7812q5.625 1.5625 10.531 2.3438t9.25 0.78125q11.234 0 17.766-5.1094 6.5469-5.0938 6.5469-13.781 0-6.0625-3.4688-10.234t-9.8594-5.7812z"/>
</defs>
<g transform="translate(706 648.25) scale(.1 -.1)">
<use xlink:href="#c"/>
<use x="63.623047" xlink:href="#i"/>
<use x="95.410156" xlink:href="#n"/>
</g>
</g>
<g clip-path="url(#a)">
<defs>
<path id="q" d="m37.797 64.312-24.906-38.922h24.906zm-2.5938 8.5938h12.406v-47.516h10.406v-8.2031h-10.406v-17.188h-9.8125v17.188h-32.906v9.5156z"/>
</defs>
<g transform="translate(904.17 291.01) scale(.1 -.1)">
<use xlink:href="#c"/>
<use x="63.623047" xlink:href="#i"/>
<use x="95.410156" xlink:href="#q"/>
</g>
</g>
<g clip-path="url(#a)">
<defs>
<path id="af" d="m8.2031 72.906h46.875v-4.2031l-26.469-68.703h-10.297l24.906 64.594h-35.016z"/>
</defs>
<g transform="translate(752.05 648.25) scale(.1 -.1)">
<use xlink:href="#c"/>
<use x="63.623047" xlink:href="#i"/>
<use x="95.410156" xlink:href="#af"/>
</g>
</g>
<g clip-path="url(#a)">
<defs>
<path id="aa" d="m31.781 34.625q-7.0312 0-11.062-3.7656-4.0156-3.7656-4.0156-10.344 0-6.5938 4.0156-10.359 4.0312-3.7656 11.062-3.7656t11.078 3.7812q4.0625 3.7969 4.0625 10.344 0 6.5781-4.0312 10.344-4.0156 3.7656-11.109 3.7656zm-9.8594 4.1875q-6.3438 1.5625-9.8906 5.9062-3.5312 4.3594-3.5312 10.609 0 8.7344 6.2188 13.812 6.2344 5.0781 17.062 5.0781 10.891 0 17.094-5.0781t6.2031-13.812q0-6.25-3.5469-10.609-3.5312-4.3438-9.8281-5.9062 7.125-1.6562 11.094-6.5 3.9844-4.8281 3.9844-11.797 0-10.609-6.4688-16.281-6.4688-5.6562-18.531-5.6562-12.047 0-18.531 5.6562-6.4688 5.6719-6.4688 16.281 0 6.9688 4 11.797 4.0156 4.8438 11.141 6.5zm-3.6094 15.578q0-5.6562 3.5312-8.8281 3.5469-3.1719 9.9375-3.1719 6.3594 0 9.9375 3.1719 3.5938 3.1719 3.5938 8.8281 0 5.6719-3.5938 8.8438-3.5781 3.1719-9.9375 3.1719-6.3906 0-9.9375-3.1719-3.5312-3.1719-3.5312-8.8438z"/>
</defs>
<g transform="translate(798.1 648.25) scale(.1 -.1)">
<use xlink:href="#c"/>
<use x="63.623047" xlink:href="#i"/>
<use x="95.410156" xlink:href="#aa"/>
</g>
</g>
<g clip-path="url(#a)">
<defs>
<path id="z" d="m10.984 1.5156v8.9844q3.7188-1.7656 7.5156-2.6875 3.8125-0.92188 7.4844-0.92188 9.7656 0 14.906 6.5625 5.1562 6.5625 5.8906 19.953-2.8281-4.2031-7.1875-6.4531-4.3438-2.25-9.6094-2.25-10.938 0-17.312 6.6094-6.375 6.625-6.375 18.109 0 11.219 6.6406 18 6.6406 6.7969 17.672 6.7969 12.656 0 19.312-9.7031 6.6719-9.6875 6.6719-28.141 0-17.234-8.1875-27.516-8.1719-10.281-21.984-10.281-3.7188 0-7.5312 0.73438-3.7969 0.73438-7.9062 2.2031zm19.625 30.906q6.6406 0 10.516 4.5312 3.8906 4.5469 3.8906 12.469 0 7.8594-3.8906 12.422-3.875 4.5625-10.516 4.5625t-10.516-4.5625-3.875-12.422q0-7.9219 3.875-12.469 3.875-4.5312 10.516-4.5312z"/>
</defs>
<g transform="translate(844.14 648.25) scale(.1 -.1)">
<use xlink:href="#c"/>
<use x="63.623047" xlink:href="#i"/>
<use x="95.410156" xlink:href="#z"/>
</g>
</g>
<g clip-path="url(#a)">
<defs>
<path id="ab" d="m31.781 66.406q-7.6094 0-11.453-7.5-3.8281-7.4844-3.8281-22.531 0-14.984 3.8281-22.484 3.8438-7.5 11.453-7.5 7.6719 0 11.5 7.5 3.8438 7.5 3.8438 22.484 0 15.047-3.8438 22.531-3.8281 7.5-11.5 7.5zm0 7.8125q12.266 0 18.734-9.7031 6.4688-9.6875 6.4688-28.141 0-18.406-6.4688-28.109-6.4688-9.6875-18.734-9.6875-12.25 0-18.719 9.6875-6.4688 9.7031-6.4688 28.109 0 18.453 6.4688 28.141 6.4688 9.7031 18.719 9.7031z"/>
</defs>
<g transform="translate(1123 412.16) scale(.1 -.1)">
<use xlink:href="#c"/>
<use x="63.623047" xlink:href="#i"/>
<use x="95.410156" xlink:href="#c"/>
<use x="159.033203" xlink:href="#ab"/>
</g>
</g>
<g clip-path="url(#a)">
<g transform="translate(1025.2 648.25) scale(.1 -.1)">
<use xlink:href="#c"/>
<use x="63.623047" xlink:href="#i"/>
<use x="95.410156" xlink:href="#c"/>
<use x="159.033203" xlink:href="#q"/>
</g>
</g>
<g clip-path="url(#a)">
<defs>
<path id="ah" d="m10.797 72.906h38.719v-8.3125h-29.688v-17.859q2.1406 0.73438 4.2812 1.0938 2.1562 0.35938 4.3125 0.35938 12.203 0 19.328-6.6875 7.1406-6.6875 7.1406-18.109 0-11.766-7.3281-18.297-7.3281-6.5156-20.656-6.5156-4.5938 0-9.3594 0.78125-4.75 0.78125-9.8281 2.3438v9.9219q4.3906-2.3906 9.0781-3.5625t9.9062-1.1719q8.4531 0 13.375 4.4375 4.9375 4.4375 4.9375 12.062 0 7.6094-4.9375 12.047-4.9219 4.4531-13.375 4.4531-3.9531 0-7.8906-0.875-3.9219-0.875-8.0156-2.7344z"/>
</defs>
<g transform="translate(1071.2 648.25) scale(.1 -.1)">
<use xlink:href="#c"/>
<use x="63.623047" xlink:href="#i"/>
<use x="95.410156" xlink:href="#c"/>
<use x="159.033203" xlink:href="#ah"/>
</g>
</g>
<g clip-path="url(#a)">
<defs>
<path id="ag" d="m33.016 40.375q-6.6406 0-10.531-4.5469-3.875-4.5312-3.875-12.438 0-7.8594 3.875-12.438 3.8906-4.5625 10.531-4.5625t10.516 4.5625q3.875 4.5781 3.875 12.438 0 7.9062-3.875 12.438-3.875 4.5469-10.516 4.5469zm19.578 30.922v-8.9844q-3.7188 1.75-7.5 2.6719-3.7812 0.9375-7.5 0.9375-9.7656 0-14.922-6.5938-5.1406-6.5938-5.875-19.922 2.875 4.25 7.2188 6.5156 4.3594 2.2656 9.5781 2.2656 10.984 0 17.359-6.6719 6.375-6.6562 6.375-18.125 0-11.234-6.6406-18.031-6.6406-6.7812-17.672-6.7812-12.656 0-19.344 9.6875-6.6875 9.7031-6.6875 28.109 0 17.281 8.2031 27.562t22.016 10.281q3.7188 0 7.5-0.73438t7.8906-2.1875z"/>
</defs>
<g transform="translate(1117.3 648.25) scale(.1 -.1)">
<use xlink:href="#c"/>
<use x="63.623047" xlink:href="#i"/>
<use x="95.410156" xlink:href="#c"/>
<use x="159.033203" xlink:href="#ag"/>
</g>
</g>
<g clip-path="url(#a)">
<g transform="translate(1278.4 531.02) scale(.1 -.1)">
<use xlink:href="#c"/>
<use x="63.623047" xlink:href="#i"/>
<use x="95.410156" xlink:href="#c"/>
<use x="159.033203" xlink:href="#af"/>
</g>
</g>
<g clip-path="url(#a)">
<g transform="translate(1163.3 648.25) scale(.1 -.1)">
<use xlink:href="#c"/>
<use x="63.623047" xlink:href="#i"/>
<use x="95.410156" xlink:href="#c"/>
<use x="159.033203" xlink:href="#aa"/>
</g>
</g>
<g clip-path="url(#a)">
<g transform="translate(1209.3 648.25) scale(.1 -.1)">
<use xlink:href="#c"/>
<use x="63.623047" xlink:href="#i"/>
<use x="95.410156" xlink:href="#c"/>
<use x="159.033203" xlink:href="#z"/>
</g>
</g>
<g clip-path="url(#a)">
<g transform="translate(1255.4 648.25) scale(.1 -.1)">
<use xlink:href="#c"/>
<use x="63.623047" xlink:href="#i"/>
<use x="95.410156" xlink:href="#m"/>
<use x="159.033203" xlink:href="#ab"/>
</g>
</g>
<g clip-path="url(#a)">
<g transform="translate(1301.4 648.25) scale(.1 -.1)">
<use xlink:href="#c"/>
<use x="63.623047" xlink:href="#i"/>
<use x="95.410156" xlink:href="#m"/>
<use x="159.033203" xlink:href="#c"/>
</g>
</g>
<g clip-path="url(#a)">
<g transform="translate(58.147 648.25) scale(.1 -.1)">
<use xlink:href="#c"/>
<use x="63.623047" xlink:href="#i"/>
<use x="95.410156" xlink:href="#m"/>
<use x="159.033203" xlink:href="#m"/>
</g>
</g>
<g clip-path="url(#a)">
<g transform="translate(104.2 648.25) scale(.1 -.1)">
<use xlink:href="#c"/>
<use x="63.623047" xlink:href="#i"/>
<use x="95.410156" xlink:href="#m"/>
<use x="159.033203" xlink:href="#n"/>
</g>
</g>
<g clip-path="url(#a)">
<g transform="translate(150.24 648.25) scale(.1 -.1)">
<use xlink:href="#c"/>
<use x="63.623047" xlink:href="#i"/>
<use x="95.410156" xlink:href="#m"/>
<use x="159.033203" xlink:href="#q"/>
</g>
</g>
<g clip-path="url(#a)">
<g transform="translate(196.29 648.25) scale(.1 -.1)">
<use xlink:href="#c"/>
<use x="63.623047" xlink:href="#i"/>
<use x="95.410156" xlink:href="#m"/>
<use x="159.033203" xlink:href="#ah"/>
</g>
</g>
<g clip-path="url(#a)">
<g transform="translate(520.16 291.01) scale(.1 -.1)">
<use xlink:href="#c"/>
<use x="63.623047" xlink:href="#i"/>
<use x="95.410156" xlink:href="#m"/>
<use x="159.033203" xlink:href="#ag"/>
</g>
</g>
<g clip-path="url(#a)">
<g transform="translate(288.39 648.25) scale(.1 -.1)">
<use xlink:href="#c"/>
<use x="63.623047" xlink:href="#i"/>
<use x="95.410156" xlink:href="#m"/>
<use x="159.033203" xlink:href="#aa"/>
</g>
</g>
<g clip-path="url(#a)">
<g transform="translate(334.44 648.25) scale(.1 -.1)">
<use xlink:href="#c"/>
<use x="63.623047" xlink:href="#i"/>
<use x="95.410156" xlink:href="#m"/>
<use x="159.033203" xlink:href="#z"/>
</g>
</g>
<g clip-path="url(#a)">
<g transform="translate(756.54 412.16) scale(.1 -.1)">
<use xlink:href="#c"/>
<use x="63.623047" xlink:href="#i"/>
<use x="95.410156" xlink:href="#n"/>
<use x="159.033203" xlink:href="#ab"/>
</g>
</g>
<g clip-path="url(#a)">
<g transform="translate(564.68 648.25) scale(.1 -.1)">
<use xlink:href="#c"/>
<use x="63.623047" xlink:href="#i"/>
<use x="95.410156" xlink:href="#n"/>
<use x="159.033203" xlink:href="#c"/>
</g>
</g>
<g clip-path="url(#a)">
<g transform="translate(656.77 648.25) scale(.1 -.1)">
<use xlink:href="#c"/>
<use x="63.623047" xlink:href="#i"/>
<use x="95.410156" xlink:href="#n"/>
<use x="159.033203" xlink:href="#m"/>
</g>
</g>
<g clip-path="url(#a)">
<defs>
<path id="ad" d="m9.8125 72.906h9.8594v-72.906h-9.8594z"/>
<path id="au" d="m9.8125 72.906h14.703l18.594-49.609 18.703 49.609h14.703v-72.906h-9.625v64.016l-18.797-50h-9.9062l-18.797 50v-64.016h-9.5781z"/>
</defs>
<g transform="translate(1429.6 765.48) scale(.1 -.1)">
<use xlink:href="#ad"/>
<use x="29.492188" xlink:href="#au"/>
<use x="115.771484" xlink:href="#w"/>
<use x="176.074219" xlink:href="#al"/>
<use x="231.787109" xlink:href="#ad"/>
<use x="261.279297" xlink:href="#ae"/>
<use x="331.103516" xlink:href="#ad"/>
<use x="360.595703" xlink:href="#l"/>
</g>
</g>
<g clip-path="url(#a)">
<g transform="translate(380.48 648.25) scale(.1 -.1)">
<use xlink:href="#c"/>
<use x="63.623047" xlink:href="#i"/>
<use x="95.410156" xlink:href="#n"/>
<use x="159.033203" xlink:href="#q"/>
</g>
</g>
<g clip-path="url(#a)">
<g transform="translate(449.56 531.02) scale(.1 -.1)">
<use xlink:href="#c"/>
<use x="63.623047" xlink:href="#i"/>
<use x="95.410156" xlink:href="#n"/>
<use x="159.033203" xlink:href="#ah"/>
</g>
</g>
<g clip-path="url(#a)">
<g transform="translate(426.53 648.25) scale(.1 -.1)">
<use xlink:href="#c"/>
<use x="63.623047" xlink:href="#i"/>
<use x="95.410156" xlink:href="#n"/>
<use x="159.033203" xlink:href="#ag"/>
</g>
</g>
<g clip-path="url(#a)">
<g transform="translate(472.58 648.25) scale(.1 -.1)">
<use xlink:href="#c"/>
<use x="63.623047" xlink:href="#i"/>
<use x="95.410156" xlink:href="#n"/>
<use x="159.033203" xlink:href="#af"/>
</g>
</g>
<g clip-path="url(#a)">
<g transform="translate(242.34 648.25) scale(.1 -.1)">
<use xlink:href="#c"/>
<use x="63.623047" xlink:href="#i"/>
<use x="95.410156" xlink:href="#n"/>
<use x="159.033203" xlink:href="#aa"/>
</g>
</g>
<g clip-path="url(#a)">
<g transform="translate(887.01 648.25) scale(.1 -.1)">
<use xlink:href="#c"/>
<use x="63.623047" xlink:href="#i"/>
<use x="95.410156" xlink:href="#n"/>
<use x="159.033203" xlink:href="#z"/>
</g>
</g>
<g clip-path="url(#a)">
<g transform="translate(933.06 648.25) scale(.1 -.1)">
<use xlink:href="#c"/>
<use x="63.623047" xlink:href="#i"/>
<use x="95.410156" xlink:href="#q"/>
<use x="159.033203" xlink:href="#ab"/>
</g>
</g>
<g clip-path="url(#a)">
<g transform="translate(979.11 648.25) scale(.1 -.1)">
<use xlink:href="#c"/>
<use x="63.623047" xlink:href="#i"/>
<use x="95.410156" xlink:href="#q"/>
<use x="159.033203" xlink:href="#c"/>
</g>
</g>
<g clip-path="url(#a)">
<g transform="translate(1347.5 648.25) scale(.1 -.1)">
<use xlink:href="#c"/>
<use x="63.623047" xlink:href="#i"/>
<use x="95.410156" xlink:href="#q"/>
<use x="159.033203" xlink:href="#m"/>
</g>
</g>
<g clip-path="url(#a)">
<g transform="translate(1393.5 648.25) scale(.1 -.1)">
<use xlink:href="#c"/>
<use x="63.623047" xlink:href="#i"/>
<use x="95.410156" xlink:href="#q"/>
<use x="159.033203" xlink:href="#n"/>
</g>
</g>
<defs>
<clipPath id="a">
<rect width="1520" height="800"/>
</clipPath>
</defs>
</svg>
