<?xml version="1.0" encoding="UTF-8"?>
<!DOCTYPE svg  PUBLIC '-//W3C//DTD SVG 1.1//EN'  'http://www.w3.org/Graphics/SVG/1.1/DTD/svg11.dtd'>
<svg width="1722.7pt" height="906.67pt" version="1.1" viewBox="0 0 1722.7 906.67" xmlns="http://www.w3.org/2000/svg" xmlns:xlink="http://www.w3.org/1999/xlink">
<defs>
<style type="text/css">*{stroke-linecap:butt;stroke-linejoin:round;}</style>
</defs>
<path d="m0 906.67h1722.7v-906.67h-1722.7z" fill="#fff"/>
<g fill="none" stroke="#000">
<path d="m703.7 41.212-625.4 708.76" clip-path="url(#a)"/>
<path d="m703.7 41.212-536.48 473.98" clip-path="url(#a)"/>
<path d="m703.7 41.212-438.07 708.76" clip-path="url(#a)"/>
<path d="m703.7 41.212 34.039 118.84" clip-path="url(#a)"/>
<path d="m703.7 41.212 453.61 708.76" clip-path="url(#a)"/>
<path d="m703.7 41.212 731.11 355.88" clip-path="url(#a)"/>
<path d="m703.7 41.212 381.18 708.76" clip-path="url(#a)"/>
<path d="m78.303 749.97v115.48" clip-path="url(#a)"/>
<path d="m167.22 515.19-63.941 117.7" clip-path="url(#a)"/>
<path d="m167.22 515.19-6.494 234.79" clip-path="url(#a)"/>
<path d="m167.22 515.19 28.474 117.7" clip-path="url(#a)"/>
<path d="m167.22 515.19 68.437 234.79" clip-path="url(#a)"/>
<path d="m167.22 515.19-26.476 234.79" clip-path="url(#a)"/>
<path d="m265.63 749.97v115.48" clip-path="url(#a)"/>
<path d="m737.74 160.05-422.15 472.84" clip-path="url(#a)"/>
<path d="m737.74 160.05-292.03 118.64" clip-path="url(#a)"/>
<path d="m737.74 160.05 144.83 589.93" clip-path="url(#a)"/>
<path d="m737.74 160.05 209.77 589.93" clip-path="url(#a)"/>
<path d="m737.74 160.05 277.2 589.93" clip-path="url(#a)"/>
<path d="m737.74 160.05 82.384 589.93" clip-path="url(#a)"/>
<path d="m1157.3 749.97v115.48" clip-path="url(#a)"/>
<path d="m1434.8 397.09-202.56 352.89" clip-path="url(#a)"/>
<path d="m1434.8 397.09-125.13 352.89" clip-path="url(#a)"/>
<path d="m1434.8 397.09-3.9963 118.1" clip-path="url(#a)"/>
<path d="m1434.8 397.09 122.14 352.89" clip-path="url(#a)"/>
<path d="m1434.8 397.09 209.56 352.89" clip-path="url(#a)"/>
<path d="m1232.2 749.97v115.48" clip-path="url(#a)"/>
<path d="m1309.7 749.97v115.48" clip-path="url(#a)"/>
<path d="m1430.8 515.19v117.7" clip-path="url(#a)"/>
<path d="m1556.9 749.97v115.48" clip-path="url(#a)"/>
<path d="m1430.8 632.89-41.212 117.09" clip-path="url(#a)"/>
<path d="m1430.8 632.89 41.212 117.09" clip-path="url(#a)"/>
<path d="m1389.6 749.97v115.48" clip-path="url(#a)"/>
<path d="m1472 749.97v115.48" clip-path="url(#a)"/>
<path d="m315.58 632.89-17.484 117.09" clip-path="url(#a)"/>
<path d="m315.58 632.89 17.484 117.09" clip-path="url(#a)"/>
<path d="m445.71 278.69-75.174 471.29" clip-path="url(#a)"/>
<path d="m445.71 278.69-35.211 471.29" clip-path="url(#a)"/>
<path d="m445.71 278.69 103.13 118.4" clip-path="url(#a)"/>
<path d="m445.71 278.69 7.2503 471.29" clip-path="url(#a)"/>
<path d="m882.56 749.97v115.48" clip-path="url(#a)"/>
<path d="m947.5 749.97v115.48" clip-path="url(#a)"/>
<path d="m1014.9 749.97v115.48" clip-path="url(#a)"/>
<path d="m370.53 749.97v115.48" clip-path="url(#a)"/>
<path d="m410.5 749.97v115.48" clip-path="url(#a)"/>
<path d="m548.84 397.09-50.925 352.89" clip-path="url(#a)"/>
<path d="m548.84 397.09 50.925 118.1" clip-path="url(#a)"/>
<path d="m497.92 749.97v115.48" clip-path="url(#a)"/>
<path d="m599.77 515.19-101.85 234.79" clip-path="url(#a)" stroke-dasharray="3.7,1.6"/>
<path d="m599.77 515.19 53.007 234.79" clip-path="url(#a)"/>
<path d="m599.77 515.19 48.844 117.7" clip-path="url(#a)"/>
<path d="m652.78 749.97-107.4 115.48" clip-path="url(#a)"/>
<path d="m652.78 749.97 107.4 115.48" clip-path="url(#a)"/>
<path d="m648.61 632.89-53.284 117.09" clip-path="url(#a)"/>
<path d="m648.61 632.89-0.83257 117.09" clip-path="url(#a)"/>
<path d="m648.61 632.89 54.117 117.09" clip-path="url(#a)"/>
<path d="m595.33 749.97v115.48" clip-path="url(#a)"/>
<path d="m647.78 749.97v115.48" clip-path="url(#a)"/>
<path d="m702.73 749.97v115.48" clip-path="url(#a)"/>
<path d="m298.1 749.97v115.48" clip-path="url(#a)"/>
<path d="m333.07 749.97v115.48" clip-path="url(#a)"/>
<path d="m103.28 632.89-17.484 117.09" clip-path="url(#a)"/>
<path d="m103.28 632.89-7.4931 117.09" clip-path="url(#a)"/>
<path d="m103.28 632.89 4.9954 117.09" clip-path="url(#a)"/>
<path d="m103.28 632.89 19.982 117.09" clip-path="url(#a)"/>
<path d="m160.73 749.97v115.48" clip-path="url(#a)"/>
<path d="m195.7 632.89-12.489 117.09" clip-path="url(#a)"/>
<path d="m195.7 632.89 12.489 117.09" clip-path="url(#a)"/>
<path d="m235.66 749.97v115.48" clip-path="url(#a)"/>
<path d="m183.21 749.97v115.48" clip-path="url(#a)"/>
<path d="m208.18 749.97v115.48" clip-path="url(#a)"/>
<path d="m85.796 749.97v115.48" clip-path="url(#a)"/>
<path d="m95.787 749.97v115.48" clip-path="url(#a)"/>
<path d="m108.28 749.97v115.48" clip-path="url(#a)"/>
<path d="m123.26 749.97v115.48" clip-path="url(#a)"/>
<path d="m140.75 749.97v115.48" clip-path="url(#a)"/>
<path d="m452.96 749.97v115.48" clip-path="url(#a)"/>
<path d="m820.12 749.97v115.48" clip-path="url(#a)"/>
<path d="m1084.9 749.97v115.48" clip-path="url(#a)"/>
<path d="m1644.4 749.97v115.48" clip-path="url(#a)"/>
</g>
<path d="m394.23 401.41 2.9492-3.3424q1.5879-1.7996-0.21167-3.3875l-5.8056-5.1227q-1.7996-1.5879-3.3875 0.21168l-2.9492 3.3424q-1.5879 1.7996 0.21168 3.3875l5.8056 5.1227q1.7996 1.5879 3.3875-0.21168z" clip-path="url(#a)" fill="#fff" stroke="#fff"/>
<g clip-path="url(#a)">
<defs>
<path id="am" d="m9.8125 72.906h9.8594v-64.609h35.5v-8.2969h-45.359z"/>
</defs>
<g transform="translate(391.18 398.73) rotate(-48.576) scale(.08 -.08)">
<use xlink:href="#am"/>
</g>
</g>
<path d="m437.36 284.89 4.5087-3.9834q1.7986-1.589 0.20954-3.3876l-5.1263-5.8023q-1.589-1.7986-3.3876-0.20954l-4.5087 3.9834q-1.7986 1.589-0.20954 3.3876l5.1263 5.8023q1.589 1.7986 3.3876 0.20954z" clip-path="url(#a)" fill="#fff" stroke="#fff"/>
<g clip-path="url(#a)">
<defs>
<path id="an" d="m9.8125 72.906h9.8594v-29.891h35.844v29.891h9.8594v-72.906h-9.8594v34.719h-35.844v-34.719h-9.8594z"/>
</defs>
<g transform="translate(434.67 281.85) rotate(-41.461) scale(.08 -.08)">
<use xlink:href="#an"/>
</g>
</g>
<path d="m488.83 400.79 2.3436-3.7917q1.2618-2.0415-0.77971-3.3033l-6.586-4.0707q-2.0415-1.2618-3.3033 0.77971l-2.3436 3.7917q-1.2618 2.0415 0.77971 3.3033l6.586 4.0707q2.0415 1.2618 3.3033-0.77971z" clip-path="url(#a)" fill="#fff" stroke="#fff"/>
<g clip-path="url(#a)">
<g transform="translate(485.37 398.65) rotate(-58.281) scale(.08 -.08)">
<use xlink:href="#am"/>
</g>
</g>
<path d="m713.86 99.466 1.6566 5.7837q0.66087 2.3072 2.9681 1.6463l7.4432-2.132q2.3072-0.66087 1.6463-2.9681l-1.6566-5.7837q-0.66087-2.3072-2.9681-1.6463l-7.4432 2.132q-2.3072 0.66087-1.6463 2.9681z" clip-path="url(#a)" fill="#fff" stroke="#fff"/>
<g clip-path="url(#a)">
<g transform="translate(717.77 98.347) rotate(74.016) scale(.08 -.08)">
<use xlink:href="#an"/>
</g>
</g>
<path d="m924.02 397.1 2.4028 3.7544q1.2937 2.0214 3.3152 0.72771l6.5213-4.1737q2.0214-1.2937 0.72771-3.3152l-2.4028-3.7544q-1.2937-2.0214-3.3152-0.72771l-6.5213 4.1737q-2.0214 1.2937-0.72771 3.3152z" clip-path="url(#a)" fill="#fff" stroke="#fff"/>
<g clip-path="url(#a)">
<g transform="translate(927.44 394.91) rotate(57.38) scale(.08 -.08)">
<use xlink:href="#am"/>
</g>
</g>
<path d="m1063.8 223.47 5.4094 2.6331q2.1579 1.0504 3.2083-1.1075l3.3886-6.9616q1.0504-2.1579-1.1075-3.2083l-5.4094-2.6331q-2.1579-1.0504-3.2083 1.1075l-3.3886 6.9616q-1.0504 2.1579 1.1075 3.2083z" clip-path="url(#a)" fill="#fff" stroke="#fff"/>
<g clip-path="url(#a)">
<g transform="translate(1065.6 219.82) rotate(25.955) scale(.08 -.08)">
<use xlink:href="#an"/>
</g>
</g>
<path d="m887.38 395.99 2.7732 5.1566q1.1368 2.1137 3.2505 0.97693l6.8189-3.6673q2.1137-1.1368 0.97693-3.2505l-2.7732-5.1566q-1.1368-2.1137-3.2505-0.97693l-6.8189 3.6673q-2.1137 1.1368-0.97693 3.2505z" clip-path="url(#a)" fill="#fff" stroke="#fff"/>
<g clip-path="url(#a)">
<defs>
<path id="w" d="m8.6875 72.906h9.9219v-44.297q0-11.719 4.2344-16.875 4.25-5.1406 13.781-5.1406 9.4688 0 13.719 5.1406 4.25 5.1562 4.25 16.875v44.297h9.9062v-45.516q0-14.25-7.0625-21.531-7.0469-7.2812-20.812-7.2812-13.828 0-20.891 7.2812-7.0469 7.2812-7.0469 21.531z"/>
</defs>
<g transform="translate(890.96 394.06) rotate(61.728) scale(.08 -.08)">
<use xlink:href="#w"/>
</g>
</g>
<path d="m72.032 790.81v33.808q0 2.4 2.4 2.4h7.7425q2.4 0 2.4-2.4v-33.808q0-2.4-2.4-2.4h-7.7425q-2.4 0-2.4 2.4z" clip-path="url(#a)" fill="#fff" stroke="#fff"/>
<g clip-path="url(#a)">
<defs>
<path id="l" d="m-0.29688 72.906h61.672v-8.3125h-25.875v-64.594h-9.9062v64.594h-25.891z"/>
<path id="d" d="m56.203 29.594v-4.3906h-41.312q0.59375-9.2812 5.5938-14.141t13.938-4.8594q5.1719 0 10.031 1.2656t9.6562 3.8125v-8.5q-4.8438-2.0469-9.9219-3.125t-10.297-1.0781q-13.094 0-20.734 7.6094-7.6406 7.625-7.6406 20.625 0 13.422 7.25 21.297 7.25 7.8906 19.562 7.8906 11.031 0 17.453-7.1094 6.4219-7.0938 6.4219-19.297zm-8.9844 2.6406q-0.09375 7.3594-4.125 11.75-4.0312 4.4062-10.672 4.4062-7.5156 0-12.031-4.25t-5.2031-11.969z"/>
<path id="h" d="m41.109 46.297q-1.5156 0.875-3.2969 1.2812-1.7812 0.42188-3.9219 0.42188-7.625 0-11.703-4.9531t-4.0781-14.234v-28.812h-9.0312v54.688h9.0312v-8.5q2.8438 4.9844 7.375 7.3906 4.5469 2.4219 11.047 2.4219 0.92188 0 2.0469-0.125 1.125-0.10938 2.4844-0.35938z"/>
<path id="j" d="m52 44.188q3.375 6.0625 8.0625 8.9375t11.031 2.875q8.5469 0 13.188-5.9844 4.6406-5.9688 4.6406-17v-33.016h-9.0312v32.719q0 7.8594-2.7969 11.656-2.7812 3.8125-8.4844 3.8125-6.9844 0-11.047-4.6406-4.0469-4.625-4.0469-12.641v-30.906h-9.0312v32.719q0 7.9062-2.7812 11.688t-8.5938 3.7812q-6.8906 0-10.953-4.6562-4.0469-4.6562-4.0469-12.625v-30.906h-9.0312v54.688h9.0312v-8.5q3.0781 5.0312 7.375 7.4219t10.203 2.3906q5.9688 0 10.141-3.0312 4.1719-3.0156 6.1719-8.7812z"/>
<path id="f" d="m9.4219 54.688h8.9844v-54.688h-8.9844zm0 21.297h8.9844v-11.391h-8.9844z"/>
<path id="e" d="m54.891 33.016v-33.016h-8.9844v32.719q0 7.7656-3.0312 11.609-3.0312 3.8594-9.0781 3.8594-7.2812 0-11.484-4.6406-4.2031-4.625-4.2031-12.641v-30.906h-9.0312v54.688h9.0312v-8.5q3.2344 4.9375 7.5938 7.375 4.375 2.4375 10.094 2.4375 9.4219 0 14.25-5.8281 4.8438-5.8281 4.8438-17.156z"/>
<path id="i" d="m34.281 27.484q-10.891 0-15.094-2.4844t-4.2031-8.5q0-4.7812 3.1562-7.5938 3.1562-2.7969 8.5625-2.7969 7.4844 0 12 5.2969t4.5156 14.078v2zm17.922 3.7188v-31.203h-8.9844v8.2969q-3.0781-4.9688-7.6719-7.3438t-11.234-2.375q-8.3906 0-13.359 4.7188-4.9531 4.7188-4.9531 12.625 0 9.2188 6.1719 13.906 6.1875 4.6875 18.438 4.6875h12.609v0.89062q0 6.2031-4.0781 9.5938t-11.453 3.3906q-4.6875 0-9.1406-1.125-4.4375-1.125-8.5312-3.375v8.3125q4.9219 1.9062 9.5625 2.8438 4.6406 0.95312 9.0312 0.95312 11.875 0 17.734-6.1562 5.8594-6.1406 5.8594-18.641z"/>
<path id="k" d="m9.4219 75.984h8.9844v-75.984h-8.9844z"/>
</defs>
<g transform="translate(76.096 790.81) rotate(90) scale(.08 -.08)">
<use xlink:href="#l"/>
<use x="44.083984" xlink:href="#d"/>
<use x="105.607422" xlink:href="#h"/>
<use x="144.970703" xlink:href="#j"/>
<use x="242.382812" xlink:href="#f"/>
<use x="270.166016" xlink:href="#e"/>
<use x="333.544922" xlink:href="#i"/>
<use x="394.824219" xlink:href="#k"/>
</g>
</g>
<path d="m139.46 579.44 2.6124-4.8087q1.1457-2.1089-0.96323-3.2546l-6.8034-3.696q-2.1089-1.1457-3.2546 0.96323l-2.6124 4.8087q-1.1457 2.1089 0.96323 3.2546l6.8034 3.696q2.1089 1.1457 3.2546-0.96323z" clip-path="url(#a)" fill="#fff" stroke="#fff"/>
<g clip-path="url(#a)">
<defs>
<path id="o" d="m34.188 63.188-13.391-36.281h26.812zm-5.5781 9.7188h11.188l27.781-72.906h-10.25l-6.6406 18.703h-32.859l-6.6406-18.703h-10.406z"/>
</defs>
<g transform="translate(135.88 577.5) rotate(-61.487) scale(.08 -.08)">
<use xlink:href="#o"/>
</g>
</g>
<path d="m170.18 635.05 0.12722-4.5995q0.066357-2.3991-2.3327-2.4654l-7.7395-0.21407q-2.3991-0.066357-2.4654 2.3327l-0.12722 4.5995q-0.066356 2.3991 2.3327 2.4654l7.7395 0.21407q2.3991 0.066357 2.4654-2.3327z" clip-path="url(#a)" fill="#fff" stroke="#fff"/>
<g clip-path="url(#a)">
<defs>
<path id="t" d="m9.8125 72.906h41.891v-8.3125h-32.031v-21.484h28.906v-8.2969h-28.906v-34.812h-9.8594z"/>
</defs>
<g transform="translate(166.12 634.94) rotate(-88.416) scale(.08 -.08)">
<use xlink:href="#t"/>
</g>
</g>
<path d="m174.64 572.52 1.4484 5.9873q0.56432 2.3327 2.897 1.7684l7.5254-1.8205q2.3327-0.56432 1.7684-2.897l-1.4484-5.9873q-0.56432-2.3327-2.897-1.7684l-7.5254 1.8205q-2.3327 0.56432-1.7684 2.897z" clip-path="url(#a)" fill="#fff" stroke="#fff"/>
<g clip-path="url(#a)">
<defs>
<path id="ap" d="m19.672 64.797v-56.688h11.922q15.094 0 22.094 6.8281 7 6.8438 7 21.594 0 14.641-7 21.453t-22.094 6.8125zm-9.8594 8.1094h20.266q21.188 0 31.094-8.8125 9.9219-8.8125 9.9219-27.562 0-18.859-9.9688-27.703-9.9531-8.8281-31.047-8.8281h-20.266z"/>
</defs>
<g transform="translate(178.59 571.56) rotate(76.4) scale(.08 -.08)">
<use xlink:href="#ap"/>
</g>
</g>
<path d="m194.71 631.9 1.4212 4.8758q0.67162 2.3041 2.9757 1.6325l7.4332-2.1667q2.3041-0.67162 1.6325-2.9757l-1.4212-4.8758q-0.67162-2.3041-2.9757-1.6325l-7.4332 2.1667q-2.3041 0.67162-1.6325 2.9757z" clip-path="url(#a)" fill="#fff" stroke="#fff"/>
<g clip-path="url(#a)">
<defs>
<path id="aj" d="m53.516 70.516v-9.625q-5.6094 2.6875-10.594 4-4.9844 1.3281-9.625 1.3281-8.0469 0-12.422-3.125t-4.375-8.8906q0-4.8438 2.9062-7.3125 2.9062-2.4531 11.016-3.9688l5.9531-1.2188q11.031-2.1094 16.281-7.4062t5.25-14.172q0-10.609-7.1094-16.078-7.0938-5.4688-20.812-5.4688-5.1719 0-11.016 1.1719-5.8281 1.1719-12.078 3.4688v10.156q6-3.3594 11.766-5.0781 5.7656-1.7031 11.328-1.7031 8.4375 0 13.031 3.3125 4.5938 3.3281 4.5938 9.4844 0 5.3594-3.2969 8.3906t-10.812 4.5469l-6.0156 1.1719q-11.031 2.1875-15.969 6.875-4.9219 4.6875-4.9219 13.047 0 9.6719 6.8125 15.234t18.766 5.5625q5.1406 0 10.453-0.9375 5.3281-0.92188 10.891-2.7656z"/>
</defs>
<g transform="translate(198.61 630.76) rotate(73.749) scale(.08 -.08)">
<use xlink:href="#aj"/>
</g>
</g>
<path d="m159.89 636.19 0.65608-5.8181q0.26893-2.3849-2.116-2.6538l-7.6937-0.86758q-2.3849-0.26893-2.6538 2.116l-0.65608 5.8181q-0.26893 2.3849 2.116 2.6538l7.6937 0.86758q2.3849 0.26893 2.6538-2.116z" clip-path="url(#a)" fill="#fff" stroke="#fff"/>
<g clip-path="url(#a)">
<g transform="translate(155.85 635.74) rotate(-83.566) scale(.08 -.08)">
<use xlink:href="#w"/>
</g>
</g>
<path d="m259.36 790.81v33.808q0 2.4 2.4 2.4h7.7425q2.4 0 2.4-2.4v-33.808q0-2.4-2.4-2.4h-7.7425q-2.4 0-2.4 2.4z" clip-path="url(#a)" fill="#fff" stroke="#fff"/>
<g clip-path="url(#a)">
<g transform="translate(263.42 790.81) rotate(90) scale(.08 -.08)">
<use xlink:href="#l"/>
<use x="44.083984" xlink:href="#d"/>
<use x="105.607422" xlink:href="#h"/>
<use x="144.970703" xlink:href="#j"/>
<use x="242.382812" xlink:href="#f"/>
<use x="270.166016" xlink:href="#e"/>
<use x="333.544922" xlink:href="#i"/>
<use x="394.824219" xlink:href="#k"/>
</g>
</g>
<path d="m529.52 402.69 3.6446-4.0823q1.5984-1.7903-0.19191-3.3887l-5.7756-5.1565q-1.7903-1.5984-3.3887 0.19191l-3.6446 4.0823q-1.5984 1.7903 0.19191 3.3887l5.7756 5.1565q1.7903 1.5984 3.3887-0.19191z" clip-path="url(#a)" fill="#fff" stroke="#fff"/>
<g clip-path="url(#a)">
<g transform="translate(526.49 399.98) rotate(-48.241) scale(.08 -.08)">
<use xlink:href="#o"/>
</g>
</g>
<path d="m591.55 226.21 5.0701-2.0597q2.2235-0.90332 1.3202-3.1268l-2.9141-7.1732q-0.90332-2.2235-3.1268-1.3202l-5.0701 2.0597q-2.2235 0.90332-1.3202 3.1268l2.9141 7.1732q0.90332 2.2235 3.1268 1.3202z" clip-path="url(#a)" fill="#fff" stroke="#fff"/>
<g clip-path="url(#a)">
<g transform="translate(590.02 222.44) rotate(-22.11) scale(.08 -.08)">
<use xlink:href="#o"/>
</g>
</g>
<path d="m803.51 454.27 1.097 4.4686q0.57221 2.3308 2.903 1.7586l7.5192-1.846q2.3308-0.57221 1.7586-2.903l-1.097-4.4686q-0.57221-2.3308-2.903-1.7586l-7.5192 1.846q-2.3308 0.57221-1.7586 2.903z" clip-path="url(#a)" fill="#fff" stroke="#fff"/>
<g clip-path="url(#a)">
<g transform="translate(807.46 453.3) rotate(76.207) scale(.08 -.08)">
<use xlink:href="#t"/>
</g>
</g>
<path d="m835.68 454.21 2.0638 5.804q0.80408 2.2613 3.0654 1.4572l7.295-2.594q2.2613-0.80408 1.4572-3.0654l-2.0638-5.804q-0.80408-2.2613-3.0654-1.4572l-7.295 2.594q-2.2613 0.80408-1.4572 3.0654z" clip-path="url(#a)" fill="#fff" stroke="#fff"/>
<g clip-path="url(#a)">
<g transform="translate(839.51 452.85) rotate(70.426) scale(.08 -.08)">
<use xlink:href="#ap"/>
</g>
</g>
<path d="m869.58 455.38 2.1599 4.5966q1.0207 2.1721 3.1928 1.1515l7.0074-3.2928q2.1721-1.0207 1.1515-3.1928l-2.1599-4.5966q-1.0207-2.1721-3.1928-1.1515l-7.0074 3.2928q-2.1721 1.0207-1.1515 3.1928z" clip-path="url(#a)" fill="#fff" stroke="#fff"/>
<g clip-path="url(#a)">
<g transform="translate(873.26 453.65) rotate(64.831) scale(.08 -.08)">
<use xlink:href="#aj"/>
</g>
</g>
<path d="m772.31 452.98 0.8098 5.7987q0.33194 2.3769 2.7089 2.045l7.6681-1.0709q2.3769-0.33194 2.045-2.7089l-0.8098-5.7987q-0.33194-2.3769-2.7089-2.045l-7.6681 1.0709q-2.3769 0.33194-2.045 2.7089z" clip-path="url(#a)" fill="#fff" stroke="#fff"/>
<g clip-path="url(#a)">
<g transform="translate(776.34 452.42) rotate(82.05) scale(.08 -.08)">
<use xlink:href="#w"/>
</g>
</g>
<path d="m1151 790.81v33.808q0 2.4 2.4 2.4h7.7425q2.4 0 2.4-2.4v-33.808q0-2.4-2.4-2.4h-7.7425q-2.4 0-2.4 2.4z" clip-path="url(#a)" fill="#fff" stroke="#fff"/>
<g clip-path="url(#a)">
<g transform="translate(1155.1 790.81) rotate(90) scale(.08 -.08)">
<use xlink:href="#l"/>
<use x="44.083984" xlink:href="#d"/>
<use x="105.607422" xlink:href="#h"/>
<use x="144.970703" xlink:href="#j"/>
<use x="242.382812" xlink:href="#f"/>
<use x="270.166016" xlink:href="#e"/>
<use x="333.544922" xlink:href="#i"/>
<use x="394.824219" xlink:href="#k"/>
</g>
</g>
<path d="m1337.6 579.03 2.7244-4.7462q1.1948-2.0815-0.88666-3.2763l-6.7149-3.8545q-2.0815-1.1948-3.2763 0.88666l-2.7244 4.7462q-1.1948 2.0815 0.88666 3.2763l6.7149 3.8545q2.0815 1.1948 3.2763-0.88666z" clip-path="url(#a)" fill="#fff" stroke="#fff"/>
<g clip-path="url(#a)">
<g transform="translate(1334.1 577) rotate(-60.143) scale(.08 -.08)">
<use xlink:href="#o"/>
</g>
</g>
<path d="m1377.3 577.93 1.633-4.6053q0.80211-2.262-1.4599-3.0641l-7.2973-2.5876q-2.262-0.80211-3.0641 1.4599l-1.633 4.6053q-0.80211 2.262 1.4599 3.0641l7.2973 2.5876q2.262 0.80211 3.0641-1.4599z" clip-path="url(#a)" fill="#fff" stroke="#fff"/>
<g clip-path="url(#a)">
<g transform="translate(1373.5 576.57) rotate(-70.475) scale(.08 -.08)">
<use xlink:href="#l"/>
</g>
</g>
<path d="m1439 459.08 0.18507-5.4694q0.081166-2.3986-2.3175-2.4798l-7.7381-0.26184q-2.3986-0.081165-2.4798 2.3175l-0.18507 5.4694q-0.081165 2.3986 2.3175 2.4798l7.7381 0.26184q2.3986 0.081165 2.4798-2.3175z" clip-path="url(#a)" fill="#fff" stroke="#fff"/>
<g clip-path="url(#a)">
<g transform="translate(1434.9 458.95) rotate(-88.062) scale(.08 -.08)">
<use xlink:href="#o"/>
</g>
</g>
<path d="m1489.2 573.3 1.5777 4.5584q0.78498 2.268 3.053 1.483l7.3167-2.5324q2.268-0.78498 1.483-3.053l-1.5777-4.5584q-0.78498-2.268-3.053-1.483l-7.3167 2.5324q-2.268 0.78498-1.483 3.053z" clip-path="url(#a)" fill="#fff" stroke="#fff"/>
<g clip-path="url(#a)">
<defs>
<path id="al" d="m19.672 64.797v-27.391h12.406q6.8906 0 10.641 3.5625 3.7656 3.5625 3.7656 10.156 0 6.5469-3.7656 10.109-3.75 3.5625-10.641 3.5625zm-9.8594 8.1094h22.266q12.266 0 18.531-5.5469 6.2812-5.5469 6.2812-16.234 0-10.797-6.2812-16.312-6.2656-5.5156-18.531-5.5156h-12.406v-29.297h-9.8594z"/>
</defs>
<g transform="translate(1493 571.97) rotate(70.909) scale(.08 -.08)">
<use xlink:href="#al"/>
</g>
</g>
<path d="m1532.7 574.22 2.9895 5.0343q1.2254 2.0636 3.289 0.83815l6.6572-3.9533q2.0636-1.2254 0.83815-3.289l-2.9895-5.0343q-1.2254-2.0636-3.289-0.83815l-6.6572 3.9533q-2.0636 1.2254-0.83815 3.289z" clip-path="url(#a)" fill="#fff" stroke="#fff"/>
<g clip-path="url(#a)">
<g transform="translate(1536.2 572.14) rotate(59.297) scale(.08 -.08)">
<use xlink:href="#w"/>
</g>
</g>
<path d="m1226 790.81v33.808q0 2.4 2.4 2.4h7.7425q2.4 0 2.4-2.4v-33.808q0-2.4-2.4-2.4h-7.7425q-2.4 0-2.4 2.4z" clip-path="url(#a)" fill="#fff" stroke="#fff"/>
<g clip-path="url(#a)">
<g transform="translate(1230 790.81) rotate(90) scale(.08 -.08)">
<use xlink:href="#l"/>
<use x="44.083984" xlink:href="#d"/>
<use x="105.607422" xlink:href="#h"/>
<use x="144.970703" xlink:href="#j"/>
<use x="242.382812" xlink:href="#f"/>
<use x="270.166016" xlink:href="#e"/>
<use x="333.544922" xlink:href="#i"/>
<use x="394.824219" xlink:href="#k"/>
</g>
</g>
<path d="m1303.4 790.81v33.808q0 2.4 2.4 2.4h7.7425q2.4 0 2.4-2.4v-33.808q0-2.4-2.4-2.4h-7.7425q-2.4 0-2.4 2.4z" clip-path="url(#a)" fill="#fff" stroke="#fff"/>
<g clip-path="url(#a)">
<g transform="translate(1307.5 790.81) rotate(90) scale(.08 -.08)">
<use xlink:href="#l"/>
<use x="44.083984" xlink:href="#d"/>
<use x="105.607422" xlink:href="#h"/>
<use x="144.970703" xlink:href="#j"/>
<use x="242.382812" xlink:href="#f"/>
<use x="270.166016" xlink:href="#e"/>
<use x="333.544922" xlink:href="#i"/>
<use x="394.824219" xlink:href="#k"/>
</g>
</g>
<path d="m1424.5 571.63v4.8238q0 2.4 2.4 2.4h7.7425q2.4 0 2.4-2.4v-4.8238q0-2.4-2.4-2.4h-7.7425q-2.4 0-2.4 2.4z" clip-path="url(#a)" fill="#fff" stroke="#fff"/>
<g clip-path="url(#a)">
<g transform="translate(1428.6 571.63) rotate(90) scale(.08 -.08)">
<use xlink:href="#al"/>
</g>
</g>
<path d="m1550.7 790.81v33.808q0 2.4 2.4 2.4h7.7425q2.4 0 2.4-2.4v-33.808q0-2.4-2.4-2.4h-7.7425q-2.4 0-2.4 2.4z" clip-path="url(#a)" fill="#fff" stroke="#fff"/>
<g clip-path="url(#a)">
<g transform="translate(1554.7 790.81) rotate(90) scale(.08 -.08)">
<use xlink:href="#l"/>
<use x="44.083984" xlink:href="#d"/>
<use x="105.607422" xlink:href="#h"/>
<use x="144.970703" xlink:href="#j"/>
<use x="242.382812" xlink:href="#f"/>
<use x="270.166016" xlink:href="#e"/>
<use x="333.544922" xlink:href="#i"/>
<use x="394.824219" xlink:href="#k"/>
</g>
</g>
<path d="m1415.4 695.68 1.5277-4.3402q0.79684-2.2639-1.467-3.0607l-7.3033-2.5706q-2.2639-0.79684-3.0607 1.467l-1.5277 4.3402q-0.79684 2.2639 1.467 3.0607l7.3033 2.5706q2.2639 0.79684 3.0607-1.467z" clip-path="url(#a)" fill="#fff" stroke="#fff"/>
<g clip-path="url(#a)">
<g transform="translate(1411.5 694.33) rotate(-70.609) scale(.08 -.08)">
<use xlink:href="#t"/>
</g>
</g>
<path d="m1444.6 690.88 1.8547 5.2694q0.79684 2.2639 3.0607 1.467l7.3033-2.5706q2.2639-0.79683 1.467-3.0607l-1.8547-5.2694q-0.79683-2.2639-3.0607-1.467l-7.3033 2.5706q-2.2639 0.79684-1.467 3.0607z" clip-path="url(#a)" fill="#fff" stroke="#fff"/>
<g clip-path="url(#a)">
<defs>
<path id="u" d="m64.406 67.281v-10.391q-4.9844 4.6406-10.625 6.9219-5.6406 2.2969-11.984 2.2969-12.5 0-19.141-7.6406t-6.6406-22.094q0-14.406 6.6406-22.047t19.141-7.6406q6.3438 0 11.984 2.2969t10.625 6.9375v-10.312q-5.1719-3.5156-10.969-5.2812-5.7812-1.75-12.219-1.75-16.562 0-26.094 10.125-9.5156 10.141-9.5156 27.672 0 17.578 9.5156 27.703 9.5312 10.141 26.094 10.141 6.5312 0 12.312-1.7344 5.7969-1.7344 10.875-5.2031z"/>
</defs>
<g transform="translate(1448.4 689.53) rotate(70.609) scale(.08 -.08)">
<use xlink:href="#u"/>
</g>
</g>
<path d="m1383.3 790.81v33.808q0 2.4 2.4 2.4h7.7425q2.4 0 2.4-2.4v-33.808q0-2.4-2.4-2.4h-7.7425q-2.4 0-2.4 2.4z" clip-path="url(#a)" fill="#fff" stroke="#fff"/>
<g clip-path="url(#a)">
<g transform="translate(1387.4 790.81) rotate(90) scale(.08 -.08)">
<use xlink:href="#l"/>
<use x="44.083984" xlink:href="#d"/>
<use x="105.607422" xlink:href="#h"/>
<use x="144.970703" xlink:href="#j"/>
<use x="242.382812" xlink:href="#f"/>
<use x="270.166016" xlink:href="#e"/>
<use x="333.544922" xlink:href="#i"/>
<use x="394.824219" xlink:href="#k"/>
</g>
</g>
<path d="m1465.8 790.81v33.808q0 2.4 2.4 2.4h7.7425q2.4 0 2.4-2.4v-33.808q0-2.4-2.4-2.4h-7.7425q-2.4 0-2.4 2.4z" clip-path="url(#a)" fill="#fff" stroke="#fff"/>
<g clip-path="url(#a)">
<g transform="translate(1469.8 790.81) rotate(90) scale(.08 -.08)">
<use xlink:href="#l"/>
<use x="44.083984" xlink:href="#d"/>
<use x="105.607422" xlink:href="#h"/>
<use x="144.970703" xlink:href="#j"/>
<use x="242.382812" xlink:href="#f"/>
<use x="270.166016" xlink:href="#e"/>
<use x="333.544922" xlink:href="#i"/>
<use x="394.824219" xlink:href="#k"/>
</g>
</g>
<path d="m312.71 694.63 0.67955-4.5508q0.35445-2.3737-2.0192-2.7281l-7.6576-1.1435q-2.3737-0.35445-2.7281 2.0192l-0.67955 4.5508q-0.35445 2.3737 2.0192 2.7281l7.6576 1.1435q2.3737 0.35445 2.7281-2.0192z" clip-path="url(#a)" fill="#fff" stroke="#fff"/>
<g clip-path="url(#a)">
<g transform="translate(308.69 694.03) rotate(-81.507) scale(.08 -.08)">
<use xlink:href="#t"/>
</g>
</g>
<path d="m317.71 689.6 0.82502 5.525q0.35445 2.3737 2.7281 2.0192l7.6576-1.1435q2.3737-0.35445 2.0192-2.7281l-0.82502-5.525q-0.35445-2.3737-2.7281-2.0192l-7.6576 1.1435q-2.3737 0.35445-2.0192 2.7281z" clip-path="url(#a)" fill="#fff" stroke="#fff"/>
<g clip-path="url(#a)">
<g transform="translate(321.73 689) rotate(81.507) scale(.08 -.08)">
<use xlink:href="#u"/>
</g>
</g>
<path d="m413.88 518.06 0.8756-5.4894q0.37804-2.37-1.992-2.7481l-7.6458-1.2196q-2.37-0.37804-2.7481 1.992l-0.8756 5.4894q-0.37804 2.37 1.992 2.7481l7.6458 1.2196q2.37 0.37804 2.7481-1.992z" clip-path="url(#a)" fill="#fff" stroke="#fff"/>
<g clip-path="url(#a)">
<defs>
<path id="ak" d="m44.391 34.188q3.1719-1.0781 6.1719-4.5938t6.0312-9.6719l10.016-19.922h-10.609l-9.3125 18.703q-3.625 7.3281-7.0156 9.7188t-9.25 2.3906h-10.75v-30.812h-9.8594v72.906h22.266q12.5 0 18.656-5.2344 6.1562-5.2188 6.1562-15.766 0-6.8906-3.2031-11.438-3.2031-4.5312-9.2969-6.2812zm-24.719 30.609v-25.875h12.406q7.125 0 10.766 3.2969t3.6406 9.6875-3.6406 9.6406-10.766 3.25z"/>
</defs>
<g transform="translate(409.86 517.42) rotate(-80.937) scale(.08 -.08)">
<use xlink:href="#ak"/>
</g>
</g>
<path d="m434.15 517.58 0.4162-5.5707q0.17881-2.3933-2.2145-2.5721l-7.721-0.57685q-2.3933-0.17881-2.5721 2.2145l-0.4162 5.5707q-0.17881 2.3933 2.2145 2.5721l7.721 0.57685q2.3933 0.17881 2.5721-2.2145z" clip-path="url(#a)" fill="#fff" stroke="#fff"/>
<g clip-path="url(#a)">
<g transform="translate(430.1 517.28) rotate(-85.727) scale(.08 -.08)">
<use xlink:href="#u"/>
</g>
</g>
<path d="m490.89 340.1 3.3202 3.8117q1.5764 1.8097 3.3861 0.23333l5.8382-5.0855q1.8097-1.5764 0.23332-3.3861l-3.3202-3.8117q-1.5764-1.8097-3.3861-0.23333l-5.8382 5.0855q-1.8097 1.5764-0.23333 3.3861z" clip-path="url(#a)" fill="#fff" stroke="#fff"/>
<g clip-path="url(#a)">
<defs>
<path id="ao" d="m9.8125 72.906h46.094v-8.3125h-36.234v-21.578h34.719v-8.2969h-34.719v-26.422h37.109v-8.2969h-46.969z"/>
</defs>
<g transform="translate(493.95 337.43) rotate(48.942) scale(.08 -.08)">
<use xlink:href="#ao"/>
</g>
</g>
<path d="m443.02 511.5 0.090063 5.8543q0.036917 2.3997 2.4366 2.3628l7.7416-0.1191q2.3997-0.036918 2.3628-2.4366l-0.090063-5.8543q-0.036917-2.3997-2.4366-2.3628l-7.7416 0.1191q-2.3997 0.036917-2.3628 2.4366z" clip-path="url(#a)" fill="#fff" stroke="#fff"/>
<g clip-path="url(#a)">
<g transform="translate(447.08 511.44) rotate(89.119) scale(.08 -.08)">
<use xlink:href="#w"/>
</g>
</g>
<path d="m876.29 790.81v33.808q0 2.4 2.4 2.4h7.7425q2.4 0 2.4-2.4v-33.808q0-2.4-2.4-2.4h-7.7425q-2.4 0-2.4 2.4z" clip-path="url(#a)" fill="#fff" stroke="#fff"/>
<g clip-path="url(#a)">
<g transform="translate(880.36 790.81) rotate(90) scale(.08 -.08)">
<use xlink:href="#l"/>
<use x="44.083984" xlink:href="#d"/>
<use x="105.607422" xlink:href="#h"/>
<use x="144.970703" xlink:href="#j"/>
<use x="242.382812" xlink:href="#f"/>
<use x="270.166016" xlink:href="#e"/>
<use x="333.544922" xlink:href="#i"/>
<use x="394.824219" xlink:href="#k"/>
</g>
</g>
<path d="m941.23 790.81v33.808q0 2.4 2.4 2.4h7.7425q2.4 0 2.4-2.4v-33.808q0-2.4-2.4-2.4h-7.7425q-2.4 0-2.4 2.4z" clip-path="url(#a)" fill="#fff" stroke="#fff"/>
<g clip-path="url(#a)">
<g transform="translate(945.3 790.81) rotate(90) scale(.08 -.08)">
<use xlink:href="#l"/>
<use x="44.083984" xlink:href="#d"/>
<use x="105.607422" xlink:href="#h"/>
<use x="144.970703" xlink:href="#j"/>
<use x="242.382812" xlink:href="#f"/>
<use x="270.166016" xlink:href="#e"/>
<use x="333.544922" xlink:href="#i"/>
<use x="394.824219" xlink:href="#k"/>
</g>
</g>
<path d="m1008.7 790.81v33.808q0 2.4 2.4 2.4h7.7425q2.4 0 2.4-2.4v-33.808q0-2.4-2.4-2.4h-7.7425q-2.4 0-2.4 2.4z" clip-path="url(#a)" fill="#fff" stroke="#fff"/>
<g clip-path="url(#a)">
<g transform="translate(1012.7 790.81) rotate(90) scale(.08 -.08)">
<use xlink:href="#l"/>
<use x="44.083984" xlink:href="#d"/>
<use x="105.607422" xlink:href="#h"/>
<use x="144.970703" xlink:href="#j"/>
<use x="242.382812" xlink:href="#f"/>
<use x="270.166016" xlink:href="#e"/>
<use x="333.544922" xlink:href="#i"/>
<use x="394.824219" xlink:href="#k"/>
</g>
</g>
<path d="m364.26 790.81v33.808q0 2.4 2.4 2.4h7.7425q2.4 0 2.4-2.4v-33.808q0-2.4-2.4-2.4h-7.7425q-2.4 0-2.4 2.4z" clip-path="url(#a)" fill="#fff" stroke="#fff"/>
<g clip-path="url(#a)">
<g transform="translate(368.33 790.81) rotate(90) scale(.08 -.08)">
<use xlink:href="#l"/>
<use x="44.083984" xlink:href="#d"/>
<use x="105.607422" xlink:href="#h"/>
<use x="144.970703" xlink:href="#j"/>
<use x="242.382812" xlink:href="#f"/>
<use x="270.166016" xlink:href="#e"/>
<use x="333.544922" xlink:href="#i"/>
<use x="394.824219" xlink:href="#k"/>
</g>
</g>
<path d="m404.23 790.81v33.808q0 2.4 2.4 2.4h7.7425q2.4 0 2.4-2.4v-33.808q0-2.4-2.4-2.4h-7.7425q-2.4 0-2.4 2.4z" clip-path="url(#a)" fill="#fff" stroke="#fff"/>
<g clip-path="url(#a)">
<g transform="translate(408.29 790.81) rotate(90) scale(.08 -.08)">
<use xlink:href="#l"/>
<use x="44.083984" xlink:href="#d"/>
<use x="105.607422" xlink:href="#h"/>
<use x="144.970703" xlink:href="#j"/>
<use x="242.382812" xlink:href="#f"/>
<use x="270.166016" xlink:href="#e"/>
<use x="333.544922" xlink:href="#i"/>
<use x="394.824219" xlink:href="#k"/>
</g>
</g>
<path d="m529.19 577.19 0.79789-5.529q0.34279-2.3754-2.0326-2.7182l-7.6631-1.1059q-2.3754-0.3428-2.7182 2.0326l-0.79789 5.529q-0.3428 2.3754 2.0326 2.7182l7.6631 1.1059q2.3754 0.34279 2.7182-2.0326z" clip-path="url(#a)" fill="#fff" stroke="#fff"/>
<g clip-path="url(#a)">
<g transform="translate(525.17 576.61) rotate(-81.788) scale(.08 -.08)">
<use xlink:href="#u"/>
</g>
</g>
<path d="m567.55 456.3 2.0016 4.6418q0.9503 2.2038 3.1541 1.2535l7.1097-3.0657q2.2038-0.9503 1.2535-3.1541l-2.0016-4.6418q-0.9503-2.2038-3.1541-1.2535l-7.1097 3.0657q-2.2038 0.9503-1.2535 3.1541z" clip-path="url(#a)" fill="#fff" stroke="#fff"/>
<g clip-path="url(#a)">
<g transform="translate(571.28 454.69) rotate(66.674) scale(.08 -.08)">
<use xlink:href="#ao"/>
</g>
</g>
<path d="m491.65 790.81v33.808q0 2.4 2.4 2.4h7.7425q2.4 0 2.4-2.4v-33.808q0-2.4-2.4-2.4h-7.7425q-2.4 0-2.4 2.4z" clip-path="url(#a)" fill="#fff" stroke="#fff"/>
<g clip-path="url(#a)">
<g transform="translate(495.71 790.81) rotate(90) scale(.08 -.08)">
<use xlink:href="#l"/>
<use x="44.083984" xlink:href="#d"/>
<use x="105.607422" xlink:href="#h"/>
<use x="144.970703" xlink:href="#j"/>
<use x="242.382812" xlink:href="#f"/>
<use x="270.166016" xlink:href="#e"/>
<use x="333.544922" xlink:href="#i"/>
<use x="394.824219" xlink:href="#k"/>
</g>
</g>
<path d="m553.51 637.59 2.1779-5.0205q0.95513-2.2018-1.2466-3.1569l-7.103-3.0813q-2.2018-0.95513-3.1569 1.2466l-2.1779 5.0205q-0.95513 2.2018 1.2466 3.1569l7.103 3.0813q2.2018 0.95513 3.1569-1.2466z" clip-path="url(#a)" fill="#fff" stroke="#fff"/>
<g clip-path="url(#a)">
<g transform="translate(549.78 635.97) rotate(-66.549) scale(.08 -.08)">
<use xlink:href="#o"/>
</g>
</g>
<path d="m619.62 631.61 1.0623 4.7053q0.52854 2.3411 2.8696 1.8125l7.5524-1.7051q2.3411-0.52854 1.8125-2.8696l-1.0623-4.7053q-0.52854-2.3411-2.8696-1.8125l-7.5524 1.7051q-2.3411 0.52854-1.8125 2.8696z" clip-path="url(#a)" fill="#fff" stroke="#fff"/>
<g clip-path="url(#a)">
<g transform="translate(623.59 630.71) rotate(77.278) scale(.08 -.08)">
<use xlink:href="#al"/>
</g>
</g>
<path d="m617.35 573.91 2.0976 5.0545q0.9199 2.2167 3.1366 1.2968l7.1512-2.9676q2.2167-0.9199 1.2968-3.1366l-2.0976-5.0545q-0.9199-2.2167-3.1366-1.2968l-7.1512 2.9676q-2.2167 0.9199-1.2968 3.1366z" clip-path="url(#a)" fill="#fff" stroke="#fff"/>
<g clip-path="url(#a)">
<g transform="translate(621.1 572.36) rotate(67.462) scale(.08 -.08)">
<use xlink:href="#o"/>
</g>
</g>
<path d="m592.15 824.36 23.024-24.756q1.6345-1.7574-0.12294-3.3919l-5.6695-5.2729q-1.7574-1.6345-3.3919 0.12294l-23.024 24.756q-1.6345 1.7574 0.12294 3.3919l5.6695 5.2729q1.7574 1.6345 3.3919-0.12294z" clip-path="url(#a)" fill="#fff" stroke="#fff"/>
<g clip-path="url(#a)">
<g transform="translate(589.18 821.6) rotate(-47.076) scale(.08 -.08)">
<use xlink:href="#l"/>
<use x="44.083984" xlink:href="#d"/>
<use x="105.607422" xlink:href="#h"/>
<use x="144.970703" xlink:href="#j"/>
<use x="242.382812" xlink:href="#f"/>
<use x="270.166016" xlink:href="#e"/>
<use x="333.544922" xlink:href="#i"/>
<use x="394.824219" xlink:href="#k"/>
</g>
</g>
<path d="m690.37 799.61 23.024 24.756q1.6345 1.7574 3.3919 0.12294l5.6695-5.2729q1.7574-1.6345 0.12294-3.3919l-23.024-24.756q-1.6345-1.7574-3.3919-0.12294l-5.6695 5.2729q-1.7574 1.6345-0.12294 3.3919z" clip-path="url(#a)" fill="#fff" stroke="#fff"/>
<g clip-path="url(#a)">
<g transform="translate(693.35 796.84) rotate(47.076) scale(.08 -.08)">
<use xlink:href="#l"/>
<use x="44.083984" xlink:href="#d"/>
<use x="105.607422" xlink:href="#h"/>
<use x="144.970703" xlink:href="#j"/>
<use x="242.382812" xlink:href="#f"/>
<use x="270.166016" xlink:href="#e"/>
<use x="333.544922" xlink:href="#i"/>
<use x="394.824219" xlink:href="#k"/>
</g>
</g>
<path d="m626.53 696.56 2.3025-5.0595q0.99411-2.1844-1.1903-3.1785l-7.0471-3.207q-2.1844-0.99411-3.1785 1.1903l-2.3025 5.0595q-0.99411 2.1844 1.1903 3.1785l7.0471 3.207q2.1844 0.99411 3.1785-1.1903z" clip-path="url(#a)" fill="#fff" stroke="#fff"/>
<g clip-path="url(#a)">
<g transform="translate(622.83 694.88) rotate(-65.53) scale(.08 -.08)">
<use xlink:href="#ak"/>
</g>
</g>
<path d="m654.45 693.78 0.032718-4.6011q0.017065-2.3999-2.3829-2.417l-7.7423-0.055053q-2.3999-0.017065-2.417 2.3829l-0.032718 4.6011q-0.017065 2.3999 2.3829 2.417l7.7423 0.055054q2.3999 0.017065 2.417-2.3829z" clip-path="url(#a)" fill="#fff" stroke="#fff"/>
<g clip-path="url(#a)">
<g transform="translate(650.39 693.75) rotate(-89.593) scale(.08 -.08)">
<use xlink:href="#t"/>
</g>
</g>
<path d="m668.81 691.53 2.3437 5.0708q1.0069 2.1786 3.1855 1.1716l7.0281-3.2484q2.1786-1.0069 1.1716-3.1855l-2.3437-5.0708q-1.0069-2.1786-3.1855-1.1716l-7.0281 3.2484q-2.1786 1.0069-1.1716 3.1855z" clip-path="url(#a)" fill="#fff" stroke="#fff"/>
<g clip-path="url(#a)">
<g transform="translate(672.49 689.82) rotate(65.194) scale(.08 -.08)">
<use xlink:href="#u"/>
</g>
</g>
<path d="m589.06 790.81v33.808q0 2.4 2.4 2.4h7.7425q2.4 0 2.4-2.4v-33.808q0-2.4-2.4-2.4h-7.7425q-2.4 0-2.4 2.4z" clip-path="url(#a)" fill="#fff" stroke="#fff"/>
<g clip-path="url(#a)">
<g transform="translate(593.12 790.81) rotate(90) scale(.08 -.08)">
<use xlink:href="#l"/>
<use x="44.083984" xlink:href="#d"/>
<use x="105.607422" xlink:href="#h"/>
<use x="144.970703" xlink:href="#j"/>
<use x="242.382812" xlink:href="#f"/>
<use x="270.166016" xlink:href="#e"/>
<use x="333.544922" xlink:href="#i"/>
<use x="394.824219" xlink:href="#k"/>
</g>
</g>
<path d="m641.51 790.81v33.808q0 2.4 2.4 2.4h7.7425q2.4 0 2.4-2.4v-33.808q0-2.4-2.4-2.4h-7.7425q-2.4 0-2.4 2.4z" clip-path="url(#a)" fill="#fff" stroke="#fff"/>
<g clip-path="url(#a)">
<g transform="translate(645.57 790.81) rotate(90) scale(.08 -.08)">
<use xlink:href="#l"/>
<use x="44.083984" xlink:href="#d"/>
<use x="105.607422" xlink:href="#h"/>
<use x="144.970703" xlink:href="#j"/>
<use x="242.382812" xlink:href="#f"/>
<use x="270.166016" xlink:href="#e"/>
<use x="333.544922" xlink:href="#i"/>
<use x="394.824219" xlink:href="#k"/>
</g>
</g>
<path d="m696.46 790.81v33.808q0 2.4 2.4 2.4h7.7425q2.4 0 2.4-2.4v-33.808q0-2.4-2.4-2.4h-7.7425q-2.4 0-2.4 2.4z" clip-path="url(#a)" fill="#fff" stroke="#fff"/>
<g clip-path="url(#a)">
<g transform="translate(700.52 790.81) rotate(90) scale(.08 -.08)">
<use xlink:href="#l"/>
<use x="44.083984" xlink:href="#d"/>
<use x="105.607422" xlink:href="#h"/>
<use x="144.970703" xlink:href="#j"/>
<use x="242.382812" xlink:href="#f"/>
<use x="270.166016" xlink:href="#e"/>
<use x="333.544922" xlink:href="#i"/>
<use x="394.824219" xlink:href="#k"/>
</g>
</g>
<path d="m291.83 790.81v33.808q0 2.4 2.4 2.4h7.7425q2.4 0 2.4-2.4v-33.808q0-2.4-2.4-2.4h-7.7425q-2.4 0-2.4 2.4z" clip-path="url(#a)" fill="#fff" stroke="#fff"/>
<g clip-path="url(#a)">
<g transform="translate(295.89 790.81) rotate(90) scale(.08 -.08)">
<use xlink:href="#l"/>
<use x="44.083984" xlink:href="#d"/>
<use x="105.607422" xlink:href="#h"/>
<use x="144.970703" xlink:href="#j"/>
<use x="242.382812" xlink:href="#f"/>
<use x="270.166016" xlink:href="#e"/>
<use x="333.544922" xlink:href="#i"/>
<use x="394.824219" xlink:href="#k"/>
</g>
</g>
<path d="m326.8 790.81v33.808q0 2.4 2.4 2.4h7.7425q2.4 0 2.4-2.4v-33.808q0-2.4-2.4-2.4h-7.7425q-2.4 0-2.4 2.4z" clip-path="url(#a)" fill="#fff" stroke="#fff"/>
<g clip-path="url(#a)">
<g transform="translate(330.86 790.81) rotate(90) scale(.08 -.08)">
<use xlink:href="#l"/>
<use x="44.083984" xlink:href="#d"/>
<use x="105.607422" xlink:href="#h"/>
<use x="144.970703" xlink:href="#j"/>
<use x="242.382812" xlink:href="#f"/>
<use x="270.166016" xlink:href="#e"/>
<use x="333.544922" xlink:href="#i"/>
<use x="394.824219" xlink:href="#k"/>
</g>
</g>
<path d="m100.29 695.4 0.90976-6.0924q0.35445-2.3737-2.0192-2.7281l-7.6576-1.1435q-2.3737-0.35445-2.7281 2.0192l-0.90976 6.0924q-0.35445 2.3737 2.0192 2.7281l7.6576 1.1435q2.3737 0.35445 2.7281-2.0192z" clip-path="url(#a)" fill="#fff" stroke="#fff"/>
<g clip-path="url(#a)">
<g transform="translate(96.267 694.8) rotate(-81.507) scale(.08 -.08)">
<use xlink:href="#ap"/>
</g>
</g>
<path d="m105.63 694.37 0.32436-5.0684q0.15328-2.3951-2.2418-2.5484l-7.7267-0.49448q-2.3951-0.15328-2.5484 2.2418l-0.32436 5.0684q-0.15328 2.3951 2.2418 2.5484l7.7267 0.49448q2.3951 0.15328 2.5484-2.2418z" clip-path="url(#a)" fill="#fff" stroke="#fff"/>
<g clip-path="url(#a)">
<g transform="translate(101.57 694.11) rotate(-86.338) scale(.08 -.08)">
<use xlink:href="#aj"/>
</g>
</g>
<path d="m99.396 688.97 0.23327 5.4675q0.1023 2.3978 2.5001 2.2955l7.7355-0.33003q2.3978-0.1023 2.2955-2.5001l-0.23327-5.4675q-0.1023-2.3978-2.5001-2.2955l-7.7355 0.33003q-2.3978 0.1023-2.2955 2.5001z" clip-path="url(#a)" fill="#fff" stroke="#fff"/>
<g clip-path="url(#a)">
<g transform="translate(103.46 688.79) rotate(87.557) scale(.08 -.08)">
<use xlink:href="#o"/>
</g>
</g>
<path d="m106.7 690.22 0.77405 4.5357q0.40374 2.3658 2.7695 1.9621l7.6322-1.3025q2.3658-0.40374 1.9621-2.7695l-0.77405-4.5357q-0.40374-2.3658-2.7695-1.9621l-7.6322 1.3025q-2.3658 0.40374-1.9621 2.7695z" clip-path="url(#a)" fill="#fff" stroke="#fff"/>
<g clip-path="url(#a)">
<g transform="translate(110.71 689.54) rotate(80.315) scale(.08 -.08)">
<use xlink:href="#t"/>
</g>
</g>
<path d="m154.46 790.81v33.808q0 2.4 2.4 2.4h7.7425q2.4 0 2.4-2.4v-33.808q0-2.4-2.4-2.4h-7.7425q-2.4 0-2.4 2.4z" clip-path="url(#a)" fill="#fff" stroke="#fff"/>
<g clip-path="url(#a)">
<g transform="translate(158.52 790.81) rotate(90) scale(.08 -.08)">
<use xlink:href="#l"/>
<use x="44.083984" xlink:href="#d"/>
<use x="105.607422" xlink:href="#h"/>
<use x="144.970703" xlink:href="#j"/>
<use x="242.382812" xlink:href="#f"/>
<use x="270.166016" xlink:href="#e"/>
<use x="333.544922" xlink:href="#i"/>
<use x="394.824219" xlink:href="#k"/>
</g>
</g>
<path d="m195.42 694.61 0.53613-5.0265q0.25454-2.3865-2.1319-2.641l-7.6988-0.82116q-2.3865-0.25454-2.641 2.1319l-0.53613 5.0265q-0.25454 2.3865 2.1319 2.641l7.6988 0.82116q2.3865 0.25454 2.641-2.1319z" clip-path="url(#a)" fill="#fff" stroke="#fff"/>
<g clip-path="url(#a)">
<g transform="translate(191.38 694.18) rotate(-83.912) scale(.08 -.08)">
<use xlink:href="#ao"/>
</g>
</g>
<path d="m195.41 689.32 0.59247 5.5547q0.25454 2.3865 2.641 2.1319l7.6988-0.82116q2.3865-0.25454 2.1319-2.641l-0.59247-5.5547q-0.25454-2.3865-2.641-2.1319l-7.6988 0.82116q-2.3865 0.25454-2.1319 2.641z" clip-path="url(#a)" fill="#fff" stroke="#fff"/>
<g clip-path="url(#a)">
<g transform="translate(199.45 688.89) rotate(83.912) scale(.08 -.08)">
<use xlink:href="#u"/>
</g>
</g>
<path d="m229.39 790.81v33.808q0 2.4 2.4 2.4h7.7425q2.4 0 2.4-2.4v-33.808q0-2.4-2.4-2.4h-7.7425q-2.4 0-2.4 2.4z" clip-path="url(#a)" fill="#fff" stroke="#fff"/>
<g clip-path="url(#a)">
<g transform="translate(233.45 790.81) rotate(90) scale(.08 -.08)">
<use xlink:href="#l"/>
<use x="44.083984" xlink:href="#d"/>
<use x="105.607422" xlink:href="#h"/>
<use x="144.970703" xlink:href="#j"/>
<use x="242.382812" xlink:href="#f"/>
<use x="270.166016" xlink:href="#e"/>
<use x="333.544922" xlink:href="#i"/>
<use x="394.824219" xlink:href="#k"/>
</g>
</g>
<path d="m176.94 790.81v33.808q0 2.4 2.4 2.4h7.7425q2.4 0 2.4-2.4v-33.808q0-2.4-2.4-2.4h-7.7425q-2.4 0-2.4 2.4z" clip-path="url(#a)" fill="#fff" stroke="#fff"/>
<g clip-path="url(#a)">
<g transform="translate(181 790.81) rotate(90) scale(.08 -.08)">
<use xlink:href="#l"/>
<use x="44.083984" xlink:href="#d"/>
<use x="105.607422" xlink:href="#h"/>
<use x="144.970703" xlink:href="#j"/>
<use x="242.382812" xlink:href="#f"/>
<use x="270.166016" xlink:href="#e"/>
<use x="333.544922" xlink:href="#i"/>
<use x="394.824219" xlink:href="#k"/>
</g>
</g>
<path d="m201.91 790.81v33.808q0 2.4 2.4 2.4h7.7425q2.4 0 2.4-2.4v-33.808q0-2.4-2.4-2.4h-7.7425q-2.4 0-2.4 2.4z" clip-path="url(#a)" fill="#fff" stroke="#fff"/>
<g clip-path="url(#a)">
<g transform="translate(205.98 790.81) rotate(90) scale(.08 -.08)">
<use xlink:href="#l"/>
<use x="44.083984" xlink:href="#d"/>
<use x="105.607422" xlink:href="#h"/>
<use x="144.970703" xlink:href="#j"/>
<use x="242.382812" xlink:href="#f"/>
<use x="270.166016" xlink:href="#e"/>
<use x="333.544922" xlink:href="#i"/>
<use x="394.824219" xlink:href="#k"/>
</g>
</g>
<path d="m79.525 790.81v33.808q0 2.4 2.4 2.4h7.7425q2.4 0 2.4-2.4v-33.808q0-2.4-2.4-2.4h-7.7425q-2.4 0-2.4 2.4z" clip-path="url(#a)" fill="#fff" stroke="#fff"/>
<g clip-path="url(#a)">
<g transform="translate(83.589 790.81) rotate(90) scale(.08 -.08)">
<use xlink:href="#l"/>
<use x="44.083984" xlink:href="#d"/>
<use x="105.607422" xlink:href="#h"/>
<use x="144.970703" xlink:href="#j"/>
<use x="242.382812" xlink:href="#f"/>
<use x="270.166016" xlink:href="#e"/>
<use x="333.544922" xlink:href="#i"/>
<use x="394.824219" xlink:href="#k"/>
</g>
</g>
<path d="m89.516 790.81v33.808q0 2.4 2.4 2.4h7.7425q2.4 0 2.4-2.4v-33.808q0-2.4-2.4-2.4h-7.7425q-2.4 0-2.4 2.4z" clip-path="url(#a)" fill="#fff" stroke="#fff"/>
<g clip-path="url(#a)">
<g transform="translate(93.579 790.81) rotate(90) scale(.08 -.08)">
<use xlink:href="#l"/>
<use x="44.083984" xlink:href="#d"/>
<use x="105.607422" xlink:href="#h"/>
<use x="144.970703" xlink:href="#j"/>
<use x="242.382812" xlink:href="#f"/>
<use x="270.166016" xlink:href="#e"/>
<use x="333.544922" xlink:href="#i"/>
<use x="394.824219" xlink:href="#k"/>
</g>
</g>
<path d="m102 790.81v33.808q0 2.4 2.4 2.4h7.7425q2.4 0 2.4-2.4v-33.808q0-2.4-2.4-2.4h-7.7425q-2.4 0-2.4 2.4z" clip-path="url(#a)" fill="#fff" stroke="#fff"/>
<g clip-path="url(#a)">
<g transform="translate(106.07 790.81) rotate(90) scale(.08 -.08)">
<use xlink:href="#l"/>
<use x="44.083984" xlink:href="#d"/>
<use x="105.607422" xlink:href="#h"/>
<use x="144.970703" xlink:href="#j"/>
<use x="242.382812" xlink:href="#f"/>
<use x="270.166016" xlink:href="#e"/>
<use x="333.544922" xlink:href="#i"/>
<use x="394.824219" xlink:href="#k"/>
</g>
</g>
<path d="m116.99 790.81v33.808q0 2.4 2.4 2.4h7.7425q2.4 0 2.4-2.4v-33.808q0-2.4-2.4-2.4h-7.7425q-2.4 0-2.4 2.4z" clip-path="url(#a)" fill="#fff" stroke="#fff"/>
<g clip-path="url(#a)">
<g transform="translate(121.05 790.81) rotate(90) scale(.08 -.08)">
<use xlink:href="#l"/>
<use x="44.083984" xlink:href="#d"/>
<use x="105.607422" xlink:href="#h"/>
<use x="144.970703" xlink:href="#j"/>
<use x="242.382812" xlink:href="#f"/>
<use x="270.166016" xlink:href="#e"/>
<use x="333.544922" xlink:href="#i"/>
<use x="394.824219" xlink:href="#k"/>
</g>
</g>
<path d="m134.47 790.81v33.808q0 2.4 2.4 2.4h7.7425q2.4 0 2.4-2.4v-33.808q0-2.4-2.4-2.4h-7.7425q-2.4 0-2.4 2.4z" clip-path="url(#a)" fill="#fff" stroke="#fff"/>
<g clip-path="url(#a)">
<g transform="translate(138.54 790.81) rotate(90) scale(.08 -.08)">
<use xlink:href="#l"/>
<use x="44.083984" xlink:href="#d"/>
<use x="105.607422" xlink:href="#h"/>
<use x="144.970703" xlink:href="#j"/>
<use x="242.382812" xlink:href="#f"/>
<use x="270.166016" xlink:href="#e"/>
<use x="333.544922" xlink:href="#i"/>
<use x="394.824219" xlink:href="#k"/>
</g>
</g>
<path d="m446.69 790.81v33.808q0 2.4 2.4 2.4h7.7425q2.4 0 2.4-2.4v-33.808q0-2.4-2.4-2.4h-7.7425q-2.4 0-2.4 2.4z" clip-path="url(#a)" fill="#fff" stroke="#fff"/>
<g clip-path="url(#a)">
<g transform="translate(450.75 790.81) rotate(90) scale(.08 -.08)">
<use xlink:href="#l"/>
<use x="44.083984" xlink:href="#d"/>
<use x="105.607422" xlink:href="#h"/>
<use x="144.970703" xlink:href="#j"/>
<use x="242.382812" xlink:href="#f"/>
<use x="270.166016" xlink:href="#e"/>
<use x="333.544922" xlink:href="#i"/>
<use x="394.824219" xlink:href="#k"/>
</g>
</g>
<path d="m813.85 790.81v33.808q0 2.4 2.4 2.4h7.7425q2.4 0 2.4-2.4v-33.808q0-2.4-2.4-2.4h-7.7425q-2.4 0-2.4 2.4z" clip-path="url(#a)" fill="#fff" stroke="#fff"/>
<g clip-path="url(#a)">
<g transform="translate(817.91 790.81) rotate(90) scale(.08 -.08)">
<use xlink:href="#l"/>
<use x="44.083984" xlink:href="#d"/>
<use x="105.607422" xlink:href="#h"/>
<use x="144.970703" xlink:href="#j"/>
<use x="242.382812" xlink:href="#f"/>
<use x="270.166016" xlink:href="#e"/>
<use x="333.544922" xlink:href="#i"/>
<use x="394.824219" xlink:href="#k"/>
</g>
</g>
<path d="m1078.6 790.81v33.808q0 2.4 2.4 2.4h7.7425q2.4 0 2.4-2.4v-33.808q0-2.4-2.4-2.4h-7.7425q-2.4 0-2.4 2.4z" clip-path="url(#a)" fill="#fff" stroke="#fff"/>
<g clip-path="url(#a)">
<g transform="translate(1082.7 790.81) rotate(90) scale(.08 -.08)">
<use xlink:href="#l"/>
<use x="44.083984" xlink:href="#d"/>
<use x="105.607422" xlink:href="#h"/>
<use x="144.970703" xlink:href="#j"/>
<use x="242.382812" xlink:href="#f"/>
<use x="270.166016" xlink:href="#e"/>
<use x="333.544922" xlink:href="#i"/>
<use x="394.824219" xlink:href="#k"/>
</g>
</g>
<path d="m1638.1 790.81v33.808q0 2.4 2.4 2.4h7.7425q2.4 0 2.4-2.4v-33.808q0-2.4-2.4-2.4h-7.7425q-2.4 0-2.4 2.4z" clip-path="url(#a)" fill="#fff" stroke="#fff"/>
<g clip-path="url(#a)">
<g transform="translate(1642.2 790.81) rotate(90) scale(.08 -.08)">
<use xlink:href="#l"/>
<use x="44.083984" xlink:href="#d"/>
<use x="105.607422" xlink:href="#h"/>
<use x="144.970703" xlink:href="#j"/>
<use x="242.382812" xlink:href="#f"/>
<use x="270.166016" xlink:href="#e"/>
<use x="333.544922" xlink:href="#i"/>
<use x="394.824219" xlink:href="#k"/>
</g>
</g>
<defs>
<path id="b" d="m0 8.6603c2.2967 0 4.4997-0.9125 6.1237-2.5365 1.624-1.624 2.5365-3.827 2.5365-6.1237s-0.9125-4.4997-2.5365-6.1237c-1.624-1.624-3.827-2.5365-6.1237-2.5365s-4.4997 0.9125-6.1237 2.5365c-1.624 1.624-2.5365 3.827-2.5365 6.1237s0.9125 4.4997 2.5365 6.1237c1.624 1.624 3.827 2.5365 6.1237 2.5365z"/>
</defs>
<g clip-path="url(#a)" fill="#ffffff" stroke="#ffffff">
<use x="78.30303" y="865.454545" xlink:href="#b"/>
<use x="85.796143" y="865.454545" xlink:href="#b"/>
<use x="95.786961" y="865.454545" xlink:href="#b"/>
<use x="108.275482" y="865.454545" xlink:href="#b"/>
<use x="123.261708" y="865.454545" xlink:href="#b"/>
<use x="140.745638" y="865.454545" xlink:href="#b"/>
<use x="160.727273" y="865.454545" xlink:href="#b"/>
<use x="183.206612" y="865.454545" xlink:href="#b"/>
<use x="208.183655" y="865.454545" xlink:href="#b"/>
<use x="235.658402" y="865.454545" xlink:href="#b"/>
<use x="265.630854" y="865.454545" xlink:href="#b"/>
<use x="298.10101" y="865.454545" xlink:href="#b"/>
<use x="333.068871" y="865.454545" xlink:href="#b"/>
<use x="370.534435" y="865.454545" xlink:href="#b"/>
<use x="410.497704" y="865.454545" xlink:href="#b"/>
<use x="452.958678" y="865.454545" xlink:href="#b"/>
<use x="497.917355" y="865.454545" xlink:href="#b"/>
<use x="545.373737" y="865.454545" xlink:href="#b"/>
<use x="595.327824" y="865.454545" xlink:href="#b"/>
<use x="647.779614" y="865.454545" xlink:href="#b"/>
<use x="702.729109" y="865.454545" xlink:href="#b"/>
<use x="760.176309" y="865.454545" xlink:href="#b"/>
<use x="820.121212" y="865.454545" xlink:href="#b"/>
<use x="882.56382" y="865.454545" xlink:href="#b"/>
<use x="947.504132" y="865.454545" xlink:href="#b"/>
<use x="1014.942149" y="865.454545" xlink:href="#b"/>
<use x="1084.87787" y="865.454545" xlink:href="#b"/>
<use x="1157.311295" y="865.454545" xlink:href="#b"/>
<use x="1232.242424" y="865.454545" xlink:href="#b"/>
<use x="1309.671258" y="865.454545" xlink:href="#b"/>
<use x="1389.597796" y="865.454545" xlink:href="#b"/>
<use x="1472.022039" y="865.454545" xlink:href="#b"/>
<use x="1556.943985" y="865.454545" xlink:href="#b"/>
<use x="1644.363636" y="865.454545" xlink:href="#b"/>
<use x="703.698291" y="41.212121" xlink:href="#b"/>
<use x="78.30303" y="749.974767" xlink:href="#b"/>
<use x="167.221304" y="515.1882" xlink:href="#b"/>
<use x="265.630854" y="749.974767" xlink:href="#b"/>
<use x="737.737442" y="160.049265" xlink:href="#b"/>
<use x="1157.311295" y="749.974767" xlink:href="#b"/>
<use x="1434.806244" y="397.087279" xlink:href="#b"/>
<use x="1232.242424" y="749.974767" xlink:href="#b"/>
<use x="1309.671258" y="749.974767" xlink:href="#b"/>
<use x="1430.809917" y="515.1882" xlink:href="#b"/>
<use x="1556.943985" y="749.974767" xlink:href="#b"/>
<use x="1430.809917" y="632.888537" xlink:href="#b"/>
<use x="1389.597796" y="749.974767" xlink:href="#b"/>
<use x="1472.022039" y="749.974767" xlink:href="#b"/>
<use x="315.58494" y="632.888537" xlink:href="#b"/>
<use x="445.708397" y="278.68759" xlink:href="#b"/>
<use x="882.56382" y="749.974767" xlink:href="#b"/>
<use x="947.504132" y="749.974767" xlink:href="#b"/>
<use x="1014.942149" y="749.974767" xlink:href="#b"/>
<use x="370.534435" y="749.974767" xlink:href="#b"/>
<use x="410.497704" y="749.974767" xlink:href="#b"/>
<use x="548.842771" y="397.087279" xlink:href="#b"/>
<use x="497.917355" y="749.974767" xlink:href="#b"/>
<use x="599.768187" y="515.1882" xlink:href="#b"/>
<use x="652.775023" y="749.974767" xlink:href="#b"/>
<use x="648.612182" y="632.888537" xlink:href="#b"/>
<use x="595.327824" y="749.974767" xlink:href="#b"/>
<use x="647.779614" y="749.974767" xlink:href="#b"/>
<use x="702.729109" y="749.974767" xlink:href="#b"/>
<use x="298.10101" y="749.974767" xlink:href="#b"/>
<use x="333.068871" y="749.974767" xlink:href="#b"/>
<use x="103.280073" y="632.888537" xlink:href="#b"/>
<use x="160.727273" y="749.974767" xlink:href="#b"/>
<use x="195.695133" y="632.888537" xlink:href="#b"/>
<use x="235.658402" y="749.974767" xlink:href="#b"/>
<use x="183.206612" y="749.974767" xlink:href="#b"/>
<use x="208.183655" y="749.974767" xlink:href="#b"/>
<use x="85.796143" y="749.974767" xlink:href="#b"/>
<use x="95.786961" y="749.974767" xlink:href="#b"/>
<use x="108.275482" y="749.974767" xlink:href="#b"/>
<use x="123.261708" y="749.974767" xlink:href="#b"/>
<use x="140.745638" y="749.974767" xlink:href="#b"/>
<use x="452.958678" y="749.974767" xlink:href="#b"/>
<use x="820.121212" y="749.974767" xlink:href="#b"/>
<use x="1084.87787" y="749.974767" xlink:href="#b"/>
<use x="1644.363636" y="749.974767" xlink:href="#b"/>
</g>
<g clip-path="url(#a)">
<defs>
<path id="ac" d="m48.688 27.297q0 9.9062-4.0781 15.547t-11.203 5.6406q-7.1406 0-11.219-5.6406t-4.0781-15.547 4.0781-15.547 11.219-5.6406q7.125 0 11.203 5.6406t4.0781 15.547zm-30.578 19.094q2.8438 4.875 7.1562 7.2344 4.3281 2.375 10.328 2.375 9.9688 0 16.188-7.9062 6.2344-7.9062 6.2344-20.797t-6.2344-20.812q-6.2188-7.9062-16.188-7.9062-6 0-10.328 2.375-4.3125 2.375-7.1562 7.25v-8.2031h-9.0312v75.984h9.0312z"/>
</defs>
<g transform="translate(66.576 868.21) scale(.1 -.1)">
<use xlink:href="#o"/>
<use x="68.408203" xlink:href="#ac"/>
<use x="131.884766" xlink:href="#d"/>
<use x="193.408203" xlink:href="#h"/>
</g>
</g>
<g clip-path="url(#a)">
<defs>
<path id="as" d="m4.2031 54.688h8.9844l11.234-42.672 11.172 42.672h10.594l11.234-42.672 11.188 42.672h8.9844l-14.312-54.688h-10.594l-11.766 44.828-11.812-44.828h-10.609z"/>
</defs>
<g transform="translate(77.241 868.21) scale(.1 -.1)">
<use xlink:href="#as"/>
<use x="81.787109" xlink:href="#f"/>
<use x="109.570312" xlink:href="#d"/>
</g>
</g>
<g clip-path="url(#a)">
<defs>
<path id="aq" d="m45.406 27.984q0 9.7656-4.0312 15.125-4.0156 5.375-11.297 5.375-7.2188 0-11.25-5.375-4.0312-5.3594-4.0312-15.125 0-9.7188 4.0312-15.094t11.25-5.375q7.2812 0 11.297 5.375 4.0312 5.375 4.0312 15.094zm8.9844-21.203q0-13.953-6.2031-20.766-6.1875-6.8125-18.984-6.8125-4.7344 0-8.9375 0.70312t-8.1562 2.1719v8.7344q3.9531-2.1406 7.8125-3.1562 3.8594-1.0312 7.8594-1.0312 8.8438 0 13.234 4.6094t4.3906 13.938v4.4531q-2.7812-4.8438-7.125-7.2344t-10.406-2.3906q-10.047 0-16.203 7.6562-6.1562 7.6719-6.1562 20.328 0 12.688 6.1562 20.344 6.1562 7.6719 16.203 7.6719 6.0625 0 10.406-2.3906t7.125-7.2188v8.2969h8.9844z"/>
<path id="aa" d="m37.109 75.984v-7.4844h-8.5938q-4.8281 0-6.7188-1.9531-1.875-1.9531-1.875-7.0312v-4.8281h14.797v-6.9844h-14.797v-47.703h-9.0312v47.703h-8.5938v6.9844h8.5938v3.8125q0 9.125 4.25 13.297 4.25 4.1875 13.469 4.1875z"/>
<path id="ar" d="m34.281 27.484q-10.891 0-15.094-2.4844t-4.2031-8.5q0-4.7812 3.1562-7.5938 3.1562-2.7969 8.5625-2.7969 7.4844 0 12 5.2969t4.5156 14.078v2zm17.922 3.7188v-31.203h-8.9844v8.2969q-3.0781-4.9688-7.6719-7.3438t-11.234-2.375q-8.3906 0-13.359 4.7188-4.9531 4.7188-4.9531 12.625 0 9.2188 6.1719 13.906 6.1875 4.6875 18.438 4.6875h12.609v0.89062q0 6.2031-4.0781 9.5938t-11.453 3.3906q-4.6875 0-9.1406-1.125-4.4375-1.125-8.5312-3.375v8.3125q4.9219 1.9062 9.5625 2.8438 4.6406 0.95312 9.0312 0.95312 11.875 0 17.734-6.1562 5.8594-6.1406 5.8594-18.641zm-18.609 44.578h9.9062v-9.8594h-9.9062zm-19.094 0h9.9062v-9.8594h-9.9062z"/>
<path id="v" d="m54.891 33.016v-33.016h-8.9844v32.719q0 7.7656-3.0312 11.609-3.0312 3.8594-9.0781 3.8594-7.2812 0-11.484-4.6406-4.2031-4.625-4.2031-12.641v-30.906h-9.0312v75.984h9.0312v-29.797q3.2344 4.9375 7.5938 7.375 4.375 2.4375 10.094 2.4375 9.4219 0 14.25-5.8281 4.8438-5.8281 4.8438-17.156z"/>
<path id="ab" d="m48.781 52.594v-8.4062q-3.8125 2.1094-7.6406 3.1562t-7.7344 1.0469q-8.75 0-13.594-5.5469-4.8281-5.5312-4.8281-15.547t4.8281-15.562q4.8438-5.5312 13.594-5.5312 3.9062 0 7.7344 1.0469t7.6406 3.1562v-8.3125q-3.7656-1.75-7.7969-2.625-4.0156-0.89062-8.5625-0.89062-12.359 0-19.641 7.7656-7.2656 7.7656-7.2656 20.953 0 13.375 7.3438 21.031 7.3594 7.6719 20.156 7.6719 4.1406 0 8.0938-0.85938 3.9531-0.84375 7.6719-2.5469z"/>
</defs>
<g transform="translate(70.792 868.21) scale(.1 -.1)">
<use xlink:href="#aq"/>
<use x="63.476562" xlink:href="#d"/>
<use x="125" xlink:href="#aa"/>
<use x="160.205078" xlink:href="#ar"/>
<use x="221.484375" xlink:href="#v"/>
<use x="284.863281" xlink:href="#h"/>
<use x="325.976562" xlink:href="#k"/>
<use x="353.759766" xlink:href="#f"/>
<use x="381.542969" xlink:href="#ab"/>
<use x="436.523438" xlink:href="#v"/>
</g>
</g>
<g clip-path="url(#a)">
<defs>
<path id="z" d="m30.609 48.391q-7.2188 0-11.422-5.6406t-4.2031-15.453 4.1719-15.453q4.1875-5.6406 11.453-5.6406 7.1875 0 11.375 5.6562 4.2031 5.6719 4.2031 15.438 0 9.7188-4.2031 15.406-4.1875 5.6875-11.375 5.6875zm0 7.6094q11.719 0 18.406-7.625 6.7031-7.6094 6.7031-21.078 0-13.422-6.7031-21.078-6.6875-7.6406-18.406-7.6406-11.766 0-18.438 7.6406-6.6562 7.6562-6.6562 21.078 0 13.469 6.6562 21.078 6.6719 7.625 18.438 7.625z"/>
<path id="y" d="m18.312 70.219v-15.531h18.5v-6.9844h-18.5v-29.688q0-6.6875 1.8281-8.5938t7.4531-1.9062h9.2188v-7.5156h-9.2188q-10.406 0-14.359 3.875-3.9531 3.8906-3.9531 14.141v29.688h-6.5938v6.9844h6.5938v15.531z"/>
<path id="ai" d="m8.5 21.578v33.109h8.9844v-32.766q0-7.7656 3.0156-11.656 3.0312-3.875 9.0938-3.875 7.2656 0 11.484 4.6406 4.2344 4.6406 4.2344 12.656v31h8.9844v-54.688h-8.9844v8.4062q-3.2656-4.9844-7.5938-7.4062-4.3125-2.4219-10.031-2.4219-9.4219 0-14.312 5.8594-4.875 5.8594-4.875 17.141z"/>
</defs>
<g transform="translate(67.78 868.21) scale(.1 -.1)">
<use xlink:href="#o"/>
<use x="64.783203" xlink:href="#aa"/>
<use x="99.988281" xlink:href="#aa"/>
<use x="135.193359" xlink:href="#d"/>
<use x="196.716797" xlink:href="#e"/>
<use x="260.095703" xlink:href="#ac"/>
<use x="323.572266" xlink:href="#h"/>
<use x="362.435547" xlink:href="#z"/>
<use x="423.617188" xlink:href="#y"/>
<use x="462.826172" xlink:href="#ac"/>
<use x="526.302734" xlink:href="#ar"/>
<use x="587.582031" xlink:href="#ai"/>
<use x="650.960938" xlink:href="#j"/>
<use x="748.373047" xlink:href="#d"/>
</g>
</g>
<g clip-path="url(#a)">
<defs>
<path id="q" d="m44.281 53.078v-8.5q-3.7969 1.9531-7.9062 2.9219-4.0938 0.98438-8.5 0.98438-6.6875 0-10.031-2.0469t-3.3438-6.1562q0-3.125 2.3906-4.9062t9.625-3.3906l3.0781-0.6875q9.5625-2.0469 13.594-5.7812t4.0312-10.422q0-7.625-6.0312-12.078-6.0312-4.4375-16.578-4.4375-4.3906 0-9.1562 0.85938t-10.031 2.5625v9.2812q4.9844-2.5938 9.8125-3.8906 4.8281-1.2812 9.5781-1.2812 6.3438 0 9.75 2.1719 3.4219 2.1719 3.4219 6.125 0 3.6562-2.4688 5.6094-2.4531 1.9531-10.812 3.7656l-3.125 0.73438q-8.3438 1.75-12.062 5.3906-3.7031 3.6406-3.7031 9.9844 0 7.7188 5.4688 11.906 5.4688 4.2031 15.531 4.2031 4.9688 0 9.3594-0.73438 4.4062-0.71875 8.1094-2.1875z"/>
<path id="r" d="m45.406 46.391v29.594h8.9844v-75.984h-8.9844v8.2031q-2.8281-4.875-7.1562-7.25-4.3125-2.375-10.375-2.375-9.9062 0-16.141 7.9062-6.2188 7.9219-6.2188 20.812t6.2188 20.797q6.2344 7.9062 16.141 7.9062 6.0625 0 10.375-2.375 4.3281-2.3594 7.1562-7.2344zm-30.609-19.094q0-9.9062 4.0781-15.547t11.203-5.6406 11.219 5.6406q4.1094 5.6406 4.1094 15.547t-4.1094 15.547q-4.0938 5.6406-11.219 5.6406t-11.203-5.6406-4.0781-15.547z"/>
</defs>
<g transform="translate(112.92 868.21) scale(.1 -.1)">
<use xlink:href="#q"/>
<use x="52.099609" xlink:href="#f"/>
<use x="79.882812" xlink:href="#e"/>
<use x="143.261719" xlink:href="#r"/>
</g>
</g>
<g clip-path="url(#a)">
<defs>
<path id="ah" d="m11.719 12.406h10.297v-8.4062l-8-15.625h-6.2969l4 15.625z"/>
</defs>
<g transform="translate(139.16 868.21) scale(.1 -.1)">
<use xlink:href="#ah"/>
</g>
</g>
<g clip-path="url(#a)">
<g transform="translate(154.77 868.21) scale(.1 -.1)">
<use xlink:href="#f"/>
<use x="27.783203" xlink:href="#q"/>
<use x="79.882812" xlink:href="#y"/>
</g>
</g>
<g clip-path="url(#a)">
<g transform="translate(177.54 868.21) scale(.1 -.1)">
<use xlink:href="#q"/>
<use x="52.099609" xlink:href="#z"/>
</g>
</g>
<g clip-path="url(#a)">
<g transform="translate(193.29 868.21) scale(.1 -.1)">
<use xlink:href="#as"/>
<use x="81.787109" xlink:href="#d"/>
<use x="143.310547" xlink:href="#e"/>
<use x="206.689453" xlink:href="#f"/>
<use x="234.472656" xlink:href="#aq"/>
</g>
</g>
<g clip-path="url(#a)">
<defs>
<path id="at" d="m9.0781 75.984h9.0312v-44.875l26.812 23.578h11.469l-29-25.578 30.234-29.109h-11.719l-27.797 26.703v-26.703h-9.0312z"/>
</defs>
<g transform="translate(215.24 868.21) scale(.1 -.1)">
<use xlink:href="#ac"/>
<use x="63.476562" xlink:href="#d"/>
<use x="125" xlink:href="#at"/>
<use x="181.160156" xlink:href="#i"/>
<use x="242.439453" xlink:href="#e"/>
<use x="305.818359" xlink:href="#e"/>
<use x="369.197266" xlink:href="#y"/>
</g>
</g>
<g clip-path="url(#a)">
<g transform="translate(256.12 868.21) scale(.1 -.1)">
<use xlink:href="#ai"/>
<use x="63.378906" xlink:href="#e"/>
<use x="126.757812" xlink:href="#r"/>
</g>
</g>
<g clip-path="url(#a)">
<g transform="translate(290.46 868.21) scale(.1 -.1)">
<use xlink:href="#r"/>
<use x="63.476562" xlink:href="#f"/>
<use x="91.259766" xlink:href="#d"/>
</g>
</g>
<g clip-path="url(#a)">
<g transform="translate(315.25 868.21) scale(.1 -.1)">
<use xlink:href="#ak"/>
<use x="69.482422" xlink:href="#f"/>
<use x="97.265625" xlink:href="#q"/>
<use x="149.365234" xlink:href="#f"/>
<use x="177.148438" xlink:href="#at"/>
<use x="231.433594" xlink:href="#d"/>
<use x="292.957031" xlink:href="#e"/>
</g>
</g>
<g clip-path="url(#a)">
<defs>
<path id="au" d="m8.5 21.578v33.109h8.9844v-32.766q0-7.7656 3.0156-11.656 3.0312-3.875 9.0938-3.875 7.2656 0 11.484 4.6406 4.2344 4.6406 4.2344 12.656v31h8.9844v-54.688h-8.9844v8.4062q-3.2656-4.9844-7.5938-7.4062-4.3125-2.4219-10.031-2.4219-9.4219 0-14.312 5.8594-4.875 5.8594-4.875 17.141zm22.609 34.422m4.4844 19.781h9.9062v-9.8594h-9.9062zm-19.094 0h9.9062v-9.8594h-9.9062z"/>
</defs>
<g transform="translate(363.55 868.21) scale(.1 -.1)">
<use xlink:href="#aa"/>
<use x="35.205078" xlink:href="#au"/>
<use x="98.583984" xlink:href="#h"/>
</g>
</g>
<g clip-path="url(#a)">
<defs>
<path id="ax" d="m9.4219 54.688h8.9844v-55.672q0-10.438-3.9844-15.125-3.9688-4.6875-12.812-4.6875h-3.4219v7.6094h2.4062q5.125 0 6.9688 2.375 1.8594 2.3594 1.8594 9.8281zm0 21.297h8.9844v-11.391h-8.9844z"/>
</defs>
<g transform="translate(385.51 868.21) scale(.1 -.1)">
<use xlink:href="#ax"/>
<use x="27.783203" xlink:href="#d"/>
<use x="89.306641" xlink:href="#j"/>
<use x="186.71875" xlink:href="#i"/>
<use x="247.998047" xlink:href="#e"/>
<use x="311.376953" xlink:href="#r"/>
<use x="374.853516" xlink:href="#d"/>
<use x="436.376953" xlink:href="#e"/>
</g>
</g>
<g clip-path="url(#a)">
<g transform="translate(451.37 868.21) scale(.1 -.1)">
<use xlink:href="#ah"/>
</g>
</g>
<g clip-path="url(#a)">
<g transform="translate(489.61 868.21) scale(.1 -.1)">
<use xlink:href="#r"/>
<use x="63.476562" xlink:href="#d"/>
<use x="125" xlink:href="#h"/>
</g>
</g>
<g clip-path="url(#a)">
<g transform="translate(535.46 868.21) scale(.1 -.1)">
<use xlink:href="#q"/>
<use x="52.099609" xlink:href="#f"/>
<use x="79.882812" xlink:href="#ab"/>
<use x="134.863281" xlink:href="#v"/>
</g>
</g>
<g clip-path="url(#a)">
<g transform="translate(587.33 868.21) scale(.1 -.1)">
<use xlink:href="#i"/>
<use x="61.279297" xlink:href="#ai"/>
<use x="124.658203" xlink:href="#aa"/>
</g>
</g>
<g clip-path="url(#a)">
<g transform="translate(633.9 868.21) scale(.1 -.1)">
<use xlink:href="#d"/>
<use x="61.523438" xlink:href="#f"/>
<use x="89.306641" xlink:href="#e"/>
<use x="152.685547" xlink:href="#d"/>
<use x="214.208984" xlink:href="#e"/>
</g>
</g>
<g clip-path="url(#a)">
<g transform="translate(675.86 868.21) scale(.1 -.1)">
<use xlink:href="#o"/>
<use x="68.408203" xlink:href="#q"/>
<use x="120.507812" xlink:href="#y"/>
<use x="159.716797" xlink:href="#d"/>
<use x="221.240234" xlink:href="#h"/>
<use x="260.103516" xlink:href="#z"/>
<use x="321.285156" xlink:href="#f"/>
<use x="349.068359" xlink:href="#r"/>
<use x="412.544922" xlink:href="#d"/>
<use x="474.068359" xlink:href="#e"/>
</g>
</g>
<g clip-path="url(#a)">
<defs>
<path id="aw" d="m2.9844 54.688h9.5156l17.094-45.891 17.094 45.891h9.5156l-20.516-54.688h-12.203z"/>
</defs>
<g transform="translate(744.71 868.21) scale(.1 -.1)">
<use xlink:href="#aw"/>
<use x="59.179688" xlink:href="#d"/>
<use x="120.703125" xlink:href="#h"/>
<use x="161.816406" xlink:href="#f"/>
<use x="189.599609" xlink:href="#h"/>
<use x="228.962891" xlink:href="#h"/>
<use x="270.076172" xlink:href="#y"/>
</g>
</g>
<g clip-path="url(#a)">
<g transform="translate(818.53 868.21) scale(.1 -.1)">
<use xlink:href="#ah"/>
</g>
</g>
<g clip-path="url(#a)">
<g transform="translate(872.23 868.21) scale(.1 -.1)">
<use xlink:href="#q"/>
<use x="52.099609" xlink:href="#f"/>
<use x="79.882812" xlink:href="#e"/>
<use x="143.261719" xlink:href="#r"/>
</g>
</g>
<g clip-path="url(#a)">
<g transform="translate(941.84 868.21) scale(.1 -.1)">
<use xlink:href="#q"/>
<use x="52.099609" xlink:href="#z"/>
</g>
</g>
<g clip-path="url(#a)">
<defs>
<path id="av" d="m9.0781 55.516q0 9.7656 5.8281 15.109 5.8438 5.3594 16.484 5.3594 10.156 0 15.5-5.6719 5.3594-5.6562 5.5-16.594-7.375-0.39062-11.484-3.2031-4.0938-2.8125-4.0938-7.5 0-2.2969 1.4219-4.2812 1.4219-1.9688 4.5938-4.0156l2.7812-1.8125q8.1094-5.1719 10.453-8.6406t2.3438-8.3438q0-8.4062-5.5-12.875t-15.797-4.4688q-3.125 0-6.4531 0.60938-3.3125 0.60938-6.875 1.7969v8q3.9062-1.4688 7.3125-2.1719 3.4219-0.70312 6.6094-0.70312 5.6562 0 8.5781 2.3125 2.9375 2.3281 2.9375 6.7656 0 3.0781-1.4375 5.125t-6.375 5.0781l-4.4844 2.6875q-4.6875 2.875-6.8125 6.1719t-2.125 7.75q0 6.1875 4.0781 10.391t11.438 5.625q-0.39062 5.0156-3.5938 7.75-3.1875 2.7344-8.7031 2.7344-6.3438 0-9.6719-3.3906-3.3125-3.3906-3.3125-9.7812v-55.328h-9.1406z"/>
</defs>
<g transform="translate(1003.6 868.21) scale(.1 -.1)">
<use xlink:href="#aq"/>
<use x="63.476562" xlink:href="#h"/>
<use x="102.339844" xlink:href="#z"/>
<use x="163.521484" xlink:href="#av"/>
</g>
</g>
<g clip-path="url(#a)">
<g transform="translate(1083.3 868.21) scale(.1 -.1)">
<use xlink:href="#ah"/>
</g>
</g>
<g clip-path="url(#a)">
<g transform="translate(1145.9 868.21) scale(.1 -.1)">
<use xlink:href="#r"/>
<use x="63.476562" xlink:href="#i"/>
<use x="124.755859" xlink:href="#q"/>
<use x="176.855469" xlink:href="#q"/>
</g>
</g>
<g clip-path="url(#a)">
<g transform="translate(1224.9 868.21) scale(.1 -.1)">
<use xlink:href="#f"/>
<use x="27.783203" xlink:href="#ab"/>
<use x="82.763672" xlink:href="#v"/>
</g>
</g>
<g clip-path="url(#a)">
<g transform="translate(1292.7 868.21) scale(.1 -.1)">
<use xlink:href="#d"/>
<use x="61.523438" xlink:href="#f"/>
<use x="89.306641" xlink:href="#e"/>
<use x="152.685547" xlink:href="#j"/>
<use x="250.097656" xlink:href="#i"/>
<use x="311.376953" xlink:href="#k"/>
</g>
</g>
<g clip-path="url(#a)">
<g transform="translate(1378.9 868.21) scale(.1 -.1)">
<use xlink:href="#d"/>
<use x="61.523438" xlink:href="#f"/>
<use x="89.306641" xlink:href="#e"/>
<use x="152.685547" xlink:href="#d"/>
</g>
</g>
<g clip-path="url(#a)">
<g transform="translate(1445.5 868.21) scale(.1 -.1)">
<use xlink:href="#o"/>
<use x="68.408203" xlink:href="#ai"/>
<use x="131.787109" xlink:href="#q"/>
<use x="183.886719" xlink:href="#e"/>
<use x="247.265625" xlink:href="#i"/>
<use x="308.544922" xlink:href="#v"/>
<use x="371.923828" xlink:href="#j"/>
<use x="469.335938" xlink:href="#d"/>
</g>
</g>
<g clip-path="url(#a)">
<g transform="translate(1540 868.21) scale(.1 -.1)">
<use xlink:href="#j"/>
<use x="97.412109" xlink:href="#i"/>
<use x="158.691406" xlink:href="#ab"/>
<use x="213.671875" xlink:href="#v"/>
<use x="277.050781" xlink:href="#d"/>
</g>
</g>
<g clip-path="url(#a)">
<defs>
<path id="g" d="m10.688 12.406h10.312v-12.406h-10.312z"/>
</defs>
<g transform="translate(1642.8 868.21) scale(.1 -.1)">
<use xlink:href="#g"/>
</g>
</g>
<g clip-path="url(#a)">
<defs>
<path id="c" d="m12.406 8.2969h16.109v55.625l-17.531-3.5156v8.9844l17.438 3.5156h9.8594v-64.609h16.109v-8.2969h-41.984z"/>
</defs>
<g transform="translate(695.75 43.971) scale(.1 -.1)">
<use xlink:href="#c"/>
<use x="63.623047" xlink:href="#g"/>
<use x="95.410156" xlink:href="#c"/>
</g>
</g>
<g clip-path="url(#a)">
<defs>
<path id="p" d="m19.188 8.2969h34.422v-8.2969h-46.281v8.2969q5.6094 5.8125 15.297 15.594 9.7031 9.7969 12.188 12.641 4.7344 5.3125 6.6094 9 1.8906 3.6875 1.8906 7.25 0 5.8125-4.0781 9.4688-4.0781 3.6719-10.625 3.6719-4.6406 0-9.7969-1.6094-5.1406-1.6094-11-4.8906v9.9688q5.9531 2.3906 11.125 3.6094 5.1875 1.2188 9.4844 1.2188 11.328 0 18.062-5.6719 6.7344-5.6562 6.7344-15.125 0-4.5-1.6875-8.5312-1.6719-4.0156-6.125-9.4844-1.2188-1.4219-7.7656-8.1875-6.5312-6.7656-18.453-18.922z"/>
</defs>
<g transform="translate(70.351 752.73) scale(.1 -.1)">
<use xlink:href="#c"/>
<use x="63.623047" xlink:href="#g"/>
<use x="95.410156" xlink:href="#p"/>
</g>
</g>
<g clip-path="url(#a)">
<defs>
<path id="m" d="m40.578 39.312q7.0781-1.5156 11.047-6.3125 3.9844-4.7812 3.9844-11.812 0-10.781-7.4219-16.703-7.4219-5.9062-21.094-5.9062-4.5781 0-9.4375 0.90625t-10.031 2.7188v9.5156q4.0938-2.3906 8.9688-3.6094 4.8906-1.2188 10.219-1.2188 9.2656 0 14.125 3.6562t4.8594 10.641q0 6.4531-4.5156 10.078-4.5156 3.6406-12.562 3.6406h-8.5v8.1094h8.8906q7.2656 0 11.125 2.9062t3.8594 8.375q0 5.6094-3.9844 8.6094-3.9688 3.0156-11.391 3.0156-4.0625 0-8.7031-0.89062-4.6406-0.875-10.203-2.7188v8.7812q5.625 1.5625 10.531 2.3438t9.25 0.78125q11.234 0 17.766-5.1094 6.5469-5.0938 6.5469-13.781 0-6.0625-3.4688-10.234t-9.8594-5.7812z"/>
</defs>
<g transform="translate(159.27 517.95) scale(.1 -.1)">
<use xlink:href="#c"/>
<use x="63.623047" xlink:href="#g"/>
<use x="95.410156" xlink:href="#m"/>
</g>
</g>
<g clip-path="url(#a)">
<defs>
<path id="n" d="m37.797 64.312-24.906-38.922h24.906zm-2.5938 8.5938h12.406v-47.516h10.406v-8.2031h-10.406v-17.188h-9.8125v17.188h-32.906v9.5156z"/>
</defs>
<g transform="translate(257.68 752.73) scale(.1 -.1)">
<use xlink:href="#c"/>
<use x="63.623047" xlink:href="#g"/>
<use x="95.410156" xlink:href="#n"/>
</g>
</g>
<g clip-path="url(#a)">
<defs>
<path id="s" d="m10.797 72.906h38.719v-8.3125h-29.688v-17.859q2.1406 0.73438 4.2812 1.0938 2.1562 0.35938 4.3125 0.35938 12.203 0 19.328-6.6875 7.1406-6.6875 7.1406-18.109 0-11.766-7.3281-18.297-7.3281-6.5156-20.656-6.5156-4.5938 0-9.3594 0.78125-4.75 0.78125-9.8281 2.3438v9.9219q4.3906-2.3906 9.0781-3.5625t9.9062-1.1719q8.4531 0 13.375 4.4375 4.9375 4.4375 4.9375 12.062 0 7.6094-4.9375 12.047-4.9219 4.4531-13.375 4.4531-3.9531 0-7.8906-0.875-3.9219-0.875-8.0156-2.7344z"/>
</defs>
<g transform="translate(729.79 162.81) scale(.1 -.1)">
<use xlink:href="#c"/>
<use x="63.623047" xlink:href="#g"/>
<use x="95.410156" xlink:href="#s"/>
</g>
</g>
<g clip-path="url(#a)">
<defs>
<path id="af" d="m33.016 40.375q-6.6406 0-10.531-4.5469-3.875-4.5312-3.875-12.438 0-7.8594 3.875-12.438 3.8906-4.5625 10.531-4.5625t10.516 4.5625q3.875 4.5781 3.875 12.438 0 7.9062-3.875 12.438-3.875 4.5469-10.516 4.5469zm19.578 30.922v-8.9844q-3.7188 1.75-7.5 2.6719-3.7812 0.9375-7.5 0.9375-9.7656 0-14.922-6.5938-5.1406-6.5938-5.875-19.922 2.875 4.25 7.2188 6.5156 4.3594 2.2656 9.5781 2.2656 10.984 0 17.359-6.6719 6.375-6.6562 6.375-18.125 0-11.234-6.6406-18.031-6.6406-6.7812-17.672-6.7812-12.656 0-19.344 9.6875-6.6875 9.7031-6.6875 28.109 0 17.281 8.2031 27.562t22.016 10.281q3.7188 0 7.5-0.73438t7.8906-2.1875z"/>
</defs>
<g transform="translate(1149.4 752.73) scale(.1 -.1)">
<use xlink:href="#c"/>
<use x="63.623047" xlink:href="#g"/>
<use x="95.410156" xlink:href="#af"/>
</g>
</g>
<g clip-path="url(#a)">
<defs>
<path id="x" d="m8.2031 72.906h46.875v-4.2031l-26.469-68.703h-10.297l24.906 64.594h-35.016z"/>
</defs>
<g transform="translate(1426.9 399.85) scale(.1 -.1)">
<use xlink:href="#c"/>
<use x="63.623047" xlink:href="#g"/>
<use x="95.410156" xlink:href="#x"/>
</g>
</g>
<g clip-path="url(#a)">
<defs>
<path id="ag" d="m31.781 66.406q-7.6094 0-11.453-7.5-3.8281-7.4844-3.8281-22.531 0-14.984 3.8281-22.484 3.8438-7.5 11.453-7.5 7.6719 0 11.5 7.5 3.8438 7.5 3.8438 22.484 0 15.047-3.8438 22.531-3.8281 7.5-11.5 7.5zm0 7.8125q12.266 0 18.734-9.7031 6.4688-9.6875 6.4688-28.141 0-18.406-6.4688-28.109-6.4688-9.6875-18.734-9.6875-12.25 0-18.719 9.6875-6.4688 9.7031-6.4688 28.109 0 18.453 6.4688 28.141 6.4688 9.7031 18.719 9.7031z"/>
</defs>
<g transform="translate(1221.1 752.73) scale(.1 -.1)">
<use xlink:href="#c"/>
<use x="63.623047" xlink:href="#g"/>
<use x="95.410156" xlink:href="#c"/>
<use x="159.033203" xlink:href="#ag"/>
</g>
</g>
<g clip-path="url(#a)">
<g transform="translate(1298.5 752.73) scale(.1 -.1)">
<use xlink:href="#c"/>
<use x="63.623047" xlink:href="#g"/>
<use x="95.410156" xlink:href="#c"/>
<use x="159.033203" xlink:href="#c"/>
</g>
</g>
<g clip-path="url(#a)">
<g transform="translate(1419.7 517.95) scale(.1 -.1)">
<use xlink:href="#c"/>
<use x="63.623047" xlink:href="#g"/>
<use x="95.410156" xlink:href="#c"/>
<use x="159.033203" xlink:href="#p"/>
</g>
</g>
<g clip-path="url(#a)">
<g transform="translate(1545.8 752.73) scale(.1 -.1)">
<use xlink:href="#c"/>
<use x="63.623047" xlink:href="#g"/>
<use x="95.410156" xlink:href="#c"/>
<use x="159.033203" xlink:href="#m"/>
</g>
</g>
<g clip-path="url(#a)">
<g transform="translate(1419.7 635.65) scale(.1 -.1)">
<use xlink:href="#c"/>
<use x="63.623047" xlink:href="#g"/>
<use x="95.410156" xlink:href="#c"/>
<use x="159.033203" xlink:href="#n"/>
</g>
</g>
<g clip-path="url(#a)">
<g transform="translate(1378.5 752.73) scale(.1 -.1)">
<use xlink:href="#c"/>
<use x="63.623047" xlink:href="#g"/>
<use x="95.410156" xlink:href="#c"/>
<use x="159.033203" xlink:href="#s"/>
</g>
</g>
<g clip-path="url(#a)">
<g transform="translate(1460.9 752.73) scale(.1 -.1)">
<use xlink:href="#c"/>
<use x="63.623047" xlink:href="#g"/>
<use x="95.410156" xlink:href="#c"/>
<use x="159.033203" xlink:href="#af"/>
</g>
</g>
<g clip-path="url(#a)">
<g transform="translate(304.45 635.65) scale(.1 -.1)">
<use xlink:href="#c"/>
<use x="63.623047" xlink:href="#g"/>
<use x="95.410156" xlink:href="#c"/>
<use x="159.033203" xlink:href="#x"/>
</g>
</g>
<g clip-path="url(#a)">
<defs>
<path id="ae" d="m31.781 34.625q-7.0312 0-11.062-3.7656-4.0156-3.7656-4.0156-10.344 0-6.5938 4.0156-10.359 4.0312-3.7656 11.062-3.7656t11.078 3.7812q4.0625 3.7969 4.0625 10.344 0 6.5781-4.0312 10.344-4.0156 3.7656-11.109 3.7656zm-9.8594 4.1875q-6.3438 1.5625-9.8906 5.9062-3.5312 4.3594-3.5312 10.609 0 8.7344 6.2188 13.812 6.2344 5.0781 17.062 5.0781 10.891 0 17.094-5.0781t6.2031-13.812q0-6.25-3.5469-10.609-3.5312-4.3438-9.8281-5.9062 7.125-1.6562 11.094-6.5 3.9844-4.8281 3.9844-11.797 0-10.609-6.4688-16.281-6.4688-5.6562-18.531-5.6562-12.047 0-18.531 5.6562-6.4688 5.6719-6.4688 16.281 0 6.9688 4 11.797 4.0156 4.8438 11.141 6.5zm-3.6094 15.578q0-5.6562 3.5312-8.8281 3.5469-3.1719 9.9375-3.1719 6.3594 0 9.9375 3.1719 3.5938 3.1719 3.5938 8.8281 0 5.6719-3.5938 8.8438-3.5781 3.1719-9.9375 3.1719-6.3906 0-9.9375-3.1719-3.5312-3.1719-3.5312-8.8438z"/>
</defs>
<g transform="translate(434.58 281.45) scale(.1 -.1)">
<use xlink:href="#c"/>
<use x="63.623047" xlink:href="#g"/>
<use x="95.410156" xlink:href="#c"/>
<use x="159.033203" xlink:href="#ae"/>
</g>
</g>
<g clip-path="url(#a)">
<defs>
<path id="ad" d="m10.984 1.5156v8.9844q3.7188-1.7656 7.5156-2.6875 3.8125-0.92188 7.4844-0.92188 9.7656 0 14.906 6.5625 5.1562 6.5625 5.8906 19.953-2.8281-4.2031-7.1875-6.4531-4.3438-2.25-9.6094-2.25-10.938 0-17.312 6.6094-6.375 6.625-6.375 18.109 0 11.219 6.6406 18 6.6406 6.7969 17.672 6.7969 12.656 0 19.312-9.7031 6.6719-9.6875 6.6719-28.141 0-17.234-8.1875-27.516-8.1719-10.281-21.984-10.281-3.7188 0-7.5312 0.73438-3.7969 0.73438-7.9062 2.2031zm19.625 30.906q6.6406 0 10.516 4.5312 3.8906 4.5469 3.8906 12.469 0 7.8594-3.8906 12.422-3.875 4.5625-10.516 4.5625t-10.516-4.5625-3.875-12.422q0-7.9219 3.875-12.469 3.875-4.5312 10.516-4.5312z"/>
</defs>
<g transform="translate(871.43 752.73) scale(.1 -.1)">
<use xlink:href="#c"/>
<use x="63.623047" xlink:href="#g"/>
<use x="95.410156" xlink:href="#c"/>
<use x="159.033203" xlink:href="#ad"/>
</g>
</g>
<g clip-path="url(#a)">
<g transform="translate(936.37 752.73) scale(.1 -.1)">
<use xlink:href="#c"/>
<use x="63.623047" xlink:href="#g"/>
<use x="95.410156" xlink:href="#p"/>
<use x="159.033203" xlink:href="#ag"/>
</g>
</g>
<g clip-path="url(#a)">
<g transform="translate(1003.8 752.73) scale(.1 -.1)">
<use xlink:href="#c"/>
<use x="63.623047" xlink:href="#g"/>
<use x="95.410156" xlink:href="#p"/>
<use x="159.033203" xlink:href="#c"/>
</g>
</g>
<g clip-path="url(#a)">
<g transform="translate(359.4 752.73) scale(.1 -.1)">
<use xlink:href="#c"/>
<use x="63.623047" xlink:href="#g"/>
<use x="95.410156" xlink:href="#p"/>
<use x="159.033203" xlink:href="#m"/>
</g>
</g>
<g clip-path="url(#a)">
<g transform="translate(399.36 752.73) scale(.1 -.1)">
<use xlink:href="#c"/>
<use x="63.623047" xlink:href="#g"/>
<use x="95.410156" xlink:href="#p"/>
<use x="159.033203" xlink:href="#n"/>
</g>
</g>
<g clip-path="url(#a)">
<g transform="translate(537.71 399.85) scale(.1 -.1)">
<use xlink:href="#c"/>
<use x="63.623047" xlink:href="#g"/>
<use x="95.410156" xlink:href="#p"/>
<use x="159.033203" xlink:href="#s"/>
</g>
</g>
<g clip-path="url(#a)">
<g transform="translate(486.78 752.73) scale(.1 -.1)">
<use xlink:href="#c"/>
<use x="63.623047" xlink:href="#g"/>
<use x="95.410156" xlink:href="#p"/>
<use x="159.033203" xlink:href="#x"/>
</g>
</g>
<g clip-path="url(#a)">
<g transform="translate(588.64 517.95) scale(.1 -.1)">
<use xlink:href="#c"/>
<use x="63.623047" xlink:href="#g"/>
<use x="95.410156" xlink:href="#p"/>
<use x="159.033203" xlink:href="#ae"/>
</g>
</g>
<g clip-path="url(#a)">
<g transform="translate(641.64 752.73) scale(.1 -.1)">
<use xlink:href="#c"/>
<use x="63.623047" xlink:href="#g"/>
<use x="95.410156" xlink:href="#p"/>
<use x="159.033203" xlink:href="#ad"/>
</g>
</g>
<g clip-path="url(#a)">
<g transform="translate(637.48 635.65) scale(.1 -.1)">
<use xlink:href="#c"/>
<use x="63.623047" xlink:href="#g"/>
<use x="95.410156" xlink:href="#m"/>
<use x="159.033203" xlink:href="#ag"/>
</g>
</g>
<g clip-path="url(#a)">
<g transform="translate(584.2 752.73) scale(.1 -.1)">
<use xlink:href="#c"/>
<use x="63.623047" xlink:href="#g"/>
<use x="95.410156" xlink:href="#m"/>
<use x="159.033203" xlink:href="#c"/>
</g>
</g>
<g clip-path="url(#a)">
<g transform="translate(636.65 752.73) scale(.1 -.1)">
<use xlink:href="#c"/>
<use x="63.623047" xlink:href="#g"/>
<use x="95.410156" xlink:href="#m"/>
<use x="159.033203" xlink:href="#p"/>
</g>
</g>
<g clip-path="url(#a)">
<g transform="translate(691.6 752.73) scale(.1 -.1)">
<use xlink:href="#c"/>
<use x="63.623047" xlink:href="#g"/>
<use x="95.410156" xlink:href="#m"/>
<use x="159.033203" xlink:href="#m"/>
</g>
</g>
<g clip-path="url(#a)">
<g transform="translate(286.97 752.73) scale(.1 -.1)">
<use xlink:href="#c"/>
<use x="63.623047" xlink:href="#g"/>
<use x="95.410156" xlink:href="#m"/>
<use x="159.033203" xlink:href="#n"/>
</g>
</g>
<g clip-path="url(#a)">
<g transform="translate(321.94 752.73) scale(.1 -.1)">
<use xlink:href="#c"/>
<use x="63.623047" xlink:href="#g"/>
<use x="95.410156" xlink:href="#m"/>
<use x="159.033203" xlink:href="#s"/>
</g>
</g>
<g clip-path="url(#a)">
<g transform="translate(92.147 635.65) scale(.1 -.1)">
<use xlink:href="#c"/>
<use x="63.623047" xlink:href="#g"/>
<use x="95.410156" xlink:href="#m"/>
<use x="159.033203" xlink:href="#af"/>
</g>
</g>
<g clip-path="url(#a)">
<g transform="translate(149.59 752.73) scale(.1 -.1)">
<use xlink:href="#c"/>
<use x="63.623047" xlink:href="#g"/>
<use x="95.410156" xlink:href="#m"/>
<use x="159.033203" xlink:href="#x"/>
</g>
</g>
<g clip-path="url(#a)">
<g transform="translate(184.56 635.65) scale(.1 -.1)">
<use xlink:href="#c"/>
<use x="63.623047" xlink:href="#g"/>
<use x="95.410156" xlink:href="#m"/>
<use x="159.033203" xlink:href="#ae"/>
</g>
</g>
<g clip-path="url(#a)">
<g transform="translate(224.53 752.73) scale(.1 -.1)">
<use xlink:href="#c"/>
<use x="63.623047" xlink:href="#g"/>
<use x="95.410156" xlink:href="#m"/>
<use x="159.033203" xlink:href="#ad"/>
</g>
</g>
<g clip-path="url(#a)">
<g transform="translate(172.07 752.73) scale(.1 -.1)">
<use xlink:href="#c"/>
<use x="63.623047" xlink:href="#g"/>
<use x="95.410156" xlink:href="#n"/>
<use x="159.033203" xlink:href="#c"/>
</g>
</g>
<g clip-path="url(#a)">
<g transform="translate(197.05 752.73) scale(.1 -.1)">
<use xlink:href="#c"/>
<use x="63.623047" xlink:href="#g"/>
<use x="95.410156" xlink:href="#n"/>
<use x="159.033203" xlink:href="#p"/>
</g>
</g>
<g clip-path="url(#a)">
<g transform="translate(74.663 752.73) scale(.1 -.1)">
<use xlink:href="#c"/>
<use x="63.623047" xlink:href="#g"/>
<use x="95.410156" xlink:href="#n"/>
<use x="159.033203" xlink:href="#m"/>
</g>
</g>
<g clip-path="url(#a)">
<g transform="translate(84.654 752.73) scale(.1 -.1)">
<use xlink:href="#c"/>
<use x="63.623047" xlink:href="#g"/>
<use x="95.410156" xlink:href="#n"/>
<use x="159.033203" xlink:href="#n"/>
</g>
</g>
<g clip-path="url(#a)">
<g transform="translate(97.143 752.73) scale(.1 -.1)">
<use xlink:href="#c"/>
<use x="63.623047" xlink:href="#g"/>
<use x="95.410156" xlink:href="#n"/>
<use x="159.033203" xlink:href="#s"/>
</g>
</g>
<g clip-path="url(#a)">
<g transform="translate(112.13 752.73) scale(.1 -.1)">
<use xlink:href="#c"/>
<use x="63.623047" xlink:href="#g"/>
<use x="95.410156" xlink:href="#n"/>
<use x="159.033203" xlink:href="#af"/>
</g>
</g>
<g clip-path="url(#a)">
<g transform="translate(129.61 752.73) scale(.1 -.1)">
<use xlink:href="#c"/>
<use x="63.623047" xlink:href="#g"/>
<use x="95.410156" xlink:href="#n"/>
<use x="159.033203" xlink:href="#x"/>
</g>
</g>
<g clip-path="url(#a)">
<g transform="translate(441.83 752.73) scale(.1 -.1)">
<use xlink:href="#c"/>
<use x="63.623047" xlink:href="#g"/>
<use x="95.410156" xlink:href="#n"/>
<use x="159.033203" xlink:href="#ae"/>
</g>
</g>
<g clip-path="url(#a)">
<g transform="translate(808.99 752.73) scale(.1 -.1)">
<use xlink:href="#c"/>
<use x="63.623047" xlink:href="#g"/>
<use x="95.410156" xlink:href="#n"/>
<use x="159.033203" xlink:href="#ad"/>
</g>
</g>
<g clip-path="url(#a)">
<g transform="translate(1073.7 752.73) scale(.1 -.1)">
<use xlink:href="#c"/>
<use x="63.623047" xlink:href="#g"/>
<use x="95.410156" xlink:href="#s"/>
<use x="159.033203" xlink:href="#ag"/>
</g>
</g>
<g clip-path="url(#a)">
<g transform="translate(1633.2 752.73) scale(.1 -.1)">
<use xlink:href="#c"/>
<use x="63.623047" xlink:href="#g"/>
<use x="95.410156" xlink:href="#s"/>
<use x="159.033203" xlink:href="#c"/>
</g>
</g>
<defs>
<clipPath id="a">
<rect width="1722.7" height="906.67"/>
</clipPath>
</defs>
</svg>
