<?xml version="1.0" encoding="UTF-8"?>
<!DOCTYPE svg  PUBLIC '-//W3C//DTD SVG 1.1//EN'  'http://www.w3.org/Graphics/SVG/1.1/DTD/svg11.dtd'>
<svg width="1317.3pt" height="693.33pt" version="1.1" viewBox="0 0 1317.3 693.33" xmlns="http://www.w3.org/2000/svg" xmlns:xlink="http://www.w3.org/1999/xlink">
<defs>
<style type="text/css">*{stroke-linecap:butt;stroke-linejoin:round;}</style>
</defs>
<path d="m0 693.33h1317.3v-693.33h-1317.3z" fill="#fff"/>
<g fill="none" stroke="#000">
<path d="m453.36 32.622-369.31 381.99" clip-path="url(#a)"/>
<path d="m453.36 32.622 25.738 130.06" clip-path="url(#a)"/>
<path d="m453.36 32.622 66.44 257.23" clip-path="url(#a)"/>
<path d="m453.36 32.622 277.13 505.04" clip-path="url(#a)"/>
<path d="m84.048 414.61-23.942 123.05" clip-path="url(#a)"/>
<path d="m84.048 414.61 23.942 123.05" clip-path="url(#a)"/>
<path d="m479.1 162.68-251.4 251.93" clip-path="url(#a)"/>
<path d="m479.1 162.68-131.68 374.98" clip-path="url(#a)"/>
<path d="m479.1 162.68-83.799 374.98" clip-path="url(#a)"/>
<path d="m479.1 162.68 466.88 127.16" clip-path="url(#a)"/>
<path d="m519.8 289.85-4.7885 124.76" clip-path="url(#a)"/>
<path d="m519.8 289.85 67.039 247.81" clip-path="url(#a)"/>
<path d="m519.8 289.85 138.87 124.76" clip-path="url(#a)"/>
<path d="m519.8 289.85-124.5 247.81" clip-path="url(#a)" stroke-dasharray="3.7,1.6"/>
<path d="m519.8 289.85-76.616 247.81" clip-path="url(#a)"/>
<path d="m515.01 414.61-23.942 123.05" clip-path="url(#a)"/>
<path d="m515.01 414.61 23.942 123.05" clip-path="url(#a)"/>
<path d="m586.84 537.66v123.05" clip-path="url(#a)"/>
<path d="m658.67 414.61-23.942 123.05" clip-path="url(#a)"/>
<path d="m658.67 414.61 23.942 123.05" clip-path="url(#a)"/>
<path d="m634.72 537.66v123.05" clip-path="url(#a)"/>
<path d="m682.61 537.66v123.05" clip-path="url(#a)"/>
<path d="m491.07 537.66v123.05" clip-path="url(#a)"/>
<path d="m538.95 537.66v123.05" clip-path="url(#a)"/>
<path d="m227.7 414.61-71.827 123.05" clip-path="url(#a)"/>
<path d="m227.7 414.61-23.942 123.05" clip-path="url(#a)"/>
<path d="m227.7 414.61 23.942 123.05" clip-path="url(#a)"/>
<path d="m227.7 414.61 71.827 123.05" clip-path="url(#a)"/>
<path d="m347.41 537.66v123.05" clip-path="url(#a)"/>
<path d="m395.3 537.66v123.05" clip-path="url(#a)"/>
<path d="m945.98 289.85-167.6 247.81" clip-path="url(#a)"/>
<path d="m945.98 289.85-71.827 124.76" clip-path="url(#a)"/>
<path d="m945.98 289.85-71.827 247.81" clip-path="url(#a)"/>
<path d="m945.98 289.85 71.827 124.76" clip-path="url(#a)"/>
<path d="m945.98 289.85 239.42 124.76" clip-path="url(#a)"/>
<path d="m778.38 537.66v123.05" clip-path="url(#a)"/>
<path d="m874.15 414.61-47.885 123.05" clip-path="url(#a)"/>
<path d="m874.15 414.61 47.885 123.05" clip-path="url(#a)"/>
<path d="m874.15 537.66v123.05" clip-path="url(#a)"/>
<path d="m1017.8 414.61-47.885 123.05" clip-path="url(#a)"/>
<path d="m1017.8 414.61v123.05" clip-path="url(#a)"/>
<path d="m1017.8 414.61 47.885 123.05" clip-path="url(#a)"/>
<path d="m1185.4 414.61-71.827 123.05" clip-path="url(#a)"/>
<path d="m1185.4 414.61-23.942 123.05" clip-path="url(#a)"/>
<path d="m1185.4 414.61 23.942 123.05" clip-path="url(#a)"/>
<path d="m1185.4 414.61 71.827 123.05" clip-path="url(#a)"/>
<path d="m1113.6 537.66v123.05" clip-path="url(#a)"/>
<path d="m1161.5 537.66v123.05" clip-path="url(#a)"/>
<path d="m1209.3 537.66v123.05" clip-path="url(#a)"/>
<path d="m969.92 537.66v123.05" clip-path="url(#a)"/>
<path d="m1017.8 537.66v123.05" clip-path="url(#a)"/>
<path d="m1065.7 537.66v123.05" clip-path="url(#a)"/>
<path d="m826.26 537.66v123.05" clip-path="url(#a)"/>
<path d="m922.03 537.66v123.05" clip-path="url(#a)"/>
<path d="m155.88 537.66v123.05" clip-path="url(#a)"/>
<path d="m203.76 537.66v123.05" clip-path="url(#a)"/>
<path d="m251.65 537.66v123.05" clip-path="url(#a)"/>
<path d="m299.53 537.66v123.05" clip-path="url(#a)"/>
<path d="m60.105 537.66v123.05" clip-path="url(#a)"/>
<path d="m107.99 537.66v123.05" clip-path="url(#a)"/>
<path d="m443.18 537.66v123.05" clip-path="url(#a)"/>
<path d="m730.49 537.66v123.05" clip-path="url(#a)"/>
<path d="m1257.2 537.66v123.05" clip-path="url(#a)"/>
</g>
<path d="m271.12 230.14 4.1818-4.3253q1.6682-1.7254-0.05726-3.3936l-5.5664-5.3816q-1.7254-1.6682-3.3936 0.05726l-4.1818 4.3253q-1.6682 1.7254 0.05726 3.3936l5.5664 5.3816q1.7254 1.6682 3.3936-0.057261z" clip-path="url(#a)" fill="#fff" stroke="#fff"/>
<g clip-path="url(#a)">
<defs>
<path id="ac" d="m9.8125 72.906h9.8594v-29.891h35.844v29.891h9.8594v-72.906h-9.8594v34.719h-35.844v-34.719h-9.8594z"/>
</defs>
<g transform="translate(268.2 227.31) rotate(-45.967) scale(.08 -.08)">
<use xlink:href="#ac"/>
</g>
</g>
<path d="m459.49 95.919 1.1679 5.9018q0.4659 2.3543 2.8202 1.8884l7.5952-1.503q2.3543-0.4659 1.8884-2.8202l-1.1679-5.9018q-0.4659-2.3543-2.8202-1.8884l-7.5952 1.503q-2.3543 0.4659-1.8884 2.8202z" clip-path="url(#a)" fill="#fff" stroke="#fff"/>
<g clip-path="url(#a)">
<g transform="translate(463.48 95.13) rotate(78.806) scale(.08 -.08)">
<use xlink:href="#ac"/>
</g>
</g>
<path d="m479.76 159.89 1.5046 5.8251q0.60021 2.3237 2.9239 1.7235l7.4965-1.9363q2.3237-0.60021 1.7235-2.9239l-1.5046-5.8251q-0.60021-2.3237-2.9239-1.7235l-7.4965 1.9363q-2.3237 0.60021-1.7235 2.9239z" clip-path="url(#a)" fill="#fff" stroke="#fff"/>
<g clip-path="url(#a)">
<g transform="translate(483.69 158.87) rotate(75.517) scale(.08 -.08)">
<use xlink:href="#ac"/>
</g>
</g>
<path d="m585.02 285.59 2.8167 5.133q1.1546 2.104 3.2586 0.94947l6.7877-3.7247q2.104-1.1546 0.94948-3.2586l-2.8167-5.133q-1.1546-2.104-3.2586-0.94948l-6.7877 3.7247q-2.104 1.1546-0.94948 3.2586z" clip-path="url(#a)" fill="#fff" stroke="#fff"/>
<g clip-path="url(#a)">
<defs>
<path id="aa" d="m8.6875 72.906h9.9219v-44.297q0-11.719 4.2344-16.875 4.25-5.1406 13.781-5.1406 9.4688 0 13.719 5.1406 4.25 5.1562 4.25 16.875v44.297h9.9062v-45.516q0-14.25-7.0625-21.531-7.0469-7.2812-20.812-7.2812-13.828 0-20.891 7.2812-7.0469 7.2812-7.0469 21.531z"/>
</defs>
<g transform="translate(588.58 283.64) rotate(61.245) scale(.08 -.08)">
<use xlink:href="#aa"/>
</g>
</g>
<path d="m77.75 479.81 0.96547-4.9619q0.45838-2.3558-1.8974-2.8142l-7.6-1.4788q-2.3558-0.45838-2.8142 1.8974l-0.96547 4.9619q-0.45838 2.3558 1.8974 2.8142l7.6 1.4788q2.3558 0.45838 2.8142-1.8974z" clip-path="url(#a)" fill="#fff" stroke="#fff"/>
<g clip-path="url(#a)">
<defs>
<path id="u" d="m9.8125 72.906h46.094v-8.3125h-36.234v-21.578h34.719v-8.2969h-34.719v-26.422h37.109v-8.2969h-46.969z"/>
</defs>
<g transform="translate(73.761 479.04) rotate(-78.989) scale(.08 -.08)">
<use xlink:href="#u"/>
</g>
</g>
<path d="m89.33 474.59 1.0669 5.4834q0.45838 2.3558 2.8142 1.8974l7.6-1.4788q2.3558-0.45838 1.8974-2.8142l-1.0669-5.4834q-0.45838-2.3558-2.8142-1.8974l-7.6 1.4788q-2.3558 0.45838-1.8974 2.8142z" clip-path="url(#a)" fill="#fff" stroke="#fff"/>
<g clip-path="url(#a)">
<defs>
<path id="o" d="m64.406 67.281v-10.391q-4.9844 4.6406-10.625 6.9219-5.6406 2.2969-11.984 2.2969-12.5 0-19.141-7.6406t-6.6406-22.094q0-14.406 6.6406-22.047t19.141-7.6406q6.3438 0 11.984 2.2969t10.625 6.9375v-10.312q-5.1719-3.5156-10.969-5.2812-5.7812-1.75-12.219-1.75-16.562 0-26.094 10.125-9.5156 10.141-9.5156 27.672 0 17.578 9.5156 27.703 9.5312 10.141 26.094 10.141 6.5312 0 12.312-1.7344 5.7969-1.7344 10.875-5.2031z"/>
</defs>
<g transform="translate(93.319 473.82) rotate(78.989) scale(.08 -.08)">
<use xlink:href="#o"/>
</g>
</g>
<path d="m356.11 294.81 3.4515-3.4587q1.6953-1.6988-0.003581-3.3941l-5.4805-5.469q-1.6988-1.6953-3.3941 0.003581l-3.4515 3.4587q-1.6953 1.6988 0.003582 3.3941l5.4805 5.469q1.6988 1.6953 3.3941-0.003581z" clip-path="url(#a)" fill="#fff" stroke="#fff"/>
<g clip-path="url(#a)">
<defs>
<path id="l" d="m-0.29688 72.906h61.672v-8.3125h-25.875v-64.594h-9.9062v64.594h-25.891z"/>
</defs>
<g transform="translate(353.24 291.94) rotate(-45.06) scale(.08 -.08)">
<use xlink:href="#l"/>
</g>
</g>
<path d="m418.37 354.53 1.5983-4.5513q0.79522-2.2644-1.4692-3.0596l-7.3051-2.5654q-2.2644-0.79522-3.0596 1.4692l-1.5983 4.5513q-0.79522 2.2644 1.4692 3.0596l7.3051 2.5654q2.2644 0.79522 3.0596-1.4692z" clip-path="url(#a)" fill="#fff" stroke="#fff"/>
<g clip-path="url(#a)">
<defs>
<path id="ak" d="m19.672 64.797v-27.391h12.406q6.8906 0 10.641 3.5625 3.7656 3.5625 3.7656 10.156 0 6.5469-3.7656 10.109-3.75 3.5625-10.641 3.5625zm-9.8594 8.1094h22.266q12.266 0 18.531-5.5469 6.2812-5.5469 6.2812-16.234 0-10.797-6.2812-16.312-6.2656-5.5156-18.531-5.5156h-12.406v-29.297h-9.8594z"/>
</defs>
<g transform="translate(414.54 353.18) rotate(-70.65) scale(.08 -.08)">
<use xlink:href="#ak"/>
</g>
</g>
<path d="m442.72 354.21 1.1935-5.3408q0.52343-2.3422-1.8188-2.8657l-7.5561-1.6886q-2.3422-0.52343-2.8657 1.8188l-1.1935 5.3408q-0.52343 2.3422 1.8188 2.8657l7.5561 1.6886q2.3422 0.52343 2.8657-1.8188z" clip-path="url(#a)" fill="#fff" stroke="#fff"/>
<g clip-path="url(#a)">
<defs>
<path id="p" d="m34.188 63.188-13.391-36.281h26.812zm-5.5781 9.7188h11.188l27.781-72.906h-10.25l-6.6406 18.703h-32.859l-6.6406-18.703h-10.406z"/>
</defs>
<g transform="translate(438.76 353.32) rotate(-77.403) scale(.08 -.08)">
<use xlink:href="#p"/>
</g>
</g>
<path d="m708.25 231.6 5.2801 1.4382q2.3156 0.63072 2.9464-1.6849l2.0347-7.4704q0.63072-2.3156-1.6849-2.9464l-5.2801-1.4382q-2.3156-0.63072-2.9464 1.6849l-2.0347 7.4704q-0.63072 2.3156 1.6849 2.9464z" clip-path="url(#a)" fill="#fff" stroke="#fff"/>
<g clip-path="url(#a)">
<g transform="translate(709.32 227.68) rotate(15.236) scale(.08 -.08)">
<use xlink:href="#p"/>
</g>
</g>
<path d="m523.55 355.55 0.23625-6.1555q0.092047-2.3982-2.3062-2.4903l-7.7368-0.29695q-2.3982-0.092046-2.4903 2.3062l-0.23625 6.1555q-0.092047 2.3982 2.3062 2.4903l7.7368 0.29694q2.3982 0.092047 2.4903-2.3062z" clip-path="url(#a)" fill="#fff" stroke="#fff"/>
<g clip-path="url(#a)">
<defs>
<path id="am" d="m19.672 64.797v-56.688h11.922q15.094 0 22.094 6.8281 7 6.8438 7 21.594 0 14.641-7 21.453t-22.094 6.8125zm-9.8594 8.1094h20.266q21.188 0 31.094-8.8125 9.9219-8.8125 9.9219-27.562 0-18.859-9.9688-27.703-9.9531-8.8281-31.047-8.8281h-20.266z"/>
</defs>
<g transform="translate(519.49 355.39) rotate(-87.802) scale(.08 -.08)">
<use xlink:href="#am"/>
</g>
</g>
<path d="m546.6 412.94 1.3262 4.9025q0.62673 2.3167 2.9435 1.69l7.4739-2.0218q2.3167-0.62673 1.69-2.9435l-1.3262-4.9025q-0.62673-2.3167-2.9434-1.69l-7.4739 2.0218q-2.3167 0.62673-1.69 2.9435z" clip-path="url(#a)" fill="#fff" stroke="#fff"/>
<g clip-path="url(#a)">
<defs>
<path id="ab" d="m53.516 70.516v-9.625q-5.6094 2.6875-10.594 4-4.9844 1.3281-9.625 1.3281-8.0469 0-12.422-3.125t-4.375-8.8906q0-4.8438 2.9062-7.3125 2.9062-2.4531 11.016-3.9688l5.9531-1.2188q11.031-2.1094 16.281-7.4062t5.25-14.172q0-10.609-7.1094-16.078-7.0938-5.4688-20.812-5.4688-5.1719 0-11.016 1.1719-5.8281 1.1719-12.078 3.4688v10.156q6-3.3594 11.766-5.0781 5.7656-1.7031 11.328-1.7031 8.4375 0 13.031 3.3125 4.5938 3.3281 4.5938 9.4844 0 5.3594-3.2969 8.3906t-10.812 4.5469l-6.0156 1.1719q-11.031 2.1875-15.969 6.875-4.9219 4.6875-4.9219 13.047 0 9.6719 6.8125 15.234t18.766 5.5625q5.1406 0 10.453-0.9375 5.3281-0.92188 10.891-2.7656z"/>
</defs>
<g transform="translate(550.53 411.88) rotate(74.863) scale(.08 -.08)">
<use xlink:href="#ab"/>
</g>
</g>
<path d="m583.01 355.07 4.0708 3.6574q1.7853 1.604 3.3893-0.18132l5.1745-5.7594q1.604-1.7853-0.18132-3.3893l-4.0708-3.6574q-1.7853-1.604-3.3893 0.18132l-5.1745 5.7594q-1.604 1.7853 0.18132 3.3893z" clip-path="url(#a)" fill="#fff" stroke="#fff"/>
<g clip-path="url(#a)">
<g transform="translate(585.72 352.04) rotate(41.938) scale(.08 -.08)">
<use xlink:href="#p"/>
</g>
</g>
<path d="m461.93 419.02 2.4568-4.8901q1.0774-2.1446-1.0671-3.222l-6.9185-3.4758q-2.1446-1.0774-3.222 1.0671l-2.4568 4.8901q-1.0774 2.1446 1.0671 3.222l6.9185 3.4758q2.1446 1.0774 3.222-1.0671z" clip-path="url(#a)" fill="#fff" stroke="#fff"/>
<g clip-path="url(#a)">
<g transform="translate(458.29 417.19) rotate(-63.325) scale(.08 -.08)">
<use xlink:href="#p"/>
</g>
</g>
<path d="m486.62 418.4 1.7294-5.5938q0.7089-2.2929-1.584-3.0018l-7.397-2.2869q-2.2929-0.7089-3.0018 1.584l-1.7294 5.5938q-0.7089 2.2929 1.584 3.0018l7.397 2.2869q2.2929 0.7089 3.0018-1.584z" clip-path="url(#a)" fill="#fff" stroke="#fff"/>
<g clip-path="url(#a)">
<g transform="translate(482.74 417.2) rotate(-72.82) scale(.08 -.08)">
<use xlink:href="#aa"/>
</g>
</g>
<path d="m508.71 479.81 0.96547-4.9619q0.45838-2.3558-1.8974-2.8142l-7.6-1.4788q-2.3558-0.45838-2.8142 1.8974l-0.96547 4.9619q-0.45838 2.3558 1.8974 2.8142l7.6 1.4788q2.3558 0.45838 2.8142-1.8974z" clip-path="url(#a)" fill="#fff" stroke="#fff"/>
<g clip-path="url(#a)">
<g transform="translate(504.72 479.04) rotate(-78.989) scale(.08 -.08)">
<use xlink:href="#u"/>
</g>
</g>
<path d="m520.29 474.59 1.0669 5.4834q0.45838 2.3558 2.8142 1.8974l7.6-1.4788q2.3558-0.45838 1.8974-2.8142l-1.0669-5.4834q-0.45838-2.3558-2.8142-1.8974l-7.6 1.4788q-2.3558 0.45838-1.8974 2.8142z" clip-path="url(#a)" fill="#fff" stroke="#fff"/>
<g clip-path="url(#a)">
<g transform="translate(524.28 473.82) rotate(78.989) scale(.08 -.08)">
<use xlink:href="#o"/>
</g>
</g>
<path d="m580.57 581.54v35.285q0 2.4 2.4 2.4h7.7425q2.4 0 2.4-2.4v-35.285q0-2.4-2.4-2.4h-7.7425q-2.4 0-2.4 2.4z" clip-path="url(#a)" fill="#fff" stroke="#fff"/>
<g clip-path="url(#a)">
<defs>
<path id="d" d="m56.203 29.594v-4.3906h-41.312q0.59375-9.2812 5.5938-14.141t13.938-4.8594q5.1719 0 10.031 1.2656t9.6562 3.8125v-8.5q-4.8438-2.0469-9.9219-3.125t-10.297-1.0781q-13.094 0-20.734 7.6094-7.6406 7.625-7.6406 20.625 0 13.422 7.25 21.297 7.25 7.8906 19.562 7.8906 11.031 0 17.453-7.1094 6.4219-7.0938 6.4219-19.297zm-8.9844 2.6406q-0.09375 7.3594-4.125 11.75-4.0312 4.4062-10.672 4.4062-7.5156 0-12.031-4.25t-5.2031-11.969z"/>
<path id="j" d="m41.109 46.297q-1.5156 0.875-3.2969 1.2812-1.7812 0.42188-3.9219 0.42188-7.625 0-11.703-4.9531t-4.0781-14.234v-28.812h-9.0312v54.688h9.0312v-8.5q2.8438 4.9844 7.375 7.3906 4.5469 2.4219 11.047 2.4219 0.92188 0 2.0469-0.125 1.125-0.10938 2.4844-0.35938z"/>
<path id="i" d="m52 44.188q3.375 6.0625 8.0625 8.9375t11.031 2.875q8.5469 0 13.188-5.9844 4.6406-5.9688 4.6406-17v-33.016h-9.0312v32.719q0 7.8594-2.7969 11.656-2.7812 3.8125-8.4844 3.8125-6.9844 0-11.047-4.6406-4.0469-4.625-4.0469-12.641v-30.906h-9.0312v32.719q0 7.9062-2.7812 11.688t-8.5938 3.7812q-6.8906 0-10.953-4.6562-4.0469-4.6562-4.0469-12.625v-30.906h-9.0312v54.688h9.0312v-8.5q3.0781 5.0312 7.375 7.4219t10.203 2.3906q5.9688 0 10.141-3.0312 4.1719-3.0156 6.1719-8.7812z"/>
<path id="g" d="m9.4219 54.688h8.9844v-54.688h-8.9844zm0 21.297h8.9844v-11.391h-8.9844z"/>
<path id="e" d="m54.891 33.016v-33.016h-8.9844v32.719q0 7.7656-3.0312 11.609-3.0312 3.8594-9.0781 3.8594-7.2812 0-11.484-4.6406-4.2031-4.625-4.2031-12.641v-30.906h-9.0312v54.688h9.0312v-8.5q3.2344 4.9375 7.5938 7.375 4.375 2.4375 10.094 2.4375 9.4219 0 14.25-5.8281 4.8438-5.8281 4.8438-17.156z"/>
<path id="h" d="m34.281 27.484q-10.891 0-15.094-2.4844t-4.2031-8.5q0-4.7812 3.1562-7.5938 3.1562-2.7969 8.5625-2.7969 7.4844 0 12 5.2969t4.5156 14.078v2zm17.922 3.7188v-31.203h-8.9844v8.2969q-3.0781-4.9688-7.6719-7.3438t-11.234-2.375q-8.3906 0-13.359 4.7188-4.9531 4.7188-4.9531 12.625 0 9.2188 6.1719 13.906 6.1875 4.6875 18.438 4.6875h12.609v0.89062q0 6.2031-4.0781 9.5938t-11.453 3.3906q-4.6875 0-9.1406-1.125-4.4375-1.125-8.5312-3.375v8.3125q4.9219 1.9062 9.5625 2.8438 4.6406 0.95312 9.0312 0.95312 11.875 0 17.734-6.1562 5.8594-6.1406 5.8594-18.641z"/>
<path id="k" d="m9.4219 75.984h8.9844v-75.984h-8.9844z"/>
</defs>
<g transform="translate(584.63 581.54) rotate(90) scale(.08 -.08)">
<use xlink:href="#l"/>
<use x="60.818359" xlink:href="#d"/>
<use x="122.341797" xlink:href="#j"/>
<use x="163.439453" xlink:href="#i"/>
<use x="260.851562" xlink:href="#g"/>
<use x="288.634766" xlink:href="#e"/>
<use x="352.013672" xlink:href="#h"/>
<use x="413.292969" xlink:href="#k"/>
</g>
</g>
<path d="m652.32 480.06 1.0617-5.4564q0.45838-2.3558-1.8974-2.8142l-7.6-1.4788q-2.3558-0.45838-2.8142 1.8974l-1.0617 5.4564q-0.45838 2.3558 1.8974 2.8142l7.6 1.4788q2.3558 0.45838 2.8142-1.8974z" clip-path="url(#a)" fill="#fff" stroke="#fff"/>
<g clip-path="url(#a)">
<defs>
<path id="r" d="m44.391 34.188q3.1719-1.0781 6.1719-4.5938t6.0312-9.6719l10.016-19.922h-10.609l-9.3125 18.703q-3.625 7.3281-7.0156 9.7188t-9.25 2.3906h-10.75v-30.812h-9.8594v72.906h22.266q12.5 0 18.656-5.2344 6.1562-5.2188 6.1562-15.766 0-6.8906-3.2031-11.438-3.2031-4.5312-9.2969-6.2812zm-24.719 30.609v-25.875h12.406q7.125 0 10.766 3.2969t3.6406 9.6875-3.6406 9.6406-10.766 3.25z"/>
</defs>
<g transform="translate(648.33 479.29) rotate(-78.989) scale(.08 -.08)">
<use xlink:href="#r"/>
</g>
</g>
<path d="m663.95 474.59 1.0669 5.4834q0.45838 2.3558 2.8142 1.8974l7.6-1.4788q2.3558-0.45838 1.8974-2.8142l-1.0669-5.4834q-0.45838-2.3558-2.8142-1.8974l-7.6 1.4788q-2.3558 0.45838-1.8974 2.8142z" clip-path="url(#a)" fill="#fff" stroke="#fff"/>
<g clip-path="url(#a)">
<g transform="translate(667.94 473.82) rotate(78.989) scale(.08 -.08)">
<use xlink:href="#o"/>
</g>
</g>
<path d="m628.45 581.54v35.285q0 2.4 2.4 2.4h7.7425q2.4 0 2.4-2.4v-35.285q0-2.4-2.4-2.4h-7.7425q-2.4 0-2.4 2.4z" clip-path="url(#a)" fill="#fff" stroke="#fff"/>
<g clip-path="url(#a)">
<g transform="translate(632.52 581.54) rotate(90) scale(.08 -.08)">
<use xlink:href="#l"/>
<use x="60.818359" xlink:href="#d"/>
<use x="122.341797" xlink:href="#j"/>
<use x="163.439453" xlink:href="#i"/>
<use x="260.851562" xlink:href="#g"/>
<use x="288.634766" xlink:href="#e"/>
<use x="352.013672" xlink:href="#h"/>
<use x="413.292969" xlink:href="#k"/>
</g>
</g>
<path d="m676.34 581.54v35.285q0 2.4 2.4 2.4h7.7425q2.4 0 2.4-2.4v-35.285q0-2.4-2.4-2.4h-7.7425q-2.4 0-2.4 2.4z" clip-path="url(#a)" fill="#fff" stroke="#fff"/>
<g clip-path="url(#a)">
<g transform="translate(680.4 581.54) rotate(90) scale(.08 -.08)">
<use xlink:href="#l"/>
<use x="60.818359" xlink:href="#d"/>
<use x="122.341797" xlink:href="#j"/>
<use x="163.439453" xlink:href="#i"/>
<use x="260.851562" xlink:href="#g"/>
<use x="288.634766" xlink:href="#e"/>
<use x="352.013672" xlink:href="#h"/>
<use x="413.292969" xlink:href="#k"/>
</g>
</g>
<path d="m484.8 581.54v35.285q0 2.4 2.4 2.4h7.7425q2.4 0 2.4-2.4v-35.285q0-2.4-2.4-2.4h-7.7425q-2.4 0-2.4 2.4z" clip-path="url(#a)" fill="#fff" stroke="#fff"/>
<g clip-path="url(#a)">
<g transform="translate(488.86 581.54) rotate(90) scale(.08 -.08)">
<use xlink:href="#l"/>
<use x="60.818359" xlink:href="#d"/>
<use x="122.341797" xlink:href="#j"/>
<use x="163.439453" xlink:href="#i"/>
<use x="260.851562" xlink:href="#g"/>
<use x="288.634766" xlink:href="#e"/>
<use x="352.013672" xlink:href="#h"/>
<use x="413.292969" xlink:href="#k"/>
</g>
</g>
<path d="m532.68 581.54v35.285q0 2.4 2.4 2.4h7.7425q2.4 0 2.4-2.4v-35.285q0-2.4-2.4-2.4h-7.7425q-2.4 0-2.4 2.4z" clip-path="url(#a)" fill="#fff" stroke="#fff"/>
<g clip-path="url(#a)">
<g transform="translate(536.75 581.54) rotate(90) scale(.08 -.08)">
<use xlink:href="#l"/>
<use x="60.818359" xlink:href="#d"/>
<use x="122.341797" xlink:href="#j"/>
<use x="163.439453" xlink:href="#i"/>
<use x="260.851562" xlink:href="#g"/>
<use x="288.634766" xlink:href="#e"/>
<use x="352.013672" xlink:href="#h"/>
<use x="413.292969" xlink:href="#k"/>
</g>
</g>
<path d="m195.8 481.7 2.8023-4.8007q1.2099-2.0727-0.86283-3.2826l-6.6867-3.9032q-2.0727-1.2099-3.2826 0.86282l-2.8023 4.8007q-1.2099 2.0727 0.86283 3.2826l6.6867 3.9032q2.0727 1.2099 3.2826-0.86282z" clip-path="url(#a)" fill="#fff" stroke="#fff"/>
<g clip-path="url(#a)">
<g transform="translate(192.29 479.65) rotate(-59.727) scale(.08 -.08)">
<use xlink:href="#r"/>
</g>
</g>
<path d="m221.45 479.59 0.8788-4.5165q0.45838-2.3558-1.8974-2.8142l-7.6-1.4788q-2.3558-0.45838-2.8142 1.8974l-0.8788 4.5165q-0.45838 2.3558 1.8974 2.8142l7.6 1.4788q2.3558 0.45838 2.8142-1.8974z" clip-path="url(#a)" fill="#fff" stroke="#fff"/>
<g clip-path="url(#a)">
<defs>
<path id="ad" d="m9.8125 72.906h41.891v-8.3125h-32.031v-21.484h28.906v-8.2969h-28.906v-34.812h-9.8594z"/>
</defs>
<g transform="translate(217.46 478.82) rotate(-78.989) scale(.08 -.08)">
<use xlink:href="#ad"/>
</g>
</g>
<path d="m233.04 474.85 0.96547 4.9619q0.45838 2.3558 2.8142 1.8974l7.6-1.4788q2.3558-0.45838 1.8974-2.8142l-0.96547-4.9619q-0.45838-2.3558-2.8142-1.8974l-7.6 1.4788q-2.3558 0.45838-1.8974 2.8142z" clip-path="url(#a)" fill="#fff" stroke="#fff"/>
<g clip-path="url(#a)">
<g transform="translate(237.02 474.08) rotate(78.989) scale(.08 -.08)">
<use xlink:href="#u"/>
</g>
</g>
<path d="m256.79 476.89 2.8162 4.8245q1.2099 2.0727 3.2826 0.86282l6.6867-3.9032q2.0727-1.2099 0.86282-3.2826l-2.8162-4.8245q-1.2099-2.0727-3.2826-0.86282l-6.6867 3.9032q-2.0727 1.2099-0.86283 3.2826z" clip-path="url(#a)" fill="#fff" stroke="#fff"/>
<g clip-path="url(#a)">
<g transform="translate(260.3 474.84) rotate(59.727) scale(.08 -.08)">
<use xlink:href="#o"/>
</g>
</g>
<path d="m341.14 581.54v35.285q0 2.4 2.4 2.4h7.7425q2.4 0 2.4-2.4v-35.285q0-2.4-2.4-2.4h-7.7425q-2.4 0-2.4 2.4z" clip-path="url(#a)" fill="#fff" stroke="#fff"/>
<g clip-path="url(#a)">
<g transform="translate(345.21 581.54) rotate(90) scale(.08 -.08)">
<use xlink:href="#l"/>
<use x="60.818359" xlink:href="#d"/>
<use x="122.341797" xlink:href="#j"/>
<use x="163.439453" xlink:href="#i"/>
<use x="260.851562" xlink:href="#g"/>
<use x="288.634766" xlink:href="#e"/>
<use x="352.013672" xlink:href="#h"/>
<use x="413.292969" xlink:href="#k"/>
</g>
</g>
<path d="m389.03 581.54v35.285q0 2.4 2.4 2.4h7.7425q2.4 0 2.4-2.4v-35.285q0-2.4-2.4-2.4h-7.7425q-2.4 0-2.4 2.4z" clip-path="url(#a)" fill="#fff" stroke="#fff"/>
<g clip-path="url(#a)">
<g transform="translate(393.09 581.54) rotate(90) scale(.08 -.08)">
<use xlink:href="#l"/>
<use x="60.818359" xlink:href="#d"/>
<use x="122.341797" xlink:href="#j"/>
<use x="163.439453" xlink:href="#i"/>
<use x="260.851562" xlink:href="#g"/>
<use x="288.634766" xlink:href="#e"/>
<use x="352.013672" xlink:href="#h"/>
<use x="413.292969" xlink:href="#k"/>
</g>
</g>
<path d="m865.82 419.57 3.1141-4.6046q1.3445-1.988-0.64352-3.3326l-6.4135-4.3375q-1.988-1.3445-3.3326 0.64352l-3.1141 4.6046q-1.3445 1.988 0.64351 3.3326l6.4135 4.3375q1.988 1.3445 3.3326-0.64351z" clip-path="url(#a)" fill="#fff" stroke="#fff"/>
<g clip-path="url(#a)">
<g transform="translate(862.45 417.29) rotate(-55.929) scale(.08 -.08)">
<use xlink:href="#r"/>
</g>
</g>
<path d="m914.23 357.56 2.534-4.4014q1.1974-2.0799-0.88249-3.2774l-6.71-3.863q-2.0799-1.1974-3.2774 0.88249l-2.534 4.4014q-1.1974 2.0799 0.88249 3.2774l6.71 3.863q2.0799 1.1974 3.2774-0.88249z" clip-path="url(#a)" fill="#fff" stroke="#fff"/>
<g clip-path="url(#a)">
<g transform="translate(910.71 355.53) rotate(-60.07) scale(.08 -.08)">
<use xlink:href="#ab"/>
</g>
</g>
<path d="m915.23 418.46 1.7149-5.9165q0.66813-2.3051-1.637-2.9733l-7.4364-2.1554q-2.3051-0.66813-2.9733 1.637l-1.7149 5.9165q-0.66813 2.3051 1.637 2.9733l7.4364 2.1554q2.3051 0.66813 2.9733-1.637z" clip-path="url(#a)" fill="#fff" stroke="#fff"/>
<g clip-path="url(#a)">
<g transform="translate(911.33 417.33) rotate(-73.836) scale(.08 -.08)">
<use xlink:href="#am"/>
</g>
</g>
<path d="m975.09 352.99 2.7304 4.7427q1.1974 2.0799 3.2774 0.88249l6.71-3.863q2.0799-1.1974 0.88249-3.2774l-2.7304-4.7427q-1.1974-2.0799-3.2774-0.88249l-6.71 3.863q-2.0799 1.1974-0.88249 3.2774z" clip-path="url(#a)" fill="#fff" stroke="#fff"/>
<g clip-path="url(#a)">
<g transform="translate(978.61 350.96) rotate(60.07) scale(.08 -.08)">
<use xlink:href="#p"/>
</g>
</g>
<path d="m1060.4 356.53 4.8531 2.5289q2.1284 1.1091 3.2374-1.0193l3.5779-6.8662q1.1091-2.1284-1.0193-3.2374l-4.8531-2.5289q-2.1284-1.1091-3.2374 1.0193l-3.5779 6.8662q-1.1091 2.1284 1.0193 3.2374z" clip-path="url(#a)" fill="#fff" stroke="#fff"/>
<g clip-path="url(#a)">
<g transform="translate(1062.2 352.92) rotate(27.524) scale(.08 -.08)">
<use xlink:href="#p"/>
</g>
</g>
<path d="m772.11 581.54v35.285q0 2.4 2.4 2.4h7.7425q2.4 0 2.4-2.4v-35.285q0-2.4-2.4-2.4h-7.7425q-2.4 0-2.4 2.4z" clip-path="url(#a)" fill="#fff" stroke="#fff"/>
<g clip-path="url(#a)">
<g transform="translate(776.17 581.54) rotate(90) scale(.08 -.08)">
<use xlink:href="#l"/>
<use x="60.818359" xlink:href="#d"/>
<use x="122.341797" xlink:href="#j"/>
<use x="163.439453" xlink:href="#i"/>
<use x="260.851562" xlink:href="#g"/>
<use x="288.634766" xlink:href="#e"/>
<use x="352.013672" xlink:href="#h"/>
<use x="413.292969" xlink:href="#k"/>
</g>
</g>
<path d="m855.22 480.55 1.6687-4.288q0.87038-2.2366-1.3662-3.107l-7.2154-2.8079q-2.2366-0.87038-3.107 1.3662l-1.6687 4.288q-0.87038 2.2366 1.3662 3.107l7.2154 2.8079q2.2366 0.87038 3.107-1.3662z" clip-path="url(#a)" fill="#fff" stroke="#fff"/>
<g clip-path="url(#a)">
<g transform="translate(851.43 479.08) rotate(-68.737) scale(.08 -.08)">
<use xlink:href="#ad"/>
</g>
</g>
<path d="m891.23 475.81 2.0259 5.206q0.87038 2.2366 3.107 1.3662l7.2154-2.8079q2.2366-0.87038 1.3662-3.107l-2.0259-5.206q-0.87038-2.2366-3.107-1.3662l-7.2154 2.8079q-2.2366 0.87038-1.3662 3.107z" clip-path="url(#a)" fill="#fff" stroke="#fff"/>
<g clip-path="url(#a)">
<g transform="translate(895.02 474.33) rotate(68.737) scale(.08 -.08)">
<use xlink:href="#o"/>
</g>
</g>
<path d="m867.88 581.54v35.285q0 2.4 2.4 2.4h7.7425q2.4 0 2.4-2.4v-35.285q0-2.4-2.4-2.4h-7.7425q-2.4 0-2.4 2.4z" clip-path="url(#a)" fill="#fff" stroke="#fff"/>
<g clip-path="url(#a)">
<g transform="translate(871.94 581.54) rotate(90) scale(.08 -.08)">
<use xlink:href="#l"/>
<use x="60.818359" xlink:href="#d"/>
<use x="122.341797" xlink:href="#j"/>
<use x="163.439453" xlink:href="#i"/>
<use x="260.851562" xlink:href="#g"/>
<use x="288.634766" xlink:href="#e"/>
<use x="352.013672" xlink:href="#h"/>
<use x="413.292969" xlink:href="#k"/>
</g>
</g>
<path d="m998.7 481 2.0159-5.1803q0.87038-2.2366-1.3662-3.107l-7.2154-2.8079q-2.2366-0.87038-3.107 1.3662l-2.0159 5.1803q-0.87038 2.2366 1.3662 3.107l7.2154 2.8079q2.2366 0.87038 3.107-1.3662z" clip-path="url(#a)" fill="#fff" stroke="#fff"/>
<g clip-path="url(#a)">
<g transform="translate(994.91 479.53) rotate(-68.737) scale(.08 -.08)">
<use xlink:href="#r"/>
</g>
</g>
<path d="m1011.5 473.84v4.6012q0 2.4 2.4 2.4h7.7425q2.4 0 2.4-2.4v-4.6012q0-2.4-2.4-2.4h-7.7425q-2.4 0-2.4 2.4z" clip-path="url(#a)" fill="#fff" stroke="#fff"/>
<g clip-path="url(#a)">
<g transform="translate(1015.6 473.84) rotate(90) scale(.08 -.08)">
<use xlink:href="#ad"/>
</g>
</g>
<path d="m1034.9 475.81 2.0259 5.206q0.87038 2.2366 3.107 1.3662l7.2154-2.8079q2.2366-0.87038 1.3662-3.107l-2.0259-5.206q-0.87038-2.2366-3.107-1.3662l-7.2154 2.8079q-2.2366 0.87038-1.3662 3.107z" clip-path="url(#a)" fill="#fff" stroke="#fff"/>
<g clip-path="url(#a)">
<g transform="translate(1038.7 474.33) rotate(68.737) scale(.08 -.08)">
<use xlink:href="#o"/>
</g>
</g>
<path d="m1153.5 481.7 2.8023-4.8007q1.2099-2.0727-0.86282-3.2826l-6.6867-3.9032q-2.0727-1.2099-3.2826 0.86282l-2.8023 4.8007q-1.2099 2.0727 0.86282 3.2826l6.6867 3.9032q2.0727 1.2099 3.2826-0.86282z" clip-path="url(#a)" fill="#fff" stroke="#fff"/>
<g clip-path="url(#a)">
<g transform="translate(1150 479.65) rotate(-59.727) scale(.08 -.08)">
<use xlink:href="#r"/>
</g>
</g>
<path d="m1179.1 479.81 0.96547-4.9619q0.45838-2.3558-1.8974-2.8142l-7.6-1.4788q-2.3558-0.45838-2.8142 1.8974l-0.96547 4.9619q-0.45838 2.3558 1.8974 2.8142l7.6 1.4788q2.3558 0.45838 2.8142-1.8974z" clip-path="url(#a)" fill="#fff" stroke="#fff"/>
<g clip-path="url(#a)">
<g transform="translate(1175.1 479.04) rotate(-78.989) scale(.08 -.08)">
<use xlink:href="#u"/>
</g>
</g>
<path d="m1190.7 474.59 1.0669 5.4834q0.45838 2.3558 2.8142 1.8974l7.6-1.4788q2.3558-0.45838 1.8974-2.8142l-1.0669-5.4834q-0.45838-2.3558-2.8142-1.8974l-7.6 1.4788q-2.3558 0.45838-1.8974 2.8142z" clip-path="url(#a)" fill="#fff" stroke="#fff"/>
<g clip-path="url(#a)">
<g transform="translate(1194.7 473.82) rotate(78.989) scale(.08 -.08)">
<use xlink:href="#o"/>
</g>
</g>
<path d="m1214.4 476.77 2.9516 5.0566q1.2099 2.0727 3.2826 0.86282l6.6867-3.9032q2.0727-1.2099 0.86282-3.2826l-2.9516-5.0566q-1.2099-2.0727-3.2826-0.86282l-6.6867 3.9032q-2.0727 1.2099-0.86283 3.2826z" clip-path="url(#a)" fill="#fff" stroke="#fff"/>
<g clip-path="url(#a)">
<g transform="translate(1217.9 474.72) rotate(59.727) scale(.08 -.08)">
<use xlink:href="#aa"/>
</g>
</g>
<path d="m1107.3 581.54v35.285q0 2.4 2.4 2.4h7.7425q2.4 0 2.4-2.4v-35.285q0-2.4-2.4-2.4h-7.7425q-2.4 0-2.4 2.4z" clip-path="url(#a)" fill="#fff" stroke="#fff"/>
<g clip-path="url(#a)">
<g transform="translate(1111.4 581.54) rotate(90) scale(.08 -.08)">
<use xlink:href="#l"/>
<use x="60.818359" xlink:href="#d"/>
<use x="122.341797" xlink:href="#j"/>
<use x="163.439453" xlink:href="#i"/>
<use x="260.851562" xlink:href="#g"/>
<use x="288.634766" xlink:href="#e"/>
<use x="352.013672" xlink:href="#h"/>
<use x="413.292969" xlink:href="#k"/>
</g>
</g>
<path d="m1155.2 581.54v35.285q0 2.4 2.4 2.4h7.7425q2.4 0 2.4-2.4v-35.285q0-2.4-2.4-2.4h-7.7425q-2.4 0-2.4 2.4z" clip-path="url(#a)" fill="#fff" stroke="#fff"/>
<g clip-path="url(#a)">
<g transform="translate(1159.3 581.54) rotate(90) scale(.08 -.08)">
<use xlink:href="#l"/>
<use x="60.818359" xlink:href="#d"/>
<use x="122.341797" xlink:href="#j"/>
<use x="163.439453" xlink:href="#i"/>
<use x="260.851562" xlink:href="#g"/>
<use x="288.634766" xlink:href="#e"/>
<use x="352.013672" xlink:href="#h"/>
<use x="413.292969" xlink:href="#k"/>
</g>
</g>
<path d="m1203.1 581.54v35.285q0 2.4 2.4 2.4h7.7425q2.4 0 2.4-2.4v-35.285q0-2.4-2.4-2.4h-7.7425q-2.4 0-2.4 2.4z" clip-path="url(#a)" fill="#fff" stroke="#fff"/>
<g clip-path="url(#a)">
<g transform="translate(1207.1 581.54) rotate(90) scale(.08 -.08)">
<use xlink:href="#l"/>
<use x="60.818359" xlink:href="#d"/>
<use x="122.341797" xlink:href="#j"/>
<use x="163.439453" xlink:href="#i"/>
<use x="260.851562" xlink:href="#g"/>
<use x="288.634766" xlink:href="#e"/>
<use x="352.013672" xlink:href="#h"/>
<use x="413.292969" xlink:href="#k"/>
</g>
</g>
<path d="m963.65 581.54v35.285q0 2.4 2.4 2.4h7.7425q2.4 0 2.4-2.4v-35.285q0-2.4-2.4-2.4h-7.7425q-2.4 0-2.4 2.4z" clip-path="url(#a)" fill="#fff" stroke="#fff"/>
<g clip-path="url(#a)">
<g transform="translate(967.71 581.54) rotate(90) scale(.08 -.08)">
<use xlink:href="#l"/>
<use x="60.818359" xlink:href="#d"/>
<use x="122.341797" xlink:href="#j"/>
<use x="163.439453" xlink:href="#i"/>
<use x="260.851562" xlink:href="#g"/>
<use x="288.634766" xlink:href="#e"/>
<use x="352.013672" xlink:href="#h"/>
<use x="413.292969" xlink:href="#k"/>
</g>
</g>
<path d="m1011.5 581.54v35.285q0 2.4 2.4 2.4h7.7425q2.4 0 2.4-2.4v-35.285q0-2.4-2.4-2.4h-7.7425q-2.4 0-2.4 2.4z" clip-path="url(#a)" fill="#fff" stroke="#fff"/>
<g clip-path="url(#a)">
<g transform="translate(1015.6 581.54) rotate(90) scale(.08 -.08)">
<use xlink:href="#l"/>
<use x="60.818359" xlink:href="#d"/>
<use x="122.341797" xlink:href="#j"/>
<use x="163.439453" xlink:href="#i"/>
<use x="260.851562" xlink:href="#g"/>
<use x="288.634766" xlink:href="#e"/>
<use x="352.013672" xlink:href="#h"/>
<use x="413.292969" xlink:href="#k"/>
</g>
</g>
<path d="m1059.4 581.54v35.285q0 2.4 2.4 2.4h7.7425q2.4 0 2.4-2.4v-35.285q0-2.4-2.4-2.4h-7.7425q-2.4 0-2.4 2.4z" clip-path="url(#a)" fill="#fff" stroke="#fff"/>
<g clip-path="url(#a)">
<g transform="translate(1063.5 581.54) rotate(90) scale(.08 -.08)">
<use xlink:href="#l"/>
<use x="60.818359" xlink:href="#d"/>
<use x="122.341797" xlink:href="#j"/>
<use x="163.439453" xlink:href="#i"/>
<use x="260.851562" xlink:href="#g"/>
<use x="288.634766" xlink:href="#e"/>
<use x="352.013672" xlink:href="#h"/>
<use x="413.292969" xlink:href="#k"/>
</g>
</g>
<path d="m819.99 581.54v35.285q0 2.4 2.4 2.4h7.7425q2.4 0 2.4-2.4v-35.285q0-2.4-2.4-2.4h-7.7425q-2.4 0-2.4 2.4z" clip-path="url(#a)" fill="#fff" stroke="#fff"/>
<g clip-path="url(#a)">
<g transform="translate(824.06 581.54) rotate(90) scale(.08 -.08)">
<use xlink:href="#l"/>
<use x="60.818359" xlink:href="#d"/>
<use x="122.341797" xlink:href="#j"/>
<use x="163.439453" xlink:href="#i"/>
<use x="260.851562" xlink:href="#g"/>
<use x="288.634766" xlink:href="#e"/>
<use x="352.013672" xlink:href="#h"/>
<use x="413.292969" xlink:href="#k"/>
</g>
</g>
<path d="m915.76 581.54v35.285q0 2.4 2.4 2.4h7.7425q2.4 0 2.4-2.4v-35.285q0-2.4-2.4-2.4h-7.7425q-2.4 0-2.4 2.4z" clip-path="url(#a)" fill="#fff" stroke="#fff"/>
<g clip-path="url(#a)">
<g transform="translate(919.83 581.54) rotate(90) scale(.08 -.08)">
<use xlink:href="#l"/>
<use x="60.818359" xlink:href="#d"/>
<use x="122.341797" xlink:href="#j"/>
<use x="163.439453" xlink:href="#i"/>
<use x="260.851562" xlink:href="#g"/>
<use x="288.634766" xlink:href="#e"/>
<use x="352.013672" xlink:href="#h"/>
<use x="413.292969" xlink:href="#k"/>
</g>
</g>
<path d="m149.6 581.54v35.285q0 2.4 2.4 2.4h7.7425q2.4 0 2.4-2.4v-35.285q0-2.4-2.4-2.4h-7.7425q-2.4 0-2.4 2.4z" clip-path="url(#a)" fill="#fff" stroke="#fff"/>
<g clip-path="url(#a)">
<g transform="translate(153.67 581.54) rotate(90) scale(.08 -.08)">
<use xlink:href="#l"/>
<use x="60.818359" xlink:href="#d"/>
<use x="122.341797" xlink:href="#j"/>
<use x="163.439453" xlink:href="#i"/>
<use x="260.851562" xlink:href="#g"/>
<use x="288.634766" xlink:href="#e"/>
<use x="352.013672" xlink:href="#h"/>
<use x="413.292969" xlink:href="#k"/>
</g>
</g>
<path d="m197.49 581.54v35.285q0 2.4 2.4 2.4h7.7425q2.4 0 2.4-2.4v-35.285q0-2.4-2.4-2.4h-7.7425q-2.4 0-2.4 2.4z" clip-path="url(#a)" fill="#fff" stroke="#fff"/>
<g clip-path="url(#a)">
<g transform="translate(201.55 581.54) rotate(90) scale(.08 -.08)">
<use xlink:href="#l"/>
<use x="60.818359" xlink:href="#d"/>
<use x="122.341797" xlink:href="#j"/>
<use x="163.439453" xlink:href="#i"/>
<use x="260.851562" xlink:href="#g"/>
<use x="288.634766" xlink:href="#e"/>
<use x="352.013672" xlink:href="#h"/>
<use x="413.292969" xlink:href="#k"/>
</g>
</g>
<path d="m245.37 581.54v35.285q0 2.4 2.4 2.4h7.7425q2.4 0 2.4-2.4v-35.285q0-2.4-2.4-2.4h-7.7425q-2.4 0-2.4 2.4z" clip-path="url(#a)" fill="#fff" stroke="#fff"/>
<g clip-path="url(#a)">
<g transform="translate(249.44 581.54) rotate(90) scale(.08 -.08)">
<use xlink:href="#l"/>
<use x="60.818359" xlink:href="#d"/>
<use x="122.341797" xlink:href="#j"/>
<use x="163.439453" xlink:href="#i"/>
<use x="260.851562" xlink:href="#g"/>
<use x="288.634766" xlink:href="#e"/>
<use x="352.013672" xlink:href="#h"/>
<use x="413.292969" xlink:href="#k"/>
</g>
</g>
<path d="m293.26 581.54v35.285q0 2.4 2.4 2.4h7.7425q2.4 0 2.4-2.4v-35.285q0-2.4-2.4-2.4h-7.7425q-2.4 0-2.4 2.4z" clip-path="url(#a)" fill="#fff" stroke="#fff"/>
<g clip-path="url(#a)">
<g transform="translate(297.32 581.54) rotate(90) scale(.08 -.08)">
<use xlink:href="#l"/>
<use x="60.818359" xlink:href="#d"/>
<use x="122.341797" xlink:href="#j"/>
<use x="163.439453" xlink:href="#i"/>
<use x="260.851562" xlink:href="#g"/>
<use x="288.634766" xlink:href="#e"/>
<use x="352.013672" xlink:href="#h"/>
<use x="413.292969" xlink:href="#k"/>
</g>
</g>
<path d="m53.834 581.54v35.285q0 2.4 2.4 2.4h7.7425q2.4 0 2.4-2.4v-35.285q0-2.4-2.4-2.4h-7.7425q-2.4 0-2.4 2.4z" clip-path="url(#a)" fill="#fff" stroke="#fff"/>
<g clip-path="url(#a)">
<g transform="translate(57.898 581.54) rotate(90) scale(.08 -.08)">
<use xlink:href="#l"/>
<use x="60.818359" xlink:href="#d"/>
<use x="122.341797" xlink:href="#j"/>
<use x="163.439453" xlink:href="#i"/>
<use x="260.851562" xlink:href="#g"/>
<use x="288.634766" xlink:href="#e"/>
<use x="352.013672" xlink:href="#h"/>
<use x="413.292969" xlink:href="#k"/>
</g>
</g>
<path d="m101.72 581.54v35.285q0 2.4 2.4 2.4h7.7425q2.4 0 2.4-2.4v-35.285q0-2.4-2.4-2.4h-7.7425q-2.4 0-2.4 2.4z" clip-path="url(#a)" fill="#fff" stroke="#fff"/>
<g clip-path="url(#a)">
<g transform="translate(105.78 581.54) rotate(90) scale(.08 -.08)">
<use xlink:href="#l"/>
<use x="60.818359" xlink:href="#d"/>
<use x="122.341797" xlink:href="#j"/>
<use x="163.439453" xlink:href="#i"/>
<use x="260.851562" xlink:href="#g"/>
<use x="288.634766" xlink:href="#e"/>
<use x="352.013672" xlink:href="#h"/>
<use x="413.292969" xlink:href="#k"/>
</g>
</g>
<path d="m436.91 581.54v35.285q0 2.4 2.4 2.4h7.7425q2.4 0 2.4-2.4v-35.285q0-2.4-2.4-2.4h-7.7425q-2.4 0-2.4 2.4z" clip-path="url(#a)" fill="#fff" stroke="#fff"/>
<g clip-path="url(#a)">
<g transform="translate(440.98 581.54) rotate(90) scale(.08 -.08)">
<use xlink:href="#l"/>
<use x="60.818359" xlink:href="#d"/>
<use x="122.341797" xlink:href="#j"/>
<use x="163.439453" xlink:href="#i"/>
<use x="260.851562" xlink:href="#g"/>
<use x="288.634766" xlink:href="#e"/>
<use x="352.013672" xlink:href="#h"/>
<use x="413.292969" xlink:href="#k"/>
</g>
</g>
<path d="m724.22 581.54v35.285q0 2.4 2.4 2.4h7.7425q2.4 0 2.4-2.4v-35.285q0-2.4-2.4-2.4h-7.7425q-2.4 0-2.4 2.4z" clip-path="url(#a)" fill="#fff" stroke="#fff"/>
<g clip-path="url(#a)">
<g transform="translate(728.29 581.54) rotate(90) scale(.08 -.08)">
<use xlink:href="#l"/>
<use x="60.818359" xlink:href="#d"/>
<use x="122.341797" xlink:href="#j"/>
<use x="163.439453" xlink:href="#i"/>
<use x="260.851562" xlink:href="#g"/>
<use x="288.634766" xlink:href="#e"/>
<use x="352.013672" xlink:href="#h"/>
<use x="413.292969" xlink:href="#k"/>
</g>
</g>
<path d="m1251 581.54v35.285q0 2.4 2.4 2.4h7.7425q2.4 0 2.4-2.4v-35.285q0-2.4-2.4-2.4h-7.7425q-2.4 0-2.4 2.4z" clip-path="url(#a)" fill="#fff" stroke="#fff"/>
<g clip-path="url(#a)">
<g transform="translate(1255 581.54) rotate(90) scale(.08 -.08)">
<use xlink:href="#l"/>
<use x="60.818359" xlink:href="#d"/>
<use x="122.341797" xlink:href="#j"/>
<use x="163.439453" xlink:href="#i"/>
<use x="260.851562" xlink:href="#g"/>
<use x="288.634766" xlink:href="#e"/>
<use x="352.013672" xlink:href="#h"/>
<use x="413.292969" xlink:href="#k"/>
</g>
</g>
<defs>
<path id="b" d="m0 8.6603c2.2967 0 4.4997-0.9125 6.1237-2.5365 1.624-1.624 2.5365-3.827 2.5365-6.1237s-0.9125-4.4997-2.5365-6.1237c-1.624-1.624-3.827-2.5365-6.1237-2.5365s-4.4997 0.9125-6.1237 2.5365c-1.624 1.624-2.5365 3.827-2.5365 6.1237s0.9125 4.4997 2.5365 6.1237c1.624 1.624 3.827 2.5365 6.1237 2.5365z"/>
</defs>
<g clip-path="url(#a)">
<use x="60.105443" y="660.711547" fill="#ffffff" stroke="#ffffff" xlink:href="#b"/>
</g>
<g clip-path="url(#a)">
<use x="107.990341" y="660.711547" fill="#ffffff" stroke="#ffffff" xlink:href="#b"/>
</g>
<g clip-path="url(#a)">
<use x="155.875239" y="660.711547" fill="#ffffff" stroke="#ffffff" xlink:href="#b"/>
</g>
<g clip-path="url(#a)">
<use x="203.760137" y="660.711547" fill="#ffffff" stroke="#ffffff" xlink:href="#b"/>
</g>
<g clip-path="url(#a)">
<use x="251.645035" y="660.711547" fill="#ffffff" stroke="#ffffff" xlink:href="#b"/>
</g>
<g clip-path="url(#a)">
<use x="299.529933" y="660.711547" fill="#ffffff" stroke="#ffffff" xlink:href="#b"/>
</g>
<g clip-path="url(#a)">
<use x="347.41483" y="660.711547" fill="#ffffff" stroke="#ffffff" xlink:href="#b"/>
</g>
<g clip-path="url(#a)">
<use x="395.299728" y="660.711547" fill="#ffffff" stroke="#ffffff" xlink:href="#b"/>
</g>
<g clip-path="url(#a)">
<use x="443.184626" y="660.711547" fill="#ffffff" stroke="#ffffff" xlink:href="#b"/>
</g>
<g clip-path="url(#a)">
<use x="491.069524" y="660.711547" fill="#ffffff" stroke="#ffffff" xlink:href="#b"/>
</g>
<g clip-path="url(#a)">
<use x="538.954422" y="660.711547" fill="#ffffff" stroke="#ffffff" xlink:href="#b"/>
</g>
<g clip-path="url(#a)">
<use x="586.83932" y="660.711547" fill="#ffffff" stroke="#ffffff" xlink:href="#b"/>
</g>
<g clip-path="url(#a)">
<use x="634.724218" y="660.711547" fill="#ffffff" stroke="#ffffff" xlink:href="#b"/>
</g>
<g clip-path="url(#a)">
<use x="682.609116" y="660.711547" fill="#ffffff" stroke="#ffffff" xlink:href="#b"/>
</g>
<g clip-path="url(#a)">
<use x="730.494013" y="660.711547" fill="#ffffff" stroke="#ffffff" xlink:href="#b"/>
</g>
<g clip-path="url(#a)">
<use x="778.378911" y="660.711547" fill="#ffffff" stroke="#ffffff" xlink:href="#b"/>
</g>
<g clip-path="url(#a)">
<use x="826.263809" y="660.711547" fill="#ffffff" stroke="#ffffff" xlink:href="#b"/>
</g>
<g clip-path="url(#a)">
<use x="874.148707" y="660.711547" fill="#ffffff" stroke="#ffffff" xlink:href="#b"/>
</g>
<g clip-path="url(#a)">
<use x="922.033605" y="660.711547" fill="#ffffff" stroke="#ffffff" xlink:href="#b"/>
</g>
<g clip-path="url(#a)">
<use x="969.918503" y="660.711547" fill="#ffffff" stroke="#ffffff" xlink:href="#b"/>
</g>
<g clip-path="url(#a)">
<use x="1017.803401" y="660.711547" fill="#ffffff" stroke="#ffffff" xlink:href="#b"/>
</g>
<g clip-path="url(#a)">
<use x="1065.688299" y="660.711547" fill="#ffffff" stroke="#ffffff" xlink:href="#b"/>
</g>
<g clip-path="url(#a)">
<use x="1113.573196" y="660.711547" fill="#ffffff" stroke="#ffffff" xlink:href="#b"/>
</g>
<g clip-path="url(#a)">
<use x="1161.458094" y="660.711547" fill="#ffffff" stroke="#ffffff" xlink:href="#b"/>
</g>
<g clip-path="url(#a)">
<use x="1209.342992" y="660.711547" fill="#ffffff" stroke="#ffffff" xlink:href="#b"/>
</g>
<g clip-path="url(#a)">
<use x="1257.22789" y="660.711547" fill="#ffffff" stroke="#ffffff" xlink:href="#b"/>
</g>
<g clip-path="url(#a)">
<use x="453.360167" y="32.621786" fill="#ffffff" stroke="#ffffff" xlink:href="#b"/>
</g>
<g clip-path="url(#a)">
<use x="84.047892" y="414.610665" fill="#ffffff" stroke="#ffffff" xlink:href="#b"/>
</g>
<g clip-path="url(#a)">
<use x="479.0983" y="162.683859" fill="#ffffff" stroke="#ffffff" xlink:href="#b"/>
</g>
<g clip-path="url(#a)">
<use x="519.800463" y="289.848457" fill="#ffffff" stroke="#ffffff" xlink:href="#b"/>
</g>
<g clip-path="url(#a)">
<use x="515.011973" y="414.610665" fill="#ffffff" stroke="#ffffff" xlink:href="#b"/>
</g>
<g clip-path="url(#a)">
<use x="586.83932" y="537.661106" fill="#ffffff" stroke="#ffffff" xlink:href="#b"/>
</g>
<g clip-path="url(#a)">
<use x="658.666667" y="414.610665" fill="#ffffff" stroke="#ffffff" xlink:href="#b"/>
</g>
<g clip-path="url(#a)">
<use x="634.724218" y="537.661106" fill="#ffffff" stroke="#ffffff" xlink:href="#b"/>
</g>
<g clip-path="url(#a)">
<use x="682.609116" y="537.661106" fill="#ffffff" stroke="#ffffff" xlink:href="#b"/>
</g>
<g clip-path="url(#a)">
<use x="491.069524" y="537.661106" fill="#ffffff" stroke="#ffffff" xlink:href="#b"/>
</g>
<g clip-path="url(#a)">
<use x="538.954422" y="537.661106" fill="#ffffff" stroke="#ffffff" xlink:href="#b"/>
</g>
<g clip-path="url(#a)">
<use x="227.702586" y="414.610665" fill="#ffffff" stroke="#ffffff" xlink:href="#b"/>
</g>
<g clip-path="url(#a)">
<use x="347.41483" y="537.661106" fill="#ffffff" stroke="#ffffff" xlink:href="#b"/>
</g>
<g clip-path="url(#a)">
<use x="395.299728" y="537.661106" fill="#ffffff" stroke="#ffffff" xlink:href="#b"/>
</g>
<g clip-path="url(#a)">
<use x="945.976054" y="289.848457" fill="#ffffff" stroke="#ffffff" xlink:href="#b"/>
</g>
<g clip-path="url(#a)">
<use x="778.378911" y="537.661106" fill="#ffffff" stroke="#ffffff" xlink:href="#b"/>
</g>
<g clip-path="url(#a)">
<use x="874.148707" y="414.610665" fill="#ffffff" stroke="#ffffff" xlink:href="#b"/>
</g>
<g clip-path="url(#a)">
<use x="874.148707" y="537.661106" fill="#ffffff" stroke="#ffffff" xlink:href="#b"/>
</g>
<g clip-path="url(#a)">
<use x="1017.803401" y="414.610665" fill="#ffffff" stroke="#ffffff" xlink:href="#b"/>
</g>
<g clip-path="url(#a)">
<use x="1185.400543" y="414.610665" fill="#ffffff" stroke="#ffffff" xlink:href="#b"/>
</g>
<g clip-path="url(#a)">
<use x="1113.573196" y="537.661106" fill="#ffffff" stroke="#ffffff" xlink:href="#b"/>
</g>
<g clip-path="url(#a)">
<use x="1161.458094" y="537.661106" fill="#ffffff" stroke="#ffffff" xlink:href="#b"/>
</g>
<g clip-path="url(#a)">
<use x="1209.342992" y="537.661106" fill="#ffffff" stroke="#ffffff" xlink:href="#b"/>
</g>
<g clip-path="url(#a)">
<use x="969.918503" y="537.661106" fill="#ffffff" stroke="#ffffff" xlink:href="#b"/>
</g>
<g clip-path="url(#a)">
<use x="1017.803401" y="537.661106" fill="#ffffff" stroke="#ffffff" xlink:href="#b"/>
</g>
<g clip-path="url(#a)">
<use x="1065.688299" y="537.661106" fill="#ffffff" stroke="#ffffff" xlink:href="#b"/>
</g>
<g clip-path="url(#a)">
<use x="826.263809" y="537.661106" fill="#ffffff" stroke="#ffffff" xlink:href="#b"/>
</g>
<g clip-path="url(#a)">
<use x="922.033605" y="537.661106" fill="#ffffff" stroke="#ffffff" xlink:href="#b"/>
</g>
<g clip-path="url(#a)">
<use x="155.875239" y="537.661106" fill="#ffffff" stroke="#ffffff" xlink:href="#b"/>
</g>
<g clip-path="url(#a)">
<use x="203.760137" y="537.661106" fill="#ffffff" stroke="#ffffff" xlink:href="#b"/>
</g>
<g clip-path="url(#a)">
<use x="251.645035" y="537.661106" fill="#ffffff" stroke="#ffffff" xlink:href="#b"/>
</g>
<g clip-path="url(#a)">
<use x="299.529933" y="537.661106" fill="#ffffff" stroke="#ffffff" xlink:href="#b"/>
</g>
<g clip-path="url(#a)">
<use x="60.105443" y="537.661106" fill="#ffffff" stroke="#ffffff" xlink:href="#b"/>
</g>
<g clip-path="url(#a)">
<use x="107.990341" y="537.661106" fill="#ffffff" stroke="#ffffff" xlink:href="#b"/>
</g>
<g clip-path="url(#a)">
<use x="443.184626" y="537.661106" fill="#ffffff" stroke="#ffffff" xlink:href="#b"/>
</g>
<g clip-path="url(#a)">
<use x="730.494013" y="537.661106" fill="#ffffff" stroke="#ffffff" xlink:href="#b"/>
</g>
<g clip-path="url(#a)">
<use x="1257.22789" y="537.661106" fill="#ffffff" stroke="#ffffff" xlink:href="#b"/>
</g>
<g clip-path="url(#a)">
<defs>
<path id="as" d="m9.8125 72.906h9.8594v-30.812l32.719 30.812h12.703l-36.188-33.984 38.766-38.922h-12.984l-35.016 35.109v-35.109h-9.8594z"/>
<path id="aw" d="m18.109 8.2031v-29h-9.0312v75.484h9.0312v-8.2969q2.8438 4.875 7.1562 7.2344 4.3281 2.375 10.328 2.375 9.9688 0 16.188-7.9062 6.2344-7.9062 6.2344-20.797t-6.2344-20.812q-6.2188-7.9062-16.188-7.9062-6 0-10.328 2.375-4.3125 2.375-7.1562 7.25zm30.578 19.094q0 9.9062-4.0781 15.547t-11.203 5.6406q-7.1406 0-11.219-5.6406t-4.0781-15.547 4.0781-15.547 11.219-5.6406q7.125 0 11.203 5.6406t4.0781 15.547z"/>
<path id="y" d="m18.312 70.219v-15.531h18.5v-6.9844h-18.5v-29.688q0-6.6875 1.8281-8.5938t7.4531-1.9062h9.2188v-7.5156h-9.2188q-10.406 0-14.359 3.875-3.9531 3.8906-3.9531 14.141v29.688h-6.5938v6.9844h6.5938v15.531z"/>
</defs>
<g transform="translate(42.774 663.47) scale(.1 -.1)">
<use xlink:href="#as"/>
<use x="65.560547" xlink:href="#h"/>
<use x="126.839844" xlink:href="#aw"/>
<use x="190.316406" xlink:href="#g"/>
<use x="218.099609" xlink:href="#y"/>
<use x="257.308594" xlink:href="#d"/>
<use x="318.832031" xlink:href="#k"/>
</g>
</g>
<g clip-path="url(#a)">
<defs>
<path id="aq" d="m28.609 0-27.828 72.906h10.297l23.109-61.375 23.141 61.375h10.25l-27.781-72.906z"/>
<path id="al" d="m9.8125 72.906h9.8594v-72.906h-9.8594z"/>
</defs>
<g transform="translate(101.62 663.47) scale(.1 -.1)">
<use xlink:href="#aq"/>
<use x="68.408203" xlink:href="#al"/>
<use x="97.900391" xlink:href="#al"/>
</g>
</g>
<g clip-path="url(#a)">
<g transform="translate(149.29 663.47) scale(.1 -.1)">
<use xlink:href="#p"/>
<use x="68.408203" xlink:href="#e"/>
</g>
</g>
<g clip-path="url(#a)">
<defs>
<path id="q" d="m45.406 46.391v29.594h8.9844v-75.984h-8.9844v8.2031q-2.8281-4.875-7.1562-7.25-4.3125-2.375-10.375-2.375-9.9062 0-16.141 7.9062-6.2188 7.9219-6.2188 20.812t6.2188 20.797q6.2344 7.9062 16.141 7.9062 6.0625 0 10.375-2.375 4.3281-2.3594 7.1562-7.2344zm-30.609-19.094q0-9.9062 4.0781-15.547t11.203-5.6406 11.219 5.6406q4.1094 5.6406 4.1094 15.547t-4.1094 15.547q-4.0938 5.6406-11.219 5.6406t-11.203-5.6406-4.0781-15.547z"/>
</defs>
<g transform="translate(192.64 663.47) scale(.1 -.1)">
<use xlink:href="#q"/>
<use x="63.476562" xlink:href="#d"/>
<use x="125" xlink:href="#i"/>
</g>
</g>
<g clip-path="url(#a)">
<defs>
<path id="ai" d="m37.109 75.984v-7.4844h-8.5938q-4.8281 0-6.7188-1.9531-1.875-1.9531-1.875-7.0312v-4.8281h14.797v-6.9844h-14.797v-47.703h-9.0312v47.703h-8.5938v6.9844h8.5938v3.8125q0 9.125 4.25 13.297 4.25 4.1875 13.469 4.1875z"/>
<path id="au" d="m8.5 21.578v33.109h8.9844v-32.766q0-7.7656 3.0156-11.656 3.0312-3.875 9.0938-3.875 7.2656 0 11.484 4.6406 4.2344 4.6406 4.2344 12.656v31h8.9844v-54.688h-8.9844v8.4062q-3.2656-4.9844-7.5938-7.4062-4.3125-2.4219-10.031-2.4219-9.4219 0-14.312 5.8594-4.875 5.8594-4.875 17.141zm22.609 34.422m4.4844 19.781h9.9062v-9.8594h-9.9062zm-19.094 0h9.9062v-9.8594h-9.9062z"/>
</defs>
<g transform="translate(233.58 663.47) scale(.1 -.1)">
<use xlink:href="#ai"/>
<use x="35.205078" xlink:href="#au"/>
<use x="98.583984" xlink:href="#e"/>
<use x="161.962891" xlink:href="#ai"/>
<use x="197.152344" xlink:href="#y"/>
<use x="236.361328" xlink:href="#d"/>
<use x="297.884766" xlink:href="#e"/>
</g>
</g>
<g clip-path="url(#a)">
<defs>
<path id="ax" d="m45.406 27.984q0 9.7656-4.0312 15.125-4.0156 5.375-11.297 5.375-7.2188 0-11.25-5.375-4.0312-5.3594-4.0312-15.125 0-9.7188 4.0312-15.094t11.25-5.375q7.2812 0 11.297 5.375 4.0312 5.375 4.0312 15.094zm8.9844-21.203q0-13.953-6.2031-20.766-6.1875-6.8125-18.984-6.8125-4.7344 0-8.9375 0.70312t-8.1562 2.1719v8.7344q3.9531-2.1406 7.8125-3.1562 3.8594-1.0312 7.8594-1.0312 8.8438 0 13.234 4.6094t4.3906 13.938v4.4531q-2.7812-4.8438-7.125-7.2344t-10.406-2.3906q-10.047 0-16.203 7.6562-6.1562 7.6719-6.1562 20.328 0 12.688 6.1562 20.344 6.1562 7.6719 16.203 7.6719 6.0625 0 10.406-2.3906t7.125-7.2188v8.2969h8.9844z"/>
</defs>
<g transform="translate(290.25 663.47) scale(.1 -.1)">
<use xlink:href="#l"/>
<use x="60.833984" xlink:href="#h"/>
<use x="122.113281" xlink:href="#ax"/>
</g>
</g>
<g clip-path="url(#a)">
<defs>
<path id="ah" d="m9.0781 75.984h9.0312v-44.875l26.812 23.578h11.469l-29-25.578 30.234-29.109h-11.719l-27.797 26.703v-26.703h-9.0312z"/>
</defs>
<g transform="translate(336.59 663.47) scale(.1 -.1)">
<use xlink:href="#ah"/>
<use x="57.894531" xlink:href="#h"/>
<use x="119.173828" xlink:href="#i"/>
</g>
</g>
<g clip-path="url(#a)">
<defs>
<path id="aj" d="m48.781 52.594v-8.4062q-3.8125 2.1094-7.6406 3.1562t-7.7344 1.0469q-8.75 0-13.594-5.5469-4.8281-5.5312-4.8281-15.547t4.8281-15.562q4.8438-5.5312 13.594-5.5312 3.9062 0 7.7344 1.0469t7.6406 3.1562v-8.3125q-3.7656-1.75-7.7969-2.625-4.0156-0.89062-8.5625-0.89062-12.359 0-19.641 7.7656-7.2656 7.7656-7.2656 20.953 0 13.375 7.3438 21.031 7.3594 7.6719 20.156 7.6719 4.1406 0 8.0938-0.85938 3.9531-0.84375 7.6719-2.5469z"/>
<path id="z" d="m54.891 33.016v-33.016h-8.9844v32.719q0 7.7656-3.0312 11.609-3.0312 3.8594-9.0781 3.8594-7.2812 0-11.484-4.6406-4.2031-4.625-4.2031-12.641v-30.906h-9.0312v75.984h9.0312v-29.797q3.2344 4.9375 7.5938 7.375 4.375 2.4375 10.094 2.4375 9.4219 0 14.25-5.8281 4.8438-5.8281 4.8438-17.156z"/>
</defs>
<g transform="translate(387.99 663.47) scale(.1 -.1)">
<use xlink:href="#g"/>
<use x="27.783203" xlink:href="#aj"/>
<use x="82.763672" xlink:href="#z"/>
</g>
</g>
<g clip-path="url(#a)">
<defs>
<path id="an" d="m11.719 12.406h10.297v-8.4062l-8-15.625h-6.2969l4 15.625z"/>
</defs>
<g transform="translate(441.6 663.47) scale(.1 -.1)">
<use xlink:href="#an"/>
</g>
</g>
<g clip-path="url(#a)">
<defs>
<path id="ao" d="m4.2031 54.688h8.9844l11.234-42.672 11.172 42.672h10.594l11.234-42.672 11.188 42.672h8.9844l-14.312-54.688h-10.594l-11.766 44.828-11.812-44.828h-10.609z"/>
</defs>
<g transform="translate(474.21 663.47) scale(.1 -.1)">
<use xlink:href="#ao"/>
<use x="81.787109" xlink:href="#g"/>
<use x="109.570312" xlink:href="#d"/>
<use x="171.09375" xlink:href="#q"/>
<use x="234.570312" xlink:href="#d"/>
<use x="296.09375" xlink:href="#j"/>
</g>
</g>
<g clip-path="url(#a)">
<g transform="translate(522 663.47) scale(.1 -.1)">
<use xlink:href="#d"/>
<use x="61.523438" xlink:href="#g"/>
<use x="89.306641" xlink:href="#e"/>
<use x="152.685547" xlink:href="#i"/>
<use x="250.097656" xlink:href="#h"/>
<use x="311.376953" xlink:href="#k"/>
</g>
</g>
<g clip-path="url(#a)">
<g transform="translate(574.54 663.47) scale(.1 -.1)">
<use xlink:href="#q"/>
<use x="63.476562" xlink:href="#h"/>
<use x="124.755859" xlink:href="#e"/>
<use x="188.134766" xlink:href="#ah"/>
</g>
</g>
<g clip-path="url(#a)">
<defs>
<path id="t" d="m44.281 53.078v-8.5q-3.7969 1.9531-7.9062 2.9219-4.0938 0.98438-8.5 0.98438-6.6875 0-10.031-2.0469t-3.3438-6.1562q0-3.125 2.3906-4.9062t9.625-3.3906l3.0781-0.6875q9.5625-2.0469 13.594-5.7812t4.0312-10.422q0-7.625-6.0312-12.078-6.0312-4.4375-16.578-4.4375-4.3906 0-9.1562 0.85938t-10.031 2.5625v9.2812q4.9844-2.5938 9.8125-3.8906 4.8281-1.2812 9.5781-1.2812 6.3438 0 9.75 2.1719 3.4219 2.1719 3.4219 6.125 0 3.6562-2.4688 5.6094-2.4531 1.9531-10.812 3.7656l-3.125 0.73438q-8.3438 1.75-12.062 5.3906-3.7031 3.6406-3.7031 9.9844 0 7.7188 5.4688 11.906 5.4688 4.2031 15.531 4.2031 4.9688 0 9.3594-0.73438 4.4062-0.71875 8.1094-2.1875z"/>
</defs>
<g transform="translate(625.87 663.47) scale(.1 -.1)">
<use xlink:href="#q"/>
<use x="63.476562" xlink:href="#d"/>
<use x="125" xlink:href="#t"/>
</g>
</g>
<g clip-path="url(#a)">
<g transform="translate(663.01 663.47) scale(.1 -.1)">
<use xlink:href="#ab"/>
<use x="63.476562" xlink:href="#aj"/>
<use x="118.457031" xlink:href="#z"/>
<use x="181.835938" xlink:href="#h"/>
<use x="243.115234" xlink:href="#ai"/>
<use x="278.320312" xlink:href="#d"/>
<use x="339.84375" xlink:href="#t"/>
</g>
</g>
<g clip-path="url(#a)">
<g transform="translate(728.9 663.47) scale(.1 -.1)">
<use xlink:href="#an"/>
</g>
</g>
<g clip-path="url(#a)">
<g transform="translate(763.56 663.47) scale(.1 -.1)">
<use xlink:href="#z"/>
<use x="63.378906" xlink:href="#g"/>
<use x="91.162109" xlink:href="#e"/>
<use x="154.541016" xlink:href="#y"/>
<use x="193.75" xlink:href="#d"/>
<use x="255.273438" xlink:href="#j"/>
</g>
</g>
<g clip-path="url(#a)">
<g transform="translate(818.63 663.47) scale(.1 -.1)">
<use xlink:href="#d"/>
<use x="61.523438" xlink:href="#g"/>
<use x="89.306641" xlink:href="#e"/>
</g>
</g>
<g clip-path="url(#a)">
<g transform="translate(852.82 663.47) scale(.1 -.1)">
<use xlink:href="#ao"/>
<use x="81.787109" xlink:href="#d"/>
<use x="143.310547" xlink:href="#g"/>
<use x="171.09375" xlink:href="#y"/>
<use x="210.302734" xlink:href="#d"/>
<use x="271.826172" xlink:href="#j"/>
<use x="312.908203" xlink:href="#d"/>
<use x="374.431641" xlink:href="#t"/>
</g>
</g>
<g clip-path="url(#a)">
<defs>
<path id="at" d="m59.516 10.406v19.578h-16.109v8.1094h25.875v-31.312q-5.7031-4.0469-12.594-6.125-6.875-2.0781-14.688-2.0781-17.094 0-26.75 9.9844-9.6406 10-9.6406 27.812 0 17.875 9.6406 27.859 9.6562 9.9844 26.75 9.9844 7.125 0 13.547-1.7656 6.4219-1.75 11.844-5.1719v-10.5q-5.4688 4.6406-11.625 6.9844t-12.938 2.3438q-13.391 0-20.109-7.4688-6.7031-7.4688-6.7031-22.266 0-14.75 6.7031-22.219 6.7188-7.4688 20.109-7.4688 5.2188 0 9.3125 0.90625 4.1094 0.90625 7.375 2.8125z"/>
</defs>
<g transform="translate(895.42 663.47) scale(.1 -.1)">
<use xlink:href="#at"/>
<use x="77.490234" xlink:href="#d"/>
<use x="139.013672" xlink:href="#z"/>
<use x="202.392578" xlink:href="#d"/>
<use x="263.916016" xlink:href="#g"/>
<use x="291.699219" xlink:href="#i"/>
<use x="389.111328" xlink:href="#e"/>
<use x="452.490234" xlink:href="#g"/>
<use x="480.273438" xlink:href="#t"/>
</g>
</g>
<g clip-path="url(#a)">
<g transform="translate(965.36 663.47) scale(.1 -.1)">
<use xlink:href="#g"/>
<use x="27.783203" xlink:href="#e"/>
</g>
</g>
<g clip-path="url(#a)">
<g transform="translate(1006.7 663.47) scale(.1 -.1)">
<use xlink:href="#q"/>
<use x="63.476562" xlink:href="#d"/>
<use x="125" xlink:href="#i"/>
</g>
</g>
<g clip-path="url(#a)">
<defs>
<path id="ar" d="m9.8125 72.906h9.8594v-64.609h35.5v-8.2969h-45.359z"/>
<path id="ap" d="m48.688 27.297q0 9.9062-4.0781 15.547t-11.203 5.6406q-7.1406 0-11.219-5.6406t-4.0781-15.547 4.0781-15.547 11.219-5.6406q7.125 0 11.203 5.6406t4.0781 15.547zm-30.578 19.094q2.8438 4.875 7.1562 7.2344 4.3281 2.375 10.328 2.375 9.9688 0 16.188-7.9062 6.2344-7.9062 6.2344-20.797t-6.2344-20.812q-6.2188-7.9062-16.188-7.9062-6 0-10.328 2.375-4.3125 2.375-7.1562 7.25v-8.2031h-9.0312v75.984h9.0312z"/>
</defs>
<g transform="translate(1050.4 663.47) scale(.1 -.1)">
<use xlink:href="#ar"/>
<use x="55.697266" xlink:href="#d"/>
<use x="117.220703" xlink:href="#ap"/>
<use x="180.697266" xlink:href="#d"/>
<use x="242.220703" xlink:href="#e"/>
</g>
</g>
<g clip-path="url(#a)">
<g transform="translate(1104.7 663.47) scale(.1 -.1)">
<use xlink:href="#q"/>
<use x="63.476562" xlink:href="#d"/>
<use x="125" xlink:href="#t"/>
</g>
</g>
<g clip-path="url(#a)">
<g transform="translate(1143.3 663.47) scale(.1 -.1)">
<use xlink:href="#ah"/>
<use x="57.910156" xlink:href="#k"/>
<use x="85.693359" xlink:href="#d"/>
<use x="147.216797" xlink:href="#g"/>
<use x="175" xlink:href="#e"/>
<use x="238.378906" xlink:href="#d"/>
<use x="299.902344" xlink:href="#e"/>
</g>
</g>
<g clip-path="url(#a)">
<defs>
<path id="av" d="m5.5156 54.688h42.672v-8.2031l-33.781-39.312h33.781v-7.1719h-43.891v8.2031l33.797 39.312h-32.578z"/>
</defs>
<g transform="translate(1190.8 663.47) scale(.1 -.1)">
<use xlink:href="#ak"/>
<use x="60.287109" xlink:href="#j"/>
<use x="101.400391" xlink:href="#g"/>
<use x="129.183594" xlink:href="#e"/>
<use x="192.5625" xlink:href="#av"/>
<use x="245.052734" xlink:href="#d"/>
<use x="306.576172" xlink:href="#e"/>
</g>
</g>
<g clip-path="url(#a)">
<defs>
<path id="f" d="m10.688 12.406h10.312v-12.406h-10.312z"/>
</defs>
<g transform="translate(1255.6 663.47) scale(.1 -.1)">
<use xlink:href="#f"/>
</g>
</g>
<g clip-path="url(#a)">
<defs>
<path id="c" d="m12.406 8.2969h16.109v55.625l-17.531-3.5156v8.9844l17.438 3.5156h9.8594v-64.609h16.109v-8.2969h-41.984z"/>
</defs>
<g transform="translate(445.41 35.381) scale(.1 -.1)">
<use xlink:href="#c"/>
<use x="63.623047" xlink:href="#f"/>
<use x="95.410156" xlink:href="#c"/>
</g>
</g>
<g clip-path="url(#a)">
<defs>
<path id="n" d="m19.188 8.2969h34.422v-8.2969h-46.281v8.2969q5.6094 5.8125 15.297 15.594 9.7031 9.7969 12.188 12.641 4.7344 5.3125 6.6094 9 1.8906 3.6875 1.8906 7.25 0 5.8125-4.0781 9.4688-4.0781 3.6719-10.625 3.6719-4.6406 0-9.7969-1.6094-5.1406-1.6094-11-4.8906v9.9688q5.9531 2.3906 11.125 3.6094 5.1875 1.2188 9.4844 1.2188 11.328 0 18.062-5.6719 6.7344-5.6562 6.7344-15.125 0-4.5-1.6875-8.5312-1.6719-4.0156-6.125-9.4844-1.2188-1.4219-7.7656-8.1875-6.5312-6.7656-18.453-18.922z"/>
</defs>
<g transform="translate(76.096 417.37) scale(.1 -.1)">
<use xlink:href="#c"/>
<use x="63.623047" xlink:href="#f"/>
<use x="95.410156" xlink:href="#n"/>
</g>
</g>
<g clip-path="url(#a)">
<defs>
<path id="m" d="m40.578 39.312q7.0781-1.5156 11.047-6.3125 3.9844-4.7812 3.9844-11.812 0-10.781-7.4219-16.703-7.4219-5.9062-21.094-5.9062-4.5781 0-9.4375 0.90625t-10.031 2.7188v9.5156q4.0938-2.3906 8.9688-3.6094 4.8906-1.2188 10.219-1.2188 9.2656 0 14.125 3.6562t4.8594 10.641q0 6.4531-4.5156 10.078-4.5156 3.6406-12.562 3.6406h-8.5v8.1094h8.8906q7.2656 0 11.125 2.9062t3.8594 8.375q0 5.6094-3.9844 8.6094-3.9688 3.0156-11.391 3.0156-4.0625 0-8.7031-0.89062-4.6406-0.875-10.203-2.7188v8.7812q5.625 1.5625 10.531 2.3438t9.25 0.78125q11.234 0 17.766-5.1094 6.5469-5.0938 6.5469-13.781 0-6.0625-3.4688-10.234t-9.8594-5.7812z"/>
</defs>
<g transform="translate(471.15 165.44) scale(.1 -.1)">
<use xlink:href="#c"/>
<use x="63.623047" xlink:href="#f"/>
<use x="95.410156" xlink:href="#m"/>
</g>
</g>
<g clip-path="url(#a)">
<defs>
<path id="s" d="m37.797 64.312-24.906-38.922h24.906zm-2.5938 8.5938h12.406v-47.516h10.406v-8.2031h-10.406v-17.188h-9.8125v17.188h-32.906v9.5156z"/>
</defs>
<g transform="translate(511.85 292.61) scale(.1 -.1)">
<use xlink:href="#c"/>
<use x="63.623047" xlink:href="#f"/>
<use x="95.410156" xlink:href="#s"/>
</g>
</g>
<g clip-path="url(#a)">
<defs>
<path id="x" d="m8.2031 72.906h46.875v-4.2031l-26.469-68.703h-10.297l24.906 64.594h-35.016z"/>
</defs>
<g transform="translate(507.06 417.37) scale(.1 -.1)">
<use xlink:href="#c"/>
<use x="63.623047" xlink:href="#f"/>
<use x="95.410156" xlink:href="#x"/>
</g>
</g>
<g clip-path="url(#a)">
<defs>
<path id="w" d="m31.781 34.625q-7.0312 0-11.062-3.7656-4.0156-3.7656-4.0156-10.344 0-6.5938 4.0156-10.359 4.0312-3.7656 11.062-3.7656t11.078 3.7812q4.0625 3.7969 4.0625 10.344 0 6.5781-4.0312 10.344-4.0156 3.7656-11.109 3.7656zm-9.8594 4.1875q-6.3438 1.5625-9.8906 5.9062-3.5312 4.3594-3.5312 10.609 0 8.7344 6.2188 13.812 6.2344 5.0781 17.062 5.0781 10.891 0 17.094-5.0781t6.2031-13.812q0-6.25-3.5469-10.609-3.5312-4.3438-9.8281-5.9062 7.125-1.6562 11.094-6.5 3.9844-4.8281 3.9844-11.797 0-10.609-6.4688-16.281-6.4688-5.6562-18.531-5.6562-12.047 0-18.531 5.6562-6.4688 5.6719-6.4688 16.281 0 6.9688 4 11.797 4.0156 4.8438 11.141 6.5zm-3.6094 15.578q0-5.6562 3.5312-8.8281 3.5469-3.1719 9.9375-3.1719 6.3594 0 9.9375 3.1719 3.5938 3.1719 3.5938 8.8281 0 5.6719-3.5938 8.8438-3.5781 3.1719-9.9375 3.1719-6.3906 0-9.9375-3.1719-3.5312-3.1719-3.5312-8.8438z"/>
</defs>
<g transform="translate(578.89 540.42) scale(.1 -.1)">
<use xlink:href="#c"/>
<use x="63.623047" xlink:href="#f"/>
<use x="95.410156" xlink:href="#w"/>
</g>
</g>
<g clip-path="url(#a)">
<defs>
<path id="v" d="m10.984 1.5156v8.9844q3.7188-1.7656 7.5156-2.6875 3.8125-0.92188 7.4844-0.92188 9.7656 0 14.906 6.5625 5.1562 6.5625 5.8906 19.953-2.8281-4.2031-7.1875-6.4531-4.3438-2.25-9.6094-2.25-10.938 0-17.312 6.6094-6.375 6.625-6.375 18.109 0 11.219 6.6406 18 6.6406 6.7969 17.672 6.7969 12.656 0 19.312-9.7031 6.6719-9.6875 6.6719-28.141 0-17.234-8.1875-27.516-8.1719-10.281-21.984-10.281-3.7188 0-7.5312 0.73438-3.7969 0.73438-7.9062 2.2031zm19.625 30.906q6.6406 0 10.516 4.5312 3.8906 4.5469 3.8906 12.469 0 7.8594-3.8906 12.422-3.875 4.5625-10.516 4.5625t-10.516-4.5625-3.875-12.422q0-7.9219 3.875-12.469 3.875-4.5312 10.516-4.5312z"/>
</defs>
<g transform="translate(650.72 417.37) scale(.1 -.1)">
<use xlink:href="#c"/>
<use x="63.623047" xlink:href="#f"/>
<use x="95.410156" xlink:href="#v"/>
</g>
</g>
<g clip-path="url(#a)">
<g transform="translate(623.59 540.42) scale(.1 -.1)">
<use xlink:href="#c"/>
<use x="63.623047" xlink:href="#f"/>
<use x="95.410156" xlink:href="#c"/>
<use x="159.033203" xlink:href="#c"/>
</g>
</g>
<g clip-path="url(#a)">
<g transform="translate(671.48 540.42) scale(.1 -.1)">
<use xlink:href="#c"/>
<use x="63.623047" xlink:href="#f"/>
<use x="95.410156" xlink:href="#c"/>
<use x="159.033203" xlink:href="#n"/>
</g>
</g>
<g clip-path="url(#a)">
<g transform="translate(479.94 540.42) scale(.1 -.1)">
<use xlink:href="#c"/>
<use x="63.623047" xlink:href="#f"/>
<use x="95.410156" xlink:href="#c"/>
<use x="159.033203" xlink:href="#m"/>
</g>
</g>
<g clip-path="url(#a)">
<g transform="translate(527.82 540.42) scale(.1 -.1)">
<use xlink:href="#c"/>
<use x="63.623047" xlink:href="#f"/>
<use x="95.410156" xlink:href="#c"/>
<use x="159.033203" xlink:href="#s"/>
</g>
</g>
<g clip-path="url(#a)">
<defs>
<path id="af" d="m10.797 72.906h38.719v-8.3125h-29.688v-17.859q2.1406 0.73438 4.2812 1.0938 2.1562 0.35938 4.3125 0.35938 12.203 0 19.328-6.6875 7.1406-6.6875 7.1406-18.109 0-11.766-7.3281-18.297-7.3281-6.5156-20.656-6.5156-4.5938 0-9.3594 0.78125-4.75 0.78125-9.8281 2.3438v9.9219q4.3906-2.3906 9.0781-3.5625t9.9062-1.1719q8.4531 0 13.375 4.4375 4.9375 4.4375 4.9375 12.062 0 7.6094-4.9375 12.047-4.9219 4.4531-13.375 4.4531-3.9531 0-7.8906-0.875-3.9219-0.875-8.0156-2.7344z"/>
</defs>
<g transform="translate(216.57 417.37) scale(.1 -.1)">
<use xlink:href="#c"/>
<use x="63.623047" xlink:href="#f"/>
<use x="95.410156" xlink:href="#c"/>
<use x="159.033203" xlink:href="#af"/>
</g>
</g>
<g clip-path="url(#a)">
<defs>
<path id="ae" d="m33.016 40.375q-6.6406 0-10.531-4.5469-3.875-4.5312-3.875-12.438 0-7.8594 3.875-12.438 3.8906-4.5625 10.531-4.5625t10.516 4.5625q3.875 4.5781 3.875 12.438 0 7.9062-3.875 12.438-3.875 4.5469-10.516 4.5469zm19.578 30.922v-8.9844q-3.7188 1.75-7.5 2.6719-3.7812 0.9375-7.5 0.9375-9.7656 0-14.922-6.5938-5.1406-6.5938-5.875-19.922 2.875 4.25 7.2188 6.5156 4.3594 2.2656 9.5781 2.2656 10.984 0 17.359-6.6719 6.375-6.6562 6.375-18.125 0-11.234-6.6406-18.031-6.6406-6.7812-17.672-6.7812-12.656 0-19.344 9.6875-6.6875 9.7031-6.6875 28.109 0 17.281 8.2031 27.562t22.016 10.281q3.7188 0 7.5-0.73438t7.8906-2.1875z"/>
</defs>
<g transform="translate(336.28 540.42) scale(.1 -.1)">
<use xlink:href="#c"/>
<use x="63.623047" xlink:href="#f"/>
<use x="95.410156" xlink:href="#c"/>
<use x="159.033203" xlink:href="#ae"/>
</g>
</g>
<g clip-path="url(#a)">
<g transform="translate(384.17 540.42) scale(.1 -.1)">
<use xlink:href="#c"/>
<use x="63.623047" xlink:href="#f"/>
<use x="95.410156" xlink:href="#c"/>
<use x="159.033203" xlink:href="#x"/>
</g>
</g>
<g clip-path="url(#a)">
<g transform="translate(934.84 292.61) scale(.1 -.1)">
<use xlink:href="#c"/>
<use x="63.623047" xlink:href="#f"/>
<use x="95.410156" xlink:href="#c"/>
<use x="159.033203" xlink:href="#w"/>
</g>
</g>
<g clip-path="url(#a)">
<g transform="translate(767.25 540.42) scale(.1 -.1)">
<use xlink:href="#c"/>
<use x="63.623047" xlink:href="#f"/>
<use x="95.410156" xlink:href="#c"/>
<use x="159.033203" xlink:href="#v"/>
</g>
</g>
<g clip-path="url(#a)">
<defs>
<path id="ag" d="m31.781 66.406q-7.6094 0-11.453-7.5-3.8281-7.4844-3.8281-22.531 0-14.984 3.8281-22.484 3.8438-7.5 11.453-7.5 7.6719 0 11.5 7.5 3.8438 7.5 3.8438 22.484 0 15.047-3.8438 22.531-3.8281 7.5-11.5 7.5zm0 7.8125q12.266 0 18.734-9.7031 6.4688-9.6875 6.4688-28.141 0-18.406-6.4688-28.109-6.4688-9.6875-18.734-9.6875-12.25 0-18.719 9.6875-6.4688 9.7031-6.4688 28.109 0 18.453 6.4688 28.141 6.4688 9.7031 18.719 9.7031z"/>
</defs>
<g transform="translate(863.02 417.37) scale(.1 -.1)">
<use xlink:href="#c"/>
<use x="63.623047" xlink:href="#f"/>
<use x="95.410156" xlink:href="#n"/>
<use x="159.033203" xlink:href="#ag"/>
</g>
</g>
<g clip-path="url(#a)">
<g transform="translate(863.02 540.42) scale(.1 -.1)">
<use xlink:href="#c"/>
<use x="63.623047" xlink:href="#f"/>
<use x="95.410156" xlink:href="#n"/>
<use x="159.033203" xlink:href="#c"/>
</g>
</g>
<g clip-path="url(#a)">
<g transform="translate(1006.7 417.37) scale(.1 -.1)">
<use xlink:href="#c"/>
<use x="63.623047" xlink:href="#f"/>
<use x="95.410156" xlink:href="#n"/>
<use x="159.033203" xlink:href="#n"/>
</g>
</g>
<g clip-path="url(#a)">
<g transform="translate(1174.3 417.37) scale(.1 -.1)">
<use xlink:href="#c"/>
<use x="63.623047" xlink:href="#f"/>
<use x="95.410156" xlink:href="#n"/>
<use x="159.033203" xlink:href="#m"/>
</g>
</g>
<g clip-path="url(#a)">
<g transform="translate(1102.4 540.42) scale(.1 -.1)">
<use xlink:href="#c"/>
<use x="63.623047" xlink:href="#f"/>
<use x="95.410156" xlink:href="#n"/>
<use x="159.033203" xlink:href="#s"/>
</g>
</g>
<g clip-path="url(#a)">
<g transform="translate(1150.3 540.42) scale(.1 -.1)">
<use xlink:href="#c"/>
<use x="63.623047" xlink:href="#f"/>
<use x="95.410156" xlink:href="#n"/>
<use x="159.033203" xlink:href="#af"/>
</g>
</g>
<g clip-path="url(#a)">
<g transform="translate(1198.2 540.42) scale(.1 -.1)">
<use xlink:href="#c"/>
<use x="63.623047" xlink:href="#f"/>
<use x="95.410156" xlink:href="#n"/>
<use x="159.033203" xlink:href="#ae"/>
</g>
</g>
<g clip-path="url(#a)">
<g transform="translate(958.79 540.42) scale(.1 -.1)">
<use xlink:href="#c"/>
<use x="63.623047" xlink:href="#f"/>
<use x="95.410156" xlink:href="#n"/>
<use x="159.033203" xlink:href="#x"/>
</g>
</g>
<g clip-path="url(#a)">
<g transform="translate(1006.7 540.42) scale(.1 -.1)">
<use xlink:href="#c"/>
<use x="63.623047" xlink:href="#f"/>
<use x="95.410156" xlink:href="#n"/>
<use x="159.033203" xlink:href="#w"/>
</g>
</g>
<g clip-path="url(#a)">
<g transform="translate(1054.6 540.42) scale(.1 -.1)">
<use xlink:href="#c"/>
<use x="63.623047" xlink:href="#f"/>
<use x="95.410156" xlink:href="#n"/>
<use x="159.033203" xlink:href="#v"/>
</g>
</g>
<g clip-path="url(#a)">
<g transform="translate(815.13 540.42) scale(.1 -.1)">
<use xlink:href="#c"/>
<use x="63.623047" xlink:href="#f"/>
<use x="95.410156" xlink:href="#m"/>
<use x="159.033203" xlink:href="#ag"/>
</g>
</g>
<g clip-path="url(#a)">
<g transform="translate(910.9 540.42) scale(.1 -.1)">
<use xlink:href="#c"/>
<use x="63.623047" xlink:href="#f"/>
<use x="95.410156" xlink:href="#m"/>
<use x="159.033203" xlink:href="#c"/>
</g>
</g>
<g clip-path="url(#a)">
<g transform="translate(144.74 540.42) scale(.1 -.1)">
<use xlink:href="#c"/>
<use x="63.623047" xlink:href="#f"/>
<use x="95.410156" xlink:href="#m"/>
<use x="159.033203" xlink:href="#n"/>
</g>
</g>
<g clip-path="url(#a)">
<g transform="translate(192.63 540.42) scale(.1 -.1)">
<use xlink:href="#c"/>
<use x="63.623047" xlink:href="#f"/>
<use x="95.410156" xlink:href="#m"/>
<use x="159.033203" xlink:href="#m"/>
</g>
</g>
<g clip-path="url(#a)">
<g transform="translate(240.51 540.42) scale(.1 -.1)">
<use xlink:href="#c"/>
<use x="63.623047" xlink:href="#f"/>
<use x="95.410156" xlink:href="#m"/>
<use x="159.033203" xlink:href="#s"/>
</g>
</g>
<g clip-path="url(#a)">
<g transform="translate(288.4 540.42) scale(.1 -.1)">
<use xlink:href="#c"/>
<use x="63.623047" xlink:href="#f"/>
<use x="95.410156" xlink:href="#m"/>
<use x="159.033203" xlink:href="#af"/>
</g>
</g>
<g clip-path="url(#a)">
<g transform="translate(48.973 540.42) scale(.1 -.1)">
<use xlink:href="#c"/>
<use x="63.623047" xlink:href="#f"/>
<use x="95.410156" xlink:href="#m"/>
<use x="159.033203" xlink:href="#ae"/>
</g>
</g>
<g clip-path="url(#a)">
<g transform="translate(96.858 540.42) scale(.1 -.1)">
<use xlink:href="#c"/>
<use x="63.623047" xlink:href="#f"/>
<use x="95.410156" xlink:href="#m"/>
<use x="159.033203" xlink:href="#x"/>
</g>
</g>
<g clip-path="url(#a)">
<g transform="translate(432.05 540.42) scale(.1 -.1)">
<use xlink:href="#c"/>
<use x="63.623047" xlink:href="#f"/>
<use x="95.410156" xlink:href="#m"/>
<use x="159.033203" xlink:href="#w"/>
</g>
</g>
<g clip-path="url(#a)">
<g transform="translate(719.36 540.42) scale(.1 -.1)">
<use xlink:href="#c"/>
<use x="63.623047" xlink:href="#f"/>
<use x="95.410156" xlink:href="#m"/>
<use x="159.033203" xlink:href="#v"/>
</g>
</g>
<g clip-path="url(#a)">
<g transform="translate(1246.1 540.42) scale(.1 -.1)">
<use xlink:href="#c"/>
<use x="63.623047" xlink:href="#f"/>
<use x="95.410156" xlink:href="#s"/>
<use x="159.033203" xlink:href="#ag"/>
</g>
</g>
<defs>
<clipPath id="a">
<rect width="1317.3" height="693.33"/>
</clipPath>
</defs>
</svg>
