<?xml version="1.0" encoding="UTF-8"?>
<!DOCTYPE svg  PUBLIC '-//W3C//DTD SVG 1.1//EN'  'http://www.w3.org/Graphics/SVG/1.1/DTD/svg11.dtd'>
<svg width="1469.3pt" height="773.33pt" version="1.1" viewBox="0 0 1469.3 773.33" xmlns="http://www.w3.org/2000/svg" xmlns:xlink="http://www.w3.org/1999/xlink">
<defs>
<style type="text/css">*{stroke-linecap:butt;stroke-linejoin:round;}</style>
</defs>
<path d="m0 773.33h1469.3v-773.33h-1469.3z" fill="#fff"/>
<g fill="none" stroke="#000">
<path d="m312.52 35.152v118.24" clip-path="url(#a)"/>
<path d="m312.52 153.39 1090 118" clip-path="url(#a)"/>
<path d="m312.52 153.39 1090 118" clip-path="url(#a)"/>
<path d="m312.52 153.39v118" clip-path="url(#a)"/>
<path d="m312.52 271.39-225.58 351.7" clip-path="url(#a)"/>
<path d="m312.52 271.39-91 235.01" clip-path="url(#a)"/>
<path d="m312.52 271.39-173.77 351.7" clip-path="url(#a)"/>
<path d="m312.52 271.39-85.674 235.01" clip-path="url(#a)"/>
<path d="m312.52 271.39-57.174 117.7" clip-path="url(#a)"/>
<path d="m312.52 271.39 188.96 235.01" clip-path="url(#a)"/>
<path d="m312.52 271.39 722.91 117.7" clip-path="url(#a)"/>
<path d="m312.52 271.39-245.73 351.7" clip-path="url(#a)"/>
<path d="m312.52 271.39-237.1 351.7" clip-path="url(#a)"/>
<path d="m312.52 271.39-193.92 351.7" clip-path="url(#a)"/>
<path d="m312.52 271.39 47.902 351.7" clip-path="url(#a)"/>
<path d="m312.52 271.39 350.17 351.7" clip-path="url(#a)"/>
<path d="m86.939 623.09v115.09" clip-path="url(#a)"/>
<path d="m221.52 506.4-5.0379 116.69" clip-path="url(#a)" stroke-dasharray="3.7,1.6"/>
<path d="m221.52 506.4 26.629 116.69" clip-path="url(#a)" stroke-dasharray="3.7,1.6"/>
<path d="m221.52 506.4 98.598 116.69" clip-path="url(#a)" stroke-dasharray="3.7,1.6"/>
<path d="m221.52 506.4-120.19 116.69" clip-path="url(#a)"/>
<path d="m138.76 623.09v115.09" clip-path="url(#a)"/>
<path d="m226.85 506.4-10.364 116.69" clip-path="url(#a)" stroke-dasharray="3.7,1.6"/>
<path d="m226.85 506.4 21.303 116.69" clip-path="url(#a)" stroke-dasharray="3.7,1.6"/>
<path d="m226.85 506.4 93.273 116.69" clip-path="url(#a)" stroke-dasharray="3.7,1.6"/>
<path d="m226.85 506.4-65.061 116.69" clip-path="url(#a)"/>
<path d="m226.85 506.4-39.152 116.69" clip-path="url(#a)"/>
<path d="m255.35 389.09-38.864 234" clip-path="url(#a)"/>
<path d="m255.35 389.09-7.197 234" clip-path="url(#a)"/>
<path d="m255.35 389.09 46.061 117.3" clip-path="url(#a)"/>
<path d="m501.48 506.4-97.879 116.69" clip-path="url(#a)"/>
<path d="m501.48 506.4-51.818 116.69" clip-path="url(#a)"/>
<path d="m501.48 506.4-2.8788 116.69" clip-path="url(#a)"/>
<path d="m501.48 506.4 48.939 116.69" clip-path="url(#a)"/>
<path d="m501.48 506.4 103.64 116.69" clip-path="url(#a)"/>
<path d="m1035.4 389.09-312.28 234" clip-path="url(#a)"/>
<path d="m1035.4 389.09-248.95 234" clip-path="url(#a)"/>
<path d="m1035.4 389.09 4.3867 234" clip-path="url(#a)"/>
<path d="m1035.4 389.09-113.64 234" clip-path="url(#a)"/>
<path d="m1035.4 389.09 34.134 117.3" clip-path="url(#a)"/>
<path d="m1035.4 389.09 274.99 234" clip-path="url(#a)"/>
<path d="m1035.4 389.09 361.36 234" clip-path="url(#a)"/>
<path d="m723.15 623.09v115.09" clip-path="url(#a)"/>
<path d="m786.48 623.09v115.09" clip-path="url(#a)"/>
<path d="m1039.8 623.09-187.12 115.09" clip-path="url(#a)"/>
<path d="m1039.8 623.09 187.12 115.09" clip-path="url(#a)"/>
<path d="m921.79 623.09v115.09" clip-path="url(#a)"/>
<path d="m1069.6 506.4-75.808 116.69" clip-path="url(#a)"/>
<path d="m1069.6 506.4-0.9596 116.69" clip-path="url(#a)"/>
<path d="m1069.6 506.4 76.768 116.69" clip-path="url(#a)"/>
<path d="m993.76 623.09v115.09" clip-path="url(#a)"/>
<path d="m1068.6 623.09v115.09" clip-path="url(#a)"/>
<path d="m1146.3 623.09v115.09" clip-path="url(#a)"/>
<path d="m403.61 623.09v115.09" clip-path="url(#a)"/>
<path d="m449.67 623.09v115.09" clip-path="url(#a)"/>
<path d="m498.61 623.09v115.09" clip-path="url(#a)"/>
<path d="m550.42 623.09v115.09" clip-path="url(#a)"/>
<path d="m605.12 623.09v115.09" clip-path="url(#a)"/>
<path d="m216.48 623.09v115.09" clip-path="url(#a)"/>
<path d="m248.15 623.09v115.09" clip-path="url(#a)"/>
<path d="m301.41 506.4-18.712 116.69" clip-path="url(#a)"/>
<path d="m301.41 506.4 18.712 116.69" clip-path="url(#a)"/>
<path d="m282.7 623.09v115.09" clip-path="url(#a)"/>
<path d="m320.12 623.09v115.09" clip-path="url(#a)"/>
<path d="m161.79 623.09v115.09" clip-path="url(#a)"/>
<path d="m66.788 623.09v115.09" clip-path="url(#a)"/>
<path d="m101.33 623.09v115.09" clip-path="url(#a)"/>
<path d="m75.424 623.09v115.09" clip-path="url(#a)"/>
<path d="m118.61 623.09v115.09" clip-path="url(#a)"/>
<path d="m187.7 623.09v115.09" clip-path="url(#a)"/>
<path d="m360.42 623.09v115.09" clip-path="url(#a)"/>
<path d="m662.7 623.09v115.09" clip-path="url(#a)"/>
<path d="m1310.4 623.09v115.09" clip-path="url(#a)"/>
<path d="m1396.8 623.09v115.09" clip-path="url(#a)"/>
</g>
<path d="m306.25 91.263v6.0162q0 2.4 2.4 2.4h7.7425q2.4 0 2.4-2.4v-6.0162q0-2.4-2.4-2.4h-7.7425q-2.4 0-2.4 2.4z" clip-path="url(#a)" fill="#fff" stroke="#fff"/>
<g clip-path="url(#a)">
<defs>
<path id="u" d="m9.8125 72.906h9.8594v-29.891h35.844v29.891h9.8594v-72.906h-9.8594v34.719h-35.844v-34.719h-9.8594z"/>
</defs>
<g transform="translate(310.32 91.263) rotate(90) scale(.08 -.08)">
<use xlink:href="#u"/>
</g>
</g>
<path d="m854.46 218.37 4.7957 0.51916q2.3861 0.2583 2.6444-2.1278l0.8333-7.6975q0.2583-2.3861-2.1278-2.6444l-4.7957-0.51916q-2.3861-0.2583-2.6444 2.1278l-0.8333 7.6975q-0.2583 2.3861 2.1278 2.6444z" clip-path="url(#a)" fill="#fff" stroke="#fff"/>
<g clip-path="url(#a)">
<defs>
<path id="x" d="m19.672 64.797v-27.391h12.406q6.8906 0 10.641 3.5625 3.7656 3.5625 3.7656 10.156 0 6.5469-3.7656 10.109-3.75 3.5625-10.641 3.5625zm-9.8594 8.1094h22.266q12.266 0 18.531-5.5469 6.2812-5.5469 6.2812-16.234 0-10.797-6.2812-16.312-6.2656-5.5156-18.531-5.5156h-12.406v-29.297h-9.8594z"/>
</defs>
<g transform="translate(854.9 214.33) rotate(6.1785) scale(.08 -.08)">
<use xlink:href="#x"/>
</g>
</g>
<path d="m854.14 218.33 5.4407 0.58899q2.3861 0.2583 2.6444-2.1278l0.8333-7.6975q0.2583-2.3861-2.1278-2.6444l-5.4407-0.58899q-2.3861-0.2583-2.6444 2.1278l-0.8333 7.6975q-0.2583 2.3861 2.1278 2.6444z" clip-path="url(#a)" fill="#fff" stroke="#fff"/>
<g clip-path="url(#a)">
<defs>
<path id="m" d="m34.188 63.188-13.391-36.281h26.812zm-5.5781 9.7188h11.188l27.781-72.906h-10.25l-6.6406 18.703h-32.859l-6.6406-18.703h-10.406z"/>
</defs>
<g transform="translate(854.58 214.29) rotate(6.1785) scale(.08 -.08)">
<use xlink:href="#m"/>
</g>
</g>
<path d="m306.25 209.65v5.4725q0 2.4 2.4 2.4h7.7425q2.4 0 2.4-2.4v-5.4725q0-2.4-2.4-2.4h-7.7425q-2.4 0-2.4 2.4z" clip-path="url(#a)" fill="#fff" stroke="#fff"/>
<g clip-path="url(#a)">
<g transform="translate(310.32 209.65) rotate(90) scale(.08 -.08)">
<use xlink:href="#m"/>
</g>
</g>
<path d="m203.81 452.5 2.4066-3.752q1.2957-2.0202-0.72441-3.3159l-6.5171-4.1801q-2.0202-1.2957-3.3159 0.72441l-2.4066 3.752q-1.2957 2.0202 0.72441 3.3159l6.5171 4.1801q2.0202 1.2957 3.3159-0.72441z" clip-path="url(#a)" fill="#fff" stroke="#fff"/>
<g clip-path="url(#a)">
<defs>
<path id="aa" d="m9.8125 72.906h9.8594v-64.609h35.5v-8.2969h-45.359z"/>
</defs>
<g transform="translate(200.39 450.31) rotate(-57.324) scale(.08 -.08)">
<use xlink:href="#aa"/>
</g>
</g>
<path d="m271.78 393.96 2.1724-5.6103q0.86663-2.2381-1.3714-3.1047l-7.2201-2.7958q-2.2381-0.86663-3.1047 1.3714l-2.1724 5.6103q-0.86663 2.2381 1.3714 3.1047l7.2201 2.7958q2.2381 0.86663 3.1047-1.3714z" clip-path="url(#a)" fill="#fff" stroke="#fff"/>
<g clip-path="url(#a)">
<g transform="translate(268 392.5) rotate(-68.833) scale(.08 -.08)">
<use xlink:href="#u"/>
</g>
</g>
<path d="m230.28 452.02 1.9745-3.9963q1.0631-2.1517-1.0886-3.2148l-6.9415-3.4296q-2.1517-1.0631-3.2148 1.0886l-1.9745 3.9963q-1.0631 2.1517 1.0886 3.2148l6.9415 3.4296q2.1517 1.0631 3.2148-1.0886z" clip-path="url(#a)" fill="#fff" stroke="#fff"/>
<g clip-path="url(#a)">
<g transform="translate(226.63 450.22) rotate(-63.707) scale(.08 -.08)">
<use xlink:href="#aa"/>
</g>
</g>
<path d="m274.55 393.87 2.0606-5.6524q0.82202-2.2548-1.4328-3.0769l-7.2742-2.6519q-2.2548-0.82202-3.0769 1.4328l-2.0606 5.6524q-0.82202 2.2548 1.4328 3.0769l7.2742 2.6519q2.2548 0.82202 3.0769-1.4328z" clip-path="url(#a)" fill="#fff" stroke="#fff"/>
<g clip-path="url(#a)">
<g transform="translate(270.73 392.48) rotate(-69.97) scale(.08 -.08)">
<use xlink:href="#u"/>
</g>
</g>
<path d="m288.26 335.69 2.6287-5.4116q1.0486-2.1588-1.1102-3.2074l-6.9643-3.3829q-2.1588-1.0486-3.2074 1.1102l-2.6287 5.4116q-1.0486 2.1588 1.1102 3.2074l6.9643 3.3829q2.1588 1.0486 3.2074-1.1102z" clip-path="url(#a)" fill="#fff" stroke="#fff"/>
<g clip-path="url(#a)">
<g transform="translate(284.61 333.91) rotate(-64.092) scale(.08 -.08)">
<use xlink:href="#u"/>
</g>
</g>
<path d="m400.23 390.48 3.7699 4.6886q1.5039 1.8704 3.3743 0.36646l6.0339-4.8517q1.8704-1.5039 0.36646-3.3743l-3.7699-4.6886q-1.5039-1.8704-3.3743-0.36646l-6.0339 4.8517q-1.8704 1.5039-0.36646 3.3743z" clip-path="url(#a)" fill="#fff" stroke="#fff"/>
<g clip-path="url(#a)">
<g transform="translate(403.4 387.93) rotate(51.198) scale(.08 -.08)">
<use xlink:href="#u"/>
</g>
</g>
<path d="m670 335.95 5.9381 0.96683q2.3688 0.38569 2.7545-1.9831l1.2442-7.6419q0.38569-2.3688-1.9831-2.7545l-5.9381-0.96683q-2.3688-0.38569-2.7545 1.9831l-1.2442 7.6419q-0.38569 2.3688 1.9831 2.7545z" clip-path="url(#a)" fill="#fff" stroke="#fff"/>
<g clip-path="url(#a)">
<g transform="translate(670.65 331.94) rotate(9.2477) scale(.08 -.08)">
<use xlink:href="#u"/>
</g>
</g>
<path d="m193.12 453.23 3.3535-4.7995q1.3746-1.9674-0.59275-3.342l-6.3468-4.4345q-1.9674-1.3746-3.342 0.59275l-3.3535 4.7995q-1.3746 1.9674 0.59275 3.342l6.3468 4.4345q1.9674 1.3746 3.342-0.59275z" clip-path="url(#a)" fill="#fff" stroke="#fff"/>
<g clip-path="url(#a)">
<defs>
<path id="r" d="m8.6875 72.906h9.9219v-44.297q0-11.719 4.2344-16.875 4.25-5.1406 13.781-5.1406 9.4688 0 13.719 5.1406 4.25 5.1562 4.25 16.875v44.297h9.9062v-45.516q0-14.25-7.0625-21.531-7.0469-7.2812-20.812-7.2812-13.828 0-20.891 7.2812-7.0469 7.2812-7.0469 21.531z"/>
</defs>
<g transform="translate(189.79 450.91) rotate(-55.058) scale(.08 -.08)">
<use xlink:href="#r"/>
</g>
</g>
<path d="m197.54 453.17 3.2729-4.8548q1.3416-1.99-0.64845-3.3316l-6.4199-4.328q-1.99-1.3416-3.3316 0.64845l-3.2729 4.8548q-1.3416 1.99 0.64845 3.3316l6.4199 4.328q1.99 1.3416 3.3316-0.64845z" clip-path="url(#a)" fill="#fff" stroke="#fff"/>
<g clip-path="url(#a)">
<g transform="translate(194.17 450.9) rotate(-56.014) scale(.08 -.08)">
<use xlink:href="#r"/>
</g>
</g>
<path d="m219.64 452.83 2.827-5.1273q1.1588-2.1017-0.94289-3.2605l-6.7802-3.7384q-2.1017-1.1588-3.2605 0.94288l-2.827 5.1273q-1.1588 2.1017 0.94288 3.2605l6.7802 3.7384q2.1017 1.1588 3.2605-0.94288z" clip-path="url(#a)" fill="#fff" stroke="#fff"/>
<g clip-path="url(#a)">
<g transform="translate(216.08 450.87) rotate(-61.129) scale(.08 -.08)">
<use xlink:href="#r"/>
</g>
</g>
<path d="m329.86 445.19 0.79016 5.8014q0.32389 2.378 2.7019 2.0542l7.6717-1.0449q2.378-0.32389 2.0542-2.7019l-0.79016-5.8014q-0.32389-2.378-2.7019-2.0542l-7.6717 1.0449q-2.378 0.32389-2.0542 2.7019z" clip-path="url(#a)" fill="#fff" stroke="#fff"/>
<g clip-path="url(#a)">
<g transform="translate(333.89 444.64) rotate(82.244) scale(.08 -.08)">
<use xlink:href="#r"/>
</g>
</g>
<path d="m481.1 449.59 4.1311 4.1491q1.6934 1.7007 3.3941 0.007375l5.4867-5.4629q1.7007-1.6934 0.007375-3.3941l-4.1311-4.1491q-1.6934-1.7007-3.3941-0.007375l-5.4867 5.4629q-1.7007 1.6934-0.007375 3.3941z" clip-path="url(#a)" fill="#fff" stroke="#fff"/>
<g clip-path="url(#a)">
<g transform="translate(483.98 446.72) rotate(45.124) scale(.08 -.08)">
<use xlink:href="#r"/>
</g>
</g>
<path d="m80.668 663.73v33.808q0 2.4 2.4 2.4h7.7425q2.4 0 2.4-2.4v-33.808q0-2.4-2.4-2.4h-7.7425q-2.4 0-2.4 2.4z" clip-path="url(#a)" fill="#fff" stroke="#fff"/>
<g clip-path="url(#a)">
<defs>
<path id="k" d="m-0.29688 72.906h61.672v-8.3125h-25.875v-64.594h-9.9062v64.594h-25.891z"/>
<path id="d" d="m56.203 29.594v-4.3906h-41.312q0.59375-9.2812 5.5938-14.141t13.938-4.8594q5.1719 0 10.031 1.2656t9.6562 3.8125v-8.5q-4.8438-2.0469-9.9219-3.125t-10.297-1.0781q-13.094 0-20.734 7.6094-7.6406 7.625-7.6406 20.625 0 13.422 7.25 21.297 7.25 7.8906 19.562 7.8906 11.031 0 17.453-7.1094 6.4219-7.0938 6.4219-19.297zm-8.9844 2.6406q-0.09375 7.3594-4.125 11.75-4.0312 4.4062-10.672 4.4062-7.5156 0-12.031-4.25t-5.2031-11.969z"/>
<path id="h" d="m41.109 46.297q-1.5156 0.875-3.2969 1.2812-1.7812 0.42188-3.9219 0.42188-7.625 0-11.703-4.9531t-4.0781-14.234v-28.812h-9.0312v54.688h9.0312v-8.5q2.8438 4.9844 7.375 7.3906 4.5469 2.4219 11.047 2.4219 0.92188 0 2.0469-0.125 1.125-0.10938 2.4844-0.35938z"/>
<path id="j" d="m52 44.188q3.375 6.0625 8.0625 8.9375t11.031 2.875q8.5469 0 13.188-5.9844 4.6406-5.9688 4.6406-17v-33.016h-9.0312v32.719q0 7.8594-2.7969 11.656-2.7812 3.8125-8.4844 3.8125-6.9844 0-11.047-4.6406-4.0469-4.625-4.0469-12.641v-30.906h-9.0312v32.719q0 7.9062-2.7812 11.688t-8.5938 3.7812q-6.8906 0-10.953-4.6562-4.0469-4.6562-4.0469-12.625v-30.906h-9.0312v54.688h9.0312v-8.5q3.0781 5.0312 7.375 7.4219t10.203 2.3906q5.9688 0 10.141-3.0312 4.1719-3.0156 6.1719-8.7812z"/>
<path id="g" d="m9.4219 54.688h8.9844v-54.688h-8.9844zm0 21.297h8.9844v-11.391h-8.9844z"/>
<path id="f" d="m54.891 33.016v-33.016h-8.9844v32.719q0 7.7656-3.0312 11.609-3.0312 3.8594-9.0781 3.8594-7.2812 0-11.484-4.6406-4.2031-4.625-4.2031-12.641v-30.906h-9.0312v54.688h9.0312v-8.5q3.2344 4.9375 7.5938 7.375 4.375 2.4375 10.094 2.4375 9.4219 0 14.25-5.8281 4.8438-5.8281 4.8438-17.156z"/>
<path id="i" d="m34.281 27.484q-10.891 0-15.094-2.4844t-4.2031-8.5q0-4.7812 3.1562-7.5938 3.1562-2.7969 8.5625-2.7969 7.4844 0 12 5.2969t4.5156 14.078v2zm17.922 3.7188v-31.203h-8.9844v8.2969q-3.0781-4.9688-7.6719-7.3438t-11.234-2.375q-8.3906 0-13.359 4.7188-4.9531 4.7188-4.9531 12.625 0 9.2188 6.1719 13.906 6.1875 4.6875 18.438 4.6875h12.609v0.89062q0 6.2031-4.0781 9.5938t-11.453 3.3906q-4.6875 0-9.1406-1.125-4.4375-1.125-8.5312-3.375v8.3125q4.9219 1.9062 9.5625 2.8438 4.6406 0.95312 9.0312 0.95312 11.875 0 17.734-6.1562 5.8594-6.1406 5.8594-18.641z"/>
<path id="l" d="m9.4219 75.984h8.9844v-75.984h-8.9844z"/>
</defs>
<g transform="translate(84.732 663.73) rotate(90) scale(.08 -.08)">
<use xlink:href="#k"/>
<use x="44.083984" xlink:href="#d"/>
<use x="105.607422" xlink:href="#h"/>
<use x="144.970703" xlink:href="#j"/>
<use x="242.382812" xlink:href="#g"/>
<use x="270.166016" xlink:href="#f"/>
<use x="333.544922" xlink:href="#i"/>
<use x="394.824219" xlink:href="#l"/>
</g>
</g>
<path d="m225.15 567.75 0.23604-5.4674q0.10352-2.3978-2.2942-2.5013l-7.7353-0.33395q-2.3978-0.10352-2.5013 2.2942l-0.23604 5.4674q-0.10352 2.3978 2.2942 2.5013l7.7353 0.33395q2.3978 0.10352 2.5013-2.2942z" clip-path="url(#a)" fill="#fff" stroke="#fff"/>
<g clip-path="url(#a)">
<g transform="translate(221.09 567.57) rotate(-87.528) scale(.08 -.08)">
<use xlink:href="#m"/>
</g>
</g>
<path d="m228.16 563.66 1.1299 4.9515q0.53395 2.3399 2.8738 1.8059l7.5485-1.7225q2.3399-0.53395 1.8059-2.8738l-1.1299-4.9515q-0.53395-2.3399-2.8738-1.8059l-7.5485 1.7225q-2.3398 0.53395-1.8059 2.8738z" clip-path="url(#a)" fill="#fff" stroke="#fff"/>
<g clip-path="url(#a)">
<defs>
<path id="ai" d="m53.516 70.516v-9.625q-5.6094 2.6875-10.594 4-4.9844 1.3281-9.625 1.3281-8.0469 0-12.422-3.125t-4.375-8.8906q0-4.8438 2.9062-7.3125 2.9062-2.4531 11.016-3.9688l5.9531-1.2188q11.031-2.1094 16.281-7.4062t5.25-14.172q0-10.609-7.1094-16.078-7.0938-5.4688-20.812-5.4688-5.1719 0-11.016 1.1719-5.8281 1.1719-12.078 3.4688v10.156q6-3.3594 11.766-5.0781 5.7656-1.7031 11.328-1.7031 8.4375 0 13.031 3.3125 4.5938 3.3281 4.5938 9.4844 0 5.3594-3.2969 8.3906t-10.812 4.5469l-6.0156 1.1719q-11.031 2.1875-15.969 6.875-4.9219 4.6875-4.9219 13.047 0 9.6719 6.8125 15.234t18.766 5.5625q5.1406 0 10.453-0.9375 5.3281-0.92188 10.891-2.7656z"/>
</defs>
<g transform="translate(232.12 562.76) rotate(77.145) scale(.08 -.08)">
<use xlink:href="#ai"/>
</g>
</g>
<path d="m264.27 566.7 3.532 4.1801q1.549 1.8332 3.3822 0.28425l5.914-4.997q1.8332-1.549 0.28425-3.3822l-3.532-4.1801q-1.549-1.8332-3.3822-0.28425l-5.914 4.997q-1.8332 1.549-0.28425 3.3822z" clip-path="url(#a)" fill="#fff" stroke="#fff"/>
<g clip-path="url(#a)">
<g transform="translate(267.37 564.08) rotate(49.804) scale(.08 -.08)">
<use xlink:href="#m"/>
</g>
</g>
<path d="m163.59 571.39 4.4196-4.291q1.7219-1.6718 0.050106-3.3937l-5.3934-5.555q-1.6718-1.7219-3.3937-0.050106l-4.4196 4.291q-1.7219 1.6718-0.050106 3.3937l5.3934 5.555q1.6718 1.7219 3.3937 0.050106z" clip-path="url(#a)" fill="#fff" stroke="#fff"/>
<g clip-path="url(#a)">
<defs>
<path id="v" d="m19.672 64.797v-56.688h11.922q15.094 0 22.094 6.8281 7 6.8438 7 21.594 0 14.641-7 21.453t-22.094 6.8125zm-9.8594 8.1094h20.266q21.188 0 31.094-8.8125 9.9219-8.8125 9.9219-27.562 0-18.859-9.9688-27.703-9.9531-8.8281-31.047-8.8281h-20.266z"/>
</defs>
<g transform="translate(160.76 568.47) rotate(-44.154) scale(.08 -.08)">
<use xlink:href="#v"/>
</g>
</g>
<path d="m132.49 663.73v33.808q0 2.4 2.4 2.4h7.7425q2.4 0 2.4-2.4v-33.808q0-2.4-2.4-2.4h-7.7425q-2.4 0-2.4 2.4z" clip-path="url(#a)" fill="#fff" stroke="#fff"/>
<g clip-path="url(#a)">
<g transform="translate(136.55 663.73) rotate(90) scale(.08 -.08)">
<use xlink:href="#k"/>
<use x="44.083984" xlink:href="#d"/>
<use x="105.607422" xlink:href="#h"/>
<use x="144.970703" xlink:href="#j"/>
<use x="242.382812" xlink:href="#g"/>
<use x="270.166016" xlink:href="#f"/>
<use x="333.544922" xlink:href="#i"/>
<use x="394.824219" xlink:href="#l"/>
</g>
</g>
<path d="m227.67 568.03 0.48412-5.451q0.21231-2.3906-2.1783-2.6029l-7.7121-0.68493q-2.3906-0.21231-2.6029 2.1783l-0.48412 5.451q-0.21231 2.3906 2.1783 2.6029l7.7121 0.68493q2.3906 0.21231 2.6029-2.1783z" clip-path="url(#a)" fill="#fff" stroke="#fff"/>
<g clip-path="url(#a)">
<g transform="translate(223.62 567.67) rotate(-84.925) scale(.08 -.08)">
<use xlink:href="#m"/>
</g>
</g>
<path d="m230.87 563.37 0.91209 4.9962q0.43102 2.361 2.792 1.93l7.6166-1.3905q2.361-0.43102 1.93-2.792l-0.91209-4.9962q-0.43102-2.361-2.792-1.93l-7.6166 1.3905q-2.361 0.43102-1.93 2.792z" clip-path="url(#a)" fill="#fff" stroke="#fff"/>
<g clip-path="url(#a)">
<g transform="translate(234.87 562.64) rotate(79.654) scale(.08 -.08)">
<use xlink:href="#ai"/>
</g>
</g>
<path d="m266.88 566.52 3.4168 4.2747q1.4985 1.8747 3.3732 0.37624l6.0479-4.8341q1.8747-1.4985 0.37624-3.3732l-3.4168-4.2747q-1.4985-1.8747-3.3732-0.37624l-6.0479 4.8341q-1.8747 1.4985-0.37624 3.3732z" clip-path="url(#a)" fill="#fff" stroke="#fff"/>
<g clip-path="url(#a)">
<g transform="translate(270.05 563.99) rotate(51.364) scale(.08 -.08)">
<use xlink:href="#m"/>
</g>
</g>
<path d="m198.3 570.49 2.9997-5.3803q1.1687-2.0962-0.92748-3.2649l-6.7625-3.7703q-2.0962-1.1687-3.2649 0.92749l-2.9997 5.3803q-1.1687 2.0962 0.92749 3.2649l6.7625 3.7703q2.0962 1.1687 3.2649-0.92749z" clip-path="url(#a)" fill="#fff" stroke="#fff"/>
<g clip-path="url(#a)">
<g transform="translate(194.75 568.51) rotate(-60.859) scale(.08 -.08)">
<use xlink:href="#v"/>
</g>
</g>
<path d="m212.29 569.52 1.8624-5.5509q0.7634-2.2753-1.5119-3.0388l-7.3404-2.4628q-2.2753-0.76341-3.0388 1.5119l-1.8624 5.5509q-0.76341 2.2753 1.5119 3.0388l7.3404 2.4628q2.2753 0.76341 3.0388-1.5119z" clip-path="url(#a)" fill="#fff" stroke="#fff"/>
<g clip-path="url(#a)">
<g transform="translate(208.43 568.22) rotate(-71.453) scale(.08 -.08)">
<use xlink:href="#r"/>
</g>
</g>
<path d="m241.65 509.82 0.89663-5.3985q0.39322-2.3676-1.9743-2.7608l-7.6379-1.2685q-2.3676-0.39322-2.7608 1.9743l-0.89663 5.3985q-0.39322 2.3676 1.9743 2.7608l7.6379 1.2685q2.3676 0.39322 2.7608-1.9743z" clip-path="url(#a)" fill="#fff" stroke="#fff"/>
<g clip-path="url(#a)">
<g transform="translate(237.65 509.15) rotate(-80.57) scale(.08 -.08)">
<use xlink:href="#m"/>
</g>
</g>
<path d="m257.94 508.82 0.15613-5.0764q0.073781-2.3989-2.3251-2.4726l-7.7388-0.23802q-2.3989-0.073781-2.4726 2.3251l-0.15613 5.0764q-0.073781 2.3989 2.3251 2.4726l7.7388 0.23802q2.3989 0.073781 2.4726-2.3251z" clip-path="url(#a)" fill="#fff" stroke="#fff"/>
<g clip-path="url(#a)">
<g transform="translate(253.88 508.7) rotate(-88.238) scale(.08 -.08)">
<use xlink:href="#ai"/>
</g>
</g>
<path d="m269.8 443.42 5.2366 13.336q0.87718 2.234 3.1111 1.3568l7.4465-2.9239q2.234-0.87718 1.3568-3.1111l-5.2366-13.336q-0.87718-2.234-3.1111-1.3568l-7.4465 2.9239q-2.234 0.87718-1.3568 3.1111z" clip-path="url(#a)" fill="#fff" stroke="#fff"/>
<g clip-path="url(#a)">
<defs>
<path id="au" d="m21 76.422v-100h-8.2969v100z"/>
</defs>
<g transform="translate(273.79 441.85) rotate(68.562) scale(.08 -.08)">
<use xlink:href="#m"/>
<use x="68.408203" xlink:href="#au"/>
<use x="102.099609" xlink:href="#v"/>
</g>
</g>
<path d="m455.59 570.87 3.5169-4.1928q1.5423-1.8388-0.29645-3.3811l-5.932-4.9757q-1.8388-1.5423-3.3811 0.29645l-3.5169 4.1928q-1.5423 1.8388 0.29645 3.3811l5.932 4.9757q1.8388 1.5423 3.3811-0.29645z" clip-path="url(#a)" fill="#fff" stroke="#fff"/>
<g clip-path="url(#a)">
<g transform="translate(452.48 568.26) rotate(-50.011) scale(.08 -.08)">
<use xlink:href="#m"/>
</g>
</g>
<path d="m480.37 569.39 1.8674-4.2053q0.97403-2.1935-1.2194-3.1675l-7.0762-3.1423q-2.1935-0.97403-3.1675 1.2194l-1.8674 4.2053q-0.97403 2.1935 1.2194 3.1675l7.0762 3.1423q2.1935 0.97403 3.1675-1.2194z" clip-path="url(#a)" fill="#fff" stroke="#fff"/>
<g clip-path="url(#a)">
<defs>
<path id="ar" d="m9.8125 72.906h41.891v-8.3125h-32.031v-21.484h28.906v-8.2969h-28.906v-34.812h-9.8594z"/>
</defs>
<g transform="translate(476.66 567.74) rotate(-66.056) scale(.08 -.08)">
<use xlink:href="#ar"/>
</g>
</g>
<path d="m506.24 567.98 0.15192-6.1581q0.05919-2.3993-2.3401-2.4585l-7.7401-0.19095q-2.3993-0.05919-2.4585 2.3401l-0.15192 6.1581q-0.05919 2.3993 2.3401 2.4585l7.7401 0.19095q2.3993 0.05919 2.4585-2.3401z" clip-path="url(#a)" fill="#fff" stroke="#fff"/>
<g clip-path="url(#a)">
<g transform="translate(502.18 567.88) rotate(-88.587) scale(.08 -.08)">
<use xlink:href="#v"/>
</g>
</g>
<path d="m519.11 564.65 2.1165 5.0466q0.92821 2.2132 3.1414 1.285l7.14-2.9944q2.2132-0.92821 1.285-3.1414l-2.1165-5.0466q-0.92821-2.2132-3.1414-1.285l-7.14 2.9944q-2.2132 0.92821-1.285 3.1414z" clip-path="url(#a)" fill="#fff" stroke="#fff"/>
<g clip-path="url(#a)">
<g transform="translate(522.86 563.08) rotate(67.247) scale(.08 -.08)">
<use xlink:href="#m"/>
</g>
</g>
<path d="m547.01 567.11 3.2032 3.6067q1.5937 1.7945 3.3882 0.20077l5.789-5.1413q1.7945-1.5937 0.20077-3.3882l-3.2032-3.6067q-1.5937-1.7945-3.3882-0.20077l-5.789 5.1413q-1.7945 1.5937-0.20077 3.3882z" clip-path="url(#a)" fill="#fff" stroke="#fff"/>
<g clip-path="url(#a)">
<g transform="translate(550.05 564.41) rotate(48.391) scale(.08 -.08)">
<use xlink:href="#x"/>
</g>
</g>
<path d="m880.86 512.75 4.3794-3.2816q1.9206-1.4392 0.48147-3.3598l-4.6428-6.196q-1.4392-1.9206-3.3598-0.48147l-4.3794 3.2816q-1.9206 1.4392-0.48147 3.3598l4.6428 6.196q1.4392 1.9206 3.3598 0.48147z" clip-path="url(#a)" fill="#fff" stroke="#fff"/>
<g clip-path="url(#a)">
<g transform="translate(878.43 509.5) rotate(-36.845) scale(.08 -.08)">
<use xlink:href="#m"/>
</g>
</g>
<path d="m913.01 512.77 4.4885-4.2189q1.7488-1.6437 0.10502-3.3925l-5.3028-5.6416q-1.6437-1.7488-3.3925-0.10502l-4.4885 4.2189q-1.7488 1.6437-0.10502 3.3925l5.3028 5.6416q1.6437 1.7488 3.3925 0.10502z" clip-path="url(#a)" fill="#fff" stroke="#fff"/>
<g clip-path="url(#a)">
<g transform="translate(910.23 509.81) rotate(-43.227) scale(.08 -.08)">
<use xlink:href="#v"/>
</g>
</g>
<path d="m1031.3 503.8 0.090415 4.8229q0.044985 2.3996 2.4446 2.3546l7.7411-0.14512q2.3996-0.044985 2.3546-2.4446l-0.090415-4.8229q-0.044984-2.3996-2.4446-2.3546l-7.7411 0.14512q-2.3996 0.044985-2.3546 2.4446z" clip-path="url(#a)" fill="#fff" stroke="#fff"/>
<g clip-path="url(#a)">
<g transform="translate(1035.4 503.72) rotate(88.926) scale(.08 -.08)">
<use xlink:href="#x"/>
</g>
</g>
<path d="m983.06 511.29 2.3908-4.9227q1.0485-2.1589-1.1104-3.2073l-6.9646-3.3824q-2.1589-1.0485-3.2073 1.1104l-2.3908 4.9227q-1.0485 2.1589 1.1104 3.2073l6.9646 3.3824q2.1589 1.0485 3.2073-1.1104z" clip-path="url(#a)" fill="#fff" stroke="#fff"/>
<g clip-path="url(#a)">
<g transform="translate(979.4 509.52) rotate(-64.096) scale(.08 -.08)">
<use xlink:href="#m"/>
</g>
</g>
<path d="m1045.7 446.87 1.529 5.2546q0.67056 2.3044 2.975 1.6339l7.4342-2.1633q2.3044-0.67056 1.6339-2.975l-1.529-5.2546q-0.67056-2.3044-2.975-1.6339l-7.4342 2.1633q-2.3044 0.67056-1.6339 2.975z" clip-path="url(#a)" fill="#fff" stroke="#fff"/>
<g clip-path="url(#a)">
<g transform="translate(1049.6 445.74) rotate(73.776) scale(.08 -.08)">
<use xlink:href="#m"/>
</g>
</g>
<path d="m1166.6 508.97 4.4591 3.7944q1.8278 1.5553 3.3832-0.2725l5.0176-5.8966q1.5553-1.8278-0.2725-3.3832l-4.4591-3.7944q-1.8278-1.5553-3.3832 0.2725l-5.0176 5.8966q-1.5553 1.8278 0.2725 3.3832z" clip-path="url(#a)" fill="#fff" stroke="#fff"/>
<g clip-path="url(#a)">
<g transform="translate(1169.3 505.88) rotate(40.395) scale(.08 -.08)">
<use xlink:href="#r"/>
</g>
</g>
<path d="m1210.2 509.77 4.9146 3.1824q2.0145 1.3045 3.319-0.71002l4.2084-6.4989q1.3045-2.0145-0.71002-3.319l-4.9146-3.1824q-2.0145-1.3045-3.319 0.71002l-4.2084 6.4989q-1.3045 2.0145 0.71002 3.319z" clip-path="url(#a)" fill="#fff" stroke="#fff"/>
<g clip-path="url(#a)">
<g transform="translate(1212.5 506.35) rotate(32.925) scale(.08 -.08)">
<use xlink:href="#r"/>
</g>
</g>
<path d="m716.88 663.73v33.808q0 2.4 2.4 2.4h7.7425q2.4 0 2.4-2.4v-33.808q0-2.4-2.4-2.4h-7.7425q-2.4 0-2.4 2.4z" clip-path="url(#a)" fill="#fff" stroke="#fff"/>
<g clip-path="url(#a)">
<g transform="translate(720.94 663.73) rotate(90) scale(.08 -.08)">
<use xlink:href="#k"/>
<use x="44.083984" xlink:href="#d"/>
<use x="105.607422" xlink:href="#h"/>
<use x="144.970703" xlink:href="#j"/>
<use x="242.382812" xlink:href="#g"/>
<use x="270.166016" xlink:href="#f"/>
<use x="333.544922" xlink:href="#i"/>
<use x="394.824219" xlink:href="#l"/>
</g>
</g>
<path d="m780.21 663.73v33.808q0 2.4 2.4 2.4h7.7425q2.4 0 2.4-2.4v-33.808q0-2.4-2.4-2.4h-7.7425q-2.4 0-2.4 2.4z" clip-path="url(#a)" fill="#fff" stroke="#fff"/>
<g clip-path="url(#a)">
<g transform="translate(784.28 663.73) rotate(90) scale(.08 -.08)">
<use xlink:href="#k"/>
<use x="44.083984" xlink:href="#d"/>
<use x="105.607422" xlink:href="#h"/>
<use x="144.970703" xlink:href="#j"/>
<use x="242.382812" xlink:href="#g"/>
<use x="270.166016" xlink:href="#f"/>
<use x="333.544922" xlink:href="#i"/>
<use x="394.824219" xlink:href="#l"/>
</g>
</g>
<path d="m935.14 694.83 28.797-17.712q2.0443-1.2574 0.78692-3.3016l-4.0563-6.5949q-1.2574-2.0443-3.3016-0.78692l-28.797 17.712q-2.0443 1.2574-0.78692 3.3016l4.0563 6.5949q1.2574 2.0443 3.3016 0.78692z" clip-path="url(#a)" fill="#fff" stroke="#fff"/>
<g clip-path="url(#a)">
<g transform="translate(933.02 691.37) rotate(-31.594) scale(.08 -.08)">
<use xlink:href="#k"/>
<use x="44.083984" xlink:href="#d"/>
<use x="105.607422" xlink:href="#h"/>
<use x="144.970703" xlink:href="#j"/>
<use x="242.382812" xlink:href="#g"/>
<use x="270.166016" xlink:href="#f"/>
<use x="333.544922" xlink:href="#i"/>
<use x="394.824219" xlink:href="#l"/>
</g>
</g>
<path d="m1115.7 677.12 28.797 17.712q2.0443 1.2574 3.3016-0.78692l4.0563-6.5949q1.2574-2.0443-0.78692-3.3016l-28.797-17.712q-2.0443-1.2574-3.3016 0.78692l-4.0563 6.5949q-1.2574 2.0443 0.78692 3.3016z" clip-path="url(#a)" fill="#fff" stroke="#fff"/>
<g clip-path="url(#a)">
<g transform="translate(1117.8 673.66) rotate(31.594) scale(.08 -.08)">
<use xlink:href="#k"/>
<use x="44.083984" xlink:href="#d"/>
<use x="105.607422" xlink:href="#h"/>
<use x="144.970703" xlink:href="#j"/>
<use x="242.382812" xlink:href="#g"/>
<use x="270.166016" xlink:href="#f"/>
<use x="333.544922" xlink:href="#i"/>
<use x="394.824219" xlink:href="#l"/>
</g>
</g>
<path d="m915.52 663.73v33.808q0 2.4 2.4 2.4h7.7425q2.4 0 2.4-2.4v-33.808q0-2.4-2.4-2.4h-7.7425q-2.4 0-2.4 2.4z" clip-path="url(#a)" fill="#fff" stroke="#fff"/>
<g clip-path="url(#a)">
<g transform="translate(919.58 663.73) rotate(90) scale(.08 -.08)">
<use xlink:href="#k"/>
<use x="44.083984" xlink:href="#d"/>
<use x="105.607422" xlink:href="#h"/>
<use x="144.970703" xlink:href="#j"/>
<use x="242.382812" xlink:href="#g"/>
<use x="270.166016" xlink:href="#f"/>
<use x="333.544922" xlink:href="#i"/>
<use x="394.824219" xlink:href="#l"/>
</g>
</g>
<path d="m1035.4 570.49 3.0283-4.6615q1.3075-2.0126-0.70513-3.3201l-6.4927-4.2179q-2.0126-1.3075-3.3201 0.70513l-3.0283 4.6615q-1.3075 2.0126 0.70513 3.3201l6.4927 4.2179q2.0126 1.3075 3.3201-0.70513z" clip-path="url(#a)" fill="#fff" stroke="#fff"/>
<g clip-path="url(#a)">
<defs>
<path id="aq" d="m44.391 34.188q3.1719-1.0781 6.1719-4.5938t6.0312-9.6719l10.016-19.922h-10.609l-9.3125 18.703q-3.625 7.3281-7.0156 9.7188t-9.25 2.3906h-10.75v-30.812h-9.8594v72.906h22.266q12.5 0 18.656-5.2344 6.1562-5.2188 6.1562-15.766 0-6.8906-3.2031-11.438-3.2031-4.5312-9.2969-6.2812zm-24.719 30.609v-25.875h12.406q7.125 0 10.766 3.2969t3.6406 9.6875-3.6406 9.6406-10.766 3.25z"/>
</defs>
<g transform="translate(1032 568.28) rotate(-56.991) scale(.08 -.08)">
<use xlink:href="#aq"/>
</g>
</g>
<path d="m1075.3 567.32 0.041567-5.0548q0.019736-2.3999-2.3802-2.4197l-7.7422-0.063667q-2.3999-0.019736-2.4197 2.3802l-0.041567 5.0548q-0.019735 2.3999 2.3802 2.4197l7.7422 0.063667q2.3999 0.019736 2.4197-2.3802z" clip-path="url(#a)" fill="#fff" stroke="#fff"/>
<g clip-path="url(#a)">
<defs>
<path id="an" d="m9.8125 72.906h46.094v-8.3125h-36.234v-21.578h34.719v-8.2969h-34.719v-26.422h37.109v-8.2969h-46.969z"/>
</defs>
<g transform="translate(1071.3 567.29) rotate(-89.529) scale(.08 -.08)">
<use xlink:href="#an"/>
</g>
</g>
<path d="m1101.2 565.86 3.0702 4.6669q1.319 2.005 3.3241 0.68599l6.4683-4.2553q2.005-1.319 0.68599-3.3241l-3.0702-4.6669q-1.319-2.005-3.3241-0.68599l-6.4683 4.2553q-2.005 1.319-0.68599 3.3241z" clip-path="url(#a)" fill="#fff" stroke="#fff"/>
<g clip-path="url(#a)">
<defs>
<path id="ab" d="m64.406 67.281v-10.391q-4.9844 4.6406-10.625 6.9219-5.6406 2.2969-11.984 2.2969-12.5 0-19.141-7.6406t-6.6406-22.094q0-14.406 6.6406-22.047t19.141-7.6406q6.3438 0 11.984 2.2969t10.625 6.9375v-10.312q-5.1719-3.5156-10.969-5.2812-5.7812-1.75-12.219-1.75-16.562 0-26.094 10.125-9.5156 10.141-9.5156 27.672 0 17.578 9.5156 27.703 9.5312 10.141 26.094 10.141 6.5312 0 12.312-1.7344 5.7969-1.7344 10.875-5.2031z"/>
</defs>
<g transform="translate(1104.6 563.62) rotate(56.66) scale(.08 -.08)">
<use xlink:href="#ab"/>
</g>
</g>
<path d="m987.49 663.73v33.808q0 2.4 2.4 2.4h7.7425q2.4 0 2.4-2.4v-33.808q0-2.4-2.4-2.4h-7.7425q-2.4 0-2.4 2.4z" clip-path="url(#a)" fill="#fff" stroke="#fff"/>
<g clip-path="url(#a)">
<g transform="translate(991.55 663.73) rotate(90) scale(.08 -.08)">
<use xlink:href="#k"/>
<use x="44.083984" xlink:href="#d"/>
<use x="105.607422" xlink:href="#h"/>
<use x="144.970703" xlink:href="#j"/>
<use x="242.382812" xlink:href="#g"/>
<use x="270.166016" xlink:href="#f"/>
<use x="333.544922" xlink:href="#i"/>
<use x="394.824219" xlink:href="#l"/>
</g>
</g>
<path d="m1062.3 663.73v33.808q0 2.4 2.4 2.4h7.7425q2.4 0 2.4-2.4v-33.808q0-2.4-2.4-2.4h-7.7425q-2.4 0-2.4 2.4z" clip-path="url(#a)" fill="#fff" stroke="#fff"/>
<g clip-path="url(#a)">
<g transform="translate(1066.4 663.73) rotate(90) scale(.08 -.08)">
<use xlink:href="#k"/>
<use x="44.083984" xlink:href="#d"/>
<use x="105.607422" xlink:href="#h"/>
<use x="144.970703" xlink:href="#j"/>
<use x="242.382812" xlink:href="#g"/>
<use x="270.166016" xlink:href="#f"/>
<use x="333.544922" xlink:href="#i"/>
<use x="394.824219" xlink:href="#l"/>
</g>
</g>
<path d="m1140.1 663.73v33.808q0 2.4 2.4 2.4h7.7425q2.4 0 2.4-2.4v-33.808q0-2.4-2.4-2.4h-7.7425q-2.4 0-2.4 2.4z" clip-path="url(#a)" fill="#fff" stroke="#fff"/>
<g clip-path="url(#a)">
<g transform="translate(1144.1 663.73) rotate(90) scale(.08 -.08)">
<use xlink:href="#k"/>
<use x="44.083984" xlink:href="#d"/>
<use x="105.607422" xlink:href="#h"/>
<use x="144.970703" xlink:href="#j"/>
<use x="242.382812" xlink:href="#g"/>
<use x="270.166016" xlink:href="#f"/>
<use x="333.544922" xlink:href="#i"/>
<use x="394.824219" xlink:href="#l"/>
</g>
</g>
<path d="m397.33 663.73v33.808q0 2.4 2.4 2.4h7.7425q2.4 0 2.4-2.4v-33.808q0-2.4-2.4-2.4h-7.7425q-2.4 0-2.4 2.4z" clip-path="url(#a)" fill="#fff" stroke="#fff"/>
<g clip-path="url(#a)">
<g transform="translate(401.4 663.73) rotate(90) scale(.08 -.08)">
<use xlink:href="#k"/>
<use x="44.083984" xlink:href="#d"/>
<use x="105.607422" xlink:href="#h"/>
<use x="144.970703" xlink:href="#j"/>
<use x="242.382812" xlink:href="#g"/>
<use x="270.166016" xlink:href="#f"/>
<use x="333.544922" xlink:href="#i"/>
<use x="394.824219" xlink:href="#l"/>
</g>
</g>
<path d="m443.4 663.73v33.808q0 2.4 2.4 2.4h7.7425q2.4 0 2.4-2.4v-33.808q0-2.4-2.4-2.4h-7.7425q-2.4 0-2.4 2.4z" clip-path="url(#a)" fill="#fff" stroke="#fff"/>
<g clip-path="url(#a)">
<g transform="translate(447.46 663.73) rotate(90) scale(.08 -.08)">
<use xlink:href="#k"/>
<use x="44.083984" xlink:href="#d"/>
<use x="105.607422" xlink:href="#h"/>
<use x="144.970703" xlink:href="#j"/>
<use x="242.382812" xlink:href="#g"/>
<use x="270.166016" xlink:href="#f"/>
<use x="333.544922" xlink:href="#i"/>
<use x="394.824219" xlink:href="#l"/>
</g>
</g>
<path d="m492.33 663.73v33.808q0 2.4 2.4 2.4h7.7425q2.4 0 2.4-2.4v-33.808q0-2.4-2.4-2.4h-7.7425q-2.4 0-2.4 2.4z" clip-path="url(#a)" fill="#fff" stroke="#fff"/>
<g clip-path="url(#a)">
<g transform="translate(496.4 663.73) rotate(90) scale(.08 -.08)">
<use xlink:href="#k"/>
<use x="44.083984" xlink:href="#d"/>
<use x="105.607422" xlink:href="#h"/>
<use x="144.970703" xlink:href="#j"/>
<use x="242.382812" xlink:href="#g"/>
<use x="270.166016" xlink:href="#f"/>
<use x="333.544922" xlink:href="#i"/>
<use x="394.824219" xlink:href="#l"/>
</g>
</g>
<path d="m544.15 663.73v33.808q0 2.4 2.4 2.4h7.7425q2.4 0 2.4-2.4v-33.808q0-2.4-2.4-2.4h-7.7425q-2.4 0-2.4 2.4z" clip-path="url(#a)" fill="#fff" stroke="#fff"/>
<g clip-path="url(#a)">
<g transform="translate(548.22 663.73) rotate(90) scale(.08 -.08)">
<use xlink:href="#k"/>
<use x="44.083984" xlink:href="#d"/>
<use x="105.607422" xlink:href="#h"/>
<use x="144.970703" xlink:href="#j"/>
<use x="242.382812" xlink:href="#g"/>
<use x="270.166016" xlink:href="#f"/>
<use x="333.544922" xlink:href="#i"/>
<use x="394.824219" xlink:href="#l"/>
</g>
</g>
<path d="m598.85 663.73v33.808q0 2.4 2.4 2.4h7.7425q2.4 0 2.4-2.4v-33.808q0-2.4-2.4-2.4h-7.7425q-2.4 0-2.4 2.4z" clip-path="url(#a)" fill="#fff" stroke="#fff"/>
<g clip-path="url(#a)">
<g transform="translate(602.91 663.73) rotate(90) scale(.08 -.08)">
<use xlink:href="#k"/>
<use x="44.083984" xlink:href="#d"/>
<use x="105.607422" xlink:href="#h"/>
<use x="144.970703" xlink:href="#j"/>
<use x="242.382812" xlink:href="#g"/>
<use x="270.166016" xlink:href="#f"/>
<use x="333.544922" xlink:href="#i"/>
<use x="394.824219" xlink:href="#l"/>
</g>
</g>
<path d="m210.21 663.73v33.808q0 2.4 2.4 2.4h7.7425q2.4 0 2.4-2.4v-33.808q0-2.4-2.4-2.4h-7.7425q-2.4 0-2.4 2.4z" clip-path="url(#a)" fill="#fff" stroke="#fff"/>
<g clip-path="url(#a)">
<g transform="translate(214.28 663.73) rotate(90) scale(.08 -.08)">
<use xlink:href="#k"/>
<use x="44.083984" xlink:href="#d"/>
<use x="105.607422" xlink:href="#h"/>
<use x="144.970703" xlink:href="#j"/>
<use x="242.382812" xlink:href="#g"/>
<use x="270.166016" xlink:href="#f"/>
<use x="333.544922" xlink:href="#i"/>
<use x="394.824219" xlink:href="#l"/>
</g>
</g>
<path d="m241.88 663.73v33.808q0 2.4 2.4 2.4h7.7425q2.4 0 2.4-2.4v-33.808q0-2.4-2.4-2.4h-7.7425q-2.4 0-2.4 2.4z" clip-path="url(#a)" fill="#fff" stroke="#fff"/>
<g clip-path="url(#a)">
<g transform="translate(245.94 663.73) rotate(90) scale(.08 -.08)">
<use xlink:href="#k"/>
<use x="44.083984" xlink:href="#d"/>
<use x="105.607422" xlink:href="#h"/>
<use x="144.970703" xlink:href="#j"/>
<use x="242.382812" xlink:href="#g"/>
<use x="270.166016" xlink:href="#f"/>
<use x="333.544922" xlink:href="#i"/>
<use x="394.824219" xlink:href="#l"/>
</g>
</g>
<path d="m297.84 568.23 0.80037-4.9912q0.38-2.3697-1.9897-2.7497l-7.6448-1.2259q-2.3697-0.38-2.7497 1.9897l-0.80037 4.9912q-0.38 2.3697 1.9897 2.7497l7.6448 1.2259q2.3697 0.38 2.7497-1.9897z" clip-path="url(#a)" fill="#fff" stroke="#fff"/>
<g clip-path="url(#a)">
<g transform="translate(293.83 567.59) rotate(-80.89) scale(.08 -.08)">
<use xlink:href="#an"/>
</g>
</g>
<path d="m304.13 562.98 0.88448 5.5158q0.38 2.3697 2.7497 1.9897l7.6448-1.2259q2.3697-0.38 1.9897-2.7497l-0.88448-5.5158q-0.38-2.3697-2.7497-1.9897l-7.6448 1.2259q-2.3697 0.38-1.9897 2.7497z" clip-path="url(#a)" fill="#fff" stroke="#fff"/>
<g clip-path="url(#a)">
<g transform="translate(308.14 562.34) rotate(80.89) scale(.08 -.08)">
<use xlink:href="#ab"/>
</g>
</g>
<path d="m276.43 663.73v33.808q0 2.4 2.4 2.4h7.7425q2.4 0 2.4-2.4v-33.808q0-2.4-2.4-2.4h-7.7425q-2.4 0-2.4 2.4z" clip-path="url(#a)" fill="#fff" stroke="#fff"/>
<g clip-path="url(#a)">
<g transform="translate(280.49 663.73) rotate(90) scale(.08 -.08)">
<use xlink:href="#k"/>
<use x="44.083984" xlink:href="#d"/>
<use x="105.607422" xlink:href="#h"/>
<use x="144.970703" xlink:href="#j"/>
<use x="242.382812" xlink:href="#g"/>
<use x="270.166016" xlink:href="#f"/>
<use x="333.544922" xlink:href="#i"/>
<use x="394.824219" xlink:href="#l"/>
</g>
</g>
<path d="m313.85 663.73v33.808q0 2.4 2.4 2.4h7.7425q2.4 0 2.4-2.4v-33.808q0-2.4-2.4-2.4h-7.7425q-2.4 0-2.4 2.4z" clip-path="url(#a)" fill="#fff" stroke="#fff"/>
<g clip-path="url(#a)">
<g transform="translate(317.91 663.73) rotate(90) scale(.08 -.08)">
<use xlink:href="#k"/>
<use x="44.083984" xlink:href="#d"/>
<use x="105.607422" xlink:href="#h"/>
<use x="144.970703" xlink:href="#j"/>
<use x="242.382812" xlink:href="#g"/>
<use x="270.166016" xlink:href="#f"/>
<use x="333.544922" xlink:href="#i"/>
<use x="394.824219" xlink:href="#l"/>
</g>
</g>
<path d="m155.52 663.73v33.808q0 2.4 2.4 2.4h7.7425q2.4 0 2.4-2.4v-33.808q0-2.4-2.4-2.4h-7.7425q-2.4 0-2.4 2.4z" clip-path="url(#a)" fill="#fff" stroke="#fff"/>
<g clip-path="url(#a)">
<g transform="translate(159.58 663.73) rotate(90) scale(.08 -.08)">
<use xlink:href="#k"/>
<use x="44.083984" xlink:href="#d"/>
<use x="105.607422" xlink:href="#h"/>
<use x="144.970703" xlink:href="#j"/>
<use x="242.382812" xlink:href="#g"/>
<use x="270.166016" xlink:href="#f"/>
<use x="333.544922" xlink:href="#i"/>
<use x="394.824219" xlink:href="#l"/>
</g>
</g>
<path d="m60.517 663.73v33.808q0 2.4 2.4 2.4h7.7425q2.4 0 2.4-2.4v-33.808q0-2.4-2.4-2.4h-7.7425q-2.4 0-2.4 2.4z" clip-path="url(#a)" fill="#fff" stroke="#fff"/>
<g clip-path="url(#a)">
<g transform="translate(64.58 663.73) rotate(90) scale(.08 -.08)">
<use xlink:href="#k"/>
<use x="44.083984" xlink:href="#d"/>
<use x="105.607422" xlink:href="#h"/>
<use x="144.970703" xlink:href="#j"/>
<use x="242.382812" xlink:href="#g"/>
<use x="270.166016" xlink:href="#f"/>
<use x="333.544922" xlink:href="#i"/>
<use x="394.824219" xlink:href="#l"/>
</g>
</g>
<path d="m95.062 663.73v33.808q0 2.4 2.4 2.4h7.7425q2.4 0 2.4-2.4v-33.808q0-2.4-2.4-2.4h-7.7425q-2.4 0-2.4 2.4z" clip-path="url(#a)" fill="#fff" stroke="#fff"/>
<g clip-path="url(#a)">
<g transform="translate(99.126 663.73) rotate(90) scale(.08 -.08)">
<use xlink:href="#k"/>
<use x="44.083984" xlink:href="#d"/>
<use x="105.607422" xlink:href="#h"/>
<use x="144.970703" xlink:href="#j"/>
<use x="242.382812" xlink:href="#g"/>
<use x="270.166016" xlink:href="#f"/>
<use x="333.544922" xlink:href="#i"/>
<use x="394.824219" xlink:href="#l"/>
</g>
</g>
<path d="m69.153 663.73v33.808q0 2.4 2.4 2.4h7.7425q2.4 0 2.4-2.4v-33.808q0-2.4-2.4-2.4h-7.7425q-2.4 0-2.4 2.4z" clip-path="url(#a)" fill="#fff" stroke="#fff"/>
<g clip-path="url(#a)">
<g transform="translate(73.217 663.73) rotate(90) scale(.08 -.08)">
<use xlink:href="#k"/>
<use x="44.083984" xlink:href="#d"/>
<use x="105.607422" xlink:href="#h"/>
<use x="144.970703" xlink:href="#j"/>
<use x="242.382812" xlink:href="#g"/>
<use x="270.166016" xlink:href="#f"/>
<use x="333.544922" xlink:href="#i"/>
<use x="394.824219" xlink:href="#l"/>
</g>
</g>
<path d="m112.33 663.73v33.808q0 2.4 2.4 2.4h7.7425q2.4 0 2.4-2.4v-33.808q0-2.4-2.4-2.4h-7.7425q-2.4 0-2.4 2.4z" clip-path="url(#a)" fill="#fff" stroke="#fff"/>
<g clip-path="url(#a)">
<g transform="translate(116.4 663.73) rotate(90) scale(.08 -.08)">
<use xlink:href="#k"/>
<use x="44.083984" xlink:href="#d"/>
<use x="105.607422" xlink:href="#h"/>
<use x="144.970703" xlink:href="#j"/>
<use x="242.382812" xlink:href="#g"/>
<use x="270.166016" xlink:href="#f"/>
<use x="333.544922" xlink:href="#i"/>
<use x="394.824219" xlink:href="#l"/>
</g>
</g>
<path d="m181.43 663.73v33.808q0 2.4 2.4 2.4h7.7425q2.4 0 2.4-2.4v-33.808q0-2.4-2.4-2.4h-7.7425q-2.4 0-2.4 2.4z" clip-path="url(#a)" fill="#fff" stroke="#fff"/>
<g clip-path="url(#a)">
<g transform="translate(185.49 663.73) rotate(90) scale(.08 -.08)">
<use xlink:href="#k"/>
<use x="44.083984" xlink:href="#d"/>
<use x="105.607422" xlink:href="#h"/>
<use x="144.970703" xlink:href="#j"/>
<use x="242.382812" xlink:href="#g"/>
<use x="270.166016" xlink:href="#f"/>
<use x="333.544922" xlink:href="#i"/>
<use x="394.824219" xlink:href="#l"/>
</g>
</g>
<path d="m354.15 663.73v33.808q0 2.4 2.4 2.4h7.7425q2.4 0 2.4-2.4v-33.808q0-2.4-2.4-2.4h-7.7425q-2.4 0-2.4 2.4z" clip-path="url(#a)" fill="#fff" stroke="#fff"/>
<g clip-path="url(#a)">
<g transform="translate(358.22 663.73) rotate(90) scale(.08 -.08)">
<use xlink:href="#k"/>
<use x="44.083984" xlink:href="#d"/>
<use x="105.607422" xlink:href="#h"/>
<use x="144.970703" xlink:href="#j"/>
<use x="242.382812" xlink:href="#g"/>
<use x="270.166016" xlink:href="#f"/>
<use x="333.544922" xlink:href="#i"/>
<use x="394.824219" xlink:href="#l"/>
</g>
</g>
<path d="m656.43 663.73v33.808q0 2.4 2.4 2.4h7.7425q2.4 0 2.4-2.4v-33.808q0-2.4-2.4-2.4h-7.7425q-2.4 0-2.4 2.4z" clip-path="url(#a)" fill="#fff" stroke="#fff"/>
<g clip-path="url(#a)">
<g transform="translate(660.49 663.73) rotate(90) scale(.08 -.08)">
<use xlink:href="#k"/>
<use x="44.083984" xlink:href="#d"/>
<use x="105.607422" xlink:href="#h"/>
<use x="144.970703" xlink:href="#j"/>
<use x="242.382812" xlink:href="#g"/>
<use x="270.166016" xlink:href="#f"/>
<use x="333.544922" xlink:href="#i"/>
<use x="394.824219" xlink:href="#l"/>
</g>
</g>
<path d="m1304.2 663.73v33.808q0 2.4 2.4 2.4h7.7425q2.4 0 2.4-2.4v-33.808q0-2.4-2.4-2.4h-7.7425q-2.4 0-2.4 2.4z" clip-path="url(#a)" fill="#fff" stroke="#fff"/>
<g clip-path="url(#a)">
<g transform="translate(1308.2 663.73) rotate(90) scale(.08 -.08)">
<use xlink:href="#k"/>
<use x="44.083984" xlink:href="#d"/>
<use x="105.607422" xlink:href="#h"/>
<use x="144.970703" xlink:href="#j"/>
<use x="242.382812" xlink:href="#g"/>
<use x="270.166016" xlink:href="#f"/>
<use x="333.544922" xlink:href="#i"/>
<use x="394.824219" xlink:href="#l"/>
</g>
</g>
<path d="m1390.5 663.73v33.808q0 2.4 2.4 2.4h7.7425q2.4 0 2.4-2.4v-33.808q0-2.4-2.4-2.4h-7.7425q-2.4 0-2.4 2.4z" clip-path="url(#a)" fill="#fff" stroke="#fff"/>
<g clip-path="url(#a)">
<g transform="translate(1394.6 663.73) rotate(90) scale(.08 -.08)">
<use xlink:href="#k"/>
<use x="44.083984" xlink:href="#d"/>
<use x="105.607422" xlink:href="#h"/>
<use x="144.970703" xlink:href="#j"/>
<use x="242.382812" xlink:href="#g"/>
<use x="270.166016" xlink:href="#f"/>
<use x="333.544922" xlink:href="#i"/>
<use x="394.824219" xlink:href="#l"/>
</g>
</g>
<defs>
<path id="b" d="m0 8.6603c2.2967 0 4.4997-0.9125 6.1237-2.5365 1.624-1.624 2.5365-3.827 2.5365-6.1237s-0.9125-4.4997-2.5365-6.1237c-1.624-1.624-3.827-2.5365-6.1237-2.5365s-4.4997 0.9125-6.1237 2.5365c-1.624 1.624-2.5365 3.827-2.5365 6.1237s0.9125 4.4997 2.5365 6.1237c1.624 1.624 3.827 2.5365 6.1237 2.5365z"/>
</defs>
<g clip-path="url(#a)" fill="#ffffff" stroke="#ffffff">
<use x="66.787879" y="738.181818" xlink:href="#b"/>
<use x="75.424242" y="738.181818" xlink:href="#b"/>
<use x="86.939394" y="738.181818" xlink:href="#b"/>
<use x="101.333333" y="738.181818" xlink:href="#b"/>
<use x="118.606061" y="738.181818" xlink:href="#b"/>
<use x="138.757576" y="738.181818" xlink:href="#b"/>
<use x="161.787879" y="738.181818" xlink:href="#b"/>
<use x="187.69697" y="738.181818" xlink:href="#b"/>
<use x="216.484848" y="738.181818" xlink:href="#b"/>
<use x="248.151515" y="738.181818" xlink:href="#b"/>
<use x="282.69697" y="738.181818" xlink:href="#b"/>
<use x="320.121212" y="738.181818" xlink:href="#b"/>
<use x="360.424242" y="738.181818" xlink:href="#b"/>
<use x="403.606061" y="738.181818" xlink:href="#b"/>
<use x="449.666667" y="738.181818" xlink:href="#b"/>
<use x="498.606061" y="738.181818" xlink:href="#b"/>
<use x="550.424242" y="738.181818" xlink:href="#b"/>
<use x="605.121212" y="738.181818" xlink:href="#b"/>
<use x="662.69697" y="738.181818" xlink:href="#b"/>
<use x="723.151515" y="738.181818" xlink:href="#b"/>
<use x="786.484848" y="738.181818" xlink:href="#b"/>
<use x="852.69697" y="738.181818" xlink:href="#b"/>
<use x="921.787879" y="738.181818" xlink:href="#b"/>
<use x="993.757576" y="738.181818" xlink:href="#b"/>
<use x="1068.606061" y="738.181818" xlink:href="#b"/>
<use x="1146.333333" y="738.181818" xlink:href="#b"/>
<use x="1226.939394" y="738.181818" xlink:href="#b"/>
<use x="1310.424242" y="738.181818" xlink:href="#b"/>
<use x="1396.787879" y="738.181818" xlink:href="#b"/>
<use x="1402.545455" y="271.391464" xlink:href="#b"/>
<use x="1402.545455" y="271.391464" xlink:href="#b"/>
<use x="312.522697" y="35.151515" xlink:href="#b"/>
<use x="312.522697" y="153.390406" xlink:href="#b"/>
<use x="312.522697" y="271.391464" xlink:href="#b"/>
<use x="86.939394" y="623.09084" xlink:href="#b"/>
<use x="221.522727" y="506.398819" xlink:href="#b"/>
<use x="138.757576" y="623.09084" xlink:href="#b"/>
<use x="226.848485" y="506.398819" xlink:href="#b"/>
<use x="255.348485" y="389.094759" xlink:href="#b"/>
<use x="501.484848" y="506.398819" xlink:href="#b"/>
<use x="1035.431457" y="389.094759" xlink:href="#b"/>
<use x="723.151515" y="623.09084" xlink:href="#b"/>
<use x="786.484848" y="623.09084" xlink:href="#b"/>
<use x="1039.818182" y="623.09084" xlink:href="#b"/>
<use x="921.787879" y="623.09084" xlink:href="#b"/>
<use x="1069.565657" y="506.398819" xlink:href="#b"/>
<use x="993.757576" y="623.09084" xlink:href="#b"/>
<use x="1068.606061" y="623.09084" xlink:href="#b"/>
<use x="1146.333333" y="623.09084" xlink:href="#b"/>
<use x="403.606061" y="623.09084" xlink:href="#b"/>
<use x="449.666667" y="623.09084" xlink:href="#b"/>
<use x="498.606061" y="623.09084" xlink:href="#b"/>
<use x="550.424242" y="623.09084" xlink:href="#b"/>
<use x="605.121212" y="623.09084" xlink:href="#b"/>
<use x="216.484848" y="623.09084" xlink:href="#b"/>
<use x="248.151515" y="623.09084" xlink:href="#b"/>
<use x="301.409091" y="506.398819" xlink:href="#b"/>
<use x="282.69697" y="623.09084" xlink:href="#b"/>
<use x="320.121212" y="623.09084" xlink:href="#b"/>
<use x="161.787879" y="623.09084" xlink:href="#b"/>
<use x="66.787879" y="623.09084" xlink:href="#b"/>
<use x="101.333333" y="623.09084" xlink:href="#b"/>
<use x="75.424242" y="623.09084" xlink:href="#b"/>
<use x="118.606061" y="623.09084" xlink:href="#b"/>
<use x="187.69697" y="623.09084" xlink:href="#b"/>
<use x="360.424242" y="623.09084" xlink:href="#b"/>
<use x="662.69697" y="623.09084" xlink:href="#b"/>
<use x="1310.424242" y="623.09084" xlink:href="#b"/>
<use x="1396.787879" y="623.09084" xlink:href="#b"/>
</g>
<g clip-path="url(#a)">
<defs>
<path id="as" d="m4.8906 31.391h26.312v-8h-26.312z"/>
</defs>
<g transform="translate(64.984 740.94) scale(.1 -.1)">
<use xlink:href="#as"/>
</g>
</g>
<g clip-path="url(#a)">
<defs>
<path id="ap" d="m17.922 72.906v-27.109h-8.2969v27.109zm18.453 0v-27.109h-8.2969v27.109z"/>
</defs>
<g transform="translate(73.124 740.94) scale(.1 -.1)">
<use xlink:href="#ap"/>
</g>
</g>
<g clip-path="url(#a)">
<defs>
<path id="z" d="m48.688 27.297q0 9.9062-4.0781 15.547t-11.203 5.6406q-7.1406 0-11.219-5.6406t-4.0781-15.547 4.0781-15.547 11.219-5.6406q7.125 0 11.203 5.6406t4.0781 15.547zm-30.578 19.094q2.8438 4.875 7.1562 7.2344 4.3281 2.375 10.328 2.375 9.9688 0 16.188-7.9062 6.2344-7.9062 6.2344-20.797t-6.2344-20.812q-6.2188-7.9062-16.188-7.9062-6 0-10.328 2.375-4.3125 2.375-7.1562 7.25v-8.2031h-9.0312v75.984h9.0312z"/>
</defs>
<g transform="translate(75.213 740.94) scale(.1 -.1)">
<use xlink:href="#m"/>
<use x="68.408203" xlink:href="#z"/>
<use x="131.884766" xlink:href="#d"/>
<use x="193.408203" xlink:href="#h"/>
</g>
</g>
<g clip-path="url(#a)">
<g transform="translate(90.53 740.94) scale(.1 -.1)">
<use xlink:href="#f"/>
<use x="63.378906" xlink:href="#d"/>
<use x="124.902344" xlink:href="#g"/>
<use x="152.685547" xlink:href="#f"/>
</g>
</g>
<g clip-path="url(#a)">
<defs>
<path id="af" d="m15.094 12.406h9.9062v-12.406h-9.9062zm0 60.5h9.9062v-31.984l-0.96875-17.438h-7.9219l-1.0156 17.438z"/>
</defs>
<g transform="translate(116.6 740.94) scale(.1 -.1)">
<use xlink:href="#af"/>
</g>
</g>
<g clip-path="url(#a)">
<g transform="translate(127.03 740.94) scale(.1 -.1)">
<use xlink:href="#m"/>
<use x="68.408203" xlink:href="#z"/>
<use x="131.884766" xlink:href="#d"/>
<use x="193.408203" xlink:href="#h"/>
</g>
</g>
<g clip-path="url(#a)">
<g transform="translate(150.98 740.94) scale(.1 -.1)">
<use xlink:href="#f"/>
<use x="63.378906" xlink:href="#d"/>
<use x="124.902344" xlink:href="#g"/>
<use x="152.685547" xlink:href="#f"/>
</g>
</g>
<g clip-path="url(#a)">
<g transform="translate(185.69 740.94) scale(.1 -.1)">
<use xlink:href="#af"/>
</g>
</g>
<g clip-path="url(#a)">
<defs>
<path id="q" d="m9.8125 72.906h9.8594v-72.906h-9.8594z"/>
<path id="t" d="m48.781 52.594v-8.4062q-3.8125 2.1094-7.6406 3.1562t-7.7344 1.0469q-8.75 0-13.594-5.5469-4.8281-5.5312-4.8281-15.547t4.8281-15.562q4.8438-5.5312 13.594-5.5312 3.9062 0 7.7344 1.0469t7.6406 3.1562v-8.3125q-3.7656-1.75-7.7969-2.625-4.0156-0.89062-8.5625-0.89062-12.359 0-19.641 7.7656-7.2656 7.7656-7.2656 20.953 0 13.375 7.3438 21.031 7.3594 7.6719 20.156 7.6719 4.1406 0 8.0938-0.85938 3.9531-0.84375 7.6719-2.5469z"/>
<path id="s" d="m54.891 33.016v-33.016h-8.9844v32.719q0 7.7656-3.0312 11.609-3.0312 3.8594-9.0781 3.8594-7.2812 0-11.484-4.6406-4.2031-4.625-4.2031-12.641v-30.906h-9.0312v75.984h9.0312v-29.797q3.2344 4.9375 7.5938 7.375 4.375 2.4375 10.094 2.4375 9.4219 0 14.25-5.8281 4.8438-5.8281 4.8438-17.156z"/>
</defs>
<g transform="translate(209.09 740.94) scale(.1 -.1)">
<use xlink:href="#q"/>
<use x="29.492188" xlink:href="#t"/>
<use x="84.472656" xlink:href="#s"/>
</g>
</g>
<g clip-path="url(#a)">
<defs>
<path id="w" d="m45.406 27.984q0 9.7656-4.0312 15.125-4.0156 5.375-11.297 5.375-7.2188 0-11.25-5.375-4.0312-5.3594-4.0312-15.125 0-9.7188 4.0312-15.094t11.25-5.375q7.2812 0 11.297 5.375 4.0312 5.375 4.0312 15.094zm8.9844-21.203q0-13.953-6.2031-20.766-6.1875-6.8125-18.984-6.8125-4.7344 0-8.9375 0.70312t-8.1562 2.1719v8.7344q3.9531-2.1406 7.8125-3.1562 3.8594-1.0312 7.8594-1.0312 8.8438 0 13.234 4.6094t4.3906 13.938v4.4531q-2.7812-4.8438-7.125-7.2344t-10.406-2.3906q-10.047 0-16.203 7.6562-6.1562 7.6719-6.1562 20.328 0 12.688 6.1562 20.344 6.1562 7.6719 16.203 7.6719 6.0625 0 10.406-2.3906t7.125-7.2188v8.2969h8.9844z"/>
<path id="ag" d="m8.5 21.578v33.109h8.9844v-32.766q0-7.7656 3.0156-11.656 3.0312-3.875 9.0938-3.875 7.2656 0 11.484 4.6406 4.2344 4.6406 4.2344 12.656v31h8.9844v-54.688h-8.9844v8.4062q-3.2656-4.9844-7.5938-7.4062-4.3125-2.4219-10.031-2.4219-9.4219 0-14.312 5.8594-4.875 5.8594-4.875 17.141z"/>
</defs>
<g transform="translate(231.1 740.94) scale(.1 -.1)">
<use xlink:href="#w"/>
<use x="63.476562" xlink:href="#l"/>
<use x="91.259766" xlink:href="#i"/>
<use x="152.539062" xlink:href="#ag"/>
<use x="215.917969" xlink:href="#z"/>
<use x="279.394531" xlink:href="#d"/>
</g>
</g>
<g clip-path="url(#a)">
<g transform="translate(274.4 740.94) scale(.1 -.1)">
<use xlink:href="#w"/>
<use x="63.476562" xlink:href="#i"/>
<use x="124.755859" xlink:href="#h"/>
</g>
</g>
<g clip-path="url(#a)">
<defs>
<path id="y" d="m18.312 70.219v-15.531h18.5v-6.9844h-18.5v-29.688q0-6.6875 1.8281-8.5938t7.4531-1.9062h9.2188v-7.5156h-9.2188q-10.406 0-14.359 3.875-3.9531 3.8906-3.9531 14.141v29.688h-6.5938v6.9844h6.5938v15.531z"/>
<path id="ah" d="m44.281 53.078v-8.5q-3.7969 1.9531-7.9062 2.9219-4.0938 0.98438-8.5 0.98438-6.6875 0-10.031-2.0469t-3.3438-6.1562q0-3.125 2.3906-4.9062t9.625-3.3906l3.0781-0.6875q9.5625-2.0469 13.594-5.7812t4.0312-10.422q0-7.625-6.0312-12.078-6.0312-4.4375-16.578-4.4375-4.3906 0-9.1562 0.85938t-10.031 2.5625v9.2812q4.9844-2.5938 9.8125-3.8906 4.8281-1.2812 9.5781-1.2812 6.3438 0 9.75 2.1719 3.4219 2.1719 3.4219 6.125 0 3.6562-2.4688 5.6094-2.4531 1.9531-10.812 3.7656l-3.125 0.73438q-8.3438 1.75-12.062 5.3906-3.7031 3.6406-3.7031 9.9844 0 7.7188 5.4688 11.906 5.4688 4.2031 15.531 4.2031 4.9688 0 9.3594-0.73438 4.4062-0.71875 8.1094-2.1875z"/>
</defs>
<g transform="translate(305.08 740.94) scale(.1 -.1)">
<use xlink:href="#f"/>
<use x="63.378906" xlink:href="#g"/>
<use x="91.162109" xlink:href="#t"/>
<use x="146.142578" xlink:href="#s"/>
<use x="209.521484" xlink:href="#y"/>
<use x="248.730469" xlink:href="#ah"/>
</g>
</g>
<g clip-path="url(#a)">
<g transform="translate(358.42 740.94) scale(.1 -.1)">
<use xlink:href="#af"/>
</g>
</g>
<g clip-path="url(#a)">
<g transform="translate(396.21 740.94) scale(.1 -.1)">
<use xlink:href="#q"/>
<use x="29.492188" xlink:href="#t"/>
<use x="84.472656" xlink:href="#s"/>
</g>
</g>
<g clip-path="url(#a)">
<g transform="translate(437.18 740.94) scale(.1 -.1)">
<use xlink:href="#s"/>
<use x="63.378906" xlink:href="#i"/>
<use x="124.658203" xlink:href="#z"/>
<use x="188.134766" xlink:href="#d"/>
</g>
</g>
<g clip-path="url(#a)">
<g transform="translate(490.21 740.94) scale(.1 -.1)">
<use xlink:href="#f"/>
<use x="63.378906" xlink:href="#ag"/>
<use x="126.757812" xlink:href="#h"/>
</g>
</g>
<g clip-path="url(#a)">
<defs>
<path id="ax" d="m45.406 46.391v29.594h8.9844v-75.984h-8.9844v8.2031q-2.8281-4.875-7.1562-7.25-4.3125-2.375-10.375-2.375-9.9062 0-16.141 7.9062-6.2188 7.9219-6.2188 20.812t6.2188 20.797q6.2344 7.9062 16.141 7.9062 6.0625 0 10.375-2.375 4.3281-2.3594 7.1562-7.2344zm-30.609-19.094q0-9.9062 4.0781-15.547t11.203-5.6406 11.219 5.6406q4.1094 5.6406 4.1094 15.547t-4.1094 15.547q-4.0938 5.6406-11.219 5.6406t-11.203-5.6406-4.0781-15.547z"/>
<path id="al" d="m4.2031 54.688h8.9844l11.234-42.672 11.172 42.672h10.594l11.234-42.672 11.188 42.672h8.9844l-14.312-54.688h-10.594l-11.766 44.828-11.812-44.828h-10.609z"/>
</defs>
<g transform="translate(524.72 740.94) scale(.1 -.1)">
<use xlink:href="#g"/>
<use x="27.783203" xlink:href="#h"/>
<use x="67.146484" xlink:href="#w"/>
<use x="130.623047" xlink:href="#d"/>
<use x="192.146484" xlink:href="#f"/>
<use x="255.525391" xlink:href="#ax"/>
<use x="319.001953" xlink:href="#al"/>
<use x="400.789062" xlink:href="#i"/>
<use x="462.068359" xlink:href="#ah"/>
</g>
</g>
<g clip-path="url(#a)">
<defs>
<path id="av" d="m30.609 48.391q-7.2188 0-11.422-5.6406t-4.2031-15.453 4.1719-15.453q4.1875-5.6406 11.453-5.6406 7.1875 0 11.375 5.6562 4.2031 5.6719 4.2031 15.438 0 9.7188-4.2031 15.406-4.1875 5.6875-11.375 5.6875zm0 7.6094q11.719 0 18.406-7.625 6.7031-7.6094 6.7031-21.078 0-13.422-6.7031-21.078-6.6875-7.6406-18.406-7.6406-11.766 0-18.438 7.6406-6.6562 7.6562-6.6562 21.078 0 13.469 6.6562 21.078 6.6719 7.625 18.438 7.625z"/>
</defs>
<g transform="translate(574.48 740.94) scale(.1 -.1)">
<use xlink:href="#w"/>
<use x="63.476562" xlink:href="#d"/>
<use x="125" xlink:href="#i"/>
<use x="186.279297" xlink:href="#f"/>
<use x="249.658203" xlink:href="#y"/>
<use x="288.867188" xlink:href="#al"/>
<use x="370.654297" xlink:href="#av"/>
<use x="431.835938" xlink:href="#h"/>
<use x="472.949219" xlink:href="#y"/>
<use x="512.158203" xlink:href="#d"/>
<use x="573.681641" xlink:href="#y"/>
</g>
</g>
<g clip-path="url(#a)">
<defs>
<path id="e" d="m10.688 12.406h10.312v-12.406h-10.312z"/>
</defs>
<g transform="translate(661.11 740.94) scale(.1 -.1)">
<use xlink:href="#e"/>
</g>
</g>
<g clip-path="url(#a)">
<g transform="translate(715.76 740.94) scale(.1 -.1)">
<use xlink:href="#q"/>
<use x="29.492188" xlink:href="#t"/>
<use x="84.472656" xlink:href="#s"/>
</g>
</g>
<g clip-path="url(#a)">
<g transform="translate(773.24 740.94) scale(.1 -.1)">
<use xlink:href="#j"/>
<use x="97.412109" xlink:href="#ag"/>
<use x="160.791016" xlink:href="#ah"/>
<use x="212.890625" xlink:href="#ah"/>
</g>
</g>
<g clip-path="url(#a)">
<g transform="translate(840.52 740.94) scale(.1 -.1)">
<use xlink:href="#j"/>
<use x="97.412109" xlink:href="#g"/>
<use x="125.195312" xlink:href="#t"/>
<use x="180.175781" xlink:href="#s"/>
</g>
</g>
<g clip-path="url(#a)">
<g transform="translate(912.1 740.94) scale(.1 -.1)">
<use xlink:href="#s"/>
<use x="63.378906" xlink:href="#g"/>
<use x="91.162109" xlink:href="#d"/>
<use x="152.685547" xlink:href="#h"/>
</g>
</g>
<g clip-path="url(#a)">
<g transform="translate(985.72 740.94) scale(.1 -.1)">
<use xlink:href="#ag"/>
<use x="63.378906" xlink:href="#j"/>
</g>
</g>
<g clip-path="url(#a)">
<g transform="translate(1047.6 740.94) scale(.1 -.1)">
<use xlink:href="#al"/>
<use x="81.787109" xlink:href="#g"/>
<use x="109.570312" xlink:href="#t"/>
<use x="164.550781" xlink:href="#s"/>
<use x="227.929688" xlink:href="#y"/>
<use x="267.138672" xlink:href="#g"/>
<use x="294.921875" xlink:href="#w"/>
<use x="358.398438" xlink:href="#d"/>
</g>
</g>
<g clip-path="url(#a)">
<g transform="translate(1131.7 740.94) scale(.1 -.1)">
<use xlink:href="#v"/>
<use x="77.001953" xlink:href="#g"/>
<use x="104.785156" xlink:href="#f"/>
<use x="168.164062" xlink:href="#w"/>
<use x="231.640625" xlink:href="#d"/>
</g>
</g>
<g clip-path="url(#a)">
<defs>
<path id="aw" d="m9.0781 75.984h9.0312v-44.875l26.812 23.578h11.469l-29-25.578 30.234-29.109h-11.719l-27.797 26.703v-26.703h-9.0312z"/>
<path id="at" d="m8.5 21.578v33.109h8.9844v-32.766q0-7.7656 3.0156-11.656 3.0312-3.875 9.0938-3.875 7.2656 0 11.484 4.6406 4.2344 4.6406 4.2344 12.656v31h8.9844v-54.688h-8.9844v8.4062q-3.2656-4.9844-7.5938-7.4062-4.3125-2.4219-10.031-2.4219-9.4219 0-14.312 5.8594-4.875 5.8594-4.875 17.141zm22.609 34.422m4.4844 19.781h9.9062v-9.8594h-9.9062zm-19.094 0h9.9062v-9.8594h-9.9062z"/>
</defs>
<g transform="translate(1203.1 740.94) scale(.1 -.1)">
<use xlink:href="#aw"/>
<use x="54.785156" xlink:href="#at"/>
<use x="118.164062" xlink:href="#j"/>
<use x="215.576172" xlink:href="#j"/>
<use x="312.988281" xlink:href="#d"/>
<use x="374.511719" xlink:href="#h"/>
<use x="413.875" xlink:href="#f"/>
</g>
</g>
<g clip-path="url(#a)">
<g transform="translate(1308.4 740.94) scale(.1 -.1)">
<use xlink:href="#af"/>
</g>
</g>
<g clip-path="url(#a)">
<g transform="translate(1394.5 740.94) scale(.1 -.1)">
<use xlink:href="#ap"/>
</g>
</g>
<g clip-path="url(#a)">
<defs>
<path id="am" d="m9.8125 72.906h14.703l18.594-49.609 18.703 49.609h14.703v-72.906h-9.625v64.016l-18.797-50h-9.9062l-18.797 50v-64.016h-9.5781z"/>
</defs>
<g transform="translate(1381.5 274.15) scale(.1 -.1)">
<use xlink:href="#q"/>
<use x="29.492188" xlink:href="#am"/>
<use x="115.771484" xlink:href="#x"/>
<use x="176.074219" xlink:href="#aa"/>
<use x="231.787109" xlink:href="#q"/>
<use x="261.279297" xlink:href="#ab"/>
<use x="331.103516" xlink:href="#q"/>
<use x="360.595703" xlink:href="#k"/>
</g>
</g>
<g clip-path="url(#a)">
<g transform="translate(1381.5 274.15) scale(.1 -.1)">
<use xlink:href="#q"/>
<use x="29.492188" xlink:href="#am"/>
<use x="115.771484" xlink:href="#x"/>
<use x="176.074219" xlink:href="#aa"/>
<use x="231.787109" xlink:href="#q"/>
<use x="261.279297" xlink:href="#ab"/>
<use x="331.103516" xlink:href="#q"/>
<use x="360.595703" xlink:href="#k"/>
</g>
</g>
<g clip-path="url(#a)">
<defs>
<path id="c" d="m12.406 8.2969h16.109v55.625l-17.531-3.5156v8.9844l17.438 3.5156h9.8594v-64.609h16.109v-8.2969h-41.984z"/>
</defs>
<g transform="translate(304.57 37.911) scale(.1 -.1)">
<use xlink:href="#c"/>
<use x="63.623047" xlink:href="#e"/>
<use x="95.410156" xlink:href="#c"/>
</g>
</g>
<g clip-path="url(#a)">
<defs>
<path id="n" d="m19.188 8.2969h34.422v-8.2969h-46.281v8.2969q5.6094 5.8125 15.297 15.594 9.7031 9.7969 12.188 12.641 4.7344 5.3125 6.6094 9 1.8906 3.6875 1.8906 7.25 0 5.8125-4.0781 9.4688-4.0781 3.6719-10.625 3.6719-4.6406 0-9.7969-1.6094-5.1406-1.6094-11-4.8906v9.9688q5.9531 2.3906 11.125 3.6094 5.1875 1.2188 9.4844 1.2188 11.328 0 18.062-5.6719 6.7344-5.6562 6.7344-15.125 0-4.5-1.6875-8.5312-1.6719-4.0156-6.125-9.4844-1.2188-1.4219-7.7656-8.1875-6.5312-6.7656-18.453-18.922z"/>
</defs>
<g transform="translate(304.57 156.15) scale(.1 -.1)">
<use xlink:href="#c"/>
<use x="63.623047" xlink:href="#e"/>
<use x="95.410156" xlink:href="#n"/>
</g>
</g>
<g clip-path="url(#a)">
<defs>
<path id="aj" d="m10.984 1.5156v8.9844q3.7188-1.7656 7.5156-2.6875 3.8125-0.92188 7.4844-0.92188 9.7656 0 14.906 6.5625 5.1562 6.5625 5.8906 19.953-2.8281-4.2031-7.1875-6.4531-4.3438-2.25-9.6094-2.25-10.938 0-17.312 6.6094-6.375 6.625-6.375 18.109 0 11.219 6.6406 18 6.6406 6.7969 17.672 6.7969 12.656 0 19.312-9.7031 6.6719-9.6875 6.6719-28.141 0-17.234-8.1875-27.516-8.1719-10.281-21.984-10.281-3.7188 0-7.5312 0.73438-3.7969 0.73438-7.9062 2.2031zm19.625 30.906q6.6406 0 10.516 4.5312 3.8906 4.5469 3.8906 12.469 0 7.8594-3.8906 12.422-3.875 4.5625-10.516 4.5625t-10.516-4.5625-3.875-12.422q0-7.9219 3.875-12.469 3.875-4.5312 10.516-4.5312z"/>
</defs>
<g transform="translate(304.57 274.15) scale(.1 -.1)">
<use xlink:href="#c"/>
<use x="63.623047" xlink:href="#e"/>
<use x="95.410156" xlink:href="#aj"/>
</g>
</g>
<g clip-path="url(#a)">
<defs>
<path id="ae" d="m31.781 66.406q-7.6094 0-11.453-7.5-3.8281-7.4844-3.8281-22.531 0-14.984 3.8281-22.484 3.8438-7.5 11.453-7.5 7.6719 0 11.5 7.5 3.8438 7.5 3.8438 22.484 0 15.047-3.8438 22.531-3.8281 7.5-11.5 7.5zm0 7.8125q12.266 0 18.734-9.7031 6.4688-9.6875 6.4688-28.141 0-18.406-6.4688-28.109-6.4688-9.6875-18.734-9.6875-12.25 0-18.719 9.6875-6.4688 9.7031-6.4688 28.109 0 18.453 6.4688 28.141 6.4688 9.7031 18.719 9.7031z"/>
</defs>
<g transform="translate(75.807 625.85) scale(.1 -.1)">
<use xlink:href="#c"/>
<use x="63.623047" xlink:href="#e"/>
<use x="95.410156" xlink:href="#c"/>
<use x="159.033203" xlink:href="#ae"/>
</g>
</g>
<g clip-path="url(#a)">
<g transform="translate(210.39 509.16) scale(.1 -.1)">
<use xlink:href="#c"/>
<use x="63.623047" xlink:href="#e"/>
<use x="95.410156" xlink:href="#c"/>
<use x="159.033203" xlink:href="#c"/>
</g>
</g>
<g clip-path="url(#a)">
<g transform="translate(127.62 625.85) scale(.1 -.1)">
<use xlink:href="#c"/>
<use x="63.623047" xlink:href="#e"/>
<use x="95.410156" xlink:href="#c"/>
<use x="159.033203" xlink:href="#n"/>
</g>
</g>
<g clip-path="url(#a)">
<defs>
<path id="o" d="m40.578 39.312q7.0781-1.5156 11.047-6.3125 3.9844-4.7812 3.9844-11.812 0-10.781-7.4219-16.703-7.4219-5.9062-21.094-5.9062-4.5781 0-9.4375 0.90625t-10.031 2.7188v9.5156q4.0938-2.3906 8.9688-3.6094 4.8906-1.2188 10.219-1.2188 9.2656 0 14.125 3.6562t4.8594 10.641q0 6.4531-4.5156 10.078-4.5156 3.6406-12.562 3.6406h-8.5v8.1094h8.8906q7.2656 0 11.125 2.9062t3.8594 8.375q0 5.6094-3.9844 8.6094-3.9688 3.0156-11.391 3.0156-4.0625 0-8.7031-0.89062-4.6406-0.875-10.203-2.7188v8.7812q5.625 1.5625 10.531 2.3438t9.25 0.78125q11.234 0 17.766-5.1094 6.5469-5.0938 6.5469-13.781 0-6.0625-3.4688-10.234t-9.8594-5.7812z"/>
</defs>
<g transform="translate(215.72 509.16) scale(.1 -.1)">
<use xlink:href="#c"/>
<use x="63.623047" xlink:href="#e"/>
<use x="95.410156" xlink:href="#c"/>
<use x="159.033203" xlink:href="#o"/>
</g>
</g>
<g clip-path="url(#a)">
<defs>
<path id="p" d="m37.797 64.312-24.906-38.922h24.906zm-2.5938 8.5938h12.406v-47.516h10.406v-8.2031h-10.406v-17.188h-9.8125v17.188h-32.906v9.5156z"/>
</defs>
<g transform="translate(244.22 391.85) scale(.1 -.1)">
<use xlink:href="#c"/>
<use x="63.623047" xlink:href="#e"/>
<use x="95.410156" xlink:href="#c"/>
<use x="159.033203" xlink:href="#p"/>
</g>
</g>
<g clip-path="url(#a)">
<defs>
<path id="ad" d="m10.797 72.906h38.719v-8.3125h-29.688v-17.859q2.1406 0.73438 4.2812 1.0938 2.1562 0.35938 4.3125 0.35938 12.203 0 19.328-6.6875 7.1406-6.6875 7.1406-18.109 0-11.766-7.3281-18.297-7.3281-6.5156-20.656-6.5156-4.5938 0-9.3594 0.78125-4.75 0.78125-9.8281 2.3438v9.9219q4.3906-2.3906 9.0781-3.5625t9.9062-1.1719q8.4531 0 13.375 4.4375 4.9375 4.4375 4.9375 12.062 0 7.6094-4.9375 12.047-4.9219 4.4531-13.375 4.4531-3.9531 0-7.8906-0.875-3.9219-0.875-8.0156-2.7344z"/>
</defs>
<g transform="translate(490.35 509.16) scale(.1 -.1)">
<use xlink:href="#c"/>
<use x="63.623047" xlink:href="#e"/>
<use x="95.410156" xlink:href="#c"/>
<use x="159.033203" xlink:href="#ad"/>
</g>
</g>
<g clip-path="url(#a)">
<defs>
<path id="ac" d="m33.016 40.375q-6.6406 0-10.531-4.5469-3.875-4.5312-3.875-12.438 0-7.8594 3.875-12.438 3.8906-4.5625 10.531-4.5625t10.516 4.5625q3.875 4.5781 3.875 12.438 0 7.9062-3.875 12.438-3.875 4.5469-10.516 4.5469zm19.578 30.922v-8.9844q-3.7188 1.75-7.5 2.6719-3.7812 0.9375-7.5 0.9375-9.7656 0-14.922-6.5938-5.1406-6.5938-5.875-19.922 2.875 4.25 7.2188 6.5156 4.3594 2.2656 9.5781 2.2656 10.984 0 17.359-6.6719 6.375-6.6562 6.375-18.125 0-11.234-6.6406-18.031-6.6406-6.7812-17.672-6.7812-12.656 0-19.344 9.6875-6.6875 9.7031-6.6875 28.109 0 17.281 8.2031 27.562t22.016 10.281q3.7188 0 7.5-0.73438t7.8906-2.1875z"/>
</defs>
<g transform="translate(1024.3 391.85) scale(.1 -.1)">
<use xlink:href="#c"/>
<use x="63.623047" xlink:href="#e"/>
<use x="95.410156" xlink:href="#c"/>
<use x="159.033203" xlink:href="#ac"/>
</g>
</g>
<g clip-path="url(#a)">
<g transform="translate(712.02 625.85) scale(.1 -.1)">
<use xlink:href="#c"/>
<use x="63.623047" xlink:href="#e"/>
<use x="95.410156" xlink:href="#n"/>
<use x="159.033203" xlink:href="#ae"/>
</g>
</g>
<g clip-path="url(#a)">
<g transform="translate(775.35 625.85) scale(.1 -.1)">
<use xlink:href="#c"/>
<use x="63.623047" xlink:href="#e"/>
<use x="95.410156" xlink:href="#n"/>
<use x="159.033203" xlink:href="#c"/>
</g>
</g>
<g clip-path="url(#a)">
<g transform="translate(1028.7 625.85) scale(.1 -.1)">
<use xlink:href="#c"/>
<use x="63.623047" xlink:href="#e"/>
<use x="95.410156" xlink:href="#n"/>
<use x="159.033203" xlink:href="#n"/>
</g>
</g>
<g clip-path="url(#a)">
<g transform="translate(910.66 625.85) scale(.1 -.1)">
<use xlink:href="#c"/>
<use x="63.623047" xlink:href="#e"/>
<use x="95.410156" xlink:href="#n"/>
<use x="159.033203" xlink:href="#o"/>
</g>
</g>
<g clip-path="url(#a)">
<g transform="translate(1058.4 509.16) scale(.1 -.1)">
<use xlink:href="#c"/>
<use x="63.623047" xlink:href="#e"/>
<use x="95.410156" xlink:href="#n"/>
<use x="159.033203" xlink:href="#p"/>
</g>
</g>
<g clip-path="url(#a)">
<g transform="translate(982.62 625.85) scale(.1 -.1)">
<use xlink:href="#c"/>
<use x="63.623047" xlink:href="#e"/>
<use x="95.410156" xlink:href="#n"/>
<use x="159.033203" xlink:href="#ad"/>
</g>
</g>
<g clip-path="url(#a)">
<g transform="translate(1057.5 625.85) scale(.1 -.1)">
<use xlink:href="#c"/>
<use x="63.623047" xlink:href="#e"/>
<use x="95.410156" xlink:href="#n"/>
<use x="159.033203" xlink:href="#ac"/>
</g>
</g>
<g clip-path="url(#a)">
<defs>
<path id="ak" d="m8.2031 72.906h46.875v-4.2031l-26.469-68.703h-10.297l24.906 64.594h-35.016z"/>
</defs>
<g transform="translate(1135.2 625.85) scale(.1 -.1)">
<use xlink:href="#c"/>
<use x="63.623047" xlink:href="#e"/>
<use x="95.410156" xlink:href="#n"/>
<use x="159.033203" xlink:href="#ak"/>
</g>
</g>
<g clip-path="url(#a)">
<defs>
<path id="ao" d="m31.781 34.625q-7.0312 0-11.062-3.7656-4.0156-3.7656-4.0156-10.344 0-6.5938 4.0156-10.359 4.0312-3.7656 11.062-3.7656t11.078 3.7812q4.0625 3.7969 4.0625 10.344 0 6.5781-4.0312 10.344-4.0156 3.7656-11.109 3.7656zm-9.8594 4.1875q-6.3438 1.5625-9.8906 5.9062-3.5312 4.3594-3.5312 10.609 0 8.7344 6.2188 13.812 6.2344 5.0781 17.062 5.0781 10.891 0 17.094-5.0781t6.2031-13.812q0-6.25-3.5469-10.609-3.5312-4.3438-9.8281-5.9062 7.125-1.6562 11.094-6.5 3.9844-4.8281 3.9844-11.797 0-10.609-6.4688-16.281-6.4688-5.6562-18.531-5.6562-12.047 0-18.531 5.6562-6.4688 5.6719-6.4688 16.281 0 6.9688 4 11.797 4.0156 4.8438 11.141 6.5zm-3.6094 15.578q0-5.6562 3.5312-8.8281 3.5469-3.1719 9.9375-3.1719 6.3594 0 9.9375 3.1719 3.5938 3.1719 3.5938 8.8281 0 5.6719-3.5938 8.8438-3.5781 3.1719-9.9375 3.1719-6.3906 0-9.9375-3.1719-3.5312-3.1719-3.5312-8.8438z"/>
</defs>
<g transform="translate(392.47 625.85) scale(.1 -.1)">
<use xlink:href="#c"/>
<use x="63.623047" xlink:href="#e"/>
<use x="95.410156" xlink:href="#n"/>
<use x="159.033203" xlink:href="#ao"/>
</g>
</g>
<g clip-path="url(#a)">
<g transform="translate(438.53 625.85) scale(.1 -.1)">
<use xlink:href="#c"/>
<use x="63.623047" xlink:href="#e"/>
<use x="95.410156" xlink:href="#n"/>
<use x="159.033203" xlink:href="#aj"/>
</g>
</g>
<g clip-path="url(#a)">
<g transform="translate(487.47 625.85) scale(.1 -.1)">
<use xlink:href="#c"/>
<use x="63.623047" xlink:href="#e"/>
<use x="95.410156" xlink:href="#o"/>
<use x="159.033203" xlink:href="#ae"/>
</g>
</g>
<g clip-path="url(#a)">
<g transform="translate(539.29 625.85) scale(.1 -.1)">
<use xlink:href="#c"/>
<use x="63.623047" xlink:href="#e"/>
<use x="95.410156" xlink:href="#o"/>
<use x="159.033203" xlink:href="#c"/>
</g>
</g>
<g clip-path="url(#a)">
<g transform="translate(593.99 625.85) scale(.1 -.1)">
<use xlink:href="#c"/>
<use x="63.623047" xlink:href="#e"/>
<use x="95.410156" xlink:href="#o"/>
<use x="159.033203" xlink:href="#n"/>
</g>
</g>
<g clip-path="url(#a)">
<g transform="translate(205.35 625.85) scale(.1 -.1)">
<use xlink:href="#c"/>
<use x="63.623047" xlink:href="#e"/>
<use x="95.410156" xlink:href="#o"/>
<use x="159.033203" xlink:href="#o"/>
</g>
</g>
<g clip-path="url(#a)">
<g transform="translate(237.02 625.85) scale(.1 -.1)">
<use xlink:href="#c"/>
<use x="63.623047" xlink:href="#e"/>
<use x="95.410156" xlink:href="#o"/>
<use x="159.033203" xlink:href="#p"/>
</g>
</g>
<g clip-path="url(#a)">
<g transform="translate(290.28 509.16) scale(.1 -.1)">
<use xlink:href="#c"/>
<use x="63.623047" xlink:href="#e"/>
<use x="95.410156" xlink:href="#o"/>
<use x="159.033203" xlink:href="#ad"/>
</g>
</g>
<g clip-path="url(#a)">
<g transform="translate(271.56 625.85) scale(.1 -.1)">
<use xlink:href="#c"/>
<use x="63.623047" xlink:href="#e"/>
<use x="95.410156" xlink:href="#o"/>
<use x="159.033203" xlink:href="#ac"/>
</g>
</g>
<g clip-path="url(#a)">
<g transform="translate(308.99 625.85) scale(.1 -.1)">
<use xlink:href="#c"/>
<use x="63.623047" xlink:href="#e"/>
<use x="95.410156" xlink:href="#o"/>
<use x="159.033203" xlink:href="#ak"/>
</g>
</g>
<g clip-path="url(#a)">
<g transform="translate(150.66 625.85) scale(.1 -.1)">
<use xlink:href="#c"/>
<use x="63.623047" xlink:href="#e"/>
<use x="95.410156" xlink:href="#o"/>
<use x="159.033203" xlink:href="#ao"/>
</g>
</g>
<g clip-path="url(#a)">
<g transform="translate(55.655 625.85) scale(.1 -.1)">
<use xlink:href="#c"/>
<use x="63.623047" xlink:href="#e"/>
<use x="95.410156" xlink:href="#o"/>
<use x="159.033203" xlink:href="#aj"/>
</g>
</g>
<g clip-path="url(#a)">
<g transform="translate(90.201 625.85) scale(.1 -.1)">
<use xlink:href="#c"/>
<use x="63.623047" xlink:href="#e"/>
<use x="95.410156" xlink:href="#p"/>
<use x="159.033203" xlink:href="#ae"/>
</g>
</g>
<g clip-path="url(#a)">
<g transform="translate(64.291 625.85) scale(.1 -.1)">
<use xlink:href="#c"/>
<use x="63.623047" xlink:href="#e"/>
<use x="95.410156" xlink:href="#p"/>
<use x="159.033203" xlink:href="#c"/>
</g>
</g>
<g clip-path="url(#a)">
<g transform="translate(107.47 625.85) scale(.1 -.1)">
<use xlink:href="#c"/>
<use x="63.623047" xlink:href="#e"/>
<use x="95.410156" xlink:href="#p"/>
<use x="159.033203" xlink:href="#n"/>
</g>
</g>
<g clip-path="url(#a)">
<g transform="translate(176.56 625.85) scale(.1 -.1)">
<use xlink:href="#c"/>
<use x="63.623047" xlink:href="#e"/>
<use x="95.410156" xlink:href="#p"/>
<use x="159.033203" xlink:href="#o"/>
</g>
</g>
<g clip-path="url(#a)">
<g transform="translate(349.29 625.85) scale(.1 -.1)">
<use xlink:href="#c"/>
<use x="63.623047" xlink:href="#e"/>
<use x="95.410156" xlink:href="#p"/>
<use x="159.033203" xlink:href="#p"/>
</g>
</g>
<g clip-path="url(#a)">
<g transform="translate(651.56 625.85) scale(.1 -.1)">
<use xlink:href="#c"/>
<use x="63.623047" xlink:href="#e"/>
<use x="95.410156" xlink:href="#p"/>
<use x="159.033203" xlink:href="#ad"/>
</g>
</g>
<g clip-path="url(#a)">
<g transform="translate(1299.3 625.85) scale(.1 -.1)">
<use xlink:href="#c"/>
<use x="63.623047" xlink:href="#e"/>
<use x="95.410156" xlink:href="#p"/>
<use x="159.033203" xlink:href="#ac"/>
</g>
</g>
<g clip-path="url(#a)">
<g transform="translate(1385.7 625.85) scale(.1 -.1)">
<use xlink:href="#c"/>
<use x="63.623047" xlink:href="#e"/>
<use x="95.410156" xlink:href="#p"/>
<use x="159.033203" xlink:href="#ak"/>
</g>
</g>
<defs>
<clipPath id="a">
<rect width="1469.3" height="773.33"/>
</clipPath>
</defs>
</svg>
