<?xml version="1.0" encoding="UTF-8"?>
<!DOCTYPE svg  PUBLIC '-//W3C//DTD SVG 1.1//EN'  'http://www.w3.org/Graphics/SVG/1.1/DTD/svg11.dtd'>
<svg width="1722.7pt" height="906.67pt" version="1.1" viewBox="0 0 1722.7 906.67" xmlns="http://www.w3.org/2000/svg" xmlns:xlink="http://www.w3.org/1999/xlink">
<defs>
<style type="text/css">*{stroke-linecap:butt;stroke-linejoin:round;}</style>
</defs>
<path d="m0 906.67h1722.7v-906.67h-1722.7z" fill="#fff"/>
<g fill="none" stroke="#000">
<path d="m1196.7 41.882-722.32 111.68" clip-path="url(#a)"/>
<path d="m1196.7 41.882 115.34 628.1" clip-path="url(#a)"/>
<path d="m1196.7 41.882 257.68 725.5" clip-path="url(#a)"/>
<path d="m1196.7 41.882 376.29 628.1" clip-path="url(#a)"/>
<path d="m1196.7 41.882-26.997 725.5" clip-path="url(#a)"/>
<path d="m474.41 153.56-312.91 417.66" clip-path="url(#a)"/>
<path d="m474.41 153.56-111.26 613.82" clip-path="url(#a)"/>
<path d="m474.41 153.56-63.814 613.82" clip-path="url(#a)"/>
<path d="m474.41 153.56 7.3546 516.42" clip-path="url(#a)"/>
<path d="m474.41 153.56 181.24 108.49" clip-path="url(#a)"/>
<path d="m474.41 153.56 125.97 613.82" clip-path="url(#a)"/>
<path d="m474.41 153.56 173.42 613.82" clip-path="url(#a)"/>
<path d="m1312.1 669.98-94.892 97.4" clip-path="url(#a)"/>
<path d="m1312.1 669.98-47.446 97.4" clip-path="url(#a)"/>
<path d="m1312.1 669.98v97.4" clip-path="url(#a)"/>
<path d="m1312.1 669.98 47.446 97.4" clip-path="url(#a)"/>
<path d="m1312.1 669.98 94.892 97.4" clip-path="url(#a)"/>
<path d="m1454.4 767.38v97.4" clip-path="url(#a)"/>
<path d="m1573 669.98-71.169 97.4" clip-path="url(#a)"/>
<path d="m1573 669.98-23.723 97.4" clip-path="url(#a)"/>
<path d="m1573 669.98 23.723 97.4" clip-path="url(#a)"/>
<path d="m1573 669.98 71.169 97.4" clip-path="url(#a)"/>
<path d="m1501.9 767.38v97.4" clip-path="url(#a)"/>
<path d="m1549.3 767.38v97.4" clip-path="url(#a)"/>
<path d="m1596.7 767.38v97.4" clip-path="url(#a)"/>
<path d="m1217.2 767.38v97.4" clip-path="url(#a)"/>
<path d="m1264.6 767.38v97.4" clip-path="url(#a)"/>
<path d="m1312.1 767.38v97.4" clip-path="url(#a)"/>
<path d="m1359.5 767.38v97.4" clip-path="url(#a)"/>
<path d="m1407 767.38v97.4" clip-path="url(#a)"/>
<path d="m161.51 571.23-83.03 196.16" clip-path="url(#a)"/>
<path d="m161.51 571.23-35.584 196.16" clip-path="url(#a)"/>
<path d="m161.51 571.23 11.861 196.16" clip-path="url(#a)"/>
<path d="m161.51 571.23 106.75 98.755" clip-path="url(#a)"/>
<path d="m363.15 767.38v97.4" clip-path="url(#a)"/>
<path d="m410.6 767.38v97.4" clip-path="url(#a)"/>
<path d="m481.77 669.98-23.723 97.4" clip-path="url(#a)"/>
<path d="m481.77 669.98 23.723 97.4" clip-path="url(#a)"/>
<path d="m655.65 262.05-102.72 505.33" clip-path="url(#a)"/>
<path d="m655.65 262.05 102.72 105.57" clip-path="url(#a)"/>
<path d="m600.38 767.38v97.4" clip-path="url(#a)"/>
<path d="m552.93 767.38v97.4" clip-path="url(#a)"/>
<path d="m758.37 367.62-94.727 302.36" clip-path="url(#a)"/>
<path d="m758.37 367.62 62.932 102.95" clip-path="url(#a)"/>
<path d="m758.37 367.62 31.795 399.76" clip-path="url(#a)"/>
<path d="m663.64 669.98-110.71 97.4" clip-path="url(#a)" stroke-dasharray="3.7,1.6"/>
<path d="m663.64 669.98 31.631 97.4" clip-path="url(#a)"/>
<path d="m663.64 669.98 79.077 97.4" clip-path="url(#a)"/>
<path d="m821.3 470.57-268.37 296.81" clip-path="url(#a)" stroke-dasharray="3.7,1.6"/>
<path d="m821.3 470.57 16.31 296.81" clip-path="url(#a)"/>
<path d="m821.3 470.57 63.756 296.81" clip-path="url(#a)"/>
<path d="m821.3 470.57 188.3 100.66" clip-path="url(#a)"/>
<path d="m837.61 767.38v97.4" clip-path="url(#a)"/>
<path d="m885.06 767.38v97.4" clip-path="url(#a)"/>
<path d="m1009.6 571.23-77.1 196.16" clip-path="url(#a)"/>
<path d="m1009.6 571.23-29.654 196.16" clip-path="url(#a)"/>
<path d="m1009.6 571.23 17.792 196.16" clip-path="url(#a)"/>
<path d="m1009.6 571.23 88.961 98.755" clip-path="url(#a)"/>
<path d="m932.5 767.38v97.4" clip-path="url(#a)"/>
<path d="m979.95 767.38v97.4" clip-path="url(#a)"/>
<path d="m1027.4 767.38v97.4" clip-path="url(#a)"/>
<path d="m1098.6 669.98-23.723 97.4" clip-path="url(#a)"/>
<path d="m1098.6 669.98 23.723 97.4" clip-path="url(#a)"/>
<path d="m1074.8 767.38v97.4" clip-path="url(#a)"/>
<path d="m1122.3 767.38v97.4" clip-path="url(#a)"/>
<path d="m695.27 767.38v97.4" clip-path="url(#a)"/>
<path d="m742.72 767.38v97.4" clip-path="url(#a)"/>
<path d="m458.04 767.38v97.4" clip-path="url(#a)"/>
<path d="m505.49 767.38v97.4" clip-path="url(#a)"/>
<path d="m78.475 767.38v97.4" clip-path="url(#a)"/>
<path d="m125.92 767.38v97.4" clip-path="url(#a)"/>
<path d="m173.37 767.38v97.4" clip-path="url(#a)"/>
<path d="m268.26 669.98-47.446 97.4" clip-path="url(#a)"/>
<path d="m268.26 669.98v97.4" clip-path="url(#a)"/>
<path d="m268.26 669.98 47.446 97.4" clip-path="url(#a)"/>
<path d="m220.81 767.38v97.4" clip-path="url(#a)"/>
<path d="m268.26 767.38v97.4" clip-path="url(#a)"/>
<path d="m315.7 767.38v97.4" clip-path="url(#a)"/>
<path d="m647.83 767.38v97.4" clip-path="url(#a)"/>
<path d="m790.16 767.38v97.4" clip-path="url(#a)"/>
<path d="m1169.7 767.38v97.4" clip-path="url(#a)"/>
<path d="m1644.2 767.38v97.4" clip-path="url(#a)"/>
</g>
<path d="m833.56 104.38 5.9456-0.91929q2.3718-0.36672 2.0051-2.7385l-1.1831-7.6516q-0.36672-2.3718-2.7385-2.0051l-5.9456 0.91928q-2.3718 0.36672-2.0051 2.7385l1.1831 7.6516q0.36672 2.3718 2.7385 2.0051z" clip-path="url(#a)" fill="#fff" stroke="#fff"/>
<g clip-path="url(#a)">
<defs>
<path id="w" d="m9.8125 72.906h9.8594v-29.891h35.844v29.891h9.8594v-72.906h-9.8594v34.719h-35.844v-34.719h-9.8594z"/>
</defs>
<g transform="translate(832.93 100.36) rotate(-8.7893) scale(.08 -.08)">
<use xlink:href="#w"/>
</g>
</g>
<path d="m1247.7 354.11 1.0866 5.9173q0.43348 2.3605 2.794 1.9271l7.6152-1.3984q2.3605-0.43347 1.9271-2.794l-1.0866-5.9173q-0.43348-2.3605-2.794-1.9271l-7.6152 1.3984q-2.3605 0.43347-1.9271 2.794z" clip-path="url(#a)" fill="#fff" stroke="#fff"/>
<g clip-path="url(#a)">
<g transform="translate(1251.7 353.37) rotate(79.594) scale(.08 -.08)">
<use xlink:href="#w"/>
</g>
</g>
<path d="m1318.9 404.63 1.4919 4.2004q0.80326 2.2616 3.0648 1.4583l7.296-2.5913q2.2616-0.80326 1.4583-3.0648l-1.4919-4.2004q-0.80326-2.2616-3.0648-1.4583l-7.296 2.5913q-2.2616 0.80326-1.4583 3.0648z" clip-path="url(#a)" fill="#fff" stroke="#fff"/>
<g clip-path="url(#a)">
<defs>
<path id="av" d="m9.8125 72.906h9.8594v-64.609h35.5v-8.2969h-45.359z"/>
</defs>
<g transform="translate(1322.7 403.27) rotate(70.446) scale(.08 -.08)">
<use xlink:href="#av"/>
</g>
</g>
<path d="m1378 356.58 3.0919 5.1609q1.2334 2.0588 3.2922 0.82538l6.6418-3.9791q2.0588-1.2334 0.82538-3.2922l-3.0919-5.1609q-1.2334-2.0588-3.2922-0.82538l-6.6418 3.9791q-2.0588 1.2334-0.82538 3.2922z" clip-path="url(#a)" fill="#fff" stroke="#fff"/>
<g clip-path="url(#a)">
<g transform="translate(1381.4 354.49) rotate(59.074) scale(.08 -.08)">
<use xlink:href="#w"/>
</g>
</g>
<path d="m1189.4 407.79 0.21772-5.851q0.089244-2.3983-2.3091-2.4876l-7.7371-0.28791q-2.3983-0.089245-2.4876 2.3091l-0.21772 5.851q-0.089245 2.3983 2.3091 2.4876l7.7371 0.28791q2.3983 0.089245 2.4876-2.3091z" clip-path="url(#a)" fill="#fff" stroke="#fff"/>
<g clip-path="url(#a)">
<defs>
<path id="ab" d="m8.6875 72.906h9.9219v-44.297q0-11.719 4.2344-16.875 4.25-5.1406 13.781-5.1406 9.4688 0 13.719 5.1406 4.25 5.1562 4.25 16.875v44.297h9.9062v-45.516q0-14.25-7.0625-21.531-7.0469-7.2812-20.812-7.2812-13.828 0-20.891 7.2812-7.0469 7.2812-7.0469 21.531z"/>
</defs>
<g transform="translate(1185.3 407.64) rotate(-87.869) scale(.08 -.08)">
<use xlink:href="#ab"/>
</g>
</g>
<path d="m321.34 368.35 3.2812-4.3797q1.439-1.9208-0.48177-3.3597l-6.1964-4.6422q-1.9208-1.439-3.3597 0.48177l-3.2812 4.3797q-1.439 1.9208 0.48177 3.3597l6.1964 4.6422q1.9208 1.439 3.3597-0.48177z" clip-path="url(#a)" fill="#fff" stroke="#fff"/>
<g clip-path="url(#a)">
<defs>
<path id="q" d="m34.188 63.188-13.391-36.281h26.812zm-5.5781 9.7188h11.188l27.781-72.906h-10.25l-6.6406 18.703h-32.859l-6.6406-18.703h-10.406z"/>
</defs>
<g transform="translate(318.08 365.91) rotate(-53.16) scale(.08 -.08)">
<use xlink:href="#q"/>
</g>
</g>
<path d="m424.54 463.86 0.82064-4.5275q0.42805-2.3615-1.9335-2.7896l-7.6184-1.3809q-2.3615-0.42805-2.7896 1.9335l-0.82064 4.5275q-0.42805 2.3615 1.9335 2.7896l7.6184 1.3809q2.3615 0.42805 2.7896-1.9335z" clip-path="url(#a)" fill="#fff" stroke="#fff"/>
<g clip-path="url(#a)">
<defs>
<path id="ae" d="m9.8125 72.906h41.891v-8.3125h-32.031v-21.484h28.906v-8.2969h-28.906v-34.812h-9.8594z"/>
</defs>
<g transform="translate(420.54 463.13) rotate(-79.726) scale(.08 -.08)">
<use xlink:href="#ae"/>
</g>
</g>
<path d="m448.5 463.41 0.47579-4.5766q0.24817-2.3871-2.139-2.6353l-7.701-0.80062q-2.3871-0.24817-2.6353 2.139l-0.47579 4.5766q-0.24817 2.3871 2.139 2.6353l7.701 0.80062q2.3871 0.24817 2.6353-2.139z" clip-path="url(#a)" fill="#fff" stroke="#fff"/>
<g clip-path="url(#a)">
<g transform="translate(444.46 462.99) rotate(-84.065) scale(.08 -.08)">
<use xlink:href="#ae"/>
</g>
</g>
<path d="m471.77 408.78 0.087719 6.1594q0.034176 2.3998 2.4339 2.3656l7.7417-0.11025q2.3998-0.034176 2.3656-2.4339l-0.087718-6.1594q-0.034176-2.3998-2.4339-2.3656l-7.7417 0.11025q-2.3998 0.034176-2.3656 2.4339z" clip-path="url(#a)" fill="#fff" stroke="#fff"/>
<g clip-path="url(#a)">
<defs>
<path id="t" d="m19.672 64.797v-56.688h11.922q15.094 0 22.094 6.8281 7 6.8438 7 21.594 0 14.641-7 21.453t-22.094 6.8125zm-9.8594 8.1094h20.266q21.188 0 31.094-8.8125 9.9219-8.8125 9.9219-27.562 0-18.859-9.9688-27.703-9.9531-8.8281-31.047-8.8281h-20.266z"/>
</defs>
<g transform="translate(475.84 408.73) rotate(89.184) scale(.08 -.08)">
<use xlink:href="#t"/>
</g>
</g>
<path d="m559.46 211.78 4.6956 2.8107q2.0593 1.2326 3.2919-0.82664l3.9765-6.6433q1.2326-2.0593-0.82664-3.2919l-4.6956-2.8107q-2.0593-1.2326-3.2919 0.82664l-3.9765 6.6433q-1.2326 2.0593 0.82664 3.2919z" clip-path="url(#a)" fill="#fff" stroke="#fff"/>
<g clip-path="url(#a)">
<g transform="translate(561.55 208.3) rotate(30.904) scale(.08 -.08)">
<use xlink:href="#q"/>
</g>
</g>
<path d="m530.74 459.25 1.021 4.9751q0.48248 2.351 2.8335 1.8685l7.5844-1.5565q2.351-0.48248 1.8685-2.8335l-1.021-4.9751q-0.48248-2.351-2.8335-1.8685l-7.5844 1.5565q-2.351 0.48248-1.8685 2.8335z" clip-path="url(#a)" fill="#fff" stroke="#fff"/>
<g clip-path="url(#a)">
<defs>
<path id="ac" d="m53.516 70.516v-9.625q-5.6094 2.6875-10.594 4-4.9844 1.3281-9.625 1.3281-8.0469 0-12.422-3.125t-4.375-8.8906q0-4.8438 2.9062-7.3125 2.9062-2.4531 11.016-3.9688l5.9531-1.2188q11.031-2.1094 16.281-7.4062t5.25-14.172q0-10.609-7.1094-16.078-7.0938-5.4688-20.812-5.4688-5.1719 0-11.016 1.1719-5.8281 1.1719-12.078 3.4688v10.156q6-3.3594 11.766-5.0781 5.7656-1.7031 11.328-1.7031 8.4375 0 13.031 3.3125 4.5938 3.3281 4.5938 9.4844 0 5.3594-3.2969 8.3906t-10.812 4.5469l-6.0156 1.1719q-11.031 2.1875-15.969 6.875-4.9219 4.6875-4.9219 13.047 0 9.6719 6.8125 15.234t18.766 5.5625q5.1406 0 10.453-0.9375 5.3281-0.92188 10.891-2.7656z"/>
</defs>
<g transform="translate(534.72 458.43) rotate(78.403) scale(.08 -.08)">
<use xlink:href="#ac"/>
</g>
</g>
<path d="m554.29 459.36 1.5918 5.6345q0.6525 2.3096 2.9621 1.6571l7.4509-2.105q2.3096-0.6525 1.6571-2.9621l-1.5918-5.6345q-0.6525-2.3096-2.9621-1.6571l-7.4509 2.105q-2.3096 0.6525-1.6571 2.9621z" clip-path="url(#a)" fill="#fff" stroke="#fff"/>
<g clip-path="url(#a)">
<g transform="translate(558.2 458.26) rotate(74.224) scale(.08 -.08)">
<use xlink:href="#ab"/>
</g>
</g>
<path d="m1267.2 725.02 3.8188-3.9198q1.6748-1.719-0.04427-3.3938l-5.5457-5.4029q-1.719-1.6748-3.3938 0.04427l-3.8188 3.9198q-1.6748 1.719 0.044271 3.3938l5.5457 5.4029q1.719 1.6748 3.3938-0.044271z" clip-path="url(#a)" fill="#fff" stroke="#fff"/>
<g clip-path="url(#a)">
<g transform="translate(1264.3 722.18) rotate(-45.747) scale(.08 -.08)">
<use xlink:href="#q"/>
</g>
</g>
<path d="m1292.6 724.2 2.6976-5.5379q1.051-2.1576-1.1066-3.2087l-6.9606-3.3907q-2.1576-1.051-3.2087 1.1066l-2.6976 5.5379q-1.051 2.1576 1.1066 3.2087l6.9606 3.3907q2.1576 1.051 3.2087-1.1066z" clip-path="url(#a)" fill="#fff" stroke="#fff"/>
<g clip-path="url(#a)">
<g transform="translate(1289 722.42) rotate(-64.028) scale(.08 -.08)">
<use xlink:href="#t"/>
</g>
</g>
<path d="m1305.8 715.6v6.16q0 2.4 2.4 2.4h7.7425q2.4 0 2.4-2.4v-6.16q0-2.4-2.4-2.4h-7.7425q-2.4 0-2.4 2.4z" clip-path="url(#a)" fill="#fff" stroke="#fff"/>
<g clip-path="url(#a)">
<g transform="translate(1309.9 715.6) rotate(90) scale(.08 -.08)">
<use xlink:href="#t"/>
</g>
</g>
<path d="m1329.1 719.36 2.015 4.1366q1.051 2.1576 3.2087 1.1066l6.9606-3.3907q2.1576-1.051 1.1066-3.2087l-2.015-4.1366q-1.051-2.1576-3.2087-1.1066l-6.9606 3.3907q-2.1576 1.051-1.1066 3.2087z" clip-path="url(#a)" fill="#fff" stroke="#fff"/>
<g clip-path="url(#a)">
<g transform="translate(1332.8 717.58) rotate(64.028) scale(.08 -.08)">
<use xlink:href="#ae"/>
</g>
</g>
<path d="m1353.3 721.33 3.3661 3.4551q1.6748 1.719 3.3938 0.044271l5.5457-5.4029q1.719-1.6748 0.04427-3.3938l-3.3661-3.4551q-1.6748-1.719-3.3938-0.04427l-5.5457 5.4029q-1.719 1.6748-0.044271 3.3938z" clip-path="url(#a)" fill="#fff" stroke="#fff"/>
<g clip-path="url(#a)">
<defs>
<path id="ak" d="m19.672 64.797v-27.391h12.406q6.8906 0 10.641 3.5625 3.7656 3.5625 3.7656 10.156 0 6.5469-3.7656 10.109-3.75 3.5625-10.641 3.5625zm-9.8594 8.1094h22.266q12.266 0 18.531-5.5469 6.2812-5.5469 6.2812-16.234 0-10.797-6.2812-16.312-6.2656-5.5156-18.531-5.5156h-12.406v-29.297h-9.8594z"/>
</defs>
<g transform="translate(1356.3 718.5) rotate(45.747) scale(.08 -.08)">
<use xlink:href="#ak"/>
</g>
</g>
<path d="m1448.1 798.44v35.285q0 2.4 2.4 2.4h7.7425q2.4 0 2.4-2.4v-35.285q0-2.4-2.4-2.4h-7.7425q-2.4 0-2.4 2.4z" clip-path="url(#a)" fill="#fff" stroke="#fff"/>
<g clip-path="url(#a)">
<defs>
<path id="l" d="m-0.29688 72.906h61.672v-8.3125h-25.875v-64.594h-9.9062v64.594h-25.891z"/>
<path id="c" d="m56.203 29.594v-4.3906h-41.312q0.59375-9.2812 5.5938-14.141t13.938-4.8594q5.1719 0 10.031 1.2656t9.6562 3.8125v-8.5q-4.8438-2.0469-9.9219-3.125t-10.297-1.0781q-13.094 0-20.734 7.6094-7.6406 7.625-7.6406 20.625 0 13.422 7.25 21.297 7.25 7.8906 19.562 7.8906 11.031 0 17.453-7.1094 6.4219-7.0938 6.4219-19.297zm-8.9844 2.6406q-0.09375 7.3594-4.125 11.75-4.0312 4.4062-10.672 4.4062-7.5156 0-12.031-4.25t-5.2031-11.969z"/>
<path id="g" d="m41.109 46.297q-1.5156 0.875-3.2969 1.2812-1.7812 0.42188-3.9219 0.42188-7.625 0-11.703-4.9531t-4.0781-14.234v-28.812h-9.0312v54.688h9.0312v-8.5q2.8438 4.9844 7.375 7.3906 4.5469 2.4219 11.047 2.4219 0.92188 0 2.0469-0.125 1.125-0.10938 2.4844-0.35938z"/>
<path id="i" d="m52 44.188q3.375 6.0625 8.0625 8.9375t11.031 2.875q8.5469 0 13.188-5.9844 4.6406-5.9688 4.6406-17v-33.016h-9.0312v32.719q0 7.8594-2.7969 11.656-2.7812 3.8125-8.4844 3.8125-6.9844 0-11.047-4.6406-4.0469-4.625-4.0469-12.641v-30.906h-9.0312v32.719q0 7.9062-2.7812 11.688t-8.5938 3.7812q-6.8906 0-10.953-4.6562-4.0469-4.6562-4.0469-12.625v-30.906h-9.0312v54.688h9.0312v-8.5q3.0781 5.0312 7.375 7.4219t10.203 2.3906q5.9688 0 10.141-3.0312 4.1719-3.0156 6.1719-8.7812z"/>
<path id="h" d="m9.4219 54.688h8.9844v-54.688h-8.9844zm0 21.297h8.9844v-11.391h-8.9844z"/>
<path id="e" d="m54.891 33.016v-33.016h-8.9844v32.719q0 7.7656-3.0312 11.609-3.0312 3.8594-9.0781 3.8594-7.2812 0-11.484-4.6406-4.2031-4.625-4.2031-12.641v-30.906h-9.0312v54.688h9.0312v-8.5q3.2344 4.9375 7.5938 7.375 4.375 2.4375 10.094 2.4375 9.4219 0 14.25-5.8281 4.8438-5.8281 4.8438-17.156z"/>
<path id="j" d="m34.281 27.484q-10.891 0-15.094-2.4844t-4.2031-8.5q0-4.7812 3.1562-7.5938 3.1562-2.7969 8.5625-2.7969 7.4844 0 12 5.2969t4.5156 14.078v2zm17.922 3.7188v-31.203h-8.9844v8.2969q-3.0781-4.9688-7.6719-7.3438t-11.234-2.375q-8.3906 0-13.359 4.7188-4.9531 4.7188-4.9531 12.625 0 9.2188 6.1719 13.906 6.1875 4.6875 18.438 4.6875h12.609v0.89062q0 6.2031-4.0781 9.5938t-11.453 3.3906q-4.6875 0-9.1406-1.125-4.4375-1.125-8.5312-3.375v8.3125q4.9219 1.9062 9.5625 2.8438 4.6406 0.95312 9.0312 0.95312 11.875 0 17.734-6.1562 5.8594-6.1406 5.8594-18.641z"/>
<path id="k" d="m9.4219 75.984h8.9844v-75.984h-8.9844z"/>
</defs>
<g transform="translate(1452.2 798.44) rotate(90) scale(.08 -.08)">
<use xlink:href="#l"/>
<use x="60.818359" xlink:href="#c"/>
<use x="122.341797" xlink:href="#g"/>
<use x="163.439453" xlink:href="#i"/>
<use x="260.851562" xlink:href="#h"/>
<use x="288.634766" xlink:href="#e"/>
<use x="352.013672" xlink:href="#j"/>
<use x="413.292969" xlink:href="#k"/>
</g>
</g>
<path d="m1540.9 724.59 3.2286-4.4186q1.4159-1.9378-0.52188-3.3538l-6.2515-4.5679q-1.9378-1.4159-3.3538 0.52188l-3.2286 4.4186q-1.4159 1.9378 0.52188 3.3538l6.2515 4.5679q1.9378 1.4159 3.3538-0.52188z" clip-path="url(#a)" fill="#fff" stroke="#fff"/>
<g clip-path="url(#a)">
<g transform="translate(1537.6 722.2) rotate(-53.845) scale(.08 -.08)">
<use xlink:href="#q"/>
</g>
</g>
<path d="m1566.7 722.64 1.2019-4.9345q0.56794-2.3318-1.7639-2.8998l-7.5226-1.8322q-2.3318-0.56794-2.8998 1.7639l-1.2019 4.9345q-0.56794 2.3318 1.7639 2.8998l7.5226 1.8322q2.3318 0.56794 2.8998-1.7639z" clip-path="url(#a)" fill="#fff" stroke="#fff"/>
<g clip-path="url(#a)">
<g transform="translate(1562.7 721.67) rotate(-76.311) scale(.08 -.08)">
<use xlink:href="#ac"/>
</g>
</g>
<path d="m1577 713.24 3.3905 13.921q0.56794 2.3318 2.8998 1.7639l7.7728-1.8932q2.3318-0.56794 1.7639-2.8998l-3.3905-13.921q-0.56794-2.3318-2.8998-1.7639l-7.7728 1.8932q-2.3318 0.56794-1.7639 2.8998z" clip-path="url(#a)" fill="#fff" stroke="#fff"/>
<g clip-path="url(#a)">
<defs>
<path id="bb" d="m21 76.422v-100h-8.2969v100z"/>
</defs>
<g transform="translate(1581.1 712.22) rotate(76.311) scale(.08 -.08)">
<use xlink:href="#q"/>
<use x="68.408203" xlink:href="#bb"/>
<use x="102.099609" xlink:href="#t"/>
</g>
</g>
<path d="m1601.8 720.02 3.4543 4.7275q1.4159 1.9378 3.3538 0.52188l6.2515-4.5679q1.9378-1.4159 0.52188-3.3538l-3.4543-4.7275q-1.4159-1.9378-3.3537-0.52188l-6.2515 4.5679q-1.9378 1.4159-0.52188 3.3538z" clip-path="url(#a)" fill="#fff" stroke="#fff"/>
<g clip-path="url(#a)">
<g transform="translate(1605.1 717.62) rotate(53.845) scale(.08 -.08)">
<use xlink:href="#ab"/>
</g>
</g>
<path d="m1495.6 798.44v35.285q0 2.4 2.4 2.4h7.7425q2.4 0 2.4-2.4v-35.285q0-2.4-2.4-2.4h-7.7425q-2.4 0-2.4 2.4z" clip-path="url(#a)" fill="#fff" stroke="#fff"/>
<g clip-path="url(#a)">
<g transform="translate(1499.6 798.44) rotate(90) scale(.08 -.08)">
<use xlink:href="#l"/>
<use x="60.818359" xlink:href="#c"/>
<use x="122.341797" xlink:href="#g"/>
<use x="163.439453" xlink:href="#i"/>
<use x="260.851562" xlink:href="#h"/>
<use x="288.634766" xlink:href="#e"/>
<use x="352.013672" xlink:href="#j"/>
<use x="413.292969" xlink:href="#k"/>
</g>
</g>
<path d="m1543 798.44v35.285q0 2.4 2.4 2.4h7.7425q2.4 0 2.4-2.4v-35.285q0-2.4-2.4-2.4h-7.7425q-2.4 0-2.4 2.4z" clip-path="url(#a)" fill="#fff" stroke="#fff"/>
<g clip-path="url(#a)">
<g transform="translate(1547.1 798.44) rotate(90) scale(.08 -.08)">
<use xlink:href="#l"/>
<use x="60.818359" xlink:href="#c"/>
<use x="122.341797" xlink:href="#g"/>
<use x="163.439453" xlink:href="#i"/>
<use x="260.851562" xlink:href="#h"/>
<use x="288.634766" xlink:href="#e"/>
<use x="352.013672" xlink:href="#j"/>
<use x="413.292969" xlink:href="#k"/>
</g>
</g>
<path d="m1590.5 798.44v35.285q0 2.4 2.4 2.4h7.7425q2.4 0 2.4-2.4v-35.285q0-2.4-2.4-2.4h-7.7425q-2.4 0-2.4 2.4z" clip-path="url(#a)" fill="#fff" stroke="#fff"/>
<g clip-path="url(#a)">
<g transform="translate(1594.5 798.44) rotate(90) scale(.08 -.08)">
<use xlink:href="#l"/>
<use x="60.818359" xlink:href="#c"/>
<use x="122.341797" xlink:href="#g"/>
<use x="163.439453" xlink:href="#i"/>
<use x="260.851562" xlink:href="#h"/>
<use x="288.634766" xlink:href="#e"/>
<use x="352.013672" xlink:href="#j"/>
<use x="413.292969" xlink:href="#k"/>
</g>
</g>
<path d="m1210.9 798.44v35.285q0 2.4 2.4 2.4h7.7425q2.4 0 2.4-2.4v-35.285q0-2.4-2.4-2.4h-7.7425q-2.4 0-2.4 2.4z" clip-path="url(#a)" fill="#fff" stroke="#fff"/>
<g clip-path="url(#a)">
<g transform="translate(1215 798.44) rotate(90) scale(.08 -.08)">
<use xlink:href="#l"/>
<use x="60.818359" xlink:href="#c"/>
<use x="122.341797" xlink:href="#g"/>
<use x="163.439453" xlink:href="#i"/>
<use x="260.851562" xlink:href="#h"/>
<use x="288.634766" xlink:href="#e"/>
<use x="352.013672" xlink:href="#j"/>
<use x="413.292969" xlink:href="#k"/>
</g>
</g>
<path d="m1258.4 798.44v35.285q0 2.4 2.4 2.4h7.7425q2.4 0 2.4-2.4v-35.285q0-2.4-2.4-2.4h-7.7425q-2.4 0-2.4 2.4z" clip-path="url(#a)" fill="#fff" stroke="#fff"/>
<g clip-path="url(#a)">
<g transform="translate(1262.4 798.44) rotate(90) scale(.08 -.08)">
<use xlink:href="#l"/>
<use x="60.818359" xlink:href="#c"/>
<use x="122.341797" xlink:href="#g"/>
<use x="163.439453" xlink:href="#i"/>
<use x="260.851562" xlink:href="#h"/>
<use x="288.634766" xlink:href="#e"/>
<use x="352.013672" xlink:href="#j"/>
<use x="413.292969" xlink:href="#k"/>
</g>
</g>
<path d="m1305.8 798.44v35.285q0 2.4 2.4 2.4h7.7425q2.4 0 2.4-2.4v-35.285q0-2.4-2.4-2.4h-7.7425q-2.4 0-2.4 2.4z" clip-path="url(#a)" fill="#fff" stroke="#fff"/>
<g clip-path="url(#a)">
<g transform="translate(1309.9 798.44) rotate(90) scale(.08 -.08)">
<use xlink:href="#l"/>
<use x="60.818359" xlink:href="#c"/>
<use x="122.341797" xlink:href="#g"/>
<use x="163.439453" xlink:href="#i"/>
<use x="260.851562" xlink:href="#h"/>
<use x="288.634766" xlink:href="#e"/>
<use x="352.013672" xlink:href="#j"/>
<use x="413.292969" xlink:href="#k"/>
</g>
</g>
<path d="m1353.2 798.44v35.285q0 2.4 2.4 2.4h7.7425q2.4 0 2.4-2.4v-35.285q0-2.4-2.4-2.4h-7.7425q-2.4 0-2.4 2.4z" clip-path="url(#a)" fill="#fff" stroke="#fff"/>
<g clip-path="url(#a)">
<g transform="translate(1357.3 798.44) rotate(90) scale(.08 -.08)">
<use xlink:href="#l"/>
<use x="60.818359" xlink:href="#c"/>
<use x="122.341797" xlink:href="#g"/>
<use x="163.439453" xlink:href="#i"/>
<use x="260.851562" xlink:href="#h"/>
<use x="288.634766" xlink:href="#e"/>
<use x="352.013672" xlink:href="#j"/>
<use x="413.292969" xlink:href="#k"/>
</g>
</g>
<path d="m1400.7 798.44v35.285q0 2.4 2.4 2.4h7.7425q2.4 0 2.4-2.4v-35.285q0-2.4-2.4-2.4h-7.7425q-2.4 0-2.4 2.4z" clip-path="url(#a)" fill="#fff" stroke="#fff"/>
<g clip-path="url(#a)">
<g transform="translate(1404.8 798.44) rotate(90) scale(.08 -.08)">
<use xlink:href="#l"/>
<use x="60.818359" xlink:href="#c"/>
<use x="122.341797" xlink:href="#g"/>
<use x="163.439453" xlink:href="#i"/>
<use x="260.851562" xlink:href="#h"/>
<use x="288.634766" xlink:href="#e"/>
<use x="352.013672" xlink:href="#j"/>
<use x="413.292969" xlink:href="#k"/>
</g>
</g>
<path d="m124.68 674.31 2.1668-5.119q0.93553-2.2102-1.2746-3.1457l-7.13-3.0181q-2.2102-0.93553-3.1457 1.2746l-2.1668 5.119q-0.93553 2.2102 1.2746 3.1457l7.13 3.0181q2.2102 0.93553 3.1457-1.2746z" clip-path="url(#a)" fill="#fff" stroke="#fff"/>
<g clip-path="url(#a)">
<defs>
<path id="ad" d="m44.391 34.188q3.1719-1.0781 6.1719-4.5938t6.0312-9.6719l10.016-19.922h-10.609l-9.3125 18.703q-3.625 7.3281-7.0156 9.7188t-9.25 2.3906h-10.75v-30.812h-9.8594v72.906h22.266q12.5 0 18.656-5.2344 6.1562-5.2188 6.1562-15.766 0-6.8906-3.2031-11.438-3.2031-4.5312-9.2969-6.2812zm-24.719 30.609v-25.875h12.406q7.125 0 10.766 3.2969t3.6406 9.6875-3.6406 9.6406-10.766 3.25z"/>
</defs>
<g transform="translate(120.94 672.73) rotate(-67.058) scale(.08 -.08)">
<use xlink:href="#ad"/>
</g>
</g>
<path d="m149.47 672.69 0.8213-4.5274q0.42839-2.3615-1.9331-2.7898l-7.6182-1.382q-2.3615-0.42839-2.7898 1.9331l-0.8213 4.5274q-0.42839 2.3615 1.9331 2.7898l7.6182 1.382q2.3615 0.42839 2.7898-1.9331z" clip-path="url(#a)" fill="#fff" stroke="#fff"/>
<g clip-path="url(#a)">
<g transform="translate(145.47 671.96) rotate(-79.718) scale(.08 -.08)">
<use xlink:href="#ae"/>
</g>
</g>
<path d="m161.01 666.9 0.33718 5.5761q0.14486 2.3956 2.5405 2.2508l7.7284-0.46733q2.3956-0.14486 2.2508-2.5405l-0.33718-5.5761q-0.14486-2.3956-2.5405-2.2508l-7.7284 0.46733q-2.3956 0.14486-2.2508 2.5405z" clip-path="url(#a)" fill="#fff" stroke="#fff"/>
<g clip-path="url(#a)">
<defs>
<path id="u" d="m64.406 67.281v-10.391q-4.9844 4.6406-10.625 6.9219-5.6406 2.2969-11.984 2.2969-12.5 0-19.141-7.6406t-6.6406-22.094q0-14.406 6.6406-22.047t19.141-7.6406q6.3438 0 11.984 2.2969t10.625 6.9375v-10.312q-5.1719-3.5156-10.969-5.2812-5.7812-1.75-12.219-1.75-16.562 0-26.094 10.125-9.5156 10.141-9.5156 27.672 0 17.578 9.5156 27.703 9.5312 10.141 26.094 10.141 6.5312 0 12.312-1.7344 5.7969-1.7344 10.875-5.2031z"/>
</defs>
<g transform="translate(165.06 666.65) rotate(86.54) scale(.08 -.08)">
<use xlink:href="#u"/>
</g>
</g>
<path d="m208.77 623.49 3.7107 3.4327q1.7618 1.6298 3.3915-0.132l5.2577-5.6835q1.6298-1.7618-0.132-3.3915l-3.7107-3.4327q-1.7618-1.6298-3.3915 0.132l-5.2577 5.6835q-1.6298 1.7618 0.132 3.3915z" clip-path="url(#a)" fill="#fff" stroke="#fff"/>
<g clip-path="url(#a)">
<defs>
<path id="x" d="m9.8125 72.906h46.094v-8.3125h-36.234v-21.578h34.719v-8.2969h-34.719v-26.422h37.109v-8.2969h-46.969z"/>
</defs>
<g transform="translate(211.53 620.51) rotate(42.771) scale(.08 -.08)">
<use xlink:href="#x"/>
</g>
</g>
<path d="m356.88 798.44v35.285q0 2.4 2.4 2.4h7.7425q2.4 0 2.4-2.4v-35.285q0-2.4-2.4-2.4h-7.7425q-2.4 0-2.4 2.4z" clip-path="url(#a)" fill="#fff" stroke="#fff"/>
<g clip-path="url(#a)">
<g transform="translate(360.94 798.44) rotate(90) scale(.08 -.08)">
<use xlink:href="#l"/>
<use x="60.818359" xlink:href="#c"/>
<use x="122.341797" xlink:href="#g"/>
<use x="163.439453" xlink:href="#i"/>
<use x="260.851562" xlink:href="#h"/>
<use x="288.634766" xlink:href="#e"/>
<use x="352.013672" xlink:href="#j"/>
<use x="413.292969" xlink:href="#k"/>
</g>
</g>
<path d="m404.33 798.44v35.285q0 2.4 2.4 2.4h7.7425q2.4 0 2.4-2.4v-35.285q0-2.4-2.4-2.4h-7.7425q-2.4 0-2.4 2.4z" clip-path="url(#a)" fill="#fff" stroke="#fff"/>
<g clip-path="url(#a)">
<g transform="translate(408.39 798.44) rotate(90) scale(.08 -.08)">
<use xlink:href="#l"/>
<use x="60.818359" xlink:href="#c"/>
<use x="122.341797" xlink:href="#g"/>
<use x="163.439453" xlink:href="#i"/>
<use x="260.851562" xlink:href="#h"/>
<use x="288.634766" xlink:href="#e"/>
<use x="352.013672" xlink:href="#j"/>
<use x="413.292969" xlink:href="#k"/>
</g>
</g>
<path d="m475.4 722.62 1.1962-4.9114q0.56794-2.3318-1.7639-2.8998l-7.5226-1.8322q-2.3318-0.56794-2.8998 1.7639l-1.1962 4.9114q-0.56794 2.3318 1.7639 2.8998l7.5226 1.8322q2.3318 0.56794 2.8998-1.7639z" clip-path="url(#a)" fill="#fff" stroke="#fff"/>
<g clip-path="url(#a)">
<g transform="translate(471.45 721.66) rotate(-76.311) scale(.08 -.08)">
<use xlink:href="#x"/>
</g>
</g>
<path d="m486.87 717.45 1.322 5.4276q0.56794 2.3318 2.8998 1.7639l7.5226-1.8322q2.3318-0.56794 1.7639-2.8998l-1.322-5.4276q-0.56794-2.3318-2.8998-1.7639l-7.5226 1.8322q-2.3318 0.56794-1.7639 2.8998z" clip-path="url(#a)" fill="#fff" stroke="#fff"/>
<g clip-path="url(#a)">
<g transform="translate(490.82 716.49) rotate(76.311) scale(.08 -.08)">
<use xlink:href="#u"/>
</g>
</g>
<path d="m609.88 518.7 1.1127-5.4743q0.47806-2.3519-1.8738-2.83l-7.5873-1.5422q-2.3519-0.47806-2.83 1.8738l-1.1127 5.4743q-0.47806 2.3519 1.8738 2.83l7.5873 1.5422q2.3519 0.47806 2.83-1.8738z" clip-path="url(#a)" fill="#fff" stroke="#fff"/>
<g clip-path="url(#a)">
<g transform="translate(605.9 517.89) rotate(-78.51) scale(.08 -.08)">
<use xlink:href="#u"/>
</g>
</g>
<path d="m700.75 317.4 3.5251 3.6231q1.6736 1.7201 3.3938 0.046497l5.5493-5.3993q1.7201-1.6736 0.046497-3.3938l-3.5251-3.6231q-1.6736-1.7201-3.3938-0.046497l-5.5493 5.3993q-1.7201 1.6736-0.046497 3.3938z" clip-path="url(#a)" fill="#fff" stroke="#fff"/>
<g clip-path="url(#a)">
<g transform="translate(703.67 314.56) rotate(45.785) scale(.08 -.08)">
<use xlink:href="#x"/>
</g>
</g>
<path d="m594.11 798.44v35.285q0 2.4 2.4 2.4h7.7425q2.4 0 2.4-2.4v-35.285q0-2.4-2.4-2.4h-7.7425q-2.4 0-2.4 2.4z" clip-path="url(#a)" fill="#fff" stroke="#fff"/>
<g clip-path="url(#a)">
<g transform="translate(598.17 798.44) rotate(90) scale(.08 -.08)">
<use xlink:href="#l"/>
<use x="60.818359" xlink:href="#c"/>
<use x="122.341797" xlink:href="#g"/>
<use x="163.439453" xlink:href="#i"/>
<use x="260.851562" xlink:href="#h"/>
<use x="288.634766" xlink:href="#e"/>
<use x="352.013672" xlink:href="#j"/>
<use x="413.292969" xlink:href="#k"/>
</g>
</g>
<path d="m546.66 798.44v35.285q0 2.4 2.4 2.4h7.7425q2.4 0 2.4-2.4v-35.285q0-2.4-2.4-2.4h-7.7425q-2.4 0-2.4 2.4z" clip-path="url(#a)" fill="#fff" stroke="#fff"/>
<g clip-path="url(#a)">
<g transform="translate(550.73 798.44) rotate(90) scale(.08 -.08)">
<use xlink:href="#l"/>
<use x="60.818359" xlink:href="#c"/>
<use x="122.341797" xlink:href="#g"/>
<use x="163.439453" xlink:href="#i"/>
<use x="260.851562" xlink:href="#h"/>
<use x="288.634766" xlink:href="#e"/>
<use x="352.013672" xlink:href="#j"/>
<use x="413.292969" xlink:href="#k"/>
</g>
</g>
<path d="m716.09 523.55 1.7986-5.7411q0.71751-2.2902-1.5727-3.0077l-7.3884-2.3147q-2.2902-0.71751-3.0077 1.5727l-1.7986 5.7411q-0.71751 2.2902 1.5727 3.0077l7.3884 2.3147q2.2902 0.71751 3.0077-1.5727z" clip-path="url(#a)" fill="#fff" stroke="#fff"/>
<g clip-path="url(#a)">
<g transform="translate(712.21 522.33) rotate(-72.605) scale(.08 -.08)">
<use xlink:href="#w"/>
</g>
</g>
<path d="m782.92 419.8 3.1378 5.1332q1.2517 2.0477 3.2995 0.79598l6.606-4.0382q2.0477-1.2517 0.79598-3.2995l-3.1378-5.1332q-1.2517-2.0477-3.2995-0.79598l-6.606 4.0382q-2.0477 1.2517-0.79598 3.2995z" clip-path="url(#a)" fill="#fff" stroke="#fff"/>
<g clip-path="url(#a)">
<g transform="translate(786.38 417.68) rotate(58.563) scale(.08 -.08)">
<use xlink:href="#w"/>
</g>
</g>
<path d="m767.78 565.08 0.46422 5.8366q0.19028 2.3924 2.5827 2.2022l7.7181-0.61387q2.3924-0.19028 2.2022-2.5827l-0.46422-5.8366q-0.19028-2.3924-2.5827-2.2022l-7.7181 0.61387q-2.3924 0.19028-2.2022 2.5827z" clip-path="url(#a)" fill="#fff" stroke="#fff"/>
<g clip-path="url(#a)">
<g transform="translate(771.83 564.76) rotate(85.453) scale(.08 -.08)">
<use xlink:href="#ab"/>
</g>
</g>
<path d="m610.38 725.2 4.1087-3.6148q1.8019-1.5853 0.21659-3.3872l-5.1143-5.813q-1.5853-1.8019-3.3872-0.21659l-4.1087 3.6148q-1.8019 1.5853-0.21659 3.3872l5.1143 5.813q1.5853 1.8019 3.3872 0.21659z" clip-path="url(#a)" fill="#fff" stroke="#fff"/>
<g clip-path="url(#a)">
<g transform="translate(607.69 722.15) rotate(-41.341) scale(.08 -.08)">
<use xlink:href="#q"/>
</g>
</g>
<path d="m672.54 717.69 1.9026 5.8588q0.74129 2.2826 3.0239 1.5414l7.3639-2.3914q2.2826-0.74129 1.5414-3.0239l-1.9026-5.8588q-0.74129-2.2827-3.0239-1.5414l-7.3639 2.3914q-2.2826 0.74129-1.5414 3.0239z" clip-path="url(#a)" fill="#fff" stroke="#fff"/>
<g clip-path="url(#a)">
<g transform="translate(676.41 716.44) rotate(72.009) scale(.08 -.08)">
<use xlink:href="#t"/>
</g>
</g>
<path d="m696.71 720.67 3.2011 3.9429q1.5127 1.8632 3.376 0.35053l6.0109-4.8801q1.8632-1.5127 0.35053-3.376l-3.2011-3.9429q-1.5127-1.8632-3.376-0.35053l-6.0109 4.8801q-1.8632 1.5127-0.35053 3.376z" clip-path="url(#a)" fill="#fff" stroke="#fff"/>
<g clip-path="url(#a)">
<g transform="translate(699.87 718.1) rotate(50.928) scale(.08 -.08)">
<use xlink:href="#ac"/>
</g>
</g>
<path d="m689.93 625.21 3.6702-4.0593q1.6096-1.7802-0.17061-3.3898l-5.7431-5.1926q-1.7802-1.6096-3.3898 0.17061l-3.6702 4.0593q-1.6096 1.7802 0.17061 3.3898l5.7431 5.1926q1.7802 1.6096 3.3898-0.17061z" clip-path="url(#a)" fill="#fff" stroke="#fff"/>
<g clip-path="url(#a)">
<g transform="translate(686.92 622.49) rotate(-47.881) scale(.08 -.08)">
<use xlink:href="#q"/>
</g>
</g>
<path d="m823.05 616.79 0.27865 5.0711q0.13168 2.3964 2.5281 2.2647l7.7308-0.4248q2.3964-0.13168 2.2647-2.5281l-0.27865-5.0711q-0.13168-2.3964-2.5281-2.2647l-7.7308 0.4248q-2.3964 0.13168-2.2647 2.5281z" clip-path="url(#a)" fill="#fff" stroke="#fff"/>
<g clip-path="url(#a)">
<g transform="translate(827.11 616.56) rotate(86.855) scale(.08 -.08)">
<use xlink:href="#ac"/>
</g>
</g>
<path d="m846.4 617.28 1.2937 6.0226q0.50402 2.3465 2.8505 1.8425l7.5698-1.626q2.3465-0.50403 1.8425-2.8505l-1.2937-6.0226q-0.50402-2.3465-2.8505-1.8425l-7.5698 1.626q-2.3465 0.50402-1.8425 2.8505z" clip-path="url(#a)" fill="#fff" stroke="#fff"/>
<g clip-path="url(#a)">
<g transform="translate(850.37 616.43) rotate(77.877) scale(.08 -.08)">
<use xlink:href="#t"/>
</g>
</g>
<path d="m910.08 525.14 4.8262 2.5799q2.1166 1.1314 3.248-0.98515l3.65-6.8282q1.1314-2.1166-0.98516-3.248l-4.8262-2.5799q-2.1166-1.1314-3.248 0.98516l-3.65 6.8282q-1.1314 2.1166 0.98515 3.248z" clip-path="url(#a)" fill="#fff" stroke="#fff"/>
<g clip-path="url(#a)">
<g transform="translate(912 521.56) rotate(28.127) scale(.08 -.08)">
<use xlink:href="#q"/>
</g>
</g>
<path d="m831.34 798.44v35.285q0 2.4 2.4 2.4h7.7425q2.4 0 2.4-2.4v-35.285q0-2.4-2.4-2.4h-7.7425q-2.4 0-2.4 2.4z" clip-path="url(#a)" fill="#fff" stroke="#fff"/>
<g clip-path="url(#a)">
<g transform="translate(835.4 798.44) rotate(90) scale(.08 -.08)">
<use xlink:href="#l"/>
<use x="60.818359" xlink:href="#c"/>
<use x="122.341797" xlink:href="#g"/>
<use x="163.439453" xlink:href="#i"/>
<use x="260.851562" xlink:href="#h"/>
<use x="288.634766" xlink:href="#e"/>
<use x="352.013672" xlink:href="#j"/>
<use x="413.292969" xlink:href="#k"/>
</g>
</g>
<path d="m878.79 798.44v35.285q0 2.4 2.4 2.4h7.7425q2.4 0 2.4-2.4v-35.285q0-2.4-2.4-2.4h-7.7425q-2.4 0-2.4 2.4z" clip-path="url(#a)" fill="#fff" stroke="#fff"/>
<g clip-path="url(#a)">
<g transform="translate(882.85 798.44) rotate(90) scale(.08 -.08)">
<use xlink:href="#l"/>
<use x="60.818359" xlink:href="#c"/>
<use x="122.341797" xlink:href="#g"/>
<use x="163.439453" xlink:href="#i"/>
<use x="260.851562" xlink:href="#h"/>
<use x="288.634766" xlink:href="#e"/>
<use x="352.013672" xlink:href="#j"/>
<use x="413.292969" xlink:href="#k"/>
</g>
</g>
<path d="m975.87 674.19 2.0335-5.1735q0.87795-2.2337-1.3557-3.1116l-7.2059-2.8323q-2.2337-0.87795-3.1116 1.3557l-2.0335 5.1735q-0.87795 2.2337 1.3557 3.1116l7.2059 2.8323q2.2337 0.87795 3.1116-1.3557z" clip-path="url(#a)" fill="#fff" stroke="#fff"/>
<g clip-path="url(#a)">
<g transform="translate(972.09 672.7) rotate(-68.542) scale(.08 -.08)">
<use xlink:href="#ad"/>
</g>
</g>
<path d="m1000.5 673.36 0.94133-6.2268q0.35874-2.373-2.0143-2.7318l-7.6555-1.1573q-2.373-0.35874-2.7318 2.0143l-0.94133 6.2268q-0.35874 2.373 2.0143 2.7318l7.6555 1.1573q2.373 0.35874 2.7318-2.0143z" clip-path="url(#a)" fill="#fff" stroke="#fff"/>
<g clip-path="url(#a)">
<defs>
<path id="au" d="m39.406 66.219q-10.75 0-17.078-8.0156-6.3125-8-6.3125-21.828 0-13.766 6.3125-21.781 6.3281-8 17.078-8 10.734 0 17.016 8 6.2812 8.0156 6.2812 21.781 0 13.828-6.2812 21.828-6.2812 8.0156-17.016 8.0156zm13.812-64.906 13-14.203h-11.922l-10.797 11.672q-1.6094-0.09375-2.4688-0.14062-0.84375-0.0625-1.625-0.0625-15.375 0-24.594 10.281-9.2031 10.281-9.2031 27.516 0 17.281 9.2031 27.562 9.2188 10.281 24.594 10.281 15.328 0 24.5-10.281 9.1875-10.281 9.1875-27.562 0-12.688-5.1094-21.734-5.0938-9.0312-14.766-13.328z"/>
</defs>
<g transform="translate(996.49 672.75) rotate(-81.403) scale(.08 -.08)">
<use xlink:href="#au"/>
</g>
</g>
<path d="m1012 667.09 0.50463 5.5634q0.2168 2.3902 2.607 2.1734l7.7108-0.69941q2.3902-0.2168 2.1734-2.607l-0.50463-5.5634q-0.2168-2.3902-2.607-2.1734l-7.7108 0.69941q-2.3902 0.2168-2.1734 2.607z" clip-path="url(#a)" fill="#fff" stroke="#fff"/>
<g clip-path="url(#a)">
<g transform="translate(1016 666.72) rotate(84.817) scale(.08 -.08)">
<use xlink:href="#u"/>
</g>
</g>
<path d="m1047.7 622.93 3.3833 3.7558q1.6063 1.7832 3.3895 0.17685l5.7526-5.1821q1.7832-1.6063 0.17685-3.3895l-3.3833-3.7558q-1.6063-1.7832-3.3895-0.17685l-5.7526 5.1821q-1.7832 1.6063-0.17685 3.3895z" clip-path="url(#a)" fill="#fff" stroke="#fff"/>
<g clip-path="url(#a)">
<g transform="translate(1050.8 620.21) rotate(47.987) scale(.08 -.08)">
<use xlink:href="#x"/>
</g>
</g>
<path d="m926.23 798.44v35.285q0 2.4 2.4 2.4h7.7425q2.4 0 2.4-2.4v-35.285q0-2.4-2.4-2.4h-7.7425q-2.4 0-2.4 2.4z" clip-path="url(#a)" fill="#fff" stroke="#fff"/>
<g clip-path="url(#a)">
<g transform="translate(930.29 798.44) rotate(90) scale(.08 -.08)">
<use xlink:href="#l"/>
<use x="60.818359" xlink:href="#c"/>
<use x="122.341797" xlink:href="#g"/>
<use x="163.439453" xlink:href="#i"/>
<use x="260.851562" xlink:href="#h"/>
<use x="288.634766" xlink:href="#e"/>
<use x="352.013672" xlink:href="#j"/>
<use x="413.292969" xlink:href="#k"/>
</g>
</g>
<path d="m973.68 798.44v35.285q0 2.4 2.4 2.4h7.7425q2.4 0 2.4-2.4v-35.285q0-2.4-2.4-2.4h-7.7425q-2.4 0-2.4 2.4z" clip-path="url(#a)" fill="#fff" stroke="#fff"/>
<g clip-path="url(#a)">
<g transform="translate(977.74 798.44) rotate(90) scale(.08 -.08)">
<use xlink:href="#l"/>
<use x="60.818359" xlink:href="#c"/>
<use x="122.341797" xlink:href="#g"/>
<use x="163.439453" xlink:href="#i"/>
<use x="260.851562" xlink:href="#h"/>
<use x="288.634766" xlink:href="#e"/>
<use x="352.013672" xlink:href="#j"/>
<use x="413.292969" xlink:href="#k"/>
</g>
</g>
<path d="m1021.1 798.44v35.285q0 2.4 2.4 2.4h7.7425q2.4 0 2.4-2.4v-35.285q0-2.4-2.4-2.4h-7.7425q-2.4 0-2.4 2.4z" clip-path="url(#a)" fill="#fff" stroke="#fff"/>
<g clip-path="url(#a)">
<g transform="translate(1025.2 798.44) rotate(90) scale(.08 -.08)">
<use xlink:href="#l"/>
<use x="60.818359" xlink:href="#c"/>
<use x="122.341797" xlink:href="#g"/>
<use x="163.439453" xlink:href="#i"/>
<use x="260.851562" xlink:href="#h"/>
<use x="288.634766" xlink:href="#e"/>
<use x="352.013672" xlink:href="#j"/>
<use x="413.292969" xlink:href="#k"/>
</g>
</g>
<path d="m1092.1 722.87 1.3154-5.4009q0.56794-2.3318-1.7639-2.8998l-7.5226-1.8322q-2.3318-0.56794-2.8998 1.7639l-1.3154 5.4009q-0.56794 2.3318 1.7639 2.8998l7.5226 1.8322q2.3318 0.56794 2.8998-1.7639z" clip-path="url(#a)" fill="#fff" stroke="#fff"/>
<g clip-path="url(#a)">
<g transform="translate(1088.2 721.91) rotate(-76.311) scale(.08 -.08)">
<use xlink:href="#ad"/>
</g>
</g>
<path d="m1103.7 717.45 1.322 5.4276q0.56794 2.3318 2.8998 1.7639l7.5226-1.8322q2.3318-0.56794 1.7639-2.8998l-1.322-5.4276q-0.56794-2.3318-2.8998-1.7639l-7.5226 1.8322q-2.3318 0.56794-1.7639 2.8998z" clip-path="url(#a)" fill="#fff" stroke="#fff"/>
<g clip-path="url(#a)">
<g transform="translate(1107.6 716.49) rotate(76.311) scale(.08 -.08)">
<use xlink:href="#u"/>
</g>
</g>
<path d="m1068.6 798.44v35.285q0 2.4 2.4 2.4h7.7425q2.4 0 2.4-2.4v-35.285q0-2.4-2.4-2.4h-7.7425q-2.4 0-2.4 2.4z" clip-path="url(#a)" fill="#fff" stroke="#fff"/>
<g clip-path="url(#a)">
<g transform="translate(1072.6 798.44) rotate(90) scale(.08 -.08)">
<use xlink:href="#l"/>
<use x="60.818359" xlink:href="#c"/>
<use x="122.341797" xlink:href="#g"/>
<use x="163.439453" xlink:href="#i"/>
<use x="260.851562" xlink:href="#h"/>
<use x="288.634766" xlink:href="#e"/>
<use x="352.013672" xlink:href="#j"/>
<use x="413.292969" xlink:href="#k"/>
</g>
</g>
<path d="m1116 798.44v35.285q0 2.4 2.4 2.4h7.7425q2.4 0 2.4-2.4v-35.285q0-2.4-2.4-2.4h-7.7425q-2.4 0-2.4 2.4z" clip-path="url(#a)" fill="#fff" stroke="#fff"/>
<g clip-path="url(#a)">
<g transform="translate(1120.1 798.44) rotate(90) scale(.08 -.08)">
<use xlink:href="#l"/>
<use x="60.818359" xlink:href="#c"/>
<use x="122.341797" xlink:href="#g"/>
<use x="163.439453" xlink:href="#i"/>
<use x="260.851562" xlink:href="#h"/>
<use x="288.634766" xlink:href="#e"/>
<use x="352.013672" xlink:href="#j"/>
<use x="413.292969" xlink:href="#k"/>
</g>
</g>
<path d="m689 798.44v35.285q0 2.4 2.4 2.4h7.7425q2.4 0 2.4-2.4v-35.285q0-2.4-2.4-2.4h-7.7425q-2.4 0-2.4 2.4z" clip-path="url(#a)" fill="#fff" stroke="#fff"/>
<g clip-path="url(#a)">
<g transform="translate(693.06 798.44) rotate(90) scale(.08 -.08)">
<use xlink:href="#l"/>
<use x="60.818359" xlink:href="#c"/>
<use x="122.341797" xlink:href="#g"/>
<use x="163.439453" xlink:href="#i"/>
<use x="260.851562" xlink:href="#h"/>
<use x="288.634766" xlink:href="#e"/>
<use x="352.013672" xlink:href="#j"/>
<use x="413.292969" xlink:href="#k"/>
</g>
</g>
<path d="m736.45 798.44v35.285q0 2.4 2.4 2.4h7.7425q2.4 0 2.4-2.4v-35.285q0-2.4-2.4-2.4h-7.7425q-2.4 0-2.4 2.4z" clip-path="url(#a)" fill="#fff" stroke="#fff"/>
<g clip-path="url(#a)">
<g transform="translate(740.51 798.44) rotate(90) scale(.08 -.08)">
<use xlink:href="#l"/>
<use x="60.818359" xlink:href="#c"/>
<use x="122.341797" xlink:href="#g"/>
<use x="163.439453" xlink:href="#i"/>
<use x="260.851562" xlink:href="#h"/>
<use x="288.634766" xlink:href="#e"/>
<use x="352.013672" xlink:href="#j"/>
<use x="413.292969" xlink:href="#k"/>
</g>
</g>
<path d="m451.77 798.44v35.285q0 2.4 2.4 2.4h7.7425q2.4 0 2.4-2.4v-35.285q0-2.4-2.4-2.4h-7.7425q-2.4 0-2.4 2.4z" clip-path="url(#a)" fill="#fff" stroke="#fff"/>
<g clip-path="url(#a)">
<g transform="translate(455.84 798.44) rotate(90) scale(.08 -.08)">
<use xlink:href="#l"/>
<use x="60.818359" xlink:href="#c"/>
<use x="122.341797" xlink:href="#g"/>
<use x="163.439453" xlink:href="#i"/>
<use x="260.851562" xlink:href="#h"/>
<use x="288.634766" xlink:href="#e"/>
<use x="352.013672" xlink:href="#j"/>
<use x="413.292969" xlink:href="#k"/>
</g>
</g>
<path d="m499.22 798.44v35.285q0 2.4 2.4 2.4h7.7425q2.4 0 2.4-2.4v-35.285q0-2.4-2.4-2.4h-7.7425q-2.4 0-2.4 2.4z" clip-path="url(#a)" fill="#fff" stroke="#fff"/>
<g clip-path="url(#a)">
<g transform="translate(503.28 798.44) rotate(90) scale(.08 -.08)">
<use xlink:href="#l"/>
<use x="60.818359" xlink:href="#c"/>
<use x="122.341797" xlink:href="#g"/>
<use x="163.439453" xlink:href="#i"/>
<use x="260.851562" xlink:href="#h"/>
<use x="288.634766" xlink:href="#e"/>
<use x="352.013672" xlink:href="#j"/>
<use x="413.292969" xlink:href="#k"/>
</g>
</g>
<path d="m72.204 798.44v35.285q0 2.4 2.4 2.4h7.7425q2.4 0 2.4-2.4v-35.285q0-2.4-2.4-2.4h-7.7425q-2.4 0-2.4 2.4z" clip-path="url(#a)" fill="#fff" stroke="#fff"/>
<g clip-path="url(#a)">
<g transform="translate(76.267 798.44) rotate(90) scale(.08 -.08)">
<use xlink:href="#l"/>
<use x="60.818359" xlink:href="#c"/>
<use x="122.341797" xlink:href="#g"/>
<use x="163.439453" xlink:href="#i"/>
<use x="260.851562" xlink:href="#h"/>
<use x="288.634766" xlink:href="#e"/>
<use x="352.013672" xlink:href="#j"/>
<use x="413.292969" xlink:href="#k"/>
</g>
</g>
<path d="m119.65 798.44v35.285q0 2.4 2.4 2.4h7.7425q2.4 0 2.4-2.4v-35.285q0-2.4-2.4-2.4h-7.7425q-2.4 0-2.4 2.4z" clip-path="url(#a)" fill="#fff" stroke="#fff"/>
<g clip-path="url(#a)">
<g transform="translate(123.71 798.44) rotate(90) scale(.08 -.08)">
<use xlink:href="#l"/>
<use x="60.818359" xlink:href="#c"/>
<use x="122.341797" xlink:href="#g"/>
<use x="163.439453" xlink:href="#i"/>
<use x="260.851562" xlink:href="#h"/>
<use x="288.634766" xlink:href="#e"/>
<use x="352.013672" xlink:href="#j"/>
<use x="413.292969" xlink:href="#k"/>
</g>
</g>
<path d="m167.1 798.44v35.285q0 2.4 2.4 2.4h7.7425q2.4 0 2.4-2.4v-35.285q0-2.4-2.4-2.4h-7.7425q-2.4 0-2.4 2.4z" clip-path="url(#a)" fill="#fff" stroke="#fff"/>
<g clip-path="url(#a)">
<g transform="translate(171.16 798.44) rotate(90) scale(.08 -.08)">
<use xlink:href="#l"/>
<use x="60.818359" xlink:href="#c"/>
<use x="122.341797" xlink:href="#g"/>
<use x="163.439453" xlink:href="#i"/>
<use x="260.851562" xlink:href="#h"/>
<use x="288.634766" xlink:href="#e"/>
<use x="352.013672" xlink:href="#j"/>
<use x="413.292969" xlink:href="#k"/>
</g>
</g>
<path d="m248.96 723.93 2.4343-4.9974q1.051-2.1576-1.1066-3.2087l-6.9606-3.3907q-2.1576-1.051-3.2087 1.1066l-2.4343 4.9974q-1.051 2.1576 1.1066 3.2087l6.9606 3.3907q2.1576 1.051 3.2087-1.1066z" clip-path="url(#a)" fill="#fff" stroke="#fff"/>
<g clip-path="url(#a)">
<g transform="translate(245.3 722.15) rotate(-64.028) scale(.08 -.08)">
<use xlink:href="#ad"/>
</g>
</g>
<path d="m261.99 716.16v5.055q0 2.4 2.4 2.4h7.7425q2.4 0 2.4-2.4v-5.055q0-2.4-2.4-2.4h-7.7425q-2.4 0-2.4 2.4z" clip-path="url(#a)" fill="#fff" stroke="#fff"/>
<g clip-path="url(#a)">
<g transform="translate(266.05 716.16) rotate(90) scale(.08 -.08)">
<use xlink:href="#x"/>
</g>
</g>
<path d="m285.12 718.92 2.4464 5.0221q1.051 2.1576 3.2087 1.1066l6.9606-3.3907q2.1576-1.051 1.1066-3.2087l-2.4464-5.0221q-1.051-2.1576-3.2087-1.1066l-6.9606 3.3907q-2.1576 1.051-1.1066 3.2087z" clip-path="url(#a)" fill="#fff" stroke="#fff"/>
<g clip-path="url(#a)">
<g transform="translate(288.77 717.14) rotate(64.028) scale(.08 -.08)">
<use xlink:href="#u"/>
</g>
</g>
<path d="m214.54 798.44v35.285q0 2.4 2.4 2.4h7.7425q2.4 0 2.4-2.4v-35.285q0-2.4-2.4-2.4h-7.7425q-2.4 0-2.4 2.4z" clip-path="url(#a)" fill="#fff" stroke="#fff"/>
<g clip-path="url(#a)">
<g transform="translate(218.61 798.44) rotate(90) scale(.08 -.08)">
<use xlink:href="#l"/>
<use x="60.818359" xlink:href="#c"/>
<use x="122.341797" xlink:href="#g"/>
<use x="163.439453" xlink:href="#i"/>
<use x="260.851562" xlink:href="#h"/>
<use x="288.634766" xlink:href="#e"/>
<use x="352.013672" xlink:href="#j"/>
<use x="413.292969" xlink:href="#k"/>
</g>
</g>
<path d="m261.99 798.44v35.285q0 2.4 2.4 2.4h7.7425q2.4 0 2.4-2.4v-35.285q0-2.4-2.4-2.4h-7.7425q-2.4 0-2.4 2.4z" clip-path="url(#a)" fill="#fff" stroke="#fff"/>
<g clip-path="url(#a)">
<g transform="translate(266.05 798.44) rotate(90) scale(.08 -.08)">
<use xlink:href="#l"/>
<use x="60.818359" xlink:href="#c"/>
<use x="122.341797" xlink:href="#g"/>
<use x="163.439453" xlink:href="#i"/>
<use x="260.851562" xlink:href="#h"/>
<use x="288.634766" xlink:href="#e"/>
<use x="352.013672" xlink:href="#j"/>
<use x="413.292969" xlink:href="#k"/>
</g>
</g>
<path d="m309.43 798.44v35.285q0 2.4 2.4 2.4h7.7425q2.4 0 2.4-2.4v-35.285q0-2.4-2.4-2.4h-7.7425q-2.4 0-2.4 2.4z" clip-path="url(#a)" fill="#fff" stroke="#fff"/>
<g clip-path="url(#a)">
<g transform="translate(313.5 798.44) rotate(90) scale(.08 -.08)">
<use xlink:href="#l"/>
<use x="60.818359" xlink:href="#c"/>
<use x="122.341797" xlink:href="#g"/>
<use x="163.439453" xlink:href="#i"/>
<use x="260.851562" xlink:href="#h"/>
<use x="288.634766" xlink:href="#e"/>
<use x="352.013672" xlink:href="#j"/>
<use x="413.292969" xlink:href="#k"/>
</g>
</g>
<path d="m641.56 798.44v35.285q0 2.4 2.4 2.4h7.7425q2.4 0 2.4-2.4v-35.285q0-2.4-2.4-2.4h-7.7425q-2.4 0-2.4 2.4z" clip-path="url(#a)" fill="#fff" stroke="#fff"/>
<g clip-path="url(#a)">
<g transform="translate(645.62 798.44) rotate(90) scale(.08 -.08)">
<use xlink:href="#l"/>
<use x="60.818359" xlink:href="#c"/>
<use x="122.341797" xlink:href="#g"/>
<use x="163.439453" xlink:href="#i"/>
<use x="260.851562" xlink:href="#h"/>
<use x="288.634766" xlink:href="#e"/>
<use x="352.013672" xlink:href="#j"/>
<use x="413.292969" xlink:href="#k"/>
</g>
</g>
<path d="m783.89 798.44v35.285q0 2.4 2.4 2.4h7.7425q2.4 0 2.4-2.4v-35.285q0-2.4-2.4-2.4h-7.7425q-2.4 0-2.4 2.4z" clip-path="url(#a)" fill="#fff" stroke="#fff"/>
<g clip-path="url(#a)">
<g transform="translate(787.96 798.44) rotate(90) scale(.08 -.08)">
<use xlink:href="#l"/>
<use x="60.818359" xlink:href="#c"/>
<use x="122.341797" xlink:href="#g"/>
<use x="163.439453" xlink:href="#i"/>
<use x="260.851562" xlink:href="#h"/>
<use x="288.634766" xlink:href="#e"/>
<use x="352.013672" xlink:href="#j"/>
<use x="413.292969" xlink:href="#k"/>
</g>
</g>
<path d="m1163.5 798.44v35.285q0 2.4 2.4 2.4h7.7425q2.4 0 2.4-2.4v-35.285q0-2.4-2.4-2.4h-7.7425q-2.4 0-2.4 2.4z" clip-path="url(#a)" fill="#fff" stroke="#fff"/>
<g clip-path="url(#a)">
<g transform="translate(1167.5 798.44) rotate(90) scale(.08 -.08)">
<use xlink:href="#l"/>
<use x="60.818359" xlink:href="#c"/>
<use x="122.341797" xlink:href="#g"/>
<use x="163.439453" xlink:href="#i"/>
<use x="260.851562" xlink:href="#h"/>
<use x="288.634766" xlink:href="#e"/>
<use x="352.013672" xlink:href="#j"/>
<use x="413.292969" xlink:href="#k"/>
</g>
</g>
<path d="m1637.9 798.44v35.285q0 2.4 2.4 2.4h7.7425q2.4 0 2.4-2.4v-35.285q0-2.4-2.4-2.4h-7.7425q-2.4 0-2.4 2.4z" clip-path="url(#a)" fill="#fff" stroke="#fff"/>
<g clip-path="url(#a)">
<g transform="translate(1642 798.44) rotate(90) scale(.08 -.08)">
<use xlink:href="#l"/>
<use x="60.818359" xlink:href="#c"/>
<use x="122.341797" xlink:href="#g"/>
<use x="163.439453" xlink:href="#i"/>
<use x="260.851562" xlink:href="#h"/>
<use x="288.634766" xlink:href="#e"/>
<use x="352.013672" xlink:href="#j"/>
<use x="413.292969" xlink:href="#k"/>
</g>
</g>
<defs>
<path id="b" d="m0 8.6603c2.2967 0 4.4997-0.9125 6.1237-2.5365 1.624-1.624 2.5365-3.827 2.5365-6.1237s-0.9125-4.4997-2.5365-6.1237c-1.624-1.624-3.827-2.5365-6.1237-2.5365s-4.4997 0.9125-6.1237 2.5365c-1.624 1.624-2.5365 3.827-2.5365 6.1237s0.9125 4.4997 2.5365 6.1237c1.624 1.624 3.827 2.5365 6.1237 2.5365z"/>
</defs>
<g clip-path="url(#a)">
<use x="78.474766" y="864.784698" fill="#ffffff" stroke="#ffffff" xlink:href="#b"/>
</g>
<g clip-path="url(#a)">
<use x="125.92074" y="864.784698" fill="#ffffff" stroke="#ffffff" xlink:href="#b"/>
</g>
<g clip-path="url(#a)">
<use x="173.366714" y="864.784698" fill="#ffffff" stroke="#ffffff" xlink:href="#b"/>
</g>
<g clip-path="url(#a)">
<use x="220.812688" y="864.784698" fill="#ffffff" stroke="#ffffff" xlink:href="#b"/>
</g>
<g clip-path="url(#a)">
<use x="268.258661" y="864.784698" fill="#ffffff" stroke="#ffffff" xlink:href="#b"/>
</g>
<g clip-path="url(#a)">
<use x="315.704635" y="864.784698" fill="#ffffff" stroke="#ffffff" xlink:href="#b"/>
</g>
<g clip-path="url(#a)">
<use x="363.150609" y="864.784698" fill="#ffffff" stroke="#ffffff" xlink:href="#b"/>
</g>
<g clip-path="url(#a)">
<use x="410.596583" y="864.784698" fill="#ffffff" stroke="#ffffff" xlink:href="#b"/>
</g>
<g clip-path="url(#a)">
<use x="458.042556" y="864.784698" fill="#ffffff" stroke="#ffffff" xlink:href="#b"/>
</g>
<g clip-path="url(#a)">
<use x="505.48853" y="864.784698" fill="#ffffff" stroke="#ffffff" xlink:href="#b"/>
</g>
<g clip-path="url(#a)">
<use x="552.934504" y="864.784698" fill="#ffffff" stroke="#ffffff" xlink:href="#b"/>
</g>
<g clip-path="url(#a)">
<use x="600.380478" y="864.784698" fill="#ffffff" stroke="#ffffff" xlink:href="#b"/>
</g>
<g clip-path="url(#a)">
<use x="647.826451" y="864.784698" fill="#ffffff" stroke="#ffffff" xlink:href="#b"/>
</g>
<g clip-path="url(#a)">
<use x="695.272425" y="864.784698" fill="#ffffff" stroke="#ffffff" xlink:href="#b"/>
</g>
<g clip-path="url(#a)">
<use x="742.718399" y="864.784698" fill="#ffffff" stroke="#ffffff" xlink:href="#b"/>
</g>
<g clip-path="url(#a)">
<use x="790.164373" y="864.784698" fill="#ffffff" stroke="#ffffff" xlink:href="#b"/>
</g>
<g clip-path="url(#a)">
<use x="837.610346" y="864.784698" fill="#ffffff" stroke="#ffffff" xlink:href="#b"/>
</g>
<g clip-path="url(#a)">
<use x="885.05632" y="864.784698" fill="#ffffff" stroke="#ffffff" xlink:href="#b"/>
</g>
<g clip-path="url(#a)">
<use x="932.502294" y="864.784698" fill="#ffffff" stroke="#ffffff" xlink:href="#b"/>
</g>
<g clip-path="url(#a)">
<use x="979.948268" y="864.784698" fill="#ffffff" stroke="#ffffff" xlink:href="#b"/>
</g>
<g clip-path="url(#a)">
<use x="1027.394241" y="864.784698" fill="#ffffff" stroke="#ffffff" xlink:href="#b"/>
</g>
<g clip-path="url(#a)">
<use x="1074.840215" y="864.784698" fill="#ffffff" stroke="#ffffff" xlink:href="#b"/>
</g>
<g clip-path="url(#a)">
<use x="1122.286189" y="864.784698" fill="#ffffff" stroke="#ffffff" xlink:href="#b"/>
</g>
<g clip-path="url(#a)">
<use x="1169.732163" y="864.784698" fill="#ffffff" stroke="#ffffff" xlink:href="#b"/>
</g>
<g clip-path="url(#a)">
<use x="1217.178137" y="864.784698" fill="#ffffff" stroke="#ffffff" xlink:href="#b"/>
</g>
<g clip-path="url(#a)">
<use x="1264.62411" y="864.784698" fill="#ffffff" stroke="#ffffff" xlink:href="#b"/>
</g>
<g clip-path="url(#a)">
<use x="1312.070084" y="864.784698" fill="#ffffff" stroke="#ffffff" xlink:href="#b"/>
</g>
<g clip-path="url(#a)">
<use x="1359.516058" y="864.784698" fill="#ffffff" stroke="#ffffff" xlink:href="#b"/>
</g>
<g clip-path="url(#a)">
<use x="1406.962032" y="864.784698" fill="#ffffff" stroke="#ffffff" xlink:href="#b"/>
</g>
<g clip-path="url(#a)">
<use x="1454.408005" y="864.784698" fill="#ffffff" stroke="#ffffff" xlink:href="#b"/>
</g>
<g clip-path="url(#a)">
<use x="1501.853979" y="864.784698" fill="#ffffff" stroke="#ffffff" xlink:href="#b"/>
</g>
<g clip-path="url(#a)">
<use x="1549.299953" y="864.784698" fill="#ffffff" stroke="#ffffff" xlink:href="#b"/>
</g>
<g clip-path="url(#a)">
<use x="1596.745927" y="864.784698" fill="#ffffff" stroke="#ffffff" xlink:href="#b"/>
</g>
<g clip-path="url(#a)">
<use x="1644.1919" y="864.784698" fill="#ffffff" stroke="#ffffff" xlink:href="#b"/>
</g>
<g clip-path="url(#a)">
<use x="1196.728828" y="41.881969" fill="#ffffff" stroke="#ffffff" xlink:href="#b"/>
</g>
<g clip-path="url(#a)">
<use x="474.410947" y="153.563939" fill="#ffffff" stroke="#ffffff" xlink:href="#b"/>
</g>
<g clip-path="url(#a)">
<use x="1312.070084" y="669.984078" fill="#ffffff" stroke="#ffffff" xlink:href="#b"/>
</g>
<g clip-path="url(#a)">
<use x="1454.408005" y="767.384388" fill="#ffffff" stroke="#ffffff" xlink:href="#b"/>
</g>
<g clip-path="url(#a)">
<use x="1573.02294" y="669.984078" fill="#ffffff" stroke="#ffffff" xlink:href="#b"/>
</g>
<g clip-path="url(#a)">
<use x="1501.853979" y="767.384388" fill="#ffffff" stroke="#ffffff" xlink:href="#b"/>
</g>
<g clip-path="url(#a)">
<use x="1549.299953" y="767.384388" fill="#ffffff" stroke="#ffffff" xlink:href="#b"/>
</g>
<g clip-path="url(#a)">
<use x="1596.745927" y="767.384388" fill="#ffffff" stroke="#ffffff" xlink:href="#b"/>
</g>
<g clip-path="url(#a)">
<use x="1217.178137" y="767.384388" fill="#ffffff" stroke="#ffffff" xlink:href="#b"/>
</g>
<g clip-path="url(#a)">
<use x="1264.62411" y="767.384388" fill="#ffffff" stroke="#ffffff" xlink:href="#b"/>
</g>
<g clip-path="url(#a)">
<use x="1312.070084" y="767.384388" fill="#ffffff" stroke="#ffffff" xlink:href="#b"/>
</g>
<g clip-path="url(#a)">
<use x="1359.516058" y="767.384388" fill="#ffffff" stroke="#ffffff" xlink:href="#b"/>
</g>
<g clip-path="url(#a)">
<use x="1406.962032" y="767.384388" fill="#ffffff" stroke="#ffffff" xlink:href="#b"/>
</g>
<g clip-path="url(#a)">
<use x="161.50522" y="571.228823" fill="#ffffff" stroke="#ffffff" xlink:href="#b"/>
</g>
<g clip-path="url(#a)">
<use x="363.150609" y="767.384388" fill="#ffffff" stroke="#ffffff" xlink:href="#b"/>
</g>
<g clip-path="url(#a)">
<use x="410.596583" y="767.384388" fill="#ffffff" stroke="#ffffff" xlink:href="#b"/>
</g>
<g clip-path="url(#a)">
<use x="481.765543" y="669.984078" fill="#ffffff" stroke="#ffffff" xlink:href="#b"/>
</g>
<g clip-path="url(#a)">
<use x="655.651742" y="262.050686" fill="#ffffff" stroke="#ffffff" xlink:href="#b"/>
</g>
<g clip-path="url(#a)">
<use x="600.380478" y="767.384388" fill="#ffffff" stroke="#ffffff" xlink:href="#b"/>
</g>
<g clip-path="url(#a)">
<use x="552.934504" y="767.384388" fill="#ffffff" stroke="#ffffff" xlink:href="#b"/>
</g>
<g clip-path="url(#a)">
<use x="758.368981" y="367.621609" fill="#ffffff" stroke="#ffffff" xlink:href="#b"/>
</g>
<g clip-path="url(#a)">
<use x="663.641776" y="669.984078" fill="#ffffff" stroke="#ffffff" xlink:href="#b"/>
</g>
<g clip-path="url(#a)">
<use x="821.300793" y="470.571961" fill="#ffffff" stroke="#ffffff" xlink:href="#b"/>
</g>
<g clip-path="url(#a)">
<use x="837.610346" y="767.384388" fill="#ffffff" stroke="#ffffff" xlink:href="#b"/>
</g>
<g clip-path="url(#a)">
<use x="885.05632" y="767.384388" fill="#ffffff" stroke="#ffffff" xlink:href="#b"/>
</g>
<g clip-path="url(#a)">
<use x="1009.602001" y="571.228823" fill="#ffffff" stroke="#ffffff" xlink:href="#b"/>
</g>
<g clip-path="url(#a)">
<use x="932.502294" y="767.384388" fill="#ffffff" stroke="#ffffff" xlink:href="#b"/>
</g>
<g clip-path="url(#a)">
<use x="979.948268" y="767.384388" fill="#ffffff" stroke="#ffffff" xlink:href="#b"/>
</g>
<g clip-path="url(#a)">
<use x="1027.394241" y="767.384388" fill="#ffffff" stroke="#ffffff" xlink:href="#b"/>
</g>
<g clip-path="url(#a)">
<use x="1098.563202" y="669.984078" fill="#ffffff" stroke="#ffffff" xlink:href="#b"/>
</g>
<g clip-path="url(#a)">
<use x="1074.840215" y="767.384388" fill="#ffffff" stroke="#ffffff" xlink:href="#b"/>
</g>
<g clip-path="url(#a)">
<use x="1122.286189" y="767.384388" fill="#ffffff" stroke="#ffffff" xlink:href="#b"/>
</g>
<g clip-path="url(#a)">
<use x="695.272425" y="767.384388" fill="#ffffff" stroke="#ffffff" xlink:href="#b"/>
</g>
<g clip-path="url(#a)">
<use x="742.718399" y="767.384388" fill="#ffffff" stroke="#ffffff" xlink:href="#b"/>
</g>
<g clip-path="url(#a)">
<use x="458.042556" y="767.384388" fill="#ffffff" stroke="#ffffff" xlink:href="#b"/>
</g>
<g clip-path="url(#a)">
<use x="505.48853" y="767.384388" fill="#ffffff" stroke="#ffffff" xlink:href="#b"/>
</g>
<g clip-path="url(#a)">
<use x="78.474766" y="767.384388" fill="#ffffff" stroke="#ffffff" xlink:href="#b"/>
</g>
<g clip-path="url(#a)">
<use x="125.92074" y="767.384388" fill="#ffffff" stroke="#ffffff" xlink:href="#b"/>
</g>
<g clip-path="url(#a)">
<use x="173.366714" y="767.384388" fill="#ffffff" stroke="#ffffff" xlink:href="#b"/>
</g>
<g clip-path="url(#a)">
<use x="268.258661" y="669.984078" fill="#ffffff" stroke="#ffffff" xlink:href="#b"/>
</g>
<g clip-path="url(#a)">
<use x="220.812688" y="767.384388" fill="#ffffff" stroke="#ffffff" xlink:href="#b"/>
</g>
<g clip-path="url(#a)">
<use x="268.258661" y="767.384388" fill="#ffffff" stroke="#ffffff" xlink:href="#b"/>
</g>
<g clip-path="url(#a)">
<use x="315.704635" y="767.384388" fill="#ffffff" stroke="#ffffff" xlink:href="#b"/>
</g>
<g clip-path="url(#a)">
<use x="647.826451" y="767.384388" fill="#ffffff" stroke="#ffffff" xlink:href="#b"/>
</g>
<g clip-path="url(#a)">
<use x="790.164373" y="767.384388" fill="#ffffff" stroke="#ffffff" xlink:href="#b"/>
</g>
<g clip-path="url(#a)">
<use x="1169.732163" y="767.384388" fill="#ffffff" stroke="#ffffff" xlink:href="#b"/>
</g>
<g clip-path="url(#a)">
<use x="1644.1919" y="767.384388" fill="#ffffff" stroke="#ffffff" xlink:href="#b"/>
</g>
<g clip-path="url(#a)">
<defs>
<path id="v" d="m8.5 21.578v33.109h8.9844v-32.766q0-7.7656 3.0156-11.656 3.0312-3.875 9.0938-3.875 7.2656 0 11.484 4.6406 4.2344 4.6406 4.2344 12.656v31h8.9844v-54.688h-8.9844v8.4062q-3.2656-4.9844-7.5938-7.4062-4.3125-2.4219-10.031-2.4219-9.4219 0-14.312 5.8594-4.875 5.8594-4.875 17.141z"/>
<path id="at" d="m37.109 75.984v-7.4844h-8.5938q-4.8281 0-6.7188-1.9531-1.875-1.9531-1.875-7.0312v-4.8281h14.797v-6.9844h-14.797v-47.703h-9.0312v47.703h-8.5938v6.9844h8.5938v3.8125q0 9.125 4.25 13.297 4.25 4.1875 13.469 4.1875z"/>
</defs>
<g transform="translate(70.126 867.54) scale(.1 -.1)">
<use xlink:href="#q"/>
<use x="68.408203" xlink:href="#v"/>
<use x="131.787109" xlink:href="#at"/>
</g>
</g>
<g clip-path="url(#a)">
<defs>
<path id="ai" d="m45.406 46.391v29.594h8.9844v-75.984h-8.9844v8.2031q-2.8281-4.875-7.1562-7.25-4.3125-2.375-10.375-2.375-9.9062 0-16.141 7.9062-6.2188 7.9219-6.2188 20.812t6.2188 20.797q6.2344 7.9062 16.141 7.9062 6.0625 0 10.375-2.375 4.3281-2.3594 7.1562-7.2344zm-30.609-19.094q0-9.9062 4.0781-15.547t11.203-5.6406 11.219 5.6406q4.1094 5.6406 4.1094 15.547t-4.1094 15.547q-4.0938 5.6406-11.219 5.6406t-11.203-5.6406-4.0781-15.547z"/>
</defs>
<g transform="translate(114.8 867.54) scale(.1 -.1)">
<use xlink:href="#ai"/>
<use x="63.476562" xlink:href="#c"/>
<use x="125" xlink:href="#i"/>
</g>
</g>
<g clip-path="url(#a)">
<defs>
<path id="p" d="m18.312 70.219v-15.531h18.5v-6.9844h-18.5v-29.688q0-6.6875 1.8281-8.5938t7.4531-1.9062h9.2188v-7.5156h-9.2188q-10.406 0-14.359 3.875-3.9531 3.8906-3.9531 14.141v29.688h-6.5938v6.9844h6.5938v15.531z"/>
</defs>
<g transform="translate(151.45 867.54) scale(.1 -.1)">
<use xlink:href="#ak"/>
<use x="60.302734" xlink:href="#k"/>
<use x="88.085938" xlink:href="#j"/>
<use x="149.365234" xlink:href="#e"/>
<use x="212.744141" xlink:href="#c"/>
<use x="274.267578" xlink:href="#p"/>
<use x="313.476562" xlink:href="#c"/>
<use x="375" xlink:href="#e"/>
</g>
</g>
<g clip-path="url(#a)">
<defs>
<path id="s" d="m44.281 53.078v-8.5q-3.7969 1.9531-7.9062 2.9219-4.0938 0.98438-8.5 0.98438-6.6875 0-10.031-2.0469t-3.3438-6.1562q0-3.125 2.3906-4.9062t9.625-3.3906l3.0781-0.6875q9.5625-2.0469 13.594-5.7812t4.0312-10.422q0-7.625-6.0312-12.078-6.0312-4.4375-16.578-4.4375-4.3906 0-9.1562 0.85938t-10.031 2.5625v9.2812q4.9844-2.5938 9.8125-3.8906 4.8281-1.2812 9.5781-1.2812 6.3438 0 9.75 2.1719 3.4219 2.1719 3.4219 6.125 0 3.6562-2.4688 5.6094-2.4531 1.9531-10.812 3.7656l-3.125 0.73438q-8.3438 1.75-12.062 5.3906-3.7031 3.6406-3.7031 9.9844 0 7.7188 5.4688 11.906 5.4688 4.2031 15.531 4.2031 4.9688 0 9.3594-0.73438 4.4062-0.71875 8.1094-2.1875z"/>
</defs>
<g transform="translate(211.96 867.54) scale(.1 -.1)">
<use xlink:href="#ai"/>
<use x="63.476562" xlink:href="#c"/>
<use x="125" xlink:href="#s"/>
</g>
</g>
<g clip-path="url(#a)">
<defs>
<path id="am" d="m9.0781 75.984h9.0312v-44.875l26.812 23.578h11.469l-29-25.578 30.234-29.109h-11.719l-27.797 26.703v-26.703h-9.0312z"/>
</defs>
<g transform="translate(250.09 867.54) scale(.1 -.1)">
<use xlink:href="#am"/>
<use x="57.910156" xlink:href="#k"/>
<use x="85.693359" xlink:href="#c"/>
<use x="147.216797" xlink:href="#h"/>
<use x="175" xlink:href="#e"/>
<use x="238.378906" xlink:href="#c"/>
<use x="299.902344" xlink:href="#e"/>
</g>
</g>
<g clip-path="url(#a)">
<defs>
<path id="ag" d="m5.5156 54.688h42.672v-8.2031l-33.781-39.312h33.781v-7.1719h-43.891v8.2031l33.797 39.312h-32.578z"/>
</defs>
<g transform="translate(297.21 867.54) scale(.1 -.1)">
<use xlink:href="#ak"/>
<use x="60.287109" xlink:href="#g"/>
<use x="101.400391" xlink:href="#h"/>
<use x="129.183594" xlink:href="#e"/>
<use x="192.5625" xlink:href="#ag"/>
<use x="245.052734" xlink:href="#c"/>
<use x="306.576172" xlink:href="#e"/>
</g>
</g>
<g clip-path="url(#a)">
<defs>
<path id="ah" d="m54.891 33.016v-33.016h-8.9844v32.719q0 7.7656-3.0312 11.609-3.0312 3.8594-9.0781 3.8594-7.2812 0-11.484-4.6406-4.2031-4.625-4.2031-12.641v-30.906h-9.0312v75.984h9.0312v-29.797q3.2344 4.9375 7.5938 7.375 4.375 2.4375 10.094 2.4375 9.4219 0 14.25-5.8281 4.8438-5.8281 4.8438-17.156z"/>
</defs>
<g transform="translate(349.92 867.54) scale(.1 -.1)">
<use xlink:href="#ah"/>
<use x="63.378906" xlink:href="#j"/>
<use x="124.658203" xlink:href="#p"/>
<use x="163.867188" xlink:href="#p"/>
<use x="203.076172" xlink:href="#c"/>
</g>
</g>
<g clip-path="url(#a)">
<g transform="translate(404.92 867.54) scale(.1 -.1)">
<use xlink:href="#c"/>
<use x="61.523438" xlink:href="#s"/>
</g>
</g>
<g clip-path="url(#a)">
<defs>
<path id="an" d="m48.781 52.594v-8.4062q-3.8125 2.1094-7.6406 3.1562t-7.7344 1.0469q-8.75 0-13.594-5.5469-4.8281-5.5312-4.8281-15.547t4.8281-15.562q4.8438-5.5312 13.594-5.5312 3.9062 0 7.7344 1.0469t7.6406 3.1562v-8.3125q-3.7656-1.75-7.7969-2.625-4.0156-0.89062-8.5625-0.89062-12.359 0-19.641 7.7656-7.2656 7.7656-7.2656 20.953 0 13.375 7.3438 21.031 7.3594 7.6719 20.156 7.6719 4.1406 0 8.0938-0.85938 3.9531-0.84375 7.6719-2.5469z"/>
<path id="ar" d="m30.609 48.391q-7.2188 0-11.422-5.6406t-4.2031-15.453 4.1719-15.453q4.1875-5.6406 11.453-5.6406 7.1875 0 11.375 5.6562 4.2031 5.6719 4.2031 15.438 0 9.7188-4.2031 15.406-4.1875 5.6875-11.375 5.6875zm0 7.6094q11.719 0 18.406-7.625 6.7031-7.6094 6.7031-21.078 0-13.422-6.7031-21.078-6.6875-7.6406-18.406-7.6406-11.766 0-18.438 7.6406-6.6562 7.6562-6.6562 21.078 0 13.469 6.6562 21.078 6.6719 7.625 18.438 7.625z"/>
</defs>
<g transform="translate(443.29 867.54) scale(.1 -.1)">
<use xlink:href="#s"/>
<use x="52.099609" xlink:href="#an"/>
<use x="107.080078" xlink:href="#ah"/>
<use x="170.458984" xlink:href="#ar"/>
<use x="231.640625" xlink:href="#e"/>
</g>
</g>
<g clip-path="url(#a)">
<g transform="translate(489.23 867.54) scale(.1 -.1)">
<use xlink:href="#h"/>
<use x="27.783203" xlink:href="#i"/>
<use x="125.195312" xlink:href="#i"/>
<use x="222.607422" xlink:href="#c"/>
<use x="284.130859" xlink:href="#g"/>
</g>
</g>
<g clip-path="url(#a)">
<defs>
<path id="ao" d="m19.672 34.812v-26.703h15.828q7.9531 0 11.781 3.2969 3.8438 3.2969 3.8438 10.078 0 6.8438-3.8438 10.078-3.8281 3.25-11.781 3.25zm0 29.984v-21.969h14.609q7.2188 0 10.75 2.7031 3.5469 2.7188 3.5469 8.2812 0 5.5156-3.5469 8.25-3.5312 2.7344-10.75 2.7344zm-9.8594 8.1094h25.203q11.281 0 17.375-4.6875 6.1094-4.6875 6.1094-13.328 0-6.7031-3.125-10.656t-9.1875-4.9219q7.2812-1.5625 11.312-6.5312 4.0312-4.9531 4.0312-12.375 0-9.7656-6.6406-15.094-6.6406-5.3125-18.906-5.3125h-26.172z"/>
</defs>
<g transform="translate(533.83 867.54) scale(.1 -.1)">
<use xlink:href="#ao"/>
<use x="68.603516" xlink:href="#k"/>
<use x="96.386719" xlink:href="#v"/>
<use x="159.765625" xlink:href="#i"/>
<use x="257.177734" xlink:href="#c"/>
<use x="318.701172" xlink:href="#e"/>
</g>
</g>
<g clip-path="url(#a)">
<defs>
<path id="as" d="m45.406 27.984q0 9.7656-4.0312 15.125-4.0156 5.375-11.297 5.375-7.2188 0-11.25-5.375-4.0312-5.3594-4.0312-15.125 0-9.7188 4.0312-15.094t11.25-5.375q7.2812 0 11.297 5.375 4.0312 5.375 4.0312 15.094zm8.9844-21.203q0-13.953-6.2031-20.766-6.1875-6.8125-18.984-6.8125-4.7344 0-8.9375 0.70312t-8.1562 2.1719v8.7344q3.9531-2.1406 7.8125-3.1562 3.8594-1.0312 7.8594-1.0312 8.8438 0 13.234 4.6094t4.3906 13.938v4.4531q-2.7812-4.8438-7.125-7.2344t-10.406-2.3906q-10.047 0-16.203 7.6562-6.1562 7.6719-6.1562 20.328 0 12.688 6.1562 20.344 6.1562 7.6719 16.203 7.6719 6.0625 0 10.406-2.3906t7.125-7.2188v8.2969h8.9844z"/>
<path id="aj" d="m48.688 27.297q0 9.9062-4.0781 15.547t-11.203 5.6406q-7.1406 0-11.219-5.6406t-4.0781-15.547 4.0781-15.547 11.219-5.6406q7.125 0 11.203 5.6406t4.0781 15.547zm-30.578 19.094q2.8438 4.875 7.1562 7.2344 4.3281 2.375 10.328 2.375 9.9688 0 16.188-7.9062 6.2344-7.9062 6.2344-20.797t-6.2344-20.812q-6.2188-7.9062-16.188-7.9062-6 0-10.328 2.375-4.3125 2.375-7.1562 7.25v-8.2031h-9.0312v75.984h9.0312z"/>
</defs>
<g transform="translate(578.46 867.54) scale(.1 -.1)">
<use xlink:href="#as"/>
<use x="63.476562" xlink:href="#c"/>
<use x="125" xlink:href="#as"/>
<use x="188.476562" xlink:href="#c"/>
<use x="250" xlink:href="#aj"/>
<use x="313.476562" xlink:href="#c"/>
<use x="375" xlink:href="#e"/>
</g>
</g>
<g clip-path="url(#a)">
<defs>
<path id="ap" d="m11.719 12.406h10.297v-8.4062l-8-15.625h-6.2969l4 15.625z"/>
</defs>
<g transform="translate(646.24 867.54) scale(.1 -.1)">
<use xlink:href="#ap"/>
</g>
</g>
<g clip-path="url(#a)">
<g transform="translate(684.37 867.54) scale(.1 -.1)">
<use xlink:href="#s"/>
<use x="52.099609" xlink:href="#c"/>
<use x="113.623047" xlink:href="#ah"/>
<use x="177.001953" xlink:href="#g"/>
</g>
</g>
<g clip-path="url(#a)">
<g transform="translate(721.27 867.54) scale(.1 -.1)">
<use xlink:href="#c"/>
<use x="61.523438" xlink:href="#h"/>
<use x="89.306641" xlink:href="#e"/>
<use x="152.685547" xlink:href="#at"/>
<use x="187.890625" xlink:href="#j"/>
<use x="249.169922" xlink:href="#an"/>
<use x="304.150391" xlink:href="#ah"/>
<use x="367.529297" xlink:href="#c"/>
</g>
</g>
<g clip-path="url(#a)">
<g transform="translate(788.58 867.54) scale(.1 -.1)">
<use xlink:href="#ap"/>
</g>
</g>
<g clip-path="url(#a)">
<defs>
<path id="aq" d="m2.9844 54.688h9.5156l17.094-45.891 17.094 45.891h9.5156l-20.516-54.688h-12.203z"/>
</defs>
<g transform="translate(818.41 867.54) scale(.1 -.1)">
<use xlink:href="#aq"/>
<use x="59.179688" xlink:href="#c"/>
<use x="120.703125" xlink:href="#g"/>
<use x="161.816406" xlink:href="#ag"/>
<use x="214.306641" xlink:href="#h"/>
<use x="242.089844" xlink:href="#c"/>
<use x="303.613281" xlink:href="#g"/>
<use x="344.726562" xlink:href="#p"/>
</g>
</g>
<g clip-path="url(#a)">
<g transform="translate(876.66 867.54) scale(.1 -.1)">
<use xlink:href="#e"/>
<use x="63.378906" xlink:href="#v"/>
<use x="126.757812" xlink:href="#g"/>
</g>
</g>
<g clip-path="url(#a)">
<g transform="translate(924.28 867.54) scale(.1 -.1)">
<use xlink:href="#i"/>
<use x="97.412109" xlink:href="#h"/>
<use x="125.195312" xlink:href="#p"/>
</g>
</g>
<g clip-path="url(#a)">
<g transform="translate(964.37 867.54) scale(.1 -.1)">
<use xlink:href="#c"/>
<use x="61.523438" xlink:href="#h"/>
<use x="89.306641" xlink:href="#e"/>
<use x="152.685547" xlink:href="#c"/>
<use x="214.208984" xlink:href="#i"/>
</g>
</g>
<g clip-path="url(#a)">
<defs>
<path id="aw" d="m9.8125 72.906h9.8594v-30.812l32.719 30.812h12.703l-36.188-33.984 38.766-38.922h-12.984l-35.016 35.109v-35.109h-9.8594z"/>
</defs>
<g transform="translate(1013.2 867.54) scale(.1 -.1)">
<use xlink:href="#aw"/>
<use x="65.576172" xlink:href="#g"/>
<use x="106.689453" xlink:href="#j"/>
<use x="167.96875" xlink:href="#e"/>
<use x="231.347656" xlink:href="#ag"/>
</g>
</g>
<g clip-path="url(#a)">
<g transform="translate(1065.7 867.54) scale(.1 -.1)">
<use xlink:href="#aq"/>
<use x="59.179688" xlink:href="#ar"/>
<use x="120.361328" xlink:href="#e"/>
</g>
</g>
<g clip-path="url(#a)">
<defs>
<path id="ay" d="m8.5 21.578v33.109h8.9844v-32.766q0-7.7656 3.0156-11.656 3.0312-3.875 9.0938-3.875 7.2656 0 11.484 4.6406 4.2344 4.6406 4.2344 12.656v31h8.9844v-54.688h-8.9844v8.4062q-3.2656-4.9844-7.5938-7.4062-4.3125-2.4219-10.031-2.4219-9.4219 0-14.312 5.8594-4.875 5.8594-4.875 17.141zm22.609 34.422m4.4844 19.781h9.9062v-9.8594h-9.9062zm-19.094 0h9.9062v-9.8594h-9.9062z"/>
<path id="ba" d="m34.281 27.484q-10.891 0-15.094-2.4844t-4.2031-8.5q0-4.7812 3.1562-7.5938 3.1562-2.7969 8.5625-2.7969 7.4844 0 12 5.2969t4.5156 14.078v2zm17.922 3.7188v-31.203h-8.9844v8.2969q-3.0781-4.9688-7.6719-7.3438t-11.234-2.375q-8.3906 0-13.359 4.7188-4.9531 4.7188-4.9531 12.625 0 9.2188 6.1719 13.906 6.1875 4.6875 18.438 4.6875h12.609v0.89062q0 6.2031-4.0781 9.5938t-11.453 3.3906q-4.6875 0-9.1406-1.125-4.4375-1.125-8.5312-3.375v8.3125q4.9219 1.9062 9.5625 2.8438 4.6406 0.95312 9.0312 0.95312 11.875 0 17.734-6.1562 5.8594-6.1406 5.8594-18.641zm-18.609 44.578h9.9062v-9.8594h-9.9062zm-19.094 0h9.9062v-9.8594h-9.9062z"/>
</defs>
<g transform="translate(1086.2 867.54) scale(.1 -.1)">
<use xlink:href="#ao"/>
<use x="68.603516" xlink:href="#k"/>
<use x="96.386719" xlink:href="#ay"/>
<use x="159.765625" xlink:href="#p"/>
<use x="198.974609" xlink:href="#c"/>
<use x="260.498047" xlink:href="#e"/>
<use x="323.876953" xlink:href="#aj"/>
<use x="387.353516" xlink:href="#k"/>
<use x="415.136719" xlink:href="#ba"/>
<use x="476.416016" xlink:href="#p"/>
<use x="515.625" xlink:href="#p"/>
<use x="554.833984" xlink:href="#c"/>
<use x="616.357422" xlink:href="#g"/>
<use x="657.455078" xlink:href="#e"/>
</g>
</g>
<g clip-path="url(#a)">
<defs>
<path id="ax" d="m11.719 51.703h10.297v-12.391h-10.297zm0-39.297h10.297v-8.4062l-8-15.625h-6.2969l4 15.625z"/>
</defs>
<g transform="translate(1168 867.54) scale(.1 -.1)">
<use xlink:href="#ax"/>
</g>
</g>
<g clip-path="url(#a)">
<g transform="translate(1210.1 867.54) scale(.1 -.1)">
<use xlink:href="#s"/>
<use x="52.099609" xlink:href="#h"/>
<use x="79.882812" xlink:href="#c"/>
</g>
</g>
<g clip-path="url(#a)">
<defs>
<path id="bc" d="m4.2031 54.688h8.9844l11.234-42.672 11.172 42.672h10.594l11.234-42.672 11.188 42.672h8.9844l-14.312-54.688h-10.594l-11.766 44.828-11.812-44.828h-10.609z"/>
</defs>
<g transform="translate(1249.2 867.54) scale(.1 -.1)">
<use xlink:href="#bc"/>
<use x="81.787109" xlink:href="#j"/>
<use x="143.066406" xlink:href="#g"/>
<use x="184.148438" xlink:href="#c"/>
<use x="245.671875" xlink:href="#e"/>
</g>
</g>
<g clip-path="url(#a)">
<g transform="translate(1298.1 867.54) scale(.1 -.1)">
<use xlink:href="#am"/>
<use x="57.894531" xlink:href="#j"/>
<use x="119.173828" xlink:href="#v"/>
<use x="182.552734" xlink:href="#i"/>
</g>
</g>
<g clip-path="url(#a)">
<g transform="translate(1353.7 867.54) scale(.1 -.1)">
<use xlink:href="#ag"/>
<use x="52.490234" xlink:href="#v"/>
</g>
</g>
<g clip-path="url(#a)">
<g transform="translate(1381.6 867.54) scale(.1 -.1)">
<use xlink:href="#aj"/>
<use x="63.476562" xlink:href="#c"/>
<use x="125" xlink:href="#i"/>
<use x="222.412109" xlink:href="#c"/>
<use x="283.935547" xlink:href="#g"/>
<use x="325.048828" xlink:href="#am"/>
<use x="382.912109" xlink:href="#c"/>
<use x="444.435547" xlink:href="#e"/>
</g>
</g>
<g clip-path="url(#a)">
<g transform="translate(1444.9 867.54) scale(.1 -.1)">
<use xlink:href="#v"/>
<use x="63.378906" xlink:href="#e"/>
<use x="126.757812" xlink:href="#ai"/>
</g>
</g>
<g clip-path="url(#a)">
<g transform="translate(1494.8 867.54) scale(.1 -.1)">
<use xlink:href="#s"/>
<use x="52.099609" xlink:href="#h"/>
<use x="79.882812" xlink:href="#c"/>
</g>
</g>
<g clip-path="url(#a)">
<defs>
<path id="az" d="m30.609 48.391q-7.2188 0-11.422-5.6406t-4.2031-15.453 4.1719-15.453q4.1875-5.6406 11.453-5.6406 7.1875 0 11.375 5.6562 4.2031 5.6719 4.2031 15.438 0 9.7188-4.2031 15.406-4.1875 5.6875-11.375 5.6875zm0 7.6094q11.719 0 18.406-7.625 6.7031-7.6094 6.7031-21.078 0-13.422-6.7031-21.078-6.6875-7.6406-18.406-7.6406-11.766 0-18.438 7.6406-6.6562 7.6562-6.6562 21.078 0 13.469 6.6562 21.078 6.6719 7.625 18.438 7.625zm4.6094 19.781h9.9062v-9.8594h-9.9062zm-19.094 0h9.9062v-9.8594h-9.9062z"/>
</defs>
<g transform="translate(1531.4 867.54) scale(.1 -.1)">
<use xlink:href="#s"/>
<use x="52.099609" xlink:href="#p"/>
<use x="91.308594" xlink:href="#az"/>
<use x="152.490234" xlink:href="#g"/>
<use x="193.603516" xlink:href="#p"/>
<use x="232.8125" xlink:href="#c"/>
<use x="294.335938" xlink:href="#e"/>
</g>
</g>
<g clip-path="url(#a)">
<g transform="translate(1568.6 867.54) scale(.1 -.1)">
<use xlink:href="#e"/>
<use x="63.378906" xlink:href="#h"/>
<use x="91.162109" xlink:href="#c"/>
<use x="152.685547" xlink:href="#i"/>
<use x="250.097656" xlink:href="#j"/>
<use x="311.376953" xlink:href="#e"/>
<use x="374.755859" xlink:href="#ai"/>
<use x="438.232422" xlink:href="#c"/>
<use x="499.755859" xlink:href="#e"/>
</g>
</g>
<g clip-path="url(#a)">
<defs>
<path id="f" d="m10.688 12.406h10.312v-12.406h-10.312z"/>
</defs>
<g transform="translate(1642.6 867.54) scale(.1 -.1)">
<use xlink:href="#f"/>
</g>
</g>
<g clip-path="url(#a)">
<defs>
<path id="d" d="m12.406 8.2969h16.109v55.625l-17.531-3.5156v8.9844l17.438 3.5156h9.8594v-64.609h16.109v-8.2969h-41.984z"/>
</defs>
<g transform="translate(1188.8 44.641) scale(.1 -.1)">
<use xlink:href="#d"/>
<use x="63.623047" xlink:href="#f"/>
<use x="95.410156" xlink:href="#d"/>
</g>
</g>
<g clip-path="url(#a)">
<defs>
<path id="o" d="m19.188 8.2969h34.422v-8.2969h-46.281v8.2969q5.6094 5.8125 15.297 15.594 9.7031 9.7969 12.188 12.641 4.7344 5.3125 6.6094 9 1.8906 3.6875 1.8906 7.25 0 5.8125-4.0781 9.4688-4.0781 3.6719-10.625 3.6719-4.6406 0-9.7969-1.6094-5.1406-1.6094-11-4.8906v9.9688q5.9531 2.3906 11.125 3.6094 5.1875 1.2188 9.4844 1.2188 11.328 0 18.062-5.6719 6.7344-5.6562 6.7344-15.125 0-4.5-1.6875-8.5312-1.6719-4.0156-6.125-9.4844-1.2188-1.4219-7.7656-8.1875-6.5312-6.7656-18.453-18.922z"/>
</defs>
<g transform="translate(466.46 156.32) scale(.1 -.1)">
<use xlink:href="#d"/>
<use x="63.623047" xlink:href="#f"/>
<use x="95.410156" xlink:href="#o"/>
</g>
</g>
<g clip-path="url(#a)">
<defs>
<path id="n" d="m40.578 39.312q7.0781-1.5156 11.047-6.3125 3.9844-4.7812 3.9844-11.812 0-10.781-7.4219-16.703-7.4219-5.9062-21.094-5.9062-4.5781 0-9.4375 0.90625t-10.031 2.7188v9.5156q4.0938-2.3906 8.9688-3.6094 4.8906-1.2188 10.219-1.2188 9.2656 0 14.125 3.6562t4.8594 10.641q0 6.4531-4.5156 10.078-4.5156 3.6406-12.562 3.6406h-8.5v8.1094h8.8906q7.2656 0 11.125 2.9062t3.8594 8.375q0 5.6094-3.9844 8.6094-3.9688 3.0156-11.391 3.0156-4.0625 0-8.7031-0.89062-4.6406-0.875-10.203-2.7188v8.7812q5.625 1.5625 10.531 2.3438t9.25 0.78125q11.234 0 17.766-5.1094 6.5469-5.0938 6.5469-13.781 0-6.0625-3.4688-10.234t-9.8594-5.7812z"/>
</defs>
<g transform="translate(1304.1 672.74) scale(.1 -.1)">
<use xlink:href="#d"/>
<use x="63.623047" xlink:href="#f"/>
<use x="95.410156" xlink:href="#n"/>
</g>
</g>
<g clip-path="url(#a)">
<defs>
<path id="m" d="m37.797 64.312-24.906-38.922h24.906zm-2.5938 8.5938h12.406v-47.516h10.406v-8.2031h-10.406v-17.188h-9.8125v17.188h-32.906v9.5156z"/>
</defs>
<g transform="translate(1446.5 770.14) scale(.1 -.1)">
<use xlink:href="#d"/>
<use x="63.623047" xlink:href="#f"/>
<use x="95.410156" xlink:href="#m"/>
</g>
</g>
<g clip-path="url(#a)">
<defs>
<path id="r" d="m10.797 72.906h38.719v-8.3125h-29.688v-17.859q2.1406 0.73438 4.2812 1.0938 2.1562 0.35938 4.3125 0.35938 12.203 0 19.328-6.6875 7.1406-6.6875 7.1406-18.109 0-11.766-7.3281-18.297-7.3281-6.5156-20.656-6.5156-4.5938 0-9.3594 0.78125-4.75 0.78125-9.8281 2.3438v9.9219q4.3906-2.3906 9.0781-3.5625t9.9062-1.1719q8.4531 0 13.375 4.4375 4.9375 4.4375 4.9375 12.062 0 7.6094-4.9375 12.047-4.9219 4.4531-13.375 4.4531-3.9531 0-7.8906-0.875-3.9219-0.875-8.0156-2.7344z"/>
</defs>
<g transform="translate(1565.1 672.74) scale(.1 -.1)">
<use xlink:href="#d"/>
<use x="63.623047" xlink:href="#f"/>
<use x="95.410156" xlink:href="#r"/>
</g>
</g>
<g clip-path="url(#a)">
<defs>
<path id="z" d="m31.781 34.625q-7.0312 0-11.062-3.7656-4.0156-3.7656-4.0156-10.344 0-6.5938 4.0156-10.359 4.0312-3.7656 11.062-3.7656t11.078 3.7812q4.0625 3.7969 4.0625 10.344 0 6.5781-4.0312 10.344-4.0156 3.7656-11.109 3.7656zm-9.8594 4.1875q-6.3438 1.5625-9.8906 5.9062-3.5312 4.3594-3.5312 10.609 0 8.7344 6.2188 13.812 6.2344 5.0781 17.062 5.0781 10.891 0 17.094-5.0781t6.2031-13.812q0-6.25-3.5469-10.609-3.5312-4.3438-9.8281-5.9062 7.125-1.6562 11.094-6.5 3.9844-4.8281 3.9844-11.797 0-10.609-6.4688-16.281-6.4688-5.6562-18.531-5.6562-12.047 0-18.531 5.6562-6.4688 5.6719-6.4688 16.281 0 6.9688 4 11.797 4.0156 4.8438 11.141 6.5zm-3.6094 15.578q0-5.6562 3.5312-8.8281 3.5469-3.1719 9.9375-3.1719 6.3594 0 9.9375 3.1719 3.5938 3.1719 3.5938 8.8281 0 5.6719-3.5938 8.8438-3.5781 3.1719-9.9375 3.1719-6.3906 0-9.9375-3.1719-3.5312-3.1719-3.5312-8.8438z"/>
</defs>
<g transform="translate(1493.9 770.14) scale(.1 -.1)">
<use xlink:href="#d"/>
<use x="63.623047" xlink:href="#f"/>
<use x="95.410156" xlink:href="#z"/>
</g>
</g>
<g clip-path="url(#a)">
<defs>
<path id="y" d="m10.984 1.5156v8.9844q3.7188-1.7656 7.5156-2.6875 3.8125-0.92188 7.4844-0.92188 9.7656 0 14.906 6.5625 5.1562 6.5625 5.8906 19.953-2.8281-4.2031-7.1875-6.4531-4.3438-2.25-9.6094-2.25-10.938 0-17.312 6.6094-6.375 6.625-6.375 18.109 0 11.219 6.6406 18 6.6406 6.7969 17.672 6.7969 12.656 0 19.312-9.7031 6.6719-9.6875 6.6719-28.141 0-17.234-8.1875-27.516-8.1719-10.281-21.984-10.281-3.7188 0-7.5312 0.73438-3.7969 0.73438-7.9062 2.2031zm19.625 30.906q6.6406 0 10.516 4.5312 3.8906 4.5469 3.8906 12.469 0 7.8594-3.8906 12.422-3.875 4.5625-10.516 4.5625t-10.516-4.5625-3.875-12.422q0-7.9219 3.875-12.469 3.875-4.5312 10.516-4.5312z"/>
</defs>
<g transform="translate(1541.3 770.14) scale(.1 -.1)">
<use xlink:href="#d"/>
<use x="63.623047" xlink:href="#f"/>
<use x="95.410156" xlink:href="#y"/>
</g>
</g>
<g clip-path="url(#a)">
<defs>
<path id="aa" d="m31.781 66.406q-7.6094 0-11.453-7.5-3.8281-7.4844-3.8281-22.531 0-14.984 3.8281-22.484 3.8438-7.5 11.453-7.5 7.6719 0 11.5 7.5 3.8438 7.5 3.8438 22.484 0 15.047-3.8438 22.531-3.8281 7.5-11.5 7.5zm0 7.8125q12.266 0 18.734-9.7031 6.4688-9.6875 6.4688-28.141 0-18.406-6.4688-28.109-6.4688-9.6875-18.734-9.6875-12.25 0-18.719 9.6875-6.4688 9.7031-6.4688 28.109 0 18.453 6.4688 28.141 6.4688 9.7031 18.719 9.7031z"/>
</defs>
<g transform="translate(1585.6 770.14) scale(.1 -.1)">
<use xlink:href="#d"/>
<use x="63.623047" xlink:href="#f"/>
<use x="95.410156" xlink:href="#d"/>
<use x="159.033203" xlink:href="#aa"/>
</g>
</g>
<g clip-path="url(#a)">
<g transform="translate(1206 770.14) scale(.1 -.1)">
<use xlink:href="#d"/>
<use x="63.623047" xlink:href="#f"/>
<use x="95.410156" xlink:href="#d"/>
<use x="159.033203" xlink:href="#d"/>
</g>
</g>
<g clip-path="url(#a)">
<g transform="translate(1253.5 770.14) scale(.1 -.1)">
<use xlink:href="#d"/>
<use x="63.623047" xlink:href="#f"/>
<use x="95.410156" xlink:href="#d"/>
<use x="159.033203" xlink:href="#o"/>
</g>
</g>
<g clip-path="url(#a)">
<g transform="translate(1300.9 770.14) scale(.1 -.1)">
<use xlink:href="#d"/>
<use x="63.623047" xlink:href="#f"/>
<use x="95.410156" xlink:href="#d"/>
<use x="159.033203" xlink:href="#n"/>
</g>
</g>
<g clip-path="url(#a)">
<g transform="translate(1348.4 770.14) scale(.1 -.1)">
<use xlink:href="#d"/>
<use x="63.623047" xlink:href="#f"/>
<use x="95.410156" xlink:href="#d"/>
<use x="159.033203" xlink:href="#m"/>
</g>
</g>
<g clip-path="url(#a)">
<g transform="translate(1395.8 770.14) scale(.1 -.1)">
<use xlink:href="#d"/>
<use x="63.623047" xlink:href="#f"/>
<use x="95.410156" xlink:href="#d"/>
<use x="159.033203" xlink:href="#r"/>
</g>
</g>
<g clip-path="url(#a)">
<defs>
<path id="af" d="m33.016 40.375q-6.6406 0-10.531-4.5469-3.875-4.5312-3.875-12.438 0-7.8594 3.875-12.438 3.8906-4.5625 10.531-4.5625t10.516 4.5625q3.875 4.5781 3.875 12.438 0 7.9062-3.875 12.438-3.875 4.5469-10.516 4.5469zm19.578 30.922v-8.9844q-3.7188 1.75-7.5 2.6719-3.7812 0.9375-7.5 0.9375-9.7656 0-14.922-6.5938-5.1406-6.5938-5.875-19.922 2.875 4.25 7.2188 6.5156 4.3594 2.2656 9.5781 2.2656 10.984 0 17.359-6.6719 6.375-6.6562 6.375-18.125 0-11.234-6.6406-18.031-6.6406-6.7812-17.672-6.7812-12.656 0-19.344 9.6875-6.6875 9.7031-6.6875 28.109 0 17.281 8.2031 27.562t22.016 10.281q3.7188 0 7.5-0.73438t7.8906-2.1875z"/>
</defs>
<g transform="translate(150.37 573.99) scale(.1 -.1)">
<use xlink:href="#d"/>
<use x="63.623047" xlink:href="#f"/>
<use x="95.410156" xlink:href="#d"/>
<use x="159.033203" xlink:href="#af"/>
</g>
</g>
<g clip-path="url(#a)">
<defs>
<path id="al" d="m8.2031 72.906h46.875v-4.2031l-26.469-68.703h-10.297l24.906 64.594h-35.016z"/>
</defs>
<g transform="translate(352.02 770.14) scale(.1 -.1)">
<use xlink:href="#d"/>
<use x="63.623047" xlink:href="#f"/>
<use x="95.410156" xlink:href="#d"/>
<use x="159.033203" xlink:href="#al"/>
</g>
</g>
<g clip-path="url(#a)">
<g transform="translate(399.46 770.14) scale(.1 -.1)">
<use xlink:href="#d"/>
<use x="63.623047" xlink:href="#f"/>
<use x="95.410156" xlink:href="#d"/>
<use x="159.033203" xlink:href="#z"/>
</g>
</g>
<g clip-path="url(#a)">
<g transform="translate(470.63 672.74) scale(.1 -.1)">
<use xlink:href="#d"/>
<use x="63.623047" xlink:href="#f"/>
<use x="95.410156" xlink:href="#d"/>
<use x="159.033203" xlink:href="#y"/>
</g>
</g>
<g clip-path="url(#a)">
<g transform="translate(644.52 264.81) scale(.1 -.1)">
<use xlink:href="#d"/>
<use x="63.623047" xlink:href="#f"/>
<use x="95.410156" xlink:href="#o"/>
<use x="159.033203" xlink:href="#aa"/>
</g>
</g>
<g clip-path="url(#a)">
<g transform="translate(589.25 770.14) scale(.1 -.1)">
<use xlink:href="#d"/>
<use x="63.623047" xlink:href="#f"/>
<use x="95.410156" xlink:href="#o"/>
<use x="159.033203" xlink:href="#d"/>
</g>
</g>
<g clip-path="url(#a)">
<g transform="translate(541.8 770.14) scale(.1 -.1)">
<use xlink:href="#d"/>
<use x="63.623047" xlink:href="#f"/>
<use x="95.410156" xlink:href="#o"/>
<use x="159.033203" xlink:href="#n"/>
</g>
</g>
<g clip-path="url(#a)">
<g transform="translate(747.24 370.38) scale(.1 -.1)">
<use xlink:href="#d"/>
<use x="63.623047" xlink:href="#f"/>
<use x="95.410156" xlink:href="#o"/>
<use x="159.033203" xlink:href="#m"/>
</g>
</g>
<g clip-path="url(#a)">
<g transform="translate(652.51 672.74) scale(.1 -.1)">
<use xlink:href="#d"/>
<use x="63.623047" xlink:href="#f"/>
<use x="95.410156" xlink:href="#o"/>
<use x="159.033203" xlink:href="#r"/>
</g>
</g>
<g clip-path="url(#a)">
<g transform="translate(810.17 473.33) scale(.1 -.1)">
<use xlink:href="#d"/>
<use x="63.623047" xlink:href="#f"/>
<use x="95.410156" xlink:href="#o"/>
<use x="159.033203" xlink:href="#af"/>
</g>
</g>
<g clip-path="url(#a)">
<g transform="translate(826.48 770.14) scale(.1 -.1)">
<use xlink:href="#d"/>
<use x="63.623047" xlink:href="#f"/>
<use x="95.410156" xlink:href="#o"/>
<use x="159.033203" xlink:href="#z"/>
</g>
</g>
<g clip-path="url(#a)">
<g transform="translate(873.92 770.14) scale(.1 -.1)">
<use xlink:href="#d"/>
<use x="63.623047" xlink:href="#f"/>
<use x="95.410156" xlink:href="#o"/>
<use x="159.033203" xlink:href="#y"/>
</g>
</g>
<g clip-path="url(#a)">
<g transform="translate(998.47 573.99) scale(.1 -.1)">
<use xlink:href="#d"/>
<use x="63.623047" xlink:href="#f"/>
<use x="95.410156" xlink:href="#n"/>
<use x="159.033203" xlink:href="#aa"/>
</g>
</g>
<g clip-path="url(#a)">
<g transform="translate(921.37 770.14) scale(.1 -.1)">
<use xlink:href="#d"/>
<use x="63.623047" xlink:href="#f"/>
<use x="95.410156" xlink:href="#n"/>
<use x="159.033203" xlink:href="#d"/>
</g>
</g>
<g clip-path="url(#a)">
<g transform="translate(968.82 770.14) scale(.1 -.1)">
<use xlink:href="#d"/>
<use x="63.623047" xlink:href="#f"/>
<use x="95.410156" xlink:href="#n"/>
<use x="159.033203" xlink:href="#o"/>
</g>
</g>
<g clip-path="url(#a)">
<g transform="translate(1016.3 770.14) scale(.1 -.1)">
<use xlink:href="#d"/>
<use x="63.623047" xlink:href="#f"/>
<use x="95.410156" xlink:href="#n"/>
<use x="159.033203" xlink:href="#n"/>
</g>
</g>
<g clip-path="url(#a)">
<g transform="translate(1087.4 672.74) scale(.1 -.1)">
<use xlink:href="#d"/>
<use x="63.623047" xlink:href="#f"/>
<use x="95.410156" xlink:href="#n"/>
<use x="159.033203" xlink:href="#m"/>
</g>
</g>
<g clip-path="url(#a)">
<g transform="translate(1063.7 770.14) scale(.1 -.1)">
<use xlink:href="#d"/>
<use x="63.623047" xlink:href="#f"/>
<use x="95.410156" xlink:href="#n"/>
<use x="159.033203" xlink:href="#r"/>
</g>
</g>
<g clip-path="url(#a)">
<g transform="translate(1111.2 770.14) scale(.1 -.1)">
<use xlink:href="#d"/>
<use x="63.623047" xlink:href="#f"/>
<use x="95.410156" xlink:href="#n"/>
<use x="159.033203" xlink:href="#af"/>
</g>
</g>
<g clip-path="url(#a)">
<g transform="translate(684.14 770.14) scale(.1 -.1)">
<use xlink:href="#d"/>
<use x="63.623047" xlink:href="#f"/>
<use x="95.410156" xlink:href="#n"/>
<use x="159.033203" xlink:href="#al"/>
</g>
</g>
<g clip-path="url(#a)">
<g transform="translate(731.59 770.14) scale(.1 -.1)">
<use xlink:href="#d"/>
<use x="63.623047" xlink:href="#f"/>
<use x="95.410156" xlink:href="#n"/>
<use x="159.033203" xlink:href="#z"/>
</g>
</g>
<g clip-path="url(#a)">
<g transform="translate(446.91 770.14) scale(.1 -.1)">
<use xlink:href="#d"/>
<use x="63.623047" xlink:href="#f"/>
<use x="95.410156" xlink:href="#n"/>
<use x="159.033203" xlink:href="#y"/>
</g>
</g>
<g clip-path="url(#a)">
<g transform="translate(494.36 770.14) scale(.1 -.1)">
<use xlink:href="#d"/>
<use x="63.623047" xlink:href="#f"/>
<use x="95.410156" xlink:href="#m"/>
<use x="159.033203" xlink:href="#aa"/>
</g>
</g>
<g clip-path="url(#a)">
<g transform="translate(67.342 770.14) scale(.1 -.1)">
<use xlink:href="#d"/>
<use x="63.623047" xlink:href="#f"/>
<use x="95.410156" xlink:href="#m"/>
<use x="159.033203" xlink:href="#d"/>
</g>
</g>
<g clip-path="url(#a)">
<g transform="translate(114.79 770.14) scale(.1 -.1)">
<use xlink:href="#d"/>
<use x="63.623047" xlink:href="#f"/>
<use x="95.410156" xlink:href="#m"/>
<use x="159.033203" xlink:href="#o"/>
</g>
</g>
<g clip-path="url(#a)">
<g transform="translate(162.23 770.14) scale(.1 -.1)">
<use xlink:href="#d"/>
<use x="63.623047" xlink:href="#f"/>
<use x="95.410156" xlink:href="#m"/>
<use x="159.033203" xlink:href="#n"/>
</g>
</g>
<g clip-path="url(#a)">
<g transform="translate(257.13 672.74) scale(.1 -.1)">
<use xlink:href="#d"/>
<use x="63.623047" xlink:href="#f"/>
<use x="95.410156" xlink:href="#m"/>
<use x="159.033203" xlink:href="#m"/>
</g>
</g>
<g clip-path="url(#a)">
<g transform="translate(209.68 770.14) scale(.1 -.1)">
<use xlink:href="#d"/>
<use x="63.623047" xlink:href="#f"/>
<use x="95.410156" xlink:href="#m"/>
<use x="159.033203" xlink:href="#r"/>
</g>
</g>
<g clip-path="url(#a)">
<g transform="translate(257.13 770.14) scale(.1 -.1)">
<use xlink:href="#d"/>
<use x="63.623047" xlink:href="#f"/>
<use x="95.410156" xlink:href="#m"/>
<use x="159.033203" xlink:href="#af"/>
</g>
</g>
<g clip-path="url(#a)">
<g transform="translate(304.57 770.14) scale(.1 -.1)">
<use xlink:href="#d"/>
<use x="63.623047" xlink:href="#f"/>
<use x="95.410156" xlink:href="#m"/>
<use x="159.033203" xlink:href="#al"/>
</g>
</g>
<g clip-path="url(#a)">
<g transform="translate(636.69 770.14) scale(.1 -.1)">
<use xlink:href="#d"/>
<use x="63.623047" xlink:href="#f"/>
<use x="95.410156" xlink:href="#m"/>
<use x="159.033203" xlink:href="#z"/>
</g>
</g>
<g clip-path="url(#a)">
<g transform="translate(779.03 770.14) scale(.1 -.1)">
<use xlink:href="#d"/>
<use x="63.623047" xlink:href="#f"/>
<use x="95.410156" xlink:href="#m"/>
<use x="159.033203" xlink:href="#y"/>
</g>
</g>
<g clip-path="url(#a)">
<g transform="translate(1158.6 770.14) scale(.1 -.1)">
<use xlink:href="#d"/>
<use x="63.623047" xlink:href="#f"/>
<use x="95.410156" xlink:href="#r"/>
<use x="159.033203" xlink:href="#aa"/>
</g>
</g>
<g clip-path="url(#a)">
<g transform="translate(1633.1 770.14) scale(.1 -.1)">
<use xlink:href="#d"/>
<use x="63.623047" xlink:href="#f"/>
<use x="95.410156" xlink:href="#r"/>
<use x="159.033203" xlink:href="#d"/>
</g>
</g>
<defs>
<clipPath id="a">
<rect width="1722.7" height="906.67"/>
</clipPath>
</defs>
</svg>
