<?xml version="1.0" encoding="UTF-8"?>
<!DOCTYPE svg  PUBLIC '-//W3C//DTD SVG 1.1//EN'  'http://www.w3.org/Graphics/SVG/1.1/DTD/svg11.dtd'>
<svg width="2077.3pt" height="1093.3pt" version="1.1" viewBox="0 0 2077.3 1093.3" xmlns="http://www.w3.org/2000/svg" xmlns:xlink="http://www.w3.org/1999/xlink">
<defs>
<style type="text/css">*{stroke-linecap:butt;stroke-linejoin:round;}</style>
</defs>
<path d="m0 1093.3h2077.3v-1093.3h-2077.3z" fill="#fff"/>
<g fill="none" stroke="#000">
<path d="m719.68 50.611-518.9 508.91" clip-path="url(#a)"/>
<path d="m719.68 50.611-341.88 831.79" clip-path="url(#a)"/>
<path d="m719.68 50.611-196.33 343.23" clip-path="url(#a)"/>
<path d="m719.68 50.611-105.86 831.79" clip-path="url(#a)"/>
<path d="m719.68 50.611 41.069 173.77" clip-path="url(#a)"/>
<path d="m719.68 50.611 413.4 831.79" clip-path="url(#a)"/>
<path d="m719.68 50.611 731.4 173.77" clip-path="url(#a)"/>
<path d="m719.68 50.611-389.09 831.79" clip-path="url(#a)"/>
<path d="m719.68 50.611 366.19 831.79" clip-path="url(#a)"/>
<path d="m200.78 559.52-59.006 162.55" clip-path="url(#a)"/>
<path d="m200.78 559.52 59.006 322.88" clip-path="url(#a)"/>
<path d="m377.8 882.4v160.32" clip-path="url(#a)"/>
<path d="m523.35 393.84-43.271 165.68" clip-path="url(#a)"/>
<path d="m523.35 393.84 43.271 488.56" clip-path="url(#a)"/>
<path d="m613.82 882.4v160.32" clip-path="url(#a)"/>
<path d="m760.75 224.38-99.721 658.02" clip-path="url(#a)"/>
<path d="m760.75 224.38-52.516 658.02" clip-path="url(#a)"/>
<path d="m760.75 224.38 157.55 169.46" clip-path="url(#a)"/>
<path d="m760.75 224.38-5.3106 658.02" clip-path="url(#a)"/>
<path d="m1133.1 882.4v160.32" clip-path="url(#a)"/>
<path d="m1451.1 224.38-247.19 497.69" clip-path="url(#a)"/>
<path d="m1451.1 224.38-129.18 658.02" clip-path="url(#a)"/>
<path d="m1451.1 224.38-34.772 658.02" clip-path="url(#a)"/>
<path d="m1451.1 224.38 12.433 658.02" clip-path="url(#a)"/>
<path d="m1451.1 224.38 59.639 658.02" clip-path="url(#a)"/>
<path d="m1451.1 224.38 232.23 169.46" clip-path="url(#a)"/>
<path d="m1451.1 224.38 106.84 658.02" clip-path="url(#a)"/>
<path d="m1203.9 722.08-23.603 160.32" clip-path="url(#a)"/>
<path d="m1203.9 722.08 23.603 160.32" clip-path="url(#a)"/>
<path d="m1321.9 882.4-47.205 160.32" clip-path="url(#a)"/>
<path d="m1321.9 882.4v160.32" clip-path="url(#a)"/>
<path d="m1321.9 882.4 47.205 160.32" clip-path="url(#a)"/>
<path d="m1416.3 882.4v160.32" clip-path="url(#a)"/>
<path d="m1463.5 882.4v160.32" clip-path="url(#a)"/>
<path d="m1510.7 882.4v160.32" clip-path="url(#a)"/>
<path d="m1683.3 393.84 87.034 488.56" clip-path="url(#a)"/>
<path d="m1683.3 393.84 69.332 165.68" clip-path="url(#a)"/>
<path d="m1683.3 393.84-455.82 488.56" clip-path="url(#a)" stroke-dasharray="3.7,1.6"/>
<path d="m1683.3 393.84 299.46 488.56" clip-path="url(#a)"/>
<path d="m1770.3 882.4-165.22 160.32" clip-path="url(#a)"/>
<path d="m1770.3 882.4 165.22 160.32" clip-path="url(#a)"/>
<path d="m1752.6 559.52-100.31 322.88" clip-path="url(#a)"/>
<path d="m1752.6 559.52-53.106 322.88" clip-path="url(#a)"/>
<path d="m1752.6 559.52 64.907 162.55" clip-path="url(#a)"/>
<path d="m1752.6 559.52 88.509 162.55" clip-path="url(#a)"/>
<path d="m1652.3 882.4v160.32" clip-path="url(#a)"/>
<path d="m1699.5 882.4v160.32" clip-path="url(#a)"/>
<path d="m1817.5 722.08 70.808 160.32" clip-path="url(#a)" stroke-dasharray="3.7,1.6"/>
<path d="m1817.5 722.08-70.808 160.32" clip-path="url(#a)"/>
<path d="m1841.2 722.08-47.205 160.32" clip-path="url(#a)"/>
<path d="m1841.2 722.08v160.32" clip-path="url(#a)"/>
<path d="m1841.2 722.08 47.205 160.32" clip-path="url(#a)"/>
<path d="m1793.9 882.4v160.32" clip-path="url(#a)"/>
<path d="m1841.2 882.4v160.32" clip-path="url(#a)"/>
<path d="m1888.4 882.4v160.32" clip-path="url(#a)"/>
<path d="m1746.7 882.4v160.32" clip-path="url(#a)"/>
<path d="m1180.3 882.4v160.32" clip-path="url(#a)"/>
<path d="m1227.5 882.4v160.32" clip-path="url(#a)"/>
<path d="m661.03 882.4v160.32" clip-path="url(#a)"/>
<path d="m708.23 882.4v160.32" clip-path="url(#a)"/>
<path d="m918.29 393.84-115.65 488.56" clip-path="url(#a)"/>
<path d="m918.29 393.84-68.447 488.56" clip-path="url(#a)"/>
<path d="m918.29 393.84-9.441 165.68" clip-path="url(#a)"/>
<path d="m918.29 393.84 73.168 488.56" clip-path="url(#a)"/>
<path d="m918.29 393.84 120.37 488.56" clip-path="url(#a)"/>
<path d="m802.64 882.4v160.32" clip-path="url(#a)"/>
<path d="m849.85 882.4v160.32" clip-path="url(#a)"/>
<path d="m908.85 559.52-11.801 322.88" clip-path="url(#a)"/>
<path d="m908.85 559.52 11.801 162.55" clip-path="url(#a)"/>
<path d="m991.46 882.4v160.32" clip-path="url(#a)"/>
<path d="m1038.7 882.4v160.32" clip-path="url(#a)"/>
<path d="m897.05 882.4v160.32" clip-path="url(#a)"/>
<path d="m920.65 722.08-23.603 160.32" clip-path="url(#a)" stroke-dasharray="3.7,1.6"/>
<path d="m920.65 722.08 23.603 160.32" clip-path="url(#a)"/>
<path d="m944.26 882.4v160.32" clip-path="url(#a)"/>
<path d="m480.07 559.52-55.073 322.88" clip-path="url(#a)"/>
<path d="m480.07 559.52 15.735 162.55" clip-path="url(#a)"/>
<path d="m480.07 559.52 39.338 322.88" clip-path="url(#a)"/>
<path d="m566.62 882.4v160.32" clip-path="url(#a)"/>
<path d="m425 882.4v160.32" clip-path="url(#a)"/>
<path d="m495.81 722.08 23.603 160.32" clip-path="url(#a)" stroke-dasharray="3.7,1.6"/>
<path d="m495.81 722.08-23.603 160.32" clip-path="url(#a)"/>
<path d="m519.41 882.4v160.32" clip-path="url(#a)"/>
<path d="m472.21 882.4v160.32" clip-path="url(#a)"/>
<path d="m141.77 722.08-47.205 160.32" clip-path="url(#a)"/>
<path d="m141.77 722.08v160.32" clip-path="url(#a)"/>
<path d="m141.77 722.08 47.205 160.32" clip-path="url(#a)"/>
<path d="m259.78 882.4-23.603 160.32" clip-path="url(#a)"/>
<path d="m259.78 882.4 23.603 160.32" clip-path="url(#a)"/>
<path d="m94.566 882.4v160.32" clip-path="url(#a)"/>
<path d="m141.77 882.4v160.32" clip-path="url(#a)"/>
<path d="m188.98 882.4v160.32" clip-path="url(#a)"/>
<path d="m330.59 882.4v160.32" clip-path="url(#a)"/>
<path d="m755.44 882.4v160.32" clip-path="url(#a)"/>
<path d="m1085.9 882.4v160.32" clip-path="url(#a)"/>
<path d="m1557.9 882.4v160.32" clip-path="url(#a)"/>
<path d="m1982.8 882.4v160.32" clip-path="url(#a)"/>
</g>
<path d="m462.47 311.65 4.2953-4.2126q1.7135-1.6805 0.032983-3.394l-5.4213-5.5277q-1.6805-1.7135-3.394-0.032983l-4.2953 4.2126q-1.7135 1.6805-0.032983 3.394l5.4213 5.5277q1.6805 1.7135 3.394 0.032983z" clip-path="url(#a)" fill="#fff" stroke="#fff"/>
<g clip-path="url(#a)">
<defs>
<path id="ai" d="m9.8125 72.906h9.8594v-29.891h35.844v29.891h9.8594v-72.906h-9.8594v34.719h-35.844v-34.719h-9.8594z"/>
</defs>
<g transform="translate(459.63 308.75) rotate(-44.443) scale(.08 -.08)">
<use xlink:href="#ai"/>
</g>
</g>
<path d="m553.69 470.95 1.6946-4.1228q0.91239-2.2198-1.3074-3.1322l-7.1612-2.9434q-2.2198-0.91239-3.1322 1.3074l-1.6946 4.1228q-0.91239 2.2198 1.3074 3.1322l7.1612 2.9434q2.2198 0.91239 3.1322-1.3074z" clip-path="url(#a)" fill="#fff" stroke="#fff"/>
<g clip-path="url(#a)">
<defs>
<path id="an" d="m9.8125 72.906h9.8594v-64.609h35.5v-8.2969h-45.359z"/>
</defs>
<g transform="translate(549.93 469.41) rotate(-67.656) scale(.08 -.08)">
<use xlink:href="#an"/>
</g>
</g>
<path d="m625.46 227.95 2.9872-5.2222q1.1917-2.0833-0.8916-3.2749l-6.7207-3.8443q-2.0833-1.1917-3.2749 0.8916l-2.9872 5.2222q-1.1917 2.0833 0.8916 3.2749l6.7207 3.8443q2.0833 1.1917 3.2749-0.8916z" clip-path="url(#a)" fill="#fff" stroke="#fff"/>
<g clip-path="url(#a)">
<g transform="translate(621.93 225.93) rotate(-60.23) scale(.08 -.08)">
<use xlink:href="#ai"/>
</g>
</g>
<path d="m672.69 469.51 0.56274-4.4218q0.30299-2.3808-2.0778-2.6838l-7.6806-0.97746q-2.3808-0.30299-2.6838 2.0778l-0.56274 4.4218q-0.30299 2.3808 2.0778 2.6838l7.6806 0.97746q2.3808 0.30299 2.6838-2.0778z" clip-path="url(#a)" fill="#fff" stroke="#fff"/>
<g clip-path="url(#a)">
<g transform="translate(668.66 468.99) rotate(-82.747) scale(.08 -.08)">
<use xlink:href="#an"/>
</g>
</g>
<path d="m733.42 136.01 1.3837 5.855q0.552 2.3357 2.8877 1.7837l7.5349-1.7808q2.3357-0.552 1.7837-2.8877l-1.3837-5.855q-0.552-2.3357-2.8877-1.7837l-7.5349 1.7808q-2.3357 0.552-1.7837 2.8877z" clip-path="url(#a)" fill="#fff" stroke="#fff"/>
<g clip-path="url(#a)">
<g transform="translate(737.37 135.08) rotate(76.703) scale(.08 -.08)">
<use xlink:href="#ai"/>
</g>
</g>
<path d="m919.77 467.3 1.9839 3.9917q1.0682 2.1492 3.2174 1.081l6.9334-3.4459q2.1492-1.0682 1.081-3.2173l-1.9839-3.9917q-1.0682-2.1492-3.2173-1.081l-6.9334 3.4459q-2.1492 1.0682-1.081 3.2173z" clip-path="url(#a)" fill="#fff" stroke="#fff"/>
<g clip-path="url(#a)">
<g transform="translate(923.41 465.49) rotate(63.573) scale(.08 -.08)">
<use xlink:href="#an"/>
</g>
</g>
<path d="m1081 142.9 5.8533 1.3907q2.335 0.55477 2.8898-1.7802l1.7897-7.5328q0.55477-2.335-1.7802-2.8898l-5.8533-1.3907q-2.335-0.55477-2.8898 1.7802l-1.7897 7.5328q-0.55477 2.335 1.7802 2.8898z" clip-path="url(#a)" fill="#fff" stroke="#fff"/>
<g clip-path="url(#a)">
<g transform="translate(1081.9 138.95) rotate(13.365) scale(.08 -.08)">
<use xlink:href="#ai"/>
</g>
</g>
<path d="m529.57 471.81 2.4808-5.3035q1.0169-2.1739-1.157-3.1908l-7.0132-3.2806q-2.1739-1.0169-3.1908 1.157l-2.4808 5.3035q-1.0169 2.1739 1.157 3.1908l7.0132 3.2806q2.1739 1.0169 3.1908-1.157z" clip-path="url(#a)" fill="#fff" stroke="#fff"/>
<g clip-path="url(#a)">
<defs>
<path id="ad" d="m8.6875 72.906h9.9219v-44.297q0-11.719 4.2344-16.875 4.25-5.1406 13.781-5.1406 9.4688 0 13.719 5.1406 4.25 5.1562 4.25 16.875v44.297h9.9062v-45.516q0-14.25-7.0625-21.531-7.0469-7.2812-20.812-7.2812-13.828 0-20.891 7.2812-7.0469 7.2812-7.0469 21.531z"/>
</defs>
<g transform="translate(525.89 470.09) rotate(-64.931) scale(.08 -.08)">
<use xlink:href="#ad"/>
</g>
</g>
<path d="m895.86 466.35 2.3592 5.3587q0.96703 2.1966 3.1636 1.2295l7.0862-3.1197q2.1966-0.96703 1.2295-3.1636l-2.3592-5.3587q-0.96703-2.1966-3.1636-1.2295l-7.0862 3.1197q-2.1966 0.96703-1.2295 3.1636z" clip-path="url(#a)" fill="#fff" stroke="#fff"/>
<g clip-path="url(#a)">
<g transform="translate(899.58 464.72) rotate(66.239) scale(.08 -.08)">
<use xlink:href="#ad"/>
</g>
</g>
<path d="m176.24 645.51 1.8673-5.1441q0.81891-2.256-1.4371-3.0749l-7.2778-2.6418q-2.256-0.81891-3.0749 1.4371l-1.8673 5.1441q-0.81891 2.256 1.4371 3.0749l7.2778 2.6418q2.256 0.81891 3.0749-1.4371z" clip-path="url(#a)" fill="#fff" stroke="#fff"/>
<g clip-path="url(#a)">
<defs>
<path id="q" d="m34.188 63.188-13.391-36.281h26.812zm-5.5781 9.7188h11.188l27.781-72.906h-10.25l-6.6406 18.703h-32.859l-6.6406-18.703h-10.406z"/>
</defs>
<g transform="translate(172.42 644.13) rotate(-70.049) scale(.08 -.08)">
<use xlink:href="#q"/>
</g>
</g>
<path d="m223.68 719.72 0.86719 4.7452q0.43146 2.3609 2.7924 1.9294l7.6164-1.3919q2.3609-0.43146 1.9294-2.7924l-0.86719-4.7452q-0.43146-2.3609-2.7924-1.9294l-7.6164 1.3919q-2.3609 0.43146-1.9294 2.7924z" clip-path="url(#a)" fill="#fff" stroke="#fff"/>
<g clip-path="url(#a)">
<defs>
<path id="w" d="m19.672 64.797v-27.391h12.406q6.8906 0 10.641 3.5625 3.7656 3.5625 3.7656 10.156 0 6.5469-3.7656 10.109-3.75 3.5625-10.641 3.5625zm-9.8594 8.1094h22.266q12.266 0 18.531-5.5469 6.2812-5.5469 6.2812-16.234 0-10.797-6.2812-16.312-6.2656-5.5156-18.531-5.5156h-12.406v-29.297h-9.8594z"/>
</defs>
<g transform="translate(227.68 718.99) rotate(79.643) scale(.08 -.08)">
<use xlink:href="#w"/>
</g>
</g>
<path d="m371.52 944.92v35.285q0 2.4 2.4 2.4h7.7425q2.4 0 2.4-2.4v-35.285q0-2.4-2.4-2.4h-7.7425q-2.4 0-2.4 2.4z" clip-path="url(#a)" fill="#fff" stroke="#fff"/>
<g clip-path="url(#a)">
<defs>
<path id="l" d="m-0.29688 72.906h61.672v-8.3125h-25.875v-64.594h-9.9062v64.594h-25.891z"/>
<path id="c" d="m56.203 29.594v-4.3906h-41.312q0.59375-9.2812 5.5938-14.141t13.938-4.8594q5.1719 0 10.031 1.2656t9.6562 3.8125v-8.5q-4.8438-2.0469-9.9219-3.125t-10.297-1.0781q-13.094 0-20.734 7.6094-7.6406 7.625-7.6406 20.625 0 13.422 7.25 21.297 7.25 7.8906 19.562 7.8906 11.031 0 17.453-7.1094 6.4219-7.0938 6.4219-19.297zm-8.9844 2.6406q-0.09375 7.3594-4.125 11.75-4.0312 4.4062-10.672 4.4062-7.5156 0-12.031-4.25t-5.2031-11.969z"/>
<path id="e" d="m41.109 46.297q-1.5156 0.875-3.2969 1.2812-1.7812 0.42188-3.9219 0.42188-7.625 0-11.703-4.9531t-4.0781-14.234v-28.812h-9.0312v54.688h9.0312v-8.5q2.8438 4.9844 7.375 7.3906 4.5469 2.4219 11.047 2.4219 0.92188 0 2.0469-0.125 1.125-0.10938 2.4844-0.35938z"/>
<path id="j" d="m52 44.188q3.375 6.0625 8.0625 8.9375t11.031 2.875q8.5469 0 13.188-5.9844 4.6406-5.9688 4.6406-17v-33.016h-9.0312v32.719q0 7.8594-2.7969 11.656-2.7812 3.8125-8.4844 3.8125-6.9844 0-11.047-4.6406-4.0469-4.625-4.0469-12.641v-30.906h-9.0312v32.719q0 7.9062-2.7812 11.688t-8.5938 3.7812q-6.8906 0-10.953-4.6562-4.0469-4.6562-4.0469-12.625v-30.906h-9.0312v54.688h9.0312v-8.5q3.0781 5.0312 7.375 7.4219t10.203 2.3906q5.9688 0 10.141-3.0312 4.1719-3.0156 6.1719-8.7812z"/>
<path id="h" d="m9.4219 54.688h8.9844v-54.688h-8.9844zm0 21.297h8.9844v-11.391h-8.9844z"/>
<path id="g" d="m54.891 33.016v-33.016h-8.9844v32.719q0 7.7656-3.0312 11.609-3.0312 3.8594-9.0781 3.8594-7.2812 0-11.484-4.6406-4.2031-4.625-4.2031-12.641v-30.906h-9.0312v54.688h9.0312v-8.5q3.2344 4.9375 7.5938 7.375 4.375 2.4375 10.094 2.4375 9.4219 0 14.25-5.8281 4.8438-5.8281 4.8438-17.156z"/>
<path id="i" d="m34.281 27.484q-10.891 0-15.094-2.4844t-4.2031-8.5q0-4.7812 3.1562-7.5938 3.1562-2.7969 8.5625-2.7969 7.4844 0 12 5.2969t4.5156 14.078v2zm17.922 3.7188v-31.203h-8.9844v8.2969q-3.0781-4.9688-7.6719-7.3438t-11.234-2.375q-8.3906 0-13.359 4.7188-4.9531 4.7188-4.9531 12.625 0 9.2188 6.1719 13.906 6.1875 4.6875 18.438 4.6875h12.609v0.89062q0 6.2031-4.0781 9.5938t-11.453 3.3906q-4.6875 0-9.1406-1.125-4.4375-1.125-8.5312-3.375v8.3125q4.9219 1.9062 9.5625 2.8438 4.6406 0.95312 9.0312 0.95312 11.875 0 17.734-6.1562 5.8594-6.1406 5.8594-18.641z"/>
<path id="k" d="m9.4219 75.984h8.9844v-75.984h-8.9844z"/>
</defs>
<g transform="translate(375.59 944.92) rotate(90) scale(.08 -.08)">
<use xlink:href="#l"/>
<use x="60.818359" xlink:href="#c"/>
<use x="122.341797" xlink:href="#e"/>
<use x="163.439453" xlink:href="#j"/>
<use x="260.851562" xlink:href="#h"/>
<use x="288.634766" xlink:href="#g"/>
<use x="352.013672" xlink:href="#i"/>
<use x="413.292969" xlink:href="#k"/>
</g>
</g>
<path d="m507.09 480.91 1.3829-5.2949q0.60646-2.3221-1.7156-2.9286l-7.4912-1.9565q-2.3221-0.60646-2.9286 1.7156l-1.3829 5.2949q-0.60646 2.3221 1.7156 2.9286l7.4912 1.9565q2.3221 0.60646 2.9286-1.7156z" clip-path="url(#a)" fill="#fff" stroke="#fff"/>
<g clip-path="url(#a)">
<g transform="translate(503.15 479.89) rotate(-75.363) scale(.08 -.08)">
<use xlink:href="#q"/>
</g>
</g>
<path d="m538.52 636.27 0.42557 4.8049q0.21174 2.3906 2.6024 2.1789l7.7123-0.68307q2.3906-0.21174 2.1789-2.6024l-0.42557-4.8049q-0.21174-2.3906-2.6024-2.1789l-7.7123 0.68307q-2.3906 0.21174-2.1789 2.6024z" clip-path="url(#a)" fill="#fff" stroke="#fff"/>
<g clip-path="url(#a)">
<g transform="translate(542.57 635.91) rotate(84.939) scale(.08 -.08)">
<use xlink:href="#w"/>
</g>
</g>
<path d="m607.55 944.92v35.285q0 2.4 2.4 2.4h7.7425q2.4 0 2.4-2.4v-35.285q0-2.4-2.4-2.4h-7.7425q-2.4 0-2.4 2.4z" clip-path="url(#a)" fill="#fff" stroke="#fff"/>
<g clip-path="url(#a)">
<g transform="translate(611.61 944.92) rotate(90) scale(.08 -.08)">
<use xlink:href="#l"/>
<use x="60.818359" xlink:href="#c"/>
<use x="122.341797" xlink:href="#e"/>
<use x="163.439453" xlink:href="#j"/>
<use x="260.851562" xlink:href="#h"/>
<use x="288.634766" xlink:href="#g"/>
<use x="352.013672" xlink:href="#i"/>
<use x="413.292969" xlink:href="#k"/>
</g>
</g>
<path d="m716.68 557.04 0.81998-5.4107q0.35961-2.3729-2.0133-2.7325l-7.6551-1.1601q-2.3729-0.35961-2.7325 2.0133l-0.81998 5.4107q-0.35961 2.3729 2.0133 2.7325l7.6551 1.1601q2.3729 0.35961 2.7325-2.0133z" clip-path="url(#a)" fill="#fff" stroke="#fff"/>
<g clip-path="url(#a)">
<g transform="translate(712.66 556.43) rotate(-81.383) scale(.08 -.08)">
<use xlink:href="#q"/>
</g>
</g>
<path d="m740.55 556.29 0.38376-4.8085q0.19093-2.3924-2.2015-2.5833l-7.718-0.61596q-2.3924-0.19093-2.5833 2.2015l-0.38376 4.8085q-0.19093 2.3924 2.2015 2.5833l7.718 0.61596q2.3924 0.19093 2.5833-2.2015z" clip-path="url(#a)" fill="#fff" stroke="#fff"/>
<g clip-path="url(#a)">
<g transform="translate(736.5 555.97) rotate(-85.437) scale(.08 -.08)">
<use xlink:href="#w"/>
</g>
</g>
<path d="m833.06 311.38 3.7262 4.0079q1.6342 1.7577 3.3919 0.12355l5.6704-5.2719q1.7577-1.6342 0.12355-3.3919l-3.7262-4.0079q-1.6342-1.7577-3.3919-0.12355l-5.6704 5.2719q-1.7577 1.6342-0.12355 3.3919z" clip-path="url(#a)" fill="#fff" stroke="#fff"/>
<g clip-path="url(#a)">
<g transform="translate(836.04 308.61) rotate(47.086) scale(.08 -.08)">
<use xlink:href="#q"/>
</g>
</g>
<path d="m764.34 556.37 0.047252-5.8548q0.019369-2.3999-2.3806-2.4193l-7.7422-0.062484q-2.3999-0.019369-2.4193 2.3806l-0.047251 5.8548q-0.019369 2.3999 2.3806 2.4193l7.7422 0.062484q2.3999 0.019369 2.4193-2.3806z" clip-path="url(#a)" fill="#fff" stroke="#fff"/>
<g clip-path="url(#a)">
<g transform="translate(760.28 556.34) rotate(-89.538) scale(.08 -.08)">
<use xlink:href="#ad"/>
</g>
</g>
<path d="m1126.8 944.92v35.285q0 2.4 2.4 2.4h7.7425q2.4 0 2.4-2.4v-35.285q0-2.4-2.4-2.4h-7.7425q-2.4 0-2.4 2.4z" clip-path="url(#a)" fill="#fff" stroke="#fff"/>
<g clip-path="url(#a)">
<g transform="translate(1130.9 944.92) rotate(90) scale(.08 -.08)">
<use xlink:href="#l"/>
<use x="60.818359" xlink:href="#c"/>
<use x="122.341797" xlink:href="#e"/>
<use x="163.439453" xlink:href="#j"/>
<use x="260.851562" xlink:href="#h"/>
<use x="288.634766" xlink:href="#g"/>
<use x="352.013672" xlink:href="#i"/>
<use x="413.292969" xlink:href="#k"/>
</g>
</g>
<path d="m1331.9 478.47 2.4343-4.9012q1.0676-2.1495-1.0819-3.2171l-6.9343-3.4441q-2.1495-1.0676-3.2171 1.0819l-2.4343 4.9012q-1.0676 2.1495 1.0819 3.2171l6.9343 3.4441q2.1495 1.0676 3.2171-1.0819z" clip-path="url(#a)" fill="#fff" stroke="#fff"/>
<g clip-path="url(#a)">
<g transform="translate(1328.2 476.66) rotate(-63.587) scale(.08 -.08)">
<use xlink:href="#q"/>
</g>
</g>
<path d="m1392 557.62 1.1867-6.0446q0.46234-2.355-1.8927-2.8174l-7.5975-1.4915q-2.355-0.46234-2.8174 1.8927l-1.1867 6.0446q-0.46234 2.355 1.8927 2.8174l7.5975 1.4915q2.355 0.46234 2.8174-1.8927z" clip-path="url(#a)" fill="#fff" stroke="#fff"/>
<g clip-path="url(#a)">
<defs>
<path id="aj" d="m19.672 64.797v-56.688h11.922q15.094 0 22.094 6.8281 7 6.8438 7 21.594 0 14.641-7 21.453t-22.094 6.8125zm-9.8594 8.1094h20.266q21.188 0 31.094-8.8125 9.9219-8.8125 9.9219-27.562 0-18.859-9.9688-27.703-9.9531-8.8281-31.047-8.8281h-20.266z"/>
</defs>
<g transform="translate(1388.1 556.84) rotate(-78.893) scale(.08 -.08)">
<use xlink:href="#aj"/>
</g>
</g>
<path d="m1439.8 556.8 0.32506-6.1514q0.12665-2.3967-2.27-2.5233l-7.7317-0.40857q-2.3967-0.12665-2.5233 2.27l-0.32506 6.1514q-0.12665 2.3967 2.27 2.5233l7.7317 0.40857q2.3967 0.12665 2.5233-2.27z" clip-path="url(#a)" fill="#fff" stroke="#fff"/>
<g clip-path="url(#a)">
<g transform="translate(1435.7 556.58) rotate(-86.975) scale(.08 -.08)">
<use xlink:href="#aj"/>
</g>
</g>
<path d="m1451 550.97 0.095948 5.0778q0.04534 2.3996 2.4449 2.3542l7.7411-0.14627q2.3996-0.045341 2.3542-2.4449l-0.095948-5.0778q-0.04534-2.3996-2.4449-2.3542l-7.7411 0.14627q-2.3996 0.04534-2.3542 2.4449z" clip-path="url(#a)" fill="#fff" stroke="#fff"/>
<g clip-path="url(#a)">
<defs>
<path id="ah" d="m53.516 70.516v-9.625q-5.6094 2.6875-10.594 4-4.9844 1.3281-9.625 1.3281-8.0469 0-12.422-3.125t-4.375-8.8906q0-4.8438 2.9062-7.3125 2.9062-2.4531 11.016-3.9688l5.9531-1.2188q11.031-2.1094 16.281-7.4062t5.25-14.172q0-10.609-7.1094-16.078-7.0938-5.4688-20.812-5.4688-5.1719 0-11.016 1.1719-5.8281 1.1719-12.078 3.4688v10.156q6-3.3594 11.766-5.0781 5.7656-1.7031 11.328-1.7031 8.4375 0 13.031 3.3125 4.5938 3.3281 4.5938 9.4844 0 5.3594-3.2969 8.3906t-10.812 4.5469l-6.0156 1.1719q-11.031 2.1875-15.969 6.875-4.9219 4.6875-4.9219 13.047 0 9.6719 6.8125 15.234t18.766 5.5625q5.1406 0 10.453-0.9375 5.3281-0.92188 10.891-2.7656z"/>
</defs>
<g transform="translate(1455 550.89) rotate(88.918) scale(.08 -.08)">
<use xlink:href="#ah"/>
</g>
</g>
<path d="m1474.4 551.67 0.41533 4.5825q0.21663 2.3902 2.6068 2.1736l7.7109-0.69887q2.3902-0.21663 2.1736-2.6068l-0.41533-4.5825q-0.21663-2.3902-2.6068-2.1736l-7.7109 0.69887q-2.3902 0.21663-2.1736 2.6068z" clip-path="url(#a)" fill="#fff" stroke="#fff"/>
<g clip-path="url(#a)">
<defs>
<path id="x" d="m9.8125 72.906h41.891v-8.3125h-32.031v-21.484h28.906v-8.2969h-28.906v-34.812h-9.8594z"/>
</defs>
<g transform="translate(1478.5 551.3) rotate(84.821) scale(.08 -.08)">
<use xlink:href="#x"/>
</g>
</g>
<path d="m1561.3 312.56 4.4207 3.2258q1.9387 1.4147 3.3534-0.52405l4.5638-6.2544q1.4147-1.9387-0.52405-3.3534l-4.4207-3.2258q-1.9387-1.4147-3.3534 0.52405l-4.5638 6.2544q-1.4147 1.9387 0.52405 3.3534z" clip-path="url(#a)" fill="#fff" stroke="#fff"/>
<g clip-path="url(#a)">
<g transform="translate(1563.7 309.28) rotate(36.118) scale(.08 -.08)">
<use xlink:href="#q"/>
</g>
</g>
<path d="m1497.8 551.51 0.9384 5.7793q0.38466 2.369 2.7536 1.9843l7.6424-1.2409q2.369-0.38466 1.9843-2.7536l-0.9384-5.7793q-0.38466-2.369-2.7536-1.9843l-7.6424 1.2409q-2.369 0.38466-1.9843 2.7536z" clip-path="url(#a)" fill="#fff" stroke="#fff"/>
<g clip-path="url(#a)">
<g transform="translate(1501.9 550.86) rotate(80.777) scale(.08 -.08)">
<use xlink:href="#ad"/>
</g>
</g>
<path d="m1198 805.43 0.67017-4.5522q0.34956-2.3744-2.0248-2.724l-7.6599-1.1277q-2.3744-0.34956-2.724 2.0248l-0.67017 4.5522q-0.34956 2.3744 2.0248 2.724l7.6599 1.1277q2.3744 0.34956 2.724-2.0248z" clip-path="url(#a)" fill="#fff" stroke="#fff"/>
<g clip-path="url(#a)">
<g transform="translate(1193.9 804.84) rotate(-81.625) scale(.08 -.08)">
<use xlink:href="#x"/>
</g>
</g>
<path d="m1209.1 800.39 0.81363 5.5267q0.34956 2.3744 2.724 2.0248l7.6599-1.1277q2.3744-0.34956 2.0248-2.724l-0.81363-5.5267q-0.34956-2.3744-2.724-2.0248l-7.6599 1.1277q-2.3744 0.34956-2.0248 2.724z" clip-path="url(#a)" fill="#fff" stroke="#fff"/>
<g clip-path="url(#a)">
<defs>
<path id="y" d="m64.406 67.281v-10.391q-4.9844 4.6406-10.625 6.9219-5.6406 2.2969-11.984 2.2969-12.5 0-19.141-7.6406t-6.6406-22.094q0-14.406 6.6406-22.047t19.141-7.6406q6.3438 0 11.984 2.2969t10.625 6.9375v-10.312q-5.1719-3.5156-10.969-5.2812-5.7812-1.75-12.219-1.75-16.562 0-26.094 10.125-9.5156 10.141-9.5156 27.672 0 17.578 9.5156 27.703 9.5312 10.141 26.094 10.141 6.5312 0 12.312-1.7344 5.7969-1.7344 10.875-5.2031z"/>
</defs>
<g transform="translate(1213.1 799.8) rotate(81.625) scale(.08 -.08)">
<use xlink:href="#y"/>
</g>
</g>
<path d="m1299.3 981.26 9.9662-33.848q0.67788-2.3023-1.6244-2.9802l-7.4272-2.1869q-2.3023-0.67788-2.9802 1.6244l-9.9662 33.848q-0.67788 2.3023 1.6244 2.9802l7.4272 2.1869q2.3023 0.67788 2.9802-1.6244z" clip-path="url(#a)" fill="#fff" stroke="#fff"/>
<g clip-path="url(#a)">
<g transform="translate(1295.4 980.11) rotate(-73.594) scale(.08 -.08)">
<use xlink:href="#l"/>
<use x="60.818359" xlink:href="#c"/>
<use x="122.341797" xlink:href="#e"/>
<use x="163.439453" xlink:href="#j"/>
<use x="260.851562" xlink:href="#h"/>
<use x="288.634766" xlink:href="#g"/>
<use x="352.013672" xlink:href="#i"/>
<use x="413.292969" xlink:href="#k"/>
</g>
</g>
<path d="m1315.6 944.92v35.285q0 2.4 2.4 2.4h7.7425q2.4 0 2.4-2.4v-35.285q0-2.4-2.4-2.4h-7.7425q-2.4 0-2.4 2.4z" clip-path="url(#a)" fill="#fff" stroke="#fff"/>
<g clip-path="url(#a)">
<g transform="translate(1319.7 944.92) rotate(90) scale(.08 -.08)">
<use xlink:href="#l"/>
<use x="60.818359" xlink:href="#c"/>
<use x="122.341797" xlink:href="#e"/>
<use x="163.439453" xlink:href="#j"/>
<use x="260.851562" xlink:href="#h"/>
<use x="288.634766" xlink:href="#g"/>
<use x="352.013672" xlink:href="#i"/>
<use x="413.292969" xlink:href="#k"/>
</g>
</g>
<path d="m1334.5 947.41 9.9662 33.848q0.67788 2.3023 2.9802 1.6244l7.4272-2.1869q2.3023-0.67788 1.6244-2.9802l-9.9662-33.848q-0.67788-2.3023-2.9802-1.6244l-7.4272 2.1869q-2.3023 0.67788-1.6244 2.9802z" clip-path="url(#a)" fill="#fff" stroke="#fff"/>
<g clip-path="url(#a)">
<g transform="translate(1338.4 946.26) rotate(73.594) scale(.08 -.08)">
<use xlink:href="#l"/>
<use x="60.818359" xlink:href="#c"/>
<use x="122.341797" xlink:href="#e"/>
<use x="163.439453" xlink:href="#j"/>
<use x="260.851562" xlink:href="#h"/>
<use x="288.634766" xlink:href="#g"/>
<use x="352.013672" xlink:href="#i"/>
<use x="413.292969" xlink:href="#k"/>
</g>
</g>
<path d="m1410 944.92v35.285q0 2.4 2.4 2.4h7.7425q2.4 0 2.4-2.4v-35.285q0-2.4-2.4-2.4h-7.7425q-2.4 0-2.4 2.4z" clip-path="url(#a)" fill="#fff" stroke="#fff"/>
<g clip-path="url(#a)">
<g transform="translate(1414.1 944.92) rotate(90) scale(.08 -.08)">
<use xlink:href="#l"/>
<use x="60.818359" xlink:href="#c"/>
<use x="122.341797" xlink:href="#e"/>
<use x="163.439453" xlink:href="#j"/>
<use x="260.851562" xlink:href="#h"/>
<use x="288.634766" xlink:href="#g"/>
<use x="352.013672" xlink:href="#i"/>
<use x="413.292969" xlink:href="#k"/>
</g>
</g>
<path d="m1457.2 944.92v35.285q0 2.4 2.4 2.4h7.7425q2.4 0 2.4-2.4v-35.285q0-2.4-2.4-2.4h-7.7425q-2.4 0-2.4 2.4z" clip-path="url(#a)" fill="#fff" stroke="#fff"/>
<g clip-path="url(#a)">
<g transform="translate(1461.3 944.92) rotate(90) scale(.08 -.08)">
<use xlink:href="#l"/>
<use x="60.818359" xlink:href="#c"/>
<use x="122.341797" xlink:href="#e"/>
<use x="163.439453" xlink:href="#j"/>
<use x="260.851562" xlink:href="#h"/>
<use x="288.634766" xlink:href="#g"/>
<use x="352.013672" xlink:href="#i"/>
<use x="413.292969" xlink:href="#k"/>
</g>
</g>
<path d="m1504.4 944.92v35.285q0 2.4 2.4 2.4h7.7425q2.4 0 2.4-2.4v-35.285q0-2.4-2.4-2.4h-7.7425q-2.4 0-2.4 2.4z" clip-path="url(#a)" fill="#fff" stroke="#fff"/>
<g clip-path="url(#a)">
<g transform="translate(1508.5 944.92) rotate(90) scale(.08 -.08)">
<use xlink:href="#l"/>
<use x="60.818359" xlink:href="#c"/>
<use x="122.341797" xlink:href="#e"/>
<use x="163.439453" xlink:href="#j"/>
<use x="260.851562" xlink:href="#h"/>
<use x="288.634766" xlink:href="#g"/>
<use x="352.013672" xlink:href="#i"/>
<use x="413.292969" xlink:href="#k"/>
</g>
</g>
<path d="m1720.2 636.85 0.84601 4.749q0.42092 2.3628 2.7837 1.9419l7.6225-1.3579q2.3628-0.42092 1.9419-2.7837l-0.84601-4.749q-0.42092-2.3628-2.7837-1.9419l-7.6225 1.3579q-2.3628 0.42092-1.9419 2.7837z" clip-path="url(#a)" fill="#fff" stroke="#fff"/>
<g clip-path="url(#a)">
<g transform="translate(1724.2 636.13) rotate(79.899) scale(.08 -.08)">
<use xlink:href="#w"/>
</g>
</g>
<path d="m1711.1 476.58 2.1125 5.0483q0.92647 2.214 3.1404 1.2875l7.1424-2.9888q2.214-0.92647 1.2875-3.1404l-2.1125-5.0483q-0.92647-2.214-3.1404-1.2875l-7.1424 2.9888q-2.214 0.92647-1.2875 3.1404z" clip-path="url(#a)" fill="#fff" stroke="#fff"/>
<g clip-path="url(#a)">
<g transform="translate(1714.9 475.01) rotate(67.292) scale(.08 -.08)">
<use xlink:href="#q"/>
</g>
</g>
<path d="m1458.1 644.4 3.7333-4.0014q1.6372-1.7548-0.11758-3.3921l-5.6611-5.2818q-1.7548-1.6372-3.3921 0.11758l-3.7333 4.0014q-1.6372 1.7548 0.11758 3.3921l5.6611 5.2818q1.7548 1.6372 3.3921-0.11758z" clip-path="url(#a)" fill="#fff" stroke="#fff"/>
<g clip-path="url(#a)">
<g transform="translate(1455.1 641.63) rotate(-46.985) scale(.08 -.08)">
<use xlink:href="#q"/>
</g>
</g>
<path d="m1826.2 638.9 3.0597 4.9919q1.2542 2.0462 3.3004 0.79201l6.6012-4.0461q2.0462-1.2542 0.79201-3.3004l-3.0597-4.9919q-1.2542-2.0462-3.3004-0.79201l-6.6012 4.0461q-2.0462 1.2542-0.79201 3.3004z" clip-path="url(#a)" fill="#fff" stroke="#fff"/>
<g clip-path="url(#a)">
<g transform="translate(1829.6 636.78) rotate(58.494) scale(.08 -.08)">
<use xlink:href="#ad"/>
</g>
</g>
<path d="m1679.4 979.35 25.323-24.572q1.7224-1.6713 0.051031-3.3937l-5.3918-5.5565q-1.6714-1.7224-3.3937-0.05103l-25.323 24.572q-1.7224 1.6713-0.05103 3.3937l5.3918 5.5565q1.6714 1.7224 3.3937 0.05103z" clip-path="url(#a)" fill="#fff" stroke="#fff"/>
<g clip-path="url(#a)">
<g transform="translate(1676.6 976.43) rotate(-44.139) scale(.08 -.08)">
<use xlink:href="#l"/>
<use x="60.818359" xlink:href="#c"/>
<use x="122.341797" xlink:href="#e"/>
<use x="163.439453" xlink:href="#j"/>
<use x="260.851562" xlink:href="#h"/>
<use x="288.634766" xlink:href="#g"/>
<use x="352.013672" xlink:href="#i"/>
<use x="413.292969" xlink:href="#k"/>
</g>
</g>
<path d="m1835.9 954.78 25.323 24.572q1.7224 1.6713 3.3937-0.05103l5.3918-5.5565q1.6713-1.7224-0.05103-3.3937l-25.323-24.572q-1.7224-1.6713-3.3937 0.05103l-5.3918 5.5565q-1.6714 1.7224 0.05103 3.3937z" clip-path="url(#a)" fill="#fff" stroke="#fff"/>
<g clip-path="url(#a)">
<g transform="translate(1838.8 951.86) rotate(44.139) scale(.08 -.08)">
<use xlink:href="#l"/>
<use x="60.818359" xlink:href="#c"/>
<use x="122.341797" xlink:href="#e"/>
<use x="163.439453" xlink:href="#j"/>
<use x="260.851562" xlink:href="#h"/>
<use x="288.634766" xlink:href="#g"/>
<use x="352.013672" xlink:href="#i"/>
<use x="413.292969" xlink:href="#k"/>
</g>
</g>
<path d="m1707.7 725.48 1.6492-5.3085q0.71206-2.2919-1.5799-3.004l-7.3939-2.2971q-2.2919-0.71206-3.004 1.5799l-1.6492 5.3085q-0.71206 2.2919 1.5799 3.004l7.3939 2.2971q2.2919 0.71206 3.004-1.5799z" clip-path="url(#a)" fill="#fff" stroke="#fff"/>
<g clip-path="url(#a)">
<defs>
<path id="ar" d="m44.391 34.188q3.1719-1.0781 6.1719-4.5938t6.0312-9.6719l10.016-19.922h-10.609l-9.3125 18.703q-3.625 7.3281-7.0156 9.7188t-9.25 2.3906h-10.75v-30.812h-9.8594v72.906h22.266q12.5 0 18.656-5.2344 6.1562-5.2188 6.1562-15.766 0-6.8906-3.2031-11.438-3.2031-4.5312-9.2969-6.2812zm-24.719 30.609v-25.875h12.406q7.125 0 10.766 3.2969t3.6406 9.6875-3.6406 9.6406-10.766 3.25z"/>
</defs>
<g transform="translate(1703.8 724.27) rotate(-72.741) scale(.08 -.08)">
<use xlink:href="#ar"/>
</g>
</g>
<path d="m1731.9 724.25 0.74677-4.5402q0.38951-2.3682-1.9787-2.7577l-7.6398-1.2566q-2.3682-0.38951-2.7577 1.9787l-0.74677 4.5402q-0.38951 2.3682 1.9787 2.7577l7.6398 1.2566q2.3682 0.38951 2.7577-1.9787z" clip-path="url(#a)" fill="#fff" stroke="#fff"/>
<g clip-path="url(#a)">
<g transform="translate(1727.9 723.59) rotate(-80.66) scale(.08 -.08)">
<use xlink:href="#x"/>
</g>
</g>
<path d="m1778.2 640.53 2.0715 5.188q0.88999 2.2289 3.1189 1.3389l7.1905-2.8711q2.2289-0.88999 1.3389-3.1189l-2.0715-5.188q-0.88999-2.2289-3.1189-1.3389l-7.1905 2.8711q-2.2289 0.88999-1.3389 3.1189z" clip-path="url(#a)" fill="#fff" stroke="#fff"/>
<g clip-path="url(#a)">
<g transform="translate(1782 639.02) rotate(68.233) scale(.08 -.08)">
<use xlink:href="#y"/>
</g>
</g>
<path d="m1790.2 641.58 2.4173 4.4395q1.1477 2.1078 3.2555 0.96011l6.7998-3.7025q2.1078-1.1477 0.96011-3.2555l-2.4173-4.4396q-1.1477-2.1078-3.2555-0.96011l-6.7998 3.7025q-2.1078 1.1477-0.96011 3.2555z" clip-path="url(#a)" fill="#fff" stroke="#fff"/>
<g clip-path="url(#a)">
<defs>
<path id="ae" d="m9.8125 72.906h46.094v-8.3125h-36.234v-21.578h34.719v-8.2969h-34.719v-26.422h37.109v-8.2969h-46.969z"/>
</defs>
<g transform="translate(1793.8 639.64) rotate(61.432) scale(.08 -.08)">
<use xlink:href="#ae"/>
</g>
</g>
<path d="m1646.1 944.92v35.285q0 2.4 2.4 2.4h7.7425q2.4 0 2.4-2.4v-35.285q0-2.4-2.4-2.4h-7.7425q-2.4 0-2.4 2.4z" clip-path="url(#a)" fill="#fff" stroke="#fff"/>
<g clip-path="url(#a)">
<g transform="translate(1650.1 944.92) rotate(90) scale(.08 -.08)">
<use xlink:href="#l"/>
<use x="60.818359" xlink:href="#c"/>
<use x="122.341797" xlink:href="#e"/>
<use x="163.439453" xlink:href="#j"/>
<use x="260.851562" xlink:href="#h"/>
<use x="288.634766" xlink:href="#g"/>
<use x="352.013672" xlink:href="#i"/>
<use x="413.292969" xlink:href="#k"/>
</g>
</g>
<path d="m1693.3 944.92v35.285q0 2.4 2.4 2.4h7.7425q2.4 0 2.4-2.4v-35.285q0-2.4-2.4-2.4h-7.7425q-2.4 0-2.4 2.4z" clip-path="url(#a)" fill="#fff" stroke="#fff"/>
<g clip-path="url(#a)">
<g transform="translate(1697.3 944.92) rotate(90) scale(.08 -.08)">
<use xlink:href="#l"/>
<use x="60.818359" xlink:href="#c"/>
<use x="122.341797" xlink:href="#e"/>
<use x="163.439453" xlink:href="#j"/>
<use x="260.851562" xlink:href="#h"/>
<use x="288.634766" xlink:href="#g"/>
<use x="352.013672" xlink:href="#i"/>
<use x="413.292969" xlink:href="#k"/>
</g>
</g>
<path d="m1846.1 802.27 2.2109 5.006q0.96962 2.1954 3.165 1.2258l7.0825-3.128q2.1954-0.96962 1.2258-3.165l-2.2109-5.006q-0.96962-2.1954-3.165-1.2258l-7.0825 3.128q-2.1954 0.96962-1.2258 3.165z" clip-path="url(#a)" fill="#fff" stroke="#fff"/>
<g clip-path="url(#a)">
<g transform="translate(1849.8 800.63) rotate(66.171) scale(.08 -.08)">
<use xlink:href="#q"/>
</g>
</g>
<path d="m1786.9 806.98 1.9488-4.4126q0.96962-2.1954-1.2258-3.165l-7.0825-3.128q-2.1954-0.96962-3.165 1.2258l-1.9488 4.4126q-0.96962 2.1954 1.2258 3.165l7.0825 3.128q2.1954 0.96962 3.165-1.2258z" clip-path="url(#a)" fill="#fff" stroke="#fff"/>
<g clip-path="url(#a)">
<g transform="translate(1783.2 805.34) rotate(-66.171) scale(.08 -.08)">
<use xlink:href="#w"/>
</g>
</g>
<path d="m1822.8 806.68 1.5701-5.3324q0.67788-2.3023-1.6244-2.9802l-7.4272-2.1869q-2.3023-0.67788-2.9802 1.6244l-1.5701 5.3324q-0.67788 2.3023 1.6244 2.9802l7.4272 2.1869q2.3023 0.67788 2.9802-1.6244z" clip-path="url(#a)" fill="#fff" stroke="#fff"/>
<g clip-path="url(#a)">
<g transform="translate(1818.9 805.53) rotate(-73.594) scale(.08 -.08)">
<use xlink:href="#ar"/>
</g>
</g>
<path d="m1834.9 799.71v5.055q0 2.4 2.4 2.4h7.7425q2.4 0 2.4-2.4v-5.055q0-2.4-2.4-2.4h-7.7425q-2.4 0-2.4 2.4z" clip-path="url(#a)" fill="#fff" stroke="#fff"/>
<g clip-path="url(#a)">
<g transform="translate(1838.9 799.71) rotate(90) scale(.08 -.08)">
<use xlink:href="#ae"/>
</g>
</g>
<path d="m1857.9 801.33 1.5778 5.3588q0.67788 2.3023 2.9802 1.6244l7.4272-2.1869q2.3023-0.67788 1.6244-2.9802l-1.5778-5.3588q-0.67788-2.3023-2.9802-1.6244l-7.4272 2.1869q-2.3023 0.67788-1.6244 2.9802z" clip-path="url(#a)" fill="#fff" stroke="#fff"/>
<g clip-path="url(#a)">
<g transform="translate(1861.8 800.18) rotate(73.594) scale(.08 -.08)">
<use xlink:href="#y"/>
</g>
</g>
<path d="m1787.7 944.92v35.285q0 2.4 2.4 2.4h7.7425q2.4 0 2.4-2.4v-35.285q0-2.4-2.4-2.4h-7.7425q-2.4 0-2.4 2.4z" clip-path="url(#a)" fill="#fff" stroke="#fff"/>
<g clip-path="url(#a)">
<g transform="translate(1791.7 944.92) rotate(90) scale(.08 -.08)">
<use xlink:href="#l"/>
<use x="60.818359" xlink:href="#c"/>
<use x="122.341797" xlink:href="#e"/>
<use x="163.439453" xlink:href="#j"/>
<use x="260.851562" xlink:href="#h"/>
<use x="288.634766" xlink:href="#g"/>
<use x="352.013672" xlink:href="#i"/>
<use x="413.292969" xlink:href="#k"/>
</g>
</g>
<path d="m1834.9 944.92v35.285q0 2.4 2.4 2.4h7.7425q2.4 0 2.4-2.4v-35.285q0-2.4-2.4-2.4h-7.7425q-2.4 0-2.4 2.4z" clip-path="url(#a)" fill="#fff" stroke="#fff"/>
<g clip-path="url(#a)">
<g transform="translate(1838.9 944.92) rotate(90) scale(.08 -.08)">
<use xlink:href="#l"/>
<use x="60.818359" xlink:href="#c"/>
<use x="122.341797" xlink:href="#e"/>
<use x="163.439453" xlink:href="#j"/>
<use x="260.851562" xlink:href="#h"/>
<use x="288.634766" xlink:href="#g"/>
<use x="352.013672" xlink:href="#i"/>
<use x="413.292969" xlink:href="#k"/>
</g>
</g>
<path d="m1882.1 944.92v35.285q0 2.4 2.4 2.4h7.7425q2.4 0 2.4-2.4v-35.285q0-2.4-2.4-2.4h-7.7425q-2.4 0-2.4 2.4z" clip-path="url(#a)" fill="#fff" stroke="#fff"/>
<g clip-path="url(#a)">
<g transform="translate(1886.1 944.92) rotate(90) scale(.08 -.08)">
<use xlink:href="#l"/>
<use x="60.818359" xlink:href="#c"/>
<use x="122.341797" xlink:href="#e"/>
<use x="163.439453" xlink:href="#j"/>
<use x="260.851562" xlink:href="#h"/>
<use x="288.634766" xlink:href="#g"/>
<use x="352.013672" xlink:href="#i"/>
<use x="413.292969" xlink:href="#k"/>
</g>
</g>
<path d="m1740.5 944.92v35.285q0 2.4 2.4 2.4h7.7425q2.4 0 2.4-2.4v-35.285q0-2.4-2.4-2.4h-7.7425q-2.4 0-2.4 2.4z" clip-path="url(#a)" fill="#fff" stroke="#fff"/>
<g clip-path="url(#a)">
<g transform="translate(1744.5 944.92) rotate(90) scale(.08 -.08)">
<use xlink:href="#l"/>
<use x="60.818359" xlink:href="#c"/>
<use x="122.341797" xlink:href="#e"/>
<use x="163.439453" xlink:href="#j"/>
<use x="260.851562" xlink:href="#h"/>
<use x="288.634766" xlink:href="#g"/>
<use x="352.013672" xlink:href="#i"/>
<use x="413.292969" xlink:href="#k"/>
</g>
</g>
<path d="m1174 944.92v35.285q0 2.4 2.4 2.4h7.7425q2.4 0 2.4-2.4v-35.285q0-2.4-2.4-2.4h-7.7425q-2.4 0-2.4 2.4z" clip-path="url(#a)" fill="#fff" stroke="#fff"/>
<g clip-path="url(#a)">
<g transform="translate(1178.1 944.92) rotate(90) scale(.08 -.08)">
<use xlink:href="#l"/>
<use x="60.818359" xlink:href="#c"/>
<use x="122.341797" xlink:href="#e"/>
<use x="163.439453" xlink:href="#j"/>
<use x="260.851562" xlink:href="#h"/>
<use x="288.634766" xlink:href="#g"/>
<use x="352.013672" xlink:href="#i"/>
<use x="413.292969" xlink:href="#k"/>
</g>
</g>
<path d="m1221.2 944.92v35.285q0 2.4 2.4 2.4h7.7425q2.4 0 2.4-2.4v-35.285q0-2.4-2.4-2.4h-7.7425q-2.4 0-2.4 2.4z" clip-path="url(#a)" fill="#fff" stroke="#fff"/>
<g clip-path="url(#a)">
<g transform="translate(1225.3 944.92) rotate(90) scale(.08 -.08)">
<use xlink:href="#l"/>
<use x="60.818359" xlink:href="#c"/>
<use x="122.341797" xlink:href="#e"/>
<use x="163.439453" xlink:href="#j"/>
<use x="260.851562" xlink:href="#h"/>
<use x="288.634766" xlink:href="#g"/>
<use x="352.013672" xlink:href="#i"/>
<use x="413.292969" xlink:href="#k"/>
</g>
</g>
<path d="m654.76 944.92v35.285q0 2.4 2.4 2.4h7.7425q2.4 0 2.4-2.4v-35.285q0-2.4-2.4-2.4h-7.7425q-2.4 0-2.4 2.4z" clip-path="url(#a)" fill="#fff" stroke="#fff"/>
<g clip-path="url(#a)">
<g transform="translate(658.82 944.92) rotate(90) scale(.08 -.08)">
<use xlink:href="#l"/>
<use x="60.818359" xlink:href="#c"/>
<use x="122.341797" xlink:href="#e"/>
<use x="163.439453" xlink:href="#j"/>
<use x="260.851562" xlink:href="#h"/>
<use x="288.634766" xlink:href="#g"/>
<use x="352.013672" xlink:href="#i"/>
<use x="413.292969" xlink:href="#k"/>
</g>
</g>
<path d="m701.96 944.92v35.285q0 2.4 2.4 2.4h7.7425q2.4 0 2.4-2.4v-35.285q0-2.4-2.4-2.4h-7.7425q-2.4 0-2.4 2.4z" clip-path="url(#a)" fill="#fff" stroke="#fff"/>
<g clip-path="url(#a)">
<g transform="translate(706.02 944.92) rotate(90) scale(.08 -.08)">
<use xlink:href="#l"/>
<use x="60.818359" xlink:href="#c"/>
<use x="122.341797" xlink:href="#e"/>
<use x="163.439453" xlink:href="#j"/>
<use x="260.851562" xlink:href="#h"/>
<use x="288.634766" xlink:href="#g"/>
<use x="352.013672" xlink:href="#i"/>
<use x="413.292969" xlink:href="#k"/>
</g>
</g>
<path d="m866.04 641.8 1.0599-4.4775q0.55285-2.3355-1.7826-2.8883l-7.5343-1.7835q-2.3355-0.55285-2.8883 1.7826l-1.0599 4.4775q-0.55285 2.3355 1.7826 2.8883l7.5343 1.7835q2.3355 0.55285 2.8883-1.7826z" clip-path="url(#a)" fill="#fff" stroke="#fff"/>
<g clip-path="url(#a)">
<g transform="translate(862.09 640.87) rotate(-76.682) scale(.08 -.08)">
<use xlink:href="#x"/>
</g>
</g>
<path d="m889.85 642.04 0.85467-6.1004q0.33299-2.3768-2.0438-2.7098l-7.6676-1.0742q-2.3768-0.33299-2.7098 2.0438l-0.85467 6.1004q-0.33299 2.3768 2.0438 2.7098l7.6676 1.0742q2.3768 0.33299 2.7098-2.0438z" clip-path="url(#a)" fill="#fff" stroke="#fff"/>
<g clip-path="url(#a)">
<g transform="translate(885.83 641.48) rotate(-82.025) scale(.08 -.08)">
<use xlink:href="#aj"/>
</g>
</g>
<path d="m919.68 479.77 0.31133-5.4636q0.13654-2.3961-2.2596-2.5326l-7.73-0.44047q-2.3961-0.13654-2.5326 2.2596l-0.31133 5.4636q-0.13654 2.3961 2.2596 2.5326l7.73 0.44047q2.3961 0.13654 2.5326-2.2596z" clip-path="url(#a)" fill="#fff" stroke="#fff"/>
<g clip-path="url(#a)">
<g transform="translate(915.62 479.54) rotate(-86.739) scale(.08 -.08)">
<use xlink:href="#q"/>
</g>
</g>
<path d="m948.27 636.34 0.81054 5.4121q0.35547 2.3735 2.729 2.0181l7.6571-1.1467q2.3735-0.35547 2.0181-2.729l-0.81054-5.4121q-0.35547-2.3735-2.729-2.0181l-7.6571 1.1467q-2.3735 0.35547-2.0181 2.729z" clip-path="url(#a)" fill="#fff" stroke="#fff"/>
<g clip-path="url(#a)">
<g transform="translate(952.29 635.74) rotate(81.483) scale(.08 -.08)">
<use xlink:href="#q"/>
</g>
</g>
<path d="m971.81 637.28 1.154 4.6837q0.57415 2.3303 2.9045 1.7562l7.5177-1.8522q2.3303-0.57415 1.7562-2.9045l-1.154-4.6837q-0.57415-2.3303-2.9045-1.7562l-7.5177 1.8522q-2.3303 0.57415-1.7562 2.9045z" clip-path="url(#a)" fill="#fff" stroke="#fff"/>
<g clip-path="url(#a)">
<g transform="translate(975.76 636.31) rotate(76.159) scale(.08 -.08)">
<use xlink:href="#w"/>
</g>
</g>
<path d="m796.37 944.92v35.285q0 2.4 2.4 2.4h7.7425q2.4 0 2.4-2.4v-35.285q0-2.4-2.4-2.4h-7.7425q-2.4 0-2.4 2.4z" clip-path="url(#a)" fill="#fff" stroke="#fff"/>
<g clip-path="url(#a)">
<g transform="translate(800.43 944.92) rotate(90) scale(.08 -.08)">
<use xlink:href="#l"/>
<use x="60.818359" xlink:href="#c"/>
<use x="122.341797" xlink:href="#e"/>
<use x="163.439453" xlink:href="#j"/>
<use x="260.851562" xlink:href="#h"/>
<use x="288.634766" xlink:href="#g"/>
<use x="352.013672" xlink:href="#i"/>
<use x="413.292969" xlink:href="#k"/>
</g>
</g>
<path d="m843.58 944.92v35.285q0 2.4 2.4 2.4h7.7425q2.4 0 2.4-2.4v-35.285q0-2.4-2.4-2.4h-7.7425q-2.4 0-2.4 2.4z" clip-path="url(#a)" fill="#fff" stroke="#fff"/>
<g clip-path="url(#a)">
<g transform="translate(847.64 944.92) rotate(90) scale(.08 -.08)">
<use xlink:href="#l"/>
<use x="60.818359" xlink:href="#c"/>
<use x="122.341797" xlink:href="#e"/>
<use x="163.439453" xlink:href="#j"/>
<use x="260.851562" xlink:href="#h"/>
<use x="288.634766" xlink:href="#g"/>
<use x="352.013672" xlink:href="#i"/>
<use x="413.292969" xlink:href="#k"/>
</g>
</g>
<path d="m909.13 723.72 0.18464-5.0516q0.087663-2.3984-2.3107-2.4861l-7.7373-0.2828q-2.3984-0.087662-2.4861 2.3107l-0.18464 5.0516q-0.087662 2.3984 2.3107 2.4861l7.7373 0.2828q2.3984 0.087663 2.4861-2.3107z" clip-path="url(#a)" fill="#fff" stroke="#fff"/>
<g clip-path="url(#a)">
<g transform="translate(905.07 723.57) rotate(-87.907) scale(.08 -.08)">
<use xlink:href="#ae"/>
</g>
</g>
<path d="m908.3 638.47 0.4045 5.5716q0.17378 2.3937 2.5675 2.2199l7.7222-0.56063q2.3937-0.17378 2.2199-2.5675l-0.4045-5.5716q-0.17378-2.3937-2.5675-2.2199l-7.7222 0.56063q-2.3937 0.17378-2.2199 2.5675z" clip-path="url(#a)" fill="#fff" stroke="#fff"/>
<g clip-path="url(#a)">
<g transform="translate(912.35 638.17) rotate(85.848) scale(.08 -.08)">
<use xlink:href="#y"/>
</g>
</g>
<path d="m985.19 944.92v35.285q0 2.4 2.4 2.4h7.7425q2.4 0 2.4-2.4v-35.285q0-2.4-2.4-2.4h-7.7425q-2.4 0-2.4 2.4z" clip-path="url(#a)" fill="#fff" stroke="#fff"/>
<g clip-path="url(#a)">
<g transform="translate(989.25 944.92) rotate(90) scale(.08 -.08)">
<use xlink:href="#l"/>
<use x="60.818359" xlink:href="#c"/>
<use x="122.341797" xlink:href="#e"/>
<use x="163.439453" xlink:href="#j"/>
<use x="260.851562" xlink:href="#h"/>
<use x="288.634766" xlink:href="#g"/>
<use x="352.013672" xlink:href="#i"/>
<use x="413.292969" xlink:href="#k"/>
</g>
</g>
<path d="m1032.4 944.92v35.285q0 2.4 2.4 2.4h7.7425q2.4 0 2.4-2.4v-35.285q0-2.4-2.4-2.4h-7.7425q-2.4 0-2.4 2.4z" clip-path="url(#a)" fill="#fff" stroke="#fff"/>
<g clip-path="url(#a)">
<g transform="translate(1036.5 944.92) rotate(90) scale(.08 -.08)">
<use xlink:href="#l"/>
<use x="60.818359" xlink:href="#c"/>
<use x="122.341797" xlink:href="#e"/>
<use x="163.439453" xlink:href="#j"/>
<use x="260.851562" xlink:href="#h"/>
<use x="288.634766" xlink:href="#g"/>
<use x="352.013672" xlink:href="#i"/>
<use x="413.292969" xlink:href="#k"/>
</g>
</g>
<path d="m890.78 944.92v35.285q0 2.4 2.4 2.4h7.7425q2.4 0 2.4-2.4v-35.285q0-2.4-2.4-2.4h-7.7425q-2.4 0-2.4 2.4z" clip-path="url(#a)" fill="#fff" stroke="#fff"/>
<g clip-path="url(#a)">
<g transform="translate(894.84 944.92) rotate(90) scale(.08 -.08)">
<use xlink:href="#l"/>
<use x="60.818359" xlink:href="#c"/>
<use x="122.341797" xlink:href="#e"/>
<use x="163.439453" xlink:href="#j"/>
<use x="260.851562" xlink:href="#h"/>
<use x="288.634766" xlink:href="#g"/>
<use x="352.013672" xlink:href="#i"/>
<use x="413.292969" xlink:href="#k"/>
</g>
</g>
<path d="m914.66 805.86 0.79706-5.4141q0.34956-2.3744-2.0248-2.724l-7.6599-1.1277q-2.3744-0.34956-2.724 2.0248l-0.79706 5.4141q-0.34956 2.3744 2.0248 2.724l7.6599 1.1277q2.3744 0.34956 2.724-2.0248z" clip-path="url(#a)" fill="#fff" stroke="#fff"/>
<g clip-path="url(#a)">
<g transform="translate(910.64 805.27) rotate(-81.625) scale(.08 -.08)">
<use xlink:href="#q"/>
</g>
</g>
<path d="m925.88 800.64 0.73972 5.0246q0.34956 2.3744 2.724 2.0248l7.6599-1.1277q2.3744-0.34956 2.0248-2.724l-0.73972-5.0246q-0.34956-2.3744-2.724-2.0248l-7.6599 1.1277q-2.3744 0.34956-2.0248 2.724z" clip-path="url(#a)" fill="#fff" stroke="#fff"/>
<g clip-path="url(#a)">
<g transform="translate(929.9 800.05) rotate(81.625) scale(.08 -.08)">
<use xlink:href="#ah"/>
</g>
</g>
<path d="m937.99 944.92v35.285q0 2.4 2.4 2.4h7.7425q2.4 0 2.4-2.4v-35.285q0-2.4-2.4-2.4h-7.7425q-2.4 0-2.4 2.4z" clip-path="url(#a)" fill="#fff" stroke="#fff"/>
<g clip-path="url(#a)">
<g transform="translate(942.05 944.92) rotate(90) scale(.08 -.08)">
<use xlink:href="#l"/>
<use x="60.818359" xlink:href="#c"/>
<use x="122.341797" xlink:href="#e"/>
<use x="163.439453" xlink:href="#j"/>
<use x="260.851562" xlink:href="#h"/>
<use x="288.634766" xlink:href="#g"/>
<use x="352.013672" xlink:href="#i"/>
<use x="413.292969" xlink:href="#k"/>
</g>
</g>
<path d="m458.33 724.28 0.77366-4.5357q0.40354-2.3658-1.9623-2.7694l-7.6323-1.3018q-2.3658-0.40354-2.7694 1.9623l-0.77366 4.5357q-0.40354 2.3658 1.9623 2.7694l7.6323 1.3018q2.3658 0.40354 2.7694-1.9623z" clip-path="url(#a)" fill="#fff" stroke="#fff"/>
<g clip-path="url(#a)">
<g transform="translate(454.33 723.6) rotate(-80.32) scale(.08 -.08)">
<use xlink:href="#x"/>
</g>
</g>
<path d="m481.46 638.89 0.48704 5.0315q0.23124 2.3888 2.6201 2.1576l7.7065-0.74598q2.3888-0.23124 2.1576-2.6201l-0.48704-5.0315q-0.23124-2.3888-2.6201-2.1576l-7.7065 0.74598q-2.3888 0.23124-2.1576 2.6201z" clip-path="url(#a)" fill="#fff" stroke="#fff"/>
<g clip-path="url(#a)">
<g transform="translate(485.5 638.5) rotate(84.471) scale(.08 -.08)">
<use xlink:href="#ae"/>
</g>
</g>
<path d="m493.18 718.95 0.6756 5.5452q0.29026 2.3824 2.6726 2.0921l7.6857-0.93638q2.3824-0.29026 2.0921-2.6726l-0.6756-5.5452q-0.29026-2.3824-2.6726-2.0921l-7.6857 0.93638q-2.3824 0.29026-2.0921 2.6726z" clip-path="url(#a)" fill="#fff" stroke="#fff"/>
<g clip-path="url(#a)">
<g transform="translate(497.21 718.46) rotate(83.054) scale(.08 -.08)">
<use xlink:href="#y"/>
</g>
</g>
<path d="m560.35 944.92v35.285q0 2.4 2.4 2.4h7.7425q2.4 0 2.4-2.4v-35.285q0-2.4-2.4-2.4h-7.7425q-2.4 0-2.4 2.4z" clip-path="url(#a)" fill="#fff" stroke="#fff"/>
<g clip-path="url(#a)">
<g transform="translate(564.41 944.92) rotate(90) scale(.08 -.08)">
<use xlink:href="#l"/>
<use x="60.818359" xlink:href="#c"/>
<use x="122.341797" xlink:href="#e"/>
<use x="163.439453" xlink:href="#j"/>
<use x="260.851562" xlink:href="#h"/>
<use x="288.634766" xlink:href="#g"/>
<use x="352.013672" xlink:href="#i"/>
<use x="413.292969" xlink:href="#k"/>
</g>
</g>
<path d="m418.73 944.92v35.285q0 2.4 2.4 2.4h7.7425q2.4 0 2.4-2.4v-35.285q0-2.4-2.4-2.4h-7.7425q-2.4 0-2.4 2.4z" clip-path="url(#a)" fill="#fff" stroke="#fff"/>
<g clip-path="url(#a)">
<g transform="translate(422.79 944.92) rotate(90) scale(.08 -.08)">
<use xlink:href="#l"/>
<use x="60.818359" xlink:href="#c"/>
<use x="122.341797" xlink:href="#e"/>
<use x="163.439453" xlink:href="#j"/>
<use x="260.851562" xlink:href="#h"/>
<use x="288.634766" xlink:href="#g"/>
<use x="352.013672" xlink:href="#i"/>
<use x="413.292969" xlink:href="#k"/>
</g>
</g>
<path d="m501.01 800.44 0.79706 5.4141q0.34956 2.3744 2.724 2.0248l7.6599-1.1277q2.3744-0.34956 2.0248-2.724l-0.79706-5.4141q-0.34956-2.3744-2.724-2.0248l-7.6599 1.1277q-2.3744 0.34956-2.0248 2.724z" clip-path="url(#a)" fill="#fff" stroke="#fff"/>
<g clip-path="url(#a)">
<g transform="translate(505.03 799.85) rotate(81.625) scale(.08 -.08)">
<use xlink:href="#q"/>
</g>
</g>
<path d="m489.84 805.66 0.73972-5.0246q0.34956-2.3744-2.0248-2.724l-7.6599-1.1277q-2.3744-0.34956-2.724 2.0248l-0.73971 5.0246q-0.34956 2.3744 2.0248 2.724l7.6599 1.1277q2.3744 0.34956 2.724-2.0248z" clip-path="url(#a)" fill="#fff" stroke="#fff"/>
<g clip-path="url(#a)">
<g transform="translate(485.82 805.07) rotate(-81.625) scale(.08 -.08)">
<use xlink:href="#ah"/>
</g>
</g>
<path d="m513.14 944.92v35.285q0 2.4 2.4 2.4h7.7425q2.4 0 2.4-2.4v-35.285q0-2.4-2.4-2.4h-7.7425q-2.4 0-2.4 2.4z" clip-path="url(#a)" fill="#fff" stroke="#fff"/>
<g clip-path="url(#a)">
<g transform="translate(517.2 944.92) rotate(90) scale(.08 -.08)">
<use xlink:href="#l"/>
<use x="60.818359" xlink:href="#c"/>
<use x="122.341797" xlink:href="#e"/>
<use x="163.439453" xlink:href="#j"/>
<use x="260.851562" xlink:href="#h"/>
<use x="288.634766" xlink:href="#g"/>
<use x="352.013672" xlink:href="#i"/>
<use x="413.292969" xlink:href="#k"/>
</g>
</g>
<path d="m465.93 944.92v35.285q0 2.4 2.4 2.4h7.7425q2.4 0 2.4-2.4v-35.285q0-2.4-2.4-2.4h-7.7425q-2.4 0-2.4 2.4z" clip-path="url(#a)" fill="#fff" stroke="#fff"/>
<g clip-path="url(#a)">
<g transform="translate(470 944.92) rotate(90) scale(.08 -.08)">
<use xlink:href="#l"/>
<use x="60.818359" xlink:href="#c"/>
<use x="122.341797" xlink:href="#e"/>
<use x="163.439453" xlink:href="#j"/>
<use x="260.851562" xlink:href="#h"/>
<use x="288.634766" xlink:href="#g"/>
<use x="352.013672" xlink:href="#i"/>
<use x="413.292969" xlink:href="#k"/>
</g>
</g>
<path d="m123.53 806.22 1.2996-4.4139q0.67788-2.3023-1.6244-2.9802l-7.4272-2.1869q-2.3023-0.67788-2.9802 1.6244l-1.2996 4.4139q-0.67788 2.3023 1.6244 2.9802l7.4272 2.1869q2.3023 0.67788 2.9802-1.6244z" clip-path="url(#a)" fill="#fff" stroke="#fff"/>
<g clip-path="url(#a)">
<g transform="translate(119.64 805.07) rotate(-73.594) scale(.08 -.08)">
<use xlink:href="#x"/>
</g>
</g>
<path d="m135.5 799.71v5.055q0 2.4 2.4 2.4h7.7425q2.4 0 2.4-2.4v-5.055q0-2.4-2.4-2.4h-7.7425q-2.4 0-2.4 2.4z" clip-path="url(#a)" fill="#fff" stroke="#fff"/>
<g clip-path="url(#a)">
<g transform="translate(139.56 799.71) rotate(90) scale(.08 -.08)">
<use xlink:href="#ae"/>
</g>
</g>
<path d="m158.57 801.33 1.5778 5.3588q0.67788 2.3023 2.9802 1.6244l7.4272-2.1869q2.3023-0.67788 1.6244-2.9802l-1.5778-5.3588q-0.67788-2.3023-2.9802-1.6244l-7.4272 2.1869q-2.3023 0.67788-1.6244 2.9802z" clip-path="url(#a)" fill="#fff" stroke="#fff"/>
<g clip-path="url(#a)">
<g transform="translate(162.47 800.18) rotate(73.594) scale(.08 -.08)">
<use xlink:href="#y"/>
</g>
</g>
<path d="m251.62 980.93 5.1392-34.909q0.34956-2.3744-2.0248-2.724l-7.6599-1.1277q-2.3744-0.34956-2.724 2.0248l-5.1392 34.909q-0.34956 2.3744 2.0248 2.724l7.6599 1.1277q2.3744 0.34956 2.724-2.0248z" clip-path="url(#a)" fill="#fff" stroke="#fff"/>
<g clip-path="url(#a)">
<g transform="translate(247.6 980.34) rotate(-81.625) scale(.08 -.08)">
<use xlink:href="#l"/>
<use x="60.818359" xlink:href="#c"/>
<use x="122.341797" xlink:href="#e"/>
<use x="163.439453" xlink:href="#j"/>
<use x="260.851562" xlink:href="#h"/>
<use x="288.634766" xlink:href="#g"/>
<use x="352.013672" xlink:href="#i"/>
<use x="413.292969" xlink:href="#k"/>
</g>
</g>
<path d="m262.81 946.02 5.1392 34.909q0.34956 2.3744 2.724 2.0248l7.6599-1.1277q2.3744-0.34956 2.0248-2.724l-5.1392-34.909q-0.34956-2.3744-2.724-2.0248l-7.6599 1.1277q-2.3744 0.34956-2.0248 2.724z" clip-path="url(#a)" fill="#fff" stroke="#fff"/>
<g clip-path="url(#a)">
<g transform="translate(266.83 945.43) rotate(81.625) scale(.08 -.08)">
<use xlink:href="#l"/>
<use x="60.818359" xlink:href="#c"/>
<use x="122.341797" xlink:href="#e"/>
<use x="163.439453" xlink:href="#j"/>
<use x="260.851562" xlink:href="#h"/>
<use x="288.634766" xlink:href="#g"/>
<use x="352.013672" xlink:href="#i"/>
<use x="413.292969" xlink:href="#k"/>
</g>
</g>
<path d="m88.295 944.92v35.285q0 2.4 2.4 2.4h7.7425q2.4 0 2.4-2.4v-35.285q0-2.4-2.4-2.4h-7.7425q-2.4 0-2.4 2.4z" clip-path="url(#a)" fill="#fff" stroke="#fff"/>
<g clip-path="url(#a)">
<g transform="translate(92.358 944.92) rotate(90) scale(.08 -.08)">
<use xlink:href="#l"/>
<use x="60.818359" xlink:href="#c"/>
<use x="122.341797" xlink:href="#e"/>
<use x="163.439453" xlink:href="#j"/>
<use x="260.851562" xlink:href="#h"/>
<use x="288.634766" xlink:href="#g"/>
<use x="352.013672" xlink:href="#i"/>
<use x="413.292969" xlink:href="#k"/>
</g>
</g>
<path d="m135.5 944.92v35.285q0 2.4 2.4 2.4h7.7425q2.4 0 2.4-2.4v-35.285q0-2.4-2.4-2.4h-7.7425q-2.4 0-2.4 2.4z" clip-path="url(#a)" fill="#fff" stroke="#fff"/>
<g clip-path="url(#a)">
<g transform="translate(139.56 944.92) rotate(90) scale(.08 -.08)">
<use xlink:href="#l"/>
<use x="60.818359" xlink:href="#c"/>
<use x="122.341797" xlink:href="#e"/>
<use x="163.439453" xlink:href="#j"/>
<use x="260.851562" xlink:href="#h"/>
<use x="288.634766" xlink:href="#g"/>
<use x="352.013672" xlink:href="#i"/>
<use x="413.292969" xlink:href="#k"/>
</g>
</g>
<path d="m182.7 944.92v35.285q0 2.4 2.4 2.4h7.7425q2.4 0 2.4-2.4v-35.285q0-2.4-2.4-2.4h-7.7425q-2.4 0-2.4 2.4z" clip-path="url(#a)" fill="#fff" stroke="#fff"/>
<g clip-path="url(#a)">
<g transform="translate(186.77 944.92) rotate(90) scale(.08 -.08)">
<use xlink:href="#l"/>
<use x="60.818359" xlink:href="#c"/>
<use x="122.341797" xlink:href="#e"/>
<use x="163.439453" xlink:href="#j"/>
<use x="260.851562" xlink:href="#h"/>
<use x="288.634766" xlink:href="#g"/>
<use x="352.013672" xlink:href="#i"/>
<use x="413.292969" xlink:href="#k"/>
</g>
</g>
<path d="m324.32 944.92v35.285q0 2.4 2.4 2.4h7.7425q2.4 0 2.4-2.4v-35.285q0-2.4-2.4-2.4h-7.7425q-2.4 0-2.4 2.4z" clip-path="url(#a)" fill="#fff" stroke="#fff"/>
<g clip-path="url(#a)">
<g transform="translate(328.38 944.92) rotate(90) scale(.08 -.08)">
<use xlink:href="#l"/>
<use x="60.818359" xlink:href="#c"/>
<use x="122.341797" xlink:href="#e"/>
<use x="163.439453" xlink:href="#j"/>
<use x="260.851562" xlink:href="#h"/>
<use x="288.634766" xlink:href="#g"/>
<use x="352.013672" xlink:href="#i"/>
<use x="413.292969" xlink:href="#k"/>
</g>
</g>
<path d="m749.17 944.92v35.285q0 2.4 2.4 2.4h7.7425q2.4 0 2.4-2.4v-35.285q0-2.4-2.4-2.4h-7.7425q-2.4 0-2.4 2.4z" clip-path="url(#a)" fill="#fff" stroke="#fff"/>
<g clip-path="url(#a)">
<g transform="translate(753.23 944.92) rotate(90) scale(.08 -.08)">
<use xlink:href="#l"/>
<use x="60.818359" xlink:href="#c"/>
<use x="122.341797" xlink:href="#e"/>
<use x="163.439453" xlink:href="#j"/>
<use x="260.851562" xlink:href="#h"/>
<use x="288.634766" xlink:href="#g"/>
<use x="352.013672" xlink:href="#i"/>
<use x="413.292969" xlink:href="#k"/>
</g>
</g>
<path d="m1079.6 944.92v35.285q0 2.4 2.4 2.4h7.7425q2.4 0 2.4-2.4v-35.285q0-2.4-2.4-2.4h-7.7425q-2.4 0-2.4 2.4z" clip-path="url(#a)" fill="#fff" stroke="#fff"/>
<g clip-path="url(#a)">
<g transform="translate(1083.7 944.92) rotate(90) scale(.08 -.08)">
<use xlink:href="#l"/>
<use x="60.818359" xlink:href="#c"/>
<use x="122.341797" xlink:href="#e"/>
<use x="163.439453" xlink:href="#j"/>
<use x="260.851562" xlink:href="#h"/>
<use x="288.634766" xlink:href="#g"/>
<use x="352.013672" xlink:href="#i"/>
<use x="413.292969" xlink:href="#k"/>
</g>
</g>
<path d="m1551.7 944.92v35.285q0 2.4 2.4 2.4h7.7425q2.4 0 2.4-2.4v-35.285q0-2.4-2.4-2.4h-7.7425q-2.4 0-2.4 2.4z" clip-path="url(#a)" fill="#fff" stroke="#fff"/>
<g clip-path="url(#a)">
<g transform="translate(1555.7 944.92) rotate(90) scale(.08 -.08)">
<use xlink:href="#l"/>
<use x="60.818359" xlink:href="#c"/>
<use x="122.341797" xlink:href="#e"/>
<use x="163.439453" xlink:href="#j"/>
<use x="260.851562" xlink:href="#h"/>
<use x="288.634766" xlink:href="#g"/>
<use x="352.013672" xlink:href="#i"/>
<use x="413.292969" xlink:href="#k"/>
</g>
</g>
<path d="m1976.5 944.92v35.285q0 2.4 2.4 2.4h7.7425q2.4 0 2.4-2.4v-35.285q0-2.4-2.4-2.4h-7.7425q-2.4 0-2.4 2.4z" clip-path="url(#a)" fill="#fff" stroke="#fff"/>
<g clip-path="url(#a)">
<g transform="translate(1980.6 944.92) rotate(90) scale(.08 -.08)">
<use xlink:href="#l"/>
<use x="60.818359" xlink:href="#c"/>
<use x="122.341797" xlink:href="#e"/>
<use x="163.439453" xlink:href="#j"/>
<use x="260.851562" xlink:href="#h"/>
<use x="288.634766" xlink:href="#g"/>
<use x="352.013672" xlink:href="#i"/>
<use x="413.292969" xlink:href="#k"/>
</g>
</g>
<defs>
<path id="b" d="m0 8.6603c2.2967 0 4.4997-0.9125 6.1237-2.5365 1.624-1.624 2.5365-3.827 2.5365-6.1237s-0.9125-4.4997-2.5365-6.1237c-1.624-1.624-3.827-2.5365-6.1237-2.5365s-4.4997 0.9125-6.1237 2.5365c-1.624 1.624-2.5365 3.827-2.5365 6.1237s0.9125 4.4997 2.5365 6.1237c1.624 1.624 3.827 2.5365 6.1237 2.5365z"/>
</defs>
<g clip-path="url(#a)">
<use x="94.565934" y="1042.722029" fill="#ffffff" stroke="#ffffff" xlink:href="#b"/>
</g>
<g clip-path="url(#a)">
<use x="141.770971" y="1042.722029" fill="#ffffff" stroke="#ffffff" xlink:href="#b"/>
</g>
<g clip-path="url(#a)">
<use x="188.976008" y="1042.722029" fill="#ffffff" stroke="#ffffff" xlink:href="#b"/>
</g>
<g clip-path="url(#a)">
<use x="236.181044" y="1042.722029" fill="#ffffff" stroke="#ffffff" xlink:href="#b"/>
</g>
<g clip-path="url(#a)">
<use x="283.386081" y="1042.722029" fill="#ffffff" stroke="#ffffff" xlink:href="#b"/>
</g>
<g clip-path="url(#a)">
<use x="330.591117" y="1042.722029" fill="#ffffff" stroke="#ffffff" xlink:href="#b"/>
</g>
<g clip-path="url(#a)">
<use x="377.796154" y="1042.722029" fill="#ffffff" stroke="#ffffff" xlink:href="#b"/>
</g>
<g clip-path="url(#a)">
<use x="425.001191" y="1042.722029" fill="#ffffff" stroke="#ffffff" xlink:href="#b"/>
</g>
<g clip-path="url(#a)">
<use x="472.206227" y="1042.722029" fill="#ffffff" stroke="#ffffff" xlink:href="#b"/>
</g>
<g clip-path="url(#a)">
<use x="519.411264" y="1042.722029" fill="#ffffff" stroke="#ffffff" xlink:href="#b"/>
</g>
<g clip-path="url(#a)">
<use x="566.616301" y="1042.722029" fill="#ffffff" stroke="#ffffff" xlink:href="#b"/>
</g>
<g clip-path="url(#a)">
<use x="613.821337" y="1042.722029" fill="#ffffff" stroke="#ffffff" xlink:href="#b"/>
</g>
<g clip-path="url(#a)">
<use x="661.026374" y="1042.722029" fill="#ffffff" stroke="#ffffff" xlink:href="#b"/>
</g>
<g clip-path="url(#a)">
<use x="708.23141" y="1042.722029" fill="#ffffff" stroke="#ffffff" xlink:href="#b"/>
</g>
<g clip-path="url(#a)">
<use x="755.436447" y="1042.722029" fill="#ffffff" stroke="#ffffff" xlink:href="#b"/>
</g>
<g clip-path="url(#a)">
<use x="802.641484" y="1042.722029" fill="#ffffff" stroke="#ffffff" xlink:href="#b"/>
</g>
<g clip-path="url(#a)">
<use x="849.84652" y="1042.722029" fill="#ffffff" stroke="#ffffff" xlink:href="#b"/>
</g>
<g clip-path="url(#a)">
<use x="897.051557" y="1042.722029" fill="#ffffff" stroke="#ffffff" xlink:href="#b"/>
</g>
<g clip-path="url(#a)">
<use x="944.256593" y="1042.722029" fill="#ffffff" stroke="#ffffff" xlink:href="#b"/>
</g>
<g clip-path="url(#a)">
<use x="991.46163" y="1042.722029" fill="#ffffff" stroke="#ffffff" xlink:href="#b"/>
</g>
<g clip-path="url(#a)">
<use x="1038.666667" y="1042.722029" fill="#ffffff" stroke="#ffffff" xlink:href="#b"/>
</g>
<g clip-path="url(#a)">
<use x="1085.871703" y="1042.722029" fill="#ffffff" stroke="#ffffff" xlink:href="#b"/>
</g>
<g clip-path="url(#a)">
<use x="1133.07674" y="1042.722029" fill="#ffffff" stroke="#ffffff" xlink:href="#b"/>
</g>
<g clip-path="url(#a)">
<use x="1180.281777" y="1042.722029" fill="#ffffff" stroke="#ffffff" xlink:href="#b"/>
</g>
<g clip-path="url(#a)">
<use x="1227.486813" y="1042.722029" fill="#ffffff" stroke="#ffffff" xlink:href="#b"/>
</g>
<g clip-path="url(#a)">
<use x="1274.69185" y="1042.722029" fill="#ffffff" stroke="#ffffff" xlink:href="#b"/>
</g>
<g clip-path="url(#a)">
<use x="1321.896886" y="1042.722029" fill="#ffffff" stroke="#ffffff" xlink:href="#b"/>
</g>
<g clip-path="url(#a)">
<use x="1369.101923" y="1042.722029" fill="#ffffff" stroke="#ffffff" xlink:href="#b"/>
</g>
<g clip-path="url(#a)">
<use x="1416.30696" y="1042.722029" fill="#ffffff" stroke="#ffffff" xlink:href="#b"/>
</g>
<g clip-path="url(#a)">
<use x="1463.511996" y="1042.722029" fill="#ffffff" stroke="#ffffff" xlink:href="#b"/>
</g>
<g clip-path="url(#a)">
<use x="1510.717033" y="1042.722029" fill="#ffffff" stroke="#ffffff" xlink:href="#b"/>
</g>
<g clip-path="url(#a)">
<use x="1557.922069" y="1042.722029" fill="#ffffff" stroke="#ffffff" xlink:href="#b"/>
</g>
<g clip-path="url(#a)">
<use x="1605.127106" y="1042.722029" fill="#ffffff" stroke="#ffffff" xlink:href="#b"/>
</g>
<g clip-path="url(#a)">
<use x="1652.332143" y="1042.722029" fill="#ffffff" stroke="#ffffff" xlink:href="#b"/>
</g>
<g clip-path="url(#a)">
<use x="1699.537179" y="1042.722029" fill="#ffffff" stroke="#ffffff" xlink:href="#b"/>
</g>
<g clip-path="url(#a)">
<use x="1746.742216" y="1042.722029" fill="#ffffff" stroke="#ffffff" xlink:href="#b"/>
</g>
<g clip-path="url(#a)">
<use x="1793.947252" y="1042.722029" fill="#ffffff" stroke="#ffffff" xlink:href="#b"/>
</g>
<g clip-path="url(#a)">
<use x="1841.152289" y="1042.722029" fill="#ffffff" stroke="#ffffff" xlink:href="#b"/>
</g>
<g clip-path="url(#a)">
<use x="1888.357326" y="1042.722029" fill="#ffffff" stroke="#ffffff" xlink:href="#b"/>
</g>
<g clip-path="url(#a)">
<use x="1935.562362" y="1042.722029" fill="#ffffff" stroke="#ffffff" xlink:href="#b"/>
</g>
<g clip-path="url(#a)">
<use x="1982.767399" y="1042.722029" fill="#ffffff" stroke="#ffffff" xlink:href="#b"/>
</g>
<g clip-path="url(#a)">
<use x="719.67832" y="50.611305" fill="#ffffff" stroke="#ffffff" xlink:href="#b"/>
</g>
<g clip-path="url(#a)">
<use x="200.777267" y="559.523925" fill="#ffffff" stroke="#ffffff" xlink:href="#b"/>
</g>
<g clip-path="url(#a)">
<use x="377.796154" y="882.399415" fill="#ffffff" stroke="#ffffff" xlink:href="#b"/>
</g>
<g clip-path="url(#a)">
<use x="523.345017" y="393.840969" fill="#ffffff" stroke="#ffffff" xlink:href="#b"/>
</g>
<g clip-path="url(#a)">
<use x="613.821337" y="882.399415" fill="#ffffff" stroke="#ffffff" xlink:href="#b"/>
</g>
<g clip-path="url(#a)">
<use x="760.747014" y="224.382889" fill="#ffffff" stroke="#ffffff" xlink:href="#b"/>
</g>
<g clip-path="url(#a)">
<use x="1133.07674" y="882.399415" fill="#ffffff" stroke="#ffffff" xlink:href="#b"/>
</g>
<g clip-path="url(#a)">
<use x="1451.078527" y="224.382889" fill="#ffffff" stroke="#ffffff" xlink:href="#b"/>
</g>
<g clip-path="url(#a)">
<use x="1203.884295" y="722.076802" fill="#ffffff" stroke="#ffffff" xlink:href="#b"/>
</g>
<g clip-path="url(#a)">
<use x="1321.896886" y="882.399415" fill="#ffffff" stroke="#ffffff" xlink:href="#b"/>
</g>
<g clip-path="url(#a)">
<use x="1416.30696" y="882.399415" fill="#ffffff" stroke="#ffffff" xlink:href="#b"/>
</g>
<g clip-path="url(#a)">
<use x="1463.511996" y="882.399415" fill="#ffffff" stroke="#ffffff" xlink:href="#b"/>
</g>
<g clip-path="url(#a)">
<use x="1510.717033" y="882.399415" fill="#ffffff" stroke="#ffffff" xlink:href="#b"/>
</g>
<g clip-path="url(#a)">
<use x="1683.310448" y="393.840969" fill="#ffffff" stroke="#ffffff" xlink:href="#b"/>
</g>
<g clip-path="url(#a)">
<use x="1770.344734" y="882.399415" fill="#ffffff" stroke="#ffffff" xlink:href="#b"/>
</g>
<g clip-path="url(#a)">
<use x="1752.642845" y="559.523925" fill="#ffffff" stroke="#ffffff" xlink:href="#b"/>
</g>
<g clip-path="url(#a)">
<use x="1652.332143" y="882.399415" fill="#ffffff" stroke="#ffffff" xlink:href="#b"/>
</g>
<g clip-path="url(#a)">
<use x="1699.537179" y="882.399415" fill="#ffffff" stroke="#ffffff" xlink:href="#b"/>
</g>
<g clip-path="url(#a)">
<use x="1817.549771" y="722.076802" fill="#ffffff" stroke="#ffffff" xlink:href="#b"/>
</g>
<g clip-path="url(#a)">
<use x="1841.152289" y="722.076802" fill="#ffffff" stroke="#ffffff" xlink:href="#b"/>
</g>
<g clip-path="url(#a)">
<use x="1793.947252" y="882.399415" fill="#ffffff" stroke="#ffffff" xlink:href="#b"/>
</g>
<g clip-path="url(#a)">
<use x="1841.152289" y="882.399415" fill="#ffffff" stroke="#ffffff" xlink:href="#b"/>
</g>
<g clip-path="url(#a)">
<use x="1888.357326" y="882.399415" fill="#ffffff" stroke="#ffffff" xlink:href="#b"/>
</g>
<g clip-path="url(#a)">
<use x="1746.742216" y="882.399415" fill="#ffffff" stroke="#ffffff" xlink:href="#b"/>
</g>
<g clip-path="url(#a)">
<use x="1180.281777" y="882.399415" fill="#ffffff" stroke="#ffffff" xlink:href="#b"/>
</g>
<g clip-path="url(#a)">
<use x="1227.486813" y="882.399415" fill="#ffffff" stroke="#ffffff" xlink:href="#b"/>
</g>
<g clip-path="url(#a)">
<use x="661.026374" y="882.399415" fill="#ffffff" stroke="#ffffff" xlink:href="#b"/>
</g>
<g clip-path="url(#a)">
<use x="708.23141" y="882.399415" fill="#ffffff" stroke="#ffffff" xlink:href="#b"/>
</g>
<g clip-path="url(#a)">
<use x="918.293823" y="393.840969" fill="#ffffff" stroke="#ffffff" xlink:href="#b"/>
</g>
<g clip-path="url(#a)">
<use x="802.641484" y="882.399415" fill="#ffffff" stroke="#ffffff" xlink:href="#b"/>
</g>
<g clip-path="url(#a)">
<use x="849.84652" y="882.399415" fill="#ffffff" stroke="#ffffff" xlink:href="#b"/>
</g>
<g clip-path="url(#a)">
<use x="908.852816" y="559.523925" fill="#ffffff" stroke="#ffffff" xlink:href="#b"/>
</g>
<g clip-path="url(#a)">
<use x="991.46163" y="882.399415" fill="#ffffff" stroke="#ffffff" xlink:href="#b"/>
</g>
<g clip-path="url(#a)">
<use x="1038.666667" y="882.399415" fill="#ffffff" stroke="#ffffff" xlink:href="#b"/>
</g>
<g clip-path="url(#a)">
<use x="897.051557" y="882.399415" fill="#ffffff" stroke="#ffffff" xlink:href="#b"/>
</g>
<g clip-path="url(#a)">
<use x="920.654075" y="722.076802" fill="#ffffff" stroke="#ffffff" xlink:href="#b"/>
</g>
<g clip-path="url(#a)">
<use x="944.256593" y="882.399415" fill="#ffffff" stroke="#ffffff" xlink:href="#b"/>
</g>
<g clip-path="url(#a)">
<use x="480.073733" y="559.523925" fill="#ffffff" stroke="#ffffff" xlink:href="#b"/>
</g>
<g clip-path="url(#a)">
<use x="566.616301" y="882.399415" fill="#ffffff" stroke="#ffffff" xlink:href="#b"/>
</g>
<g clip-path="url(#a)">
<use x="425.001191" y="882.399415" fill="#ffffff" stroke="#ffffff" xlink:href="#b"/>
</g>
<g clip-path="url(#a)">
<use x="495.808746" y="722.076802" fill="#ffffff" stroke="#ffffff" xlink:href="#b"/>
</g>
<g clip-path="url(#a)">
<use x="519.411264" y="882.399415" fill="#ffffff" stroke="#ffffff" xlink:href="#b"/>
</g>
<g clip-path="url(#a)">
<use x="472.206227" y="882.399415" fill="#ffffff" stroke="#ffffff" xlink:href="#b"/>
</g>
<g clip-path="url(#a)">
<use x="141.770971" y="722.076802" fill="#ffffff" stroke="#ffffff" xlink:href="#b"/>
</g>
<g clip-path="url(#a)">
<use x="259.783563" y="882.399415" fill="#ffffff" stroke="#ffffff" xlink:href="#b"/>
</g>
<g clip-path="url(#a)">
<use x="94.565934" y="882.399415" fill="#ffffff" stroke="#ffffff" xlink:href="#b"/>
</g>
<g clip-path="url(#a)">
<use x="141.770971" y="882.399415" fill="#ffffff" stroke="#ffffff" xlink:href="#b"/>
</g>
<g clip-path="url(#a)">
<use x="188.976008" y="882.399415" fill="#ffffff" stroke="#ffffff" xlink:href="#b"/>
</g>
<g clip-path="url(#a)">
<use x="330.591117" y="882.399415" fill="#ffffff" stroke="#ffffff" xlink:href="#b"/>
</g>
<g clip-path="url(#a)">
<use x="755.436447" y="882.399415" fill="#ffffff" stroke="#ffffff" xlink:href="#b"/>
</g>
<g clip-path="url(#a)">
<use x="1085.871703" y="882.399415" fill="#ffffff" stroke="#ffffff" xlink:href="#b"/>
</g>
<g clip-path="url(#a)">
<use x="1557.922069" y="882.399415" fill="#ffffff" stroke="#ffffff" xlink:href="#b"/>
</g>
<g clip-path="url(#a)">
<use x="1982.767399" y="882.399415" fill="#ffffff" stroke="#ffffff" xlink:href="#b"/>
</g>
<g clip-path="url(#a)">
<g transform="translate(85.584 1045.5) scale(.1 -.1)">
<use xlink:href="#aj"/>
<use x="77.001953" xlink:href="#c"/>
<use x="138.525391" xlink:href="#e"/>
</g>
</g>
<g clip-path="url(#a)">
<defs>
<path id="au" d="m9.0781 75.984h9.0312v-44.875l26.812 23.578h11.469l-29-25.578 30.234-29.109h-11.719l-27.797 26.703v-26.703h-9.0312z"/>
</defs>
<g transform="translate(126.78 1045.5) scale(.1 -.1)">
<use xlink:href="#au"/>
<use x="57.910156" xlink:href="#k"/>
<use x="85.693359" xlink:href="#c"/>
<use x="147.216797" xlink:href="#h"/>
<use x="175" xlink:href="#g"/>
<use x="238.378906" xlink:href="#c"/>
</g>
</g>
<g clip-path="url(#a)">
<defs>
<path id="ag" d="m5.5156 54.688h42.672v-8.2031l-33.781-39.312h33.781v-7.1719h-43.891v8.2031l33.797 39.312h-32.578z"/>
</defs>
<g transform="translate(176.72 1045.5) scale(.1 -.1)">
<use xlink:href="#w"/>
<use x="60.287109" xlink:href="#e"/>
<use x="101.400391" xlink:href="#h"/>
<use x="129.183594" xlink:href="#g"/>
<use x="192.5625" xlink:href="#ag"/>
</g>
</g>
<g clip-path="url(#a)">
<defs>
<path id="v" d="m44.281 53.078v-8.5q-3.7969 1.9531-7.9062 2.9219-4.0938 0.98438-8.5 0.98438-6.6875 0-10.031-2.0469t-3.3438-6.1562q0-3.125 2.3906-4.9062t9.625-3.3906l3.0781-0.6875q9.5625-2.0469 13.594-5.7812t4.0312-10.422q0-7.625-6.0312-12.078-6.0312-4.4375-16.578-4.4375-4.3906 0-9.1562 0.85938t-10.031 2.5625v9.2812q4.9844-2.5938 9.8125-3.8906 4.8281-1.2812 9.5781-1.2812 6.3438 0 9.75 2.1719 3.4219 2.1719 3.4219 6.125 0 3.6562-2.4688 5.6094-2.4531 1.9531-10.812 3.7656l-3.125 0.73438q-8.3438 1.75-12.062 5.3906-3.7031 3.6406-3.7031 9.9844 0 7.7188 5.4688 11.906 5.4688 4.2031 15.531 4.2031 4.9688 0 9.3594-0.73438 4.4062-0.71875 8.1094-2.1875z"/>
<path id="s" d="m54.891 33.016v-33.016h-8.9844v32.719q0 7.7656-3.0312 11.609-3.0312 3.8594-9.0781 3.8594-7.2812 0-11.484-4.6406-4.2031-4.625-4.2031-12.641v-30.906h-9.0312v75.984h9.0312v-29.797q3.2344 4.9375 7.5938 7.375 4.375 2.4375 10.094 2.4375 9.4219 0 14.25-5.8281 4.8438-5.8281 4.8438-17.156z"/>
</defs>
<g transform="translate(227.34 1045.5) scale(.1 -.1)">
<use xlink:href="#v"/>
<use x="52.099609" xlink:href="#i"/>
<use x="113.378906" xlink:href="#s"/>
</g>
</g>
<g clip-path="url(#a)">
<defs>
<path id="r" d="m8.5 21.578v33.109h8.9844v-32.766q0-7.7656 3.0156-11.656 3.0312-3.875 9.0938-3.875 7.2656 0 11.484 4.6406 4.2344 4.6406 4.2344 12.656v31h8.9844v-54.688h-8.9844v8.4062q-3.2656-4.9844-7.5938-7.4062-4.3125-2.4219-10.031-2.4219-9.4219 0-14.312 5.8594-4.875 5.8594-4.875 17.141z"/>
</defs>
<g transform="translate(277.59 1045.5) scale(.1 -.1)">
<use xlink:href="#ag"/>
<use x="52.490234" xlink:href="#r"/>
</g>
</g>
<g clip-path="url(#a)">
<defs>
<path id="am" d="m11.719 12.406h10.297v-8.4062l-8-15.625h-6.2969l4 15.625z"/>
</defs>
<g transform="translate(329 1045.5) scale(.1 -.1)">
<use xlink:href="#am"/>
</g>
</g>
<g clip-path="url(#a)">
<defs>
<path id="ab" d="m4.2031 54.688h8.9844l11.234-42.672 11.172 42.672h10.594l11.234-42.672 11.188 42.672h8.9844l-14.312-54.688h-10.594l-11.766 44.828-11.812-44.828h-10.609z"/>
</defs>
<g transform="translate(369.24 1045.5) scale(.1 -.1)">
<use xlink:href="#ab"/>
<use x="81.787109" xlink:href="#h"/>
<use x="109.570312" xlink:href="#c"/>
</g>
</g>
<g clip-path="url(#a)">
<g transform="translate(414.29 1045.5) scale(.1 -.1)">
<use xlink:href="#c"/>
<use x="61.523438" xlink:href="#h"/>
<use x="89.306641" xlink:href="#g"/>
<use x="152.685547" xlink:href="#c"/>
</g>
</g>
<g clip-path="url(#a)">
<defs>
<path id="ap" d="m30.609 48.391q-7.2188 0-11.422-5.6406t-4.2031-15.453 4.1719-15.453q4.1875-5.6406 11.453-5.6406 7.1875 0 11.375 5.6562 4.2031 5.6719 4.2031 15.438 0 9.7188-4.2031 15.406-4.1875 5.6875-11.375 5.6875zm0 7.6094q11.719 0 18.406-7.625 6.7031-7.6094 6.7031-21.078 0-13.422-6.7031-21.078-6.6875-7.6406-18.406-7.6406-11.766 0-18.438 7.6406-6.6562 7.6562-6.6562 21.078 0 13.469 6.6562 21.078 6.6719 7.625 18.438 7.625z"/>
</defs>
<g transform="translate(452.9 1045.5) scale(.1 -.1)">
<use xlink:href="#c"/>
<use x="61.523438" xlink:href="#g"/>
<use x="124.902344" xlink:href="#ap"/>
<use x="186.083984" xlink:href="#e"/>
<use x="227.181641" xlink:href="#j"/>
<use x="324.59375" xlink:href="#c"/>
</g>
</g>
<g clip-path="url(#a)">
<defs>
<path id="as" d="m9.8125 72.906h9.8594v-30.812l32.719 30.812h12.703l-36.188-33.984 38.766-38.922h-12.984l-35.016 35.109v-35.109h-9.8594z"/>
<path id="at" d="m18.109 8.2031v-29h-9.0312v75.484h9.0312v-8.2969q2.8438 4.875 7.1562 7.2344 4.3281 2.375 10.328 2.375 9.9688 0 16.188-7.9062 6.2344-7.9062 6.2344-20.797t-6.2344-20.812q-6.2188-7.9062-16.188-7.9062-6 0-10.328 2.375-4.3125 2.375-7.1562 7.25zm30.578 19.094q0 9.9062-4.0781 15.547t-11.203 5.6406q-7.1406 0-11.219-5.6406t-4.0781-15.547 4.0781-15.547 11.219-5.6406q7.125 0 11.203 5.6406t4.0781 15.547z"/>
</defs>
<g transform="translate(501.05 1045.5) scale(.1 -.1)">
<use xlink:href="#as"/>
<use x="65.576172" xlink:href="#g"/>
<use x="128.955078" xlink:href="#ap"/>
<use x="190.136719" xlink:href="#v"/>
<use x="242.236328" xlink:href="#at"/>
<use x="305.712891" xlink:href="#c"/>
</g>
</g>
<g clip-path="url(#a)">
<defs>
<path id="u" d="m18.312 70.219v-15.531h18.5v-6.9844h-18.5v-29.688q0-6.6875 1.8281-8.5938t7.4531-1.9062h9.2188v-7.5156h-9.2188q-10.406 0-14.359 3.875-3.9531 3.8906-3.9531 14.141v29.688h-6.5938v6.9844h6.5938v15.531z"/>
</defs>
<g transform="translate(549.35 1045.5) scale(.1 -.1)">
<use xlink:href="#au"/>
<use x="57.863281" xlink:href="#c"/>
<use x="119.386719" xlink:href="#h"/>
<use x="147.169922" xlink:href="#j"/>
<use x="244.582031" xlink:href="#u"/>
<use x="283.791016" xlink:href="#c"/>
</g>
</g>
<g clip-path="url(#a)">
<defs>
<path id="t" d="m45.406 46.391v29.594h8.9844v-75.984h-8.9844v8.2031q-2.8281-4.875-7.1562-7.25-4.3125-2.375-10.375-2.375-9.9062 0-16.141 7.9062-6.2188 7.9219-6.2188 20.812t6.2188 20.797q6.2344 7.9062 16.141 7.9062 6.0625 0 10.375-2.375 4.3281-2.3594 7.1562-7.2344zm-30.609-19.094q0-9.9062 4.0781-15.547t11.203-5.6406 11.219 5.6406q4.1094 5.6406 4.1094 15.547t-4.1094 15.547q-4.0938 5.6406-11.219 5.6406t-11.203-5.6406-4.0781-15.547z"/>
</defs>
<g transform="translate(604.31 1045.5) scale(.1 -.1)">
<use xlink:href="#r"/>
<use x="63.378906" xlink:href="#g"/>
<use x="126.757812" xlink:href="#t"/>
</g>
</g>
<g clip-path="url(#a)">
<g transform="translate(655.89 1045.5) scale(.1 -.1)">
<use xlink:href="#c"/>
<use x="61.523438" xlink:href="#e"/>
</g>
</g>
<g clip-path="url(#a)">
<defs>
<path id="aq" d="m37.109 75.984v-7.4844h-8.5938q-4.8281 0-6.7188-1.9531-1.875-1.9531-1.875-7.0312v-4.8281h14.797v-6.9844h-14.797v-47.703h-9.0312v47.703h-8.5938v6.9844h8.5938v3.8125q0 9.125 4.25 13.297 4.25 4.1875 13.469 4.1875z"/>
<path id="ao" d="m8.5 21.578v33.109h8.9844v-32.766q0-7.7656 3.0156-11.656 3.0312-3.875 9.0938-3.875 7.2656 0 11.484 4.6406 4.2344 4.6406 4.2344 12.656v31h8.9844v-54.688h-8.9844v8.4062q-3.2656-4.9844-7.5938-7.4062-4.3125-2.4219-10.031-2.4219-9.4219 0-14.312 5.8594-4.875 5.8594-4.875 17.141zm22.609 34.422m4.4844 19.781h9.9062v-9.8594h-9.9062zm-19.094 0h9.9062v-9.8594h-9.9062z"/>
</defs>
<g transform="translate(693.71 1045.5) scale(.1 -.1)">
<use xlink:href="#aq"/>
<use x="35.205078" xlink:href="#ao"/>
<use x="98.583984" xlink:href="#s"/>
<use x="161.962891" xlink:href="#k"/>
<use x="189.746094" xlink:href="#u"/>
<use x="228.955078" xlink:href="#c"/>
</g>
</g>
<g clip-path="url(#a)">
<g transform="translate(753.85 1045.5) scale(.1 -.1)">
<use xlink:href="#am"/>
</g>
</g>
<g clip-path="url(#a)">
<g transform="translate(796.96 1045.5) scale(.1 -.1)">
<use xlink:href="#c"/>
<use x="61.523438" xlink:href="#v"/>
</g>
</g>
<g clip-path="url(#a)">
<g transform="translate(834.28 1045.5) scale(.1 -.1)">
<use xlink:href="#ab"/>
<use x="81.787109" xlink:href="#ao"/>
<use x="145.166016" xlink:href="#e"/>
<use x="186.263672" xlink:href="#t"/>
<use x="249.740234" xlink:href="#c"/>
</g>
</g>
<g clip-path="url(#a)">
<g transform="translate(882.26 1045.5) scale(.1 -.1)">
<use xlink:href="#c"/>
<use x="61.523438" xlink:href="#u"/>
<use x="100.732422" xlink:href="#ab"/>
<use x="182.519531" xlink:href="#i"/>
<use x="243.798828" xlink:href="#v"/>
</g>
</g>
<g clip-path="url(#a)">
<defs>
<path id="ax" d="m5.6094 72.906h57.281v-7.5312l-46.094-57.078h47.219v-8.2969h-59.516v7.5156l46.094 57.078h-44.984z"/>
<path id="aw" d="m48.688 27.297q0 9.9062-4.0781 15.547t-11.203 5.6406q-7.1406 0-11.219-5.6406t-4.0781-15.547 4.0781-15.547 11.219-5.6406q7.125 0 11.203 5.6406t4.0781 15.547zm-30.578 19.094q2.8438 4.875 7.1562 7.2344 4.3281 2.375 10.328 2.375 9.9688 0 16.188-7.9062 6.2344-7.9062 6.2344-20.797t-6.2344-20.812q-6.2188-7.9062-16.188-7.9062-6 0-10.328 2.375-4.3125 2.375-7.1562 7.25v-8.2031h-9.0312v75.984h9.0312z"/>
</defs>
<g transform="translate(910.66 1045.5) scale(.1 -.1)">
<use xlink:href="#ax"/>
<use x="68.505859" xlink:href="#i"/>
<use x="129.785156" xlink:href="#r"/>
<use x="193.164062" xlink:href="#aw"/>
<use x="256.640625" xlink:href="#c"/>
<use x="318.164062" xlink:href="#e"/>
<use x="359.261719" xlink:href="#s"/>
<use x="422.640625" xlink:href="#i"/>
<use x="483.919922" xlink:href="#aq"/>
<use x="519.109375" xlink:href="#u"/>
<use x="558.318359" xlink:href="#c"/>
<use x="619.841797" xlink:href="#v"/>
</g>
</g>
<g clip-path="url(#a)">
<g transform="translate(974.33 1045.5) scale(.1 -.1)">
<use xlink:href="#t"/>
<use x="63.476562" xlink:href="#i"/>
<use x="124.755859" xlink:href="#e"/>
<use x="165.869141" xlink:href="#i"/>
<use x="227.148438" xlink:href="#r"/>
<use x="290.527344" xlink:href="#v"/>
</g>
</g>
<g clip-path="url(#a)">
<defs>
<path id="ac" d="m48.781 52.594v-8.4062q-3.8125 2.1094-7.6406 3.1562t-7.7344 1.0469q-8.75 0-13.594-5.5469-4.8281-5.5312-4.8281-15.547t4.8281-15.562q4.8438-5.5312 13.594-5.5312 3.9062 0 7.7344 1.0469t7.6406 3.1562v-8.3125q-3.7656-1.75-7.7969-2.625-4.0156-0.89062-8.5625-0.89062-12.359 0-19.641 7.7656-7.2656 7.7656-7.2656 20.953 0 13.375 7.3438 21.031 7.3594 7.6719 20.156 7.6719 4.1406 0 8.0938-0.85938 3.9531-0.84375 7.6719-2.5469z"/>
</defs>
<g transform="translate(1011.6 1045.5) scale(.1 -.1)">
<use xlink:href="#c"/>
<use x="61.523438" xlink:href="#e"/>
<use x="102.636719" xlink:href="#ab"/>
<use x="184.423828" xlink:href="#i"/>
<use x="245.703125" xlink:href="#ac"/>
<use x="300.683594" xlink:href="#s"/>
<use x="364.0625" xlink:href="#v"/>
<use x="416.162109" xlink:href="#c"/>
<use x="477.685547" xlink:href="#g"/>
</g>
</g>
<g clip-path="url(#a)">
<g transform="translate(1084.3 1045.5) scale(.1 -.1)">
<use xlink:href="#am"/>
</g>
</g>
<g clip-path="url(#a)">
<g transform="translate(1120.9 1045.5) scale(.1 -.1)">
<use xlink:href="#t"/>
<use x="63.476562" xlink:href="#ap"/>
<use x="124.658203" xlink:href="#ac"/>
<use x="179.638672" xlink:href="#s"/>
</g>
</g>
<g clip-path="url(#a)">
<g transform="translate(1172.6 1045.5) scale(.1 -.1)">
<use xlink:href="#t"/>
<use x="63.476562" xlink:href="#h"/>
<use x="91.259766" xlink:href="#c"/>
</g>
</g>
<g clip-path="url(#a)">
<defs>
<path id="ay" d="m19.672 34.812v-26.703h15.828q7.9531 0 11.781 3.2969 3.8438 3.2969 3.8438 10.078 0 6.8438-3.8438 10.078-3.8281 3.25-11.781 3.25zm0 29.984v-21.969h14.609q7.2188 0 10.75 2.7031 3.5469 2.7188 3.5469 8.2812 0 5.5156-3.5469 8.25-3.5312 2.7344-10.75 2.7344zm-9.8594 8.1094h25.203q11.281 0 17.375-4.6875 6.1094-4.6875 6.1094-13.328 0-6.7031-3.125-10.656t-9.1875-4.9219q7.2812-1.5625 11.312-6.5312 4.0312-4.9531 4.0312-12.375 0-9.7656-6.6406-15.094-6.6406-5.3125-18.906-5.3125h-26.172z"/>
</defs>
<g transform="translate(1211.6 1045.5) scale(.1 -.1)">
<use xlink:href="#ay"/>
<use x="68.603516" xlink:href="#k"/>
<use x="96.386719" xlink:href="#r"/>
<use x="159.765625" xlink:href="#j"/>
<use x="257.177734" xlink:href="#c"/>
</g>
</g>
<g clip-path="url(#a)">
<g transform="translate(1259.1 1045.5) scale(.1 -.1)">
<use xlink:href="#ab"/>
<use x="81.787109" xlink:href="#r"/>
<use x="145.166016" xlink:href="#e"/>
<use x="186.263672" xlink:href="#t"/>
<use x="249.740234" xlink:href="#c"/>
</g>
</g>
<g clip-path="url(#a)">
<g transform="translate(1312.4 1045.5) scale(.1 -.1)">
<use xlink:href="#r"/>
<use x="63.378906" xlink:href="#g"/>
<use x="126.757812" xlink:href="#t"/>
</g>
</g>
<g clip-path="url(#a)">
<g transform="translate(1353.5 1045.5) scale(.1 -.1)">
<use xlink:href="#ab"/>
<use x="81.787109" xlink:href="#r"/>
<use x="145.166016" xlink:href="#e"/>
<use x="186.263672" xlink:href="#t"/>
<use x="249.740234" xlink:href="#c"/>
</g>
</g>
<g clip-path="url(#a)">
<g transform="translate(1403.9 1045.5) scale(.1 -.1)">
<use xlink:href="#g"/>
<use x="63.378906" xlink:href="#h"/>
<use x="91.162109" xlink:href="#ac"/>
<use x="146.142578" xlink:href="#s"/>
<use x="209.521484" xlink:href="#u"/>
</g>
</g>
<g clip-path="url(#a)">
<defs>
<path id="av" d="m45.406 27.984q0 9.7656-4.0312 15.125-4.0156 5.375-11.297 5.375-7.2188 0-11.25-5.375-4.0312-5.3594-4.0312-15.125 0-9.7188 4.0312-15.094t11.25-5.375q7.2812 0 11.297 5.375 4.0312 5.375 4.0312 15.094zm8.9844-21.203q0-13.953-6.2031-20.766-6.1875-6.8125-18.984-6.8125-4.7344 0-8.9375 0.70312t-8.1562 2.1719v8.7344q3.9531-2.1406 7.8125-3.1562 3.8594-1.0312 7.8594-1.0312 8.8438 0 13.234 4.6094t4.3906 13.938v4.4531q-2.7812-4.8438-7.125-7.2344t-10.406-2.3906q-10.047 0-16.203 7.6562-6.1562 7.6719-6.1562 20.328 0 12.688 6.1562 20.344 6.1562 7.6719 16.203 7.6719 6.0625 0 10.406-2.3906t7.125-7.2188v8.2969h8.9844z"/>
</defs>
<g transform="translate(1450.1 1045.5) scale(.1 -.1)">
<use xlink:href="#aq"/>
<use x="35.205078" xlink:href="#c"/>
<use x="96.728516" xlink:href="#e"/>
<use x="137.841797" xlink:href="#u"/>
<use x="177.050781" xlink:href="#h"/>
<use x="204.833984" xlink:href="#av"/>
</g>
</g>
<g clip-path="url(#a)">
<g transform="translate(1496.3 1045.5) scale(.1 -.1)">
<use xlink:href="#t"/>
<use x="63.476562" xlink:href="#i"/>
<use x="124.755859" xlink:href="#j"/>
<use x="222.167969" xlink:href="#h"/>
<use x="249.951172" xlink:href="#u"/>
</g>
</g>
<g clip-path="url(#a)">
<g transform="translate(1556.3 1045.5) scale(.1 -.1)">
<use xlink:href="#am"/>
</g>
</g>
<g clip-path="url(#a)">
<g transform="translate(1595.2 1045.5) scale(.1 -.1)">
<use xlink:href="#v"/>
<use x="52.099609" xlink:href="#h"/>
<use x="79.882812" xlink:href="#ac"/>
<use x="134.863281" xlink:href="#s"/>
</g>
</g>
<g clip-path="url(#a)">
<g transform="translate(1647.8 1045.5) scale(.1 -.1)">
<use xlink:href="#h"/>
<use x="27.783203" xlink:href="#g"/>
</g>
</g>
<g clip-path="url(#a)">
<g transform="translate(1688.4 1045.5) scale(.1 -.1)">
<use xlink:href="#t"/>
<use x="63.476562" xlink:href="#c"/>
<use x="125" xlink:href="#j"/>
</g>
</g>
<g clip-path="url(#a)">
<g transform="translate(1726.8 1045.5) scale(.1 -.1)">
<use xlink:href="#ah"/>
<use x="63.476562" xlink:href="#ac"/>
<use x="118.457031" xlink:href="#s"/>
<use x="181.835938" xlink:href="#r"/>
<use x="245.214844" xlink:href="#u"/>
<use x="284.423828" xlink:href="#ag"/>
<use x="336.914062" xlink:href="#c"/>
</g>
</g>
<g clip-path="url(#a)">
<g transform="translate(1782.2 1045.5) scale(.1 -.1)">
<use xlink:href="#h"/>
<use x="27.783203" xlink:href="#s"/>
<use x="91.162109" xlink:href="#e"/>
<use x="132.244141" xlink:href="#c"/>
<use x="193.767578" xlink:href="#e"/>
</g>
</g>
<g clip-path="url(#a)">
<g transform="translate(1823.3 1045.5) scale(.1 -.1)">
<use xlink:href="#av"/>
<use x="63.476562" xlink:href="#e"/>
<use x="104.589844" xlink:href="#ao"/>
<use x="167.96875" xlink:href="#g"/>
<use x="231.347656" xlink:href="#c"/>
<use x="292.871094" xlink:href="#g"/>
</g>
</g>
<g clip-path="url(#a)">
<g transform="translate(1867.1 1045.5) scale(.1 -.1)">
<use xlink:href="#as"/>
<use x="65.560547" xlink:href="#i"/>
<use x="126.839844" xlink:href="#j"/>
<use x="224.251953" xlink:href="#j"/>
<use x="321.664062" xlink:href="#c"/>
<use x="383.1875" xlink:href="#e"/>
</g>
</g>
<g clip-path="url(#a)">
<g transform="translate(1895.5 1045.5) scale(.1 -.1)">
<use xlink:href="#s"/>
<use x="63.378906" xlink:href="#c"/>
<use x="124.902344" xlink:href="#e"/>
<use x="166.015625" xlink:href="#i"/>
<use x="227.294922" xlink:href="#r"/>
<use x="290.673828" xlink:href="#v"/>
<use x="342.773438" xlink:href="#ag"/>
<use x="395.263672" xlink:href="#r"/>
<use x="458.642578" xlink:href="#at"/>
<use x="522.119141" xlink:href="#r"/>
<use x="585.498047" xlink:href="#u"/>
<use x="624.707031" xlink:href="#ag"/>
<use x="677.197266" xlink:href="#c"/>
<use x="738.720703" xlink:href="#g"/>
</g>
</g>
<g clip-path="url(#a)">
<defs>
<path id="f" d="m10.688 12.406h10.312v-12.406h-10.312z"/>
</defs>
<g transform="translate(1981.2 1045.5) scale(.1 -.1)">
<use xlink:href="#f"/>
</g>
</g>
<g clip-path="url(#a)">
<defs>
<path id="d" d="m12.406 8.2969h16.109v55.625l-17.531-3.5156v8.9844l17.438 3.5156h9.8594v-64.609h16.109v-8.2969h-41.984z"/>
</defs>
<g transform="translate(711.73 53.371) scale(.1 -.1)">
<use xlink:href="#d"/>
<use x="63.623047" xlink:href="#f"/>
<use x="95.410156" xlink:href="#d"/>
</g>
</g>
<g clip-path="url(#a)">
<defs>
<path id="m" d="m19.188 8.2969h34.422v-8.2969h-46.281v8.2969q5.6094 5.8125 15.297 15.594 9.7031 9.7969 12.188 12.641 4.7344 5.3125 6.6094 9 1.8906 3.6875 1.8906 7.25 0 5.8125-4.0781 9.4688-4.0781 3.6719-10.625 3.6719-4.6406 0-9.7969-1.6094-5.1406-1.6094-11-4.8906v9.9688q5.9531 2.3906 11.125 3.6094 5.1875 1.2188 9.4844 1.2188 11.328 0 18.062-5.6719 6.7344-5.6562 6.7344-15.125 0-4.5-1.6875-8.5312-1.6719-4.0156-6.125-9.4844-1.2188-1.4219-7.7656-8.1875-6.5312-6.7656-18.453-18.922z"/>
</defs>
<g transform="translate(192.83 562.28) scale(.1 -.1)">
<use xlink:href="#d"/>
<use x="63.623047" xlink:href="#f"/>
<use x="95.410156" xlink:href="#m"/>
</g>
</g>
<g clip-path="url(#a)">
<defs>
<path id="p" d="m40.578 39.312q7.0781-1.5156 11.047-6.3125 3.9844-4.7812 3.9844-11.812 0-10.781-7.4219-16.703-7.4219-5.9062-21.094-5.9062-4.5781 0-9.4375 0.90625t-10.031 2.7188v9.5156q4.0938-2.3906 8.9688-3.6094 4.8906-1.2188 10.219-1.2188 9.2656 0 14.125 3.6562t4.8594 10.641q0 6.4531-4.5156 10.078-4.5156 3.6406-12.562 3.6406h-8.5v8.1094h8.8906q7.2656 0 11.125 2.9062t3.8594 8.375q0 5.6094-3.9844 8.6094-3.9688 3.0156-11.391 3.0156-4.0625 0-8.7031-0.89062-4.6406-0.875-10.203-2.7188v8.7812q5.625 1.5625 10.531 2.3438t9.25 0.78125q11.234 0 17.766-5.1094 6.5469-5.0938 6.5469-13.781 0-6.0625-3.4688-10.234t-9.8594-5.7812z"/>
</defs>
<g transform="translate(369.84 885.16) scale(.1 -.1)">
<use xlink:href="#d"/>
<use x="63.623047" xlink:href="#f"/>
<use x="95.410156" xlink:href="#p"/>
</g>
</g>
<g clip-path="url(#a)">
<defs>
<path id="o" d="m37.797 64.312-24.906-38.922h24.906zm-2.5938 8.5938h12.406v-47.516h10.406v-8.2031h-10.406v-17.188h-9.8125v17.188h-32.906v9.5156z"/>
</defs>
<g transform="translate(515.39 396.6) scale(.1 -.1)">
<use xlink:href="#d"/>
<use x="63.623047" xlink:href="#f"/>
<use x="95.410156" xlink:href="#o"/>
</g>
</g>
<g clip-path="url(#a)">
<defs>
<path id="n" d="m10.797 72.906h38.719v-8.3125h-29.688v-17.859q2.1406 0.73438 4.2812 1.0938 2.1562 0.35938 4.3125 0.35938 12.203 0 19.328-6.6875 7.1406-6.6875 7.1406-18.109 0-11.766-7.3281-18.297-7.3281-6.5156-20.656-6.5156-4.5938 0-9.3594 0.78125-4.75 0.78125-9.8281 2.3438v9.9219q4.3906-2.3906 9.0781-3.5625t9.9062-1.1719q8.4531 0 13.375 4.4375 4.9375 4.4375 4.9375 12.062 0 7.6094-4.9375 12.047-4.9219 4.4531-13.375 4.4531-3.9531 0-7.8906-0.875-3.9219-0.875-8.0156-2.7344z"/>
</defs>
<g transform="translate(605.87 885.16) scale(.1 -.1)">
<use xlink:href="#d"/>
<use x="63.623047" xlink:href="#f"/>
<use x="95.410156" xlink:href="#n"/>
</g>
</g>
<g clip-path="url(#a)">
<defs>
<path id="aa" d="m33.016 40.375q-6.6406 0-10.531-4.5469-3.875-4.5312-3.875-12.438 0-7.8594 3.875-12.438 3.8906-4.5625 10.531-4.5625t10.516 4.5625q3.875 4.5781 3.875 12.438 0 7.9062-3.875 12.438-3.875 4.5469-10.516 4.5469zm19.578 30.922v-8.9844q-3.7188 1.75-7.5 2.6719-3.7812 0.9375-7.5 0.9375-9.7656 0-14.922-6.5938-5.1406-6.5938-5.875-19.922 2.875 4.25 7.2188 6.5156 4.3594 2.2656 9.5781 2.2656 10.984 0 17.359-6.6719 6.375-6.6562 6.375-18.125 0-11.234-6.6406-18.031-6.6406-6.7812-17.672-6.7812-12.656 0-19.344 9.6875-6.6875 9.7031-6.6875 28.109 0 17.281 8.2031 27.562t22.016 10.281q3.7188 0 7.5-0.73438t7.8906-2.1875z"/>
</defs>
<g transform="translate(752.8 227.14) scale(.1 -.1)">
<use xlink:href="#d"/>
<use x="63.623047" xlink:href="#f"/>
<use x="95.410156" xlink:href="#aa"/>
</g>
</g>
<g clip-path="url(#a)">
<defs>
<path id="z" d="m8.2031 72.906h46.875v-4.2031l-26.469-68.703h-10.297l24.906 64.594h-35.016z"/>
</defs>
<g transform="translate(1125.1 885.16) scale(.1 -.1)">
<use xlink:href="#d"/>
<use x="63.623047" xlink:href="#f"/>
<use x="95.410156" xlink:href="#z"/>
</g>
</g>
<g clip-path="url(#a)">
<defs>
<path id="af" d="m31.781 34.625q-7.0312 0-11.062-3.7656-4.0156-3.7656-4.0156-10.344 0-6.5938 4.0156-10.359 4.0312-3.7656 11.062-3.7656t11.078 3.7812q4.0625 3.7969 4.0625 10.344 0 6.5781-4.0312 10.344-4.0156 3.7656-11.109 3.7656zm-9.8594 4.1875q-6.3438 1.5625-9.8906 5.9062-3.5312 4.3594-3.5312 10.609 0 8.7344 6.2188 13.812 6.2344 5.0781 17.062 5.0781 10.891 0 17.094-5.0781t6.2031-13.812q0-6.25-3.5469-10.609-3.5312-4.3438-9.8281-5.9062 7.125-1.6562 11.094-6.5 3.9844-4.8281 3.9844-11.797 0-10.609-6.4688-16.281-6.4688-5.6562-18.531-5.6562-12.047 0-18.531 5.6562-6.4688 5.6719-6.4688 16.281 0 6.9688 4 11.797 4.0156 4.8438 11.141 6.5zm-3.6094 15.578q0-5.6562 3.5312-8.8281 3.5469-3.1719 9.9375-3.1719 6.3594 0 9.9375 3.1719 3.5938 3.1719 3.5938 8.8281 0 5.6719-3.5938 8.8438-3.5781 3.1719-9.9375 3.1719-6.3906 0-9.9375-3.1719-3.5312-3.1719-3.5312-8.8438z"/>
</defs>
<g transform="translate(1443.1 227.14) scale(.1 -.1)">
<use xlink:href="#d"/>
<use x="63.623047" xlink:href="#f"/>
<use x="95.410156" xlink:href="#af"/>
</g>
</g>
<g clip-path="url(#a)">
<g transform="translate(1192.8 724.84) scale(.1 -.1)">
<use xlink:href="#d"/>
<use x="63.623047" xlink:href="#f"/>
<use x="95.410156" xlink:href="#d"/>
<use x="159.033203" xlink:href="#m"/>
</g>
</g>
<g clip-path="url(#a)">
<g transform="translate(1310.8 885.16) scale(.1 -.1)">
<use xlink:href="#d"/>
<use x="63.623047" xlink:href="#f"/>
<use x="95.410156" xlink:href="#d"/>
<use x="159.033203" xlink:href="#p"/>
</g>
</g>
<g clip-path="url(#a)">
<g transform="translate(1405.2 885.16) scale(.1 -.1)">
<use xlink:href="#d"/>
<use x="63.623047" xlink:href="#f"/>
<use x="95.410156" xlink:href="#d"/>
<use x="159.033203" xlink:href="#o"/>
</g>
</g>
<g clip-path="url(#a)">
<g transform="translate(1452.4 885.16) scale(.1 -.1)">
<use xlink:href="#d"/>
<use x="63.623047" xlink:href="#f"/>
<use x="95.410156" xlink:href="#d"/>
<use x="159.033203" xlink:href="#n"/>
</g>
</g>
<g clip-path="url(#a)">
<g transform="translate(1499.6 885.16) scale(.1 -.1)">
<use xlink:href="#d"/>
<use x="63.623047" xlink:href="#f"/>
<use x="95.410156" xlink:href="#d"/>
<use x="159.033203" xlink:href="#aa"/>
</g>
</g>
<g clip-path="url(#a)">
<g transform="translate(1672.2 396.6) scale(.1 -.1)">
<use xlink:href="#d"/>
<use x="63.623047" xlink:href="#f"/>
<use x="95.410156" xlink:href="#d"/>
<use x="159.033203" xlink:href="#z"/>
</g>
</g>
<g clip-path="url(#a)">
<defs>
<path id="ak" d="m10.984 1.5156v8.9844q3.7188-1.7656 7.5156-2.6875 3.8125-0.92188 7.4844-0.92188 9.7656 0 14.906 6.5625 5.1562 6.5625 5.8906 19.953-2.8281-4.2031-7.1875-6.4531-4.3438-2.25-9.6094-2.25-10.938 0-17.312 6.6094-6.375 6.625-6.375 18.109 0 11.219 6.6406 18 6.6406 6.7969 17.672 6.7969 12.656 0 19.312-9.7031 6.6719-9.6875 6.6719-28.141 0-17.234-8.1875-27.516-8.1719-10.281-21.984-10.281-3.7188 0-7.5312 0.73438-3.7969 0.73438-7.9062 2.2031zm19.625 30.906q6.6406 0 10.516 4.5312 3.8906 4.5469 3.8906 12.469 0 7.8594-3.8906 12.422-3.875 4.5625-10.516 4.5625t-10.516-4.5625-3.875-12.422q0-7.9219 3.875-12.469 3.875-4.5312 10.516-4.5312z"/>
</defs>
<g transform="translate(1759.2 885.16) scale(.1 -.1)">
<use xlink:href="#d"/>
<use x="63.623047" xlink:href="#f"/>
<use x="95.410156" xlink:href="#d"/>
<use x="159.033203" xlink:href="#ak"/>
</g>
</g>
<g clip-path="url(#a)">
<defs>
<path id="al" d="m31.781 66.406q-7.6094 0-11.453-7.5-3.8281-7.4844-3.8281-22.531 0-14.984 3.8281-22.484 3.8438-7.5 11.453-7.5 7.6719 0 11.5 7.5 3.8438 7.5 3.8438 22.484 0 15.047-3.8438 22.531-3.8281 7.5-11.5 7.5zm0 7.8125q12.266 0 18.734-9.7031 6.4688-9.6875 6.4688-28.141 0-18.406-6.4688-28.109-6.4688-9.6875-18.734-9.6875-12.25 0-18.719 9.6875-6.4688 9.7031-6.4688 28.109 0 18.453 6.4688 28.141 6.4688 9.7031 18.719 9.7031z"/>
</defs>
<g transform="translate(1741.5 562.28) scale(.1 -.1)">
<use xlink:href="#d"/>
<use x="63.623047" xlink:href="#f"/>
<use x="95.410156" xlink:href="#m"/>
<use x="159.033203" xlink:href="#al"/>
</g>
</g>
<g clip-path="url(#a)">
<g transform="translate(1641.2 885.16) scale(.1 -.1)">
<use xlink:href="#d"/>
<use x="63.623047" xlink:href="#f"/>
<use x="95.410156" xlink:href="#m"/>
<use x="159.033203" xlink:href="#d"/>
</g>
</g>
<g clip-path="url(#a)">
<g transform="translate(1688.4 885.16) scale(.1 -.1)">
<use xlink:href="#d"/>
<use x="63.623047" xlink:href="#f"/>
<use x="95.410156" xlink:href="#m"/>
<use x="159.033203" xlink:href="#m"/>
</g>
</g>
<g clip-path="url(#a)">
<g transform="translate(1806.4 724.84) scale(.1 -.1)">
<use xlink:href="#d"/>
<use x="63.623047" xlink:href="#f"/>
<use x="95.410156" xlink:href="#m"/>
<use x="159.033203" xlink:href="#p"/>
</g>
</g>
<g clip-path="url(#a)">
<g transform="translate(1830 724.84) scale(.1 -.1)">
<use xlink:href="#d"/>
<use x="63.623047" xlink:href="#f"/>
<use x="95.410156" xlink:href="#m"/>
<use x="159.033203" xlink:href="#o"/>
</g>
</g>
<g clip-path="url(#a)">
<g transform="translate(1782.8 885.16) scale(.1 -.1)">
<use xlink:href="#d"/>
<use x="63.623047" xlink:href="#f"/>
<use x="95.410156" xlink:href="#m"/>
<use x="159.033203" xlink:href="#n"/>
</g>
</g>
<g clip-path="url(#a)">
<g transform="translate(1830 885.16) scale(.1 -.1)">
<use xlink:href="#d"/>
<use x="63.623047" xlink:href="#f"/>
<use x="95.410156" xlink:href="#m"/>
<use x="159.033203" xlink:href="#aa"/>
</g>
</g>
<g clip-path="url(#a)">
<g transform="translate(1877.2 885.16) scale(.1 -.1)">
<use xlink:href="#d"/>
<use x="63.623047" xlink:href="#f"/>
<use x="95.410156" xlink:href="#m"/>
<use x="159.033203" xlink:href="#z"/>
</g>
</g>
<g clip-path="url(#a)">
<g transform="translate(1735.6 885.16) scale(.1 -.1)">
<use xlink:href="#d"/>
<use x="63.623047" xlink:href="#f"/>
<use x="95.410156" xlink:href="#m"/>
<use x="159.033203" xlink:href="#af"/>
</g>
</g>
<g clip-path="url(#a)">
<g transform="translate(1169.1 885.16) scale(.1 -.1)">
<use xlink:href="#d"/>
<use x="63.623047" xlink:href="#f"/>
<use x="95.410156" xlink:href="#m"/>
<use x="159.033203" xlink:href="#ak"/>
</g>
</g>
<g clip-path="url(#a)">
<g transform="translate(1216.4 885.16) scale(.1 -.1)">
<use xlink:href="#d"/>
<use x="63.623047" xlink:href="#f"/>
<use x="95.410156" xlink:href="#p"/>
<use x="159.033203" xlink:href="#al"/>
</g>
</g>
<g clip-path="url(#a)">
<g transform="translate(649.89 885.16) scale(.1 -.1)">
<use xlink:href="#d"/>
<use x="63.623047" xlink:href="#f"/>
<use x="95.410156" xlink:href="#p"/>
<use x="159.033203" xlink:href="#d"/>
</g>
</g>
<g clip-path="url(#a)">
<g transform="translate(697.1 885.16) scale(.1 -.1)">
<use xlink:href="#d"/>
<use x="63.623047" xlink:href="#f"/>
<use x="95.410156" xlink:href="#p"/>
<use x="159.033203" xlink:href="#m"/>
</g>
</g>
<g clip-path="url(#a)">
<g transform="translate(907.16 396.6) scale(.1 -.1)">
<use xlink:href="#d"/>
<use x="63.623047" xlink:href="#f"/>
<use x="95.410156" xlink:href="#p"/>
<use x="159.033203" xlink:href="#p"/>
</g>
</g>
<g clip-path="url(#a)">
<g transform="translate(791.51 885.16) scale(.1 -.1)">
<use xlink:href="#d"/>
<use x="63.623047" xlink:href="#f"/>
<use x="95.410156" xlink:href="#p"/>
<use x="159.033203" xlink:href="#n"/>
</g>
</g>
<g clip-path="url(#a)">
<g transform="translate(838.71 885.16) scale(.1 -.1)">
<use xlink:href="#d"/>
<use x="63.623047" xlink:href="#f"/>
<use x="95.410156" xlink:href="#p"/>
<use x="159.033203" xlink:href="#aa"/>
</g>
</g>
<g clip-path="url(#a)">
<g transform="translate(897.72 562.28) scale(.1 -.1)">
<use xlink:href="#d"/>
<use x="63.623047" xlink:href="#f"/>
<use x="95.410156" xlink:href="#p"/>
<use x="159.033203" xlink:href="#z"/>
</g>
</g>
<g clip-path="url(#a)">
<g transform="translate(980.33 885.16) scale(.1 -.1)">
<use xlink:href="#d"/>
<use x="63.623047" xlink:href="#f"/>
<use x="95.410156" xlink:href="#p"/>
<use x="159.033203" xlink:href="#af"/>
</g>
</g>
<g clip-path="url(#a)">
<g transform="translate(1027.5 885.16) scale(.1 -.1)">
<use xlink:href="#d"/>
<use x="63.623047" xlink:href="#f"/>
<use x="95.410156" xlink:href="#p"/>
<use x="159.033203" xlink:href="#ak"/>
</g>
</g>
<g clip-path="url(#a)">
<g transform="translate(885.92 885.16) scale(.1 -.1)">
<use xlink:href="#d"/>
<use x="63.623047" xlink:href="#f"/>
<use x="95.410156" xlink:href="#o"/>
<use x="159.033203" xlink:href="#al"/>
</g>
</g>
<g clip-path="url(#a)">
<g transform="translate(909.52 724.84) scale(.1 -.1)">
<use xlink:href="#d"/>
<use x="63.623047" xlink:href="#f"/>
<use x="95.410156" xlink:href="#o"/>
<use x="159.033203" xlink:href="#d"/>
</g>
</g>
<g clip-path="url(#a)">
<g transform="translate(933.12 885.16) scale(.1 -.1)">
<use xlink:href="#d"/>
<use x="63.623047" xlink:href="#f"/>
<use x="95.410156" xlink:href="#o"/>
<use x="159.033203" xlink:href="#m"/>
</g>
</g>
<g clip-path="url(#a)">
<g transform="translate(468.94 562.28) scale(.1 -.1)">
<use xlink:href="#d"/>
<use x="63.623047" xlink:href="#f"/>
<use x="95.410156" xlink:href="#o"/>
<use x="159.033203" xlink:href="#p"/>
</g>
</g>
<g clip-path="url(#a)">
<g transform="translate(555.48 885.16) scale(.1 -.1)">
<use xlink:href="#d"/>
<use x="63.623047" xlink:href="#f"/>
<use x="95.410156" xlink:href="#o"/>
<use x="159.033203" xlink:href="#o"/>
</g>
</g>
<g clip-path="url(#a)">
<g transform="translate(413.87 885.16) scale(.1 -.1)">
<use xlink:href="#d"/>
<use x="63.623047" xlink:href="#f"/>
<use x="95.410156" xlink:href="#o"/>
<use x="159.033203" xlink:href="#n"/>
</g>
</g>
<g clip-path="url(#a)">
<g transform="translate(484.68 724.84) scale(.1 -.1)">
<use xlink:href="#d"/>
<use x="63.623047" xlink:href="#f"/>
<use x="95.410156" xlink:href="#o"/>
<use x="159.033203" xlink:href="#aa"/>
</g>
</g>
<g clip-path="url(#a)">
<g transform="translate(508.28 885.16) scale(.1 -.1)">
<use xlink:href="#d"/>
<use x="63.623047" xlink:href="#f"/>
<use x="95.410156" xlink:href="#o"/>
<use x="159.033203" xlink:href="#z"/>
</g>
</g>
<g clip-path="url(#a)">
<g transform="translate(461.07 885.16) scale(.1 -.1)">
<use xlink:href="#d"/>
<use x="63.623047" xlink:href="#f"/>
<use x="95.410156" xlink:href="#o"/>
<use x="159.033203" xlink:href="#af"/>
</g>
</g>
<g clip-path="url(#a)">
<g transform="translate(130.64 724.84) scale(.1 -.1)">
<use xlink:href="#d"/>
<use x="63.623047" xlink:href="#f"/>
<use x="95.410156" xlink:href="#o"/>
<use x="159.033203" xlink:href="#ak"/>
</g>
</g>
<g clip-path="url(#a)">
<g transform="translate(248.65 885.16) scale(.1 -.1)">
<use xlink:href="#d"/>
<use x="63.623047" xlink:href="#f"/>
<use x="95.410156" xlink:href="#n"/>
<use x="159.033203" xlink:href="#al"/>
</g>
</g>
<g clip-path="url(#a)">
<g transform="translate(83.433 885.16) scale(.1 -.1)">
<use xlink:href="#d"/>
<use x="63.623047" xlink:href="#f"/>
<use x="95.410156" xlink:href="#n"/>
<use x="159.033203" xlink:href="#d"/>
</g>
</g>
<g clip-path="url(#a)">
<g transform="translate(130.64 885.16) scale(.1 -.1)">
<use xlink:href="#d"/>
<use x="63.623047" xlink:href="#f"/>
<use x="95.410156" xlink:href="#n"/>
<use x="159.033203" xlink:href="#m"/>
</g>
</g>
<g clip-path="url(#a)">
<g transform="translate(177.84 885.16) scale(.1 -.1)">
<use xlink:href="#d"/>
<use x="63.623047" xlink:href="#f"/>
<use x="95.410156" xlink:href="#n"/>
<use x="159.033203" xlink:href="#p"/>
</g>
</g>
<g clip-path="url(#a)">
<g transform="translate(319.46 885.16) scale(.1 -.1)">
<use xlink:href="#d"/>
<use x="63.623047" xlink:href="#f"/>
<use x="95.410156" xlink:href="#n"/>
<use x="159.033203" xlink:href="#o"/>
</g>
</g>
<g clip-path="url(#a)">
<g transform="translate(744.3 885.16) scale(.1 -.1)">
<use xlink:href="#d"/>
<use x="63.623047" xlink:href="#f"/>
<use x="95.410156" xlink:href="#n"/>
<use x="159.033203" xlink:href="#n"/>
</g>
</g>
<g clip-path="url(#a)">
<g transform="translate(1074.7 885.16) scale(.1 -.1)">
<use xlink:href="#d"/>
<use x="63.623047" xlink:href="#f"/>
<use x="95.410156" xlink:href="#n"/>
<use x="159.033203" xlink:href="#aa"/>
</g>
</g>
<g clip-path="url(#a)">
<g transform="translate(1546.8 885.16) scale(.1 -.1)">
<use xlink:href="#d"/>
<use x="63.623047" xlink:href="#f"/>
<use x="95.410156" xlink:href="#n"/>
<use x="159.033203" xlink:href="#z"/>
</g>
</g>
<g clip-path="url(#a)">
<g transform="translate(1971.6 885.16) scale(.1 -.1)">
<use xlink:href="#d"/>
<use x="63.623047" xlink:href="#f"/>
<use x="95.410156" xlink:href="#n"/>
<use x="159.033203" xlink:href="#af"/>
</g>
</g>
<defs>
<clipPath id="a">
<rect width="2077.3" height="1093.3"/>
</clipPath>
</defs>
</svg>
