<?xml version="1.0" encoding="UTF-8"?>
<!DOCTYPE svg  PUBLIC '-//W3C//DTD SVG 1.1//EN'  'http://www.w3.org/Graphics/SVG/1.1/DTD/svg11.dtd'>
<svg width="1824pt" height="960pt" version="1.1" viewBox="0 0 1824 960" xmlns="http://www.w3.org/2000/svg" xmlns:xlink="http://www.w3.org/1999/xlink">
<defs>
<style type="text/css">*{stroke-linecap:butt;stroke-linejoin:round;}</style>
</defs>
<path d="m0 960h1824v-960h-1824z" fill="#fff"/>
<g fill="none" stroke="#000">
<path d="m346.82 43.636-263.91 750.45" clip-path="url(#a)"/>
<path d="m346.82 43.636-252.07 626.48" clip-path="url(#a)"/>
<path d="m346.82 43.636-32.514 251.44" clip-path="url(#a)"/>
<path d="m346.82 43.636-164.42 750.45" clip-path="url(#a)"/>
<path d="m346.82 43.636-88.591 125.83" clip-path="url(#a)"/>
<path d="m346.82 43.636-185.74 750.45" clip-path="url(#a)"/>
<path d="m346.82 43.636 276.18 750.45" clip-path="url(#a)"/>
<path d="m346.82 43.636 328.29 750.45" clip-path="url(#a)"/>
<path d="m346.82 43.636 382.78 750.45" clip-path="url(#a)"/>
<path d="m82.909 794.09v122.27" clip-path="url(#a)"/>
<path d="m94.753 670.12-11.844 123.97" clip-path="url(#a)" stroke-dasharray="3.7,1.6"/>
<path d="m94.753 670.12 16.582 123.97" clip-path="url(#a)" stroke-dasharray="3.7,1.6"/>
<path d="m94.753 670.12-4.7377 123.97" clip-path="url(#a)"/>
<path d="m314.31 295.08-214.82 499.01" clip-path="url(#a)"/>
<path d="m314.31 295.08-202.97 499.01" clip-path="url(#a)"/>
<path d="m314.31 295.08-188.76 499.01" clip-path="url(#a)"/>
<path d="m314.31 295.08-172.18 499.01" clip-path="url(#a)"/>
<path d="m314.31 295.08 778.73 125.36" clip-path="url(#a)"/>
<path d="m182.4 794.09v122.27" clip-path="url(#a)"/>
<path d="m258.23 169.46-52.144 624.63" clip-path="url(#a)"/>
<path d="m258.23 169.46-26.086 624.63" clip-path="url(#a)"/>
<path d="m258.23 169.46 78.23 125.62" clip-path="url(#a)"/>
<path d="m206.09 794.09v122.27" clip-path="url(#a)"/>
<path d="m232.15 794.09v122.27" clip-path="url(#a)"/>
<path d="m336.46 295.08-75.89 499.01" clip-path="url(#a)"/>
<path d="m336.46 295.08-45.096 499.01" clip-path="url(#a)"/>
<path d="m336.46 295.08 120.99 125.36" clip-path="url(#a)"/>
<path d="m260.57 794.09v122.27" clip-path="url(#a)"/>
<path d="m291.37 794.09v122.27" clip-path="url(#a)"/>
<path d="m457.45 420.45-132.92 373.65" clip-path="url(#a)"/>
<path d="m457.45 420.45 17.108 125.05" clip-path="url(#a)"/>
<path d="m457.45 420.45 115.81 373.65" clip-path="url(#a)"/>
<path d="m324.53 794.09v122.27" clip-path="url(#a)"/>
<path d="m474.56 545.49 98.701 248.6" clip-path="url(#a)" stroke-dasharray="3.7,1.6"/>
<path d="m474.56 545.49-114.49 248.6" clip-path="url(#a)"/>
<path d="m474.56 545.49-35.532 124.62" clip-path="url(#a)"/>
<path d="m474.56 545.49 51.325 248.6" clip-path="url(#a)"/>
<path d="m573.26 794.09v122.27" clip-path="url(#a)"/>
<path d="m360.06 794.09v122.27" clip-path="url(#a)"/>
<path d="m439.02 670.12-41.06 123.97" clip-path="url(#a)"/>
<path d="m439.02 670.12-0.78961 123.97" clip-path="url(#a)"/>
<path d="m439.02 670.12 41.849 123.97" clip-path="url(#a)"/>
<path d="m525.88 794.09v122.27" clip-path="url(#a)"/>
<path d="m397.96 794.09v122.27" clip-path="url(#a)"/>
<path d="m438.23 794.09v122.27" clip-path="url(#a)"/>
<path d="m480.87 794.09v122.27" clip-path="url(#a)"/>
<path d="m99.491 794.09v122.27" clip-path="url(#a)"/>
<path d="m111.34 794.09v122.27" clip-path="url(#a)"/>
<path d="m125.55 794.09v122.27" clip-path="url(#a)"/>
<path d="m142.13 794.09v122.27" clip-path="url(#a)"/>
<path d="m1093 420.45-306.59 373.65" clip-path="url(#a)"/>
<path d="m1093 420.45-131.29 125.05" clip-path="url(#a)"/>
<path d="m1093 420.45 84.271 373.65" clip-path="url(#a)"/>
<path d="m1093 420.45 340.4 249.67" clip-path="url(#a)"/>
<path d="m1093 420.45 13.206 373.65" clip-path="url(#a)"/>
<path d="m786.45 794.09v122.27" clip-path="url(#a)"/>
<path d="m961.75 545.49-85.278 124.62" clip-path="url(#a)"/>
<path d="m961.75 545.49 9.4753 248.6" clip-path="url(#a)"/>
<path d="m961.75 545.49 75.803 248.6" clip-path="url(#a)"/>
<path d="m1177.3 794.09v122.27" clip-path="url(#a)"/>
<path d="m1433.4 670.12-182.7 123.97" clip-path="url(#a)"/>
<path d="m1433.4 670.12-106.89 123.97" clip-path="url(#a)"/>
<path d="m1433.4 670.12-28.722 123.97" clip-path="url(#a)"/>
<path d="m1433.4 670.12-395.89 123.97" clip-path="url(#a)" stroke-dasharray="3.7,1.6"/>
<path d="m1433.4 670.12 51.818 123.97" clip-path="url(#a)"/>
<path d="m1433.4 670.12 134.73 123.97" clip-path="url(#a)"/>
<path d="m1433.4 670.12 220.01 123.97" clip-path="url(#a)"/>
<path d="m1433.4 670.12 307.65 123.97" clip-path="url(#a)"/>
<path d="m1250.7 794.09v122.27" clip-path="url(#a)"/>
<path d="m1326.5 794.09v122.27" clip-path="url(#a)"/>
<path d="m1404.7 794.09v122.27" clip-path="url(#a)"/>
<path d="m876.47 670.12-30.795 123.97" clip-path="url(#a)"/>
<path d="m876.47 670.12 30.795 123.97" clip-path="url(#a)"/>
<path d="m971.22 794.09v122.27" clip-path="url(#a)"/>
<path d="m1037.5 794.09v122.27" clip-path="url(#a)"/>
<path d="m845.67 794.09v122.27" clip-path="url(#a)"/>
<path d="m907.26 794.09v122.27" clip-path="url(#a)"/>
<path d="m90.016 794.09v122.27" clip-path="url(#a)"/>
<path d="m161.08 794.09v122.27" clip-path="url(#a)"/>
<path d="m623 794.09v122.27" clip-path="url(#a)"/>
<path d="m675.12 794.09v122.27" clip-path="url(#a)"/>
<path d="m729.6 794.09v122.27" clip-path="url(#a)"/>
<path d="m1106.2 794.09v122.27" clip-path="url(#a)"/>
<path d="m1485.3 794.09v122.27" clip-path="url(#a)"/>
<path d="m1568.2 794.09v122.27" clip-path="url(#a)"/>
<path d="m1653.4 794.09v122.27" clip-path="url(#a)"/>
<path d="m1741.1 794.09v122.27" clip-path="url(#a)"/>
</g>
<path d="m220.04 423.05 1.4788-4.2051q0.79621-2.2641-1.4679-3.0603l-7.304-2.5686q-2.2641-0.79621-3.0603 1.4679l-1.4788 4.2051q-0.79621 2.2641 1.4679 3.0603l7.304 2.5686q2.2641 0.79621 3.0603-1.4679z" clip-path="url(#a)" fill="#fff" stroke="#fff"/>
<g clip-path="url(#a)">
<defs>
<path id="ae" d="m9.8125 72.906h9.8594v-64.609h35.5v-8.2969h-45.359z"/>
</defs>
<g transform="translate(216.21 421.7) rotate(-70.625) scale(.08 -.08)">
<use xlink:href="#ae"/>
</g>
</g>
<path d="m225.48 362.01 2.2457-5.5814q0.89586-2.2265-1.3307-3.1224l-7.1829-2.8901q-2.2265-0.89586-3.1224 1.3307l-2.2457 5.5814q-0.89586 2.2265 1.3307 3.1224l7.1829 2.8901q2.2265 0.89586 3.1224-1.3307z" clip-path="url(#a)" fill="#fff" stroke="#fff"/>
<g clip-path="url(#a)">
<defs>
<path id="z" d="m9.8125 72.906h9.8594v-29.891h35.844v29.891h9.8594v-72.906h-9.8594v34.719h-35.844v-34.719h-9.8594z"/>
</defs>
<g transform="translate(221.71 360.49) rotate(-68.082) scale(.08 -.08)">
<use xlink:href="#z"/>
</g>
</g>
<path d="m336.4 173.15 0.77153-5.9666q0.30778-2.3802-2.0724-2.688l-7.6786-0.99291q-2.3802-0.30778-2.688 2.0724l-0.77153 5.9666q-0.30778 2.3802 2.0724 2.688l7.6786 0.99291q2.3802 0.30778 2.688-2.0724z" clip-path="url(#a)" fill="#fff" stroke="#fff"/>
<g clip-path="url(#a)">
<g transform="translate(332.37 172.63) rotate(-82.632) scale(.08 -.08)">
<use xlink:href="#z"/>
</g>
</g>
<path d="m270.26 422.38 0.954-4.3542q0.51365-2.3444-1.8307-2.858l-7.5631-1.6571q-2.3444-0.51365-2.858 1.8307l-0.954 4.3542q-0.51365 2.3444 1.8307 2.858l7.5631 1.6571q2.3444 0.51365 2.858-1.8307z" clip-path="url(#a)" fill="#fff" stroke="#fff"/>
<g clip-path="url(#a)">
<g transform="translate(266.29 421.51) rotate(-77.642) scale(.08 -.08)">
<use xlink:href="#ae"/>
</g>
</g>
<path d="m305.92 112.62 3.4635-4.9193q1.3817-1.9624-0.58074-3.3441l-6.3308-4.4573q-1.9624-1.3817-3.3441 0.58075l-3.4635 4.9193q-1.3817 1.9624 0.58074 3.3441l6.3308 4.4573q1.9624 1.3817 3.3441-0.58074z" clip-path="url(#a)" fill="#fff" stroke="#fff"/>
<g clip-path="url(#a)">
<g transform="translate(302.6 110.28) rotate(-54.852) scale(.08 -.08)">
<use xlink:href="#z"/>
</g>
</g>
<path d="m259.34 423.21 1.4067-5.6835q0.57662-2.3297-1.7531-2.9063l-7.5157-1.8602q-2.3297-0.57662-2.9063 1.7531l-1.4067 5.6835q-0.57662 2.3297 1.7531 2.9063l7.5157 1.8602q2.3297 0.57662 2.9063-1.7531z" clip-path="url(#a)" fill="#fff" stroke="#fff"/>
<g clip-path="url(#a)">
<defs>
<path id="q" d="m8.6875 72.906h9.9219v-44.297q0-11.719 4.2344-16.875 4.25-5.1406 13.781-5.1406 9.4688 0 13.719 5.1406 4.25 5.1562 4.25 16.875v44.297h9.9062v-45.516q0-14.25-7.0625-21.531-7.0469-7.2812-20.812-7.2812-13.828 0-20.891 7.2812-7.0469 7.2812-7.0469 21.531z"/>
</defs>
<g transform="translate(255.39 422.24) rotate(-76.098) scale(.08 -.08)">
<use xlink:href="#q"/>
</g>
</g>
<path d="m478.02 418.28 2.0222 5.4947q0.82889 2.2523 3.0812 1.4234l7.2661-2.674q2.2523-0.82889 1.4234-3.0812l-2.0222-5.4947q-0.82889-2.2523-3.0812-1.4234l-7.2661 2.674q-2.2523 0.82889-1.4234 3.0812z" clip-path="url(#a)" fill="#fff" stroke="#fff"/>
<g clip-path="url(#a)">
<g transform="translate(481.83 416.88) rotate(69.796) scale(.08 -.08)">
<use xlink:href="#q"/>
</g>
</g>
<path d="m504.05 418.7 2.3466 5.3642q0.96189 2.1988 3.1607 1.2369l7.0935-3.1031q2.1988-0.96189 1.2369-3.1607l-2.3466-5.3642q-0.96189-2.1988-3.1607-1.2369l-7.0935 3.1031q-2.1988 0.96189-1.2369 3.1607z" clip-path="url(#a)" fill="#fff" stroke="#fff"/>
<g clip-path="url(#a)">
<g transform="translate(507.77 417.07) rotate(66.373) scale(.08 -.08)">
<use xlink:href="#q"/>
</g>
</g>
<path d="m531.29 419.11 2.6603 5.2157q1.0905 2.138 3.2284 1.0475l6.8971-3.518q2.138-1.0905 1.0475-3.2284l-2.6603-5.2157q-1.0905-2.138-3.2284-1.0475l-6.8971 3.518q-2.138 1.0905-1.0475 3.2284z" clip-path="url(#a)" fill="#fff" stroke="#fff"/>
<g clip-path="url(#a)">
<g transform="translate(534.91 417.26) rotate(62.976) scale(.08 -.08)">
<use xlink:href="#q"/>
</g>
</g>
<path d="m76.638 838.32v33.808q0 2.4 2.4 2.4h7.7425q2.4 0 2.4-2.4v-33.808q0-2.4-2.4-2.4h-7.7425q-2.4 0-2.4 2.4z" clip-path="url(#a)" fill="#fff" stroke="#fff"/>
<g clip-path="url(#a)">
<defs>
<path id="l" d="m-0.29688 72.906h61.672v-8.3125h-25.875v-64.594h-9.9062v64.594h-25.891z"/>
<path id="c" d="m56.203 29.594v-4.3906h-41.312q0.59375-9.2812 5.5938-14.141t13.938-4.8594q5.1719 0 10.031 1.2656t9.6562 3.8125v-8.5q-4.8438-2.0469-9.9219-3.125t-10.297-1.0781q-13.094 0-20.734 7.6094-7.6406 7.625-7.6406 20.625 0 13.422 7.25 21.297 7.25 7.8906 19.562 7.8906 11.031 0 17.453-7.1094 6.4219-7.0938 6.4219-19.297zm-8.9844 2.6406q-0.09375 7.3594-4.125 11.75-4.0312 4.4062-10.672 4.4062-7.5156 0-12.031-4.25t-5.2031-11.969z"/>
<path id="g" d="m41.109 46.297q-1.5156 0.875-3.2969 1.2812-1.7812 0.42188-3.9219 0.42188-7.625 0-11.703-4.9531t-4.0781-14.234v-28.812h-9.0312v54.688h9.0312v-8.5q2.8438 4.9844 7.375 7.3906 4.5469 2.4219 11.047 2.4219 0.92188 0 2.0469-0.125 1.125-0.10938 2.4844-0.35938z"/>
<path id="k" d="m52 44.188q3.375 6.0625 8.0625 8.9375t11.031 2.875q8.5469 0 13.188-5.9844 4.6406-5.9688 4.6406-17v-33.016h-9.0312v32.719q0 7.8594-2.7969 11.656-2.7812 3.8125-8.4844 3.8125-6.9844 0-11.047-4.6406-4.0469-4.625-4.0469-12.641v-30.906h-9.0312v32.719q0 7.9062-2.7812 11.688t-8.5938 3.7812q-6.8906 0-10.953-4.6562-4.0469-4.6562-4.0469-12.625v-30.906h-9.0312v54.688h9.0312v-8.5q3.0781 5.0312 7.375 7.4219t10.203 2.3906q5.9688 0 10.141-3.0312 4.1719-3.0156 6.1719-8.7812z"/>
<path id="i" d="m9.4219 54.688h8.9844v-54.688h-8.9844zm0 21.297h8.9844v-11.391h-8.9844z"/>
<path id="f" d="m54.891 33.016v-33.016h-8.9844v32.719q0 7.7656-3.0312 11.609-3.0312 3.8594-9.0781 3.8594-7.2812 0-11.484-4.6406-4.2031-4.625-4.2031-12.641v-30.906h-9.0312v54.688h9.0312v-8.5q3.2344 4.9375 7.5938 7.375 4.375 2.4375 10.094 2.4375 9.4219 0 14.25-5.8281 4.8438-5.8281 4.8438-17.156z"/>
<path id="h" d="m34.281 27.484q-10.891 0-15.094-2.4844t-4.2031-8.5q0-4.7812 3.1562-7.5938 3.1562-2.7969 8.5625-2.7969 7.4844 0 12 5.2969t4.5156 14.078v2zm17.922 3.7188v-31.203h-8.9844v8.2969q-3.0781-4.9688-7.6719-7.3438t-11.234-2.375q-8.3906 0-13.359 4.7188-4.9531 4.7188-4.9531 12.625 0 9.2188 6.1719 13.906 6.1875 4.6875 18.438 4.6875h12.609v0.89062q0 6.2031-4.0781 9.5938t-11.453 3.3906q-4.6875 0-9.1406-1.125-4.4375-1.125-8.5312-3.375v8.3125q4.9219 1.9062 9.5625 2.8438 4.6406 0.95312 9.0312 0.95312 11.875 0 17.734-6.1562 5.8594-6.1406 5.8594-18.641z"/>
<path id="j" d="m9.4219 75.984h8.9844v-75.984h-8.9844z"/>
</defs>
<g transform="translate(80.702 838.32) rotate(90) scale(.08 -.08)">
<use xlink:href="#l"/>
<use x="44.083984" xlink:href="#c"/>
<use x="105.607422" xlink:href="#g"/>
<use x="144.970703" xlink:href="#k"/>
<use x="242.382812" xlink:href="#i"/>
<use x="270.166016" xlink:href="#f"/>
<use x="333.544922" xlink:href="#h"/>
<use x="394.824219" xlink:href="#j"/>
</g>
</g>
<path d="m94.781 735.77 0.58584-6.1321q0.22825-2.3891-2.1609-2.6174l-7.7074-0.73635q-2.3891-0.22825-2.6174 2.1609l-0.58584 6.1321q-0.22825 2.3891 2.1609 2.6174l7.7074 0.73635q2.3891 0.22825 2.6174-2.1609z" clip-path="url(#a)" fill="#fff" stroke="#fff"/>
<g clip-path="url(#a)">
<defs>
<path id="ab" d="m19.672 64.797v-56.688h11.922q15.094 0 22.094 6.8281 7 6.8438 7 21.594 0 14.641-7 21.453t-22.094 6.8125zm-9.8594 8.1094h20.266q21.188 0 31.094-8.8125 9.9219-8.8125 9.9219-27.562 0-18.859-9.9688-27.703-9.9531-8.8281-31.047-8.8281h-20.266z"/>
</defs>
<g transform="translate(90.736 735.38) rotate(-84.543) scale(.08 -.08)">
<use xlink:href="#ab"/>
</g>
</g>
<path d="m96.466 730.22 0.7255 5.4242q0.31817 2.3788 2.697 2.0606l7.6742-1.0264q2.3788-0.31817 2.0606-2.697l-0.7255-5.4242q-0.31817-2.3788-2.697-2.0606l-7.6742 1.0264q-2.3788 0.31817-2.0606 2.697z" clip-path="url(#a)" fill="#fff" stroke="#fff"/>
<g clip-path="url(#a)">
<defs>
<path id="r" d="m34.188 63.188-13.391-36.281h26.812zm-5.5781 9.7188h11.188l27.781-72.906h-10.25l-6.6406 18.703h-32.859l-6.6406-18.703h-10.406z"/>
</defs>
<g transform="translate(100.49 729.68) rotate(82.382) scale(.08 -.08)">
<use xlink:href="#r"/>
</g>
</g>
<path d="m98.559 734.75 0.1842-4.8202q0.091649-2.3982-2.3066-2.4899l-7.7369-0.29566q-2.3982-0.091649-2.4899 2.3066l-0.18421 4.8202q-0.091649 2.3982 2.3066 2.4899l7.7369 0.29566q2.3982 0.09165 2.4899-2.3066z" clip-path="url(#a)" fill="#fff" stroke="#fff"/>
<g clip-path="url(#a)">
<defs>
<path id="v" d="m19.672 64.797v-27.391h12.406q6.8906 0 10.641 3.5625 3.7656 3.5625 3.7656 10.156 0 6.5469-3.7656 10.109-3.75 3.5625-10.641 3.5625zm-9.8594 8.1094h22.266q12.266 0 18.531-5.5469 6.2812-5.5469 6.2812-16.234 0-10.797-6.2812-16.312-6.2656-5.5156-18.531-5.5156h-12.406v-29.297h-9.8594z"/>
</defs>
<g transform="translate(94.498 734.6) rotate(-87.812) scale(.08 -.08)">
<use xlink:href="#v"/>
</g>
</g>
<path d="m211.71 549.28 1.9073-4.4306q0.94897-2.2044-1.2554-3.1534l-7.1115-3.0614q-2.2044-0.94897-3.1534 1.2554l-1.9073 4.4306q-0.94897 2.2044 1.2554 3.1534l7.1115 3.0614q2.2044 0.94897 3.1534-1.2554z" clip-path="url(#a)" fill="#fff" stroke="#fff"/>
<g clip-path="url(#a)">
<g transform="translate(207.97 547.67) rotate(-66.709) scale(.08 -.08)">
<use xlink:href="#v"/>
</g>
</g>
<path d="m217.6 549.48 2.0619-5.0692q0.90426-2.2231-1.3189-3.1274l-7.1719-2.9172q-2.2231-0.90426-3.1274 1.3189l-2.0619 5.0692q-0.90426 2.2231 1.3189 3.1274l7.1719 2.9172q2.2231 0.90426 3.1274-1.3189z" clip-path="url(#a)" fill="#fff" stroke="#fff"/>
<g clip-path="url(#a)">
<g transform="translate(213.84 547.95) rotate(-67.866) scale(.08 -.08)">
<use xlink:href="#r"/>
</g>
</g>
<path d="m224.83 549.36 1.9362-5.1185q0.84913-2.2448-1.3956-3.0939l-7.2417-2.7393q-2.2448-0.84913-3.0939 1.3956l-1.9362 5.1185q-0.84913 2.2448 1.3956 3.0939l7.2417 2.7393q2.2448 0.84913 3.0939-1.3956z" clip-path="url(#a)" fill="#fff" stroke="#fff"/>
<g clip-path="url(#a)">
<g transform="translate(221.02 547.93) rotate(-69.28) scale(.08 -.08)">
<use xlink:href="#r"/>
</g>
</g>
<path d="m233.14 549.54 2.0092-5.8231q0.78281-2.2687-1.4859-3.0516l-7.3191-2.5254q-2.2687-0.78281-3.0516 1.4859l-2.0092 5.8231q-0.78281 2.2687 1.4859 3.0516l7.3191 2.5254q2.2687 0.78281 3.0516-1.4859z" clip-path="url(#a)" fill="#fff" stroke="#fff"/>
<g clip-path="url(#a)">
<g transform="translate(229.3 548.22) rotate(-70.964) scale(.08 -.08)">
<use xlink:href="#ab"/>
</g>
</g>
<path d="m699.97 363.52 5.4029 0.8698q2.3695 0.38145 2.7509-1.988l1.2306-7.6441q0.38145-2.3695-1.988-2.7509l-5.4029-0.8698q-2.3695-0.38145-2.7509 1.988l-1.2306 7.6441q-0.38145 2.3695 1.988 2.7509z" clip-path="url(#a)" fill="#fff" stroke="#fff"/>
<g clip-path="url(#a)">
<g transform="translate(700.62 359.51) rotate(9.1453) scale(.08 -.08)">
<use xlink:href="#r"/>
</g>
</g>
<path d="m176.13 838.32v33.808q0 2.4 2.4 2.4h7.7425q2.4 0 2.4-2.4v-33.808q0-2.4-2.4-2.4h-7.7425q-2.4 0-2.4 2.4z" clip-path="url(#a)" fill="#fff" stroke="#fff"/>
<g clip-path="url(#a)">
<g transform="translate(180.19 838.32) rotate(90) scale(.08 -.08)">
<use xlink:href="#l"/>
<use x="44.083984" xlink:href="#c"/>
<use x="105.607422" xlink:href="#g"/>
<use x="144.970703" xlink:href="#k"/>
<use x="242.382812" xlink:href="#i"/>
<use x="270.166016" xlink:href="#f"/>
<use x="333.544922" xlink:href="#h"/>
<use x="394.824219" xlink:href="#j"/>
</g>
</g>
<path d="m238.21 484.7 0.40129-4.807q0.19966-2.3917-2.192-2.5913l-7.7157-0.6441q-2.3917-0.19966-2.5913 2.192l-0.40129 4.807q-0.19966 2.3917 2.192 2.5913l7.7157 0.6441q2.3917 0.19966 2.5913-2.192z" clip-path="url(#a)" fill="#fff" stroke="#fff"/>
<g clip-path="url(#a)">
<g transform="translate(234.16 484.36) rotate(-85.228) scale(.08 -.08)">
<use xlink:href="#v"/>
</g>
</g>
<path d="m251.34 484.77 0.22835-5.4677q0.10014-2.3979-2.2978-2.4981l-7.7358-0.32307q-2.3979-0.10014-2.4981 2.2978l-0.22835 5.4677q-0.10014 2.3979 2.2978 2.4981l7.7358 0.32307q2.3979 0.10014 2.4981-2.2978z" clip-path="url(#a)" fill="#fff" stroke="#fff"/>
<g clip-path="url(#a)">
<g transform="translate(247.28 484.6) rotate(-87.609) scale(.08 -.08)">
<use xlink:href="#r"/>
</g>
</g>
<path d="m290.58 233.26 2.893 4.6453q1.2687 2.0372 3.306 0.76852l6.5722-4.0929q2.0372-1.2687 0.76852-3.306l-2.893-4.6453q-1.2687-2.0372-3.306-0.76852l-6.5722 4.0929q-2.0372 1.2687-0.76852 3.306z" clip-path="url(#a)" fill="#fff" stroke="#fff"/>
<g clip-path="url(#a)">
<g transform="translate(294.03 231.12) rotate(58.087) scale(.08 -.08)">
<use xlink:href="#r"/>
</g>
</g>
<path d="m199.82 838.32v33.808q0 2.4 2.4 2.4h7.7425q2.4 0 2.4-2.4v-33.808q0-2.4-2.4-2.4h-7.7425q-2.4 0-2.4 2.4z" clip-path="url(#a)" fill="#fff" stroke="#fff"/>
<g clip-path="url(#a)">
<g transform="translate(203.88 838.32) rotate(90) scale(.08 -.08)">
<use xlink:href="#l"/>
<use x="44.083984" xlink:href="#c"/>
<use x="105.607422" xlink:href="#g"/>
<use x="144.970703" xlink:href="#k"/>
<use x="242.382812" xlink:href="#i"/>
<use x="270.166016" xlink:href="#f"/>
<use x="333.544922" xlink:href="#h"/>
<use x="394.824219" xlink:href="#j"/>
</g>
</g>
<path d="m225.87 838.32v33.808q0 2.4 2.4 2.4h7.7425q2.4 0 2.4-2.4v-33.808q0-2.4-2.4-2.4h-7.7425q-2.4 0-2.4 2.4z" clip-path="url(#a)" fill="#fff" stroke="#fff"/>
<g clip-path="url(#a)">
<g transform="translate(229.94 838.32) rotate(90) scale(.08 -.08)">
<use xlink:href="#l"/>
<use x="44.083984" xlink:href="#c"/>
<use x="105.607422" xlink:href="#g"/>
<use x="144.970703" xlink:href="#k"/>
<use x="242.382812" xlink:href="#i"/>
<use x="270.166016" xlink:href="#f"/>
<use x="333.544922" xlink:href="#h"/>
<use x="394.824219" xlink:href="#j"/>
</g>
</g>
<path d="m304.37 547.8 0.69181-4.5489q0.36085-2.3727-2.0119-2.7336l-7.6545-1.1641q-2.3727-0.36085-2.7336 2.0119l-0.69181 4.5489q-0.36085 2.3727 2.0119 2.7336l7.6545 1.1641q2.3727 0.36085 2.7336-2.0119z" clip-path="url(#a)" fill="#fff" stroke="#fff"/>
<g clip-path="url(#a)">
<defs>
<path id="aa" d="m9.8125 72.906h41.891v-8.3125h-32.031v-21.484h28.906v-8.2969h-28.906v-34.812h-9.8594z"/>
</defs>
<g transform="translate(300.35 547.19) rotate(-81.353) scale(.08 -.08)">
<use xlink:href="#aa"/>
</g>
</g>
<path d="m319.91 547.93 0.50278-5.5636q0.21601-2.3903-2.1743-2.6063l-7.7111-0.69685q-2.3903-0.21601-2.6063 2.1743l-0.50278 5.5636q-0.21601 2.3903 2.1743 2.6063l7.7111 0.69685q2.3903 0.21601 2.6063-2.1743z" clip-path="url(#a)" fill="#fff" stroke="#fff"/>
<g clip-path="url(#a)">
<defs>
<path id="af" d="m64.406 67.281v-10.391q-4.9844 4.6406-10.625 6.9219-5.6406 2.2969-11.984 2.2969-12.5 0-19.141-7.6406t-6.6406-22.094q0-14.406 6.6406-22.047t19.141-7.6406q6.3438 0 11.984 2.2969t10.625 6.9375v-10.312q-5.1719-3.5156-10.969-5.2812-5.7812-1.75-12.219-1.75-16.562 0-26.094 10.125-9.5156 10.141-9.5156 27.672 0 17.578 9.5156 27.703 9.5312 10.141 26.094 10.141 6.5312 0 12.312-1.7344 5.7969-1.7344 10.875-5.2031z"/>
</defs>
<g transform="translate(315.86 547.57) rotate(-84.836) scale(.08 -.08)">
<use xlink:href="#af"/>
</g>
</g>
<path d="m390.69 360.3 3.5103 3.6374q1.6666 1.7269 3.3936 0.060316l5.5712-5.3766q1.7269-1.6666 0.060316-3.3936l-3.5103-3.6374q-1.6666-1.7269-3.3936-0.060316l-5.5712 5.3766q-1.7269 1.6666-0.060316 3.3936z" clip-path="url(#a)" fill="#fff" stroke="#fff"/>
<g clip-path="url(#a)">
<defs>
<path id="an" d="m9.8125 72.906h46.094v-8.3125h-36.234v-21.578h34.719v-8.2969h-34.719v-26.422h37.109v-8.2969h-46.969z"/>
</defs>
<g transform="translate(393.61 357.48) rotate(46.018) scale(.08 -.08)">
<use xlink:href="#an"/>
</g>
</g>
<path d="m254.3 838.32v33.808q0 2.4 2.4 2.4h7.7425q2.4 0 2.4-2.4v-33.808q0-2.4-2.4-2.4h-7.7425q-2.4 0-2.4 2.4z" clip-path="url(#a)" fill="#fff" stroke="#fff"/>
<g clip-path="url(#a)">
<g transform="translate(258.36 838.32) rotate(90) scale(.08 -.08)">
<use xlink:href="#l"/>
<use x="44.083984" xlink:href="#c"/>
<use x="105.607422" xlink:href="#g"/>
<use x="144.970703" xlink:href="#k"/>
<use x="242.382812" xlink:href="#i"/>
<use x="270.166016" xlink:href="#f"/>
<use x="333.544922" xlink:href="#h"/>
<use x="394.824219" xlink:href="#j"/>
</g>
</g>
<path d="m285.09 838.32v33.808q0 2.4 2.4 2.4h7.7425q2.4 0 2.4-2.4v-33.808q0-2.4-2.4-2.4h-7.7425q-2.4 0-2.4 2.4z" clip-path="url(#a)" fill="#fff" stroke="#fff"/>
<g clip-path="url(#a)">
<g transform="translate(289.16 838.32) rotate(90) scale(.08 -.08)">
<use xlink:href="#l"/>
<use x="44.083984" xlink:href="#c"/>
<use x="105.607422" xlink:href="#g"/>
<use x="144.970703" xlink:href="#k"/>
<use x="242.382812" xlink:href="#i"/>
<use x="270.166016" xlink:href="#f"/>
<use x="333.544922" xlink:href="#h"/>
<use x="394.824219" xlink:href="#j"/>
</g>
</g>
<path d="m396.13 611.54 1.5421-4.3351q0.80438-2.2612-1.4568-3.0656l-7.2947-2.595q-2.2612-0.80438-3.0656 1.4568l-1.5421 4.3351q-0.80438 2.2612 1.4568 3.0656l7.2947 2.595q2.2612 0.80438 3.0656-1.4568z" clip-path="url(#a)" fill="#fff" stroke="#fff"/>
<g clip-path="url(#a)">
<g transform="translate(392.3 610.18) rotate(-70.418) scale(.08 -.08)">
<use xlink:href="#aa"/>
</g>
</g>
<path d="m459.45 481.32 0.68521 5.0083q0.32532 2.3778 2.7032 2.0525l7.671-1.0495q2.3778-0.32532 2.0525-2.7032l-0.68521-5.0083q-0.32532-2.3778-2.7032-2.0525l-7.671 1.0495q-2.3778 0.32532-2.0525 2.7032z" clip-path="url(#a)" fill="#fff" stroke="#fff"/>
<g clip-path="url(#a)">
<g transform="translate(463.47 480.76) rotate(82.21) scale(.08 -.08)">
<use xlink:href="#an"/>
</g>
</g>
<path d="m508.54 606.46 1.6538 5.3358q0.71052 2.2924 3.0029 1.5819l7.3954-2.2922q2.2924-0.71052 1.5819-3.0029l-1.6538-5.3358q-0.71052-2.2924-3.0029-1.5819l-7.3954 2.2922q-2.2924 0.71052-1.5819 3.0029z" clip-path="url(#a)" fill="#fff" stroke="#fff"/>
<g clip-path="url(#a)">
<g transform="translate(512.42 605.25) rotate(72.779) scale(.08 -.08)">
<use xlink:href="#af"/>
</g>
</g>
<path d="m318.26 838.32v33.808q0 2.4 2.4 2.4h7.7425q2.4 0 2.4-2.4v-33.808q0-2.4-2.4-2.4h-7.7425q-2.4 0-2.4 2.4z" clip-path="url(#a)" fill="#fff" stroke="#fff"/>
<g clip-path="url(#a)">
<g transform="translate(322.32 838.32) rotate(90) scale(.08 -.08)">
<use xlink:href="#l"/>
<use x="44.083984" xlink:href="#c"/>
<use x="105.607422" xlink:href="#g"/>
<use x="144.970703" xlink:href="#k"/>
<use x="242.382812" xlink:href="#i"/>
<use x="270.166016" xlink:href="#f"/>
<use x="333.544922" xlink:href="#h"/>
<use x="394.824219" xlink:href="#j"/>
</g>
</g>
<path d="m517.07 669.56 2.0194 5.0863q0.88563 2.2306 3.1162 1.345l7.1961-2.8571q2.2306-0.88563 1.345-3.1162l-2.0194-5.0863q-0.88563-2.2306-3.1162-1.345l-7.1961 2.8571q-2.2306 0.88563-1.345 3.1162z" clip-path="url(#a)" fill="#fff" stroke="#fff"/>
<g clip-path="url(#a)">
<g transform="translate(520.85 668.06) rotate(68.345) scale(.08 -.08)">
<use xlink:href="#r"/>
</g>
</g>
<path d="m421.72 675.21 2.5769-5.5951q1.004-2.1799-1.1759-3.1839l-7.0325-3.2389q-2.1799-1.004-3.1839 1.1759l-2.5769 5.5951q-1.004 2.1799 1.1759 3.1839l7.0325 3.2389q2.1799 1.004 3.1839-1.1759z" clip-path="url(#a)" fill="#fff" stroke="#fff"/>
<g clip-path="url(#a)">
<g transform="translate(418.03 673.51) rotate(-65.271) scale(.08 -.08)">
<use xlink:href="#ab"/>
</g>
</g>
<path d="m461.98 612.49 1.689-5.9239q0.65806-2.308-1.65-2.9661l-7.4458-2.1229q-2.308-0.65806-2.9661 1.65l-1.689 5.9239q-0.65806 2.308 1.65 2.9661l7.4458 2.1229q2.308 0.65806 2.9661-1.65z" clip-path="url(#a)" fill="#fff" stroke="#fff"/>
<g clip-path="url(#a)">
<g transform="translate(458.07 611.37) rotate(-74.086) scale(.08 -.08)">
<use xlink:href="#ab"/>
</g>
</g>
<path d="m493.59 668.7 0.97533 4.7241q0.48526 2.3504 2.8357 1.8652l7.5826-1.5655q2.3504-0.48526 1.8652-2.8357l-0.97533-4.7241q-0.48526-2.3504-2.8357-1.8652l-7.5826 1.5655q-2.3504 0.48526-1.8652 2.8357z" clip-path="url(#a)" fill="#fff" stroke="#fff"/>
<g clip-path="url(#a)">
<g transform="translate(497.57 667.88) rotate(78.335) scale(.08 -.08)">
<use xlink:href="#v"/>
</g>
</g>
<path d="m566.99 838.32v33.808q0 2.4 2.4 2.4h7.7425q2.4 0 2.4-2.4v-33.808q0-2.4-2.4-2.4h-7.7425q-2.4 0-2.4 2.4z" clip-path="url(#a)" fill="#fff" stroke="#fff"/>
<g clip-path="url(#a)">
<g transform="translate(571.05 838.32) rotate(90) scale(.08 -.08)">
<use xlink:href="#l"/>
<use x="44.083984" xlink:href="#c"/>
<use x="105.607422" xlink:href="#g"/>
<use x="144.970703" xlink:href="#k"/>
<use x="242.382812" xlink:href="#i"/>
<use x="270.166016" xlink:href="#f"/>
<use x="333.544922" xlink:href="#h"/>
<use x="394.824219" xlink:href="#j"/>
</g>
</g>
<path d="m353.79 838.32v33.808q0 2.4 2.4 2.4h7.7425q2.4 0 2.4-2.4v-33.808q0-2.4-2.4-2.4h-7.7425q-2.4 0-2.4 2.4z" clip-path="url(#a)" fill="#fff" stroke="#fff"/>
<g clip-path="url(#a)">
<g transform="translate(357.85 838.32) rotate(90) scale(.08 -.08)">
<use xlink:href="#l"/>
<use x="44.083984" xlink:href="#c"/>
<use x="105.607422" xlink:href="#g"/>
<use x="144.970703" xlink:href="#k"/>
<use x="242.382812" xlink:href="#i"/>
<use x="270.166016" xlink:href="#f"/>
<use x="333.544922" xlink:href="#h"/>
<use x="394.824219" xlink:href="#j"/>
</g>
</g>
<path d="m423.57 736.71 1.7477-5.2769q0.75457-2.2783-1.5237-3.0329l-7.3499-2.4343q-2.2783-0.75456-3.0329 1.5237l-1.7477 5.2769q-0.75457 2.2783 1.5237 3.0329l7.3499 2.4343q2.2783 0.75456 3.0329-1.5237z" clip-path="url(#a)" fill="#fff" stroke="#fff"/>
<g clip-path="url(#a)">
<defs>
<path id="at" d="m44.391 34.188q3.1719-1.0781 6.1719-4.5938t6.0312-9.6719l10.016-19.922h-10.609l-9.3125 18.703q-3.625 7.3281-7.0156 9.7188t-9.25 2.3906h-10.75v-30.812h-9.8594v72.906h22.266q12.5 0 18.656-5.2344 6.1562-5.2188 6.1562-15.766 0-6.8906-3.2031-11.438-3.2031-4.5312-9.2969-6.2812zm-24.719 30.609v-25.875h12.406q7.125 0 10.766 3.2969t3.6406 9.6875-3.6406 9.6406-10.766 3.25z"/>
</defs>
<g transform="translate(419.72 735.44) rotate(-71.675) scale(.08 -.08)">
<use xlink:href="#at"/>
</g>
</g>
<path d="m444.89 734.44 0.029306-4.6012q0.015286-2.4-2.3847-2.4152l-7.7423-0.049312q-2.4-0.015286-2.4152 2.3847l-0.029305 4.6012q-0.015286 2.4 2.3847 2.4152l7.7423 0.049313q2.4 0.015285 2.4152-2.3847z" clip-path="url(#a)" fill="#fff" stroke="#fff"/>
<g clip-path="url(#a)">
<g transform="translate(440.82 734.42) rotate(-89.635) scale(.08 -.08)">
<use xlink:href="#aa"/>
</g>
</g>
<path d="m453.11 731.46 1.7867 5.2928q0.7676 2.2739 3.0415 1.5063l7.3358-2.4763q2.2739-0.7676 1.5063-3.0415l-1.7867-5.2928q-0.7676-2.2739-3.0415-1.5063l-7.3358 2.4763q-2.2739 0.7676-1.5063 3.0415z" clip-path="url(#a)" fill="#fff" stroke="#fff"/>
<g clip-path="url(#a)">
<g transform="translate(456.96 730.16) rotate(71.347) scale(.08 -.08)">
<use xlink:href="#af"/>
</g>
</g>
<path d="m519.61 838.32v33.808q0 2.4 2.4 2.4h7.7425q2.4 0 2.4-2.4v-33.808q0-2.4-2.4-2.4h-7.7425q-2.4 0-2.4 2.4z" clip-path="url(#a)" fill="#fff" stroke="#fff"/>
<g clip-path="url(#a)">
<g transform="translate(523.67 838.32) rotate(90) scale(.08 -.08)">
<use xlink:href="#l"/>
<use x="44.083984" xlink:href="#c"/>
<use x="105.607422" xlink:href="#g"/>
<use x="144.970703" xlink:href="#k"/>
<use x="242.382812" xlink:href="#i"/>
<use x="270.166016" xlink:href="#f"/>
<use x="333.544922" xlink:href="#h"/>
<use x="394.824219" xlink:href="#j"/>
</g>
</g>
<path d="m391.69 838.32v33.808q0 2.4 2.4 2.4h7.7425q2.4 0 2.4-2.4v-33.808q0-2.4-2.4-2.4h-7.7425q-2.4 0-2.4 2.4z" clip-path="url(#a)" fill="#fff" stroke="#fff"/>
<g clip-path="url(#a)">
<g transform="translate(395.76 838.32) rotate(90) scale(.08 -.08)">
<use xlink:href="#l"/>
<use x="44.083984" xlink:href="#c"/>
<use x="105.607422" xlink:href="#g"/>
<use x="144.970703" xlink:href="#k"/>
<use x="242.382812" xlink:href="#i"/>
<use x="270.166016" xlink:href="#f"/>
<use x="333.544922" xlink:href="#h"/>
<use x="394.824219" xlink:href="#j"/>
</g>
</g>
<path d="m431.96 838.32v33.808q0 2.4 2.4 2.4h7.7425q2.4 0 2.4-2.4v-33.808q0-2.4-2.4-2.4h-7.7425q-2.4 0-2.4 2.4z" clip-path="url(#a)" fill="#fff" stroke="#fff"/>
<g clip-path="url(#a)">
<g transform="translate(436.03 838.32) rotate(90) scale(.08 -.08)">
<use xlink:href="#l"/>
<use x="44.083984" xlink:href="#c"/>
<use x="105.607422" xlink:href="#g"/>
<use x="144.970703" xlink:href="#k"/>
<use x="242.382812" xlink:href="#i"/>
<use x="270.166016" xlink:href="#f"/>
<use x="333.544922" xlink:href="#h"/>
<use x="394.824219" xlink:href="#j"/>
</g>
</g>
<path d="m474.6 838.32v33.808q0 2.4 2.4 2.4h7.7425q2.4 0 2.4-2.4v-33.808q0-2.4-2.4-2.4h-7.7425q-2.4 0-2.4 2.4z" clip-path="url(#a)" fill="#fff" stroke="#fff"/>
<g clip-path="url(#a)">
<g transform="translate(478.67 838.32) rotate(90) scale(.08 -.08)">
<use xlink:href="#l"/>
<use x="44.083984" xlink:href="#c"/>
<use x="105.607422" xlink:href="#g"/>
<use x="144.970703" xlink:href="#k"/>
<use x="242.382812" xlink:href="#i"/>
<use x="270.166016" xlink:href="#f"/>
<use x="333.544922" xlink:href="#h"/>
<use x="394.824219" xlink:href="#j"/>
</g>
</g>
<path d="m93.22 838.32v33.808q0 2.4 2.4 2.4h7.7425q2.4 0 2.4-2.4v-33.808q0-2.4-2.4-2.4h-7.7425q-2.4 0-2.4 2.4z" clip-path="url(#a)" fill="#fff" stroke="#fff"/>
<g clip-path="url(#a)">
<g transform="translate(97.283 838.32) rotate(90) scale(.08 -.08)">
<use xlink:href="#l"/>
<use x="44.083984" xlink:href="#c"/>
<use x="105.607422" xlink:href="#g"/>
<use x="144.970703" xlink:href="#k"/>
<use x="242.382812" xlink:href="#i"/>
<use x="270.166016" xlink:href="#f"/>
<use x="333.544922" xlink:href="#h"/>
<use x="394.824219" xlink:href="#j"/>
</g>
</g>
<path d="m105.06 838.32v33.808q0 2.4 2.4 2.4h7.7425q2.4 0 2.4-2.4v-33.808q0-2.4-2.4-2.4h-7.7425q-2.4 0-2.4 2.4z" clip-path="url(#a)" fill="#fff" stroke="#fff"/>
<g clip-path="url(#a)">
<g transform="translate(109.13 838.32) rotate(90) scale(.08 -.08)">
<use xlink:href="#l"/>
<use x="44.083984" xlink:href="#c"/>
<use x="105.607422" xlink:href="#g"/>
<use x="144.970703" xlink:href="#k"/>
<use x="242.382812" xlink:href="#i"/>
<use x="270.166016" xlink:href="#f"/>
<use x="333.544922" xlink:href="#h"/>
<use x="394.824219" xlink:href="#j"/>
</g>
</g>
<path d="m119.28 838.32v33.808q0 2.4 2.4 2.4h7.7425q2.4 0 2.4-2.4v-33.808q0-2.4-2.4-2.4h-7.7425q-2.4 0-2.4 2.4z" clip-path="url(#a)" fill="#fff" stroke="#fff"/>
<g clip-path="url(#a)">
<g transform="translate(123.34 838.32) rotate(90) scale(.08 -.08)">
<use xlink:href="#l"/>
<use x="44.083984" xlink:href="#c"/>
<use x="105.607422" xlink:href="#g"/>
<use x="144.970703" xlink:href="#k"/>
<use x="242.382812" xlink:href="#i"/>
<use x="270.166016" xlink:href="#f"/>
<use x="333.544922" xlink:href="#h"/>
<use x="394.824219" xlink:href="#j"/>
</g>
</g>
<path d="m135.86 838.32v33.808q0 2.4 2.4 2.4h7.7425q2.4 0 2.4-2.4v-33.808q0-2.4-2.4-2.4h-7.7425q-2.4 0-2.4 2.4z" clip-path="url(#a)" fill="#fff" stroke="#fff"/>
<g clip-path="url(#a)">
<g transform="translate(139.92 838.32) rotate(90) scale(.08 -.08)">
<use xlink:href="#l"/>
<use x="44.083984" xlink:href="#c"/>
<use x="105.607422" xlink:href="#g"/>
<use x="144.970703" xlink:href="#k"/>
<use x="242.382812" xlink:href="#i"/>
<use x="270.166016" xlink:href="#f"/>
<use x="333.544922" xlink:href="#h"/>
<use x="394.824219" xlink:href="#j"/>
</g>
</g>
<path d="m943.18 612.97 2.8275-3.446q1.5224-1.8554-0.33299-3.3777l-5.9855-4.9112q-1.8554-1.5224-3.3777 0.33299l-2.8275 3.446q-1.5224 1.8554 0.33299 3.3777l5.9855 4.9112q1.8554 1.5224 3.3777-0.33299z" clip-path="url(#a)" fill="#fff" stroke="#fff"/>
<g clip-path="url(#a)">
<g transform="translate(940.04 610.39) rotate(-50.63) scale(.08 -.08)">
<use xlink:href="#ae"/>
</g>
</g>
<path d="m1029.5 489.59 4.3565-4.1493q1.7379-1.6552 0.082656-3.3931l-5.3398-5.6065q-1.6552-1.7379-3.3931-0.082655l-4.3565 4.1493q-1.7379 1.6552-0.082656 3.3931l5.3398 5.6065q1.6552 1.7379 3.3931 0.082655z" clip-path="url(#a)" fill="#fff" stroke="#fff"/>
<g clip-path="url(#a)">
<g transform="translate(1026.7 486.64) rotate(-43.605) scale(.08 -.08)">
<use xlink:href="#z"/>
</g>
</g>
<path d="m1128.6 606.47 0.9807 4.3483q0.52803 2.3412 2.8692 1.8132l7.5528-1.7034q2.3412-0.52803 1.8132-2.8692l-0.9807-4.3483q-0.52803-2.3412-2.8692-1.8132l-7.5528 1.7034q-2.3412 0.52803-1.8132 2.8692z" clip-path="url(#a)" fill="#fff" stroke="#fff"/>
<g clip-path="url(#a)">
<g transform="translate(1132.5 605.58) rotate(77.29) scale(.08 -.08)">
<use xlink:href="#ae"/>
</g>
</g>
<path d="m1257.1 548.56 4.8512 3.5582q1.9353 1.4194 3.3547-0.51582l4.5792-6.2432q1.4194-1.9353-0.51581-3.3547l-4.8512-3.5582q-1.9353-1.4194-3.3547 0.51581l-4.5792 6.2432q-1.4194 1.9353 0.51582 3.3547z" clip-path="url(#a)" fill="#fff" stroke="#fff"/>
<g clip-path="url(#a)">
<g transform="translate(1259.5 545.28) rotate(36.259) scale(.08 -.08)">
<use xlink:href="#z"/>
</g>
</g>
<path d="m1093.3 604.56 0.20681 5.8513q0.084774 2.3985 2.4833 2.3137l7.7377-0.27348q2.3985-0.084773 2.3137-2.4833l-0.20681-5.8513q-0.084774-2.3985-2.4833-2.3137l-7.7377 0.27348q-2.3985 0.084773-2.3137 2.4833z" clip-path="url(#a)" fill="#fff" stroke="#fff"/>
<g clip-path="url(#a)">
<g transform="translate(1097.3 604.42) rotate(87.976) scale(.08 -.08)">
<use xlink:href="#q"/>
</g>
</g>
<path d="m780.18 838.32v33.808q0 2.4 2.4 2.4h7.7425q2.4 0 2.4-2.4v-33.808q0-2.4-2.4-2.4h-7.7425q-2.4 0-2.4 2.4z" clip-path="url(#a)" fill="#fff" stroke="#fff"/>
<g clip-path="url(#a)">
<g transform="translate(784.24 838.32) rotate(90) scale(.08 -.08)">
<use xlink:href="#l"/>
<use x="44.083984" xlink:href="#c"/>
<use x="105.607422" xlink:href="#g"/>
<use x="144.970703" xlink:href="#k"/>
<use x="242.382812" xlink:href="#i"/>
<use x="270.166016" xlink:href="#f"/>
<use x="333.544922" xlink:href="#h"/>
<use x="394.824219" xlink:href="#j"/>
</g>
</g>
<path d="m922.74 613.61 3.0905-4.5163q1.3553-1.9807-0.62533-3.336l-6.3897-4.3724q-1.9807-1.3553-3.336 0.62533l-3.0905 4.5163q-1.3553 1.9807 0.62533 3.336l6.3897 4.3724q1.9807 1.3553 3.336-0.62533z" clip-path="url(#a)" fill="#fff" stroke="#fff"/>
<g clip-path="url(#a)">
<g transform="translate(919.38 611.31) rotate(-55.617) scale(.08 -.08)">
<use xlink:href="#r"/>
</g>
</g>
<path d="m960.11 667.3 0.20843 5.4685q0.09141 2.3983 2.4897 2.3068l7.7369-0.29489q2.3983-0.09141 2.3068-2.4897l-0.20843-5.4685q-0.09141-2.3983-2.4897-2.3068l-7.7369 0.29489q-2.3983 0.09141-2.3068 2.4897z" clip-path="url(#a)" fill="#fff" stroke="#fff"/>
<g clip-path="url(#a)">
<g transform="translate(964.17 667.14) rotate(87.817) scale(.08 -.08)">
<use xlink:href="#r"/>
</g>
</g>
<path d="m992.94 669.31 1.4069 4.614q0.69999 2.2956 2.9956 1.5957l7.4059-2.2582q2.2956-0.69999 1.5957-2.9956l-1.4069-4.614q-0.69999-2.2956-2.9956-1.5957l-7.4059 2.2582q-2.2957 0.69999-1.5957 2.9956z" clip-path="url(#a)" fill="#fff" stroke="#fff"/>
<g clip-path="url(#a)">
<g transform="translate(996.83 668.13) rotate(73.042) scale(.08 -.08)">
<use xlink:href="#v"/>
</g>
</g>
<path d="m1171 838.32v33.808q0 2.4 2.4 2.4h7.7425q2.4 0 2.4-2.4v-33.808q0-2.4-2.4-2.4h-7.7425q-2.4 0-2.4 2.4z" clip-path="url(#a)" fill="#fff" stroke="#fff"/>
<g clip-path="url(#a)">
<g transform="translate(1175.1 838.32) rotate(90) scale(.08 -.08)">
<use xlink:href="#l"/>
<use x="44.083984" xlink:href="#c"/>
<use x="105.607422" xlink:href="#g"/>
<use x="144.970703" xlink:href="#k"/>
<use x="242.382812" xlink:href="#i"/>
<use x="270.166016" xlink:href="#f"/>
<use x="333.544922" xlink:href="#h"/>
<use x="394.824219" xlink:href="#j"/>
</g>
</g>
<path d="m1343 739.03 5.1293-3.4806q1.9859-1.3476 0.63832-3.3335l-4.3475-6.4067q-1.3476-1.9859-3.3335-0.63832l-5.1293 3.4806q-1.9859 1.3476-0.63832 3.3335l4.3475 6.4067q1.3476 1.9859 3.3335 0.63832z" clip-path="url(#a)" fill="#fff" stroke="#fff"/>
<g clip-path="url(#a)">
<defs>
<path id="av" d="m59.516 10.406v19.578h-16.109v8.1094h25.875v-31.312q-5.7031-4.0469-12.594-6.125-6.875-2.0781-14.688-2.0781-17.094 0-26.75 9.9844-9.6406 10-9.6406 27.812 0 17.875 9.6406 27.859 9.6562 9.9844 26.75 9.9844 7.125 0 13.547-1.7656 6.4219-1.75 11.844-5.1719v-10.5q-5.4688 4.6406-11.625 6.9844t-12.938 2.3438q-13.391 0-20.109-7.4688-6.7031-7.4688-6.7031-22.266 0-14.75 6.7031-22.219 6.7188-7.4688 20.109-7.4688 5.2188 0 9.3125 0.90625 4.1094 0.90625 7.375 2.8125z"/>
</defs>
<g transform="translate(1340.8 735.67) rotate(-34.16) scale(.08 -.08)">
<use xlink:href="#av"/>
</g>
</g>
<path d="m1382.7 738.53 4.0225-4.6653q1.5672-1.8176-0.25042-3.3849l-5.8638-5.0559q-1.8176-1.5672-3.3849 0.25042l-4.0225 4.6653q-1.5672 1.8176 0.25042 3.3849l5.8638 5.0559q1.8176 1.5672 3.3849-0.25042z" clip-path="url(#a)" fill="#fff" stroke="#fff"/>
<g clip-path="url(#a)">
<g transform="translate(1379.7 735.88) rotate(-49.231) scale(.08 -.08)">
<use xlink:href="#ab"/>
</g>
</g>
<path d="m1424.6 736.19 1.2351-5.3313q0.54168-2.3381-1.7964-2.8798l-7.5427-1.7475q-2.3381-0.54168-2.8798 1.7964l-1.2351 5.3313q-0.54168 2.3381 1.7964 2.8798l7.5427 1.7475q2.3381 0.54168 2.8798-1.7964z" clip-path="url(#a)" fill="#fff" stroke="#fff"/>
<g clip-path="url(#a)">
<g transform="translate(1420.6 735.27) rotate(-76.956) scale(.08 -.08)">
<use xlink:href="#r"/>
</g>
</g>
<path d="m1235.1 738.81 4.6033-1.4415q2.2903-0.71722 1.5731-3.0075l-2.3138-7.3887q-0.71722-2.2903-3.0075-1.5731l-4.6033 1.4415q-2.2903 0.71722-1.5731 3.0075l2.3138 7.3887q0.71722 2.2903 3.0075 1.5731z" clip-path="url(#a)" fill="#fff" stroke="#fff"/>
<g clip-path="url(#a)">
<g transform="translate(1233.9 734.93) rotate(-17.388) scale(.08 -.08)">
<use xlink:href="#v"/>
</g>
</g>
<path d="m1452.4 731.82 2.258 5.4021q0.92555 2.2144 3.1399 1.2888l7.1436-2.9859q2.2144-0.92555 1.2888-3.1399l-2.258-5.4021q-0.92555-2.2144-3.1399-1.2888l-7.1436 2.9859q-2.2144 0.92555-1.2888 3.1399z" clip-path="url(#a)" fill="#fff" stroke="#fff"/>
<g clip-path="url(#a)">
<g transform="translate(1456.2 730.25) rotate(67.316) scale(.08 -.08)">
<use xlink:href="#q"/>
</g>
</g>
<path d="m1494.4 734.74 4.3085 3.9646q1.7661 1.6251 3.3912-0.14096l5.2427-5.6974q1.6251-1.7661-0.14096-3.3912l-4.3085-3.9646q-1.7661-1.6251-3.3912 0.14096l-5.2427 5.6974q-1.6251 1.7661 0.14096 3.3912z" clip-path="url(#a)" fill="#fff" stroke="#fff"/>
<g clip-path="url(#a)">
<g transform="translate(1497.2 731.75) rotate(42.62) scale(.08 -.08)">
<use xlink:href="#q"/>
</g>
</g>
<path d="m1537.8 736.13 5.1009 2.8744q2.0909 1.1782 3.2691-0.91266l3.801-6.7453q1.1782-2.0909-0.91266-3.2691l-5.1009-2.8744q-2.0909-1.1782-3.2691 0.91266l-3.801 6.7453q-1.1782 2.0909 0.91266 3.2691z" clip-path="url(#a)" fill="#fff" stroke="#fff"/>
<g clip-path="url(#a)">
<g transform="translate(1539.8 732.59) rotate(29.401) scale(.08 -.08)">
<use xlink:href="#q"/>
</g>
</g>
<path d="m1582.2 736.83 5.4307 2.1884q2.2261 0.89703 3.1231-1.329l2.8939-7.1814q0.89703-2.2261-1.329-3.1231l-5.4307-2.1884q-2.2261-0.89703-3.1231 1.329l-2.8939 7.1814q-0.89703 2.2261 1.329 3.1231z" clip-path="url(#a)" fill="#fff" stroke="#fff"/>
<g clip-path="url(#a)">
<g transform="translate(1583.7 733.06) rotate(21.948) scale(.08 -.08)">
<use xlink:href="#q"/>
</g>
</g>
<path d="m1244.5 838.32v33.808q0 2.4 2.4 2.4h7.7425q2.4 0 2.4-2.4v-33.808q0-2.4-2.4-2.4h-7.7425q-2.4 0-2.4 2.4z" clip-path="url(#a)" fill="#fff" stroke="#fff"/>
<g clip-path="url(#a)">
<g transform="translate(1248.5 838.32) rotate(90) scale(.08 -.08)">
<use xlink:href="#l"/>
<use x="44.083984" xlink:href="#c"/>
<use x="105.607422" xlink:href="#g"/>
<use x="144.970703" xlink:href="#k"/>
<use x="242.382812" xlink:href="#i"/>
<use x="270.166016" xlink:href="#f"/>
<use x="333.544922" xlink:href="#h"/>
<use x="394.824219" xlink:href="#j"/>
</g>
</g>
<path d="m1320.3 838.32v33.808q0 2.4 2.4 2.4h7.7425q2.4 0 2.4-2.4v-33.808q0-2.4-2.4-2.4h-7.7425q-2.4 0-2.4 2.4z" clip-path="url(#a)" fill="#fff" stroke="#fff"/>
<g clip-path="url(#a)">
<g transform="translate(1324.3 838.32) rotate(90) scale(.08 -.08)">
<use xlink:href="#l"/>
<use x="44.083984" xlink:href="#c"/>
<use x="105.607422" xlink:href="#g"/>
<use x="144.970703" xlink:href="#k"/>
<use x="242.382812" xlink:href="#i"/>
<use x="270.166016" xlink:href="#f"/>
<use x="333.544922" xlink:href="#h"/>
<use x="394.824219" xlink:href="#j"/>
</g>
</g>
<path d="m1398.4 838.32v33.808q0 2.4 2.4 2.4h7.7425q2.4 0 2.4-2.4v-33.808q0-2.4-2.4-2.4h-7.7425q-2.4 0-2.4 2.4z" clip-path="url(#a)" fill="#fff" stroke="#fff"/>
<g clip-path="url(#a)">
<g transform="translate(1402.5 838.32) rotate(90) scale(.08 -.08)">
<use xlink:href="#l"/>
<use x="44.083984" xlink:href="#c"/>
<use x="105.607422" xlink:href="#g"/>
<use x="144.970703" xlink:href="#k"/>
<use x="242.382812" xlink:href="#i"/>
<use x="270.166016" xlink:href="#f"/>
<use x="333.544922" xlink:href="#h"/>
<use x="394.824219" xlink:href="#j"/>
</g>
</g>
<path d="m866.6 735.85 1.1092-4.4655q0.57857-2.3292-1.7506-2.9078l-7.5142-1.8665q-2.3292-0.57857-2.9078 1.7506l-1.1092 4.4655q-0.57857 2.3292 1.7506 2.9078l7.5142 1.8665q2.3292 0.57857 2.9078-1.7506z" clip-path="url(#a)" fill="#fff" stroke="#fff"/>
<g clip-path="url(#a)">
<g transform="translate(862.66 734.87) rotate(-76.05) scale(.08 -.08)">
<use xlink:href="#aa"/>
</g>
</g>
<path d="m885.11 730.91 1.3467 5.4215q0.57857 2.3292 2.9078 1.7506l7.5142-1.8665q2.3292-0.57857 1.7506-2.9078l-1.3467-5.4215q-0.57857-2.3292-2.9078-1.7506l-7.5142 1.8665q-2.3292 0.57857-1.7506 2.9078z" clip-path="url(#a)" fill="#fff" stroke="#fff"/>
<g clip-path="url(#a)">
<g transform="translate(889.05 729.93) rotate(76.05) scale(.08 -.08)">
<use xlink:href="#af"/>
</g>
</g>
<path d="m964.95 838.32v33.808q0 2.4 2.4 2.4h7.7425q2.4 0 2.4-2.4v-33.808q0-2.4-2.4-2.4h-7.7425q-2.4 0-2.4 2.4z" clip-path="url(#a)" fill="#fff" stroke="#fff"/>
<g clip-path="url(#a)">
<g transform="translate(969.01 838.32) rotate(90) scale(.08 -.08)">
<use xlink:href="#l"/>
<use x="44.083984" xlink:href="#c"/>
<use x="105.607422" xlink:href="#g"/>
<use x="144.970703" xlink:href="#k"/>
<use x="242.382812" xlink:href="#i"/>
<use x="270.166016" xlink:href="#f"/>
<use x="333.544922" xlink:href="#h"/>
<use x="394.824219" xlink:href="#j"/>
</g>
</g>
<path d="m1031.3 838.32v33.808q0 2.4 2.4 2.4h7.7425q2.4 0 2.4-2.4v-33.808q0-2.4-2.4-2.4h-7.7425q-2.4 0-2.4 2.4z" clip-path="url(#a)" fill="#fff" stroke="#fff"/>
<g clip-path="url(#a)">
<g transform="translate(1035.3 838.32) rotate(90) scale(.08 -.08)">
<use xlink:href="#l"/>
<use x="44.083984" xlink:href="#c"/>
<use x="105.607422" xlink:href="#g"/>
<use x="144.970703" xlink:href="#k"/>
<use x="242.382812" xlink:href="#i"/>
<use x="270.166016" xlink:href="#f"/>
<use x="333.544922" xlink:href="#h"/>
<use x="394.824219" xlink:href="#j"/>
</g>
</g>
<path d="m839.4 838.32v33.808q0 2.4 2.4 2.4h7.7425q2.4 0 2.4-2.4v-33.808q0-2.4-2.4-2.4h-7.7425q-2.4 0-2.4 2.4z" clip-path="url(#a)" fill="#fff" stroke="#fff"/>
<g clip-path="url(#a)">
<g transform="translate(843.47 838.32) rotate(90) scale(.08 -.08)">
<use xlink:href="#l"/>
<use x="44.083984" xlink:href="#c"/>
<use x="105.607422" xlink:href="#g"/>
<use x="144.970703" xlink:href="#k"/>
<use x="242.382812" xlink:href="#i"/>
<use x="270.166016" xlink:href="#f"/>
<use x="333.544922" xlink:href="#h"/>
<use x="394.824219" xlink:href="#j"/>
</g>
</g>
<path d="m900.99 838.32v33.808q0 2.4 2.4 2.4h7.7425q2.4 0 2.4-2.4v-33.808q0-2.4-2.4-2.4h-7.7425q-2.4 0-2.4 2.4z" clip-path="url(#a)" fill="#fff" stroke="#fff"/>
<g clip-path="url(#a)">
<g transform="translate(905.05 838.32) rotate(90) scale(.08 -.08)">
<use xlink:href="#l"/>
<use x="44.083984" xlink:href="#c"/>
<use x="105.607422" xlink:href="#g"/>
<use x="144.970703" xlink:href="#k"/>
<use x="242.382812" xlink:href="#i"/>
<use x="270.166016" xlink:href="#f"/>
<use x="333.544922" xlink:href="#h"/>
<use x="394.824219" xlink:href="#j"/>
</g>
</g>
<path d="m83.744 838.32v33.808q0 2.4 2.4 2.4h7.7425q2.4 0 2.4-2.4v-33.808q0-2.4-2.4-2.4h-7.7425q-2.4 0-2.4 2.4z" clip-path="url(#a)" fill="#fff" stroke="#fff"/>
<g clip-path="url(#a)">
<g transform="translate(87.808 838.32) rotate(90) scale(.08 -.08)">
<use xlink:href="#l"/>
<use x="44.083984" xlink:href="#c"/>
<use x="105.607422" xlink:href="#g"/>
<use x="144.970703" xlink:href="#k"/>
<use x="242.382812" xlink:href="#i"/>
<use x="270.166016" xlink:href="#f"/>
<use x="333.544922" xlink:href="#h"/>
<use x="394.824219" xlink:href="#j"/>
</g>
</g>
<path d="m154.81 838.32v33.808q0 2.4 2.4 2.4h7.7425q2.4 0 2.4-2.4v-33.808q0-2.4-2.4-2.4h-7.7425q-2.4 0-2.4 2.4z" clip-path="url(#a)" fill="#fff" stroke="#fff"/>
<g clip-path="url(#a)">
<g transform="translate(158.87 838.32) rotate(90) scale(.08 -.08)">
<use xlink:href="#l"/>
<use x="44.083984" xlink:href="#c"/>
<use x="105.607422" xlink:href="#g"/>
<use x="144.970703" xlink:href="#k"/>
<use x="242.382812" xlink:href="#i"/>
<use x="270.166016" xlink:href="#f"/>
<use x="333.544922" xlink:href="#h"/>
<use x="394.824219" xlink:href="#j"/>
</g>
</g>
<path d="m616.73 838.32v33.808q0 2.4 2.4 2.4h7.7425q2.4 0 2.4-2.4v-33.808q0-2.4-2.4-2.4h-7.7425q-2.4 0-2.4 2.4z" clip-path="url(#a)" fill="#fff" stroke="#fff"/>
<g clip-path="url(#a)">
<g transform="translate(620.8 838.32) rotate(90) scale(.08 -.08)">
<use xlink:href="#l"/>
<use x="44.083984" xlink:href="#c"/>
<use x="105.607422" xlink:href="#g"/>
<use x="144.970703" xlink:href="#k"/>
<use x="242.382812" xlink:href="#i"/>
<use x="270.166016" xlink:href="#f"/>
<use x="333.544922" xlink:href="#h"/>
<use x="394.824219" xlink:href="#j"/>
</g>
</g>
<path d="m668.85 838.32v33.808q0 2.4 2.4 2.4h7.7425q2.4 0 2.4-2.4v-33.808q0-2.4-2.4-2.4h-7.7425q-2.4 0-2.4 2.4z" clip-path="url(#a)" fill="#fff" stroke="#fff"/>
<g clip-path="url(#a)">
<g transform="translate(672.91 838.32) rotate(90) scale(.08 -.08)">
<use xlink:href="#l"/>
<use x="44.083984" xlink:href="#c"/>
<use x="105.607422" xlink:href="#g"/>
<use x="144.970703" xlink:href="#k"/>
<use x="242.382812" xlink:href="#i"/>
<use x="270.166016" xlink:href="#f"/>
<use x="333.544922" xlink:href="#h"/>
<use x="394.824219" xlink:href="#j"/>
</g>
</g>
<path d="m723.33 838.32v33.808q0 2.4 2.4 2.4h7.7425q2.4 0 2.4-2.4v-33.808q0-2.4-2.4-2.4h-7.7425q-2.4 0-2.4 2.4z" clip-path="url(#a)" fill="#fff" stroke="#fff"/>
<g clip-path="url(#a)">
<g transform="translate(727.39 838.32) rotate(90) scale(.08 -.08)">
<use xlink:href="#l"/>
<use x="44.083984" xlink:href="#c"/>
<use x="105.607422" xlink:href="#g"/>
<use x="144.970703" xlink:href="#k"/>
<use x="242.382812" xlink:href="#i"/>
<use x="270.166016" xlink:href="#f"/>
<use x="333.544922" xlink:href="#h"/>
<use x="394.824219" xlink:href="#j"/>
</g>
</g>
<path d="m1100 838.32v33.808q0 2.4 2.4 2.4h7.7425q2.4 0 2.4-2.4v-33.808q0-2.4-2.4-2.4h-7.7425q-2.4 0-2.4 2.4z" clip-path="url(#a)" fill="#fff" stroke="#fff"/>
<g clip-path="url(#a)">
<g transform="translate(1104 838.32) rotate(90) scale(.08 -.08)">
<use xlink:href="#l"/>
<use x="44.083984" xlink:href="#c"/>
<use x="105.607422" xlink:href="#g"/>
<use x="144.970703" xlink:href="#k"/>
<use x="242.382812" xlink:href="#i"/>
<use x="270.166016" xlink:href="#f"/>
<use x="333.544922" xlink:href="#h"/>
<use x="394.824219" xlink:href="#j"/>
</g>
</g>
<path d="m1479 838.32v33.808q0 2.4 2.4 2.4h7.7425q2.4 0 2.4-2.4v-33.808q0-2.4-2.4-2.4h-7.7425q-2.4 0-2.4 2.4z" clip-path="url(#a)" fill="#fff" stroke="#fff"/>
<g clip-path="url(#a)">
<g transform="translate(1483 838.32) rotate(90) scale(.08 -.08)">
<use xlink:href="#l"/>
<use x="44.083984" xlink:href="#c"/>
<use x="105.607422" xlink:href="#g"/>
<use x="144.970703" xlink:href="#k"/>
<use x="242.382812" xlink:href="#i"/>
<use x="270.166016" xlink:href="#f"/>
<use x="333.544922" xlink:href="#h"/>
<use x="394.824219" xlink:href="#j"/>
</g>
</g>
<path d="m1561.9 838.32v33.808q0 2.4 2.4 2.4h7.7425q2.4 0 2.4-2.4v-33.808q0-2.4-2.4-2.4h-7.7425q-2.4 0-2.4 2.4z" clip-path="url(#a)" fill="#fff" stroke="#fff"/>
<g clip-path="url(#a)">
<g transform="translate(1566 838.32) rotate(90) scale(.08 -.08)">
<use xlink:href="#l"/>
<use x="44.083984" xlink:href="#c"/>
<use x="105.607422" xlink:href="#g"/>
<use x="144.970703" xlink:href="#k"/>
<use x="242.382812" xlink:href="#i"/>
<use x="270.166016" xlink:href="#f"/>
<use x="333.544922" xlink:href="#h"/>
<use x="394.824219" xlink:href="#j"/>
</g>
</g>
<path d="m1647.2 838.32v33.808q0 2.4 2.4 2.4h7.7425q2.4 0 2.4-2.4v-33.808q0-2.4-2.4-2.4h-7.7425q-2.4 0-2.4 2.4z" clip-path="url(#a)" fill="#fff" stroke="#fff"/>
<g clip-path="url(#a)">
<g transform="translate(1651.2 838.32) rotate(90) scale(.08 -.08)">
<use xlink:href="#l"/>
<use x="44.083984" xlink:href="#c"/>
<use x="105.607422" xlink:href="#g"/>
<use x="144.970703" xlink:href="#k"/>
<use x="242.382812" xlink:href="#i"/>
<use x="270.166016" xlink:href="#f"/>
<use x="333.544922" xlink:href="#h"/>
<use x="394.824219" xlink:href="#j"/>
</g>
</g>
<path d="m1734.8 838.32v33.808q0 2.4 2.4 2.4h7.7425q2.4 0 2.4-2.4v-33.808q0-2.4-2.4-2.4h-7.7425q-2.4 0-2.4 2.4z" clip-path="url(#a)" fill="#fff" stroke="#fff"/>
<g clip-path="url(#a)">
<g transform="translate(1738.9 838.32) rotate(90) scale(.08 -.08)">
<use xlink:href="#l"/>
<use x="44.083984" xlink:href="#c"/>
<use x="105.607422" xlink:href="#g"/>
<use x="144.970703" xlink:href="#k"/>
<use x="242.382812" xlink:href="#i"/>
<use x="270.166016" xlink:href="#f"/>
<use x="333.544922" xlink:href="#h"/>
<use x="394.824219" xlink:href="#j"/>
</g>
</g>
<defs>
<path id="b" d="m0 8.6603c2.2967 0 4.4997-0.9125 6.1237-2.5365 1.624-1.624 2.5365-3.827 2.5365-6.1237s-0.9125-4.4997-2.5365-6.1237c-1.624-1.624-3.827-2.5365-6.1237-2.5365s-4.4997 0.9125-6.1237 2.5365c-1.624 1.624-2.5365 3.827-2.5365 6.1237s0.9125 4.4997 2.5365 6.1237c1.624 1.624 3.827 2.5365 6.1237 2.5365z"/>
</defs>
<g clip-path="url(#a)">
<use x="82.909091" y="916.363636" fill="#ffffff" stroke="#ffffff" xlink:href="#b"/>
</g>
<g clip-path="url(#a)">
<use x="90.015584" y="916.363636" fill="#ffffff" stroke="#ffffff" xlink:href="#b"/>
</g>
<g clip-path="url(#a)">
<use x="99.490909" y="916.363636" fill="#ffffff" stroke="#ffffff" xlink:href="#b"/>
</g>
<g clip-path="url(#a)">
<use x="111.335065" y="916.363636" fill="#ffffff" stroke="#ffffff" xlink:href="#b"/>
</g>
<g clip-path="url(#a)">
<use x="125.548052" y="916.363636" fill="#ffffff" stroke="#ffffff" xlink:href="#b"/>
</g>
<g clip-path="url(#a)">
<use x="142.12987" y="916.363636" fill="#ffffff" stroke="#ffffff" xlink:href="#b"/>
</g>
<g clip-path="url(#a)">
<use x="161.080519" y="916.363636" fill="#ffffff" stroke="#ffffff" xlink:href="#b"/>
</g>
<g clip-path="url(#a)">
<use x="182.4" y="916.363636" fill="#ffffff" stroke="#ffffff" xlink:href="#b"/>
</g>
<g clip-path="url(#a)">
<use x="206.088312" y="916.363636" fill="#ffffff" stroke="#ffffff" xlink:href="#b"/>
</g>
<g clip-path="url(#a)">
<use x="232.145455" y="916.363636" fill="#ffffff" stroke="#ffffff" xlink:href="#b"/>
</g>
<g clip-path="url(#a)">
<use x="260.571429" y="916.363636" fill="#ffffff" stroke="#ffffff" xlink:href="#b"/>
</g>
<g clip-path="url(#a)">
<use x="291.366234" y="916.363636" fill="#ffffff" stroke="#ffffff" xlink:href="#b"/>
</g>
<g clip-path="url(#a)">
<use x="324.52987" y="916.363636" fill="#ffffff" stroke="#ffffff" xlink:href="#b"/>
</g>
<g clip-path="url(#a)">
<use x="360.062338" y="916.363636" fill="#ffffff" stroke="#ffffff" xlink:href="#b"/>
</g>
<g clip-path="url(#a)">
<use x="397.963636" y="916.363636" fill="#ffffff" stroke="#ffffff" xlink:href="#b"/>
</g>
<g clip-path="url(#a)">
<use x="438.233766" y="916.363636" fill="#ffffff" stroke="#ffffff" xlink:href="#b"/>
</g>
<g clip-path="url(#a)">
<use x="480.872727" y="916.363636" fill="#ffffff" stroke="#ffffff" xlink:href="#b"/>
</g>
<g clip-path="url(#a)">
<use x="525.880519" y="916.363636" fill="#ffffff" stroke="#ffffff" xlink:href="#b"/>
</g>
<g clip-path="url(#a)">
<use x="573.257143" y="916.363636" fill="#ffffff" stroke="#ffffff" xlink:href="#b"/>
</g>
<g clip-path="url(#a)">
<use x="623.002597" y="916.363636" fill="#ffffff" stroke="#ffffff" xlink:href="#b"/>
</g>
<g clip-path="url(#a)">
<use x="675.116883" y="916.363636" fill="#ffffff" stroke="#ffffff" xlink:href="#b"/>
</g>
<g clip-path="url(#a)">
<use x="729.6" y="916.363636" fill="#ffffff" stroke="#ffffff" xlink:href="#b"/>
</g>
<g clip-path="url(#a)">
<use x="786.451948" y="916.363636" fill="#ffffff" stroke="#ffffff" xlink:href="#b"/>
</g>
<g clip-path="url(#a)">
<use x="845.672727" y="916.363636" fill="#ffffff" stroke="#ffffff" xlink:href="#b"/>
</g>
<g clip-path="url(#a)">
<use x="907.262338" y="916.363636" fill="#ffffff" stroke="#ffffff" xlink:href="#b"/>
</g>
<g clip-path="url(#a)">
<use x="971.220779" y="916.363636" fill="#ffffff" stroke="#ffffff" xlink:href="#b"/>
</g>
<g clip-path="url(#a)">
<use x="1037.548052" y="916.363636" fill="#ffffff" stroke="#ffffff" xlink:href="#b"/>
</g>
<g clip-path="url(#a)">
<use x="1106.244156" y="916.363636" fill="#ffffff" stroke="#ffffff" xlink:href="#b"/>
</g>
<g clip-path="url(#a)">
<use x="1177.309091" y="916.363636" fill="#ffffff" stroke="#ffffff" xlink:href="#b"/>
</g>
<g clip-path="url(#a)">
<use x="1250.742857" y="916.363636" fill="#ffffff" stroke="#ffffff" xlink:href="#b"/>
</g>
<g clip-path="url(#a)">
<use x="1326.545455" y="916.363636" fill="#ffffff" stroke="#ffffff" xlink:href="#b"/>
</g>
<g clip-path="url(#a)">
<use x="1404.716883" y="916.363636" fill="#ffffff" stroke="#ffffff" xlink:href="#b"/>
</g>
<g clip-path="url(#a)">
<use x="1485.257143" y="916.363636" fill="#ffffff" stroke="#ffffff" xlink:href="#b"/>
</g>
<g clip-path="url(#a)">
<use x="1568.166234" y="916.363636" fill="#ffffff" stroke="#ffffff" xlink:href="#b"/>
</g>
<g clip-path="url(#a)">
<use x="1653.444156" y="916.363636" fill="#ffffff" stroke="#ffffff" xlink:href="#b"/>
</g>
<g clip-path="url(#a)">
<use x="1741.090909" y="916.363636" fill="#ffffff" stroke="#ffffff" xlink:href="#b"/>
</g>
<g clip-path="url(#a)">
<use x="346.822505" y="43.636364" fill="#ffffff" stroke="#ffffff" xlink:href="#b"/>
</g>
<g clip-path="url(#a)">
<use x="82.909091" y="794.090929" fill="#ffffff" stroke="#ffffff" xlink:href="#b"/>
</g>
<g clip-path="url(#a)">
<use x="94.753247" y="670.117274" fill="#ffffff" stroke="#ffffff" xlink:href="#b"/>
</g>
<g clip-path="url(#a)">
<use x="314.308364" y="295.080977" fill="#ffffff" stroke="#ffffff" xlink:href="#b"/>
</g>
<g clip-path="url(#a)">
<use x="182.4" y="794.090929" fill="#ffffff" stroke="#ffffff" xlink:href="#b"/>
</g>
<g clip-path="url(#a)">
<use x="258.231842" y="169.463927" fill="#ffffff" stroke="#ffffff" xlink:href="#b"/>
</g>
<g clip-path="url(#a)">
<use x="206.088312" y="794.090929" fill="#ffffff" stroke="#ffffff" xlink:href="#b"/>
</g>
<g clip-path="url(#a)">
<use x="232.145455" y="794.090929" fill="#ffffff" stroke="#ffffff" xlink:href="#b"/>
</g>
<g clip-path="url(#a)">
<use x="336.46176" y="295.080977" fill="#ffffff" stroke="#ffffff" xlink:href="#b"/>
</g>
<g clip-path="url(#a)">
<use x="260.571429" y="794.090929" fill="#ffffff" stroke="#ffffff" xlink:href="#b"/>
</g>
<g clip-path="url(#a)">
<use x="291.366234" y="794.090929" fill="#ffffff" stroke="#ffffff" xlink:href="#b"/>
</g>
<g clip-path="url(#a)">
<use x="457.447619" y="420.445355" fill="#ffffff" stroke="#ffffff" xlink:href="#b"/>
</g>
<g clip-path="url(#a)">
<use x="324.52987" y="794.090929" fill="#ffffff" stroke="#ffffff" xlink:href="#b"/>
</g>
<g clip-path="url(#a)">
<use x="474.555844" y="545.493388" fill="#ffffff" stroke="#ffffff" xlink:href="#b"/>
</g>
<g clip-path="url(#a)">
<use x="573.257143" y="794.090929" fill="#ffffff" stroke="#ffffff" xlink:href="#b"/>
</g>
<g clip-path="url(#a)">
<use x="360.062338" y="794.090929" fill="#ffffff" stroke="#ffffff" xlink:href="#b"/>
</g>
<g clip-path="url(#a)">
<use x="439.023377" y="670.117274" fill="#ffffff" stroke="#ffffff" xlink:href="#b"/>
</g>
<g clip-path="url(#a)">
<use x="525.880519" y="794.090929" fill="#ffffff" stroke="#ffffff" xlink:href="#b"/>
</g>
<g clip-path="url(#a)">
<use x="397.963636" y="794.090929" fill="#ffffff" stroke="#ffffff" xlink:href="#b"/>
</g>
<g clip-path="url(#a)">
<use x="438.233766" y="794.090929" fill="#ffffff" stroke="#ffffff" xlink:href="#b"/>
</g>
<g clip-path="url(#a)">
<use x="480.872727" y="794.090929" fill="#ffffff" stroke="#ffffff" xlink:href="#b"/>
</g>
<g clip-path="url(#a)">
<use x="99.490909" y="794.090929" fill="#ffffff" stroke="#ffffff" xlink:href="#b"/>
</g>
<g clip-path="url(#a)">
<use x="111.335065" y="794.090929" fill="#ffffff" stroke="#ffffff" xlink:href="#b"/>
</g>
<g clip-path="url(#a)">
<use x="125.548052" y="794.090929" fill="#ffffff" stroke="#ffffff" xlink:href="#b"/>
</g>
<g clip-path="url(#a)">
<use x="142.12987" y="794.090929" fill="#ffffff" stroke="#ffffff" xlink:href="#b"/>
</g>
<g clip-path="url(#a)">
<use x="1093.037922" y="420.445355" fill="#ffffff" stroke="#ffffff" xlink:href="#b"/>
</g>
<g clip-path="url(#a)">
<use x="786.451948" y="794.090929" fill="#ffffff" stroke="#ffffff" xlink:href="#b"/>
</g>
<g clip-path="url(#a)">
<use x="961.745455" y="545.493388" fill="#ffffff" stroke="#ffffff" xlink:href="#b"/>
</g>
<g clip-path="url(#a)">
<use x="1177.309091" y="794.090929" fill="#ffffff" stroke="#ffffff" xlink:href="#b"/>
</g>
<g clip-path="url(#a)">
<use x="1433.438961" y="670.117274" fill="#ffffff" stroke="#ffffff" xlink:href="#b"/>
</g>
<g clip-path="url(#a)">
<use x="1250.742857" y="794.090929" fill="#ffffff" stroke="#ffffff" xlink:href="#b"/>
</g>
<g clip-path="url(#a)">
<use x="1326.545455" y="794.090929" fill="#ffffff" stroke="#ffffff" xlink:href="#b"/>
</g>
<g clip-path="url(#a)">
<use x="1404.716883" y="794.090929" fill="#ffffff" stroke="#ffffff" xlink:href="#b"/>
</g>
<g clip-path="url(#a)">
<use x="876.467532" y="670.117274" fill="#ffffff" stroke="#ffffff" xlink:href="#b"/>
</g>
<g clip-path="url(#a)">
<use x="971.220779" y="794.090929" fill="#ffffff" stroke="#ffffff" xlink:href="#b"/>
</g>
<g clip-path="url(#a)">
<use x="1037.548052" y="794.090929" fill="#ffffff" stroke="#ffffff" xlink:href="#b"/>
</g>
<g clip-path="url(#a)">
<use x="845.672727" y="794.090929" fill="#ffffff" stroke="#ffffff" xlink:href="#b"/>
</g>
<g clip-path="url(#a)">
<use x="907.262338" y="794.090929" fill="#ffffff" stroke="#ffffff" xlink:href="#b"/>
</g>
<g clip-path="url(#a)">
<use x="90.015584" y="794.090929" fill="#ffffff" stroke="#ffffff" xlink:href="#b"/>
</g>
<g clip-path="url(#a)">
<use x="161.080519" y="794.090929" fill="#ffffff" stroke="#ffffff" xlink:href="#b"/>
</g>
<g clip-path="url(#a)">
<use x="623.002597" y="794.090929" fill="#ffffff" stroke="#ffffff" xlink:href="#b"/>
</g>
<g clip-path="url(#a)">
<use x="675.116883" y="794.090929" fill="#ffffff" stroke="#ffffff" xlink:href="#b"/>
</g>
<g clip-path="url(#a)">
<use x="729.6" y="794.090929" fill="#ffffff" stroke="#ffffff" xlink:href="#b"/>
</g>
<g clip-path="url(#a)">
<use x="1106.244156" y="794.090929" fill="#ffffff" stroke="#ffffff" xlink:href="#b"/>
</g>
<g clip-path="url(#a)">
<use x="1485.257143" y="794.090929" fill="#ffffff" stroke="#ffffff" xlink:href="#b"/>
</g>
<g clip-path="url(#a)">
<use x="1568.166234" y="794.090929" fill="#ffffff" stroke="#ffffff" xlink:href="#b"/>
</g>
<g clip-path="url(#a)">
<use x="1653.444156" y="794.090929" fill="#ffffff" stroke="#ffffff" xlink:href="#b"/>
</g>
<g clip-path="url(#a)">
<use x="1741.090909" y="794.090929" fill="#ffffff" stroke="#ffffff" xlink:href="#b"/>
</g>
<g clip-path="url(#a)">
<defs>
<path id="au" d="m39.406 66.219q-10.75 0-17.078-8.0156-6.3125-8-6.3125-21.828 0-13.766 6.3125-21.781 6.3281-8 17.078-8 10.734 0 17.016 8 6.2812 8.0156 6.2812 21.781 0 13.828-6.2812 21.828-6.2812 8.0156-17.016 8.0156zm0 8q15.328 0 24.5-10.281 9.1875-10.281 9.1875-27.562 0-17.234-9.1875-27.516-9.1719-10.281-24.5-10.281-15.375 0-24.594 10.25-9.2031 10.266-9.2031 27.547t9.2031 27.562q9.2188 10.281 24.594 10.281z"/>
<path id="t" d="m54.891 33.016v-33.016h-8.9844v32.719q0 7.7656-3.0312 11.609-3.0312 3.8594-9.0781 3.8594-7.2812 0-11.484-4.6406-4.2031-4.625-4.2031-12.641v-30.906h-9.0312v75.984h9.0312v-29.797q3.2344 4.9375 7.5938 7.375 4.375 2.4375 10.094 2.4375 9.4219 0 14.25-5.8281 4.8438-5.8281 4.8438-17.156z"/>
</defs>
<g transform="translate(69.559 919.12) scale(.1 -.1)">
<use xlink:href="#au"/>
<use x="78.710938" xlink:href="#t"/>
<use x="142.089844" xlink:href="#f"/>
<use x="205.46875" xlink:href="#c"/>
</g>
</g>
<g clip-path="url(#a)">
<defs>
<path id="s" d="m44.281 53.078v-8.5q-3.7969 1.9531-7.9062 2.9219-4.0938 0.98438-8.5 0.98438-6.6875 0-10.031-2.0469t-3.3438-6.1562q0-3.125 2.3906-4.9062t9.625-3.3906l3.0781-0.6875q9.5625-2.0469 13.594-5.7812t4.0312-10.422q0-7.625-6.0312-12.078-6.0312-4.4375-16.578-4.4375-4.3906 0-9.1562 0.85938t-10.031 2.5625v9.2812q4.9844-2.5938 9.8125-3.8906 4.8281-1.2812 9.5781-1.2812 6.3438 0 9.75 2.1719 3.4219 2.1719 3.4219 6.125 0 3.6562-2.4688 5.6094-2.4531 1.9531-10.812 3.7656l-3.125 0.73438q-8.3438 1.75-12.062 5.3906-3.7031 3.6406-3.7031 9.9844 0 7.7188 5.4688 11.906 5.4688 4.2031 15.531 4.2031 4.9688 0 9.3594-0.73438 4.4062-0.71875 8.1094-2.1875z"/>
<path id="u" d="m48.781 52.594v-8.4062q-3.8125 2.1094-7.6406 3.1562t-7.7344 1.0469q-8.75 0-13.594-5.5469-4.8281-5.5312-4.8281-15.547t4.8281-15.562q4.8438-5.5312 13.594-5.5312 3.9062 0 7.7344 1.0469t7.6406 3.1562v-8.3125q-3.7656-1.75-7.7969-2.625-4.0156-0.89062-8.5625-0.89062-12.359 0-19.641 7.7656-7.2656 7.7656-7.2656 20.953 0 13.375 7.3438 21.031 7.3594 7.6719 20.156 7.6719 4.1406 0 8.0938-0.85938 3.9531-0.84375 7.6719-2.5469z"/>
<path id="bb" d="m4.2031 54.688h8.9844l11.234-42.672 11.172 42.672h10.594l11.234-42.672 11.188 42.672h8.9844l-14.312-54.688h-10.594l-11.766 44.828-11.812-44.828h-10.609z"/>
<path id="y" d="m37.109 75.984v-7.4844h-8.5938q-4.8281 0-6.7188-1.9531-1.875-1.9531-1.875-7.0312v-4.8281h14.797v-6.9844h-14.797v-47.703h-9.0312v47.703h-8.5938v6.9844h8.5938v3.8125q0 9.125 4.25 13.297 4.25 4.1875 13.469 4.1875z"/>
</defs>
<g transform="translate(59.572 919.12) scale(.1 -.1)">
<use xlink:href="#q"/>
<use x="73.193359" xlink:href="#k"/>
<use x="170.605469" xlink:href="#s"/>
<use x="222.705078" xlink:href="#u"/>
<use x="277.685547" xlink:href="#t"/>
<use x="341.064453" xlink:href="#bb"/>
<use x="422.851562" xlink:href="#c"/>
<use x="484.375" xlink:href="#i"/>
<use x="512.158203" xlink:href="#y"/>
<use x="547.363281" xlink:href="#c"/>
</g>
</g>
<g clip-path="url(#a)">
<defs>
<path id="ai" d="m45.406 27.984q0 9.7656-4.0312 15.125-4.0156 5.375-11.297 5.375-7.2188 0-11.25-5.375-4.0312-5.3594-4.0312-15.125 0-9.7188 4.0312-15.094t11.25-5.375q7.2812 0 11.297 5.375 4.0312 5.375 4.0312 15.094zm8.9844-21.203q0-13.953-6.2031-20.766-6.1875-6.8125-18.984-6.8125-4.7344 0-8.9375 0.70312t-8.1562 2.1719v8.7344q3.9531-2.1406 7.8125-3.1562 3.8594-1.0312 7.8594-1.0312 8.8438 0 13.234 4.6094t4.3906 13.938v4.4531q-2.7812-4.8438-7.125-7.2344t-10.406-2.3906q-10.047 0-16.203 7.6562-6.1562 7.6719-6.1562 20.328 0 12.688 6.1562 20.344 6.1562 7.6719 16.203 7.6719 6.0625 0 10.406-2.3906t7.125-7.2188v8.2969h8.9844z"/>
<path id="x" d="m18.312 70.219v-15.531h18.5v-6.9844h-18.5v-29.688q0-6.6875 1.8281-8.5938t7.4531-1.9062h9.2188v-7.5156h-9.2188q-10.406 0-14.359 3.875-3.9531 3.8906-3.9531 14.141v29.688h-6.5938v6.9844h6.5938v15.531z"/>
</defs>
<g transform="translate(84.4 919.12) scale(.1 -.1)">
<use xlink:href="#y"/>
<use x="35.205078" xlink:href="#g"/>
<use x="76.318359" xlink:href="#h"/>
<use x="137.597656" xlink:href="#ai"/>
<use x="201.074219" xlink:href="#x"/>
<use x="240.283203" xlink:href="#c"/>
</g>
</g>
<g clip-path="url(#a)">
<g transform="translate(106.2 919.12) scale(.1 -.1)">
<use xlink:href="#c"/>
<use x="61.523438" xlink:href="#g"/>
</g>
</g>
<g clip-path="url(#a)">
<g transform="translate(113.37 919.12) scale(.1 -.1)">
<use xlink:href="#k"/>
<use x="97.412109" xlink:href="#i"/>
<use x="125.195312" xlink:href="#u"/>
<use x="180.175781" xlink:href="#t"/>
</g>
</g>
<g clip-path="url(#a)">
<defs>
<path id="aj" d="m45.406 46.391v29.594h8.9844v-75.984h-8.9844v8.2031q-2.8281-4.875-7.1562-7.25-4.3125-2.375-10.375-2.375-9.9062 0-16.141 7.9062-6.2188 7.9219-6.2188 20.812t6.2188 20.797q6.2344 7.9062 16.141 7.9062 6.0625 0 10.375-2.375 4.3281-2.3594 7.1562-7.2344zm-30.609-19.094q0-9.9062 4.0781-15.547t11.203-5.6406 11.219 5.6406q4.1094 5.6406 4.1094 15.547t-4.1094 15.547q-4.0938 5.6406-11.219 5.6406t-11.203-5.6406-4.0781-15.547z"/>
<path id="ad" d="m8.5 21.578v33.109h8.9844v-32.766q0-7.7656 3.0156-11.656 3.0312-3.875 9.0938-3.875 7.2656 0 11.484 4.6406 4.2344 4.6406 4.2344 12.656v31h8.9844v-54.688h-8.9844v8.4062q-3.2656-4.9844-7.5938-7.4062-4.3125-2.4219-10.031-2.4219-9.4219 0-14.312 5.8594-4.875 5.8594-4.875 17.141z"/>
</defs>
<g transform="translate(107.37 919.12) scale(.1 -.1)">
<use xlink:href="#ai"/>
<use x="63.476562" xlink:href="#c"/>
<use x="125" xlink:href="#g"/>
<use x="166.113281" xlink:href="#h"/>
<use x="227.392578" xlink:href="#aj"/>
<use x="290.869141" xlink:href="#c"/>
<use x="352.392578" xlink:href="#t"/>
<use x="415.771484" xlink:href="#c"/>
<use x="477.294922" xlink:href="#g"/>
<use x="518.408203" xlink:href="#h"/>
<use x="579.6875" xlink:href="#ad"/>
<use x="643.066406" xlink:href="#s"/>
</g>
</g>
<g clip-path="url(#a)">
<defs>
<path id="ap" d="m11.719 12.406h10.297v-8.4062l-8-15.625h-6.2969l4 15.625z"/>
</defs>
<g transform="translate(159.49 919.12) scale(.1 -.1)">
<use xlink:href="#ap"/>
</g>
</g>
<g clip-path="url(#a)">
<g transform="translate(175.34 919.12) scale(.1 -.1)">
<use xlink:href="#h"/>
<use x="61.279297" xlink:href="#j"/>
<use x="89.0625" xlink:href="#s"/>
</g>
</g>
<g clip-path="url(#a)">
<defs>
<path id="bc" d="m18.109 8.2031v-29h-9.0312v75.484h9.0312v-8.2969q2.8438 4.875 7.1562 7.2344 4.3281 2.375 10.328 2.375 9.9688 0 16.188-7.9062 6.2344-7.9062 6.2344-20.797t-6.2344-20.812q-6.2188-7.9062-16.188-7.9062-6 0-10.328 2.375-4.3125 2.375-7.1562 7.25zm30.578 19.094q0 9.9062-4.0781 15.547t-11.203 5.6406q-7.1406 0-11.219-5.6406t-4.0781-15.547 4.0781-15.547 11.219-5.6406q7.125 0 11.203 5.6406t4.0781 15.547z"/>
<path id="az" d="m8.5 21.578v33.109h8.9844v-32.766q0-7.7656 3.0156-11.656 3.0312-3.875 9.0938-3.875 7.2656 0 11.484 4.6406 4.2344 4.6406 4.2344 12.656v31h8.9844v-54.688h-8.9844v8.4062q-3.2656-4.9844-7.5938-7.4062-4.3125-2.4219-10.031-2.4219-9.4219 0-14.312 5.8594-4.875 5.8594-4.875 17.141zm22.609 34.422m4.4844 19.781h9.9062v-9.8594h-9.9062zm-19.094 0h9.9062v-9.8594h-9.9062z"/>
<path id="bd" d="m9.0781 75.984h9.0312v-44.875l26.812 23.578h11.469l-29-25.578 30.234-29.109h-11.719l-27.797 26.703v-26.703h-9.0312z"/>
</defs>
<g transform="translate(188.06 919.12) scale(.1 -.1)">
<use xlink:href="#bc"/>
<use x="63.476562" xlink:href="#y"/>
<use x="98.681641" xlink:href="#j"/>
<use x="126.464844" xlink:href="#az"/>
<use x="189.84375" xlink:href="#u"/>
<use x="244.824219" xlink:href="#bd"/>
<use x="299.109375" xlink:href="#c"/>
</g>
</g>
<g clip-path="url(#a)">
<g transform="translate(227.01 919.12) scale(.1 -.1)">
<use xlink:href="#c"/>
<use x="61.523438" xlink:href="#g"/>
</g>
</g>
<g clip-path="url(#a)">
<g transform="translate(252.93 919.12) scale(.1 -.1)">
<use xlink:href="#aj"/>
<use x="63.476562" xlink:href="#i"/>
<use x="91.259766" xlink:href="#c"/>
</g>
</g>
<g clip-path="url(#a)">
<g transform="translate(275.75 919.12) scale(.1 -.1)">
<use xlink:href="#aa"/>
<use x="50.269531" xlink:href="#g"/>
<use x="91.382812" xlink:href="#ad"/>
<use x="154.761719" xlink:href="#u"/>
<use x="209.742188" xlink:href="#t"/>
<use x="273.121094" xlink:href="#x"/>
</g>
</g>
<g clip-path="url(#a)">
<g transform="translate(311.21 919.12) scale(.1 -.1)">
<use xlink:href="#c"/>
<use x="61.523438" xlink:href="#i"/>
<use x="89.306641" xlink:href="#f"/>
<use x="152.685547" xlink:href="#c"/>
<use x="214.208984" xlink:href="#s"/>
</g>
</g>
<g clip-path="url(#a)">
<g transform="translate(346.19 919.12) scale(.1 -.1)">
<use xlink:href="#j"/>
<use x="27.783203" xlink:href="#h"/>
<use x="89.0625" xlink:href="#f"/>
<use x="152.441406" xlink:href="#ai"/>
<use x="215.917969" xlink:href="#c"/>
</g>
</g>
<g clip-path="url(#a)">
<g transform="translate(393.41 919.12) scale(.1 -.1)">
<use xlink:href="#i"/>
<use x="27.783203" xlink:href="#f"/>
</g>
</g>
<g clip-path="url(#a)">
<g transform="translate(427.11 919.12) scale(.1 -.1)">
<use xlink:href="#aj"/>
<use x="63.476562" xlink:href="#c"/>
<use x="125" xlink:href="#k"/>
</g>
</g>
<g clip-path="url(#a)">
<defs>
<path id="ak" d="m53.516 70.516v-9.625q-5.6094 2.6875-10.594 4-4.9844 1.3281-9.625 1.3281-8.0469 0-12.422-3.125t-4.375-8.8906q0-4.8438 2.9062-7.3125 2.9062-2.4531 11.016-3.9688l5.9531-1.2188q11.031-2.1094 16.281-7.4062t5.25-14.172q0-10.609-7.1094-16.078-7.0938-5.4688-20.812-5.4688-5.1719 0-11.016 1.1719-5.8281 1.1719-12.078 3.4688v10.156q6-3.3594 11.766-5.0781 5.7656-1.7031 11.328-1.7031 8.4375 0 13.031 3.3125 4.5938 3.3281 4.5938 9.4844 0 5.3594-3.2969 8.3906t-10.812 4.5469l-6.0156 1.1719q-11.031 2.1875-15.969 6.875-4.9219 4.6875-4.9219 13.047 0 9.6719 6.8125 15.234t18.766 5.5625q5.1406 0 10.453-0.9375 5.3281-0.92188 10.891-2.7656z"/>
</defs>
<g transform="translate(465.33 919.12) scale(.1 -.1)">
<use xlink:href="#ak"/>
<use x="63.476562" xlink:href="#x"/>
<use x="102.685547" xlink:href="#i"/>
<use x="130.46875" xlink:href="#j"/>
<use x="158.251953" xlink:href="#j"/>
<use x="186.035156" xlink:href="#c"/>
<use x="247.558594" xlink:href="#f"/>
</g>
</g>
<g clip-path="url(#a)">
<g transform="translate(503.34 919.12) scale(.1 -.1)">
<use xlink:href="#ai"/>
<use x="63.476562" xlink:href="#c"/>
<use x="125" xlink:href="#g"/>
<use x="163.863281" xlink:href="#c"/>
<use x="225.386719" xlink:href="#i"/>
<use x="253.169922" xlink:href="#y"/>
<use x="286.625" xlink:href="#x"/>
<use x="325.833984" xlink:href="#c"/>
<use x="387.357422" xlink:href="#f"/>
</g>
</g>
<g clip-path="url(#a)">
<defs>
<path id="aq" d="m30.609 48.391q-7.2188 0-11.422-5.6406t-4.2031-15.453 4.1719-15.453q4.1875-5.6406 11.453-5.6406 7.1875 0 11.375 5.6562 4.2031 5.6719 4.2031 15.438 0 9.7188-4.2031 15.406-4.1875 5.6875-11.375 5.6875zm0 7.6094q11.719 0 18.406-7.625 6.7031-7.6094 6.7031-21.078 0-13.422-6.7031-21.078-6.6875-7.6406-18.406-7.6406-11.766 0-18.438 7.6406-6.6562 7.6562-6.6562 21.078 0 13.469 6.6562 21.078 6.6719 7.625 18.438 7.625z"/>
<path id="ar" d="m48.688 27.297q0 9.9062-4.0781 15.547t-11.203 5.6406q-7.1406 0-11.219-5.6406t-4.0781-15.547 4.0781-15.547 11.219-5.6406q7.125 0 11.203 5.6406t4.0781 15.547zm-30.578 19.094q2.8438 4.875 7.1562 7.2344 4.3281 2.375 10.328 2.375 9.9688 0 16.188-7.9062 6.2344-7.9062 6.2344-20.797t-6.2344-20.812q-6.2188-7.9062-16.188-7.9062-6 0-10.328 2.375-4.3125 2.375-7.1562 7.25v-8.2031h-9.0312v75.984h9.0312z"/>
</defs>
<g transform="translate(550.21 919.12) scale(.1 -.1)">
<use xlink:href="#v"/>
<use x="58.552734" xlink:href="#g"/>
<use x="97.416016" xlink:href="#aq"/>
<use x="158.597656" xlink:href="#ar"/>
<use x="222.074219" xlink:href="#j"/>
<use x="249.857422" xlink:href="#c"/>
<use x="311.380859" xlink:href="#k"/>
<use x="408.792969" xlink:href="#s"/>
</g>
</g>
<g clip-path="url(#a)">
<defs>
<path id="ay" d="m11.719 12.406h10.297v-12.406h-10.297zm0 39.297h10.297v-12.391h-10.297z"/>
</defs>
<g transform="translate(621.32 919.12) scale(.1 -.1)">
<use xlink:href="#ay"/>
</g>
</g>
<g clip-path="url(#a)">
<defs>
<path id="ao" d="m4.8906 31.391h26.312v-8h-26.312z"/>
</defs>
<g transform="translate(673.31 919.12) scale(.1 -.1)">
<use xlink:href="#ao"/>
</g>
</g>
<g clip-path="url(#a)">
<defs>
<path id="am" d="m17.922 72.906v-27.109h-8.2969v27.109zm18.453 0v-27.109h-8.2969v27.109z"/>
</defs>
<g transform="translate(727.3 919.12) scale(.1 -.1)">
<use xlink:href="#am"/>
</g>
</g>
<g clip-path="url(#a)">
<defs>
<path id="as" d="m3.3281 72.906h9.9531l15.328-61.625 15.281 61.625h11.094l15.328-61.625 15.281 61.625h10.016l-18.312-72.906h-12.406l-15.375 63.281-15.531-63.281h-12.406z"/>
</defs>
<g transform="translate(772.39 919.12) scale(.1 -.1)">
<use xlink:href="#as"/>
<use x="93.001953" xlink:href="#c"/>
<use x="154.525391" xlink:href="#f"/>
<use x="217.904297" xlink:href="#f"/>
</g>
</g>
<g clip-path="url(#a)">
<g transform="translate(838.04 919.12) scale(.1 -.1)">
<use xlink:href="#c"/>
<use x="61.523438" xlink:href="#i"/>
<use x="89.306641" xlink:href="#f"/>
</g>
</g>
<g clip-path="url(#a)">
<g transform="translate(893.35 919.12) scale(.1 -.1)">
<use xlink:href="#ak"/>
<use x="63.476562" xlink:href="#u"/>
<use x="118.457031" xlink:href="#t"/>
<use x="181.835938" xlink:href="#h"/>
<use x="243.115234" xlink:href="#y"/>
</g>
</g>
<g clip-path="url(#a)">
<defs>
<path id="ba" d="m34.281 27.484q-10.891 0-15.094-2.4844t-4.2031-8.5q0-4.7812 3.1562-7.5938 3.1562-2.7969 8.5625-2.7969 7.4844 0 12 5.2969t4.5156 14.078v2zm17.922 3.7188v-31.203h-8.9844v8.2969q-3.0781-4.9688-7.6719-7.3438t-11.234-2.375q-8.3906 0-13.359 4.7188-4.9531 4.7188-4.9531 12.625 0 9.2188 6.1719 13.906 6.1875 4.6875 18.438 4.6875h12.609v0.89062q0 6.2031-4.0781 9.5938t-11.453 3.3906q-4.6875 0-9.1406-1.125-4.4375-1.125-8.5312-3.375v8.3125q4.9219 1.9062 9.5625 2.8438 4.6406 0.95312 9.0312 0.95312 11.875 0 17.734-6.1562 5.8594-6.1406 5.8594-18.641zm-18.609 44.578h9.9062v-9.8594h-9.9062zm-19.094 0h9.9062v-9.8594h-9.9062z"/>
</defs>
<g transform="translate(946.75 919.12) scale(.1 -.1)">
<use xlink:href="#ak"/>
<use x="63.476562" xlink:href="#x"/>
<use x="102.685547" xlink:href="#g"/>
<use x="143.798828" xlink:href="#ba"/>
<use x="205.078125" xlink:href="#ad"/>
<use x="268.457031" xlink:href="#u"/>
<use x="323.4375" xlink:href="#t"/>
<use x="386.816406" xlink:href="#c"/>
<use x="448.339844" xlink:href="#g"/>
</g>
</g>
<g clip-path="url(#a)">
<g transform="translate(1025.2 919.12) scale(.1 -.1)">
<use xlink:href="#y"/>
<use x="35.205078" xlink:href="#g"/>
<use x="76.318359" xlink:href="#i"/>
<use x="104.101562" xlink:href="#s"/>
<use x="156.201172" xlink:href="#s"/>
<use x="208.300781" xlink:href="#x"/>
</g>
</g>
<g clip-path="url(#a)">
<g transform="translate(1104.7 919.12) scale(.1 -.1)">
<use xlink:href="#ap"/>
</g>
</g>
<g clip-path="url(#a)">
<g transform="translate(1164.7 919.12) scale(.1 -.1)">
<use xlink:href="#aj"/>
<use x="63.476562" xlink:href="#h"/>
<use x="124.755859" xlink:href="#f"/>
<use x="188.134766" xlink:href="#f"/>
</g>
</g>
<g clip-path="url(#a)">
<g transform="translate(1240.6 919.12) scale(.1 -.1)">
<use xlink:href="#h"/>
<use x="61.279297" xlink:href="#j"/>
<use x="89.0625" xlink:href="#s"/>
<use x="141.162109" xlink:href="#aq"/>
</g>
</g>
<g clip-path="url(#a)">
<g transform="translate(1314.4 919.12) scale(.1 -.1)">
<use xlink:href="#h"/>
<use x="61.279297" xlink:href="#ad"/>
<use x="124.658203" xlink:href="#u"/>
<use x="179.638672" xlink:href="#t"/>
</g>
</g>
<g clip-path="url(#a)">
<defs>
<path id="aw" d="m19.672 34.812v-26.703h15.828q7.9531 0 11.781 3.2969 3.8438 3.2969 3.8438 10.078 0 6.8438-3.8438 10.078-3.8281 3.25-11.781 3.25zm0 29.984v-21.969h14.609q7.2188 0 10.75 2.7031 3.5469 2.7188 3.5469 8.2812 0 5.5156-3.5469 8.25-3.5312 2.7344-10.75 2.7344zm-9.8594 8.1094h25.203q11.281 0 17.375-4.6875 6.1094-4.6875 6.1094-13.328 0-6.7031-3.125-10.656t-9.1875-4.9219q7.2812-1.5625 11.312-6.5312 4.0312-4.9531 4.0312-12.375 0-9.7656-6.6406-15.094-6.6406-5.3125-18.906-5.3125h-26.172z"/>
</defs>
<g transform="translate(1385.6 919.12) scale(.1 -.1)">
<use xlink:href="#aw"/>
<use x="68.603516" xlink:href="#j"/>
<use x="96.386719" xlink:href="#ad"/>
<use x="159.765625" xlink:href="#k"/>
<use x="257.177734" xlink:href="#c"/>
<use x="318.701172" xlink:href="#f"/>
</g>
</g>
<g clip-path="url(#a)">
<defs>
<path id="ax" d="m19.094 12.406h9.9062v-12.406h-9.9062zm9.625 7.1719h-9.3281v7.5156q0 4.9375 1.3594 8.1094 1.375 3.1719 5.7656 7.375l4.3906 4.3438q2.7812 2.5938 4.0312 4.8906t1.25 4.6875q0 4.3438-3.2031 7.0312t-8.4688 2.6875q-3.8594 0-8.2344-1.7188-4.3594-1.7031-9.1094-4.9844v9.1875q4.5938 2.7812 9.2969 4.1406 4.7188 1.375 9.75 1.375 8.9844 0 14.422-4.7344 5.4531-4.7344 5.4531-12.5 0-3.7188-1.7656-7.0625-1.75-3.3438-6.1406-7.5312l-4.2969-4.2031q-2.2969-2.2969-3.25-3.5938t-1.3438-2.5156q-0.29688-1.0156-0.4375-2.4844t-0.14062-4z"/>
</defs>
<g transform="translate(1482.6 919.12) scale(.1 -.1)">
<use xlink:href="#ax"/>
</g>
</g>
<g clip-path="url(#a)">
<g transform="translate(1565.9 919.12) scale(.1 -.1)">
<use xlink:href="#am"/>
</g>
</g>
<g clip-path="url(#a)">
<g transform="translate(1651.6 919.12) scale(.1 -.1)">
<use xlink:href="#ao"/>
</g>
</g>
<g clip-path="url(#a)">
<g transform="translate(1738.8 919.12) scale(.1 -.1)">
<use xlink:href="#am"/>
</g>
</g>
<g clip-path="url(#a)">
<defs>
<path id="d" d="m12.406 8.2969h16.109v55.625l-17.531-3.5156v8.9844l17.438 3.5156h9.8594v-64.609h16.109v-8.2969h-41.984z"/>
<path id="e" d="m10.688 12.406h10.312v-12.406h-10.312z"/>
</defs>
<g transform="translate(338.87 46.396) scale(.1 -.1)">
<use xlink:href="#d"/>
<use x="63.623047" xlink:href="#e"/>
<use x="95.410156" xlink:href="#d"/>
</g>
</g>
<g clip-path="url(#a)">
<defs>
<path id="n" d="m19.188 8.2969h34.422v-8.2969h-46.281v8.2969q5.6094 5.8125 15.297 15.594 9.7031 9.7969 12.188 12.641 4.7344 5.3125 6.6094 9 1.8906 3.6875 1.8906 7.25 0 5.8125-4.0781 9.4688-4.0781 3.6719-10.625 3.6719-4.6406 0-9.7969-1.6094-5.1406-1.6094-11-4.8906v9.9688q5.9531 2.3906 11.125 3.6094 5.1875 1.2188 9.4844 1.2188 11.328 0 18.062-5.6719 6.7344-5.6562 6.7344-15.125 0-4.5-1.6875-8.5312-1.6719-4.0156-6.125-9.4844-1.2188-1.4219-7.7656-8.1875-6.5312-6.7656-18.453-18.922z"/>
</defs>
<g transform="translate(74.958 796.85) scale(.1 -.1)">
<use xlink:href="#d"/>
<use x="63.623047" xlink:href="#e"/>
<use x="95.410156" xlink:href="#n"/>
</g>
</g>
<g clip-path="url(#a)">
<defs>
<path id="p" d="m40.578 39.312q7.0781-1.5156 11.047-6.3125 3.9844-4.7812 3.9844-11.812 0-10.781-7.4219-16.703-7.4219-5.9062-21.094-5.9062-4.5781 0-9.4375 0.90625t-10.031 2.7188v9.5156q4.0938-2.3906 8.9688-3.6094 4.8906-1.2188 10.219-1.2188 9.2656 0 14.125 3.6562t4.8594 10.641q0 6.4531-4.5156 10.078-4.5156 3.6406-12.562 3.6406h-8.5v8.1094h8.8906q7.2656 0 11.125 2.9062t3.8594 8.375q0 5.6094-3.9844 8.6094-3.9688 3.0156-11.391 3.0156-4.0625 0-8.7031-0.89062-4.6406-0.875-10.203-2.7188v8.7812q5.625 1.5625 10.531 2.3438t9.25 0.78125q11.234 0 17.766-5.1094 6.5469-5.0938 6.5469-13.781 0-6.0625-3.4688-10.234t-9.8594-5.7812z"/>
</defs>
<g transform="translate(86.802 672.88) scale(.1 -.1)">
<use xlink:href="#d"/>
<use x="63.623047" xlink:href="#e"/>
<use x="95.410156" xlink:href="#p"/>
</g>
</g>
<g clip-path="url(#a)">
<defs>
<path id="m" d="m37.797 64.312-24.906-38.922h24.906zm-2.5938 8.5938h12.406v-47.516h10.406v-8.2031h-10.406v-17.188h-9.8125v17.188h-32.906v9.5156z"/>
</defs>
<g transform="translate(306.36 297.84) scale(.1 -.1)">
<use xlink:href="#d"/>
<use x="63.623047" xlink:href="#e"/>
<use x="95.410156" xlink:href="#m"/>
</g>
</g>
<g clip-path="url(#a)">
<defs>
<path id="o" d="m10.797 72.906h38.719v-8.3125h-29.688v-17.859q2.1406 0.73438 4.2812 1.0938 2.1562 0.35938 4.3125 0.35938 12.203 0 19.328-6.6875 7.1406-6.6875 7.1406-18.109 0-11.766-7.3281-18.297-7.3281-6.5156-20.656-6.5156-4.5938 0-9.3594 0.78125-4.75 0.78125-9.8281 2.3438v9.9219q4.3906-2.3906 9.0781-3.5625t9.9062-1.1719q8.4531 0 13.375 4.4375 4.9375 4.4375 4.9375 12.062 0 7.6094-4.9375 12.047-4.9219 4.4531-13.375 4.4531-3.9531 0-7.8906-0.875-3.9219-0.875-8.0156-2.7344z"/>
</defs>
<g transform="translate(174.45 796.85) scale(.1 -.1)">
<use xlink:href="#d"/>
<use x="63.623047" xlink:href="#e"/>
<use x="95.410156" xlink:href="#o"/>
</g>
</g>
<g clip-path="url(#a)">
<defs>
<path id="w" d="m33.016 40.375q-6.6406 0-10.531-4.5469-3.875-4.5312-3.875-12.438 0-7.8594 3.875-12.438 3.8906-4.5625 10.531-4.5625t10.516 4.5625q3.875 4.5781 3.875 12.438 0 7.9062-3.875 12.438-3.875 4.5469-10.516 4.5469zm19.578 30.922v-8.9844q-3.7188 1.75-7.5 2.6719-3.7812 0.9375-7.5 0.9375-9.7656 0-14.922-6.5938-5.1406-6.5938-5.875-19.922 2.875 4.25 7.2188 6.5156 4.3594 2.2656 9.5781 2.2656 10.984 0 17.359-6.6719 6.375-6.6562 6.375-18.125 0-11.234-6.6406-18.031-6.6406-6.7812-17.672-6.7812-12.656 0-19.344 9.6875-6.6875 9.7031-6.6875 28.109 0 17.281 8.2031 27.562t22.016 10.281q3.7188 0 7.5-0.73438t7.8906-2.1875z"/>
</defs>
<g transform="translate(250.28 172.22) scale(.1 -.1)">
<use xlink:href="#d"/>
<use x="63.623047" xlink:href="#e"/>
<use x="95.410156" xlink:href="#w"/>
</g>
</g>
<g clip-path="url(#a)">
<g transform="translate(194.96 796.85) scale(.1 -.1)">
<use xlink:href="#d"/>
<use x="63.623047" xlink:href="#e"/>
<use x="95.410156" xlink:href="#d"/>
<use x="159.033203" xlink:href="#o"/>
</g>
</g>
<g clip-path="url(#a)">
<g transform="translate(221.01 796.85) scale(.1 -.1)">
<use xlink:href="#d"/>
<use x="63.623047" xlink:href="#e"/>
<use x="95.410156" xlink:href="#d"/>
<use x="159.033203" xlink:href="#w"/>
</g>
</g>
<g clip-path="url(#a)">
<defs>
<path id="ac" d="m8.2031 72.906h46.875v-4.2031l-26.469-68.703h-10.297l24.906 64.594h-35.016z"/>
</defs>
<g transform="translate(325.33 297.84) scale(.1 -.1)">
<use xlink:href="#d"/>
<use x="63.623047" xlink:href="#e"/>
<use x="95.410156" xlink:href="#d"/>
<use x="159.033203" xlink:href="#ac"/>
</g>
</g>
<g clip-path="url(#a)">
<defs>
<path id="ag" d="m31.781 34.625q-7.0312 0-11.062-3.7656-4.0156-3.7656-4.0156-10.344 0-6.5938 4.0156-10.359 4.0312-3.7656 11.062-3.7656t11.078 3.7812q4.0625 3.7969 4.0625 10.344 0 6.5781-4.0312 10.344-4.0156 3.7656-11.109 3.7656zm-9.8594 4.1875q-6.3438 1.5625-9.8906 5.9062-3.5312 4.3594-3.5312 10.609 0 8.7344 6.2188 13.812 6.2344 5.0781 17.062 5.0781 10.891 0 17.094-5.0781t6.2031-13.812q0-6.25-3.5469-10.609-3.5312-4.3438-9.8281-5.9062 7.125-1.6562 11.094-6.5 3.9844-4.8281 3.9844-11.797 0-10.609-6.4688-16.281-6.4688-5.6562-18.531-5.6562-12.047 0-18.531 5.6562-6.4688 5.6719-6.4688 16.281 0 6.9688 4 11.797 4.0156 4.8438 11.141 6.5zm-3.6094 15.578q0-5.6562 3.5312-8.8281 3.5469-3.1719 9.9375-3.1719 6.3594 0 9.9375 3.1719 3.5938 3.1719 3.5938 8.8281 0 5.6719-3.5938 8.8438-3.5781 3.1719-9.9375 3.1719-6.3906 0-9.9375-3.1719-3.5312-3.1719-3.5312-8.8438z"/>
</defs>
<g transform="translate(249.44 796.85) scale(.1 -.1)">
<use xlink:href="#d"/>
<use x="63.623047" xlink:href="#e"/>
<use x="95.410156" xlink:href="#d"/>
<use x="159.033203" xlink:href="#ag"/>
</g>
</g>
<g clip-path="url(#a)">
<defs>
<path id="al" d="m10.984 1.5156v8.9844q3.7188-1.7656 7.5156-2.6875 3.8125-0.92188 7.4844-0.92188 9.7656 0 14.906 6.5625 5.1562 6.5625 5.8906 19.953-2.8281-4.2031-7.1875-6.4531-4.3438-2.25-9.6094-2.25-10.938 0-17.312 6.6094-6.375 6.625-6.375 18.109 0 11.219 6.6406 18 6.6406 6.7969 17.672 6.7969 12.656 0 19.312-9.7031 6.6719-9.6875 6.6719-28.141 0-17.234-8.1875-27.516-8.1719-10.281-21.984-10.281-3.7188 0-7.5312 0.73438-3.7969 0.73438-7.9062 2.2031zm19.625 30.906q6.6406 0 10.516 4.5312 3.8906 4.5469 3.8906 12.469 0 7.8594-3.8906 12.422-3.875 4.5625-10.516 4.5625t-10.516-4.5625-3.875-12.422q0-7.9219 3.875-12.469 3.875-4.5312 10.516-4.5312z"/>
</defs>
<g transform="translate(280.23 796.85) scale(.1 -.1)">
<use xlink:href="#d"/>
<use x="63.623047" xlink:href="#e"/>
<use x="95.410156" xlink:href="#d"/>
<use x="159.033203" xlink:href="#al"/>
</g>
</g>
<g clip-path="url(#a)">
<defs>
<path id="ah" d="m31.781 66.406q-7.6094 0-11.453-7.5-3.8281-7.4844-3.8281-22.531 0-14.984 3.8281-22.484 3.8438-7.5 11.453-7.5 7.6719 0 11.5 7.5 3.8438 7.5 3.8438 22.484 0 15.047-3.8438 22.531-3.8281 7.5-11.5 7.5zm0 7.8125q12.266 0 18.734-9.7031 6.4688-9.6875 6.4688-28.141 0-18.406-6.4688-28.109-6.4688-9.6875-18.734-9.6875-12.25 0-18.719 9.6875-6.4688 9.7031-6.4688 28.109 0 18.453 6.4688 28.141 6.4688 9.7031 18.719 9.7031z"/>
</defs>
<g transform="translate(446.31 423.2) scale(.1 -.1)">
<use xlink:href="#d"/>
<use x="63.623047" xlink:href="#e"/>
<use x="95.410156" xlink:href="#n"/>
<use x="159.033203" xlink:href="#ah"/>
</g>
</g>
<g clip-path="url(#a)">
<g transform="translate(313.4 796.85) scale(.1 -.1)">
<use xlink:href="#d"/>
<use x="63.623047" xlink:href="#e"/>
<use x="95.410156" xlink:href="#n"/>
<use x="159.033203" xlink:href="#d"/>
</g>
</g>
<g clip-path="url(#a)">
<g transform="translate(463.42 548.25) scale(.1 -.1)">
<use xlink:href="#d"/>
<use x="63.623047" xlink:href="#e"/>
<use x="95.410156" xlink:href="#n"/>
<use x="159.033203" xlink:href="#n"/>
</g>
</g>
<g clip-path="url(#a)">
<g transform="translate(562.12 796.85) scale(.1 -.1)">
<use xlink:href="#d"/>
<use x="63.623047" xlink:href="#e"/>
<use x="95.410156" xlink:href="#n"/>
<use x="159.033203" xlink:href="#p"/>
</g>
</g>
<g clip-path="url(#a)">
<g transform="translate(348.93 796.85) scale(.1 -.1)">
<use xlink:href="#d"/>
<use x="63.623047" xlink:href="#e"/>
<use x="95.410156" xlink:href="#n"/>
<use x="159.033203" xlink:href="#m"/>
</g>
</g>
<g clip-path="url(#a)">
<g transform="translate(427.89 672.88) scale(.1 -.1)">
<use xlink:href="#d"/>
<use x="63.623047" xlink:href="#e"/>
<use x="95.410156" xlink:href="#n"/>
<use x="159.033203" xlink:href="#o"/>
</g>
</g>
<g clip-path="url(#a)">
<g transform="translate(514.75 796.85) scale(.1 -.1)">
<use xlink:href="#d"/>
<use x="63.623047" xlink:href="#e"/>
<use x="95.410156" xlink:href="#n"/>
<use x="159.033203" xlink:href="#w"/>
</g>
</g>
<g clip-path="url(#a)">
<g transform="translate(386.83 796.85) scale(.1 -.1)">
<use xlink:href="#d"/>
<use x="63.623047" xlink:href="#e"/>
<use x="95.410156" xlink:href="#n"/>
<use x="159.033203" xlink:href="#ac"/>
</g>
</g>
<g clip-path="url(#a)">
<g transform="translate(427.1 796.85) scale(.1 -.1)">
<use xlink:href="#d"/>
<use x="63.623047" xlink:href="#e"/>
<use x="95.410156" xlink:href="#n"/>
<use x="159.033203" xlink:href="#ag"/>
</g>
</g>
<g clip-path="url(#a)">
<g transform="translate(469.74 796.85) scale(.1 -.1)">
<use xlink:href="#d"/>
<use x="63.623047" xlink:href="#e"/>
<use x="95.410156" xlink:href="#n"/>
<use x="159.033203" xlink:href="#al"/>
</g>
</g>
<g clip-path="url(#a)">
<g transform="translate(88.358 796.85) scale(.1 -.1)">
<use xlink:href="#d"/>
<use x="63.623047" xlink:href="#e"/>
<use x="95.410156" xlink:href="#p"/>
<use x="159.033203" xlink:href="#ah"/>
</g>
</g>
<g clip-path="url(#a)">
<g transform="translate(100.2 796.85) scale(.1 -.1)">
<use xlink:href="#d"/>
<use x="63.623047" xlink:href="#e"/>
<use x="95.410156" xlink:href="#p"/>
<use x="159.033203" xlink:href="#d"/>
</g>
</g>
<g clip-path="url(#a)">
<g transform="translate(114.42 796.85) scale(.1 -.1)">
<use xlink:href="#d"/>
<use x="63.623047" xlink:href="#e"/>
<use x="95.410156" xlink:href="#p"/>
<use x="159.033203" xlink:href="#n"/>
</g>
</g>
<g clip-path="url(#a)">
<g transform="translate(131 796.85) scale(.1 -.1)">
<use xlink:href="#d"/>
<use x="63.623047" xlink:href="#e"/>
<use x="95.410156" xlink:href="#p"/>
<use x="159.033203" xlink:href="#p"/>
</g>
</g>
<g clip-path="url(#a)">
<g transform="translate(1081.9 423.2) scale(.1 -.1)">
<use xlink:href="#d"/>
<use x="63.623047" xlink:href="#e"/>
<use x="95.410156" xlink:href="#p"/>
<use x="159.033203" xlink:href="#m"/>
</g>
</g>
<g clip-path="url(#a)">
<g transform="translate(775.32 796.85) scale(.1 -.1)">
<use xlink:href="#d"/>
<use x="63.623047" xlink:href="#e"/>
<use x="95.410156" xlink:href="#p"/>
<use x="159.033203" xlink:href="#o"/>
</g>
</g>
<g clip-path="url(#a)">
<g transform="translate(950.61 548.25) scale(.1 -.1)">
<use xlink:href="#d"/>
<use x="63.623047" xlink:href="#e"/>
<use x="95.410156" xlink:href="#p"/>
<use x="159.033203" xlink:href="#w"/>
</g>
</g>
<g clip-path="url(#a)">
<g transform="translate(1166.2 796.85) scale(.1 -.1)">
<use xlink:href="#d"/>
<use x="63.623047" xlink:href="#e"/>
<use x="95.410156" xlink:href="#p"/>
<use x="159.033203" xlink:href="#ac"/>
</g>
</g>
<g clip-path="url(#a)">
<g transform="translate(1422.3 672.88) scale(.1 -.1)">
<use xlink:href="#d"/>
<use x="63.623047" xlink:href="#e"/>
<use x="95.410156" xlink:href="#p"/>
<use x="159.033203" xlink:href="#ag"/>
</g>
</g>
<g clip-path="url(#a)">
<g transform="translate(1239.6 796.85) scale(.1 -.1)">
<use xlink:href="#d"/>
<use x="63.623047" xlink:href="#e"/>
<use x="95.410156" xlink:href="#m"/>
<use x="159.033203" xlink:href="#ah"/>
</g>
</g>
<g clip-path="url(#a)">
<g transform="translate(1315.4 796.85) scale(.1 -.1)">
<use xlink:href="#d"/>
<use x="63.623047" xlink:href="#e"/>
<use x="95.410156" xlink:href="#m"/>
<use x="159.033203" xlink:href="#d"/>
</g>
</g>
<g clip-path="url(#a)">
<g transform="translate(1393.6 796.85) scale(.1 -.1)">
<use xlink:href="#d"/>
<use x="63.623047" xlink:href="#e"/>
<use x="95.410156" xlink:href="#m"/>
<use x="159.033203" xlink:href="#n"/>
</g>
</g>
<g clip-path="url(#a)">
<g transform="translate(865.33 672.88) scale(.1 -.1)">
<use xlink:href="#d"/>
<use x="63.623047" xlink:href="#e"/>
<use x="95.410156" xlink:href="#m"/>
<use x="159.033203" xlink:href="#p"/>
</g>
</g>
<g clip-path="url(#a)">
<g transform="translate(960.09 796.85) scale(.1 -.1)">
<use xlink:href="#d"/>
<use x="63.623047" xlink:href="#e"/>
<use x="95.410156" xlink:href="#m"/>
<use x="159.033203" xlink:href="#m"/>
</g>
</g>
<g clip-path="url(#a)">
<g transform="translate(1026.4 796.85) scale(.1 -.1)">
<use xlink:href="#d"/>
<use x="63.623047" xlink:href="#e"/>
<use x="95.410156" xlink:href="#m"/>
<use x="159.033203" xlink:href="#o"/>
</g>
</g>
<g clip-path="url(#a)">
<g transform="translate(834.54 796.85) scale(.1 -.1)">
<use xlink:href="#d"/>
<use x="63.623047" xlink:href="#e"/>
<use x="95.410156" xlink:href="#m"/>
<use x="159.033203" xlink:href="#w"/>
</g>
</g>
<g clip-path="url(#a)">
<g transform="translate(896.13 796.85) scale(.1 -.1)">
<use xlink:href="#d"/>
<use x="63.623047" xlink:href="#e"/>
<use x="95.410156" xlink:href="#m"/>
<use x="159.033203" xlink:href="#ac"/>
</g>
</g>
<g clip-path="url(#a)">
<g transform="translate(78.883 796.85) scale(.1 -.1)">
<use xlink:href="#d"/>
<use x="63.623047" xlink:href="#e"/>
<use x="95.410156" xlink:href="#m"/>
<use x="159.033203" xlink:href="#ag"/>
</g>
</g>
<g clip-path="url(#a)">
<g transform="translate(149.95 796.85) scale(.1 -.1)">
<use xlink:href="#d"/>
<use x="63.623047" xlink:href="#e"/>
<use x="95.410156" xlink:href="#m"/>
<use x="159.033203" xlink:href="#al"/>
</g>
</g>
<g clip-path="url(#a)">
<g transform="translate(611.87 796.85) scale(.1 -.1)">
<use xlink:href="#d"/>
<use x="63.623047" xlink:href="#e"/>
<use x="95.410156" xlink:href="#o"/>
<use x="159.033203" xlink:href="#ah"/>
</g>
</g>
<g clip-path="url(#a)">
<g transform="translate(663.98 796.85) scale(.1 -.1)">
<use xlink:href="#d"/>
<use x="63.623047" xlink:href="#e"/>
<use x="95.410156" xlink:href="#o"/>
<use x="159.033203" xlink:href="#d"/>
</g>
</g>
<g clip-path="url(#a)">
<g transform="translate(718.47 796.85) scale(.1 -.1)">
<use xlink:href="#d"/>
<use x="63.623047" xlink:href="#e"/>
<use x="95.410156" xlink:href="#o"/>
<use x="159.033203" xlink:href="#n"/>
</g>
</g>
<g clip-path="url(#a)">
<g transform="translate(1095.1 796.85) scale(.1 -.1)">
<use xlink:href="#d"/>
<use x="63.623047" xlink:href="#e"/>
<use x="95.410156" xlink:href="#o"/>
<use x="159.033203" xlink:href="#p"/>
</g>
</g>
<g clip-path="url(#a)">
<g transform="translate(1474.1 796.85) scale(.1 -.1)">
<use xlink:href="#d"/>
<use x="63.623047" xlink:href="#e"/>
<use x="95.410156" xlink:href="#o"/>
<use x="159.033203" xlink:href="#m"/>
</g>
</g>
<g clip-path="url(#a)">
<g transform="translate(1557 796.85) scale(.1 -.1)">
<use xlink:href="#d"/>
<use x="63.623047" xlink:href="#e"/>
<use x="95.410156" xlink:href="#o"/>
<use x="159.033203" xlink:href="#o"/>
</g>
</g>
<g clip-path="url(#a)">
<g transform="translate(1642.3 796.85) scale(.1 -.1)">
<use xlink:href="#d"/>
<use x="63.623047" xlink:href="#e"/>
<use x="95.410156" xlink:href="#o"/>
<use x="159.033203" xlink:href="#w"/>
</g>
</g>
<g clip-path="url(#a)">
<g transform="translate(1730 796.85) scale(.1 -.1)">
<use xlink:href="#d"/>
<use x="63.623047" xlink:href="#e"/>
<use x="95.410156" xlink:href="#o"/>
<use x="159.033203" xlink:href="#ac"/>
</g>
</g>
<defs>
<clipPath id="a">
<rect width="1824" height="960"/>
</clipPath>
</defs>
</svg>
