<?xml version="1.0" encoding="UTF-8"?>
<!DOCTYPE svg  PUBLIC '-//W3C//DTD SVG 1.1//EN'  'http://www.w3.org/Graphics/SVG/1.1/DTD/svg11.dtd'>
<svg width="2077.3pt" height="1093.3pt" version="1.1" viewBox="0 0 2077.3 1093.3" xmlns="http://www.w3.org/2000/svg" xmlns:xlink="http://www.w3.org/1999/xlink">
<defs>
<style type="text/css">*{stroke-linecap:butt;stroke-linejoin:round;}</style>
</defs>
<path d="m0 1093.3h2077.3v-1093.3h-2077.3z" fill="#fff"/>
<g fill="none" stroke="#000">
<path d="m425.37 49.697-311.71 500.4" clip-path="url(#a)"/>
<path d="m425.37 49.697-261.7 831.22" clip-path="url(#a)"/>
<path d="m425.37 49.697-195.43 333.99" clip-path="url(#a)"/>
<path d="m425.37 49.697-146.29 831.22" clip-path="url(#a)"/>
<path d="m425.37 49.697-42.634 167.17" clip-path="url(#a)"/>
<path d="m425.37 49.697 292.26 831.22" clip-path="url(#a)"/>
<path d="m425.37 49.697 702.09 167.17" clip-path="url(#a)"/>
<path d="m425.37 49.697-278.48 831.22" clip-path="url(#a)"/>
<path d="m425.37 49.697 241.9 831.22" clip-path="url(#a)"/>
<path d="m113.66 550.1-12.24 165.84" clip-path="url(#a)"/>
<path d="m113.66 550.1 12.24 330.82" clip-path="url(#a)"/>
<path d="m163.67 880.92v162.71" clip-path="url(#a)"/>
<path d="m229.94 383.69-21.857 166.41" clip-path="url(#a)"/>
<path d="m229.94 383.69 21.857 497.23" clip-path="url(#a)"/>
<path d="m279.08 880.92v162.71" clip-path="url(#a)"/>
<path d="m382.73 216.86-74.28 664.06" clip-path="url(#a)"/>
<path d="m382.73 216.86-42.806 664.06" clip-path="url(#a)"/>
<path d="m382.73 216.86 126.32 166.83" clip-path="url(#a)"/>
<path d="m382.73 216.86-9.2326 664.06" clip-path="url(#a)"/>
<path d="m717.62 880.92v162.71" clip-path="url(#a)"/>
<path d="m1127.5 216.86-330.09 499.08" clip-path="url(#a)"/>
<path d="m1127.5 216.86-186.71 664.06" clip-path="url(#a)"/>
<path d="m1127.5 216.86-63.608 664.06" clip-path="url(#a)"/>
<path d="m1127.5 216.86 1.4395 664.06" clip-path="url(#a)"/>
<path d="m1127.5 216.86 68.586 664.06" clip-path="url(#a)"/>
<path d="m1127.5 216.86 372.56 166.83" clip-path="url(#a)"/>
<path d="m1127.5 216.86 137.83 664.06" clip-path="url(#a)"/>
<path d="m797.36 715.94-27.278 164.98" clip-path="url(#a)"/>
<path d="m797.36 715.94 27.278 164.98" clip-path="url(#a)"/>
<path d="m940.75 880.92-59.452 162.71" clip-path="url(#a)"/>
<path d="m940.75 880.92-0.69944 162.71" clip-path="url(#a)"/>
<path d="m940.75 880.92 60.152 162.71" clip-path="url(#a)"/>
<path d="m1063.8 880.92v162.71" clip-path="url(#a)"/>
<path d="m1128.9 880.92v162.71" clip-path="url(#a)"/>
<path d="m1196 880.92v162.71" clip-path="url(#a)"/>
<path d="m1500 383.69 115.69 497.23" clip-path="url(#a)"/>
<path d="m1500 383.69 76.785 166.41" clip-path="url(#a)"/>
<path d="m1500 383.69-675.37 497.23" clip-path="url(#a)" stroke-dasharray="3.7,1.6"/>
<path d="m1500 383.69 482.9 497.23" clip-path="url(#a)"/>
<path d="m1615.7 880.92-279.08 162.71" clip-path="url(#a)"/>
<path d="m1615.7 880.92 279.08 162.71" clip-path="url(#a)"/>
<path d="m1576.8 550.1-166.73 330.82" clip-path="url(#a)"/>
<path d="m1576.8 550.1-91.189 330.82" clip-path="url(#a)"/>
<path d="m1576.8 550.1 109.2 165.84" clip-path="url(#a)"/>
<path d="m1576.8 550.1 148.72 165.84" clip-path="url(#a)"/>
<path d="m1410.1 880.92v162.71" clip-path="url(#a)"/>
<path d="m1485.6 880.92v162.71" clip-path="url(#a)"/>
<path d="m1686 715.94 122.75 164.98" clip-path="url(#a)" stroke-dasharray="3.7,1.6"/>
<path d="m1686 715.94-122.75 164.98" clip-path="url(#a)"/>
<path d="m1725.5 715.94-82.534 164.98" clip-path="url(#a)"/>
<path d="m1725.5 715.94-0.69944 164.98" clip-path="url(#a)"/>
<path d="m1725.5 715.94 83.233 164.98" clip-path="url(#a)"/>
<path d="m1643 880.92v162.71" clip-path="url(#a)"/>
<path d="m1724.8 880.92v162.71" clip-path="url(#a)"/>
<path d="m1808.7 880.92v162.71" clip-path="url(#a)"/>
<path d="m1563.2 880.92v162.71" clip-path="url(#a)"/>
<path d="m770.08 880.92v162.71" clip-path="url(#a)"/>
<path d="m824.64 880.92v162.71" clip-path="url(#a)"/>
<path d="m308.45 880.92v162.71" clip-path="url(#a)"/>
<path d="m339.93 880.92v162.71" clip-path="url(#a)"/>
<path d="m509.05 383.69-99.88 497.23" clip-path="url(#a)"/>
<path d="m509.05 383.69-62.11 497.23" clip-path="url(#a)"/>
<path d="m509.05 383.69-11.751 166.41" clip-path="url(#a)"/>
<path d="m509.05 383.69 63.789 497.23" clip-path="url(#a)"/>
<path d="m509.05 383.69 109.95 497.23" clip-path="url(#a)"/>
<path d="m409.17 880.92v162.71" clip-path="url(#a)"/>
<path d="m446.94 880.92v162.71" clip-path="url(#a)"/>
<path d="m497.3 550.1-10.492 330.82" clip-path="url(#a)"/>
<path d="m497.3 550.1 10.492 165.84" clip-path="url(#a)"/>
<path d="m572.84 880.92v162.71" clip-path="url(#a)"/>
<path d="m619 880.92v162.71" clip-path="url(#a)"/>
<path d="m486.81 880.92v162.71" clip-path="url(#a)"/>
<path d="m507.79 715.94-20.983 164.98" clip-path="url(#a)" stroke-dasharray="3.7,1.6"/>
<path d="m507.79 715.94 20.983 164.98" clip-path="url(#a)"/>
<path d="m528.78 880.92v162.71" clip-path="url(#a)"/>
<path d="m208.08 550.1-25.53 330.82" clip-path="url(#a)"/>
<path d="m208.08 550.1 6.9944 165.84" clip-path="url(#a)"/>
<path d="m208.08 550.1 18.535 330.82" clip-path="url(#a)"/>
<path d="m251.8 880.92v162.71" clip-path="url(#a)"/>
<path d="m182.55 880.92v162.71" clip-path="url(#a)"/>
<path d="m215.08 715.94 11.541 164.98" clip-path="url(#a)" stroke-dasharray="3.7,1.6"/>
<path d="m215.08 715.94-11.541 164.98" clip-path="url(#a)"/>
<path d="m226.62 880.92v162.71" clip-path="url(#a)"/>
<path d="m203.54 880.92v162.71" clip-path="url(#a)"/>
<path d="m101.42 715.94-6.9944 164.98" clip-path="url(#a)"/>
<path d="m101.42 715.94-0.69944 164.98" clip-path="url(#a)"/>
<path d="m101.42 715.94 7.6938 164.98" clip-path="url(#a)"/>
<path d="m125.9 880.92-6.295 162.71" clip-path="url(#a)"/>
<path d="m125.9 880.92 6.2949 162.71" clip-path="url(#a)"/>
<path d="m94.424 880.92v162.71" clip-path="url(#a)"/>
<path d="m100.72 880.92v162.71" clip-path="url(#a)"/>
<path d="m109.11 880.92v162.71" clip-path="url(#a)"/>
<path d="m146.88 880.92v162.71" clip-path="url(#a)"/>
<path d="m373.5 880.92v162.71" clip-path="url(#a)"/>
<path d="m667.26 880.92v162.71" clip-path="url(#a)"/>
<path d="m1265.3 880.92v162.71" clip-path="url(#a)"/>
<path d="m1982.9 880.92v162.71" clip-path="url(#a)"/>
</g>
<path d="m273.25 305.77 3.1809-5.1066q1.2689-2.0371-0.76816-3.306l-6.5718-4.0937q-2.0371-1.2689-3.306 0.76816l-3.1809 5.1065q-1.2689 2.0371 0.76816 3.306l6.5718 4.0937q2.0371 1.2689 3.306-0.76816z" clip-path="url(#a)" fill="#fff" stroke="#fff"/>
<g clip-path="url(#a)">
<defs>
<path id="ai" d="m9.8125 72.906h9.8594v-29.891h35.844v29.891h9.8594v-72.906h-9.8594v34.719h-35.844v-34.719h-9.8594z"/>
</defs>
<g transform="translate(269.8 303.62) rotate(-58.081) scale(.08 -.08)">
<use xlink:href="#ai"/>
</g>
</g>
<path d="m299.83 469.32 1.3386-4.2518q0.72073-2.2892-1.5685-3.01l-7.3851-2.3251q-2.2892-0.72073-3.01 1.5685l-1.3386 4.2518q-0.72073 2.2892 1.5685 3.01l7.3851 2.3251q2.2892 0.72073 3.01-1.5685z" clip-path="url(#a)" fill="#fff" stroke="#fff"/>
<g clip-path="url(#a)">
<defs>
<path id="an" d="m9.8125 72.906h9.8594v-64.609h35.5v-8.2969h-45.359z"/>
</defs>
<g transform="translate(295.95 468.1) rotate(-72.524) scale(.08 -.08)">
<use xlink:href="#an"/>
</g>
</g>
<path d="m331.55 222.46 3.0383-5.1927q1.212-2.0715-0.85941-3.2835l-6.6826-3.9101q-2.0715-1.212-3.2835 0.85941l-3.0383 5.1927q-1.212 2.0715 0.85941 3.2835l6.6826 3.9101q2.0715 1.212 3.2835-0.85941z" clip-path="url(#a)" fill="#fff" stroke="#fff"/>
<g clip-path="url(#a)">
<g transform="translate(328.04 220.41) rotate(-59.667) scale(.08 -.08)">
<use xlink:href="#ai"/>
</g>
</g>
<path d="m358.01 468.59 0.77262-4.39q0.41599-2.3637-1.9477-2.7797l-7.6253-1.342q-2.3637-0.41599-2.7797 1.9477l-0.77262 4.39q-0.41599 2.3637 1.9477 2.7797l7.6253 1.342q2.3637 0.41599 2.7797-1.9477z" clip-path="url(#a)" fill="#fff" stroke="#fff"/>
<g clip-path="url(#a)">
<g transform="translate(354.01 467.89) rotate(-80.018) scale(.08 -.08)">
<use xlink:href="#an"/>
</g>
</g>
<path d="m409.38 137.74 1.4868-5.8296q0.59311-2.3256-1.7324-2.9187l-7.5023-1.9134q-2.3256-0.59311-2.9187 1.7324l-1.4868 5.8296q-0.59311 2.3256 1.7324 2.9187l7.5023 1.9134q2.3256 0.59311 2.9187-1.7324z" clip-path="url(#a)" fill="#fff" stroke="#fff"/>
<g clip-path="url(#a)">
<g transform="translate(405.45 136.74) rotate(-75.692) scale(.08 -.08)">
<use xlink:href="#ai"/>
</g>
</g>
<path d="m564.84 465.29 1.4785 4.2051q0.79606 2.2641 3.0602 1.4681l7.3042-2.5681q2.2641-0.79606 1.4681-3.0602l-1.4785-4.2051q-0.79606-2.2641-3.0602-1.4681l-7.3042 2.5681q-2.2641 0.79606-1.4681 3.0602z" clip-path="url(#a)" fill="#fff" stroke="#fff"/>
<g clip-path="url(#a)">
<g transform="translate(568.67 463.94) rotate(70.628) scale(.08 -.08)">
<use xlink:href="#an"/>
</g>
</g>
<path d="m772.03 138.68 5.8526 1.3935q2.3347 0.55589 2.8906-1.7788l1.7933-7.5319q0.55589-2.3347-1.7788-2.8906l-5.8526-1.3935q-2.3347-0.55589-2.8906 1.7788l-1.7933 7.5319q-0.55589 2.3347 1.7788 2.8906z" clip-path="url(#a)" fill="#fff" stroke="#fff"/>
<g clip-path="url(#a)">
<g transform="translate(772.97 134.73) rotate(13.393) scale(.08 -.08)">
<use xlink:href="#ai"/>
</g>
</g>
<path d="m291.14 470.08 1.86-5.5517q0.76242-2.2757-1.5133-3.0381l-7.3414-2.4596q-2.2757-0.76242-3.0381 1.5133l-1.86 5.5517q-0.76242 2.2757 1.5133 3.0381l7.3414 2.4596q2.2757 0.76242 3.0381-1.5133z" clip-path="url(#a)" fill="#fff" stroke="#fff"/>
<g clip-path="url(#a)">
<defs>
<path id="ad" d="m8.6875 72.906h9.9219v-44.297q0-11.719 4.2344-16.875 4.25-5.1406 13.781-5.1406 9.4688 0 13.719 5.1406 4.25 5.1562 4.25 16.875v44.297h9.9062v-45.516q0-14.25-7.0625-21.531-7.0469-7.2812-20.812-7.2812-13.828 0-20.891 7.2812-7.0469 7.2812-7.0469 21.531z"/>
</defs>
<g transform="translate(287.29 468.79) rotate(-71.478) scale(.08 -.08)">
<use xlink:href="#ad"/>
</g>
</g>
<path d="m539.48 464.25 1.636 5.6218q0.67061 2.3044 2.975 1.6338l7.4341-2.1634q2.3044-0.67061 1.6338-2.975l-1.636-5.6218q-0.67061-2.3044-2.975-1.6338l-7.4341 2.1634q-2.3044 0.67061-1.6338 2.975z" clip-path="url(#a)" fill="#fff" stroke="#fff"/>
<g clip-path="url(#a)">
<g transform="translate(543.38 463.12) rotate(73.774) scale(.08 -.08)">
<use xlink:href="#ad"/>
</g>
</g>
<path d="m113.59 636.21 0.4028-5.4577q0.17665-2.3935-2.2168-2.5701l-7.7215-0.56989q-2.3935-0.17665-2.5701 2.2168l-0.4028 5.4577q-0.17665 2.3935 2.2168 2.5701l7.7215 0.56989q2.3935 0.17665 2.5701-2.2168z" clip-path="url(#a)" fill="#fff" stroke="#fff"/>
<g clip-path="url(#a)">
<defs>
<path id="q" d="m34.188 63.188-13.391-36.281h26.812zm-5.5781 9.7188h11.188l27.781-72.906h-10.25l-6.6406 18.703h-32.859l-6.6406-18.703h-10.406z"/>
</defs>
<g transform="translate(109.54 635.91) rotate(-85.779) scale(.08 -.08)">
<use xlink:href="#q"/>
</g>
</g>
<path d="m113.42 713.33 0.17835 4.8205q0.088737 2.3984 2.4871 2.3096l7.7372-0.28627q2.3984-0.088738 2.3096-2.4871l-0.17835-4.8205q-0.088737-2.3984-2.4871-2.3096l-7.7372 0.28627q-2.3984 0.088738-2.3096 2.4871z" clip-path="url(#a)" fill="#fff" stroke="#fff"/>
<g clip-path="url(#a)">
<defs>
<path id="w" d="m19.672 64.797v-27.391h12.406q6.8906 0 10.641 3.5625 3.7656 3.5625 3.7656 10.156 0 6.5469-3.7656 10.109-3.75 3.5625-10.641 3.5625zm-9.8594 8.1094h22.266q12.266 0 18.531-5.5469 6.2812-5.5469 6.2812-16.234 0-10.797-6.2812-16.312-6.2656-5.5156-18.531-5.5156h-12.406v-29.297h-9.8594z"/>
</defs>
<g transform="translate(117.48 713.18) rotate(87.881) scale(.08 -.08)">
<use xlink:href="#w"/>
</g>
</g>
<path d="m157.4 945.38v33.808q0 2.4 2.4 2.4h7.7425q2.4 0 2.4-2.4v-33.808q0-2.4-2.4-2.4h-7.7425q-2.4 0-2.4 2.4z" clip-path="url(#a)" fill="#fff" stroke="#fff"/>
<g clip-path="url(#a)">
<defs>
<path id="l" d="m-0.29688 72.906h61.672v-8.3125h-25.875v-64.594h-9.9062v64.594h-25.891z"/>
<path id="c" d="m56.203 29.594v-4.3906h-41.312q0.59375-9.2812 5.5938-14.141t13.938-4.8594q5.1719 0 10.031 1.2656t9.6562 3.8125v-8.5q-4.8438-2.0469-9.9219-3.125t-10.297-1.0781q-13.094 0-20.734 7.6094-7.6406 7.625-7.6406 20.625 0 13.422 7.25 21.297 7.25 7.8906 19.562 7.8906 11.031 0 17.453-7.1094 6.4219-7.0938 6.4219-19.297zm-8.9844 2.6406q-0.09375 7.3594-4.125 11.75-4.0312 4.4062-10.672 4.4062-7.5156 0-12.031-4.25t-5.2031-11.969z"/>
<path id="e" d="m41.109 46.297q-1.5156 0.875-3.2969 1.2812-1.7812 0.42188-3.9219 0.42188-7.625 0-11.703-4.9531t-4.0781-14.234v-28.812h-9.0312v54.688h9.0312v-8.5q2.8438 4.9844 7.375 7.3906 4.5469 2.4219 11.047 2.4219 0.92188 0 2.0469-0.125 1.125-0.10938 2.4844-0.35938z"/>
<path id="j" d="m52 44.188q3.375 6.0625 8.0625 8.9375t11.031 2.875q8.5469 0 13.188-5.9844 4.6406-5.9688 4.6406-17v-33.016h-9.0312v32.719q0 7.8594-2.7969 11.656-2.7812 3.8125-8.4844 3.8125-6.9844 0-11.047-4.6406-4.0469-4.625-4.0469-12.641v-30.906h-9.0312v32.719q0 7.9062-2.7812 11.688t-8.5938 3.7812q-6.8906 0-10.953-4.6562-4.0469-4.6562-4.0469-12.625v-30.906h-9.0312v54.688h9.0312v-8.5q3.0781 5.0312 7.375 7.4219t10.203 2.3906q5.9688 0 10.141-3.0312 4.1719-3.0156 6.1719-8.7812z"/>
<path id="h" d="m9.4219 54.688h8.9844v-54.688h-8.9844zm0 21.297h8.9844v-11.391h-8.9844z"/>
<path id="g" d="m54.891 33.016v-33.016h-8.9844v32.719q0 7.7656-3.0312 11.609-3.0312 3.8594-9.0781 3.8594-7.2812 0-11.484-4.6406-4.2031-4.625-4.2031-12.641v-30.906h-9.0312v54.688h9.0312v-8.5q3.2344 4.9375 7.5938 7.375 4.375 2.4375 10.094 2.4375 9.4219 0 14.25-5.8281 4.8438-5.8281 4.8438-17.156z"/>
<path id="i" d="m34.281 27.484q-10.891 0-15.094-2.4844t-4.2031-8.5q0-4.7812 3.1562-7.5938 3.1562-2.7969 8.5625-2.7969 7.4844 0 12 5.2969t4.5156 14.078v2zm17.922 3.7188v-31.203h-8.9844v8.2969q-3.0781-4.9688-7.6719-7.3438t-11.234-2.375q-8.3906 0-13.359 4.7188-4.9531 4.7188-4.9531 12.625 0 9.2188 6.1719 13.906 6.1875 4.6875 18.438 4.6875h12.609v0.89062q0 6.2031-4.0781 9.5938t-11.453 3.3906q-4.6875 0-9.1406-1.125-4.4375-1.125-8.5312-3.375v8.3125q4.9219 1.9062 9.5625 2.8438 4.6406 0.95312 9.0312 0.95312 11.875 0 17.734-6.1562 5.8594-6.1406 5.8594-18.641z"/>
<path id="k" d="m9.4219 75.984h8.9844v-75.984h-8.9844z"/>
</defs>
<g transform="translate(161.46 945.38) rotate(90) scale(.08 -.08)">
<use xlink:href="#l"/>
<use x="44.083984" xlink:href="#c"/>
<use x="105.607422" xlink:href="#e"/>
<use x="144.970703" xlink:href="#j"/>
<use x="242.382812" xlink:href="#h"/>
<use x="270.166016" xlink:href="#g"/>
<use x="333.544922" xlink:href="#i"/>
<use x="394.824219" xlink:href="#k"/>
</g>
</g>
<path d="m224.87 470.43 0.71268-5.4259q0.31255-2.3796-2.067-2.6921l-7.6766-1.0083q-2.3796-0.31255-2.6921 2.067l-0.71268 5.4259q-0.31255 2.3796 2.067 2.6921l7.6766 1.0083q2.3796 0.31255 2.6921-2.067z" clip-path="url(#a)" fill="#fff" stroke="#fff"/>
<g clip-path="url(#a)">
<g transform="translate(220.84 469.9) rotate(-82.517) scale(.08 -.08)">
<use xlink:href="#q"/>
</g>
</g>
<path d="m234.5 630.17 0.21184 4.8191q0.1054 2.3977 2.5031 2.2923l7.735-0.34002q2.3977-0.1054 2.2923-2.5031l-0.21184-4.8191q-0.1054-2.3977-2.5031-2.2923l-7.735 0.34002q-2.3977 0.1054-2.2923 2.5031z" clip-path="url(#a)" fill="#fff" stroke="#fff"/>
<g clip-path="url(#a)">
<g transform="translate(238.56 629.99) rotate(87.483) scale(.08 -.08)">
<use xlink:href="#w"/>
</g>
</g>
<path d="m272.8 945.38v33.808q0 2.4 2.4 2.4h7.7425q2.4 0 2.4-2.4v-33.808q0-2.4-2.4-2.4h-7.7425q-2.4 0-2.4 2.4z" clip-path="url(#a)" fill="#fff" stroke="#fff"/>
<g clip-path="url(#a)">
<g transform="translate(276.87 945.38) rotate(90) scale(.08 -.08)">
<use xlink:href="#l"/>
<use x="44.083984" xlink:href="#c"/>
<use x="105.607422" xlink:href="#e"/>
<use x="144.970703" xlink:href="#j"/>
<use x="242.382812" xlink:href="#h"/>
<use x="270.166016" xlink:href="#g"/>
<use x="333.544922" xlink:href="#i"/>
<use x="394.824219" xlink:href="#k"/>
</g>
</g>
<path d="m351.52 552.31 0.60835-5.4386q0.2668-2.3851-2.1183-2.6519l-7.6945-0.86069q-2.3851-0.2668-2.6519 2.1183l-0.60835 5.4386q-0.2668 2.3851 2.1183 2.6519l7.6945 0.86069q2.3851 0.2668 2.6519-2.1183z" clip-path="url(#a)" fill="#fff" stroke="#fff"/>
<g clip-path="url(#a)">
<g transform="translate(347.48 551.86) rotate(-83.618) scale(.08 -.08)">
<use xlink:href="#q"/>
</g>
</g>
<path d="m367.43 551.7 0.3103-4.8138q0.15438-2.395-2.2406-2.5494l-7.7265-0.49805q-2.395-0.15438-2.5494 2.2406l-0.3103 4.8138q-0.15438 2.395 2.2406 2.5494l7.7265 0.49805q2.395 0.15438 2.5494-2.2406z" clip-path="url(#a)" fill="#fff" stroke="#fff"/>
<g clip-path="url(#a)">
<g transform="translate(363.38 551.44) rotate(-86.312) scale(.08 -.08)">
<use xlink:href="#w"/>
</g>
</g>
<path d="m439.24 301.88 3.3035 4.3629q1.4488 1.9134 3.3622 0.46462l6.1727-4.6738q1.9134-1.4488 0.46462-3.3622l-3.3035-4.3629q-1.4488-1.9134-3.3622-0.46462l-6.1727 4.6738q-1.9134 1.4488-0.46462 3.3622z" clip-path="url(#a)" fill="#fff" stroke="#fff"/>
<g clip-path="url(#a)">
<g transform="translate(442.48 299.43) rotate(52.868) scale(.08 -.08)">
<use xlink:href="#q"/>
</g>
</g>
<path d="m384.35 551.91 0.081396-5.8544q0.033364-2.3998-2.3664-2.4331l-7.7418-0.10764q-2.3998-0.033365-2.4331 2.3664l-0.081396 5.8544q-0.033364 2.3998 2.3664 2.4331l7.7418 0.10764q2.3998 0.033364 2.4331-2.3664z" clip-path="url(#a)" fill="#fff" stroke="#fff"/>
<g clip-path="url(#a)">
<g transform="translate(380.28 551.85) rotate(-89.203) scale(.08 -.08)">
<use xlink:href="#ad"/>
</g>
</g>
<path d="m711.35 945.38v33.808q0 2.4 2.4 2.4h7.7425q2.4 0 2.4-2.4v-33.808q0-2.4-2.4-2.4h-7.7425q-2.4 0-2.4 2.4z" clip-path="url(#a)" fill="#fff" stroke="#fff"/>
<g clip-path="url(#a)">
<g transform="translate(715.42 945.38) rotate(90) scale(.08 -.08)">
<use xlink:href="#l"/>
<use x="44.083984" xlink:href="#c"/>
<use x="105.607422" xlink:href="#e"/>
<use x="144.970703" xlink:href="#j"/>
<use x="242.382812" xlink:href="#h"/>
<use x="270.166016" xlink:href="#g"/>
<use x="333.544922" xlink:href="#i"/>
<use x="394.824219" xlink:href="#k"/>
</g>
</g>
<path d="m966.13 472.14 3.019-4.5644q1.324-2.0018-0.67779-3.3257l-6.4578-4.2712q-2.0018-1.324-3.3257 0.67779l-3.0189 4.5644q-1.324 2.0018 0.67779 3.3257l6.4578 4.2712q2.0018 1.324 3.3257-0.67779z" clip-path="url(#a)" fill="#fff" stroke="#fff"/>
<g clip-path="url(#a)">
<g transform="translate(962.74 469.9) rotate(-56.519) scale(.08 -.08)">
<use xlink:href="#q"/>
</g>
</g>
<path d="m1039.3 553.55 1.6673-5.9301q0.6496-2.3104-1.6608-2.96l-7.4535-2.0957q-2.3104-0.64961-2.96 1.6608l-1.6673 5.9301q-0.6496 2.3104 1.6608 2.96l7.4535 2.0957q2.3104 0.6496 2.96-1.6608z" clip-path="url(#a)" fill="#fff" stroke="#fff"/>
<g clip-path="url(#a)">
<defs>
<path id="aj" d="m19.672 64.797v-56.688h11.922q15.094 0 22.094 6.8281 7 6.8438 7 21.594 0 14.641-7 21.453t-22.094 6.8125zm-9.8594 8.1094h20.266q21.188 0 31.094-8.8125 9.9219-8.8125 9.9219-27.562 0-18.859-9.9688-27.703-9.9531-8.8281-31.047-8.8281h-20.266z"/>
</defs>
<g transform="translate(1035.4 552.45) rotate(-74.296) scale(.08 -.08)">
<use xlink:href="#aj"/>
</g>
</g>
<path d="m1101.6 552.56 0.58736-6.1319q0.22884-2.3891-2.1602-2.6179l-7.7072-0.73825q-2.3891-0.22884-2.6179 2.1602l-0.58736 6.1319q-0.22884 2.3891 2.1602 2.6179l7.7072 0.73825q2.3891 0.22884 2.6179-2.1602z" clip-path="url(#a)" fill="#fff" stroke="#fff"/>
<g clip-path="url(#a)">
<g transform="translate(1097.6 552.17) rotate(-84.528) scale(.08 -.08)">
<use xlink:href="#aj"/>
</g>
</g>
<path d="m1121.9 546.37 0.011009 5.0787q0.005203 2.4 2.4052 2.3948l7.7425-0.016783q2.4-0.005203 2.3948-2.4052l-0.011009-5.0787q-0.005203-2.4-2.4052-2.3948l-7.7425 0.016783q-2.4 0.005203-2.3948 2.4052z" clip-path="url(#a)" fill="#fff" stroke="#fff"/>
<g clip-path="url(#a)">
<defs>
<path id="ah" d="m53.516 70.516v-9.625q-5.6094 2.6875-10.594 4-4.9844 1.3281-9.625 1.3281-8.0469 0-12.422-3.125t-4.375-8.8906q0-4.8438 2.9062-7.3125 2.9062-2.4531 11.016-3.9688l5.9531-1.2188q11.031-2.1094 16.281-7.4062t5.25-14.172q0-10.609-7.1094-16.078-7.0938-5.4688-20.812-5.4688-5.1719 0-11.016 1.1719-5.8281 1.1719-12.078 3.4688v10.156q6-3.3594 11.766-5.0781 5.7656-1.7031 11.328-1.7031 8.4375 0 13.031 3.3125 4.5938 3.3281 4.5938 9.4844 0 5.3594-3.2969 8.3906t-10.812 4.5469l-6.0156 1.1719q-11.031 2.1875-15.969 6.875-4.9219 4.6875-4.9219 13.047 0 9.6719 6.8125 15.234t18.766 5.5625q5.1406 0 10.453-0.9375 5.3281-0.92188 10.891-2.7656z"/>
</defs>
<g transform="translate(1126 546.36) rotate(89.876) scale(.08 -.08)">
<use xlink:href="#ah"/>
</g>
</g>
<path d="m1155.3 547.25 0.47271 4.5769q0.24657 2.3873 2.6339 2.1407l7.7015-0.79543q2.3873-0.24657 2.1407-2.6339l-0.47271-4.5769q-0.24657-2.3873-2.6339-2.1407l-7.7015 0.79543q-2.3873 0.24657-2.1407 2.6339z" clip-path="url(#a)" fill="#fff" stroke="#fff"/>
<g clip-path="url(#a)">
<defs>
<path id="x" d="m9.8125 72.906h41.891v-8.3125h-32.031v-21.484h28.906v-8.2969h-28.906v-34.812h-9.8594z"/>
</defs>
<g transform="translate(1159.3 546.83) rotate(84.103) scale(.08 -.08)">
<use xlink:href="#x"/>
</g>
</g>
<path d="m1308.7 304.88 4.9946 2.2366q2.1904 0.98086 3.1713-1.2096l3.1643-7.0664q0.98086-2.1904-1.2096-3.1713l-4.9946-2.2366q-2.1904-0.98086-3.1713 1.2096l-3.1643 7.0664q-0.98086 2.1904 1.2096 3.1713z" clip-path="url(#a)" fill="#fff" stroke="#fff"/>
<g clip-path="url(#a)">
<g transform="translate(1310.3 301.17) rotate(24.123) scale(.08 -.08)">
<use xlink:href="#q"/>
</g>
</g>
<path d="m1189.6 547.3 1.1899 5.7328q0.48774 2.3499 2.8377 1.8622l7.5809-1.5735q2.3499-0.48774 1.8622-2.8377l-1.1899-5.7328q-0.48774-2.3499-2.8377-1.8622l-7.5809 1.5735q-2.3499 0.48774-1.8622 2.8377z" clip-path="url(#a)" fill="#fff" stroke="#fff"/>
<g clip-path="url(#a)">
<g transform="translate(1193.6 546.47) rotate(78.274) scale(.08 -.08)">
<use xlink:href="#ad"/>
</g>
</g>
<path d="m789.53 801.73 0.7506-4.5396q0.39151-2.3679-1.9763-2.7594l-7.6388-1.263q-2.3679-0.39151-2.7594 1.9763l-0.7506 4.5396q-0.39151 2.3679 1.9763 2.7594l7.6388 1.263q2.3679 0.39151 2.7594-1.9763z" clip-path="url(#a)" fill="#fff" stroke="#fff"/>
<g clip-path="url(#a)">
<g transform="translate(785.52 801.06) rotate(-80.611) scale(.08 -.08)">
<use xlink:href="#x"/>
</g>
</g>
<path d="m804.36 796.7 0.91128 5.5114q0.39151 2.3679 2.7594 1.9763l7.6388-1.263q2.3679-0.39151 1.9763-2.7594l-0.91128-5.5114q-0.39151-2.3679-2.7594-1.9763l-7.6388 1.263q-2.3679 0.39151-1.9763 2.7594z" clip-path="url(#a)" fill="#fff" stroke="#fff"/>
<g clip-path="url(#a)">
<defs>
<path id="y" d="m64.406 67.281v-10.391q-4.9844 4.6406-10.625 6.9219-5.6406 2.2969-11.984 2.2969-12.5 0-19.141-7.6406t-6.6406-22.094q0-14.406 6.6406-22.047t19.141-7.6406q6.3438 0 11.984 2.2969t10.625 6.9375v-10.312q-5.1719-3.5156-10.969-5.2812-5.7812-1.75-12.219-1.75-16.562 0-26.094 10.125-9.5156 10.141-9.5156 27.672 0 17.578 9.5156 27.703 9.5312 10.141 26.094 10.141 6.5312 0 12.312-1.7344 5.7969-1.7344 10.875-5.2031z"/>
</defs>
<g transform="translate(808.37 796.04) rotate(80.611) scale(.08 -.08)">
<use xlink:href="#y"/>
</g>
</g>
<path d="m911.11 980.31 11.602-31.754q0.82365-2.2542-1.4306-3.0779l-7.2723-2.6571q-2.2542-0.82365-3.0779 1.4306l-11.602 31.754q-0.82365 2.2542 1.4306 3.0779l7.2723 2.6571q2.2542 0.82365 3.0779-1.4306z" clip-path="url(#a)" fill="#fff" stroke="#fff"/>
<g clip-path="url(#a)">
<g transform="translate(907.29 978.91) rotate(-69.929) scale(.08 -.08)">
<use xlink:href="#l"/>
<use x="44.083984" xlink:href="#c"/>
<use x="105.607422" xlink:href="#e"/>
<use x="144.970703" xlink:href="#j"/>
<use x="242.382812" xlink:href="#h"/>
<use x="270.166016" xlink:href="#g"/>
<use x="333.544922" xlink:href="#i"/>
<use x="394.824219" xlink:href="#k"/>
</g>
</g>
<path d="m946.59 979.21 0.14532-33.807q0.010316-2.4-2.3897-2.4103l-7.7424-0.033281q-2.4-0.010317-2.4103 2.3897l-0.14532 33.807q-0.010317 2.4 2.3897 2.4103l7.7424 0.033281q2.4 0.010317 2.4103-2.3897z" clip-path="url(#a)" fill="#fff" stroke="#fff"/>
<g clip-path="url(#a)">
<g transform="translate(942.53 979.19) rotate(-89.754) scale(.08 -.08)">
<use xlink:href="#l"/>
<use x="44.083984" xlink:href="#c"/>
<use x="105.607422" xlink:href="#e"/>
<use x="144.970703" xlink:href="#j"/>
<use x="242.382812" xlink:href="#h"/>
<use x="270.166016" xlink:href="#g"/>
<use x="333.544922" xlink:href="#i"/>
<use x="394.824219" xlink:href="#k"/>
</g>
</g>
<path d="m959.08 948.6 11.722 31.71q0.83218 2.2511 3.0833 1.4189l7.2622-2.6846q2.2511-0.83218 1.4189-3.0833l-11.722-31.71q-0.83218-2.2511-3.0833-1.4189l-7.2622 2.6846q-2.2511 0.83218-1.4189 3.0833z" clip-path="url(#a)" fill="#fff" stroke="#fff"/>
<g clip-path="url(#a)">
<g transform="translate(962.89 947.19) rotate(69.712) scale(.08 -.08)">
<use xlink:href="#l"/>
<use x="44.083984" xlink:href="#c"/>
<use x="105.607422" xlink:href="#e"/>
<use x="144.970703" xlink:href="#j"/>
<use x="242.382812" xlink:href="#h"/>
<use x="270.166016" xlink:href="#g"/>
<use x="333.544922" xlink:href="#i"/>
<use x="394.824219" xlink:href="#k"/>
</g>
</g>
<path d="m1057.6 945.38v33.808q0 2.4 2.4 2.4h7.7425q2.4 0 2.4-2.4v-33.808q0-2.4-2.4-2.4h-7.7425q-2.4 0-2.4 2.4z" clip-path="url(#a)" fill="#fff" stroke="#fff"/>
<g clip-path="url(#a)">
<g transform="translate(1061.6 945.38) rotate(90) scale(.08 -.08)">
<use xlink:href="#l"/>
<use x="44.083984" xlink:href="#c"/>
<use x="105.607422" xlink:href="#e"/>
<use x="144.970703" xlink:href="#j"/>
<use x="242.382812" xlink:href="#h"/>
<use x="270.166016" xlink:href="#g"/>
<use x="333.544922" xlink:href="#i"/>
<use x="394.824219" xlink:href="#k"/>
</g>
</g>
<path d="m1122.6 945.38v33.808q0 2.4 2.4 2.4h7.7425q2.4 0 2.4-2.4v-33.808q0-2.4-2.4-2.4h-7.7425q-2.4 0-2.4 2.4z" clip-path="url(#a)" fill="#fff" stroke="#fff"/>
<g clip-path="url(#a)">
<g transform="translate(1126.7 945.38) rotate(90) scale(.08 -.08)">
<use xlink:href="#l"/>
<use x="44.083984" xlink:href="#c"/>
<use x="105.607422" xlink:href="#e"/>
<use x="144.970703" xlink:href="#j"/>
<use x="242.382812" xlink:href="#h"/>
<use x="270.166016" xlink:href="#g"/>
<use x="333.544922" xlink:href="#i"/>
<use x="394.824219" xlink:href="#k"/>
</g>
</g>
<path d="m1189.8 945.38v33.808q0 2.4 2.4 2.4h7.7425q2.4 0 2.4-2.4v-33.808q0-2.4-2.4-2.4h-7.7425q-2.4 0-2.4 2.4z" clip-path="url(#a)" fill="#fff" stroke="#fff"/>
<g clip-path="url(#a)">
<g transform="translate(1193.8 945.38) rotate(90) scale(.08 -.08)">
<use xlink:href="#l"/>
<use x="44.083984" xlink:href="#c"/>
<use x="105.607422" xlink:href="#e"/>
<use x="144.970703" xlink:href="#j"/>
<use x="242.382812" xlink:href="#h"/>
<use x="270.166016" xlink:href="#g"/>
<use x="333.544922" xlink:href="#i"/>
<use x="394.824219" xlink:href="#k"/>
</g>
</g>
<path d="m1551.2 631.38 1.0932 4.6983q0.54388 2.3376 2.8814 1.7937l7.5411-1.7546q2.3376-0.54388 1.7937-2.8814l-1.0932-4.6983q-0.54388-2.3376-2.8814-1.7937l-7.5411 1.7546q-2.3376 0.54388-1.7937 2.8814z" clip-path="url(#a)" fill="#fff" stroke="#fff"/>
<g clip-path="url(#a)">
<g transform="translate(1555.2 630.46) rotate(76.902) scale(.08 -.08)">
<use xlink:href="#w"/>
</g>
</g>
<path d="m1531.6 467.04 2.2928 4.969q1.0055 2.1792 3.1847 1.1737l7.0302-3.2439q2.1792-1.0055 1.1737-3.1847l-2.2928-4.969q-1.0055-2.1792-3.1847-1.1737l-7.0302 3.2439q-2.1792 1.0055-1.1737 3.1847z" clip-path="url(#a)" fill="#fff" stroke="#fff"/>
<g clip-path="url(#a)">
<g transform="translate(1535.3 465.34) rotate(65.23) scale(.08 -.08)">
<use xlink:href="#q"/>
</g>
</g>
<path d="m1163.8 638.98 4.407-3.2445q1.9327-1.4229 0.50979-3.3556l-4.5904-6.235q-1.4229-1.9327-3.3556-0.50979l-4.407 3.2445q-1.9327 1.4229-0.50979 3.3556l4.5904 6.235q1.4229 1.9327 3.3556 0.50979z" clip-path="url(#a)" fill="#fff" stroke="#fff"/>
<g clip-path="url(#a)">
<g transform="translate(1161.4 635.71) rotate(-36.362) scale(.08 -.08)">
<use xlink:href="#q"/>
</g>
</g>
<path d="m1734.9 634.58 4.0791 4.2002q1.6721 1.7217 3.3938 0.04963l5.5542-5.3941q1.7217-1.6721 0.04963-3.3938l-4.0791-4.2002q-1.6721-1.7217-3.3938-0.04963l-5.5542 5.3941q-1.7217 1.6721-0.04963 3.3938z" clip-path="url(#a)" fill="#fff" stroke="#fff"/>
<g clip-path="url(#a)">
<g transform="translate(1737.8 631.74) rotate(45.838) scale(.08 -.08)">
<use xlink:href="#ad"/>
</g>
</g>
<path d="m1464.7 976.21 29.206-17.028q2.0733-1.2088 0.86448-3.2822l-3.8998-6.6886q-1.2088-2.0733-3.2822-0.86448l-29.206 17.028q-2.0733 1.2088-0.86448 3.2822l3.8998 6.6886q1.2088 2.0733 3.2822 0.86448z" clip-path="url(#a)" fill="#fff" stroke="#fff"/>
<g clip-path="url(#a)">
<g transform="translate(1462.7 972.7) rotate(-30.244) scale(.08 -.08)">
<use xlink:href="#l"/>
<use x="44.083984" xlink:href="#c"/>
<use x="105.607422" xlink:href="#e"/>
<use x="144.970703" xlink:href="#j"/>
<use x="242.382812" xlink:href="#h"/>
<use x="270.166016" xlink:href="#g"/>
<use x="333.544922" xlink:href="#i"/>
<use x="394.824219" xlink:href="#k"/>
</g>
</g>
<path d="m1737.5 959.18 29.206 17.028q2.0733 1.2088 3.2822-0.86448l3.8998-6.6886q1.2088-2.0733-0.86448-3.2822l-29.206-17.028q-2.0733-1.2088-3.2822 0.86448l-3.8998 6.6886q-1.2088 2.0733 0.86448 3.2822z" clip-path="url(#a)" fill="#fff" stroke="#fff"/>
<g clip-path="url(#a)">
<g transform="translate(1739.5 955.67) rotate(30.244) scale(.08 -.08)">
<use xlink:href="#l"/>
<use x="44.083984" xlink:href="#c"/>
<use x="105.607422" xlink:href="#e"/>
<use x="144.970703" xlink:href="#j"/>
<use x="242.382812" xlink:href="#h"/>
<use x="270.166016" xlink:href="#g"/>
<use x="333.544922" xlink:href="#i"/>
<use x="394.824219" xlink:href="#k"/>
</g>
</g>
<path d="m1497.8 720.81 2.5018-4.964q1.0801-2.1432-1.0631-3.2233l-6.9141-3.4846q-2.1432-1.0801-3.2233 1.0631l-2.5018 4.964q-1.0801 2.1432 1.0631 3.2233l6.9141 3.4846q2.1432 1.0801 3.2233-1.0631z" clip-path="url(#a)" fill="#fff" stroke="#fff"/>
<g clip-path="url(#a)">
<defs>
<path id="ar" d="m44.391 34.188q3.1719-1.0781 6.1719-4.5938t6.0312-9.6719l10.016-19.922h-10.609l-9.3125 18.703q-3.625 7.3281-7.0156 9.7188t-9.25 2.3906h-10.75v-30.812h-9.8594v72.906h22.266q12.5 0 18.656-5.2344 6.1562-5.2188 6.1562-15.766 0-6.8906-3.2031-11.438-3.2031-4.5312-9.2969-6.2812zm-24.719 30.609v-25.875h12.406q7.125 0 10.766 3.2969t3.6406 9.6875-3.6406 9.6406-10.766 3.25z"/>
</defs>
<g transform="translate(1494.2 718.99) rotate(-63.253) scale(.08 -.08)">
<use xlink:href="#ar"/>
</g>
</g>
<path d="m1536.6 719.39 1.2227-4.4358q0.63776-2.3137-1.6759-2.9515l-7.4641-2.0574q-2.3137-0.63776-2.9515 1.6759l-1.2227 4.4358q-0.63776 2.3137 1.6759 2.9515l7.4641 2.0574q2.3137 0.63776 2.9515-1.6759z" clip-path="url(#a)" fill="#fff" stroke="#fff"/>
<g clip-path="url(#a)">
<g transform="translate(1532.7 718.32) rotate(-74.589) scale(.08 -.08)">
<use xlink:href="#x"/>
</g>
</g>
<path d="m1624.6 634.14 3.0721 4.6657q1.3199 2.0045 3.3243 0.68463l6.4666-4.2579q2.0045-1.3199 0.68463-3.3243l-3.0721-4.6657q-1.3199-2.0045-3.3243-0.68463l-6.4666 4.2579q-2.0045 1.3199-0.68463 3.3243z" clip-path="url(#a)" fill="#fff" stroke="#fff"/>
<g clip-path="url(#a)">
<g transform="translate(1628 631.9) rotate(56.637) scale(.08 -.08)">
<use xlink:href="#y"/>
</g>
</g>
<path d="m1644.8 635.33 3.3748 3.7635q1.6023 1.7868 3.3891 0.18451l5.7643-5.1691q1.7868-1.6023 0.18451-3.3891l-3.3748-3.7635q-1.6023-1.7868-3.3891-0.18451l-5.7643 5.1691q-1.7868 1.6023-0.18451 3.3891z" clip-path="url(#a)" fill="#fff" stroke="#fff"/>
<g clip-path="url(#a)">
<defs>
<path id="ae" d="m9.8125 72.906h46.094v-8.3125h-36.234v-21.578h34.719v-8.2969h-34.719v-26.422h37.109v-8.2969h-46.969z"/>
</defs>
<g transform="translate(1647.8 632.61) rotate(48.116) scale(.08 -.08)">
<use xlink:href="#ae"/>
</g>
</g>
<path d="m1403.8 945.38v33.808q0 2.4 2.4 2.4h7.7425q2.4 0 2.4-2.4v-33.808q0-2.4-2.4-2.4h-7.7425q-2.4 0-2.4 2.4z" clip-path="url(#a)" fill="#fff" stroke="#fff"/>
<g clip-path="url(#a)">
<g transform="translate(1407.9 945.38) rotate(90) scale(.08 -.08)">
<use xlink:href="#l"/>
<use x="44.083984" xlink:href="#c"/>
<use x="105.607422" xlink:href="#e"/>
<use x="144.970703" xlink:href="#j"/>
<use x="242.382812" xlink:href="#h"/>
<use x="270.166016" xlink:href="#g"/>
<use x="333.544922" xlink:href="#i"/>
<use x="394.824219" xlink:href="#k"/>
</g>
</g>
<path d="m1479.3 945.38v33.808q0 2.4 2.4 2.4h7.7425q2.4 0 2.4-2.4v-33.808q0-2.4-2.4-2.4h-7.7425q-2.4 0-2.4 2.4z" clip-path="url(#a)" fill="#fff" stroke="#fff"/>
<g clip-path="url(#a)">
<g transform="translate(1483.4 945.38) rotate(90) scale(.08 -.08)">
<use xlink:href="#l"/>
<use x="44.083984" xlink:href="#c"/>
<use x="105.607422" xlink:href="#e"/>
<use x="144.970703" xlink:href="#j"/>
<use x="242.382812" xlink:href="#h"/>
<use x="270.166016" xlink:href="#g"/>
<use x="333.544922" xlink:href="#i"/>
<use x="394.824219" xlink:href="#k"/>
</g>
</g>
<path d="m1740.7 799.98 3.2667 4.3905q1.4327 1.9255 3.3581 0.49284l6.2117-4.6218q1.9255-1.4327 0.49284-3.3581l-3.2667-4.3905q-1.4327-1.9255-3.3581-0.49284l-6.2117 4.6218q-1.9255 1.4327-0.49284 3.3581z" clip-path="url(#a)" fill="#fff" stroke="#fff"/>
<g clip-path="url(#a)">
<g transform="translate(1744 797.55) rotate(53.349) scale(.08 -.08)">
<use xlink:href="#q"/>
</g>
</g>
<path d="m1628.2 804.11 2.8795-3.87q1.4327-1.9255-0.49284-3.3581l-6.2117-4.6218q-1.9255-1.4327-3.3581 0.49284l-2.8795 3.87q-1.4327 1.9255 0.49284 3.3581l6.2117 4.6218q1.9255 1.4327 3.3581-0.49284z" clip-path="url(#a)" fill="#fff" stroke="#fff"/>
<g clip-path="url(#a)">
<g transform="translate(1625 801.69) rotate(-53.349) scale(.08 -.08)">
<use xlink:href="#w"/>
</g>
</g>
<path d="m1688.6 803.72 2.487-4.9714q1.0738-2.1464-1.0726-3.2202l-6.9244-3.464q-2.1464-1.0738-3.2202 1.0726l-2.487 4.9714q-1.0738 2.1464 1.0726 3.2202l6.9244 3.464q2.1464 1.0738 3.2202-1.0726z" clip-path="url(#a)" fill="#fff" stroke="#fff"/>
<g clip-path="url(#a)">
<g transform="translate(1685 801.91) rotate(-63.423) scale(.08 -.08)">
<use xlink:href="#ar"/>
</g>
</g>
<path d="m1731.4 800.99 0.021431-5.055q0.010175-2.4-2.3898-2.4102l-7.7424-0.032825q-2.4-0.010175-2.4102 2.3898l-0.021431 5.055q-0.010175 2.4 2.3898 2.4102l7.7424 0.032824q2.4 0.010175 2.4102-2.3898z" clip-path="url(#a)" fill="#fff" stroke="#fff"/>
<g clip-path="url(#a)">
<g transform="translate(1727.4 800.97) rotate(-89.757) scale(.08 -.08)">
<use xlink:href="#ae"/>
</g>
</g>
<path d="m1760.3 798.76 2.5162 4.9875q1.081 2.1427 3.2238 1.0617l6.9126-3.4875q2.1427-1.081 1.0617-3.2238l-2.5162-4.9875q-1.081-2.1427-3.2238-1.0617l-6.9126 3.4875q-2.1427 1.081-1.0617 3.2238z" clip-path="url(#a)" fill="#fff" stroke="#fff"/>
<g clip-path="url(#a)">
<g transform="translate(1763.9 796.93) rotate(63.229) scale(.08 -.08)">
<use xlink:href="#y"/>
</g>
</g>
<path d="m1636.7 945.38v33.808q0 2.4 2.4 2.4h7.7425q2.4 0 2.4-2.4v-33.808q0-2.4-2.4-2.4h-7.7425q-2.4 0-2.4 2.4z" clip-path="url(#a)" fill="#fff" stroke="#fff"/>
<g clip-path="url(#a)">
<g transform="translate(1640.8 945.38) rotate(90) scale(.08 -.08)">
<use xlink:href="#l"/>
<use x="44.083984" xlink:href="#c"/>
<use x="105.607422" xlink:href="#e"/>
<use x="144.970703" xlink:href="#j"/>
<use x="242.382812" xlink:href="#h"/>
<use x="270.166016" xlink:href="#g"/>
<use x="333.544922" xlink:href="#i"/>
<use x="394.824219" xlink:href="#k"/>
</g>
</g>
<path d="m1718.5 945.38v33.808q0 2.4 2.4 2.4h7.7425q2.4 0 2.4-2.4v-33.808q0-2.4-2.4-2.4h-7.7425q-2.4 0-2.4 2.4z" clip-path="url(#a)" fill="#fff" stroke="#fff"/>
<g clip-path="url(#a)">
<g transform="translate(1722.6 945.38) rotate(90) scale(.08 -.08)">
<use xlink:href="#l"/>
<use x="44.083984" xlink:href="#c"/>
<use x="105.607422" xlink:href="#e"/>
<use x="144.970703" xlink:href="#j"/>
<use x="242.382812" xlink:href="#h"/>
<use x="270.166016" xlink:href="#g"/>
<use x="333.544922" xlink:href="#i"/>
<use x="394.824219" xlink:href="#k"/>
</g>
</g>
<path d="m1802.5 945.38v33.808q0 2.4 2.4 2.4h7.7425q2.4 0 2.4-2.4v-33.808q0-2.4-2.4-2.4h-7.7425q-2.4 0-2.4 2.4z" clip-path="url(#a)" fill="#fff" stroke="#fff"/>
<g clip-path="url(#a)">
<g transform="translate(1806.5 945.38) rotate(90) scale(.08 -.08)">
<use xlink:href="#l"/>
<use x="44.083984" xlink:href="#c"/>
<use x="105.607422" xlink:href="#e"/>
<use x="144.970703" xlink:href="#j"/>
<use x="242.382812" xlink:href="#h"/>
<use x="270.166016" xlink:href="#g"/>
<use x="333.544922" xlink:href="#i"/>
<use x="394.824219" xlink:href="#k"/>
</g>
</g>
<path d="m1557 945.38v33.808q0 2.4 2.4 2.4h7.7425q2.4 0 2.4-2.4v-33.808q0-2.4-2.4-2.4h-7.7425q-2.4 0-2.4 2.4z" clip-path="url(#a)" fill="#fff" stroke="#fff"/>
<g clip-path="url(#a)">
<g transform="translate(1561 945.38) rotate(90) scale(.08 -.08)">
<use xlink:href="#l"/>
<use x="44.083984" xlink:href="#c"/>
<use x="105.607422" xlink:href="#e"/>
<use x="144.970703" xlink:href="#j"/>
<use x="242.382812" xlink:href="#h"/>
<use x="270.166016" xlink:href="#g"/>
<use x="333.544922" xlink:href="#i"/>
<use x="394.824219" xlink:href="#k"/>
</g>
</g>
<path d="m763.81 945.38v33.808q0 2.4 2.4 2.4h7.7425q2.4 0 2.4-2.4v-33.808q0-2.4-2.4-2.4h-7.7425q-2.4 0-2.4 2.4z" clip-path="url(#a)" fill="#fff" stroke="#fff"/>
<g clip-path="url(#a)">
<g transform="translate(767.87 945.38) rotate(90) scale(.08 -.08)">
<use xlink:href="#l"/>
<use x="44.083984" xlink:href="#c"/>
<use x="105.607422" xlink:href="#e"/>
<use x="144.970703" xlink:href="#j"/>
<use x="242.382812" xlink:href="#h"/>
<use x="270.166016" xlink:href="#g"/>
<use x="333.544922" xlink:href="#i"/>
<use x="394.824219" xlink:href="#k"/>
</g>
</g>
<path d="m818.37 945.38v33.808q0 2.4 2.4 2.4h7.7425q2.4 0 2.4-2.4v-33.808q0-2.4-2.4-2.4h-7.7425q-2.4 0-2.4 2.4z" clip-path="url(#a)" fill="#fff" stroke="#fff"/>
<g clip-path="url(#a)">
<g transform="translate(822.43 945.38) rotate(90) scale(.08 -.08)">
<use xlink:href="#l"/>
<use x="44.083984" xlink:href="#c"/>
<use x="105.607422" xlink:href="#e"/>
<use x="144.970703" xlink:href="#j"/>
<use x="242.382812" xlink:href="#h"/>
<use x="270.166016" xlink:href="#g"/>
<use x="333.544922" xlink:href="#i"/>
<use x="394.824219" xlink:href="#k"/>
</g>
</g>
<path d="m302.18 945.38v33.808q0 2.4 2.4 2.4h7.7425q2.4 0 2.4-2.4v-33.808q0-2.4-2.4-2.4h-7.7425q-2.4 0-2.4 2.4z" clip-path="url(#a)" fill="#fff" stroke="#fff"/>
<g clip-path="url(#a)">
<g transform="translate(306.25 945.38) rotate(90) scale(.08 -.08)">
<use xlink:href="#l"/>
<use x="44.083984" xlink:href="#c"/>
<use x="105.607422" xlink:href="#e"/>
<use x="144.970703" xlink:href="#j"/>
<use x="242.382812" xlink:href="#h"/>
<use x="270.166016" xlink:href="#g"/>
<use x="333.544922" xlink:href="#i"/>
<use x="394.824219" xlink:href="#k"/>
</g>
</g>
<path d="m333.66 945.38v33.808q0 2.4 2.4 2.4h7.7425q2.4 0 2.4-2.4v-33.808q0-2.4-2.4-2.4h-7.7425q-2.4 0-2.4 2.4z" clip-path="url(#a)" fill="#fff" stroke="#fff"/>
<g clip-path="url(#a)">
<g transform="translate(337.72 945.38) rotate(90) scale(.08 -.08)">
<use xlink:href="#l"/>
<use x="44.083984" xlink:href="#c"/>
<use x="105.607422" xlink:href="#e"/>
<use x="144.970703" xlink:href="#j"/>
<use x="242.382812" xlink:href="#h"/>
<use x="270.166016" xlink:href="#g"/>
<use x="333.544922" xlink:href="#i"/>
<use x="394.824219" xlink:href="#k"/>
</g>
</g>
<path d="m464.81 635.8 0.90616-4.5111q0.47265-2.353-1.8803-2.8257l-7.5909-1.5248q-2.353-0.47265-2.8256 1.8803l-0.90616 4.5111q-0.47265 2.353 1.8803 2.8257l7.5909 1.5248q2.353 0.47265 2.8257-1.8803z" clip-path="url(#a)" fill="#fff" stroke="#fff"/>
<g clip-path="url(#a)">
<g transform="translate(460.82 635) rotate(-78.642) scale(.08 -.08)">
<use xlink:href="#x"/>
</g>
</g>
<path d="m483.84 636.14 0.76353-6.1125q0.29748-2.3815-2.084-2.679l-7.6828-0.95968q-2.3815-0.29748-2.679 2.084l-0.76353 6.1125q-0.29748 2.3815 2.084 2.679l7.6828 0.95968q2.3815 0.29748 2.679-2.084z" clip-path="url(#a)" fill="#fff" stroke="#fff"/>
<g clip-path="url(#a)">
<g transform="translate(479.81 635.64) rotate(-82.88) scale(.08 -.08)">
<use xlink:href="#aj"/>
</g>
</g>
<path d="m509.24 470.07 0.38547-5.4589q0.16905-2.394-2.225-2.5631l-7.7233-0.54536q-2.394-0.16905-2.5631 2.225l-0.38547 5.4589q-0.16905 2.394 2.225 2.5631l7.7233 0.54536q2.394 0.16905 2.5631-2.225z" clip-path="url(#a)" fill="#fff" stroke="#fff"/>
<g clip-path="url(#a)">
<g transform="translate(505.19 469.78) rotate(-85.961) scale(.08 -.08)">
<use xlink:href="#q"/>
</g>
</g>
<path d="m534.38 630.39 0.69635 5.428q0.30539 2.3805 2.6859 2.0751l7.6796-0.9852q2.3805-0.30539 2.0751-2.6859l-0.69635-5.428q-0.30539-2.3805-2.6859-2.0751l-7.6796 0.9852q-2.3805 0.30539-2.0751 2.6859z" clip-path="url(#a)" fill="#fff" stroke="#fff"/>
<g clip-path="url(#a)">
<g transform="translate(538.41 629.87) rotate(82.69) scale(.08 -.08)">
<use xlink:href="#q"/>
</g>
</g>
<path d="m557.38 631.31 1.0415 4.71q0.51819 2.3434 2.8616 1.8252l7.5599-1.6717q2.3434-0.51819 1.8252-2.8616l-1.0415-4.71q-0.51819-2.3434-2.8616-1.8252l-7.5599 1.6717q-2.3434 0.51819-1.8252 2.8616z" clip-path="url(#a)" fill="#fff" stroke="#fff"/>
<g clip-path="url(#a)">
<g transform="translate(561.35 630.43) rotate(77.531) scale(.08 -.08)">
<use xlink:href="#w"/>
</g>
</g>
<path d="m402.9 945.38v33.808q0 2.4 2.4 2.4h7.7425q2.4 0 2.4-2.4v-33.808q0-2.4-2.4-2.4h-7.7425q-2.4 0-2.4 2.4z" clip-path="url(#a)" fill="#fff" stroke="#fff"/>
<g clip-path="url(#a)">
<g transform="translate(406.96 945.38) rotate(90) scale(.08 -.08)">
<use xlink:href="#l"/>
<use x="44.083984" xlink:href="#c"/>
<use x="105.607422" xlink:href="#e"/>
<use x="144.970703" xlink:href="#j"/>
<use x="242.382812" xlink:href="#h"/>
<use x="270.166016" xlink:href="#g"/>
<use x="333.544922" xlink:href="#i"/>
<use x="394.824219" xlink:href="#k"/>
</g>
</g>
<path d="m440.67 945.38v33.808q0 2.4 2.4 2.4h7.7425q2.4 0 2.4-2.4v-33.808q0-2.4-2.4-2.4h-7.7425q-2.4 0-2.4 2.4z" clip-path="url(#a)" fill="#fff" stroke="#fff"/>
<g clip-path="url(#a)">
<g transform="translate(444.73 945.38) rotate(90) scale(.08 -.08)">
<use xlink:href="#l"/>
<use x="44.083984" xlink:href="#c"/>
<use x="105.607422" xlink:href="#e"/>
<use x="144.970703" xlink:href="#j"/>
<use x="242.382812" xlink:href="#h"/>
<use x="270.166016" xlink:href="#g"/>
<use x="333.544922" xlink:href="#i"/>
<use x="394.824219" xlink:href="#k"/>
</g>
</g>
<path d="m498.24 718.24 0.16023-5.0525q0.076074-2.3988-2.3227-2.4749l-7.7386-0.24542q-2.3988-0.076075-2.4749 2.3227l-0.16023 5.0525q-0.076074 2.3988 2.3227 2.4749l7.7386 0.24542q2.3988 0.076075 2.4749-2.3227z" clip-path="url(#a)" fill="#fff" stroke="#fff"/>
<g clip-path="url(#a)">
<g transform="translate(494.18 718.11) rotate(-88.184) scale(.08 -.08)">
<use xlink:href="#ae"/>
</g>
</g>
<path d="m496.11 630.63 0.35269 5.5751q0.15152 2.3952 2.5467 2.2437l7.7271-0.48883q2.3952-0.15152 2.2437-2.5467l-0.35269-5.5751q-0.15153-2.3952-2.5467-2.2437l-7.7271 0.48883q-2.3952 0.15153-2.2437 2.5467z" clip-path="url(#a)" fill="#fff" stroke="#fff"/>
<g clip-path="url(#a)">
<g transform="translate(500.17 630.37) rotate(86.38) scale(.08 -.08)">
<use xlink:href="#y"/>
</g>
</g>
<path d="m566.57 945.38v33.808q0 2.4 2.4 2.4h7.7425q2.4 0 2.4-2.4v-33.808q0-2.4-2.4-2.4h-7.7425q-2.4 0-2.4 2.4z" clip-path="url(#a)" fill="#fff" stroke="#fff"/>
<g clip-path="url(#a)">
<g transform="translate(570.63 945.38) rotate(90) scale(.08 -.08)">
<use xlink:href="#l"/>
<use x="44.083984" xlink:href="#c"/>
<use x="105.607422" xlink:href="#e"/>
<use x="144.970703" xlink:href="#j"/>
<use x="242.382812" xlink:href="#h"/>
<use x="270.166016" xlink:href="#g"/>
<use x="333.544922" xlink:href="#i"/>
<use x="394.824219" xlink:href="#k"/>
</g>
</g>
<path d="m612.73 945.38v33.808q0 2.4 2.4 2.4h7.7425q2.4 0 2.4-2.4v-33.808q0-2.4-2.4-2.4h-7.7425q-2.4 0-2.4 2.4z" clip-path="url(#a)" fill="#fff" stroke="#fff"/>
<g clip-path="url(#a)">
<g transform="translate(616.8 945.38) rotate(90) scale(.08 -.08)">
<use xlink:href="#l"/>
<use x="44.083984" xlink:href="#c"/>
<use x="105.607422" xlink:href="#e"/>
<use x="144.970703" xlink:href="#j"/>
<use x="242.382812" xlink:href="#h"/>
<use x="270.166016" xlink:href="#g"/>
<use x="333.544922" xlink:href="#i"/>
<use x="394.824219" xlink:href="#k"/>
</g>
</g>
<path d="m480.54 945.38v33.808q0 2.4 2.4 2.4h7.7425q2.4 0 2.4-2.4v-33.808q0-2.4-2.4-2.4h-7.7425q-2.4 0-2.4 2.4z" clip-path="url(#a)" fill="#fff" stroke="#fff"/>
<g clip-path="url(#a)">
<g transform="translate(484.6 945.38) rotate(90) scale(.08 -.08)">
<use xlink:href="#l"/>
<use x="44.083984" xlink:href="#c"/>
<use x="105.607422" xlink:href="#e"/>
<use x="144.970703" xlink:href="#j"/>
<use x="242.382812" xlink:href="#h"/>
<use x="270.166016" xlink:href="#g"/>
<use x="333.544922" xlink:href="#i"/>
<use x="394.824219" xlink:href="#k"/>
</g>
</g>
<path d="m503.18 801.94 0.69047-5.4288q0.30281-2.3808-2.078-2.6836l-7.6806-0.97688q-2.3808-0.30281-2.6836 2.078l-0.69047 5.4288q-0.30281 2.3808 2.078 2.6836l7.6806 0.97688q2.3808 0.30281 2.6836-2.078z" clip-path="url(#a)" fill="#fff" stroke="#fff"/>
<g clip-path="url(#a)">
<g transform="translate(499.15 801.43) rotate(-82.752) scale(.08 -.08)">
<use xlink:href="#q"/>
</g>
</g>
<path d="m511.74 796.7 0.64079 5.0382q0.30281 2.3808 2.6836 2.078l7.6806-0.97688q2.3808-0.30281 2.078-2.6836l-0.64079-5.0382q-0.30281-2.3808-2.6836-2.078l-7.6806 0.97688q-2.3808 0.30281-2.078 2.6836z" clip-path="url(#a)" fill="#fff" stroke="#fff"/>
<g clip-path="url(#a)">
<g transform="translate(515.77 796.19) rotate(82.752) scale(.08 -.08)">
<use xlink:href="#ah"/>
</g>
</g>
<path d="m522.5 945.38v33.808q0 2.4 2.4 2.4h7.7425q2.4 0 2.4-2.4v-33.808q0-2.4-2.4-2.4h-7.7425q-2.4 0-2.4 2.4z" clip-path="url(#a)" fill="#fff" stroke="#fff"/>
<g clip-path="url(#a)">
<g transform="translate(526.57 945.38) rotate(90) scale(.08 -.08)">
<use xlink:href="#l"/>
<use x="44.083984" xlink:href="#c"/>
<use x="105.607422" xlink:href="#e"/>
<use x="144.970703" xlink:href="#j"/>
<use x="242.382812" xlink:href="#h"/>
<use x="270.166016" xlink:href="#g"/>
<use x="333.544922" xlink:href="#i"/>
<use x="394.824219" xlink:href="#k"/>
</g>
</g>
<path d="m201.39 718.29 0.35403-4.5876q0.18466-2.3929-2.2082-2.5775l-7.7195-0.59572q-2.3929-0.18466-2.5775 2.2082l-0.35402 4.5876q-0.18466 2.3929 2.2082 2.5775l7.7195 0.59572q2.3929 0.18466 2.5775-2.2082z" clip-path="url(#a)" fill="#fff" stroke="#fff"/>
<g clip-path="url(#a)">
<g transform="translate(197.34 717.97) rotate(-85.587) scale(.08 -.08)">
<use xlink:href="#x"/>
</g>
</g>
<path d="m205.21 630.76 0.213 5.0505q0.10113 2.3979 2.499 2.2967l7.7356-0.32625q2.3979-0.10113 2.2967-2.499l-0.213-5.0505q-0.10113-2.3979-2.499-2.2967l-7.7356 0.32625q-2.3979 0.10113-2.2967 2.499z" clip-path="url(#a)" fill="#fff" stroke="#fff"/>
<g clip-path="url(#a)">
<g transform="translate(209.27 630.59) rotate(87.585) scale(.08 -.08)">
<use xlink:href="#ae"/>
</g>
</g>
<path d="m210.93 713.07 0.31249 5.5775q0.13426 2.3962 2.5305 2.262l7.7304-0.43311q2.3962-0.13426 2.262-2.5305l-0.31249-5.5775q-0.13426-2.3962-2.5305-2.262l-7.7304 0.43311q-2.3962 0.13426-2.262 2.5305z" clip-path="url(#a)" fill="#fff" stroke="#fff"/>
<g clip-path="url(#a)">
<g transform="translate(214.99 712.85) rotate(86.793) scale(.08 -.08)">
<use xlink:href="#y"/>
</g>
</g>
<path d="m245.53 945.38v33.808q0 2.4 2.4 2.4h7.7425q2.4 0 2.4-2.4v-33.808q0-2.4-2.4-2.4h-7.7425q-2.4 0-2.4 2.4z" clip-path="url(#a)" fill="#fff" stroke="#fff"/>
<g clip-path="url(#a)">
<g transform="translate(249.59 945.38) rotate(90) scale(.08 -.08)">
<use xlink:href="#l"/>
<use x="44.083984" xlink:href="#c"/>
<use x="105.607422" xlink:href="#e"/>
<use x="144.970703" xlink:href="#j"/>
<use x="242.382812" xlink:href="#h"/>
<use x="270.166016" xlink:href="#g"/>
<use x="333.544922" xlink:href="#i"/>
<use x="394.824219" xlink:href="#k"/>
</g>
</g>
<path d="m176.28 945.38v33.808q0 2.4 2.4 2.4h7.7425q2.4 0 2.4-2.4v-33.808q0-2.4-2.4-2.4h-7.7425q-2.4 0-2.4 2.4z" clip-path="url(#a)" fill="#fff" stroke="#fff"/>
<g clip-path="url(#a)">
<g transform="translate(180.35 945.38) rotate(90) scale(.08 -.08)">
<use xlink:href="#l"/>
<use x="44.083984" xlink:href="#c"/>
<use x="105.607422" xlink:href="#e"/>
<use x="144.970703" xlink:href="#j"/>
<use x="242.382812" xlink:href="#h"/>
<use x="270.166016" xlink:href="#g"/>
<use x="333.544922" xlink:href="#i"/>
<use x="394.824219" xlink:href="#k"/>
</g>
</g>
<path d="m214.4 796.14 0.38188 5.4592q0.16748 2.3942 2.5616 2.2267l7.7236-0.54029q2.3941-0.16748 2.2267-2.5616l-0.38188-5.4592q-0.16748-2.3941-2.5616-2.2267l-7.7236 0.54029q-2.3941 0.16748-2.2267 2.5616z" clip-path="url(#a)" fill="#fff" stroke="#fff"/>
<g clip-path="url(#a)">
<g transform="translate(218.45 795.86) rotate(85.999) scale(.08 -.08)">
<use xlink:href="#q"/>
</g>
</g>
<path d="m215.39 801.4 0.35441-5.0664q0.16748-2.3941-2.2267-2.5616l-7.7236-0.54029q-2.3941-0.16748-2.5616 2.2267l-0.35441 5.0664q-0.16748 2.3941 2.2267 2.5616l7.7236 0.54029q2.3942 0.16748 2.5616-2.2267z" clip-path="url(#a)" fill="#fff" stroke="#fff"/>
<g clip-path="url(#a)">
<g transform="translate(211.33 801.12) rotate(-85.999) scale(.08 -.08)">
<use xlink:href="#ah"/>
</g>
</g>
<path d="m220.35 945.38v33.808q0 2.4 2.4 2.4h7.7425q2.4 0 2.4-2.4v-33.808q0-2.4-2.4-2.4h-7.7425q-2.4 0-2.4 2.4z" clip-path="url(#a)" fill="#fff" stroke="#fff"/>
<g clip-path="url(#a)">
<g transform="translate(224.41 945.38) rotate(90) scale(.08 -.08)">
<use xlink:href="#l"/>
<use x="44.083984" xlink:href="#c"/>
<use x="105.607422" xlink:href="#e"/>
<use x="144.970703" xlink:href="#j"/>
<use x="242.382812" xlink:href="#h"/>
<use x="270.166016" xlink:href="#g"/>
<use x="333.544922" xlink:href="#i"/>
<use x="394.824219" xlink:href="#k"/>
</g>
</g>
<path d="m197.27 945.38v33.808q0 2.4 2.4 2.4h7.7425q2.4 0 2.4-2.4v-33.808q0-2.4-2.4-2.4h-7.7425q-2.4 0-2.4 2.4z" clip-path="url(#a)" fill="#fff" stroke="#fff"/>
<g clip-path="url(#a)">
<g transform="translate(201.33 945.38) rotate(90) scale(.08 -.08)">
<use xlink:href="#l"/>
<use x="44.083984" xlink:href="#c"/>
<use x="105.607422" xlink:href="#e"/>
<use x="144.970703" xlink:href="#j"/>
<use x="242.382812" xlink:href="#h"/>
<use x="270.166016" xlink:href="#g"/>
<use x="333.544922" xlink:href="#i"/>
<use x="394.824219" xlink:href="#k"/>
</g>
</g>
<path d="m104.09 801 0.1949-4.5971q0.10166-2.3978-2.2962-2.4995l-7.7356-0.32795q-2.3978-0.10166-2.4995 2.2962l-0.1949 4.5971q-0.10166 2.3978 2.2962 2.4995l7.7356 0.32796q2.3978 0.10166 2.4995-2.2962z" clip-path="url(#a)" fill="#fff" stroke="#fff"/>
<g clip-path="url(#a)">
<g transform="translate(100.03 800.82) rotate(-87.572) scale(.08 -.08)">
<use xlink:href="#x"/>
</g>
</g>
<path d="m107.33 800.99 0.02143-5.055q0.010175-2.4-2.3898-2.4102l-7.7424-0.032825q-2.4-0.010175-2.4102 2.3898l-0.021431 5.055q-0.010175 2.4 2.3898 2.4102l7.7424 0.032824q2.4 0.010175 2.4102-2.3898z" clip-path="url(#a)" fill="#fff" stroke="#fff"/>
<g clip-path="url(#a)">
<g transform="translate(103.27 800.97) rotate(-89.757) scale(.08 -.08)">
<use xlink:href="#ae"/>
</g>
</g>
<path d="m98.871 795.93 0.26023 5.5802q0.1118 2.3974 2.5092 2.2856l7.7341-0.36068q2.3974-0.1118 2.2856-2.5092l-0.26023-5.5802q-0.1118-2.3974-2.5092-2.2856l-7.7341 0.36068q-2.3974 0.1118-2.2856 2.5092z" clip-path="url(#a)" fill="#fff" stroke="#fff"/>
<g clip-path="url(#a)">
<g transform="translate(102.93 795.75) rotate(87.33) scale(.08 -.08)">
<use xlink:href="#y"/>
</g>
</g>
<path d="m128.36 979.41 1.3069-33.782q0.092779-2.3982-2.3054-2.491l-7.7367-0.29931q-2.3982-0.092779-2.491 2.3054l-1.3069 33.782q-0.092779 2.3982 2.3054 2.491l7.7367 0.29931q2.3982 0.09278 2.491-2.3054z" clip-path="url(#a)" fill="#fff" stroke="#fff"/>
<g clip-path="url(#a)">
<g transform="translate(124.3 979.26) rotate(-87.785) scale(.08 -.08)">
<use xlink:href="#l"/>
<use x="44.083984" xlink:href="#c"/>
<use x="105.607422" xlink:href="#e"/>
<use x="144.970703" xlink:href="#j"/>
<use x="242.382812" xlink:href="#h"/>
<use x="270.166016" xlink:href="#g"/>
<use x="333.544922" xlink:href="#i"/>
<use x="394.824219" xlink:href="#k"/>
</g>
</g>
<path d="m122.13 945.63 1.3069 33.782q0.092779 2.3982 2.491 2.3054l7.7367-0.29931q2.3982-0.092779 2.3054-2.491l-1.3069-33.782q-0.092779-2.3982-2.491-2.3054l-7.7367 0.29931q-2.3982 0.092779-2.3054 2.491z" clip-path="url(#a)" fill="#fff" stroke="#fff"/>
<g clip-path="url(#a)">
<g transform="translate(126.19 945.47) rotate(87.785) scale(.08 -.08)">
<use xlink:href="#l"/>
<use x="44.083984" xlink:href="#c"/>
<use x="105.607422" xlink:href="#e"/>
<use x="144.970703" xlink:href="#j"/>
<use x="242.382812" xlink:href="#h"/>
<use x="270.166016" xlink:href="#g"/>
<use x="333.544922" xlink:href="#i"/>
<use x="394.824219" xlink:href="#k"/>
</g>
</g>
<path d="m88.153 945.38v33.808q0 2.4 2.4 2.4h7.7425q2.4 0 2.4-2.4v-33.808q0-2.4-2.4-2.4h-7.7425q-2.4 0-2.4 2.4z" clip-path="url(#a)" fill="#fff" stroke="#fff"/>
<g clip-path="url(#a)">
<g transform="translate(92.217 945.38) rotate(90) scale(.08 -.08)">
<use xlink:href="#l"/>
<use x="44.083984" xlink:href="#c"/>
<use x="105.607422" xlink:href="#e"/>
<use x="144.970703" xlink:href="#j"/>
<use x="242.382812" xlink:href="#h"/>
<use x="270.166016" xlink:href="#g"/>
<use x="333.544922" xlink:href="#i"/>
<use x="394.824219" xlink:href="#k"/>
</g>
</g>
<path d="m94.448 945.38v33.808q0 2.4 2.4 2.4h7.7425q2.4 0 2.4-2.4v-33.808q0-2.4-2.4-2.4h-7.7425q-2.4 0-2.4 2.4z" clip-path="url(#a)" fill="#fff" stroke="#fff"/>
<g clip-path="url(#a)">
<g transform="translate(98.512 945.38) rotate(90) scale(.08 -.08)">
<use xlink:href="#l"/>
<use x="44.083984" xlink:href="#c"/>
<use x="105.607422" xlink:href="#e"/>
<use x="144.970703" xlink:href="#j"/>
<use x="242.382812" xlink:href="#h"/>
<use x="270.166016" xlink:href="#g"/>
<use x="333.544922" xlink:href="#i"/>
<use x="394.824219" xlink:href="#k"/>
</g>
</g>
<path d="m102.84 945.38v33.808q0 2.4 2.4 2.4h7.7425q2.4 0 2.4-2.4v-33.808q0-2.4-2.4-2.4h-7.7425q-2.4 0-2.4 2.4z" clip-path="url(#a)" fill="#fff" stroke="#fff"/>
<g clip-path="url(#a)">
<g transform="translate(106.9 945.38) rotate(90) scale(.08 -.08)">
<use xlink:href="#l"/>
<use x="44.083984" xlink:href="#c"/>
<use x="105.607422" xlink:href="#e"/>
<use x="144.970703" xlink:href="#j"/>
<use x="242.382812" xlink:href="#h"/>
<use x="270.166016" xlink:href="#g"/>
<use x="333.544922" xlink:href="#i"/>
<use x="394.824219" xlink:href="#k"/>
</g>
</g>
<path d="m140.61 945.38v33.808q0 2.4 2.4 2.4h7.7425q2.4 0 2.4-2.4v-33.808q0-2.4-2.4-2.4h-7.7425q-2.4 0-2.4 2.4z" clip-path="url(#a)" fill="#fff" stroke="#fff"/>
<g clip-path="url(#a)">
<g transform="translate(144.67 945.38) rotate(90) scale(.08 -.08)">
<use xlink:href="#l"/>
<use x="44.083984" xlink:href="#c"/>
<use x="105.607422" xlink:href="#e"/>
<use x="144.970703" xlink:href="#j"/>
<use x="242.382812" xlink:href="#h"/>
<use x="270.166016" xlink:href="#g"/>
<use x="333.544922" xlink:href="#i"/>
<use x="394.824219" xlink:href="#k"/>
</g>
</g>
<path d="m367.23 945.38v33.808q0 2.4 2.4 2.4h7.7425q2.4 0 2.4-2.4v-33.808q0-2.4-2.4-2.4h-7.7425q-2.4 0-2.4 2.4z" clip-path="url(#a)" fill="#fff" stroke="#fff"/>
<g clip-path="url(#a)">
<g transform="translate(371.29 945.38) rotate(90) scale(.08 -.08)">
<use xlink:href="#l"/>
<use x="44.083984" xlink:href="#c"/>
<use x="105.607422" xlink:href="#e"/>
<use x="144.970703" xlink:href="#j"/>
<use x="242.382812" xlink:href="#h"/>
<use x="270.166016" xlink:href="#g"/>
<use x="333.544922" xlink:href="#i"/>
<use x="394.824219" xlink:href="#k"/>
</g>
</g>
<path d="m660.99 945.38v33.808q0 2.4 2.4 2.4h7.7425q2.4 0 2.4-2.4v-33.808q0-2.4-2.4-2.4h-7.7425q-2.4 0-2.4 2.4z" clip-path="url(#a)" fill="#fff" stroke="#fff"/>
<g clip-path="url(#a)">
<g transform="translate(665.06 945.38) rotate(90) scale(.08 -.08)">
<use xlink:href="#l"/>
<use x="44.083984" xlink:href="#c"/>
<use x="105.607422" xlink:href="#e"/>
<use x="144.970703" xlink:href="#j"/>
<use x="242.382812" xlink:href="#h"/>
<use x="270.166016" xlink:href="#g"/>
<use x="333.544922" xlink:href="#i"/>
<use x="394.824219" xlink:href="#k"/>
</g>
</g>
<path d="m1259 945.38v33.808q0 2.4 2.4 2.4h7.7425q2.4 0 2.4-2.4v-33.808q0-2.4-2.4-2.4h-7.7425q-2.4 0-2.4 2.4z" clip-path="url(#a)" fill="#fff" stroke="#fff"/>
<g clip-path="url(#a)">
<g transform="translate(1263.1 945.38) rotate(90) scale(.08 -.08)">
<use xlink:href="#l"/>
<use x="44.083984" xlink:href="#c"/>
<use x="105.607422" xlink:href="#e"/>
<use x="144.970703" xlink:href="#j"/>
<use x="242.382812" xlink:href="#h"/>
<use x="270.166016" xlink:href="#g"/>
<use x="333.544922" xlink:href="#i"/>
<use x="394.824219" xlink:href="#k"/>
</g>
</g>
<path d="m1976.6 945.38v33.808q0 2.4 2.4 2.4h7.7425q2.4 0 2.4-2.4v-33.808q0-2.4-2.4-2.4h-7.7425q-2.4 0-2.4 2.4z" clip-path="url(#a)" fill="#fff" stroke="#fff"/>
<g clip-path="url(#a)">
<g transform="translate(1980.7 945.38) rotate(90) scale(.08 -.08)">
<use xlink:href="#l"/>
<use x="44.083984" xlink:href="#c"/>
<use x="105.607422" xlink:href="#e"/>
<use x="144.970703" xlink:href="#j"/>
<use x="242.382812" xlink:href="#h"/>
<use x="270.166016" xlink:href="#g"/>
<use x="333.544922" xlink:href="#i"/>
<use x="394.824219" xlink:href="#k"/>
</g>
</g>
<defs>
<path id="b" d="m0 8.6603c2.2967 0 4.4997-0.9125 6.1237-2.5365 1.624-1.624 2.5365-3.827 2.5365-6.1237s-0.9125-4.4997-2.5365-6.1237c-1.624-1.624-3.827-2.5365-6.1237-2.5365s-4.4997 0.9125-6.1237 2.5365c-1.624 1.624-2.5365 3.827-2.5365 6.1237s0.9125 4.4997 2.5365 6.1237c1.624 1.624 3.827 2.5365 6.1237 2.5365z"/>
</defs>
<g clip-path="url(#a)" fill="#ffffff" stroke="#ffffff">
<use x="94.424242" y="1043.636364" xlink:href="#b"/>
<use x="100.719192" y="1043.636364" xlink:href="#b"/>
<use x="109.112458" y="1043.636364" xlink:href="#b"/>
<use x="119.60404" y="1043.636364" xlink:href="#b"/>
<use x="132.193939" y="1043.636364" xlink:href="#b"/>
<use x="146.882155" y="1043.636364" xlink:href="#b"/>
<use x="163.668687" y="1043.636364" xlink:href="#b"/>
<use x="182.553535" y="1043.636364" xlink:href="#b"/>
<use x="203.5367" y="1043.636364" xlink:href="#b"/>
<use x="226.618182" y="1043.636364" xlink:href="#b"/>
<use x="251.79798" y="1043.636364" xlink:href="#b"/>
<use x="279.076094" y="1043.636364" xlink:href="#b"/>
<use x="308.452525" y="1043.636364" xlink:href="#b"/>
<use x="339.927273" y="1043.636364" xlink:href="#b"/>
<use x="373.500337" y="1043.636364" xlink:href="#b"/>
<use x="409.171717" y="1043.636364" xlink:href="#b"/>
<use x="446.941414" y="1043.636364" xlink:href="#b"/>
<use x="486.809428" y="1043.636364" xlink:href="#b"/>
<use x="528.775758" y="1043.636364" xlink:href="#b"/>
<use x="572.840404" y="1043.636364" xlink:href="#b"/>
<use x="619.003367" y="1043.636364" xlink:href="#b"/>
<use x="667.264646" y="1043.636364" xlink:href="#b"/>
<use x="717.624242" y="1043.636364" xlink:href="#b"/>
<use x="770.082155" y="1043.636364" xlink:href="#b"/>
<use x="824.638384" y="1043.636364" xlink:href="#b"/>
<use x="881.292929" y="1043.636364" xlink:href="#b"/>
<use x="940.045791" y="1043.636364" xlink:href="#b"/>
<use x="1000.89697" y="1043.636364" xlink:href="#b"/>
<use x="1063.846465" y="1043.636364" xlink:href="#b"/>
<use x="1128.894276" y="1043.636364" xlink:href="#b"/>
<use x="1196.040404" y="1043.636364" xlink:href="#b"/>
<use x="1265.284848" y="1043.636364" xlink:href="#b"/>
<use x="1336.627609" y="1043.636364" xlink:href="#b"/>
<use x="1410.068687" y="1043.636364" xlink:href="#b"/>
<use x="1485.608081" y="1043.636364" xlink:href="#b"/>
<use x="1563.245791" y="1043.636364" xlink:href="#b"/>
<use x="1642.981818" y="1043.636364" xlink:href="#b"/>
<use x="1724.816162" y="1043.636364" xlink:href="#b"/>
<use x="1808.748822" y="1043.636364" xlink:href="#b"/>
<use x="1894.779798" y="1043.636364" xlink:href="#b"/>
<use x="1982.909091" y="1043.636364" xlink:href="#b"/>
<use x="425.366987" y="49.69697" xlink:href="#b"/>
<use x="113.65881" y="550.099487" xlink:href="#b"/>
<use x="163.668687" y="880.921532" xlink:href="#b"/>
<use x="229.940516" y="383.69138" xlink:href="#b"/>
<use x="279.076094" y="880.921532" xlink:href="#b"/>
<use x="382.732929" y="216.862298" xlink:href="#b"/>
<use x="717.624242" y="880.921532" xlink:href="#b"/>
<use x="1127.454806" y="216.862298" xlink:href="#b"/>
<use x="797.360269" y="715.943158" xlink:href="#b"/>
<use x="940.74523" y="880.921532" xlink:href="#b"/>
<use x="1063.846465" y="880.921532" xlink:href="#b"/>
<use x="1128.894276" y="880.921532" xlink:href="#b"/>
<use x="1196.040404" y="880.921532" xlink:href="#b"/>
<use x="1500.012149" y="383.69138" xlink:href="#b"/>
<use x="1615.703704" y="880.921532" xlink:href="#b"/>
<use x="1576.797419" y="550.099487" xlink:href="#b"/>
<use x="1410.068687" y="880.921532" xlink:href="#b"/>
<use x="1485.608081" y="880.921532" xlink:href="#b"/>
<use x="1685.997306" y="715.943158" xlink:href="#b"/>
<use x="1725.5156" y="715.943158" xlink:href="#b"/>
<use x="1642.981818" y="880.921532" xlink:href="#b"/>
<use x="1724.816162" y="880.921532" xlink:href="#b"/>
<use x="1808.748822" y="880.921532" xlink:href="#b"/>
<use x="1563.245791" y="880.921532" xlink:href="#b"/>
<use x="770.082155" y="880.921532" xlink:href="#b"/>
<use x="824.638384" y="880.921532" xlink:href="#b"/>
<use x="308.452525" y="880.921532" xlink:href="#b"/>
<use x="339.927273" y="880.921532" xlink:href="#b"/>
<use x="509.051582" y="383.69138" xlink:href="#b"/>
<use x="409.171717" y="880.921532" xlink:href="#b"/>
<use x="446.941414" y="880.921532" xlink:href="#b"/>
<use x="497.30101" y="550.099487" xlink:href="#b"/>
<use x="572.840404" y="880.921532" xlink:href="#b"/>
<use x="619.003367" y="880.921532" xlink:href="#b"/>
<use x="486.809428" y="880.921532" xlink:href="#b"/>
<use x="507.792593" y="715.943158" xlink:href="#b"/>
<use x="528.775758" y="880.921532" xlink:href="#b"/>
<use x="208.083053" y="550.099487" xlink:href="#b"/>
<use x="251.79798" y="880.921532" xlink:href="#b"/>
<use x="182.553535" y="880.921532" xlink:href="#b"/>
<use x="215.077441" y="715.943158" xlink:href="#b"/>
<use x="226.618182" y="880.921532" xlink:href="#b"/>
<use x="203.5367" y="880.921532" xlink:href="#b"/>
<use x="101.418631" y="715.943158" xlink:href="#b"/>
<use x="125.89899" y="880.921532" xlink:href="#b"/>
<use x="94.424242" y="880.921532" xlink:href="#b"/>
<use x="100.719192" y="880.921532" xlink:href="#b"/>
<use x="109.112458" y="880.921532" xlink:href="#b"/>
<use x="146.882155" y="880.921532" xlink:href="#b"/>
<use x="373.500337" y="880.921532" xlink:href="#b"/>
<use x="667.264646" y="880.921532" xlink:href="#b"/>
<use x="1265.284848" y="880.921532" xlink:href="#b"/>
<use x="1982.909091" y="880.921532" xlink:href="#b"/>
</g>
<g clip-path="url(#a)">
<g transform="translate(85.442 1046.4) scale(.1 -.1)">
<use xlink:href="#aj"/>
<use x="77.001953" xlink:href="#c"/>
<use x="138.525391" xlink:href="#e"/>
</g>
</g>
<g clip-path="url(#a)">
<defs>
<path id="au" d="m9.0781 75.984h9.0312v-44.875l26.812 23.578h11.469l-29-25.578 30.234-29.109h-11.719l-27.797 26.703v-26.703h-9.0312z"/>
</defs>
<g transform="translate(85.724 1046.4) scale(.1 -.1)">
<use xlink:href="#au"/>
<use x="57.910156" xlink:href="#k"/>
<use x="85.693359" xlink:href="#c"/>
<use x="147.216797" xlink:href="#h"/>
<use x="175" xlink:href="#g"/>
<use x="238.378906" xlink:href="#c"/>
</g>
</g>
<g clip-path="url(#a)">
<defs>
<path id="ag" d="m5.5156 54.688h42.672v-8.2031l-33.781-39.312h33.781v-7.1719h-43.891v8.2031l33.797 39.312h-32.578z"/>
</defs>
<g transform="translate(96.948 1046.4) scale(.1 -.1)">
<use xlink:href="#w"/>
<use x="58.552734" xlink:href="#e"/>
<use x="99.666016" xlink:href="#h"/>
<use x="127.449219" xlink:href="#g"/>
<use x="190.828125" xlink:href="#ag"/>
</g>
</g>
<g clip-path="url(#a)">
<defs>
<path id="v" d="m44.281 53.078v-8.5q-3.7969 1.9531-7.9062 2.9219-4.0938 0.98438-8.5 0.98438-6.6875 0-10.031-2.0469t-3.3438-6.1562q0-3.125 2.3906-4.9062t9.625-3.3906l3.0781-0.6875q9.5625-2.0469 13.594-5.7812t4.0312-10.422q0-7.625-6.0312-12.078-6.0312-4.4375-16.578-4.4375-4.3906 0-9.1562 0.85938t-10.031 2.5625v9.2812q4.9844-2.5938 9.8125-3.8906 4.8281-1.2812 9.5781-1.2812 6.3438 0 9.75 2.1719 3.4219 2.1719 3.4219 6.125 0 3.6562-2.4688 5.6094-2.4531 1.9531-10.812 3.7656l-3.125 0.73438q-8.3438 1.75-12.062 5.3906-3.7031 3.6406-3.7031 9.9844 0 7.7188 5.4688 11.906 5.4688 4.2031 15.531 4.2031 4.9688 0 9.3594-0.73438 4.4062-0.71875 8.1094-2.1875z"/>
<path id="s" d="m54.891 33.016v-33.016h-8.9844v32.719q0 7.7656-3.0312 11.609-3.0312 3.8594-9.0781 3.8594-7.2812 0-11.484-4.6406-4.2031-4.625-4.2031-12.641v-30.906h-9.0312v75.984h9.0312v-29.797q3.2344 4.9375 7.5938 7.375 4.375 2.4375 10.094 2.4375 9.4219 0 14.25-5.8281 4.8438-5.8281 4.8438-17.156z"/>
</defs>
<g transform="translate(110.77 1046.4) scale(.1 -.1)">
<use xlink:href="#v"/>
<use x="52.099609" xlink:href="#i"/>
<use x="113.378906" xlink:href="#s"/>
</g>
</g>
<g clip-path="url(#a)">
<defs>
<path id="r" d="m8.5 21.578v33.109h8.9844v-32.766q0-7.7656 3.0156-11.656 3.0312-3.875 9.0938-3.875 7.2656 0 11.484 4.6406 4.2344 4.6406 4.2344 12.656v31h8.9844v-54.688h-8.9844v8.4062q-3.2656-4.9844-7.5938-7.4062-4.3125-2.4219-10.031-2.4219-9.4219 0-14.312 5.8594-4.875 5.8594-4.875 17.141z"/>
</defs>
<g transform="translate(126.4 1046.4) scale(.1 -.1)">
<use xlink:href="#ag"/>
<use x="52.490234" xlink:href="#r"/>
</g>
</g>
<g clip-path="url(#a)">
<defs>
<path id="am" d="m11.719 12.406h10.297v-8.4062l-8-15.625h-6.2969l4 15.625z"/>
</defs>
<g transform="translate(145.29 1046.4) scale(.1 -.1)">
<use xlink:href="#am"/>
</g>
</g>
<g clip-path="url(#a)">
<defs>
<path id="ab" d="m4.2031 54.688h8.9844l11.234-42.672 11.172 42.672h10.594l11.234-42.672 11.188 42.672h8.9844l-14.312-54.688h-10.594l-11.766 44.828-11.812-44.828h-10.609z"/>
</defs>
<g transform="translate(155.11 1046.4) scale(.1 -.1)">
<use xlink:href="#ab"/>
<use x="81.787109" xlink:href="#h"/>
<use x="109.570312" xlink:href="#c"/>
</g>
</g>
<g clip-path="url(#a)">
<g transform="translate(171.84 1046.4) scale(.1 -.1)">
<use xlink:href="#c"/>
<use x="61.523438" xlink:href="#h"/>
<use x="89.306641" xlink:href="#g"/>
<use x="152.685547" xlink:href="#c"/>
</g>
</g>
<g clip-path="url(#a)">
<defs>
<path id="ap" d="m30.609 48.391q-7.2188 0-11.422-5.6406t-4.2031-15.453 4.1719-15.453q4.1875-5.6406 11.453-5.6406 7.1875 0 11.375 5.6562 4.2031 5.6719 4.2031 15.438 0 9.7188-4.2031 15.406-4.1875 5.6875-11.375 5.6875zm0 7.6094q11.719 0 18.406-7.625 6.7031-7.6094 6.7031-21.078 0-13.422-6.7031-21.078-6.6875-7.6406-18.406-7.6406-11.766 0-18.438 7.6406-6.6562 7.6562-6.6562 21.078 0 13.469 6.6562 21.078 6.6719 7.625 18.438 7.625z"/>
</defs>
<g transform="translate(184.32 1046.4) scale(.1 -.1)">
<use xlink:href="#c"/>
<use x="61.523438" xlink:href="#g"/>
<use x="124.902344" xlink:href="#ap"/>
<use x="186.083984" xlink:href="#e"/>
<use x="225.447266" xlink:href="#j"/>
<use x="322.859375" xlink:href="#c"/>
</g>
</g>
<g clip-path="url(#a)">
<defs>
<path id="as" d="m9.8125 72.906h9.8594v-30.812l32.719 30.812h12.703l-36.188-33.984 38.766-38.922h-12.984l-35.016 35.109v-35.109h-9.8594z"/>
<path id="at" d="m18.109 8.2031v-29h-9.0312v75.484h9.0312v-8.2969q2.8438 4.875 7.1562 7.2344 4.3281 2.375 10.328 2.375 9.9688 0 16.188-7.9062 6.2344-7.9062 6.2344-20.797t-6.2344-20.812q-6.2188-7.9062-16.188-7.9062-6 0-10.328 2.375-4.3125 2.375-7.1562 7.25zm30.578 19.094q0 9.9062-4.0781 15.547t-11.203 5.6406q-7.1406 0-11.219-5.6406t-4.0781-15.547 4.0781-15.547 11.219-5.6406q7.125 0 11.203 5.6406t4.0781 15.547z"/>
</defs>
<g transform="translate(208.26 1046.4) scale(.1 -.1)">
<use xlink:href="#as"/>
<use x="65.576172" xlink:href="#g"/>
<use x="128.955078" xlink:href="#ap"/>
<use x="190.136719" xlink:href="#v"/>
<use x="242.236328" xlink:href="#at"/>
<use x="305.712891" xlink:href="#c"/>
</g>
</g>
<g clip-path="url(#a)">
<defs>
<path id="u" d="m18.312 70.219v-15.531h18.5v-6.9844h-18.5v-29.688q0-6.6875 1.8281-8.5938t7.4531-1.9062h9.2188v-7.5156h-9.2188q-10.406 0-14.359 3.875-3.9531 3.8906-3.9531 14.141v29.688h-6.5938v6.9844h6.5938v15.531z"/>
</defs>
<g transform="translate(234.71 1046.4) scale(.1 -.1)">
<use xlink:href="#au"/>
<use x="54.285156" xlink:href="#c"/>
<use x="115.808594" xlink:href="#h"/>
<use x="143.591797" xlink:href="#j"/>
<use x="241.003906" xlink:href="#u"/>
<use x="280.212891" xlink:href="#c"/>
</g>
</g>
<g clip-path="url(#a)">
<defs>
<path id="t" d="m45.406 46.391v29.594h8.9844v-75.984h-8.9844v8.2031q-2.8281-4.875-7.1562-7.25-4.3125-2.375-10.375-2.375-9.9062 0-16.141 7.9062-6.2188 7.9219-6.2188 20.812t6.2188 20.797q6.2344 7.9062 16.141 7.9062 6.0625 0 10.375-2.375 4.3281-2.3594 7.1562-7.2344zm-30.609-19.094q0-9.9062 4.0781-15.547t11.203-5.6406 11.219 5.6406q4.1094 5.6406 4.1094 15.547t-4.1094 15.547q-4.0938 5.6406-11.219 5.6406t-11.203-5.6406-4.0781-15.547z"/>
</defs>
<g transform="translate(269.56 1046.4) scale(.1 -.1)">
<use xlink:href="#r"/>
<use x="63.378906" xlink:href="#g"/>
<use x="126.757812" xlink:href="#t"/>
</g>
</g>
<g clip-path="url(#a)">
<g transform="translate(303.32 1046.4) scale(.1 -.1)">
<use xlink:href="#c"/>
<use x="61.523438" xlink:href="#e"/>
</g>
</g>
<g clip-path="url(#a)">
<defs>
<path id="aq" d="m37.109 75.984v-7.4844h-8.5938q-4.8281 0-6.7188-1.9531-1.875-1.9531-1.875-7.0312v-4.8281h14.797v-6.9844h-14.797v-47.703h-9.0312v47.703h-8.5938v6.9844h8.5938v3.8125q0 9.125 4.25 13.297 4.25 4.1875 13.469 4.1875z"/>
<path id="ao" d="m8.5 21.578v33.109h8.9844v-32.766q0-7.7656 3.0156-11.656 3.0312-3.875 9.0938-3.875 7.2656 0 11.484 4.6406 4.2344 4.6406 4.2344 12.656v31h8.9844v-54.688h-8.9844v8.4062q-3.2656-4.9844-7.5938-7.4062-4.3125-2.4219-10.031-2.4219-9.4219 0-14.312 5.8594-4.875 5.8594-4.875 17.141zm22.609 34.422m4.4844 19.781h9.9062v-9.8594h-9.9062zm-19.094 0h9.9062v-9.8594h-9.9062z"/>
</defs>
<g transform="translate(325.4 1046.4) scale(.1 -.1)">
<use xlink:href="#aq"/>
<use x="35.205078" xlink:href="#ao"/>
<use x="98.583984" xlink:href="#s"/>
<use x="161.962891" xlink:href="#k"/>
<use x="189.746094" xlink:href="#u"/>
<use x="228.955078" xlink:href="#c"/>
</g>
</g>
<g clip-path="url(#a)">
<g transform="translate(371.91 1046.4) scale(.1 -.1)">
<use xlink:href="#am"/>
</g>
</g>
<g clip-path="url(#a)">
<g transform="translate(403.49 1046.4) scale(.1 -.1)">
<use xlink:href="#c"/>
<use x="61.523438" xlink:href="#v"/>
</g>
</g>
<g clip-path="url(#a)">
<g transform="translate(431.46 1046.4) scale(.1 -.1)">
<use xlink:href="#ab"/>
<use x="81.787109" xlink:href="#ao"/>
<use x="145.166016" xlink:href="#e"/>
<use x="184.529297" xlink:href="#t"/>
<use x="248.005859" xlink:href="#c"/>
</g>
</g>
<g clip-path="url(#a)">
<g transform="translate(472.01 1046.4) scale(.1 -.1)">
<use xlink:href="#c"/>
<use x="61.523438" xlink:href="#u"/>
<use x="100.732422" xlink:href="#ab"/>
<use x="182.519531" xlink:href="#i"/>
<use x="243.798828" xlink:href="#v"/>
</g>
</g>
<g clip-path="url(#a)">
<defs>
<path id="ax" d="m5.6094 72.906h57.281v-7.5312l-46.094-57.078h47.219v-8.2969h-59.516v7.5156l46.094 57.078h-44.984z"/>
<path id="aw" d="m48.688 27.297q0 9.9062-4.0781 15.547t-11.203 5.6406q-7.1406 0-11.219-5.6406t-4.0781-15.547 4.0781-15.547 11.219-5.6406q7.125 0 11.203 5.6406t4.0781 15.547zm-30.578 19.094q2.8438 4.875 7.1562 7.2344 4.3281 2.375 10.328 2.375 9.9688 0 16.188-7.9062 6.2344-7.9062 6.2344-20.797t-6.2344-20.812q-6.2188-7.9062-16.188-7.9062-6 0-10.328 2.375-4.3125 2.375-7.1562 7.25v-8.2031h-9.0312v75.984h9.0312z"/>
</defs>
<g transform="translate(495.35 1046.4) scale(.1 -.1)">
<use xlink:href="#ax"/>
<use x="68.505859" xlink:href="#i"/>
<use x="129.785156" xlink:href="#r"/>
<use x="193.164062" xlink:href="#aw"/>
<use x="256.640625" xlink:href="#c"/>
<use x="318.164062" xlink:href="#e"/>
<use x="357.527344" xlink:href="#s"/>
<use x="420.90625" xlink:href="#i"/>
<use x="482.185547" xlink:href="#aq"/>
<use x="515.640625" xlink:href="#u"/>
<use x="554.849609" xlink:href="#c"/>
<use x="616.373047" xlink:href="#v"/>
</g>
</g>
<g clip-path="url(#a)">
<g transform="translate(555.71 1046.4) scale(.1 -.1)">
<use xlink:href="#t"/>
<use x="63.476562" xlink:href="#i"/>
<use x="124.755859" xlink:href="#e"/>
<use x="165.869141" xlink:href="#i"/>
<use x="227.148438" xlink:href="#r"/>
<use x="290.527344" xlink:href="#v"/>
</g>
</g>
<g clip-path="url(#a)">
<defs>
<path id="ac" d="m48.781 52.594v-8.4062q-3.8125 2.1094-7.6406 3.1562t-7.7344 1.0469q-8.75 0-13.594-5.5469-4.8281-5.5312-4.8281-15.547t4.8281-15.562q4.8438-5.5312 13.594-5.5312 3.9062 0 7.7344 1.0469t7.6406 3.1562v-8.3125q-3.7656-1.75-7.7969-2.625-4.0156-0.89062-8.5625-0.89062-12.359 0-19.641 7.7656-7.2656 7.7656-7.2656 20.953 0 13.375 7.3438 21.031 7.3594 7.6719 20.156 7.6719 4.1406 0 8.0938-0.85938 3.9531-0.84375 7.6719-2.5469z"/>
</defs>
<g transform="translate(591.95 1046.4) scale(.1 -.1)">
<use xlink:href="#c"/>
<use x="61.523438" xlink:href="#e"/>
<use x="102.636719" xlink:href="#ab"/>
<use x="184.423828" xlink:href="#i"/>
<use x="245.703125" xlink:href="#ac"/>
<use x="300.683594" xlink:href="#s"/>
<use x="364.0625" xlink:href="#v"/>
<use x="416.162109" xlink:href="#c"/>
<use x="477.685547" xlink:href="#g"/>
</g>
</g>
<g clip-path="url(#a)">
<g transform="translate(665.68 1046.4) scale(.1 -.1)">
<use xlink:href="#am"/>
</g>
</g>
<g clip-path="url(#a)">
<g transform="translate(705.47 1046.4) scale(.1 -.1)">
<use xlink:href="#t"/>
<use x="63.476562" xlink:href="#ap"/>
<use x="124.658203" xlink:href="#ac"/>
<use x="179.638672" xlink:href="#s"/>
</g>
</g>
<g clip-path="url(#a)">
<g transform="translate(762.44 1046.4) scale(.1 -.1)">
<use xlink:href="#t"/>
<use x="63.476562" xlink:href="#h"/>
<use x="91.259766" xlink:href="#c"/>
</g>
</g>
<g clip-path="url(#a)">
<defs>
<path id="ay" d="m19.672 34.812v-26.703h15.828q7.9531 0 11.781 3.2969 3.8438 3.2969 3.8438 10.078 0 6.8438-3.8438 10.078-3.8281 3.25-11.781 3.25zm0 29.984v-21.969h14.609q7.2188 0 10.75 2.7031 3.5469 2.7188 3.5469 8.2812 0 5.5156-3.5469 8.25-3.5312 2.7344-10.75 2.7344zm-9.8594 8.1094h25.203q11.281 0 17.375-4.6875 6.1094-4.6875 6.1094-13.328 0-6.7031-3.125-10.656t-9.1875-4.9219q7.2812-1.5625 11.312-6.5312 4.0312-4.9531 4.0312-12.375 0-9.7656-6.6406-15.094-6.6406-5.3125-18.906-5.3125h-26.172z"/>
</defs>
<g transform="translate(808.7 1046.4) scale(.1 -.1)">
<use xlink:href="#ay"/>
<use x="68.603516" xlink:href="#k"/>
<use x="96.386719" xlink:href="#r"/>
<use x="159.765625" xlink:href="#j"/>
<use x="257.177734" xlink:href="#c"/>
</g>
</g>
<g clip-path="url(#a)">
<g transform="translate(865.82 1046.4) scale(.1 -.1)">
<use xlink:href="#ab"/>
<use x="81.787109" xlink:href="#r"/>
<use x="145.166016" xlink:href="#e"/>
<use x="184.529297" xlink:href="#t"/>
<use x="248.005859" xlink:href="#c"/>
</g>
</g>
<g clip-path="url(#a)">
<g transform="translate(930.53 1046.4) scale(.1 -.1)">
<use xlink:href="#r"/>
<use x="63.378906" xlink:href="#g"/>
<use x="126.757812" xlink:href="#t"/>
</g>
</g>
<g clip-path="url(#a)">
<g transform="translate(985.42 1046.4) scale(.1 -.1)">
<use xlink:href="#ab"/>
<use x="81.787109" xlink:href="#r"/>
<use x="145.166016" xlink:href="#e"/>
<use x="184.529297" xlink:href="#t"/>
<use x="248.005859" xlink:href="#c"/>
</g>
</g>
<g clip-path="url(#a)">
<g transform="translate(1051.4 1046.4) scale(.1 -.1)">
<use xlink:href="#g"/>
<use x="63.378906" xlink:href="#h"/>
<use x="91.162109" xlink:href="#ac"/>
<use x="146.142578" xlink:href="#s"/>
<use x="209.521484" xlink:href="#u"/>
</g>
</g>
<g clip-path="url(#a)">
<defs>
<path id="av" d="m45.406 27.984q0 9.7656-4.0312 15.125-4.0156 5.375-11.297 5.375-7.2188 0-11.25-5.375-4.0312-5.3594-4.0312-15.125 0-9.7188 4.0312-15.094t11.25-5.375q7.2812 0 11.297 5.375 4.0312 5.375 4.0312 15.094zm8.9844-21.203q0-13.953-6.2031-20.766-6.1875-6.8125-18.984-6.8125-4.7344 0-8.9375 0.70312t-8.1562 2.1719v8.7344q3.9531-2.1406 7.8125-3.1562 3.8594-1.0312 7.8594-1.0312 8.8438 0 13.234 4.6094t4.3906 13.938v4.4531q-2.7812-4.8438-7.125-7.2344t-10.406-2.3906q-10.047 0-16.203 7.6562-6.1562 7.6719-6.1562 20.328 0 12.688 6.1562 20.344 6.1562 7.6719 16.203 7.6719 6.0625 0 10.406-2.3906t7.125-7.2188v8.2969h8.9844z"/>
</defs>
<g transform="translate(1115.5 1046.4) scale(.1 -.1)">
<use xlink:href="#aq"/>
<use x="35.205078" xlink:href="#c"/>
<use x="96.728516" xlink:href="#e"/>
<use x="137.841797" xlink:href="#u"/>
<use x="177.050781" xlink:href="#h"/>
<use x="204.833984" xlink:href="#av"/>
</g>
</g>
<g clip-path="url(#a)">
<g transform="translate(1181.6 1046.4) scale(.1 -.1)">
<use xlink:href="#t"/>
<use x="63.476562" xlink:href="#i"/>
<use x="124.755859" xlink:href="#j"/>
<use x="222.167969" xlink:href="#h"/>
<use x="249.951172" xlink:href="#u"/>
</g>
</g>
<g clip-path="url(#a)">
<g transform="translate(1263.7 1046.4) scale(.1 -.1)">
<use xlink:href="#am"/>
</g>
</g>
<g clip-path="url(#a)">
<g transform="translate(1326.7 1046.4) scale(.1 -.1)">
<use xlink:href="#v"/>
<use x="52.099609" xlink:href="#h"/>
<use x="79.882812" xlink:href="#ac"/>
<use x="134.863281" xlink:href="#s"/>
</g>
</g>
<g clip-path="url(#a)">
<g transform="translate(1405.5 1046.4) scale(.1 -.1)">
<use xlink:href="#h"/>
<use x="27.783203" xlink:href="#g"/>
</g>
</g>
<g clip-path="url(#a)">
<g transform="translate(1474.5 1046.4) scale(.1 -.1)">
<use xlink:href="#t"/>
<use x="63.476562" xlink:href="#c"/>
<use x="125" xlink:href="#j"/>
</g>
</g>
<g clip-path="url(#a)">
<g transform="translate(1543.3 1046.4) scale(.1 -.1)">
<use xlink:href="#ah"/>
<use x="63.476562" xlink:href="#ac"/>
<use x="118.457031" xlink:href="#s"/>
<use x="181.835938" xlink:href="#r"/>
<use x="245.214844" xlink:href="#u"/>
<use x="284.423828" xlink:href="#ag"/>
<use x="336.914062" xlink:href="#c"/>
</g>
</g>
<g clip-path="url(#a)">
<g transform="translate(1631.3 1046.4) scale(.1 -.1)">
<use xlink:href="#h"/>
<use x="27.783203" xlink:href="#s"/>
<use x="91.162109" xlink:href="#e"/>
<use x="130.025391" xlink:href="#c"/>
<use x="191.548828" xlink:href="#e"/>
</g>
</g>
<g clip-path="url(#a)">
<g transform="translate(1707 1046.4) scale(.1 -.1)">
<use xlink:href="#av"/>
<use x="63.476562" xlink:href="#e"/>
<use x="104.589844" xlink:href="#ao"/>
<use x="167.96875" xlink:href="#g"/>
<use x="231.347656" xlink:href="#c"/>
<use x="292.871094" xlink:href="#g"/>
</g>
</g>
<g clip-path="url(#a)">
<g transform="translate(1787.6 1046.4) scale(.1 -.1)">
<use xlink:href="#as"/>
<use x="63.826172" xlink:href="#i"/>
<use x="125.105469" xlink:href="#j"/>
<use x="222.517578" xlink:href="#j"/>
<use x="319.929688" xlink:href="#c"/>
<use x="381.453125" xlink:href="#e"/>
</g>
</g>
<g clip-path="url(#a)">
<g transform="translate(1854.7 1046.4) scale(.1 -.1)">
<use xlink:href="#s"/>
<use x="63.378906" xlink:href="#c"/>
<use x="124.902344" xlink:href="#e"/>
<use x="166.015625" xlink:href="#i"/>
<use x="227.294922" xlink:href="#r"/>
<use x="290.673828" xlink:href="#v"/>
<use x="342.773438" xlink:href="#ag"/>
<use x="395.263672" xlink:href="#r"/>
<use x="458.642578" xlink:href="#at"/>
<use x="522.119141" xlink:href="#r"/>
<use x="585.498047" xlink:href="#u"/>
<use x="624.707031" xlink:href="#ag"/>
<use x="677.197266" xlink:href="#c"/>
<use x="738.720703" xlink:href="#g"/>
</g>
</g>
<g clip-path="url(#a)">
<defs>
<path id="f" d="m10.688 12.406h10.312v-12.406h-10.312z"/>
</defs>
<g transform="translate(1981.3 1046.4) scale(.1 -.1)">
<use xlink:href="#f"/>
</g>
</g>
<g clip-path="url(#a)">
<defs>
<path id="d" d="m12.406 8.2969h16.109v55.625l-17.531-3.5156v8.9844l17.438 3.5156h9.8594v-64.609h16.109v-8.2969h-41.984z"/>
</defs>
<g transform="translate(417.42 52.456) scale(.1 -.1)">
<use xlink:href="#d"/>
<use x="63.623047" xlink:href="#f"/>
<use x="95.410156" xlink:href="#d"/>
</g>
</g>
<g clip-path="url(#a)">
<defs>
<path id="m" d="m19.188 8.2969h34.422v-8.2969h-46.281v8.2969q5.6094 5.8125 15.297 15.594 9.7031 9.7969 12.188 12.641 4.7344 5.3125 6.6094 9 1.8906 3.6875 1.8906 7.25 0 5.8125-4.0781 9.4688-4.0781 3.6719-10.625 3.6719-4.6406 0-9.7969-1.6094-5.1406-1.6094-11-4.8906v9.9688q5.9531 2.3906 11.125 3.6094 5.1875 1.2188 9.4844 1.2188 11.328 0 18.062-5.6719 6.7344-5.6562 6.7344-15.125 0-4.5-1.6875-8.5312-1.6719-4.0156-6.125-9.4844-1.2188-1.4219-7.7656-8.1875-6.5312-6.7656-18.453-18.922z"/>
</defs>
<g transform="translate(105.71 552.86) scale(.1 -.1)">
<use xlink:href="#d"/>
<use x="63.623047" xlink:href="#f"/>
<use x="95.410156" xlink:href="#m"/>
</g>
</g>
<g clip-path="url(#a)">
<defs>
<path id="p" d="m40.578 39.312q7.0781-1.5156 11.047-6.3125 3.9844-4.7812 3.9844-11.812 0-10.781-7.4219-16.703-7.4219-5.9062-21.094-5.9062-4.5781 0-9.4375 0.90625t-10.031 2.7188v9.5156q4.0938-2.3906 8.9688-3.6094 4.8906-1.2188 10.219-1.2188 9.2656 0 14.125 3.6562t4.8594 10.641q0 6.4531-4.5156 10.078-4.5156 3.6406-12.562 3.6406h-8.5v8.1094h8.8906q7.2656 0 11.125 2.9062t3.8594 8.375q0 5.6094-3.9844 8.6094-3.9688 3.0156-11.391 3.0156-4.0625 0-8.7031-0.89062-4.6406-0.875-10.203-2.7188v8.7812q5.625 1.5625 10.531 2.3438t9.25 0.78125q11.234 0 17.766-5.1094 6.5469-5.0938 6.5469-13.781 0-6.0625-3.4688-10.234t-9.8594-5.7812z"/>
</defs>
<g transform="translate(155.72 883.68) scale(.1 -.1)">
<use xlink:href="#d"/>
<use x="63.623047" xlink:href="#f"/>
<use x="95.410156" xlink:href="#p"/>
</g>
</g>
<g clip-path="url(#a)">
<defs>
<path id="o" d="m37.797 64.312-24.906-38.922h24.906zm-2.5938 8.5938h12.406v-47.516h10.406v-8.2031h-10.406v-17.188h-9.8125v17.188h-32.906v9.5156z"/>
</defs>
<g transform="translate(221.99 386.45) scale(.1 -.1)">
<use xlink:href="#d"/>
<use x="63.623047" xlink:href="#f"/>
<use x="95.410156" xlink:href="#o"/>
</g>
</g>
<g clip-path="url(#a)">
<defs>
<path id="n" d="m10.797 72.906h38.719v-8.3125h-29.688v-17.859q2.1406 0.73438 4.2812 1.0938 2.1562 0.35938 4.3125 0.35938 12.203 0 19.328-6.6875 7.1406-6.6875 7.1406-18.109 0-11.766-7.3281-18.297-7.3281-6.5156-20.656-6.5156-4.5938 0-9.3594 0.78125-4.75 0.78125-9.8281 2.3438v9.9219q4.3906-2.3906 9.0781-3.5625t9.9062-1.1719q8.4531 0 13.375 4.4375 4.9375 4.4375 4.9375 12.062 0 7.6094-4.9375 12.047-4.9219 4.4531-13.375 4.4531-3.9531 0-7.8906-0.875-3.9219-0.875-8.0156-2.7344z"/>
</defs>
<g transform="translate(271.12 883.68) scale(.1 -.1)">
<use xlink:href="#d"/>
<use x="63.623047" xlink:href="#f"/>
<use x="95.410156" xlink:href="#n"/>
</g>
</g>
<g clip-path="url(#a)">
<defs>
<path id="aa" d="m33.016 40.375q-6.6406 0-10.531-4.5469-3.875-4.5312-3.875-12.438 0-7.8594 3.875-12.438 3.8906-4.5625 10.531-4.5625t10.516 4.5625q3.875 4.5781 3.875 12.438 0 7.9062-3.875 12.438-3.875 4.5469-10.516 4.5469zm19.578 30.922v-8.9844q-3.7188 1.75-7.5 2.6719-3.7812 0.9375-7.5 0.9375-9.7656 0-14.922-6.5938-5.1406-6.5938-5.875-19.922 2.875 4.25 7.2188 6.5156 4.3594 2.2656 9.5781 2.2656 10.984 0 17.359-6.6719 6.375-6.6562 6.375-18.125 0-11.234-6.6406-18.031-6.6406-6.7812-17.672-6.7812-12.656 0-19.344 9.6875-6.6875 9.7031-6.6875 28.109 0 17.281 8.2031 27.562t22.016 10.281q3.7188 0 7.5-0.73438t7.8906-2.1875z"/>
</defs>
<g transform="translate(374.78 219.62) scale(.1 -.1)">
<use xlink:href="#d"/>
<use x="63.623047" xlink:href="#f"/>
<use x="95.410156" xlink:href="#aa"/>
</g>
</g>
<g clip-path="url(#a)">
<defs>
<path id="z" d="m8.2031 72.906h46.875v-4.2031l-26.469-68.703h-10.297l24.906 64.594h-35.016z"/>
</defs>
<g transform="translate(709.67 883.68) scale(.1 -.1)">
<use xlink:href="#d"/>
<use x="63.623047" xlink:href="#f"/>
<use x="95.410156" xlink:href="#z"/>
</g>
</g>
<g clip-path="url(#a)">
<defs>
<path id="af" d="m31.781 34.625q-7.0312 0-11.062-3.7656-4.0156-3.7656-4.0156-10.344 0-6.5938 4.0156-10.359 4.0312-3.7656 11.062-3.7656t11.078 3.7812q4.0625 3.7969 4.0625 10.344 0 6.5781-4.0312 10.344-4.0156 3.7656-11.109 3.7656zm-9.8594 4.1875q-6.3438 1.5625-9.8906 5.9062-3.5312 4.3594-3.5312 10.609 0 8.7344 6.2188 13.812 6.2344 5.0781 17.062 5.0781 10.891 0 17.094-5.0781t6.2031-13.812q0-6.25-3.5469-10.609-3.5312-4.3438-9.8281-5.9062 7.125-1.6562 11.094-6.5 3.9844-4.8281 3.9844-11.797 0-10.609-6.4688-16.281-6.4688-5.6562-18.531-5.6562-12.047 0-18.531 5.6562-6.4688 5.6719-6.4688 16.281 0 6.9688 4 11.797 4.0156 4.8438 11.141 6.5zm-3.6094 15.578q0-5.6562 3.5312-8.8281 3.5469-3.1719 9.9375-3.1719 6.3594 0 9.9375 3.1719 3.5938 3.1719 3.5938 8.8281 0 5.6719-3.5938 8.8438-3.5781 3.1719-9.9375 3.1719-6.3906 0-9.9375-3.1719-3.5312-3.1719-3.5312-8.8438z"/>
</defs>
<g transform="translate(1119.5 219.62) scale(.1 -.1)">
<use xlink:href="#d"/>
<use x="63.623047" xlink:href="#f"/>
<use x="95.410156" xlink:href="#af"/>
</g>
</g>
<g clip-path="url(#a)">
<g transform="translate(786.23 718.7) scale(.1 -.1)">
<use xlink:href="#d"/>
<use x="63.623047" xlink:href="#f"/>
<use x="95.410156" xlink:href="#d"/>
<use x="159.033203" xlink:href="#m"/>
</g>
</g>
<g clip-path="url(#a)">
<g transform="translate(929.61 883.68) scale(.1 -.1)">
<use xlink:href="#d"/>
<use x="63.623047" xlink:href="#f"/>
<use x="95.410156" xlink:href="#d"/>
<use x="159.033203" xlink:href="#p"/>
</g>
</g>
<g clip-path="url(#a)">
<g transform="translate(1052.7 883.68) scale(.1 -.1)">
<use xlink:href="#d"/>
<use x="63.623047" xlink:href="#f"/>
<use x="95.410156" xlink:href="#d"/>
<use x="159.033203" xlink:href="#o"/>
</g>
</g>
<g clip-path="url(#a)">
<g transform="translate(1117.8 883.68) scale(.1 -.1)">
<use xlink:href="#d"/>
<use x="63.623047" xlink:href="#f"/>
<use x="95.410156" xlink:href="#d"/>
<use x="159.033203" xlink:href="#n"/>
</g>
</g>
<g clip-path="url(#a)">
<g transform="translate(1184.9 883.68) scale(.1 -.1)">
<use xlink:href="#d"/>
<use x="63.623047" xlink:href="#f"/>
<use x="95.410156" xlink:href="#d"/>
<use x="159.033203" xlink:href="#aa"/>
</g>
</g>
<g clip-path="url(#a)">
<g transform="translate(1488.9 386.45) scale(.1 -.1)">
<use xlink:href="#d"/>
<use x="63.623047" xlink:href="#f"/>
<use x="95.410156" xlink:href="#d"/>
<use x="159.033203" xlink:href="#z"/>
</g>
</g>
<g clip-path="url(#a)">
<defs>
<path id="ak" d="m10.984 1.5156v8.9844q3.7188-1.7656 7.5156-2.6875 3.8125-0.92188 7.4844-0.92188 9.7656 0 14.906 6.5625 5.1562 6.5625 5.8906 19.953-2.8281-4.2031-7.1875-6.4531-4.3438-2.25-9.6094-2.25-10.938 0-17.312 6.6094-6.375 6.625-6.375 18.109 0 11.219 6.6406 18 6.6406 6.7969 17.672 6.7969 12.656 0 19.312-9.7031 6.6719-9.6875 6.6719-28.141 0-17.234-8.1875-27.516-8.1719-10.281-21.984-10.281-3.7188 0-7.5312 0.73438-3.7969 0.73438-7.9062 2.2031zm19.625 30.906q6.6406 0 10.516 4.5312 3.8906 4.5469 3.8906 12.469 0 7.8594-3.8906 12.422-3.875 4.5625-10.516 4.5625t-10.516-4.5625-3.875-12.422q0-7.9219 3.875-12.469 3.875-4.5312 10.516-4.5312z"/>
</defs>
<g transform="translate(1604.6 883.68) scale(.1 -.1)">
<use xlink:href="#d"/>
<use x="63.623047" xlink:href="#f"/>
<use x="95.410156" xlink:href="#d"/>
<use x="159.033203" xlink:href="#ak"/>
</g>
</g>
<g clip-path="url(#a)">
<defs>
<path id="al" d="m31.781 66.406q-7.6094 0-11.453-7.5-3.8281-7.4844-3.8281-22.531 0-14.984 3.8281-22.484 3.8438-7.5 11.453-7.5 7.6719 0 11.5 7.5 3.8438 7.5 3.8438 22.484 0 15.047-3.8438 22.531-3.8281 7.5-11.5 7.5zm0 7.8125q12.266 0 18.734-9.7031 6.4688-9.6875 6.4688-28.141 0-18.406-6.4688-28.109-6.4688-9.6875-18.734-9.6875-12.25 0-18.719 9.6875-6.4688 9.7031-6.4688 28.109 0 18.453 6.4688 28.141 6.4688 9.7031 18.719 9.7031z"/>
</defs>
<g transform="translate(1565.7 552.86) scale(.1 -.1)">
<use xlink:href="#d"/>
<use x="63.623047" xlink:href="#f"/>
<use x="95.410156" xlink:href="#m"/>
<use x="159.033203" xlink:href="#al"/>
</g>
</g>
<g clip-path="url(#a)">
<g transform="translate(1398.9 883.68) scale(.1 -.1)">
<use xlink:href="#d"/>
<use x="63.623047" xlink:href="#f"/>
<use x="95.410156" xlink:href="#m"/>
<use x="159.033203" xlink:href="#d"/>
</g>
</g>
<g clip-path="url(#a)">
<g transform="translate(1474.5 883.68) scale(.1 -.1)">
<use xlink:href="#d"/>
<use x="63.623047" xlink:href="#f"/>
<use x="95.410156" xlink:href="#m"/>
<use x="159.033203" xlink:href="#m"/>
</g>
</g>
<g clip-path="url(#a)">
<g transform="translate(1674.9 718.7) scale(.1 -.1)">
<use xlink:href="#d"/>
<use x="63.623047" xlink:href="#f"/>
<use x="95.410156" xlink:href="#m"/>
<use x="159.033203" xlink:href="#p"/>
</g>
</g>
<g clip-path="url(#a)">
<g transform="translate(1714.4 718.7) scale(.1 -.1)">
<use xlink:href="#d"/>
<use x="63.623047" xlink:href="#f"/>
<use x="95.410156" xlink:href="#m"/>
<use x="159.033203" xlink:href="#o"/>
</g>
</g>
<g clip-path="url(#a)">
<g transform="translate(1631.8 883.68) scale(.1 -.1)">
<use xlink:href="#d"/>
<use x="63.623047" xlink:href="#f"/>
<use x="95.410156" xlink:href="#m"/>
<use x="159.033203" xlink:href="#n"/>
</g>
</g>
<g clip-path="url(#a)">
<g transform="translate(1713.7 883.68) scale(.1 -.1)">
<use xlink:href="#d"/>
<use x="63.623047" xlink:href="#f"/>
<use x="95.410156" xlink:href="#m"/>
<use x="159.033203" xlink:href="#aa"/>
</g>
</g>
<g clip-path="url(#a)">
<g transform="translate(1797.6 883.68) scale(.1 -.1)">
<use xlink:href="#d"/>
<use x="63.623047" xlink:href="#f"/>
<use x="95.410156" xlink:href="#m"/>
<use x="159.033203" xlink:href="#z"/>
</g>
</g>
<g clip-path="url(#a)">
<g transform="translate(1552.1 883.68) scale(.1 -.1)">
<use xlink:href="#d"/>
<use x="63.623047" xlink:href="#f"/>
<use x="95.410156" xlink:href="#m"/>
<use x="159.033203" xlink:href="#af"/>
</g>
</g>
<g clip-path="url(#a)">
<g transform="translate(758.95 883.68) scale(.1 -.1)">
<use xlink:href="#d"/>
<use x="63.623047" xlink:href="#f"/>
<use x="95.410156" xlink:href="#m"/>
<use x="159.033203" xlink:href="#ak"/>
</g>
</g>
<g clip-path="url(#a)">
<g transform="translate(813.51 883.68) scale(.1 -.1)">
<use xlink:href="#d"/>
<use x="63.623047" xlink:href="#f"/>
<use x="95.410156" xlink:href="#p"/>
<use x="159.033203" xlink:href="#al"/>
</g>
</g>
<g clip-path="url(#a)">
<g transform="translate(297.32 883.68) scale(.1 -.1)">
<use xlink:href="#d"/>
<use x="63.623047" xlink:href="#f"/>
<use x="95.410156" xlink:href="#p"/>
<use x="159.033203" xlink:href="#d"/>
</g>
</g>
<g clip-path="url(#a)">
<g transform="translate(328.79 883.68) scale(.1 -.1)">
<use xlink:href="#d"/>
<use x="63.623047" xlink:href="#f"/>
<use x="95.410156" xlink:href="#p"/>
<use x="159.033203" xlink:href="#m"/>
</g>
</g>
<g clip-path="url(#a)">
<g transform="translate(497.92 386.45) scale(.1 -.1)">
<use xlink:href="#d"/>
<use x="63.623047" xlink:href="#f"/>
<use x="95.410156" xlink:href="#p"/>
<use x="159.033203" xlink:href="#p"/>
</g>
</g>
<g clip-path="url(#a)">
<g transform="translate(398.04 883.68) scale(.1 -.1)">
<use xlink:href="#d"/>
<use x="63.623047" xlink:href="#f"/>
<use x="95.410156" xlink:href="#p"/>
<use x="159.033203" xlink:href="#n"/>
</g>
</g>
<g clip-path="url(#a)">
<g transform="translate(435.81 883.68) scale(.1 -.1)">
<use xlink:href="#d"/>
<use x="63.623047" xlink:href="#f"/>
<use x="95.410156" xlink:href="#p"/>
<use x="159.033203" xlink:href="#aa"/>
</g>
</g>
<g clip-path="url(#a)">
<g transform="translate(486.17 552.86) scale(.1 -.1)">
<use xlink:href="#d"/>
<use x="63.623047" xlink:href="#f"/>
<use x="95.410156" xlink:href="#p"/>
<use x="159.033203" xlink:href="#z"/>
</g>
</g>
<g clip-path="url(#a)">
<g transform="translate(561.71 883.68) scale(.1 -.1)">
<use xlink:href="#d"/>
<use x="63.623047" xlink:href="#f"/>
<use x="95.410156" xlink:href="#p"/>
<use x="159.033203" xlink:href="#af"/>
</g>
</g>
<g clip-path="url(#a)">
<g transform="translate(607.87 883.68) scale(.1 -.1)">
<use xlink:href="#d"/>
<use x="63.623047" xlink:href="#f"/>
<use x="95.410156" xlink:href="#p"/>
<use x="159.033203" xlink:href="#ak"/>
</g>
</g>
<g clip-path="url(#a)">
<g transform="translate(475.68 883.68) scale(.1 -.1)">
<use xlink:href="#d"/>
<use x="63.623047" xlink:href="#f"/>
<use x="95.410156" xlink:href="#o"/>
<use x="159.033203" xlink:href="#al"/>
</g>
</g>
<g clip-path="url(#a)">
<g transform="translate(496.66 718.7) scale(.1 -.1)">
<use xlink:href="#d"/>
<use x="63.623047" xlink:href="#f"/>
<use x="95.410156" xlink:href="#o"/>
<use x="159.033203" xlink:href="#d"/>
</g>
</g>
<g clip-path="url(#a)">
<g transform="translate(517.64 883.68) scale(.1 -.1)">
<use xlink:href="#d"/>
<use x="63.623047" xlink:href="#f"/>
<use x="95.410156" xlink:href="#o"/>
<use x="159.033203" xlink:href="#m"/>
</g>
</g>
<g clip-path="url(#a)">
<g transform="translate(196.95 552.86) scale(.1 -.1)">
<use xlink:href="#d"/>
<use x="63.623047" xlink:href="#f"/>
<use x="95.410156" xlink:href="#o"/>
<use x="159.033203" xlink:href="#p"/>
</g>
</g>
<g clip-path="url(#a)">
<g transform="translate(240.67 883.68) scale(.1 -.1)">
<use xlink:href="#d"/>
<use x="63.623047" xlink:href="#f"/>
<use x="95.410156" xlink:href="#o"/>
<use x="159.033203" xlink:href="#o"/>
</g>
</g>
<g clip-path="url(#a)">
<g transform="translate(171.42 883.68) scale(.1 -.1)">
<use xlink:href="#d"/>
<use x="63.623047" xlink:href="#f"/>
<use x="95.410156" xlink:href="#o"/>
<use x="159.033203" xlink:href="#n"/>
</g>
</g>
<g clip-path="url(#a)">
<g transform="translate(203.94 718.7) scale(.1 -.1)">
<use xlink:href="#d"/>
<use x="63.623047" xlink:href="#f"/>
<use x="95.410156" xlink:href="#o"/>
<use x="159.033203" xlink:href="#aa"/>
</g>
</g>
<g clip-path="url(#a)">
<g transform="translate(215.49 883.68) scale(.1 -.1)">
<use xlink:href="#d"/>
<use x="63.623047" xlink:href="#f"/>
<use x="95.410156" xlink:href="#o"/>
<use x="159.033203" xlink:href="#z"/>
</g>
</g>
<g clip-path="url(#a)">
<g transform="translate(192.4 883.68) scale(.1 -.1)">
<use xlink:href="#d"/>
<use x="63.623047" xlink:href="#f"/>
<use x="95.410156" xlink:href="#o"/>
<use x="159.033203" xlink:href="#af"/>
</g>
</g>
<g clip-path="url(#a)">
<g transform="translate(90.286 718.7) scale(.1 -.1)">
<use xlink:href="#d"/>
<use x="63.623047" xlink:href="#f"/>
<use x="95.410156" xlink:href="#o"/>
<use x="159.033203" xlink:href="#ak"/>
</g>
</g>
<g clip-path="url(#a)">
<g transform="translate(114.77 883.68) scale(.1 -.1)">
<use xlink:href="#d"/>
<use x="63.623047" xlink:href="#f"/>
<use x="95.410156" xlink:href="#n"/>
<use x="159.033203" xlink:href="#al"/>
</g>
</g>
<g clip-path="url(#a)">
<g transform="translate(83.291 883.68) scale(.1 -.1)">
<use xlink:href="#d"/>
<use x="63.623047" xlink:href="#f"/>
<use x="95.410156" xlink:href="#n"/>
<use x="159.033203" xlink:href="#d"/>
</g>
</g>
<g clip-path="url(#a)">
<g transform="translate(89.586 883.68) scale(.1 -.1)">
<use xlink:href="#d"/>
<use x="63.623047" xlink:href="#f"/>
<use x="95.410156" xlink:href="#n"/>
<use x="159.033203" xlink:href="#m"/>
</g>
</g>
<g clip-path="url(#a)">
<g transform="translate(97.98 883.68) scale(.1 -.1)">
<use xlink:href="#d"/>
<use x="63.623047" xlink:href="#f"/>
<use x="95.410156" xlink:href="#n"/>
<use x="159.033203" xlink:href="#p"/>
</g>
</g>
<g clip-path="url(#a)">
<g transform="translate(135.75 883.68) scale(.1 -.1)">
<use xlink:href="#d"/>
<use x="63.623047" xlink:href="#f"/>
<use x="95.410156" xlink:href="#n"/>
<use x="159.033203" xlink:href="#o"/>
</g>
</g>
<g clip-path="url(#a)">
<g transform="translate(362.37 883.68) scale(.1 -.1)">
<use xlink:href="#d"/>
<use x="63.623047" xlink:href="#f"/>
<use x="95.410156" xlink:href="#n"/>
<use x="159.033203" xlink:href="#n"/>
</g>
</g>
<g clip-path="url(#a)">
<g transform="translate(656.13 883.68) scale(.1 -.1)">
<use xlink:href="#d"/>
<use x="63.623047" xlink:href="#f"/>
<use x="95.410156" xlink:href="#n"/>
<use x="159.033203" xlink:href="#aa"/>
</g>
</g>
<g clip-path="url(#a)">
<g transform="translate(1254.2 883.68) scale(.1 -.1)">
<use xlink:href="#d"/>
<use x="63.623047" xlink:href="#f"/>
<use x="95.410156" xlink:href="#n"/>
<use x="159.033203" xlink:href="#z"/>
</g>
</g>
<g clip-path="url(#a)">
<g transform="translate(1971.8 883.68) scale(.1 -.1)">
<use xlink:href="#d"/>
<use x="63.623047" xlink:href="#f"/>
<use x="95.410156" xlink:href="#n"/>
<use x="159.033203" xlink:href="#af"/>
</g>
</g>
<defs>
<clipPath id="a">
<rect width="2077.3" height="1093.3"/>
</clipPath>
</defs>
</svg>
