<?xml version="1.0" encoding="UTF-8"?>
<!DOCTYPE svg  PUBLIC '-//W3C//DTD SVG 1.1//EN'  'http://www.w3.org/Graphics/SVG/1.1/DTD/svg11.dtd'>
<svg width="1874.7pt" height="986.67pt" version="1.1" viewBox="0 0 1874.7 986.67" xmlns="http://www.w3.org/2000/svg" xmlns:xlink="http://www.w3.org/1999/xlink">
<defs>
<style type="text/css">*{stroke-linecap:butt;stroke-linejoin:round;}</style>
</defs>
<path d="m0 986.67h1874.7v-986.67h-1874.7z" fill="#fff"/>
<g fill="none" stroke="#000">
<path d="m624.32 45.623-538.95 772.79" clip-path="url(#a)"/>
<path d="m624.32 45.623-332.67 136.58" clip-path="url(#a)"/>
<path d="m624.32 45.623 313.01 772.79" clip-path="url(#a)"/>
<path d="m624.32 45.623 558.61 136.58" clip-path="url(#a)"/>
<path d="m85.37 818.42v122.63" clip-path="url(#a)"/>
<path d="m291.66 182.21-135.29 513.58" clip-path="url(#a)"/>
<path d="m291.66 182.21-64.292 636.21" clip-path="url(#a)"/>
<path d="m291.66 182.21 6.7053 513.58" clip-path="url(#a)"/>
<path d="m291.66 182.21 192.88 132.91" clip-path="url(#a)"/>
<path d="m937.33 818.42v122.63" clip-path="url(#a)"/>
<path d="m1182.9 182.21-150.93 513.58" clip-path="url(#a)"/>
<path d="m1182.9 182.21-56.272 636.21" clip-path="url(#a)"/>
<path d="m1182.9 182.21 14.725 513.58" clip-path="url(#a)"/>
<path d="m1182.9 182.21 192.48 132.91" clip-path="url(#a)"/>
<path d="m1032 695.79-47.331 122.63" clip-path="url(#a)"/>
<path d="m1032 695.79v122.63" clip-path="url(#a)"/>
<path d="m1032 695.79 47.331 122.63" clip-path="url(#a)"/>
<path d="m1126.7 818.42v122.63" clip-path="url(#a)"/>
<path d="m1197.7 695.79-23.666 122.63" clip-path="url(#a)"/>
<path d="m1197.7 695.79 23.666 122.63" clip-path="url(#a)"/>
<path d="m1375.4 315.12-106.76 503.3" clip-path="url(#a)"/>
<path d="m1375.4 315.12-59.427 503.3" clip-path="url(#a)"/>
<path d="m1375.4 315.12-12.096 503.3" clip-path="url(#a)"/>
<path d="m1375.4 315.12 143.05 129.61" clip-path="url(#a)"/>
<path d="m1375.4 315.12 35.236 503.3" clip-path="url(#a)"/>
<path d="m1268.7 818.42v122.63" clip-path="url(#a)"/>
<path d="m1316 818.42v122.63" clip-path="url(#a)"/>
<path d="m1363.3 818.42v122.63" clip-path="url(#a)"/>
<path d="m1518.5 444.73-155.14 373.68" clip-path="url(#a)" stroke-dasharray="3.7,1.6"/>
<path d="m1518.5 444.73-60.479 373.68" clip-path="url(#a)"/>
<path d="m1518.5 444.73-13.148 373.68" clip-path="url(#a)"/>
<path d="m1518.5 444.73 34.184 373.68" clip-path="url(#a)"/>
<path d="m1518.5 444.73 81.515 373.68" clip-path="url(#a)"/>
<path d="m1518.5 444.73 113.07 126.73" clip-path="url(#a)"/>
<path d="m1458 818.42v122.63" clip-path="url(#a)"/>
<path d="m1505.3 818.42v122.63" clip-path="url(#a)"/>
<path d="m1552.6 818.42v122.63" clip-path="url(#a)"/>
<path d="m1600 818.42v122.63" clip-path="url(#a)"/>
<path d="m1631.5 571.46-31.554 246.96" clip-path="url(#a)" stroke-dasharray="3.7,1.6"/>
<path d="m1631.5 571.46 15.777 246.96" clip-path="url(#a)"/>
<path d="m1631.5 571.46 15.777 124.33" clip-path="url(#a)"/>
<path d="m1647.3 818.42v122.63" clip-path="url(#a)"/>
<path d="m1647.3 695.79-283.99 122.63" clip-path="url(#a)" stroke-dasharray="3.7,1.6"/>
<path d="m1647.3 695.79 47.331 122.63" clip-path="url(#a)"/>
<path d="m1647.3 695.79 94.663 122.63" clip-path="url(#a)"/>
<path d="m1647.3 695.79 141.99 122.63" clip-path="url(#a)"/>
<path d="m1694.6 818.42v122.63" clip-path="url(#a)"/>
<path d="m1742 818.42v122.63" clip-path="url(#a)"/>
<path d="m1174 818.42v122.63" clip-path="url(#a)"/>
<path d="m1221.3 818.42v122.63" clip-path="url(#a)"/>
<path d="m984.66 818.42v122.63" clip-path="url(#a)"/>
<path d="m1032 818.42v122.63" clip-path="url(#a)"/>
<path d="m1079.3 818.42v122.63" clip-path="url(#a)"/>
<path d="m156.37 695.79-23.666 122.63" clip-path="url(#a)"/>
<path d="m156.37 695.79 23.666 122.63" clip-path="url(#a)"/>
<path d="m227.36 818.42v122.63" clip-path="url(#a)"/>
<path d="m298.36 695.79-23.666 122.63" clip-path="url(#a)"/>
<path d="m298.36 695.79 23.666 122.63" clip-path="url(#a)"/>
<path d="m484.53 315.12-115.17 503.3" clip-path="url(#a)"/>
<path d="m484.53 315.12-67.842 503.3" clip-path="url(#a)"/>
<path d="m484.53 315.12-20.51 503.3" clip-path="url(#a)"/>
<path d="m484.53 315.12 176.7 129.61" clip-path="url(#a)"/>
<path d="m484.53 315.12 26.821 503.3" clip-path="url(#a)"/>
<path d="m369.36 818.42v122.63" clip-path="url(#a)"/>
<path d="m416.69 818.42v122.63" clip-path="url(#a)"/>
<path d="m464.02 818.42v122.63" clip-path="url(#a)"/>
<path d="m661.23 444.73-197.21 373.68" clip-path="url(#a)" stroke-dasharray="3.7,1.6"/>
<path d="m661.23 444.73-78.886 251.06" clip-path="url(#a)"/>
<path d="m661.23 444.73-7.8886 373.68" clip-path="url(#a)"/>
<path d="m661.23 444.73 39.443 373.68" clip-path="url(#a)"/>
<path d="m661.23 444.73 157.77 126.73" clip-path="url(#a)"/>
<path d="m661.23 444.73 86.774 373.68" clip-path="url(#a)"/>
<path d="m582.35 695.79-23.666 122.63" clip-path="url(#a)"/>
<path d="m582.35 695.79 23.666 122.63" clip-path="url(#a)"/>
<path d="m653.35 818.42v122.63" clip-path="url(#a)"/>
<path d="m700.68 818.42v122.63" clip-path="url(#a)"/>
<path d="m819.01 571.46-23.666 246.96" clip-path="url(#a)"/>
<path d="m819.01 571.46 23.666 124.33" clip-path="url(#a)"/>
<path d="m795.34 818.42v122.63" clip-path="url(#a)"/>
<path d="m842.67 695.79-47.331 122.63" clip-path="url(#a)" stroke-dasharray="3.7,1.6"/>
<path d="m842.67 695.79v122.63" clip-path="url(#a)"/>
<path d="m842.67 695.79 47.331 122.63" clip-path="url(#a)"/>
<path d="m842.67 818.42v122.63" clip-path="url(#a)"/>
<path d="m890 818.42v122.63" clip-path="url(#a)"/>
<path d="m558.68 818.42v122.63" clip-path="url(#a)"/>
<path d="m606.01 818.42v122.63" clip-path="url(#a)"/>
<path d="m274.69 818.42v122.63" clip-path="url(#a)"/>
<path d="m322.03 818.42v122.63" clip-path="url(#a)"/>
<path d="m132.7 818.42v122.63" clip-path="url(#a)"/>
<path d="m180.03 818.42v122.63" clip-path="url(#a)"/>
<path d="m511.35 818.42v122.63" clip-path="url(#a)"/>
<path d="m748.01 818.42v122.63" clip-path="url(#a)"/>
<path d="m1410.6 818.42v122.63" clip-path="url(#a)"/>
<path d="m1789.3 818.42v122.63" clip-path="url(#a)"/>
</g>
<path d="m358.71 437.44 2.5498-3.6562q1.3729-1.9686-0.59567-3.3414l-6.3506-4.429q-1.9686-1.3729-3.3414 0.59567l-2.5498 3.6562q-1.3729 1.9686 0.59567 3.3414l6.3506 4.429q1.9686 1.3729 3.3414-0.59567z" clip-path="url(#a)" fill="#fff" stroke="#fff"/>
<g clip-path="url(#a)">
<defs>
<path id="aq" d="m9.8125 72.906h9.8594v-64.609h35.5v-8.2969h-45.359z"/>
</defs>
<g transform="translate(355.38 435.11) rotate(-55.108) scale(.08 -.08)">
<use xlink:href="#aq"/>
</g>
</g>
<path d="m457.59 120.86 5.5654-2.285q2.2202-0.91154 1.3086-3.1317l-2.9406-7.1623q-0.91154-2.2202-3.1317-1.3086l-5.5654 2.285q-2.2202 0.91154-1.3086 3.1317l2.9406 7.1623q0.91154 2.2202 3.1317 1.3086z" clip-path="url(#a)" fill="#fff" stroke="#fff"/>
<g clip-path="url(#a)">
<defs>
<path id="an" d="m9.8125 72.906h9.8594v-29.891h35.844v29.891h9.8594v-72.906h-9.8594v34.719h-35.844v-34.719h-9.8594z"/>
</defs>
<g transform="translate(456.04 117.1) rotate(-22.322) scale(.08 -.08)">
<use xlink:href="#an"/>
</g>
</g>
<path d="m774.18 432.31 1.6734 4.1315q0.90099 2.2245 3.1254 1.3235l7.1762-2.9066q2.2245-0.90099 1.3235-3.1254l-1.6734-4.1315q-0.90099-2.2245-3.1254-1.3235l-7.1762 2.9066q-2.2245 0.90099-1.3235 3.1254z" clip-path="url(#a)" fill="#fff" stroke="#fff"/>
<g clip-path="url(#a)">
<g transform="translate(777.94 430.78) rotate(67.95) scale(.08 -.08)">
<use xlink:href="#aq"/>
</g>
</g>
<path d="m899.21 119.29 5.8441 1.4289q2.3313 0.57002 2.9014-1.7613l1.8389-7.5209q0.57002-2.3313-1.7613-2.9013l-5.8441-1.4289q-2.3313-0.57003-2.9014 1.7613l-1.8389 7.5209q-0.57002 2.3313 1.7613 2.9013z" clip-path="url(#a)" fill="#fff" stroke="#fff"/>
<g clip-path="url(#a)">
<g transform="translate(900.18 115.35) rotate(13.74) scale(.08 -.08)">
<use xlink:href="#an"/>
</g>
</g>
<path d="m79.098 862.09v35.285q0 2.4 2.4 2.4h7.7425q2.4 0 2.4-2.4v-35.285q0-2.4-2.4-2.4h-7.7425q-2.4 0-2.4 2.4z" clip-path="url(#a)" fill="#fff" stroke="#fff"/>
<g clip-path="url(#a)">
<defs>
<path id="l" d="m-0.29688 72.906h61.672v-8.3125h-25.875v-64.594h-9.9062v64.594h-25.891z"/>
<path id="d" d="m56.203 29.594v-4.3906h-41.312q0.59375-9.2812 5.5938-14.141t13.938-4.8594q5.1719 0 10.031 1.2656t9.6562 3.8125v-8.5q-4.8438-2.0469-9.9219-3.125t-10.297-1.0781q-13.094 0-20.734 7.6094-7.6406 7.625-7.6406 20.625 0 13.422 7.25 21.297 7.25 7.8906 19.562 7.8906 11.031 0 17.453-7.1094 6.4219-7.0938 6.4219-19.297zm-8.9844 2.6406q-0.09375 7.3594-4.125 11.75-4.0312 4.4062-10.672 4.4062-7.5156 0-12.031-4.25t-5.2031-11.969z"/>
<path id="i" d="m41.109 46.297q-1.5156 0.875-3.2969 1.2812-1.7812 0.42188-3.9219 0.42188-7.625 0-11.703-4.9531t-4.0781-14.234v-28.812h-9.0312v54.688h9.0312v-8.5q2.8438 4.9844 7.375 7.3906 4.5469 2.4219 11.047 2.4219 0.92188 0 2.0469-0.125 1.125-0.10938 2.4844-0.35938z"/>
<path id="j" d="m52 44.188q3.375 6.0625 8.0625 8.9375t11.031 2.875q8.5469 0 13.188-5.9844 4.6406-5.9688 4.6406-17v-33.016h-9.0312v32.719q0 7.8594-2.7969 11.656-2.7812 3.8125-8.4844 3.8125-6.9844 0-11.047-4.6406-4.0469-4.625-4.0469-12.641v-30.906h-9.0312v32.719q0 7.9062-2.7812 11.688t-8.5938 3.7812q-6.8906 0-10.953-4.6562-4.0469-4.6562-4.0469-12.625v-30.906h-9.0312v54.688h9.0312v-8.5q3.0781 5.0312 7.375 7.4219t10.203 2.3906q5.9688 0 10.141-3.0312 4.1719-3.0156 6.1719-8.7812z"/>
<path id="g" d="m9.4219 54.688h8.9844v-54.688h-8.9844zm0 21.297h8.9844v-11.391h-8.9844z"/>
<path id="f" d="m54.891 33.016v-33.016h-8.9844v32.719q0 7.7656-3.0312 11.609-3.0312 3.8594-9.0781 3.8594-7.2812 0-11.484-4.6406-4.2031-4.625-4.2031-12.641v-30.906h-9.0312v54.688h9.0312v-8.5q3.2344 4.9375 7.5938 7.375 4.375 2.4375 10.094 2.4375 9.4219 0 14.25-5.8281 4.8438-5.8281 4.8438-17.156z"/>
<path id="h" d="m34.281 27.484q-10.891 0-15.094-2.4844t-4.2031-8.5q0-4.7812 3.1562-7.5938 3.1562-2.7969 8.5625-2.7969 7.4844 0 12 5.2969t4.5156 14.078v2zm17.922 3.7188v-31.203h-8.9844v8.2969q-3.0781-4.9688-7.6719-7.3438t-11.234-2.375q-8.3906 0-13.359 4.7188-4.9531 4.7188-4.9531 12.625 0 9.2188 6.1719 13.906 6.1875 4.6875 18.438 4.6875h12.609v0.89062q0 6.2031-4.0781 9.5938t-11.453 3.3906q-4.6875 0-9.1406-1.125-4.4375-1.125-8.5312-3.375v8.3125q4.9219 1.9062 9.5625 2.8438 4.6406 0.95312 9.0312 0.95312 11.875 0 17.734-6.1562 5.8594-6.1406 5.8594-18.641z"/>
<path id="k" d="m9.4219 75.984h8.9844v-75.984h-8.9844z"/>
</defs>
<g transform="translate(83.162 862.09) rotate(90) scale(.08 -.08)">
<use xlink:href="#l"/>
<use x="60.818359" xlink:href="#d"/>
<use x="122.341797" xlink:href="#i"/>
<use x="163.439453" xlink:href="#j"/>
<use x="260.851562" xlink:href="#g"/>
<use x="288.634766" xlink:href="#f"/>
<use x="352.013672" xlink:href="#h"/>
<use x="413.292969" xlink:href="#k"/>
</g>
</g>
<path d="m229.45 442.96 1.2447-4.7251q0.61136-2.3208-1.7095-2.9322l-7.4871-1.9723q-2.3208-0.61136-2.9322 1.7095l-1.2447 4.7251q-0.61135 2.3208 1.7095 2.9322l7.4871 1.9723q2.3208 0.61136 2.9322-1.7095z" clip-path="url(#a)" fill="#fff" stroke="#fff"/>
<g clip-path="url(#a)">
<g transform="translate(225.52 441.92) rotate(-75.242) scale(.08 -.08)">
<use xlink:href="#l"/>
</g>
</g>
<path d="m265.51 503.34 0.48499-4.7993q0.2413-2.3878-2.1465-2.6291l-7.7033-0.77845q-2.3878-0.2413-2.6291 2.1465l-0.48499 4.7993q-0.2413 2.3878 2.1465 2.6291l7.7033 0.77845q2.3878 0.2413 2.6291-2.1465z" clip-path="url(#a)" fill="#fff" stroke="#fff"/>
<g clip-path="url(#a)">
<defs>
<path id="w" d="m19.672 64.797v-27.391h12.406q6.8906 0 10.641 3.5625 3.7656 3.5625 3.7656 10.156 0 6.5469-3.7656 10.109-3.75 3.5625-10.641 3.5625zm-9.8594 8.1094h22.266q12.266 0 18.531-5.5469 6.2812-5.5469 6.2812-16.234 0-10.797-6.2812-16.312-6.2656-5.5156-18.531-5.5156h-12.406v-29.297h-9.8594z"/>
</defs>
<g transform="translate(261.46 502.93) rotate(-84.23) scale(.08 -.08)">
<use xlink:href="#w"/>
</g>
</g>
<path d="m288.7 436.35 0.071442 5.472q0.031331 2.3998 2.4311 2.3685l7.7418-0.10108q2.3998-0.031331 2.3685-2.4311l-0.071442-5.472q-0.031331-2.3998-2.4311-2.3685l-7.7418 0.10108q-2.3998 0.031331-2.3685 2.4311z" clip-path="url(#a)" fill="#fff" stroke="#fff"/>
<g clip-path="url(#a)">
<defs>
<path id="p" d="m34.188 63.188-13.391-36.281h26.812zm-5.5781 9.7188h11.188l27.781-72.906h-10.25l-6.6406 18.703h-32.859l-6.6406-18.703h-10.406z"/>
</defs>
<g transform="translate(292.76 436.29) rotate(89.252) scale(.08 -.08)">
<use xlink:href="#p"/>
</g>
</g>
<path d="m382.28 252.27 4.5062 3.1053q1.9762 1.3618 3.338-0.61438l4.3933-6.3753q1.3618-1.9762-0.61438-3.338l-4.5062-3.1053q-1.9762-1.3618-3.338 0.61438l-4.3933 6.3753q-1.3618 1.9762 0.61438 3.338z" clip-path="url(#a)" fill="#fff" stroke="#fff"/>
<g clip-path="url(#a)">
<g transform="translate(384.59 248.93) rotate(34.571) scale(.08 -.08)">
<use xlink:href="#p"/>
</g>
</g>
<path d="m931.06 862.09v35.285q0 2.4 2.4 2.4h7.7425q2.4 0 2.4-2.4v-35.285q0-2.4-2.4-2.4h-7.7425q-2.4 0-2.4 2.4z" clip-path="url(#a)" fill="#fff" stroke="#fff"/>
<g clip-path="url(#a)">
<g transform="translate(935.13 862.09) rotate(90) scale(.08 -.08)">
<use xlink:href="#l"/>
<use x="60.818359" xlink:href="#d"/>
<use x="122.341797" xlink:href="#i"/>
<use x="163.439453" xlink:href="#j"/>
<use x="260.851562" xlink:href="#g"/>
<use x="288.634766" xlink:href="#f"/>
<use x="352.013672" xlink:href="#h"/>
<use x="413.292969" xlink:href="#k"/>
</g>
</g>
<path d="m1112.7 443.39 1.543-5.2505q0.6767-2.3026-1.6259-2.9793l-7.4284-2.1831q-2.3026-0.6767-2.9793 1.6259l-1.543 5.2505q-0.6767 2.3026 1.6259 2.9793l7.4284 2.1831q2.3026 0.6767 2.9793-1.6259z" clip-path="url(#a)" fill="#fff" stroke="#fff"/>
<g clip-path="url(#a)">
<g transform="translate(1108.8 442.25) rotate(-73.623) scale(.08 -.08)">
<use xlink:href="#p"/>
</g>
</g>
<path d="m1160.8 503.27 0.42499-4.805q0.21145-2.3907-2.1792-2.6021l-7.7124-0.68215q-2.3907-0.21145-2.6021 2.1792l-0.42499 4.805q-0.21145 2.3907 2.1792 2.6021l7.7124 0.68215q2.3907 0.21145 2.6021-2.1792z" clip-path="url(#a)" fill="#fff" stroke="#fff"/>
<g clip-path="url(#a)">
<g transform="translate(1156.8 502.91) rotate(-84.945) scale(.08 -.08)">
<use xlink:href="#w"/>
</g>
</g>
<path d="m1183.9 436.1 0.17654 6.1575q0.068783 2.399 2.4678 2.3302l7.7393-0.2219q2.399-0.068784 2.3302-2.4678l-0.17654-6.1575q-0.068784-2.399-2.4678-2.3302l-7.7393 0.2219q-2.399 0.068783-2.3302 2.4678z" clip-path="url(#a)" fill="#fff" stroke="#fff"/>
<g clip-path="url(#a)">
<defs>
<path id="y" d="m19.672 64.797v-56.688h11.922q15.094 0 22.094 6.8281 7 6.8438 7 21.594 0 14.641-7 21.453t-22.094 6.8125zm-9.8594 8.1094h20.266q21.188 0 31.094-8.8125 9.9219-8.8125 9.9219-27.562 0-18.859-9.9688-27.703-9.9531-8.8281-31.047-8.8281h-20.266z"/>
</defs>
<g transform="translate(1188 435.98) rotate(88.358) scale(.08 -.08)">
<use xlink:href="#y"/>
</g>
</g>
<path d="m1273.4 252.27 4.5032 3.1096q1.9749 1.3637 3.3386-0.61118l4.3994-6.3711q1.3637-1.9749-0.61118-3.3386l-4.5032-3.1096q-1.9749-1.3637-3.3386 0.61118l-4.3994 6.3711q-1.3637 1.9749 0.61118 3.3386z" clip-path="url(#a)" fill="#fff" stroke="#fff"/>
<g clip-path="url(#a)">
<g transform="translate(1275.7 248.93) rotate(34.626) scale(.08 -.08)">
<use xlink:href="#p"/>
</g>
</g>
<path d="m1013.4 761.51 1.6569-4.2926q0.86421-2.239-1.3748-3.1032l-7.2231-2.788q-2.239-0.86421-3.1032 1.3748l-1.6569 4.2926q-0.86421 2.239 1.3748 3.1032l7.2231 2.788q2.239 0.86421 3.1032-1.3748z" clip-path="url(#a)" fill="#fff" stroke="#fff"/>
<g clip-path="url(#a)">
<defs>
<path id="x" d="m9.8125 72.906h41.891v-8.3125h-32.031v-21.484h28.906v-8.2969h-28.906v-34.812h-9.8594z"/>
</defs>
<g transform="translate(1009.6 760.05) rotate(-68.894) scale(.08 -.08)">
<use xlink:href="#x"/>
</g>
</g>
<path d="m1025.7 754.58v5.055q0 2.4 2.4 2.4h7.7425q2.4 0 2.4-2.4v-5.055q0-2.4-2.4-2.4h-7.7425q-2.4 0-2.4 2.4z" clip-path="url(#a)" fill="#fff" stroke="#fff"/>
<g clip-path="url(#a)">
<defs>
<path id="t" d="m9.8125 72.906h46.094v-8.3125h-36.234v-21.578h34.719v-8.2969h-34.719v-26.422h37.109v-8.2969h-46.969z"/>
</defs>
<g transform="translate(1029.8 754.58) rotate(90) scale(.08 -.08)">
<use xlink:href="#t"/>
</g>
</g>
<path d="m1048.8 756.76 2.0115 5.2115q0.86421 2.239 3.1032 1.3748l7.2231-2.788q2.239-0.86421 1.3748-3.1032l-2.0115-5.2115q-0.86421-2.239-3.1032-1.3748l-7.2231 2.788q-2.239 0.86421-1.3748 3.1032z" clip-path="url(#a)" fill="#fff" stroke="#fff"/>
<g clip-path="url(#a)">
<defs>
<path id="s" d="m64.406 67.281v-10.391q-4.9844 4.6406-10.625 6.9219-5.6406 2.2969-11.984 2.2969-12.5 0-19.141-7.6406t-6.6406-22.094q0-14.406 6.6406-22.047t19.141-7.6406q6.3438 0 11.984 2.2969t10.625 6.9375v-10.312q-5.1719-3.5156-10.969-5.2812-5.7812-1.75-12.219-1.75-16.562 0-26.094 10.125-9.5156 10.141-9.5156 27.672 0 17.578 9.5156 27.703 9.5312 10.141 26.094 10.141 6.5312 0 12.312-1.7344 5.7969-1.7344 10.875-5.2031z"/>
</defs>
<g transform="translate(1052.6 755.29) rotate(68.894) scale(.08 -.08)">
<use xlink:href="#s"/>
</g>
</g>
<path d="m1120.4 862.09v35.285q0 2.4 2.4 2.4h7.7425q2.4 0 2.4-2.4v-35.285q0-2.4-2.4-2.4h-7.7425q-2.4 0-2.4 2.4z" clip-path="url(#a)" fill="#fff" stroke="#fff"/>
<g clip-path="url(#a)">
<g transform="translate(1124.5 862.09) rotate(90) scale(.08 -.08)">
<use xlink:href="#l"/>
<use x="60.818359" xlink:href="#d"/>
<use x="122.341797" xlink:href="#i"/>
<use x="163.439453" xlink:href="#j"/>
<use x="260.851562" xlink:href="#g"/>
<use x="288.634766" xlink:href="#f"/>
<use x="352.013672" xlink:href="#h"/>
<use x="413.292969" xlink:href="#k"/>
</g>
</g>
<path d="m1191.5 760.77 0.95789-4.9634q0.45479-2.3565-1.9017-2.8113l-7.6022-1.4672q-2.3565-0.45478-2.8113 1.9017l-0.95789 4.9634q-0.45478 2.3565 1.9017 2.8113l7.6022 1.4672q2.3565 0.45478 2.8113-1.9017z" clip-path="url(#a)" fill="#fff" stroke="#fff"/>
<g clip-path="url(#a)">
<g transform="translate(1187.5 760) rotate(-79.077) scale(.08 -.08)">
<use xlink:href="#t"/>
</g>
</g>
<path d="m1202.8 755.55 1.0586 5.485q0.45478 2.3565 2.8113 1.9017l7.6022-1.4672q2.3565-0.45478 1.9017-2.8113l-1.0586-5.485q-0.45478-2.3565-2.8113-1.9017l-7.6022 1.4672q-2.3565 0.45479-1.9017 2.8113z" clip-path="url(#a)" fill="#fff" stroke="#fff"/>
<g clip-path="url(#a)">
<g transform="translate(1206.8 754.78) rotate(79.077) scale(.08 -.08)">
<use xlink:href="#s"/>
</g>
</g>
<path d="m1327.6 570.54 1.0489-4.945q0.498-2.3478-1.8498-2.8458l-7.574-1.6066q-2.3478-0.498-2.8458 1.8498l-1.0489 4.945q-0.498 2.3478 1.8498 2.8458l7.574 1.6066q2.3478 0.498 2.8458-1.8498z" clip-path="url(#a)" fill="#fff" stroke="#fff"/>
<g clip-path="url(#a)">
<g transform="translate(1323.7 569.7) rotate(-78.024) scale(.08 -.08)">
<use xlink:href="#t"/>
</g>
</g>
<path d="m1351.6 570.01 0.59275-5.0201q0.28143-2.3834-2.102-2.6649l-7.6891-0.90789q-2.3834-0.28143-2.6649 2.102l-0.59275 5.0201q-0.28143 2.3834 2.102 2.6649l7.6891 0.90789q2.3834 0.28143 2.6649-2.102z" clip-path="url(#a)" fill="#fff" stroke="#fff"/>
<g clip-path="url(#a)">
<g transform="translate(1347.6 569.54) rotate(-83.266) scale(.08 -.08)">
<use xlink:href="#t"/>
</g>
</g>
<path d="m1375.6 569.71 0.13422-5.5846q0.057663-2.3993-2.3416-2.457l-7.7403-0.18602q-2.3993-0.057662-2.457 2.3416l-0.13422 5.5846q-0.057663 2.3993 2.3416 2.457l7.7403 0.18602q2.3993 0.057662 2.457-2.3416z" clip-path="url(#a)" fill="#fff" stroke="#fff"/>
<g clip-path="url(#a)">
<g transform="translate(1371.5 569.61) rotate(-88.623) scale(.08 -.08)">
<use xlink:href="#s"/>
</g>
</g>
<path d="m1440.9 382.88 3.746 3.3942q1.7785 1.6115 3.39-0.167l5.1988-5.7375q1.6115-1.7785-0.167-3.39l-3.746-3.3942q-1.7785-1.6115-3.39 0.167l-5.1988 5.7375q-1.6115 1.7785 0.16701 3.39z" clip-path="url(#a)" fill="#fff" stroke="#fff"/>
<g clip-path="url(#a)">
<g transform="translate(1443.6 379.87) rotate(42.18) scale(.08 -.08)">
<use xlink:href="#t"/>
</g>
</g>
<path d="m1386.6 564.29 0.4089 5.8407q0.16761 2.3941 2.5618 2.2265l7.7236-0.54072q2.3941-0.16761 2.2265-2.5618l-0.4089-5.8407q-0.16761-2.3941-2.5618-2.2265l-7.7236 0.54072q-2.3941 0.16761-2.2265 2.5618z" clip-path="url(#a)" fill="#fff" stroke="#fff"/>
<g clip-path="url(#a)">
<defs>
<path id="ag" d="m8.6875 72.906h9.9219v-44.297q0-11.719 4.2344-16.875 4.25-5.1406 13.781-5.1406 9.4688 0 13.719 5.1406 4.25 5.1562 4.25 16.875v44.297h9.9062v-45.516q0-14.25-7.0625-21.531-7.0469-7.2812-20.812-7.2812-13.828 0-20.891 7.2812-7.0469 7.2812-7.0469 21.531z"/>
</defs>
<g transform="translate(1390.6 564) rotate(85.995) scale(.08 -.08)">
<use xlink:href="#ag"/>
</g>
</g>
<path d="m1262.4 862.09v35.285q0 2.4 2.4 2.4h7.7425q2.4 0 2.4-2.4v-35.285q0-2.4-2.4-2.4h-7.7425q-2.4 0-2.4 2.4z" clip-path="url(#a)" fill="#fff" stroke="#fff"/>
<g clip-path="url(#a)">
<g transform="translate(1266.4 862.09) rotate(90) scale(.08 -.08)">
<use xlink:href="#l"/>
<use x="60.818359" xlink:href="#d"/>
<use x="122.341797" xlink:href="#i"/>
<use x="163.439453" xlink:href="#j"/>
<use x="260.851562" xlink:href="#g"/>
<use x="288.634766" xlink:href="#f"/>
<use x="352.013672" xlink:href="#h"/>
<use x="413.292969" xlink:href="#k"/>
</g>
</g>
<path d="m1309.7 862.09v35.285q0 2.4 2.4 2.4h7.7425q2.4 0 2.4-2.4v-35.285q0-2.4-2.4-2.4h-7.7425q-2.4 0-2.4 2.4z" clip-path="url(#a)" fill="#fff" stroke="#fff"/>
<g clip-path="url(#a)">
<g transform="translate(1313.8 862.09) rotate(90) scale(.08 -.08)">
<use xlink:href="#l"/>
<use x="60.818359" xlink:href="#d"/>
<use x="122.341797" xlink:href="#i"/>
<use x="163.439453" xlink:href="#j"/>
<use x="260.851562" xlink:href="#g"/>
<use x="288.634766" xlink:href="#f"/>
<use x="352.013672" xlink:href="#h"/>
<use x="413.292969" xlink:href="#k"/>
</g>
</g>
<path d="m1357 862.09v35.285q0 2.4 2.4 2.4h7.7425q2.4 0 2.4-2.4v-35.285q0-2.4-2.4-2.4h-7.7425q-2.4 0-2.4 2.4z" clip-path="url(#a)" fill="#fff" stroke="#fff"/>
<g clip-path="url(#a)">
<g transform="translate(1361.1 862.09) rotate(90) scale(.08 -.08)">
<use xlink:href="#l"/>
<use x="60.818359" xlink:href="#d"/>
<use x="122.341797" xlink:href="#i"/>
<use x="163.439453" xlink:href="#j"/>
<use x="260.851562" xlink:href="#g"/>
<use x="288.634766" xlink:href="#f"/>
<use x="352.013672" xlink:href="#h"/>
<use x="413.292969" xlink:href="#k"/>
</g>
</g>
<path d="m1445.6 636.51 2.0984-5.0542q0.92024-2.2166-1.2963-3.1368l-7.1507-2.9688q-2.2166-0.92025-3.1368 1.2963l-2.0984 5.0542q-0.92025 2.2166 1.2963 3.1368l7.1507 2.9688q2.2166 0.92025 3.1368-1.2963z" clip-path="url(#a)" fill="#fff" stroke="#fff"/>
<g clip-path="url(#a)">
<g transform="translate(1441.9 634.95) rotate(-67.453) scale(.08 -.08)">
<use xlink:href="#p"/>
</g>
</g>
<path d="m1494 635.32 0.8881-5.4873q0.38344-2.3692-1.9857-2.7526l-7.643-1.237q-2.3692-0.38344-2.7526 1.9857l-0.8881 5.4873q-0.38344 2.3692 1.9857 2.7526l7.643 1.237q2.3692 0.38344 2.7526-1.9857z" clip-path="url(#a)" fill="#fff" stroke="#fff"/>
<g clip-path="url(#a)">
<defs>
<path id="ai" d="m44.391 34.188q3.1719-1.0781 6.1719-4.5938t6.0312-9.6719l10.016-19.922h-10.609l-9.3125 18.703q-3.625 7.3281-7.0156 9.7188t-9.25 2.3906h-10.75v-30.812h-9.8594v72.906h22.266q12.5 0 18.656-5.2344 6.1562-5.2188 6.1562-15.766 0-6.8906-3.2031-11.438-3.2031-4.5312-9.2969-6.2812zm-24.719 30.609v-25.875h12.406q7.125 0 10.766 3.2969t3.6406 9.6875-3.6406 9.6406-10.766 3.25z"/>
</defs>
<g transform="translate(1490 634.67) rotate(-80.807) scale(.08 -.08)">
<use xlink:href="#ai"/>
</g>
</g>
<path d="m1518 634.87 0.2166-6.1562q0.084388-2.3985-2.3141-2.4829l-7.7377-0.27224q-2.3985-0.084389-2.4829 2.3141l-0.2166 6.1562q-0.084389 2.3985 2.3141 2.4829l7.7377 0.27224q2.3985 0.084389 2.4829-2.3141z" clip-path="url(#a)" fill="#fff" stroke="#fff"/>
<g clip-path="url(#a)">
<g transform="translate(1514 634.73) rotate(-87.985) scale(.08 -.08)">
<use xlink:href="#y"/>
</g>
</g>
<path d="m1529 629.08 0.56116 6.1344q0.21863 2.39 2.6087 2.1714l7.7103-0.70532q2.39-0.21863 2.1714-2.6087l-0.56116-6.1344q-0.21863-2.39-2.6087-2.1714l-7.7103 0.70532q-2.39 0.21863-2.1714 2.6087z" clip-path="url(#a)" fill="#fff" stroke="#fff"/>
<g clip-path="url(#a)">
<g transform="translate(1533.1 628.71) rotate(84.773) scale(.08 -.08)">
<use xlink:href="#y"/>
</g>
</g>
<path d="m1552.5 630.43 1.0824 4.9621q0.5115 2.3449 2.8564 1.8334l7.5646-1.6501q2.3449-0.5115 1.8334-2.8564l-1.0824-4.9621q-0.51151-2.3449-2.8564-1.8334l-7.5646 1.6501q-2.3449 0.51151-1.8334 2.8564z" clip-path="url(#a)" fill="#fff" stroke="#fff"/>
<g clip-path="url(#a)">
<defs>
<path id="ah" d="m53.516 70.516v-9.625q-5.6094 2.6875-10.594 4-4.9844 1.3281-9.625 1.3281-8.0469 0-12.422-3.125t-4.375-8.8906q0-4.8438 2.9062-7.3125 2.9062-2.4531 11.016-3.9688l5.9531-1.2188q11.031-2.1094 16.281-7.4062t5.25-14.172q0-10.609-7.1094-16.078-7.0938-5.4688-20.812-5.4688-5.1719 0-11.016 1.1719-5.8281 1.1719-12.078 3.4688v10.156q6-3.3594 11.766-5.0781 5.7656-1.7031 11.328-1.7031 8.4375 0 13.031 3.3125 4.5938 3.3281 4.5938 9.4844 0 5.3594-3.2969 8.3906t-10.812 4.5469l-6.0156 1.1719q-11.031 2.1875-15.969 6.875-4.9219 4.6875-4.9219 13.047 0 9.6719 6.8125 15.234t18.766 5.5625q5.1406 0 10.453-0.9375 5.3281-0.92188 10.891-2.7656z"/>
</defs>
<g transform="translate(1556.5 629.56) rotate(77.694) scale(.08 -.08)">
<use xlink:href="#ah"/>
</g>
</g>
<path d="m1568.5 510.23 3.6434 4.0834q1.5978 1.7908 3.3886 0.19299l5.7772-5.1546q1.7908-1.5978 0.19299-3.3886l-3.6434-4.0834q-1.5978-1.7908-3.3886-0.19299l-5.7772 5.1546q-1.7908 1.5978-0.19299 3.3886z" clip-path="url(#a)" fill="#fff" stroke="#fff"/>
<g clip-path="url(#a)">
<g transform="translate(1571.5 507.52) rotate(48.26) scale(.08 -.08)">
<use xlink:href="#p"/>
</g>
</g>
<path d="m1451.7 862.09v35.285q0 2.4 2.4 2.4h7.7425q2.4 0 2.4-2.4v-35.285q0-2.4-2.4-2.4h-7.7425q-2.4 0-2.4 2.4z" clip-path="url(#a)" fill="#fff" stroke="#fff"/>
<g clip-path="url(#a)">
<g transform="translate(1455.8 862.09) rotate(90) scale(.08 -.08)">
<use xlink:href="#l"/>
<use x="60.818359" xlink:href="#d"/>
<use x="122.341797" xlink:href="#i"/>
<use x="163.439453" xlink:href="#j"/>
<use x="260.851562" xlink:href="#g"/>
<use x="288.634766" xlink:href="#f"/>
<use x="352.013672" xlink:href="#h"/>
<use x="413.292969" xlink:href="#k"/>
</g>
</g>
<path d="m1499 862.09v35.285q0 2.4 2.4 2.4h7.7425q2.4 0 2.4-2.4v-35.285q0-2.4-2.4-2.4h-7.7425q-2.4 0-2.4 2.4z" clip-path="url(#a)" fill="#fff" stroke="#fff"/>
<g clip-path="url(#a)">
<g transform="translate(1503.1 862.09) rotate(90) scale(.08 -.08)">
<use xlink:href="#l"/>
<use x="60.818359" xlink:href="#d"/>
<use x="122.341797" xlink:href="#i"/>
<use x="163.439453" xlink:href="#j"/>
<use x="260.851562" xlink:href="#g"/>
<use x="288.634766" xlink:href="#f"/>
<use x="352.013672" xlink:href="#h"/>
<use x="413.292969" xlink:href="#k"/>
</g>
</g>
<path d="m1546.4 862.09v35.285q0 2.4 2.4 2.4h7.7425q2.4 0 2.4-2.4v-35.285q0-2.4-2.4-2.4h-7.7425q-2.4 0-2.4 2.4z" clip-path="url(#a)" fill="#fff" stroke="#fff"/>
<g clip-path="url(#a)">
<g transform="translate(1550.4 862.09) rotate(90) scale(.08 -.08)">
<use xlink:href="#l"/>
<use x="60.818359" xlink:href="#d"/>
<use x="122.341797" xlink:href="#i"/>
<use x="163.439453" xlink:href="#j"/>
<use x="260.851562" xlink:href="#g"/>
<use x="288.634766" xlink:href="#f"/>
<use x="352.013672" xlink:href="#h"/>
<use x="413.292969" xlink:href="#k"/>
</g>
</g>
<path d="m1593.7 862.09v35.285q0 2.4 2.4 2.4h7.7425q2.4 0 2.4-2.4v-35.285q0-2.4-2.4-2.4h-7.7425q-2.4 0-2.4 2.4z" clip-path="url(#a)" fill="#fff" stroke="#fff"/>
<g clip-path="url(#a)">
<g transform="translate(1597.8 862.09) rotate(90) scale(.08 -.08)">
<use xlink:href="#l"/>
<use x="60.818359" xlink:href="#d"/>
<use x="122.341797" xlink:href="#i"/>
<use x="163.439453" xlink:href="#j"/>
<use x="260.851562" xlink:href="#g"/>
<use x="288.634766" xlink:href="#f"/>
<use x="352.013672" xlink:href="#h"/>
<use x="413.292969" xlink:href="#k"/>
</g>
</g>
<path d="m1621.7 698.13 0.61137-4.7848q0.30418-2.3806-2.0765-2.6848l-7.6801-0.98129q-2.3806-0.30418-2.6848 2.0765l-0.61137 4.7848q-0.30418 2.3806 2.0765 2.6848l7.6801 0.98129q2.3806 0.30418 2.6848-2.0765z" clip-path="url(#a)" fill="#fff" stroke="#fff"/>
<g clip-path="url(#a)">
<g transform="translate(1617.6 697.61) rotate(-82.719) scale(.08 -.08)">
<use xlink:href="#w"/>
</g>
</g>
<path d="m1633 692.56 0.3544 5.5474q0.15301 2.3951 2.5481 2.2421l7.7267-0.49363q2.3951-0.15301 2.2421-2.5481l-0.3544-5.5474q-0.15301-2.3951-2.5481-2.2421l-7.7267 0.49363q-2.3951 0.15301-2.2421 2.5481z" clip-path="url(#a)" fill="#fff" stroke="#fff"/>
<g clip-path="url(#a)">
<g transform="translate(1637 692.31) rotate(86.345) scale(.08 -.08)">
<use xlink:href="#ai"/>
</g>
</g>
<path d="m1632.8 631.7 0.68891 5.429q0.30213 2.3809 2.683 2.0788l7.6809-0.97467q2.3809-0.30212 2.0788-2.683l-0.68891-5.429q-0.30212-2.3809-2.683-2.0788l-7.6809 0.97467q-2.3809 0.30213-2.0788 2.683z" clip-path="url(#a)" fill="#fff" stroke="#fff"/>
<g clip-path="url(#a)">
<g transform="translate(1636.9 631.19) rotate(82.768) scale(.08 -.08)">
<use xlink:href="#p"/>
</g>
</g>
<path d="m1641 862.09v35.285q0 2.4 2.4 2.4h7.7425q2.4 0 2.4-2.4v-35.285q0-2.4-2.4-2.4h-7.7425q-2.4 0-2.4 2.4z" clip-path="url(#a)" fill="#fff" stroke="#fff"/>
<g clip-path="url(#a)">
<g transform="translate(1645.1 862.09) rotate(90) scale(.08 -.08)">
<use xlink:href="#l"/>
<use x="60.818359" xlink:href="#d"/>
<use x="122.341797" xlink:href="#i"/>
<use x="163.439453" xlink:href="#j"/>
<use x="260.851562" xlink:href="#g"/>
<use x="288.634766" xlink:href="#f"/>
<use x="352.013672" xlink:href="#h"/>
<use x="413.292969" xlink:href="#k"/>
</g>
</g>
<path d="m1505.2 763.97 5.1286-2.2145q2.2034-0.95141 1.252-3.1548l-3.0693-7.1081q-0.95141-2.2034-3.1548-1.252l-5.1286 2.2145q-2.2034 0.95141-1.252 3.1548l3.0693 7.1081q0.95141 2.2034 3.1548 1.252z" clip-path="url(#a)" fill="#fff" stroke="#fff"/>
<g clip-path="url(#a)">
<g transform="translate(1503.6 760.24) rotate(-23.355) scale(.08 -.08)">
<use xlink:href="#s"/>
</g>
</g>
<path d="m1664.3 757.22 1.6569 4.2926q0.86421 2.239 3.1032 1.3748l7.2231-2.788q2.239-0.86421 1.3748-3.1032l-1.6569-4.2926q-0.86421-2.239-3.1032-1.3748l-7.2231 2.788q-2.239 0.86421-1.3748 3.1032z" clip-path="url(#a)" fill="#fff" stroke="#fff"/>
<g clip-path="url(#a)">
<g transform="translate(1668.1 755.75) rotate(68.894) scale(.08 -.08)">
<use xlink:href="#x"/>
</g>
</g>
<path d="m1688.1 758.94 3.089 4.0014q1.4666 1.8998 3.3664 0.43322l6.1288-4.7312q1.8998-1.4666 0.43322-3.3664l-3.089-4.0014q-1.4666-1.8998-3.3664-0.43322l-6.1288 4.7312q-1.8998 1.4666-0.43322 3.3664z" clip-path="url(#a)" fill="#fff" stroke="#fff"/>
<g clip-path="url(#a)">
<g transform="translate(1691.3 756.45) rotate(52.333) scale(.08 -.08)">
<use xlink:href="#t"/>
</g>
</g>
<path d="m1712 759.94 4.4313 3.8269q1.8164 1.5686 3.3851-0.24776l5.0605-5.8598q1.5687-1.8164-0.24776-3.3851l-4.4313-3.8269q-1.8164-1.5686-3.3851 0.24776l-5.0605 5.8598q-1.5686 1.8164 0.24776 3.3851z" clip-path="url(#a)" fill="#fff" stroke="#fff"/>
<g clip-path="url(#a)">
<g transform="translate(1714.6 756.86) rotate(40.814) scale(.08 -.08)">
<use xlink:href="#ag"/>
</g>
</g>
<path d="m1688.4 862.09v35.285q0 2.4 2.4 2.4h7.7425q2.4 0 2.4-2.4v-35.285q0-2.4-2.4-2.4h-7.7425q-2.4 0-2.4 2.4z" clip-path="url(#a)" fill="#fff" stroke="#fff"/>
<g clip-path="url(#a)">
<g transform="translate(1692.4 862.09) rotate(90) scale(.08 -.08)">
<use xlink:href="#l"/>
<use x="60.818359" xlink:href="#d"/>
<use x="122.341797" xlink:href="#i"/>
<use x="163.439453" xlink:href="#j"/>
<use x="260.851562" xlink:href="#g"/>
<use x="288.634766" xlink:href="#f"/>
<use x="352.013672" xlink:href="#h"/>
<use x="413.292969" xlink:href="#k"/>
</g>
</g>
<path d="m1735.7 862.09v35.285q0 2.4 2.4 2.4h7.7425q2.4 0 2.4-2.4v-35.285q0-2.4-2.4-2.4h-7.7425q-2.4 0-2.4 2.4z" clip-path="url(#a)" fill="#fff" stroke="#fff"/>
<g clip-path="url(#a)">
<g transform="translate(1739.8 862.09) rotate(90) scale(.08 -.08)">
<use xlink:href="#l"/>
<use x="60.818359" xlink:href="#d"/>
<use x="122.341797" xlink:href="#i"/>
<use x="163.439453" xlink:href="#j"/>
<use x="260.851562" xlink:href="#g"/>
<use x="288.634766" xlink:href="#f"/>
<use x="352.013672" xlink:href="#h"/>
<use x="413.292969" xlink:href="#k"/>
</g>
</g>
<path d="m1167.7 862.09v35.285q0 2.4 2.4 2.4h7.7425q2.4 0 2.4-2.4v-35.285q0-2.4-2.4-2.4h-7.7425q-2.4 0-2.4 2.4z" clip-path="url(#a)" fill="#fff" stroke="#fff"/>
<g clip-path="url(#a)">
<g transform="translate(1171.8 862.09) rotate(90) scale(.08 -.08)">
<use xlink:href="#l"/>
<use x="60.818359" xlink:href="#d"/>
<use x="122.341797" xlink:href="#i"/>
<use x="163.439453" xlink:href="#j"/>
<use x="260.851562" xlink:href="#g"/>
<use x="288.634766" xlink:href="#f"/>
<use x="352.013672" xlink:href="#h"/>
<use x="413.292969" xlink:href="#k"/>
</g>
</g>
<path d="m1215.1 862.09v35.285q0 2.4 2.4 2.4h7.7425q2.4 0 2.4-2.4v-35.285q0-2.4-2.4-2.4h-7.7425q-2.4 0-2.4 2.4z" clip-path="url(#a)" fill="#fff" stroke="#fff"/>
<g clip-path="url(#a)">
<g transform="translate(1219.1 862.09) rotate(90) scale(.08 -.08)">
<use xlink:href="#l"/>
<use x="60.818359" xlink:href="#d"/>
<use x="122.341797" xlink:href="#i"/>
<use x="163.439453" xlink:href="#j"/>
<use x="260.851562" xlink:href="#g"/>
<use x="288.634766" xlink:href="#f"/>
<use x="352.013672" xlink:href="#h"/>
<use x="413.292969" xlink:href="#k"/>
</g>
</g>
<path d="m978.39 862.09v35.285q0 2.4 2.4 2.4h7.7425q2.4 0 2.4-2.4v-35.285q0-2.4-2.4-2.4h-7.7425q-2.4 0-2.4 2.4z" clip-path="url(#a)" fill="#fff" stroke="#fff"/>
<g clip-path="url(#a)">
<g transform="translate(982.46 862.09) rotate(90) scale(.08 -.08)">
<use xlink:href="#l"/>
<use x="60.818359" xlink:href="#d"/>
<use x="122.341797" xlink:href="#i"/>
<use x="163.439453" xlink:href="#j"/>
<use x="260.851562" xlink:href="#g"/>
<use x="288.634766" xlink:href="#f"/>
<use x="352.013672" xlink:href="#h"/>
<use x="413.292969" xlink:href="#k"/>
</g>
</g>
<path d="m1025.7 862.09v35.285q0 2.4 2.4 2.4h7.7425q2.4 0 2.4-2.4v-35.285q0-2.4-2.4-2.4h-7.7425q-2.4 0-2.4 2.4z" clip-path="url(#a)" fill="#fff" stroke="#fff"/>
<g clip-path="url(#a)">
<g transform="translate(1029.8 862.09) rotate(90) scale(.08 -.08)">
<use xlink:href="#l"/>
<use x="60.818359" xlink:href="#d"/>
<use x="122.341797" xlink:href="#i"/>
<use x="163.439453" xlink:href="#j"/>
<use x="260.851562" xlink:href="#g"/>
<use x="288.634766" xlink:href="#f"/>
<use x="352.013672" xlink:href="#h"/>
<use x="413.292969" xlink:href="#k"/>
</g>
</g>
<path d="m1073.1 862.09v35.285q0 2.4 2.4 2.4h7.7425q2.4 0 2.4-2.4v-35.285q0-2.4-2.4-2.4h-7.7425q-2.4 0-2.4 2.4z" clip-path="url(#a)" fill="#fff" stroke="#fff"/>
<g clip-path="url(#a)">
<g transform="translate(1077.1 862.09) rotate(90) scale(.08 -.08)">
<use xlink:href="#l"/>
<use x="60.818359" xlink:href="#d"/>
<use x="122.341797" xlink:href="#i"/>
<use x="163.439453" xlink:href="#j"/>
<use x="260.851562" xlink:href="#g"/>
<use x="288.634766" xlink:href="#f"/>
<use x="352.013672" xlink:href="#h"/>
<use x="413.292969" xlink:href="#k"/>
</g>
</g>
<path d="m150.26 760.55 0.87191-4.5179q0.45479-2.3565-1.9017-2.8113l-7.6022-1.4672q-2.3565-0.45478-2.8113 1.9017l-0.87191 4.5179q-0.45479 2.3565 1.9017 2.8113l7.6022 1.4672q2.3565 0.45479 2.8113-1.9017z" clip-path="url(#a)" fill="#fff" stroke="#fff"/>
<g clip-path="url(#a)">
<g transform="translate(146.27 759.78) rotate(-79.077) scale(.08 -.08)">
<use xlink:href="#x"/>
</g>
</g>
<path d="m161.51 755.55 1.0586 5.485q0.45478 2.3565 2.8113 1.9017l7.6022-1.4672q2.3565-0.45478 1.9017-2.8113l-1.0586-5.485q-0.45478-2.3565-2.8113-1.9017l-7.6022 1.4672q-2.3565 0.45479-1.9017 2.8113z" clip-path="url(#a)" fill="#fff" stroke="#fff"/>
<g clip-path="url(#a)">
<g transform="translate(165.5 754.78) rotate(79.077) scale(.08 -.08)">
<use xlink:href="#s"/>
</g>
</g>
<path d="m221.09 862.09v35.285q0 2.4 2.4 2.4h7.7425q2.4 0 2.4-2.4v-35.285q0-2.4-2.4-2.4h-7.7425q-2.4 0-2.4 2.4z" clip-path="url(#a)" fill="#fff" stroke="#fff"/>
<g clip-path="url(#a)">
<g transform="translate(225.16 862.09) rotate(90) scale(.08 -.08)">
<use xlink:href="#l"/>
<use x="60.818359" xlink:href="#d"/>
<use x="122.341797" xlink:href="#i"/>
<use x="163.439453" xlink:href="#j"/>
<use x="260.851562" xlink:href="#g"/>
<use x="288.634766" xlink:href="#f"/>
<use x="352.013672" xlink:href="#h"/>
<use x="413.292969" xlink:href="#k"/>
</g>
</g>
<path d="m292.25 760.55 0.87191-4.5179q0.45478-2.3565-1.9017-2.8113l-7.6022-1.4672q-2.3565-0.45478-2.8113 1.9017l-0.87191 4.5179q-0.45478 2.3565 1.9017 2.8113l7.6022 1.4672q2.3565 0.45479 2.8113-1.9017z" clip-path="url(#a)" fill="#fff" stroke="#fff"/>
<g clip-path="url(#a)">
<g transform="translate(288.26 759.78) rotate(-79.077) scale(.08 -.08)">
<use xlink:href="#x"/>
</g>
</g>
<path d="m303.51 755.55 1.0586 5.485q0.45479 2.3565 2.8113 1.9017l7.6022-1.4672q2.3565-0.45478 1.9017-2.8113l-1.0586-5.485q-0.45479-2.3565-2.8113-1.9017l-7.6022 1.4672q-2.3565 0.45479-1.9017 2.8113z" clip-path="url(#a)" fill="#fff" stroke="#fff"/>
<g clip-path="url(#a)">
<g transform="translate(307.5 754.78) rotate(79.077) scale(.08 -.08)">
<use xlink:href="#s"/>
</g>
</g>
<path d="m432.44 570.88 1.24-5.4187q0.53537-2.3395-1.8042-2.8749l-7.5474-1.7271q-2.3395-0.53537-2.8749 1.8042l-1.24 5.4187q-0.53537 2.3395 1.8042 2.8749l7.5474 1.7271q2.3395 0.53537 2.8749-1.8042z" clip-path="url(#a)" fill="#fff" stroke="#fff"/>
<g clip-path="url(#a)">
<g transform="translate(428.48 569.97) rotate(-77.111) scale(.08 -.08)">
<use xlink:href="#ai"/>
</g>
</g>
<path d="m456.52 569.89 0.61466-4.56q0.32061-2.3785-2.0579-2.6991l-7.6731-1.0343q-2.3785-0.32061-2.6991 2.0579l-0.61466 4.56q-0.32061 2.3785 2.0579 2.6991l7.6731 1.0343q2.3785 0.32061 2.6991-2.0579z" clip-path="url(#a)" fill="#fff" stroke="#fff"/>
<g clip-path="url(#a)">
<g transform="translate(452.49 569.34) rotate(-82.323) scale(.08 -.08)">
<use xlink:href="#x"/>
</g>
</g>
<path d="m480.43 569.81 0.22746-5.5816q0.097723-2.398-2.3003-2.4957l-7.7361-0.31526q-2.398-0.097723-2.4957 2.3003l-0.22746 5.5816q-0.097723 2.398 2.3003 2.4957l7.7361 0.31526q2.398 0.097723 2.4957-2.3003z" clip-path="url(#a)" fill="#fff" stroke="#fff"/>
<g clip-path="url(#a)">
<g transform="translate(476.37 569.65) rotate(-87.666) scale(.08 -.08)">
<use xlink:href="#s"/>
</g>
</g>
<path d="m567.13 383.49 4.076 2.9898q1.9352 1.4195 3.3547-0.51572l4.5793-6.2431q1.4195-1.9352-0.51572-3.3547l-4.076-2.9898q-1.9352-1.4195-3.3547 0.51572l-4.5793 6.2431q-1.4195 1.9352 0.51572 3.3547z" clip-path="url(#a)" fill="#fff" stroke="#fff"/>
<g clip-path="url(#a)">
<g transform="translate(569.54 380.21) rotate(36.26) scale(.08 -.08)">
<use xlink:href="#t"/>
</g>
</g>
<path d="m491.52 564.18 0.31158 5.8467q0.12772 2.3966 2.5243 2.2689l7.7315-0.41202q2.3966-0.12772 2.2689-2.5243l-0.31158-5.8467q-0.12772-2.3966-2.5243-2.2689l-7.7315 0.41202q-2.3966 0.12772-2.2689 2.5243z" clip-path="url(#a)" fill="#fff" stroke="#fff"/>
<g clip-path="url(#a)">
<g transform="translate(495.58 563.96) rotate(86.95) scale(.08 -.08)">
<use xlink:href="#ag"/>
</g>
</g>
<path d="m363.09 862.09v35.285q0 2.4 2.4 2.4h7.7425q2.4 0 2.4-2.4v-35.285q0-2.4-2.4-2.4h-7.7425q-2.4 0-2.4 2.4z" clip-path="url(#a)" fill="#fff" stroke="#fff"/>
<g clip-path="url(#a)">
<g transform="translate(367.15 862.09) rotate(90) scale(.08 -.08)">
<use xlink:href="#l"/>
<use x="60.818359" xlink:href="#d"/>
<use x="122.341797" xlink:href="#i"/>
<use x="163.439453" xlink:href="#j"/>
<use x="260.851562" xlink:href="#g"/>
<use x="288.634766" xlink:href="#f"/>
<use x="352.013672" xlink:href="#h"/>
<use x="413.292969" xlink:href="#k"/>
</g>
</g>
<path d="m410.42 862.09v35.285q0 2.4 2.4 2.4h7.7425q2.4 0 2.4-2.4v-35.285q0-2.4-2.4-2.4h-7.7425q-2.4 0-2.4 2.4z" clip-path="url(#a)" fill="#fff" stroke="#fff"/>
<g clip-path="url(#a)">
<g transform="translate(414.48 862.09) rotate(90) scale(.08 -.08)">
<use xlink:href="#l"/>
<use x="60.818359" xlink:href="#d"/>
<use x="122.341797" xlink:href="#i"/>
<use x="163.439453" xlink:href="#j"/>
<use x="260.851562" xlink:href="#g"/>
<use x="288.634766" xlink:href="#f"/>
<use x="352.013672" xlink:href="#h"/>
<use x="413.292969" xlink:href="#k"/>
</g>
</g>
<path d="m457.75 862.09v35.285q0 2.4 2.4 2.4h7.7425q2.4 0 2.4-2.4v-35.285q0-2.4-2.4-2.4h-7.7425q-2.4 0-2.4 2.4z" clip-path="url(#a)" fill="#fff" stroke="#fff"/>
<g clip-path="url(#a)">
<g transform="translate(461.81 862.09) rotate(90) scale(.08 -.08)">
<use xlink:href="#l"/>
<use x="60.818359" xlink:href="#d"/>
<use x="122.341797" xlink:href="#i"/>
<use x="163.439453" xlink:href="#j"/>
<use x="260.851562" xlink:href="#g"/>
<use x="288.634766" xlink:href="#f"/>
<use x="352.013672" xlink:href="#h"/>
<use x="413.292969" xlink:href="#k"/>
</g>
</g>
<path d="m566.9 636.92 2.5543-4.8398q1.1202-2.1225-1.0024-3.2427l-6.8474-3.6138q-2.1225-1.1202-3.2427 1.0024l-2.5543 4.8398q-1.1202 2.1225 1.0024 3.2427l6.8474 3.6138q2.1225 1.1202 3.2427-1.0024z" clip-path="url(#a)" fill="#fff" stroke="#fff"/>
<g clip-path="url(#a)">
<g transform="translate(563.3 635.03) rotate(-62.177) scale(.08 -.08)">
<use xlink:href="#p"/>
</g>
</g>
<path d="m626.95 574.75 1.6405-5.2208q0.71943-2.2896-1.5702-3.0091l-7.3864-2.3209q-2.2896-0.71943-3.0091 1.5702l-1.6405 5.2208q-0.71943 2.2896 1.5702 3.0091l7.3865 2.3209q2.2896 0.71943 3.0091-1.5702z" clip-path="url(#a)" fill="#fff" stroke="#fff"/>
<g clip-path="url(#a)">
<g transform="translate(623.08 573.53) rotate(-72.557) scale(.08 -.08)">
<use xlink:href="#p"/>
</g>
</g>
<path d="m663.54 638.87 0.30239-14.324q0.050653-2.3995-2.3488-2.4501l-7.9982-0.16884q-2.3995-0.050653-2.4501 2.3488l-0.30239 14.324q-0.050654 2.3995 2.3488 2.4501l7.9982 0.16884q2.3995 0.050653 2.4501-2.3488z" clip-path="url(#a)" fill="#fff" stroke="#fff"/>
<g clip-path="url(#a)">
<defs>
<path id="au" d="m21 76.422v-100h-8.2969v100z"/>
</defs>
<g transform="translate(659.25 638.78) rotate(-88.791) scale(.08 -.08)">
<use xlink:href="#p"/>
<use x="68.408203" xlink:href="#au"/>
<use x="102.099609" xlink:href="#y"/>
</g>
</g>
<path d="m674.45 629.71 0.53311 5.0507q0.25192 2.3867 2.6387 2.1348l7.6997-0.81272q2.3867-0.25192 2.1348-2.6387l-0.53311-5.0507q-0.25192-2.3867-2.6387-2.1348l-7.6997 0.81272q-2.3867 0.25192-2.1348 2.6387z" clip-path="url(#a)" fill="#fff" stroke="#fff"/>
<g clip-path="url(#a)">
<g transform="translate(678.49 629.28) rotate(83.975) scale(.08 -.08)">
<use xlink:href="#ah"/>
</g>
</g>
<path d="m734.06 511.27 4.2666 3.427q1.8711 1.5029 3.3741-0.36819l4.8486-6.0364q1.5029-1.8711-0.36819-3.3741l-4.2666-3.427q-1.8711-1.5029-3.3741 0.36819l-4.8486 6.0364q-1.5029 1.8711 0.36819 3.3741z" clip-path="url(#a)" fill="#fff" stroke="#fff"/>
<g clip-path="url(#a)">
<g transform="translate(736.6 508.1) rotate(38.772) scale(.08 -.08)">
<use xlink:href="#p"/>
</g>
</g>
<path d="m697.85 630.14 1.3244 5.7033q0.54287 2.3378 2.8807 1.7949l7.5418-1.7513q2.3378-0.54287 1.7949-2.8807l-1.3244-5.7033q-0.54287-2.3378-2.8807-1.7949l-7.5418 1.7513q-2.3378 0.54287-1.7949 2.8807z" clip-path="url(#a)" fill="#fff" stroke="#fff"/>
<g clip-path="url(#a)">
<g transform="translate(701.81 629.22) rotate(76.927) scale(.08 -.08)">
<use xlink:href="#ag"/>
</g>
</g>
<path d="m576.15 761.02 1.0533-5.458q0.45479-2.3565-1.9017-2.8113l-7.6022-1.4672q-2.3565-0.45478-2.8113 1.9017l-1.0534 5.458q-0.45478 2.3565 1.9017 2.8113l7.6022 1.4672q2.3565 0.45479 2.8113-1.9017z" clip-path="url(#a)" fill="#fff" stroke="#fff"/>
<g clip-path="url(#a)">
<g transform="translate(572.16 760.25) rotate(-79.077) scale(.08 -.08)">
<use xlink:href="#ai"/>
</g>
</g>
<path d="m587.49 755.55 1.0586 5.485q0.45478 2.3565 2.8113 1.9017l7.6022-1.4672q2.3565-0.45478 1.9017-2.8113l-1.0586-5.485q-0.45478-2.3565-2.8113-1.9017l-7.6022 1.4672q-2.3565 0.45479-1.9017 2.8113z" clip-path="url(#a)" fill="#fff" stroke="#fff"/>
<g clip-path="url(#a)">
<g transform="translate(591.48 754.78) rotate(79.077) scale(.08 -.08)">
<use xlink:href="#s"/>
</g>
</g>
<path d="m647.07 862.09v35.285q0 2.4 2.4 2.4h7.7425q2.4 0 2.4-2.4v-35.285q0-2.4-2.4-2.4h-7.7425q-2.4 0-2.4 2.4z" clip-path="url(#a)" fill="#fff" stroke="#fff"/>
<g clip-path="url(#a)">
<g transform="translate(651.14 862.09) rotate(90) scale(.08 -.08)">
<use xlink:href="#l"/>
<use x="60.818359" xlink:href="#d"/>
<use x="122.341797" xlink:href="#i"/>
<use x="163.439453" xlink:href="#j"/>
<use x="260.851562" xlink:href="#g"/>
<use x="288.634766" xlink:href="#f"/>
<use x="352.013672" xlink:href="#h"/>
<use x="413.292969" xlink:href="#k"/>
</g>
</g>
<path d="m694.41 862.09v35.285q0 2.4 2.4 2.4h7.7425q2.4 0 2.4-2.4v-35.285q0-2.4-2.4-2.4h-7.7425q-2.4 0-2.4 2.4z" clip-path="url(#a)" fill="#fff" stroke="#fff"/>
<g clip-path="url(#a)">
<g transform="translate(698.47 862.09) rotate(90) scale(.08 -.08)">
<use xlink:href="#l"/>
<use x="60.818359" xlink:href="#d"/>
<use x="122.341797" xlink:href="#i"/>
<use x="163.439453" xlink:href="#j"/>
<use x="260.851562" xlink:href="#g"/>
<use x="288.634766" xlink:href="#f"/>
<use x="352.013672" xlink:href="#h"/>
<use x="413.292969" xlink:href="#k"/>
</g>
</g>
<path d="m813.15 698.32 0.53288-5.5608q0.22894-2.3891-2.1601-2.618l-7.7072-0.73857q-2.3891-0.22894-2.618 2.1601l-0.53288 5.5608q-0.22894 2.3891 2.1601 2.618l7.7072 0.73857q2.3891 0.22894 2.618-2.1601z" clip-path="url(#a)" fill="#fff" stroke="#fff"/>
<g clip-path="url(#a)">
<g transform="translate(809.1 697.93) rotate(-84.526) scale(.08 -.08)">
<use xlink:href="#s"/>
</g>
</g>
<path d="m824.2 632.31 0.94521 4.9658q0.44876 2.3577 2.8064 1.9089l7.6059-1.4477q2.3577-0.44877 1.9089-2.8064l-0.94521-4.9658q-0.44877-2.3577-2.8064-1.9089l-7.6059 1.4477q-2.3577 0.44876-1.9089 2.8064z" clip-path="url(#a)" fill="#fff" stroke="#fff"/>
<g clip-path="url(#a)">
<g transform="translate(828.2 631.56) rotate(79.223) scale(.08 -.08)">
<use xlink:href="#t"/>
</g>
</g>
<path d="m789.07 862.09v35.285q0 2.4 2.4 2.4h7.7425q2.4 0 2.4-2.4v-35.285q0-2.4-2.4-2.4h-7.7425q-2.4 0-2.4 2.4z" clip-path="url(#a)" fill="#fff" stroke="#fff"/>
<g clip-path="url(#a)">
<g transform="translate(793.13 862.09) rotate(90) scale(.08 -.08)">
<use xlink:href="#l"/>
<use x="60.818359" xlink:href="#d"/>
<use x="122.341797" xlink:href="#i"/>
<use x="163.439453" xlink:href="#j"/>
<use x="260.851562" xlink:href="#g"/>
<use x="288.634766" xlink:href="#f"/>
<use x="352.013672" xlink:href="#h"/>
<use x="413.292969" xlink:href="#k"/>
</g>
</g>
<path d="m823.87 761.92 1.9706-5.1054q0.86421-2.239-1.3748-3.1032l-7.2231-2.788q-2.239-0.86421-3.1032 1.3748l-1.9706 5.1054q-0.86421 2.239 1.3748 3.1032l7.2231 2.788q2.239 0.86421 3.1032-1.3748z" clip-path="url(#a)" fill="#fff" stroke="#fff"/>
<g clip-path="url(#a)">
<g transform="translate(820.08 760.45) rotate(-68.894) scale(.08 -.08)">
<use xlink:href="#p"/>
</g>
</g>
<path d="m836.4 754.37v5.4725q0 2.4 2.4 2.4h7.7425q2.4 0 2.4-2.4v-5.4725q0-2.4-2.4-2.4h-7.7425q-2.4 0-2.4 2.4z" clip-path="url(#a)" fill="#fff" stroke="#fff"/>
<g clip-path="url(#a)">
<g transform="translate(840.46 754.37) rotate(90) scale(.08 -.08)">
<use xlink:href="#p"/>
</g>
</g>
<path d="m859.62 757.11 1.737 4.5002q0.86421 2.239 3.1032 1.3748l7.2231-2.788q2.239-0.86421 1.3748-3.1032l-1.737-4.5002q-0.86421-2.239-3.1032-1.3748l-7.2231 2.788q-2.239 0.86421-1.3748 3.1032z" clip-path="url(#a)" fill="#fff" stroke="#fff"/>
<g clip-path="url(#a)">
<g transform="translate(863.41 755.65) rotate(68.894) scale(.08 -.08)">
<use xlink:href="#w"/>
</g>
</g>
<path d="m836.4 862.09v35.285q0 2.4 2.4 2.4h7.7425q2.4 0 2.4-2.4v-35.285q0-2.4-2.4-2.4h-7.7425q-2.4 0-2.4 2.4z" clip-path="url(#a)" fill="#fff" stroke="#fff"/>
<g clip-path="url(#a)">
<g transform="translate(840.46 862.09) rotate(90) scale(.08 -.08)">
<use xlink:href="#l"/>
<use x="60.818359" xlink:href="#d"/>
<use x="122.341797" xlink:href="#i"/>
<use x="163.439453" xlink:href="#j"/>
<use x="260.851562" xlink:href="#g"/>
<use x="288.634766" xlink:href="#f"/>
<use x="352.013672" xlink:href="#h"/>
<use x="413.292969" xlink:href="#k"/>
</g>
</g>
<path d="m883.73 862.09v35.285q0 2.4 2.4 2.4h7.7425q2.4 0 2.4-2.4v-35.285q0-2.4-2.4-2.4h-7.7425q-2.4 0-2.4 2.4z" clip-path="url(#a)" fill="#fff" stroke="#fff"/>
<g clip-path="url(#a)">
<g transform="translate(887.79 862.09) rotate(90) scale(.08 -.08)">
<use xlink:href="#l"/>
<use x="60.818359" xlink:href="#d"/>
<use x="122.341797" xlink:href="#i"/>
<use x="163.439453" xlink:href="#j"/>
<use x="260.851562" xlink:href="#g"/>
<use x="288.634766" xlink:href="#f"/>
<use x="352.013672" xlink:href="#h"/>
<use x="413.292969" xlink:href="#k"/>
</g>
</g>
<path d="m552.41 862.09v35.285q0 2.4 2.4 2.4h7.7425q2.4 0 2.4-2.4v-35.285q0-2.4-2.4-2.4h-7.7425q-2.4 0-2.4 2.4z" clip-path="url(#a)" fill="#fff" stroke="#fff"/>
<g clip-path="url(#a)">
<g transform="translate(556.48 862.09) rotate(90) scale(.08 -.08)">
<use xlink:href="#l"/>
<use x="60.818359" xlink:href="#d"/>
<use x="122.341797" xlink:href="#i"/>
<use x="163.439453" xlink:href="#j"/>
<use x="260.851562" xlink:href="#g"/>
<use x="288.634766" xlink:href="#f"/>
<use x="352.013672" xlink:href="#h"/>
<use x="413.292969" xlink:href="#k"/>
</g>
</g>
<path d="m599.74 862.09v35.285q0 2.4 2.4 2.4h7.7425q2.4 0 2.4-2.4v-35.285q0-2.4-2.4-2.4h-7.7425q-2.4 0-2.4 2.4z" clip-path="url(#a)" fill="#fff" stroke="#fff"/>
<g clip-path="url(#a)">
<g transform="translate(603.81 862.09) rotate(90) scale(.08 -.08)">
<use xlink:href="#l"/>
<use x="60.818359" xlink:href="#d"/>
<use x="122.341797" xlink:href="#i"/>
<use x="163.439453" xlink:href="#j"/>
<use x="260.851562" xlink:href="#g"/>
<use x="288.634766" xlink:href="#f"/>
<use x="352.013672" xlink:href="#h"/>
<use x="413.292969" xlink:href="#k"/>
</g>
</g>
<path d="m268.42 862.09v35.285q0 2.4 2.4 2.4h7.7425q2.4 0 2.4-2.4v-35.285q0-2.4-2.4-2.4h-7.7425q-2.4 0-2.4 2.4z" clip-path="url(#a)" fill="#fff" stroke="#fff"/>
<g clip-path="url(#a)">
<g transform="translate(272.49 862.09) rotate(90) scale(.08 -.08)">
<use xlink:href="#l"/>
<use x="60.818359" xlink:href="#d"/>
<use x="122.341797" xlink:href="#i"/>
<use x="163.439453" xlink:href="#j"/>
<use x="260.851562" xlink:href="#g"/>
<use x="288.634766" xlink:href="#f"/>
<use x="352.013672" xlink:href="#h"/>
<use x="413.292969" xlink:href="#k"/>
</g>
</g>
<path d="m315.75 862.09v35.285q0 2.4 2.4 2.4h7.7425q2.4 0 2.4-2.4v-35.285q0-2.4-2.4-2.4h-7.7425q-2.4 0-2.4 2.4z" clip-path="url(#a)" fill="#fff" stroke="#fff"/>
<g clip-path="url(#a)">
<g transform="translate(319.82 862.09) rotate(90) scale(.08 -.08)">
<use xlink:href="#l"/>
<use x="60.818359" xlink:href="#d"/>
<use x="122.341797" xlink:href="#i"/>
<use x="163.439453" xlink:href="#j"/>
<use x="260.851562" xlink:href="#g"/>
<use x="288.634766" xlink:href="#f"/>
<use x="352.013672" xlink:href="#h"/>
<use x="413.292969" xlink:href="#k"/>
</g>
</g>
<path d="m126.43 862.09v35.285q0 2.4 2.4 2.4h7.7425q2.4 0 2.4-2.4v-35.285q0-2.4-2.4-2.4h-7.7425q-2.4 0-2.4 2.4z" clip-path="url(#a)" fill="#fff" stroke="#fff"/>
<g clip-path="url(#a)">
<g transform="translate(130.49 862.09) rotate(90) scale(.08 -.08)">
<use xlink:href="#l"/>
<use x="60.818359" xlink:href="#d"/>
<use x="122.341797" xlink:href="#i"/>
<use x="163.439453" xlink:href="#j"/>
<use x="260.851562" xlink:href="#g"/>
<use x="288.634766" xlink:href="#f"/>
<use x="352.013672" xlink:href="#h"/>
<use x="413.292969" xlink:href="#k"/>
</g>
</g>
<path d="m173.76 862.09v35.285q0 2.4 2.4 2.4h7.7425q2.4 0 2.4-2.4v-35.285q0-2.4-2.4-2.4h-7.7425q-2.4 0-2.4 2.4z" clip-path="url(#a)" fill="#fff" stroke="#fff"/>
<g clip-path="url(#a)">
<g transform="translate(177.82 862.09) rotate(90) scale(.08 -.08)">
<use xlink:href="#l"/>
<use x="60.818359" xlink:href="#d"/>
<use x="122.341797" xlink:href="#i"/>
<use x="163.439453" xlink:href="#j"/>
<use x="260.851562" xlink:href="#g"/>
<use x="288.634766" xlink:href="#f"/>
<use x="352.013672" xlink:href="#h"/>
<use x="413.292969" xlink:href="#k"/>
</g>
</g>
<path d="m505.08 862.09v35.285q0 2.4 2.4 2.4h7.7425q2.4 0 2.4-2.4v-35.285q0-2.4-2.4-2.4h-7.7425q-2.4 0-2.4 2.4z" clip-path="url(#a)" fill="#fff" stroke="#fff"/>
<g clip-path="url(#a)">
<g transform="translate(509.14 862.09) rotate(90) scale(.08 -.08)">
<use xlink:href="#l"/>
<use x="60.818359" xlink:href="#d"/>
<use x="122.341797" xlink:href="#i"/>
<use x="163.439453" xlink:href="#j"/>
<use x="260.851562" xlink:href="#g"/>
<use x="288.634766" xlink:href="#f"/>
<use x="352.013672" xlink:href="#h"/>
<use x="413.292969" xlink:href="#k"/>
</g>
</g>
<path d="m741.74 862.09v35.285q0 2.4 2.4 2.4h7.7425q2.4 0 2.4-2.4v-35.285q0-2.4-2.4-2.4h-7.7425q-2.4 0-2.4 2.4z" clip-path="url(#a)" fill="#fff" stroke="#fff"/>
<g clip-path="url(#a)">
<g transform="translate(745.8 862.09) rotate(90) scale(.08 -.08)">
<use xlink:href="#l"/>
<use x="60.818359" xlink:href="#d"/>
<use x="122.341797" xlink:href="#i"/>
<use x="163.439453" xlink:href="#j"/>
<use x="260.851562" xlink:href="#g"/>
<use x="288.634766" xlink:href="#f"/>
<use x="352.013672" xlink:href="#h"/>
<use x="413.292969" xlink:href="#k"/>
</g>
</g>
<path d="m1404.4 862.09v35.285q0 2.4 2.4 2.4h7.7425q2.4 0 2.4-2.4v-35.285q0-2.4-2.4-2.4h-7.7425q-2.4 0-2.4 2.4z" clip-path="url(#a)" fill="#fff" stroke="#fff"/>
<g clip-path="url(#a)">
<g transform="translate(1408.4 862.09) rotate(90) scale(.08 -.08)">
<use xlink:href="#l"/>
<use x="60.818359" xlink:href="#d"/>
<use x="122.341797" xlink:href="#i"/>
<use x="163.439453" xlink:href="#j"/>
<use x="260.851562" xlink:href="#g"/>
<use x="288.634766" xlink:href="#f"/>
<use x="352.013672" xlink:href="#h"/>
<use x="413.292969" xlink:href="#k"/>
</g>
</g>
<path d="m1783 862.09v35.285q0 2.4 2.4 2.4h7.7425q2.4 0 2.4-2.4v-35.285q0-2.4-2.4-2.4h-7.7425q-2.4 0-2.4 2.4z" clip-path="url(#a)" fill="#fff" stroke="#fff"/>
<g clip-path="url(#a)">
<g transform="translate(1787.1 862.09) rotate(90) scale(.08 -.08)">
<use xlink:href="#l"/>
<use x="60.818359" xlink:href="#d"/>
<use x="122.341797" xlink:href="#i"/>
<use x="163.439453" xlink:href="#j"/>
<use x="260.851562" xlink:href="#g"/>
<use x="288.634766" xlink:href="#f"/>
<use x="352.013672" xlink:href="#h"/>
<use x="413.292969" xlink:href="#k"/>
</g>
</g>
<defs>
<path id="b" d="m0 8.6603c2.2967 0 4.4997-0.9125 6.1237-2.5365 1.624-1.624 2.5365-3.827 2.5365-6.1237s-0.9125-4.4997-2.5365-6.1237c-1.624-1.624-3.827-2.5365-6.1237-2.5365s-4.4997 0.9125-6.1237 2.5365c-1.624 1.624-2.5365 3.827-2.5365 6.1237s0.9125 4.4997 2.5365 6.1237c1.624 1.624 3.827 2.5365 6.1237 2.5365z"/>
</defs>
<g clip-path="url(#a)">
<use x="85.369551" y="941.043229" fill="#ffffff" stroke="#ffffff" xlink:href="#b"/>
</g>
<g clip-path="url(#a)">
<use x="132.700873" y="941.043229" fill="#ffffff" stroke="#ffffff" xlink:href="#b"/>
</g>
<g clip-path="url(#a)">
<use x="180.032194" y="941.043229" fill="#ffffff" stroke="#ffffff" xlink:href="#b"/>
</g>
<g clip-path="url(#a)">
<use x="227.363515" y="941.043229" fill="#ffffff" stroke="#ffffff" xlink:href="#b"/>
</g>
<g clip-path="url(#a)">
<use x="274.694836" y="941.043229" fill="#ffffff" stroke="#ffffff" xlink:href="#b"/>
</g>
<g clip-path="url(#a)">
<use x="322.026157" y="941.043229" fill="#ffffff" stroke="#ffffff" xlink:href="#b"/>
</g>
<g clip-path="url(#a)">
<use x="369.357479" y="941.043229" fill="#ffffff" stroke="#ffffff" xlink:href="#b"/>
</g>
<g clip-path="url(#a)">
<use x="416.6888" y="941.043229" fill="#ffffff" stroke="#ffffff" xlink:href="#b"/>
</g>
<g clip-path="url(#a)">
<use x="464.020121" y="941.043229" fill="#ffffff" stroke="#ffffff" xlink:href="#b"/>
</g>
<g clip-path="url(#a)">
<use x="511.351442" y="941.043229" fill="#ffffff" stroke="#ffffff" xlink:href="#b"/>
</g>
<g clip-path="url(#a)">
<use x="558.682764" y="941.043229" fill="#ffffff" stroke="#ffffff" xlink:href="#b"/>
</g>
<g clip-path="url(#a)">
<use x="606.014085" y="941.043229" fill="#ffffff" stroke="#ffffff" xlink:href="#b"/>
</g>
<g clip-path="url(#a)">
<use x="653.345406" y="941.043229" fill="#ffffff" stroke="#ffffff" xlink:href="#b"/>
</g>
<g clip-path="url(#a)">
<use x="700.676727" y="941.043229" fill="#ffffff" stroke="#ffffff" xlink:href="#b"/>
</g>
<g clip-path="url(#a)">
<use x="748.008048" y="941.043229" fill="#ffffff" stroke="#ffffff" xlink:href="#b"/>
</g>
<g clip-path="url(#a)">
<use x="795.33937" y="941.043229" fill="#ffffff" stroke="#ffffff" xlink:href="#b"/>
</g>
<g clip-path="url(#a)">
<use x="842.670691" y="941.043229" fill="#ffffff" stroke="#ffffff" xlink:href="#b"/>
</g>
<g clip-path="url(#a)">
<use x="890.002012" y="941.043229" fill="#ffffff" stroke="#ffffff" xlink:href="#b"/>
</g>
<g clip-path="url(#a)">
<use x="937.333333" y="941.043229" fill="#ffffff" stroke="#ffffff" xlink:href="#b"/>
</g>
<g clip-path="url(#a)">
<use x="984.664655" y="941.043229" fill="#ffffff" stroke="#ffffff" xlink:href="#b"/>
</g>
<g clip-path="url(#a)">
<use x="1031.995976" y="941.043229" fill="#ffffff" stroke="#ffffff" xlink:href="#b"/>
</g>
<g clip-path="url(#a)">
<use x="1079.327297" y="941.043229" fill="#ffffff" stroke="#ffffff" xlink:href="#b"/>
</g>
<g clip-path="url(#a)">
<use x="1126.658618" y="941.043229" fill="#ffffff" stroke="#ffffff" xlink:href="#b"/>
</g>
<g clip-path="url(#a)">
<use x="1173.989939" y="941.043229" fill="#ffffff" stroke="#ffffff" xlink:href="#b"/>
</g>
<g clip-path="url(#a)">
<use x="1221.321261" y="941.043229" fill="#ffffff" stroke="#ffffff" xlink:href="#b"/>
</g>
<g clip-path="url(#a)">
<use x="1268.652582" y="941.043229" fill="#ffffff" stroke="#ffffff" xlink:href="#b"/>
</g>
<g clip-path="url(#a)">
<use x="1315.983903" y="941.043229" fill="#ffffff" stroke="#ffffff" xlink:href="#b"/>
</g>
<g clip-path="url(#a)">
<use x="1363.315224" y="941.043229" fill="#ffffff" stroke="#ffffff" xlink:href="#b"/>
</g>
<g clip-path="url(#a)">
<use x="1410.646546" y="941.043229" fill="#ffffff" stroke="#ffffff" xlink:href="#b"/>
</g>
<g clip-path="url(#a)">
<use x="1457.977867" y="941.043229" fill="#ffffff" stroke="#ffffff" xlink:href="#b"/>
</g>
<g clip-path="url(#a)">
<use x="1505.309188" y="941.043229" fill="#ffffff" stroke="#ffffff" xlink:href="#b"/>
</g>
<g clip-path="url(#a)">
<use x="1552.640509" y="941.043229" fill="#ffffff" stroke="#ffffff" xlink:href="#b"/>
</g>
<g clip-path="url(#a)">
<use x="1599.97183" y="941.043229" fill="#ffffff" stroke="#ffffff" xlink:href="#b"/>
</g>
<g clip-path="url(#a)">
<use x="1647.303152" y="941.043229" fill="#ffffff" stroke="#ffffff" xlink:href="#b"/>
</g>
<g clip-path="url(#a)">
<use x="1694.634473" y="941.043229" fill="#ffffff" stroke="#ffffff" xlink:href="#b"/>
</g>
<g clip-path="url(#a)">
<use x="1741.965794" y="941.043229" fill="#ffffff" stroke="#ffffff" xlink:href="#b"/>
</g>
<g clip-path="url(#a)">
<use x="1789.297115" y="941.043229" fill="#ffffff" stroke="#ffffff" xlink:href="#b"/>
</g>
<g clip-path="url(#a)">
<use x="624.322103" y="45.623438" fill="#ffffff" stroke="#ffffff" xlink:href="#b"/>
</g>
<g clip-path="url(#a)">
<use x="85.369551" y="818.417217" fill="#ffffff" stroke="#ffffff" xlink:href="#b"/>
</g>
<g clip-path="url(#a)">
<use x="291.655226" y="182.207163" fill="#ffffff" stroke="#ffffff" xlink:href="#b"/>
</g>
<g clip-path="url(#a)">
<use x="937.333333" y="818.417217" fill="#ffffff" stroke="#ffffff" xlink:href="#b"/>
</g>
<g clip-path="url(#a)">
<use x="1182.9303" y="182.207163" fill="#ffffff" stroke="#ffffff" xlink:href="#b"/>
</g>
<g clip-path="url(#a)">
<use x="1031.995976" y="695.791205" fill="#ffffff" stroke="#ffffff" xlink:href="#b"/>
</g>
<g clip-path="url(#a)">
<use x="1126.658618" y="818.417217" fill="#ffffff" stroke="#ffffff" xlink:href="#b"/>
</g>
<g clip-path="url(#a)">
<use x="1197.6556" y="695.791205" fill="#ffffff" stroke="#ffffff" xlink:href="#b"/>
</g>
<g clip-path="url(#a)">
<use x="1375.411006" y="315.119894" fill="#ffffff" stroke="#ffffff" xlink:href="#b"/>
</g>
<g clip-path="url(#a)">
<use x="1268.652582" y="818.417217" fill="#ffffff" stroke="#ffffff" xlink:href="#b"/>
</g>
<g clip-path="url(#a)">
<use x="1315.983903" y="818.417217" fill="#ffffff" stroke="#ffffff" xlink:href="#b"/>
</g>
<g clip-path="url(#a)">
<use x="1363.315224" y="818.417217" fill="#ffffff" stroke="#ffffff" xlink:href="#b"/>
</g>
<g clip-path="url(#a)">
<use x="1518.456777" y="444.733352" fill="#ffffff" stroke="#ffffff" xlink:href="#b"/>
</g>
<g clip-path="url(#a)">
<use x="1457.977867" y="818.417217" fill="#ffffff" stroke="#ffffff" xlink:href="#b"/>
</g>
<g clip-path="url(#a)">
<use x="1505.309188" y="818.417217" fill="#ffffff" stroke="#ffffff" xlink:href="#b"/>
</g>
<g clip-path="url(#a)">
<use x="1552.640509" y="818.417217" fill="#ffffff" stroke="#ffffff" xlink:href="#b"/>
</g>
<g clip-path="url(#a)">
<use x="1599.97183" y="818.417217" fill="#ffffff" stroke="#ffffff" xlink:href="#b"/>
</g>
<g clip-path="url(#a)">
<use x="1631.526045" y="571.459331" fill="#ffffff" stroke="#ffffff" xlink:href="#b"/>
</g>
<g clip-path="url(#a)">
<use x="1647.303152" y="818.417217" fill="#ffffff" stroke="#ffffff" xlink:href="#b"/>
</g>
<g clip-path="url(#a)">
<use x="1647.303152" y="695.791205" fill="#ffffff" stroke="#ffffff" xlink:href="#b"/>
</g>
<g clip-path="url(#a)">
<use x="1694.634473" y="818.417217" fill="#ffffff" stroke="#ffffff" xlink:href="#b"/>
</g>
<g clip-path="url(#a)">
<use x="1741.965794" y="818.417217" fill="#ffffff" stroke="#ffffff" xlink:href="#b"/>
</g>
<g clip-path="url(#a)">
<use x="1173.989939" y="818.417217" fill="#ffffff" stroke="#ffffff" xlink:href="#b"/>
</g>
<g clip-path="url(#a)">
<use x="1221.321261" y="818.417217" fill="#ffffff" stroke="#ffffff" xlink:href="#b"/>
</g>
<g clip-path="url(#a)">
<use x="984.664655" y="818.417217" fill="#ffffff" stroke="#ffffff" xlink:href="#b"/>
</g>
<g clip-path="url(#a)">
<use x="1031.995976" y="818.417217" fill="#ffffff" stroke="#ffffff" xlink:href="#b"/>
</g>
<g clip-path="url(#a)">
<use x="1079.327297" y="818.417217" fill="#ffffff" stroke="#ffffff" xlink:href="#b"/>
</g>
<g clip-path="url(#a)">
<use x="156.366533" y="695.791205" fill="#ffffff" stroke="#ffffff" xlink:href="#b"/>
</g>
<g clip-path="url(#a)">
<use x="227.363515" y="818.417217" fill="#ffffff" stroke="#ffffff" xlink:href="#b"/>
</g>
<g clip-path="url(#a)">
<use x="298.360497" y="695.791205" fill="#ffffff" stroke="#ffffff" xlink:href="#b"/>
</g>
<g clip-path="url(#a)">
<use x="484.53036" y="315.119894" fill="#ffffff" stroke="#ffffff" xlink:href="#b"/>
</g>
<g clip-path="url(#a)">
<use x="369.357479" y="818.417217" fill="#ffffff" stroke="#ffffff" xlink:href="#b"/>
</g>
<g clip-path="url(#a)">
<use x="416.6888" y="818.417217" fill="#ffffff" stroke="#ffffff" xlink:href="#b"/>
</g>
<g clip-path="url(#a)">
<use x="464.020121" y="818.417217" fill="#ffffff" stroke="#ffffff" xlink:href="#b"/>
</g>
<g clip-path="url(#a)">
<use x="661.23396" y="444.733352" fill="#ffffff" stroke="#ffffff" xlink:href="#b"/>
</g>
<g clip-path="url(#a)">
<use x="582.348424" y="695.791205" fill="#ffffff" stroke="#ffffff" xlink:href="#b"/>
</g>
<g clip-path="url(#a)">
<use x="653.345406" y="818.417217" fill="#ffffff" stroke="#ffffff" xlink:href="#b"/>
</g>
<g clip-path="url(#a)">
<use x="700.676727" y="818.417217" fill="#ffffff" stroke="#ffffff" xlink:href="#b"/>
</g>
<g clip-path="url(#a)">
<use x="819.00503" y="571.459331" fill="#ffffff" stroke="#ffffff" xlink:href="#b"/>
</g>
<g clip-path="url(#a)">
<use x="795.33937" y="818.417217" fill="#ffffff" stroke="#ffffff" xlink:href="#b"/>
</g>
<g clip-path="url(#a)">
<use x="842.670691" y="695.791205" fill="#ffffff" stroke="#ffffff" xlink:href="#b"/>
</g>
<g clip-path="url(#a)">
<use x="842.670691" y="818.417217" fill="#ffffff" stroke="#ffffff" xlink:href="#b"/>
</g>
<g clip-path="url(#a)">
<use x="890.002012" y="818.417217" fill="#ffffff" stroke="#ffffff" xlink:href="#b"/>
</g>
<g clip-path="url(#a)">
<use x="558.682764" y="818.417217" fill="#ffffff" stroke="#ffffff" xlink:href="#b"/>
</g>
<g clip-path="url(#a)">
<use x="606.014085" y="818.417217" fill="#ffffff" stroke="#ffffff" xlink:href="#b"/>
</g>
<g clip-path="url(#a)">
<use x="274.694836" y="818.417217" fill="#ffffff" stroke="#ffffff" xlink:href="#b"/>
</g>
<g clip-path="url(#a)">
<use x="322.026157" y="818.417217" fill="#ffffff" stroke="#ffffff" xlink:href="#b"/>
</g>
<g clip-path="url(#a)">
<use x="132.700873" y="818.417217" fill="#ffffff" stroke="#ffffff" xlink:href="#b"/>
</g>
<g clip-path="url(#a)">
<use x="180.032194" y="818.417217" fill="#ffffff" stroke="#ffffff" xlink:href="#b"/>
</g>
<g clip-path="url(#a)">
<use x="511.351442" y="818.417217" fill="#ffffff" stroke="#ffffff" xlink:href="#b"/>
</g>
<g clip-path="url(#a)">
<use x="748.008048" y="818.417217" fill="#ffffff" stroke="#ffffff" xlink:href="#b"/>
</g>
<g clip-path="url(#a)">
<use x="1410.646546" y="818.417217" fill="#ffffff" stroke="#ffffff" xlink:href="#b"/>
</g>
<g clip-path="url(#a)">
<use x="1789.297115" y="818.417217" fill="#ffffff" stroke="#ffffff" xlink:href="#b"/>
</g>
<g clip-path="url(#a)">
<defs>
<path id="ad" d="m30.609 48.391q-7.2188 0-11.422-5.6406t-4.2031-15.453 4.1719-15.453q4.1875-5.6406 11.453-5.6406 7.1875 0 11.375 5.6562 4.2031 5.6719 4.2031 15.438 0 9.7188-4.2031 15.406-4.1875 5.6875-11.375 5.6875zm0 7.6094q11.719 0 18.406-7.625 6.7031-7.6094 6.7031-21.078 0-13.422-6.7031-21.078-6.6875-7.6406-18.406-7.6406-11.766 0-18.438 7.6406-6.6562 7.6562-6.6562 21.078 0 13.469 6.6562 21.078 6.6719 7.625 18.438 7.625z"/>
<path id="am" d="m48.781 52.594v-8.4062q-3.8125 2.1094-7.6406 3.1562t-7.7344 1.0469q-8.75 0-13.594-5.5469-4.8281-5.5312-4.8281-15.547t4.8281-15.562q4.8438-5.5312 13.594-5.5312 3.9062 0 7.7344 1.0469t7.6406 3.1562v-8.3125q-3.7656-1.75-7.7969-2.625-4.0156-0.89062-8.5625-0.89062-12.359 0-19.641 7.7656-7.2656 7.7656-7.2656 20.953 0 13.375 7.3438 21.031 7.3594 7.6719 20.156 7.6719 4.1406 0 8.0938-0.85938 3.9531-0.84375 7.6719-2.5469z"/>
<path id="af" d="m54.891 33.016v-33.016h-8.9844v32.719q0 7.7656-3.0312 11.609-3.0312 3.8594-9.0781 3.8594-7.2812 0-11.484-4.6406-4.2031-4.625-4.2031-12.641v-30.906h-9.0312v75.984h9.0312v-29.797q3.2344 4.9375 7.5938 7.375 4.375 2.4375 10.094 2.4375 9.4219 0 14.25-5.8281 4.8438-5.8281 4.8438-17.156z"/>
</defs>
<g transform="translate(72.542 943.8) scale(.1 -.1)">
<use xlink:href="#y"/>
<use x="77.001953" xlink:href="#ad"/>
<use x="138.183594" xlink:href="#am"/>
<use x="193.164062" xlink:href="#af"/>
</g>
</g>
<g clip-path="url(#a)">
<defs>
<path id="r" d="m44.281 53.078v-8.5q-3.7969 1.9531-7.9062 2.9219-4.0938 0.98438-8.5 0.98438-6.6875 0-10.031-2.0469t-3.3438-6.1562q0-3.125 2.3906-4.9062t9.625-3.3906l3.0781-0.6875q9.5625-2.0469 13.594-5.7812t4.0312-10.422q0-7.625-6.0312-12.078-6.0312-4.4375-16.578-4.4375-4.3906 0-9.1562 0.85938t-10.031 2.5625v9.2812q4.9844-2.5938 9.8125-3.8906 4.8281-1.2812 9.5781-1.2812 6.3438 0 9.75 2.1719 3.4219 2.1719 3.4219 6.125 0 3.6562-2.4688 5.6094-2.4531 1.9531-10.812 3.7656l-3.125 0.73438q-8.3438 1.75-12.062 5.3906-3.7031 3.6406-3.7031 9.9844 0 7.7188 5.4688 11.906 5.4688 4.2031 15.531 4.2031 4.9688 0 9.3594-0.73438 4.4062-0.71875 8.1094-2.1875z"/>
</defs>
<g transform="translate(119.39 943.8) scale(.1 -.1)">
<use xlink:href="#d"/>
<use x="61.523438" xlink:href="#g"/>
<use x="89.306641" xlink:href="#f"/>
<use x="152.685547" xlink:href="#d"/>
<use x="214.208984" xlink:href="#r"/>
</g>
</g>
<g clip-path="url(#a)">
<defs>
<path id="ap" d="m45.406 27.984q0 9.7656-4.0312 15.125-4.0156 5.375-11.297 5.375-7.2188 0-11.25-5.375-4.0312-5.3594-4.0312-15.125 0-9.7188 4.0312-15.094t11.25-5.375q7.2812 0 11.297 5.375 4.0312 5.375 4.0312 15.094zm8.9844-21.203q0-13.953-6.2031-20.766-6.1875-6.8125-18.984-6.8125-4.7344 0-8.9375 0.70312t-8.1562 2.1719v8.7344q3.9531-2.1406 7.8125-3.1562 3.8594-1.0312 7.8594-1.0312 8.8438 0 13.234 4.6094t4.3906 13.938v4.4531q-2.7812-4.8438-7.125-7.2344t-10.406-2.3906q-10.047 0-16.203 7.6562-6.1562 7.6719-6.1562 20.328 0 12.688 6.1562 20.344 6.1562 7.6719 16.203 7.6719 6.0625 0 10.406-2.3906t7.125-7.2188v8.2969h8.9844z"/>
</defs>
<g transform="translate(165.07 943.8) scale(.1 -.1)">
<use xlink:href="#l"/>
<use x="60.833984" xlink:href="#h"/>
<use x="122.113281" xlink:href="#ap"/>
<use x="185.589844" xlink:href="#d"/>
<use x="247.113281" xlink:href="#r"/>
</g>
</g>
<g clip-path="url(#a)">
<defs>
<path id="ae" d="m9.0781 75.984h9.0312v-44.875l26.812 23.578h11.469l-29-25.578 30.234-29.109h-11.719l-27.797 26.703v-26.703h-9.0312z"/>
<path id="al" d="m18.312 70.219v-15.531h18.5v-6.9844h-18.5v-29.688q0-6.6875 1.8281-8.5938t7.4531-1.9062h9.2188v-7.5156h-9.2188q-10.406 0-14.359 3.875-3.9531 3.8906-3.9531 14.141v29.688h-6.5938v6.9844h6.5938v15.531z"/>
</defs>
<g transform="translate(210.1 943.8) scale(.1 -.1)">
<use xlink:href="#ae"/>
<use x="57.863281" xlink:href="#d"/>
<use x="119.386719" xlink:href="#g"/>
<use x="147.169922" xlink:href="#j"/>
<use x="244.582031" xlink:href="#al"/>
<use x="283.791016" xlink:href="#d"/>
</g>
</g>
<g clip-path="url(#a)">
<g transform="translate(267.06 943.8) scale(.1 -.1)">
<use xlink:href="#d"/>
<use x="61.523438" xlink:href="#g"/>
<use x="89.306641" xlink:href="#f"/>
</g>
</g>
<g clip-path="url(#a)">
<defs>
<path id="aw" d="m18.109 8.2031v-29h-9.0312v75.484h9.0312v-8.2969q2.8438 4.875 7.1562 7.2344 4.3281 2.375 10.328 2.375 9.9688 0 16.188-7.9062 6.2344-7.9062 6.2344-20.797t-6.2344-20.812q-6.2188-7.9062-16.188-7.9062-6 0-10.328 2.375-4.3125 2.375-7.1562 7.25zm30.578 19.094q0 9.9062-4.0781 15.547t-11.203 5.6406q-7.1406 0-11.219-5.6406t-4.0781-15.547 4.0781-15.547 11.219-5.6406q7.125 0 11.203 5.6406t4.0781 15.547z"/>
</defs>
<g transform="translate(305.36 943.8) scale(.1 -.1)">
<use xlink:href="#ah"/>
<use x="63.476562" xlink:href="#aw"/>
<use x="126.953125" xlink:href="#i"/>
<use x="168.035156" xlink:href="#ad"/>
<use x="229.216797" xlink:href="#r"/>
<use x="281.316406" xlink:href="#r"/>
</g>
</g>
<g clip-path="url(#a)">
<defs>
<path id="ac" d="m8.5 21.578v33.109h8.9844v-32.766q0-7.7656 3.0156-11.656 3.0312-3.875 9.0938-3.875 7.2656 0 11.484 4.6406 4.2344 4.6406 4.2344 12.656v31h8.9844v-54.688h-8.9844v8.4062q-3.2656-4.9844-7.5938-7.4062-4.3125-2.4219-10.031-2.4219-9.4219 0-14.312 5.8594-4.875 5.8594-4.875 17.141z"/>
</defs>
<g transform="translate(360.52 943.8) scale(.1 -.1)">
<use xlink:href="#h"/>
<use x="61.279297" xlink:href="#ac"/>
<use x="124.658203" xlink:href="#r"/>
</g>
</g>
<g clip-path="url(#a)">
<g transform="translate(401.11 943.8) scale(.1 -.1)">
<use xlink:href="#d"/>
<use x="61.523438" xlink:href="#g"/>
<use x="89.306641" xlink:href="#f"/>
<use x="152.685547" xlink:href="#d"/>
<use x="214.208984" xlink:href="#j"/>
</g>
</g>
<g clip-path="url(#a)">
<g transform="translate(446.67 943.8) scale(.1 -.1)">
<use xlink:href="#ah"/>
<use x="63.476562" xlink:href="#h"/>
<use x="124.755859" xlink:href="#j"/>
<use x="222.167969" xlink:href="#d"/>
<use x="283.691406" xlink:href="#f"/>
</g>
</g>
<g clip-path="url(#a)">
<defs>
<path id="ao" d="m11.719 12.406h10.297v-8.4062l-8-15.625h-6.2969l4 15.625z"/>
</defs>
<g transform="translate(509.76 943.8) scale(.1 -.1)">
<use xlink:href="#ao"/>
</g>
</g>
<g clip-path="url(#a)">
<defs>
<path id="av" d="m2.9844 54.688h9.5156l17.094-45.891 17.094 45.891h9.5156l-20.516-54.688h-12.203z"/>
</defs>
<g transform="translate(549.5 943.8) scale(.1 -.1)">
<use xlink:href="#av"/>
<use x="59.179688" xlink:href="#ad"/>
<use x="120.361328" xlink:href="#f"/>
</g>
</g>
<g clip-path="url(#a)">
<defs>
<path id="u" d="m45.406 46.391v29.594h8.9844v-75.984h-8.9844v8.2031q-2.8281-4.875-7.1562-7.25-4.3125-2.375-10.375-2.375-9.9062 0-16.141 7.9062-6.2188 7.9219-6.2188 20.812t6.2188 20.797q6.2344 7.9062 16.141 7.9062 6.0625 0 10.375-2.375 4.3281-2.3594 7.1562-7.2344zm-30.609-19.094q0-9.9062 4.0781-15.547t11.203-5.6406 11.219 5.6406q4.1094 5.6406 4.1094 15.547t-4.1094 15.547q-4.0938 5.6406-11.219 5.6406t-11.203-5.6406-4.0781-15.547z"/>
</defs>
<g transform="translate(594.89 943.8) scale(.1 -.1)">
<use xlink:href="#u"/>
<use x="63.476562" xlink:href="#d"/>
<use x="125" xlink:href="#j"/>
</g>
</g>
<g clip-path="url(#a)">
<g transform="translate(637.69 943.8) scale(.1 -.1)">
<use xlink:href="#ae"/>
<use x="57.863281" xlink:href="#d"/>
<use x="119.386719" xlink:href="#g"/>
<use x="147.169922" xlink:href="#f"/>
<use x="210.548828" xlink:href="#d"/>
<use x="272.072266" xlink:href="#i"/>
</g>
</g>
<g clip-path="url(#a)">
<defs>
<path id="ak" d="m4.2031 54.688h8.9844l11.234-42.672 11.172 42.672h10.594l11.234-42.672 11.188 42.672h8.9844l-14.312-54.688h-10.594l-11.766 44.828-11.812-44.828h-10.609z"/>
</defs>
<g transform="translate(683.17 943.8) scale(.1 -.1)">
<use xlink:href="#ak"/>
<use x="81.787109" xlink:href="#ac"/>
<use x="145.166016" xlink:href="#r"/>
<use x="197.265625" xlink:href="#r"/>
<use x="249.365234" xlink:href="#al"/>
<use x="288.574219" xlink:href="#d"/>
</g>
</g>
<g clip-path="url(#a)">
<g transform="translate(746.42 943.8) scale(.1 -.1)">
<use xlink:href="#ao"/>
</g>
</g>
<g clip-path="url(#a)">
<g transform="translate(779.89 943.8) scale(.1 -.1)">
<use xlink:href="#ak"/>
<use x="81.787109" xlink:href="#ad"/>
<use x="142.96875" xlink:href="#af"/>
<use x="206.347656" xlink:href="#d"/>
<use x="267.871094" xlink:href="#i"/>
</g>
</g>
<g clip-path="url(#a)">
<g transform="translate(837.54 943.8) scale(.1 -.1)">
<use xlink:href="#d"/>
<use x="61.523438" xlink:href="#i"/>
</g>
</g>
<g clip-path="url(#a)">
<g transform="translate(879.17 943.8) scale(.1 -.1)">
<use xlink:href="#ae"/>
<use x="57.894531" xlink:href="#h"/>
<use x="119.173828" xlink:href="#j"/>
</g>
</g>
<g clip-path="url(#a)">
<g transform="translate(927.82 943.8) scale(.1 -.1)">
<use xlink:href="#ac"/>
<use x="63.378906" xlink:href="#f"/>
<use x="126.757812" xlink:href="#u"/>
</g>
</g>
<g clip-path="url(#a)">
<g transform="translate(976.36 943.8) scale(.1 -.1)">
<use xlink:href="#u"/>
<use x="63.476562" xlink:href="#d"/>
<use x="125" xlink:href="#i"/>
</g>
</g>
<g clip-path="url(#a)">
<g transform="translate(1017 943.8) scale(.1 -.1)">
<use xlink:href="#ae"/>
<use x="57.910156" xlink:href="#k"/>
<use x="85.693359" xlink:href="#d"/>
<use x="147.216797" xlink:href="#g"/>
<use x="175" xlink:href="#f"/>
<use x="238.378906" xlink:href="#d"/>
</g>
</g>
<g clip-path="url(#a)">
<defs>
<path id="ar" d="m5.5156 54.688h42.672v-8.2031l-33.781-39.312h33.781v-7.1719h-43.891v8.2031l33.797 39.312h-32.578z"/>
</defs>
<g transform="translate(1067.1 943.8) scale(.1 -.1)">
<use xlink:href="#w"/>
<use x="60.287109" xlink:href="#i"/>
<use x="101.400391" xlink:href="#g"/>
<use x="129.183594" xlink:href="#f"/>
<use x="192.5625" xlink:href="#ar"/>
</g>
</g>
<g clip-path="url(#a)">
<defs>
<path id="at" d="m8.5 21.578v33.109h8.9844v-32.766q0-7.7656 3.0156-11.656 3.0312-3.875 9.0938-3.875 7.2656 0 11.484 4.6406 4.2344 4.6406 4.2344 12.656v31h8.9844v-54.688h-8.9844v8.4062q-3.2656-4.9844-7.5938-7.4062-4.3125-2.4219-10.031-2.4219-9.4219 0-14.312 5.8594-4.875 5.8594-4.875 17.141zm22.609 34.422m4.4844 19.781h9.9062v-9.8594h-9.9062zm-19.094 0h9.9062v-9.8594h-9.9062z"/>
<path id="as" d="m48.688 27.297q0 9.9062-4.0781 15.547t-11.203 5.6406q-7.1406 0-11.219-5.6406t-4.0781-15.547 4.0781-15.547 11.219-5.6406q7.125 0 11.203 5.6406t4.0781 15.547zm-30.578 19.094q2.8438 4.875 7.1562 7.2344 4.3281 2.375 10.328 2.375 9.9688 0 16.188-7.9062 6.2344-7.9062 6.2344-20.797t-6.2344-20.812q-6.2188-7.9062-16.188-7.9062-6 0-10.328 2.375-4.3125 2.375-7.1562 7.25v-8.2031h-9.0312v75.984h9.0312z"/>
</defs>
<g transform="translate(1097.1 943.8) scale(.1 -.1)">
<use xlink:href="#at"/>
<use x="63.378906" xlink:href="#as"/>
<use x="126.855469" xlink:href="#d"/>
<use x="188.378906" xlink:href="#i"/>
<use x="229.492188" xlink:href="#ak"/>
<use x="311.279297" xlink:href="#h"/>
<use x="372.558594" xlink:href="#am"/>
<use x="427.539062" xlink:href="#af"/>
<use x="490.917969" xlink:href="#al"/>
<use x="530.126953" xlink:href="#d"/>
</g>
</g>
<g clip-path="url(#a)">
<g transform="translate(1162 943.8) scale(.1 -.1)">
<use xlink:href="#ap"/>
<use x="63.476562" xlink:href="#h"/>
<use x="124.755859" xlink:href="#f"/>
<use x="188.134766" xlink:href="#ar"/>
</g>
</g>
<g clip-path="url(#a)">
<g transform="translate(1205.7 943.8) scale(.1 -.1)">
<use xlink:href="#ap"/>
<use x="63.476562" xlink:href="#d"/>
<use x="125" xlink:href="#f"/>
<use x="188.378906" xlink:href="#h"/>
<use x="249.658203" xlink:href="#ac"/>
</g>
</g>
<g clip-path="url(#a)">
<g transform="translate(1252.2 943.8) scale(.1 -.1)">
<use xlink:href="#u"/>
<use x="63.476562" xlink:href="#g"/>
<use x="91.259766" xlink:href="#d"/>
<use x="152.783203" xlink:href="#r"/>
<use x="204.882812" xlink:href="#d"/>
<use x="266.40625" xlink:href="#f"/>
</g>
</g>
<g clip-path="url(#a)">
<g transform="translate(1297.8 943.8) scale(.1 -.1)">
<use xlink:href="#ae"/>
<use x="57.910156" xlink:href="#k"/>
<use x="85.693359" xlink:href="#d"/>
<use x="147.216797" xlink:href="#g"/>
<use x="175" xlink:href="#f"/>
<use x="238.378906" xlink:href="#d"/>
<use x="299.902344" xlink:href="#f"/>
</g>
</g>
<g clip-path="url(#a)">
<g transform="translate(1350.2 943.8) scale(.1 -.1)">
<use xlink:href="#an"/>
<use x="75.195312" xlink:href="#h"/>
<use x="136.474609" xlink:href="#k"/>
<use x="164.257812" xlink:href="#j"/>
</g>
</g>
<g clip-path="url(#a)">
<g transform="translate(1409.1 943.8) scale(.1 -.1)">
<use xlink:href="#ao"/>
</g>
</g>
<g clip-path="url(#a)">
<g transform="translate(1449.7 943.8) scale(.1 -.1)">
<use xlink:href="#u"/>
<use x="63.476562" xlink:href="#d"/>
<use x="125" xlink:href="#i"/>
</g>
</g>
<g clip-path="url(#a)">
<g transform="translate(1492.9 943.8) scale(.1 -.1)">
<use xlink:href="#f"/>
<use x="63.378906" xlink:href="#g"/>
<use x="91.162109" xlink:href="#am"/>
<use x="146.142578" xlink:href="#af"/>
<use x="209.521484" xlink:href="#al"/>
</g>
</g>
<g clip-path="url(#a)">
<g transform="translate(1547 943.8) scale(.1 -.1)">
<use xlink:href="#r"/>
<use x="52.099609" xlink:href="#ad"/>
</g>
</g>
<g clip-path="url(#a)">
<g transform="translate(1582.3 943.8) scale(.1 -.1)">
<use xlink:href="#h"/>
<use x="61.279297" xlink:href="#ac"/>
<use x="124.658203" xlink:href="#r"/>
<use x="176.757812" xlink:href="#r"/>
<use x="228.857422" xlink:href="#h"/>
<use x="290.136719" xlink:href="#af"/>
</g>
</g>
<g clip-path="url(#a)">
<g transform="translate(1638.7 943.8) scale(.1 -.1)">
<use xlink:href="#ak"/>
<use x="81.787109" xlink:href="#g"/>
<use x="109.570312" xlink:href="#d"/>
</g>
</g>
<g clip-path="url(#a)">
<g transform="translate(1687 943.8) scale(.1 -.1)">
<use xlink:href="#u"/>
<use x="63.476562" xlink:href="#g"/>
<use x="91.259766" xlink:href="#d"/>
</g>
</g>
<g clip-path="url(#a)">
<g transform="translate(1721.2 943.8) scale(.1 -.1)">
<use xlink:href="#h"/>
<use x="61.279297" xlink:href="#f"/>
<use x="124.658203" xlink:href="#u"/>
<use x="188.134766" xlink:href="#d"/>
<use x="249.658203" xlink:href="#i"/>
<use x="290.740234" xlink:href="#d"/>
<use x="352.263672" xlink:href="#f"/>
</g>
</g>
<g clip-path="url(#a)">
<defs>
<path id="e" d="m10.688 12.406h10.312v-12.406h-10.312z"/>
</defs>
<g transform="translate(1787.7 943.8) scale(.1 -.1)">
<use xlink:href="#e"/>
</g>
</g>
<g clip-path="url(#a)">
<defs>
<path id="c" d="m12.406 8.2969h16.109v55.625l-17.531-3.5156v8.9844l17.438 3.5156h9.8594v-64.609h16.109v-8.2969h-41.984z"/>
</defs>
<g transform="translate(616.37 48.383) scale(.1 -.1)">
<use xlink:href="#c"/>
<use x="63.623047" xlink:href="#e"/>
<use x="95.410156" xlink:href="#c"/>
</g>
</g>
<g clip-path="url(#a)">
<defs>
<path id="m" d="m19.188 8.2969h34.422v-8.2969h-46.281v8.2969q5.6094 5.8125 15.297 15.594 9.7031 9.7969 12.188 12.641 4.7344 5.3125 6.6094 9 1.8906 3.6875 1.8906 7.25 0 5.8125-4.0781 9.4688-4.0781 3.6719-10.625 3.6719-4.6406 0-9.7969-1.6094-5.1406-1.6094-11-4.8906v9.9688q5.9531 2.3906 11.125 3.6094 5.1875 1.2188 9.4844 1.2188 11.328 0 18.062-5.6719 6.7344-5.6562 6.7344-15.125 0-4.5-1.6875-8.5312-1.6719-4.0156-6.125-9.4844-1.2188-1.4219-7.7656-8.1875-6.5312-6.7656-18.453-18.922z"/>
</defs>
<g transform="translate(77.418 821.18) scale(.1 -.1)">
<use xlink:href="#c"/>
<use x="63.623047" xlink:href="#e"/>
<use x="95.410156" xlink:href="#m"/>
</g>
</g>
<g clip-path="url(#a)">
<defs>
<path id="o" d="m40.578 39.312q7.0781-1.5156 11.047-6.3125 3.9844-4.7812 3.9844-11.812 0-10.781-7.4219-16.703-7.4219-5.9062-21.094-5.9062-4.5781 0-9.4375 0.90625t-10.031 2.7188v9.5156q4.0938-2.3906 8.9688-3.6094 4.8906-1.2188 10.219-1.2188 9.2656 0 14.125 3.6562t4.8594 10.641q0 6.4531-4.5156 10.078-4.5156 3.6406-12.562 3.6406h-8.5v8.1094h8.8906q7.2656 0 11.125 2.9062t3.8594 8.375q0 5.6094-3.9844 8.6094-3.9688 3.0156-11.391 3.0156-4.0625 0-8.7031-0.89062-4.6406-0.875-10.203-2.7188v8.7812q5.625 1.5625 10.531 2.3438t9.25 0.78125q11.234 0 17.766-5.1094 6.5469-5.0938 6.5469-13.781 0-6.0625-3.4688-10.234t-9.8594-5.7812z"/>
</defs>
<g transform="translate(283.7 184.97) scale(.1 -.1)">
<use xlink:href="#c"/>
<use x="63.623047" xlink:href="#e"/>
<use x="95.410156" xlink:href="#o"/>
</g>
</g>
<g clip-path="url(#a)">
<defs>
<path id="n" d="m37.797 64.312-24.906-38.922h24.906zm-2.5938 8.5938h12.406v-47.516h10.406v-8.2031h-10.406v-17.188h-9.8125v17.188h-32.906v9.5156z"/>
</defs>
<g transform="translate(929.38 821.18) scale(.1 -.1)">
<use xlink:href="#c"/>
<use x="63.623047" xlink:href="#e"/>
<use x="95.410156" xlink:href="#n"/>
</g>
</g>
<g clip-path="url(#a)">
<defs>
<path id="q" d="m10.797 72.906h38.719v-8.3125h-29.688v-17.859q2.1406 0.73438 4.2812 1.0938 2.1562 0.35938 4.3125 0.35938 12.203 0 19.328-6.6875 7.1406-6.6875 7.1406-18.109 0-11.766-7.3281-18.297-7.3281-6.5156-20.656-6.5156-4.5938 0-9.3594 0.78125-4.75 0.78125-9.8281 2.3438v9.9219q4.3906-2.3906 9.0781-3.5625t9.9062-1.1719q8.4531 0 13.375 4.4375 4.9375 4.4375 4.9375 12.062 0 7.6094-4.9375 12.047-4.9219 4.4531-13.375 4.4531-3.9531 0-7.8906-0.875-3.9219-0.875-8.0156-2.7344z"/>
</defs>
<g transform="translate(1175 184.97) scale(.1 -.1)">
<use xlink:href="#c"/>
<use x="63.623047" xlink:href="#e"/>
<use x="95.410156" xlink:href="#q"/>
</g>
</g>
<g clip-path="url(#a)">
<defs>
<path id="v" d="m8.2031 72.906h46.875v-4.2031l-26.469-68.703h-10.297l24.906 64.594h-35.016z"/>
</defs>
<g transform="translate(1024 698.55) scale(.1 -.1)">
<use xlink:href="#c"/>
<use x="63.623047" xlink:href="#e"/>
<use x="95.410156" xlink:href="#v"/>
</g>
</g>
<g clip-path="url(#a)">
<defs>
<path id="aj" d="m31.781 34.625q-7.0312 0-11.062-3.7656-4.0156-3.7656-4.0156-10.344 0-6.5938 4.0156-10.359 4.0312-3.7656 11.062-3.7656t11.078 3.7812q4.0625 3.7969 4.0625 10.344 0 6.5781-4.0312 10.344-4.0156 3.7656-11.109 3.7656zm-9.8594 4.1875q-6.3438 1.5625-9.8906 5.9062-3.5312 4.3594-3.5312 10.609 0 8.7344 6.2188 13.812 6.2344 5.0781 17.062 5.0781 10.891 0 17.094-5.0781t6.2031-13.812q0-6.25-3.5469-10.609-3.5312-4.3438-9.8281-5.9062 7.125-1.6562 11.094-6.5 3.9844-4.8281 3.9844-11.797 0-10.609-6.4688-16.281-6.4688-5.6562-18.531-5.6562-12.047 0-18.531 5.6562-6.4688 5.6719-6.4688 16.281 0 6.9688 4 11.797 4.0156 4.8438 11.141 6.5zm-3.6094 15.578q0-5.6562 3.5312-8.8281 3.5469-3.1719 9.9375-3.1719 6.3594 0 9.9375 3.1719 3.5938 3.1719 3.5938 8.8281 0 5.6719-3.5938 8.8438-3.5781 3.1719-9.9375 3.1719-6.3906 0-9.9375-3.1719-3.5312-3.1719-3.5312-8.8438z"/>
</defs>
<g transform="translate(1118.7 821.18) scale(.1 -.1)">
<use xlink:href="#c"/>
<use x="63.623047" xlink:href="#e"/>
<use x="95.410156" xlink:href="#aj"/>
</g>
</g>
<g clip-path="url(#a)">
<defs>
<path id="z" d="m10.984 1.5156v8.9844q3.7188-1.7656 7.5156-2.6875 3.8125-0.92188 7.4844-0.92188 9.7656 0 14.906 6.5625 5.1562 6.5625 5.8906 19.953-2.8281-4.2031-7.1875-6.4531-4.3438-2.25-9.6094-2.25-10.938 0-17.312 6.6094-6.375 6.625-6.375 18.109 0 11.219 6.6406 18 6.6406 6.7969 17.672 6.7969 12.656 0 19.312-9.7031 6.6719-9.6875 6.6719-28.141 0-17.234-8.1875-27.516-8.1719-10.281-21.984-10.281-3.7188 0-7.5312 0.73438-3.7969 0.73438-7.9062 2.2031zm19.625 30.906q6.6406 0 10.516 4.5312 3.8906 4.5469 3.8906 12.469 0 7.8594-3.8906 12.422-3.875 4.5625-10.516 4.5625t-10.516-4.5625-3.875-12.422q0-7.9219 3.875-12.469 3.875-4.5312 10.516-4.5312z"/>
</defs>
<g transform="translate(1189.7 698.55) scale(.1 -.1)">
<use xlink:href="#c"/>
<use x="63.623047" xlink:href="#e"/>
<use x="95.410156" xlink:href="#z"/>
</g>
</g>
<g clip-path="url(#a)">
<defs>
<path id="ab" d="m31.781 66.406q-7.6094 0-11.453-7.5-3.8281-7.4844-3.8281-22.531 0-14.984 3.8281-22.484 3.8438-7.5 11.453-7.5 7.6719 0 11.5 7.5 3.8438 7.5 3.8438 22.484 0 15.047-3.8438 22.531-3.8281 7.5-11.5 7.5zm0 7.8125q12.266 0 18.734-9.7031 6.4688-9.6875 6.4688-28.141 0-18.406-6.4688-28.109-6.4688-9.6875-18.734-9.6875-12.25 0-18.719 9.6875-6.4688 9.7031-6.4688 28.109 0 18.453 6.4688 28.141 6.4688 9.7031 18.719 9.7031z"/>
</defs>
<g transform="translate(1364.3 317.88) scale(.1 -.1)">
<use xlink:href="#c"/>
<use x="63.623047" xlink:href="#e"/>
<use x="95.410156" xlink:href="#c"/>
<use x="159.033203" xlink:href="#ab"/>
</g>
</g>
<g clip-path="url(#a)">
<g transform="translate(1257.5 821.18) scale(.1 -.1)">
<use xlink:href="#c"/>
<use x="63.623047" xlink:href="#e"/>
<use x="95.410156" xlink:href="#c"/>
<use x="159.033203" xlink:href="#c"/>
</g>
</g>
<g clip-path="url(#a)">
<g transform="translate(1304.9 821.18) scale(.1 -.1)">
<use xlink:href="#c"/>
<use x="63.623047" xlink:href="#e"/>
<use x="95.410156" xlink:href="#c"/>
<use x="159.033203" xlink:href="#m"/>
</g>
</g>
<g clip-path="url(#a)">
<g transform="translate(1352.2 821.18) scale(.1 -.1)">
<use xlink:href="#c"/>
<use x="63.623047" xlink:href="#e"/>
<use x="95.410156" xlink:href="#c"/>
<use x="159.033203" xlink:href="#o"/>
</g>
</g>
<g clip-path="url(#a)">
<g transform="translate(1507.3 447.49) scale(.1 -.1)">
<use xlink:href="#c"/>
<use x="63.623047" xlink:href="#e"/>
<use x="95.410156" xlink:href="#c"/>
<use x="159.033203" xlink:href="#n"/>
</g>
</g>
<g clip-path="url(#a)">
<defs>
<path id="aa" d="m33.016 40.375q-6.6406 0-10.531-4.5469-3.875-4.5312-3.875-12.438 0-7.8594 3.875-12.438 3.8906-4.5625 10.531-4.5625t10.516 4.5625q3.875 4.5781 3.875 12.438 0 7.9062-3.875 12.438-3.875 4.5469-10.516 4.5469zm19.578 30.922v-8.9844q-3.7188 1.75-7.5 2.6719-3.7812 0.9375-7.5 0.9375-9.7656 0-14.922-6.5938-5.1406-6.5938-5.875-19.922 2.875 4.25 7.2188 6.5156 4.3594 2.2656 9.5781 2.2656 10.984 0 17.359-6.6719 6.375-6.6562 6.375-18.125 0-11.234-6.6406-18.031-6.6406-6.7812-17.672-6.7812-12.656 0-19.344 9.6875-6.6875 9.7031-6.6875 28.109 0 17.281 8.2031 27.562t22.016 10.281q3.7188 0 7.5-0.73438t7.8906-2.1875z"/>
</defs>
<g transform="translate(1446.8 821.18) scale(.1 -.1)">
<use xlink:href="#c"/>
<use x="63.623047" xlink:href="#e"/>
<use x="95.410156" xlink:href="#c"/>
<use x="159.033203" xlink:href="#aa"/>
</g>
</g>
<g clip-path="url(#a)">
<g transform="translate(1494.2 821.18) scale(.1 -.1)">
<use xlink:href="#c"/>
<use x="63.623047" xlink:href="#e"/>
<use x="95.410156" xlink:href="#c"/>
<use x="159.033203" xlink:href="#v"/>
</g>
</g>
<g clip-path="url(#a)">
<g transform="translate(1541.5 821.18) scale(.1 -.1)">
<use xlink:href="#c"/>
<use x="63.623047" xlink:href="#e"/>
<use x="95.410156" xlink:href="#c"/>
<use x="159.033203" xlink:href="#aj"/>
</g>
</g>
<g clip-path="url(#a)">
<g transform="translate(1588.8 821.18) scale(.1 -.1)">
<use xlink:href="#c"/>
<use x="63.623047" xlink:href="#e"/>
<use x="95.410156" xlink:href="#c"/>
<use x="159.033203" xlink:href="#z"/>
</g>
</g>
<g clip-path="url(#a)">
<g transform="translate(1620.4 574.22) scale(.1 -.1)">
<use xlink:href="#c"/>
<use x="63.623047" xlink:href="#e"/>
<use x="95.410156" xlink:href="#m"/>
<use x="159.033203" xlink:href="#ab"/>
</g>
</g>
<g clip-path="url(#a)">
<g transform="translate(1636.2 821.18) scale(.1 -.1)">
<use xlink:href="#c"/>
<use x="63.623047" xlink:href="#e"/>
<use x="95.410156" xlink:href="#m"/>
<use x="159.033203" xlink:href="#c"/>
</g>
</g>
<g clip-path="url(#a)">
<g transform="translate(1636.2 698.55) scale(.1 -.1)">
<use xlink:href="#c"/>
<use x="63.623047" xlink:href="#e"/>
<use x="95.410156" xlink:href="#m"/>
<use x="159.033203" xlink:href="#m"/>
</g>
</g>
<g clip-path="url(#a)">
<g transform="translate(1683.5 821.18) scale(.1 -.1)">
<use xlink:href="#c"/>
<use x="63.623047" xlink:href="#e"/>
<use x="95.410156" xlink:href="#m"/>
<use x="159.033203" xlink:href="#o"/>
</g>
</g>
<g clip-path="url(#a)">
<g transform="translate(1730.8 821.18) scale(.1 -.1)">
<use xlink:href="#c"/>
<use x="63.623047" xlink:href="#e"/>
<use x="95.410156" xlink:href="#m"/>
<use x="159.033203" xlink:href="#n"/>
</g>
</g>
<g clip-path="url(#a)">
<g transform="translate(1162.9 821.18) scale(.1 -.1)">
<use xlink:href="#c"/>
<use x="63.623047" xlink:href="#e"/>
<use x="95.410156" xlink:href="#m"/>
<use x="159.033203" xlink:href="#q"/>
</g>
</g>
<g clip-path="url(#a)">
<g transform="translate(1210.2 821.18) scale(.1 -.1)">
<use xlink:href="#c"/>
<use x="63.623047" xlink:href="#e"/>
<use x="95.410156" xlink:href="#m"/>
<use x="159.033203" xlink:href="#aa"/>
</g>
</g>
<g clip-path="url(#a)">
<g transform="translate(973.53 821.18) scale(.1 -.1)">
<use xlink:href="#c"/>
<use x="63.623047" xlink:href="#e"/>
<use x="95.410156" xlink:href="#m"/>
<use x="159.033203" xlink:href="#v"/>
</g>
</g>
<g clip-path="url(#a)">
<g transform="translate(1020.9 821.18) scale(.1 -.1)">
<use xlink:href="#c"/>
<use x="63.623047" xlink:href="#e"/>
<use x="95.410156" xlink:href="#m"/>
<use x="159.033203" xlink:href="#aj"/>
</g>
</g>
<g clip-path="url(#a)">
<g transform="translate(1068.2 821.18) scale(.1 -.1)">
<use xlink:href="#c"/>
<use x="63.623047" xlink:href="#e"/>
<use x="95.410156" xlink:href="#m"/>
<use x="159.033203" xlink:href="#z"/>
</g>
</g>
<g clip-path="url(#a)">
<g transform="translate(145.23 698.55) scale(.1 -.1)">
<use xlink:href="#c"/>
<use x="63.623047" xlink:href="#e"/>
<use x="95.410156" xlink:href="#o"/>
<use x="159.033203" xlink:href="#ab"/>
</g>
</g>
<g clip-path="url(#a)">
<g transform="translate(216.23 821.18) scale(.1 -.1)">
<use xlink:href="#c"/>
<use x="63.623047" xlink:href="#e"/>
<use x="95.410156" xlink:href="#o"/>
<use x="159.033203" xlink:href="#c"/>
</g>
</g>
<g clip-path="url(#a)">
<g transform="translate(287.23 698.55) scale(.1 -.1)">
<use xlink:href="#c"/>
<use x="63.623047" xlink:href="#e"/>
<use x="95.410156" xlink:href="#o"/>
<use x="159.033203" xlink:href="#m"/>
</g>
</g>
<g clip-path="url(#a)">
<g transform="translate(473.4 317.88) scale(.1 -.1)">
<use xlink:href="#c"/>
<use x="63.623047" xlink:href="#e"/>
<use x="95.410156" xlink:href="#o"/>
<use x="159.033203" xlink:href="#o"/>
</g>
</g>
<g clip-path="url(#a)">
<g transform="translate(358.22 821.18) scale(.1 -.1)">
<use xlink:href="#c"/>
<use x="63.623047" xlink:href="#e"/>
<use x="95.410156" xlink:href="#o"/>
<use x="159.033203" xlink:href="#n"/>
</g>
</g>
<g clip-path="url(#a)">
<g transform="translate(405.56 821.18) scale(.1 -.1)">
<use xlink:href="#c"/>
<use x="63.623047" xlink:href="#e"/>
<use x="95.410156" xlink:href="#o"/>
<use x="159.033203" xlink:href="#q"/>
</g>
</g>
<g clip-path="url(#a)">
<g transform="translate(452.89 821.18) scale(.1 -.1)">
<use xlink:href="#c"/>
<use x="63.623047" xlink:href="#e"/>
<use x="95.410156" xlink:href="#o"/>
<use x="159.033203" xlink:href="#aa"/>
</g>
</g>
<g clip-path="url(#a)">
<g transform="translate(650.1 447.49) scale(.1 -.1)">
<use xlink:href="#c"/>
<use x="63.623047" xlink:href="#e"/>
<use x="95.410156" xlink:href="#o"/>
<use x="159.033203" xlink:href="#v"/>
</g>
</g>
<g clip-path="url(#a)">
<g transform="translate(571.22 698.55) scale(.1 -.1)">
<use xlink:href="#c"/>
<use x="63.623047" xlink:href="#e"/>
<use x="95.410156" xlink:href="#o"/>
<use x="159.033203" xlink:href="#z"/>
</g>
</g>
<g clip-path="url(#a)">
<g transform="translate(642.21 821.18) scale(.1 -.1)">
<use xlink:href="#c"/>
<use x="63.623047" xlink:href="#e"/>
<use x="95.410156" xlink:href="#n"/>
<use x="159.033203" xlink:href="#ab"/>
</g>
</g>
<g clip-path="url(#a)">
<g transform="translate(689.54 821.18) scale(.1 -.1)">
<use xlink:href="#c"/>
<use x="63.623047" xlink:href="#e"/>
<use x="95.410156" xlink:href="#n"/>
<use x="159.033203" xlink:href="#c"/>
</g>
</g>
<g clip-path="url(#a)">
<g transform="translate(807.87 574.22) scale(.1 -.1)">
<use xlink:href="#c"/>
<use x="63.623047" xlink:href="#e"/>
<use x="95.410156" xlink:href="#n"/>
<use x="159.033203" xlink:href="#m"/>
</g>
</g>
<g clip-path="url(#a)">
<g transform="translate(784.21 821.18) scale(.1 -.1)">
<use xlink:href="#c"/>
<use x="63.623047" xlink:href="#e"/>
<use x="95.410156" xlink:href="#n"/>
<use x="159.033203" xlink:href="#n"/>
</g>
</g>
<g clip-path="url(#a)">
<g transform="translate(831.54 698.55) scale(.1 -.1)">
<use xlink:href="#c"/>
<use x="63.623047" xlink:href="#e"/>
<use x="95.410156" xlink:href="#n"/>
<use x="159.033203" xlink:href="#q"/>
</g>
</g>
<g clip-path="url(#a)">
<g transform="translate(831.54 821.18) scale(.1 -.1)">
<use xlink:href="#c"/>
<use x="63.623047" xlink:href="#e"/>
<use x="95.410156" xlink:href="#n"/>
<use x="159.033203" xlink:href="#aa"/>
</g>
</g>
<g clip-path="url(#a)">
<g transform="translate(878.87 821.18) scale(.1 -.1)">
<use xlink:href="#c"/>
<use x="63.623047" xlink:href="#e"/>
<use x="95.410156" xlink:href="#n"/>
<use x="159.033203" xlink:href="#v"/>
</g>
</g>
<g clip-path="url(#a)">
<g transform="translate(547.55 821.18) scale(.1 -.1)">
<use xlink:href="#c"/>
<use x="63.623047" xlink:href="#e"/>
<use x="95.410156" xlink:href="#n"/>
<use x="159.033203" xlink:href="#aj"/>
</g>
</g>
<g clip-path="url(#a)">
<g transform="translate(594.88 821.18) scale(.1 -.1)">
<use xlink:href="#c"/>
<use x="63.623047" xlink:href="#e"/>
<use x="95.410156" xlink:href="#n"/>
<use x="159.033203" xlink:href="#z"/>
</g>
</g>
<g clip-path="url(#a)">
<g transform="translate(263.56 821.18) scale(.1 -.1)">
<use xlink:href="#c"/>
<use x="63.623047" xlink:href="#e"/>
<use x="95.410156" xlink:href="#q"/>
<use x="159.033203" xlink:href="#ab"/>
</g>
</g>
<g clip-path="url(#a)">
<g transform="translate(310.89 821.18) scale(.1 -.1)">
<use xlink:href="#c"/>
<use x="63.623047" xlink:href="#e"/>
<use x="95.410156" xlink:href="#q"/>
<use x="159.033203" xlink:href="#c"/>
</g>
</g>
<g clip-path="url(#a)">
<g transform="translate(121.57 821.18) scale(.1 -.1)">
<use xlink:href="#c"/>
<use x="63.623047" xlink:href="#e"/>
<use x="95.410156" xlink:href="#q"/>
<use x="159.033203" xlink:href="#m"/>
</g>
</g>
<g clip-path="url(#a)">
<g transform="translate(168.9 821.18) scale(.1 -.1)">
<use xlink:href="#c"/>
<use x="63.623047" xlink:href="#e"/>
<use x="95.410156" xlink:href="#q"/>
<use x="159.033203" xlink:href="#o"/>
</g>
</g>
<g clip-path="url(#a)">
<g transform="translate(500.22 821.18) scale(.1 -.1)">
<use xlink:href="#c"/>
<use x="63.623047" xlink:href="#e"/>
<use x="95.410156" xlink:href="#q"/>
<use x="159.033203" xlink:href="#n"/>
</g>
</g>
<g clip-path="url(#a)">
<g transform="translate(736.88 821.18) scale(.1 -.1)">
<use xlink:href="#c"/>
<use x="63.623047" xlink:href="#e"/>
<use x="95.410156" xlink:href="#q"/>
<use x="159.033203" xlink:href="#q"/>
</g>
</g>
<g clip-path="url(#a)">
<g transform="translate(1399.5 821.18) scale(.1 -.1)">
<use xlink:href="#c"/>
<use x="63.623047" xlink:href="#e"/>
<use x="95.410156" xlink:href="#q"/>
<use x="159.033203" xlink:href="#aa"/>
</g>
</g>
<g clip-path="url(#a)">
<g transform="translate(1778.2 821.18) scale(.1 -.1)">
<use xlink:href="#c"/>
<use x="63.623047" xlink:href="#e"/>
<use x="95.410156" xlink:href="#q"/>
<use x="159.033203" xlink:href="#v"/>
</g>
</g>
<defs>
<clipPath id="a">
<rect width="1874.7" height="986.67"/>
</clipPath>
</defs>
</svg>
