<?xml version="1.0" encoding="UTF-8"?>
<!DOCTYPE svg  PUBLIC '-//W3C//DTD SVG 1.1//EN'  'http://www.w3.org/Graphics/SVG/1.1/DTD/svg11.dtd'>
<svg width="760pt" height="400pt" version="1.1" viewBox="0 0 760 400" xmlns="http://www.w3.org/2000/svg" xmlns:xlink="http://www.w3.org/1999/xlink">
<defs>
<style type="text/css">*{stroke-linecap:butt;stroke-linejoin:round;}</style>
</defs>
<path d="m0 400h760v-400h-760z" fill="#fff"/>
<g fill="none" stroke="#000">
<path d="m258.45 18.182v61.158" clip-path="url(#a)"/>
<path d="m258.45 79.34 467 61.035" clip-path="url(#a)"/>
<path d="m258.45 79.34 467 61.035" clip-path="url(#a)"/>
<path d="m258.45 79.34v61.035" clip-path="url(#a)"/>
<path d="m258.45 140.37-172.73 60.881" clip-path="url(#a)"/>
<path d="m258.45 140.37-8.9562 181.91" clip-path="url(#a)"/>
<path d="m258.45 140.37 236.7 121.56" clip-path="url(#a)"/>
<path d="m258.45 140.37-55.017 181.91" clip-path="url(#a)"/>
<path d="m85.724 201.26-51.178 121.03" clip-path="url(#a)"/>
<path d="m85.724 201.26-35.825 121.03" clip-path="url(#a)"/>
<path d="m85.724 201.26-15.354 121.03" clip-path="url(#a)"/>
<path d="m85.724 201.26 25.589 60.675" clip-path="url(#a)"/>
<path d="m85.724 201.26 76.768 121.03" clip-path="url(#a)"/>
<path d="m249.49 322.29v59.53" clip-path="url(#a)"/>
<path d="m495.15 261.93-194.48 60.358" clip-path="url(#a)"/>
<path d="m495.15 261.93-138.18 60.358" clip-path="url(#a)"/>
<path d="m495.15 261.93-76.768 60.358" clip-path="url(#a)"/>
<path d="m495.15 261.93-10.236 60.358" clip-path="url(#a)"/>
<path d="m495.15 261.93 61.414 60.358" clip-path="url(#a)"/>
<path d="m495.15 261.93 138.18 60.358" clip-path="url(#a)"/>
<path d="m495.15 261.93 220.07 60.358" clip-path="url(#a)"/>
<path d="m300.67 322.29v59.53" clip-path="url(#a)"/>
<path d="m356.97 322.29v59.53" clip-path="url(#a)"/>
<path d="m418.38 322.29v59.53" clip-path="url(#a)"/>
<path d="m34.545 322.29v59.53" clip-path="url(#a)"/>
<path d="m49.899 322.29v59.53" clip-path="url(#a)"/>
<path d="m70.37 322.29v59.53" clip-path="url(#a)"/>
<path d="m111.31 261.93-15.354 60.358" clip-path="url(#a)"/>
<path d="m111.31 261.93 15.354 60.358" clip-path="url(#a)"/>
<path d="m162.49 322.29v59.53" clip-path="url(#a)"/>
<path d="m95.96 322.29v59.53" clip-path="url(#a)"/>
<path d="m126.67 322.29v59.53" clip-path="url(#a)"/>
<path d="m203.43 322.29v59.53" clip-path="url(#a)"/>
<path d="m484.92 322.29v59.53" clip-path="url(#a)"/>
<path d="m556.57 322.29v59.53" clip-path="url(#a)"/>
<path d="m633.33 322.29v59.53" clip-path="url(#a)"/>
<path d="m715.22 322.29v59.53" clip-path="url(#a)"/>
</g>
<path d="m252.18 45.753v6.0162q0 2.4 2.4 2.4h7.7425q2.4 0 2.4-2.4v-6.0162q0-2.4-2.4-2.4h-7.7425q-2.4 0-2.4 2.4z" clip-path="url(#a)" fill="#fff" stroke="#fff"/>
<g clip-path="url(#a)">
<defs>
<path id="t" d="m9.8125 72.906h9.8594v-29.891h35.844v29.891h9.8594v-72.906h-9.8594v34.719h-35.844v-34.719h-9.8594z"/>
</defs>
<g transform="translate(256.24 45.753) rotate(90) scale(.08 -.08)">
<use xlink:href="#t"/>
</g>
</g>
<path d="m488.62 115.75 5.0359 0.65817q2.3798 0.31102 2.6908-2.0687l1.0034-7.6772q0.31102-2.3798-2.0687-2.6908l-5.0359-0.65817q-2.3798-0.31102-2.6908 2.0687l-1.0034 7.6772q-0.31102 2.3798 2.0687 2.6908z" clip-path="url(#a)" fill="#fff" stroke="#fff"/>
<g clip-path="url(#a)">
<defs>
<path id="r" d="m53.516 70.516v-9.625q-5.6094 2.6875-10.594 4-4.9844 1.3281-9.625 1.3281-8.0469 0-12.422-3.125t-4.375-8.8906q0-4.8438 2.9062-7.3125 2.9062-2.4531 11.016-3.9688l5.9531-1.2188q11.031-2.1094 16.281-7.4062t5.25-14.172q0-10.609-7.1094-16.078-7.0938-5.4688-20.812-5.4688-5.1719 0-11.016 1.1719-5.8281 1.1719-12.078 3.4688v10.156q6-3.3594 11.766-5.0781 5.7656-1.7031 11.328-1.7031 8.4375 0 13.031 3.3125 4.5938 3.3281 4.5938 9.4844 0 5.3594-3.2969 8.3906t-10.812 4.5469l-6.0156 1.1719q-11.031 2.1875-15.969 6.875-4.9219 4.6875-4.9219 13.047 0 9.6719 6.8125 15.234t18.766 5.5625q5.1406 0 10.453-0.9375 5.3281-0.92188 10.891-2.7656z"/>
</defs>
<g transform="translate(489.15 111.72) rotate(7.4461) scale(.08 -.08)">
<use xlink:href="#r"/>
</g>
</g>
<path d="m488.43 115.72 5.4264 0.7092q2.3798 0.31102 2.6908-2.0687l1.0034-7.6772q0.31102-2.3798-2.0687-2.6908l-5.4264-0.7092q-2.3798-0.31102-2.6908 2.0687l-1.0034 7.6772q-0.31102 2.3798 2.0687 2.6908z" clip-path="url(#a)" fill="#fff" stroke="#fff"/>
<g clip-path="url(#a)">
<defs>
<path id="o" d="m34.188 63.188-13.391-36.281h26.812zm-5.5781 9.7188h11.188l27.781-72.906h-10.25l-6.6406 18.703h-32.859l-6.6406-18.703h-10.406z"/>
</defs>
<g transform="translate(488.95 111.69) rotate(7.4461) scale(.08 -.08)">
<use xlink:href="#o"/>
</g>
</g>
<path d="m252.18 107.12v5.4725q0 2.4 2.4 2.4h7.7425q2.4 0 2.4-2.4v-5.4725q0-2.4-2.4-2.4h-7.7425q-2.4 0-2.4 2.4z" clip-path="url(#a)" fill="#fff" stroke="#fff"/>
<g clip-path="url(#a)">
<g transform="translate(256.24 107.12) rotate(90) scale(.08 -.08)">
<use xlink:href="#o"/>
</g>
</g>
<path d="m171.34 177.73 5.6741-1.9999q2.2635-0.79782 1.4657-3.0613l-2.5738-7.3022q-0.79782-2.2635-3.0613-1.4657l-5.6741 1.9999q-2.2635 0.79782-1.4657 3.0613l2.5738 7.3022q0.79782 2.2635 3.0613 1.4657z" clip-path="url(#a)" fill="#fff" stroke="#fff"/>
<g clip-path="url(#a)">
<g transform="translate(169.98 173.9) rotate(-19.416) scale(.08 -.08)">
<use xlink:href="#t"/>
</g>
</g>
<path d="m260.13 233.87 0.21919-4.4521q0.11802-2.3971-2.2791-2.5151l-7.7331-0.38073q-2.3971-0.11802-2.5151 2.2791l-0.21919 4.4521q-0.11802 2.3971 2.2791 2.5151l7.7331 0.38073q2.3971 0.11802 2.5151-2.2791z" clip-path="url(#a)" fill="#fff" stroke="#fff"/>
<g clip-path="url(#a)">
<defs>
<path id="s" d="m9.8125 72.906h9.8594v-64.609h35.5v-8.2969h-45.359z"/>
</defs>
<g transform="translate(256.07 233.67) rotate(-87.181) scale(.08 -.08)">
<use xlink:href="#s"/>
</g>
</g>
<path d="m371.26 205.36 5.3518 2.7484q2.1349 1.0964 3.2313-1.0386l3.537-6.8874q1.0964-2.1349-1.0386-3.2313l-5.3518-2.7484q-2.1349-1.0964-3.2313 1.0386l-3.537 6.8874q-1.0964 2.1349 1.0386 3.2313z" clip-path="url(#a)" fill="#fff" stroke="#fff"/>
<g clip-path="url(#a)">
<g transform="translate(373.12 201.74) rotate(27.182) scale(.08 -.08)">
<use xlink:href="#t"/>
</g>
</g>
<path d="m236.1 235.95 1.6949-5.6043q0.69476-2.2972-1.6025-2.992l-7.411-2.2413q-2.2972-0.69476-2.992 1.6025l-1.6949 5.6043q-0.69476 2.2972 1.6025 2.992l7.411 2.2413q2.2972 0.69476 2.992-1.6025z" clip-path="url(#a)" fill="#fff" stroke="#fff"/>
<g clip-path="url(#a)">
<defs>
<path id="p" d="m8.6875 72.906h9.9219v-44.297q0-11.719 4.2344-16.875 4.25-5.1406 13.781-5.1406 9.4688 0 13.719 5.1406 4.25 5.1562 4.25 16.875v44.297h9.9062v-45.516q0-14.25-7.0625-21.531-7.0469-7.2812-20.812-7.2812-13.828 0-20.891 7.2812-7.0469 7.2812-7.0469 21.531z"/>
</defs>
<g transform="translate(232.21 234.77) rotate(-73.173) scale(.08 -.08)">
<use xlink:href="#p"/>
</g>
</g>
<path d="m64.711 267.05 2.3991-5.6736q0.93471-2.2105-1.2758-3.1452l-7.1312-3.0154q-2.2105-0.93471-3.1452 1.2758l-2.3991 5.6736q-0.93471 2.2105 1.2758 3.1452l7.1312 3.0154q2.2105 0.93471 3.1452-1.2758z" clip-path="url(#a)" fill="#fff" stroke="#fff"/>
<g clip-path="url(#a)">
<defs>
<path id="y" d="m19.672 64.797v-56.688h11.922q15.094 0 22.094 6.8281 7 6.8438 7 21.594 0 14.641-7 21.453t-22.094 6.8125zm-9.8594 8.1094h20.266q21.188 0 31.094-8.8125 9.9219-8.8125 9.9219-27.562 0-18.859-9.9688-27.703-9.9531-8.8281-31.047-8.8281h-20.266z"/>
</defs>
<g transform="translate(60.968 265.47) rotate(-67.079) scale(.08 -.08)">
<use xlink:href="#y"/>
</g>
</g>
<path d="m72.951 266.51 1.7483-5.9067q0.68117-2.3013-1.6201-2.9825l-7.4241-2.1975q-2.3013-0.68117-2.9825 1.6201l-1.7483 5.9067q-0.68117 2.3013 1.6201 2.9825l7.4241 2.1975q2.3013 0.68117 2.9825-1.6201z" clip-path="url(#a)" fill="#fff" stroke="#fff"/>
<g clip-path="url(#a)">
<g transform="translate(69.054 265.35) rotate(-73.512) scale(.08 -.08)">
<use xlink:href="#y"/>
</g>
</g>
<path d="m83.924 265.28 0.68869-5.429q0.30203-2.3809-2.0789-2.683l-7.6809-0.97436q-2.3809-0.30203-2.683 2.0789l-0.68869 5.429q-0.30203 2.3809 2.0789 2.683l7.6809 0.97436q2.3809 0.30203 2.683-2.0789z" clip-path="url(#a)" fill="#fff" stroke="#fff"/>
<g clip-path="url(#a)">
<g transform="translate(79.893 264.76) rotate(-82.77) scale(.08 -.08)">
<use xlink:href="#o"/>
</g>
</g>
<path d="m91.677 231.51 2.1266 5.0424q0.93264 2.2114 3.144 1.2787l7.134-3.0087q2.2114-0.93264 1.2787-3.144l-2.1266-5.0424q-0.93264-2.2114-3.144-1.2787l-7.134 3.0087q-2.2114 0.93264-1.2787 3.144z" clip-path="url(#a)" fill="#fff" stroke="#fff"/>
<g clip-path="url(#a)">
<g transform="translate(95.421 229.93) rotate(67.133) scale(.08 -.08)">
<use xlink:href="#o"/>
</g>
</g>
<path d="m117.52 263.09 2.5837 4.0735q1.2855 2.0267 3.3122 0.74122l6.5382-4.147q2.0267-1.2855 0.74122-3.3122l-2.5837-4.0735q-1.2855-2.0267-3.3122-0.74122l-6.5382 4.147q-2.0267 1.2855-0.74122 3.3122z" clip-path="url(#a)" fill="#fff" stroke="#fff"/>
<g clip-path="url(#a)">
<defs>
<path id="q" d="m19.672 64.797v-27.391h12.406q6.8906 0 10.641 3.5625 3.7656 3.5625 3.7656 10.156 0 6.5469-3.7656 10.109-3.75 3.5625-10.641 3.5625zm-9.8594 8.1094h22.266q12.266 0 18.531-5.5469 6.2812-5.5469 6.2812-16.234 0-10.797-6.2812-16.312-6.2656-5.5156-18.531-5.5156h-12.406v-29.297h-9.8594z"/>
</defs>
<g transform="translate(120.95 260.92) rotate(57.614) scale(.08 -.08)">
<use xlink:href="#q"/>
</g>
</g>
<path d="m243.22 335.15v33.808q0 2.4 2.4 2.4h7.7425q2.4 0 2.4-2.4v-33.808q0-2.4-2.4-2.4h-7.7425q-2.4 0-2.4 2.4z" clip-path="url(#a)" fill="#fff" stroke="#fff"/>
<g clip-path="url(#a)">
<defs>
<path id="h" d="m-0.29688 72.906h61.672v-8.3125h-25.875v-64.594h-9.9062v64.594h-25.891z"/>
<path id="d" d="m56.203 29.594v-4.3906h-41.312q0.59375-9.2812 5.5938-14.141t13.938-4.8594q5.1719 0 10.031 1.2656t9.6562 3.8125v-8.5q-4.8438-2.0469-9.9219-3.125t-10.297-1.0781q-13.094 0-20.734 7.6094-7.6406 7.625-7.6406 20.625 0 13.422 7.25 21.297 7.25 7.8906 19.562 7.8906 11.031 0 17.453-7.1094 6.4219-7.0938 6.4219-19.297zm-8.9844 2.6406q-0.09375 7.3594-4.125 11.75-4.0312 4.4062-10.672 4.4062-7.5156 0-12.031-4.25t-5.2031-11.969z"/>
<path id="i" d="m41.109 46.297q-1.5156 0.875-3.2969 1.2812-1.7812 0.42188-3.9219 0.42188-7.625 0-11.703-4.9531t-4.0781-14.234v-28.812h-9.0312v54.688h9.0312v-8.5q2.8438 4.9844 7.375 7.3906 4.5469 2.4219 11.047 2.4219 0.92188 0 2.0469-0.125 1.125-0.10938 2.4844-0.35938z"/>
<path id="k" d="m52 44.188q3.375 6.0625 8.0625 8.9375t11.031 2.875q8.5469 0 13.188-5.9844 4.6406-5.9688 4.6406-17v-33.016h-9.0312v32.719q0 7.8594-2.7969 11.656-2.7812 3.8125-8.4844 3.8125-6.9844 0-11.047-4.6406-4.0469-4.625-4.0469-12.641v-30.906h-9.0312v32.719q0 7.9062-2.7812 11.688t-8.5938 3.7812q-6.8906 0-10.953-4.6562-4.0469-4.6562-4.0469-12.625v-30.906h-9.0312v54.688h9.0312v-8.5q3.0781 5.0312 7.375 7.4219t10.203 2.3906q5.9688 0 10.141-3.0312 4.1719-3.0156 6.1719-8.7812z"/>
<path id="j" d="m9.4219 54.688h8.9844v-54.688h-8.9844zm0 21.297h8.9844v-11.391h-8.9844z"/>
<path id="e" d="m54.891 33.016v-33.016h-8.9844v32.719q0 7.7656-3.0312 11.609-3.0312 3.8594-9.0781 3.8594-7.2812 0-11.484-4.6406-4.2031-4.625-4.2031-12.641v-30.906h-9.0312v54.688h9.0312v-8.5q3.2344 4.9375 7.5938 7.375 4.375 2.4375 10.094 2.4375 9.4219 0 14.25-5.8281 4.8438-5.8281 4.8438-17.156z"/>
<path id="g" d="m34.281 27.484q-10.891 0-15.094-2.4844t-4.2031-8.5q0-4.7812 3.1562-7.5938 3.1562-2.7969 8.5625-2.7969 7.4844 0 12 5.2969t4.5156 14.078v2zm17.922 3.7188v-31.203h-8.9844v8.2969q-3.0781-4.9688-7.6719-7.3438t-11.234-2.375q-8.3906 0-13.359 4.7188-4.9531 4.7188-4.9531 12.625 0 9.2188 6.1719 13.906 6.1875 4.6875 18.438 4.6875h12.609v0.89062q0 6.2031-4.0781 9.5938t-11.453 3.3906q-4.6875 0-9.1406-1.125-4.4375-1.125-8.5312-3.375v8.3125q4.9219 1.9062 9.5625 2.8438 4.6406 0.95312 9.0312 0.95312 11.875 0 17.734-6.1562 5.8594-6.1406 5.8594-18.641z"/>
<path id="l" d="m9.4219 75.984h8.9844v-75.984h-8.9844z"/>
</defs>
<g transform="translate(247.29 335.15) rotate(90) scale(.08 -.08)">
<use xlink:href="#h"/>
<use x="44.083984" xlink:href="#d"/>
<use x="105.607422" xlink:href="#i"/>
<use x="144.970703" xlink:href="#k"/>
<use x="242.382812" xlink:href="#j"/>
<use x="270.166016" xlink:href="#e"/>
<use x="333.544922" xlink:href="#g"/>
<use x="394.824219" xlink:href="#l"/>
</g>
</g>
<path d="m397.16 298.91 5.2266-1.6221q2.2921-0.71139 1.5808-3.0035l-2.295-7.3946q-0.71139-2.2921-3.0035-1.5808l-5.2266 1.6221q-2.2921 0.71139-1.5808 3.0035l2.295 7.3946q0.71139 2.2921 3.0035 1.5808z" clip-path="url(#a)" fill="#fff" stroke="#fff"/>
<g clip-path="url(#a)">
<g transform="translate(395.95 295.03) rotate(-17.242) scale(.08 -.08)">
<use xlink:href="#o"/>
</g>
</g>
<path d="m426.06 298.95 5.015-2.1905q2.1993-0.96068 1.2387-3.16l-3.0992-7.0952q-0.96068-2.1993-3.16-1.2387l-5.015 2.1905q-2.1993 0.96068-1.2387 3.16l3.0992 7.0952q0.96068 2.1993 3.16 1.2387z" clip-path="url(#a)" fill="#fff" stroke="#fff"/>
<g clip-path="url(#a)">
<g transform="translate(424.44 295.23) rotate(-23.596) scale(.08 -.08)">
<use xlink:href="#o"/>
</g>
</g>
<path d="m458.75 298.53 3.792-2.9815q1.8867-1.4834 0.40329-3.3701l-4.7855-6.0865q-1.4834-1.8867-3.3701-0.40329l-3.792 2.9815q-1.8867 1.4834-0.40329 3.3701l4.7855 6.0865q1.4834 1.8867 3.3701 0.40329z" clip-path="url(#a)" fill="#fff" stroke="#fff"/>
<g clip-path="url(#a)">
<g transform="translate(456.24 295.34) rotate(-38.176) scale(.08 -.08)">
<use xlink:href="#q"/>
</g>
</g>
<path d="m495.73 296.04 0.97893-5.7726q0.40127-2.3662-1.9649-2.7675l-7.6335-1.2945q-2.3662-0.40127-2.7675 1.9649l-0.97893 5.7726q-0.40127 2.3662 1.9649 2.7675l7.6335 1.2945q2.3662 0.40127 2.7675-1.9649z" clip-path="url(#a)" fill="#fff" stroke="#fff"/>
<g clip-path="url(#a)">
<g transform="translate(491.72 295.36) rotate(-80.375) scale(.08 -.08)">
<use xlink:href="#p"/>
</g>
</g>
<path d="m519.37 294.53 4.1759 4.104q1.7117 1.6823 3.394-0.029438l5.4271-5.5221q1.6823-1.7117-0.029438-3.394l-4.1759-4.104q-1.7117-1.6823-3.394 0.029438l-5.4271 5.5221q-1.6823 1.7117 0.029438 3.394z" clip-path="url(#a)" fill="#fff" stroke="#fff"/>
<g clip-path="url(#a)">
<g transform="translate(522.22 291.63) rotate(44.503) scale(.08 -.08)">
<use xlink:href="#p"/>
</g>
</g>
<path d="m559.05 296.68 5.3655 2.3436q2.1993 0.96068 3.16-1.2387l3.0992-7.0952q0.96067-2.1993-1.2387-3.16l-5.3655-2.3436q-2.1993-0.96068-3.16 1.2387l-3.0992 7.0952q-0.96068 2.1993 1.2387 3.16z" clip-path="url(#a)" fill="#fff" stroke="#fff"/>
<g clip-path="url(#a)">
<g transform="translate(560.68 292.96) rotate(23.596) scale(.08 -.08)">
<use xlink:href="#p"/>
</g>
</g>
<path d="m600.7 297.38 5.6465 1.5487q2.3145 0.6348 2.9493-1.6797l2.0479-7.4668q0.6348-2.3145-1.6797-2.9493l-5.6465-1.5487q-2.3145-0.6348-2.9493 1.6797l-2.0479 7.4668q-0.6348 2.3145 1.6797 2.9493z" clip-path="url(#a)" fill="#fff" stroke="#fff"/>
<g clip-path="url(#a)">
<g transform="translate(601.78 293.46) rotate(15.337) scale(.08 -.08)">
<use xlink:href="#p"/>
</g>
</g>
<path d="m294.4 335.15v33.808q0 2.4 2.4 2.4h7.7425q2.4 0 2.4-2.4v-33.808q0-2.4-2.4-2.4h-7.7425q-2.4 0-2.4 2.4z" clip-path="url(#a)" fill="#fff" stroke="#fff"/>
<g clip-path="url(#a)">
<g transform="translate(298.47 335.15) rotate(90) scale(.08 -.08)">
<use xlink:href="#h"/>
<use x="44.083984" xlink:href="#d"/>
<use x="105.607422" xlink:href="#i"/>
<use x="144.970703" xlink:href="#k"/>
<use x="242.382812" xlink:href="#j"/>
<use x="270.166016" xlink:href="#e"/>
<use x="333.544922" xlink:href="#g"/>
<use x="394.824219" xlink:href="#l"/>
</g>
</g>
<path d="m350.7 335.15v33.808q0 2.4 2.4 2.4h7.7425q2.4 0 2.4-2.4v-33.808q0-2.4-2.4-2.4h-7.7425q-2.4 0-2.4 2.4z" clip-path="url(#a)" fill="#fff" stroke="#fff"/>
<g clip-path="url(#a)">
<g transform="translate(354.76 335.15) rotate(90) scale(.08 -.08)">
<use xlink:href="#h"/>
<use x="44.083984" xlink:href="#d"/>
<use x="105.607422" xlink:href="#i"/>
<use x="144.970703" xlink:href="#k"/>
<use x="242.382812" xlink:href="#j"/>
<use x="270.166016" xlink:href="#e"/>
<use x="333.544922" xlink:href="#g"/>
<use x="394.824219" xlink:href="#l"/>
</g>
</g>
<path d="m412.11 335.15v33.808q0 2.4 2.4 2.4h7.7425q2.4 0 2.4-2.4v-33.808q0-2.4-2.4-2.4h-7.7425q-2.4 0-2.4 2.4z" clip-path="url(#a)" fill="#fff" stroke="#fff"/>
<g clip-path="url(#a)">
<g transform="translate(416.18 335.15) rotate(90) scale(.08 -.08)">
<use xlink:href="#h"/>
<use x="44.083984" xlink:href="#d"/>
<use x="105.607422" xlink:href="#i"/>
<use x="144.970703" xlink:href="#k"/>
<use x="242.382812" xlink:href="#j"/>
<use x="270.166016" xlink:href="#e"/>
<use x="333.544922" xlink:href="#g"/>
<use x="394.824219" xlink:href="#l"/>
</g>
</g>
<path d="m28.274 335.15v33.808q0 2.4 2.4 2.4h7.7425q2.4 0 2.4-2.4v-33.808q0-2.4-2.4-2.4h-7.7425q-2.4 0-2.4 2.4z" clip-path="url(#a)" fill="#fff" stroke="#fff"/>
<g clip-path="url(#a)">
<g transform="translate(32.338 335.15) rotate(90) scale(.08 -.08)">
<use xlink:href="#h"/>
<use x="44.083984" xlink:href="#d"/>
<use x="105.607422" xlink:href="#i"/>
<use x="144.970703" xlink:href="#k"/>
<use x="242.382812" xlink:href="#j"/>
<use x="270.166016" xlink:href="#e"/>
<use x="333.544922" xlink:href="#g"/>
<use x="394.824219" xlink:href="#l"/>
</g>
</g>
<path d="m43.628 335.15v33.808q0 2.4 2.4 2.4h7.7425q2.4 0 2.4-2.4v-33.808q0-2.4-2.4-2.4h-7.7425q-2.4 0-2.4 2.4z" clip-path="url(#a)" fill="#fff" stroke="#fff"/>
<g clip-path="url(#a)">
<g transform="translate(47.691 335.15) rotate(90) scale(.08 -.08)">
<use xlink:href="#h"/>
<use x="44.083984" xlink:href="#d"/>
<use x="105.607422" xlink:href="#i"/>
<use x="144.970703" xlink:href="#k"/>
<use x="242.382812" xlink:href="#j"/>
<use x="270.166016" xlink:href="#e"/>
<use x="333.544922" xlink:href="#g"/>
<use x="394.824219" xlink:href="#l"/>
</g>
</g>
<path d="m64.099 335.15v33.808q0 2.4 2.4 2.4h7.7425q2.4 0 2.4-2.4v-33.808q0-2.4-2.4-2.4h-7.7425q-2.4 0-2.4 2.4z" clip-path="url(#a)" fill="#fff" stroke="#fff"/>
<g clip-path="url(#a)">
<g transform="translate(68.163 335.15) rotate(90) scale(.08 -.08)">
<use xlink:href="#h"/>
<use x="44.083984" xlink:href="#d"/>
<use x="105.607422" xlink:href="#i"/>
<use x="144.970703" xlink:href="#k"/>
<use x="242.382812" xlink:href="#j"/>
<use x="270.166016" xlink:href="#e"/>
<use x="333.544922" xlink:href="#g"/>
<use x="394.824219" xlink:href="#l"/>
</g>
</g>
<path d="m109.09 296.1 1.2462-4.899q0.59166-2.3259-1.7343-2.9176l-7.5035-1.9087q-2.3259-0.59166-2.9176 1.7343l-1.2462 4.899q-0.59166 2.3259 1.7343 2.9176l7.5035 1.9087q2.3259 0.59166 2.9176-1.7343z" clip-path="url(#a)" fill="#fff" stroke="#fff"/>
<g clip-path="url(#a)">
<defs>
<path id="am" d="m9.8125 72.906h46.094v-8.3125h-36.234v-21.578h34.719v-8.2969h-34.719v-26.422h37.109v-8.2969h-46.969z"/>
</defs>
<g transform="translate(105.15 295.1) rotate(-75.728) scale(.08 -.08)">
<use xlink:href="#am"/>
</g>
</g>
<path d="m112.22 290.95 1.3771 5.4138q0.59166 2.3259 2.9176 1.7343l7.5035-1.9087q2.3259-0.59166 1.7343-2.9176l-1.3771-5.4138q-0.59166-2.3259-2.9176-1.7343l-7.5035 1.9087q-2.3259 0.59166-1.7343 2.9176z" clip-path="url(#a)" fill="#fff" stroke="#fff"/>
<g clip-path="url(#a)">
<defs>
<path id="u" d="m64.406 67.281v-10.391q-4.9844 4.6406-10.625 6.9219-5.6406 2.2969-11.984 2.2969-12.5 0-19.141-7.6406t-6.6406-22.094q0-14.406 6.6406-22.047t19.141-7.6406q6.3438 0 11.984 2.2969t10.625 6.9375v-10.312q-5.1719-3.5156-10.969-5.2812-5.7812-1.75-12.219-1.75-16.562 0-26.094 10.125-9.5156 10.141-9.5156 27.672 0 17.578 9.5156 27.703 9.5312 10.141 26.094 10.141 6.5312 0 12.312-1.7344 5.7969-1.7344 10.875-5.2031z"/>
</defs>
<g transform="translate(116.16 289.95) rotate(75.728) scale(.08 -.08)">
<use xlink:href="#u"/>
</g>
</g>
<path d="m156.22 335.15v33.808q0 2.4 2.4 2.4h7.7425q2.4 0 2.4-2.4v-33.808q0-2.4-2.4-2.4h-7.7425q-2.4 0-2.4 2.4z" clip-path="url(#a)" fill="#fff" stroke="#fff"/>
<g clip-path="url(#a)">
<g transform="translate(160.28 335.15) rotate(90) scale(.08 -.08)">
<use xlink:href="#h"/>
<use x="44.083984" xlink:href="#d"/>
<use x="105.607422" xlink:href="#i"/>
<use x="144.970703" xlink:href="#k"/>
<use x="242.382812" xlink:href="#j"/>
<use x="270.166016" xlink:href="#e"/>
<use x="333.544922" xlink:href="#g"/>
<use x="394.824219" xlink:href="#l"/>
</g>
</g>
<path d="m89.688 335.15v33.808q0 2.4 2.4 2.4h7.7425q2.4 0 2.4-2.4v-33.808q0-2.4-2.4-2.4h-7.7425q-2.4 0-2.4 2.4z" clip-path="url(#a)" fill="#fff" stroke="#fff"/>
<g clip-path="url(#a)">
<g transform="translate(93.752 335.15) rotate(90) scale(.08 -.08)">
<use xlink:href="#h"/>
<use x="44.083984" xlink:href="#d"/>
<use x="105.607422" xlink:href="#i"/>
<use x="144.970703" xlink:href="#k"/>
<use x="242.382812" xlink:href="#j"/>
<use x="270.166016" xlink:href="#e"/>
<use x="333.544922" xlink:href="#g"/>
<use x="394.824219" xlink:href="#l"/>
</g>
</g>
<path d="m120.4 335.15v33.808q0 2.4 2.4 2.4h7.7425q2.4 0 2.4-2.4v-33.808q0-2.4-2.4-2.4h-7.7425q-2.4 0-2.4 2.4z" clip-path="url(#a)" fill="#fff" stroke="#fff"/>
<g clip-path="url(#a)">
<g transform="translate(124.46 335.15) rotate(90) scale(.08 -.08)">
<use xlink:href="#h"/>
<use x="44.083984" xlink:href="#d"/>
<use x="105.607422" xlink:href="#i"/>
<use x="144.970703" xlink:href="#k"/>
<use x="242.382812" xlink:href="#j"/>
<use x="270.166016" xlink:href="#e"/>
<use x="333.544922" xlink:href="#g"/>
<use x="394.824219" xlink:href="#l"/>
</g>
</g>
<path d="m197.16 335.15v33.808q0 2.4 2.4 2.4h7.7425q2.4 0 2.4-2.4v-33.808q0-2.4-2.4-2.4h-7.7425q-2.4 0-2.4 2.4z" clip-path="url(#a)" fill="#fff" stroke="#fff"/>
<g clip-path="url(#a)">
<g transform="translate(201.23 335.15) rotate(90) scale(.08 -.08)">
<use xlink:href="#h"/>
<use x="44.083984" xlink:href="#d"/>
<use x="105.607422" xlink:href="#i"/>
<use x="144.970703" xlink:href="#k"/>
<use x="242.382812" xlink:href="#j"/>
<use x="270.166016" xlink:href="#e"/>
<use x="333.544922" xlink:href="#g"/>
<use x="394.824219" xlink:href="#l"/>
</g>
</g>
<path d="m478.64 335.15v33.808q0 2.4 2.4 2.4h7.7425q2.4 0 2.4-2.4v-33.808q0-2.4-2.4-2.4h-7.7425q-2.4 0-2.4 2.4z" clip-path="url(#a)" fill="#fff" stroke="#fff"/>
<g clip-path="url(#a)">
<g transform="translate(482.71 335.15) rotate(90) scale(.08 -.08)">
<use xlink:href="#h"/>
<use x="44.083984" xlink:href="#d"/>
<use x="105.607422" xlink:href="#i"/>
<use x="144.970703" xlink:href="#k"/>
<use x="242.382812" xlink:href="#j"/>
<use x="270.166016" xlink:href="#e"/>
<use x="333.544922" xlink:href="#g"/>
<use x="394.824219" xlink:href="#l"/>
</g>
</g>
<path d="m550.29 335.15v33.808q0 2.4 2.4 2.4h7.7425q2.4 0 2.4-2.4v-33.808q0-2.4-2.4-2.4h-7.7425q-2.4 0-2.4 2.4z" clip-path="url(#a)" fill="#fff" stroke="#fff"/>
<g clip-path="url(#a)">
<g transform="translate(554.36 335.15) rotate(90) scale(.08 -.08)">
<use xlink:href="#h"/>
<use x="44.083984" xlink:href="#d"/>
<use x="105.607422" xlink:href="#i"/>
<use x="144.970703" xlink:href="#k"/>
<use x="242.382812" xlink:href="#j"/>
<use x="270.166016" xlink:href="#e"/>
<use x="333.544922" xlink:href="#g"/>
<use x="394.824219" xlink:href="#l"/>
</g>
</g>
<path d="m627.06 335.15v33.808q0 2.4 2.4 2.4h7.7425q2.4 0 2.4-2.4v-33.808q0-2.4-2.4-2.4h-7.7425q-2.4 0-2.4 2.4z" clip-path="url(#a)" fill="#fff" stroke="#fff"/>
<g clip-path="url(#a)">
<g transform="translate(631.13 335.15) rotate(90) scale(.08 -.08)">
<use xlink:href="#h"/>
<use x="44.083984" xlink:href="#d"/>
<use x="105.607422" xlink:href="#i"/>
<use x="144.970703" xlink:href="#k"/>
<use x="242.382812" xlink:href="#j"/>
<use x="270.166016" xlink:href="#e"/>
<use x="333.544922" xlink:href="#g"/>
<use x="394.824219" xlink:href="#l"/>
</g>
</g>
<path d="m708.95 335.15v33.808q0 2.4 2.4 2.4h7.7425q2.4 0 2.4-2.4v-33.808q0-2.4-2.4-2.4h-7.7425q-2.4 0-2.4 2.4z" clip-path="url(#a)" fill="#fff" stroke="#fff"/>
<g clip-path="url(#a)">
<g transform="translate(713.01 335.15) rotate(90) scale(.08 -.08)">
<use xlink:href="#h"/>
<use x="44.083984" xlink:href="#d"/>
<use x="105.607422" xlink:href="#i"/>
<use x="144.970703" xlink:href="#k"/>
<use x="242.382812" xlink:href="#j"/>
<use x="270.166016" xlink:href="#e"/>
<use x="333.544922" xlink:href="#g"/>
<use x="394.824219" xlink:href="#l"/>
</g>
</g>
<defs>
<path id="b" d="m0 8.6603c2.2967 0 4.4997-0.9125 6.1237-2.5365 1.624-1.624 2.5365-3.827 2.5365-6.1237s-0.9125-4.4997-2.5365-6.1237c-1.624-1.624-3.827-2.5365-6.1237-2.5365s-4.4997 0.9125-6.1237 2.5365c-1.624 1.624-2.5365 3.827-2.5365 6.1237s0.9125 4.4997 2.5365 6.1237c1.624 1.624 3.827 2.5365 6.1237 2.5365z"/>
</defs>
<g clip-path="url(#a)" fill="#ffffff" stroke="#ffffff">
<use x="34.545455" y="381.818182" xlink:href="#b"/>
<use x="49.89899" y="381.818182" xlink:href="#b"/>
<use x="70.37037" y="381.818182" xlink:href="#b"/>
<use x="95.959596" y="381.818182" xlink:href="#b"/>
<use x="126.666667" y="381.818182" xlink:href="#b"/>
<use x="162.491582" y="381.818182" xlink:href="#b"/>
<use x="203.434343" y="381.818182" xlink:href="#b"/>
<use x="249.494949" y="381.818182" xlink:href="#b"/>
<use x="300.673401" y="381.818182" xlink:href="#b"/>
<use x="356.969697" y="381.818182" xlink:href="#b"/>
<use x="418.383838" y="381.818182" xlink:href="#b"/>
<use x="484.915825" y="381.818182" xlink:href="#b"/>
<use x="556.565657" y="381.818182" xlink:href="#b"/>
<use x="633.333333" y="381.818182" xlink:href="#b"/>
<use x="715.218855" y="381.818182" xlink:href="#b"/>
<use x="725.454545" y="140.374895" xlink:href="#b"/>
<use x="725.454545" y="140.374895" xlink:href="#b"/>
<use x="258.451178" y="18.181818" xlink:href="#b"/>
<use x="258.451178" y="79.339865" xlink:href="#b"/>
<use x="258.451178" y="140.374895" xlink:href="#b"/>
<use x="85.723906" y="201.25591" xlink:href="#b"/>
<use x="249.494949" y="322.288365" xlink:href="#b"/>
<use x="495.151515" y="261.930424" xlink:href="#b"/>
<use x="300.673401" y="322.288365" xlink:href="#b"/>
<use x="356.969697" y="322.288365" xlink:href="#b"/>
<use x="418.383838" y="322.288365" xlink:href="#b"/>
<use x="34.545455" y="322.288365" xlink:href="#b"/>
<use x="49.89899" y="322.288365" xlink:href="#b"/>
<use x="70.37037" y="322.288365" xlink:href="#b"/>
<use x="111.313131" y="261.930424" xlink:href="#b"/>
<use x="162.491582" y="322.288365" xlink:href="#b"/>
<use x="95.959596" y="322.288365" xlink:href="#b"/>
<use x="126.666667" y="322.288365" xlink:href="#b"/>
<use x="203.434343" y="322.288365" xlink:href="#b"/>
<use x="484.915825" y="322.288365" xlink:href="#b"/>
<use x="556.565657" y="322.288365" xlink:href="#b"/>
<use x="633.333333" y="322.288365" xlink:href="#b"/>
<use x="715.218855" y="322.288365" xlink:href="#b"/>
</g>
<g clip-path="url(#a)">
<defs>
<path id="ar" d="m30.609 48.391q-7.2188 0-11.422-5.6406t-4.2031-15.453 4.1719-15.453q4.1875-5.6406 11.453-5.6406 7.1875 0 11.375 5.6562 4.2031 5.6719 4.2031 15.438 0 9.7188-4.2031 15.406-4.1875 5.6875-11.375 5.6875zm0 7.6094q11.719 0 18.406-7.625 6.7031-7.6094 6.7031-21.078 0-13.422-6.7031-21.078-6.6875-7.6406-18.406-7.6406-11.766 0-18.438 7.6406-6.6562 7.6562-6.6562 21.078 0 13.469 6.6562 21.078 6.6719 7.625 18.438 7.625z"/>
</defs>
<g transform="translate(28.312 384.58) scale(.1 -.1)">
<use xlink:href="#r"/>
<use x="63.476562" xlink:href="#ar"/>
</g>
</g>
<g clip-path="url(#a)">
<defs>
<path id="aj" d="m9.0781 75.984h9.0312v-44.875l26.812 23.578h11.469l-29-25.578 30.234-29.109h-11.719l-27.797 26.703v-26.703h-9.0312z"/>
</defs>
<g transform="translate(37.69 384.58) scale(.1 -.1)">
<use xlink:href="#aj"/>
<use x="56.160156" xlink:href="#g"/>
<use x="117.439453" xlink:href="#e"/>
<use x="180.818359" xlink:href="#e"/>
</g>
</g>
<g clip-path="url(#a)">
<defs>
<path id="w" d="m48.781 52.594v-8.4062q-3.8125 2.1094-7.6406 3.1562t-7.7344 1.0469q-8.75 0-13.594-5.5469-4.8281-5.5312-4.8281-15.547t4.8281-15.562q4.8438-5.5312 13.594-5.5312 3.9062 0 7.7344 1.0469t7.6406 3.1562v-8.3125q-3.7656-1.75-7.7969-2.625-4.0156-0.89062-8.5625-0.89062-12.359 0-19.641 7.7656-7.2656 7.7656-7.2656 20.953 0 13.375 7.3438 21.031 7.3594 7.6719 20.156 7.6719 4.1406 0 8.0938-0.85938 3.9531-0.84375 7.6719-2.5469z"/>
<path id="ak" d="m54.891 33.016v-33.016h-8.9844v32.719q0 7.7656-3.0312 11.609-3.0312 3.8594-9.0781 3.8594-7.2812 0-11.484-4.6406-4.2031-4.625-4.2031-12.641v-30.906h-9.0312v75.984h9.0312v-29.797q3.2344 4.9375 7.5938 7.375 4.375 2.4375 10.094 2.4375 9.4219 0 14.25-5.8281 4.8438-5.8281 4.8438-17.156z"/>
</defs>
<g transform="translate(63.063 384.58) scale(.1 -.1)">
<use xlink:href="#j"/>
<use x="27.783203" xlink:href="#w"/>
<use x="82.763672" xlink:href="#ak"/>
</g>
</g>
<g clip-path="url(#a)">
<defs>
<path id="v" d="m45.406 46.391v29.594h8.9844v-75.984h-8.9844v8.2031q-2.8281-4.875-7.1562-7.25-4.3125-2.375-10.375-2.375-9.9062 0-16.141 7.9062-6.2188 7.9219-6.2188 20.812t6.2188 20.797q6.2344 7.9062 16.141 7.9062 6.0625 0 10.375-2.375 4.3281-2.3594 7.1562-7.2344zm-30.609-19.094q0-9.9062 4.0781-15.547t11.203-5.6406 11.219 5.6406q4.1094 5.6406 4.1094 15.547t-4.1094 15.547q-4.0938 5.6406-11.219 5.6406t-11.203-5.6406-4.0781-15.547z"/>
</defs>
<g transform="translate(78.456 384.58) scale(.1 -.1)">
<use xlink:href="#g"/>
<use x="61.279297" xlink:href="#e"/>
<use x="124.658203" xlink:href="#v"/>
<use x="188.134766" xlink:href="#d"/>
<use x="249.658203" xlink:href="#i"/>
<use x="288.521484" xlink:href="#d"/>
</g>
</g>
<g clip-path="url(#a)">
<defs>
<path id="ai" d="m18.312 70.219v-15.531h18.5v-6.9844h-18.5v-29.688q0-6.6875 1.8281-8.5938t7.4531-1.9062h9.2188v-7.5156h-9.2188q-10.406 0-14.359 3.875-3.9531 3.8906-3.9531 14.141v29.688h-6.5938v6.9844h6.5938v15.531z"/>
</defs>
<g transform="translate(110.24 384.58) scale(.1 -.1)">
<use xlink:href="#r"/>
<use x="63.476562" xlink:href="#ai"/>
<use x="102.685547" xlink:href="#d"/>
<use x="164.208984" xlink:href="#i"/>
<use x="203.572266" xlink:href="#e"/>
<use x="266.951172" xlink:href="#d"/>
</g>
</g>
<g clip-path="url(#a)">
<defs>
<path id="aq" d="m8.5 21.578v33.109h8.9844v-32.766q0-7.7656 3.0156-11.656 3.0312-3.875 9.0938-3.875 7.2656 0 11.484 4.6406 4.2344 4.6406 4.2344 12.656v31h8.9844v-54.688h-8.9844v8.4062q-3.2656-4.9844-7.5938-7.4062-4.3125-2.4219-10.031-2.4219-9.4219 0-14.312 5.8594-4.875 5.8594-4.875 17.141z"/>
<path id="al" d="m37.109 75.984v-7.4844h-8.5938q-4.8281 0-6.7188-1.9531-1.875-1.9531-1.875-7.0312v-4.8281h14.797v-6.9844h-14.797v-47.703h-9.0312v47.703h-8.5938v6.9844h8.5938v3.8125q0 9.125 4.25 13.297 4.25 4.1875 13.469 4.1875z"/>
</defs>
<g transform="translate(145.45 384.58) scale(.1 -.1)">
<use xlink:href="#aj"/>
<use x="56.160156" xlink:href="#g"/>
<use x="117.439453" xlink:href="#aq"/>
<use x="180.818359" xlink:href="#al"/>
<use x="216.023438" xlink:href="#d"/>
<use x="277.546875" xlink:href="#e"/>
</g>
</g>
<g clip-path="url(#a)">
<defs>
<path id="ap" d="m11.719 12.406h10.297v-8.4062l-8-15.625h-6.2969l4 15.625z"/>
</defs>
<g transform="translate(201.85 384.58) scale(.1 -.1)">
<use xlink:href="#ap"/>
</g>
</g>
<g clip-path="url(#a)">
<defs>
<path id="ah" d="m4.2031 54.688h8.9844l11.234-42.672 11.172 42.672h10.594l11.234-42.672 11.188 42.672h8.9844l-14.312-54.688h-10.594l-11.766 44.828-11.812-44.828h-10.609z"/>
</defs>
<g transform="translate(239.16 384.58) scale(.1 -.1)">
<use xlink:href="#ah"/>
<use x="81.787109" xlink:href="#d"/>
<use x="143.310547" xlink:href="#e"/>
</g>
</g>
<g clip-path="url(#a)">
<defs>
<path id="as" d="m9.4219 54.688h8.9844v-55.672q0-10.438-3.9844-15.125-3.9688-4.6875-12.812-4.6875h-3.4219v7.6094h2.4062q5.125 0 6.9688 2.375 1.8594 2.3594 1.8594 9.8281zm0 21.297h8.9844v-11.391h-8.9844z"/>
</defs>
<g transform="translate(281.93 384.58) scale(.1 -.1)">
<use xlink:href="#as"/>
<use x="27.783203" xlink:href="#d"/>
<use x="89.306641" xlink:href="#k"/>
<use x="186.71875" xlink:href="#g"/>
<use x="247.998047" xlink:href="#e"/>
<use x="311.376953" xlink:href="#v"/>
</g>
</g>
<g clip-path="url(#a)">
<g transform="translate(339.42 384.58) scale(.1 -.1)">
<use xlink:href="#ah"/>
<use x="81.787109" xlink:href="#d"/>
<use x="143.310547" xlink:href="#l"/>
<use x="171.09375" xlink:href="#w"/>
<use x="226.074219" xlink:href="#ak"/>
<use x="289.453125" xlink:href="#d"/>
</g>
</g>
<g clip-path="url(#a)">
<g transform="translate(403.85 384.58) scale(.1 -.1)">
<use xlink:href="#al"/>
<use x="35.205078" xlink:href="#j"/>
<use x="62.988281" xlink:href="#e"/>
<use x="126.367188" xlink:href="#v"/>
<use x="189.84375" xlink:href="#d"/>
<use x="251.367188" xlink:href="#ai"/>
</g>
</g>
<g clip-path="url(#a)">
<defs>
<path id="f" d="m10.688 12.406h10.312v-12.406h-10.312z"/>
</defs>
<g transform="translate(483.33 384.58) scale(.1 -.1)">
<use xlink:href="#f"/>
</g>
</g>
<g clip-path="url(#a)">
<defs>
<path id="ag" d="m17.922 72.906v-27.109h-8.2969v27.109zm18.453 0v-27.109h-8.2969v27.109z"/>
</defs>
<g transform="translate(554.27 384.58) scale(.1 -.1)">
<use xlink:href="#ag"/>
</g>
</g>
<g clip-path="url(#a)">
<defs>
<path id="ao" d="m4.8906 31.391h26.312v-8h-26.312z"/>
</defs>
<g transform="translate(631.53 384.58) scale(.1 -.1)">
<use xlink:href="#ao"/>
</g>
</g>
<g clip-path="url(#a)">
<g transform="translate(712.92 384.58) scale(.1 -.1)">
<use xlink:href="#ag"/>
</g>
</g>
<g clip-path="url(#a)">
<defs>
<path id="n" d="m9.8125 72.906h9.8594v-72.906h-9.8594z"/>
<path id="x" d="m9.8125 72.906h14.703l18.594-49.609 18.703 49.609h14.703v-72.906h-9.625v64.016l-18.797-50h-9.9062l-18.797 50v-64.016h-9.5781z"/>
</defs>
<g transform="translate(704.37 143.13) scale(.1 -.1)">
<use xlink:href="#n"/>
<use x="29.492188" xlink:href="#x"/>
<use x="115.771484" xlink:href="#q"/>
<use x="176.074219" xlink:href="#s"/>
<use x="231.787109" xlink:href="#n"/>
<use x="261.279297" xlink:href="#u"/>
<use x="331.103516" xlink:href="#n"/>
<use x="360.595703" xlink:href="#h"/>
</g>
</g>
<g clip-path="url(#a)">
<g transform="translate(704.37 143.13) scale(.1 -.1)">
<use xlink:href="#n"/>
<use x="29.492188" xlink:href="#x"/>
<use x="115.771484" xlink:href="#q"/>
<use x="176.074219" xlink:href="#s"/>
<use x="231.787109" xlink:href="#n"/>
<use x="261.279297" xlink:href="#u"/>
<use x="331.103516" xlink:href="#n"/>
<use x="360.595703" xlink:href="#h"/>
</g>
</g>
<g clip-path="url(#a)">
<defs>
<path id="c" d="m12.406 8.2969h16.109v55.625l-17.531-3.5156v8.9844l17.438 3.5156h9.8594v-64.609h16.109v-8.2969h-41.984z"/>
</defs>
<g transform="translate(250.5 20.941) scale(.1 -.1)">
<use xlink:href="#c"/>
<use x="63.623047" xlink:href="#f"/>
<use x="95.410156" xlink:href="#c"/>
</g>
</g>
<g clip-path="url(#a)">
<defs>
<path id="m" d="m19.188 8.2969h34.422v-8.2969h-46.281v8.2969q5.6094 5.8125 15.297 15.594 9.7031 9.7969 12.188 12.641 4.7344 5.3125 6.6094 9 1.8906 3.6875 1.8906 7.25 0 5.8125-4.0781 9.4688-4.0781 3.6719-10.625 3.6719-4.6406 0-9.7969-1.6094-5.1406-1.6094-11-4.8906v9.9688q5.9531 2.3906 11.125 3.6094 5.1875 1.2188 9.4844 1.2188 11.328 0 18.062-5.6719 6.7344-5.6562 6.7344-15.125 0-4.5-1.6875-8.5312-1.6719-4.0156-6.125-9.4844-1.2188-1.4219-7.7656-8.1875-6.5312-6.7656-18.453-18.922z"/>
</defs>
<g transform="translate(250.5 82.099) scale(.1 -.1)">
<use xlink:href="#c"/>
<use x="63.623047" xlink:href="#f"/>
<use x="95.410156" xlink:href="#m"/>
</g>
</g>
<g clip-path="url(#a)">
<defs>
<path id="z" d="m10.984 1.5156v8.9844q3.7188-1.7656 7.5156-2.6875 3.8125-0.92188 7.4844-0.92188 9.7656 0 14.906 6.5625 5.1562 6.5625 5.8906 19.953-2.8281-4.2031-7.1875-6.4531-4.3438-2.25-9.6094-2.25-10.938 0-17.312 6.6094-6.375 6.625-6.375 18.109 0 11.219 6.6406 18 6.6406 6.7969 17.672 6.7969 12.656 0 19.312-9.7031 6.6719-9.6875 6.6719-28.141 0-17.234-8.1875-27.516-8.1719-10.281-21.984-10.281-3.7188 0-7.5312 0.73438-3.7969 0.73438-7.9062 2.2031zm19.625 30.906q6.6406 0 10.516 4.5312 3.8906 4.5469 3.8906 12.469 0 7.8594-3.8906 12.422-3.875 4.5625-10.516 4.5625t-10.516-4.5625-3.875-12.422q0-7.9219 3.875-12.469 3.875-4.5312 10.516-4.5312z"/>
</defs>
<g transform="translate(250.5 143.13) scale(.1 -.1)">
<use xlink:href="#c"/>
<use x="63.623047" xlink:href="#f"/>
<use x="95.410156" xlink:href="#z"/>
</g>
</g>
<g clip-path="url(#a)">
<defs>
<path id="af" d="m31.781 66.406q-7.6094 0-11.453-7.5-3.8281-7.4844-3.8281-22.531 0-14.984 3.8281-22.484 3.8438-7.5 11.453-7.5 7.6719 0 11.5 7.5 3.8438 7.5 3.8438 22.484 0 15.047-3.8438 22.531-3.8281 7.5-11.5 7.5zm0 7.8125q12.266 0 18.734-9.7031 6.4688-9.6875 6.4688-28.141 0-18.406-6.4688-28.109-6.4688-9.6875-18.734-9.6875-12.25 0-18.719 9.6875-6.4688 9.7031-6.4688 28.109 0 18.453 6.4688 28.141 6.4688 9.7031 18.719 9.7031z"/>
</defs>
<g transform="translate(74.591 204.02) scale(.1 -.1)">
<use xlink:href="#c"/>
<use x="63.623047" xlink:href="#f"/>
<use x="95.410156" xlink:href="#c"/>
<use x="159.033203" xlink:href="#af"/>
</g>
</g>
<g clip-path="url(#a)">
<g transform="translate(238.36 325.05) scale(.1 -.1)">
<use xlink:href="#c"/>
<use x="63.623047" xlink:href="#f"/>
<use x="95.410156" xlink:href="#c"/>
<use x="159.033203" xlink:href="#c"/>
</g>
</g>
<g clip-path="url(#a)">
<g transform="translate(484.02 264.69) scale(.1 -.1)">
<use xlink:href="#c"/>
<use x="63.623047" xlink:href="#f"/>
<use x="95.410156" xlink:href="#c"/>
<use x="159.033203" xlink:href="#m"/>
</g>
</g>
<g clip-path="url(#a)">
<defs>
<path id="ae" d="m37.797 64.312-24.906-38.922h24.906zm-2.5938 8.5938h12.406v-47.516h10.406v-8.2031h-10.406v-17.188h-9.8125v17.188h-32.906v9.5156z"/>
</defs>
<g transform="translate(289.54 325.05) scale(.1 -.1)">
<use xlink:href="#c"/>
<use x="63.623047" xlink:href="#f"/>
<use x="95.410156" xlink:href="#c"/>
<use x="159.033203" xlink:href="#ae"/>
</g>
</g>
<g clip-path="url(#a)">
<defs>
<path id="ad" d="m10.797 72.906h38.719v-8.3125h-29.688v-17.859q2.1406 0.73438 4.2812 1.0938 2.1562 0.35938 4.3125 0.35938 12.203 0 19.328-6.6875 7.1406-6.6875 7.1406-18.109 0-11.766-7.3281-18.297-7.3281-6.5156-20.656-6.5156-4.5938 0-9.3594 0.78125-4.75 0.78125-9.8281 2.3438v9.9219q4.3906-2.3906 9.0781-3.5625t9.9062-1.1719q8.4531 0 13.375 4.4375 4.9375 4.4375 4.9375 12.062 0 7.6094-4.9375 12.047-4.9219 4.4531-13.375 4.4531-3.9531 0-7.8906-0.875-3.9219-0.875-8.0156-2.7344z"/>
</defs>
<g transform="translate(345.84 325.05) scale(.1 -.1)">
<use xlink:href="#c"/>
<use x="63.623047" xlink:href="#f"/>
<use x="95.410156" xlink:href="#c"/>
<use x="159.033203" xlink:href="#ad"/>
</g>
</g>
<g clip-path="url(#a)">
<defs>
<path id="ac" d="m33.016 40.375q-6.6406 0-10.531-4.5469-3.875-4.5312-3.875-12.438 0-7.8594 3.875-12.438 3.8906-4.5625 10.531-4.5625t10.516 4.5625q3.875 4.5781 3.875 12.438 0 7.9062-3.875 12.438-3.875 4.5469-10.516 4.5469zm19.578 30.922v-8.9844q-3.7188 1.75-7.5 2.6719-3.7812 0.9375-7.5 0.9375-9.7656 0-14.922-6.5938-5.1406-6.5938-5.875-19.922 2.875 4.25 7.2188 6.5156 4.3594 2.2656 9.5781 2.2656 10.984 0 17.359-6.6719 6.375-6.6562 6.375-18.125 0-11.234-6.6406-18.031-6.6406-6.7812-17.672-6.7812-12.656 0-19.344 9.6875-6.6875 9.7031-6.6875 28.109 0 17.281 8.2031 27.562t22.016 10.281q3.7188 0 7.5-0.73438t7.8906-2.1875z"/>
</defs>
<g transform="translate(407.25 325.05) scale(.1 -.1)">
<use xlink:href="#c"/>
<use x="63.623047" xlink:href="#f"/>
<use x="95.410156" xlink:href="#c"/>
<use x="159.033203" xlink:href="#ac"/>
</g>
</g>
<g clip-path="url(#a)">
<defs>
<path id="ab" d="m8.2031 72.906h46.875v-4.2031l-26.469-68.703h-10.297l24.906 64.594h-35.016z"/>
</defs>
<g transform="translate(23.413 325.05) scale(.1 -.1)">
<use xlink:href="#c"/>
<use x="63.623047" xlink:href="#f"/>
<use x="95.410156" xlink:href="#c"/>
<use x="159.033203" xlink:href="#ab"/>
</g>
</g>
<g clip-path="url(#a)">
<defs>
<path id="aa" d="m31.781 34.625q-7.0312 0-11.062-3.7656-4.0156-3.7656-4.0156-10.344 0-6.5938 4.0156-10.359 4.0312-3.7656 11.062-3.7656t11.078 3.7812q4.0625 3.7969 4.0625 10.344 0 6.5781-4.0312 10.344-4.0156 3.7656-11.109 3.7656zm-9.8594 4.1875q-6.3438 1.5625-9.8906 5.9062-3.5312 4.3594-3.5312 10.609 0 8.7344 6.2188 13.812 6.2344 5.0781 17.062 5.0781 10.891 0 17.094-5.0781t6.2031-13.812q0-6.25-3.5469-10.609-3.5312-4.3438-9.8281-5.9062 7.125-1.6562 11.094-6.5 3.9844-4.8281 3.9844-11.797 0-10.609-6.4688-16.281-6.4688-5.6562-18.531-5.6562-12.047 0-18.531 5.6562-6.4688 5.6719-6.4688 16.281 0 6.9688 4 11.797 4.0156 4.8438 11.141 6.5zm-3.6094 15.578q0-5.6562 3.5312-8.8281 3.5469-3.1719 9.9375-3.1719 6.3594 0 9.9375 3.1719 3.5938 3.1719 3.5938 8.8281 0 5.6719-3.5938 8.8438-3.5781 3.1719-9.9375 3.1719-6.3906 0-9.9375-3.1719-3.5312-3.1719-3.5312-8.8438z"/>
</defs>
<g transform="translate(38.766 325.05) scale(.1 -.1)">
<use xlink:href="#c"/>
<use x="63.623047" xlink:href="#f"/>
<use x="95.410156" xlink:href="#c"/>
<use x="159.033203" xlink:href="#aa"/>
</g>
</g>
<g clip-path="url(#a)">
<g transform="translate(59.238 325.05) scale(.1 -.1)">
<use xlink:href="#c"/>
<use x="63.623047" xlink:href="#f"/>
<use x="95.410156" xlink:href="#c"/>
<use x="159.033203" xlink:href="#z"/>
</g>
</g>
<g clip-path="url(#a)">
<g transform="translate(100.18 264.69) scale(.1 -.1)">
<use xlink:href="#c"/>
<use x="63.623047" xlink:href="#f"/>
<use x="95.410156" xlink:href="#m"/>
<use x="159.033203" xlink:href="#af"/>
</g>
</g>
<g clip-path="url(#a)">
<g transform="translate(151.36 325.05) scale(.1 -.1)">
<use xlink:href="#c"/>
<use x="63.623047" xlink:href="#f"/>
<use x="95.410156" xlink:href="#m"/>
<use x="159.033203" xlink:href="#c"/>
</g>
</g>
<g clip-path="url(#a)">
<g transform="translate(84.827 325.05) scale(.1 -.1)">
<use xlink:href="#c"/>
<use x="63.623047" xlink:href="#f"/>
<use x="95.410156" xlink:href="#m"/>
<use x="159.033203" xlink:href="#m"/>
</g>
</g>
<g clip-path="url(#a)">
<defs>
<path id="an" d="m40.578 39.312q7.0781-1.5156 11.047-6.3125 3.9844-4.7812 3.9844-11.812 0-10.781-7.4219-16.703-7.4219-5.9062-21.094-5.9062-4.5781 0-9.4375 0.90625t-10.031 2.7188v9.5156q4.0938-2.3906 8.9688-3.6094 4.8906-1.2188 10.219-1.2188 9.2656 0 14.125 3.6562t4.8594 10.641q0 6.4531-4.5156 10.078-4.5156 3.6406-12.562 3.6406h-8.5v8.1094h8.8906q7.2656 0 11.125 2.9062t3.8594 8.375q0 5.6094-3.9844 8.6094-3.9688 3.0156-11.391 3.0156-4.0625 0-8.7031-0.89062-4.6406-0.875-10.203-2.7188v8.7812q5.625 1.5625 10.531 2.3438t9.25 0.78125q11.234 0 17.766-5.1094 6.5469-5.0938 6.5469-13.781 0-6.0625-3.4688-10.234t-9.8594-5.7812z"/>
</defs>
<g transform="translate(115.53 325.05) scale(.1 -.1)">
<use xlink:href="#c"/>
<use x="63.623047" xlink:href="#f"/>
<use x="95.410156" xlink:href="#m"/>
<use x="159.033203" xlink:href="#an"/>
</g>
</g>
<g clip-path="url(#a)">
<g transform="translate(192.3 325.05) scale(.1 -.1)">
<use xlink:href="#c"/>
<use x="63.623047" xlink:href="#f"/>
<use x="95.410156" xlink:href="#m"/>
<use x="159.033203" xlink:href="#ae"/>
</g>
</g>
<g clip-path="url(#a)">
<g transform="translate(473.78 325.05) scale(.1 -.1)">
<use xlink:href="#c"/>
<use x="63.623047" xlink:href="#f"/>
<use x="95.410156" xlink:href="#m"/>
<use x="159.033203" xlink:href="#ad"/>
</g>
</g>
<g clip-path="url(#a)">
<g transform="translate(545.43 325.05) scale(.1 -.1)">
<use xlink:href="#c"/>
<use x="63.623047" xlink:href="#f"/>
<use x="95.410156" xlink:href="#m"/>
<use x="159.033203" xlink:href="#ac"/>
</g>
</g>
<g clip-path="url(#a)">
<g transform="translate(622.2 325.05) scale(.1 -.1)">
<use xlink:href="#c"/>
<use x="63.623047" xlink:href="#f"/>
<use x="95.410156" xlink:href="#m"/>
<use x="159.033203" xlink:href="#ab"/>
</g>
</g>
<g clip-path="url(#a)">
<g transform="translate(704.09 325.05) scale(.1 -.1)">
<use xlink:href="#c"/>
<use x="63.623047" xlink:href="#f"/>
<use x="95.410156" xlink:href="#m"/>
<use x="159.033203" xlink:href="#aa"/>
</g>
</g>
<defs>
<clipPath id="a">
<rect width="760" height="400"/>
</clipPath>
</defs>
</svg>
