<?xml version="1.0" encoding="UTF-8"?>
<!DOCTYPE svg  PUBLIC '-//W3C//DTD SVG 1.1//EN'  'http://www.w3.org/Graphics/SVG/1.1/DTD/svg11.dtd'>
<svg width="1520pt" height="800pt" version="1.1" viewBox="0 0 1520 800" xmlns="http://www.w3.org/2000/svg" xmlns:xlink="http://www.w3.org/1999/xlink">
<defs>
<style type="text/css">*{stroke-linecap:butt;stroke-linejoin:round;}</style>
</defs>
<path d="m0 800h1520v-800h-1520z" fill="#fff"/>
<g fill="none" stroke="#000">
<path d="m492.64 36.364v91.758" clip-path="url(#a)"/>
<path d="m492.64 128.12 958.27 91.627" clip-path="url(#a)"/>
<path d="m492.64 128.12 958.27 91.627" clip-path="url(#a)"/>
<path d="m492.64 128.12v91.627" clip-path="url(#a)"/>
<path d="m492.64 219.75-72.236 91.474" clip-path="url(#a)"/>
<path d="m492.64 219.75-4.8146 454.85" clip-path="url(#a)"/>
<path d="m492.64 219.75 71.953 364.57" clip-path="url(#a)"/>
<path d="m492.64 219.75-96.936 454.85" clip-path="url(#a)"/>
<path d="m492.64 219.75-52.271 454.85" clip-path="url(#a)"/>
<path d="m492.64 219.75 154.3 454.85" clip-path="url(#a)"/>
<path d="m420.4 311.22-342.01 273.1" clip-path="url(#a)"/>
<path d="m420.4 311.22-280.59 273.1" clip-path="url(#a)"/>
<path d="m420.4 311.22-234.07 363.38" clip-path="url(#a)"/>
<path d="m420.4 311.22-206.15 363.38" clip-path="url(#a)"/>
<path d="m420.4 311.22-122.4 273.1" clip-path="url(#a)"/>
<path d="m420.4 311.22 347.51 273.1" clip-path="url(#a)"/>
<path d="m420.4 311.22 477.78 363.38" clip-path="url(#a)"/>
<path d="m420.4 311.22 677.75 91.29" clip-path="url(#a)"/>
<path d="m420.4 311.22-317.81 363.38" clip-path="url(#a)"/>
<path d="m487.82 674.6v89.038" clip-path="url(#a)"/>
<path d="m564.59 584.32-26.52 90.277" clip-path="url(#a)"/>
<path d="m564.59 584.32 26.52 90.277" clip-path="url(#a)"/>
<path d="m538.07 674.6v89.038" clip-path="url(#a)"/>
<path d="m591.11 674.6v89.038" clip-path="url(#a)"/>
<path d="m78.396 584.32-9.3052 90.277" clip-path="url(#a)"/>
<path d="m78.396 584.32-0.93052 90.277" clip-path="url(#a)"/>
<path d="m78.396 584.32 10.236 90.277" clip-path="url(#a)"/>
<path d="m139.81 584.32-20.471 90.277" clip-path="url(#a)"/>
<path d="m139.81 584.32-0.93052 90.277" clip-path="url(#a)"/>
<path d="m139.81 584.32 21.402 90.277" clip-path="url(#a)"/>
<path d="m186.34 674.6v89.038" clip-path="url(#a)"/>
<path d="m214.25 674.6v89.038" clip-path="url(#a)"/>
<path d="m298 584.32-53.039 90.277" clip-path="url(#a)"/>
<path d="m298 584.32-19.541 90.277" clip-path="url(#a)"/>
<path d="m298 584.32 16.749 90.277" clip-path="url(#a)"/>
<path d="m298 584.32 55.831 90.277" clip-path="url(#a)"/>
<path d="m767.91 584.32-62.345 90.277" clip-path="url(#a)"/>
<path d="m767.91 584.32-0.93052 90.277" clip-path="url(#a)"/>
<path d="m767.91 584.32 63.275 90.277" clip-path="url(#a)"/>
<path d="m898.18 674.6v89.038" clip-path="url(#a)"/>
<path d="m1098.1 402.51-130.18 272.09" clip-path="url(#a)"/>
<path d="m1098.1 402.51-57.599 272.09" clip-path="url(#a)"/>
<path d="m1098.1 402.51 187.78 91.059" clip-path="url(#a)"/>
<path d="m967.97 674.6v89.038" clip-path="url(#a)"/>
<path d="m1040.6 674.6v89.038" clip-path="url(#a)"/>
<path d="m1285.9 493.57-170.01 181.03" clip-path="url(#a)"/>
<path d="m1285.9 493.57-51.365 90.75" clip-path="url(#a)"/>
<path d="m1285.9 493.57-10.887 181.03" clip-path="url(#a)"/>
<path d="m1285.9 493.57 72.86 181.03" clip-path="url(#a)"/>
<path d="m1285.9 493.57 159.4 181.03" clip-path="url(#a)"/>
<path d="m1115.9 674.6v89.038" clip-path="url(#a)"/>
<path d="m1234.6 584.32 40.478 90.277" clip-path="url(#a)" stroke-dasharray="3.7,1.6"/>
<path d="m1234.6 584.32-40.478 90.277" clip-path="url(#a)"/>
<path d="m1275 674.6v89.038" clip-path="url(#a)"/>
<path d="m1194.1 674.6v89.038" clip-path="url(#a)"/>
<path d="m705.56 674.6v89.038" clip-path="url(#a)"/>
<path d="m766.98 674.6v89.038" clip-path="url(#a)"/>
<path d="m831.18 674.6v89.038" clip-path="url(#a)"/>
<path d="m244.96 674.6v89.038" clip-path="url(#a)"/>
<path d="m278.46 674.6v89.038" clip-path="url(#a)"/>
<path d="m314.75 674.6v89.038" clip-path="url(#a)"/>
<path d="m353.83 674.6v89.038" clip-path="url(#a)"/>
<path d="m119.34 674.6v89.038" clip-path="url(#a)"/>
<path d="m138.88 674.6v89.038" clip-path="url(#a)"/>
<path d="m161.21 674.6v89.038" clip-path="url(#a)"/>
<path d="m69.091 674.6v89.038" clip-path="url(#a)"/>
<path d="m77.466 674.6v89.038" clip-path="url(#a)"/>
<path d="m88.632 674.6v89.038" clip-path="url(#a)"/>
<path d="m102.59 674.6v89.038" clip-path="url(#a)"/>
<path d="m395.7 674.6v89.038" clip-path="url(#a)"/>
<path d="m440.37 674.6v89.038" clip-path="url(#a)"/>
<path d="m646.94 674.6v89.038" clip-path="url(#a)"/>
<path d="m1358.8 674.6v89.038" clip-path="url(#a)"/>
<path d="m1445.3 674.6v89.038" clip-path="url(#a)"/>
</g>
<path d="m486.37 79.235v6.0162q0 2.4 2.4 2.4h7.7425q2.4 0 2.4-2.4v-6.0162q0-2.4-2.4-2.4h-7.7425q-2.4 0-2.4 2.4z" clip-path="url(#a)" fill="#fff" stroke="#fff"/>
<g clip-path="url(#a)">
<defs>
<path id="w" d="m9.8125 72.906h9.8594v-29.891h35.844v29.891h9.8594v-72.906h-9.8594v34.719h-35.844v-34.719h-9.8594z"/>
</defs>
<g transform="translate(490.43 79.235) rotate(90) scale(.08 -.08)">
<use xlink:href="#w"/>
</g>
</g>
<path d="m968.78 179.95 4.8018 0.45914q2.3891 0.22844 2.6175-2.1607l0.73695-7.7073q0.22844-2.3891-2.1607-2.6175l-4.8018-0.45914q-2.3891-0.22844-2.6175 2.1607l-0.73695 7.7073q-0.22844 2.3891 2.1607 2.6175z" clip-path="url(#a)" fill="#fff" stroke="#fff"/>
<g clip-path="url(#a)">
<defs>
<path id="t" d="m19.672 64.797v-27.391h12.406q6.8906 0 10.641 3.5625 3.7656 3.5625 3.7656 10.156 0 6.5469-3.7656 10.109-3.75 3.5625-10.641 3.5625zm-9.8594 8.1094h22.266q12.266 0 18.531-5.5469 6.2812-5.5469 6.2812-16.234 0-10.797-6.2812-16.312-6.2656-5.5156-18.531-5.5156h-12.406v-29.297h-9.8594z"/>
</defs>
<g transform="translate(969.16 175.9) rotate(5.4618) scale(.08 -.08)">
<use xlink:href="#t"/>
</g>
</g>
<path d="m968.45 179.92 5.4477 0.52089q2.3891 0.22844 2.6175-2.1607l0.73695-7.7073q0.22844-2.3891-2.1607-2.6175l-5.4477-0.52089q-2.3891-0.22844-2.6175 2.1607l-0.73695 7.7073q-0.22844 2.3891 2.1607 2.6175z" clip-path="url(#a)" fill="#fff" stroke="#fff"/>
<g clip-path="url(#a)">
<defs>
<path id="m" d="m34.188 63.188-13.391-36.281h26.812zm-5.5781 9.7188h11.188l27.781-72.906h-10.25l-6.6406 18.703h-32.859l-6.6406-18.703h-10.406z"/>
</defs>
<g transform="translate(968.84 175.87) rotate(5.4618) scale(.08 -.08)">
<use xlink:href="#m"/>
</g>
</g>
<path d="m486.37 171.2v5.4725q0 2.4 2.4 2.4h7.7425q2.4 0 2.4-2.4v-5.4725q0-2.4-2.4-2.4h-7.7425q-2.4 0-2.4 2.4z" clip-path="url(#a)" fill="#fff" stroke="#fff"/>
<g clip-path="url(#a)">
<g transform="translate(490.43 171.2) rotate(90) scale(.08 -.08)">
<use xlink:href="#m"/>
</g>
</g>
<path d="m459.75 271.52 3.3916-4.2948q1.4874-1.8835-0.39612-3.3709l-6.0763-4.7984q-1.8835-1.4874-3.3709 0.39612l-3.3916 4.2948q-1.4874 1.8835 0.39612 3.3709l6.0763 4.7984q1.8835 1.4874 3.3709-0.39612z" clip-path="url(#a)" fill="#fff" stroke="#fff"/>
<g clip-path="url(#a)">
<g transform="translate(456.56 269) rotate(-51.702) scale(.08 -.08)">
<use xlink:href="#m"/>
</g>
</g>
<path d="m496.48 449.65 0.051056-4.8235q0.025403-2.3999-2.3745-2.4253l-7.7421-0.08195q-2.3999-0.025402-2.4253 2.3745l-0.051057 4.8235q-0.025402 2.3999 2.3745 2.4253l7.7421 0.08195q2.3999 0.025402 2.4253-2.3745z" clip-path="url(#a)" fill="#fff" stroke="#fff"/>
<g clip-path="url(#a)">
<g transform="translate(492.41 449.61) rotate(-89.394) scale(.08 -.08)">
<use xlink:href="#t"/>
</g>
</g>
<path d="m521.93 400.56 1.0596 5.3689q0.46471 2.3546 2.8193 1.8899l7.596-1.4992q2.3546-0.46471 1.8899-2.8193l-1.0596-5.3689q-0.46471-2.3546-2.8193-1.8899l-7.596 1.4992q-2.3546 0.46471-1.8899 2.8193z" clip-path="url(#a)" fill="#fff" stroke="#fff"/>
<g clip-path="url(#a)">
<g transform="translate(525.92 399.78) rotate(78.835) scale(.08 -.08)">
<use xlink:href="#m"/>
</g>
</g>
<path d="m449.69 451.34 1.2204-5.7264q0.50024-2.3473-1.847-2.8475l-7.5724-1.6138q-2.3473-0.50024-2.8475 1.847l-1.2204 5.7264q-0.50024 2.3473 1.847 2.8475l7.5724 1.6138q2.3473 0.50024 2.8475-1.847z" clip-path="url(#a)" fill="#fff" stroke="#fff"/>
<g clip-path="url(#a)">
<defs>
<path id="v" d="m8.6875 72.906h9.9219v-44.297q0-11.719 4.2344-16.875 4.25-5.1406 13.781-5.1406 9.4688 0 13.719 5.1406 4.25 5.1562 4.25 16.875v44.297h9.9062v-45.516q0-14.25-7.0625-21.531-7.0469-7.2812-20.812-7.2812-13.828 0-20.891 7.2812-7.0469 7.2812-7.0469 21.531z"/>
</defs>
<g transform="translate(445.72 450.5) rotate(-77.969) scale(.08 -.08)">
<use xlink:href="#v"/>
</g>
</g>
<path d="m472.4 450.8 0.66845-5.8167q0.274-2.3843-2.1103-2.6583l-7.6919-0.88394q-2.3843-0.274-2.6583 2.1103l-0.66845 5.8167q-0.274 2.3843 2.1103 2.6583l7.6919 0.88394q2.3843 0.274 2.6583-2.1103z" clip-path="url(#a)" fill="#fff" stroke="#fff"/>
<g clip-path="url(#a)">
<g transform="translate(468.36 450.33) rotate(-83.444) scale(.08 -.08)">
<use xlink:href="#v"/>
</g>
</g>
<path d="m562.91 446.42 1.881 5.5446q0.77102 2.2728 3.0438 1.5018l7.3321-2.4873q2.2728-0.77102 1.5018-3.0438l-1.881-5.5446q-0.77102-2.2728-3.0438-1.5018l-7.3321 2.4873q-2.2728 0.77102-1.5018 3.0438z" clip-path="url(#a)" fill="#fff" stroke="#fff"/>
<g clip-path="url(#a)">
<g transform="translate(566.76 445.11) rotate(71.261) scale(.08 -.08)">
<use xlink:href="#v"/>
</g>
</g>
<path d="m250.96 454.55 4.7013-3.7541q1.8754-1.4976 0.37786-3.373l-4.8312-6.0502q-1.4976-1.8754-3.373-0.37786l-4.7013 3.7541q-1.8754 1.4976-0.37786 3.373l4.8312 6.0502q1.4976 1.8754 3.373 0.37786z" clip-path="url(#a)" fill="#fff" stroke="#fff"/>
<g clip-path="url(#a)">
<g transform="translate(248.43 451.37) rotate(-38.608) scale(.08 -.08)">
<use xlink:href="#w"/>
</g>
</g>
<path d="m282.32 454.36 4.3113-4.1962q1.7199-1.6739 0.04593-3.3938l-5.4002-5.5484q-1.6739-1.7199-3.3938-0.045929l-4.3113 4.1962q-1.7199 1.6739-0.045929 3.3938l5.4002 5.5484q1.6739 1.7199 3.3938 0.045929z" clip-path="url(#a)" fill="#fff" stroke="#fff"/>
<g clip-path="url(#a)">
<g transform="translate(279.49 451.45) rotate(-44.225) scale(.08 -.08)">
<use xlink:href="#w"/>
</g>
</g>
<path d="m307.43 498.18 2.4138-3.7474q1.2997-2.0176-0.71799-3.3173l-6.509-4.1927q-2.0176-1.2997-3.3173 0.71799l-2.4138 3.7474q-1.2997 2.0176 0.71799 3.3173l6.509 4.1927q2.0176 1.2997 3.3173-0.71799z" clip-path="url(#a)" fill="#fff" stroke="#fff"/>
<g clip-path="url(#a)">
<defs>
<path id="x" d="m9.8125 72.906h9.8594v-64.609h35.5v-8.2969h-45.359z"/>
</defs>
<g transform="translate(304.02 495.98) rotate(-57.213) scale(.08 -.08)">
<use xlink:href="#x"/>
</g>
</g>
<path d="m321.68 497.94 2.1995-3.877q1.1843-2.0875-0.9032-3.2717l-6.7343-3.8205q-2.0875-1.1843-3.2717 0.9032l-2.1995 3.877q-1.1843 2.0875 0.9032 3.2717l6.7343 3.8205q2.0875 1.1843 3.2717-0.9032z" clip-path="url(#a)" fill="#fff" stroke="#fff"/>
<g clip-path="url(#a)">
<g transform="translate(318.15 495.94) rotate(-60.433) scale(.08 -.08)">
<use xlink:href="#x"/>
</g>
</g>
<path d="m363.69 453.08 2.4607-5.49q0.98161-2.1901-1.2085-3.1717l-7.0653-3.1667q-2.1901-0.9816-3.1717 1.2085l-2.4607 5.49q-0.9816 2.1901 1.2085 3.1717l7.0653 3.1667q2.1901 0.9816 3.1717-1.2085z" clip-path="url(#a)" fill="#fff" stroke="#fff"/>
<g clip-path="url(#a)">
<g transform="translate(359.98 451.42) rotate(-65.858) scale(.08 -.08)">
<use xlink:href="#w"/>
</g>
</g>
<path d="m587.92 450.84 4.7303 3.7175q1.887 1.483 3.37-0.40404l4.7841-6.0876q1.483-1.887-0.40404-3.37l-4.7303-3.7175q-1.887-1.483-3.37 0.40404l-4.7841 6.0876q-1.483 1.887 0.40404 3.37z" clip-path="url(#a)" fill="#fff" stroke="#fff"/>
<g clip-path="url(#a)">
<g transform="translate(590.43 447.65) rotate(38.163) scale(.08 -.08)">
<use xlink:href="#w"/>
</g>
</g>
<path d="m653.72 496.55 3.548 2.6984q1.9103 1.4529 3.3631-0.45741l4.687-6.1626q1.4529-1.9103-0.45741-3.3632l-3.548-2.6984q-1.9103-1.4529-3.3631 0.45741l-4.687 6.1626q-1.4529 1.9103 0.45741 3.3631z" clip-path="url(#a)" fill="#fff" stroke="#fff"/>
<g clip-path="url(#a)">
<g transform="translate(656.18 493.32) rotate(37.255) scale(.08 -.08)">
<use xlink:href="#x"/>
</g>
</g>
<path d="m755.46 362.68 5.9624 0.80311q2.3785 0.32038 2.6989-2.0581l1.0335-7.6732q0.32038-2.3785-2.0581-2.6989l-5.9624-0.80311q-2.3785-0.32038-2.6989 2.0581l-1.0335 7.6732q-0.32038 2.3785 2.0581 2.6989z" clip-path="url(#a)" fill="#fff" stroke="#fff"/>
<g clip-path="url(#a)">
<g transform="translate(756 358.65) rotate(7.6713) scale(.08 -.08)">
<use xlink:href="#w"/>
</g>
</g>
<path d="m264.29 499.24 3.8546-4.4072q1.58-1.8065-0.22652-3.3865l-5.8279-5.0972q-1.8065-1.58-3.3865 0.22652l-3.8546 4.4072q-1.58 1.8065 0.22652 3.3865l5.8279 5.0972q1.8065 1.58 3.3865-0.22652z" clip-path="url(#a)" fill="#fff" stroke="#fff"/>
<g clip-path="url(#a)">
<g transform="translate(261.23 496.57) rotate(-48.827) scale(.08 -.08)">
<use xlink:href="#v"/>
</g>
</g>
<path d="m481.55 702.21v33.808q0 2.4 2.4 2.4h7.7425q2.4 0 2.4-2.4v-33.808q0-2.4-2.4-2.4h-7.7425q-2.4 0-2.4 2.4z" clip-path="url(#a)" fill="#fff" stroke="#fff"/>
<g clip-path="url(#a)">
<defs>
<path id="k" d="m-0.29688 72.906h61.672v-8.3125h-25.875v-64.594h-9.9062v64.594h-25.891z"/>
<path id="d" d="m56.203 29.594v-4.3906h-41.312q0.59375-9.2812 5.5938-14.141t13.938-4.8594q5.1719 0 10.031 1.2656t9.6562 3.8125v-8.5q-4.8438-2.0469-9.9219-3.125t-10.297-1.0781q-13.094 0-20.734 7.6094-7.6406 7.625-7.6406 20.625 0 13.422 7.25 21.297 7.25 7.8906 19.562 7.8906 11.031 0 17.453-7.1094 6.4219-7.0938 6.4219-19.297zm-8.9844 2.6406q-0.09375 7.3594-4.125 11.75-4.0312 4.4062-10.672 4.4062-7.5156 0-12.031-4.25t-5.2031-11.969z"/>
<path id="i" d="m41.109 46.297q-1.5156 0.875-3.2969 1.2812-1.7812 0.42188-3.9219 0.42188-7.625 0-11.703-4.9531t-4.0781-14.234v-28.812h-9.0312v54.688h9.0312v-8.5q2.8438 4.9844 7.375 7.3906 4.5469 2.4219 11.047 2.4219 0.92188 0 2.0469-0.125 1.125-0.10938 2.4844-0.35938z"/>
<path id="l" d="m52 44.188q3.375 6.0625 8.0625 8.9375t11.031 2.875q8.5469 0 13.188-5.9844 4.6406-5.9688 4.6406-17v-33.016h-9.0312v32.719q0 7.8594-2.7969 11.656-2.7812 3.8125-8.4844 3.8125-6.9844 0-11.047-4.6406-4.0469-4.625-4.0469-12.641v-30.906h-9.0312v32.719q0 7.9062-2.7812 11.688t-8.5938 3.7812q-6.8906 0-10.953-4.6562-4.0469-4.6562-4.0469-12.625v-30.906h-9.0312v54.688h9.0312v-8.5q3.0781 5.0312 7.375 7.4219t10.203 2.3906q5.9688 0 10.141-3.0312 4.1719-3.0156 6.1719-8.7812z"/>
<path id="g" d="m9.4219 54.688h8.9844v-54.688h-8.9844zm0 21.297h8.9844v-11.391h-8.9844z"/>
<path id="f" d="m54.891 33.016v-33.016h-8.9844v32.719q0 7.7656-3.0312 11.609-3.0312 3.8594-9.0781 3.8594-7.2812 0-11.484-4.6406-4.2031-4.625-4.2031-12.641v-30.906h-9.0312v54.688h9.0312v-8.5q3.2344 4.9375 7.5938 7.375 4.375 2.4375 10.094 2.4375 9.4219 0 14.25-5.8281 4.8438-5.8281 4.8438-17.156z"/>
<path id="h" d="m34.281 27.484q-10.891 0-15.094-2.4844t-4.2031-8.5q0-4.7812 3.1562-7.5938 3.1562-2.7969 8.5625-2.7969 7.4844 0 12 5.2969t4.5156 14.078v2zm17.922 3.7188v-31.203h-8.9844v8.2969q-3.0781-4.9688-7.6719-7.3438t-11.234-2.375q-8.3906 0-13.359 4.7188-4.9531 4.7188-4.9531 12.625 0 9.2188 6.1719 13.906 6.1875 4.6875 18.438 4.6875h12.609v0.89062q0 6.2031-4.0781 9.5938t-11.453 3.3906q-4.6875 0-9.1406-1.125-4.4375-1.125-8.5312-3.375v8.3125q4.9219 1.9062 9.5625 2.8438 4.6406 0.95312 9.0312 0.95312 11.875 0 17.734-6.1562 5.8594-6.1406 5.8594-18.641z"/>
<path id="j" d="m9.4219 75.984h8.9844v-75.984h-8.9844z"/>
</defs>
<g transform="translate(485.62 702.21) rotate(90) scale(.08 -.08)">
<use xlink:href="#k"/>
<use x="44.083984" xlink:href="#d"/>
<use x="105.607422" xlink:href="#i"/>
<use x="144.970703" xlink:href="#l"/>
<use x="242.382812" xlink:href="#g"/>
<use x="270.166016" xlink:href="#f"/>
<use x="333.544922" xlink:href="#h"/>
<use x="394.824219" xlink:href="#j"/>
</g>
</g>
<path d="m556.7 633.43 1.2969-4.4147q0.67644-2.3027-1.6263-2.9791l-7.4286-2.1822q-2.3027-0.67644-2.9791 1.6263l-1.2969 4.4147q-0.67644 2.3027 1.6263 2.9791l7.4286 2.1822q2.3027 0.67644 2.9791-1.6263z" clip-path="url(#a)" fill="#fff" stroke="#fff"/>
<g clip-path="url(#a)">
<defs>
<path id="aj" d="m9.8125 72.906h41.891v-8.3125h-32.031v-21.484h28.906v-8.2969h-28.906v-34.812h-9.8594z"/>
</defs>
<g transform="translate(552.8 632.29) rotate(-73.629) scale(.08 -.08)">
<use xlink:href="#aj"/>
</g>
</g>
<path d="m571.05 628.55 1.5745 5.3598q0.67644 2.3027 2.9791 1.6263l7.4286-2.1822q2.3027-0.67644 1.6263-2.9791l-1.5745-5.3598q-0.67644-2.3027-2.9791-1.6263l-7.4286 2.1822q-2.3027 0.67644-1.6263 2.9791z" clip-path="url(#a)" fill="#fff" stroke="#fff"/>
<g clip-path="url(#a)">
<defs>
<path id="af" d="m64.406 67.281v-10.391q-4.9844 4.6406-10.625 6.9219-5.6406 2.2969-11.984 2.2969-12.5 0-19.141-7.6406t-6.6406-22.094q0-14.406 6.6406-22.047t19.141-7.6406q6.3438 0 11.984 2.2969t10.625 6.9375v-10.312q-5.1719-3.5156-10.969-5.2812-5.7812-1.75-12.219-1.75-16.562 0-26.094 10.125-9.5156 10.141-9.5156 27.672 0 17.578 9.5156 27.703 9.5312 10.141 26.094 10.141 6.5312 0 12.312-1.7344 5.7969-1.7344 10.875-5.2031z"/>
</defs>
<g transform="translate(574.95 627.4) rotate(73.629) scale(.08 -.08)">
<use xlink:href="#af"/>
</g>
</g>
<path d="m531.8 702.21v33.808q0 2.4 2.4 2.4h7.7425q2.4 0 2.4-2.4v-33.808q0-2.4-2.4-2.4h-7.7425q-2.4 0-2.4 2.4z" clip-path="url(#a)" fill="#fff" stroke="#fff"/>
<g clip-path="url(#a)">
<g transform="translate(535.86 702.21) rotate(90) scale(.08 -.08)">
<use xlink:href="#k"/>
<use x="44.083984" xlink:href="#d"/>
<use x="105.607422" xlink:href="#i"/>
<use x="144.970703" xlink:href="#l"/>
<use x="242.382812" xlink:href="#g"/>
<use x="270.166016" xlink:href="#f"/>
<use x="333.544922" xlink:href="#h"/>
<use x="394.824219" xlink:href="#j"/>
</g>
</g>
<path d="m584.84 702.21v33.808q0 2.4 2.4 2.4h7.7425q2.4 0 2.4-2.4v-33.808q0-2.4-2.4-2.4h-7.7425q-2.4 0-2.4 2.4z" clip-path="url(#a)" fill="#fff" stroke="#fff"/>
<g clip-path="url(#a)">
<g transform="translate(588.9 702.21) rotate(90) scale(.08 -.08)">
<use xlink:href="#k"/>
<use x="44.083984" xlink:href="#d"/>
<use x="105.607422" xlink:href="#i"/>
<use x="144.970703" xlink:href="#l"/>
<use x="242.382812" xlink:href="#g"/>
<use x="270.166016" xlink:href="#f"/>
<use x="333.544922" xlink:href="#h"/>
<use x="394.824219" xlink:href="#j"/>
</g>
</g>
<path d="m79.701 632.82 0.5611-5.4437q0.24607-2.3874-2.1413-2.6334l-7.7017-0.79384q-2.3874-0.24607-2.6334 2.1413l-0.5611 5.4437q-0.24607 2.3874 2.1413 2.6334l7.7017 0.79384q2.3874 0.24607 2.6334-2.1413z" clip-path="url(#a)" fill="#fff" stroke="#fff"/>
<g clip-path="url(#a)">
<g transform="translate(75.659 632.41) rotate(-84.115) scale(.08 -.08)">
<use xlink:href="#m"/>
</g>
</g>
<path d="m84.177 631.94 0.049718-4.8235q0.024736-2.3999-2.3751-2.4246l-7.7421-0.079801q-2.3999-0.024737-2.4246 2.3751l-0.049717 4.8235q-0.024737 2.3999 2.3751 2.4246l7.7421 0.0798q2.3999 0.024737 2.4246-2.3751z" clip-path="url(#a)" fill="#fff" stroke="#fff"/>
<g clip-path="url(#a)">
<g transform="translate(80.113 631.89) rotate(-89.409) scale(.08 -.08)">
<use xlink:href="#t"/>
</g>
</g>
<path d="m76.974 627.45 0.61653 5.4377q0.27038 2.3847 2.6551 2.1143l7.6932-0.87226q2.3847-0.27038 2.1143-2.6551l-0.61653-5.4377q-0.27038-2.3847-2.6551-2.1143l-7.6932 0.87226q-2.3847 0.27038-2.1143 2.6551z" clip-path="url(#a)" fill="#fff" stroke="#fff"/>
<g clip-path="url(#a)">
<g transform="translate(81.012 626.99) rotate(83.531) scale(.08 -.08)">
<use xlink:href="#m"/>
</g>
</g>
<path d="m135.09 633.52 1.2102-5.337q0.53075-2.3406-1.8098-2.8713l-7.5508-1.7122q-2.3406-0.53075-2.8713 1.8098l-1.2102 5.337q-0.53076 2.3406 1.8098 2.8713l7.5508 1.7122q2.3406 0.53075 2.8713-1.8098z" clip-path="url(#a)" fill="#fff" stroke="#fff"/>
<g clip-path="url(#a)">
<g transform="translate(131.12 632.62) rotate(-77.224) scale(.08 -.08)">
<use xlink:href="#m"/>
</g>
</g>
<path d="m145.59 631.94 0.049717-4.8235q0.024737-2.3999-2.3751-2.4246l-7.7421-0.079801q-2.3999-0.024737-2.4246 2.3751l-0.049718 4.8235q-0.024736 2.3999 2.3751 2.4246l7.7421 0.0798q2.3999 0.024737 2.4246-2.3751z" clip-path="url(#a)" fill="#fff" stroke="#fff"/>
<g clip-path="url(#a)">
<g transform="translate(141.53 631.89) rotate(-89.409) scale(.08 -.08)">
<use xlink:href="#t"/>
</g>
</g>
<path d="m143.78 628.24 1.2624 5.3249q0.55362 2.3353 2.8889 1.7817l7.5337-1.786q2.3353-0.55362 1.7817-2.8889l-1.2624-5.3249q-0.55362-2.3353-2.8889-1.7816l-7.5337 1.786q-2.3353 0.55362-1.7817 2.8889z" clip-path="url(#a)" fill="#fff" stroke="#fff"/>
<g clip-path="url(#a)">
<g transform="translate(147.73 627.31) rotate(76.663) scale(.08 -.08)">
<use xlink:href="#m"/>
</g>
</g>
<path d="m180.06 702.21v33.808q0 2.4 2.4 2.4h7.7425q2.4 0 2.4-2.4v-33.808q0-2.4-2.4-2.4h-7.7425q-2.4 0-2.4 2.4z" clip-path="url(#a)" fill="#fff" stroke="#fff"/>
<g clip-path="url(#a)">
<g transform="translate(184.13 702.21) rotate(90) scale(.08 -.08)">
<use xlink:href="#k"/>
<use x="44.083984" xlink:href="#d"/>
<use x="105.607422" xlink:href="#i"/>
<use x="144.970703" xlink:href="#l"/>
<use x="242.382812" xlink:href="#g"/>
<use x="270.166016" xlink:href="#f"/>
<use x="333.544922" xlink:href="#h"/>
<use x="394.824219" xlink:href="#j"/>
</g>
</g>
<path d="m207.98 702.21v33.808q0 2.4 2.4 2.4h7.7425q2.4 0 2.4-2.4v-33.808q0-2.4-2.4-2.4h-7.7425q-2.4 0-2.4 2.4z" clip-path="url(#a)" fill="#fff" stroke="#fff"/>
<g clip-path="url(#a)">
<g transform="translate(212.04 702.21) rotate(90) scale(.08 -.08)">
<use xlink:href="#k"/>
<use x="44.083984" xlink:href="#d"/>
<use x="105.607422" xlink:href="#i"/>
<use x="144.970703" xlink:href="#l"/>
<use x="242.382812" xlink:href="#g"/>
<use x="270.166016" xlink:href="#f"/>
<use x="333.544922" xlink:href="#h"/>
<use x="394.824219" xlink:href="#j"/>
</g>
</g>
<path d="m275.66 634.72 2.4435-4.1591q1.2157-2.0693-0.85354-3.285l-6.6756-3.9221q-2.0693-1.2158-3.285 0.85354l-2.4435 4.1591q-1.2158 2.0693 0.85354 3.285l6.6756 3.9221q2.0693 1.2157 3.285-0.85354z" clip-path="url(#a)" fill="#fff" stroke="#fff"/>
<g clip-path="url(#a)">
<g transform="translate(272.16 632.66) rotate(-59.565) scale(.08 -.08)">
<use xlink:href="#t"/>
</g>
</g>
<path d="m293.78 633.46 1.1577-5.3486q0.50773-2.3457-1.8379-2.8534l-7.5673-1.638q-2.3457-0.50773-2.8534 1.8379l-1.1577 5.3486q-0.50773 2.3457 1.8379 2.8534l7.5673 1.638q2.3457 0.50773 2.8534-1.8379z" clip-path="url(#a)" fill="#fff" stroke="#fff"/>
<g clip-path="url(#a)">
<g transform="translate(289.81 632.6) rotate(-77.786) scale(.08 -.08)">
<use xlink:href="#m"/>
</g>
</g>
<path d="m299.71 627.91 0.99829 5.3807q0.43781 2.3597 2.7975 1.9219l7.6126-1.4124q2.3597-0.43781 1.9219-2.7975l-0.99829-5.3807q-0.43781-2.3597-2.7975-1.9219l-7.6126 1.4124q-2.3597 0.43781-1.9219 2.7975z" clip-path="url(#a)" fill="#fff" stroke="#fff"/>
<g clip-path="url(#a)">
<g transform="translate(303.7 627.17) rotate(79.489) scale(.08 -.08)">
<use xlink:href="#m"/>
</g>
</g>
<path d="m318.96 630.14 3.2401 5.2391q1.2624 2.0412 3.3035 0.77883l6.585-4.0724q2.0412-1.2624 0.77883-3.3035l-3.2401-5.2391q-1.2624-2.0412-3.3035-0.77883l-6.585 4.0724q-2.0412 1.2624-0.77883 3.3035z" clip-path="url(#a)" fill="#fff" stroke="#fff"/>
<g clip-path="url(#a)">
<defs>
<path id="ao" d="m19.672 64.797v-56.688h11.922q15.094 0 22.094 6.8281 7 6.8438 7 21.594 0 14.641-7 21.453t-22.094 6.8125zm-9.8594 8.1094h20.266q21.188 0 31.094-8.8125 9.9219-8.8125 9.9219-27.562 0-18.859-9.9688-27.703-9.9531-8.8281-31.047-8.8281h-20.266z"/>
</defs>
<g transform="translate(322.42 628) rotate(58.266) scale(.08 -.08)">
<use xlink:href="#ao"/>
</g>
</g>
<path d="m740.34 635.27 3.1098-4.5031q1.3638-1.9748-0.61103-3.3387l-6.3709-4.3997q-1.9748-1.3638-3.3387 0.61103l-3.1098 4.5031q-1.3638 1.9748 0.61103 3.3387l6.3709 4.3997q1.9748 1.3638 3.3387-0.61103z" clip-path="url(#a)" fill="#fff" stroke="#fff"/>
<g clip-path="url(#a)">
<g transform="translate(737 632.97) rotate(-55.371) scale(.08 -.08)">
<use xlink:href="#m"/>
</g>
</g>
<path d="m773.69 631.82 0.047424-4.601q0.024737-2.3999-2.3751-2.4246l-7.7421-0.079801q-2.3999-0.024736-2.4246 2.3751l-0.047425 4.601q-0.024736 2.3999 2.3751 2.4246l7.7421 0.0798q2.3999 0.024737 2.4246-2.3751z" clip-path="url(#a)" fill="#fff" stroke="#fff"/>
<g clip-path="url(#a)">
<g transform="translate(769.63 631.78) rotate(-89.409) scale(.08 -.08)">
<use xlink:href="#aj"/>
</g>
</g>
<path d="m792.95 630.98 2.915 4.1589q1.3775 1.9653 3.3428 0.58782l6.3402-4.4439q1.9653-1.3775 0.58782-3.3428l-2.915-4.1589q-1.3775-1.9653-3.3428-0.58782l-6.3402 4.4439q-1.9653 1.3775-0.58782 3.3428z" clip-path="url(#a)" fill="#fff" stroke="#fff"/>
<g clip-path="url(#a)">
<defs>
<path id="ah" d="m53.516 70.516v-9.625q-5.6094 2.6875-10.594 4-4.9844 1.3281-9.625 1.3281-8.0469 0-12.422-3.125t-4.375-8.8906q0-4.8438 2.9062-7.3125 2.9062-2.4531 11.016-3.9688l5.9531-1.2188q11.031-2.1094 16.281-7.4062t5.25-14.172q0-10.609-7.1094-16.078-7.0938-5.4688-20.812-5.4688-5.1719 0-11.016 1.1719-5.8281 1.1719-12.078 3.4688v10.156q6-3.3594 11.766-5.0781 5.7656-1.7031 11.328-1.7031 8.4375 0 13.031 3.3125 4.5938 3.3281 4.5938 9.4844 0 5.3594-3.2969 8.3906t-10.812 4.5469l-6.0156 1.1719q-11.031 2.1875-15.969 6.875-4.9219 4.6875-4.9219 13.047 0 9.6719 6.8125 15.234t18.766 5.5625q5.1406 0 10.453-0.9375 5.3281-0.92188 10.891-2.7656z"/>
</defs>
<g transform="translate(796.28 628.65) rotate(54.973) scale(.08 -.08)">
<use xlink:href="#ah"/>
</g>
</g>
<path d="m891.91 702.21v33.808q0 2.4 2.4 2.4h7.7425q2.4 0 2.4-2.4v-33.808q0-2.4-2.4-2.4h-7.7425q-2.4 0-2.4 2.4z" clip-path="url(#a)" fill="#fff" stroke="#fff"/>
<g clip-path="url(#a)">
<g transform="translate(895.97 702.21) rotate(90) scale(.08 -.08)">
<use xlink:href="#k"/>
<use x="44.083984" xlink:href="#d"/>
<use x="105.607422" xlink:href="#i"/>
<use x="144.970703" xlink:href="#l"/>
<use x="242.382812" xlink:href="#g"/>
<use x="270.166016" xlink:href="#f"/>
<use x="333.544922" xlink:href="#h"/>
<use x="394.824219" xlink:href="#j"/>
</g>
</g>
<path d="m1037.5 543.73 2.3619-4.9366q1.0358-2.165-1.1291-3.2008l-6.9843-3.3416q-2.165-1.0358-3.2008 1.1291l-2.3619 4.9366q-1.0358 2.165 1.1291 3.2008l6.9843 3.3416q2.165 1.0358 3.2008-1.1291z" clip-path="url(#a)" fill="#fff" stroke="#fff"/>
<g clip-path="url(#a)">
<g transform="translate(1033.9 541.98) rotate(-64.431) scale(.08 -.08)">
<use xlink:href="#m"/>
</g>
</g>
<path d="m1075 542.34 1.0518-4.9686q0.49705-2.348-1.8509-2.845l-7.5746-1.6035q-2.348-0.49705-2.845 1.8509l-1.0518 4.9686q-0.49705 2.348 1.8509 2.845l7.5746 1.6035q2.348 0.49705 2.845-1.8509z" clip-path="url(#a)" fill="#fff" stroke="#fff"/>
<g clip-path="url(#a)">
<g transform="translate(1071 541.5) rotate(-78.047) scale(.08 -.08)">
<use xlink:href="#ah"/>
</g>
</g>
<path d="m1186.8 452.49 4.9241 2.3878q2.1595 1.0472 3.2067-1.1123l3.3783-6.9666q1.0472-2.1595-1.1123-3.2067l-4.9241-2.3878q-2.1595-1.0472-3.2067 1.1123l-3.3783 6.9666q-1.0472 2.1595 1.1123 3.2067z" clip-path="url(#a)" fill="#fff" stroke="#fff"/>
<g clip-path="url(#a)">
<g transform="translate(1188.6 448.83) rotate(25.87) scale(.08 -.08)">
<use xlink:href="#m"/>
</g>
</g>
<path d="m961.7 702.21v33.808q0 2.4 2.4 2.4h7.7425q2.4 0 2.4-2.4v-33.808q0-2.4-2.4-2.4h-7.7425q-2.4 0-2.4 2.4z" clip-path="url(#a)" fill="#fff" stroke="#fff"/>
<g clip-path="url(#a)">
<g transform="translate(965.76 702.21) rotate(90) scale(.08 -.08)">
<use xlink:href="#k"/>
<use x="44.083984" xlink:href="#d"/>
<use x="105.607422" xlink:href="#i"/>
<use x="144.970703" xlink:href="#l"/>
<use x="242.382812" xlink:href="#g"/>
<use x="270.166016" xlink:href="#f"/>
<use x="333.544922" xlink:href="#h"/>
<use x="394.824219" xlink:href="#j"/>
</g>
</g>
<path d="m1034.3 702.21v33.808q0 2.4 2.4 2.4h7.7425q2.4 0 2.4-2.4v-33.808q0-2.4-2.4-2.4h-7.7425q-2.4 0-2.4 2.4z" clip-path="url(#a)" fill="#fff" stroke="#fff"/>
<g clip-path="url(#a)">
<g transform="translate(1038.3 702.21) rotate(90) scale(.08 -.08)">
<use xlink:href="#k"/>
<use x="44.083984" xlink:href="#d"/>
<use x="105.607422" xlink:href="#i"/>
<use x="144.970703" xlink:href="#l"/>
<use x="242.382812" xlink:href="#g"/>
<use x="270.166016" xlink:href="#f"/>
<use x="333.544922" xlink:href="#h"/>
<use x="394.824219" xlink:href="#j"/>
</g>
</g>
<path d="m1203.9 590.05 3.1499-3.3541q1.643-1.7495-0.10652-3.3924l-5.6439-5.3003q-1.7495-1.643-3.3924 0.10652l-3.1499 3.3541q-1.643 1.7495 0.10652 3.3924l5.6439 5.3003q1.7495 1.643 3.3924-0.10652z" clip-path="url(#a)" fill="#fff" stroke="#fff"/>
<g clip-path="url(#a)">
<g transform="translate(1201 587.27) rotate(-46.798) scale(.08 -.08)">
<use xlink:href="#aj"/>
</g>
</g>
<path d="m1264.5 544.23 2.49-4.3992q1.1822-2.0887-0.90648-3.2708l-6.7381-3.8137q-2.0887-1.1822-3.2708 0.90648l-2.49 4.3992q-1.1822 2.0887 0.90648 3.2708l6.7381 3.8137q2.0887 1.1822 3.2708-0.90648z" clip-path="url(#a)" fill="#fff" stroke="#fff"/>
<g clip-path="url(#a)">
<defs>
<path id="at" d="m9.8125 72.906h46.094v-8.3125h-36.234v-21.578h34.719v-8.2969h-34.719v-26.422h37.109v-8.2969h-46.969z"/>
</defs>
<g transform="translate(1260.9 542.23) rotate(-60.49) scale(.08 -.08)">
<use xlink:href="#at"/>
</g>
</g>
<path d="m1286.6 587.25 0.33535-5.5762q0.14408-2.3957-2.2516-2.5397l-7.7285-0.4648q-2.3957-0.14408-2.5397 2.2516l-0.33535 5.5762q-0.14408 2.3957 2.2516 2.5397l7.7285 0.4648q2.3957 0.14408 2.5397-2.2516z" clip-path="url(#a)" fill="#fff" stroke="#fff"/>
<g clip-path="url(#a)">
<g transform="translate(1282.5 587.01) rotate(-86.558) scale(.08 -.08)">
<use xlink:href="#af"/>
</g>
</g>
<path d="m1315.4 583.71 2.1861 5.4316q0.89609 2.2264 3.1225 1.3303l7.1826-2.8908q2.2264-0.89609 1.3303-3.1225l-2.1861-5.4316q-0.89609-2.2264-3.1225-1.3303l-7.1826 2.8908q-2.2264 0.89609-1.3303 3.1225z" clip-path="url(#a)" fill="#fff" stroke="#fff"/>
<g clip-path="url(#a)">
<g transform="translate(1319.2 582.19) rotate(68.076) scale(.08 -.08)">
<use xlink:href="#v"/>
</g>
</g>
<path d="m1359 586.03 3.8693 4.3943q1.586 1.8012 3.3873 0.21522l5.8109-5.1166q1.8012-1.586 0.21522-3.3873l-3.8693-4.3943q-1.586-1.8012-3.3873-0.21522l-5.8109 5.1166q-1.8012 1.586-0.21522 3.3873z" clip-path="url(#a)" fill="#fff" stroke="#fff"/>
<g clip-path="url(#a)">
<g transform="translate(1362 583.35) rotate(48.636) scale(.08 -.08)">
<use xlink:href="#v"/>
</g>
</g>
<path d="m1109.7 702.21v33.808q0 2.4 2.4 2.4h7.7425q2.4 0 2.4-2.4v-33.808q0-2.4-2.4-2.4h-7.7425q-2.4 0-2.4 2.4z" clip-path="url(#a)" fill="#fff" stroke="#fff"/>
<g clip-path="url(#a)">
<g transform="translate(1113.7 702.21) rotate(90) scale(.08 -.08)">
<use xlink:href="#k"/>
<use x="44.083984" xlink:href="#d"/>
<use x="105.607422" xlink:href="#i"/>
<use x="144.970703" xlink:href="#l"/>
<use x="242.382812" xlink:href="#g"/>
<use x="270.166016" xlink:href="#f"/>
<use x="333.544922" xlink:href="#h"/>
<use x="394.824219" xlink:href="#j"/>
</g>
</g>
<path d="m1248 629.53 2.239 4.9935q0.98191 2.1899 3.1719 1.208l7.0649-3.1677q2.1899-0.98191 1.208-3.1719l-2.239-4.9935q-0.98191-2.1899-3.1719-1.208l-7.0649 3.1677q-2.1899 0.98191-1.208 3.1719z" clip-path="url(#a)" fill="#fff" stroke="#fff"/>
<g clip-path="url(#a)">
<g transform="translate(1251.7 627.87) rotate(65.85) scale(.08 -.08)">
<use xlink:href="#m"/>
</g>
</g>
<path d="m1219 634.34 2.0779-4.6342q0.98191-2.1899-1.208-3.1719l-7.0649-3.1677q-2.1899-0.98191-3.1719 1.208l-2.0779 4.6342q-0.98191 2.1899 1.208 3.1719l7.0649 3.1677q2.1899 0.98191 3.1719-1.208z" clip-path="url(#a)" fill="#fff" stroke="#fff"/>
<g clip-path="url(#a)">
<g transform="translate(1215.3 632.68) rotate(-65.85) scale(.08 -.08)">
<use xlink:href="#ah"/>
</g>
</g>
<path d="m1268.8 702.21v33.808q0 2.4 2.4 2.4h7.7425q2.4 0 2.4-2.4v-33.808q0-2.4-2.4-2.4h-7.7425q-2.4 0-2.4 2.4z" clip-path="url(#a)" fill="#fff" stroke="#fff"/>
<g clip-path="url(#a)">
<g transform="translate(1272.8 702.21) rotate(90) scale(.08 -.08)">
<use xlink:href="#k"/>
<use x="44.083984" xlink:href="#d"/>
<use x="105.607422" xlink:href="#i"/>
<use x="144.970703" xlink:href="#l"/>
<use x="242.382812" xlink:href="#g"/>
<use x="270.166016" xlink:href="#f"/>
<use x="333.544922" xlink:href="#h"/>
<use x="394.824219" xlink:href="#j"/>
</g>
</g>
<path d="m1187.8 702.21v33.808q0 2.4 2.4 2.4h7.7425q2.4 0 2.4-2.4v-33.808q0-2.4-2.4-2.4h-7.7425q-2.4 0-2.4 2.4z" clip-path="url(#a)" fill="#fff" stroke="#fff"/>
<g clip-path="url(#a)">
<g transform="translate(1191.9 702.21) rotate(90) scale(.08 -.08)">
<use xlink:href="#k"/>
<use x="44.083984" xlink:href="#d"/>
<use x="105.607422" xlink:href="#i"/>
<use x="144.970703" xlink:href="#l"/>
<use x="242.382812" xlink:href="#g"/>
<use x="270.166016" xlink:href="#f"/>
<use x="333.544922" xlink:href="#h"/>
<use x="394.824219" xlink:href="#j"/>
</g>
</g>
<path d="m699.29 702.21v33.808q0 2.4 2.4 2.4h7.7425q2.4 0 2.4-2.4v-33.808q0-2.4-2.4-2.4h-7.7425q-2.4 0-2.4 2.4z" clip-path="url(#a)" fill="#fff" stroke="#fff"/>
<g clip-path="url(#a)">
<g transform="translate(703.36 702.21) rotate(90) scale(.08 -.08)">
<use xlink:href="#k"/>
<use x="44.083984" xlink:href="#d"/>
<use x="105.607422" xlink:href="#i"/>
<use x="144.970703" xlink:href="#l"/>
<use x="242.382812" xlink:href="#g"/>
<use x="270.166016" xlink:href="#f"/>
<use x="333.544922" xlink:href="#h"/>
<use x="394.824219" xlink:href="#j"/>
</g>
</g>
<path d="m760.71 702.21v33.808q0 2.4 2.4 2.4h7.7425q2.4 0 2.4-2.4v-33.808q0-2.4-2.4-2.4h-7.7425q-2.4 0-2.4 2.4z" clip-path="url(#a)" fill="#fff" stroke="#fff"/>
<g clip-path="url(#a)">
<g transform="translate(764.77 702.21) rotate(90) scale(.08 -.08)">
<use xlink:href="#k"/>
<use x="44.083984" xlink:href="#d"/>
<use x="105.607422" xlink:href="#i"/>
<use x="144.970703" xlink:href="#l"/>
<use x="242.382812" xlink:href="#g"/>
<use x="270.166016" xlink:href="#f"/>
<use x="333.544922" xlink:href="#h"/>
<use x="394.824219" xlink:href="#j"/>
</g>
</g>
<path d="m824.91 702.21v33.808q0 2.4 2.4 2.4h7.7425q2.4 0 2.4-2.4v-33.808q0-2.4-2.4-2.4h-7.7425q-2.4 0-2.4 2.4z" clip-path="url(#a)" fill="#fff" stroke="#fff"/>
<g clip-path="url(#a)">
<g transform="translate(828.98 702.21) rotate(90) scale(.08 -.08)">
<use xlink:href="#k"/>
<use x="44.083984" xlink:href="#d"/>
<use x="105.607422" xlink:href="#i"/>
<use x="144.970703" xlink:href="#l"/>
<use x="242.382812" xlink:href="#g"/>
<use x="270.166016" xlink:href="#f"/>
<use x="333.544922" xlink:href="#h"/>
<use x="394.824219" xlink:href="#j"/>
</g>
</g>
<path d="m238.69 702.21v33.808q0 2.4 2.4 2.4h7.7425q2.4 0 2.4-2.4v-33.808q0-2.4-2.4-2.4h-7.7425q-2.4 0-2.4 2.4z" clip-path="url(#a)" fill="#fff" stroke="#fff"/>
<g clip-path="url(#a)">
<g transform="translate(242.75 702.21) rotate(90) scale(.08 -.08)">
<use xlink:href="#k"/>
<use x="44.083984" xlink:href="#d"/>
<use x="105.607422" xlink:href="#i"/>
<use x="144.970703" xlink:href="#l"/>
<use x="242.382812" xlink:href="#g"/>
<use x="270.166016" xlink:href="#f"/>
<use x="333.544922" xlink:href="#h"/>
<use x="394.824219" xlink:href="#j"/>
</g>
</g>
<path d="m272.19 702.21v33.808q0 2.4 2.4 2.4h7.7425q2.4 0 2.4-2.4v-33.808q0-2.4-2.4-2.4h-7.7425q-2.4 0-2.4 2.4z" clip-path="url(#a)" fill="#fff" stroke="#fff"/>
<g clip-path="url(#a)">
<g transform="translate(276.25 702.21) rotate(90) scale(.08 -.08)">
<use xlink:href="#k"/>
<use x="44.083984" xlink:href="#d"/>
<use x="105.607422" xlink:href="#i"/>
<use x="144.970703" xlink:href="#l"/>
<use x="242.382812" xlink:href="#g"/>
<use x="270.166016" xlink:href="#f"/>
<use x="333.544922" xlink:href="#h"/>
<use x="394.824219" xlink:href="#j"/>
</g>
</g>
<path d="m308.48 702.21v33.808q0 2.4 2.4 2.4h7.7425q2.4 0 2.4-2.4v-33.808q0-2.4-2.4-2.4h-7.7425q-2.4 0-2.4 2.4z" clip-path="url(#a)" fill="#fff" stroke="#fff"/>
<g clip-path="url(#a)">
<g transform="translate(312.54 702.21) rotate(90) scale(.08 -.08)">
<use xlink:href="#k"/>
<use x="44.083984" xlink:href="#d"/>
<use x="105.607422" xlink:href="#i"/>
<use x="144.970703" xlink:href="#l"/>
<use x="242.382812" xlink:href="#g"/>
<use x="270.166016" xlink:href="#f"/>
<use x="333.544922" xlink:href="#h"/>
<use x="394.824219" xlink:href="#j"/>
</g>
</g>
<path d="m347.56 702.21v33.808q0 2.4 2.4 2.4h7.7425q2.4 0 2.4-2.4v-33.808q0-2.4-2.4-2.4h-7.7425q-2.4 0-2.4 2.4z" clip-path="url(#a)" fill="#fff" stroke="#fff"/>
<g clip-path="url(#a)">
<g transform="translate(351.62 702.21) rotate(90) scale(.08 -.08)">
<use xlink:href="#k"/>
<use x="44.083984" xlink:href="#d"/>
<use x="105.607422" xlink:href="#i"/>
<use x="144.970703" xlink:href="#l"/>
<use x="242.382812" xlink:href="#g"/>
<use x="270.166016" xlink:href="#f"/>
<use x="333.544922" xlink:href="#h"/>
<use x="394.824219" xlink:href="#j"/>
</g>
</g>
<path d="m113.07 702.21v33.808q0 2.4 2.4 2.4h7.7425q2.4 0 2.4-2.4v-33.808q0-2.4-2.4-2.4h-7.7425q-2.4 0-2.4 2.4z" clip-path="url(#a)" fill="#fff" stroke="#fff"/>
<g clip-path="url(#a)">
<g transform="translate(117.13 702.21) rotate(90) scale(.08 -.08)">
<use xlink:href="#k"/>
<use x="44.083984" xlink:href="#d"/>
<use x="105.607422" xlink:href="#i"/>
<use x="144.970703" xlink:href="#l"/>
<use x="242.382812" xlink:href="#g"/>
<use x="270.166016" xlink:href="#f"/>
<use x="333.544922" xlink:href="#h"/>
<use x="394.824219" xlink:href="#j"/>
</g>
</g>
<path d="m132.61 702.21v33.808q0 2.4 2.4 2.4h7.7425q2.4 0 2.4-2.4v-33.808q0-2.4-2.4-2.4h-7.7425q-2.4 0-2.4 2.4z" clip-path="url(#a)" fill="#fff" stroke="#fff"/>
<g clip-path="url(#a)">
<g transform="translate(136.67 702.21) rotate(90) scale(.08 -.08)">
<use xlink:href="#k"/>
<use x="44.083984" xlink:href="#d"/>
<use x="105.607422" xlink:href="#i"/>
<use x="144.970703" xlink:href="#l"/>
<use x="242.382812" xlink:href="#g"/>
<use x="270.166016" xlink:href="#f"/>
<use x="333.544922" xlink:href="#h"/>
<use x="394.824219" xlink:href="#j"/>
</g>
</g>
<path d="m154.94 702.21v33.808q0 2.4 2.4 2.4h7.7425q2.4 0 2.4-2.4v-33.808q0-2.4-2.4-2.4h-7.7425q-2.4 0-2.4 2.4z" clip-path="url(#a)" fill="#fff" stroke="#fff"/>
<g clip-path="url(#a)">
<g transform="translate(159 702.21) rotate(90) scale(.08 -.08)">
<use xlink:href="#k"/>
<use x="44.083984" xlink:href="#d"/>
<use x="105.607422" xlink:href="#i"/>
<use x="144.970703" xlink:href="#l"/>
<use x="242.382812" xlink:href="#g"/>
<use x="270.166016" xlink:href="#f"/>
<use x="333.544922" xlink:href="#h"/>
<use x="394.824219" xlink:href="#j"/>
</g>
</g>
<path d="m62.82 702.21v33.808q0 2.4 2.4 2.4h7.7425q2.4 0 2.4-2.4v-33.808q0-2.4-2.4-2.4h-7.7425q-2.4 0-2.4 2.4z" clip-path="url(#a)" fill="#fff" stroke="#fff"/>
<g clip-path="url(#a)">
<g transform="translate(66.883 702.21) rotate(90) scale(.08 -.08)">
<use xlink:href="#k"/>
<use x="44.083984" xlink:href="#d"/>
<use x="105.607422" xlink:href="#i"/>
<use x="144.970703" xlink:href="#l"/>
<use x="242.382812" xlink:href="#g"/>
<use x="270.166016" xlink:href="#f"/>
<use x="333.544922" xlink:href="#h"/>
<use x="394.824219" xlink:href="#j"/>
</g>
</g>
<path d="m71.194 702.21v33.808q0 2.4 2.4 2.4h7.7425q2.4 0 2.4-2.4v-33.808q0-2.4-2.4-2.4h-7.7425q-2.4 0-2.4 2.4z" clip-path="url(#a)" fill="#fff" stroke="#fff"/>
<g clip-path="url(#a)">
<g transform="translate(75.258 702.21) rotate(90) scale(.08 -.08)">
<use xlink:href="#k"/>
<use x="44.083984" xlink:href="#d"/>
<use x="105.607422" xlink:href="#i"/>
<use x="144.970703" xlink:href="#l"/>
<use x="242.382812" xlink:href="#g"/>
<use x="270.166016" xlink:href="#f"/>
<use x="333.544922" xlink:href="#h"/>
<use x="394.824219" xlink:href="#j"/>
</g>
</g>
<path d="m82.361 702.21v33.808q0 2.4 2.4 2.4h7.7425q2.4 0 2.4-2.4v-33.808q0-2.4-2.4-2.4h-7.7425q-2.4 0-2.4 2.4z" clip-path="url(#a)" fill="#fff" stroke="#fff"/>
<g clip-path="url(#a)">
<g transform="translate(86.424 702.21) rotate(90) scale(.08 -.08)">
<use xlink:href="#k"/>
<use x="44.083984" xlink:href="#d"/>
<use x="105.607422" xlink:href="#i"/>
<use x="144.970703" xlink:href="#l"/>
<use x="242.382812" xlink:href="#g"/>
<use x="270.166016" xlink:href="#f"/>
<use x="333.544922" xlink:href="#h"/>
<use x="394.824219" xlink:href="#j"/>
</g>
</g>
<path d="m96.318 702.21v33.808q0 2.4 2.4 2.4h7.7425q2.4 0 2.4-2.4v-33.808q0-2.4-2.4-2.4h-7.7425q-2.4 0-2.4 2.4z" clip-path="url(#a)" fill="#fff" stroke="#fff"/>
<g clip-path="url(#a)">
<g transform="translate(100.38 702.21) rotate(90) scale(.08 -.08)">
<use xlink:href="#k"/>
<use x="44.083984" xlink:href="#d"/>
<use x="105.607422" xlink:href="#i"/>
<use x="144.970703" xlink:href="#l"/>
<use x="242.382812" xlink:href="#g"/>
<use x="270.166016" xlink:href="#f"/>
<use x="333.544922" xlink:href="#h"/>
<use x="394.824219" xlink:href="#j"/>
</g>
</g>
<path d="m389.43 702.21v33.808q0 2.4 2.4 2.4h7.7425q2.4 0 2.4-2.4v-33.808q0-2.4-2.4-2.4h-7.7425q-2.4 0-2.4 2.4z" clip-path="url(#a)" fill="#fff" stroke="#fff"/>
<g clip-path="url(#a)">
<g transform="translate(393.49 702.21) rotate(90) scale(.08 -.08)">
<use xlink:href="#k"/>
<use x="44.083984" xlink:href="#d"/>
<use x="105.607422" xlink:href="#i"/>
<use x="144.970703" xlink:href="#l"/>
<use x="242.382812" xlink:href="#g"/>
<use x="270.166016" xlink:href="#f"/>
<use x="333.544922" xlink:href="#h"/>
<use x="394.824219" xlink:href="#j"/>
</g>
</g>
<path d="m434.1 702.21v33.808q0 2.4 2.4 2.4h7.7425q2.4 0 2.4-2.4v-33.808q0-2.4-2.4-2.4h-7.7425q-2.4 0-2.4 2.4z" clip-path="url(#a)" fill="#fff" stroke="#fff"/>
<g clip-path="url(#a)">
<g transform="translate(438.16 702.21) rotate(90) scale(.08 -.08)">
<use xlink:href="#k"/>
<use x="44.083984" xlink:href="#d"/>
<use x="105.607422" xlink:href="#i"/>
<use x="144.970703" xlink:href="#l"/>
<use x="242.382812" xlink:href="#g"/>
<use x="270.166016" xlink:href="#f"/>
<use x="333.544922" xlink:href="#h"/>
<use x="394.824219" xlink:href="#j"/>
</g>
</g>
<path d="m640.67 702.21v33.808q0 2.4 2.4 2.4h7.7425q2.4 0 2.4-2.4v-33.808q0-2.4-2.4-2.4h-7.7425q-2.4 0-2.4 2.4z" clip-path="url(#a)" fill="#fff" stroke="#fff"/>
<g clip-path="url(#a)">
<g transform="translate(644.73 702.21) rotate(90) scale(.08 -.08)">
<use xlink:href="#k"/>
<use x="44.083984" xlink:href="#d"/>
<use x="105.607422" xlink:href="#i"/>
<use x="144.970703" xlink:href="#l"/>
<use x="242.382812" xlink:href="#g"/>
<use x="270.166016" xlink:href="#f"/>
<use x="333.544922" xlink:href="#h"/>
<use x="394.824219" xlink:href="#j"/>
</g>
</g>
<path d="m1352.5 702.21v33.808q0 2.4 2.4 2.4h7.7425q2.4 0 2.4-2.4v-33.808q0-2.4-2.4-2.4h-7.7425q-2.4 0-2.4 2.4z" clip-path="url(#a)" fill="#fff" stroke="#fff"/>
<g clip-path="url(#a)">
<g transform="translate(1356.6 702.21) rotate(90) scale(.08 -.08)">
<use xlink:href="#k"/>
<use x="44.083984" xlink:href="#d"/>
<use x="105.607422" xlink:href="#i"/>
<use x="144.970703" xlink:href="#l"/>
<use x="242.382812" xlink:href="#g"/>
<use x="270.166016" xlink:href="#f"/>
<use x="333.544922" xlink:href="#h"/>
<use x="394.824219" xlink:href="#j"/>
</g>
</g>
<path d="m1439.1 702.21v33.808q0 2.4 2.4 2.4h7.7425q2.4 0 2.4-2.4v-33.808q0-2.4-2.4-2.4h-7.7425q-2.4 0-2.4 2.4z" clip-path="url(#a)" fill="#fff" stroke="#fff"/>
<g clip-path="url(#a)">
<g transform="translate(1443.1 702.21) rotate(90) scale(.08 -.08)">
<use xlink:href="#k"/>
<use x="44.083984" xlink:href="#d"/>
<use x="105.607422" xlink:href="#i"/>
<use x="144.970703" xlink:href="#l"/>
<use x="242.382812" xlink:href="#g"/>
<use x="270.166016" xlink:href="#f"/>
<use x="333.544922" xlink:href="#h"/>
<use x="394.824219" xlink:href="#j"/>
</g>
</g>
<defs>
<path id="b" d="m0 8.6603c2.2967 0 4.4997-0.9125 6.1237-2.5365 1.624-1.624 2.5365-3.827 2.5365-6.1237s-0.9125-4.4997-2.5365-6.1237c-1.624-1.624-3.827-2.5365-6.1237-2.5365s-4.4997 0.9125-6.1237 2.5365c-1.624 1.624-2.5365 3.827-2.5365 6.1237s0.9125 4.4997 2.5365 6.1237c1.624 1.624 3.827 2.5365 6.1237 2.5365z"/>
</defs>
<g clip-path="url(#a)">
<use x="69.090909" y="763.636364" fill="#ffffff" stroke="#ffffff" xlink:href="#b"/>
</g>
<g clip-path="url(#a)">
<use x="77.465565" y="763.636364" fill="#ffffff" stroke="#ffffff" xlink:href="#b"/>
</g>
<g clip-path="url(#a)">
<use x="88.631772" y="763.636364" fill="#ffffff" stroke="#ffffff" xlink:href="#b"/>
</g>
<g clip-path="url(#a)">
<use x="102.589532" y="763.636364" fill="#ffffff" stroke="#ffffff" xlink:href="#b"/>
</g>
<g clip-path="url(#a)">
<use x="119.338843" y="763.636364" fill="#ffffff" stroke="#ffffff" xlink:href="#b"/>
</g>
<g clip-path="url(#a)">
<use x="138.879706" y="763.636364" fill="#ffffff" stroke="#ffffff" xlink:href="#b"/>
</g>
<g clip-path="url(#a)">
<use x="161.212121" y="763.636364" fill="#ffffff" stroke="#ffffff" xlink:href="#b"/>
</g>
<g clip-path="url(#a)">
<use x="186.336088" y="763.636364" fill="#ffffff" stroke="#ffffff" xlink:href="#b"/>
</g>
<g clip-path="url(#a)">
<use x="214.251607" y="763.636364" fill="#ffffff" stroke="#ffffff" xlink:href="#b"/>
</g>
<g clip-path="url(#a)">
<use x="244.958678" y="763.636364" fill="#ffffff" stroke="#ffffff" xlink:href="#b"/>
</g>
<g clip-path="url(#a)">
<use x="278.4573" y="763.636364" fill="#ffffff" stroke="#ffffff" xlink:href="#b"/>
</g>
<g clip-path="url(#a)">
<use x="314.747475" y="763.636364" fill="#ffffff" stroke="#ffffff" xlink:href="#b"/>
</g>
<g clip-path="url(#a)">
<use x="353.829201" y="763.636364" fill="#ffffff" stroke="#ffffff" xlink:href="#b"/>
</g>
<g clip-path="url(#a)">
<use x="395.702479" y="763.636364" fill="#ffffff" stroke="#ffffff" xlink:href="#b"/>
</g>
<g clip-path="url(#a)">
<use x="440.367309" y="763.636364" fill="#ffffff" stroke="#ffffff" xlink:href="#b"/>
</g>
<g clip-path="url(#a)">
<use x="487.823691" y="763.636364" fill="#ffffff" stroke="#ffffff" xlink:href="#b"/>
</g>
<g clip-path="url(#a)">
<use x="538.071625" y="763.636364" fill="#ffffff" stroke="#ffffff" xlink:href="#b"/>
</g>
<g clip-path="url(#a)">
<use x="591.111111" y="763.636364" fill="#ffffff" stroke="#ffffff" xlink:href="#b"/>
</g>
<g clip-path="url(#a)">
<use x="646.942149" y="763.636364" fill="#ffffff" stroke="#ffffff" xlink:href="#b"/>
</g>
<g clip-path="url(#a)">
<use x="705.564738" y="763.636364" fill="#ffffff" stroke="#ffffff" xlink:href="#b"/>
</g>
<g clip-path="url(#a)">
<use x="766.97888" y="763.636364" fill="#ffffff" stroke="#ffffff" xlink:href="#b"/>
</g>
<g clip-path="url(#a)">
<use x="831.184573" y="763.636364" fill="#ffffff" stroke="#ffffff" xlink:href="#b"/>
</g>
<g clip-path="url(#a)">
<use x="898.181818" y="763.636364" fill="#ffffff" stroke="#ffffff" xlink:href="#b"/>
</g>
<g clip-path="url(#a)">
<use x="967.970615" y="763.636364" fill="#ffffff" stroke="#ffffff" xlink:href="#b"/>
</g>
<g clip-path="url(#a)">
<use x="1040.550964" y="763.636364" fill="#ffffff" stroke="#ffffff" xlink:href="#b"/>
</g>
<g clip-path="url(#a)">
<use x="1115.922865" y="763.636364" fill="#ffffff" stroke="#ffffff" xlink:href="#b"/>
</g>
<g clip-path="url(#a)">
<use x="1194.086318" y="763.636364" fill="#ffffff" stroke="#ffffff" xlink:href="#b"/>
</g>
<g clip-path="url(#a)">
<use x="1275.041322" y="763.636364" fill="#ffffff" stroke="#ffffff" xlink:href="#b"/>
</g>
<g clip-path="url(#a)">
<use x="1358.787879" y="763.636364" fill="#ffffff" stroke="#ffffff" xlink:href="#b"/>
</g>
<g clip-path="url(#a)">
<use x="1445.325987" y="763.636364" fill="#ffffff" stroke="#ffffff" xlink:href="#b"/>
</g>
<g clip-path="url(#a)">
<use x="1450.909091" y="219.748738" fill="#ffffff" stroke="#ffffff" xlink:href="#b"/>
</g>
<g clip-path="url(#a)">
<use x="1450.909091" y="219.748738" fill="#ffffff" stroke="#ffffff" xlink:href="#b"/>
</g>
<g clip-path="url(#a)">
<use x="492.638257" y="36.363636" fill="#ffffff" stroke="#ffffff" xlink:href="#b"/>
</g>
<g clip-path="url(#a)">
<use x="492.638257" y="128.121905" fill="#ffffff" stroke="#ffffff" xlink:href="#b"/>
</g>
<g clip-path="url(#a)">
<use x="492.638257" y="219.748738" fill="#ffffff" stroke="#ffffff" xlink:href="#b"/>
</g>
<g clip-path="url(#a)">
<use x="420.402544" y="311.222277" fill="#ffffff" stroke="#ffffff" xlink:href="#b"/>
</g>
<g clip-path="url(#a)">
<use x="487.823691" y="674.598155" fill="#ffffff" stroke="#ffffff" xlink:href="#b"/>
</g>
<g clip-path="url(#a)">
<use x="564.591368" y="584.321326" fill="#ffffff" stroke="#ffffff" xlink:href="#b"/>
</g>
<g clip-path="url(#a)">
<use x="538.071625" y="674.598155" fill="#ffffff" stroke="#ffffff" xlink:href="#b"/>
</g>
<g clip-path="url(#a)">
<use x="591.111111" y="674.598155" fill="#ffffff" stroke="#ffffff" xlink:href="#b"/>
</g>
<g clip-path="url(#a)">
<use x="78.396082" y="584.321326" fill="#ffffff" stroke="#ffffff" xlink:href="#b"/>
</g>
<g clip-path="url(#a)">
<use x="139.810223" y="584.321326" fill="#ffffff" stroke="#ffffff" xlink:href="#b"/>
</g>
<g clip-path="url(#a)">
<use x="186.336088" y="674.598155" fill="#ffffff" stroke="#ffffff" xlink:href="#b"/>
</g>
<g clip-path="url(#a)">
<use x="214.251607" y="674.598155" fill="#ffffff" stroke="#ffffff" xlink:href="#b"/>
</g>
<g clip-path="url(#a)">
<use x="297.998163" y="584.321326" fill="#ffffff" stroke="#ffffff" xlink:href="#b"/>
</g>
<g clip-path="url(#a)">
<use x="767.909397" y="584.321326" fill="#ffffff" stroke="#ffffff" xlink:href="#b"/>
</g>
<g clip-path="url(#a)">
<use x="898.181818" y="674.598155" fill="#ffffff" stroke="#ffffff" xlink:href="#b"/>
</g>
<g clip-path="url(#a)">
<use x="1098.149985" y="402.51182" fill="#ffffff" stroke="#ffffff" xlink:href="#b"/>
</g>
<g clip-path="url(#a)">
<use x="967.970615" y="674.598155" fill="#ffffff" stroke="#ffffff" xlink:href="#b"/>
</g>
<g clip-path="url(#a)">
<use x="1040.550964" y="674.598155" fill="#ffffff" stroke="#ffffff" xlink:href="#b"/>
</g>
<g clip-path="url(#a)">
<use x="1285.928375" y="493.571004" fill="#ffffff" stroke="#ffffff" xlink:href="#b"/>
</g>
<g clip-path="url(#a)">
<use x="1115.922865" y="674.598155" fill="#ffffff" stroke="#ffffff" xlink:href="#b"/>
</g>
<g clip-path="url(#a)">
<use x="1234.56382" y="584.321326" fill="#ffffff" stroke="#ffffff" xlink:href="#b"/>
</g>
<g clip-path="url(#a)">
<use x="1275.041322" y="674.598155" fill="#ffffff" stroke="#ffffff" xlink:href="#b"/>
</g>
<g clip-path="url(#a)">
<use x="1194.086318" y="674.598155" fill="#ffffff" stroke="#ffffff" xlink:href="#b"/>
</g>
<g clip-path="url(#a)">
<use x="705.564738" y="674.598155" fill="#ffffff" stroke="#ffffff" xlink:href="#b"/>
</g>
<g clip-path="url(#a)">
<use x="766.97888" y="674.598155" fill="#ffffff" stroke="#ffffff" xlink:href="#b"/>
</g>
<g clip-path="url(#a)">
<use x="831.184573" y="674.598155" fill="#ffffff" stroke="#ffffff" xlink:href="#b"/>
</g>
<g clip-path="url(#a)">
<use x="244.958678" y="674.598155" fill="#ffffff" stroke="#ffffff" xlink:href="#b"/>
</g>
<g clip-path="url(#a)">
<use x="278.4573" y="674.598155" fill="#ffffff" stroke="#ffffff" xlink:href="#b"/>
</g>
<g clip-path="url(#a)">
<use x="314.747475" y="674.598155" fill="#ffffff" stroke="#ffffff" xlink:href="#b"/>
</g>
<g clip-path="url(#a)">
<use x="353.829201" y="674.598155" fill="#ffffff" stroke="#ffffff" xlink:href="#b"/>
</g>
<g clip-path="url(#a)">
<use x="119.338843" y="674.598155" fill="#ffffff" stroke="#ffffff" xlink:href="#b"/>
</g>
<g clip-path="url(#a)">
<use x="138.879706" y="674.598155" fill="#ffffff" stroke="#ffffff" xlink:href="#b"/>
</g>
<g clip-path="url(#a)">
<use x="161.212121" y="674.598155" fill="#ffffff" stroke="#ffffff" xlink:href="#b"/>
</g>
<g clip-path="url(#a)">
<use x="69.090909" y="674.598155" fill="#ffffff" stroke="#ffffff" xlink:href="#b"/>
</g>
<g clip-path="url(#a)">
<use x="77.465565" y="674.598155" fill="#ffffff" stroke="#ffffff" xlink:href="#b"/>
</g>
<g clip-path="url(#a)">
<use x="88.631772" y="674.598155" fill="#ffffff" stroke="#ffffff" xlink:href="#b"/>
</g>
<g clip-path="url(#a)">
<use x="102.589532" y="674.598155" fill="#ffffff" stroke="#ffffff" xlink:href="#b"/>
</g>
<g clip-path="url(#a)">
<use x="395.702479" y="674.598155" fill="#ffffff" stroke="#ffffff" xlink:href="#b"/>
</g>
<g clip-path="url(#a)">
<use x="440.367309" y="674.598155" fill="#ffffff" stroke="#ffffff" xlink:href="#b"/>
</g>
<g clip-path="url(#a)">
<use x="646.942149" y="674.598155" fill="#ffffff" stroke="#ffffff" xlink:href="#b"/>
</g>
<g clip-path="url(#a)">
<use x="1358.787879" y="674.598155" fill="#ffffff" stroke="#ffffff" xlink:href="#b"/>
</g>
<g clip-path="url(#a)">
<use x="1445.325987" y="674.598155" fill="#ffffff" stroke="#ffffff" xlink:href="#b"/>
</g>
<g clip-path="url(#a)">
<defs>
<path id="s" d="m9.8125 72.906h9.8594v-72.906h-9.8594z"/>
<path id="u" d="m48.781 52.594v-8.4062q-3.8125 2.1094-7.6406 3.1562t-7.7344 1.0469q-8.75 0-13.594-5.5469-4.8281-5.5312-4.8281-15.547t4.8281-15.562q4.8438-5.5312 13.594-5.5312 3.9062 0 7.7344 1.0469t7.6406 3.1562v-8.3125q-3.7656-1.75-7.7969-2.625-4.0156-0.89062-8.5625-0.89062-12.359 0-19.641 7.7656-7.2656 7.7656-7.2656 20.953 0 13.375 7.3438 21.031 7.3594 7.6719 20.156 7.6719 4.1406 0 8.0938-0.85938 3.9531-0.84375 7.6719-2.5469z"/>
<path id="r" d="m54.891 33.016v-33.016h-8.9844v32.719q0 7.7656-3.0312 11.609-3.0312 3.8594-9.0781 3.8594-7.2812 0-11.484-4.6406-4.2031-4.625-4.2031-12.641v-30.906h-9.0312v75.984h9.0312v-29.797q3.2344 4.9375 7.5938 7.375 4.375 2.4375 10.094 2.4375 9.4219 0 14.25-5.8281 4.8438-5.8281 4.8438-17.156z"/>
</defs>
<g transform="translate(61.698 766.4) scale(.1 -.1)">
<use xlink:href="#s"/>
<use x="29.492188" xlink:href="#u"/>
<use x="84.472656" xlink:href="#r"/>
</g>
</g>
<g clip-path="url(#a)">
<defs>
<path id="aw" d="m2.9844 54.688h9.5156l17.094-45.891 17.094 45.891h9.5156l-20.516-54.688h-12.203z"/>
<path id="am" d="m4.2031 54.688h8.9844l11.234-42.672 11.172 42.672h10.594l11.234-42.672 11.188 42.672h8.9844l-14.312-54.688h-10.594l-11.766 44.828-11.812-44.828h-10.609z"/>
<path id="ad" d="m18.312 70.219v-15.531h18.5v-6.9844h-18.5v-29.688q0-6.6875 1.8281-8.5938t7.4531-1.9062h9.2188v-7.5156h-9.2188q-10.406 0-14.359 3.875-3.9531 3.8906-3.9531 14.141v29.688h-6.5938v6.9844h6.5938v15.531z"/>
</defs>
<g transform="translate(55.795 766.4) scale(.1 -.1)">
<use xlink:href="#aw"/>
<use x="59.179688" xlink:href="#d"/>
<use x="120.703125" xlink:href="#i"/>
<use x="161.816406" xlink:href="#am"/>
<use x="243.603516" xlink:href="#h"/>
<use x="304.882812" xlink:href="#j"/>
<use x="332.666016" xlink:href="#ad"/>
<use x="371.875" xlink:href="#d"/>
</g>
</g>
<g clip-path="url(#a)">
<defs>
<path id="q" d="m44.281 53.078v-8.5q-3.7969 1.9531-7.9062 2.9219-4.0938 0.98438-8.5 0.98438-6.6875 0-10.031-2.0469t-3.3438-6.1562q0-3.125 2.3906-4.9062t9.625-3.3906l3.0781-0.6875q9.5625-2.0469 13.594-5.7812t4.0312-10.422q0-7.625-6.0312-12.078-6.0312-4.4375-16.578-4.4375-4.3906 0-9.1562 0.85938t-10.031 2.5625v9.2812q4.9844-2.5938 9.8125-3.8906 4.8281-1.2812 9.5781-1.2812 6.3438 0 9.75 2.1719 3.4219 2.1719 3.4219 6.125 0 3.6562-2.4688 5.6094-2.4531 1.9531-10.812 3.7656l-3.125 0.73438q-8.3438 1.75-12.062 5.3906-3.7031 3.6406-3.7031 9.9844 0 7.7188 5.4688 11.906 5.4688 4.2031 15.531 4.2031 4.9688 0 9.3594-0.73438 4.4062-0.71875 8.1094-2.1875z"/>
</defs>
<g transform="translate(81.561 766.4) scale(.1 -.1)">
<use xlink:href="#q"/>
<use x="52.099609" xlink:href="#g"/>
<use x="79.882812" xlink:href="#d"/>
</g>
</g>
<g clip-path="url(#a)">
<defs>
<path id="e" d="m10.688 12.406h10.312v-12.406h-10.312z"/>
</defs>
<g transform="translate(101 766.4) scale(.1 -.1)">
<use xlink:href="#e"/>
</g>
</g>
<g clip-path="url(#a)">
<g transform="translate(111.95 766.4) scale(.1 -.1)">
<use xlink:href="#s"/>
<use x="29.492188" xlink:href="#u"/>
<use x="84.472656" xlink:href="#r"/>
</g>
</g>
<g clip-path="url(#a)">
<defs>
<path id="al" d="m5.5156 54.688h42.672v-8.2031l-33.781-39.312h33.781v-7.1719h-43.891v8.2031l33.797 39.312h-32.578z"/>
<path id="ak" d="m34.281 27.484q-10.891 0-15.094-2.4844t-4.2031-8.5q0-4.7812 3.1562-7.5938 3.1562-2.7969 8.5625-2.7969 7.4844 0 12 5.2969t4.5156 14.078v2zm17.922 3.7188v-31.203h-8.9844v8.2969q-3.0781-4.9688-7.6719-7.3438t-11.234-2.375q-8.3906 0-13.359 4.7188-4.9531 4.7188-4.9531 12.625 0 9.2188 6.1719 13.906 6.1875 4.6875 18.438 4.6875h12.609v0.89062q0 6.2031-4.0781 9.5938t-11.453 3.3906q-4.6875 0-9.1406-1.125-4.4375-1.125-8.5312-3.375v8.3125q4.9219 1.9062 9.5625 2.8438 4.6406 0.95312 9.0312 0.95312 11.875 0 17.734-6.1562 5.8594-6.1406 5.8594-18.641zm-18.609 44.578h9.9062v-9.8594h-9.9062zm-19.094 0h9.9062v-9.8594h-9.9062z"/>
</defs>
<g transform="translate(125.56 766.4) scale(.1 -.1)">
<use xlink:href="#al"/>
<use x="52.490234" xlink:href="#ak"/>
<use x="113.769531" xlink:href="#r"/>
<use x="177.148438" xlink:href="#j"/>
<use x="204.931641" xlink:href="#d"/>
</g>
</g>
<g clip-path="url(#a)">
<g transform="translate(154.14 766.4) scale(.1 -.1)">
<use xlink:href="#q"/>
<use x="52.099609" xlink:href="#g"/>
<use x="79.882812" xlink:href="#d"/>
</g>
</g>
<g clip-path="url(#a)">
<defs>
<path id="aq" d="m8.5 21.578v33.109h8.9844v-32.766q0-7.7656 3.0156-11.656 3.0312-3.875 9.0938-3.875 7.2656 0 11.484 4.6406 4.2344 4.6406 4.2344 12.656v31h8.9844v-54.688h-8.9844v8.4062q-3.2656-4.9844-7.5938-7.4062-4.3125-2.4219-10.031-2.4219-9.4219 0-14.312 5.8594-4.875 5.8594-4.875 17.141z"/>
<path id="ae" d="m45.406 46.391v29.594h8.9844v-75.984h-8.9844v8.2031q-2.8281-4.875-7.1562-7.25-4.3125-2.375-10.375-2.375-9.9062 0-16.141 7.9062-6.2188 7.9219-6.2188 20.812t6.2188 20.797q6.2344 7.9062 16.141 7.9062 6.0625 0 10.375-2.375 4.3281-2.3594 7.1562-7.2344zm-30.609-19.094q0-9.9062 4.0781-15.547t11.203-5.6406 11.219 5.6406q4.1094 5.6406 4.1094 15.547t-4.1094 15.547q-4.0938 5.6406-11.219 5.6406t-11.203-5.6406-4.0781-15.547z"/>
</defs>
<g transform="translate(176.82 766.4) scale(.1 -.1)">
<use xlink:href="#aq"/>
<use x="63.378906" xlink:href="#f"/>
<use x="126.757812" xlink:href="#ae"/>
</g>
</g>
<g clip-path="url(#a)">
<g transform="translate(201.68 766.4) scale(.1 -.1)">
<use xlink:href="#ae"/>
<use x="63.476562" xlink:href="#h"/>
<use x="124.755859" xlink:href="#f"/>
<use x="188.134766" xlink:href="#f"/>
</g>
</g>
<g clip-path="url(#a)">
<g transform="translate(231.64 766.4) scale(.1 -.1)">
<use xlink:href="#al"/>
<use x="52.490234" xlink:href="#ak"/>
<use x="113.769531" xlink:href="#r"/>
<use x="177.148438" xlink:href="#j"/>
<use x="204.931641" xlink:href="#d"/>
</g>
</g>
<g clip-path="url(#a)">
<g transform="translate(271.15 766.4) scale(.1 -.1)">
<use xlink:href="#g"/>
<use x="27.783203" xlink:href="#u"/>
<use x="82.763672" xlink:href="#r"/>
</g>
</g>
<g clip-path="url(#a)">
<g transform="translate(307.68 766.4) scale(.1 -.1)">
<use xlink:href="#q"/>
<use x="52.099609" xlink:href="#g"/>
<use x="79.882812" xlink:href="#d"/>
</g>
</g>
<g clip-path="url(#a)">
<g transform="translate(336.97 766.4) scale(.1 -.1)">
<use xlink:href="#am"/>
<use x="81.787109" xlink:href="#g"/>
<use x="109.570312" xlink:href="#d"/>
<use x="171.09375" xlink:href="#ae"/>
<use x="234.570312" xlink:href="#d"/>
<use x="296.09375" xlink:href="#i"/>
</g>
</g>
<g clip-path="url(#a)">
<defs>
<path id="ap" d="m17.922 72.906v-27.109h-8.2969v27.109zm18.453 0v-27.109h-8.2969v27.109z"/>
</defs>
<g transform="translate(393.4 766.4) scale(.1 -.1)">
<use xlink:href="#ap"/>
</g>
</g>
<g clip-path="url(#a)">
<defs>
<path id="au" d="m11.719 12.406h10.297v-8.4062l-8-15.625h-6.2969l4 15.625z"/>
</defs>
<g transform="translate(438.78 766.4) scale(.1 -.1)">
<use xlink:href="#au"/>
</g>
</g>
<g clip-path="url(#a)">
<defs>
<path id="ar" d="m45.406 27.984q0 9.7656-4.0312 15.125-4.0156 5.375-11.297 5.375-7.2188 0-11.25-5.375-4.0312-5.3594-4.0312-15.125 0-9.7188 4.0312-15.094t11.25-5.375q7.2812 0 11.297 5.375 4.0312 5.375 4.0312 15.094zm8.9844-21.203q0-13.953-6.2031-20.766-6.1875-6.8125-18.984-6.8125-4.7344 0-8.9375 0.70312t-8.1562 2.1719v8.7344q3.9531-2.1406 7.8125-3.1562 3.8594-1.0312 7.8594-1.0312 8.8438 0 13.234 4.6094t4.3906 13.938v4.4531q-2.7812-4.8438-7.125-7.2344t-10.406-2.3906q-10.047 0-16.203 7.6562-6.1562 7.6719-6.1562 20.328 0 12.688 6.1562 20.344 6.1562 7.6719 16.203 7.6719 6.0625 0 10.406-2.3906t7.125-7.2188v8.2969h8.9844z"/>
</defs>
<g transform="translate(473.94 766.4) scale(.1 -.1)">
<use xlink:href="#q"/>
<use x="52.099609" xlink:href="#h"/>
<use x="113.378906" xlink:href="#ar"/>
<use x="176.855469" xlink:href="#ad"/>
<use x="216.064453" xlink:href="#d"/>
</g>
</g>
<g clip-path="url(#a)">
<g transform="translate(529.77 766.4) scale(.1 -.1)">
<use xlink:href="#ae"/>
<use x="63.476562" xlink:href="#d"/>
<use x="125" xlink:href="#i"/>
</g>
</g>
<g clip-path="url(#a)">
<defs>
<path id="as" d="m59.516 10.406v19.578h-16.109v8.1094h25.875v-31.312q-5.7031-4.0469-12.594-6.125-6.875-2.0781-14.688-2.0781-17.094 0-26.75 9.9844-9.6406 10-9.6406 27.812 0 17.875 9.6406 27.859 9.6562 9.9844 26.75 9.9844 7.125 0 13.547-1.7656 6.4219-1.75 11.844-5.1719v-10.5q-5.4688 4.6406-11.625 6.9844t-12.938 2.3438q-13.391 0-20.109-7.4688-6.7031-7.4688-6.7031-22.266 0-14.75 6.7031-22.219 6.7188-7.4688 20.109-7.4688 5.2188 0 9.3125 0.90625 4.1094 0.90625 7.375 2.8125z"/>
<path id="ax" d="m37.109 75.984v-7.4844h-8.5938q-4.8281 0-6.7188-1.9531-1.875-1.9531-1.875-7.0312v-4.8281h14.797v-6.9844h-14.797v-47.703h-9.0312v47.703h-8.5938v6.9844h8.5938v3.8125q0 9.125 4.25 13.297 4.25 4.1875 13.469 4.1875z"/>
</defs>
<g transform="translate(552.06 766.4) scale(.1 -.1)">
<use xlink:href="#as"/>
<use x="77.490234" xlink:href="#d"/>
<use x="139.013672" xlink:href="#q"/>
<use x="191.113281" xlink:href="#u"/>
<use x="246.09375" xlink:href="#r"/>
<use x="309.472656" xlink:href="#ak"/>
<use x="370.751953" xlink:href="#ax"/>
<use x="404.207031" xlink:href="#ad"/>
<use x="443.416016" xlink:href="#q"/>
<use x="495.515625" xlink:href="#l"/>
<use x="592.927734" xlink:href="#h"/>
<use x="654.207031" xlink:href="#f"/>
<use x="717.585938" xlink:href="#f"/>
</g>
</g>
<g clip-path="url(#a)">
<g transform="translate(645.35 766.4) scale(.1 -.1)">
<use xlink:href="#e"/>
</g>
</g>
<g clip-path="url(#a)">
<g transform="translate(696.05 766.4) scale(.1 -.1)">
<use xlink:href="#ao"/>
<use x="77.001953" xlink:href="#h"/>
<use x="138.28125" xlink:href="#q"/>
</g>
</g>
<g clip-path="url(#a)">
<g transform="translate(761.02 766.4) scale(.1 -.1)">
<use xlink:href="#g"/>
<use x="27.783203" xlink:href="#q"/>
<use x="79.882812" xlink:href="#ad"/>
</g>
</g>
<g clip-path="url(#a)">
<g transform="translate(807.49 766.4) scale(.1 -.1)">
<use xlink:href="#q"/>
<use x="52.099609" xlink:href="#u"/>
<use x="107.080078" xlink:href="#r"/>
<use x="170.458984" xlink:href="#am"/>
<use x="252.246094" xlink:href="#g"/>
<use x="280.029297" xlink:href="#d"/>
<use x="341.552734" xlink:href="#i"/>
<use x="382.666016" xlink:href="#g"/>
<use x="410.449219" xlink:href="#ar"/>
</g>
</g>
<g clip-path="url(#a)">
<defs>
<path id="an" d="m48.688 27.297q0 9.9062-4.0781 15.547t-11.203 5.6406q-7.1406 0-11.219-5.6406t-4.0781-15.547 4.0781-15.547 11.219-5.6406q7.125 0 11.203 5.6406t4.0781 15.547zm-30.578 19.094q2.8438 4.875 7.1562 7.2344 4.3281 2.375 10.328 2.375 9.9688 0 16.188-7.9062 6.2344-7.9062 6.2344-20.797t-6.2344-20.812q-6.2188-7.9062-16.188-7.9062-6 0-10.328 2.375-4.3125 2.375-7.1562 7.25v-8.2031h-9.0312v75.984h9.0312z"/>
</defs>
<g transform="translate(886.81 766.4) scale(.1 -.1)">
<use xlink:href="#h"/>
<use x="61.279297" xlink:href="#an"/>
<use x="124.755859" xlink:href="#d"/>
<use x="186.279297" xlink:href="#i"/>
</g>
</g>
<g clip-path="url(#a)">
<g transform="translate(960.66 766.4) scale(.1 -.1)">
<use xlink:href="#g"/>
<use x="27.783203" xlink:href="#u"/>
<use x="82.763672" xlink:href="#r"/>
</g>
</g>
<g clip-path="url(#a)">
<g transform="translate(1032.8 766.4) scale(.1 -.1)">
<use xlink:href="#an"/>
<use x="63.476562" xlink:href="#g"/>
<use x="91.259766" xlink:href="#f"/>
</g>
</g>
<g clip-path="url(#a)">
<g transform="translate(1108.3 766.4) scale(.1 -.1)">
<use xlink:href="#d"/>
<use x="61.523438" xlink:href="#g"/>
<use x="89.306641" xlink:href="#f"/>
</g>
</g>
<g clip-path="url(#a)">
<g transform="translate(1146.7 766.4) scale(.1 -.1)">
<use xlink:href="#d"/>
<use x="61.523438" xlink:href="#i"/>
<use x="100.886719" xlink:href="#f"/>
<use x="164.265625" xlink:href="#q"/>
<use x="216.365234" xlink:href="#ad"/>
<use x="255.574219" xlink:href="#al"/>
<use x="308.064453" xlink:href="#aq"/>
<use x="371.443359" xlink:href="#f"/>
<use x="434.822266" xlink:href="#d"/>
<use x="496.345703" xlink:href="#r"/>
<use x="559.724609" xlink:href="#l"/>
<use x="657.136719" xlink:href="#d"/>
<use x="718.660156" xlink:href="#f"/>
<use x="782.039062" xlink:href="#ae"/>
<use x="845.515625" xlink:href="#d"/>
<use x="907.039062" xlink:href="#i"/>
</g>
</g>
<g clip-path="url(#a)">
<defs>
<path id="ai" d="m9.8125 72.906h14.703l18.594-49.609 18.703 49.609h14.703v-72.906h-9.625v64.016l-18.797-50h-9.9062l-18.797 50v-64.016h-9.5781z"/>
</defs>
<g transform="translate(1261.3 766.4) scale(.1 -.1)">
<use xlink:href="#ai"/>
<use x="86.279297" xlink:href="#h"/>
<use x="147.558594" xlink:href="#f"/>
<use x="210.9375" xlink:href="#f"/>
</g>
</g>
<g clip-path="url(#a)">
<defs>
<path id="av" d="m15.094 12.406h9.9062v-12.406h-9.9062zm0 60.5h9.9062v-31.984l-0.96875-17.438h-7.9219l-1.0156 17.438z"/>
</defs>
<g transform="translate(1356.8 766.4) scale(.1 -.1)">
<use xlink:href="#av"/>
</g>
</g>
<g clip-path="url(#a)">
<g transform="translate(1443 766.4) scale(.1 -.1)">
<use xlink:href="#ap"/>
</g>
</g>
<g clip-path="url(#a)">
<g transform="translate(1429.8 222.51) scale(.1 -.1)">
<use xlink:href="#s"/>
<use x="29.492188" xlink:href="#ai"/>
<use x="115.771484" xlink:href="#t"/>
<use x="176.074219" xlink:href="#x"/>
<use x="231.787109" xlink:href="#s"/>
<use x="261.279297" xlink:href="#af"/>
<use x="331.103516" xlink:href="#s"/>
<use x="360.595703" xlink:href="#k"/>
</g>
</g>
<g clip-path="url(#a)">
<g transform="translate(1429.8 222.51) scale(.1 -.1)">
<use xlink:href="#s"/>
<use x="29.492188" xlink:href="#ai"/>
<use x="115.771484" xlink:href="#t"/>
<use x="176.074219" xlink:href="#x"/>
<use x="231.787109" xlink:href="#s"/>
<use x="261.279297" xlink:href="#af"/>
<use x="331.103516" xlink:href="#s"/>
<use x="360.595703" xlink:href="#k"/>
</g>
</g>
<g clip-path="url(#a)">
<defs>
<path id="c" d="m12.406 8.2969h16.109v55.625l-17.531-3.5156v8.9844l17.438 3.5156h9.8594v-64.609h16.109v-8.2969h-41.984z"/>
</defs>
<g transform="translate(484.69 39.123) scale(.1 -.1)">
<use xlink:href="#c"/>
<use x="63.623047" xlink:href="#e"/>
<use x="95.410156" xlink:href="#c"/>
</g>
</g>
<g clip-path="url(#a)">
<defs>
<path id="p" d="m19.188 8.2969h34.422v-8.2969h-46.281v8.2969q5.6094 5.8125 15.297 15.594 9.7031 9.7969 12.188 12.641 4.7344 5.3125 6.6094 9 1.8906 3.6875 1.8906 7.25 0 5.8125-4.0781 9.4688-4.0781 3.6719-10.625 3.6719-4.6406 0-9.7969-1.6094-5.1406-1.6094-11-4.8906v9.9688q5.9531 2.3906 11.125 3.6094 5.1875 1.2188 9.4844 1.2188 11.328 0 18.062-5.6719 6.7344-5.6562 6.7344-15.125 0-4.5-1.6875-8.5312-1.6719-4.0156-6.125-9.4844-1.2188-1.4219-7.7656-8.1875-6.5312-6.7656-18.453-18.922z"/>
</defs>
<g transform="translate(484.69 130.88) scale(.1 -.1)">
<use xlink:href="#c"/>
<use x="63.623047" xlink:href="#e"/>
<use x="95.410156" xlink:href="#p"/>
</g>
</g>
<g clip-path="url(#a)">
<defs>
<path id="aa" d="m8.2031 72.906h46.875v-4.2031l-26.469-68.703h-10.297l24.906 64.594h-35.016z"/>
</defs>
<g transform="translate(484.69 222.51) scale(.1 -.1)">
<use xlink:href="#c"/>
<use x="63.623047" xlink:href="#e"/>
<use x="95.410156" xlink:href="#aa"/>
</g>
</g>
<g clip-path="url(#a)">
<defs>
<path id="z" d="m31.781 34.625q-7.0312 0-11.062-3.7656-4.0156-3.7656-4.0156-10.344 0-6.5938 4.0156-10.359 4.0312-3.7656 11.062-3.7656t11.078 3.7812q4.0625 3.7969 4.0625 10.344 0 6.5781-4.0312 10.344-4.0156 3.7656-11.109 3.7656zm-9.8594 4.1875q-6.3438 1.5625-9.8906 5.9062-3.5312 4.3594-3.5312 10.609 0 8.7344 6.2188 13.812 6.2344 5.0781 17.062 5.0781 10.891 0 17.094-5.0781t6.2031-13.812q0-6.25-3.5469-10.609-3.5312-4.3438-9.8281-5.9062 7.125-1.6562 11.094-6.5 3.9844-4.8281 3.9844-11.797 0-10.609-6.4688-16.281-6.4688-5.6562-18.531-5.6562-12.047 0-18.531 5.6562-6.4688 5.6719-6.4688 16.281 0 6.9688 4 11.797 4.0156 4.8438 11.141 6.5zm-3.6094 15.578q0-5.6562 3.5312-8.8281 3.5469-3.1719 9.9375-3.1719 6.3594 0 9.9375 3.1719 3.5938 3.1719 3.5938 8.8281 0 5.6719-3.5938 8.8438-3.5781 3.1719-9.9375 3.1719-6.3906 0-9.9375-3.1719-3.5312-3.1719-3.5312-8.8438z"/>
</defs>
<g transform="translate(412.45 313.98) scale(.1 -.1)">
<use xlink:href="#c"/>
<use x="63.623047" xlink:href="#e"/>
<use x="95.410156" xlink:href="#z"/>
</g>
</g>
<g clip-path="url(#a)">
<defs>
<path id="y" d="m10.984 1.5156v8.9844q3.7188-1.7656 7.5156-2.6875 3.8125-0.92188 7.4844-0.92188 9.7656 0 14.906 6.5625 5.1562 6.5625 5.8906 19.953-2.8281-4.2031-7.1875-6.4531-4.3438-2.25-9.6094-2.25-10.938 0-17.312 6.6094-6.375 6.625-6.375 18.109 0 11.219 6.6406 18 6.6406 6.7969 17.672 6.7969 12.656 0 19.312-9.7031 6.6719-9.6875 6.6719-28.141 0-17.234-8.1875-27.516-8.1719-10.281-21.984-10.281-3.7188 0-7.5312 0.73438-3.7969 0.73438-7.9062 2.2031zm19.625 30.906q6.6406 0 10.516 4.5312 3.8906 4.5469 3.8906 12.469 0 7.8594-3.8906 12.422-3.875 4.5625-10.516 4.5625t-10.516-4.5625-3.875-12.422q0-7.9219 3.875-12.469 3.875-4.5312 10.516-4.5312z"/>
</defs>
<g transform="translate(479.87 677.36) scale(.1 -.1)">
<use xlink:href="#c"/>
<use x="63.623047" xlink:href="#e"/>
<use x="95.410156" xlink:href="#y"/>
</g>
</g>
<g clip-path="url(#a)">
<defs>
<path id="ac" d="m31.781 66.406q-7.6094 0-11.453-7.5-3.8281-7.4844-3.8281-22.531 0-14.984 3.8281-22.484 3.8438-7.5 11.453-7.5 7.6719 0 11.5 7.5 3.8438 7.5 3.8438 22.484 0 15.047-3.8438 22.531-3.8281 7.5-11.5 7.5zm0 7.8125q12.266 0 18.734-9.7031 6.4688-9.6875 6.4688-28.141 0-18.406-6.4688-28.109-6.4688-9.6875-18.734-9.6875-12.25 0-18.719 9.6875-6.4688 9.7031-6.4688 28.109 0 18.453 6.4688 28.141 6.4688 9.7031 18.719 9.7031z"/>
</defs>
<g transform="translate(553.46 587.08) scale(.1 -.1)">
<use xlink:href="#c"/>
<use x="63.623047" xlink:href="#e"/>
<use x="95.410156" xlink:href="#c"/>
<use x="159.033203" xlink:href="#ac"/>
</g>
</g>
<g clip-path="url(#a)">
<defs>
<path id="n" d="m37.797 64.312-24.906-38.922h24.906zm-2.5938 8.5938h12.406v-47.516h10.406v-8.2031h-10.406v-17.188h-9.8125v17.188h-32.906v9.5156z"/>
</defs>
<g transform="translate(526.94 677.36) scale(.1 -.1)">
<use xlink:href="#c"/>
<use x="63.623047" xlink:href="#e"/>
<use x="95.410156" xlink:href="#c"/>
<use x="159.033203" xlink:href="#n"/>
</g>
</g>
<g clip-path="url(#a)">
<defs>
<path id="ab" d="m10.797 72.906h38.719v-8.3125h-29.688v-17.859q2.1406 0.73438 4.2812 1.0938 2.1562 0.35938 4.3125 0.35938 12.203 0 19.328-6.6875 7.1406-6.6875 7.1406-18.109 0-11.766-7.3281-18.297-7.3281-6.5156-20.656-6.5156-4.5938 0-9.3594 0.78125-4.75 0.78125-9.8281 2.3438v9.9219q4.3906-2.3906 9.0781-3.5625t9.9062-1.1719q8.4531 0 13.375 4.4375 4.9375 4.4375 4.9375 12.062 0 7.6094-4.9375 12.047-4.9219 4.4531-13.375 4.4531-3.9531 0-7.8906-0.875-3.9219-0.875-8.0156-2.7344z"/>
</defs>
<g transform="translate(579.98 677.36) scale(.1 -.1)">
<use xlink:href="#c"/>
<use x="63.623047" xlink:href="#e"/>
<use x="95.410156" xlink:href="#c"/>
<use x="159.033203" xlink:href="#ab"/>
</g>
</g>
<g clip-path="url(#a)">
<defs>
<path id="ag" d="m33.016 40.375q-6.6406 0-10.531-4.5469-3.875-4.5312-3.875-12.438 0-7.8594 3.875-12.438 3.8906-4.5625 10.531-4.5625t10.516 4.5625q3.875 4.5781 3.875 12.438 0 7.9062-3.875 12.438-3.875 4.5469-10.516 4.5469zm19.578 30.922v-8.9844q-3.7188 1.75-7.5 2.6719-3.7812 0.9375-7.5 0.9375-9.7656 0-14.922-6.5938-5.1406-6.5938-5.875-19.922 2.875 4.25 7.2188 6.5156 4.3594 2.2656 9.5781 2.2656 10.984 0 17.359-6.6719 6.375-6.6562 6.375-18.125 0-11.234-6.6406-18.031-6.6406-6.7812-17.672-6.7812-12.656 0-19.344 9.6875-6.6875 9.7031-6.6875 28.109 0 17.281 8.2031 27.562t22.016 10.281q3.7188 0 7.5-0.73438t7.8906-2.1875z"/>
</defs>
<g transform="translate(67.263 587.08) scale(.1 -.1)">
<use xlink:href="#c"/>
<use x="63.623047" xlink:href="#e"/>
<use x="95.410156" xlink:href="#c"/>
<use x="159.033203" xlink:href="#ag"/>
</g>
</g>
<g clip-path="url(#a)">
<g transform="translate(128.68 587.08) scale(.1 -.1)">
<use xlink:href="#c"/>
<use x="63.623047" xlink:href="#e"/>
<use x="95.410156" xlink:href="#c"/>
<use x="159.033203" xlink:href="#aa"/>
</g>
</g>
<g clip-path="url(#a)">
<g transform="translate(175.2 677.36) scale(.1 -.1)">
<use xlink:href="#c"/>
<use x="63.623047" xlink:href="#e"/>
<use x="95.410156" xlink:href="#c"/>
<use x="159.033203" xlink:href="#z"/>
</g>
</g>
<g clip-path="url(#a)">
<g transform="translate(203.12 677.36) scale(.1 -.1)">
<use xlink:href="#c"/>
<use x="63.623047" xlink:href="#e"/>
<use x="95.410156" xlink:href="#c"/>
<use x="159.033203" xlink:href="#y"/>
</g>
</g>
<g clip-path="url(#a)">
<g transform="translate(286.87 587.08) scale(.1 -.1)">
<use xlink:href="#c"/>
<use x="63.623047" xlink:href="#e"/>
<use x="95.410156" xlink:href="#p"/>
<use x="159.033203" xlink:href="#ac"/>
</g>
</g>
<g clip-path="url(#a)">
<g transform="translate(756.78 587.08) scale(.1 -.1)">
<use xlink:href="#c"/>
<use x="63.623047" xlink:href="#e"/>
<use x="95.410156" xlink:href="#p"/>
<use x="159.033203" xlink:href="#c"/>
</g>
</g>
<g clip-path="url(#a)">
<g transform="translate(887.05 677.36) scale(.1 -.1)">
<use xlink:href="#c"/>
<use x="63.623047" xlink:href="#e"/>
<use x="95.410156" xlink:href="#p"/>
<use x="159.033203" xlink:href="#p"/>
</g>
</g>
<g clip-path="url(#a)">
<defs>
<path id="o" d="m40.578 39.312q7.0781-1.5156 11.047-6.3125 3.9844-4.7812 3.9844-11.812 0-10.781-7.4219-16.703-7.4219-5.9062-21.094-5.9062-4.5781 0-9.4375 0.90625t-10.031 2.7188v9.5156q4.0938-2.3906 8.9688-3.6094 4.8906-1.2188 10.219-1.2188 9.2656 0 14.125 3.6562t4.8594 10.641q0 6.4531-4.5156 10.078-4.5156 3.6406-12.562 3.6406h-8.5v8.1094h8.8906q7.2656 0 11.125 2.9062t3.8594 8.375q0 5.6094-3.9844 8.6094-3.9688 3.0156-11.391 3.0156-4.0625 0-8.7031-0.89062-4.6406-0.875-10.203-2.7188v8.7812q5.625 1.5625 10.531 2.3438t9.25 0.78125q11.234 0 17.766-5.1094 6.5469-5.0938 6.5469-13.781 0-6.0625-3.4688-10.234t-9.8594-5.7812z"/>
</defs>
<g transform="translate(1087 405.27) scale(.1 -.1)">
<use xlink:href="#c"/>
<use x="63.623047" xlink:href="#e"/>
<use x="95.410156" xlink:href="#p"/>
<use x="159.033203" xlink:href="#o"/>
</g>
</g>
<g clip-path="url(#a)">
<g transform="translate(956.84 677.36) scale(.1 -.1)">
<use xlink:href="#c"/>
<use x="63.623047" xlink:href="#e"/>
<use x="95.410156" xlink:href="#p"/>
<use x="159.033203" xlink:href="#ab"/>
</g>
</g>
<g clip-path="url(#a)">
<g transform="translate(1029.4 677.36) scale(.1 -.1)">
<use xlink:href="#c"/>
<use x="63.623047" xlink:href="#e"/>
<use x="95.410156" xlink:href="#p"/>
<use x="159.033203" xlink:href="#ag"/>
</g>
</g>
<g clip-path="url(#a)">
<g transform="translate(1274.8 496.33) scale(.1 -.1)">
<use xlink:href="#c"/>
<use x="63.623047" xlink:href="#e"/>
<use x="95.410156" xlink:href="#p"/>
<use x="159.033203" xlink:href="#aa"/>
</g>
</g>
<g clip-path="url(#a)">
<g transform="translate(1104.8 677.36) scale(.1 -.1)">
<use xlink:href="#c"/>
<use x="63.623047" xlink:href="#e"/>
<use x="95.410156" xlink:href="#p"/>
<use x="159.033203" xlink:href="#z"/>
</g>
</g>
<g clip-path="url(#a)">
<g transform="translate(1223.4 587.08) scale(.1 -.1)">
<use xlink:href="#c"/>
<use x="63.623047" xlink:href="#e"/>
<use x="95.410156" xlink:href="#p"/>
<use x="159.033203" xlink:href="#y"/>
</g>
</g>
<g clip-path="url(#a)">
<g transform="translate(1263.9 677.36) scale(.1 -.1)">
<use xlink:href="#c"/>
<use x="63.623047" xlink:href="#e"/>
<use x="95.410156" xlink:href="#o"/>
<use x="159.033203" xlink:href="#ac"/>
</g>
</g>
<g clip-path="url(#a)">
<g transform="translate(1183 677.36) scale(.1 -.1)">
<use xlink:href="#c"/>
<use x="63.623047" xlink:href="#e"/>
<use x="95.410156" xlink:href="#o"/>
<use x="159.033203" xlink:href="#c"/>
</g>
</g>
<g clip-path="url(#a)">
<g transform="translate(694.43 677.36) scale(.1 -.1)">
<use xlink:href="#c"/>
<use x="63.623047" xlink:href="#e"/>
<use x="95.410156" xlink:href="#o"/>
<use x="159.033203" xlink:href="#p"/>
</g>
</g>
<g clip-path="url(#a)">
<g transform="translate(755.85 677.36) scale(.1 -.1)">
<use xlink:href="#c"/>
<use x="63.623047" xlink:href="#e"/>
<use x="95.410156" xlink:href="#o"/>
<use x="159.033203" xlink:href="#o"/>
</g>
</g>
<g clip-path="url(#a)">
<g transform="translate(820.05 677.36) scale(.1 -.1)">
<use xlink:href="#c"/>
<use x="63.623047" xlink:href="#e"/>
<use x="95.410156" xlink:href="#o"/>
<use x="159.033203" xlink:href="#n"/>
</g>
</g>
<g clip-path="url(#a)">
<g transform="translate(233.83 677.36) scale(.1 -.1)">
<use xlink:href="#c"/>
<use x="63.623047" xlink:href="#e"/>
<use x="95.410156" xlink:href="#o"/>
<use x="159.033203" xlink:href="#ab"/>
</g>
</g>
<g clip-path="url(#a)">
<g transform="translate(267.32 677.36) scale(.1 -.1)">
<use xlink:href="#c"/>
<use x="63.623047" xlink:href="#e"/>
<use x="95.410156" xlink:href="#o"/>
<use x="159.033203" xlink:href="#ag"/>
</g>
</g>
<g clip-path="url(#a)">
<g transform="translate(303.61 677.36) scale(.1 -.1)">
<use xlink:href="#c"/>
<use x="63.623047" xlink:href="#e"/>
<use x="95.410156" xlink:href="#o"/>
<use x="159.033203" xlink:href="#aa"/>
</g>
</g>
<g clip-path="url(#a)">
<g transform="translate(342.7 677.36) scale(.1 -.1)">
<use xlink:href="#c"/>
<use x="63.623047" xlink:href="#e"/>
<use x="95.410156" xlink:href="#o"/>
<use x="159.033203" xlink:href="#z"/>
</g>
</g>
<g clip-path="url(#a)">
<g transform="translate(108.21 677.36) scale(.1 -.1)">
<use xlink:href="#c"/>
<use x="63.623047" xlink:href="#e"/>
<use x="95.410156" xlink:href="#o"/>
<use x="159.033203" xlink:href="#y"/>
</g>
</g>
<g clip-path="url(#a)">
<g transform="translate(127.75 677.36) scale(.1 -.1)">
<use xlink:href="#c"/>
<use x="63.623047" xlink:href="#e"/>
<use x="95.410156" xlink:href="#n"/>
<use x="159.033203" xlink:href="#ac"/>
</g>
</g>
<g clip-path="url(#a)">
<g transform="translate(150.08 677.36) scale(.1 -.1)">
<use xlink:href="#c"/>
<use x="63.623047" xlink:href="#e"/>
<use x="95.410156" xlink:href="#n"/>
<use x="159.033203" xlink:href="#c"/>
</g>
</g>
<g clip-path="url(#a)">
<g transform="translate(57.958 677.36) scale(.1 -.1)">
<use xlink:href="#c"/>
<use x="63.623047" xlink:href="#e"/>
<use x="95.410156" xlink:href="#n"/>
<use x="159.033203" xlink:href="#p"/>
</g>
</g>
<g clip-path="url(#a)">
<g transform="translate(66.333 677.36) scale(.1 -.1)">
<use xlink:href="#c"/>
<use x="63.623047" xlink:href="#e"/>
<use x="95.410156" xlink:href="#n"/>
<use x="159.033203" xlink:href="#o"/>
</g>
</g>
<g clip-path="url(#a)">
<g transform="translate(77.499 677.36) scale(.1 -.1)">
<use xlink:href="#c"/>
<use x="63.623047" xlink:href="#e"/>
<use x="95.410156" xlink:href="#n"/>
<use x="159.033203" xlink:href="#n"/>
</g>
</g>
<g clip-path="url(#a)">
<g transform="translate(91.457 677.36) scale(.1 -.1)">
<use xlink:href="#c"/>
<use x="63.623047" xlink:href="#e"/>
<use x="95.410156" xlink:href="#n"/>
<use x="159.033203" xlink:href="#ab"/>
</g>
</g>
<g clip-path="url(#a)">
<g transform="translate(384.57 677.36) scale(.1 -.1)">
<use xlink:href="#c"/>
<use x="63.623047" xlink:href="#e"/>
<use x="95.410156" xlink:href="#n"/>
<use x="159.033203" xlink:href="#ag"/>
</g>
</g>
<g clip-path="url(#a)">
<g transform="translate(429.23 677.36) scale(.1 -.1)">
<use xlink:href="#c"/>
<use x="63.623047" xlink:href="#e"/>
<use x="95.410156" xlink:href="#n"/>
<use x="159.033203" xlink:href="#aa"/>
</g>
</g>
<g clip-path="url(#a)">
<g transform="translate(635.81 677.36) scale(.1 -.1)">
<use xlink:href="#c"/>
<use x="63.623047" xlink:href="#e"/>
<use x="95.410156" xlink:href="#n"/>
<use x="159.033203" xlink:href="#z"/>
</g>
</g>
<g clip-path="url(#a)">
<g transform="translate(1347.7 677.36) scale(.1 -.1)">
<use xlink:href="#c"/>
<use x="63.623047" xlink:href="#e"/>
<use x="95.410156" xlink:href="#n"/>
<use x="159.033203" xlink:href="#y"/>
</g>
</g>
<g clip-path="url(#a)">
<g transform="translate(1434.2 677.36) scale(.1 -.1)">
<use xlink:href="#c"/>
<use x="63.623047" xlink:href="#e"/>
<use x="95.410156" xlink:href="#ab"/>
<use x="159.033203" xlink:href="#ac"/>
</g>
</g>
<defs>
<clipPath id="a">
<rect width="1520" height="800"/>
</clipPath>
</defs>
</svg>
