<?xml version="1.0" encoding="UTF-8"?>
<!DOCTYPE svg  PUBLIC '-//W3C//DTD SVG 1.1//EN'  'http://www.w3.org/Graphics/SVG/1.1/DTD/svg11.dtd'>
<svg width="1773.3pt" height="933.33pt" version="1.1" viewBox="0 0 1773.3 933.33" xmlns="http://www.w3.org/2000/svg" xmlns:xlink="http://www.w3.org/1999/xlink">
<defs>
<style type="text/css">*{stroke-linecap:butt;stroke-linejoin:round;}</style>
</defs>
<path d="m0 933.33h1773.3v-933.33h-1773.3z" fill="#fff"/>
<g fill="none" stroke="#000">
<path d="m742.32 43.532-661.55 680.48" clip-path="url(#a)"/>
<path d="m742.32 43.532-543.03 514.68" clip-path="url(#a)"/>
<path d="m742.32 43.532 13.892 175.24" clip-path="url(#a)"/>
<path d="m742.32 43.532 523.59 680.48" clip-path="url(#a)"/>
<path d="m742.32 43.532 615.44 346.58" clip-path="url(#a)"/>
<path d="m742.32 43.532-424.52 680.48" clip-path="url(#a)"/>
<path d="m742.32 43.532 476.18 680.48" clip-path="url(#a)"/>
<path d="m80.773 724.01v165.79" clip-path="url(#a)"/>
<path d="m199.29 558.21-71.108 165.79" clip-path="url(#a)"/>
<path d="m199.29 558.21-23.703 165.79" clip-path="url(#a)"/>
<path d="m199.29 558.21 23.703 165.79" clip-path="url(#a)"/>
<path d="m199.29 558.21 71.108 165.79" clip-path="url(#a)"/>
<path d="m756.21 218.77-391.01 505.23" clip-path="url(#a)"/>
<path d="m756.21 218.77-343.6 505.23" clip-path="url(#a)"/>
<path d="m756.21 218.77-0.35115 171.34" clip-path="url(#a)"/>
<path d="m756.21 218.77 320.08 339.44" clip-path="url(#a)"/>
<path d="m756.21 218.77 414.89 505.23" clip-path="url(#a)"/>
<path d="m1265.9 724.01v165.79" clip-path="url(#a)"/>
<path d="m1357.8 390.11-91.848 333.9" clip-path="url(#a)" stroke-dasharray="3.7,1.6"/>
<path d="m1357.8 390.11-44.443 333.9" clip-path="url(#a)"/>
<path d="m1357.8 390.11 50.368 333.9" clip-path="url(#a)"/>
<path d="m1357.8 390.11 168.88 168.1" clip-path="url(#a)"/>
<path d="m1357.8 390.11 239.99 333.9" clip-path="url(#a)"/>
<path d="m1357.8 390.11 287.4 333.9" clip-path="url(#a)"/>
<path d="m1357.8 390.11-945.15 333.9" clip-path="url(#a)" stroke-dasharray="3.7,1.6"/>
<path d="m1357.8 390.11 334.8 333.9" clip-path="url(#a)"/>
<path d="m1313.3 724.01v165.79" clip-path="url(#a)"/>
<path d="m1408.1 724.01-47.406 165.79" clip-path="url(#a)"/>
<path d="m1408.1 724.01v165.79" clip-path="url(#a)"/>
<path d="m1408.1 724.01 47.406 165.79" clip-path="url(#a)"/>
<path d="m1526.6 558.21-23.703 165.79" clip-path="url(#a)"/>
<path d="m1526.6 558.21 23.703 165.79" clip-path="url(#a)"/>
<path d="m1597.7 724.01v165.79" clip-path="url(#a)"/>
<path d="m1645.2 724.01v165.79" clip-path="url(#a)"/>
<path d="m1502.9 724.01v165.79" clip-path="url(#a)"/>
<path d="m1550.3 724.01v165.79" clip-path="url(#a)"/>
<path d="m365.21 724.01v165.79" clip-path="url(#a)"/>
<path d="m412.61 724.01v165.79" clip-path="url(#a)"/>
<path d="m755.86 390.11-272.14 333.9" clip-path="url(#a)"/>
<path d="m755.86 390.11 12.29 168.1" clip-path="url(#a)"/>
<path d="m755.86 390.11-106.22 333.9" clip-path="url(#a)"/>
<path d="m755.86 390.11 83.399 168.1" clip-path="url(#a)"/>
<path d="m755.86 390.11-11.412 333.9" clip-path="url(#a)"/>
<path d="m755.86 390.11 115 168.1" clip-path="url(#a)"/>
<path d="m755.86 390.11 130.8 333.9" clip-path="url(#a)"/>
<path d="m755.86 390.11 201.91 168.1" clip-path="url(#a)"/>
<path d="m755.86 390.11-153.63 333.9" clip-path="url(#a)"/>
<path d="m1076.3 558.21-47.406 165.79" clip-path="url(#a)"/>
<path d="m1076.3 558.21v165.79" clip-path="url(#a)"/>
<path d="m1076.3 558.21 47.406 165.79" clip-path="url(#a)"/>
<path d="m1171.1 724.01v165.79" clip-path="url(#a)"/>
<path d="m1028.9 724.01v165.79" clip-path="url(#a)"/>
<path d="m1076.3 724.01v165.79" clip-path="url(#a)"/>
<path d="m1123.7 724.01v165.79" clip-path="url(#a)"/>
<path d="m483.72 724.01-23.703 165.79" clip-path="url(#a)"/>
<path d="m483.72 724.01 23.703 165.79" clip-path="url(#a)"/>
<path d="m768.15 558.21 213.32 165.79" clip-path="url(#a)" stroke-dasharray="3.7,1.6"/>
<path d="m768.15 558.21-213.32 165.79" clip-path="url(#a)"/>
<path d="m649.64 724.01v165.79" clip-path="url(#a)"/>
<path d="m839.26 558.21 142.22 165.79" clip-path="url(#a)" stroke-dasharray="3.7,1.6"/>
<path d="m839.26 558.21-142.22 165.79" clip-path="url(#a)"/>
<path d="m744.45 724.01v165.79" clip-path="url(#a)"/>
<path d="m870.86 558.21 110.61 165.79" clip-path="url(#a)" stroke-dasharray="3.7,1.6"/>
<path d="m870.86 558.21-79.009 165.79" clip-path="url(#a)"/>
<path d="m870.86 558.21-31.604 165.79" clip-path="url(#a)"/>
<path d="m886.67 724.01v165.79" clip-path="url(#a)"/>
<path d="m957.77 558.21-23.703 165.79" clip-path="url(#a)"/>
<path d="m957.77 558.21 23.703 165.79" clip-path="url(#a)"/>
<path d="m934.07 724.01v165.79" clip-path="url(#a)"/>
<path d="m981.48 724.01v165.79" clip-path="url(#a)"/>
<path d="m791.86 724.01v165.79" clip-path="url(#a)"/>
<path d="m839.26 724.01v165.79" clip-path="url(#a)"/>
<path d="m697.04 724.01v165.79" clip-path="url(#a)"/>
<path d="m554.83 724.01v165.79" clip-path="url(#a)"/>
<path d="m128.18 724.01v165.79" clip-path="url(#a)"/>
<path d="m175.58 724.01v165.79" clip-path="url(#a)"/>
<path d="m222.99 724.01v165.79" clip-path="url(#a)"/>
<path d="m270.39 724.01v165.79" clip-path="url(#a)"/>
<path d="m317.8 724.01v165.79" clip-path="url(#a)"/>
<path d="m602.23 724.01v165.79" clip-path="url(#a)"/>
<path d="m1218.5 724.01v165.79" clip-path="url(#a)"/>
<path d="m1692.6 724.01v165.79" clip-path="url(#a)"/>
</g>
<path d="m414.49 389.74 3.1072-3.1961q1.673-1.7208-0.047863-3.3938l-5.5514-5.397q-1.7208-1.673-3.3938 0.047862l-3.1072 3.1961q-1.673 1.7208 0.047863 3.3938l5.5514 5.397q1.7208 1.673 3.3938-0.047862z" clip-path="url(#a)" fill="#fff" stroke="#fff"/>
<g clip-path="url(#a)">
<defs>
<path id="aq" d="m9.8125 72.906h9.8594v-64.609h35.5v-8.2969h-45.359z"/>
</defs>
<g transform="translate(411.58 386.91) rotate(-45.808) scale(.08 -.08)">
<use xlink:href="#aq"/>
</g>
</g>
<path d="m472.93 307.49 4.3666-4.1386q1.7419-1.651 0.090954-3.3929l-5.3261-5.6195q-1.651-1.7419-3.3929-0.090954l-4.3666 4.1386q-1.7419 1.651-0.090953 3.3929l5.3261 5.6195q1.651 1.7419 3.3929 0.090953z" clip-path="url(#a)" fill="#fff" stroke="#fff"/>
<g clip-path="url(#a)">
<defs>
<path id="aj" d="m9.8125 72.906h9.8594v-29.891h35.844v29.891h9.8594v-72.906h-9.8594v34.719h-35.844v-34.719h-9.8594z"/>
</defs>
<g transform="translate(470.14 304.54) rotate(-43.464) scale(.08 -.08)">
<use xlink:href="#aj"/>
</g>
</g>
<path d="m742.78 128.65 0.47545 5.9974q0.18967 2.3925 2.5822 2.2028l7.7183-0.61187q2.3925-0.18967 2.2028-2.5822l-0.47545-5.9974q-0.18967-2.3925-2.5822-2.2028l-7.7183 0.61187q-2.3925 0.18967-2.2028 2.5822z" clip-path="url(#a)" fill="#fff" stroke="#fff"/>
<g clip-path="url(#a)">
<g transform="translate(746.83 128.33) rotate(85.467) scale(.08 -.08)">
<use xlink:href="#aj"/>
</g>
</g>
<path d="m997.79 385.83 2.7183 3.5328q1.4636 1.9021 3.3657 0.43854l6.1362-4.7215q1.9021-1.4636 0.43853-3.3657l-2.7183-3.5328q-1.4636-1.9021-3.3657-0.43853l-6.1362 4.7215q-1.9021 1.4636-0.43854 3.3657z" clip-path="url(#a)" fill="#fff" stroke="#fff"/>
<g clip-path="url(#a)">
<g transform="translate(1001 383.35) rotate(52.424) scale(.08 -.08)">
<use xlink:href="#aq"/>
</g>
</g>
<path d="m1044.3 220.81 5.2422 2.9521q2.0912 1.1776 3.2689-0.91356l3.7991-6.7463q1.1776-2.0912-0.91356-3.2689l-5.2422-2.9521q-2.0912-1.1776-3.2689 0.91356l-3.7991 6.7463q-1.1776 2.0912 0.91356 3.2689z" clip-path="url(#a)" fill="#fff" stroke="#fff"/>
<g clip-path="url(#a)">
<g transform="translate(1046.3 217.27) rotate(29.386) scale(.08 -.08)">
<use xlink:href="#aj"/>
</g>
</g>
<path d="m533.83 389.57 3.0991-4.9676q1.2703-2.0362-0.76591-3.3066l-6.569-4.0981q-2.0362-1.2703-3.3066 0.76591l-3.0991 4.9676q-1.2703 2.0362 0.76591 3.3066l6.569 4.0981q2.0362 1.2703 3.3066-0.76591z" clip-path="url(#a)" fill="#fff" stroke="#fff"/>
<g clip-path="url(#a)">
<defs>
<path id="ad" d="m8.6875 72.906h9.9219v-44.297q0-11.719 4.2344-16.875 4.25-5.1406 13.781-5.1406 9.4688 0 13.719 5.1406 4.25 5.1562 4.25 16.875v44.297h9.9062v-45.516q0-14.25-7.0625-21.531-7.0469-7.2812-20.812-7.2812-13.828 0-20.891 7.2812-7.0469 7.2812-7.0469 21.531z"/>
</defs>
<g transform="translate(530.38 387.42) rotate(-58.042) scale(.08 -.08)">
<use xlink:href="#ad"/>
</g>
</g>
<path d="m973.6 384.97 3.3569 4.7971q1.376 1.9664 3.3424 0.59034l6.3436-4.4391q1.9664-1.376 0.59034-3.3424l-3.3569-4.7971q-1.376-1.9664-3.3424-0.59034l-6.3436 4.4391q-1.9664 1.376-0.59034 3.3424z" clip-path="url(#a)" fill="#fff" stroke="#fff"/>
<g clip-path="url(#a)">
<g transform="translate(976.93 382.64) rotate(55.016) scale(.08 -.08)">
<use xlink:href="#ad"/>
</g>
</g>
<path d="m74.501 789.26v35.285q0 2.4 2.4 2.4h7.7425q2.4 0 2.4-2.4v-35.285q0-2.4-2.4-2.4h-7.7425q-2.4 0-2.4 2.4z" clip-path="url(#a)" fill="#fff" stroke="#fff"/>
<g clip-path="url(#a)">
<defs>
<path id="k" d="m-0.29688 72.906h61.672v-8.3125h-25.875v-64.594h-9.9062v64.594h-25.891z"/>
<path id="c" d="m56.203 29.594v-4.3906h-41.312q0.59375-9.2812 5.5938-14.141t13.938-4.8594q5.1719 0 10.031 1.2656t9.6562 3.8125v-8.5q-4.8438-2.0469-9.9219-3.125t-10.297-1.0781q-13.094 0-20.734 7.6094-7.6406 7.625-7.6406 20.625 0 13.422 7.25 21.297 7.25 7.8906 19.562 7.8906 11.031 0 17.453-7.1094 6.4219-7.0938 6.4219-19.297zm-8.9844 2.6406q-0.09375 7.3594-4.125 11.75-4.0312 4.4062-10.672 4.4062-7.5156 0-12.031-4.25t-5.2031-11.969z"/>
<path id="f" d="m41.109 46.297q-1.5156 0.875-3.2969 1.2812-1.7812 0.42188-3.9219 0.42188-7.625 0-11.703-4.9531t-4.0781-14.234v-28.812h-9.0312v54.688h9.0312v-8.5q2.8438 4.9844 7.375 7.3906 4.5469 2.4219 11.047 2.4219 0.92188 0 2.0469-0.125 1.125-0.10938 2.4844-0.35938z"/>
<path id="l" d="m52 44.188q3.375 6.0625 8.0625 8.9375t11.031 2.875q8.5469 0 13.188-5.9844 4.6406-5.9688 4.6406-17v-33.016h-9.0312v32.719q0 7.8594-2.7969 11.656-2.7812 3.8125-8.4844 3.8125-6.9844 0-11.047-4.6406-4.0469-4.625-4.0469-12.641v-30.906h-9.0312v32.719q0 7.9062-2.7812 11.688t-8.5938 3.7812q-6.8906 0-10.953-4.6562-4.0469-4.6562-4.0469-12.625v-30.906h-9.0312v54.688h9.0312v-8.5q3.0781 5.0312 7.375 7.4219t10.203 2.3906q5.9688 0 10.141-3.0312 4.1719-3.0156 6.1719-8.7812z"/>
<path id="g" d="m9.4219 54.688h8.9844v-54.688h-8.9844zm0 21.297h8.9844v-11.391h-8.9844z"/>
<path id="d" d="m54.891 33.016v-33.016h-8.9844v32.719q0 7.7656-3.0312 11.609-3.0312 3.8594-9.0781 3.8594-7.2812 0-11.484-4.6406-4.2031-4.625-4.2031-12.641v-30.906h-9.0312v54.688h9.0312v-8.5q3.2344 4.9375 7.5938 7.375 4.375 2.4375 10.094 2.4375 9.4219 0 14.25-5.8281 4.8438-5.8281 4.8438-17.156z"/>
<path id="i" d="m34.281 27.484q-10.891 0-15.094-2.4844t-4.2031-8.5q0-4.7812 3.1562-7.5938 3.1562-2.7969 8.5625-2.7969 7.4844 0 12 5.2969t4.5156 14.078v2zm17.922 3.7188v-31.203h-8.9844v8.2969q-3.0781-4.9688-7.6719-7.3438t-11.234-2.375q-8.3906 0-13.359 4.7188-4.9531 4.7188-4.9531 12.625 0 9.2188 6.1719 13.906 6.1875 4.6875 18.438 4.6875h12.609v0.89062q0 6.2031-4.0781 9.5938t-11.453 3.3906q-4.6875 0-9.1406-1.125-4.4375-1.125-8.5312-3.375v8.3125q4.9219 1.9062 9.5625 2.8438 4.6406 0.95312 9.0312 0.95312 11.875 0 17.734-6.1562 5.8594-6.1406 5.8594-18.641z"/>
<path id="j" d="m9.4219 75.984h8.9844v-75.984h-8.9844z"/>
</defs>
<g transform="translate(78.565 789.26) rotate(90) scale(.08 -.08)">
<use xlink:href="#k"/>
<use x="60.818359" xlink:href="#c"/>
<use x="122.341797" xlink:href="#f"/>
<use x="163.439453" xlink:href="#l"/>
<use x="260.851562" xlink:href="#g"/>
<use x="288.634766" xlink:href="#d"/>
<use x="352.013672" xlink:href="#i"/>
<use x="413.292969" xlink:href="#j"/>
</g>
</g>
<path d="m168.42 646.1 2.1571-5.0294q0.94601-2.2057-1.2597-3.1517l-7.1156-3.0519q-2.2057-0.94601-3.1517 1.2597l-2.1571 5.0294q-0.94601 2.2057 1.2597 3.1517l7.1156 3.0519q2.2057 0.94601 3.1517-1.2597z" clip-path="url(#a)" fill="#fff" stroke="#fff"/>
<g clip-path="url(#a)">
<defs>
<path id="v" d="m34.188 63.188-13.391-36.281h26.812zm-5.5781 9.7188h11.188l27.781-72.906h-10.25l-6.6406 18.703h-32.859l-6.6406-18.703h-10.406z"/>
</defs>
<g transform="translate(164.68 644.49) rotate(-66.786) scale(.08 -.08)">
<use xlink:href="#v"/>
</g>
</g>
<path d="m193.26 644.71 0.7745-5.4174q0.33966-2.3758-2.0362-2.7155l-7.6646-1.0958q-2.3758-0.33966-2.7155 2.0362l-0.7745 5.4174q-0.33966 2.3758 2.0362 2.7155l7.6646 1.0958q2.3758 0.33966 2.7155-2.0362z" clip-path="url(#a)" fill="#fff" stroke="#fff"/>
<g clip-path="url(#a)">
<g transform="translate(189.23 644.13) rotate(-81.864) scale(.08 -.08)">
<use xlink:href="#v"/>
</g>
</g>
<path d="m204.49 638.95 0.8718 6.098q0.33966 2.3758 2.7155 2.0362l7.6646-1.0958q2.3758-0.33966 2.0362-2.7155l-0.8718-6.098q-0.33966-2.3758-2.7155-2.0362l-7.6646 1.0958q-2.3758 0.33966-2.0362 2.7155z" clip-path="url(#a)" fill="#fff" stroke="#fff"/>
<g clip-path="url(#a)">
<defs>
<path id="z" d="m19.672 64.797v-56.688h11.922q15.094 0 22.094 6.8281 7 6.8438 7 21.594 0 14.641-7 21.453t-22.094 6.8125zm-9.8594 8.1094h20.266q21.188 0 31.094-8.8125 9.9219-8.8125 9.9219-27.562 0-18.859-9.9688-27.703-9.9531-8.8281-31.047-8.8281h-20.266z"/>
</defs>
<g transform="translate(208.52 638.37) rotate(81.864) scale(.08 -.08)">
<use xlink:href="#z"/>
</g>
</g>
<path d="m228.08 641.25 2.0019 4.6676q0.94601 2.2057 3.1517 1.2597l7.1156-3.0519q2.2057-0.94601 1.2597-3.1517l-2.0019-4.6676q-0.94601-2.2057-3.1517-1.2597l-7.1156 3.0519q-2.2057 0.94601-1.2597 3.1517z" clip-path="url(#a)" fill="#fff" stroke="#fff"/>
<g clip-path="url(#a)">
<defs>
<path id="ai" d="m53.516 70.516v-9.625q-5.6094 2.6875-10.594 4-4.9844 1.3281-9.625 1.3281-8.0469 0-12.422-3.125t-4.375-8.8906q0-4.8438 2.9062-7.3125 2.9062-2.4531 11.016-3.9688l5.9531-1.2188q11.031-2.1094 16.281-7.4062t5.25-14.172q0-10.609-7.1094-16.078-7.0938-5.4688-20.812-5.4688-5.1719 0-11.016 1.1719-5.8281 1.1719-12.078 3.4688v10.156q6-3.3594 11.766-5.0781 5.7656-1.7031 11.328-1.7031 8.4375 0 13.031 3.3125 4.5938 3.3281 4.5938 9.4844 0 5.3594-3.2969 8.3906t-10.812 4.5469l-6.0156 1.1719q-11.031 2.1875-15.969 6.875-4.9219 4.6875-4.9219 13.047 0 9.6719 6.8125 15.234t18.766 5.5625q5.1406 0 10.453-0.9375 5.3281-0.92188 10.891-2.7656z"/>
</defs>
<g transform="translate(231.81 639.65) rotate(66.786) scale(.08 -.08)">
<use xlink:href="#ai"/>
</g>
</g>
<path d="m563.78 477.66 3.7701-4.8715q1.4689-1.898-0.42911-3.3669l-6.123-4.7387q-1.898-1.4689-3.3669 0.42911l-3.7701 4.8715q-1.4689 1.898 0.42911 3.3669l6.123 4.7387q1.898 1.4689 3.3669-0.42911z" clip-path="url(#a)" fill="#fff" stroke="#fff"/>
<g clip-path="url(#a)">
<g transform="translate(560.57 475.18) rotate(-52.263) scale(.08 -.08)">
<use xlink:href="#z"/>
</g>
</g>
<path d="m588.06 477.18 3.0775-4.5252q1.3497-1.9845-0.63488-3.3342l-6.4022-4.3541q-1.9845-1.3497-3.3342 0.63488l-3.0775 4.5252q-1.3497 1.9845 0.63488 3.3342l6.4022 4.3541q1.9845 1.3497 3.3342-0.63488z" clip-path="url(#a)" fill="#fff" stroke="#fff"/>
<g clip-path="url(#a)">
<g transform="translate(584.7 474.89) rotate(-55.781) scale(.08 -.08)">
<use xlink:href="#v"/>
</g>
</g>
<path d="m762.3 307.19 0.011216-5.4725q0.004918-2.4-2.3951-2.4049l-7.7425-0.015868q-2.4-0.004919-2.4049 2.3951l-0.011216 5.4725q-0.004919 2.4 2.3951 2.4049l7.7425 0.015868q2.4 0.004919 2.4049-2.3951z" clip-path="url(#a)" fill="#fff" stroke="#fff"/>
<g clip-path="url(#a)">
<g transform="translate(758.24 307.18) rotate(-89.883) scale(.08 -.08)">
<use xlink:href="#v"/>
</g>
</g>
<path d="m910.01 391.02 3.3522 3.555q1.6465 1.7461 3.3927 0.09961l5.6331-5.3117q1.7461-1.6465 0.099609-3.3926l-3.3522-3.555q-1.6465-1.7461-3.3927-0.09961l-5.6331 5.3117q-1.7461 1.6465-0.09961 3.3927z" clip-path="url(#a)" fill="#fff" stroke="#fff"/>
<g clip-path="url(#a)">
<g transform="translate(912.97 388.23) rotate(46.682) scale(.08 -.08)">
<use xlink:href="#k"/>
</g>
</g>
<path d="m957.28 473.51 3.0613 3.7279q1.5231 1.8548 3.3779 0.33168l5.9836-4.9136q1.8548-1.5231 0.33168-3.3779l-3.0613-3.7279q-1.5231-1.8548-3.3779-0.33168l-5.9836 4.9136q-1.8548 1.5231-0.33168 3.3779z" clip-path="url(#a)" fill="#fff" stroke="#fff"/>
<g clip-path="url(#a)">
<defs>
<path id="ap" d="m19.672 64.797v-27.391h12.406q6.8906 0 10.641 3.5625 3.7656 3.5625 3.7656 10.156 0 6.5469-3.7656 10.109-3.75 3.5625-10.641 3.5625zm-9.8594 8.1094h22.266q12.266 0 18.531-5.5469 6.2812-5.5469 6.2812-16.234 0-10.797-6.2812-16.312-6.2656-5.5156-18.531-5.5156h-12.406v-29.297h-9.8594z"/>
</defs>
<g transform="translate(960.42 470.93) rotate(50.608) scale(.08 -.08)">
<use xlink:href="#ap"/>
</g>
</g>
<path d="m1259.6 789.26v35.285q0 2.4 2.4 2.4h7.7425q2.4 0 2.4-2.4v-35.285q0-2.4-2.4-2.4h-7.7425q-2.4 0-2.4 2.4z" clip-path="url(#a)" fill="#fff" stroke="#fff"/>
<g clip-path="url(#a)">
<g transform="translate(1263.7 789.26) rotate(90) scale(.08 -.08)">
<use xlink:href="#k"/>
<use x="60.818359" xlink:href="#c"/>
<use x="122.341797" xlink:href="#f"/>
<use x="163.439453" xlink:href="#l"/>
<use x="260.851562" xlink:href="#g"/>
<use x="288.634766" xlink:href="#d"/>
<use x="352.013672" xlink:href="#i"/>
<use x="413.292969" xlink:href="#j"/>
</g>
</g>
<path d="m1317.1 561.69 1.6338-5.9394q0.63655-2.314-1.6775-2.9506l-7.4652-2.0535q-2.314-0.63655-2.9506 1.6775l-1.6338 5.9394q-0.63655 2.314 1.6775 2.9506l7.4652 2.0535q2.314 0.63655 2.9506-1.6775z" clip-path="url(#a)" fill="#fff" stroke="#fff"/>
<g clip-path="url(#a)">
<g transform="translate(1313.1 560.61) rotate(-74.619) scale(.08 -.08)">
<use xlink:href="#z"/>
</g>
</g>
<path d="m1341.3 560.94 0.81275-6.1061q0.31666-2.379-2.0624-2.6957l-7.6748-1.0215q-2.379-0.31666-2.6957 2.0624l-0.81275 6.1061q-0.31666 2.379 2.0624 2.6957l7.6748 1.0215q2.379 0.31666 2.6957-2.0624z" clip-path="url(#a)" fill="#fff" stroke="#fff"/>
<g clip-path="url(#a)">
<g transform="translate(1337.3 560.4) rotate(-82.418) scale(.08 -.08)">
<use xlink:href="#z"/>
</g>
</g>
<path d="m1376.3 554.95 0.91884 6.0911q0.35799 2.3732 2.7311 2.0152l7.6559-1.1549q2.3732-0.35799 2.0152-2.7311l-0.91884-6.0911q-0.35799-2.3732-2.7311-2.0152l-7.6559 1.1549q-2.3732 0.35799-2.0152 2.7311z" clip-path="url(#a)" fill="#fff" stroke="#fff"/>
<g clip-path="url(#a)">
<g transform="translate(1380.3 554.34) rotate(81.422) scale(.08 -.08)">
<use xlink:href="#z"/>
</g>
</g>
<path d="m1435.8 476.68 3.8786 3.8607q1.701 1.6931 3.3941-0.007869l5.4621-5.4875q1.6931-1.701-0.007869-3.3941l-3.8786-3.8607q-1.701-1.6931-3.3941 0.007869l-5.4621 5.4875q-1.6931 1.701 0.007869 3.3941z" clip-path="url(#a)" fill="#fff" stroke="#fff"/>
<g clip-path="url(#a)">
<g transform="translate(1438.7 473.8) rotate(44.867) scale(.08 -.08)">
<use xlink:href="#v"/>
</g>
</g>
<path d="m1471.3 558.85 2.6855 3.7363q1.4007 1.9488 3.3496 0.54809l6.287-4.5188q1.9488-1.4007 0.54809-3.3496l-2.6855-3.7363q-1.4007-1.9488-3.3496-0.54809l-6.287 4.5188q-1.9488 1.4007-0.54809 3.3496z" clip-path="url(#a)" fill="#fff" stroke="#fff"/>
<g clip-path="url(#a)">
<defs>
<path id="ay" d="m9.8125 72.906h41.891v-8.3125h-32.031v-21.484h28.906v-8.2969h-28.906v-34.812h-9.8594z"/>
</defs>
<g transform="translate(1474.6 556.48) rotate(54.293) scale(.08 -.08)">
<use xlink:href="#ay"/>
</g>
</g>
<path d="m1495.1 559.32 3.1468 3.656q1.5657 1.819 3.3846 0.25332l5.8681-5.0509q1.819-1.5657 0.25332-3.3846l-3.1468-3.656q-1.5657-1.819-3.3846-0.25332l-5.8681 5.0509q-1.819 1.5657-0.25332 3.3846z" clip-path="url(#a)" fill="#fff" stroke="#fff"/>
<g clip-path="url(#a)">
<g transform="translate(1498.2 556.67) rotate(49.28) scale(.08 -.08)">
<use xlink:href="#ap"/>
</g>
</g>
<path d="m884.69 563.88 5.16-1.8229q2.2629-0.79944 1.4635-3.0624l-2.579-7.3003q-0.79944-2.2629-3.0624-1.4635l-5.16 1.8229q-2.2629 0.79944-1.4635 3.0624l2.579 7.3003q0.79944 2.2629 3.0624 1.4635z" clip-path="url(#a)" fill="#fff" stroke="#fff"/>
<g clip-path="url(#a)">
<g transform="translate(883.34 560.05) rotate(-19.457) scale(.08 -.08)">
<use xlink:href="#v"/>
</g>
</g>
<path d="m1518.7 559.43 4.1457 4.1345q1.6994 1.6948 3.3941-0.004599l5.4674-5.4822q1.6948-1.6994-0.004599-3.3941l-4.1457-4.1345q-1.6994-1.6948-3.3941 0.004599l-5.4674 5.4822q-1.6948 1.6994 0.004599 3.3941z" clip-path="url(#a)" fill="#fff" stroke="#fff"/>
<g clip-path="url(#a)">
<g transform="translate(1521.5 556.56) rotate(44.922) scale(.08 -.08)">
<use xlink:href="#ad"/>
</g>
</g>
<path d="m1307 789.26v35.285q0 2.4 2.4 2.4h7.7425q2.4 0 2.4-2.4v-35.285q0-2.4-2.4-2.4h-7.7425q-2.4 0-2.4 2.4z" clip-path="url(#a)" fill="#fff" stroke="#fff"/>
<g clip-path="url(#a)">
<g transform="translate(1311.1 789.26) rotate(90) scale(.08 -.08)">
<use xlink:href="#k"/>
<use x="60.818359" xlink:href="#c"/>
<use x="122.341797" xlink:href="#f"/>
<use x="163.439453" xlink:href="#l"/>
<use x="260.851562" xlink:href="#g"/>
<use x="288.634766" xlink:href="#d"/>
<use x="352.013672" xlink:href="#i"/>
<use x="413.292969" xlink:href="#j"/>
</g>
</g>
<path d="m1385.6 825.59 9.7003-33.925q0.65979-2.3075-1.6477-2.9673l-7.4442-2.1285q-2.3075-0.65979-2.9673 1.6477l-9.7003 33.925q-0.65979 2.3075 1.6477 2.9673l7.4442 2.1285q2.3075 0.65979 2.9673-1.6477z" clip-path="url(#a)" fill="#fff" stroke="#fff"/>
<g clip-path="url(#a)">
<g transform="translate(1381.7 824.47) rotate(-74.043) scale(.08 -.08)">
<use xlink:href="#k"/>
<use x="60.818359" xlink:href="#c"/>
<use x="122.341797" xlink:href="#f"/>
<use x="163.439453" xlink:href="#l"/>
<use x="260.851562" xlink:href="#g"/>
<use x="288.634766" xlink:href="#d"/>
<use x="352.013672" xlink:href="#i"/>
<use x="413.292969" xlink:href="#j"/>
</g>
</g>
<path d="m1401.9 789.26v35.285q0 2.4 2.4 2.4h7.7425q2.4 0 2.4-2.4v-35.285q0-2.4-2.4-2.4h-7.7425q-2.4 0-2.4 2.4z" clip-path="url(#a)" fill="#fff" stroke="#fff"/>
<g clip-path="url(#a)">
<g transform="translate(1405.9 789.26) rotate(90) scale(.08 -.08)">
<use xlink:href="#k"/>
<use x="60.818359" xlink:href="#c"/>
<use x="122.341797" xlink:href="#f"/>
<use x="163.439453" xlink:href="#l"/>
<use x="260.851562" xlink:href="#g"/>
<use x="288.634766" xlink:href="#d"/>
<use x="352.013672" xlink:href="#i"/>
<use x="413.292969" xlink:href="#j"/>
</g>
</g>
<path d="m1421 791.67 9.7003 33.925q0.65979 2.3075 2.9673 1.6477l7.4442-2.1285q2.3075-0.65979 1.6477-2.9673l-9.7003-33.925q-0.65979-2.3075-2.9673-1.6477l-7.4442 2.1285q-2.3075 0.65979-1.6477 2.9673z" clip-path="url(#a)" fill="#fff" stroke="#fff"/>
<g clip-path="url(#a)">
<g transform="translate(1424.9 790.55) rotate(74.043) scale(.08 -.08)">
<use xlink:href="#k"/>
<use x="60.818359" xlink:href="#c"/>
<use x="122.341797" xlink:href="#f"/>
<use x="163.439453" xlink:href="#l"/>
<use x="260.851562" xlink:href="#g"/>
<use x="288.634766" xlink:href="#d"/>
<use x="352.013672" xlink:href="#i"/>
<use x="413.292969" xlink:href="#j"/>
</g>
</g>
<path d="m1520.6 644.5 0.71541-5.0041q0.33966-2.3758-2.0362-2.7155l-7.6646-1.0958q-2.3758-0.33966-2.7155 2.0362l-0.71541 5.0041q-0.33966 2.3758 2.0362 2.7155l7.6646 1.0958q2.3758 0.33966 2.7155-2.0362z" clip-path="url(#a)" fill="#fff" stroke="#fff"/>
<g clip-path="url(#a)">
<defs>
<path id="ar" d="m9.8125 72.906h46.094v-8.3125h-36.234v-21.578h34.719v-8.2969h-34.719v-26.422h37.109v-8.2969h-46.969z"/>
</defs>
<g transform="translate(1516.6 643.92) rotate(-81.864) scale(.08 -.08)">
<use xlink:href="#ar"/>
</g>
</g>
<path d="m1531.9 639.23 0.7906 5.53q0.33966 2.3758 2.7155 2.0362l7.6646-1.0958q2.3758-0.33966 2.0362-2.7155l-0.7906-5.53q-0.33966-2.3758-2.7155-2.0362l-7.6646 1.0958q-2.3758 0.33966-2.0362 2.7155z" clip-path="url(#a)" fill="#fff" stroke="#fff"/>
<g clip-path="url(#a)">
<defs>
<path id="p" d="m64.406 67.281v-10.391q-4.9844 4.6406-10.625 6.9219-5.6406 2.2969-11.984 2.2969-12.5 0-19.141-7.6406t-6.6406-22.094q0-14.406 6.6406-22.047t19.141-7.6406q6.3438 0 11.984 2.2969t10.625 6.9375v-10.312q-5.1719-3.5156-10.969-5.2812-5.7812-1.75-12.219-1.75-16.562 0-26.094 10.125-9.5156 10.141-9.5156 27.672 0 17.578 9.5156 27.703 9.5312 10.141 26.094 10.141 6.5312 0 12.312-1.7344 5.7969-1.7344 10.875-5.2031z"/>
</defs>
<g transform="translate(1535.9 638.66) rotate(81.864) scale(.08 -.08)">
<use xlink:href="#p"/>
</g>
</g>
<path d="m1591.5 789.26v35.285q0 2.4 2.4 2.4h7.7425q2.4 0 2.4-2.4v-35.285q0-2.4-2.4-2.4h-7.7425q-2.4 0-2.4 2.4z" clip-path="url(#a)" fill="#fff" stroke="#fff"/>
<g clip-path="url(#a)">
<g transform="translate(1595.5 789.26) rotate(90) scale(.08 -.08)">
<use xlink:href="#k"/>
<use x="60.818359" xlink:href="#c"/>
<use x="122.341797" xlink:href="#f"/>
<use x="163.439453" xlink:href="#l"/>
<use x="260.851562" xlink:href="#g"/>
<use x="288.634766" xlink:href="#d"/>
<use x="352.013672" xlink:href="#i"/>
<use x="413.292969" xlink:href="#j"/>
</g>
</g>
<path d="m1638.9 789.26v35.285q0 2.4 2.4 2.4h7.7425q2.4 0 2.4-2.4v-35.285q0-2.4-2.4-2.4h-7.7425q-2.4 0-2.4 2.4z" clip-path="url(#a)" fill="#fff" stroke="#fff"/>
<g clip-path="url(#a)">
<g transform="translate(1642.9 789.26) rotate(90) scale(.08 -.08)">
<use xlink:href="#k"/>
<use x="60.818359" xlink:href="#c"/>
<use x="122.341797" xlink:href="#f"/>
<use x="163.439453" xlink:href="#l"/>
<use x="260.851562" xlink:href="#g"/>
<use x="288.634766" xlink:href="#d"/>
<use x="352.013672" xlink:href="#i"/>
<use x="413.292969" xlink:href="#j"/>
</g>
</g>
<path d="m1496.7 789.26v35.285q0 2.4 2.4 2.4h7.7425q2.4 0 2.4-2.4v-35.285q0-2.4-2.4-2.4h-7.7425q-2.4 0-2.4 2.4z" clip-path="url(#a)" fill="#fff" stroke="#fff"/>
<g clip-path="url(#a)">
<g transform="translate(1500.7 789.26) rotate(90) scale(.08 -.08)">
<use xlink:href="#k"/>
<use x="60.818359" xlink:href="#c"/>
<use x="122.341797" xlink:href="#f"/>
<use x="163.439453" xlink:href="#l"/>
<use x="260.851562" xlink:href="#g"/>
<use x="288.634766" xlink:href="#d"/>
<use x="352.013672" xlink:href="#i"/>
<use x="413.292969" xlink:href="#j"/>
</g>
</g>
<path d="m1544.1 789.26v35.285q0 2.4 2.4 2.4h7.7425q2.4 0 2.4-2.4v-35.285q0-2.4-2.4-2.4h-7.7425q-2.4 0-2.4 2.4z" clip-path="url(#a)" fill="#fff" stroke="#fff"/>
<g clip-path="url(#a)">
<g transform="translate(1548.1 789.26) rotate(90) scale(.08 -.08)">
<use xlink:href="#k"/>
<use x="60.818359" xlink:href="#c"/>
<use x="122.341797" xlink:href="#f"/>
<use x="163.439453" xlink:href="#l"/>
<use x="260.851562" xlink:href="#g"/>
<use x="288.634766" xlink:href="#d"/>
<use x="352.013672" xlink:href="#i"/>
<use x="413.292969" xlink:href="#j"/>
</g>
</g>
<path d="m358.93 789.26v35.285q0 2.4 2.4 2.4h7.7425q2.4 0 2.4-2.4v-35.285q0-2.4-2.4-2.4h-7.7425q-2.4 0-2.4 2.4z" clip-path="url(#a)" fill="#fff" stroke="#fff"/>
<g clip-path="url(#a)">
<g transform="translate(363 789.26) rotate(90) scale(.08 -.08)">
<use xlink:href="#k"/>
<use x="60.818359" xlink:href="#c"/>
<use x="122.341797" xlink:href="#f"/>
<use x="163.439453" xlink:href="#l"/>
<use x="260.851562" xlink:href="#g"/>
<use x="288.634766" xlink:href="#d"/>
<use x="352.013672" xlink:href="#i"/>
<use x="413.292969" xlink:href="#j"/>
</g>
</g>
<path d="m406.34 789.26v35.285q0 2.4 2.4 2.4h7.7425q2.4 0 2.4-2.4v-35.285q0-2.4-2.4-2.4h-7.7425q-2.4 0-2.4 2.4z" clip-path="url(#a)" fill="#fff" stroke="#fff"/>
<g clip-path="url(#a)">
<g transform="translate(410.4 789.26) rotate(90) scale(.08 -.08)">
<use xlink:href="#k"/>
<use x="60.818359" xlink:href="#c"/>
<use x="122.341797" xlink:href="#f"/>
<use x="163.439453" xlink:href="#l"/>
<use x="260.851562" xlink:href="#g"/>
<use x="288.634766" xlink:href="#d"/>
<use x="352.013672" xlink:href="#i"/>
<use x="413.292969" xlink:href="#j"/>
</g>
</g>
<path d="m622.76 563.34 3.7812-4.6392q1.5163-1.8603-0.34406-3.3766l-6.0016-4.8916q-1.8603-1.5163-3.3766 0.34406l-3.7812 4.6392q-1.5163 1.8603 0.34406 3.3766l6.0016 4.8916q1.8603 1.5163 3.3766-0.34406z" clip-path="url(#a)" fill="#fff" stroke="#fff"/>
<g clip-path="url(#a)">
<defs>
<path id="ae" d="m9.8125 72.906h13.281l32.328-60.984v60.984h9.5625v-72.906h-13.281l-32.312 60.984v-60.984h-9.5781z"/>
</defs>
<g transform="translate(619.61 560.77) rotate(-50.818) scale(.08 -.08)">
<use xlink:href="#ae"/>
</g>
</g>
<path d="m755.55 471.83 0.40734 5.5714q0.175 2.3936 2.5686 2.2186l7.7219-0.56457q2.3936-0.175 2.2186-2.5686l-0.40734-5.5714q-0.175-2.3936-2.5686-2.2186l-7.7219 0.56457q-2.3936 0.175-2.2186 2.5686z" clip-path="url(#a)" fill="#fff" stroke="#fff"/>
<g clip-path="url(#a)">
<g transform="translate(759.6 471.54) rotate(85.818) scale(.08 -.08)">
<use xlink:href="#p"/>
</g>
</g>
<path d="m707.82 561.81 1.8144-5.7033q0.72759-2.2871-1.5595-3.0146l-7.3781-2.3472q-2.2871-0.72759-3.0146 1.5595l-1.8144 5.7033q-0.72759 2.2871 1.5595 3.0146l7.3781 2.3472q2.2871 0.72759 3.0146-1.5595z" clip-path="url(#a)" fill="#fff" stroke="#fff"/>
<g clip-path="url(#a)">
<g transform="translate(703.95 560.58) rotate(-72.352) scale(.08 -.08)">
<use xlink:href="#ae"/>
</g>
</g>
<path d="m790.7 474.45 2.4827 5.0042q1.0666 2.15 3.2166 1.0833l6.9358-3.441q2.15-1.0666 1.0833-3.2166l-2.4827-5.0042q-1.0666-2.1499-3.2166-1.0833l-6.9358 3.441q-2.15 1.0666-1.0833 3.2166z" clip-path="url(#a)" fill="#fff" stroke="#fff"/>
<g clip-path="url(#a)">
<g transform="translate(794.34 472.64) rotate(63.613) scale(.08 -.08)">
<use xlink:href="#p"/>
</g>
</g>
<path d="m756.32 560.26 0.20445-5.9815q0.081984-2.3986-2.3166-2.4806l-7.738-0.26448q-2.3986-0.081983-2.4806 2.3166l-0.20445 5.9815q-0.081983 2.3986 2.3166 2.4806l7.738 0.26448q2.3986 0.081983 2.4806-2.3166z" clip-path="url(#a)" fill="#fff" stroke="#fff"/>
<g clip-path="url(#a)">
<g transform="translate(752.26 560.13) rotate(-88.042) scale(.08 -.08)">
<use xlink:href="#ae"/>
</g>
</g>
<path d="m806.61 475.4 3.1542 4.6106q1.3551 1.9808 3.3359 0.62569l6.3902-4.3717q1.9808-1.3551 0.62569-3.3359l-3.1542-4.6106q-1.3551-1.9808-3.3359-0.62569l-6.3902 4.3717q-1.9808 1.3551-0.62569 3.3359z" clip-path="url(#a)" fill="#fff" stroke="#fff"/>
<g clip-path="url(#a)">
<g transform="translate(809.96 473.1) rotate(55.623) scale(.08 -.08)">
<use xlink:href="#p"/>
</g>
</g>
<path d="m814.33 556.56 2.1831 5.5726q0.87543 2.2346 3.1101 1.3592l7.2091-2.8242q2.2346-0.87542 1.3592-3.1101l-2.1831-5.5726q-0.87542-2.2346-3.1101-1.3592l-7.2091 2.8242q-2.2346 0.87542-1.3592 3.1101z" clip-path="url(#a)" fill="#fff" stroke="#fff"/>
<g clip-path="url(#a)">
<g transform="translate(818.12 555.08) rotate(68.607) scale(.08 -.08)">
<use xlink:href="#ae"/>
</g>
</g>
<path d="m850.66 477.19 4.2931 3.5742q1.8444 1.5356 3.38-0.30886l4.9539-5.9503q1.5356-1.8444-0.30886-3.38l-4.2931-3.5742q-1.8444-1.5356-3.38 0.30886l-4.9539 5.9503q-1.5356 1.8444 0.30886 3.38z" clip-path="url(#a)" fill="#fff" stroke="#fff"/>
<g clip-path="url(#a)">
<g transform="translate(853.26 474.07) rotate(39.779) scale(.08 -.08)">
<use xlink:href="#p"/>
</g>
</g>
<path d="m683.52 562.34 2.4473-5.319q1.0032-2.1803-1.1771-3.1835l-7.0337-3.2363q-2.1803-1.0032-3.1835 1.1771l-2.4473 5.319q-1.0032 2.1803 1.1771 3.1835l7.0337 3.2363q2.1803 1.0032 3.1835-1.1771z" clip-path="url(#a)" fill="#fff" stroke="#fff"/>
<g clip-path="url(#a)">
<g transform="translate(679.83 560.64) rotate(-65.292) scale(.08 -.08)">
<use xlink:href="#ad"/>
</g>
</g>
<path d="m1057.9 645.51 1.5282-5.3446q0.65979-2.3075-1.6477-2.9673l-7.4442-2.1285q-2.3075-0.65979-2.9673 1.6477l-1.5282 5.3446q-0.65979 2.3075 1.6477 2.9673l7.4442 2.1285q2.3075 0.65979 2.9673-1.6477z" clip-path="url(#a)" fill="#fff" stroke="#fff"/>
<g clip-path="url(#a)">
<defs>
<path id="aw" d="m44.391 34.188q3.1719-1.0781 6.1719-4.5938t6.0312-9.6719l10.016-19.922h-10.609l-9.3125 18.703q-3.625 7.3281-7.0156 9.7188t-9.25 2.3906h-10.75v-30.812h-9.8594v72.906h22.266q12.5 0 18.656-5.2344 6.1562-5.2188 6.1562-15.766 0-6.8906-3.2031-11.438-3.2031-4.5312-9.2969-6.2812zm-24.719 30.609v-25.875h12.406q7.125 0 10.766 3.2969t3.6406 9.6875-3.6406 9.6406-10.766 3.25z"/>
</defs>
<g transform="translate(1053.9 644.39) rotate(-74.043) scale(.08 -.08)">
<use xlink:href="#aw"/>
</g>
</g>
<path d="m1070 637.96v6.2975q0 2.4 2.4 2.4h7.7425q2.4 0 2.4-2.4v-6.2975q0-2.4-2.4-2.4h-7.7425q-2.4 0-2.4 2.4z" clip-path="url(#a)" fill="#fff" stroke="#fff"/>
<g clip-path="url(#a)">
<defs>
<path id="y" d="m39.406 66.219q-10.75 0-17.078-8.0156-6.3125-8-6.3125-21.828 0-13.766 6.3125-21.781 6.3281-8 17.078-8 10.734 0 17.016 8 6.2812 8.0156 6.2812 21.781 0 13.828-6.2812 21.828-6.2812 8.0156-17.016 8.0156zm13.812-64.906 13-14.203h-11.922l-10.797 11.672q-1.6094-0.09375-2.4688-0.14062-0.84375-0.0625-1.625-0.0625-15.375 0-24.594 10.281-9.2031 10.281-9.2031 27.516 0 17.281 9.2031 27.562 9.2188 10.281 24.594 10.281 15.328 0 24.5-10.281 9.1875-10.281 9.1875-27.562 0-12.688-5.1094-21.734-5.0938-9.0312-14.766-13.328z"/>
</defs>
<g transform="translate(1074.1 637.96) rotate(90) scale(.08 -.08)">
<use xlink:href="#y"/>
</g>
</g>
<path d="m1093.2 640.15 1.5357 5.371q0.65979 2.3075 2.9673 1.6477l7.4442-2.1285q2.3075-0.65979 1.6477-2.9673l-1.5357-5.371q-0.65979-2.3075-2.9673-1.6477l-7.4442 2.1285q-2.3075 0.65979-1.6477 2.9673z" clip-path="url(#a)" fill="#fff" stroke="#fff"/>
<g clip-path="url(#a)">
<g transform="translate(1097.1 639.03) rotate(74.043) scale(.08 -.08)">
<use xlink:href="#p"/>
</g>
</g>
<path d="m1164.8 789.26v35.285q0 2.4 2.4 2.4h7.7425q2.4 0 2.4-2.4v-35.285q0-2.4-2.4-2.4h-7.7425q-2.4 0-2.4 2.4z" clip-path="url(#a)" fill="#fff" stroke="#fff"/>
<g clip-path="url(#a)">
<g transform="translate(1168.9 789.26) rotate(90) scale(.08 -.08)">
<use xlink:href="#k"/>
<use x="60.818359" xlink:href="#c"/>
<use x="122.341797" xlink:href="#f"/>
<use x="163.439453" xlink:href="#l"/>
<use x="260.851562" xlink:href="#g"/>
<use x="288.634766" xlink:href="#d"/>
<use x="352.013672" xlink:href="#i"/>
<use x="413.292969" xlink:href="#j"/>
</g>
</g>
<path d="m1022.6 789.26v35.285q0 2.4 2.4 2.4h7.7425q2.4 0 2.4-2.4v-35.285q0-2.4-2.4-2.4h-7.7425q-2.4 0-2.4 2.4z" clip-path="url(#a)" fill="#fff" stroke="#fff"/>
<g clip-path="url(#a)">
<g transform="translate(1026.7 789.26) rotate(90) scale(.08 -.08)">
<use xlink:href="#k"/>
<use x="60.818359" xlink:href="#c"/>
<use x="122.341797" xlink:href="#f"/>
<use x="163.439453" xlink:href="#l"/>
<use x="260.851562" xlink:href="#g"/>
<use x="288.634766" xlink:href="#d"/>
<use x="352.013672" xlink:href="#i"/>
<use x="413.292969" xlink:href="#j"/>
</g>
</g>
<path d="m1070 789.26v35.285q0 2.4 2.4 2.4h7.7425q2.4 0 2.4-2.4v-35.285q0-2.4-2.4-2.4h-7.7425q-2.4 0-2.4 2.4z" clip-path="url(#a)" fill="#fff" stroke="#fff"/>
<g clip-path="url(#a)">
<g transform="translate(1074.1 789.26) rotate(90) scale(.08 -.08)">
<use xlink:href="#k"/>
<use x="60.818359" xlink:href="#c"/>
<use x="122.341797" xlink:href="#f"/>
<use x="163.439453" xlink:href="#l"/>
<use x="260.851562" xlink:href="#g"/>
<use x="288.634766" xlink:href="#d"/>
<use x="352.013672" xlink:href="#i"/>
<use x="413.292969" xlink:href="#j"/>
</g>
</g>
<path d="m1117.4 789.26v35.285q0 2.4 2.4 2.4h7.7425q2.4 0 2.4-2.4v-35.285q0-2.4-2.4-2.4h-7.7425q-2.4 0-2.4 2.4z" clip-path="url(#a)" fill="#fff" stroke="#fff"/>
<g clip-path="url(#a)">
<g transform="translate(1121.5 789.26) rotate(90) scale(.08 -.08)">
<use xlink:href="#k"/>
<use x="60.818359" xlink:href="#c"/>
<use x="122.341797" xlink:href="#f"/>
<use x="163.439453" xlink:href="#l"/>
<use x="260.851562" xlink:href="#g"/>
<use x="288.634766" xlink:href="#d"/>
<use x="352.013672" xlink:href="#i"/>
<use x="413.292969" xlink:href="#j"/>
</g>
</g>
<path d="m475.58 825.26 4.9937-34.93q0.33966-2.3758-2.0362-2.7155l-7.6646-1.0958q-2.3758-0.33966-2.7155 2.0362l-4.9937 34.93q-0.33966 2.3758 2.0362 2.7155l7.6646 1.0958q2.3758 0.33966 2.7155-2.0362z" clip-path="url(#a)" fill="#fff" stroke="#fff"/>
<g clip-path="url(#a)">
<g transform="translate(471.56 824.68) rotate(-81.864) scale(.08 -.08)">
<use xlink:href="#k"/>
<use x="60.818359" xlink:href="#c"/>
<use x="122.341797" xlink:href="#f"/>
<use x="163.439453" xlink:href="#l"/>
<use x="260.851562" xlink:href="#g"/>
<use x="288.634766" xlink:href="#d"/>
<use x="352.013672" xlink:href="#i"/>
<use x="413.292969" xlink:href="#j"/>
</g>
</g>
<path d="m486.87 790.33 4.9937 34.93q0.33966 2.3758 2.7155 2.0362l7.6646-1.0958q2.3758-0.33966 2.0362-2.7155l-4.9937-34.93q-0.33966-2.3758-2.7155-2.0362l-7.6646 1.0958q-2.3758 0.33966-2.0362 2.7155z" clip-path="url(#a)" fill="#fff" stroke="#fff"/>
<g clip-path="url(#a)">
<g transform="translate(490.89 789.75) rotate(81.864) scale(.08 -.08)">
<use xlink:href="#k"/>
<use x="60.818359" xlink:href="#c"/>
<use x="122.341797" xlink:href="#f"/>
<use x="163.439453" xlink:href="#l"/>
<use x="260.851562" xlink:href="#g"/>
<use x="288.634766" xlink:href="#d"/>
<use x="352.013672" xlink:href="#i"/>
<use x="413.292969" xlink:href="#j"/>
</g>
</g>
<path d="m868.76 644.35 4.4108 3.428q1.895 1.4728 3.3677-0.42222l4.7512-6.1133q1.4728-1.895-0.42222-3.3677l-4.4108-3.428q-1.895-1.4728-3.3677 0.42222l-4.7512 6.1133q-1.4728 1.895 0.42222 3.3678z" clip-path="url(#a)" fill="#fff" stroke="#fff"/>
<g clip-path="url(#a)">
<g transform="translate(871.26 641.14) rotate(37.854) scale(.08 -.08)">
<use xlink:href="#p"/>
</g>
</g>
<path d="m662.85 647.99 4.9724-3.8645q1.895-1.4728 0.42222-3.3677l-4.7512-6.1133q-1.4728-1.895-3.3677-0.42222l-4.9724 3.8645q-1.895 1.4728-0.42222 3.3677l4.7512 6.1133q1.4728 1.895 3.3677 0.42222z" clip-path="url(#a)" fill="#fff" stroke="#fff"/>
<g clip-path="url(#a)">
<g transform="translate(660.36 644.78) rotate(-37.854) scale(.08 -.08)">
<use xlink:href="#y"/>
</g>
</g>
<path d="m643.37 789.26v35.285q0 2.4 2.4 2.4h7.7425q2.4 0 2.4-2.4v-35.285q0-2.4-2.4-2.4h-7.7425q-2.4 0-2.4 2.4z" clip-path="url(#a)" fill="#fff" stroke="#fff"/>
<g clip-path="url(#a)">
<g transform="translate(647.43 789.26) rotate(90) scale(.08 -.08)">
<use xlink:href="#k"/>
<use x="60.818359" xlink:href="#c"/>
<use x="122.341797" xlink:href="#f"/>
<use x="163.439453" xlink:href="#l"/>
<use x="260.851562" xlink:href="#g"/>
<use x="288.634766" xlink:href="#d"/>
<use x="352.013672" xlink:href="#i"/>
<use x="413.292969" xlink:href="#j"/>
</g>
</g>
<path d="m903.79 643.07 3.6371 4.24q1.5626 1.8216 3.3842 0.25906l5.8767-5.0409q1.8216-1.5626 0.25906-3.3842l-3.6371-4.24q-1.5626-1.8216-3.3842-0.25906l-5.8767 5.0409q-1.8216 1.5626-0.25906 3.3842z" clip-path="url(#a)" fill="#fff" stroke="#fff"/>
<g clip-path="url(#a)">
<g transform="translate(906.88 640.43) rotate(49.377) scale(.08 -.08)">
<use xlink:href="#p"/>
</g>
</g>
<path d="m770.86 647.58 4.1001-4.7799q1.5626-1.8216-0.25906-3.3842l-5.8767-5.0409q-1.8216-1.5626-3.3842 0.25906l-4.1001 4.7799q-1.5626 1.8216 0.25906 3.3842l5.8767 5.0409q1.8216 1.5626 3.3842-0.25906z" clip-path="url(#a)" fill="#fff" stroke="#fff"/>
<g clip-path="url(#a)">
<g transform="translate(767.78 644.94) rotate(-49.377) scale(.08 -.08)">
<use xlink:href="#y"/>
</g>
</g>
<path d="m738.18 789.26v35.285q0 2.4 2.4 2.4h7.7425q2.4 0 2.4-2.4v-35.285q0-2.4-2.4-2.4h-7.7425q-2.4 0-2.4 2.4z" clip-path="url(#a)" fill="#fff" stroke="#fff"/>
<g clip-path="url(#a)">
<g transform="translate(742.24 789.26) rotate(90) scale(.08 -.08)">
<use xlink:href="#k"/>
<use x="60.818359" xlink:href="#c"/>
<use x="122.341797" xlink:href="#f"/>
<use x="163.439453" xlink:href="#l"/>
<use x="260.851562" xlink:href="#g"/>
<use x="288.634766" xlink:href="#d"/>
<use x="352.013672" xlink:href="#i"/>
<use x="413.292969" xlink:href="#j"/>
</g>
</g>
<path d="m919.4 642.27 3.1003 4.647q1.332 1.9965 3.3284 0.66448l6.4407-4.297q1.9965-1.332 0.66448-3.3284l-3.1003-4.647q-1.332-1.9965-3.3284-0.66448l-6.4407 4.297q-1.9965 1.332-0.66448 3.3284z" clip-path="url(#a)" fill="#fff" stroke="#fff"/>
<g clip-path="url(#a)">
<g transform="translate(922.78 640.01) rotate(56.29) scale(.08 -.08)">
<use xlink:href="#p"/>
</g>
</g>
<path d="m835.93 646.09 2.1746-4.5633q1.0325-2.1666-1.1341-3.199l-6.9894-3.3308q-2.1666-1.0325-3.199 1.1341l-2.1746 4.5633q-1.0325 2.1666 1.1341 3.199l6.9894 3.3308q2.1666 1.0325 3.199-1.1341z" clip-path="url(#a)" fill="#fff" stroke="#fff"/>
<g clip-path="url(#a)">
<g transform="translate(832.27 644.34) rotate(-64.52) scale(.08 -.08)">
<use xlink:href="#ar"/>
</g>
</g>
<path d="m860.63 645.38 1.1792-6.1861q0.4494-2.3576-1.9082-2.8069l-7.6056-1.4498q-2.3576-0.4494-2.8069 1.9082l-1.1792 6.1861q-0.4494 2.3576 1.9082 2.8069l7.6056 1.4498q2.3576 0.4494 2.8069-1.9082z" clip-path="url(#a)" fill="#fff" stroke="#fff"/>
<g clip-path="url(#a)">
<g transform="translate(856.64 644.62) rotate(-79.208) scale(.08 -.08)">
<use xlink:href="#y"/>
</g>
</g>
<path d="m880.4 789.26v35.285q0 2.4 2.4 2.4h7.7425q2.4 0 2.4-2.4v-35.285q0-2.4-2.4-2.4h-7.7425q-2.4 0-2.4 2.4z" clip-path="url(#a)" fill="#fff" stroke="#fff"/>
<g clip-path="url(#a)">
<g transform="translate(884.46 789.26) rotate(90) scale(.08 -.08)">
<use xlink:href="#k"/>
<use x="60.818359" xlink:href="#c"/>
<use x="122.341797" xlink:href="#f"/>
<use x="163.439453" xlink:href="#l"/>
<use x="260.851562" xlink:href="#g"/>
<use x="288.634766" xlink:href="#d"/>
<use x="352.013672" xlink:href="#i"/>
<use x="413.292969" xlink:href="#j"/>
</g>
</g>
<path d="m951.69 645.11 0.89126-6.2341q0.33966-2.3758-2.0362-2.7155l-7.6646-1.0958q-2.3758-0.33966-2.7155 2.0362l-0.89126 6.2341q-0.33966 2.3758 2.0362 2.7155l7.6646 1.0958q2.3758 0.33966 2.7155-2.0362z" clip-path="url(#a)" fill="#fff" stroke="#fff"/>
<g clip-path="url(#a)">
<g transform="translate(947.66 644.54) rotate(-81.864) scale(.08 -.08)">
<use xlink:href="#y"/>
</g>
</g>
<path d="m963.02 639.23 0.7906 5.53q0.33966 2.3758 2.7155 2.0362l7.6646-1.0958q2.3758-0.33966 2.0362-2.7155l-0.7906-5.53q-0.33966-2.3758-2.7155-2.0362l-7.6646 1.0958q-2.3758 0.33966-2.0362 2.7155z" clip-path="url(#a)" fill="#fff" stroke="#fff"/>
<g clip-path="url(#a)">
<g transform="translate(967.05 638.66) rotate(81.864) scale(.08 -.08)">
<use xlink:href="#p"/>
</g>
</g>
<path d="m927.8 789.26v35.285q0 2.4 2.4 2.4h7.7425q2.4 0 2.4-2.4v-35.285q0-2.4-2.4-2.4h-7.7425q-2.4 0-2.4 2.4z" clip-path="url(#a)" fill="#fff" stroke="#fff"/>
<g clip-path="url(#a)">
<g transform="translate(931.86 789.26) rotate(90) scale(.08 -.08)">
<use xlink:href="#k"/>
<use x="60.818359" xlink:href="#c"/>
<use x="122.341797" xlink:href="#f"/>
<use x="163.439453" xlink:href="#l"/>
<use x="260.851562" xlink:href="#g"/>
<use x="288.634766" xlink:href="#d"/>
<use x="352.013672" xlink:href="#i"/>
<use x="413.292969" xlink:href="#j"/>
</g>
</g>
<path d="m975.21 789.26v35.285q0 2.4 2.4 2.4h7.7425q2.4 0 2.4-2.4v-35.285q0-2.4-2.4-2.4h-7.7425q-2.4 0-2.4 2.4z" clip-path="url(#a)" fill="#fff" stroke="#fff"/>
<g clip-path="url(#a)">
<g transform="translate(979.27 789.26) rotate(90) scale(.08 -.08)">
<use xlink:href="#k"/>
<use x="60.818359" xlink:href="#c"/>
<use x="122.341797" xlink:href="#f"/>
<use x="163.439453" xlink:href="#l"/>
<use x="260.851562" xlink:href="#g"/>
<use x="288.634766" xlink:href="#d"/>
<use x="352.013672" xlink:href="#i"/>
<use x="413.292969" xlink:href="#j"/>
</g>
</g>
<path d="m785.58 789.26v35.285q0 2.4 2.4 2.4h7.7425q2.4 0 2.4-2.4v-35.285q0-2.4-2.4-2.4h-7.7425q-2.4 0-2.4 2.4z" clip-path="url(#a)" fill="#fff" stroke="#fff"/>
<g clip-path="url(#a)">
<g transform="translate(789.65 789.26) rotate(90) scale(.08 -.08)">
<use xlink:href="#k"/>
<use x="60.818359" xlink:href="#c"/>
<use x="122.341797" xlink:href="#f"/>
<use x="163.439453" xlink:href="#l"/>
<use x="260.851562" xlink:href="#g"/>
<use x="288.634766" xlink:href="#d"/>
<use x="352.013672" xlink:href="#i"/>
<use x="413.292969" xlink:href="#j"/>
</g>
</g>
<path d="m832.99 789.26v35.285q0 2.4 2.4 2.4h7.7425q2.4 0 2.4-2.4v-35.285q0-2.4-2.4-2.4h-7.7425q-2.4 0-2.4 2.4z" clip-path="url(#a)" fill="#fff" stroke="#fff"/>
<g clip-path="url(#a)">
<g transform="translate(837.05 789.26) rotate(90) scale(.08 -.08)">
<use xlink:href="#k"/>
<use x="60.818359" xlink:href="#c"/>
<use x="122.341797" xlink:href="#f"/>
<use x="163.439453" xlink:href="#l"/>
<use x="260.851562" xlink:href="#g"/>
<use x="288.634766" xlink:href="#d"/>
<use x="352.013672" xlink:href="#i"/>
<use x="413.292969" xlink:href="#j"/>
</g>
</g>
<path d="m690.77 789.26v35.285q0 2.4 2.4 2.4h7.7425q2.4 0 2.4-2.4v-35.285q0-2.4-2.4-2.4h-7.7425q-2.4 0-2.4 2.4z" clip-path="url(#a)" fill="#fff" stroke="#fff"/>
<g clip-path="url(#a)">
<g transform="translate(694.84 789.26) rotate(90) scale(.08 -.08)">
<use xlink:href="#k"/>
<use x="60.818359" xlink:href="#c"/>
<use x="122.341797" xlink:href="#f"/>
<use x="163.439453" xlink:href="#l"/>
<use x="260.851562" xlink:href="#g"/>
<use x="288.634766" xlink:href="#d"/>
<use x="352.013672" xlink:href="#i"/>
<use x="413.292969" xlink:href="#j"/>
</g>
</g>
<path d="m548.56 789.26v35.285q0 2.4 2.4 2.4h7.7425q2.4 0 2.4-2.4v-35.285q0-2.4-2.4-2.4h-7.7425q-2.4 0-2.4 2.4z" clip-path="url(#a)" fill="#fff" stroke="#fff"/>
<g clip-path="url(#a)">
<g transform="translate(552.62 789.26) rotate(90) scale(.08 -.08)">
<use xlink:href="#k"/>
<use x="60.818359" xlink:href="#c"/>
<use x="122.341797" xlink:href="#f"/>
<use x="163.439453" xlink:href="#l"/>
<use x="260.851562" xlink:href="#g"/>
<use x="288.634766" xlink:href="#d"/>
<use x="352.013672" xlink:href="#i"/>
<use x="413.292969" xlink:href="#j"/>
</g>
</g>
<path d="m121.91 789.26v35.285q0 2.4 2.4 2.4h7.7425q2.4 0 2.4-2.4v-35.285q0-2.4-2.4-2.4h-7.7425q-2.4 0-2.4 2.4z" clip-path="url(#a)" fill="#fff" stroke="#fff"/>
<g clip-path="url(#a)">
<g transform="translate(125.97 789.26) rotate(90) scale(.08 -.08)">
<use xlink:href="#k"/>
<use x="60.818359" xlink:href="#c"/>
<use x="122.341797" xlink:href="#f"/>
<use x="163.439453" xlink:href="#l"/>
<use x="260.851562" xlink:href="#g"/>
<use x="288.634766" xlink:href="#d"/>
<use x="352.013672" xlink:href="#i"/>
<use x="413.292969" xlink:href="#j"/>
</g>
</g>
<path d="m169.31 789.26v35.285q0 2.4 2.4 2.4h7.7425q2.4 0 2.4-2.4v-35.285q0-2.4-2.4-2.4h-7.7425q-2.4 0-2.4 2.4z" clip-path="url(#a)" fill="#fff" stroke="#fff"/>
<g clip-path="url(#a)">
<g transform="translate(173.38 789.26) rotate(90) scale(.08 -.08)">
<use xlink:href="#k"/>
<use x="60.818359" xlink:href="#c"/>
<use x="122.341797" xlink:href="#f"/>
<use x="163.439453" xlink:href="#l"/>
<use x="260.851562" xlink:href="#g"/>
<use x="288.634766" xlink:href="#d"/>
<use x="352.013672" xlink:href="#i"/>
<use x="413.292969" xlink:href="#j"/>
</g>
</g>
<path d="m216.72 789.26v35.285q0 2.4 2.4 2.4h7.7425q2.4 0 2.4-2.4v-35.285q0-2.4-2.4-2.4h-7.7425q-2.4 0-2.4 2.4z" clip-path="url(#a)" fill="#fff" stroke="#fff"/>
<g clip-path="url(#a)">
<g transform="translate(220.78 789.26) rotate(90) scale(.08 -.08)">
<use xlink:href="#k"/>
<use x="60.818359" xlink:href="#c"/>
<use x="122.341797" xlink:href="#f"/>
<use x="163.439453" xlink:href="#l"/>
<use x="260.851562" xlink:href="#g"/>
<use x="288.634766" xlink:href="#d"/>
<use x="352.013672" xlink:href="#i"/>
<use x="413.292969" xlink:href="#j"/>
</g>
</g>
<path d="m264.12 789.26v35.285q0 2.4 2.4 2.4h7.7425q2.4 0 2.4-2.4v-35.285q0-2.4-2.4-2.4h-7.7425q-2.4 0-2.4 2.4z" clip-path="url(#a)" fill="#fff" stroke="#fff"/>
<g clip-path="url(#a)">
<g transform="translate(268.19 789.26) rotate(90) scale(.08 -.08)">
<use xlink:href="#k"/>
<use x="60.818359" xlink:href="#c"/>
<use x="122.341797" xlink:href="#f"/>
<use x="163.439453" xlink:href="#l"/>
<use x="260.851562" xlink:href="#g"/>
<use x="288.634766" xlink:href="#d"/>
<use x="352.013672" xlink:href="#i"/>
<use x="413.292969" xlink:href="#j"/>
</g>
</g>
<path d="m311.53 789.26v35.285q0 2.4 2.4 2.4h7.7425q2.4 0 2.4-2.4v-35.285q0-2.4-2.4-2.4h-7.7425q-2.4 0-2.4 2.4z" clip-path="url(#a)" fill="#fff" stroke="#fff"/>
<g clip-path="url(#a)">
<g transform="translate(315.59 789.26) rotate(90) scale(.08 -.08)">
<use xlink:href="#k"/>
<use x="60.818359" xlink:href="#c"/>
<use x="122.341797" xlink:href="#f"/>
<use x="163.439453" xlink:href="#l"/>
<use x="260.851562" xlink:href="#g"/>
<use x="288.634766" xlink:href="#d"/>
<use x="352.013672" xlink:href="#i"/>
<use x="413.292969" xlink:href="#j"/>
</g>
</g>
<path d="m595.96 789.26v35.285q0 2.4 2.4 2.4h7.7425q2.4 0 2.4-2.4v-35.285q0-2.4-2.4-2.4h-7.7425q-2.4 0-2.4 2.4z" clip-path="url(#a)" fill="#fff" stroke="#fff"/>
<g clip-path="url(#a)">
<g transform="translate(600.03 789.26) rotate(90) scale(.08 -.08)">
<use xlink:href="#k"/>
<use x="60.818359" xlink:href="#c"/>
<use x="122.341797" xlink:href="#f"/>
<use x="163.439453" xlink:href="#l"/>
<use x="260.851562" xlink:href="#g"/>
<use x="288.634766" xlink:href="#d"/>
<use x="352.013672" xlink:href="#i"/>
<use x="413.292969" xlink:href="#j"/>
</g>
</g>
<path d="m1212.2 789.26v35.285q0 2.4 2.4 2.4h7.7425q2.4 0 2.4-2.4v-35.285q0-2.4-2.4-2.4h-7.7425q-2.4 0-2.4 2.4z" clip-path="url(#a)" fill="#fff" stroke="#fff"/>
<g clip-path="url(#a)">
<g transform="translate(1216.3 789.26) rotate(90) scale(.08 -.08)">
<use xlink:href="#k"/>
<use x="60.818359" xlink:href="#c"/>
<use x="122.341797" xlink:href="#f"/>
<use x="163.439453" xlink:href="#l"/>
<use x="260.851562" xlink:href="#g"/>
<use x="288.634766" xlink:href="#d"/>
<use x="352.013672" xlink:href="#i"/>
<use x="413.292969" xlink:href="#j"/>
</g>
</g>
<path d="m1686.3 789.26v35.285q0 2.4 2.4 2.4h7.7425q2.4 0 2.4-2.4v-35.285q0-2.4-2.4-2.4h-7.7425q-2.4 0-2.4 2.4z" clip-path="url(#a)" fill="#fff" stroke="#fff"/>
<g clip-path="url(#a)">
<g transform="translate(1690.4 789.26) rotate(90) scale(.08 -.08)">
<use xlink:href="#k"/>
<use x="60.818359" xlink:href="#c"/>
<use x="122.341797" xlink:href="#f"/>
<use x="163.439453" xlink:href="#l"/>
<use x="260.851562" xlink:href="#g"/>
<use x="288.634766" xlink:href="#d"/>
<use x="352.013672" xlink:href="#i"/>
<use x="413.292969" xlink:href="#j"/>
</g>
</g>
<defs>
<path id="b" d="m0 8.6603c2.2967 0 4.4997-0.9125 6.1237-2.5365 1.624-1.624 2.5365-3.827 2.5365-6.1237s-0.9125-4.4997-2.5365-6.1237c-1.624-1.624-3.827-2.5365-6.1237-2.5365s-4.4997 0.9125-6.1237 2.5365c-1.624 1.624-2.5365 3.827-2.5365 6.1237s0.9125 4.4997 2.5365 6.1237c1.624 1.624 3.827 2.5365 6.1237 2.5365z"/>
</defs>
<g clip-path="url(#a)">
<use x="80.772748" y="889.801456" fill="#ffffff" stroke="#ffffff" xlink:href="#b"/>
</g>
<g clip-path="url(#a)">
<use x="128.178272" y="889.801456" fill="#ffffff" stroke="#ffffff" xlink:href="#b"/>
</g>
<g clip-path="url(#a)">
<use x="175.583797" y="889.801456" fill="#ffffff" stroke="#ffffff" xlink:href="#b"/>
</g>
<g clip-path="url(#a)">
<use x="222.989322" y="889.801456" fill="#ffffff" stroke="#ffffff" xlink:href="#b"/>
</g>
<g clip-path="url(#a)">
<use x="270.394846" y="889.801456" fill="#ffffff" stroke="#ffffff" xlink:href="#b"/>
</g>
<g clip-path="url(#a)">
<use x="317.800371" y="889.801456" fill="#ffffff" stroke="#ffffff" xlink:href="#b"/>
</g>
<g clip-path="url(#a)">
<use x="365.205896" y="889.801456" fill="#ffffff" stroke="#ffffff" xlink:href="#b"/>
</g>
<g clip-path="url(#a)">
<use x="412.61142" y="889.801456" fill="#ffffff" stroke="#ffffff" xlink:href="#b"/>
</g>
<g clip-path="url(#a)">
<use x="460.016945" y="889.801456" fill="#ffffff" stroke="#ffffff" xlink:href="#b"/>
</g>
<g clip-path="url(#a)">
<use x="507.422469" y="889.801456" fill="#ffffff" stroke="#ffffff" xlink:href="#b"/>
</g>
<g clip-path="url(#a)">
<use x="554.827994" y="889.801456" fill="#ffffff" stroke="#ffffff" xlink:href="#b"/>
</g>
<g clip-path="url(#a)">
<use x="602.233519" y="889.801456" fill="#ffffff" stroke="#ffffff" xlink:href="#b"/>
</g>
<g clip-path="url(#a)">
<use x="649.639043" y="889.801456" fill="#ffffff" stroke="#ffffff" xlink:href="#b"/>
</g>
<g clip-path="url(#a)">
<use x="697.044568" y="889.801456" fill="#ffffff" stroke="#ffffff" xlink:href="#b"/>
</g>
<g clip-path="url(#a)">
<use x="744.450093" y="889.801456" fill="#ffffff" stroke="#ffffff" xlink:href="#b"/>
</g>
<g clip-path="url(#a)">
<use x="791.855617" y="889.801456" fill="#ffffff" stroke="#ffffff" xlink:href="#b"/>
</g>
<g clip-path="url(#a)">
<use x="839.261142" y="889.801456" fill="#ffffff" stroke="#ffffff" xlink:href="#b"/>
</g>
<g clip-path="url(#a)">
<use x="886.666667" y="889.801456" fill="#ffffff" stroke="#ffffff" xlink:href="#b"/>
</g>
<g clip-path="url(#a)">
<use x="934.072191" y="889.801456" fill="#ffffff" stroke="#ffffff" xlink:href="#b"/>
</g>
<g clip-path="url(#a)">
<use x="981.477716" y="889.801456" fill="#ffffff" stroke="#ffffff" xlink:href="#b"/>
</g>
<g clip-path="url(#a)">
<use x="1028.883241" y="889.801456" fill="#ffffff" stroke="#ffffff" xlink:href="#b"/>
</g>
<g clip-path="url(#a)">
<use x="1076.288765" y="889.801456" fill="#ffffff" stroke="#ffffff" xlink:href="#b"/>
</g>
<g clip-path="url(#a)">
<use x="1123.69429" y="889.801456" fill="#ffffff" stroke="#ffffff" xlink:href="#b"/>
</g>
<g clip-path="url(#a)">
<use x="1171.099815" y="889.801456" fill="#ffffff" stroke="#ffffff" xlink:href="#b"/>
</g>
<g clip-path="url(#a)">
<use x="1218.505339" y="889.801456" fill="#ffffff" stroke="#ffffff" xlink:href="#b"/>
</g>
<g clip-path="url(#a)">
<use x="1265.910864" y="889.801456" fill="#ffffff" stroke="#ffffff" xlink:href="#b"/>
</g>
<g clip-path="url(#a)">
<use x="1313.316389" y="889.801456" fill="#ffffff" stroke="#ffffff" xlink:href="#b"/>
</g>
<g clip-path="url(#a)">
<use x="1360.721913" y="889.801456" fill="#ffffff" stroke="#ffffff" xlink:href="#b"/>
</g>
<g clip-path="url(#a)">
<use x="1408.127438" y="889.801456" fill="#ffffff" stroke="#ffffff" xlink:href="#b"/>
</g>
<g clip-path="url(#a)">
<use x="1455.532962" y="889.801456" fill="#ffffff" stroke="#ffffff" xlink:href="#b"/>
</g>
<g clip-path="url(#a)">
<use x="1502.938487" y="889.801456" fill="#ffffff" stroke="#ffffff" xlink:href="#b"/>
</g>
<g clip-path="url(#a)">
<use x="1550.344012" y="889.801456" fill="#ffffff" stroke="#ffffff" xlink:href="#b"/>
</g>
<g clip-path="url(#a)">
<use x="1597.749536" y="889.801456" fill="#ffffff" stroke="#ffffff" xlink:href="#b"/>
</g>
<g clip-path="url(#a)">
<use x="1645.155061" y="889.801456" fill="#ffffff" stroke="#ffffff" xlink:href="#b"/>
</g>
<g clip-path="url(#a)">
<use x="1692.560586" y="889.801456" fill="#ffffff" stroke="#ffffff" xlink:href="#b"/>
</g>
<g clip-path="url(#a)">
<use x="742.321234" y="43.531877" fill="#ffffff" stroke="#ffffff" xlink:href="#b"/>
</g>
<g clip-path="url(#a)">
<use x="80.772748" y="724.006929" fill="#ffffff" stroke="#ffffff" xlink:href="#b"/>
</g>
<g clip-path="url(#a)">
<use x="199.286559" y="558.212402" fill="#ffffff" stroke="#ffffff" xlink:href="#b"/>
</g>
<g clip-path="url(#a)">
<use x="756.213686" y="218.773669" fill="#ffffff" stroke="#ffffff" xlink:href="#b"/>
</g>
<g clip-path="url(#a)">
<use x="1265.910864" y="724.006929" fill="#ffffff" stroke="#ffffff" xlink:href="#b"/>
</g>
<g clip-path="url(#a)">
<use x="1357.759068" y="390.111491" fill="#ffffff" stroke="#ffffff" xlink:href="#b"/>
</g>
<g clip-path="url(#a)">
<use x="1313.316389" y="724.006929" fill="#ffffff" stroke="#ffffff" xlink:href="#b"/>
</g>
<g clip-path="url(#a)">
<use x="1408.127438" y="724.006929" fill="#ffffff" stroke="#ffffff" xlink:href="#b"/>
</g>
<g clip-path="url(#a)">
<use x="1526.641249" y="558.212402" fill="#ffffff" stroke="#ffffff" xlink:href="#b"/>
</g>
<g clip-path="url(#a)">
<use x="1597.749536" y="724.006929" fill="#ffffff" stroke="#ffffff" xlink:href="#b"/>
</g>
<g clip-path="url(#a)">
<use x="1645.155061" y="724.006929" fill="#ffffff" stroke="#ffffff" xlink:href="#b"/>
</g>
<g clip-path="url(#a)">
<use x="1502.938487" y="724.006929" fill="#ffffff" stroke="#ffffff" xlink:href="#b"/>
</g>
<g clip-path="url(#a)">
<use x="1550.344012" y="724.006929" fill="#ffffff" stroke="#ffffff" xlink:href="#b"/>
</g>
<g clip-path="url(#a)">
<use x="365.205896" y="724.006929" fill="#ffffff" stroke="#ffffff" xlink:href="#b"/>
</g>
<g clip-path="url(#a)">
<use x="412.61142" y="724.006929" fill="#ffffff" stroke="#ffffff" xlink:href="#b"/>
</g>
<g clip-path="url(#a)">
<use x="755.862534" y="390.111491" fill="#ffffff" stroke="#ffffff" xlink:href="#b"/>
</g>
<g clip-path="url(#a)">
<use x="1076.288765" y="558.212402" fill="#ffffff" stroke="#ffffff" xlink:href="#b"/>
</g>
<g clip-path="url(#a)">
<use x="1171.099815" y="724.006929" fill="#ffffff" stroke="#ffffff" xlink:href="#b"/>
</g>
<g clip-path="url(#a)">
<use x="1028.883241" y="724.006929" fill="#ffffff" stroke="#ffffff" xlink:href="#b"/>
</g>
<g clip-path="url(#a)">
<use x="1076.288765" y="724.006929" fill="#ffffff" stroke="#ffffff" xlink:href="#b"/>
</g>
<g clip-path="url(#a)">
<use x="1123.69429" y="724.006929" fill="#ffffff" stroke="#ffffff" xlink:href="#b"/>
</g>
<g clip-path="url(#a)">
<use x="483.719707" y="724.006929" fill="#ffffff" stroke="#ffffff" xlink:href="#b"/>
</g>
<g clip-path="url(#a)">
<use x="768.152855" y="558.212402" fill="#ffffff" stroke="#ffffff" xlink:href="#b"/>
</g>
<g clip-path="url(#a)">
<use x="649.639043" y="724.006929" fill="#ffffff" stroke="#ffffff" xlink:href="#b"/>
</g>
<g clip-path="url(#a)">
<use x="839.261142" y="558.212402" fill="#ffffff" stroke="#ffffff" xlink:href="#b"/>
</g>
<g clip-path="url(#a)">
<use x="744.450093" y="724.006929" fill="#ffffff" stroke="#ffffff" xlink:href="#b"/>
</g>
<g clip-path="url(#a)">
<use x="870.864825" y="558.212402" fill="#ffffff" stroke="#ffffff" xlink:href="#b"/>
</g>
<g clip-path="url(#a)">
<use x="886.666667" y="724.006929" fill="#ffffff" stroke="#ffffff" xlink:href="#b"/>
</g>
<g clip-path="url(#a)">
<use x="957.774954" y="558.212402" fill="#ffffff" stroke="#ffffff" xlink:href="#b"/>
</g>
<g clip-path="url(#a)">
<use x="934.072191" y="724.006929" fill="#ffffff" stroke="#ffffff" xlink:href="#b"/>
</g>
<g clip-path="url(#a)">
<use x="981.477716" y="724.006929" fill="#ffffff" stroke="#ffffff" xlink:href="#b"/>
</g>
<g clip-path="url(#a)">
<use x="791.855617" y="724.006929" fill="#ffffff" stroke="#ffffff" xlink:href="#b"/>
</g>
<g clip-path="url(#a)">
<use x="839.261142" y="724.006929" fill="#ffffff" stroke="#ffffff" xlink:href="#b"/>
</g>
<g clip-path="url(#a)">
<use x="697.044568" y="724.006929" fill="#ffffff" stroke="#ffffff" xlink:href="#b"/>
</g>
<g clip-path="url(#a)">
<use x="554.827994" y="724.006929" fill="#ffffff" stroke="#ffffff" xlink:href="#b"/>
</g>
<g clip-path="url(#a)">
<use x="128.178272" y="724.006929" fill="#ffffff" stroke="#ffffff" xlink:href="#b"/>
</g>
<g clip-path="url(#a)">
<use x="175.583797" y="724.006929" fill="#ffffff" stroke="#ffffff" xlink:href="#b"/>
</g>
<g clip-path="url(#a)">
<use x="222.989322" y="724.006929" fill="#ffffff" stroke="#ffffff" xlink:href="#b"/>
</g>
<g clip-path="url(#a)">
<use x="270.394846" y="724.006929" fill="#ffffff" stroke="#ffffff" xlink:href="#b"/>
</g>
<g clip-path="url(#a)">
<use x="317.800371" y="724.006929" fill="#ffffff" stroke="#ffffff" xlink:href="#b"/>
</g>
<g clip-path="url(#a)">
<use x="602.233519" y="724.006929" fill="#ffffff" stroke="#ffffff" xlink:href="#b"/>
</g>
<g clip-path="url(#a)">
<use x="1218.505339" y="724.006929" fill="#ffffff" stroke="#ffffff" xlink:href="#b"/>
</g>
<g clip-path="url(#a)">
<use x="1692.560586" y="724.006929" fill="#ffffff" stroke="#ffffff" xlink:href="#b"/>
</g>
<g clip-path="url(#a)">
<defs>
<path id="av" d="m3.3281 72.906h9.9531l15.328-61.625 15.281 61.625h11.094l15.328-61.625 15.281 61.625h10.016l-18.312-72.906h-12.406l-15.375 63.281-15.531-63.281h-12.406z"/>
</defs>
<g transform="translate(66.419 892.56) scale(.1 -.1)">
<use xlink:href="#av"/>
<use x="98.798828" xlink:href="#c"/>
<use x="160.322266" xlink:href="#d"/>
<use x="223.701172" xlink:href="#d"/>
</g>
</g>
<g clip-path="url(#a)">
<g transform="translate(123.05 892.56) scale(.1 -.1)">
<use xlink:href="#c"/>
<use x="61.523438" xlink:href="#f"/>
</g>
</g>
<g clip-path="url(#a)">
<defs>
<path id="r" d="m44.281 53.078v-8.5q-3.7969 1.9531-7.9062 2.9219-4.0938 0.98438-8.5 0.98438-6.6875 0-10.031-2.0469t-3.3438-6.1562q0-3.125 2.3906-4.9062t9.625-3.3906l3.0781-0.6875q9.5625-2.0469 13.594-5.7812t4.0312-10.422q0-7.625-6.0312-12.078-6.0312-4.4375-16.578-4.4375-4.3906 0-9.1562 0.85938t-10.031 2.5625v9.2812q4.9844-2.5938 9.8125-3.8906 4.8281-1.2812 9.5781-1.2812 6.3438 0 9.75 2.1719 3.4219 2.1719 3.4219 6.125 0 3.6562-2.4688 5.6094-2.4531 1.9531-10.812 3.7656l-3.125 0.73438q-8.3438 1.75-12.062 5.3906-3.7031 3.6406-3.7031 9.9844 0 7.7188 5.4688 11.906 5.4688 4.2031 15.531 4.2031 4.9688 0 9.3594-0.73438 4.4062-0.71875 8.1094-2.1875z"/>
</defs>
<g transform="translate(168.51 892.56) scale(.1 -.1)">
<use xlink:href="#r"/>
<use x="52.099609" xlink:href="#g"/>
<use x="79.882812" xlink:href="#c"/>
</g>
</g>
<g clip-path="url(#a)">
<defs>
<path id="ah" d="m48.688 27.297q0 9.9062-4.0781 15.547t-11.203 5.6406q-7.1406 0-11.219-5.6406t-4.0781-15.547 4.0781-15.547 11.219-5.6406q7.125 0 11.203 5.6406t4.0781 15.547zm-30.578 19.094q2.8438 4.875 7.1562 7.2344 4.3281 2.375 10.328 2.375 9.9688 0 16.188-7.9062 6.2344-7.9062 6.2344-20.797t-6.2344-20.812q-6.2188-7.9062-16.188-7.9062-6 0-10.328 2.375-4.3125 2.375-7.1562 7.25v-8.2031h-9.0312v75.984h9.0312z"/>
<path id="s" d="m18.312 70.219v-15.531h18.5v-6.9844h-18.5v-29.688q0-6.6875 1.8281-8.5938t7.4531-1.9062h9.2188v-7.5156h-9.2188q-10.406 0-14.359 3.875-3.9531 3.8906-3.9531 14.141v29.688h-6.5938v6.9844h6.5938v15.531z"/>
</defs>
<g transform="translate(208.18 892.56) scale(.1 -.1)">
<use xlink:href="#r"/>
<use x="52.099609" xlink:href="#c"/>
<use x="113.623047" xlink:href="#j"/>
<use x="141.40625" xlink:href="#ah"/>
<use x="204.882812" xlink:href="#r"/>
<use x="256.982422" xlink:href="#s"/>
</g>
</g>
<g clip-path="url(#a)">
<defs>
<path id="as" d="m34.281 27.484q-10.891 0-15.094-2.4844t-4.2031-8.5q0-4.7812 3.1562-7.5938 3.1562-2.7969 8.5625-2.7969 7.4844 0 12 5.2969t4.5156 14.078v2zm17.922 3.7188v-31.203h-8.9844v8.2969q-3.0781-4.9688-7.6719-7.3438t-11.234-2.375q-8.3906 0-13.359 4.7188-4.9531 4.7188-4.9531 12.625 0 9.2188 6.1719 13.906 6.1875 4.6875 18.438 4.6875h12.609v0.89062q0 6.2031-4.0781 9.5938t-11.453 3.3906q-4.6875 0-9.1406-1.125-4.4375-1.125-8.5312-3.375v8.3125q4.9219 1.9062 9.5625 2.8438 4.6406 0.95312 9.0312 0.95312 11.875 0 17.734-6.1562 5.8594-6.1406 5.8594-18.641zm-18.609 44.578h9.9062v-9.8594h-9.9062zm-19.094 0h9.9062v-9.8594h-9.9062z"/>
<path id="bc" d="m9.0781 55.516q0 9.7656 5.8281 15.109 5.8438 5.3594 16.484 5.3594 10.156 0 15.5-5.6719 5.3594-5.6562 5.5-16.594-7.375-0.39062-11.484-3.2031-4.0938-2.8125-4.0938-7.5 0-2.2969 1.4219-4.2812 1.4219-1.9688 4.5938-4.0156l2.7812-1.8125q8.1094-5.1719 10.453-8.6406t2.3438-8.3438q0-8.4062-5.5-12.875t-15.797-4.4688q-3.125 0-6.4531 0.60938-3.3125 0.60938-6.875 1.7969v8q3.9062-1.4688 7.3125-2.1719 3.4219-0.70312 6.6094-0.70312 5.6562 0 8.5781 2.3125 2.9375 2.3281 2.9375 6.7656 0 3.0781-1.4375 5.125t-6.375 5.0781l-4.4844 2.6875q-4.6875 2.875-6.8125 6.1719t-2.125 7.75q0 6.1875 4.0781 10.391t11.438 5.625q-0.39062 5.0156-3.5938 7.75-3.1875 2.7344-8.7031 2.7344-6.3438 0-9.6719-3.3906-3.3125-3.3906-3.3125-9.7812v-55.328h-9.1406z"/>
</defs>
<g transform="translate(252.25 892.56) scale(.1 -.1)">
<use xlink:href="#ah"/>
<use x="63.476562" xlink:href="#c"/>
<use x="125" xlink:href="#r"/>
<use x="177.099609" xlink:href="#as"/>
<use x="238.378906" xlink:href="#bc"/>
<use x="301.367188" xlink:href="#c"/>
</g>
</g>
<g clip-path="url(#a)">
<defs>
<path id="am" d="m11.719 12.406h10.297v-8.4062l-8-15.625h-6.2969l4 15.625z"/>
</defs>
<g transform="translate(316.21 892.56) scale(.1 -.1)">
<use xlink:href="#am"/>
</g>
</g>
<g clip-path="url(#a)">
<defs>
<path id="au" d="m9.0781 75.984h9.0312v-44.875l26.812 23.578h11.469l-29-25.578 30.234-29.109h-11.719l-27.797 26.703v-26.703h-9.0312z"/>
<path id="bb" d="m30.609 48.391q-7.2188 0-11.422-5.6406t-4.2031-15.453 4.1719-15.453q4.1875-5.6406 11.453-5.6406 7.1875 0 11.375 5.6562 4.2031 5.6719 4.2031 15.438 0 9.7188-4.2031 15.406-4.1875 5.6875-11.375 5.6875zm0 7.6094q11.719 0 18.406-7.625 6.7031-7.6094 6.7031-21.078 0-13.422-6.7031-21.078-6.6875-7.6406-18.406-7.6406-11.766 0-18.438 7.6406-6.6562 7.6562-6.6562 21.078 0 13.469 6.6562 21.078 6.6719 7.625 18.438 7.625zm4.6094 19.781h9.9062v-9.8594h-9.9062zm-19.094 0h9.9062v-9.8594h-9.9062z"/>
</defs>
<g transform="translate(347.88 892.56) scale(.1 -.1)">
<use xlink:href="#au"/>
<use x="57.863281" xlink:href="#bb"/>
<use x="119.044922" xlink:href="#d"/>
<use x="182.423828" xlink:href="#d"/>
<use x="245.802734" xlink:href="#s"/>
<use x="285.011719" xlink:href="#c"/>
</g>
</g>
<g clip-path="url(#a)">
<g transform="translate(407.48 892.56) scale(.1 -.1)">
<use xlink:href="#c"/>
<use x="61.523438" xlink:href="#f"/>
</g>
</g>
<g clip-path="url(#a)">
<defs>
<path id="ao" d="m48.781 52.594v-8.4062q-3.8125 2.1094-7.6406 3.1562t-7.7344 1.0469q-8.75 0-13.594-5.5469-4.8281-5.5312-4.8281-15.547t4.8281-15.562q4.8438-5.5312 13.594-5.5312 3.9062 0 7.7344 1.0469t7.6406 3.1562v-8.3125q-3.7656-1.75-7.7969-2.625-4.0156-0.89062-8.5625-0.89062-12.359 0-19.641 7.7656-7.2656 7.7656-7.2656 20.953 0 13.375 7.3438 21.031 7.3594 7.6719 20.156 7.6719 4.1406 0 8.0938-0.85938 3.9531-0.84375 7.6719-2.5469z"/>
<path id="x" d="m54.891 33.016v-33.016h-8.9844v32.719q0 7.7656-3.0312 11.609-3.0312 3.8594-9.0781 3.8594-7.2812 0-11.484-4.6406-4.2031-4.625-4.2031-12.641v-30.906h-9.0312v75.984h9.0312v-29.797q3.2344 4.9375 7.5938 7.375 4.375 2.4375 10.094 2.4375 9.4219 0 14.25-5.8281 4.8438-5.8281 4.8438-17.156z"/>
</defs>
<g transform="translate(447.58 892.56) scale(.1 -.1)">
<use xlink:href="#d"/>
<use x="63.378906" xlink:href="#g"/>
<use x="91.162109" xlink:href="#ao"/>
<use x="146.142578" xlink:href="#x"/>
<use x="209.521484" xlink:href="#s"/>
</g>
</g>
<g clip-path="url(#a)">
<defs>
<path id="q" d="m8.5 21.578v33.109h8.9844v-32.766q0-7.7656 3.0156-11.656 3.0312-3.875 9.0938-3.875 7.2656 0 11.484 4.6406 4.2344 4.6406 4.2344 12.656v31h8.9844v-54.688h-8.9844v8.4062q-3.2656-4.9844-7.5938-7.4062-4.3125-2.4219-10.031-2.4219-9.4219 0-14.312 5.8594-4.875 5.8594-4.875 17.141z"/>
</defs>
<g transform="translate(499.03 892.56) scale(.1 -.1)">
<use xlink:href="#d"/>
<use x="63.378906" xlink:href="#q"/>
<use x="126.757812" xlink:href="#f"/>
</g>
</g>
<g clip-path="url(#a)">
<defs>
<path id="an" d="m2.9844 54.688h9.5156l17.094-45.891 17.094 45.891h9.5156l-20.516-54.688h-12.203z"/>
<path id="u" d="m45.406 46.391v29.594h8.9844v-75.984h-8.9844v8.2031q-2.8281-4.875-7.1562-7.25-4.3125-2.375-10.375-2.375-9.9062 0-16.141 7.9062-6.2188 7.9219-6.2188 20.812t6.2188 20.797q6.2344 7.9062 16.141 7.9062 6.0625 0 10.375-2.375 4.3281-2.3594 7.1562-7.2344zm-30.609-19.094q0-9.9062 4.0781-15.547t11.203-5.6406 11.219 5.6406q4.1094 5.6406 4.1094 15.547t-4.1094 15.547q-4.0938 5.6406-11.219 5.6406t-11.203-5.6406-4.0781-15.547z"/>
<path id="w" d="m5.5156 54.688h42.672v-8.2031l-33.781-39.312h33.781v-7.1719h-43.891v8.2031l33.797 39.312h-32.578z"/>
<path id="t" d="m45.406 27.984q0 9.7656-4.0312 15.125-4.0156 5.375-11.297 5.375-7.2188 0-11.25-5.375-4.0312-5.3594-4.0312-15.125 0-9.7188 4.0312-15.094t11.25-5.375q7.2812 0 11.297 5.375 4.0312 5.375 4.0312 15.094zm8.9844-21.203q0-13.953-6.2031-20.766-6.1875-6.8125-18.984-6.8125-4.7344 0-8.9375 0.70312t-8.1562 2.1719v8.7344q3.9531-2.1406 7.8125-3.1562 3.8594-1.0312 7.8594-1.0312 8.8438 0 13.234 4.6094t4.3906 13.938v4.4531q-2.7812-4.8438-7.125-7.2344t-10.406-2.3906q-10.047 0-16.203 7.6562-6.1562 7.6719-6.1562 20.328 0 12.688 6.1562 20.344 6.1562 7.6719 16.203 7.6719 6.0625 0 10.406-2.3906t7.125-7.2188v8.2969h8.9844z"/>
</defs>
<g transform="translate(519.17 892.56) scale(.1 -.1)">
<use xlink:href="#an"/>
<use x="59.179688" xlink:href="#g"/>
<use x="86.962891" xlink:href="#c"/>
<use x="148.486328" xlink:href="#f"/>
<use x="189.599609" xlink:href="#q"/>
<use x="252.978516" xlink:href="#d"/>
<use x="316.357422" xlink:href="#u"/>
<use x="379.833984" xlink:href="#an"/>
<use x="439.013672" xlink:href="#g"/>
<use x="466.796875" xlink:href="#c"/>
<use x="528.320312" xlink:href="#f"/>
<use x="569.433594" xlink:href="#w"/>
<use x="621.923828" xlink:href="#g"/>
<use x="649.707031" xlink:href="#t"/>
</g>
</g>
<g clip-path="url(#a)">
<g transform="translate(600.64 892.56) scale(.1 -.1)">
<use xlink:href="#am"/>
</g>
</g>
<g clip-path="url(#a)">
<defs>
<path id="ac" d="m30.609 48.391q-7.2188 0-11.422-5.6406t-4.2031-15.453 4.1719-15.453q4.1875-5.6406 11.453-5.6406 7.1875 0 11.375 5.6562 4.2031 5.6719 4.2031 15.438 0 9.7188-4.2031 15.406-4.1875 5.6875-11.375 5.6875zm0 7.6094q11.719 0 18.406-7.625 6.7031-7.6094 6.7031-21.078 0-13.422-6.7031-21.078-6.6875-7.6406-18.406-7.6406-11.766 0-18.438 7.6406-6.6562 7.6562-6.6562 21.078 0 13.469 6.6562 21.078 6.6719 7.625 18.438 7.625z"/>
</defs>
<g transform="translate(629.33 892.56) scale(.1 -.1)">
<use xlink:href="#r"/>
<use x="52.099609" xlink:href="#ac"/>
<use x="113.28125" xlink:href="#d"/>
<use x="176.660156" xlink:href="#u"/>
<use x="240.136719" xlink:href="#c"/>
<use x="301.660156" xlink:href="#f"/>
<use x="342.757812" xlink:href="#d"/>
</g>
</g>
<g clip-path="url(#a)">
<defs>
<path id="at" d="m4.2031 54.688h8.9844l11.234-42.672 11.172 42.672h10.594l11.234-42.672 11.188 42.672h8.9844l-14.312-54.688h-10.594l-11.766 44.828-11.812-44.828h-10.609z"/>
</defs>
<g transform="translate(658.92 892.56) scale(.1 -.1)">
<use xlink:href="#w"/>
<use x="52.490234" xlink:href="#at"/>
<use x="134.277344" xlink:href="#c"/>
<use x="195.800781" xlink:href="#g"/>
<use x="223.583984" xlink:href="#q"/>
<use x="286.962891" xlink:href="#d"/>
<use x="350.341797" xlink:href="#u"/>
<use x="413.818359" xlink:href="#r"/>
<use x="465.917969" xlink:href="#g"/>
<use x="493.701172" xlink:href="#c"/>
<use x="555.224609" xlink:href="#ah"/>
<use x="618.701172" xlink:href="#w"/>
<use x="671.191406" xlink:href="#g"/>
<use x="698.974609" xlink:href="#t"/>
</g>
</g>
<g clip-path="url(#a)">
<g transform="translate(733.08 892.56) scale(.1 -.1)">
<use xlink:href="#ac"/>
<use x="61.181641" xlink:href="#u"/>
<use x="124.658203" xlink:href="#c"/>
<use x="186.181641" xlink:href="#f"/>
</g>
</g>
<g clip-path="url(#a)">
<g transform="translate(783.56 892.56) scale(.1 -.1)">
<use xlink:href="#t"/>
<use x="63.476562" xlink:href="#i"/>
<use x="124.755859" xlink:href="#f"/>
</g>
</g>
<g clip-path="url(#a)">
<g transform="translate(819.49 892.56) scale(.1 -.1)">
<use xlink:href="#x"/>
<use x="63.378906" xlink:href="#q"/>
<use x="126.757812" xlink:href="#d"/>
<use x="190.136719" xlink:href="#u"/>
<use x="253.613281" xlink:href="#c"/>
<use x="315.136719" xlink:href="#f"/>
<use x="356.25" xlink:href="#s"/>
</g>
</g>
<g clip-path="url(#a)">
<g transform="translate(875.3 892.56) scale(.1 -.1)">
<use xlink:href="#ac"/>
<use x="61.181641" xlink:href="#u"/>
<use x="124.658203" xlink:href="#c"/>
<use x="186.181641" xlink:href="#f"/>
</g>
</g>
<g clip-path="url(#a)">
<g transform="translate(903.12 892.56) scale(.1 -.1)">
<use xlink:href="#w"/>
<use x="52.490234" xlink:href="#at"/>
<use x="134.277344" xlink:href="#c"/>
<use x="195.800781" xlink:href="#g"/>
<use x="223.583984" xlink:href="#x"/>
<use x="286.962891" xlink:href="#q"/>
<use x="350.341797" xlink:href="#d"/>
<use x="413.720703" xlink:href="#u"/>
<use x="477.197266" xlink:href="#c"/>
<use x="538.720703" xlink:href="#f"/>
<use x="579.833984" xlink:href="#s"/>
</g>
</g>
<g clip-path="url(#a)">
<g transform="translate(933.57 892.56) scale(.1 -.1)">
<use xlink:href="#ai"/>
<use x="63.476562" xlink:href="#ac"/>
<use x="124.658203" xlink:href="#d"/>
<use x="188.037109" xlink:href="#d"/>
<use x="251.416016" xlink:href="#c"/>
<use x="312.939453" xlink:href="#d"/>
<use x="376.318359" xlink:href="#q"/>
<use x="439.697266" xlink:href="#d"/>
<use x="503.076172" xlink:href="#s"/>
<use x="542.285156" xlink:href="#c"/>
<use x="603.808594" xlink:href="#f"/>
<use x="644.90625" xlink:href="#t"/>
<use x="708.382812" xlink:href="#as"/>
<use x="769.662109" xlink:href="#d"/>
<use x="833.041016" xlink:href="#t"/>
<use x="896.517578" xlink:href="#c"/>
</g>
</g>
<g clip-path="url(#a)">
<g transform="translate(1022.7 892.56) scale(.1 -.1)">
<use xlink:href="#i"/>
<use x="61.279297" xlink:href="#d"/>
</g>
</g>
<g clip-path="url(#a)">
<g transform="translate(1060.7 892.56) scale(.1 -.1)">
<use xlink:href="#c"/>
<use x="61.523438" xlink:href="#g"/>
<use x="89.306641" xlink:href="#d"/>
<use x="152.685547" xlink:href="#c"/>
<use x="214.208984" xlink:href="#l"/>
</g>
</g>
<g clip-path="url(#a)">
<g transform="translate(1114.4 892.56) scale(.1 -.1)">
<use xlink:href="#k"/>
<use x="60.833984" xlink:href="#i"/>
<use x="122.113281" xlink:href="#t"/>
</g>
</g>
<g clip-path="url(#a)">
<g transform="translate(1156 892.56) scale(.1 -.1)">
<use xlink:href="#r"/>
<use x="52.099609" xlink:href="#c"/>
<use x="113.623047" xlink:href="#x"/>
<use x="177.001953" xlink:href="#c"/>
<use x="238.525391" xlink:href="#d"/>
</g>
</g>
<g clip-path="url(#a)">
<g transform="translate(1216.9 892.56) scale(.1 -.1)">
<use xlink:href="#am"/>
</g>
</g>
<g clip-path="url(#a)">
<g transform="translate(1253.4 892.56) scale(.1 -.1)">
<use xlink:href="#ac"/>
<use x="61.181641" xlink:href="#x"/>
<use x="124.560547" xlink:href="#d"/>
<use x="187.939453" xlink:href="#c"/>
</g>
</g>
<g clip-path="url(#a)">
<g transform="translate(1304.9 892.56) scale(.1 -.1)">
<use xlink:href="#d"/>
<use x="63.378906" xlink:href="#q"/>
<use x="126.757812" xlink:href="#f"/>
</g>
</g>
<g clip-path="url(#a)">
<g transform="translate(1353.1 892.56) scale(.1 -.1)">
<use xlink:href="#c"/>
<use x="61.523438" xlink:href="#g"/>
<use x="89.306641" xlink:href="#d"/>
</g>
</g>
<g clip-path="url(#a)">
<g transform="translate(1387.6 892.56) scale(.1 -.1)">
<use xlink:href="#c"/>
<use x="61.523438" xlink:href="#g"/>
<use x="89.306641" xlink:href="#d"/>
<use x="152.685547" xlink:href="#w"/>
<use x="205.175781" xlink:href="#g"/>
<use x="232.958984" xlink:href="#t"/>
<use x="296.435547" xlink:href="#c"/>
<use x="357.958984" xlink:href="#r"/>
</g>
</g>
<g clip-path="url(#a)">
<defs>
<path id="ax" d="m9.8125 72.906h14.703l18.594-49.609 18.703 49.609h14.703v-72.906h-9.625v64.016l-18.797-50h-9.9062l-18.797 50v-64.016h-9.5781z"/>
</defs>
<g transform="translate(1446.8 892.56) scale(.1 -.1)">
<use xlink:href="#ax"/>
<use x="86.279297" xlink:href="#i"/>
<use x="147.558594" xlink:href="#j"/>
</g>
</g>
<g clip-path="url(#a)">
<g transform="translate(1486.5 892.56) scale(.1 -.1)">
<use xlink:href="#r"/>
<use x="52.099609" xlink:href="#c"/>
<use x="113.623047" xlink:href="#g"/>
<use x="141.40625" xlink:href="#d"/>
<use x="204.785156" xlink:href="#c"/>
<use x="266.308594" xlink:href="#d"/>
</g>
</g>
<g clip-path="url(#a)">
<g transform="translate(1537.5 892.56) scale(.1 -.1)">
<use xlink:href="#ai"/>
<use x="63.476562" xlink:href="#s"/>
<use x="102.685547" xlink:href="#q"/>
<use x="166.064453" xlink:href="#x"/>
<use x="229.443359" xlink:href="#j"/>
</g>
</g>
<g clip-path="url(#a)">
<g transform="translate(1592 892.56) scale(.1 -.1)">
<use xlink:href="#w"/>
<use x="52.490234" xlink:href="#q"/>
</g>
</g>
<g clip-path="url(#a)">
<defs>
<path id="ba" d="m8.5 21.578v33.109h8.9844v-32.766q0-7.7656 3.0156-11.656 3.0312-3.875 9.0938-3.875 7.2656 0 11.484 4.6406 4.2344 4.6406 4.2344 12.656v31h8.9844v-54.688h-8.9844v8.4062q-3.2656-4.9844-7.5938-7.4062-4.3125-2.4219-10.031-2.4219-9.4219 0-14.312 5.8594-4.875 5.8594-4.875 17.141zm22.609 34.422m4.4844 19.781h9.9062v-9.8594h-9.9062zm-19.094 0h9.9062v-9.8594h-9.9062z"/>
</defs>
<g transform="translate(1620 892.56) scale(.1 -.1)">
<use xlink:href="#an"/>
<use x="59.179688" xlink:href="#c"/>
<use x="120.703125" xlink:href="#f"/>
<use x="161.800781" xlink:href="#f"/>
<use x="202.914062" xlink:href="#ba"/>
<use x="266.292969" xlink:href="#ao"/>
<use x="321.273438" xlink:href="#au"/>
<use x="379.136719" xlink:href="#c"/>
<use x="440.660156" xlink:href="#d"/>
</g>
</g>
<g clip-path="url(#a)">
<defs>
<path id="az" d="m15.094 12.406h9.9062v-12.406h-9.9062zm0 60.5h9.9062v-31.984l-0.96875-17.438h-7.9219l-1.0156 17.438z"/>
</defs>
<g transform="translate(1690.6 892.56) scale(.1 -.1)">
<use xlink:href="#az"/>
</g>
</g>
<g clip-path="url(#a)">
<defs>
<path id="e" d="m12.406 8.2969h16.109v55.625l-17.531-3.5156v8.9844l17.438 3.5156h9.8594v-64.609h16.109v-8.2969h-41.984z"/>
<path id="h" d="m10.688 12.406h10.312v-12.406h-10.312z"/>
</defs>
<g transform="translate(734.37 46.291) scale(.1 -.1)">
<use xlink:href="#e"/>
<use x="63.623047" xlink:href="#h"/>
<use x="95.410156" xlink:href="#e"/>
</g>
</g>
<g clip-path="url(#a)">
<defs>
<path id="m" d="m19.188 8.2969h34.422v-8.2969h-46.281v8.2969q5.6094 5.8125 15.297 15.594 9.7031 9.7969 12.188 12.641 4.7344 5.3125 6.6094 9 1.8906 3.6875 1.8906 7.25 0 5.8125-4.0781 9.4688-4.0781 3.6719-10.625 3.6719-4.6406 0-9.7969-1.6094-5.1406-1.6094-11-4.8906v9.9688q5.9531 2.3906 11.125 3.6094 5.1875 1.2188 9.4844 1.2188 11.328 0 18.062-5.6719 6.7344-5.6562 6.7344-15.125 0-4.5-1.6875-8.5312-1.6719-4.0156-6.125-9.4844-1.2188-1.4219-7.7656-8.1875-6.5312-6.7656-18.453-18.922z"/>
</defs>
<g transform="translate(72.821 726.77) scale(.1 -.1)">
<use xlink:href="#e"/>
<use x="63.623047" xlink:href="#h"/>
<use x="95.410156" xlink:href="#m"/>
</g>
</g>
<g clip-path="url(#a)">
<defs>
<path id="o" d="m40.578 39.312q7.0781-1.5156 11.047-6.3125 3.9844-4.7812 3.9844-11.812 0-10.781-7.4219-16.703-7.4219-5.9062-21.094-5.9062-4.5781 0-9.4375 0.90625t-10.031 2.7188v9.5156q4.0938-2.3906 8.9688-3.6094 4.8906-1.2188 10.219-1.2188 9.2656 0 14.125 3.6562t4.8594 10.641q0 6.4531-4.5156 10.078-4.5156 3.6406-12.562 3.6406h-8.5v8.1094h8.8906q7.2656 0 11.125 2.9062t3.8594 8.375q0 5.6094-3.9844 8.6094-3.9688 3.0156-11.391 3.0156-4.0625 0-8.7031-0.89062-4.6406-0.875-10.203-2.7188v8.7812q5.625 1.5625 10.531 2.3438t9.25 0.78125q11.234 0 17.766-5.1094 6.5469-5.0938 6.5469-13.781 0-6.0625-3.4688-10.234t-9.8594-5.7812z"/>
</defs>
<g transform="translate(191.33 560.97) scale(.1 -.1)">
<use xlink:href="#e"/>
<use x="63.623047" xlink:href="#h"/>
<use x="95.410156" xlink:href="#o"/>
</g>
</g>
<g clip-path="url(#a)">
<defs>
<path id="n" d="m37.797 64.312-24.906-38.922h24.906zm-2.5938 8.5938h12.406v-47.516h10.406v-8.2031h-10.406v-17.188h-9.8125v17.188h-32.906v9.5156z"/>
</defs>
<g transform="translate(748.26 221.53) scale(.1 -.1)">
<use xlink:href="#e"/>
<use x="63.623047" xlink:href="#h"/>
<use x="95.410156" xlink:href="#n"/>
</g>
</g>
<g clip-path="url(#a)">
<defs>
<path id="ab" d="m10.797 72.906h38.719v-8.3125h-29.688v-17.859q2.1406 0.73438 4.2812 1.0938 2.1562 0.35938 4.3125 0.35938 12.203 0 19.328-6.6875 7.1406-6.6875 7.1406-18.109 0-11.766-7.3281-18.297-7.3281-6.5156-20.656-6.5156-4.5938 0-9.3594 0.78125-4.75 0.78125-9.8281 2.3438v9.9219q4.3906-2.3906 9.0781-3.5625t9.9062-1.1719q8.4531 0 13.375 4.4375 4.9375 4.4375 4.9375 12.062 0 7.6094-4.9375 12.047-4.9219 4.4531-13.375 4.4531-3.9531 0-7.8906-0.875-3.9219-0.875-8.0156-2.7344z"/>
</defs>
<g transform="translate(1258 726.77) scale(.1 -.1)">
<use xlink:href="#e"/>
<use x="63.623047" xlink:href="#h"/>
<use x="95.410156" xlink:href="#ab"/>
</g>
</g>
<g clip-path="url(#a)">
<defs>
<path id="aa" d="m33.016 40.375q-6.6406 0-10.531-4.5469-3.875-4.5312-3.875-12.438 0-7.8594 3.875-12.438 3.8906-4.5625 10.531-4.5625t10.516 4.5625q3.875 4.5781 3.875 12.438 0 7.9062-3.875 12.438-3.875 4.5469-10.516 4.5469zm19.578 30.922v-8.9844q-3.7188 1.75-7.5 2.6719-3.7812 0.9375-7.5 0.9375-9.7656 0-14.922-6.5938-5.1406-6.5938-5.875-19.922 2.875 4.25 7.2188 6.5156 4.3594 2.2656 9.5781 2.2656 10.984 0 17.359-6.6719 6.375-6.6562 6.375-18.125 0-11.234-6.6406-18.031-6.6406-6.7812-17.672-6.7812-12.656 0-19.344 9.6875-6.6875 9.7031-6.6875 28.109 0 17.281 8.2031 27.562t22.016 10.281q3.7188 0 7.5-0.73438t7.8906-2.1875z"/>
</defs>
<g transform="translate(1349.8 392.87) scale(.1 -.1)">
<use xlink:href="#e"/>
<use x="63.623047" xlink:href="#h"/>
<use x="95.410156" xlink:href="#aa"/>
</g>
</g>
<g clip-path="url(#a)">
<defs>
<path id="ag" d="m31.781 66.406q-7.6094 0-11.453-7.5-3.8281-7.4844-3.8281-22.531 0-14.984 3.8281-22.484 3.8438-7.5 11.453-7.5 7.6719 0 11.5 7.5 3.8438 7.5 3.8438 22.484 0 15.047-3.8438 22.531-3.8281 7.5-11.5 7.5zm0 7.8125q12.266 0 18.734-9.7031 6.4688-9.6875 6.4688-28.141 0-18.406-6.4688-28.109-6.4688-9.6875-18.734-9.6875-12.25 0-18.719 9.6875-6.4688 9.7031-6.4688 28.109 0 18.453 6.4688 28.141 6.4688 9.7031 18.719 9.7031z"/>
</defs>
<g transform="translate(1302.2 726.77) scale(.1 -.1)">
<use xlink:href="#e"/>
<use x="63.623047" xlink:href="#h"/>
<use x="95.410156" xlink:href="#e"/>
<use x="159.033203" xlink:href="#ag"/>
</g>
</g>
<g clip-path="url(#a)">
<g transform="translate(1397 726.77) scale(.1 -.1)">
<use xlink:href="#e"/>
<use x="63.623047" xlink:href="#h"/>
<use x="95.410156" xlink:href="#e"/>
<use x="159.033203" xlink:href="#e"/>
</g>
</g>
<g clip-path="url(#a)">
<g transform="translate(1515.5 560.97) scale(.1 -.1)">
<use xlink:href="#e"/>
<use x="63.623047" xlink:href="#h"/>
<use x="95.410156" xlink:href="#e"/>
<use x="159.033203" xlink:href="#m"/>
</g>
</g>
<g clip-path="url(#a)">
<g transform="translate(1586.6 726.77) scale(.1 -.1)">
<use xlink:href="#e"/>
<use x="63.623047" xlink:href="#h"/>
<use x="95.410156" xlink:href="#e"/>
<use x="159.033203" xlink:href="#o"/>
</g>
</g>
<g clip-path="url(#a)">
<g transform="translate(1634 726.77) scale(.1 -.1)">
<use xlink:href="#e"/>
<use x="63.623047" xlink:href="#h"/>
<use x="95.410156" xlink:href="#e"/>
<use x="159.033203" xlink:href="#n"/>
</g>
</g>
<g clip-path="url(#a)">
<g transform="translate(1491.8 726.77) scale(.1 -.1)">
<use xlink:href="#e"/>
<use x="63.623047" xlink:href="#h"/>
<use x="95.410156" xlink:href="#e"/>
<use x="159.033203" xlink:href="#ab"/>
</g>
</g>
<g clip-path="url(#a)">
<g transform="translate(1539.2 726.77) scale(.1 -.1)">
<use xlink:href="#e"/>
<use x="63.623047" xlink:href="#h"/>
<use x="95.410156" xlink:href="#e"/>
<use x="159.033203" xlink:href="#aa"/>
</g>
</g>
<g clip-path="url(#a)">
<defs>
<path id="af" d="m8.2031 72.906h46.875v-4.2031l-26.469-68.703h-10.297l24.906 64.594h-35.016z"/>
</defs>
<g transform="translate(354.07 726.77) scale(.1 -.1)">
<use xlink:href="#e"/>
<use x="63.623047" xlink:href="#h"/>
<use x="95.410156" xlink:href="#e"/>
<use x="159.033203" xlink:href="#af"/>
</g>
</g>
<g clip-path="url(#a)">
<defs>
<path id="al" d="m31.781 34.625q-7.0312 0-11.062-3.7656-4.0156-3.7656-4.0156-10.344 0-6.5938 4.0156-10.359 4.0312-3.7656 11.062-3.7656t11.078 3.7812q4.0625 3.7969 4.0625 10.344 0 6.5781-4.0312 10.344-4.0156 3.7656-11.109 3.7656zm-9.8594 4.1875q-6.3438 1.5625-9.8906 5.9062-3.5312 4.3594-3.5312 10.609 0 8.7344 6.2188 13.812 6.2344 5.0781 17.062 5.0781 10.891 0 17.094-5.0781t6.2031-13.812q0-6.25-3.5469-10.609-3.5312-4.3438-9.8281-5.9062 7.125-1.6562 11.094-6.5 3.9844-4.8281 3.9844-11.797 0-10.609-6.4688-16.281-6.4688-5.6562-18.531-5.6562-12.047 0-18.531 5.6562-6.4688 5.6719-6.4688 16.281 0 6.9688 4 11.797 4.0156 4.8438 11.141 6.5zm-3.6094 15.578q0-5.6562 3.5312-8.8281 3.5469-3.1719 9.9375-3.1719 6.3594 0 9.9375 3.1719 3.5938 3.1719 3.5938 8.8281 0 5.6719-3.5938 8.8438-3.5781 3.1719-9.9375 3.1719-6.3906 0-9.9375-3.1719-3.5312-3.1719-3.5312-8.8438z"/>
</defs>
<g transform="translate(401.48 726.77) scale(.1 -.1)">
<use xlink:href="#e"/>
<use x="63.623047" xlink:href="#h"/>
<use x="95.410156" xlink:href="#e"/>
<use x="159.033203" xlink:href="#al"/>
</g>
</g>
<g clip-path="url(#a)">
<defs>
<path id="ak" d="m10.984 1.5156v8.9844q3.7188-1.7656 7.5156-2.6875 3.8125-0.92188 7.4844-0.92188 9.7656 0 14.906 6.5625 5.1562 6.5625 5.8906 19.953-2.8281-4.2031-7.1875-6.4531-4.3438-2.25-9.6094-2.25-10.938 0-17.312 6.6094-6.375 6.625-6.375 18.109 0 11.219 6.6406 18 6.6406 6.7969 17.672 6.7969 12.656 0 19.312-9.7031 6.6719-9.6875 6.6719-28.141 0-17.234-8.1875-27.516-8.1719-10.281-21.984-10.281-3.7188 0-7.5312 0.73438-3.7969 0.73438-7.9062 2.2031zm19.625 30.906q6.6406 0 10.516 4.5312 3.8906 4.5469 3.8906 12.469 0 7.8594-3.8906 12.422-3.875 4.5625-10.516 4.5625t-10.516-4.5625-3.875-12.422q0-7.9219 3.875-12.469 3.875-4.5312 10.516-4.5312z"/>
</defs>
<g transform="translate(744.73 392.87) scale(.1 -.1)">
<use xlink:href="#e"/>
<use x="63.623047" xlink:href="#h"/>
<use x="95.410156" xlink:href="#e"/>
<use x="159.033203" xlink:href="#ak"/>
</g>
</g>
<g clip-path="url(#a)">
<g transform="translate(1065.2 560.97) scale(.1 -.1)">
<use xlink:href="#e"/>
<use x="63.623047" xlink:href="#h"/>
<use x="95.410156" xlink:href="#m"/>
<use x="159.033203" xlink:href="#ag"/>
</g>
</g>
<g clip-path="url(#a)">
<g transform="translate(1160 726.77) scale(.1 -.1)">
<use xlink:href="#e"/>
<use x="63.623047" xlink:href="#h"/>
<use x="95.410156" xlink:href="#m"/>
<use x="159.033203" xlink:href="#e"/>
</g>
</g>
<g clip-path="url(#a)">
<g transform="translate(1017.8 726.77) scale(.1 -.1)">
<use xlink:href="#e"/>
<use x="63.623047" xlink:href="#h"/>
<use x="95.410156" xlink:href="#m"/>
<use x="159.033203" xlink:href="#m"/>
</g>
</g>
<g clip-path="url(#a)">
<g transform="translate(1065.2 726.77) scale(.1 -.1)">
<use xlink:href="#e"/>
<use x="63.623047" xlink:href="#h"/>
<use x="95.410156" xlink:href="#m"/>
<use x="159.033203" xlink:href="#o"/>
</g>
</g>
<g clip-path="url(#a)">
<g transform="translate(1112.6 726.77) scale(.1 -.1)">
<use xlink:href="#e"/>
<use x="63.623047" xlink:href="#h"/>
<use x="95.410156" xlink:href="#m"/>
<use x="159.033203" xlink:href="#n"/>
</g>
</g>
<g clip-path="url(#a)">
<g transform="translate(472.59 726.77) scale(.1 -.1)">
<use xlink:href="#e"/>
<use x="63.623047" xlink:href="#h"/>
<use x="95.410156" xlink:href="#m"/>
<use x="159.033203" xlink:href="#ab"/>
</g>
</g>
<g clip-path="url(#a)">
<g transform="translate(757.02 560.97) scale(.1 -.1)">
<use xlink:href="#e"/>
<use x="63.623047" xlink:href="#h"/>
<use x="95.410156" xlink:href="#m"/>
<use x="159.033203" xlink:href="#aa"/>
</g>
</g>
<g clip-path="url(#a)">
<g transform="translate(638.51 726.77) scale(.1 -.1)">
<use xlink:href="#e"/>
<use x="63.623047" xlink:href="#h"/>
<use x="95.410156" xlink:href="#m"/>
<use x="159.033203" xlink:href="#af"/>
</g>
</g>
<g clip-path="url(#a)">
<g transform="translate(828.13 560.97) scale(.1 -.1)">
<use xlink:href="#e"/>
<use x="63.623047" xlink:href="#h"/>
<use x="95.410156" xlink:href="#m"/>
<use x="159.033203" xlink:href="#al"/>
</g>
</g>
<g clip-path="url(#a)">
<g transform="translate(733.32 726.77) scale(.1 -.1)">
<use xlink:href="#e"/>
<use x="63.623047" xlink:href="#h"/>
<use x="95.410156" xlink:href="#m"/>
<use x="159.033203" xlink:href="#ak"/>
</g>
</g>
<g clip-path="url(#a)">
<g transform="translate(859.73 560.97) scale(.1 -.1)">
<use xlink:href="#e"/>
<use x="63.623047" xlink:href="#h"/>
<use x="95.410156" xlink:href="#o"/>
<use x="159.033203" xlink:href="#ag"/>
</g>
</g>
<g clip-path="url(#a)">
<g transform="translate(875.53 726.77) scale(.1 -.1)">
<use xlink:href="#e"/>
<use x="63.623047" xlink:href="#h"/>
<use x="95.410156" xlink:href="#o"/>
<use x="159.033203" xlink:href="#e"/>
</g>
</g>
<g clip-path="url(#a)">
<g transform="translate(946.64 560.97) scale(.1 -.1)">
<use xlink:href="#e"/>
<use x="63.623047" xlink:href="#h"/>
<use x="95.410156" xlink:href="#o"/>
<use x="159.033203" xlink:href="#m"/>
</g>
</g>
<g clip-path="url(#a)">
<g transform="translate(922.94 726.77) scale(.1 -.1)">
<use xlink:href="#e"/>
<use x="63.623047" xlink:href="#h"/>
<use x="95.410156" xlink:href="#o"/>
<use x="159.033203" xlink:href="#n"/>
</g>
</g>
<g clip-path="url(#a)">
<g transform="translate(970.34 726.77) scale(.1 -.1)">
<use xlink:href="#e"/>
<use x="63.623047" xlink:href="#h"/>
<use x="95.410156" xlink:href="#o"/>
<use x="159.033203" xlink:href="#ab"/>
</g>
</g>
<g clip-path="url(#a)">
<g transform="translate(780.72 726.77) scale(.1 -.1)">
<use xlink:href="#e"/>
<use x="63.623047" xlink:href="#h"/>
<use x="95.410156" xlink:href="#o"/>
<use x="159.033203" xlink:href="#aa"/>
</g>
</g>
<g clip-path="url(#a)">
<g transform="translate(828.13 726.77) scale(.1 -.1)">
<use xlink:href="#e"/>
<use x="63.623047" xlink:href="#h"/>
<use x="95.410156" xlink:href="#o"/>
<use x="159.033203" xlink:href="#af"/>
</g>
</g>
<g clip-path="url(#a)">
<g transform="translate(685.91 726.77) scale(.1 -.1)">
<use xlink:href="#e"/>
<use x="63.623047" xlink:href="#h"/>
<use x="95.410156" xlink:href="#o"/>
<use x="159.033203" xlink:href="#al"/>
</g>
</g>
<g clip-path="url(#a)">
<g transform="translate(543.7 726.77) scale(.1 -.1)">
<use xlink:href="#e"/>
<use x="63.623047" xlink:href="#h"/>
<use x="95.410156" xlink:href="#o"/>
<use x="159.033203" xlink:href="#ak"/>
</g>
</g>
<g clip-path="url(#a)">
<g transform="translate(117.05 726.77) scale(.1 -.1)">
<use xlink:href="#e"/>
<use x="63.623047" xlink:href="#h"/>
<use x="95.410156" xlink:href="#n"/>
<use x="159.033203" xlink:href="#ag"/>
</g>
</g>
<g clip-path="url(#a)">
<g transform="translate(164.45 726.77) scale(.1 -.1)">
<use xlink:href="#e"/>
<use x="63.623047" xlink:href="#h"/>
<use x="95.410156" xlink:href="#n"/>
<use x="159.033203" xlink:href="#e"/>
</g>
</g>
<g clip-path="url(#a)">
<g transform="translate(211.86 726.77) scale(.1 -.1)">
<use xlink:href="#e"/>
<use x="63.623047" xlink:href="#h"/>
<use x="95.410156" xlink:href="#n"/>
<use x="159.033203" xlink:href="#m"/>
</g>
</g>
<g clip-path="url(#a)">
<g transform="translate(259.26 726.77) scale(.1 -.1)">
<use xlink:href="#e"/>
<use x="63.623047" xlink:href="#h"/>
<use x="95.410156" xlink:href="#n"/>
<use x="159.033203" xlink:href="#o"/>
</g>
</g>
<g clip-path="url(#a)">
<g transform="translate(306.67 726.77) scale(.1 -.1)">
<use xlink:href="#e"/>
<use x="63.623047" xlink:href="#h"/>
<use x="95.410156" xlink:href="#n"/>
<use x="159.033203" xlink:href="#n"/>
</g>
</g>
<g clip-path="url(#a)">
<g transform="translate(591.1 726.77) scale(.1 -.1)">
<use xlink:href="#e"/>
<use x="63.623047" xlink:href="#h"/>
<use x="95.410156" xlink:href="#n"/>
<use x="159.033203" xlink:href="#ab"/>
</g>
</g>
<g clip-path="url(#a)">
<g transform="translate(1207.4 726.77) scale(.1 -.1)">
<use xlink:href="#e"/>
<use x="63.623047" xlink:href="#h"/>
<use x="95.410156" xlink:href="#n"/>
<use x="159.033203" xlink:href="#aa"/>
</g>
</g>
<g clip-path="url(#a)">
<g transform="translate(1681.4 726.77) scale(.1 -.1)">
<use xlink:href="#e"/>
<use x="63.623047" xlink:href="#h"/>
<use x="95.410156" xlink:href="#n"/>
<use x="159.033203" xlink:href="#af"/>
</g>
</g>
<defs>
<clipPath id="a">
<rect width="1773.3" height="933.33"/>
</clipPath>
</defs>
</svg>
