<?xml version="1.0" encoding="UTF-8"?>
<!DOCTYPE svg  PUBLIC '-//W3C//DTD SVG 1.1//EN'  'http://www.w3.org/Graphics/SVG/1.1/DTD/svg11.dtd'>
<svg width="1368pt" height="720pt" version="1.1" viewBox="0 0 1368 720" xmlns="http://www.w3.org/2000/svg" xmlns:xlink="http://www.w3.org/1999/xlink">
<defs>
<style type="text/css">*{stroke-linecap:butt;stroke-linejoin:round;}</style>
</defs>
<path d="m0 720h1368v-720h-1368z" fill="#fff"/>
<g fill="none" stroke="#000">
<path d="m387.9 32.727v94.371" clip-path="url(#a)"/>
<path d="m387.9 127.1 917.92 94.213" clip-path="url(#a)"/>
<path d="m387.9 127.1 917.92 94.213" clip-path="url(#a)"/>
<path d="m387.9 127.1v94.213" clip-path="url(#a)"/>
<path d="m387.9 221.31-321.11 281.28" clip-path="url(#a)"/>
<path d="m387.9 221.31-212.87 94.023" clip-path="url(#a)"/>
<path d="m387.9 221.31 82.69 374.26" clip-path="url(#a)"/>
<path d="m387.9 221.31 347.54 187.81" clip-path="url(#a)"/>
<path d="m387.9 221.31 374.41 374.26" clip-path="url(#a)"/>
<path d="m387.9 221.31-304.22 374.26" clip-path="url(#a)"/>
<path d="m387.9 221.31 33.558 374.26" clip-path="url(#a)"/>
<path d="m66.788 502.59-4.6061 92.98" clip-path="url(#a)"/>
<path d="m66.788 502.59 4.6061 92.98" clip-path="url(#a)"/>
<path d="m175.03 315.33-76 280.23" clip-path="url(#a)"/>
<path d="m175.03 315.33-57.576 280.23" clip-path="url(#a)"/>
<path d="m175.03 315.33-5.3737 93.786" clip-path="url(#a)"/>
<path d="m175.03 315.33 138.95 187.25" clip-path="url(#a)"/>
<path d="m470.59 595.57v91.705" clip-path="url(#a)"/>
<path d="m735.43 409.12-185.01 93.468" clip-path="url(#a)"/>
<path d="m735.43 409.12-99.03 186.45" clip-path="url(#a)"/>
<path d="m735.43 409.12-37.616 186.45" clip-path="url(#a)"/>
<path d="m735.43 409.12 321.66 93.468" clip-path="url(#a)"/>
<path d="m762.3 595.57v91.705" clip-path="url(#a)"/>
<path d="m550.42 502.59-27.636 92.98" clip-path="url(#a)"/>
<path d="m550.42 502.59 27.636 92.98" clip-path="url(#a)"/>
<path d="m636.4 595.57v91.705" clip-path="url(#a)"/>
<path d="m697.82 595.57v91.705" clip-path="url(#a)"/>
<path d="m1057.1 502.59-227.23 92.98" clip-path="url(#a)"/>
<path d="m1057.1 502.59-156.61 92.98" clip-path="url(#a)"/>
<path d="m1057.1 502.59-82.909 92.98" clip-path="url(#a)"/>
<path d="m1057.1 502.59-6.1414 92.98" clip-path="url(#a)"/>
<path d="m1057.1 502.59 73.697 92.98" clip-path="url(#a)"/>
<path d="m1057.1 502.59 156.61 92.98" clip-path="url(#a)"/>
<path d="m1057.1 502.59 242.59 92.98" clip-path="url(#a)"/>
<path d="m829.86 595.57v91.705" clip-path="url(#a)"/>
<path d="m900.48 595.57v91.705" clip-path="url(#a)"/>
<path d="m974.18 595.57v91.705" clip-path="url(#a)"/>
<path d="m522.79 595.57v91.705" clip-path="url(#a)"/>
<path d="m578.06 595.57v91.705" clip-path="url(#a)"/>
<path d="m99.03 595.57v91.705" clip-path="url(#a)"/>
<path d="m117.45 595.57v91.705" clip-path="url(#a)"/>
<path d="m169.66 409.12-30.707 186.45" clip-path="url(#a)"/>
<path d="m169.66 409.12-6.1414 186.45" clip-path="url(#a)"/>
<path d="m169.66 409.12 36.848 93.468" clip-path="url(#a)"/>
<path d="m313.98 502.59-58.343 92.98" clip-path="url(#a)"/>
<path d="m313.98 502.59-21.495 92.98" clip-path="url(#a)"/>
<path d="m313.98 502.59 18.424 92.98" clip-path="url(#a)"/>
<path d="m313.98 502.59 61.414 92.98" clip-path="url(#a)"/>
<path d="m255.64 595.57v91.705" clip-path="url(#a)"/>
<path d="m292.48 595.57v91.705" clip-path="url(#a)"/>
<path d="m332.4 595.57v91.705" clip-path="url(#a)"/>
<path d="m375.39 595.57v91.705" clip-path="url(#a)"/>
<path d="m138.95 595.57v91.705" clip-path="url(#a)"/>
<path d="m163.52 595.57v91.705" clip-path="url(#a)"/>
<path d="m206.51 502.59-15.354 92.98" clip-path="url(#a)"/>
<path d="m206.51 502.59 15.354 92.98" clip-path="url(#a)"/>
<path d="m191.15 595.57v91.705" clip-path="url(#a)"/>
<path d="m221.86 595.57v91.705" clip-path="url(#a)"/>
<path d="m62.182 595.57v91.705" clip-path="url(#a)"/>
<path d="m71.394 595.57v91.705" clip-path="url(#a)"/>
<path d="m83.677 595.57v91.705" clip-path="url(#a)"/>
<path d="m421.45 595.57v91.705" clip-path="url(#a)"/>
<path d="m1050.9 595.57v91.705" clip-path="url(#a)"/>
<path d="m1130.8 595.57v91.705" clip-path="url(#a)"/>
<path d="m1213.7 595.57v91.705" clip-path="url(#a)"/>
<path d="m1299.7 595.57v91.705" clip-path="url(#a)"/>
</g>
<path d="m381.62 76.904v6.0162q0 2.4 2.4 2.4h7.7425q2.4 0 2.4-2.4v-6.0162q0-2.4-2.4-2.4h-7.7425q-2.4 0-2.4 2.4z" clip-path="url(#a)" fill="#fff" stroke="#fff"/>
<g clip-path="url(#a)">
<defs>
<path id="z" d="m9.8125 72.906h9.8594v-29.891h35.844v29.891h9.8594v-72.906h-9.8594v34.719h-35.844v-34.719h-9.8594z"/>
</defs>
<g transform="translate(385.69 76.904) rotate(90) scale(.08 -.08)">
<use xlink:href="#z"/>
</g>
</g>
<path d="m843.82 180.2 4.7985 0.49251q2.3875 0.24504 2.6325-2.1424l0.79051-7.702q0.24504-2.3875-2.1424-2.6325l-4.7985-0.49251q-2.3875-0.24504-2.6325 2.1424l-0.79051 7.702q-0.24504 2.3875 2.1424 2.6325z" clip-path="url(#a)" fill="#fff" stroke="#fff"/>
<g clip-path="url(#a)">
<defs>
<path id="x" d="m19.672 64.797v-27.391h12.406q6.8906 0 10.641 3.5625 3.7656 3.5625 3.7656 10.156 0 6.5469-3.7656 10.109-3.75 3.5625-10.641 3.5625zm-9.8594 8.1094h22.266q12.266 0 18.531-5.5469 6.2812-5.5469 6.2812-16.234 0-10.797-6.2812-16.312-6.2656-5.5156-18.531-5.5156h-12.406v-29.297h-9.8594z"/>
</defs>
<g transform="translate(844.23 176.15) rotate(5.8601) scale(.08 -.08)">
<use xlink:href="#x"/>
</g>
</g>
<path d="m843.49 180.16 5.4439 0.55875q2.3875 0.24504 2.6325-2.1424l0.79051-7.702q0.24504-2.3875-2.1424-2.6325l-5.4439-0.55875q-2.3875-0.24504-2.6325 2.1424l-0.79052 7.702q-0.24504 2.3875 2.1424 2.6325z" clip-path="url(#a)" fill="#fff" stroke="#fff"/>
<g clip-path="url(#a)">
<defs>
<path id="p" d="m34.188 63.188-13.391-36.281h26.812zm-5.5781 9.7188h11.188l27.781-72.906h-10.25l-6.6406 18.703h-32.859l-6.6406-18.703h-10.406z"/>
</defs>
<g transform="translate(843.91 176.12) rotate(5.8601) scale(.08 -.08)">
<use xlink:href="#p"/>
</g>
</g>
<path d="m381.62 171.47v5.4725q0 2.4 2.4 2.4h7.7425q2.4 0 2.4-2.4v-5.4725q0-2.4-2.4-2.4h-7.7425q-2.4 0-2.4 2.4z" clip-path="url(#a)" fill="#fff" stroke="#fff"/>
<g clip-path="url(#a)">
<g transform="translate(385.69 171.47) rotate(90) scale(.08 -.08)">
<use xlink:href="#p"/>
</g>
</g>
<path d="m229.21 368.65 4.5255-3.9642q1.8053-1.5814 0.22394-3.3867l-5.1016-5.8241q-1.5814-1.8053-3.3867-0.22394l-4.5255 3.9642q-1.8053 1.5814-0.22394 3.3867l5.1016 5.8241q1.5814 1.8053 3.3867 0.22394z" clip-path="url(#a)" fill="#fff" stroke="#fff"/>
<g clip-path="url(#a)">
<g transform="translate(226.53 365.59) rotate(-41.217) scale(.08 -.08)">
<use xlink:href="#z"/>
</g>
</g>
<path d="m281.25 275.27 5.5033-2.4308q2.1954-0.9697 1.2257-3.1651l-3.1283-7.0824q-0.9697-2.1954-3.1651-1.2257l-5.5033 2.4308q-2.1954 0.9697-1.2257 3.1651l3.1283 7.0824q0.9697 2.1954 3.1651 1.2257z" clip-path="url(#a)" fill="#fff" stroke="#fff"/>
<g clip-path="url(#a)">
<g transform="translate(279.6 271.56) rotate(-23.831) scale(.08 -.08)">
<use xlink:href="#z"/>
</g>
</g>
<path d="m422.64 407.62 0.96166 4.3525q0.51778 2.3435 2.8613 1.8257l7.5602-1.6704q2.3435-0.51778 1.8257-2.8613l-0.96166-4.3525q-0.51778-2.3435-2.8613-1.8257l-7.5602 1.6704q-2.3435 0.51778-1.8257 2.8613z" clip-path="url(#a)" fill="#fff" stroke="#fff"/>
<g clip-path="url(#a)">
<defs>
<path id="y" d="m9.8125 72.906h9.8594v-64.609h35.5v-8.2969h-45.359z"/>
</defs>
<g transform="translate(426.6 406.74) rotate(77.541) scale(.08 -.08)">
<use xlink:href="#y"/>
</g>
</g>
<path d="m556.04 319.3 5.2928 2.8602q2.1114 1.141 3.2524-0.97041l3.6809-6.8115q1.141-2.1114-0.97041-3.2524l-5.2928-2.8602q-2.1114-1.141-3.2524 0.97041l-3.6809 6.8115q-1.141 2.1114 0.97041 3.2524z" clip-path="url(#a)" fill="#fff" stroke="#fff"/>
<g clip-path="url(#a)">
<g transform="translate(557.97 315.73) rotate(28.387) scale(.08 -.08)">
<use xlink:href="#z"/>
</g>
</g>
<path d="m569.09 411.3 3.1526 3.1513q1.6974 1.6967 3.3941-6.77e-4l5.4737-5.4759q1.6967-1.6974-6.78e-4 -3.3941l-3.1526-3.1513q-1.6974-1.6967-3.3941 6.77e-4l-5.4737 5.4759q-1.6967 1.6974 6.77e-4 3.3941z" clip-path="url(#a)" fill="#fff" stroke="#fff"/>
<g clip-path="url(#a)">
<g transform="translate(571.96 408.43) rotate(44.989) scale(.08 -.08)">
<use xlink:href="#y"/>
</g>
</g>
<path d="m238.81 414.67 3.6931-4.5433q1.5138-1.8623-0.34852-3.3762l-6.008-4.8837q-1.8623-1.5138-3.3762 0.34852l-3.6931 4.5433q-1.5138 1.8623 0.34852 3.3762l6.008 4.8837q1.8623 1.5138 3.3762-0.34852z" clip-path="url(#a)" fill="#fff" stroke="#fff"/>
<g clip-path="url(#a)">
<defs>
<path id="q" d="m8.6875 72.906h9.9219v-44.297q0-11.719 4.2344-16.875 4.25-5.1406 13.781-5.1406 9.4688 0 13.719 5.1406 4.25 5.1562 4.25 16.875v44.297h9.9062v-45.516q0-14.25-7.0625-21.531-7.0469-7.2812-20.812-7.2812-13.828 0-20.891 7.2812-7.0469 7.2812-7.0469 21.531z"/>
</defs>
<g transform="translate(235.65 412.1) rotate(-50.894) scale(.08 -.08)">
<use xlink:href="#q"/>
</g>
</g>
<path d="m398.17 406.08 0.5229 5.8316q0.21434 2.3904 2.6048 2.1761l7.7116-0.69147q2.3904-0.21434 2.1761-2.6048l-0.5229-5.8316q-0.21434-2.3904-2.6047-2.1761l-7.7116 0.69147q-2.3904 0.21434-2.1761 2.6048z" clip-path="url(#a)" fill="#fff" stroke="#fff"/>
<g clip-path="url(#a)">
<g transform="translate(402.22 405.72) rotate(84.876) scale(.08 -.08)">
<use xlink:href="#q"/>
</g>
</g>
<path d="m70.613 552.12 0.27076-5.4658q0.11875-2.3971-2.2783-2.5158l-7.733-0.38308q-2.3971-0.11875-2.5158 2.2783l-0.27076 5.4658q-0.11875 2.3971 2.2783 2.5158l7.733 0.38308q2.3971 0.11875 2.5158-2.2783z" clip-path="url(#a)" fill="#fff" stroke="#fff"/>
<g clip-path="url(#a)">
<g transform="translate(66.554 551.92) rotate(-87.164) scale(.08 -.08)">
<use xlink:href="#p"/>
</g>
</g>
<path d="m62.702 546.85 0.25128 5.0725q0.11875 2.3971 2.5158 2.2783l7.733-0.38308q2.3971-0.11874 2.2783-2.5158l-0.25128-5.0725q-0.11875-2.3971-2.5158-2.2783l-7.733 0.38308q-2.3971 0.11875-2.2783 2.5158z" clip-path="url(#a)" fill="#fff" stroke="#fff"/>
<g clip-path="url(#a)">
<defs>
<path id="af" d="m53.516 70.516v-9.625q-5.6094 2.6875-10.594 4-4.9844 1.3281-9.625 1.3281-8.0469 0-12.422-3.125t-4.375-8.8906q0-4.8438 2.9062-7.3125 2.9062-2.4531 11.016-3.9688l5.9531-1.2188q11.031-2.1094 16.281-7.4062t5.25-14.172q0-10.609-7.1094-16.078-7.0938-5.4688-20.812-5.4688-5.1719 0-11.016 1.1719-5.8281 1.1719-12.078 3.4688v10.156q6-3.3594 11.766-5.0781 5.7656-1.7031 11.328-1.7031 8.4375 0 13.031 3.3125 4.5938 3.3281 4.5938 9.4844 0 5.3594-3.2969 8.3906t-10.812 4.5469l-6.0156 1.1719q-11.031 2.1875-15.969 6.875-4.9219 4.6875-4.9219 13.047 0 9.6719 6.8125 15.234t18.766 5.5625q5.1406 0 10.453-0.9375 5.3281-0.92188 10.891-2.7656z"/>
</defs>
<g transform="translate(66.76 546.65) rotate(87.164) scale(.08 -.08)">
<use xlink:href="#af"/>
</g>
</g>
<path d="m142.37 459.73 1.4324-5.2817q0.62819-2.3163-1.6881-2.9445l-7.4726-2.0266q-2.3163-0.62819-2.9445 1.6881l-1.4324 5.2817q-0.62819 2.3163 1.6881 2.9445l7.4726 2.0266q2.3163 0.62819 2.9445-1.6881z" clip-path="url(#a)" fill="#fff" stroke="#fff"/>
<g clip-path="url(#a)">
<g transform="translate(138.44 458.67) rotate(-74.826) scale(.08 -.08)">
<use xlink:href="#p"/>
</g>
</g>
<path d="m151.9 459.08 0.97079-4.7251q0.483-2.3509-1.8679-2.8339l-7.5841-1.5582q-2.3509-0.48301-2.8339 1.8679l-0.97079 4.7251q-0.483 2.3509 1.8679 2.8339l7.5841 1.5582q2.3509 0.483 2.8339-1.8679z" clip-path="url(#a)" fill="#fff" stroke="#fff"/>
<g clip-path="url(#a)">
<g transform="translate(147.92 458.26) rotate(-78.39) scale(.08 -.08)">
<use xlink:href="#x"/>
</g>
</g>
<path d="m178.45 365.32 0.31305-5.4635q0.13729-2.3961-2.2588-2.5334l-7.7298-0.4429q-2.3961-0.13729-2.5334 2.2588l-0.31305 5.4635q-0.13729 2.3961 2.2588 2.5334l7.7298 0.4429q2.3961 0.13729 2.5334-2.2588z" clip-path="url(#a)" fill="#fff" stroke="#fff"/>
<g clip-path="url(#a)">
<g transform="translate(174.39 365.09) rotate(-86.721) scale(.08 -.08)">
<use xlink:href="#p"/>
</g>
</g>
<path d="m237.84 410.5 3.2611 4.3947q1.4302 1.9273 3.3575 0.49718l6.2177-4.6138q1.9273-1.4302 0.49718-3.3575l-3.2611-4.3947q-1.4302-1.9273-3.3575-0.49718l-6.2177 4.6138q-1.9273 1.4302-0.49718 3.3575z" clip-path="url(#a)" fill="#fff" stroke="#fff"/>
<g clip-path="url(#a)">
<g transform="translate(241.1 408.08) rotate(53.423) scale(.08 -.08)">
<use xlink:href="#p"/>
</g>
</g>
<path d="m464.31 624.52v33.808q0 2.4 2.4 2.4h7.7425q2.4 0 2.4-2.4v-33.808q0-2.4-2.4-2.4h-7.7425q-2.4 0-2.4 2.4z" clip-path="url(#a)" fill="#fff" stroke="#fff"/>
<g clip-path="url(#a)">
<defs>
<path id="k" d="m-0.29688 72.906h61.672v-8.3125h-25.875v-64.594h-9.9062v64.594h-25.891z"/>
<path id="c" d="m56.203 29.594v-4.3906h-41.312q0.59375-9.2812 5.5938-14.141t13.938-4.8594q5.1719 0 10.031 1.2656t9.6562 3.8125v-8.5q-4.8438-2.0469-9.9219-3.125t-10.297-1.0781q-13.094 0-20.734 7.6094-7.6406 7.625-7.6406 20.625 0 13.422 7.25 21.297 7.25 7.8906 19.562 7.8906 11.031 0 17.453-7.1094 6.4219-7.0938 6.4219-19.297zm-8.9844 2.6406q-0.09375 7.3594-4.125 11.75-4.0312 4.4062-10.672 4.4062-7.5156 0-12.031-4.25t-5.2031-11.969z"/>
<path id="j" d="m41.109 46.297q-1.5156 0.875-3.2969 1.2812-1.7812 0.42188-3.9219 0.42188-7.625 0-11.703-4.9531t-4.0781-14.234v-28.812h-9.0312v54.688h9.0312v-8.5q2.8438 4.9844 7.375 7.3906 4.5469 2.4219 11.047 2.4219 0.92188 0 2.0469-0.125 1.125-0.10938 2.4844-0.35938z"/>
<path id="l" d="m52 44.188q3.375 6.0625 8.0625 8.9375t11.031 2.875q8.5469 0 13.188-5.9844 4.6406-5.9688 4.6406-17v-33.016h-9.0312v32.719q0 7.8594-2.7969 11.656-2.7812 3.8125-8.4844 3.8125-6.9844 0-11.047-4.6406-4.0469-4.625-4.0469-12.641v-30.906h-9.0312v32.719q0 7.9062-2.7812 11.688t-8.5938 3.7812q-6.8906 0-10.953-4.6562-4.0469-4.6562-4.0469-12.625v-30.906h-9.0312v54.688h9.0312v-8.5q3.0781 5.0312 7.375 7.4219t10.203 2.3906q5.9688 0 10.141-3.0312 4.1719-3.0156 6.1719-8.7812z"/>
<path id="g" d="m9.4219 54.688h8.9844v-54.688h-8.9844zm0 21.297h8.9844v-11.391h-8.9844z"/>
<path id="f" d="m54.891 33.016v-33.016h-8.9844v32.719q0 7.7656-3.0312 11.609-3.0312 3.8594-9.0781 3.8594-7.2812 0-11.484-4.6406-4.2031-4.625-4.2031-12.641v-30.906h-9.0312v54.688h9.0312v-8.5q3.2344 4.9375 7.5938 7.375 4.375 2.4375 10.094 2.4375 9.4219 0 14.25-5.8281 4.8438-5.8281 4.8438-17.156z"/>
<path id="i" d="m34.281 27.484q-10.891 0-15.094-2.4844t-4.2031-8.5q0-4.7812 3.1562-7.5938 3.1562-2.7969 8.5625-2.7969 7.4844 0 12 5.2969t4.5156 14.078v2zm17.922 3.7188v-31.203h-8.9844v8.2969q-3.0781-4.9688-7.6719-7.3438t-11.234-2.375q-8.3906 0-13.359 4.7188-4.9531 4.7188-4.9531 12.625 0 9.2188 6.1719 13.906 6.1875 4.6875 18.438 4.6875h12.609v0.89062q0 6.2031-4.0781 9.5938t-11.453 3.3906q-4.6875 0-9.1406-1.125-4.4375-1.125-8.5312-3.375v8.3125q4.9219 1.9062 9.5625 2.8438 4.6406 0.95312 9.0312 0.95312 11.875 0 17.734-6.1562 5.8594-6.1406 5.8594-18.641z"/>
<path id="h" d="m9.4219 75.984h8.9844v-75.984h-8.9844z"/>
</defs>
<g transform="translate(468.38 624.52) rotate(90) scale(.08 -.08)">
<use xlink:href="#k"/>
<use x="44.083984" xlink:href="#c"/>
<use x="105.607422" xlink:href="#j"/>
<use x="144.970703" xlink:href="#l"/>
<use x="242.382812" xlink:href="#g"/>
<use x="270.166016" xlink:href="#f"/>
<use x="333.544922" xlink:href="#i"/>
<use x="394.824219" xlink:href="#h"/>
</g>
</g>
<path d="m643.31 462.69 4.8845-2.4677q2.1421-1.0822 1.0599-3.2244l-3.4913-6.9107q-1.0822-2.1421-3.2244-1.0599l-4.8845 2.4677q-2.1421 1.0822-1.0599 3.2244l3.4913 6.9107q1.0822 2.1421 3.2244 1.0599z" clip-path="url(#a)" fill="#fff" stroke="#fff"/>
<g clip-path="url(#a)">
<g transform="translate(641.48 459.06) rotate(-26.803) scale(.08 -.08)">
<use xlink:href="#p"/>
</g>
</g>
<path d="m690.33 507.42 2.2627-4.2601q1.1258-2.1196-0.99378-3.2454l-6.8378-3.6319q-2.1196-1.1258-3.2454 0.99378l-2.2627 4.2601q-1.1258 2.1196 0.99378 3.2454l6.8378 3.6319q2.1196 1.1258 3.2454-0.99378z" clip-path="url(#a)" fill="#fff" stroke="#fff"/>
<g clip-path="url(#a)">
<g transform="translate(686.74 505.51) rotate(-62.025) scale(.08 -.08)">
<use xlink:href="#x"/>
</g>
</g>
<path d="m722.23 506.27 1.0823-5.3644q0.47464-2.3526-1.878-2.8272l-7.5896-1.5312q-2.3526-0.47464-2.8272 1.878l-1.0823 5.3644q-0.47464 2.3526 1.878 2.8272l7.5896 1.5312q2.3526 0.47464 2.8272-1.878z" clip-path="url(#a)" fill="#fff" stroke="#fff"/>
<g clip-path="url(#a)">
<g transform="translate(718.25 505.46) rotate(-78.594) scale(.08 -.08)">
<use xlink:href="#p"/>
</g>
</g>
<path d="m891.89 461.11 5.2551 1.5271q2.3047 0.6697 2.9744-1.635l2.1605-7.435q0.6697-2.3047-1.635-2.9744l-5.2551-1.5271q-2.3047-0.6697-2.9744 1.635l-2.1605 7.435q-0.6697 2.3047 1.635 2.9744z" clip-path="url(#a)" fill="#fff" stroke="#fff"/>
<g clip-path="url(#a)">
<g transform="translate(893.02 457.21) rotate(16.203) scale(.08 -.08)">
<use xlink:href="#p"/>
</g>
</g>
<path d="m756.03 624.52v33.808q0 2.4 2.4 2.4h7.7425q2.4 0 2.4-2.4v-33.808q0-2.4-2.4-2.4h-7.7425q-2.4 0-2.4 2.4z" clip-path="url(#a)" fill="#fff" stroke="#fff"/>
<g clip-path="url(#a)">
<g transform="translate(760.1 624.52) rotate(90) scale(.08 -.08)">
<use xlink:href="#k"/>
<use x="44.083984" xlink:href="#c"/>
<use x="105.607422" xlink:href="#j"/>
<use x="144.970703" xlink:href="#l"/>
<use x="242.382812" xlink:href="#g"/>
<use x="270.166016" xlink:href="#f"/>
<use x="333.544922" xlink:href="#i"/>
<use x="394.824219" xlink:href="#h"/>
</g>
</g>
<path d="m541.9 553.29 1.4402-4.8455q0.68378-2.3005-1.6167-2.9843l-7.4216-2.2059q-2.3005-0.68378-2.9843 1.6167l-1.4402 4.8455q-0.68378 2.3005 1.6167 2.9843l7.4216 2.2059q2.3005 0.68378 2.9843-1.6167z" clip-path="url(#a)" fill="#fff" stroke="#fff"/>
<g clip-path="url(#a)">
<defs>
<path id="aa" d="m9.8125 72.906h46.094v-8.3125h-36.234v-21.578h34.719v-8.2969h-34.719v-26.422h37.109v-8.2969h-46.969z"/>
</defs>
<g transform="translate(538 552.13) rotate(-73.447) scale(.08 -.08)">
<use xlink:href="#aa"/>
</g>
</g>
<path d="m557.44 548.19 1.5916 5.3547q0.68378 2.3005 2.9843 1.6167l7.4216-2.2059q2.3005-0.68378 1.6167-2.9843l-1.5916-5.3547q-0.68378-2.3005-2.9843-1.6167l-7.4216 2.2059q-2.3005 0.68378-1.6167 2.9843z" clip-path="url(#a)" fill="#fff" stroke="#fff"/>
<g clip-path="url(#a)">
<defs>
<path id="r" d="m64.406 67.281v-10.391q-4.9844 4.6406-10.625 6.9219-5.6406 2.2969-11.984 2.2969-12.5 0-19.141-7.6406t-6.6406-22.094q0-14.406 6.6406-22.047t19.141-7.6406q6.3438 0 11.984 2.2969t10.625 6.9375v-10.312q-5.1719-3.5156-10.969-5.2812-5.7812-1.75-12.219-1.75-16.562 0-26.094 10.125-9.5156 10.141-9.5156 27.672 0 17.578 9.5156 27.703 9.5312 10.141 26.094 10.141 6.5312 0 12.312-1.7344 5.7969-1.7344 10.875-5.2031z"/>
</defs>
<g transform="translate(561.33 547.03) rotate(73.447) scale(.08 -.08)">
<use xlink:href="#r"/>
</g>
</g>
<path d="m630.13 624.52v33.808q0 2.4 2.4 2.4h7.7425q2.4 0 2.4-2.4v-33.808q0-2.4-2.4-2.4h-7.7425q-2.4 0-2.4 2.4z" clip-path="url(#a)" fill="#fff" stroke="#fff"/>
<g clip-path="url(#a)">
<g transform="translate(634.2 624.52) rotate(90) scale(.08 -.08)">
<use xlink:href="#k"/>
<use x="44.083984" xlink:href="#c"/>
<use x="105.607422" xlink:href="#j"/>
<use x="144.970703" xlink:href="#l"/>
<use x="242.382812" xlink:href="#g"/>
<use x="270.166016" xlink:href="#f"/>
<use x="333.544922" xlink:href="#i"/>
<use x="394.824219" xlink:href="#h"/>
</g>
</g>
<path d="m691.55 624.52v33.808q0 2.4 2.4 2.4h7.7425q2.4 0 2.4-2.4v-33.808q0-2.4-2.4-2.4h-7.7425q-2.4 0-2.4 2.4z" clip-path="url(#a)" fill="#fff" stroke="#fff"/>
<g clip-path="url(#a)">
<g transform="translate(695.61 624.52) rotate(90) scale(.08 -.08)">
<use xlink:href="#k"/>
<use x="44.083984" xlink:href="#c"/>
<use x="105.607422" xlink:href="#j"/>
<use x="144.970703" xlink:href="#l"/>
<use x="242.382812" xlink:href="#g"/>
<use x="270.166016" xlink:href="#f"/>
<use x="333.544922" xlink:href="#i"/>
<use x="394.824219" xlink:href="#h"/>
</g>
</g>
<path d="m943.28 555.93 5.1447-2.1051q2.2212-0.9089 1.3123-3.1301l-2.9321-7.1658q-0.9089-2.2212-3.1301-1.3123l-5.1447 2.1051q-2.2212 0.9089-1.3123 3.1301l2.9321 7.1658q0.9089 2.2212 3.1301 1.3123z" clip-path="url(#a)" fill="#fff" stroke="#fff"/>
<g clip-path="url(#a)">
<defs>
<path id="ag" d="m44.391 34.188q3.1719-1.0781 6.1719-4.5938t6.0312-9.6719l10.016-19.922h-10.609l-9.3125 18.703q-3.625 7.3281-7.0156 9.7188t-9.25 2.3906h-10.75v-30.812h-9.8594v72.906h22.266q12.5 0 18.656-5.2344 6.1562-5.2188 6.1562-15.766 0-6.8906-3.2031-11.438-3.2031-4.5312-9.2969-6.2812zm-24.719 30.609v-25.875h12.406q7.125 0 10.766 3.2969t3.6406 9.6875-3.6406 9.6406-10.766 3.25z"/>
</defs>
<g transform="translate(941.74 552.17) rotate(-22.254) scale(.08 -.08)">
<use xlink:href="#ag"/>
</g>
</g>
<path d="m979.82 555.76 4.3466-2.5807q2.0637-1.2252 0.83843-3.2889l-3.9527-6.6575q-1.2252-2.0637-3.2889-0.83843l-4.3466 2.5807q-2.0637 1.2252-0.83843 3.2889l3.9527 6.6575q1.2252 2.0637 3.2889 0.83843z" clip-path="url(#a)" fill="#fff" stroke="#fff"/>
<g clip-path="url(#a)">
<g transform="translate(977.74 552.27) rotate(-30.698) scale(.08 -.08)">
<use xlink:href="#aa"/>
</g>
</g>
<path d="m1018.5 555.34 3.7178-4.1694q1.5973-1.7913-0.19402-3.3886l-5.7788-5.1529q-1.7913-1.5973-3.3886 0.19402l-3.7178 4.1694q-1.5973 1.7913 0.19402 3.3886l5.7788 5.1529q1.7913 1.5973 3.3886-0.19402z" clip-path="url(#a)" fill="#fff" stroke="#fff"/>
<g clip-path="url(#a)">
<g transform="translate(1015.4 552.63) rotate(-48.277) scale(.08 -.08)">
<use xlink:href="#r"/>
</g>
</g>
<path d="m1060.1 552.41 0.38589-5.8423q0.15818-2.3948-2.2366-2.553l-7.7257-0.51029q-2.3948-0.15818-2.553 2.2366l-0.38589 5.8423q-0.15818 2.3948 2.2366 2.553l7.7257 0.51029q2.3948 0.15818 2.553-2.2366z" clip-path="url(#a)" fill="#fff" stroke="#fff"/>
<g clip-path="url(#a)">
<g transform="translate(1056 552.14) rotate(-86.221) scale(.08 -.08)">
<use xlink:href="#q"/>
</g>
</g>
<path d="m1087.2 550.68 3.6369 4.5885q1.4908 1.8808 3.3716 0.39007l6.0677-4.8093q1.8808-1.4908 0.39007-3.3716l-3.6369-4.5885q-1.4908-1.8808-3.3716-0.39007l-6.0677 4.8093q-1.8808 1.4908-0.39007 3.3716z" clip-path="url(#a)" fill="#fff" stroke="#fff"/>
<g clip-path="url(#a)">
<g transform="translate(1090.4 548.16) rotate(51.599) scale(.08 -.08)">
<use xlink:href="#q"/>
</g>
</g>
<path d="m1129.7 552.98 5.0345 2.9891q2.0637 1.2252 3.2889-0.83843l3.9527-6.6575q1.2252-2.0637-0.83843-3.2889l-5.0345-2.9891q-2.0637-1.2252-3.2889 0.83843l-3.9527 6.6575q-1.2252 2.0637 0.83843 3.2889z" clip-path="url(#a)" fill="#fff" stroke="#fff"/>
<g clip-path="url(#a)">
<g transform="translate(1131.7 549.48) rotate(30.698) scale(.08 -.08)">
<use xlink:href="#q"/>
</g>
</g>
<path d="m1173.4 553.89 5.4672 2.0955q2.241 0.85896 3.1-1.3821l2.771-7.2296q0.85896-2.241-1.3821-3.1l-5.4672-2.0955q-2.241-0.85896-3.1 1.3821l-2.771 7.2296q-0.85896 2.241 1.3821 3.1z" clip-path="url(#a)" fill="#fff" stroke="#fff"/>
<g clip-path="url(#a)">
<g transform="translate(1174.9 550.09) rotate(20.971) scale(.08 -.08)">
<use xlink:href="#q"/>
</g>
</g>
<path d="m823.59 624.52v33.808q0 2.4 2.4 2.4h7.7425q2.4 0 2.4-2.4v-33.808q0-2.4-2.4-2.4h-7.7425q-2.4 0-2.4 2.4z" clip-path="url(#a)" fill="#fff" stroke="#fff"/>
<g clip-path="url(#a)">
<g transform="translate(827.65 624.52) rotate(90) scale(.08 -.08)">
<use xlink:href="#k"/>
<use x="44.083984" xlink:href="#c"/>
<use x="105.607422" xlink:href="#j"/>
<use x="144.970703" xlink:href="#l"/>
<use x="242.382812" xlink:href="#g"/>
<use x="270.166016" xlink:href="#f"/>
<use x="333.544922" xlink:href="#i"/>
<use x="394.824219" xlink:href="#h"/>
</g>
</g>
<path d="m894.21 624.52v33.808q0 2.4 2.4 2.4h7.7425q2.4 0 2.4-2.4v-33.808q0-2.4-2.4-2.4h-7.7425q-2.4 0-2.4 2.4z" clip-path="url(#a)" fill="#fff" stroke="#fff"/>
<g clip-path="url(#a)">
<g transform="translate(898.28 624.52) rotate(90) scale(.08 -.08)">
<use xlink:href="#k"/>
<use x="44.083984" xlink:href="#c"/>
<use x="105.607422" xlink:href="#j"/>
<use x="144.970703" xlink:href="#l"/>
<use x="242.382812" xlink:href="#g"/>
<use x="270.166016" xlink:href="#f"/>
<use x="333.544922" xlink:href="#i"/>
<use x="394.824219" xlink:href="#h"/>
</g>
</g>
<path d="m967.91 624.52v33.808q0 2.4 2.4 2.4h7.7425q2.4 0 2.4-2.4v-33.808q0-2.4-2.4-2.4h-7.7425q-2.4 0-2.4 2.4z" clip-path="url(#a)" fill="#fff" stroke="#fff"/>
<g clip-path="url(#a)">
<g transform="translate(971.97 624.52) rotate(90) scale(.08 -.08)">
<use xlink:href="#k"/>
<use x="44.083984" xlink:href="#c"/>
<use x="105.607422" xlink:href="#j"/>
<use x="144.970703" xlink:href="#l"/>
<use x="242.382812" xlink:href="#g"/>
<use x="270.166016" xlink:href="#f"/>
<use x="333.544922" xlink:href="#i"/>
<use x="394.824219" xlink:href="#h"/>
</g>
</g>
<path d="m516.52 624.52v33.808q0 2.4 2.4 2.4h7.7425q2.4 0 2.4-2.4v-33.808q0-2.4-2.4-2.4h-7.7425q-2.4 0-2.4 2.4z" clip-path="url(#a)" fill="#fff" stroke="#fff"/>
<g clip-path="url(#a)">
<g transform="translate(520.58 624.52) rotate(90) scale(.08 -.08)">
<use xlink:href="#k"/>
<use x="44.083984" xlink:href="#c"/>
<use x="105.607422" xlink:href="#j"/>
<use x="144.970703" xlink:href="#l"/>
<use x="242.382812" xlink:href="#g"/>
<use x="270.166016" xlink:href="#f"/>
<use x="333.544922" xlink:href="#i"/>
<use x="394.824219" xlink:href="#h"/>
</g>
</g>
<path d="m571.79 624.52v33.808q0 2.4 2.4 2.4h7.7425q2.4 0 2.4-2.4v-33.808q0-2.4-2.4-2.4h-7.7425q-2.4 0-2.4 2.4z" clip-path="url(#a)" fill="#fff" stroke="#fff"/>
<g clip-path="url(#a)">
<g transform="translate(575.85 624.52) rotate(90) scale(.08 -.08)">
<use xlink:href="#k"/>
<use x="44.083984" xlink:href="#c"/>
<use x="105.607422" xlink:href="#j"/>
<use x="144.970703" xlink:href="#l"/>
<use x="242.382812" xlink:href="#g"/>
<use x="270.166016" xlink:href="#f"/>
<use x="333.544922" xlink:href="#i"/>
<use x="394.824219" xlink:href="#h"/>
</g>
</g>
<path d="m92.759 624.52v33.808q0 2.4 2.4 2.4h7.7425q2.4 0 2.4-2.4v-33.808q0-2.4-2.4-2.4h-7.7425q-2.4 0-2.4 2.4z" clip-path="url(#a)" fill="#fff" stroke="#fff"/>
<g clip-path="url(#a)">
<g transform="translate(96.823 624.52) rotate(90) scale(.08 -.08)">
<use xlink:href="#k"/>
<use x="44.083984" xlink:href="#c"/>
<use x="105.607422" xlink:href="#j"/>
<use x="144.970703" xlink:href="#l"/>
<use x="242.382812" xlink:href="#g"/>
<use x="270.166016" xlink:href="#f"/>
<use x="333.544922" xlink:href="#i"/>
<use x="394.824219" xlink:href="#h"/>
</g>
</g>
<path d="m111.18 624.52v33.808q0 2.4 2.4 2.4h7.7425q2.4 0 2.4-2.4v-33.808q0-2.4-2.4-2.4h-7.7425q-2.4 0-2.4 2.4z" clip-path="url(#a)" fill="#fff" stroke="#fff"/>
<g clip-path="url(#a)">
<g transform="translate(115.25 624.52) rotate(90) scale(.08 -.08)">
<use xlink:href="#k"/>
<use x="44.083984" xlink:href="#c"/>
<use x="105.607422" xlink:href="#j"/>
<use x="144.970703" xlink:href="#l"/>
<use x="242.382812" xlink:href="#g"/>
<use x="270.166016" xlink:href="#f"/>
<use x="333.544922" xlink:href="#i"/>
<use x="394.824219" xlink:href="#h"/>
</g>
</g>
<path d="m160.12 505.63 0.74773-4.5401q0.39001-2.3681-1.9781-2.7581l-7.6396-1.2582q-2.3681-0.39001-2.7581 1.9781l-0.74773 4.5401q-0.39001 2.3681 1.9781 2.7581l7.6396 1.2582q2.3681 0.39001 2.7581-1.9781z" clip-path="url(#a)" fill="#fff" stroke="#fff"/>
<g clip-path="url(#a)">
<defs>
<path id="ao" d="m9.8125 72.906h41.891v-8.3125h-32.031v-21.484h28.906v-8.2969h-28.906v-34.812h-9.8594z"/>
</defs>
<g transform="translate(156.11 504.97) rotate(-80.648) scale(.08 -.08)">
<use xlink:href="#ao"/>
</g>
</g>
<path d="m172.76 505.34 0.18391-5.5832q0.079011-2.3987-2.3197-2.4777l-7.7383-0.25489q-2.3987-0.079011-2.4777 2.3197l-0.18391 5.5832q-0.079011 2.3987 2.3197 2.4777l7.7383 0.25489q2.3987 0.079011 2.4777-2.3197z" clip-path="url(#a)" fill="#fff" stroke="#fff"/>
<g clip-path="url(#a)">
<g transform="translate(168.7 505.21) rotate(-88.113) scale(.08 -.08)">
<use xlink:href="#r"/>
</g>
</g>
<path d="m181.32 455.8 1.854 4.7027q0.88023 2.2328 3.113 1.3525l7.203-2.8397q2.2328-0.88023 1.3525-3.113l-1.854-4.7027q-0.88023-2.2328-3.113-1.3525l-7.203 2.8397q-2.2328 0.88023-1.3525 3.113z" clip-path="url(#a)" fill="#fff" stroke="#fff"/>
<g clip-path="url(#a)">
<g transform="translate(185.1 454.31) rotate(68.484) scale(.08 -.08)">
<use xlink:href="#aa"/>
</g>
</g>
<path d="m288.64 554.77 2.9545-4.7086q1.2756-2.0329-0.7573-3.3085l-6.5583-4.1152q-2.0329-1.2756-3.3085 0.7573l-2.9545 4.7086q-1.2756 2.0329 0.7573 3.3085l6.5583 4.1152q2.0329 1.2756 3.3085-0.7573z" clip-path="url(#a)" fill="#fff" stroke="#fff"/>
<g clip-path="url(#a)">
<g transform="translate(285.2 552.61) rotate(-57.892) scale(.08 -.08)">
<use xlink:href="#ag"/>
</g>
</g>
<path d="m308.82 552.73 1.0364-4.483q0.54057-2.3383-1.7978-2.8789l-7.5435-1.7439q-2.3383-0.54057-2.8789 1.7978l-1.0364 4.483q-0.54057 2.3383 1.7978 2.8789l7.5435 1.7439q2.3383 0.54057 2.8789-1.7978z" clip-path="url(#a)" fill="#fff" stroke="#fff"/>
<g clip-path="url(#a)">
<g transform="translate(304.86 551.82) rotate(-76.983) scale(.08 -.08)">
<use xlink:href="#ao"/>
</g>
</g>
<path d="m316.55 547.82 0.98256 4.9586q0.4665 2.3542 2.8207 1.8877l7.5948-1.5049q2.3542-0.4665 1.8877-2.8207l-0.98256-4.9586q-0.4665-2.3542-2.8207-1.8877l-7.5948 1.5049q-2.3542 0.4665-1.8877 2.8207z" clip-path="url(#a)" fill="#fff" stroke="#fff"/>
<g clip-path="url(#a)">
<g transform="translate(320.54 547.03) rotate(78.792) scale(.08 -.08)">
<use xlink:href="#aa"/>
</g>
</g>
<path d="m337.91 550.2 3.0788 4.6612q1.3227 2.0026 3.3253 0.67987l6.4605-4.2672q2.0026-1.3227 0.67987-3.3253l-3.0788-4.6612q-1.3227-2.0026-3.3253-0.67987l-6.4605 4.2672q-2.0026 1.3227-0.67987 3.3253z" clip-path="url(#a)" fill="#fff" stroke="#fff"/>
<g clip-path="url(#a)">
<g transform="translate(341.31 547.96) rotate(56.555) scale(.08 -.08)">
<use xlink:href="#r"/>
</g>
</g>
<path d="m249.37 624.52v33.808q0 2.4 2.4 2.4h7.7425q2.4 0 2.4-2.4v-33.808q0-2.4-2.4-2.4h-7.7425q-2.4 0-2.4 2.4z" clip-path="url(#a)" fill="#fff" stroke="#fff"/>
<g clip-path="url(#a)">
<g transform="translate(253.43 624.52) rotate(90) scale(.08 -.08)">
<use xlink:href="#k"/>
<use x="44.083984" xlink:href="#c"/>
<use x="105.607422" xlink:href="#j"/>
<use x="144.970703" xlink:href="#l"/>
<use x="242.382812" xlink:href="#g"/>
<use x="270.166016" xlink:href="#f"/>
<use x="333.544922" xlink:href="#i"/>
<use x="394.824219" xlink:href="#h"/>
</g>
</g>
<path d="m286.21 624.52v33.808q0 2.4 2.4 2.4h7.7425q2.4 0 2.4-2.4v-33.808q0-2.4-2.4-2.4h-7.7425q-2.4 0-2.4 2.4z" clip-path="url(#a)" fill="#fff" stroke="#fff"/>
<g clip-path="url(#a)">
<g transform="translate(290.28 624.52) rotate(90) scale(.08 -.08)">
<use xlink:href="#k"/>
<use x="44.083984" xlink:href="#c"/>
<use x="105.607422" xlink:href="#j"/>
<use x="144.970703" xlink:href="#l"/>
<use x="242.382812" xlink:href="#g"/>
<use x="270.166016" xlink:href="#f"/>
<use x="333.544922" xlink:href="#i"/>
<use x="394.824219" xlink:href="#h"/>
</g>
</g>
<path d="m326.13 624.52v33.808q0 2.4 2.4 2.4h7.7425q2.4 0 2.4-2.4v-33.808q0-2.4-2.4-2.4h-7.7425q-2.4 0-2.4 2.4z" clip-path="url(#a)" fill="#fff" stroke="#fff"/>
<g clip-path="url(#a)">
<g transform="translate(330.2 624.52) rotate(90) scale(.08 -.08)">
<use xlink:href="#k"/>
<use x="44.083984" xlink:href="#c"/>
<use x="105.607422" xlink:href="#j"/>
<use x="144.970703" xlink:href="#l"/>
<use x="242.382812" xlink:href="#g"/>
<use x="270.166016" xlink:href="#f"/>
<use x="333.544922" xlink:href="#i"/>
<use x="394.824219" xlink:href="#h"/>
</g>
</g>
<path d="m369.12 624.52v33.808q0 2.4 2.4 2.4h7.7425q2.4 0 2.4-2.4v-33.808q0-2.4-2.4-2.4h-7.7425q-2.4 0-2.4 2.4z" clip-path="url(#a)" fill="#fff" stroke="#fff"/>
<g clip-path="url(#a)">
<g transform="translate(373.19 624.52) rotate(90) scale(.08 -.08)">
<use xlink:href="#k"/>
<use x="44.083984" xlink:href="#c"/>
<use x="105.607422" xlink:href="#j"/>
<use x="144.970703" xlink:href="#l"/>
<use x="242.382812" xlink:href="#g"/>
<use x="270.166016" xlink:href="#f"/>
<use x="333.544922" xlink:href="#i"/>
<use x="394.824219" xlink:href="#h"/>
</g>
</g>
<path d="m132.68 624.52v33.808q0 2.4 2.4 2.4h7.7425q2.4 0 2.4-2.4v-33.808q0-2.4-2.4-2.4h-7.7425q-2.4 0-2.4 2.4z" clip-path="url(#a)" fill="#fff" stroke="#fff"/>
<g clip-path="url(#a)">
<g transform="translate(136.74 624.52) rotate(90) scale(.08 -.08)">
<use xlink:href="#k"/>
<use x="44.083984" xlink:href="#c"/>
<use x="105.607422" xlink:href="#j"/>
<use x="144.970703" xlink:href="#l"/>
<use x="242.382812" xlink:href="#g"/>
<use x="270.166016" xlink:href="#f"/>
<use x="333.544922" xlink:href="#i"/>
<use x="394.824219" xlink:href="#h"/>
</g>
</g>
<path d="m157.24 624.52v33.808q0 2.4 2.4 2.4h7.7425q2.4 0 2.4-2.4v-33.808q0-2.4-2.4-2.4h-7.7425q-2.4 0-2.4 2.4z" clip-path="url(#a)" fill="#fff" stroke="#fff"/>
<g clip-path="url(#a)">
<g transform="translate(161.31 624.52) rotate(90) scale(.08 -.08)">
<use xlink:href="#k"/>
<use x="44.083984" xlink:href="#c"/>
<use x="105.607422" xlink:href="#j"/>
<use x="144.970703" xlink:href="#l"/>
<use x="242.382812" xlink:href="#g"/>
<use x="270.166016" xlink:href="#f"/>
<use x="333.544922" xlink:href="#i"/>
<use x="394.824219" xlink:href="#h"/>
</g>
</g>
<path d="m204.56 552.84 0.90564-5.4845q0.39101-2.3679-1.9769-2.7589l-7.6391-1.2614q-2.3679-0.39101-2.7589 1.9769l-0.90564 5.4845q-0.39101 2.3679 1.9769 2.7589l7.6391 1.2614q2.3679 0.39101 2.7589-1.9769z" clip-path="url(#a)" fill="#fff" stroke="#fff"/>
<g clip-path="url(#a)">
<g transform="translate(200.55 552.18) rotate(-80.624) scale(.08 -.08)">
<use xlink:href="#ag"/>
</g>
</g>
<path d="m207.54 547.34 0.91012 5.5116q0.39101 2.3679 2.7589 1.9769l7.6391-1.2614q2.3679-0.39101 1.9769-2.7589l-0.91012-5.5116q-0.39101-2.3679-2.7589-1.9769l-7.6391 1.2614q-2.3679 0.39101-1.9769 2.7589z" clip-path="url(#a)" fill="#fff" stroke="#fff"/>
<g clip-path="url(#a)">
<g transform="translate(211.55 546.68) rotate(80.624) scale(.08 -.08)">
<use xlink:href="#r"/>
</g>
</g>
<path d="m184.88 624.52v33.808q0 2.4 2.4 2.4h7.7425q2.4 0 2.4-2.4v-33.808q0-2.4-2.4-2.4h-7.7425q-2.4 0-2.4 2.4z" clip-path="url(#a)" fill="#fff" stroke="#fff"/>
<g clip-path="url(#a)">
<g transform="translate(188.94 624.52) rotate(90) scale(.08 -.08)">
<use xlink:href="#k"/>
<use x="44.083984" xlink:href="#c"/>
<use x="105.607422" xlink:href="#j"/>
<use x="144.970703" xlink:href="#l"/>
<use x="242.382812" xlink:href="#g"/>
<use x="270.166016" xlink:href="#f"/>
<use x="333.544922" xlink:href="#i"/>
<use x="394.824219" xlink:href="#h"/>
</g>
</g>
<path d="m215.59 624.52v33.808q0 2.4 2.4 2.4h7.7425q2.4 0 2.4-2.4v-33.808q0-2.4-2.4-2.4h-7.7425q-2.4 0-2.4 2.4z" clip-path="url(#a)" fill="#fff" stroke="#fff"/>
<g clip-path="url(#a)">
<g transform="translate(219.65 624.52) rotate(90) scale(.08 -.08)">
<use xlink:href="#k"/>
<use x="44.083984" xlink:href="#c"/>
<use x="105.607422" xlink:href="#j"/>
<use x="144.970703" xlink:href="#l"/>
<use x="242.382812" xlink:href="#g"/>
<use x="270.166016" xlink:href="#f"/>
<use x="333.544922" xlink:href="#i"/>
<use x="394.824219" xlink:href="#h"/>
</g>
</g>
<path d="m55.911 624.52v33.808q0 2.4 2.4 2.4h7.7425q2.4 0 2.4-2.4v-33.808q0-2.4-2.4-2.4h-7.7425q-2.4 0-2.4 2.4z" clip-path="url(#a)" fill="#fff" stroke="#fff"/>
<g clip-path="url(#a)">
<g transform="translate(59.974 624.52) rotate(90) scale(.08 -.08)">
<use xlink:href="#k"/>
<use x="44.083984" xlink:href="#c"/>
<use x="105.607422" xlink:href="#j"/>
<use x="144.970703" xlink:href="#l"/>
<use x="242.382812" xlink:href="#g"/>
<use x="270.166016" xlink:href="#f"/>
<use x="333.544922" xlink:href="#i"/>
<use x="394.824219" xlink:href="#h"/>
</g>
</g>
<path d="m65.123 624.52v33.808q0 2.4 2.4 2.4h7.7425q2.4 0 2.4-2.4v-33.808q0-2.4-2.4-2.4h-7.7425q-2.4 0-2.4 2.4z" clip-path="url(#a)" fill="#fff" stroke="#fff"/>
<g clip-path="url(#a)">
<g transform="translate(69.186 624.52) rotate(90) scale(.08 -.08)">
<use xlink:href="#k"/>
<use x="44.083984" xlink:href="#c"/>
<use x="105.607422" xlink:href="#j"/>
<use x="144.970703" xlink:href="#l"/>
<use x="242.382812" xlink:href="#g"/>
<use x="270.166016" xlink:href="#f"/>
<use x="333.544922" xlink:href="#i"/>
<use x="394.824219" xlink:href="#h"/>
</g>
</g>
<path d="m77.406 624.52v33.808q0 2.4 2.4 2.4h7.7425q2.4 0 2.4-2.4v-33.808q0-2.4-2.4-2.4h-7.7425q-2.4 0-2.4 2.4z" clip-path="url(#a)" fill="#fff" stroke="#fff"/>
<g clip-path="url(#a)">
<g transform="translate(81.469 624.52) rotate(90) scale(.08 -.08)">
<use xlink:href="#k"/>
<use x="44.083984" xlink:href="#c"/>
<use x="105.607422" xlink:href="#j"/>
<use x="144.970703" xlink:href="#l"/>
<use x="242.382812" xlink:href="#g"/>
<use x="270.166016" xlink:href="#f"/>
<use x="333.544922" xlink:href="#i"/>
<use x="394.824219" xlink:href="#h"/>
</g>
</g>
<path d="m415.18 624.52v33.808q0 2.4 2.4 2.4h7.7425q2.4 0 2.4-2.4v-33.808q0-2.4-2.4-2.4h-7.7425q-2.4 0-2.4 2.4z" clip-path="url(#a)" fill="#fff" stroke="#fff"/>
<g clip-path="url(#a)">
<g transform="translate(419.25 624.52) rotate(90) scale(.08 -.08)">
<use xlink:href="#k"/>
<use x="44.083984" xlink:href="#c"/>
<use x="105.607422" xlink:href="#j"/>
<use x="144.970703" xlink:href="#l"/>
<use x="242.382812" xlink:href="#g"/>
<use x="270.166016" xlink:href="#f"/>
<use x="333.544922" xlink:href="#i"/>
<use x="394.824219" xlink:href="#h"/>
</g>
</g>
<path d="m1044.7 624.52v33.808q0 2.4 2.4 2.4h7.7425q2.4 0 2.4-2.4v-33.808q0-2.4-2.4-2.4h-7.7425q-2.4 0-2.4 2.4z" clip-path="url(#a)" fill="#fff" stroke="#fff"/>
<g clip-path="url(#a)">
<g transform="translate(1048.7 624.52) rotate(90) scale(.08 -.08)">
<use xlink:href="#k"/>
<use x="44.083984" xlink:href="#c"/>
<use x="105.607422" xlink:href="#j"/>
<use x="144.970703" xlink:href="#l"/>
<use x="242.382812" xlink:href="#g"/>
<use x="270.166016" xlink:href="#f"/>
<use x="333.544922" xlink:href="#i"/>
<use x="394.824219" xlink:href="#h"/>
</g>
</g>
<path d="m1124.5 624.52v33.808q0 2.4 2.4 2.4h7.7425q2.4 0 2.4-2.4v-33.808q0-2.4-2.4-2.4h-7.7425q-2.4 0-2.4 2.4z" clip-path="url(#a)" fill="#fff" stroke="#fff"/>
<g clip-path="url(#a)">
<g transform="translate(1128.6 624.52) rotate(90) scale(.08 -.08)">
<use xlink:href="#k"/>
<use x="44.083984" xlink:href="#c"/>
<use x="105.607422" xlink:href="#j"/>
<use x="144.970703" xlink:href="#l"/>
<use x="242.382812" xlink:href="#g"/>
<use x="270.166016" xlink:href="#f"/>
<use x="333.544922" xlink:href="#i"/>
<use x="394.824219" xlink:href="#h"/>
</g>
</g>
<path d="m1207.4 624.52v33.808q0 2.4 2.4 2.4h7.7425q2.4 0 2.4-2.4v-33.808q0-2.4-2.4-2.4h-7.7425q-2.4 0-2.4 2.4z" clip-path="url(#a)" fill="#fff" stroke="#fff"/>
<g clip-path="url(#a)">
<g transform="translate(1211.5 624.52) rotate(90) scale(.08 -.08)">
<use xlink:href="#k"/>
<use x="44.083984" xlink:href="#c"/>
<use x="105.607422" xlink:href="#j"/>
<use x="144.970703" xlink:href="#l"/>
<use x="242.382812" xlink:href="#g"/>
<use x="270.166016" xlink:href="#f"/>
<use x="333.544922" xlink:href="#i"/>
<use x="394.824219" xlink:href="#h"/>
</g>
</g>
<path d="m1293.4 624.52v33.808q0 2.4 2.4 2.4h7.7425q2.4 0 2.4-2.4v-33.808q0-2.4-2.4-2.4h-7.7425q-2.4 0-2.4 2.4z" clip-path="url(#a)" fill="#fff" stroke="#fff"/>
<g clip-path="url(#a)">
<g transform="translate(1297.5 624.52) rotate(90) scale(.08 -.08)">
<use xlink:href="#k"/>
<use x="44.083984" xlink:href="#c"/>
<use x="105.607422" xlink:href="#j"/>
<use x="144.970703" xlink:href="#l"/>
<use x="242.382812" xlink:href="#g"/>
<use x="270.166016" xlink:href="#f"/>
<use x="333.544922" xlink:href="#i"/>
<use x="394.824219" xlink:href="#h"/>
</g>
</g>
<defs>
<path id="b" d="m0 8.6603c2.2967 0 4.4997-0.9125 6.1237-2.5365 1.624-1.624 2.5365-3.827 2.5365-6.1237s-0.9125-4.4997-2.5365-6.1237c-1.624-1.624-3.827-2.5365-6.1237-2.5365s-4.4997 0.9125-6.1237 2.5365c-1.624 1.624-2.5365 3.827-2.5365 6.1237s0.9125 4.4997 2.5365 6.1237c1.624 1.624 3.827 2.5365 6.1237 2.5365z"/>
</defs>
<g clip-path="url(#a)" fill="#ffffff" stroke="#ffffff">
<use x="62.181818" y="687.272727" xlink:href="#b"/>
<use x="71.393939" y="687.272727" xlink:href="#b"/>
<use x="83.676768" y="687.272727" xlink:href="#b"/>
<use x="99.030303" y="687.272727" xlink:href="#b"/>
<use x="117.454545" y="687.272727" xlink:href="#b"/>
<use x="138.949495" y="687.272727" xlink:href="#b"/>
<use x="163.515152" y="687.272727" xlink:href="#b"/>
<use x="191.151515" y="687.272727" xlink:href="#b"/>
<use x="221.858586" y="687.272727" xlink:href="#b"/>
<use x="255.636364" y="687.272727" xlink:href="#b"/>
<use x="292.484848" y="687.272727" xlink:href="#b"/>
<use x="332.40404" y="687.272727" xlink:href="#b"/>
<use x="375.393939" y="687.272727" xlink:href="#b"/>
<use x="421.454545" y="687.272727" xlink:href="#b"/>
<use x="470.585859" y="687.272727" xlink:href="#b"/>
<use x="522.787879" y="687.272727" xlink:href="#b"/>
<use x="578.060606" y="687.272727" xlink:href="#b"/>
<use x="636.40404" y="687.272727" xlink:href="#b"/>
<use x="697.818182" y="687.272727" xlink:href="#b"/>
<use x="762.30303" y="687.272727" xlink:href="#b"/>
<use x="829.858586" y="687.272727" xlink:href="#b"/>
<use x="900.484848" y="687.272727" xlink:href="#b"/>
<use x="974.181818" y="687.272727" xlink:href="#b"/>
<use x="1050.949495" y="687.272727" xlink:href="#b"/>
<use x="1130.787879" y="687.272727" xlink:href="#b"/>
<use x="1213.69697" y="687.272727" xlink:href="#b"/>
<use x="1299.676768" y="687.272727" xlink:href="#b"/>
<use x="1305.818182" y="221.310733" xlink:href="#b"/>
<use x="1305.818182" y="221.310733" xlink:href="#b"/>
<use x="387.896104" y="32.727273" xlink:href="#b"/>
<use x="387.896104" y="127.097945" xlink:href="#b"/>
<use x="387.896104" y="221.310733" xlink:href="#b"/>
<use x="66.787879" y="502.587956" xlink:href="#b"/>
<use x="175.030303" y="315.334016" xlink:href="#b"/>
<use x="470.585859" y="595.568197" xlink:href="#b"/>
<use x="735.434343" y="409.120041" xlink:href="#b"/>
<use x="762.30303" y="595.568197" xlink:href="#b"/>
<use x="550.424242" y="502.587956" xlink:href="#b"/>
<use x="636.40404" y="595.568197" xlink:href="#b"/>
<use x="697.818182" y="595.568197" xlink:href="#b"/>
<use x="1057.090909" y="502.587956" xlink:href="#b"/>
<use x="829.858586" y="595.568197" xlink:href="#b"/>
<use x="900.484848" y="595.568197" xlink:href="#b"/>
<use x="974.181818" y="595.568197" xlink:href="#b"/>
<use x="522.787879" y="595.568197" xlink:href="#b"/>
<use x="578.060606" y="595.568197" xlink:href="#b"/>
<use x="99.030303" y="595.568197" xlink:href="#b"/>
<use x="117.454545" y="595.568197" xlink:href="#b"/>
<use x="169.656566" y="409.120041" xlink:href="#b"/>
<use x="313.979798" y="502.587956" xlink:href="#b"/>
<use x="255.636364" y="595.568197" xlink:href="#b"/>
<use x="292.484848" y="595.568197" xlink:href="#b"/>
<use x="332.40404" y="595.568197" xlink:href="#b"/>
<use x="375.393939" y="595.568197" xlink:href="#b"/>
<use x="138.949495" y="595.568197" xlink:href="#b"/>
<use x="163.515152" y="595.568197" xlink:href="#b"/>
<use x="206.505051" y="502.587956" xlink:href="#b"/>
<use x="191.151515" y="595.568197" xlink:href="#b"/>
<use x="221.858586" y="595.568197" xlink:href="#b"/>
<use x="62.181818" y="595.568197" xlink:href="#b"/>
<use x="71.393939" y="595.568197" xlink:href="#b"/>
<use x="83.676768" y="595.568197" xlink:href="#b"/>
<use x="421.454545" y="595.568197" xlink:href="#b"/>
<use x="1050.949495" y="595.568197" xlink:href="#b"/>
<use x="1130.787879" y="595.568197" xlink:href="#b"/>
<use x="1213.69697" y="595.568197" xlink:href="#b"/>
<use x="1299.676768" y="595.568197" xlink:href="#b"/>
</g>
<g clip-path="url(#a)">
<defs>
<path id="aq" d="m19.672 64.797v-56.688h11.922q15.094 0 22.094 6.8281 7 6.8438 7 21.594 0 14.641-7 21.453t-22.094 6.8125zm-9.8594 8.1094h20.266q21.188 0 31.094-8.8125 9.9219-8.8125 9.9219-27.562 0-18.859-9.9688-27.703-9.9531-8.8281-31.047-8.8281h-20.266z"/>
<path id="ad" d="m44.281 53.078v-8.5q-3.7969 1.9531-7.9062 2.9219-4.0938 0.98438-8.5 0.98438-6.6875 0-10.031-2.0469t-3.3438-6.1562q0-3.125 2.3906-4.9062t9.625-3.3906l3.0781-0.6875q9.5625-2.0469 13.594-5.7812t4.0312-10.422q0-7.625-6.0312-12.078-6.0312-4.4375-16.578-4.4375-4.3906 0-9.1562 0.85938t-10.031 2.5625v9.2812q4.9844-2.5938 9.8125-3.8906 4.8281-1.2812 9.5781-1.2812 6.3438 0 9.75 2.1719 3.4219 2.1719 3.4219 6.125 0 3.6562-2.4688 5.6094-2.4531 1.9531-10.812 3.7656l-3.125 0.73438q-8.3438 1.75-12.062 5.3906-3.7031 3.6406-3.7031 9.9844 0 7.7188 5.4688 11.906 5.4688 4.2031 15.531 4.2031 4.9688 0 9.3594-0.73438 4.4062-0.71875 8.1094-2.1875z"/>
</defs>
<g transform="translate(52.663 690.03) scale(.1 -.1)">
<use xlink:href="#aq"/>
<use x="77.001953" xlink:href="#i"/>
<use x="138.28125" xlink:href="#ad"/>
</g>
</g>
<g clip-path="url(#a)">
<defs>
<path id="ae" d="m48.688 27.297q0 9.9062-4.0781 15.547t-11.203 5.6406q-7.1406 0-11.219-5.6406t-4.0781-15.547 4.0781-15.547 11.219-5.6406q7.125 0 11.203 5.6406t4.0781 15.547zm-30.578 19.094q2.8438 4.875 7.1562 7.2344 4.3281 2.375 10.328 2.375 9.9688 0 16.188-7.9062 6.2344-7.9062 6.2344-20.797t-6.2344-20.812q-6.2188-7.9062-16.188-7.9062-6 0-10.328 2.375-4.3125 2.375-7.1562 7.25v-8.2031h-9.0312v75.984h9.0312z"/>
<path id="t" d="m45.406 46.391v29.594h8.9844v-75.984h-8.9844v8.2031q-2.8281-4.875-7.1562-7.25-4.3125-2.375-10.375-2.375-9.9062 0-16.141 7.9062-6.2188 7.9219-6.2188 20.812t6.2188 20.797q6.2344 7.9062 16.141 7.9062 6.0625 0 10.375-2.375 4.3281-2.3594 7.1562-7.2344zm-30.609-19.094q0-9.9062 4.0781-15.547t11.203-5.6406 11.219 5.6406q4.1094 5.6406 4.1094 15.547t-4.1094 15.547q-4.0938 5.6406-11.219 5.6406t-11.203-5.6406-4.0781-15.547z"/>
<path id="al" d="m8.5 21.578v33.109h8.9844v-32.766q0-7.7656 3.0156-11.656 3.0312-3.875 9.0938-3.875 7.2656 0 11.484 4.6406 4.2344 4.6406 4.2344 12.656v31h8.9844v-54.688h-8.9844v8.4062q-3.2656-4.9844-7.5938-7.4062-4.3125-2.4219-10.031-2.4219-9.4219 0-14.312 5.8594-4.875 5.8594-4.875 17.141z"/>
<path id="s" d="m18.312 70.219v-15.531h18.5v-6.9844h-18.5v-29.688q0-6.6875 1.8281-8.5938t7.4531-1.9062h9.2188v-7.5156h-9.2188q-10.406 0-14.359 3.875-3.9531 3.8906-3.9531 14.141v29.688h-6.5938v6.9844h6.5938v15.531z"/>
</defs>
<g transform="translate(48.727 690.03) scale(.1 -.1)">
<use xlink:href="#ae"/>
<use x="63.476562" xlink:href="#c"/>
<use x="125" xlink:href="#t"/>
<use x="188.476562" xlink:href="#c"/>
<use x="250" xlink:href="#al"/>
<use x="313.378906" xlink:href="#s"/>
<use x="352.587891" xlink:href="#c"/>
<use x="414.111328" xlink:href="#s"/>
</g>
</g>
<g clip-path="url(#a)">
<defs>
<path id="as" d="m11.719 12.406h10.297v-8.4062l-8-15.625h-6.2969l4 15.625z"/>
</defs>
<g transform="translate(82.088 690.03) scale(.1 -.1)">
<use xlink:href="#as"/>
</g>
</g>
<g clip-path="url(#a)">
<defs>
<path id="w" d="m48.781 52.594v-8.4062q-3.8125 2.1094-7.6406 3.1562t-7.7344 1.0469q-8.75 0-13.594-5.5469-4.8281-5.5312-4.8281-15.547t4.8281-15.562q4.8438-5.5312 13.594-5.5312 3.9062 0 7.7344 1.0469t7.6406 3.1562v-8.3125q-3.7656-1.75-7.7969-2.625-4.0156-0.89062-8.5625-0.89062-12.359 0-19.641 7.7656-7.2656 7.7656-7.2656 20.953 0 13.375 7.3438 21.031 7.3594 7.6719 20.156 7.6719 4.1406 0 8.0938-0.85938 3.9531-0.84375 7.6719-2.5469z"/>
<path id="v" d="m54.891 33.016v-33.016h-8.9844v32.719q0 7.7656-3.0312 11.609-3.0312 3.8594-9.0781 3.8594-7.2812 0-11.484-4.6406-4.2031-4.625-4.2031-12.641v-30.906h-9.0312v75.984h9.0312v-29.797q3.2344 4.9375 7.5938 7.375 4.375 2.4375 10.094 2.4375 9.4219 0 14.25-5.8281 4.8438-5.8281 4.8438-17.156z"/>
</defs>
<g transform="translate(91.723 690.03) scale(.1 -.1)">
<use xlink:href="#g"/>
<use x="27.783203" xlink:href="#w"/>
<use x="82.763672" xlink:href="#v"/>
</g>
</g>
<g clip-path="url(#a)">
<g transform="translate(96.273 690.03) scale(.1 -.1)">
<use xlink:href="#ad"/>
<use x="52.099609" xlink:href="#w"/>
<use x="107.080078" xlink:href="#v"/>
<use x="170.458984" xlink:href="#j"/>
<use x="209.322266" xlink:href="#c"/>
<use x="270.845703" xlink:href="#g"/>
<use x="298.628906" xlink:href="#ae"/>
<use x="362.105469" xlink:href="#c"/>
</g>
</g>
<g clip-path="url(#a)">
<g transform="translate(131.31 690.03) scale(.1 -.1)">
<use xlink:href="#t"/>
<use x="63.476562" xlink:href="#g"/>
<use x="91.259766" xlink:href="#c"/>
</g>
</g>
<g clip-path="url(#a)">
<defs>
<path id="au" d="m5.5156 54.688h42.672v-8.2031l-33.781-39.312h33.781v-7.1719h-43.891v8.2031l33.797 39.312h-32.578z"/>
</defs>
<g transform="translate(146.68 690.03) scale(.1 -.1)">
<use xlink:href="#p"/>
<use x="68.408203" xlink:href="#f"/>
<use x="131.787109" xlink:href="#au"/>
<use x="184.277344" xlink:href="#i"/>
<use x="245.556641" xlink:href="#v"/>
<use x="308.935547" xlink:href="#h"/>
</g>
</g>
<g clip-path="url(#a)">
<g transform="translate(182.85 690.03) scale(.1 -.1)">
<use xlink:href="#t"/>
<use x="63.476562" xlink:href="#c"/>
<use x="125" xlink:href="#j"/>
</g>
</g>
<g clip-path="url(#a)">
<g transform="translate(205.43 690.03) scale(.1 -.1)">
<use xlink:href="#af"/>
<use x="63.476562" xlink:href="#s"/>
<use x="102.685547" xlink:href="#c"/>
<use x="164.208984" xlink:href="#j"/>
<use x="203.572266" xlink:href="#f"/>
<use x="266.951172" xlink:href="#c"/>
</g>
</g>
<g clip-path="url(#a)">
<defs>
<path id="ax" d="m37.109 75.984v-7.4844h-8.5938q-4.8281 0-6.7188-1.9531-1.875-1.9531-1.875-7.0312v-4.8281h14.797v-6.9844h-14.797v-47.703h-9.0312v47.703h-8.5938v6.9844h8.5938v3.8125q0 9.125 4.25 13.297 4.25 4.1875 13.469 4.1875z"/>
</defs>
<g transform="translate(247.64 690.03) scale(.1 -.1)">
<use xlink:href="#i"/>
<use x="61.279297" xlink:href="#al"/>
<use x="124.658203" xlink:href="#ax"/>
</g>
</g>
<g clip-path="url(#a)">
<g transform="translate(278.61 690.03) scale(.1 -.1)">
<use xlink:href="#c"/>
<use x="61.523438" xlink:href="#g"/>
<use x="89.306641" xlink:href="#f"/>
<use x="152.685547" xlink:href="#c"/>
<use x="214.208984" xlink:href="#f"/>
</g>
</g>
<g clip-path="url(#a)">
<defs>
<path id="aw" d="m9.0781 75.984h9.0312v-44.875l26.812 23.578h11.469l-29-25.578 30.234-29.109h-11.719l-27.797 26.703v-26.703h-9.0312z"/>
</defs>
<g transform="translate(314.24 690.03) scale(.1 -.1)">
<use xlink:href="#aw"/>
<use x="57.910156" xlink:href="#h"/>
<use x="85.693359" xlink:href="#c"/>
<use x="147.216797" xlink:href="#g"/>
<use x="175" xlink:href="#f"/>
<use x="238.378906" xlink:href="#c"/>
<use x="299.902344" xlink:href="#f"/>
</g>
</g>
<g clip-path="url(#a)">
<defs>
<path id="am" d="m5.6094 72.906h57.281v-7.5312l-46.094-57.078h47.219v-8.2969h-59.516v7.5156l46.094 57.078h-44.984z"/>
</defs>
<g transform="translate(360.51 690.03) scale(.1 -.1)">
<use xlink:href="#am"/>
<use x="68.505859" xlink:href="#c"/>
<use x="130.029297" xlink:href="#s"/>
<use x="169.238281" xlink:href="#s"/>
<use x="208.447266" xlink:href="#c"/>
<use x="269.970703" xlink:href="#h"/>
</g>
</g>
<g clip-path="url(#a)">
<defs>
<path id="e" d="m10.688 12.406h10.312v-12.406h-10.312z"/>
</defs>
<g transform="translate(419.87 690.03) scale(.1 -.1)">
<use xlink:href="#e"/>
</g>
</g>
<g clip-path="url(#a)">
<g transform="translate(460.58 690.03) scale(.1 -.1)">
<use xlink:href="#q"/>
<use x="73.193359" xlink:href="#f"/>
<use x="136.572266" xlink:href="#t"/>
</g>
</g>
<g clip-path="url(#a)">
<g transform="translate(506.3 690.03) scale(.1 -.1)">
<use xlink:href="#t"/>
<use x="63.476562" xlink:href="#g"/>
<use x="91.259766" xlink:href="#c"/>
<use x="152.783203" xlink:href="#ad"/>
<use x="204.882812" xlink:href="#c"/>
<use x="266.40625" xlink:href="#f"/>
</g>
</g>
<g clip-path="url(#a)">
<g transform="translate(563.17 690.03) scale(.1 -.1)">
<use xlink:href="#am"/>
<use x="68.505859" xlink:href="#c"/>
<use x="130.029297" xlink:href="#s"/>
<use x="169.238281" xlink:href="#s"/>
<use x="208.447266" xlink:href="#c"/>
<use x="269.970703" xlink:href="#h"/>
</g>
</g>
<g clip-path="url(#a)">
<defs>
<path id="av" d="m2.9844 54.688h9.5156l17.094-45.891 17.094 45.891h9.5156l-20.516-54.688h-12.203z"/>
<path id="at" d="m9.0781 55.516q0 9.7656 5.8281 15.109 5.8438 5.3594 16.484 5.3594 10.156 0 15.5-5.6719 5.3594-5.6562 5.5-16.594-7.375-0.39062-11.484-3.2031-4.0938-2.8125-4.0938-7.5 0-2.2969 1.4219-4.2812 1.4219-1.9688 4.5938-4.0156l2.7812-1.8125q8.1094-5.1719 10.453-8.6406t2.3438-8.3438q0-8.4062-5.5-12.875t-15.797-4.4688q-3.125 0-6.4531 0.60938-3.3125 0.60938-6.875 1.7969v8q3.9062-1.4688 7.3125-2.1719 3.4219-0.70312 6.6094-0.70312 5.6562 0 8.5781 2.3125 2.9375 2.3281 2.9375 6.7656 0 3.0781-1.4375 5.125t-6.375 5.0781l-4.4844 2.6875q-4.6875 2.875-6.8125 6.1719t-2.125 7.75q0 6.1875 4.0781 10.391t11.438 5.625q-0.39062 5.0156-3.5938 7.75-3.1875 2.7344-8.7031 2.7344-6.3438 0-9.6719-3.3906-3.3125-3.3906-3.3125-9.7812v-55.328h-9.1406z"/>
</defs>
<g transform="translate(607.71 690.03) scale(.1 -.1)">
<use xlink:href="#av"/>
<use x="59.179688" xlink:href="#c"/>
<use x="120.703125" xlink:href="#j"/>
<use x="161.816406" xlink:href="#ad"/>
<use x="213.916016" xlink:href="#w"/>
<use x="268.896484" xlink:href="#v"/>
<use x="332.275391" xlink:href="#h"/>
<use x="360.058594" xlink:href="#g"/>
<use x="387.841797" xlink:href="#c"/>
<use x="449.365234" xlink:href="#at"/>
<use x="512.353516" xlink:href="#c"/>
</g>
</g>
<g clip-path="url(#a)">
<g transform="translate(690.51 690.03) scale(.1 -.1)">
<use xlink:href="#g"/>
<use x="27.783203" xlink:href="#w"/>
<use x="82.763672" xlink:href="#v"/>
</g>
</g>
<g clip-path="url(#a)">
<g transform="translate(749.73 690.03) scale(.1 -.1)">
<use xlink:href="#t"/>
<use x="63.476562" xlink:href="#i"/>
<use x="124.755859" xlink:href="#f"/>
<use x="188.134766" xlink:href="#f"/>
</g>
</g>
<g clip-path="url(#a)">
<g transform="translate(825.3 690.03) scale(.1 -.1)">
<use xlink:href="#g"/>
<use x="27.783203" xlink:href="#f"/>
</g>
</g>
<g clip-path="url(#a)">
<g transform="translate(887.72 690.03) scale(.1 -.1)">
<use xlink:href="#c"/>
<use x="61.523438" xlink:href="#g"/>
<use x="89.306641" xlink:href="#f"/>
<use x="152.685547" xlink:href="#c"/>
<use x="214.208984" xlink:href="#j"/>
</g>
</g>
<g clip-path="url(#a)">
<g transform="translate(948.04 690.03) scale(.1 -.1)">
<use xlink:href="#af"/>
<use x="63.476562" xlink:href="#w"/>
<use x="118.457031" xlink:href="#v"/>
<use x="181.835938" xlink:href="#al"/>
<use x="245.214844" xlink:href="#ae"/>
<use x="308.691406" xlink:href="#h"/>
<use x="336.474609" xlink:href="#i"/>
<use x="397.753906" xlink:href="#t"/>
<use x="461.230469" xlink:href="#c"/>
</g>
</g>
<g clip-path="url(#a)">
<g transform="translate(1049.4 690.03) scale(.1 -.1)">
<use xlink:href="#e"/>
</g>
</g>
<g clip-path="url(#a)">
<defs>
<path id="ap" d="m17.922 72.906v-27.109h-8.2969v27.109zm18.453 0v-27.109h-8.2969v27.109z"/>
</defs>
<g transform="translate(1128.5 690.03) scale(.1 -.1)">
<use xlink:href="#ap"/>
</g>
</g>
<g clip-path="url(#a)">
<defs>
<path id="ar" d="m4.8906 31.391h26.312v-8h-26.312z"/>
</defs>
<g transform="translate(1211.9 690.03) scale(.1 -.1)">
<use xlink:href="#ar"/>
</g>
</g>
<g clip-path="url(#a)">
<g transform="translate(1297.4 690.03) scale(.1 -.1)">
<use xlink:href="#ap"/>
</g>
</g>
<g clip-path="url(#a)">
<defs>
<path id="u" d="m9.8125 72.906h9.8594v-72.906h-9.8594z"/>
<path id="an" d="m9.8125 72.906h14.703l18.594-49.609 18.703 49.609h14.703v-72.906h-9.625v64.016l-18.797-50h-9.9062l-18.797 50v-64.016h-9.5781z"/>
</defs>
<g transform="translate(1284.7 224.07) scale(.1 -.1)">
<use xlink:href="#u"/>
<use x="29.492188" xlink:href="#an"/>
<use x="115.771484" xlink:href="#x"/>
<use x="176.074219" xlink:href="#y"/>
<use x="231.787109" xlink:href="#u"/>
<use x="261.279297" xlink:href="#r"/>
<use x="331.103516" xlink:href="#u"/>
<use x="360.595703" xlink:href="#k"/>
</g>
</g>
<g clip-path="url(#a)">
<g transform="translate(1284.7 224.07) scale(.1 -.1)">
<use xlink:href="#u"/>
<use x="29.492188" xlink:href="#an"/>
<use x="115.771484" xlink:href="#x"/>
<use x="176.074219" xlink:href="#y"/>
<use x="231.787109" xlink:href="#u"/>
<use x="261.279297" xlink:href="#r"/>
<use x="331.103516" xlink:href="#u"/>
<use x="360.595703" xlink:href="#k"/>
</g>
</g>
<g clip-path="url(#a)">
<defs>
<path id="d" d="m12.406 8.2969h16.109v55.625l-17.531-3.5156v8.9844l17.438 3.5156h9.8594v-64.609h16.109v-8.2969h-41.984z"/>
</defs>
<g transform="translate(379.94 35.487) scale(.1 -.1)">
<use xlink:href="#d"/>
<use x="63.623047" xlink:href="#e"/>
<use x="95.410156" xlink:href="#d"/>
</g>
</g>
<g clip-path="url(#a)">
<defs>
<path id="m" d="m19.188 8.2969h34.422v-8.2969h-46.281v8.2969q5.6094 5.8125 15.297 15.594 9.7031 9.7969 12.188 12.641 4.7344 5.3125 6.6094 9 1.8906 3.6875 1.8906 7.25 0 5.8125-4.0781 9.4688-4.0781 3.6719-10.625 3.6719-4.6406 0-9.7969-1.6094-5.1406-1.6094-11-4.8906v9.9688q5.9531 2.3906 11.125 3.6094 5.1875 1.2188 9.4844 1.2188 11.328 0 18.062-5.6719 6.7344-5.6562 6.7344-15.125 0-4.5-1.6875-8.5312-1.6719-4.0156-6.125-9.4844-1.2188-1.4219-7.7656-8.1875-6.5312-6.7656-18.453-18.922z"/>
</defs>
<g transform="translate(379.94 129.86) scale(.1 -.1)">
<use xlink:href="#d"/>
<use x="63.623047" xlink:href="#e"/>
<use x="95.410156" xlink:href="#m"/>
</g>
</g>
<g clip-path="url(#a)">
<defs>
<path id="ab" d="m10.984 1.5156v8.9844q3.7188-1.7656 7.5156-2.6875 3.8125-0.92188 7.4844-0.92188 9.7656 0 14.906 6.5625 5.1562 6.5625 5.8906 19.953-2.8281-4.2031-7.1875-6.4531-4.3438-2.25-9.6094-2.25-10.938 0-17.312 6.6094-6.375 6.625-6.375 18.109 0 11.219 6.6406 18 6.6406 6.7969 17.672 6.7969 12.656 0 19.312-9.7031 6.6719-9.6875 6.6719-28.141 0-17.234-8.1875-27.516-8.1719-10.281-21.984-10.281-3.7188 0-7.5312 0.73438-3.7969 0.73438-7.9062 2.2031zm19.625 30.906q6.6406 0 10.516 4.5312 3.8906 4.5469 3.8906 12.469 0 7.8594-3.8906 12.422-3.875 4.5625-10.516 4.5625t-10.516-4.5625-3.875-12.422q0-7.9219 3.875-12.469 3.875-4.5312 10.516-4.5312z"/>
</defs>
<g transform="translate(379.94 224.07) scale(.1 -.1)">
<use xlink:href="#d"/>
<use x="63.623047" xlink:href="#e"/>
<use x="95.410156" xlink:href="#ab"/>
</g>
</g>
<g clip-path="url(#a)">
<defs>
<path id="ac" d="m31.781 66.406q-7.6094 0-11.453-7.5-3.8281-7.4844-3.8281-22.531 0-14.984 3.8281-22.484 3.8438-7.5 11.453-7.5 7.6719 0 11.5 7.5 3.8438 7.5 3.8438 22.484 0 15.047-3.8438 22.531-3.8281 7.5-11.5 7.5zm0 7.8125q12.266 0 18.734-9.7031 6.4688-9.6875 6.4688-28.141 0-18.406-6.4688-28.109-6.4688-9.6875-18.734-9.6875-12.25 0-18.719 9.6875-6.4688 9.7031-6.4688 28.109 0 18.453 6.4688 28.141 6.4688 9.7031 18.719 9.7031z"/>
</defs>
<g transform="translate(55.655 505.35) scale(.1 -.1)">
<use xlink:href="#d"/>
<use x="63.623047" xlink:href="#e"/>
<use x="95.410156" xlink:href="#d"/>
<use x="159.033203" xlink:href="#ac"/>
</g>
</g>
<g clip-path="url(#a)">
<g transform="translate(163.9 318.09) scale(.1 -.1)">
<use xlink:href="#d"/>
<use x="63.623047" xlink:href="#e"/>
<use x="95.410156" xlink:href="#d"/>
<use x="159.033203" xlink:href="#d"/>
</g>
</g>
<g clip-path="url(#a)">
<g transform="translate(459.45 598.33) scale(.1 -.1)">
<use xlink:href="#d"/>
<use x="63.623047" xlink:href="#e"/>
<use x="95.410156" xlink:href="#d"/>
<use x="159.033203" xlink:href="#m"/>
</g>
</g>
<g clip-path="url(#a)">
<defs>
<path id="n" d="m40.578 39.312q7.0781-1.5156 11.047-6.3125 3.9844-4.7812 3.9844-11.812 0-10.781-7.4219-16.703-7.4219-5.9062-21.094-5.9062-4.5781 0-9.4375 0.90625t-10.031 2.7188v9.5156q4.0938-2.3906 8.9688-3.6094 4.8906-1.2188 10.219-1.2188 9.2656 0 14.125 3.6562t4.8594 10.641q0 6.4531-4.5156 10.078-4.5156 3.6406-12.562 3.6406h-8.5v8.1094h8.8906q7.2656 0 11.125 2.9062t3.8594 8.375q0 5.6094-3.9844 8.6094-3.9688 3.0156-11.391 3.0156-4.0625 0-8.7031-0.89062-4.6406-0.875-10.203-2.7188v8.7812q5.625 1.5625 10.531 2.3438t9.25 0.78125q11.234 0 17.766-5.1094 6.5469-5.0938 6.5469-13.781 0-6.0625-3.4688-10.234t-9.8594-5.7812z"/>
</defs>
<g transform="translate(724.3 411.88) scale(.1 -.1)">
<use xlink:href="#d"/>
<use x="63.623047" xlink:href="#e"/>
<use x="95.410156" xlink:href="#d"/>
<use x="159.033203" xlink:href="#n"/>
</g>
</g>
<g clip-path="url(#a)">
<defs>
<path id="o" d="m37.797 64.312-24.906-38.922h24.906zm-2.5938 8.5938h12.406v-47.516h10.406v-8.2031h-10.406v-17.188h-9.8125v17.188h-32.906v9.5156z"/>
</defs>
<g transform="translate(751.17 598.33) scale(.1 -.1)">
<use xlink:href="#d"/>
<use x="63.623047" xlink:href="#e"/>
<use x="95.410156" xlink:href="#d"/>
<use x="159.033203" xlink:href="#o"/>
</g>
</g>
<g clip-path="url(#a)">
<defs>
<path id="ai" d="m8.2031 72.906h46.875v-4.2031l-26.469-68.703h-10.297l24.906 64.594h-35.016z"/>
</defs>
<g transform="translate(539.29 505.35) scale(.1 -.1)">
<use xlink:href="#d"/>
<use x="63.623047" xlink:href="#e"/>
<use x="95.410156" xlink:href="#d"/>
<use x="159.033203" xlink:href="#ai"/>
</g>
</g>
<g clip-path="url(#a)">
<defs>
<path id="ah" d="m31.781 34.625q-7.0312 0-11.062-3.7656-4.0156-3.7656-4.0156-10.344 0-6.5938 4.0156-10.359 4.0312-3.7656 11.062-3.7656t11.078 3.7812q4.0625 3.7969 4.0625 10.344 0 6.5781-4.0312 10.344-4.0156 3.7656-11.109 3.7656zm-9.8594 4.1875q-6.3438 1.5625-9.8906 5.9062-3.5312 4.3594-3.5312 10.609 0 8.7344 6.2188 13.812 6.2344 5.0781 17.062 5.0781 10.891 0 17.094-5.0781t6.2031-13.812q0-6.25-3.5469-10.609-3.5312-4.3438-9.8281-5.9062 7.125-1.6562 11.094-6.5 3.9844-4.8281 3.9844-11.797 0-10.609-6.4688-16.281-6.4688-5.6562-18.531-5.6562-12.047 0-18.531 5.6562-6.4688 5.6719-6.4688 16.281 0 6.9688 4 11.797 4.0156 4.8438 11.141 6.5zm-3.6094 15.578q0-5.6562 3.5312-8.8281 3.5469-3.1719 9.9375-3.1719 6.3594 0 9.9375 3.1719 3.5938 3.1719 3.5938 8.8281 0 5.6719-3.5938 8.8438-3.5781 3.1719-9.9375 3.1719-6.3906 0-9.9375-3.1719-3.5312-3.1719-3.5312-8.8438z"/>
</defs>
<g transform="translate(625.27 598.33) scale(.1 -.1)">
<use xlink:href="#d"/>
<use x="63.623047" xlink:href="#e"/>
<use x="95.410156" xlink:href="#d"/>
<use x="159.033203" xlink:href="#ah"/>
</g>
</g>
<g clip-path="url(#a)">
<g transform="translate(686.69 598.33) scale(.1 -.1)">
<use xlink:href="#d"/>
<use x="63.623047" xlink:href="#e"/>
<use x="95.410156" xlink:href="#d"/>
<use x="159.033203" xlink:href="#ab"/>
</g>
</g>
<g clip-path="url(#a)">
<g transform="translate(1046 505.35) scale(.1 -.1)">
<use xlink:href="#d"/>
<use x="63.623047" xlink:href="#e"/>
<use x="95.410156" xlink:href="#m"/>
<use x="159.033203" xlink:href="#ac"/>
</g>
</g>
<g clip-path="url(#a)">
<g transform="translate(818.73 598.33) scale(.1 -.1)">
<use xlink:href="#d"/>
<use x="63.623047" xlink:href="#e"/>
<use x="95.410156" xlink:href="#m"/>
<use x="159.033203" xlink:href="#d"/>
</g>
</g>
<g clip-path="url(#a)">
<g transform="translate(889.35 598.33) scale(.1 -.1)">
<use xlink:href="#d"/>
<use x="63.623047" xlink:href="#e"/>
<use x="95.410156" xlink:href="#m"/>
<use x="159.033203" xlink:href="#m"/>
</g>
</g>
<g clip-path="url(#a)">
<g transform="translate(963.05 598.33) scale(.1 -.1)">
<use xlink:href="#d"/>
<use x="63.623047" xlink:href="#e"/>
<use x="95.410156" xlink:href="#m"/>
<use x="159.033203" xlink:href="#n"/>
</g>
</g>
<g clip-path="url(#a)">
<g transform="translate(511.66 598.33) scale(.1 -.1)">
<use xlink:href="#d"/>
<use x="63.623047" xlink:href="#e"/>
<use x="95.410156" xlink:href="#m"/>
<use x="159.033203" xlink:href="#o"/>
</g>
</g>
<g clip-path="url(#a)">
<defs>
<path id="ak" d="m10.797 72.906h38.719v-8.3125h-29.688v-17.859q2.1406 0.73438 4.2812 1.0938 2.1562 0.35938 4.3125 0.35938 12.203 0 19.328-6.6875 7.1406-6.6875 7.1406-18.109 0-11.766-7.3281-18.297-7.3281-6.5156-20.656-6.5156-4.5938 0-9.3594 0.78125-4.75 0.78125-9.8281 2.3438v9.9219q4.3906-2.3906 9.0781-3.5625t9.9062-1.1719q8.4531 0 13.375 4.4375 4.9375 4.4375 4.9375 12.062 0 7.6094-4.9375 12.047-4.9219 4.4531-13.375 4.4531-3.9531 0-7.8906-0.875-3.9219-0.875-8.0156-2.7344z"/>
</defs>
<g transform="translate(566.93 598.33) scale(.1 -.1)">
<use xlink:href="#d"/>
<use x="63.623047" xlink:href="#e"/>
<use x="95.410156" xlink:href="#m"/>
<use x="159.033203" xlink:href="#ak"/>
</g>
</g>
<g clip-path="url(#a)">
<defs>
<path id="aj" d="m33.016 40.375q-6.6406 0-10.531-4.5469-3.875-4.5312-3.875-12.438 0-7.8594 3.875-12.438 3.8906-4.5625 10.531-4.5625t10.516 4.5625q3.875 4.5781 3.875 12.438 0 7.9062-3.875 12.438-3.875 4.5469-10.516 4.5469zm19.578 30.922v-8.9844q-3.7188 1.75-7.5 2.6719-3.7812 0.9375-7.5 0.9375-9.7656 0-14.922-6.5938-5.1406-6.5938-5.875-19.922 2.875 4.25 7.2188 6.5156 4.3594 2.2656 9.5781 2.2656 10.984 0 17.359-6.6719 6.375-6.6562 6.375-18.125 0-11.234-6.6406-18.031-6.6406-6.7812-17.672-6.7812-12.656 0-19.344 9.6875-6.6875 9.7031-6.6875 28.109 0 17.281 8.2031 27.562t22.016 10.281q3.7188 0 7.5-0.73438t7.8906-2.1875z"/>
</defs>
<g transform="translate(87.897 598.33) scale(.1 -.1)">
<use xlink:href="#d"/>
<use x="63.623047" xlink:href="#e"/>
<use x="95.410156" xlink:href="#m"/>
<use x="159.033203" xlink:href="#aj"/>
</g>
</g>
<g clip-path="url(#a)">
<g transform="translate(106.32 598.33) scale(.1 -.1)">
<use xlink:href="#d"/>
<use x="63.623047" xlink:href="#e"/>
<use x="95.410156" xlink:href="#m"/>
<use x="159.033203" xlink:href="#ai"/>
</g>
</g>
<g clip-path="url(#a)">
<g transform="translate(158.52 411.88) scale(.1 -.1)">
<use xlink:href="#d"/>
<use x="63.623047" xlink:href="#e"/>
<use x="95.410156" xlink:href="#m"/>
<use x="159.033203" xlink:href="#ah"/>
</g>
</g>
<g clip-path="url(#a)">
<g transform="translate(302.85 505.35) scale(.1 -.1)">
<use xlink:href="#d"/>
<use x="63.623047" xlink:href="#e"/>
<use x="95.410156" xlink:href="#m"/>
<use x="159.033203" xlink:href="#ab"/>
</g>
</g>
<g clip-path="url(#a)">
<g transform="translate(244.5 598.33) scale(.1 -.1)">
<use xlink:href="#d"/>
<use x="63.623047" xlink:href="#e"/>
<use x="95.410156" xlink:href="#n"/>
<use x="159.033203" xlink:href="#ac"/>
</g>
</g>
<g clip-path="url(#a)">
<g transform="translate(281.35 598.33) scale(.1 -.1)">
<use xlink:href="#d"/>
<use x="63.623047" xlink:href="#e"/>
<use x="95.410156" xlink:href="#n"/>
<use x="159.033203" xlink:href="#d"/>
</g>
</g>
<g clip-path="url(#a)">
<g transform="translate(321.27 598.33) scale(.1 -.1)">
<use xlink:href="#d"/>
<use x="63.623047" xlink:href="#e"/>
<use x="95.410156" xlink:href="#n"/>
<use x="159.033203" xlink:href="#m"/>
</g>
</g>
<g clip-path="url(#a)">
<g transform="translate(364.26 598.33) scale(.1 -.1)">
<use xlink:href="#d"/>
<use x="63.623047" xlink:href="#e"/>
<use x="95.410156" xlink:href="#n"/>
<use x="159.033203" xlink:href="#n"/>
</g>
</g>
<g clip-path="url(#a)">
<g transform="translate(127.82 598.33) scale(.1 -.1)">
<use xlink:href="#d"/>
<use x="63.623047" xlink:href="#e"/>
<use x="95.410156" xlink:href="#n"/>
<use x="159.033203" xlink:href="#o"/>
</g>
</g>
<g clip-path="url(#a)">
<g transform="translate(152.38 598.33) scale(.1 -.1)">
<use xlink:href="#d"/>
<use x="63.623047" xlink:href="#e"/>
<use x="95.410156" xlink:href="#n"/>
<use x="159.033203" xlink:href="#ak"/>
</g>
</g>
<g clip-path="url(#a)">
<g transform="translate(195.37 505.35) scale(.1 -.1)">
<use xlink:href="#d"/>
<use x="63.623047" xlink:href="#e"/>
<use x="95.410156" xlink:href="#n"/>
<use x="159.033203" xlink:href="#aj"/>
</g>
</g>
<g clip-path="url(#a)">
<g transform="translate(180.02 598.33) scale(.1 -.1)">
<use xlink:href="#d"/>
<use x="63.623047" xlink:href="#e"/>
<use x="95.410156" xlink:href="#n"/>
<use x="159.033203" xlink:href="#ai"/>
</g>
</g>
<g clip-path="url(#a)">
<g transform="translate(210.73 598.33) scale(.1 -.1)">
<use xlink:href="#d"/>
<use x="63.623047" xlink:href="#e"/>
<use x="95.410156" xlink:href="#n"/>
<use x="159.033203" xlink:href="#ah"/>
</g>
</g>
<g clip-path="url(#a)">
<g transform="translate(51.049 598.33) scale(.1 -.1)">
<use xlink:href="#d"/>
<use x="63.623047" xlink:href="#e"/>
<use x="95.410156" xlink:href="#n"/>
<use x="159.033203" xlink:href="#ab"/>
</g>
</g>
<g clip-path="url(#a)">
<g transform="translate(60.261 598.33) scale(.1 -.1)">
<use xlink:href="#d"/>
<use x="63.623047" xlink:href="#e"/>
<use x="95.410156" xlink:href="#o"/>
<use x="159.033203" xlink:href="#ac"/>
</g>
</g>
<g clip-path="url(#a)">
<g transform="translate(72.544 598.33) scale(.1 -.1)">
<use xlink:href="#d"/>
<use x="63.623047" xlink:href="#e"/>
<use x="95.410156" xlink:href="#o"/>
<use x="159.033203" xlink:href="#d"/>
</g>
</g>
<g clip-path="url(#a)">
<g transform="translate(410.32 598.33) scale(.1 -.1)">
<use xlink:href="#d"/>
<use x="63.623047" xlink:href="#e"/>
<use x="95.410156" xlink:href="#o"/>
<use x="159.033203" xlink:href="#m"/>
</g>
</g>
<g clip-path="url(#a)">
<g transform="translate(1039.8 598.33) scale(.1 -.1)">
<use xlink:href="#d"/>
<use x="63.623047" xlink:href="#e"/>
<use x="95.410156" xlink:href="#o"/>
<use x="159.033203" xlink:href="#n"/>
</g>
</g>
<g clip-path="url(#a)">
<g transform="translate(1119.7 598.33) scale(.1 -.1)">
<use xlink:href="#d"/>
<use x="63.623047" xlink:href="#e"/>
<use x="95.410156" xlink:href="#o"/>
<use x="159.033203" xlink:href="#o"/>
</g>
</g>
<g clip-path="url(#a)">
<g transform="translate(1202.6 598.33) scale(.1 -.1)">
<use xlink:href="#d"/>
<use x="63.623047" xlink:href="#e"/>
<use x="95.410156" xlink:href="#o"/>
<use x="159.033203" xlink:href="#ak"/>
</g>
</g>
<g clip-path="url(#a)">
<g transform="translate(1288.5 598.33) scale(.1 -.1)">
<use xlink:href="#d"/>
<use x="63.623047" xlink:href="#e"/>
<use x="95.410156" xlink:href="#o"/>
<use x="159.033203" xlink:href="#aj"/>
</g>
</g>
<defs>
<clipPath id="a">
<rect width="1368" height="720"/>
</clipPath>
</defs>
</svg>
