<?xml version="1.0" encoding="UTF-8"?>
<!DOCTYPE svg  PUBLIC '-//W3C//DTD SVG 1.1//EN'  'http://www.w3.org/Graphics/SVG/1.1/DTD/svg11.dtd'>
<svg width="1064pt" height="560pt" version="1.1" viewBox="0 0 1064 560" xmlns="http://www.w3.org/2000/svg" xmlns:xlink="http://www.w3.org/1999/xlink">
<defs>
<style type="text/css">*{stroke-linecap:butt;stroke-linejoin:round;}</style>
</defs>
<path d="m0 560h1064v-560h-1064z" fill="#fff"/>
<g fill="none" stroke="#000">
<path d="m693.34 26.56-245.26 104.96" clip-path="url(#a)"/>
<path d="m693.34 26.56 32 407.58" clip-path="url(#a)"/>
<path d="m693.34 26.56 213.26 207.59" clip-path="url(#a)"/>
<path d="m448.08 131.52-274.57 102.62" clip-path="url(#a)"/>
<path d="m448.08 131.52 108.08 302.61" clip-path="url(#a)"/>
<path d="m448.08 131.52 204.75 203.31" clip-path="url(#a)"/>
<path d="m448.08 131.52-61.09 302.61" clip-path="url(#a)"/>
<path d="m448.08 131.52-12.755 302.61" clip-path="url(#a)"/>
<path d="m448.08 131.52 35.58 302.61" clip-path="url(#a)"/>
<path d="m725.34 434.14v99.304" clip-path="url(#a)"/>
<path d="m906.6 234.15-132.92 199.99" clip-path="url(#a)"/>
<path d="m906.6 234.15-36.251 100.69" clip-path="url(#a)"/>
<path d="m906.6 234.15 60.419 199.99" clip-path="url(#a)"/>
<path d="m906.6 234.15 108.75 199.99" clip-path="url(#a)"/>
<path d="m773.68 434.14v99.304" clip-path="url(#a)"/>
<path d="m870.35 334.83-48.335 99.304" clip-path="url(#a)"/>
<path d="m870.35 334.83v99.304" clip-path="url(#a)"/>
<path d="m870.35 334.83 48.335 99.304" clip-path="url(#a)"/>
<path d="m967.02 434.14v99.304" clip-path="url(#a)"/>
<path d="m822.01 434.14v99.304" clip-path="url(#a)"/>
<path d="m870.35 434.14v99.304" clip-path="url(#a)"/>
<path d="m918.68 434.14v99.304" clip-path="url(#a)"/>
<path d="m173.51 234.15-124.87 199.99" clip-path="url(#a)"/>
<path d="m173.51 234.15-28.196 199.99" clip-path="url(#a)"/>
<path d="m173.51 234.15 68.475 199.99" clip-path="url(#a)"/>
<path d="m173.51 234.15 140.98 100.69" clip-path="url(#a)"/>
<path d="m173.51 234.15-76.531 199.99" clip-path="url(#a)"/>
<path d="m173.51 234.15 20.14 199.99" clip-path="url(#a)"/>
<path d="m556.17 434.14-24.168 99.304" clip-path="url(#a)"/>
<path d="m556.17 434.14 24.168 99.304" clip-path="url(#a)"/>
<path d="m652.84 334.83-24.168 99.304" clip-path="url(#a)"/>
<path d="m652.84 334.83 24.168 99.304" clip-path="url(#a)"/>
<path d="m628.67 434.14v99.304" clip-path="url(#a)"/>
<path d="m677.01 434.14v99.304" clip-path="url(#a)"/>
<path d="m48.647 434.14v99.304" clip-path="url(#a)"/>
<path d="m145.32 434.14v99.304" clip-path="url(#a)"/>
<path d="m241.99 434.14v99.304" clip-path="url(#a)"/>
<path d="m314.49 334.83-24.168 99.304" clip-path="url(#a)"/>
<path d="m314.49 334.83 24.168 99.304" clip-path="url(#a)"/>
<path d="m96.982 434.14v99.304" clip-path="url(#a)"/>
<path d="m193.65 434.14v99.304" clip-path="url(#a)"/>
<path d="m290.32 434.14v99.304" clip-path="url(#a)"/>
<path d="m338.66 434.14v99.304" clip-path="url(#a)"/>
<path d="m386.99 434.14v99.304" clip-path="url(#a)"/>
<path d="m435.33 434.14v99.304" clip-path="url(#a)"/>
<path d="m483.66 434.14v99.304" clip-path="url(#a)"/>
<path d="m1015.4 434.14v99.304" clip-path="url(#a)"/>
</g>
<path d="m570.41 85.99 5.531-2.3671q2.2064-0.94428 1.2621-3.1507l-3.0463-7.118q-0.94428-2.2064-3.1507-1.2621l-5.531 2.3671q-2.2064 0.94428-1.2621 3.1507l3.0463 7.118q0.94428 2.2064 3.1507 1.2621z" clip-path="url(#a)" fill="#fff" stroke="#fff"/>
<g clip-path="url(#a)">
<defs>
<path id="aa" d="m9.8125 72.906h9.8594v-29.891h35.844v29.891h9.8594v-72.906h-9.8594v34.719h-35.844v-34.719h-9.8594z"/>
</defs>
<g transform="translate(568.82 82.254) rotate(-23.169) scale(.08 -.08)">
<use xlink:href="#aa"/>
</g>
</g>
<path d="m702.91 228.62 0.3489 4.4438q0.18785 2.3926 2.5805 2.2048l7.7187-0.60602q2.3926-0.18785 2.2048-2.5805l-0.3489-4.4438q-0.18785-2.3926-2.5805-2.2048l-7.7187 0.60602q-2.3926 0.18785-2.2048 2.5805z" clip-path="url(#a)" fill="#fff" stroke="#fff"/>
<g clip-path="url(#a)">
<defs>
<path id="al" d="m9.8125 72.906h9.8594v-64.609h35.5v-8.2969h-45.359z"/>
</defs>
<g transform="translate(706.97 228.3) rotate(85.511) scale(.08 -.08)">
<use xlink:href="#al"/>
</g>
</g>
<path d="m793.44 132.75 4.3111 4.1964q1.7198 1.674 3.3938-0.04573l5.4005-5.548q1.674-1.7198-0.045731-3.3938l-4.3111-4.1964q-1.7198-1.674-3.3938 0.04573l-5.4005 5.548q-1.674 1.7198 0.04573 3.3938z" clip-path="url(#a)" fill="#fff" stroke="#fff"/>
<g clip-path="url(#a)">
<g transform="translate(796.27 129.84) rotate(44.228) scale(.08 -.08)">
<use xlink:href="#aa"/>
</g>
</g>
<path d="m310.43 189.67 5.1261-1.916q2.2481-0.84025 1.4079-3.0884l-2.7107-7.2525q-0.84025-2.2481-3.0884-1.4079l-5.1261 1.916q-2.2481 0.84025-1.4078 3.0884l2.7107 7.2525q0.84025 2.2481 3.0884 1.4079z" clip-path="url(#a)" fill="#fff" stroke="#fff"/>
<g clip-path="url(#a)">
<defs>
<path id="o" d="m34.188 63.188-13.391-36.281h26.812zm-5.5781 9.7188h11.188l27.781-72.906h-10.25l-6.6406 18.703h-32.859l-6.6406-18.703h-10.406z"/>
</defs>
<g transform="translate(309.01 185.86) rotate(-20.494) scale(.08 -.08)">
<use xlink:href="#o"/>
</g>
</g>
<path d="m495.41 282.67 1.6225 4.5427q0.80725 2.2602 3.0674 1.4529l7.2914-2.6042q2.2602-0.80725 1.4529-3.0674l-1.6225-4.5427q-0.80725-2.2602-3.0674-1.4529l-7.2914 2.6042q-2.2602 0.80725-1.4529 3.0674z" clip-path="url(#a)" fill="#fff" stroke="#fff"/>
<g clip-path="url(#a)">
<defs>
<path id="s" d="m19.672 64.797v-27.391h12.406q6.8906 0 10.641 3.5625 3.7656 3.5625 3.7656 10.156 0 6.5469-3.7656 10.109-3.75 3.5625-10.641 3.5625zm-9.8594 8.1094h22.266q12.266 0 18.531-5.5469 6.2812-5.5469 6.2812-16.234 0-10.797-6.2812-16.312-6.2656-5.5156-18.531-5.5156h-12.406v-29.297h-9.8594z"/>
</defs>
<g transform="translate(499.24 281.3) rotate(70.345) scale(.08 -.08)">
<use xlink:href="#s"/>
</g>
</g>
<path d="m544.1 235.7 3.8833 3.8559q1.7031 1.691 3.3941-0.012014l5.4554-5.4941q1.691-1.7031-0.012014-3.3941l-3.8833-3.8559q-1.7031-1.691-3.3941 0.012013l-5.4554 5.4941q-1.691 1.7031 0.012013 3.3941z" clip-path="url(#a)" fill="#fff" stroke="#fff"/>
<g clip-path="url(#a)">
<g transform="translate(546.96 232.82) rotate(44.797) scale(.08 -.08)">
<use xlink:href="#o"/>
</g>
</g>
<path d="m423.11 286.94 1.1586-5.7392q0.47492-2.3525-1.8776-2.8275l-7.5894-1.5321q-2.3525-0.47492-2.8275 1.8776l-1.1586 5.7392q-0.47492 2.3525 1.8776 2.8275l7.5894 1.5321q2.3525 0.47492 2.8275-1.8776z" clip-path="url(#a)" fill="#fff" stroke="#fff"/>
<g clip-path="url(#a)">
<defs>
<path id="n" d="m8.6875 72.906h9.9219v-44.297q0-11.719 4.2344-16.875 4.25-5.1406 13.781-5.1406 9.4688 0 13.719 5.1406 4.25 5.1562 4.25 16.875v44.297h9.9062v-45.516q0-14.25-7.0625-21.531-7.0469-7.2812-20.812-7.2812-13.828 0-20.891 7.2812-7.0469 7.2812-7.0469 21.531z"/>
</defs>
<g transform="translate(419.12 286.14) rotate(-78.587) scale(.08 -.08)">
<use xlink:href="#n"/>
</g>
</g>
<path d="m447.85 286.02 0.24657-5.8498q0.10107-2.3979-2.2968-2.4989l-7.7356-0.32606q-2.3979-0.10107-2.4989 2.2968l-0.24657 5.8498q-0.10107 2.3979 2.2968 2.4989l7.7356 0.32606q2.3979 0.10107 2.4989-2.2968z" clip-path="url(#a)" fill="#fff" stroke="#fff"/>
<g clip-path="url(#a)">
<g transform="translate(443.79 285.85) rotate(-87.586) scale(.08 -.08)">
<use xlink:href="#n"/>
</g>
</g>
<path d="m459.3 280.65 0.6837 5.8149q0.28025 2.3836 2.6638 2.1033l7.6895-0.90411q2.3836-0.28025 2.1033-2.6638l-0.6837-5.8149q-0.28025-2.3836-2.6638-2.1033l-7.6895 0.90411q-2.3836 0.28025-2.1033 2.6638z" clip-path="url(#a)" fill="#fff" stroke="#fff"/>
<g clip-path="url(#a)">
<g transform="translate(463.34 280.18) rotate(83.294) scale(.08 -.08)">
<use xlink:href="#n"/>
</g>
</g>
<path d="m719.07 466.15v35.285q0 2.4 2.4 2.4h7.7425q2.4 0 2.4-2.4v-35.285q0-2.4-2.4-2.4h-7.7425q-2.4 0-2.4 2.4z" clip-path="url(#a)" fill="#fff" stroke="#fff"/>
<g clip-path="url(#a)">
<defs>
<path id="k" d="m-0.29688 72.906h61.672v-8.3125h-25.875v-64.594h-9.9062v64.594h-25.891z"/>
<path id="d" d="m56.203 29.594v-4.3906h-41.312q0.59375-9.2812 5.5938-14.141t13.938-4.8594q5.1719 0 10.031 1.2656t9.6562 3.8125v-8.5q-4.8438-2.0469-9.9219-3.125t-10.297-1.0781q-13.094 0-20.734 7.6094-7.6406 7.625-7.6406 20.625 0 13.422 7.25 21.297 7.25 7.8906 19.562 7.8906 11.031 0 17.453-7.1094 6.4219-7.0938 6.4219-19.297zm-8.9844 2.6406q-0.09375 7.3594-4.125 11.75-4.0312 4.4062-10.672 4.4062-7.5156 0-12.031-4.25t-5.2031-11.969z"/>
<path id="f" d="m41.109 46.297q-1.5156 0.875-3.2969 1.2812-1.7812 0.42188-3.9219 0.42188-7.625 0-11.703-4.9531t-4.0781-14.234v-28.812h-9.0312v54.688h9.0312v-8.5q2.8438 4.9844 7.375 7.3906 4.5469 2.4219 11.047 2.4219 0.92188 0 2.0469-0.125 1.125-0.10938 2.4844-0.35938z"/>
<path id="l" d="m52 44.188q3.375 6.0625 8.0625 8.9375t11.031 2.875q8.5469 0 13.188-5.9844 4.6406-5.9688 4.6406-17v-33.016h-9.0312v32.719q0 7.8594-2.7969 11.656-2.7812 3.8125-8.4844 3.8125-6.9844 0-11.047-4.6406-4.0469-4.625-4.0469-12.641v-30.906h-9.0312v32.719q0 7.9062-2.7812 11.688t-8.5938 3.7812q-6.8906 0-10.953-4.6562-4.0469-4.6562-4.0469-12.625v-30.906h-9.0312v54.688h9.0312v-8.5q3.0781 5.0312 7.375 7.4219t10.203 2.3906q5.9688 0 10.141-3.0312 4.1719-3.0156 6.1719-8.7812z"/>
<path id="h" d="m9.4219 54.688h8.9844v-54.688h-8.9844zm0 21.297h8.9844v-11.391h-8.9844z"/>
<path id="g" d="m54.891 33.016v-33.016h-8.9844v32.719q0 7.7656-3.0312 11.609-3.0312 3.8594-9.0781 3.8594-7.2812 0-11.484-4.6406-4.2031-4.625-4.2031-12.641v-30.906h-9.0312v54.688h9.0312v-8.5q3.2344 4.9375 7.5938 7.375 4.375 2.4375 10.094 2.4375 9.4219 0 14.25-5.8281 4.8438-5.8281 4.8438-17.156z"/>
<path id="i" d="m34.281 27.484q-10.891 0-15.094-2.4844t-4.2031-8.5q0-4.7812 3.1562-7.5938 3.1562-2.7969 8.5625-2.7969 7.4844 0 12 5.2969t4.5156 14.078v2zm17.922 3.7188v-31.203h-8.9844v8.2969q-3.0781-4.9688-7.6719-7.3438t-11.234-2.375q-8.3906 0-13.359 4.7188-4.9531 4.7188-4.9531 12.625 0 9.2188 6.1719 13.906 6.1875 4.6875 18.438 4.6875h12.609v0.89062q0 6.2031-4.0781 9.5938t-11.453 3.3906q-4.6875 0-9.1406-1.125-4.4375-1.125-8.5312-3.375v8.3125q4.9219 1.9062 9.5625 2.8438 4.6406 0.95312 9.0312 0.95312 11.875 0 17.734-6.1562 5.8594-6.1406 5.8594-18.641z"/>
<path id="j" d="m9.4219 75.984h8.9844v-75.984h-8.9844z"/>
</defs>
<g transform="translate(723.13 466.15) rotate(90) scale(.08 -.08)">
<use xlink:href="#k"/>
<use x="60.818359" xlink:href="#d"/>
<use x="122.341797" xlink:href="#f"/>
<use x="163.439453" xlink:href="#l"/>
<use x="260.851562" xlink:href="#h"/>
<use x="288.634766" xlink:href="#g"/>
<use x="352.013672" xlink:href="#i"/>
<use x="413.292969" xlink:href="#j"/>
</g>
</g>
<path d="m843.85 339.89 3.0292-4.5576q1.3285-1.9988-0.6703-3.3273l-6.4482-4.2857q-1.9988-1.3285-3.3273 0.6703l-3.0292 4.5576q-1.3285 1.9988 0.6703 3.3273l6.4482 4.2857q1.9988 1.3285 3.3273-0.6703z" clip-path="url(#a)" fill="#fff" stroke="#fff"/>
<g clip-path="url(#a)">
<g transform="translate(840.46 337.64) rotate(-56.39) scale(.08 -.08)">
<use xlink:href="#o"/>
</g>
</g>
<path d="m893.45 289.19 1.8539-5.1489q0.81302-2.2581-1.4451-3.0711l-7.2847-2.6228q-2.2581-0.81302-3.0711 1.4451l-1.8539 5.1489q-0.81302 2.2581 1.4451 3.0711l7.2847 2.6228q2.2581 0.81302 3.0711-1.4451z" clip-path="url(#a)" fill="#fff" stroke="#fff"/>
<g clip-path="url(#a)">
<g transform="translate(889.62 287.81) rotate(-70.199) scale(.08 -.08)">
<use xlink:href="#o"/>
</g>
</g>
<path d="m930.11 333.65 1.395 4.6176q0.69409 2.2974 2.9915 1.6034l7.4116-2.2391q2.2974-0.69408 1.6034-2.9915l-1.395-4.6176q-0.69408-2.2974-2.9915-1.6034l-7.4116 2.2391q-2.2974 0.69409-1.6034 2.9915z" clip-path="url(#a)" fill="#fff" stroke="#fff"/>
<g clip-path="url(#a)">
<g transform="translate(934 332.47) rotate(73.19) scale(.08 -.08)">
<use xlink:href="#s"/>
</g>
</g>
<path d="m954.07 334.57 2.7971 5.1436q1.1466 2.1084 3.255 0.96186l6.8018-3.6988q2.1084-1.1466 0.96186-3.255l-2.7971-5.1436q-1.1466-2.1084-3.255-0.96185l-6.8018 3.6988q-2.1084 1.1466-0.96185 3.255z" clip-path="url(#a)" fill="#fff" stroke="#fff"/>
<g clip-path="url(#a)">
<g transform="translate(957.64 332.62) rotate(61.463) scale(.08 -.08)">
<use xlink:href="#n"/>
</g>
</g>
<path d="m767.41 466.15v35.285q0 2.4 2.4 2.4h7.7425q2.4 0 2.4-2.4v-35.285q0-2.4-2.4-2.4h-7.7425q-2.4 0-2.4 2.4z" clip-path="url(#a)" fill="#fff" stroke="#fff"/>
<g clip-path="url(#a)">
<g transform="translate(771.47 466.15) rotate(90) scale(.08 -.08)">
<use xlink:href="#k"/>
<use x="60.818359" xlink:href="#d"/>
<use x="122.341797" xlink:href="#f"/>
<use x="163.439453" xlink:href="#l"/>
<use x="260.851562" xlink:href="#h"/>
<use x="288.634766" xlink:href="#g"/>
<use x="352.013672" xlink:href="#i"/>
<use x="413.292969" xlink:href="#j"/>
</g>
</g>
<path d="m850.81 389.3 2.0137-4.1372q1.0504-2.1579-1.1076-3.2083l-6.9616-3.3885q-2.1579-1.0504-3.2083 1.1076l-2.0137 4.1372q-1.0504 2.1579 1.1076 3.2083l6.9616 3.3885q2.1579 1.0504 3.2083-1.1076z" clip-path="url(#a)" fill="#fff" stroke="#fff"/>
<g clip-path="url(#a)">
<defs>
<path id="t" d="m9.8125 72.906h41.891v-8.3125h-32.031v-21.484h28.906v-8.2969h-28.906v-34.812h-9.8594z"/>
</defs>
<g transform="translate(847.16 387.52) rotate(-64.046) scale(.08 -.08)">
<use xlink:href="#t"/>
</g>
</g>
<path d="m864.08 381.96v5.055q0 2.4 2.4 2.4h7.7425q2.4 0 2.4-2.4v-5.055q0-2.4-2.4-2.4h-7.7425q-2.4 0-2.4 2.4z" clip-path="url(#a)" fill="#fff" stroke="#fff"/>
<g clip-path="url(#a)">
<defs>
<path id="ab" d="m9.8125 72.906h46.094v-8.3125h-36.234v-21.578h34.719v-8.2969h-34.719v-26.422h37.109v-8.2969h-46.969z"/>
</defs>
<g transform="translate(868.14 381.96) rotate(90) scale(.08 -.08)">
<use xlink:href="#ab"/>
</g>
</g>
<path d="m887.65 384.72 2.4448 5.0228q1.0504 2.1579 3.2083 1.1076l6.9616-3.3885q2.1579-1.0504 1.1076-3.2083l-2.4448-5.0228q-1.0504-2.1579-3.2083-1.1076l-6.9616 3.3885q-2.1579 1.0504-1.1076 3.2083z" clip-path="url(#a)" fill="#fff" stroke="#fff"/>
<g clip-path="url(#a)">
<defs>
<path id="u" d="m64.406 67.281v-10.391q-4.9844 4.6406-10.625 6.9219-5.6406 2.2969-11.984 2.2969-12.5 0-19.141-7.6406t-6.6406-22.094q0-14.406 6.6406-22.047t19.141-7.6406q6.3438 0 11.984 2.2969t10.625 6.9375v-10.312q-5.1719-3.5156-10.969-5.2812-5.7812-1.75-12.219-1.75-16.562 0-26.094 10.125-9.5156 10.141-9.5156 27.672 0 17.578 9.5156 27.703 9.5312 10.141 26.094 10.141 6.5312 0 12.312-1.7344 5.7969-1.7344 10.875-5.2031z"/>
</defs>
<g transform="translate(891.31 382.94) rotate(64.046) scale(.08 -.08)">
<use xlink:href="#u"/>
</g>
</g>
<path d="m960.75 466.15v35.285q0 2.4 2.4 2.4h7.7425q2.4 0 2.4-2.4v-35.285q0-2.4-2.4-2.4h-7.7425q-2.4 0-2.4 2.4z" clip-path="url(#a)" fill="#fff" stroke="#fff"/>
<g clip-path="url(#a)">
<g transform="translate(964.81 466.15) rotate(90) scale(.08 -.08)">
<use xlink:href="#k"/>
<use x="60.818359" xlink:href="#d"/>
<use x="122.341797" xlink:href="#f"/>
<use x="163.439453" xlink:href="#l"/>
<use x="260.851562" xlink:href="#h"/>
<use x="288.634766" xlink:href="#g"/>
<use x="352.013672" xlink:href="#i"/>
<use x="413.292969" xlink:href="#j"/>
</g>
</g>
<path d="m815.74 466.15v35.285q0 2.4 2.4 2.4h7.7425q2.4 0 2.4-2.4v-35.285q0-2.4-2.4-2.4h-7.7425q-2.4 0-2.4 2.4z" clip-path="url(#a)" fill="#fff" stroke="#fff"/>
<g clip-path="url(#a)">
<g transform="translate(819.8 466.15) rotate(90) scale(.08 -.08)">
<use xlink:href="#k"/>
<use x="60.818359" xlink:href="#d"/>
<use x="122.341797" xlink:href="#f"/>
<use x="163.439453" xlink:href="#l"/>
<use x="260.851562" xlink:href="#h"/>
<use x="288.634766" xlink:href="#g"/>
<use x="352.013672" xlink:href="#i"/>
<use x="413.292969" xlink:href="#j"/>
</g>
</g>
<path d="m864.08 466.15v35.285q0 2.4 2.4 2.4h7.7425q2.4 0 2.4-2.4v-35.285q0-2.4-2.4-2.4h-7.7425q-2.4 0-2.4 2.4z" clip-path="url(#a)" fill="#fff" stroke="#fff"/>
<g clip-path="url(#a)">
<g transform="translate(868.14 466.15) rotate(90) scale(.08 -.08)">
<use xlink:href="#k"/>
<use x="60.818359" xlink:href="#d"/>
<use x="122.341797" xlink:href="#f"/>
<use x="163.439453" xlink:href="#l"/>
<use x="260.851562" xlink:href="#h"/>
<use x="288.634766" xlink:href="#g"/>
<use x="352.013672" xlink:href="#i"/>
<use x="413.292969" xlink:href="#j"/>
</g>
</g>
<path d="m912.41 466.15v35.285q0 2.4 2.4 2.4h7.7425q2.4 0 2.4-2.4v-35.285q0-2.4-2.4-2.4h-7.7425q-2.4 0-2.4 2.4z" clip-path="url(#a)" fill="#fff" stroke="#fff"/>
<g clip-path="url(#a)">
<g transform="translate(916.47 466.15) rotate(90) scale(.08 -.08)">
<use xlink:href="#k"/>
<use x="60.818359" xlink:href="#d"/>
<use x="122.341797" xlink:href="#f"/>
<use x="163.439453" xlink:href="#l"/>
<use x="260.851562" xlink:href="#h"/>
<use x="288.634766" xlink:href="#g"/>
<use x="352.013672" xlink:href="#i"/>
<use x="413.292969" xlink:href="#j"/>
</g>
</g>
<path d="m115.18 339.41 2.4369-3.903q1.2711-2.0358-0.76471-3.3068l-6.5675-4.1005q-2.0358-1.2711-3.3068 0.76471l-2.4369 3.903q-1.2711 2.0358 0.76471 3.3068l6.5675 4.1005q2.0358 1.2711 3.3068-0.76471z" clip-path="url(#a)" fill="#fff" stroke="#fff"/>
<g clip-path="url(#a)">
<g transform="translate(111.73 337.26) rotate(-58.021) scale(.08 -.08)">
<use xlink:href="#t"/>
</g>
</g>
<path d="m165.3 337.29 0.64236-4.5562q0.33505-2.3765-2.0414-2.7116l-7.6667-1.0809q-2.3765-0.33505-2.7115 2.0414l-0.64236 4.5562q-0.33505 2.3765 2.0414 2.7116l7.6667 1.0809q2.3765 0.33505 2.7115-2.0414z" clip-path="url(#a)" fill="#fff" stroke="#fff"/>
<g clip-path="url(#a)">
<g transform="translate(161.28 336.73) rotate(-81.975) scale(.08 -.08)">
<use xlink:href="#t"/>
</g>
</g>
<path d="m201.04 333.89 1.5626 4.5637q0.77744 2.2706 3.048 1.4932l7.325-2.508q2.2706-0.77744 1.4932-3.048l-1.5626-4.5637q-0.77744-2.2706-3.048-1.4932l-7.325 2.508q-2.2706 0.77744-1.4932 3.048z" clip-path="url(#a)" fill="#fff" stroke="#fff"/>
<g clip-path="url(#a)">
<g transform="translate(204.88 332.57) rotate(71.099) scale(.08 -.08)">
<use xlink:href="#s"/>
</g>
</g>
<path d="m238.13 288 4.4534 3.1805q1.953 1.3948 3.3479-0.5582l4.4998-6.3006q1.3948-1.953-0.5582-3.3479l-4.4534-3.1805q-1.953-1.3948-3.3479 0.5582l-4.4998 6.3006q-1.3948 1.953 0.5582 3.3479z" clip-path="url(#a)" fill="#fff" stroke="#fff"/>
<g clip-path="url(#a)">
<g transform="translate(240.49 284.7) rotate(35.534) scale(.08 -.08)">
<use xlink:href="#o"/>
</g>
</g>
<path d="m140.06 339.12 2.0926-5.4683q0.85776-2.2415-1.3837-3.0992l-7.2311-2.7672q-2.2415-0.85776-3.0992 1.3837l-2.0926 5.4683q-0.85776 2.2415 1.3837 3.0992l7.2311 2.7672q2.2415 0.85776 3.0992-1.3837z" clip-path="url(#a)" fill="#fff" stroke="#fff"/>
<g clip-path="url(#a)">
<g transform="translate(136.26 337.66) rotate(-69.059) scale(.08 -.08)">
<use xlink:href="#n"/>
</g>
</g>
<path d="m177.05 331.86 0.58665 5.8255q0.24047 2.3879 2.6284 2.1474l7.7035-0.77578q2.3879-0.24047 2.1474-2.6284l-0.58665-5.8255q-0.24047-2.3879-2.6284-2.1474l-7.7035 0.77578q-2.3879 0.24047-2.1474 2.6284z" clip-path="url(#a)" fill="#fff" stroke="#fff"/>
<g clip-path="url(#a)">
<g transform="translate(181.09 331.45) rotate(84.249) scale(.08 -.08)">
<use xlink:href="#n"/>
</g>
</g>
<path d="m546.01 502.41 8.3438-34.284q0.56752-2.3319-1.7644-2.8995l-7.5229-1.8309q-2.3319-0.56752-2.8995 1.7644l-8.3438 34.284q-0.56752 2.3319 1.7644 2.8995l7.5229 1.8309q2.3319 0.56752 2.8995-1.7644z" clip-path="url(#a)" fill="#fff" stroke="#fff"/>
<g clip-path="url(#a)">
<g transform="translate(542.06 501.45) rotate(-76.322) scale(.08 -.08)">
<use xlink:href="#k"/>
<use x="60.818359" xlink:href="#d"/>
<use x="122.341797" xlink:href="#f"/>
<use x="163.439453" xlink:href="#l"/>
<use x="260.851562" xlink:href="#h"/>
<use x="288.634766" xlink:href="#g"/>
<use x="352.013672" xlink:href="#i"/>
<use x="413.292969" xlink:href="#j"/>
</g>
</g>
<path d="m557.99 468.13 8.3438 34.284q0.56752 2.3319 2.8995 1.7644l7.5229-1.8309q2.3319-0.56752 1.7644-2.8995l-8.3438-34.284q-0.56752-2.3319-2.8995-1.7644l-7.5229 1.8309q-2.3319 0.56752-1.7644 2.8995z" clip-path="url(#a)" fill="#fff" stroke="#fff"/>
<g clip-path="url(#a)">
<g transform="translate(561.93 467.17) rotate(76.322) scale(.08 -.08)">
<use xlink:href="#k"/>
<use x="60.818359" xlink:href="#d"/>
<use x="122.341797" xlink:href="#f"/>
<use x="163.439453" xlink:href="#l"/>
<use x="260.851562" xlink:href="#h"/>
<use x="288.634766" xlink:href="#g"/>
<use x="352.013672" xlink:href="#i"/>
<use x="413.292969" xlink:href="#j"/>
</g>
</g>
<path d="m646.3 388.2 1.0881-4.4708q0.56752-2.3319-1.7644-2.8995l-7.5229-1.8309q-2.3319-0.56752-2.8995 1.7644l-1.0881 4.4708q-0.56752 2.3319 1.7644 2.8995l7.5229 1.8309q2.3319 0.56752 2.8995-1.7644z" clip-path="url(#a)" fill="#fff" stroke="#fff"/>
<g clip-path="url(#a)">
<g transform="translate(642.36 387.24) rotate(-76.322) scale(.08 -.08)">
<use xlink:href="#t"/>
</g>
</g>
<path d="m658.17 383.25 1.321 5.4278q0.56752 2.3319 2.8995 1.7644l7.5229-1.8309q2.3319-0.56752 1.7644-2.8995l-1.321-5.4278q-0.56752-2.3319-2.8995-1.7644l-7.5229 1.8309q-2.3319 0.56752-1.7644 2.8995z" clip-path="url(#a)" fill="#fff" stroke="#fff"/>
<g clip-path="url(#a)">
<g transform="translate(662.12 382.29) rotate(76.322) scale(.08 -.08)">
<use xlink:href="#u"/>
</g>
</g>
<path d="m622.4 466.15v35.285q0 2.4 2.4 2.4h7.7425q2.4 0 2.4-2.4v-35.285q0-2.4-2.4-2.4h-7.7425q-2.4 0-2.4 2.4z" clip-path="url(#a)" fill="#fff" stroke="#fff"/>
<g clip-path="url(#a)">
<g transform="translate(626.46 466.15) rotate(90) scale(.08 -.08)">
<use xlink:href="#k"/>
<use x="60.818359" xlink:href="#d"/>
<use x="122.341797" xlink:href="#f"/>
<use x="163.439453" xlink:href="#l"/>
<use x="260.851562" xlink:href="#h"/>
<use x="288.634766" xlink:href="#g"/>
<use x="352.013672" xlink:href="#i"/>
<use x="413.292969" xlink:href="#j"/>
</g>
</g>
<path d="m670.73 466.15v35.285q0 2.4 2.4 2.4h7.7425q2.4 0 2.4-2.4v-35.285q0-2.4-2.4-2.4h-7.7425q-2.4 0-2.4 2.4z" clip-path="url(#a)" fill="#fff" stroke="#fff"/>
<g clip-path="url(#a)">
<g transform="translate(674.8 466.15) rotate(90) scale(.08 -.08)">
<use xlink:href="#k"/>
<use x="60.818359" xlink:href="#d"/>
<use x="122.341797" xlink:href="#f"/>
<use x="163.439453" xlink:href="#l"/>
<use x="260.851562" xlink:href="#h"/>
<use x="288.634766" xlink:href="#g"/>
<use x="352.013672" xlink:href="#i"/>
<use x="413.292969" xlink:href="#j"/>
</g>
</g>
<path d="m42.376 466.15v35.285q0 2.4 2.4 2.4h7.7425q2.4 0 2.4-2.4v-35.285q0-2.4-2.4-2.4h-7.7425q-2.4 0-2.4 2.4z" clip-path="url(#a)" fill="#fff" stroke="#fff"/>
<g clip-path="url(#a)">
<g transform="translate(46.439 466.15) rotate(90) scale(.08 -.08)">
<use xlink:href="#k"/>
<use x="60.818359" xlink:href="#d"/>
<use x="122.341797" xlink:href="#f"/>
<use x="163.439453" xlink:href="#l"/>
<use x="260.851562" xlink:href="#h"/>
<use x="288.634766" xlink:href="#g"/>
<use x="352.013672" xlink:href="#i"/>
<use x="413.292969" xlink:href="#j"/>
</g>
</g>
<path d="m139.05 466.15v35.285q0 2.4 2.4 2.4h7.7425q2.4 0 2.4-2.4v-35.285q0-2.4-2.4-2.4h-7.7425q-2.4 0-2.4 2.4z" clip-path="url(#a)" fill="#fff" stroke="#fff"/>
<g clip-path="url(#a)">
<g transform="translate(143.11 466.15) rotate(90) scale(.08 -.08)">
<use xlink:href="#k"/>
<use x="60.818359" xlink:href="#d"/>
<use x="122.341797" xlink:href="#f"/>
<use x="163.439453" xlink:href="#l"/>
<use x="260.851562" xlink:href="#h"/>
<use x="288.634766" xlink:href="#g"/>
<use x="352.013672" xlink:href="#i"/>
<use x="413.292969" xlink:href="#j"/>
</g>
</g>
<path d="m235.72 466.15v35.285q0 2.4 2.4 2.4h7.7425q2.4 0 2.4-2.4v-35.285q0-2.4-2.4-2.4h-7.7425q-2.4 0-2.4 2.4z" clip-path="url(#a)" fill="#fff" stroke="#fff"/>
<g clip-path="url(#a)">
<g transform="translate(239.78 466.15) rotate(90) scale(.08 -.08)">
<use xlink:href="#k"/>
<use x="60.818359" xlink:href="#d"/>
<use x="122.341797" xlink:href="#f"/>
<use x="163.439453" xlink:href="#l"/>
<use x="260.851562" xlink:href="#h"/>
<use x="288.634766" xlink:href="#g"/>
<use x="352.013672" xlink:href="#i"/>
<use x="413.292969" xlink:href="#j"/>
</g>
</g>
<path d="m307.84 388.67 1.3145-5.4011q0.56752-2.3319-1.7644-2.8995l-7.5229-1.8309q-2.3319-0.56752-2.8995 1.7644l-1.3145 5.4011q-0.56752 2.3319 1.7644 2.8995l7.5229 1.8309q2.3319 0.56752 2.8995-1.7644z" clip-path="url(#a)" fill="#fff" stroke="#fff"/>
<g clip-path="url(#a)">
<defs>
<path id="ak" d="m44.391 34.188q3.1719-1.0781 6.1719-4.5938t6.0312-9.6719l10.016-19.922h-10.609l-9.3125 18.703q-3.625 7.3281-7.0156 9.7188t-9.25 2.3906h-10.75v-30.812h-9.8594v72.906h22.266q12.5 0 18.656-5.2344 6.1562-5.2188 6.1562-15.766 0-6.8906-3.2031-11.438-3.2031-4.5312-9.2969-6.2812zm-24.719 30.609v-25.875h12.406q7.125 0 10.766 3.2969t3.6406 9.6875-3.6406 9.6406-10.766 3.25z"/>
</defs>
<g transform="translate(303.89 387.71) rotate(-76.322) scale(.08 -.08)">
<use xlink:href="#ak"/>
</g>
</g>
<path d="m319.82 383.25 1.321 5.4278q0.56752 2.3319 2.8995 1.7644l7.5229-1.8309q2.3319-0.56752 1.7644-2.8995l-1.321-5.4278q-0.56752-2.3319-2.8995-1.7644l-7.5229 1.8309q-2.3319 0.56752-1.7644 2.8995z" clip-path="url(#a)" fill="#fff" stroke="#fff"/>
<g clip-path="url(#a)">
<g transform="translate(323.77 382.29) rotate(76.322) scale(.08 -.08)">
<use xlink:href="#u"/>
</g>
</g>
<path d="m90.711 466.15v35.285q0 2.4 2.4 2.4h7.7425q2.4 0 2.4-2.4v-35.285q0-2.4-2.4-2.4h-7.7425q-2.4 0-2.4 2.4z" clip-path="url(#a)" fill="#fff" stroke="#fff"/>
<g clip-path="url(#a)">
<g transform="translate(94.775 466.15) rotate(90) scale(.08 -.08)">
<use xlink:href="#k"/>
<use x="60.818359" xlink:href="#d"/>
<use x="122.341797" xlink:href="#f"/>
<use x="163.439453" xlink:href="#l"/>
<use x="260.851562" xlink:href="#h"/>
<use x="288.634766" xlink:href="#g"/>
<use x="352.013672" xlink:href="#i"/>
<use x="413.292969" xlink:href="#j"/>
</g>
</g>
<path d="m187.38 466.15v35.285q0 2.4 2.4 2.4h7.7425q2.4 0 2.4-2.4v-35.285q0-2.4-2.4-2.4h-7.7425q-2.4 0-2.4 2.4z" clip-path="url(#a)" fill="#fff" stroke="#fff"/>
<g clip-path="url(#a)">
<g transform="translate(191.45 466.15) rotate(90) scale(.08 -.08)">
<use xlink:href="#k"/>
<use x="60.818359" xlink:href="#d"/>
<use x="122.341797" xlink:href="#f"/>
<use x="163.439453" xlink:href="#l"/>
<use x="260.851562" xlink:href="#h"/>
<use x="288.634766" xlink:href="#g"/>
<use x="352.013672" xlink:href="#i"/>
<use x="413.292969" xlink:href="#j"/>
</g>
</g>
<path d="m284.05 466.15v35.285q0 2.4 2.4 2.4h7.7425q2.4 0 2.4-2.4v-35.285q0-2.4-2.4-2.4h-7.7425q-2.4 0-2.4 2.4z" clip-path="url(#a)" fill="#fff" stroke="#fff"/>
<g clip-path="url(#a)">
<g transform="translate(288.12 466.15) rotate(90) scale(.08 -.08)">
<use xlink:href="#k"/>
<use x="60.818359" xlink:href="#d"/>
<use x="122.341797" xlink:href="#f"/>
<use x="163.439453" xlink:href="#l"/>
<use x="260.851562" xlink:href="#h"/>
<use x="288.634766" xlink:href="#g"/>
<use x="352.013672" xlink:href="#i"/>
<use x="413.292969" xlink:href="#j"/>
</g>
</g>
<path d="m332.39 466.15v35.285q0 2.4 2.4 2.4h7.7425q2.4 0 2.4-2.4v-35.285q0-2.4-2.4-2.4h-7.7425q-2.4 0-2.4 2.4z" clip-path="url(#a)" fill="#fff" stroke="#fff"/>
<g clip-path="url(#a)">
<g transform="translate(336.45 466.15) rotate(90) scale(.08 -.08)">
<use xlink:href="#k"/>
<use x="60.818359" xlink:href="#d"/>
<use x="122.341797" xlink:href="#f"/>
<use x="163.439453" xlink:href="#l"/>
<use x="260.851562" xlink:href="#h"/>
<use x="288.634766" xlink:href="#g"/>
<use x="352.013672" xlink:href="#i"/>
<use x="413.292969" xlink:href="#j"/>
</g>
</g>
<path d="m380.72 466.15v35.285q0 2.4 2.4 2.4h7.7425q2.4 0 2.4-2.4v-35.285q0-2.4-2.4-2.4h-7.7425q-2.4 0-2.4 2.4z" clip-path="url(#a)" fill="#fff" stroke="#fff"/>
<g clip-path="url(#a)">
<g transform="translate(384.79 466.15) rotate(90) scale(.08 -.08)">
<use xlink:href="#k"/>
<use x="60.818359" xlink:href="#d"/>
<use x="122.341797" xlink:href="#f"/>
<use x="163.439453" xlink:href="#l"/>
<use x="260.851562" xlink:href="#h"/>
<use x="288.634766" xlink:href="#g"/>
<use x="352.013672" xlink:href="#i"/>
<use x="413.292969" xlink:href="#j"/>
</g>
</g>
<path d="m429.06 466.15v35.285q0 2.4 2.4 2.4h7.7425q2.4 0 2.4-2.4v-35.285q0-2.4-2.4-2.4h-7.7425q-2.4 0-2.4 2.4z" clip-path="url(#a)" fill="#fff" stroke="#fff"/>
<g clip-path="url(#a)">
<g transform="translate(433.12 466.15) rotate(90) scale(.08 -.08)">
<use xlink:href="#k"/>
<use x="60.818359" xlink:href="#d"/>
<use x="122.341797" xlink:href="#f"/>
<use x="163.439453" xlink:href="#l"/>
<use x="260.851562" xlink:href="#h"/>
<use x="288.634766" xlink:href="#g"/>
<use x="352.013672" xlink:href="#i"/>
<use x="413.292969" xlink:href="#j"/>
</g>
</g>
<path d="m477.39 466.15v35.285q0 2.4 2.4 2.4h7.7425q2.4 0 2.4-2.4v-35.285q0-2.4-2.4-2.4h-7.7425q-2.4 0-2.4 2.4z" clip-path="url(#a)" fill="#fff" stroke="#fff"/>
<g clip-path="url(#a)">
<g transform="translate(481.46 466.15) rotate(90) scale(.08 -.08)">
<use xlink:href="#k"/>
<use x="60.818359" xlink:href="#d"/>
<use x="122.341797" xlink:href="#f"/>
<use x="163.439453" xlink:href="#l"/>
<use x="260.851562" xlink:href="#h"/>
<use x="288.634766" xlink:href="#g"/>
<use x="352.013672" xlink:href="#i"/>
<use x="413.292969" xlink:href="#j"/>
</g>
</g>
<path d="m1009.1 466.15v35.285q0 2.4 2.4 2.4h7.7425q2.4 0 2.4-2.4v-35.285q0-2.4-2.4-2.4h-7.7425q-2.4 0-2.4 2.4z" clip-path="url(#a)" fill="#fff" stroke="#fff"/>
<g clip-path="url(#a)">
<g transform="translate(1013.1 466.15) rotate(90) scale(.08 -.08)">
<use xlink:href="#k"/>
<use x="60.818359" xlink:href="#d"/>
<use x="122.341797" xlink:href="#f"/>
<use x="163.439453" xlink:href="#l"/>
<use x="260.851562" xlink:href="#h"/>
<use x="288.634766" xlink:href="#g"/>
<use x="352.013672" xlink:href="#i"/>
<use x="413.292969" xlink:href="#j"/>
</g>
</g>
<defs>
<path id="b" d="m0 8.6603c2.2967 0 4.4997-0.9125 6.1237-2.5365 1.624-1.624 2.5365-3.827 2.5365-6.1237s-0.9125-4.4997-2.5365-6.1237c-1.624-1.624-3.827-2.5365-6.1237-2.5365s-4.4997 0.9125-6.1237 2.5365c-1.624 1.624-2.5365 3.827-2.5365 6.1237s0.9125 4.4997 2.5365 6.1237c1.624 1.624 3.827 2.5365 6.1237 2.5365z"/>
</defs>
<g clip-path="url(#a)">
<use x="48.646897" y="533.439744" fill="#ffffff" stroke="#ffffff" xlink:href="#b"/>
</g>
<g clip-path="url(#a)">
<use x="96.982207" y="533.439744" fill="#ffffff" stroke="#ffffff" xlink:href="#b"/>
</g>
<g clip-path="url(#a)">
<use x="145.317517" y="533.439744" fill="#ffffff" stroke="#ffffff" xlink:href="#b"/>
</g>
<g clip-path="url(#a)">
<use x="193.652828" y="533.439744" fill="#ffffff" stroke="#ffffff" xlink:href="#b"/>
</g>
<g clip-path="url(#a)">
<use x="241.988138" y="533.439744" fill="#ffffff" stroke="#ffffff" xlink:href="#b"/>
</g>
<g clip-path="url(#a)">
<use x="290.323448" y="533.439744" fill="#ffffff" stroke="#ffffff" xlink:href="#b"/>
</g>
<g clip-path="url(#a)">
<use x="338.658759" y="533.439744" fill="#ffffff" stroke="#ffffff" xlink:href="#b"/>
</g>
<g clip-path="url(#a)">
<use x="386.994069" y="533.439744" fill="#ffffff" stroke="#ffffff" xlink:href="#b"/>
</g>
<g clip-path="url(#a)">
<use x="435.329379" y="533.439744" fill="#ffffff" stroke="#ffffff" xlink:href="#b"/>
</g>
<g clip-path="url(#a)">
<use x="483.66469" y="533.439744" fill="#ffffff" stroke="#ffffff" xlink:href="#b"/>
</g>
<g clip-path="url(#a)">
<use x="532" y="533.439744" fill="#ffffff" stroke="#ffffff" xlink:href="#b"/>
</g>
<g clip-path="url(#a)">
<use x="580.33531" y="533.439744" fill="#ffffff" stroke="#ffffff" xlink:href="#b"/>
</g>
<g clip-path="url(#a)">
<use x="628.670621" y="533.439744" fill="#ffffff" stroke="#ffffff" xlink:href="#b"/>
</g>
<g clip-path="url(#a)">
<use x="677.005931" y="533.439744" fill="#ffffff" stroke="#ffffff" xlink:href="#b"/>
</g>
<g clip-path="url(#a)">
<use x="725.341241" y="533.439744" fill="#ffffff" stroke="#ffffff" xlink:href="#b"/>
</g>
<g clip-path="url(#a)">
<use x="773.676552" y="533.439744" fill="#ffffff" stroke="#ffffff" xlink:href="#b"/>
</g>
<g clip-path="url(#a)">
<use x="822.011862" y="533.439744" fill="#ffffff" stroke="#ffffff" xlink:href="#b"/>
</g>
<g clip-path="url(#a)">
<use x="870.347172" y="533.439744" fill="#ffffff" stroke="#ffffff" xlink:href="#b"/>
</g>
<g clip-path="url(#a)">
<use x="918.682483" y="533.439744" fill="#ffffff" stroke="#ffffff" xlink:href="#b"/>
</g>
<g clip-path="url(#a)">
<use x="967.017793" y="533.439744" fill="#ffffff" stroke="#ffffff" xlink:href="#b"/>
</g>
<g clip-path="url(#a)">
<use x="1015.353103" y="533.439744" fill="#ffffff" stroke="#ffffff" xlink:href="#b"/>
</g>
<g clip-path="url(#a)">
<use x="693.341476" y="26.560256" fill="#ffffff" stroke="#ffffff" xlink:href="#b"/>
</g>
<g clip-path="url(#a)">
<use x="448.084531" y="131.522637" fill="#ffffff" stroke="#ffffff" xlink:href="#b"/>
</g>
<g clip-path="url(#a)">
<use x="725.341241" y="434.135873" fill="#ffffff" stroke="#ffffff" xlink:href="#b"/>
</g>
<g clip-path="url(#a)">
<use x="906.598655" y="234.146705" fill="#ffffff" stroke="#ffffff" xlink:href="#b"/>
</g>
<g clip-path="url(#a)">
<use x="773.676552" y="434.135873" fill="#ffffff" stroke="#ffffff" xlink:href="#b"/>
</g>
<g clip-path="url(#a)">
<use x="870.347172" y="334.832002" fill="#ffffff" stroke="#ffffff" xlink:href="#b"/>
</g>
<g clip-path="url(#a)">
<use x="967.017793" y="434.135873" fill="#ffffff" stroke="#ffffff" xlink:href="#b"/>
</g>
<g clip-path="url(#a)">
<use x="822.011862" y="434.135873" fill="#ffffff" stroke="#ffffff" xlink:href="#b"/>
</g>
<g clip-path="url(#a)">
<use x="870.347172" y="434.135873" fill="#ffffff" stroke="#ffffff" xlink:href="#b"/>
</g>
<g clip-path="url(#a)">
<use x="918.682483" y="434.135873" fill="#ffffff" stroke="#ffffff" xlink:href="#b"/>
</g>
<g clip-path="url(#a)">
<use x="173.513115" y="234.146705" fill="#ffffff" stroke="#ffffff" xlink:href="#b"/>
</g>
<g clip-path="url(#a)">
<use x="556.167655" y="434.135873" fill="#ffffff" stroke="#ffffff" xlink:href="#b"/>
</g>
<g clip-path="url(#a)">
<use x="652.838276" y="334.832002" fill="#ffffff" stroke="#ffffff" xlink:href="#b"/>
</g>
<g clip-path="url(#a)">
<use x="628.670621" y="434.135873" fill="#ffffff" stroke="#ffffff" xlink:href="#b"/>
</g>
<g clip-path="url(#a)">
<use x="677.005931" y="434.135873" fill="#ffffff" stroke="#ffffff" xlink:href="#b"/>
</g>
<g clip-path="url(#a)">
<use x="48.646897" y="434.135873" fill="#ffffff" stroke="#ffffff" xlink:href="#b"/>
</g>
<g clip-path="url(#a)">
<use x="145.317517" y="434.135873" fill="#ffffff" stroke="#ffffff" xlink:href="#b"/>
</g>
<g clip-path="url(#a)">
<use x="241.988138" y="434.135873" fill="#ffffff" stroke="#ffffff" xlink:href="#b"/>
</g>
<g clip-path="url(#a)">
<use x="314.491104" y="334.832002" fill="#ffffff" stroke="#ffffff" xlink:href="#b"/>
</g>
<g clip-path="url(#a)">
<use x="96.982207" y="434.135873" fill="#ffffff" stroke="#ffffff" xlink:href="#b"/>
</g>
<g clip-path="url(#a)">
<use x="193.652828" y="434.135873" fill="#ffffff" stroke="#ffffff" xlink:href="#b"/>
</g>
<g clip-path="url(#a)">
<use x="290.323448" y="434.135873" fill="#ffffff" stroke="#ffffff" xlink:href="#b"/>
</g>
<g clip-path="url(#a)">
<use x="338.658759" y="434.135873" fill="#ffffff" stroke="#ffffff" xlink:href="#b"/>
</g>
<g clip-path="url(#a)">
<use x="386.994069" y="434.135873" fill="#ffffff" stroke="#ffffff" xlink:href="#b"/>
</g>
<g clip-path="url(#a)">
<use x="435.329379" y="434.135873" fill="#ffffff" stroke="#ffffff" xlink:href="#b"/>
</g>
<g clip-path="url(#a)">
<use x="483.66469" y="434.135873" fill="#ffffff" stroke="#ffffff" xlink:href="#b"/>
</g>
<g clip-path="url(#a)">
<use x="1015.353103" y="434.135873" fill="#ffffff" stroke="#ffffff" xlink:href="#b"/>
</g>
<g clip-path="url(#a)">
<defs>
<path id="q" d="m54.891 33.016v-33.016h-8.9844v32.719q0 7.7656-3.0312 11.609-3.0312 3.8594-9.0781 3.8594-7.2812 0-11.484-4.6406-4.2031-4.625-4.2031-12.641v-30.906h-9.0312v75.984h9.0312v-29.797q3.2344 4.9375 7.5938 7.375 4.375 2.4375 10.094 2.4375 9.4219 0 14.25-5.8281 4.8438-5.8281 4.8438-17.156z"/>
</defs>
<g transform="translate(42.058 536.2) scale(.1 -.1)">
<use xlink:href="#o"/>
<use x="68.408203" xlink:href="#q"/>
</g>
</g>
<g clip-path="url(#a)">
<defs>
<path id="ae" d="m11.719 12.406h10.297v-8.4062l-8-15.625h-6.2969l4 15.625z"/>
</defs>
<g transform="translate(95.393 536.2) scale(.1 -.1)">
<use xlink:href="#ae"/>
</g>
</g>
<g clip-path="url(#a)">
<g transform="translate(139.08 536.2) scale(.1 -.1)">
<use xlink:href="#i"/>
<use x="61.279297" xlink:href="#q"/>
</g>
</g>
<g clip-path="url(#a)">
<defs>
<path id="af" d="m15.094 12.406h9.9062v-12.406h-9.9062zm0 60.5h9.9062v-31.984l-0.96875-17.438h-7.9219l-1.0156 17.438z"/>
</defs>
<g transform="translate(191.65 536.2) scale(.1 -.1)">
<use xlink:href="#af"/>
</g>
</g>
<g clip-path="url(#a)">
<defs>
<path id="am" d="m19.672 34.812v-26.703h15.828q7.9531 0 11.781 3.2969 3.8438 3.2969 3.8438 10.078 0 6.8438-3.8438 10.078-3.8281 3.25-11.781 3.25zm0 29.984v-21.969h14.609q7.2188 0 10.75 2.7031 3.5469 2.7188 3.5469 8.2812 0 5.5156-3.5469 8.25-3.5312 2.7344-10.75 2.7344zm-9.8594 8.1094h25.203q11.281 0 17.375-4.6875 6.1094-4.6875 6.1094-13.328 0-6.7031-3.125-10.656t-9.1875-4.9219q7.2812-1.5625 11.312-6.5312 4.0312-4.9531 4.0312-12.375 0-9.7656-6.6406-15.094-6.6406-5.3125-18.906-5.3125h-26.172z"/>
<path id="p" d="m44.281 53.078v-8.5q-3.7969 1.9531-7.9062 2.9219-4.0938 0.98438-8.5 0.98438-6.6875 0-10.031-2.0469t-3.3438-6.1562q0-3.125 2.3906-4.9062t9.625-3.3906l3.0781-0.6875q9.5625-2.0469 13.594-5.7812t4.0312-10.422q0-7.625-6.0312-12.078-6.0312-4.4375-16.578-4.4375-4.3906 0-9.1562 0.85938t-10.031 2.5625v9.2812q4.9844-2.5938 9.8125-3.8906 4.8281-1.2812 9.5781-1.2812 6.3438 0 9.75 2.1719 3.4219 2.1719 3.4219 6.125 0 3.6562-2.4688 5.6094-2.4531 1.9531-10.812 3.7656l-3.125 0.73438q-8.3438 1.75-12.062 5.3906-3.7031 3.6406-3.7031 9.9844 0 7.7188 5.4688 11.906 5.4688 4.2031 15.531 4.2031 4.9688 0 9.3594-0.73438 4.4062-0.71875 8.1094-2.1875z"/>
<path id="ag" d="m8.5 21.578v33.109h8.9844v-32.766q0-7.7656 3.0156-11.656 3.0312-3.875 9.0938-3.875 7.2656 0 11.484 4.6406 4.2344 4.6406 4.2344 12.656v31h8.9844v-54.688h-8.9844v8.4062q-3.2656-4.9844-7.5938-7.4062-4.3125-2.4219-10.031-2.4219-9.4219 0-14.312 5.8594-4.875 5.8594-4.875 17.141z"/>
<path id="z" d="m48.781 52.594v-8.4062q-3.8125 2.1094-7.6406 3.1562t-7.7344 1.0469q-8.75 0-13.594-5.5469-4.8281-5.5312-4.8281-15.547t4.8281-15.562q4.8438-5.5312 13.594-5.5312 3.9062 0 7.7344 1.0469t7.6406 3.1562v-8.3125q-3.7656-1.75-7.7969-2.625-4.0156-0.89062-8.5625-0.89062-12.359 0-19.641 7.7656-7.2656 7.7656-7.2656 20.953 0 13.375 7.3438 21.031 7.3594 7.6719 20.156 7.6719 4.1406 0 8.0938-0.85938 3.9531-0.84375 7.6719-2.5469z"/>
</defs>
<g transform="translate(223.79 536.2) scale(.1 -.1)">
<use xlink:href="#am"/>
<use x="68.603516" xlink:href="#d"/>
<use x="130.126953" xlink:href="#p"/>
<use x="182.226562" xlink:href="#ag"/>
<use x="245.605469" xlink:href="#z"/>
<use x="300.585938" xlink:href="#q"/>
</g>
</g>
<g clip-path="url(#a)">
<g transform="translate(277.01 536.2) scale(.1 -.1)">
<use xlink:href="#d"/>
<use x="61.523438" xlink:href="#h"/>
<use x="89.306641" xlink:href="#g"/>
<use x="152.685547" xlink:href="#d"/>
<use x="214.208984" xlink:href="#p"/>
</g>
</g>
<g clip-path="url(#a)">
<defs>
<path id="aj" d="m28.609 0-27.828 72.906h10.297l23.109-61.375 23.141 61.375h10.25l-27.781-72.906z"/>
</defs>
<g transform="translate(314.08 536.2) scale(.1 -.1)">
<use xlink:href="#aj"/>
<use x="68.298828" xlink:href="#d"/>
<use x="129.822266" xlink:href="#f"/>
<use x="170.904297" xlink:href="#d"/>
<use x="232.427734" xlink:href="#q"/>
<use x="295.806641" xlink:href="#f"/>
<use x="336.888672" xlink:href="#d"/>
<use x="398.412109" xlink:href="#f"/>
<use x="439.525391" xlink:href="#p"/>
</g>
</g>
<g clip-path="url(#a)">
<g transform="translate(384.99 536.2) scale(.1 -.1)">
<use xlink:href="#af"/>
</g>
</g>
<g clip-path="url(#a)">
<defs>
<path id="ao" d="m17.922 72.906v-27.109h-8.2969v27.109zm18.453 0v-27.109h-8.2969v27.109z"/>
</defs>
<g transform="translate(433.03 536.2) scale(.1 -.1)">
<use xlink:href="#ao"/>
</g>
</g>
<g clip-path="url(#a)">
<g transform="translate(482.08 536.2) scale(.1 -.1)">
<use xlink:href="#ae"/>
</g>
</g>
<g clip-path="url(#a)">
<defs>
<path id="ar" d="m37.109 75.984v-7.4844h-8.5938q-4.8281 0-6.7188-1.9531-1.875-1.9531-1.875-7.0312v-4.8281h14.797v-6.9844h-14.797v-47.703h-9.0312v47.703h-8.5938v6.9844h8.5938v3.8125q0 9.125 4.25 13.297 4.25 4.1875 13.469 4.1875z"/>
<path id="ah" d="m18.312 70.219v-15.531h18.5v-6.9844h-18.5v-29.688q0-6.6875 1.8281-8.5938t7.4531-1.9062h9.2188v-7.5156h-9.2188q-10.406 0-14.359 3.875-3.9531 3.8906-3.9531 14.141v29.688h-6.5938v6.9844h6.5938v15.531z"/>
</defs>
<g transform="translate(516.9 536.2) scale(.1 -.1)">
<use xlink:href="#ar"/>
<use x="35.205078" xlink:href="#f"/>
<use x="76.287109" xlink:href="#d"/>
<use x="137.810547" xlink:href="#ag"/>
<use x="201.189453" xlink:href="#ah"/>
<use x="240.398438" xlink:href="#d"/>
</g>
</g>
<g clip-path="url(#a)">
<g transform="translate(570.42 536.2) scale(.1 -.1)">
<use xlink:href="#p"/>
<use x="52.099609" xlink:href="#h"/>
<use x="79.882812" xlink:href="#z"/>
<use x="134.863281" xlink:href="#q"/>
</g>
</g>
<g clip-path="url(#a)">
<defs>
<path id="ai" d="m45.406 46.391v29.594h8.9844v-75.984h-8.9844v8.2031q-2.8281-4.875-7.1562-7.25-4.3125-2.375-10.375-2.375-9.9062 0-16.141 7.9062-6.2188 7.9219-6.2188 20.812t6.2188 20.797q6.2344 7.9062 16.141 7.9062 6.0625 0 10.375-2.375 4.3281-2.3594 7.1562-7.2344zm-30.609-19.094q0-9.9062 4.0781-15.547t11.203-5.6406 11.219 5.6406q4.1094 5.6406 4.1094 15.547t-4.1094 15.547q-4.0938 5.6406-11.219 5.6406t-11.203-5.6406-4.0781-15.547z"/>
</defs>
<g transform="translate(620.36 536.2) scale(.1 -.1)">
<use xlink:href="#ai"/>
<use x="63.476562" xlink:href="#d"/>
<use x="125" xlink:href="#f"/>
</g>
</g>
<g clip-path="url(#a)">
<g transform="translate(666.03 536.2) scale(.1 -.1)">
<use xlink:href="#ab"/>
<use x="63.183594" xlink:href="#h"/>
<use x="90.966797" xlink:href="#ah"/>
<use x="130.175781" xlink:href="#j"/>
<use x="157.958984" xlink:href="#d"/>
</g>
</g>
<g clip-path="url(#a)">
<g transform="translate(718.28 536.2) scale(.1 -.1)">
<use xlink:href="#i"/>
<use x="61.279297" xlink:href="#j"/>
<use x="89.0625" xlink:href="#p"/>
</g>
</g>
<g clip-path="url(#a)">
<g transform="translate(768.54 536.2) scale(.1 -.1)">
<use xlink:href="#d"/>
<use x="61.523438" xlink:href="#f"/>
</g>
</g>
<g clip-path="url(#a)">
<g transform="translate(812.59 536.2) scale(.1 -.1)">
<use xlink:href="#ai"/>
<use x="63.476562" xlink:href="#d"/>
<use x="125" xlink:href="#g"/>
</g>
</g>
<g clip-path="url(#a)">
<defs>
<path id="aq" d="m9.0781 75.984h9.0312v-44.875l26.812 23.578h11.469l-29-25.578 30.234-29.109h-11.719l-27.797 26.703v-26.703h-9.0312z"/>
</defs>
<g transform="translate(852.18 536.2) scale(.1 -.1)">
<use xlink:href="#aq"/>
<use x="57.910156" xlink:href="#j"/>
<use x="85.693359" xlink:href="#d"/>
<use x="147.216797" xlink:href="#h"/>
<use x="175" xlink:href="#g"/>
<use x="238.378906" xlink:href="#d"/>
<use x="299.902344" xlink:href="#g"/>
</g>
</g>
<g clip-path="url(#a)">
<defs>
<path id="ap" d="m5.5156 54.688h42.672v-8.2031l-33.781-39.312h33.781v-7.1719h-43.891v8.2031l33.797 39.312h-32.578z"/>
</defs>
<g transform="translate(900.19 536.2) scale(.1 -.1)">
<use xlink:href="#s"/>
<use x="60.287109" xlink:href="#f"/>
<use x="101.400391" xlink:href="#h"/>
<use x="129.183594" xlink:href="#g"/>
<use x="192.5625" xlink:href="#ap"/>
<use x="245.052734" xlink:href="#d"/>
<use x="306.576172" xlink:href="#g"/>
</g>
</g>
<g clip-path="url(#a)">
<g transform="translate(958.18 536.2) scale(.1 -.1)">
<use xlink:href="#p"/>
<use x="52.099609" xlink:href="#i"/>
<use x="113.378906" xlink:href="#q"/>
</g>
</g>
<g clip-path="url(#a)">
<defs>
<path id="e" d="m10.688 12.406h10.312v-12.406h-10.312z"/>
</defs>
<g transform="translate(1013.8 536.2) scale(.1 -.1)">
<use xlink:href="#e"/>
</g>
</g>
<g clip-path="url(#a)">
<defs>
<path id="c" d="m12.406 8.2969h16.109v55.625l-17.531-3.5156v8.9844l17.438 3.5156h9.8594v-64.609h16.109v-8.2969h-41.984z"/>
</defs>
<g transform="translate(685.39 29.32) scale(.1 -.1)">
<use xlink:href="#c"/>
<use x="63.623047" xlink:href="#e"/>
<use x="95.410156" xlink:href="#c"/>
</g>
</g>
<g clip-path="url(#a)">
<defs>
<path id="m" d="m19.188 8.2969h34.422v-8.2969h-46.281v8.2969q5.6094 5.8125 15.297 15.594 9.7031 9.7969 12.188 12.641 4.7344 5.3125 6.6094 9 1.8906 3.6875 1.8906 7.25 0 5.8125-4.0781 9.4688-4.0781 3.6719-10.625 3.6719-4.6406 0-9.7969-1.6094-5.1406-1.6094-11-4.8906v9.9688q5.9531 2.3906 11.125 3.6094 5.1875 1.2188 9.4844 1.2188 11.328 0 18.062-5.6719 6.7344-5.6562 6.7344-15.125 0-4.5-1.6875-8.5312-1.6719-4.0156-6.125-9.4844-1.2188-1.4219-7.7656-8.1875-6.5312-6.7656-18.453-18.922z"/>
</defs>
<g transform="translate(440.13 134.28) scale(.1 -.1)">
<use xlink:href="#c"/>
<use x="63.623047" xlink:href="#e"/>
<use x="95.410156" xlink:href="#m"/>
</g>
</g>
<g clip-path="url(#a)">
<defs>
<path id="r" d="m40.578 39.312q7.0781-1.5156 11.047-6.3125 3.9844-4.7812 3.9844-11.812 0-10.781-7.4219-16.703-7.4219-5.9062-21.094-5.9062-4.5781 0-9.4375 0.90625t-10.031 2.7188v9.5156q4.0938-2.3906 8.9688-3.6094 4.8906-1.2188 10.219-1.2188 9.2656 0 14.125 3.6562t4.8594 10.641q0 6.4531-4.5156 10.078-4.5156 3.6406-12.562 3.6406h-8.5v8.1094h8.8906q7.2656 0 11.125 2.9062t3.8594 8.375q0 5.6094-3.9844 8.6094-3.9688 3.0156-11.391 3.0156-4.0625 0-8.7031-0.89062-4.6406-0.875-10.203-2.7188v8.7812q5.625 1.5625 10.531 2.3438t9.25 0.78125q11.234 0 17.766-5.1094 6.5469-5.0938 6.5469-13.781 0-6.0625-3.4688-10.234t-9.8594-5.7812z"/>
</defs>
<g transform="translate(717.39 436.9) scale(.1 -.1)">
<use xlink:href="#c"/>
<use x="63.623047" xlink:href="#e"/>
<use x="95.410156" xlink:href="#r"/>
</g>
</g>
<g clip-path="url(#a)">
<defs>
<path id="x" d="m37.797 64.312-24.906-38.922h24.906zm-2.5938 8.5938h12.406v-47.516h10.406v-8.2031h-10.406v-17.188h-9.8125v17.188h-32.906v9.5156z"/>
</defs>
<g transform="translate(898.65 236.91) scale(.1 -.1)">
<use xlink:href="#c"/>
<use x="63.623047" xlink:href="#e"/>
<use x="95.410156" xlink:href="#x"/>
</g>
</g>
<g clip-path="url(#a)">
<defs>
<path id="ad" d="m33.016 40.375q-6.6406 0-10.531-4.5469-3.875-4.5312-3.875-12.438 0-7.8594 3.875-12.438 3.8906-4.5625 10.531-4.5625t10.516 4.5625q3.875 4.5781 3.875 12.438 0 7.9062-3.875 12.438-3.875 4.5469-10.516 4.5469zm19.578 30.922v-8.9844q-3.7188 1.75-7.5 2.6719-3.7812 0.9375-7.5 0.9375-9.7656 0-14.922-6.5938-5.1406-6.5938-5.875-19.922 2.875 4.25 7.2188 6.5156 4.3594 2.2656 9.5781 2.2656 10.984 0 17.359-6.6719 6.375-6.6562 6.375-18.125 0-11.234-6.6406-18.031-6.6406-6.7812-17.672-6.7812-12.656 0-19.344 9.6875-6.6875 9.7031-6.6875 28.109 0 17.281 8.2031 27.562t22.016 10.281q3.7188 0 7.5-0.73438t7.8906-2.1875z"/>
</defs>
<g transform="translate(765.72 436.9) scale(.1 -.1)">
<use xlink:href="#c"/>
<use x="63.623047" xlink:href="#e"/>
<use x="95.410156" xlink:href="#ad"/>
</g>
</g>
<g clip-path="url(#a)">
<defs>
<path id="ac" d="m8.2031 72.906h46.875v-4.2031l-26.469-68.703h-10.297l24.906 64.594h-35.016z"/>
</defs>
<g transform="translate(862.4 337.59) scale(.1 -.1)">
<use xlink:href="#c"/>
<use x="63.623047" xlink:href="#e"/>
<use x="95.410156" xlink:href="#ac"/>
</g>
</g>
<g clip-path="url(#a)">
<defs>
<path id="w" d="m31.781 34.625q-7.0312 0-11.062-3.7656-4.0156-3.7656-4.0156-10.344 0-6.5938 4.0156-10.359 4.0312-3.7656 11.062-3.7656t11.078 3.7812q4.0625 3.7969 4.0625 10.344 0 6.5781-4.0312 10.344-4.0156 3.7656-11.109 3.7656zm-9.8594 4.1875q-6.3438 1.5625-9.8906 5.9062-3.5312 4.3594-3.5312 10.609 0 8.7344 6.2188 13.812 6.2344 5.0781 17.062 5.0781 10.891 0 17.094-5.0781t6.2031-13.812q0-6.25-3.5469-10.609-3.5312-4.3438-9.8281-5.9062 7.125-1.6562 11.094-6.5 3.9844-4.8281 3.9844-11.797 0-10.609-6.4688-16.281-6.4688-5.6562-18.531-5.6562-12.047 0-18.531 5.6562-6.4688 5.6719-6.4688 16.281 0 6.9688 4 11.797 4.0156 4.8438 11.141 6.5zm-3.6094 15.578q0-5.6562 3.5312-8.8281 3.5469-3.1719 9.9375-3.1719 6.3594 0 9.9375 3.1719 3.5938 3.1719 3.5938 8.8281 0 5.6719-3.5938 8.8438-3.5781 3.1719-9.9375 3.1719-6.3906 0-9.9375-3.1719-3.5312-3.1719-3.5312-8.8438z"/>
</defs>
<g transform="translate(959.07 436.9) scale(.1 -.1)">
<use xlink:href="#c"/>
<use x="63.623047" xlink:href="#e"/>
<use x="95.410156" xlink:href="#w"/>
</g>
</g>
<g clip-path="url(#a)">
<defs>
<path id="v" d="m10.984 1.5156v8.9844q3.7188-1.7656 7.5156-2.6875 3.8125-0.92188 7.4844-0.92188 9.7656 0 14.906 6.5625 5.1562 6.5625 5.8906 19.953-2.8281-4.2031-7.1875-6.4531-4.3438-2.25-9.6094-2.25-10.938 0-17.312 6.6094-6.375 6.625-6.375 18.109 0 11.219 6.6406 18 6.6406 6.7969 17.672 6.7969 12.656 0 19.312-9.7031 6.6719-9.6875 6.6719-28.141 0-17.234-8.1875-27.516-8.1719-10.281-21.984-10.281-3.7188 0-7.5312 0.73438-3.7969 0.73438-7.9062 2.2031zm19.625 30.906q6.6406 0 10.516 4.5312 3.8906 4.5469 3.8906 12.469 0 7.8594-3.8906 12.422-3.875 4.5625-10.516 4.5625t-10.516-4.5625-3.875-12.422q0-7.9219 3.875-12.469 3.875-4.5312 10.516-4.5312z"/>
</defs>
<g transform="translate(814.06 436.9) scale(.1 -.1)">
<use xlink:href="#c"/>
<use x="63.623047" xlink:href="#e"/>
<use x="95.410156" xlink:href="#v"/>
</g>
</g>
<g clip-path="url(#a)">
<defs>
<path id="y" d="m31.781 66.406q-7.6094 0-11.453-7.5-3.8281-7.4844-3.8281-22.531 0-14.984 3.8281-22.484 3.8438-7.5 11.453-7.5 7.6719 0 11.5 7.5 3.8438 7.5 3.8438 22.484 0 15.047-3.8438 22.531-3.8281 7.5-11.5 7.5zm0 7.8125q12.266 0 18.734-9.7031 6.4688-9.6875 6.4688-28.141 0-18.406-6.4688-28.109-6.4688-9.6875-18.734-9.6875-12.25 0-18.719 9.6875-6.4688 9.7031-6.4688 28.109 0 18.453 6.4688 28.141 6.4688 9.7031 18.719 9.7031z"/>
</defs>
<g transform="translate(859.21 436.9) scale(.1 -.1)">
<use xlink:href="#c"/>
<use x="63.623047" xlink:href="#e"/>
<use x="95.410156" xlink:href="#c"/>
<use x="159.033203" xlink:href="#y"/>
</g>
</g>
<g clip-path="url(#a)">
<g transform="translate(907.55 436.9) scale(.1 -.1)">
<use xlink:href="#c"/>
<use x="63.623047" xlink:href="#e"/>
<use x="95.410156" xlink:href="#c"/>
<use x="159.033203" xlink:href="#c"/>
</g>
</g>
<g clip-path="url(#a)">
<g transform="translate(162.38 236.91) scale(.1 -.1)">
<use xlink:href="#c"/>
<use x="63.623047" xlink:href="#e"/>
<use x="95.410156" xlink:href="#c"/>
<use x="159.033203" xlink:href="#m"/>
</g>
</g>
<g clip-path="url(#a)">
<g transform="translate(545.03 436.9) scale(.1 -.1)">
<use xlink:href="#c"/>
<use x="63.623047" xlink:href="#e"/>
<use x="95.410156" xlink:href="#c"/>
<use x="159.033203" xlink:href="#r"/>
</g>
</g>
<g clip-path="url(#a)">
<g transform="translate(641.71 337.59) scale(.1 -.1)">
<use xlink:href="#c"/>
<use x="63.623047" xlink:href="#e"/>
<use x="95.410156" xlink:href="#c"/>
<use x="159.033203" xlink:href="#x"/>
</g>
</g>
<g clip-path="url(#a)">
<g transform="translate(617.54 436.9) scale(.1 -.1)">
<use xlink:href="#c"/>
<use x="63.623047" xlink:href="#e"/>
<use x="95.410156" xlink:href="#c"/>
<use x="159.033203" xlink:href="#w"/>
</g>
</g>
<g clip-path="url(#a)">
<g transform="translate(665.87 436.9) scale(.1 -.1)">
<use xlink:href="#c"/>
<use x="63.623047" xlink:href="#e"/>
<use x="95.410156" xlink:href="#c"/>
<use x="159.033203" xlink:href="#v"/>
</g>
</g>
<g clip-path="url(#a)">
<g transform="translate(37.514 436.9) scale(.1 -.1)">
<use xlink:href="#c"/>
<use x="63.623047" xlink:href="#e"/>
<use x="95.410156" xlink:href="#m"/>
<use x="159.033203" xlink:href="#y"/>
</g>
</g>
<g clip-path="url(#a)">
<g transform="translate(134.18 436.9) scale(.1 -.1)">
<use xlink:href="#c"/>
<use x="63.623047" xlink:href="#e"/>
<use x="95.410156" xlink:href="#m"/>
<use x="159.033203" xlink:href="#c"/>
</g>
</g>
<g clip-path="url(#a)">
<g transform="translate(230.86 436.9) scale(.1 -.1)">
<use xlink:href="#c"/>
<use x="63.623047" xlink:href="#e"/>
<use x="95.410156" xlink:href="#m"/>
<use x="159.033203" xlink:href="#m"/>
</g>
</g>
<g clip-path="url(#a)">
<g transform="translate(303.36 337.59) scale(.1 -.1)">
<use xlink:href="#c"/>
<use x="63.623047" xlink:href="#e"/>
<use x="95.410156" xlink:href="#m"/>
<use x="159.033203" xlink:href="#r"/>
</g>
</g>
<g clip-path="url(#a)">
<g transform="translate(85.849 436.9) scale(.1 -.1)">
<use xlink:href="#c"/>
<use x="63.623047" xlink:href="#e"/>
<use x="95.410156" xlink:href="#m"/>
<use x="159.033203" xlink:href="#x"/>
</g>
</g>
<g clip-path="url(#a)">
<defs>
<path id="an" d="m10.797 72.906h38.719v-8.3125h-29.688v-17.859q2.1406 0.73438 4.2812 1.0938 2.1562 0.35938 4.3125 0.35938 12.203 0 19.328-6.6875 7.1406-6.6875 7.1406-18.109 0-11.766-7.3281-18.297-7.3281-6.5156-20.656-6.5156-4.5938 0-9.3594 0.78125-4.75 0.78125-9.8281 2.3438v9.9219q4.3906-2.3906 9.0781-3.5625t9.9062-1.1719q8.4531 0 13.375 4.4375 4.9375 4.4375 4.9375 12.062 0 7.6094-4.9375 12.047-4.9219 4.4531-13.375 4.4531-3.9531 0-7.8906-0.875-3.9219-0.875-8.0156-2.7344z"/>
</defs>
<g transform="translate(182.52 436.9) scale(.1 -.1)">
<use xlink:href="#c"/>
<use x="63.623047" xlink:href="#e"/>
<use x="95.410156" xlink:href="#m"/>
<use x="159.033203" xlink:href="#an"/>
</g>
</g>
<g clip-path="url(#a)">
<g transform="translate(279.19 436.9) scale(.1 -.1)">
<use xlink:href="#c"/>
<use x="63.623047" xlink:href="#e"/>
<use x="95.410156" xlink:href="#m"/>
<use x="159.033203" xlink:href="#ad"/>
</g>
</g>
<g clip-path="url(#a)">
<g transform="translate(327.53 436.9) scale(.1 -.1)">
<use xlink:href="#c"/>
<use x="63.623047" xlink:href="#e"/>
<use x="95.410156" xlink:href="#m"/>
<use x="159.033203" xlink:href="#ac"/>
</g>
</g>
<g clip-path="url(#a)">
<g transform="translate(375.86 436.9) scale(.1 -.1)">
<use xlink:href="#c"/>
<use x="63.623047" xlink:href="#e"/>
<use x="95.410156" xlink:href="#m"/>
<use x="159.033203" xlink:href="#w"/>
</g>
</g>
<g clip-path="url(#a)">
<g transform="translate(424.2 436.9) scale(.1 -.1)">
<use xlink:href="#c"/>
<use x="63.623047" xlink:href="#e"/>
<use x="95.410156" xlink:href="#m"/>
<use x="159.033203" xlink:href="#v"/>
</g>
</g>
<g clip-path="url(#a)">
<g transform="translate(472.53 436.9) scale(.1 -.1)">
<use xlink:href="#c"/>
<use x="63.623047" xlink:href="#e"/>
<use x="95.410156" xlink:href="#r"/>
<use x="159.033203" xlink:href="#y"/>
</g>
</g>
<g clip-path="url(#a)">
<g transform="translate(1004.2 436.9) scale(.1 -.1)">
<use xlink:href="#c"/>
<use x="63.623047" xlink:href="#e"/>
<use x="95.410156" xlink:href="#r"/>
<use x="159.033203" xlink:href="#c"/>
</g>
</g>
<defs>
<clipPath id="a">
<rect width="1064" height="560"/>
</clipPath>
</defs>
</svg>
