<?xml version="1.0" encoding="UTF-8"?>
<!DOCTYPE svg  PUBLIC '-//W3C//DTD SVG 1.1//EN'  'http://www.w3.org/Graphics/SVG/1.1/DTD/svg11.dtd'>
<svg width="709.33pt" height="373.33pt" version="1.1" viewBox="0 0 709.33 373.33" xmlns="http://www.w3.org/2000/svg" xmlns:xlink="http://www.w3.org/1999/xlink">
<defs>
<style type="text/css">*{stroke-linecap:butt;stroke-linejoin:round;}</style>
</defs>
<path d="m0 373.33h709.33v-373.33h-709.33z" fill="#fff"/>
<g fill="none" stroke="#000">
<path d="m170.09 16.97v68.484" clip-path="url(#a)"/>
<path d="m170.09 85.454 507 68.311" clip-path="url(#a)"/>
<path d="m170.09 85.454 507 68.311" clip-path="url(#a)"/>
<path d="m170.09 85.454v68.311" clip-path="url(#a)"/>
<path d="m170.09 153.76-61.465 68.079" clip-path="url(#a)"/>
<path d="m170.09 153.76 277.84 68.079" clip-path="url(#a)"/>
<path d="m170.09 153.76-137.85 135.8" clip-path="url(#a)"/>
<path d="m170.09 153.76-121.86 135.8" clip-path="url(#a)"/>
<path d="m170.09 153.76 43.345 135.8" clip-path="url(#a)"/>
<path d="m108.63 221.84 62.175 67.724" clip-path="url(#a)"/>
<path d="m108.63 221.84 12.435 67.724" clip-path="url(#a)"/>
<path d="m108.63 221.84-12.435 67.724" clip-path="url(#a)"/>
<path d="m447.93 221.84 229.16 67.724" clip-path="url(#a)"/>
<path d="m447.93 221.84-186.53 67.724" clip-path="url(#a)"/>
<path d="m447.93 221.84-133.23 67.724" clip-path="url(#a)"/>
<path d="m447.93 221.84-74.611 67.724" clip-path="url(#a)"/>
<path d="m447.93 221.84-10.659 67.724" clip-path="url(#a)"/>
<path d="m447.93 221.84 58.623 67.724" clip-path="url(#a)"/>
<path d="m447.93 221.84 133.23 67.724" clip-path="url(#a)"/>
<path d="m447.93 221.84 213.17 67.724" clip-path="url(#a)"/>
<path d="m261.4 289.57v66.795" clip-path="url(#a)"/>
<path d="m314.7 289.57v66.795" clip-path="url(#a)"/>
<path d="m373.32 289.57v66.795" clip-path="url(#a)"/>
<path d="m121.06 289.57-51.517 66.795" clip-path="url(#a)"/>
<path d="m121.06 289.57 7.1058 66.795" clip-path="url(#a)"/>
<path d="m121.06 289.57 44.411 66.795" clip-path="url(#a)"/>
<path d="m96.194 289.57v66.795" clip-path="url(#a)"/>
<path d="m32.242 289.57v66.795" clip-path="url(#a)"/>
<path d="m48.23 289.57v66.795" clip-path="url(#a)"/>
<path d="m213.44 289.57v66.795" clip-path="url(#a)"/>
<path d="m437.27 289.57v66.795" clip-path="url(#a)"/>
<path d="m506.55 289.57v66.795" clip-path="url(#a)"/>
<path d="m581.16 289.57v66.795" clip-path="url(#a)"/>
<path d="m661.1 289.57v66.795" clip-path="url(#a)"/>
</g>
<path d="m163.82 48.204v6.0162q0 2.4 2.4 2.4h7.7425q2.4 0 2.4-2.4v-6.0162q0-2.4-2.4-2.4h-7.7425q-2.4 0-2.4 2.4z" clip-path="url(#a)" fill="#fff" stroke="#fff"/>
<g clip-path="url(#a)">
<defs>
<path id="u" d="m9.8125 72.906h9.8594v-29.891h35.844v29.891h9.8594v-72.906h-9.8594v34.719h-35.844v-34.719h-9.8594z"/>
</defs>
<g transform="translate(167.89 48.204) rotate(90) scale(.08 -.08)">
<use xlink:href="#u"/>
</g>
</g>
<path d="m420.36 125.5 4.7806 0.64412q2.3785 0.32047 2.699-2.058l1.0339-7.6732q0.32047-2.3785-2.058-2.699l-4.7806-0.64412q-2.3785-0.32047-2.699 2.058l-1.0339 7.6732q-0.32047 2.3785 2.058 2.699z" clip-path="url(#a)" fill="#fff" stroke="#fff"/>
<g clip-path="url(#a)">
<defs>
<path id="p" d="m19.672 64.797v-27.391h12.406q6.8906 0 10.641 3.5625 3.7656 3.5625 3.7656 10.156 0 6.5469-3.7656 10.109-3.75 3.5625-10.641 3.5625zm-9.8594 8.1094h22.266q12.266 0 18.531-5.5469 6.2812-5.5469 6.2812-16.234 0-10.797-6.2812-16.312-6.2656-5.5156-18.531-5.5156h-12.406v-29.297h-9.8594z"/>
</defs>
<g transform="translate(420.91 121.47) rotate(7.6736) scale(.08 -.08)">
<use xlink:href="#p"/>
</g>
</g>
<path d="m420.04 125.46 5.4235 0.73074q2.3785 0.32047 2.699-2.058l1.0339-7.6732q0.32047-2.3785-2.058-2.699l-5.4235-0.73074q-2.3785-0.32047-2.699 2.058l-1.0339 7.6732q-0.32047 2.3785 2.058 2.699z" clip-path="url(#a)" fill="#fff" stroke="#fff"/>
<g clip-path="url(#a)">
<defs>
<path id="q" d="m34.188 63.188-13.391-36.281h26.812zm-5.5781 9.7188h11.188l27.781-72.906h-10.25l-6.6406 18.703h-32.859l-6.6406-18.703h-10.406z"/>
</defs>
<g transform="translate(420.59 121.43) rotate(7.6736) scale(.08 -.08)">
<use xlink:href="#q"/>
</g>
</g>
<path d="m163.82 116.87v5.4725q0 2.4 2.4 2.4h7.7425q2.4 0 2.4-2.4v-5.4725q0-2.4-2.4-2.4h-7.7425q-2.4 0-2.4 2.4z" clip-path="url(#a)" fill="#fff" stroke="#fff"/>
<g clip-path="url(#a)">
<g transform="translate(167.89 116.87) rotate(90) scale(.08 -.08)">
<use xlink:href="#q"/>
</g>
</g>
<path d="m142 194.24 4.0317-4.4655q1.6083-1.7814-0.17308-3.3897l-5.7468-5.1885q-1.7814-1.6083-3.3897 0.17308l-4.0317 4.4655q-1.6083 1.7814 0.17308 3.3897l5.7468 5.1885q1.7814 1.6083 3.3897-0.17308z" clip-path="url(#a)" fill="#fff" stroke="#fff"/>
<g clip-path="url(#a)">
<g transform="translate(138.98 191.52) rotate(-47.923) scale(.08 -.08)">
<use xlink:href="#u"/>
</g>
</g>
<path d="m304.6 193.18 5.8434 1.4318q2.331 0.57119 2.9022-1.7599l1.8427-7.52q0.57119-2.331-1.7599-2.9022l-5.8434-1.4318q-2.331-0.57119-2.9022 1.7599l-1.8427 7.52q-0.57119 2.331 1.7599 2.9022z" clip-path="url(#a)" fill="#fff" stroke="#fff"/>
<g clip-path="url(#a)">
<g transform="translate(305.57 189.23) rotate(13.768) scale(.08 -.08)">
<use xlink:href="#u"/>
</g>
</g>
<path d="m103.48 228.19 4.171-4.109q1.7097-1.6843 0.025403-3.394l-5.4336-5.5156q-1.6843-1.7097-3.394-0.025403l-4.171 4.109q-1.7097 1.6843-0.025403 3.394l5.4336 5.5156q1.6843 1.7097 3.394 0.025402z" clip-path="url(#a)" fill="#fff" stroke="#fff"/>
<g clip-path="url(#a)">
<defs>
<path id="o" d="m8.6875 72.906h9.9219v-44.297q0-11.719 4.2344-16.875 4.25-5.1406 13.781-5.1406 9.4688 0 13.719 5.1406 4.25 5.1562 4.25 16.875v44.297h9.9062v-45.516q0-14.25-7.0625-21.531-7.0469-7.2812-20.812-7.2812-13.828 0-20.891 7.2812-7.0469 7.2812-7.0469 21.531z"/>
</defs>
<g transform="translate(100.63 225.29) rotate(-44.571) scale(.08 -.08)">
<use xlink:href="#o"/>
</g>
</g>
<path d="m111.87 228.03 3.9104-4.3577q1.6029-1.7863-0.18335-3.3892l-5.7625-5.171q-1.7863-1.6029-3.3892 0.18335l-3.9104 4.3577q-1.6029 1.7863 0.18335 3.3892l5.7625 5.171q1.7863 1.6029 3.3892-0.18335z" clip-path="url(#a)" fill="#fff" stroke="#fff"/>
<g clip-path="url(#a)">
<g transform="translate(108.85 225.32) rotate(-48.097) scale(.08 -.08)">
<use xlink:href="#o"/>
</g>
</g>
<path d="m184.9 220.78 1.7803 5.5778q0.72975 2.2864 3.0161 1.5566l7.3759-2.3542q2.2864-0.72975 1.5566-3.0161l-1.7803-5.5778q-0.72975-2.2864-3.0161-1.5566l-7.3759 2.3542q-2.2864 0.72975-1.5566 3.0161z" clip-path="url(#a)" fill="#fff" stroke="#fff"/>
<g clip-path="url(#a)">
<g transform="translate(188.77 219.55) rotate(72.298) scale(.08 -.08)">
<use xlink:href="#o"/>
</g>
</g>
<path d="m133.25 257.93 3.701 4.0313q1.6231 1.7679 3.391 0.14485l5.7034-5.2361q1.7679-1.6231 0.14485-3.391l-3.701-4.0313q-1.6231-1.7679-3.391-0.14485l-5.7034 5.2361q-1.7679 1.6231-0.14485 3.391z" clip-path="url(#a)" fill="#fff" stroke="#fff"/>
<g clip-path="url(#a)">
<g transform="translate(136.24 255.18) rotate(47.446) scale(.08 -.08)">
<use xlink:href="#q"/>
</g>
</g>
<path d="m108.24 254.47 0.87114 4.7444q0.43343 2.3605 2.794 1.9271l7.6152-1.3983q2.3605-0.43343 1.9271-2.794l-0.87114-4.7444q-0.43343-2.3605-2.794-1.9271l-7.6152 1.3983q-2.3605 0.43343-1.9271 2.794z" clip-path="url(#a)" fill="#fff" stroke="#fff"/>
<g clip-path="url(#a)">
<g transform="translate(112.24 253.73) rotate(79.596) scale(.08 -.08)">
<use xlink:href="#p"/>
</g>
</g>
<path d="m108.09 259.53 0.9883-5.3825q0.43343-2.3605-1.9271-2.794l-7.6152-1.3983q-2.3605-0.43343-2.794 1.9271l-0.9883 5.3825q-0.43343 2.3605 1.9271 2.794l7.6152 1.3983q2.3605 0.43343 2.794-1.9271z" clip-path="url(#a)" fill="#fff" stroke="#fff"/>
<g clip-path="url(#a)">
<g transform="translate(104.09 258.8) rotate(-79.596) scale(.08 -.08)">
<use xlink:href="#q"/>
</g>
</g>
<path d="m558.11 260.95 5.2481 1.551q2.3016 0.68019 2.9818-1.6214l2.1943-7.425q0.68019-2.3016-1.6214-2.9818l-5.2481-1.551q-2.3016-0.68019-2.9818 1.6214l-2.1943 7.425q-0.68019 2.3016 1.6214 2.9818z" clip-path="url(#a)" fill="#fff" stroke="#fff"/>
<g clip-path="url(#a)">
<g transform="translate(559.26 257.05) rotate(16.464) scale(.08 -.08)">
<use xlink:href="#q"/>
</g>
</g>
<path d="m354.54 262.42 4.5341-1.6463q2.2559-0.81908 1.4368-3.075l-2.6424-7.2776q-0.81908-2.2559-3.075-1.4368l-4.5341 1.6463q-2.2559 0.81908-1.4368 3.075l2.6424 7.2776q0.81908 2.2559 3.075 1.4368z" clip-path="url(#a)" fill="#fff" stroke="#fff"/>
<g clip-path="url(#a)">
<g transform="translate(353.15 258.6) rotate(-19.955) scale(.08 -.08)">
<use xlink:href="#p"/>
</g>
</g>
<path d="m381.72 262.54 4.8784-2.4798q2.1395-1.0875 1.0519-3.227l-3.5084-6.902q-1.0875-2.1395-3.227-1.0519l-4.8784 2.4798q-2.1395 1.0875-1.0519 3.227l3.5084 6.902q1.0875 2.1395 3.227 1.0519z" clip-path="url(#a)" fill="#fff" stroke="#fff"/>
<g clip-path="url(#a)">
<g transform="translate(379.87 258.91) rotate(-26.945) scale(.08 -.08)">
<use xlink:href="#q"/>
</g>
</g>
<path d="m412.56 262.42 4.5612-4.1402q1.7771-1.6131 0.16402-3.3901l-5.2038-5.7329q-1.6131-1.7771-3.3901-0.16402l-4.5612 4.1402q-1.7771 1.6131-0.16402 3.3901l5.2038 5.7329q1.6131 1.7771 3.3901 0.16402z" clip-path="url(#a)" fill="#fff" stroke="#fff"/>
<g clip-path="url(#a)">
<defs>
<path id="ah" d="m19.672 64.797v-56.688h11.922q15.094 0 22.094 6.8281 7 6.8438 7 21.594 0 14.641-7 21.453t-22.094 6.8125zm-9.8594 8.1094h20.266q21.188 0 31.094-8.8125 9.9219-8.8125 9.9219-27.562 0-18.859-9.9688-27.703-9.9531-8.8281-31.047-8.8281h-20.266z"/>
</defs>
<g transform="translate(409.83 259.41) rotate(-42.23) scale(.08 -.08)">
<use xlink:href="#ah"/>
</g>
</g>
<path d="m448.34 259.57 0.91027-5.7838q0.37313-2.3708-1.9977-2.7439l-7.6484-1.2037q-2.3708-0.37313-2.7439 1.9977l-0.91027 5.7838q-0.37313 2.3708 1.9977 2.7439l7.6484 1.2037q2.3708 0.37313 2.7439-1.9977z" clip-path="url(#a)" fill="#fff" stroke="#fff"/>
<g clip-path="url(#a)">
<g transform="translate(444.33 258.94) rotate(-81.056) scale(.08 -.08)">
<use xlink:href="#o"/>
</g>
</g>
<path d="m470.58 257.6 3.8319 4.4269q1.5707 1.8146 3.3853 0.24387l5.854-5.0673q1.8146-1.5707 0.24387-3.3853l-3.8319-4.4269q-1.5707-1.8146-3.3853-0.24387l-5.854 5.0673q-1.8146 1.5707-0.24387 3.3853z" clip-path="url(#a)" fill="#fff" stroke="#fff"/>
<g clip-path="url(#a)">
<g transform="translate(473.66 254.94) rotate(49.12) scale(.08 -.08)">
<use xlink:href="#o"/>
</g>
</g>
<path d="m509.1 259.97 5.2194 2.6531q2.1395 1.0875 3.227-1.0519l3.5084-6.902q1.0875-2.1395-1.0519-3.227l-5.2194-2.6531q-2.1395-1.0875-3.227 1.0519l-3.5084 6.902q-1.0875 2.1395 1.0519 3.227z" clip-path="url(#a)" fill="#fff" stroke="#fff"/>
<g clip-path="url(#a)">
<g transform="translate(510.94 256.35) rotate(26.945) scale(.08 -.08)">
<use xlink:href="#o"/>
</g>
</g>
<path d="m549.83 260.8 5.5802 1.7728q2.2873 0.72668 3.014-1.5607l2.3443-7.3791q0.72668-2.2873-1.5607-3.014l-5.5802-1.7728q-2.2873-0.72668-3.014 1.5607l-2.3443 7.3791q-0.72668 2.2873 1.5607 3.014z" clip-path="url(#a)" fill="#fff" stroke="#fff"/>
<g clip-path="url(#a)">
<g transform="translate(551.06 256.92) rotate(17.625) scale(.08 -.08)">
<use xlink:href="#o"/>
</g>
</g>
<path d="m255.13 306.06v33.808q0 2.4 2.4 2.4h7.7425q2.4 0 2.4-2.4v-33.808q0-2.4-2.4-2.4h-7.7425q-2.4 0-2.4 2.4z" clip-path="url(#a)" fill="#fff" stroke="#fff"/>
<g clip-path="url(#a)">
<defs>
<path id="e" d="m-0.29688 72.906h61.672v-8.3125h-25.875v-64.594h-9.9062v64.594h-25.891z"/>
<path id="d" d="m56.203 29.594v-4.3906h-41.312q0.59375-9.2812 5.5938-14.141t13.938-4.8594q5.1719 0 10.031 1.2656t9.6562 3.8125v-8.5q-4.8438-2.0469-9.9219-3.125t-10.297-1.0781q-13.094 0-20.734 7.6094-7.6406 7.625-7.6406 20.625 0 13.422 7.25 21.297 7.25 7.8906 19.562 7.8906 11.031 0 17.453-7.1094 6.4219-7.0938 6.4219-19.297zm-8.9844 2.6406q-0.09375 7.3594-4.125 11.75-4.0312 4.4062-10.672 4.4062-7.5156 0-12.031-4.25t-5.2031-11.969z"/>
<path id="g" d="m41.109 46.297q-1.5156 0.875-3.2969 1.2812-1.7812 0.42188-3.9219 0.42188-7.625 0-11.703-4.9531t-4.0781-14.234v-28.812h-9.0312v54.688h9.0312v-8.5q2.8438 4.9844 7.375 7.3906 4.5469 2.4219 11.047 2.4219 0.92188 0 2.0469-0.125 1.125-0.10938 2.4844-0.35938z"/>
<path id="h" d="m52 44.188q3.375 6.0625 8.0625 8.9375t11.031 2.875q8.5469 0 13.188-5.9844 4.6406-5.9688 4.6406-17v-33.016h-9.0312v32.719q0 7.8594-2.7969 11.656-2.7812 3.8125-8.4844 3.8125-6.9844 0-11.047-4.6406-4.0469-4.625-4.0469-12.641v-30.906h-9.0312v32.719q0 7.9062-2.7812 11.688t-8.5938 3.7812q-6.8906 0-10.953-4.6562-4.0469-4.6562-4.0469-12.625v-30.906h-9.0312v54.688h9.0312v-8.5q3.0781 5.0312 7.375 7.4219t10.203 2.3906q5.9688 0 10.141-3.0312 4.1719-3.0156 6.1719-8.7812z"/>
<path id="k" d="m9.4219 54.688h8.9844v-54.688h-8.9844zm0 21.297h8.9844v-11.391h-8.9844z"/>
<path id="i" d="m54.891 33.016v-33.016h-8.9844v32.719q0 7.7656-3.0312 11.609-3.0312 3.8594-9.0781 3.8594-7.2812 0-11.484-4.6406-4.2031-4.625-4.2031-12.641v-30.906h-9.0312v54.688h9.0312v-8.5q3.2344 4.9375 7.5938 7.375 4.375 2.4375 10.094 2.4375 9.4219 0 14.25-5.8281 4.8438-5.8281 4.8438-17.156z"/>
<path id="l" d="m34.281 27.484q-10.891 0-15.094-2.4844t-4.2031-8.5q0-4.7812 3.1562-7.5938 3.1562-2.7969 8.5625-2.7969 7.4844 0 12 5.2969t4.5156 14.078v2zm17.922 3.7188v-31.203h-8.9844v8.2969q-3.0781-4.9688-7.6719-7.3438t-11.234-2.375q-8.3906 0-13.359 4.7188-4.9531 4.7188-4.9531 12.625 0 9.2188 6.1719 13.906 6.1875 4.6875 18.438 4.6875h12.609v0.89062q0 6.2031-4.0781 9.5938t-11.453 3.3906q-4.6875 0-9.1406-1.125-4.4375-1.125-8.5312-3.375v8.3125q4.9219 1.9062 9.5625 2.8438 4.6406 0.95312 9.0312 0.95312 11.875 0 17.734-6.1562 5.8594-6.1406 5.8594-18.641z"/>
<path id="j" d="m9.4219 75.984h8.9844v-75.984h-8.9844z"/>
</defs>
<g transform="translate(259.2 306.06) rotate(90) scale(.08 -.08)">
<use xlink:href="#e"/>
<use x="44.083984" xlink:href="#d"/>
<use x="105.607422" xlink:href="#g"/>
<use x="144.970703" xlink:href="#h"/>
<use x="242.382812" xlink:href="#k"/>
<use x="270.166016" xlink:href="#i"/>
<use x="333.544922" xlink:href="#l"/>
<use x="394.824219" xlink:href="#j"/>
</g>
</g>
<path d="m308.43 306.06v33.808q0 2.4 2.4 2.4h7.7425q2.4 0 2.4-2.4v-33.808q0-2.4-2.4-2.4h-7.7425q-2.4 0-2.4 2.4z" clip-path="url(#a)" fill="#fff" stroke="#fff"/>
<g clip-path="url(#a)">
<g transform="translate(312.49 306.06) rotate(90) scale(.08 -.08)">
<use xlink:href="#e"/>
<use x="44.083984" xlink:href="#d"/>
<use x="105.607422" xlink:href="#g"/>
<use x="144.970703" xlink:href="#h"/>
<use x="242.382812" xlink:href="#k"/>
<use x="270.166016" xlink:href="#i"/>
<use x="333.544922" xlink:href="#l"/>
<use x="394.824219" xlink:href="#j"/>
</g>
</g>
<path d="m367.05 306.06v33.808q0 2.4 2.4 2.4h7.7425q2.4 0 2.4-2.4v-33.808q0-2.4-2.4-2.4h-7.7425q-2.4 0-2.4 2.4z" clip-path="url(#a)" fill="#fff" stroke="#fff"/>
<g clip-path="url(#a)">
<g transform="translate(371.11 306.06) rotate(90) scale(.08 -.08)">
<use xlink:href="#e"/>
<use x="44.083984" xlink:href="#d"/>
<use x="105.607422" xlink:href="#g"/>
<use x="144.970703" xlink:href="#h"/>
<use x="242.382812" xlink:href="#k"/>
<use x="270.166016" xlink:href="#i"/>
<use x="333.544922" xlink:href="#l"/>
<use x="394.824219" xlink:href="#j"/>
</g>
</g>
<path d="m89.948 340.18 20.647-26.77q1.4657-1.9004-0.43469-3.3662l-6.1309-4.7285q-1.9004-1.4657-3.3662 0.43469l-20.647 26.77q-1.4657 1.9004 0.43469 3.3662l6.1309 4.7285q1.9004 1.4657 3.3662-0.43469z" clip-path="url(#a)" fill="#fff" stroke="#fff"/>
<g clip-path="url(#a)">
<g transform="translate(86.731 337.7) rotate(-52.358) scale(.08 -.08)">
<use xlink:href="#e"/>
<use x="44.083984" xlink:href="#d"/>
<use x="105.607422" xlink:href="#g"/>
<use x="144.970703" xlink:href="#h"/>
<use x="242.382812" xlink:href="#k"/>
<use x="270.166016" xlink:href="#i"/>
<use x="333.544922" xlink:href="#l"/>
<use x="394.824219" xlink:href="#j"/>
</g>
</g>
<path d="m116.59 306.82 3.5763 33.618q0.25388 2.3865 2.6404 2.1327l7.6991-0.81904q2.3865-0.25388 2.1326-2.6404l-3.5763-33.618q-0.25388-2.3865-2.6404-2.1326l-7.6991 0.81904q-2.3865 0.25388-2.1326 2.6404z" clip-path="url(#a)" fill="#fff" stroke="#fff"/>
<g clip-path="url(#a)">
<g transform="translate(120.63 306.39) rotate(83.928) scale(.08 -.08)">
<use xlink:href="#e"/>
<use x="44.083984" xlink:href="#d"/>
<use x="105.607422" xlink:href="#g"/>
<use x="144.970703" xlink:href="#h"/>
<use x="242.382812" xlink:href="#k"/>
<use x="270.166016" xlink:href="#i"/>
<use x="333.544922" xlink:href="#l"/>
<use x="394.824219" xlink:href="#j"/>
</g>
</g>
<path d="m128.69 312.36 18.718 28.153q1.3288 1.9986 3.3274 0.66975l6.4474-4.2868q1.9986-1.3288 0.66975-3.3274l-18.718-28.153q-1.3288-1.9986-3.3274-0.66975l-6.4474 4.2868q-1.9986 1.3288-0.66975 3.3274z" clip-path="url(#a)" fill="#fff" stroke="#fff"/>
<g clip-path="url(#a)">
<g transform="translate(132.07 310.11) rotate(56.381) scale(.08 -.08)">
<use xlink:href="#e"/>
<use x="44.083984" xlink:href="#d"/>
<use x="105.607422" xlink:href="#g"/>
<use x="144.970703" xlink:href="#h"/>
<use x="242.382812" xlink:href="#k"/>
<use x="270.166016" xlink:href="#i"/>
<use x="333.544922" xlink:href="#l"/>
<use x="394.824219" xlink:href="#j"/>
</g>
</g>
<path d="m89.923 306.06v33.808q0 2.4 2.4 2.4h7.7425q2.4 0 2.4-2.4v-33.808q0-2.4-2.4-2.4h-7.7425q-2.4 0-2.4 2.4z" clip-path="url(#a)" fill="#fff" stroke="#fff"/>
<g clip-path="url(#a)">
<g transform="translate(93.987 306.06) rotate(90) scale(.08 -.08)">
<use xlink:href="#e"/>
<use x="44.083984" xlink:href="#d"/>
<use x="105.607422" xlink:href="#g"/>
<use x="144.970703" xlink:href="#h"/>
<use x="242.382812" xlink:href="#k"/>
<use x="270.166016" xlink:href="#i"/>
<use x="333.544922" xlink:href="#l"/>
<use x="394.824219" xlink:href="#j"/>
</g>
</g>
<path d="m25.971 306.06v33.808q0 2.4 2.4 2.4h7.7425q2.4 0 2.4-2.4v-33.808q0-2.4-2.4-2.4h-7.7425q-2.4 0-2.4 2.4z" clip-path="url(#a)" fill="#fff" stroke="#fff"/>
<g clip-path="url(#a)">
<g transform="translate(30.035 306.06) rotate(90) scale(.08 -.08)">
<use xlink:href="#e"/>
<use x="44.083984" xlink:href="#d"/>
<use x="105.607422" xlink:href="#g"/>
<use x="144.970703" xlink:href="#h"/>
<use x="242.382812" xlink:href="#k"/>
<use x="270.166016" xlink:href="#i"/>
<use x="333.544922" xlink:href="#l"/>
<use x="394.824219" xlink:href="#j"/>
</g>
</g>
<path d="m41.959 306.06v33.808q0 2.4 2.4 2.4h7.7425q2.4 0 2.4-2.4v-33.808q0-2.4-2.4-2.4h-7.7425q-2.4 0-2.4 2.4z" clip-path="url(#a)" fill="#fff" stroke="#fff"/>
<g clip-path="url(#a)">
<g transform="translate(46.023 306.06) rotate(90) scale(.08 -.08)">
<use xlink:href="#e"/>
<use x="44.083984" xlink:href="#d"/>
<use x="105.607422" xlink:href="#g"/>
<use x="144.970703" xlink:href="#h"/>
<use x="242.382812" xlink:href="#k"/>
<use x="270.166016" xlink:href="#i"/>
<use x="333.544922" xlink:href="#l"/>
<use x="394.824219" xlink:href="#j"/>
</g>
</g>
<path d="m207.17 306.06v33.808q0 2.4 2.4 2.4h7.7425q2.4 0 2.4-2.4v-33.808q0-2.4-2.4-2.4h-7.7425q-2.4 0-2.4 2.4z" clip-path="url(#a)" fill="#fff" stroke="#fff"/>
<g clip-path="url(#a)">
<g transform="translate(211.23 306.06) rotate(90) scale(.08 -.08)">
<use xlink:href="#e"/>
<use x="44.083984" xlink:href="#d"/>
<use x="105.607422" xlink:href="#g"/>
<use x="144.970703" xlink:href="#h"/>
<use x="242.382812" xlink:href="#k"/>
<use x="270.166016" xlink:href="#i"/>
<use x="333.544922" xlink:href="#l"/>
<use x="394.824219" xlink:href="#j"/>
</g>
</g>
<path d="m431 306.06v33.808q0 2.4 2.4 2.4h7.7425q2.4 0 2.4-2.4v-33.808q0-2.4-2.4-2.4h-7.7425q-2.4 0-2.4 2.4z" clip-path="url(#a)" fill="#fff" stroke="#fff"/>
<g clip-path="url(#a)">
<g transform="translate(435.06 306.06) rotate(90) scale(.08 -.08)">
<use xlink:href="#e"/>
<use x="44.083984" xlink:href="#d"/>
<use x="105.607422" xlink:href="#g"/>
<use x="144.970703" xlink:href="#h"/>
<use x="242.382812" xlink:href="#k"/>
<use x="270.166016" xlink:href="#i"/>
<use x="333.544922" xlink:href="#l"/>
<use x="394.824219" xlink:href="#j"/>
</g>
</g>
<path d="m500.28 306.06v33.808q0 2.4 2.4 2.4h7.7425q2.4 0 2.4-2.4v-33.808q0-2.4-2.4-2.4h-7.7425q-2.4 0-2.4 2.4z" clip-path="url(#a)" fill="#fff" stroke="#fff"/>
<g clip-path="url(#a)">
<g transform="translate(504.34 306.06) rotate(90) scale(.08 -.08)">
<use xlink:href="#e"/>
<use x="44.083984" xlink:href="#d"/>
<use x="105.607422" xlink:href="#g"/>
<use x="144.970703" xlink:href="#h"/>
<use x="242.382812" xlink:href="#k"/>
<use x="270.166016" xlink:href="#i"/>
<use x="333.544922" xlink:href="#l"/>
<use x="394.824219" xlink:href="#j"/>
</g>
</g>
<path d="m574.89 306.06v33.808q0 2.4 2.4 2.4h7.7425q2.4 0 2.4-2.4v-33.808q0-2.4-2.4-2.4h-7.7425q-2.4 0-2.4 2.4z" clip-path="url(#a)" fill="#fff" stroke="#fff"/>
<g clip-path="url(#a)">
<g transform="translate(578.96 306.06) rotate(90) scale(.08 -.08)">
<use xlink:href="#e"/>
<use x="44.083984" xlink:href="#d"/>
<use x="105.607422" xlink:href="#g"/>
<use x="144.970703" xlink:href="#h"/>
<use x="242.382812" xlink:href="#k"/>
<use x="270.166016" xlink:href="#i"/>
<use x="333.544922" xlink:href="#l"/>
<use x="394.824219" xlink:href="#j"/>
</g>
</g>
<path d="m654.83 306.06v33.808q0 2.4 2.4 2.4h7.7425q2.4 0 2.4-2.4v-33.808q0-2.4-2.4-2.4h-7.7425q-2.4 0-2.4 2.4z" clip-path="url(#a)" fill="#fff" stroke="#fff"/>
<g clip-path="url(#a)">
<g transform="translate(658.9 306.06) rotate(90) scale(.08 -.08)">
<use xlink:href="#e"/>
<use x="44.083984" xlink:href="#d"/>
<use x="105.607422" xlink:href="#g"/>
<use x="144.970703" xlink:href="#h"/>
<use x="242.382812" xlink:href="#k"/>
<use x="270.166016" xlink:href="#i"/>
<use x="333.544922" xlink:href="#l"/>
<use x="394.824219" xlink:href="#j"/>
</g>
</g>
<defs>
<path id="b" d="m0 8.6603c2.2967 0 4.4997-0.9125 6.1237-2.5365 1.624-1.624 2.5365-3.827 2.5365-6.1237s-0.9125-4.4997-2.5365-6.1237c-1.624-1.624-3.827-2.5365-6.1237-2.5365s-4.4997 0.9125-6.1237 2.5365c-1.624 1.624-2.5365 3.827-2.5365 6.1237s0.9125 4.4997 2.5365 6.1237c1.624 1.624 3.827 2.5365 6.1237 2.5365z"/>
</defs>
<g clip-path="url(#a)" fill="#ffffff" stroke="#ffffff">
<use x="32.242424" y="356.363636" xlink:href="#b"/>
<use x="48.230403" y="356.363636" xlink:href="#b"/>
<use x="69.547708" y="356.363636" xlink:href="#b"/>
<use x="96.19434" y="356.363636" xlink:href="#b"/>
<use x="128.170298" y="356.363636" xlink:href="#b"/>
<use x="165.475582" y="356.363636" xlink:href="#b"/>
<use x="213.439519" y="356.363636" xlink:href="#b"/>
<use x="261.403456" y="356.363636" xlink:href="#b"/>
<use x="314.696719" y="356.363636" xlink:href="#b"/>
<use x="373.319309" y="356.363636" xlink:href="#b"/>
<use x="437.271225" y="356.363636" xlink:href="#b"/>
<use x="506.552467" y="356.363636" xlink:href="#b"/>
<use x="581.163035" y="356.363636" xlink:href="#b"/>
<use x="661.10293" y="356.363636" xlink:href="#b"/>
<use x="677.090909" y="153.764847" xlink:href="#b"/>
<use x="677.090909" y="153.764847" xlink:href="#b"/>
<use x="677.090909" y="289.568571" xlink:href="#b"/>
<use x="170.804909" y="289.568571" xlink:href="#b"/>
<use x="170.094332" y="16.969697" xlink:href="#b"/>
<use x="170.094332" y="85.453678" xlink:href="#b"/>
<use x="170.094332" y="153.764847" xlink:href="#b"/>
<use x="108.629435" y="221.844313" xlink:href="#b"/>
<use x="447.929877" y="221.844313" xlink:href="#b"/>
<use x="261.403456" y="289.568571" xlink:href="#b"/>
<use x="314.696719" y="289.568571" xlink:href="#b"/>
<use x="373.319309" y="289.568571" xlink:href="#b"/>
<use x="121.06453" y="289.568571" xlink:href="#b"/>
<use x="96.19434" y="289.568571" xlink:href="#b"/>
<use x="32.242424" y="289.568571" xlink:href="#b"/>
<use x="48.230403" y="289.568571" xlink:href="#b"/>
<use x="213.439519" y="289.568571" xlink:href="#b"/>
<use x="437.271225" y="289.568571" xlink:href="#b"/>
<use x="506.552467" y="289.568571" xlink:href="#b"/>
<use x="581.163035" y="289.568571" xlink:href="#b"/>
<use x="661.10293" y="289.568571" xlink:href="#b"/>
</g>
<g clip-path="url(#a)">
<defs>
<path id="aa" d="m4.8906 31.391h26.312v-8h-26.312z"/>
</defs>
<g transform="translate(30.439 359.12) scale(.1 -.1)">
<use xlink:href="#aa"/>
</g>
</g>
<g clip-path="url(#a)">
<defs>
<path id="v" d="m17.922 72.906v-27.109h-8.2969v27.109zm18.453 0v-27.109h-8.2969v27.109z"/>
</defs>
<g transform="translate(45.93 359.12) scale(.1 -.1)">
<use xlink:href="#v"/>
</g>
</g>
<g clip-path="url(#a)">
<defs>
<path id="an" d="m8.5 21.578v33.109h8.9844v-32.766q0-7.7656 3.0156-11.656 3.0312-3.875 9.0938-3.875 7.2656 0 11.484 4.6406 4.2344 4.6406 4.2344 12.656v31h8.9844v-54.688h-8.9844v8.4062q-3.2656-4.9844-7.5938-7.4062-4.3125-2.4219-10.031-2.4219-9.4219 0-14.312 5.8594-4.875 5.8594-4.875 17.141z"/>
</defs>
<g transform="translate(61.005 359.12) scale(.1 -.1)">
<use xlink:href="#e"/>
<use x="45.958984" xlink:href="#an"/>
<use x="109.337891" xlink:href="#d"/>
</g>
</g>
<g clip-path="url(#a)">
<g transform="translate(87.879 359.12) scale(.1 -.1)">
<use xlink:href="#h"/>
<use x="97.412109" xlink:href="#k"/>
<use x="125.195312" xlink:href="#g"/>
</g>
</g>
<g clip-path="url(#a)">
<defs>
<path id="ad" d="m45.406 46.391v29.594h8.9844v-75.984h-8.9844v8.2031q-2.8281-4.875-7.1562-7.25-4.3125-2.375-10.375-2.375-9.9062 0-16.141 7.9062-6.2188 7.9219-6.2188 20.812t6.2188 20.797q6.2344 7.9062 16.141 7.9062 6.0625 0 10.375-2.375 4.3281-2.3594 7.1562-7.2344zm-30.609-19.094q0-9.9062 4.0781-15.547t11.203-5.6406 11.219 5.6406q4.1094 5.6406 4.1094 15.547t-4.1094 15.547q-4.0938 5.6406-11.219 5.6406t-11.203-5.6406-4.0781-15.547z"/>
</defs>
<g transform="translate(118.75 359.12) scale(.1 -.1)">
<use xlink:href="#ad"/>
<use x="63.476562" xlink:href="#d"/>
<use x="125" xlink:href="#i"/>
</g>
</g>
<g clip-path="url(#a)">
<defs>
<path id="ag" d="m59.516 10.406v19.578h-16.109v8.1094h25.875v-31.312q-5.7031-4.0469-12.594-6.125-6.875-2.0781-14.688-2.0781-17.094 0-26.75 9.9844-9.6406 10-9.6406 27.812 0 17.875 9.6406 27.859 9.6562 9.9844 26.75 9.9844 7.125 0 13.547-1.7656 6.4219-1.75 11.844-5.1719v-10.5q-5.4688 4.6406-11.625 6.9844t-12.938 2.3438q-13.391 0-20.109-7.4688-6.7031-7.4688-6.7031-22.266 0-14.75 6.7031-22.219 6.7188-7.4688 20.109-7.4688 5.2188 0 9.3125 0.90625 4.1094 0.90625 7.375 2.8125z"/>
<path id="ap" d="m37.109 75.984v-7.4844h-8.5938q-4.8281 0-6.7188-1.9531-1.875-1.9531-1.875-7.0312v-4.8281h14.797v-6.9844h-14.797v-47.703h-9.0312v47.703h-8.5938v6.9844h8.5938v3.8125q0 9.125 4.25 13.297 4.25 4.1875 13.469 4.1875z"/>
</defs>
<g transform="translate(144.68 359.12) scale(.1 -.1)">
<use xlink:href="#ag"/>
<use x="77.490234" xlink:href="#d"/>
<use x="139.013672" xlink:href="#ap"/>
<use x="174.21875" xlink:href="#l"/>
<use x="235.498047" xlink:href="#j"/>
<use x="263.28125" xlink:href="#j"/>
<use x="291.064453" xlink:href="#d"/>
<use x="352.587891" xlink:href="#i"/>
</g>
</g>
<g clip-path="url(#a)">
<defs>
<path id="f" d="m10.688 12.406h10.312v-12.406h-10.312z"/>
</defs>
<g transform="translate(211.85 359.12) scale(.1 -.1)">
<use xlink:href="#f"/>
</g>
</g>
<g clip-path="url(#a)">
<defs>
<path id="af" d="m28.609 0-27.828 72.906h10.297l23.109-61.375 23.141 61.375h10.25l-27.781-72.906z"/>
<path id="ac" d="m54.891 33.016v-33.016h-8.9844v32.719q0 7.7656-3.0312 11.609-3.0312 3.8594-9.0781 3.8594-7.2812 0-11.484-4.6406-4.2031-4.625-4.2031-12.641v-30.906h-9.0312v75.984h9.0312v-29.797q3.2344 4.9375 7.5938 7.375 4.375 2.4375 10.094 2.4375 9.4219 0 14.25-5.8281 4.8438-5.8281 4.8438-17.156z"/>
</defs>
<g transform="translate(242.09 359.12) scale(.1 -.1)">
<use xlink:href="#af"/>
<use x="60.658203" xlink:href="#d"/>
<use x="122.181641" xlink:href="#g"/>
<use x="161.044922" xlink:href="#d"/>
<use x="222.568359" xlink:href="#ac"/>
<use x="285.947266" xlink:href="#g"/>
<use x="324.810547" xlink:href="#d"/>
</g>
</g>
<g clip-path="url(#a)">
<defs>
<path id="ae" d="m48.781 52.594v-8.4062q-3.8125 2.1094-7.6406 3.1562t-7.7344 1.0469q-8.75 0-13.594-5.5469-4.8281-5.5312-4.8281-15.547t4.8281-15.562q4.8438-5.5312 13.594-5.5312 3.9062 0 7.7344 1.0469t7.6406 3.1562v-8.3125q-3.7656-1.75-7.7969-2.625-4.0156-0.89062-8.5625-0.89062-12.359 0-19.641 7.7656-7.2656 7.7656-7.2656 20.953 0 13.375 7.3438 21.031 7.3594 7.6719 20.156 7.6719 4.1406 0 8.0938-0.85938 3.9531-0.84375 7.6719-2.5469z"/>
</defs>
<g transform="translate(302.52 359.12) scale(.1 -.1)">
<use xlink:href="#h"/>
<use x="97.412109" xlink:href="#k"/>
<use x="125.195312" xlink:href="#ae"/>
<use x="180.175781" xlink:href="#ac"/>
</g>
</g>
<g clip-path="url(#a)">
<defs>
<path id="ab" d="m18.312 70.219v-15.531h18.5v-6.9844h-18.5v-29.688q0-6.6875 1.8281-8.5938t7.4531-1.9062h9.2188v-7.5156h-9.2188q-10.406 0-14.359 3.875-3.9531 3.8906-3.9531 14.141v29.688h-6.5938v6.9844h6.5938v15.531z"/>
<path id="ao" d="m30.609 48.391q-7.2188 0-11.422-5.6406t-4.2031-15.453 4.1719-15.453q4.1875-5.6406 11.453-5.6406 7.1875 0 11.375 5.6562 4.2031 5.6719 4.2031 15.438 0 9.7188-4.2031 15.406-4.1875 5.6875-11.375 5.6875zm0 7.6094q11.719 0 18.406-7.625 6.7031-7.6094 6.7031-21.078 0-13.422-6.7031-21.078-6.6875-7.6406-18.406-7.6406-11.766 0-18.438 7.6406-6.6562 7.6562-6.6562 21.078 0 13.469 6.6562 21.078 6.6719 7.625 18.438 7.625z"/>
<path id="am" d="m5.5156 54.688h42.672v-8.2031l-33.781-39.312h33.781v-7.1719h-43.891v8.2031l33.797 39.312h-32.578z"/>
</defs>
<g transform="translate(350.65 359.12) scale(.1 -.1)">
<use xlink:href="#ab"/>
<use x="39.208984" xlink:href="#g"/>
<use x="78.072266" xlink:href="#ao"/>
<use x="139.253906" xlink:href="#ab"/>
<use x="178.462891" xlink:href="#am"/>
<use x="230.953125" xlink:href="#ad"/>
<use x="294.429688" xlink:href="#d"/>
<use x="355.953125" xlink:href="#h"/>
</g>
</g>
<g clip-path="url(#a)">
<defs>
<path id="al" d="m15.094 12.406h9.9062v-12.406h-9.9062zm0 60.5h9.9062v-31.984l-0.96875-17.438h-7.9219l-1.0156 17.438z"/>
</defs>
<g transform="translate(435.27 359.12) scale(.1 -.1)">
<use xlink:href="#al"/>
</g>
</g>
<g clip-path="url(#a)">
<g transform="translate(504.25 359.12) scale(.1 -.1)">
<use xlink:href="#v"/>
</g>
</g>
<g clip-path="url(#a)">
<g transform="translate(579.36 359.12) scale(.1 -.1)">
<use xlink:href="#aa"/>
</g>
</g>
<g clip-path="url(#a)">
<g transform="translate(658.8 359.12) scale(.1 -.1)">
<use xlink:href="#v"/>
</g>
</g>
<g clip-path="url(#a)">
<defs>
<path id="m" d="m9.8125 72.906h9.8594v-72.906h-9.8594z"/>
<path id="r" d="m9.8125 72.906h14.703l18.594-49.609 18.703 49.609h14.703v-72.906h-9.625v64.016l-18.797-50h-9.9062l-18.797 50v-64.016h-9.5781z"/>
<path id="s" d="m9.8125 72.906h9.8594v-64.609h35.5v-8.2969h-45.359z"/>
<path id="t" d="m64.406 67.281v-10.391q-4.9844 4.6406-10.625 6.9219-5.6406 2.2969-11.984 2.2969-12.5 0-19.141-7.6406t-6.6406-22.094q0-14.406 6.6406-22.047t19.141-7.6406q6.3438 0 11.984 2.2969t10.625 6.9375v-10.312q-5.1719-3.5156-10.969-5.2812-5.7812-1.75-12.219-1.75-16.562 0-26.094 10.125-9.5156 10.141-9.5156 27.672 0 17.578 9.5156 27.703 9.5312 10.141 26.094 10.141 6.5312 0 12.312-1.7344 5.7969-1.7344 10.875-5.2031z"/>
</defs>
<g transform="translate(656.01 156.52) scale(.1 -.1)">
<use xlink:href="#m"/>
<use x="29.492188" xlink:href="#r"/>
<use x="115.771484" xlink:href="#p"/>
<use x="176.074219" xlink:href="#s"/>
<use x="231.787109" xlink:href="#m"/>
<use x="261.279297" xlink:href="#t"/>
<use x="331.103516" xlink:href="#m"/>
<use x="360.595703" xlink:href="#e"/>
</g>
</g>
<g clip-path="url(#a)">
<g transform="translate(656.01 156.52) scale(.1 -.1)">
<use xlink:href="#m"/>
<use x="29.492188" xlink:href="#r"/>
<use x="115.771484" xlink:href="#p"/>
<use x="176.074219" xlink:href="#s"/>
<use x="231.787109" xlink:href="#m"/>
<use x="261.279297" xlink:href="#t"/>
<use x="331.103516" xlink:href="#m"/>
<use x="360.595703" xlink:href="#e"/>
</g>
</g>
<g clip-path="url(#a)">
<g transform="translate(656.01 292.33) scale(.1 -.1)">
<use xlink:href="#m"/>
<use x="29.492188" xlink:href="#r"/>
<use x="115.771484" xlink:href="#p"/>
<use x="176.074219" xlink:href="#s"/>
<use x="231.787109" xlink:href="#m"/>
<use x="261.279297" xlink:href="#t"/>
<use x="331.103516" xlink:href="#m"/>
<use x="360.595703" xlink:href="#e"/>
</g>
</g>
<g clip-path="url(#a)">
<g transform="translate(149.72 292.33) scale(.1 -.1)">
<use xlink:href="#m"/>
<use x="29.492188" xlink:href="#r"/>
<use x="115.771484" xlink:href="#p"/>
<use x="176.074219" xlink:href="#s"/>
<use x="231.787109" xlink:href="#m"/>
<use x="261.279297" xlink:href="#t"/>
<use x="331.103516" xlink:href="#m"/>
<use x="360.595703" xlink:href="#e"/>
</g>
</g>
<g clip-path="url(#a)">
<defs>
<path id="c" d="m12.406 8.2969h16.109v55.625l-17.531-3.5156v8.9844l17.438 3.5156h9.8594v-64.609h16.109v-8.2969h-41.984z"/>
</defs>
<g transform="translate(162.14 19.729) scale(.1 -.1)">
<use xlink:href="#c"/>
<use x="63.623047" xlink:href="#f"/>
<use x="95.410156" xlink:href="#c"/>
</g>
</g>
<g clip-path="url(#a)">
<defs>
<path id="n" d="m19.188 8.2969h34.422v-8.2969h-46.281v8.2969q5.6094 5.8125 15.297 15.594 9.7031 9.7969 12.188 12.641 4.7344 5.3125 6.6094 9 1.8906 3.6875 1.8906 7.25 0 5.8125-4.0781 9.4688-4.0781 3.6719-10.625 3.6719-4.6406 0-9.7969-1.6094-5.1406-1.6094-11-4.8906v9.9688q5.9531 2.3906 11.125 3.6094 5.1875 1.2188 9.4844 1.2188 11.328 0 18.062-5.6719 6.7344-5.6562 6.7344-15.125 0-4.5-1.6875-8.5312-1.6719-4.0156-6.125-9.4844-1.2188-1.4219-7.7656-8.1875-6.5312-6.7656-18.453-18.922z"/>
</defs>
<g transform="translate(162.14 88.213) scale(.1 -.1)">
<use xlink:href="#c"/>
<use x="63.623047" xlink:href="#f"/>
<use x="95.410156" xlink:href="#n"/>
</g>
</g>
<g clip-path="url(#a)">
<g transform="translate(158.96 156.52) scale(.1 -.1)">
<use xlink:href="#c"/>
<use x="63.623047" xlink:href="#f"/>
<use x="95.410156" xlink:href="#c"/>
<use x="159.033203" xlink:href="#c"/>
</g>
</g>
<g clip-path="url(#a)">
<g transform="translate(97.497 224.6) scale(.1 -.1)">
<use xlink:href="#c"/>
<use x="63.623047" xlink:href="#f"/>
<use x="95.410156" xlink:href="#c"/>
<use x="159.033203" xlink:href="#n"/>
</g>
</g>
<g clip-path="url(#a)">
<defs>
<path id="z" d="m40.578 39.312q7.0781-1.5156 11.047-6.3125 3.9844-4.7812 3.9844-11.812 0-10.781-7.4219-16.703-7.4219-5.9062-21.094-5.9062-4.5781 0-9.4375 0.90625t-10.031 2.7188v9.5156q4.0938-2.3906 8.9688-3.6094 4.8906-1.2188 10.219-1.2188 9.2656 0 14.125 3.6562t4.8594 10.641q0 6.4531-4.5156 10.078-4.5156 3.6406-12.562 3.6406h-8.5v8.1094h8.8906q7.2656 0 11.125 2.9062t3.8594 8.375q0 5.6094-3.9844 8.6094-3.9688 3.0156-11.391 3.0156-4.0625 0-8.7031-0.89062-4.6406-0.875-10.203-2.7188v8.7812q5.625 1.5625 10.531 2.3438t9.25 0.78125q11.234 0 17.766-5.1094 6.5469-5.0938 6.5469-13.781 0-6.0625-3.4688-10.234t-9.8594-5.7812z"/>
</defs>
<g transform="translate(436.8 224.6) scale(.1 -.1)">
<use xlink:href="#c"/>
<use x="63.623047" xlink:href="#f"/>
<use x="95.410156" xlink:href="#c"/>
<use x="159.033203" xlink:href="#z"/>
</g>
</g>
<g clip-path="url(#a)">
<defs>
<path id="y" d="m33.016 40.375q-6.6406 0-10.531-4.5469-3.875-4.5312-3.875-12.438 0-7.8594 3.875-12.438 3.8906-4.5625 10.531-4.5625t10.516 4.5625q3.875 4.5781 3.875 12.438 0 7.9062-3.875 12.438-3.875 4.5469-10.516 4.5469zm19.578 30.922v-8.9844q-3.7188 1.75-7.5 2.6719-3.7812 0.9375-7.5 0.9375-9.7656 0-14.922-6.5938-5.1406-6.5938-5.875-19.922 2.875 4.25 7.2188 6.5156 4.3594 2.2656 9.5781 2.2656 10.984 0 17.359-6.6719 6.375-6.6562 6.375-18.125 0-11.234-6.6406-18.031-6.6406-6.7812-17.672-6.7812-12.656 0-19.344 9.6875-6.6875 9.7031-6.6875 28.109 0 17.281 8.2031 27.562t22.016 10.281q3.7188 0 7.5-0.73438t7.8906-2.1875z"/>
</defs>
<g transform="translate(250.27 292.33) scale(.1 -.1)">
<use xlink:href="#c"/>
<use x="63.623047" xlink:href="#f"/>
<use x="95.410156" xlink:href="#c"/>
<use x="159.033203" xlink:href="#y"/>
</g>
</g>
<g clip-path="url(#a)">
<defs>
<path id="x" d="m8.2031 72.906h46.875v-4.2031l-26.469-68.703h-10.297l24.906 64.594h-35.016z"/>
</defs>
<g transform="translate(303.56 292.33) scale(.1 -.1)">
<use xlink:href="#c"/>
<use x="63.623047" xlink:href="#f"/>
<use x="95.410156" xlink:href="#c"/>
<use x="159.033203" xlink:href="#x"/>
</g>
</g>
<g clip-path="url(#a)">
<defs>
<path id="w" d="m31.781 34.625q-7.0312 0-11.062-3.7656-4.0156-3.7656-4.0156-10.344 0-6.5938 4.0156-10.359 4.0312-3.7656 11.062-3.7656t11.078 3.7812q4.0625 3.7969 4.0625 10.344 0 6.5781-4.0312 10.344-4.0156 3.7656-11.109 3.7656zm-9.8594 4.1875q-6.3438 1.5625-9.8906 5.9062-3.5312 4.3594-3.5312 10.609 0 8.7344 6.2188 13.812 6.2344 5.0781 17.062 5.0781 10.891 0 17.094-5.0781t6.2031-13.812q0-6.25-3.5469-10.609-3.5312-4.3438-9.8281-5.9062 7.125-1.6562 11.094-6.5 3.9844-4.8281 3.9844-11.797 0-10.609-6.4688-16.281-6.4688-5.6562-18.531-5.6562-12.047 0-18.531 5.6562-6.4688 5.6719-6.4688 16.281 0 6.9688 4 11.797 4.0156 4.8438 11.141 6.5zm-3.6094 15.578q0-5.6562 3.5312-8.8281 3.5469-3.1719 9.9375-3.1719 6.3594 0 9.9375 3.1719 3.5938 3.1719 3.5938 8.8281 0 5.6719-3.5938 8.8438-3.5781 3.1719-9.9375 3.1719-6.3906 0-9.9375-3.1719-3.5312-3.1719-3.5312-8.8438z"/>
</defs>
<g transform="translate(362.19 292.33) scale(.1 -.1)">
<use xlink:href="#c"/>
<use x="63.623047" xlink:href="#f"/>
<use x="95.410156" xlink:href="#c"/>
<use x="159.033203" xlink:href="#w"/>
</g>
</g>
<g clip-path="url(#a)">
<defs>
<path id="ak" d="m31.781 66.406q-7.6094 0-11.453-7.5-3.8281-7.4844-3.8281-22.531 0-14.984 3.8281-22.484 3.8438-7.5 11.453-7.5 7.6719 0 11.5 7.5 3.8438 7.5 3.8438 22.484 0 15.047-3.8438 22.531-3.8281 7.5-11.5 7.5zm0 7.8125q12.266 0 18.734-9.7031 6.4688-9.6875 6.4688-28.141 0-18.406-6.4688-28.109-6.4688-9.6875-18.734-9.6875-12.25 0-18.719 9.6875-6.4688 9.7031-6.4688 28.109 0 18.453 6.4688 28.141 6.4688 9.7031 18.719 9.7031z"/>
</defs>
<g transform="translate(109.93 292.33) scale(.1 -.1)">
<use xlink:href="#c"/>
<use x="63.623047" xlink:href="#f"/>
<use x="95.410156" xlink:href="#n"/>
<use x="159.033203" xlink:href="#ak"/>
</g>
</g>
<g clip-path="url(#a)">
<g transform="translate(85.062 292.33) scale(.1 -.1)">
<use xlink:href="#c"/>
<use x="63.623047" xlink:href="#f"/>
<use x="95.410156" xlink:href="#n"/>
<use x="159.033203" xlink:href="#c"/>
</g>
</g>
<g clip-path="url(#a)">
<g transform="translate(21.11 292.33) scale(.1 -.1)">
<use xlink:href="#c"/>
<use x="63.623047" xlink:href="#f"/>
<use x="95.410156" xlink:href="#n"/>
<use x="159.033203" xlink:href="#n"/>
</g>
</g>
<g clip-path="url(#a)">
<g transform="translate(37.098 292.33) scale(.1 -.1)">
<use xlink:href="#c"/>
<use x="63.623047" xlink:href="#f"/>
<use x="95.410156" xlink:href="#n"/>
<use x="159.033203" xlink:href="#z"/>
</g>
</g>
<g clip-path="url(#a)">
<defs>
<path id="aj" d="m37.797 64.312-24.906-38.922h24.906zm-2.5938 8.5938h12.406v-47.516h10.406v-8.2031h-10.406v-17.188h-9.8125v17.188h-32.906v9.5156z"/>
</defs>
<g transform="translate(202.31 292.33) scale(.1 -.1)">
<use xlink:href="#c"/>
<use x="63.623047" xlink:href="#f"/>
<use x="95.410156" xlink:href="#n"/>
<use x="159.033203" xlink:href="#aj"/>
</g>
</g>
<g clip-path="url(#a)">
<defs>
<path id="ai" d="m10.797 72.906h38.719v-8.3125h-29.688v-17.859q2.1406 0.73438 4.2812 1.0938 2.1562 0.35938 4.3125 0.35938 12.203 0 19.328-6.6875 7.1406-6.6875 7.1406-18.109 0-11.766-7.3281-18.297-7.3281-6.5156-20.656-6.5156-4.5938 0-9.3594 0.78125-4.75 0.78125-9.8281 2.3438v9.9219q4.3906-2.3906 9.0781-3.5625t9.9062-1.1719q8.4531 0 13.375 4.4375 4.9375 4.4375 4.9375 12.062 0 7.6094-4.9375 12.047-4.9219 4.4531-13.375 4.4531-3.9531 0-7.8906-0.875-3.9219-0.875-8.0156-2.7344z"/>
</defs>
<g transform="translate(426.14 292.33) scale(.1 -.1)">
<use xlink:href="#c"/>
<use x="63.623047" xlink:href="#f"/>
<use x="95.410156" xlink:href="#n"/>
<use x="159.033203" xlink:href="#ai"/>
</g>
</g>
<g clip-path="url(#a)">
<g transform="translate(495.42 292.33) scale(.1 -.1)">
<use xlink:href="#c"/>
<use x="63.623047" xlink:href="#f"/>
<use x="95.410156" xlink:href="#n"/>
<use x="159.033203" xlink:href="#y"/>
</g>
</g>
<g clip-path="url(#a)">
<g transform="translate(570.03 292.33) scale(.1 -.1)">
<use xlink:href="#c"/>
<use x="63.623047" xlink:href="#f"/>
<use x="95.410156" xlink:href="#n"/>
<use x="159.033203" xlink:href="#x"/>
</g>
</g>
<g clip-path="url(#a)">
<g transform="translate(649.97 292.33) scale(.1 -.1)">
<use xlink:href="#c"/>
<use x="63.623047" xlink:href="#f"/>
<use x="95.410156" xlink:href="#n"/>
<use x="159.033203" xlink:href="#w"/>
</g>
</g>
<defs>
<clipPath id="a">
<rect width="709.33" height="373.33"/>
</clipPath>
</defs>
</svg>
