<?xml version="1.0" encoding="UTF-8"?>
<!DOCTYPE svg  PUBLIC '-//W3C//DTD SVG 1.1//EN'  'http://www.w3.org/Graphics/SVG/1.1/DTD/svg11.dtd'>
<svg width="709.33pt" height="373.33pt" version="1.1" viewBox="0 0 709.33 373.33" xmlns="http://www.w3.org/2000/svg" xmlns:xlink="http://www.w3.org/1999/xlink">
<defs>
<style type="text/css">*{stroke-linecap:butt;stroke-linejoin:round;}</style>
</defs>
<path d="m0 373.33h709.33v-373.33h-709.33z" fill="#fff"/>
<g fill="none" stroke="#000">
<path d="m511.85 18.073v69.823" clip-path="url(#a)"/>
<path d="m511.85 87.896 164.91 267.36" clip-path="url(#a)"/>
<path d="m511.85 87.896 127.01 267.36" clip-path="url(#a)"/>
<path d="m511.85 87.896-291.92 68.268" clip-path="url(#a)"/>
<path d="m219.94 156.16 86.312 66.978" clip-path="url(#a)"/>
<path d="m219.94 156.16 210.52 66.978" clip-path="url(#a)"/>
<path d="m219.94 156.16-187.36 133.04" clip-path="url(#a)"/>
<path d="m219.94 156.16-149.47 133.04" clip-path="url(#a)"/>
<path d="m219.94 156.16 39.998 133.04" clip-path="url(#a)"/>
<path d="m306.25 223.14 294.72 132.12" clip-path="url(#a)"/>
<path d="m306.25 223.14-134.73 66.059" clip-path="url(#a)"/>
<path d="m306.25 223.14-159.99 66.059" clip-path="url(#a)"/>
<path d="m430.45 223.14 132.63 132.12" clip-path="url(#a)"/>
<path d="m430.45 223.14-132.63 66.059" clip-path="url(#a)"/>
<path d="m430.45 223.14-94.733 66.059" clip-path="url(#a)"/>
<path d="m430.45 223.14-56.84 66.059" clip-path="url(#a)"/>
<path d="m430.45 223.14-18.947 66.059" clip-path="url(#a)"/>
<path d="m430.45 223.14 18.947 66.059" clip-path="url(#a)"/>
<path d="m430.45 223.14 56.84 66.059" clip-path="url(#a)"/>
<path d="m430.45 223.14 94.733 66.059" clip-path="url(#a)"/>
<path d="m297.83 289.2v66.059" clip-path="url(#a)"/>
<path d="m335.72 289.2v66.059" clip-path="url(#a)"/>
<path d="m373.61 289.2v66.059" clip-path="url(#a)"/>
<path d="m171.52 289.2-63.155 66.059" clip-path="url(#a)"/>
<path d="m171.52 289.2 12.631 66.059" clip-path="url(#a)"/>
<path d="m171.52 289.2 50.524 66.059" clip-path="url(#a)"/>
<path d="m146.25 289.2v66.059" clip-path="url(#a)"/>
<path d="m32.576 289.2v66.059" clip-path="url(#a)"/>
<path d="m70.469 289.2v66.059" clip-path="url(#a)"/>
<path d="m259.93 289.2v66.059" clip-path="url(#a)"/>
<path d="m411.51 289.2v66.059" clip-path="url(#a)"/>
<path d="m449.4 289.2v66.059" clip-path="url(#a)"/>
<path d="m487.29 289.2v66.059" clip-path="url(#a)"/>
<path d="m525.19 289.2v66.059" clip-path="url(#a)"/>
</g>
<path d="m505.58 49.977v6.0162q0 2.4 2.4 2.4h7.7425q2.4 0 2.4-2.4v-6.0162q0-2.4-2.4-2.4h-7.7425q-2.4 0-2.4 2.4z" clip-path="url(#a)" fill="#fff" stroke="#fff"/>
<g clip-path="url(#a)">
<defs>
<path id="u" d="m9.8125 72.906h9.8594v-29.891h35.844v29.891h9.8594v-72.906h-9.8594v34.719h-35.844v-34.719h-9.8594z"/>
</defs>
<g transform="translate(509.65 49.977) rotate(90) scale(.08 -.08)">
<use xlink:href="#u"/>
</g>
</g>
<path d="m587.7 222.82 2.5323 4.1056q1.2599 2.0427 3.3026 0.7828l6.5899-4.0645q2.0427-1.2599 0.7828-3.3026l-2.5323-4.1056q-1.2599-2.0427-3.3026-0.7828l-6.5899 4.0645q-2.0427 1.2599-0.7828 3.3026z" clip-path="url(#a)" fill="#fff" stroke="#fff"/>
<g clip-path="url(#a)">
<defs>
<path id="p" d="m19.672 64.797v-27.391h12.406q6.8906 0 10.641 3.5625 3.7656 3.5625 3.7656 10.156 0 6.5469-3.7656 10.109-3.75 3.5625-10.641 3.5625zm-9.8594 8.1094h22.266q12.266 0 18.531-5.5469 6.2812-5.5469 6.2812-16.234 0-10.797-6.2812-16.312-6.2656-5.5156-18.531-5.5156h-12.406v-29.297h-9.8594z"/>
</defs>
<g transform="translate(591.16 220.68) rotate(58.335) scale(.08 -.08)">
<use xlink:href="#p"/>
</g>
</g>
<path d="m568.52 221.8 2.3482 4.9431q1.0298 2.1678 3.1977 1.138l6.9935-3.3223q2.1678-1.0298 1.138-3.1977l-2.3482-4.9431q-1.0298-2.1678-3.1977-1.138l-6.9935 3.3223q-2.1678 1.0298-1.138 3.1977z" clip-path="url(#a)" fill="#fff" stroke="#fff"/>
<g clip-path="url(#a)">
<defs>
<path id="q" d="m34.188 63.188-13.391-36.281h26.812zm-5.5781 9.7188h11.188l27.781-72.906h-10.25l-6.6406 18.703h-32.859l-6.6406-18.703h-10.406z"/>
</defs>
<g transform="translate(572.19 220.05) rotate(64.59) scale(.08 -.08)">
<use xlink:href="#q"/>
</g>
</g>
<path d="m364.66 128.76 5.3287-1.2462q2.3369-0.54652 1.7904-2.8835l-1.7631-7.5391q-0.54652-2.3369-2.8835-1.7904l-5.3287 1.2462q-2.3369 0.54652-1.7904 2.8835l1.7631 7.5391q0.54652 2.3369 2.8835 1.7904z" clip-path="url(#a)" fill="#fff" stroke="#fff"/>
<g clip-path="url(#a)">
<g transform="translate(363.73 124.8) rotate(-13.163) scale(.08 -.08)">
<use xlink:href="#q"/>
</g>
</g>
<path d="m256.87 192.76 4.753 3.6884q1.8961 1.4714 3.3674-0.42472l4.7467-6.1168q1.4714-1.8961-0.42472-3.3674l-4.753-3.6884q-1.8961-1.4714-3.3674 0.42472l-4.7467 6.1168q-1.4714 1.8961 0.42472 3.3674z" clip-path="url(#a)" fill="#fff" stroke="#fff"/>
<g clip-path="url(#a)">
<g transform="translate(259.36 189.55) rotate(37.811) scale(.08 -.08)">
<use xlink:href="#u"/>
</g>
</g>
<path d="m320.43 194.72 5.7331 1.824q2.287 0.72764 3.0147-1.5594l2.3474-7.3781q0.72764-2.287-1.5594-3.0147l-5.7331-1.824q-2.287-0.72764-3.0147 1.5594l-2.3474 7.3781q-0.72764 2.287 1.5594 3.0147z" clip-path="url(#a)" fill="#fff" stroke="#fff"/>
<g clip-path="url(#a)">
<g transform="translate(321.66 190.84) rotate(17.649) scale(.08 -.08)">
<use xlink:href="#u"/>
</g>
</g>
<path d="m127.5 229.49 4.7739-3.3898q1.9569-1.3895 0.56737-3.3464l-4.4826-6.3129q-1.3895-1.9569-3.3464-0.56737l-4.7739 3.3898q-1.9569 1.3895-0.56737 3.3464l4.4826 6.3129q1.3895 1.9569 3.3464 0.56737z" clip-path="url(#a)" fill="#fff" stroke="#fff"/>
<g clip-path="url(#a)">
<defs>
<path id="o" d="m8.6875 72.906h9.9219v-44.297q0-11.719 4.2344-16.875 4.25-5.1406 13.781-5.1406 9.4688 0 13.719 5.1406 4.25 5.1562 4.25 16.875v44.297h9.9062v-45.516q0-14.25-7.0625-21.531-7.0469-7.2812-20.812-7.2812-13.828 0-20.891 7.2812-7.0469 7.2812-7.0469 21.531z"/>
</defs>
<g transform="translate(125.15 226.18) rotate(-35.377) scale(.08 -.08)">
<use xlink:href="#o"/>
</g>
</g>
<path d="m147.18 229.31 4.3735-3.8928q1.7927-1.5957 0.19706-3.3884l-5.1477-5.7834q-1.5957-1.7927-3.3884-0.19706l-4.3735 3.8928q-1.7927 1.5957-0.19706 3.3884l5.1477 5.7834q1.5957 1.7927 3.3884 0.19706z" clip-path="url(#a)" fill="#fff" stroke="#fff"/>
<g clip-path="url(#a)">
<g transform="translate(144.48 226.28) rotate(-41.672) scale(.08 -.08)">
<use xlink:href="#o"/>
</g>
</g>
<path d="m233.09 221.68 1.6858 5.6071q0.69102 2.2984 2.9894 1.6074l7.4146-2.2292q2.2984-0.69102 1.6074-2.9894l-1.6858-5.6071q-0.69102-2.2984-2.9894-1.6074l-7.4146 2.2292q-2.2984 0.69102-1.6074 2.9894z" clip-path="url(#a)" fill="#fff" stroke="#fff"/>
<g clip-path="url(#a)">
<g transform="translate(236.98 220.51) rotate(73.266) scale(.08 -.08)">
<use xlink:href="#o"/>
</g>
</g>
<path d="m448.55 293.8 4.9937 2.2386q2.19 0.98174 3.1718-1.2083l3.1671-7.0651q0.98174-2.19-1.2083-3.1718l-4.9937-2.2386q-2.19-0.98174-3.1718 1.2083l-3.1671 7.0651q-0.98174 2.19 1.2083 3.1718z" clip-path="url(#a)" fill="#fff" stroke="#fff"/>
<g clip-path="url(#a)">
<g transform="translate(450.21 290.1) rotate(24.146) scale(.08 -.08)">
<use xlink:href="#q"/>
</g>
</g>
<path d="m239.48 262.86 4.3312-2.1236q2.1549-1.0566 1.0984-3.2115l-3.4085-6.9519q-1.0566-2.1549-3.2115-1.0984l-4.3312 2.1236q-2.1549 1.0566-1.0984 3.2115l3.4085 6.9519q1.0566 2.1549 3.2115 1.0984z" clip-path="url(#a)" fill="#fff" stroke="#fff"/>
<g clip-path="url(#a)">
<g transform="translate(237.69 259.22) rotate(-26.119) scale(.08 -.08)">
<use xlink:href="#p"/>
</g>
</g>
<path d="m226.12 263.01 5.0583-2.0885q2.2183-0.91593 1.3024-3.1343l-2.9548-7.1565q-0.91593-2.2183-3.1343-1.3024l-5.0583 2.0885q-2.2184 0.91593-1.3024 3.1343l2.9548 7.1565q0.91593 2.2184 3.1343 1.3024z" clip-path="url(#a)" fill="#fff" stroke="#fff"/>
<g clip-path="url(#a)">
<g transform="translate(224.56 259.26) rotate(-22.435) scale(.08 -.08)">
<use xlink:href="#q"/>
</g>
</g>
<path d="m490.4 291.71 3.8771 3.8622q1.7003 1.6938 3.3941-0.006507l5.4643-5.4853q1.6938-1.7003-0.006507-3.3941l-3.8771-3.8622q-1.7003-1.6938-3.3941 0.006507l-5.4643 5.4853q-1.6938 1.7003 0.006507 3.3941z" clip-path="url(#a)" fill="#fff" stroke="#fff"/>
<g clip-path="url(#a)">
<g transform="translate(493.27 288.83) rotate(44.89) scale(.08 -.08)">
<use xlink:href="#q"/>
</g>
</g>
<path d="m364.78 262.86 4.3178-2.1506q2.1483-1.07 1.0782-3.2183l-3.4519-6.9304q-1.07-2.1483-3.2183-1.0782l-4.3178 2.1506q-2.1483 1.07-1.0782 3.2183l3.4519 6.9304q1.07 2.1483 3.2183 1.0782z" clip-path="url(#a)" fill="#fff" stroke="#fff"/>
<g clip-path="url(#a)">
<g transform="translate(362.97 259.22) rotate(-26.477) scale(.08 -.08)">
<use xlink:href="#p"/>
</g>
</g>
<path d="m384.43 262.88 4.4889-3.1302q1.9686-1.3728 0.59586-3.3414l-4.4286-6.3509q-1.3728-1.9686-3.3414-0.59586l-4.4889 3.1302q-1.9686 1.3728-0.59586 3.3414l4.4286 6.3509q1.3728 1.9686 3.3414 0.59586z" clip-path="url(#a)" fill="#fff" stroke="#fff"/>
<g clip-path="url(#a)">
<g transform="translate(382.1 259.55) rotate(-34.889) scale(.08 -.08)">
<use xlink:href="#q"/>
</g>
</g>
<path d="m404.78 262.6 4.0177-4.6694q1.5654-1.8193-0.2539-3.3846l-5.869-5.0499q-1.8193-1.5654-3.3846 0.2539l-4.0177 4.6694q-1.5654 1.8193 0.2539 3.3846l5.869 5.0499q1.8193 1.5654 3.3846-0.2539z" clip-path="url(#a)" fill="#fff" stroke="#fff"/>
<g clip-path="url(#a)">
<defs>
<path id="ah" d="m19.672 64.797v-56.688h11.922q15.094 0 22.094 6.8281 7 6.8438 7 21.594 0 14.641-7 21.453t-22.094 6.8125zm-9.8594 8.1094h20.266q21.188 0 31.094-8.8125 9.9219-8.8125 9.9219-27.562 0-18.859-9.9688-27.703-9.9531-8.8281-31.047-8.8281h-20.266z"/>
</defs>
<g transform="translate(401.7 259.95) rotate(-49.29) scale(.08 -.08)">
<use xlink:href="#ah"/>
</g>
</g>
<path d="m426.2 260.71 1.6142-5.6281q0.66167-2.307-1.6453-2.9687l-7.4424-2.1346q-2.307-0.66167-2.9687 1.6453l-1.6142 5.6281q-0.66167 2.307 1.6453 2.9687l7.4424 2.1346q2.307 0.66167 2.9687-1.6453z" clip-path="url(#a)" fill="#fff" stroke="#fff"/>
<g clip-path="url(#a)">
<g transform="translate(422.29 259.59) rotate(-73.996) scale(.08 -.08)">
<use xlink:href="#o"/>
</g>
</g>
<path d="m433.09 255.09 1.6142 5.6281q0.66167 2.307 2.9687 1.6453l7.4424-2.1346q2.307-0.66167 1.6453-2.9687l-1.6142-5.6281q-0.66167-2.307-2.9687-1.6453l-7.4424 2.1346q-2.307 0.66167-1.6453 2.9687z" clip-path="url(#a)" fill="#fff" stroke="#fff"/>
<g clip-path="url(#a)">
<g transform="translate(437 253.97) rotate(73.996) scale(.08 -.08)">
<use xlink:href="#o"/>
</g>
</g>
<path d="m452.21 258.04 3.8188 4.4382q1.5654 1.8193 3.3846 0.2539l5.869-5.0499q1.8193-1.5654 0.2539-3.3846l-3.8188-4.4382q-1.5654-1.8193-3.3846-0.2539l-5.869 5.0499q-1.8193 1.5653-0.2539 3.3846z" clip-path="url(#a)" fill="#fff" stroke="#fff"/>
<g clip-path="url(#a)">
<g transform="translate(455.29 255.39) rotate(49.29) scale(.08 -.08)">
<use xlink:href="#o"/>
</g>
</g>
<path d="m471.83 259.64 4.8026 3.349q1.9686 1.3728 3.3414-0.59586l4.4286-6.3509q1.3728-1.9686-0.59586-3.3414l-4.8026-3.349q-1.9686-1.3728-3.3414 0.59586l-4.4286 6.3509q-1.3728 1.9686 0.59586 3.3414z" clip-path="url(#a)" fill="#fff" stroke="#fff"/>
<g clip-path="url(#a)">
<g transform="translate(474.16 256.31) rotate(34.889) scale(.08 -.08)">
<use xlink:href="#o"/>
</g>
</g>
<path d="m291.56 304.59v35.285q0 2.4 2.4 2.4h7.7425q2.4 0 2.4-2.4v-35.285q0-2.4-2.4-2.4h-7.7425q-2.4 0-2.4 2.4z" clip-path="url(#a)" fill="#fff" stroke="#fff"/>
<g clip-path="url(#a)">
<defs>
<path id="e" d="m-0.29688 72.906h61.672v-8.3125h-25.875v-64.594h-9.9062v64.594h-25.891z"/>
<path id="d" d="m56.203 29.594v-4.3906h-41.312q0.59375-9.2812 5.5938-14.141t13.938-4.8594q5.1719 0 10.031 1.2656t9.6562 3.8125v-8.5q-4.8438-2.0469-9.9219-3.125t-10.297-1.0781q-13.094 0-20.734 7.6094-7.6406 7.625-7.6406 20.625 0 13.422 7.25 21.297 7.25 7.8906 19.562 7.8906 11.031 0 17.453-7.1094 6.4219-7.0938 6.4219-19.297zm-8.9844 2.6406q-0.09375 7.3594-4.125 11.75-4.0312 4.4062-10.672 4.4062-7.5156 0-12.031-4.25t-5.2031-11.969z"/>
<path id="g" d="m41.109 46.297q-1.5156 0.875-3.2969 1.2812-1.7812 0.42188-3.9219 0.42188-7.625 0-11.703-4.9531t-4.0781-14.234v-28.812h-9.0312v54.688h9.0312v-8.5q2.8438 4.9844 7.375 7.3906 4.5469 2.4219 11.047 2.4219 0.92188 0 2.0469-0.125 1.125-0.10938 2.4844-0.35938z"/>
<path id="h" d="m52 44.188q3.375 6.0625 8.0625 8.9375t11.031 2.875q8.5469 0 13.188-5.9844 4.6406-5.9688 4.6406-17v-33.016h-9.0312v32.719q0 7.8594-2.7969 11.656-2.7812 3.8125-8.4844 3.8125-6.9844 0-11.047-4.6406-4.0469-4.625-4.0469-12.641v-30.906h-9.0312v32.719q0 7.9062-2.7812 11.688t-8.5938 3.7812q-6.8906 0-10.953-4.6562-4.0469-4.6562-4.0469-12.625v-30.906h-9.0312v54.688h9.0312v-8.5q3.0781 5.0312 7.375 7.4219t10.203 2.3906q5.9688 0 10.141-3.0312 4.1719-3.0156 6.1719-8.7812z"/>
<path id="k" d="m9.4219 54.688h8.9844v-54.688h-8.9844zm0 21.297h8.9844v-11.391h-8.9844z"/>
<path id="i" d="m54.891 33.016v-33.016h-8.9844v32.719q0 7.7656-3.0312 11.609-3.0312 3.8594-9.0781 3.8594-7.2812 0-11.484-4.6406-4.2031-4.625-4.2031-12.641v-30.906h-9.0312v54.688h9.0312v-8.5q3.2344 4.9375 7.5938 7.375 4.375 2.4375 10.094 2.4375 9.4219 0 14.25-5.8281 4.8438-5.8281 4.8438-17.156z"/>
<path id="l" d="m34.281 27.484q-10.891 0-15.094-2.4844t-4.2031-8.5q0-4.7812 3.1562-7.5938 3.1562-2.7969 8.5625-2.7969 7.4844 0 12 5.2969t4.5156 14.078v2zm17.922 3.7188v-31.203h-8.9844v8.2969q-3.0781-4.9688-7.6719-7.3438t-11.234-2.375q-8.3906 0-13.359 4.7188-4.9531 4.7188-4.9531 12.625 0 9.2188 6.1719 13.906 6.1875 4.6875 18.438 4.6875h12.609v0.89062q0 6.2031-4.0781 9.5938t-11.453 3.3906q-4.6875 0-9.1406-1.125-4.4375-1.125-8.5312-3.375v8.3125q4.9219 1.9062 9.5625 2.8438 4.6406 0.95312 9.0312 0.95312 11.875 0 17.734-6.1562 5.8594-6.1406 5.8594-18.641z"/>
<path id="j" d="m9.4219 75.984h8.9844v-75.984h-8.9844z"/>
</defs>
<g transform="translate(295.62 304.59) rotate(90) scale(.08 -.08)">
<use xlink:href="#e"/>
<use x="60.818359" xlink:href="#d"/>
<use x="122.341797" xlink:href="#g"/>
<use x="163.439453" xlink:href="#h"/>
<use x="260.851562" xlink:href="#k"/>
<use x="288.634766" xlink:href="#i"/>
<use x="352.013672" xlink:href="#l"/>
<use x="413.292969" xlink:href="#j"/>
</g>
</g>
<path d="m329.45 304.59v35.285q0 2.4 2.4 2.4h7.7425q2.4 0 2.4-2.4v-35.285q0-2.4-2.4-2.4h-7.7425q-2.4 0-2.4 2.4z" clip-path="url(#a)" fill="#fff" stroke="#fff"/>
<g clip-path="url(#a)">
<g transform="translate(333.51 304.59) rotate(90) scale(.08 -.08)">
<use xlink:href="#e"/>
<use x="60.818359" xlink:href="#d"/>
<use x="122.341797" xlink:href="#g"/>
<use x="163.439453" xlink:href="#h"/>
<use x="260.851562" xlink:href="#k"/>
<use x="288.634766" xlink:href="#i"/>
<use x="352.013672" xlink:href="#l"/>
<use x="413.292969" xlink:href="#j"/>
</g>
</g>
<path d="m367.34 304.59v35.285q0 2.4 2.4 2.4h7.7425q2.4 0 2.4-2.4v-35.285q0-2.4-2.4-2.4h-7.7425q-2.4 0-2.4 2.4z" clip-path="url(#a)" fill="#fff" stroke="#fff"/>
<g clip-path="url(#a)">
<g transform="translate(371.41 304.59) rotate(90) scale(.08 -.08)">
<use xlink:href="#e"/>
<use x="60.818359" xlink:href="#d"/>
<use x="122.341797" xlink:href="#g"/>
<use x="163.439453" xlink:href="#h"/>
<use x="260.851562" xlink:href="#k"/>
<use x="288.634766" xlink:href="#i"/>
<use x="352.013672" xlink:href="#l"/>
<use x="413.292969" xlink:href="#j"/>
</g>
</g>
<path d="m132.28 339.32 24.383-25.505q1.6585-1.7348-0.07626-3.3933l-5.5964-5.3504q-1.7348-1.6585-3.3933 0.07626l-24.383 25.505q-1.6585 1.7348 0.076261 3.3933l5.5964 5.3504q1.7348 1.6585 3.3933-0.076261z" clip-path="url(#a)" fill="#fff" stroke="#fff"/>
<g clip-path="url(#a)">
<g transform="translate(129.34 336.51) rotate(-46.287) scale(.08 -.08)">
<use xlink:href="#e"/>
<use x="60.818359" xlink:href="#d"/>
<use x="122.341797" xlink:href="#g"/>
<use x="163.439453" xlink:href="#h"/>
<use x="260.851562" xlink:href="#k"/>
<use x="288.634766" xlink:href="#i"/>
<use x="352.013672" xlink:href="#l"/>
<use x="413.292969" xlink:href="#j"/>
</g>
</g>
<path d="m168.36 306.08 6.6267 34.657q0.45073 2.3573 2.808 1.9066l7.6047-1.4541q2.3573-0.45073 1.9066-2.808l-6.6267-34.657q-0.45073-2.3573-2.808-1.9066l-7.6047 1.4541q-2.3573 0.45073-1.9066 2.808z" clip-path="url(#a)" fill="#fff" stroke="#fff"/>
<g clip-path="url(#a)">
<g transform="translate(172.35 305.32) rotate(79.175) scale(.08 -.08)">
<use xlink:href="#e"/>
<use x="60.818359" xlink:href="#d"/>
<use x="122.341797" xlink:href="#g"/>
<use x="163.439453" xlink:href="#h"/>
<use x="260.851562" xlink:href="#k"/>
<use x="288.634766" xlink:href="#i"/>
<use x="352.013672" xlink:href="#l"/>
<use x="413.292969" xlink:href="#j"/>
</g>
</g>
<path d="m181.08 312.03 21.436 28.027q1.458 1.9063 3.3644 0.44831l6.1499-4.7037q1.9063-1.458 0.44831-3.3644l-21.436-28.027q-1.458-1.9063-3.3644-0.44831l-6.1499 4.7037q-1.9063 1.458-0.44831 3.3644z" clip-path="url(#a)" fill="#fff" stroke="#fff"/>
<g clip-path="url(#a)">
<g transform="translate(184.31 309.56) rotate(52.59) scale(.08 -.08)">
<use xlink:href="#e"/>
<use x="60.818359" xlink:href="#d"/>
<use x="122.341797" xlink:href="#g"/>
<use x="163.439453" xlink:href="#h"/>
<use x="260.851562" xlink:href="#k"/>
<use x="288.634766" xlink:href="#i"/>
<use x="352.013672" xlink:href="#l"/>
<use x="413.292969" xlink:href="#j"/>
</g>
</g>
<path d="m139.98 304.59v35.285q0 2.4 2.4 2.4h7.7425q2.4 0 2.4-2.4v-35.285q0-2.4-2.4-2.4h-7.7425q-2.4 0-2.4 2.4z" clip-path="url(#a)" fill="#fff" stroke="#fff"/>
<g clip-path="url(#a)">
<g transform="translate(144.05 304.59) rotate(90) scale(.08 -.08)">
<use xlink:href="#e"/>
<use x="60.818359" xlink:href="#d"/>
<use x="122.341797" xlink:href="#g"/>
<use x="163.439453" xlink:href="#h"/>
<use x="260.851562" xlink:href="#k"/>
<use x="288.634766" xlink:href="#i"/>
<use x="352.013672" xlink:href="#l"/>
<use x="413.292969" xlink:href="#j"/>
</g>
</g>
<path d="m26.304 304.59v35.285q0 2.4 2.4 2.4h7.7425q2.4 0 2.4-2.4v-35.285q0-2.4-2.4-2.4h-7.7425q-2.4 0-2.4 2.4z" clip-path="url(#a)" fill="#fff" stroke="#fff"/>
<g clip-path="url(#a)">
<g transform="translate(30.368 304.59) rotate(90) scale(.08 -.08)">
<use xlink:href="#e"/>
<use x="60.818359" xlink:href="#d"/>
<use x="122.341797" xlink:href="#g"/>
<use x="163.439453" xlink:href="#h"/>
<use x="260.851562" xlink:href="#k"/>
<use x="288.634766" xlink:href="#i"/>
<use x="352.013672" xlink:href="#l"/>
<use x="413.292969" xlink:href="#j"/>
</g>
</g>
<path d="m64.197 304.59v35.285q0 2.4 2.4 2.4h7.7425q2.4 0 2.4-2.4v-35.285q0-2.4-2.4-2.4h-7.7425q-2.4 0-2.4 2.4z" clip-path="url(#a)" fill="#fff" stroke="#fff"/>
<g clip-path="url(#a)">
<g transform="translate(68.261 304.59) rotate(90) scale(.08 -.08)">
<use xlink:href="#e"/>
<use x="60.818359" xlink:href="#d"/>
<use x="122.341797" xlink:href="#g"/>
<use x="163.439453" xlink:href="#h"/>
<use x="260.851562" xlink:href="#k"/>
<use x="288.634766" xlink:href="#i"/>
<use x="352.013672" xlink:href="#l"/>
<use x="413.292969" xlink:href="#j"/>
</g>
</g>
<path d="m253.66 304.59v35.285q0 2.4 2.4 2.4h7.7425q2.4 0 2.4-2.4v-35.285q0-2.4-2.4-2.4h-7.7425q-2.4 0-2.4 2.4z" clip-path="url(#a)" fill="#fff" stroke="#fff"/>
<g clip-path="url(#a)">
<g transform="translate(257.73 304.59) rotate(90) scale(.08 -.08)">
<use xlink:href="#e"/>
<use x="60.818359" xlink:href="#d"/>
<use x="122.341797" xlink:href="#g"/>
<use x="163.439453" xlink:href="#h"/>
<use x="260.851562" xlink:href="#k"/>
<use x="288.634766" xlink:href="#i"/>
<use x="352.013672" xlink:href="#l"/>
<use x="413.292969" xlink:href="#j"/>
</g>
</g>
<path d="m405.24 304.59v35.285q0 2.4 2.4 2.4h7.7425q2.4 0 2.4-2.4v-35.285q0-2.4-2.4-2.4h-7.7425q-2.4 0-2.4 2.4z" clip-path="url(#a)" fill="#fff" stroke="#fff"/>
<g clip-path="url(#a)">
<g transform="translate(409.3 304.59) rotate(90) scale(.08 -.08)">
<use xlink:href="#e"/>
<use x="60.818359" xlink:href="#d"/>
<use x="122.341797" xlink:href="#g"/>
<use x="163.439453" xlink:href="#h"/>
<use x="260.851562" xlink:href="#k"/>
<use x="288.634766" xlink:href="#i"/>
<use x="352.013672" xlink:href="#l"/>
<use x="413.292969" xlink:href="#j"/>
</g>
</g>
<path d="m443.13 304.59v35.285q0 2.4 2.4 2.4h7.7425q2.4 0 2.4-2.4v-35.285q0-2.4-2.4-2.4h-7.7425q-2.4 0-2.4 2.4z" clip-path="url(#a)" fill="#fff" stroke="#fff"/>
<g clip-path="url(#a)">
<g transform="translate(447.19 304.59) rotate(90) scale(.08 -.08)">
<use xlink:href="#e"/>
<use x="60.818359" xlink:href="#d"/>
<use x="122.341797" xlink:href="#g"/>
<use x="163.439453" xlink:href="#h"/>
<use x="260.851562" xlink:href="#k"/>
<use x="288.634766" xlink:href="#i"/>
<use x="352.013672" xlink:href="#l"/>
<use x="413.292969" xlink:href="#j"/>
</g>
</g>
<path d="m481.02 304.59v35.285q0 2.4 2.4 2.4h7.7425q2.4 0 2.4-2.4v-35.285q0-2.4-2.4-2.4h-7.7425q-2.4 0-2.4 2.4z" clip-path="url(#a)" fill="#fff" stroke="#fff"/>
<g clip-path="url(#a)">
<g transform="translate(485.08 304.59) rotate(90) scale(.08 -.08)">
<use xlink:href="#e"/>
<use x="60.818359" xlink:href="#d"/>
<use x="122.341797" xlink:href="#g"/>
<use x="163.439453" xlink:href="#h"/>
<use x="260.851562" xlink:href="#k"/>
<use x="288.634766" xlink:href="#i"/>
<use x="352.013672" xlink:href="#l"/>
<use x="413.292969" xlink:href="#j"/>
</g>
</g>
<path d="m518.91 304.59v35.285q0 2.4 2.4 2.4h7.7425q2.4 0 2.4-2.4v-35.285q0-2.4-2.4-2.4h-7.7425q-2.4 0-2.4 2.4z" clip-path="url(#a)" fill="#fff" stroke="#fff"/>
<g clip-path="url(#a)">
<g transform="translate(522.98 304.59) rotate(90) scale(.08 -.08)">
<use xlink:href="#e"/>
<use x="60.818359" xlink:href="#d"/>
<use x="122.341797" xlink:href="#g"/>
<use x="163.439453" xlink:href="#h"/>
<use x="260.851562" xlink:href="#k"/>
<use x="288.634766" xlink:href="#i"/>
<use x="352.013672" xlink:href="#l"/>
<use x="413.292969" xlink:href="#j"/>
</g>
</g>
<defs>
<path id="b" d="m0 8.6603c2.2967 0 4.4997-0.9125 6.1237-2.5365 1.624-1.624 2.5365-3.827 2.5365-6.1237s-0.9125-4.4997-2.5365-6.1237c-1.624-1.624-3.827-2.5365-6.1237-2.5365s-4.4997 0.9125-6.1237 2.5365c-1.624 1.624-2.5365 3.827-2.5365 6.1237s0.9125 4.4997 2.5365 6.1237c1.624 1.624 3.827 2.5365 6.1237 2.5365z"/>
</defs>
<g clip-path="url(#a)">
<use x="32.575523" y="355.260323" fill="#ffffff" stroke="#ffffff" xlink:href="#b"/>
</g>
<g clip-path="url(#a)">
<use x="70.468598" y="355.260323" fill="#ffffff" stroke="#ffffff" xlink:href="#b"/>
</g>
<g clip-path="url(#a)">
<use x="108.361674" y="355.260323" fill="#ffffff" stroke="#ffffff" xlink:href="#b"/>
</g>
<g clip-path="url(#a)">
<use x="146.25475" y="355.260323" fill="#ffffff" stroke="#ffffff" xlink:href="#b"/>
</g>
<g clip-path="url(#a)">
<use x="184.147826" y="355.260323" fill="#ffffff" stroke="#ffffff" xlink:href="#b"/>
</g>
<g clip-path="url(#a)">
<use x="222.040902" y="355.260323" fill="#ffffff" stroke="#ffffff" xlink:href="#b"/>
</g>
<g clip-path="url(#a)">
<use x="259.933977" y="355.260323" fill="#ffffff" stroke="#ffffff" xlink:href="#b"/>
</g>
<g clip-path="url(#a)">
<use x="297.827053" y="355.260323" fill="#ffffff" stroke="#ffffff" xlink:href="#b"/>
</g>
<g clip-path="url(#a)">
<use x="335.720129" y="355.260323" fill="#ffffff" stroke="#ffffff" xlink:href="#b"/>
</g>
<g clip-path="url(#a)">
<use x="373.613205" y="355.260323" fill="#ffffff" stroke="#ffffff" xlink:href="#b"/>
</g>
<g clip-path="url(#a)">
<use x="411.50628" y="355.260323" fill="#ffffff" stroke="#ffffff" xlink:href="#b"/>
</g>
<g clip-path="url(#a)">
<use x="449.399356" y="355.260323" fill="#ffffff" stroke="#ffffff" xlink:href="#b"/>
</g>
<g clip-path="url(#a)">
<use x="487.292432" y="355.260323" fill="#ffffff" stroke="#ffffff" xlink:href="#b"/>
</g>
<g clip-path="url(#a)">
<use x="525.185508" y="355.260323" fill="#ffffff" stroke="#ffffff" xlink:href="#b"/>
</g>
<g clip-path="url(#a)">
<use x="511.852759" y="18.073011" fill="#ffffff" stroke="#ffffff" xlink:href="#b"/>
</g>
<g clip-path="url(#a)">
<use x="511.852759" y="87.89628" fill="#ffffff" stroke="#ffffff" xlink:href="#b"/>
</g>
<g clip-path="url(#a)">
<use x="676.757811" y="355.260323" fill="#ffffff" stroke="#ffffff" xlink:href="#b"/>
</g>
<g clip-path="url(#a)">
<use x="638.864735" y="355.260323" fill="#ffffff" stroke="#ffffff" xlink:href="#b"/>
</g>
<g clip-path="url(#a)">
<use x="219.935731" y="156.164053" fill="#ffffff" stroke="#ffffff" xlink:href="#b"/>
</g>
<g clip-path="url(#a)">
<use x="306.247737" y="223.142113" fill="#ffffff" stroke="#ffffff" xlink:href="#b"/>
</g>
<g clip-path="url(#a)">
<use x="430.452818" y="223.142113" fill="#ffffff" stroke="#ffffff" xlink:href="#b"/>
</g>
<g clip-path="url(#a)">
<use x="563.078583" y="355.260323" fill="#ffffff" stroke="#ffffff" xlink:href="#b"/>
</g>
<g clip-path="url(#a)">
<use x="297.827053" y="289.201218" fill="#ffffff" stroke="#ffffff" xlink:href="#b"/>
</g>
<g clip-path="url(#a)">
<use x="335.720129" y="289.201218" fill="#ffffff" stroke="#ffffff" xlink:href="#b"/>
</g>
<g clip-path="url(#a)">
<use x="373.613205" y="289.201218" fill="#ffffff" stroke="#ffffff" xlink:href="#b"/>
</g>
<g clip-path="url(#a)">
<use x="600.971659" y="355.260323" fill="#ffffff" stroke="#ffffff" xlink:href="#b"/>
</g>
<g clip-path="url(#a)">
<use x="171.5168" y="289.201218" fill="#ffffff" stroke="#ffffff" xlink:href="#b"/>
</g>
<g clip-path="url(#a)">
<use x="146.25475" y="289.201218" fill="#ffffff" stroke="#ffffff" xlink:href="#b"/>
</g>
<g clip-path="url(#a)">
<use x="32.575523" y="289.201218" fill="#ffffff" stroke="#ffffff" xlink:href="#b"/>
</g>
<g clip-path="url(#a)">
<use x="70.468598" y="289.201218" fill="#ffffff" stroke="#ffffff" xlink:href="#b"/>
</g>
<g clip-path="url(#a)">
<use x="259.933977" y="289.201218" fill="#ffffff" stroke="#ffffff" xlink:href="#b"/>
</g>
<g clip-path="url(#a)">
<use x="411.50628" y="289.201218" fill="#ffffff" stroke="#ffffff" xlink:href="#b"/>
</g>
<g clip-path="url(#a)">
<use x="449.399356" y="289.201218" fill="#ffffff" stroke="#ffffff" xlink:href="#b"/>
</g>
<g clip-path="url(#a)">
<use x="487.292432" y="289.201218" fill="#ffffff" stroke="#ffffff" xlink:href="#b"/>
</g>
<g clip-path="url(#a)">
<use x="525.185508" y="289.201218" fill="#ffffff" stroke="#ffffff" xlink:href="#b"/>
</g>
<g clip-path="url(#a)">
<defs>
<path id="aa" d="m4.8906 31.391h26.312v-8h-26.312z"/>
</defs>
<g transform="translate(30.772 358.02) scale(.1 -.1)">
<use xlink:href="#aa"/>
</g>
</g>
<g clip-path="url(#a)">
<defs>
<path id="v" d="m17.922 72.906v-27.109h-8.2969v27.109zm18.453 0v-27.109h-8.2969v27.109z"/>
</defs>
<g transform="translate(68.169 358.02) scale(.1 -.1)">
<use xlink:href="#v"/>
</g>
</g>
<g clip-path="url(#a)">
<defs>
<path id="an" d="m8.5 21.578v33.109h8.9844v-32.766q0-7.7656 3.0156-11.656 3.0312-3.875 9.0938-3.875 7.2656 0 11.484 4.6406 4.2344 4.6406 4.2344 12.656v31h8.9844v-54.688h-8.9844v8.4062q-3.2656-4.9844-7.5938-7.4062-4.3125-2.4219-10.031-2.4219-9.4219 0-14.312 5.8594-4.875 5.8594-4.875 17.141z"/>
</defs>
<g transform="translate(99.074 358.02) scale(.1 -.1)">
<use xlink:href="#e"/>
<use x="60.849609" xlink:href="#an"/>
<use x="124.228516" xlink:href="#d"/>
</g>
</g>
<g clip-path="url(#a)">
<g transform="translate(137.94 358.02) scale(.1 -.1)">
<use xlink:href="#h"/>
<use x="97.412109" xlink:href="#k"/>
<use x="125.195312" xlink:href="#g"/>
</g>
</g>
<g clip-path="url(#a)">
<defs>
<path id="ad" d="m45.406 46.391v29.594h8.9844v-75.984h-8.9844v8.2031q-2.8281-4.875-7.1562-7.25-4.3125-2.375-10.375-2.375-9.9062 0-16.141 7.9062-6.2188 7.9219-6.2188 20.812t6.2188 20.797q6.2344 7.9062 16.141 7.9062 6.0625 0 10.375-2.375 4.3281-2.3594 7.1562-7.2344zm-30.609-19.094q0-9.9062 4.0781-15.547t11.203-5.6406 11.219 5.6406q4.1094 5.6406 4.1094 15.547t-4.1094 15.547q-4.0938 5.6406-11.219 5.6406t-11.203-5.6406-4.0781-15.547z"/>
</defs>
<g transform="translate(174.73 358.02) scale(.1 -.1)">
<use xlink:href="#ad"/>
<use x="63.476562" xlink:href="#d"/>
<use x="125" xlink:href="#i"/>
</g>
</g>
<g clip-path="url(#a)">
<defs>
<path id="ag" d="m59.516 10.406v19.578h-16.109v8.1094h25.875v-31.312q-5.7031-4.0469-12.594-6.125-6.875-2.0781-14.688-2.0781-17.094 0-26.75 9.9844-9.6406 10-9.6406 27.812 0 17.875 9.6406 27.859 9.6562 9.9844 26.75 9.9844 7.125 0 13.547-1.7656 6.4219-1.75 11.844-5.1719v-10.5q-5.4688 4.6406-11.625 6.9844t-12.938 2.3438q-13.391 0-20.109-7.4688-6.7031-7.4688-6.7031-22.266 0-14.75 6.7031-22.219 6.7188-7.4688 20.109-7.4688 5.2188 0 9.3125 0.90625 4.1094 0.90625 7.375 2.8125z"/>
<path id="ap" d="m37.109 75.984v-7.4844h-8.5938q-4.8281 0-6.7188-1.9531-1.875-1.9531-1.875-7.0312v-4.8281h14.797v-6.9844h-14.797v-47.703h-9.0312v47.703h-8.5938v6.9844h8.5938v3.8125q0 9.125 4.25 13.297 4.25 4.1875 13.469 4.1875z"/>
</defs>
<g transform="translate(201.24 358.02) scale(.1 -.1)">
<use xlink:href="#ag"/>
<use x="77.490234" xlink:href="#d"/>
<use x="139.013672" xlink:href="#ap"/>
<use x="174.21875" xlink:href="#l"/>
<use x="235.498047" xlink:href="#j"/>
<use x="263.28125" xlink:href="#j"/>
<use x="291.064453" xlink:href="#d"/>
<use x="352.587891" xlink:href="#i"/>
</g>
</g>
<g clip-path="url(#a)">
<defs>
<path id="f" d="m10.688 12.406h10.312v-12.406h-10.312z"/>
</defs>
<g transform="translate(258.34 358.02) scale(.1 -.1)">
<use xlink:href="#f"/>
</g>
</g>
<g clip-path="url(#a)">
<defs>
<path id="af" d="m28.609 0-27.828 72.906h10.297l23.109-61.375 23.141 61.375h10.25l-27.781-72.906z"/>
<path id="ac" d="m54.891 33.016v-33.016h-8.9844v32.719q0 7.7656-3.0312 11.609-3.0312 3.8594-9.0781 3.8594-7.2812 0-11.484-4.6406-4.2031-4.625-4.2031-12.641v-30.906h-9.0312v75.984h9.0312v-29.797q3.2344 4.9375 7.5938 7.375 4.375 2.4375 10.094 2.4375 9.4219 0 14.25-5.8281 4.8438-5.8281 4.8438-17.156z"/>
</defs>
<g transform="translate(277.91 358.02) scale(.1 -.1)">
<use xlink:href="#af"/>
<use x="68.298828" xlink:href="#d"/>
<use x="129.822266" xlink:href="#g"/>
<use x="170.904297" xlink:href="#d"/>
<use x="232.427734" xlink:href="#ac"/>
<use x="295.806641" xlink:href="#g"/>
<use x="336.888672" xlink:href="#d"/>
</g>
</g>
<g clip-path="url(#a)">
<defs>
<path id="ae" d="m48.781 52.594v-8.4062q-3.8125 2.1094-7.6406 3.1562t-7.7344 1.0469q-8.75 0-13.594-5.5469-4.8281-5.5312-4.8281-15.547t4.8281-15.562q4.8438-5.5312 13.594-5.5312 3.9062 0 7.7344 1.0469t7.6406 3.1562v-8.3125q-3.7656-1.75-7.7969-2.625-4.0156-0.89062-8.5625-0.89062-12.359 0-19.641 7.7656-7.2656 7.7656-7.2656 20.953 0 13.375 7.3438 21.031 7.3594 7.6719 20.156 7.6719 4.1406 0 8.0938-0.85938 3.9531-0.84375 7.6719-2.5469z"/>
</defs>
<g transform="translate(323.54 358.02) scale(.1 -.1)">
<use xlink:href="#h"/>
<use x="97.412109" xlink:href="#k"/>
<use x="125.195312" xlink:href="#ae"/>
<use x="180.175781" xlink:href="#ac"/>
</g>
</g>
<g clip-path="url(#a)">
<defs>
<path id="ab" d="m18.312 70.219v-15.531h18.5v-6.9844h-18.5v-29.688q0-6.6875 1.8281-8.5938t7.4531-1.9062h9.2188v-7.5156h-9.2188q-10.406 0-14.359 3.875-3.9531 3.8906-3.9531 14.141v29.688h-6.5938v6.9844h6.5938v15.531z"/>
<path id="ao" d="m30.609 48.391q-7.2188 0-11.422-5.6406t-4.2031-15.453 4.1719-15.453q4.1875-5.6406 11.453-5.6406 7.1875 0 11.375 5.6562 4.2031 5.6719 4.2031 15.438 0 9.7188-4.2031 15.406-4.1875 5.6875-11.375 5.6875zm0 7.6094q11.719 0 18.406-7.625 6.7031-7.6094 6.7031-21.078 0-13.422-6.7031-21.078-6.6875-7.6406-18.406-7.6406-11.766 0-18.438 7.6406-6.6562 7.6562-6.6562 21.078 0 13.469 6.6562 21.078 6.6719 7.625 18.438 7.625z"/>
<path id="am" d="m5.5156 54.688h42.672v-8.2031l-33.781-39.312h33.781v-7.1719h-43.891v8.2031l33.797 39.312h-32.578z"/>
</defs>
<g transform="translate(350.83 358.02) scale(.1 -.1)">
<use xlink:href="#ab"/>
<use x="39.208984" xlink:href="#g"/>
<use x="80.291016" xlink:href="#ao"/>
<use x="141.472656" xlink:href="#ab"/>
<use x="180.681641" xlink:href="#am"/>
<use x="233.171875" xlink:href="#ad"/>
<use x="296.648438" xlink:href="#d"/>
<use x="358.171875" xlink:href="#h"/>
</g>
</g>
<g clip-path="url(#a)">
<defs>
<path id="al" d="m15.094 12.406h9.9062v-12.406h-9.9062zm0 60.5h9.9062v-31.984l-0.96875-17.438h-7.9219l-1.0156 17.438z"/>
</defs>
<g transform="translate(409.5 358.02) scale(.1 -.1)">
<use xlink:href="#al"/>
</g>
</g>
<g clip-path="url(#a)">
<g transform="translate(447.1 358.02) scale(.1 -.1)">
<use xlink:href="#v"/>
</g>
</g>
<g clip-path="url(#a)">
<g transform="translate(485.49 358.02) scale(.1 -.1)">
<use xlink:href="#aa"/>
</g>
</g>
<g clip-path="url(#a)">
<g transform="translate(522.89 358.02) scale(.1 -.1)">
<use xlink:href="#v"/>
</g>
</g>
<g clip-path="url(#a)">
<defs>
<path id="c" d="m12.406 8.2969h16.109v55.625l-17.531-3.5156v8.9844l17.438 3.5156h9.8594v-64.609h16.109v-8.2969h-41.984z"/>
</defs>
<g transform="translate(503.9 20.832) scale(.1 -.1)">
<use xlink:href="#c"/>
<use x="63.623047" xlink:href="#f"/>
<use x="95.410156" xlink:href="#c"/>
</g>
</g>
<g clip-path="url(#a)">
<defs>
<path id="n" d="m19.188 8.2969h34.422v-8.2969h-46.281v8.2969q5.6094 5.8125 15.297 15.594 9.7031 9.7969 12.188 12.641 4.7344 5.3125 6.6094 9 1.8906 3.6875 1.8906 7.25 0 5.8125-4.0781 9.4688-4.0781 3.6719-10.625 3.6719-4.6406 0-9.7969-1.6094-5.1406-1.6094-11-4.8906v9.9688q5.9531 2.3906 11.125 3.6094 5.1875 1.2188 9.4844 1.2188 11.328 0 18.062-5.6719 6.7344-5.6562 6.7344-15.125 0-4.5-1.6875-8.5312-1.6719-4.0156-6.125-9.4844-1.2188-1.4219-7.7656-8.1875-6.5312-6.7656-18.453-18.922z"/>
</defs>
<g transform="translate(503.9 90.656) scale(.1 -.1)">
<use xlink:href="#c"/>
<use x="63.623047" xlink:href="#f"/>
<use x="95.410156" xlink:href="#n"/>
</g>
</g>
<g clip-path="url(#a)">
<defs>
<path id="m" d="m9.8125 72.906h9.8594v-72.906h-9.8594z"/>
<path id="r" d="m9.8125 72.906h14.703l18.594-49.609 18.703 49.609h14.703v-72.906h-9.625v64.016l-18.797-50h-9.9062l-18.797 50v-64.016h-9.5781z"/>
<path id="s" d="m9.8125 72.906h9.8594v-64.609h35.5v-8.2969h-45.359z"/>
<path id="t" d="m64.406 67.281v-10.391q-4.9844 4.6406-10.625 6.9219-5.6406 2.2969-11.984 2.2969-12.5 0-19.141-7.6406t-6.6406-22.094q0-14.406 6.6406-22.047t19.141-7.6406q6.3438 0 11.984 2.2969t10.625 6.9375v-10.312q-5.1719-3.5156-10.969-5.2812-5.7812-1.75-12.219-1.75-16.562 0-26.094 10.125-9.5156 10.141-9.5156 27.672 0 17.578 9.5156 27.703 9.5312 10.141 26.094 10.141 6.5312 0 12.312-1.7344 5.7969-1.7344 10.875-5.2031z"/>
</defs>
<g transform="translate(655.67 358.02) scale(.1 -.1)">
<use xlink:href="#m"/>
<use x="29.492188" xlink:href="#r"/>
<use x="115.771484" xlink:href="#p"/>
<use x="176.074219" xlink:href="#s"/>
<use x="231.787109" xlink:href="#m"/>
<use x="261.279297" xlink:href="#t"/>
<use x="331.103516" xlink:href="#m"/>
<use x="360.595703" xlink:href="#e"/>
</g>
</g>
<g clip-path="url(#a)">
<g transform="translate(617.78 358.02) scale(.1 -.1)">
<use xlink:href="#m"/>
<use x="29.492188" xlink:href="#r"/>
<use x="115.771484" xlink:href="#p"/>
<use x="176.074219" xlink:href="#s"/>
<use x="231.787109" xlink:href="#m"/>
<use x="261.279297" xlink:href="#t"/>
<use x="331.103516" xlink:href="#m"/>
<use x="360.595703" xlink:href="#e"/>
</g>
</g>
<g clip-path="url(#a)">
<g transform="translate(208.8 158.92) scale(.1 -.1)">
<use xlink:href="#c"/>
<use x="63.623047" xlink:href="#f"/>
<use x="95.410156" xlink:href="#c"/>
<use x="159.033203" xlink:href="#c"/>
</g>
</g>
<g clip-path="url(#a)">
<g transform="translate(295.11 225.9) scale(.1 -.1)">
<use xlink:href="#c"/>
<use x="63.623047" xlink:href="#f"/>
<use x="95.410156" xlink:href="#c"/>
<use x="159.033203" xlink:href="#n"/>
</g>
</g>
<g clip-path="url(#a)">
<defs>
<path id="z" d="m40.578 39.312q7.0781-1.5156 11.047-6.3125 3.9844-4.7812 3.9844-11.812 0-10.781-7.4219-16.703-7.4219-5.9062-21.094-5.9062-4.5781 0-9.4375 0.90625t-10.031 2.7188v9.5156q4.0938-2.3906 8.9688-3.6094 4.8906-1.2188 10.219-1.2188 9.2656 0 14.125 3.6562t4.8594 10.641q0 6.4531-4.5156 10.078-4.5156 3.6406-12.562 3.6406h-8.5v8.1094h8.8906q7.2656 0 11.125 2.9062t3.8594 8.375q0 5.6094-3.9844 8.6094-3.9688 3.0156-11.391 3.0156-4.0625 0-8.7031-0.89062-4.6406-0.875-10.203-2.7188v8.7812q5.625 1.5625 10.531 2.3438t9.25 0.78125q11.234 0 17.766-5.1094 6.5469-5.0938 6.5469-13.781 0-6.0625-3.4688-10.234t-9.8594-5.7812z"/>
</defs>
<g transform="translate(419.32 225.9) scale(.1 -.1)">
<use xlink:href="#c"/>
<use x="63.623047" xlink:href="#f"/>
<use x="95.410156" xlink:href="#c"/>
<use x="159.033203" xlink:href="#z"/>
</g>
</g>
<g clip-path="url(#a)">
<g transform="translate(541.99 358.02) scale(.1 -.1)">
<use xlink:href="#m"/>
<use x="29.492188" xlink:href="#r"/>
<use x="115.771484" xlink:href="#p"/>
<use x="176.074219" xlink:href="#s"/>
<use x="231.787109" xlink:href="#m"/>
<use x="261.279297" xlink:href="#t"/>
<use x="331.103516" xlink:href="#m"/>
<use x="360.595703" xlink:href="#e"/>
</g>
</g>
<g clip-path="url(#a)">
<defs>
<path id="y" d="m33.016 40.375q-6.6406 0-10.531-4.5469-3.875-4.5312-3.875-12.438 0-7.8594 3.875-12.438 3.8906-4.5625 10.531-4.5625t10.516 4.5625q3.875 4.5781 3.875 12.438 0 7.9062-3.875 12.438-3.875 4.5469-10.516 4.5469zm19.578 30.922v-8.9844q-3.7188 1.75-7.5 2.6719-3.7812 0.9375-7.5 0.9375-9.7656 0-14.922-6.5938-5.1406-6.5938-5.875-19.922 2.875 4.25 7.2188 6.5156 4.3594 2.2656 9.5781 2.2656 10.984 0 17.359-6.6719 6.375-6.6562 6.375-18.125 0-11.234-6.6406-18.031-6.6406-6.7812-17.672-6.7812-12.656 0-19.344 9.6875-6.6875 9.7031-6.6875 28.109 0 17.281 8.2031 27.562t22.016 10.281q3.7188 0 7.5-0.73438t7.8906-2.1875z"/>
</defs>
<g transform="translate(286.69 291.96) scale(.1 -.1)">
<use xlink:href="#c"/>
<use x="63.623047" xlink:href="#f"/>
<use x="95.410156" xlink:href="#c"/>
<use x="159.033203" xlink:href="#y"/>
</g>
</g>
<g clip-path="url(#a)">
<defs>
<path id="x" d="m8.2031 72.906h46.875v-4.2031l-26.469-68.703h-10.297l24.906 64.594h-35.016z"/>
</defs>
<g transform="translate(324.59 291.96) scale(.1 -.1)">
<use xlink:href="#c"/>
<use x="63.623047" xlink:href="#f"/>
<use x="95.410156" xlink:href="#c"/>
<use x="159.033203" xlink:href="#x"/>
</g>
</g>
<g clip-path="url(#a)">
<defs>
<path id="w" d="m31.781 34.625q-7.0312 0-11.062-3.7656-4.0156-3.7656-4.0156-10.344 0-6.5938 4.0156-10.359 4.0312-3.7656 11.062-3.7656t11.078 3.7812q4.0625 3.7969 4.0625 10.344 0 6.5781-4.0312 10.344-4.0156 3.7656-11.109 3.7656zm-9.8594 4.1875q-6.3438 1.5625-9.8906 5.9062-3.5312 4.3594-3.5312 10.609 0 8.7344 6.2188 13.812 6.2344 5.0781 17.062 5.0781 10.891 0 17.094-5.0781t6.2031-13.812q0-6.25-3.5469-10.609-3.5312-4.3438-9.8281-5.9062 7.125-1.6562 11.094-6.5 3.9844-4.8281 3.9844-11.797 0-10.609-6.4688-16.281-6.4688-5.6562-18.531-5.6562-12.047 0-18.531 5.6562-6.4688 5.6719-6.4688 16.281 0 6.9688 4 11.797 4.0156 4.8438 11.141 6.5zm-3.6094 15.578q0-5.6562 3.5312-8.8281 3.5469-3.1719 9.9375-3.1719 6.3594 0 9.9375 3.1719 3.5938 3.1719 3.5938 8.8281 0 5.6719-3.5938 8.8438-3.5781 3.1719-9.9375 3.1719-6.3906 0-9.9375-3.1719-3.5312-3.1719-3.5312-8.8438z"/>
</defs>
<g transform="translate(362.48 291.96) scale(.1 -.1)">
<use xlink:href="#c"/>
<use x="63.623047" xlink:href="#f"/>
<use x="95.410156" xlink:href="#c"/>
<use x="159.033203" xlink:href="#w"/>
</g>
</g>
<g clip-path="url(#a)">
<g transform="translate(579.89 358.02) scale(.1 -.1)">
<use xlink:href="#m"/>
<use x="29.492188" xlink:href="#r"/>
<use x="115.771484" xlink:href="#p"/>
<use x="176.074219" xlink:href="#s"/>
<use x="231.787109" xlink:href="#m"/>
<use x="261.279297" xlink:href="#t"/>
<use x="331.103516" xlink:href="#m"/>
<use x="360.595703" xlink:href="#e"/>
</g>
</g>
<g clip-path="url(#a)">
<defs>
<path id="ak" d="m31.781 66.406q-7.6094 0-11.453-7.5-3.8281-7.4844-3.8281-22.531 0-14.984 3.8281-22.484 3.8438-7.5 11.453-7.5 7.6719 0 11.5 7.5 3.8438 7.5 3.8438 22.484 0 15.047-3.8438 22.531-3.8281 7.5-11.5 7.5zm0 7.8125q12.266 0 18.734-9.7031 6.4688-9.6875 6.4688-28.141 0-18.406-6.4688-28.109-6.4688-9.6875-18.734-9.6875-12.25 0-18.719 9.6875-6.4688 9.7031-6.4688 28.109 0 18.453 6.4688 28.141 6.4688 9.7031 18.719 9.7031z"/>
</defs>
<g transform="translate(160.38 291.96) scale(.1 -.1)">
<use xlink:href="#c"/>
<use x="63.623047" xlink:href="#f"/>
<use x="95.410156" xlink:href="#n"/>
<use x="159.033203" xlink:href="#ak"/>
</g>
</g>
<g clip-path="url(#a)">
<g transform="translate(135.12 291.96) scale(.1 -.1)">
<use xlink:href="#c"/>
<use x="63.623047" xlink:href="#f"/>
<use x="95.410156" xlink:href="#n"/>
<use x="159.033203" xlink:href="#c"/>
</g>
</g>
<g clip-path="url(#a)">
<g transform="translate(21.443 291.96) scale(.1 -.1)">
<use xlink:href="#c"/>
<use x="63.623047" xlink:href="#f"/>
<use x="95.410156" xlink:href="#n"/>
<use x="159.033203" xlink:href="#n"/>
</g>
</g>
<g clip-path="url(#a)">
<g transform="translate(59.336 291.96) scale(.1 -.1)">
<use xlink:href="#c"/>
<use x="63.623047" xlink:href="#f"/>
<use x="95.410156" xlink:href="#n"/>
<use x="159.033203" xlink:href="#z"/>
</g>
</g>
<g clip-path="url(#a)">
<defs>
<path id="aj" d="m37.797 64.312-24.906-38.922h24.906zm-2.5938 8.5938h12.406v-47.516h10.406v-8.2031h-10.406v-17.188h-9.8125v17.188h-32.906v9.5156z"/>
</defs>
<g transform="translate(248.8 291.96) scale(.1 -.1)">
<use xlink:href="#c"/>
<use x="63.623047" xlink:href="#f"/>
<use x="95.410156" xlink:href="#n"/>
<use x="159.033203" xlink:href="#aj"/>
</g>
</g>
<g clip-path="url(#a)">
<defs>
<path id="ai" d="m10.797 72.906h38.719v-8.3125h-29.688v-17.859q2.1406 0.73438 4.2812 1.0938 2.1562 0.35938 4.3125 0.35938 12.203 0 19.328-6.6875 7.1406-6.6875 7.1406-18.109 0-11.766-7.3281-18.297-7.3281-6.5156-20.656-6.5156-4.5938 0-9.3594 0.78125-4.75 0.78125-9.8281 2.3438v9.9219q4.3906-2.3906 9.0781-3.5625t9.9062-1.1719q8.4531 0 13.375 4.4375 4.9375 4.4375 4.9375 12.062 0 7.6094-4.9375 12.047-4.9219 4.4531-13.375 4.4531-3.9531 0-7.8906-0.875-3.9219-0.875-8.0156-2.7344z"/>
</defs>
<g transform="translate(400.37 291.96) scale(.1 -.1)">
<use xlink:href="#c"/>
<use x="63.623047" xlink:href="#f"/>
<use x="95.410156" xlink:href="#n"/>
<use x="159.033203" xlink:href="#ai"/>
</g>
</g>
<g clip-path="url(#a)">
<g transform="translate(438.27 291.96) scale(.1 -.1)">
<use xlink:href="#c"/>
<use x="63.623047" xlink:href="#f"/>
<use x="95.410156" xlink:href="#n"/>
<use x="159.033203" xlink:href="#y"/>
</g>
</g>
<g clip-path="url(#a)">
<g transform="translate(476.16 291.96) scale(.1 -.1)">
<use xlink:href="#c"/>
<use x="63.623047" xlink:href="#f"/>
<use x="95.410156" xlink:href="#n"/>
<use x="159.033203" xlink:href="#x"/>
</g>
</g>
<g clip-path="url(#a)">
<g transform="translate(514.05 291.96) scale(.1 -.1)">
<use xlink:href="#c"/>
<use x="63.623047" xlink:href="#f"/>
<use x="95.410156" xlink:href="#n"/>
<use x="159.033203" xlink:href="#w"/>
</g>
</g>
<defs>
<clipPath id="a">
<rect width="709.33" height="373.33"/>
</clipPath>
</defs>
</svg>
