<?xml version="1.0" encoding="UTF-8"?>
<!DOCTYPE svg  PUBLIC '-//W3C//DTD SVG 1.1//EN'  'http://www.w3.org/Graphics/SVG/1.1/DTD/svg11.dtd'>
<svg width="608pt" height="320pt" version="1.1" viewBox="0 0 608 320" xmlns="http://www.w3.org/2000/svg" xmlns:xlink="http://www.w3.org/1999/xlink">
<defs>
<style type="text/css">*{stroke-linecap:butt;stroke-linejoin:round;}</style>
</defs>
<path d="m0 320h608v-320h-608z" fill="#fff"/>
<g fill="none" stroke="#000">
<path d="m191.26 14.545v48.926" clip-path="url(#a)"/>
<path d="m191.26 63.472 389.11 48.828" clip-path="url(#a)"/>
<path d="m191.26 63.472 389.11 48.828" clip-path="url(#a)"/>
<path d="m191.26 63.472v48.828" clip-path="url(#a)"/>
<path d="m191.26 112.3-163.62 97.244" clip-path="url(#a)"/>
<path d="m191.26 112.3-92.393 48.705" clip-path="url(#a)"/>
<path d="m191.26 112.3 30.119 48.705" clip-path="url(#a)"/>
<path d="m191.26 112.3 272.29 97.244" clip-path="url(#a)"/>
<path d="m191.26 112.3-129.43 145.53" clip-path="url(#a)"/>
<path d="m191.26 112.3-32.561 145.53" clip-path="url(#a)"/>
<path d="m191.26 112.3 115.59 145.53" clip-path="url(#a)"/>
<path d="m27.636 209.54 17.095 48.286" clip-path="url(#a)"/>
<path d="m27.636 209.54 17.095 48.286" clip-path="url(#a)"/>
<path d="m27.636 209.54 17.095 48.286" clip-path="url(#a)"/>
<path d="m27.636 209.54v48.286" clip-path="url(#a)"/>
<path d="m98.864 161 25.642 48.54" clip-path="url(#a)"/>
<path d="m98.864 161 25.642 48.54" clip-path="url(#a)"/>
<path d="m98.864 161v48.54" clip-path="url(#a)"/>
<path d="m221.38 161 34.189 48.54" clip-path="url(#a)"/>
<path d="m221.38 161 34.189 48.54" clip-path="url(#a)"/>
<path d="m221.38 161v48.54" clip-path="url(#a)"/>
<path d="m463.55 209.54-99.719 48.286" clip-path="url(#a)"/>
<path d="m463.55 209.54-37.038 48.286" clip-path="url(#a)"/>
<path d="m463.55 209.54 31.34 48.286" clip-path="url(#a)"/>
<path d="m463.55 209.54 105.42 48.286" clip-path="url(#a)"/>
<path d="m363.83 257.83v47.624" clip-path="url(#a)"/>
<path d="m426.51 257.83v47.624" clip-path="url(#a)"/>
<path d="m221.38 209.54-22.793 48.286" clip-path="url(#a)"/>
<path d="m221.38 209.54 22.793 48.286" clip-path="url(#a)"/>
<path d="m198.58 257.83v47.624" clip-path="url(#a)"/>
<path d="m244.17 257.83v47.624" clip-path="url(#a)"/>
<path d="m98.864 209.54-14.246 48.286" clip-path="url(#a)"/>
<path d="m98.864 209.54 14.246 48.286" clip-path="url(#a)"/>
<path d="m84.619 257.83v47.624" clip-path="url(#a)"/>
<path d="m113.11 257.83v47.624" clip-path="url(#a)"/>
<path d="m27.636 257.83v47.624" clip-path="url(#a)"/>
<path d="m61.826 257.83v47.624" clip-path="url(#a)"/>
<path d="m158.7 257.83v47.624" clip-path="url(#a)"/>
<path d="m306.85 257.83v47.624" clip-path="url(#a)"/>
<path d="m494.89 257.83v47.624" clip-path="url(#a)"/>
<path d="m568.97 257.83v47.624" clip-path="url(#a)"/>
</g>
<path d="m184.99 36.001v6.0162q0 2.4 2.4 2.4h7.7425q2.4 0 2.4-2.4v-6.0162q0-2.4-2.4-2.4h-7.7425q-2.4 0-2.4 2.4z" clip-path="url(#a)" fill="#fff" stroke="#fff"/>
<g clip-path="url(#a)">
<defs>
<path id="v" d="m9.8125 72.906h9.8594v-29.891h35.844v29.891h9.8594v-72.906h-9.8594v34.719h-35.844v-34.719h-9.8594z"/>
</defs>
<g transform="translate(189.05 36.001) rotate(90) scale(.08 -.08)">
<use xlink:href="#v"/>
</g>
</g>
<path d="m382.64 93.808 4.7862 0.60061q2.3813 0.29883 2.6802-2.0825l0.96403-7.6822q0.29883-2.3813-2.0825-2.6802l-4.7862-0.60061q-2.3813-0.29883-2.6802 2.0825l-0.96402 7.6822q-0.29883 2.3813 2.0825 2.6802z" clip-path="url(#a)" fill="#fff" stroke="#fff"/>
<g clip-path="url(#a)">
<defs>
<path id="l" d="m19.672 64.797v-27.391h12.406q6.8906 0 10.641 3.5625 3.7656 3.5625 3.7656 10.156 0 6.5469-3.7656 10.109-3.75 3.5625-10.641 3.5625zm-9.8594 8.1094h22.266q12.266 0 18.531-5.5469 6.2812-5.5469 6.2812-16.234 0-10.797-6.2812-16.312-6.2656-5.5156-18.531-5.5156h-12.406v-29.297h-9.8594z"/>
</defs>
<g transform="translate(383.14 89.776) rotate(7.1525) scale(.08 -.08)">
<use xlink:href="#l"/>
</g>
</g>
<path d="m382.31 93.768 5.4299 0.68139q2.3813 0.29883 2.6802-2.0825l0.96402-7.6822q0.29883-2.3813-2.0825-2.6802l-5.4299-0.68139q-2.3813-0.29883-2.6802 2.0825l-0.96402 7.6822q-0.29883 2.3813 2.0825 2.6802z" clip-path="url(#a)" fill="#fff" stroke="#fff"/>
<g clip-path="url(#a)">
<defs>
<path id="q" d="m34.188 63.188-13.391-36.281h26.812zm-5.5781 9.7188h11.188l27.781-72.906h-10.25l-6.6406 18.703h-32.859l-6.6406-18.703h-10.406z"/>
</defs>
<g transform="translate(382.82 89.736) rotate(7.1525) scale(.08 -.08)">
<use xlink:href="#q"/>
</g>
</g>
<path d="m184.99 85.15v5.4725q0 2.4 2.4 2.4h7.7425q2.4 0 2.4-2.4v-5.4725q0-2.4-2.4-2.4h-7.7425q-2.4 0-2.4 2.4z" clip-path="url(#a)" fill="#fff" stroke="#fff"/>
<g clip-path="url(#a)">
<g transform="translate(189.05 85.15) rotate(90) scale(.08 -.08)">
<use xlink:href="#q"/>
</g>
</g>
<path d="m110.06 167.85 5.1718-3.0737q2.0631-1.2262 0.83695-3.2893l-3.9557-6.6557q-1.2262-2.0631-3.2893-0.83695l-5.1718 3.0737q-2.0631 1.2262-0.83695 3.2893l3.9557 6.6557q1.2262 2.0631 3.2893 0.83695z" clip-path="url(#a)" fill="#fff" stroke="#fff"/>
<g clip-path="url(#a)">
<g transform="translate(107.99 164.36) rotate(-30.724) scale(.08 -.08)">
<use xlink:href="#v"/>
</g>
</g>
<path d="m145.32 143.6 5.3221-2.8055q2.1231-1.1192 1.0039-3.2423l-3.6105-6.8491q-1.1192-2.1231-3.2423-1.0039l-5.3221 2.8055q-2.1231 1.1192-1.0039 3.2423l3.6105 6.8491q1.1192 2.1231 3.2423 1.0039z" clip-path="url(#a)" fill="#fff" stroke="#fff"/>
<g clip-path="url(#a)">
<g transform="translate(143.43 140.01) rotate(-27.796) scale(.08 -.08)">
<use xlink:href="#v"/>
</g>
</g>
<path d="m199.4 137.39 3.1643 5.1169q1.2623 2.0412 3.3035 0.77893l6.5851-4.0722q2.0412-1.2623 0.77893-3.3035l-3.1643-5.1169q-1.2623-2.0412-3.3035-0.77893l-6.5851 4.0722q-2.0412 1.2623-0.77893 3.3035z" clip-path="url(#a)" fill="#fff" stroke="#fff"/>
<g clip-path="url(#a)">
<g transform="translate(202.86 135.25) rotate(58.267) scale(.08 -.08)">
<use xlink:href="#v"/>
</g>
</g>
<path d="m322.46 165.82 5.6658 2.0234q2.2602 0.80718 3.0674-1.453l2.604-7.2915q0.80718-2.2602-1.453-3.0674l-5.6658-2.0234q-2.2602-0.80718-3.0674 1.453l-2.604 7.2915q-0.80718 2.2602 1.453 3.0674z" clip-path="url(#a)" fill="#fff" stroke="#fff"/>
<g clip-path="url(#a)">
<g transform="translate(323.83 161.99) rotate(19.653) scale(.08 -.08)">
<use xlink:href="#v"/>
</g>
</g>
<path d="m129.28 191.42 3.891-4.375q1.595-1.7934-0.1984-3.3883l-5.7854-5.1454q-1.7934-1.595-3.3883 0.1984l-3.891 4.375q-1.595 1.7934 0.1984 3.3883l5.7854 5.1454q1.7934 1.595 3.3883-0.1984z" clip-path="url(#a)" fill="#fff" stroke="#fff"/>
<g clip-path="url(#a)">
<defs>
<path id="u" d="m8.6875 72.906h9.9219v-44.297q0-11.719 4.2344-16.875 4.25-5.1406 13.781-5.1406 9.4688 0 13.719 5.1406 4.25 5.1562 4.25 16.875v44.297h9.9062v-45.516q0-14.25-7.0625-21.531-7.0469-7.2812-20.812-7.2812-13.828 0-20.891 7.2812-7.0469 7.2812-7.0469 21.531z"/>
</defs>
<g transform="translate(126.25 188.72) rotate(-48.351) scale(.08 -.08)">
<use xlink:href="#u"/>
</g>
</g>
<path d="m180.46 189.29 1.2784-5.7137q0.52402-2.3421-1.8181-2.8661l-7.5557-1.6905q-2.3421-0.52402-2.8661 1.8181l-1.2784 5.7137q-0.52402 2.3421 1.8181 2.8661l7.5557 1.6905q2.3421 0.52402 2.8661-1.8181z" clip-path="url(#a)" fill="#fff" stroke="#fff"/>
<g clip-path="url(#a)">
<g transform="translate(176.49 188.4) rotate(-77.388) scale(.08 -.08)">
<use xlink:href="#u"/>
</g>
</g>
<path d="m242.32 186.67 3.6416 4.5847q1.4927 1.8793 3.372 0.38661l6.0628-4.8155q1.8793-1.4927 0.38661-3.372l-3.6416-4.5847q-1.4927-1.8793-3.372-0.38661l-6.0628 4.8155q-1.8793 1.4927-0.38661 3.372z" clip-path="url(#a)" fill="#fff" stroke="#fff"/>
<g clip-path="url(#a)">
<g transform="translate(245.5 184.15) rotate(51.541) scale(.08 -.08)">
<use xlink:href="#u"/>
</g>
</g>
<path d="m29.467 233.51 1.6098 4.5472q0.80095 2.2624 3.0634 1.4615l7.2986-2.5839q2.2624-0.80095 1.4615-3.0634l-1.6098-4.5472q-0.80095-2.2624-3.0634-1.4615l-7.2986 2.5839q-2.2624 0.80095-1.4615 3.0634z" clip-path="url(#a)" fill="#fff" stroke="#fff"/>
<g clip-path="url(#a)">
<g transform="translate(33.298 232.15) rotate(70.505) scale(.08 -.08)">
<use xlink:href="#l"/>
</g>
</g>
<path d="m29.359 233.2 1.8263 5.1588q0.80095 2.2624 3.0634 1.4615l7.2986-2.5839q2.2624-0.80095 1.4615-3.0634l-1.8263-5.1588q-0.80095-2.2624-3.0634-1.4615l-7.2986 2.5839q-2.2624 0.80095-1.4615 3.0634z" clip-path="url(#a)" fill="#fff" stroke="#fff"/>
<g clip-path="url(#a)">
<g transform="translate(33.19 231.84) rotate(70.505) scale(.08 -.08)">
<use xlink:href="#q"/>
</g>
</g>
<path d="m29.359 233.2 1.8263 5.1588q0.80095 2.2624 3.0634 1.4615l7.2986-2.5839q2.2624-0.80095 1.4615-3.0634l-1.8263-5.1588q-0.80095-2.2624-3.0634-1.4615l-7.2986 2.5839q-2.2624 0.80095-1.4615 3.0634z" clip-path="url(#a)" fill="#fff" stroke="#fff"/>
<g clip-path="url(#a)">
<g transform="translate(33.19 231.84) rotate(70.505) scale(.08 -.08)">
<use xlink:href="#q"/>
</g>
</g>
<path d="m21.365 230.61v6.16q0 2.4 2.4 2.4h7.7425q2.4 0 2.4-2.4v-6.16q0-2.4-2.4-2.4h-7.7425q-2.4 0-2.4 2.4z" clip-path="url(#a)" fill="#fff" stroke="#fff"/>
<g clip-path="url(#a)">
<defs>
<path id="w" d="m19.672 64.797v-56.688h11.922q15.094 0 22.094 6.8281 7 6.8438 7 21.594 0 14.641-7 21.453t-22.094 6.8125zm-9.8594 8.1094h20.266q21.188 0 31.094-8.8125 9.9219-8.8125 9.9219-27.562 0-18.859-9.9688-27.703-9.9531-8.8281-31.047-8.8281h-20.266z"/>
</defs>
<g transform="translate(25.429 230.61) rotate(90) scale(.08 -.08)">
<use xlink:href="#w"/>
</g>
</g>
<path d="m105.01 186.07 2.2532 4.2652q1.121 2.1221 3.2431 1.0011l6.846-3.6165q2.1221-1.121 1.0011-3.2431l-2.2532-4.2652q-1.121-2.1221-3.2431-1.0011l-6.846 3.6165q-2.1221 1.121-1.0011 3.2431z" clip-path="url(#a)" fill="#fff" stroke="#fff"/>
<g clip-path="url(#a)">
<g transform="translate(108.61 184.17) rotate(62.154) scale(.08 -.08)">
<use xlink:href="#l"/>
</g>
</g>
<path d="m104.86 185.78 2.5562 4.8388q1.121 2.1221 3.2431 1.0011l6.846-3.6165q2.1221-1.121 1.0011-3.2431l-2.5562-4.8388q-1.121-2.1221-3.2431-1.0011l-6.846 3.6165q-2.1221 1.121-1.0011 3.2431z" clip-path="url(#a)" fill="#fff" stroke="#fff"/>
<g clip-path="url(#a)">
<g transform="translate(108.46 183.89) rotate(62.154) scale(.08 -.08)">
<use xlink:href="#q"/>
</g>
</g>
<path d="m92.593 182.54v5.4725q0 2.4 2.4 2.4h7.7425q2.4 0 2.4-2.4v-5.4725q0-2.4-2.4-2.4h-7.7425q-2.4 0-2.4 2.4z" clip-path="url(#a)" fill="#fff" stroke="#fff"/>
<g clip-path="url(#a)">
<g transform="translate(96.657 182.54) rotate(90) scale(.08 -.08)">
<use xlink:href="#q"/>
</g>
</g>
<path d="m231.95 186.91 2.7778 3.9437q1.382 1.9621 3.3442 0.58009l6.3299-4.4585q1.9621-1.382 0.58009-3.3442l-2.7778-3.9437q-1.382-1.9621-3.3442-0.58009l-6.3299 4.4585q-1.9621 1.382-0.58009 3.3442z" clip-path="url(#a)" fill="#fff" stroke="#fff"/>
<g clip-path="url(#a)">
<g transform="translate(235.28 184.57) rotate(54.841) scale(.08 -.08)">
<use xlink:href="#l"/>
</g>
</g>
<path d="m231.77 186.65 3.1513 4.4741q1.382 1.9621 3.3442 0.58009l6.3299-4.4585q1.9621-1.382 0.58009-3.3442l-3.1513-4.4741q-1.382-1.9621-3.3442-0.58009l-6.3299 4.4585q-1.9621 1.382-0.58009 3.3442z" clip-path="url(#a)" fill="#fff" stroke="#fff"/>
<g clip-path="url(#a)">
<g transform="translate(235.09 184.31) rotate(54.841) scale(.08 -.08)">
<use xlink:href="#q"/>
</g>
</g>
<path d="m215.1 182.54v5.4725q0 2.4 2.4 2.4h7.7425q2.4 0 2.4-2.4v-5.4725q0-2.4-2.4-2.4h-7.7425q-2.4 0-2.4 2.4z" clip-path="url(#a)" fill="#fff" stroke="#fff"/>
<g clip-path="url(#a)">
<g transform="translate(219.17 182.54) rotate(90) scale(.08 -.08)">
<use xlink:href="#q"/>
</g>
</g>
<path d="m414.14 240.44 4.571-2.2134q2.1601-1.046 1.1141-3.206l-3.3743-6.9685q-1.046-2.1601-3.206-1.1141l-4.571 2.2134q-2.1601 1.046-1.1141 3.206l3.3743 6.9685q1.046 2.1601 3.206 1.1141z" clip-path="url(#a)" fill="#fff" stroke="#fff"/>
<g clip-path="url(#a)">
<defs>
<path id="ai" d="m53.516 70.516v-9.625q-5.6094 2.6875-10.594 4-4.9844 1.3281-9.625 1.3281-8.0469 0-12.422-3.125t-4.375-8.8906q0-4.8438 2.9062-7.3125 2.9062-2.4531 11.016-3.9688l5.9531-1.2188q11.031-2.1094 16.281-7.4062t5.25-14.172q0-10.609-7.1094-16.078-7.0938-5.4688-20.812-5.4688-5.1719 0-11.016 1.1719-5.8281 1.1719-12.078 3.4688v10.156q6-3.3594 11.766-5.0781 5.7656-1.7031 11.328-1.7031 8.4375 0 13.031 3.3125 4.5938 3.3281 4.5938 9.4844 0 5.3594-3.2969 8.3906t-10.812 4.5469l-6.0156 1.1719q-11.031 2.1875-15.969 6.875-4.9219 4.6875-4.9219 13.047 0 9.6719 6.8125 15.234t18.766 5.5625q5.1406 0 10.453-0.9375 5.3281-0.92188 10.891-2.7656z"/>
</defs>
<g transform="translate(412.37 236.78) rotate(-25.837) scale(.08 -.08)">
<use xlink:href="#ai"/>
</g>
</g>
<path d="m448.34 239.68 3.3307-4.3422q1.4607-1.9043-0.44359-3.365l-6.1433-4.7123q-1.9043-1.4607-3.365 0.44359l-3.3307 4.3422q-1.4607 1.9043 0.44359 3.365l6.1433 4.7123q1.9043 1.4607 3.365-0.44359z" clip-path="url(#a)" fill="#fff" stroke="#fff"/>
<g clip-path="url(#a)">
<g transform="translate(445.12 237.2) rotate(-52.51) scale(.08 -.08)">
<use xlink:href="#q"/>
</g>
</g>
<path d="m472.37 234.65 3.1876 4.9112q1.3066 2.0131 3.3198 0.70651l6.4945-4.2152q2.0131-1.3066 0.70651-3.3198l-3.1876-4.9112q-1.3066-2.0131-3.3198-0.70651l-6.4945 4.2152q-2.0131 1.3066-0.70651 3.3198z" clip-path="url(#a)" fill="#fff" stroke="#fff"/>
<g clip-path="url(#a)">
<g transform="translate(475.77 232.43) rotate(57.014) scale(.08 -.08)">
<use xlink:href="#u"/>
</g>
</g>
<path d="m510.99 238.17 5.3231 2.4383q2.182 0.99946 3.1815-1.1825l3.2243-7.0392q0.99946-2.182-1.1825-3.1814l-5.3231-2.4383q-2.182-0.99946-3.1815 1.1825l-3.2243 7.0392q-0.99946 2.182 1.1825 3.1815z" clip-path="url(#a)" fill="#fff" stroke="#fff"/>
<g clip-path="url(#a)">
<g transform="translate(512.68 234.48) rotate(24.61) scale(.08 -.08)">
<use xlink:href="#u"/>
</g>
</g>
<path d="m357.56 264.74v33.808q0 2.4 2.4 2.4h7.7425q2.4 0 2.4-2.4v-33.808q0-2.4-2.4-2.4h-7.7425q-2.4 0-2.4 2.4z" clip-path="url(#a)" fill="#fff" stroke="#fff"/>
<g clip-path="url(#a)">
<defs>
<path id="f" d="m-0.29688 72.906h61.672v-8.3125h-25.875v-64.594h-9.9062v64.594h-25.891z"/>
<path id="g" d="m56.203 29.594v-4.3906h-41.312q0.59375-9.2812 5.5938-14.141t13.938-4.8594q5.1719 0 10.031 1.2656t9.6562 3.8125v-8.5q-4.8438-2.0469-9.9219-3.125t-10.297-1.0781q-13.094 0-20.734 7.6094-7.6406 7.625-7.6406 20.625 0 13.422 7.25 21.297 7.25 7.8906 19.562 7.8906 11.031 0 17.453-7.1094 6.4219-7.0938 6.4219-19.297zm-8.9844 2.6406q-0.09375 7.3594-4.125 11.75-4.0312 4.4062-10.672 4.4062-7.5156 0-12.031-4.25t-5.2031-11.969z"/>
<path id="k" d="m41.109 46.297q-1.5156 0.875-3.2969 1.2812-1.7812 0.42188-3.9219 0.42188-7.625 0-11.703-4.9531t-4.0781-14.234v-28.812h-9.0312v54.688h9.0312v-8.5q2.8438 4.9844 7.375 7.3906 4.5469 2.4219 11.047 2.4219 0.92188 0 2.0469-0.125 1.125-0.10938 2.4844-0.35938z"/>
<path id="m" d="m52 44.188q3.375 6.0625 8.0625 8.9375t11.031 2.875q8.5469 0 13.188-5.9844 4.6406-5.9688 4.6406-17v-33.016h-9.0312v32.719q0 7.8594-2.7969 11.656-2.7812 3.8125-8.4844 3.8125-6.9844 0-11.047-4.6406-4.0469-4.625-4.0469-12.641v-30.906h-9.0312v32.719q0 7.9062-2.7812 11.688t-8.5938 3.7812q-6.8906 0-10.953-4.6562-4.0469-4.6562-4.0469-12.625v-30.906h-9.0312v54.688h9.0312v-8.5q3.0781 5.0312 7.375 7.4219t10.203 2.3906q5.9688 0 10.141-3.0312 4.1719-3.0156 6.1719-8.7812z"/>
<path id="h" d="m9.4219 54.688h8.9844v-54.688h-8.9844zm0 21.297h8.9844v-11.391h-8.9844z"/>
<path id="i" d="m54.891 33.016v-33.016h-8.9844v32.719q0 7.7656-3.0312 11.609-3.0312 3.8594-9.0781 3.8594-7.2812 0-11.484-4.6406-4.2031-4.625-4.2031-12.641v-30.906h-9.0312v54.688h9.0312v-8.5q3.2344 4.9375 7.5938 7.375 4.375 2.4375 10.094 2.4375 9.4219 0 14.25-5.8281 4.8438-5.8281 4.8438-17.156z"/>
<path id="j" d="m34.281 27.484q-10.891 0-15.094-2.4844t-4.2031-8.5q0-4.7812 3.1562-7.5938 3.1562-2.7969 8.5625-2.7969 7.4844 0 12 5.2969t4.5156 14.078v2zm17.922 3.7188v-31.203h-8.9844v8.2969q-3.0781-4.9688-7.6719-7.3438t-11.234-2.375q-8.3906 0-13.359 4.7188-4.9531 4.7188-4.9531 12.625 0 9.2188 6.1719 13.906 6.1875 4.6875 18.438 4.6875h12.609v0.89062q0 6.2031-4.0781 9.5938t-11.453 3.3906q-4.6875 0-9.1406-1.125-4.4375-1.125-8.5312-3.375v8.3125q4.9219 1.9062 9.5625 2.8438 4.6406 0.95312 9.0312 0.95312 11.875 0 17.734-6.1562 5.8594-6.1406 5.8594-18.641z"/>
<path id="n" d="m9.4219 75.984h8.9844v-75.984h-8.9844z"/>
</defs>
<g transform="translate(361.62 264.74) rotate(90) scale(.08 -.08)">
<use xlink:href="#f"/>
<use x="44.083984" xlink:href="#g"/>
<use x="105.607422" xlink:href="#k"/>
<use x="144.970703" xlink:href="#m"/>
<use x="242.382812" xlink:href="#h"/>
<use x="270.166016" xlink:href="#i"/>
<use x="333.544922" xlink:href="#j"/>
<use x="394.824219" xlink:href="#n"/>
</g>
</g>
<path d="m420.24 264.74v33.808q0 2.4 2.4 2.4h7.7425q2.4 0 2.4-2.4v-33.808q0-2.4-2.4-2.4h-7.7425q-2.4 0-2.4 2.4z" clip-path="url(#a)" fill="#fff" stroke="#fff"/>
<g clip-path="url(#a)">
<g transform="translate(424.3 264.74) rotate(90) scale(.08 -.08)">
<use xlink:href="#f"/>
<use x="44.083984" xlink:href="#g"/>
<use x="105.607422" xlink:href="#k"/>
<use x="144.970703" xlink:href="#m"/>
<use x="242.382812" xlink:href="#h"/>
<use x="270.166016" xlink:href="#i"/>
<use x="333.544922" xlink:href="#j"/>
<use x="394.824219" xlink:href="#n"/>
</g>
</g>
<path d="m214.31 239.21 2.6882-5.6949q1.0245-2.1704-1.1459-3.1948l-7.0016-3.305q-2.1704-1.0245-3.1948 1.1459l-2.6882 5.6949q-1.0245 2.1704 1.1459 3.1948l7.0016 3.305q2.1704 1.0245 3.1948-1.1459z" clip-path="url(#a)" fill="#fff" stroke="#fff"/>
<g clip-path="url(#a)">
<defs>
<path id="aa" d="m39.406 66.219q-10.75 0-17.078-8.0156-6.3125-8-6.3125-21.828 0-13.766 6.3125-21.781 6.3281-8 17.078-8 10.734 0 17.016 8 6.2812 8.0156 6.2812 21.781 0 13.828-6.2812 21.828-6.2812 8.0156-17.016 8.0156zm13.812-64.906 13-14.203h-11.922l-10.797 11.672q-1.6094-0.09375-2.4688-0.14062-0.84375-0.0625-1.625-0.0625-15.375 0-24.594 10.281-9.2031 10.281-9.2031 27.516 0 17.281 9.2031 27.562 9.2188 10.281 24.594 10.281 15.328 0 24.5-10.281 9.1875-10.281 9.1875-27.562 0-12.688-5.1094-21.734-5.0938-9.0312-14.766-13.328z"/>
</defs>
<g transform="translate(210.63 237.48) rotate(-64.731) scale(.08 -.08)">
<use xlink:href="#aa"/>
</g>
</g>
<path d="m225.91 233.84 2.3846 5.0517q1.0245 2.1704 3.1948 1.1459l7.0016-3.305q2.1704-1.0245 1.1459-3.1948l-2.3846-5.0517q-1.0245-2.1704-3.1948-1.1459l-7.0016 3.305q-2.1704 1.0245-1.1459 3.1948z" clip-path="url(#a)" fill="#fff" stroke="#fff"/>
<g clip-path="url(#a)">
<defs>
<path id="o" d="m64.406 67.281v-10.391q-4.9844 4.6406-10.625 6.9219-5.6406 2.2969-11.984 2.2969-12.5 0-19.141-7.6406t-6.6406-22.094q0-14.406 6.6406-22.047t19.141-7.6406q6.3438 0 11.984 2.2969t10.625 6.9375v-10.312q-5.1719-3.5156-10.969-5.2812-5.7812-1.75-12.219-1.75-16.562 0-26.094 10.125-9.5156 10.141-9.5156 27.672 0 17.578 9.5156 27.703 9.5312 10.141 26.094 10.141 6.5312 0 12.312-1.7344 5.7969-1.7344 10.875-5.2031z"/>
</defs>
<g transform="translate(229.58 232.1) rotate(64.731) scale(.08 -.08)">
<use xlink:href="#o"/>
</g>
</g>
<path d="m192.31 264.74v33.808q0 2.4 2.4 2.4h7.7425q2.4 0 2.4-2.4v-33.808q0-2.4-2.4-2.4h-7.7425q-2.4 0-2.4 2.4z" clip-path="url(#a)" fill="#fff" stroke="#fff"/>
<g clip-path="url(#a)">
<g transform="translate(196.38 264.74) rotate(90) scale(.08 -.08)">
<use xlink:href="#f"/>
<use x="44.083984" xlink:href="#g"/>
<use x="105.607422" xlink:href="#k"/>
<use x="144.970703" xlink:href="#m"/>
<use x="242.382812" xlink:href="#h"/>
<use x="270.166016" xlink:href="#i"/>
<use x="333.544922" xlink:href="#j"/>
<use x="394.824219" xlink:href="#n"/>
</g>
</g>
<path d="m237.9 264.74v33.808q0 2.4 2.4 2.4h7.7425q2.4 0 2.4-2.4v-33.808q0-2.4-2.4-2.4h-7.7425q-2.4 0-2.4 2.4z" clip-path="url(#a)" fill="#fff" stroke="#fff"/>
<g clip-path="url(#a)">
<g transform="translate(241.96 264.74) rotate(90) scale(.08 -.08)">
<use xlink:href="#f"/>
<use x="44.083984" xlink:href="#g"/>
<use x="105.607422" xlink:href="#k"/>
<use x="144.970703" xlink:href="#m"/>
<use x="242.382812" xlink:href="#h"/>
<use x="270.166016" xlink:href="#i"/>
<use x="333.544922" xlink:href="#j"/>
<use x="394.824219" xlink:href="#n"/>
</g>
</g>
<path d="m96.865 238.48 1.782-6.0401q0.67912-2.3019-1.6228-2.981l-7.4261-2.1909q-2.3019-0.67912-2.981 1.6228l-1.782 6.0401q-0.67912 2.3019 1.6228 2.981l7.4261 2.1909q2.3019 0.67912 2.981-1.6228z" clip-path="url(#a)" fill="#fff" stroke="#fff"/>
<g clip-path="url(#a)">
<g transform="translate(92.968 237.33) rotate(-73.563) scale(.08 -.08)">
<use xlink:href="#aa"/>
</g>
</g>
<path d="m99.182 232.78 1.5807 5.3579q0.67912 2.3019 2.981 1.6228l7.4261-2.1909q2.3019-0.67912 1.6228-2.981l-1.5807-5.3579q-0.67912-2.3019-2.981-1.6228l-7.4261 2.1909q-2.3019 0.67912-1.6228 2.981z" clip-path="url(#a)" fill="#fff" stroke="#fff"/>
<g clip-path="url(#a)">
<g transform="translate(103.08 231.63) rotate(73.563) scale(.08 -.08)">
<use xlink:href="#o"/>
</g>
</g>
<path d="m78.347 264.74v33.808q0 2.4 2.4 2.4h7.7425q2.4 0 2.4-2.4v-33.808q0-2.4-2.4-2.4h-7.7425q-2.4 0-2.4 2.4z" clip-path="url(#a)" fill="#fff" stroke="#fff"/>
<g clip-path="url(#a)">
<g transform="translate(82.411 264.74) rotate(90) scale(.08 -.08)">
<use xlink:href="#f"/>
<use x="44.083984" xlink:href="#g"/>
<use x="105.607422" xlink:href="#k"/>
<use x="144.970703" xlink:href="#m"/>
<use x="242.382812" xlink:href="#h"/>
<use x="270.166016" xlink:href="#i"/>
<use x="333.544922" xlink:href="#j"/>
<use x="394.824219" xlink:href="#n"/>
</g>
</g>
<path d="m106.84 264.74v33.808q0 2.4 2.4 2.4h7.7425q2.4 0 2.4-2.4v-33.808q0-2.4-2.4-2.4h-7.7425q-2.4 0-2.4 2.4z" clip-path="url(#a)" fill="#fff" stroke="#fff"/>
<g clip-path="url(#a)">
<g transform="translate(110.9 264.74) rotate(90) scale(.08 -.08)">
<use xlink:href="#f"/>
<use x="44.083984" xlink:href="#g"/>
<use x="105.607422" xlink:href="#k"/>
<use x="144.970703" xlink:href="#m"/>
<use x="242.382812" xlink:href="#h"/>
<use x="270.166016" xlink:href="#i"/>
<use x="333.544922" xlink:href="#j"/>
<use x="394.824219" xlink:href="#n"/>
</g>
</g>
<path d="m21.365 264.74v33.808q0 2.4 2.4 2.4h7.7425q2.4 0 2.4-2.4v-33.808q0-2.4-2.4-2.4h-7.7425q-2.4 0-2.4 2.4z" clip-path="url(#a)" fill="#fff" stroke="#fff"/>
<g clip-path="url(#a)">
<g transform="translate(25.429 264.74) rotate(90) scale(.08 -.08)">
<use xlink:href="#f"/>
<use x="44.083984" xlink:href="#g"/>
<use x="105.607422" xlink:href="#k"/>
<use x="144.970703" xlink:href="#m"/>
<use x="242.382812" xlink:href="#h"/>
<use x="270.166016" xlink:href="#i"/>
<use x="333.544922" xlink:href="#j"/>
<use x="394.824219" xlink:href="#n"/>
</g>
</g>
<path d="m55.554 264.74v33.808q0 2.4 2.4 2.4h7.7425q2.4 0 2.4-2.4v-33.808q0-2.4-2.4-2.4h-7.7425q-2.4 0-2.4 2.4z" clip-path="url(#a)" fill="#fff" stroke="#fff"/>
<g clip-path="url(#a)">
<g transform="translate(59.618 264.74) rotate(90) scale(.08 -.08)">
<use xlink:href="#f"/>
<use x="44.083984" xlink:href="#g"/>
<use x="105.607422" xlink:href="#k"/>
<use x="144.970703" xlink:href="#m"/>
<use x="242.382812" xlink:href="#h"/>
<use x="270.166016" xlink:href="#i"/>
<use x="333.544922" xlink:href="#j"/>
<use x="394.824219" xlink:href="#n"/>
</g>
</g>
<path d="m152.42 264.74v33.808q0 2.4 2.4 2.4h7.7425q2.4 0 2.4-2.4v-33.808q0-2.4-2.4-2.4h-7.7425q-2.4 0-2.4 2.4z" clip-path="url(#a)" fill="#fff" stroke="#fff"/>
<g clip-path="url(#a)">
<g transform="translate(156.49 264.74) rotate(90) scale(.08 -.08)">
<use xlink:href="#f"/>
<use x="44.083984" xlink:href="#g"/>
<use x="105.607422" xlink:href="#k"/>
<use x="144.970703" xlink:href="#m"/>
<use x="242.382812" xlink:href="#h"/>
<use x="270.166016" xlink:href="#i"/>
<use x="333.544922" xlink:href="#j"/>
<use x="394.824219" xlink:href="#n"/>
</g>
</g>
<path d="m300.58 264.74v33.808q0 2.4 2.4 2.4h7.7425q2.4 0 2.4-2.4v-33.808q0-2.4-2.4-2.4h-7.7425q-2.4 0-2.4 2.4z" clip-path="url(#a)" fill="#fff" stroke="#fff"/>
<g clip-path="url(#a)">
<g transform="translate(304.64 264.74) rotate(90) scale(.08 -.08)">
<use xlink:href="#f"/>
<use x="44.083984" xlink:href="#g"/>
<use x="105.607422" xlink:href="#k"/>
<use x="144.970703" xlink:href="#m"/>
<use x="242.382812" xlink:href="#h"/>
<use x="270.166016" xlink:href="#i"/>
<use x="333.544922" xlink:href="#j"/>
<use x="394.824219" xlink:href="#n"/>
</g>
</g>
<path d="m488.62 264.74v33.808q0 2.4 2.4 2.4h7.7425q2.4 0 2.4-2.4v-33.808q0-2.4-2.4-2.4h-7.7425q-2.4 0-2.4 2.4z" clip-path="url(#a)" fill="#fff" stroke="#fff"/>
<g clip-path="url(#a)">
<g transform="translate(492.68 264.74) rotate(90) scale(.08 -.08)">
<use xlink:href="#f"/>
<use x="44.083984" xlink:href="#g"/>
<use x="105.607422" xlink:href="#k"/>
<use x="144.970703" xlink:href="#m"/>
<use x="242.382812" xlink:href="#h"/>
<use x="270.166016" xlink:href="#i"/>
<use x="333.544922" xlink:href="#j"/>
<use x="394.824219" xlink:href="#n"/>
</g>
</g>
<path d="m562.7 264.74v33.808q0 2.4 2.4 2.4h7.7425q2.4 0 2.4-2.4v-33.808q0-2.4-2.4-2.4h-7.7425q-2.4 0-2.4 2.4z" clip-path="url(#a)" fill="#fff" stroke="#fff"/>
<g clip-path="url(#a)">
<g transform="translate(566.76 264.74) rotate(90) scale(.08 -.08)">
<use xlink:href="#f"/>
<use x="44.083984" xlink:href="#g"/>
<use x="105.607422" xlink:href="#k"/>
<use x="144.970703" xlink:href="#m"/>
<use x="242.382812" xlink:href="#h"/>
<use x="270.166016" xlink:href="#i"/>
<use x="333.544922" xlink:href="#j"/>
<use x="394.824219" xlink:href="#n"/>
</g>
</g>
<defs>
<path id="b" d="m0 8.6603c2.2967 0 4.4997-0.9125 6.1237-2.5365 1.624-1.624 2.5365-3.827 2.5365-6.1237s-0.9125-4.4997-2.5365-6.1237c-1.624-1.624-3.827-2.5365-6.1237-2.5365s-4.4997 0.9125-6.1237 2.5365c-1.624 1.624-2.5365 3.827-2.5365 6.1237s0.9125 4.4997 2.5365 6.1237c1.624 1.624 3.827 2.5365 6.1237 2.5365z"/>
</defs>
<g clip-path="url(#a)" fill="#ffffff" stroke="#ffffff">
<use x="27.636364" y="305.454545" xlink:href="#b"/>
<use x="61.825679" y="305.454545" xlink:href="#b"/>
<use x="84.618557" y="305.454545" xlink:href="#b"/>
<use x="113.109653" y="305.454545" xlink:href="#b"/>
<use x="158.695408" y="305.454545" xlink:href="#b"/>
<use x="198.582943" y="305.454545" xlink:href="#b"/>
<use x="244.168697" y="305.454545" xlink:href="#b"/>
<use x="306.84911" y="305.454545" xlink:href="#b"/>
<use x="363.831303" y="305.454545" xlink:href="#b"/>
<use x="426.511715" y="305.454545" xlink:href="#b"/>
<use x="494.890347" y="305.454545" xlink:href="#b"/>
<use x="568.967198" y="305.454545" xlink:href="#b"/>
<use x="580.363636" y="112.299916" xlink:href="#b"/>
<use x="580.363636" y="112.299916" xlink:href="#b"/>
<use x="255.565136" y="209.544339" xlink:href="#b"/>
<use x="255.565136" y="209.544339" xlink:href="#b"/>
<use x="124.506092" y="209.544339" xlink:href="#b"/>
<use x="124.506092" y="209.544339" xlink:href="#b"/>
<use x="44.731022" y="257.830692" xlink:href="#b"/>
<use x="44.731022" y="257.830692" xlink:href="#b"/>
<use x="44.731022" y="257.830692" xlink:href="#b"/>
<use x="191.256661" y="14.545455" xlink:href="#b"/>
<use x="191.256661" y="63.471892" xlink:href="#b"/>
<use x="191.256661" y="112.299916" xlink:href="#b"/>
<use x="27.636364" y="209.544339" xlink:href="#b"/>
<use x="98.864105" y="161.004728" xlink:href="#b"/>
<use x="221.37582" y="161.004728" xlink:href="#b"/>
<use x="463.550141" y="209.544339" xlink:href="#b"/>
<use x="363.831303" y="257.830692" xlink:href="#b"/>
<use x="426.511715" y="257.830692" xlink:href="#b"/>
<use x="221.37582" y="209.544339" xlink:href="#b"/>
<use x="198.582943" y="257.830692" xlink:href="#b"/>
<use x="244.168697" y="257.830692" xlink:href="#b"/>
<use x="98.864105" y="209.544339" xlink:href="#b"/>
<use x="84.618557" y="257.830692" xlink:href="#b"/>
<use x="113.109653" y="257.830692" xlink:href="#b"/>
<use x="27.636364" y="257.830692" xlink:href="#b"/>
<use x="61.825679" y="257.830692" xlink:href="#b"/>
<use x="158.695408" y="257.830692" xlink:href="#b"/>
<use x="306.84911" y="257.830692" xlink:href="#b"/>
<use x="494.890347" y="257.830692" xlink:href="#b"/>
<use x="568.967198" y="257.830692" xlink:href="#b"/>
</g>
<g clip-path="url(#a)">
<defs>
<path id="aj" d="m9.8125 72.906h9.8594v-67.828q0-13.188-5-19.141t-16.094-5.9531h-3.75v8.2969h3.0781q6.5312 0 9.2188 3.6719 2.6875 3.6562 2.6875 13.125z"/>
</defs>
<g transform="translate(23.097 308.21) scale(.1 -.1)">
<use xlink:href="#aj"/>
<use x="29.492188" xlink:href="#j"/>
</g>
</g>
<g clip-path="url(#a)">
<defs>
<path id="e" d="m10.688 12.406h10.312v-12.406h-10.312z"/>
</defs>
<g transform="translate(60.237 308.21) scale(.1 -.1)">
<use xlink:href="#e"/>
</g>
</g>
<g clip-path="url(#a)">
<defs>
<path id="ae" d="m9.0781 55.516q0 9.7656 5.8281 15.109 5.8438 5.3594 16.484 5.3594 10.156 0 15.5-5.6719 5.3594-5.6562 5.5-16.594-7.375-0.39062-11.484-3.2031-4.0938-2.8125-4.0938-7.5 0-2.2969 1.4219-4.2812 1.4219-1.9688 4.5938-4.0156l2.7812-1.8125q8.1094-5.1719 10.453-8.6406t2.3438-8.3438q0-8.4062-5.5-12.875t-15.797-4.4688q-3.125 0-6.4531 0.60938-3.3125 0.60938-6.875 1.7969v8q3.9062-1.4688 7.3125-2.1719 3.4219-0.70312 6.6094-0.70312 5.6562 0 8.5781 2.3125 2.9375 2.3281 2.9375 6.7656 0 3.0781-1.4375 5.125t-6.375 5.0781l-4.4844 2.6875q-4.6875 2.875-6.8125 6.1719t-2.125 7.75q0 6.1875 4.0781 10.391t11.438 5.625q-0.39062 5.0156-3.5938 7.75-3.1875 2.7344-8.7031 2.7344-6.3438 0-9.6719-3.3906-3.3125-3.3906-3.3125-9.7812v-55.328h-9.1406z"/>
<path id="z" d="m45.406 27.984q0 9.7656-4.0312 15.125-4.0156 5.375-11.297 5.375-7.2188 0-11.25-5.375-4.0312-5.3594-4.0312-15.125 0-9.7188 4.0312-15.094t11.25-5.375q7.2812 0 11.297 5.375 4.0312 5.375 4.0312 15.094zm8.9844-21.203q0-13.953-6.2031-20.766-6.1875-6.8125-18.984-6.8125-4.7344 0-8.9375 0.70312t-8.1562 2.1719v8.7344q3.9531-2.1406 7.8125-3.1562 3.8594-1.0312 7.8594-1.0312 8.8438 0 13.234 4.6094t4.3906 13.938v4.4531q-2.7812-4.8438-7.125-7.2344t-10.406-2.3906q-10.047 0-16.203 7.6562-6.1562 7.6719-6.1562 20.328 0 12.688 6.1562 20.344 6.1562 7.6719 16.203 7.6719 6.0625 0 10.406-2.3906t7.125-7.2188v8.2969h8.9844z"/>
</defs>
<g transform="translate(66.647 308.21) scale(.1 -.1)">
<use xlink:href="#w"/>
<use x="77.001953" xlink:href="#k"/>
<use x="115.865234" xlink:href="#g"/>
<use x="177.388672" xlink:href="#h"/>
<use x="205.171875" xlink:href="#ae"/>
<use x="268.160156" xlink:href="#h"/>
<use x="295.943359" xlink:href="#z"/>
</g>
</g>
<g clip-path="url(#a)">
<defs>
<path id="p" d="m9.8125 72.906h14.703l18.594-49.609 18.703 49.609h14.703v-72.906h-9.625v64.016l-18.797-50h-9.9062l-18.797 50v-64.016h-9.5781z"/>
<path id="af" d="m8.5 21.578v33.109h8.9844v-32.766q0-7.7656 3.0156-11.656 3.0312-3.875 9.0938-3.875 7.2656 0 11.484 4.6406 4.2344 4.6406 4.2344 12.656v31h8.9844v-54.688h-8.9844v8.4062q-3.2656-4.9844-7.5938-7.4062-4.3125-2.4219-10.031-2.4219-9.4219 0-14.312 5.8594-4.875 5.8594-4.875 17.141z"/>
<path id="ag" d="m18.312 70.219v-15.531h18.5v-6.9844h-18.5v-29.688q0-6.6875 1.8281-8.5938t7.4531-1.9062h9.2188v-7.5156h-9.2188q-10.406 0-14.359 3.875-3.9531 3.8906-3.9531 14.141v29.688h-6.5938v6.9844h6.5938v15.531z"/>
</defs>
<g transform="translate(92.864 308.21) scale(.1 -.1)">
<use xlink:href="#p"/>
<use x="86.279297" xlink:href="#h"/>
<use x="114.0625" xlink:href="#i"/>
<use x="177.441406" xlink:href="#af"/>
<use x="240.820312" xlink:href="#ag"/>
<use x="280.029297" xlink:href="#g"/>
<use x="341.552734" xlink:href="#i"/>
</g>
</g>
<g clip-path="url(#a)">
<g transform="translate(157.11 308.21) scale(.1 -.1)">
<use xlink:href="#e"/>
</g>
</g>
<g clip-path="url(#a)">
<g transform="translate(180.61 308.21) scale(.1 -.1)">
<use xlink:href="#w"/>
<use x="77.001953" xlink:href="#k"/>
<use x="115.865234" xlink:href="#g"/>
<use x="177.388672" xlink:href="#h"/>
<use x="205.171875" xlink:href="#ae"/>
<use x="268.160156" xlink:href="#h"/>
<use x="295.943359" xlink:href="#z"/>
</g>
</g>
<g clip-path="url(#a)">
<g transform="translate(232.62 308.21) scale(.1 -.1)">
<use xlink:href="#f"/>
<use x="44.583984" xlink:href="#j"/>
<use x="105.863281" xlink:href="#z"/>
<use x="169.339844" xlink:href="#g"/>
</g>
</g>
<g clip-path="url(#a)">
<g transform="translate(305.26 308.21) scale(.1 -.1)">
<use xlink:href="#e"/>
</g>
</g>
<g clip-path="url(#a)">
<defs>
<path id="ak" d="m59.516 10.406v19.578h-16.109v8.1094h25.875v-31.312q-5.7031-4.0469-12.594-6.125-6.875-2.0781-14.688-2.0781-17.094 0-26.75 9.9844-9.6406 10-9.6406 27.812 0 17.875 9.6406 27.859 9.6562 9.9844 26.75 9.9844 7.125 0 13.547-1.7656 6.4219-1.75 11.844-5.1719v-10.5q-5.4688 4.6406-11.625 6.9844t-12.938 2.3438q-13.391 0-20.109-7.4688-6.7031-7.4688-6.7031-22.266 0-14.75 6.7031-22.219 6.7188-7.4688 20.109-7.4688 5.2188 0 9.3125 0.90625 4.1094 0.90625 7.375 2.8125z"/>
</defs>
<g transform="translate(348.58 308.21) scale(.1 -.1)">
<use xlink:href="#ak"/>
<use x="77.490234" xlink:href="#af"/>
<use x="140.869141" xlink:href="#ag"/>
<use x="180.078125" xlink:href="#g"/>
<use x="241.601562" xlink:href="#i"/>
</g>
</g>
<g clip-path="url(#a)">
<defs>
<path id="ah" d="m48.688 27.297q0 9.9062-4.0781 15.547t-11.203 5.6406q-7.1406 0-11.219-5.6406t-4.0781-15.547 4.0781-15.547 11.219-5.6406q7.125 0 11.203 5.6406t4.0781 15.547zm-30.578 19.094q2.8438 4.875 7.1562 7.2344 4.3281 2.375 10.328 2.375 9.9688 0 16.188-7.9062 6.2344-7.9062 6.2344-20.797t-6.2344-20.812q-6.2188-7.9062-16.188-7.9062-6 0-10.328 2.375-4.3125 2.375-7.1562 7.25v-8.2031h-9.0312v75.984h9.0312z"/>
<path id="ao" d="m45.406 46.391v29.594h8.9844v-75.984h-8.9844v8.2031q-2.8281-4.875-7.1562-7.25-4.3125-2.375-10.375-2.375-9.9062 0-16.141 7.9062-6.2188 7.9219-6.2188 20.812t6.2188 20.797q6.2344 7.9062 16.141 7.9062 6.0625 0 10.375-2.375 4.3281-2.3594 7.1562-7.2344zm-30.609-19.094q0-9.9062 4.0781-15.547t11.203-5.6406 11.219 5.6406q4.1094 5.6406 4.1094 15.547t-4.1094 15.547q-4.0938 5.6406-11.219 5.6406t-11.203-5.6406-4.0781-15.547z"/>
</defs>
<g transform="translate(410.5 308.21) scale(.1 -.1)">
<use xlink:href="#q"/>
<use x="68.408203" xlink:href="#ah"/>
<use x="131.884766" xlink:href="#g"/>
<use x="193.408203" xlink:href="#i"/>
<use x="256.787109" xlink:href="#ao"/>
</g>
</g>
<g clip-path="url(#a)">
<g transform="translate(493.3 308.21) scale(.1 -.1)">
<use xlink:href="#e"/>
</g>
</g>
<g clip-path="url(#a)">
<defs>
<path id="an" d="m17.922 72.906v-27.109h-8.2969v27.109zm18.453 0v-27.109h-8.2969v27.109z"/>
</defs>
<g transform="translate(566.67 308.21) scale(.1 -.1)">
<use xlink:href="#an"/>
</g>
</g>
<g clip-path="url(#a)">
<defs>
<path id="d" d="m9.8125 72.906h9.8594v-72.906h-9.8594z"/>
<path id="r" d="m9.8125 72.906h9.8594v-64.609h35.5v-8.2969h-45.359z"/>
</defs>
<g transform="translate(559.28 115.06) scale(.1 -.1)">
<use xlink:href="#d"/>
<use x="29.492188" xlink:href="#p"/>
<use x="115.771484" xlink:href="#l"/>
<use x="176.074219" xlink:href="#r"/>
<use x="231.787109" xlink:href="#d"/>
<use x="261.279297" xlink:href="#o"/>
<use x="331.103516" xlink:href="#d"/>
<use x="360.595703" xlink:href="#f"/>
</g>
</g>
<g clip-path="url(#a)">
<g transform="translate(559.28 115.06) scale(.1 -.1)">
<use xlink:href="#d"/>
<use x="29.492188" xlink:href="#p"/>
<use x="115.771484" xlink:href="#l"/>
<use x="176.074219" xlink:href="#r"/>
<use x="231.787109" xlink:href="#d"/>
<use x="261.279297" xlink:href="#o"/>
<use x="331.103516" xlink:href="#d"/>
<use x="360.595703" xlink:href="#f"/>
</g>
</g>
<g clip-path="url(#a)">
<g transform="translate(234.48 212.3) scale(.1 -.1)">
<use xlink:href="#d"/>
<use x="29.492188" xlink:href="#p"/>
<use x="115.771484" xlink:href="#l"/>
<use x="176.074219" xlink:href="#r"/>
<use x="231.787109" xlink:href="#d"/>
<use x="261.279297" xlink:href="#o"/>
<use x="331.103516" xlink:href="#d"/>
<use x="360.595703" xlink:href="#f"/>
</g>
</g>
<g clip-path="url(#a)">
<g transform="translate(234.48 212.3) scale(.1 -.1)">
<use xlink:href="#d"/>
<use x="29.492188" xlink:href="#p"/>
<use x="115.771484" xlink:href="#l"/>
<use x="176.074219" xlink:href="#r"/>
<use x="231.787109" xlink:href="#d"/>
<use x="261.279297" xlink:href="#o"/>
<use x="331.103516" xlink:href="#d"/>
<use x="360.595703" xlink:href="#f"/>
</g>
</g>
<g clip-path="url(#a)">
<g transform="translate(103.42 212.3) scale(.1 -.1)">
<use xlink:href="#d"/>
<use x="29.492188" xlink:href="#p"/>
<use x="115.771484" xlink:href="#l"/>
<use x="176.074219" xlink:href="#r"/>
<use x="231.787109" xlink:href="#d"/>
<use x="261.279297" xlink:href="#o"/>
<use x="331.103516" xlink:href="#d"/>
<use x="360.595703" xlink:href="#f"/>
</g>
</g>
<g clip-path="url(#a)">
<g transform="translate(103.42 212.3) scale(.1 -.1)">
<use xlink:href="#d"/>
<use x="29.492188" xlink:href="#p"/>
<use x="115.771484" xlink:href="#l"/>
<use x="176.074219" xlink:href="#r"/>
<use x="231.787109" xlink:href="#d"/>
<use x="261.279297" xlink:href="#o"/>
<use x="331.103516" xlink:href="#d"/>
<use x="360.595703" xlink:href="#f"/>
</g>
</g>
<g clip-path="url(#a)">
<g transform="translate(23.646 260.59) scale(.1 -.1)">
<use xlink:href="#d"/>
<use x="29.492188" xlink:href="#p"/>
<use x="115.771484" xlink:href="#l"/>
<use x="176.074219" xlink:href="#r"/>
<use x="231.787109" xlink:href="#d"/>
<use x="261.279297" xlink:href="#o"/>
<use x="331.103516" xlink:href="#d"/>
<use x="360.595703" xlink:href="#f"/>
</g>
</g>
<g clip-path="url(#a)">
<g transform="translate(23.646 260.59) scale(.1 -.1)">
<use xlink:href="#d"/>
<use x="29.492188" xlink:href="#p"/>
<use x="115.771484" xlink:href="#l"/>
<use x="176.074219" xlink:href="#r"/>
<use x="231.787109" xlink:href="#d"/>
<use x="261.279297" xlink:href="#o"/>
<use x="331.103516" xlink:href="#d"/>
<use x="360.595703" xlink:href="#f"/>
</g>
</g>
<g clip-path="url(#a)">
<g transform="translate(23.646 260.59) scale(.1 -.1)">
<use xlink:href="#d"/>
<use x="29.492188" xlink:href="#p"/>
<use x="115.771484" xlink:href="#l"/>
<use x="176.074219" xlink:href="#r"/>
<use x="231.787109" xlink:href="#d"/>
<use x="261.279297" xlink:href="#o"/>
<use x="331.103516" xlink:href="#d"/>
<use x="360.595703" xlink:href="#f"/>
</g>
</g>
<g clip-path="url(#a)">
<defs>
<path id="c" d="m12.406 8.2969h16.109v55.625l-17.531-3.5156v8.9844l17.438 3.5156h9.8594v-64.609h16.109v-8.2969h-41.984z"/>
</defs>
<g transform="translate(183.31 17.305) scale(.1 -.1)">
<use xlink:href="#c"/>
<use x="63.623047" xlink:href="#e"/>
<use x="95.410156" xlink:href="#c"/>
</g>
</g>
<g clip-path="url(#a)">
<defs>
<path id="t" d="m19.188 8.2969h34.422v-8.2969h-46.281v8.2969q5.6094 5.8125 15.297 15.594 9.7031 9.7969 12.188 12.641 4.7344 5.3125 6.6094 9 1.8906 3.6875 1.8906 7.25 0 5.8125-4.0781 9.4688-4.0781 3.6719-10.625 3.6719-4.6406 0-9.7969-1.6094-5.1406-1.6094-11-4.8906v9.9688q5.9531 2.3906 11.125 3.6094 5.1875 1.2188 9.4844 1.2188 11.328 0 18.062-5.6719 6.7344-5.6562 6.7344-15.125 0-4.5-1.6875-8.5312-1.6719-4.0156-6.125-9.4844-1.2188-1.4219-7.7656-8.1875-6.5312-6.7656-18.453-18.922z"/>
</defs>
<g transform="translate(183.31 66.231) scale(.1 -.1)">
<use xlink:href="#c"/>
<use x="63.623047" xlink:href="#e"/>
<use x="95.410156" xlink:href="#t"/>
</g>
</g>
<g clip-path="url(#a)">
<defs>
<path id="am" d="m8.2031 72.906h46.875v-4.2031l-26.469-68.703h-10.297l24.906 64.594h-35.016z"/>
</defs>
<g transform="translate(183.31 115.06) scale(.1 -.1)">
<use xlink:href="#c"/>
<use x="63.623047" xlink:href="#e"/>
<use x="95.410156" xlink:href="#am"/>
</g>
</g>
<g clip-path="url(#a)">
<defs>
<path id="al" d="m31.781 34.625q-7.0312 0-11.062-3.7656-4.0156-3.7656-4.0156-10.344 0-6.5938 4.0156-10.359 4.0312-3.7656 11.062-3.7656t11.078 3.7812q4.0625 3.7969 4.0625 10.344 0 6.5781-4.0312 10.344-4.0156 3.7656-11.109 3.7656zm-9.8594 4.1875q-6.3438 1.5625-9.8906 5.9062-3.5312 4.3594-3.5312 10.609 0 8.7344 6.2188 13.812 6.2344 5.0781 17.062 5.0781 10.891 0 17.094-5.0781t6.2031-13.812q0-6.25-3.5469-10.609-3.5312-4.3438-9.8281-5.9062 7.125-1.6562 11.094-6.5 3.9844-4.8281 3.9844-11.797 0-10.609-6.4688-16.281-6.4688-5.6562-18.531-5.6562-12.047 0-18.531 5.6562-6.4688 5.6719-6.4688 16.281 0 6.9688 4 11.797 4.0156 4.8438 11.141 6.5zm-3.6094 15.578q0-5.6562 3.5312-8.8281 3.5469-3.1719 9.9375-3.1719 6.3594 0 9.9375 3.1719 3.5938 3.1719 3.5938 8.8281 0 5.6719-3.5938 8.8438-3.5781 3.1719-9.9375 3.1719-6.3906 0-9.9375-3.1719-3.5312-3.1719-3.5312-8.8438z"/>
</defs>
<g transform="translate(19.685 212.3) scale(.1 -.1)">
<use xlink:href="#c"/>
<use x="63.623047" xlink:href="#e"/>
<use x="95.410156" xlink:href="#al"/>
</g>
</g>
<g clip-path="url(#a)">
<defs>
<path id="ab" d="m10.984 1.5156v8.9844q3.7188-1.7656 7.5156-2.6875 3.8125-0.92188 7.4844-0.92188 9.7656 0 14.906 6.5625 5.1562 6.5625 5.8906 19.953-2.8281-4.2031-7.1875-6.4531-4.3438-2.25-9.6094-2.25-10.938 0-17.312 6.6094-6.375 6.625-6.375 18.109 0 11.219 6.6406 18 6.6406 6.7969 17.672 6.7969 12.656 0 19.312-9.7031 6.6719-9.6875 6.6719-28.141 0-17.234-8.1875-27.516-8.1719-10.281-21.984-10.281-3.7188 0-7.5312 0.73438-3.7969 0.73438-7.9062 2.2031zm19.625 30.906q6.6406 0 10.516 4.5312 3.8906 4.5469 3.8906 12.469 0 7.8594-3.8906 12.422-3.875 4.5625-10.516 4.5625t-10.516-4.5625-3.875-12.422q0-7.9219 3.875-12.469 3.875-4.5312 10.516-4.5312z"/>
</defs>
<g transform="translate(90.913 163.76) scale(.1 -.1)">
<use xlink:href="#c"/>
<use x="63.623047" xlink:href="#e"/>
<use x="95.410156" xlink:href="#ab"/>
</g>
</g>
<g clip-path="url(#a)">
<defs>
<path id="y" d="m31.781 66.406q-7.6094 0-11.453-7.5-3.8281-7.4844-3.8281-22.531 0-14.984 3.8281-22.484 3.8438-7.5 11.453-7.5 7.6719 0 11.5 7.5 3.8438 7.5 3.8438 22.484 0 15.047-3.8438 22.531-3.8281 7.5-11.5 7.5zm0 7.8125q12.266 0 18.734-9.7031 6.4688-9.6875 6.4688-28.141 0-18.406-6.4688-28.109-6.4688-9.6875-18.734-9.6875-12.25 0-18.719 9.6875-6.4688 9.7031-6.4688 28.109 0 18.453 6.4688 28.141 6.4688 9.7031 18.719 9.7031z"/>
</defs>
<g transform="translate(210.24 163.76) scale(.1 -.1)">
<use xlink:href="#c"/>
<use x="63.623047" xlink:href="#e"/>
<use x="95.410156" xlink:href="#c"/>
<use x="159.033203" xlink:href="#y"/>
</g>
</g>
<g clip-path="url(#a)">
<g transform="translate(452.42 212.3) scale(.1 -.1)">
<use xlink:href="#c"/>
<use x="63.623047" xlink:href="#e"/>
<use x="95.410156" xlink:href="#c"/>
<use x="159.033203" xlink:href="#c"/>
</g>
</g>
<g clip-path="url(#a)">
<defs>
<path id="x" d="m10.797 72.906h38.719v-8.3125h-29.688v-17.859q2.1406 0.73438 4.2812 1.0938 2.1562 0.35938 4.3125 0.35938 12.203 0 19.328-6.6875 7.1406-6.6875 7.1406-18.109 0-11.766-7.3281-18.297-7.3281-6.5156-20.656-6.5156-4.5938 0-9.3594 0.78125-4.75 0.78125-9.8281 2.3438v9.9219q4.3906-2.3906 9.0781-3.5625t9.9062-1.1719q8.4531 0 13.375 4.4375 4.9375 4.4375 4.9375 12.062 0 7.6094-4.9375 12.047-4.9219 4.4531-13.375 4.4531-3.9531 0-7.8906-0.875-3.9219-0.875-8.0156-2.7344z"/>
</defs>
<g transform="translate(352.7 260.59) scale(.1 -.1)">
<use xlink:href="#c"/>
<use x="63.623047" xlink:href="#e"/>
<use x="95.410156" xlink:href="#c"/>
<use x="159.033203" xlink:href="#x"/>
</g>
</g>
<g clip-path="url(#a)">
<defs>
<path id="ac" d="m33.016 40.375q-6.6406 0-10.531-4.5469-3.875-4.5312-3.875-12.438 0-7.8594 3.875-12.438 3.8906-4.5625 10.531-4.5625t10.516 4.5625q3.875 4.5781 3.875 12.438 0 7.9062-3.875 12.438-3.875 4.5469-10.516 4.5469zm19.578 30.922v-8.9844q-3.7188 1.75-7.5 2.6719-3.7812 0.9375-7.5 0.9375-9.7656 0-14.922-6.5938-5.1406-6.5938-5.875-19.922 2.875 4.25 7.2188 6.5156 4.3594 2.2656 9.5781 2.2656 10.984 0 17.359-6.6719 6.375-6.6562 6.375-18.125 0-11.234-6.6406-18.031-6.6406-6.7812-17.672-6.7812-12.656 0-19.344 9.6875-6.6875 9.7031-6.6875 28.109 0 17.281 8.2031 27.562t22.016 10.281q3.7188 0 7.5-0.73438t7.8906-2.1875z"/>
</defs>
<g transform="translate(415.38 260.59) scale(.1 -.1)">
<use xlink:href="#c"/>
<use x="63.623047" xlink:href="#e"/>
<use x="95.410156" xlink:href="#c"/>
<use x="159.033203" xlink:href="#ac"/>
</g>
</g>
<g clip-path="url(#a)">
<g transform="translate(210.24 212.3) scale(.1 -.1)">
<use xlink:href="#c"/>
<use x="63.623047" xlink:href="#e"/>
<use x="95.410156" xlink:href="#c"/>
<use x="159.033203" xlink:href="#ab"/>
</g>
</g>
<g clip-path="url(#a)">
<g transform="translate(187.45 260.59) scale(.1 -.1)">
<use xlink:href="#c"/>
<use x="63.623047" xlink:href="#e"/>
<use x="95.410156" xlink:href="#t"/>
<use x="159.033203" xlink:href="#y"/>
</g>
</g>
<g clip-path="url(#a)">
<g transform="translate(233.04 260.59) scale(.1 -.1)">
<use xlink:href="#c"/>
<use x="63.623047" xlink:href="#e"/>
<use x="95.410156" xlink:href="#t"/>
<use x="159.033203" xlink:href="#c"/>
</g>
</g>
<g clip-path="url(#a)">
<defs>
<path id="ad" d="m37.797 64.312-24.906-38.922h24.906zm-2.5938 8.5938h12.406v-47.516h10.406v-8.2031h-10.406v-17.188h-9.8125v17.188h-32.906v9.5156z"/>
</defs>
<g transform="translate(87.731 212.3) scale(.1 -.1)">
<use xlink:href="#c"/>
<use x="63.623047" xlink:href="#e"/>
<use x="95.410156" xlink:href="#t"/>
<use x="159.033203" xlink:href="#ad"/>
</g>
</g>
<g clip-path="url(#a)">
<g transform="translate(73.486 260.59) scale(.1 -.1)">
<use xlink:href="#c"/>
<use x="63.623047" xlink:href="#e"/>
<use x="95.410156" xlink:href="#t"/>
<use x="159.033203" xlink:href="#x"/>
</g>
</g>
<g clip-path="url(#a)">
<g transform="translate(101.98 260.59) scale(.1 -.1)">
<use xlink:href="#c"/>
<use x="63.623047" xlink:href="#e"/>
<use x="95.410156" xlink:href="#t"/>
<use x="159.033203" xlink:href="#ac"/>
</g>
</g>
<g clip-path="url(#a)">
<defs>
<path id="s" d="m40.578 39.312q7.0781-1.5156 11.047-6.3125 3.9844-4.7812 3.9844-11.812 0-10.781-7.4219-16.703-7.4219-5.9062-21.094-5.9062-4.5781 0-9.4375 0.90625t-10.031 2.7188v9.5156q4.0938-2.3906 8.9688-3.6094 4.8906-1.2188 10.219-1.2188 9.2656 0 14.125 3.6562t4.8594 10.641q0 6.4531-4.5156 10.078-4.5156 3.6406-12.562 3.6406h-8.5v8.1094h8.8906q7.2656 0 11.125 2.9062t3.8594 8.375q0 5.6094-3.9844 8.6094-3.9688 3.0156-11.391 3.0156-4.0625 0-8.7031-0.89062-4.6406-0.875-10.203-2.7188v8.7812q5.625 1.5625 10.531 2.3438t9.25 0.78125q11.234 0 17.766-5.1094 6.5469-5.0938 6.5469-13.781 0-6.0625-3.4688-10.234t-9.8594-5.7812z"/>
</defs>
<g transform="translate(16.504 260.59) scale(.1 -.1)">
<use xlink:href="#c"/>
<use x="63.623047" xlink:href="#e"/>
<use x="95.410156" xlink:href="#s"/>
<use x="159.033203" xlink:href="#y"/>
</g>
</g>
<g clip-path="url(#a)">
<g transform="translate(50.693 260.59) scale(.1 -.1)">
<use xlink:href="#c"/>
<use x="63.623047" xlink:href="#e"/>
<use x="95.410156" xlink:href="#s"/>
<use x="159.033203" xlink:href="#c"/>
</g>
</g>
<g clip-path="url(#a)">
<g transform="translate(147.56 260.59) scale(.1 -.1)">
<use xlink:href="#c"/>
<use x="63.623047" xlink:href="#e"/>
<use x="95.410156" xlink:href="#s"/>
<use x="159.033203" xlink:href="#t"/>
</g>
</g>
<g clip-path="url(#a)">
<g transform="translate(295.72 260.59) scale(.1 -.1)">
<use xlink:href="#c"/>
<use x="63.623047" xlink:href="#e"/>
<use x="95.410156" xlink:href="#s"/>
<use x="159.033203" xlink:href="#s"/>
</g>
</g>
<g clip-path="url(#a)">
<g transform="translate(483.76 260.59) scale(.1 -.1)">
<use xlink:href="#c"/>
<use x="63.623047" xlink:href="#e"/>
<use x="95.410156" xlink:href="#s"/>
<use x="159.033203" xlink:href="#ad"/>
</g>
</g>
<g clip-path="url(#a)">
<g transform="translate(557.83 260.59) scale(.1 -.1)">
<use xlink:href="#c"/>
<use x="63.623047" xlink:href="#e"/>
<use x="95.410156" xlink:href="#s"/>
<use x="159.033203" xlink:href="#x"/>
</g>
</g>
<defs>
<clipPath id="a">
<rect width="608" height="320"/>
</clipPath>
</defs>
</svg>
