<?xml version="1.0" encoding="UTF-8"?>
<!DOCTYPE svg  PUBLIC '-//W3C//DTD SVG 1.1//EN'  'http://www.w3.org/Graphics/SVG/1.1/DTD/svg11.dtd'>
<svg width="2128pt" height="1120pt" version="1.1" viewBox="0 0 2128 1120" xmlns="http://www.w3.org/2000/svg" xmlns:xlink="http://www.w3.org/1999/xlink">
<defs>
<style type="text/css">*{stroke-linecap:butt;stroke-linejoin:round;}</style>
</defs>
<path d="m0 1120h2128v-1120h-2128z" fill="#fff"/>
<g fill="none" stroke="#000">
<path d="m311.11 50.909v171.24" clip-path="url(#a)"/>
<path d="m311.11 222.15 688.63 170.9" clip-path="url(#a)"/>
<path d="m311.11 222.15-146.68 680.26" clip-path="url(#a)"/>
<path d="m311.11 222.15-107.02 511.25" clip-path="url(#a)"/>
<path d="m311.11 222.15-177.46 680.26" clip-path="url(#a)"/>
<path d="m311.11 222.15-163.1 680.26" clip-path="url(#a)"/>
<path d="m311.11 222.15-60.521 680.26" clip-path="url(#a)"/>
<path d="m311.11 222.15-33.852 680.26" clip-path="url(#a)"/>
<path d="m999.74 393.05-727.99 170.47" clip-path="url(#a)"/>
<path d="m999.74 393.05-434.59 340.36" clip-path="url(#a)"/>
<path d="m999.74 393.05-232.52 170.47" clip-path="url(#a)"/>
<path d="m999.74 393.05 25.855 170.47" clip-path="url(#a)"/>
<path d="m999.74 393.05 174.02 509.36" clip-path="url(#a)"/>
<path d="m999.74 393.05 249.58 170.47" clip-path="url(#a)"/>
<path d="m999.74 393.05 533.03 509.36" clip-path="url(#a)"/>
<path d="m999.74 393.05 817.84 340.36" clip-path="url(#a)"/>
<path d="m999.74 393.05-519.38 509.36" clip-path="url(#a)"/>
<path d="m999.74 393.05-342.96 509.36" clip-path="url(#a)"/>
<path d="m999.74 393.05 457.12 509.36" clip-path="url(#a)"/>
<path d="m164.43 902.41v166.68" clip-path="url(#a)"/>
<path d="m204.09 733.41-21.199 169" clip-path="url(#a)"/>
<path d="m204.09 733.41-0.68383 169" clip-path="url(#a)"/>
<path d="m204.09 733.41 21.882 169" clip-path="url(#a)"/>
<path d="m182.89 902.41v166.68" clip-path="url(#a)"/>
<path d="m203.4 902.41v166.68" clip-path="url(#a)"/>
<path d="m225.97 902.41v166.68" clip-path="url(#a)"/>
<path d="m271.74 563.52-175.02 338.89" clip-path="url(#a)"/>
<path d="m271.74 563.52-155.53 169.89" clip-path="url(#a)"/>
<path d="m271.74 563.52 34.234 338.89" clip-path="url(#a)"/>
<path d="m271.74 563.52 65.006 338.89" clip-path="url(#a)"/>
<path d="m271.74 563.52 97.83 338.89" clip-path="url(#a)"/>
<path d="m271.74 563.52 132.71 338.89" clip-path="url(#a)"/>
<path d="m271.74 563.52 169.63 338.89" clip-path="url(#a)"/>
<path d="m271.74 563.52-168.86 338.89" clip-path="url(#a)"/>
<path d="m565.15 733.41-43.765 169" clip-path="url(#a)"/>
<path d="m565.15 733.41-0.68383 169" clip-path="url(#a)"/>
<path d="m565.15 733.41 44.449 169" clip-path="url(#a)"/>
<path d="m767.22 563.52-61.202 338.89" clip-path="url(#a)"/>
<path d="m767.22 563.52-9.9155 338.89" clip-path="url(#a)"/>
<path d="m767.22 563.52 71.118 169.89" clip-path="url(#a)"/>
<path d="m1025.6 563.52-101.43 169.89" clip-path="url(#a)"/>
<path d="m1025.6 563.52 18.919 338.89" clip-path="url(#a)"/>
<path d="m1025.6 563.52 82.515 338.89" clip-path="url(#a)"/>
<path d="m1173.8 902.41v166.68" clip-path="url(#a)"/>
<path d="m1249.3 563.52-195.57 169.89" clip-path="url(#a)"/>
<path d="m1249.3 563.52 61.886 338.89" clip-path="url(#a)"/>
<path d="m1249.3 563.52 133.69 338.89" clip-path="url(#a)"/>
<path d="m1532.8 902.41v166.68" clip-path="url(#a)"/>
<path d="m1817.6 733.41-206.86 169" clip-path="url(#a)"/>
<path d="m1817.6 733.41-126.85 169" clip-path="url(#a)"/>
<path d="m1817.6 733.41-44.791 169" clip-path="url(#a)"/>
<path d="m1817.6 733.41 39.32 169" clip-path="url(#a)"/>
<path d="m1817.6 733.41 125.48 169" clip-path="url(#a)"/>
<path d="m1817.6 733.41 213.7 169" clip-path="url(#a)"/>
<path d="m1610.7 902.41v166.68" clip-path="url(#a)"/>
<path d="m1690.7 902.41v166.68" clip-path="url(#a)"/>
<path d="m1772.8 902.41v166.68" clip-path="url(#a)"/>
<path d="m1856.9 902.41v166.68" clip-path="url(#a)"/>
<path d="m1053.7 733.41 187.71 169" clip-path="url(#a)"/>
<path d="m1053.7 733.41-187.71 169" clip-path="url(#a)" stroke-dasharray="3.7,1.6"/>
<path d="m1311.2 902.41v166.68" clip-path="url(#a)"/>
<path d="m1383 902.41v166.68" clip-path="url(#a)"/>
<path d="m1241.5 902.41v166.68" clip-path="url(#a)"/>
<path d="m924.16 733.41 58.809 169" clip-path="url(#a)"/>
<path d="m924.16 733.41-58.125 169" clip-path="url(#a)" stroke-dasharray="3.7,1.6"/>
<path d="m924.16 733.41-0.68383 169" clip-path="url(#a)"/>
<path d="m1044.5 902.41v166.68" clip-path="url(#a)"/>
<path d="m1108.1 902.41v166.68" clip-path="url(#a)"/>
<path d="m982.97 902.41v166.68" clip-path="url(#a)"/>
<path d="m706.02 902.41v166.68" clip-path="url(#a)"/>
<path d="m757.3 902.41v166.68" clip-path="url(#a)"/>
<path d="m838.34 733.41-27.695 169" clip-path="url(#a)"/>
<path d="m838.34 733.41 27.695 169" clip-path="url(#a)"/>
<path d="m810.64 902.41v166.68" clip-path="url(#a)"/>
<path d="m866.03 902.41v166.68" clip-path="url(#a)"/>
<path d="m521.38 902.41v166.68" clip-path="url(#a)"/>
<path d="m564.46 902.41v166.68" clip-path="url(#a)"/>
<path d="m609.6 902.41v166.68" clip-path="url(#a)"/>
<path d="m96.727 902.41v166.68" clip-path="url(#a)"/>
<path d="m116.22 733.41-5.1287 169" clip-path="url(#a)"/>
<path d="m116.22 733.41 5.1287 169" clip-path="url(#a)"/>
<path d="m305.98 902.41v166.68" clip-path="url(#a)"/>
<path d="m336.75 902.41v166.68" clip-path="url(#a)"/>
<path d="m369.57 902.41v166.68" clip-path="url(#a)"/>
<path d="m404.45 902.41v166.68" clip-path="url(#a)"/>
<path d="m441.38 902.41v166.68" clip-path="url(#a)"/>
<path d="m102.88 902.41v166.68" clip-path="url(#a)"/>
<path d="m111.09 902.41v166.68" clip-path="url(#a)"/>
<path d="m121.35 902.41v166.68" clip-path="url(#a)"/>
<path d="m133.65 902.41v166.68" clip-path="url(#a)"/>
<path d="m148.01 902.41v166.68" clip-path="url(#a)"/>
<path d="m250.59 902.41v166.68" clip-path="url(#a)"/>
<path d="m277.26 902.41v166.68" clip-path="url(#a)"/>
<path d="m480.35 902.41v166.68" clip-path="url(#a)"/>
<path d="m656.78 902.41v166.68" clip-path="url(#a)"/>
<path d="m923.47 902.41v166.68" clip-path="url(#a)"/>
<path d="m1456.9 902.41v166.68" clip-path="url(#a)"/>
<path d="m1943.1 902.41v166.68" clip-path="url(#a)"/>
<path d="m2031.3 902.41v166.68" clip-path="url(#a)"/>
</g>
<path d="m304.84 133.52v6.0162q0 2.4 2.4 2.4h7.7425q2.4 0 2.4-2.4v-6.0162q0-2.4-2.4-2.4h-7.7425q-2.4 0-2.4 2.4z" clip-path="url(#a)" fill="#fff" stroke="#fff"/>
<g clip-path="url(#a)">
<defs>
<path id="v" d="m9.8125 72.906h9.8594v-29.891h35.844v29.891h9.8594v-72.906h-9.8594v34.719h-35.844v-34.719h-9.8594z"/>
</defs>
<g transform="translate(308.9 133.52) rotate(90) scale(.08 -.08)">
<use xlink:href="#v"/>
</g>
</g>
<path d="m651.26 313.03 5.3114 1.3181q2.3293 0.57808 2.9074-1.7513l1.8649-7.5146q0.57808-2.3293-1.7513-2.9074l-5.3114-1.3181q-2.3293-0.57808-2.9074 1.7513l-1.8649 7.5145q-0.57808 2.3293 1.7513 2.9074z" clip-path="url(#a)" fill="#fff" stroke="#fff"/>
<g clip-path="url(#a)">
<defs>
<path id="t" d="m34.188 63.188-13.391-36.281h26.812zm-5.5781 9.7188h11.188l27.781-72.906h-10.25l-6.6406 18.703h-32.859l-6.6406-18.703h-10.406z"/>
</defs>
<g transform="translate(652.24 309.08) rotate(13.938) scale(.08 -.08)">
<use xlink:href="#t"/>
</g>
</g>
<path d="m243.39 565.96 1.0168-4.7154q0.50588-2.3461-1.8402-2.852l-7.5685-1.632q-2.3461-0.50588-2.852 1.8402l-1.0168 4.7154q-0.50588 2.3461 1.8402 2.852l7.5685 1.632q2.3461 0.50588 2.852-1.8402z" clip-path="url(#a)" fill="#fff" stroke="#fff"/>
<g clip-path="url(#a)">
<defs>
<path id="an" d="m19.672 64.797v-27.391h12.406q6.8906 0 10.641 3.5625 3.7656 3.5625 3.7656 10.156 0 6.5469-3.7656 10.109-3.75 3.5625-10.641 3.5625zm-9.8594 8.1094h22.266q12.266 0 18.531-5.5469 6.2812-5.5469 6.2812-16.234 0-10.797-6.2812-16.312-6.2656-5.5156-18.531-5.5156h-12.406v-29.297h-9.8594z"/>
</defs>
<g transform="translate(239.42 565.1) rotate(-77.832) scale(.08 -.08)">
<use xlink:href="#an"/>
</g>
</g>
<path d="m263.18 481.74 1.1213-5.3564q0.49174-2.3491-1.8573-2.8408l-7.5782-1.5864q-2.3491-0.49174-2.8408 1.8573l-1.1213 5.3564q-0.49174 2.3491 1.8573 2.8408l7.5782 1.5864q2.3491 0.49174 2.8408-1.8573z" clip-path="url(#a)" fill="#fff" stroke="#fff"/>
<g clip-path="url(#a)">
<g transform="translate(259.2 480.91) rotate(-78.177) scale(.08 -.08)">
<use xlink:href="#t"/>
</g>
</g>
<path d="m227.71 566.7 1.4779-5.6654q0.6058-2.3223-1.7165-2.9281l-7.4918-1.9543q-2.3223-0.6058-2.9281 1.7165l-1.4779 5.6654q-0.6058 2.3223 1.7165 2.9281l7.4918 1.9543q2.3223 0.6058 2.9281-1.7165z" clip-path="url(#a)" fill="#fff" stroke="#fff"/>
<g clip-path="url(#a)">
<defs>
<path id="q" d="m8.6875 72.906h9.9219v-44.297q0-11.719 4.2344-16.875 4.25-5.1406 13.781-5.1406 9.4688 0 13.719 5.1406 4.25 5.1562 4.25 16.875v44.297h9.9062v-45.516q0-14.25-7.0625-21.531-7.0469-7.2812-20.812-7.2812-13.828 0-20.891 7.2812-7.0469 7.2812-7.0469 21.531z"/>
</defs>
<g transform="translate(223.78 565.67) rotate(-75.379) scale(.08 -.08)">
<use xlink:href="#q"/>
</g>
</g>
<path d="m234.98 566.59 1.3651-5.6936q0.55956-2.3339-1.7743-2.8934l-7.5291-1.8051q-2.3339-0.55956-2.8934 1.7743l-1.3651 5.6936q-0.55956 2.3339 1.7743 2.8934l7.5291 1.8051q2.3339 0.55956 2.8934-1.7743z" clip-path="url(#a)" fill="#fff" stroke="#fff"/>
<g clip-path="url(#a)">
<g transform="translate(231.03 565.64) rotate(-76.518) scale(.08 -.08)">
<use xlink:href="#q"/>
</g>
</g>
<path d="m286.84 565.75 0.51886-5.832q0.21268-2.3906-2.1779-2.6032l-7.712-0.68612q-2.3906-0.21268-2.6032 2.1779l-0.51886 5.832q-0.21268 2.3906 2.1779 2.6032l7.712 0.68612q2.3906 0.21268 2.6032-2.1779z" clip-path="url(#a)" fill="#fff" stroke="#fff"/>
<g clip-path="url(#a)">
<g transform="translate(282.79 565.39) rotate(-84.916) scale(.08 -.08)">
<use xlink:href="#q"/>
</g>
</g>
<path d="m300.3 565.52 0.291-5.8478q0.11928-2.397-2.2777-2.5163l-7.7329-0.38482q-2.397-0.11928-2.5163 2.2778l-0.291 5.8478q-0.11928 2.397 2.2777 2.5163l7.7329 0.38482q2.397 0.11928 2.5163-2.2778z" clip-path="url(#a)" fill="#fff" stroke="#fff"/>
<g clip-path="url(#a)">
<g transform="translate(296.24 565.31) rotate(-87.151) scale(.08 -.08)">
<use xlink:href="#q"/>
</g>
</g>
<path d="m634.24 485.08 5.8578-1.3717q2.3368-0.54718 1.7896-2.884l-1.7652-7.5386q-0.54718-2.3368-2.884-1.7896l-5.8578 1.3717q-2.3368 0.54718-1.7896 2.884l1.7652 7.5386q0.54718 2.3368 2.884 1.7896z" clip-path="url(#a)" fill="#fff" stroke="#fff"/>
<g clip-path="url(#a)">
<g transform="translate(633.32 481.12) rotate(-13.179) scale(.08 -.08)">
<use xlink:href="#v"/>
</g>
</g>
<path d="m783.94 570.02 4.7365-3.7095q1.8895-1.4798 0.40971-3.3693l-4.7739-6.0956q-1.4798-1.8895-3.3693-0.4097l-4.7365 3.7095q-1.8895 1.4798-0.40971 3.3693l4.7739 6.0956q1.4798 1.8895 3.3693 0.40971z" clip-path="url(#a)" fill="#fff" stroke="#fff"/>
<g clip-path="url(#a)">
<g transform="translate(781.44 566.82) rotate(-38.067) scale(.08 -.08)">
<use xlink:href="#v"/>
</g>
</g>
<path d="m884.76 485.12 4.852-3.5572q1.9356-1.419 0.51653-3.3546l-4.5778-6.2442q-1.419-1.9356-3.3546-0.51653l-4.852 3.5572q-1.9356 1.419-0.51653 3.3546l4.5778 6.2442q1.419 1.9356 3.3546 0.51653z" clip-path="url(#a)" fill="#fff" stroke="#fff"/>
<g clip-path="url(#a)">
<g transform="translate(882.36 481.84) rotate(-36.246) scale(.08 -.08)">
<use xlink:href="#v"/>
</g>
</g>
<path d="m1006 476.25 0.90216 5.9482q0.35989 2.3729 2.7328 2.013l7.655-1.161q2.3729-0.35989 2.013-2.7328l-0.90216-5.9482q-0.35989-2.3729-2.7328-2.013l-7.655 1.161q-2.3729 0.35989-2.013 2.7328z" clip-path="url(#a)" fill="#fff" stroke="#fff"/>
<g clip-path="url(#a)">
<g transform="translate(1010 475.64) rotate(81.376) scale(.08 -.08)">
<use xlink:href="#v"/>
</g>
</g>
<path d="m1080.1 647.65 1.4411 4.2181q0.7759 2.2711 3.047 1.4952l7.3267-2.5031q2.2711-0.7759 1.4952-3.047l-1.4411-4.2181q-0.7759-2.2711-3.047-1.4952l-7.3267 2.5031q-2.2711 0.7759-1.4952 3.047z" clip-path="url(#a)" fill="#fff" stroke="#fff"/>
<g clip-path="url(#a)">
<defs>
<path id="ao" d="m9.8125 72.906h9.8594v-64.609h35.5v-8.2969h-45.359z"/>
</defs>
<g transform="translate(1083.9 646.33) rotate(71.138) scale(.08 -.08)">
<use xlink:href="#ao"/>
</g>
</g>
<path d="m1118.5 481.77 4.968 3.3932q1.9818 1.3536 3.3355-0.62821l4.3669-6.3935q1.3536-1.9818-0.62821-3.3355l-4.968-3.3932q-1.9818-1.3536-3.3355 0.62821l-4.3669 6.3935q-1.3536 1.9818 0.62821 3.3355z" clip-path="url(#a)" fill="#fff" stroke="#fff"/>
<g clip-path="url(#a)">
<g transform="translate(1120.8 478.41) rotate(34.334) scale(.08 -.08)">
<use xlink:href="#v"/>
</g>
</g>
<path d="m1260.3 650.72 3.2227 3.0796q1.7351 1.6581 3.3932-0.077046l5.3491-5.5976q1.6581-1.7351-0.077046-3.3932l-3.2227-3.0796q-1.7351-1.6581-3.3932 0.077047l-5.3491 5.5976q-1.6581 1.7351 0.077046 3.3932z" clip-path="url(#a)" fill="#fff" stroke="#fff"/>
<g clip-path="url(#a)">
<g transform="translate(1263.1 647.78) rotate(43.699) scale(.08 -.08)">
<use xlink:href="#ao"/>
</g>
</g>
<path d="m1403.5 567.86 5.5545 2.3116q2.2158 0.92213 3.1379-1.2937l2.9748-7.1482q0.92213-2.2158-1.2937-3.1379l-5.5545-2.3116q-2.2158-0.92213-3.1379 1.2937l-2.9748 7.1482q-0.92213 2.2158 1.2937 3.1379z" clip-path="url(#a)" fill="#fff" stroke="#fff"/>
<g clip-path="url(#a)">
<g transform="translate(1405 564.11) rotate(22.595) scale(.08 -.08)">
<use xlink:href="#v"/>
</g>
</g>
<path d="m742.35 654.26 4.1803-4.0996q1.7135-1.6804 0.033075-3.394l-5.4212-5.5279q-1.6804-1.7135-3.394-0.033075l-4.1803 4.0996q-1.7135 1.6804-0.033075 3.394l5.4212 5.5279q1.6804 1.7135 3.394 0.033075z" clip-path="url(#a)" fill="#fff" stroke="#fff"/>
<g clip-path="url(#a)">
<g transform="translate(739.5 651.35) rotate(-44.442) scale(.08 -.08)">
<use xlink:href="#q"/>
</g>
</g>
<path d="m831.83 653.66 3.2701-4.8567q1.3404-1.9908-0.65037-3.3312l-6.4224-4.3243q-1.9908-1.3404-3.3312 0.65037l-3.2701 4.8567q-1.3404 1.9908 0.65037 3.3312l6.4224 4.3243q1.9908 1.3404 3.3312-0.65037z" clip-path="url(#a)" fill="#fff" stroke="#fff"/>
<g clip-path="url(#a)">
<g transform="translate(828.46 651.39) rotate(-56.047) scale(.08 -.08)">
<use xlink:href="#q"/>
</g>
</g>
<path d="m1221.7 649.74 3.9106 4.3575q1.603 1.7862 3.3892 0.18318l5.7623-5.1713q1.7862-1.603 0.18318-3.3892l-3.9106-4.3575q-1.603-1.7862-3.3892-0.18318l-5.7623 5.1713q-1.7862 1.603-0.18318 3.3892z" clip-path="url(#a)" fill="#fff" stroke="#fff"/>
<g clip-path="url(#a)">
<g transform="translate(1224.7 647.02) rotate(48.094) scale(.08 -.08)">
<use xlink:href="#q"/>
</g>
</g>
<path d="m158.15 968.85v33.808q0 2.4 2.4 2.4h7.7425q2.4 0 2.4-2.4v-33.808q0-2.4-2.4-2.4h-7.7425q-2.4 0-2.4 2.4z" clip-path="url(#a)" fill="#fff" stroke="#fff"/>
<g clip-path="url(#a)">
<defs>
<path id="l" d="m-0.29688 72.906h61.672v-8.3125h-25.875v-64.594h-9.9062v64.594h-25.891z"/>
<path id="d" d="m56.203 29.594v-4.3906h-41.312q0.59375-9.2812 5.5938-14.141t13.938-4.8594q5.1719 0 10.031 1.2656t9.6562 3.8125v-8.5q-4.8438-2.0469-9.9219-3.125t-10.297-1.0781q-13.094 0-20.734 7.6094-7.6406 7.625-7.6406 20.625 0 13.422 7.25 21.297 7.25 7.8906 19.562 7.8906 11.031 0 17.453-7.1094 6.4219-7.0938 6.4219-19.297zm-8.9844 2.6406q-0.09375 7.3594-4.125 11.75-4.0312 4.4062-10.672 4.4062-7.5156 0-12.031-4.25t-5.2031-11.969z"/>
<path id="h" d="m41.109 46.297q-1.5156 0.875-3.2969 1.2812-1.7812 0.42188-3.9219 0.42188-7.625 0-11.703-4.9531t-4.0781-14.234v-28.812h-9.0312v54.688h9.0312v-8.5q2.8438 4.9844 7.375 7.3906 4.5469 2.4219 11.047 2.4219 0.92188 0 2.0469-0.125 1.125-0.10938 2.4844-0.35938z"/>
<path id="k" d="m52 44.188q3.375 6.0625 8.0625 8.9375t11.031 2.875q8.5469 0 13.188-5.9844 4.6406-5.9688 4.6406-17v-33.016h-9.0312v32.719q0 7.8594-2.7969 11.656-2.7812 3.8125-8.4844 3.8125-6.9844 0-11.047-4.6406-4.0469-4.625-4.0469-12.641v-30.906h-9.0312v32.719q0 7.9062-2.7812 11.688t-8.5938 3.7812q-6.8906 0-10.953-4.6562-4.0469-4.6562-4.0469-12.625v-30.906h-9.0312v54.688h9.0312v-8.5q3.0781 5.0312 7.375 7.4219t10.203 2.3906q5.9688 0 10.141-3.0312 4.1719-3.0156 6.1719-8.7812z"/>
<path id="e" d="m9.4219 54.688h8.9844v-54.688h-8.9844zm0 21.297h8.9844v-11.391h-8.9844z"/>
<path id="g" d="m54.891 33.016v-33.016h-8.9844v32.719q0 7.7656-3.0312 11.609-3.0312 3.8594-9.0781 3.8594-7.2812 0-11.484-4.6406-4.2031-4.625-4.2031-12.641v-30.906h-9.0312v54.688h9.0312v-8.5q3.2344 4.9375 7.5938 7.375 4.375 2.4375 10.094 2.4375 9.4219 0 14.25-5.8281 4.8438-5.8281 4.8438-17.156z"/>
<path id="i" d="m34.281 27.484q-10.891 0-15.094-2.4844t-4.2031-8.5q0-4.7812 3.1562-7.5938 3.1562-2.7969 8.5625-2.7969 7.4844 0 12 5.2969t4.5156 14.078v2zm17.922 3.7188v-31.203h-8.9844v8.2969q-3.0781-4.9688-7.6719-7.3438t-11.234-2.375q-8.3906 0-13.359 4.7188-4.9531 4.7188-4.9531 12.625 0 9.2188 6.1719 13.906 6.1875 4.6875 18.438 4.6875h12.609v0.89062q0 6.2031-4.0781 9.5938t-11.453 3.3906q-4.6875 0-9.1406-1.125-4.4375-1.125-8.5312-3.375v8.3125q4.9219 1.9062 9.5625 2.8438 4.6406 0.95312 9.0312 0.95312 11.875 0 17.734-6.1562 5.8594-6.1406 5.8594-18.641z"/>
<path id="j" d="m9.4219 75.984h8.9844v-75.984h-8.9844z"/>
</defs>
<g transform="translate(162.22 968.85) rotate(90) scale(.08 -.08)">
<use xlink:href="#l"/>
<use x="44.083984" xlink:href="#d"/>
<use x="105.607422" xlink:href="#h"/>
<use x="144.970703" xlink:href="#k"/>
<use x="242.382812" xlink:href="#e"/>
<use x="270.166016" xlink:href="#g"/>
<use x="333.544922" xlink:href="#i"/>
<use x="394.824219" xlink:href="#j"/>
</g>
</g>
<path d="m199.42 820.97 0.57266-4.5655q0.2987-2.3813-2.0826-2.68l-7.6823-0.96362q-2.3813-0.2987-2.68 2.0826l-0.57267 4.5655q-0.2987 2.3813 2.0826 2.68l7.6823 0.96362q2.3813 0.2987 2.68-2.0826z" clip-path="url(#a)" fill="#fff" stroke="#fff"/>
<g clip-path="url(#a)">
<defs>
<path id="w" d="m9.8125 72.906h41.891v-8.3125h-32.031v-21.484h28.906v-8.2969h-28.906v-34.812h-9.8594z"/>
</defs>
<g transform="translate(195.39 820.46) rotate(-82.851) scale(.08 -.08)">
<use xlink:href="#w"/>
</g>
</g>
<path d="m210.01 820.46 0.020453-5.055q0.009711-2.4-2.3903-2.4097l-7.7424-0.031328q-2.4-0.009711-2.4097 2.3903l-0.020454 5.055q-0.009711 2.4 2.3903 2.4097l7.7424 0.031327q2.4 0.009711 2.4097-2.3903z" clip-path="url(#a)" fill="#fff" stroke="#fff"/>
<g clip-path="url(#a)">
<defs>
<path id="ay" d="m9.8125 72.906h46.094v-8.3125h-36.234v-21.578h34.719v-8.2969h-34.719v-26.422h37.109v-8.2969h-46.969z"/>
</defs>
<g transform="translate(205.94 820.44) rotate(-89.768) scale(.08 -.08)">
<use xlink:href="#ay"/>
</g>
</g>
<path d="m208.45 815.94 0.71732 5.54q0.30818 2.3801 2.6883 2.072l7.6784-0.9942q2.3801-0.30818 2.072-2.6883l-0.71732-5.54q-0.30818-2.3801-2.6883-2.072l-7.6784 0.9942q-2.3801 0.30818-2.072 2.6883z" clip-path="url(#a)" fill="#fff" stroke="#fff"/>
<g clip-path="url(#a)">
<defs>
<path id="aa" d="m64.406 67.281v-10.391q-4.9844 4.6406-10.625 6.9219-5.6406 2.2969-11.984 2.2969-12.5 0-19.141-7.6406t-6.6406-22.094q0-14.406 6.6406-22.047t19.141-7.6406q6.3438 0 11.984 2.2969t10.625 6.9375v-10.312q-5.1719-3.5156-10.969-5.2812-5.7812-1.75-12.219-1.75-16.562 0-26.094 10.125-9.5156 10.141-9.5156 27.672 0 17.578 9.5156 27.703 9.5312 10.141 26.094 10.141 6.5312 0 12.312-1.7344 5.7969-1.7344 10.875-5.2031z"/>
</defs>
<g transform="translate(212.48 815.42) rotate(82.622) scale(.08 -.08)">
<use xlink:href="#aa"/>
</g>
</g>
<path d="m176.62 968.85v33.808q0 2.4 2.4 2.4h7.7425q2.4 0 2.4-2.4v-33.808q0-2.4-2.4-2.4h-7.7425q-2.4 0-2.4 2.4z" clip-path="url(#a)" fill="#fff" stroke="#fff"/>
<g clip-path="url(#a)">
<g transform="translate(180.68 968.85) rotate(90) scale(.08 -.08)">
<use xlink:href="#l"/>
<use x="44.083984" xlink:href="#d"/>
<use x="105.607422" xlink:href="#h"/>
<use x="144.970703" xlink:href="#k"/>
<use x="242.382812" xlink:href="#e"/>
<use x="270.166016" xlink:href="#g"/>
<use x="333.544922" xlink:href="#i"/>
<use x="394.824219" xlink:href="#j"/>
</g>
</g>
<path d="m197.13 968.85v33.808q0 2.4 2.4 2.4h7.7425q2.4 0 2.4-2.4v-33.808q0-2.4-2.4-2.4h-7.7425q-2.4 0-2.4 2.4z" clip-path="url(#a)" fill="#fff" stroke="#fff"/>
<g clip-path="url(#a)">
<g transform="translate(201.2 968.85) rotate(90) scale(.08 -.08)">
<use xlink:href="#l"/>
<use x="44.083984" xlink:href="#d"/>
<use x="105.607422" xlink:href="#h"/>
<use x="144.970703" xlink:href="#k"/>
<use x="242.382812" xlink:href="#e"/>
<use x="270.166016" xlink:href="#g"/>
<use x="333.544922" xlink:href="#i"/>
<use x="394.824219" xlink:href="#j"/>
</g>
</g>
<path d="m219.7 968.85v33.808q0 2.4 2.4 2.4h7.7425q2.4 0 2.4-2.4v-33.808q0-2.4-2.4-2.4h-7.7425q-2.4 0-2.4 2.4z" clip-path="url(#a)" fill="#fff" stroke="#fff"/>
<g clip-path="url(#a)">
<g transform="translate(223.76 968.85) rotate(90) scale(.08 -.08)">
<use xlink:href="#l"/>
<use x="44.083984" xlink:href="#d"/>
<use x="105.607422" xlink:href="#h"/>
<use x="144.970703" xlink:href="#k"/>
<use x="242.382812" xlink:href="#e"/>
<use x="270.166016" xlink:href="#g"/>
<use x="333.544922" xlink:href="#i"/>
<use x="394.824219" xlink:href="#j"/>
</g>
</g>
<path d="m188.75 737.88 2.1113-4.0882q1.1013-2.1324-1.0312-3.2337l-6.8793-3.5527q-2.1324-1.1013-3.2337 1.0312l-2.1113 4.0882q-1.1013 2.1324 1.0312 3.2337l6.8793 3.5527q2.1324 1.1013 3.2337-1.0312z" clip-path="url(#a)" fill="#fff" stroke="#fff"/>
<g clip-path="url(#a)">
<g transform="translate(185.14 736.02) rotate(-62.686) scale(.08 -.08)">
<use xlink:href="#w"/>
</g>
</g>
<path d="m196.76 654.71 3.6953-4.0365q1.6206-1.7702-0.14964-3.3908l-5.7108-5.2281q-1.7702-1.6206-3.3908 0.14964l-3.6953 4.0365q-1.6206 1.7702 0.14964 3.3908l5.7108 5.2281q1.7702 1.6206 3.3908-0.14964z" clip-path="url(#a)" fill="#fff" stroke="#fff"/>
<g clip-path="url(#a)">
<g transform="translate(193.76 651.97) rotate(-47.527) scale(.08 -.08)">
<use xlink:href="#t"/>
</g>
</g>
<path d="m282.39 731.3 0.46246 4.578q0.24122 2.3878 2.6291 2.1466l7.7033-0.77817q2.3878-0.24122 2.1466-2.6291l-0.46246-4.578q-0.24122-2.3878-2.6291-2.1466l-7.7033 0.77817q-2.3878 0.24122-2.1466 2.6291z" clip-path="url(#a)" fill="#fff" stroke="#fff"/>
<g clip-path="url(#a)">
<g transform="translate(286.43 730.89) rotate(84.232) scale(.08 -.08)">
<use xlink:href="#w"/>
</g>
</g>
<path d="m297.65 731.88 0.86681 4.5189q0.45213 2.357 2.8092 1.9049l7.6039-1.4586q2.357-0.45213 1.9049-2.8092l-0.86681-4.5189q-0.45213-2.357-2.8092-1.9049l-7.6039 1.4586q-2.357 0.45213-1.9049 2.8092z" clip-path="url(#a)" fill="#fff" stroke="#fff"/>
<g clip-path="url(#a)">
<g transform="translate(301.65 731.12) rotate(79.141) scale(.08 -.08)">
<use xlink:href="#w"/>
</g>
</g>
<path d="m313.78 731.74 1.7085 5.9183q0.66564 2.3058 2.9715 1.6402l7.4388-2.1474q2.3058-0.66564 1.6402-2.9715l-1.7085-5.9183q-0.66564-2.3058-2.9715-1.6402l-7.4388 2.1474q-2.3058 0.66564-1.6402 2.9715z" clip-path="url(#a)" fill="#fff" stroke="#fff"/>
<g clip-path="url(#a)">
<defs>
<path id="ae" d="m19.672 64.797v-56.688h11.922q15.094 0 22.094 6.8281 7 6.8438 7 21.594 0 14.641-7 21.453t-22.094 6.8125zm-9.8594 8.1094h20.266q21.188 0 31.094-8.8125 9.9219-8.8125 9.9219-27.562 0-18.859-9.9688-27.703-9.9531-8.8281-31.047-8.8281h-20.266z"/>
</defs>
<g transform="translate(317.68 730.62) rotate(73.898) scale(.08 -.08)">
<use xlink:href="#ae"/>
</g>
</g>
<path d="m331.13 732.38 2.2461 5.7359q0.8751 2.2348 3.1099 1.3597l7.2095-2.8231q2.2348-0.8751 1.3597-3.1099l-2.2461-5.7359q-0.87511-2.2348-3.1099-1.3597l-7.2095 2.8231q-2.2348 0.8751-1.3597 3.1099z" clip-path="url(#a)" fill="#fff" stroke="#fff"/>
<g clip-path="url(#a)">
<g transform="translate(334.92 730.9) rotate(68.615) scale(.08 -.08)">
<use xlink:href="#ae"/>
</g>
</g>
<path d="m349.82 733.5 2.2733 4.5416q1.0743 2.1462 3.2204 1.0719l6.9236-3.4656q2.1462-1.0743 1.0719-3.2204l-2.2733-4.5416q-1.0743-2.1462-3.2204-1.0719l-6.9236 3.4656q-2.1462 1.0743-1.0719 3.2204z" clip-path="url(#a)" fill="#fff" stroke="#fff"/>
<g clip-path="url(#a)">
<defs>
<path id="x" d="m53.516 70.516v-9.625q-5.6094 2.6875-10.594 4-4.9844 1.3281-9.625 1.3281-8.0469 0-12.422-3.125t-4.375-8.8906q0-4.8438 2.9062-7.3125 2.9062-2.4531 11.016-3.9688l5.9531-1.2188q11.031-2.1094 16.281-7.4062t5.25-14.172q0-10.609-7.1094-16.078-7.0938-5.4688-20.812-5.4688-5.1719 0-11.016 1.1719-5.8281 1.1719-12.078 3.4688v10.156q6-3.3594 11.766-5.0781 5.7656-1.7031 11.328-1.7031 8.4375 0 13.031 3.3125 4.5938 3.3281 4.5938 9.4844 0 5.3594-3.2969 8.3906t-10.812 4.5469l-6.0156 1.1719q-11.031 2.1875-15.969 6.875-4.9219 4.6875-4.9219 13.047 0 9.6719 6.8125 15.234t18.766 5.5625q5.1406 0 10.453-0.9375 5.3281-0.92188 10.891-2.7656z"/>
</defs>
<g transform="translate(353.45 731.68) rotate(63.41) scale(.08 -.08)">
<use xlink:href="#x"/>
</g>
</g>
<path d="m191.62 738.38 2.6112-5.2405q1.0704-2.1481-1.0777-3.2185l-6.9299-3.453q-2.1481-1.0704-3.2185 1.0777l-2.6112 5.2405q-1.0704 2.1481 1.0777 3.2185l6.9299 3.453q2.1481 1.0704 3.2185-1.0777z" clip-path="url(#a)" fill="#fff" stroke="#fff"/>
<g clip-path="url(#a)">
<g transform="translate(187.98 736.57) rotate(-63.514) scale(.08 -.08)">
<use xlink:href="#q"/>
</g>
</g>
<path d="m548.65 822.13 1.3719-5.2977q0.60166-2.3234-1.7217-2.925l-7.4953-1.941q-2.3234-0.60166-2.925 1.7217l-1.3719 5.2977q-0.60166 2.3234 1.7217 2.925l7.4953 1.941q2.3234 0.60166 2.925-1.7217z" clip-path="url(#a)" fill="#fff" stroke="#fff"/>
<g clip-path="url(#a)">
<g transform="translate(544.72 821.11) rotate(-75.482) scale(.08 -.08)">
<use xlink:href="#t"/>
</g>
</g>
<path d="m571.07 820.23 0.018618-4.6012q0.009711-2.4-2.3903-2.4097l-7.7424-0.031328q-2.4-0.009711-2.4097 2.3903l-0.018617 4.6012q-0.009711 2.4 2.3903 2.4097l7.7424 0.031328q2.4 0.009711 2.4097-2.3903z" clip-path="url(#a)" fill="#fff" stroke="#fff"/>
<g clip-path="url(#a)">
<g transform="translate(567 820.22) rotate(-89.768) scale(.08 -.08)">
<use xlink:href="#w"/>
</g>
</g>
<path d="m580.66 817.05 1.2918 4.9117q0.61046 2.3211 2.9315 1.7106l7.4879-1.9694q2.3211-0.61046 1.7106-2.9315l-1.2918-4.9117q-0.61046-2.3211-2.9315-1.7106l-7.4879 1.9694q-2.3211 0.61046-1.7106 2.9315z" clip-path="url(#a)" fill="#fff" stroke="#fff"/>
<g clip-path="url(#a)">
<g transform="translate(584.59 816.01) rotate(75.265) scale(.08 -.08)">
<use xlink:href="#x"/>
</g>
</g>
<path d="m742.3 736.77 0.97258-5.3854q0.42653-2.3618-1.9353-2.7883l-7.6192-1.376q-2.3618-0.42653-2.7883 1.9353l-0.97258 5.3854q-0.42653 2.3618 1.9353 2.7883l7.6192 1.376q2.3618 0.42653 2.7883-1.9353z" clip-path="url(#a)" fill="#fff" stroke="#fff"/>
<g clip-path="url(#a)">
<g transform="translate(738.3 736.05) rotate(-79.763) scale(.08 -.08)">
<use xlink:href="#t"/>
</g>
</g>
<path d="m768.46 735.68 0.14853-5.0766q0.07019-2.399-2.3288-2.4692l-7.7392-0.22644q-2.399-0.07019-2.4692 2.3288l-0.14853 5.0766q-0.070191 2.399 2.3288 2.4692l7.7392 0.22644q2.399 0.07019 2.4692-2.3288z" clip-path="url(#a)" fill="#fff" stroke="#fff"/>
<g clip-path="url(#a)">
<g transform="translate(764.39 735.56) rotate(-88.324) scale(.08 -.08)">
<use xlink:href="#x"/>
</g>
</g>
<path d="m795.94 648.36 2.1132 5.048q0.92675 2.2138 3.1406 1.2871l7.142-2.9897q2.2138-0.92675 1.2871-3.1406l-2.1132-5.048q-0.92675-2.2138-3.1406-1.2871l-7.142 2.9897q-2.2138 0.92675-1.2871 3.1406z" clip-path="url(#a)" fill="#fff" stroke="#fff"/>
<g clip-path="url(#a)">
<g transform="translate(799.69 646.79) rotate(67.285) scale(.08 -.08)">
<use xlink:href="#t"/>
</g>
</g>
<path d="m978.86 654.03 2.8054-4.6987q1.2303-2.0606-0.83031-3.291l-6.6477-3.9691q-2.0606-1.2303-3.291 0.83031l-2.8054 4.6987q-1.2303 2.0606 0.83031 3.291l6.6477 3.9691q2.0606 1.2303 3.291-0.83031z" clip-path="url(#a)" fill="#fff" stroke="#fff"/>
<g clip-path="url(#a)">
<g transform="translate(975.37 651.94) rotate(-59.16) scale(.08 -.08)">
<use xlink:href="#t"/>
</g>
</g>
<path d="m1028.7 731.01 0.25647 4.5941q0.13378 2.3963 2.53 2.2625l7.7305-0.43157q2.3963-0.13378 2.2625-2.53l-0.25647-4.5941q-0.13378-2.3963-2.53-2.2625l-7.7305 0.43157q-2.3963 0.13378-2.2625 2.53z" clip-path="url(#a)" fill="#fff" stroke="#fff"/>
<g clip-path="url(#a)">
<g transform="translate(1032.7 730.79) rotate(86.805) scale(.08 -.08)">
<use xlink:href="#w"/>
</g>
</g>
<path d="m1060.2 731.98 1.2015 4.9346q0.56778 2.3319 2.8996 1.7641l7.5227-1.8317q2.3319-0.56778 1.7641-2.8996l-1.2015-4.9346q-0.56778-2.3319-2.8996-1.7641l-7.5227 1.8317q-2.3319 0.56778-1.7641 2.8996z" clip-path="url(#a)" fill="#fff" stroke="#fff"/>
<g clip-path="url(#a)">
<g transform="translate(1064.1 731.02) rotate(76.316) scale(.08 -.08)">
<use xlink:href="#x"/>
</g>
</g>
<path d="m1167.5 968.85v33.808q0 2.4 2.4 2.4h7.7425q2.4 0 2.4-2.4v-33.808q0-2.4-2.4-2.4h-7.7425q-2.4 0-2.4 2.4z" clip-path="url(#a)" fill="#fff" stroke="#fff"/>
<g clip-path="url(#a)">
<g transform="translate(1171.5 968.85) rotate(90) scale(.08 -.08)">
<use xlink:href="#l"/>
<use x="44.083984" xlink:href="#d"/>
<use x="105.607422" xlink:href="#h"/>
<use x="144.970703" xlink:href="#k"/>
<use x="242.382812" xlink:href="#e"/>
<use x="270.166016" xlink:href="#g"/>
<use x="333.544922" xlink:href="#i"/>
<use x="394.824219" xlink:href="#j"/>
</g>
</g>
<path d="m1153.6 654.99 4.1314-3.5888q1.8119-1.5739 0.23796-3.3858l-5.0775-5.8451q-1.5739-1.8119-3.3858-0.23796l-4.1314 3.5888q-1.8119 1.5739-0.23796 3.3858l5.0775 5.8451q1.5739 1.8119 3.3858 0.23796z" clip-path="url(#a)" fill="#fff" stroke="#fff"/>
<g clip-path="url(#a)">
<g transform="translate(1150.9 651.92) rotate(-40.98) scale(.08 -.08)">
<use xlink:href="#t"/>
</g>
</g>
<path d="m1273.7 731.83 0.82658 4.5264q0.43114 2.361 2.7921 1.9298l7.6165-1.3909q2.361-0.43114 1.9298-2.7921l-0.82658-4.5264q-0.43114-2.361-2.7921-1.9298l-7.6165 1.3909q-2.361 0.43114-1.9298 2.7921z" clip-path="url(#a)" fill="#fff" stroke="#fff"/>
<g clip-path="url(#a)">
<g transform="translate(1277.7 731.1) rotate(79.651) scale(.08 -.08)">
<use xlink:href="#w"/>
</g>
</g>
<path d="m1309.4 732.9 1.8637 4.7244q0.88072 2.2326 3.1133 1.3518l7.2023-2.8412q2.2326-0.88072 1.3518-3.1133l-1.8637-4.7244q-0.88072-2.2326-3.1133-1.3518l-7.2023 2.8412q-2.2326 0.88072-1.3518 3.1133z" clip-path="url(#a)" fill="#fff" stroke="#fff"/>
<g clip-path="url(#a)">
<g transform="translate(1313.2 731.41) rotate(68.471) scale(.08 -.08)">
<use xlink:href="#x"/>
</g>
</g>
<path d="m1526.5 968.85v33.808q0 2.4 2.4 2.4h7.7425q2.4 0 2.4-2.4v-33.808q0-2.4-2.4-2.4h-7.7425q-2.4 0-2.4 2.4z" clip-path="url(#a)" fill="#fff" stroke="#fff"/>
<g clip-path="url(#a)">
<g transform="translate(1530.6 968.85) rotate(90) scale(.08 -.08)">
<use xlink:href="#l"/>
<use x="44.083984" xlink:href="#d"/>
<use x="105.607422" xlink:href="#h"/>
<use x="144.970703" xlink:href="#k"/>
<use x="242.382812" xlink:href="#e"/>
<use x="270.166016" xlink:href="#g"/>
<use x="333.544922" xlink:href="#i"/>
<use x="394.824219" xlink:href="#j"/>
</g>
</g>
<path d="m1716 824.49 4.2379-3.4624q1.8586-1.5185 0.34012-3.377l-4.8986-5.9958q-1.5185-1.8586-3.377-0.34012l-4.2379 3.4624q-1.8586 1.5185-0.34012 3.377l4.8986 5.9958q1.5185 1.8586 3.377 0.34012z" clip-path="url(#a)" fill="#fff" stroke="#fff"/>
<g clip-path="url(#a)">
<g transform="translate(1713.4 821.35) rotate(-39.249) scale(.08 -.08)">
<use xlink:href="#t"/>
</g>
</g>
<path d="m1757.6 823.7 3.0488-4.0619q1.4407-1.9195-0.47875-3.3602l-6.1923-4.6478q-1.9195-1.4407-3.3602 0.47875l-3.0488 4.0619q-1.4407 1.9195 0.47875 3.3602l6.1923 4.6478q1.9195 1.4407 3.3602-0.47875z" clip-path="url(#a)" fill="#fff" stroke="#fff"/>
<g clip-path="url(#a)">
<g transform="translate(1754.4 821.26) rotate(-53.109) scale(.08 -.08)">
<use xlink:href="#x"/>
</g>
</g>
<path d="m1800.5 822.49 1.5781-5.9544q0.61484-2.3199-1.7051-2.9348l-7.4841-1.9835q-2.3199-0.61484-2.9348 1.7051l-1.5781 5.9544q-0.61484 2.3199 1.7051 2.9348l7.4841 1.9835q2.3199 0.61484 2.9348-1.7051z" clip-path="url(#a)" fill="#fff" stroke="#fff"/>
<g clip-path="url(#a)">
<g transform="translate(1796.5 821.45) rotate(-75.156) scale(.08 -.08)">
<use xlink:href="#ae"/>
</g>
</g>
<path d="m1829.4 812.66 3.1139 13.384q0.54386 2.3376 2.8814 1.7937l7.7919-1.8129q2.3376-0.54386 1.7937-2.8814l-3.1139-13.384q-0.54386-2.3376-2.8814-1.7937l-7.7919 1.8129q-2.3376 0.54386-1.7937 2.8814z" clip-path="url(#a)" fill="#fff" stroke="#fff"/>
<g clip-path="url(#a)">
<defs>
<path id="bc" d="m21 76.422v-100h-8.2969v100z"/>
</defs>
<g transform="translate(1833.6 811.69) rotate(76.903) scale(.08 -.08)">
<use xlink:href="#l"/>
<use x="61.083984" xlink:href="#bc"/>
<use x="94.775391" xlink:href="#ae"/>
</g>
</g>
<path d="m1873.5 819.29 3.4904 4.7009q1.4307 1.9269 3.3576 0.49621l6.2163-4.6156q1.9269-1.4307 0.49621-3.3576l-3.4904-4.7009q-1.4307-1.9269-3.3576-0.49621l-6.2163 4.6156q-1.9269 1.4307-0.49621 3.3576z" clip-path="url(#a)" fill="#fff" stroke="#fff"/>
<g clip-path="url(#a)">
<g transform="translate(1876.8 816.87) rotate(53.407) scale(.08 -.08)">
<use xlink:href="#q"/>
</g>
</g>
<path d="m1918.2 821.01 4.5924 3.6319q1.8825 1.4887 3.3712-0.39371l4.8028-6.0729q1.4887-1.8825-0.39371-3.3712l-4.5924-3.6319q-1.8825-1.4887-3.3712 0.39371l-4.8028 6.0729q-1.4887 1.8825 0.39371 3.3712z" clip-path="url(#a)" fill="#fff" stroke="#fff"/>
<g clip-path="url(#a)">
<g transform="translate(1920.8 817.82) rotate(38.339) scale(.08 -.08)">
<use xlink:href="#q"/>
</g>
</g>
<path d="m1604.4 968.85v33.808q0 2.4 2.4 2.4h7.7425q2.4 0 2.4-2.4v-33.808q0-2.4-2.4-2.4h-7.7425q-2.4 0-2.4 2.4z" clip-path="url(#a)" fill="#fff" stroke="#fff"/>
<g clip-path="url(#a)">
<g transform="translate(1608.5 968.85) rotate(90) scale(.08 -.08)">
<use xlink:href="#l"/>
<use x="44.083984" xlink:href="#d"/>
<use x="105.607422" xlink:href="#h"/>
<use x="144.970703" xlink:href="#k"/>
<use x="242.382812" xlink:href="#e"/>
<use x="270.166016" xlink:href="#g"/>
<use x="333.544922" xlink:href="#i"/>
<use x="394.824219" xlink:href="#j"/>
</g>
</g>
<path d="m1684.5 968.85v33.808q0 2.4 2.4 2.4h7.7425q2.4 0 2.4-2.4v-33.808q0-2.4-2.4-2.4h-7.7425q-2.4 0-2.4 2.4z" clip-path="url(#a)" fill="#fff" stroke="#fff"/>
<g clip-path="url(#a)">
<g transform="translate(1688.5 968.85) rotate(90) scale(.08 -.08)">
<use xlink:href="#l"/>
<use x="44.083984" xlink:href="#d"/>
<use x="105.607422" xlink:href="#h"/>
<use x="144.970703" xlink:href="#k"/>
<use x="242.382812" xlink:href="#e"/>
<use x="270.166016" xlink:href="#g"/>
<use x="333.544922" xlink:href="#i"/>
<use x="394.824219" xlink:href="#j"/>
</g>
</g>
<path d="m1766.5 968.85v33.808q0 2.4 2.4 2.4h7.7425q2.4 0 2.4-2.4v-33.808q0-2.4-2.4-2.4h-7.7425q-2.4 0-2.4 2.4z" clip-path="url(#a)" fill="#fff" stroke="#fff"/>
<g clip-path="url(#a)">
<g transform="translate(1770.6 968.85) rotate(90) scale(.08 -.08)">
<use xlink:href="#l"/>
<use x="44.083984" xlink:href="#d"/>
<use x="105.607422" xlink:href="#h"/>
<use x="144.970703" xlink:href="#k"/>
<use x="242.382812" xlink:href="#e"/>
<use x="270.166016" xlink:href="#g"/>
<use x="333.544922" xlink:href="#i"/>
<use x="394.824219" xlink:href="#j"/>
</g>
</g>
<path d="m1850.6 968.85v33.808q0 2.4 2.4 2.4h7.7425q2.4 0 2.4-2.4v-33.808q0-2.4-2.4-2.4h-7.7425q-2.4 0-2.4 2.4z" clip-path="url(#a)" fill="#fff" stroke="#fff"/>
<g clip-path="url(#a)">
<g transform="translate(1854.7 968.85) rotate(90) scale(.08 -.08)">
<use xlink:href="#l"/>
<use x="44.083984" xlink:href="#d"/>
<use x="105.607422" xlink:href="#h"/>
<use x="144.970703" xlink:href="#k"/>
<use x="242.382812" xlink:href="#e"/>
<use x="270.166016" xlink:href="#g"/>
<use x="333.544922" xlink:href="#i"/>
<use x="394.824219" xlink:href="#j"/>
</g>
</g>
<path d="m1141.1 820.46 4.6801 4.2137q1.7836 1.6058 3.3895-0.17776l5.1805-5.754q1.6058-1.7836-0.17776-3.3895l-4.6801-4.2137q-1.7836-1.6058-3.3895 0.17776l-5.1805 5.754q-1.6058 1.7836 0.17776 3.3895z" clip-path="url(#a)" fill="#fff" stroke="#fff"/>
<g clip-path="url(#a)">
<defs>
<path id="ag" d="m39.406 66.219q-10.75 0-17.078-8.0156-6.3125-8-6.3125-21.828 0-13.766 6.3125-21.781 6.3281-8 17.078-8 10.734 0 17.016 8 6.2812 8.0156 6.2812 21.781 0 13.828-6.2812 21.828-6.2812 8.0156-17.016 8.0156zm13.812-64.906 13-14.203h-11.922l-10.797 11.672q-1.6094-0.09375-2.4688-0.14062-0.84375-0.0625-1.625-0.0625-15.375 0-24.594 10.281-9.2031 10.281-9.2031 27.516 0 17.281 9.2031 27.562 9.2188 10.281 24.594 10.281 15.328 0 24.5-10.281 9.1875-10.281 9.1875-27.562 0-12.688-5.1094-21.734-5.0938-9.0312-14.766-13.328z"/>
</defs>
<g transform="translate(1143.8 817.44) rotate(41.998) scale(.08 -.08)">
<use xlink:href="#ag"/>
</g>
</g>
<path d="m962.01 824.44 4.1515-3.7378q1.7836-1.6058 0.17776-3.3895l-5.1805-5.754q-1.6058-1.7836-3.3895-0.17776l-4.1515 3.7378q-1.7836 1.6058-0.17776 3.3895l5.1805 5.754q1.6058 1.7836 3.3895 0.17776z" clip-path="url(#a)" fill="#fff" stroke="#fff"/>
<g clip-path="url(#a)">
<g transform="translate(959.29 821.42) rotate(-41.998) scale(.08 -.08)">
<use xlink:href="#aa"/>
</g>
</g>
<path d="m1304.9 968.85v33.808q0 2.4 2.4 2.4h7.7425q2.4 0 2.4-2.4v-33.808q0-2.4-2.4-2.4h-7.7425q-2.4 0-2.4 2.4z" clip-path="url(#a)" fill="#fff" stroke="#fff"/>
<g clip-path="url(#a)">
<g transform="translate(1309 968.85) rotate(90) scale(.08 -.08)">
<use xlink:href="#l"/>
<use x="44.083984" xlink:href="#d"/>
<use x="105.607422" xlink:href="#h"/>
<use x="144.970703" xlink:href="#k"/>
<use x="242.382812" xlink:href="#e"/>
<use x="270.166016" xlink:href="#g"/>
<use x="333.544922" xlink:href="#i"/>
<use x="394.824219" xlink:href="#j"/>
</g>
</g>
<path d="m1376.7 968.85v33.808q0 2.4 2.4 2.4h7.7425q2.4 0 2.4-2.4v-33.808q0-2.4-2.4-2.4h-7.7425q-2.4 0-2.4 2.4z" clip-path="url(#a)" fill="#fff" stroke="#fff"/>
<g clip-path="url(#a)">
<g transform="translate(1380.8 968.85) rotate(90) scale(.08 -.08)">
<use xlink:href="#l"/>
<use x="44.083984" xlink:href="#d"/>
<use x="105.607422" xlink:href="#h"/>
<use x="144.970703" xlink:href="#k"/>
<use x="242.382812" xlink:href="#e"/>
<use x="270.166016" xlink:href="#g"/>
<use x="333.544922" xlink:href="#i"/>
<use x="394.824219" xlink:href="#j"/>
</g>
</g>
<path d="m1235.2 968.85v33.808q0 2.4 2.4 2.4h7.7425q2.4 0 2.4-2.4v-33.808q0-2.4-2.4-2.4h-7.7425q-2.4 0-2.4 2.4z" clip-path="url(#a)" fill="#fff" stroke="#fff"/>
<g clip-path="url(#a)">
<g transform="translate(1239.2 968.85) rotate(90) scale(.08 -.08)">
<use xlink:href="#l"/>
<use x="44.083984" xlink:href="#d"/>
<use x="105.607422" xlink:href="#h"/>
<use x="144.970703" xlink:href="#k"/>
<use x="242.382812" xlink:href="#e"/>
<use x="270.166016" xlink:href="#g"/>
<use x="333.544922" xlink:href="#i"/>
<use x="394.824219" xlink:href="#j"/>
</g>
</g>
<path d="m946.6 816.99 2.0697 5.9477q0.78876 2.2667 3.0554 1.4779l7.3124-2.5446q2.2667-0.78876 1.4779-3.0554l-2.0697-5.9477q-0.78876-2.2667-3.0554-1.4779l-7.3124 2.5446q-2.2667 0.78876-1.4779 3.0554z" clip-path="url(#a)" fill="#fff" stroke="#fff"/>
<g clip-path="url(#a)">
<g transform="translate(950.44 815.66) rotate(70.813) scale(.08 -.08)">
<use xlink:href="#ag"/>
</g>
</g>
<path d="m900.12 822.59 1.8168-5.2825q0.78056-2.2695-1.489-3.0501l-7.3216-2.5181q-2.2695-0.78056-3.0501 1.489l-1.8168 5.2825q-0.78056 2.2695 1.489 3.0501l7.3216 2.5181q2.2695 0.78056 3.0501-1.489z" clip-path="url(#a)" fill="#fff" stroke="#fff"/>
<g clip-path="url(#a)">
<g transform="translate(896.27 821.27) rotate(-71.02) scale(.08 -.08)">
<use xlink:href="#aa"/>
</g>
</g>
<path d="m930.07 820.86 0.023691-5.855q0.009711-2.4-2.3903-2.4097l-7.7424-0.031328q-2.4-0.00971-2.4097 2.3903l-0.02369 5.855q-0.009711 2.4 2.3903 2.4097l7.7424 0.031328q2.4 0.009711 2.4097-2.3903z" clip-path="url(#a)" fill="#fff" stroke="#fff"/>
<g clip-path="url(#a)">
<g transform="translate(926.01 820.84) rotate(-89.768) scale(.08 -.08)">
<use xlink:href="#q"/>
</g>
</g>
<path d="m1038.2 968.85v33.808q0 2.4 2.4 2.4h7.7425q2.4 0 2.4-2.4v-33.808q0-2.4-2.4-2.4h-7.7425q-2.4 0-2.4 2.4z" clip-path="url(#a)" fill="#fff" stroke="#fff"/>
<g clip-path="url(#a)">
<g transform="translate(1042.3 968.85) rotate(90) scale(.08 -.08)">
<use xlink:href="#l"/>
<use x="44.083984" xlink:href="#d"/>
<use x="105.607422" xlink:href="#h"/>
<use x="144.970703" xlink:href="#k"/>
<use x="242.382812" xlink:href="#e"/>
<use x="270.166016" xlink:href="#g"/>
<use x="333.544922" xlink:href="#i"/>
<use x="394.824219" xlink:href="#j"/>
</g>
</g>
<path d="m1101.8 968.85v33.808q0 2.4 2.4 2.4h7.7425q2.4 0 2.4-2.4v-33.808q0-2.4-2.4-2.4h-7.7425q-2.4 0-2.4 2.4z" clip-path="url(#a)" fill="#fff" stroke="#fff"/>
<g clip-path="url(#a)">
<g transform="translate(1105.9 968.85) rotate(90) scale(.08 -.08)">
<use xlink:href="#l"/>
<use x="44.083984" xlink:href="#d"/>
<use x="105.607422" xlink:href="#h"/>
<use x="144.970703" xlink:href="#k"/>
<use x="242.382812" xlink:href="#e"/>
<use x="270.166016" xlink:href="#g"/>
<use x="333.544922" xlink:href="#i"/>
<use x="394.824219" xlink:href="#j"/>
</g>
</g>
<path d="m976.7 968.85v33.808q0 2.4 2.4 2.4h7.7425q2.4 0 2.4-2.4v-33.808q0-2.4-2.4-2.4h-7.7425q-2.4 0-2.4 2.4z" clip-path="url(#a)" fill="#fff" stroke="#fff"/>
<g clip-path="url(#a)">
<g transform="translate(980.76 968.85) rotate(90) scale(.08 -.08)">
<use xlink:href="#l"/>
<use x="44.083984" xlink:href="#d"/>
<use x="105.607422" xlink:href="#h"/>
<use x="144.970703" xlink:href="#k"/>
<use x="242.382812" xlink:href="#e"/>
<use x="270.166016" xlink:href="#g"/>
<use x="333.544922" xlink:href="#i"/>
<use x="394.824219" xlink:href="#j"/>
</g>
</g>
<path d="m699.75 968.85v33.808q0 2.4 2.4 2.4h7.7425q2.4 0 2.4-2.4v-33.808q0-2.4-2.4-2.4h-7.7425q-2.4 0-2.4 2.4z" clip-path="url(#a)" fill="#fff" stroke="#fff"/>
<g clip-path="url(#a)">
<g transform="translate(703.81 968.85) rotate(90) scale(.08 -.08)">
<use xlink:href="#l"/>
<use x="44.083984" xlink:href="#d"/>
<use x="105.607422" xlink:href="#h"/>
<use x="144.970703" xlink:href="#k"/>
<use x="242.382812" xlink:href="#e"/>
<use x="270.166016" xlink:href="#g"/>
<use x="333.544922" xlink:href="#i"/>
<use x="394.824219" xlink:href="#j"/>
</g>
</g>
<path d="m751.03 968.85v33.808q0 2.4 2.4 2.4h7.7425q2.4 0 2.4-2.4v-33.808q0-2.4-2.4-2.4h-7.7425q-2.4 0-2.4 2.4z" clip-path="url(#a)" fill="#fff" stroke="#fff"/>
<g clip-path="url(#a)">
<g transform="translate(755.1 968.85) rotate(90) scale(.08 -.08)">
<use xlink:href="#l"/>
<use x="44.083984" xlink:href="#d"/>
<use x="105.607422" xlink:href="#h"/>
<use x="144.970703" xlink:href="#k"/>
<use x="242.382812" xlink:href="#e"/>
<use x="270.166016" xlink:href="#g"/>
<use x="333.544922" xlink:href="#i"/>
<use x="394.824219" xlink:href="#j"/>
</g>
</g>
<path d="m830.17 822.03 1.0184-6.2146q0.38812-2.3684-1.9803-2.7565l-7.6406-1.2521q-2.3684-0.38812-2.7565 1.9803l-1.0184 6.2146q-0.38812 2.3684 1.9803 2.7565l7.6406 1.2521q2.3684 0.38812 2.7565-1.9803z" clip-path="url(#a)" fill="#fff" stroke="#fff"/>
<g clip-path="url(#a)">
<g transform="translate(826.16 821.37) rotate(-80.693) scale(.08 -.08)">
<use xlink:href="#ag"/>
</g>
</g>
<path d="m845.54 816.16 0.90339 5.5127q0.38812 2.3684 2.7565 1.9803l7.6406-1.2521q2.3684-0.38812 1.9803-2.7565l-0.90339-5.5127q-0.38812-2.3684-2.7565-1.9803l-7.6406 1.2521q-2.3684 0.38812-1.9803 2.7565z" clip-path="url(#a)" fill="#fff" stroke="#fff"/>
<g clip-path="url(#a)">
<g transform="translate(849.55 815.51) rotate(80.693) scale(.08 -.08)">
<use xlink:href="#aa"/>
</g>
</g>
<path d="m804.37 968.85v33.808q0 2.4 2.4 2.4h7.7425q2.4 0 2.4-2.4v-33.808q0-2.4-2.4-2.4h-7.7425q-2.4 0-2.4 2.4z" clip-path="url(#a)" fill="#fff" stroke="#fff"/>
<g clip-path="url(#a)">
<g transform="translate(808.43 968.85) rotate(90) scale(.08 -.08)">
<use xlink:href="#l"/>
<use x="44.083984" xlink:href="#d"/>
<use x="105.607422" xlink:href="#h"/>
<use x="144.970703" xlink:href="#k"/>
<use x="242.382812" xlink:href="#e"/>
<use x="270.166016" xlink:href="#g"/>
<use x="333.544922" xlink:href="#i"/>
<use x="394.824219" xlink:href="#j"/>
</g>
</g>
<path d="m859.76 968.85v33.808q0 2.4 2.4 2.4h7.7425q2.4 0 2.4-2.4v-33.808q0-2.4-2.4-2.4h-7.7425q-2.4 0-2.4 2.4z" clip-path="url(#a)" fill="#fff" stroke="#fff"/>
<g clip-path="url(#a)">
<g transform="translate(863.82 968.85) rotate(90) scale(.08 -.08)">
<use xlink:href="#l"/>
<use x="44.083984" xlink:href="#d"/>
<use x="105.607422" xlink:href="#h"/>
<use x="144.970703" xlink:href="#k"/>
<use x="242.382812" xlink:href="#e"/>
<use x="270.166016" xlink:href="#g"/>
<use x="333.544922" xlink:href="#i"/>
<use x="394.824219" xlink:href="#j"/>
</g>
</g>
<path d="m515.11 968.85v33.808q0 2.4 2.4 2.4h7.7425q2.4 0 2.4-2.4v-33.808q0-2.4-2.4-2.4h-7.7425q-2.4 0-2.4 2.4z" clip-path="url(#a)" fill="#fff" stroke="#fff"/>
<g clip-path="url(#a)">
<g transform="translate(519.18 968.85) rotate(90) scale(.08 -.08)">
<use xlink:href="#l"/>
<use x="44.083984" xlink:href="#d"/>
<use x="105.607422" xlink:href="#h"/>
<use x="144.970703" xlink:href="#k"/>
<use x="242.382812" xlink:href="#e"/>
<use x="270.166016" xlink:href="#g"/>
<use x="333.544922" xlink:href="#i"/>
<use x="394.824219" xlink:href="#j"/>
</g>
</g>
<path d="m558.19 968.85v33.808q0 2.4 2.4 2.4h7.7425q2.4 0 2.4-2.4v-33.808q0-2.4-2.4-2.4h-7.7425q-2.4 0-2.4 2.4z" clip-path="url(#a)" fill="#fff" stroke="#fff"/>
<g clip-path="url(#a)">
<g transform="translate(562.26 968.85) rotate(90) scale(.08 -.08)">
<use xlink:href="#l"/>
<use x="44.083984" xlink:href="#d"/>
<use x="105.607422" xlink:href="#h"/>
<use x="144.970703" xlink:href="#k"/>
<use x="242.382812" xlink:href="#e"/>
<use x="270.166016" xlink:href="#g"/>
<use x="333.544922" xlink:href="#i"/>
<use x="394.824219" xlink:href="#j"/>
</g>
</g>
<path d="m603.33 968.85v33.808q0 2.4 2.4 2.4h7.7425q2.4 0 2.4-2.4v-33.808q0-2.4-2.4-2.4h-7.7425q-2.4 0-2.4 2.4z" clip-path="url(#a)" fill="#fff" stroke="#fff"/>
<g clip-path="url(#a)">
<g transform="translate(607.39 968.85) rotate(90) scale(.08 -.08)">
<use xlink:href="#l"/>
<use x="44.083984" xlink:href="#d"/>
<use x="105.607422" xlink:href="#h"/>
<use x="144.970703" xlink:href="#k"/>
<use x="242.382812" xlink:href="#e"/>
<use x="270.166016" xlink:href="#g"/>
<use x="333.544922" xlink:href="#i"/>
<use x="394.824219" xlink:href="#j"/>
</g>
</g>
<path d="m90.456 968.85v33.808q0 2.4 2.4 2.4h7.7425q2.4 0 2.4-2.4v-33.808q0-2.4-2.4-2.4h-7.7425q-2.4 0-2.4 2.4z" clip-path="url(#a)" fill="#fff" stroke="#fff"/>
<g clip-path="url(#a)">
<g transform="translate(94.52 968.85) rotate(90) scale(.08 -.08)">
<use xlink:href="#l"/>
<use x="44.083984" xlink:href="#d"/>
<use x="105.607422" xlink:href="#h"/>
<use x="144.970703" xlink:href="#k"/>
<use x="242.382812" xlink:href="#e"/>
<use x="270.166016" xlink:href="#g"/>
<use x="333.544922" xlink:href="#i"/>
<use x="394.824219" xlink:href="#j"/>
</g>
</g>
<path d="m119.84 820.87 0.16861-5.5562q0.072799-2.3989-2.3261-2.4717l-7.7389-0.23485q-2.3989-0.0728-2.4717 2.3261l-0.16861 5.5562q-0.072799 2.3989 2.3261 2.4717l7.7389 0.23485q2.3989 0.072799 2.4717-2.3261z" clip-path="url(#a)" fill="#fff" stroke="#fff"/>
<g clip-path="url(#a)">
<defs>
<path id="av" d="m44.391 34.188q3.1719-1.0781 6.1719-4.5938t6.0312-9.6719l10.016-19.922h-10.609l-9.3125 18.703q-3.625 7.3281-7.0156 9.7188t-9.25 2.3906h-10.75v-30.812h-9.8594v72.906h22.266q12.5 0 18.656-5.2344 6.1562-5.2188 6.1562-15.766 0-6.8906-3.2031-11.438-3.2031-4.5312-9.2969-6.2812zm-24.719 30.609v-25.875h12.406q7.125 0 10.766 3.2969t3.6406 9.6875-3.6406 9.6406-10.766 3.25z"/>
</defs>
<g transform="translate(115.77 820.75) rotate(-88.262) scale(.08 -.08)">
<use xlink:href="#av"/>
</g>
</g>
<path d="m112.43 815.3 0.16945 5.5837q0.072799 2.3989 2.4717 2.3261l7.7389-0.23485q2.3989-0.072799 2.3261-2.4717l-0.16945-5.5837q-0.072799-2.3989-2.4717-2.3261l-7.7389 0.23485q-2.3989 0.072799-2.3261 2.4717z" clip-path="url(#a)" fill="#fff" stroke="#fff"/>
<g clip-path="url(#a)">
<g transform="translate(116.49 815.18) rotate(88.262) scale(.08 -.08)">
<use xlink:href="#aa"/>
</g>
</g>
<path d="m299.71 968.85v33.808q0 2.4 2.4 2.4h7.7425q2.4 0 2.4-2.4v-33.808q0-2.4-2.4-2.4h-7.7425q-2.4 0-2.4 2.4z" clip-path="url(#a)" fill="#fff" stroke="#fff"/>
<g clip-path="url(#a)">
<g transform="translate(303.77 968.85) rotate(90) scale(.08 -.08)">
<use xlink:href="#l"/>
<use x="44.083984" xlink:href="#d"/>
<use x="105.607422" xlink:href="#h"/>
<use x="144.970703" xlink:href="#k"/>
<use x="242.382812" xlink:href="#e"/>
<use x="270.166016" xlink:href="#g"/>
<use x="333.544922" xlink:href="#i"/>
<use x="394.824219" xlink:href="#j"/>
</g>
</g>
<path d="m330.48 968.85v33.808q0 2.4 2.4 2.4h7.7425q2.4 0 2.4-2.4v-33.808q0-2.4-2.4-2.4h-7.7425q-2.4 0-2.4 2.4z" clip-path="url(#a)" fill="#fff" stroke="#fff"/>
<g clip-path="url(#a)">
<g transform="translate(334.54 968.85) rotate(90) scale(.08 -.08)">
<use xlink:href="#l"/>
<use x="44.083984" xlink:href="#d"/>
<use x="105.607422" xlink:href="#h"/>
<use x="144.970703" xlink:href="#k"/>
<use x="242.382812" xlink:href="#e"/>
<use x="270.166016" xlink:href="#g"/>
<use x="333.544922" xlink:href="#i"/>
<use x="394.824219" xlink:href="#j"/>
</g>
</g>
<path d="m363.3 968.85v33.808q0 2.4 2.4 2.4h7.7425q2.4 0 2.4-2.4v-33.808q0-2.4-2.4-2.4h-7.7425q-2.4 0-2.4 2.4z" clip-path="url(#a)" fill="#fff" stroke="#fff"/>
<g clip-path="url(#a)">
<g transform="translate(367.37 968.85) rotate(90) scale(.08 -.08)">
<use xlink:href="#l"/>
<use x="44.083984" xlink:href="#d"/>
<use x="105.607422" xlink:href="#h"/>
<use x="144.970703" xlink:href="#k"/>
<use x="242.382812" xlink:href="#e"/>
<use x="270.166016" xlink:href="#g"/>
<use x="333.544922" xlink:href="#i"/>
<use x="394.824219" xlink:href="#j"/>
</g>
</g>
<path d="m398.18 968.85v33.808q0 2.4 2.4 2.4h7.7425q2.4 0 2.4-2.4v-33.808q0-2.4-2.4-2.4h-7.7425q-2.4 0-2.4 2.4z" clip-path="url(#a)" fill="#fff" stroke="#fff"/>
<g clip-path="url(#a)">
<g transform="translate(402.24 968.85) rotate(90) scale(.08 -.08)">
<use xlink:href="#l"/>
<use x="44.083984" xlink:href="#d"/>
<use x="105.607422" xlink:href="#h"/>
<use x="144.970703" xlink:href="#k"/>
<use x="242.382812" xlink:href="#e"/>
<use x="270.166016" xlink:href="#g"/>
<use x="333.544922" xlink:href="#i"/>
<use x="394.824219" xlink:href="#j"/>
</g>
</g>
<path d="m435.1 968.85v33.808q0 2.4 2.4 2.4h7.7425q2.4 0 2.4-2.4v-33.808q0-2.4-2.4-2.4h-7.7425q-2.4 0-2.4 2.4z" clip-path="url(#a)" fill="#fff" stroke="#fff"/>
<g clip-path="url(#a)">
<g transform="translate(439.17 968.85) rotate(90) scale(.08 -.08)">
<use xlink:href="#l"/>
<use x="44.083984" xlink:href="#d"/>
<use x="105.607422" xlink:href="#h"/>
<use x="144.970703" xlink:href="#k"/>
<use x="242.382812" xlink:href="#e"/>
<use x="270.166016" xlink:href="#g"/>
<use x="333.544922" xlink:href="#i"/>
<use x="394.824219" xlink:href="#j"/>
</g>
</g>
<path d="m96.61 968.85v33.808q0 2.4 2.4 2.4h7.7425q2.4 0 2.4-2.4v-33.808q0-2.4-2.4-2.4h-7.7425q-2.4 0-2.4 2.4z" clip-path="url(#a)" fill="#fff" stroke="#fff"/>
<g clip-path="url(#a)">
<g transform="translate(100.67 968.85) rotate(90) scale(.08 -.08)">
<use xlink:href="#l"/>
<use x="44.083984" xlink:href="#d"/>
<use x="105.607422" xlink:href="#h"/>
<use x="144.970703" xlink:href="#k"/>
<use x="242.382812" xlink:href="#e"/>
<use x="270.166016" xlink:href="#g"/>
<use x="333.544922" xlink:href="#i"/>
<use x="394.824219" xlink:href="#j"/>
</g>
</g>
<path d="m104.82 968.85v33.808q0 2.4 2.4 2.4h7.7425q2.4 0 2.4-2.4v-33.808q0-2.4-2.4-2.4h-7.7425q-2.4 0-2.4 2.4z" clip-path="url(#a)" fill="#fff" stroke="#fff"/>
<g clip-path="url(#a)">
<g transform="translate(108.88 968.85) rotate(90) scale(.08 -.08)">
<use xlink:href="#l"/>
<use x="44.083984" xlink:href="#d"/>
<use x="105.607422" xlink:href="#h"/>
<use x="144.970703" xlink:href="#k"/>
<use x="242.382812" xlink:href="#e"/>
<use x="270.166016" xlink:href="#g"/>
<use x="333.544922" xlink:href="#i"/>
<use x="394.824219" xlink:href="#j"/>
</g>
</g>
<path d="m115.07 968.85v33.808q0 2.4 2.4 2.4h7.7425q2.4 0 2.4-2.4v-33.808q0-2.4-2.4-2.4h-7.7425q-2.4 0-2.4 2.4z" clip-path="url(#a)" fill="#fff" stroke="#fff"/>
<g clip-path="url(#a)">
<g transform="translate(119.14 968.85) rotate(90) scale(.08 -.08)">
<use xlink:href="#l"/>
<use x="44.083984" xlink:href="#d"/>
<use x="105.607422" xlink:href="#h"/>
<use x="144.970703" xlink:href="#k"/>
<use x="242.382812" xlink:href="#e"/>
<use x="270.166016" xlink:href="#g"/>
<use x="333.544922" xlink:href="#i"/>
<use x="394.824219" xlink:href="#j"/>
</g>
</g>
<path d="m127.38 968.85v33.808q0 2.4 2.4 2.4h7.7425q2.4 0 2.4-2.4v-33.808q0-2.4-2.4-2.4h-7.7425q-2.4 0-2.4 2.4z" clip-path="url(#a)" fill="#fff" stroke="#fff"/>
<g clip-path="url(#a)">
<g transform="translate(131.45 968.85) rotate(90) scale(.08 -.08)">
<use xlink:href="#l"/>
<use x="44.083984" xlink:href="#d"/>
<use x="105.607422" xlink:href="#h"/>
<use x="144.970703" xlink:href="#k"/>
<use x="242.382812" xlink:href="#e"/>
<use x="270.166016" xlink:href="#g"/>
<use x="333.544922" xlink:href="#i"/>
<use x="394.824219" xlink:href="#j"/>
</g>
</g>
<path d="m141.74 968.85v33.808q0 2.4 2.4 2.4h7.7425q2.4 0 2.4-2.4v-33.808q0-2.4-2.4-2.4h-7.7425q-2.4 0-2.4 2.4z" clip-path="url(#a)" fill="#fff" stroke="#fff"/>
<g clip-path="url(#a)">
<g transform="translate(145.81 968.85) rotate(90) scale(.08 -.08)">
<use xlink:href="#l"/>
<use x="44.083984" xlink:href="#d"/>
<use x="105.607422" xlink:href="#h"/>
<use x="144.970703" xlink:href="#k"/>
<use x="242.382812" xlink:href="#e"/>
<use x="270.166016" xlink:href="#g"/>
<use x="333.544922" xlink:href="#i"/>
<use x="394.824219" xlink:href="#j"/>
</g>
</g>
<path d="m244.32 968.85v33.808q0 2.4 2.4 2.4h7.7425q2.4 0 2.4-2.4v-33.808q0-2.4-2.4-2.4h-7.7425q-2.4 0-2.4 2.4z" clip-path="url(#a)" fill="#fff" stroke="#fff"/>
<g clip-path="url(#a)">
<g transform="translate(248.38 968.85) rotate(90) scale(.08 -.08)">
<use xlink:href="#l"/>
<use x="44.083984" xlink:href="#d"/>
<use x="105.607422" xlink:href="#h"/>
<use x="144.970703" xlink:href="#k"/>
<use x="242.382812" xlink:href="#e"/>
<use x="270.166016" xlink:href="#g"/>
<use x="333.544922" xlink:href="#i"/>
<use x="394.824219" xlink:href="#j"/>
</g>
</g>
<path d="m270.99 968.85v33.808q0 2.4 2.4 2.4h7.7425q2.4 0 2.4-2.4v-33.808q0-2.4-2.4-2.4h-7.7425q-2.4 0-2.4 2.4z" clip-path="url(#a)" fill="#fff" stroke="#fff"/>
<g clip-path="url(#a)">
<g transform="translate(275.05 968.85) rotate(90) scale(.08 -.08)">
<use xlink:href="#l"/>
<use x="44.083984" xlink:href="#d"/>
<use x="105.607422" xlink:href="#h"/>
<use x="144.970703" xlink:href="#k"/>
<use x="242.382812" xlink:href="#e"/>
<use x="270.166016" xlink:href="#g"/>
<use x="333.544922" xlink:href="#i"/>
<use x="394.824219" xlink:href="#j"/>
</g>
</g>
<path d="m474.08 968.85v33.808q0 2.4 2.4 2.4h7.7425q2.4 0 2.4-2.4v-33.808q0-2.4-2.4-2.4h-7.7425q-2.4 0-2.4 2.4z" clip-path="url(#a)" fill="#fff" stroke="#fff"/>
<g clip-path="url(#a)">
<g transform="translate(478.15 968.85) rotate(90) scale(.08 -.08)">
<use xlink:href="#l"/>
<use x="44.083984" xlink:href="#d"/>
<use x="105.607422" xlink:href="#h"/>
<use x="144.970703" xlink:href="#k"/>
<use x="242.382812" xlink:href="#e"/>
<use x="270.166016" xlink:href="#g"/>
<use x="333.544922" xlink:href="#i"/>
<use x="394.824219" xlink:href="#j"/>
</g>
</g>
<path d="m650.51 968.85v33.808q0 2.4 2.4 2.4h7.7425q2.4 0 2.4-2.4v-33.808q0-2.4-2.4-2.4h-7.7425q-2.4 0-2.4 2.4z" clip-path="url(#a)" fill="#fff" stroke="#fff"/>
<g clip-path="url(#a)">
<g transform="translate(654.57 968.85) rotate(90) scale(.08 -.08)">
<use xlink:href="#l"/>
<use x="44.083984" xlink:href="#d"/>
<use x="105.607422" xlink:href="#h"/>
<use x="144.970703" xlink:href="#k"/>
<use x="242.382812" xlink:href="#e"/>
<use x="270.166016" xlink:href="#g"/>
<use x="333.544922" xlink:href="#i"/>
<use x="394.824219" xlink:href="#j"/>
</g>
</g>
<path d="m917.2 968.85v33.808q0 2.4 2.4 2.4h7.7425q2.4 0 2.4-2.4v-33.808q0-2.4-2.4-2.4h-7.7425q-2.4 0-2.4 2.4z" clip-path="url(#a)" fill="#fff" stroke="#fff"/>
<g clip-path="url(#a)">
<g transform="translate(921.27 968.85) rotate(90) scale(.08 -.08)">
<use xlink:href="#l"/>
<use x="44.083984" xlink:href="#d"/>
<use x="105.607422" xlink:href="#h"/>
<use x="144.970703" xlink:href="#k"/>
<use x="242.382812" xlink:href="#e"/>
<use x="270.166016" xlink:href="#g"/>
<use x="333.544922" xlink:href="#i"/>
<use x="394.824219" xlink:href="#j"/>
</g>
</g>
<path d="m1450.6 968.85v33.808q0 2.4 2.4 2.4h7.7425q2.4 0 2.4-2.4v-33.808q0-2.4-2.4-2.4h-7.7425q-2.4 0-2.4 2.4z" clip-path="url(#a)" fill="#fff" stroke="#fff"/>
<g clip-path="url(#a)">
<g transform="translate(1454.7 968.85) rotate(90) scale(.08 -.08)">
<use xlink:href="#l"/>
<use x="44.083984" xlink:href="#d"/>
<use x="105.607422" xlink:href="#h"/>
<use x="144.970703" xlink:href="#k"/>
<use x="242.382812" xlink:href="#e"/>
<use x="270.166016" xlink:href="#g"/>
<use x="333.544922" xlink:href="#i"/>
<use x="394.824219" xlink:href="#j"/>
</g>
</g>
<path d="m1936.8 968.85v33.808q0 2.4 2.4 2.4h7.7425q2.4 0 2.4-2.4v-33.808q0-2.4-2.4-2.4h-7.7425q-2.4 0-2.4 2.4z" clip-path="url(#a)" fill="#fff" stroke="#fff"/>
<g clip-path="url(#a)">
<g transform="translate(1940.9 968.85) rotate(90) scale(.08 -.08)">
<use xlink:href="#l"/>
<use x="44.083984" xlink:href="#d"/>
<use x="105.607422" xlink:href="#h"/>
<use x="144.970703" xlink:href="#k"/>
<use x="242.382812" xlink:href="#e"/>
<use x="270.166016" xlink:href="#g"/>
<use x="333.544922" xlink:href="#i"/>
<use x="394.824219" xlink:href="#j"/>
</g>
</g>
<path d="m2025 968.85v33.808q0 2.4 2.4 2.4h7.7425q2.4 0 2.4-2.4v-33.808q0-2.4-2.4-2.4h-7.7425q-2.4 0-2.4 2.4z" clip-path="url(#a)" fill="#fff" stroke="#fff"/>
<g clip-path="url(#a)">
<g transform="translate(2029.1 968.85) rotate(90) scale(.08 -.08)">
<use xlink:href="#l"/>
<use x="44.083984" xlink:href="#d"/>
<use x="105.607422" xlink:href="#h"/>
<use x="144.970703" xlink:href="#k"/>
<use x="242.382812" xlink:href="#e"/>
<use x="270.166016" xlink:href="#g"/>
<use x="333.544922" xlink:href="#i"/>
<use x="394.824219" xlink:href="#j"/>
</g>
</g>
<defs>
<path id="b" d="m0 8.6603c2.2967 0 4.4997-0.9125 6.1237-2.5365 1.624-1.624 2.5365-3.827 2.5365-6.1237s-0.9125-4.4997-2.5365-6.1237c-1.624-1.624-3.827-2.5365-6.1237-2.5365s-4.4997 0.9125-6.1237 2.5365c-1.624 1.624-2.5365 3.827-2.5365 6.1237s0.9125 4.4997 2.5365 6.1237c1.624 1.624 3.827 2.5365 6.1237 2.5365z"/>
</defs>
<g clip-path="url(#a)" fill="#ffffff" stroke="#ffffff">
<use x="96.727273" y="1069.090909" xlink:href="#b"/>
<use x="102.881712" y="1069.090909" xlink:href="#b"/>
<use x="111.087631" y="1069.090909" xlink:href="#b"/>
<use x="121.34503" y="1069.090909" xlink:href="#b"/>
<use x="133.653909" y="1069.090909" xlink:href="#b"/>
<use x="148.014268" y="1069.090909" xlink:href="#b"/>
<use x="164.426106" y="1069.090909" xlink:href="#b"/>
<use x="182.889424" y="1069.090909" xlink:href="#b"/>
<use x="203.404223" y="1069.090909" xlink:href="#b"/>
<use x="225.9705" y="1069.090909" xlink:href="#b"/>
<use x="250.588258" y="1069.090909" xlink:href="#b"/>
<use x="277.257495" y="1069.090909" xlink:href="#b"/>
<use x="305.978213" y="1069.090909" xlink:href="#b"/>
<use x="336.75041" y="1069.090909" xlink:href="#b"/>
<use x="369.574087" y="1069.090909" xlink:href="#b"/>
<use x="404.449243" y="1069.090909" xlink:href="#b"/>
<use x="441.37588" y="1069.090909" xlink:href="#b"/>
<use x="480.353996" y="1069.090909" xlink:href="#b"/>
<use x="521.383592" y="1069.090909" xlink:href="#b"/>
<use x="564.464668" y="1069.090909" xlink:href="#b"/>
<use x="609.597224" y="1069.090909" xlink:href="#b"/>
<use x="656.781259" y="1069.090909" xlink:href="#b"/>
<use x="706.016774" y="1069.090909" xlink:href="#b"/>
<use x="757.303769" y="1069.090909" xlink:href="#b"/>
<use x="810.642244" y="1069.090909" xlink:href="#b"/>
<use x="866.032199" y="1069.090909" xlink:href="#b"/>
<use x="923.473633" y="1069.090909" xlink:href="#b"/>
<use x="982.966548" y="1069.090909" xlink:href="#b"/>
<use x="1044.510942" y="1069.090909" xlink:href="#b"/>
<use x="1108.106816" y="1069.090909" xlink:href="#b"/>
<use x="1173.754169" y="1069.090909" xlink:href="#b"/>
<use x="1241.453003" y="1069.090909" xlink:href="#b"/>
<use x="1311.203316" y="1069.090909" xlink:href="#b"/>
<use x="1383.005109" y="1069.090909" xlink:href="#b"/>
<use x="1456.858382" y="1069.090909" xlink:href="#b"/>
<use x="1532.763135" y="1069.090909" xlink:href="#b"/>
<use x="1610.719368" y="1069.090909" xlink:href="#b"/>
<use x="1690.72708" y="1069.090909" xlink:href="#b"/>
<use x="1772.786272" y="1069.090909" xlink:href="#b"/>
<use x="1856.896944" y="1069.090909" xlink:href="#b"/>
<use x="1943.059096" y="1069.090909" xlink:href="#b"/>
<use x="2031.272727" y="1069.090909" xlink:href="#b"/>
<use x="311.109317" y="50.909091" xlink:href="#b"/>
<use x="311.109317" y="222.151622" xlink:href="#b"/>
<use x="999.737136" y="393.049706" xlink:href="#b"/>
<use x="164.426106" y="902.407423" xlink:href="#b"/>
<use x="204.088049" y="733.405186" xlink:href="#b"/>
<use x="182.889424" y="902.407423" xlink:href="#b"/>
<use x="203.404223" y="902.407423" xlink:href="#b"/>
<use x="225.9705" y="902.407423" xlink:href="#b"/>
<use x="271.744143" y="563.516548" xlink:href="#b"/>
<use x="565.148494" y="733.405186" xlink:href="#b"/>
<use x="767.219255" y="563.516548" xlink:href="#b"/>
<use x="1025.591739" y="563.516548" xlink:href="#b"/>
<use x="1173.754169" y="902.407423" xlink:href="#b"/>
<use x="1249.317009" y="563.516548" xlink:href="#b"/>
<use x="1532.763135" y="902.407423" xlink:href="#b"/>
<use x="1817.576914" y="733.405186" xlink:href="#b"/>
<use x="1610.719368" y="902.407423" xlink:href="#b"/>
<use x="1690.72708" y="902.407423" xlink:href="#b"/>
<use x="1772.786272" y="902.407423" xlink:href="#b"/>
<use x="1856.896944" y="902.407423" xlink:href="#b"/>
<use x="1053.742601" y="733.405186" xlink:href="#b"/>
<use x="1311.203316" y="902.407423" xlink:href="#b"/>
<use x="1383.005109" y="902.407423" xlink:href="#b"/>
<use x="1241.453003" y="902.407423" xlink:href="#b"/>
<use x="924.15746" y="733.405186" xlink:href="#b"/>
<use x="1044.510942" y="902.407423" xlink:href="#b"/>
<use x="1108.106816" y="902.407423" xlink:href="#b"/>
<use x="982.966548" y="902.407423" xlink:href="#b"/>
<use x="706.016774" y="902.407423" xlink:href="#b"/>
<use x="757.303769" y="902.407423" xlink:href="#b"/>
<use x="838.337222" y="733.405186" xlink:href="#b"/>
<use x="810.642244" y="902.407423" xlink:href="#b"/>
<use x="866.032199" y="902.407423" xlink:href="#b"/>
<use x="521.383592" y="902.407423" xlink:href="#b"/>
<use x="564.464668" y="902.407423" xlink:href="#b"/>
<use x="609.597224" y="902.407423" xlink:href="#b"/>
<use x="96.727273" y="902.407423" xlink:href="#b"/>
<use x="116.216331" y="733.405186" xlink:href="#b"/>
<use x="305.978213" y="902.407423" xlink:href="#b"/>
<use x="336.75041" y="902.407423" xlink:href="#b"/>
<use x="369.574087" y="902.407423" xlink:href="#b"/>
<use x="404.449243" y="902.407423" xlink:href="#b"/>
<use x="441.37588" y="902.407423" xlink:href="#b"/>
<use x="102.881712" y="902.407423" xlink:href="#b"/>
<use x="111.087631" y="902.407423" xlink:href="#b"/>
<use x="121.34503" y="902.407423" xlink:href="#b"/>
<use x="133.653909" y="902.407423" xlink:href="#b"/>
<use x="148.014268" y="902.407423" xlink:href="#b"/>
<use x="250.588258" y="902.407423" xlink:href="#b"/>
<use x="277.257495" y="902.407423" xlink:href="#b"/>
<use x="480.353996" y="902.407423" xlink:href="#b"/>
<use x="656.781259" y="902.407423" xlink:href="#b"/>
<use x="923.473633" y="902.407423" xlink:href="#b"/>
<use x="1456.858382" y="902.407423" xlink:href="#b"/>
<use x="1943.059096" y="902.407423" xlink:href="#b"/>
<use x="2031.272727" y="902.407423" xlink:href="#b"/>
</g>
<g clip-path="url(#a)">
<defs>
<path id="aw" d="m39.406 66.219q-10.75 0-17.078-8.0156-6.3125-8-6.3125-21.828 0-13.766 6.3125-21.781 6.3281-8 17.078-8 10.734 0 17.016 8 6.2812 8.0156 6.2812 21.781 0 13.828-6.2812 21.828-6.2812 8.0156-17.016 8.0156zm0 8q15.328 0 24.5-10.281 9.1875-10.281 9.1875-27.562 0-17.234-9.1875-27.516-9.1719-10.281-24.5-10.281-15.375 0-24.594 10.25-9.2031 10.266-9.2031 27.547t9.2031 27.562q9.2188 10.281 24.594 10.281z"/>
<path id="z" d="m54.891 33.016v-33.016h-8.9844v32.719q0 7.7656-3.0312 11.609-3.0312 3.8594-9.0781 3.8594-7.2812 0-11.484-4.6406-4.2031-4.625-4.2031-12.641v-30.906h-9.0312v75.984h9.0312v-29.797q3.2344 4.9375 7.5938 7.375 4.375 2.4375 10.094 2.4375 9.4219 0 14.25-5.8281 4.8438-5.8281 4.8438-17.156z"/>
</defs>
<g transform="translate(89.623 1071.9) scale(.1 -.1)">
<use xlink:href="#aw"/>
<use x="78.710938" xlink:href="#z"/>
</g>
</g>
<g clip-path="url(#a)">
<defs>
<path id="ba" d="m15.094 12.406h9.9062v-12.406h-9.9062zm0 60.5h9.9062v-31.984l-0.96875-17.438h-7.9219l-1.0156 17.438z"/>
</defs>
<g transform="translate(100.88 1071.9) scale(.1 -.1)">
<use xlink:href="#ba"/>
</g>
</g>
<g clip-path="url(#a)">
<defs>
<path id="az" d="m19.672 34.812v-26.703h15.828q7.9531 0 11.781 3.2969 3.8438 3.2969 3.8438 10.078 0 6.8438-3.8438 10.078-3.8281 3.25-11.781 3.25zm0 29.984v-21.969h14.609q7.2188 0 10.75 2.7031 3.5469 2.7188 3.5469 8.2812 0 5.5156-3.5469 8.25-3.5312 2.7344-10.75 2.7344zm-9.8594 8.1094h25.203q11.281 0 17.375-4.6875 6.1094-4.6875 6.1094-13.328 0-6.7031-3.125-10.656t-9.1875-4.9219q7.2812-1.5625 11.312-6.5312 4.0312-4.9531 4.0312-12.375 0-9.7656-6.6406-15.094-6.6406-5.3125-18.906-5.3125h-26.172z"/>
</defs>
<g transform="translate(103.19 1071.9) scale(.1 -.1)">
<use xlink:href="#az"/>
<use x="68.603516" xlink:href="#d"/>
<use x="130.126953" xlink:href="#e"/>
</g>
</g>
<g clip-path="url(#a)">
<g transform="translate(113.03 1071.9) scale(.1 -.1)">
<use xlink:href="#k"/>
<use x="97.412109" xlink:href="#e"/>
<use x="125.195312" xlink:href="#h"/>
</g>
</g>
<g clip-path="url(#a)">
<defs>
<path id="aj" d="m17.922 72.906v-27.109h-8.2969v27.109zm18.453 0v-27.109h-8.2969v27.109z"/>
</defs>
<g transform="translate(131.35 1071.9) scale(.1 -.1)">
<use xlink:href="#aj"/>
</g>
</g>
<g clip-path="url(#a)">
<defs>
<path id="ai" d="m11.719 12.406h10.297v-8.4062l-8-15.625h-6.2969l4 15.625z"/>
</defs>
<g transform="translate(146.43 1071.9) scale(.1 -.1)">
<use xlink:href="#ai"/>
</g>
</g>
<g clip-path="url(#a)">
<defs>
<path id="s" d="m44.281 53.078v-8.5q-3.7969 1.9531-7.9062 2.9219-4.0938 0.98438-8.5 0.98438-6.6875 0-10.031-2.0469t-3.3438-6.1562q0-3.125 2.3906-4.9062t9.625-3.3906l3.0781-0.6875q9.5625-2.0469 13.594-5.7812t4.0312-10.422q0-7.625-6.0312-12.078-6.0312-4.4375-16.578-4.4375-4.3906 0-9.1562 0.85938t-10.031 2.5625v9.2812q4.9844-2.5938 9.8125-3.8906 4.8281-1.2812 9.5781-1.2812 6.3438 0 9.75 2.1719 3.4219 2.1719 3.4219 6.125 0 3.6562-2.4688 5.6094-2.4531 1.9531-10.812 3.7656l-3.125 0.73438q-8.3438 1.75-12.062 5.3906-3.7031 3.6406-3.7031 9.9844 0 7.7188 5.4688 11.906 5.4688 4.2031 15.531 4.2031 4.9688 0 9.3594-0.73438 4.4062-0.71875 8.1094-2.1875z"/>
<path id="as" d="m45.406 27.984q0 9.7656-4.0312 15.125-4.0156 5.375-11.297 5.375-7.2188 0-11.25-5.375-4.0312-5.3594-4.0312-15.125 0-9.7188 4.0312-15.094t11.25-5.375q7.2812 0 11.297 5.375 4.0312 5.375 4.0312 15.094zm8.9844-21.203q0-13.953-6.2031-20.766-6.1875-6.8125-18.984-6.8125-4.7344 0-8.9375 0.70312t-8.1562 2.1719v8.7344q3.9531-2.1406 7.8125-3.1562 3.8594-1.0312 7.8594-1.0312 8.8438 0 13.234 4.6094t4.3906 13.938v4.4531q-2.7812-4.8438-7.125-7.2344t-10.406-2.3906q-10.047 0-16.203 7.6562-6.1562 7.6719-6.1562 20.328 0 12.688 6.1562 20.344 6.1562 7.6719 16.203 7.6719 6.0625 0 10.406-2.3906t7.125-7.2188v8.2969h8.9844z"/>
<path id="u" d="m18.312 70.219v-15.531h18.5v-6.9844h-18.5v-29.688q0-6.6875 1.8281-8.5938t7.4531-1.9062h9.2188v-7.5156h-9.2188q-10.406 0-14.359 3.875-3.9531 3.8906-3.9531 14.141v29.688h-6.5938v6.9844h6.5938v15.531z"/>
</defs>
<g transform="translate(150.55 1071.9) scale(.1 -.1)">
<use xlink:href="#s"/>
<use x="52.099609" xlink:href="#i"/>
<use x="113.378906" xlink:href="#as"/>
<use x="176.855469" xlink:href="#u"/>
<use x="216.064453" xlink:href="#d"/>
</g>
</g>
<g clip-path="url(#a)">
<defs>
<path id="ac" d="m45.406 46.391v29.594h8.9844v-75.984h-8.9844v8.2031q-2.8281-4.875-7.1562-7.25-4.3125-2.375-10.375-2.375-9.9062 0-16.141 7.9062-6.2188 7.9219-6.2188 20.812t6.2188 20.797q6.2344 7.9062 16.141 7.9062 6.0625 0 10.375-2.375 4.3281-2.3594 7.1562-7.2344zm-30.609-19.094q0-9.9062 4.0781-15.547t11.203-5.6406 11.219 5.6406q4.1094 5.6406 4.1094 15.547t-4.1094 15.547q-4.0938 5.6406-11.219 5.6406t-11.203-5.6406-4.0781-15.547z"/>
</defs>
<g transform="translate(174.58 1071.9) scale(.1 -.1)">
<use xlink:href="#ac"/>
<use x="63.476562" xlink:href="#d"/>
<use x="125" xlink:href="#h"/>
</g>
</g>
<g clip-path="url(#a)">
<defs>
<path id="al" d="m9.0781 75.984h9.0312v-44.875l26.812 23.578h11.469l-29-25.578 30.234-29.109h-11.719l-27.797 26.703v-26.703h-9.0312z"/>
</defs>
<g transform="translate(188.41 1071.9) scale(.1 -.1)">
<use xlink:href="#al"/>
<use x="57.910156" xlink:href="#j"/>
<use x="85.693359" xlink:href="#d"/>
<use x="147.216797" xlink:href="#e"/>
<use x="175" xlink:href="#g"/>
<use x="238.378906" xlink:href="#d"/>
</g>
</g>
<g clip-path="url(#a)">
<defs>
<path id="ap" d="m5.5156 54.688h42.672v-8.2031l-33.781-39.312h33.781v-7.1719h-43.891v8.2031l33.797 39.312h-32.578z"/>
</defs>
<g transform="translate(213.81 1071.9) scale(.1 -.1)">
<use xlink:href="#an"/>
<use x="58.552734" xlink:href="#h"/>
<use x="99.666016" xlink:href="#e"/>
<use x="127.449219" xlink:href="#g"/>
<use x="190.828125" xlink:href="#ap"/>
</g>
</g>
<g clip-path="url(#a)">
<g transform="translate(249 1071.9) scale(.1 -.1)">
<use xlink:href="#ai"/>
</g>
</g>
<g clip-path="url(#a)">
<g transform="translate(274.96 1071.9) scale(.1 -.1)">
<use xlink:href="#aj"/>
</g>
</g>
<g clip-path="url(#a)">
<g transform="translate(300.02 1071.9) scale(.1 -.1)">
<use xlink:href="#e"/>
<use x="27.783203" xlink:href="#s"/>
<use x="79.882812" xlink:href="#u"/>
</g>
</g>
<g clip-path="url(#a)">
<g transform="translate(331.07 1071.9) scale(.1 -.1)">
<use xlink:href="#d"/>
<use x="61.523438" xlink:href="#s"/>
</g>
</g>
<g clip-path="url(#a)">
<defs>
<path id="ad" d="m48.781 52.594v-8.4062q-3.8125 2.1094-7.6406 3.1562t-7.7344 1.0469q-8.75 0-13.594-5.5469-4.8281-5.5312-4.8281-15.547t4.8281-15.562q4.8438-5.5312 13.594-5.5312 3.9062 0 7.7344 1.0469t7.6406 3.1562v-8.3125q-3.7656-1.75-7.7969-2.625-4.0156-0.89062-8.5625-0.89062-12.359 0-19.641 7.7656-7.2656 7.7656-7.2656 20.953 0 13.375 7.3438 21.031 7.3594 7.6719 20.156 7.6719 4.1406 0 8.0938-0.85938 3.9531-0.84375 7.6719-2.5469z"/>
</defs>
<g transform="translate(357.14 1071.9) scale(.1 -.1)">
<use xlink:href="#g"/>
<use x="63.378906" xlink:href="#e"/>
<use x="91.162109" xlink:href="#ad"/>
<use x="146.142578" xlink:href="#z"/>
<use x="209.521484" xlink:href="#u"/>
</g>
</g>
<g clip-path="url(#a)">
<defs>
<path id="ar" d="m30.609 48.391q-7.2188 0-11.422-5.6406t-4.2031-15.453 4.1719-15.453q4.1875-5.6406 11.453-5.6406 7.1875 0 11.375 5.6562 4.2031 5.6719 4.2031 15.438 0 9.7188-4.2031 15.406-4.1875 5.6875-11.375 5.6875zm0 7.6094q11.719 0 18.406-7.625 6.7031-7.6094 6.7031-21.078 0-13.422-6.7031-21.078-6.6875-7.6406-18.406-7.6406-11.766 0-18.438 7.6406-6.6562 7.6562-6.6562 21.078 0 13.469 6.6562 21.078 6.6719 7.625 18.438 7.625z"/>
</defs>
<g transform="translate(378.61 1071.9) scale(.1 -.1)">
<use xlink:href="#s"/>
<use x="52.099609" xlink:href="#ar"/>
<use x="113.28125" xlink:href="#g"/>
<use x="176.660156" xlink:href="#ac"/>
<use x="240.136719" xlink:href="#d"/>
<use x="301.660156" xlink:href="#h"/>
<use x="342.773438" xlink:href="#j"/>
<use x="370.556641" xlink:href="#e"/>
<use x="398.339844" xlink:href="#ad"/>
<use x="453.320312" xlink:href="#z"/>
</g>
</g>
<g clip-path="url(#a)">
<g transform="translate(413.36 1071.9) scale(.1 -.1)">
<use xlink:href="#e"/>
<use x="27.783203" xlink:href="#g"/>
<use x="91.162109" xlink:href="#u"/>
<use x="130.371094" xlink:href="#d"/>
<use x="191.894531" xlink:href="#h"/>
<use x="230.757812" xlink:href="#d"/>
<use x="292.28125" xlink:href="#s"/>
<use x="344.380859" xlink:href="#s"/>
<use x="396.480469" xlink:href="#i"/>
<use x="457.759766" xlink:href="#g"/>
<use x="521.138672" xlink:href="#u"/>
</g>
</g>
<g clip-path="url(#a)">
<g transform="translate(478.76 1071.9) scale(.1 -.1)">
<use xlink:href="#ai"/>
</g>
</g>
<g clip-path="url(#a)">
<g transform="translate(515.7 1071.9) scale(.1 -.1)">
<use xlink:href="#d"/>
<use x="61.523438" xlink:href="#s"/>
</g>
</g>
<g clip-path="url(#a)">
<g transform="translate(558.51 1071.9) scale(.1 -.1)">
<use xlink:href="#e"/>
<use x="27.783203" xlink:href="#s"/>
<use x="79.882812" xlink:href="#u"/>
</g>
</g>
<g clip-path="url(#a)">
<defs>
<path id="ak" d="m4.2031 54.688h8.9844l11.234-42.672 11.172 42.672h10.594l11.234-42.672 11.188 42.672h8.9844l-14.312-54.688h-10.594l-11.766 44.828-11.812-44.828h-10.609z"/>
</defs>
<g transform="translate(593.76 1071.9) scale(.1 -.1)">
<use xlink:href="#ak"/>
<use x="81.787109" xlink:href="#e"/>
<use x="109.570312" xlink:href="#g"/>
<use x="172.949219" xlink:href="#ap"/>
<use x="225.439453" xlink:href="#e"/>
<use x="253.222656" xlink:href="#as"/>
</g>
</g>
<g clip-path="url(#a)">
<defs>
<path id="f" d="m10.688 12.406h10.312v-12.406h-10.312z"/>
</defs>
<g transform="translate(655.19 1071.9) scale(.1 -.1)">
<use xlink:href="#f"/>
</g>
</g>
<g clip-path="url(#a)">
<defs>
<path id="ax" d="m9.8125 72.906h9.8594v-72.906h-9.8594z"/>
</defs>
<g transform="translate(698.62 1071.9) scale(.1 -.1)">
<use xlink:href="#ax"/>
<use x="29.492188" xlink:href="#ad"/>
<use x="84.472656" xlink:href="#z"/>
</g>
</g>
<g clip-path="url(#a)">
<defs>
<path id="am" d="m48.688 27.297q0 9.9062-4.0781 15.547t-11.203 5.6406q-7.1406 0-11.219-5.6406t-4.0781-15.547 4.0781-15.547 11.219-5.6406q7.125 0 11.203 5.6406t4.0781 15.547zm-30.578 19.094q2.8438 4.875 7.1562 7.2344 4.3281 2.375 10.328 2.375 9.9688 0 16.188-7.9062 6.2344-7.9062 6.2344-20.797t-6.2344-20.812q-6.2188-7.9062-16.188-7.9062-6 0-10.328 2.375-4.3125 2.375-7.1562 7.25v-8.2031h-9.0312v75.984h9.0312z"/>
</defs>
<g transform="translate(744.82 1071.9) scale(.1 -.1)">
<use xlink:href="#z"/>
<use x="63.378906" xlink:href="#i"/>
<use x="124.658203" xlink:href="#am"/>
<use x="188.134766" xlink:href="#d"/>
</g>
</g>
<g clip-path="url(#a)">
<g transform="translate(801.06 1071.9) scale(.1 -.1)">
<use xlink:href="#ac"/>
<use x="63.476562" xlink:href="#h"/>
<use x="102.339844" xlink:href="#d"/>
<use x="163.863281" xlink:href="#e"/>
</g>
</g>
<g clip-path="url(#a)">
<defs>
<path id="au" d="m28.609 0-27.828 72.906h10.297l23.109-61.375 23.141 61.375h10.25l-27.781-72.906z"/>
<path id="aq" d="m8.5 21.578v33.109h8.9844v-32.766q0-7.7656 3.0156-11.656 3.0312-3.875 9.0938-3.875 7.2656 0 11.484 4.6406 4.2344 4.6406 4.2344 12.656v31h8.9844v-54.688h-8.9844v8.4062q-3.2656-4.9844-7.5938-7.4062-4.3125-2.4219-10.031-2.4219-9.4219 0-14.312 5.8594-4.875 5.8594-4.875 17.141z"/>
</defs>
<g transform="translate(846.27 1071.9) scale(.1 -.1)">
<use xlink:href="#au"/>
<use x="61.658203" xlink:href="#aq"/>
<use x="125.037109" xlink:href="#j"/>
<use x="152.820312" xlink:href="#al"/>
<use x="208.980469" xlink:href="#i"/>
<use x="270.259766" xlink:href="#g"/>
<use x="333.638672" xlink:href="#d"/>
</g>
</g>
<g clip-path="url(#a)">
<g transform="translate(921.88 1071.9) scale(.1 -.1)">
<use xlink:href="#f"/>
</g>
</g>
<g clip-path="url(#a)">
<defs>
<path id="at" d="m5.6094 72.906h57.281v-7.5312l-46.094-57.078h47.219v-8.2969h-59.516v7.5156l46.094 57.078h-44.984z"/>
</defs>
<g transform="translate(970.99 1071.9) scale(.1 -.1)">
<use xlink:href="#at"/>
<use x="68.505859" xlink:href="#ak"/>
<use x="150.292969" xlink:href="#d"/>
<use x="211.816406" xlink:href="#e"/>
</g>
</g>
<g clip-path="url(#a)">
<g transform="translate(1034.2 1071.9) scale(.1 -.1)">
<use xlink:href="#s"/>
<use x="52.099609" xlink:href="#e"/>
<use x="79.882812" xlink:href="#g"/>
<use x="143.261719" xlink:href="#ac"/>
</g>
</g>
<g clip-path="url(#a)">
<defs>
<path id="bd" d="m2.9844 54.688h9.5156l17.094-45.891 17.094 45.891h9.5156l-20.516-54.688h-12.203z"/>
</defs>
<g transform="translate(1095.8 1071.9) scale(.1 -.1)">
<use xlink:href="#i"/>
<use x="61.279297" xlink:href="#al"/>
<use x="119.189453" xlink:href="#u"/>
<use x="158.398438" xlink:href="#e"/>
<use x="186.181641" xlink:href="#bd"/>
</g>
</g>
<g clip-path="url(#a)">
<g transform="translate(1164.2 1071.9) scale(.1 -.1)">
<use xlink:href="#aq"/>
<use x="63.378906" xlink:href="#g"/>
<use x="126.757812" xlink:href="#ac"/>
</g>
</g>
<g clip-path="url(#a)">
<g transform="translate(1228.7 1071.9) scale(.1 -.1)">
<use xlink:href="#d"/>
<use x="61.523438" xlink:href="#e"/>
<use x="89.306641" xlink:href="#g"/>
<use x="152.685547" xlink:href="#d"/>
<use x="214.208984" xlink:href="#h"/>
</g>
</g>
<g clip-path="url(#a)">
<g transform="translate(1305.2 1071.9) scale(.1 -.1)">
<use xlink:href="#e"/>
<use x="27.783203" xlink:href="#s"/>
<use x="79.882812" xlink:href="#u"/>
</g>
</g>
<g clip-path="url(#a)">
<g transform="translate(1358.7 1071.9) scale(.1 -.1)">
<use xlink:href="#d"/>
<use x="61.523438" xlink:href="#h"/>
<use x="102.636719" xlink:href="#j"/>
<use x="130.419922" xlink:href="#ar"/>
<use x="191.601562" xlink:href="#s"/>
<use x="243.701172" xlink:href="#ad"/>
<use x="298.681641" xlink:href="#z"/>
<use x="362.060547" xlink:href="#d"/>
<use x="423.583984" xlink:href="#g"/>
</g>
</g>
<g clip-path="url(#a)">
<g transform="translate(1455.3 1071.9) scale(.1 -.1)">
<use xlink:href="#f"/>
</g>
</g>
<g clip-path="url(#a)">
<g transform="translate(1521 1071.9) scale(.1 -.1)">
<use xlink:href="#t"/>
<use x="68.408203" xlink:href="#am"/>
<use x="131.884766" xlink:href="#d"/>
<use x="193.408203" xlink:href="#h"/>
</g>
</g>
<g clip-path="url(#a)">
<g transform="translate(1599.6 1071.9) scale(.1 -.1)">
<use xlink:href="#k"/>
<use x="97.412109" xlink:href="#i"/>
<use x="158.691406" xlink:href="#g"/>
</g>
</g>
<g clip-path="url(#a)">
<defs>
<path id="bb" d="m9.0781 55.516q0 9.7656 5.8281 15.109 5.8438 5.3594 16.484 5.3594 10.156 0 15.5-5.6719 5.3594-5.6562 5.5-16.594-7.375-0.39062-11.484-3.2031-4.0938-2.8125-4.0938-7.5 0-2.2969 1.4219-4.2812 1.4219-1.9688 4.5938-4.0156l2.7812-1.8125q8.1094-5.1719 10.453-8.6406t2.3438-8.3438q0-8.4062-5.5-12.875t-15.797-4.4688q-3.125 0-6.4531 0.60938-3.3125 0.60938-6.875 1.7969v8q3.9062-1.4688 7.3125-2.1719 3.4219-0.70312 6.6094-0.70312 5.6562 0 8.5781 2.3125 2.9375 2.3281 2.9375 6.7656 0 3.0781-1.4375 5.125t-6.375 5.0781l-4.4844 2.6875q-4.6875 2.875-6.8125 6.1719t-2.125 7.75q0 6.1875 4.0781 10.391t11.438 5.625q-0.39062 5.0156-3.5938 7.75-3.1875 2.7344-8.7031 2.7344-6.3438 0-9.6719-3.3906-3.3125-3.3906-3.3125-9.7812v-55.328h-9.1406z"/>
</defs>
<g transform="translate(1679 1071.9) scale(.1 -.1)">
<use xlink:href="#ak"/>
<use x="81.787109" xlink:href="#d"/>
<use x="143.310547" xlink:href="#e"/>
<use x="171.09375" xlink:href="#bb"/>
</g>
</g>
<g clip-path="url(#a)">
<defs>
<path id="be" d="m9.4219 54.688h8.9844v-55.672q0-10.438-3.9844-15.125-3.9688-4.6875-12.812-4.6875h-3.4219v7.6094h2.4062q5.125 0 6.9688 2.375 1.8594 2.3594 1.8594 9.8281zm0 21.297h8.9844v-11.391h-8.9844z"/>
</defs>
<g transform="translate(1768.3 1071.9) scale(.1 -.1)">
<use xlink:href="#be"/>
<use x="27.783203" xlink:href="#i"/>
</g>
</g>
<g clip-path="url(#a)">
<g transform="translate(1849.3 1071.9) scale(.1 -.1)">
<use xlink:href="#g"/>
<use x="63.378906" xlink:href="#e"/>
<use x="91.162109" xlink:href="#d"/>
</g>
</g>
<g clip-path="url(#a)">
<g transform="translate(1941.5 1071.9) scale(.1 -.1)">
<use xlink:href="#f"/>
</g>
</g>
<g clip-path="url(#a)">
<g transform="translate(2029 1071.9) scale(.1 -.1)">
<use xlink:href="#aj"/>
</g>
</g>
<g clip-path="url(#a)">
<defs>
<path id="c" d="m12.406 8.2969h16.109v55.625l-17.531-3.5156v8.9844l17.438 3.5156h9.8594v-64.609h16.109v-8.2969h-41.984z"/>
</defs>
<g transform="translate(303.16 53.668) scale(.1 -.1)">
<use xlink:href="#c"/>
<use x="63.623047" xlink:href="#f"/>
<use x="95.410156" xlink:href="#c"/>
</g>
</g>
<g clip-path="url(#a)">
<defs>
<path id="r" d="m19.188 8.2969h34.422v-8.2969h-46.281v8.2969q5.6094 5.8125 15.297 15.594 9.7031 9.7969 12.188 12.641 4.7344 5.3125 6.6094 9 1.8906 3.6875 1.8906 7.25 0 5.8125-4.0781 9.4688-4.0781 3.6719-10.625 3.6719-4.6406 0-9.7969-1.6094-5.1406-1.6094-11-4.8906v9.9688q5.9531 2.3906 11.125 3.6094 5.1875 1.2188 9.4844 1.2188 11.328 0 18.062-5.6719 6.7344-5.6562 6.7344-15.125 0-4.5-1.6875-8.5312-1.6719-4.0156-6.125-9.4844-1.2188-1.4219-7.7656-8.1875-6.5312-6.7656-18.453-18.922z"/>
</defs>
<g transform="translate(303.16 224.91) scale(.1 -.1)">
<use xlink:href="#c"/>
<use x="63.623047" xlink:href="#f"/>
<use x="95.410156" xlink:href="#r"/>
</g>
</g>
<g clip-path="url(#a)">
<defs>
<path id="o" d="m40.578 39.312q7.0781-1.5156 11.047-6.3125 3.9844-4.7812 3.9844-11.812 0-10.781-7.4219-16.703-7.4219-5.9062-21.094-5.9062-4.5781 0-9.4375 0.90625t-10.031 2.7188v9.5156q4.0938-2.3906 8.9688-3.6094 4.8906-1.2188 10.219-1.2188 9.2656 0 14.125 3.6562t4.8594 10.641q0 6.4531-4.5156 10.078-4.5156 3.6406-12.562 3.6406h-8.5v8.1094h8.8906q7.2656 0 11.125 2.9062t3.8594 8.375q0 5.6094-3.9844 8.6094-3.9688 3.0156-11.391 3.0156-4.0625 0-8.7031-0.89062-4.6406-0.875-10.203-2.7188v8.7812q5.625 1.5625 10.531 2.3438t9.25 0.78125q11.234 0 17.766-5.1094 6.5469-5.0938 6.5469-13.781 0-6.0625-3.4688-10.234t-9.8594-5.7812z"/>
</defs>
<g transform="translate(991.79 395.81) scale(.1 -.1)">
<use xlink:href="#c"/>
<use x="63.623047" xlink:href="#f"/>
<use x="95.410156" xlink:href="#o"/>
</g>
</g>
<g clip-path="url(#a)">
<defs>
<path id="n" d="m37.797 64.312-24.906-38.922h24.906zm-2.5938 8.5938h12.406v-47.516h10.406v-8.2031h-10.406v-17.188h-9.8125v17.188h-32.906v9.5156z"/>
</defs>
<g transform="translate(156.47 905.17) scale(.1 -.1)">
<use xlink:href="#c"/>
<use x="63.623047" xlink:href="#f"/>
<use x="95.410156" xlink:href="#n"/>
</g>
</g>
<g clip-path="url(#a)">
<defs>
<path id="m" d="m10.797 72.906h38.719v-8.3125h-29.688v-17.859q2.1406 0.73438 4.2812 1.0938 2.1562 0.35938 4.3125 0.35938 12.203 0 19.328-6.6875 7.1406-6.6875 7.1406-18.109 0-11.766-7.3281-18.297-7.3281-6.5156-20.656-6.5156-4.5938 0-9.3594 0.78125-4.75 0.78125-9.8281 2.3438v9.9219q4.3906-2.3906 9.0781-3.5625t9.9062-1.1719q8.4531 0 13.375 4.4375 4.9375 4.4375 4.9375 12.062 0 7.6094-4.9375 12.047-4.9219 4.4531-13.375 4.4531-3.9531 0-7.8906-0.875-3.9219-0.875-8.0156-2.7344z"/>
</defs>
<g transform="translate(196.14 736.16) scale(.1 -.1)">
<use xlink:href="#c"/>
<use x="63.623047" xlink:href="#f"/>
<use x="95.410156" xlink:href="#m"/>
</g>
</g>
<g clip-path="url(#a)">
<defs>
<path id="y" d="m31.781 66.406q-7.6094 0-11.453-7.5-3.8281-7.4844-3.8281-22.531 0-14.984 3.8281-22.484 3.8438-7.5 11.453-7.5 7.6719 0 11.5 7.5 3.8438 7.5 3.8438 22.484 0 15.047-3.8438 22.531-3.8281 7.5-11.5 7.5zm0 7.8125q12.266 0 18.734-9.7031 6.4688-9.6875 6.4688-28.141 0-18.406-6.4688-28.109-6.4688-9.6875-18.734-9.6875-12.25 0-18.719 9.6875-6.4688 9.7031-6.4688 28.109 0 18.453 6.4688 28.141 6.4688 9.7031 18.719 9.7031z"/>
</defs>
<g transform="translate(171.76 905.17) scale(.1 -.1)">
<use xlink:href="#c"/>
<use x="63.623047" xlink:href="#f"/>
<use x="95.410156" xlink:href="#c"/>
<use x="159.033203" xlink:href="#y"/>
</g>
</g>
<g clip-path="url(#a)">
<g transform="translate(192.27 905.17) scale(.1 -.1)">
<use xlink:href="#c"/>
<use x="63.623047" xlink:href="#f"/>
<use x="95.410156" xlink:href="#c"/>
<use x="159.033203" xlink:href="#c"/>
</g>
</g>
<g clip-path="url(#a)">
<g transform="translate(214.84 905.17) scale(.1 -.1)">
<use xlink:href="#c"/>
<use x="63.623047" xlink:href="#f"/>
<use x="95.410156" xlink:href="#c"/>
<use x="159.033203" xlink:href="#r"/>
</g>
</g>
<g clip-path="url(#a)">
<g transform="translate(260.61 566.28) scale(.1 -.1)">
<use xlink:href="#c"/>
<use x="63.623047" xlink:href="#f"/>
<use x="95.410156" xlink:href="#c"/>
<use x="159.033203" xlink:href="#o"/>
</g>
</g>
<g clip-path="url(#a)">
<g transform="translate(554.02 736.16) scale(.1 -.1)">
<use xlink:href="#c"/>
<use x="63.623047" xlink:href="#f"/>
<use x="95.410156" xlink:href="#c"/>
<use x="159.033203" xlink:href="#n"/>
</g>
</g>
<g clip-path="url(#a)">
<g transform="translate(756.09 566.28) scale(.1 -.1)">
<use xlink:href="#c"/>
<use x="63.623047" xlink:href="#f"/>
<use x="95.410156" xlink:href="#c"/>
<use x="159.033203" xlink:href="#m"/>
</g>
</g>
<g clip-path="url(#a)">
<defs>
<path id="p" d="m33.016 40.375q-6.6406 0-10.531-4.5469-3.875-4.5312-3.875-12.438 0-7.8594 3.875-12.438 3.8906-4.5625 10.531-4.5625t10.516 4.5625q3.875 4.5781 3.875 12.438 0 7.9062-3.875 12.438-3.875 4.5469-10.516 4.5469zm19.578 30.922v-8.9844q-3.7188 1.75-7.5 2.6719-3.7812 0.9375-7.5 0.9375-9.7656 0-14.922-6.5938-5.1406-6.5938-5.875-19.922 2.875 4.25 7.2188 6.5156 4.3594 2.2656 9.5781 2.2656 10.984 0 17.359-6.6719 6.375-6.6562 6.375-18.125 0-11.234-6.6406-18.031-6.6406-6.7812-17.672-6.7812-12.656 0-19.344 9.6875-6.6875 9.7031-6.6875 28.109 0 17.281 8.2031 27.562t22.016 10.281q3.7188 0 7.5-0.73438t7.8906-2.1875z"/>
</defs>
<g transform="translate(1014.5 566.28) scale(.1 -.1)">
<use xlink:href="#c"/>
<use x="63.623047" xlink:href="#f"/>
<use x="95.410156" xlink:href="#c"/>
<use x="159.033203" xlink:href="#p"/>
</g>
</g>
<g clip-path="url(#a)">
<defs>
<path id="ab" d="m8.2031 72.906h46.875v-4.2031l-26.469-68.703h-10.297l24.906 64.594h-35.016z"/>
</defs>
<g transform="translate(1162.6 905.17) scale(.1 -.1)">
<use xlink:href="#c"/>
<use x="63.623047" xlink:href="#f"/>
<use x="95.410156" xlink:href="#c"/>
<use x="159.033203" xlink:href="#ab"/>
</g>
</g>
<g clip-path="url(#a)">
<defs>
<path id="ah" d="m31.781 34.625q-7.0312 0-11.062-3.7656-4.0156-3.7656-4.0156-10.344 0-6.5938 4.0156-10.359 4.0312-3.7656 11.062-3.7656t11.078 3.7812q4.0625 3.7969 4.0625 10.344 0 6.5781-4.0312 10.344-4.0156 3.7656-11.109 3.7656zm-9.8594 4.1875q-6.3438 1.5625-9.8906 5.9062-3.5312 4.3594-3.5312 10.609 0 8.7344 6.2188 13.812 6.2344 5.0781 17.062 5.0781 10.891 0 17.094-5.0781t6.2031-13.812q0-6.25-3.5469-10.609-3.5312-4.3438-9.8281-5.9062 7.125-1.6562 11.094-6.5 3.9844-4.8281 3.9844-11.797 0-10.609-6.4688-16.281-6.4688-5.6562-18.531-5.6562-12.047 0-18.531 5.6562-6.4688 5.6719-6.4688 16.281 0 6.9688 4 11.797 4.0156 4.8438 11.141 6.5zm-3.6094 15.578q0-5.6562 3.5312-8.8281 3.5469-3.1719 9.9375-3.1719 6.3594 0 9.9375 3.1719 3.5938 3.1719 3.5938 8.8281 0 5.6719-3.5938 8.8438-3.5781 3.1719-9.9375 3.1719-6.3906 0-9.9375-3.1719-3.5312-3.1719-3.5312-8.8438z"/>
</defs>
<g transform="translate(1238.2 566.28) scale(.1 -.1)">
<use xlink:href="#c"/>
<use x="63.623047" xlink:href="#f"/>
<use x="95.410156" xlink:href="#c"/>
<use x="159.033203" xlink:href="#ah"/>
</g>
</g>
<g clip-path="url(#a)">
<defs>
<path id="af" d="m10.984 1.5156v8.9844q3.7188-1.7656 7.5156-2.6875 3.8125-0.92188 7.4844-0.92188 9.7656 0 14.906 6.5625 5.1562 6.5625 5.8906 19.953-2.8281-4.2031-7.1875-6.4531-4.3438-2.25-9.6094-2.25-10.938 0-17.312 6.6094-6.375 6.625-6.375 18.109 0 11.219 6.6406 18 6.6406 6.7969 17.672 6.7969 12.656 0 19.312-9.7031 6.6719-9.6875 6.6719-28.141 0-17.234-8.1875-27.516-8.1719-10.281-21.984-10.281-3.7188 0-7.5312 0.73438-3.7969 0.73438-7.9062 2.2031zm19.625 30.906q6.6406 0 10.516 4.5312 3.8906 4.5469 3.8906 12.469 0 7.8594-3.8906 12.422-3.875 4.5625-10.516 4.5625t-10.516-4.5625-3.875-12.422q0-7.9219 3.875-12.469 3.875-4.5312 10.516-4.5312z"/>
</defs>
<g transform="translate(1521.6 905.17) scale(.1 -.1)">
<use xlink:href="#c"/>
<use x="63.623047" xlink:href="#f"/>
<use x="95.410156" xlink:href="#c"/>
<use x="159.033203" xlink:href="#af"/>
</g>
</g>
<g clip-path="url(#a)">
<g transform="translate(1806.4 736.16) scale(.1 -.1)">
<use xlink:href="#c"/>
<use x="63.623047" xlink:href="#f"/>
<use x="95.410156" xlink:href="#r"/>
<use x="159.033203" xlink:href="#y"/>
</g>
</g>
<g clip-path="url(#a)">
<g transform="translate(1599.6 905.17) scale(.1 -.1)">
<use xlink:href="#c"/>
<use x="63.623047" xlink:href="#f"/>
<use x="95.410156" xlink:href="#r"/>
<use x="159.033203" xlink:href="#n"/>
</g>
</g>
<g clip-path="url(#a)">
<g transform="translate(1679.6 905.17) scale(.1 -.1)">
<use xlink:href="#c"/>
<use x="63.623047" xlink:href="#f"/>
<use x="95.410156" xlink:href="#r"/>
<use x="159.033203" xlink:href="#m"/>
</g>
</g>
<g clip-path="url(#a)">
<g transform="translate(1761.7 905.17) scale(.1 -.1)">
<use xlink:href="#c"/>
<use x="63.623047" xlink:href="#f"/>
<use x="95.410156" xlink:href="#r"/>
<use x="159.033203" xlink:href="#p"/>
</g>
</g>
<g clip-path="url(#a)">
<g transform="translate(1845.8 905.17) scale(.1 -.1)">
<use xlink:href="#c"/>
<use x="63.623047" xlink:href="#f"/>
<use x="95.410156" xlink:href="#r"/>
<use x="159.033203" xlink:href="#ab"/>
</g>
</g>
<g clip-path="url(#a)">
<g transform="translate(1042.6 736.16) scale(.1 -.1)">
<use xlink:href="#c"/>
<use x="63.623047" xlink:href="#f"/>
<use x="95.410156" xlink:href="#o"/>
<use x="159.033203" xlink:href="#y"/>
</g>
</g>
<g clip-path="url(#a)">
<g transform="translate(1300.1 905.17) scale(.1 -.1)">
<use xlink:href="#c"/>
<use x="63.623047" xlink:href="#f"/>
<use x="95.410156" xlink:href="#o"/>
<use x="159.033203" xlink:href="#c"/>
</g>
</g>
<g clip-path="url(#a)">
<g transform="translate(1371.9 905.17) scale(.1 -.1)">
<use xlink:href="#c"/>
<use x="63.623047" xlink:href="#f"/>
<use x="95.410156" xlink:href="#o"/>
<use x="159.033203" xlink:href="#r"/>
</g>
</g>
<g clip-path="url(#a)">
<g transform="translate(1230.3 905.17) scale(.1 -.1)">
<use xlink:href="#c"/>
<use x="63.623047" xlink:href="#f"/>
<use x="95.410156" xlink:href="#o"/>
<use x="159.033203" xlink:href="#o"/>
</g>
</g>
<g clip-path="url(#a)">
<g transform="translate(913.02 736.16) scale(.1 -.1)">
<use xlink:href="#c"/>
<use x="63.623047" xlink:href="#f"/>
<use x="95.410156" xlink:href="#o"/>
<use x="159.033203" xlink:href="#n"/>
</g>
</g>
<g clip-path="url(#a)">
<g transform="translate(1033.4 905.17) scale(.1 -.1)">
<use xlink:href="#c"/>
<use x="63.623047" xlink:href="#f"/>
<use x="95.410156" xlink:href="#o"/>
<use x="159.033203" xlink:href="#m"/>
</g>
</g>
<g clip-path="url(#a)">
<g transform="translate(1097 905.17) scale(.1 -.1)">
<use xlink:href="#c"/>
<use x="63.623047" xlink:href="#f"/>
<use x="95.410156" xlink:href="#o"/>
<use x="159.033203" xlink:href="#p"/>
</g>
</g>
<g clip-path="url(#a)">
<g transform="translate(971.83 905.17) scale(.1 -.1)">
<use xlink:href="#c"/>
<use x="63.623047" xlink:href="#f"/>
<use x="95.410156" xlink:href="#o"/>
<use x="159.033203" xlink:href="#ab"/>
</g>
</g>
<g clip-path="url(#a)">
<g transform="translate(694.88 905.17) scale(.1 -.1)">
<use xlink:href="#c"/>
<use x="63.623047" xlink:href="#f"/>
<use x="95.410156" xlink:href="#o"/>
<use x="159.033203" xlink:href="#af"/>
</g>
</g>
<g clip-path="url(#a)">
<g transform="translate(746.17 905.17) scale(.1 -.1)">
<use xlink:href="#c"/>
<use x="63.623047" xlink:href="#f"/>
<use x="95.410156" xlink:href="#n"/>
<use x="159.033203" xlink:href="#y"/>
</g>
</g>
<g clip-path="url(#a)">
<g transform="translate(827.2 736.16) scale(.1 -.1)">
<use xlink:href="#c"/>
<use x="63.623047" xlink:href="#f"/>
<use x="95.410156" xlink:href="#n"/>
<use x="159.033203" xlink:href="#c"/>
</g>
</g>
<g clip-path="url(#a)">
<g transform="translate(799.51 905.17) scale(.1 -.1)">
<use xlink:href="#c"/>
<use x="63.623047" xlink:href="#f"/>
<use x="95.410156" xlink:href="#n"/>
<use x="159.033203" xlink:href="#r"/>
</g>
</g>
<g clip-path="url(#a)">
<g transform="translate(854.9 905.17) scale(.1 -.1)">
<use xlink:href="#c"/>
<use x="63.623047" xlink:href="#f"/>
<use x="95.410156" xlink:href="#n"/>
<use x="159.033203" xlink:href="#o"/>
</g>
</g>
<g clip-path="url(#a)">
<g transform="translate(510.25 905.17) scale(.1 -.1)">
<use xlink:href="#c"/>
<use x="63.623047" xlink:href="#f"/>
<use x="95.410156" xlink:href="#n"/>
<use x="159.033203" xlink:href="#n"/>
</g>
</g>
<g clip-path="url(#a)">
<g transform="translate(553.33 905.17) scale(.1 -.1)">
<use xlink:href="#c"/>
<use x="63.623047" xlink:href="#f"/>
<use x="95.410156" xlink:href="#n"/>
<use x="159.033203" xlink:href="#m"/>
</g>
</g>
<g clip-path="url(#a)">
<g transform="translate(598.46 905.17) scale(.1 -.1)">
<use xlink:href="#c"/>
<use x="63.623047" xlink:href="#f"/>
<use x="95.410156" xlink:href="#n"/>
<use x="159.033203" xlink:href="#p"/>
</g>
</g>
<g clip-path="url(#a)">
<g transform="translate(85.594 905.17) scale(.1 -.1)">
<use xlink:href="#c"/>
<use x="63.623047" xlink:href="#f"/>
<use x="95.410156" xlink:href="#n"/>
<use x="159.033203" xlink:href="#ab"/>
</g>
</g>
<g clip-path="url(#a)">
<g transform="translate(105.08 736.16) scale(.1 -.1)">
<use xlink:href="#c"/>
<use x="63.623047" xlink:href="#f"/>
<use x="95.410156" xlink:href="#n"/>
<use x="159.033203" xlink:href="#ah"/>
</g>
</g>
<g clip-path="url(#a)">
<g transform="translate(294.85 905.17) scale(.1 -.1)">
<use xlink:href="#c"/>
<use x="63.623047" xlink:href="#f"/>
<use x="95.410156" xlink:href="#n"/>
<use x="159.033203" xlink:href="#af"/>
</g>
</g>
<g clip-path="url(#a)">
<g transform="translate(325.62 905.17) scale(.1 -.1)">
<use xlink:href="#c"/>
<use x="63.623047" xlink:href="#f"/>
<use x="95.410156" xlink:href="#m"/>
<use x="159.033203" xlink:href="#y"/>
</g>
</g>
<g clip-path="url(#a)">
<g transform="translate(358.44 905.17) scale(.1 -.1)">
<use xlink:href="#c"/>
<use x="63.623047" xlink:href="#f"/>
<use x="95.410156" xlink:href="#m"/>
<use x="159.033203" xlink:href="#c"/>
</g>
</g>
<g clip-path="url(#a)">
<g transform="translate(393.32 905.17) scale(.1 -.1)">
<use xlink:href="#c"/>
<use x="63.623047" xlink:href="#f"/>
<use x="95.410156" xlink:href="#m"/>
<use x="159.033203" xlink:href="#r"/>
</g>
</g>
<g clip-path="url(#a)">
<g transform="translate(430.24 905.17) scale(.1 -.1)">
<use xlink:href="#c"/>
<use x="63.623047" xlink:href="#f"/>
<use x="95.410156" xlink:href="#m"/>
<use x="159.033203" xlink:href="#o"/>
</g>
</g>
<g clip-path="url(#a)">
<g transform="translate(91.749 905.17) scale(.1 -.1)">
<use xlink:href="#c"/>
<use x="63.623047" xlink:href="#f"/>
<use x="95.410156" xlink:href="#m"/>
<use x="159.033203" xlink:href="#n"/>
</g>
</g>
<g clip-path="url(#a)">
<g transform="translate(99.955 905.17) scale(.1 -.1)">
<use xlink:href="#c"/>
<use x="63.623047" xlink:href="#f"/>
<use x="95.410156" xlink:href="#m"/>
<use x="159.033203" xlink:href="#m"/>
</g>
</g>
<g clip-path="url(#a)">
<g transform="translate(110.21 905.17) scale(.1 -.1)">
<use xlink:href="#c"/>
<use x="63.623047" xlink:href="#f"/>
<use x="95.410156" xlink:href="#m"/>
<use x="159.033203" xlink:href="#p"/>
</g>
</g>
<g clip-path="url(#a)">
<g transform="translate(122.52 905.17) scale(.1 -.1)">
<use xlink:href="#c"/>
<use x="63.623047" xlink:href="#f"/>
<use x="95.410156" xlink:href="#m"/>
<use x="159.033203" xlink:href="#ab"/>
</g>
</g>
<g clip-path="url(#a)">
<g transform="translate(136.88 905.17) scale(.1 -.1)">
<use xlink:href="#c"/>
<use x="63.623047" xlink:href="#f"/>
<use x="95.410156" xlink:href="#m"/>
<use x="159.033203" xlink:href="#ah"/>
</g>
</g>
<g clip-path="url(#a)">
<g transform="translate(239.46 905.17) scale(.1 -.1)">
<use xlink:href="#c"/>
<use x="63.623047" xlink:href="#f"/>
<use x="95.410156" xlink:href="#m"/>
<use x="159.033203" xlink:href="#af"/>
</g>
</g>
<g clip-path="url(#a)">
<g transform="translate(266.12 905.17) scale(.1 -.1)">
<use xlink:href="#c"/>
<use x="63.623047" xlink:href="#f"/>
<use x="95.410156" xlink:href="#p"/>
<use x="159.033203" xlink:href="#y"/>
</g>
</g>
<g clip-path="url(#a)">
<g transform="translate(469.22 905.17) scale(.1 -.1)">
<use xlink:href="#c"/>
<use x="63.623047" xlink:href="#f"/>
<use x="95.410156" xlink:href="#p"/>
<use x="159.033203" xlink:href="#c"/>
</g>
</g>
<g clip-path="url(#a)">
<g transform="translate(645.65 905.17) scale(.1 -.1)">
<use xlink:href="#c"/>
<use x="63.623047" xlink:href="#f"/>
<use x="95.410156" xlink:href="#p"/>
<use x="159.033203" xlink:href="#r"/>
</g>
</g>
<g clip-path="url(#a)">
<g transform="translate(912.34 905.17) scale(.1 -.1)">
<use xlink:href="#c"/>
<use x="63.623047" xlink:href="#f"/>
<use x="95.410156" xlink:href="#p"/>
<use x="159.033203" xlink:href="#o"/>
</g>
</g>
<g clip-path="url(#a)">
<g transform="translate(1445.7 905.17) scale(.1 -.1)">
<use xlink:href="#c"/>
<use x="63.623047" xlink:href="#f"/>
<use x="95.410156" xlink:href="#p"/>
<use x="159.033203" xlink:href="#n"/>
</g>
</g>
<g clip-path="url(#a)">
<g transform="translate(1931.9 905.17) scale(.1 -.1)">
<use xlink:href="#c"/>
<use x="63.623047" xlink:href="#f"/>
<use x="95.410156" xlink:href="#p"/>
<use x="159.033203" xlink:href="#m"/>
</g>
</g>
<g clip-path="url(#a)">
<g transform="translate(2020.1 905.17) scale(.1 -.1)">
<use xlink:href="#c"/>
<use x="63.623047" xlink:href="#f"/>
<use x="95.410156" xlink:href="#p"/>
<use x="159.033203" xlink:href="#p"/>
</g>
</g>
<defs>
<clipPath id="a">
<rect width="2128" height="1120"/>
</clipPath>
</defs>
</svg>
