<?xml version="1.0" encoding="UTF-8"?>
<!DOCTYPE svg  PUBLIC '-//W3C//DTD SVG 1.1//EN'  'http://www.w3.org/Graphics/SVG/1.1/DTD/svg11.dtd'>
<svg width="912pt" height="480pt" version="1.1" viewBox="0 0 912 480" xmlns="http://www.w3.org/2000/svg" xmlns:xlink="http://www.w3.org/1999/xlink">
<defs>
<style type="text/css">*{stroke-linecap:butt;stroke-linejoin:round;}</style>
</defs>
<path d="m0 480h912v-480h-912z" fill="#fff"/>
<g fill="none" stroke="#000">
<path d="m214.31 21.818v88.051" clip-path="url(#a)"/>
<path d="m214.31 109.87 117.17 87.829" clip-path="url(#a)"/>
<path d="m214.31 109.87-62.018 262.43" clip-path="url(#a)"/>
<path d="m214.31 109.87-6.5977 175.36" clip-path="url(#a)"/>
<path d="m214.31 109.87-119.66 262.43" clip-path="url(#a)"/>
<path d="m214.31 109.87-93.054 262.43" clip-path="url(#a)"/>
<path d="m214.31 109.87 57.69 262.43" clip-path="url(#a)"/>
<path d="m214.31 109.87 106.46 262.43" clip-path="url(#a)"/>
<path d="m331.49 197.7-275.26 87.531" clip-path="url(#a)"/>
<path d="m331.49 197.7 275.26 87.531" clip-path="url(#a)"/>
<path d="m152.3 372.3v85.879" clip-path="url(#a)"/>
<path d="m207.72 285.23-19.951 87.074" clip-path="url(#a)"/>
<path d="m207.72 285.23 19.951 87.074" clip-path="url(#a)"/>
<path d="m187.76 372.3v85.879" clip-path="url(#a)"/>
<path d="m227.67 372.3v85.879" clip-path="url(#a)"/>
<path d="m56.233 285.23-14.779 87.074" clip-path="url(#a)"/>
<path d="m56.233 285.23-1.4779 87.074" clip-path="url(#a)"/>
<path d="m56.233 285.23 16.257 87.074" clip-path="url(#a)"/>
<path d="m606.74 285.23-232.77 87.074" clip-path="url(#a)"/>
<path d="m606.74 285.23-175.13 87.074" clip-path="url(#a)"/>
<path d="m606.74 285.23-113.06 87.074" clip-path="url(#a)"/>
<path d="m606.74 285.23-46.553 87.074" clip-path="url(#a)"/>
<path d="m606.74 285.23 24.385 87.074" clip-path="url(#a)"/>
<path d="m606.74 285.23 99.757 87.074" clip-path="url(#a)"/>
<path d="m606.74 285.23 179.56 87.074" clip-path="url(#a)"/>
<path d="m606.74 285.23 263.8 87.074" clip-path="url(#a)"/>
<path d="m373.98 372.3v85.879" clip-path="url(#a)"/>
<path d="m431.61 372.3v85.879" clip-path="url(#a)"/>
<path d="m493.69 372.3v85.879" clip-path="url(#a)"/>
<path d="m560.19 372.3v85.879" clip-path="url(#a)"/>
<path d="m41.455 372.3v85.879" clip-path="url(#a)"/>
<path d="m54.755 372.3v85.879" clip-path="url(#a)"/>
<path d="m72.49 372.3v85.879" clip-path="url(#a)"/>
<path d="m94.658 372.3v85.879" clip-path="url(#a)"/>
<path d="m121.26 372.3v85.879" clip-path="url(#a)"/>
<path d="m272 372.3v85.879" clip-path="url(#a)"/>
<path d="m320.77 372.3v85.879" clip-path="url(#a)"/>
<path d="m631.13 372.3v85.879" clip-path="url(#a)"/>
<path d="m706.5 372.3v85.879" clip-path="url(#a)"/>
<path d="m786.31 372.3v85.879" clip-path="url(#a)"/>
<path d="m870.55 372.3v85.879" clip-path="url(#a)"/>
</g>
<path d="m208.04 62.835v6.0162q0 2.4 2.4 2.4h7.7425q2.4 0 2.4-2.4v-6.0162q0-2.4-2.4-2.4h-7.7425q-2.4 0-2.4 2.4z" clip-path="url(#a)" fill="#fff" stroke="#fff"/>
<g clip-path="url(#a)">
<defs>
<path id="u" d="m9.8125 72.906h9.8594v-29.891h35.844v29.891h9.8594v-72.906h-9.8594v34.719h-35.844v-34.719h-9.8594z"/>
</defs>
<g transform="translate(212.11 62.835) rotate(90) scale(.08 -.08)">
<use xlink:href="#u"/>
</g>
</g>
<path d="m266.95 157.16 4.3789 3.2822q1.9204 1.4394 3.3599-0.48096l4.6437-6.1953q1.4394-1.9204-0.48096-3.3599l-4.3789-3.2822q-1.9204-1.4394-3.3599 0.48096l-4.6437 6.1953q-1.4394 1.9204 0.48096 3.3599z" clip-path="url(#a)" fill="#fff" stroke="#fff"/>
<g clip-path="url(#a)">
<defs>
<path id="o" d="m34.188 63.188-13.391-36.281h26.812zm-5.5781 9.7188h11.188l27.781-72.906h-10.25l-6.6406 18.703h-32.859l-6.6406-18.703h-10.406z"/>
</defs>
<g transform="translate(269.39 153.91) rotate(36.853) scale(.08 -.08)">
<use xlink:href="#o"/>
</g>
</g>
<path d="m188.85 244.88 1.1094-4.6944q0.55196-2.3357-1.7837-2.8876l-7.535-1.7807q-2.3357-0.55196-2.8876 1.7837l-1.1094 4.6944q-0.55196 2.3357 1.7837 2.8876l7.535 1.7807q2.3357 0.55196 2.8876-1.7837z" clip-path="url(#a)" fill="#fff" stroke="#fff"/>
<g clip-path="url(#a)">
<defs>
<path id="aa" d="m19.672 64.797v-27.391h12.406q6.8906 0 10.641 3.5625 3.7656 3.5625 3.7656 10.156 0 6.5469-3.7656 10.109-3.75 3.5625-10.641 3.5625zm-9.8594 8.1094h22.266q12.266 0 18.531-5.5469 6.2812-5.5469 6.2812-16.234 0-10.797-6.2812-16.312-6.2656-5.5156-18.531-5.5156h-12.406v-29.297h-9.8594z"/>
</defs>
<g transform="translate(184.9 243.94) rotate(-76.704) scale(.08 -.08)">
<use xlink:href="#aa"/>
</g>
</g>
<path d="m217.18 200.52 0.20575-5.4686q0.090233-2.3983-2.3081-2.4885l-7.737-0.2911q-2.3983-0.090233-2.4885 2.3081l-0.20575 5.4686q-0.090233 2.3983 2.3081 2.4885l7.737 0.2911q2.3983 0.090233 2.4885-2.3081z" clip-path="url(#a)" fill="#fff" stroke="#fff"/>
<g clip-path="url(#a)">
<g transform="translate(213.12 200.37) rotate(-87.845) scale(.08 -.08)">
<use xlink:href="#o"/>
</g>
</g>
<path d="m158.98 246.35 2.429-5.3274q0.99566-2.1837-1.1881-3.1794l-7.0448-3.212q-2.1837-0.99566-3.1794 1.1881l-2.429 5.3274q-0.99566 2.1837 1.1881 3.1794l7.0448 3.212q2.1837 0.99566 3.1794-1.1881z" clip-path="url(#a)" fill="#fff" stroke="#fff"/>
<g clip-path="url(#a)">
<defs>
<path id="n" d="m8.6875 72.906h9.9219v-44.297q0-11.719 4.2344-16.875 4.25-5.1406 13.781-5.1406 9.4688 0 13.719 5.1406 4.25 5.1562 4.25 16.875v44.297h9.9062v-45.516q0-14.25-7.0625-21.531-7.0469-7.2812-20.812-7.2812-13.828 0-20.891 7.2812-7.0469 7.2812-7.0469 21.531z"/>
</defs>
<g transform="translate(155.28 244.67) rotate(-65.49) scale(.08 -.08)">
<use xlink:href="#n"/>
</g>
</g>
<path d="m172.72 245.94 1.9567-5.5184q0.80206-2.262-1.4599-3.0641l-7.2973-2.5875q-2.262-0.80206-3.0641 1.4599l-1.9567 5.5184q-0.80206 2.262 1.4599 3.0641l7.2973 2.5875q2.262 0.80206 3.0641-1.4599z" clip-path="url(#a)" fill="#fff" stroke="#fff"/>
<g clip-path="url(#a)">
<g transform="translate(168.89 244.58) rotate(-70.477) scale(.08 -.08)">
<use xlink:href="#n"/>
</g>
</g>
<path d="m236.41 239.57 1.2571 5.7185q0.51528 2.344 2.8593 1.8287l7.5619-1.6623q2.344-0.51528 1.8287-2.8593l-1.2571-5.7185q-0.51528-2.344-2.8593-1.8287l-7.5619 1.6623q-2.344 0.51528-1.8287 2.8593z" clip-path="url(#a)" fill="#fff" stroke="#fff"/>
<g clip-path="url(#a)">
<g transform="translate(240.37 238.7) rotate(77.602) scale(.08 -.08)">
<use xlink:href="#n"/>
</g>
</g>
<path d="m260.63 240.73 2.201 5.4256q0.90219 2.224 3.1262 1.3218l7.1746-2.9105q2.224-0.90219 1.3218-3.1262l-2.201-5.4256q-0.90219-2.224-3.1262-1.3218l-7.1746 2.9105q-2.224 0.90219-1.3218 3.1262z" clip-path="url(#a)" fill="#fff" stroke="#fff"/>
<g clip-path="url(#a)">
<g transform="translate(264.4 239.2) rotate(67.919) scale(.08 -.08)">
<use xlink:href="#n"/>
</g>
</g>
<path d="m192.89 248.35 5.7333-1.8232q2.2871-0.72731 1.5598-3.0145l-2.3463-7.3784q-0.72731-2.2871-3.0145-1.5598l-5.7333 1.8232q-2.2871 0.72731-1.5598 3.0145l2.3463 7.3784q0.72731 2.2871 3.0145 1.5598z" clip-path="url(#a)" fill="#fff" stroke="#fff"/>
<g clip-path="url(#a)">
<g transform="translate(191.66 244.48) rotate(-17.641) scale(.08 -.08)">
<use xlink:href="#u"/>
</g>
</g>
<path d="m464.35 246.53 5.7333 1.8232q2.2871 0.72731 3.0145-1.5598l2.3463-7.3784q0.72731-2.2871-1.5598-3.0145l-5.7333-1.8232q-2.2871-0.72731-3.0145 1.5598l-2.3463 7.3784q-0.72731 2.2871 1.5598 3.0145z" clip-path="url(#a)" fill="#fff" stroke="#fff"/>
<g clip-path="url(#a)">
<g transform="translate(465.58 242.66) rotate(17.641) scale(.08 -.08)">
<use xlink:href="#u"/>
</g>
</g>
<path d="m146.02 398.34v33.808q0 2.4 2.4 2.4h7.7425q2.4 0 2.4-2.4v-33.808q0-2.4-2.4-2.4h-7.7425q-2.4 0-2.4 2.4z" clip-path="url(#a)" fill="#fff" stroke="#fff"/>
<g clip-path="url(#a)">
<defs>
<path id="l" d="m-0.29688 72.906h61.672v-8.3125h-25.875v-64.594h-9.9062v64.594h-25.891z"/>
<path id="f" d="m56.203 29.594v-4.3906h-41.312q0.59375-9.2812 5.5938-14.141t13.938-4.8594q5.1719 0 10.031 1.2656t9.6562 3.8125v-8.5q-4.8438-2.0469-9.9219-3.125t-10.297-1.0781q-13.094 0-20.734 7.6094-7.6406 7.625-7.6406 20.625 0 13.422 7.25 21.297 7.25 7.8906 19.562 7.8906 11.031 0 17.453-7.1094 6.4219-7.0938 6.4219-19.297zm-8.9844 2.6406q-0.09375 7.3594-4.125 11.75-4.0312 4.4062-10.672 4.4062-7.5156 0-12.031-4.25t-5.2031-11.969z"/>
<path id="h" d="m41.109 46.297q-1.5156 0.875-3.2969 1.2812-1.7812 0.42188-3.9219 0.42188-7.625 0-11.703-4.9531t-4.0781-14.234v-28.812h-9.0312v54.688h9.0312v-8.5q2.8438 4.9844 7.375 7.3906 4.5469 2.4219 11.047 2.4219 0.92188 0 2.0469-0.125 1.125-0.10938 2.4844-0.35938z"/>
<path id="j" d="m52 44.188q3.375 6.0625 8.0625 8.9375t11.031 2.875q8.5469 0 13.188-5.9844 4.6406-5.9688 4.6406-17v-33.016h-9.0312v32.719q0 7.8594-2.7969 11.656-2.7812 3.8125-8.4844 3.8125-6.9844 0-11.047-4.6406-4.0469-4.625-4.0469-12.641v-30.906h-9.0312v32.719q0 7.9062-2.7812 11.688t-8.5938 3.7812q-6.8906 0-10.953-4.6562-4.0469-4.6562-4.0469-12.625v-30.906h-9.0312v54.688h9.0312v-8.5q3.0781 5.0312 7.375 7.4219t10.203 2.3906q5.9688 0 10.141-3.0312 4.1719-3.0156 6.1719-8.7812z"/>
<path id="g" d="m9.4219 54.688h8.9844v-54.688h-8.9844zm0 21.297h8.9844v-11.391h-8.9844z"/>
<path id="i" d="m54.891 33.016v-33.016h-8.9844v32.719q0 7.7656-3.0312 11.609-3.0312 3.8594-9.0781 3.8594-7.2812 0-11.484-4.6406-4.2031-4.625-4.2031-12.641v-30.906h-9.0312v54.688h9.0312v-8.5q3.2344 4.9375 7.5938 7.375 4.375 2.4375 10.094 2.4375 9.4219 0 14.25-5.8281 4.8438-5.8281 4.8438-17.156z"/>
<path id="e" d="m34.281 27.484q-10.891 0-15.094-2.4844t-4.2031-8.5q0-4.7812 3.1562-7.5938 3.1562-2.7969 8.5625-2.7969 7.4844 0 12 5.2969t4.5156 14.078v2zm17.922 3.7188v-31.203h-8.9844v8.2969q-3.0781-4.9688-7.6719-7.3438t-11.234-2.375q-8.3906 0-13.359 4.7188-4.9531 4.7188-4.9531 12.625 0 9.2188 6.1719 13.906 6.1875 4.6875 18.438 4.6875h12.609v0.89062q0 6.2031-4.0781 9.5938t-11.453 3.3906q-4.6875 0-9.1406-1.125-4.4375-1.125-8.5312-3.375v8.3125q4.9219 1.9062 9.5625 2.8438 4.6406 0.95312 9.0312 0.95312 11.875 0 17.734-6.1562 5.8594-6.1406 5.8594-18.641z"/>
<path id="k" d="m9.4219 75.984h8.9844v-75.984h-8.9844z"/>
</defs>
<g transform="translate(150.09 398.34) rotate(90) scale(.08 -.08)">
<use xlink:href="#l"/>
<use x="44.083984" xlink:href="#f"/>
<use x="105.607422" xlink:href="#h"/>
<use x="144.970703" xlink:href="#j"/>
<use x="242.382812" xlink:href="#g"/>
<use x="270.166016" xlink:href="#i"/>
<use x="333.544922" xlink:href="#e"/>
<use x="394.824219" xlink:href="#k"/>
</g>
</g>
<path d="m203.34 332.41 1.0277-4.485q0.53602-2.3394-1.8034-2.8754l-7.5469-1.7292q-2.3394-0.53602-2.8754 1.8034l-1.0277 4.485q-0.53602 2.3394 1.8034 2.8754l7.5469 1.7292q2.3394 0.53602 2.8754-1.8034z" clip-path="url(#a)" fill="#fff" stroke="#fff"/>
<g clip-path="url(#a)">
<defs>
<path id="ab" d="m9.8125 72.906h41.891v-8.3125h-32.031v-21.484h28.906v-8.2969h-28.906v-34.812h-9.8594z"/>
</defs>
<g transform="translate(199.38 331.5) rotate(-77.095) scale(.08 -.08)">
<use xlink:href="#ab"/>
</g>
</g>
<path d="m210.96 327.44 1.2477 5.4451q0.53602 2.3394 2.8754 1.8034l7.5469-1.7292q2.3394-0.53602 1.8034-2.8754l-1.2477-5.4451q-0.53602-2.3394-2.8754-1.8034l-7.5469 1.7292q-2.3394 0.53602-1.8034 2.8754z" clip-path="url(#a)" fill="#fff" stroke="#fff"/>
<g clip-path="url(#a)">
<defs>
<path id="ak" d="m64.406 67.281v-10.391q-4.9844 4.6406-10.625 6.9219-5.6406 2.2969-11.984 2.2969-12.5 0-19.141-7.6406t-6.6406-22.094q0-14.406 6.6406-22.047t19.141-7.6406q6.3438 0 11.984 2.2969t10.625 6.9375v-10.312q-5.1719-3.5156-10.969-5.2812-5.7812-1.75-12.219-1.75-16.562 0-26.094 10.125-9.5156 10.141-9.5156 27.672 0 17.578 9.5156 27.703 9.5312 10.141 26.094 10.141 6.5312 0 12.312-1.7344 5.7969-1.7344 10.875-5.2031z"/>
</defs>
<g transform="translate(214.92 326.54) rotate(77.095) scale(.08 -.08)">
<use xlink:href="#ak"/>
</g>
</g>
<path d="m181.49 398.34v33.808q0 2.4 2.4 2.4h7.7425q2.4 0 2.4-2.4v-33.808q0-2.4-2.4-2.4h-7.7425q-2.4 0-2.4 2.4z" clip-path="url(#a)" fill="#fff" stroke="#fff"/>
<g clip-path="url(#a)">
<g transform="translate(185.56 398.34) rotate(90) scale(.08 -.08)">
<use xlink:href="#l"/>
<use x="44.083984" xlink:href="#f"/>
<use x="105.607422" xlink:href="#h"/>
<use x="144.970703" xlink:href="#j"/>
<use x="242.382812" xlink:href="#g"/>
<use x="270.166016" xlink:href="#i"/>
<use x="333.544922" xlink:href="#e"/>
<use x="394.824219" xlink:href="#k"/>
</g>
</g>
<path d="m221.4 398.34v33.808q0 2.4 2.4 2.4h7.7425q2.4 0 2.4-2.4v-33.808q0-2.4-2.4-2.4h-7.7425q-2.4 0-2.4 2.4z" clip-path="url(#a)" fill="#fff" stroke="#fff"/>
<g clip-path="url(#a)">
<g transform="translate(225.46 398.34) rotate(90) scale(.08 -.08)">
<use xlink:href="#l"/>
<use x="44.083984" xlink:href="#f"/>
<use x="105.607422" xlink:href="#h"/>
<use x="144.970703" xlink:href="#j"/>
<use x="242.382812" xlink:href="#g"/>
<use x="270.166016" xlink:href="#i"/>
<use x="333.544922" xlink:href="#e"/>
<use x="394.824219" xlink:href="#k"/>
</g>
</g>
<path d="m54.569 332.51 0.91573-5.3953q0.4016-2.3662-1.9646-2.7678l-7.6333-1.2956q-2.3662-0.4016-2.7678 1.9646l-0.91573 5.3953q-0.4016 2.3662 1.9646 2.7678l7.6333 1.2956q2.3662 0.4016 2.7678-1.9646z" clip-path="url(#a)" fill="#fff" stroke="#fff"/>
<g clip-path="url(#a)">
<g transform="translate(50.562 331.83) rotate(-80.367) scale(.08 -.08)">
<use xlink:href="#o"/>
</g>
</g>
<path d="m61.726 331.17 0.078084-4.6006q0.040729-2.3997-2.3589-2.4404l-7.7414-0.13139q-2.3997-0.040728-2.4404 2.3589l-0.078085 4.6006q-0.040728 2.3997 2.3589 2.4404l7.7414 0.13139q2.3997 0.040728 2.4404-2.3589z" clip-path="url(#a)" fill="#fff" stroke="#fff"/>
<g clip-path="url(#a)">
<g transform="translate(57.663 331.1) rotate(-89.028) scale(.08 -.08)">
<use xlink:href="#ab"/>
</g>
</g>
<path d="m57.731 327.42 0.9321 4.9925q0.44047 2.3592 2.7997 1.9188l7.611-1.421q2.3592-0.44047 1.9188-2.7997l-0.93209-4.9925q-0.44047-2.3592-2.7997-1.9188l-7.611 1.421q-2.3592 0.44047-1.9188 2.7997z" clip-path="url(#a)" fill="#fff" stroke="#fff"/>
<g clip-path="url(#a)">
<defs>
<path id="z" d="m53.516 70.516v-9.625q-5.6094 2.6875-10.594 4-4.9844 1.3281-9.625 1.3281-8.0469 0-12.422-3.125t-4.375-8.8906q0-4.8438 2.9062-7.3125 2.9062-2.4531 11.016-3.9688l5.9531-1.2188q11.031-2.1094 16.281-7.4062t5.25-14.172q0-10.609-7.1094-16.078-7.0938-5.4688-20.812-5.4688-5.1719 0-11.016 1.1719-5.8281 1.1719-12.078 3.4688v10.156q6-3.3594 11.766-5.0781 5.7656-1.7031 11.328-1.7031 8.4375 0 13.031 3.3125 4.5938 3.3281 4.5938 9.4844 0 5.3594-3.2969 8.3906t-10.812 4.5469l-6.0156 1.1719q-11.031 2.1875-15.969 6.875-4.9219 4.6875-4.9219 13.047 0 9.6719 6.8125 15.234t18.766 5.5625q5.1406 0 10.453-0.9375 5.3281-0.92188 10.891-2.7656z"/>
</defs>
<g transform="translate(61.726 326.67) rotate(79.425) scale(.08 -.08)">
<use xlink:href="#z"/>
</g>
</g>
<path d="m490 335.6 5.1256-1.9174q2.2479-0.84089 1.407-3.0888l-2.7127-7.2517q-0.84089-2.2479-3.0888-1.407l-5.1256 1.9174q-2.2479 0.84089-1.407 3.0888l2.7127 7.2517q0.84089 2.2479 3.0888 1.407z" clip-path="url(#a)" fill="#fff" stroke="#fff"/>
<g clip-path="url(#a)">
<g transform="translate(488.57 331.79) rotate(-20.51) scale(.08 -.08)">
<use xlink:href="#o"/>
</g>
</g>
<path d="m519.81 335.45 4.3193-2.1476q2.149-1.0685 1.0805-3.2175l-3.447-6.9328q-1.0685-2.149-3.2175-1.0805l-4.3193 2.1476q-2.149 1.0685-1.0805 3.2175l3.447 6.9328q1.0685 2.149 3.2175 1.0805z" clip-path="url(#a)" fill="#fff" stroke="#fff"/>
<g clip-path="url(#a)">
<g transform="translate(518 331.82) rotate(-26.437) scale(.08 -.08)">
<use xlink:href="#aa"/>
</g>
</g>
<path d="m551.87 335.4 4.3357-3.3392q1.9014-1.4644 0.437-3.3659l-4.7243-6.1341q-1.4644-1.9014-3.3659-0.437l-4.3357 3.3392q-1.9014 1.4644-0.437 3.3659l4.7243 6.1341q1.4644 1.9014 3.3659 0.437z" clip-path="url(#a)" fill="#fff" stroke="#fff"/>
<g clip-path="url(#a)">
<g transform="translate(549.39 332.18) rotate(-37.602) scale(.08 -.08)">
<use xlink:href="#o"/>
</g>
</g>
<path d="m587.71 334.14 2.5802-4.8261q1.1316-2.1165-0.98493-3.2481l-6.8279-3.6505q-2.1165-1.1316-3.2481 0.98493l-2.5802 4.8261q-1.1316 2.1165 0.98494 3.2481l6.8279 3.6505q2.1165 1.1316 3.2481-0.98493z" clip-path="url(#a)" fill="#fff" stroke="#fff"/>
<g clip-path="url(#a)">
<g transform="translate(584.12 332.22) rotate(-61.869) scale(.08 -.08)">
<use xlink:href="#o"/>
</g>
</g>
<path d="m612.11 327.64 1.5789 5.6381q0.64722 2.3111 2.9583 1.6639l7.4557-2.088q2.3111-0.64722 1.6639-2.9583l-1.5789-5.6381q-0.64722-2.3111-2.9583-1.6639l-7.4557 2.088q-2.3111 0.64722-1.6639 2.9583z" clip-path="url(#a)" fill="#fff" stroke="#fff"/>
<g clip-path="url(#a)">
<g transform="translate(616.02 326.54) rotate(74.355) scale(.08 -.08)">
<use xlink:href="#n"/>
</g>
</g>
<path d="m650.29 331.56 4.411 3.8502q1.8081 1.5782 3.3863-0.22988l5.0914-5.833q1.5782-1.8081-0.22988-3.3863l-4.411-3.8502q-1.8081-1.5782-3.3863 0.22988l-5.0914 5.833q-1.5782 1.8081 0.22988 3.3863z" clip-path="url(#a)" fill="#fff" stroke="#fff"/>
<g clip-path="url(#a)">
<g transform="translate(652.97 328.5) rotate(41.116) scale(.08 -.08)">
<use xlink:href="#n"/>
</g>
</g>
<path d="m691.15 333.13 5.2683 2.5547q2.1595 1.0472 3.2067-1.1123l3.3783-6.9666q1.0472-2.1595-1.1123-3.2067l-5.2683-2.5547q-2.1595-1.0472-3.2067 1.1123l-3.3783 6.9666q-1.0472 2.1595 1.1123 3.2067z" clip-path="url(#a)" fill="#fff" stroke="#fff"/>
<g clip-path="url(#a)">
<g transform="translate(692.93 329.47) rotate(25.87) scale(.08 -.08)">
<use xlink:href="#n"/>
</g>
</g>
<path d="m733.9 333.8 5.56 1.8352q2.2791 0.75226 3.0313-1.5268l2.4268-7.3523q0.75226-2.2791-1.5268-3.0313l-5.56-1.8352q-2.2791-0.75226-3.0313 1.5268l-2.4268 7.3523q-0.75226 2.2791 1.5268 3.0313z" clip-path="url(#a)" fill="#fff" stroke="#fff"/>
<g clip-path="url(#a)">
<g transform="translate(735.17 329.94) rotate(18.267) scale(.08 -.08)">
<use xlink:href="#n"/>
</g>
</g>
<path d="m367.71 398.34v33.808q0 2.4 2.4 2.4h7.7425q2.4 0 2.4-2.4v-33.808q0-2.4-2.4-2.4h-7.7425q-2.4 0-2.4 2.4z" clip-path="url(#a)" fill="#fff" stroke="#fff"/>
<g clip-path="url(#a)">
<g transform="translate(371.77 398.34) rotate(90) scale(.08 -.08)">
<use xlink:href="#l"/>
<use x="44.083984" xlink:href="#f"/>
<use x="105.607422" xlink:href="#h"/>
<use x="144.970703" xlink:href="#j"/>
<use x="242.382812" xlink:href="#g"/>
<use x="270.166016" xlink:href="#i"/>
<use x="333.544922" xlink:href="#e"/>
<use x="394.824219" xlink:href="#k"/>
</g>
</g>
<path d="m425.34 398.34v33.808q0 2.4 2.4 2.4h7.7425q2.4 0 2.4-2.4v-33.808q0-2.4-2.4-2.4h-7.7425q-2.4 0-2.4 2.4z" clip-path="url(#a)" fill="#fff" stroke="#fff"/>
<g clip-path="url(#a)">
<g transform="translate(429.41 398.34) rotate(90) scale(.08 -.08)">
<use xlink:href="#l"/>
<use x="44.083984" xlink:href="#f"/>
<use x="105.607422" xlink:href="#h"/>
<use x="144.970703" xlink:href="#j"/>
<use x="242.382812" xlink:href="#g"/>
<use x="270.166016" xlink:href="#i"/>
<use x="333.544922" xlink:href="#e"/>
<use x="394.824219" xlink:href="#k"/>
</g>
</g>
<path d="m487.41 398.34v33.808q0 2.4 2.4 2.4h7.7425q2.4 0 2.4-2.4v-33.808q0-2.4-2.4-2.4h-7.7425q-2.4 0-2.4 2.4z" clip-path="url(#a)" fill="#fff" stroke="#fff"/>
<g clip-path="url(#a)">
<g transform="translate(491.48 398.34) rotate(90) scale(.08 -.08)">
<use xlink:href="#l"/>
<use x="44.083984" xlink:href="#f"/>
<use x="105.607422" xlink:href="#h"/>
<use x="144.970703" xlink:href="#j"/>
<use x="242.382812" xlink:href="#g"/>
<use x="270.166016" xlink:href="#i"/>
<use x="333.544922" xlink:href="#e"/>
<use x="394.824219" xlink:href="#k"/>
</g>
</g>
<path d="m553.92 398.34v33.808q0 2.4 2.4 2.4h7.7425q2.4 0 2.4-2.4v-33.808q0-2.4-2.4-2.4h-7.7425q-2.4 0-2.4 2.4z" clip-path="url(#a)" fill="#fff" stroke="#fff"/>
<g clip-path="url(#a)">
<g transform="translate(557.98 398.34) rotate(90) scale(.08 -.08)">
<use xlink:href="#l"/>
<use x="44.083984" xlink:href="#f"/>
<use x="105.607422" xlink:href="#h"/>
<use x="144.970703" xlink:href="#j"/>
<use x="242.382812" xlink:href="#g"/>
<use x="270.166016" xlink:href="#i"/>
<use x="333.544922" xlink:href="#e"/>
<use x="394.824219" xlink:href="#k"/>
</g>
</g>
<path d="m35.183 398.34v33.808q0 2.4 2.4 2.4h7.7425q2.4 0 2.4-2.4v-33.808q0-2.4-2.4-2.4h-7.7425q-2.4 0-2.4 2.4z" clip-path="url(#a)" fill="#fff" stroke="#fff"/>
<g clip-path="url(#a)">
<g transform="translate(39.247 398.34) rotate(90) scale(.08 -.08)">
<use xlink:href="#l"/>
<use x="44.083984" xlink:href="#f"/>
<use x="105.607422" xlink:href="#h"/>
<use x="144.970703" xlink:href="#j"/>
<use x="242.382812" xlink:href="#g"/>
<use x="270.166016" xlink:href="#i"/>
<use x="333.544922" xlink:href="#e"/>
<use x="394.824219" xlink:href="#k"/>
</g>
</g>
<path d="m48.484 398.34v33.808q0 2.4 2.4 2.4h7.7425q2.4 0 2.4-2.4v-33.808q0-2.4-2.4-2.4h-7.7425q-2.4 0-2.4 2.4z" clip-path="url(#a)" fill="#fff" stroke="#fff"/>
<g clip-path="url(#a)">
<g transform="translate(52.548 398.34) rotate(90) scale(.08 -.08)">
<use xlink:href="#l"/>
<use x="44.083984" xlink:href="#f"/>
<use x="105.607422" xlink:href="#h"/>
<use x="144.970703" xlink:href="#j"/>
<use x="242.382812" xlink:href="#g"/>
<use x="270.166016" xlink:href="#i"/>
<use x="333.544922" xlink:href="#e"/>
<use x="394.824219" xlink:href="#k"/>
</g>
</g>
<path d="m66.219 398.34v33.808q0 2.4 2.4 2.4h7.7425q2.4 0 2.4-2.4v-33.808q0-2.4-2.4-2.4h-7.7425q-2.4 0-2.4 2.4z" clip-path="url(#a)" fill="#fff" stroke="#fff"/>
<g clip-path="url(#a)">
<g transform="translate(70.283 398.34) rotate(90) scale(.08 -.08)">
<use xlink:href="#l"/>
<use x="44.083984" xlink:href="#f"/>
<use x="105.607422" xlink:href="#h"/>
<use x="144.970703" xlink:href="#j"/>
<use x="242.382812" xlink:href="#g"/>
<use x="270.166016" xlink:href="#i"/>
<use x="333.544922" xlink:href="#e"/>
<use x="394.824219" xlink:href="#k"/>
</g>
</g>
<path d="m88.387 398.34v33.808q0 2.4 2.4 2.4h7.7425q2.4 0 2.4-2.4v-33.808q0-2.4-2.4-2.4h-7.7425q-2.4 0-2.4 2.4z" clip-path="url(#a)" fill="#fff" stroke="#fff"/>
<g clip-path="url(#a)">
<g transform="translate(92.451 398.34) rotate(90) scale(.08 -.08)">
<use xlink:href="#l"/>
<use x="44.083984" xlink:href="#f"/>
<use x="105.607422" xlink:href="#h"/>
<use x="144.970703" xlink:href="#j"/>
<use x="242.382812" xlink:href="#g"/>
<use x="270.166016" xlink:href="#i"/>
<use x="333.544922" xlink:href="#e"/>
<use x="394.824219" xlink:href="#k"/>
</g>
</g>
<path d="m114.99 398.34v33.808q0 2.4 2.4 2.4h7.7425q2.4 0 2.4-2.4v-33.808q0-2.4-2.4-2.4h-7.7425q-2.4 0-2.4 2.4z" clip-path="url(#a)" fill="#fff" stroke="#fff"/>
<g clip-path="url(#a)">
<g transform="translate(119.05 398.34) rotate(90) scale(.08 -.08)">
<use xlink:href="#l"/>
<use x="44.083984" xlink:href="#f"/>
<use x="105.607422" xlink:href="#h"/>
<use x="144.970703" xlink:href="#j"/>
<use x="242.382812" xlink:href="#g"/>
<use x="270.166016" xlink:href="#i"/>
<use x="333.544922" xlink:href="#e"/>
<use x="394.824219" xlink:href="#k"/>
</g>
</g>
<path d="m265.73 398.34v33.808q0 2.4 2.4 2.4h7.7425q2.4 0 2.4-2.4v-33.808q0-2.4-2.4-2.4h-7.7425q-2.4 0-2.4 2.4z" clip-path="url(#a)" fill="#fff" stroke="#fff"/>
<g clip-path="url(#a)">
<g transform="translate(269.8 398.34) rotate(90) scale(.08 -.08)">
<use xlink:href="#l"/>
<use x="44.083984" xlink:href="#f"/>
<use x="105.607422" xlink:href="#h"/>
<use x="144.970703" xlink:href="#j"/>
<use x="242.382812" xlink:href="#g"/>
<use x="270.166016" xlink:href="#i"/>
<use x="333.544922" xlink:href="#e"/>
<use x="394.824219" xlink:href="#k"/>
</g>
</g>
<path d="m314.5 398.34v33.808q0 2.4 2.4 2.4h7.7425q2.4 0 2.4-2.4v-33.808q0-2.4-2.4-2.4h-7.7425q-2.4 0-2.4 2.4z" clip-path="url(#a)" fill="#fff" stroke="#fff"/>
<g clip-path="url(#a)">
<g transform="translate(318.57 398.34) rotate(90) scale(.08 -.08)">
<use xlink:href="#l"/>
<use x="44.083984" xlink:href="#f"/>
<use x="105.607422" xlink:href="#h"/>
<use x="144.970703" xlink:href="#j"/>
<use x="242.382812" xlink:href="#g"/>
<use x="270.166016" xlink:href="#i"/>
<use x="333.544922" xlink:href="#e"/>
<use x="394.824219" xlink:href="#k"/>
</g>
</g>
<path d="m624.86 398.34v33.808q0 2.4 2.4 2.4h7.7425q2.4 0 2.4-2.4v-33.808q0-2.4-2.4-2.4h-7.7425q-2.4 0-2.4 2.4z" clip-path="url(#a)" fill="#fff" stroke="#fff"/>
<g clip-path="url(#a)">
<g transform="translate(628.92 398.34) rotate(90) scale(.08 -.08)">
<use xlink:href="#l"/>
<use x="44.083984" xlink:href="#f"/>
<use x="105.607422" xlink:href="#h"/>
<use x="144.970703" xlink:href="#j"/>
<use x="242.382812" xlink:href="#g"/>
<use x="270.166016" xlink:href="#i"/>
<use x="333.544922" xlink:href="#e"/>
<use x="394.824219" xlink:href="#k"/>
</g>
</g>
<path d="m700.23 398.34v33.808q0 2.4 2.4 2.4h7.7425q2.4 0 2.4-2.4v-33.808q0-2.4-2.4-2.4h-7.7425q-2.4 0-2.4 2.4z" clip-path="url(#a)" fill="#fff" stroke="#fff"/>
<g clip-path="url(#a)">
<g transform="translate(704.29 398.34) rotate(90) scale(.08 -.08)">
<use xlink:href="#l"/>
<use x="44.083984" xlink:href="#f"/>
<use x="105.607422" xlink:href="#h"/>
<use x="144.970703" xlink:href="#j"/>
<use x="242.382812" xlink:href="#g"/>
<use x="270.166016" xlink:href="#i"/>
<use x="333.544922" xlink:href="#e"/>
<use x="394.824219" xlink:href="#k"/>
</g>
</g>
<path d="m780.04 398.34v33.808q0 2.4 2.4 2.4h7.7425q2.4 0 2.4-2.4v-33.808q0-2.4-2.4-2.4h-7.7425q-2.4 0-2.4 2.4z" clip-path="url(#a)" fill="#fff" stroke="#fff"/>
<g clip-path="url(#a)">
<g transform="translate(784.1 398.34) rotate(90) scale(.08 -.08)">
<use xlink:href="#l"/>
<use x="44.083984" xlink:href="#f"/>
<use x="105.607422" xlink:href="#h"/>
<use x="144.970703" xlink:href="#j"/>
<use x="242.382812" xlink:href="#g"/>
<use x="270.166016" xlink:href="#i"/>
<use x="333.544922" xlink:href="#e"/>
<use x="394.824219" xlink:href="#k"/>
</g>
</g>
<path d="m864.27 398.34v33.808q0 2.4 2.4 2.4h7.7425q2.4 0 2.4-2.4v-33.808q0-2.4-2.4-2.4h-7.7425q-2.4 0-2.4 2.4z" clip-path="url(#a)" fill="#fff" stroke="#fff"/>
<g clip-path="url(#a)">
<g transform="translate(868.34 398.34) rotate(90) scale(.08 -.08)">
<use xlink:href="#l"/>
<use x="44.083984" xlink:href="#f"/>
<use x="105.607422" xlink:href="#h"/>
<use x="144.970703" xlink:href="#j"/>
<use x="242.382812" xlink:href="#g"/>
<use x="270.166016" xlink:href="#i"/>
<use x="333.544922" xlink:href="#e"/>
<use x="394.824219" xlink:href="#k"/>
</g>
</g>
<defs>
<path id="b" d="m0 8.6603c2.2967 0 4.4997-0.9125 6.1237-2.5365 1.624-1.624 2.5365-3.827 2.5365-6.1237s-0.9125-4.4997-2.5365-6.1237c-1.624-1.624-3.827-2.5365-6.1237-2.5365s-4.4997 0.9125-6.1237 2.5365c-1.624 1.624-2.5365 3.827-2.5365 6.1237s0.9125 4.4997 2.5365 6.1237c1.624 1.624 3.827 2.5365 6.1237 2.5365z"/>
</defs>
<g clip-path="url(#a)" fill="#ffffff" stroke="#ffffff">
<use x="41.454545" y="458.181818" xlink:href="#b"/>
<use x="54.755469" y="458.181818" xlink:href="#b"/>
<use x="72.490034" y="458.181818" xlink:href="#b"/>
<use x="94.65824" y="458.181818" xlink:href="#b"/>
<use x="121.260088" y="458.181818" xlink:href="#b"/>
<use x="152.295576" y="458.181818" xlink:href="#b"/>
<use x="187.764706" y="458.181818" xlink:href="#b"/>
<use x="227.667477" y="458.181818" xlink:href="#b"/>
<use x="272.003889" y="458.181818" xlink:href="#b"/>
<use x="320.773943" y="458.181818" xlink:href="#b"/>
<use x="373.977637" y="458.181818" xlink:href="#b"/>
<use x="431.614973" y="458.181818" xlink:href="#b"/>
<use x="493.68595" y="458.181818" xlink:href="#b"/>
<use x="560.190569" y="458.181818" xlink:href="#b"/>
<use x="631.128828" y="458.181818" xlink:href="#b"/>
<use x="706.500729" y="458.181818" xlink:href="#b"/>
<use x="786.306271" y="458.181818" xlink:href="#b"/>
<use x="870.545455" y="458.181818" xlink:href="#b"/>
<use x="214.313772" y="21.818182" xlink:href="#b"/>
<use x="214.313772" y="109.869014" xlink:href="#b"/>
<use x="331.488576" y="197.697661" xlink:href="#b"/>
<use x="152.295576" y="372.302449" xlink:href="#b"/>
<use x="207.716091" y="285.228402" xlink:href="#b"/>
<use x="187.764706" y="372.302449" xlink:href="#b"/>
<use x="227.667477" y="372.302449" xlink:href="#b"/>
<use x="56.23335" y="285.228402" xlink:href="#b"/>
<use x="606.743802" y="285.228402" xlink:href="#b"/>
<use x="373.977637" y="372.302449" xlink:href="#b"/>
<use x="431.614973" y="372.302449" xlink:href="#b"/>
<use x="493.68595" y="372.302449" xlink:href="#b"/>
<use x="560.190569" y="372.302449" xlink:href="#b"/>
<use x="41.454545" y="372.302449" xlink:href="#b"/>
<use x="54.755469" y="372.302449" xlink:href="#b"/>
<use x="72.490034" y="372.302449" xlink:href="#b"/>
<use x="94.65824" y="372.302449" xlink:href="#b"/>
<use x="121.260088" y="372.302449" xlink:href="#b"/>
<use x="272.003889" y="372.302449" xlink:href="#b"/>
<use x="320.773943" y="372.302449" xlink:href="#b"/>
<use x="631.128828" y="372.302449" xlink:href="#b"/>
<use x="706.500729" y="372.302449" xlink:href="#b"/>
<use x="786.306271" y="372.302449" xlink:href="#b"/>
<use x="870.545455" y="372.302449" xlink:href="#b"/>
</g>
<g clip-path="url(#a)">
<defs>
<path id="aj" d="m9.8125 72.906h46.094v-8.3125h-36.234v-21.578h34.719v-8.2969h-34.719v-26.422h37.109v-8.2969h-46.969z"/>
</defs>
<g transform="translate(36.24 460.94) scale(.1 -.1)">
<use xlink:href="#aj"/>
<use x="63.183594" xlink:href="#h"/>
</g>
</g>
<g clip-path="url(#a)">
<defs>
<path id="p" d="m44.281 53.078v-8.5q-3.7969 1.9531-7.9062 2.9219-4.0938 0.98438-8.5 0.98438-6.6875 0-10.031-2.0469t-3.3438-6.1562q0-3.125 2.3906-4.9062t9.625-3.3906l3.0781-0.6875q9.5625-2.0469 13.594-5.7812t4.0312-10.422q0-7.625-6.0312-12.078-6.0312-4.4375-16.578-4.4375-4.3906 0-9.1562 0.85938t-10.031 2.5625v9.2812q4.9844-2.5938 9.8125-3.8906 4.8281-1.2812 9.5781-1.2812 6.3438 0 9.75 2.1719 3.4219 2.1719 3.4219 6.125 0 3.6562-2.4688 5.6094-2.4531 1.9531-10.812 3.7656l-3.125 0.73438q-8.3438 1.75-12.062 5.3906-3.7031 3.6406-3.7031 9.9844 0 7.7188 5.4688 11.906 5.4688 4.2031 15.531 4.2031 4.9688 0 9.3594-0.73438 4.4062-0.71875 8.1094-2.1875z"/>
<path id="y" d="m18.312 70.219v-15.531h18.5v-6.9844h-18.5v-29.688q0-6.6875 1.8281-8.5938t7.4531-1.9062h9.2188v-7.5156h-9.2188q-10.406 0-14.359 3.875-3.9531 3.8906-3.9531 14.141v29.688h-6.5938v6.9844h6.5938v15.531z"/>
</defs>
<g transform="translate(48.802 460.94) scale(.1 -.1)">
<use xlink:href="#g"/>
<use x="27.783203" xlink:href="#p"/>
<use x="79.882812" xlink:href="#y"/>
</g>
</g>
<g clip-path="url(#a)">
<defs>
<path id="t" d="m48.781 52.594v-8.4062q-3.8125 2.1094-7.6406 3.1562t-7.7344 1.0469q-8.75 0-13.594-5.5469-4.8281-5.5312-4.8281-15.547t4.8281-15.562q4.8438-5.5312 13.594-5.5312 3.9062 0 7.7344 1.0469t7.6406 3.1562v-8.3125q-3.7656-1.75-7.7969-2.625-4.0156-0.89062-8.5625-0.89062-12.359 0-19.641 7.7656-7.2656 7.7656-7.2656 20.953 0 13.375 7.3438 21.031 7.3594 7.6719 20.156 7.6719 4.1406 0 8.0938-0.85938 3.9531-0.84375 7.6719-2.5469z"/>
<path id="s" d="m54.891 33.016v-33.016h-8.9844v32.719q0 7.7656-3.0312 11.609-3.0312 3.8594-9.0781 3.8594-7.2812 0-11.484-4.6406-4.2031-4.625-4.2031-12.641v-30.906h-9.0312v75.984h9.0312v-29.797q3.2344 4.9375 7.5938 7.375 4.375 2.4375 10.094 2.4375 9.4219 0 14.25-5.8281 4.8438-5.8281 4.8438-17.156z"/>
<path id="ao" d="m30.609 48.391q-7.2188 0-11.422-5.6406t-4.2031-15.453 4.1719-15.453q4.1875-5.6406 11.453-5.6406 7.1875 0 11.375 5.6562 4.2031 5.6719 4.2031 15.438 0 9.7188-4.2031 15.406-4.1875 5.6875-11.375 5.6875zm0 7.6094q11.719 0 18.406-7.625 6.7031-7.6094 6.7031-21.078 0-13.422-6.7031-21.078-6.6875-7.6406-18.406-7.6406-11.766 0-18.438 7.6406-6.6562 7.6562-6.6562 21.078 0 13.469 6.6562 21.078 6.6719 7.625 18.438 7.625zm4.6094 19.781h9.9062v-9.8594h-9.9062zm-19.094 0h9.9062v-9.8594h-9.9062z"/>
</defs>
<g transform="translate(57.739 460.94) scale(.1 -.1)">
<use xlink:href="#p"/>
<use x="52.099609" xlink:href="#t"/>
<use x="107.080078" xlink:href="#s"/>
<use x="170.458984" xlink:href="#ao"/>
<use x="231.640625" xlink:href="#i"/>
</g>
</g>
<g clip-path="url(#a)">
<defs>
<path id="r" d="m17.922 72.906v-27.109h-8.2969v27.109zm18.453 0v-27.109h-8.2969v27.109z"/>
</defs>
<g transform="translate(92.358 460.94) scale(.1 -.1)">
<use xlink:href="#r"/>
</g>
</g>
<g clip-path="url(#a)">
<defs>
<path id="an" d="m11.719 12.406h10.297v-8.4062l-8-15.625h-6.2969l4 15.625z"/>
</defs>
<g transform="translate(119.67 460.94) scale(.1 -.1)">
<use xlink:href="#an"/>
</g>
</g>
<g clip-path="url(#a)">
<defs>
<path id="ag" d="m45.406 27.984q0 9.7656-4.0312 15.125-4.0156 5.375-11.297 5.375-7.2188 0-11.25-5.375-4.0312-5.3594-4.0312-15.125 0-9.7188 4.0312-15.094t11.25-5.375q7.2812 0 11.297 5.375 4.0312 5.375 4.0312 15.094zm8.9844-21.203q0-13.953-6.2031-20.766-6.1875-6.8125-18.984-6.8125-4.7344 0-8.9375 0.70312t-8.1562 2.1719v8.7344q3.9531-2.1406 7.8125-3.1562 3.8594-1.0312 7.8594-1.0312 8.8438 0 13.234 4.6094t4.3906 13.938v4.4531q-2.7812-4.8438-7.125-7.2344t-10.406-2.3906q-10.047 0-16.203 7.6562-6.1562 7.6719-6.1562 20.328 0 12.688 6.1562 20.344 6.1562 7.6719 16.203 7.6719 6.0625 0 10.406-2.3906t7.125-7.2188v8.2969h8.9844z"/>
</defs>
<g transform="translate(138.42 460.94) scale(.1 -.1)">
<use xlink:href="#p"/>
<use x="52.099609" xlink:href="#e"/>
<use x="113.378906" xlink:href="#ag"/>
<use x="176.855469" xlink:href="#y"/>
<use x="216.064453" xlink:href="#f"/>
</g>
</g>
<g clip-path="url(#a)">
<defs>
<path id="ah" d="m45.406 46.391v29.594h8.9844v-75.984h-8.9844v8.2031q-2.8281-4.875-7.1562-7.25-4.3125-2.375-10.375-2.375-9.9062 0-16.141 7.9062-6.2188 7.9219-6.2188 20.812t6.2188 20.797q6.2344 7.9062 16.141 7.9062 6.0625 0 10.375-2.375 4.3281-2.3594 7.1562-7.2344zm-30.609-19.094q0-9.9062 4.0781-15.547t11.203-5.6406 11.219 5.6406q4.1094 5.6406 4.1094 15.547t-4.1094 15.547q-4.0938 5.6406-11.219 5.6406t-11.203-5.6406-4.0781-15.547z"/>
</defs>
<g transform="translate(180.12 460.94) scale(.1 -.1)">
<use xlink:href="#ah"/>
<use x="63.476562" xlink:href="#g"/>
<use x="91.259766" xlink:href="#f"/>
</g>
</g>
<g clip-path="url(#a)">
<g transform="translate(204.7 460.94) scale(.1 -.1)">
<use xlink:href="#z"/>
<use x="63.476562" xlink:href="#t"/>
<use x="118.457031" xlink:href="#s"/>
<use x="181.835938" xlink:href="#k"/>
<use x="209.619141" xlink:href="#e"/>
<use x="270.898438" xlink:href="#i"/>
<use x="334.277344" xlink:href="#ag"/>
<use x="397.753906" xlink:href="#f"/>
</g>
</g>
<g clip-path="url(#a)">
<defs>
<path id="d" d="m10.688 12.406h10.312v-12.406h-10.312z"/>
</defs>
<g transform="translate(270.41 460.94) scale(.1 -.1)">
<use xlink:href="#d"/>
</g>
</g>
<g clip-path="url(#a)">
<g transform="translate(318.47 460.94) scale(.1 -.1)">
<use xlink:href="#r"/>
</g>
</g>
<g clip-path="url(#a)">
<defs>
<path id="ai" d="m3.3281 72.906h9.9531l15.328-61.625 15.281 61.625h11.094l15.328-61.625 15.281 61.625h10.016l-18.312-72.906h-12.406l-15.375 63.281-15.531-63.281h-12.406z"/>
</defs>
<g transform="translate(363.68 460.94) scale(.1 -.1)">
<use xlink:href="#ai"/>
<use x="92.501953" xlink:href="#e"/>
<use x="153.78125" xlink:href="#p"/>
</g>
</g>
<g clip-path="url(#a)">
<g transform="translate(413.2 460.94) scale(.1 -.1)">
<use xlink:href="#j"/>
<use x="97.412109" xlink:href="#e"/>
<use x="158.691406" xlink:href="#t"/>
<use x="213.671875" xlink:href="#s"/>
<use x="277.050781" xlink:href="#p"/>
<use x="329.150391" xlink:href="#y"/>
</g>
</g>
<g clip-path="url(#a)">
<defs>
<path id="ap" d="m8.5 21.578v33.109h8.9844v-32.766q0-7.7656 3.0156-11.656 3.0312-3.875 9.0938-3.875 7.2656 0 11.484 4.6406 4.2344 4.6406 4.2344 12.656v31h8.9844v-54.688h-8.9844v8.4062q-3.2656-4.9844-7.5938-7.4062-4.3125-2.4219-10.031-2.4219-9.4219 0-14.312 5.8594-4.875 5.8594-4.875 17.141z"/>
</defs>
<g transform="translate(487.34 460.94) scale(.1 -.1)">
<use xlink:href="#ah"/>
<use x="63.476562" xlink:href="#ap"/>
</g>
</g>
<g clip-path="url(#a)">
<g transform="translate(550.5 460.94) scale(.1 -.1)">
<use xlink:href="#s"/>
<use x="63.378906" xlink:href="#g"/>
<use x="91.162109" xlink:href="#f"/>
<use x="152.685547" xlink:href="#h"/>
</g>
</g>
<g clip-path="url(#a)">
<defs>
<path id="al" d="m19.094 12.406h9.9062v-12.406h-9.9062zm9.625 7.1719h-9.3281v7.5156q0 4.9375 1.3594 8.1094 1.375 3.1719 5.7656 7.375l4.3906 4.3438q2.7812 2.5938 4.0312 4.8906t1.25 4.6875q0 4.3438-3.2031 7.0312t-8.4688 2.6875q-3.8594 0-8.2344-1.7188-4.3594-1.7031-9.1094-4.9844v9.1875q4.5938 2.7812 9.2969 4.1406 4.7188 1.375 9.75 1.375 8.9844 0 14.422-4.7344 5.4531-4.7344 5.4531-12.5 0-3.7188-1.7656-7.0625-1.75-3.3438-6.1406-7.5312l-4.2969-4.2031q-2.2969-2.2969-3.25-3.5938t-1.3438-2.5156q-0.29688-1.0156-0.4375-2.4844t-0.14062-4z"/>
</defs>
<g transform="translate(628.47 460.94) scale(.1 -.1)">
<use xlink:href="#al"/>
</g>
</g>
<g clip-path="url(#a)">
<g transform="translate(704.2 460.94) scale(.1 -.1)">
<use xlink:href="#r"/>
</g>
</g>
<g clip-path="url(#a)">
<defs>
<path id="am" d="m4.8906 31.391h26.312v-8h-26.312z"/>
</defs>
<g transform="translate(784.5 460.94) scale(.1 -.1)">
<use xlink:href="#am"/>
</g>
</g>
<g clip-path="url(#a)">
<g transform="translate(868.25 460.94) scale(.1 -.1)">
<use xlink:href="#r"/>
</g>
</g>
<g clip-path="url(#a)">
<defs>
<path id="c" d="m12.406 8.2969h16.109v55.625l-17.531-3.5156v8.9844l17.438 3.5156h9.8594v-64.609h16.109v-8.2969h-41.984z"/>
</defs>
<g transform="translate(206.36 24.578) scale(.1 -.1)">
<use xlink:href="#c"/>
<use x="63.623047" xlink:href="#d"/>
<use x="95.410156" xlink:href="#c"/>
</g>
</g>
<g clip-path="url(#a)">
<defs>
<path id="m" d="m19.188 8.2969h34.422v-8.2969h-46.281v8.2969q5.6094 5.8125 15.297 15.594 9.7031 9.7969 12.188 12.641 4.7344 5.3125 6.6094 9 1.8906 3.6875 1.8906 7.25 0 5.8125-4.0781 9.4688-4.0781 3.6719-10.625 3.6719-4.6406 0-9.7969-1.6094-5.1406-1.6094-11-4.8906v9.9688q5.9531 2.3906 11.125 3.6094 5.1875 1.2188 9.4844 1.2188 11.328 0 18.062-5.6719 6.7344-5.6562 6.7344-15.125 0-4.5-1.6875-8.5312-1.6719-4.0156-6.125-9.4844-1.2188-1.4219-7.7656-8.1875-6.5312-6.7656-18.453-18.922z"/>
</defs>
<g transform="translate(206.36 112.63) scale(.1 -.1)">
<use xlink:href="#c"/>
<use x="63.623047" xlink:href="#d"/>
<use x="95.410156" xlink:href="#m"/>
</g>
</g>
<g clip-path="url(#a)">
<defs>
<path id="x" d="m8.2031 72.906h46.875v-4.2031l-26.469-68.703h-10.297l24.906 64.594h-35.016z"/>
</defs>
<g transform="translate(323.54 200.46) scale(.1 -.1)">
<use xlink:href="#c"/>
<use x="63.623047" xlink:href="#d"/>
<use x="95.410156" xlink:href="#x"/>
</g>
</g>
<g clip-path="url(#a)">
<defs>
<path id="w" d="m31.781 34.625q-7.0312 0-11.062-3.7656-4.0156-3.7656-4.0156-10.344 0-6.5938 4.0156-10.359 4.0312-3.7656 11.062-3.7656t11.078 3.7812q4.0625 3.7969 4.0625 10.344 0 6.5781-4.0312 10.344-4.0156 3.7656-11.109 3.7656zm-9.8594 4.1875q-6.3438 1.5625-9.8906 5.9062-3.5312 4.3594-3.5312 10.609 0 8.7344 6.2188 13.812 6.2344 5.0781 17.062 5.0781 10.891 0 17.094-5.0781t6.2031-13.812q0-6.25-3.5469-10.609-3.5312-4.3438-9.8281-5.9062 7.125-1.6562 11.094-6.5 3.9844-4.8281 3.9844-11.797 0-10.609-6.4688-16.281-6.4688-5.6562-18.531-5.6562-12.047 0-18.531 5.6562-6.4688 5.6719-6.4688 16.281 0 6.9688 4 11.797 4.0156 4.8438 11.141 6.5zm-3.6094 15.578q0-5.6562 3.5312-8.8281 3.5469-3.1719 9.9375-3.1719 6.3594 0 9.9375 3.1719 3.5938 3.1719 3.5938 8.8281 0 5.6719-3.5938 8.8438-3.5781 3.1719-9.9375 3.1719-6.3906 0-9.9375-3.1719-3.5312-3.1719-3.5312-8.8438z"/>
</defs>
<g transform="translate(144.34 375.06) scale(.1 -.1)">
<use xlink:href="#c"/>
<use x="63.623047" xlink:href="#d"/>
<use x="95.410156" xlink:href="#w"/>
</g>
</g>
<g clip-path="url(#a)">
<defs>
<path id="v" d="m10.984 1.5156v8.9844q3.7188-1.7656 7.5156-2.6875 3.8125-0.92188 7.4844-0.92188 9.7656 0 14.906 6.5625 5.1562 6.5625 5.8906 19.953-2.8281-4.2031-7.1875-6.4531-4.3438-2.25-9.6094-2.25-10.938 0-17.312 6.6094-6.375 6.625-6.375 18.109 0 11.219 6.6406 18 6.6406 6.7969 17.672 6.7969 12.656 0 19.312-9.7031 6.6719-9.6875 6.6719-28.141 0-17.234-8.1875-27.516-8.1719-10.281-21.984-10.281-3.7188 0-7.5312 0.73438-3.7969 0.73438-7.9062 2.2031zm19.625 30.906q6.6406 0 10.516 4.5312 3.8906 4.5469 3.8906 12.469 0 7.8594-3.8906 12.422-3.875 4.5625-10.516 4.5625t-10.516-4.5625-3.875-12.422q0-7.9219 3.875-12.469 3.875-4.5312 10.516-4.5312z"/>
</defs>
<g transform="translate(199.76 287.99) scale(.1 -.1)">
<use xlink:href="#c"/>
<use x="63.623047" xlink:href="#d"/>
<use x="95.410156" xlink:href="#v"/>
</g>
</g>
<g clip-path="url(#a)">
<defs>
<path id="ae" d="m37.797 64.312-24.906-38.922h24.906zm-2.5938 8.5938h12.406v-47.516h10.406v-8.2031h-10.406v-17.188h-9.8125v17.188h-32.906v9.5156z"/>
</defs>
<g transform="translate(176.63 375.06) scale(.1 -.1)">
<use xlink:href="#c"/>
<use x="63.623047" xlink:href="#d"/>
<use x="95.410156" xlink:href="#c"/>
<use x="159.033203" xlink:href="#ae"/>
</g>
</g>
<g clip-path="url(#a)">
<defs>
<path id="ad" d="m10.797 72.906h38.719v-8.3125h-29.688v-17.859q2.1406 0.73438 4.2812 1.0938 2.1562 0.35938 4.3125 0.35938 12.203 0 19.328-6.6875 7.1406-6.6875 7.1406-18.109 0-11.766-7.3281-18.297-7.3281-6.5156-20.656-6.5156-4.5938 0-9.3594 0.78125-4.75 0.78125-9.8281 2.3438v9.9219q4.3906-2.3906 9.0781-3.5625t9.9062-1.1719q8.4531 0 13.375 4.4375 4.9375 4.4375 4.9375 12.062 0 7.6094-4.9375 12.047-4.9219 4.4531-13.375 4.4531-3.9531 0-7.8906-0.875-3.9219-0.875-8.0156-2.7344z"/>
</defs>
<g transform="translate(216.53 375.06) scale(.1 -.1)">
<use xlink:href="#c"/>
<use x="63.623047" xlink:href="#d"/>
<use x="95.410156" xlink:href="#c"/>
<use x="159.033203" xlink:href="#ad"/>
</g>
</g>
<g clip-path="url(#a)">
<defs>
<path id="ac" d="m33.016 40.375q-6.6406 0-10.531-4.5469-3.875-4.5312-3.875-12.438 0-7.8594 3.875-12.438 3.8906-4.5625 10.531-4.5625t10.516 4.5625q3.875 4.5781 3.875 12.438 0 7.9062-3.875 12.438-3.875 4.5469-10.516 4.5469zm19.578 30.922v-8.9844q-3.7188 1.75-7.5 2.6719-3.7812 0.9375-7.5 0.9375-9.7656 0-14.922-6.5938-5.1406-6.5938-5.875-19.922 2.875 4.25 7.2188 6.5156 4.3594 2.2656 9.5781 2.2656 10.984 0 17.359-6.6719 6.375-6.6562 6.375-18.125 0-11.234-6.6406-18.031-6.6406-6.7812-17.672-6.7812-12.656 0-19.344 9.6875-6.6875 9.7031-6.6875 28.109 0 17.281 8.2031 27.562t22.016 10.281q3.7188 0 7.5-0.73438t7.8906-2.1875z"/>
</defs>
<g transform="translate(45.101 287.99) scale(.1 -.1)">
<use xlink:href="#c"/>
<use x="63.623047" xlink:href="#d"/>
<use x="95.410156" xlink:href="#c"/>
<use x="159.033203" xlink:href="#ac"/>
</g>
</g>
<g clip-path="url(#a)">
<g transform="translate(595.61 287.99) scale(.1 -.1)">
<use xlink:href="#c"/>
<use x="63.623047" xlink:href="#d"/>
<use x="95.410156" xlink:href="#c"/>
<use x="159.033203" xlink:href="#x"/>
</g>
</g>
<g clip-path="url(#a)">
<g transform="translate(362.84 375.06) scale(.1 -.1)">
<use xlink:href="#c"/>
<use x="63.623047" xlink:href="#d"/>
<use x="95.410156" xlink:href="#c"/>
<use x="159.033203" xlink:href="#w"/>
</g>
</g>
<g clip-path="url(#a)">
<g transform="translate(420.48 375.06) scale(.1 -.1)">
<use xlink:href="#c"/>
<use x="63.623047" xlink:href="#d"/>
<use x="95.410156" xlink:href="#c"/>
<use x="159.033203" xlink:href="#v"/>
</g>
</g>
<g clip-path="url(#a)">
<defs>
<path id="af" d="m31.781 66.406q-7.6094 0-11.453-7.5-3.8281-7.4844-3.8281-22.531 0-14.984 3.8281-22.484 3.8438-7.5 11.453-7.5 7.6719 0 11.5 7.5 3.8438 7.5 3.8438 22.484 0 15.047-3.8438 22.531-3.8281 7.5-11.5 7.5zm0 7.8125q12.266 0 18.734-9.7031 6.4688-9.6875 6.4688-28.141 0-18.406-6.4688-28.109-6.4688-9.6875-18.734-9.6875-12.25 0-18.719 9.6875-6.4688 9.7031-6.4688 28.109 0 18.453 6.4688 28.141 6.4688 9.7031 18.719 9.7031z"/>
</defs>
<g transform="translate(482.55 375.06) scale(.1 -.1)">
<use xlink:href="#c"/>
<use x="63.623047" xlink:href="#d"/>
<use x="95.410156" xlink:href="#m"/>
<use x="159.033203" xlink:href="#af"/>
</g>
</g>
<g clip-path="url(#a)">
<g transform="translate(549.06 375.06) scale(.1 -.1)">
<use xlink:href="#c"/>
<use x="63.623047" xlink:href="#d"/>
<use x="95.410156" xlink:href="#m"/>
<use x="159.033203" xlink:href="#c"/>
</g>
</g>
<g clip-path="url(#a)">
<g transform="translate(30.322 375.06) scale(.1 -.1)">
<use xlink:href="#c"/>
<use x="63.623047" xlink:href="#d"/>
<use x="95.410156" xlink:href="#m"/>
<use x="159.033203" xlink:href="#m"/>
</g>
</g>
<g clip-path="url(#a)">
<defs>
<path id="q" d="m40.578 39.312q7.0781-1.5156 11.047-6.3125 3.9844-4.7812 3.9844-11.812 0-10.781-7.4219-16.703-7.4219-5.9062-21.094-5.9062-4.5781 0-9.4375 0.90625t-10.031 2.7188v9.5156q4.0938-2.3906 8.9688-3.6094 4.8906-1.2188 10.219-1.2188 9.2656 0 14.125 3.6562t4.8594 10.641q0 6.4531-4.5156 10.078-4.5156 3.6406-12.562 3.6406h-8.5v8.1094h8.8906q7.2656 0 11.125 2.9062t3.8594 8.375q0 5.6094-3.9844 8.6094-3.9688 3.0156-11.391 3.0156-4.0625 0-8.7031-0.89062-4.6406-0.875-10.203-2.7188v8.7812q5.625 1.5625 10.531 2.3438t9.25 0.78125q11.234 0 17.766-5.1094 6.5469-5.0938 6.5469-13.781 0-6.0625-3.4688-10.234t-9.8594-5.7812z"/>
</defs>
<g transform="translate(43.623 375.06) scale(.1 -.1)">
<use xlink:href="#c"/>
<use x="63.623047" xlink:href="#d"/>
<use x="95.410156" xlink:href="#m"/>
<use x="159.033203" xlink:href="#q"/>
</g>
</g>
<g clip-path="url(#a)">
<g transform="translate(61.357 375.06) scale(.1 -.1)">
<use xlink:href="#c"/>
<use x="63.623047" xlink:href="#d"/>
<use x="95.410156" xlink:href="#m"/>
<use x="159.033203" xlink:href="#ae"/>
</g>
</g>
<g clip-path="url(#a)">
<g transform="translate(83.525 375.06) scale(.1 -.1)">
<use xlink:href="#c"/>
<use x="63.623047" xlink:href="#d"/>
<use x="95.410156" xlink:href="#m"/>
<use x="159.033203" xlink:href="#ad"/>
</g>
</g>
<g clip-path="url(#a)">
<g transform="translate(110.13 375.06) scale(.1 -.1)">
<use xlink:href="#c"/>
<use x="63.623047" xlink:href="#d"/>
<use x="95.410156" xlink:href="#m"/>
<use x="159.033203" xlink:href="#ac"/>
</g>
</g>
<g clip-path="url(#a)">
<g transform="translate(260.87 375.06) scale(.1 -.1)">
<use xlink:href="#c"/>
<use x="63.623047" xlink:href="#d"/>
<use x="95.410156" xlink:href="#m"/>
<use x="159.033203" xlink:href="#x"/>
</g>
</g>
<g clip-path="url(#a)">
<g transform="translate(309.64 375.06) scale(.1 -.1)">
<use xlink:href="#c"/>
<use x="63.623047" xlink:href="#d"/>
<use x="95.410156" xlink:href="#m"/>
<use x="159.033203" xlink:href="#w"/>
</g>
</g>
<g clip-path="url(#a)">
<g transform="translate(620 375.06) scale(.1 -.1)">
<use xlink:href="#c"/>
<use x="63.623047" xlink:href="#d"/>
<use x="95.410156" xlink:href="#m"/>
<use x="159.033203" xlink:href="#v"/>
</g>
</g>
<g clip-path="url(#a)">
<g transform="translate(695.37 375.06) scale(.1 -.1)">
<use xlink:href="#c"/>
<use x="63.623047" xlink:href="#d"/>
<use x="95.410156" xlink:href="#q"/>
<use x="159.033203" xlink:href="#af"/>
</g>
</g>
<g clip-path="url(#a)">
<g transform="translate(775.17 375.06) scale(.1 -.1)">
<use xlink:href="#c"/>
<use x="63.623047" xlink:href="#d"/>
<use x="95.410156" xlink:href="#q"/>
<use x="159.033203" xlink:href="#c"/>
</g>
</g>
<g clip-path="url(#a)">
<g transform="translate(859.41 375.06) scale(.1 -.1)">
<use xlink:href="#c"/>
<use x="63.623047" xlink:href="#d"/>
<use x="95.410156" xlink:href="#q"/>
<use x="159.033203" xlink:href="#m"/>
</g>
</g>
<defs>
<clipPath id="a">
<rect width="912" height="480"/>
</clipPath>
</defs>
</svg>
