<?xml version="1.0" encoding="UTF-8"?>
<!DOCTYPE svg  PUBLIC '-//W3C//DTD SVG 1.1//EN'  'http://www.w3.org/Graphics/SVG/1.1/DTD/svg11.dtd'>
<svg width="810.67pt" height="426.67pt" version="1.1" viewBox="0 0 810.67 426.67" xmlns="http://www.w3.org/2000/svg" xmlns:xlink="http://www.w3.org/1999/xlink">
<defs>
<style type="text/css">*{stroke-linecap:butt;stroke-linejoin:round;}</style>
</defs>
<path d="m0 426.67h810.67v-426.67h-810.67z" fill="#fff"/>
<g fill="none" stroke="#000">
<path d="m570.88 20.306v67.619" clip-path="url(#a)"/>
<path d="m570.88 87.925 202.6 318.44" clip-path="url(#a)"/>
<path d="m570.88 87.925 159.29 318.44" clip-path="url(#a)"/>
<path d="m570.88 87.925-361.9 65.94" clip-path="url(#a)"/>
<path d="m208.99 153.86-128.49 127.72" clip-path="url(#a)"/>
<path d="m208.99 153.86 170.36 64.471" clip-path="url(#a)"/>
<path d="m208.99 153.86-41.868 190.11" clip-path="url(#a)"/>
<path d="m80.494 281.59-43.312 62.386" clip-path="url(#a)"/>
<path d="m80.494 281.59v62.386" clip-path="url(#a)"/>
<path d="m80.494 281.59 43.312 62.386" clip-path="url(#a)"/>
<path d="m379.35 218.34-147.26 63.253" clip-path="url(#a)"/>
<path d="m379.35 218.34-82.293 125.64" clip-path="url(#a)"/>
<path d="m379.35 218.34-17.325 63.253" clip-path="url(#a)"/>
<path d="m379.35 218.34 47.643 125.64" clip-path="url(#a)"/>
<path d="m379.35 218.34 199.24 63.253" clip-path="url(#a)"/>
<path d="m232.09 281.59-21.656 62.386" clip-path="url(#a)"/>
<path d="m232.09 281.59 21.656 62.386" clip-path="url(#a)"/>
<path d="m297.05 343.98v62.386" clip-path="url(#a)"/>
<path d="m362.02 281.59-21.656 62.386" clip-path="url(#a)"/>
<path d="m362.02 281.59 21.656 62.386" clip-path="url(#a)"/>
<path d="m426.99 343.98v62.386" clip-path="url(#a)"/>
<path d="m578.58 281.59-108.28 62.386" clip-path="url(#a)"/>
<path d="m578.58 281.59-64.968 62.386" clip-path="url(#a)"/>
<path d="m578.58 281.59-21.656 62.386" clip-path="url(#a)"/>
<path d="m578.58 281.59 21.656 62.386" clip-path="url(#a)"/>
<path d="m578.58 281.59 64.968 62.386" clip-path="url(#a)"/>
<path d="m578.58 281.59 108.28 62.386" clip-path="url(#a)"/>
<path d="m470.3 343.98v62.386" clip-path="url(#a)"/>
<path d="m513.61 343.98v62.386" clip-path="url(#a)"/>
<path d="m340.37 343.98v62.386" clip-path="url(#a)"/>
<path d="m383.68 343.98v62.386" clip-path="url(#a)"/>
<path d="m210.43 343.98v62.386" clip-path="url(#a)"/>
<path d="m253.74 343.98v62.386" clip-path="url(#a)"/>
<path d="m37.182 343.98v62.386" clip-path="url(#a)"/>
<path d="m80.494 343.98v62.386" clip-path="url(#a)"/>
<path d="m123.81 343.98v62.386" clip-path="url(#a)"/>
<path d="m167.12 343.98v62.386" clip-path="url(#a)"/>
<path d="m556.93 343.98v62.386" clip-path="url(#a)"/>
<path d="m600.24 343.98v62.386" clip-path="url(#a)"/>
<path d="m643.55 343.98v62.386" clip-path="url(#a)"/>
<path d="m686.86 343.98v62.386" clip-path="url(#a)"/>
</g>
<path d="m564.61 51.107v6.0162q0 2.4 2.4 2.4h7.7425q2.4 0 2.4-2.4v-6.0162q0-2.4-2.4-2.4h-7.7425q-2.4 0-2.4 2.4z" clip-path="url(#a)" fill="#fff" stroke="#fff"/>
<g clip-path="url(#a)">
<defs>
<path id="v" d="m9.8125 72.906h9.8594v-29.891h35.844v29.891h9.8594v-72.906h-9.8594v34.719h-35.844v-34.719h-9.8594z"/>
</defs>
<g transform="translate(568.67 51.107) rotate(90) scale(.08 -.08)">
<use xlink:href="#v"/>
</g>
</g>
<path d="m665.6 248.47 2.5894 4.0698q1.2883 2.0249 3.3132 0.73656l6.5324-4.1562q2.0249-1.2883 0.73656-3.3132l-2.5894-4.0698q-1.2883-2.0249-3.3132-0.73656l-6.5324 4.1562q-2.0249 1.2883-0.73656 3.3132z" clip-path="url(#a)" fill="#fff" stroke="#fff"/>
<g clip-path="url(#a)">
<defs>
<path id="t" d="m19.672 64.797v-27.391h12.406q6.8906 0 10.641 3.5625 3.7656 3.5625 3.7656 10.156 0 6.5469-3.7656 10.109-3.75 3.5625-10.641 3.5625zm-9.8594 8.1094h22.266q12.266 0 18.531-5.5469 6.2812-5.5469 6.2812-16.234 0-10.797-6.2812-16.312-6.2656-5.5156-18.531-5.5156h-12.406v-29.297h-9.8594z"/>
</defs>
<g transform="translate(669.03 246.29) rotate(57.534) scale(.08 -.08)">
<use xlink:href="#t"/>
</g>
</g>
<path d="m643.69 247.5 2.4483 4.8943q1.0737 2.1464 3.2201 1.0727l6.9245-3.4638q2.1464-1.0737 1.0727-3.2201l-2.4483-4.8943q-1.0737-2.1464-3.2201-1.0727l-6.9245 3.4638q-2.1464 1.0737-1.0727 3.2201z" clip-path="url(#a)" fill="#fff" stroke="#fff"/>
<g clip-path="url(#a)">
<defs>
<path id="o" d="m34.188 63.188-13.391-36.281h26.812zm-5.5781 9.7188h11.188l27.781-72.906h-10.25l-6.6406 18.703h-32.859l-6.6406-18.703h-10.406z"/>
</defs>
<g transform="translate(647.33 245.68) rotate(63.424) scale(.08 -.08)">
<use xlink:href="#o"/>
</g>
</g>
<path d="m388.37 127.55 5.3839-0.98098q2.3611-0.43022 1.9309-2.7913l-1.3879-7.6171q-0.43022-2.3611-2.7913-1.9309l-5.3839 0.98098q-2.3611 0.43022-1.9309 2.7913l1.3879 7.6171q0.43022 2.3611 2.7913 1.9309z" clip-path="url(#a)" fill="#fff" stroke="#fff"/>
<g clip-path="url(#a)">
<g transform="translate(387.64 123.56) rotate(-10.326) scale(.08 -.08)">
<use xlink:href="#o"/>
</g>
</g>
<path d="m147.03 224.3 4.2669-4.2414q1.7021-1.692 0.010164-3.3941l-5.4584-5.4911q-1.692-1.7021-3.3941-0.010165l-4.2669 4.2414q-1.7021 1.692-0.010164 3.3941l5.4584 5.4911q1.692 1.7021 3.3941 0.010165z" clip-path="url(#a)" fill="#fff" stroke="#fff"/>
<g clip-path="url(#a)">
<g transform="translate(144.16 221.41) rotate(-44.828) scale(.08 -.08)">
<use xlink:href="#v"/>
</g>
</g>
<path d="m289.13 190.9 5.6268 2.1294q2.2446 0.84946 3.0941-1.3952l2.7404-7.2413q0.84946-2.2446-1.3952-3.0941l-5.6268-2.1294q-2.2446-0.84946-3.0941 1.3952l-2.7404 7.2413q-0.84946 2.2446 1.3952 3.0941z" clip-path="url(#a)" fill="#fff" stroke="#fff"/>
<g clip-path="url(#a)">
<g transform="translate(290.57 187.1) rotate(20.729) scale(.08 -.08)">
<use xlink:href="#v"/>
</g>
</g>
<path d="m193.55 253.13 1.2593-5.718q0.51618-2.3438-1.8276-2.86l-7.5613-1.6652q-2.3438-0.51618-2.86 1.8276l-1.2593 5.718q-0.51618 2.3438 1.8276 2.86l7.5613 1.6652q2.3438 0.51618 2.86-1.8276z" clip-path="url(#a)" fill="#fff" stroke="#fff"/>
<g clip-path="url(#a)">
<defs>
<path id="p" d="m8.6875 72.906h9.9219v-44.297q0-11.719 4.2344-16.875 4.25-5.1406 13.781-5.1406 9.4688 0 13.719 5.1406 4.25 5.1562 4.25 16.875v44.297h9.9062v-45.516q0-14.25-7.0625-21.531-7.0469-7.2812-20.812-7.2812-13.828 0-20.891 7.2812-7.0469 7.2812-7.0469 21.531z"/>
</defs>
<g transform="translate(189.58 252.25) rotate(-77.58) scale(.08 -.08)">
<use xlink:href="#p"/>
</g>
</g>
<path d="m62.429 318.61 3.1209-4.4953q1.3687-1.9715-0.60275-3.3402l-6.36-4.4155q-1.9715-1.3687-3.3402 0.60275l-3.1209 4.4953q-1.3687 1.9715 0.60275 3.3402l6.36 4.4155q1.9715 1.3687 3.3402-0.60275z" clip-path="url(#a)" fill="#fff" stroke="#fff"/>
<g clip-path="url(#a)">
<g transform="translate(59.09 316.29) rotate(-55.229) scale(.08 -.08)">
<use xlink:href="#o"/>
</g>
</g>
<path d="m74.222 310.48v4.6012q0 2.4 2.4 2.4h7.7425q2.4 0 2.4-2.4v-4.6012q0-2.4-2.4-2.4h-7.7425q-2.4 0-2.4 2.4z" clip-path="url(#a)" fill="#fff" stroke="#fff"/>
<g clip-path="url(#a)">
<defs>
<path id="w" d="m9.8125 72.906h41.891v-8.3125h-32.031v-21.484h28.906v-8.2969h-28.906v-34.812h-9.8594z"/>
</defs>
<g transform="translate(78.286 310.48) rotate(90) scale(.08 -.08)">
<use xlink:href="#w"/>
</g>
</g>
<path d="m95.55 314.27 2.8964 4.1719q1.3687 1.9715 3.3402 0.60275l6.36-4.4155q1.9715-1.3687 0.60275-3.3402l-2.8964-4.1719q-1.3687-1.9715-3.3402-0.60275l-6.36 4.4155q-1.9715 1.3687-0.60275 3.3402z" clip-path="url(#a)" fill="#fff" stroke="#fff"/>
<g clip-path="url(#a)">
<defs>
<path id="ac" d="m53.516 70.516v-9.625q-5.6094 2.6875-10.594 4-4.9844 1.3281-9.625 1.3281-8.0469 0-12.422-3.125t-4.375-8.8906q0-4.8438 2.9062-7.3125 2.9062-2.4531 11.016-3.9688l5.9531-1.2188q11.031-2.1094 16.281-7.4062t5.25-14.172q0-10.609-7.1094-16.078-7.0938-5.4688-20.812-5.4688-5.1719 0-11.016 1.1719-5.8281 1.1719-12.078 3.4688v10.156q6-3.3594 11.766-5.0781 5.7656-1.7031 11.328-1.7031 8.4375 0 13.031 3.3125 4.5938 3.3281 4.5938 9.4844 0 5.3594-3.2969 8.3906t-10.812 4.5469l-6.0156 1.1719q-11.031 2.1875-15.969 6.875-4.9219 4.6875-4.9219 13.047 0 9.6719 6.8125 15.234t18.766 5.5625q5.1406 0 10.453-0.9375 5.3281-0.92188 10.891-2.7656z"/>
</defs>
<g transform="translate(98.888 311.96) rotate(55.229) scale(.08 -.08)">
<use xlink:href="#ac"/>
</g>
</g>
<path d="m305.68 256.81 5.0283-2.1598q2.2052-0.9472 1.258-3.1524l-3.0557-7.114q-0.9472-2.2052-3.1524-1.258l-5.0283 2.1598q-2.2052 0.9472-1.258 3.1524l3.0557 7.114q0.9472 2.2052 3.1524 1.258z" clip-path="url(#a)" fill="#fff" stroke="#fff"/>
<g clip-path="url(#a)">
<g transform="translate(304.07 253.07) rotate(-23.245) scale(.08 -.08)">
<use xlink:href="#o"/>
</g>
</g>
<path d="m342.05 286.72 2.7828-4.2485q1.315-2.0077-0.69266-3.3227l-6.4768-4.2423q-2.0077-1.315-3.3227 0.69266l-2.7828 4.2485q-1.315 2.0077 0.69266 3.3227l6.4768 4.2423q2.0077 1.315 3.3227-0.69266z" clip-path="url(#a)" fill="#fff" stroke="#fff"/>
<g clip-path="url(#a)">
<g transform="translate(338.66 284.49) rotate(-56.775) scale(.08 -.08)">
<use xlink:href="#ac"/>
</g>
</g>
<path d="m376.01 254.26 1.4456-5.2781q0.634-2.3147-1.6807-2.9487l-7.4675-2.0453q-2.3147-0.634-2.9487 1.6807l-1.4456 5.2781q-0.634 2.3147 1.6807 2.9487l7.4675 2.0453q2.3147 0.634 2.9487-1.6807z" clip-path="url(#a)" fill="#fff" stroke="#fff"/>
<g clip-path="url(#a)">
<g transform="translate(372.09 253.19) rotate(-74.683) scale(.08 -.08)">
<use xlink:href="#o"/>
</g>
</g>
<path d="m396.21 280.5 2.1841 5.7598q0.85097 2.2441 3.095 1.3931l7.2395-2.7453q2.2441-0.85097 1.3931-3.095l-2.1841-5.7598q-0.85097-2.2441-3.095-1.3931l-7.2395 2.7453q-2.2441 0.85097-1.3931 3.095z" clip-path="url(#a)" fill="#fff" stroke="#fff"/>
<g clip-path="url(#a)">
<defs>
<path id="ae" d="m19.672 64.797v-56.688h11.922q15.094 0 22.094 6.8281 7 6.8438 7 21.594 0 14.641-7 21.453t-22.094 6.8125zm-9.8594 8.1094h20.266q21.188 0 31.094-8.8125 9.9219-8.8125 9.9219-27.562 0-18.859-9.9688-27.703-9.9531-8.8281-31.047-8.8281h-20.266z"/>
</defs>
<g transform="translate(400.01 279.06) rotate(69.233) scale(.08 -.08)">
<use xlink:href="#ae"/>
</g>
</g>
<path d="m474.46 255.11 5.2159 1.656q2.2875 0.72623 3.0137-1.5612l2.3429-7.3795q0.72623-2.2875-1.5613-3.0137l-5.2159-1.656q-2.2875-0.72623-3.0137 1.5612l-2.3429 7.3795q-0.72623 2.2875 1.5612 3.0137z" clip-path="url(#a)" fill="#fff" stroke="#fff"/>
<g clip-path="url(#a)">
<g transform="translate(475.69 251.24) rotate(17.614) scale(.08 -.08)">
<use xlink:href="#o"/>
</g>
</g>
<path d="m226.27 317.46 1.8229-5.2514q0.78704-2.2673-1.4802-3.0543l-7.3143-2.539q-2.2673-0.78704-3.0543 1.4802l-1.8229 5.2514q-0.78704 2.2673 1.4802 3.0543l7.3143 2.539q2.2673 0.78704 3.0543-1.4802z" clip-path="url(#a)" fill="#fff" stroke="#fff"/>
<g clip-path="url(#a)">
<defs>
<path id="am" d="m44.391 34.188q3.1719-1.0781 6.1719-4.5938t6.0312-9.6719l10.016-19.922h-10.609l-9.3125 18.703q-3.625 7.3281-7.0156 9.7188t-9.25 2.3906h-10.75v-30.812h-9.8594v72.906h22.266q12.5 0 18.656-5.2344 6.1562-5.2188 6.1562-15.766 0-6.8906-3.2031-11.438-3.2031-4.5312-9.2969-6.2812zm-24.719 30.609v-25.875h12.406q7.125 0 10.766 3.2969t3.6406 9.6875-3.6406 9.6406-10.766 3.25z"/>
</defs>
<g transform="translate(222.43 316.13) rotate(-70.857) scale(.08 -.08)">
<use xlink:href="#am"/>
</g>
</g>
<path d="m236.07 312.2 1.8319 5.2773q0.78704 2.2673 3.0543 1.4802l7.3143-2.539q2.2673-0.78704 1.4802-3.0543l-1.8319-5.2773q-0.78704-2.2673-3.0543-1.4802l-7.3143 2.539q-2.2673 0.78704-1.4802 3.0543z" clip-path="url(#a)" fill="#fff" stroke="#fff"/>
<g clip-path="url(#a)">
<defs>
<path id="q" d="m64.406 67.281v-10.391q-4.9844 4.6406-10.625 6.9219-5.6406 2.2969-11.984 2.2969-12.5 0-19.141-7.6406t-6.6406-22.094q0-14.406 6.6406-22.047t19.141-7.6406q6.3438 0 11.984 2.2969t10.625 6.9375v-10.312q-5.1719-3.5156-10.969-5.2812-5.7812-1.75-12.219-1.75-16.562 0-26.094 10.125-9.5156 10.141-9.5156 27.672 0 17.578 9.5156 27.703 9.5312 10.141 26.094 10.141 6.5312 0 12.312-1.7344 5.7969-1.7344 10.875-5.2031z"/>
</defs>
<g transform="translate(239.91 310.87) rotate(70.857) scale(.08 -.08)">
<use xlink:href="#q"/>
</g>
</g>
<path d="m290.78 357.53v35.285q0 2.4 2.4 2.4h7.7425q2.4 0 2.4-2.4v-35.285q0-2.4-2.4-2.4h-7.7425q-2.4 0-2.4 2.4z" clip-path="url(#a)" fill="#fff" stroke="#fff"/>
<g clip-path="url(#a)">
<defs>
<path id="i" d="m-0.29688 72.906h61.672v-8.3125h-25.875v-64.594h-9.9062v64.594h-25.891z"/>
<path id="f" d="m56.203 29.594v-4.3906h-41.312q0.59375-9.2812 5.5938-14.141t13.938-4.8594q5.1719 0 10.031 1.2656t9.6562 3.8125v-8.5q-4.8438-2.0469-9.9219-3.125t-10.297-1.0781q-13.094 0-20.734 7.6094-7.6406 7.625-7.6406 20.625 0 13.422 7.25 21.297 7.25 7.8906 19.562 7.8906 11.031 0 17.453-7.1094 6.4219-7.0938 6.4219-19.297zm-8.9844 2.6406q-0.09375 7.3594-4.125 11.75-4.0312 4.4062-10.672 4.4062-7.5156 0-12.031-4.25t-5.2031-11.969z"/>
<path id="j" d="m41.109 46.297q-1.5156 0.875-3.2969 1.2812-1.7812 0.42188-3.9219 0.42188-7.625 0-11.703-4.9531t-4.0781-14.234v-28.812h-9.0312v54.688h9.0312v-8.5q2.8438 4.9844 7.375 7.3906 4.5469 2.4219 11.047 2.4219 0.92188 0 2.0469-0.125 1.125-0.10938 2.4844-0.35938z"/>
<path id="l" d="m52 44.188q3.375 6.0625 8.0625 8.9375t11.031 2.875q8.5469 0 13.188-5.9844 4.6406-5.9688 4.6406-17v-33.016h-9.0312v32.719q0 7.8594-2.7969 11.656-2.7812 3.8125-8.4844 3.8125-6.9844 0-11.047-4.6406-4.0469-4.625-4.0469-12.641v-30.906h-9.0312v32.719q0 7.9062-2.7812 11.688t-8.5938 3.7812q-6.8906 0-10.953-4.6562-4.0469-4.6562-4.0469-12.625v-30.906h-9.0312v54.688h9.0312v-8.5q3.0781 5.0312 7.375 7.4219t10.203 2.3906q5.9688 0 10.141-3.0312 4.1719-3.0156 6.1719-8.7812z"/>
<path id="e" d="m9.4219 54.688h8.9844v-54.688h-8.9844zm0 21.297h8.9844v-11.391h-8.9844z"/>
<path id="g" d="m54.891 33.016v-33.016h-8.9844v32.719q0 7.7656-3.0312 11.609-3.0312 3.8594-9.0781 3.8594-7.2812 0-11.484-4.6406-4.2031-4.625-4.2031-12.641v-30.906h-9.0312v54.688h9.0312v-8.5q3.2344 4.9375 7.5938 7.375 4.375 2.4375 10.094 2.4375 9.4219 0 14.25-5.8281 4.8438-5.8281 4.8438-17.156z"/>
<path id="h" d="m34.281 27.484q-10.891 0-15.094-2.4844t-4.2031-8.5q0-4.7812 3.1562-7.5938 3.1562-2.7969 8.5625-2.7969 7.4844 0 12 5.2969t4.5156 14.078v2zm17.922 3.7188v-31.203h-8.9844v8.2969q-3.0781-4.9688-7.6719-7.3438t-11.234-2.375q-8.3906 0-13.359 4.7188-4.9531 4.7188-4.9531 12.625 0 9.2188 6.1719 13.906 6.1875 4.6875 18.438 4.6875h12.609v0.89062q0 6.2031-4.0781 9.5938t-11.453 3.3906q-4.6875 0-9.1406-1.125-4.4375-1.125-8.5312-3.375v8.3125q4.9219 1.9062 9.5625 2.8438 4.6406 0.95312 9.0312 0.95312 11.875 0 17.734-6.1562 5.8594-6.1406 5.8594-18.641z"/>
<path id="k" d="m9.4219 75.984h8.9844v-75.984h-8.9844z"/>
</defs>
<g transform="translate(294.85 357.53) rotate(90) scale(.08 -.08)">
<use xlink:href="#i"/>
<use x="60.818359" xlink:href="#f"/>
<use x="122.341797" xlink:href="#j"/>
<use x="163.439453" xlink:href="#l"/>
<use x="260.851562" xlink:href="#e"/>
<use x="288.634766" xlink:href="#g"/>
<use x="352.013672" xlink:href="#h"/>
<use x="413.292969" xlink:href="#k"/>
</g>
</g>
<path d="m356.36 317.01 1.5089-4.3468q0.78704-2.2673-1.4802-3.0543l-7.3143-2.539q-2.2673-0.78704-3.0543 1.4802l-1.5089 4.3468q-0.78704 2.2673 1.4802 3.0543l7.3143 2.539q2.2673 0.78704 3.0543-1.4802z" clip-path="url(#a)" fill="#fff" stroke="#fff"/>
<g clip-path="url(#a)">
<g transform="translate(352.52 315.68) rotate(-70.857) scale(.08 -.08)">
<use xlink:href="#w"/>
</g>
</g>
<path d="m366.01 312.2 1.8319 5.2773q0.78704 2.2673 3.0543 1.4802l7.3143-2.539q2.2673-0.78704 1.4802-3.0543l-1.8319-5.2773q-0.78704-2.2673-3.0543-1.4802l-7.3143 2.539q-2.2673 0.78704-1.4802 3.0543z" clip-path="url(#a)" fill="#fff" stroke="#fff"/>
<g clip-path="url(#a)">
<g transform="translate(369.85 310.87) rotate(70.857) scale(.08 -.08)">
<use xlink:href="#q"/>
</g>
</g>
<path d="m420.72 357.53v35.285q0 2.4 2.4 2.4h7.7425q2.4 0 2.4-2.4v-35.285q0-2.4-2.4-2.4h-7.7425q-2.4 0-2.4 2.4z" clip-path="url(#a)" fill="#fff" stroke="#fff"/>
<g clip-path="url(#a)">
<g transform="translate(424.78 357.53) rotate(90) scale(.08 -.08)">
<use xlink:href="#i"/>
<use x="60.818359" xlink:href="#f"/>
<use x="122.341797" xlink:href="#j"/>
<use x="163.439453" xlink:href="#l"/>
<use x="260.851562" xlink:href="#e"/>
<use x="288.634766" xlink:href="#g"/>
<use x="352.013672" xlink:href="#h"/>
<use x="413.292969" xlink:href="#k"/>
</g>
</g>
<path d="m525.58 319.37 3.9869-2.297q2.0795-1.1981 0.88141-3.2777l-3.8652-6.7087q-1.1981-2.0795-3.2777-0.88141l-3.9869 2.297q-2.0795 1.1981-0.88141 3.2777l3.8652 6.7087q1.1981 2.0795 3.2777 0.88141z" clip-path="url(#a)" fill="#fff" stroke="#fff"/>
<g clip-path="url(#a)">
<g transform="translate(523.55 315.84) rotate(-29.948) scale(.08 -.08)">
<use xlink:href="#w"/>
</g>
</g>
<path d="m548.43 319.24 4.0293-3.8692q1.7311-1.6623 0.068808-3.3934l-5.3627-5.5846q-1.6623-1.7311-3.3934-0.068809l-4.0293 3.8692q-1.7311 1.6623-0.068809 3.3934l5.3627 5.5846q1.6623 1.7311 3.3934 0.068809z" clip-path="url(#a)" fill="#fff" stroke="#fff"/>
<g clip-path="url(#a)">
<g transform="translate(545.61 316.31) rotate(-43.838) scale(.08 -.08)">
<use xlink:href="#q"/>
</g>
</g>
<path d="m572.72 317.6 1.9201-5.5312q0.78704-2.2673-1.4802-3.0543l-7.3143-2.539q-2.2673-0.78704-3.0543 1.4802l-1.9201 5.5312q-0.78704 2.2673 1.4802 3.0543l7.3143 2.539q2.2673 0.78704 3.0543-1.4802z" clip-path="url(#a)" fill="#fff" stroke="#fff"/>
<g clip-path="url(#a)">
<g transform="translate(568.88 316.27) rotate(-70.857) scale(.08 -.08)">
<use xlink:href="#p"/>
</g>
</g>
<path d="m582.52 312.07 1.9201 5.5312q0.78704 2.2673 3.0543 1.4802l7.3143-2.539q2.2673-0.78704 1.4802-3.0543l-1.9201-5.5312q-0.78704-2.2673-3.0543-1.4802l-7.3143 2.539q-2.2673 0.78704-1.4802 3.0543z" clip-path="url(#a)" fill="#fff" stroke="#fff"/>
<g clip-path="url(#a)">
<g transform="translate(586.36 310.74) rotate(70.857) scale(.08 -.08)">
<use xlink:href="#p"/>
</g>
</g>
<path d="m604.61 315.28 4.2232 4.0553q1.7311 1.6623 3.3934-0.068809l5.3627-5.5846q1.6623-1.7311-0.068809-3.3934l-4.2232-4.0553q-1.7311-1.6623-3.3934 0.068809l-5.3627 5.5846q-1.6623 1.7311 0.068809 3.3934z" clip-path="url(#a)" fill="#fff" stroke="#fff"/>
<g clip-path="url(#a)">
<g transform="translate(607.42 312.35) rotate(43.838) scale(.08 -.08)">
<use xlink:href="#p"/>
</g>
</g>
<path d="m627.05 316.76 5.0732 2.9229q2.0795 1.1981 3.2777-0.88141l3.8652-6.7087q1.1981-2.0795-0.88141-3.2777l-5.0732-2.9229q-2.0795-1.1981-3.2777 0.88141l-3.8652 6.7087q-1.1981 2.0795 0.88141 3.2777z" clip-path="url(#a)" fill="#fff" stroke="#fff"/>
<g clip-path="url(#a)">
<g transform="translate(629.08 313.23) rotate(29.948) scale(.08 -.08)">
<use xlink:href="#p"/>
</g>
</g>
<path d="m464.03 357.53v35.285q0 2.4 2.4 2.4h7.7425q2.4 0 2.4-2.4v-35.285q0-2.4-2.4-2.4h-7.7425q-2.4 0-2.4 2.4z" clip-path="url(#a)" fill="#fff" stroke="#fff"/>
<g clip-path="url(#a)">
<g transform="translate(468.09 357.53) rotate(90) scale(.08 -.08)">
<use xlink:href="#i"/>
<use x="60.818359" xlink:href="#f"/>
<use x="122.341797" xlink:href="#j"/>
<use x="163.439453" xlink:href="#l"/>
<use x="260.851562" xlink:href="#e"/>
<use x="288.634766" xlink:href="#g"/>
<use x="352.013672" xlink:href="#h"/>
<use x="413.292969" xlink:href="#k"/>
</g>
</g>
<path d="m507.34 357.53v35.285q0 2.4 2.4 2.4h7.7425q2.4 0 2.4-2.4v-35.285q0-2.4-2.4-2.4h-7.7425q-2.4 0-2.4 2.4z" clip-path="url(#a)" fill="#fff" stroke="#fff"/>
<g clip-path="url(#a)">
<g transform="translate(511.41 357.53) rotate(90) scale(.08 -.08)">
<use xlink:href="#i"/>
<use x="60.818359" xlink:href="#f"/>
<use x="122.341797" xlink:href="#j"/>
<use x="163.439453" xlink:href="#l"/>
<use x="260.851562" xlink:href="#e"/>
<use x="288.634766" xlink:href="#g"/>
<use x="352.013672" xlink:href="#h"/>
<use x="413.292969" xlink:href="#k"/>
</g>
</g>
<path d="m334.09 357.53v35.285q0 2.4 2.4 2.4h7.7425q2.4 0 2.4-2.4v-35.285q0-2.4-2.4-2.4h-7.7425q-2.4 0-2.4 2.4z" clip-path="url(#a)" fill="#fff" stroke="#fff"/>
<g clip-path="url(#a)">
<g transform="translate(338.16 357.53) rotate(90) scale(.08 -.08)">
<use xlink:href="#i"/>
<use x="60.818359" xlink:href="#f"/>
<use x="122.341797" xlink:href="#j"/>
<use x="163.439453" xlink:href="#l"/>
<use x="260.851562" xlink:href="#e"/>
<use x="288.634766" xlink:href="#g"/>
<use x="352.013672" xlink:href="#h"/>
<use x="413.292969" xlink:href="#k"/>
</g>
</g>
<path d="m377.41 357.53v35.285q0 2.4 2.4 2.4h7.7425q2.4 0 2.4-2.4v-35.285q0-2.4-2.4-2.4h-7.7425q-2.4 0-2.4 2.4z" clip-path="url(#a)" fill="#fff" stroke="#fff"/>
<g clip-path="url(#a)">
<g transform="translate(381.47 357.53) rotate(90) scale(.08 -.08)">
<use xlink:href="#i"/>
<use x="60.818359" xlink:href="#f"/>
<use x="122.341797" xlink:href="#j"/>
<use x="163.439453" xlink:href="#l"/>
<use x="260.851562" xlink:href="#e"/>
<use x="288.634766" xlink:href="#g"/>
<use x="352.013672" xlink:href="#h"/>
<use x="413.292969" xlink:href="#k"/>
</g>
</g>
<path d="m204.16 357.53v35.285q0 2.4 2.4 2.4h7.7425q2.4 0 2.4-2.4v-35.285q0-2.4-2.4-2.4h-7.7425q-2.4 0-2.4 2.4z" clip-path="url(#a)" fill="#fff" stroke="#fff"/>
<g clip-path="url(#a)">
<g transform="translate(208.22 357.53) rotate(90) scale(.08 -.08)">
<use xlink:href="#i"/>
<use x="60.818359" xlink:href="#f"/>
<use x="122.341797" xlink:href="#j"/>
<use x="163.439453" xlink:href="#l"/>
<use x="260.851562" xlink:href="#e"/>
<use x="288.634766" xlink:href="#g"/>
<use x="352.013672" xlink:href="#h"/>
<use x="413.292969" xlink:href="#k"/>
</g>
</g>
<path d="m247.47 357.53v35.285q0 2.4 2.4 2.4h7.7425q2.4 0 2.4-2.4v-35.285q0-2.4-2.4-2.4h-7.7425q-2.4 0-2.4 2.4z" clip-path="url(#a)" fill="#fff" stroke="#fff"/>
<g clip-path="url(#a)">
<g transform="translate(251.53 357.53) rotate(90) scale(.08 -.08)">
<use xlink:href="#i"/>
<use x="60.818359" xlink:href="#f"/>
<use x="122.341797" xlink:href="#j"/>
<use x="163.439453" xlink:href="#l"/>
<use x="260.851562" xlink:href="#e"/>
<use x="288.634766" xlink:href="#g"/>
<use x="352.013672" xlink:href="#h"/>
<use x="413.292969" xlink:href="#k"/>
</g>
</g>
<path d="m30.91 357.53v35.285q0 2.4 2.4 2.4h7.7425q2.4 0 2.4-2.4v-35.285q0-2.4-2.4-2.4h-7.7425q-2.4 0-2.4 2.4z" clip-path="url(#a)" fill="#fff" stroke="#fff"/>
<g clip-path="url(#a)">
<g transform="translate(34.974 357.53) rotate(90) scale(.08 -.08)">
<use xlink:href="#i"/>
<use x="60.818359" xlink:href="#f"/>
<use x="122.341797" xlink:href="#j"/>
<use x="163.439453" xlink:href="#l"/>
<use x="260.851562" xlink:href="#e"/>
<use x="288.634766" xlink:href="#g"/>
<use x="352.013672" xlink:href="#h"/>
<use x="413.292969" xlink:href="#k"/>
</g>
</g>
<path d="m74.222 357.53v35.285q0 2.4 2.4 2.4h7.7425q2.4 0 2.4-2.4v-35.285q0-2.4-2.4-2.4h-7.7425q-2.4 0-2.4 2.4z" clip-path="url(#a)" fill="#fff" stroke="#fff"/>
<g clip-path="url(#a)">
<g transform="translate(78.286 357.53) rotate(90) scale(.08 -.08)">
<use xlink:href="#i"/>
<use x="60.818359" xlink:href="#f"/>
<use x="122.341797" xlink:href="#j"/>
<use x="163.439453" xlink:href="#l"/>
<use x="260.851562" xlink:href="#e"/>
<use x="288.634766" xlink:href="#g"/>
<use x="352.013672" xlink:href="#h"/>
<use x="413.292969" xlink:href="#k"/>
</g>
</g>
<path d="m117.53 357.53v35.285q0 2.4 2.4 2.4h7.7425q2.4 0 2.4-2.4v-35.285q0-2.4-2.4-2.4h-7.7425q-2.4 0-2.4 2.4z" clip-path="url(#a)" fill="#fff" stroke="#fff"/>
<g clip-path="url(#a)">
<g transform="translate(121.6 357.53) rotate(90) scale(.08 -.08)">
<use xlink:href="#i"/>
<use x="60.818359" xlink:href="#f"/>
<use x="122.341797" xlink:href="#j"/>
<use x="163.439453" xlink:href="#l"/>
<use x="260.851562" xlink:href="#e"/>
<use x="288.634766" xlink:href="#g"/>
<use x="352.013672" xlink:href="#h"/>
<use x="413.292969" xlink:href="#k"/>
</g>
</g>
<path d="m160.85 357.53v35.285q0 2.4 2.4 2.4h7.7425q2.4 0 2.4-2.4v-35.285q0-2.4-2.4-2.4h-7.7425q-2.4 0-2.4 2.4z" clip-path="url(#a)" fill="#fff" stroke="#fff"/>
<g clip-path="url(#a)">
<g transform="translate(164.91 357.53) rotate(90) scale(.08 -.08)">
<use xlink:href="#i"/>
<use x="60.818359" xlink:href="#f"/>
<use x="122.341797" xlink:href="#j"/>
<use x="163.439453" xlink:href="#l"/>
<use x="260.851562" xlink:href="#e"/>
<use x="288.634766" xlink:href="#g"/>
<use x="352.013672" xlink:href="#h"/>
<use x="413.292969" xlink:href="#k"/>
</g>
</g>
<path d="m550.65 357.53v35.285q0 2.4 2.4 2.4h7.7425q2.4 0 2.4-2.4v-35.285q0-2.4-2.4-2.4h-7.7425q-2.4 0-2.4 2.4z" clip-path="url(#a)" fill="#fff" stroke="#fff"/>
<g clip-path="url(#a)">
<g transform="translate(554.72 357.53) rotate(90) scale(.08 -.08)">
<use xlink:href="#i"/>
<use x="60.818359" xlink:href="#f"/>
<use x="122.341797" xlink:href="#j"/>
<use x="163.439453" xlink:href="#l"/>
<use x="260.851562" xlink:href="#e"/>
<use x="288.634766" xlink:href="#g"/>
<use x="352.013672" xlink:href="#h"/>
<use x="413.292969" xlink:href="#k"/>
</g>
</g>
<path d="m593.97 357.53v35.285q0 2.4 2.4 2.4h7.7425q2.4 0 2.4-2.4v-35.285q0-2.4-2.4-2.4h-7.7425q-2.4 0-2.4 2.4z" clip-path="url(#a)" fill="#fff" stroke="#fff"/>
<g clip-path="url(#a)">
<g transform="translate(598.03 357.53) rotate(90) scale(.08 -.08)">
<use xlink:href="#i"/>
<use x="60.818359" xlink:href="#f"/>
<use x="122.341797" xlink:href="#j"/>
<use x="163.439453" xlink:href="#l"/>
<use x="260.851562" xlink:href="#e"/>
<use x="288.634766" xlink:href="#g"/>
<use x="352.013672" xlink:href="#h"/>
<use x="413.292969" xlink:href="#k"/>
</g>
</g>
<path d="m637.28 357.53v35.285q0 2.4 2.4 2.4h7.7425q2.4 0 2.4-2.4v-35.285q0-2.4-2.4-2.4h-7.7425q-2.4 0-2.4 2.4z" clip-path="url(#a)" fill="#fff" stroke="#fff"/>
<g clip-path="url(#a)">
<g transform="translate(641.34 357.53) rotate(90) scale(.08 -.08)">
<use xlink:href="#i"/>
<use x="60.818359" xlink:href="#f"/>
<use x="122.341797" xlink:href="#j"/>
<use x="163.439453" xlink:href="#l"/>
<use x="260.851562" xlink:href="#e"/>
<use x="288.634766" xlink:href="#g"/>
<use x="352.013672" xlink:href="#h"/>
<use x="413.292969" xlink:href="#k"/>
</g>
</g>
<path d="m680.59 357.53v35.285q0 2.4 2.4 2.4h7.7425q2.4 0 2.4-2.4v-35.285q0-2.4-2.4-2.4h-7.7425q-2.4 0-2.4 2.4z" clip-path="url(#a)" fill="#fff" stroke="#fff"/>
<g clip-path="url(#a)">
<g transform="translate(684.65 357.53) rotate(90) scale(.08 -.08)">
<use xlink:href="#i"/>
<use x="60.818359" xlink:href="#f"/>
<use x="122.341797" xlink:href="#j"/>
<use x="163.439453" xlink:href="#l"/>
<use x="260.851562" xlink:href="#e"/>
<use x="288.634766" xlink:href="#g"/>
<use x="352.013672" xlink:href="#h"/>
<use x="413.292969" xlink:href="#k"/>
</g>
</g>
<defs>
<path id="b" d="m0 8.6603c2.2967 0 4.4997-0.9125 6.1237-2.5365 1.624-1.624 2.5365-3.827 2.5365-6.1237s-0.9125-4.4997-2.5365-6.1237c-1.624-1.624-3.827-2.5365-6.1237-2.5365s-4.4997 0.9125-6.1237 2.5365c-1.624 1.624-2.5365 3.827-2.5365 6.1237s0.9125 4.4997 2.5365 6.1237c1.624 1.624 3.827 2.5365 6.1237 2.5365z"/>
</defs>
<g clip-path="url(#a)">
<use x="37.181626" y="406.361013" fill="#ffffff" stroke="#ffffff" xlink:href="#b"/>
</g>
<g clip-path="url(#a)">
<use x="80.493592" y="406.361013" fill="#ffffff" stroke="#ffffff" xlink:href="#b"/>
</g>
<g clip-path="url(#a)">
<use x="123.805557" y="406.361013" fill="#ffffff" stroke="#ffffff" xlink:href="#b"/>
</g>
<g clip-path="url(#a)">
<use x="167.117523" y="406.361013" fill="#ffffff" stroke="#ffffff" xlink:href="#b"/>
</g>
<g clip-path="url(#a)">
<use x="210.429488" y="406.361013" fill="#ffffff" stroke="#ffffff" xlink:href="#b"/>
</g>
<g clip-path="url(#a)">
<use x="253.741454" y="406.361013" fill="#ffffff" stroke="#ffffff" xlink:href="#b"/>
</g>
<g clip-path="url(#a)">
<use x="297.05342" y="406.361013" fill="#ffffff" stroke="#ffffff" xlink:href="#b"/>
</g>
<g clip-path="url(#a)">
<use x="340.365385" y="406.361013" fill="#ffffff" stroke="#ffffff" xlink:href="#b"/>
</g>
<g clip-path="url(#a)">
<use x="383.677351" y="406.361013" fill="#ffffff" stroke="#ffffff" xlink:href="#b"/>
</g>
<g clip-path="url(#a)">
<use x="426.989316" y="406.361013" fill="#ffffff" stroke="#ffffff" xlink:href="#b"/>
</g>
<g clip-path="url(#a)">
<use x="470.301282" y="406.361013" fill="#ffffff" stroke="#ffffff" xlink:href="#b"/>
</g>
<g clip-path="url(#a)">
<use x="513.613247" y="406.361013" fill="#ffffff" stroke="#ffffff" xlink:href="#b"/>
</g>
<g clip-path="url(#a)">
<use x="556.925213" y="406.361013" fill="#ffffff" stroke="#ffffff" xlink:href="#b"/>
</g>
<g clip-path="url(#a)">
<use x="600.237178" y="406.361013" fill="#ffffff" stroke="#ffffff" xlink:href="#b"/>
</g>
<g clip-path="url(#a)">
<use x="643.549144" y="406.361013" fill="#ffffff" stroke="#ffffff" xlink:href="#b"/>
</g>
<g clip-path="url(#a)">
<use x="686.861109" y="406.361013" fill="#ffffff" stroke="#ffffff" xlink:href="#b"/>
</g>
<g clip-path="url(#a)">
<use x="570.88129" y="20.305653" fill="#ffffff" stroke="#ffffff" xlink:href="#b"/>
</g>
<g clip-path="url(#a)">
<use x="570.88129" y="87.924569" fill="#ffffff" stroke="#ffffff" xlink:href="#b"/>
</g>
<g clip-path="url(#a)">
<use x="773.48504" y="406.361013" fill="#ffffff" stroke="#ffffff" xlink:href="#b"/>
</g>
<g clip-path="url(#a)">
<use x="730.173075" y="406.361013" fill="#ffffff" stroke="#ffffff" xlink:href="#b"/>
</g>
<g clip-path="url(#a)">
<use x="208.985756" y="153.864991" fill="#ffffff" stroke="#ffffff" xlink:href="#b"/>
</g>
<g clip-path="url(#a)">
<use x="80.493592" y="281.589851" fill="#ffffff" stroke="#ffffff" xlink:href="#b"/>
</g>
<g clip-path="url(#a)">
<use x="379.346154" y="218.336417" fill="#ffffff" stroke="#ffffff" xlink:href="#b"/>
</g>
<g clip-path="url(#a)">
<use x="232.085471" y="281.589851" fill="#ffffff" stroke="#ffffff" xlink:href="#b"/>
</g>
<g clip-path="url(#a)">
<use x="297.05342" y="343.975432" fill="#ffffff" stroke="#ffffff" xlink:href="#b"/>
</g>
<g clip-path="url(#a)">
<use x="362.021368" y="281.589851" fill="#ffffff" stroke="#ffffff" xlink:href="#b"/>
</g>
<g clip-path="url(#a)">
<use x="426.989316" y="343.975432" fill="#ffffff" stroke="#ffffff" xlink:href="#b"/>
</g>
<g clip-path="url(#a)">
<use x="578.581195" y="281.589851" fill="#ffffff" stroke="#ffffff" xlink:href="#b"/>
</g>
<g clip-path="url(#a)">
<use x="470.301282" y="343.975432" fill="#ffffff" stroke="#ffffff" xlink:href="#b"/>
</g>
<g clip-path="url(#a)">
<use x="513.613247" y="343.975432" fill="#ffffff" stroke="#ffffff" xlink:href="#b"/>
</g>
<g clip-path="url(#a)">
<use x="340.365385" y="343.975432" fill="#ffffff" stroke="#ffffff" xlink:href="#b"/>
</g>
<g clip-path="url(#a)">
<use x="383.677351" y="343.975432" fill="#ffffff" stroke="#ffffff" xlink:href="#b"/>
</g>
<g clip-path="url(#a)">
<use x="210.429488" y="343.975432" fill="#ffffff" stroke="#ffffff" xlink:href="#b"/>
</g>
<g clip-path="url(#a)">
<use x="253.741454" y="343.975432" fill="#ffffff" stroke="#ffffff" xlink:href="#b"/>
</g>
<g clip-path="url(#a)">
<use x="37.181626" y="343.975432" fill="#ffffff" stroke="#ffffff" xlink:href="#b"/>
</g>
<g clip-path="url(#a)">
<use x="80.493592" y="343.975432" fill="#ffffff" stroke="#ffffff" xlink:href="#b"/>
</g>
<g clip-path="url(#a)">
<use x="123.805557" y="343.975432" fill="#ffffff" stroke="#ffffff" xlink:href="#b"/>
</g>
<g clip-path="url(#a)">
<use x="167.117523" y="343.975432" fill="#ffffff" stroke="#ffffff" xlink:href="#b"/>
</g>
<g clip-path="url(#a)">
<use x="556.925213" y="343.975432" fill="#ffffff" stroke="#ffffff" xlink:href="#b"/>
</g>
<g clip-path="url(#a)">
<use x="600.237178" y="343.975432" fill="#ffffff" stroke="#ffffff" xlink:href="#b"/>
</g>
<g clip-path="url(#a)">
<use x="643.549144" y="343.975432" fill="#ffffff" stroke="#ffffff" xlink:href="#b"/>
</g>
<g clip-path="url(#a)">
<use x="686.861109" y="343.975432" fill="#ffffff" stroke="#ffffff" xlink:href="#b"/>
</g>
<g clip-path="url(#a)">
<defs>
<path id="aa" d="m44.281 53.078v-8.5q-3.7969 1.9531-7.9062 2.9219-4.0938 0.98438-8.5 0.98438-6.6875 0-10.031-2.0469t-3.3438-6.1562q0-3.125 2.3906-4.9062t9.625-3.3906l3.0781-0.6875q9.5625-2.0469 13.594-5.7812t4.0312-10.422q0-7.625-6.0312-12.078-6.0312-4.4375-16.578-4.4375-4.3906 0-9.1562 0.85938t-10.031 2.5625v9.2812q4.9844-2.5938 9.8125-3.8906 4.8281-1.2812 9.5781-1.2812 6.3438 0 9.75 2.1719 3.4219 2.1719 3.4219 6.125 0 3.6562-2.4688 5.6094-2.4531 1.9531-10.812 3.7656l-3.125 0.73438q-8.3438 1.75-12.062 5.3906-3.7031 3.6406-3.7031 9.9844 0 7.7188 5.4688 11.906 5.4688 4.2031 15.531 4.2031 4.9688 0 9.3594-0.73438 4.4062-0.71875 8.1094-2.1875z"/>
</defs>
<g transform="translate(27.663 409.12) scale(.1 -.1)">
<use xlink:href="#ae"/>
<use x="77.001953" xlink:href="#h"/>
<use x="138.28125" xlink:href="#aa"/>
</g>
</g>
<g clip-path="url(#a)">
<defs>
<path id="z" d="m18.312 70.219v-15.531h18.5v-6.9844h-18.5v-29.688q0-6.6875 1.8281-8.5938t7.4531-1.9062h9.2188v-7.5156h-9.2188q-10.406 0-14.359 3.875-3.9531 3.8906-3.9531 14.141v29.688h-6.5938v6.9844h6.5938v15.531z"/>
</defs>
<g transform="translate(74.54 409.12) scale(.1 -.1)">
<use xlink:href="#e"/>
<use x="27.783203" xlink:href="#aa"/>
<use x="79.882812" xlink:href="#z"/>
</g>
</g>
<g clip-path="url(#a)">
<defs>
<path id="s" d="m8.5 21.578v33.109h8.9844v-32.766q0-7.7656 3.0156-11.656 3.0312-3.875 9.0938-3.875 7.2656 0 11.484 4.6406 4.2344 4.6406 4.2344 12.656v31h8.9844v-54.688h-8.9844v8.4062q-3.2656-4.9844-7.5938-7.4062-4.3125-2.4219-10.031-2.4219-9.4219 0-14.312 5.8594-4.875 5.8594-4.875 17.141z"/>
<path id="al" d="m45.406 27.984q0 9.7656-4.0312 15.125-4.0156 5.375-11.297 5.375-7.2188 0-11.25-5.375-4.0312-5.3594-4.0312-15.125 0-9.7188 4.0312-15.094t11.25-5.375q7.2812 0 11.297 5.375 4.0312 5.375 4.0312 15.094zm8.9844-21.203q0-13.953-6.2031-20.766-6.1875-6.8125-18.984-6.8125-4.7344 0-8.9375 0.70312t-8.1562 2.1719v8.7344q3.9531-2.1406 7.8125-3.1562 3.8594-1.0312 7.8594-1.0312 8.8438 0 13.234 4.6094t4.3906 13.938v4.4531q-2.7812-4.8438-7.125-7.2344t-10.406-2.3906q-10.047 0-16.203 7.6562-6.1562 7.6719-6.1562 20.328 0 12.688 6.1562 20.344 6.1562 7.6719 16.203 7.6719 6.0625 0 10.406-2.3906t7.125-7.2188v8.2969h8.9844z"/>
</defs>
<g transform="translate(110.12 409.12) scale(.1 -.1)">
<use xlink:href="#k"/>
<use x="27.783203" xlink:href="#s"/>
<use x="91.162109" xlink:href="#aa"/>
<use x="143.261719" xlink:href="#z"/>
<use x="182.470703" xlink:href="#e"/>
<use x="210.253906" xlink:href="#al"/>
</g>
</g>
<g clip-path="url(#a)">
<defs>
<path id="d" d="m10.688 12.406h10.312v-12.406h-10.312z"/>
</defs>
<g transform="translate(165.53 409.12) scale(.1 -.1)">
<use xlink:href="#d"/>
</g>
</g>
<g clip-path="url(#a)">
<defs>
<path id="an" d="m19.672 34.812v-26.703h15.828q7.9531 0 11.781 3.2969 3.8438 3.2969 3.8438 10.078 0 6.8438-3.8438 10.078-3.8281 3.25-11.781 3.25zm0 29.984v-21.969h14.609q7.2188 0 10.75 2.7031 3.5469 2.7188 3.5469 8.2812 0 5.5156-3.5469 8.25-3.5312 2.7344-10.75 2.7344zm-9.8594 8.1094h25.203q11.281 0 17.375-4.6875 6.1094-4.6875 6.1094-13.328 0-6.7031-3.125-10.656t-9.1875-4.9219q7.2812-1.5625 11.312-6.5312 4.0312-4.9531 4.0312-12.375 0-9.7656-6.6406-15.094-6.6406-5.3125-18.906-5.3125h-26.172z"/>
</defs>
<g transform="translate(202.53 409.12) scale(.1 -.1)">
<use xlink:href="#an"/>
<use x="68.603516" xlink:href="#f"/>
<use x="130.126953" xlink:href="#e"/>
</g>
</g>
<g clip-path="url(#a)">
<defs>
<path id="ab" d="m45.406 46.391v29.594h8.9844v-75.984h-8.9844v8.2031q-2.8281-4.875-7.1562-7.25-4.3125-2.375-10.375-2.375-9.9062 0-16.141 7.9062-6.2188 7.9219-6.2188 20.812t6.2188 20.797q6.2344 7.9062 16.141 7.9062 6.0625 0 10.375-2.375 4.3281-2.3594 7.1562-7.2344zm-30.609-19.094q0-9.9062 4.0781-15.547t11.203-5.6406 11.219 5.6406q4.1094 5.6406 4.1094 15.547t-4.1094 15.547q-4.0938 5.6406-11.219 5.6406t-11.203-5.6406-4.0781-15.547z"/>
</defs>
<g transform="translate(247.12 409.12) scale(.1 -.1)">
<use xlink:href="#ab"/>
<use x="63.476562" xlink:href="#e"/>
<use x="91.259766" xlink:href="#j"/>
</g>
</g>
<g clip-path="url(#a)">
<g transform="translate(279.35 409.12) scale(.1 -.1)">
<use xlink:href="#ab"/>
<use x="63.476562" xlink:href="#h"/>
<use x="124.755859" xlink:href="#s"/>
<use x="188.134766" xlink:href="#f"/>
<use x="249.658203" xlink:href="#j"/>
<use x="290.755859" xlink:href="#g"/>
</g>
</g>
<g clip-path="url(#a)">
<g transform="translate(332.73 409.12) scale(.1 -.1)">
<use xlink:href="#ab"/>
<use x="63.476562" xlink:href="#e"/>
<use x="91.259766" xlink:href="#f"/>
</g>
</g>
<g clip-path="url(#a)">
<g transform="translate(371.32 409.12) scale(.1 -.1)">
<use xlink:href="#i"/>
<use x="60.833984" xlink:href="#h"/>
<use x="122.113281" xlink:href="#al"/>
<use x="185.589844" xlink:href="#f"/>
</g>
</g>
<g clip-path="url(#a)">
<g transform="translate(418.6 409.12) scale(.1 -.1)">
<use xlink:href="#g"/>
<use x="63.378906" xlink:href="#s"/>
<use x="126.757812" xlink:href="#j"/>
</g>
</g>
<g clip-path="url(#a)">
<g transform="translate(459.59 409.12) scale(.1 -.1)">
<use xlink:href="#f"/>
<use x="61.523438" xlink:href="#e"/>
<use x="89.306641" xlink:href="#g"/>
<use x="152.685547" xlink:href="#f"/>
</g>
</g>
<g clip-path="url(#a)">
<defs>
<path id="u" d="m9.8125 72.906h14.703l18.594-49.609 18.703 49.609h14.703v-72.906h-9.625v64.016l-18.797-50h-9.9062l-18.797 50v-64.016h-9.5781z"/>
</defs>
<g transform="translate(496.54 409.12) scale(.1 -.1)">
<use xlink:href="#u"/>
<use x="86.279297" xlink:href="#e"/>
<use x="114.0625" xlink:href="#g"/>
<use x="177.441406" xlink:href="#s"/>
<use x="240.820312" xlink:href="#z"/>
<use x="280.029297" xlink:href="#f"/>
</g>
</g>
<g clip-path="url(#a)">
<defs>
<path id="ap" d="m15.094 12.406h9.9062v-12.406h-9.9062zm0 60.5h9.9062v-31.984l-0.96875-17.438h-7.9219l-1.0156 17.438z"/>
</defs>
<g transform="translate(554.92 409.12) scale(.1 -.1)">
<use xlink:href="#ap"/>
</g>
</g>
<g clip-path="url(#a)">
<defs>
<path id="ak" d="m17.922 72.906v-27.109h-8.2969v27.109zm18.453 0v-27.109h-8.2969v27.109z"/>
</defs>
<g transform="translate(597.94 409.12) scale(.1 -.1)">
<use xlink:href="#ak"/>
</g>
</g>
<g clip-path="url(#a)">
<defs>
<path id="ao" d="m4.8906 31.391h26.312v-8h-26.312z"/>
</defs>
<g transform="translate(641.75 409.12) scale(.1 -.1)">
<use xlink:href="#ao"/>
</g>
</g>
<g clip-path="url(#a)">
<g transform="translate(684.56 409.12) scale(.1 -.1)">
<use xlink:href="#ak"/>
</g>
</g>
<g clip-path="url(#a)">
<defs>
<path id="c" d="m12.406 8.2969h16.109v55.625l-17.531-3.5156v8.9844l17.438 3.5156h9.8594v-64.609h16.109v-8.2969h-41.984z"/>
</defs>
<g transform="translate(562.93 23.065) scale(.1 -.1)">
<use xlink:href="#c"/>
<use x="63.623047" xlink:href="#d"/>
<use x="95.410156" xlink:href="#c"/>
</g>
</g>
<g clip-path="url(#a)">
<defs>
<path id="m" d="m19.188 8.2969h34.422v-8.2969h-46.281v8.2969q5.6094 5.8125 15.297 15.594 9.7031 9.7969 12.188 12.641 4.7344 5.3125 6.6094 9 1.8906 3.6875 1.8906 7.25 0 5.8125-4.0781 9.4688-4.0781 3.6719-10.625 3.6719-4.6406 0-9.7969-1.6094-5.1406-1.6094-11-4.8906v9.9688q5.9531 2.3906 11.125 3.6094 5.1875 1.2188 9.4844 1.2188 11.328 0 18.062-5.6719 6.7344-5.6562 6.7344-15.125 0-4.5-1.6875-8.5312-1.6719-4.0156-6.125-9.4844-1.2188-1.4219-7.7656-8.1875-6.5312-6.7656-18.453-18.922z"/>
</defs>
<g transform="translate(562.93 90.684) scale(.1 -.1)">
<use xlink:href="#c"/>
<use x="63.623047" xlink:href="#d"/>
<use x="95.410156" xlink:href="#m"/>
</g>
</g>
<g clip-path="url(#a)">
<defs>
<path id="n" d="m9.8125 72.906h9.8594v-72.906h-9.8594z"/>
<path id="ad" d="m9.8125 72.906h9.8594v-64.609h35.5v-8.2969h-45.359z"/>
</defs>
<g transform="translate(752.4 409.12) scale(.1 -.1)">
<use xlink:href="#n"/>
<use x="29.492188" xlink:href="#u"/>
<use x="115.771484" xlink:href="#t"/>
<use x="176.074219" xlink:href="#ad"/>
<use x="231.787109" xlink:href="#n"/>
<use x="261.279297" xlink:href="#q"/>
<use x="331.103516" xlink:href="#n"/>
<use x="360.595703" xlink:href="#i"/>
</g>
</g>
<g clip-path="url(#a)">
<g transform="translate(709.09 409.12) scale(.1 -.1)">
<use xlink:href="#n"/>
<use x="29.492188" xlink:href="#u"/>
<use x="115.771484" xlink:href="#t"/>
<use x="176.074219" xlink:href="#ad"/>
<use x="231.787109" xlink:href="#n"/>
<use x="261.279297" xlink:href="#q"/>
<use x="331.103516" xlink:href="#n"/>
<use x="360.595703" xlink:href="#i"/>
</g>
</g>
<g clip-path="url(#a)">
<defs>
<path id="x" d="m10.984 1.5156v8.9844q3.7188-1.7656 7.5156-2.6875 3.8125-0.92188 7.4844-0.92188 9.7656 0 14.906 6.5625 5.1562 6.5625 5.8906 19.953-2.8281-4.2031-7.1875-6.4531-4.3438-2.25-9.6094-2.25-10.938 0-17.312 6.6094-6.375 6.625-6.375 18.109 0 11.219 6.6406 18 6.6406 6.7969 17.672 6.7969 12.656 0 19.312-9.7031 6.6719-9.6875 6.6719-28.141 0-17.234-8.1875-27.516-8.1719-10.281-21.984-10.281-3.7188 0-7.5312 0.73438-3.7969 0.73438-7.9062 2.2031zm19.625 30.906q6.6406 0 10.516 4.5312 3.8906 4.5469 3.8906 12.469 0 7.8594-3.8906 12.422-3.875 4.5625-10.516 4.5625t-10.516-4.5625-3.875-12.422q0-7.9219 3.875-12.469 3.875-4.5312 10.516-4.5312z"/>
</defs>
<g transform="translate(201.03 156.62) scale(.1 -.1)">
<use xlink:href="#c"/>
<use x="63.623047" xlink:href="#d"/>
<use x="95.410156" xlink:href="#x"/>
</g>
</g>
<g clip-path="url(#a)">
<defs>
<path id="y" d="m31.781 66.406q-7.6094 0-11.453-7.5-3.8281-7.4844-3.8281-22.531 0-14.984 3.8281-22.484 3.8438-7.5 11.453-7.5 7.6719 0 11.5 7.5 3.8438 7.5 3.8438 22.484 0 15.047-3.8438 22.531-3.8281 7.5-11.5 7.5zm0 7.8125q12.266 0 18.734-9.7031 6.4688-9.6875 6.4688-28.141 0-18.406-6.4688-28.109-6.4688-9.6875-18.734-9.6875-12.25 0-18.719 9.6875-6.4688 9.7031-6.4688 28.109 0 18.453 6.4688 28.141 6.4688 9.7031 18.719 9.7031z"/>
</defs>
<g transform="translate(69.361 284.35) scale(.1 -.1)">
<use xlink:href="#c"/>
<use x="63.623047" xlink:href="#d"/>
<use x="95.410156" xlink:href="#c"/>
<use x="159.033203" xlink:href="#y"/>
</g>
</g>
<g clip-path="url(#a)">
<g transform="translate(368.21 221.1) scale(.1 -.1)">
<use xlink:href="#c"/>
<use x="63.623047" xlink:href="#d"/>
<use x="95.410156" xlink:href="#c"/>
<use x="159.033203" xlink:href="#c"/>
</g>
</g>
<g clip-path="url(#a)">
<defs>
<path id="r" d="m40.578 39.312q7.0781-1.5156 11.047-6.3125 3.9844-4.7812 3.9844-11.812 0-10.781-7.4219-16.703-7.4219-5.9062-21.094-5.9062-4.5781 0-9.4375 0.90625t-10.031 2.7188v9.5156q4.0938-2.3906 8.9688-3.6094 4.8906-1.2188 10.219-1.2188 9.2656 0 14.125 3.6562t4.8594 10.641q0 6.4531-4.5156 10.078-4.5156 3.6406-12.562 3.6406h-8.5v8.1094h8.8906q7.2656 0 11.125 2.9062t3.8594 8.375q0 5.6094-3.9844 8.6094-3.9688 3.0156-11.391 3.0156-4.0625 0-8.7031-0.89062-4.6406-0.875-10.203-2.7188v8.7812q5.625 1.5625 10.531 2.3438t9.25 0.78125q11.234 0 17.766-5.1094 6.5469-5.0938 6.5469-13.781 0-6.0625-3.4688-10.234t-9.8594-5.7812z"/>
</defs>
<g transform="translate(220.95 284.35) scale(.1 -.1)">
<use xlink:href="#c"/>
<use x="63.623047" xlink:href="#d"/>
<use x="95.410156" xlink:href="#c"/>
<use x="159.033203" xlink:href="#r"/>
</g>
</g>
<g clip-path="url(#a)">
<defs>
<path id="aj" d="m37.797 64.312-24.906-38.922h24.906zm-2.5938 8.5938h12.406v-47.516h10.406v-8.2031h-10.406v-17.188h-9.8125v17.188h-32.906v9.5156z"/>
</defs>
<g transform="translate(285.92 346.73) scale(.1 -.1)">
<use xlink:href="#c"/>
<use x="63.623047" xlink:href="#d"/>
<use x="95.410156" xlink:href="#c"/>
<use x="159.033203" xlink:href="#aj"/>
</g>
</g>
<g clip-path="url(#a)">
<defs>
<path id="ai" d="m10.797 72.906h38.719v-8.3125h-29.688v-17.859q2.1406 0.73438 4.2812 1.0938 2.1562 0.35938 4.3125 0.35938 12.203 0 19.328-6.6875 7.1406-6.6875 7.1406-18.109 0-11.766-7.3281-18.297-7.3281-6.5156-20.656-6.5156-4.5938 0-9.3594 0.78125-4.75 0.78125-9.8281 2.3438v9.9219q4.3906-2.3906 9.0781-3.5625t9.9062-1.1719q8.4531 0 13.375 4.4375 4.9375 4.4375 4.9375 12.062 0 7.6094-4.9375 12.047-4.9219 4.4531-13.375 4.4531-3.9531 0-7.8906-0.875-3.9219-0.875-8.0156-2.7344z"/>
</defs>
<g transform="translate(350.89 284.35) scale(.1 -.1)">
<use xlink:href="#c"/>
<use x="63.623047" xlink:href="#d"/>
<use x="95.410156" xlink:href="#c"/>
<use x="159.033203" xlink:href="#ai"/>
</g>
</g>
<g clip-path="url(#a)">
<defs>
<path id="ah" d="m33.016 40.375q-6.6406 0-10.531-4.5469-3.875-4.5312-3.875-12.438 0-7.8594 3.875-12.438 3.8906-4.5625 10.531-4.5625t10.516 4.5625q3.875 4.5781 3.875 12.438 0 7.9062-3.875 12.438-3.875 4.5469-10.516 4.5469zm19.578 30.922v-8.9844q-3.7188 1.75-7.5 2.6719-3.7812 0.9375-7.5 0.9375-9.7656 0-14.922-6.5938-5.1406-6.5938-5.875-19.922 2.875 4.25 7.2188 6.5156 4.3594 2.2656 9.5781 2.2656 10.984 0 17.359-6.6719 6.375-6.6562 6.375-18.125 0-11.234-6.6406-18.031-6.6406-6.7812-17.672-6.7812-12.656 0-19.344 9.6875-6.6875 9.7031-6.6875 28.109 0 17.281 8.2031 27.562t22.016 10.281q3.7188 0 7.5-0.73438t7.8906-2.1875z"/>
</defs>
<g transform="translate(415.86 346.73) scale(.1 -.1)">
<use xlink:href="#c"/>
<use x="63.623047" xlink:href="#d"/>
<use x="95.410156" xlink:href="#c"/>
<use x="159.033203" xlink:href="#ah"/>
</g>
</g>
<g clip-path="url(#a)">
<defs>
<path id="ag" d="m8.2031 72.906h46.875v-4.2031l-26.469-68.703h-10.297l24.906 64.594h-35.016z"/>
</defs>
<g transform="translate(567.45 284.35) scale(.1 -.1)">
<use xlink:href="#c"/>
<use x="63.623047" xlink:href="#d"/>
<use x="95.410156" xlink:href="#c"/>
<use x="159.033203" xlink:href="#ag"/>
</g>
</g>
<g clip-path="url(#a)">
<defs>
<path id="af" d="m31.781 34.625q-7.0312 0-11.062-3.7656-4.0156-3.7656-4.0156-10.344 0-6.5938 4.0156-10.359 4.0312-3.7656 11.062-3.7656t11.078 3.7812q4.0625 3.7969 4.0625 10.344 0 6.5781-4.0312 10.344-4.0156 3.7656-11.109 3.7656zm-9.8594 4.1875q-6.3438 1.5625-9.8906 5.9062-3.5312 4.3594-3.5312 10.609 0 8.7344 6.2188 13.812 6.2344 5.0781 17.062 5.0781 10.891 0 17.094-5.0781t6.2031-13.812q0-6.25-3.5469-10.609-3.5312-4.3438-9.8281-5.9062 7.125-1.6562 11.094-6.5 3.9844-4.8281 3.9844-11.797 0-10.609-6.4688-16.281-6.4688-5.6562-18.531-5.6562-12.047 0-18.531 5.6562-6.4688 5.6719-6.4688 16.281 0 6.9688 4 11.797 4.0156 4.8438 11.141 6.5zm-3.6094 15.578q0-5.6562 3.5312-8.8281 3.5469-3.1719 9.9375-3.1719 6.3594 0 9.9375 3.1719 3.5938 3.1719 3.5938 8.8281 0 5.6719-3.5938 8.8438-3.5781 3.1719-9.9375 3.1719-6.3906 0-9.9375-3.1719-3.5312-3.1719-3.5312-8.8438z"/>
</defs>
<g transform="translate(459.17 346.73) scale(.1 -.1)">
<use xlink:href="#c"/>
<use x="63.623047" xlink:href="#d"/>
<use x="95.410156" xlink:href="#c"/>
<use x="159.033203" xlink:href="#af"/>
</g>
</g>
<g clip-path="url(#a)">
<g transform="translate(502.48 346.73) scale(.1 -.1)">
<use xlink:href="#c"/>
<use x="63.623047" xlink:href="#d"/>
<use x="95.410156" xlink:href="#c"/>
<use x="159.033203" xlink:href="#x"/>
</g>
</g>
<g clip-path="url(#a)">
<g transform="translate(329.23 346.73) scale(.1 -.1)">
<use xlink:href="#c"/>
<use x="63.623047" xlink:href="#d"/>
<use x="95.410156" xlink:href="#m"/>
<use x="159.033203" xlink:href="#y"/>
</g>
</g>
<g clip-path="url(#a)">
<g transform="translate(372.54 346.73) scale(.1 -.1)">
<use xlink:href="#c"/>
<use x="63.623047" xlink:href="#d"/>
<use x="95.410156" xlink:href="#m"/>
<use x="159.033203" xlink:href="#c"/>
</g>
</g>
<g clip-path="url(#a)">
<g transform="translate(199.3 346.73) scale(.1 -.1)">
<use xlink:href="#c"/>
<use x="63.623047" xlink:href="#d"/>
<use x="95.410156" xlink:href="#m"/>
<use x="159.033203" xlink:href="#m"/>
</g>
</g>
<g clip-path="url(#a)">
<g transform="translate(242.61 346.73) scale(.1 -.1)">
<use xlink:href="#c"/>
<use x="63.623047" xlink:href="#d"/>
<use x="95.410156" xlink:href="#m"/>
<use x="159.033203" xlink:href="#r"/>
</g>
</g>
<g clip-path="url(#a)">
<g transform="translate(26.049 346.73) scale(.1 -.1)">
<use xlink:href="#c"/>
<use x="63.623047" xlink:href="#d"/>
<use x="95.410156" xlink:href="#m"/>
<use x="159.033203" xlink:href="#aj"/>
</g>
</g>
<g clip-path="url(#a)">
<g transform="translate(69.361 346.73) scale(.1 -.1)">
<use xlink:href="#c"/>
<use x="63.623047" xlink:href="#d"/>
<use x="95.410156" xlink:href="#m"/>
<use x="159.033203" xlink:href="#ai"/>
</g>
</g>
<g clip-path="url(#a)">
<g transform="translate(112.67 346.73) scale(.1 -.1)">
<use xlink:href="#c"/>
<use x="63.623047" xlink:href="#d"/>
<use x="95.410156" xlink:href="#m"/>
<use x="159.033203" xlink:href="#ah"/>
</g>
</g>
<g clip-path="url(#a)">
<g transform="translate(155.98 346.73) scale(.1 -.1)">
<use xlink:href="#c"/>
<use x="63.623047" xlink:href="#d"/>
<use x="95.410156" xlink:href="#m"/>
<use x="159.033203" xlink:href="#ag"/>
</g>
</g>
<g clip-path="url(#a)">
<g transform="translate(545.79 346.73) scale(.1 -.1)">
<use xlink:href="#c"/>
<use x="63.623047" xlink:href="#d"/>
<use x="95.410156" xlink:href="#m"/>
<use x="159.033203" xlink:href="#af"/>
</g>
</g>
<g clip-path="url(#a)">
<g transform="translate(589.1 346.73) scale(.1 -.1)">
<use xlink:href="#c"/>
<use x="63.623047" xlink:href="#d"/>
<use x="95.410156" xlink:href="#m"/>
<use x="159.033203" xlink:href="#x"/>
</g>
</g>
<g clip-path="url(#a)">
<g transform="translate(632.42 346.73) scale(.1 -.1)">
<use xlink:href="#c"/>
<use x="63.623047" xlink:href="#d"/>
<use x="95.410156" xlink:href="#r"/>
<use x="159.033203" xlink:href="#y"/>
</g>
</g>
<g clip-path="url(#a)">
<g transform="translate(675.73 346.73) scale(.1 -.1)">
<use xlink:href="#c"/>
<use x="63.623047" xlink:href="#d"/>
<use x="95.410156" xlink:href="#r"/>
<use x="159.033203" xlink:href="#c"/>
</g>
</g>
<defs>
<clipPath id="a">
<rect width="810.67" height="426.67"/>
</clipPath>
</defs>
</svg>
