<?xml version="1.0" encoding="UTF-8"?>
<!DOCTYPE svg  PUBLIC '-//W3C//DTD SVG 1.1//EN'  'http://www.w3.org/Graphics/SVG/1.1/DTD/svg11.dtd'>
<svg width="962.67pt" height="506.67pt" version="1.1" viewBox="0 0 962.67 506.67" xmlns="http://www.w3.org/2000/svg" xmlns:xlink="http://www.w3.org/1999/xlink">
<defs>
<style type="text/css">*{stroke-linecap:butt;stroke-linejoin:round;}</style>
</defs>
<path d="m0 506.67h962.67v-506.67h-962.67z" fill="#fff"/>
<g fill="none" stroke="#000">
<path d="m464.76 23.03-250.02 66.409" clip-path="url(#a)"/>
<path d="m464.76 23.03 14.481 396.07" clip-path="url(#a)"/>
<path d="m464.76 23.03 279.68 264.87" clip-path="url(#a)"/>
<path d="m464.76 23.03-44.141 396.07" clip-path="url(#a)"/>
<path d="m214.74 89.439-135.39 66.298" clip-path="url(#a)"/>
<path d="m214.74 89.439 103.29 329.66" clip-path="url(#a)"/>
<path d="m214.74 89.439 101.19 329.66" clip-path="url(#a)"/>
<path d="m214.74 89.439-57.925 329.66" clip-path="url(#a)"/>
<path d="m214.74 89.439-24.426 329.66" clip-path="url(#a)"/>
<path d="m214.74 89.439 13.26 329.66" clip-path="url(#a)"/>
<path d="m479.24 419.1v64.533" clip-path="url(#a)"/>
<path d="m744.44 287.9-202.39 131.2" clip-path="url(#a)"/>
<path d="m744.44 287.9-62.81 65.774" clip-path="url(#a)"/>
<path d="m744.44 287.9 90.725 131.2" clip-path="url(#a)"/>
<path d="m744.44 287.9 174.47 131.2" clip-path="url(#a)"/>
<path d="m542.05 419.1v64.533" clip-path="url(#a)"/>
<path d="m681.63 353.67-72.58 65.431" clip-path="url(#a)"/>
<path d="m681.63 353.67-1.3958 65.431" clip-path="url(#a)"/>
<path d="m681.63 353.67 73.976 65.431" clip-path="url(#a)"/>
<path d="m835.16 419.1v64.533" clip-path="url(#a)"/>
<path d="m609.05 419.1v64.533" clip-path="url(#a)"/>
<path d="m680.23 419.1v64.533" clip-path="url(#a)"/>
<path d="m755.6 419.1v64.533" clip-path="url(#a)"/>
<path d="m79.35 155.74-29.311 197.94" clip-path="url(#a)"/>
<path d="m79.35 155.74 31.405 66.165" clip-path="url(#a)"/>
<path d="m79.35 155.74-2.0937 263.37" clip-path="url(#a)"/>
<path d="m318.03 419.1-48.154 64.533" clip-path="url(#a)"/>
<path d="m318.03 419.1 48.154 64.533" clip-path="url(#a)"/>
<path d="m315.93 419.1v64.533" clip-path="url(#a)"/>
<path d="m50.039 353.67 10.468 65.431" clip-path="url(#a)"/>
<path d="m50.039 353.67-6.281 65.431" clip-path="url(#a)"/>
<path d="m50.039 353.67 6.281 65.431" clip-path="url(#a)"/>
<path d="m110.75 221.9 16.749 65.998" clip-path="url(#a)"/>
<path d="m110.75 221.9v65.998" clip-path="url(#a)"/>
<path d="m110.75 287.9-12.562 131.2" clip-path="url(#a)"/>
<path d="m110.75 287.9 12.562 65.774" clip-path="url(#a)"/>
<path d="m98.193 419.1v64.533" clip-path="url(#a)"/>
<path d="m123.32 353.67v65.431" clip-path="url(#a)"/>
<path d="m123.32 419.1v64.533" clip-path="url(#a)"/>
<path d="m43.758 419.1v64.533" clip-path="url(#a)"/>
<path d="m56.32 419.1v64.533" clip-path="url(#a)"/>
<path d="m77.256 419.1v64.533" clip-path="url(#a)"/>
<path d="m156.82 419.1v64.533" clip-path="url(#a)"/>
<path d="m190.31 419.1v64.533" clip-path="url(#a)"/>
<path d="m228 419.1v64.533" clip-path="url(#a)"/>
<path d="m420.62 419.1v64.533" clip-path="url(#a)"/>
<path d="m918.91 419.1v64.533" clip-path="url(#a)"/>
</g>
<path d="m338.45 63.068 5.8146-1.5445q2.3196-0.61612 1.7035-2.9357l-1.9876-7.483q-0.61612-2.3196-2.9357-1.7035l-5.8146 1.5445q-2.3196 0.61612-1.7035 2.9357l1.9876 7.483q0.61612 2.3196 2.9357 1.7035z" clip-path="url(#a)" fill="#fff" stroke="#fff"/>
<g clip-path="url(#a)">
<defs>
<path id="s" d="m9.8125 72.906h9.8594v-29.891h35.844v29.891h9.8594v-72.906h-9.8594v34.719h-35.844v-34.719h-9.8594z"/>
</defs>
<g transform="translate(337.41 59.141) rotate(-14.875) scale(.08 -.08)">
<use xlink:href="#s"/>
</g>
</g>
<path d="m465.65 219.07 0.16287 4.4545q0.08769 2.3984 2.4861 2.3107l7.7373-0.28289q2.3984-0.08769 2.3107-2.4861l-0.16287-4.4545q-0.087689-2.3984-2.4861-2.3107l-7.7373 0.28289q-2.3984 0.08769-2.3107 2.4861z" clip-path="url(#a)" fill="#fff" stroke="#fff"/>
<g clip-path="url(#a)">
<defs>
<path id="x" d="m9.8125 72.906h9.8594v-64.609h35.5v-8.2969h-45.359z"/>
</defs>
<g transform="translate(469.71 218.92) rotate(87.906) scale(.08 -.08)">
<use xlink:href="#x"/>
</g>
</g>
<path d="m598.1 157.95 4.3682 4.1369q1.7426 1.6503 3.3929-0.092273l5.3239-5.6216q1.6503-1.7426-0.092273-3.3929l-4.3682-4.1369q-1.7426-1.6503-3.3929 0.092273l-5.3239 5.6216q-1.6503 1.7426 0.092273 3.3929z" clip-path="url(#a)" fill="#fff" stroke="#fff"/>
<g clip-path="url(#a)">
<g transform="translate(600.9 155) rotate(43.442) scale(.08 -.08)">
<use xlink:href="#s"/>
</g>
</g>
<path d="m448.6 224.67 0.64851-5.819q0.26583-2.3852-2.1194-2.6511l-7.6949-0.85757q-2.3852-0.26583-2.6511 2.1194l-0.64851 5.819q-0.26583 2.3852 2.1194 2.6511l7.6949 0.85757q2.3852 0.26583 2.6511-2.1194z" clip-path="url(#a)" fill="#fff" stroke="#fff"/>
<g clip-path="url(#a)">
<defs>
<path id="p" d="m8.6875 72.906h9.9219v-44.297q0-11.719 4.2344-16.875 4.25-5.1406 13.781-5.1406 9.4688 0 13.719 5.1406 4.25 5.1562 4.25 16.875v44.297h9.9062v-45.516q0-14.25-7.0625-21.531-7.0469-7.2812-20.812-7.2812-13.828 0-20.891 7.2812-7.0469 7.2812-7.0469 21.531z"/>
</defs>
<g transform="translate(444.56 224.22) rotate(-83.641) scale(.08 -.08)">
<use xlink:href="#p"/>
</g>
</g>
<path d="m147.35 129.42 4.9149-2.4067q2.1554-1.0555 1.1-3.2109l-3.405-6.9536q-1.0555-2.1554-3.2109-1.1l-4.9149 2.4067q-2.1554 1.0555-1.1 3.2109l3.405 6.9536q1.0555 2.1554 3.2109 1.1z" clip-path="url(#a)" fill="#fff" stroke="#fff"/>
<g clip-path="url(#a)">
<defs>
<path id="o" d="m34.188 63.188-13.391-36.281h26.812zm-5.5781 9.7188h11.188l27.781-72.906h-10.25l-6.6406 18.703h-32.859l-6.6406-18.703h-10.406z"/>
</defs>
<g transform="translate(145.56 125.77) rotate(-26.09) scale(.08 -.08)">
<use xlink:href="#o"/>
</g>
</g>
<path d="m259.68 253.84 1.4422 4.6031q0.71755 2.2902 3.0078 1.5727l7.3884-2.3149q2.2902-0.71755 1.5727-3.0078l-1.4422-4.6031q-0.71755-2.2902-3.0078-1.5727l-7.3884 2.3149q-2.2902 0.71755-1.5727 3.0078z" clip-path="url(#a)" fill="#fff" stroke="#fff"/>
<g clip-path="url(#a)">
<defs>
<path id="q" d="m19.672 64.797v-27.391h12.406q6.8906 0 10.641 3.5625 3.7656 3.5625 3.7656 10.156 0 6.5469-3.7656 10.109-3.75 3.5625-10.641 3.5625zm-9.8594 8.1094h22.266q12.266 0 18.531-5.5469 6.2812-5.5469 6.2812-16.234 0-10.797-6.2812-16.312-6.2656-5.5156-18.531-5.5156h-12.406v-29.297h-9.8594z"/>
</defs>
<g transform="translate(263.56 252.63) rotate(72.604) scale(.08 -.08)">
<use xlink:href="#q"/>
</g>
</g>
<path d="m258.54 253.5 1.6059 5.2316q0.70427 2.2943 2.9986 1.5901l7.4016-2.272q2.2943-0.70427 1.5901-2.9986l-1.6059-5.2316q-0.70427-2.2943-2.9986-1.5901l-7.4016 2.272q-2.2943 0.70427-1.5901 2.9986z" clip-path="url(#a)" fill="#fff" stroke="#fff"/>
<g clip-path="url(#a)">
<g transform="translate(262.42 252.3) rotate(72.936) scale(.08 -.08)">
<use xlink:href="#o"/>
</g>
</g>
<path d="m191.45 258.24 1.0132-5.7667q0.41534-2.3638-1.9485-2.7791l-7.6257-1.3399q-2.3638-0.41534-2.7791 1.9485l-1.0132 5.7667q-0.41534 2.3638 1.9485 2.7791l7.6257 1.3399q2.3638 0.41534 2.7791-1.9485z" clip-path="url(#a)" fill="#fff" stroke="#fff"/>
<g clip-path="url(#a)">
<g transform="translate(187.45 257.54) rotate(-80.034) scale(.08 -.08)">
<use xlink:href="#p"/>
</g>
</g>
<path d="m208.56 257.65 0.43263-5.839q0.17734-2.3934-2.2161-2.5708l-7.7213-0.5721q-2.3934-0.17734-2.5708 2.2161l-0.43263 5.839q-0.17734 2.3934 2.2161 2.5708l7.7213 0.5721q2.3934 0.17734 2.5708-2.2161z" clip-path="url(#a)" fill="#fff" stroke="#fff"/>
<g clip-path="url(#a)">
<g transform="translate(204.51 257.35) rotate(-85.762) scale(.08 -.08)">
<use xlink:href="#p"/>
</g>
</g>
<path d="m214.99 251.6 0.23531 5.8503q0.096456 2.3981 2.4945 2.3016l7.7362-0.31117q2.3981-0.096455 2.3016-2.4945l-0.23531-5.8503q-0.096456-2.3981-2.4945-2.3016l-7.7362 0.31117q-2.3981 0.096455-2.3016 2.4945z" clip-path="url(#a)" fill="#fff" stroke="#fff"/>
<g clip-path="url(#a)">
<g transform="translate(219.05 251.44) rotate(87.697) scale(.08 -.08)">
<use xlink:href="#p"/>
</g>
</g>
<path d="m472.97 434.47v33.808q0 2.4 2.4 2.4h7.7425q2.4 0 2.4-2.4v-33.808q0-2.4-2.4-2.4h-7.7425q-2.4 0-2.4 2.4z" clip-path="url(#a)" fill="#fff" stroke="#fff"/>
<g clip-path="url(#a)">
<defs>
<path id="k" d="m-0.29688 72.906h61.672v-8.3125h-25.875v-64.594h-9.9062v64.594h-25.891z"/>
<path id="d" d="m56.203 29.594v-4.3906h-41.312q0.59375-9.2812 5.5938-14.141t13.938-4.8594q5.1719 0 10.031 1.2656t9.6562 3.8125v-8.5q-4.8438-2.0469-9.9219-3.125t-10.297-1.0781q-13.094 0-20.734 7.6094-7.6406 7.625-7.6406 20.625 0 13.422 7.25 21.297 7.25 7.8906 19.562 7.8906 11.031 0 17.453-7.1094 6.4219-7.0938 6.4219-19.297zm-8.9844 2.6406q-0.09375 7.3594-4.125 11.75-4.0312 4.4062-10.672 4.4062-7.5156 0-12.031-4.25t-5.2031-11.969z"/>
<path id="f" d="m41.109 46.297q-1.5156 0.875-3.2969 1.2812-1.7812 0.42188-3.9219 0.42188-7.625 0-11.703-4.9531t-4.0781-14.234v-28.812h-9.0312v54.688h9.0312v-8.5q2.8438 4.9844 7.375 7.3906 4.5469 2.4219 11.047 2.4219 0.92188 0 2.0469-0.125 1.125-0.10938 2.4844-0.35938z"/>
<path id="l" d="m52 44.188q3.375 6.0625 8.0625 8.9375t11.031 2.875q8.5469 0 13.188-5.9844 4.6406-5.9688 4.6406-17v-33.016h-9.0312v32.719q0 7.8594-2.7969 11.656-2.7812 3.8125-8.4844 3.8125-6.9844 0-11.047-4.6406-4.0469-4.625-4.0469-12.641v-30.906h-9.0312v32.719q0 7.9062-2.7812 11.688t-8.5938 3.7812q-6.8906 0-10.953-4.6562-4.0469-4.6562-4.0469-12.625v-30.906h-9.0312v54.688h9.0312v-8.5q3.0781 5.0312 7.375 7.4219t10.203 2.3906q5.9688 0 10.141-3.0312 4.1719-3.0156 6.1719-8.7812z"/>
<path id="h" d="m9.4219 54.688h8.9844v-54.688h-8.9844zm0 21.297h8.9844v-11.391h-8.9844z"/>
<path id="g" d="m54.891 33.016v-33.016h-8.9844v32.719q0 7.7656-3.0312 11.609-3.0312 3.8594-9.0781 3.8594-7.2812 0-11.484-4.6406-4.2031-4.625-4.2031-12.641v-30.906h-9.0312v54.688h9.0312v-8.5q3.2344 4.9375 7.5938 7.375 4.375 2.4375 10.094 2.4375 9.4219 0 14.25-5.8281 4.8438-5.8281 4.8438-17.156z"/>
<path id="j" d="m34.281 27.484q-10.891 0-15.094-2.4844t-4.2031-8.5q0-4.7812 3.1562-7.5938 3.1562-2.7969 8.5625-2.7969 7.4844 0 12 5.2969t4.5156 14.078v2zm17.922 3.7188v-31.203h-8.9844v8.2969q-3.0781-4.9688-7.6719-7.3438t-11.234-2.375q-8.3906 0-13.359 4.7188-4.9531 4.7188-4.9531 12.625 0 9.2188 6.1719 13.906 6.1875 4.6875 18.438 4.6875h12.609v0.89062q0 6.2031-4.0781 9.5938t-11.453 3.3906q-4.6875 0-9.1406-1.125-4.4375-1.125-8.5312-3.375v8.3125q4.9219 1.9062 9.5625 2.8438 4.6406 0.95312 9.0312 0.95312 11.875 0 17.734-6.1562 5.8594-6.1406 5.8594-18.641z"/>
<path id="i" d="m9.4219 75.984h8.9844v-75.984h-8.9844z"/>
</defs>
<g transform="translate(477.03 434.47) rotate(90) scale(.08 -.08)">
<use xlink:href="#k"/>
<use x="44.083984" xlink:href="#d"/>
<use x="105.607422" xlink:href="#f"/>
<use x="144.970703" xlink:href="#l"/>
<use x="242.382812" xlink:href="#h"/>
<use x="270.166016" xlink:href="#g"/>
<use x="333.544922" xlink:href="#j"/>
<use x="394.824219" xlink:href="#i"/>
</g>
</g>
<path d="m644.36 360.25 4.592-2.9769q2.0138-1.3055 0.7083-3.3194l-4.2117-6.4967q-1.3055-2.0138-3.3194-0.7083l-4.592 2.9769q-2.0138 1.3055-0.7083 3.3194l4.2117 6.4967q1.3055 2.0138 3.3194 0.7083z" clip-path="url(#a)" fill="#fff" stroke="#fff"/>
<g clip-path="url(#a)">
<g transform="translate(642.15 356.84) rotate(-32.955) scale(.08 -.08)">
<use xlink:href="#o"/>
</g>
</g>
<path d="m715.68 327.1 3.7794-3.9578q1.6575-1.7357-0.078213-3.3932l-5.5995-5.3472q-1.7357-1.6575-3.3932 0.078212l-3.7794 3.9578q-1.6575 1.7357 0.078212 3.3932l5.5995 5.3472q1.7357 1.6575 3.3932-0.078212z" clip-path="url(#a)" fill="#fff" stroke="#fff"/>
<g clip-path="url(#a)">
<g transform="translate(712.74 324.29) rotate(-46.32) scale(.08 -.08)">
<use xlink:href="#o"/>
</g>
</g>
<path d="m783.27 355.08 2.7435 3.9676q1.365 1.974 3.339 0.60902l6.3683-4.4036q1.974-1.365 0.60902-3.339l-2.7435-3.9676q-1.365-1.974-3.339-0.60902l-6.3683 4.4036q-1.974 1.365-0.60902 3.339z" clip-path="url(#a)" fill="#fff" stroke="#fff"/>
<g clip-path="url(#a)">
<g transform="translate(786.61 352.77) rotate(55.337) scale(.08 -.08)">
<use xlink:href="#q"/>
</g>
</g>
<path d="m825.56 356.75 4.6795 3.519q1.9182 1.4425 3.3606-0.47569l4.6534-6.188q1.4425-1.9182-0.47569-3.3606l-4.6795-3.519q-1.9182-1.4425-3.3606 0.47569l-4.6534 6.188q-1.4425 1.9182 0.47569 3.3606z" clip-path="url(#a)" fill="#fff" stroke="#fff"/>
<g clip-path="url(#a)">
<g transform="translate(828.01 353.51) rotate(36.943) scale(.08 -.08)">
<use xlink:href="#p"/>
</g>
</g>
<path d="m535.78 434.47v33.808q0 2.4 2.4 2.4h7.7425q2.4 0 2.4-2.4v-33.808q0-2.4-2.4-2.4h-7.7425q-2.4 0-2.4 2.4z" clip-path="url(#a)" fill="#fff" stroke="#fff"/>
<g clip-path="url(#a)">
<g transform="translate(539.84 434.47) rotate(90) scale(.08 -.08)">
<use xlink:href="#k"/>
<use x="44.083984" xlink:href="#d"/>
<use x="105.607422" xlink:href="#f"/>
<use x="144.970703" xlink:href="#l"/>
<use x="242.382812" xlink:href="#h"/>
<use x="270.166016" xlink:href="#g"/>
<use x="333.544922" xlink:href="#j"/>
<use x="394.824219" xlink:href="#i"/>
</g>
</g>
<path d="m647.83 392.59 3.4175-3.0809q1.7826-1.607 0.1756-3.3896l-5.1842-5.7507q-1.607-1.7826-3.3896-0.1756l-3.4175 3.0809q-1.7826 1.607-0.1756 3.3896l5.1842 5.7507q1.607 1.7826 3.3896 0.1756z" clip-path="url(#a)" fill="#fff" stroke="#fff"/>
<g clip-path="url(#a)">
<defs>
<path id="y" d="m9.8125 72.906h41.891v-8.3125h-32.031v-21.484h28.906v-8.2969h-28.906v-34.812h-9.8594z"/>
</defs>
<g transform="translate(645.11 389.57) rotate(-42.034) scale(.08 -.08)">
<use xlink:href="#y"/>
</g>
</g>
<path d="m687.15 389.05 0.10781-5.0538q0.051186-2.3995-2.3483-2.4506l-7.7407-0.16513q-2.3995-0.051185-2.4506 2.3483l-0.10781 5.0538q-0.051186 2.3995 2.3483 2.4506l7.7407 0.16513q2.3995 0.051185 2.4506-2.3483z" clip-path="url(#a)" fill="#fff" stroke="#fff"/>
<g clip-path="url(#a)">
<defs>
<path id="af" d="m9.8125 72.906h46.094v-8.3125h-36.234v-21.578h34.719v-8.2969h-34.719v-26.422h37.109v-8.2969h-46.969z"/>
</defs>
<g transform="translate(683.08 388.96) rotate(-88.778) scale(.08 -.08)">
<use xlink:href="#af"/>
</g>
</g>
<path d="m712.37 389.24 4.1844 3.701q1.7977 1.59 3.3878-0.20767l5.1295-5.7995q1.59-1.7977-0.20767-3.3878l-4.1844-3.701q-1.7977-1.59-3.3878 0.20767l-5.1295 5.7995q-1.59 1.7977 0.20767 3.3878z" clip-path="url(#a)" fill="#fff" stroke="#fff"/>
<g clip-path="url(#a)">
<defs>
<path id="t" d="m64.406 67.281v-10.391q-4.9844 4.6406-10.625 6.9219-5.6406 2.2969-11.984 2.2969-12.5 0-19.141-7.6406t-6.6406-22.094q0-14.406 6.6406-22.047t19.141-7.6406q6.3438 0 11.984 2.2969t10.625 6.9375v-10.312q-5.1719-3.5156-10.969-5.2812-5.7812-1.75-12.219-1.75-16.562 0-26.094 10.125-9.5156 10.141-9.5156 27.672 0 17.578 9.5156 27.703 9.5312 10.141 26.094 10.141 6.5312 0 12.312-1.7344 5.7969-1.7344 10.875-5.2031z"/>
</defs>
<g transform="translate(715.06 386.19) rotate(41.492) scale(.08 -.08)">
<use xlink:href="#t"/>
</g>
</g>
<path d="m828.89 434.47v33.808q0 2.4 2.4 2.4h7.7425q2.4 0 2.4-2.4v-33.808q0-2.4-2.4-2.4h-7.7425q-2.4 0-2.4 2.4z" clip-path="url(#a)" fill="#fff" stroke="#fff"/>
<g clip-path="url(#a)">
<g transform="translate(832.96 434.47) rotate(90) scale(.08 -.08)">
<use xlink:href="#k"/>
<use x="44.083984" xlink:href="#d"/>
<use x="105.607422" xlink:href="#f"/>
<use x="144.970703" xlink:href="#l"/>
<use x="242.382812" xlink:href="#h"/>
<use x="270.166016" xlink:href="#g"/>
<use x="333.544922" xlink:href="#j"/>
<use x="394.824219" xlink:href="#i"/>
</g>
</g>
<path d="m602.78 434.47v33.808q0 2.4 2.4 2.4h7.7425q2.4 0 2.4-2.4v-33.808q0-2.4-2.4-2.4h-7.7425q-2.4 0-2.4 2.4z" clip-path="url(#a)" fill="#fff" stroke="#fff"/>
<g clip-path="url(#a)">
<g transform="translate(606.84 434.47) rotate(90) scale(.08 -.08)">
<use xlink:href="#k"/>
<use x="44.083984" xlink:href="#d"/>
<use x="105.607422" xlink:href="#f"/>
<use x="144.970703" xlink:href="#l"/>
<use x="242.382812" xlink:href="#h"/>
<use x="270.166016" xlink:href="#g"/>
<use x="333.544922" xlink:href="#j"/>
<use x="394.824219" xlink:href="#i"/>
</g>
</g>
<path d="m673.96 434.47v33.808q0 2.4 2.4 2.4h7.7425q2.4 0 2.4-2.4v-33.808q0-2.4-2.4-2.4h-7.7425q-2.4 0-2.4 2.4z" clip-path="url(#a)" fill="#fff" stroke="#fff"/>
<g clip-path="url(#a)">
<g transform="translate(678.02 434.47) rotate(90) scale(.08 -.08)">
<use xlink:href="#k"/>
<use x="44.083984" xlink:href="#d"/>
<use x="105.607422" xlink:href="#f"/>
<use x="144.970703" xlink:href="#l"/>
<use x="242.382812" xlink:href="#h"/>
<use x="270.166016" xlink:href="#g"/>
<use x="333.544922" xlink:href="#j"/>
<use x="394.824219" xlink:href="#i"/>
</g>
</g>
<path d="m749.33 434.47v33.808q0 2.4 2.4 2.4h7.7425q2.4 0 2.4-2.4v-33.808q0-2.4-2.4-2.4h-7.7425q-2.4 0-2.4 2.4z" clip-path="url(#a)" fill="#fff" stroke="#fff"/>
<g clip-path="url(#a)">
<g transform="translate(753.4 434.47) rotate(90) scale(.08 -.08)">
<use xlink:href="#k"/>
<use x="44.083984" xlink:href="#d"/>
<use x="105.607422" xlink:href="#f"/>
<use x="144.970703" xlink:href="#l"/>
<use x="242.382812" xlink:href="#h"/>
<use x="270.166016" xlink:href="#g"/>
<use x="333.544922" xlink:href="#j"/>
<use x="394.824219" xlink:href="#i"/>
</g>
</g>
<path d="m70.457 258.6 0.8813-5.9514q0.35157-2.3741-2.0225-2.7257l-7.659-1.1342q-2.3741-0.35157-2.7257 2.0225l-0.8813 5.9514q-0.35157 2.3741 2.0225 2.7257l7.659 1.1342q2.3741 0.35157 2.7257-2.0225z" clip-path="url(#a)" fill="#fff" stroke="#fff"/>
<g clip-path="url(#a)">
<g transform="translate(66.437 258) rotate(-81.577) scale(.08 -.08)">
<use xlink:href="#s"/>
</g>
</g>
<path d="m88.097 188.79 2.5798 5.4351q1.0291 2.1682 3.1973 1.139l6.9946-3.32q2.1682-1.0291 1.139-3.1973l-2.5798-5.4351q-1.0291-2.1682-3.1973-1.139l-6.9946 3.32q-2.1682 1.0291-1.139 3.1973z" clip-path="url(#a)" fill="#fff" stroke="#fff"/>
<g clip-path="url(#a)">
<g transform="translate(91.768 187.05) rotate(64.609) scale(.08 -.08)">
<use xlink:href="#s"/>
</g>
</g>
<path d="m84.551 290.4 0.046544-5.8548q0.019078-2.3999-2.3808-2.419l-7.7423-0.061548q-2.3999-0.019079-2.419 2.3808l-0.046543 5.8548q-0.019079 2.3999 2.3808 2.419l7.7423 0.061548q2.3999 0.019078 2.419-2.3808z" clip-path="url(#a)" fill="#fff" stroke="#fff"/>
<g clip-path="url(#a)">
<g transform="translate(80.487 290.37) rotate(-89.545) scale(.08 -.08)">
<use xlink:href="#p"/>
</g>
</g>
<path d="m288.87 468.67 20.219-27.095q1.4353-1.9235-0.48819-3.3588l-6.2053-4.6304q-1.9235-1.4353-3.3588 0.48819l-20.219 27.095q-1.4353 1.9235 0.48819 3.3588l6.2053 4.6304q1.9235 1.4353 3.3588-0.48819z" clip-path="url(#a)" fill="#fff" stroke="#fff"/>
<g clip-path="url(#a)">
<g transform="translate(285.61 466.24) rotate(-53.27) scale(.08 -.08)">
<use xlink:href="#k"/>
<use x="44.083984" xlink:href="#d"/>
<use x="105.607422" xlink:href="#f"/>
<use x="144.970703" xlink:href="#l"/>
<use x="242.382812" xlink:href="#h"/>
<use x="270.166016" xlink:href="#g"/>
<use x="333.544922" xlink:href="#j"/>
<use x="394.824219" xlink:href="#i"/>
</g>
</g>
<path d="m326.97 441.57 20.219 27.095q1.4353 1.9235 3.3588 0.48819l6.2053-4.6304q1.9235-1.4353 0.48819-3.3588l-20.219-27.095q-1.4353-1.9235-3.3588-0.48819l-6.2053 4.6304q-1.9235 1.4353-0.48819 3.3588z" clip-path="url(#a)" fill="#fff" stroke="#fff"/>
<g clip-path="url(#a)">
<g transform="translate(330.23 439.14) rotate(53.27) scale(.08 -.08)">
<use xlink:href="#k"/>
<use x="44.083984" xlink:href="#d"/>
<use x="105.607422" xlink:href="#f"/>
<use x="144.970703" xlink:href="#l"/>
<use x="242.382812" xlink:href="#h"/>
<use x="270.166016" xlink:href="#g"/>
<use x="333.544922" xlink:href="#j"/>
<use x="394.824219" xlink:href="#i"/>
</g>
</g>
<path d="m309.66 434.47v33.808q0 2.4 2.4 2.4h7.7425q2.4 0 2.4-2.4v-33.808q0-2.4-2.4-2.4h-7.7425q-2.4 0-2.4 2.4z" clip-path="url(#a)" fill="#fff" stroke="#fff"/>
<g clip-path="url(#a)">
<g transform="translate(313.73 434.47) rotate(90) scale(.08 -.08)">
<use xlink:href="#k"/>
<use x="44.083984" xlink:href="#d"/>
<use x="105.607422" xlink:href="#f"/>
<use x="144.970703" xlink:href="#l"/>
<use x="242.382812" xlink:href="#h"/>
<use x="270.166016" xlink:href="#g"/>
<use x="333.544922" xlink:href="#j"/>
<use x="394.824219" xlink:href="#i"/>
</g>
</g>
<path d="m48.648 384.68 0.86456 5.4038q0.37916 2.3699 2.749 1.9907l7.6453-1.2232q2.3699-0.37916 1.9907-2.749l-0.86456-5.4038q-0.37916-2.3699-2.749-1.9907l-7.6453 1.2232q-2.3699 0.37916-1.9907 2.749z" clip-path="url(#a)" fill="#fff" stroke="#fff"/>
<g clip-path="url(#a)">
<g transform="translate(52.661 384.04) rotate(80.91) scale(.08 -.08)">
<use xlink:href="#o"/>
</g>
</g>
<path d="m52.91 389.39 0.46094-4.8017q0.22933-2.389-2.1597-2.6184l-7.7071-0.73984q-2.389-0.22933-2.6184 2.1597l-0.46094 4.8017q-0.22933 2.389 2.1597 2.6184l7.7071 0.73984q2.389 0.22933 2.6184-2.1597z" clip-path="url(#a)" fill="#fff" stroke="#fff"/>
<g clip-path="url(#a)">
<g transform="translate(48.865 389) rotate(-84.517) scale(.08 -.08)">
<use xlink:href="#q"/>
</g>
</g>
<path d="m46.675 384.26 0.52293 5.4475q0.22933 2.389 2.6184 2.1597l7.7071-0.73984q2.389-0.22933 2.1597-2.6184l-0.52293-5.4475q-0.22933-2.389-2.6184-2.1597l-7.7071 0.73984q-2.389 0.22933-2.1597 2.6184z" clip-path="url(#a)" fill="#fff" stroke="#fff"/>
<g clip-path="url(#a)">
<g transform="translate(50.72 383.88) rotate(84.517) scale(.08 -.08)">
<use xlink:href="#o"/>
</g>
</g>
<path d="m112.43 253.98 1.2493 4.9227q0.59037 2.3263 2.9166 1.7359l7.5046-1.9046q2.3263-0.59037 1.7359-2.9166l-1.2493-4.9227q-0.59037-2.3263-2.9166-1.7359l-7.5046 1.9046q-2.3263 0.59037-1.7359 2.9166z" clip-path="url(#a)" fill="#fff" stroke="#fff"/>
<g clip-path="url(#a)">
<defs>
<path id="w" d="m53.516 70.516v-9.625q-5.6094 2.6875-10.594 4-4.9844 1.3281-9.625 1.3281-8.0469 0-12.422-3.125t-4.375-8.8906q0-4.8438 2.9062-7.3125 2.9062-2.4531 11.016-3.9688l5.9531-1.2188q11.031-2.1094 16.281-7.4062t5.25-14.172q0-10.609-7.1094-16.078-7.0938-5.4688-20.812-5.4688-5.1719 0-11.016 1.1719-5.8281 1.1719-12.078 3.4688v10.156q6-3.3594 11.766-5.0781 5.7656-1.7031 11.328-1.7031 8.4375 0 13.031 3.3125 4.5938 3.3281 4.5938 9.4844 0 5.3594-3.2969 8.3906t-10.812 4.5469l-6.0156 1.1719q-11.031 2.1875-15.969 6.875-4.9219 4.6875-4.9219 13.047 0 9.6719 6.8125 15.234t18.766 5.5625q5.1406 0 10.453-0.9375 5.3281-0.92188 10.891-2.7656z"/>
</defs>
<g transform="translate(116.37 252.98) rotate(75.76) scale(.08 -.08)">
<use xlink:href="#w"/>
</g>
</g>
<path d="m104.48 252.16v5.4725q0 2.4 2.4 2.4h7.7425q2.4 0 2.4-2.4v-5.4725q0-2.4-2.4-2.4h-7.7425q-2.4 0-2.4 2.4z" clip-path="url(#a)" fill="#fff" stroke="#fff"/>
<g clip-path="url(#a)">
<g transform="translate(108.55 252.16) rotate(90) scale(.08 -.08)">
<use xlink:href="#o"/>
</g>
</g>
<path d="m110.5 356.39 0.43854-4.5803q0.22874-2.3891-2.1603-2.6178l-7.7073-0.73792q-2.3891-0.22874-2.6178 2.1603l-0.43854 4.5803q-0.22874 2.3891 2.1603 2.6178l7.7073 0.73792q2.3891 0.22874 2.6178-2.1603z" clip-path="url(#a)" fill="#fff" stroke="#fff"/>
<g clip-path="url(#a)">
<g transform="translate(106.45 356) rotate(-84.531) scale(.08 -.08)">
<use xlink:href="#y"/>
</g>
</g>
<path d="m110.35 319.22 1.048 5.4871q0.45023 2.3574 2.8076 1.9072l7.605-1.4525q2.3574-0.45023 1.9072-2.8076l-1.048-5.4871q-0.45023-2.3574-2.8076-1.9072l-7.605 1.4525q-2.3574 0.45023-1.9072 2.8076z" clip-path="url(#a)" fill="#fff" stroke="#fff"/>
<g clip-path="url(#a)">
<g transform="translate(114.34 318.46) rotate(79.187) scale(.08 -.08)">
<use xlink:href="#t"/>
</g>
</g>
<path d="m91.922 434.47v33.808q0 2.4 2.4 2.4h7.7425q2.4 0 2.4-2.4v-33.808q0-2.4-2.4-2.4h-7.7425q-2.4 0-2.4 2.4z" clip-path="url(#a)" fill="#fff" stroke="#fff"/>
<g clip-path="url(#a)">
<g transform="translate(95.985 434.47) rotate(90) scale(.08 -.08)">
<use xlink:href="#k"/>
<use x="44.083984" xlink:href="#d"/>
<use x="105.607422" xlink:href="#f"/>
<use x="144.970703" xlink:href="#l"/>
<use x="242.382812" xlink:href="#h"/>
<use x="270.166016" xlink:href="#g"/>
<use x="333.544922" xlink:href="#j"/>
<use x="394.824219" xlink:href="#i"/>
</g>
</g>
<path d="m116.92 379.77v13.246q0 2.4 2.4 2.4h8q2.4 0 2.4-2.4v-13.246q0-2.4-2.4-2.4h-8q-2.4 0-2.4 2.4z" clip-path="url(#a)" fill="#fff" stroke="#fff"/>
<g clip-path="url(#a)">
<defs>
<path id="aq" d="m21 76.422v-100h-8.2969v100z"/>
</defs>
<g transform="translate(121.2 379.77) rotate(90) scale(.08 -.08)">
<use xlink:href="#w"/>
<use x="63.476562" xlink:href="#aq"/>
<use x="97.167969" xlink:href="#o"/>
</g>
</g>
<path d="m117.05 434.47v33.808q0 2.4 2.4 2.4h7.7425q2.4 0 2.4-2.4v-33.808q0-2.4-2.4-2.4h-7.7425q-2.4 0-2.4 2.4z" clip-path="url(#a)" fill="#fff" stroke="#fff"/>
<g clip-path="url(#a)">
<g transform="translate(121.11 434.47) rotate(90) scale(.08 -.08)">
<use xlink:href="#k"/>
<use x="44.083984" xlink:href="#d"/>
<use x="105.607422" xlink:href="#f"/>
<use x="144.970703" xlink:href="#l"/>
<use x="242.382812" xlink:href="#h"/>
<use x="270.166016" xlink:href="#g"/>
<use x="333.544922" xlink:href="#j"/>
<use x="394.824219" xlink:href="#i"/>
</g>
</g>
<path d="m37.486 434.47v33.808q0 2.4 2.4 2.4h7.7425q2.4 0 2.4-2.4v-33.808q0-2.4-2.4-2.4h-7.7425q-2.4 0-2.4 2.4z" clip-path="url(#a)" fill="#fff" stroke="#fff"/>
<g clip-path="url(#a)">
<g transform="translate(41.55 434.47) rotate(90) scale(.08 -.08)">
<use xlink:href="#k"/>
<use x="44.083984" xlink:href="#d"/>
<use x="105.607422" xlink:href="#f"/>
<use x="144.970703" xlink:href="#l"/>
<use x="242.382812" xlink:href="#h"/>
<use x="270.166016" xlink:href="#g"/>
<use x="333.544922" xlink:href="#j"/>
<use x="394.824219" xlink:href="#i"/>
</g>
</g>
<path d="m50.048 434.47v33.808q0 2.4 2.4 2.4h7.7425q2.4 0 2.4-2.4v-33.808q0-2.4-2.4-2.4h-7.7425q-2.4 0-2.4 2.4z" clip-path="url(#a)" fill="#fff" stroke="#fff"/>
<g clip-path="url(#a)">
<g transform="translate(54.112 434.47) rotate(90) scale(.08 -.08)">
<use xlink:href="#k"/>
<use x="44.083984" xlink:href="#d"/>
<use x="105.607422" xlink:href="#f"/>
<use x="144.970703" xlink:href="#l"/>
<use x="242.382812" xlink:href="#h"/>
<use x="270.166016" xlink:href="#g"/>
<use x="333.544922" xlink:href="#j"/>
<use x="394.824219" xlink:href="#i"/>
</g>
</g>
<path d="m70.985 434.47v33.808q0 2.4 2.4 2.4h7.7425q2.4 0 2.4-2.4v-33.808q0-2.4-2.4-2.4h-7.7425q-2.4 0-2.4 2.4z" clip-path="url(#a)" fill="#fff" stroke="#fff"/>
<g clip-path="url(#a)">
<g transform="translate(75.049 434.47) rotate(90) scale(.08 -.08)">
<use xlink:href="#k"/>
<use x="44.083984" xlink:href="#d"/>
<use x="105.607422" xlink:href="#f"/>
<use x="144.970703" xlink:href="#l"/>
<use x="242.382812" xlink:href="#h"/>
<use x="270.166016" xlink:href="#g"/>
<use x="333.544922" xlink:href="#j"/>
<use x="394.824219" xlink:href="#i"/>
</g>
</g>
<path d="m150.54 434.47v33.808q0 2.4 2.4 2.4h7.7425q2.4 0 2.4-2.4v-33.808q0-2.4-2.4-2.4h-7.7425q-2.4 0-2.4 2.4z" clip-path="url(#a)" fill="#fff" stroke="#fff"/>
<g clip-path="url(#a)">
<g transform="translate(154.61 434.47) rotate(90) scale(.08 -.08)">
<use xlink:href="#k"/>
<use x="44.083984" xlink:href="#d"/>
<use x="105.607422" xlink:href="#f"/>
<use x="144.970703" xlink:href="#l"/>
<use x="242.382812" xlink:href="#h"/>
<use x="270.166016" xlink:href="#g"/>
<use x="333.544922" xlink:href="#j"/>
<use x="394.824219" xlink:href="#i"/>
</g>
</g>
<path d="m184.04 434.47v33.808q0 2.4 2.4 2.4h7.7425q2.4 0 2.4-2.4v-33.808q0-2.4-2.4-2.4h-7.7425q-2.4 0-2.4 2.4z" clip-path="url(#a)" fill="#fff" stroke="#fff"/>
<g clip-path="url(#a)">
<g transform="translate(188.11 434.47) rotate(90) scale(.08 -.08)">
<use xlink:href="#k"/>
<use x="44.083984" xlink:href="#d"/>
<use x="105.607422" xlink:href="#f"/>
<use x="144.970703" xlink:href="#l"/>
<use x="242.382812" xlink:href="#h"/>
<use x="270.166016" xlink:href="#g"/>
<use x="333.544922" xlink:href="#j"/>
<use x="394.824219" xlink:href="#i"/>
</g>
</g>
<path d="m221.73 434.47v33.808q0 2.4 2.4 2.4h7.7425q2.4 0 2.4-2.4v-33.808q0-2.4-2.4-2.4h-7.7425q-2.4 0-2.4 2.4z" clip-path="url(#a)" fill="#fff" stroke="#fff"/>
<g clip-path="url(#a)">
<g transform="translate(225.79 434.47) rotate(90) scale(.08 -.08)">
<use xlink:href="#k"/>
<use x="44.083984" xlink:href="#d"/>
<use x="105.607422" xlink:href="#f"/>
<use x="144.970703" xlink:href="#l"/>
<use x="242.382812" xlink:href="#h"/>
<use x="270.166016" xlink:href="#g"/>
<use x="333.544922" xlink:href="#j"/>
<use x="394.824219" xlink:href="#i"/>
</g>
</g>
<path d="m414.35 434.47v33.808q0 2.4 2.4 2.4h7.7425q2.4 0 2.4-2.4v-33.808q0-2.4-2.4-2.4h-7.7425q-2.4 0-2.4 2.4z" clip-path="url(#a)" fill="#fff" stroke="#fff"/>
<g clip-path="url(#a)">
<g transform="translate(418.41 434.47) rotate(90) scale(.08 -.08)">
<use xlink:href="#k"/>
<use x="44.083984" xlink:href="#d"/>
<use x="105.607422" xlink:href="#f"/>
<use x="144.970703" xlink:href="#l"/>
<use x="242.382812" xlink:href="#h"/>
<use x="270.166016" xlink:href="#g"/>
<use x="333.544922" xlink:href="#j"/>
<use x="394.824219" xlink:href="#i"/>
</g>
</g>
<path d="m912.64 434.47v33.808q0 2.4 2.4 2.4h7.7425q2.4 0 2.4-2.4v-33.808q0-2.4-2.4-2.4h-7.7425q-2.4 0-2.4 2.4z" clip-path="url(#a)" fill="#fff" stroke="#fff"/>
<g clip-path="url(#a)">
<g transform="translate(916.7 434.47) rotate(90) scale(.08 -.08)">
<use xlink:href="#k"/>
<use x="44.083984" xlink:href="#d"/>
<use x="105.607422" xlink:href="#f"/>
<use x="144.970703" xlink:href="#l"/>
<use x="242.382812" xlink:href="#h"/>
<use x="270.166016" xlink:href="#g"/>
<use x="333.544922" xlink:href="#j"/>
<use x="394.824219" xlink:href="#i"/>
</g>
</g>
<defs>
<path id="b" d="m0 8.6603c2.2967 0 4.4997-0.9125 6.1237-2.5365 1.624-1.624 2.5365-3.827 2.5365-6.1237s-0.9125-4.4997-2.5365-6.1237c-1.624-1.624-3.827-2.5365-6.1237-2.5365s-4.4997 0.9125-6.1237 2.5365c-1.624 1.624-2.5365 3.827-2.5365 6.1237s0.9125 4.4997 2.5365 6.1237c1.624 1.624 3.827 2.5365 6.1237 2.5365z"/>
</defs>
<g clip-path="url(#a)" fill="#ffffff" stroke="#ffffff">
<use x="43.757576" y="483.636364" xlink:href="#b"/>
<use x="56.319559" y="483.636364" xlink:href="#b"/>
<use x="77.256198" y="483.636364" xlink:href="#b"/>
<use x="98.192837" y="483.636364" xlink:href="#b"/>
<use x="123.316804" y="483.636364" xlink:href="#b"/>
<use x="156.815427" y="483.636364" xlink:href="#b"/>
<use x="190.31405" y="483.636364" xlink:href="#b"/>
<use x="228" y="483.636364" xlink:href="#b"/>
<use x="269.873278" y="483.636364" xlink:href="#b"/>
<use x="315.933884" y="483.636364" xlink:href="#b"/>
<use x="366.181818" y="483.636364" xlink:href="#b"/>
<use x="420.61708" y="483.636364" xlink:href="#b"/>
<use x="479.239669" y="483.636364" xlink:href="#b"/>
<use x="542.049587" y="483.636364" xlink:href="#b"/>
<use x="609.046832" y="483.636364" xlink:href="#b"/>
<use x="680.231405" y="483.636364" xlink:href="#b"/>
<use x="755.603306" y="483.636364" xlink:href="#b"/>
<use x="835.162534" y="483.636364" xlink:href="#b"/>
<use x="918.909091" y="483.636364" xlink:href="#b"/>
<use x="127.504132" y="287.899288" xlink:href="#b"/>
<use x="60.506887" y="419.103546" xlink:href="#b"/>
<use x="464.758494" y="23.030303" xlink:href="#b"/>
<use x="214.740129" y="89.439295" xlink:href="#b"/>
<use x="479.239669" y="419.103546" xlink:href="#b"/>
<use x="744.437098" y="287.899288" xlink:href="#b"/>
<use x="542.049587" y="419.103546" xlink:href="#b"/>
<use x="681.627181" y="353.673006" xlink:href="#b"/>
<use x="835.162534" y="419.103546" xlink:href="#b"/>
<use x="609.046832" y="419.103546" xlink:href="#b"/>
<use x="680.231405" y="419.103546" xlink:href="#b"/>
<use x="755.603306" y="419.103546" xlink:href="#b"/>
<use x="79.349862" y="155.737183" xlink:href="#b"/>
<use x="318.027548" y="419.103546" xlink:href="#b"/>
<use x="315.933884" y="419.103546" xlink:href="#b"/>
<use x="50.038567" y="353.673006" xlink:href="#b"/>
<use x="110.754821" y="221.901715" xlink:href="#b"/>
<use x="110.754821" y="287.899288" xlink:href="#b"/>
<use x="98.192837" y="419.103546" xlink:href="#b"/>
<use x="123.316804" y="353.673006" xlink:href="#b"/>
<use x="123.316804" y="419.103546" xlink:href="#b"/>
<use x="43.757576" y="419.103546" xlink:href="#b"/>
<use x="56.319559" y="419.103546" xlink:href="#b"/>
<use x="77.256198" y="419.103546" xlink:href="#b"/>
<use x="156.815427" y="419.103546" xlink:href="#b"/>
<use x="190.31405" y="419.103546" xlink:href="#b"/>
<use x="228" y="419.103546" xlink:href="#b"/>
<use x="420.61708" y="419.103546" xlink:href="#b"/>
<use x="918.909091" y="419.103546" xlink:href="#b"/>
</g>
<g clip-path="url(#a)">
<defs>
<path id="ad" d="m54.891 33.016v-33.016h-8.9844v32.719q0 7.7656-3.0312 11.609-3.0312 3.8594-9.0781 3.8594-7.2812 0-11.484-4.6406-4.2031-4.625-4.2031-12.641v-30.906h-9.0312v75.984h9.0312v-29.797q3.2344 4.9375 7.5938 7.375 4.375 2.4375 10.094 2.4375 9.4219 0 14.25-5.8281 4.8438-5.8281 4.8438-17.156z"/>
</defs>
<g transform="translate(32.949 486.4) scale(.1 -.1)">
<use xlink:href="#w"/>
<use x="63.476562" xlink:href="#h"/>
<use x="91.259766" xlink:href="#d"/>
<use x="152.783203" xlink:href="#ad"/>
</g>
</g>
<g clip-path="url(#a)">
<defs>
<path id="al" d="m45.406 46.391v29.594h8.9844v-75.984h-8.9844v8.2031q-2.8281-4.875-7.1562-7.25-4.3125-2.375-10.375-2.375-9.9062 0-16.141 7.9062-6.2188 7.9219-6.2188 20.812t6.2188 20.797q6.2344 7.9062 16.141 7.9062 6.0625 0 10.375-2.375 4.3281-2.3594 7.1562-7.2344zm-30.609-19.094q0-9.9062 4.0781-15.547t11.203-5.6406 11.219 5.6406q4.1094 5.6406 4.1094 15.547t-4.1094 15.547q-4.0938 5.6406-11.219 5.6406t-11.203-5.6406-4.0781-15.547z"/>
</defs>
<g transform="translate(50.081 486.4) scale(.1 -.1)">
<use xlink:href="#al"/>
<use x="63.476562" xlink:href="#j"/>
</g>
</g>
<g clip-path="url(#a)">
<defs>
<path id="ai" d="m15.094 12.406h9.9062v-12.406h-9.9062zm0 60.5h9.9062v-31.984l-0.96875-17.438h-7.9219l-1.0156 17.438z"/>
</defs>
<g transform="translate(75.252 486.4) scale(.1 -.1)">
<use xlink:href="#ai"/>
</g>
</g>
<g clip-path="url(#a)">
<g transform="translate(90.476 486.4) scale(.1 -.1)">
<use xlink:href="#af"/>
<use x="63.183594" xlink:href="#h"/>
<use x="90.966797" xlink:href="#g"/>
</g>
</g>
<g clip-path="url(#a)">
<defs>
<path id="at" d="m30.609 48.391q-7.2188 0-11.422-5.6406t-4.2031-15.453 4.1719-15.453q4.1875-5.6406 11.453-5.6406 7.1875 0 11.375 5.6562 4.2031 5.6719 4.2031 15.438 0 9.7188-4.2031 15.406-4.1875 5.6875-11.375 5.6875zm0 7.6094q11.719 0 18.406-7.625 6.7031-7.6094 6.7031-21.078 0-13.422-6.7031-21.078-6.6875-7.6406-18.406-7.6406-11.766 0-18.438 7.6406-6.6562 7.6562-6.6562 21.078 0 13.469 6.6562 21.078 6.6719 7.625 18.438 7.625z"/>
<path id="ac" d="m44.281 53.078v-8.5q-3.7969 1.9531-7.9062 2.9219-4.0938 0.98438-8.5 0.98438-6.6875 0-10.031-2.0469t-3.3438-6.1562q0-3.125 2.3906-4.9062t9.625-3.3906l3.0781-0.6875q9.5625-2.0469 13.594-5.7812t4.0312-10.422q0-7.625-6.0312-12.078-6.0312-4.4375-16.578-4.4375-4.3906 0-9.1562 0.85938t-10.031 2.5625v9.2812q4.9844-2.5938 9.8125-3.8906 4.8281-1.2812 9.5781-1.2812 6.3438 0 9.75 2.1719 3.4219 2.1719 3.4219 6.125 0 3.6562-2.4688 5.6094-2.4531 1.9531-10.812 3.7656l-3.125 0.73438q-8.3438 1.75-12.062 5.3906-3.7031 3.6406-3.7031 9.9844 0 7.7188 5.4688 11.906 5.4688 4.2031 15.531 4.2031 4.9688 0 9.3594-0.73438 4.4062-0.71875 8.1094-2.1875z"/>
<path id="v" d="m48.781 52.594v-8.4062q-3.8125 2.1094-7.6406 3.1562t-7.7344 1.0469q-8.75 0-13.594-5.5469-4.8281-5.5312-4.8281-15.547t4.8281-15.562q4.8438-5.5312 13.594-5.5312 3.9062 0 7.7344 1.0469t7.6406 3.1562v-8.3125q-3.7656-1.75-7.7969-2.625-4.0156-0.89062-8.5625-0.89062-12.359 0-19.641 7.7656-7.2656 7.7656-7.2656 20.953 0 13.375 7.3438 21.031 7.3594 7.6719 20.156 7.6719 4.1406 0 8.0938-0.85938 3.9531-0.84375 7.6719-2.5469z"/>
</defs>
<g transform="translate(101.85 486.4) scale(.1 -.1)">
<use xlink:href="#y"/>
<use x="53.894531" xlink:href="#at"/>
<use x="115.076172" xlink:href="#f"/>
<use x="156.189453" xlink:href="#ac"/>
<use x="208.289062" xlink:href="#v"/>
<use x="263.269531" xlink:href="#ad"/>
<use x="326.648438" xlink:href="#d"/>
<use x="388.171875" xlink:href="#f"/>
</g>
</g>
<g clip-path="url(#a)">
<g transform="translate(154.81 486.4) scale(.1 -.1)">
<use xlink:href="#ai"/>
</g>
</g>
<g clip-path="url(#a)">
<defs>
<path id="ap" d="m17.922 72.906v-27.109h-8.2969v27.109zm18.453 0v-27.109h-8.2969v27.109z"/>
</defs>
<g transform="translate(188.01 486.4) scale(.1 -.1)">
<use xlink:href="#ap"/>
</g>
</g>
<g clip-path="url(#a)">
<defs>
<path id="ah" d="m11.719 12.406h10.297v-8.4062l-8-15.625h-6.2969l4 15.625z"/>
</defs>
<g transform="translate(226.41 486.4) scale(.1 -.1)">
<use xlink:href="#ah"/>
</g>
</g>
<g clip-path="url(#a)">
<defs>
<path id="au" d="m37.109 75.984v-7.4844h-8.5938q-4.8281 0-6.7188-1.9531-1.875-1.9531-1.875-7.0312v-4.8281h14.797v-6.9844h-14.797v-47.703h-9.0312v47.703h-8.5938v6.9844h8.5938v3.8125q0 9.125 4.25 13.297 4.25 4.1875 13.469 4.1875z"/>
<path id="as" d="m8.5 21.578v33.109h8.9844v-32.766q0-7.7656 3.0156-11.656 3.0312-3.875 9.0938-3.875 7.2656 0 11.484 4.6406 4.2344 4.6406 4.2344 12.656v31h8.9844v-54.688h-8.9844v8.4062q-3.2656-4.9844-7.5938-7.4062-4.3125-2.4219-10.031-2.4219-9.4219 0-14.312 5.8594-4.875 5.8594-4.875 17.141z"/>
<path id="aj" d="m18.312 70.219v-15.531h18.5v-6.9844h-18.5v-29.688q0-6.6875 1.8281-8.5938t7.4531-1.9062h9.2188v-7.5156h-9.2188q-10.406 0-14.359 3.875-3.9531 3.8906-3.9531 14.141v29.688h-6.5938v6.9844h6.5938v15.531z"/>
</defs>
<g transform="translate(254.89 486.4) scale(.1 -.1)">
<use xlink:href="#au"/>
<use x="35.205078" xlink:href="#f"/>
<use x="74.068359" xlink:href="#d"/>
<use x="135.591797" xlink:href="#as"/>
<use x="198.970703" xlink:href="#aj"/>
<use x="238.179688" xlink:href="#d"/>
</g>
</g>
<g clip-path="url(#a)">
<g transform="translate(310.8 486.4) scale(.1 -.1)">
<use xlink:href="#d"/>
<use x="61.523438" xlink:href="#f"/>
</g>
</g>
<g clip-path="url(#a)">
<g transform="translate(356.27 486.4) scale(.1 -.1)">
<use xlink:href="#ac"/>
<use x="52.099609" xlink:href="#h"/>
<use x="79.882812" xlink:href="#v"/>
<use x="134.863281" xlink:href="#ad"/>
</g>
</g>
<g clip-path="url(#a)">
<g transform="translate(419.03 486.4) scale(.1 -.1)">
<use xlink:href="#ah"/>
</g>
</g>
<g clip-path="url(#a)">
<g transform="translate(472.18 486.4) scale(.1 -.1)">
<use xlink:href="#j"/>
<use x="61.279297" xlink:href="#i"/>
<use x="89.0625" xlink:href="#ac"/>
</g>
</g>
<g clip-path="url(#a)">
<g transform="translate(536.92 486.4) scale(.1 -.1)">
<use xlink:href="#d"/>
<use x="61.523438" xlink:href="#f"/>
</g>
</g>
<g clip-path="url(#a)">
<g transform="translate(599.63 486.4) scale(.1 -.1)">
<use xlink:href="#al"/>
<use x="63.476562" xlink:href="#d"/>
<use x="125" xlink:href="#g"/>
</g>
</g>
<g clip-path="url(#a)">
<defs>
<path id="ak" d="m9.0781 75.984h9.0312v-44.875l26.812 23.578h11.469l-29-25.578 30.234-29.109h-11.719l-27.797 26.703v-26.703h-9.0312z"/>
</defs>
<g transform="translate(662.07 486.4) scale(.1 -.1)">
<use xlink:href="#ak"/>
<use x="57.910156" xlink:href="#i"/>
<use x="85.693359" xlink:href="#d"/>
<use x="147.216797" xlink:href="#h"/>
<use x="175" xlink:href="#g"/>
<use x="238.378906" xlink:href="#d"/>
<use x="299.902344" xlink:href="#g"/>
</g>
</g>
<g clip-path="url(#a)">
<defs>
<path id="ar" d="m5.5156 54.688h42.672v-8.2031l-33.781-39.312h33.781v-7.1719h-43.891v8.2031l33.797 39.312h-32.578z"/>
</defs>
<g transform="translate(737.19 486.4) scale(.1 -.1)">
<use xlink:href="#q"/>
<use x="58.552734" xlink:href="#f"/>
<use x="99.666016" xlink:href="#h"/>
<use x="127.449219" xlink:href="#g"/>
<use x="190.828125" xlink:href="#ar"/>
<use x="243.318359" xlink:href="#d"/>
<use x="304.841797" xlink:href="#g"/>
</g>
</g>
<g clip-path="url(#a)">
<defs>
<path id="am" d="m48.688 27.297q0 9.9062-4.0781 15.547t-11.203 5.6406q-7.1406 0-11.219-5.6406t-4.0781-15.547 4.0781-15.547 11.219-5.6406q7.125 0 11.203 5.6406t4.0781 15.547zm-30.578 19.094q2.8438 4.875 7.1562 7.2344 4.3281 2.375 10.328 2.375 9.9688 0 16.188-7.9062 6.2344-7.9062 6.2344-20.797t-6.2344-20.812q-6.2188-7.9062-16.188-7.9062-6 0-10.328 2.375-4.3125 2.375-7.1562 7.25v-8.2031h-9.0312v75.984h9.0312z"/>
</defs>
<g transform="translate(813.4 486.4) scale(.1 -.1)">
<use xlink:href="#d"/>
<use x="61.523438" xlink:href="#f"/>
<use x="102.636719" xlink:href="#am"/>
<use x="166.113281" xlink:href="#i"/>
<use x="193.896484" xlink:href="#h"/>
<use x="221.679688" xlink:href="#v"/>
<use x="276.660156" xlink:href="#ak"/>
<use x="334.570312" xlink:href="#aj"/>
<use x="373.779297" xlink:href="#d"/>
</g>
</g>
<g clip-path="url(#a)">
<defs>
<path id="e" d="m10.688 12.406h10.312v-12.406h-10.312z"/>
</defs>
<g transform="translate(917.32 486.4) scale(.1 -.1)">
<use xlink:href="#e"/>
</g>
</g>
<g clip-path="url(#a)">
<defs>
<path id="r" d="m9.8125 72.906h9.8594v-72.906h-9.8594z"/>
<path id="ae" d="m9.8125 72.906h14.703l18.594-49.609 18.703 49.609h14.703v-72.906h-9.625v64.016l-18.797-50h-9.9062l-18.797 50v-64.016h-9.5781z"/>
</defs>
<g transform="translate(106.42 290.66) scale(.1 -.1)">
<use xlink:href="#r"/>
<use x="29.492188" xlink:href="#ae"/>
<use x="115.771484" xlink:href="#q"/>
<use x="176.074219" xlink:href="#x"/>
<use x="231.787109" xlink:href="#r"/>
<use x="261.279297" xlink:href="#t"/>
<use x="331.103516" xlink:href="#r"/>
<use x="360.595703" xlink:href="#k"/>
</g>
</g>
<g clip-path="url(#a)">
<g transform="translate(39.422 421.86) scale(.1 -.1)">
<use xlink:href="#r"/>
<use x="29.492188" xlink:href="#ae"/>
<use x="115.771484" xlink:href="#q"/>
<use x="176.074219" xlink:href="#x"/>
<use x="231.787109" xlink:href="#r"/>
<use x="261.279297" xlink:href="#t"/>
<use x="331.103516" xlink:href="#r"/>
<use x="360.595703" xlink:href="#k"/>
</g>
</g>
<g clip-path="url(#a)">
<defs>
<path id="c" d="m12.406 8.2969h16.109v55.625l-17.531-3.5156v8.9844l17.438 3.5156h9.8594v-64.609h16.109v-8.2969h-41.984z"/>
</defs>
<g transform="translate(456.81 25.79) scale(.1 -.1)">
<use xlink:href="#c"/>
<use x="63.623047" xlink:href="#e"/>
<use x="95.410156" xlink:href="#c"/>
</g>
</g>
<g clip-path="url(#a)">
<defs>
<path id="n" d="m19.188 8.2969h34.422v-8.2969h-46.281v8.2969q5.6094 5.8125 15.297 15.594 9.7031 9.7969 12.188 12.641 4.7344 5.3125 6.6094 9 1.8906 3.6875 1.8906 7.25 0 5.8125-4.0781 9.4688-4.0781 3.6719-10.625 3.6719-4.6406 0-9.7969-1.6094-5.1406-1.6094-11-4.8906v9.9688q5.9531 2.3906 11.125 3.6094 5.1875 1.2188 9.4844 1.2188 11.328 0 18.062-5.6719 6.7344-5.6562 6.7344-15.125 0-4.5-1.6875-8.5312-1.6719-4.0156-6.125-9.4844-1.2188-1.4219-7.7656-8.1875-6.5312-6.7656-18.453-18.922z"/>
</defs>
<g transform="translate(206.79 92.199) scale(.1 -.1)">
<use xlink:href="#c"/>
<use x="63.623047" xlink:href="#e"/>
<use x="95.410156" xlink:href="#n"/>
</g>
</g>
<g clip-path="url(#a)">
<defs>
<path id="m" d="m40.578 39.312q7.0781-1.5156 11.047-6.3125 3.9844-4.7812 3.9844-11.812 0-10.781-7.4219-16.703-7.4219-5.9062-21.094-5.9062-4.5781 0-9.4375 0.90625t-10.031 2.7188v9.5156q4.0938-2.3906 8.9688-3.6094 4.8906-1.2188 10.219-1.2188 9.2656 0 14.125 3.6562t4.8594 10.641q0 6.4531-4.5156 10.078-4.5156 3.6406-12.562 3.6406h-8.5v8.1094h8.8906q7.2656 0 11.125 2.9062t3.8594 8.375q0 5.6094-3.9844 8.6094-3.9688 3.0156-11.391 3.0156-4.0625 0-8.7031-0.89062-4.6406-0.875-10.203-2.7188v8.7812q5.625 1.5625 10.531 2.3438t9.25 0.78125q11.234 0 17.766-5.1094 6.5469-5.0938 6.5469-13.781 0-6.0625-3.4688-10.234t-9.8594-5.7812z"/>
</defs>
<g transform="translate(471.29 421.86) scale(.1 -.1)">
<use xlink:href="#c"/>
<use x="63.623047" xlink:href="#e"/>
<use x="95.410156" xlink:href="#m"/>
</g>
</g>
<g clip-path="url(#a)">
<defs>
<path id="u" d="m37.797 64.312-24.906-38.922h24.906zm-2.5938 8.5938h12.406v-47.516h10.406v-8.2031h-10.406v-17.188h-9.8125v17.188h-32.906v9.5156z"/>
</defs>
<g transform="translate(736.49 290.66) scale(.1 -.1)">
<use xlink:href="#c"/>
<use x="63.623047" xlink:href="#e"/>
<use x="95.410156" xlink:href="#u"/>
</g>
</g>
<g clip-path="url(#a)">
<defs>
<path id="an" d="m8.2031 72.906h46.875v-4.2031l-26.469-68.703h-10.297l24.906 64.594h-35.016z"/>
</defs>
<g transform="translate(534.1 421.86) scale(.1 -.1)">
<use xlink:href="#c"/>
<use x="63.623047" xlink:href="#e"/>
<use x="95.410156" xlink:href="#an"/>
</g>
</g>
<g clip-path="url(#a)">
<defs>
<path id="ag" d="m31.781 34.625q-7.0312 0-11.062-3.7656-4.0156-3.7656-4.0156-10.344 0-6.5938 4.0156-10.359 4.0312-3.7656 11.062-3.7656t11.078 3.7812q4.0625 3.7969 4.0625 10.344 0 6.5781-4.0312 10.344-4.0156 3.7656-11.109 3.7656zm-9.8594 4.1875q-6.3438 1.5625-9.8906 5.9062-3.5312 4.3594-3.5312 10.609 0 8.7344 6.2188 13.812 6.2344 5.0781 17.062 5.0781 10.891 0 17.094-5.0781t6.2031-13.812q0-6.25-3.5469-10.609-3.5312-4.3438-9.8281-5.9062 7.125-1.6562 11.094-6.5 3.9844-4.8281 3.9844-11.797 0-10.609-6.4688-16.281-6.4688-5.6562-18.531-5.6562-12.047 0-18.531 5.6562-6.4688 5.6719-6.4688 16.281 0 6.9688 4 11.797 4.0156 4.8438 11.141 6.5zm-3.6094 15.578q0-5.6562 3.5312-8.8281 3.5469-3.1719 9.9375-3.1719 6.3594 0 9.9375 3.1719 3.5938 3.1719 3.5938 8.8281 0 5.6719-3.5938 8.8438-3.5781 3.1719-9.9375 3.1719-6.3906 0-9.9375-3.1719-3.5312-3.1719-3.5312-8.8438z"/>
</defs>
<g transform="translate(673.68 356.43) scale(.1 -.1)">
<use xlink:href="#c"/>
<use x="63.623047" xlink:href="#e"/>
<use x="95.410156" xlink:href="#ag"/>
</g>
</g>
<g clip-path="url(#a)">
<defs>
<path id="z" d="m10.984 1.5156v8.9844q3.7188-1.7656 7.5156-2.6875 3.8125-0.92188 7.4844-0.92188 9.7656 0 14.906 6.5625 5.1562 6.5625 5.8906 19.953-2.8281-4.2031-7.1875-6.4531-4.3438-2.25-9.6094-2.25-10.938 0-17.312 6.6094-6.375 6.625-6.375 18.109 0 11.219 6.6406 18 6.6406 6.7969 17.672 6.7969 12.656 0 19.312-9.7031 6.6719-9.6875 6.6719-28.141 0-17.234-8.1875-27.516-8.1719-10.281-21.984-10.281-3.7188 0-7.5312 0.73438-3.7969 0.73438-7.9062 2.2031zm19.625 30.906q6.6406 0 10.516 4.5312 3.8906 4.5469 3.8906 12.469 0 7.8594-3.8906 12.422-3.875 4.5625-10.516 4.5625t-10.516-4.5625-3.875-12.422q0-7.9219 3.875-12.469 3.875-4.5312 10.516-4.5312z"/>
</defs>
<g transform="translate(827.21 421.86) scale(.1 -.1)">
<use xlink:href="#c"/>
<use x="63.623047" xlink:href="#e"/>
<use x="95.410156" xlink:href="#z"/>
</g>
</g>
<g clip-path="url(#a)">
<defs>
<path id="ab" d="m31.781 66.406q-7.6094 0-11.453-7.5-3.8281-7.4844-3.8281-22.531 0-14.984 3.8281-22.484 3.8438-7.5 11.453-7.5 7.6719 0 11.5 7.5 3.8438 7.5 3.8438 22.484 0 15.047-3.8438 22.531-3.8281 7.5-11.5 7.5zm0 7.8125q12.266 0 18.734-9.7031 6.4688-9.6875 6.4688-28.141 0-18.406-6.4688-28.109-6.4688-9.6875-18.734-9.6875-12.25 0-18.719 9.6875-6.4688 9.7031-6.4688 28.109 0 18.453 6.4688 28.141 6.4688 9.7031 18.719 9.7031z"/>
</defs>
<g transform="translate(597.91 421.86) scale(.1 -.1)">
<use xlink:href="#c"/>
<use x="63.623047" xlink:href="#e"/>
<use x="95.410156" xlink:href="#c"/>
<use x="159.033203" xlink:href="#ab"/>
</g>
</g>
<g clip-path="url(#a)">
<g transform="translate(669.1 421.86) scale(.1 -.1)">
<use xlink:href="#c"/>
<use x="63.623047" xlink:href="#e"/>
<use x="95.410156" xlink:href="#c"/>
<use x="159.033203" xlink:href="#c"/>
</g>
</g>
<g clip-path="url(#a)">
<g transform="translate(744.47 421.86) scale(.1 -.1)">
<use xlink:href="#c"/>
<use x="63.623047" xlink:href="#e"/>
<use x="95.410156" xlink:href="#c"/>
<use x="159.033203" xlink:href="#n"/>
</g>
</g>
<g clip-path="url(#a)">
<g transform="translate(68.217 158.5) scale(.1 -.1)">
<use xlink:href="#c"/>
<use x="63.623047" xlink:href="#e"/>
<use x="95.410156" xlink:href="#c"/>
<use x="159.033203" xlink:href="#m"/>
</g>
</g>
<g clip-path="url(#a)">
<g transform="translate(306.89 421.86) scale(.1 -.1)">
<use xlink:href="#c"/>
<use x="63.623047" xlink:href="#e"/>
<use x="95.410156" xlink:href="#c"/>
<use x="159.033203" xlink:href="#u"/>
</g>
</g>
<g clip-path="url(#a)">
<defs>
<path id="aa" d="m10.797 72.906h38.719v-8.3125h-29.688v-17.859q2.1406 0.73438 4.2812 1.0938 2.1562 0.35938 4.3125 0.35938 12.203 0 19.328-6.6875 7.1406-6.6875 7.1406-18.109 0-11.766-7.3281-18.297-7.3281-6.5156-20.656-6.5156-4.5938 0-9.3594 0.78125-4.75 0.78125-9.8281 2.3438v9.9219q4.3906-2.3906 9.0781-3.5625t9.9062-1.1719q8.4531 0 13.375 4.4375 4.9375 4.4375 4.9375 12.062 0 7.6094-4.9375 12.047-4.9219 4.4531-13.375 4.4531-3.9531 0-7.8906-0.875-3.9219-0.875-8.0156-2.7344z"/>
</defs>
<g transform="translate(304.8 421.86) scale(.1 -.1)">
<use xlink:href="#c"/>
<use x="63.623047" xlink:href="#e"/>
<use x="95.410156" xlink:href="#c"/>
<use x="159.033203" xlink:href="#aa"/>
</g>
</g>
<g clip-path="url(#a)">
<g transform="translate(38.906 356.43) scale(.1 -.1)">
<use xlink:href="#c"/>
<use x="63.623047" xlink:href="#e"/>
<use x="95.410156" xlink:href="#c"/>
<use x="159.033203" xlink:href="#z"/>
</g>
</g>
<g clip-path="url(#a)">
<g transform="translate(99.622 224.66) scale(.1 -.1)">
<use xlink:href="#c"/>
<use x="63.623047" xlink:href="#e"/>
<use x="95.410156" xlink:href="#n"/>
<use x="159.033203" xlink:href="#ab"/>
</g>
</g>
<g clip-path="url(#a)">
<g transform="translate(99.622 290.66) scale(.1 -.1)">
<use xlink:href="#c"/>
<use x="63.623047" xlink:href="#e"/>
<use x="95.410156" xlink:href="#n"/>
<use x="159.033203" xlink:href="#m"/>
</g>
</g>
<g clip-path="url(#a)">
<g transform="translate(87.06 421.86) scale(.1 -.1)">
<use xlink:href="#c"/>
<use x="63.623047" xlink:href="#e"/>
<use x="95.410156" xlink:href="#n"/>
<use x="159.033203" xlink:href="#u"/>
</g>
</g>
<g clip-path="url(#a)">
<g transform="translate(112.18 356.43) scale(.1 -.1)">
<use xlink:href="#c"/>
<use x="63.623047" xlink:href="#e"/>
<use x="95.410156" xlink:href="#n"/>
<use x="159.033203" xlink:href="#aa"/>
</g>
</g>
<g clip-path="url(#a)">
<defs>
<path id="ao" d="m33.016 40.375q-6.6406 0-10.531-4.5469-3.875-4.5312-3.875-12.438 0-7.8594 3.875-12.438 3.8906-4.5625 10.531-4.5625t10.516 4.5625q3.875 4.5781 3.875 12.438 0 7.9062-3.875 12.438-3.875 4.5469-10.516 4.5469zm19.578 30.922v-8.9844q-3.7188 1.75-7.5 2.6719-3.7812 0.9375-7.5 0.9375-9.7656 0-14.922-6.5938-5.1406-6.5938-5.875-19.922 2.875 4.25 7.2188 6.5156 4.3594 2.2656 9.5781 2.2656 10.984 0 17.359-6.6719 6.375-6.6562 6.375-18.125 0-11.234-6.6406-18.031-6.6406-6.7812-17.672-6.7812-12.656 0-19.344 9.6875-6.6875 9.7031-6.6875 28.109 0 17.281 8.2031 27.562t22.016 10.281q3.7188 0 7.5-0.73438t7.8906-2.1875z"/>
</defs>
<g transform="translate(112.18 421.86) scale(.1 -.1)">
<use xlink:href="#c"/>
<use x="63.623047" xlink:href="#e"/>
<use x="95.410156" xlink:href="#n"/>
<use x="159.033203" xlink:href="#ao"/>
</g>
</g>
<g clip-path="url(#a)">
<g transform="translate(32.625 421.86) scale(.1 -.1)">
<use xlink:href="#c"/>
<use x="63.623047" xlink:href="#e"/>
<use x="95.410156" xlink:href="#n"/>
<use x="159.033203" xlink:href="#ag"/>
</g>
</g>
<g clip-path="url(#a)">
<g transform="translate(45.187 421.86) scale(.1 -.1)">
<use xlink:href="#c"/>
<use x="63.623047" xlink:href="#e"/>
<use x="95.410156" xlink:href="#n"/>
<use x="159.033203" xlink:href="#z"/>
</g>
</g>
<g clip-path="url(#a)">
<g transform="translate(66.123 421.86) scale(.1 -.1)">
<use xlink:href="#c"/>
<use x="63.623047" xlink:href="#e"/>
<use x="95.410156" xlink:href="#m"/>
<use x="159.033203" xlink:href="#ab"/>
</g>
</g>
<g clip-path="url(#a)">
<g transform="translate(145.68 421.86) scale(.1 -.1)">
<use xlink:href="#c"/>
<use x="63.623047" xlink:href="#e"/>
<use x="95.410156" xlink:href="#m"/>
<use x="159.033203" xlink:href="#c"/>
</g>
</g>
<g clip-path="url(#a)">
<g transform="translate(179.18 421.86) scale(.1 -.1)">
<use xlink:href="#c"/>
<use x="63.623047" xlink:href="#e"/>
<use x="95.410156" xlink:href="#m"/>
<use x="159.033203" xlink:href="#n"/>
</g>
</g>
<g clip-path="url(#a)">
<g transform="translate(216.87 421.86) scale(.1 -.1)">
<use xlink:href="#c"/>
<use x="63.623047" xlink:href="#e"/>
<use x="95.410156" xlink:href="#m"/>
<use x="159.033203" xlink:href="#m"/>
</g>
</g>
<g clip-path="url(#a)">
<g transform="translate(409.48 421.86) scale(.1 -.1)">
<use xlink:href="#c"/>
<use x="63.623047" xlink:href="#e"/>
<use x="95.410156" xlink:href="#m"/>
<use x="159.033203" xlink:href="#u"/>
</g>
</g>
<g clip-path="url(#a)">
<g transform="translate(907.78 421.86) scale(.1 -.1)">
<use xlink:href="#c"/>
<use x="63.623047" xlink:href="#e"/>
<use x="95.410156" xlink:href="#m"/>
<use x="159.033203" xlink:href="#aa"/>
</g>
</g>
<defs>
<clipPath id="a">
<rect width="962.67" height="506.67"/>
</clipPath>
</defs>
</svg>
