<?xml version="1.0" encoding="UTF-8"?>
<!DOCTYPE svg  PUBLIC '-//W3C//DTD SVG 1.1//EN'  'http://www.w3.org/Graphics/SVG/1.1/DTD/svg11.dtd'>
<svg width="2026.7pt" height="1066.7pt" version="1.1" viewBox="0 0 2026.7 1066.7" xmlns="http://www.w3.org/2000/svg" xmlns:xlink="http://www.w3.org/1999/xlink">
<defs>
<style type="text/css">*{stroke-linecap:butt;stroke-linejoin:round;}</style>
</defs>
<path d="m0 1066.7h2026.7v-1066.7h-2026.7z" fill="#fff"/>
<g fill="none" stroke="#000">
<path d="m681.11 48.485-572.65 557.62" clip-path="url(#a)"/>
<path d="m681.11 48.485-219.53 139.81" clip-path="url(#a)"/>
<path d="m681.11 48.485 848.89 557.62" clip-path="url(#a)"/>
<path d="m681.11 48.485-535.43 833.84" clip-path="url(#a)"/>
<path d="m681.11 48.485-518.29 833.84" clip-path="url(#a)"/>
<path d="m681.11 48.485-499.01 833.84" clip-path="url(#a)"/>
<path d="m681.11 48.485 278.67 833.84" clip-path="url(#a)"/>
<path d="m681.11 48.485 340.8 833.84" clip-path="url(#a)"/>
<path d="m681.11 48.485 405.07 833.84" clip-path="url(#a)"/>
<path d="m681.11 48.485 471.48 833.84" clip-path="url(#a)"/>
<path d="m108.46 606.1-16.335 276.22" clip-path="url(#a)"/>
<path d="m108.46 606.1-9.9084 276.22" clip-path="url(#a)"/>
<path d="m108.46 606.1 4.0169 138.47" clip-path="url(#a)"/>
<path d="m108.46 606.1 22.227 276.22" clip-path="url(#a)"/>
<path d="m461.57 188.29 438.21 139.57" clip-path="url(#a)"/>
<path d="m461.57 188.29 438.21 139.57" clip-path="url(#a)"/>
<path d="m461.57 188.29v139.57" clip-path="url(#a)"/>
<path d="m1530 606.1-237.44 138.47" clip-path="url(#a)"/>
<path d="m1530 606.1 66.056 276.22" clip-path="url(#a)"/>
<path d="m1530 606.1 274.94 138.47" clip-path="url(#a)"/>
<path d="m1530 606.1-90.336 276.22" clip-path="url(#a)"/>
<path d="m1530 606.1-13.211 276.22" clip-path="url(#a)"/>
<path d="m1292.6 744.57-71.412 137.75" clip-path="url(#a)"/>
<path d="m1292.6 744.57-0.71412 137.75" clip-path="url(#a)"/>
<path d="m1292.6 744.57 72.126 137.75" clip-path="url(#a)"/>
<path d="m1596.1 882.32v135.86" clip-path="url(#a)"/>
<path d="m1804.9 744.57-127.47 137.75" clip-path="url(#a)"/>
<path d="m1804.9 744.57-43.918 137.75" clip-path="url(#a)"/>
<path d="m1804.9 744.57 41.776 137.75" clip-path="url(#a)"/>
<path d="m1804.9 744.57 129.61 137.75" clip-path="url(#a)"/>
<path d="m1677.5 882.32v135.86" clip-path="url(#a)"/>
<path d="m1761 882.32v135.86" clip-path="url(#a)"/>
<path d="m1846.7 882.32v135.86" clip-path="url(#a)"/>
<path d="m1221.1 882.32v135.86" clip-path="url(#a)"/>
<path d="m1291.8 882.32v135.86" clip-path="url(#a)"/>
<path d="m1364.7 882.32v135.86" clip-path="url(#a)"/>
<path d="m461.57 327.87-246.27 416.71" clip-path="url(#a)"/>
<path d="m461.57 327.87-128.24 139.29" clip-path="url(#a)"/>
<path d="m461.57 327.87 367.87 416.71" clip-path="url(#a)"/>
<path d="m461.57 327.87-208.78 554.46" clip-path="url(#a)"/>
<path d="m461.57 327.87 215.41 554.46" clip-path="url(#a)"/>
<path d="m215.31 744.57-11.783 137.75" clip-path="url(#a)"/>
<path d="m215.31 744.57 11.783 137.75" clip-path="url(#a)"/>
<path d="m333.33 467.16-52.684 415.16" clip-path="url(#a)"/>
<path d="m333.33 467.16-22.691 415.16" clip-path="url(#a)"/>
<path d="m333.33 467.16 75.375 138.94" clip-path="url(#a)"/>
<path d="m829.45 744.57-74.268 137.75" clip-path="url(#a)"/>
<path d="m829.45 744.57 8.2124 137.75" clip-path="url(#a)"/>
<path d="m829.45 744.57 66.056 137.75" clip-path="url(#a)"/>
<path d="m755.18 882.32-26.779 135.86" clip-path="url(#a)"/>
<path d="m755.18 882.32 26.779 135.86" clip-path="url(#a)"/>
<path d="m837.66 882.32v135.86" clip-path="url(#a)"/>
<path d="m895.5 882.32v135.86" clip-path="url(#a)"/>
<path d="m280.65 882.32v135.86" clip-path="url(#a)"/>
<path d="m310.64 882.32v135.86" clip-path="url(#a)"/>
<path d="m408.71 606.1-65.931 276.22" clip-path="url(#a)"/>
<path d="m408.71 606.1-31.653 276.22" clip-path="url(#a)"/>
<path d="m408.71 606.1 92.817 138.47" clip-path="url(#a)"/>
<path d="m408.71 606.1 4.7667 276.22" clip-path="url(#a)"/>
<path d="m342.78 882.32v135.86" clip-path="url(#a)"/>
<path d="m377.05 882.32v135.86" clip-path="url(#a)"/>
<path d="m501.53 744.57-124.47 137.75" clip-path="url(#a)" stroke-dasharray="3.7,1.6"/>
<path d="m501.53 744.57-49.488 137.75" clip-path="url(#a)"/>
<path d="m501.53 744.57-8.7837 137.75" clip-path="url(#a)"/>
<path d="m501.53 744.57 56.558 137.75" clip-path="url(#a)"/>
<path d="m501.53 744.57 126.18 137.75" clip-path="url(#a)"/>
<path d="m145.68 882.32v135.86" clip-path="url(#a)"/>
<path d="m452.04 882.32v135.86" clip-path="url(#a)"/>
<path d="m492.74 882.32v135.86" clip-path="url(#a)"/>
<path d="m558.08 882.32-22.495 135.86" clip-path="url(#a)"/>
<path d="m558.08 882.32 22.495 135.86" clip-path="url(#a)"/>
<path d="m627.71 882.32v135.86" clip-path="url(#a)"/>
<path d="m203.52 882.32v135.86" clip-path="url(#a)"/>
<path d="m227.09 882.32v135.86" clip-path="url(#a)"/>
<path d="m92.121 882.32v135.86" clip-path="url(#a)"/>
<path d="m98.548 882.32v135.86" clip-path="url(#a)"/>
<path d="m112.47 744.57-5.3559 137.75" clip-path="url(#a)"/>
<path d="m112.47 744.57 5.3559 137.75" clip-path="url(#a)"/>
<path d="m130.68 882.32v135.86" clip-path="url(#a)"/>
<path d="m107.12 882.32v135.86" clip-path="url(#a)"/>
<path d="m117.83 882.32v135.86" clip-path="url(#a)"/>
<path d="m162.82 882.32v135.86" clip-path="url(#a)"/>
<path d="m182.1 882.32v135.86" clip-path="url(#a)"/>
<path d="m252.8 882.32v135.86" clip-path="url(#a)"/>
<path d="m413.47 882.32v135.86" clip-path="url(#a)"/>
<path d="m676.98 882.32v135.86" clip-path="url(#a)"/>
<path d="m959.77 882.32v135.86" clip-path="url(#a)"/>
<path d="m1021.9 882.32v135.86" clip-path="url(#a)"/>
<path d="m1086.2 882.32v135.86" clip-path="url(#a)"/>
<path d="m1152.6 882.32v135.86" clip-path="url(#a)"/>
<path d="m1439.7 882.32v135.86" clip-path="url(#a)"/>
<path d="m1516.8 882.32v135.86" clip-path="url(#a)"/>
<path d="m1934.5 882.32v135.86" clip-path="url(#a)"/>
</g>
<path d="m397 333.89 4.3103-4.1972q1.7195-1.6743 0.045132-3.3938l-5.4015-5.5471q-1.6743-1.7195-3.3938-0.045132l-4.3103 4.1972q-1.7195 1.6743-0.045133 3.3938l5.4015 5.5471q1.6743 1.7195 3.3938 0.045132z" clip-path="url(#a)" fill="#fff" stroke="#fff"/>
<g clip-path="url(#a)">
<defs>
<path id="y" d="m9.8125 72.906h9.8594v-29.891h35.844v29.891h9.8594v-72.906h-9.8594v34.719h-35.844v-34.719h-9.8594z"/>
</defs>
<g transform="translate(394.17 330.97) rotate(-44.238) scale(.08 -.08)">
<use xlink:href="#y"/>
</g>
</g>
<path d="m572.17 125.29 5.0746-3.2317q2.0243-1.2892 0.73515-3.3135l-4.159-6.5306q-1.2892-2.0243-3.3135-0.73515l-5.0746 3.2317q-2.0243 1.2892-0.73515 3.3135l4.159 6.5306q1.2892 2.0243 3.3135 0.73515z" clip-path="url(#a)" fill="#fff" stroke="#fff"/>
<g clip-path="url(#a)">
<g transform="translate(569.99 121.87) rotate(-32.491) scale(.08 -.08)">
<use xlink:href="#y"/>
</g>
</g>
<path d="m1099.6 330.88 5.0284 3.3031q2.0059 1.3177 3.3236-0.68828l4.2508-6.4712q1.3177-2.0059-0.68828-3.3236l-5.0284-3.3031q-2.0059-1.3177-3.3236 0.68828l-4.2508 6.4712q-1.3177 2.0059 0.68828 3.3236z" clip-path="url(#a)" fill="#fff" stroke="#fff"/>
<g clip-path="url(#a)">
<g transform="translate(1101.8 327.49) rotate(33.3) scale(.08 -.08)">
<use xlink:href="#y"/>
</g>
</g>
<path d="m417.09 471.26 3.1636-4.9267q1.2968-2.0195-0.72274-3.3163l-6.515-4.1834q-2.0195-1.2968-3.3163 0.72273l-3.1636 4.9267q-1.2968 2.0195 0.72274 3.3163l6.515 4.1834q2.0195 1.2968 3.3163-0.72274z" clip-path="url(#a)" fill="#fff" stroke="#fff"/>
<g clip-path="url(#a)">
<defs>
<path id="r" d="m8.6875 72.906h9.9219v-44.297q0-11.719 4.2344-16.875 4.25-5.1406 13.781-5.1406 9.4688 0 13.719 5.1406 4.25 5.1562 4.25 16.875v44.297h9.9062v-45.516q0-14.25-7.0625-21.531-7.0469-7.2812-20.812-7.2812-13.828 0-20.891 7.2812-7.0469 7.2812-7.0469 21.531z"/>
</defs>
<g transform="translate(413.67 469.06) rotate(-57.295) scale(.08 -.08)">
<use xlink:href="#r"/>
</g>
</g>
<path d="m425.74 471.2 3.0909-4.9727q1.267-2.0383-0.77137-3.3053l-6.5757-4.0873q-2.0383-1.267-3.3053 0.77137l-3.0909 4.9727q-1.267 2.0383 0.77137 3.3053l6.5757 4.0873q2.0383 1.267 3.3053-0.77137z" clip-path="url(#a)" fill="#fff" stroke="#fff"/>
<g clip-path="url(#a)">
<g transform="translate(422.29 469.06) rotate(-58.136) scale(.08 -.08)">
<use xlink:href="#r"/>
</g>
</g>
<path d="m435.48 471.14 3.0066-5.0241q1.2324-2.0594-0.82696-3.2918l-6.6437-3.9759q-2.0594-1.2324-3.2918 0.82696l-3.0066 5.0241q-1.2324 2.0594 0.82696 3.2918l6.6437 3.9759q2.0594 1.2324 3.2918-0.82696z" clip-path="url(#a)" fill="#fff" stroke="#fff"/>
<g clip-path="url(#a)">
<g transform="translate(431.99 469.05) rotate(-59.102) scale(.08 -.08)">
<use xlink:href="#r"/>
</g>
</g>
<path d="m813.56 464.62 1.8558 5.5531q0.76072 2.2762 3.037 1.5155l7.3433-2.4541q2.2762-0.76072 1.5155-3.037l-1.8558-5.5531q-0.76072-2.2762-3.037-1.5155l-7.3433 2.4541q-2.2762 0.76072-1.5155 3.037z" clip-path="url(#a)" fill="#fff" stroke="#fff"/>
<g clip-path="url(#a)">
<g transform="translate(817.42 463.33) rotate(71.52) scale(.08 -.08)">
<use xlink:href="#r"/>
</g>
</g>
<path d="m844.59 465.07 2.2151 5.4198q0.90799 2.2216 3.1296 1.3136l7.167-2.9292q2.2216-0.90799 1.3136-3.1296l-2.2151-5.4198q-0.90799-2.2216-3.1296-1.3136l-7.167 2.9292q-2.2216 0.90799-1.3136 3.1296z" clip-path="url(#a)" fill="#fff" stroke="#fff"/>
<g clip-path="url(#a)">
<g transform="translate(848.35 463.53) rotate(67.77) scale(.08 -.08)">
<use xlink:href="#r"/>
</g>
</g>
<path d="m876.72 465.51 2.5584 5.2665q1.0487 2.1588 3.2075 1.1101l6.9642-3.3831q2.1588-1.0487 1.1101-3.2075l-2.5584-5.2665q-1.0487-2.1588-3.2075-1.1101l-6.9642 3.3831q-2.1588 1.0487-1.1101 3.2075z" clip-path="url(#a)" fill="#fff" stroke="#fff"/>
<g clip-path="url(#a)">
<g transform="translate(880.38 463.74) rotate(64.09) scale(.08 -.08)">
<use xlink:href="#r"/>
</g>
</g>
<path d="m909.95 465.94 2.8818 5.0967q1.1813 2.0892 3.2704 0.90788l6.7397-3.8109q2.0892-1.1813 0.90788-3.2704l-2.8818-5.0967q-1.1813-2.0892-3.2704-0.90788l-6.7397 3.8109q-2.0892 1.1813-0.90788 3.2704z" clip-path="url(#a)" fill="#fff" stroke="#fff"/>
<g clip-path="url(#a)">
<g transform="translate(913.48 463.94) rotate(60.515) scale(.08 -.08)">
<use xlink:href="#r"/>
</g>
</g>
<path d="m106.39 747.32 0.32308-5.463q0.14169-2.3958-2.2541-2.5375l-7.729-0.45709q-2.3958-0.14169-2.5375 2.2541l-0.32308 5.463q-0.14169 2.3958 2.2541 2.5375l7.729 0.45709q2.3958 0.14169 2.5375-2.2541z" clip-path="url(#a)" fill="#fff" stroke="#fff"/>
<g clip-path="url(#a)">
<defs>
<path id="m" d="m34.188 63.188-13.391-36.281h26.812zm-5.5781 9.7188h11.188l27.781-72.906h-10.25l-6.6406 18.703h-32.859l-6.6406-18.703h-10.406z"/>
</defs>
<g transform="translate(102.33 747.08) rotate(-86.616) scale(.08 -.08)">
<use xlink:href="#m"/>
</g>
</g>
<path d="m109.66 747.52 0.22083-6.156q0.086036-2.3985-2.3124-2.4845l-7.7375-0.27756q-2.3985-0.086036-2.4845 2.3124l-0.22083 6.156q-0.086036 2.3985 2.3124 2.4845l7.7375 0.27756q2.3985 0.086037 2.4845-2.3124z" clip-path="url(#a)" fill="#fff" stroke="#fff"/>
<g clip-path="url(#a)">
<defs>
<path id="al" d="m19.672 64.797v-56.688h11.922q15.094 0 22.094 6.8281 7 6.8438 7 21.594 0 14.641-7 21.453t-22.094 6.8125zm-9.8594 8.1094h20.266q21.188 0 31.094-8.8125 9.9219-8.8125 9.9219-27.562 0-18.859-9.9688-27.703-9.9531-8.8281-31.047-8.8281h-20.266z"/>
</defs>
<g transform="translate(105.6 747.37) rotate(-87.946) scale(.08 -.08)">
<use xlink:href="#al"/>
</g>
</g>
<path d="m104.12 672.79 0.15868 5.4702q0.069592 2.399 2.4686 2.3294l7.7392-0.22451q2.399-0.069592 2.3294-2.4686l-0.15868-5.4702q-0.069593-2.399-2.4686-2.3294l-7.7392 0.22451q-2.399 0.069592-2.3294 2.4686z" clip-path="url(#a)" fill="#fff" stroke="#fff"/>
<g clip-path="url(#a)">
<g transform="translate(108.18 672.67) rotate(88.338) scale(.08 -.08)">
<use xlink:href="#m"/>
</g>
</g>
<path d="m113.13 742.31 0.38691 4.8082q0.1925 2.3923 2.5848 2.1998l7.7176-0.62102q2.3923-0.1925 2.1998-2.5848l-0.38691-4.8082q-0.1925-2.3923-2.5848-2.1998l-7.7176 0.62102q-2.3923 0.1925-2.1998 2.5848z" clip-path="url(#a)" fill="#fff" stroke="#fff"/>
<g clip-path="url(#a)">
<defs>
<path id="x" d="m19.672 64.797v-27.391h12.406q6.8906 0 10.641 3.5625 3.7656 3.5625 3.7656 10.156 0 6.5469-3.7656 10.109-3.75 3.5625-10.641 3.5625zm-9.8594 8.1094h22.266q12.266 0 18.531-5.5469 6.2812-5.5469 6.2812-16.234 0-10.797-6.2812-16.312-6.2656-5.5156-18.531-5.5156h-12.406v-29.297h-9.8594z"/>
</defs>
<g transform="translate(117.18 741.99) rotate(85.399) scale(.08 -.08)">
<use xlink:href="#x"/>
</g>
</g>
<path d="m676.48 263.32 4.5962 1.4639q2.2868 0.72836 3.0152-1.5584l2.3497-7.3773q0.72836-2.2868-1.5584-3.0152l-4.5962-1.4639q-2.2868-0.72836-3.0152 1.5584l-2.3497 7.3773q-0.72836 2.2868 1.5584 3.0152z" clip-path="url(#a)" fill="#fff" stroke="#fff"/>
<g clip-path="url(#a)">
<g transform="translate(677.71 259.45) rotate(17.667) scale(.08 -.08)">
<use xlink:href="#x"/>
</g>
</g>
<path d="m676.17 263.23 5.2144 1.6608q2.2868 0.72836 3.0152-1.5584l2.3497-7.3773q0.72836-2.2868-1.5584-3.0152l-5.2144-1.6608q-2.2868-0.72836-3.0152 1.5584l-2.3497 7.3773q-0.72836 2.2868 1.5584 3.0152z" clip-path="url(#a)" fill="#fff" stroke="#fff"/>
<g clip-path="url(#a)">
<g transform="translate(677.4 259.35) rotate(17.667) scale(.08 -.08)">
<use xlink:href="#m"/>
</g>
</g>
<path d="m455.3 255.34v5.4725q0 2.4 2.4 2.4h7.7425q2.4 0 2.4-2.4v-5.4725q0-2.4-2.4-2.4h-7.7425q-2.4 0-2.4 2.4z" clip-path="url(#a)" fill="#fff" stroke="#fff"/>
<g clip-path="url(#a)">
<g transform="translate(459.37 255.34) rotate(90) scale(.08 -.08)">
<use xlink:href="#m"/>
</g>
</g>
<path d="m1412.1 682.14 4.7274-2.7569q2.0732-1.209 0.86417-3.2823l-3.9004-6.6883q-1.209-2.0732-3.2823-0.86417l-4.7274 2.7569q-2.0732 1.209-0.86417 3.2823l3.9004 6.6883q1.209 2.0732 3.2823 0.86417z" clip-path="url(#a)" fill="#fff" stroke="#fff"/>
<g clip-path="url(#a)">
<g transform="translate(1410 678.62) rotate(-30.25) scale(.08 -.08)">
<use xlink:href="#m"/>
</g>
</g>
<path d="m1556.4 743.33 1.1219 4.6915q0.5582 2.3342 2.8924 1.776l7.5302-1.8008q2.3342-0.5582 1.776-2.8924l-1.1219-4.6915q-0.5582-2.3342-2.8924-1.776l-7.5302 1.8008q-2.3342 0.5582-1.776 2.8924z" clip-path="url(#a)" fill="#fff" stroke="#fff"/>
<g clip-path="url(#a)">
<g transform="translate(1560.3 742.38) rotate(76.551) scale(.08 -.08)">
<use xlink:href="#x"/>
</g>
</g>
<path d="m1662.2 679.71 4.8876 2.4616q2.1435 1.0796 3.2231-1.0639l3.4827-6.915q1.0796-2.1435-1.0639-3.2231l-4.8876-2.4616q-2.1435-1.0796-3.2231 1.0639l-3.4827 6.915q-1.0796 2.1435 1.0639 3.2231z" clip-path="url(#a)" fill="#fff" stroke="#fff"/>
<g clip-path="url(#a)">
<g transform="translate(1664 676.08) rotate(26.732) scale(.08 -.08)">
<use xlink:href="#m"/>
</g>
</g>
<path d="m1489.9 748.95 1.82-5.565q0.74602-2.2811-1.5351-3.0271l-7.3589-2.4067q-2.2811-0.74602-3.0271 1.5351l-1.82 5.565q-0.74602 2.2811 1.5351 3.0271l7.3589 2.4067q2.2811 0.74602 3.0271-1.5351z" clip-path="url(#a)" fill="#fff" stroke="#fff"/>
<g clip-path="url(#a)">
<g transform="translate(1486 747.68) rotate(-71.89) scale(.08 -.08)">
<use xlink:href="#r"/>
</g>
</g>
<path d="m1529.5 747.44 0.27972-5.8483q0.11466-2.3973-2.2826-2.5119l-7.7337-0.36989q-2.3973-0.11466-2.5119 2.2826l-0.27972 5.8483q-0.11466 2.3973 2.2826 2.5119l7.7337 0.36989q2.3973 0.11466 2.5119-2.2826z" clip-path="url(#a)" fill="#fff" stroke="#fff"/>
<g clip-path="url(#a)">
<g transform="translate(1525.5 747.24) rotate(-87.262) scale(.08 -.08)">
<use xlink:href="#r"/>
</g>
</g>
<path d="m1261 819.07 2.8351-5.4688q1.1046-2.1307-1.0261-3.2353l-6.8737-3.5635q-2.1307-1.1046-3.2353 1.0261l-2.8351 5.4688q-1.1046 2.1307 1.0261 3.2353l6.8737 3.5635q2.1307 1.1046 3.2353-1.0261z" clip-path="url(#a)" fill="#fff" stroke="#fff"/>
<g clip-path="url(#a)">
<g transform="translate(1257.4 817.2) rotate(-62.597) scale(.08 -.08)">
<use xlink:href="#al"/>
</g>
</g>
<path d="m1298.5 816.02 0.026329-5.0787q0.012442-2.4-2.3875-2.4124l-7.7424-0.040139q-2.4-0.012442-2.4124 2.3875l-0.026329 5.0787q-0.012442 2.4 2.3875 2.4124l7.7424 0.040138q2.4 0.012442 2.4124-2.3875z" clip-path="url(#a)" fill="#fff" stroke="#fff"/>
<g clip-path="url(#a)">
<defs>
<path id="w" d="m53.516 70.516v-9.625q-5.6094 2.6875-10.594 4-4.9844 1.3281-9.625 1.3281-8.0469 0-12.422-3.125t-4.375-8.8906q0-4.8438 2.9062-7.3125 2.9062-2.4531 11.016-3.9688l5.9531-1.2188q11.031-2.1094 16.281-7.4062t5.25-14.172q0-10.609-7.1094-16.078-7.0938-5.4688-20.812-5.4688-5.1719 0-11.016 1.1719-5.8281 1.1719-12.078 3.4688v10.156q6-3.3594 11.766-5.0781 5.7656-1.7031 11.328-1.7031 8.4375 0 13.031 3.3125 4.5938 3.3281 4.5938 9.4844 0 5.3594-3.2969 8.3906t-10.812 4.5469l-6.0156 1.1719q-11.031 2.1875-15.969 6.875-4.9219 4.6875-4.9219 13.047 0 9.6719 6.8125 15.234t18.766 5.5625q5.1406 0 10.453-0.9375 5.3281-0.92188 10.891-2.7656z"/>
</defs>
<g transform="translate(1294.4 816) rotate(-89.703) scale(.08 -.08)">
<use xlink:href="#w"/>
</g>
</g>
<path d="m1321.8 813.93 2.5385 4.8481q1.1133 2.1262 3.2394 1.0129l6.8591-3.5915q2.1262-1.1133 1.0129-3.2395l-2.5385-4.8481q-1.1133-2.1262-3.2394-1.0129l-6.8591 3.5915q-2.1262 1.1133-1.0129 3.2395z" clip-path="url(#a)" fill="#fff" stroke="#fff"/>
<g clip-path="url(#a)">
<g transform="translate(1325.4 812.05) rotate(62.363) scale(.08 -.08)">
<use xlink:href="#m"/>
</g>
</g>
<path d="m1589.8 933.35v33.808q0 2.4 2.4 2.4h7.7425q2.4 0 2.4-2.4v-33.808q0-2.4-2.4-2.4h-7.7425q-2.4 0-2.4 2.4z" clip-path="url(#a)" fill="#fff" stroke="#fff"/>
<g clip-path="url(#a)">
<defs>
<path id="k" d="m-0.29688 72.906h61.672v-8.3125h-25.875v-64.594h-9.9062v64.594h-25.891z"/>
<path id="c" d="m56.203 29.594v-4.3906h-41.312q0.59375-9.2812 5.5938-14.141t13.938-4.8594q5.1719 0 10.031 1.2656t9.6562 3.8125v-8.5q-4.8438-2.0469-9.9219-3.125t-10.297-1.0781q-13.094 0-20.734 7.6094-7.6406 7.625-7.6406 20.625 0 13.422 7.25 21.297 7.25 7.8906 19.562 7.8906 11.031 0 17.453-7.1094 6.4219-7.0938 6.4219-19.297zm-8.9844 2.6406q-0.09375 7.3594-4.125 11.75-4.0312 4.4062-10.672 4.4062-7.5156 0-12.031-4.25t-5.2031-11.969z"/>
<path id="g" d="m41.109 46.297q-1.5156 0.875-3.2969 1.2812-1.7812 0.42188-3.9219 0.42188-7.625 0-11.703-4.9531t-4.0781-14.234v-28.812h-9.0312v54.688h9.0312v-8.5q2.8438 4.9844 7.375 7.3906 4.5469 2.4219 11.047 2.4219 0.92188 0 2.0469-0.125 1.125-0.10938 2.4844-0.35938z"/>
<path id="j" d="m52 44.188q3.375 6.0625 8.0625 8.9375t11.031 2.875q8.5469 0 13.188-5.9844 4.6406-5.9688 4.6406-17v-33.016h-9.0312v32.719q0 7.8594-2.7969 11.656-2.7812 3.8125-8.4844 3.8125-6.9844 0-11.047-4.6406-4.0469-4.625-4.0469-12.641v-30.906h-9.0312v32.719q0 7.9062-2.7812 11.688t-8.5938 3.7812q-6.8906 0-10.953-4.6562-4.0469-4.6562-4.0469-12.625v-30.906h-9.0312v54.688h9.0312v-8.5q3.0781 5.0312 7.375 7.4219t10.203 2.3906q5.9688 0 10.141-3.0312 4.1719-3.0156 6.1719-8.7812z"/>
<path id="h" d="m9.4219 54.688h8.9844v-54.688h-8.9844zm0 21.297h8.9844v-11.391h-8.9844z"/>
<path id="f" d="m54.891 33.016v-33.016h-8.9844v32.719q0 7.7656-3.0312 11.609-3.0312 3.8594-9.0781 3.8594-7.2812 0-11.484-4.6406-4.2031-4.625-4.2031-12.641v-30.906h-9.0312v54.688h9.0312v-8.5q3.2344 4.9375 7.5938 7.375 4.375 2.4375 10.094 2.4375 9.4219 0 14.25-5.8281 4.8438-5.8281 4.8438-17.156z"/>
<path id="i" d="m34.281 27.484q-10.891 0-15.094-2.4844t-4.2031-8.5q0-4.7812 3.1562-7.5938 3.1562-2.7969 8.5625-2.7969 7.4844 0 12 5.2969t4.5156 14.078v2zm17.922 3.7188v-31.203h-8.9844v8.2969q-3.0781-4.9688-7.6719-7.3438t-11.234-2.375q-8.3906 0-13.359 4.7188-4.9531 4.7188-4.9531 12.625 0 9.2188 6.1719 13.906 6.1875 4.6875 18.438 4.6875h12.609v0.89062q0 6.2031-4.0781 9.5938t-11.453 3.3906q-4.6875 0-9.1406-1.125-4.4375-1.125-8.5312-3.375v8.3125q4.9219 1.9062 9.5625 2.8438 4.6406 0.95312 9.0312 0.95312 11.875 0 17.734-6.1562 5.8594-6.1406 5.8594-18.641z"/>
<path id="l" d="m9.4219 75.984h8.9844v-75.984h-8.9844z"/>
</defs>
<g transform="translate(1593.8 933.35) rotate(90) scale(.08 -.08)">
<use xlink:href="#k"/>
<use x="44.083984" xlink:href="#c"/>
<use x="105.607422" xlink:href="#g"/>
<use x="144.970703" xlink:href="#j"/>
<use x="242.382812" xlink:href="#h"/>
<use x="270.166016" xlink:href="#f"/>
<use x="333.544922" xlink:href="#i"/>
<use x="394.824219" xlink:href="#l"/>
</g>
</g>
<path d="m1744.2 819.4 3.1251-3.3771q1.6301-1.7615-0.13144-3.3916l-5.6827-5.2587q-1.7615-1.6301-3.3916 0.13144l-3.1251 3.3771q-1.6301 1.7615 0.13144 3.3916l5.6827 5.2587q1.7615 1.6301 3.3916-0.13144z" clip-path="url(#a)" fill="#fff" stroke="#fff"/>
<g clip-path="url(#a)">
<defs>
<path id="ak" d="m9.8125 72.906h41.891v-8.3125h-32.031v-21.484h28.906v-8.2969h-28.906v-34.812h-9.8594z"/>
</defs>
<g transform="translate(1741.3 816.64) rotate(-47.219) scale(.08 -.08)">
<use xlink:href="#ak"/>
</g>
</g>
<path d="m1788.1 817.96 1.6623-5.2139q0.72903-2.2866-1.5576-3.0156l-7.3766-2.3519q-2.2866-0.72903-3.0156 1.5576l-1.6623 5.2139q-0.72903 2.2866 1.5576 3.0156l7.3766 2.3519q2.2866 0.72903 3.0156-1.5576z" clip-path="url(#a)" fill="#fff" stroke="#fff"/>
<g clip-path="url(#a)">
<g transform="translate(1784.2 816.73) rotate(-72.316) scale(.08 -.08)">
<use xlink:href="#m"/>
</g>
</g>
<path d="m1817.8 808.97 3.8444 12.676q0.69654 2.2967 2.9932 1.6002l7.6557-2.3218q2.2967-0.69654 1.6002-2.9932l-3.8444-12.676q-0.69654-2.2967-2.9932-1.6002l-7.6557 2.3218q-2.2967 0.69654-1.6002 2.9932z" clip-path="url(#a)" fill="#fff" stroke="#fff"/>
<g clip-path="url(#a)">
<defs>
<path id="at" d="m21 76.422v-100h-8.2969v100z"/>
</defs>
<g transform="translate(1821.9 807.72) rotate(73.129) scale(.08 -.08)">
<use xlink:href="#m"/>
<use x="68.408203" xlink:href="#at"/>
<use x="102.099609" xlink:href="#w"/>
</g>
</g>
<path d="m1863.2 815.61 4.0123 4.2641q1.6447 1.7479 3.3925 0.10324l5.6388-5.3057q1.7479-1.6447 0.10324-3.3925l-4.0123-4.2641q-1.6447-1.7479-3.3925-0.10324l-5.6388 5.3057q-1.7479 1.6447-0.10324 3.3925z" clip-path="url(#a)" fill="#fff" stroke="#fff"/>
<g clip-path="url(#a)">
<g transform="translate(1866.1 812.83) rotate(46.743) scale(.08 -.08)">
<use xlink:href="#r"/>
</g>
</g>
<path d="m1671.2 933.35v33.808q0 2.4 2.4 2.4h7.7425q2.4 0 2.4-2.4v-33.808q0-2.4-2.4-2.4h-7.7425q-2.4 0-2.4 2.4z" clip-path="url(#a)" fill="#fff" stroke="#fff"/>
<g clip-path="url(#a)">
<g transform="translate(1675.3 933.35) rotate(90) scale(.08 -.08)">
<use xlink:href="#k"/>
<use x="44.083984" xlink:href="#c"/>
<use x="105.607422" xlink:href="#g"/>
<use x="144.970703" xlink:href="#j"/>
<use x="242.382812" xlink:href="#h"/>
<use x="270.166016" xlink:href="#f"/>
<use x="333.544922" xlink:href="#i"/>
<use x="394.824219" xlink:href="#l"/>
</g>
</g>
<path d="m1754.7 933.35v33.808q0 2.4 2.4 2.4h7.7425q2.4 0 2.4-2.4v-33.808q0-2.4-2.4-2.4h-7.7425q-2.4 0-2.4 2.4z" clip-path="url(#a)" fill="#fff" stroke="#fff"/>
<g clip-path="url(#a)">
<g transform="translate(1758.8 933.35) rotate(90) scale(.08 -.08)">
<use xlink:href="#k"/>
<use x="44.083984" xlink:href="#c"/>
<use x="105.607422" xlink:href="#g"/>
<use x="144.970703" xlink:href="#j"/>
<use x="242.382812" xlink:href="#h"/>
<use x="270.166016" xlink:href="#f"/>
<use x="333.544922" xlink:href="#i"/>
<use x="394.824219" xlink:href="#l"/>
</g>
</g>
<path d="m1840.4 933.35v33.808q0 2.4 2.4 2.4h7.7425q2.4 0 2.4-2.4v-33.808q0-2.4-2.4-2.4h-7.7425q-2.4 0-2.4 2.4z" clip-path="url(#a)" fill="#fff" stroke="#fff"/>
<g clip-path="url(#a)">
<g transform="translate(1844.5 933.35) rotate(90) scale(.08 -.08)">
<use xlink:href="#k"/>
<use x="44.083984" xlink:href="#c"/>
<use x="105.607422" xlink:href="#g"/>
<use x="144.970703" xlink:href="#j"/>
<use x="242.382812" xlink:href="#h"/>
<use x="270.166016" xlink:href="#f"/>
<use x="333.544922" xlink:href="#i"/>
<use x="394.824219" xlink:href="#l"/>
</g>
</g>
<path d="m1214.9 933.35v33.808q0 2.4 2.4 2.4h7.7425q2.4 0 2.4-2.4v-33.808q0-2.4-2.4-2.4h-7.7425q-2.4 0-2.4 2.4z" clip-path="url(#a)" fill="#fff" stroke="#fff"/>
<g clip-path="url(#a)">
<g transform="translate(1218.9 933.35) rotate(90) scale(.08 -.08)">
<use xlink:href="#k"/>
<use x="44.083984" xlink:href="#c"/>
<use x="105.607422" xlink:href="#g"/>
<use x="144.970703" xlink:href="#j"/>
<use x="242.382812" xlink:href="#h"/>
<use x="270.166016" xlink:href="#f"/>
<use x="333.544922" xlink:href="#i"/>
<use x="394.824219" xlink:href="#l"/>
</g>
</g>
<path d="m1285.6 933.35v33.808q0 2.4 2.4 2.4h7.7425q2.4 0 2.4-2.4v-33.808q0-2.4-2.4-2.4h-7.7425q-2.4 0-2.4 2.4z" clip-path="url(#a)" fill="#fff" stroke="#fff"/>
<g clip-path="url(#a)">
<g transform="translate(1289.6 933.35) rotate(90) scale(.08 -.08)">
<use xlink:href="#k"/>
<use x="44.083984" xlink:href="#c"/>
<use x="105.607422" xlink:href="#g"/>
<use x="144.970703" xlink:href="#j"/>
<use x="242.382812" xlink:href="#h"/>
<use x="270.166016" xlink:href="#f"/>
<use x="333.544922" xlink:href="#i"/>
<use x="394.824219" xlink:href="#l"/>
</g>
</g>
<path d="m1358.4 933.35v33.808q0 2.4 2.4 2.4h7.7425q2.4 0 2.4-2.4v-33.808q0-2.4-2.4-2.4h-7.7425q-2.4 0-2.4 2.4z" clip-path="url(#a)" fill="#fff" stroke="#fff"/>
<g clip-path="url(#a)">
<g transform="translate(1362.5 933.35) rotate(90) scale(.08 -.08)">
<use xlink:href="#k"/>
<use x="44.083984" xlink:href="#c"/>
<use x="105.607422" xlink:href="#g"/>
<use x="144.970703" xlink:href="#j"/>
<use x="242.382812" xlink:href="#h"/>
<use x="270.166016" xlink:href="#f"/>
<use x="333.544922" xlink:href="#i"/>
<use x="394.824219" xlink:href="#l"/>
</g>
</g>
<path d="m342.31 542 3.0609-5.1794q1.2211-2.0662-0.84509-3.2872l-6.6655-3.9392q-2.0662-1.2211-3.2872 0.84509l-3.0609 5.1794q-1.2211 2.0662 0.84509 3.2872l6.6655 3.9392q2.0662 1.2211 3.2872-0.84509z" clip-path="url(#a)" fill="#fff" stroke="#fff"/>
<g clip-path="url(#a)">
<g transform="translate(338.81 539.93) rotate(-59.418) scale(.08 -.08)">
<use xlink:href="#y"/>
</g>
</g>
<path d="m400.03 403.98 4.0749-4.4261q1.6256-1.7657-0.1401-3.3912l-5.6961-5.2441q-1.7657-1.6256-3.3912 0.1401l-4.0749 4.4261q-1.6256 1.7657 0.1401 3.3912l5.6961 5.2441q1.7657 1.6256 3.3912-0.1401z" clip-path="url(#a)" fill="#fff" stroke="#fff"/>
<g clip-path="url(#a)">
<g transform="translate(397.04 401.22) rotate(-47.366) scale(.08 -.08)">
<use xlink:href="#y"/>
</g>
</g>
<path d="m638.82 538.12 3.9816 4.5102q1.5884 1.7992 3.3876 0.21084l5.8043-5.1241q1.7992-1.5884 0.21084-3.3876l-3.9816-4.5102q-1.5884-1.7992-3.3876-0.21084l-5.8043 5.1241q-1.7992 1.5884-0.21084 3.3876z" clip-path="url(#a)" fill="#fff" stroke="#fff"/>
<g clip-path="url(#a)">
<g transform="translate(641.87 535.43) rotate(48.562) scale(.08 -.08)">
<use xlink:href="#y"/>
</g>
</g>
<path d="m362.02 610.05 2.0632-5.4794q0.84573-2.246-1.4003-3.0918l-7.2458-2.7284q-2.246-0.84573-3.0918 1.4003l-2.0632 5.4794q-0.84573 2.246 1.4003 3.0918l7.2458 2.7284q2.246 0.84573 3.0918-1.4003z" clip-path="url(#a)" fill="#fff" stroke="#fff"/>
<g clip-path="url(#a)">
<g transform="translate(358.22 608.61) rotate(-69.367) scale(.08 -.08)">
<use xlink:href="#r"/>
</g>
</g>
<path d="m562.37 604.64 2.1203 5.4576q0.86913 2.2371 3.1062 1.368l7.217-2.8038q2.2371-0.86913 1.368-3.1062l-2.1203-5.4576q-0.86913-2.2371-3.1062-1.368l-7.217 2.8038q-2.2371 0.86913-1.368 3.1062z" clip-path="url(#a)" fill="#fff" stroke="#fff"/>
<g clip-path="url(#a)">
<g transform="translate(566.16 603.17) rotate(68.768) scale(.08 -.08)">
<use xlink:href="#r"/>
</g>
</g>
<path d="m215.45 816.51 0.43285-5.0603q0.20455-2.3913-2.1867-2.5958l-7.7143-0.65988q-2.3913-0.20455-2.5958 2.1867l-0.43285 5.0603q-0.20455 2.3913 2.1867 2.5958l7.7143 0.65988q2.3913 0.20455 2.5958-2.1867z" clip-path="url(#a)" fill="#fff" stroke="#fff"/>
<g clip-path="url(#a)">
<g transform="translate(211.4 816.17) rotate(-85.111) scale(.08 -.08)">
<use xlink:href="#w"/>
</g>
</g>
<path d="m214.72 811.26 0.46641 5.4526q0.20455 2.3913 2.5958 2.1867l7.7143-0.65988q2.3913-0.20455 2.1867-2.5958l-0.46641-5.4526q-0.20455-2.3913-2.5958-2.1867l-7.7143 0.65988q-2.3913 0.20455-2.1867 2.5958z" clip-path="url(#a)" fill="#fff" stroke="#fff"/>
<g clip-path="url(#a)">
<g transform="translate(218.77 810.91) rotate(85.111) scale(.08 -.08)">
<use xlink:href="#m"/>
</g>
</g>
<path d="m312.87 678.25 0.68894-5.429q0.30214-2.3809-2.0788-2.683l-7.6809-0.97471q-2.3809-0.30214-2.683 2.0788l-0.68894 5.429q-0.30214 2.3809 2.0788 2.683l7.6809 0.97471q2.3809 0.30214 2.683-2.0788z" clip-path="url(#a)" fill="#fff" stroke="#fff"/>
<g clip-path="url(#a)">
<g transform="translate(308.84 677.73) rotate(-82.768) scale(.08 -.08)">
<use xlink:href="#m"/>
</g>
</g>
<path d="m328.11 677.62 0.27717-5.0712q0.13098-2.3964-2.2654-2.5274l-7.731-0.42254q-2.3964-0.13098-2.5274 2.2654l-0.27717 5.0712q-0.13098 2.3964 2.2654 2.5274l7.731 0.42254q2.3964 0.13098 2.5274-2.2654z" clip-path="url(#a)" fill="#fff" stroke="#fff"/>
<g clip-path="url(#a)">
<g transform="translate(324.05 677.4) rotate(-86.872) scale(.08 -.08)">
<use xlink:href="#w"/>
</g>
</g>
<path d="m364.2 537.22 2.6095 4.8103q1.1444 2.1096 3.254 0.96514l6.8056-3.692q2.1096-1.1444 0.96514-3.254l-2.6095-4.8103q-1.1444-2.1096-3.254-0.96514l-6.8056 3.692q-2.1096 1.1444-0.96514 3.254z" clip-path="url(#a)" fill="#fff" stroke="#fff"/>
<g clip-path="url(#a)">
<g transform="translate(367.77 535.28) rotate(61.52) scale(.08 -.08)">
<use xlink:href="#m"/>
</g>
</g>
<path d="m796.67 818.58 2.3189-4.301q1.139-2.1125-0.97354-3.2515l-6.8151-3.6744q-2.1125-1.139-3.2515 0.97354l-2.3189 4.301q-1.139 2.1125 0.97354 3.2515l6.8151 3.6744q2.1125 1.139 3.2515-0.97354z" clip-path="url(#a)" fill="#fff" stroke="#fff"/>
<g clip-path="url(#a)">
<g transform="translate(793.1 816.65) rotate(-61.668) scale(.08 -.08)">
<use xlink:href="#k"/>
</g>
</g>
<path d="m827.13 811.09 0.32568 5.4628q0.14283 2.3957 2.5386 2.2529l7.7288-0.46078q2.3957-0.14283 2.2529-2.5386l-0.32568-5.4628q-0.14283-2.3957-2.5386-2.2529l-7.7288 0.46078q-2.3957 0.14283-2.2529 2.5386z" clip-path="url(#a)" fill="#fff" stroke="#fff"/>
<g clip-path="url(#a)">
<g transform="translate(831.19 810.85) rotate(86.588) scale(.08 -.08)">
<use xlink:href="#m"/>
</g>
</g>
<path d="m855.72 813.87 2.196 4.5794q1.0377 2.164 3.2018 1.1263l6.9813-3.3478q2.164-1.0377 1.1263-3.2018l-2.196-4.5794q-1.0377-2.164-3.2018-1.1263l-6.9813 3.3478q-2.164 1.0377-1.1263 3.2018z" clip-path="url(#a)" fill="#fff" stroke="#fff"/>
<g clip-path="url(#a)">
<g transform="translate(859.39 812.11) rotate(64.38) scale(.08 -.08)">
<use xlink:href="#w"/>
</g>
</g>
<path d="m744.67 968.05 6.5381-33.169q0.46414-2.3547-1.8906-2.8188l-7.5963-1.4973q-2.3547-0.46414-2.8188 1.8906l-6.5381 33.169q-0.46414 2.3547 1.8906 2.8188l7.5963 1.4973q2.3547 0.46414 2.8188-1.8906z" clip-path="url(#a)" fill="#fff" stroke="#fff"/>
<g clip-path="url(#a)">
<g transform="translate(740.69 967.26) rotate(-78.849) scale(.08 -.08)">
<use xlink:href="#k"/>
<use x="44.083984" xlink:href="#c"/>
<use x="105.607422" xlink:href="#g"/>
<use x="144.970703" xlink:href="#j"/>
<use x="242.382812" xlink:href="#h"/>
<use x="270.166016" xlink:href="#f"/>
<use x="333.544922" xlink:href="#i"/>
<use x="394.824219" xlink:href="#l"/>
</g>
</g>
<path d="m759.15 934.88 6.5381 33.169q0.46414 2.3547 2.8188 1.8906l7.5963-1.4973q2.3547-0.46414 1.8906-2.8188l-6.5381-33.169q-0.46414-2.3547-2.8188-1.8906l-7.5963 1.4973q-2.3547 0.46414-1.8906 2.8188z" clip-path="url(#a)" fill="#fff" stroke="#fff"/>
<g clip-path="url(#a)">
<g transform="translate(763.13 934.09) rotate(78.849) scale(.08 -.08)">
<use xlink:href="#k"/>
<use x="44.083984" xlink:href="#c"/>
<use x="105.607422" xlink:href="#g"/>
<use x="144.970703" xlink:href="#j"/>
<use x="242.382812" xlink:href="#h"/>
<use x="270.166016" xlink:href="#f"/>
<use x="333.544922" xlink:href="#i"/>
<use x="394.824219" xlink:href="#l"/>
</g>
</g>
<path d="m831.39 933.35v33.808q0 2.4 2.4 2.4h7.7425q2.4 0 2.4-2.4v-33.808q0-2.4-2.4-2.4h-7.7425q-2.4 0-2.4 2.4z" clip-path="url(#a)" fill="#fff" stroke="#fff"/>
<g clip-path="url(#a)">
<g transform="translate(835.45 933.35) rotate(90) scale(.08 -.08)">
<use xlink:href="#k"/>
<use x="44.083984" xlink:href="#c"/>
<use x="105.607422" xlink:href="#g"/>
<use x="144.970703" xlink:href="#j"/>
<use x="242.382812" xlink:href="#h"/>
<use x="270.166016" xlink:href="#f"/>
<use x="333.544922" xlink:href="#i"/>
<use x="394.824219" xlink:href="#l"/>
</g>
</g>
<path d="m889.23 933.35v33.808q0 2.4 2.4 2.4h7.7425q2.4 0 2.4-2.4v-33.808q0-2.4-2.4-2.4h-7.7425q-2.4 0-2.4 2.4z" clip-path="url(#a)" fill="#fff" stroke="#fff"/>
<g clip-path="url(#a)">
<g transform="translate(893.3 933.35) rotate(90) scale(.08 -.08)">
<use xlink:href="#k"/>
<use x="44.083984" xlink:href="#c"/>
<use x="105.607422" xlink:href="#g"/>
<use x="144.970703" xlink:href="#j"/>
<use x="242.382812" xlink:href="#h"/>
<use x="270.166016" xlink:href="#f"/>
<use x="333.544922" xlink:href="#i"/>
<use x="394.824219" xlink:href="#l"/>
</g>
</g>
<path d="m274.38 933.35v33.808q0 2.4 2.4 2.4h7.7425q2.4 0 2.4-2.4v-33.808q0-2.4-2.4-2.4h-7.7425q-2.4 0-2.4 2.4z" clip-path="url(#a)" fill="#fff" stroke="#fff"/>
<g clip-path="url(#a)">
<g transform="translate(278.44 933.35) rotate(90) scale(.08 -.08)">
<use xlink:href="#k"/>
<use x="44.083984" xlink:href="#c"/>
<use x="105.607422" xlink:href="#g"/>
<use x="144.970703" xlink:href="#j"/>
<use x="242.382812" xlink:href="#h"/>
<use x="270.166016" xlink:href="#f"/>
<use x="333.544922" xlink:href="#i"/>
<use x="394.824219" xlink:href="#l"/>
</g>
</g>
<path d="m304.37 933.35v33.808q0 2.4 2.4 2.4h7.7425q2.4 0 2.4-2.4v-33.808q0-2.4-2.4-2.4h-7.7425q-2.4 0-2.4 2.4z" clip-path="url(#a)" fill="#fff" stroke="#fff"/>
<g clip-path="url(#a)">
<g transform="translate(308.43 933.35) rotate(90) scale(.08 -.08)">
<use xlink:href="#k"/>
<use x="44.083984" xlink:href="#c"/>
<use x="105.607422" xlink:href="#g"/>
<use x="144.970703" xlink:href="#j"/>
<use x="242.382812" xlink:href="#h"/>
<use x="270.166016" xlink:href="#f"/>
<use x="333.544922" xlink:href="#i"/>
<use x="394.824219" xlink:href="#l"/>
</g>
</g>
<path d="m381.31 747.91 1.0683-4.4755q0.5572-2.3344-1.7772-2.8916l-7.5309-1.7976q-2.3344-0.5572-2.8916 1.7772l-1.0683 4.4755q-0.5572 2.3344 1.7772 2.8916l7.5309 1.7976q2.3344 0.5572 2.8916-1.7772z" clip-path="url(#a)" fill="#fff" stroke="#fff"/>
<g clip-path="url(#a)">
<g transform="translate(377.36 746.96) rotate(-76.575) scale(.08 -.08)">
<use xlink:href="#ak"/>
</g>
</g>
<path d="m398.79 747.7 0.63599-5.5499q0.27324-2.3844-2.1112-2.6576l-7.6922-0.88148q-2.3844-0.27324-2.6576 2.1112l-0.63599 5.5499q-0.27324 2.3844 2.1112 2.6576l7.6922 0.88148q2.3844 0.27324 2.6576-2.1112z" clip-path="url(#a)" fill="#fff" stroke="#fff"/>
<g clip-path="url(#a)">
<defs>
<path id="am" d="m64.406 67.281v-10.391q-4.9844 4.6406-10.625 6.9219-5.6406 2.2969-11.984 2.2969-12.5 0-19.141-7.6406t-6.6406-22.094q0-14.406 6.6406-22.047t19.141-7.6406q6.3438 0 11.984 2.2969t10.625 6.9375v-10.312q-5.1719-3.5156-10.969-5.2812-5.7812-1.75-12.219-1.75-16.562 0-26.094 10.125-9.5156 10.141-9.5156 27.672 0 17.578 9.5156 27.703 9.5312 10.141 26.094 10.141 6.5312 0 12.312-1.7344 5.7969-1.7344 10.875-5.2031z"/>
</defs>
<g transform="translate(394.76 747.24) rotate(-83.463) scale(.08 -.08)">
<use xlink:href="#am"/>
</g>
</g>
<path d="m448.5 676.73 2.8146 4.199q1.3363 1.9936 3.3299 0.65727l6.4313-4.3109q1.9936-1.3363 0.65727-3.3299l-2.8146-4.199q-1.3363-1.9936-3.3299-0.65727l-6.4313 4.3109q-1.9936 1.3363-0.65727 3.3299z" clip-path="url(#a)" fill="#fff" stroke="#fff"/>
<g clip-path="url(#a)">
<defs>
<path id="aq" d="m9.8125 72.906h46.094v-8.3125h-36.234v-21.578h34.719v-8.2969h-34.719v-26.422h37.109v-8.2969h-46.969z"/>
</defs>
<g transform="translate(451.88 674.47) rotate(56.166) scale(.08 -.08)">
<use xlink:href="#aq"/>
</g>
</g>
<path d="m404.77 741.39 0.10102 5.8541q0.041411 2.3996 2.4411 2.3582l7.7413-0.13359q2.3996-0.041411 2.3582-2.4411l-0.10102-5.8541q-0.041411-2.3996-2.4411-2.3582l-7.7413 0.13359q-2.3996 0.041411-2.3582 2.4411z" clip-path="url(#a)" fill="#fff" stroke="#fff"/>
<g clip-path="url(#a)">
<g transform="translate(408.83 741.32) rotate(89.011) scale(.08 -.08)">
<use xlink:href="#r"/>
</g>
</g>
<path d="m336.51 933.35v33.808q0 2.4 2.4 2.4h7.7425q2.4 0 2.4-2.4v-33.808q0-2.4-2.4-2.4h-7.7425q-2.4 0-2.4 2.4z" clip-path="url(#a)" fill="#fff" stroke="#fff"/>
<g clip-path="url(#a)">
<g transform="translate(340.57 933.35) rotate(90) scale(.08 -.08)">
<use xlink:href="#k"/>
<use x="44.083984" xlink:href="#c"/>
<use x="105.607422" xlink:href="#g"/>
<use x="144.970703" xlink:href="#j"/>
<use x="242.382812" xlink:href="#h"/>
<use x="270.166016" xlink:href="#f"/>
<use x="333.544922" xlink:href="#i"/>
<use x="394.824219" xlink:href="#l"/>
</g>
</g>
<path d="m370.78 933.35v33.808q0 2.4 2.4 2.4h7.7425q2.4 0 2.4-2.4v-33.808q0-2.4-2.4-2.4h-7.7425q-2.4 0-2.4 2.4z" clip-path="url(#a)" fill="#fff" stroke="#fff"/>
<g clip-path="url(#a)">
<g transform="translate(374.85 933.35) rotate(90) scale(.08 -.08)">
<use xlink:href="#k"/>
<use x="44.083984" xlink:href="#c"/>
<use x="105.607422" xlink:href="#g"/>
<use x="144.970703" xlink:href="#j"/>
<use x="242.382812" xlink:href="#h"/>
<use x="270.166016" xlink:href="#f"/>
<use x="333.544922" xlink:href="#i"/>
<use x="394.824219" xlink:href="#l"/>
</g>
</g>
<path d="m442.11 819.68 3.669-4.0604q1.6091-1.7807-0.17164-3.3898l-5.7446-5.1909q-1.7807-1.6091-3.3898 0.17164l-3.669 4.0604q-1.6091 1.7807 0.17164 3.3898l5.7446 5.1909q1.7807 1.6091 3.3898-0.17164z" clip-path="url(#a)" fill="#fff" stroke="#fff"/>
<g clip-path="url(#a)">
<g transform="translate(439.09 816.96) rotate(-47.899) scale(.08 -.08)">
<use xlink:href="#m"/>
</g>
</g>
<path d="m481.74 818.19 1.8795-5.2314q0.81146-2.2587-1.4472-3.0701l-7.2865-2.6178q-2.2587-0.81146-3.0701 1.4472l-1.8795 5.2314q-0.81146 2.2587 1.4472 3.0701l7.2865 2.6178q2.2587 0.81146 3.0701-1.4472z" clip-path="url(#a)" fill="#fff" stroke="#fff"/>
<g clip-path="url(#a)">
<defs>
<path id="av" d="m44.391 34.188q3.1719-1.0781 6.1719-4.5938t6.0312-9.6719l10.016-19.922h-10.609l-9.3125 18.703q-3.625 7.3281-7.0156 9.7188t-9.25 2.3906h-10.75v-30.812h-9.8594v72.906h22.266q12.5 0 18.656-5.2344 6.1562-5.2188 6.1562-15.766 0-6.8906-3.2031-11.438-3.2031-4.5312-9.2969-6.2812zm-24.719 30.609v-25.875h12.406q7.125 0 10.766 3.2969t3.6406 9.6875-3.6406 9.6406-10.766 3.25z"/>
</defs>
<g transform="translate(477.92 816.81) rotate(-70.238) scale(.08 -.08)">
<use xlink:href="#av"/>
</g>
</g>
<path d="m503.22 816.58 0.34825-5.4614q0.15273-2.3951-2.2424-2.5479l-7.7268-0.49271q-2.3951-0.15273-2.5479 2.2424l-0.34825 5.4614q-0.15273 2.3951 2.2424 2.5479l7.7268 0.49271q2.3951 0.15273 2.5479-2.2424z" clip-path="url(#a)" fill="#fff" stroke="#fff"/>
<g clip-path="url(#a)">
<g transform="translate(499.16 816.32) rotate(-86.351) scale(.08 -.08)">
<use xlink:href="#m"/>
</g>
</g>
<path d="m523.09 813.6 1.8322 4.4623q0.91157 2.2201 3.1317 1.3086l7.1623-2.9408q2.2201-0.91157 1.3086-3.1317l-1.8322-4.4623q-0.91157-2.2201-3.1317-1.3086l-7.1623 2.9408q-2.2201 0.91157-1.3086 3.1317z" clip-path="url(#a)" fill="#fff" stroke="#fff"/>
<g clip-path="url(#a)">
<g transform="translate(526.85 812.06) rotate(67.677) scale(.08 -.08)">
<use xlink:href="#x"/>
</g>
</g>
<path d="m557.91 815.41 4.1609 4.5423q1.6211 1.7697 3.3909 0.14857l5.7092-5.2299q1.7697-1.6211 0.14857-3.3909l-4.1609-4.5423q-1.6211-1.7697-3.3909-0.14857l-5.7092 5.2299q-1.7697 1.6211-0.14857 3.3909z" clip-path="url(#a)" fill="#fff" stroke="#fff"/>
<g clip-path="url(#a)">
<g transform="translate(560.91 812.67) rotate(47.509) scale(.08 -.08)">
<use xlink:href="#al"/>
</g>
</g>
<path d="m139.41 933.35v33.808q0 2.4 2.4 2.4h7.7425q2.4 0 2.4-2.4v-33.808q0-2.4-2.4-2.4h-7.7425q-2.4 0-2.4 2.4z" clip-path="url(#a)" fill="#fff" stroke="#fff"/>
<g clip-path="url(#a)">
<g transform="translate(143.47 933.35) rotate(90) scale(.08 -.08)">
<use xlink:href="#k"/>
<use x="44.083984" xlink:href="#c"/>
<use x="105.607422" xlink:href="#g"/>
<use x="144.970703" xlink:href="#j"/>
<use x="242.382812" xlink:href="#h"/>
<use x="270.166016" xlink:href="#f"/>
<use x="333.544922" xlink:href="#i"/>
<use x="394.824219" xlink:href="#l"/>
</g>
</g>
<path d="m445.77 933.35v33.808q0 2.4 2.4 2.4h7.7425q2.4 0 2.4-2.4v-33.808q0-2.4-2.4-2.4h-7.7425q-2.4 0-2.4 2.4z" clip-path="url(#a)" fill="#fff" stroke="#fff"/>
<g clip-path="url(#a)">
<g transform="translate(449.83 933.35) rotate(90) scale(.08 -.08)">
<use xlink:href="#k"/>
<use x="44.083984" xlink:href="#c"/>
<use x="105.607422" xlink:href="#g"/>
<use x="144.970703" xlink:href="#j"/>
<use x="242.382812" xlink:href="#h"/>
<use x="270.166016" xlink:href="#f"/>
<use x="333.544922" xlink:href="#i"/>
<use x="394.824219" xlink:href="#l"/>
</g>
</g>
<path d="m486.47 933.35v33.808q0 2.4 2.4 2.4h7.7425q2.4 0 2.4-2.4v-33.808q0-2.4-2.4-2.4h-7.7425q-2.4 0-2.4 2.4z" clip-path="url(#a)" fill="#fff" stroke="#fff"/>
<g clip-path="url(#a)">
<g transform="translate(490.53 933.35) rotate(90) scale(.08 -.08)">
<use xlink:href="#k"/>
<use x="44.083984" xlink:href="#c"/>
<use x="105.607422" xlink:href="#g"/>
<use x="144.970703" xlink:href="#j"/>
<use x="242.382812" xlink:href="#h"/>
<use x="270.166016" xlink:href="#f"/>
<use x="333.544922" xlink:href="#i"/>
<use x="394.824219" xlink:href="#l"/>
</g>
</g>
<path d="m550.26 967.95 5.5225-33.353q0.39204-2.3678-1.9757-2.7598l-7.6385-1.2647q-2.3678-0.39204-2.7598 1.9757l-5.5225 33.353q-0.39204 2.3678 1.9757 2.7598l7.6385 1.2647q2.3678 0.39204 2.7598-1.9757z" clip-path="url(#a)" fill="#fff" stroke="#fff"/>
<g clip-path="url(#a)">
<g transform="translate(546.25 967.29) rotate(-80.599) scale(.08 -.08)">
<use xlink:href="#k"/>
<use x="44.083984" xlink:href="#c"/>
<use x="105.607422" xlink:href="#g"/>
<use x="144.970703" xlink:href="#j"/>
<use x="242.382812" xlink:href="#h"/>
<use x="270.166016" xlink:href="#f"/>
<use x="333.544922" xlink:href="#i"/>
<use x="394.824219" xlink:href="#l"/>
</g>
</g>
<path d="m560.38 934.6 5.5225 33.353q0.39204 2.3678 2.7598 1.9757l7.6385-1.2647q2.3678-0.39204 1.9757-2.7598l-5.5225-33.353q-0.39204-2.3678-2.7598-1.9757l-7.6385 1.2647q-2.3678 0.39204-1.9757 2.7598z" clip-path="url(#a)" fill="#fff" stroke="#fff"/>
<g clip-path="url(#a)">
<g transform="translate(564.39 933.94) rotate(80.599) scale(.08 -.08)">
<use xlink:href="#k"/>
<use x="44.083984" xlink:href="#c"/>
<use x="105.607422" xlink:href="#g"/>
<use x="144.970703" xlink:href="#j"/>
<use x="242.382812" xlink:href="#h"/>
<use x="270.166016" xlink:href="#f"/>
<use x="333.544922" xlink:href="#i"/>
<use x="394.824219" xlink:href="#l"/>
</g>
</g>
<path d="m621.44 933.35v33.808q0 2.4 2.4 2.4h7.7425q2.4 0 2.4-2.4v-33.808q0-2.4-2.4-2.4h-7.7425q-2.4 0-2.4 2.4z" clip-path="url(#a)" fill="#fff" stroke="#fff"/>
<g clip-path="url(#a)">
<g transform="translate(625.5 933.35) rotate(90) scale(.08 -.08)">
<use xlink:href="#k"/>
<use x="44.083984" xlink:href="#c"/>
<use x="105.607422" xlink:href="#g"/>
<use x="144.970703" xlink:href="#j"/>
<use x="242.382812" xlink:href="#h"/>
<use x="270.166016" xlink:href="#f"/>
<use x="333.544922" xlink:href="#i"/>
<use x="394.824219" xlink:href="#l"/>
</g>
</g>
<path d="m197.25 933.35v33.808q0 2.4 2.4 2.4h7.7425q2.4 0 2.4-2.4v-33.808q0-2.4-2.4-2.4h-7.7425q-2.4 0-2.4 2.4z" clip-path="url(#a)" fill="#fff" stroke="#fff"/>
<g clip-path="url(#a)">
<g transform="translate(201.32 933.35) rotate(90) scale(.08 -.08)">
<use xlink:href="#k"/>
<use x="44.083984" xlink:href="#c"/>
<use x="105.607422" xlink:href="#g"/>
<use x="144.970703" xlink:href="#j"/>
<use x="242.382812" xlink:href="#h"/>
<use x="270.166016" xlink:href="#f"/>
<use x="333.544922" xlink:href="#i"/>
<use x="394.824219" xlink:href="#l"/>
</g>
</g>
<path d="m220.82 933.35v33.808q0 2.4 2.4 2.4h7.7425q2.4 0 2.4-2.4v-33.808q0-2.4-2.4-2.4h-7.7425q-2.4 0-2.4 2.4z" clip-path="url(#a)" fill="#fff" stroke="#fff"/>
<g clip-path="url(#a)">
<g transform="translate(224.88 933.35) rotate(90) scale(.08 -.08)">
<use xlink:href="#k"/>
<use x="44.083984" xlink:href="#c"/>
<use x="105.607422" xlink:href="#g"/>
<use x="144.970703" xlink:href="#j"/>
<use x="242.382812" xlink:href="#h"/>
<use x="270.166016" xlink:href="#f"/>
<use x="333.544922" xlink:href="#i"/>
<use x="394.824219" xlink:href="#l"/>
</g>
</g>
<path d="m85.85 933.35v33.808q0 2.4 2.4 2.4h7.7425q2.4 0 2.4-2.4v-33.808q0-2.4-2.4-2.4h-7.7425q-2.4 0-2.4 2.4z" clip-path="url(#a)" fill="#fff" stroke="#fff"/>
<g clip-path="url(#a)">
<g transform="translate(89.914 933.35) rotate(90) scale(.08 -.08)">
<use xlink:href="#k"/>
<use x="44.083984" xlink:href="#c"/>
<use x="105.607422" xlink:href="#g"/>
<use x="144.970703" xlink:href="#j"/>
<use x="242.382812" xlink:href="#h"/>
<use x="270.166016" xlink:href="#f"/>
<use x="333.544922" xlink:href="#i"/>
<use x="394.824219" xlink:href="#l"/>
</g>
</g>
<path d="m92.277 933.35v33.808q0 2.4 2.4 2.4h7.7425q2.4 0 2.4-2.4v-33.808q0-2.4-2.4-2.4h-7.7425q-2.4 0-2.4 2.4z" clip-path="url(#a)" fill="#fff" stroke="#fff"/>
<g clip-path="url(#a)">
<g transform="translate(96.341 933.35) rotate(90) scale(.08 -.08)">
<use xlink:href="#k"/>
<use x="44.083984" xlink:href="#c"/>
<use x="105.607422" xlink:href="#g"/>
<use x="144.970703" xlink:href="#j"/>
<use x="242.382812" xlink:href="#h"/>
<use x="270.166016" xlink:href="#f"/>
<use x="333.544922" xlink:href="#i"/>
<use x="394.824219" xlink:href="#l"/>
</g>
</g>
<path d="m115.96 816.43 0.21262-5.4684q0.093246-2.3982-2.3049-2.4914l-7.7367-0.30081q-2.3982-0.093245-2.4914 2.3049l-0.21262 5.4684q-0.093245 2.3982 2.3049 2.4914l7.7367 0.30081q2.3982 0.093245 2.4914-2.3049z" clip-path="url(#a)" fill="#fff" stroke="#fff"/>
<g clip-path="url(#a)">
<g transform="translate(111.9 816.27) rotate(-87.773) scale(.08 -.08)">
<use xlink:href="#m"/>
</g>
</g>
<path d="m108.5 807.08 0.51465 13.236q0.093245 2.3982 2.4914 2.3049l7.994-0.31082q2.3982-0.093245 2.3049-2.4914l-0.51465-13.236q-0.093246-2.3982-2.4914-2.3049l-7.994 0.31082q-2.3982 0.093245-2.3049 2.4914z" clip-path="url(#a)" fill="#fff" stroke="#fff"/>
<g clip-path="url(#a)">
<g transform="translate(112.78 806.91) rotate(87.773) scale(.08 -.08)">
<use xlink:href="#m"/>
<use x="68.408203" xlink:href="#at"/>
<use x="102.099609" xlink:href="#w"/>
</g>
</g>
<path d="m124.41 933.35v33.808q0 2.4 2.4 2.4h7.7425q2.4 0 2.4-2.4v-33.808q0-2.4-2.4-2.4h-7.7425q-2.4 0-2.4 2.4z" clip-path="url(#a)" fill="#fff" stroke="#fff"/>
<g clip-path="url(#a)">
<g transform="translate(128.48 933.35) rotate(90) scale(.08 -.08)">
<use xlink:href="#k"/>
<use x="44.083984" xlink:href="#c"/>
<use x="105.607422" xlink:href="#g"/>
<use x="144.970703" xlink:href="#j"/>
<use x="242.382812" xlink:href="#h"/>
<use x="270.166016" xlink:href="#f"/>
<use x="333.544922" xlink:href="#i"/>
<use x="394.824219" xlink:href="#l"/>
</g>
</g>
<path d="m100.85 933.35v33.808q0 2.4 2.4 2.4h7.7425q2.4 0 2.4-2.4v-33.808q0-2.4-2.4-2.4h-7.7425q-2.4 0-2.4 2.4z" clip-path="url(#a)" fill="#fff" stroke="#fff"/>
<g clip-path="url(#a)">
<g transform="translate(104.91 933.35) rotate(90) scale(.08 -.08)">
<use xlink:href="#k"/>
<use x="44.083984" xlink:href="#c"/>
<use x="105.607422" xlink:href="#g"/>
<use x="144.970703" xlink:href="#j"/>
<use x="242.382812" xlink:href="#h"/>
<use x="270.166016" xlink:href="#f"/>
<use x="333.544922" xlink:href="#i"/>
<use x="394.824219" xlink:href="#l"/>
</g>
</g>
<path d="m111.56 933.35v33.808q0 2.4 2.4 2.4h7.7425q2.4 0 2.4-2.4v-33.808q0-2.4-2.4-2.4h-7.7425q-2.4 0-2.4 2.4z" clip-path="url(#a)" fill="#fff" stroke="#fff"/>
<g clip-path="url(#a)">
<g transform="translate(115.62 933.35) rotate(90) scale(.08 -.08)">
<use xlink:href="#k"/>
<use x="44.083984" xlink:href="#c"/>
<use x="105.607422" xlink:href="#g"/>
<use x="144.970703" xlink:href="#j"/>
<use x="242.382812" xlink:href="#h"/>
<use x="270.166016" xlink:href="#f"/>
<use x="333.544922" xlink:href="#i"/>
<use x="394.824219" xlink:href="#l"/>
</g>
</g>
<path d="m156.55 933.35v33.808q0 2.4 2.4 2.4h7.7425q2.4 0 2.4-2.4v-33.808q0-2.4-2.4-2.4h-7.7425q-2.4 0-2.4 2.4z" clip-path="url(#a)" fill="#fff" stroke="#fff"/>
<g clip-path="url(#a)">
<g transform="translate(160.61 933.35) rotate(90) scale(.08 -.08)">
<use xlink:href="#k"/>
<use x="44.083984" xlink:href="#c"/>
<use x="105.607422" xlink:href="#g"/>
<use x="144.970703" xlink:href="#j"/>
<use x="242.382812" xlink:href="#h"/>
<use x="270.166016" xlink:href="#f"/>
<use x="333.544922" xlink:href="#i"/>
<use x="394.824219" xlink:href="#l"/>
</g>
</g>
<path d="m175.83 933.35v33.808q0 2.4 2.4 2.4h7.7425q2.4 0 2.4-2.4v-33.808q0-2.4-2.4-2.4h-7.7425q-2.4 0-2.4 2.4z" clip-path="url(#a)" fill="#fff" stroke="#fff"/>
<g clip-path="url(#a)">
<g transform="translate(179.89 933.35) rotate(90) scale(.08 -.08)">
<use xlink:href="#k"/>
<use x="44.083984" xlink:href="#c"/>
<use x="105.607422" xlink:href="#g"/>
<use x="144.970703" xlink:href="#j"/>
<use x="242.382812" xlink:href="#h"/>
<use x="270.166016" xlink:href="#f"/>
<use x="333.544922" xlink:href="#i"/>
<use x="394.824219" xlink:href="#l"/>
</g>
</g>
<path d="m246.53 933.35v33.808q0 2.4 2.4 2.4h7.7425q2.4 0 2.4-2.4v-33.808q0-2.4-2.4-2.4h-7.7425q-2.4 0-2.4 2.4z" clip-path="url(#a)" fill="#fff" stroke="#fff"/>
<g clip-path="url(#a)">
<g transform="translate(250.59 933.35) rotate(90) scale(.08 -.08)">
<use xlink:href="#k"/>
<use x="44.083984" xlink:href="#c"/>
<use x="105.607422" xlink:href="#g"/>
<use x="144.970703" xlink:href="#j"/>
<use x="242.382812" xlink:href="#h"/>
<use x="270.166016" xlink:href="#f"/>
<use x="333.544922" xlink:href="#i"/>
<use x="394.824219" xlink:href="#l"/>
</g>
</g>
<path d="m407.2 933.35v33.808q0 2.4 2.4 2.4h7.7425q2.4 0 2.4-2.4v-33.808q0-2.4-2.4-2.4h-7.7425q-2.4 0-2.4 2.4z" clip-path="url(#a)" fill="#fff" stroke="#fff"/>
<g clip-path="url(#a)">
<g transform="translate(411.27 933.35) rotate(90) scale(.08 -.08)">
<use xlink:href="#k"/>
<use x="44.083984" xlink:href="#c"/>
<use x="105.607422" xlink:href="#g"/>
<use x="144.970703" xlink:href="#j"/>
<use x="242.382812" xlink:href="#h"/>
<use x="270.166016" xlink:href="#f"/>
<use x="333.544922" xlink:href="#i"/>
<use x="394.824219" xlink:href="#l"/>
</g>
</g>
<path d="m670.71 933.35v33.808q0 2.4 2.4 2.4h7.7425q2.4 0 2.4-2.4v-33.808q0-2.4-2.4-2.4h-7.7425q-2.4 0-2.4 2.4z" clip-path="url(#a)" fill="#fff" stroke="#fff"/>
<g clip-path="url(#a)">
<g transform="translate(674.78 933.35) rotate(90) scale(.08 -.08)">
<use xlink:href="#k"/>
<use x="44.083984" xlink:href="#c"/>
<use x="105.607422" xlink:href="#g"/>
<use x="144.970703" xlink:href="#j"/>
<use x="242.382812" xlink:href="#h"/>
<use x="270.166016" xlink:href="#f"/>
<use x="333.544922" xlink:href="#i"/>
<use x="394.824219" xlink:href="#l"/>
</g>
</g>
<path d="m953.5 933.35v33.808q0 2.4 2.4 2.4h7.7425q2.4 0 2.4-2.4v-33.808q0-2.4-2.4-2.4h-7.7425q-2.4 0-2.4 2.4z" clip-path="url(#a)" fill="#fff" stroke="#fff"/>
<g clip-path="url(#a)">
<g transform="translate(957.57 933.35) rotate(90) scale(.08 -.08)">
<use xlink:href="#k"/>
<use x="44.083984" xlink:href="#c"/>
<use x="105.607422" xlink:href="#g"/>
<use x="144.970703" xlink:href="#j"/>
<use x="242.382812" xlink:href="#h"/>
<use x="270.166016" xlink:href="#f"/>
<use x="333.544922" xlink:href="#i"/>
<use x="394.824219" xlink:href="#l"/>
</g>
</g>
<path d="m1015.6 933.35v33.808q0 2.4 2.4 2.4h7.7425q2.4 0 2.4-2.4v-33.808q0-2.4-2.4-2.4h-7.7425q-2.4 0-2.4 2.4z" clip-path="url(#a)" fill="#fff" stroke="#fff"/>
<g clip-path="url(#a)">
<g transform="translate(1019.7 933.35) rotate(90) scale(.08 -.08)">
<use xlink:href="#k"/>
<use x="44.083984" xlink:href="#c"/>
<use x="105.607422" xlink:href="#g"/>
<use x="144.970703" xlink:href="#j"/>
<use x="242.382812" xlink:href="#h"/>
<use x="270.166016" xlink:href="#f"/>
<use x="333.544922" xlink:href="#i"/>
<use x="394.824219" xlink:href="#l"/>
</g>
</g>
<path d="m1079.9 933.35v33.808q0 2.4 2.4 2.4h7.7425q2.4 0 2.4-2.4v-33.808q0-2.4-2.4-2.4h-7.7425q-2.4 0-2.4 2.4z" clip-path="url(#a)" fill="#fff" stroke="#fff"/>
<g clip-path="url(#a)">
<g transform="translate(1084 933.35) rotate(90) scale(.08 -.08)">
<use xlink:href="#k"/>
<use x="44.083984" xlink:href="#c"/>
<use x="105.607422" xlink:href="#g"/>
<use x="144.970703" xlink:href="#j"/>
<use x="242.382812" xlink:href="#h"/>
<use x="270.166016" xlink:href="#f"/>
<use x="333.544922" xlink:href="#i"/>
<use x="394.824219" xlink:href="#l"/>
</g>
</g>
<path d="m1146.3 933.35v33.808q0 2.4 2.4 2.4h7.7425q2.4 0 2.4-2.4v-33.808q0-2.4-2.4-2.4h-7.7425q-2.4 0-2.4 2.4z" clip-path="url(#a)" fill="#fff" stroke="#fff"/>
<g clip-path="url(#a)">
<g transform="translate(1150.4 933.35) rotate(90) scale(.08 -.08)">
<use xlink:href="#k"/>
<use x="44.083984" xlink:href="#c"/>
<use x="105.607422" xlink:href="#g"/>
<use x="144.970703" xlink:href="#j"/>
<use x="242.382812" xlink:href="#h"/>
<use x="270.166016" xlink:href="#f"/>
<use x="333.544922" xlink:href="#i"/>
<use x="394.824219" xlink:href="#l"/>
</g>
</g>
<path d="m1433.4 933.35v33.808q0 2.4 2.4 2.4h7.7425q2.4 0 2.4-2.4v-33.808q0-2.4-2.4-2.4h-7.7425q-2.4 0-2.4 2.4z" clip-path="url(#a)" fill="#fff" stroke="#fff"/>
<g clip-path="url(#a)">
<g transform="translate(1437.5 933.35) rotate(90) scale(.08 -.08)">
<use xlink:href="#k"/>
<use x="44.083984" xlink:href="#c"/>
<use x="105.607422" xlink:href="#g"/>
<use x="144.970703" xlink:href="#j"/>
<use x="242.382812" xlink:href="#h"/>
<use x="270.166016" xlink:href="#f"/>
<use x="333.544922" xlink:href="#i"/>
<use x="394.824219" xlink:href="#l"/>
</g>
</g>
<path d="m1510.5 933.35v33.808q0 2.4 2.4 2.4h7.7425q2.4 0 2.4-2.4v-33.808q0-2.4-2.4-2.4h-7.7425q-2.4 0-2.4 2.4z" clip-path="url(#a)" fill="#fff" stroke="#fff"/>
<g clip-path="url(#a)">
<g transform="translate(1514.6 933.35) rotate(90) scale(.08 -.08)">
<use xlink:href="#k"/>
<use x="44.083984" xlink:href="#c"/>
<use x="105.607422" xlink:href="#g"/>
<use x="144.970703" xlink:href="#j"/>
<use x="242.382812" xlink:href="#h"/>
<use x="270.166016" xlink:href="#f"/>
<use x="333.544922" xlink:href="#i"/>
<use x="394.824219" xlink:href="#l"/>
</g>
</g>
<path d="m1928.3 933.35v33.808q0 2.4 2.4 2.4h7.7425q2.4 0 2.4-2.4v-33.808q0-2.4-2.4-2.4h-7.7425q-2.4 0-2.4 2.4z" clip-path="url(#a)" fill="#fff" stroke="#fff"/>
<g clip-path="url(#a)">
<g transform="translate(1932.3 933.35) rotate(90) scale(.08 -.08)">
<use xlink:href="#k"/>
<use x="44.083984" xlink:href="#c"/>
<use x="105.607422" xlink:href="#g"/>
<use x="144.970703" xlink:href="#j"/>
<use x="242.382812" xlink:href="#h"/>
<use x="270.166016" xlink:href="#f"/>
<use x="333.544922" xlink:href="#i"/>
<use x="394.824219" xlink:href="#l"/>
</g>
</g>
<defs>
<path id="b" d="m0 8.6603c2.2967 0 4.4997-0.9125 6.1237-2.5365 1.624-1.624 2.5365-3.827 2.5365-6.1237s-0.9125-4.4997-2.5365-6.1237c-1.624-1.624-3.827-2.5365-6.1237-2.5365s-4.4997 0.9125-6.1237 2.5365c-1.624 1.624-2.5365 3.827-2.5365 6.1237s0.9125 4.4997 2.5365 6.1237c1.624 1.624 3.827 2.5365 6.1237 2.5365z"/>
</defs>
<g clip-path="url(#a)" fill="#ffffff" stroke="#ffffff">
<use x="92.121212" y="1018.181818" xlink:href="#b"/>
<use x="98.548273" y="1018.181818" xlink:href="#b"/>
<use x="107.117689" y="1018.181818" xlink:href="#b"/>
<use x="117.829457" y="1018.181818" xlink:href="#b"/>
<use x="130.68358" y="1018.181818" xlink:href="#b"/>
<use x="145.680056" y="1018.181818" xlink:href="#b"/>
<use x="162.818887" y="1018.181818" xlink:href="#b"/>
<use x="182.10007" y="1018.181818" xlink:href="#b"/>
<use x="203.523608" y="1018.181818" xlink:href="#b"/>
<use x="227.0895" y="1018.181818" xlink:href="#b"/>
<use x="252.797745" y="1018.181818" xlink:href="#b"/>
<use x="280.648344" y="1018.181818" xlink:href="#b"/>
<use x="310.641297" y="1018.181818" xlink:href="#b"/>
<use x="342.776603" y="1018.181818" xlink:href="#b"/>
<use x="377.054264" y="1018.181818" xlink:href="#b"/>
<use x="413.474278" y="1018.181818" xlink:href="#b"/>
<use x="452.036646" y="1018.181818" xlink:href="#b"/>
<use x="492.741367" y="1018.181818" xlink:href="#b"/>
<use x="535.588443" y="1018.181818" xlink:href="#b"/>
<use x="580.577872" y="1018.181818" xlink:href="#b"/>
<use x="627.709655" y="1018.181818" xlink:href="#b"/>
<use x="676.983791" y="1018.181818" xlink:href="#b"/>
<use x="728.400282" y="1018.181818" xlink:href="#b"/>
<use x="781.959126" y="1018.181818" xlink:href="#b"/>
<use x="837.660324" y="1018.181818" xlink:href="#b"/>
<use x="895.503876" y="1018.181818" xlink:href="#b"/>
<use x="959.774489" y="1018.181818" xlink:href="#b"/>
<use x="1021.902748" y="1018.181818" xlink:href="#b"/>
<use x="1086.173362" y="1018.181818" xlink:href="#b"/>
<use x="1152.586328" y="1018.181818" xlink:href="#b"/>
<use x="1221.141649" y="1018.181818" xlink:href="#b"/>
<use x="1291.839323" y="1018.181818" xlink:href="#b"/>
<use x="1364.679352" y="1018.181818" xlink:href="#b"/>
<use x="1439.661734" y="1018.181818" xlink:href="#b"/>
<use x="1516.786469" y="1018.181818" xlink:href="#b"/>
<use x="1596.053559" y="1018.181818" xlink:href="#b"/>
<use x="1677.463002" y="1018.181818" xlink:href="#b"/>
<use x="1761.014799" y="1018.181818" xlink:href="#b"/>
<use x="1846.70895" y="1018.181818" xlink:href="#b"/>
<use x="1934.545455" y="1018.181818" xlink:href="#b"/>
<use x="899.788584" y="327.867753" xlink:href="#b"/>
<use x="899.788584" y="327.867753" xlink:href="#b"/>
<use x="681.106394" y="48.484848" xlink:href="#b"/>
<use x="108.45666" y="606.103765" xlink:href="#b"/>
<use x="461.57369" y="188.293252" xlink:href="#b"/>
<use x="1529.997651" y="606.103765" xlink:href="#b"/>
<use x="1292.553441" y="744.574749" xlink:href="#b"/>
<use x="1596.053559" y="882.323255" xlink:href="#b"/>
<use x="1804.933051" y="744.574749" xlink:href="#b"/>
<use x="1677.463002" y="882.323255" xlink:href="#b"/>
<use x="1761.014799" y="882.323255" xlink:href="#b"/>
<use x="1846.70895" y="882.323255" xlink:href="#b"/>
<use x="1221.141649" y="882.323255" xlink:href="#b"/>
<use x="1291.839323" y="882.323255" xlink:href="#b"/>
<use x="1364.679352" y="882.323255" xlink:href="#b"/>
<use x="461.57369" y="327.867753" xlink:href="#b"/>
<use x="215.306554" y="744.574749" xlink:href="#b"/>
<use x="333.332394" y="467.161505" xlink:href="#b"/>
<use x="829.447968" y="744.574749" xlink:href="#b"/>
<use x="755.179704" y="882.323255" xlink:href="#b"/>
<use x="837.660324" y="882.323255" xlink:href="#b"/>
<use x="895.503876" y="882.323255" xlink:href="#b"/>
<use x="280.648344" y="882.323255" xlink:href="#b"/>
<use x="310.641297" y="882.323255" xlink:href="#b"/>
<use x="408.707541" y="606.103765" xlink:href="#b"/>
<use x="342.776603" y="882.323255" xlink:href="#b"/>
<use x="377.054264" y="882.323255" xlink:href="#b"/>
<use x="501.525018" y="744.574749" xlink:href="#b"/>
<use x="145.680056" y="882.323255" xlink:href="#b"/>
<use x="452.036646" y="882.323255" xlink:href="#b"/>
<use x="492.741367" y="882.323255" xlink:href="#b"/>
<use x="558.083157" y="882.323255" xlink:href="#b"/>
<use x="627.709655" y="882.323255" xlink:href="#b"/>
<use x="203.523608" y="882.323255" xlink:href="#b"/>
<use x="227.0895" y="882.323255" xlink:href="#b"/>
<use x="92.121212" y="882.323255" xlink:href="#b"/>
<use x="98.548273" y="882.323255" xlink:href="#b"/>
<use x="112.473573" y="744.574749" xlink:href="#b"/>
<use x="130.68358" y="882.323255" xlink:href="#b"/>
<use x="107.117689" y="882.323255" xlink:href="#b"/>
<use x="117.829457" y="882.323255" xlink:href="#b"/>
<use x="162.818887" y="882.323255" xlink:href="#b"/>
<use x="182.10007" y="882.323255" xlink:href="#b"/>
<use x="252.797745" y="882.323255" xlink:href="#b"/>
<use x="413.474278" y="882.323255" xlink:href="#b"/>
<use x="676.983791" y="882.323255" xlink:href="#b"/>
<use x="959.774489" y="882.323255" xlink:href="#b"/>
<use x="1021.902748" y="882.323255" xlink:href="#b"/>
<use x="1086.173362" y="882.323255" xlink:href="#b"/>
<use x="1152.586328" y="882.323255" xlink:href="#b"/>
<use x="1439.661734" y="882.323255" xlink:href="#b"/>
<use x="1516.786469" y="882.323255" xlink:href="#b"/>
<use x="1934.545455" y="882.323255" xlink:href="#b"/>
</g>
<g clip-path="url(#a)">
<g transform="translate(86.906 1020.9) scale(.1 -.1)">
<use xlink:href="#aq"/>
<use x="63.183594" xlink:href="#g"/>
</g>
</g>
<g clip-path="url(#a)">
<defs>
<path id="ah" d="m4.2031 54.688h8.9844l11.234-42.672 11.172 42.672h10.594l11.234-42.672 11.188 42.672h8.9844l-14.312-54.688h-10.594l-11.766 44.828-11.812-44.828h-10.609z"/>
<path id="ba" d="m30.609 48.391q-7.2188 0-11.422-5.6406t-4.2031-15.453 4.1719-15.453q4.1875-5.6406 11.453-5.6406 7.1875 0 11.375 5.6562 4.2031 5.6719 4.2031 15.438 0 9.7188-4.2031 15.406-4.1875 5.6875-11.375 5.6875zm0 7.6094q11.719 0 18.406-7.625 6.7031-7.6094 6.7031-21.078 0-13.422-6.7031-21.078-6.6875-7.6406-18.406-7.6406-11.766 0-18.438 7.6406-6.6562 7.6562-6.6562 21.078 0 13.469 6.6562 21.078 6.6719 7.625 18.438 7.625z"/>
<path id="t" d="m18.312 70.219v-15.531h18.5v-6.9844h-18.5v-29.688q0-6.6875 1.8281-8.5938t7.4531-1.9062h9.2188v-7.5156h-9.2188q-10.406 0-14.359 3.875-3.9531 3.8906-3.9531 14.141v29.688h-6.5938v6.9844h6.5938v15.531z"/>
</defs>
<g transform="translate(83.585 1020.9) scale(.1 -.1)">
<use xlink:href="#ah"/>
<use x="81.787109" xlink:href="#ba"/>
<use x="142.96875" xlink:href="#l"/>
<use x="170.751953" xlink:href="#l"/>
<use x="198.535156" xlink:href="#t"/>
<use x="237.744141" xlink:href="#c"/>
</g>
</g>
<g clip-path="url(#a)">
<defs>
<path id="ad" d="m44.281 53.078v-8.5q-3.7969 1.9531-7.9062 2.9219-4.0938 0.98438-8.5 0.98438-6.6875 0-10.031-2.0469t-3.3438-6.1562q0-3.125 2.3906-4.9062t9.625-3.3906l3.0781-0.6875q9.5625-2.0469 13.594-5.7812t4.0312-10.422q0-7.625-6.0312-12.078-6.0312-4.4375-16.578-4.4375-4.3906 0-9.1562 0.85938t-10.031 2.5625v9.2812q4.9844-2.5938 9.8125-3.8906 4.8281-1.2812 9.5781-1.2812 6.3438 0 9.75 2.1719 3.4219 2.1719 3.4219 6.125 0 3.6562-2.4688 5.6094-2.4531 1.9531-10.812 3.7656l-3.125 0.73438q-8.3438 1.75-12.062 5.3906-3.7031 3.6406-3.7031 9.9844 0 7.7188 5.4688 11.906 5.4688 4.2031 15.531 4.2031 4.9688 0 9.3594-0.73438 4.4062-0.71875 8.1094-2.1875z"/>
</defs>
<g transform="translate(88.932 1020.9) scale(.1 -.1)">
<use xlink:href="#ad"/>
<use x="52.099609" xlink:href="#c"/>
<use x="113.623047" xlink:href="#h"/>
<use x="141.40625" xlink:href="#f"/>
<use x="204.785156" xlink:href="#c"/>
<use x="266.308594" xlink:href="#j"/>
</g>
</g>
<g clip-path="url(#a)">
<defs>
<path id="z" d="m8.5 21.578v33.109h8.9844v-32.766q0-7.7656 3.0156-11.656 3.0312-3.875 9.0938-3.875 7.2656 0 11.484 4.6406 4.2344 4.6406 4.2344 12.656v31h8.9844v-54.688h-8.9844v8.4062q-3.2656-4.9844-7.5938-7.4062-4.3125-2.4219-10.031-2.4219-9.4219 0-14.312 5.8594-4.875 5.8594-4.875 17.141z"/>
<path id="u" d="m45.406 46.391v29.594h8.9844v-75.984h-8.9844v8.2031q-2.8281-4.875-7.1562-7.25-4.3125-2.375-10.375-2.375-9.9062 0-16.141 7.9062-6.2188 7.9219-6.2188 20.812t6.2188 20.797q6.2344 7.9062 16.141 7.9062 6.0625 0 10.375-2.375 4.3281-2.3594 7.1562-7.2344zm-30.609-19.094q0-9.9062 4.0781-15.547t11.203-5.6406 11.219 5.6406q4.1094 5.6406 4.1094 15.547t-4.1094 15.547q-4.0938 5.6406-11.219 5.6406t-11.203-5.6406-4.0781-15.547z"/>
</defs>
<g transform="translate(100.78 1020.9) scale(.1 -.1)">
<use xlink:href="#ak"/>
<use x="50.269531" xlink:href="#g"/>
<use x="89.132812" xlink:href="#c"/>
<use x="150.65625" xlink:href="#z"/>
<use x="214.035156" xlink:href="#f"/>
<use x="277.414062" xlink:href="#u"/>
</g>
</g>
<g clip-path="url(#a)">
<defs>
<path id="aa" d="m54.891 33.016v-33.016h-8.9844v32.719q0 7.7656-3.0312 11.609-3.0312 3.8594-9.0781 3.8594-7.2812 0-11.484-4.6406-4.2031-4.625-4.2031-12.641v-30.906h-9.0312v75.984h9.0312v-29.797q3.2344 4.9375 7.5938 7.375 4.375 2.4375 10.094 2.4375 9.4219 0 14.25-5.8281 4.8438-5.8281 4.8438-17.156z"/>
<path id="bc" d="m37.109 75.984v-7.4844h-8.5938q-4.8281 0-6.7188-1.9531-1.875-1.9531-1.875-7.0312v-4.8281h14.797v-6.9844h-14.797v-47.703h-9.0312v47.703h-8.5938v6.9844h8.5938v3.8125q0 9.125 4.25 13.297 4.25 4.1875 13.469 4.1875z"/>
</defs>
<g transform="translate(115.04 1020.9) scale(.1 -.1)">
<use xlink:href="#aa"/>
<use x="63.378906" xlink:href="#c"/>
<use x="124.902344" xlink:href="#l"/>
<use x="152.685547" xlink:href="#bc"/>
<use x="187.890625" xlink:href="#c"/>
<use x="249.414062" xlink:href="#f"/>
</g>
</g>
<g clip-path="url(#a)">
<defs>
<path id="aw" d="m11.719 12.406h10.297v-12.406h-10.297zm0 39.297h10.297v-12.391h-10.297z"/>
</defs>
<g transform="translate(144 1020.9) scale(.1 -.1)">
<use xlink:href="#aw"/>
</g>
</g>
<g clip-path="url(#a)">
<defs>
<path id="ar" d="m4.8906 31.391h26.312v-8h-26.312z"/>
</defs>
<g transform="translate(161.01 1020.9) scale(.1 -.1)">
<use xlink:href="#ar"/>
</g>
</g>
<g clip-path="url(#a)">
<defs>
<path id="ag" d="m17.922 72.906v-27.109h-8.2969v27.109zm18.453 0v-27.109h-8.2969v27.109z"/>
</defs>
<g transform="translate(179.8 1020.9) scale(.1 -.1)">
<use xlink:href="#ag"/>
</g>
</g>
<g clip-path="url(#a)">
<defs>
<path id="ao" d="m3.3281 72.906h9.9531l15.328-61.625 15.281 61.625h11.094l15.328-61.625 15.281 61.625h10.016l-18.312-72.906h-12.406l-15.375 63.281-15.531-63.281h-12.406z"/>
<path id="as" d="m9.0781 55.516q0 9.7656 5.8281 15.109 5.8438 5.3594 16.484 5.3594 10.156 0 15.5-5.6719 5.3594-5.6562 5.5-16.594-7.375-0.39062-11.484-3.2031-4.0938-2.8125-4.0938-7.5 0-2.2969 1.4219-4.2812 1.4219-1.9688 4.5938-4.0156l2.7812-1.8125q8.1094-5.1719 10.453-8.6406t2.3438-8.3438q0-8.4062-5.5-12.875t-15.797-4.4688q-3.125 0-6.4531 0.60938-3.3125 0.60938-6.875 1.7969v8q3.9062-1.4688 7.3125-2.1719 3.4219-0.70312 6.6094-0.70312 5.6562 0 8.5781 2.3125 2.9375 2.3281 2.9375 6.7656 0 3.0781-1.4375 5.125t-6.375 5.0781l-4.4844 2.6875q-4.6875 2.875-6.8125 6.1719t-2.125 7.75q0 6.1875 4.0781 10.391t11.438 5.625q-0.39062 5.0156-3.5938 7.75-3.1875 2.7344-8.7031 2.7344-6.3438 0-9.6719-3.3906-3.3125-3.3906-3.3125-9.7812v-55.328h-9.1406z"/>
</defs>
<g transform="translate(189.3 1020.9) scale(.1 -.1)">
<use xlink:href="#ao"/>
<use x="93.001953" xlink:href="#c"/>
<use x="154.525391" xlink:href="#h"/>
<use x="182.308594" xlink:href="#as"/>
<use x="245.296875" xlink:href="#t"/>
</g>
</g>
<g clip-path="url(#a)">
<g transform="translate(220.75 1020.9) scale(.1 -.1)">
<use xlink:href="#u"/>
<use x="63.476562" xlink:href="#z"/>
</g>
</g>
<g clip-path="url(#a)">
<defs>
<path id="e" d="m10.688 12.406h10.312v-12.406h-10.312z"/>
</defs>
<g transform="translate(248.03 1020.9) scale(.1 -.1)">
<use xlink:href="#e"/>
<use x="31.787109" xlink:href="#e"/>
<use x="63.574219" xlink:href="#e"/>
</g>
</g>
<g clip-path="url(#a)">
<defs>
<path id="ai" d="m48.781 52.594v-8.4062q-3.8125 2.1094-7.6406 3.1562t-7.7344 1.0469q-8.75 0-13.594-5.5469-4.8281-5.5312-4.8281-15.547t4.8281-15.562q4.8438-5.5312 13.594-5.5312 3.9062 0 7.7344 1.0469t7.6406 3.1562v-8.3125q-3.7656-1.75-7.7969-2.625-4.0156-0.89062-8.5625-0.89062-12.359 0-19.641 7.7656-7.2656 7.7656-7.2656 20.953 0 13.375 7.3438 21.031 7.3594 7.6719 20.156 7.6719 4.1406 0 8.0938-0.85938 3.9531-0.84375 7.6719-2.5469z"/>
</defs>
<g transform="translate(273.34 1020.9) scale(.1 -.1)">
<use xlink:href="#h"/>
<use x="27.783203" xlink:href="#ai"/>
<use x="82.763672" xlink:href="#aa"/>
</g>
</g>
<g clip-path="url(#a)">
<g transform="translate(298.94 1020.9) scale(.1 -.1)">
<use xlink:href="#ah"/>
<use x="81.787109" xlink:href="#c"/>
<use x="143.310547" xlink:href="#h"/>
<use x="171.09375" xlink:href="#as"/>
</g>
</g>
<g clip-path="url(#a)">
<g transform="translate(328.9 1020.9) scale(.1 -.1)">
<use xlink:href="#c"/>
<use x="61.523438" xlink:href="#h"/>
<use x="89.306641" xlink:href="#f"/>
<use x="152.685547" xlink:href="#c"/>
<use x="214.208984" xlink:href="#f"/>
</g>
</g>
<g clip-path="url(#a)">
<defs>
<path id="au" d="m45.406 27.984q0 9.7656-4.0312 15.125-4.0156 5.375-11.297 5.375-7.2188 0-11.25-5.375-4.0312-5.3594-4.0312-15.125 0-9.7188 4.0312-15.094t11.25-5.375q7.2812 0 11.297 5.375 4.0312 5.375 4.0312 15.094zm8.9844-21.203q0-13.953-6.2031-20.766-6.1875-6.8125-18.984-6.8125-4.7344 0-8.9375 0.70312t-8.1562 2.1719v8.7344q3.9531-2.1406 7.8125-3.1562 3.8594-1.0312 7.8594-1.0312 8.8438 0 13.234 4.6094t4.3906 13.938v4.4531q-2.7812-4.8438-7.125-7.2344t-10.406-2.3906q-10.047 0-16.203 7.6562-6.1562 7.6719-6.1562 20.328 0 12.688 6.1562 20.344 6.1562 7.6719 16.203 7.6719 6.0625 0 10.406-2.3906t7.125-7.2188v8.2969h8.9844z"/>
</defs>
<g transform="translate(366.15 1020.9) scale(.1 -.1)">
<use xlink:href="#ao"/>
<use x="93.001953" xlink:href="#c"/>
<use x="154.525391" xlink:href="#au"/>
</g>
</g>
<g clip-path="url(#a)">
<defs>
<path id="an" d="m11.719 12.406h10.297v-8.4062l-8-15.625h-6.2969l4 15.625z"/>
</defs>
<g transform="translate(411.89 1020.9) scale(.1 -.1)">
<use xlink:href="#an"/>
</g>
</g>
<g clip-path="url(#a)">
<g transform="translate(443.48 1020.9) scale(.1 -.1)">
<use xlink:href="#ah"/>
<use x="81.787109" xlink:href="#h"/>
<use x="109.570312" xlink:href="#c"/>
</g>
</g>
<g clip-path="url(#a)">
<g transform="translate(486.4 1020.9) scale(.1 -.1)">
<use xlink:href="#u"/>
<use x="63.476562" xlink:href="#z"/>
</g>
</g>
<g clip-path="url(#a)">
<g transform="translate(525.11 1020.9) scale(.1 -.1)">
<use xlink:href="#u"/>
<use x="63.476562" xlink:href="#h"/>
<use x="91.259766" xlink:href="#ai"/>
<use x="146.240234" xlink:href="#aa"/>
</g>
</g>
<g clip-path="url(#a)">
<g transform="translate(557.1 1020.9) scale(.1 -.1)">
<use xlink:href="#i"/>
<use x="61.279297" xlink:href="#z"/>
<use x="124.658203" xlink:href="#ad"/>
<use x="176.757812" xlink:href="#g"/>
<use x="217.871094" xlink:href="#z"/>
<use x="281.25" xlink:href="#aa"/>
<use x="344.628906" xlink:href="#c"/>
<use x="406.152344" xlink:href="#f"/>
</g>
</g>
<g clip-path="url(#a)">
<defs>
<path id="bb" d="m9.0781 75.984h9.0312v-44.875l26.812 23.578h11.469l-29-25.578 30.234-29.109h-11.719l-27.797 26.703v-26.703h-9.0312z"/>
</defs>
<g transform="translate(610.94 1020.9) scale(.1 -.1)">
<use xlink:href="#bb"/>
<use x="56.160156" xlink:href="#i"/>
<use x="117.439453" xlink:href="#f"/>
<use x="180.818359" xlink:href="#f"/>
<use x="244.197266" xlink:href="#ad"/>
<use x="296.296875" xlink:href="#t"/>
</g>
</g>
<g clip-path="url(#a)">
<g transform="translate(675.39 1020.9) scale(.1 -.1)">
<use xlink:href="#an"/>
</g>
</g>
<g clip-path="url(#a)">
<g transform="translate(714.91 1020.9) scale(.1 -.1)">
<use xlink:href="#ah"/>
<use x="81.787109" xlink:href="#i"/>
<use x="143.066406" xlink:href="#f"/>
<use x="206.445312" xlink:href="#f"/>
</g>
</g>
<g clip-path="url(#a)">
<g transform="translate(765.7 1020.9) scale(.1 -.1)">
<use xlink:href="#h"/>
<use x="27.783203" xlink:href="#j"/>
<use x="125.195312" xlink:href="#j"/>
<use x="222.607422" xlink:href="#c"/>
<use x="284.130859" xlink:href="#g"/>
</g>
</g>
<g clip-path="url(#a)">
<g transform="translate(831.32 1020.9) scale(.1 -.1)">
<use xlink:href="#u"/>
<use x="63.476562" xlink:href="#z"/>
</g>
</g>
<g clip-path="url(#a)">
<defs>
<path id="ay" d="m30.609 48.391q-7.2188 0-11.422-5.6406t-4.2031-15.453 4.1719-15.453q4.1875-5.6406 11.453-5.6406 7.1875 0 11.375 5.6562 4.2031 5.6719 4.2031 15.438 0 9.7188-4.2031 15.406-4.1875 5.6875-11.375 5.6875zm0 7.6094q11.719 0 18.406-7.625 6.7031-7.6094 6.7031-21.078 0-13.422-6.7031-21.078-6.6875-7.6406-18.406-7.6406-11.766 0-18.438 7.6406-6.6562 7.6562-6.6562 21.078 0 13.469 6.6562 21.078 6.6719 7.625 18.438 7.625zm4.6094 19.781h9.9062v-9.8594h-9.9062zm-19.094 0h9.9062v-9.8594h-9.9062z"/>
</defs>
<g transform="translate(872.05 1020.9) scale(.1 -.1)">
<use xlink:href="#j"/>
<use x="97.412109" xlink:href="#ay"/>
<use x="158.59375" xlink:href="#ai"/>
<use x="213.574219" xlink:href="#aa"/>
<use x="276.953125" xlink:href="#t"/>
<use x="316.162109" xlink:href="#c"/>
<use x="377.685547" xlink:href="#ad"/>
<use x="429.785156" xlink:href="#t"/>
</g>
</g>
<g clip-path="url(#a)">
<g transform="translate(955.01 1020.9) scale(.1 -.1)">
<use xlink:href="#e"/>
<use x="31.787109" xlink:href="#e"/>
<use x="63.574219" xlink:href="#e"/>
</g>
</g>
<g clip-path="url(#a)">
<g transform="translate(1019.6 1020.9) scale(.1 -.1)">
<use xlink:href="#ag"/>
</g>
</g>
<g clip-path="url(#a)">
<g transform="translate(1084.4 1020.9) scale(.1 -.1)">
<use xlink:href="#ar"/>
</g>
</g>
<g clip-path="url(#a)">
<g transform="translate(1150.3 1020.9) scale(.1 -.1)">
<use xlink:href="#ag"/>
</g>
</g>
<g clip-path="url(#a)">
<defs>
<path id="v" d="m9.8125 72.906h9.8594v-72.906h-9.8594z"/>
</defs>
<g transform="translate(1204.8 1020.9) scale(.1 -.1)">
<use xlink:href="#v"/>
<use x="29.492188" xlink:href="#j"/>
<use x="126.904297" xlink:href="#j"/>
<use x="224.316406" xlink:href="#c"/>
<use x="285.839844" xlink:href="#g"/>
</g>
</g>
<g clip-path="url(#a)">
<g transform="translate(1283.5 1020.9) scale(.1 -.1)">
<use xlink:href="#aa"/>
<use x="63.378906" xlink:href="#c"/>
<use x="124.902344" xlink:href="#g"/>
</g>
</g>
<g clip-path="url(#a)">
<g transform="translate(1350.2 1020.9) scale(.1 -.1)">
<use xlink:href="#u"/>
<use x="63.476562" xlink:href="#i"/>
<use x="124.755859" xlink:href="#j"/>
<use x="222.167969" xlink:href="#h"/>
<use x="249.951172" xlink:href="#t"/>
</g>
</g>
<g clip-path="url(#a)">
<g transform="translate(1437.4 1020.9) scale(.1 -.1)">
<use xlink:href="#ag"/>
</g>
</g>
<g clip-path="url(#a)">
<g transform="translate(1515.2 1020.9) scale(.1 -.1)">
<use xlink:href="#an"/>
</g>
</g>
<g clip-path="url(#a)">
<g transform="translate(1582.2 1020.9) scale(.1 -.1)">
<use xlink:href="#ad"/>
<use x="52.099609" xlink:href="#i"/>
<use x="113.378906" xlink:href="#au"/>
<use x="176.855469" xlink:href="#t"/>
<use x="216.064453" xlink:href="#c"/>
</g>
</g>
<g clip-path="url(#a)">
<g transform="translate(1669.2 1020.9) scale(.1 -.1)">
<use xlink:href="#u"/>
<use x="63.476562" xlink:href="#c"/>
<use x="125" xlink:href="#g"/>
</g>
</g>
<g clip-path="url(#a)">
<defs>
<path id="aj" d="m9.8125 72.906h9.8594v-64.609h35.5v-8.2969h-45.359z"/>
</defs>
<g transform="translate(1738.7 1020.9) scale(.1 -.1)">
<use xlink:href="#aj"/>
<use x="55.712891" xlink:href="#i"/>
<use x="116.992188" xlink:href="#t"/>
<use x="156.201172" xlink:href="#c"/>
<use x="217.724609" xlink:href="#g"/>
<use x="257.087891" xlink:href="#f"/>
<use x="320.466797" xlink:href="#c"/>
<use x="381.990234" xlink:href="#f"/>
</g>
</g>
<g clip-path="url(#a)">
<defs>
<path id="az" d="m5.5156 54.688h42.672v-8.2031l-33.781-39.312h33.781v-7.1719h-43.891v8.2031l33.797 39.312h-32.578z"/>
<path id="ax" d="m8.5 21.578v33.109h8.9844v-32.766q0-7.7656 3.0156-11.656 3.0312-3.875 9.0938-3.875 7.2656 0 11.484 4.6406 4.2344 4.6406 4.2344 12.656v31h8.9844v-54.688h-8.9844v8.4062q-3.2656-4.9844-7.5938-7.4062-4.3125-2.4219-10.031-2.4219-9.4219 0-14.312 5.8594-4.875 5.8594-4.875 17.141zm22.609 34.422m4.4844 19.781h9.9062v-9.8594h-9.9062zm-19.094 0h9.9062v-9.8594h-9.9062z"/>
</defs>
<g transform="translate(1823.2 1020.9) scale(.1 -.1)">
<use xlink:href="#i"/>
<use x="61.279297" xlink:href="#f"/>
<use x="124.658203" xlink:href="#az"/>
<use x="177.148438" xlink:href="#ax"/>
<use x="240.527344" xlink:href="#f"/>
<use x="303.90625" xlink:href="#u"/>
<use x="367.382812" xlink:href="#c"/>
<use x="428.90625" xlink:href="#g"/>
</g>
</g>
<g clip-path="url(#a)">
<g transform="translate(1933 1020.9) scale(.1 -.1)">
<use xlink:href="#e"/>
</g>
</g>
<g clip-path="url(#a)">
<defs>
<path id="ap" d="m9.8125 72.906h14.703l18.594-49.609 18.703 49.609h14.703v-72.906h-9.625v64.016l-18.797-50h-9.9062l-18.797 50v-64.016h-9.5781z"/>
</defs>
<g transform="translate(878.7 330.63) scale(.1 -.1)">
<use xlink:href="#v"/>
<use x="29.492188" xlink:href="#ap"/>
<use x="115.771484" xlink:href="#x"/>
<use x="176.074219" xlink:href="#aj"/>
<use x="231.787109" xlink:href="#v"/>
<use x="261.279297" xlink:href="#am"/>
<use x="331.103516" xlink:href="#v"/>
<use x="360.595703" xlink:href="#k"/>
</g>
</g>
<g clip-path="url(#a)">
<g transform="translate(878.7 330.63) scale(.1 -.1)">
<use xlink:href="#v"/>
<use x="29.492188" xlink:href="#ap"/>
<use x="115.771484" xlink:href="#x"/>
<use x="176.074219" xlink:href="#aj"/>
<use x="231.787109" xlink:href="#v"/>
<use x="261.279297" xlink:href="#am"/>
<use x="331.103516" xlink:href="#v"/>
<use x="360.595703" xlink:href="#k"/>
</g>
</g>
<g clip-path="url(#a)">
<defs>
<path id="d" d="m12.406 8.2969h16.109v55.625l-17.531-3.5156v8.9844l17.438 3.5156h9.8594v-64.609h16.109v-8.2969h-41.984z"/>
</defs>
<g transform="translate(673.15 51.244) scale(.1 -.1)">
<use xlink:href="#d"/>
<use x="63.623047" xlink:href="#e"/>
<use x="95.410156" xlink:href="#d"/>
</g>
</g>
<g clip-path="url(#a)">
<defs>
<path id="q" d="m19.188 8.2969h34.422v-8.2969h-46.281v8.2969q5.6094 5.8125 15.297 15.594 9.7031 9.7969 12.188 12.641 4.7344 5.3125 6.6094 9 1.8906 3.6875 1.8906 7.25 0 5.8125-4.0781 9.4688-4.0781 3.6719-10.625 3.6719-4.6406 0-9.7969-1.6094-5.1406-1.6094-11-4.8906v9.9688q5.9531 2.3906 11.125 3.6094 5.1875 1.2188 9.4844 1.2188 11.328 0 18.062-5.6719 6.7344-5.6562 6.7344-15.125 0-4.5-1.6875-8.5312-1.6719-4.0156-6.125-9.4844-1.2188-1.4219-7.7656-8.1875-6.5312-6.7656-18.453-18.922z"/>
</defs>
<g transform="translate(100.51 608.86) scale(.1 -.1)">
<use xlink:href="#d"/>
<use x="63.623047" xlink:href="#e"/>
<use x="95.410156" xlink:href="#q"/>
</g>
</g>
<g clip-path="url(#a)">
<defs>
<path id="p" d="m40.578 39.312q7.0781-1.5156 11.047-6.3125 3.9844-4.7812 3.9844-11.812 0-10.781-7.4219-16.703-7.4219-5.9062-21.094-5.9062-4.5781 0-9.4375 0.90625t-10.031 2.7188v9.5156q4.0938-2.3906 8.9688-3.6094 4.8906-1.2188 10.219-1.2188 9.2656 0 14.125 3.6562t4.8594 10.641q0 6.4531-4.5156 10.078-4.5156 3.6406-12.562 3.6406h-8.5v8.1094h8.8906q7.2656 0 11.125 2.9062t3.8594 8.375q0 5.6094-3.9844 8.6094-3.9688 3.0156-11.391 3.0156-4.0625 0-8.7031-0.89062-4.6406-0.875-10.203-2.7188v8.7812q5.625 1.5625 10.531 2.3438t9.25 0.78125q11.234 0 17.766-5.1094 6.5469-5.0938 6.5469-13.781 0-6.0625-3.4688-10.234t-9.8594-5.7812z"/>
</defs>
<g transform="translate(453.62 191.05) scale(.1 -.1)">
<use xlink:href="#d"/>
<use x="63.623047" xlink:href="#e"/>
<use x="95.410156" xlink:href="#p"/>
</g>
</g>
<g clip-path="url(#a)">
<defs>
<path id="n" d="m37.797 64.312-24.906-38.922h24.906zm-2.5938 8.5938h12.406v-47.516h10.406v-8.2031h-10.406v-17.188h-9.8125v17.188h-32.906v9.5156z"/>
</defs>
<g transform="translate(1522 608.86) scale(.1 -.1)">
<use xlink:href="#d"/>
<use x="63.623047" xlink:href="#e"/>
<use x="95.410156" xlink:href="#n"/>
</g>
</g>
<g clip-path="url(#a)">
<g transform="translate(1281.4 747.33) scale(.1 -.1)">
<use xlink:href="#d"/>
<use x="63.623047" xlink:href="#e"/>
<use x="95.410156" xlink:href="#d"/>
<use x="159.033203" xlink:href="#p"/>
</g>
</g>
<g clip-path="url(#a)">
<g transform="translate(1584.9 885.08) scale(.1 -.1)">
<use xlink:href="#d"/>
<use x="63.623047" xlink:href="#e"/>
<use x="95.410156" xlink:href="#d"/>
<use x="159.033203" xlink:href="#n"/>
</g>
</g>
<g clip-path="url(#a)">
<defs>
<path id="o" d="m10.797 72.906h38.719v-8.3125h-29.688v-17.859q2.1406 0.73438 4.2812 1.0938 2.1562 0.35938 4.3125 0.35938 12.203 0 19.328-6.6875 7.1406-6.6875 7.1406-18.109 0-11.766-7.3281-18.297-7.3281-6.5156-20.656-6.5156-4.5938 0-9.3594 0.78125-4.75 0.78125-9.8281 2.3438v9.9219q4.3906-2.3906 9.0781-3.5625t9.9062-1.1719q8.4531 0 13.375 4.4375 4.9375 4.4375 4.9375 12.062 0 7.6094-4.9375 12.047-4.9219 4.4531-13.375 4.4531-3.9531 0-7.8906-0.875-3.9219-0.875-8.0156-2.7344z"/>
</defs>
<g transform="translate(1793.8 747.33) scale(.1 -.1)">
<use xlink:href="#d"/>
<use x="63.623047" xlink:href="#e"/>
<use x="95.410156" xlink:href="#d"/>
<use x="159.033203" xlink:href="#o"/>
</g>
</g>
<g clip-path="url(#a)">
<defs>
<path id="ac" d="m31.781 34.625q-7.0312 0-11.062-3.7656-4.0156-3.7656-4.0156-10.344 0-6.5938 4.0156-10.359 4.0312-3.7656 11.062-3.7656t11.078 3.7812q4.0625 3.7969 4.0625 10.344 0 6.5781-4.0312 10.344-4.0156 3.7656-11.109 3.7656zm-9.8594 4.1875q-6.3438 1.5625-9.8906 5.9062-3.5312 4.3594-3.5312 10.609 0 8.7344 6.2188 13.812 6.2344 5.0781 17.062 5.0781 10.891 0 17.094-5.0781t6.2031-13.812q0-6.25-3.5469-10.609-3.5312-4.3438-9.8281-5.9062 7.125-1.6562 11.094-6.5 3.9844-4.8281 3.9844-11.797 0-10.609-6.4688-16.281-6.4688-5.6562-18.531-5.6562-12.047 0-18.531 5.6562-6.4688 5.6719-6.4688 16.281 0 6.9688 4 11.797 4.0156 4.8438 11.141 6.5zm-3.6094 15.578q0-5.6562 3.5312-8.8281 3.5469-3.1719 9.9375-3.1719 6.3594 0 9.9375 3.1719 3.5938 3.1719 3.5938 8.8281 0 5.6719-3.5938 8.8438-3.5781 3.1719-9.9375 3.1719-6.3906 0-9.9375-3.1719-3.5312-3.1719-3.5312-8.8438z"/>
</defs>
<g transform="translate(1666.3 885.08) scale(.1 -.1)">
<use xlink:href="#d"/>
<use x="63.623047" xlink:href="#e"/>
<use x="95.410156" xlink:href="#d"/>
<use x="159.033203" xlink:href="#ac"/>
</g>
</g>
<g clip-path="url(#a)">
<defs>
<path id="ab" d="m10.984 1.5156v8.9844q3.7188-1.7656 7.5156-2.6875 3.8125-0.92188 7.4844-0.92188 9.7656 0 14.906 6.5625 5.1562 6.5625 5.8906 19.953-2.8281-4.2031-7.1875-6.4531-4.3438-2.25-9.6094-2.25-10.938 0-17.312 6.6094-6.375 6.625-6.375 18.109 0 11.219 6.6406 18 6.6406 6.7969 17.672 6.7969 12.656 0 19.312-9.7031 6.6719-9.6875 6.6719-28.141 0-17.234-8.1875-27.516-8.1719-10.281-21.984-10.281-3.7188 0-7.5312 0.73438-3.7969 0.73438-7.9062 2.2031zm19.625 30.906q6.6406 0 10.516 4.5312 3.8906 4.5469 3.8906 12.469 0 7.8594-3.8906 12.422-3.875 4.5625-10.516 4.5625t-10.516-4.5625-3.875-12.422q0-7.9219 3.875-12.469 3.875-4.5312 10.516-4.5312z"/>
</defs>
<g transform="translate(1749.9 885.08) scale(.1 -.1)">
<use xlink:href="#d"/>
<use x="63.623047" xlink:href="#e"/>
<use x="95.410156" xlink:href="#d"/>
<use x="159.033203" xlink:href="#ab"/>
</g>
</g>
<g clip-path="url(#a)">
<defs>
<path id="af" d="m31.781 66.406q-7.6094 0-11.453-7.5-3.8281-7.4844-3.8281-22.531 0-14.984 3.8281-22.484 3.8438-7.5 11.453-7.5 7.6719 0 11.5 7.5 3.8438 7.5 3.8438 22.484 0 15.047-3.8438 22.531-3.8281 7.5-11.5 7.5zm0 7.8125q12.266 0 18.734-9.7031 6.4688-9.6875 6.4688-28.141 0-18.406-6.4688-28.109-6.4688-9.6875-18.734-9.6875-12.25 0-18.719 9.6875-6.4688 9.7031-6.4688 28.109 0 18.453 6.4688 28.141 6.4688 9.7031 18.719 9.7031z"/>
</defs>
<g transform="translate(1835.6 885.08) scale(.1 -.1)">
<use xlink:href="#d"/>
<use x="63.623047" xlink:href="#e"/>
<use x="95.410156" xlink:href="#q"/>
<use x="159.033203" xlink:href="#af"/>
</g>
</g>
<g clip-path="url(#a)">
<g transform="translate(1210 885.08) scale(.1 -.1)">
<use xlink:href="#d"/>
<use x="63.623047" xlink:href="#e"/>
<use x="95.410156" xlink:href="#q"/>
<use x="159.033203" xlink:href="#d"/>
</g>
</g>
<g clip-path="url(#a)">
<g transform="translate(1280.7 885.08) scale(.1 -.1)">
<use xlink:href="#d"/>
<use x="63.623047" xlink:href="#e"/>
<use x="95.410156" xlink:href="#q"/>
<use x="159.033203" xlink:href="#q"/>
</g>
</g>
<g clip-path="url(#a)">
<g transform="translate(1353.5 885.08) scale(.1 -.1)">
<use xlink:href="#d"/>
<use x="63.623047" xlink:href="#e"/>
<use x="95.410156" xlink:href="#q"/>
<use x="159.033203" xlink:href="#p"/>
</g>
</g>
<g clip-path="url(#a)">
<defs>
<path id="s" d="m33.016 40.375q-6.6406 0-10.531-4.5469-3.875-4.5312-3.875-12.438 0-7.8594 3.875-12.438 3.8906-4.5625 10.531-4.5625t10.516 4.5625q3.875 4.5781 3.875 12.438 0 7.9062-3.875 12.438-3.875 4.5469-10.516 4.5469zm19.578 30.922v-8.9844q-3.7188 1.75-7.5 2.6719-3.7812 0.9375-7.5 0.9375-9.7656 0-14.922-6.5938-5.1406-6.5938-5.875-19.922 2.875 4.25 7.2188 6.5156 4.3594 2.2656 9.5781 2.2656 10.984 0 17.359-6.6719 6.375-6.6562 6.375-18.125 0-11.234-6.6406-18.031-6.6406-6.7812-17.672-6.7812-12.656 0-19.344 9.6875-6.6875 9.7031-6.6875 28.109 0 17.281 8.2031 27.562t22.016 10.281q3.7188 0 7.5-0.73438t7.8906-2.1875z"/>
</defs>
<g transform="translate(450.44 330.63) scale(.1 -.1)">
<use xlink:href="#d"/>
<use x="63.623047" xlink:href="#e"/>
<use x="95.410156" xlink:href="#q"/>
<use x="159.033203" xlink:href="#s"/>
</g>
</g>
<g clip-path="url(#a)">
<defs>
<path id="ae" d="m8.2031 72.906h46.875v-4.2031l-26.469-68.703h-10.297l24.906 64.594h-35.016z"/>
</defs>
<g transform="translate(204.17 747.33) scale(.1 -.1)">
<use xlink:href="#d"/>
<use x="63.623047" xlink:href="#e"/>
<use x="95.410156" xlink:href="#q"/>
<use x="159.033203" xlink:href="#ae"/>
</g>
</g>
<g clip-path="url(#a)">
<g transform="translate(322.2 469.92) scale(.1 -.1)">
<use xlink:href="#d"/>
<use x="63.623047" xlink:href="#e"/>
<use x="95.410156" xlink:href="#q"/>
<use x="159.033203" xlink:href="#ac"/>
</g>
</g>
<g clip-path="url(#a)">
<g transform="translate(818.32 747.33) scale(.1 -.1)">
<use xlink:href="#d"/>
<use x="63.623047" xlink:href="#e"/>
<use x="95.410156" xlink:href="#q"/>
<use x="159.033203" xlink:href="#ab"/>
</g>
</g>
<g clip-path="url(#a)">
<g transform="translate(744.05 885.08) scale(.1 -.1)">
<use xlink:href="#d"/>
<use x="63.623047" xlink:href="#e"/>
<use x="95.410156" xlink:href="#p"/>
<use x="159.033203" xlink:href="#q"/>
</g>
</g>
<g clip-path="url(#a)">
<g transform="translate(826.53 885.08) scale(.1 -.1)">
<use xlink:href="#d"/>
<use x="63.623047" xlink:href="#e"/>
<use x="95.410156" xlink:href="#p"/>
<use x="159.033203" xlink:href="#p"/>
</g>
</g>
<g clip-path="url(#a)">
<g transform="translate(884.37 885.08) scale(.1 -.1)">
<use xlink:href="#d"/>
<use x="63.623047" xlink:href="#e"/>
<use x="95.410156" xlink:href="#p"/>
<use x="159.033203" xlink:href="#n"/>
</g>
</g>
<g clip-path="url(#a)">
<g transform="translate(269.52 885.08) scale(.1 -.1)">
<use xlink:href="#d"/>
<use x="63.623047" xlink:href="#e"/>
<use x="95.410156" xlink:href="#p"/>
<use x="159.033203" xlink:href="#o"/>
</g>
</g>
<g clip-path="url(#a)">
<g transform="translate(299.51 885.08) scale(.1 -.1)">
<use xlink:href="#d"/>
<use x="63.623047" xlink:href="#e"/>
<use x="95.410156" xlink:href="#p"/>
<use x="159.033203" xlink:href="#s"/>
</g>
</g>
<g clip-path="url(#a)">
<g transform="translate(397.57 608.86) scale(.1 -.1)">
<use xlink:href="#d"/>
<use x="63.623047" xlink:href="#e"/>
<use x="95.410156" xlink:href="#p"/>
<use x="159.033203" xlink:href="#ae"/>
</g>
</g>
<g clip-path="url(#a)">
<g transform="translate(331.64 885.08) scale(.1 -.1)">
<use xlink:href="#d"/>
<use x="63.623047" xlink:href="#e"/>
<use x="95.410156" xlink:href="#p"/>
<use x="159.033203" xlink:href="#ac"/>
</g>
</g>
<g clip-path="url(#a)">
<g transform="translate(365.92 885.08) scale(.1 -.1)">
<use xlink:href="#d"/>
<use x="63.623047" xlink:href="#e"/>
<use x="95.410156" xlink:href="#p"/>
<use x="159.033203" xlink:href="#ab"/>
</g>
</g>
<g clip-path="url(#a)">
<g transform="translate(490.39 747.33) scale(.1 -.1)">
<use xlink:href="#d"/>
<use x="63.623047" xlink:href="#e"/>
<use x="95.410156" xlink:href="#n"/>
<use x="159.033203" xlink:href="#af"/>
</g>
</g>
<g clip-path="url(#a)">
<g transform="translate(134.55 885.08) scale(.1 -.1)">
<use xlink:href="#d"/>
<use x="63.623047" xlink:href="#e"/>
<use x="95.410156" xlink:href="#n"/>
<use x="159.033203" xlink:href="#d"/>
</g>
</g>
<g clip-path="url(#a)">
<g transform="translate(440.9 885.08) scale(.1 -.1)">
<use xlink:href="#d"/>
<use x="63.623047" xlink:href="#e"/>
<use x="95.410156" xlink:href="#n"/>
<use x="159.033203" xlink:href="#q"/>
</g>
</g>
<g clip-path="url(#a)">
<g transform="translate(481.61 885.08) scale(.1 -.1)">
<use xlink:href="#d"/>
<use x="63.623047" xlink:href="#e"/>
<use x="95.410156" xlink:href="#n"/>
<use x="159.033203" xlink:href="#p"/>
</g>
</g>
<g clip-path="url(#a)">
<g transform="translate(546.95 885.08) scale(.1 -.1)">
<use xlink:href="#d"/>
<use x="63.623047" xlink:href="#e"/>
<use x="95.410156" xlink:href="#n"/>
<use x="159.033203" xlink:href="#n"/>
</g>
</g>
<g clip-path="url(#a)">
<g transform="translate(616.58 885.08) scale(.1 -.1)">
<use xlink:href="#d"/>
<use x="63.623047" xlink:href="#e"/>
<use x="95.410156" xlink:href="#n"/>
<use x="159.033203" xlink:href="#o"/>
</g>
</g>
<g clip-path="url(#a)">
<g transform="translate(192.39 885.08) scale(.1 -.1)">
<use xlink:href="#d"/>
<use x="63.623047" xlink:href="#e"/>
<use x="95.410156" xlink:href="#n"/>
<use x="159.033203" xlink:href="#s"/>
</g>
</g>
<g clip-path="url(#a)">
<g transform="translate(215.96 885.08) scale(.1 -.1)">
<use xlink:href="#d"/>
<use x="63.623047" xlink:href="#e"/>
<use x="95.410156" xlink:href="#n"/>
<use x="159.033203" xlink:href="#ae"/>
</g>
</g>
<g clip-path="url(#a)">
<g transform="translate(80.988 885.08) scale(.1 -.1)">
<use xlink:href="#d"/>
<use x="63.623047" xlink:href="#e"/>
<use x="95.410156" xlink:href="#n"/>
<use x="159.033203" xlink:href="#ac"/>
</g>
</g>
<g clip-path="url(#a)">
<g transform="translate(87.415 885.08) scale(.1 -.1)">
<use xlink:href="#d"/>
<use x="63.623047" xlink:href="#e"/>
<use x="95.410156" xlink:href="#n"/>
<use x="159.033203" xlink:href="#ab"/>
</g>
</g>
<g clip-path="url(#a)">
<g transform="translate(101.34 747.33) scale(.1 -.1)">
<use xlink:href="#d"/>
<use x="63.623047" xlink:href="#e"/>
<use x="95.410156" xlink:href="#o"/>
<use x="159.033203" xlink:href="#af"/>
</g>
</g>
<g clip-path="url(#a)">
<g transform="translate(119.55 885.08) scale(.1 -.1)">
<use xlink:href="#d"/>
<use x="63.623047" xlink:href="#e"/>
<use x="95.410156" xlink:href="#o"/>
<use x="159.033203" xlink:href="#d"/>
</g>
</g>
<g clip-path="url(#a)">
<g transform="translate(95.985 885.08) scale(.1 -.1)">
<use xlink:href="#d"/>
<use x="63.623047" xlink:href="#e"/>
<use x="95.410156" xlink:href="#o"/>
<use x="159.033203" xlink:href="#q"/>
</g>
</g>
<g clip-path="url(#a)">
<g transform="translate(106.7 885.08) scale(.1 -.1)">
<use xlink:href="#d"/>
<use x="63.623047" xlink:href="#e"/>
<use x="95.410156" xlink:href="#o"/>
<use x="159.033203" xlink:href="#p"/>
</g>
</g>
<g clip-path="url(#a)">
<g transform="translate(151.69 885.08) scale(.1 -.1)">
<use xlink:href="#d"/>
<use x="63.623047" xlink:href="#e"/>
<use x="95.410156" xlink:href="#o"/>
<use x="159.033203" xlink:href="#n"/>
</g>
</g>
<g clip-path="url(#a)">
<g transform="translate(170.97 885.08) scale(.1 -.1)">
<use xlink:href="#d"/>
<use x="63.623047" xlink:href="#e"/>
<use x="95.410156" xlink:href="#o"/>
<use x="159.033203" xlink:href="#o"/>
</g>
</g>
<g clip-path="url(#a)">
<g transform="translate(241.66 885.08) scale(.1 -.1)">
<use xlink:href="#d"/>
<use x="63.623047" xlink:href="#e"/>
<use x="95.410156" xlink:href="#o"/>
<use x="159.033203" xlink:href="#s"/>
</g>
</g>
<g clip-path="url(#a)">
<g transform="translate(402.34 885.08) scale(.1 -.1)">
<use xlink:href="#d"/>
<use x="63.623047" xlink:href="#e"/>
<use x="95.410156" xlink:href="#o"/>
<use x="159.033203" xlink:href="#ae"/>
</g>
</g>
<g clip-path="url(#a)">
<g transform="translate(665.85 885.08) scale(.1 -.1)">
<use xlink:href="#d"/>
<use x="63.623047" xlink:href="#e"/>
<use x="95.410156" xlink:href="#o"/>
<use x="159.033203" xlink:href="#ac"/>
</g>
</g>
<g clip-path="url(#a)">
<g transform="translate(948.64 885.08) scale(.1 -.1)">
<use xlink:href="#d"/>
<use x="63.623047" xlink:href="#e"/>
<use x="95.410156" xlink:href="#o"/>
<use x="159.033203" xlink:href="#ab"/>
</g>
</g>
<g clip-path="url(#a)">
<g transform="translate(1010.8 885.08) scale(.1 -.1)">
<use xlink:href="#d"/>
<use x="63.623047" xlink:href="#e"/>
<use x="95.410156" xlink:href="#s"/>
<use x="159.033203" xlink:href="#af"/>
</g>
</g>
<g clip-path="url(#a)">
<g transform="translate(1075 885.08) scale(.1 -.1)">
<use xlink:href="#d"/>
<use x="63.623047" xlink:href="#e"/>
<use x="95.410156" xlink:href="#s"/>
<use x="159.033203" xlink:href="#d"/>
</g>
</g>
<g clip-path="url(#a)">
<g transform="translate(1141.5 885.08) scale(.1 -.1)">
<use xlink:href="#d"/>
<use x="63.623047" xlink:href="#e"/>
<use x="95.410156" xlink:href="#s"/>
<use x="159.033203" xlink:href="#q"/>
</g>
</g>
<g clip-path="url(#a)">
<g transform="translate(1428.5 885.08) scale(.1 -.1)">
<use xlink:href="#d"/>
<use x="63.623047" xlink:href="#e"/>
<use x="95.410156" xlink:href="#s"/>
<use x="159.033203" xlink:href="#p"/>
</g>
</g>
<g clip-path="url(#a)">
<g transform="translate(1505.7 885.08) scale(.1 -.1)">
<use xlink:href="#d"/>
<use x="63.623047" xlink:href="#e"/>
<use x="95.410156" xlink:href="#s"/>
<use x="159.033203" xlink:href="#n"/>
</g>
</g>
<g clip-path="url(#a)">
<g transform="translate(1923.4 885.08) scale(.1 -.1)">
<use xlink:href="#d"/>
<use x="63.623047" xlink:href="#e"/>
<use x="95.410156" xlink:href="#s"/>
<use x="159.033203" xlink:href="#o"/>
</g>
</g>
<defs>
<clipPath id="a">
<rect width="2026.7" height="1066.7"/>
</clipPath>
</defs>
</svg>
