<?xml version="1.0" encoding="UTF-8"?>
<!DOCTYPE svg  PUBLIC '-//W3C//DTD SVG 1.1//EN'  'http://www.w3.org/Graphics/SVG/1.1/DTD/svg11.dtd'>
<svg width="506.67pt" height="266.67pt" version="1.1" viewBox="0 0 506.67 266.67" xmlns="http://www.w3.org/2000/svg" xmlns:xlink="http://www.w3.org/1999/xlink">
<defs>
<style type="text/css">*{stroke-linecap:butt;stroke-linejoin:round;}</style>
</defs>
<path d="m0 266.67h506.67v-266.67h-506.67z" fill="#fff"/>
<g fill="none" stroke="#000">
<path d="m352.13 12.893v36.743" clip-path="url(#a)"/>
<path d="m352.13 49.636 131 204.14" clip-path="url(#a)"/>
<path d="m352.13 49.636 89.217 204.14" clip-path="url(#a)"/>
<path d="m352.13 49.636-220.21 35.756" clip-path="url(#a)"/>
<path d="m131.91 85.391-108.37 135.39" clip-path="url(#a)"/>
<path d="m131.91 85.391 108.37 34.868" clip-path="url(#a)"/>
<path d="m23.544 220.79v32.988" clip-path="url(#a)"/>
<path d="m240.28 120.26-174.95 100.53" clip-path="url(#a)"/>
<path d="m240.28 120.26-133.17 100.53" clip-path="url(#a)"/>
<path d="m240.28 120.26-70.503 34.091" clip-path="url(#a)"/>
<path d="m240.28 120.26-7.8337 100.53" clip-path="url(#a)"/>
<path d="m240.28 120.26 33.946 100.53" clip-path="url(#a)"/>
<path d="m240.28 120.26 75.726 100.53" clip-path="url(#a)"/>
<path d="m240.28 120.26 117.51 100.53" clip-path="url(#a)"/>
<path d="m240.28 120.26 159.29 100.53" clip-path="url(#a)"/>
<path d="m65.324 220.79v32.988" clip-path="url(#a)"/>
<path d="m107.1 220.79v32.988" clip-path="url(#a)"/>
<path d="m169.77 154.35-20.89 66.435" clip-path="url(#a)"/>
<path d="m169.77 154.35 20.89 33.447" clip-path="url(#a)"/>
<path d="m232.44 220.79v32.988" clip-path="url(#a)"/>
<path d="m148.88 220.79v32.988" clip-path="url(#a)"/>
<path d="m190.66 187.8v32.988" clip-path="url(#a)"/>
<path d="m190.66 220.79v32.988" clip-path="url(#a)"/>
<path d="m274.22 220.79v32.988" clip-path="url(#a)"/>
<path d="m316 220.79v32.988" clip-path="url(#a)"/>
<path d="m357.78 220.79v32.988" clip-path="url(#a)"/>
<path d="m399.56 220.79v32.988" clip-path="url(#a)"/>
</g>
<path d="m345.85 28.256v6.0162q0 2.4 2.4 2.4h7.7425q2.4 0 2.4-2.4v-6.0162q0-2.4-2.4-2.4h-7.7425q-2.4 0-2.4 2.4z" clip-path="url(#a)" fill="#fff" stroke="#fff"/>
<g clip-path="url(#a)">
<defs>
<path id="w" d="m9.8125 72.906h9.8594v-29.891h35.844v29.891h9.8594v-72.906h-9.8594v34.719h-35.844v-34.719h-9.8594z"/>
</defs>
<g transform="translate(349.92 28.256) rotate(90) scale(.08 -.08)">
<use xlink:href="#w"/>
</g>
</g>
<path d="m411.04 153.06 2.6052 4.0598q1.2962 2.0199 3.3161 0.72371l6.5162-4.1815q2.0199-1.2962 0.72371-3.3161l-2.6052-4.0598q-1.2962-2.0199-3.3161-0.72371l-6.5162 4.1815q-2.0199 1.2962-0.72371 3.3161z" clip-path="url(#a)" fill="#fff" stroke="#fff"/>
<g clip-path="url(#a)">
<defs>
<path id="p" d="m19.672 64.797v-27.391h12.406q6.8906 0 10.641 3.5625 3.7656 3.5625 3.7656 10.156 0 6.5469-3.7656 10.109-3.75 3.5625-10.641 3.5625zm-9.8594 8.1094h22.266q12.266 0 18.531-5.5469 6.2812-5.5469 6.2812-16.234 0-10.797-6.2812-16.312-6.2656-5.5156-18.531-5.5156h-12.406v-29.297h-9.8594z"/>
</defs>
<g transform="translate(414.46 150.87) rotate(57.311) scale(.08 -.08)">
<use xlink:href="#p"/>
</g>
</g>
<path d="m389.89 151.71 2.1916 5.0145q0.96112 2.1991 3.1603 1.238l7.0945-3.1006q2.1991-0.96112 1.238-3.1603l-2.1916-5.0145q-0.96112-2.1991-3.1603-1.238l-7.0945 3.1006q-2.1991 0.96112-1.238 3.1603z" clip-path="url(#a)" fill="#fff" stroke="#fff"/>
<g clip-path="url(#a)">
<defs>
<path id="t" d="m34.188 63.188-13.391-36.281h26.812zm-5.5781 9.7188h11.188l27.781-72.906h-10.25l-6.6406 18.703h-32.859l-6.6406-18.703h-10.406z"/>
</defs>
<g transform="translate(393.62 150.08) rotate(66.393) scale(.08 -.08)">
<use xlink:href="#t"/>
</g>
</g>
<path d="m240.32 74.142 5.4018-0.87707q2.369-0.38464 1.9843-2.7536l-1.2409-7.6424q-0.38464-2.369-2.7536-1.9843l-5.4018 0.87707q-2.369 0.38464-1.9843 2.7536l1.2409 7.6424q0.38464 2.369 2.7536 1.9843z" clip-path="url(#a)" fill="#fff" stroke="#fff"/>
<g clip-path="url(#a)">
<g transform="translate(239.67 70.131) rotate(-9.2225) scale(.08 -.08)">
<use xlink:href="#t"/>
</g>
</g>
<path d="m81.231 158.75 2.7854-3.4801q1.4997-1.8737-0.37405-3.3734l-6.0448-4.8381q-1.8737-1.4997-3.3734 0.37405l-2.7854 3.4801q-1.4997 1.8737 0.37405 3.3734l6.0448 4.8381q1.8737 1.4997 3.3734-0.37405z" clip-path="url(#a)" fill="#fff" stroke="#fff"/>
<g clip-path="url(#a)">
<defs>
<path id="r" d="m9.8125 72.906h9.8594v-64.609h35.5v-8.2969h-45.359z"/>
</defs>
<g transform="translate(78.058 156.21) rotate(-51.327) scale(.08 -.08)">
<use xlink:href="#r"/>
</g>
</g>
<path d="m181.31 107.87 5.7271 1.8428q2.2846 0.73511 3.0198-1.5495l2.3715-7.3704q0.73511-2.2846-1.5495-3.0198l-5.7271-1.8428q-2.2846-0.73511-3.0198 1.5495l-2.3715 7.3704q-0.73511 2.2846 1.5495 3.0198z" clip-path="url(#a)" fill="#fff" stroke="#fff"/>
<g clip-path="url(#a)">
<g transform="translate(182.55 104.01) rotate(17.836) scale(.08 -.08)">
<use xlink:href="#w"/>
</g>
</g>
<path d="m17.273 219.64v35.285q0 2.4 2.4 2.4h7.7425q2.4 0 2.4-2.4v-35.285q0-2.4-2.4-2.4h-7.7425q-2.4 0-2.4 2.4z" clip-path="url(#a)" fill="#fff" stroke="#fff"/>
<g clip-path="url(#a)">
<defs>
<path id="g" d="m-0.29688 72.906h61.672v-8.3125h-25.875v-64.594h-9.9062v64.594h-25.891z"/>
<path id="e" d="m56.203 29.594v-4.3906h-41.312q0.59375-9.2812 5.5938-14.141t13.938-4.8594q5.1719 0 10.031 1.2656t9.6562 3.8125v-8.5q-4.8438-2.0469-9.9219-3.125t-10.297-1.0781q-13.094 0-20.734 7.6094-7.6406 7.625-7.6406 20.625 0 13.422 7.25 21.297 7.25 7.8906 19.562 7.8906 11.031 0 17.453-7.1094 6.4219-7.0938 6.4219-19.297zm-8.9844 2.6406q-0.09375 7.3594-4.125 11.75-4.0312 4.4062-10.672 4.4062-7.5156 0-12.031-4.25t-5.2031-11.969z"/>
<path id="f" d="m41.109 46.297q-1.5156 0.875-3.2969 1.2812-1.7812 0.42188-3.9219 0.42188-7.625 0-11.703-4.9531t-4.0781-14.234v-28.812h-9.0312v54.688h9.0312v-8.5q2.8438 4.9844 7.375 7.3906 4.5469 2.4219 11.047 2.4219 0.92188 0 2.0469-0.125 1.125-0.10938 2.4844-0.35938z"/>
<path id="j" d="m52 44.188q3.375 6.0625 8.0625 8.9375t11.031 2.875q8.5469 0 13.188-5.9844 4.6406-5.9688 4.6406-17v-33.016h-9.0312v32.719q0 7.8594-2.7969 11.656-2.7812 3.8125-8.4844 3.8125-6.9844 0-11.047-4.6406-4.0469-4.625-4.0469-12.641v-30.906h-9.0312v32.719q0 7.9062-2.7812 11.688t-8.5938 3.7812q-6.8906 0-10.953-4.6562-4.0469-4.6562-4.0469-12.625v-30.906h-9.0312v54.688h9.0312v-8.5q3.0781 5.0312 7.375 7.4219t10.203 2.3906q5.9688 0 10.141-3.0312 4.1719-3.0156 6.1719-8.7812z"/>
<path id="h" d="m9.4219 54.688h8.9844v-54.688h-8.9844zm0 21.297h8.9844v-11.391h-8.9844z"/>
<path id="i" d="m54.891 33.016v-33.016h-8.9844v32.719q0 7.7656-3.0312 11.609-3.0312 3.8594-9.0781 3.8594-7.2812 0-11.484-4.6406-4.2031-4.625-4.2031-12.641v-30.906h-9.0312v54.688h9.0312v-8.5q3.2344 4.9375 7.5938 7.375 4.375 2.4375 10.094 2.4375 9.4219 0 14.25-5.8281 4.8438-5.8281 4.8438-17.156z"/>
<path id="k" d="m34.281 27.484q-10.891 0-15.094-2.4844t-4.2031-8.5q0-4.7812 3.1562-7.5938 3.1562-2.7969 8.5625-2.7969 7.4844 0 12 5.2969t4.5156 14.078v2zm17.922 3.7188v-31.203h-8.9844v8.2969q-3.0781-4.9688-7.6719-7.3438t-11.234-2.375q-8.3906 0-13.359 4.7188-4.9531 4.7188-4.9531 12.625 0 9.2188 6.1719 13.906 6.1875 4.6875 18.438 4.6875h12.609v0.89062q0 6.2031-4.0781 9.5938t-11.453 3.3906q-4.6875 0-9.1406-1.125-4.4375-1.125-8.5312-3.375v8.3125q4.9219 1.9062 9.5625 2.8438 4.6406 0.95312 9.0312 0.95312 11.875 0 17.734-6.1562 5.8594-6.1406 5.8594-18.641z"/>
<path id="l" d="m9.4219 75.984h8.9844v-75.984h-8.9844z"/>
</defs>
<g transform="translate(21.337 219.64) rotate(90) scale(.08 -.08)">
<use xlink:href="#g"/>
<use x="60.818359" xlink:href="#e"/>
<use x="122.341797" xlink:href="#f"/>
<use x="163.439453" xlink:href="#j"/>
<use x="260.851562" xlink:href="#h"/>
<use x="288.634766" xlink:href="#i"/>
<use x="352.013672" xlink:href="#k"/>
<use x="413.292969" xlink:href="#l"/>
</g>
</g>
<path d="m153.81 177.18 4.2367-2.4344q2.0809-1.1957 0.88525-3.2766l-3.8574-6.7132q-1.1957-2.0809-3.2766-0.88525l-4.2367 2.4344q-2.0809 1.1957-0.88525 3.2766l3.8574 6.7132q1.1957 2.0809 3.2766 0.88525z" clip-path="url(#a)" fill="#fff" stroke="#fff"/>
<g clip-path="url(#a)">
<g transform="translate(151.78 173.65) rotate(-29.881) scale(.08 -.08)">
<use xlink:href="#g"/>
</g>
</g>
<path d="m175.63 176.91 3.6724-2.7722q1.9155-1.4459 0.46958-3.3615l-4.6647-6.1796q-1.4459-1.9155-3.3615-0.46958l-3.6724 2.7722q-1.9155 1.4459-0.46958 3.3615l4.6647 6.1796q1.4459 1.9155 3.3615 0.46958z" clip-path="url(#a)" fill="#fff" stroke="#fff"/>
<g clip-path="url(#a)">
<defs>
<path id="x" d="m9.8125 72.906h41.891v-8.3125h-32.031v-21.484h28.906v-8.2969h-28.906v-34.812h-9.8594z"/>
</defs>
<g transform="translate(173.18 173.67) rotate(-37.048) scale(.08 -.08)">
<use xlink:href="#x"/>
</g>
</g>
<path d="m205.29 144.14 4.9268-2.3823q2.1607-1.0448 1.1159-3.2054l-3.3705-6.9704q-1.0448-2.1607-3.2054-1.1159l-4.9268 2.3823q-2.1607 1.0448-1.1159 3.2054l3.3705 6.9704q1.0448 2.1607 3.2054 1.1159z" clip-path="url(#a)" fill="#fff" stroke="#fff"/>
<g clip-path="url(#a)">
<g transform="translate(203.52 140.48) rotate(-25.806) scale(.08 -.08)">
<use xlink:href="#t"/>
</g>
</g>
<path d="m242.43 173.41 0.37476-4.8092q0.18646-2.3927-2.2063-2.5792l-7.7191-0.60152q-2.3927-0.18646-2.5792 2.2063l-0.37476 4.8092q-0.18646 2.3927 2.2063 2.5792l7.7191 0.60152q2.3927 0.18646 2.5792-2.2063z" clip-path="url(#a)" fill="#fff" stroke="#fff"/>
<g clip-path="url(#a)">
<g transform="translate(238.37 173.1) rotate(-85.544) scale(.08 -.08)">
<use xlink:href="#p"/>
</g>
</g>
<path d="m250.37 169.76 1.8732 5.5473q0.76784 2.2739 3.0417 1.506l7.3356-2.4771q2.2739-0.76784 1.506-3.0417l-1.8732-5.5473q-0.76784-2.2739-3.0417-1.506l-7.3356 2.4771q-2.2739 0.76784-1.506 3.0417z" clip-path="url(#a)" fill="#fff" stroke="#fff"/>
<g clip-path="url(#a)">
<defs>
<path id="o" d="m8.6875 72.906h9.9219v-44.297q0-11.719 4.2344-16.875 4.25-5.1406 13.781-5.1406 9.4688 0 13.719 5.1406 4.25 5.1562 4.25 16.875v44.297h9.9062v-45.516q0-14.25-7.0625-21.531-7.0469-7.2812-20.812-7.2812-13.828 0-20.891 7.2812-7.0469 7.2812-7.0469 21.531z"/>
</defs>
<g transform="translate(254.22 168.46) rotate(71.341) scale(.08 -.08)">
<use xlink:href="#o"/>
</g>
</g>
<path d="m271.37 171.96 3.5228 4.6766q1.444 1.917 3.361 0.47293l6.1842-4.6585q1.917-1.444 0.47293-3.361l-3.5228-4.6766q-1.444-1.917-3.361-0.47293l-6.1842 4.6585q-1.917 1.444-0.47293 3.361z" clip-path="url(#a)" fill="#fff" stroke="#fff"/>
<g clip-path="url(#a)">
<g transform="translate(274.62 169.51) rotate(53.01) scale(.08 -.08)">
<use xlink:href="#o"/>
</g>
</g>
<path d="m292.73 173.38 4.449 3.8062q1.8237 1.5602 3.3839-0.26352l5.0332-5.8833q1.5602-1.8237-0.26352-3.3839l-4.449-3.8062q-1.8237-1.5602-3.3839 0.26352l-5.0332 5.8833q-1.5602 1.8237 0.26352 3.3839z" clip-path="url(#a)" fill="#fff" stroke="#fff"/>
<g clip-path="url(#a)">
<g transform="translate(295.37 170.3) rotate(40.547) scale(.08 -.08)">
<use xlink:href="#o"/>
</g>
</g>
<path d="m314.1 174.26 4.9514 3.1249q2.0296 1.2809 3.3105-0.7487l4.1322-6.5476q1.2809-2.0296-0.7487-3.3105l-4.9514-3.1249q-2.0296-1.2809-3.3105 0.7487l-4.1322 6.5476q-1.2809 2.0296 0.7487 3.3105z" clip-path="url(#a)" fill="#fff" stroke="#fff"/>
<g clip-path="url(#a)">
<g transform="translate(316.27 170.83) rotate(32.256) scale(.08 -.08)">
<use xlink:href="#o"/>
</g>
</g>
<path d="m59.053 219.64v35.285q0 2.4 2.4 2.4h7.7425q2.4 0 2.4-2.4v-35.285q0-2.4-2.4-2.4h-7.7425q-2.4 0-2.4 2.4z" clip-path="url(#a)" fill="#fff" stroke="#fff"/>
<g clip-path="url(#a)">
<g transform="translate(63.117 219.64) rotate(90) scale(.08 -.08)">
<use xlink:href="#g"/>
<use x="60.818359" xlink:href="#e"/>
<use x="122.341797" xlink:href="#f"/>
<use x="163.439453" xlink:href="#j"/>
<use x="260.851562" xlink:href="#h"/>
<use x="288.634766" xlink:href="#i"/>
<use x="352.013672" xlink:href="#k"/>
<use x="413.292969" xlink:href="#l"/>
</g>
</g>
<path d="m100.83 219.64v35.285q0 2.4 2.4 2.4h7.7425q2.4 0 2.4-2.4v-35.285q0-2.4-2.4-2.4h-7.7425q-2.4 0-2.4 2.4z" clip-path="url(#a)" fill="#fff" stroke="#fff"/>
<g clip-path="url(#a)">
<g transform="translate(104.9 219.64) rotate(90) scale(.08 -.08)">
<use xlink:href="#g"/>
<use x="60.818359" xlink:href="#e"/>
<use x="122.341797" xlink:href="#f"/>
<use x="163.439453" xlink:href="#j"/>
<use x="260.851562" xlink:href="#h"/>
<use x="288.634766" xlink:href="#i"/>
<use x="352.013672" xlink:href="#k"/>
<use x="413.292969" xlink:href="#l"/>
</g>
</g>
<path d="m164.62 191.64 1.3802-4.3894q0.7199-2.2895-1.5696-3.0094l-7.386-2.3224q-2.2895-0.7199-3.0094 1.5696l-1.3802 4.3894q-0.7199 2.2895 1.5696 3.0094l7.386 2.3224q2.2895 0.7199 3.0094-1.5696z" clip-path="url(#a)" fill="#fff" stroke="#fff"/>
<g clip-path="url(#a)">
<g transform="translate(160.74 190.42) rotate(-72.545) scale(.08 -.08)">
<use xlink:href="#x"/>
</g>
</g>
<path d="m173.42 172.03 2.9592 4.7381q1.2714 2.0356 3.307 0.76424l6.5669-4.1015q2.0356-1.2714 0.76424-3.307l-2.9592-4.7381q-1.2714-2.0356-3.307-0.76424l-6.5669 4.1015q-2.0356 1.2714-0.76424 3.307z" clip-path="url(#a)" fill="#fff" stroke="#fff"/>
<g clip-path="url(#a)">
<defs>
<path id="s" d="m64.406 67.281v-10.391q-4.9844 4.6406-10.625 6.9219-5.6406 2.2969-11.984 2.2969-12.5 0-19.141-7.6406t-6.6406-22.094q0-14.406 6.6406-22.047t19.141-7.6406q6.3438 0 11.984 2.2969t10.625 6.9375v-10.312q-5.1719-3.5156-10.969-5.2812-5.7812-1.75-12.219-1.75-16.562 0-26.094 10.125-9.5156 10.141-9.5156 27.672 0 17.578 9.5156 27.703 9.5312 10.141 26.094 10.141 6.5312 0 12.312-1.7344 5.7969-1.7344 10.875-5.2031z"/>
</defs>
<g transform="translate(176.87 169.87) rotate(58.013) scale(.08 -.08)">
<use xlink:href="#s"/>
</g>
</g>
<path d="m226.17 219.64v35.285q0 2.4 2.4 2.4h7.7425q2.4 0 2.4-2.4v-35.285q0-2.4-2.4-2.4h-7.7425q-2.4 0-2.4 2.4z" clip-path="url(#a)" fill="#fff" stroke="#fff"/>
<g clip-path="url(#a)">
<g transform="translate(230.24 219.64) rotate(90) scale(.08 -.08)">
<use xlink:href="#g"/>
<use x="60.818359" xlink:href="#e"/>
<use x="122.341797" xlink:href="#f"/>
<use x="163.439453" xlink:href="#j"/>
<use x="260.851562" xlink:href="#h"/>
<use x="288.634766" xlink:href="#i"/>
<use x="352.013672" xlink:href="#k"/>
<use x="413.292969" xlink:href="#l"/>
</g>
</g>
<path d="m142.61 219.64v35.285q0 2.4 2.4 2.4h7.7425q2.4 0 2.4-2.4v-35.285q0-2.4-2.4-2.4h-7.7425q-2.4 0-2.4 2.4z" clip-path="url(#a)" fill="#fff" stroke="#fff"/>
<g clip-path="url(#a)">
<g transform="translate(146.68 219.64) rotate(90) scale(.08 -.08)">
<use xlink:href="#g"/>
<use x="60.818359" xlink:href="#e"/>
<use x="122.341797" xlink:href="#f"/>
<use x="163.439453" xlink:href="#j"/>
<use x="260.851562" xlink:href="#h"/>
<use x="288.634766" xlink:href="#i"/>
<use x="352.013672" xlink:href="#k"/>
<use x="413.292969" xlink:href="#l"/>
</g>
</g>
<path d="m184.39 201.88v4.8238q0 2.4 2.4 2.4h7.7425q2.4 0 2.4-2.4v-4.8238q0-2.4-2.4-2.4h-7.7425q-2.4 0-2.4 2.4z" clip-path="url(#a)" fill="#fff" stroke="#fff"/>
<g clip-path="url(#a)">
<g transform="translate(188.46 201.88) rotate(90) scale(.08 -.08)">
<use xlink:href="#p"/>
</g>
</g>
<path d="m184.39 219.64v35.285q0 2.4 2.4 2.4h7.7425q2.4 0 2.4-2.4v-35.285q0-2.4-2.4-2.4h-7.7425q-2.4 0-2.4 2.4z" clip-path="url(#a)" fill="#fff" stroke="#fff"/>
<g clip-path="url(#a)">
<g transform="translate(188.46 219.64) rotate(90) scale(.08 -.08)">
<use xlink:href="#g"/>
<use x="60.818359" xlink:href="#e"/>
<use x="122.341797" xlink:href="#f"/>
<use x="163.439453" xlink:href="#j"/>
<use x="260.851562" xlink:href="#h"/>
<use x="288.634766" xlink:href="#i"/>
<use x="352.013672" xlink:href="#k"/>
<use x="413.292969" xlink:href="#l"/>
</g>
</g>
<path d="m267.95 219.64v35.285q0 2.4 2.4 2.4h7.7425q2.4 0 2.4-2.4v-35.285q0-2.4-2.4-2.4h-7.7425q-2.4 0-2.4 2.4z" clip-path="url(#a)" fill="#fff" stroke="#fff"/>
<g clip-path="url(#a)">
<g transform="translate(272.02 219.64) rotate(90) scale(.08 -.08)">
<use xlink:href="#g"/>
<use x="60.818359" xlink:href="#e"/>
<use x="122.341797" xlink:href="#f"/>
<use x="163.439453" xlink:href="#j"/>
<use x="260.851562" xlink:href="#h"/>
<use x="288.634766" xlink:href="#i"/>
<use x="352.013672" xlink:href="#k"/>
<use x="413.292969" xlink:href="#l"/>
</g>
</g>
<path d="m309.73 219.64v35.285q0 2.4 2.4 2.4h7.7425q2.4 0 2.4-2.4v-35.285q0-2.4-2.4-2.4h-7.7425q-2.4 0-2.4 2.4z" clip-path="url(#a)" fill="#fff" stroke="#fff"/>
<g clip-path="url(#a)">
<g transform="translate(313.8 219.64) rotate(90) scale(.08 -.08)">
<use xlink:href="#g"/>
<use x="60.818359" xlink:href="#e"/>
<use x="122.341797" xlink:href="#f"/>
<use x="163.439453" xlink:href="#j"/>
<use x="260.851562" xlink:href="#h"/>
<use x="288.634766" xlink:href="#i"/>
<use x="352.013672" xlink:href="#k"/>
<use x="413.292969" xlink:href="#l"/>
</g>
</g>
<path d="m351.51 219.64v35.285q0 2.4 2.4 2.4h7.7425q2.4 0 2.4-2.4v-35.285q0-2.4-2.4-2.4h-7.7425q-2.4 0-2.4 2.4z" clip-path="url(#a)" fill="#fff" stroke="#fff"/>
<g clip-path="url(#a)">
<g transform="translate(355.58 219.64) rotate(90) scale(.08 -.08)">
<use xlink:href="#g"/>
<use x="60.818359" xlink:href="#e"/>
<use x="122.341797" xlink:href="#f"/>
<use x="163.439453" xlink:href="#j"/>
<use x="260.851562" xlink:href="#h"/>
<use x="288.634766" xlink:href="#i"/>
<use x="352.013672" xlink:href="#k"/>
<use x="413.292969" xlink:href="#l"/>
</g>
</g>
<path d="m393.29 219.64v35.285q0 2.4 2.4 2.4h7.7425q2.4 0 2.4-2.4v-35.285q0-2.4-2.4-2.4h-7.7425q-2.4 0-2.4 2.4z" clip-path="url(#a)" fill="#fff" stroke="#fff"/>
<g clip-path="url(#a)">
<g transform="translate(397.36 219.64) rotate(90) scale(.08 -.08)">
<use xlink:href="#g"/>
<use x="60.818359" xlink:href="#e"/>
<use x="122.341797" xlink:href="#f"/>
<use x="163.439453" xlink:href="#j"/>
<use x="260.851562" xlink:href="#h"/>
<use x="288.634766" xlink:href="#i"/>
<use x="352.013672" xlink:href="#k"/>
<use x="413.292969" xlink:href="#l"/>
</g>
</g>
<defs>
<path id="c" d="m0 8.6603c2.2967 0 4.4997-0.9125 6.1237-2.5365 1.624-1.624 2.5365-3.827 2.5365-6.1237s-0.9125-4.4997-2.5365-6.1237c-1.624-1.624-3.827-2.5365-6.1237-2.5365s-4.4997 0.9125-6.1237 2.5365c-1.624 1.624-2.5365 3.827-2.5365 6.1237s0.9125 4.4997 2.5365 6.1237c1.624 1.624 3.827 2.5365 6.1237 2.5365z"/>
</defs>
<g clip-path="url(#a)">
<use x="23.544473" y="253.7741" fill="#ffffff" stroke="#ffffff" xlink:href="#c"/>
</g>
<g clip-path="url(#a)">
<use x="65.324266" y="253.7741" fill="#ffffff" stroke="#ffffff" xlink:href="#c"/>
</g>
<g clip-path="url(#a)">
<use x="107.104059" y="253.7741" fill="#ffffff" stroke="#ffffff" xlink:href="#c"/>
</g>
<g clip-path="url(#a)">
<use x="148.883852" y="253.7741" fill="#ffffff" stroke="#ffffff" xlink:href="#c"/>
</g>
<g clip-path="url(#a)">
<use x="190.663644" y="253.7741" fill="#ffffff" stroke="#ffffff" xlink:href="#c"/>
</g>
<g clip-path="url(#a)">
<use x="232.443437" y="253.7741" fill="#ffffff" stroke="#ffffff" xlink:href="#c"/>
</g>
<g clip-path="url(#a)">
<use x="274.22323" y="253.7741" fill="#ffffff" stroke="#ffffff" xlink:href="#c"/>
</g>
<g clip-path="url(#a)">
<use x="316.003022" y="253.7741" fill="#ffffff" stroke="#ffffff" xlink:href="#c"/>
</g>
<g clip-path="url(#a)">
<use x="357.782815" y="253.7741" fill="#ffffff" stroke="#ffffff" xlink:href="#c"/>
</g>
<g clip-path="url(#a)">
<use x="399.562608" y="253.7741" fill="#ffffff" stroke="#ffffff" xlink:href="#c"/>
</g>
<g clip-path="url(#a)">
<use x="352.125135" y="12.892566" fill="#ffffff" stroke="#ffffff" xlink:href="#c"/>
</g>
<g clip-path="url(#a)">
<use x="352.125135" y="49.635664" fill="#ffffff" stroke="#ffffff" xlink:href="#c"/>
</g>
<g clip-path="url(#a)">
<use x="483.122193" y="253.7741" fill="#ffffff" stroke="#ffffff" xlink:href="#c"/>
</g>
<g clip-path="url(#a)">
<use x="441.342401" y="253.7741" fill="#ffffff" stroke="#ffffff" xlink:href="#c"/>
</g>
<g clip-path="url(#a)">
<use x="131.910811" y="85.391209" fill="#ffffff" stroke="#ffffff" xlink:href="#c"/>
</g>
<g clip-path="url(#a)">
<use x="23.544473" y="220.785839" fill="#ffffff" stroke="#ffffff" xlink:href="#c"/>
</g>
<g clip-path="url(#a)">
<use x="240.277148" y="120.2592" fill="#ffffff" stroke="#ffffff" xlink:href="#c"/>
</g>
<g clip-path="url(#a)">
<use x="65.324266" y="220.785839" fill="#ffffff" stroke="#ffffff" xlink:href="#c"/>
</g>
<g clip-path="url(#a)">
<use x="107.104059" y="220.785839" fill="#ffffff" stroke="#ffffff" xlink:href="#c"/>
</g>
<g clip-path="url(#a)">
<use x="169.773748" y="154.350414" fill="#ffffff" stroke="#ffffff" xlink:href="#c"/>
</g>
<g clip-path="url(#a)">
<use x="232.443437" y="220.785839" fill="#ffffff" stroke="#ffffff" xlink:href="#c"/>
</g>
<g clip-path="url(#a)">
<use x="148.883852" y="220.785839" fill="#ffffff" stroke="#ffffff" xlink:href="#c"/>
</g>
<g clip-path="url(#a)">
<use x="190.663644" y="187.797578" fill="#ffffff" stroke="#ffffff" xlink:href="#c"/>
</g>
<g clip-path="url(#a)">
<use x="190.663644" y="220.785839" fill="#ffffff" stroke="#ffffff" xlink:href="#c"/>
</g>
<g clip-path="url(#a)">
<use x="274.22323" y="220.785839" fill="#ffffff" stroke="#ffffff" xlink:href="#c"/>
</g>
<g clip-path="url(#a)">
<use x="316.003022" y="220.785839" fill="#ffffff" stroke="#ffffff" xlink:href="#c"/>
</g>
<g clip-path="url(#a)">
<use x="357.782815" y="220.785839" fill="#ffffff" stroke="#ffffff" xlink:href="#c"/>
</g>
<g clip-path="url(#a)">
<use x="399.562608" y="220.785839" fill="#ffffff" stroke="#ffffff" xlink:href="#c"/>
</g>
<g clip-path="url(#a)">
<defs>
<path id="q" d="m45.406 46.391v29.594h8.9844v-75.984h-8.9844v8.2031q-2.8281-4.875-7.1562-7.25-4.3125-2.375-10.375-2.375-9.9062 0-16.141 7.9062-6.2188 7.9219-6.2188 20.812t6.2188 20.797q6.2344 7.9062 16.141 7.9062 6.0625 0 10.375-2.375 4.3281-2.3594 7.1562-7.2344zm-30.609-19.094q0-9.9062 4.0781-15.547t11.203-5.6406 11.219 5.6406q4.1094 5.6406 4.1094 15.547t-4.1094 15.547q-4.0938 5.6406-11.219 5.6406t-11.203-5.6406-4.0781-15.547z"/>
</defs>
<g transform="translate(13.542 256.53) scale(.1 -.1)">
<use xlink:href="#o"/>
<use x="73.193359" xlink:href="#i"/>
<use x="136.572266" xlink:href="#q"/>
</g>
</g>
<g clip-path="url(#a)">
<defs>
<path id="ab" d="m44.281 53.078v-8.5q-3.7969 1.9531-7.9062 2.9219-4.0938 0.98438-8.5 0.98438-6.6875 0-10.031-2.0469t-3.3438-6.1562q0-3.125 2.3906-4.9062t9.625-3.3906l3.0781-0.6875q9.5625-2.0469 13.594-5.7812t4.0312-10.422q0-7.625-6.0312-12.078-6.0312-4.4375-16.578-4.4375-4.3906 0-9.1562 0.85938t-10.031 2.5625v9.2812q4.9844-2.5938 9.8125-3.8906 4.8281-1.2812 9.5781-1.2812 6.3438 0 9.75 2.1719 3.4219 2.1719 3.4219 6.125 0 3.6562-2.4688 5.6094-2.4531 1.9531-10.812 3.7656l-3.125 0.73438q-8.3438 1.75-12.062 5.3906-3.7031 3.6406-3.7031 9.9844 0 7.7188 5.4688 11.906 5.4688 4.2031 15.531 4.2031 4.9688 0 9.3594-0.73438 4.4062-0.71875 8.1094-2.1875z"/>
<path id="u" d="m18.312 70.219v-15.531h18.5v-6.9844h-18.5v-29.688q0-6.6875 1.8281-8.5938t7.4531-1.9062h9.2188v-7.5156h-9.2188q-10.406 0-14.359 3.875-3.9531 3.8906-3.9531 14.141v29.688h-6.5938v6.9844h6.5938v15.531z"/>
</defs>
<g transform="translate(45.173 256.53) scale(.1 -.1)">
<use xlink:href="#ab"/>
<use x="52.099609" xlink:href="#e"/>
<use x="113.623047" xlink:href="#h"/>
<use x="141.40625" xlink:href="#u"/>
<use x="180.615234" xlink:href="#q"/>
<use x="244.091797" xlink:href="#e"/>
<use x="305.615234" xlink:href="#j"/>
</g>
</g>
<g clip-path="url(#a)">
<defs>
<path id="an" d="m4.2031 54.688h8.9844l11.234-42.672 11.172 42.672h10.594l11.234-42.672 11.188 42.672h8.9844l-14.312-54.688h-10.594l-11.766 44.828-11.812-44.828h-10.609z"/>
<path id="ao" d="m8.5 21.578v33.109h8.9844v-32.766q0-7.7656 3.0156-11.656 3.0312-3.875 9.0938-3.875 7.2656 0 11.484 4.6406 4.2344 4.6406 4.2344 12.656v31h8.9844v-54.688h-8.9844v8.4062q-3.2656-4.9844-7.5938-7.4062-4.3125-2.4219-10.031-2.4219-9.4219 0-14.312 5.8594-4.875 5.8594-4.875 17.141z"/>
</defs>
<g transform="translate(91.541 256.53) scale(.1 -.1)">
<use xlink:href="#an"/>
<use x="81.787109" xlink:href="#ao"/>
<use x="145.166016" xlink:href="#f"/>
<use x="186.263672" xlink:href="#q"/>
<use x="249.740234" xlink:href="#e"/>
</g>
</g>
<g clip-path="url(#a)">
<g transform="translate(141.24 256.53) scale(.1 -.1)">
<use xlink:href="#q"/>
<use x="63.476562" xlink:href="#h"/>
<use x="91.259766" xlink:href="#e"/>
</g>
</g>
<g clip-path="url(#a)">
<defs>
<path id="ad" d="m28.609 0-27.828 72.906h10.297l23.109-61.375 23.141 61.375h10.25l-27.781-72.906z"/>
<path id="ap" d="m30.609 48.391q-7.2188 0-11.422-5.6406t-4.2031-15.453 4.1719-15.453q4.1875-5.6406 11.453-5.6406 7.1875 0 11.375 5.6562 4.2031 5.6719 4.2031 15.438 0 9.7188-4.2031 15.406-4.1875 5.6875-11.375 5.6875zm0 7.6094q11.719 0 18.406-7.625 6.7031-7.6094 6.7031-21.078 0-13.422-6.7031-21.078-6.6875-7.6406-18.406-7.6406-11.766 0-18.438 7.6406-6.6562 7.6562-6.6562 21.078 0 13.469 6.6562 21.078 6.6719 7.625 18.438 7.625z"/>
<path id="ac" d="m48.781 52.594v-8.4062q-3.8125 2.1094-7.6406 3.1562t-7.7344 1.0469q-8.75 0-13.594-5.5469-4.8281-5.5312-4.8281-15.547t4.8281-15.562q4.8438-5.5312 13.594-5.5312 3.9062 0 7.7344 1.0469t7.6406 3.1562v-8.3125q-3.7656-1.75-7.7969-2.625-4.0156-0.89062-8.5625-0.89062-12.359 0-19.641 7.7656-7.2656 7.7656-7.2656 20.953 0 13.375 7.3438 21.031 7.3594 7.6719 20.156 7.6719 4.1406 0 8.0938-0.85938 3.9531-0.84375 7.6719-2.5469z"/>
<path id="aq" d="m54.891 33.016v-33.016h-8.9844v32.719q0 7.7656-3.0312 11.609-3.0312 3.8594-9.0781 3.8594-7.2812 0-11.484-4.6406-4.2031-4.625-4.2031-12.641v-30.906h-9.0312v75.984h9.0312v-29.797q3.2344 4.9375 7.5938 7.375 4.375 2.4375 10.094 2.4375 9.4219 0 14.25-5.8281 4.8438-5.8281 4.8438-17.156z"/>
<path id="as" d="m37.109 75.984v-7.4844h-8.5938q-4.8281 0-6.7188-1.9531-1.875-1.9531-1.875-7.0312v-4.8281h14.797v-6.9844h-14.797v-47.703h-9.0312v47.703h-8.5938v6.9844h8.5938v3.8125q0 9.125 4.25 13.297 4.25 4.1875 13.469 4.1875z"/>
</defs>
<g transform="translate(166.45 256.53) scale(.1 -.1)">
<use xlink:href="#ad"/>
<use x="68.298828" xlink:href="#ap"/>
<use x="129.480469" xlink:href="#f"/>
<use x="170.59375" xlink:href="#ab"/>
<use x="222.693359" xlink:href="#ac"/>
<use x="277.673828" xlink:href="#aq"/>
<use x="341.052734" xlink:href="#f"/>
<use x="382.166016" xlink:href="#h"/>
<use x="409.949219" xlink:href="#as"/>
<use x="445.138672" xlink:href="#u"/>
</g>
</g>
<g clip-path="url(#a)">
<defs>
<path id="ar" d="m45.406 27.984q0 9.7656-4.0312 15.125-4.0156 5.375-11.297 5.375-7.2188 0-11.25-5.375-4.0312-5.3594-4.0312-15.125 0-9.7188 4.0312-15.094t11.25-5.375q7.2812 0 11.297 5.375 4.0312 5.375 4.0312 15.094zm8.9844-21.203q0-13.953-6.2031-20.766-6.1875-6.8125-18.984-6.8125-4.7344 0-8.9375 0.70312t-8.1562 2.1719v8.7344q3.9531-2.1406 7.8125-3.1562 3.8594-1.0312 7.8594-1.0312 8.8438 0 13.234 4.6094t4.3906 13.938v4.4531q-2.7812-4.8438-7.125-7.2344t-10.406-2.3906q-10.047 0-16.203 7.6562-6.1562 7.6719-6.1562 20.328 0 12.688 6.1562 20.344 6.1562 7.6719 16.203 7.6719 6.0625 0 10.406-2.3906t7.125-7.2188v8.2969h8.9844z"/>
<path id="am" d="m34.281 27.484q-10.891 0-15.094-2.4844t-4.2031-8.5q0-4.7812 3.1562-7.5938 3.1562-2.7969 8.5625-2.7969 7.4844 0 12 5.2969t4.5156 14.078v2zm17.922 3.7188v-31.203h-8.9844v8.2969q-3.0781-4.9688-7.6719-7.3438t-11.234-2.375q-8.3906 0-13.359 4.7188-4.9531 4.7188-4.9531 12.625 0 9.2188 6.1719 13.906 6.1875 4.6875 18.438 4.6875h12.609v0.89062q0 6.2031-4.0781 9.5938t-11.453 3.3906q-4.6875 0-9.1406-1.125-4.4375-1.125-8.5312-3.375v8.3125q4.9219 1.9062 9.5625 2.8438 4.6406 0.95312 9.0312 0.95312 11.875 0 17.734-6.1562 5.8594-6.1406 5.8594-18.641zm-18.609 44.578h9.9062v-9.8594h-9.9062zm-19.094 0h9.9062v-9.8594h-9.9062z"/>
</defs>
<g transform="translate(209.69 256.53) scale(.1 -.1)">
<use xlink:href="#ar"/>
<use x="63.476562" xlink:href="#e"/>
<use x="125" xlink:href="#am"/>
<use x="186.279297" xlink:href="#i"/>
<use x="249.658203" xlink:href="#q"/>
<use x="313.134766" xlink:href="#e"/>
<use x="374.658203" xlink:href="#f"/>
<use x="415.771484" xlink:href="#u"/>
</g>
</g>
<g clip-path="url(#a)">
<defs>
<path id="ae" d="m19.094 12.406h9.9062v-12.406h-9.9062zm9.625 7.1719h-9.3281v7.5156q0 4.9375 1.3594 8.1094 1.375 3.1719 5.7656 7.375l4.3906 4.3438q2.7812 2.5938 4.0312 4.8906t1.25 4.6875q0 4.3438-3.2031 7.0312t-8.4688 2.6875q-3.8594 0-8.2344-1.7188-4.3594-1.7031-9.1094-4.9844v9.1875q4.5938 2.7812 9.2969 4.1406 4.7188 1.375 9.75 1.375 8.9844 0 14.422-4.7344 5.4531-4.7344 5.4531-12.5 0-3.7188-1.7656-7.0625-1.75-3.3438-6.1406-7.5312l-4.2969-4.2031q-2.2969-2.2969-3.25-3.5938t-1.3438-2.5156q-0.29688-1.0156-0.4375-2.4844t-0.14062-4z"/>
</defs>
<g transform="translate(271.57 256.53) scale(.1 -.1)">
<use xlink:href="#ae"/>
</g>
</g>
<g clip-path="url(#a)">
<defs>
<path id="aa" d="m17.922 72.906v-27.109h-8.2969v27.109zm18.453 0v-27.109h-8.2969v27.109z"/>
</defs>
<g transform="translate(313.7 256.53) scale(.1 -.1)">
<use xlink:href="#aa"/>
</g>
</g>
<g clip-path="url(#a)">
<defs>
<path id="al" d="m4.8906 31.391h26.312v-8h-26.312z"/>
</defs>
<g transform="translate(355.98 256.53) scale(.1 -.1)">
<use xlink:href="#al"/>
</g>
</g>
<g clip-path="url(#a)">
<g transform="translate(397.26 256.53) scale(.1 -.1)">
<use xlink:href="#aa"/>
</g>
</g>
<g clip-path="url(#a)">
<defs>
<path id="b" d="m12.406 8.2969h16.109v55.625l-17.531-3.5156v8.9844l17.438 3.5156h9.8594v-64.609h16.109v-8.2969h-41.984z"/>
<path id="d" d="m10.688 12.406h10.312v-12.406h-10.312z"/>
</defs>
<g transform="translate(344.17 15.652) scale(.1 -.1)">
<use xlink:href="#b"/>
<use x="63.623047" xlink:href="#d"/>
<use x="95.410156" xlink:href="#b"/>
</g>
</g>
<g clip-path="url(#a)">
<defs>
<path id="n" d="m19.188 8.2969h34.422v-8.2969h-46.281v8.2969q5.6094 5.8125 15.297 15.594 9.7031 9.7969 12.188 12.641 4.7344 5.3125 6.6094 9 1.8906 3.6875 1.8906 7.25 0 5.8125-4.0781 9.4688-4.0781 3.6719-10.625 3.6719-4.6406 0-9.7969-1.6094-5.1406-1.6094-11-4.8906v9.9688q5.9531 2.3906 11.125 3.6094 5.1875 1.2188 9.4844 1.2188 11.328 0 18.062-5.6719 6.7344-5.6562 6.7344-15.125 0-4.5-1.6875-8.5312-1.6719-4.0156-6.125-9.4844-1.2188-1.4219-7.7656-8.1875-6.5312-6.7656-18.453-18.922z"/>
</defs>
<g transform="translate(344.17 52.395) scale(.1 -.1)">
<use xlink:href="#b"/>
<use x="63.623047" xlink:href="#d"/>
<use x="95.410156" xlink:href="#n"/>
</g>
</g>
<g clip-path="url(#a)">
<defs>
<path id="m" d="m9.8125 72.906h9.8594v-72.906h-9.8594z"/>
<path id="v" d="m9.8125 72.906h14.703l18.594-49.609 18.703 49.609h14.703v-72.906h-9.625v64.016l-18.797-50h-9.9062l-18.797 50v-64.016h-9.5781z"/>
</defs>
<g transform="translate(462.04 256.53) scale(.1 -.1)">
<use xlink:href="#m"/>
<use x="29.492188" xlink:href="#v"/>
<use x="115.771484" xlink:href="#p"/>
<use x="176.074219" xlink:href="#r"/>
<use x="231.787109" xlink:href="#m"/>
<use x="261.279297" xlink:href="#s"/>
<use x="331.103516" xlink:href="#m"/>
<use x="360.595703" xlink:href="#g"/>
</g>
</g>
<g clip-path="url(#a)">
<g transform="translate(420.26 256.53) scale(.1 -.1)">
<use xlink:href="#m"/>
<use x="29.492188" xlink:href="#v"/>
<use x="115.771484" xlink:href="#p"/>
<use x="176.074219" xlink:href="#r"/>
<use x="231.787109" xlink:href="#m"/>
<use x="261.279297" xlink:href="#s"/>
<use x="331.103516" xlink:href="#m"/>
<use x="360.595703" xlink:href="#g"/>
</g>
</g>
<g clip-path="url(#a)">
<defs>
<path id="y" d="m10.984 1.5156v8.9844q3.7188-1.7656 7.5156-2.6875 3.8125-0.92188 7.4844-0.92188 9.7656 0 14.906 6.5625 5.1562 6.5625 5.8906 19.953-2.8281-4.2031-7.1875-6.4531-4.3438-2.25-9.6094-2.25-10.938 0-17.312 6.6094-6.375 6.625-6.375 18.109 0 11.219 6.6406 18 6.6406 6.7969 17.672 6.7969 12.656 0 19.312-9.7031 6.6719-9.6875 6.6719-28.141 0-17.234-8.1875-27.516-8.1719-10.281-21.984-10.281-3.7188 0-7.5312 0.73438-3.7969 0.73438-7.9062 2.2031zm19.625 30.906q6.6406 0 10.516 4.5312 3.8906 4.5469 3.8906 12.469 0 7.8594-3.8906 12.422-3.875 4.5625-10.516 4.5625t-10.516-4.5625-3.875-12.422q0-7.9219 3.875-12.469 3.875-4.5312 10.516-4.5312z"/>
</defs>
<g transform="translate(123.96 88.151) scale(.1 -.1)">
<use xlink:href="#b"/>
<use x="63.623047" xlink:href="#d"/>
<use x="95.410156" xlink:href="#y"/>
</g>
</g>
<g clip-path="url(#a)">
<defs>
<path id="z" d="m31.781 66.406q-7.6094 0-11.453-7.5-3.8281-7.4844-3.8281-22.531 0-14.984 3.8281-22.484 3.8438-7.5 11.453-7.5 7.6719 0 11.5 7.5 3.8438 7.5 3.8438 22.484 0 15.047-3.8438 22.531-3.8281 7.5-11.5 7.5zm0 7.8125q12.266 0 18.734-9.7031 6.4688-9.6875 6.4688-28.141 0-18.406-6.4688-28.109-6.4688-9.6875-18.734-9.6875-12.25 0-18.719 9.6875-6.4688 9.7031-6.4688 28.109 0 18.453 6.4688 28.141 6.4688 9.7031 18.719 9.7031z"/>
</defs>
<g transform="translate(12.412 223.55) scale(.1 -.1)">
<use xlink:href="#b"/>
<use x="63.623047" xlink:href="#d"/>
<use x="95.410156" xlink:href="#b"/>
<use x="159.033203" xlink:href="#z"/>
</g>
</g>
<g clip-path="url(#a)">
<g transform="translate(229.14 123.02) scale(.1 -.1)">
<use xlink:href="#b"/>
<use x="63.623047" xlink:href="#d"/>
<use x="95.410156" xlink:href="#b"/>
<use x="159.033203" xlink:href="#b"/>
</g>
</g>
<g clip-path="url(#a)">
<g transform="translate(54.191 223.55) scale(.1 -.1)">
<use xlink:href="#b"/>
<use x="63.623047" xlink:href="#d"/>
<use x="95.410156" xlink:href="#b"/>
<use x="159.033203" xlink:href="#n"/>
</g>
</g>
<g clip-path="url(#a)">
<defs>
<path id="ak" d="m40.578 39.312q7.0781-1.5156 11.047-6.3125 3.9844-4.7812 3.9844-11.812 0-10.781-7.4219-16.703-7.4219-5.9062-21.094-5.9062-4.5781 0-9.4375 0.90625t-10.031 2.7188v9.5156q4.0938-2.3906 8.9688-3.6094 4.8906-1.2188 10.219-1.2188 9.2656 0 14.125 3.6562t4.8594 10.641q0 6.4531-4.5156 10.078-4.5156 3.6406-12.562 3.6406h-8.5v8.1094h8.8906q7.2656 0 11.125 2.9062t3.8594 8.375q0 5.6094-3.9844 8.6094-3.9688 3.0156-11.391 3.0156-4.0625 0-8.7031-0.89062-4.6406-0.875-10.203-2.7188v8.7812q5.625 1.5625 10.531 2.3438t9.25 0.78125q11.234 0 17.766-5.1094 6.5469-5.0938 6.5469-13.781 0-6.0625-3.4688-10.234t-9.8594-5.7812z"/>
</defs>
<g transform="translate(95.971 223.55) scale(.1 -.1)">
<use xlink:href="#b"/>
<use x="63.623047" xlink:href="#d"/>
<use x="95.410156" xlink:href="#b"/>
<use x="159.033203" xlink:href="#ak"/>
</g>
</g>
<g clip-path="url(#a)">
<defs>
<path id="aj" d="m37.797 64.312-24.906-38.922h24.906zm-2.5938 8.5938h12.406v-47.516h10.406v-8.2031h-10.406v-17.188h-9.8125v17.188h-32.906v9.5156z"/>
</defs>
<g transform="translate(158.64 157.11) scale(.1 -.1)">
<use xlink:href="#b"/>
<use x="63.623047" xlink:href="#d"/>
<use x="95.410156" xlink:href="#b"/>
<use x="159.033203" xlink:href="#aj"/>
</g>
</g>
<g clip-path="url(#a)">
<defs>
<path id="ai" d="m10.797 72.906h38.719v-8.3125h-29.688v-17.859q2.1406 0.73438 4.2812 1.0938 2.1562 0.35938 4.3125 0.35938 12.203 0 19.328-6.6875 7.1406-6.6875 7.1406-18.109 0-11.766-7.3281-18.297-7.3281-6.5156-20.656-6.5156-4.5938 0-9.3594 0.78125-4.75 0.78125-9.8281 2.3438v9.9219q4.3906-2.3906 9.0781-3.5625t9.9062-1.1719q8.4531 0 13.375 4.4375 4.9375 4.4375 4.9375 12.062 0 7.6094-4.9375 12.047-4.9219 4.4531-13.375 4.4531-3.9531 0-7.8906-0.875-3.9219-0.875-8.0156-2.7344z"/>
</defs>
<g transform="translate(221.31 223.55) scale(.1 -.1)">
<use xlink:href="#b"/>
<use x="63.623047" xlink:href="#d"/>
<use x="95.410156" xlink:href="#b"/>
<use x="159.033203" xlink:href="#ai"/>
</g>
</g>
<g clip-path="url(#a)">
<defs>
<path id="ah" d="m33.016 40.375q-6.6406 0-10.531-4.5469-3.875-4.5312-3.875-12.438 0-7.8594 3.875-12.438 3.8906-4.5625 10.531-4.5625t10.516 4.5625q3.875 4.5781 3.875 12.438 0 7.9062-3.875 12.438-3.875 4.5469-10.516 4.5469zm19.578 30.922v-8.9844q-3.7188 1.75-7.5 2.6719-3.7812 0.9375-7.5 0.9375-9.7656 0-14.922-6.5938-5.1406-6.5938-5.875-19.922 2.875 4.25 7.2188 6.5156 4.3594 2.2656 9.5781 2.2656 10.984 0 17.359-6.6719 6.375-6.6562 6.375-18.125 0-11.234-6.6406-18.031-6.6406-6.7812-17.672-6.7812-12.656 0-19.344 9.6875-6.6875 9.7031-6.6875 28.109 0 17.281 8.2031 27.562t22.016 10.281q3.7188 0 7.5-0.73438t7.8906-2.1875z"/>
</defs>
<g transform="translate(137.75 223.55) scale(.1 -.1)">
<use xlink:href="#b"/>
<use x="63.623047" xlink:href="#d"/>
<use x="95.410156" xlink:href="#b"/>
<use x="159.033203" xlink:href="#ah"/>
</g>
</g>
<g clip-path="url(#a)">
<defs>
<path id="ag" d="m8.2031 72.906h46.875v-4.2031l-26.469-68.703h-10.297l24.906 64.594h-35.016z"/>
</defs>
<g transform="translate(179.53 190.56) scale(.1 -.1)">
<use xlink:href="#b"/>
<use x="63.623047" xlink:href="#d"/>
<use x="95.410156" xlink:href="#b"/>
<use x="159.033203" xlink:href="#ag"/>
</g>
</g>
<g clip-path="url(#a)">
<defs>
<path id="af" d="m31.781 34.625q-7.0312 0-11.062-3.7656-4.0156-3.7656-4.0156-10.344 0-6.5938 4.0156-10.359 4.0312-3.7656 11.062-3.7656t11.078 3.7812q4.0625 3.7969 4.0625 10.344 0 6.5781-4.0312 10.344-4.0156 3.7656-11.109 3.7656zm-9.8594 4.1875q-6.3438 1.5625-9.8906 5.9062-3.5312 4.3594-3.5312 10.609 0 8.7344 6.2188 13.812 6.2344 5.0781 17.062 5.0781 10.891 0 17.094-5.0781t6.2031-13.812q0-6.25-3.5469-10.609-3.5312-4.3438-9.8281-5.9062 7.125-1.6562 11.094-6.5 3.9844-4.8281 3.9844-11.797 0-10.609-6.4688-16.281-6.4688-5.6562-18.531-5.6562-12.047 0-18.531 5.6562-6.4688 5.6719-6.4688 16.281 0 6.9688 4 11.797 4.0156 4.8438 11.141 6.5zm-3.6094 15.578q0-5.6562 3.5312-8.8281 3.5469-3.1719 9.9375-3.1719 6.3594 0 9.9375 3.1719 3.5938 3.1719 3.5938 8.8281 0 5.6719-3.5938 8.8438-3.5781 3.1719-9.9375 3.1719-6.3906 0-9.9375-3.1719-3.5312-3.1719-3.5312-8.8438z"/>
</defs>
<g transform="translate(179.53 223.55) scale(.1 -.1)">
<use xlink:href="#b"/>
<use x="63.623047" xlink:href="#d"/>
<use x="95.410156" xlink:href="#b"/>
<use x="159.033203" xlink:href="#af"/>
</g>
</g>
<g clip-path="url(#a)">
<g transform="translate(263.09 223.55) scale(.1 -.1)">
<use xlink:href="#b"/>
<use x="63.623047" xlink:href="#d"/>
<use x="95.410156" xlink:href="#b"/>
<use x="159.033203" xlink:href="#y"/>
</g>
</g>
<g clip-path="url(#a)">
<g transform="translate(304.87 223.55) scale(.1 -.1)">
<use xlink:href="#b"/>
<use x="63.623047" xlink:href="#d"/>
<use x="95.410156" xlink:href="#n"/>
<use x="159.033203" xlink:href="#z"/>
</g>
</g>
<g clip-path="url(#a)">
<g transform="translate(346.65 223.55) scale(.1 -.1)">
<use xlink:href="#b"/>
<use x="63.623047" xlink:href="#d"/>
<use x="95.410156" xlink:href="#n"/>
<use x="159.033203" xlink:href="#b"/>
</g>
</g>
<g clip-path="url(#a)">
<g transform="translate(388.43 223.55) scale(.1 -.1)">
<use xlink:href="#b"/>
<use x="63.623047" xlink:href="#d"/>
<use x="95.410156" xlink:href="#n"/>
<use x="159.033203" xlink:href="#n"/>
</g>
</g>
<defs>
<clipPath id="a">
<rect width="506.67" height="266.67"/>
</clipPath>
</defs>
</svg>
