<?xml version="1.0" encoding="UTF-8"?>
<!DOCTYPE svg  PUBLIC '-//W3C//DTD SVG 1.1//EN'  'http://www.w3.org/Graphics/SVG/1.1/DTD/svg11.dtd'>
<svg width="1874.7pt" height="986.67pt" version="1.1" viewBox="0 0 1874.7 986.67" xmlns="http://www.w3.org/2000/svg" xmlns:xlink="http://www.w3.org/1999/xlink">
<defs>
<style type="text/css">*{stroke-linecap:butt;stroke-linejoin:round;}</style>
</defs>
<path d="m0 986.67h1874.7v-986.67h-1874.7z" fill="#fff"/>
<g fill="none" stroke="#000">
<path d="m665.15 44.848v129.32" clip-path="url(#a)"/>
<path d="m665.15 174.17 1124.3 129.11" clip-path="url(#a)"/>
<path d="m665.15 174.17 1124.3 129.11" clip-path="url(#a)"/>
<path d="m665.15 174.17v129.11" clip-path="url(#a)"/>
<path d="m665.15 303.28-565.54 257.37" clip-path="url(#a)"/>
<path d="m665.15 303.28-457.87 385.45" clip-path="url(#a)"/>
<path d="m665.15 303.28-384.46 128.85" clip-path="url(#a)"/>
<path d="m665.15 303.28-28.358 385.45" clip-path="url(#a)"/>
<path d="m665.15 303.28 161.64 512.87" clip-path="url(#a)"/>
<path d="m665.15 303.28 445.22 128.85" clip-path="url(#a)"/>
<path d="m665.15 303.28 990.73 385.45" clip-path="url(#a)"/>
<path d="m665.15 303.28-522.36 512.87" clip-path="url(#a)"/>
<path d="m665.15 303.28-377.27 512.87" clip-path="url(#a)"/>
<path d="m665.15 303.28-149.27 512.87" clip-path="url(#a)"/>
<path d="m665.15 303.28 104.07 512.87" clip-path="url(#a)"/>
<path d="m665.15 303.28 783.46 512.87" clip-path="url(#a)"/>
<path d="m99.606 560.65-14.394 255.5" clip-path="url(#a)"/>
<path d="m99.606 560.65-7.4848 255.5" clip-path="url(#a)"/>
<path d="m99.606 560.65 1.7273 255.5" clip-path="url(#a)"/>
<path d="m99.606 560.65 20.152 128.09" clip-path="url(#a)"/>
<path d="m207.27 688.73-46.061 127.42" clip-path="url(#a)"/>
<path d="m207.27 688.73-25.333 127.42" clip-path="url(#a)"/>
<path d="m207.27 688.73-2.303 127.42" clip-path="url(#a)"/>
<path d="m207.27 688.73 23.03 127.42" clip-path="url(#a)"/>
<path d="m207.27 688.73 50.667 127.42" clip-path="url(#a)"/>
<path d="m280.68 432.12 98.742 128.52" clip-path="url(#a)"/>
<path d="m280.68 432.12-98.742 384.02" clip-path="url(#a)" stroke-dasharray="3.7,1.6"/>
<path d="m636.79 688.73-74.848 127.42" clip-path="url(#a)"/>
<path d="m636.79 688.73-26.485 127.42" clip-path="url(#a)"/>
<path d="m636.79 688.73 24.182 127.42" clip-path="url(#a)"/>
<path d="m636.79 688.73 77.152 127.42" clip-path="url(#a)"/>
<path d="m826.79 816.15v125.67" clip-path="url(#a)"/>
<path d="m1110.4 432.12-223.7 384.02" clip-path="url(#a)"/>
<path d="m1110.4 432.12-129.28 256.61" clip-path="url(#a)"/>
<path d="m1110.4 432.12-30.246 384.02" clip-path="url(#a)"/>
<path d="m1110.4 432.12 123.29 128.52" clip-path="url(#a)"/>
<path d="m1110.4 432.12 259.94 384.02" clip-path="url(#a)"/>
<path d="m1655.9 688.73-126.67 127.42" clip-path="url(#a)"/>
<path d="m1655.9 688.73-43.758 127.42" clip-path="url(#a)"/>
<path d="m1655.9 688.73 41.455 127.42" clip-path="url(#a)"/>
<path d="m1655.9 688.73 128.97 127.42" clip-path="url(#a)"/>
<path d="m1529.2 816.15v125.67" clip-path="url(#a)"/>
<path d="m1612.1 816.15v125.67" clip-path="url(#a)"/>
<path d="m886.67 816.15v125.67" clip-path="url(#a)"/>
<path d="m981.09 688.73-32.242 127.42" clip-path="url(#a)"/>
<path d="m981.09 688.73 32.242 127.42" clip-path="url(#a)"/>
<path d="m1080.1 816.15v125.67" clip-path="url(#a)"/>
<path d="m1233.7 560.65-84.444 255.5" clip-path="url(#a)"/>
<path d="m1233.7 560.65 23.798 128.09" clip-path="url(#a)"/>
<path d="m1233.7 560.65 60.646 255.5" clip-path="url(#a)"/>
<path d="m1370.3 816.15v125.67" clip-path="url(#a)"/>
<path d="m1149.2 816.15v125.67" clip-path="url(#a)"/>
<path d="m1257.5 688.73 36.848 127.42" clip-path="url(#a)" stroke-dasharray="3.7,1.6"/>
<path d="m1257.5 688.73-36.848 127.42" clip-path="url(#a)"/>
<path d="m1294.3 816.15v125.67" clip-path="url(#a)"/>
<path d="m1220.6 816.15v125.67" clip-path="url(#a)"/>
<path d="m948.85 816.15v125.67" clip-path="url(#a)"/>
<path d="m1013.3 816.15v125.67" clip-path="url(#a)"/>
<path d="m561.94 816.15v125.67" clip-path="url(#a)"/>
<path d="m610.3 816.15v125.67" clip-path="url(#a)"/>
<path d="m660.97 816.15v125.67" clip-path="url(#a)"/>
<path d="m713.94 816.15v125.67" clip-path="url(#a)"/>
<path d="m379.42 560.65-59.303 255.5" clip-path="url(#a)"/>
<path d="m379.42 560.65-24.758 255.5" clip-path="url(#a)"/>
<path d="m379.42 560.65 12.091 255.5" clip-path="url(#a)"/>
<path d="m379.42 560.65 71.97 128.09" clip-path="url(#a)"/>
<path d="m320.12 816.15v125.67" clip-path="url(#a)"/>
<path d="m354.67 816.15v125.67" clip-path="url(#a)"/>
<path d="m391.52 816.15v125.67" clip-path="url(#a)"/>
<path d="m451.39 688.73-20.727 127.42" clip-path="url(#a)"/>
<path d="m451.39 688.73 20.727 127.42" clip-path="url(#a)"/>
<path d="m430.67 816.15v125.67" clip-path="url(#a)"/>
<path d="m472.12 816.15v125.67" clip-path="url(#a)"/>
<path d="m161.21 816.15v125.67" clip-path="url(#a)"/>
<path d="m181.94 816.15v125.67" clip-path="url(#a)"/>
<path d="m204.97 816.15v125.67" clip-path="url(#a)"/>
<path d="m230.3 816.15v125.67" clip-path="url(#a)"/>
<path d="m257.94 816.15v125.67" clip-path="url(#a)"/>
<path d="m85.212 816.15v125.67" clip-path="url(#a)"/>
<path d="m92.121 816.15v125.67" clip-path="url(#a)"/>
<path d="m101.33 816.15v125.67" clip-path="url(#a)"/>
<path d="m119.76 688.73-6.9091 127.42" clip-path="url(#a)"/>
<path d="m119.76 688.73 6.9091 127.42" clip-path="url(#a)"/>
<path d="m112.85 816.15v125.67" clip-path="url(#a)"/>
<path d="m126.67 816.15v125.67" clip-path="url(#a)"/>
<path d="m142.79 816.15v125.67" clip-path="url(#a)"/>
<path d="m287.88 816.15v125.67" clip-path="url(#a)"/>
<path d="m515.88 816.15v125.67" clip-path="url(#a)"/>
<path d="m769.21 816.15v125.67" clip-path="url(#a)"/>
<path d="m1448.6 816.15v125.67" clip-path="url(#a)"/>
<path d="m1697.3 816.15v125.67" clip-path="url(#a)"/>
<path d="m1784.8 816.15v125.67" clip-path="url(#a)"/>
</g>
<path d="m658.87 106.5v6.0162q0 2.4 2.4 2.4h7.7425q2.4 0 2.4-2.4v-6.0162q0-2.4-2.4-2.4h-7.7425q-2.4 0-2.4 2.4z" clip-path="url(#a)" fill="#fff" stroke="#fff"/>
<g clip-path="url(#a)">
<defs>
<path id="y" d="m9.8125 72.906h9.8594v-29.891h35.844v29.891h9.8594v-72.906h-9.8594v34.719h-35.844v-34.719h-9.8594z"/>
</defs>
<g transform="translate(662.94 106.5) rotate(90) scale(.08 -.08)">
<use xlink:href="#y"/>
</g>
</g>
<path d="m1224.2 244.68 4.7923 0.5503q2.3843 0.2738 2.6581-2.1105l0.88328-7.692q0.2738-2.3843-2.1105-2.6581l-4.7923-0.5503q-2.3843-0.2738-2.6581 2.1105l-0.88328 7.692q-0.2738 2.3843 2.1105 2.6581z" clip-path="url(#a)" fill="#fff" stroke="#fff"/>
<g clip-path="url(#a)">
<defs>
<path id="ae" d="m19.672 64.797v-27.391h12.406q6.8906 0 10.641 3.5625 3.7656 3.5625 3.7656 10.156 0 6.5469-3.7656 10.109-3.75 3.5625-10.641 3.5625zm-9.8594 8.1094h22.266q12.266 0 18.531-5.5469 6.2812-5.5469 6.2812-16.234 0-10.797-6.2812-16.312-6.2656-5.5156-18.531-5.5156h-12.406v-29.297h-9.8594z"/>
</defs>
<g transform="translate(1224.7 240.64) rotate(6.5507) scale(.08 -.08)">
<use xlink:href="#ae"/>
</g>
</g>
<path d="m1223.9 244.64 5.4368 0.62431q2.3843 0.2738 2.6581-2.1105l0.88328-7.692q0.2738-2.3843-2.1105-2.6581l-5.4368-0.62431q-2.3843-0.2738-2.6581 2.1105l-0.88328 7.692q-0.2738 2.3843 2.1105 2.6581z" clip-path="url(#a)" fill="#fff" stroke="#fff"/>
<g clip-path="url(#a)">
<defs>
<path id="q" d="m34.188 63.188-13.391-36.281h26.812zm-5.5781 9.7188h11.188l27.781-72.906h-10.25l-6.6406 18.703h-32.859l-6.6406-18.703h-10.406z"/>
</defs>
<g transform="translate(1224.3 240.61) rotate(6.5507) scale(.08 -.08)">
<use xlink:href="#q"/>
</g>
</g>
<path d="m658.87 235.99v5.4725q0 2.4 2.4 2.4h7.7425q2.4 0 2.4-2.4v-5.4725q0-2.4-2.4-2.4h-7.7425q-2.4 0-2.4 2.4z" clip-path="url(#a)" fill="#fff" stroke="#fff"/>
<g clip-path="url(#a)">
<g transform="translate(662.94 235.99) rotate(90) scale(.08 -.08)">
<use xlink:href="#q"/>
</g>
</g>
<path d="m382.24 438.92 5.4759-2.492q2.1844-0.9941 1.1903-3.1785l-3.207-7.0471q-0.9941-2.1844-3.1785-1.1903l-5.4759 2.492q-2.1844 0.9941-1.1903 3.1785l3.207 7.0471q0.9941 2.1844 3.1785 1.1903z" clip-path="url(#a)" fill="#fff" stroke="#fff"/>
<g clip-path="url(#a)">
<g transform="translate(380.55 435.22) rotate(-24.47) scale(.08 -.08)">
<use xlink:href="#y"/>
</g>
</g>
<path d="m437.95 502.74 4.6025-3.8746q1.836-1.5456 0.29039-3.3817l-4.9863-5.9231q-1.5456-1.836-3.3817-0.29039l-4.6025 3.8746q-1.836 1.5456-0.29039 3.3817l4.9863 5.9231q1.5456 1.836 3.3817 0.29039z" clip-path="url(#a)" fill="#fff" stroke="#fff"/>
<g clip-path="url(#a)">
<g transform="translate(435.33 499.63) rotate(-40.092) scale(.08 -.08)">
<use xlink:href="#y"/>
</g>
</g>
<path d="m472.05 374.6 5.7044-1.9117q2.2756-0.76263 1.513-3.0382l-2.4603-7.3412q-0.76263-2.2756-3.0382-1.513l-5.7044 1.9117q-2.2756 0.76263-1.513 3.0382l2.4603 7.3412q0.76263 2.2756 3.0382 1.513z" clip-path="url(#a)" fill="#fff" stroke="#fff"/>
<g clip-path="url(#a)">
<g transform="translate(470.76 370.75) rotate(-18.528) scale(.08 -.08)">
<use xlink:href="#y"/>
</g>
</g>
<path d="m657 499.46 0.44142-6q0.17609-2.3935-2.2174-2.5696l-7.7216-0.56808q-2.3935-0.17609-2.5696 2.2174l-0.44142 6q-0.17609 2.3935 2.2174 2.5696l7.7216 0.56808q2.3935 0.17609 2.5696-2.2174z" clip-path="url(#a)" fill="#fff" stroke="#fff"/>
<g clip-path="url(#a)">
<g transform="translate(652.95 499.17) rotate(-85.792) scale(.08 -.08)">
<use xlink:href="#y"/>
</g>
</g>
<path d="m739.32 559.47 1.3399 4.2513q0.72143 2.289 3.0104 1.5676l7.3844-2.3274q2.289-0.72143 1.5676-3.0104l-1.3399-4.2513q-0.72143-2.289-3.0104-1.5676l-7.3844 2.3274q-2.289 0.72143-1.5676 3.0104z" clip-path="url(#a)" fill="#fff" stroke="#fff"/>
<g clip-path="url(#a)">
<defs>
<path id="am" d="m9.8125 72.906h9.8594v-64.609h35.5v-8.2969h-45.359z"/>
</defs>
<g transform="translate(743.19 558.25) rotate(72.507) scale(.08 -.08)">
<use xlink:href="#am"/>
</g>
</g>
<path d="m883.12 372.89 5.7791 1.6725q2.3054 0.66718 2.9726-1.6382l2.1524-7.4373q0.66718-2.3054-1.6382-2.9726l-5.7791-1.6725q-2.3054-0.66718-2.9726 1.6382l-2.1524 7.4373q-0.66718 2.3054 1.6382 2.9726z" clip-path="url(#a)" fill="#fff" stroke="#fff"/>
<g clip-path="url(#a)">
<g transform="translate(884.25 368.99) rotate(16.14) scale(.08 -.08)">
<use xlink:href="#y"/>
</g>
</g>
<path d="m1155.4 500.76 5.6068 2.1814q2.2367 0.8702 3.1069-1.3665l2.8073-7.2156q0.8702-2.2367-1.3665-3.1069l-5.6069-2.1814q-2.2367-0.8702-3.1069 1.3665l-2.8073 7.2156q-0.8702 2.2367 1.3665 3.1069z" clip-path="url(#a)" fill="#fff" stroke="#fff"/>
<g clip-path="url(#a)">
<g transform="translate(1156.9 496.97) rotate(21.259) scale(.08 -.08)">
<use xlink:href="#y"/>
</g>
</g>
<path d="m406.27 566.24 4.1779-4.102q1.7125-1.6814 0.031101-3.394l-5.4244-5.5247q-1.6814-1.7125-3.394-0.031101l-4.1779 4.102q-1.7125 1.6814-0.0311 3.394l5.4244 5.5247q1.6814 1.7125 3.394 0.031101z" clip-path="url(#a)" fill="#fff" stroke="#fff"/>
<g clip-path="url(#a)">
<defs>
<path id="w" d="m8.6875 72.906h9.9219v-44.297q0-11.719 4.2344-16.875 4.25-5.1406 13.781-5.1406 9.4688 0 13.719 5.1406 4.25 5.1562 4.25 16.875v44.297h9.9062v-45.516q0-14.25-7.0625-21.531-7.0469-7.2812-20.812-7.2812-13.828 0-20.891 7.2812-7.0469 7.2812-7.0469 21.531z"/>
</defs>
<g transform="translate(403.42 563.34) rotate(-44.475) scale(.08 -.08)">
<use xlink:href="#w"/>
</g>
</g>
<path d="m479.83 565.79 3.4694-4.7164q1.4221-1.9333-0.51116-3.3554l-6.2368-4.5878q-1.9333-1.4221-3.3554 0.51116l-3.4694 4.7164q-1.4221 1.9333 0.51117 3.3554l6.2368 4.5878q1.9333 1.4221 3.3554-0.51116z" clip-path="url(#a)" fill="#fff" stroke="#fff"/>
<g clip-path="url(#a)">
<g transform="translate(476.56 563.38) rotate(-53.662) scale(.08 -.08)">
<use xlink:href="#w"/>
</g>
</g>
<path d="m595.72 564.28 1.6362-5.6217q0.67067-2.3044-1.6337-2.9751l-7.434-2.1636q-2.3044-0.67067-2.9751 1.6337l-1.6362 5.6217q-0.67067 2.3044 1.6337 2.9751l7.434 2.1636q2.3044 0.67067 2.9751-1.6337z" clip-path="url(#a)" fill="#fff" stroke="#fff"/>
<g clip-path="url(#a)">
<g transform="translate(591.81 563.14) rotate(-73.773) scale(.08 -.08)">
<use xlink:href="#w"/>
</g>
</g>
<path d="m710.45 558.09 1.1643 5.7381q0.47726 2.3521 2.8293 1.8748l7.5879-1.5397q2.3521-0.47726 1.8748-2.8293l-1.1643-5.7381q-0.47726-2.3521-2.8293-1.8748l-7.5879 1.5397q-2.3521 0.47726-1.8748 2.8293z" clip-path="url(#a)" fill="#fff" stroke="#fff"/>
<g clip-path="url(#a)">
<g transform="translate(714.43 557.28) rotate(78.53) scale(.08 -.08)">
<use xlink:href="#w"/>
</g>
</g>
<path d="m1051 563.36 4.8987 3.2068q2.008 1.3145 3.3225-0.69352l4.2406-6.4779q1.3145-2.008-0.69352-3.3225l-4.8987-3.2068q-2.008-1.3145-3.3225 0.69352l-4.2406 6.4779q-1.3145 2.008 0.69352 3.3225z" clip-path="url(#a)" fill="#fff" stroke="#fff"/>
<g clip-path="url(#a)">
<g transform="translate(1053.2 559.96) rotate(33.21) scale(.08 -.08)">
<use xlink:href="#w"/>
</g>
</g>
<path d="m98.517 691.48 0.30781-5.4638q0.13499-2.3962-2.2612-2.5312l-7.7302-0.43549q-2.3962-0.13499-2.5312 2.2612l-0.30781 5.4638q-0.13499 2.3962 2.2612 2.5312l7.7302 0.43549q2.3962 0.13499 2.5312-2.2612z" clip-path="url(#a)" fill="#fff" stroke="#fff"/>
<g clip-path="url(#a)">
<g transform="translate(94.459 691.25) rotate(-86.776) scale(.08 -.08)">
<use xlink:href="#q"/>
</g>
</g>
<path d="m102.06 690.88 0.13473-4.5993q0.070277-2.399-2.3287-2.4692l-7.7392-0.22672q-2.399-0.070276-2.4692 2.3287l-0.13473 4.5993q-0.070277 2.399 2.3287 2.4692l7.7392 0.22672q2.399 0.070277 2.4692-2.3287z" clip-path="url(#a)" fill="#fff" stroke="#fff"/>
<g clip-path="url(#a)">
<defs>
<path id="aj" d="m9.8125 72.906h41.891v-8.3125h-32.031v-21.484h28.906v-8.2969h-28.906v-34.812h-9.8594z"/>
</defs>
<g transform="translate(98.003 690.76) rotate(-88.322) scale(.08 -.08)">
<use xlink:href="#aj"/>
</g>
</g>
<path d="m94.181 685.9 0.034333 5.0786q0.016224 2.3999 2.4162 2.3837l7.7423-0.05234q2.3999-0.016225 2.3837-2.4162l-0.034333-5.0786q-0.016224-2.3999-2.4162-2.3837l-7.7423 0.052341q-2.3999 0.016224-2.3837 2.4162z" clip-path="url(#a)" fill="#fff" stroke="#fff"/>
<g clip-path="url(#a)">
<defs>
<path id="x" d="m53.516 70.516v-9.625q-5.6094 2.6875-10.594 4-4.9844 1.3281-9.625 1.3281-8.0469 0-12.422-3.125t-4.375-8.8906q0-4.8438 2.9062-7.3125 2.9062-2.4531 11.016-3.9688l5.9531-1.2188q11.031-2.1094 16.281-7.4062t5.25-14.172q0-10.609-7.1094-16.078-7.0938-5.4688-20.812-5.4688-5.1719 0-11.016 1.1719-5.8281 1.1719-12.078 3.4688v10.156q6-3.3594 11.766-5.0781 5.7656-1.7031 11.328-1.7031 8.4375 0 13.031 3.3125 4.5938 3.3281 4.5938 9.4844 0 5.3594-3.2969 8.3906t-10.812 4.5469l-6.0156 1.1719q-11.031 2.1875-15.969 6.875-4.9219 4.6875-4.9219 13.047 0 9.6719 6.8125 15.234t18.766 5.5625q5.1406 0 10.453-0.9375 5.3281-0.92188 10.891-2.7656z"/>
</defs>
<g transform="translate(98.245 685.87) rotate(89.613) scale(.08 -.08)">
<use xlink:href="#x"/>
</g>
</g>
<path d="m103.06 622.96 0.85052 5.406q0.373 2.3708 2.7438 1.9978l7.6484-1.2033q2.3708-0.373 1.9978-2.7438l-0.85052-5.406q-0.373-2.3708-2.7438-1.9978l-7.6484 1.2033q-2.3708 0.373-1.9978 2.7438z" clip-path="url(#a)" fill="#fff" stroke="#fff"/>
<g clip-path="url(#a)">
<g transform="translate(107.08 622.33) rotate(81.059) scale(.08 -.08)">
<use xlink:href="#q"/>
</g>
</g>
<path d="m189.09 757.47 2.0942-5.7931q0.81591-2.2571-1.4411-3.073l-7.2813-2.6322q-2.2571-0.81591-3.073 1.4411l-2.0942 5.7931q-0.81591 2.2571 1.4411 3.073l7.2813 2.6322q2.2571 0.81591 3.073-1.4411z" clip-path="url(#a)" fill="#fff" stroke="#fff"/>
<g clip-path="url(#a)">
<defs>
<path id="an" d="m19.672 64.797v-56.688h11.922q15.094 0 22.094 6.8281 7 6.8438 7 21.594 0 14.641-7 21.453t-22.094 6.8125zm-9.8594 8.1094h20.266q21.188 0 31.094-8.8125 9.9219-8.8125 9.9219-27.562 0-18.859-9.9688-27.703-9.9531-8.8281-31.047-8.8281h-20.266z"/>
</defs>
<g transform="translate(185.27 756.09) rotate(-70.125) scale(.08 -.08)">
<use xlink:href="#an"/>
</g>
</g>
<path d="m200.26 756.15 0.99038-4.9812q0.46801-2.3539-1.8859-2.8219l-7.5939-1.5098q-2.3539-0.46801-2.8219 1.8859l-0.99038 4.9812q-0.46801 2.3539 1.8859 2.8219l7.5939 1.5098q2.3539 0.46801 2.8219-1.8859z" clip-path="url(#a)" fill="#fff" stroke="#fff"/>
<g clip-path="url(#a)">
<g transform="translate(196.28 755.36) rotate(-78.755) scale(.08 -.08)">
<use xlink:href="#x"/>
</g>
</g>
<path d="m212.34 755.63 0.11132-6.159q0.043372-2.3996-2.3562-2.443l-7.7412-0.13992q-2.3996-0.043373-2.443 2.3562l-0.11132 6.159q-0.043372 2.3996 2.3562 2.443l7.7412 0.13992q2.3996 0.043372 2.443-2.3562z" clip-path="url(#a)" fill="#fff" stroke="#fff"/>
<g clip-path="url(#a)">
<g transform="translate(208.27 755.56) rotate(-88.965) scale(.08 -.08)">
<use xlink:href="#an"/>
</g>
</g>
<path d="m212.13 750.86 0.97337 5.3852q0.42688 2.3617 2.7886 1.9349l7.619-1.3771q2.3617-0.42688 1.9349-2.7886l-0.97337-5.3852q-0.42688-2.3617-2.7886-1.9349l-7.619 1.3771q-2.3617 0.42688-1.9349 2.7886z" clip-path="url(#a)" fill="#fff" stroke="#fff"/>
<g clip-path="url(#a)">
<g transform="translate(216.13 750.14) rotate(79.755) scale(.08 -.08)">
<use xlink:href="#q"/>
</g>
</g>
<path d="m225.93 752.62 1.7002 4.2756q0.8868 2.2302 3.117 1.3433l7.1946-2.8609q2.2302-0.8868 1.3433-3.117l-1.7002-4.2756q-0.8868-2.2302-3.117-1.3433l-7.1946 2.8609q-2.2302 0.8868-1.3433 3.117z" clip-path="url(#a)" fill="#fff" stroke="#fff"/>
<g clip-path="url(#a)">
<g transform="translate(229.7 751.12) rotate(68.315) scale(.08 -.08)">
<use xlink:href="#aj"/>
</g>
</g>
<path d="m323.41 498.04 3.3341 4.3396q1.4622 1.9032 3.3653 0.44097l6.1397-4.7171q1.9032-1.4622 0.44097-3.3653l-3.3341-4.3396q-1.4622-1.9032-3.3653-0.44097l-6.1397 4.7171q-1.9032 1.4622-0.44097 3.3653z" clip-path="url(#a)" fill="#fff" stroke="#fff"/>
<g clip-path="url(#a)">
<g transform="translate(326.64 495.56) rotate(52.465) scale(.08 -.08)">
<use xlink:href="#q"/>
</g>
</g>
<path d="m236.75 628.16 1.2647-4.9188q0.59766-2.3244-1.7267-2.9221l-7.4986-1.9281q-2.3244-0.59766-2.9221 1.7267l-1.2647 4.9188q-0.59766 2.3244 1.7267 2.9221l7.4986 1.9281q2.3244 0.59766 2.9221-1.7267z" clip-path="url(#a)" fill="#fff" stroke="#fff"/>
<g clip-path="url(#a)">
<g transform="translate(232.82 627.15) rotate(-75.58) scale(.08 -.08)">
<use xlink:href="#x"/>
</g>
</g>
<path d="m603.39 757.98 2.7718-4.7186q1.2156-2.0694-0.85377-3.285l-6.6759-3.9216q-2.0694-1.2156-3.285 0.85377l-2.7718 4.7186q-1.2156 2.0694 0.85377 3.285l6.6759 3.9216q2.0694 1.2156 3.285-0.85376z" clip-path="url(#a)" fill="#fff" stroke="#fff"/>
<g clip-path="url(#a)">
<g transform="translate(599.88 755.92) rotate(-59.569) scale(.08 -.08)">
<use xlink:href="#q"/>
</g>
</g>
<path d="m629.06 756.73 1.2536-6.0311q0.48842-2.3498-1.8614-2.8382l-7.5805-1.5757q-2.3498-0.48842-2.8382 1.8614l-1.2536 6.0311q-0.48842 2.3498 1.8614 2.8382l7.5805 1.5757q2.3498 0.48842 2.8382-1.8614z" clip-path="url(#a)" fill="#fff" stroke="#fff"/>
<g clip-path="url(#a)">
<g transform="translate(625.08 755.91) rotate(-78.258) scale(.08 -.08)">
<use xlink:href="#an"/>
</g>
</g>
<path d="m642.21 750.92 1.0204 5.3765q0.44749 2.3579 2.8054 1.9104l7.6067-1.4436q2.3579-0.4475 1.9104-2.8054l-1.0204-5.3765q-0.44749-2.3579-2.8054-1.9104l-7.6067 1.4436q-2.3579 0.4475-1.9104 2.8054z" clip-path="url(#a)" fill="#fff" stroke="#fff"/>
<g clip-path="url(#a)">
<g transform="translate(646.2 750.16) rotate(79.254) scale(.08 -.08)">
<use xlink:href="#q"/>
</g>
</g>
<path d="m668.75 753.63 2.4985 4.1263q1.2431 2.053 3.2961 0.8099l6.623-4.0102q2.053-1.2431 0.8099-3.2961l-2.4985-4.1263q-1.2431-2.053-3.2961-0.8099l-6.623 4.0102q-2.053 1.2431-0.8099 3.2961z" clip-path="url(#a)" fill="#fff" stroke="#fff"/>
<g clip-path="url(#a)">
<g transform="translate(672.23 751.52) rotate(58.805) scale(.08 -.08)">
<use xlink:href="#ae"/>
</g>
</g>
<path d="m820.52 862.08v33.808q0 2.4 2.4 2.4h7.7425q2.4 0 2.4-2.4v-33.808q0-2.4-2.4-2.4h-7.7425q-2.4 0-2.4 2.4z" clip-path="url(#a)" fill="#fff" stroke="#fff"/>
<g clip-path="url(#a)">
<defs>
<path id="j" d="m-0.29688 72.906h61.672v-8.3125h-25.875v-64.594h-9.9062v64.594h-25.891z"/>
<path id="e" d="m56.203 29.594v-4.3906h-41.312q0.59375-9.2812 5.5938-14.141t13.938-4.8594q5.1719 0 10.031 1.2656t9.6562 3.8125v-8.5q-4.8438-2.0469-9.9219-3.125t-10.297-1.0781q-13.094 0-20.734 7.6094-7.6406 7.625-7.6406 20.625 0 13.422 7.25 21.297 7.25 7.8906 19.562 7.8906 11.031 0 17.453-7.1094 6.4219-7.0938 6.4219-19.297zm-8.9844 2.6406q-0.09375 7.3594-4.125 11.75-4.0312 4.4062-10.672 4.4062-7.5156 0-12.031-4.25t-5.2031-11.969z"/>
<path id="i" d="m41.109 46.297q-1.5156 0.875-3.2969 1.2812-1.7812 0.42188-3.9219 0.42188-7.625 0-11.703-4.9531t-4.0781-14.234v-28.812h-9.0312v54.688h9.0312v-8.5q2.8438 4.9844 7.375 7.3906 4.5469 2.4219 11.047 2.4219 0.92188 0 2.0469-0.125 1.125-0.10938 2.4844-0.35938z"/>
<path id="l" d="m52 44.188q3.375 6.0625 8.0625 8.9375t11.031 2.875q8.5469 0 13.188-5.9844 4.6406-5.9688 4.6406-17v-33.016h-9.0312v32.719q0 7.8594-2.7969 11.656-2.7812 3.8125-8.4844 3.8125-6.9844 0-11.047-4.6406-4.0469-4.625-4.0469-12.641v-30.906h-9.0312v32.719q0 7.9062-2.7812 11.688t-8.5938 3.7812q-6.8906 0-10.953-4.6562-4.0469-4.6562-4.0469-12.625v-30.906h-9.0312v54.688h9.0312v-8.5q3.0781 5.0312 7.375 7.4219t10.203 2.3906q5.9688 0 10.141-3.0312 4.1719-3.0156 6.1719-8.7812z"/>
<path id="h" d="m9.4219 54.688h8.9844v-54.688h-8.9844zm0 21.297h8.9844v-11.391h-8.9844z"/>
<path id="f" d="m54.891 33.016v-33.016h-8.9844v32.719q0 7.7656-3.0312 11.609-3.0312 3.8594-9.0781 3.8594-7.2812 0-11.484-4.6406-4.2031-4.625-4.2031-12.641v-30.906h-9.0312v54.688h9.0312v-8.5q3.2344 4.9375 7.5938 7.375 4.375 2.4375 10.094 2.4375 9.4219 0 14.25-5.8281 4.8438-5.8281 4.8438-17.156z"/>
<path id="g" d="m34.281 27.484q-10.891 0-15.094-2.4844t-4.2031-8.5q0-4.7812 3.1562-7.5938 3.1562-2.7969 8.5625-2.7969 7.4844 0 12 5.2969t4.5156 14.078v2zm17.922 3.7188v-31.203h-8.9844v8.2969q-3.0781-4.9688-7.6719-7.3438t-11.234-2.375q-8.3906 0-13.359 4.7188-4.9531 4.7188-4.9531 12.625 0 9.2188 6.1719 13.906 6.1875 4.6875 18.438 4.6875h12.609v0.89062q0 6.2031-4.0781 9.5938t-11.453 3.3906q-4.6875 0-9.1406-1.125-4.4375-1.125-8.5312-3.375v8.3125q4.9219 1.9062 9.5625 2.8438 4.6406 0.95312 9.0312 0.95312 11.875 0 17.734-6.1562 5.8594-6.1406 5.8594-18.641z"/>
<path id="k" d="m9.4219 75.984h8.9844v-75.984h-8.9844z"/>
</defs>
<g transform="translate(824.58 862.08) rotate(90) scale(.08 -.08)">
<use xlink:href="#j"/>
<use x="44.083984" xlink:href="#e"/>
<use x="105.607422" xlink:href="#i"/>
<use x="144.970703" xlink:href="#l"/>
<use x="242.382812" xlink:href="#h"/>
<use x="270.166016" xlink:href="#f"/>
<use x="333.544922" xlink:href="#g"/>
<use x="394.824219" xlink:href="#k"/>
</g>
</g>
<path d="m1002.6 629.66 2.7546-4.7287q1.208-2.0738-0.86578-3.2818l-6.6902-3.8971q-2.0738-1.208-3.2818 0.86578l-2.7546 4.7287q-1.208 2.0738 0.86578 3.2818l6.6902 3.8971q2.0738 1.208 3.2818-0.86578z" clip-path="url(#a)" fill="#fff" stroke="#fff"/>
<g clip-path="url(#a)">
<g transform="translate(999.05 627.61) rotate(-59.778) scale(.08 -.08)">
<use xlink:href="#q"/>
</g>
</g>
<path d="m1050.2 565.43 2.1984-4.3638q1.0798-2.1434-1.0636-3.2232l-6.9146-3.4835q-2.1434-1.0798-3.2232 1.0636l-2.1984 4.3638q-1.0798 2.1434 1.0636 3.2232l6.9146 3.4835q2.1434 1.0798 3.2232-1.0636z" clip-path="url(#a)" fill="#fff" stroke="#fff"/>
<g clip-path="url(#a)">
<g transform="translate(1046.6 563.6) rotate(-63.261) scale(.08 -.08)">
<use xlink:href="#j"/>
</g>
</g>
<path d="m1101.3 627.16 0.39878-5.0631q0.18844-2.3926-2.2041-2.581l-7.7186-0.60793q-2.3926-0.18844-2.581 2.2041l-0.39878 5.0631q-0.18844 2.3926 2.2041 2.581l7.7186 0.60793q2.3926 0.18844 2.581-2.2041z" clip-path="url(#a)" fill="#fff" stroke="#fff"/>
<g clip-path="url(#a)">
<g transform="translate(1097.2 626.84) rotate(-85.497) scale(.08 -.08)">
<use xlink:href="#x"/>
</g>
</g>
<path d="m1165.6 498.75 3.7884 3.9492q1.6614 1.7319 3.3934 0.070516l5.5873-5.3598q1.7319-1.6614 0.070516-3.3934l-3.7884-3.9492q-1.6614-1.7319-3.3934-0.070515l-5.5873 5.3598q-1.7319 1.6614-0.070515 3.3934z" clip-path="url(#a)" fill="#fff" stroke="#fff"/>
<g clip-path="url(#a)">
<g transform="translate(1168.5 495.94) rotate(46.19) scale(.08 -.08)">
<use xlink:href="#q"/>
</g>
</g>
<path d="m1233.9 625.75 2.5792 3.8104q1.3453 1.9875 3.3328 0.64222l6.4118-4.34q1.9875-1.3453 0.64222-3.3328l-2.5792-3.8104q-1.3453-1.9875-3.3328-0.64222l-6.4118 4.34q-1.9875 1.3453-0.64222 3.3328z" clip-path="url(#a)" fill="#fff" stroke="#fff"/>
<g clip-path="url(#a)">
<g transform="translate(1237.2 623.47) rotate(55.907) scale(.08 -.08)">
<use xlink:href="#aj"/>
</g>
</g>
<path d="m1595.1 758.8 3.8582-3.8811q1.692-1.7021-0.010028-3.3941l-5.4909-5.4586q-1.7021-1.692-3.3941 0.010028l-3.8582 3.8811q-1.692 1.7021 0.010028 3.3941l5.4909 5.4586q1.7021 1.692 3.3941-0.010028z" clip-path="url(#a)" fill="#fff" stroke="#fff"/>
<g clip-path="url(#a)">
<g transform="translate(1592.2 755.94) rotate(-45.169) scale(.08 -.08)">
<use xlink:href="#q"/>
</g>
</g>
<path d="m1639.1 756.88 1.6496-4.8034q0.77952-2.2699-1.4904-3.0494l-7.3227-2.5148q-2.2699-0.77952-3.0494 1.4904l-1.6496 4.8034q-0.77952 2.2699 1.4904 3.0494l7.3227 2.5148q2.2699 0.77952 3.0494-1.4904z" clip-path="url(#a)" fill="#fff" stroke="#fff"/>
<g clip-path="url(#a)">
<g transform="translate(1635.3 755.56) rotate(-71.047) scale(.08 -.08)">
<use xlink:href="#x"/>
</g>
</g>
<path d="m1669.7 751.6 1.8114 5.5677q0.74252 2.2823 3.0248 1.5397l7.3626-2.3954q2.2822-0.74252 1.5397-3.0248l-1.8114-5.5677q-0.74252-2.2822-3.0248-1.5397l-7.3626 2.3954q-2.2822 0.74252-1.5397 3.0248z" clip-path="url(#a)" fill="#fff" stroke="#fff"/>
<g clip-path="url(#a)">
<g transform="translate(1673.6 750.34) rotate(71.978) scale(.08 -.08)">
<use xlink:href="#w"/>
</g>
</g>
<path d="m1713.9 754.84 4.1651 4.115q1.7073 1.6868 3.394-0.020549l5.4415-5.5078q1.6868-1.7073-0.02055-3.3941l-4.1651-4.115q-1.7073-1.6868-3.3941 0.02055l-5.4415 5.5078q-1.6868 1.7073 0.020549 3.394z" clip-path="url(#a)" fill="#fff" stroke="#fff"/>
<g clip-path="url(#a)">
<g transform="translate(1716.7 751.95) rotate(44.653) scale(.08 -.08)">
<use xlink:href="#w"/>
</g>
</g>
<path d="m1522.9 862.08v33.808q0 2.4 2.4 2.4h7.7425q2.4 0 2.4-2.4v-33.808q0-2.4-2.4-2.4h-7.7425q-2.4 0-2.4 2.4z" clip-path="url(#a)" fill="#fff" stroke="#fff"/>
<g clip-path="url(#a)">
<g transform="translate(1527 862.08) rotate(90) scale(.08 -.08)">
<use xlink:href="#j"/>
<use x="44.083984" xlink:href="#e"/>
<use x="105.607422" xlink:href="#i"/>
<use x="144.970703" xlink:href="#l"/>
<use x="242.382812" xlink:href="#h"/>
<use x="270.166016" xlink:href="#f"/>
<use x="333.544922" xlink:href="#g"/>
<use x="394.824219" xlink:href="#k"/>
</g>
</g>
<path d="m1605.8 862.08v33.808q0 2.4 2.4 2.4h7.7425q2.4 0 2.4-2.4v-33.808q0-2.4-2.4-2.4h-7.7425q-2.4 0-2.4 2.4z" clip-path="url(#a)" fill="#fff" stroke="#fff"/>
<g clip-path="url(#a)">
<g transform="translate(1609.9 862.08) rotate(90) scale(.08 -.08)">
<use xlink:href="#j"/>
<use x="44.083984" xlink:href="#e"/>
<use x="105.607422" xlink:href="#i"/>
<use x="144.970703" xlink:href="#l"/>
<use x="242.382812" xlink:href="#h"/>
<use x="270.166016" xlink:href="#f"/>
<use x="333.544922" xlink:href="#g"/>
<use x="394.824219" xlink:href="#k"/>
</g>
</g>
<path d="m880.4 862.08v33.808q0 2.4 2.4 2.4h7.7425q2.4 0 2.4-2.4v-33.808q0-2.4-2.4-2.4h-7.7425q-2.4 0-2.4 2.4z" clip-path="url(#a)" fill="#fff" stroke="#fff"/>
<g clip-path="url(#a)">
<g transform="translate(884.46 862.08) rotate(90) scale(.08 -.08)">
<use xlink:href="#j"/>
<use x="44.083984" xlink:href="#e"/>
<use x="105.607422" xlink:href="#i"/>
<use x="144.970703" xlink:href="#l"/>
<use x="242.382812" xlink:href="#h"/>
<use x="270.166016" xlink:href="#f"/>
<use x="333.544922" xlink:href="#g"/>
<use x="394.824219" xlink:href="#k"/>
</g>
</g>
<path d="m970.48 756.21 1.1287-4.4607q0.58875-2.3267-1.7379-2.9154l-7.5059-1.8993q-2.3267-0.58875-2.9154 1.7379l-1.1287 4.4607q-0.58875 2.3267 1.7379 2.9154l7.5059 1.8993q2.3267 0.58875 2.9154-1.7379z" clip-path="url(#a)" fill="#fff" stroke="#fff"/>
<g clip-path="url(#a)">
<g transform="translate(966.55 755.21) rotate(-75.8) scale(.08 -.08)">
<use xlink:href="#aj"/>
</g>
</g>
<path d="m990.45 751.27 1.3704 5.4156q0.58875 2.3267 2.9154 1.7379l7.5059-1.8993q2.3267-0.58875 1.7379-2.9154l-1.3704-5.4156q-0.58875-2.3267-2.9154-1.7379l-7.5059 1.8993q-2.3267 0.58875-1.7379 2.9154z" clip-path="url(#a)" fill="#fff" stroke="#fff"/>
<g clip-path="url(#a)">
<defs>
<path id="z" d="m64.406 67.281v-10.391q-4.9844 4.6406-10.625 6.9219-5.6406 2.2969-11.984 2.2969-12.5 0-19.141-7.6406t-6.6406-22.094q0-14.406 6.6406-22.047t19.141-7.6406q6.3438 0 11.984 2.2969t10.625 6.9375v-10.312q-5.1719-3.5156-10.969-5.2812-5.7812-1.75-12.219-1.75-16.562 0-26.094 10.125-9.5156 10.141-9.5156 27.672 0 17.578 9.5156 27.703 9.5312 10.141 26.094 10.141 6.5312 0 12.312-1.7344 5.7969-1.7344 10.875-5.2031z"/>
</defs>
<g transform="translate(994.39 750.27) rotate(75.8) scale(.08 -.08)">
<use xlink:href="#z"/>
</g>
</g>
<path d="m1073.8 862.08v33.808q0 2.4 2.4 2.4h7.7425q2.4 0 2.4-2.4v-33.808q0-2.4-2.4-2.4h-7.7425q-2.4 0-2.4 2.4z" clip-path="url(#a)" fill="#fff" stroke="#fff"/>
<g clip-path="url(#a)">
<g transform="translate(1077.9 862.08) rotate(90) scale(.08 -.08)">
<use xlink:href="#j"/>
<use x="44.083984" xlink:href="#e"/>
<use x="105.607422" xlink:href="#i"/>
<use x="144.970703" xlink:href="#l"/>
<use x="242.382812" xlink:href="#h"/>
<use x="270.166016" xlink:href="#f"/>
<use x="333.544922" xlink:href="#g"/>
<use x="394.824219" xlink:href="#k"/>
</g>
</g>
<path d="m1196.5 693 1.7444-5.278q0.75314-2.2788-1.5256-3.0319l-7.3514-2.4297q-2.2788-0.75314-3.0319 1.5256l-1.7444 5.278q-0.75314 2.2788 1.5256 3.0319l7.3514 2.4297q2.2788 0.75314 3.0319-1.5256z" clip-path="url(#a)" fill="#fff" stroke="#fff"/>
<g clip-path="url(#a)">
<defs>
<path id="ai" d="m44.391 34.188q3.1719-1.0781 6.1719-4.5938t6.0312-9.6719l10.016-19.922h-10.609l-9.3125 18.703q-3.625 7.3281-7.0156 9.7188t-9.25 2.3906h-10.75v-30.812h-9.8594v72.906h22.266q12.5 0 18.656-5.2344 6.1562-5.2188 6.1562-15.766 0-6.8906-3.2031-11.438-3.2031-4.5312-9.2969-6.2812zm-24.719 30.609v-25.875h12.406q7.125 0 10.766 3.2969t3.6406 9.6875-3.6406 9.6406-10.766 3.25z"/>
</defs>
<g transform="translate(1192.7 691.73) rotate(-71.711) scale(.08 -.08)">
<use xlink:href="#ai"/>
</g>
</g>
<path d="m1238.9 623.35 0.9234 4.9699q0.43841 2.3596 2.798 1.9212l7.6122-1.4143q2.3596-0.43841 1.9212-2.798l-0.9234-4.9699q-0.43841-2.3596-2.798-1.9212l-7.6122 1.4143q-2.3596 0.43841-1.9212 2.798z" clip-path="url(#a)" fill="#fff" stroke="#fff"/>
<g clip-path="url(#a)">
<defs>
<path id="ak" d="m9.8125 72.906h46.094v-8.3125h-36.234v-21.578h34.719v-8.2969h-34.719v-26.422h37.109v-8.2969h-46.969z"/>
</defs>
<g transform="translate(1242.9 622.61) rotate(79.475) scale(.08 -.08)">
<use xlink:href="#ak"/>
</g>
</g>
<path d="m1257.2 687.13 1.2901 5.4352q0.55427 2.3351 2.8894 1.7809l7.5332-1.7881q2.3351-0.55427 1.7809-2.8894l-1.2901-5.4352q-0.55427-2.3351-2.8894-1.7809l-7.5332 1.7881q-2.3351 0.55427-1.7809 2.8894z" clip-path="url(#a)" fill="#fff" stroke="#fff"/>
<g clip-path="url(#a)">
<g transform="translate(1261.2 686.19) rotate(76.647) scale(.08 -.08)">
<use xlink:href="#z"/>
</g>
</g>
<path d="m1364 862.08v33.808q0 2.4 2.4 2.4h7.7425q2.4 0 2.4-2.4v-33.808q0-2.4-2.4-2.4h-7.7425q-2.4 0-2.4 2.4z" clip-path="url(#a)" fill="#fff" stroke="#fff"/>
<g clip-path="url(#a)">
<g transform="translate(1368.1 862.08) rotate(90) scale(.08 -.08)">
<use xlink:href="#j"/>
<use x="44.083984" xlink:href="#e"/>
<use x="105.607422" xlink:href="#i"/>
<use x="144.970703" xlink:href="#l"/>
<use x="242.382812" xlink:href="#h"/>
<use x="270.166016" xlink:href="#f"/>
<use x="333.544922" xlink:href="#g"/>
<use x="394.824219" xlink:href="#k"/>
</g>
</g>
<path d="m1142.9 862.08v33.808q0 2.4 2.4 2.4h7.7425q2.4 0 2.4-2.4v-33.808q0-2.4-2.4-2.4h-7.7425q-2.4 0-2.4 2.4z" clip-path="url(#a)" fill="#fff" stroke="#fff"/>
<g clip-path="url(#a)">
<g transform="translate(1147 862.08) rotate(90) scale(.08 -.08)">
<use xlink:href="#j"/>
<use x="44.083984" xlink:href="#e"/>
<use x="105.607422" xlink:href="#i"/>
<use x="144.970703" xlink:href="#l"/>
<use x="242.382812" xlink:href="#h"/>
<use x="270.166016" xlink:href="#f"/>
<use x="333.544922" xlink:href="#g"/>
<use x="394.824219" xlink:href="#k"/>
</g>
</g>
<path d="m1269.1 751.55 1.5203 5.2571q0.66675 2.3055 2.9723 1.6388l7.4377-2.151q2.3055-0.66675 1.6388-2.9723l-1.5203-5.2571q-0.66675-2.3055-2.9723-1.6388l-7.4377 2.151q-2.3055 0.66675-1.6388 2.9723z" clip-path="url(#a)" fill="#fff" stroke="#fff"/>
<g clip-path="url(#a)">
<g transform="translate(1273 750.43) rotate(73.87) scale(.08 -.08)">
<use xlink:href="#q"/>
</g>
</g>
<path d="m1243.3 760.58 3.68-12.725q0.66675-2.3055-1.6388-2.9723l-7.6851-2.2225q-2.3055-0.66675-2.9723 1.6388l-3.68 12.725q-0.66675 2.3055 1.6388 2.9723l7.6851 2.2225q2.3055 0.66675 2.9723-1.6388z" clip-path="url(#a)" fill="#fff" stroke="#fff"/>
<g clip-path="url(#a)">
<defs>
<path id="av" d="m21 76.422v-100h-8.2969v100z"/>
</defs>
<g transform="translate(1239.2 759.39) rotate(-73.87) scale(.08 -.08)">
<use xlink:href="#x"/>
<use x="63.476562" xlink:href="#av"/>
<use x="97.167969" xlink:href="#q"/>
</g>
</g>
<path d="m1288 862.08v33.808q0 2.4 2.4 2.4h7.7425q2.4 0 2.4-2.4v-33.808q0-2.4-2.4-2.4h-7.7425q-2.4 0-2.4 2.4z" clip-path="url(#a)" fill="#fff" stroke="#fff"/>
<g clip-path="url(#a)">
<g transform="translate(1292.1 862.08) rotate(90) scale(.08 -.08)">
<use xlink:href="#j"/>
<use x="44.083984" xlink:href="#e"/>
<use x="105.607422" xlink:href="#i"/>
<use x="144.970703" xlink:href="#l"/>
<use x="242.382812" xlink:href="#h"/>
<use x="270.166016" xlink:href="#f"/>
<use x="333.544922" xlink:href="#g"/>
<use x="394.824219" xlink:href="#k"/>
</g>
</g>
<path d="m1214.3 862.08v33.808q0 2.4 2.4 2.4h7.7425q2.4 0 2.4-2.4v-33.808q0-2.4-2.4-2.4h-7.7425q-2.4 0-2.4 2.4z" clip-path="url(#a)" fill="#fff" stroke="#fff"/>
<g clip-path="url(#a)">
<g transform="translate(1218.4 862.08) rotate(90) scale(.08 -.08)">
<use xlink:href="#j"/>
<use x="44.083984" xlink:href="#e"/>
<use x="105.607422" xlink:href="#i"/>
<use x="144.970703" xlink:href="#l"/>
<use x="242.382812" xlink:href="#h"/>
<use x="270.166016" xlink:href="#f"/>
<use x="333.544922" xlink:href="#g"/>
<use x="394.824219" xlink:href="#k"/>
</g>
</g>
<path d="m942.58 862.08v33.808q0 2.4 2.4 2.4h7.7425q2.4 0 2.4-2.4v-33.808q0-2.4-2.4-2.4h-7.7425q-2.4 0-2.4 2.4z" clip-path="url(#a)" fill="#fff" stroke="#fff"/>
<g clip-path="url(#a)">
<g transform="translate(946.64 862.08) rotate(90) scale(.08 -.08)">
<use xlink:href="#j"/>
<use x="44.083984" xlink:href="#e"/>
<use x="105.607422" xlink:href="#i"/>
<use x="144.970703" xlink:href="#l"/>
<use x="242.382812" xlink:href="#h"/>
<use x="270.166016" xlink:href="#f"/>
<use x="333.544922" xlink:href="#g"/>
<use x="394.824219" xlink:href="#k"/>
</g>
</g>
<path d="m1007.1 862.08v33.808q0 2.4 2.4 2.4h7.7425q2.4 0 2.4-2.4v-33.808q0-2.4-2.4-2.4h-7.7425q-2.4 0-2.4 2.4z" clip-path="url(#a)" fill="#fff" stroke="#fff"/>
<g clip-path="url(#a)">
<g transform="translate(1011.1 862.08) rotate(90) scale(.08 -.08)">
<use xlink:href="#j"/>
<use x="44.083984" xlink:href="#e"/>
<use x="105.607422" xlink:href="#i"/>
<use x="144.970703" xlink:href="#l"/>
<use x="242.382812" xlink:href="#h"/>
<use x="270.166016" xlink:href="#f"/>
<use x="333.544922" xlink:href="#g"/>
<use x="394.824219" xlink:href="#k"/>
</g>
</g>
<path d="m555.67 862.08v33.808q0 2.4 2.4 2.4h7.7425q2.4 0 2.4-2.4v-33.808q0-2.4-2.4-2.4h-7.7425q-2.4 0-2.4 2.4z" clip-path="url(#a)" fill="#fff" stroke="#fff"/>
<g clip-path="url(#a)">
<g transform="translate(559.73 862.08) rotate(90) scale(.08 -.08)">
<use xlink:href="#j"/>
<use x="44.083984" xlink:href="#e"/>
<use x="105.607422" xlink:href="#i"/>
<use x="144.970703" xlink:href="#l"/>
<use x="242.382812" xlink:href="#h"/>
<use x="270.166016" xlink:href="#f"/>
<use x="333.544922" xlink:href="#g"/>
<use x="394.824219" xlink:href="#k"/>
</g>
</g>
<path d="m604.03 862.08v33.808q0 2.4 2.4 2.4h7.7425q2.4 0 2.4-2.4v-33.808q0-2.4-2.4-2.4h-7.7425q-2.4 0-2.4 2.4z" clip-path="url(#a)" fill="#fff" stroke="#fff"/>
<g clip-path="url(#a)">
<g transform="translate(608.1 862.08) rotate(90) scale(.08 -.08)">
<use xlink:href="#j"/>
<use x="44.083984" xlink:href="#e"/>
<use x="105.607422" xlink:href="#i"/>
<use x="144.970703" xlink:href="#l"/>
<use x="242.382812" xlink:href="#h"/>
<use x="270.166016" xlink:href="#f"/>
<use x="333.544922" xlink:href="#g"/>
<use x="394.824219" xlink:href="#k"/>
</g>
</g>
<path d="m654.7 862.08v33.808q0 2.4 2.4 2.4h7.7425q2.4 0 2.4-2.4v-33.808q0-2.4-2.4-2.4h-7.7425q-2.4 0-2.4 2.4z" clip-path="url(#a)" fill="#fff" stroke="#fff"/>
<g clip-path="url(#a)">
<g transform="translate(658.76 862.08) rotate(90) scale(.08 -.08)">
<use xlink:href="#j"/>
<use x="44.083984" xlink:href="#e"/>
<use x="105.607422" xlink:href="#i"/>
<use x="144.970703" xlink:href="#l"/>
<use x="242.382812" xlink:href="#h"/>
<use x="270.166016" xlink:href="#f"/>
<use x="333.544922" xlink:href="#g"/>
<use x="394.824219" xlink:href="#k"/>
</g>
</g>
<path d="m707.67 862.08v33.808q0 2.4 2.4 2.4h7.7425q2.4 0 2.4-2.4v-33.808q0-2.4-2.4-2.4h-7.7425q-2.4 0-2.4 2.4z" clip-path="url(#a)" fill="#fff" stroke="#fff"/>
<g clip-path="url(#a)">
<g transform="translate(711.73 862.08) rotate(90) scale(.08 -.08)">
<use xlink:href="#j"/>
<use x="44.083984" xlink:href="#e"/>
<use x="105.607422" xlink:href="#i"/>
<use x="144.970703" xlink:href="#l"/>
<use x="242.382812" xlink:href="#h"/>
<use x="270.166016" xlink:href="#f"/>
<use x="333.544922" xlink:href="#g"/>
<use x="394.824219" xlink:href="#k"/>
</g>
</g>
<path d="m355.25 692.52 1.2568-5.4148q0.54262-2.3379-1.7952-2.8805l-7.542-1.7505q-2.3379-0.54262-2.8805 1.7952l-1.2568 5.4148q-0.54262 2.3379 1.7952 2.8805l7.542 1.7505q2.3379 0.54262 2.8805-1.7952z" clip-path="url(#a)" fill="#fff" stroke="#fff"/>
<g clip-path="url(#a)">
<g transform="translate(351.29 691.6) rotate(-76.933) scale(.08 -.08)">
<use xlink:href="#ai"/>
</g>
</g>
<path d="m373.04 691.52 0.48753-5.0314q0.23147-2.3888-2.1573-2.6203l-7.7064-0.74673q-2.3888-0.23147-2.6203 2.1573l-0.48753 5.0314q-0.23147 2.3888 2.1573 2.6203l7.7064 0.74673q2.3888 0.23147 2.6203-2.1573z" clip-path="url(#a)" fill="#fff" stroke="#fff"/>
<g clip-path="url(#a)">
<g transform="translate(369 691.13) rotate(-84.465) scale(.08 -.08)">
<use xlink:href="#ak"/>
</g>
</g>
<path d="m379.07 685.9 0.26406 5.58q0.11345 2.3973 2.5108 2.2839l7.7338-0.36598q2.3973-0.11345 2.2839-2.5108l-0.26406-5.58q-0.11344-2.3973-2.5108-2.2839l-7.7338 0.36598q-2.3973 0.11345-2.2839 2.5108z" clip-path="url(#a)" fill="#fff" stroke="#fff"/>
<g clip-path="url(#a)">
<g transform="translate(383.13 685.71) rotate(87.291) scale(.08 -.08)">
<use xlink:href="#z"/>
</g>
</g>
<path d="m408.7 625.56 2.4762 4.407q1.1757 2.0923 3.268 0.91668l6.7499-3.7927q2.0923-1.1757 0.91668-3.268l-2.4762-4.407q-1.1757-2.0923-3.268-0.91668l-6.7499 3.7927q-2.0923 1.1757-0.91668 3.268z" clip-path="url(#a)" fill="#fff" stroke="#fff"/>
<g clip-path="url(#a)">
<g transform="translate(412.25 623.57) rotate(60.669) scale(.08 -.08)">
<use xlink:href="#ak"/>
</g>
</g>
<path d="m313.85 862.08v33.808q0 2.4 2.4 2.4h7.7425q2.4 0 2.4-2.4v-33.808q0-2.4-2.4-2.4h-7.7425q-2.4 0-2.4 2.4z" clip-path="url(#a)" fill="#fff" stroke="#fff"/>
<g clip-path="url(#a)">
<g transform="translate(317.91 862.08) rotate(90) scale(.08 -.08)">
<use xlink:href="#j"/>
<use x="44.083984" xlink:href="#e"/>
<use x="105.607422" xlink:href="#i"/>
<use x="144.970703" xlink:href="#l"/>
<use x="242.382812" xlink:href="#h"/>
<use x="270.166016" xlink:href="#f"/>
<use x="333.544922" xlink:href="#g"/>
<use x="394.824219" xlink:href="#k"/>
</g>
</g>
<path d="m348.4 862.08v33.808q0 2.4 2.4 2.4h7.7425q2.4 0 2.4-2.4v-33.808q0-2.4-2.4-2.4h-7.7425q-2.4 0-2.4 2.4z" clip-path="url(#a)" fill="#fff" stroke="#fff"/>
<g clip-path="url(#a)">
<g transform="translate(352.46 862.08) rotate(90) scale(.08 -.08)">
<use xlink:href="#j"/>
<use x="44.083984" xlink:href="#e"/>
<use x="105.607422" xlink:href="#i"/>
<use x="144.970703" xlink:href="#l"/>
<use x="242.382812" xlink:href="#h"/>
<use x="270.166016" xlink:href="#f"/>
<use x="333.544922" xlink:href="#g"/>
<use x="394.824219" xlink:href="#k"/>
</g>
</g>
<path d="m385.24 862.08v33.808q0 2.4 2.4 2.4h7.7425q2.4 0 2.4-2.4v-33.808q0-2.4-2.4-2.4h-7.7425q-2.4 0-2.4 2.4z" clip-path="url(#a)" fill="#fff" stroke="#fff"/>
<g clip-path="url(#a)">
<g transform="translate(389.31 862.08) rotate(90) scale(.08 -.08)">
<use xlink:href="#j"/>
<use x="44.083984" xlink:href="#e"/>
<use x="105.607422" xlink:href="#i"/>
<use x="144.970703" xlink:href="#l"/>
<use x="242.382812" xlink:href="#h"/>
<use x="270.166016" xlink:href="#f"/>
<use x="333.544922" xlink:href="#g"/>
<use x="394.824219" xlink:href="#k"/>
</g>
</g>
<path d="m446.77 756.19 0.89252-5.4866q0.38535-2.3689-1.9835-2.7542l-7.642-1.2431q-2.3689-0.38535-2.7542 1.9835l-0.89252 5.4866q-0.38535 2.3689 1.9835 2.7542l7.642 1.2431q2.3689 0.38535 2.7542-1.9835z" clip-path="url(#a)" fill="#fff" stroke="#fff"/>
<g clip-path="url(#a)">
<g transform="translate(442.76 755.54) rotate(-80.76) scale(.08 -.08)">
<use xlink:href="#ai"/>
</g>
</g>
<path d="m455.12 750.69 0.89694 5.5138q0.38535 2.3689 2.7542 1.9835l7.642-1.2431q2.3689-0.38535 1.9835-2.7542l-0.89694-5.5138q-0.38535-2.3689-2.7542-1.9835l-7.642 1.2431q-2.3689 0.38535-1.9835 2.7542z" clip-path="url(#a)" fill="#fff" stroke="#fff"/>
<g clip-path="url(#a)">
<g transform="translate(459.13 750.04) rotate(80.76) scale(.08 -.08)">
<use xlink:href="#z"/>
</g>
</g>
<path d="m424.4 862.08v33.808q0 2.4 2.4 2.4h7.7425q2.4 0 2.4-2.4v-33.808q0-2.4-2.4-2.4h-7.7425q-2.4 0-2.4 2.4z" clip-path="url(#a)" fill="#fff" stroke="#fff"/>
<g clip-path="url(#a)">
<g transform="translate(428.46 862.08) rotate(90) scale(.08 -.08)">
<use xlink:href="#j"/>
<use x="44.083984" xlink:href="#e"/>
<use x="105.607422" xlink:href="#i"/>
<use x="144.970703" xlink:href="#l"/>
<use x="242.382812" xlink:href="#h"/>
<use x="270.166016" xlink:href="#f"/>
<use x="333.544922" xlink:href="#g"/>
<use x="394.824219" xlink:href="#k"/>
</g>
</g>
<path d="m465.85 862.08v33.808q0 2.4 2.4 2.4h7.7425q2.4 0 2.4-2.4v-33.808q0-2.4-2.4-2.4h-7.7425q-2.4 0-2.4 2.4z" clip-path="url(#a)" fill="#fff" stroke="#fff"/>
<g clip-path="url(#a)">
<g transform="translate(469.91 862.08) rotate(90) scale(.08 -.08)">
<use xlink:href="#j"/>
<use x="44.083984" xlink:href="#e"/>
<use x="105.607422" xlink:href="#i"/>
<use x="144.970703" xlink:href="#l"/>
<use x="242.382812" xlink:href="#h"/>
<use x="270.166016" xlink:href="#f"/>
<use x="333.544922" xlink:href="#g"/>
<use x="394.824219" xlink:href="#k"/>
</g>
</g>
<path d="m154.94 862.08v33.808q0 2.4 2.4 2.4h7.7425q2.4 0 2.4-2.4v-33.808q0-2.4-2.4-2.4h-7.7425q-2.4 0-2.4 2.4z" clip-path="url(#a)" fill="#fff" stroke="#fff"/>
<g clip-path="url(#a)">
<g transform="translate(159 862.08) rotate(90) scale(.08 -.08)">
<use xlink:href="#j"/>
<use x="44.083984" xlink:href="#e"/>
<use x="105.607422" xlink:href="#i"/>
<use x="144.970703" xlink:href="#l"/>
<use x="242.382812" xlink:href="#h"/>
<use x="270.166016" xlink:href="#f"/>
<use x="333.544922" xlink:href="#g"/>
<use x="394.824219" xlink:href="#k"/>
</g>
</g>
<path d="m175.67 862.08v33.808q0 2.4 2.4 2.4h7.7425q2.4 0 2.4-2.4v-33.808q0-2.4-2.4-2.4h-7.7425q-2.4 0-2.4 2.4z" clip-path="url(#a)" fill="#fff" stroke="#fff"/>
<g clip-path="url(#a)">
<g transform="translate(179.73 862.08) rotate(90) scale(.08 -.08)">
<use xlink:href="#j"/>
<use x="44.083984" xlink:href="#e"/>
<use x="105.607422" xlink:href="#i"/>
<use x="144.970703" xlink:href="#l"/>
<use x="242.382812" xlink:href="#h"/>
<use x="270.166016" xlink:href="#f"/>
<use x="333.544922" xlink:href="#g"/>
<use x="394.824219" xlink:href="#k"/>
</g>
</g>
<path d="m198.7 862.08v33.808q0 2.4 2.4 2.4h7.7425q2.4 0 2.4-2.4v-33.808q0-2.4-2.4-2.4h-7.7425q-2.4 0-2.4 2.4z" clip-path="url(#a)" fill="#fff" stroke="#fff"/>
<g clip-path="url(#a)">
<g transform="translate(202.76 862.08) rotate(90) scale(.08 -.08)">
<use xlink:href="#j"/>
<use x="44.083984" xlink:href="#e"/>
<use x="105.607422" xlink:href="#i"/>
<use x="144.970703" xlink:href="#l"/>
<use x="242.382812" xlink:href="#h"/>
<use x="270.166016" xlink:href="#f"/>
<use x="333.544922" xlink:href="#g"/>
<use x="394.824219" xlink:href="#k"/>
</g>
</g>
<path d="m224.03 862.08v33.808q0 2.4 2.4 2.4h7.7425q2.4 0 2.4-2.4v-33.808q0-2.4-2.4-2.4h-7.7425q-2.4 0-2.4 2.4z" clip-path="url(#a)" fill="#fff" stroke="#fff"/>
<g clip-path="url(#a)">
<g transform="translate(228.1 862.08) rotate(90) scale(.08 -.08)">
<use xlink:href="#j"/>
<use x="44.083984" xlink:href="#e"/>
<use x="105.607422" xlink:href="#i"/>
<use x="144.970703" xlink:href="#l"/>
<use x="242.382812" xlink:href="#h"/>
<use x="270.166016" xlink:href="#f"/>
<use x="333.544922" xlink:href="#g"/>
<use x="394.824219" xlink:href="#k"/>
</g>
</g>
<path d="m251.67 862.08v33.808q0 2.4 2.4 2.4h7.7425q2.4 0 2.4-2.4v-33.808q0-2.4-2.4-2.4h-7.7425q-2.4 0-2.4 2.4z" clip-path="url(#a)" fill="#fff" stroke="#fff"/>
<g clip-path="url(#a)">
<g transform="translate(255.73 862.08) rotate(90) scale(.08 -.08)">
<use xlink:href="#j"/>
<use x="44.083984" xlink:href="#e"/>
<use x="105.607422" xlink:href="#i"/>
<use x="144.970703" xlink:href="#l"/>
<use x="242.382812" xlink:href="#h"/>
<use x="270.166016" xlink:href="#f"/>
<use x="333.544922" xlink:href="#g"/>
<use x="394.824219" xlink:href="#k"/>
</g>
</g>
<path d="m78.941 862.08v33.808q0 2.4 2.4 2.4h7.7425q2.4 0 2.4-2.4v-33.808q0-2.4-2.4-2.4h-7.7425q-2.4 0-2.4 2.4z" clip-path="url(#a)" fill="#fff" stroke="#fff"/>
<g clip-path="url(#a)">
<g transform="translate(83.005 862.08) rotate(90) scale(.08 -.08)">
<use xlink:href="#j"/>
<use x="44.083984" xlink:href="#e"/>
<use x="105.607422" xlink:href="#i"/>
<use x="144.970703" xlink:href="#l"/>
<use x="242.382812" xlink:href="#h"/>
<use x="270.166016" xlink:href="#f"/>
<use x="333.544922" xlink:href="#g"/>
<use x="394.824219" xlink:href="#k"/>
</g>
</g>
<path d="m85.85 862.08v33.808q0 2.4 2.4 2.4h7.7425q2.4 0 2.4-2.4v-33.808q0-2.4-2.4-2.4h-7.7425q-2.4 0-2.4 2.4z" clip-path="url(#a)" fill="#fff" stroke="#fff"/>
<g clip-path="url(#a)">
<g transform="translate(89.914 862.08) rotate(90) scale(.08 -.08)">
<use xlink:href="#j"/>
<use x="44.083984" xlink:href="#e"/>
<use x="105.607422" xlink:href="#i"/>
<use x="144.970703" xlink:href="#l"/>
<use x="242.382812" xlink:href="#h"/>
<use x="270.166016" xlink:href="#f"/>
<use x="333.544922" xlink:href="#g"/>
<use x="394.824219" xlink:href="#k"/>
</g>
</g>
<path d="m95.062 862.08v33.808q0 2.4 2.4 2.4h7.7425q2.4 0 2.4-2.4v-33.808q0-2.4-2.4-2.4h-7.7425q-2.4 0-2.4 2.4z" clip-path="url(#a)" fill="#fff" stroke="#fff"/>
<g clip-path="url(#a)">
<g transform="translate(99.126 862.08) rotate(90) scale(.08 -.08)">
<use xlink:href="#j"/>
<use x="44.083984" xlink:href="#e"/>
<use x="105.607422" xlink:href="#i"/>
<use x="144.970703" xlink:href="#l"/>
<use x="242.382812" xlink:href="#h"/>
<use x="270.166016" xlink:href="#f"/>
<use x="333.544922" xlink:href="#g"/>
<use x="394.824219" xlink:href="#k"/>
</g>
</g>
<path d="m122.41 755.56 0.30098-5.5506q0.12995-2.3965-2.2665-2.5264l-7.7311-0.41922q-2.3965-0.12995-2.5264 2.2665l-0.30098 5.5506q-0.12995 2.3965 2.2665 2.5264l7.7311 0.41921q2.3965 0.12995 2.5264-2.2665z" clip-path="url(#a)" fill="#fff" stroke="#fff"/>
<g clip-path="url(#a)">
<g transform="translate(118.36 755.34) rotate(-86.896) scale(.08 -.08)">
<use xlink:href="#ai"/>
</g>
</g>
<path d="m116.8 749.99 0.30246 5.5781q0.12995 2.3965 2.5264 2.2665l7.7311-0.41921q2.3965-0.12995 2.2665-2.5264l-0.30246-5.5781q-0.12995-2.3965-2.5264-2.2665l-7.7311 0.41921q-2.3965 0.12995-2.2665 2.5264z" clip-path="url(#a)" fill="#fff" stroke="#fff"/>
<g clip-path="url(#a)">
<g transform="translate(120.86 749.77) rotate(86.896) scale(.08 -.08)">
<use xlink:href="#z"/>
</g>
</g>
<path d="m106.58 862.08v33.808q0 2.4 2.4 2.4h7.7425q2.4 0 2.4-2.4v-33.808q0-2.4-2.4-2.4h-7.7425q-2.4 0-2.4 2.4z" clip-path="url(#a)" fill="#fff" stroke="#fff"/>
<g clip-path="url(#a)">
<g transform="translate(110.64 862.08) rotate(90) scale(.08 -.08)">
<use xlink:href="#j"/>
<use x="44.083984" xlink:href="#e"/>
<use x="105.607422" xlink:href="#i"/>
<use x="144.970703" xlink:href="#l"/>
<use x="242.382812" xlink:href="#h"/>
<use x="270.166016" xlink:href="#f"/>
<use x="333.544922" xlink:href="#g"/>
<use x="394.824219" xlink:href="#k"/>
</g>
</g>
<path d="m120.4 862.08v33.808q0 2.4 2.4 2.4h7.7425q2.4 0 2.4-2.4v-33.808q0-2.4-2.4-2.4h-7.7425q-2.4 0-2.4 2.4z" clip-path="url(#a)" fill="#fff" stroke="#fff"/>
<g clip-path="url(#a)">
<g transform="translate(124.46 862.08) rotate(90) scale(.08 -.08)">
<use xlink:href="#j"/>
<use x="44.083984" xlink:href="#e"/>
<use x="105.607422" xlink:href="#i"/>
<use x="144.970703" xlink:href="#l"/>
<use x="242.382812" xlink:href="#h"/>
<use x="270.166016" xlink:href="#f"/>
<use x="333.544922" xlink:href="#g"/>
<use x="394.824219" xlink:href="#k"/>
</g>
</g>
<path d="m136.52 862.08v33.808q0 2.4 2.4 2.4h7.7425q2.4 0 2.4-2.4v-33.808q0-2.4-2.4-2.4h-7.7425q-2.4 0-2.4 2.4z" clip-path="url(#a)" fill="#fff" stroke="#fff"/>
<g clip-path="url(#a)">
<g transform="translate(140.58 862.08) rotate(90) scale(.08 -.08)">
<use xlink:href="#j"/>
<use x="44.083984" xlink:href="#e"/>
<use x="105.607422" xlink:href="#i"/>
<use x="144.970703" xlink:href="#l"/>
<use x="242.382812" xlink:href="#h"/>
<use x="270.166016" xlink:href="#f"/>
<use x="333.544922" xlink:href="#g"/>
<use x="394.824219" xlink:href="#k"/>
</g>
</g>
<path d="m281.61 862.08v33.808q0 2.4 2.4 2.4h7.7425q2.4 0 2.4-2.4v-33.808q0-2.4-2.4-2.4h-7.7425q-2.4 0-2.4 2.4z" clip-path="url(#a)" fill="#fff" stroke="#fff"/>
<g clip-path="url(#a)">
<g transform="translate(285.67 862.08) rotate(90) scale(.08 -.08)">
<use xlink:href="#j"/>
<use x="44.083984" xlink:href="#e"/>
<use x="105.607422" xlink:href="#i"/>
<use x="144.970703" xlink:href="#l"/>
<use x="242.382812" xlink:href="#h"/>
<use x="270.166016" xlink:href="#f"/>
<use x="333.544922" xlink:href="#g"/>
<use x="394.824219" xlink:href="#k"/>
</g>
</g>
<path d="m509.61 862.08v33.808q0 2.4 2.4 2.4h7.7425q2.4 0 2.4-2.4v-33.808q0-2.4-2.4-2.4h-7.7425q-2.4 0-2.4 2.4z" clip-path="url(#a)" fill="#fff" stroke="#fff"/>
<g clip-path="url(#a)">
<g transform="translate(513.67 862.08) rotate(90) scale(.08 -.08)">
<use xlink:href="#j"/>
<use x="44.083984" xlink:href="#e"/>
<use x="105.607422" xlink:href="#i"/>
<use x="144.970703" xlink:href="#l"/>
<use x="242.382812" xlink:href="#h"/>
<use x="270.166016" xlink:href="#f"/>
<use x="333.544922" xlink:href="#g"/>
<use x="394.824219" xlink:href="#k"/>
</g>
</g>
<path d="m762.94 862.08v33.808q0 2.4 2.4 2.4h7.7425q2.4 0 2.4-2.4v-33.808q0-2.4-2.4-2.4h-7.7425q-2.4 0-2.4 2.4z" clip-path="url(#a)" fill="#fff" stroke="#fff"/>
<g clip-path="url(#a)">
<g transform="translate(767 862.08) rotate(90) scale(.08 -.08)">
<use xlink:href="#j"/>
<use x="44.083984" xlink:href="#e"/>
<use x="105.607422" xlink:href="#i"/>
<use x="144.970703" xlink:href="#l"/>
<use x="242.382812" xlink:href="#h"/>
<use x="270.166016" xlink:href="#f"/>
<use x="333.544922" xlink:href="#g"/>
<use x="394.824219" xlink:href="#k"/>
</g>
</g>
<path d="m1442.3 862.08v33.808q0 2.4 2.4 2.4h7.7425q2.4 0 2.4-2.4v-33.808q0-2.4-2.4-2.4h-7.7425q-2.4 0-2.4 2.4z" clip-path="url(#a)" fill="#fff" stroke="#fff"/>
<g clip-path="url(#a)">
<g transform="translate(1446.4 862.08) rotate(90) scale(.08 -.08)">
<use xlink:href="#j"/>
<use x="44.083984" xlink:href="#e"/>
<use x="105.607422" xlink:href="#i"/>
<use x="144.970703" xlink:href="#l"/>
<use x="242.382812" xlink:href="#h"/>
<use x="270.166016" xlink:href="#f"/>
<use x="333.544922" xlink:href="#g"/>
<use x="394.824219" xlink:href="#k"/>
</g>
</g>
<path d="m1691.1 862.08v33.808q0 2.4 2.4 2.4h7.7425q2.4 0 2.4-2.4v-33.808q0-2.4-2.4-2.4h-7.7425q-2.4 0-2.4 2.4z" clip-path="url(#a)" fill="#fff" stroke="#fff"/>
<g clip-path="url(#a)">
<g transform="translate(1695.1 862.08) rotate(90) scale(.08 -.08)">
<use xlink:href="#j"/>
<use x="44.083984" xlink:href="#e"/>
<use x="105.607422" xlink:href="#i"/>
<use x="144.970703" xlink:href="#l"/>
<use x="242.382812" xlink:href="#h"/>
<use x="270.166016" xlink:href="#f"/>
<use x="333.544922" xlink:href="#g"/>
<use x="394.824219" xlink:href="#k"/>
</g>
</g>
<path d="m1778.6 862.08v33.808q0 2.4 2.4 2.4h7.7425q2.4 0 2.4-2.4v-33.808q0-2.4-2.4-2.4h-7.7425q-2.4 0-2.4 2.4z" clip-path="url(#a)" fill="#fff" stroke="#fff"/>
<g clip-path="url(#a)">
<g transform="translate(1782.6 862.08) rotate(90) scale(.08 -.08)">
<use xlink:href="#j"/>
<use x="44.083984" xlink:href="#e"/>
<use x="105.607422" xlink:href="#i"/>
<use x="144.970703" xlink:href="#l"/>
<use x="242.382812" xlink:href="#h"/>
<use x="270.166016" xlink:href="#f"/>
<use x="333.544922" xlink:href="#g"/>
<use x="394.824219" xlink:href="#k"/>
</g>
</g>
<defs>
<path id="b" d="m0 8.6603c2.2967 0 4.4997-0.9125 6.1237-2.5365 1.624-1.624 2.5365-3.827 2.5365-6.1237s-0.9125-4.4997-2.5365-6.1237c-1.624-1.624-3.827-2.5365-6.1237-2.5365s-4.4997 0.9125-6.1237 2.5365c-1.624 1.624-2.5365 3.827-2.5365 6.1237s0.9125 4.4997 2.5365 6.1237c1.624 1.624 3.827 2.5365 6.1237 2.5365z"/>
</defs>
<g clip-path="url(#a)" fill="#ffffff" stroke="#ffffff">
<use x="85.212121" y="941.818182" xlink:href="#b"/>
<use x="92.121212" y="941.818182" xlink:href="#b"/>
<use x="101.333333" y="941.818182" xlink:href="#b"/>
<use x="112.848485" y="941.818182" xlink:href="#b"/>
<use x="126.666667" y="941.818182" xlink:href="#b"/>
<use x="142.787879" y="941.818182" xlink:href="#b"/>
<use x="161.212121" y="941.818182" xlink:href="#b"/>
<use x="181.939394" y="941.818182" xlink:href="#b"/>
<use x="204.969697" y="941.818182" xlink:href="#b"/>
<use x="230.30303" y="941.818182" xlink:href="#b"/>
<use x="257.939394" y="941.818182" xlink:href="#b"/>
<use x="287.878788" y="941.818182" xlink:href="#b"/>
<use x="320.121212" y="941.818182" xlink:href="#b"/>
<use x="354.666667" y="941.818182" xlink:href="#b"/>
<use x="391.515152" y="941.818182" xlink:href="#b"/>
<use x="430.666667" y="941.818182" xlink:href="#b"/>
<use x="472.121212" y="941.818182" xlink:href="#b"/>
<use x="515.878788" y="941.818182" xlink:href="#b"/>
<use x="561.939394" y="941.818182" xlink:href="#b"/>
<use x="610.30303" y="941.818182" xlink:href="#b"/>
<use x="660.969697" y="941.818182" xlink:href="#b"/>
<use x="713.939394" y="941.818182" xlink:href="#b"/>
<use x="769.212121" y="941.818182" xlink:href="#b"/>
<use x="826.787879" y="941.818182" xlink:href="#b"/>
<use x="886.666667" y="941.818182" xlink:href="#b"/>
<use x="948.848485" y="941.818182" xlink:href="#b"/>
<use x="1013.333333" y="941.818182" xlink:href="#b"/>
<use x="1080.121212" y="941.818182" xlink:href="#b"/>
<use x="1149.212121" y="941.818182" xlink:href="#b"/>
<use x="1220.606061" y="941.818182" xlink:href="#b"/>
<use x="1294.30303" y="941.818182" xlink:href="#b"/>
<use x="1370.30303" y="941.818182" xlink:href="#b"/>
<use x="1448.606061" y="941.818182" xlink:href="#b"/>
<use x="1529.212121" y="941.818182" xlink:href="#b"/>
<use x="1612.121212" y="941.818182" xlink:href="#b"/>
<use x="1697.333333" y="941.818182" xlink:href="#b"/>
<use x="1784.848485" y="941.818182" xlink:href="#b"/>
<use x="1789.454545" y="303.277671" xlink:href="#b"/>
<use x="1789.454545" y="303.277671" xlink:href="#b"/>
<use x="665.145539" y="44.848485" xlink:href="#b"/>
<use x="665.145539" y="174.171258" xlink:href="#b"/>
<use x="665.145539" y="303.277671" xlink:href="#b"/>
<use x="99.606061" y="560.645982" xlink:href="#b"/>
<use x="207.272727" y="688.731643" xlink:href="#b"/>
<use x="280.681818" y="432.124392" xlink:href="#b"/>
<use x="636.787879" y="688.731643" xlink:href="#b"/>
<use x="826.787879" y="816.149011" xlink:href="#b"/>
<use x="1110.367677" y="432.124392" xlink:href="#b"/>
<use x="1655.878788" y="688.731643" xlink:href="#b"/>
<use x="1529.212121" y="816.149011" xlink:href="#b"/>
<use x="1612.121212" y="816.149011" xlink:href="#b"/>
<use x="886.666667" y="816.149011" xlink:href="#b"/>
<use x="981.090909" y="688.731643" xlink:href="#b"/>
<use x="1080.121212" y="816.149011" xlink:href="#b"/>
<use x="1233.656566" y="560.645982" xlink:href="#b"/>
<use x="1370.30303" y="816.149011" xlink:href="#b"/>
<use x="1149.212121" y="816.149011" xlink:href="#b"/>
<use x="1257.454545" y="688.731643" xlink:href="#b"/>
<use x="1294.30303" y="816.149011" xlink:href="#b"/>
<use x="1220.606061" y="816.149011" xlink:href="#b"/>
<use x="948.848485" y="816.149011" xlink:href="#b"/>
<use x="1013.333333" y="816.149011" xlink:href="#b"/>
<use x="561.939394" y="816.149011" xlink:href="#b"/>
<use x="610.30303" y="816.149011" xlink:href="#b"/>
<use x="660.969697" y="816.149011" xlink:href="#b"/>
<use x="713.939394" y="816.149011" xlink:href="#b"/>
<use x="379.424242" y="560.645982" xlink:href="#b"/>
<use x="320.121212" y="816.149011" xlink:href="#b"/>
<use x="354.666667" y="816.149011" xlink:href="#b"/>
<use x="391.515152" y="816.149011" xlink:href="#b"/>
<use x="451.393939" y="688.731643" xlink:href="#b"/>
<use x="430.666667" y="816.149011" xlink:href="#b"/>
<use x="472.121212" y="816.149011" xlink:href="#b"/>
<use x="161.212121" y="816.149011" xlink:href="#b"/>
<use x="181.939394" y="816.149011" xlink:href="#b"/>
<use x="204.969697" y="816.149011" xlink:href="#b"/>
<use x="230.30303" y="816.149011" xlink:href="#b"/>
<use x="257.939394" y="816.149011" xlink:href="#b"/>
<use x="85.212121" y="816.149011" xlink:href="#b"/>
<use x="92.121212" y="816.149011" xlink:href="#b"/>
<use x="101.333333" y="816.149011" xlink:href="#b"/>
<use x="119.757576" y="688.731643" xlink:href="#b"/>
<use x="112.848485" y="816.149011" xlink:href="#b"/>
<use x="126.666667" y="816.149011" xlink:href="#b"/>
<use x="142.787879" y="816.149011" xlink:href="#b"/>
<use x="287.878788" y="816.149011" xlink:href="#b"/>
<use x="515.878788" y="816.149011" xlink:href="#b"/>
<use x="769.212121" y="816.149011" xlink:href="#b"/>
<use x="1448.606061" y="816.149011" xlink:href="#b"/>
<use x="1697.333333" y="816.149011" xlink:href="#b"/>
<use x="1784.848485" y="816.149011" xlink:href="#b"/>
</g>
<g clip-path="url(#a)">
<defs>
<path id="s" d="m9.8125 72.906h9.8594v-72.906h-9.8594z"/>
<path id="v" d="m48.781 52.594v-8.4062q-3.8125 2.1094-7.6406 3.1562t-7.7344 1.0469q-8.75 0-13.594-5.5469-4.8281-5.5312-4.8281-15.547t4.8281-15.562q4.8438-5.5312 13.594-5.5312 3.9062 0 7.7344 1.0469t7.6406 3.1562v-8.3125q-3.7656-1.75-7.7969-2.625-4.0156-0.89062-8.5625-0.89062-12.359 0-19.641 7.7656-7.2656 7.7656-7.2656 20.953 0 13.375 7.3438 21.031 7.3594 7.6719 20.156 7.6719 4.1406 0 8.0938-0.85938 3.9531-0.84375 7.6719-2.5469z"/>
<path id="r" d="m54.891 33.016v-33.016h-8.9844v32.719q0 7.7656-3.0312 11.609-3.0312 3.8594-9.0781 3.8594-7.2812 0-11.484-4.6406-4.2031-4.625-4.2031-12.641v-30.906h-9.0312v75.984h9.0312v-29.797q3.2344 4.9375 7.5938 7.375 4.375 2.4375 10.094 2.4375 9.4219 0 14.25-5.8281 4.8438-5.8281 4.8438-17.156z"/>
</defs>
<g transform="translate(77.819 944.58) scale(.1 -.1)">
<use xlink:href="#s"/>
<use x="29.492188" xlink:href="#v"/>
<use x="84.472656" xlink:href="#r"/>
</g>
</g>
<g clip-path="url(#a)">
<defs>
<path id="aq" d="m48.688 27.297q0 9.9062-4.0781 15.547t-11.203 5.6406q-7.1406 0-11.219-5.6406t-4.0781-15.547 4.0781-15.547 11.219-5.6406q7.125 0 11.203 5.6406t4.0781 15.547zm-30.578 19.094q2.8438 4.875 7.1562 7.2344 4.3281 2.375 10.328 2.375 9.9688 0 16.188-7.9062 6.2344-7.9062 6.2344-20.797t-6.2344-20.812q-6.2188-7.9062-16.188-7.9062-6 0-10.328 2.375-4.3125 2.375-7.1562 7.25v-8.2031h-9.0312v75.984h9.0312z"/>
</defs>
<g transform="translate(79.638 944.58) scale(.1 -.1)">
<use xlink:href="#r"/>
<use x="63.378906" xlink:href="#g"/>
<use x="124.658203" xlink:href="#aq"/>
<use x="188.134766" xlink:href="#e"/>
</g>
</g>
<g clip-path="url(#a)">
<defs>
<path id="al" d="m9.8125 72.906h14.703l18.594-49.609 18.703 49.609h14.703v-72.906h-9.625v64.016l-18.797-50h-9.9062l-18.797 50v-64.016h-9.5781z"/>
<path id="ab" d="m18.312 70.219v-15.531h18.5v-6.9844h-18.5v-29.688q0-6.6875 1.8281-8.5938t7.4531-1.9062h9.2188v-7.5156h-9.2188q-10.406 0-14.359 3.875-3.9531 3.8906-3.9531 14.141v29.688h-6.5938v6.9844h6.5938v15.531z"/>
<path id="u" d="m45.406 46.391v29.594h8.9844v-75.984h-8.9844v8.2031q-2.8281-4.875-7.1562-7.25-4.3125-2.375-10.375-2.375-9.9062 0-16.141 7.9062-6.2188 7.9219-6.2188 20.812t6.2188 20.797q6.2344 7.9062 16.141 7.9062 6.0625 0 10.375-2.375 4.3281-2.3594 7.1562-7.2344zm-30.609-19.094q0-9.9062 4.0781-15.547t11.203-5.6406 11.219 5.6406q4.1094 5.6406 4.1094 15.547t-4.1094 15.547q-4.0938 5.6406-11.219 5.6406t-11.203-5.6406-4.0781-15.547z"/>
</defs>
<g transform="translate(84.641 944.58) scale(.1 -.1)">
<use xlink:href="#al"/>
<use x="86.279297" xlink:href="#h"/>
<use x="114.0625" xlink:href="#ab"/>
<use x="153.271484" xlink:href="#k"/>
<use x="181.054688" xlink:href="#e"/>
<use x="242.578125" xlink:href="#h"/>
<use x="270.361328" xlink:href="#u"/>
</g>
</g>
<g clip-path="url(#a)">
<g transform="translate(104.63 944.58) scale(.1 -.1)">
<use xlink:href="#l"/>
<use x="97.412109" xlink:href="#h"/>
<use x="125.195312" xlink:href="#ab"/>
</g>
</g>
<g clip-path="url(#a)">
<g transform="translate(120.05 944.58) scale(.1 -.1)">
<use xlink:href="#u"/>
<use x="63.476562" xlink:href="#h"/>
<use x="91.259766" xlink:href="#i"/>
</g>
</g>
<g clip-path="url(#a)">
<defs>
<path id="ao" d="m11.719 12.406h10.297v-8.4062l-8-15.625h-6.2969l4 15.625z"/>
</defs>
<g transform="translate(141.2 944.58) scale(.1 -.1)">
<use xlink:href="#ao"/>
</g>
</g>
<g clip-path="url(#a)">
<defs>
<path id="t" d="m44.281 53.078v-8.5q-3.7969 1.9531-7.9062 2.9219-4.0938 0.98438-8.5 0.98438-6.6875 0-10.031-2.0469t-3.3438-6.1562q0-3.125 2.3906-4.9062t9.625-3.3906l3.0781-0.6875q9.5625-2.0469 13.594-5.7812t4.0312-10.422q0-7.625-6.0312-12.078-6.0312-4.4375-16.578-4.4375-4.3906 0-9.1562 0.85938t-10.031 2.5625v9.2812q4.9844-2.5938 9.8125-3.8906 4.8281-1.2812 9.5781-1.2812 6.3438 0 9.75 2.1719 3.4219 2.1719 3.4219 6.125 0 3.6562-2.4688 5.6094-2.4531 1.9531-10.812 3.7656l-3.125 0.73438q-8.3438 1.75-12.062 5.3906-3.7031 3.6406-3.7031 9.9844 0 7.7188 5.4688 11.906 5.4688 4.2031 15.531 4.2031 4.9688 0 9.3594-0.73438 4.4062-0.71875 8.1094-2.1875z"/>
<path id="aw" d="m30.609 48.391q-7.2188 0-11.422-5.6406t-4.2031-15.453 4.1719-15.453q4.1875-5.6406 11.453-5.6406 7.1875 0 11.375 5.6562 4.2031 5.6719 4.2031 15.438 0 9.7188-4.2031 15.406-4.1875 5.6875-11.375 5.6875zm0 7.6094q11.719 0 18.406-7.625 6.7031-7.6094 6.7031-21.078 0-13.422-6.7031-21.078-6.6875-7.6406-18.406-7.6406-11.766 0-18.438 7.6406-6.6562 7.6562-6.6562 21.078 0 13.469 6.6562 21.078 6.6719 7.625 18.438 7.625z"/>
</defs>
<g transform="translate(155.55 944.58) scale(.1 -.1)">
<use xlink:href="#t"/>
<use x="52.099609" xlink:href="#aw"/>
</g>
</g>
<g clip-path="url(#a)">
<defs>
<path id="ap" d="m4.2031 54.688h8.9844l11.234-42.672 11.172 42.672h10.594l11.234-42.672 11.188 42.672h8.9844l-14.312-54.688h-10.594l-11.766 44.828-11.812-44.828h-10.609z"/>
</defs>
<g transform="translate(160.35 944.58) scale(.1 -.1)">
<use xlink:href="#t"/>
<use x="52.099609" xlink:href="#v"/>
<use x="107.080078" xlink:href="#r"/>
<use x="170.458984" xlink:href="#ap"/>
<use x="252.246094" xlink:href="#g"/>
<use x="313.525391" xlink:href="#v"/>
<use x="368.505859" xlink:href="#r"/>
</g>
</g>
<g clip-path="url(#a)">
<g transform="translate(196.42 944.58) scale(.1 -.1)">
<use xlink:href="#ap"/>
<use x="81.787109" xlink:href="#h"/>
<use x="109.570312" xlink:href="#e"/>
</g>
</g>
<g clip-path="url(#a)">
<defs>
<path id="ah" d="m8.5 21.578v33.109h8.9844v-32.766q0-7.7656 3.0156-11.656 3.0312-3.875 9.0938-3.875 7.2656 0 11.484 4.6406 4.2344 4.6406 4.2344 12.656v31h8.9844v-54.688h-8.9844v8.4062q-3.2656-4.9844-7.5938-7.4062-4.3125-2.4219-10.031-2.4219-9.4219 0-14.312 5.8594-4.875 5.8594-4.875 17.141z"/>
</defs>
<g transform="translate(223.96 944.58) scale(.1 -.1)">
<use xlink:href="#u"/>
<use x="63.476562" xlink:href="#ah"/>
</g>
</g>
<g clip-path="url(#a)">
<g transform="translate(248.81 944.58) scale(.1 -.1)">
<use xlink:href="#aq"/>
<use x="63.476562" xlink:href="#h"/>
<use x="91.259766" xlink:href="#t"/>
<use x="143.359375" xlink:href="#ab"/>
</g>
</g>
<g clip-path="url(#a)">
<g transform="translate(286.29 944.58) scale(.1 -.1)">
<use xlink:href="#ao"/>
</g>
</g>
<g clip-path="url(#a)">
<defs>
<path id="as" d="m37.109 75.984v-7.4844h-8.5938q-4.8281 0-6.7188-1.9531-1.875-1.9531-1.875-7.0312v-4.8281h14.797v-6.9844h-14.797v-47.703h-9.0312v47.703h-8.5938v6.9844h8.5938v3.8125q0 9.125 4.25 13.297 4.25 4.1875 13.469 4.1875z"/>
</defs>
<g transform="translate(312.13 944.58) scale(.1 -.1)">
<use xlink:href="#g"/>
<use x="61.279297" xlink:href="#ah"/>
<use x="124.658203" xlink:href="#as"/>
</g>
</g>
<g clip-path="url(#a)">
<g transform="translate(339.29 944.58) scale(.1 -.1)">
<use xlink:href="#u"/>
<use x="63.476562" xlink:href="#h"/>
<use x="91.259766" xlink:href="#e"/>
<use x="152.783203" xlink:href="#t"/>
<use x="204.882812" xlink:href="#e"/>
<use x="266.40625" xlink:href="#i"/>
</g>
</g>
<g clip-path="url(#a)">
<g transform="translate(380.14 944.58) scale(.1 -.1)">
<use xlink:href="#ak"/>
<use x="63.183594" xlink:href="#i"/>
<use x="102.546875" xlink:href="#u"/>
<use x="166.023438" xlink:href="#e"/>
</g>
</g>
<g clip-path="url(#a)">
<g transform="translate(421.83 944.58) scale(.1 -.1)">
<use xlink:href="#g"/>
<use x="61.279297" xlink:href="#ah"/>
<use x="124.658203" xlink:href="#t"/>
</g>
</g>
<g clip-path="url(#a)">
<defs>
<path id="at" d="m59.516 10.406v19.578h-16.109v8.1094h25.875v-31.312q-5.7031-4.0469-12.594-6.125-6.875-2.0781-14.688-2.0781-17.094 0-26.75 9.9844-9.6406 10-9.6406 27.812 0 17.875 9.6406 27.859 9.6562 9.9844 26.75 9.9844 7.125 0 13.547-1.7656 6.4219-1.75 11.844-5.1719v-10.5q-5.4688 4.6406-11.625 6.9844t-12.938 2.3438q-13.391 0-20.109-7.4688-6.7031-7.4688-6.7031-22.266 0-14.75 6.7031-22.219 6.7188-7.4688 20.109-7.4688 5.2188 0 9.3125 0.90625 4.1094 0.90625 7.375 2.8125z"/>
</defs>
<g transform="translate(456.61 944.58) scale(.1 -.1)">
<use xlink:href="#at"/>
<use x="77.490234" xlink:href="#i"/>
<use x="118.603516" xlink:href="#g"/>
<use x="179.882812" xlink:href="#f"/>
<use x="243.261719" xlink:href="#h"/>
<use x="271.044922" xlink:href="#ab"/>
</g>
</g>
<g clip-path="url(#a)">
<defs>
<path id="d" d="m10.688 12.406h10.312v-12.406h-10.312z"/>
</defs>
<g transform="translate(514.29 944.58) scale(.1 -.1)">
<use xlink:href="#d"/>
</g>
</g>
<g clip-path="url(#a)">
<g transform="translate(554.55 944.58) scale(.1 -.1)">
<use xlink:href="#s"/>
<use x="29.492188" xlink:href="#v"/>
<use x="84.472656" xlink:href="#r"/>
</g>
</g>
<g clip-path="url(#a)">
<defs>
<path id="ar" d="m9.0781 75.984h9.0312v-44.875l26.812 23.578h11.469l-29-25.578 30.234-29.109h-11.719l-27.797 26.703v-26.703h-9.0312z"/>
</defs>
<g transform="translate(598.09 944.58) scale(.1 -.1)">
<use xlink:href="#ar"/>
<use x="56.160156" xlink:href="#g"/>
<use x="117.439453" xlink:href="#f"/>
<use x="180.818359" xlink:href="#f"/>
</g>
</g>
<g clip-path="url(#a)">
<g transform="translate(654.35 944.58) scale(.1 -.1)">
<use xlink:href="#u"/>
<use x="63.476562" xlink:href="#h"/>
<use x="91.259766" xlink:href="#i"/>
</g>
</g>
<g clip-path="url(#a)">
<g transform="translate(698.3 944.58) scale(.1 -.1)">
<use xlink:href="#r"/>
<use x="63.378906" xlink:href="#e"/>
<use x="124.902344" xlink:href="#k"/>
<use x="152.685547" xlink:href="#as"/>
<use x="187.890625" xlink:href="#e"/>
<use x="249.414062" xlink:href="#f"/>
</g>
</g>
<g clip-path="url(#a)">
<g transform="translate(767.62 944.58) scale(.1 -.1)">
<use xlink:href="#ao"/>
</g>
</g>
<g clip-path="url(#a)">
<g transform="translate(813.28 944.58) scale(.1 -.1)">
<use xlink:href="#ap"/>
<use x="81.787109" xlink:href="#e"/>
<use x="143.310547" xlink:href="#f"/>
<use x="206.689453" xlink:href="#f"/>
</g>
</g>
<g clip-path="url(#a)">
<g transform="translate(880.32 944.58) scale(.1 -.1)">
<use xlink:href="#u"/>
<use x="63.476562" xlink:href="#ah"/>
</g>
</g>
<g clip-path="url(#a)">
<g transform="translate(935.53 944.58) scale(.1 -.1)">
<use xlink:href="#e"/>
<use x="61.523438" xlink:href="#h"/>
<use x="89.306641" xlink:href="#f"/>
<use x="152.685547" xlink:href="#e"/>
<use x="214.208984" xlink:href="#t"/>
</g>
</g>
<g clip-path="url(#a)">
<defs>
<path id="ax" d="m45.406 27.984q0 9.7656-4.0312 15.125-4.0156 5.375-11.297 5.375-7.2188 0-11.25-5.375-4.0312-5.3594-4.0312-15.125 0-9.7188 4.0312-15.094t11.25-5.375q7.2812 0 11.297 5.375 4.0312 5.375 4.0312 15.094zm8.9844-21.203q0-13.953-6.2031-20.766-6.1875-6.8125-18.984-6.8125-4.7344 0-8.9375 0.70312t-8.1562 2.1719v8.7344q3.9531-2.1406 7.8125-3.1562 3.8594-1.0312 7.8594-1.0312 8.8438 0 13.234 4.6094t4.3906 13.938v4.4531q-2.7812-4.8438-7.125-7.2344t-10.406-2.3906q-10.047 0-16.203 7.6562-6.1562 7.6719-6.1562 20.328 0 12.688 6.1562 20.344 6.1562 7.6719 16.203 7.6719 6.0625 0 10.406-2.3906t7.125-7.2188v8.2969h8.9844z"/>
</defs>
<g transform="translate(999.18 944.58) scale(.1 -.1)">
<use xlink:href="#j"/>
<use x="44.583984" xlink:href="#g"/>
<use x="105.863281" xlink:href="#ax"/>
<use x="169.339844" xlink:href="#e"/>
<use x="230.863281" xlink:href="#t"/>
</g>
</g>
<g clip-path="url(#a)">
<g transform="translate(1053.9 944.58) scale(.1 -.1)">
<use xlink:href="#x"/>
<use x="63.476562" xlink:href="#e"/>
<use x="125" xlink:href="#r"/>
<use x="188.378906" xlink:href="#f"/>
<use x="251.757812" xlink:href="#t"/>
<use x="303.857422" xlink:href="#ah"/>
<use x="367.236328" xlink:href="#v"/>
<use x="422.216797" xlink:href="#r"/>
<use x="485.595703" xlink:href="#ab"/>
</g>
</g>
<g clip-path="url(#a)">
<g transform="translate(1137.1 944.58) scale(.1 -.1)">
<use xlink:href="#f"/>
<use x="63.378906" xlink:href="#g"/>
<use x="124.658203" xlink:href="#v"/>
<use x="179.638672" xlink:href="#r"/>
</g>
</g>
<g clip-path="url(#a)">
<g transform="translate(1201.9 944.58) scale(.1 -.1)">
<use xlink:href="#u"/>
<use x="63.476562" xlink:href="#e"/>
<use x="125" xlink:href="#h"/>
<use x="152.783203" xlink:href="#f"/>
<use x="216.162109" xlink:href="#e"/>
<use x="277.685547" xlink:href="#l"/>
</g>
</g>
<g clip-path="url(#a)">
<g transform="translate(1272.4 944.58) scale(.1 -.1)">
<use xlink:href="#ae"/>
<use x="60.302734" xlink:href="#k"/>
<use x="88.085938" xlink:href="#g"/>
<use x="149.365234" xlink:href="#f"/>
<use x="212.744141" xlink:href="#e"/>
<use x="274.267578" xlink:href="#ab"/>
<use x="313.476562" xlink:href="#e"/>
<use x="375" xlink:href="#f"/>
</g>
</g>
<g clip-path="url(#a)">
<g transform="translate(1359.5 944.58) scale(.1 -.1)">
<use xlink:href="#r"/>
<use x="63.378906" xlink:href="#g"/>
<use x="124.658203" xlink:href="#t"/>
<use x="176.757812" xlink:href="#ab"/>
</g>
</g>
<g clip-path="url(#a)">
<g transform="translate(1447 944.58) scale(.1 -.1)">
<use xlink:href="#d"/>
</g>
</g>
<g clip-path="url(#a)">
<g transform="translate(1521.8 944.58) scale(.1 -.1)">
<use xlink:href="#s"/>
<use x="29.492188" xlink:href="#v"/>
<use x="84.472656" xlink:href="#r"/>
</g>
</g>
<g clip-path="url(#a)">
<g transform="translate(1599.9 944.58) scale(.1 -.1)">
<use xlink:href="#ar"/>
<use x="56.160156" xlink:href="#g"/>
<use x="117.439453" xlink:href="#f"/>
<use x="180.818359" xlink:href="#f"/>
</g>
</g>
<g clip-path="url(#a)">
<g transform="translate(1692.6 944.58) scale(.1 -.1)">
<use xlink:href="#d"/>
<use x="31.787109" xlink:href="#d"/>
<use x="63.574219" xlink:href="#d"/>
</g>
</g>
<g clip-path="url(#a)">
<defs>
<path id="au" d="m17.922 72.906v-27.109h-8.2969v27.109zm18.453 0v-27.109h-8.2969v27.109z"/>
</defs>
<g transform="translate(1782.5 944.58) scale(.1 -.1)">
<use xlink:href="#au"/>
</g>
</g>
<g clip-path="url(#a)">
<g transform="translate(1768.4 306.04) scale(.1 -.1)">
<use xlink:href="#s"/>
<use x="29.492188" xlink:href="#al"/>
<use x="115.771484" xlink:href="#ae"/>
<use x="176.074219" xlink:href="#am"/>
<use x="231.787109" xlink:href="#s"/>
<use x="261.279297" xlink:href="#z"/>
<use x="331.103516" xlink:href="#s"/>
<use x="360.595703" xlink:href="#j"/>
</g>
</g>
<g clip-path="url(#a)">
<g transform="translate(1768.4 306.04) scale(.1 -.1)">
<use xlink:href="#s"/>
<use x="29.492188" xlink:href="#al"/>
<use x="115.771484" xlink:href="#ae"/>
<use x="176.074219" xlink:href="#am"/>
<use x="231.787109" xlink:href="#s"/>
<use x="261.279297" xlink:href="#z"/>
<use x="331.103516" xlink:href="#s"/>
<use x="360.595703" xlink:href="#j"/>
</g>
</g>
<g clip-path="url(#a)">
<defs>
<path id="c" d="m12.406 8.2969h16.109v55.625l-17.531-3.5156v8.9844l17.438 3.5156h9.8594v-64.609h16.109v-8.2969h-41.984z"/>
</defs>
<g transform="translate(657.19 47.608) scale(.1 -.1)">
<use xlink:href="#c"/>
<use x="63.623047" xlink:href="#d"/>
<use x="95.410156" xlink:href="#c"/>
</g>
</g>
<g clip-path="url(#a)">
<defs>
<path id="p" d="m19.188 8.2969h34.422v-8.2969h-46.281v8.2969q5.6094 5.8125 15.297 15.594 9.7031 9.7969 12.188 12.641 4.7344 5.3125 6.6094 9 1.8906 3.6875 1.8906 7.25 0 5.8125-4.0781 9.4688-4.0781 3.6719-10.625 3.6719-4.6406 0-9.7969-1.6094-5.1406-1.6094-11-4.8906v9.9688q5.9531 2.3906 11.125 3.6094 5.1875 1.2188 9.4844 1.2188 11.328 0 18.062-5.6719 6.7344-5.6562 6.7344-15.125 0-4.5-1.6875-8.5312-1.6719-4.0156-6.125-9.4844-1.2188-1.4219-7.7656-8.1875-6.5312-6.7656-18.453-18.922z"/>
</defs>
<g transform="translate(657.19 176.93) scale(.1 -.1)">
<use xlink:href="#c"/>
<use x="63.623047" xlink:href="#d"/>
<use x="95.410156" xlink:href="#p"/>
</g>
</g>
<g clip-path="url(#a)">
<defs>
<path id="m" d="m10.797 72.906h38.719v-8.3125h-29.688v-17.859q2.1406 0.73438 4.2812 1.0938 2.1562 0.35938 4.3125 0.35938 12.203 0 19.328-6.6875 7.1406-6.6875 7.1406-18.109 0-11.766-7.3281-18.297-7.3281-6.5156-20.656-6.5156-4.5938 0-9.3594 0.78125-4.75 0.78125-9.8281 2.3438v9.9219q4.3906-2.3906 9.0781-3.5625t9.9062-1.1719q8.4531 0 13.375 4.4375 4.9375 4.4375 4.9375 12.062 0 7.6094-4.9375 12.047-4.9219 4.4531-13.375 4.4531-3.9531 0-7.8906-0.875-3.9219-0.875-8.0156-2.7344z"/>
</defs>
<g transform="translate(657.19 306.04) scale(.1 -.1)">
<use xlink:href="#c"/>
<use x="63.623047" xlink:href="#d"/>
<use x="95.410156" xlink:href="#m"/>
</g>
</g>
<g clip-path="url(#a)">
<defs>
<path id="aa" d="m33.016 40.375q-6.6406 0-10.531-4.5469-3.875-4.5312-3.875-12.438 0-7.8594 3.875-12.438 3.8906-4.5625 10.531-4.5625t10.516 4.5625q3.875 4.5781 3.875 12.438 0 7.9062-3.875 12.438-3.875 4.5469-10.516 4.5469zm19.578 30.922v-8.9844q-3.7188 1.75-7.5 2.6719-3.7812 0.9375-7.5 0.9375-9.7656 0-14.922-6.5938-5.1406-6.5938-5.875-19.922 2.875 4.25 7.2188 6.5156 4.3594 2.2656 9.5781 2.2656 10.984 0 17.359-6.6719 6.375-6.6562 6.375-18.125 0-11.234-6.6406-18.031-6.6406-6.7812-17.672-6.7812-12.656 0-19.344 9.6875-6.6875 9.7031-6.6875 28.109 0 17.281 8.2031 27.562t22.016 10.281q3.7188 0 7.5-0.73438t7.8906-2.1875z"/>
</defs>
<g transform="translate(91.654 563.41) scale(.1 -.1)">
<use xlink:href="#c"/>
<use x="63.623047" xlink:href="#d"/>
<use x="95.410156" xlink:href="#aa"/>
</g>
</g>
<g clip-path="url(#a)">
<defs>
<path id="af" d="m8.2031 72.906h46.875v-4.2031l-26.469-68.703h-10.297l24.906 64.594h-35.016z"/>
</defs>
<g transform="translate(199.32 691.49) scale(.1 -.1)">
<use xlink:href="#c"/>
<use x="63.623047" xlink:href="#d"/>
<use x="95.410156" xlink:href="#af"/>
</g>
</g>
<g clip-path="url(#a)">
<defs>
<path id="ad" d="m31.781 34.625q-7.0312 0-11.062-3.7656-4.0156-3.7656-4.0156-10.344 0-6.5938 4.0156-10.359 4.0312-3.7656 11.062-3.7656t11.078 3.7812q4.0625 3.7969 4.0625 10.344 0 6.5781-4.0312 10.344-4.0156 3.7656-11.109 3.7656zm-9.8594 4.1875q-6.3438 1.5625-9.8906 5.9062-3.5312 4.3594-3.5312 10.609 0 8.7344 6.2188 13.812 6.2344 5.0781 17.062 5.0781 10.891 0 17.094-5.0781t6.2031-13.812q0-6.25-3.5469-10.609-3.5312-4.3438-9.8281-5.9062 7.125-1.6562 11.094-6.5 3.9844-4.8281 3.9844-11.797 0-10.609-6.4688-16.281-6.4688-5.6562-18.531-5.6562-12.047 0-18.531 5.6562-6.4688 5.6719-6.4688 16.281 0 6.9688 4 11.797 4.0156 4.8438 11.141 6.5zm-3.6094 15.578q0-5.6562 3.5312-8.8281 3.5469-3.1719 9.9375-3.1719 6.3594 0 9.9375 3.1719 3.5938 3.1719 3.5938 8.8281 0 5.6719-3.5938 8.8438-3.5781 3.1719-9.9375 3.1719-6.3906 0-9.9375-3.1719-3.5312-3.1719-3.5312-8.8438z"/>
</defs>
<g transform="translate(272.73 434.88) scale(.1 -.1)">
<use xlink:href="#c"/>
<use x="63.623047" xlink:href="#d"/>
<use x="95.410156" xlink:href="#ad"/>
</g>
</g>
<g clip-path="url(#a)">
<defs>
<path id="ac" d="m10.984 1.5156v8.9844q3.7188-1.7656 7.5156-2.6875 3.8125-0.92188 7.4844-0.92188 9.7656 0 14.906 6.5625 5.1562 6.5625 5.8906 19.953-2.8281-4.2031-7.1875-6.4531-4.3438-2.25-9.6094-2.25-10.938 0-17.312 6.6094-6.375 6.625-6.375 18.109 0 11.219 6.6406 18 6.6406 6.7969 17.672 6.7969 12.656 0 19.312-9.7031 6.6719-9.6875 6.6719-28.141 0-17.234-8.1875-27.516-8.1719-10.281-21.984-10.281-3.7188 0-7.5312 0.73438-3.7969 0.73438-7.9062 2.2031zm19.625 30.906q6.6406 0 10.516 4.5312 3.8906 4.5469 3.8906 12.469 0 7.8594-3.8906 12.422-3.875 4.5625-10.516 4.5625t-10.516-4.5625-3.875-12.422q0-7.9219 3.875-12.469 3.875-4.5312 10.516-4.5312z"/>
</defs>
<g transform="translate(628.84 691.49) scale(.1 -.1)">
<use xlink:href="#c"/>
<use x="63.623047" xlink:href="#d"/>
<use x="95.410156" xlink:href="#ac"/>
</g>
</g>
<g clip-path="url(#a)">
<defs>
<path id="ag" d="m31.781 66.406q-7.6094 0-11.453-7.5-3.8281-7.4844-3.8281-22.531 0-14.984 3.8281-22.484 3.8438-7.5 11.453-7.5 7.6719 0 11.5 7.5 3.8438 7.5 3.8438 22.484 0 15.047-3.8438 22.531-3.8281 7.5-11.5 7.5zm0 7.8125q12.266 0 18.734-9.7031 6.4688-9.6875 6.4688-28.141 0-18.406-6.4688-28.109-6.4688-9.6875-18.734-9.6875-12.25 0-18.719 9.6875-6.4688 9.7031-6.4688 28.109 0 18.453 6.4688 28.141 6.4688 9.7031 18.719 9.7031z"/>
</defs>
<g transform="translate(815.66 818.91) scale(.1 -.1)">
<use xlink:href="#c"/>
<use x="63.623047" xlink:href="#d"/>
<use x="95.410156" xlink:href="#c"/>
<use x="159.033203" xlink:href="#ag"/>
</g>
</g>
<g clip-path="url(#a)">
<g transform="translate(1099.2 434.88) scale(.1 -.1)">
<use xlink:href="#c"/>
<use x="63.623047" xlink:href="#d"/>
<use x="95.410156" xlink:href="#c"/>
<use x="159.033203" xlink:href="#c"/>
</g>
</g>
<g clip-path="url(#a)">
<g transform="translate(1644.7 691.49) scale(.1 -.1)">
<use xlink:href="#c"/>
<use x="63.623047" xlink:href="#d"/>
<use x="95.410156" xlink:href="#c"/>
<use x="159.033203" xlink:href="#p"/>
</g>
</g>
<g clip-path="url(#a)">
<g transform="translate(1518.1 818.91) scale(.1 -.1)">
<use xlink:href="#c"/>
<use x="63.623047" xlink:href="#d"/>
<use x="95.410156" xlink:href="#c"/>
<use x="159.033203" xlink:href="#ad"/>
</g>
</g>
<g clip-path="url(#a)">
<g transform="translate(1601 818.91) scale(.1 -.1)">
<use xlink:href="#c"/>
<use x="63.623047" xlink:href="#d"/>
<use x="95.410156" xlink:href="#c"/>
<use x="159.033203" xlink:href="#ac"/>
</g>
</g>
<g clip-path="url(#a)">
<g transform="translate(875.53 818.91) scale(.1 -.1)">
<use xlink:href="#c"/>
<use x="63.623047" xlink:href="#d"/>
<use x="95.410156" xlink:href="#p"/>
<use x="159.033203" xlink:href="#p"/>
</g>
</g>
<g clip-path="url(#a)">
<defs>
<path id="o" d="m40.578 39.312q7.0781-1.5156 11.047-6.3125 3.9844-4.7812 3.9844-11.812 0-10.781-7.4219-16.703-7.4219-5.9062-21.094-5.9062-4.5781 0-9.4375 0.90625t-10.031 2.7188v9.5156q4.0938-2.3906 8.9688-3.6094 4.8906-1.2188 10.219-1.2188 9.2656 0 14.125 3.6562t4.8594 10.641q0 6.4531-4.5156 10.078-4.5156 3.6406-12.562 3.6406h-8.5v8.1094h8.8906q7.2656 0 11.125 2.9062t3.8594 8.375q0 5.6094-3.9844 8.6094-3.9688 3.0156-11.391 3.0156-4.0625 0-8.7031-0.89062-4.6406-0.875-10.203-2.7188v8.7812q5.625 1.5625 10.531 2.3438t9.25 0.78125q11.234 0 17.766-5.1094 6.5469-5.0938 6.5469-13.781 0-6.0625-3.4688-10.234t-9.8594-5.7812z"/>
</defs>
<g transform="translate(969.96 691.49) scale(.1 -.1)">
<use xlink:href="#c"/>
<use x="63.623047" xlink:href="#d"/>
<use x="95.410156" xlink:href="#p"/>
<use x="159.033203" xlink:href="#o"/>
</g>
</g>
<g clip-path="url(#a)">
<defs>
<path id="n" d="m37.797 64.312-24.906-38.922h24.906zm-2.5938 8.5938h12.406v-47.516h10.406v-8.2031h-10.406v-17.188h-9.8125v17.188h-32.906v9.5156z"/>
</defs>
<g transform="translate(1069 818.91) scale(.1 -.1)">
<use xlink:href="#c"/>
<use x="63.623047" xlink:href="#d"/>
<use x="95.410156" xlink:href="#p"/>
<use x="159.033203" xlink:href="#n"/>
</g>
</g>
<g clip-path="url(#a)">
<g transform="translate(1222.5 563.41) scale(.1 -.1)">
<use xlink:href="#c"/>
<use x="63.623047" xlink:href="#d"/>
<use x="95.410156" xlink:href="#p"/>
<use x="159.033203" xlink:href="#m"/>
</g>
</g>
<g clip-path="url(#a)">
<g transform="translate(1359.2 818.91) scale(.1 -.1)">
<use xlink:href="#c"/>
<use x="63.623047" xlink:href="#d"/>
<use x="95.410156" xlink:href="#p"/>
<use x="159.033203" xlink:href="#aa"/>
</g>
</g>
<g clip-path="url(#a)">
<g transform="translate(1138.1 818.91) scale(.1 -.1)">
<use xlink:href="#c"/>
<use x="63.623047" xlink:href="#d"/>
<use x="95.410156" xlink:href="#p"/>
<use x="159.033203" xlink:href="#af"/>
</g>
</g>
<g clip-path="url(#a)">
<g transform="translate(1246.3 691.49) scale(.1 -.1)">
<use xlink:href="#c"/>
<use x="63.623047" xlink:href="#d"/>
<use x="95.410156" xlink:href="#p"/>
<use x="159.033203" xlink:href="#ad"/>
</g>
</g>
<g clip-path="url(#a)">
<g transform="translate(1283.2 818.91) scale(.1 -.1)">
<use xlink:href="#c"/>
<use x="63.623047" xlink:href="#d"/>
<use x="95.410156" xlink:href="#p"/>
<use x="159.033203" xlink:href="#ac"/>
</g>
</g>
<g clip-path="url(#a)">
<g transform="translate(1209.5 818.91) scale(.1 -.1)">
<use xlink:href="#c"/>
<use x="63.623047" xlink:href="#d"/>
<use x="95.410156" xlink:href="#o"/>
<use x="159.033203" xlink:href="#ag"/>
</g>
</g>
<g clip-path="url(#a)">
<g transform="translate(937.72 818.91) scale(.1 -.1)">
<use xlink:href="#c"/>
<use x="63.623047" xlink:href="#d"/>
<use x="95.410156" xlink:href="#o"/>
<use x="159.033203" xlink:href="#c"/>
</g>
</g>
<g clip-path="url(#a)">
<g transform="translate(1002.2 818.91) scale(.1 -.1)">
<use xlink:href="#c"/>
<use x="63.623047" xlink:href="#d"/>
<use x="95.410156" xlink:href="#o"/>
<use x="159.033203" xlink:href="#p"/>
</g>
</g>
<g clip-path="url(#a)">
<g transform="translate(550.81 818.91) scale(.1 -.1)">
<use xlink:href="#c"/>
<use x="63.623047" xlink:href="#d"/>
<use x="95.410156" xlink:href="#o"/>
<use x="159.033203" xlink:href="#o"/>
</g>
</g>
<g clip-path="url(#a)">
<g transform="translate(599.17 818.91) scale(.1 -.1)">
<use xlink:href="#c"/>
<use x="63.623047" xlink:href="#d"/>
<use x="95.410156" xlink:href="#o"/>
<use x="159.033203" xlink:href="#n"/>
</g>
</g>
<g clip-path="url(#a)">
<g transform="translate(649.84 818.91) scale(.1 -.1)">
<use xlink:href="#c"/>
<use x="63.623047" xlink:href="#d"/>
<use x="95.410156" xlink:href="#o"/>
<use x="159.033203" xlink:href="#m"/>
</g>
</g>
<g clip-path="url(#a)">
<g transform="translate(702.81 818.91) scale(.1 -.1)">
<use xlink:href="#c"/>
<use x="63.623047" xlink:href="#d"/>
<use x="95.410156" xlink:href="#o"/>
<use x="159.033203" xlink:href="#aa"/>
</g>
</g>
<g clip-path="url(#a)">
<g transform="translate(368.29 563.41) scale(.1 -.1)">
<use xlink:href="#c"/>
<use x="63.623047" xlink:href="#d"/>
<use x="95.410156" xlink:href="#o"/>
<use x="159.033203" xlink:href="#af"/>
</g>
</g>
<g clip-path="url(#a)">
<g transform="translate(308.99 818.91) scale(.1 -.1)">
<use xlink:href="#c"/>
<use x="63.623047" xlink:href="#d"/>
<use x="95.410156" xlink:href="#o"/>
<use x="159.033203" xlink:href="#ad"/>
</g>
</g>
<g clip-path="url(#a)">
<g transform="translate(343.53 818.91) scale(.1 -.1)">
<use xlink:href="#c"/>
<use x="63.623047" xlink:href="#d"/>
<use x="95.410156" xlink:href="#o"/>
<use x="159.033203" xlink:href="#ac"/>
</g>
</g>
<g clip-path="url(#a)">
<g transform="translate(380.38 818.91) scale(.1 -.1)">
<use xlink:href="#c"/>
<use x="63.623047" xlink:href="#d"/>
<use x="95.410156" xlink:href="#n"/>
<use x="159.033203" xlink:href="#ag"/>
</g>
</g>
<g clip-path="url(#a)">
<g transform="translate(440.26 691.49) scale(.1 -.1)">
<use xlink:href="#c"/>
<use x="63.623047" xlink:href="#d"/>
<use x="95.410156" xlink:href="#n"/>
<use x="159.033203" xlink:href="#c"/>
</g>
</g>
<g clip-path="url(#a)">
<g transform="translate(419.53 818.91) scale(.1 -.1)">
<use xlink:href="#c"/>
<use x="63.623047" xlink:href="#d"/>
<use x="95.410156" xlink:href="#n"/>
<use x="159.033203" xlink:href="#p"/>
</g>
</g>
<g clip-path="url(#a)">
<g transform="translate(460.99 818.91) scale(.1 -.1)">
<use xlink:href="#c"/>
<use x="63.623047" xlink:href="#d"/>
<use x="95.410156" xlink:href="#n"/>
<use x="159.033203" xlink:href="#o"/>
</g>
</g>
<g clip-path="url(#a)">
<g transform="translate(150.08 818.91) scale(.1 -.1)">
<use xlink:href="#c"/>
<use x="63.623047" xlink:href="#d"/>
<use x="95.410156" xlink:href="#n"/>
<use x="159.033203" xlink:href="#n"/>
</g>
</g>
<g clip-path="url(#a)">
<g transform="translate(170.81 818.91) scale(.1 -.1)">
<use xlink:href="#c"/>
<use x="63.623047" xlink:href="#d"/>
<use x="95.410156" xlink:href="#n"/>
<use x="159.033203" xlink:href="#m"/>
</g>
</g>
<g clip-path="url(#a)">
<g transform="translate(193.84 818.91) scale(.1 -.1)">
<use xlink:href="#c"/>
<use x="63.623047" xlink:href="#d"/>
<use x="95.410156" xlink:href="#n"/>
<use x="159.033203" xlink:href="#aa"/>
</g>
</g>
<g clip-path="url(#a)">
<g transform="translate(219.17 818.91) scale(.1 -.1)">
<use xlink:href="#c"/>
<use x="63.623047" xlink:href="#d"/>
<use x="95.410156" xlink:href="#n"/>
<use x="159.033203" xlink:href="#af"/>
</g>
</g>
<g clip-path="url(#a)">
<g transform="translate(246.81 818.91) scale(.1 -.1)">
<use xlink:href="#c"/>
<use x="63.623047" xlink:href="#d"/>
<use x="95.410156" xlink:href="#n"/>
<use x="159.033203" xlink:href="#ad"/>
</g>
</g>
<g clip-path="url(#a)">
<g transform="translate(74.079 818.91) scale(.1 -.1)">
<use xlink:href="#c"/>
<use x="63.623047" xlink:href="#d"/>
<use x="95.410156" xlink:href="#n"/>
<use x="159.033203" xlink:href="#ac"/>
</g>
</g>
<g clip-path="url(#a)">
<g transform="translate(80.988 818.91) scale(.1 -.1)">
<use xlink:href="#c"/>
<use x="63.623047" xlink:href="#d"/>
<use x="95.410156" xlink:href="#m"/>
<use x="159.033203" xlink:href="#ag"/>
</g>
</g>
<g clip-path="url(#a)">
<g transform="translate(90.201 818.91) scale(.1 -.1)">
<use xlink:href="#c"/>
<use x="63.623047" xlink:href="#d"/>
<use x="95.410156" xlink:href="#m"/>
<use x="159.033203" xlink:href="#c"/>
</g>
</g>
<g clip-path="url(#a)">
<g transform="translate(108.62 691.49) scale(.1 -.1)">
<use xlink:href="#c"/>
<use x="63.623047" xlink:href="#d"/>
<use x="95.410156" xlink:href="#m"/>
<use x="159.033203" xlink:href="#p"/>
</g>
</g>
<g clip-path="url(#a)">
<g transform="translate(101.72 818.91) scale(.1 -.1)">
<use xlink:href="#c"/>
<use x="63.623047" xlink:href="#d"/>
<use x="95.410156" xlink:href="#m"/>
<use x="159.033203" xlink:href="#o"/>
</g>
</g>
<g clip-path="url(#a)">
<g transform="translate(115.53 818.91) scale(.1 -.1)">
<use xlink:href="#c"/>
<use x="63.623047" xlink:href="#d"/>
<use x="95.410156" xlink:href="#m"/>
<use x="159.033203" xlink:href="#n"/>
</g>
</g>
<g clip-path="url(#a)">
<g transform="translate(131.66 818.91) scale(.1 -.1)">
<use xlink:href="#c"/>
<use x="63.623047" xlink:href="#d"/>
<use x="95.410156" xlink:href="#m"/>
<use x="159.033203" xlink:href="#m"/>
</g>
</g>
<g clip-path="url(#a)">
<g transform="translate(276.75 818.91) scale(.1 -.1)">
<use xlink:href="#c"/>
<use x="63.623047" xlink:href="#d"/>
<use x="95.410156" xlink:href="#m"/>
<use x="159.033203" xlink:href="#aa"/>
</g>
</g>
<g clip-path="url(#a)">
<g transform="translate(504.75 818.91) scale(.1 -.1)">
<use xlink:href="#c"/>
<use x="63.623047" xlink:href="#d"/>
<use x="95.410156" xlink:href="#m"/>
<use x="159.033203" xlink:href="#af"/>
</g>
</g>
<g clip-path="url(#a)">
<g transform="translate(758.08 818.91) scale(.1 -.1)">
<use xlink:href="#c"/>
<use x="63.623047" xlink:href="#d"/>
<use x="95.410156" xlink:href="#m"/>
<use x="159.033203" xlink:href="#ad"/>
</g>
</g>
<g clip-path="url(#a)">
<g transform="translate(1437.5 818.91) scale(.1 -.1)">
<use xlink:href="#c"/>
<use x="63.623047" xlink:href="#d"/>
<use x="95.410156" xlink:href="#m"/>
<use x="159.033203" xlink:href="#ac"/>
</g>
</g>
<g clip-path="url(#a)">
<g transform="translate(1686.2 818.91) scale(.1 -.1)">
<use xlink:href="#c"/>
<use x="63.623047" xlink:href="#d"/>
<use x="95.410156" xlink:href="#aa"/>
<use x="159.033203" xlink:href="#ag"/>
</g>
</g>
<g clip-path="url(#a)">
<g transform="translate(1773.7 818.91) scale(.1 -.1)">
<use xlink:href="#c"/>
<use x="63.623047" xlink:href="#d"/>
<use x="95.410156" xlink:href="#aa"/>
<use x="159.033203" xlink:href="#c"/>
</g>
</g>
<defs>
<clipPath id="a">
<rect width="1874.7" height="986.67"/>
</clipPath>
</defs>
</svg>
