<?xml version="1.0" encoding="UTF-8"?>
<!DOCTYPE svg  PUBLIC '-//W3C//DTD SVG 1.1//EN'  'http://www.w3.org/Graphics/SVG/1.1/DTD/svg11.dtd'>
<svg width="1824pt" height="960pt" version="1.1" viewBox="0 0 1824 960" xmlns="http://www.w3.org/2000/svg" xmlns:xlink="http://www.w3.org/1999/xlink">
<defs>
<style type="text/css">*{stroke-linecap:butt;stroke-linejoin:round;}</style>
</defs>
<path d="m0 960h1824v-960h-1824z" fill="#fff"/>
<g fill="none" stroke="#000">
<path d="m1067.1 44.306-747.17 118.26" clip-path="url(#a)"/>
<path d="m1067.1 44.306 441.7 560.54" clip-path="url(#a)"/>
<path d="m1067.1 44.306 305.47 768.25" clip-path="url(#a)"/>
<path d="m319.88 162.57-236.82 649.99" clip-path="url(#a)"/>
<path d="m319.88 162.57-190.76 649.99" clip-path="url(#a)"/>
<path d="m319.88 162.57-144.71 649.99" clip-path="url(#a)"/>
<path d="m319.88 162.57 572.29 114.88" clip-path="url(#a)"/>
<path d="m1508.8 604.84-90.185 207.71" clip-path="url(#a)"/>
<path d="m1508.8 604.84-44.133 207.71" clip-path="url(#a)"/>
<path d="m1508.8 604.84 1.9188 207.71" clip-path="url(#a)"/>
<path d="m1508.8 604.84 132.4 104.57" clip-path="url(#a)"/>
<path d="m1418.6 812.55v103.14" clip-path="url(#a)"/>
<path d="m1464.6 812.55v103.14" clip-path="url(#a)"/>
<path d="m1510.7 812.55v103.14" clip-path="url(#a)"/>
<path d="m1641.2 709.42-61.402 103.14" clip-path="url(#a)"/>
<path d="m1641.2 709.42 7.6753 103.14" clip-path="url(#a)"/>
<path d="m1641.2 709.42 53.727 103.14" clip-path="url(#a)"/>
<path d="m1579.8 812.55-23.026 103.14" clip-path="url(#a)"/>
<path d="m1579.8 812.55 23.026 103.14" clip-path="url(#a)"/>
<path d="m1648.8 812.55v103.14" clip-path="url(#a)"/>
<path d="m83.067 812.55v103.14" clip-path="url(#a)"/>
<path d="m129.12 812.55v103.14" clip-path="url(#a)"/>
<path d="m175.17 812.55v103.14" clip-path="url(#a)"/>
<path d="m892.18 277.45-569.86 111.79" clip-path="url(#a)"/>
<path d="m892.18 277.45-95.306 431.97" clip-path="url(#a)"/>
<path d="m892.18 277.45 42.85 431.97" clip-path="url(#a)"/>
<path d="m892.18 277.45 215.54 431.97" clip-path="url(#a)"/>
<path d="m892.18 277.45 399.75 431.97" clip-path="url(#a)"/>
<path d="m892.18 277.45-210.44 535.11" clip-path="url(#a)"/>
<path d="m892.18 277.45-164.38 535.11" clip-path="url(#a)"/>
<path d="m892.18 277.45-26.228 535.11" clip-path="url(#a)"/>
<path d="m892.18 277.45 111.93 535.11" clip-path="url(#a)"/>
<path d="m892.18 277.45 296.14 535.11" clip-path="url(#a)"/>
<path d="m322.32 389.24-101.1 423.32" clip-path="url(#a)"/>
<path d="m322.32 389.24-55.046 423.32" clip-path="url(#a)"/>
<path d="m322.32 389.24 165.14 109.02" clip-path="url(#a)"/>
<path d="m322.32 389.24-8.9945 423.32" clip-path="url(#a)"/>
<path d="m796.87 709.42-23.026 103.14" clip-path="url(#a)"/>
<path d="m796.87 709.42 23.026 103.14" clip-path="url(#a)"/>
<path d="m935.03 709.42-23.026 103.14" clip-path="url(#a)"/>
<path d="m935.03 709.42 23.026 103.14" clip-path="url(#a)"/>
<path d="m1107.7 709.42-34.539 103.14" clip-path="url(#a)"/>
<path d="m1107.7 709.42 34.539 103.14" clip-path="url(#a)"/>
<path d="m1291.9 709.42-34.539 103.14" clip-path="url(#a)"/>
<path d="m1291.9 709.42 34.539 103.14" clip-path="url(#a)"/>
<path d="m1257.4 812.55-23.026 103.14" clip-path="url(#a)"/>
<path d="m1257.4 812.55 23.026 103.14" clip-path="url(#a)"/>
<path d="m1326.5 812.55v103.14" clip-path="url(#a)"/>
<path d="m1073.2 812.55-23.026 103.14" clip-path="url(#a)"/>
<path d="m1073.2 812.55 23.026 103.14" clip-path="url(#a)"/>
<path d="m1142.3 812.55v103.14" clip-path="url(#a)"/>
<path d="m912 812.55v103.14" clip-path="url(#a)"/>
<path d="m958.05 812.55v103.14" clip-path="url(#a)"/>
<path d="m773.84 812.55v103.14" clip-path="url(#a)"/>
<path d="m819.9 812.55v103.14" clip-path="url(#a)"/>
<path d="m221.22 812.55v103.14" clip-path="url(#a)"/>
<path d="m267.27 812.55v103.14" clip-path="url(#a)"/>
<path d="m487.46 498.25-243.21 211.16" clip-path="url(#a)"/>
<path d="m487.46 498.25 10.074 314.3" clip-path="url(#a)"/>
<path d="m487.46 498.25 269.12 106.59" clip-path="url(#a)"/>
<path d="m487.46 498.25-35.978 314.3" clip-path="url(#a)"/>
<path d="m244.25 709.42-161.18 103.14" clip-path="url(#a)" stroke-dasharray="3.7,1.6"/>
<path d="m244.25 709.42-115.13 103.14" clip-path="url(#a)" stroke-dasharray="3.7,1.6"/>
<path d="m244.25 709.42 115.13 103.14" clip-path="url(#a)"/>
<path d="m244.25 709.42 161.18 103.14" clip-path="url(#a)"/>
<path d="m497.53 812.55v103.14" clip-path="url(#a)"/>
<path d="m756.57 604.84-673.51 207.71" clip-path="url(#a)" stroke-dasharray="3.7,1.6"/>
<path d="m756.57 604.84 984.36 310.85" clip-path="url(#a)"/>
<path d="m756.57 604.84-189.96 104.57" clip-path="url(#a)"/>
<path d="m756.57 604.84-120.89 207.71" clip-path="url(#a)"/>
<path d="m313.33 812.55v103.14" clip-path="url(#a)"/>
<path d="m566.61 709.42-23.026 103.14" clip-path="url(#a)"/>
<path d="m566.61 709.42 23.026 103.14" clip-path="url(#a)"/>
<path d="m635.69 812.55v103.14" clip-path="url(#a)"/>
<path d="m543.59 812.55v103.14" clip-path="url(#a)"/>
<path d="m589.64 812.55v103.14" clip-path="url(#a)"/>
<path d="m359.38 812.55v103.14" clip-path="url(#a)"/>
<path d="m405.43 812.55v103.14" clip-path="url(#a)"/>
<path d="m451.48 812.55v103.14" clip-path="url(#a)"/>
<path d="m681.74 812.55v103.14" clip-path="url(#a)"/>
<path d="m727.79 812.55v103.14" clip-path="url(#a)"/>
<path d="m865.95 812.55v103.14" clip-path="url(#a)"/>
<path d="m1004.1 812.55v103.14" clip-path="url(#a)"/>
<path d="m1188.3 812.55v103.14" clip-path="url(#a)"/>
<path d="m1372.5 812.55v103.14" clip-path="url(#a)"/>
<path d="m1694.9 812.55v103.14" clip-path="url(#a)"/>
</g>
<path d="m691.48 110.1 5.9423-0.94054q2.3705-0.3752 1.9953-2.7457l-1.2104-7.6473q-0.3752-2.3705-2.7457-1.9953l-5.9423 0.94054q-2.3705 0.3752-1.9953 2.7457l1.2104 7.6473q0.3752 2.3705 2.7457 1.9953z" clip-path="url(#a)" fill="#fff" stroke="#fff"/>
<g clip-path="url(#a)">
<defs>
<path id="al" d="m9.8125 72.906h9.8594v-29.891h35.844v29.891h9.8594v-72.906h-9.8594v34.719h-35.844v-34.719h-9.8594z"/>
</defs>
<g transform="translate(690.84 106.09) rotate(-8.9942) scale(.08 -.08)">
<use xlink:href="#al"/>
</g>
</g>
<path d="m1281.1 326.09 3.7236 4.7254q1.4854 1.8851 3.3705 0.39963l6.0813-4.7921q1.8851-1.4854 0.39963-3.3705l-3.7236-4.7254q-1.4854-1.8851-3.3705-0.39963l-6.0813 4.7921q-1.8851 1.4854-0.39963 3.3705z" clip-path="url(#a)" fill="#fff" stroke="#fff"/>
<g clip-path="url(#a)">
<g transform="translate(1284.3 323.58) rotate(51.762) scale(.08 -.08)">
<use xlink:href="#al"/>
</g>
</g>
<path d="m1212.9 428.03 2.1633 5.4407q0.88675 2.2302 3.1169 1.3434l7.1946-2.8607q2.2302-0.88675 1.3434-3.1169l-2.1633-5.4407q-0.88675-2.2302-3.1169-1.3434l-7.1946 2.8607q-2.2302 0.88675-1.3434 3.1169z" clip-path="url(#a)" fill="#fff" stroke="#fff"/>
<g clip-path="url(#a)">
<defs>
<path id="t" d="m8.6875 72.906h9.9219v-44.297q0-11.719 4.2344-16.875 4.25-5.1406 13.781-5.1406 9.4688 0 13.719 5.1406 4.25 5.1562 4.25 16.875v44.297h9.9062v-45.516q0-14.25-7.0625-21.531-7.0469-7.2812-20.812-7.2812-13.828 0-20.891 7.2812-7.0469 7.2812-7.0469 21.531z"/>
</defs>
<g transform="translate(1216.7 426.53) rotate(68.317) scale(.08 -.08)">
<use xlink:href="#t"/>
</g>
</g>
<path d="m206.43 492.28 1.8734-5.1419q0.82158-2.255-1.4334-3.0766l-7.2747-2.6505q-2.255-0.82159-3.0766 1.4334l-1.8734 5.1419q-0.82159 2.255 1.4334 3.0766l7.2747 2.6505q2.255 0.82159 3.0766-1.4334z" clip-path="url(#a)" fill="#fff" stroke="#fff"/>
<g clip-path="url(#a)">
<defs>
<path id="w" d="m34.188 63.188-13.391-36.281h26.812zm-5.5781 9.7188h11.188l27.781-72.906h-10.25l-6.6406 18.703h-32.859l-6.6406-18.703h-10.406z"/>
</defs>
<g transform="translate(202.61 490.89) rotate(-69.981) scale(.08 -.08)">
<use xlink:href="#w"/>
</g>
</g>
<path d="m229.84 491.64 1.3584-4.6285q0.67587-2.3029-1.627-2.9787l-7.4291-2.1804q-2.3029-0.67587-2.9787 1.627l-1.3584 4.6285q-0.67587 2.3029 1.627 2.9787l7.4291 2.1804q2.3029 0.67587 2.9787-1.627z" clip-path="url(#a)" fill="#fff" stroke="#fff"/>
<g clip-path="url(#a)">
<defs>
<path id="ak" d="m19.672 64.797v-27.391h12.406q6.8906 0 10.641 3.5625 3.7656 3.5625 3.7656 10.156 0 6.5469-3.7656 10.109-3.75 3.5625-10.641 3.5625zm-9.8594 8.1094h22.266q12.266 0 18.531-5.5469 6.2812-5.5469 6.2812-16.234 0-10.797-6.2812-16.312-6.2656-5.5156-18.531-5.5156h-12.406v-29.297h-9.8594z"/>
</defs>
<g transform="translate(225.94 490.5) rotate(-73.644) scale(.08 -.08)">
<use xlink:href="#ak"/>
</g>
</g>
<path d="m253.05 491.6 1.1893-5.3417q0.52156-2.3426-1.8211-2.8642l-7.5575-1.6826q-2.3426-0.52156-2.8642 1.8211l-1.1893 5.3417q-0.52156 2.3426 1.8211 2.8642l7.5575 1.6826q2.3426 0.52156 2.8642-1.8211z" clip-path="url(#a)" fill="#fff" stroke="#fff"/>
<g clip-path="url(#a)">
<g transform="translate(249.09 490.71) rotate(-77.448) scale(.08 -.08)">
<use xlink:href="#w"/>
</g>
</g>
<path d="m602.11 225.62 5.3655 1.077q2.3531 0.47234 2.8254-1.8807l1.5238-7.5911q0.47234-2.3531-1.8807-2.8254l-5.3655-1.077q-2.3531-0.47234-2.8254 1.8807l-1.5238 7.5911q-0.47234 2.3531 1.8807 2.8254z" clip-path="url(#a)" fill="#fff" stroke="#fff"/>
<g clip-path="url(#a)">
<g transform="translate(602.91 221.63) rotate(11.35) scale(.08 -.08)">
<use xlink:href="#w"/>
</g>
</g>
<path d="m1468.3 713.71 2.1795-5.0198q0.95583-2.2015-1.2456-3.1573l-7.102-3.0835q-2.2015-0.95583-3.1573 1.2456l-2.1795 5.0198q-0.95583 2.2015 1.2456 3.1573l7.102 3.0835q2.2015 0.95583 3.1573-1.2456z" clip-path="url(#a)" fill="#fff" stroke="#fff"/>
<g clip-path="url(#a)">
<g transform="translate(1464.6 712.09) rotate(-66.53) scale(.08 -.08)">
<use xlink:href="#w"/>
</g>
</g>
<path d="m1492.3 712.49 1.0555-4.9679q0.4988-2.3476-1.8488-2.8464l-7.5734-1.6091q-2.3476-0.4988-2.8464 1.8488l-1.0555 4.9679q-0.4988 2.3476 1.8488 2.8464l7.5734 1.6091q2.3476 0.4988 2.8464-1.8488z" clip-path="url(#a)" fill="#fff" stroke="#fff"/>
<g clip-path="url(#a)">
<defs>
<path id="as" d="m53.516 70.516v-9.625q-5.6094 2.6875-10.594 4-4.9844 1.3281-9.625 1.3281-8.0469 0-12.422-3.125t-4.375-8.8906q0-4.8438 2.9062-7.3125 2.9062-2.4531 11.016-3.9688l5.9531-1.2188q11.031-2.1094 16.281-7.4062t5.25-14.172q0-10.609-7.1094-16.078-7.0938-5.4688-20.812-5.4688-5.1719 0-11.016 1.1719-5.8281 1.1719-12.078 3.4688v10.156q6-3.3594 11.766-5.0781 5.7656-1.7031 11.328-1.7031 8.4375 0 13.031 3.3125 4.5938 3.3281 4.5938 9.4844 0 5.3594-3.2969 8.3906t-10.812 4.5469l-6.0156 1.1719q-11.031 2.1875-15.969 6.875-4.9219 4.6875-4.9219 13.047 0 9.6719 6.8125 15.234t18.766 5.5625q5.1406 0 10.453-0.9375 5.3281-0.92188 10.891-2.7656z"/>
</defs>
<g transform="translate(1488.3 711.64) rotate(-78.005) scale(.08 -.08)">
<use xlink:href="#as"/>
</g>
</g>
<path d="m1503.4 705.68 0.056903 6.1597q0.02217 2.3999 2.4221 2.3777l7.7422-0.071521q2.3999-0.02217 2.3777-2.4221l-0.056903-6.1597q-0.02217-2.3999-2.4221-2.3777l-7.7422 0.071521q-2.3999 0.02217-2.3777 2.4221z" clip-path="url(#a)" fill="#fff" stroke="#fff"/>
<g clip-path="url(#a)">
<defs>
<path id="am" d="m19.672 64.797v-56.688h11.922q15.094 0 22.094 6.8281 7 6.8438 7 21.594 0 14.641-7 21.453t-22.094 6.8125zm-9.8594 8.1094h20.266q21.188 0 31.094-8.8125 9.9219-8.8125 9.9219-27.562 0-18.859-9.9688-27.703-9.9531-8.8281-31.047-8.8281h-20.266z"/>
</defs>
<g transform="translate(1507.5 705.64) rotate(89.471) scale(.08 -.08)">
<use xlink:href="#am"/>
</g>
</g>
<path d="m1568.9 660.35 4.2945 3.392q1.8834 1.4876 3.371-0.39582l4.799-6.0759q1.4876-1.8834-0.39582-3.371l-4.2945-3.392q-1.8834-1.4876-3.371 0.39582l-4.799 6.0759q-1.4876 1.8834 0.39582 3.371z" clip-path="url(#a)" fill="#fff" stroke="#fff"/>
<g clip-path="url(#a)">
<g transform="translate(1571.4 657.17) rotate(38.303) scale(.08 -.08)">
<use xlink:href="#w"/>
</g>
</g>
<path d="m1412.3 846.48v35.285q0 2.4 2.4 2.4h7.7425q2.4 0 2.4-2.4v-35.285q0-2.4-2.4-2.4h-7.7425q-2.4 0-2.4 2.4z" clip-path="url(#a)" fill="#fff" stroke="#fff"/>
<g clip-path="url(#a)">
<defs>
<path id="l" d="m-0.29688 72.906h61.672v-8.3125h-25.875v-64.594h-9.9062v64.594h-25.891z"/>
<path id="c" d="m56.203 29.594v-4.3906h-41.312q0.59375-9.2812 5.5938-14.141t13.938-4.8594q5.1719 0 10.031 1.2656t9.6562 3.8125v-8.5q-4.8438-2.0469-9.9219-3.125t-10.297-1.0781q-13.094 0-20.734 7.6094-7.6406 7.625-7.6406 20.625 0 13.422 7.25 21.297 7.25 7.8906 19.562 7.8906 11.031 0 17.453-7.1094 6.4219-7.0938 6.4219-19.297zm-8.9844 2.6406q-0.09375 7.3594-4.125 11.75-4.0312 4.4062-10.672 4.4062-7.5156 0-12.031-4.25t-5.2031-11.969z"/>
<path id="g" d="m41.109 46.297q-1.5156 0.875-3.2969 1.2812-1.7812 0.42188-3.9219 0.42188-7.625 0-11.703-4.9531t-4.0781-14.234v-28.812h-9.0312v54.688h9.0312v-8.5q2.8438 4.9844 7.375 7.3906 4.5469 2.4219 11.047 2.4219 0.92188 0 2.0469-0.125 1.125-0.10938 2.4844-0.35938z"/>
<path id="k" d="m52 44.188q3.375 6.0625 8.0625 8.9375t11.031 2.875q8.5469 0 13.188-5.9844 4.6406-5.9688 4.6406-17v-33.016h-9.0312v32.719q0 7.8594-2.7969 11.656-2.7812 3.8125-8.4844 3.8125-6.9844 0-11.047-4.6406-4.0469-4.625-4.0469-12.641v-30.906h-9.0312v32.719q0 7.9062-2.7812 11.688t-8.5938 3.7812q-6.8906 0-10.953-4.6562-4.0469-4.6562-4.0469-12.625v-30.906h-9.0312v54.688h9.0312v-8.5q3.0781 5.0312 7.375 7.4219t10.203 2.3906q5.9688 0 10.141-3.0312 4.1719-3.0156 6.1719-8.7812z"/>
<path id="f" d="m9.4219 54.688h8.9844v-54.688h-8.9844zm0 21.297h8.9844v-11.391h-8.9844z"/>
<path id="d" d="m54.891 33.016v-33.016h-8.9844v32.719q0 7.7656-3.0312 11.609-3.0312 3.8594-9.0781 3.8594-7.2812 0-11.484-4.6406-4.2031-4.625-4.2031-12.641v-30.906h-9.0312v54.688h9.0312v-8.5q3.2344 4.9375 7.5938 7.375 4.375 2.4375 10.094 2.4375 9.4219 0 14.25-5.8281 4.8438-5.8281 4.8438-17.156z"/>
<path id="j" d="m34.281 27.484q-10.891 0-15.094-2.4844t-4.2031-8.5q0-4.7812 3.1562-7.5938 3.1562-2.7969 8.5625-2.7969 7.4844 0 12 5.2969t4.5156 14.078v2zm17.922 3.7188v-31.203h-8.9844v8.2969q-3.0781-4.9688-7.6719-7.3438t-11.234-2.375q-8.3906 0-13.359 4.7188-4.9531 4.7188-4.9531 12.625 0 9.2188 6.1719 13.906 6.1875 4.6875 18.438 4.6875h12.609v0.89062q0 6.2031-4.0781 9.5938t-11.453 3.3906q-4.6875 0-9.1406-1.125-4.4375-1.125-8.5312-3.375v8.3125q4.9219 1.9062 9.5625 2.8438 4.6406 0.95312 9.0312 0.95312 11.875 0 17.734-6.1562 5.8594-6.1406 5.8594-18.641z"/>
<path id="h" d="m9.4219 75.984h8.9844v-75.984h-8.9844z"/>
</defs>
<g transform="translate(1416.4 846.48) rotate(90) scale(.08 -.08)">
<use xlink:href="#l"/>
<use x="60.818359" xlink:href="#c"/>
<use x="122.341797" xlink:href="#g"/>
<use x="163.439453" xlink:href="#k"/>
<use x="260.851562" xlink:href="#f"/>
<use x="288.634766" xlink:href="#d"/>
<use x="352.013672" xlink:href="#j"/>
<use x="413.292969" xlink:href="#h"/>
</g>
</g>
<path d="m1458.4 846.48v35.285q0 2.4 2.4 2.4h7.7425q2.4 0 2.4-2.4v-35.285q0-2.4-2.4-2.4h-7.7425q-2.4 0-2.4 2.4z" clip-path="url(#a)" fill="#fff" stroke="#fff"/>
<g clip-path="url(#a)">
<g transform="translate(1462.4 846.48) rotate(90) scale(.08 -.08)">
<use xlink:href="#l"/>
<use x="60.818359" xlink:href="#c"/>
<use x="122.341797" xlink:href="#g"/>
<use x="163.439453" xlink:href="#k"/>
<use x="260.851562" xlink:href="#f"/>
<use x="288.634766" xlink:href="#d"/>
<use x="352.013672" xlink:href="#j"/>
<use x="413.292969" xlink:href="#h"/>
</g>
</g>
<path d="m1504.4 846.48v35.285q0 2.4 2.4 2.4h7.7425q2.4 0 2.4-2.4v-35.285q0-2.4-2.4-2.4h-7.7425q-2.4 0-2.4 2.4z" clip-path="url(#a)" fill="#fff" stroke="#fff"/>
<g clip-path="url(#a)">
<g transform="translate(1508.5 846.48) rotate(90) scale(.08 -.08)">
<use xlink:href="#l"/>
<use x="60.818359" xlink:href="#c"/>
<use x="122.341797" xlink:href="#g"/>
<use x="163.439453" xlink:href="#k"/>
<use x="260.851562" xlink:href="#f"/>
<use x="288.634766" xlink:href="#d"/>
<use x="352.013672" xlink:href="#j"/>
<use x="413.292969" xlink:href="#h"/>
</g>
</g>
<path d="m1614.2 766.9 3.2215-5.4112q1.2277-2.0622-0.8345-3.2899l-6.6528-3.9606q-2.0622-1.2277-3.2899 0.8345l-3.2215 5.4112q-1.2277 2.0622 0.8345 3.2899l6.6528 3.9606q2.0622 1.2277 3.2899-0.8345z" clip-path="url(#a)" fill="#fff" stroke="#fff"/>
<g clip-path="url(#a)">
<defs>
<path id="y" d="m39.406 66.219q-10.75 0-17.078-8.0156-6.3125-8-6.3125-21.828 0-13.766 6.3125-21.781 6.3281-8 17.078-8 10.734 0 17.016 8 6.2812 8.0156 6.2812 21.781 0 13.828-6.2812 21.828-6.2812 8.0156-17.016 8.0156zm13.812-64.906 13-14.203h-11.922l-10.797 11.672q-1.6094-0.09375-2.4688-0.14062-0.84375-0.0625-1.625-0.0625-15.375 0-24.594 10.281-9.2031 10.281-9.2031 27.516 0 17.281 9.2031 27.562 9.2188 10.281 24.594 10.281 15.328 0 24.5-10.281 9.1875-10.281 9.1875-27.562 0-12.688-5.1094-21.734-5.0938-9.0312-14.766-13.328z"/>
</defs>
<g transform="translate(1610.7 764.82) rotate(-59.233) scale(.08 -.08)">
<use xlink:href="#y"/>
</g>
</g>
<path d="m1638.5 758.67 0.41457 5.5708q0.17811 2.3934 2.5715 2.2153l7.7212-0.57459q2.3934-0.17811 2.2153-2.5715l-0.41457-5.5708q-0.17811-2.3934-2.5715-2.2153l-7.7212 0.57459q-2.3934 0.17811-2.2153 2.5715z" clip-path="url(#a)" fill="#fff" stroke="#fff"/>
<g clip-path="url(#a)">
<defs>
<path id="o" d="m64.406 67.281v-10.391q-4.9844 4.6406-10.625 6.9219-5.6406 2.2969-11.984 2.2969-12.5 0-19.141-7.6406t-6.6406-22.094q0-14.406 6.6406-22.047t19.141-7.6406q6.3438 0 11.984 2.2969t10.625 6.9375v-10.312q-5.1719-3.5156-10.969-5.2812-5.7812-1.75-12.219-1.75-16.562 0-26.094 10.125-9.5156 10.141-9.5156 27.672 0 17.578 9.5156 27.703 9.5312 10.141 26.094 10.141 6.5312 0 12.312-1.7344 5.7969-1.7344 10.875-5.2031z"/>
</defs>
<g transform="translate(1642.6 758.36) rotate(85.744) scale(.08 -.08)">
<use xlink:href="#o"/>
</g>
</g>
<path d="m1661.1 761.29 2.705 5.1927q1.1088 2.1285 3.2373 1.0197l6.8667-3.577q2.1285-1.1088 1.0197-3.2373l-2.705-5.1927q-1.1088-2.1285-3.2373-1.0197l-6.8667 3.577q-2.1285 1.1088-1.0197 3.2373z" clip-path="url(#a)" fill="#fff" stroke="#fff"/>
<g clip-path="url(#a)">
<g transform="translate(1664.7 759.41) rotate(62.484) scale(.08 -.08)">
<use xlink:href="#t"/>
</g>
</g>
<path d="m1570.5 882.71 7.6882-34.437q0.52293-2.3423-1.8194-2.8653l-7.5565-1.687q-2.3423-0.52293-2.8653 1.8194l-7.6882 34.437q-0.52293 2.3423 1.8194 2.8653l7.5565 1.687q2.3423 0.52293 2.8653-1.8194z" clip-path="url(#a)" fill="#fff" stroke="#fff"/>
<g clip-path="url(#a)">
<g transform="translate(1566.5 881.82) rotate(-77.415) scale(.08 -.08)">
<use xlink:href="#l"/>
<use x="60.818359" xlink:href="#c"/>
<use x="122.341797" xlink:href="#g"/>
<use x="163.439453" xlink:href="#k"/>
<use x="260.851562" xlink:href="#f"/>
<use x="288.634766" xlink:href="#d"/>
<use x="352.013672" xlink:href="#j"/>
<use x="413.292969" xlink:href="#h"/>
</g>
</g>
<path d="m1581.3 848.27 7.6882 34.437q0.52293 2.3423 2.8653 1.8194l7.5565-1.687q2.3423-0.52293 1.8194-2.8653l-7.6882-34.437q-0.52293-2.3423-2.8653-1.8194l-7.5565 1.687q-2.3423 0.52293-1.8194 2.8653z" clip-path="url(#a)" fill="#fff" stroke="#fff"/>
<g clip-path="url(#a)">
<g transform="translate(1585.3 847.39) rotate(77.415) scale(.08 -.08)">
<use xlink:href="#l"/>
<use x="60.818359" xlink:href="#c"/>
<use x="122.341797" xlink:href="#g"/>
<use x="163.439453" xlink:href="#k"/>
<use x="260.851562" xlink:href="#f"/>
<use x="288.634766" xlink:href="#d"/>
<use x="352.013672" xlink:href="#j"/>
<use x="413.292969" xlink:href="#h"/>
</g>
</g>
<path d="m1642.6 846.48v35.285q0 2.4 2.4 2.4h7.7425q2.4 0 2.4-2.4v-35.285q0-2.4-2.4-2.4h-7.7425q-2.4 0-2.4 2.4z" clip-path="url(#a)" fill="#fff" stroke="#fff"/>
<g clip-path="url(#a)">
<g transform="translate(1646.6 846.48) rotate(90) scale(.08 -.08)">
<use xlink:href="#l"/>
<use x="60.818359" xlink:href="#c"/>
<use x="122.341797" xlink:href="#g"/>
<use x="163.439453" xlink:href="#k"/>
<use x="260.851562" xlink:href="#f"/>
<use x="288.634766" xlink:href="#d"/>
<use x="352.013672" xlink:href="#j"/>
<use x="413.292969" xlink:href="#h"/>
</g>
</g>
<path d="m76.795 846.48v35.285q0 2.4 2.4 2.4h7.7425q2.4 0 2.4-2.4v-35.285q0-2.4-2.4-2.4h-7.7425q-2.4 0-2.4 2.4z" clip-path="url(#a)" fill="#fff" stroke="#fff"/>
<g clip-path="url(#a)">
<g transform="translate(80.859 846.48) rotate(90) scale(.08 -.08)">
<use xlink:href="#l"/>
<use x="60.818359" xlink:href="#c"/>
<use x="122.341797" xlink:href="#g"/>
<use x="163.439453" xlink:href="#k"/>
<use x="260.851562" xlink:href="#f"/>
<use x="288.634766" xlink:href="#d"/>
<use x="352.013672" xlink:href="#j"/>
<use x="413.292969" xlink:href="#h"/>
</g>
</g>
<path d="m122.85 846.48v35.285q0 2.4 2.4 2.4h7.7425q2.4 0 2.4-2.4v-35.285q0-2.4-2.4-2.4h-7.7425q-2.4 0-2.4 2.4z" clip-path="url(#a)" fill="#fff" stroke="#fff"/>
<g clip-path="url(#a)">
<g transform="translate(126.91 846.48) rotate(90) scale(.08 -.08)">
<use xlink:href="#l"/>
<use x="60.818359" xlink:href="#c"/>
<use x="122.341797" xlink:href="#g"/>
<use x="163.439453" xlink:href="#k"/>
<use x="260.851562" xlink:href="#f"/>
<use x="288.634766" xlink:href="#d"/>
<use x="352.013672" xlink:href="#j"/>
<use x="413.292969" xlink:href="#h"/>
</g>
</g>
<path d="m168.9 846.48v35.285q0 2.4 2.4 2.4h7.7425q2.4 0 2.4-2.4v-35.285q0-2.4-2.4-2.4h-7.7425q-2.4 0-2.4 2.4z" clip-path="url(#a)" fill="#fff" stroke="#fff"/>
<g clip-path="url(#a)">
<g transform="translate(172.96 846.48) rotate(90) scale(.08 -.08)">
<use xlink:href="#l"/>
<use x="60.818359" xlink:href="#c"/>
<use x="122.341797" xlink:href="#g"/>
<use x="163.439453" xlink:href="#k"/>
<use x="260.851562" xlink:href="#f"/>
<use x="288.634766" xlink:href="#d"/>
<use x="352.013672" xlink:href="#j"/>
<use x="413.292969" xlink:href="#h"/>
</g>
</g>
<path d="m605.71 340.03 5.4818-1.0754q2.3551-0.46201 1.8931-2.8171l-1.4905-7.5977q-0.46201-2.3551-2.8171-1.8931l-5.4818 1.0754q-2.3551 0.46201-1.8931 2.8171l1.4905 7.5977q0.46201 2.3551 2.8171 1.8931z" clip-path="url(#a)" fill="#fff" stroke="#fff"/>
<g clip-path="url(#a)">
<g transform="translate(604.93 336.05) rotate(-11.099) scale(.08 -.08)">
<use xlink:href="#o"/>
</g>
</g>
<path d="m850.05 497.51 1.2036-5.4551q0.51708-2.3436-1.8266-2.8607l-7.5607-1.6681q-2.3436-0.51708-2.8607 1.8266l-1.2036 5.4551q-0.51708 2.3436 1.8266 2.8607l7.5607 1.6681q2.3436 0.51708 2.8607-1.8266z" clip-path="url(#a)" fill="#fff" stroke="#fff"/>
<g clip-path="url(#a)">
<g transform="translate(846.08 496.63) rotate(-77.558) scale(.08 -.08)">
<use xlink:href="#o"/>
</g>
</g>
<path d="m907.08 491.27 0.55143 5.559q0.23691 2.3883 2.6252 2.1514l7.7047-0.76428q2.3883-0.23691 2.1514-2.6252l-0.55143-5.559q-0.23691-2.3883-2.6252-2.1514l-7.7047 0.76428q-2.3883 0.23691-2.1514 2.6252z" clip-path="url(#a)" fill="#fff" stroke="#fff"/>
<g clip-path="url(#a)">
<g transform="translate(911.13 490.87) rotate(84.335) scale(.08 -.08)">
<use xlink:href="#o"/>
</g>
</g>
<path d="m993.09 493.73 2.4942 4.9985q1.0716 2.1475 3.2191 1.0759l6.9279-3.4569q2.1475-1.0716 1.0759-3.2191l-2.4942-4.9985q-1.0716-2.1475-3.2191-1.0759l-6.9279 3.4569q-2.1475 1.0716-1.0759 3.2191z" clip-path="url(#a)" fill="#fff" stroke="#fff"/>
<g clip-path="url(#a)">
<g transform="translate(996.73 491.92) rotate(63.482) scale(.08 -.08)">
<use xlink:href="#o"/>
</g>
</g>
<path d="m1085.6 495.64 3.7942 4.1q1.6301 1.7615 3.3916 0.13137l5.6826-5.2588q1.7615-1.6301 0.13137-3.3916l-3.7942-4.1q-1.6301-1.7615-3.3916-0.13137l-5.6826 5.2588q-1.7615 1.6301-0.13137 3.3916z" clip-path="url(#a)" fill="#fff" stroke="#fff"/>
<g clip-path="url(#a)">
<g transform="translate(1088.5 492.88) rotate(47.218) scale(.08 -.08)">
<use xlink:href="#o"/>
</g>
</g>
<path d="m791.72 550.02 2.1428-5.4488q0.87834-2.2335-1.3552-3.1118l-7.2054-2.8336q-2.2335-0.87834-3.1118 1.3552l-2.1428 5.4488q-0.87834 2.2335 1.3552 3.1118l7.2054 2.8336q2.2335 0.87834 3.1118-1.3552z" clip-path="url(#a)" fill="#fff" stroke="#fff"/>
<g clip-path="url(#a)">
<g transform="translate(787.94 548.53) rotate(-68.532) scale(.08 -.08)">
<use xlink:href="#t"/>
</g>
</g>
<path d="m815.12 549.64 1.7193-5.5969q0.70477-2.2942-1.5894-2.999l-7.4011-2.2736q-2.2942-0.70477-2.999 1.5894l-1.7193 5.5969q-0.70477 2.2942 1.5894 2.999l7.4011 2.2736q2.2942 0.70477 2.999-1.5894z" clip-path="url(#a)" fill="#fff" stroke="#fff"/>
<g clip-path="url(#a)">
<g transform="translate(811.23 548.45) rotate(-72.923) scale(.08 -.08)">
<use xlink:href="#t"/>
</g>
</g>
<path d="m885.18 548.23 0.28664-5.848q0.11749-2.3971-2.2796-2.5146l-7.7332-0.37904q-2.3971-0.11749-2.5146 2.2796l-0.28664 5.848q-0.11749 2.3971 2.2796 2.5146l7.7332 0.37904q2.3971 0.11749 2.5146-2.2796z" clip-path="url(#a)" fill="#fff" stroke="#fff"/>
<g clip-path="url(#a)">
<g transform="translate(881.12 548.03) rotate(-87.194) scale(.08 -.08)">
<use xlink:href="#t"/>
</g>
</g>
<path d="m941.4 543.42 1.1987 5.731q0.49137 2.3492 2.8405 1.8578l7.5785-1.5852q2.3492-0.49137 1.8578-2.8405l-1.1987-5.731q-0.49137-2.3492-2.8405-1.8578l-7.5785 1.5852q-2.3492 0.49137-1.8578 2.8405z" clip-path="url(#a)" fill="#fff" stroke="#fff"/>
<g clip-path="url(#a)">
<g transform="translate(945.38 542.59) rotate(78.186) scale(.08 -.08)">
<use xlink:href="#t"/>
</g>
</g>
<path d="m1033.3 545.48 2.835 5.1228q1.1621 2.0999 3.262 0.93778l6.7743-3.749q2.0999-1.1621 0.93778-3.262l-2.835-5.1228q-1.1621-2.0999-3.262-0.93778l-6.7743 3.749q-2.0999 1.1621-0.93778 3.262z" clip-path="url(#a)" fill="#fff" stroke="#fff"/>
<g clip-path="url(#a)">
<g transform="translate(1036.9 543.51) rotate(61.039) scale(.08 -.08)">
<use xlink:href="#t"/>
</g>
</g>
<path d="m277.14 605.42 1.4629-6.1252q0.5575-2.3344-1.7769-2.8919l-7.5307-1.7985q-2.3344-0.5575-2.8919 1.7769l-1.4629 6.1252q-0.5575 2.3344 1.7769 2.8919l7.5307 1.7985q2.3344 0.5575 2.8919-1.7769z" clip-path="url(#a)" fill="#fff" stroke="#fff"/>
<g clip-path="url(#a)">
<g transform="translate(273.19 604.47) rotate(-76.568) scale(.08 -.08)">
<use xlink:href="#y"/>
</g>
</g>
<path d="m300.66 604.47 0.72035-5.5396q0.30948-2.38-2.0705-2.6894l-7.6779-0.9984q-2.38-0.30948-2.6894 2.0705l-0.72035 5.5396q-0.30948 2.38 2.0705 2.6894l7.6779 0.9984q2.38 0.30948 2.6894-2.0705z" clip-path="url(#a)" fill="#fff" stroke="#fff"/>
<g clip-path="url(#a)">
<g transform="translate(296.63 603.95) rotate(-82.591) scale(.08 -.08)">
<use xlink:href="#o"/>
</g>
</g>
<path d="m399.33 447.59 4.2187 2.7849q2.0029 1.3222 3.3252-0.6807l4.2656-6.4615q1.3222-2.0029-0.6807-3.3252l-4.2187-2.7849q-2.0029-1.3222-3.3252 0.6807l-4.2656 6.4615q-1.3222 2.0029 0.6807 3.3252z" clip-path="url(#a)" fill="#fff" stroke="#fff"/>
<g clip-path="url(#a)">
<defs>
<path id="ar" d="m9.8125 72.906h46.094v-8.3125h-36.234v-21.578h34.719v-8.2969h-34.719v-26.422h37.109v-8.2969h-46.969z"/>
</defs>
<g transform="translate(401.56 444.2) rotate(33.431) scale(.08 -.08)">
<use xlink:href="#ar"/>
</g>
</g>
<path d="m324.03 603.96 0.12438-5.8537q0.050983-2.3995-2.3485-2.4504l-7.7408-0.16447q-2.3995-0.050983-2.4504 2.3485l-0.12438 5.8537q-0.050983 2.3995 2.3485 2.4504l7.7408 0.16447q2.3995 0.050983 2.4504-2.3485z" clip-path="url(#a)" fill="#fff" stroke="#fff"/>
<g clip-path="url(#a)">
<g transform="translate(319.97 603.87) rotate(-88.783) scale(.08 -.08)">
<use xlink:href="#t"/>
</g>
</g>
<path d="m790.79 765.42 1.3721-6.1462q0.52293-2.3423-1.8194-2.8653l-7.5565-1.687q-2.3423-0.52293-2.8653 1.8194l-1.3721 6.1462q-0.52293 2.3423 1.8194 2.8653l7.5565 1.687q2.3423 0.52293 2.8653-1.8194z" clip-path="url(#a)" fill="#fff" stroke="#fff"/>
<g clip-path="url(#a)">
<g transform="translate(786.83 764.54) rotate(-77.415) scale(.08 -.08)">
<use xlink:href="#y"/>
</g>
</g>
<path d="m801.65 759.63 1.2172 5.452q0.52293 2.3423 2.8653 1.8194l7.5565-1.687q2.3423-0.52293 1.8194-2.8653l-1.2172-5.452q-0.52293-2.3423-2.8653-1.8194l-7.5565 1.687q-2.3423 0.52293-1.8194 2.8653z" clip-path="url(#a)" fill="#fff" stroke="#fff"/>
<g clip-path="url(#a)">
<g transform="translate(805.62 758.74) rotate(77.415) scale(.08 -.08)">
<use xlink:href="#o"/>
</g>
</g>
<path d="m928.95 765.42 1.3721-6.1462q0.52293-2.3423-1.8194-2.8653l-7.5565-1.687q-2.3423-0.52293-2.8653 1.8194l-1.3721 6.1462q-0.52293 2.3423 1.8194 2.8653l7.5565 1.687q2.3423 0.52293 2.8653-1.8194z" clip-path="url(#a)" fill="#fff" stroke="#fff"/>
<g clip-path="url(#a)">
<g transform="translate(924.98 764.54) rotate(-77.415) scale(.08 -.08)">
<use xlink:href="#y"/>
</g>
</g>
<path d="m939.81 759.63 1.2172 5.452q0.52293 2.3423 2.8653 1.8194l7.5565-1.687q2.3423-0.52293 1.8194-2.8653l-1.2172-5.452q-0.52293-2.3423-2.8653-1.8194l-7.5565 1.687q-2.3423 0.52293-1.8194 2.8653z" clip-path="url(#a)" fill="#fff" stroke="#fff"/>
<g clip-path="url(#a)">
<g transform="translate(943.78 758.74) rotate(77.415) scale(.08 -.08)">
<use xlink:href="#o"/>
</g>
</g>
<path d="m1095.4 765.96 1.9997-5.9716q0.76211-2.2758-1.5137-3.0379l-7.3418-2.4586q-2.2758-0.76211-3.0379 1.5137l-1.9997 5.9716q-0.76211 2.2758 1.5137 3.0379l7.3418 2.4586q2.2758 0.76211 3.0379-1.5137z" clip-path="url(#a)" fill="#fff" stroke="#fff"/>
<g clip-path="url(#a)">
<g transform="translate(1091.5 764.67) rotate(-71.485) scale(.08 -.08)">
<use xlink:href="#y"/>
</g>
</g>
<path d="m1118.2 760.33 1.7739 5.2971q0.76211 2.2758 3.0379 1.5137l7.3418-2.4586q2.2758-0.76211 1.5137-3.0379l-1.7739-5.2971q-0.76211-2.2758-3.0379-1.5137l-7.3418 2.4586q-2.2758 0.76211-1.5137 3.0379z" clip-path="url(#a)" fill="#fff" stroke="#fff"/>
<g clip-path="url(#a)">
<g transform="translate(1122 759.04) rotate(71.485) scale(.08 -.08)">
<use xlink:href="#o"/>
</g>
</g>
<path d="m1279.6 765.96 1.9997-5.9716q0.76211-2.2758-1.5137-3.0379l-7.3418-2.4586q-2.2758-0.76211-3.0379 1.5137l-1.9997 5.9716q-0.76211 2.2758 1.5137 3.0379l7.3418 2.4586q2.2758 0.76211 3.0379-1.5137z" clip-path="url(#a)" fill="#fff" stroke="#fff"/>
<g clip-path="url(#a)">
<g transform="translate(1275.8 764.67) rotate(-71.485) scale(.08 -.08)">
<use xlink:href="#y"/>
</g>
</g>
<path d="m1302.4 760.33 1.7739 5.2971q0.76211 2.2758 3.0379 1.5137l7.3418-2.4586q2.2758-0.76211 1.5137-3.0379l-1.7739-5.2971q-0.76211-2.2758-3.0379-1.5137l-7.3418 2.4586q-2.2758 0.76211-1.5137 3.0379z" clip-path="url(#a)" fill="#fff" stroke="#fff"/>
<g clip-path="url(#a)">
<g transform="translate(1306.2 759.04) rotate(71.485) scale(.08 -.08)">
<use xlink:href="#o"/>
</g>
</g>
<path d="m1248.2 882.71 7.6882-34.437q0.52293-2.3423-1.8194-2.8653l-7.5565-1.687q-2.3423-0.52293-2.8653 1.8194l-7.6882 34.437q-0.52293 2.3423 1.8194 2.8653l7.5565 1.687q2.3423 0.52293 2.8653-1.8194z" clip-path="url(#a)" fill="#fff" stroke="#fff"/>
<g clip-path="url(#a)">
<g transform="translate(1244.2 881.82) rotate(-77.415) scale(.08 -.08)">
<use xlink:href="#l"/>
<use x="60.818359" xlink:href="#c"/>
<use x="122.341797" xlink:href="#g"/>
<use x="163.439453" xlink:href="#k"/>
<use x="260.851562" xlink:href="#f"/>
<use x="288.634766" xlink:href="#d"/>
<use x="352.013672" xlink:href="#j"/>
<use x="413.292969" xlink:href="#h"/>
</g>
</g>
<path d="m1258.9 848.27 7.6882 34.437q0.52293 2.3423 2.8653 1.8194l7.5565-1.687q2.3423-0.52293 1.8194-2.8653l-7.6882-34.437q-0.52293-2.3423-2.8653-1.8194l-7.5565 1.687q-2.3423 0.52293-1.8194 2.8653z" clip-path="url(#a)" fill="#fff" stroke="#fff"/>
<g clip-path="url(#a)">
<g transform="translate(1262.9 847.39) rotate(77.415) scale(.08 -.08)">
<use xlink:href="#l"/>
<use x="60.818359" xlink:href="#c"/>
<use x="122.341797" xlink:href="#g"/>
<use x="163.439453" xlink:href="#k"/>
<use x="260.851562" xlink:href="#f"/>
<use x="288.634766" xlink:href="#d"/>
<use x="352.013672" xlink:href="#j"/>
<use x="413.292969" xlink:href="#h"/>
</g>
</g>
<path d="m1320.2 846.48v35.285q0 2.4 2.4 2.4h7.7425q2.4 0 2.4-2.4v-35.285q0-2.4-2.4-2.4h-7.7425q-2.4 0-2.4 2.4z" clip-path="url(#a)" fill="#fff" stroke="#fff"/>
<g clip-path="url(#a)">
<g transform="translate(1324.3 846.48) rotate(90) scale(.08 -.08)">
<use xlink:href="#l"/>
<use x="60.818359" xlink:href="#c"/>
<use x="122.341797" xlink:href="#g"/>
<use x="163.439453" xlink:href="#k"/>
<use x="260.851562" xlink:href="#f"/>
<use x="288.634766" xlink:href="#d"/>
<use x="352.013672" xlink:href="#j"/>
<use x="413.292969" xlink:href="#h"/>
</g>
</g>
<path d="m1063.9 882.71 7.6882-34.437q0.52293-2.3423-1.8194-2.8653l-7.5565-1.687q-2.3423-0.52293-2.8653 1.8194l-7.6882 34.437q-0.52293 2.3423 1.8194 2.8653l7.5565 1.687q2.3423 0.52293 2.8653-1.8194z" clip-path="url(#a)" fill="#fff" stroke="#fff"/>
<g clip-path="url(#a)">
<g transform="translate(1060 881.82) rotate(-77.415) scale(.08 -.08)">
<use xlink:href="#l"/>
<use x="60.818359" xlink:href="#c"/>
<use x="122.341797" xlink:href="#g"/>
<use x="163.439453" xlink:href="#k"/>
<use x="260.851562" xlink:href="#f"/>
<use x="288.634766" xlink:href="#d"/>
<use x="352.013672" xlink:href="#j"/>
<use x="413.292969" xlink:href="#h"/>
</g>
</g>
<path d="m1074.7 848.27 7.6882 34.437q0.52293 2.3423 2.8653 1.8194l7.5565-1.687q2.3423-0.52293 1.8194-2.8653l-7.6882-34.437q-0.52293-2.3423-2.8653-1.8194l-7.5565 1.687q-2.3423 0.52293-1.8194 2.8653z" clip-path="url(#a)" fill="#fff" stroke="#fff"/>
<g clip-path="url(#a)">
<g transform="translate(1078.7 847.39) rotate(77.415) scale(.08 -.08)">
<use xlink:href="#l"/>
<use x="60.818359" xlink:href="#c"/>
<use x="122.341797" xlink:href="#g"/>
<use x="163.439453" xlink:href="#k"/>
<use x="260.851562" xlink:href="#f"/>
<use x="288.634766" xlink:href="#d"/>
<use x="352.013672" xlink:href="#j"/>
<use x="413.292969" xlink:href="#h"/>
</g>
</g>
<path d="m1136 846.48v35.285q0 2.4 2.4 2.4h7.7425q2.4 0 2.4-2.4v-35.285q0-2.4-2.4-2.4h-7.7425q-2.4 0-2.4 2.4z" clip-path="url(#a)" fill="#fff" stroke="#fff"/>
<g clip-path="url(#a)">
<g transform="translate(1140.1 846.48) rotate(90) scale(.08 -.08)">
<use xlink:href="#l"/>
<use x="60.818359" xlink:href="#c"/>
<use x="122.341797" xlink:href="#g"/>
<use x="163.439453" xlink:href="#k"/>
<use x="260.851562" xlink:href="#f"/>
<use x="288.634766" xlink:href="#d"/>
<use x="352.013672" xlink:href="#j"/>
<use x="413.292969" xlink:href="#h"/>
</g>
</g>
<path d="m905.73 846.48v35.285q0 2.4 2.4 2.4h7.7425q2.4 0 2.4-2.4v-35.285q0-2.4-2.4-2.4h-7.7425q-2.4 0-2.4 2.4z" clip-path="url(#a)" fill="#fff" stroke="#fff"/>
<g clip-path="url(#a)">
<g transform="translate(909.79 846.48) rotate(90) scale(.08 -.08)">
<use xlink:href="#l"/>
<use x="60.818359" xlink:href="#c"/>
<use x="122.341797" xlink:href="#g"/>
<use x="163.439453" xlink:href="#k"/>
<use x="260.851562" xlink:href="#f"/>
<use x="288.634766" xlink:href="#d"/>
<use x="352.013672" xlink:href="#j"/>
<use x="413.292969" xlink:href="#h"/>
</g>
</g>
<path d="m951.78 846.48v35.285q0 2.4 2.4 2.4h7.7425q2.4 0 2.4-2.4v-35.285q0-2.4-2.4-2.4h-7.7425q-2.4 0-2.4 2.4z" clip-path="url(#a)" fill="#fff" stroke="#fff"/>
<g clip-path="url(#a)">
<g transform="translate(955.84 846.48) rotate(90) scale(.08 -.08)">
<use xlink:href="#l"/>
<use x="60.818359" xlink:href="#c"/>
<use x="122.341797" xlink:href="#g"/>
<use x="163.439453" xlink:href="#k"/>
<use x="260.851562" xlink:href="#f"/>
<use x="288.634766" xlink:href="#d"/>
<use x="352.013672" xlink:href="#j"/>
<use x="413.292969" xlink:href="#h"/>
</g>
</g>
<path d="m767.57 846.48v35.285q0 2.4 2.4 2.4h7.7425q2.4 0 2.4-2.4v-35.285q0-2.4-2.4-2.4h-7.7425q-2.4 0-2.4 2.4z" clip-path="url(#a)" fill="#fff" stroke="#fff"/>
<g clip-path="url(#a)">
<g transform="translate(771.64 846.48) rotate(90) scale(.08 -.08)">
<use xlink:href="#l"/>
<use x="60.818359" xlink:href="#c"/>
<use x="122.341797" xlink:href="#g"/>
<use x="163.439453" xlink:href="#k"/>
<use x="260.851562" xlink:href="#f"/>
<use x="288.634766" xlink:href="#d"/>
<use x="352.013672" xlink:href="#j"/>
<use x="413.292969" xlink:href="#h"/>
</g>
</g>
<path d="m813.63 846.48v35.285q0 2.4 2.4 2.4h7.7425q2.4 0 2.4-2.4v-35.285q0-2.4-2.4-2.4h-7.7425q-2.4 0-2.4 2.4z" clip-path="url(#a)" fill="#fff" stroke="#fff"/>
<g clip-path="url(#a)">
<g transform="translate(817.69 846.48) rotate(90) scale(.08 -.08)">
<use xlink:href="#l"/>
<use x="60.818359" xlink:href="#c"/>
<use x="122.341797" xlink:href="#g"/>
<use x="163.439453" xlink:href="#k"/>
<use x="260.851562" xlink:href="#f"/>
<use x="288.634766" xlink:href="#d"/>
<use x="352.013672" xlink:href="#j"/>
<use x="413.292969" xlink:href="#h"/>
</g>
</g>
<path d="m214.95 846.48v35.285q0 2.4 2.4 2.4h7.7425q2.4 0 2.4-2.4v-35.285q0-2.4-2.4-2.4h-7.7425q-2.4 0-2.4 2.4z" clip-path="url(#a)" fill="#fff" stroke="#fff"/>
<g clip-path="url(#a)">
<g transform="translate(219.01 846.48) rotate(90) scale(.08 -.08)">
<use xlink:href="#l"/>
<use x="60.818359" xlink:href="#c"/>
<use x="122.341797" xlink:href="#g"/>
<use x="163.439453" xlink:href="#k"/>
<use x="260.851562" xlink:href="#f"/>
<use x="288.634766" xlink:href="#d"/>
<use x="352.013672" xlink:href="#j"/>
<use x="413.292969" xlink:href="#h"/>
</g>
</g>
<path d="m261 846.48v35.285q0 2.4 2.4 2.4h7.7425q2.4 0 2.4-2.4v-35.285q0-2.4-2.4-2.4h-7.7425q-2.4 0-2.4 2.4z" clip-path="url(#a)" fill="#fff" stroke="#fff"/>
<g clip-path="url(#a)">
<g transform="translate(265.07 846.48) rotate(90) scale(.08 -.08)">
<use xlink:href="#l"/>
<use x="60.818359" xlink:href="#c"/>
<use x="122.341797" xlink:href="#g"/>
<use x="163.439453" xlink:href="#k"/>
<use x="260.851562" xlink:href="#f"/>
<use x="288.634766" xlink:href="#d"/>
<use x="352.013672" xlink:href="#j"/>
<use x="413.292969" xlink:href="#h"/>
</g>
</g>
<path d="m367.69 610.54 4.5429-3.9443q1.8123-1.5734 0.23882-3.3857l-5.076-5.8464q-1.5734-1.8123-3.3857-0.23882l-4.5429 3.9443q-1.8123 1.5734-0.23882 3.3857l5.076 5.8464q1.5734 1.8123 3.3857 0.23882z" clip-path="url(#a)" fill="#fff" stroke="#fff"/>
<g clip-path="url(#a)">
<g transform="translate(365.03 607.47) rotate(-40.965) scale(.08 -.08)">
<use xlink:href="#al"/>
</g>
</g>
<path d="m486.16 653.38 0.1428 4.4552q0.076885 2.3988 2.4757 2.3219l7.7385-0.24803q2.3988-0.076885 2.3219-2.4757l-0.1428-4.4552q-0.076885-2.3988-2.4757-2.3219l-7.7385 0.24803q-2.3988 0.076884-2.3219 2.4757z" clip-path="url(#a)" fill="#fff" stroke="#fff"/>
<g clip-path="url(#a)">
<defs>
<path id="at" d="m9.8125 72.906h9.8594v-64.609h35.5v-8.2969h-45.359z"/>
</defs>
<g transform="translate(490.22 653.25) rotate(88.164) scale(.08 -.08)">
<use xlink:href="#at"/>
</g>
</g>
<path d="m616.91 556.27 5.5935 2.2154q2.2314 0.88376 3.1151-1.3476l2.8511-7.1985q0.88376-2.2314-1.3476-3.1151l-5.5935-2.2154q-2.2314-0.88376-3.1151 1.3476l-2.8511 7.1985q-0.88376 2.2314 1.3476 3.1151z" clip-path="url(#a)" fill="#fff" stroke="#fff"/>
<g clip-path="url(#a)">
<g transform="translate(618.41 552.49) rotate(21.607) scale(.08 -.08)">
<use xlink:href="#al"/>
</g>
</g>
<path d="m475.37 659.03 0.66587-5.817q0.27295-2.3844-2.1115-2.6574l-7.6923-0.88054q-2.3844-0.27295-2.6574 2.1115l-0.66587 5.817q-0.27295 2.3844 2.1115 2.6574l7.6923 0.88054q2.3844 0.27295 2.6574-2.1115z" clip-path="url(#a)" fill="#fff" stroke="#fff"/>
<g clip-path="url(#a)">
<g transform="translate(471.33 658.56) rotate(-83.47) scale(.08 -.08)">
<use xlink:href="#t"/>
</g>
</g>
<path d="m164.73 767.74 4.6096-2.9496q2.0215-1.2936 0.72797-3.3151l-4.1731-6.5216q-1.2936-2.0215-3.3151-0.72797l-4.6096 2.9496q-2.0215 1.2936-0.72797 3.3151l4.1731 6.5216q1.2936 2.0215 3.3151 0.72797z" clip-path="url(#a)" fill="#fff" stroke="#fff"/>
<g clip-path="url(#a)">
<g transform="translate(162.54 764.32) rotate(-32.615) scale(.08 -.08)">
<use xlink:href="#w"/>
</g>
</g>
<path d="m189.07 767.27 3.5929-3.2187q1.7876-1.6014 0.18617-3.389l-5.1662-5.7668q-1.6014-1.7876-3.389-0.18618l-3.5929 3.2187q-1.7876 1.6014-0.18618 3.389l5.1662 5.7668q1.6014 1.7876 3.389 0.18618z" clip-path="url(#a)" fill="#fff" stroke="#fff"/>
<g clip-path="url(#a)">
<g transform="translate(186.36 764.24) rotate(-41.856) scale(.08 -.08)">
<use xlink:href="#ak"/>
</g>
</g>
<path d="m295.33 763.6 4.5881 4.1103q1.7876 1.6014 3.389-0.18618l5.1662-5.7668q1.6014-1.7876-0.18618-3.389l-4.5881-4.1103q-1.7876-1.6014-3.389 0.18618l-5.1662 5.7668q-1.6014 1.7876 0.18618 3.389z" clip-path="url(#a)" fill="#fff" stroke="#fff"/>
<g clip-path="url(#a)">
<g transform="translate(298.05 760.57) rotate(41.856) scale(.08 -.08)">
<use xlink:href="#am"/>
</g>
</g>
<path d="m318.86 764.61 5.1886 3.3202q2.0215 1.2936 3.3151-0.72797l4.1731-6.5216q1.2936-2.0215-0.72797-3.3151l-5.1886-3.3202q-2.0215-1.2936-3.3151 0.72797l-4.1731 6.5216q-1.2936 2.0215 0.72797 3.3151z" clip-path="url(#a)" fill="#fff" stroke="#fff"/>
<g clip-path="url(#a)">
<g transform="translate(321.05 761.18) rotate(32.615) scale(.08 -.08)">
<use xlink:href="#am"/>
</g>
</g>
<path d="m491.26 846.48v35.285q0 2.4 2.4 2.4h7.7425q2.4 0 2.4-2.4v-35.285q0-2.4-2.4-2.4h-7.7425q-2.4 0-2.4 2.4z" clip-path="url(#a)" fill="#fff" stroke="#fff"/>
<g clip-path="url(#a)">
<g transform="translate(495.33 846.48) rotate(90) scale(.08 -.08)">
<use xlink:href="#l"/>
<use x="60.818359" xlink:href="#c"/>
<use x="122.341797" xlink:href="#g"/>
<use x="163.439453" xlink:href="#k"/>
<use x="260.851562" xlink:href="#f"/>
<use x="288.634766" xlink:href="#d"/>
<use x="352.013672" xlink:href="#j"/>
<use x="413.292969" xlink:href="#h"/>
</g>
</g>
<path d="m419.05 715.5 5.2295-1.6128q2.2934-0.7073 1.5861-3.0007l-2.2818-7.3986q-0.7073-2.2934-3.0007-1.5861l-5.2295 1.6128q-2.2934 0.7073-1.5861 3.0007l2.2818 7.3986q0.7073 2.2934 3.0007 1.5861z" clip-path="url(#a)" fill="#fff" stroke="#fff"/>
<g clip-path="url(#a)">
<g transform="translate(417.86 711.61) rotate(-17.14) scale(.08 -.08)">
<use xlink:href="#w"/>
</g>
</g>
<path d="m1243.9 765.32 5.8741 1.855q2.2886 0.72272 3.0113-1.5659l2.3315-7.3831q0.72272-2.2886-1.5659-3.0113l-5.8741-1.855q-2.2886-0.72272-3.0113 1.5659l-2.3315 7.3831q-0.72272 2.2886 1.5659 3.0113z" clip-path="url(#a)" fill="#fff" stroke="#fff"/>
<g clip-path="url(#a)">
<g transform="translate(1245.2 761.45) rotate(17.526) scale(.08 -.08)">
<use xlink:href="#am"/>
</g>
</g>
<path d="m662.22 663.94 4.7941-2.6391q2.1025-1.1574 0.94508-3.2599l-3.7338-6.7827q-1.1574-2.1025-3.2599-0.94508l-4.7941 2.6391q-2.1025 1.1574-0.94508 3.2599l3.7338 6.7827q1.1574 2.1025 3.2599 0.94508z" clip-path="url(#a)" fill="#fff" stroke="#fff"/>
<g clip-path="url(#a)">
<g transform="translate(660.26 660.38) rotate(-28.832) scale(.08 -.08)">
<use xlink:href="#w"/>
</g>
</g>
<path d="m700.34 713.94 2.4264-4.1691q1.2072-2.0743-0.86708-3.2815l-6.6917-3.8945q-2.0743-1.2072-3.2815 0.86708l-2.4264 4.1691q-1.2072 2.0743 0.86708 3.2815l6.6917 3.8945q2.0743 1.2072 3.2815-0.86708z" clip-path="url(#a)" fill="#fff" stroke="#fff"/>
<g clip-path="url(#a)">
<g transform="translate(696.83 711.89) rotate(-59.801) scale(.08 -.08)">
<use xlink:href="#ak"/>
</g>
</g>
<path d="m307.05 846.48v35.285q0 2.4 2.4 2.4h7.7425q2.4 0 2.4-2.4v-35.285q0-2.4-2.4-2.4h-7.7425q-2.4 0-2.4 2.4z" clip-path="url(#a)" fill="#fff" stroke="#fff"/>
<g clip-path="url(#a)">
<g transform="translate(311.12 846.48) rotate(90) scale(.08 -.08)">
<use xlink:href="#l"/>
<use x="60.818359" xlink:href="#c"/>
<use x="122.341797" xlink:href="#g"/>
<use x="163.439453" xlink:href="#k"/>
<use x="260.851562" xlink:href="#f"/>
<use x="288.634766" xlink:href="#d"/>
<use x="352.013672" xlink:href="#j"/>
<use x="413.292969" xlink:href="#h"/>
</g>
</g>
<path d="m560.72 764.6 1.0026-4.4907q0.52293-2.3423-1.8194-2.8653l-7.5565-1.687q-2.3423-0.52293-2.8653 1.8194l-1.0026 4.4907q-0.52293 2.3423 1.8194 2.8653l7.5565 1.687q2.3423 0.52293 2.8653-1.8194z" clip-path="url(#a)" fill="#fff" stroke="#fff"/>
<g clip-path="url(#a)">
<defs>
<path id="av" d="m9.8125 72.906h41.891v-8.3125h-32.031v-21.484h28.906v-8.2969h-28.906v-34.812h-9.8594z"/>
</defs>
<g transform="translate(556.75 763.71) rotate(-77.415) scale(.08 -.08)">
<use xlink:href="#av"/>
</g>
</g>
<path d="m571.39 759.63 1.2172 5.452q0.52293 2.3423 2.8653 1.8194l7.5565-1.687q2.3423-0.52293 1.8194-2.8653l-1.2172-5.452q-0.52293-2.3423-2.8653-1.8194l-7.5565 1.687q-2.3423 0.52293-1.8194 2.8653z" clip-path="url(#a)" fill="#fff" stroke="#fff"/>
<g clip-path="url(#a)">
<g transform="translate(575.36 758.74) rotate(77.415) scale(.08 -.08)">
<use xlink:href="#o"/>
</g>
</g>
<path d="m629.42 846.48v35.285q0 2.4 2.4 2.4h7.7425q2.4 0 2.4-2.4v-35.285q0-2.4-2.4-2.4h-7.7425q-2.4 0-2.4 2.4z" clip-path="url(#a)" fill="#fff" stroke="#fff"/>
<g clip-path="url(#a)">
<g transform="translate(633.48 846.48) rotate(90) scale(.08 -.08)">
<use xlink:href="#l"/>
<use x="60.818359" xlink:href="#c"/>
<use x="122.341797" xlink:href="#g"/>
<use x="163.439453" xlink:href="#k"/>
<use x="260.851562" xlink:href="#f"/>
<use x="288.634766" xlink:href="#d"/>
<use x="352.013672" xlink:href="#j"/>
<use x="413.292969" xlink:href="#h"/>
</g>
</g>
<path d="m537.31 846.48v35.285q0 2.4 2.4 2.4h7.7425q2.4 0 2.4-2.4v-35.285q0-2.4-2.4-2.4h-7.7425q-2.4 0-2.4 2.4z" clip-path="url(#a)" fill="#fff" stroke="#fff"/>
<g clip-path="url(#a)">
<g transform="translate(541.38 846.48) rotate(90) scale(.08 -.08)">
<use xlink:href="#l"/>
<use x="60.818359" xlink:href="#c"/>
<use x="122.341797" xlink:href="#g"/>
<use x="163.439453" xlink:href="#k"/>
<use x="260.851562" xlink:href="#f"/>
<use x="288.634766" xlink:href="#d"/>
<use x="352.013672" xlink:href="#j"/>
<use x="413.292969" xlink:href="#h"/>
</g>
</g>
<path d="m583.37 846.48v35.285q0 2.4 2.4 2.4h7.7425q2.4 0 2.4-2.4v-35.285q0-2.4-2.4-2.4h-7.7425q-2.4 0-2.4 2.4z" clip-path="url(#a)" fill="#fff" stroke="#fff"/>
<g clip-path="url(#a)">
<g transform="translate(587.43 846.48) rotate(90) scale(.08 -.08)">
<use xlink:href="#l"/>
<use x="60.818359" xlink:href="#c"/>
<use x="122.341797" xlink:href="#g"/>
<use x="163.439453" xlink:href="#k"/>
<use x="260.851562" xlink:href="#f"/>
<use x="288.634766" xlink:href="#d"/>
<use x="352.013672" xlink:href="#j"/>
<use x="413.292969" xlink:href="#h"/>
</g>
</g>
<path d="m353.11 846.48v35.285q0 2.4 2.4 2.4h7.7425q2.4 0 2.4-2.4v-35.285q0-2.4-2.4-2.4h-7.7425q-2.4 0-2.4 2.4z" clip-path="url(#a)" fill="#fff" stroke="#fff"/>
<g clip-path="url(#a)">
<g transform="translate(357.17 846.48) rotate(90) scale(.08 -.08)">
<use xlink:href="#l"/>
<use x="60.818359" xlink:href="#c"/>
<use x="122.341797" xlink:href="#g"/>
<use x="163.439453" xlink:href="#k"/>
<use x="260.851562" xlink:href="#f"/>
<use x="288.634766" xlink:href="#d"/>
<use x="352.013672" xlink:href="#j"/>
<use x="413.292969" xlink:href="#h"/>
</g>
</g>
<path d="m399.16 846.48v35.285q0 2.4 2.4 2.4h7.7425q2.4 0 2.4-2.4v-35.285q0-2.4-2.4-2.4h-7.7425q-2.4 0-2.4 2.4z" clip-path="url(#a)" fill="#fff" stroke="#fff"/>
<g clip-path="url(#a)">
<g transform="translate(403.22 846.48) rotate(90) scale(.08 -.08)">
<use xlink:href="#l"/>
<use x="60.818359" xlink:href="#c"/>
<use x="122.341797" xlink:href="#g"/>
<use x="163.439453" xlink:href="#k"/>
<use x="260.851562" xlink:href="#f"/>
<use x="288.634766" xlink:href="#d"/>
<use x="352.013672" xlink:href="#j"/>
<use x="413.292969" xlink:href="#h"/>
</g>
</g>
<path d="m445.21 846.48v35.285q0 2.4 2.4 2.4h7.7425q2.4 0 2.4-2.4v-35.285q0-2.4-2.4-2.4h-7.7425q-2.4 0-2.4 2.4z" clip-path="url(#a)" fill="#fff" stroke="#fff"/>
<g clip-path="url(#a)">
<g transform="translate(449.27 846.48) rotate(90) scale(.08 -.08)">
<use xlink:href="#l"/>
<use x="60.818359" xlink:href="#c"/>
<use x="122.341797" xlink:href="#g"/>
<use x="163.439453" xlink:href="#k"/>
<use x="260.851562" xlink:href="#f"/>
<use x="288.634766" xlink:href="#d"/>
<use x="352.013672" xlink:href="#j"/>
<use x="413.292969" xlink:href="#h"/>
</g>
</g>
<path d="m675.47 846.48v35.285q0 2.4 2.4 2.4h7.7425q2.4 0 2.4-2.4v-35.285q0-2.4-2.4-2.4h-7.7425q-2.4 0-2.4 2.4z" clip-path="url(#a)" fill="#fff" stroke="#fff"/>
<g clip-path="url(#a)">
<g transform="translate(679.53 846.48) rotate(90) scale(.08 -.08)">
<use xlink:href="#l"/>
<use x="60.818359" xlink:href="#c"/>
<use x="122.341797" xlink:href="#g"/>
<use x="163.439453" xlink:href="#k"/>
<use x="260.851562" xlink:href="#f"/>
<use x="288.634766" xlink:href="#d"/>
<use x="352.013672" xlink:href="#j"/>
<use x="413.292969" xlink:href="#h"/>
</g>
</g>
<path d="m721.52 846.48v35.285q0 2.4 2.4 2.4h7.7425q2.4 0 2.4-2.4v-35.285q0-2.4-2.4-2.4h-7.7425q-2.4 0-2.4 2.4z" clip-path="url(#a)" fill="#fff" stroke="#fff"/>
<g clip-path="url(#a)">
<g transform="translate(725.59 846.48) rotate(90) scale(.08 -.08)">
<use xlink:href="#l"/>
<use x="60.818359" xlink:href="#c"/>
<use x="122.341797" xlink:href="#g"/>
<use x="163.439453" xlink:href="#k"/>
<use x="260.851562" xlink:href="#f"/>
<use x="288.634766" xlink:href="#d"/>
<use x="352.013672" xlink:href="#j"/>
<use x="413.292969" xlink:href="#h"/>
</g>
</g>
<path d="m859.68 846.48v35.285q0 2.4 2.4 2.4h7.7425q2.4 0 2.4-2.4v-35.285q0-2.4-2.4-2.4h-7.7425q-2.4 0-2.4 2.4z" clip-path="url(#a)" fill="#fff" stroke="#fff"/>
<g clip-path="url(#a)">
<g transform="translate(863.74 846.48) rotate(90) scale(.08 -.08)">
<use xlink:href="#l"/>
<use x="60.818359" xlink:href="#c"/>
<use x="122.341797" xlink:href="#g"/>
<use x="163.439453" xlink:href="#k"/>
<use x="260.851562" xlink:href="#f"/>
<use x="288.634766" xlink:href="#d"/>
<use x="352.013672" xlink:href="#j"/>
<use x="413.292969" xlink:href="#h"/>
</g>
</g>
<path d="m997.83 846.48v35.285q0 2.4 2.4 2.4h7.7425q2.4 0 2.4-2.4v-35.285q0-2.4-2.4-2.4h-7.7425q-2.4 0-2.4 2.4z" clip-path="url(#a)" fill="#fff" stroke="#fff"/>
<g clip-path="url(#a)">
<g transform="translate(1001.9 846.48) rotate(90) scale(.08 -.08)">
<use xlink:href="#l"/>
<use x="60.818359" xlink:href="#c"/>
<use x="122.341797" xlink:href="#g"/>
<use x="163.439453" xlink:href="#k"/>
<use x="260.851562" xlink:href="#f"/>
<use x="288.634766" xlink:href="#d"/>
<use x="352.013672" xlink:href="#j"/>
<use x="413.292969" xlink:href="#h"/>
</g>
</g>
<path d="m1182 846.48v35.285q0 2.4 2.4 2.4h7.7425q2.4 0 2.4-2.4v-35.285q0-2.4-2.4-2.4h-7.7425q-2.4 0-2.4 2.4z" clip-path="url(#a)" fill="#fff" stroke="#fff"/>
<g clip-path="url(#a)">
<g transform="translate(1186.1 846.48) rotate(90) scale(.08 -.08)">
<use xlink:href="#l"/>
<use x="60.818359" xlink:href="#c"/>
<use x="122.341797" xlink:href="#g"/>
<use x="163.439453" xlink:href="#k"/>
<use x="260.851562" xlink:href="#f"/>
<use x="288.634766" xlink:href="#d"/>
<use x="352.013672" xlink:href="#j"/>
<use x="413.292969" xlink:href="#h"/>
</g>
</g>
<path d="m1366.2 846.48v35.285q0 2.4 2.4 2.4h7.7425q2.4 0 2.4-2.4v-35.285q0-2.4-2.4-2.4h-7.7425q-2.4 0-2.4 2.4z" clip-path="url(#a)" fill="#fff" stroke="#fff"/>
<g clip-path="url(#a)">
<g transform="translate(1370.3 846.48) rotate(90) scale(.08 -.08)">
<use xlink:href="#l"/>
<use x="60.818359" xlink:href="#c"/>
<use x="122.341797" xlink:href="#g"/>
<use x="163.439453" xlink:href="#k"/>
<use x="260.851562" xlink:href="#f"/>
<use x="288.634766" xlink:href="#d"/>
<use x="352.013672" xlink:href="#j"/>
<use x="413.292969" xlink:href="#h"/>
</g>
</g>
<path d="m1688.6 846.48v35.285q0 2.4 2.4 2.4h7.7425q2.4 0 2.4-2.4v-35.285q0-2.4-2.4-2.4h-7.7425q-2.4 0-2.4 2.4z" clip-path="url(#a)" fill="#fff" stroke="#fff"/>
<g clip-path="url(#a)">
<g transform="translate(1692.7 846.48) rotate(90) scale(.08 -.08)">
<use xlink:href="#l"/>
<use x="60.818359" xlink:href="#c"/>
<use x="122.341797" xlink:href="#g"/>
<use x="163.439453" xlink:href="#k"/>
<use x="260.851562" xlink:href="#f"/>
<use x="288.634766" xlink:href="#d"/>
<use x="352.013672" xlink:href="#j"/>
<use x="413.292969" xlink:href="#h"/>
</g>
</g>
<defs>
<path id="b" d="m0 8.6603c2.2967 0 4.4997-0.9125 6.1237-2.5365 1.624-1.624 2.5365-3.827 2.5365-6.1237s-0.9125-4.4997-2.5365-6.1237c-1.624-1.624-3.827-2.5365-6.1237-2.5365s-4.4997 0.9125-6.1237 2.5365c-1.624 1.624-2.5365 3.827-2.5365 6.1237s0.9125 4.4997 2.5365 6.1237c1.624 1.624 3.827 2.5365 6.1237 2.5365z"/>
</defs>
<g clip-path="url(#a)">
<use x="83.06652" y="915.693729" fill="#ffffff" stroke="#ffffff" xlink:href="#b"/>
</g>
<g clip-path="url(#a)">
<use x="129.11838" y="915.693729" fill="#ffffff" stroke="#ffffff" xlink:href="#b"/>
</g>
<g clip-path="url(#a)">
<use x="175.17024" y="915.693729" fill="#ffffff" stroke="#ffffff" xlink:href="#b"/>
</g>
<g clip-path="url(#a)">
<use x="221.2221" y="915.693729" fill="#ffffff" stroke="#ffffff" xlink:href="#b"/>
</g>
<g clip-path="url(#a)">
<use x="267.27396" y="915.693729" fill="#ffffff" stroke="#ffffff" xlink:href="#b"/>
</g>
<g clip-path="url(#a)">
<use x="313.32582" y="915.693729" fill="#ffffff" stroke="#ffffff" xlink:href="#b"/>
</g>
<g clip-path="url(#a)">
<use x="359.37768" y="915.693729" fill="#ffffff" stroke="#ffffff" xlink:href="#b"/>
</g>
<g clip-path="url(#a)">
<use x="405.42954" y="915.693729" fill="#ffffff" stroke="#ffffff" xlink:href="#b"/>
</g>
<g clip-path="url(#a)">
<use x="451.4814" y="915.693729" fill="#ffffff" stroke="#ffffff" xlink:href="#b"/>
</g>
<g clip-path="url(#a)">
<use x="497.53326" y="915.693729" fill="#ffffff" stroke="#ffffff" xlink:href="#b"/>
</g>
<g clip-path="url(#a)">
<use x="543.58512" y="915.693729" fill="#ffffff" stroke="#ffffff" xlink:href="#b"/>
</g>
<g clip-path="url(#a)">
<use x="589.63698" y="915.693729" fill="#ffffff" stroke="#ffffff" xlink:href="#b"/>
</g>
<g clip-path="url(#a)">
<use x="635.68884" y="915.693729" fill="#ffffff" stroke="#ffffff" xlink:href="#b"/>
</g>
<g clip-path="url(#a)">
<use x="681.7407" y="915.693729" fill="#ffffff" stroke="#ffffff" xlink:href="#b"/>
</g>
<g clip-path="url(#a)">
<use x="727.79256" y="915.693729" fill="#ffffff" stroke="#ffffff" xlink:href="#b"/>
</g>
<g clip-path="url(#a)">
<use x="773.84442" y="915.693729" fill="#ffffff" stroke="#ffffff" xlink:href="#b"/>
</g>
<g clip-path="url(#a)">
<use x="819.89628" y="915.693729" fill="#ffffff" stroke="#ffffff" xlink:href="#b"/>
</g>
<g clip-path="url(#a)">
<use x="865.94814" y="915.693729" fill="#ffffff" stroke="#ffffff" xlink:href="#b"/>
</g>
<g clip-path="url(#a)">
<use x="912" y="915.693729" fill="#ffffff" stroke="#ffffff" xlink:href="#b"/>
</g>
<g clip-path="url(#a)">
<use x="958.05186" y="915.693729" fill="#ffffff" stroke="#ffffff" xlink:href="#b"/>
</g>
<g clip-path="url(#a)">
<use x="1004.10372" y="915.693729" fill="#ffffff" stroke="#ffffff" xlink:href="#b"/>
</g>
<g clip-path="url(#a)">
<use x="1050.15558" y="915.693729" fill="#ffffff" stroke="#ffffff" xlink:href="#b"/>
</g>
<g clip-path="url(#a)">
<use x="1096.20744" y="915.693729" fill="#ffffff" stroke="#ffffff" xlink:href="#b"/>
</g>
<g clip-path="url(#a)">
<use x="1142.2593" y="915.693729" fill="#ffffff" stroke="#ffffff" xlink:href="#b"/>
</g>
<g clip-path="url(#a)">
<use x="1188.31116" y="915.693729" fill="#ffffff" stroke="#ffffff" xlink:href="#b"/>
</g>
<g clip-path="url(#a)">
<use x="1234.36302" y="915.693729" fill="#ffffff" stroke="#ffffff" xlink:href="#b"/>
</g>
<g clip-path="url(#a)">
<use x="1280.41488" y="915.693729" fill="#ffffff" stroke="#ffffff" xlink:href="#b"/>
</g>
<g clip-path="url(#a)">
<use x="1326.46674" y="915.693729" fill="#ffffff" stroke="#ffffff" xlink:href="#b"/>
</g>
<g clip-path="url(#a)">
<use x="1372.5186" y="915.693729" fill="#ffffff" stroke="#ffffff" xlink:href="#b"/>
</g>
<g clip-path="url(#a)">
<use x="1418.57046" y="915.693729" fill="#ffffff" stroke="#ffffff" xlink:href="#b"/>
</g>
<g clip-path="url(#a)">
<use x="1464.62232" y="915.693729" fill="#ffffff" stroke="#ffffff" xlink:href="#b"/>
</g>
<g clip-path="url(#a)">
<use x="1510.67418" y="915.693729" fill="#ffffff" stroke="#ffffff" xlink:href="#b"/>
</g>
<g clip-path="url(#a)">
<use x="1556.72604" y="915.693729" fill="#ffffff" stroke="#ffffff" xlink:href="#b"/>
</g>
<g clip-path="url(#a)">
<use x="1602.7779" y="915.693729" fill="#ffffff" stroke="#ffffff" xlink:href="#b"/>
</g>
<g clip-path="url(#a)">
<use x="1648.82976" y="915.693729" fill="#ffffff" stroke="#ffffff" xlink:href="#b"/>
</g>
<g clip-path="url(#a)">
<use x="1694.88162" y="915.693729" fill="#ffffff" stroke="#ffffff" xlink:href="#b"/>
</g>
<g clip-path="url(#a)">
<use x="1067.052255" y="44.306271" fill="#ffffff" stroke="#ffffff" xlink:href="#b"/>
</g>
<g clip-path="url(#a)">
<use x="319.882813" y="162.568448" fill="#ffffff" stroke="#ffffff" xlink:href="#b"/>
</g>
<g clip-path="url(#a)">
<use x="1508.755352" y="604.841791" fill="#ffffff" stroke="#ffffff" xlink:href="#b"/>
</g>
<g clip-path="url(#a)">
<use x="1418.57046" y="812.554675" fill="#ffffff" stroke="#ffffff" xlink:href="#b"/>
</g>
<g clip-path="url(#a)">
<use x="1464.62232" y="812.554675" fill="#ffffff" stroke="#ffffff" xlink:href="#b"/>
</g>
<g clip-path="url(#a)">
<use x="1510.67418" y="812.554675" fill="#ffffff" stroke="#ffffff" xlink:href="#b"/>
</g>
<g clip-path="url(#a)">
<use x="1641.15445" y="709.415622" fill="#ffffff" stroke="#ffffff" xlink:href="#b"/>
</g>
<g clip-path="url(#a)">
<use x="1579.75197" y="812.554675" fill="#ffffff" stroke="#ffffff" xlink:href="#b"/>
</g>
<g clip-path="url(#a)">
<use x="1648.82976" y="812.554675" fill="#ffffff" stroke="#ffffff" xlink:href="#b"/>
</g>
<g clip-path="url(#a)">
<use x="83.06652" y="812.554675" fill="#ffffff" stroke="#ffffff" xlink:href="#b"/>
</g>
<g clip-path="url(#a)">
<use x="129.11838" y="812.554675" fill="#ffffff" stroke="#ffffff" xlink:href="#b"/>
</g>
<g clip-path="url(#a)">
<use x="175.17024" y="812.554675" fill="#ffffff" stroke="#ffffff" xlink:href="#b"/>
</g>
<g clip-path="url(#a)">
<use x="892.176113" y="277.447142" fill="#ffffff" stroke="#ffffff" xlink:href="#b"/>
</g>
<g clip-path="url(#a)">
<use x="322.320324" y="389.238214" fill="#ffffff" stroke="#ffffff" xlink:href="#b"/>
</g>
<g clip-path="url(#a)">
<use x="796.87035" y="709.415622" fill="#ffffff" stroke="#ffffff" xlink:href="#b"/>
</g>
<g clip-path="url(#a)">
<use x="935.02593" y="709.415622" fill="#ffffff" stroke="#ffffff" xlink:href="#b"/>
</g>
<g clip-path="url(#a)">
<use x="1107.720405" y="709.415622" fill="#ffffff" stroke="#ffffff" xlink:href="#b"/>
</g>
<g clip-path="url(#a)">
<use x="1291.927845" y="709.415622" fill="#ffffff" stroke="#ffffff" xlink:href="#b"/>
</g>
<g clip-path="url(#a)">
<use x="1257.38895" y="812.554675" fill="#ffffff" stroke="#ffffff" xlink:href="#b"/>
</g>
<g clip-path="url(#a)">
<use x="1326.46674" y="812.554675" fill="#ffffff" stroke="#ffffff" xlink:href="#b"/>
</g>
<g clip-path="url(#a)">
<use x="1073.18151" y="812.554675" fill="#ffffff" stroke="#ffffff" xlink:href="#b"/>
</g>
<g clip-path="url(#a)">
<use x="1142.2593" y="812.554675" fill="#ffffff" stroke="#ffffff" xlink:href="#b"/>
</g>
<g clip-path="url(#a)">
<use x="912" y="812.554675" fill="#ffffff" stroke="#ffffff" xlink:href="#b"/>
</g>
<g clip-path="url(#a)">
<use x="958.05186" y="812.554675" fill="#ffffff" stroke="#ffffff" xlink:href="#b"/>
</g>
<g clip-path="url(#a)">
<use x="773.84442" y="812.554675" fill="#ffffff" stroke="#ffffff" xlink:href="#b"/>
</g>
<g clip-path="url(#a)">
<use x="819.89628" y="812.554675" fill="#ffffff" stroke="#ffffff" xlink:href="#b"/>
</g>
<g clip-path="url(#a)">
<use x="221.2221" y="812.554675" fill="#ffffff" stroke="#ffffff" xlink:href="#b"/>
</g>
<g clip-path="url(#a)">
<use x="267.27396" y="812.554675" fill="#ffffff" stroke="#ffffff" xlink:href="#b"/>
</g>
<g clip-path="url(#a)">
<use x="487.459416" y="498.254312" fill="#ffffff" stroke="#ffffff" xlink:href="#b"/>
</g>
<g clip-path="url(#a)">
<use x="244.24803" y="709.415622" fill="#ffffff" stroke="#ffffff" xlink:href="#b"/>
</g>
<g clip-path="url(#a)">
<use x="497.53326" y="812.554675" fill="#ffffff" stroke="#ffffff" xlink:href="#b"/>
</g>
<g clip-path="url(#a)">
<use x="756.574973" y="604.841791" fill="#ffffff" stroke="#ffffff" xlink:href="#b"/>
</g>
<g clip-path="url(#a)">
<use x="313.32582" y="812.554675" fill="#ffffff" stroke="#ffffff" xlink:href="#b"/>
</g>
<g clip-path="url(#a)">
<use x="1740.93348" y="915.693729" fill="#ffffff" stroke="#ffffff" xlink:href="#b"/>
</g>
<g clip-path="url(#a)">
<use x="566.61105" y="709.415622" fill="#ffffff" stroke="#ffffff" xlink:href="#b"/>
</g>
<g clip-path="url(#a)">
<use x="635.68884" y="812.554675" fill="#ffffff" stroke="#ffffff" xlink:href="#b"/>
</g>
<g clip-path="url(#a)">
<use x="543.58512" y="812.554675" fill="#ffffff" stroke="#ffffff" xlink:href="#b"/>
</g>
<g clip-path="url(#a)">
<use x="589.63698" y="812.554675" fill="#ffffff" stroke="#ffffff" xlink:href="#b"/>
</g>
<g clip-path="url(#a)">
<use x="359.37768" y="812.554675" fill="#ffffff" stroke="#ffffff" xlink:href="#b"/>
</g>
<g clip-path="url(#a)">
<use x="405.42954" y="812.554675" fill="#ffffff" stroke="#ffffff" xlink:href="#b"/>
</g>
<g clip-path="url(#a)">
<use x="451.4814" y="812.554675" fill="#ffffff" stroke="#ffffff" xlink:href="#b"/>
</g>
<g clip-path="url(#a)">
<use x="681.7407" y="812.554675" fill="#ffffff" stroke="#ffffff" xlink:href="#b"/>
</g>
<g clip-path="url(#a)">
<use x="727.79256" y="812.554675" fill="#ffffff" stroke="#ffffff" xlink:href="#b"/>
</g>
<g clip-path="url(#a)">
<use x="865.94814" y="812.554675" fill="#ffffff" stroke="#ffffff" xlink:href="#b"/>
</g>
<g clip-path="url(#a)">
<use x="1004.10372" y="812.554675" fill="#ffffff" stroke="#ffffff" xlink:href="#b"/>
</g>
<g clip-path="url(#a)">
<use x="1188.31116" y="812.554675" fill="#ffffff" stroke="#ffffff" xlink:href="#b"/>
</g>
<g clip-path="url(#a)">
<use x="1372.5186" y="812.554675" fill="#ffffff" stroke="#ffffff" xlink:href="#b"/>
</g>
<g clip-path="url(#a)">
<use x="1694.88162" y="812.554675" fill="#ffffff" stroke="#ffffff" xlink:href="#b"/>
</g>
<g clip-path="url(#a)">
<defs>
<path id="ac" d="m9.8125 72.906h14.703l18.594-49.609 18.703 49.609h14.703v-72.906h-9.625v64.016l-18.797-50h-9.9062l-18.797 50v-64.016h-9.5781z"/>
</defs>
<g transform="translate(72.52 918.45) scale(.1 -.1)">
<use xlink:href="#ac"/>
<use x="86.279297" xlink:href="#j"/>
<use x="147.558594" xlink:href="#d"/>
</g>
</g>
<g clip-path="url(#a)">
<defs>
<path id="ao" d="m5.5156 54.688h42.672v-8.2031l-33.781-39.312h33.781v-7.1719h-43.891v8.2031l33.797 39.312h-32.578z"/>
<path id="ab" d="m34.281 27.484q-10.891 0-15.094-2.4844t-4.2031-8.5q0-4.7812 3.1562-7.5938 3.1562-2.7969 8.5625-2.7969 7.4844 0 12 5.2969t4.5156 14.078v2zm17.922 3.7188v-31.203h-8.9844v8.2969q-3.0781-4.9688-7.6719-7.3438t-11.234-2.375q-8.3906 0-13.359 4.7188-4.9531 4.7188-4.9531 12.625 0 9.2188 6.1719 13.906 6.1875 4.6875 18.438 4.6875h12.609v0.89062q0 6.2031-4.0781 9.5938t-11.453 3.3906q-4.6875 0-9.1406-1.125-4.4375-1.125-8.5312-3.375v8.3125q4.9219 1.9062 9.5625 2.8438 4.6406 0.95312 9.0312 0.95312 11.875 0 17.734-6.1562 5.8594-6.1406 5.8594-18.641zm-18.609 44.578h9.9062v-9.8594h-9.9062zm-19.094 0h9.9062v-9.8594h-9.9062z"/>
<path id="n" d="m54.891 33.016v-33.016h-8.9844v32.719q0 7.7656-3.0312 11.609-3.0312 3.8594-9.0781 3.8594-7.2812 0-11.484-4.6406-4.2031-4.625-4.2031-12.641v-30.906h-9.0312v75.984h9.0312v-29.797q3.2344 4.9375 7.5938 7.375 4.375 2.4375 10.094 2.4375 9.4219 0 14.25-5.8281 4.8438-5.8281 4.8438-17.156z"/>
<path id="q" d="m18.312 70.219v-15.531h18.5v-6.9844h-18.5v-29.688q0-6.6875 1.8281-8.5938t7.4531-1.9062h9.2188v-7.5156h-9.2188q-10.406 0-14.359 3.875-3.9531 3.8906-3.9531 14.141v29.688h-6.5938v6.9844h6.5938v15.531z"/>
</defs>
<g transform="translate(116.91 918.45) scale(.1 -.1)">
<use xlink:href="#ao"/>
<use x="52.490234" xlink:href="#ab"/>
<use x="113.769531" xlink:href="#n"/>
<use x="177.148438" xlink:href="#h"/>
<use x="204.931641" xlink:href="#q"/>
</g>
</g>
<g clip-path="url(#a)">
<defs>
<path id="s" d="m45.406 46.391v29.594h8.9844v-75.984h-8.9844v8.2031q-2.8281-4.875-7.1562-7.25-4.3125-2.375-10.375-2.375-9.9062 0-16.141 7.9062-6.2188 7.9219-6.2188 20.812t6.2188 20.797q6.2344 7.9062 16.141 7.9062 6.0625 0 10.375-2.375 4.3281-2.3594 7.1562-7.2344zm-30.609-19.094q0-9.9062 4.0781-15.547t11.203-5.6406 11.219 5.6406q4.1094 5.6406 4.1094 15.547t-4.1094 15.547q-4.0938 5.6406-11.219 5.6406t-11.203-5.6406-4.0781-15.547z"/>
<path id="ag" d="m30.609 48.391q-7.2188 0-11.422-5.6406t-4.2031-15.453 4.1719-15.453q4.1875-5.6406 11.453-5.6406 7.1875 0 11.375 5.6562 4.2031 5.6719 4.2031 15.438 0 9.7188-4.2031 15.406-4.1875 5.6875-11.375 5.6875zm0 7.6094q11.719 0 18.406-7.625 6.7031-7.6094 6.7031-21.078 0-13.422-6.7031-21.078-6.6875-7.6406-18.406-7.6406-11.766 0-18.438 7.6406-6.6562 7.6562-6.6562 21.078 0 13.469 6.6562 21.078 6.6719 7.625 18.438 7.625z"/>
</defs>
<g transform="translate(164.92 918.45) scale(.1 -.1)">
<use xlink:href="#s"/>
<use x="63.476562" xlink:href="#ag"/>
<use x="124.658203" xlink:href="#g"/>
<use x="165.771484" xlink:href="#q"/>
</g>
</g>
<g clip-path="url(#a)">
<defs>
<path id="v" d="m8.5 21.578v33.109h8.9844v-32.766q0-7.7656 3.0156-11.656 3.0312-3.875 9.0938-3.875 7.2656 0 11.484 4.6406 4.2344 4.6406 4.2344 12.656v31h8.9844v-54.688h-8.9844v8.4062q-3.2656-4.9844-7.5938-7.4062-4.3125-2.4219-10.031-2.4219-9.4219 0-14.312 5.8594-4.875 5.8594-4.875 17.141z"/>
<path id="ah" d="m37.109 75.984v-7.4844h-8.5938q-4.8281 0-6.7188-1.9531-1.875-1.9531-1.875-7.0312v-4.8281h14.797v-6.9844h-14.797v-47.703h-9.0312v47.703h-8.5938v6.9844h8.5938v3.8125q0 9.125 4.25 13.297 4.25 4.1875 13.469 4.1875z"/>
</defs>
<g transform="translate(195.22 918.45) scale(.1 -.1)">
<use xlink:href="#n"/>
<use x="63.378906" xlink:href="#v"/>
<use x="126.757812" xlink:href="#d"/>
<use x="190.136719" xlink:href="#s"/>
<use x="253.613281" xlink:href="#c"/>
<use x="315.136719" xlink:href="#g"/>
<use x="356.25" xlink:href="#q"/>
<use x="395.458984" xlink:href="#c"/>
<use x="456.982422" xlink:href="#h"/>
<use x="484.765625" xlink:href="#ah"/>
</g>
</g>
<g clip-path="url(#a)">
<defs>
<path id="ax" d="m9.8125 72.906h9.8594v-30.812l32.719 30.812h12.703l-36.188-33.984 38.766-38.922h-12.984l-35.016 35.109v-35.109h-9.8594z"/>
<path id="bb" d="m30.609 48.391q-7.2188 0-11.422-5.6406t-4.2031-15.453 4.1719-15.453q4.1875-5.6406 11.453-5.6406 7.1875 0 11.375 5.6562 4.2031 5.6719 4.2031 15.438 0 9.7188-4.2031 15.406-4.1875 5.6875-11.375 5.6875zm0 7.6094q11.719 0 18.406-7.625 6.7031-7.6094 6.7031-21.078 0-13.422-6.7031-21.078-6.6875-7.6406-18.406-7.6406-11.766 0-18.438 7.6406-6.6562 7.6562-6.6562 21.078 0 13.469 6.6562 21.078 6.6719 7.625 18.438 7.625zm4.6094 19.781h9.9062v-9.8594h-9.9062zm-19.094 0h9.9062v-9.8594h-9.9062z"/>
<path id="ap" d="m45.406 27.984q0 9.7656-4.0312 15.125-4.0156 5.375-11.297 5.375-7.2188 0-11.25-5.375-4.0312-5.3594-4.0312-15.125 0-9.7188 4.0312-15.094t11.25-5.375q7.2812 0 11.297 5.375 4.0312 5.375 4.0312 15.094zm8.9844-21.203q0-13.953-6.2031-20.766-6.1875-6.8125-18.984-6.8125-4.7344 0-8.9375 0.70312t-8.1562 2.1719v8.7344q3.9531-2.1406 7.8125-3.1562 3.8594-1.0312 7.8594-1.0312 8.8438 0 13.234 4.6094t4.3906 13.938v4.4531q-2.7812-4.8438-7.125-7.2344t-10.406-2.3906q-10.047 0-16.203 7.6562-6.1562 7.6719-6.1562 20.328 0 12.688 6.1562 20.344 6.1562 7.6719 16.203 7.6719 6.0625 0 10.406-2.3906t7.125-7.2188v8.2969h8.9844z"/>
</defs>
<g transform="translate(250.13 918.45) scale(.1 -.1)">
<use xlink:href="#ax"/>
<use x="65.498047" xlink:href="#bb"/>
<use x="126.679688" xlink:href="#d"/>
<use x="190.058594" xlink:href="#f"/>
<use x="217.841797" xlink:href="#ap"/>
<use x="281.318359" xlink:href="#c"/>
</g>
</g>
<g clip-path="url(#a)">
<defs>
<path id="az" d="m31 75.875q-6.5312-11.219-9.7188-22.219-3.1719-10.984-3.1719-22.266 0-11.266 3.2031-22.328t9.6875-22.25h-7.8125q-7.3125 11.484-10.953 22.562t-3.6406 22.016q0 10.891 3.6094 21.922 3.625 11.047 10.984 22.562z"/>
</defs>
<g transform="translate(311.38 918.45) scale(.1 -.1)">
<use xlink:href="#az"/>
</g>
</g>
<g clip-path="url(#a)">
<defs>
<path id="ba" d="m8.5 21.578v33.109h8.9844v-32.766q0-7.7656 3.0156-11.656 3.0312-3.875 9.0938-3.875 7.2656 0 11.484 4.6406 4.2344 4.6406 4.2344 12.656v31h8.9844v-54.688h-8.9844v8.4062q-3.2656-4.9844-7.5938-7.4062-4.3125-2.4219-10.031-2.4219-9.4219 0-14.312 5.8594-4.875 5.8594-4.875 17.141zm22.609 34.422m4.4844 19.781h9.9062v-9.8594h-9.9062zm-19.094 0h9.9062v-9.8594h-9.9062z"/>
<path id="ai" d="m48.781 52.594v-8.4062q-3.8125 2.1094-7.6406 3.1562t-7.7344 1.0469q-8.75 0-13.594-5.5469-4.8281-5.5312-4.8281-15.547t4.8281-15.562q4.8438-5.5312 13.594-5.5312 3.9062 0 7.7344 1.0469t7.6406 3.1562v-8.3125q-3.7656-1.75-7.7969-2.625-4.0156-0.89062-8.5625-0.89062-12.359 0-19.641 7.7656-7.2656 7.7656-7.2656 20.953 0 13.375 7.3438 21.031 7.3594 7.6719 20.156 7.6719 4.1406 0 8.0938-0.85938 3.9531-0.84375 7.6719-2.5469z"/>
</defs>
<g transform="translate(337.26 918.45) scale(.1 -.1)">
<use xlink:href="#d"/>
<use x="63.378906" xlink:href="#j"/>
<use x="124.658203" xlink:href="#q"/>
<use x="163.867188" xlink:href="#ba"/>
<use x="227.246094" xlink:href="#g"/>
<use x="268.359375" xlink:href="#h"/>
<use x="296.142578" xlink:href="#f"/>
<use x="323.925781" xlink:href="#ai"/>
<use x="378.90625" xlink:href="#n"/>
</g>
</g>
<g clip-path="url(#a)">
<g transform="translate(392.99 918.45) scale(.1 -.1)">
<use xlink:href="#d"/>
<use x="63.378906" xlink:href="#f"/>
<use x="91.162109" xlink:href="#ai"/>
<use x="146.142578" xlink:href="#n"/>
<use x="209.521484" xlink:href="#q"/>
</g>
</g>
<g clip-path="url(#a)">
<defs>
<path id="aa" d="m11.719 12.406h10.297v-8.4062l-8-15.625h-6.2969l4 15.625z"/>
</defs>
<g transform="translate(449.89 918.45) scale(.1 -.1)">
<use xlink:href="#aa"/>
</g>
</g>
<g clip-path="url(#a)">
<g transform="translate(485.06 918.45) scale(.1 -.1)">
<use xlink:href="#ag"/>
<use x="61.181641" xlink:href="#n"/>
<use x="124.560547" xlink:href="#d"/>
<use x="187.939453" xlink:href="#c"/>
</g>
</g>
<g clip-path="url(#a)">
<g transform="translate(535.95 918.45) scale(.1 -.1)">
<use xlink:href="#s"/>
<use x="63.476562" xlink:href="#f"/>
<use x="91.259766" xlink:href="#c"/>
</g>
</g>
<g clip-path="url(#a)">
<defs>
<path id="aj" d="m48.688 27.297q0 9.9062-4.0781 15.547t-11.203 5.6406q-7.1406 0-11.219-5.6406t-4.0781-15.547 4.0781-15.547 11.219-5.6406q7.125 0 11.203 5.6406t4.0781 15.547zm-30.578 19.094q2.8438 4.875 7.1562 7.2344 4.3281 2.375 10.328 2.375 9.9688 0 16.188-7.9062 6.2344-7.9062 6.2344-20.797t-6.2344-20.812q-6.2188-7.9062-16.188-7.9062-6 0-10.328 2.375-4.3125 2.375-7.1562 7.25v-8.2031h-9.0312v75.984h9.0312z"/>
</defs>
<g transform="translate(567.67 918.45) scale(.1 -.1)">
<use xlink:href="#av"/>
<use x="57.378906" xlink:href="#j"/>
<use x="118.658203" xlink:href="#g"/>
<use x="159.771484" xlink:href="#aj"/>
<use x="223.248047" xlink:href="#f"/>
<use x="251.03125" xlink:href="#ap"/>
<use x="314.507812" xlink:href="#c"/>
<use x="376.03125" xlink:href="#d"/>
</g>
</g>
<g clip-path="url(#a)">
<g transform="translate(605.18 918.45) scale(.1 -.1)">
<use xlink:href="#k"/>
<use x="97.412109" xlink:href="#f"/>
<use x="125.195312" xlink:href="#q"/>
<use x="164.404297" xlink:href="#ao"/>
<use x="216.894531" xlink:href="#v"/>
<use x="280.273438" xlink:href="#ao"/>
<use x="332.763672" xlink:href="#ab"/>
<use x="394.042969" xlink:href="#n"/>
<use x="457.421875" xlink:href="#h"/>
<use x="485.205078" xlink:href="#c"/>
<use x="546.728516" xlink:href="#d"/>
</g>
</g>
<g clip-path="url(#a)">
<defs>
<path id="ay" d="m8.0156 75.875h7.8125q7.3125-11.516 10.953-22.562 3.6406-11.031 3.6406-21.922 0-10.938-3.6406-22.016t-10.953-22.562h-7.8125q6.4844 11.188 9.6875 22.25t3.2031 22.328q0 11.281-3.2031 22.266-3.2031 11-9.6875 22.219z"/>
</defs>
<g transform="translate(679.79 918.45) scale(.1 -.1)">
<use xlink:href="#ay"/>
</g>
</g>
<g clip-path="url(#a)">
<g transform="translate(726.2 918.45) scale(.1 -.1)">
<use xlink:href="#aa"/>
</g>
</g>
<g clip-path="url(#a)">
<defs>
<path id="x" d="m44.281 53.078v-8.5q-3.7969 1.9531-7.9062 2.9219-4.0938 0.98438-8.5 0.98438-6.6875 0-10.031-2.0469t-3.3438-6.1562q0-3.125 2.3906-4.9062t9.625-3.3906l3.0781-0.6875q9.5625-2.0469 13.594-5.7812t4.0312-10.422q0-7.625-6.0312-12.078-6.0312-4.4375-16.578-4.4375-4.3906 0-9.1562 0.85938t-10.031 2.5625v9.2812q4.9844-2.5938 9.8125-3.8906 4.8281-1.2812 9.5781-1.2812 6.3438 0 9.75 2.1719 3.4219 2.1719 3.4219 6.125 0 3.6562-2.4688 5.6094-2.4531 1.9531-10.812 3.7656l-3.125 0.73438q-8.3438 1.75-12.062 5.3906-3.7031 3.6406-3.7031 9.9844 0 7.7188 5.4688 11.906 5.4688 4.2031 15.531 4.2031 4.9688 0 9.3594-0.73438 4.4062-0.71875 8.1094-2.1875z"/>
</defs>
<g transform="translate(737.14 918.45) scale(.1 -.1)">
<use xlink:href="#x"/>
<use x="52.099609" xlink:href="#f"/>
<use x="79.882812" xlink:href="#c"/>
<use x="141.40625" xlink:href="#aj"/>
<use x="204.882812" xlink:href="#c"/>
<use x="266.40625" xlink:href="#d"/>
<use x="329.785156" xlink:href="#q"/>
<use x="368.994141" xlink:href="#j"/>
<use x="430.273438" xlink:href="#v"/>
<use x="493.652344" xlink:href="#x"/>
<use x="545.751953" xlink:href="#c"/>
<use x="607.275391" xlink:href="#d"/>
<use x="670.654297" xlink:href="#s"/>
</g>
</g>
<g clip-path="url(#a)">
<defs>
<path id="au" d="m59.516 10.406v19.578h-16.109v8.1094h25.875v-31.312q-5.7031-4.0469-12.594-6.125-6.875-2.0781-14.688-2.0781-17.094 0-26.75 9.9844-9.6406 10-9.6406 27.812 0 17.875 9.6406 27.859 9.6562 9.9844 26.75 9.9844 7.125 0 13.547-1.7656 6.4219-1.75 11.844-5.1719v-10.5q-5.4688 4.6406-11.625 6.9844t-12.938 2.3438q-13.391 0-20.109-7.4688-6.7031-7.4688-6.7031-22.266 0-14.75 6.7031-22.219 6.7188-7.4688 20.109-7.4688 5.2188 0 9.3125 0.90625 4.1094 0.90625 7.375 2.8125z"/>
<path id="bd" d="m18.109 8.2031v-29h-9.0312v75.484h9.0312v-8.2969q2.8438 4.875 7.1562 7.2344 4.3281 2.375 10.328 2.375 9.9688 0 16.188-7.9062 6.2344-7.9062 6.2344-20.797t-6.2344-20.812q-6.2188-7.9062-16.188-7.9062-6 0-10.328 2.375-4.3125 2.375-7.1562 7.25zm30.578 19.094q0 9.9062-4.0781 15.547t-11.203 5.6406q-7.1406 0-11.219-5.6406t-4.0781-15.547 4.0781-15.547 11.219-5.6406q7.125 0 11.203 5.6406t4.0781 15.547z"/>
</defs>
<g transform="translate(789 918.45) scale(.1 -.1)">
<use xlink:href="#au"/>
<use x="77.490234" xlink:href="#c"/>
<use x="139.013672" xlink:href="#ag"/>
<use x="200.195312" xlink:href="#ap"/>
<use x="263.671875" xlink:href="#g"/>
<use x="304.785156" xlink:href="#j"/>
<use x="366.064453" xlink:href="#bd"/>
<use x="429.541016" xlink:href="#n"/>
<use x="492.919922" xlink:href="#c"/>
<use x="554.443359" xlink:href="#d"/>
</g>
</g>
<g clip-path="url(#a)">
<g transform="translate(864.36 918.45) scale(.1 -.1)">
<use xlink:href="#aa"/>
</g>
</g>
<g clip-path="url(#a)">
<g transform="translate(859.43 918.45) scale(.1 -.1)">
<use xlink:href="#d"/>
<use x="63.378906" xlink:href="#c"/>
<use x="124.902344" xlink:href="#v"/>
<use x="188.28125" xlink:href="#d"/>
<use x="251.660156" xlink:href="#n"/>
<use x="315.039062" xlink:href="#v"/>
<use x="378.417969" xlink:href="#d"/>
<use x="441.796875" xlink:href="#s"/>
<use x="505.273438" xlink:href="#c"/>
<use x="566.796875" xlink:href="#g"/>
<use x="607.910156" xlink:href="#q"/>
<use x="647.119141" xlink:href="#q"/>
<use x="686.328125" xlink:href="#j"/>
<use x="747.607422" xlink:href="#v"/>
<use x="810.986328" xlink:href="#x"/>
<use x="863.085938" xlink:href="#c"/>
<use x="924.609375" xlink:href="#d"/>
<use x="987.988281" xlink:href="#s"/>
</g>
</g>
<g clip-path="url(#a)">
<g transform="translate(913.79 918.45) scale(.1 -.1)">
<use xlink:href="#au"/>
<use x="77.490234" xlink:href="#c"/>
<use x="139.013672" xlink:href="#x"/>
<use x="191.113281" xlink:href="#ai"/>
<use x="246.09375" xlink:href="#n"/>
<use x="309.472656" xlink:href="#ab"/>
<use x="370.751953" xlink:href="#ah"/>
<use x="405.941406" xlink:href="#q"/>
<use x="445.150391" xlink:href="#x"/>
<use x="497.25" xlink:href="#k"/>
<use x="594.662109" xlink:href="#ab"/>
<use x="655.941406" xlink:href="#d"/>
<use x="719.320312" xlink:href="#d"/>
<use x="782.699219" xlink:href="#c"/>
<use x="844.222656" xlink:href="#g"/>
</g>
</g>
<g clip-path="url(#a)">
<g transform="translate(1002.5 918.45) scale(.1 -.1)">
<use xlink:href="#aa"/>
</g>
</g>
<g clip-path="url(#a)">
<g transform="translate(1015.2 918.45) scale(.1 -.1)">
<use xlink:href="#x"/>
<use x="52.099609" xlink:href="#f"/>
<use x="79.882812" xlink:href="#c"/>
<use x="141.40625" xlink:href="#aj"/>
<use x="204.882812" xlink:href="#c"/>
<use x="266.40625" xlink:href="#d"/>
<use x="329.785156" xlink:href="#c"/>
<use x="391.308594" xlink:href="#f"/>
<use x="419.091797" xlink:href="#d"/>
<use x="482.470703" xlink:href="#n"/>
<use x="545.849609" xlink:href="#j"/>
<use x="607.128906" xlink:href="#h"/>
<use x="634.912109" xlink:href="#aj"/>
</g>
</g>
<g clip-path="url(#a)">
<g transform="translate(1073.9 918.45) scale(.1 -.1)">
<use xlink:href="#ac"/>
<use x="86.279297" xlink:href="#f"/>
<use x="114.0625" xlink:href="#h"/>
<use x="141.845703" xlink:href="#h"/>
<use x="169.628906" xlink:href="#f"/>
<use x="197.412109" xlink:href="#ag"/>
<use x="258.59375" xlink:href="#d"/>
<use x="321.972656" xlink:href="#c"/>
<use x="383.496094" xlink:href="#d"/>
</g>
</g>
<g clip-path="url(#a)">
<g transform="translate(1126 918.45) scale(.1 -.1)">
<use xlink:href="#as"/>
<use x="63.476562" xlink:href="#ab"/>
<use x="124.755859" xlink:href="#v"/>
<use x="188.134766" xlink:href="#ah"/>
<use x="223.339844" xlink:href="#c"/>
<use x="284.863281" xlink:href="#g"/>
</g>
</g>
<g clip-path="url(#a)">
<g transform="translate(1186.7 918.45) scale(.1 -.1)">
<use xlink:href="#aa"/>
</g>
</g>
<g clip-path="url(#a)">
<g transform="translate(1198.7 918.45) scale(.1 -.1)">
<use xlink:href="#s"/>
<use x="63.476562" xlink:href="#g"/>
<use x="104.558594" xlink:href="#c"/>
<use x="166.082031" xlink:href="#f"/>
<use x="193.865234" xlink:href="#n"/>
<use x="257.244141" xlink:href="#v"/>
<use x="320.623047" xlink:href="#d"/>
<use x="384.001953" xlink:href="#s"/>
<use x="447.478516" xlink:href="#c"/>
<use x="509.001953" xlink:href="#g"/>
<use x="550.115234" xlink:href="#q"/>
<use x="589.324219" xlink:href="#c"/>
<use x="650.847656" xlink:href="#h"/>
<use x="678.630859" xlink:href="#ah"/>
</g>
</g>
<g clip-path="url(#a)">
<g transform="translate(1258.1 918.45) scale(.1 -.1)">
<use xlink:href="#ac"/>
<use x="86.279297" xlink:href="#f"/>
<use x="114.0625" xlink:href="#h"/>
<use x="141.845703" xlink:href="#h"/>
<use x="169.628906" xlink:href="#f"/>
<use x="197.412109" xlink:href="#ag"/>
<use x="258.59375" xlink:href="#d"/>
<use x="321.972656" xlink:href="#c"/>
<use x="383.496094" xlink:href="#d"/>
</g>
</g>
<g clip-path="url(#a)">
<g transform="translate(1315.5 918.45) scale(.1 -.1)">
<use xlink:href="#ar"/>
<use x="63.183594" xlink:href="#f"/>
<use x="90.966797" xlink:href="#q"/>
<use x="130.175781" xlink:href="#h"/>
<use x="157.958984" xlink:href="#c"/>
</g>
</g>
<g clip-path="url(#a)">
<g transform="translate(1370.9 918.45) scale(.1 -.1)">
<use xlink:href="#aa"/>
</g>
</g>
<g clip-path="url(#a)">
<g transform="translate(1409.7 918.45) scale(.1 -.1)">
<use xlink:href="#s"/>
<use x="63.476562" xlink:href="#j"/>
<use x="124.755859" xlink:href="#x"/>
</g>
</g>
<g clip-path="url(#a)">
<defs>
<path id="bc" d="m9.0781 55.516q0 9.7656 5.8281 15.109 5.8438 5.3594 16.484 5.3594 10.156 0 15.5-5.6719 5.3594-5.6562 5.5-16.594-7.375-0.39062-11.484-3.2031-4.0938-2.8125-4.0938-7.5 0-2.2969 1.4219-4.2812 1.4219-1.9688 4.5938-4.0156l2.7812-1.8125q8.1094-5.1719 10.453-8.6406t2.3438-8.3438q0-8.4062-5.5-12.875t-15.797-4.4688q-3.125 0-6.4531 0.60938-3.3125 0.60938-6.875 1.7969v8q3.9062-1.4688 7.3125-2.1719 3.4219-0.70312 6.6094-0.70312 5.6562 0 8.5781 2.3125 2.9375 2.3281 2.9375 6.7656 0 3.0781-1.4375 5.125t-6.375 5.0781l-4.4844 2.6875q-4.6875 2.875-6.8125 6.1719t-2.125 7.75q0 6.1875 4.0781 10.391t11.438 5.625q-0.39062 5.0156-3.5938 7.75-3.1875 2.7344-8.7031 2.7344-6.3438 0-9.6719-3.3906-3.3125-3.3906-3.3125-9.7812v-55.328h-9.1406z"/>
</defs>
<g transform="translate(1451.9 918.45) scale(.1 -.1)">
<use xlink:href="#n"/>
<use x="63.378906" xlink:href="#c"/>
<use x="124.902344" xlink:href="#f"/>
<use x="152.685547" xlink:href="#bc"/>
<use x="215.673828" xlink:href="#q"/>
</g>
</g>
<g clip-path="url(#a)">
<g transform="translate(1488 918.45) scale(.1 -.1)">
<use xlink:href="#v"/>
<use x="63.378906" xlink:href="#d"/>
<use x="126.757812" xlink:href="#ap"/>
<use x="190.234375" xlink:href="#c"/>
<use x="251.757812" xlink:href="#ah"/>
<use x="286.962891" xlink:href="#ab"/>
<use x="348.242188" xlink:href="#n"/>
<use x="411.621094" xlink:href="#g"/>
</g>
</g>
<g clip-path="url(#a)">
<defs>
<path id="aw" d="m4.2031 54.688h8.9844l11.234-42.672 11.172 42.672h10.594l11.234-42.672 11.188 42.672h8.9844l-14.312-54.688h-10.594l-11.766 44.828-11.812-44.828h-10.609z"/>
</defs>
<g transform="translate(1545.5 918.45) scale(.1 -.1)">
<use xlink:href="#ao"/>
<use x="52.490234" xlink:href="#aw"/>
<use x="134.277344" xlink:href="#c"/>
<use x="195.800781" xlink:href="#f"/>
</g>
</g>
<g clip-path="url(#a)">
<g transform="translate(1578.4 918.45) scale(.1 -.1)">
<use xlink:href="#ac"/>
<use x="86.279297" xlink:href="#f"/>
<use x="114.0625" xlink:href="#h"/>
<use x="141.845703" xlink:href="#h"/>
<use x="169.628906" xlink:href="#f"/>
<use x="197.412109" xlink:href="#j"/>
<use x="258.691406" xlink:href="#g"/>
<use x="299.789062" xlink:href="#s"/>
<use x="363.265625" xlink:href="#c"/>
<use x="424.789062" xlink:href="#d"/>
</g>
</g>
<g clip-path="url(#a)">
<g transform="translate(1618.6 918.45) scale(.1 -.1)">
<use xlink:href="#ar"/>
<use x="63.183594" xlink:href="#g"/>
<use x="104.296875" xlink:href="#aw"/>
<use x="186.083984" xlink:href="#j"/>
<use x="247.363281" xlink:href="#ai"/>
<use x="302.34375" xlink:href="#n"/>
<use x="365.722656" xlink:href="#x"/>
<use x="417.822266" xlink:href="#c"/>
<use x="479.345703" xlink:href="#d"/>
<use x="542.724609" xlink:href="#c"/>
</g>
</g>
<g clip-path="url(#a)">
<defs>
<path id="i" d="m10.688 12.406h10.312v-12.406h-10.312z"/>
</defs>
<g transform="translate(1693.3 918.45) scale(.1 -.1)">
<use xlink:href="#i"/>
</g>
</g>
<g clip-path="url(#a)">
<defs>
<path id="e" d="m12.406 8.2969h16.109v55.625l-17.531-3.5156v8.9844l17.438 3.5156h9.8594v-64.609h16.109v-8.2969h-41.984z"/>
</defs>
<g transform="translate(1059.1 47.066) scale(.1 -.1)">
<use xlink:href="#e"/>
<use x="63.623047" xlink:href="#i"/>
<use x="95.410156" xlink:href="#e"/>
</g>
</g>
<g clip-path="url(#a)">
<defs>
<path id="u" d="m19.188 8.2969h34.422v-8.2969h-46.281v8.2969q5.6094 5.8125 15.297 15.594 9.7031 9.7969 12.188 12.641 4.7344 5.3125 6.6094 9 1.8906 3.6875 1.8906 7.25 0 5.8125-4.0781 9.4688-4.0781 3.6719-10.625 3.6719-4.6406 0-9.7969-1.6094-5.1406-1.6094-11-4.8906v9.9688q5.9531 2.3906 11.125 3.6094 5.1875 1.2188 9.4844 1.2188 11.328 0 18.062-5.6719 6.7344-5.6562 6.7344-15.125 0-4.5-1.6875-8.5312-1.6719-4.0156-6.125-9.4844-1.2188-1.4219-7.7656-8.1875-6.5312-6.7656-18.453-18.922z"/>
</defs>
<g transform="translate(311.93 165.33) scale(.1 -.1)">
<use xlink:href="#e"/>
<use x="63.623047" xlink:href="#i"/>
<use x="95.410156" xlink:href="#u"/>
</g>
</g>
<g clip-path="url(#a)">
<defs>
<path id="m" d="m40.578 39.312q7.0781-1.5156 11.047-6.3125 3.9844-4.7812 3.9844-11.812 0-10.781-7.4219-16.703-7.4219-5.9062-21.094-5.9062-4.5781 0-9.4375 0.90625t-10.031 2.7188v9.5156q4.0938-2.3906 8.9688-3.6094 4.8906-1.2188 10.219-1.2188 9.2656 0 14.125 3.6562t4.8594 10.641q0 6.4531-4.5156 10.078-4.5156 3.6406-12.562 3.6406h-8.5v8.1094h8.8906q7.2656 0 11.125 2.9062t3.8594 8.375q0 5.6094-3.9844 8.6094-3.9688 3.0156-11.391 3.0156-4.0625 0-8.7031-0.89062-4.6406-0.875-10.203-2.7188v8.7812q5.625 1.5625 10.531 2.3438t9.25 0.78125q11.234 0 17.766-5.1094 6.5469-5.0938 6.5469-13.781 0-6.0625-3.4688-10.234t-9.8594-5.7812z"/>
</defs>
<g transform="translate(1500.8 607.6) scale(.1 -.1)">
<use xlink:href="#e"/>
<use x="63.623047" xlink:href="#i"/>
<use x="95.410156" xlink:href="#m"/>
</g>
</g>
<g clip-path="url(#a)">
<defs>
<path id="z" d="m33.016 40.375q-6.6406 0-10.531-4.5469-3.875-4.5312-3.875-12.438 0-7.8594 3.875-12.438 3.8906-4.5625 10.531-4.5625t10.516 4.5625q3.875 4.5781 3.875 12.438 0 7.9062-3.875 12.438-3.875 4.5469-10.516 4.5469zm19.578 30.922v-8.9844q-3.7188 1.75-7.5 2.6719-3.7812 0.9375-7.5 0.9375-9.7656 0-14.922-6.5938-5.1406-6.5938-5.875-19.922 2.875 4.25 7.2188 6.5156 4.3594 2.2656 9.5781 2.2656 10.984 0 17.359-6.6719 6.375-6.6562 6.375-18.125 0-11.234-6.6406-18.031-6.6406-6.7812-17.672-6.7812-12.656 0-19.344 9.6875-6.6875 9.7031-6.6875 28.109 0 17.281 8.2031 27.562t22.016 10.281q3.7188 0 7.5-0.73438t7.8906-2.1875z"/>
</defs>
<g transform="translate(1410.6 815.31) scale(.1 -.1)">
<use xlink:href="#e"/>
<use x="63.623047" xlink:href="#i"/>
<use x="95.410156" xlink:href="#z"/>
</g>
</g>
<g clip-path="url(#a)">
<defs>
<path id="an" d="m8.2031 72.906h46.875v-4.2031l-26.469-68.703h-10.297l24.906 64.594h-35.016z"/>
</defs>
<g transform="translate(1456.7 815.31) scale(.1 -.1)">
<use xlink:href="#e"/>
<use x="63.623047" xlink:href="#i"/>
<use x="95.410156" xlink:href="#an"/>
</g>
</g>
<g clip-path="url(#a)">
<defs>
<path id="ae" d="m31.781 34.625q-7.0312 0-11.062-3.7656-4.0156-3.7656-4.0156-10.344 0-6.5938 4.0156-10.359 4.0312-3.7656 11.062-3.7656t11.078 3.7812q4.0625 3.7969 4.0625 10.344 0 6.5781-4.0312 10.344-4.0156 3.7656-11.109 3.7656zm-9.8594 4.1875q-6.3438 1.5625-9.8906 5.9062-3.5312 4.3594-3.5312 10.609 0 8.7344 6.2188 13.812 6.2344 5.0781 17.062 5.0781 10.891 0 17.094-5.0781t6.2031-13.812q0-6.25-3.5469-10.609-3.5312-4.3438-9.8281-5.9062 7.125-1.6562 11.094-6.5 3.9844-4.8281 3.9844-11.797 0-10.609-6.4688-16.281-6.4688-5.6562-18.531-5.6562-12.047 0-18.531 5.6562-6.4688 5.6719-6.4688 16.281 0 6.9688 4 11.797 4.0156 4.8438 11.141 6.5zm-3.6094 15.578q0-5.6562 3.5312-8.8281 3.5469-3.1719 9.9375-3.1719 6.3594 0 9.9375 3.1719 3.5938 3.1719 3.5938 8.8281 0 5.6719-3.5938 8.8438-3.5781 3.1719-9.9375 3.1719-6.3906 0-9.9375-3.1719-3.5312-3.1719-3.5312-8.8438z"/>
</defs>
<g transform="translate(1502.7 815.31) scale(.1 -.1)">
<use xlink:href="#e"/>
<use x="63.623047" xlink:href="#i"/>
<use x="95.410156" xlink:href="#ae"/>
</g>
</g>
<g clip-path="url(#a)">
<defs>
<path id="ad" d="m10.984 1.5156v8.9844q3.7188-1.7656 7.5156-2.6875 3.8125-0.92188 7.4844-0.92188 9.7656 0 14.906 6.5625 5.1562 6.5625 5.8906 19.953-2.8281-4.2031-7.1875-6.4531-4.3438-2.25-9.6094-2.25-10.938 0-17.312 6.6094-6.375 6.625-6.375 18.109 0 11.219 6.6406 18 6.6406 6.7969 17.672 6.7969 12.656 0 19.312-9.7031 6.6719-9.6875 6.6719-28.141 0-17.234-8.1875-27.516-8.1719-10.281-21.984-10.281-3.7188 0-7.5312 0.73438-3.7969 0.73438-7.9062 2.2031zm19.625 30.906q6.6406 0 10.516 4.5312 3.8906 4.5469 3.8906 12.469 0 7.8594-3.8906 12.422-3.875 4.5625-10.516 4.5625t-10.516-4.5625-3.875-12.422q0-7.9219 3.875-12.469 3.875-4.5312 10.516-4.5312z"/>
</defs>
<g transform="translate(1633.2 712.17) scale(.1 -.1)">
<use xlink:href="#e"/>
<use x="63.623047" xlink:href="#i"/>
<use x="95.410156" xlink:href="#ad"/>
</g>
</g>
<g clip-path="url(#a)">
<defs>
<path id="af" d="m31.781 66.406q-7.6094 0-11.453-7.5-3.8281-7.4844-3.8281-22.531 0-14.984 3.8281-22.484 3.8438-7.5 11.453-7.5 7.6719 0 11.5 7.5 3.8438 7.5 3.8438 22.484 0 15.047-3.8438 22.531-3.8281 7.5-11.5 7.5zm0 7.8125q12.266 0 18.734-9.7031 6.4688-9.6875 6.4688-28.141 0-18.406-6.4688-28.109-6.4688-9.6875-18.734-9.6875-12.25 0-18.719 9.6875-6.4688 9.7031-6.4688 28.109 0 18.453 6.4688 28.141 6.4688 9.7031 18.719 9.7031z"/>
</defs>
<g transform="translate(1568.6 815.31) scale(.1 -.1)">
<use xlink:href="#e"/>
<use x="63.623047" xlink:href="#i"/>
<use x="95.410156" xlink:href="#e"/>
<use x="159.033203" xlink:href="#af"/>
</g>
</g>
<g clip-path="url(#a)">
<g transform="translate(1637.7 815.31) scale(.1 -.1)">
<use xlink:href="#e"/>
<use x="63.623047" xlink:href="#i"/>
<use x="95.410156" xlink:href="#e"/>
<use x="159.033203" xlink:href="#e"/>
</g>
</g>
<g clip-path="url(#a)">
<g transform="translate(71.934 815.31) scale(.1 -.1)">
<use xlink:href="#e"/>
<use x="63.623047" xlink:href="#i"/>
<use x="95.410156" xlink:href="#e"/>
<use x="159.033203" xlink:href="#u"/>
</g>
</g>
<g clip-path="url(#a)">
<g transform="translate(117.99 815.31) scale(.1 -.1)">
<use xlink:href="#e"/>
<use x="63.623047" xlink:href="#i"/>
<use x="95.410156" xlink:href="#e"/>
<use x="159.033203" xlink:href="#m"/>
</g>
</g>
<g clip-path="url(#a)">
<defs>
<path id="p" d="m37.797 64.312-24.906-38.922h24.906zm-2.5938 8.5938h12.406v-47.516h10.406v-8.2031h-10.406v-17.188h-9.8125v17.188h-32.906v9.5156z"/>
</defs>
<g transform="translate(164.04 815.31) scale(.1 -.1)">
<use xlink:href="#e"/>
<use x="63.623047" xlink:href="#i"/>
<use x="95.410156" xlink:href="#e"/>
<use x="159.033203" xlink:href="#p"/>
</g>
</g>
<g clip-path="url(#a)">
<defs>
<path id="r" d="m10.797 72.906h38.719v-8.3125h-29.688v-17.859q2.1406 0.73438 4.2812 1.0938 2.1562 0.35938 4.3125 0.35938 12.203 0 19.328-6.6875 7.1406-6.6875 7.1406-18.109 0-11.766-7.3281-18.297-7.3281-6.5156-20.656-6.5156-4.5938 0-9.3594 0.78125-4.75 0.78125-9.8281 2.3438v9.9219q4.3906-2.3906 9.0781-3.5625t9.9062-1.1719q8.4531 0 13.375 4.4375 4.9375 4.4375 4.9375 12.062 0 7.6094-4.9375 12.047-4.9219 4.4531-13.375 4.4531-3.9531 0-7.8906-0.875-3.9219-0.875-8.0156-2.7344z"/>
</defs>
<g transform="translate(881.04 280.21) scale(.1 -.1)">
<use xlink:href="#e"/>
<use x="63.623047" xlink:href="#i"/>
<use x="95.410156" xlink:href="#e"/>
<use x="159.033203" xlink:href="#r"/>
</g>
</g>
<g clip-path="url(#a)">
<g transform="translate(311.19 392) scale(.1 -.1)">
<use xlink:href="#e"/>
<use x="63.623047" xlink:href="#i"/>
<use x="95.410156" xlink:href="#e"/>
<use x="159.033203" xlink:href="#z"/>
</g>
</g>
<g clip-path="url(#a)">
<g transform="translate(785.74 712.17) scale(.1 -.1)">
<use xlink:href="#e"/>
<use x="63.623047" xlink:href="#i"/>
<use x="95.410156" xlink:href="#e"/>
<use x="159.033203" xlink:href="#an"/>
</g>
</g>
<g clip-path="url(#a)">
<g transform="translate(923.89 712.17) scale(.1 -.1)">
<use xlink:href="#e"/>
<use x="63.623047" xlink:href="#i"/>
<use x="95.410156" xlink:href="#e"/>
<use x="159.033203" xlink:href="#ae"/>
</g>
</g>
<g clip-path="url(#a)">
<g transform="translate(1096.6 712.17) scale(.1 -.1)">
<use xlink:href="#e"/>
<use x="63.623047" xlink:href="#i"/>
<use x="95.410156" xlink:href="#e"/>
<use x="159.033203" xlink:href="#ad"/>
</g>
</g>
<g clip-path="url(#a)">
<g transform="translate(1280.8 712.17) scale(.1 -.1)">
<use xlink:href="#e"/>
<use x="63.623047" xlink:href="#i"/>
<use x="95.410156" xlink:href="#u"/>
<use x="159.033203" xlink:href="#af"/>
</g>
</g>
<g clip-path="url(#a)">
<g transform="translate(1246.3 815.31) scale(.1 -.1)">
<use xlink:href="#e"/>
<use x="63.623047" xlink:href="#i"/>
<use x="95.410156" xlink:href="#u"/>
<use x="159.033203" xlink:href="#z"/>
</g>
</g>
<g clip-path="url(#a)">
<g transform="translate(1315.3 815.31) scale(.1 -.1)">
<use xlink:href="#e"/>
<use x="63.623047" xlink:href="#i"/>
<use x="95.410156" xlink:href="#u"/>
<use x="159.033203" xlink:href="#an"/>
</g>
</g>
<g clip-path="url(#a)">
<g transform="translate(1062 815.31) scale(.1 -.1)">
<use xlink:href="#e"/>
<use x="63.623047" xlink:href="#i"/>
<use x="95.410156" xlink:href="#u"/>
<use x="159.033203" xlink:href="#ae"/>
</g>
</g>
<g clip-path="url(#a)">
<g transform="translate(1131.1 815.31) scale(.1 -.1)">
<use xlink:href="#e"/>
<use x="63.623047" xlink:href="#i"/>
<use x="95.410156" xlink:href="#u"/>
<use x="159.033203" xlink:href="#ad"/>
</g>
</g>
<g clip-path="url(#a)">
<g transform="translate(900.87 815.31) scale(.1 -.1)">
<use xlink:href="#e"/>
<use x="63.623047" xlink:href="#i"/>
<use x="95.410156" xlink:href="#m"/>
<use x="159.033203" xlink:href="#af"/>
</g>
</g>
<g clip-path="url(#a)">
<g transform="translate(946.92 815.31) scale(.1 -.1)">
<use xlink:href="#e"/>
<use x="63.623047" xlink:href="#i"/>
<use x="95.410156" xlink:href="#m"/>
<use x="159.033203" xlink:href="#e"/>
</g>
</g>
<g clip-path="url(#a)">
<g transform="translate(762.71 815.31) scale(.1 -.1)">
<use xlink:href="#e"/>
<use x="63.623047" xlink:href="#i"/>
<use x="95.410156" xlink:href="#m"/>
<use x="159.033203" xlink:href="#u"/>
</g>
</g>
<g clip-path="url(#a)">
<g transform="translate(808.76 815.31) scale(.1 -.1)">
<use xlink:href="#e"/>
<use x="63.623047" xlink:href="#i"/>
<use x="95.410156" xlink:href="#m"/>
<use x="159.033203" xlink:href="#m"/>
</g>
</g>
<g clip-path="url(#a)">
<g transform="translate(210.09 815.31) scale(.1 -.1)">
<use xlink:href="#e"/>
<use x="63.623047" xlink:href="#i"/>
<use x="95.410156" xlink:href="#m"/>
<use x="159.033203" xlink:href="#p"/>
</g>
</g>
<g clip-path="url(#a)">
<g transform="translate(256.14 815.31) scale(.1 -.1)">
<use xlink:href="#e"/>
<use x="63.623047" xlink:href="#i"/>
<use x="95.410156" xlink:href="#m"/>
<use x="159.033203" xlink:href="#r"/>
</g>
</g>
<g clip-path="url(#a)">
<g transform="translate(476.33 501.01) scale(.1 -.1)">
<use xlink:href="#e"/>
<use x="63.623047" xlink:href="#i"/>
<use x="95.410156" xlink:href="#m"/>
<use x="159.033203" xlink:href="#z"/>
</g>
</g>
<g clip-path="url(#a)">
<g transform="translate(233.12 712.17) scale(.1 -.1)">
<use xlink:href="#e"/>
<use x="63.623047" xlink:href="#i"/>
<use x="95.410156" xlink:href="#m"/>
<use x="159.033203" xlink:href="#ae"/>
</g>
</g>
<g clip-path="url(#a)">
<g transform="translate(486.4 815.31) scale(.1 -.1)">
<use xlink:href="#e"/>
<use x="63.623047" xlink:href="#i"/>
<use x="95.410156" xlink:href="#m"/>
<use x="159.033203" xlink:href="#ad"/>
</g>
</g>
<g clip-path="url(#a)">
<g transform="translate(745.44 607.6) scale(.1 -.1)">
<use xlink:href="#e"/>
<use x="63.623047" xlink:href="#i"/>
<use x="95.410156" xlink:href="#p"/>
<use x="159.033203" xlink:href="#af"/>
</g>
</g>
<g clip-path="url(#a)">
<g transform="translate(302.19 815.31) scale(.1 -.1)">
<use xlink:href="#e"/>
<use x="63.623047" xlink:href="#i"/>
<use x="95.410156" xlink:href="#p"/>
<use x="159.033203" xlink:href="#e"/>
</g>
</g>
<g clip-path="url(#a)">
<defs>
<path id="aq" d="m9.8125 72.906h9.8594v-72.906h-9.8594z"/>
</defs>
<g transform="translate(1719.8 918.45) scale(.1 -.1)">
<use xlink:href="#aq"/>
<use x="29.492188" xlink:href="#ac"/>
<use x="115.771484" xlink:href="#ak"/>
<use x="176.074219" xlink:href="#at"/>
<use x="231.787109" xlink:href="#aq"/>
<use x="261.279297" xlink:href="#o"/>
<use x="331.103516" xlink:href="#aq"/>
<use x="360.595703" xlink:href="#l"/>
</g>
</g>
<g clip-path="url(#a)">
<g transform="translate(555.48 712.17) scale(.1 -.1)">
<use xlink:href="#e"/>
<use x="63.623047" xlink:href="#i"/>
<use x="95.410156" xlink:href="#p"/>
<use x="159.033203" xlink:href="#m"/>
</g>
</g>
<g clip-path="url(#a)">
<g transform="translate(624.56 815.31) scale(.1 -.1)">
<use xlink:href="#e"/>
<use x="63.623047" xlink:href="#i"/>
<use x="95.410156" xlink:href="#p"/>
<use x="159.033203" xlink:href="#p"/>
</g>
</g>
<g clip-path="url(#a)">
<g transform="translate(532.45 815.31) scale(.1 -.1)">
<use xlink:href="#e"/>
<use x="63.623047" xlink:href="#i"/>
<use x="95.410156" xlink:href="#p"/>
<use x="159.033203" xlink:href="#r"/>
</g>
</g>
<g clip-path="url(#a)">
<g transform="translate(578.5 815.31) scale(.1 -.1)">
<use xlink:href="#e"/>
<use x="63.623047" xlink:href="#i"/>
<use x="95.410156" xlink:href="#p"/>
<use x="159.033203" xlink:href="#z"/>
</g>
</g>
<g clip-path="url(#a)">
<g transform="translate(348.24 815.31) scale(.1 -.1)">
<use xlink:href="#e"/>
<use x="63.623047" xlink:href="#i"/>
<use x="95.410156" xlink:href="#p"/>
<use x="159.033203" xlink:href="#an"/>
</g>
</g>
<g clip-path="url(#a)">
<g transform="translate(394.3 815.31) scale(.1 -.1)">
<use xlink:href="#e"/>
<use x="63.623047" xlink:href="#i"/>
<use x="95.410156" xlink:href="#p"/>
<use x="159.033203" xlink:href="#ae"/>
</g>
</g>
<g clip-path="url(#a)">
<g transform="translate(440.35 815.31) scale(.1 -.1)">
<use xlink:href="#e"/>
<use x="63.623047" xlink:href="#i"/>
<use x="95.410156" xlink:href="#p"/>
<use x="159.033203" xlink:href="#ad"/>
</g>
</g>
<g clip-path="url(#a)">
<g transform="translate(670.61 815.31) scale(.1 -.1)">
<use xlink:href="#e"/>
<use x="63.623047" xlink:href="#i"/>
<use x="95.410156" xlink:href="#r"/>
<use x="159.033203" xlink:href="#af"/>
</g>
</g>
<g clip-path="url(#a)">
<g transform="translate(716.66 815.31) scale(.1 -.1)">
<use xlink:href="#e"/>
<use x="63.623047" xlink:href="#i"/>
<use x="95.410156" xlink:href="#r"/>
<use x="159.033203" xlink:href="#e"/>
</g>
</g>
<g clip-path="url(#a)">
<g transform="translate(854.82 815.31) scale(.1 -.1)">
<use xlink:href="#e"/>
<use x="63.623047" xlink:href="#i"/>
<use x="95.410156" xlink:href="#r"/>
<use x="159.033203" xlink:href="#u"/>
</g>
</g>
<g clip-path="url(#a)">
<g transform="translate(992.97 815.31) scale(.1 -.1)">
<use xlink:href="#e"/>
<use x="63.623047" xlink:href="#i"/>
<use x="95.410156" xlink:href="#r"/>
<use x="159.033203" xlink:href="#m"/>
</g>
</g>
<g clip-path="url(#a)">
<g transform="translate(1177.2 815.31) scale(.1 -.1)">
<use xlink:href="#e"/>
<use x="63.623047" xlink:href="#i"/>
<use x="95.410156" xlink:href="#r"/>
<use x="159.033203" xlink:href="#p"/>
</g>
</g>
<g clip-path="url(#a)">
<g transform="translate(1361.4 815.31) scale(.1 -.1)">
<use xlink:href="#e"/>
<use x="63.623047" xlink:href="#i"/>
<use x="95.410156" xlink:href="#r"/>
<use x="159.033203" xlink:href="#r"/>
</g>
</g>
<g clip-path="url(#a)">
<g transform="translate(1683.7 815.31) scale(.1 -.1)">
<use xlink:href="#e"/>
<use x="63.623047" xlink:href="#i"/>
<use x="95.410156" xlink:href="#r"/>
<use x="159.033203" xlink:href="#z"/>
</g>
</g>
<defs>
<clipPath id="a">
<rect width="1824" height="960"/>
</clipPath>
</defs>
</svg>
