<?xml version="1.0" encoding="UTF-8"?>
<!DOCTYPE svg  PUBLIC '-//W3C//DTD SVG 1.1//EN'  'http://www.w3.org/Graphics/SVG/1.1/DTD/svg11.dtd'>
<svg width="2128pt" height="1120pt" version="1.1" viewBox="0 0 2128 1120" xmlns="http://www.w3.org/2000/svg" xmlns:xlink="http://www.w3.org/1999/xlink">
<defs>
<style type="text/css">*{stroke-linecap:butt;stroke-linejoin:round;}</style>
</defs>
<path d="m0 1120h2128v-1120h-2128z" fill="#fff"/>
<g fill="none" stroke="#000">
<path d="m1228.6 51.823-864.82 351.62" clip-path="url(#a)"/>
<path d="m1228.6 51.823 579.79 178.02" clip-path="url(#a)"/>
<path d="m1228.6 51.823 0.49143 852.11" clip-path="url(#a)"/>
<path d="m1228.6 51.823 47.669 852.11" clip-path="url(#a)"/>
<path d="m1228.6 51.823 94.846 852.11" clip-path="url(#a)"/>
<path d="m1228.6 51.823 142.02 852.11" clip-path="url(#a)"/>
<path d="m363.81 403.44-219.77 336.26" clip-path="url(#a)"/>
<path d="m363.81 403.44-125.41 500.5" clip-path="url(#a)"/>
<path d="m363.81 403.44 438.36 169.73" clip-path="url(#a)"/>
<path d="m363.81 403.44-78.236 500.5" clip-path="url(#a)"/>
<path d="m363.81 403.44-31.058 500.5" clip-path="url(#a)"/>
<path d="m363.81 403.44 16.119 500.5" clip-path="url(#a)"/>
<path d="m1808.4 229.84-277.56 173.6" clip-path="url(#a)"/>
<path d="m1808.4 229.84 81.184 674.1" clip-path="url(#a)"/>
<path d="m1808.4 229.84 175.54 509.86" clip-path="url(#a)"/>
<path d="m1808.4 229.84-13.17 674.1" clip-path="url(#a)"/>
<path d="m1808.4 229.84 34.007 674.1" clip-path="url(#a)"/>
<path d="m1530.9 403.44-113.03 500.5" clip-path="url(#a)"/>
<path d="m1530.9 403.44-65.852 500.5" clip-path="url(#a)"/>
<path d="m1530.9 403.44-18.674 500.5" clip-path="url(#a)"/>
<path d="m1530.9 403.44 28.503 500.5" clip-path="url(#a)"/>
<path d="m1530.9 403.44 75.68 500.5" clip-path="url(#a)"/>
<path d="m1530.9 403.44 93.372 169.73" clip-path="url(#a)"/>
<path d="m1889.6 903.94v164.24" clip-path="url(#a)"/>
<path d="m1984 739.7-47.177 164.24" clip-path="url(#a)"/>
<path d="m1984 739.7v164.24" clip-path="url(#a)"/>
<path d="m1984 739.7 47.177 164.24" clip-path="url(#a)"/>
<path d="m1936.8 903.94v164.24" clip-path="url(#a)"/>
<path d="m1984 903.94v164.24" clip-path="url(#a)"/>
<path d="m1417.8 903.94v164.24" clip-path="url(#a)"/>
<path d="m1465 903.94v164.24" clip-path="url(#a)"/>
<path d="m1512.2 903.94v164.24" clip-path="url(#a)"/>
<path d="m1559.4 903.94v164.24" clip-path="url(#a)"/>
<path d="m1606.5 903.94v164.24" clip-path="url(#a)"/>
<path d="m1624.2 573.17-112.05 330.76" clip-path="url(#a)" stroke-dasharray="3.7,1.6"/>
<path d="m1624.2 573.17-17.691 330.76" clip-path="url(#a)" stroke-dasharray="3.7,1.6"/>
<path d="m1624.2 573.17 29.486 330.76" clip-path="url(#a)"/>
<path d="m1624.2 573.17 100.25 166.52" clip-path="url(#a)"/>
<path d="m1653.7 903.94v164.24" clip-path="url(#a)"/>
<path d="m1724.5 739.7-23.589 164.24" clip-path="url(#a)"/>
<path d="m1724.5 739.7 23.589 164.24" clip-path="url(#a)"/>
<path d="m1700.9 903.94v164.24" clip-path="url(#a)"/>
<path d="m1748.1 903.94v164.24" clip-path="url(#a)"/>
<path d="m144.04 739.7-47.177 164.24" clip-path="url(#a)"/>
<path d="m144.04 739.7v164.24" clip-path="url(#a)"/>
<path d="m144.04 739.7 47.177 164.24" clip-path="url(#a)"/>
<path d="m238.4 903.94v164.24" clip-path="url(#a)"/>
<path d="m802.17 573.17-280.7 166.52" clip-path="url(#a)"/>
<path d="m802.17 573.17-3.5383 166.52" clip-path="url(#a)"/>
<path d="m802.17 573.17 279.53 166.52" clip-path="url(#a)"/>
<path d="m802.17 573.17-139.17 330.76" clip-path="url(#a)"/>
<path d="m802.17 573.17 143.89 330.76" clip-path="url(#a)"/>
<path d="m521.46 739.7-94.355 164.24" clip-path="url(#a)"/>
<path d="m521.46 739.7-47.177 164.24" clip-path="url(#a)"/>
<path d="m521.46 739.7v164.24" clip-path="url(#a)"/>
<path d="m521.46 739.7 47.177 164.24" clip-path="url(#a)"/>
<path d="m521.46 739.7 94.355 164.24" clip-path="url(#a)"/>
<path d="m798.63 739.7-88.457 164.24" clip-path="url(#a)"/>
<path d="m798.63 739.7-41.28 164.24" clip-path="url(#a)"/>
<path d="m798.63 739.7 29.486 164.24" clip-path="url(#a)"/>
<path d="m798.63 739.7 100.25 164.24" clip-path="url(#a)"/>
<path d="m1081.7 739.7-88.457 164.24" clip-path="url(#a)"/>
<path d="m1081.7 739.7-41.28 164.24" clip-path="url(#a)"/>
<path d="m1081.7 739.7 29.486 164.24" clip-path="url(#a)"/>
<path d="m1081.7 739.7 100.25 164.24" clip-path="url(#a)"/>
<path d="m993.23 903.94v164.24" clip-path="url(#a)"/>
<path d="m1040.4 903.94v164.24" clip-path="url(#a)"/>
<path d="m1111.2 903.94-23.589 164.24" clip-path="url(#a)"/>
<path d="m1111.2 903.94 23.589 164.24" clip-path="url(#a)"/>
<path d="m1181.9 903.94v164.24" clip-path="url(#a)"/>
<path d="m710.17 903.94v164.24" clip-path="url(#a)"/>
<path d="m757.35 903.94v164.24" clip-path="url(#a)"/>
<path d="m828.11 903.94-23.589 164.24" clip-path="url(#a)"/>
<path d="m828.11 903.94 23.589 164.24" clip-path="url(#a)"/>
<path d="m898.88 903.94v164.24" clip-path="url(#a)"/>
<path d="m427.11 903.94v164.24" clip-path="url(#a)"/>
<path d="m474.28 903.94v164.24" clip-path="url(#a)"/>
<path d="m521.46 903.94v164.24" clip-path="url(#a)"/>
<path d="m568.64 903.94v164.24" clip-path="url(#a)"/>
<path d="m615.82 903.94v164.24" clip-path="url(#a)"/>
<path d="m96.866 903.94v164.24" clip-path="url(#a)"/>
<path d="m144.04 903.94v164.24" clip-path="url(#a)"/>
<path d="m191.22 903.94v164.24" clip-path="url(#a)"/>
<path d="m285.57 903.94v164.24" clip-path="url(#a)"/>
<path d="m332.75 903.94v164.24" clip-path="url(#a)"/>
<path d="m379.93 903.94v164.24" clip-path="url(#a)"/>
<path d="m662.99 903.94v164.24" clip-path="url(#a)"/>
<path d="m946.06 903.94v164.24" clip-path="url(#a)"/>
<path d="m1229.1 903.94v164.24" clip-path="url(#a)"/>
<path d="m1276.3 903.94v164.24" clip-path="url(#a)"/>
<path d="m1323.5 903.94v164.24" clip-path="url(#a)"/>
<path d="m1370.7 903.94v164.24" clip-path="url(#a)"/>
<path d="m1795.2 903.94v164.24" clip-path="url(#a)"/>
<path d="m1842.4 903.94v164.24" clip-path="url(#a)"/>
<path d="m2031.1 903.94v164.24" clip-path="url(#a)"/>
</g>
<path d="m795.8 234.57 5.5732-2.2659q2.2233-0.90393 1.3193-3.1272l-2.9161-7.1723q-0.90393-2.2233-3.1272-1.3193l-5.5732 2.2659q-2.2233 0.90393-1.3193 3.1272l2.9161 7.1723q0.90393 2.2233 3.1272 1.3193z" clip-path="url(#a)" fill="#fff" stroke="#fff"/>
<g clip-path="url(#a)">
<defs>
<path id="z" d="m9.8125 72.906h9.8594v-29.891h35.844v29.891h9.8594v-72.906h-9.8594v34.719h-35.844v-34.719h-9.8594z"/>
</defs>
<g transform="translate(794.26 230.81) rotate(-22.126) scale(.08 -.08)">
<use xlink:href="#z"/>
</g>
</g>
<path d="m1513.8 145.94 5.7513 1.7659q2.2943 0.70444 2.9987-1.5899l2.2725-7.4015q0.70444-2.2943-1.5899-2.9987l-5.7513-1.7659q-2.2943-0.70444-2.9987 1.5899l-2.2725 7.4015q-0.70444 2.2943 1.5899 2.9987z" clip-path="url(#a)" fill="#fff" stroke="#fff"/>
<g clip-path="url(#a)">
<g transform="translate(1515 142.06) rotate(17.069) scale(.08 -.08)">
<use xlink:href="#z"/>
</g>
</g>
<path d="m1222.6 474.96 0.003377 5.855q0.001384 2.4 2.4014 2.3986l7.7425-0.004465q2.4-0.001384 2.3986-2.4014l-0.003377-5.855q-0.001384-2.4-2.4014-2.3986l-7.7425 0.004466q-2.4 0.001384-2.3986 2.4014z" clip-path="url(#a)" fill="#fff" stroke="#fff"/>
<g clip-path="url(#a)">
<defs>
<path id="q" d="m8.6875 72.906h9.9219v-44.297q0-11.719 4.2344-16.875 4.25-5.1406 13.781-5.1406 9.4688 0 13.719 5.1406 4.25 5.1562 4.25 16.875v44.297h9.9062v-45.516q0-14.25-7.0625-21.531-7.0469-7.2812-20.812-7.2812-13.828 0-20.891 7.2812-7.0469 7.2812-7.0469 21.531z"/>
</defs>
<g transform="translate(1226.7 474.95) rotate(89.967) scale(.08 -.08)">
<use xlink:href="#q"/>
</g>
</g>
<path d="m1246 475.31 0.32703 5.8459q0.13405 2.3963 2.5303 2.2622l7.7304-0.43245q2.3963-0.13405 2.2622-2.5303l-0.32703-5.8459q-0.13405-2.3963-2.5303-2.2622l-7.7304 0.43245q-2.3963 0.13405-2.2622 2.5303z" clip-path="url(#a)" fill="#fff" stroke="#fff"/>
<g clip-path="url(#a)">
<g transform="translate(1250.1 475.08) rotate(86.798) scale(.08 -.08)">
<use xlink:href="#q"/>
</g>
</g>
<path d="m1269.5 475.66 0.6477 5.8191q0.2655 2.3853 2.6508 2.1198l7.695-0.8565q2.3853-0.2655 2.1198-2.6508l-0.6477-5.8191q-0.2655-2.3853-2.6508-2.1198l-7.695 0.8565q-2.3853 0.2655-2.1198 2.6508z" clip-path="url(#a)" fill="#fff" stroke="#fff"/>
<g clip-path="url(#a)">
<g transform="translate(1273.5 475.21) rotate(83.649) scale(.08 -.08)">
<use xlink:href="#q"/>
</g>
</g>
<path d="m1293 476.02 0.96258 5.7753q0.39457 2.3673 2.7619 1.9728l7.6371-1.2729q2.3673-0.39457 1.9728-2.7619l-0.96258-5.7753q-0.39457-2.3673-2.7619-1.9728l-7.6371 1.2729q-2.3673 0.39457-1.9728 2.7619z" clip-path="url(#a)" fill="#fff" stroke="#fff"/>
<g clip-path="url(#a)">
<g transform="translate(1297 475.36) rotate(80.537) scale(.08 -.08)">
<use xlink:href="#q"/>
</g>
</g>
<path d="m257.68 577.29 2.9939-4.5809q1.313-2.009-0.69597-3.322l-6.4811-4.2358q-2.009-1.313-3.322 0.69597l-2.9939 4.5809q-1.313 2.009 0.69597 3.322l6.4811 4.2358q2.009 1.313 3.322-0.69597z" clip-path="url(#a)" fill="#fff" stroke="#fff"/>
<g clip-path="url(#a)">
<defs>
<path id="p" d="m34.188 63.188-13.391-36.281h26.812zm-5.5781 9.7188h11.188l27.781-72.906h-10.25l-6.6406 18.703h-32.859l-6.6406-18.703h-10.406z"/>
</defs>
<g transform="translate(254.28 575.07) rotate(-56.833) scale(.08 -.08)">
<use xlink:href="#p"/>
</g>
</g>
<path d="m306.6 657.55 1.1725-4.6791q0.58335-2.328-1.7447-2.9114l-7.5103-1.8819q-2.328-0.58335-2.9114 1.7447l-1.1725 4.6791q-0.58335 2.328 1.7447 2.9114l7.5103 1.8819q2.328 0.58335 2.9114-1.7447z" clip-path="url(#a)" fill="#fff" stroke="#fff"/>
<g clip-path="url(#a)">
<defs>
<path id="x" d="m19.672 64.797v-27.391h12.406q6.8906 0 10.641 3.5625 3.7656 3.5625 3.7656 10.156 0 6.5469-3.7656 10.109-3.75 3.5625-10.641 3.5625zm-9.8594 8.1094h22.266q12.266 0 18.531-5.5469 6.2812-5.5469 6.2812-16.234 0-10.797-6.2812-16.312-6.2656-5.5156-18.531-5.5156h-12.406v-29.297h-9.8594z"/>
</defs>
<g transform="translate(302.66 656.56) rotate(-75.933) scale(.08 -.08)">
<use xlink:href="#x"/>
</g>
</g>
<path d="m578.17 493.17 5.1033 1.976q2.2381 0.86659 3.1047-1.3715l2.7956-7.2202q0.86659-2.2381-1.3715-3.1047l-5.1033-1.976q-2.2381-0.86659-3.1047 1.3715l-2.7956 7.2202q-0.86659 2.2381 1.3715 3.1047z" clip-path="url(#a)" fill="#fff" stroke="#fff"/>
<g clip-path="url(#a)">
<g transform="translate(579.64 489.38) rotate(21.166) scale(.08 -.08)">
<use xlink:href="#p"/>
</g>
</g>
<path d="m330.44 657.55 0.90425-5.7848q0.37066-2.3712-2.0005-2.7419l-7.6496-1.1958q-2.3712-0.37066-2.7419 2.0005l-0.90425 5.7848q-0.37066 2.3712 2.0005 2.7419l7.6496 1.1958q2.3712 0.37066 2.7419-2.0005z" clip-path="url(#a)" fill="#fff" stroke="#fff"/>
<g clip-path="url(#a)">
<g transform="translate(326.42 656.92) rotate(-81.116) scale(.08 -.08)">
<use xlink:href="#q"/>
</g>
</g>
<path d="m354.36 657 0.36264-5.8438q0.14865-2.3954-2.2467-2.544l-7.7276-0.47954q-2.3954-0.14865-2.544 2.2467l-0.36264 5.8438q-0.14865 2.3954 2.2467 2.544l7.7276 0.47954q2.3954 0.14865 2.544-2.2467z" clip-path="url(#a)" fill="#fff" stroke="#fff"/>
<g clip-path="url(#a)">
<g transform="translate(350.3 656.75) rotate(-86.449) scale(.08 -.08)">
<use xlink:href="#q"/>
</g>
</g>
<path d="m365.51 650.96 0.18847 5.852q0.077254 2.3988 2.476 2.3215l7.7385-0.24922q2.3988-0.077254 2.3215-2.476l-0.18847-5.852q-0.077254-2.3988-2.476-2.3215l-7.7385 0.24922q-2.3988 0.077254-2.3215 2.476z" clip-path="url(#a)" fill="#fff" stroke="#fff"/>
<g clip-path="url(#a)">
<g transform="translate(369.57 650.83) rotate(88.155) scale(.08 -.08)">
<use xlink:href="#q"/>
</g>
</g>
<path d="m1670.6 323.41 4.6397-2.9019q2.0348-1.2727 0.76214-3.3074l-4.1056-6.5643q-1.2727-2.0348-3.3074-0.76214l-4.6397 2.9019q-2.0348 1.2727-0.76214 3.3074l4.1056 6.5643q1.2727 2.0348 3.3074 0.76214z" clip-path="url(#a)" fill="#fff" stroke="#fff"/>
<g clip-path="url(#a)">
<g transform="translate(1668.5 319.96) rotate(-32.024) scale(.08 -.08)">
<use xlink:href="#p"/>
</g>
</g>
<path d="m1842.5 565.24 0.57678 4.7891q0.28697 2.3828 2.6698 2.0958l7.687-0.92577q2.3828-0.28697 2.0958-2.6698l-0.57678-4.7891q-0.28697-2.3828-2.6698-2.0958l-7.687 0.92577q-2.3828 0.28697-2.0958 2.6698z" clip-path="url(#a)" fill="#fff" stroke="#fff"/>
<g clip-path="url(#a)">
<g transform="translate(1846.5 564.76) rotate(83.133) scale(.08 -.08)">
<use xlink:href="#x"/>
</g>
</g>
<path d="m1889.4 484.22 1.7815 5.1744q0.78129 2.2693 3.0506 1.488l7.3208-2.5205q2.2693-0.78129 1.488-3.0506l-1.7815-5.1744q-0.78129-2.2693-3.0506-1.488l-7.3208 2.5205q-2.2693 0.78129-1.488 3.0506z" clip-path="url(#a)" fill="#fff" stroke="#fff"/>
<g clip-path="url(#a)">
<g transform="translate(1893.2 482.9) rotate(71.002) scale(.08 -.08)">
<use xlink:href="#p"/>
</g>
</g>
<path d="m1808 569.94 0.11437-5.8539q0.046882-2.3995-2.3527-2.4464l-7.741-0.15124q-2.3995-0.046882-2.4464 2.3527l-0.11437 5.8539q-0.046882 2.3995 2.3527 2.4464l7.741 0.15124q2.3995 0.046882 2.4464-2.3527z" clip-path="url(#a)" fill="#fff" stroke="#fff"/>
<g clip-path="url(#a)">
<g transform="translate(1804 569.86) rotate(-88.881) scale(.08 -.08)">
<use xlink:href="#q"/>
</g>
</g>
<path d="m1819 564.28 0.295 5.8476q0.12092 2.397 2.5179 2.276l7.7327-0.3901q2.397-0.12092 2.276-2.5179l-0.295-5.8476q-0.12092-2.397-2.5179-2.276l-7.7327 0.3901q-2.397 0.12092-2.276 2.5179z" clip-path="url(#a)" fill="#fff" stroke="#fff"/>
<g clip-path="url(#a)">
<g transform="translate(1823.1 564.08) rotate(87.112) scale(.08 -.08)">
<use xlink:href="#q"/>
</g>
</g>
<path d="m1479.9 657.74 1.2055-5.3381q0.52869-2.341-1.8124-2.8697l-7.5523-1.7056q-2.341-0.52869-2.8697 1.8124l-1.2055 5.3381q-0.52869 2.341 1.8124 2.8697l7.5523 1.7056q2.341 0.52869 2.8697-1.8124z" clip-path="url(#a)" fill="#fff" stroke="#fff"/>
<g clip-path="url(#a)">
<g transform="translate(1475.9 656.84) rotate(-77.274) scale(.08 -.08)">
<use xlink:href="#p"/>
</g>
</g>
<path d="m1503.7 657.56 0.80356-6.1074q0.31308-2.3795-2.0664-2.6926l-7.6763-1.01q-2.3795-0.31308-2.6926 2.0664l-0.80356 6.1074q-0.31308 2.3795 2.0664 2.6926l7.6763 1.01q2.3795 0.31308 2.6926-2.0664z" clip-path="url(#a)" fill="#fff" stroke="#fff"/>
<g clip-path="url(#a)">
<defs>
<path id="s" d="m19.672 64.797v-56.688h11.922q15.094 0 22.094 6.8281 7 6.8438 7 21.594 0 14.641-7 21.453t-22.094 6.8125zm-9.8594 8.1094h20.266q21.188 0 31.094-8.8125 9.9219-8.8125 9.9219-27.562 0-18.859-9.9688-27.703-9.9531-8.8281-31.047-8.8281h-20.266z"/>
</defs>
<g transform="translate(1499.7 657.03) rotate(-82.504) scale(.08 -.08)">
<use xlink:href="#s"/>
</g>
</g>
<path d="m1527.7 656.66 0.20405-5.4687q0.089485-2.3983-2.3088-2.4878l-7.7371-0.28868q-2.3983-0.089485-2.4878 2.3088l-0.20405 5.4687q-0.089486 2.3983 2.3088 2.4878l7.7371 0.28868q2.3983 0.089486 2.4878-2.3088z" clip-path="url(#a)" fill="#fff" stroke="#fff"/>
<g clip-path="url(#a)">
<g transform="translate(1523.6 656.5) rotate(-87.863) scale(.08 -.08)">
<use xlink:href="#p"/>
</g>
</g>
<path d="m1538.7 650.97 0.35024 6.15q0.13646 2.3961 2.5326 2.2597l7.73-0.44022q2.3961-0.13646 2.2597-2.5326l-0.35024-6.15q-0.13646-2.3961-2.5326-2.2597l-7.73 0.44022q-2.3961 0.13646-2.2597 2.5326z" clip-path="url(#a)" fill="#fff" stroke="#fff"/>
<g clip-path="url(#a)">
<g transform="translate(1542.7 650.74) rotate(86.741) scale(.08 -.08)">
<use xlink:href="#s"/>
</g>
</g>
<path d="m1562.1 652.24 0.7212 4.7695q0.35883 2.373 2.7318 2.0142l7.6555-1.1576q2.373-0.35883 2.0142-2.7318l-0.7212-4.7695q-0.35883-2.373-2.7318-2.0142l-7.6555 1.1576q-2.373 0.35883-2.0142 2.7318z" clip-path="url(#a)" fill="#fff" stroke="#fff"/>
<g clip-path="url(#a)">
<g transform="translate(1566.2 651.63) rotate(81.401) scale(.08 -.08)">
<use xlink:href="#x"/>
</g>
</g>
<path d="m1570.7 488.93 2.6377 4.7949q1.1568 2.1028 3.2596 0.94603l6.7838-3.7319q2.1028-1.1568 0.94603-3.2596l-2.6377-4.7949q-1.1568-2.1028-3.2596-0.94603l-6.7838 3.7319q-2.1028 1.1568-0.94603 3.2596z" clip-path="url(#a)" fill="#fff" stroke="#fff"/>
<g clip-path="url(#a)">
<g transform="translate(1574.3 486.97) rotate(61.184) scale(.08 -.08)">
<use xlink:href="#p"/>
</g>
</g>
<path d="m1883.3 968.41v35.285q0 2.4 2.4 2.4h7.7425q2.4 0 2.4-2.4v-35.285q0-2.4-2.4-2.4h-7.7425q-2.4 0-2.4 2.4z" clip-path="url(#a)" fill="#fff" stroke="#fff"/>
<g clip-path="url(#a)">
<defs>
<path id="l" d="m-0.29688 72.906h61.672v-8.3125h-25.875v-64.594h-9.9062v64.594h-25.891z"/>
<path id="e" d="m56.203 29.594v-4.3906h-41.312q0.59375-9.2812 5.5938-14.141t13.938-4.8594q5.1719 0 10.031 1.2656t9.6562 3.8125v-8.5q-4.8438-2.0469-9.9219-3.125t-10.297-1.0781q-13.094 0-20.734 7.6094-7.6406 7.625-7.6406 20.625 0 13.422 7.25 21.297 7.25 7.8906 19.562 7.8906 11.031 0 17.453-7.1094 6.4219-7.0938 6.4219-19.297zm-8.9844 2.6406q-0.09375 7.3594-4.125 11.75-4.0312 4.4062-10.672 4.4062-7.5156 0-12.031-4.25t-5.2031-11.969z"/>
<path id="i" d="m41.109 46.297q-1.5156 0.875-3.2969 1.2812-1.7812 0.42188-3.9219 0.42188-7.625 0-11.703-4.9531t-4.0781-14.234v-28.812h-9.0312v54.688h9.0312v-8.5q2.8438 4.9844 7.375 7.3906 4.5469 2.4219 11.047 2.4219 0.92188 0 2.0469-0.125 1.125-0.10938 2.4844-0.35938z"/>
<path id="k" d="m52 44.188q3.375 6.0625 8.0625 8.9375t11.031 2.875q8.5469 0 13.188-5.9844 4.6406-5.9688 4.6406-17v-33.016h-9.0312v32.719q0 7.8594-2.7969 11.656-2.7812 3.8125-8.4844 3.8125-6.9844 0-11.047-4.6406-4.0469-4.625-4.0469-12.641v-30.906h-9.0312v32.719q0 7.9062-2.7812 11.688t-8.5938 3.7812q-6.8906 0-10.953-4.6562-4.0469-4.6562-4.0469-12.625v-30.906h-9.0312v54.688h9.0312v-8.5q3.0781 5.0312 7.375 7.4219t10.203 2.3906q5.9688 0 10.141-3.0312 4.1719-3.0156 6.1719-8.7812z"/>
<path id="g" d="m9.4219 54.688h8.9844v-54.688h-8.9844zm0 21.297h8.9844v-11.391h-8.9844z"/>
<path id="f" d="m54.891 33.016v-33.016h-8.9844v32.719q0 7.7656-3.0312 11.609-3.0312 3.8594-9.0781 3.8594-7.2812 0-11.484-4.6406-4.2031-4.625-4.2031-12.641v-30.906h-9.0312v54.688h9.0312v-8.5q3.2344 4.9375 7.5938 7.375 4.375 2.4375 10.094 2.4375 9.4219 0 14.25-5.8281 4.8438-5.8281 4.8438-17.156z"/>
<path id="h" d="m34.281 27.484q-10.891 0-15.094-2.4844t-4.2031-8.5q0-4.7812 3.1562-7.5938 3.1562-2.7969 8.5625-2.7969 7.4844 0 12 5.2969t4.5156 14.078v2zm17.922 3.7188v-31.203h-8.9844v8.2969q-3.0781-4.9688-7.6719-7.3438t-11.234-2.375q-8.3906 0-13.359 4.7188-4.9531 4.7188-4.9531 12.625 0 9.2188 6.1719 13.906 6.1875 4.6875 18.438 4.6875h12.609v0.89062q0 6.2031-4.0781 9.5938t-11.453 3.3906q-4.6875 0-9.1406-1.125-4.4375-1.125-8.5312-3.375v8.3125q4.9219 1.9062 9.5625 2.8438 4.6406 0.95312 9.0312 0.95312 11.875 0 17.734-6.1562 5.8594-6.1406 5.8594-18.641z"/>
<path id="j" d="m9.4219 75.984h8.9844v-75.984h-8.9844z"/>
</defs>
<g transform="translate(1887.4 968.41) rotate(90) scale(.08 -.08)">
<use xlink:href="#l"/>
<use x="60.818359" xlink:href="#e"/>
<use x="122.341797" xlink:href="#i"/>
<use x="163.439453" xlink:href="#k"/>
<use x="260.851562" xlink:href="#g"/>
<use x="288.634766" xlink:href="#f"/>
<use x="352.013672" xlink:href="#h"/>
<use x="413.292969" xlink:href="#j"/>
</g>
</g>
<path d="m1965.8 825.76 1.2703-4.4224q0.6626-2.3067-1.6441-2.9693l-7.4416-2.1376q-2.3067-0.6626-2.9693 1.6441l-1.2703 4.4224q-0.6626 2.3067 1.6441 2.9693l7.4416 2.1376q2.3067 0.6626 2.9693-1.6441z" clip-path="url(#a)" fill="#fff" stroke="#fff"/>
<g clip-path="url(#a)">
<defs>
<path id="aa" d="m9.8125 72.906h41.891v-8.3125h-32.031v-21.484h28.906v-8.2969h-28.906v-34.812h-9.8594z"/>
</defs>
<g transform="translate(1961.9 824.64) rotate(-73.974) scale(.08 -.08)">
<use xlink:href="#aa"/>
</g>
</g>
<path d="m1977.7 819.02v5.5862q0 2.4 2.4 2.4h7.7425q2.4 0 2.4-2.4v-5.5862q0-2.4-2.4-2.4h-7.7425q-2.4 0-2.4 2.4z" clip-path="url(#a)" fill="#fff" stroke="#fff"/>
<g clip-path="url(#a)">
<defs>
<path id="aj" d="m64.406 67.281v-10.391q-4.9844 4.6406-10.625 6.9219-5.6406 2.2969-11.984 2.2969-12.5 0-19.141-7.6406t-6.6406-22.094q0-14.406 6.6406-22.047t19.141-7.6406q6.3438 0 11.984 2.2969t10.625 6.9375v-10.312q-5.1719-3.5156-10.969-5.2812-5.7812-1.75-12.219-1.75-16.562 0-26.094 10.125-9.5156 10.141-9.5156 27.672 0 17.578 9.5156 27.703 9.5312 10.141 26.094 10.141 6.5312 0 12.312-1.7344 5.7969-1.7344 10.875-5.2031z"/>
</defs>
<g transform="translate(1981.7 819.02) rotate(90) scale(.08 -.08)">
<use xlink:href="#aj"/>
</g>
</g>
<path d="m2000.7 820.73 1.6165 5.6274q0.6626 2.3067 2.9693 1.6441l7.4416-2.1376q2.3067-0.6626 1.6441-2.9693l-1.6165-5.6274q-0.6626-2.3067-2.9693-1.6441l-7.4416 2.1376q-2.3067 0.6626-1.6441 2.9693z" clip-path="url(#a)" fill="#fff" stroke="#fff"/>
<g clip-path="url(#a)">
<g transform="translate(2004.6 819.61) rotate(73.974) scale(.08 -.08)">
<use xlink:href="#q"/>
</g>
</g>
<path d="m1930.5 968.41v35.285q0 2.4 2.4 2.4h7.7425q2.4 0 2.4-2.4v-35.285q0-2.4-2.4-2.4h-7.7425q-2.4 0-2.4 2.4z" clip-path="url(#a)" fill="#fff" stroke="#fff"/>
<g clip-path="url(#a)">
<g transform="translate(1934.6 968.41) rotate(90) scale(.08 -.08)">
<use xlink:href="#l"/>
<use x="60.818359" xlink:href="#e"/>
<use x="122.341797" xlink:href="#i"/>
<use x="163.439453" xlink:href="#k"/>
<use x="260.851562" xlink:href="#g"/>
<use x="288.634766" xlink:href="#f"/>
<use x="352.013672" xlink:href="#h"/>
<use x="413.292969" xlink:href="#j"/>
</g>
</g>
<path d="m1977.7 968.41v35.285q0 2.4 2.4 2.4h7.7425q2.4 0 2.4-2.4v-35.285q0-2.4-2.4-2.4h-7.7425q-2.4 0-2.4 2.4z" clip-path="url(#a)" fill="#fff" stroke="#fff"/>
<g clip-path="url(#a)">
<g transform="translate(1981.7 968.41) rotate(90) scale(.08 -.08)">
<use xlink:href="#l"/>
<use x="60.818359" xlink:href="#e"/>
<use x="122.341797" xlink:href="#i"/>
<use x="163.439453" xlink:href="#k"/>
<use x="260.851562" xlink:href="#g"/>
<use x="288.634766" xlink:href="#f"/>
<use x="352.013672" xlink:href="#h"/>
<use x="413.292969" xlink:href="#j"/>
</g>
</g>
<path d="m1411.6 968.41v35.285q0 2.4 2.4 2.4h7.7425q2.4 0 2.4-2.4v-35.285q0-2.4-2.4-2.4h-7.7425q-2.4 0-2.4 2.4z" clip-path="url(#a)" fill="#fff" stroke="#fff"/>
<g clip-path="url(#a)">
<g transform="translate(1415.6 968.41) rotate(90) scale(.08 -.08)">
<use xlink:href="#l"/>
<use x="60.818359" xlink:href="#e"/>
<use x="122.341797" xlink:href="#i"/>
<use x="163.439453" xlink:href="#k"/>
<use x="260.851562" xlink:href="#g"/>
<use x="288.634766" xlink:href="#f"/>
<use x="352.013672" xlink:href="#h"/>
<use x="413.292969" xlink:href="#j"/>
</g>
</g>
<path d="m1458.7 968.41v35.285q0 2.4 2.4 2.4h7.7425q2.4 0 2.4-2.4v-35.285q0-2.4-2.4-2.4h-7.7425q-2.4 0-2.4 2.4z" clip-path="url(#a)" fill="#fff" stroke="#fff"/>
<g clip-path="url(#a)">
<g transform="translate(1462.8 968.41) rotate(90) scale(.08 -.08)">
<use xlink:href="#l"/>
<use x="60.818359" xlink:href="#e"/>
<use x="122.341797" xlink:href="#i"/>
<use x="163.439453" xlink:href="#k"/>
<use x="260.851562" xlink:href="#g"/>
<use x="288.634766" xlink:href="#f"/>
<use x="352.013672" xlink:href="#h"/>
<use x="413.292969" xlink:href="#j"/>
</g>
</g>
<path d="m1505.9 968.41v35.285q0 2.4 2.4 2.4h7.7425q2.4 0 2.4-2.4v-35.285q0-2.4-2.4-2.4h-7.7425q-2.4 0-2.4 2.4z" clip-path="url(#a)" fill="#fff" stroke="#fff"/>
<g clip-path="url(#a)">
<g transform="translate(1510 968.41) rotate(90) scale(.08 -.08)">
<use xlink:href="#l"/>
<use x="60.818359" xlink:href="#e"/>
<use x="122.341797" xlink:href="#i"/>
<use x="163.439453" xlink:href="#k"/>
<use x="260.851562" xlink:href="#g"/>
<use x="288.634766" xlink:href="#f"/>
<use x="352.013672" xlink:href="#h"/>
<use x="413.292969" xlink:href="#j"/>
</g>
</g>
<path d="m1553.1 968.41v35.285q0 2.4 2.4 2.4h7.7425q2.4 0 2.4-2.4v-35.285q0-2.4-2.4-2.4h-7.7425q-2.4 0-2.4 2.4z" clip-path="url(#a)" fill="#fff" stroke="#fff"/>
<g clip-path="url(#a)">
<g transform="translate(1557.2 968.41) rotate(90) scale(.08 -.08)">
<use xlink:href="#l"/>
<use x="60.818359" xlink:href="#e"/>
<use x="122.341797" xlink:href="#i"/>
<use x="163.439453" xlink:href="#k"/>
<use x="260.851562" xlink:href="#g"/>
<use x="288.634766" xlink:href="#f"/>
<use x="352.013672" xlink:href="#h"/>
<use x="413.292969" xlink:href="#j"/>
</g>
</g>
<path d="m1600.3 968.41v35.285q0 2.4 2.4 2.4h7.7425q2.4 0 2.4-2.4v-35.285q0-2.4-2.4-2.4h-7.7425q-2.4 0-2.4 2.4z" clip-path="url(#a)" fill="#fff" stroke="#fff"/>
<g clip-path="url(#a)">
<g transform="translate(1604.3 968.41) rotate(90) scale(.08 -.08)">
<use xlink:href="#l"/>
<use x="60.818359" xlink:href="#e"/>
<use x="122.341797" xlink:href="#i"/>
<use x="163.439453" xlink:href="#k"/>
<use x="260.851562" xlink:href="#g"/>
<use x="288.634766" xlink:href="#f"/>
<use x="352.013672" xlink:href="#h"/>
<use x="413.292969" xlink:href="#j"/>
</g>
</g>
<path d="m1573.3 743.16 1.7558-5.1832q0.77002-2.2731-1.5031-3.0431l-7.3332-2.4841q-2.2731-0.77002-3.0431 1.5031l-1.7558 5.1832q-0.77002 2.2731 1.5031 3.0431l7.3332 2.4841q2.2731 0.77002 3.0431-1.5031z" clip-path="url(#a)" fill="#fff" stroke="#fff"/>
<g clip-path="url(#a)">
<g transform="translate(1569.4 741.85) rotate(-71.286) scale(.08 -.08)">
<use xlink:href="#p"/>
</g>
</g>
<path d="m1621.5 741.3 0.25764-4.8169q0.12818-2.3966-2.2684-2.5248l-7.7314-0.41353q-2.3966-0.12818-2.5248 2.2684l-0.25764 4.8169q-0.12818 2.3966 2.2684 2.5248l7.7314 0.41353q2.3966 0.12818 2.5248-2.2684z" clip-path="url(#a)" fill="#fff" stroke="#fff"/>
<g clip-path="url(#a)">
<g transform="translate(1617.5 741.08) rotate(-86.938) scale(.08 -.08)">
<use xlink:href="#x"/>
</g>
</g>
<path d="m1632.5 736.34 0.49357 5.5368q0.2131 2.3905 2.6036 2.1774l7.7119-0.68747q2.3905-0.2131 2.1774-2.6036l-0.49357-5.5368q-0.2131-2.3905-2.6036-2.1774l-7.7119 0.68747q-2.3905 0.2131-2.1774 2.6036z" clip-path="url(#a)" fill="#fff" stroke="#fff"/>
<g clip-path="url(#a)">
<defs>
<path id="aq" d="m44.391 34.188q3.1719-1.0781 6.1719-4.5938t6.0312-9.6719l10.016-19.922h-10.609l-9.3125 18.703q-3.625 7.3281-7.0156 9.7188t-9.25 2.3906h-10.75v-30.812h-9.8594v72.906h22.266q12.5 0 18.656-5.2344 6.1562-5.2188 6.1562-15.766 0-6.8906-3.2031-11.438-3.2031-4.5312-9.2969-6.2812zm-24.719 30.609v-25.875h12.406q7.125 0 10.766 3.2969t3.6406 9.6875-3.6406 9.6406-10.766 3.25z"/>
</defs>
<g transform="translate(1636.5 735.98) rotate(84.906) scale(.08 -.08)">
<use xlink:href="#aq"/>
</g>
</g>
<path d="m1667.6 657.32 2.8225 4.6884q1.2378 2.0561 3.294 0.8183l6.6332-3.9933q2.0561-1.2378 0.8183-3.294l-2.8225-4.6884q-1.2378-2.0561-3.294-0.8183l-6.6332 3.9933q-2.0561 1.2378-0.8183 3.294z" clip-path="url(#a)" fill="#fff" stroke="#fff"/>
<g clip-path="url(#a)">
<g transform="translate(1671.1 655.23) rotate(58.951) scale(.08 -.08)">
<use xlink:href="#p"/>
</g>
</g>
<path d="m1647.4 968.41v35.285q0 2.4 2.4 2.4h7.7425q2.4 0 2.4-2.4v-35.285q0-2.4-2.4-2.4h-7.7425q-2.4 0-2.4 2.4z" clip-path="url(#a)" fill="#fff" stroke="#fff"/>
<g clip-path="url(#a)">
<g transform="translate(1651.5 968.41) rotate(90) scale(.08 -.08)">
<use xlink:href="#l"/>
<use x="60.818359" xlink:href="#e"/>
<use x="122.341797" xlink:href="#i"/>
<use x="163.439453" xlink:href="#k"/>
<use x="260.851562" xlink:href="#g"/>
<use x="288.634766" xlink:href="#f"/>
<use x="352.013672" xlink:href="#h"/>
<use x="413.292969" xlink:href="#j"/>
</g>
</g>
<path d="m1718.6 824.99 0.65413-4.5545q0.34119-2.3756-2.0344-2.7168l-7.6639-1.1007q-2.3756-0.34119-2.7168 2.0344l-0.65413 4.5545q-0.34119 2.3756 2.0344 2.7168l7.6639 1.1007q2.3756 0.34119 2.7168-2.0344z" clip-path="url(#a)" fill="#fff" stroke="#fff"/>
<g clip-path="url(#a)">
<g transform="translate(1714.5 824.41) rotate(-81.827) scale(.08 -.08)">
<use xlink:href="#aa"/>
</g>
</g>
<path d="m1729.7 819.94 0.79416 5.5295q0.34119 2.3756 2.7168 2.0344l7.6639-1.1007q2.3756-0.34119 2.0344-2.7168l-0.79416-5.5295q-0.34119-2.3756-2.7168-2.0344l-7.6639 1.1007q-2.3756 0.34119-2.0344 2.7168z" clip-path="url(#a)" fill="#fff" stroke="#fff"/>
<g clip-path="url(#a)">
<g transform="translate(1733.7 819.37) rotate(81.827) scale(.08 -.08)">
<use xlink:href="#aj"/>
</g>
</g>
<path d="m1694.6 968.41v35.285q0 2.4 2.4 2.4h7.7425q2.4 0 2.4-2.4v-35.285q0-2.4-2.4-2.4h-7.7425q-2.4 0-2.4 2.4z" clip-path="url(#a)" fill="#fff" stroke="#fff"/>
<g clip-path="url(#a)">
<g transform="translate(1698.7 968.41) rotate(90) scale(.08 -.08)">
<use xlink:href="#l"/>
<use x="60.818359" xlink:href="#e"/>
<use x="122.341797" xlink:href="#i"/>
<use x="163.439453" xlink:href="#k"/>
<use x="260.851562" xlink:href="#g"/>
<use x="288.634766" xlink:href="#f"/>
<use x="352.013672" xlink:href="#h"/>
<use x="413.292969" xlink:href="#j"/>
</g>
</g>
<path d="m1741.8 968.41v35.285q0 2.4 2.4 2.4h7.7425q2.4 0 2.4-2.4v-35.285q0-2.4-2.4-2.4h-7.7425q-2.4 0-2.4 2.4z" clip-path="url(#a)" fill="#fff" stroke="#fff"/>
<g clip-path="url(#a)">
<g transform="translate(1745.9 968.41) rotate(90) scale(.08 -.08)">
<use xlink:href="#l"/>
<use x="60.818359" xlink:href="#e"/>
<use x="122.341797" xlink:href="#i"/>
<use x="163.439453" xlink:href="#k"/>
<use x="260.851562" xlink:href="#g"/>
<use x="288.634766" xlink:href="#f"/>
<use x="352.013672" xlink:href="#h"/>
<use x="413.292969" xlink:href="#j"/>
</g>
</g>
<path d="m125.85 825.76 1.2703-4.4224q0.6626-2.3067-1.6441-2.9693l-7.4416-2.1376q-2.3067-0.6626-2.9693 1.6441l-1.2703 4.4224q-0.6626 2.3067 1.6441 2.9693l7.4416 2.1376q2.3067 0.6626 2.9693-1.6441z" clip-path="url(#a)" fill="#fff" stroke="#fff"/>
<g clip-path="url(#a)">
<g transform="translate(121.94 824.64) rotate(-73.974) scale(.08 -.08)">
<use xlink:href="#aa"/>
</g>
</g>
<path d="m137.77 819.29v5.055q0 2.4 2.4 2.4h7.7425q2.4 0 2.4-2.4v-5.055q0-2.4-2.4-2.4h-7.7425q-2.4 0-2.4 2.4z" clip-path="url(#a)" fill="#fff" stroke="#fff"/>
<g clip-path="url(#a)">
<defs>
<path id="as" d="m9.8125 72.906h46.094v-8.3125h-36.234v-21.578h34.719v-8.2969h-34.719v-26.422h37.109v-8.2969h-46.969z"/>
</defs>
<g transform="translate(141.84 819.29) rotate(90) scale(.08 -.08)">
<use xlink:href="#as"/>
</g>
</g>
<path d="m160.83 820.86 1.5423 5.3691q0.6626 2.3067 2.9693 1.6441l7.4416-2.1376q2.3067-0.6626 1.6441-2.9693l-1.5423-5.3691q-0.6626-2.3067-2.9693-1.6441l-7.4416 2.1376q-2.3067 0.6626-1.6441 2.9693z" clip-path="url(#a)" fill="#fff" stroke="#fff"/>
<g clip-path="url(#a)">
<g transform="translate(164.74 819.74) rotate(73.974) scale(.08 -.08)">
<use xlink:href="#aj"/>
</g>
</g>
<path d="m232.13 968.41v35.285q0 2.4 2.4 2.4h7.7425q2.4 0 2.4-2.4v-35.285q0-2.4-2.4-2.4h-7.7425q-2.4 0-2.4 2.4z" clip-path="url(#a)" fill="#fff" stroke="#fff"/>
<g clip-path="url(#a)">
<g transform="translate(236.19 968.41) rotate(90) scale(.08 -.08)">
<use xlink:href="#l"/>
<use x="60.818359" xlink:href="#e"/>
<use x="122.341797" xlink:href="#i"/>
<use x="163.439453" xlink:href="#k"/>
<use x="260.851562" xlink:href="#g"/>
<use x="288.634766" xlink:href="#f"/>
<use x="352.013672" xlink:href="#h"/>
<use x="413.292969" xlink:href="#j"/>
</g>
</g>
<path d="m662.43 663.36 5.1743-3.0696q2.0641-1.2245 0.8396-3.2886l-3.9503-6.6589q-1.2245-2.0641-3.2886-0.8396l-5.1743 3.0696q-2.0641 1.2245-0.8396 3.2886l3.9503 6.6589q1.2245 2.0641 3.2886 0.8396z" clip-path="url(#a)" fill="#fff" stroke="#fff"/>
<g clip-path="url(#a)">
<g transform="translate(660.35 659.87) rotate(-30.678) scale(.08 -.08)">
<use xlink:href="#z"/>
</g>
</g>
<path d="m806.6 659.57 0.1278-6.0149q0.050984-2.3995-2.3485-2.4504l-7.7408-0.16447q-2.3995-0.050984-2.4504 2.3485l-0.1278 6.0149q-0.050983 2.3995 2.3485 2.4504l7.7408 0.16447q2.3995 0.050984 2.4504-2.3485z" clip-path="url(#a)" fill="#fff" stroke="#fff"/>
<g clip-path="url(#a)">
<g transform="translate(802.54 659.49) rotate(-88.783) scale(.08 -.08)">
<use xlink:href="#z"/>
</g>
</g>
<path d="m936.13 660.28 5.1686 3.0791q2.0618 1.2283 3.2902-0.83352l3.9626-6.6516q1.2283-2.0618-0.83352-3.2902l-5.1686-3.0791q-2.0618-1.2283-3.2902 0.83352l-3.9626 6.6516q-1.2283 2.0618 0.83352 3.2902z" clip-path="url(#a)" fill="#fff" stroke="#fff"/>
<g clip-path="url(#a)">
<g transform="translate(938.21 656.79) rotate(30.784) scale(.08 -.08)">
<use xlink:href="#z"/>
</g>
</g>
<path d="m737.22 743.68 2.2707-5.3967q0.93079-2.2122-1.2814-3.1429l-7.1365-3.0028q-2.2122-0.93079-3.1429 1.2814l-2.2707 5.3967q-0.93079 2.2122 1.2814 3.1429l7.1365 3.0028q2.2122 0.93079 3.1429-1.2814z" clip-path="url(#a)" fill="#fff" stroke="#fff"/>
<g clip-path="url(#a)">
<g transform="translate(733.48 742.11) rotate(-67.181) scale(.08 -.08)">
<use xlink:href="#q"/>
</g>
</g>
<path d="m867.19 738.37 2.3356 5.369q0.95739 2.2008 3.1582 1.2434l7.0998-3.0886q2.2008-0.95739 1.2434-3.1582l-2.3356-5.369q-0.95739-2.2008-3.1582-1.2434l-7.0998 3.0886q-2.2008 0.95739-1.2434 3.1582z" clip-path="url(#a)" fill="#fff" stroke="#fff"/>
<g clip-path="url(#a)">
<g transform="translate(870.92 736.75) rotate(66.49) scale(.08 -.08)">
<use xlink:href="#q"/>
</g>
</g>
<path d="m478.36 827.31 2.7261-4.7452q1.1955-2.081-0.8855-3.2766l-6.7135-3.8568q-2.081-1.1955-3.2766 0.8855l-2.7261 4.7452q-1.1955 2.081 0.8855 3.2766l6.7135 3.8568q2.081 1.1955 3.2766-0.8855z" clip-path="url(#a)" fill="#fff" stroke="#fff"/>
<g clip-path="url(#a)">
<g transform="translate(474.83 825.29) rotate(-60.123) scale(.08 -.08)">
<use xlink:href="#p"/>
</g>
</g>
<path d="m503.26 825.76 1.2703-4.4224q0.6626-2.3067-1.6441-2.9693l-7.4416-2.1376q-2.3067-0.6626-2.9693 1.6441l-1.2703 4.4224q-0.6626 2.3067 1.6441 2.9693l7.4416 2.1376q2.3067 0.6626 2.9693-1.6441z" clip-path="url(#a)" fill="#fff" stroke="#fff"/>
<g clip-path="url(#a)">
<g transform="translate(499.36 824.64) rotate(-73.974) scale(.08 -.08)">
<use xlink:href="#aa"/>
</g>
</g>
<path d="m515.19 818.74v6.16q0 2.4 2.4 2.4h7.7425q2.4 0 2.4-2.4v-6.16q0-2.4-2.4-2.4h-7.7425q-2.4 0-2.4 2.4z" clip-path="url(#a)" fill="#fff" stroke="#fff"/>
<g clip-path="url(#a)">
<g transform="translate(519.25 818.74) rotate(90) scale(.08 -.08)">
<use xlink:href="#s"/>
</g>
</g>
<path d="m538.17 820.59 1.7007 5.9206q0.6626 2.3067 2.9693 1.6441l7.4416-2.1376q2.3067-0.6626 1.6441-2.9693l-1.7007-5.9206q-0.6626-2.3067-2.9693-1.6441l-7.4416 2.1376q-2.3067 0.6626-1.6441 2.9693z" clip-path="url(#a)" fill="#fff" stroke="#fff"/>
<g clip-path="url(#a)">
<g transform="translate(542.08 819.47) rotate(73.974) scale(.08 -.08)">
<use xlink:href="#s"/>
</g>
</g>
<path d="m561.94 822.74 2.5299 4.4038q1.1955 2.081 3.2766 0.8855l6.7135-3.8568q2.081-1.1955 0.8855-3.2766l-2.5299-4.4038q-1.1955-2.081-3.2766-0.8855l-6.7135 3.8568q-2.081 1.1955-0.8855 3.2766z" clip-path="url(#a)" fill="#fff" stroke="#fff"/>
<g clip-path="url(#a)">
<defs>
<path id="ag" d="m53.516 70.516v-9.625q-5.6094 2.6875-10.594 4-4.9844 1.3281-9.625 1.3281-8.0469 0-12.422-3.125t-4.375-8.8906q0-4.8438 2.9062-7.3125 2.9062-2.4531 11.016-3.9688l5.9531-1.2188q11.031-2.1094 16.281-7.4062t5.25-14.172q0-10.609-7.1094-16.078-7.0938-5.4688-20.812-5.4688-5.1719 0-11.016 1.1719-5.8281 1.1719-12.078 3.4688v10.156q6-3.3594 11.766-5.0781 5.7656-1.7031 11.328-1.7031 8.4375 0 13.031 3.3125 4.5938 3.3281 4.5938 9.4844 0 5.3594-3.2969 8.3906t-10.812 4.5469l-6.0156 1.1719q-11.031 2.1875-15.969 6.875-4.9219 4.6875-4.9219 13.047 0 9.6719 6.8125 15.234t18.766 5.5625q5.1406 0 10.453-0.9375 5.3281-0.92188 10.891-2.7656z"/>
</defs>
<g transform="translate(565.46 820.71) rotate(60.123) scale(.08 -.08)">
<use xlink:href="#ag"/>
</g>
</g>
<path d="m758.62 827.2 2.595-4.8181q1.138-2.113-0.97498-3.2511l-6.8167-3.6714q-2.113-1.138-3.2511 0.97498l-2.595 4.8181q-1.138 2.113 0.97498 3.2511l6.8167 3.6714q2.113 1.138 3.2511-0.97498z" clip-path="url(#a)" fill="#fff" stroke="#fff"/>
<g clip-path="url(#a)">
<g transform="translate(755.05 825.27) rotate(-61.694) scale(.08 -.08)">
<use xlink:href="#p"/>
</g>
</g>
<path d="m783.45 825.81 1.238-4.9256q0.58502-2.3276-1.7426-2.9126l-7.509-1.8873q-2.3276-0.58502-2.9126 1.7426l-1.238 4.9256q-0.58502 2.3276 1.7426 2.9126l7.509 1.8873q2.3276 0.58502 2.9126-1.7426z" clip-path="url(#a)" fill="#fff" stroke="#fff"/>
<g clip-path="url(#a)">
<g transform="translate(779.51 824.82) rotate(-75.892) scale(.08 -.08)">
<use xlink:href="#ag"/>
</g>
</g>
<path d="m806.65 819.89 1.0885 6.0631q0.42409 2.3622 2.7863 1.9381l7.6207-1.3681q2.3622-0.42409 1.9381-2.7863l-1.0885-6.0631q-0.42409-2.3622-2.7863-1.9381l-7.6207 1.3681q-2.3622 0.42409-1.9381 2.7863z" clip-path="url(#a)" fill="#fff" stroke="#fff"/>
<g clip-path="url(#a)">
<g transform="translate(810.65 819.17) rotate(79.822) scale(.08 -.08)">
<use xlink:href="#s"/>
</g>
</g>
<path d="m841.98 822.75 2.8512 4.6711q1.2504 2.0485 3.2989 0.79811l6.6086-4.0339q2.0485-1.2504 0.79811-3.2989l-2.8512-4.6711q-1.2504-2.0485-3.2989-0.79811l-6.6086 4.0339q-2.0485 1.2504-0.79811 3.2989z" clip-path="url(#a)" fill="#fff" stroke="#fff"/>
<g clip-path="url(#a)">
<g transform="translate(845.44 820.63) rotate(58.6) scale(.08 -.08)">
<use xlink:href="#p"/>
</g>
</g>
<path d="m1041.7 827.2 2.595-4.8181q1.138-2.113-0.97498-3.2511l-6.8167-3.6714q-2.113-1.138-3.2511 0.97498l-2.595 4.8181q-1.138 2.113 0.97498 3.2511l6.8167 3.6714q2.113 1.138 3.2511-0.97498z" clip-path="url(#a)" fill="#fff" stroke="#fff"/>
<g clip-path="url(#a)">
<g transform="translate(1038.1 825.27) rotate(-61.694) scale(.08 -.08)">
<use xlink:href="#p"/>
</g>
</g>
<path d="m1066.4 826.33 1.5016-5.9742q0.58502-2.3276-1.7426-2.9126l-7.509-1.8873q-2.3276-0.58502-2.9126 1.7426l-1.5016 5.9742q-0.58502 2.3276 1.7426 2.9126l7.509 1.8873q2.3276 0.58502 2.9126-1.7426z" clip-path="url(#a)" fill="#fff" stroke="#fff"/>
<g clip-path="url(#a)">
<g transform="translate(1062.4 825.34) rotate(-75.892) scale(.08 -.08)">
<use xlink:href="#s"/>
</g>
</g>
<path d="m1089.7 819.89 1.0885 6.0631q0.42409 2.3622 2.7863 1.9381l7.6207-1.3681q2.3622-0.42409 1.9381-2.7863l-1.0885-6.0631q-0.42409-2.3622-2.7863-1.9381l-7.6207 1.3681q-2.3622 0.42409-1.9381 2.7863z" clip-path="url(#a)" fill="#fff" stroke="#fff"/>
<g clip-path="url(#a)">
<g transform="translate(1093.7 819.17) rotate(79.822) scale(.08 -.08)">
<use xlink:href="#s"/>
</g>
</g>
<path d="m1125.2 823.03 2.5132 4.1173q1.2504 2.0485 3.2989 0.79811l6.6086-4.0339q2.0485-1.2504 0.79811-3.2989l-2.5132-4.1173q-1.2504-2.0485-3.2989-0.79811l-6.6086 4.0339q-2.0485 1.2504-0.79811 3.2989z" clip-path="url(#a)" fill="#fff" stroke="#fff"/>
<g clip-path="url(#a)">
<g transform="translate(1128.7 820.91) rotate(58.6) scale(.08 -.08)">
<use xlink:href="#x"/>
</g>
</g>
<path d="m986.96 968.41v35.285q0 2.4 2.4 2.4h7.7425q2.4 0 2.4-2.4v-35.285q0-2.4-2.4-2.4h-7.7425q-2.4 0-2.4 2.4z" clip-path="url(#a)" fill="#fff" stroke="#fff"/>
<g clip-path="url(#a)">
<g transform="translate(991.03 968.41) rotate(90) scale(.08 -.08)">
<use xlink:href="#l"/>
<use x="60.818359" xlink:href="#e"/>
<use x="122.341797" xlink:href="#i"/>
<use x="163.439453" xlink:href="#k"/>
<use x="260.851562" xlink:href="#g"/>
<use x="288.634766" xlink:href="#f"/>
<use x="352.013672" xlink:href="#h"/>
<use x="413.292969" xlink:href="#j"/>
</g>
</g>
<path d="m1034.1 968.41v35.285q0 2.4 2.4 2.4h7.7425q2.4 0 2.4-2.4v-35.285q0-2.4-2.4-2.4h-7.7425q-2.4 0-2.4 2.4z" clip-path="url(#a)" fill="#fff" stroke="#fff"/>
<g clip-path="url(#a)">
<g transform="translate(1038.2 968.41) rotate(90) scale(.08 -.08)">
<use xlink:href="#l"/>
<use x="60.818359" xlink:href="#e"/>
<use x="122.341797" xlink:href="#i"/>
<use x="163.439453" xlink:href="#k"/>
<use x="260.851562" xlink:href="#g"/>
<use x="288.634766" xlink:href="#f"/>
<use x="352.013672" xlink:href="#h"/>
<use x="413.292969" xlink:href="#j"/>
</g>
</g>
<path d="m1103.1 1004.4 5.0163-34.927q0.34119-2.3756-2.0344-2.7168l-7.6639-1.1007q-2.3756-0.34119-2.7168 2.0344l-5.0163 34.927q-0.34119 2.3756 2.0344 2.7168l7.6639 1.1007q2.3756 0.34119 2.7168-2.0344z" clip-path="url(#a)" fill="#fff" stroke="#fff"/>
<g clip-path="url(#a)">
<g transform="translate(1099.1 1003.8) rotate(-81.827) scale(.08 -.08)">
<use xlink:href="#l"/>
<use x="60.818359" xlink:href="#e"/>
<use x="122.341797" xlink:href="#i"/>
<use x="163.439453" xlink:href="#k"/>
<use x="260.851562" xlink:href="#g"/>
<use x="288.634766" xlink:href="#f"/>
<use x="352.013672" xlink:href="#h"/>
<use x="413.292969" xlink:href="#j"/>
</g>
</g>
<path d="m1114.3 969.48 5.0163 34.927q0.34119 2.3756 2.7168 2.0344l7.6639-1.1007q2.3756-0.34119 2.0344-2.7168l-5.0163-34.927q-0.34119-2.3756-2.7168-2.0344l-7.6639 1.1007q-2.3756 0.34119-2.0344 2.7168z" clip-path="url(#a)" fill="#fff" stroke="#fff"/>
<g clip-path="url(#a)">
<g transform="translate(1118.3 968.91) rotate(81.827) scale(.08 -.08)">
<use xlink:href="#l"/>
<use x="60.818359" xlink:href="#e"/>
<use x="122.341797" xlink:href="#i"/>
<use x="163.439453" xlink:href="#k"/>
<use x="260.851562" xlink:href="#g"/>
<use x="288.634766" xlink:href="#f"/>
<use x="352.013672" xlink:href="#h"/>
<use x="413.292969" xlink:href="#j"/>
</g>
</g>
<path d="m1175.7 968.41v35.285q0 2.4 2.4 2.4h7.7425q2.4 0 2.4-2.4v-35.285q0-2.4-2.4-2.4h-7.7425q-2.4 0-2.4 2.4z" clip-path="url(#a)" fill="#fff" stroke="#fff"/>
<g clip-path="url(#a)">
<g transform="translate(1179.7 968.41) rotate(90) scale(.08 -.08)">
<use xlink:href="#l"/>
<use x="60.818359" xlink:href="#e"/>
<use x="122.341797" xlink:href="#i"/>
<use x="163.439453" xlink:href="#k"/>
<use x="260.851562" xlink:href="#g"/>
<use x="288.634766" xlink:href="#f"/>
<use x="352.013672" xlink:href="#h"/>
<use x="413.292969" xlink:href="#j"/>
</g>
</g>
<path d="m703.9 968.41v35.285q0 2.4 2.4 2.4h7.7425q2.4 0 2.4-2.4v-35.285q0-2.4-2.4-2.4h-7.7425q-2.4 0-2.4 2.4z" clip-path="url(#a)" fill="#fff" stroke="#fff"/>
<g clip-path="url(#a)">
<g transform="translate(707.96 968.41) rotate(90) scale(.08 -.08)">
<use xlink:href="#l"/>
<use x="60.818359" xlink:href="#e"/>
<use x="122.341797" xlink:href="#i"/>
<use x="163.439453" xlink:href="#k"/>
<use x="260.851562" xlink:href="#g"/>
<use x="288.634766" xlink:href="#f"/>
<use x="352.013672" xlink:href="#h"/>
<use x="413.292969" xlink:href="#j"/>
</g>
</g>
<path d="m751.08 968.41v35.285q0 2.4 2.4 2.4h7.7425q2.4 0 2.4-2.4v-35.285q0-2.4-2.4-2.4h-7.7425q-2.4 0-2.4 2.4z" clip-path="url(#a)" fill="#fff" stroke="#fff"/>
<g clip-path="url(#a)">
<g transform="translate(755.14 968.41) rotate(90) scale(.08 -.08)">
<use xlink:href="#l"/>
<use x="60.818359" xlink:href="#e"/>
<use x="122.341797" xlink:href="#i"/>
<use x="163.439453" xlink:href="#k"/>
<use x="260.851562" xlink:href="#g"/>
<use x="288.634766" xlink:href="#f"/>
<use x="352.013672" xlink:href="#h"/>
<use x="413.292969" xlink:href="#j"/>
</g>
</g>
<path d="m820.02 1004.4 5.0163-34.927q0.34119-2.3756-2.0344-2.7168l-7.6639-1.1007q-2.3756-0.34119-2.7168 2.0344l-5.0163 34.927q-0.34119 2.3756 2.0344 2.7168l7.6639 1.1007q2.3756 0.34119 2.7168-2.0344z" clip-path="url(#a)" fill="#fff" stroke="#fff"/>
<g clip-path="url(#a)">
<g transform="translate(816 1003.8) rotate(-81.827) scale(.08 -.08)">
<use xlink:href="#l"/>
<use x="60.818359" xlink:href="#e"/>
<use x="122.341797" xlink:href="#i"/>
<use x="163.439453" xlink:href="#k"/>
<use x="260.851562" xlink:href="#g"/>
<use x="288.634766" xlink:href="#f"/>
<use x="352.013672" xlink:href="#h"/>
<use x="413.292969" xlink:href="#j"/>
</g>
</g>
<path d="m831.19 969.48 5.0163 34.927q0.34119 2.3756 2.7168 2.0344l7.6639-1.1007q2.3756-0.34119 2.0344-2.7168l-5.0163-34.927q-0.34119-2.3756-2.7168-2.0344l-7.6639 1.1007q-2.3756 0.34119-2.0344 2.7168z" clip-path="url(#a)" fill="#fff" stroke="#fff"/>
<g clip-path="url(#a)">
<g transform="translate(835.21 968.91) rotate(81.827) scale(.08 -.08)">
<use xlink:href="#l"/>
<use x="60.818359" xlink:href="#e"/>
<use x="122.341797" xlink:href="#i"/>
<use x="163.439453" xlink:href="#k"/>
<use x="260.851562" xlink:href="#g"/>
<use x="288.634766" xlink:href="#f"/>
<use x="352.013672" xlink:href="#h"/>
<use x="413.292969" xlink:href="#j"/>
</g>
</g>
<path d="m892.61 968.41v35.285q0 2.4 2.4 2.4h7.7425q2.4 0 2.4-2.4v-35.285q0-2.4-2.4-2.4h-7.7425q-2.4 0-2.4 2.4z" clip-path="url(#a)" fill="#fff" stroke="#fff"/>
<g clip-path="url(#a)">
<g transform="translate(896.67 968.41) rotate(90) scale(.08 -.08)">
<use xlink:href="#l"/>
<use x="60.818359" xlink:href="#e"/>
<use x="122.341797" xlink:href="#i"/>
<use x="163.439453" xlink:href="#k"/>
<use x="260.851562" xlink:href="#g"/>
<use x="288.634766" xlink:href="#f"/>
<use x="352.013672" xlink:href="#h"/>
<use x="413.292969" xlink:href="#j"/>
</g>
</g>
<path d="m420.84 968.41v35.285q0 2.4 2.4 2.4h7.7425q2.4 0 2.4-2.4v-35.285q0-2.4-2.4-2.4h-7.7425q-2.4 0-2.4 2.4z" clip-path="url(#a)" fill="#fff" stroke="#fff"/>
<g clip-path="url(#a)">
<g transform="translate(424.9 968.41) rotate(90) scale(.08 -.08)">
<use xlink:href="#l"/>
<use x="60.818359" xlink:href="#e"/>
<use x="122.341797" xlink:href="#i"/>
<use x="163.439453" xlink:href="#k"/>
<use x="260.851562" xlink:href="#g"/>
<use x="288.634766" xlink:href="#f"/>
<use x="352.013672" xlink:href="#h"/>
<use x="413.292969" xlink:href="#j"/>
</g>
</g>
<path d="m468.01 968.41v35.285q0 2.4 2.4 2.4h7.7425q2.4 0 2.4-2.4v-35.285q0-2.4-2.4-2.4h-7.7425q-2.4 0-2.4 2.4z" clip-path="url(#a)" fill="#fff" stroke="#fff"/>
<g clip-path="url(#a)">
<g transform="translate(472.08 968.41) rotate(90) scale(.08 -.08)">
<use xlink:href="#l"/>
<use x="60.818359" xlink:href="#e"/>
<use x="122.341797" xlink:href="#i"/>
<use x="163.439453" xlink:href="#k"/>
<use x="260.851562" xlink:href="#g"/>
<use x="288.634766" xlink:href="#f"/>
<use x="352.013672" xlink:href="#h"/>
<use x="413.292969" xlink:href="#j"/>
</g>
</g>
<path d="m515.19 968.41v35.285q0 2.4 2.4 2.4h7.7425q2.4 0 2.4-2.4v-35.285q0-2.4-2.4-2.4h-7.7425q-2.4 0-2.4 2.4z" clip-path="url(#a)" fill="#fff" stroke="#fff"/>
<g clip-path="url(#a)">
<g transform="translate(519.25 968.41) rotate(90) scale(.08 -.08)">
<use xlink:href="#l"/>
<use x="60.818359" xlink:href="#e"/>
<use x="122.341797" xlink:href="#i"/>
<use x="163.439453" xlink:href="#k"/>
<use x="260.851562" xlink:href="#g"/>
<use x="288.634766" xlink:href="#f"/>
<use x="352.013672" xlink:href="#h"/>
<use x="413.292969" xlink:href="#j"/>
</g>
</g>
<path d="m562.37 968.41v35.285q0 2.4 2.4 2.4h7.7425q2.4 0 2.4-2.4v-35.285q0-2.4-2.4-2.4h-7.7425q-2.4 0-2.4 2.4z" clip-path="url(#a)" fill="#fff" stroke="#fff"/>
<g clip-path="url(#a)">
<g transform="translate(566.43 968.41) rotate(90) scale(.08 -.08)">
<use xlink:href="#l"/>
<use x="60.818359" xlink:href="#e"/>
<use x="122.341797" xlink:href="#i"/>
<use x="163.439453" xlink:href="#k"/>
<use x="260.851562" xlink:href="#g"/>
<use x="288.634766" xlink:href="#f"/>
<use x="352.013672" xlink:href="#h"/>
<use x="413.292969" xlink:href="#j"/>
</g>
</g>
<path d="m609.54 968.41v35.285q0 2.4 2.4 2.4h7.7425q2.4 0 2.4-2.4v-35.285q0-2.4-2.4-2.4h-7.7425q-2.4 0-2.4 2.4z" clip-path="url(#a)" fill="#fff" stroke="#fff"/>
<g clip-path="url(#a)">
<g transform="translate(613.61 968.41) rotate(90) scale(.08 -.08)">
<use xlink:href="#l"/>
<use x="60.818359" xlink:href="#e"/>
<use x="122.341797" xlink:href="#i"/>
<use x="163.439453" xlink:href="#k"/>
<use x="260.851562" xlink:href="#g"/>
<use x="288.634766" xlink:href="#f"/>
<use x="352.013672" xlink:href="#h"/>
<use x="413.292969" xlink:href="#j"/>
</g>
</g>
<path d="m90.594 968.41v35.285q0 2.4 2.4 2.4h7.7425q2.4 0 2.4-2.4v-35.285q0-2.4-2.4-2.4h-7.7425q-2.4 0-2.4 2.4z" clip-path="url(#a)" fill="#fff" stroke="#fff"/>
<g clip-path="url(#a)">
<g transform="translate(94.658 968.41) rotate(90) scale(.08 -.08)">
<use xlink:href="#l"/>
<use x="60.818359" xlink:href="#e"/>
<use x="122.341797" xlink:href="#i"/>
<use x="163.439453" xlink:href="#k"/>
<use x="260.851562" xlink:href="#g"/>
<use x="288.634766" xlink:href="#f"/>
<use x="352.013672" xlink:href="#h"/>
<use x="413.292969" xlink:href="#j"/>
</g>
</g>
<path d="m137.77 968.41v35.285q0 2.4 2.4 2.4h7.7425q2.4 0 2.4-2.4v-35.285q0-2.4-2.4-2.4h-7.7425q-2.4 0-2.4 2.4z" clip-path="url(#a)" fill="#fff" stroke="#fff"/>
<g clip-path="url(#a)">
<g transform="translate(141.84 968.41) rotate(90) scale(.08 -.08)">
<use xlink:href="#l"/>
<use x="60.818359" xlink:href="#e"/>
<use x="122.341797" xlink:href="#i"/>
<use x="163.439453" xlink:href="#k"/>
<use x="260.851562" xlink:href="#g"/>
<use x="288.634766" xlink:href="#f"/>
<use x="352.013672" xlink:href="#h"/>
<use x="413.292969" xlink:href="#j"/>
</g>
</g>
<path d="m184.95 968.41v35.285q0 2.4 2.4 2.4h7.7425q2.4 0 2.4-2.4v-35.285q0-2.4-2.4-2.4h-7.7425q-2.4 0-2.4 2.4z" clip-path="url(#a)" fill="#fff" stroke="#fff"/>
<g clip-path="url(#a)">
<g transform="translate(189.01 968.41) rotate(90) scale(.08 -.08)">
<use xlink:href="#l"/>
<use x="60.818359" xlink:href="#e"/>
<use x="122.341797" xlink:href="#i"/>
<use x="163.439453" xlink:href="#k"/>
<use x="260.851562" xlink:href="#g"/>
<use x="288.634766" xlink:href="#f"/>
<use x="352.013672" xlink:href="#h"/>
<use x="413.292969" xlink:href="#j"/>
</g>
</g>
<path d="m279.3 968.41v35.285q0 2.4 2.4 2.4h7.7425q2.4 0 2.4-2.4v-35.285q0-2.4-2.4-2.4h-7.7425q-2.4 0-2.4 2.4z" clip-path="url(#a)" fill="#fff" stroke="#fff"/>
<g clip-path="url(#a)">
<g transform="translate(283.37 968.41) rotate(90) scale(.08 -.08)">
<use xlink:href="#l"/>
<use x="60.818359" xlink:href="#e"/>
<use x="122.341797" xlink:href="#i"/>
<use x="163.439453" xlink:href="#k"/>
<use x="260.851562" xlink:href="#g"/>
<use x="288.634766" xlink:href="#f"/>
<use x="352.013672" xlink:href="#h"/>
<use x="413.292969" xlink:href="#j"/>
</g>
</g>
<path d="m326.48 968.41v35.285q0 2.4 2.4 2.4h7.7425q2.4 0 2.4-2.4v-35.285q0-2.4-2.4-2.4h-7.7425q-2.4 0-2.4 2.4z" clip-path="url(#a)" fill="#fff" stroke="#fff"/>
<g clip-path="url(#a)">
<g transform="translate(330.54 968.41) rotate(90) scale(.08 -.08)">
<use xlink:href="#l"/>
<use x="60.818359" xlink:href="#e"/>
<use x="122.341797" xlink:href="#i"/>
<use x="163.439453" xlink:href="#k"/>
<use x="260.851562" xlink:href="#g"/>
<use x="288.634766" xlink:href="#f"/>
<use x="352.013672" xlink:href="#h"/>
<use x="413.292969" xlink:href="#j"/>
</g>
</g>
<path d="m373.66 968.41v35.285q0 2.4 2.4 2.4h7.7425q2.4 0 2.4-2.4v-35.285q0-2.4-2.4-2.4h-7.7425q-2.4 0-2.4 2.4z" clip-path="url(#a)" fill="#fff" stroke="#fff"/>
<g clip-path="url(#a)">
<g transform="translate(377.72 968.41) rotate(90) scale(.08 -.08)">
<use xlink:href="#l"/>
<use x="60.818359" xlink:href="#e"/>
<use x="122.341797" xlink:href="#i"/>
<use x="163.439453" xlink:href="#k"/>
<use x="260.851562" xlink:href="#g"/>
<use x="288.634766" xlink:href="#f"/>
<use x="352.013672" xlink:href="#h"/>
<use x="413.292969" xlink:href="#j"/>
</g>
</g>
<path d="m656.72 968.41v35.285q0 2.4 2.4 2.4h7.7425q2.4 0 2.4-2.4v-35.285q0-2.4-2.4-2.4h-7.7425q-2.4 0-2.4 2.4z" clip-path="url(#a)" fill="#fff" stroke="#fff"/>
<g clip-path="url(#a)">
<g transform="translate(660.79 968.41) rotate(90) scale(.08 -.08)">
<use xlink:href="#l"/>
<use x="60.818359" xlink:href="#e"/>
<use x="122.341797" xlink:href="#i"/>
<use x="163.439453" xlink:href="#k"/>
<use x="260.851562" xlink:href="#g"/>
<use x="288.634766" xlink:href="#f"/>
<use x="352.013672" xlink:href="#h"/>
<use x="413.292969" xlink:href="#j"/>
</g>
</g>
<path d="m939.79 968.41v35.285q0 2.4 2.4 2.4h7.7425q2.4 0 2.4-2.4v-35.285q0-2.4-2.4-2.4h-7.7425q-2.4 0-2.4 2.4z" clip-path="url(#a)" fill="#fff" stroke="#fff"/>
<g clip-path="url(#a)">
<g transform="translate(943.85 968.41) rotate(90) scale(.08 -.08)">
<use xlink:href="#l"/>
<use x="60.818359" xlink:href="#e"/>
<use x="122.341797" xlink:href="#i"/>
<use x="163.439453" xlink:href="#k"/>
<use x="260.851562" xlink:href="#g"/>
<use x="288.634766" xlink:href="#f"/>
<use x="352.013672" xlink:href="#h"/>
<use x="413.292969" xlink:href="#j"/>
</g>
</g>
<path d="m1222.8 968.41v35.285q0 2.4 2.4 2.4h7.7425q2.4 0 2.4-2.4v-35.285q0-2.4-2.4-2.4h-7.7425q-2.4 0-2.4 2.4z" clip-path="url(#a)" fill="#fff" stroke="#fff"/>
<g clip-path="url(#a)">
<g transform="translate(1226.9 968.41) rotate(90) scale(.08 -.08)">
<use xlink:href="#l"/>
<use x="60.818359" xlink:href="#e"/>
<use x="122.341797" xlink:href="#i"/>
<use x="163.439453" xlink:href="#k"/>
<use x="260.851562" xlink:href="#g"/>
<use x="288.634766" xlink:href="#f"/>
<use x="352.013672" xlink:href="#h"/>
<use x="413.292969" xlink:href="#j"/>
</g>
</g>
<path d="m1270 968.41v35.285q0 2.4 2.4 2.4h7.7425q2.4 0 2.4-2.4v-35.285q0-2.4-2.4-2.4h-7.7425q-2.4 0-2.4 2.4z" clip-path="url(#a)" fill="#fff" stroke="#fff"/>
<g clip-path="url(#a)">
<g transform="translate(1274.1 968.41) rotate(90) scale(.08 -.08)">
<use xlink:href="#l"/>
<use x="60.818359" xlink:href="#e"/>
<use x="122.341797" xlink:href="#i"/>
<use x="163.439453" xlink:href="#k"/>
<use x="260.851562" xlink:href="#g"/>
<use x="288.634766" xlink:href="#f"/>
<use x="352.013672" xlink:href="#h"/>
<use x="413.292969" xlink:href="#j"/>
</g>
</g>
<path d="m1317.2 968.41v35.285q0 2.4 2.4 2.4h7.7425q2.4 0 2.4-2.4v-35.285q0-2.4-2.4-2.4h-7.7425q-2.4 0-2.4 2.4z" clip-path="url(#a)" fill="#fff" stroke="#fff"/>
<g clip-path="url(#a)">
<g transform="translate(1321.3 968.41) rotate(90) scale(.08 -.08)">
<use xlink:href="#l"/>
<use x="60.818359" xlink:href="#e"/>
<use x="122.341797" xlink:href="#i"/>
<use x="163.439453" xlink:href="#k"/>
<use x="260.851562" xlink:href="#g"/>
<use x="288.634766" xlink:href="#f"/>
<use x="352.013672" xlink:href="#h"/>
<use x="413.292969" xlink:href="#j"/>
</g>
</g>
<path d="m1364.4 968.41v35.285q0 2.4 2.4 2.4h7.7425q2.4 0 2.4-2.4v-35.285q0-2.4-2.4-2.4h-7.7425q-2.4 0-2.4 2.4z" clip-path="url(#a)" fill="#fff" stroke="#fff"/>
<g clip-path="url(#a)">
<g transform="translate(1368.4 968.41) rotate(90) scale(.08 -.08)">
<use xlink:href="#l"/>
<use x="60.818359" xlink:href="#e"/>
<use x="122.341797" xlink:href="#i"/>
<use x="163.439453" xlink:href="#k"/>
<use x="260.851562" xlink:href="#g"/>
<use x="288.634766" xlink:href="#f"/>
<use x="352.013672" xlink:href="#h"/>
<use x="413.292969" xlink:href="#j"/>
</g>
</g>
<path d="m1789 968.41v35.285q0 2.4 2.4 2.4h7.7425q2.4 0 2.4-2.4v-35.285q0-2.4-2.4-2.4h-7.7425q-2.4 0-2.4 2.4z" clip-path="url(#a)" fill="#fff" stroke="#fff"/>
<g clip-path="url(#a)">
<g transform="translate(1793 968.41) rotate(90) scale(.08 -.08)">
<use xlink:href="#l"/>
<use x="60.818359" xlink:href="#e"/>
<use x="122.341797" xlink:href="#i"/>
<use x="163.439453" xlink:href="#k"/>
<use x="260.851562" xlink:href="#g"/>
<use x="288.634766" xlink:href="#f"/>
<use x="352.013672" xlink:href="#h"/>
<use x="413.292969" xlink:href="#j"/>
</g>
</g>
<path d="m1836.2 968.41v35.285q0 2.4 2.4 2.4h7.7425q2.4 0 2.4-2.4v-35.285q0-2.4-2.4-2.4h-7.7425q-2.4 0-2.4 2.4z" clip-path="url(#a)" fill="#fff" stroke="#fff"/>
<g clip-path="url(#a)">
<g transform="translate(1840.2 968.41) rotate(90) scale(.08 -.08)">
<use xlink:href="#l"/>
<use x="60.818359" xlink:href="#e"/>
<use x="122.341797" xlink:href="#i"/>
<use x="163.439453" xlink:href="#k"/>
<use x="260.851562" xlink:href="#g"/>
<use x="288.634766" xlink:href="#f"/>
<use x="352.013672" xlink:href="#h"/>
<use x="413.292969" xlink:href="#j"/>
</g>
</g>
<path d="m2024.9 968.41v35.285q0 2.4 2.4 2.4h7.7425q2.4 0 2.4-2.4v-35.285q0-2.4-2.4-2.4h-7.7425q-2.4 0-2.4 2.4z" clip-path="url(#a)" fill="#fff" stroke="#fff"/>
<g clip-path="url(#a)">
<g transform="translate(2028.9 968.41) rotate(90) scale(.08 -.08)">
<use xlink:href="#l"/>
<use x="60.818359" xlink:href="#e"/>
<use x="122.341797" xlink:href="#i"/>
<use x="163.439453" xlink:href="#k"/>
<use x="260.851562" xlink:href="#g"/>
<use x="288.634766" xlink:href="#f"/>
<use x="352.013672" xlink:href="#h"/>
<use x="413.292969" xlink:href="#j"/>
</g>
</g>
<defs>
<path id="b" d="m0 8.6603c2.2967 0 4.4997-0.9125 6.1237-2.5365 1.624-1.624 2.5365-3.827 2.5365-6.1237s-0.9125-4.4997-2.5365-6.1237c-1.624-1.624-3.827-2.5365-6.1237-2.5365s-4.4997 0.9125-6.1237 2.5365c-1.624 1.624-2.5365 3.827-2.5365 6.1237s0.9125 4.4997 2.5365 6.1237c1.624 1.624 3.827 2.5365 6.1237 2.5365z"/>
</defs>
<g clip-path="url(#a)">
<use x="96.86551" y="1068.176534" fill="#ffffff" stroke="#ffffff" xlink:href="#b"/>
</g>
<g clip-path="url(#a)">
<use x="144.042802" y="1068.176534" fill="#ffffff" stroke="#ffffff" xlink:href="#b"/>
</g>
<g clip-path="url(#a)">
<use x="191.220094" y="1068.176534" fill="#ffffff" stroke="#ffffff" xlink:href="#b"/>
</g>
<g clip-path="url(#a)">
<use x="238.397386" y="1068.176534" fill="#ffffff" stroke="#ffffff" xlink:href="#b"/>
</g>
<g clip-path="url(#a)">
<use x="285.574679" y="1068.176534" fill="#ffffff" stroke="#ffffff" xlink:href="#b"/>
</g>
<g clip-path="url(#a)">
<use x="332.751971" y="1068.176534" fill="#ffffff" stroke="#ffffff" xlink:href="#b"/>
</g>
<g clip-path="url(#a)">
<use x="379.929263" y="1068.176534" fill="#ffffff" stroke="#ffffff" xlink:href="#b"/>
</g>
<g clip-path="url(#a)">
<use x="427.106555" y="1068.176534" fill="#ffffff" stroke="#ffffff" xlink:href="#b"/>
</g>
<g clip-path="url(#a)">
<use x="474.283847" y="1068.176534" fill="#ffffff" stroke="#ffffff" xlink:href="#b"/>
</g>
<g clip-path="url(#a)">
<use x="521.46114" y="1068.176534" fill="#ffffff" stroke="#ffffff" xlink:href="#b"/>
</g>
<g clip-path="url(#a)">
<use x="568.638432" y="1068.176534" fill="#ffffff" stroke="#ffffff" xlink:href="#b"/>
</g>
<g clip-path="url(#a)">
<use x="615.815724" y="1068.176534" fill="#ffffff" stroke="#ffffff" xlink:href="#b"/>
</g>
<g clip-path="url(#a)">
<use x="662.993016" y="1068.176534" fill="#ffffff" stroke="#ffffff" xlink:href="#b"/>
</g>
<g clip-path="url(#a)">
<use x="710.170308" y="1068.176534" fill="#ffffff" stroke="#ffffff" xlink:href="#b"/>
</g>
<g clip-path="url(#a)">
<use x="757.347601" y="1068.176534" fill="#ffffff" stroke="#ffffff" xlink:href="#b"/>
</g>
<g clip-path="url(#a)">
<use x="804.524893" y="1068.176534" fill="#ffffff" stroke="#ffffff" xlink:href="#b"/>
</g>
<g clip-path="url(#a)">
<use x="851.702185" y="1068.176534" fill="#ffffff" stroke="#ffffff" xlink:href="#b"/>
</g>
<g clip-path="url(#a)">
<use x="898.879477" y="1068.176534" fill="#ffffff" stroke="#ffffff" xlink:href="#b"/>
</g>
<g clip-path="url(#a)">
<use x="946.056769" y="1068.176534" fill="#ffffff" stroke="#ffffff" xlink:href="#b"/>
</g>
<g clip-path="url(#a)">
<use x="993.234062" y="1068.176534" fill="#ffffff" stroke="#ffffff" xlink:href="#b"/>
</g>
<g clip-path="url(#a)">
<use x="1040.411354" y="1068.176534" fill="#ffffff" stroke="#ffffff" xlink:href="#b"/>
</g>
<g clip-path="url(#a)">
<use x="1087.588646" y="1068.176534" fill="#ffffff" stroke="#ffffff" xlink:href="#b"/>
</g>
<g clip-path="url(#a)">
<use x="1134.765938" y="1068.176534" fill="#ffffff" stroke="#ffffff" xlink:href="#b"/>
</g>
<g clip-path="url(#a)">
<use x="1181.943231" y="1068.176534" fill="#ffffff" stroke="#ffffff" xlink:href="#b"/>
</g>
<g clip-path="url(#a)">
<use x="1229.120523" y="1068.176534" fill="#ffffff" stroke="#ffffff" xlink:href="#b"/>
</g>
<g clip-path="url(#a)">
<use x="1276.297815" y="1068.176534" fill="#ffffff" stroke="#ffffff" xlink:href="#b"/>
</g>
<g clip-path="url(#a)">
<use x="1323.475107" y="1068.176534" fill="#ffffff" stroke="#ffffff" xlink:href="#b"/>
</g>
<g clip-path="url(#a)">
<use x="1370.652399" y="1068.176534" fill="#ffffff" stroke="#ffffff" xlink:href="#b"/>
</g>
<g clip-path="url(#a)">
<use x="1417.829692" y="1068.176534" fill="#ffffff" stroke="#ffffff" xlink:href="#b"/>
</g>
<g clip-path="url(#a)">
<use x="1465.006984" y="1068.176534" fill="#ffffff" stroke="#ffffff" xlink:href="#b"/>
</g>
<g clip-path="url(#a)">
<use x="1512.184276" y="1068.176534" fill="#ffffff" stroke="#ffffff" xlink:href="#b"/>
</g>
<g clip-path="url(#a)">
<use x="1559.361568" y="1068.176534" fill="#ffffff" stroke="#ffffff" xlink:href="#b"/>
</g>
<g clip-path="url(#a)">
<use x="1606.53886" y="1068.176534" fill="#ffffff" stroke="#ffffff" xlink:href="#b"/>
</g>
<g clip-path="url(#a)">
<use x="1653.716153" y="1068.176534" fill="#ffffff" stroke="#ffffff" xlink:href="#b"/>
</g>
<g clip-path="url(#a)">
<use x="1700.893445" y="1068.176534" fill="#ffffff" stroke="#ffffff" xlink:href="#b"/>
</g>
<g clip-path="url(#a)">
<use x="1748.070737" y="1068.176534" fill="#ffffff" stroke="#ffffff" xlink:href="#b"/>
</g>
<g clip-path="url(#a)">
<use x="1795.248029" y="1068.176534" fill="#ffffff" stroke="#ffffff" xlink:href="#b"/>
</g>
<g clip-path="url(#a)">
<use x="1842.425321" y="1068.176534" fill="#ffffff" stroke="#ffffff" xlink:href="#b"/>
</g>
<g clip-path="url(#a)">
<use x="1889.602614" y="1068.176534" fill="#ffffff" stroke="#ffffff" xlink:href="#b"/>
</g>
<g clip-path="url(#a)">
<use x="1936.779906" y="1068.176534" fill="#ffffff" stroke="#ffffff" xlink:href="#b"/>
</g>
<g clip-path="url(#a)">
<use x="1983.957198" y="1068.176534" fill="#ffffff" stroke="#ffffff" xlink:href="#b"/>
</g>
<g clip-path="url(#a)">
<use x="2031.13449" y="1068.176534" fill="#ffffff" stroke="#ffffff" xlink:href="#b"/>
</g>
<g clip-path="url(#a)">
<use x="1228.629093" y="51.823466" fill="#ffffff" stroke="#ffffff" xlink:href="#b"/>
</g>
<g clip-path="url(#a)">
<use x="363.810355" y="403.439988" fill="#ffffff" stroke="#ffffff" xlink:href="#b"/>
</g>
<g clip-path="url(#a)">
<use x="1808.418357" y="229.84118" fill="#ffffff" stroke="#ffffff" xlink:href="#b"/>
</g>
<g clip-path="url(#a)">
<use x="1530.858621" y="403.439988" fill="#ffffff" stroke="#ffffff" xlink:href="#b"/>
</g>
<g clip-path="url(#a)">
<use x="1889.602614" y="903.936418" fill="#ffffff" stroke="#ffffff" xlink:href="#b"/>
</g>
<g clip-path="url(#a)">
<use x="1983.957198" y="739.696303" fill="#ffffff" stroke="#ffffff" xlink:href="#b"/>
</g>
<g clip-path="url(#a)">
<use x="1936.779906" y="903.936418" fill="#ffffff" stroke="#ffffff" xlink:href="#b"/>
</g>
<g clip-path="url(#a)">
<use x="1983.957198" y="903.936418" fill="#ffffff" stroke="#ffffff" xlink:href="#b"/>
</g>
<g clip-path="url(#a)">
<use x="1417.829692" y="903.936418" fill="#ffffff" stroke="#ffffff" xlink:href="#b"/>
</g>
<g clip-path="url(#a)">
<use x="1465.006984" y="903.936418" fill="#ffffff" stroke="#ffffff" xlink:href="#b"/>
</g>
<g clip-path="url(#a)">
<use x="1512.184276" y="903.936418" fill="#ffffff" stroke="#ffffff" xlink:href="#b"/>
</g>
<g clip-path="url(#a)">
<use x="1559.361568" y="903.936418" fill="#ffffff" stroke="#ffffff" xlink:href="#b"/>
</g>
<g clip-path="url(#a)">
<use x="1606.53886" y="903.936418" fill="#ffffff" stroke="#ffffff" xlink:href="#b"/>
</g>
<g clip-path="url(#a)">
<use x="1624.230345" y="573.171426" fill="#ffffff" stroke="#ffffff" xlink:href="#b"/>
</g>
<g clip-path="url(#a)">
<use x="1653.716153" y="903.936418" fill="#ffffff" stroke="#ffffff" xlink:href="#b"/>
</g>
<g clip-path="url(#a)">
<use x="1724.482091" y="739.696303" fill="#ffffff" stroke="#ffffff" xlink:href="#b"/>
</g>
<g clip-path="url(#a)">
<use x="1700.893445" y="903.936418" fill="#ffffff" stroke="#ffffff" xlink:href="#b"/>
</g>
<g clip-path="url(#a)">
<use x="1748.070737" y="903.936418" fill="#ffffff" stroke="#ffffff" xlink:href="#b"/>
</g>
<g clip-path="url(#a)">
<use x="144.042802" y="739.696303" fill="#ffffff" stroke="#ffffff" xlink:href="#b"/>
</g>
<g clip-path="url(#a)">
<use x="238.397386" y="903.936418" fill="#ffffff" stroke="#ffffff" xlink:href="#b"/>
</g>
<g clip-path="url(#a)">
<use x="802.166028" y="573.171426" fill="#ffffff" stroke="#ffffff" xlink:href="#b"/>
</g>
<g clip-path="url(#a)">
<use x="521.46114" y="739.696303" fill="#ffffff" stroke="#ffffff" xlink:href="#b"/>
</g>
<g clip-path="url(#a)">
<use x="798.627731" y="739.696303" fill="#ffffff" stroke="#ffffff" xlink:href="#b"/>
</g>
<g clip-path="url(#a)">
<use x="1081.691485" y="739.696303" fill="#ffffff" stroke="#ffffff" xlink:href="#b"/>
</g>
<g clip-path="url(#a)">
<use x="993.234062" y="903.936418" fill="#ffffff" stroke="#ffffff" xlink:href="#b"/>
</g>
<g clip-path="url(#a)">
<use x="1040.411354" y="903.936418" fill="#ffffff" stroke="#ffffff" xlink:href="#b"/>
</g>
<g clip-path="url(#a)">
<use x="1111.177292" y="903.936418" fill="#ffffff" stroke="#ffffff" xlink:href="#b"/>
</g>
<g clip-path="url(#a)">
<use x="1181.943231" y="903.936418" fill="#ffffff" stroke="#ffffff" xlink:href="#b"/>
</g>
<g clip-path="url(#a)">
<use x="710.170308" y="903.936418" fill="#ffffff" stroke="#ffffff" xlink:href="#b"/>
</g>
<g clip-path="url(#a)">
<use x="757.347601" y="903.936418" fill="#ffffff" stroke="#ffffff" xlink:href="#b"/>
</g>
<g clip-path="url(#a)">
<use x="828.113539" y="903.936418" fill="#ffffff" stroke="#ffffff" xlink:href="#b"/>
</g>
<g clip-path="url(#a)">
<use x="898.879477" y="903.936418" fill="#ffffff" stroke="#ffffff" xlink:href="#b"/>
</g>
<g clip-path="url(#a)">
<use x="427.106555" y="903.936418" fill="#ffffff" stroke="#ffffff" xlink:href="#b"/>
</g>
<g clip-path="url(#a)">
<use x="474.283847" y="903.936418" fill="#ffffff" stroke="#ffffff" xlink:href="#b"/>
</g>
<g clip-path="url(#a)">
<use x="521.46114" y="903.936418" fill="#ffffff" stroke="#ffffff" xlink:href="#b"/>
</g>
<g clip-path="url(#a)">
<use x="568.638432" y="903.936418" fill="#ffffff" stroke="#ffffff" xlink:href="#b"/>
</g>
<g clip-path="url(#a)">
<use x="615.815724" y="903.936418" fill="#ffffff" stroke="#ffffff" xlink:href="#b"/>
</g>
<g clip-path="url(#a)">
<use x="96.86551" y="903.936418" fill="#ffffff" stroke="#ffffff" xlink:href="#b"/>
</g>
<g clip-path="url(#a)">
<use x="144.042802" y="903.936418" fill="#ffffff" stroke="#ffffff" xlink:href="#b"/>
</g>
<g clip-path="url(#a)">
<use x="191.220094" y="903.936418" fill="#ffffff" stroke="#ffffff" xlink:href="#b"/>
</g>
<g clip-path="url(#a)">
<use x="285.574679" y="903.936418" fill="#ffffff" stroke="#ffffff" xlink:href="#b"/>
</g>
<g clip-path="url(#a)">
<use x="332.751971" y="903.936418" fill="#ffffff" stroke="#ffffff" xlink:href="#b"/>
</g>
<g clip-path="url(#a)">
<use x="379.929263" y="903.936418" fill="#ffffff" stroke="#ffffff" xlink:href="#b"/>
</g>
<g clip-path="url(#a)">
<use x="662.993016" y="903.936418" fill="#ffffff" stroke="#ffffff" xlink:href="#b"/>
</g>
<g clip-path="url(#a)">
<use x="946.056769" y="903.936418" fill="#ffffff" stroke="#ffffff" xlink:href="#b"/>
</g>
<g clip-path="url(#a)">
<use x="1229.120523" y="903.936418" fill="#ffffff" stroke="#ffffff" xlink:href="#b"/>
</g>
<g clip-path="url(#a)">
<use x="1276.297815" y="903.936418" fill="#ffffff" stroke="#ffffff" xlink:href="#b"/>
</g>
<g clip-path="url(#a)">
<use x="1323.475107" y="903.936418" fill="#ffffff" stroke="#ffffff" xlink:href="#b"/>
</g>
<g clip-path="url(#a)">
<use x="1370.652399" y="903.936418" fill="#ffffff" stroke="#ffffff" xlink:href="#b"/>
</g>
<g clip-path="url(#a)">
<use x="1795.248029" y="903.936418" fill="#ffffff" stroke="#ffffff" xlink:href="#b"/>
</g>
<g clip-path="url(#a)">
<use x="1842.425321" y="903.936418" fill="#ffffff" stroke="#ffffff" xlink:href="#b"/>
</g>
<g clip-path="url(#a)">
<use x="2031.13449" y="903.936418" fill="#ffffff" stroke="#ffffff" xlink:href="#b"/>
</g>
<g clip-path="url(#a)">
<g transform="translate(87.883 1070.9) scale(.1 -.1)">
<use xlink:href="#s"/>
<use x="77.001953" xlink:href="#e"/>
<use x="138.525391" xlink:href="#i"/>
</g>
</g>
<g clip-path="url(#a)">
<defs>
<path id="af" d="m9.0781 75.984h9.0312v-44.875l26.812 23.578h11.469l-29-25.578 30.234-29.109h-11.719l-27.797 26.703v-26.703h-9.0312z"/>
</defs>
<g transform="translate(129.05 1070.9) scale(.1 -.1)">
<use xlink:href="#af"/>
<use x="57.910156" xlink:href="#j"/>
<use x="85.693359" xlink:href="#e"/>
<use x="147.216797" xlink:href="#g"/>
<use x="175" xlink:href="#f"/>
<use x="238.378906" xlink:href="#e"/>
</g>
</g>
<g clip-path="url(#a)">
<defs>
<path id="ay" d="m5.5156 54.688h42.672v-8.2031l-33.781-39.312h33.781v-7.1719h-43.891v8.2031l33.797 39.312h-32.578z"/>
</defs>
<g transform="translate(178.97 1070.9) scale(.1 -.1)">
<use xlink:href="#x"/>
<use x="60.287109" xlink:href="#i"/>
<use x="101.400391" xlink:href="#g"/>
<use x="129.183594" xlink:href="#f"/>
<use x="192.5625" xlink:href="#ay"/>
</g>
</g>
<g clip-path="url(#a)">
<defs>
<path id="aw" d="m34.281 27.484q-10.891 0-15.094-2.4844t-4.2031-8.5q0-4.7812 3.1562-7.5938 3.1562-2.7969 8.5625-2.7969 7.4844 0 12 5.2969t4.5156 14.078v2zm17.922 3.7188v-31.203h-8.9844v8.2969q-3.0781-4.9688-7.6719-7.3438t-11.234-2.375q-8.3906 0-13.359 4.7188-4.9531 4.7188-4.9531 12.625 0 9.2188 6.1719 13.906 6.1875 4.6875 18.438 4.6875h12.609v0.89062q0 6.2031-4.0781 9.5938t-11.453 3.3906q-4.6875 0-9.1406-1.125-4.4375-1.125-8.5312-3.375v8.3125q4.9219 1.9062 9.5625 2.8438 4.6406 0.95312 9.0312 0.95312 11.875 0 17.734-6.1562 5.8594-6.1406 5.8594-18.641zm-18.609 44.578h9.9062v-9.8594h-9.9062zm-19.094 0h9.9062v-9.8594h-9.9062z"/>
<path id="v" d="m48.781 52.594v-8.4062q-3.8125 2.1094-7.6406 3.1562t-7.7344 1.0469q-8.75 0-13.594-5.5469-4.8281-5.5312-4.8281-15.547t4.8281-15.562q4.8438-5.5312 13.594-5.5312 3.9062 0 7.7344 1.0469t7.6406 3.1562v-8.3125q-3.7656-1.75-7.7969-2.625-4.0156-0.89062-8.5625-0.89062-12.359 0-19.641 7.7656-7.2656 7.7656-7.2656 20.953 0 13.375 7.3438 21.031 7.3594 7.6719 20.156 7.6719 4.1406 0 8.0938-0.85938 3.9531-0.84375 7.6719-2.5469z"/>
<path id="u" d="m54.891 33.016v-33.016h-8.9844v32.719q0 7.7656-3.0312 11.609-3.0312 3.8594-9.0781 3.8594-7.2812 0-11.484-4.6406-4.2031-4.625-4.2031-12.641v-30.906h-9.0312v75.984h9.0312v-29.797q3.2344 4.9375 7.5938 7.375 4.375 2.4375 10.094 2.4375 9.4219 0 14.25-5.8281 4.8438-5.8281 4.8438-17.156z"/>
<path id="t" d="m18.312 70.219v-15.531h18.5v-6.9844h-18.5v-29.688q0-6.6875 1.8281-8.5938t7.4531-1.9062h9.2188v-7.5156h-9.2188q-10.406 0-14.359 3.875-3.9531 3.8906-3.9531 14.141v29.688h-6.5938v6.9844h6.5938v15.531z"/>
</defs>
<g transform="translate(218.52 1070.9) scale(.1 -.1)">
<use xlink:href="#j"/>
<use x="27.783203" xlink:href="#aw"/>
<use x="89.0625" xlink:href="#v"/>
<use x="144.042969" xlink:href="#u"/>
<use x="207.421875" xlink:href="#e"/>
<use x="268.945312" xlink:href="#j"/>
<use x="296.728516" xlink:href="#t"/>
<use x="335.9375" xlink:href="#e"/>
</g>
</g>
<g clip-path="url(#a)">
<defs>
<path id="at" d="m11.719 12.406h10.297v-12.406h-10.297zm0 39.297h10.297v-12.391h-10.297z"/>
</defs>
<g transform="translate(283.89 1070.9) scale(.1 -.1)">
<use xlink:href="#at"/>
</g>
</g>
<g clip-path="url(#a)">
<defs>
<path id="ap" d="m4.8906 31.391h26.312v-8h-26.312z"/>
</defs>
<g transform="translate(330.95 1070.9) scale(.1 -.1)">
<use xlink:href="#ap"/>
</g>
</g>
<g clip-path="url(#a)">
<defs>
<path id="ah" d="m17.922 72.906v-27.109h-8.2969v27.109zm18.453 0v-27.109h-8.2969v27.109z"/>
</defs>
<g transform="translate(377.63 1070.9) scale(.1 -.1)">
<use xlink:href="#ah"/>
</g>
</g>
<g clip-path="url(#a)">
<defs>
<path id="ai" d="m8.5 21.578v33.109h8.9844v-32.766q0-7.7656 3.0156-11.656 3.0312-3.875 9.0938-3.875 7.2656 0 11.484 4.6406 4.2344 4.6406 4.2344 12.656v31h8.9844v-54.688h-8.9844v8.4062q-3.2656-4.9844-7.5938-7.4062-4.3125-2.4219-10.031-2.4219-9.4219 0-14.312 5.8594-4.875 5.8594-4.875 17.141z"/>
</defs>
<g transform="translate(420.09 1070.9) scale(.1 -.1)">
<use xlink:href="#s"/>
<use x="77.001953" xlink:href="#ai"/>
</g>
</g>
<g clip-path="url(#a)">
<defs>
<path id="ao" d="m48.688 27.297q0 9.9062-4.0781 15.547t-11.203 5.6406q-7.1406 0-11.219-5.6406t-4.0781-15.547 4.0781-15.547 11.219-5.6406q7.125 0 11.203 5.6406t4.0781 15.547zm-30.578 19.094q2.8438 4.875 7.1562 7.2344 4.3281 2.375 10.328 2.375 9.9688 0 16.188-7.9062 6.2344-7.9062 6.2344-20.797t-6.2344-20.812q-6.2188-7.9062-16.188-7.9062-6 0-10.328 2.375-4.3125 2.375-7.1562 7.25v-8.2031h-9.0312v75.984h9.0312z"/>
<path id="y" d="m44.281 53.078v-8.5q-3.7969 1.9531-7.9062 2.9219-4.0938 0.98438-8.5 0.98438-6.6875 0-10.031-2.0469t-3.3438-6.1562q0-3.125 2.3906-4.9062t9.625-3.3906l3.0781-0.6875q9.5625-2.0469 13.594-5.7812t4.0312-10.422q0-7.625-6.0312-12.078-6.0312-4.4375-16.578-4.4375-4.3906 0-9.1562 0.85938t-10.031 2.5625v9.2812q4.9844-2.5938 9.8125-3.8906 4.8281-1.2812 9.5781-1.2812 6.3438 0 9.75 2.1719 3.4219 2.1719 3.4219 6.125 0 3.6562-2.4688 5.6094-2.4531 1.9531-10.812 3.7656l-3.125 0.73438q-8.3438 1.75-12.062 5.3906-3.7031 3.6406-3.7031 9.9844 0 7.7188 5.4688 11.906 5.4688 4.2031 15.531 4.2031 4.9688 0 9.3594-0.73438 4.4062-0.71875 8.1094-2.1875z"/>
</defs>
<g transform="translate(465.16 1070.9) scale(.1 -.1)">
<use xlink:href="#ao"/>
<use x="63.476562" xlink:href="#g"/>
<use x="91.259766" xlink:href="#y"/>
<use x="143.359375" xlink:href="#t"/>
</g>
</g>
<g clip-path="url(#a)">
<defs>
<path id="an" d="m45.406 46.391v29.594h8.9844v-75.984h-8.9844v8.2031q-2.8281-4.875-7.1562-7.25-4.3125-2.375-10.375-2.375-9.9062 0-16.141 7.9062-6.2188 7.9219-6.2188 20.812t6.2188 20.797q6.2344 7.9062 16.141 7.9062 6.0625 0 10.375-2.375 4.3281-2.3594 7.1562-7.2344zm-30.609-19.094q0-9.9062 4.0781-15.547t11.203-5.6406 11.219 5.6406q4.1094 5.6406 4.1094 15.547t-4.1094 15.547q-4.0938 5.6406-11.219 5.6406t-11.203-5.6406-4.0781-15.547z"/>
<path id="ak" d="m30.609 48.391q-7.2188 0-11.422-5.6406t-4.2031-15.453 4.1719-15.453q4.1875-5.6406 11.453-5.6406 7.1875 0 11.375 5.6562 4.2031 5.6719 4.2031 15.438 0 9.7188-4.2031 15.406-4.1875 5.6875-11.375 5.6875zm0 7.6094q11.719 0 18.406-7.625 6.7031-7.6094 6.7031-21.078 0-13.422-6.7031-21.078-6.6875-7.6406-18.406-7.6406-11.766 0-18.438 7.6406-6.6562 7.6562-6.6562 21.078 0 13.469 6.6562 21.078 6.6719 7.625 18.438 7.625z"/>
</defs>
<g transform="translate(509.31 1070.9) scale(.1 -.1)">
<use xlink:href="#an"/>
<use x="63.476562" xlink:href="#ak"/>
<use x="124.658203" xlink:href="#v"/>
<use x="179.638672" xlink:href="#u"/>
</g>
</g>
<g clip-path="url(#a)">
<g transform="translate(556.2 1070.9) scale(.1 -.1)">
<use xlink:href="#f"/>
<use x="63.378906" xlink:href="#g"/>
<use x="91.162109" xlink:href="#v"/>
<use x="146.142578" xlink:href="#u"/>
<use x="209.521484" xlink:href="#t"/>
</g>
</g>
<g clip-path="url(#a)">
<g transform="translate(603.24 1070.9) scale(.1 -.1)">
<use xlink:href="#y"/>
<use x="52.099609" xlink:href="#t"/>
<use x="91.308594" xlink:href="#h"/>
<use x="152.587891" xlink:href="#i"/>
<use x="193.701172" xlink:href="#af"/>
</g>
</g>
<g clip-path="url(#a)">
<defs>
<path id="d" d="m10.688 12.406h10.312v-12.406h-10.312z"/>
</defs>
<g transform="translate(658.23 1070.9) scale(.1 -.1)">
<use xlink:href="#d"/>
<use x="31.787109" xlink:href="#d"/>
<use x="63.574219" xlink:href="#d"/>
</g>
</g>
<g clip-path="url(#a)">
<g transform="translate(703.15 1070.9) scale(.1 -.1)">
<use xlink:href="#s"/>
<use x="77.001953" xlink:href="#ai"/>
</g>
</g>
<g clip-path="url(#a)">
<g transform="translate(746.55 1070.9) scale(.1 -.1)">
<use xlink:href="#u"/>
<use x="63.378906" xlink:href="#h"/>
<use x="124.658203" xlink:href="#y"/>
<use x="176.757812" xlink:href="#t"/>
</g>
</g>
<g clip-path="url(#a)">
<g transform="translate(792.09 1070.9) scale(.1 -.1)">
<use xlink:href="#f"/>
<use x="63.378906" xlink:href="#g"/>
<use x="91.162109" xlink:href="#v"/>
<use x="146.142578" xlink:href="#u"/>
<use x="209.521484" xlink:href="#t"/>
</g>
</g>
<g clip-path="url(#a)">
<g transform="translate(834.74 1070.9) scale(.1 -.1)">
<use xlink:href="#e"/>
<use x="61.523438" xlink:href="#g"/>
<use x="89.306641" xlink:href="#f"/>
<use x="152.685547" xlink:href="#k"/>
<use x="250.097656" xlink:href="#h"/>
<use x="311.376953" xlink:href="#j"/>
</g>
</g>
<g clip-path="url(#a)">
<defs>
<path id="av" d="m8.5 21.578v33.109h8.9844v-32.766q0-7.7656 3.0156-11.656 3.0312-3.875 9.0938-3.875 7.2656 0 11.484 4.6406 4.2344 4.6406 4.2344 12.656v31h8.9844v-54.688h-8.9844v8.4062q-3.2656-4.9844-7.5938-7.4062-4.3125-2.4219-10.031-2.4219-9.4219 0-14.312 5.8594-4.875 5.8594-4.875 17.141zm22.609 34.422m4.4844 19.781h9.9062v-9.8594h-9.9062zm-19.094 0h9.9062v-9.8594h-9.9062z"/>
<path id="ax" d="m9.0781 55.516q0 9.7656 5.8281 15.109 5.8438 5.3594 16.484 5.3594 10.156 0 15.5-5.6719 5.3594-5.6562 5.5-16.594-7.375-0.39062-11.484-3.2031-4.0938-2.8125-4.0938-7.5 0-2.2969 1.4219-4.2812 1.4219-1.9688 4.5938-4.0156l2.7812-1.8125q8.1094-5.1719 10.453-8.6406t2.3438-8.3438q0-8.4062-5.5-12.875t-15.797-4.4688q-3.125 0-6.4531 0.60938-3.3125 0.60938-6.875 1.7969v8q3.9062-1.4688 7.3125-2.1719 3.4219-0.70312 6.6094-0.70312 5.6562 0 8.5781 2.3125 2.9375 2.3281 2.9375 6.7656 0 3.0781-1.4375 5.125t-6.375 5.0781l-4.4844 2.6875q-4.6875 2.875-6.8125 6.1719t-2.125 7.75q0 6.1875 4.0781 10.391t11.438 5.625q-0.39062 5.0156-3.5938 7.75-3.1875 2.7344-8.7031 2.7344-6.3438 0-9.6719-3.3906-3.3125-3.3906-3.3125-9.7812v-55.328h-9.1406z"/>
</defs>
<g transform="translate(886.61 1070.9) scale(.1 -.1)">
<use xlink:href="#aa"/>
<use x="57.441406" xlink:href="#av"/>
<use x="120.820312" xlink:href="#ax"/>
<use x="183.808594" xlink:href="#e"/>
</g>
</g>
<g clip-path="url(#a)">
<g transform="translate(941.29 1070.9) scale(.1 -.1)">
<use xlink:href="#d"/>
<use x="31.787109" xlink:href="#d"/>
<use x="63.574219" xlink:href="#d"/>
</g>
</g>
<g clip-path="url(#a)">
<g transform="translate(986.22 1070.9) scale(.1 -.1)">
<use xlink:href="#s"/>
<use x="77.001953" xlink:href="#ai"/>
</g>
</g>
<g clip-path="url(#a)">
<g transform="translate(1023.6 1070.9) scale(.1 -.1)">
<use xlink:href="#af"/>
<use x="57.894531" xlink:href="#h"/>
<use x="119.173828" xlink:href="#f"/>
<use x="182.552734" xlink:href="#f"/>
<use x="245.931641" xlink:href="#y"/>
<use x="298.03125" xlink:href="#t"/>
</g>
</g>
<g clip-path="url(#a)">
<g transform="translate(1075.2 1070.9) scale(.1 -.1)">
<use xlink:href="#f"/>
<use x="63.378906" xlink:href="#g"/>
<use x="91.162109" xlink:href="#v"/>
<use x="146.142578" xlink:href="#u"/>
<use x="209.521484" xlink:href="#t"/>
</g>
</g>
<g clip-path="url(#a)">
<g transform="translate(1125.4 1070.9) scale(.1 -.1)">
<use xlink:href="#k"/>
<use x="97.412109" xlink:href="#h"/>
<use x="158.691406" xlink:href="#j"/>
</g>
</g>
<g clip-path="url(#a)">
<g transform="translate(1143.7 1070.9) scale(.1 -.1)">
<use xlink:href="#u"/>
<use x="63.378906" xlink:href="#e"/>
<use x="124.902344" xlink:href="#i"/>
<use x="166.015625" xlink:href="#ai"/>
<use x="229.394531" xlink:href="#k"/>
<use x="326.806641" xlink:href="#af"/>
<use x="384.669922" xlink:href="#ak"/>
<use x="445.851562" xlink:href="#k"/>
<use x="543.263672" xlink:href="#k"/>
<use x="640.675781" xlink:href="#e"/>
<use x="702.199219" xlink:href="#f"/>
</g>
</g>
<g clip-path="url(#a)">
<g transform="translate(1224.4 1070.9) scale(.1 -.1)">
<use xlink:href="#d"/>
<use x="31.787109" xlink:href="#d"/>
<use x="63.574219" xlink:href="#d"/>
</g>
</g>
<g clip-path="url(#a)">
<g transform="translate(1274 1070.9) scale(.1 -.1)">
<use xlink:href="#ah"/>
</g>
</g>
<g clip-path="url(#a)">
<g transform="translate(1321.7 1070.9) scale(.1 -.1)">
<use xlink:href="#ap"/>
</g>
</g>
<g clip-path="url(#a)">
<g transform="translate(1368.4 1070.9) scale(.1 -.1)">
<use xlink:href="#ah"/>
</g>
</g>
<g clip-path="url(#a)">
<defs>
<path id="ar" d="m9.8125 72.906h9.8594v-72.906h-9.8594z"/>
</defs>
<g transform="translate(1410.4 1070.9) scale(.1 -.1)">
<use xlink:href="#ar"/>
<use x="29.492188" xlink:href="#v"/>
<use x="84.472656" xlink:href="#u"/>
</g>
</g>
<g clip-path="url(#a)">
<g transform="translate(1452.7 1070.9) scale(.1 -.1)">
<use xlink:href="#af"/>
<use x="57.894531" xlink:href="#h"/>
<use x="119.173828" xlink:href="#f"/>
<use x="182.552734" xlink:href="#f"/>
</g>
</g>
<g clip-path="url(#a)">
<g transform="translate(1501.7 1070.9) scale(.1 -.1)">
<use xlink:href="#an"/>
<use x="63.476562" xlink:href="#g"/>
<use x="91.259766" xlink:href="#v"/>
<use x="146.240234" xlink:href="#u"/>
</g>
</g>
<g clip-path="url(#a)">
<defs>
<path id="az" d="m4.2031 54.688h8.9844l11.234-42.672 11.172 42.672h10.594l11.234-42.672 11.188 42.672h8.9844l-14.312-54.688h-10.594l-11.766 44.828-11.812-44.828h-10.609z"/>
</defs>
<g transform="translate(1543.7 1070.9) scale(.1 -.1)">
<use xlink:href="#az"/>
<use x="81.787109" xlink:href="#e"/>
<use x="143.310547" xlink:href="#g"/>
<use x="171.09375" xlink:href="#t"/>
<use x="210.302734" xlink:href="#e"/>
<use x="271.826172" xlink:href="#i"/>
</g>
</g>
<g clip-path="url(#a)">
<defs>
<path id="am" d="m37.109 75.984v-7.4844h-8.5938q-4.8281 0-6.7188-1.9531-1.875-1.9531-1.875-7.0312v-4.8281h14.797v-6.9844h-14.797v-47.703h-9.0312v47.703h-8.5938v6.9844h8.5938v3.8125q0 9.125 4.25 13.297 4.25 4.1875 13.469 4.1875z"/>
<path id="al" d="m45.406 27.984q0 9.7656-4.0312 15.125-4.0156 5.375-11.297 5.375-7.2188 0-11.25-5.375-4.0312-5.3594-4.0312-15.125 0-9.7188 4.0312-15.094t11.25-5.375q7.2812 0 11.297 5.375 4.0312 5.375 4.0312 15.094zm8.9844-21.203q0-13.953-6.2031-20.766-6.1875-6.8125-18.984-6.8125-4.7344 0-8.9375 0.70312t-8.1562 2.1719v8.7344q3.9531-2.1406 7.8125-3.1562 3.8594-1.0312 7.8594-1.0312 8.8438 0 13.234 4.6094t4.3906 13.938v4.4531q-2.7812-4.8438-7.125-7.2344t-10.406-2.3906q-10.047 0-16.203 7.6562-6.1562 7.6719-6.1562 20.328 0 12.688 6.1562 20.344 6.1562 7.6719 16.203 7.6719 6.0625 0 10.406-2.3906t7.125-7.2188v8.2969h8.9844z"/>
</defs>
<g transform="translate(1578.5 1070.9) scale(.1 -.1)">
<use xlink:href="#am"/>
<use x="35.205078" xlink:href="#ak"/>
<use x="96.386719" xlink:href="#i"/>
<use x="137.5" xlink:href="#t"/>
<use x="176.708984" xlink:href="#ao"/>
<use x="240.185547" xlink:href="#i"/>
<use x="281.298828" xlink:href="#g"/>
<use x="309.082031" xlink:href="#f"/>
<use x="372.460938" xlink:href="#al"/>
<use x="435.9375" xlink:href="#e"/>
<use x="497.460938" xlink:href="#f"/>
</g>
</g>
<g clip-path="url(#a)">
<g transform="translate(1646.7 1070.9) scale(.1 -.1)">
<use xlink:href="#h"/>
<use x="61.279297" xlink:href="#j"/>
<use x="89.0625" xlink:href="#y"/>
</g>
</g>
<g clip-path="url(#a)">
<g transform="translate(1693.3 1070.9) scale(.1 -.1)">
<use xlink:href="#e"/>
<use x="61.523438" xlink:href="#g"/>
<use x="89.306641" xlink:href="#f"/>
</g>
</g>
<g clip-path="url(#a)">
<g transform="translate(1734.1 1070.9) scale(.1 -.1)">
<use xlink:href="#ag"/>
<use x="63.476562" xlink:href="#v"/>
<use x="118.457031" xlink:href="#u"/>
<use x="181.835938" xlink:href="#g"/>
<use x="209.619141" xlink:href="#am"/>
<use x="244.824219" xlink:href="#am"/>
</g>
</g>
<g clip-path="url(#a)">
<g transform="translate(1792.9 1070.9) scale(.1 -.1)">
<use xlink:href="#ah"/>
</g>
</g>
<g clip-path="url(#a)">
<defs>
<path id="au" d="m11.719 12.406h10.297v-8.4062l-8-15.625h-6.2969l4 15.625z"/>
</defs>
<g transform="translate(1840.8 1070.9) scale(.1 -.1)">
<use xlink:href="#au"/>
</g>
</g>
<g clip-path="url(#a)">
<g transform="translate(1875.7 1070.9) scale(.1 -.1)">
<use xlink:href="#y"/>
<use x="52.099609" xlink:href="#h"/>
<use x="113.378906" xlink:href="#al"/>
<use x="176.855469" xlink:href="#t"/>
<use x="216.064453" xlink:href="#e"/>
</g>
</g>
<g clip-path="url(#a)">
<g transform="translate(1929.1 1070.9) scale(.1 -.1)">
<use xlink:href="#an"/>
<use x="63.476562" xlink:href="#g"/>
<use x="91.259766" xlink:href="#e"/>
</g>
</g>
<g clip-path="url(#a)">
<g transform="translate(1961 1070.9) scale(.1 -.1)">
<use xlink:href="#ag"/>
<use x="63.476562" xlink:href="#v"/>
<use x="118.457031" xlink:href="#u"/>
<use x="181.835938" xlink:href="#j"/>
<use x="209.619141" xlink:href="#h"/>
<use x="270.898438" xlink:href="#f"/>
<use x="334.277344" xlink:href="#al"/>
<use x="397.753906" xlink:href="#e"/>
</g>
</g>
<g clip-path="url(#a)">
<g transform="translate(2029.5 1070.9) scale(.1 -.1)">
<use xlink:href="#d"/>
</g>
</g>
<g clip-path="url(#a)">
<defs>
<path id="c" d="m12.406 8.2969h16.109v55.625l-17.531-3.5156v8.9844l17.438 3.5156h9.8594v-64.609h16.109v-8.2969h-41.984z"/>
</defs>
<g transform="translate(1220.7 54.583) scale(.1 -.1)">
<use xlink:href="#c"/>
<use x="63.623047" xlink:href="#d"/>
<use x="95.410156" xlink:href="#c"/>
</g>
</g>
<g clip-path="url(#a)">
<defs>
<path id="n" d="m19.188 8.2969h34.422v-8.2969h-46.281v8.2969q5.6094 5.8125 15.297 15.594 9.7031 9.7969 12.188 12.641 4.7344 5.3125 6.6094 9 1.8906 3.6875 1.8906 7.25 0 5.8125-4.0781 9.4688-4.0781 3.6719-10.625 3.6719-4.6406 0-9.7969-1.6094-5.1406-1.6094-11-4.8906v9.9688q5.9531 2.3906 11.125 3.6094 5.1875 1.2188 9.4844 1.2188 11.328 0 18.062-5.6719 6.7344-5.6562 6.7344-15.125 0-4.5-1.6875-8.5312-1.6719-4.0156-6.125-9.4844-1.2188-1.4219-7.7656-8.1875-6.5312-6.7656-18.453-18.922z"/>
</defs>
<g transform="translate(355.86 406.2) scale(.1 -.1)">
<use xlink:href="#c"/>
<use x="63.623047" xlink:href="#d"/>
<use x="95.410156" xlink:href="#n"/>
</g>
</g>
<g clip-path="url(#a)">
<defs>
<path id="r" d="m40.578 39.312q7.0781-1.5156 11.047-6.3125 3.9844-4.7812 3.9844-11.812 0-10.781-7.4219-16.703-7.4219-5.9062-21.094-5.9062-4.5781 0-9.4375 0.90625t-10.031 2.7188v9.5156q4.0938-2.3906 8.9688-3.6094 4.8906-1.2188 10.219-1.2188 9.2656 0 14.125 3.6562t4.8594 10.641q0 6.4531-4.5156 10.078-4.5156 3.6406-12.562 3.6406h-8.5v8.1094h8.8906q7.2656 0 11.125 2.9062t3.8594 8.375q0 5.6094-3.9844 8.6094-3.9688 3.0156-11.391 3.0156-4.0625 0-8.7031-0.89062-4.6406-0.875-10.203-2.7188v8.7812q5.625 1.5625 10.531 2.3438t9.25 0.78125q11.234 0 17.766-5.1094 6.5469-5.0938 6.5469-13.781 0-6.0625-3.4688-10.234t-9.8594-5.7812z"/>
</defs>
<g transform="translate(1800.5 232.6) scale(.1 -.1)">
<use xlink:href="#c"/>
<use x="63.623047" xlink:href="#d"/>
<use x="95.410156" xlink:href="#r"/>
</g>
</g>
<g clip-path="url(#a)">
<defs>
<path id="ab" d="m10.984 1.5156v8.9844q3.7188-1.7656 7.5156-2.6875 3.8125-0.92188 7.4844-0.92188 9.7656 0 14.906 6.5625 5.1562 6.5625 5.8906 19.953-2.8281-4.2031-7.1875-6.4531-4.3438-2.25-9.6094-2.25-10.938 0-17.312 6.6094-6.375 6.625-6.375 18.109 0 11.219 6.6406 18 6.6406 6.7969 17.672 6.7969 12.656 0 19.312-9.7031 6.6719-9.6875 6.6719-28.141 0-17.234-8.1875-27.516-8.1719-10.281-21.984-10.281-3.7188 0-7.5312 0.73438-3.7969 0.73438-7.9062 2.2031zm19.625 30.906q6.6406 0 10.516 4.5312 3.8906 4.5469 3.8906 12.469 0 7.8594-3.8906 12.422-3.875 4.5625-10.516 4.5625t-10.516-4.5625-3.875-12.422q0-7.9219 3.875-12.469 3.875-4.5312 10.516-4.5312z"/>
</defs>
<g transform="translate(1522.9 406.2) scale(.1 -.1)">
<use xlink:href="#c"/>
<use x="63.623047" xlink:href="#d"/>
<use x="95.410156" xlink:href="#ab"/>
</g>
</g>
<g clip-path="url(#a)">
<defs>
<path id="ae" d="m31.781 66.406q-7.6094 0-11.453-7.5-3.8281-7.4844-3.8281-22.531 0-14.984 3.8281-22.484 3.8438-7.5 11.453-7.5 7.6719 0 11.5 7.5 3.8438 7.5 3.8438 22.484 0 15.047-3.8438 22.531-3.8281 7.5-11.5 7.5zm0 7.8125q12.266 0 18.734-9.7031 6.4688-9.6875 6.4688-28.141 0-18.406-6.4688-28.109-6.4688-9.6875-18.734-9.6875-12.25 0-18.719 9.6875-6.4688 9.7031-6.4688 28.109 0 18.453 6.4688 28.141 6.4688 9.7031 18.719 9.7031z"/>
</defs>
<g transform="translate(1878.5 906.7) scale(.1 -.1)">
<use xlink:href="#c"/>
<use x="63.623047" xlink:href="#d"/>
<use x="95.410156" xlink:href="#c"/>
<use x="159.033203" xlink:href="#ae"/>
</g>
</g>
<g clip-path="url(#a)">
<g transform="translate(1972.8 742.46) scale(.1 -.1)">
<use xlink:href="#c"/>
<use x="63.623047" xlink:href="#d"/>
<use x="95.410156" xlink:href="#c"/>
<use x="159.033203" xlink:href="#c"/>
</g>
</g>
<g clip-path="url(#a)">
<defs>
<path id="m" d="m37.797 64.312-24.906-38.922h24.906zm-2.5938 8.5938h12.406v-47.516h10.406v-8.2031h-10.406v-17.188h-9.8125v17.188h-32.906v9.5156z"/>
</defs>
<g transform="translate(1925.6 906.7) scale(.1 -.1)">
<use xlink:href="#c"/>
<use x="63.623047" xlink:href="#d"/>
<use x="95.410156" xlink:href="#c"/>
<use x="159.033203" xlink:href="#m"/>
</g>
</g>
<g clip-path="url(#a)">
<defs>
<path id="o" d="m10.797 72.906h38.719v-8.3125h-29.688v-17.859q2.1406 0.73438 4.2812 1.0938 2.1562 0.35938 4.3125 0.35938 12.203 0 19.328-6.6875 7.1406-6.6875 7.1406-18.109 0-11.766-7.3281-18.297-7.3281-6.5156-20.656-6.5156-4.5938 0-9.3594 0.78125-4.75 0.78125-9.8281 2.3438v9.9219q4.3906-2.3906 9.0781-3.5625t9.9062-1.1719q8.4531 0 13.375 4.4375 4.9375 4.4375 4.9375 12.062 0 7.6094-4.9375 12.047-4.9219 4.4531-13.375 4.4531-3.9531 0-7.8906-0.875-3.9219-0.875-8.0156-2.7344z"/>
</defs>
<g transform="translate(1972.8 906.7) scale(.1 -.1)">
<use xlink:href="#c"/>
<use x="63.623047" xlink:href="#d"/>
<use x="95.410156" xlink:href="#c"/>
<use x="159.033203" xlink:href="#o"/>
</g>
</g>
<g clip-path="url(#a)">
<defs>
<path id="w" d="m33.016 40.375q-6.6406 0-10.531-4.5469-3.875-4.5312-3.875-12.438 0-7.8594 3.875-12.438 3.8906-4.5625 10.531-4.5625t10.516 4.5625q3.875 4.5781 3.875 12.438 0 7.9062-3.875 12.438-3.875 4.5469-10.516 4.5469zm19.578 30.922v-8.9844q-3.7188 1.75-7.5 2.6719-3.7812 0.9375-7.5 0.9375-9.7656 0-14.922-6.5938-5.1406-6.5938-5.875-19.922 2.875 4.25 7.2188 6.5156 4.3594 2.2656 9.5781 2.2656 10.984 0 17.359-6.6719 6.375-6.6562 6.375-18.125 0-11.234-6.6406-18.031-6.6406-6.7812-17.672-6.7812-12.656 0-19.344 9.6875-6.6875 9.7031-6.6875 28.109 0 17.281 8.2031 27.562t22.016 10.281q3.7188 0 7.5-0.73438t7.8906-2.1875z"/>
</defs>
<g transform="translate(1406.7 906.7) scale(.1 -.1)">
<use xlink:href="#c"/>
<use x="63.623047" xlink:href="#d"/>
<use x="95.410156" xlink:href="#c"/>
<use x="159.033203" xlink:href="#w"/>
</g>
</g>
<g clip-path="url(#a)">
<defs>
<path id="ad" d="m8.2031 72.906h46.875v-4.2031l-26.469-68.703h-10.297l24.906 64.594h-35.016z"/>
</defs>
<g transform="translate(1453.9 906.7) scale(.1 -.1)">
<use xlink:href="#c"/>
<use x="63.623047" xlink:href="#d"/>
<use x="95.410156" xlink:href="#c"/>
<use x="159.033203" xlink:href="#ad"/>
</g>
</g>
<g clip-path="url(#a)">
<defs>
<path id="ac" d="m31.781 34.625q-7.0312 0-11.062-3.7656-4.0156-3.7656-4.0156-10.344 0-6.5938 4.0156-10.359 4.0312-3.7656 11.062-3.7656t11.078 3.7812q4.0625 3.7969 4.0625 10.344 0 6.5781-4.0312 10.344-4.0156 3.7656-11.109 3.7656zm-9.8594 4.1875q-6.3438 1.5625-9.8906 5.9062-3.5312 4.3594-3.5312 10.609 0 8.7344 6.2188 13.812 6.2344 5.0781 17.062 5.0781 10.891 0 17.094-5.0781t6.2031-13.812q0-6.25-3.5469-10.609-3.5312-4.3438-9.8281-5.9062 7.125-1.6562 11.094-6.5 3.9844-4.8281 3.9844-11.797 0-10.609-6.4688-16.281-6.4688-5.6562-18.531-5.6562-12.047 0-18.531 5.6562-6.4688 5.6719-6.4688 16.281 0 6.9688 4 11.797 4.0156 4.8438 11.141 6.5zm-3.6094 15.578q0-5.6562 3.5312-8.8281 3.5469-3.1719 9.9375-3.1719 6.3594 0 9.9375 3.1719 3.5938 3.1719 3.5938 8.8281 0 5.6719-3.5938 8.8438-3.5781 3.1719-9.9375 3.1719-6.3906 0-9.9375-3.1719-3.5312-3.1719-3.5312-8.8438z"/>
</defs>
<g transform="translate(1501.1 906.7) scale(.1 -.1)">
<use xlink:href="#c"/>
<use x="63.623047" xlink:href="#d"/>
<use x="95.410156" xlink:href="#c"/>
<use x="159.033203" xlink:href="#ac"/>
</g>
</g>
<g clip-path="url(#a)">
<g transform="translate(1548.2 906.7) scale(.1 -.1)">
<use xlink:href="#c"/>
<use x="63.623047" xlink:href="#d"/>
<use x="95.410156" xlink:href="#c"/>
<use x="159.033203" xlink:href="#ab"/>
</g>
</g>
<g clip-path="url(#a)">
<g transform="translate(1595.4 906.7) scale(.1 -.1)">
<use xlink:href="#c"/>
<use x="63.623047" xlink:href="#d"/>
<use x="95.410156" xlink:href="#n"/>
<use x="159.033203" xlink:href="#ae"/>
</g>
</g>
<g clip-path="url(#a)">
<g transform="translate(1613.1 575.93) scale(.1 -.1)">
<use xlink:href="#c"/>
<use x="63.623047" xlink:href="#d"/>
<use x="95.410156" xlink:href="#n"/>
<use x="159.033203" xlink:href="#c"/>
</g>
</g>
<g clip-path="url(#a)">
<g transform="translate(1642.6 906.7) scale(.1 -.1)">
<use xlink:href="#c"/>
<use x="63.623047" xlink:href="#d"/>
<use x="95.410156" xlink:href="#n"/>
<use x="159.033203" xlink:href="#n"/>
</g>
</g>
<g clip-path="url(#a)">
<g transform="translate(1713.3 742.46) scale(.1 -.1)">
<use xlink:href="#c"/>
<use x="63.623047" xlink:href="#d"/>
<use x="95.410156" xlink:href="#n"/>
<use x="159.033203" xlink:href="#r"/>
</g>
</g>
<g clip-path="url(#a)">
<g transform="translate(1689.8 906.7) scale(.1 -.1)">
<use xlink:href="#c"/>
<use x="63.623047" xlink:href="#d"/>
<use x="95.410156" xlink:href="#n"/>
<use x="159.033203" xlink:href="#m"/>
</g>
</g>
<g clip-path="url(#a)">
<g transform="translate(1736.9 906.7) scale(.1 -.1)">
<use xlink:href="#c"/>
<use x="63.623047" xlink:href="#d"/>
<use x="95.410156" xlink:href="#n"/>
<use x="159.033203" xlink:href="#o"/>
</g>
</g>
<g clip-path="url(#a)">
<g transform="translate(132.91 742.46) scale(.1 -.1)">
<use xlink:href="#c"/>
<use x="63.623047" xlink:href="#d"/>
<use x="95.410156" xlink:href="#n"/>
<use x="159.033203" xlink:href="#w"/>
</g>
</g>
<g clip-path="url(#a)">
<g transform="translate(227.26 906.7) scale(.1 -.1)">
<use xlink:href="#c"/>
<use x="63.623047" xlink:href="#d"/>
<use x="95.410156" xlink:href="#n"/>
<use x="159.033203" xlink:href="#ad"/>
</g>
</g>
<g clip-path="url(#a)">
<g transform="translate(791.03 575.93) scale(.1 -.1)">
<use xlink:href="#c"/>
<use x="63.623047" xlink:href="#d"/>
<use x="95.410156" xlink:href="#n"/>
<use x="159.033203" xlink:href="#ac"/>
</g>
</g>
<g clip-path="url(#a)">
<g transform="translate(510.33 742.46) scale(.1 -.1)">
<use xlink:href="#c"/>
<use x="63.623047" xlink:href="#d"/>
<use x="95.410156" xlink:href="#r"/>
<use x="159.033203" xlink:href="#n"/>
</g>
</g>
<g clip-path="url(#a)">
<g transform="translate(787.49 742.46) scale(.1 -.1)">
<use xlink:href="#c"/>
<use x="63.623047" xlink:href="#d"/>
<use x="95.410156" xlink:href="#r"/>
<use x="159.033203" xlink:href="#r"/>
</g>
</g>
<g clip-path="url(#a)">
<g transform="translate(1070.6 742.46) scale(.1 -.1)">
<use xlink:href="#c"/>
<use x="63.623047" xlink:href="#d"/>
<use x="95.410156" xlink:href="#r"/>
<use x="159.033203" xlink:href="#m"/>
</g>
</g>
<g clip-path="url(#a)">
<g transform="translate(982.1 906.7) scale(.1 -.1)">
<use xlink:href="#c"/>
<use x="63.623047" xlink:href="#d"/>
<use x="95.410156" xlink:href="#r"/>
<use x="159.033203" xlink:href="#ad"/>
</g>
</g>
<g clip-path="url(#a)">
<g transform="translate(1029.3 906.7) scale(.1 -.1)">
<use xlink:href="#c"/>
<use x="63.623047" xlink:href="#d"/>
<use x="95.410156" xlink:href="#r"/>
<use x="159.033203" xlink:href="#ac"/>
</g>
</g>
<g clip-path="url(#a)">
<g transform="translate(1100 906.7) scale(.1 -.1)">
<use xlink:href="#c"/>
<use x="63.623047" xlink:href="#d"/>
<use x="95.410156" xlink:href="#r"/>
<use x="159.033203" xlink:href="#ab"/>
</g>
</g>
<g clip-path="url(#a)">
<g transform="translate(1170.8 906.7) scale(.1 -.1)">
<use xlink:href="#c"/>
<use x="63.623047" xlink:href="#d"/>
<use x="95.410156" xlink:href="#m"/>
<use x="159.033203" xlink:href="#ae"/>
</g>
</g>
<g clip-path="url(#a)">
<g transform="translate(699.04 906.7) scale(.1 -.1)">
<use xlink:href="#c"/>
<use x="63.623047" xlink:href="#d"/>
<use x="95.410156" xlink:href="#m"/>
<use x="159.033203" xlink:href="#c"/>
</g>
</g>
<g clip-path="url(#a)">
<g transform="translate(746.21 906.7) scale(.1 -.1)">
<use xlink:href="#c"/>
<use x="63.623047" xlink:href="#d"/>
<use x="95.410156" xlink:href="#m"/>
<use x="159.033203" xlink:href="#n"/>
</g>
</g>
<g clip-path="url(#a)">
<g transform="translate(816.98 906.7) scale(.1 -.1)">
<use xlink:href="#c"/>
<use x="63.623047" xlink:href="#d"/>
<use x="95.410156" xlink:href="#m"/>
<use x="159.033203" xlink:href="#r"/>
</g>
</g>
<g clip-path="url(#a)">
<g transform="translate(887.75 906.7) scale(.1 -.1)">
<use xlink:href="#c"/>
<use x="63.623047" xlink:href="#d"/>
<use x="95.410156" xlink:href="#m"/>
<use x="159.033203" xlink:href="#m"/>
</g>
</g>
<g clip-path="url(#a)">
<g transform="translate(415.97 906.7) scale(.1 -.1)">
<use xlink:href="#c"/>
<use x="63.623047" xlink:href="#d"/>
<use x="95.410156" xlink:href="#m"/>
<use x="159.033203" xlink:href="#o"/>
</g>
</g>
<g clip-path="url(#a)">
<g transform="translate(463.15 906.7) scale(.1 -.1)">
<use xlink:href="#c"/>
<use x="63.623047" xlink:href="#d"/>
<use x="95.410156" xlink:href="#m"/>
<use x="159.033203" xlink:href="#w"/>
</g>
</g>
<g clip-path="url(#a)">
<g transform="translate(510.33 906.7) scale(.1 -.1)">
<use xlink:href="#c"/>
<use x="63.623047" xlink:href="#d"/>
<use x="95.410156" xlink:href="#m"/>
<use x="159.033203" xlink:href="#ad"/>
</g>
</g>
<g clip-path="url(#a)">
<g transform="translate(557.51 906.7) scale(.1 -.1)">
<use xlink:href="#c"/>
<use x="63.623047" xlink:href="#d"/>
<use x="95.410156" xlink:href="#m"/>
<use x="159.033203" xlink:href="#ac"/>
</g>
</g>
<g clip-path="url(#a)">
<g transform="translate(604.68 906.7) scale(.1 -.1)">
<use xlink:href="#c"/>
<use x="63.623047" xlink:href="#d"/>
<use x="95.410156" xlink:href="#m"/>
<use x="159.033203" xlink:href="#ab"/>
</g>
</g>
<g clip-path="url(#a)">
<g transform="translate(85.733 906.7) scale(.1 -.1)">
<use xlink:href="#c"/>
<use x="63.623047" xlink:href="#d"/>
<use x="95.410156" xlink:href="#o"/>
<use x="159.033203" xlink:href="#ae"/>
</g>
</g>
<g clip-path="url(#a)">
<g transform="translate(132.91 906.7) scale(.1 -.1)">
<use xlink:href="#c"/>
<use x="63.623047" xlink:href="#d"/>
<use x="95.410156" xlink:href="#o"/>
<use x="159.033203" xlink:href="#c"/>
</g>
</g>
<g clip-path="url(#a)">
<g transform="translate(180.09 906.7) scale(.1 -.1)">
<use xlink:href="#c"/>
<use x="63.623047" xlink:href="#d"/>
<use x="95.410156" xlink:href="#o"/>
<use x="159.033203" xlink:href="#n"/>
</g>
</g>
<g clip-path="url(#a)">
<g transform="translate(274.44 906.7) scale(.1 -.1)">
<use xlink:href="#c"/>
<use x="63.623047" xlink:href="#d"/>
<use x="95.410156" xlink:href="#o"/>
<use x="159.033203" xlink:href="#r"/>
</g>
</g>
<g clip-path="url(#a)">
<g transform="translate(321.62 906.7) scale(.1 -.1)">
<use xlink:href="#c"/>
<use x="63.623047" xlink:href="#d"/>
<use x="95.410156" xlink:href="#o"/>
<use x="159.033203" xlink:href="#m"/>
</g>
</g>
<g clip-path="url(#a)">
<g transform="translate(368.8 906.7) scale(.1 -.1)">
<use xlink:href="#c"/>
<use x="63.623047" xlink:href="#d"/>
<use x="95.410156" xlink:href="#o"/>
<use x="159.033203" xlink:href="#o"/>
</g>
</g>
<g clip-path="url(#a)">
<g transform="translate(651.86 906.7) scale(.1 -.1)">
<use xlink:href="#c"/>
<use x="63.623047" xlink:href="#d"/>
<use x="95.410156" xlink:href="#o"/>
<use x="159.033203" xlink:href="#w"/>
</g>
</g>
<g clip-path="url(#a)">
<g transform="translate(934.92 906.7) scale(.1 -.1)">
<use xlink:href="#c"/>
<use x="63.623047" xlink:href="#d"/>
<use x="95.410156" xlink:href="#o"/>
<use x="159.033203" xlink:href="#ad"/>
</g>
</g>
<g clip-path="url(#a)">
<g transform="translate(1218 906.7) scale(.1 -.1)">
<use xlink:href="#c"/>
<use x="63.623047" xlink:href="#d"/>
<use x="95.410156" xlink:href="#o"/>
<use x="159.033203" xlink:href="#ac"/>
</g>
</g>
<g clip-path="url(#a)">
<g transform="translate(1265.2 906.7) scale(.1 -.1)">
<use xlink:href="#c"/>
<use x="63.623047" xlink:href="#d"/>
<use x="95.410156" xlink:href="#o"/>
<use x="159.033203" xlink:href="#ab"/>
</g>
</g>
<g clip-path="url(#a)">
<g transform="translate(1312.3 906.7) scale(.1 -.1)">
<use xlink:href="#c"/>
<use x="63.623047" xlink:href="#d"/>
<use x="95.410156" xlink:href="#w"/>
<use x="159.033203" xlink:href="#ae"/>
</g>
</g>
<g clip-path="url(#a)">
<g transform="translate(1359.5 906.7) scale(.1 -.1)">
<use xlink:href="#c"/>
<use x="63.623047" xlink:href="#d"/>
<use x="95.410156" xlink:href="#w"/>
<use x="159.033203" xlink:href="#c"/>
</g>
</g>
<g clip-path="url(#a)">
<g transform="translate(1784.1 906.7) scale(.1 -.1)">
<use xlink:href="#c"/>
<use x="63.623047" xlink:href="#d"/>
<use x="95.410156" xlink:href="#w"/>
<use x="159.033203" xlink:href="#n"/>
</g>
</g>
<g clip-path="url(#a)">
<g transform="translate(1831.3 906.7) scale(.1 -.1)">
<use xlink:href="#c"/>
<use x="63.623047" xlink:href="#d"/>
<use x="95.410156" xlink:href="#w"/>
<use x="159.033203" xlink:href="#r"/>
</g>
</g>
<g clip-path="url(#a)">
<g transform="translate(2020 906.7) scale(.1 -.1)">
<use xlink:href="#c"/>
<use x="63.623047" xlink:href="#d"/>
<use x="95.410156" xlink:href="#w"/>
<use x="159.033203" xlink:href="#m"/>
</g>
</g>
<defs>
<clipPath id="a">
<rect width="2128" height="1120"/>
</clipPath>
</defs>
</svg>
