<?xml version="1.0" encoding="UTF-8"?>
<!DOCTYPE svg  PUBLIC '-//W3C//DTD SVG 1.1//EN'  'http://www.w3.org/Graphics/SVG/1.1/DTD/svg11.dtd'>
<svg width="1570.7pt" height="826.67pt" version="1.1" viewBox="0 0 1570.7 826.67" xmlns="http://www.w3.org/2000/svg" xmlns:xlink="http://www.w3.org/1999/xlink">
<defs>
<style type="text/css">*{stroke-linecap:butt;stroke-linejoin:round;}</style>
</defs>
<path d="m0 826.67h1570.7v-826.67h-1570.7z" fill="#fff"/>
<g fill="none" stroke="#000">
<path d="m571.52 37.576-394.45 151.64" clip-path="url(#a)"/>
<path d="m571.52 37.576 458.5 151.64" clip-path="url(#a)"/>
<path d="m571.52 37.576-92.166 603.61" clip-path="url(#a)"/>
<path d="m571.52 37.576-43.21 603.61" clip-path="url(#a)"/>
<path d="m571.52 37.576 8.4658 603.61" clip-path="url(#a)"/>
<path d="m571.52 37.576 62.861 603.61" clip-path="url(#a)"/>
<path d="m177.08 189.22 48.438 151.26" clip-path="url(#a)"/>
<path d="m177.08 189.22-15.93 451.97" clip-path="url(#a)"/>
<path d="m177.08 189.22 36.652 302.01" clip-path="url(#a)"/>
<path d="m177.08 189.22-73.045 451.97" clip-path="url(#a)"/>
<path d="m177.08 189.22-56.727 451.97" clip-path="url(#a)"/>
<path d="m177.08 189.22-37.688 451.97" clip-path="url(#a)"/>
<path d="m177.08 189.22 98.3 451.97" clip-path="url(#a)"/>
<path d="m1030 189.22-266.9 151.26" clip-path="url(#a)"/>
<path d="m1030 189.22 61.285 451.97" clip-path="url(#a)"/>
<path d="m1030 189.22 300.63 302.01" clip-path="url(#a)"/>
<path d="m1030 189.22-82.862 451.97" clip-path="url(#a)"/>
<path d="m1030 189.22-12.148 451.97" clip-path="url(#a)"/>
<path d="m763.12 340.48-71.621 300.71" clip-path="url(#a)"/>
<path d="m763.12 340.48-11.786 300.71" clip-path="url(#a)"/>
<path d="m763.12 340.48 83.406 150.75" clip-path="url(#a)"/>
<path d="m1091.3 641.19v147.9" clip-path="url(#a)"/>
<path d="m1330.6 491.23-163.19 149.96" clip-path="url(#a)"/>
<path d="m1330.6 491.23-84.313 149.96" clip-path="url(#a)"/>
<path d="m1330.6 491.23-2.7198 149.96" clip-path="url(#a)"/>
<path d="m1330.6 491.23 81.593 149.96" clip-path="url(#a)"/>
<path d="m1330.6 491.23 168.63 149.96" clip-path="url(#a)"/>
<path d="m1167.5 641.19v147.9" clip-path="url(#a)"/>
<path d="m1246.3 641.19v147.9" clip-path="url(#a)"/>
<path d="m691.5 641.19v147.9" clip-path="url(#a)"/>
<path d="m751.34 641.19v147.9" clip-path="url(#a)"/>
<path d="m846.53 491.23-32.637 149.96" clip-path="url(#a)"/>
<path d="m846.53 491.23 32.637 149.96" clip-path="url(#a)"/>
<path d="m813.89 641.19v147.9" clip-path="url(#a)"/>
<path d="m879.17 641.19v147.9" clip-path="url(#a)"/>
<path d="m225.51 340.48-145.05 150.75" clip-path="url(#a)"/>
<path d="m225.51 340.48 145.05 150.75" clip-path="url(#a)"/>
<path d="m161.15 641.19v147.9" clip-path="url(#a)"/>
<path d="m213.73 491.23-28.104 149.96" clip-path="url(#a)"/>
<path d="m213.73 491.23-0.90659 149.96" clip-path="url(#a)"/>
<path d="m213.73 491.23 29.011 149.96" clip-path="url(#a)"/>
<path d="m104.03 641.19v147.9" clip-path="url(#a)"/>
<path d="m185.62 641.19v147.9" clip-path="url(#a)"/>
<path d="m212.82 641.19v147.9" clip-path="url(#a)"/>
<path d="m242.74 641.19v147.9" clip-path="url(#a)"/>
<path d="m80.46 491.23-9.0659 149.96" clip-path="url(#a)"/>
<path d="m80.46 491.23-0.90659 149.96" clip-path="url(#a)"/>
<path d="m80.46 491.23 9.9725 149.96" clip-path="url(#a)"/>
<path d="m370.57 491.23-59.835 149.96" clip-path="url(#a)"/>
<path d="m370.57 491.23-21.758 149.96" clip-path="url(#a)"/>
<path d="m370.57 491.23 19.038 149.96" clip-path="url(#a)"/>
<path d="m370.57 491.23 62.555 149.96" clip-path="url(#a)"/>
<path d="m310.73 641.19v147.9" clip-path="url(#a)"/>
<path d="m348.81 641.19v147.9" clip-path="url(#a)"/>
<path d="m389.61 641.19v147.9" clip-path="url(#a)"/>
<path d="m433.12 641.19v147.9" clip-path="url(#a)"/>
<path d="m71.394 641.19v147.9" clip-path="url(#a)"/>
<path d="m79.553 641.19v147.9" clip-path="url(#a)"/>
<path d="m90.432 641.19v147.9" clip-path="url(#a)"/>
<path d="m120.35 641.19v147.9" clip-path="url(#a)"/>
<path d="m139.39 641.19v147.9" clip-path="url(#a)"/>
<path d="m275.38 641.19v147.9" clip-path="url(#a)"/>
<path d="m479.36 641.19v147.9" clip-path="url(#a)"/>
<path d="m528.32 641.19v147.9" clip-path="url(#a)"/>
<path d="m579.99 641.19v147.9" clip-path="url(#a)"/>
<path d="m634.39 641.19v147.9" clip-path="url(#a)"/>
<path d="m947.16 641.19v147.9" clip-path="url(#a)"/>
<path d="m1017.9 641.19v147.9" clip-path="url(#a)"/>
<path d="m1327.9 641.19v147.9" clip-path="url(#a)"/>
<path d="m1412.2 641.19v147.9" clip-path="url(#a)"/>
<path d="m1499.3 641.19v147.9" clip-path="url(#a)"/>
</g>
<path d="m373.74 120.33 5.6156-2.1589q2.2402-0.86121 1.3789-3.1014l-2.7783-7.2268q-0.86121-2.2402-3.1014-1.3789l-5.6156 2.1589q-2.2402 0.86121-1.3789 3.1014l2.7783 7.2268q0.86121 2.2402 3.1014 1.3789z" clip-path="url(#a)" fill="#fff" stroke="#fff"/>
<g clip-path="url(#a)">
<defs>
<path id="y" d="m9.8125 72.906h9.8594v-29.891h35.844v29.891h9.8594v-72.906h-9.8594v34.719h-35.844v-34.719h-9.8594z"/>
</defs>
<g transform="translate(372.29 116.54) rotate(-21.029) scale(.08 -.08)">
<use xlink:href="#y"/>
</g>
</g>
<path d="m795.95 118.41 5.7119 1.8892q2.2786 0.75362 3.0322-1.525l2.4312-7.3509q0.75363-2.2786-1.525-3.0322l-5.7119-1.8892q-2.2786-0.75363-3.0322 1.525l-2.4312 7.3509q-0.75363 2.2786 1.525 3.0322z" clip-path="url(#a)" fill="#fff" stroke="#fff"/>
<g clip-path="url(#a)">
<g transform="translate(797.22 114.55) rotate(18.301) scale(.08 -.08)">
<use xlink:href="#y"/>
</g>
</g>
<path d="m531.2 343.22 0.88376-5.7879q0.36226-2.3725-2.0102-2.7348l-7.6538-1.1687q-2.3725-0.36226-2.7348 2.0102l-0.88376 5.7879q-0.36226 2.3725 2.0102 2.7348l7.6538 1.1687q2.3725 0.36226 2.7348-2.0102z" clip-path="url(#a)" fill="#fff" stroke="#fff"/>
<g clip-path="url(#a)">
<defs>
<path id="n" d="m8.6875 72.906h9.9219v-44.297q0-11.719 4.2344-16.875 4.25-5.1406 13.781-5.1406 9.4688 0 13.719 5.1406 4.25 5.1562 4.25 16.875v44.297h9.9062v-45.516q0-14.25-7.0625-21.531-7.0469-7.2812-20.812-7.2812-13.828 0-20.891 7.2812-7.0469 7.2812-7.0469 21.531z"/>
</defs>
<g transform="translate(527.18 342.61) rotate(-81.319) scale(.08 -.08)">
<use xlink:href="#n"/>
</g>
</g>
<path d="m555.97 342.75 0.41806-5.8401q0.17137-2.3939-2.2225-2.5652l-7.7227-0.55284q-2.3939-0.17137-2.5652 2.2225l-0.41806 5.8401q-0.17137 2.3939 2.2225 2.5652l7.7227 0.55284q2.3939 0.17137 2.5652-2.2225z" clip-path="url(#a)" fill="#fff" stroke="#fff"/>
<g clip-path="url(#a)">
<g transform="translate(551.91 342.46) rotate(-85.905) scale(.08 -.08)">
<use xlink:href="#n"/>
</g>
</g>
<path d="m569.45 336.54 0.08211 5.8544q0.033657 2.3998 2.4334 2.3661l7.7417-0.10858q2.3998-0.033657 2.3661-2.4334l-0.08211-5.8544q-0.033658-2.3998-2.4334-2.3661l-7.7417 0.10858q-2.3998 0.033657-2.3661 2.4334z" clip-path="url(#a)" fill="#fff" stroke="#fff"/>
<g clip-path="url(#a)">
<g transform="translate(573.51 336.49) rotate(89.196) scale(.08 -.08)">
<use xlink:href="#n"/>
</g>
</g>
<path d="m596.41 337.12 0.60647 5.8235q0.2486 2.3871 2.6357 2.1385l7.7009-0.80198q2.3871-0.2486 2.1385-2.6357l-0.60647-5.8235q-0.2486-2.3871-2.6357-2.1385l-7.7009 0.80198q-2.3871 0.2486-2.1385 2.6357z" clip-path="url(#a)" fill="#fff" stroke="#fff"/>
<g clip-path="url(#a)">
<g transform="translate(600.46 336.7) rotate(84.055) scale(.08 -.08)">
<use xlink:href="#n"/>
</g>
</g>
<path d="m194.49 264.16 1.669 5.2118q0.73193 2.2857 3.0176 1.5537l7.3737-2.3612q2.2857-0.73193 1.5537-3.0176l-1.669-5.2118q-0.73193-2.2857-3.0176-1.5537l-7.3737 2.3612q-2.2857 0.73193-1.5537 3.0176z" clip-path="url(#a)" fill="#fff" stroke="#fff"/>
<g clip-path="url(#a)">
<defs>
<path id="q" d="m34.188 63.188-13.391-36.281h26.812zm-5.5781 9.7188h11.188l27.781-72.906h-10.25l-6.6406 18.703h-32.859l-6.6406-18.703h-10.406z"/>
</defs>
<g transform="translate(198.36 262.92) rotate(72.243) scale(.08 -.08)">
<use xlink:href="#q"/>
</g>
</g>
<path d="m175.29 417.83 0.16991-4.8208q0.084538-2.3985-2.314-2.483l-7.7377-0.27272q-2.3985-0.084538-2.483 2.314l-0.16991 4.8208q-0.084538 2.3985 2.314 2.483l7.7377 0.27272q2.3985 0.084537 2.483-2.314z" clip-path="url(#a)" fill="#fff" stroke="#fff"/>
<g clip-path="url(#a)">
<defs>
<path id="ae" d="m19.672 64.797v-27.391h12.406q6.8906 0 10.641 3.5625 3.7656 3.5625 3.7656 10.156 0 6.5469-3.7656 10.109-3.75 3.5625-10.641 3.5625zm-9.8594 8.1094h22.266q12.266 0 18.531-5.5469 6.2812-5.5469 6.2812-16.234 0-10.797-6.2812-16.312-6.2656-5.5156-18.531-5.5156h-12.406v-29.297h-9.8594z"/>
</defs>
<g transform="translate(171.23 417.69) rotate(-87.981) scale(.08 -.08)">
<use xlink:href="#ae"/>
</g>
</g>
<path d="m188.85 338.26 0.65931 5.4326q0.28915 2.3825 2.6717 2.0934l7.6861-0.9328q2.3825-0.28915 2.0934-2.6717l-0.65931-5.4326q-0.28915-2.3825-2.6717-2.0934l-7.6861 0.9328q-2.3825 0.28915-2.0934 2.6717z" clip-path="url(#a)" fill="#fff" stroke="#fff"/>
<g clip-path="url(#a)">
<g transform="translate(192.88 337.77) rotate(83.08) scale(.08 -.08)">
<use xlink:href="#q"/>
</g>
</g>
<path d="m146.28 419.09 0.93414-5.78q0.38291-2.3693-1.9863-2.7522l-7.6433-1.2353q-2.3693-0.38291-2.7522 1.9863l-0.93414 5.78q-0.38291 2.3693 1.9863 2.7522l7.6433 1.2353q2.3693 0.38291 2.7522-1.9863z" clip-path="url(#a)" fill="#fff" stroke="#fff"/>
<g clip-path="url(#a)">
<g transform="translate(142.27 418.45) rotate(-80.819) scale(.08 -.08)">
<use xlink:href="#n"/>
</g>
</g>
<path d="m154.57 418.89 0.72914-5.8094q0.29888-2.3813-2.0824-2.6802l-7.6822-0.9642q-2.3813-0.29888-2.6802 2.0824l-0.72914 5.8094q-0.29888 2.3813 2.0824 2.6802l7.6822 0.9642q2.3813 0.29888 2.6802-2.0824z" clip-path="url(#a)" fill="#fff" stroke="#fff"/>
<g clip-path="url(#a)">
<g transform="translate(150.54 418.38) rotate(-82.846) scale(.08 -.08)">
<use xlink:href="#n"/>
</g>
</g>
<path d="m164.24 418.64 0.48654-5.8348q0.19944-2.3917-2.1923-2.5911l-7.7157-0.64339q-2.3917-0.19944-2.5911 2.1923l-0.48654 5.8347q-0.19944 2.3917 2.1923 2.5911l7.7157 0.64339q2.3917 0.19944 2.5911-2.1923z" clip-path="url(#a)" fill="#fff" stroke="#fff"/>
<g clip-path="url(#a)">
<g transform="translate(160.19 418.3) rotate(-85.233) scale(.08 -.08)">
<use xlink:href="#n"/>
</g>
</g>
<path d="m219.48 413.68 1.2443 5.7212q0.51006 2.3452 2.8552 1.8351l7.5656-1.6455q2.3452-0.51006 1.8351-2.8552l-1.2443-5.7212q-0.51006-2.3452-2.8552-1.8351l-7.5656 1.6455q-2.3452 0.51006-1.8351 2.8552z" clip-path="url(#a)" fill="#fff" stroke="#fff"/>
<g clip-path="url(#a)">
<g transform="translate(223.45 412.81) rotate(77.73) scale(.08 -.08)">
<use xlink:href="#n"/>
</g>
</g>
<path d="m897.28 271.65 4.7611-2.6982q2.088-1.1833 0.90466-3.2713l-3.8175-6.736q-1.1833-2.088-3.2713-0.90466l-4.7611 2.6982q-2.088 1.1833-0.90466 3.2713l3.8175 6.736q1.1833 2.088 3.2713 0.90466z" clip-path="url(#a)" fill="#fff" stroke="#fff"/>
<g clip-path="url(#a)">
<g transform="translate(895.28 268.12) rotate(-29.542) scale(.08 -.08)">
<use xlink:href="#q"/>
</g>
</g>
<path d="m1054.1 413.66 0.64815 4.78q0.32248 2.3782 2.7007 2.0558l7.6723-1.0403q2.3782-0.32248 2.0558-2.7007l-0.64815-4.78q-0.32248-2.3782-2.7007-2.0558l-7.6723 1.0403q-2.3782 0.32248-2.0558 2.7007z" clip-path="url(#a)" fill="#fff" stroke="#fff"/>
<g clip-path="url(#a)">
<g transform="translate(1058.2 413.11) rotate(82.278) scale(.08 -.08)">
<use xlink:href="#ae"/>
</g>
</g>
<path d="m1174 342.71 3.8608 3.8785q1.6932 1.7009 3.3941 0.007788l5.4873-5.4622q1.7009-1.6932 0.007787-3.3941l-3.8608-3.8785q-1.6932-1.7009-3.3941-0.007787l-5.4873 5.4622q-1.7009 1.6932-0.007787 3.3941z" clip-path="url(#a)" fill="#fff" stroke="#fff"/>
<g clip-path="url(#a)">
<g transform="translate(1176.8 339.84) rotate(45.131) scale(.08 -.08)">
<use xlink:href="#q"/>
</g>
</g>
<path d="m994.23 419.21 1.0558-5.759q0.43279-2.3607-1.9279-2.7934l-7.6156-1.3962q-2.3607-0.43279-2.7934 1.9279l-1.0558 5.759q-0.43279 2.3607 1.9279 2.7934l7.6156 1.3962q2.3607 0.43279 2.7934-1.9279z" clip-path="url(#a)" fill="#fff" stroke="#fff"/>
<g clip-path="url(#a)">
<g transform="translate(990.23 418.48) rotate(-79.611) scale(.08 -.08)">
<use xlink:href="#n"/>
</g>
</g>
<path d="m1030.1 418.3 0.15732-5.8529q0.064485-2.3991-2.3346-2.4636l-7.7397-0.20803q-2.3991-0.064485-2.4636 2.3346l-0.15732 5.8529q-0.064485 2.3991 2.3346 2.4636l7.7397 0.20803q2.3991 0.064486 2.4636-2.3346z" clip-path="url(#a)" fill="#fff" stroke="#fff"/>
<g clip-path="url(#a)">
<g transform="translate(1026.1 418.19) rotate(-88.46) scale(.08 -.08)">
<use xlink:href="#n"/>
</g>
</g>
<path d="m732.78 494.95 1.2679-5.3236q0.55606-2.3347-1.7786-2.8908l-7.5318-1.7939q-2.3347-0.55606-2.8908 1.7786l-1.2679 5.3236q-0.55606 2.3347 1.7786 2.8908l7.5318 1.7939q2.3347 0.55606 2.8908-1.7786z" clip-path="url(#a)" fill="#fff" stroke="#fff"/>
<g clip-path="url(#a)">
<g transform="translate(728.83 494.01) rotate(-76.603) scale(.08 -.08)">
<use xlink:href="#q"/>
</g>
</g>
<path d="m763.4 493.62 0.1989-5.0749q0.093991-2.3982-2.3042-2.4922l-7.7366-0.30322q-2.3982-0.093991-2.4922 2.3042l-0.1989 5.0749q-0.093991 2.3982 2.3042 2.4922l7.7366 0.30322q2.3982 0.093991 2.4922-2.3042z" clip-path="url(#a)" fill="#fff" stroke="#fff"/>
<g clip-path="url(#a)">
<defs>
<path id="ad" d="m53.516 70.516v-9.625q-5.6094 2.6875-10.594 4-4.9844 1.3281-9.625 1.3281-8.0469 0-12.422-3.125t-4.375-8.8906q0-4.8438 2.9062-7.3125 2.9062-2.4531 11.016-3.9688l5.9531-1.2188q11.031-2.1094 16.281-7.4062t5.25-14.172q0-10.609-7.1094-16.078-7.0938-5.4688-20.812-5.4688-5.1719 0-11.016 1.1719-5.8281 1.1719-12.078 3.4688v10.156q6-3.3594 11.766-5.0781 5.7656-1.7031 11.328-1.7031 8.4375 0 13.031 3.3125 4.5938 3.3281 4.5938 9.4844 0 5.3594-3.2969 8.3906t-10.812 4.5469l-6.0156 1.1719q-11.031 2.1875-15.969 6.875-4.9219 4.6875-4.9219 13.047 0 9.6719 6.8125 15.234t18.766 5.5625q5.1406 0 10.453-0.9375 5.3281-0.92188 10.891-2.7656z"/>
</defs>
<g transform="translate(759.34 493.46) rotate(-87.756) scale(.08 -.08)">
<use xlink:href="#ad"/>
</g>
</g>
<path d="m798.01 416.49 2.6494 4.7884q1.1619 2.1 3.2619 0.9381l6.7747-3.7483q2.1-1.1619 0.9381-3.2619l-2.6494-4.7884q-1.1619-2.1-3.2619-0.9381l-6.7747 3.7483q-2.1 1.1619-0.9381 3.2619z" clip-path="url(#a)" fill="#fff" stroke="#fff"/>
<g clip-path="url(#a)">
<g transform="translate(801.57 414.53) rotate(61.045) scale(.08 -.08)">
<use xlink:href="#q"/>
</g>
</g>
<path d="m1085 698.24v33.808q0 2.4 2.4 2.4h7.7425q2.4 0 2.4-2.4v-33.808q0-2.4-2.4-2.4h-7.7425q-2.4 0-2.4 2.4z" clip-path="url(#a)" fill="#fff" stroke="#fff"/>
<g clip-path="url(#a)">
<defs>
<path id="k" d="m-0.29688 72.906h61.672v-8.3125h-25.875v-64.594h-9.9062v64.594h-25.891z"/>
<path id="e" d="m56.203 29.594v-4.3906h-41.312q0.59375-9.2812 5.5938-14.141t13.938-4.8594q5.1719 0 10.031 1.2656t9.6562 3.8125v-8.5q-4.8438-2.0469-9.9219-3.125t-10.297-1.0781q-13.094 0-20.734 7.6094-7.6406 7.625-7.6406 20.625 0 13.422 7.25 21.297 7.25 7.8906 19.562 7.8906 11.031 0 17.453-7.1094 6.4219-7.0938 6.4219-19.297zm-8.9844 2.6406q-0.09375 7.3594-4.125 11.75-4.0312 4.4062-10.672 4.4062-7.5156 0-12.031-4.25t-5.2031-11.969z"/>
<path id="g" d="m41.109 46.297q-1.5156 0.875-3.2969 1.2812-1.7812 0.42188-3.9219 0.42188-7.625 0-11.703-4.9531t-4.0781-14.234v-28.812h-9.0312v54.688h9.0312v-8.5q2.8438 4.9844 7.375 7.3906 4.5469 2.4219 11.047 2.4219 0.92188 0 2.0469-0.125 1.125-0.10938 2.4844-0.35938z"/>
<path id="l" d="m52 44.188q3.375 6.0625 8.0625 8.9375t11.031 2.875q8.5469 0 13.188-5.9844 4.6406-5.9688 4.6406-17v-33.016h-9.0312v32.719q0 7.8594-2.7969 11.656-2.7812 3.8125-8.4844 3.8125-6.9844 0-11.047-4.6406-4.0469-4.625-4.0469-12.641v-30.906h-9.0312v32.719q0 7.9062-2.7812 11.688t-8.5938 3.7812q-6.8906 0-10.953-4.6562-4.0469-4.6562-4.0469-12.625v-30.906h-9.0312v54.688h9.0312v-8.5q3.0781 5.0312 7.375 7.4219t10.203 2.3906q5.9688 0 10.141-3.0312 4.1719-3.0156 6.1719-8.7812z"/>
<path id="f" d="m9.4219 54.688h8.9844v-54.688h-8.9844zm0 21.297h8.9844v-11.391h-8.9844z"/>
<path id="h" d="m54.891 33.016v-33.016h-8.9844v32.719q0 7.7656-3.0312 11.609-3.0312 3.8594-9.0781 3.8594-7.2812 0-11.484-4.6406-4.2031-4.625-4.2031-12.641v-30.906h-9.0312v54.688h9.0312v-8.5q3.2344 4.9375 7.5938 7.375 4.375 2.4375 10.094 2.4375 9.4219 0 14.25-5.8281 4.8438-5.8281 4.8438-17.156z"/>
<path id="i" d="m34.281 27.484q-10.891 0-15.094-2.4844t-4.2031-8.5q0-4.7812 3.1562-7.5938 3.1562-2.7969 8.5625-2.7969 7.4844 0 12 5.2969t4.5156 14.078v2zm17.922 3.7188v-31.203h-8.9844v8.2969q-3.0781-4.9688-7.6719-7.3438t-11.234-2.375q-8.3906 0-13.359 4.7188-4.9531 4.7188-4.9531 12.625 0 9.2188 6.1719 13.906 6.1875 4.6875 18.438 4.6875h12.609v0.89062q0 6.2031-4.0781 9.5938t-11.453 3.3906q-4.6875 0-9.1406-1.125-4.4375-1.125-8.5312-3.375v8.3125q4.9219 1.9062 9.5625 2.8438 4.6406 0.95312 9.0312 0.95312 11.875 0 17.734-6.1562 5.8594-6.1406 5.8594-18.641z"/>
<path id="j" d="m9.4219 75.984h8.9844v-75.984h-8.9844z"/>
</defs>
<g transform="translate(1089.1 698.24) rotate(90) scale(.08 -.08)">
<use xlink:href="#k"/>
<use x="44.083984" xlink:href="#e"/>
<use x="105.607422" xlink:href="#g"/>
<use x="144.970703" xlink:href="#l"/>
<use x="242.382812" xlink:href="#f"/>
<use x="270.166016" xlink:href="#h"/>
<use x="333.544922" xlink:href="#i"/>
<use x="394.824219" xlink:href="#j"/>
</g>
</g>
<path d="m1251.6 572.38 3.388-3.1134q1.7672-1.6239 0.14322-3.3911l-5.2389-5.7009q-1.6239-1.7672-3.3911-0.14322l-3.388 3.1134q-1.7672 1.6239-0.14322 3.3911l5.2389 5.7009q1.6239 1.7672 3.3911 0.14322z" clip-path="url(#a)" fill="#fff" stroke="#fff"/>
<g clip-path="url(#a)">
<defs>
<path id="t" d="m9.8125 72.906h41.891v-8.3125h-32.031v-21.484h28.906v-8.2969h-28.906v-34.812h-9.8594z"/>
</defs>
<g transform="translate(1248.9 569.39) rotate(-42.582) scale(.08 -.08)">
<use xlink:href="#t"/>
</g>
</g>
<path d="m1292.6 571.72 2.7377-4.8694q1.1762-2.092-0.91582-3.2682l-6.7489-3.7945q-2.092-1.1762-3.2682 0.91582l-2.7377 4.8694q-1.1762 2.092 0.91582 3.2682l6.7489 3.7945q2.092 1.1762 3.2682-0.91582z" clip-path="url(#a)" fill="#fff" stroke="#fff"/>
<g clip-path="url(#a)">
<defs>
<path id="af" d="m64.406 67.281v-10.391q-4.9844 4.6406-10.625 6.9219-5.6406 2.2969-11.984 2.2969-12.5 0-19.141-7.6406t-6.6406-22.094q0-14.406 6.6406-22.047t19.141-7.6406q6.3438 0 11.984 2.2969t10.625 6.9375v-10.312q-5.1719-3.5156-10.969-5.2812-5.7812-1.75-12.219-1.75-16.562 0-26.094 10.125-9.5156 10.141-9.5156 27.672 0 17.578 9.5156 27.703 9.5312 10.141 26.094 10.141 6.5312 0 12.312-1.7344 5.7969-1.7344 10.875-5.2031z"/>
</defs>
<g transform="translate(1289 569.72) rotate(-60.654) scale(.08 -.08)">
<use xlink:href="#af"/>
</g>
</g>
<path d="m1335.5 569.25 0.10617-5.854q0.043521-2.3996-2.3561-2.4431l-7.7412-0.1404q-2.3996-0.04352-2.4431 2.3561l-0.10617 5.854q-0.04352 2.3996 2.3561 2.4431l7.7412 0.1404q2.3996 0.043521 2.4431-2.3561z" clip-path="url(#a)" fill="#fff" stroke="#fff"/>
<g clip-path="url(#a)">
<g transform="translate(1331.4 569.17) rotate(-88.961) scale(.08 -.08)">
<use xlink:href="#n"/>
</g>
</g>
<path d="m1364.5 566.63 2.7983 5.143q1.147 2.1082 3.2552 0.96112l6.801-3.7004q2.1082-1.147 0.96112-3.2552l-2.7983-5.143q-1.147-2.1082-3.2552-0.96112l-6.801 3.7004q-2.1082 1.147-0.96112 3.2552z" clip-path="url(#a)" fill="#fff" stroke="#fff"/>
<g clip-path="url(#a)">
<g transform="translate(1368.1 564.69) rotate(61.45) scale(.08 -.08)">
<use xlink:href="#n"/>
</g>
</g>
<path d="m1408.6 568.95 4.3752 3.8909q1.7934 1.5949 3.3883-0.19851l5.1452-5.7856q1.5949-1.7934-0.19851-3.3883l-4.3752-3.8909q-1.7934-1.5949-3.3883 0.19851l-5.1452 5.7856q-1.5949 1.7934 0.19851 3.3883z" clip-path="url(#a)" fill="#fff" stroke="#fff"/>
<g clip-path="url(#a)">
<g transform="translate(1411.3 565.91) rotate(41.647) scale(.08 -.08)">
<use xlink:href="#n"/>
</g>
</g>
<path d="m1161.2 698.24v33.808q0 2.4 2.4 2.4h7.7425q2.4 0 2.4-2.4v-33.808q0-2.4-2.4-2.4h-7.7425q-2.4 0-2.4 2.4z" clip-path="url(#a)" fill="#fff" stroke="#fff"/>
<g clip-path="url(#a)">
<g transform="translate(1165.3 698.24) rotate(90) scale(.08 -.08)">
<use xlink:href="#k"/>
<use x="44.083984" xlink:href="#e"/>
<use x="105.607422" xlink:href="#g"/>
<use x="144.970703" xlink:href="#l"/>
<use x="242.382812" xlink:href="#f"/>
<use x="270.166016" xlink:href="#h"/>
<use x="333.544922" xlink:href="#i"/>
<use x="394.824219" xlink:href="#j"/>
</g>
</g>
<path d="m1240.1 698.24v33.808q0 2.4 2.4 2.4h7.7425q2.4 0 2.4-2.4v-33.808q0-2.4-2.4-2.4h-7.7425q-2.4 0-2.4 2.4z" clip-path="url(#a)" fill="#fff" stroke="#fff"/>
<g clip-path="url(#a)">
<g transform="translate(1244.1 698.24) rotate(90) scale(.08 -.08)">
<use xlink:href="#k"/>
<use x="44.083984" xlink:href="#e"/>
<use x="105.607422" xlink:href="#g"/>
<use x="144.970703" xlink:href="#l"/>
<use x="242.382812" xlink:href="#f"/>
<use x="270.166016" xlink:href="#h"/>
<use x="333.544922" xlink:href="#i"/>
<use x="394.824219" xlink:href="#j"/>
</g>
</g>
<path d="m685.23 698.24v33.808q0 2.4 2.4 2.4h7.7425q2.4 0 2.4-2.4v-33.808q0-2.4-2.4-2.4h-7.7425q-2.4 0-2.4 2.4z" clip-path="url(#a)" fill="#fff" stroke="#fff"/>
<g clip-path="url(#a)">
<g transform="translate(689.29 698.24) rotate(90) scale(.08 -.08)">
<use xlink:href="#k"/>
<use x="44.083984" xlink:href="#e"/>
<use x="105.607422" xlink:href="#g"/>
<use x="144.970703" xlink:href="#l"/>
<use x="242.382812" xlink:href="#f"/>
<use x="270.166016" xlink:href="#h"/>
<use x="333.544922" xlink:href="#i"/>
<use x="394.824219" xlink:href="#j"/>
</g>
</g>
<path d="m745.06 698.24v33.808q0 2.4 2.4 2.4h7.7425q2.4 0 2.4-2.4v-33.808q0-2.4-2.4-2.4h-7.7425q-2.4 0-2.4 2.4z" clip-path="url(#a)" fill="#fff" stroke="#fff"/>
<g clip-path="url(#a)">
<g transform="translate(749.13 698.24) rotate(90) scale(.08 -.08)">
<use xlink:href="#k"/>
<use x="44.083984" xlink:href="#e"/>
<use x="105.607422" xlink:href="#g"/>
<use x="144.970703" xlink:href="#l"/>
<use x="242.382812" xlink:href="#f"/>
<use x="270.166016" xlink:href="#h"/>
<use x="333.544922" xlink:href="#i"/>
<use x="394.824219" xlink:href="#j"/>
</g>
</g>
<path d="m835.85 569.79 0.9785-4.496q0.51038-2.3451-1.8347-2.8555l-7.5654-1.6465q-2.3451-0.51038-2.8555 1.8347l-0.9785 4.496q-0.51038 2.3451 1.8347 2.8555l7.5654 1.6465q2.3451 0.51038 2.8555-1.8347z" clip-path="url(#a)" fill="#fff" stroke="#fff"/>
<g clip-path="url(#a)">
<g transform="translate(831.88 568.92) rotate(-77.722) scale(.08 -.08)">
<use xlink:href="#t"/>
</g>
</g>
<path d="m856.12 564.81 1.188 5.4585q0.51038 2.3451 2.8555 1.8347l7.5654-1.6465q2.3451-0.51038 1.8347-2.8555l-1.188-5.4585q-0.51038-2.3451-2.8555-1.8347l-7.5654 1.6465q-2.3451 0.51038-1.8347 2.8555z" clip-path="url(#a)" fill="#fff" stroke="#fff"/>
<g clip-path="url(#a)">
<g transform="translate(860.1 563.95) rotate(77.722) scale(.08 -.08)">
<use xlink:href="#af"/>
</g>
</g>
<path d="m807.62 698.24v33.808q0 2.4 2.4 2.4h7.7425q2.4 0 2.4-2.4v-33.808q0-2.4-2.4-2.4h-7.7425q-2.4 0-2.4 2.4z" clip-path="url(#a)" fill="#fff" stroke="#fff"/>
<g clip-path="url(#a)">
<g transform="translate(811.68 698.24) rotate(90) scale(.08 -.08)">
<use xlink:href="#k"/>
<use x="44.083984" xlink:href="#e"/>
<use x="105.607422" xlink:href="#g"/>
<use x="144.970703" xlink:href="#l"/>
<use x="242.382812" xlink:href="#f"/>
<use x="270.166016" xlink:href="#h"/>
<use x="333.544922" xlink:href="#i"/>
<use x="394.824219" xlink:href="#j"/>
</g>
</g>
<path d="m872.89 698.24v33.808q0 2.4 2.4 2.4h7.7425q2.4 0 2.4-2.4v-33.808q0-2.4-2.4-2.4h-7.7425q-2.4 0-2.4 2.4z" clip-path="url(#a)" fill="#fff" stroke="#fff"/>
<g clip-path="url(#a)">
<g transform="translate(876.96 698.24) rotate(90) scale(.08 -.08)">
<use xlink:href="#k"/>
<use x="44.083984" xlink:href="#e"/>
<use x="105.607422" xlink:href="#g"/>
<use x="144.970703" xlink:href="#l"/>
<use x="242.382812" xlink:href="#f"/>
<use x="270.166016" xlink:href="#h"/>
<use x="333.544922" xlink:href="#i"/>
<use x="394.824219" xlink:href="#j"/>
</g>
</g>
<path d="m155.42 422.37 4.1715-4.3352q1.6641-1.7294-0.065311-3.3935l-5.5791-5.3684q-1.7294-1.6641-3.3935 0.065311l-4.1715 4.3352q-1.6641 1.7294 0.065311 3.3935l5.5791 5.3684q1.7294 1.6641 3.3935-0.065311z" clip-path="url(#a)" fill="#fff" stroke="#fff"/>
<g clip-path="url(#a)">
<g transform="translate(152.49 419.55) rotate(-46.103) scale(.08 -.08)">
<use xlink:href="#y"/>
</g>
</g>
<path d="m291.44 418.03 4.1715 4.3352q1.6641 1.7294 3.3935 0.065311l5.5791-5.3684q1.7294-1.6641 0.065311-3.3935l-4.1715-4.3352q-1.6641-1.7294-3.3935-0.065311l-5.5791 5.3684q-1.7294 1.6641-0.065312 3.3935z" clip-path="url(#a)" fill="#fff" stroke="#fff"/>
<g clip-path="url(#a)">
<g transform="translate(294.36 415.22) rotate(46.103) scale(.08 -.08)">
<use xlink:href="#y"/>
</g>
</g>
<path d="m154.88 698.24v33.808q0 2.4 2.4 2.4h7.7425q2.4 0 2.4-2.4v-33.808q0-2.4-2.4-2.4h-7.7425q-2.4 0-2.4 2.4z" clip-path="url(#a)" fill="#fff" stroke="#fff"/>
<g clip-path="url(#a)">
<g transform="translate(158.94 698.24) rotate(90) scale(.08 -.08)">
<use xlink:href="#k"/>
<use x="44.083984" xlink:href="#e"/>
<use x="105.607422" xlink:href="#g"/>
<use x="144.970703" xlink:href="#l"/>
<use x="242.382812" xlink:href="#f"/>
<use x="270.166016" xlink:href="#h"/>
<use x="333.544922" xlink:href="#i"/>
<use x="394.824219" xlink:href="#j"/>
</g>
</g>
<path d="m205.42 569.62 0.84757-4.5225q0.44209-2.3589-1.9168-2.801l-7.61-1.4262q-2.3589-0.44209-2.801 1.9168l-0.84757 4.5225q-0.44209 2.3589 1.9168 2.801l7.61 1.4262q2.3589 0.44209 2.801-1.9168z" clip-path="url(#a)" fill="#fff" stroke="#fff"/>
<g clip-path="url(#a)">
<g transform="translate(201.42 568.88) rotate(-79.385) scale(.08 -.08)">
<use xlink:href="#t"/>
</g>
</g>
<path d="m219.53 568.77 0.03056-5.0549q0.014509-2.4-2.3854-2.4145l-7.7424-0.046806q-2.4-0.014509-2.4145 2.3854l-0.03056 5.0549q-0.014509 2.4 2.3854 2.4145l7.7424 0.046807q2.4 0.014509 2.4145-2.3854z" clip-path="url(#a)" fill="#fff" stroke="#fff"/>
<g clip-path="url(#a)">
<defs>
<path id="aq" d="m9.8125 72.906h46.094v-8.3125h-36.234v-21.578h34.719v-8.2969h-34.719v-26.422h37.109v-8.2969h-46.969z"/>
</defs>
<g transform="translate(215.47 568.75) rotate(-89.654) scale(.08 -.08)">
<use xlink:href="#aq"/>
</g>
</g>
<path d="m221.55 564.66 1.061 5.4846q0.45584 2.3563 2.8122 1.9005l7.6016-1.4706q2.3563-0.45584 1.9005-2.8122l-1.061-5.4846q-0.45584-2.3563-2.8122-1.9005l-7.6016 1.4706q-2.3563 0.45584-1.9005 2.8122z" clip-path="url(#a)" fill="#fff" stroke="#fff"/>
<g clip-path="url(#a)">
<g transform="translate(225.54 563.88) rotate(79.051) scale(.08 -.08)">
<use xlink:href="#af"/>
</g>
</g>
<path d="m97.76 698.24v33.808q0 2.4 2.4 2.4h7.7425q2.4 0 2.4-2.4v-33.808q0-2.4-2.4-2.4h-7.7425q-2.4 0-2.4 2.4z" clip-path="url(#a)" fill="#fff" stroke="#fff"/>
<g clip-path="url(#a)">
<g transform="translate(101.82 698.24) rotate(90) scale(.08 -.08)">
<use xlink:href="#k"/>
<use x="44.083984" xlink:href="#e"/>
<use x="105.607422" xlink:href="#g"/>
<use x="144.970703" xlink:href="#l"/>
<use x="242.382812" xlink:href="#f"/>
<use x="270.166016" xlink:href="#h"/>
<use x="333.544922" xlink:href="#i"/>
<use x="394.824219" xlink:href="#j"/>
</g>
</g>
<path d="m179.35 698.24v33.808q0 2.4 2.4 2.4h7.7425q2.4 0 2.4-2.4v-33.808q0-2.4-2.4-2.4h-7.7425q-2.4 0-2.4 2.4z" clip-path="url(#a)" fill="#fff" stroke="#fff"/>
<g clip-path="url(#a)">
<g transform="translate(183.42 698.24) rotate(90) scale(.08 -.08)">
<use xlink:href="#k"/>
<use x="44.083984" xlink:href="#e"/>
<use x="105.607422" xlink:href="#g"/>
<use x="144.970703" xlink:href="#l"/>
<use x="242.382812" xlink:href="#f"/>
<use x="270.166016" xlink:href="#h"/>
<use x="333.544922" xlink:href="#i"/>
<use x="394.824219" xlink:href="#j"/>
</g>
</g>
<path d="m206.55 698.24v33.808q0 2.4 2.4 2.4h7.7425q2.4 0 2.4-2.4v-33.808q0-2.4-2.4-2.4h-7.7425q-2.4 0-2.4 2.4z" clip-path="url(#a)" fill="#fff" stroke="#fff"/>
<g clip-path="url(#a)">
<g transform="translate(210.61 698.24) rotate(90) scale(.08 -.08)">
<use xlink:href="#k"/>
<use x="44.083984" xlink:href="#e"/>
<use x="105.607422" xlink:href="#g"/>
<use x="144.970703" xlink:href="#l"/>
<use x="242.382812" xlink:href="#f"/>
<use x="270.166016" xlink:href="#h"/>
<use x="333.544922" xlink:href="#i"/>
<use x="394.824219" xlink:href="#j"/>
</g>
</g>
<path d="m236.47 698.24v33.808q0 2.4 2.4 2.4h7.7425q2.4 0 2.4-2.4v-33.808q0-2.4-2.4-2.4h-7.7425q-2.4 0-2.4 2.4z" clip-path="url(#a)" fill="#fff" stroke="#fff"/>
<g clip-path="url(#a)">
<g transform="translate(240.53 698.24) rotate(90) scale(.08 -.08)">
<use xlink:href="#k"/>
<use x="44.083984" xlink:href="#e"/>
<use x="105.607422" xlink:href="#g"/>
<use x="144.970703" xlink:href="#l"/>
<use x="242.382812" xlink:href="#f"/>
<use x="270.166016" xlink:href="#h"/>
<use x="333.544922" xlink:href="#i"/>
<use x="394.824219" xlink:href="#j"/>
</g>
</g>
<path d="m82.022 569.32 0.33024-5.4625q0.14483-2.3956-2.2508-2.5405l-7.7284-0.46722q-2.3956-0.14483-2.5405 2.2508l-0.33024 5.4625q-0.14483 2.3956 2.2508 2.5405l7.7284 0.46722q2.3956 0.14483 2.5405-2.2508z" clip-path="url(#a)" fill="#fff" stroke="#fff"/>
<g clip-path="url(#a)">
<g transform="translate(77.965 569.07) rotate(-86.54) scale(.08 -.08)">
<use xlink:href="#q"/>
</g>
</g>
<path d="m86.262 568.78 0.030704-5.0787q0.014508-2.4-2.3854-2.4145l-7.7424-0.046806q-2.4-0.014509-2.4145 2.3854l-0.030703 5.0787q-0.014509 2.4 2.3854 2.4145l7.7424 0.046807q2.4 0.014509 2.4145-2.3854z" clip-path="url(#a)" fill="#fff" stroke="#fff"/>
<g clip-path="url(#a)">
<g transform="translate(82.199 568.76) rotate(-89.654) scale(.08 -.08)">
<use xlink:href="#ad"/>
</g>
</g>
<path d="m79.007 563.89 0.36312 5.4604q0.15925 2.3947 2.554 2.2355l7.7254-0.51375q2.3947-0.15925 2.2355-2.554l-0.36312-5.4604q-0.15925-2.3947-2.554-2.2355l-7.7254 0.51375q-2.3947 0.15925-2.2355 2.554z" clip-path="url(#a)" fill="#fff" stroke="#fff"/>
<g clip-path="url(#a)">
<g transform="translate(83.062 563.62) rotate(86.195) scale(.08 -.08)">
<use xlink:href="#q"/>
</g>
</g>
<path d="m345.46 571.07 2.0281-5.0828q0.88942-2.2291-1.3397-3.1185l-7.1912-2.8693q-2.2291-0.88942-3.1185 1.3397l-2.0281 5.0828q-0.88942 2.2291 1.3397 3.1185l7.1912 2.8693q2.2291 0.88942 3.1185-1.3397z" clip-path="url(#a)" fill="#fff" stroke="#fff"/>
<g clip-path="url(#a)">
<g transform="translate(341.69 569.57) rotate(-68.248) scale(.08 -.08)">
<use xlink:href="#q"/>
</g>
</g>
<path d="m365.57 569.38 0.66069-4.5536q0.34461-2.3751-2.0305-2.7197l-7.6623-1.1117q-2.3751-0.34461-2.7197 2.0305l-0.66069 4.5536q-0.34461 2.3751 2.0305 2.7197l7.6623 1.1117q2.3751 0.34461 2.7197-2.0305z" clip-path="url(#a)" fill="#fff" stroke="#fff"/>
<g clip-path="url(#a)">
<g transform="translate(361.54 568.8) rotate(-81.744) scale(.08 -.08)">
<use xlink:href="#t"/>
</g>
</g>
<path d="m373.48 563.94 0.77582 6.111q0.30227 2.3809 2.6832 2.0786l7.6808-0.97513q2.3809-0.30227 2.0786-2.6832l-0.77582-6.1109q-0.30227-2.3809-2.6832-2.0786l-7.6808 0.97513q-2.3809 0.30227-2.0786 2.6832z" clip-path="url(#a)" fill="#fff" stroke="#fff"/>
<g clip-path="url(#a)">
<defs>
<path id="ak" d="m19.672 64.797v-56.688h11.922q15.094 0 22.094 6.8281 7 6.8438 7 21.594 0 14.641-7 21.453t-22.094 6.8125zm-9.8594 8.1094h20.266q21.188 0 31.094-8.8125 9.9219-8.8125 9.9219-27.562 0-18.859-9.9688-27.703-9.9531-8.8281-31.047-8.8281h-20.266z"/>
</defs>
<g transform="translate(377.51 563.43) rotate(82.765) scale(.08 -.08)">
<use xlink:href="#ak"/>
</g>
</g>
<path d="m395.08 566.28 1.9553 4.6873q0.92397 2.215 3.139 1.291l7.1457-2.9808q2.215-0.92397 1.291-3.139l-1.9553-4.6873q-0.92397-2.215-3.139-1.291l-7.1457 2.9808q-2.215 0.92397-1.291 3.139z" clip-path="url(#a)" fill="#fff" stroke="#fff"/>
<g clip-path="url(#a)">
<g transform="translate(398.83 564.71) rotate(67.357) scale(.08 -.08)">
<use xlink:href="#ad"/>
</g>
</g>
<path d="m304.46 698.24v33.808q0 2.4 2.4 2.4h7.7425q2.4 0 2.4-2.4v-33.808q0-2.4-2.4-2.4h-7.7425q-2.4 0-2.4 2.4z" clip-path="url(#a)" fill="#fff" stroke="#fff"/>
<g clip-path="url(#a)">
<g transform="translate(308.53 698.24) rotate(90) scale(.08 -.08)">
<use xlink:href="#k"/>
<use x="44.083984" xlink:href="#e"/>
<use x="105.607422" xlink:href="#g"/>
<use x="144.970703" xlink:href="#l"/>
<use x="242.382812" xlink:href="#f"/>
<use x="270.166016" xlink:href="#h"/>
<use x="333.544922" xlink:href="#i"/>
<use x="394.824219" xlink:href="#j"/>
</g>
</g>
<path d="m342.54 698.24v33.808q0 2.4 2.4 2.4h7.7425q2.4 0 2.4-2.4v-33.808q0-2.4-2.4-2.4h-7.7425q-2.4 0-2.4 2.4z" clip-path="url(#a)" fill="#fff" stroke="#fff"/>
<g clip-path="url(#a)">
<g transform="translate(346.6 698.24) rotate(90) scale(.08 -.08)">
<use xlink:href="#k"/>
<use x="44.083984" xlink:href="#e"/>
<use x="105.607422" xlink:href="#g"/>
<use x="144.970703" xlink:href="#l"/>
<use x="242.382812" xlink:href="#f"/>
<use x="270.166016" xlink:href="#h"/>
<use x="333.544922" xlink:href="#i"/>
<use x="394.824219" xlink:href="#j"/>
</g>
</g>
<path d="m383.34 698.24v33.808q0 2.4 2.4 2.4h7.7425q2.4 0 2.4-2.4v-33.808q0-2.4-2.4-2.4h-7.7425q-2.4 0-2.4 2.4z" clip-path="url(#a)" fill="#fff" stroke="#fff"/>
<g clip-path="url(#a)">
<g transform="translate(387.4 698.24) rotate(90) scale(.08 -.08)">
<use xlink:href="#k"/>
<use x="44.083984" xlink:href="#e"/>
<use x="105.607422" xlink:href="#g"/>
<use x="144.970703" xlink:href="#l"/>
<use x="242.382812" xlink:href="#f"/>
<use x="270.166016" xlink:href="#h"/>
<use x="333.544922" xlink:href="#i"/>
<use x="394.824219" xlink:href="#j"/>
</g>
</g>
<path d="m426.85 698.24v33.808q0 2.4 2.4 2.4h7.7425q2.4 0 2.4-2.4v-33.808q0-2.4-2.4-2.4h-7.7425q-2.4 0-2.4 2.4z" clip-path="url(#a)" fill="#fff" stroke="#fff"/>
<g clip-path="url(#a)">
<g transform="translate(430.92 698.24) rotate(90) scale(.08 -.08)">
<use xlink:href="#k"/>
<use x="44.083984" xlink:href="#e"/>
<use x="105.607422" xlink:href="#g"/>
<use x="144.970703" xlink:href="#l"/>
<use x="242.382812" xlink:href="#f"/>
<use x="270.166016" xlink:href="#h"/>
<use x="333.544922" xlink:href="#i"/>
<use x="394.824219" xlink:href="#j"/>
</g>
</g>
<path d="m65.123 698.24v33.808q0 2.4 2.4 2.4h7.7425q2.4 0 2.4-2.4v-33.808q0-2.4-2.4-2.4h-7.7425q-2.4 0-2.4 2.4z" clip-path="url(#a)" fill="#fff" stroke="#fff"/>
<g clip-path="url(#a)">
<g transform="translate(69.186 698.24) rotate(90) scale(.08 -.08)">
<use xlink:href="#k"/>
<use x="44.083984" xlink:href="#e"/>
<use x="105.607422" xlink:href="#g"/>
<use x="144.970703" xlink:href="#l"/>
<use x="242.382812" xlink:href="#f"/>
<use x="270.166016" xlink:href="#h"/>
<use x="333.544922" xlink:href="#i"/>
<use x="394.824219" xlink:href="#j"/>
</g>
</g>
<path d="m73.282 698.24v33.808q0 2.4 2.4 2.4h7.7425q2.4 0 2.4-2.4v-33.808q0-2.4-2.4-2.4h-7.7425q-2.4 0-2.4 2.4z" clip-path="url(#a)" fill="#fff" stroke="#fff"/>
<g clip-path="url(#a)">
<g transform="translate(77.346 698.24) rotate(90) scale(.08 -.08)">
<use xlink:href="#k"/>
<use x="44.083984" xlink:href="#e"/>
<use x="105.607422" xlink:href="#g"/>
<use x="144.970703" xlink:href="#l"/>
<use x="242.382812" xlink:href="#f"/>
<use x="270.166016" xlink:href="#h"/>
<use x="333.544922" xlink:href="#i"/>
<use x="394.824219" xlink:href="#j"/>
</g>
</g>
<path d="m84.161 698.24v33.808q0 2.4 2.4 2.4h7.7425q2.4 0 2.4-2.4v-33.808q0-2.4-2.4-2.4h-7.7425q-2.4 0-2.4 2.4z" clip-path="url(#a)" fill="#fff" stroke="#fff"/>
<g clip-path="url(#a)">
<g transform="translate(88.225 698.24) rotate(90) scale(.08 -.08)">
<use xlink:href="#k"/>
<use x="44.083984" xlink:href="#e"/>
<use x="105.607422" xlink:href="#g"/>
<use x="144.970703" xlink:href="#l"/>
<use x="242.382812" xlink:href="#f"/>
<use x="270.166016" xlink:href="#h"/>
<use x="333.544922" xlink:href="#i"/>
<use x="394.824219" xlink:href="#j"/>
</g>
</g>
<path d="m114.08 698.24v33.808q0 2.4 2.4 2.4h7.7425q2.4 0 2.4-2.4v-33.808q0-2.4-2.4-2.4h-7.7425q-2.4 0-2.4 2.4z" clip-path="url(#a)" fill="#fff" stroke="#fff"/>
<g clip-path="url(#a)">
<g transform="translate(118.14 698.24) rotate(90) scale(.08 -.08)">
<use xlink:href="#k"/>
<use x="44.083984" xlink:href="#e"/>
<use x="105.607422" xlink:href="#g"/>
<use x="144.970703" xlink:href="#l"/>
<use x="242.382812" xlink:href="#f"/>
<use x="270.166016" xlink:href="#h"/>
<use x="333.544922" xlink:href="#i"/>
<use x="394.824219" xlink:href="#j"/>
</g>
</g>
<path d="m133.12 698.24v33.808q0 2.4 2.4 2.4h7.7425q2.4 0 2.4-2.4v-33.808q0-2.4-2.4-2.4h-7.7425q-2.4 0-2.4 2.4z" clip-path="url(#a)" fill="#fff" stroke="#fff"/>
<g clip-path="url(#a)">
<g transform="translate(137.18 698.24) rotate(90) scale(.08 -.08)">
<use xlink:href="#k"/>
<use x="44.083984" xlink:href="#e"/>
<use x="105.607422" xlink:href="#g"/>
<use x="144.970703" xlink:href="#l"/>
<use x="242.382812" xlink:href="#f"/>
<use x="270.166016" xlink:href="#h"/>
<use x="333.544922" xlink:href="#i"/>
<use x="394.824219" xlink:href="#j"/>
</g>
</g>
<path d="m269.11 698.24v33.808q0 2.4 2.4 2.4h7.7425q2.4 0 2.4-2.4v-33.808q0-2.4-2.4-2.4h-7.7425q-2.4 0-2.4 2.4z" clip-path="url(#a)" fill="#fff" stroke="#fff"/>
<g clip-path="url(#a)">
<g transform="translate(273.17 698.24) rotate(90) scale(.08 -.08)">
<use xlink:href="#k"/>
<use x="44.083984" xlink:href="#e"/>
<use x="105.607422" xlink:href="#g"/>
<use x="144.970703" xlink:href="#l"/>
<use x="242.382812" xlink:href="#f"/>
<use x="270.166016" xlink:href="#h"/>
<use x="333.544922" xlink:href="#i"/>
<use x="394.824219" xlink:href="#j"/>
</g>
</g>
<path d="m473.09 698.24v33.808q0 2.4 2.4 2.4h7.7425q2.4 0 2.4-2.4v-33.808q0-2.4-2.4-2.4h-7.7425q-2.4 0-2.4 2.4z" clip-path="url(#a)" fill="#fff" stroke="#fff"/>
<g clip-path="url(#a)">
<g transform="translate(477.15 698.24) rotate(90) scale(.08 -.08)">
<use xlink:href="#k"/>
<use x="44.083984" xlink:href="#e"/>
<use x="105.607422" xlink:href="#g"/>
<use x="144.970703" xlink:href="#l"/>
<use x="242.382812" xlink:href="#f"/>
<use x="270.166016" xlink:href="#h"/>
<use x="333.544922" xlink:href="#i"/>
<use x="394.824219" xlink:href="#j"/>
</g>
</g>
<path d="m522.04 698.24v33.808q0 2.4 2.4 2.4h7.7425q2.4 0 2.4-2.4v-33.808q0-2.4-2.4-2.4h-7.7425q-2.4 0-2.4 2.4z" clip-path="url(#a)" fill="#fff" stroke="#fff"/>
<g clip-path="url(#a)">
<g transform="translate(526.11 698.24) rotate(90) scale(.08 -.08)">
<use xlink:href="#k"/>
<use x="44.083984" xlink:href="#e"/>
<use x="105.607422" xlink:href="#g"/>
<use x="144.970703" xlink:href="#l"/>
<use x="242.382812" xlink:href="#f"/>
<use x="270.166016" xlink:href="#h"/>
<use x="333.544922" xlink:href="#i"/>
<use x="394.824219" xlink:href="#j"/>
</g>
</g>
<path d="m573.72 698.24v33.808q0 2.4 2.4 2.4h7.7425q2.4 0 2.4-2.4v-33.808q0-2.4-2.4-2.4h-7.7425q-2.4 0-2.4 2.4z" clip-path="url(#a)" fill="#fff" stroke="#fff"/>
<g clip-path="url(#a)">
<g transform="translate(577.78 698.24) rotate(90) scale(.08 -.08)">
<use xlink:href="#k"/>
<use x="44.083984" xlink:href="#e"/>
<use x="105.607422" xlink:href="#g"/>
<use x="144.970703" xlink:href="#l"/>
<use x="242.382812" xlink:href="#f"/>
<use x="270.166016" xlink:href="#h"/>
<use x="333.544922" xlink:href="#i"/>
<use x="394.824219" xlink:href="#j"/>
</g>
</g>
<path d="m628.11 698.24v33.808q0 2.4 2.4 2.4h7.7425q2.4 0 2.4-2.4v-33.808q0-2.4-2.4-2.4h-7.7425q-2.4 0-2.4 2.4z" clip-path="url(#a)" fill="#fff" stroke="#fff"/>
<g clip-path="url(#a)">
<g transform="translate(632.18 698.24) rotate(90) scale(.08 -.08)">
<use xlink:href="#k"/>
<use x="44.083984" xlink:href="#e"/>
<use x="105.607422" xlink:href="#g"/>
<use x="144.970703" xlink:href="#l"/>
<use x="242.382812" xlink:href="#f"/>
<use x="270.166016" xlink:href="#h"/>
<use x="333.544922" xlink:href="#i"/>
<use x="394.824219" xlink:href="#j"/>
</g>
</g>
<path d="m940.89 698.24v33.808q0 2.4 2.4 2.4h7.7425q2.4 0 2.4-2.4v-33.808q0-2.4-2.4-2.4h-7.7425q-2.4 0-2.4 2.4z" clip-path="url(#a)" fill="#fff" stroke="#fff"/>
<g clip-path="url(#a)">
<g transform="translate(944.95 698.24) rotate(90) scale(.08 -.08)">
<use xlink:href="#k"/>
<use x="44.083984" xlink:href="#e"/>
<use x="105.607422" xlink:href="#g"/>
<use x="144.970703" xlink:href="#l"/>
<use x="242.382812" xlink:href="#f"/>
<use x="270.166016" xlink:href="#h"/>
<use x="333.544922" xlink:href="#i"/>
<use x="394.824219" xlink:href="#j"/>
</g>
</g>
<path d="m1011.6 698.24v33.808q0 2.4 2.4 2.4h7.7425q2.4 0 2.4-2.4v-33.808q0-2.4-2.4-2.4h-7.7425q-2.4 0-2.4 2.4z" clip-path="url(#a)" fill="#fff" stroke="#fff"/>
<g clip-path="url(#a)">
<g transform="translate(1015.7 698.24) rotate(90) scale(.08 -.08)">
<use xlink:href="#k"/>
<use x="44.083984" xlink:href="#e"/>
<use x="105.607422" xlink:href="#g"/>
<use x="144.970703" xlink:href="#l"/>
<use x="242.382812" xlink:href="#f"/>
<use x="270.166016" xlink:href="#h"/>
<use x="333.544922" xlink:href="#i"/>
<use x="394.824219" xlink:href="#j"/>
</g>
</g>
<path d="m1321.7 698.24v33.808q0 2.4 2.4 2.4h7.7425q2.4 0 2.4-2.4v-33.808q0-2.4-2.4-2.4h-7.7425q-2.4 0-2.4 2.4z" clip-path="url(#a)" fill="#fff" stroke="#fff"/>
<g clip-path="url(#a)">
<g transform="translate(1325.7 698.24) rotate(90) scale(.08 -.08)">
<use xlink:href="#k"/>
<use x="44.083984" xlink:href="#e"/>
<use x="105.607422" xlink:href="#g"/>
<use x="144.970703" xlink:href="#l"/>
<use x="242.382812" xlink:href="#f"/>
<use x="270.166016" xlink:href="#h"/>
<use x="333.544922" xlink:href="#i"/>
<use x="394.824219" xlink:href="#j"/>
</g>
</g>
<path d="m1406 698.24v33.808q0 2.4 2.4 2.4h7.7425q2.4 0 2.4-2.4v-33.808q0-2.4-2.4-2.4h-7.7425q-2.4 0-2.4 2.4z" clip-path="url(#a)" fill="#fff" stroke="#fff"/>
<g clip-path="url(#a)">
<g transform="translate(1410 698.24) rotate(90) scale(.08 -.08)">
<use xlink:href="#k"/>
<use x="44.083984" xlink:href="#e"/>
<use x="105.607422" xlink:href="#g"/>
<use x="144.970703" xlink:href="#l"/>
<use x="242.382812" xlink:href="#f"/>
<use x="270.166016" xlink:href="#h"/>
<use x="333.544922" xlink:href="#i"/>
<use x="394.824219" xlink:href="#j"/>
</g>
</g>
<path d="m1493 698.24v33.808q0 2.4 2.4 2.4h7.7425q2.4 0 2.4-2.4v-33.808q0-2.4-2.4-2.4h-7.7425q-2.4 0-2.4 2.4z" clip-path="url(#a)" fill="#fff" stroke="#fff"/>
<g clip-path="url(#a)">
<g transform="translate(1497.1 698.24) rotate(90) scale(.08 -.08)">
<use xlink:href="#k"/>
<use x="44.083984" xlink:href="#e"/>
<use x="105.607422" xlink:href="#g"/>
<use x="144.970703" xlink:href="#l"/>
<use x="242.382812" xlink:href="#f"/>
<use x="270.166016" xlink:href="#h"/>
<use x="333.544922" xlink:href="#i"/>
<use x="394.824219" xlink:href="#j"/>
</g>
</g>
<defs>
<path id="b" d="m0 8.6603c2.2967 0 4.4997-0.9125 6.1237-2.5365 1.624-1.624 2.5365-3.827 2.5365-6.1237s-0.9125-4.4997-2.5365-6.1237c-1.624-1.624-3.827-2.5365-6.1237-2.5365s-4.4997 0.9125-6.1237 2.5365c-1.624 1.624-2.5365 3.827-2.5365 6.1237s0.9125 4.4997 2.5365 6.1237c1.624 1.624 3.827 2.5365 6.1237 2.5365z"/>
</defs>
<g clip-path="url(#a)" fill="#ffffff" stroke="#ffffff">
<use x="71.393939" y="789.090909" xlink:href="#b"/>
<use x="79.553247" y="789.090909" xlink:href="#b"/>
<use x="90.432323" y="789.090909" xlink:href="#b"/>
<use x="104.031169" y="789.090909" xlink:href="#b"/>
<use x="120.349784" y="789.090909" xlink:href="#b"/>
<use x="139.388167" y="789.090909" xlink:href="#b"/>
<use x="161.14632" y="789.090909" xlink:href="#b"/>
<use x="185.624242" y="789.090909" xlink:href="#b"/>
<use x="212.821934" y="789.090909" xlink:href="#b"/>
<use x="242.739394" y="789.090909" xlink:href="#b"/>
<use x="275.376623" y="789.090909" xlink:href="#b"/>
<use x="310.733622" y="789.090909" xlink:href="#b"/>
<use x="348.81039" y="789.090909" xlink:href="#b"/>
<use x="389.606926" y="789.090909" xlink:href="#b"/>
<use x="433.123232" y="789.090909" xlink:href="#b"/>
<use x="479.359307" y="789.090909" xlink:href="#b"/>
<use x="528.315152" y="789.090909" xlink:href="#b"/>
<use x="579.990765" y="789.090909" xlink:href="#b"/>
<use x="634.386147" y="789.090909" xlink:href="#b"/>
<use x="691.501299" y="789.090909" xlink:href="#b"/>
<use x="751.336219" y="789.090909" xlink:href="#b"/>
<use x="813.890909" y="789.090909" xlink:href="#b"/>
<use x="879.165368" y="789.090909" xlink:href="#b"/>
<use x="947.159596" y="789.090909" xlink:href="#b"/>
<use x="1017.873593" y="789.090909" xlink:href="#b"/>
<use x="1091.307359" y="789.090909" xlink:href="#b"/>
<use x="1167.460895" y="789.090909" xlink:href="#b"/>
<use x="1246.334199" y="789.090909" xlink:href="#b"/>
<use x="1327.927273" y="789.090909" xlink:href="#b"/>
<use x="1412.240115" y="789.090909" xlink:href="#b"/>
<use x="1499.272727" y="789.090909" xlink:href="#b"/>
<use x="571.524944" y="37.575758" xlink:href="#b"/>
<use x="177.076397" y="189.218858" xlink:href="#b"/>
<use x="1030.021895" y="189.218858" xlink:href="#b"/>
<use x="763.121886" y="340.479304" xlink:href="#b"/>
<use x="1091.307359" y="641.18755" xlink:href="#b"/>
<use x="1330.647042" y="491.226693" xlink:href="#b"/>
<use x="1167.460895" y="641.18755" xlink:href="#b"/>
<use x="1246.334199" y="641.18755" xlink:href="#b"/>
<use x="691.501299" y="641.18755" xlink:href="#b"/>
<use x="751.336219" y="641.18755" xlink:href="#b"/>
<use x="846.528139" y="491.226693" xlink:href="#b"/>
<use x="813.890909" y="641.18755" xlink:href="#b"/>
<use x="879.165368" y="641.18755" xlink:href="#b"/>
<use x="225.51419" y="340.479304" xlink:href="#b"/>
<use x="161.14632" y="641.18755" xlink:href="#b"/>
<use x="213.728523" y="491.226693" xlink:href="#b"/>
<use x="104.031169" y="641.18755" xlink:href="#b"/>
<use x="185.624242" y="641.18755" xlink:href="#b"/>
<use x="212.821934" y="641.18755" xlink:href="#b"/>
<use x="242.739394" y="641.18755" xlink:href="#b"/>
<use x="80.459836" y="491.226693" xlink:href="#b"/>
<use x="370.568543" y="491.226693" xlink:href="#b"/>
<use x="310.733622" y="641.18755" xlink:href="#b"/>
<use x="348.81039" y="641.18755" xlink:href="#b"/>
<use x="389.606926" y="641.18755" xlink:href="#b"/>
<use x="433.123232" y="641.18755" xlink:href="#b"/>
<use x="71.393939" y="641.18755" xlink:href="#b"/>
<use x="79.553247" y="641.18755" xlink:href="#b"/>
<use x="90.432323" y="641.18755" xlink:href="#b"/>
<use x="120.349784" y="641.18755" xlink:href="#b"/>
<use x="139.388167" y="641.18755" xlink:href="#b"/>
<use x="275.376623" y="641.18755" xlink:href="#b"/>
<use x="479.359307" y="641.18755" xlink:href="#b"/>
<use x="528.315152" y="641.18755" xlink:href="#b"/>
<use x="579.990765" y="641.18755" xlink:href="#b"/>
<use x="634.386147" y="641.18755" xlink:href="#b"/>
<use x="947.159596" y="641.18755" xlink:href="#b"/>
<use x="1017.873593" y="641.18755" xlink:href="#b"/>
<use x="1327.927273" y="641.18755" xlink:href="#b"/>
<use x="1412.240115" y="641.18755" xlink:href="#b"/>
<use x="1499.272727" y="641.18755" xlink:href="#b"/>
</g>
<g clip-path="url(#a)">
<defs>
<path id="ao" d="m3.3281 72.906h9.9531l15.328-61.625 15.281 61.625h11.094l15.328-61.625 15.281 61.625h10.016l-18.312-72.906h-12.406l-15.375 63.281-15.531-63.281h-12.406z"/>
</defs>
<g transform="translate(61.612 791.85) scale(.1 -.1)">
<use xlink:href="#ao"/>
<use x="93.001953" xlink:href="#e"/>
<use x="154.525391" xlink:href="#g"/>
</g>
</g>
<g clip-path="url(#a)">
<defs>
<path id="x" d="m48.688 27.297q0 9.9062-4.0781 15.547t-11.203 5.6406q-7.1406 0-11.219-5.6406t-4.0781-15.547 4.0781-15.547 11.219-5.6406q7.125 0 11.203 5.6406t4.0781 15.547zm-30.578 19.094q2.8438 4.875 7.1562 7.2344 4.3281 2.375 10.328 2.375 9.9688 0 16.188-7.9062 6.2344-7.9062 6.2344-20.797t-6.2344-20.812q-6.2188-7.9062-16.188-7.9062-6 0-10.328 2.375-4.3125 2.375-7.1562 7.25v-8.2031h-9.0312v75.984h9.0312z"/>
<path id="r" d="m44.281 53.078v-8.5q-3.7969 1.9531-7.9062 2.9219-4.0938 0.98438-8.5 0.98438-6.6875 0-10.031-2.0469t-3.3438-6.1562q0-3.125 2.3906-4.9062t9.625-3.3906l3.0781-0.6875q9.5625-2.0469 13.594-5.7812t4.0312-10.422q0-7.625-6.0312-12.078-6.0312-4.4375-16.578-4.4375-4.3906 0-9.1562 0.85938t-10.031 2.5625v9.2812q4.9844-2.5938 9.8125-3.8906 4.8281-1.2812 9.5781-1.2812 6.3438 0 9.75 2.1719 3.4219 2.1719 3.4219 6.125 0 3.6562-2.4688 5.6094-2.4531 1.9531-10.812 3.7656l-3.125 0.73438q-8.3438 1.75-12.062 5.3906-3.7031 3.6406-3.7031 9.9844 0 7.7188 5.4688 11.906 5.4688 4.2031 15.531 4.2031 4.9688 0 9.3594-0.73438 4.4062-0.71875 8.1094-2.1875z"/>
<path id="ac" d="m18.312 70.219v-15.531h18.5v-6.9844h-18.5v-29.688q0-6.6875 1.8281-8.5938t7.4531-1.9062h9.2188v-7.5156h-9.2188q-10.406 0-14.359 3.875-3.9531 3.8906-3.9531 14.141v29.688h-6.5938v6.9844h6.5938v15.531z"/>
</defs>
<g transform="translate(70.425 791.85) scale(.1 -.1)">
<use xlink:href="#x"/>
<use x="63.476562" xlink:href="#f"/>
<use x="91.259766" xlink:href="#r"/>
<use x="143.359375" xlink:href="#ac"/>
</g>
</g>
<g clip-path="url(#a)">
<defs>
<path id="aj" d="m45.406 46.391v29.594h8.9844v-75.984h-8.9844v8.2031q-2.8281-4.875-7.1562-7.25-4.3125-2.375-10.375-2.375-9.9062 0-16.141 7.9062-6.2188 7.9219-6.2188 20.812t6.2188 20.797q6.2344 7.9062 16.141 7.9062 6.0625 0 10.375-2.375 4.3281-2.3594 7.1562-7.2344zm-30.609-19.094q0-9.9062 4.0781-15.547t11.203-5.6406 11.219 5.6406q4.1094 5.6406 4.1094 15.547t-4.1094 15.547q-4.0938 5.6406-11.219 5.6406t-11.203-5.6406-4.0781-15.547z"/>
<path id="ab" d="m8.5 21.578v33.109h8.9844v-32.766q0-7.7656 3.0156-11.656 3.0312-3.875 9.0938-3.875 7.2656 0 11.484 4.6406 4.2344 4.6406 4.2344 12.656v31h8.9844v-54.688h-8.9844v8.4062q-3.2656-4.9844-7.5938-7.4062-4.3125-2.4219-10.031-2.4219-9.4219 0-14.312 5.8594-4.875 5.8594-4.875 17.141z"/>
</defs>
<g transform="translate(84.089 791.85) scale(.1 -.1)">
<use xlink:href="#aj"/>
<use x="63.476562" xlink:href="#ab"/>
</g>
</g>
<g clip-path="url(#a)">
<defs>
<path id="ar" d="m19.094 12.406h9.9062v-12.406h-9.9062zm9.625 7.1719h-9.3281v7.5156q0 4.9375 1.3594 8.1094 1.375 3.1719 5.7656 7.375l4.3906 4.3438q2.7812 2.5938 4.0312 4.8906t1.25 4.6875q0 4.3438-3.2031 7.0312t-8.4688 2.6875q-3.8594 0-8.2344-1.7188-4.3594-1.7031-9.1094-4.9844v9.1875q4.5938 2.7812 9.2969 4.1406 4.7188 1.375 9.75 1.375 8.9844 0 14.422-4.7344 5.4531-4.7344 5.4531-12.5 0-3.7188-1.7656-7.0625-1.75-3.3438-6.1406-7.5312l-4.2969-4.2031q-2.2969-2.2969-3.25-3.5938t-1.3438-2.5156q-0.29688-1.0156-0.4375-2.4844t-0.14062-4z"/>
</defs>
<g transform="translate(101.38 791.85) scale(.1 -.1)">
<use xlink:href="#ar"/>
</g>
</g>
<g clip-path="url(#a)">
<defs>
<path id="v" d="m17.922 72.906v-27.109h-8.2969v27.109zm18.453 0v-27.109h-8.2969v27.109z"/>
</defs>
<g transform="translate(118.05 791.85) scale(.1 -.1)">
<use xlink:href="#v"/>
</g>
</g>
<g clip-path="url(#a)">
<defs>
<path id="am" d="m11.719 12.406h10.297v-8.4062l-8-15.625h-6.2969l4 15.625z"/>
</defs>
<g transform="translate(137.8 791.85) scale(.1 -.1)">
<use xlink:href="#am"/>
</g>
</g>
<g clip-path="url(#a)">
<defs>
<path id="an" d="m45.406 27.984q0 9.7656-4.0312 15.125-4.0156 5.375-11.297 5.375-7.2188 0-11.25-5.375-4.0312-5.3594-4.0312-15.125 0-9.7188 4.0312-15.094t11.25-5.375q7.2812 0 11.297 5.375 4.0312 5.375 4.0312 15.094zm8.9844-21.203q0-13.953-6.2031-20.766-6.1875-6.8125-18.984-6.8125-4.7344 0-8.9375 0.70312t-8.1562 2.1719v8.7344q3.9531-2.1406 7.8125-3.1562 3.8594-1.0312 7.8594-1.0312 8.8438 0 13.234 4.6094t4.3906 13.938v4.4531q-2.7812-4.8438-7.125-7.2344t-10.406-2.3906q-10.047 0-16.203 7.6562-6.1562 7.6719-6.1562 20.328 0 12.688 6.1562 20.344 6.1562 7.6719 16.203 7.6719 6.0625 0 10.406-2.3906t7.125-7.2188v8.2969h8.9844z"/>
</defs>
<g transform="translate(147.27 791.85) scale(.1 -.1)">
<use xlink:href="#r"/>
<use x="52.099609" xlink:href="#i"/>
<use x="113.378906" xlink:href="#an"/>
<use x="176.855469" xlink:href="#ac"/>
<use x="216.064453" xlink:href="#e"/>
</g>
</g>
<g clip-path="url(#a)">
<g transform="translate(177.32 791.85) scale(.1 -.1)">
<use xlink:href="#aj"/>
<use x="63.476562" xlink:href="#e"/>
<use x="125" xlink:href="#g"/>
</g>
</g>
<g clip-path="url(#a)">
<defs>
<path id="au" d="m9.0781 75.984h9.0312v-44.875l26.812 23.578h11.469l-29-25.578 30.234-29.109h-11.719l-27.797 26.703v-26.703h-9.0312z"/>
</defs>
<g transform="translate(197.83 791.85) scale(.1 -.1)">
<use xlink:href="#au"/>
<use x="57.910156" xlink:href="#j"/>
<use x="85.693359" xlink:href="#e"/>
<use x="147.216797" xlink:href="#f"/>
<use x="175" xlink:href="#h"/>
<use x="238.378906" xlink:href="#e"/>
</g>
</g>
<g clip-path="url(#a)">
<defs>
<path id="at" d="m5.5156 54.688h42.672v-8.2031l-33.781-39.312h33.781v-7.1719h-43.891v8.2031l33.797 39.312h-32.578z"/>
</defs>
<g transform="translate(230.57 791.85) scale(.1 -.1)">
<use xlink:href="#ae"/>
<use x="58.552734" xlink:href="#g"/>
<use x="99.666016" xlink:href="#f"/>
<use x="127.449219" xlink:href="#h"/>
<use x="190.828125" xlink:href="#at"/>
</g>
</g>
<g clip-path="url(#a)">
<defs>
<path id="d" d="m10.688 12.406h10.312v-12.406h-10.312z"/>
</defs>
<g transform="translate(273.79 791.85) scale(.1 -.1)">
<use xlink:href="#d"/>
</g>
</g>
<g clip-path="url(#a)">
<g transform="translate(303.71 791.85) scale(.1 -.1)">
<use xlink:href="#ak"/>
<use x="77.001953" xlink:href="#ab"/>
</g>
</g>
<g clip-path="url(#a)">
<g transform="translate(339.68 791.85) scale(.1 -.1)">
<use xlink:href="#x"/>
<use x="63.476562" xlink:href="#f"/>
<use x="91.259766" xlink:href="#r"/>
<use x="143.359375" xlink:href="#ac"/>
</g>
</g>
<g clip-path="url(#a)">
<defs>
<path id="u" d="m54.891 33.016v-33.016h-8.9844v32.719q0 7.7656-3.0312 11.609-3.0312 3.8594-9.0781 3.8594-7.2812 0-11.484-4.6406-4.2031-4.625-4.2031-12.641v-30.906h-9.0312v75.984h9.0312v-29.797q3.2344 4.9375 7.5938 7.375 4.375 2.4375 10.094 2.4375 9.4219 0 14.25-5.8281 4.8438-5.8281 4.8438-17.156z"/>
</defs>
<g transform="translate(378.7 791.85) scale(.1 -.1)">
<use xlink:href="#r"/>
<use x="52.099609" xlink:href="#e"/>
<use x="113.623047" xlink:href="#u"/>
<use x="177.001953" xlink:href="#g"/>
</g>
</g>
<g clip-path="url(#a)">
<defs>
<path id="as" d="m8.5 21.578v33.109h8.9844v-32.766q0-7.7656 3.0156-11.656 3.0312-3.875 9.0938-3.875 7.2656 0 11.484 4.6406 4.2344 4.6406 4.2344 12.656v31h8.9844v-54.688h-8.9844v8.4062q-3.2656-4.9844-7.5938-7.4062-4.3125-2.4219-10.031-2.4219-9.4219 0-14.312 5.8594-4.875 5.8594-4.875 17.141zm22.609 34.422m4.4844 19.781h9.9062v-9.8594h-9.9062zm-19.094 0h9.9062v-9.8594h-9.9062z"/>
<path id="w" d="m48.781 52.594v-8.4062q-3.8125 2.1094-7.6406 3.1562t-7.7344 1.0469q-8.75 0-13.594-5.5469-4.8281-5.5312-4.8281-15.547t4.8281-15.562q4.8438-5.5312 13.594-5.5312 3.9062 0 7.7344 1.0469t7.6406 3.1562v-8.3125q-3.7656-1.75-7.7969-2.625-4.0156-0.89062-8.5625-0.89062-12.359 0-19.641 7.7656-7.2656 7.7656-7.2656 20.953 0 13.375 7.3438 21.031 7.3594 7.6719 20.156 7.6719 4.1406 0 8.0938-0.85938 3.9531-0.84375 7.6719-2.5469z"/>
</defs>
<g transform="translate(415.09 791.85) scale(.1 -.1)">
<use xlink:href="#u"/>
<use x="63.378906" xlink:href="#as"/>
<use x="126.757812" xlink:href="#x"/>
<use x="190.234375" xlink:href="#r"/>
<use x="242.333984" xlink:href="#w"/>
<use x="297.314453" xlink:href="#u"/>
</g>
</g>
<g clip-path="url(#a)">
<g transform="translate(474.59 791.85) scale(.1 -.1)">
<use xlink:href="#d"/>
<use x="31.787109" xlink:href="#d"/>
<use x="63.574219" xlink:href="#d"/>
</g>
</g>
<g clip-path="url(#a)">
<g transform="translate(526.02 791.85) scale(.1 -.1)">
<use xlink:href="#v"/>
</g>
</g>
<g clip-path="url(#a)">
<defs>
<path id="al" d="m4.8906 31.391h26.312v-8h-26.312z"/>
</defs>
<g transform="translate(578.19 791.85) scale(.1 -.1)">
<use xlink:href="#al"/>
</g>
</g>
<g clip-path="url(#a)">
<g transform="translate(632.09 791.85) scale(.1 -.1)">
<use xlink:href="#v"/>
</g>
</g>
<g clip-path="url(#a)">
<defs>
<path id="ap" d="m9.8125 72.906h9.8594v-72.906h-9.8594z"/>
</defs>
<g transform="translate(684.11 791.85) scale(.1 -.1)">
<use xlink:href="#ap"/>
<use x="29.492188" xlink:href="#w"/>
<use x="84.472656" xlink:href="#u"/>
</g>
</g>
<g clip-path="url(#a)">
<g transform="translate(743.6 791.85) scale(.1 -.1)">
<use xlink:href="#x"/>
<use x="63.476562" xlink:href="#f"/>
<use x="91.259766" xlink:href="#h"/>
</g>
</g>
<g clip-path="url(#a)">
<g transform="translate(806.26 791.85) scale(.1 -.1)">
<use xlink:href="#e"/>
<use x="61.523438" xlink:href="#f"/>
<use x="89.306641" xlink:href="#h"/>
</g>
</g>
<g clip-path="url(#a)">
<g transform="translate(864.87 791.85) scale(.1 -.1)">
<use xlink:href="#t"/>
<use x="52.019531" xlink:href="#ab"/>
<use x="115.398438" xlink:href="#w"/>
<use x="170.378906" xlink:href="#u"/>
<use x="233.757812" xlink:href="#r"/>
</g>
</g>
<g clip-path="url(#a)">
<g transform="translate(944.86 791.85) scale(.1 -.1)">
<use xlink:href="#v"/>
</g>
</g>
<g clip-path="url(#a)">
<g transform="translate(1016.3 791.85) scale(.1 -.1)">
<use xlink:href="#am"/>
</g>
</g>
<g clip-path="url(#a)">
<g transform="translate(1077.4 791.85) scale(.1 -.1)">
<use xlink:href="#r"/>
<use x="52.099609" xlink:href="#i"/>
<use x="113.378906" xlink:href="#an"/>
<use x="176.855469" xlink:href="#ac"/>
<use x="216.064453" xlink:href="#e"/>
</g>
</g>
<g clip-path="url(#a)">
<g transform="translate(1159.2 791.85) scale(.1 -.1)">
<use xlink:href="#aj"/>
<use x="63.476562" xlink:href="#e"/>
<use x="125" xlink:href="#g"/>
</g>
</g>
<g clip-path="url(#a)">
<g transform="translate(1232 791.85) scale(.1 -.1)">
<use xlink:href="#t"/>
<use x="52.019531" xlink:href="#ab"/>
<use x="115.398438" xlink:href="#w"/>
<use x="170.378906" xlink:href="#u"/>
<use x="233.757812" xlink:href="#r"/>
</g>
</g>
<g clip-path="url(#a)">
<g transform="translate(1326.3 791.85) scale(.1 -.1)">
<use xlink:href="#d"/>
</g>
</g>
<g clip-path="url(#a)">
<g transform="translate(1410.4 791.85) scale(.1 -.1)">
<use xlink:href="#al"/>
</g>
</g>
<g clip-path="url(#a)">
<g transform="translate(1497 791.85) scale(.1 -.1)">
<use xlink:href="#v"/>
</g>
</g>
<g clip-path="url(#a)">
<defs>
<path id="c" d="m12.406 8.2969h16.109v55.625l-17.531-3.5156v8.9844l17.438 3.5156h9.8594v-64.609h16.109v-8.2969h-41.984z"/>
</defs>
<g transform="translate(563.57 40.335) scale(.1 -.1)">
<use xlink:href="#c"/>
<use x="63.623047" xlink:href="#d"/>
<use x="95.410156" xlink:href="#c"/>
</g>
</g>
<g clip-path="url(#a)">
<defs>
<path id="p" d="m19.188 8.2969h34.422v-8.2969h-46.281v8.2969q5.6094 5.8125 15.297 15.594 9.7031 9.7969 12.188 12.641 4.7344 5.3125 6.6094 9 1.8906 3.6875 1.8906 7.25 0 5.8125-4.0781 9.4688-4.0781 3.6719-10.625 3.6719-4.6406 0-9.7969-1.6094-5.1406-1.6094-11-4.8906v9.9688q5.9531 2.3906 11.125 3.6094 5.1875 1.2188 9.4844 1.2188 11.328 0 18.062-5.6719 6.7344-5.6562 6.7344-15.125 0-4.5-1.6875-8.5312-1.6719-4.0156-6.125-9.4844-1.2188-1.4219-7.7656-8.1875-6.5312-6.7656-18.453-18.922z"/>
</defs>
<g transform="translate(169.12 191.98) scale(.1 -.1)">
<use xlink:href="#c"/>
<use x="63.623047" xlink:href="#d"/>
<use x="95.410156" xlink:href="#p"/>
</g>
</g>
<g clip-path="url(#a)">
<defs>
<path id="m" d="m40.578 39.312q7.0781-1.5156 11.047-6.3125 3.9844-4.7812 3.9844-11.812 0-10.781-7.4219-16.703-7.4219-5.9062-21.094-5.9062-4.5781 0-9.4375 0.90625t-10.031 2.7188v9.5156q4.0938-2.3906 8.9688-3.6094 4.8906-1.2188 10.219-1.2188 9.2656 0 14.125 3.6562t4.8594 10.641q0 6.4531-4.5156 10.078-4.5156 3.6406-12.562 3.6406h-8.5v8.1094h8.8906q7.2656 0 11.125 2.9062t3.8594 8.375q0 5.6094-3.9844 8.6094-3.9688 3.0156-11.391 3.0156-4.0625 0-8.7031-0.89062-4.6406-0.875-10.203-2.7188v8.7812q5.625 1.5625 10.531 2.3438t9.25 0.78125q11.234 0 17.766-5.1094 6.5469-5.0938 6.5469-13.781 0-6.0625-3.4688-10.234t-9.8594-5.7812z"/>
</defs>
<g transform="translate(1022.1 191.98) scale(.1 -.1)">
<use xlink:href="#c"/>
<use x="63.623047" xlink:href="#d"/>
<use x="95.410156" xlink:href="#m"/>
</g>
</g>
<g clip-path="url(#a)">
<g transform="translate(751.99 343.24) scale(.1 -.1)">
<use xlink:href="#c"/>
<use x="63.623047" xlink:href="#d"/>
<use x="95.410156" xlink:href="#c"/>
<use x="159.033203" xlink:href="#c"/>
</g>
</g>
<g clip-path="url(#a)">
<g transform="translate(1080.2 643.95) scale(.1 -.1)">
<use xlink:href="#c"/>
<use x="63.623047" xlink:href="#d"/>
<use x="95.410156" xlink:href="#c"/>
<use x="159.033203" xlink:href="#p"/>
</g>
</g>
<g clip-path="url(#a)">
<g transform="translate(1319.5 493.99) scale(.1 -.1)">
<use xlink:href="#c"/>
<use x="63.623047" xlink:href="#d"/>
<use x="95.410156" xlink:href="#c"/>
<use x="159.033203" xlink:href="#m"/>
</g>
</g>
<g clip-path="url(#a)">
<defs>
<path id="ai" d="m33.016 40.375q-6.6406 0-10.531-4.5469-3.875-4.5312-3.875-12.438 0-7.8594 3.875-12.438 3.8906-4.5625 10.531-4.5625t10.516 4.5625q3.875 4.5781 3.875 12.438 0 7.9062-3.875 12.438-3.875 4.5469-10.516 4.5469zm19.578 30.922v-8.9844q-3.7188 1.75-7.5 2.6719-3.7812 0.9375-7.5 0.9375-9.7656 0-14.922-6.5938-5.1406-6.5938-5.875-19.922 2.875 4.25 7.2188 6.5156 4.3594 2.2656 9.5781 2.2656 10.984 0 17.359-6.6719 6.375-6.6562 6.375-18.125 0-11.234-6.6406-18.031-6.6406-6.7812-17.672-6.7812-12.656 0-19.344 9.6875-6.6875 9.7031-6.6875 28.109 0 17.281 8.2031 27.562t22.016 10.281q3.7188 0 7.5-0.73438t7.8906-2.1875z"/>
</defs>
<g transform="translate(1156.3 643.95) scale(.1 -.1)">
<use xlink:href="#c"/>
<use x="63.623047" xlink:href="#d"/>
<use x="95.410156" xlink:href="#c"/>
<use x="159.033203" xlink:href="#ai"/>
</g>
</g>
<g clip-path="url(#a)">
<defs>
<path id="ah" d="m8.2031 72.906h46.875v-4.2031l-26.469-68.703h-10.297l24.906 64.594h-35.016z"/>
</defs>
<g transform="translate(1235.2 643.95) scale(.1 -.1)">
<use xlink:href="#c"/>
<use x="63.623047" xlink:href="#d"/>
<use x="95.410156" xlink:href="#c"/>
<use x="159.033203" xlink:href="#ah"/>
</g>
</g>
<g clip-path="url(#a)">
<defs>
<path id="ag" d="m31.781 34.625q-7.0312 0-11.062-3.7656-4.0156-3.7656-4.0156-10.344 0-6.5938 4.0156-10.359 4.0312-3.7656 11.062-3.7656t11.078 3.7812q4.0625 3.7969 4.0625 10.344 0 6.5781-4.0312 10.344-4.0156 3.7656-11.109 3.7656zm-9.8594 4.1875q-6.3438 1.5625-9.8906 5.9062-3.5312 4.3594-3.5312 10.609 0 8.7344 6.2188 13.812 6.2344 5.0781 17.062 5.0781 10.891 0 17.094-5.0781t6.2031-13.812q0-6.25-3.5469-10.609-3.5312-4.3438-9.8281-5.9062 7.125-1.6562 11.094-6.5 3.9844-4.8281 3.9844-11.797 0-10.609-6.4688-16.281-6.4688-5.6562-18.531-5.6562-12.047 0-18.531 5.6562-6.4688 5.6719-6.4688 16.281 0 6.9688 4 11.797 4.0156 4.8438 11.141 6.5zm-3.6094 15.578q0-5.6562 3.5312-8.8281 3.5469-3.1719 9.9375-3.1719 6.3594 0 9.9375 3.1719 3.5938 3.1719 3.5938 8.8281 0 5.6719-3.5938 8.8438-3.5781 3.1719-9.9375 3.1719-6.3906 0-9.9375-3.1719-3.5312-3.1719-3.5312-8.8438z"/>
</defs>
<g transform="translate(680.37 643.95) scale(.1 -.1)">
<use xlink:href="#c"/>
<use x="63.623047" xlink:href="#d"/>
<use x="95.410156" xlink:href="#c"/>
<use x="159.033203" xlink:href="#ag"/>
</g>
</g>
<g clip-path="url(#a)">
<defs>
<path id="z" d="m10.984 1.5156v8.9844q3.7188-1.7656 7.5156-2.6875 3.8125-0.92188 7.4844-0.92188 9.7656 0 14.906 6.5625 5.1562 6.5625 5.8906 19.953-2.8281-4.2031-7.1875-6.4531-4.3438-2.25-9.6094-2.25-10.938 0-17.312 6.6094-6.375 6.625-6.375 18.109 0 11.219 6.6406 18 6.6406 6.7969 17.672 6.7969 12.656 0 19.312-9.7031 6.6719-9.6875 6.6719-28.141 0-17.234-8.1875-27.516-8.1719-10.281-21.984-10.281-3.7188 0-7.5312 0.73438-3.7969 0.73438-7.9062 2.2031zm19.625 30.906q6.6406 0 10.516 4.5312 3.8906 4.5469 3.8906 12.469 0 7.8594-3.8906 12.422-3.875 4.5625-10.516 4.5625t-10.516-4.5625-3.875-12.422q0-7.9219 3.875-12.469 3.875-4.5312 10.516-4.5312z"/>
</defs>
<g transform="translate(740.2 643.95) scale(.1 -.1)">
<use xlink:href="#c"/>
<use x="63.623047" xlink:href="#d"/>
<use x="95.410156" xlink:href="#c"/>
<use x="159.033203" xlink:href="#z"/>
</g>
</g>
<g clip-path="url(#a)">
<defs>
<path id="aa" d="m31.781 66.406q-7.6094 0-11.453-7.5-3.8281-7.4844-3.8281-22.531 0-14.984 3.8281-22.484 3.8438-7.5 11.453-7.5 7.6719 0 11.5 7.5 3.8438 7.5 3.8438 22.484 0 15.047-3.8438 22.531-3.8281 7.5-11.5 7.5zm0 7.8125q12.266 0 18.734-9.7031 6.4688-9.6875 6.4688-28.141 0-18.406-6.4688-28.109-6.4688-9.6875-18.734-9.6875-12.25 0-18.719 9.6875-6.4688 9.7031-6.4688 28.109 0 18.453 6.4688 28.141 6.4688 9.7031 18.719 9.7031z"/>
</defs>
<g transform="translate(835.4 493.99) scale(.1 -.1)">
<use xlink:href="#c"/>
<use x="63.623047" xlink:href="#d"/>
<use x="95.410156" xlink:href="#p"/>
<use x="159.033203" xlink:href="#aa"/>
</g>
</g>
<g clip-path="url(#a)">
<g transform="translate(802.76 643.95) scale(.1 -.1)">
<use xlink:href="#c"/>
<use x="63.623047" xlink:href="#d"/>
<use x="95.410156" xlink:href="#p"/>
<use x="159.033203" xlink:href="#c"/>
</g>
</g>
<g clip-path="url(#a)">
<g transform="translate(868.03 643.95) scale(.1 -.1)">
<use xlink:href="#c"/>
<use x="63.623047" xlink:href="#d"/>
<use x="95.410156" xlink:href="#p"/>
<use x="159.033203" xlink:href="#p"/>
</g>
</g>
<g clip-path="url(#a)">
<g transform="translate(214.38 343.24) scale(.1 -.1)">
<use xlink:href="#c"/>
<use x="63.623047" xlink:href="#d"/>
<use x="95.410156" xlink:href="#p"/>
<use x="159.033203" xlink:href="#m"/>
</g>
</g>
<g clip-path="url(#a)">
<defs>
<path id="o" d="m37.797 64.312-24.906-38.922h24.906zm-2.5938 8.5938h12.406v-47.516h10.406v-8.2031h-10.406v-17.188h-9.8125v17.188h-32.906v9.5156z"/>
</defs>
<g transform="translate(150.01 643.95) scale(.1 -.1)">
<use xlink:href="#c"/>
<use x="63.623047" xlink:href="#d"/>
<use x="95.410156" xlink:href="#p"/>
<use x="159.033203" xlink:href="#o"/>
</g>
</g>
<g clip-path="url(#a)">
<defs>
<path id="s" d="m10.797 72.906h38.719v-8.3125h-29.688v-17.859q2.1406 0.73438 4.2812 1.0938 2.1562 0.35938 4.3125 0.35938 12.203 0 19.328-6.6875 7.1406-6.6875 7.1406-18.109 0-11.766-7.3281-18.297-7.3281-6.5156-20.656-6.5156-4.5938 0-9.3594 0.78125-4.75 0.78125-9.8281 2.3438v9.9219q4.3906-2.3906 9.0781-3.5625t9.9062-1.1719q8.4531 0 13.375 4.4375 4.9375 4.4375 4.9375 12.062 0 7.6094-4.9375 12.047-4.9219 4.4531-13.375 4.4531-3.9531 0-7.8906-0.875-3.9219-0.875-8.0156-2.7344z"/>
</defs>
<g transform="translate(202.6 493.99) scale(.1 -.1)">
<use xlink:href="#c"/>
<use x="63.623047" xlink:href="#d"/>
<use x="95.410156" xlink:href="#p"/>
<use x="159.033203" xlink:href="#s"/>
</g>
</g>
<g clip-path="url(#a)">
<g transform="translate(92.898 643.95) scale(.1 -.1)">
<use xlink:href="#c"/>
<use x="63.623047" xlink:href="#d"/>
<use x="95.410156" xlink:href="#p"/>
<use x="159.033203" xlink:href="#z"/>
</g>
</g>
<g clip-path="url(#a)">
<g transform="translate(174.49 643.95) scale(.1 -.1)">
<use xlink:href="#c"/>
<use x="63.623047" xlink:href="#d"/>
<use x="95.410156" xlink:href="#m"/>
<use x="159.033203" xlink:href="#aa"/>
</g>
</g>
<g clip-path="url(#a)">
<g transform="translate(201.69 643.95) scale(.1 -.1)">
<use xlink:href="#c"/>
<use x="63.623047" xlink:href="#d"/>
<use x="95.410156" xlink:href="#m"/>
<use x="159.033203" xlink:href="#c"/>
</g>
</g>
<g clip-path="url(#a)">
<g transform="translate(231.61 643.95) scale(.1 -.1)">
<use xlink:href="#c"/>
<use x="63.623047" xlink:href="#d"/>
<use x="95.410156" xlink:href="#m"/>
<use x="159.033203" xlink:href="#p"/>
</g>
</g>
<g clip-path="url(#a)">
<g transform="translate(69.327 493.99) scale(.1 -.1)">
<use xlink:href="#c"/>
<use x="63.623047" xlink:href="#d"/>
<use x="95.410156" xlink:href="#m"/>
<use x="159.033203" xlink:href="#m"/>
</g>
</g>
<g clip-path="url(#a)">
<g transform="translate(359.44 493.99) scale(.1 -.1)">
<use xlink:href="#c"/>
<use x="63.623047" xlink:href="#d"/>
<use x="95.410156" xlink:href="#m"/>
<use x="159.033203" xlink:href="#o"/>
</g>
</g>
<g clip-path="url(#a)">
<g transform="translate(299.6 643.95) scale(.1 -.1)">
<use xlink:href="#c"/>
<use x="63.623047" xlink:href="#d"/>
<use x="95.410156" xlink:href="#m"/>
<use x="159.033203" xlink:href="#s"/>
</g>
</g>
<g clip-path="url(#a)">
<g transform="translate(337.68 643.95) scale(.1 -.1)">
<use xlink:href="#c"/>
<use x="63.623047" xlink:href="#d"/>
<use x="95.410156" xlink:href="#m"/>
<use x="159.033203" xlink:href="#ai"/>
</g>
</g>
<g clip-path="url(#a)">
<g transform="translate(378.47 643.95) scale(.1 -.1)">
<use xlink:href="#c"/>
<use x="63.623047" xlink:href="#d"/>
<use x="95.410156" xlink:href="#m"/>
<use x="159.033203" xlink:href="#ah"/>
</g>
</g>
<g clip-path="url(#a)">
<g transform="translate(421.99 643.95) scale(.1 -.1)">
<use xlink:href="#c"/>
<use x="63.623047" xlink:href="#d"/>
<use x="95.410156" xlink:href="#m"/>
<use x="159.033203" xlink:href="#ag"/>
</g>
</g>
<g clip-path="url(#a)">
<g transform="translate(60.261 643.95) scale(.1 -.1)">
<use xlink:href="#c"/>
<use x="63.623047" xlink:href="#d"/>
<use x="95.410156" xlink:href="#m"/>
<use x="159.033203" xlink:href="#z"/>
</g>
</g>
<g clip-path="url(#a)">
<g transform="translate(68.42 643.95) scale(.1 -.1)">
<use xlink:href="#c"/>
<use x="63.623047" xlink:href="#d"/>
<use x="95.410156" xlink:href="#o"/>
<use x="159.033203" xlink:href="#aa"/>
</g>
</g>
<g clip-path="url(#a)">
<g transform="translate(79.3 643.95) scale(.1 -.1)">
<use xlink:href="#c"/>
<use x="63.623047" xlink:href="#d"/>
<use x="95.410156" xlink:href="#o"/>
<use x="159.033203" xlink:href="#c"/>
</g>
</g>
<g clip-path="url(#a)">
<g transform="translate(109.22 643.95) scale(.1 -.1)">
<use xlink:href="#c"/>
<use x="63.623047" xlink:href="#d"/>
<use x="95.410156" xlink:href="#o"/>
<use x="159.033203" xlink:href="#p"/>
</g>
</g>
<g clip-path="url(#a)">
<g transform="translate(128.26 643.95) scale(.1 -.1)">
<use xlink:href="#c"/>
<use x="63.623047" xlink:href="#d"/>
<use x="95.410156" xlink:href="#o"/>
<use x="159.033203" xlink:href="#m"/>
</g>
</g>
<g clip-path="url(#a)">
<g transform="translate(264.24 643.95) scale(.1 -.1)">
<use xlink:href="#c"/>
<use x="63.623047" xlink:href="#d"/>
<use x="95.410156" xlink:href="#o"/>
<use x="159.033203" xlink:href="#o"/>
</g>
</g>
<g clip-path="url(#a)">
<g transform="translate(468.23 643.95) scale(.1 -.1)">
<use xlink:href="#c"/>
<use x="63.623047" xlink:href="#d"/>
<use x="95.410156" xlink:href="#o"/>
<use x="159.033203" xlink:href="#s"/>
</g>
</g>
<g clip-path="url(#a)">
<g transform="translate(517.18 643.95) scale(.1 -.1)">
<use xlink:href="#c"/>
<use x="63.623047" xlink:href="#d"/>
<use x="95.410156" xlink:href="#o"/>
<use x="159.033203" xlink:href="#ai"/>
</g>
</g>
<g clip-path="url(#a)">
<g transform="translate(568.86 643.95) scale(.1 -.1)">
<use xlink:href="#c"/>
<use x="63.623047" xlink:href="#d"/>
<use x="95.410156" xlink:href="#o"/>
<use x="159.033203" xlink:href="#ah"/>
</g>
</g>
<g clip-path="url(#a)">
<g transform="translate(623.25 643.95) scale(.1 -.1)">
<use xlink:href="#c"/>
<use x="63.623047" xlink:href="#d"/>
<use x="95.410156" xlink:href="#o"/>
<use x="159.033203" xlink:href="#ag"/>
</g>
</g>
<g clip-path="url(#a)">
<g transform="translate(936.03 643.95) scale(.1 -.1)">
<use xlink:href="#c"/>
<use x="63.623047" xlink:href="#d"/>
<use x="95.410156" xlink:href="#o"/>
<use x="159.033203" xlink:href="#z"/>
</g>
</g>
<g clip-path="url(#a)">
<g transform="translate(1006.7 643.95) scale(.1 -.1)">
<use xlink:href="#c"/>
<use x="63.623047" xlink:href="#d"/>
<use x="95.410156" xlink:href="#s"/>
<use x="159.033203" xlink:href="#aa"/>
</g>
</g>
<g clip-path="url(#a)">
<g transform="translate(1316.8 643.95) scale(.1 -.1)">
<use xlink:href="#c"/>
<use x="63.623047" xlink:href="#d"/>
<use x="95.410156" xlink:href="#s"/>
<use x="159.033203" xlink:href="#c"/>
</g>
</g>
<g clip-path="url(#a)">
<g transform="translate(1401.1 643.95) scale(.1 -.1)">
<use xlink:href="#c"/>
<use x="63.623047" xlink:href="#d"/>
<use x="95.410156" xlink:href="#s"/>
<use x="159.033203" xlink:href="#p"/>
</g>
</g>
<g clip-path="url(#a)">
<g transform="translate(1488.1 643.95) scale(.1 -.1)">
<use xlink:href="#c"/>
<use x="63.623047" xlink:href="#d"/>
<use x="95.410156" xlink:href="#s"/>
<use x="159.033203" xlink:href="#m"/>
</g>
</g>
<defs>
<clipPath id="a">
<rect width="1570.7" height="826.67"/>
</clipPath>
</defs>
</svg>
