<?xml version="1.0" encoding="UTF-8"?>
<!DOCTYPE svg  PUBLIC '-//W3C//DTD SVG 1.1//EN'  'http://www.w3.org/Graphics/SVG/1.1/DTD/svg11.dtd'>
<svg width="709.33pt" height="373.33pt" version="1.1" viewBox="0 0 709.33 373.33" xmlns="http://www.w3.org/2000/svg" xmlns:xlink="http://www.w3.org/1999/xlink">
<defs>
<style type="text/css">*{stroke-linecap:butt;stroke-linejoin:round;}</style>
</defs>
<path d="m0 373.33h709.33v-373.33h-709.33z" fill="#fff"/>
<g fill="none" stroke="#000">
<path d="m330.36 16.97v68.484" clip-path="url(#a)"/>
<path d="m330.36 85.454-221.35 68.311" clip-path="url(#a)"/>
<path d="m330.36 85.454 54.107 204.11" clip-path="url(#a)"/>
<path d="m330.36 85.454 119.13 204.11" clip-path="url(#a)"/>
<path d="m330.36 85.454-298.12 204.11" clip-path="url(#a)"/>
<path d="m330.36 85.454-281.86 204.11" clip-path="url(#a)"/>
<path d="m330.36 85.454-108.46 204.11" clip-path="url(#a)"/>
<path d="m330.36 85.454-59.69 204.11" clip-path="url(#a)"/>
<path d="m330.36 85.454-5.501 204.11" clip-path="url(#a)"/>
<path d="m330.36 85.454 189.58 204.11" clip-path="url(#a)"/>
<path d="m330.36 85.454 265.44 204.11" clip-path="url(#a)"/>
<path d="m330.36 85.454 346.73 204.11" clip-path="url(#a)"/>
<path d="m109.01 153.76-38.835 68.079" clip-path="url(#a)"/>
<path d="m109.01 153.76 45.157 68.079" clip-path="url(#a)"/>
<path d="m109.01 153.76-6.322 135.8" clip-path="url(#a)"/>
<path d="m384.47 289.57v66.795" clip-path="url(#a)"/>
<path d="m449.5 289.57v66.795" clip-path="url(#a)"/>
<path d="m32.242 289.57v66.795" clip-path="url(#a)"/>
<path d="m70.175 221.84 5.4189 67.724" clip-path="url(#a)"/>
<path d="m70.175 221.84v67.724" clip-path="url(#a)"/>
<path d="m154.17 221.84 24.385 67.724" clip-path="url(#a)"/>
<path d="m154.17 221.84-18.966 67.724" clip-path="url(#a)"/>
<path d="m154.17 221.84 18.966 67.724" clip-path="url(#a)"/>
<path d="m48.499 289.57v66.795" clip-path="url(#a)"/>
<path d="m135.2 289.57v66.795" clip-path="url(#a)"/>
<path d="m173.13 289.57v66.795" clip-path="url(#a)"/>
<path d="m70.175 289.57v66.795" clip-path="url(#a)"/>
<path d="m102.69 289.57v66.795" clip-path="url(#a)"/>
<path d="m221.9 289.57v66.795" clip-path="url(#a)"/>
<path d="m270.67 289.57v66.795" clip-path="url(#a)"/>
<path d="m324.86 289.57v66.795" clip-path="url(#a)"/>
<path d="m519.94 289.57v66.795" clip-path="url(#a)"/>
<path d="m595.81 289.57v66.795" clip-path="url(#a)"/>
<path d="m677.09 289.57v66.795" clip-path="url(#a)"/>
</g>
<path d="m324.09 48.204v6.0162q0 2.4 2.4 2.4h7.7425q2.4 0 2.4-2.4v-6.0162q0-2.4-2.4-2.4h-7.7425q-2.4 0-2.4 2.4z" clip-path="url(#a)" fill="#fff" stroke="#fff"/>
<g clip-path="url(#a)">
<defs>
<path id="r" d="m9.8125 72.906h9.8594v-29.891h35.844v29.891h9.8594v-72.906h-9.8594v34.719h-35.844v-34.719h-9.8594z"/>
</defs>
<g transform="translate(328.16 48.204) rotate(90) scale(.08 -.08)">
<use xlink:href="#r"/>
</g>
</g>
<path d="m218.92 126.41 5.2292-1.6138q2.2933-0.70772 1.5856-3.001l-2.2831-7.3982q-0.70772-2.2933-3.001-1.5856l-5.2292 1.6138q-2.2933 0.70772-1.5856 3.001l2.2831 7.3982q0.70772 2.2933 3.001 1.5856z" clip-path="url(#a)" fill="#fff" stroke="#fff"/>
<g clip-path="url(#a)">
<defs>
<path id="q" d="m34.188 63.188-13.391-36.281h26.812zm-5.5781 9.7188h11.188l27.781-72.906h-10.25l-6.6406 18.703h-32.859l-6.6406-18.703h-10.406z"/>
</defs>
<g transform="translate(217.72 122.53) rotate(-17.151) scale(.08 -.08)">
<use xlink:href="#q"/>
</g>
</g>
<path d="m350.74 186.79 1.236 4.6627q0.61495 2.3199 2.9348 1.7049l7.484-1.9839q2.3199-0.61495 1.7049-2.9348l-1.236-4.6627q-0.61495-2.3199-2.9348-1.7049l-7.484 1.9839q-2.3199 0.61495-1.7049 2.9348z" clip-path="url(#a)" fill="#fff" stroke="#fff"/>
<g clip-path="url(#a)">
<defs>
<path id="p" d="m19.672 64.797v-27.391h12.406q6.8906 0 10.641 3.5625 3.7656 3.5625 3.7656 10.156 0 6.5469-3.7656 10.109-3.75 3.5625-10.641 3.5625zm-9.8594 8.1094h22.266q12.266 0 18.531-5.5469 6.2812-5.5469 6.2812-16.234 0-10.797-6.2812-16.312-6.2656-5.5156-18.531-5.5156h-12.406v-29.297h-9.8594z"/>
</defs>
<g transform="translate(354.67 185.75) rotate(75.153) scale(.08 -.08)">
<use xlink:href="#p"/>
</g>
</g>
<path d="m383.14 188.31 2.7586 4.7264q1.2098 2.0728 3.2826 0.86298l6.6869-3.9028q2.0728-1.2098 0.86298-3.2826l-2.7586-4.7264q-1.2098-2.0728-3.2826-0.86298l-6.6869 3.9028q-2.0728 1.2098-0.86298 3.2826z" clip-path="url(#a)" fill="#fff" stroke="#fff"/>
<g clip-path="url(#a)">
<g transform="translate(386.64 186.26) rotate(59.73) scale(.08 -.08)">
<use xlink:href="#q"/>
</g>
</g>
<path d="m182.43 194.34 4.8311-3.3077q1.9803-1.3559 0.62445-3.3362l-4.3741-6.3886q-1.3559-1.9803-3.3362-0.62445l-4.8311 3.3077q-1.9803 1.3559-0.62445 3.3362l4.3741 6.3886q1.3559 1.9803 3.3362 0.62445z" clip-path="url(#a)" fill="#fff" stroke="#fff"/>
<g clip-path="url(#a)">
<defs>
<path id="n" d="m8.6875 72.906h9.9219v-44.297q0-11.719 4.2344-16.875 4.25-5.1406 13.781-5.1406 9.4688 0 13.719 5.1406 4.25 5.1562 4.25 16.875v44.297h9.9062v-45.516q0-14.25-7.0625-21.531-7.0469-7.2812-20.812-7.2812-13.828 0-20.891 7.2812-7.0469 7.2812-7.0469 21.531z"/>
</defs>
<g transform="translate(180.13 190.99) rotate(-34.398) scale(.08 -.08)">
<use xlink:href="#n"/>
</g>
</g>
<path d="m190.74 194.31 4.7422-3.4341q1.9438-1.4077 0.53619-3.3515l-4.5411-6.2709q-1.4076-1.9438-3.3515-0.53619l-4.7422 3.4341q-1.9438 1.4077-0.53619 3.3515l4.5411 6.2709q1.4076 1.9438 3.3515 0.53619z" clip-path="url(#a)" fill="#fff" stroke="#fff"/>
<g clip-path="url(#a)">
<g transform="translate(188.36 191.02) rotate(-35.911) scale(.08 -.08)">
<use xlink:href="#n"/>
</g>
</g>
<path d="m280.3 193.04 2.7474-5.1704q1.1262-2.1194-0.99321-3.2455l-6.8372-3.6331q-2.1194-1.1262-3.2455 0.99321l-2.7474 5.1704q-1.1262 2.1194 0.99321 3.2455l6.8372 3.6331q2.1194 1.1262 3.2455-0.99321z" clip-path="url(#a)" fill="#fff" stroke="#fff"/>
<g clip-path="url(#a)">
<g transform="translate(276.71 191.13) rotate(-62.015) scale(.08 -.08)">
<use xlink:href="#n"/>
</g>
</g>
<path d="m305.72 192.08 1.6434-5.6196q0.67363-2.3035-1.6299-2.9772l-7.4313-2.1731q-2.3035-0.67363-2.9772 1.6299l-1.6434 5.6196q-0.67363 2.3035 1.6299 2.9772l7.4313 2.1731q2.3035 0.67363 2.9772-1.6299z" clip-path="url(#a)" fill="#fff" stroke="#fff"/>
<g clip-path="url(#a)">
<g transform="translate(301.82 190.94) rotate(-73.699) scale(.08 -.08)">
<use xlink:href="#n"/>
</g>
</g>
<path d="m333.8 190.61 0.15774-5.8529q0.064658-2.3991-2.3345-2.4638l-7.7397-0.20859q-2.3991-0.064658-2.4638 2.3345l-0.15774 5.8529q-0.064658 2.3991 2.3345 2.4638l7.7397 0.20859q2.3991 0.064658 2.4638-2.3345z" clip-path="url(#a)" fill="#fff" stroke="#fff"/>
<g clip-path="url(#a)">
<g transform="translate(329.74 190.5) rotate(-88.456) scale(.08 -.08)">
<use xlink:href="#n"/>
</g>
</g>
<path d="m418.57 189.63 3.9845 4.29q1.6333 1.7585 3.3918 0.12523l5.673-5.269q1.7585-1.6333 0.12523-3.3918l-3.9845-4.29q-1.6333-1.7585-3.3918-0.12523l-5.673 5.269q-1.7585 1.6333-0.12523 3.3918z" clip-path="url(#a)" fill="#fff" stroke="#fff"/>
<g clip-path="url(#a)">
<g transform="translate(421.54 186.87) rotate(47.114) scale(.08 -.08)">
<use xlink:href="#n"/>
</g>
</g>
<path d="m456.94 190.7 4.6414 3.5691q1.9025 1.463 3.3655-0.43957l4.7196-6.1377q1.463-1.9025-0.43957-3.3655l-4.6414-3.5691q-1.9025-1.463-3.3655 0.43957l-4.7196 6.1377q-1.463 1.9025 0.43957 3.3655z" clip-path="url(#a)" fill="#fff" stroke="#fff"/>
<g clip-path="url(#a)">
<g transform="translate(459.42 187.48) rotate(37.559) scale(.08 -.08)">
<use xlink:href="#n"/>
</g>
</g>
<path d="m498.02 191.43 5.0456 2.9703q2.0682 1.2175 3.2858-0.85068l3.9279-6.6722q1.2175-2.0682-0.85068-3.2858l-5.0456-2.9703q-2.0682-1.2175-3.2858 0.85068l-3.9279 6.6722q-1.2175 2.0682 0.85068 3.2858z" clip-path="url(#a)" fill="#fff" stroke="#fff"/>
<g clip-path="url(#a)">
<g transform="translate(500.08 187.93) rotate(30.485) scale(.08 -.08)">
<use xlink:href="#n"/>
</g>
</g>
<path d="m93.549 193.52 2.981-5.2258q1.1892-2.0847-0.89548-3.2739l-6.7252-3.8364q-2.0847-1.1892-3.2739 0.89548l-2.981 5.2258q-1.1892 2.0847 0.89548 3.2739l6.7252 3.8364q2.0847 1.1892 3.2739-0.89548z" clip-path="url(#a)" fill="#fff" stroke="#fff"/>
<g clip-path="url(#a)">
<g transform="translate(90.019 191.51) rotate(-60.298) scale(.08 -.08)">
<use xlink:href="#r"/>
</g>
</g>
<path d="m124.7 188.76 3.3255 5.0136q1.3266 2 3.3266 0.6734l6.4521-4.2797q2-1.3266 0.6734-3.3266l-3.3255-5.0136q-1.3266-2-3.3266-0.6734l-6.4521 4.2797q-2 1.3266-0.6734 3.3266z" clip-path="url(#a)" fill="#fff" stroke="#fff"/>
<g clip-path="url(#a)">
<g transform="translate(128.09 186.52) rotate(56.443) scale(.08 -.08)">
<use xlink:href="#r"/>
</g>
</g>
<path d="m111.98 224.88 0.27227-5.8487q0.1116-2.3974-2.2858-2.509l-7.7341-0.36004q-2.3974-0.11161-2.509 2.2858l-0.27227 5.8487q-0.11161 2.3974 2.2858 2.509l7.7341 0.36004q2.3974 0.11161 2.509-2.2858z" clip-path="url(#a)" fill="#fff" stroke="#fff"/>
<g clip-path="url(#a)">
<g transform="translate(107.92 224.69) rotate(-87.335) scale(.08 -.08)">
<use xlink:href="#n"/>
</g>
</g>
<path d="m378.2 306.06v33.808q0 2.4 2.4 2.4h7.7425q2.4 0 2.4-2.4v-33.808q0-2.4-2.4-2.4h-7.7425q-2.4 0-2.4 2.4z" clip-path="url(#a)" fill="#fff" stroke="#fff"/>
<g clip-path="url(#a)">
<defs>
<path id="f" d="m-0.29688 72.906h61.672v-8.3125h-25.875v-64.594h-9.9062v64.594h-25.891z"/>
<path id="e" d="m56.203 29.594v-4.3906h-41.312q0.59375-9.2812 5.5938-14.141t13.938-4.8594q5.1719 0 10.031 1.2656t9.6562 3.8125v-8.5q-4.8438-2.0469-9.9219-3.125t-10.297-1.0781q-13.094 0-20.734 7.6094-7.6406 7.625-7.6406 20.625 0 13.422 7.25 21.297 7.25 7.8906 19.562 7.8906 11.031 0 17.453-7.1094 6.4219-7.0938 6.4219-19.297zm-8.9844 2.6406q-0.09375 7.3594-4.125 11.75-4.0312 4.4062-10.672 4.4062-7.5156 0-12.031-4.25t-5.2031-11.969z"/>
<path id="j" d="m41.109 46.297q-1.5156 0.875-3.2969 1.2812-1.7812 0.42188-3.9219 0.42188-7.625 0-11.703-4.9531t-4.0781-14.234v-28.812h-9.0312v54.688h9.0312v-8.5q2.8438 4.9844 7.375 7.3906 4.5469 2.4219 11.047 2.4219 0.92188 0 2.0469-0.125 1.125-0.10938 2.4844-0.35938z"/>
<path id="g" d="m52 44.188q3.375 6.0625 8.0625 8.9375t11.031 2.875q8.5469 0 13.188-5.9844 4.6406-5.9688 4.6406-17v-33.016h-9.0312v32.719q0 7.8594-2.7969 11.656-2.7812 3.8125-8.4844 3.8125-6.9844 0-11.047-4.6406-4.0469-4.625-4.0469-12.641v-30.906h-9.0312v32.719q0 7.9062-2.7812 11.688t-8.5938 3.7812q-6.8906 0-10.953-4.6562-4.0469-4.6562-4.0469-12.625v-30.906h-9.0312v54.688h9.0312v-8.5q3.0781 5.0312 7.375 7.4219t10.203 2.3906q5.9688 0 10.141-3.0312 4.1719-3.0156 6.1719-8.7812z"/>
<path id="h" d="m9.4219 54.688h8.9844v-54.688h-8.9844zm0 21.297h8.9844v-11.391h-8.9844z"/>
<path id="k" d="m54.891 33.016v-33.016h-8.9844v32.719q0 7.7656-3.0312 11.609-3.0312 3.8594-9.0781 3.8594-7.2812 0-11.484-4.6406-4.2031-4.625-4.2031-12.641v-30.906h-9.0312v54.688h9.0312v-8.5q3.2344 4.9375 7.5938 7.375 4.375 2.4375 10.094 2.4375 9.4219 0 14.25-5.8281 4.8438-5.8281 4.8438-17.156z"/>
<path id="i" d="m34.281 27.484q-10.891 0-15.094-2.4844t-4.2031-8.5q0-4.7812 3.1562-7.5938 3.1562-2.7969 8.5625-2.7969 7.4844 0 12 5.2969t4.5156 14.078v2zm17.922 3.7188v-31.203h-8.9844v8.2969q-3.0781-4.9688-7.6719-7.3438t-11.234-2.375q-8.3906 0-13.359 4.7188-4.9531 4.7188-4.9531 12.625 0 9.2188 6.1719 13.906 6.1875 4.6875 18.438 4.6875h12.609v0.89062q0 6.2031-4.0781 9.5938t-11.453 3.3906q-4.6875 0-9.1406-1.125-4.4375-1.125-8.5312-3.375v8.3125q4.9219 1.9062 9.5625 2.8438 4.6406 0.95312 9.0312 0.95312 11.875 0 17.734-6.1562 5.8594-6.1406 5.8594-18.641z"/>
<path id="l" d="m9.4219 75.984h8.9844v-75.984h-8.9844z"/>
</defs>
<g transform="translate(382.26 306.06) rotate(90) scale(.08 -.08)">
<use xlink:href="#f"/>
<use x="44.083984" xlink:href="#e"/>
<use x="105.607422" xlink:href="#j"/>
<use x="144.970703" xlink:href="#g"/>
<use x="242.382812" xlink:href="#h"/>
<use x="270.166016" xlink:href="#k"/>
<use x="333.544922" xlink:href="#i"/>
<use x="394.824219" xlink:href="#l"/>
</g>
</g>
<path d="m443.23 306.06v33.808q0 2.4 2.4 2.4h7.7425q2.4 0 2.4-2.4v-33.808q0-2.4-2.4-2.4h-7.7425q-2.4 0-2.4 2.4z" clip-path="url(#a)" fill="#fff" stroke="#fff"/>
<g clip-path="url(#a)">
<g transform="translate(447.29 306.06) rotate(90) scale(.08 -.08)">
<use xlink:href="#f"/>
<use x="44.083984" xlink:href="#e"/>
<use x="105.607422" xlink:href="#j"/>
<use x="144.970703" xlink:href="#g"/>
<use x="242.382812" xlink:href="#h"/>
<use x="270.166016" xlink:href="#k"/>
<use x="333.544922" xlink:href="#i"/>
<use x="394.824219" xlink:href="#l"/>
</g>
</g>
<path d="m25.971 306.06v33.808q0 2.4 2.4 2.4h7.7425q2.4 0 2.4-2.4v-33.808q0-2.4-2.4-2.4h-7.7425q-2.4 0-2.4 2.4z" clip-path="url(#a)" fill="#fff" stroke="#fff"/>
<g clip-path="url(#a)">
<g transform="translate(30.035 306.06) rotate(90) scale(.08 -.08)">
<use xlink:href="#f"/>
<use x="44.083984" xlink:href="#e"/>
<use x="105.607422" xlink:href="#j"/>
<use x="144.970703" xlink:href="#g"/>
<use x="242.382812" xlink:href="#h"/>
<use x="270.166016" xlink:href="#k"/>
<use x="333.544922" xlink:href="#i"/>
<use x="394.824219" xlink:href="#l"/>
</g>
</g>
<path d="m66.415 253.48 0.43648 5.4551q0.19142 2.3924 2.5838 2.2009l7.7178-0.61754q2.3924-0.19142 2.2009-2.5838l-0.43648-5.4551q-0.19142-2.3924-2.5838-2.2009l-7.7178 0.61754q-2.3924 0.19142-2.2009 2.5838z" clip-path="url(#a)" fill="#fff" stroke="#fff"/>
<g clip-path="url(#a)">
<g transform="translate(70.465 253.15) rotate(85.425) scale(.08 -.08)">
<use xlink:href="#q"/>
</g>
</g>
<path d="m63.903 253.29v4.8238q0 2.4 2.4 2.4h7.7425q2.4 0 2.4-2.4v-4.8238q0-2.4-2.4-2.4h-7.7425q-2.4 0-2.4 2.4z" clip-path="url(#a)" fill="#fff" stroke="#fff"/>
<g clip-path="url(#a)">
<g transform="translate(67.967 253.29) rotate(90) scale(.08 -.08)">
<use xlink:href="#p"/>
</g>
</g>
<path d="m159.53 255.26 1.8539 5.1489q0.81305 2.2581 3.0711 1.445l7.2847-2.6229q2.2581-0.81305 1.445-3.0711l-1.8539-5.1489q-0.81305-2.2581-3.0711-1.445l-7.2847 2.6229q-2.2581 0.81305-1.445 3.0711z" clip-path="url(#a)" fill="#fff" stroke="#fff"/>
<g clip-path="url(#a)">
<g transform="translate(163.36 253.88) rotate(70.198) scale(.08 -.08)">
<use xlink:href="#q"/>
</g>
</g>
<path d="m150.07 259.72 1.3008-4.645q0.64722-2.3111-1.6639-2.9583l-7.4557-2.088q-2.3111-0.64722-2.9583 1.6639l-1.3008 4.645q-0.64722 2.3111 1.6639 2.9583l7.4557 2.088q2.3111 0.64722 2.9583-1.6639z" clip-path="url(#a)" fill="#fff" stroke="#fff"/>
<g clip-path="url(#a)">
<g transform="translate(146.16 258.62) rotate(-74.355) scale(.08 -.08)">
<use xlink:href="#p"/>
</g>
</g>
<path d="m156.87 254.76 1.4758 5.2698q0.64722 2.3111 2.9583 1.6639l7.4557-2.088q2.3111-0.64722 1.6639-2.9583l-1.4758-5.2698q-0.64722-2.3111-2.9583-1.6639l-7.4557 2.088q-2.3111 0.64722-1.6639 2.9583z" clip-path="url(#a)" fill="#fff" stroke="#fff"/>
<g clip-path="url(#a)">
<g transform="translate(160.79 253.67) rotate(74.355) scale(.08 -.08)">
<use xlink:href="#q"/>
</g>
</g>
<path d="m42.228 306.06v33.808q0 2.4 2.4 2.4h7.7425q2.4 0 2.4-2.4v-33.808q0-2.4-2.4-2.4h-7.7425q-2.4 0-2.4 2.4z" clip-path="url(#a)" fill="#fff" stroke="#fff"/>
<g clip-path="url(#a)">
<g transform="translate(46.292 306.06) rotate(90) scale(.08 -.08)">
<use xlink:href="#f"/>
<use x="44.083984" xlink:href="#e"/>
<use x="105.607422" xlink:href="#j"/>
<use x="144.970703" xlink:href="#g"/>
<use x="242.382812" xlink:href="#h"/>
<use x="270.166016" xlink:href="#k"/>
<use x="333.544922" xlink:href="#i"/>
<use x="394.824219" xlink:href="#l"/>
</g>
</g>
<path d="m128.93 306.06v33.808q0 2.4 2.4 2.4h7.7425q2.4 0 2.4-2.4v-33.808q0-2.4-2.4-2.4h-7.7425q-2.4 0-2.4 2.4z" clip-path="url(#a)" fill="#fff" stroke="#fff"/>
<g clip-path="url(#a)">
<g transform="translate(132.99 306.06) rotate(90) scale(.08 -.08)">
<use xlink:href="#f"/>
<use x="44.083984" xlink:href="#e"/>
<use x="105.607422" xlink:href="#j"/>
<use x="144.970703" xlink:href="#g"/>
<use x="242.382812" xlink:href="#h"/>
<use x="270.166016" xlink:href="#k"/>
<use x="333.544922" xlink:href="#i"/>
<use x="394.824219" xlink:href="#l"/>
</g>
</g>
<path d="m166.86 306.06v33.808q0 2.4 2.4 2.4h7.7425q2.4 0 2.4-2.4v-33.808q0-2.4-2.4-2.4h-7.7425q-2.4 0-2.4 2.4z" clip-path="url(#a)" fill="#fff" stroke="#fff"/>
<g clip-path="url(#a)">
<g transform="translate(170.93 306.06) rotate(90) scale(.08 -.08)">
<use xlink:href="#f"/>
<use x="44.083984" xlink:href="#e"/>
<use x="105.607422" xlink:href="#j"/>
<use x="144.970703" xlink:href="#g"/>
<use x="242.382812" xlink:href="#h"/>
<use x="270.166016" xlink:href="#k"/>
<use x="333.544922" xlink:href="#i"/>
<use x="394.824219" xlink:href="#l"/>
</g>
</g>
<path d="m63.903 306.06v33.808q0 2.4 2.4 2.4h7.7425q2.4 0 2.4-2.4v-33.808q0-2.4-2.4-2.4h-7.7425q-2.4 0-2.4 2.4z" clip-path="url(#a)" fill="#fff" stroke="#fff"/>
<g clip-path="url(#a)">
<g transform="translate(67.967 306.06) rotate(90) scale(.08 -.08)">
<use xlink:href="#f"/>
<use x="44.083984" xlink:href="#e"/>
<use x="105.607422" xlink:href="#j"/>
<use x="144.970703" xlink:href="#g"/>
<use x="242.382812" xlink:href="#h"/>
<use x="270.166016" xlink:href="#k"/>
<use x="333.544922" xlink:href="#i"/>
<use x="394.824219" xlink:href="#l"/>
</g>
</g>
<path d="m96.417 306.06v33.808q0 2.4 2.4 2.4h7.7425q2.4 0 2.4-2.4v-33.808q0-2.4-2.4-2.4h-7.7425q-2.4 0-2.4 2.4z" clip-path="url(#a)" fill="#fff" stroke="#fff"/>
<g clip-path="url(#a)">
<g transform="translate(100.48 306.06) rotate(90) scale(.08 -.08)">
<use xlink:href="#f"/>
<use x="44.083984" xlink:href="#e"/>
<use x="105.607422" xlink:href="#j"/>
<use x="144.970703" xlink:href="#g"/>
<use x="242.382812" xlink:href="#h"/>
<use x="270.166016" xlink:href="#k"/>
<use x="333.544922" xlink:href="#i"/>
<use x="394.824219" xlink:href="#l"/>
</g>
</g>
<path d="m215.63 306.06v33.808q0 2.4 2.4 2.4h7.7425q2.4 0 2.4-2.4v-33.808q0-2.4-2.4-2.4h-7.7425q-2.4 0-2.4 2.4z" clip-path="url(#a)" fill="#fff" stroke="#fff"/>
<g clip-path="url(#a)">
<g transform="translate(219.7 306.06) rotate(90) scale(.08 -.08)">
<use xlink:href="#f"/>
<use x="44.083984" xlink:href="#e"/>
<use x="105.607422" xlink:href="#j"/>
<use x="144.970703" xlink:href="#g"/>
<use x="242.382812" xlink:href="#h"/>
<use x="270.166016" xlink:href="#k"/>
<use x="333.544922" xlink:href="#i"/>
<use x="394.824219" xlink:href="#l"/>
</g>
</g>
<path d="m264.4 306.06v33.808q0 2.4 2.4 2.4h7.7425q2.4 0 2.4-2.4v-33.808q0-2.4-2.4-2.4h-7.7425q-2.4 0-2.4 2.4z" clip-path="url(#a)" fill="#fff" stroke="#fff"/>
<g clip-path="url(#a)">
<g transform="translate(268.47 306.06) rotate(90) scale(.08 -.08)">
<use xlink:href="#f"/>
<use x="44.083984" xlink:href="#e"/>
<use x="105.607422" xlink:href="#j"/>
<use x="144.970703" xlink:href="#g"/>
<use x="242.382812" xlink:href="#h"/>
<use x="270.166016" xlink:href="#k"/>
<use x="333.544922" xlink:href="#i"/>
<use x="394.824219" xlink:href="#l"/>
</g>
</g>
<path d="m318.59 306.06v33.808q0 2.4 2.4 2.4h7.7425q2.4 0 2.4-2.4v-33.808q0-2.4-2.4-2.4h-7.7425q-2.4 0-2.4 2.4z" clip-path="url(#a)" fill="#fff" stroke="#fff"/>
<g clip-path="url(#a)">
<g transform="translate(322.66 306.06) rotate(90) scale(.08 -.08)">
<use xlink:href="#f"/>
<use x="44.083984" xlink:href="#e"/>
<use x="105.607422" xlink:href="#j"/>
<use x="144.970703" xlink:href="#g"/>
<use x="242.382812" xlink:href="#h"/>
<use x="270.166016" xlink:href="#k"/>
<use x="333.544922" xlink:href="#i"/>
<use x="394.824219" xlink:href="#l"/>
</g>
</g>
<path d="m513.67 306.06v33.808q0 2.4 2.4 2.4h7.7425q2.4 0 2.4-2.4v-33.808q0-2.4-2.4-2.4h-7.7425q-2.4 0-2.4 2.4z" clip-path="url(#a)" fill="#fff" stroke="#fff"/>
<g clip-path="url(#a)">
<g transform="translate(517.74 306.06) rotate(90) scale(.08 -.08)">
<use xlink:href="#f"/>
<use x="44.083984" xlink:href="#e"/>
<use x="105.607422" xlink:href="#j"/>
<use x="144.970703" xlink:href="#g"/>
<use x="242.382812" xlink:href="#h"/>
<use x="270.166016" xlink:href="#k"/>
<use x="333.544922" xlink:href="#i"/>
<use x="394.824219" xlink:href="#l"/>
</g>
</g>
<path d="m589.54 306.06v33.808q0 2.4 2.4 2.4h7.7425q2.4 0 2.4-2.4v-33.808q0-2.4-2.4-2.4h-7.7425q-2.4 0-2.4 2.4z" clip-path="url(#a)" fill="#fff" stroke="#fff"/>
<g clip-path="url(#a)">
<g transform="translate(593.6 306.06) rotate(90) scale(.08 -.08)">
<use xlink:href="#f"/>
<use x="44.083984" xlink:href="#e"/>
<use x="105.607422" xlink:href="#j"/>
<use x="144.970703" xlink:href="#g"/>
<use x="242.382812" xlink:href="#h"/>
<use x="270.166016" xlink:href="#k"/>
<use x="333.544922" xlink:href="#i"/>
<use x="394.824219" xlink:href="#l"/>
</g>
</g>
<path d="m670.82 306.06v33.808q0 2.4 2.4 2.4h7.7425q2.4 0 2.4-2.4v-33.808q0-2.4-2.4-2.4h-7.7425q-2.4 0-2.4 2.4z" clip-path="url(#a)" fill="#fff" stroke="#fff"/>
<g clip-path="url(#a)">
<g transform="translate(674.88 306.06) rotate(90) scale(.08 -.08)">
<use xlink:href="#f"/>
<use x="44.083984" xlink:href="#e"/>
<use x="105.607422" xlink:href="#j"/>
<use x="144.970703" xlink:href="#g"/>
<use x="242.382812" xlink:href="#h"/>
<use x="270.166016" xlink:href="#k"/>
<use x="333.544922" xlink:href="#i"/>
<use x="394.824219" xlink:href="#l"/>
</g>
</g>
<defs>
<path id="b" d="m0 8.6603c2.2967 0 4.4997-0.9125 6.1237-2.5365 1.624-1.624 2.5365-3.827 2.5365-6.1237s-0.9125-4.4997-2.5365-6.1237c-1.624-1.624-3.827-2.5365-6.1237-2.5365s-4.4997 0.9125-6.1237 2.5365c-1.624 1.624-2.5365 3.827-2.5365 6.1237s0.9125 4.4997 2.5365 6.1237c1.624 1.624 3.827 2.5365 6.1237 2.5365z"/>
</defs>
<g clip-path="url(#a)" fill="#ffffff" stroke="#ffffff">
<use x="32.242424" y="356.363636" xlink:href="#b"/>
<use x="48.499109" y="356.363636" xlink:href="#b"/>
<use x="70.174688" y="356.363636" xlink:href="#b"/>
<use x="102.688057" y="356.363636" xlink:href="#b"/>
<use x="135.201426" y="356.363636" xlink:href="#b"/>
<use x="173.13369" y="356.363636" xlink:href="#b"/>
<use x="221.903743" y="356.363636" xlink:href="#b"/>
<use x="270.673797" y="356.363636" xlink:href="#b"/>
<use x="324.862745" y="356.363636" xlink:href="#b"/>
<use x="384.470588" y="356.363636" xlink:href="#b"/>
<use x="449.497326" y="356.363636" xlink:href="#b"/>
<use x="519.942959" y="356.363636" xlink:href="#b"/>
<use x="595.807487" y="356.363636" xlink:href="#b"/>
<use x="677.090909" y="356.363636" xlink:href="#b"/>
<use x="178.552585" y="289.568571" xlink:href="#b"/>
<use x="75.593583" y="289.568571" xlink:href="#b"/>
<use x="330.363744" y="16.969697" xlink:href="#b"/>
<use x="330.363744" y="85.453678" xlink:href="#b"/>
<use x="109.010101" y="153.764847" xlink:href="#b"/>
<use x="384.470588" y="289.568571" xlink:href="#b"/>
<use x="449.497326" y="289.568571" xlink:href="#b"/>
<use x="32.242424" y="289.568571" xlink:href="#b"/>
<use x="70.174688" y="221.844313" xlink:href="#b"/>
<use x="154.167558" y="221.844313" xlink:href="#b"/>
<use x="48.499109" y="289.568571" xlink:href="#b"/>
<use x="135.201426" y="289.568571" xlink:href="#b"/>
<use x="173.13369" y="289.568571" xlink:href="#b"/>
<use x="70.174688" y="289.568571" xlink:href="#b"/>
<use x="102.688057" y="289.568571" xlink:href="#b"/>
<use x="221.903743" y="289.568571" xlink:href="#b"/>
<use x="270.673797" y="289.568571" xlink:href="#b"/>
<use x="324.862745" y="289.568571" xlink:href="#b"/>
<use x="519.942959" y="289.568571" xlink:href="#b"/>
<use x="595.807487" y="289.568571" xlink:href="#b"/>
<use x="677.090909" y="289.568571" xlink:href="#b"/>
</g>
<g clip-path="url(#a)">
<defs>
<path id="ad" d="m4.8906 31.391h26.312v-8h-26.312z"/>
</defs>
<g transform="translate(30.439 359.12) scale(.1 -.1)">
<use xlink:href="#ad"/>
</g>
</g>
<g clip-path="url(#a)">
<defs>
<path id="t" d="m17.922 72.906v-27.109h-8.2969v27.109zm18.453 0v-27.109h-8.2969v27.109z"/>
</defs>
<g transform="translate(46.199 359.12) scale(.1 -.1)">
<use xlink:href="#t"/>
</g>
</g>
<g clip-path="url(#a)">
<defs>
<path id="ag" d="m19.672 34.812v-26.703h15.828q7.9531 0 11.781 3.2969 3.8438 3.2969 3.8438 10.078 0 6.8438-3.8438 10.078-3.8281 3.25-11.781 3.25zm0 29.984v-21.969h14.609q7.2188 0 10.75 2.7031 3.5469 2.7188 3.5469 8.2812 0 5.5156-3.5469 8.25-3.5312 2.7344-10.75 2.7344zm-9.8594 8.1094h25.203q11.281 0 17.375-4.6875 6.1094-4.6875 6.1094-13.328 0-6.7031-3.125-10.656t-9.1875-4.9219q7.2812-1.5625 11.312-6.5312 4.0312-4.9531 4.0312-12.375 0-9.7656-6.6406-15.094-6.6406-5.3125-18.906-5.3125h-26.172z"/>
<path id="u" d="m18.312 70.219v-15.531h18.5v-6.9844h-18.5v-29.688q0-6.6875 1.8281-8.5938t7.4531-1.9062h9.2188v-7.5156h-9.2188q-10.406 0-14.359 3.875-3.9531 3.8906-3.9531 14.141v29.688h-6.5938v6.9844h6.5938v15.531z"/>
</defs>
<g transform="translate(58.358 359.12) scale(.1 -.1)">
<use xlink:href="#ag"/>
<use x="68.603516" xlink:href="#h"/>
<use x="96.386719" xlink:href="#u"/>
<use x="135.595703" xlink:href="#u"/>
<use x="174.804688" xlink:href="#e"/>
</g>
</g>
<g clip-path="url(#a)">
<defs>
<path id="d" d="m10.688 12.406h10.312v-12.406h-10.312z"/>
</defs>
<g transform="translate(97.921 359.12) scale(.1 -.1)">
<use xlink:href="#d"/>
<use x="31.787109" xlink:href="#d"/>
<use x="63.574219" xlink:href="#d"/>
</g>
</g>
<g clip-path="url(#a)">
<defs>
<path id="am" d="m5.5156 54.688h42.672v-8.2031l-33.781-39.312h33.781v-7.1719h-43.891v8.2031l33.797 39.312h-32.578z"/>
<path id="al" d="m34.281 27.484q-10.891 0-15.094-2.4844t-4.2031-8.5q0-4.7812 3.1562-7.5938 3.1562-2.7969 8.5625-2.7969 7.4844 0 12 5.2969t4.5156 14.078v2zm17.922 3.7188v-31.203h-8.9844v8.2969q-3.0781-4.9688-7.6719-7.3438t-11.234-2.375q-8.3906 0-13.359 4.7188-4.9531 4.7188-4.9531 12.625 0 9.2188 6.1719 13.906 6.1875 4.6875 18.438 4.6875h12.609v0.89062q0 6.2031-4.0781 9.5938t-11.453 3.3906q-4.6875 0-9.1406-1.125-4.4375-1.125-8.5312-3.375v8.3125q4.9219 1.9062 9.5625 2.8438 4.6406 0.95312 9.0312 0.95312 11.875 0 17.734-6.1562 5.8594-6.1406 5.8594-18.641zm-18.609 44.578h9.9062v-9.8594h-9.9062zm-19.094 0h9.9062v-9.8594h-9.9062z"/>
<path id="ae" d="m54.891 33.016v-33.016h-8.9844v32.719q0 7.7656-3.0312 11.609-3.0312 3.8594-9.0781 3.8594-7.2812 0-11.484-4.6406-4.2031-4.625-4.2031-12.641v-30.906h-9.0312v75.984h9.0312v-29.797q3.2344 4.9375 7.5938 7.375 4.375 2.4375 10.094 2.4375 9.4219 0 14.25-5.8281 4.8438-5.8281 4.8438-17.156z"/>
</defs>
<g transform="translate(118.4 359.12) scale(.1 -.1)">
<use xlink:href="#am"/>
<use x="52.490234" xlink:href="#al"/>
<use x="113.769531" xlink:href="#ae"/>
<use x="177.148438" xlink:href="#g"/>
<use x="274.560547" xlink:href="#e"/>
</g>
</g>
<g clip-path="url(#a)">
<defs>
<path id="af" d="m48.781 52.594v-8.4062q-3.8125 2.1094-7.6406 3.1562t-7.7344 1.0469q-8.75 0-13.594-5.5469-4.8281-5.5312-4.8281-15.547t4.8281-15.562q4.8438-5.5312 13.594-5.5312 3.9062 0 7.7344 1.0469t7.6406 3.1562v-8.3125q-3.7656-1.75-7.7969-2.625-4.0156-0.89062-8.5625-0.89062-12.359 0-19.641 7.7656-7.2656 7.7656-7.2656 20.953 0 13.375 7.3438 21.031 7.3594 7.6719 20.156 7.6719 4.1406 0 8.0938-0.85938 3.9531-0.84375 7.6719-2.5469z"/>
</defs>
<g transform="translate(160.96 359.12) scale(.1 -.1)">
<use xlink:href="#g"/>
<use x="97.412109" xlink:href="#h"/>
<use x="125.195312" xlink:href="#af"/>
<use x="180.175781" xlink:href="#ae"/>
</g>
</g>
<g clip-path="url(#a)">
<defs>
<path id="ak" d="m15.094 12.406h9.9062v-12.406h-9.9062zm0 60.5h9.9062v-31.984l-0.96875-17.438h-7.9219l-1.0156 17.438z"/>
</defs>
<g transform="translate(219.9 359.12) scale(.1 -.1)">
<use xlink:href="#ak"/>
</g>
</g>
<g clip-path="url(#a)">
<g transform="translate(268.37 359.12) scale(.1 -.1)">
<use xlink:href="#t"/>
</g>
</g>
<g clip-path="url(#a)">
<defs>
<path id="aj" d="m11.719 12.406h10.297v-8.4062l-8-15.625h-6.2969l4 15.625z"/>
</defs>
<g transform="translate(323.27 359.12) scale(.1 -.1)">
<use xlink:href="#aj"/>
</g>
</g>
<g clip-path="url(#a)">
<defs>
<path id="an" d="m44.281 53.078v-8.5q-3.7969 1.9531-7.9062 2.9219-4.0938 0.98438-8.5 0.98438-6.6875 0-10.031-2.0469t-3.3438-6.1562q0-3.125 2.3906-4.9062t9.625-3.3906l3.0781-0.6875q9.5625-2.0469 13.594-5.7812t4.0312-10.422q0-7.625-6.0312-12.078-6.0312-4.4375-16.578-4.4375-4.3906 0-9.1562 0.85938t-10.031 2.5625v9.2812q4.9844-2.5938 9.8125-3.8906 4.8281-1.2812 9.5781-1.2812 6.3438 0 9.75 2.1719 3.4219 2.1719 3.4219 6.125 0 3.6562-2.4688 5.6094-2.4531 1.9531-10.812 3.7656l-3.125 0.73438q-8.3438 1.75-12.062 5.3906-3.7031 3.6406-3.7031 9.9844 0 7.7188 5.4688 11.906 5.4688 4.2031 15.531 4.2031 4.9688 0 9.3594-0.73438 4.4062-0.71875 8.1094-2.1875z"/>
<path id="ao" d="m45.406 27.984q0 9.7656-4.0312 15.125-4.0156 5.375-11.297 5.375-7.2188 0-11.25-5.375-4.0312-5.3594-4.0312-15.125 0-9.7188 4.0312-15.094t11.25-5.375q7.2812 0 11.297 5.375 4.0312 5.375 4.0312 15.094zm8.9844-21.203q0-13.953-6.2031-20.766-6.1875-6.8125-18.984-6.8125-4.7344 0-8.9375 0.70312t-8.1562 2.1719v8.7344q3.9531-2.1406 7.8125-3.1562 3.8594-1.0312 7.8594-1.0312 8.8438 0 13.234 4.6094t4.3906 13.938v4.4531q-2.7812-4.8438-7.125-7.2344t-10.406-2.3906q-10.047 0-16.203 7.6562-6.1562 7.6719-6.1562 20.328 0 12.688 6.1562 20.344 6.1562 7.6719 16.203 7.6719 6.0625 0 10.406-2.3906t7.125-7.2188v8.2969h8.9844z"/>
</defs>
<g transform="translate(370.59 359.12) scale(.1 -.1)">
<use xlink:href="#an"/>
<use x="52.099609" xlink:href="#i"/>
<use x="113.378906" xlink:href="#ao"/>
<use x="176.855469" xlink:href="#u"/>
<use x="216.064453" xlink:href="#e"/>
</g>
</g>
<g clip-path="url(#a)">
<g transform="translate(444.37 359.12) scale(.1 -.1)">
<use xlink:href="#e"/>
<use x="61.523438" xlink:href="#j"/>
</g>
</g>
<g clip-path="url(#a)">
<g transform="translate(518.35 359.12) scale(.1 -.1)">
<use xlink:href="#d"/>
</g>
</g>
<g clip-path="url(#a)">
<g transform="translate(594 359.12) scale(.1 -.1)">
<use xlink:href="#ad"/>
</g>
</g>
<g clip-path="url(#a)">
<g transform="translate(674.79 359.12) scale(.1 -.1)">
<use xlink:href="#t"/>
</g>
</g>
<g clip-path="url(#a)">
<defs>
<path id="o" d="m9.8125 72.906h9.8594v-72.906h-9.8594z"/>
<path id="v" d="m9.8125 72.906h14.703l18.594-49.609 18.703 49.609h14.703v-72.906h-9.625v64.016l-18.797-50h-9.9062l-18.797 50v-64.016h-9.5781z"/>
<path id="w" d="m9.8125 72.906h9.8594v-64.609h35.5v-8.2969h-45.359z"/>
<path id="x" d="m64.406 67.281v-10.391q-4.9844 4.6406-10.625 6.9219-5.6406 2.2969-11.984 2.2969-12.5 0-19.141-7.6406t-6.6406-22.094q0-14.406 6.6406-22.047t19.141-7.6406q6.3438 0 11.984 2.2969t10.625 6.9375v-10.312q-5.1719-3.5156-10.969-5.2812-5.7812-1.75-12.219-1.75-16.562 0-26.094 10.125-9.5156 10.141-9.5156 27.672 0 17.578 9.5156 27.703 9.5312 10.141 26.094 10.141 6.5312 0 12.312-1.7344 5.7969-1.7344 10.875-5.2031z"/>
</defs>
<g transform="translate(157.47 292.33) scale(.1 -.1)">
<use xlink:href="#o"/>
<use x="29.492188" xlink:href="#v"/>
<use x="115.771484" xlink:href="#p"/>
<use x="176.074219" xlink:href="#w"/>
<use x="231.787109" xlink:href="#o"/>
<use x="261.279297" xlink:href="#x"/>
<use x="331.103516" xlink:href="#o"/>
<use x="360.595703" xlink:href="#f"/>
</g>
</g>
<g clip-path="url(#a)">
<g transform="translate(54.508 292.33) scale(.1 -.1)">
<use xlink:href="#o"/>
<use x="29.492188" xlink:href="#v"/>
<use x="115.771484" xlink:href="#p"/>
<use x="176.074219" xlink:href="#w"/>
<use x="231.787109" xlink:href="#o"/>
<use x="261.279297" xlink:href="#x"/>
<use x="331.103516" xlink:href="#o"/>
<use x="360.595703" xlink:href="#f"/>
</g>
</g>
<g clip-path="url(#a)">
<defs>
<path id="c" d="m12.406 8.2969h16.109v55.625l-17.531-3.5156v8.9844l17.438 3.5156h9.8594v-64.609h16.109v-8.2969h-41.984z"/>
</defs>
<g transform="translate(322.41 19.729) scale(.1 -.1)">
<use xlink:href="#c"/>
<use x="63.623047" xlink:href="#d"/>
<use x="95.410156" xlink:href="#c"/>
</g>
</g>
<g clip-path="url(#a)">
<defs>
<path id="m" d="m19.188 8.2969h34.422v-8.2969h-46.281v8.2969q5.6094 5.8125 15.297 15.594 9.7031 9.7969 12.188 12.641 4.7344 5.3125 6.6094 9 1.8906 3.6875 1.8906 7.25 0 5.8125-4.0781 9.4688-4.0781 3.6719-10.625 3.6719-4.6406 0-9.7969-1.6094-5.1406-1.6094-11-4.8906v9.9688q5.9531 2.3906 11.125 3.6094 5.1875 1.2188 9.4844 1.2188 11.328 0 18.062-5.6719 6.7344-5.6562 6.7344-15.125 0-4.5-1.6875-8.5312-1.6719-4.0156-6.125-9.4844-1.2188-1.4219-7.7656-8.1875-6.5312-6.7656-18.453-18.922z"/>
</defs>
<g transform="translate(322.41 88.213) scale(.1 -.1)">
<use xlink:href="#c"/>
<use x="63.623047" xlink:href="#d"/>
<use x="95.410156" xlink:href="#m"/>
</g>
</g>
<g clip-path="url(#a)">
<defs>
<path id="s" d="m31.781 34.625q-7.0312 0-11.062-3.7656-4.0156-3.7656-4.0156-10.344 0-6.5938 4.0156-10.359 4.0312-3.7656 11.062-3.7656t11.078 3.7812q4.0625 3.7969 4.0625 10.344 0 6.5781-4.0312 10.344-4.0156 3.7656-11.109 3.7656zm-9.8594 4.1875q-6.3438 1.5625-9.8906 5.9062-3.5312 4.3594-3.5312 10.609 0 8.7344 6.2188 13.812 6.2344 5.0781 17.062 5.0781 10.891 0 17.094-5.0781t6.2031-13.812q0-6.25-3.5469-10.609-3.5312-4.3438-9.8281-5.9062 7.125-1.6562 11.094-6.5 3.9844-4.8281 3.9844-11.797 0-10.609-6.4688-16.281-6.4688-5.6562-18.531-5.6562-12.047 0-18.531 5.6562-6.4688 5.6719-6.4688 16.281 0 6.9688 4 11.797 4.0156 4.8438 11.141 6.5zm-3.6094 15.578q0-5.6562 3.5312-8.8281 3.5469-3.1719 9.9375-3.1719 6.3594 0 9.9375 3.1719 3.5938 3.1719 3.5938 8.8281 0 5.6719-3.5938 8.8438-3.5781 3.1719-9.9375 3.1719-6.3906 0-9.9375-3.1719-3.5312-3.1719-3.5312-8.8438z"/>
</defs>
<g transform="translate(101.06 156.52) scale(.1 -.1)">
<use xlink:href="#c"/>
<use x="63.623047" xlink:href="#d"/>
<use x="95.410156" xlink:href="#s"/>
</g>
</g>
<g clip-path="url(#a)">
<defs>
<path id="y" d="m10.984 1.5156v8.9844q3.7188-1.7656 7.5156-2.6875 3.8125-0.92188 7.4844-0.92188 9.7656 0 14.906 6.5625 5.1562 6.5625 5.8906 19.953-2.8281-4.2031-7.1875-6.4531-4.3438-2.25-9.6094-2.25-10.938 0-17.312 6.6094-6.375 6.625-6.375 18.109 0 11.219 6.6406 18 6.6406 6.7969 17.672 6.7969 12.656 0 19.312-9.7031 6.6719-9.6875 6.6719-28.141 0-17.234-8.1875-27.516-8.1719-10.281-21.984-10.281-3.7188 0-7.5312 0.73438-3.7969 0.73438-7.9062 2.2031zm19.625 30.906q6.6406 0 10.516 4.5312 3.8906 4.5469 3.8906 12.469 0 7.8594-3.8906 12.422-3.875 4.5625-10.516 4.5625t-10.516-4.5625-3.875-12.422q0-7.9219 3.875-12.469 3.875-4.5312 10.516-4.5312z"/>
</defs>
<g transform="translate(376.52 292.33) scale(.1 -.1)">
<use xlink:href="#c"/>
<use x="63.623047" xlink:href="#d"/>
<use x="95.410156" xlink:href="#y"/>
</g>
</g>
<g clip-path="url(#a)">
<defs>
<path id="ai" d="m31.781 66.406q-7.6094 0-11.453-7.5-3.8281-7.4844-3.8281-22.531 0-14.984 3.8281-22.484 3.8438-7.5 11.453-7.5 7.6719 0 11.5 7.5 3.8438 7.5 3.8438 22.484 0 15.047-3.8438 22.531-3.8281 7.5-11.5 7.5zm0 7.8125q12.266 0 18.734-9.7031 6.4688-9.6875 6.4688-28.141 0-18.406-6.4688-28.109-6.4688-9.6875-18.734-9.6875-12.25 0-18.719 9.6875-6.4688 9.7031-6.4688 28.109 0 18.453 6.4688 28.141 6.4688 9.7031 18.719 9.7031z"/>
</defs>
<g transform="translate(438.36 292.33) scale(.1 -.1)">
<use xlink:href="#c"/>
<use x="63.623047" xlink:href="#d"/>
<use x="95.410156" xlink:href="#c"/>
<use x="159.033203" xlink:href="#ai"/>
</g>
</g>
<g clip-path="url(#a)">
<defs>
<path id="ac" d="m40.578 39.312q7.0781-1.5156 11.047-6.3125 3.9844-4.7812 3.9844-11.812 0-10.781-7.4219-16.703-7.4219-5.9062-21.094-5.9062-4.5781 0-9.4375 0.90625t-10.031 2.7188v9.5156q4.0938-2.3906 8.9688-3.6094 4.8906-1.2188 10.219-1.2188 9.2656 0 14.125 3.6562t4.8594 10.641q0 6.4531-4.5156 10.078-4.5156 3.6406-12.562 3.6406h-8.5v8.1094h8.8906q7.2656 0 11.125 2.9062t3.8594 8.375q0 5.6094-3.9844 8.6094-3.9688 3.0156-11.391 3.0156-4.0625 0-8.7031-0.89062-4.6406-0.875-10.203-2.7188v8.7812q5.625 1.5625 10.531 2.3438t9.25 0.78125q11.234 0 17.766-5.1094 6.5469-5.0938 6.5469-13.781 0-6.0625-3.4688-10.234t-9.8594-5.7812z"/>
</defs>
<g transform="translate(21.11 292.33) scale(.1 -.1)">
<use xlink:href="#c"/>
<use x="63.623047" xlink:href="#d"/>
<use x="95.410156" xlink:href="#c"/>
<use x="159.033203" xlink:href="#ac"/>
</g>
</g>
<g clip-path="url(#a)">
<defs>
<path id="ab" d="m37.797 64.312-24.906-38.922h24.906zm-2.5938 8.5938h12.406v-47.516h10.406v-8.2031h-10.406v-17.188h-9.8125v17.188h-32.906v9.5156z"/>
</defs>
<g transform="translate(59.042 224.6) scale(.1 -.1)">
<use xlink:href="#c"/>
<use x="63.623047" xlink:href="#d"/>
<use x="95.410156" xlink:href="#c"/>
<use x="159.033203" xlink:href="#ab"/>
</g>
</g>
<g clip-path="url(#a)">
<defs>
<path id="aa" d="m10.797 72.906h38.719v-8.3125h-29.688v-17.859q2.1406 0.73438 4.2812 1.0938 2.1562 0.35938 4.3125 0.35938 12.203 0 19.328-6.6875 7.1406-6.6875 7.1406-18.109 0-11.766-7.3281-18.297-7.3281-6.5156-20.656-6.5156-4.5938 0-9.3594 0.78125-4.75 0.78125-9.8281 2.3438v9.9219q4.3906-2.3906 9.0781-3.5625t9.9062-1.1719q8.4531 0 13.375 4.4375 4.9375 4.4375 4.9375 12.062 0 7.6094-4.9375 12.047-4.9219 4.4531-13.375 4.4531-3.9531 0-7.8906-0.875-3.9219-0.875-8.0156-2.7344z"/>
</defs>
<g transform="translate(143.03 224.6) scale(.1 -.1)">
<use xlink:href="#c"/>
<use x="63.623047" xlink:href="#d"/>
<use x="95.410156" xlink:href="#c"/>
<use x="159.033203" xlink:href="#aa"/>
</g>
</g>
<g clip-path="url(#a)">
<defs>
<path id="z" d="m33.016 40.375q-6.6406 0-10.531-4.5469-3.875-4.5312-3.875-12.438 0-7.8594 3.875-12.438 3.8906-4.5625 10.531-4.5625t10.516 4.5625q3.875 4.5781 3.875 12.438 0 7.9062-3.875 12.438-3.875 4.5469-10.516 4.5469zm19.578 30.922v-8.9844q-3.7188 1.75-7.5 2.6719-3.7812 0.9375-7.5 0.9375-9.7656 0-14.922-6.5938-5.1406-6.5938-5.875-19.922 2.875 4.25 7.2188 6.5156 4.3594 2.2656 9.5781 2.2656 10.984 0 17.359-6.6719 6.375-6.6562 6.375-18.125 0-11.234-6.6406-18.031-6.6406-6.7812-17.672-6.7812-12.656 0-19.344 9.6875-6.6875 9.7031-6.6875 28.109 0 17.281 8.2031 27.562t22.016 10.281q3.7188 0 7.5-0.73438t7.8906-2.1875z"/>
</defs>
<g transform="translate(37.366 292.33) scale(.1 -.1)">
<use xlink:href="#c"/>
<use x="63.623047" xlink:href="#d"/>
<use x="95.410156" xlink:href="#c"/>
<use x="159.033203" xlink:href="#z"/>
</g>
</g>
<g clip-path="url(#a)">
<g transform="translate(124.07 292.33) scale(.1 -.1)">
<use xlink:href="#c"/>
<use x="63.623047" xlink:href="#d"/>
<use x="95.410156" xlink:href="#c"/>
<use x="159.033203" xlink:href="#s"/>
</g>
</g>
<g clip-path="url(#a)">
<g transform="translate(162 292.33) scale(.1 -.1)">
<use xlink:href="#c"/>
<use x="63.623047" xlink:href="#d"/>
<use x="95.410156" xlink:href="#c"/>
<use x="159.033203" xlink:href="#y"/>
</g>
</g>
<g clip-path="url(#a)">
<g transform="translate(59.042 292.33) scale(.1 -.1)">
<use xlink:href="#c"/>
<use x="63.623047" xlink:href="#d"/>
<use x="95.410156" xlink:href="#m"/>
<use x="159.033203" xlink:href="#c"/>
</g>
</g>
<g clip-path="url(#a)">
<g transform="translate(91.555 292.33) scale(.1 -.1)">
<use xlink:href="#c"/>
<use x="63.623047" xlink:href="#d"/>
<use x="95.410156" xlink:href="#m"/>
<use x="159.033203" xlink:href="#m"/>
</g>
</g>
<g clip-path="url(#a)">
<g transform="translate(210.77 292.33) scale(.1 -.1)">
<use xlink:href="#c"/>
<use x="63.623047" xlink:href="#d"/>
<use x="95.410156" xlink:href="#m"/>
<use x="159.033203" xlink:href="#ac"/>
</g>
</g>
<g clip-path="url(#a)">
<g transform="translate(259.54 292.33) scale(.1 -.1)">
<use xlink:href="#c"/>
<use x="63.623047" xlink:href="#d"/>
<use x="95.410156" xlink:href="#m"/>
<use x="159.033203" xlink:href="#ab"/>
</g>
</g>
<g clip-path="url(#a)">
<g transform="translate(313.73 292.33) scale(.1 -.1)">
<use xlink:href="#c"/>
<use x="63.623047" xlink:href="#d"/>
<use x="95.410156" xlink:href="#m"/>
<use x="159.033203" xlink:href="#aa"/>
</g>
</g>
<g clip-path="url(#a)">
<g transform="translate(508.81 292.33) scale(.1 -.1)">
<use xlink:href="#c"/>
<use x="63.623047" xlink:href="#d"/>
<use x="95.410156" xlink:href="#m"/>
<use x="159.033203" xlink:href="#z"/>
</g>
</g>
<g clip-path="url(#a)">
<defs>
<path id="ah" d="m8.2031 72.906h46.875v-4.2031l-26.469-68.703h-10.297l24.906 64.594h-35.016z"/>
</defs>
<g transform="translate(584.67 292.33) scale(.1 -.1)">
<use xlink:href="#c"/>
<use x="63.623047" xlink:href="#d"/>
<use x="95.410156" xlink:href="#m"/>
<use x="159.033203" xlink:href="#ah"/>
</g>
</g>
<g clip-path="url(#a)">
<g transform="translate(665.96 292.33) scale(.1 -.1)">
<use xlink:href="#c"/>
<use x="63.623047" xlink:href="#d"/>
<use x="95.410156" xlink:href="#m"/>
<use x="159.033203" xlink:href="#s"/>
</g>
</g>
<defs>
<clipPath id="a">
<rect width="709.33" height="373.33"/>
</clipPath>
</defs>
</svg>
