<?xml version="1.0" encoding="UTF-8"?>
<!DOCTYPE svg  PUBLIC '-//W3C//DTD SVG 1.1//EN'  'http://www.w3.org/Graphics/SVG/1.1/DTD/svg11.dtd'>
<svg width="1520pt" height="800pt" version="1.1" viewBox="0 0 1520 800" xmlns="http://www.w3.org/2000/svg" xmlns:xlink="http://www.w3.org/1999/xlink">
<defs>
<style type="text/css">*{stroke-linecap:butt;stroke-linejoin:round;}</style>
</defs>
<path d="m0 800h1520v-800h-1520z" fill="#fff"/>
<g fill="none" stroke="#000">
<path d="m255.22 36.364v122.32" clip-path="url(#a)"/>
<path d="m255.22 158.68 360.75 122.07" clip-path="url(#a)"/>
<path d="m255.22 158.68-93.638 485.9" clip-path="url(#a)"/>
<path d="m255.22 158.68-39.449 365.18" clip-path="url(#a)"/>
<path d="m255.22 158.68-135.68 485.9" clip-path="url(#a)"/>
<path d="m255.22 158.68-116.06 485.9" clip-path="url(#a)"/>
<path d="m255.22 158.68 24.083 485.9" clip-path="url(#a)"/>
<path d="m615.97 280.75-531.46 243.11" clip-path="url(#a)"/>
<path d="m615.97 280.75-300.22 363.83" clip-path="url(#a)"/>
<path d="m615.97 280.75-176.55 121.76" clip-path="url(#a)"/>
<path d="m615.97 280.75 124.41 121.76" clip-path="url(#a)"/>
<path d="m615.97 280.75 285.58 363.83" clip-path="url(#a)"/>
<path d="m615.97 280.75 620.99 121.76" clip-path="url(#a)"/>
<path d="m615.97 280.75-22.74 363.83" clip-path="url(#a)"/>
<path d="m161.59 644.58v119.06" clip-path="url(#a)"/>
<path d="m215.77 523.86-28.963 120.72" clip-path="url(#a)"/>
<path d="m215.77 523.86-0.93429 120.72" clip-path="url(#a)"/>
<path d="m215.77 523.86 29.897 120.72" clip-path="url(#a)"/>
<path d="m186.81 644.58v119.06" clip-path="url(#a)"/>
<path d="m214.84 644.58v119.06" clip-path="url(#a)"/>
<path d="m245.67 644.58v119.06" clip-path="url(#a)"/>
<path d="m84.507 523.86-15.416 120.72" clip-path="url(#a)"/>
<path d="m84.507 523.86-7.0072 120.72" clip-path="url(#a)"/>
<path d="m84.507 523.86 4.2043 120.72" clip-path="url(#a)"/>
<path d="m84.507 523.86 18.219 120.72" clip-path="url(#a)"/>
<path d="m315.74 644.58v119.06" clip-path="url(#a)"/>
<path d="m439.42 402.51-84.437 242.06" clip-path="url(#a)"/>
<path d="m439.42 402.51-42.394 242.06" clip-path="url(#a)"/>
<path d="m439.42 402.51 26.277 121.35" clip-path="url(#a)"/>
<path d="m439.42 402.51 100.55 242.06" clip-path="url(#a)"/>
<path d="m740.38 402.51-91.093 242.06" clip-path="url(#a)"/>
<path d="m740.38 402.51-32.233 242.06" clip-path="url(#a)"/>
<path d="m740.38 402.51 29.43 121.35" clip-path="url(#a)"/>
<path d="m740.38 402.51 93.896 242.06" clip-path="url(#a)"/>
<path d="m901.55 644.58v119.06" clip-path="url(#a)"/>
<path d="m1237 402.51-228.9 121.35" clip-path="url(#a)"/>
<path d="m1237 402.51-116.79 242.06" clip-path="url(#a)"/>
<path d="m1237 402.51-38.306 242.06" clip-path="url(#a)"/>
<path d="m1237 402.51 42.977 242.06" clip-path="url(#a)"/>
<path d="m1237 402.51 127.06 242.06" clip-path="url(#a)"/>
<path d="m1237 402.51 213.95 242.06" clip-path="url(#a)"/>
<path d="m1008.1 523.86-36.437 120.72" clip-path="url(#a)"/>
<path d="m1008.1 523.86 36.437 120.72" clip-path="url(#a)"/>
<path d="m1120.2 644.58v119.06" clip-path="url(#a)"/>
<path d="m971.62 644.58v119.06" clip-path="url(#a)"/>
<path d="m1044.5 644.58v119.06" clip-path="url(#a)"/>
<path d="m649.29 644.58v119.06" clip-path="url(#a)"/>
<path d="m708.15 644.58v119.06" clip-path="url(#a)"/>
<path d="m769.81 523.86v120.72" clip-path="url(#a)"/>
<path d="m834.28 644.58v119.06" clip-path="url(#a)"/>
<path d="m769.81 644.58v119.06" clip-path="url(#a)"/>
<path d="m354.98 644.58v119.06" clip-path="url(#a)"/>
<path d="m397.03 644.58v119.06" clip-path="url(#a)"/>
<path d="m465.7 523.86-23.824 120.72" clip-path="url(#a)"/>
<path d="m465.7 523.86 23.824 120.72" clip-path="url(#a)"/>
<path d="m539.97 644.58v119.06" clip-path="url(#a)"/>
<path d="m441.87 644.58v119.06" clip-path="url(#a)"/>
<path d="m489.52 644.58v119.06" clip-path="url(#a)"/>
<path d="m69.091 644.58v119.06" clip-path="url(#a)"/>
<path d="m77.5 644.58v119.06" clip-path="url(#a)"/>
<path d="m88.711 644.58v119.06" clip-path="url(#a)"/>
<path d="m102.73 644.58v119.06" clip-path="url(#a)"/>
<path d="m119.54 644.58v119.06" clip-path="url(#a)"/>
<path d="m139.16 644.58v119.06" clip-path="url(#a)"/>
<path d="m279.31 644.58v119.06" clip-path="url(#a)"/>
<path d="m593.23 644.58v119.06" clip-path="url(#a)"/>
<path d="m1198.7 644.58v119.06" clip-path="url(#a)"/>
<path d="m1279.9 644.58v119.06" clip-path="url(#a)"/>
<path d="m1364 644.58v119.06" clip-path="url(#a)"/>
<path d="m1450.9 644.58v119.06" clip-path="url(#a)"/>
</g>
<path d="m248.95 94.514v6.0162q0 2.4 2.4 2.4h7.7425q2.4 0 2.4-2.4v-6.0162q0-2.4-2.4-2.4h-7.7425q-2.4 0-2.4 2.4z" clip-path="url(#a)" fill="#fff" stroke="#fff"/>
<g clip-path="url(#a)">
<defs>
<path id="u" d="m9.8125 72.906h9.8594v-29.891h35.844v29.891h9.8594v-72.906h-9.8594v34.719h-35.844v-34.719h-9.8594z"/>
</defs>
<g transform="translate(253.02 94.514) rotate(90) scale(.08 -.08)">
<use xlink:href="#u"/>
</g>
</g>
<path d="m430.99 224.78 5.1838 1.7541q2.2734 0.76927 3.0426-1.5041l2.4817-7.334q0.76927-2.2734-1.5041-3.0426l-5.1838-1.7541q-2.2734-0.76927-3.0426 1.5041l-2.4817 7.334q-0.76927 2.2734 1.5041 3.0426z" clip-path="url(#a)" fill="#fff" stroke="#fff"/>
<g clip-path="url(#a)">
<defs>
<path id="p" d="m34.188 63.188-13.391-36.281h26.812zm-5.5781 9.7188h11.188l27.781-72.906h-10.25l-6.6406 18.703h-32.859l-6.6406-18.703h-10.406z"/>
</defs>
<g transform="translate(432.3 220.93) rotate(18.695) scale(.08 -.08)">
<use xlink:href="#p"/>
</g>
</g>
<path d="m214.11 405.18 0.9128-4.7366q0.45415-2.3566-1.9025-2.8108l-7.6026-1.4651q-2.3566-0.45415-2.8108 1.9025l-0.9128 4.7366q-0.45415 2.3566 1.9025 2.8108l7.6026 1.4651q2.3566 0.45415 2.8108-1.9025z" clip-path="url(#a)" fill="#fff" stroke="#fff"/>
<g clip-path="url(#a)">
<defs>
<path id="ad" d="m19.672 64.797v-27.391h12.406q6.8906 0 10.641 3.5625 3.7656 3.5625 3.7656 10.156 0 6.5469-3.7656 10.109-3.75 3.5625-10.641 3.5625zm-9.8594 8.1094h22.266q12.266 0 18.531-5.5469 6.2812-5.5469 6.2812-16.234 0-10.797-6.2812-16.312-6.2656-5.5156-18.531-5.5156h-12.406v-29.297h-9.8594z"/>
</defs>
<g transform="translate(210.12 404.41) rotate(-79.092) scale(.08 -.08)">
<use xlink:href="#ad"/>
</g>
</g>
<path d="m241.44 344.66 0.58775-5.4408q0.25776-2.3861-2.1284-2.6439l-7.6977-0.83155q-2.3861-0.25776-2.6439 2.1284l-0.58775 5.4408q-0.25776 2.3861 2.1284 2.6439l7.6977 0.83155q2.3861 0.25776 2.6439-2.1284z" clip-path="url(#a)" fill="#fff" stroke="#fff"/>
<g clip-path="url(#a)">
<g transform="translate(237.4 344.23) rotate(-83.835) scale(.08 -.08)">
<use xlink:href="#p"/>
</g>
</g>
<path d="m192.64 406.13 1.5747-5.6393q0.64548-2.3116-1.6661-2.957l-7.4572-2.0823q-2.3116-0.64548-2.957 1.6661l-1.5747 5.6393q-0.64548 2.3116 1.6661 2.957l7.4572 2.0823q2.3116 0.64548 2.957-1.6661z" clip-path="url(#a)" fill="#fff" stroke="#fff"/>
<g clip-path="url(#a)">
<defs>
<path id="q" d="m8.6875 72.906h9.9219v-44.297q0-11.719 4.2344-16.875 4.25-5.1406 13.781-5.1406 9.4688 0 13.719 5.1406 4.25 5.1562 4.25 16.875v44.297h9.9062v-45.516q0-14.25-7.0625-21.531-7.0469-7.2812-20.812-7.2812-13.828 0-20.891 7.2812-7.0469 7.2812-7.0469 21.531z"/>
</defs>
<g transform="translate(188.72 405.04) rotate(-74.398) scale(.08 -.08)">
<use xlink:href="#q"/>
</g>
</g>
<path d="m202.61 405.93 1.3603-5.6948q0.55758-2.3343-1.7768-2.8919l-7.5307-1.7988q-2.3343-0.55758-2.8919 1.7768l-1.3603 5.6948q-0.55758 2.3343 1.7768 2.8919l7.5307 1.7988q2.3343 0.55758 2.8919-1.7768z" clip-path="url(#a)" fill="#fff" stroke="#fff"/>
<g clip-path="url(#a)">
<g transform="translate(198.66 404.99) rotate(-76.566) scale(.08 -.08)">
<use xlink:href="#q"/>
</g>
</g>
<path d="m260.86 399.01 0.28984 5.8478q0.11881 2.3971 2.5159 2.2782l7.733-0.38328q2.3971-0.11881 2.2782-2.5159l-0.28984-5.8478q-0.11881-2.3971-2.5159-2.2782l-7.733 0.38328q-2.3971 0.11881-2.2782 2.5159z" clip-path="url(#a)" fill="#fff" stroke="#fff"/>
<g clip-path="url(#a)">
<g transform="translate(264.92 398.81) rotate(87.163) scale(.08 -.08)">
<use xlink:href="#q"/>
</g>
</g>
<path d="m350.11 409.26 5.471-2.5027q2.1825-0.99836 1.1841-3.1809l-3.2207-7.0408q-0.99836-2.1825-3.1809-1.1841l-5.471 2.5027q-2.1825 0.99836-1.1841 3.1809l3.2207 7.0408q0.99836 2.1825 3.1809 1.1841z" clip-path="url(#a)" fill="#fff" stroke="#fff"/>
<g clip-path="url(#a)">
<g transform="translate(348.42 405.56) rotate(-24.581) scale(.08 -.08)">
<use xlink:href="#u"/>
</g>
</g>
<path d="m469.27 468.37 2.8371-3.4381q1.5275-1.8511-0.3236-3.3787l-5.9718-4.9279q-1.8511-1.5275-3.3787 0.3236l-2.8371 3.4381q-1.5275 1.8511 0.3236 3.3787l5.9718 4.9279q1.8511 1.5275 3.3786-0.3236z" clip-path="url(#a)" fill="#fff" stroke="#fff"/>
<g clip-path="url(#a)">
<defs>
<path id="ak" d="m9.8125 72.906h9.8594v-64.609h35.5v-8.2969h-45.359z"/>
</defs>
<g transform="translate(466.14 465.79) rotate(-50.471) scale(.08 -.08)">
<use xlink:href="#ak"/>
</g>
</g>
<path d="m528.78 348.5 4.9526-3.4157q1.9757-1.3626 0.61309-3.3383l-4.3958-6.3736q-1.3626-1.9757-3.3383-0.61309l-4.9526 3.4157q-1.9757 1.3626-0.61309 3.3383l4.3958 6.3736q1.3626 1.9757 3.3383 0.61309z" clip-path="url(#a)" fill="#fff" stroke="#fff"/>
<g clip-path="url(#a)">
<g transform="translate(526.47 345.16) rotate(-34.593) scale(.08 -.08)">
<use xlink:href="#u"/>
</g>
</g>
<path d="m671.64 344.01 4.2997 4.2081q1.7152 1.6787 3.3939-0.036521l5.4155-5.5334q1.6787-1.7152-0.036521-3.3939l-4.2997-4.2081q-1.7152-1.6787-3.3939 0.036521l-5.4155 5.5334q-1.6787 1.7152 0.036521 3.3939z" clip-path="url(#a)" fill="#fff" stroke="#fff"/>
<g clip-path="url(#a)">
<g transform="translate(674.48 341.1) rotate(44.383) scale(.08 -.08)">
<use xlink:href="#u"/>
</g>
</g>
<path d="m752.45 464.78 2.7522 3.5064q1.4818 1.8879 3.3697 0.40604l6.0904-4.7805q1.8879-1.4818 0.40604-3.3697l-2.7522-3.5064q-1.4818-1.8879-3.3697-0.40604l-6.0904 4.7805q-1.8879 1.4818-0.40604 3.3697z" clip-path="url(#a)" fill="#fff" stroke="#fff"/>
<g clip-path="url(#a)">
<g transform="translate(755.64 462.27) rotate(51.871) scale(.08 -.08)">
<use xlink:href="#ak"/>
</g>
</g>
<path d="m922.3 347.21 5.9038 1.1576q2.3552 0.46179 2.8169-1.8934l1.4898-7.5978q0.46179-2.3552-1.8934-2.8169l-5.9038-1.1576q-2.3552-0.46179-2.8169 1.8934l-1.4898 7.5978q-0.46179 2.3552 1.8934 2.8169z" clip-path="url(#a)" fill="#fff" stroke="#fff"/>
<g clip-path="url(#a)">
<g transform="translate(923.09 343.22) rotate(11.094) scale(.08 -.08)">
<use xlink:href="#u"/>
</g>
</g>
<path d="m610.68 465.98 0.36524-5.8436q0.14971-2.3953-2.2456-2.545l-7.7274-0.48298q-2.3953-0.14971-2.545 2.2456l-0.36524 5.8436q-0.14971 2.3953 2.2456 2.545l7.7274 0.48298q2.3953 0.14971 2.545-2.2456z" clip-path="url(#a)" fill="#fff" stroke="#fff"/>
<g clip-path="url(#a)">
<g transform="translate(606.62 465.72) rotate(-86.424) scale(.08 -.08)">
<use xlink:href="#q"/>
</g>
</g>
<path d="m155.31 687.2v33.808q0 2.4 2.4 2.4h7.7425q2.4 0 2.4-2.4v-33.808q0-2.4-2.4-2.4h-7.7425q-2.4 0-2.4 2.4z" clip-path="url(#a)" fill="#fff" stroke="#fff"/>
<g clip-path="url(#a)">
<defs>
<path id="l" d="m-0.29688 72.906h61.672v-8.3125h-25.875v-64.594h-9.9062v64.594h-25.891z"/>
<path id="d" d="m56.203 29.594v-4.3906h-41.312q0.59375-9.2812 5.5938-14.141t13.938-4.8594q5.1719 0 10.031 1.2656t9.6562 3.8125v-8.5q-4.8438-2.0469-9.9219-3.125t-10.297-1.0781q-13.094 0-20.734 7.6094-7.6406 7.625-7.6406 20.625 0 13.422 7.25 21.297 7.25 7.8906 19.562 7.8906 11.031 0 17.453-7.1094 6.4219-7.0938 6.4219-19.297zm-8.9844 2.6406q-0.09375 7.3594-4.125 11.75-4.0312 4.4062-10.672 4.4062-7.5156 0-12.031-4.25t-5.2031-11.969z"/>
<path id="h" d="m41.109 46.297q-1.5156 0.875-3.2969 1.2812-1.7812 0.42188-3.9219 0.42188-7.625 0-11.703-4.9531t-4.0781-14.234v-28.812h-9.0312v54.688h9.0312v-8.5q2.8438 4.9844 7.375 7.3906 4.5469 2.4219 11.047 2.4219 0.92188 0 2.0469-0.125 1.125-0.10938 2.4844-0.35938z"/>
<path id="k" d="m52 44.188q3.375 6.0625 8.0625 8.9375t11.031 2.875q8.5469 0 13.188-5.9844 4.6406-5.9688 4.6406-17v-33.016h-9.0312v32.719q0 7.8594-2.7969 11.656-2.7812 3.8125-8.4844 3.8125-6.9844 0-11.047-4.6406-4.0469-4.625-4.0469-12.641v-30.906h-9.0312v32.719q0 7.9062-2.7812 11.688t-8.5938 3.7812q-6.8906 0-10.953-4.6562-4.0469-4.6562-4.0469-12.625v-30.906h-9.0312v54.688h9.0312v-8.5q3.0781 5.0312 7.375 7.4219t10.203 2.3906q5.9688 0 10.141-3.0312 4.1719-3.0156 6.1719-8.7812z"/>
<path id="g" d="m9.4219 54.688h8.9844v-54.688h-8.9844zm0 21.297h8.9844v-11.391h-8.9844z"/>
<path id="e" d="m54.891 33.016v-33.016h-8.9844v32.719q0 7.7656-3.0312 11.609-3.0312 3.8594-9.0781 3.8594-7.2812 0-11.484-4.6406-4.2031-4.625-4.2031-12.641v-30.906h-9.0312v54.688h9.0312v-8.5q3.2344 4.9375 7.5938 7.375 4.375 2.4375 10.094 2.4375 9.4219 0 14.25-5.8281 4.8438-5.8281 4.8438-17.156z"/>
<path id="i" d="m34.281 27.484q-10.891 0-15.094-2.4844t-4.2031-8.5q0-4.7812 3.1562-7.5938 3.1562-2.7969 8.5625-2.7969 7.4844 0 12 5.2969t4.5156 14.078v2zm17.922 3.7188v-31.203h-8.9844v8.2969q-3.0781-4.9688-7.6719-7.3438t-11.234-2.375q-8.3906 0-13.359 4.7188-4.9531 4.7188-4.9531 12.625 0 9.2188 6.1719 13.906 6.1875 4.6875 18.438 4.6875h12.609v0.89062q0 6.2031-4.0781 9.5938t-11.453 3.3906q-4.6875 0-9.1406-1.125-4.4375-1.125-8.5312-3.375v8.3125q4.9219 1.9062 9.5625 2.8438 4.6406 0.95312 9.0312 0.95312 11.875 0 17.734-6.1562 5.8594-6.1406 5.8594-18.641z"/>
<path id="j" d="m9.4219 75.984h8.9844v-75.984h-8.9844z"/>
</defs>
<g transform="translate(159.38 687.2) rotate(90) scale(.08 -.08)">
<use xlink:href="#l"/>
<use x="44.083984" xlink:href="#d"/>
<use x="105.607422" xlink:href="#h"/>
<use x="144.970703" xlink:href="#k"/>
<use x="242.382812" xlink:href="#g"/>
<use x="270.166016" xlink:href="#e"/>
<use x="333.544922" xlink:href="#i"/>
<use x="394.824219" xlink:href="#j"/>
</g>
</g>
<path d="m206.85 587.92 1.0735-4.4743q0.55994-2.3338-1.7738-2.8937l-7.5288-1.8064q-2.3338-0.55994-2.8937 1.7738l-1.0735 4.4743q-0.55994 2.3338 1.7738 2.8937l7.5288 1.8064q2.3338 0.55994 2.8937-1.7738z" clip-path="url(#a)" fill="#fff" stroke="#fff"/>
<g clip-path="url(#a)">
<defs>
<path id="al" d="m9.8125 72.906h41.891v-8.3125h-32.031v-21.484h28.906v-8.2969h-28.906v-34.812h-9.8594z"/>
</defs>
<g transform="translate(202.9 586.97) rotate(-76.508) scale(.08 -.08)">
<use xlink:href="#al"/>
</g>
</g>
<path d="m221.56 586.79 0.039123-5.0548q0.018574-2.3999-2.3814-2.4185l-7.7423-0.059922q-2.3999-0.018575-2.4185 2.3814l-0.039122 5.0548q-0.018575 2.3999 2.3814 2.4185l7.7423 0.059922q2.3999 0.018574 2.4185-2.3814z" clip-path="url(#a)" fill="#fff" stroke="#fff"/>
<g clip-path="url(#a)">
<defs>
<path id="am" d="m9.8125 72.906h46.094v-8.3125h-36.234v-21.578h34.719v-8.2969h-34.719v-26.422h37.109v-8.2969h-46.969z"/>
</defs>
<g transform="translate(217.5 586.76) rotate(-89.557) scale(.08 -.08)">
<use xlink:href="#am"/>
</g>
</g>
<path d="m223.96 583.02 1.343 5.4224q0.57697 2.3296 2.9066 1.7526l7.5154-1.8613q2.3296-0.57697 1.7526-2.9066l-1.343-5.4224q-0.57697-2.3296-2.9066-1.7526l-7.5154 1.8613q-2.3296 0.57697-1.7526 2.9066z" clip-path="url(#a)" fill="#fff" stroke="#fff"/>
<g clip-path="url(#a)">
<defs>
<path id="ae" d="m64.406 67.281v-10.391q-4.9844 4.6406-10.625 6.9219-5.6406 2.2969-11.984 2.2969-12.5 0-19.141-7.6406t-6.6406-22.094q0-14.406 6.6406-22.047t19.141-7.6406q6.3438 0 11.984 2.2969t10.625 6.9375v-10.312q-5.1719-3.5156-10.969-5.2812-5.7812-1.75-12.219-1.75-16.562 0-26.094 10.125-9.5156 10.141-9.5156 27.672 0 17.578 9.5156 27.703 9.5312 10.141 26.094 10.141 6.5312 0 12.312-1.7344 5.7969-1.7344 10.875-5.2031z"/>
</defs>
<g transform="translate(227.91 582.04) rotate(76.09) scale(.08 -.08)">
<use xlink:href="#ae"/>
</g>
</g>
<path d="m180.54 687.2v33.808q0 2.4 2.4 2.4h7.7425q2.4 0 2.4-2.4v-33.808q0-2.4-2.4-2.4h-7.7425q-2.4 0-2.4 2.4z" clip-path="url(#a)" fill="#fff" stroke="#fff"/>
<g clip-path="url(#a)">
<g transform="translate(184.6 687.2) rotate(90) scale(.08 -.08)">
<use xlink:href="#l"/>
<use x="44.083984" xlink:href="#d"/>
<use x="105.607422" xlink:href="#h"/>
<use x="144.970703" xlink:href="#k"/>
<use x="242.382812" xlink:href="#g"/>
<use x="270.166016" xlink:href="#e"/>
<use x="333.544922" xlink:href="#i"/>
<use x="394.824219" xlink:href="#j"/>
</g>
</g>
<path d="m208.57 687.2v33.808q0 2.4 2.4 2.4h7.7425q2.4 0 2.4-2.4v-33.808q0-2.4-2.4-2.4h-7.7425q-2.4 0-2.4 2.4z" clip-path="url(#a)" fill="#fff" stroke="#fff"/>
<g clip-path="url(#a)">
<g transform="translate(212.63 687.2) rotate(90) scale(.08 -.08)">
<use xlink:href="#l"/>
<use x="44.083984" xlink:href="#d"/>
<use x="105.607422" xlink:href="#h"/>
<use x="144.970703" xlink:href="#k"/>
<use x="242.382812" xlink:href="#g"/>
<use x="270.166016" xlink:href="#e"/>
<use x="333.544922" xlink:href="#i"/>
<use x="394.824219" xlink:href="#j"/>
</g>
</g>
<path d="m239.4 687.2v33.808q0 2.4 2.4 2.4h7.7425q2.4 0 2.4-2.4v-33.808q0-2.4-2.4-2.4h-7.7425q-2.4 0-2.4 2.4z" clip-path="url(#a)" fill="#fff" stroke="#fff"/>
<g clip-path="url(#a)">
<g transform="translate(243.46 687.2) rotate(90) scale(.08 -.08)">
<use xlink:href="#l"/>
<use x="44.083984" xlink:href="#d"/>
<use x="105.607422" xlink:href="#h"/>
<use x="144.970703" xlink:href="#k"/>
<use x="242.382812" xlink:href="#g"/>
<use x="270.166016" xlink:href="#e"/>
<use x="333.544922" xlink:href="#i"/>
<use x="394.824219" xlink:href="#j"/>
</g>
</g>
<path d="m82.673 587.73 0.69323-5.4284q0.30402-2.3807-2.0766-2.6847l-7.6801-0.98078q-2.3807-0.30402-2.6847 2.0766l-0.69323 5.4284q-0.30402 2.3807 2.0766 2.6847l7.6801 0.98078q2.3807 0.30402 2.6847-2.0766z" clip-path="url(#a)" fill="#fff" stroke="#fff"/>
<g clip-path="url(#a)">
<g transform="translate(78.642 587.21) rotate(-82.723) scale(.08 -.08)">
<use xlink:href="#p"/>
</g>
</g>
<path d="m87.117 587.12 0.29431-5.0702q0.13908-2.396-2.2569-2.535l-7.7295-0.44867q-2.396-0.13908-2.535 2.2569l-0.29431 5.0702q-0.13908 2.396 2.2569 2.535l7.7295 0.44867q2.396 0.13908 2.535-2.2569z" clip-path="url(#a)" fill="#fff" stroke="#fff"/>
<g clip-path="url(#a)">
<defs>
<path id="z" d="m53.516 70.516v-9.625q-5.6094 2.6875-10.594 4-4.9844 1.3281-9.625 1.3281-8.0469 0-12.422-3.125t-4.375-8.8906q0-4.8438 2.9062-7.3125 2.9062-2.4531 11.016-3.9688l5.9531-1.2188q11.031-2.1094 16.281-7.4062t5.25-14.172q0-10.609-7.1094-16.078-7.0938-5.4688-20.812-5.4688-5.1719 0-11.016 1.1719-5.8281 1.1719-12.078 3.4688v10.156q6-3.3594 11.766-5.0781 5.7656-1.7031 11.328-1.7031 8.4375 0 13.031 3.3125 4.5938 3.3281 4.5938 9.4844 0 5.3594-3.2969 8.3906t-10.812 4.5469l-6.0156 1.1719q-11.031 2.1875-15.969 6.875-4.9219 4.6875-4.9219 13.047 0 9.6719 6.8125 15.234t18.766 5.5625q5.1406 0 10.453-0.9375 5.3281-0.92188 10.891-2.7656z"/>
</defs>
<g transform="translate(83.06 586.88) rotate(-86.678) scale(.08 -.08)">
<use xlink:href="#z"/>
</g>
</g>
<path d="m80.246 581.7 0.19048 5.4692q0.083537 2.3985 2.4821 2.315l7.7378-0.26949q2.3985-0.083537 2.315-2.4821l-0.19048-5.4692q-0.083537-2.3985-2.4821-2.315l-7.7378 0.26949q-2.3985 0.083537-2.315 2.4821z" clip-path="url(#a)" fill="#fff" stroke="#fff"/>
<g clip-path="url(#a)">
<g transform="translate(84.307 581.56) rotate(88.005) scale(.08 -.08)">
<use xlink:href="#p"/>
</g>
</g>
<path d="m86.955 582.11 0.91927 6.091q0.35816 2.3731 2.7313 2.015l7.6558-1.1554q2.3731-0.35816 2.015-2.7313l-0.91927-6.091q-0.35816-2.3731-2.7313-2.015l-7.6558 1.1554q-2.3731 0.35816-2.015 2.7313z" clip-path="url(#a)" fill="#fff" stroke="#fff"/>
<g clip-path="url(#a)">
<defs>
<path id="v" d="m19.672 64.797v-56.688h11.922q15.094 0 22.094 6.8281 7 6.8438 7 21.594 0 14.641-7 21.453t-22.094 6.8125zm-9.8594 8.1094h20.266q21.188 0 31.094-8.8125 9.9219-8.8125 9.9219-27.562 0-18.859-9.9688-27.703-9.9531-8.8281-31.047-8.8281h-20.266z"/>
</defs>
<g transform="translate(90.974 581.5) rotate(81.418) scale(.08 -.08)">
<use xlink:href="#v"/>
</g>
</g>
<path d="m309.47 687.2v33.808q0 2.4 2.4 2.4h7.7425q2.4 0 2.4-2.4v-33.808q0-2.4-2.4-2.4h-7.7425q-2.4 0-2.4 2.4z" clip-path="url(#a)" fill="#fff" stroke="#fff"/>
<g clip-path="url(#a)">
<g transform="translate(313.54 687.2) rotate(90) scale(.08 -.08)">
<use xlink:href="#l"/>
<use x="44.083984" xlink:href="#d"/>
<use x="105.607422" xlink:href="#h"/>
<use x="144.970703" xlink:href="#k"/>
<use x="242.382812" xlink:href="#g"/>
<use x="270.166016" xlink:href="#e"/>
<use x="333.544922" xlink:href="#i"/>
<use x="394.824219" xlink:href="#j"/>
</g>
</g>
<path d="m402.22 528.19 1.8024-5.1672q0.79045-2.2661-1.4756-3.0565l-7.3105-2.55q-2.2661-0.79046-3.0565 1.4756l-1.8024 5.1672q-0.79046 2.2661 1.4756 3.0565l7.3105 2.55q2.2661 0.79046 3.0565-1.4756z" clip-path="url(#a)" fill="#fff" stroke="#fff"/>
<g clip-path="url(#a)">
<g transform="translate(398.39 526.85) rotate(-70.77) scale(.08 -.08)">
<use xlink:href="#p"/>
</g>
</g>
<path d="m423.96 527.13 0.87612-5.0026q0.41402-2.364-1.95-2.778l-7.6264-1.3356q-2.364-0.41402-2.778 1.95l-0.87612 5.0026q-0.41402 2.364 1.95 2.778l7.6264 1.3356q2.364 0.41402 2.778-1.95z" clip-path="url(#a)" fill="#fff" stroke="#fff"/>
<g clip-path="url(#a)">
<g transform="translate(419.96 526.43) rotate(-80.066) scale(.08 -.08)">
<use xlink:href="#z"/>
</g>
</g>
<path d="m445.78 461.5 1.3037 6.0205q0.50793 2.3456 2.8536 1.8377l7.5671-1.6386q2.3456-0.50792 1.8377-2.8536l-1.3037-6.0205q-0.50792-2.3456-2.8536-1.8377l-7.5671 1.6386q-2.3456 0.50792-1.8377 2.8536z" clip-path="url(#a)" fill="#fff" stroke="#fff"/>
<g clip-path="url(#a)">
<g transform="translate(449.75 460.64) rotate(77.782) scale(.08 -.08)">
<use xlink:href="#v"/>
</g>
</g>
<path d="m482.86 523.42 2.0993 5.0538q0.92068 2.2164 3.1371 1.2957l7.1501-2.9702q2.2164-0.92068 1.2957-3.1371l-2.0993-5.0538q-0.92068-2.2164-3.1371-1.2957l-7.1501 2.9702q-2.2164 0.92068-1.2957 3.1371z" clip-path="url(#a)" fill="#fff" stroke="#fff"/>
<g clip-path="url(#a)">
<g transform="translate(486.61 521.86) rotate(67.442) scale(.08 -.08)">
<use xlink:href="#p"/>
</g>
</g>
<path d="m699.74 528.31 1.9274-5.1218q0.84529-2.2462-1.4009-3.0915l-7.2464-2.7269q-2.2462-0.84529-3.0915 1.4009l-1.9274 5.1218q-0.84529 2.2462 1.4009 3.0915l7.2464 2.7269q2.2462 0.84529 3.0915-1.4009z" clip-path="url(#a)" fill="#fff" stroke="#fff"/>
<g clip-path="url(#a)">
<g transform="translate(695.94 526.88) rotate(-69.378) scale(.08 -.08)">
<use xlink:href="#p"/>
</g>
</g>
<path d="m730.07 527.43 0.81308-6.1061q0.31678-2.379-2.0622-2.6958l-7.6748-1.022q-2.379-0.31678-2.6958 2.0622l-0.81308 6.1061q-0.31678 2.379 2.0622 2.6958l7.6748 1.022q2.379 0.31678 2.6958-2.0622z" clip-path="url(#a)" fill="#fff" stroke="#fff"/>
<g clip-path="url(#a)">
<g transform="translate(726.04 526.89) rotate(-82.415) scale(.08 -.08)">
<use xlink:href="#v"/>
</g>
</g>
<path d="m748.36 462.01 1.2898 5.3183q0.56566 2.3324 2.898 1.7667l7.5244-1.8249q2.3324-0.56566 1.7667-2.898l-1.2898-5.3183q-0.56566-2.3324-2.898-1.7667l-7.5244 1.8249q-2.3324 0.56566-1.7667 2.898z" clip-path="url(#a)" fill="#fff" stroke="#fff"/>
<g clip-path="url(#a)">
<g transform="translate(752.3 461.05) rotate(76.368) scale(.08 -.08)">
<use xlink:href="#p"/>
</g>
</g>
<path d="m780.61 523.56 1.7445 4.4973q0.86794 2.2376 3.1055 1.3696l7.2185-2.8q2.2376-0.86794 1.3696-3.1055l-1.7445-4.4973q-0.86794-2.2376-3.1055-1.3696l-7.2185 2.8q-2.2376 0.86794-1.3696 3.1055z" clip-path="url(#a)" fill="#fff" stroke="#fff"/>
<g clip-path="url(#a)">
<g transform="translate(784.4 522.09) rotate(68.799) scale(.08 -.08)">
<use xlink:href="#ad"/>
</g>
</g>
<path d="m895.27 687.2v33.808q0 2.4 2.4 2.4h7.7425q2.4 0 2.4-2.4v-33.808q0-2.4-2.4-2.4h-7.7425q-2.4 0-2.4 2.4z" clip-path="url(#a)" fill="#fff" stroke="#fff"/>
<g clip-path="url(#a)">
<g transform="translate(899.34 687.2) rotate(90) scale(.08 -.08)">
<use xlink:href="#l"/>
<use x="44.083984" xlink:href="#d"/>
<use x="105.607422" xlink:href="#h"/>
<use x="144.970703" xlink:href="#k"/>
<use x="242.382812" xlink:href="#g"/>
<use x="270.166016" xlink:href="#e"/>
<use x="333.544922" xlink:href="#i"/>
<use x="394.824219" xlink:href="#j"/>
</g>
</g>
<path d="m1123 470.01 4.8351-2.5633q2.1205-1.1241 0.99632-3.2446l-3.6265-6.8407q-1.1241-2.1205-3.2446-0.99632l-4.8351 2.5633q-2.1205 1.1241-0.99633 3.2446l3.6265 6.8407q1.1241 2.1205 3.2446 0.99632z" clip-path="url(#a)" fill="#fff" stroke="#fff"/>
<g clip-path="url(#a)">
<g transform="translate(1121.1 466.42) rotate(-27.93) scale(.08 -.08)">
<use xlink:href="#p"/>
</g>
</g>
<path d="m1183.1 528.56 2.2069-4.5742q1.0429-2.1616-1.1187-3.2044l-6.9733-3.3644q-2.1616-1.0429-3.2044 1.1187l-2.2069 4.5742q-1.0429 2.1616 1.1187 3.2045l6.9733 3.3644q2.1616 1.0429 3.2045-1.1187z" clip-path="url(#a)" fill="#fff" stroke="#fff"/>
<g clip-path="url(#a)">
<g transform="translate(1179.4 526.79) rotate(-64.245) scale(.08 -.08)">
<use xlink:href="#z"/>
</g>
</g>
<path d="m1223.5 527.42 0.91515-5.783q0.37512-2.3705-1.9954-2.7456l-7.6473-1.2102q-2.3705-0.37512-2.7456 1.9954l-0.91515 5.783q-0.37512 2.3705 1.9954 2.7456l7.6473 1.2102q2.3705 0.37512 2.7456-1.9954z" clip-path="url(#a)" fill="#fff" stroke="#fff"/>
<g clip-path="url(#a)">
<g transform="translate(1219.5 526.78) rotate(-81.008) scale(.08 -.08)">
<use xlink:href="#q"/>
</g>
</g>
<path d="m1251.8 521.76 1.0235 5.7648q0.41955 2.363 2.7826 1.9435l7.6233-1.3535q2.363-0.41955 1.9435-2.7826l-1.0235-5.7648q-0.41955-2.363-2.7826-1.9435l-7.6233 1.3535q-2.363 0.41955-1.9435 2.7826z" clip-path="url(#a)" fill="#fff" stroke="#fff"/>
<g clip-path="url(#a)">
<g transform="translate(1255.8 521.05) rotate(79.932) scale(.08 -.08)">
<use xlink:href="#q"/>
</g>
</g>
<path d="m1293.6 523.87 2.7213 5.1842q1.1155 2.125 3.2405 1.0096l6.8554-3.5985q2.125-1.1155 1.0096-3.2405l-2.7213-5.1842q-1.1155-2.125-3.2405-1.0096l-6.8554 3.5985q-2.125 1.1155-1.0096 3.2405z" clip-path="url(#a)" fill="#fff" stroke="#fff"/>
<g clip-path="url(#a)">
<g transform="translate(1297.2 521.98) rotate(62.304) scale(.08 -.08)">
<use xlink:href="#q"/>
</g>
</g>
<path d="m1337.3 525.5 3.8775 4.387q1.5894 1.7983 3.3877 0.20884l5.8013-5.1275q1.7983-1.5894 0.20884-3.3877l-3.8775-4.387q-1.5894-1.7983-3.3877-0.20884l-5.8013 5.1275q-1.7983 1.5894-0.20884 3.3877z" clip-path="url(#a)" fill="#fff" stroke="#fff"/>
<g clip-path="url(#a)">
<g transform="translate(1340.3 522.81) rotate(48.528) scale(.08 -.08)">
<use xlink:href="#q"/>
</g>
</g>
<path d="m994.93 589.05 1.8198-6.0288q0.69352-2.2976-1.6041-2.9911l-7.4122-2.2373q-2.2976-0.69352-2.9911 1.6041l-1.8198 6.0288q-0.69352 2.2976 1.6041 2.9911l7.4122 2.2373q2.2976 0.69352 2.9911-1.6041z" clip-path="url(#a)" fill="#fff" stroke="#fff"/>
<g clip-path="url(#a)">
<defs>
<path id="as" d="m39.406 66.219q-10.75 0-17.078-8.0156-6.3125-8-6.3125-21.828 0-13.766 6.3125-21.781 6.3281-8 17.078-8 10.734 0 17.016 8 6.2812 8.0156 6.2812 21.781 0 13.828-6.2812 21.828-6.2812 8.0156-17.016 8.0156zm13.812-64.906 13-14.203h-11.922l-10.797 11.672q-1.6094-0.09375-2.4688-0.14062-0.84375-0.0625-1.625-0.0625-15.375 0-24.594 10.281-9.2031 10.281-9.2031 27.516 0 17.281 9.2031 27.562 9.2188 10.281 24.594 10.281 15.328 0 24.5-10.281 9.1875-10.281 9.1875-27.562 0-12.688-5.1094-21.734-5.0938-9.0312-14.766-13.328z"/>
</defs>
<g transform="translate(991.04 587.87) rotate(-73.204) scale(.08 -.08)">
<use xlink:href="#as"/>
</g>
</g>
<path d="m1019.5 583.36 1.6142 5.3479q0.69352 2.2976 2.9911 1.6041l7.4122-2.2373q2.2976-0.69352 1.6041-2.9911l-1.6142-5.3479q-0.69352-2.2976-2.9911-1.6041l-7.4122 2.2373q-2.2976 0.69352-1.6041 2.9911z" clip-path="url(#a)" fill="#fff" stroke="#fff"/>
<g clip-path="url(#a)">
<g transform="translate(1023.4 582.18) rotate(73.204) scale(.08 -.08)">
<use xlink:href="#ae"/>
</g>
</g>
<path d="m1113.9 687.2v33.808q0 2.4 2.4 2.4h7.7425q2.4 0 2.4-2.4v-33.808q0-2.4-2.4-2.4h-7.7425q-2.4 0-2.4 2.4z" clip-path="url(#a)" fill="#fff" stroke="#fff"/>
<g clip-path="url(#a)">
<g transform="translate(1118 687.2) rotate(90) scale(.08 -.08)">
<use xlink:href="#l"/>
<use x="44.083984" xlink:href="#d"/>
<use x="105.607422" xlink:href="#h"/>
<use x="144.970703" xlink:href="#k"/>
<use x="242.382812" xlink:href="#g"/>
<use x="270.166016" xlink:href="#e"/>
<use x="333.544922" xlink:href="#i"/>
<use x="394.824219" xlink:href="#j"/>
</g>
</g>
<path d="m965.35 687.2v33.808q0 2.4 2.4 2.4h7.7425q2.4 0 2.4-2.4v-33.808q0-2.4-2.4-2.4h-7.7425q-2.4 0-2.4 2.4z" clip-path="url(#a)" fill="#fff" stroke="#fff"/>
<g clip-path="url(#a)">
<g transform="translate(969.41 687.2) rotate(90) scale(.08 -.08)">
<use xlink:href="#l"/>
<use x="44.083984" xlink:href="#d"/>
<use x="105.607422" xlink:href="#h"/>
<use x="144.970703" xlink:href="#k"/>
<use x="242.382812" xlink:href="#g"/>
<use x="270.166016" xlink:href="#e"/>
<use x="333.544922" xlink:href="#i"/>
<use x="394.824219" xlink:href="#j"/>
</g>
</g>
<path d="m1038.2 687.2v33.808q0 2.4 2.4 2.4h7.7425q2.4 0 2.4-2.4v-33.808q0-2.4-2.4-2.4h-7.7425q-2.4 0-2.4 2.4z" clip-path="url(#a)" fill="#fff" stroke="#fff"/>
<g clip-path="url(#a)">
<g transform="translate(1042.3 687.2) rotate(90) scale(.08 -.08)">
<use xlink:href="#l"/>
<use x="44.083984" xlink:href="#d"/>
<use x="105.607422" xlink:href="#h"/>
<use x="144.970703" xlink:href="#k"/>
<use x="242.382812" xlink:href="#g"/>
<use x="270.166016" xlink:href="#e"/>
<use x="333.544922" xlink:href="#i"/>
<use x="394.824219" xlink:href="#j"/>
</g>
</g>
<path d="m643.02 687.2v33.808q0 2.4 2.4 2.4h7.7425q2.4 0 2.4-2.4v-33.808q0-2.4-2.4-2.4h-7.7425q-2.4 0-2.4 2.4z" clip-path="url(#a)" fill="#fff" stroke="#fff"/>
<g clip-path="url(#a)">
<g transform="translate(647.08 687.2) rotate(90) scale(.08 -.08)">
<use xlink:href="#l"/>
<use x="44.083984" xlink:href="#d"/>
<use x="105.607422" xlink:href="#h"/>
<use x="144.970703" xlink:href="#k"/>
<use x="242.382812" xlink:href="#g"/>
<use x="270.166016" xlink:href="#e"/>
<use x="333.544922" xlink:href="#i"/>
<use x="394.824219" xlink:href="#j"/>
</g>
</g>
<path d="m701.88 687.2v33.808q0 2.4 2.4 2.4h7.7425q2.4 0 2.4-2.4v-33.808q0-2.4-2.4-2.4h-7.7425q-2.4 0-2.4 2.4z" clip-path="url(#a)" fill="#fff" stroke="#fff"/>
<g clip-path="url(#a)">
<g transform="translate(705.94 687.2) rotate(90) scale(.08 -.08)">
<use xlink:href="#l"/>
<use x="44.083984" xlink:href="#d"/>
<use x="105.607422" xlink:href="#h"/>
<use x="144.970703" xlink:href="#k"/>
<use x="242.382812" xlink:href="#g"/>
<use x="270.166016" xlink:href="#e"/>
<use x="333.544922" xlink:href="#i"/>
<use x="394.824219" xlink:href="#j"/>
</g>
</g>
<path d="m763.41 577.6v13.246q0 2.4 2.4 2.4h8q2.4 0 2.4-2.4v-13.246q0-2.4-2.4-2.4h-8q-2.4 0-2.4 2.4z" clip-path="url(#a)" fill="#fff" stroke="#fff"/>
<g clip-path="url(#a)">
<defs>
<path id="aw" d="m21 76.422v-100h-8.2969v100z"/>
</defs>
<g transform="translate(767.7 577.6) rotate(90) scale(.08 -.08)">
<use xlink:href="#z"/>
<use x="63.476562" xlink:href="#aw"/>
<use x="97.167969" xlink:href="#p"/>
</g>
</g>
<path d="m828 687.2v33.808q0 2.4 2.4 2.4h7.7425q2.4 0 2.4-2.4v-33.808q0-2.4-2.4-2.4h-7.7425q-2.4 0-2.4 2.4z" clip-path="url(#a)" fill="#fff" stroke="#fff"/>
<g clip-path="url(#a)">
<g transform="translate(832.07 687.2) rotate(90) scale(.08 -.08)">
<use xlink:href="#l"/>
<use x="44.083984" xlink:href="#d"/>
<use x="105.607422" xlink:href="#h"/>
<use x="144.970703" xlink:href="#k"/>
<use x="242.382812" xlink:href="#g"/>
<use x="270.166016" xlink:href="#e"/>
<use x="333.544922" xlink:href="#i"/>
<use x="394.824219" xlink:href="#j"/>
</g>
</g>
<path d="m763.54 687.2v33.808q0 2.4 2.4 2.4h7.7425q2.4 0 2.4-2.4v-33.808q0-2.4-2.4-2.4h-7.7425q-2.4 0-2.4 2.4z" clip-path="url(#a)" fill="#fff" stroke="#fff"/>
<g clip-path="url(#a)">
<g transform="translate(767.6 687.2) rotate(90) scale(.08 -.08)">
<use xlink:href="#l"/>
<use x="44.083984" xlink:href="#d"/>
<use x="105.607422" xlink:href="#h"/>
<use x="144.970703" xlink:href="#k"/>
<use x="242.382812" xlink:href="#g"/>
<use x="270.166016" xlink:href="#e"/>
<use x="333.544922" xlink:href="#i"/>
<use x="394.824219" xlink:href="#j"/>
</g>
</g>
<path d="m348.71 687.2v33.808q0 2.4 2.4 2.4h7.7425q2.4 0 2.4-2.4v-33.808q0-2.4-2.4-2.4h-7.7425q-2.4 0-2.4 2.4z" clip-path="url(#a)" fill="#fff" stroke="#fff"/>
<g clip-path="url(#a)">
<g transform="translate(352.78 687.2) rotate(90) scale(.08 -.08)">
<use xlink:href="#l"/>
<use x="44.083984" xlink:href="#d"/>
<use x="105.607422" xlink:href="#h"/>
<use x="144.970703" xlink:href="#k"/>
<use x="242.382812" xlink:href="#g"/>
<use x="270.166016" xlink:href="#e"/>
<use x="333.544922" xlink:href="#i"/>
<use x="394.824219" xlink:href="#j"/>
</g>
</g>
<path d="m390.76 687.2v33.808q0 2.4 2.4 2.4h7.7425q2.4 0 2.4-2.4v-33.808q0-2.4-2.4-2.4h-7.7425q-2.4 0-2.4 2.4z" clip-path="url(#a)" fill="#fff" stroke="#fff"/>
<g clip-path="url(#a)">
<g transform="translate(394.82 687.2) rotate(90) scale(.08 -.08)">
<use xlink:href="#l"/>
<use x="44.083984" xlink:href="#d"/>
<use x="105.607422" xlink:href="#h"/>
<use x="144.970703" xlink:href="#k"/>
<use x="242.382812" xlink:href="#g"/>
<use x="270.166016" xlink:href="#e"/>
<use x="333.544922" xlink:href="#i"/>
<use x="394.824219" xlink:href="#j"/>
</g>
</g>
<path d="m459.4 588.17 1.0816-5.4805q0.4647-2.3546-1.8899-2.8193l-7.596-1.4991q-2.3546-0.4647-2.8193 1.8899l-1.0816 5.4805q-0.4647 2.3546 1.8899 2.8193l7.596 1.4991q2.3546 0.4647 2.8193-1.8899z" clip-path="url(#a)" fill="#fff" stroke="#fff"/>
<g clip-path="url(#a)">
<g transform="translate(455.41 587.39) rotate(-78.836) scale(.08 -.08)">
<use xlink:href="#ae"/>
</g>
</g>
<path d="m470.97 582.95 0.97877 4.9593q0.4647 2.3546 2.8193 1.8899l7.596-1.4991q2.3546-0.4647 1.8899-2.8193l-0.97877-4.9593q-0.4647-2.3546-2.8193-1.8899l-7.596 1.4991q-2.3546 0.4647-1.8899 2.8193z" clip-path="url(#a)" fill="#fff" stroke="#fff"/>
<g clip-path="url(#a)">
<g transform="translate(474.96 582.17) rotate(78.836) scale(.08 -.08)">
<use xlink:href="#am"/>
</g>
</g>
<path d="m533.7 687.2v33.808q0 2.4 2.4 2.4h7.7425q2.4 0 2.4-2.4v-33.808q0-2.4-2.4-2.4h-7.7425q-2.4 0-2.4 2.4z" clip-path="url(#a)" fill="#fff" stroke="#fff"/>
<g clip-path="url(#a)">
<g transform="translate(537.77 687.2) rotate(90) scale(.08 -.08)">
<use xlink:href="#l"/>
<use x="44.083984" xlink:href="#d"/>
<use x="105.607422" xlink:href="#h"/>
<use x="144.970703" xlink:href="#k"/>
<use x="242.382812" xlink:href="#g"/>
<use x="270.166016" xlink:href="#e"/>
<use x="333.544922" xlink:href="#i"/>
<use x="394.824219" xlink:href="#j"/>
</g>
</g>
<path d="m435.6 687.2v33.808q0 2.4 2.4 2.4h7.7425q2.4 0 2.4-2.4v-33.808q0-2.4-2.4-2.4h-7.7425q-2.4 0-2.4 2.4z" clip-path="url(#a)" fill="#fff" stroke="#fff"/>
<g clip-path="url(#a)">
<g transform="translate(439.67 687.2) rotate(90) scale(.08 -.08)">
<use xlink:href="#l"/>
<use x="44.083984" xlink:href="#d"/>
<use x="105.607422" xlink:href="#h"/>
<use x="144.970703" xlink:href="#k"/>
<use x="242.382812" xlink:href="#g"/>
<use x="270.166016" xlink:href="#e"/>
<use x="333.544922" xlink:href="#i"/>
<use x="394.824219" xlink:href="#j"/>
</g>
</g>
<path d="m483.25 687.2v33.808q0 2.4 2.4 2.4h7.7425q2.4 0 2.4-2.4v-33.808q0-2.4-2.4-2.4h-7.7425q-2.4 0-2.4 2.4z" clip-path="url(#a)" fill="#fff" stroke="#fff"/>
<g clip-path="url(#a)">
<g transform="translate(487.31 687.2) rotate(90) scale(.08 -.08)">
<use xlink:href="#l"/>
<use x="44.083984" xlink:href="#d"/>
<use x="105.607422" xlink:href="#h"/>
<use x="144.970703" xlink:href="#k"/>
<use x="242.382812" xlink:href="#g"/>
<use x="270.166016" xlink:href="#e"/>
<use x="333.544922" xlink:href="#i"/>
<use x="394.824219" xlink:href="#j"/>
</g>
</g>
<path d="m62.82 687.2v33.808q0 2.4 2.4 2.4h7.7425q2.4 0 2.4-2.4v-33.808q0-2.4-2.4-2.4h-7.7425q-2.4 0-2.4 2.4z" clip-path="url(#a)" fill="#fff" stroke="#fff"/>
<g clip-path="url(#a)">
<g transform="translate(66.883 687.2) rotate(90) scale(.08 -.08)">
<use xlink:href="#l"/>
<use x="44.083984" xlink:href="#d"/>
<use x="105.607422" xlink:href="#h"/>
<use x="144.970703" xlink:href="#k"/>
<use x="242.382812" xlink:href="#g"/>
<use x="270.166016" xlink:href="#e"/>
<use x="333.544922" xlink:href="#i"/>
<use x="394.824219" xlink:href="#j"/>
</g>
</g>
<path d="m71.228 687.2v33.808q0 2.4 2.4 2.4h7.7425q2.4 0 2.4-2.4v-33.808q0-2.4-2.4-2.4h-7.7425q-2.4 0-2.4 2.4z" clip-path="url(#a)" fill="#fff" stroke="#fff"/>
<g clip-path="url(#a)">
<g transform="translate(75.292 687.2) rotate(90) scale(.08 -.08)">
<use xlink:href="#l"/>
<use x="44.083984" xlink:href="#d"/>
<use x="105.607422" xlink:href="#h"/>
<use x="144.970703" xlink:href="#k"/>
<use x="242.382812" xlink:href="#g"/>
<use x="270.166016" xlink:href="#e"/>
<use x="333.544922" xlink:href="#i"/>
<use x="394.824219" xlink:href="#j"/>
</g>
</g>
<path d="m82.44 687.2v33.808q0 2.4 2.4 2.4h7.7425q2.4 0 2.4-2.4v-33.808q0-2.4-2.4-2.4h-7.7425q-2.4 0-2.4 2.4z" clip-path="url(#a)" fill="#fff" stroke="#fff"/>
<g clip-path="url(#a)">
<g transform="translate(86.504 687.2) rotate(90) scale(.08 -.08)">
<use xlink:href="#l"/>
<use x="44.083984" xlink:href="#d"/>
<use x="105.607422" xlink:href="#h"/>
<use x="144.970703" xlink:href="#k"/>
<use x="242.382812" xlink:href="#g"/>
<use x="270.166016" xlink:href="#e"/>
<use x="333.544922" xlink:href="#i"/>
<use x="394.824219" xlink:href="#j"/>
</g>
</g>
<path d="m96.454 687.2v33.808q0 2.4 2.4 2.4h7.7425q2.4 0 2.4-2.4v-33.808q0-2.4-2.4-2.4h-7.7425q-2.4 0-2.4 2.4z" clip-path="url(#a)" fill="#fff" stroke="#fff"/>
<g clip-path="url(#a)">
<g transform="translate(100.52 687.2) rotate(90) scale(.08 -.08)">
<use xlink:href="#l"/>
<use x="44.083984" xlink:href="#d"/>
<use x="105.607422" xlink:href="#h"/>
<use x="144.970703" xlink:href="#k"/>
<use x="242.382812" xlink:href="#g"/>
<use x="270.166016" xlink:href="#e"/>
<use x="333.544922" xlink:href="#i"/>
<use x="394.824219" xlink:href="#j"/>
</g>
</g>
<path d="m113.27 687.2v33.808q0 2.4 2.4 2.4h7.7425q2.4 0 2.4-2.4v-33.808q0-2.4-2.4-2.4h-7.7425q-2.4 0-2.4 2.4z" clip-path="url(#a)" fill="#fff" stroke="#fff"/>
<g clip-path="url(#a)">
<g transform="translate(117.34 687.2) rotate(90) scale(.08 -.08)">
<use xlink:href="#l"/>
<use x="44.083984" xlink:href="#d"/>
<use x="105.607422" xlink:href="#h"/>
<use x="144.970703" xlink:href="#k"/>
<use x="242.382812" xlink:href="#g"/>
<use x="270.166016" xlink:href="#e"/>
<use x="333.544922" xlink:href="#i"/>
<use x="394.824219" xlink:href="#j"/>
</g>
</g>
<path d="m132.89 687.2v33.808q0 2.4 2.4 2.4h7.7425q2.4 0 2.4-2.4v-33.808q0-2.4-2.4-2.4h-7.7425q-2.4 0-2.4 2.4z" clip-path="url(#a)" fill="#fff" stroke="#fff"/>
<g clip-path="url(#a)">
<g transform="translate(136.96 687.2) rotate(90) scale(.08 -.08)">
<use xlink:href="#l"/>
<use x="44.083984" xlink:href="#d"/>
<use x="105.607422" xlink:href="#h"/>
<use x="144.970703" xlink:href="#k"/>
<use x="242.382812" xlink:href="#g"/>
<use x="270.166016" xlink:href="#e"/>
<use x="333.544922" xlink:href="#i"/>
<use x="394.824219" xlink:href="#j"/>
</g>
</g>
<path d="m273.04 687.2v33.808q0 2.4 2.4 2.4h7.7425q2.4 0 2.4-2.4v-33.808q0-2.4-2.4-2.4h-7.7425q-2.4 0-2.4 2.4z" clip-path="url(#a)" fill="#fff" stroke="#fff"/>
<g clip-path="url(#a)">
<g transform="translate(277.1 687.2) rotate(90) scale(.08 -.08)">
<use xlink:href="#l"/>
<use x="44.083984" xlink:href="#d"/>
<use x="105.607422" xlink:href="#h"/>
<use x="144.970703" xlink:href="#k"/>
<use x="242.382812" xlink:href="#g"/>
<use x="270.166016" xlink:href="#e"/>
<use x="333.544922" xlink:href="#i"/>
<use x="394.824219" xlink:href="#j"/>
</g>
</g>
<path d="m586.96 687.2v33.808q0 2.4 2.4 2.4h7.7425q2.4 0 2.4-2.4v-33.808q0-2.4-2.4-2.4h-7.7425q-2.4 0-2.4 2.4z" clip-path="url(#a)" fill="#fff" stroke="#fff"/>
<g clip-path="url(#a)">
<g transform="translate(591.02 687.2) rotate(90) scale(.08 -.08)">
<use xlink:href="#l"/>
<use x="44.083984" xlink:href="#d"/>
<use x="105.607422" xlink:href="#h"/>
<use x="144.970703" xlink:href="#k"/>
<use x="242.382812" xlink:href="#g"/>
<use x="270.166016" xlink:href="#e"/>
<use x="333.544922" xlink:href="#i"/>
<use x="394.824219" xlink:href="#j"/>
</g>
</g>
<path d="m1192.4 687.2v33.808q0 2.4 2.4 2.4h7.7425q2.4 0 2.4-2.4v-33.808q0-2.4-2.4-2.4h-7.7425q-2.4 0-2.4 2.4z" clip-path="url(#a)" fill="#fff" stroke="#fff"/>
<g clip-path="url(#a)">
<g transform="translate(1196.4 687.2) rotate(90) scale(.08 -.08)">
<use xlink:href="#l"/>
<use x="44.083984" xlink:href="#d"/>
<use x="105.607422" xlink:href="#h"/>
<use x="144.970703" xlink:href="#k"/>
<use x="242.382812" xlink:href="#g"/>
<use x="270.166016" xlink:href="#e"/>
<use x="333.544922" xlink:href="#i"/>
<use x="394.824219" xlink:href="#j"/>
</g>
</g>
<path d="m1273.7 687.2v33.808q0 2.4 2.4 2.4h7.7425q2.4 0 2.4-2.4v-33.808q0-2.4-2.4-2.4h-7.7425q-2.4 0-2.4 2.4z" clip-path="url(#a)" fill="#fff" stroke="#fff"/>
<g clip-path="url(#a)">
<g transform="translate(1277.7 687.2) rotate(90) scale(.08 -.08)">
<use xlink:href="#l"/>
<use x="44.083984" xlink:href="#d"/>
<use x="105.607422" xlink:href="#h"/>
<use x="144.970703" xlink:href="#k"/>
<use x="242.382812" xlink:href="#g"/>
<use x="270.166016" xlink:href="#e"/>
<use x="333.544922" xlink:href="#i"/>
<use x="394.824219" xlink:href="#j"/>
</g>
</g>
<path d="m1357.7 687.2v33.808q0 2.4 2.4 2.4h7.7425q2.4 0 2.4-2.4v-33.808q0-2.4-2.4-2.4h-7.7425q-2.4 0-2.4 2.4z" clip-path="url(#a)" fill="#fff" stroke="#fff"/>
<g clip-path="url(#a)">
<g transform="translate(1361.8 687.2) rotate(90) scale(.08 -.08)">
<use xlink:href="#l"/>
<use x="44.083984" xlink:href="#d"/>
<use x="105.607422" xlink:href="#h"/>
<use x="144.970703" xlink:href="#k"/>
<use x="242.382812" xlink:href="#g"/>
<use x="270.166016" xlink:href="#e"/>
<use x="333.544922" xlink:href="#i"/>
<use x="394.824219" xlink:href="#j"/>
</g>
</g>
<path d="m1444.6 687.2v33.808q0 2.4 2.4 2.4h7.7425q2.4 0 2.4-2.4v-33.808q0-2.4-2.4-2.4h-7.7425q-2.4 0-2.4 2.4z" clip-path="url(#a)" fill="#fff" stroke="#fff"/>
<g clip-path="url(#a)">
<g transform="translate(1448.7 687.2) rotate(90) scale(.08 -.08)">
<use xlink:href="#l"/>
<use x="44.083984" xlink:href="#d"/>
<use x="105.607422" xlink:href="#h"/>
<use x="144.970703" xlink:href="#k"/>
<use x="242.382812" xlink:href="#g"/>
<use x="270.166016" xlink:href="#e"/>
<use x="333.544922" xlink:href="#i"/>
<use x="394.824219" xlink:href="#j"/>
</g>
</g>
<defs>
<path id="b" d="m0 8.6603c2.2967 0 4.4997-0.9125 6.1237-2.5365 1.624-1.624 2.5365-3.827 2.5365-6.1237s-0.9125-4.4997-2.5365-6.1237c-1.624-1.624-3.827-2.5365-6.1237-2.5365s-4.4997 0.9125-6.1237 2.5365c-1.624 1.624-2.5365 3.827-2.5365 6.1237s0.9125 4.4997 2.5365 6.1237c1.624 1.624 3.827 2.5365 6.1237 2.5365z"/>
</defs>
<g clip-path="url(#a)" fill="#ffffff" stroke="#ffffff">
<use x="69.090909" y="763.636364" xlink:href="#b"/>
<use x="77.499539" y="763.636364" xlink:href="#b"/>
<use x="88.711046" y="763.636364" xlink:href="#b"/>
<use x="102.725429" y="763.636364" xlink:href="#b"/>
<use x="119.542689" y="763.636364" xlink:href="#b"/>
<use x="139.162825" y="763.636364" xlink:href="#b"/>
<use x="161.585838" y="763.636364" xlink:href="#b"/>
<use x="186.811728" y="763.636364" xlink:href="#b"/>
<use x="214.840494" y="763.636364" xlink:href="#b"/>
<use x="245.672137" y="763.636364" xlink:href="#b"/>
<use x="279.306657" y="763.636364" xlink:href="#b"/>
<use x="315.744053" y="763.636364" xlink:href="#b"/>
<use x="354.984326" y="763.636364" xlink:href="#b"/>
<use x="397.027476" y="763.636364" xlink:href="#b"/>
<use x="441.873502" y="763.636364" xlink:href="#b"/>
<use x="489.522405" y="763.636364" xlink:href="#b"/>
<use x="539.974184" y="763.636364" xlink:href="#b"/>
<use x="593.22884" y="763.636364" xlink:href="#b"/>
<use x="649.286373" y="763.636364" xlink:href="#b"/>
<use x="708.146782" y="763.636364" xlink:href="#b"/>
<use x="769.810068" y="763.636364" xlink:href="#b"/>
<use x="834.276231" y="763.636364" xlink:href="#b"/>
<use x="901.54527" y="763.636364" xlink:href="#b"/>
<use x="971.617186" y="763.636364" xlink:href="#b"/>
<use x="1044.491979" y="763.636364" xlink:href="#b"/>
<use x="1120.169648" y="763.636364" xlink:href="#b"/>
<use x="1198.650194" y="763.636364" xlink:href="#b"/>
<use x="1279.933616" y="763.636364" xlink:href="#b"/>
<use x="1364.019915" y="763.636364" xlink:href="#b"/>
<use x="1450.909091" y="763.636364" xlink:href="#b"/>
<use x="255.223607" y="36.363636" xlink:href="#b"/>
<use x="255.223607" y="158.67973" xlink:href="#b"/>
<use x="615.968845" y="280.74979" xlink:href="#b"/>
<use x="161.585838" y="644.576731" xlink:href="#b"/>
<use x="215.774786" y="523.860847" xlink:href="#b"/>
<use x="186.811728" y="644.576731" xlink:href="#b"/>
<use x="214.840494" y="644.576731" xlink:href="#b"/>
<use x="245.672137" y="644.576731" xlink:href="#b"/>
<use x="84.506731" y="523.860847" xlink:href="#b"/>
<use x="315.744053" y="644.576731" xlink:href="#b"/>
<use x="439.420985" y="402.51182" xlink:href="#b"/>
<use x="740.379864" y="402.51182" xlink:href="#b"/>
<use x="901.54527" y="644.576731" xlink:href="#b"/>
<use x="1236.956174" y="402.51182" xlink:href="#b"/>
<use x="1008.054582" y="523.860847" xlink:href="#b"/>
<use x="1120.169648" y="644.576731" xlink:href="#b"/>
<use x="971.617186" y="644.576731" xlink:href="#b"/>
<use x="1044.491979" y="644.576731" xlink:href="#b"/>
<use x="649.286373" y="644.576731" xlink:href="#b"/>
<use x="708.146782" y="644.576731" xlink:href="#b"/>
<use x="769.810068" y="523.860847" xlink:href="#b"/>
<use x="834.276231" y="644.576731" xlink:href="#b"/>
<use x="769.810068" y="644.576731" xlink:href="#b"/>
<use x="354.984326" y="644.576731" xlink:href="#b"/>
<use x="397.027476" y="644.576731" xlink:href="#b"/>
<use x="465.697953" y="523.860847" xlink:href="#b"/>
<use x="539.974184" y="644.576731" xlink:href="#b"/>
<use x="441.873502" y="644.576731" xlink:href="#b"/>
<use x="489.522405" y="644.576731" xlink:href="#b"/>
<use x="69.090909" y="644.576731" xlink:href="#b"/>
<use x="77.499539" y="644.576731" xlink:href="#b"/>
<use x="88.711046" y="644.576731" xlink:href="#b"/>
<use x="102.725429" y="644.576731" xlink:href="#b"/>
<use x="119.542689" y="644.576731" xlink:href="#b"/>
<use x="139.162825" y="644.576731" xlink:href="#b"/>
<use x="279.306657" y="644.576731" xlink:href="#b"/>
<use x="593.22884" y="644.576731" xlink:href="#b"/>
<use x="1198.650194" y="644.576731" xlink:href="#b"/>
<use x="1279.933616" y="644.576731" xlink:href="#b"/>
<use x="1364.019915" y="644.576731" xlink:href="#b"/>
<use x="1450.909091" y="644.576731" xlink:href="#b"/>
</g>
<g clip-path="url(#a)">
<defs>
<path id="ai" d="m44.281 53.078v-8.5q-3.7969 1.9531-7.9062 2.9219-4.0938 0.98438-8.5 0.98438-6.6875 0-10.031-2.0469t-3.3438-6.1562q0-3.125 2.3906-4.9062t9.625-3.3906l3.0781-0.6875q9.5625-2.0469 13.594-5.7812t4.0312-10.422q0-7.625-6.0312-12.078-6.0312-4.4375-16.578-4.4375-4.3906 0-9.1562 0.85938t-10.031 2.5625v9.2812q4.9844-2.5938 9.8125-3.8906 4.8281-1.2812 9.5781-1.2812 6.3438 0 9.75 2.1719 3.4219 2.1719 3.4219 6.125 0 3.6562-2.4688 5.6094-2.4531 1.9531-10.812 3.7656l-3.125 0.73438q-8.3438 1.75-12.062 5.3906-3.7031 3.6406-3.7031 9.9844 0 7.7188 5.4688 11.906 5.4688 4.2031 15.531 4.2031 4.9688 0 9.3594-0.73438 4.4062-0.71875 8.1094-2.1875z"/>
</defs>
<g transform="translate(59.572 766.4) scale(.1 -.1)">
<use xlink:href="#v"/>
<use x="77.001953" xlink:href="#i"/>
<use x="138.28125" xlink:href="#ai"/>
</g>
</g>
<g clip-path="url(#a)">
<defs>
<path id="av" d="m30.609 48.391q-7.2188 0-11.422-5.6406t-4.2031-15.453 4.1719-15.453q4.1875-5.6406 11.453-5.6406 7.1875 0 11.375 5.6562 4.2031 5.6719 4.2031 15.438 0 9.7188-4.2031 15.406-4.1875 5.6875-11.375 5.6875zm0 7.6094q11.719 0 18.406-7.625 6.7031-7.6094 6.7031-21.078 0-13.422-6.7031-21.078-6.6875-7.6406-18.406-7.6406-11.766 0-18.438 7.6406-6.6562 7.6562-6.6562 21.078 0 13.469 6.6562 21.078 6.6719 7.625 18.438 7.625zm4.6094 19.781h9.9062v-9.8594h-9.9062zm-19.094 0h9.9062v-9.8594h-9.9062z"/>
<path id="t" d="m48.781 52.594v-8.4062q-3.8125 2.1094-7.6406 3.1562t-7.7344 1.0469q-8.75 0-13.594-5.5469-4.8281-5.5312-4.8281-15.547t4.8281-15.562q4.8438-5.5312 13.594-5.5312 3.9062 0 7.7344 1.0469t7.6406 3.1562v-8.3125q-3.7656-1.75-7.7969-2.625-4.0156-0.89062-8.5625-0.89062-12.359 0-19.641 7.7656-7.2656 7.7656-7.2656 20.953 0 13.375 7.3438 21.031 7.3594 7.6719 20.156 7.6719 4.1406 0 8.0938-0.85938 3.9531-0.84375 7.6719-2.5469z"/>
<path id="s" d="m54.891 33.016v-33.016h-8.9844v32.719q0 7.7656-3.0312 11.609-3.0312 3.8594-9.0781 3.8594-7.2812 0-11.484-4.6406-4.2031-4.625-4.2031-12.641v-30.906h-9.0312v75.984h9.0312v-29.797q3.2344 4.9375 7.5938 7.375 4.375 2.4375 10.094 2.4375 9.4219 0 14.25-5.8281 4.8438-5.8281 4.8438-17.156z"/>
<path id="r" d="m18.312 70.219v-15.531h18.5v-6.9844h-18.5v-29.688q0-6.6875 1.8281-8.5938t7.4531-1.9062h9.2188v-7.5156h-9.2188q-10.406 0-14.359 3.875-3.9531 3.8906-3.9531 14.141v29.688h-6.5938v6.9844h6.5938v15.531z"/>
</defs>
<g transform="translate(58.615 766.4) scale(.1 -.1)">
<use xlink:href="#k"/>
<use x="97.412109" xlink:href="#av"/>
<use x="158.59375" xlink:href="#t"/>
<use x="213.574219" xlink:href="#s"/>
<use x="276.953125" xlink:href="#r"/>
<use x="316.162109" xlink:href="#d"/>
</g>
</g>
<g clip-path="url(#a)">
<g transform="translate(81.404 766.4) scale(.1 -.1)">
<use xlink:href="#g"/>
<use x="27.783203" xlink:href="#t"/>
<use x="82.763672" xlink:href="#s"/>
</g>
</g>
<g clip-path="url(#a)">
<defs>
<path id="aq" d="m45.406 27.984q0 9.7656-4.0312 15.125-4.0156 5.375-11.297 5.375-7.2188 0-11.25-5.375-4.0312-5.3594-4.0312-15.125 0-9.7188 4.0312-15.094t11.25-5.375q7.2812 0 11.297 5.375 4.0312 5.375 4.0312 15.094zm8.9844-21.203q0-13.953-6.2031-20.766-6.1875-6.8125-18.984-6.8125-4.7344 0-8.9375 0.70312t-8.1562 2.1719v8.7344q3.9531-2.1406 7.8125-3.1562 3.8594-1.0312 7.8594-1.0312 8.8438 0 13.234 4.6094t4.3906 13.938v4.4531q-2.7812-4.8438-7.125-7.2344t-10.406-2.3906q-10.047 0-16.203 7.6562-6.1562 7.6719-6.1562 20.328 0 12.688 6.1562 20.344 6.1562 7.6719 16.203 7.6719 6.0625 0 10.406-2.3906t7.125-7.2188v8.2969h8.9844z"/>
</defs>
<g transform="translate(91.338 766.4) scale(.1 -.1)">
<use xlink:href="#aq"/>
<use x="63.476562" xlink:href="#d"/>
<use x="125" xlink:href="#h"/>
<use x="164.363281" xlink:href="#e"/>
</g>
</g>
<g clip-path="url(#a)">
<defs>
<path id="ag" d="m17.922 72.906v-27.109h-8.2969v27.109zm18.453 0v-27.109h-8.2969v27.109z"/>
</defs>
<g transform="translate(117.24 766.4) scale(.1 -.1)">
<use xlink:href="#ag"/>
</g>
</g>
<g clip-path="url(#a)">
<defs>
<path id="an" d="m11.719 12.406h10.297v-8.4062l-8-15.625h-6.2969l4 15.625z"/>
</defs>
<g transform="translate(137.57 766.4) scale(.1 -.1)">
<use xlink:href="#an"/>
</g>
</g>
<g clip-path="url(#a)">
<defs>
<path id="ay" d="m4.2031 54.688h8.9844l11.234-42.672 11.172 42.672h10.594l11.234-42.672 11.188 42.672h8.9844l-14.312-54.688h-10.594l-11.766 44.828-11.812-44.828h-10.609z"/>
<path id="az" d="m30.609 48.391q-7.2188 0-11.422-5.6406t-4.2031-15.453 4.1719-15.453q4.1875-5.6406 11.453-5.6406 7.1875 0 11.375 5.6562 4.2031 5.6719 4.2031 15.438 0 9.7188-4.2031 15.406-4.1875 5.6875-11.375 5.6875zm0 7.6094q11.719 0 18.406-7.625 6.7031-7.6094 6.7031-21.078 0-13.422-6.7031-21.078-6.6875-7.6406-18.406-7.6406-11.766 0-18.438 7.6406-6.6562 7.6562-6.6562 21.078 0 13.469 6.6562 21.078 6.6719 7.625 18.438 7.625z"/>
</defs>
<g transform="translate(134.12 766.4) scale(.1 -.1)">
<use xlink:href="#i"/>
<use x="61.279297" xlink:href="#e"/>
<use x="124.658203" xlink:href="#r"/>
<use x="163.867188" xlink:href="#ay"/>
<use x="245.654297" xlink:href="#az"/>
<use x="306.835938" xlink:href="#h"/>
<use x="347.949219" xlink:href="#r"/>
<use x="387.158203" xlink:href="#d"/>
<use x="448.681641" xlink:href="#r"/>
<use x="487.890625" xlink:href="#d"/>
</g>
</g>
<g clip-path="url(#a)">
<defs>
<path id="ac" d="m45.406 46.391v29.594h8.9844v-75.984h-8.9844v8.2031q-2.8281-4.875-7.1562-7.25-4.3125-2.375-10.375-2.375-9.9062 0-16.141 7.9062-6.2188 7.9219-6.2188 20.812t6.2188 20.797q6.2344 7.9062 16.141 7.9062 6.0625 0 10.375-2.375 4.3281-2.3594 7.1562-7.2344zm-30.609-19.094q0-9.9062 4.0781-15.547t11.203-5.6406 11.219 5.6406q4.1094 5.6406 4.1094 15.547t-4.1094 15.547q-4.0938 5.6406-11.219 5.6406t-11.203-5.6406-4.0781-15.547z"/>
</defs>
<g transform="translate(178.51 766.4) scale(.1 -.1)">
<use xlink:href="#ac"/>
<use x="63.476562" xlink:href="#d"/>
<use x="125" xlink:href="#h"/>
</g>
</g>
<g clip-path="url(#a)">
<defs>
<path id="ap" d="m9.0781 75.984h9.0312v-44.875l26.812 23.578h11.469l-29-25.578 30.234-29.109h-11.719l-27.797 26.703v-26.703h-9.0312z"/>
</defs>
<g transform="translate(199.85 766.4) scale(.1 -.1)">
<use xlink:href="#ap"/>
<use x="57.910156" xlink:href="#j"/>
<use x="85.693359" xlink:href="#d"/>
<use x="147.216797" xlink:href="#g"/>
<use x="175" xlink:href="#e"/>
<use x="238.378906" xlink:href="#d"/>
</g>
</g>
<g clip-path="url(#a)">
<defs>
<path id="ax" d="m5.5156 54.688h42.672v-8.2031l-33.781-39.312h33.781v-7.1719h-43.891v8.2031l33.797 39.312h-32.578z"/>
</defs>
<g transform="translate(233.51 766.4) scale(.1 -.1)">
<use xlink:href="#ad"/>
<use x="58.552734" xlink:href="#h"/>
<use x="99.666016" xlink:href="#g"/>
<use x="127.449219" xlink:href="#e"/>
<use x="190.828125" xlink:href="#ax"/>
</g>
</g>
<g clip-path="url(#a)">
<g transform="translate(277.72 766.4) scale(.1 -.1)">
<use xlink:href="#an"/>
</g>
</g>
<g clip-path="url(#a)">
<defs>
<path id="aj" d="m48.688 27.297q0 9.9062-4.0781 15.547t-11.203 5.6406q-7.1406 0-11.219-5.6406t-4.0781-15.547 4.0781-15.547 11.219-5.6406q7.125 0 11.203 5.6406t4.0781 15.547zm-30.578 19.094q2.8438 4.875 7.1562 7.2344 4.3281 2.375 10.328 2.375 9.9688 0 16.188-7.9062 6.2344-7.9062 6.2344-20.797t-6.2344-20.812q-6.2188-7.9062-16.188-7.9062-6 0-10.328 2.375-4.3125 2.375-7.1562 7.25v-8.2031h-9.0312v75.984h9.0312z"/>
</defs>
<g transform="translate(304.37 766.4) scale(.1 -.1)">
<use xlink:href="#i"/>
<use x="61.279297" xlink:href="#aj"/>
<use x="124.755859" xlink:href="#d"/>
<use x="186.279297" xlink:href="#h"/>
</g>
</g>
<g clip-path="url(#a)">
<g transform="translate(347.68 766.4) scale(.1 -.1)">
<use xlink:href="#g"/>
<use x="27.783203" xlink:href="#t"/>
<use x="82.763672" xlink:href="#s"/>
</g>
</g>
<g clip-path="url(#a)">
<g transform="translate(384.54 766.4) scale(.1 -.1)">
<use xlink:href="#s"/>
<use x="63.378906" xlink:href="#i"/>
<use x="124.658203" xlink:href="#aj"/>
<use x="188.134766" xlink:href="#d"/>
</g>
</g>
<g clip-path="url(#a)">
<g transform="translate(429.44 766.4) scale(.1 -.1)">
<use xlink:href="#e"/>
<use x="63.378906" xlink:href="#g"/>
<use x="91.162109" xlink:href="#t"/>
<use x="146.142578" xlink:href="#s"/>
<use x="209.521484" xlink:href="#r"/>
</g>
</g>
<g clip-path="url(#a)">
<defs>
<path id="ao" d="m2.9844 54.688h9.5156l17.094-45.891 17.094 45.891h9.5156l-20.516-54.688h-12.203z"/>
</defs>
<g transform="translate(480.71 766.4) scale(.1 -.1)">
<use xlink:href="#ao"/>
<use x="59.179688" xlink:href="#g"/>
<use x="86.962891" xlink:href="#d"/>
<use x="148.486328" xlink:href="#j"/>
</g>
</g>
<g clip-path="url(#a)">
<defs>
<path id="ar" d="m5.6094 72.906h57.281v-7.5312l-46.094-57.078h47.219v-8.2969h-59.516v7.5156l46.094 57.078h-44.984z"/>
</defs>
<g transform="translate(530.12 766.4) scale(.1 -.1)">
<use xlink:href="#ar"/>
<use x="68.505859" xlink:href="#d"/>
<use x="130.029297" xlink:href="#g"/>
<use x="157.8125" xlink:href="#r"/>
</g>
</g>
<g clip-path="url(#a)">
<defs>
<path id="f" d="m10.688 12.406h10.312v-12.406h-10.312z"/>
</defs>
<g transform="translate(591.64 766.4) scale(.1 -.1)">
<use xlink:href="#f"/>
</g>
</g>
<g clip-path="url(#a)">
<defs>
<path id="at" d="m9.8125 72.906h9.8594v-72.906h-9.8594z"/>
</defs>
<g transform="translate(641.89 766.4) scale(.1 -.1)">
<use xlink:href="#at"/>
<use x="29.492188" xlink:href="#t"/>
<use x="84.472656" xlink:href="#s"/>
</g>
</g>
<g clip-path="url(#a)">
<defs>
<path id="ah" d="m8.5 21.578v33.109h8.9844v-32.766q0-7.7656 3.0156-11.656 3.0312-3.875 9.0938-3.875 7.2656 0 11.484 4.6406 4.2344 4.6406 4.2344 12.656v31h8.9844v-54.688h-8.9844v8.4062q-3.2656-4.9844-7.5938-7.4062-4.3125-2.4219-10.031-2.4219-9.4219 0-14.312 5.8594-4.875 5.8594-4.875 17.141z"/>
</defs>
<g transform="translate(694.9 766.4) scale(.1 -.1)">
<use xlink:href="#k"/>
<use x="97.412109" xlink:href="#ah"/>
<use x="160.791016" xlink:href="#ai"/>
<use x="212.890625" xlink:href="#ai"/>
</g>
</g>
<g clip-path="url(#a)">
<g transform="translate(749.69 766.4) scale(.1 -.1)">
<use xlink:href="#al"/>
<use x="50.269531" xlink:href="#h"/>
<use x="89.132812" xlink:href="#d"/>
<use x="150.65625" xlink:href="#ah"/>
<use x="214.035156" xlink:href="#e"/>
<use x="277.414062" xlink:href="#ac"/>
<use x="340.890625" xlink:href="#d"/>
</g>
</g>
<g clip-path="url(#a)">
<defs>
<path id="ba" d="m37.109 75.984v-7.4844h-8.5938q-4.8281 0-6.7188-1.9531-1.875-1.9531-1.875-7.0312v-4.8281h14.797v-6.9844h-14.797v-47.703h-9.0312v47.703h-8.5938v6.9844h8.5938v3.8125q0 9.125 4.25 13.297 4.25 4.1875 13.469 4.1875z"/>
</defs>
<g transform="translate(818.54 766.4) scale(.1 -.1)">
<use xlink:href="#ba"/>
<use x="35.205078" xlink:href="#g"/>
<use x="62.988281" xlink:href="#e"/>
<use x="126.367188" xlink:href="#ac"/>
<use x="189.84375" xlink:href="#d"/>
<use x="251.367188" xlink:href="#e"/>
</g>
</g>
<g clip-path="url(#a)">
<g transform="translate(892.03 766.4) scale(.1 -.1)">
<use xlink:href="#ah"/>
<use x="63.378906" xlink:href="#e"/>
<use x="126.757812" xlink:href="#ac"/>
</g>
</g>
<g clip-path="url(#a)">
<g transform="translate(959.73 766.4) scale(.1 -.1)">
<use xlink:href="#ao"/>
<use x="59.179688" xlink:href="#g"/>
<use x="86.962891" xlink:href="#d"/>
<use x="148.486328" xlink:href="#j"/>
<use x="176.269531" xlink:href="#d"/>
</g>
</g>
<g clip-path="url(#a)">
<g transform="translate(1029.8 766.4) scale(.1 -.1)">
<use xlink:href="#v"/>
<use x="77.001953" xlink:href="#g"/>
<use x="104.785156" xlink:href="#e"/>
<use x="168.164062" xlink:href="#aq"/>
<use x="231.640625" xlink:href="#d"/>
</g>
</g>
<g clip-path="url(#a)">
<g transform="translate(1085.9 766.4) scale(.1 -.1)">
<use xlink:href="#ap"/>
<use x="54.285156" xlink:href="#d"/>
<use x="115.808594" xlink:href="#e"/>
<use x="179.1875" xlink:href="#e"/>
<use x="242.566406" xlink:href="#d"/>
<use x="304.089844" xlink:href="#e"/>
<use x="367.46875" xlink:href="#j"/>
<use x="395.251953" xlink:href="#d"/>
<use x="456.775391" xlink:href="#h"/>
<use x="496.138672" xlink:href="#e"/>
<use x="559.517578" xlink:href="#d"/>
<use x="621.041016" xlink:href="#e"/>
</g>
</g>
<g clip-path="url(#a)">
<g transform="translate(1197.1 766.4) scale(.1 -.1)">
<use xlink:href="#f"/>
</g>
</g>
<g clip-path="url(#a)">
<g transform="translate(1277.6 766.4) scale(.1 -.1)">
<use xlink:href="#ag"/>
</g>
</g>
<g clip-path="url(#a)">
<defs>
<path id="au" d="m4.8906 31.391h26.312v-8h-26.312z"/>
</defs>
<g transform="translate(1362.2 766.4) scale(.1 -.1)">
<use xlink:href="#au"/>
</g>
</g>
<g clip-path="url(#a)">
<g transform="translate(1448.6 766.4) scale(.1 -.1)">
<use xlink:href="#ag"/>
</g>
</g>
<g clip-path="url(#a)">
<defs>
<path id="c" d="m12.406 8.2969h16.109v55.625l-17.531-3.5156v8.9844l17.438 3.5156h9.8594v-64.609h16.109v-8.2969h-41.984z"/>
</defs>
<g transform="translate(247.27 39.123) scale(.1 -.1)">
<use xlink:href="#c"/>
<use x="63.623047" xlink:href="#f"/>
<use x="95.410156" xlink:href="#c"/>
</g>
</g>
<g clip-path="url(#a)">
<defs>
<path id="o" d="m19.188 8.2969h34.422v-8.2969h-46.281v8.2969q5.6094 5.8125 15.297 15.594 9.7031 9.7969 12.188 12.641 4.7344 5.3125 6.6094 9 1.8906 3.6875 1.8906 7.25 0 5.8125-4.0781 9.4688-4.0781 3.6719-10.625 3.6719-4.6406 0-9.7969-1.6094-5.1406-1.6094-11-4.8906v9.9688q5.9531 2.3906 11.125 3.6094 5.1875 1.2188 9.4844 1.2188 11.328 0 18.062-5.6719 6.7344-5.6562 6.7344-15.125 0-4.5-1.6875-8.5312-1.6719-4.0156-6.125-9.4844-1.2188-1.4219-7.7656-8.1875-6.5312-6.7656-18.453-18.922z"/>
</defs>
<g transform="translate(247.27 161.44) scale(.1 -.1)">
<use xlink:href="#c"/>
<use x="63.623047" xlink:href="#f"/>
<use x="95.410156" xlink:href="#o"/>
</g>
</g>
<g clip-path="url(#a)">
<defs>
<path id="y" d="m8.2031 72.906h46.875v-4.2031l-26.469-68.703h-10.297l24.906 64.594h-35.016z"/>
</defs>
<g transform="translate(608.02 283.51) scale(.1 -.1)">
<use xlink:href="#c"/>
<use x="63.623047" xlink:href="#f"/>
<use x="95.410156" xlink:href="#y"/>
</g>
</g>
<g clip-path="url(#a)">
<defs>
<path id="x" d="m31.781 34.625q-7.0312 0-11.062-3.7656-4.0156-3.7656-4.0156-10.344 0-6.5938 4.0156-10.359 4.0312-3.7656 11.062-3.7656t11.078 3.7812q4.0625 3.7969 4.0625 10.344 0 6.5781-4.0312 10.344-4.0156 3.7656-11.109 3.7656zm-9.8594 4.1875q-6.3438 1.5625-9.8906 5.9062-3.5312 4.3594-3.5312 10.609 0 8.7344 6.2188 13.812 6.2344 5.0781 17.062 5.0781 10.891 0 17.094-5.0781t6.2031-13.812q0-6.25-3.5469-10.609-3.5312-4.3438-9.8281-5.9062 7.125-1.6562 11.094-6.5 3.9844-4.8281 3.9844-11.797 0-10.609-6.4688-16.281-6.4688-5.6562-18.531-5.6562-12.047 0-18.531 5.6562-6.4688 5.6719-6.4688 16.281 0 6.9688 4 11.797 4.0156 4.8438 11.141 6.5zm-3.6094 15.578q0-5.6562 3.5312-8.8281 3.5469-3.1719 9.9375-3.1719 6.3594 0 9.9375 3.1719 3.5938 3.1719 3.5938 8.8281 0 5.6719-3.5938 8.8438-3.5781 3.1719-9.9375 3.1719-6.3906 0-9.9375-3.1719-3.5312-3.1719-3.5312-8.8438z"/>
</defs>
<g transform="translate(153.63 647.34) scale(.1 -.1)">
<use xlink:href="#c"/>
<use x="63.623047" xlink:href="#f"/>
<use x="95.410156" xlink:href="#x"/>
</g>
</g>
<g clip-path="url(#a)">
<defs>
<path id="w" d="m10.984 1.5156v8.9844q3.7188-1.7656 7.5156-2.6875 3.8125-0.92188 7.4844-0.92188 9.7656 0 14.906 6.5625 5.1562 6.5625 5.8906 19.953-2.8281-4.2031-7.1875-6.4531-4.3438-2.25-9.6094-2.25-10.938 0-17.312 6.6094-6.375 6.625-6.375 18.109 0 11.219 6.6406 18 6.6406 6.7969 17.672 6.7969 12.656 0 19.312-9.7031 6.6719-9.6875 6.6719-28.141 0-17.234-8.1875-27.516-8.1719-10.281-21.984-10.281-3.7188 0-7.5312 0.73438-3.7969 0.73438-7.9062 2.2031zm19.625 30.906q6.6406 0 10.516 4.5312 3.8906 4.5469 3.8906 12.469 0 7.8594-3.8906 12.422-3.875 4.5625-10.516 4.5625t-10.516-4.5625-3.875-12.422q0-7.9219 3.875-12.469 3.875-4.5312 10.516-4.5312z"/>
</defs>
<g transform="translate(207.82 526.62) scale(.1 -.1)">
<use xlink:href="#c"/>
<use x="63.623047" xlink:href="#f"/>
<use x="95.410156" xlink:href="#w"/>
</g>
</g>
<g clip-path="url(#a)">
<defs>
<path id="n" d="m40.578 39.312q7.0781-1.5156 11.047-6.3125 3.9844-4.7812 3.9844-11.812 0-10.781-7.4219-16.703-7.4219-5.9062-21.094-5.9062-4.5781 0-9.4375 0.90625t-10.031 2.7188v9.5156q4.0938-2.3906 8.9688-3.6094 4.8906-1.2188 10.219-1.2188 9.2656 0 14.125 3.6562t4.8594 10.641q0 6.4531-4.5156 10.078-4.5156 3.6406-12.562 3.6406h-8.5v8.1094h8.8906q7.2656 0 11.125 2.9062t3.8594 8.375q0 5.6094-3.9844 8.6094-3.9688 3.0156-11.391 3.0156-4.0625 0-8.7031-0.89062-4.6406-0.875-10.203-2.7188v8.7812q5.625 1.5625 10.531 2.3438t9.25 0.78125q11.234 0 17.766-5.1094 6.5469-5.0938 6.5469-13.781 0-6.0625-3.4688-10.234t-9.8594-5.7812z"/>
</defs>
<g transform="translate(175.68 647.34) scale(.1 -.1)">
<use xlink:href="#c"/>
<use x="63.623047" xlink:href="#f"/>
<use x="95.410156" xlink:href="#c"/>
<use x="159.033203" xlink:href="#n"/>
</g>
</g>
<g clip-path="url(#a)">
<defs>
<path id="m" d="m37.797 64.312-24.906-38.922h24.906zm-2.5938 8.5938h12.406v-47.516h10.406v-8.2031h-10.406v-17.188h-9.8125v17.188h-32.906v9.5156z"/>
</defs>
<g transform="translate(203.71 647.34) scale(.1 -.1)">
<use xlink:href="#c"/>
<use x="63.623047" xlink:href="#f"/>
<use x="95.410156" xlink:href="#c"/>
<use x="159.033203" xlink:href="#m"/>
</g>
</g>
<g clip-path="url(#a)">
<defs>
<path id="ab" d="m10.797 72.906h38.719v-8.3125h-29.688v-17.859q2.1406 0.73438 4.2812 1.0938 2.1562 0.35938 4.3125 0.35938 12.203 0 19.328-6.6875 7.1406-6.6875 7.1406-18.109 0-11.766-7.3281-18.297-7.3281-6.5156-20.656-6.5156-4.5938 0-9.3594 0.78125-4.75 0.78125-9.8281 2.3438v9.9219q4.3906-2.3906 9.0781-3.5625t9.9062-1.1719q8.4531 0 13.375 4.4375 4.9375 4.4375 4.9375 12.062 0 7.6094-4.9375 12.047-4.9219 4.4531-13.375 4.4531-3.9531 0-7.8906-0.875-3.9219-0.875-8.0156-2.7344z"/>
</defs>
<g transform="translate(234.54 647.34) scale(.1 -.1)">
<use xlink:href="#c"/>
<use x="63.623047" xlink:href="#f"/>
<use x="95.410156" xlink:href="#c"/>
<use x="159.033203" xlink:href="#ab"/>
</g>
</g>
<g clip-path="url(#a)">
<defs>
<path id="aa" d="m33.016 40.375q-6.6406 0-10.531-4.5469-3.875-4.5312-3.875-12.438 0-7.8594 3.875-12.438 3.8906-4.5625 10.531-4.5625t10.516 4.5625q3.875 4.5781 3.875 12.438 0 7.9062-3.875 12.438-3.875 4.5469-10.516 4.5469zm19.578 30.922v-8.9844q-3.7188 1.75-7.5 2.6719-3.7812 0.9375-7.5 0.9375-9.7656 0-14.922-6.5938-5.1406-6.5938-5.875-19.922 2.875 4.25 7.2188 6.5156 4.3594 2.2656 9.5781 2.2656 10.984 0 17.359-6.6719 6.375-6.6562 6.375-18.125 0-11.234-6.6406-18.031-6.6406-6.7812-17.672-6.7812-12.656 0-19.344 9.6875-6.6875 9.7031-6.6875 28.109 0 17.281 8.2031 27.562t22.016 10.281q3.7188 0 7.5-0.73438t7.8906-2.1875z"/>
</defs>
<g transform="translate(73.374 526.62) scale(.1 -.1)">
<use xlink:href="#c"/>
<use x="63.623047" xlink:href="#f"/>
<use x="95.410156" xlink:href="#c"/>
<use x="159.033203" xlink:href="#aa"/>
</g>
</g>
<g clip-path="url(#a)">
<g transform="translate(304.61 647.34) scale(.1 -.1)">
<use xlink:href="#c"/>
<use x="63.623047" xlink:href="#f"/>
<use x="95.410156" xlink:href="#c"/>
<use x="159.033203" xlink:href="#y"/>
</g>
</g>
<g clip-path="url(#a)">
<g transform="translate(428.29 405.27) scale(.1 -.1)">
<use xlink:href="#c"/>
<use x="63.623047" xlink:href="#f"/>
<use x="95.410156" xlink:href="#c"/>
<use x="159.033203" xlink:href="#x"/>
</g>
</g>
<g clip-path="url(#a)">
<g transform="translate(729.25 405.27) scale(.1 -.1)">
<use xlink:href="#c"/>
<use x="63.623047" xlink:href="#f"/>
<use x="95.410156" xlink:href="#c"/>
<use x="159.033203" xlink:href="#w"/>
</g>
</g>
<g clip-path="url(#a)">
<defs>
<path id="af" d="m31.781 66.406q-7.6094 0-11.453-7.5-3.8281-7.4844-3.8281-22.531 0-14.984 3.8281-22.484 3.8438-7.5 11.453-7.5 7.6719 0 11.5 7.5 3.8438 7.5 3.8438 22.484 0 15.047-3.8438 22.531-3.8281 7.5-11.5 7.5zm0 7.8125q12.266 0 18.734-9.7031 6.4688-9.6875 6.4688-28.141 0-18.406-6.4688-28.109-6.4688-9.6875-18.734-9.6875-12.25 0-18.719 9.6875-6.4688 9.7031-6.4688 28.109 0 18.453 6.4688 28.141 6.4688 9.7031 18.719 9.7031z"/>
</defs>
<g transform="translate(890.41 647.34) scale(.1 -.1)">
<use xlink:href="#c"/>
<use x="63.623047" xlink:href="#f"/>
<use x="95.410156" xlink:href="#o"/>
<use x="159.033203" xlink:href="#af"/>
</g>
</g>
<g clip-path="url(#a)">
<g transform="translate(1225.8 405.27) scale(.1 -.1)">
<use xlink:href="#c"/>
<use x="63.623047" xlink:href="#f"/>
<use x="95.410156" xlink:href="#o"/>
<use x="159.033203" xlink:href="#c"/>
</g>
</g>
<g clip-path="url(#a)">
<g transform="translate(996.92 526.62) scale(.1 -.1)">
<use xlink:href="#c"/>
<use x="63.623047" xlink:href="#f"/>
<use x="95.410156" xlink:href="#o"/>
<use x="159.033203" xlink:href="#n"/>
</g>
</g>
<g clip-path="url(#a)">
<g transform="translate(1109 647.34) scale(.1 -.1)">
<use xlink:href="#c"/>
<use x="63.623047" xlink:href="#f"/>
<use x="95.410156" xlink:href="#o"/>
<use x="159.033203" xlink:href="#m"/>
</g>
</g>
<g clip-path="url(#a)">
<g transform="translate(960.48 647.34) scale(.1 -.1)">
<use xlink:href="#c"/>
<use x="63.623047" xlink:href="#f"/>
<use x="95.410156" xlink:href="#o"/>
<use x="159.033203" xlink:href="#ab"/>
</g>
</g>
<g clip-path="url(#a)">
<g transform="translate(1033.4 647.34) scale(.1 -.1)">
<use xlink:href="#c"/>
<use x="63.623047" xlink:href="#f"/>
<use x="95.410156" xlink:href="#o"/>
<use x="159.033203" xlink:href="#aa"/>
</g>
</g>
<g clip-path="url(#a)">
<g transform="translate(638.15 647.34) scale(.1 -.1)">
<use xlink:href="#c"/>
<use x="63.623047" xlink:href="#f"/>
<use x="95.410156" xlink:href="#o"/>
<use x="159.033203" xlink:href="#y"/>
</g>
</g>
<g clip-path="url(#a)">
<g transform="translate(697.01 647.34) scale(.1 -.1)">
<use xlink:href="#c"/>
<use x="63.623047" xlink:href="#f"/>
<use x="95.410156" xlink:href="#o"/>
<use x="159.033203" xlink:href="#x"/>
</g>
</g>
<g clip-path="url(#a)">
<g transform="translate(758.68 526.62) scale(.1 -.1)">
<use xlink:href="#c"/>
<use x="63.623047" xlink:href="#f"/>
<use x="95.410156" xlink:href="#o"/>
<use x="159.033203" xlink:href="#w"/>
</g>
</g>
<g clip-path="url(#a)">
<g transform="translate(823.14 647.34) scale(.1 -.1)">
<use xlink:href="#c"/>
<use x="63.623047" xlink:href="#f"/>
<use x="95.410156" xlink:href="#n"/>
<use x="159.033203" xlink:href="#af"/>
</g>
</g>
<g clip-path="url(#a)">
<g transform="translate(758.68 647.34) scale(.1 -.1)">
<use xlink:href="#c"/>
<use x="63.623047" xlink:href="#f"/>
<use x="95.410156" xlink:href="#n"/>
<use x="159.033203" xlink:href="#c"/>
</g>
</g>
<g clip-path="url(#a)">
<g transform="translate(343.85 647.34) scale(.1 -.1)">
<use xlink:href="#c"/>
<use x="63.623047" xlink:href="#f"/>
<use x="95.410156" xlink:href="#n"/>
<use x="159.033203" xlink:href="#o"/>
</g>
</g>
<g clip-path="url(#a)">
<g transform="translate(385.89 647.34) scale(.1 -.1)">
<use xlink:href="#c"/>
<use x="63.623047" xlink:href="#f"/>
<use x="95.410156" xlink:href="#n"/>
<use x="159.033203" xlink:href="#n"/>
</g>
</g>
<g clip-path="url(#a)">
<g transform="translate(454.57 526.62) scale(.1 -.1)">
<use xlink:href="#c"/>
<use x="63.623047" xlink:href="#f"/>
<use x="95.410156" xlink:href="#n"/>
<use x="159.033203" xlink:href="#m"/>
</g>
</g>
<g clip-path="url(#a)">
<g transform="translate(528.84 647.34) scale(.1 -.1)">
<use xlink:href="#c"/>
<use x="63.623047" xlink:href="#f"/>
<use x="95.410156" xlink:href="#n"/>
<use x="159.033203" xlink:href="#ab"/>
</g>
</g>
<g clip-path="url(#a)">
<g transform="translate(430.74 647.34) scale(.1 -.1)">
<use xlink:href="#c"/>
<use x="63.623047" xlink:href="#f"/>
<use x="95.410156" xlink:href="#n"/>
<use x="159.033203" xlink:href="#aa"/>
</g>
</g>
<g clip-path="url(#a)">
<g transform="translate(478.39 647.34) scale(.1 -.1)">
<use xlink:href="#c"/>
<use x="63.623047" xlink:href="#f"/>
<use x="95.410156" xlink:href="#n"/>
<use x="159.033203" xlink:href="#y"/>
</g>
</g>
<g clip-path="url(#a)">
<g transform="translate(57.958 647.34) scale(.1 -.1)">
<use xlink:href="#c"/>
<use x="63.623047" xlink:href="#f"/>
<use x="95.410156" xlink:href="#n"/>
<use x="159.033203" xlink:href="#x"/>
</g>
</g>
<g clip-path="url(#a)">
<g transform="translate(66.367 647.34) scale(.1 -.1)">
<use xlink:href="#c"/>
<use x="63.623047" xlink:href="#f"/>
<use x="95.410156" xlink:href="#n"/>
<use x="159.033203" xlink:href="#w"/>
</g>
</g>
<g clip-path="url(#a)">
<g transform="translate(77.578 647.34) scale(.1 -.1)">
<use xlink:href="#c"/>
<use x="63.623047" xlink:href="#f"/>
<use x="95.410156" xlink:href="#m"/>
<use x="159.033203" xlink:href="#af"/>
</g>
</g>
<g clip-path="url(#a)">
<g transform="translate(91.593 647.34) scale(.1 -.1)">
<use xlink:href="#c"/>
<use x="63.623047" xlink:href="#f"/>
<use x="95.410156" xlink:href="#m"/>
<use x="159.033203" xlink:href="#c"/>
</g>
</g>
<g clip-path="url(#a)">
<g transform="translate(108.41 647.34) scale(.1 -.1)">
<use xlink:href="#c"/>
<use x="63.623047" xlink:href="#f"/>
<use x="95.410156" xlink:href="#m"/>
<use x="159.033203" xlink:href="#o"/>
</g>
</g>
<g clip-path="url(#a)">
<g transform="translate(128.03 647.34) scale(.1 -.1)">
<use xlink:href="#c"/>
<use x="63.623047" xlink:href="#f"/>
<use x="95.410156" xlink:href="#m"/>
<use x="159.033203" xlink:href="#n"/>
</g>
</g>
<g clip-path="url(#a)">
<g transform="translate(268.17 647.34) scale(.1 -.1)">
<use xlink:href="#c"/>
<use x="63.623047" xlink:href="#f"/>
<use x="95.410156" xlink:href="#m"/>
<use x="159.033203" xlink:href="#m"/>
</g>
</g>
<g clip-path="url(#a)">
<g transform="translate(582.1 647.34) scale(.1 -.1)">
<use xlink:href="#c"/>
<use x="63.623047" xlink:href="#f"/>
<use x="95.410156" xlink:href="#m"/>
<use x="159.033203" xlink:href="#ab"/>
</g>
</g>
<g clip-path="url(#a)">
<g transform="translate(1187.5 647.34) scale(.1 -.1)">
<use xlink:href="#c"/>
<use x="63.623047" xlink:href="#f"/>
<use x="95.410156" xlink:href="#m"/>
<use x="159.033203" xlink:href="#aa"/>
</g>
</g>
<g clip-path="url(#a)">
<g transform="translate(1268.8 647.34) scale(.1 -.1)">
<use xlink:href="#c"/>
<use x="63.623047" xlink:href="#f"/>
<use x="95.410156" xlink:href="#m"/>
<use x="159.033203" xlink:href="#y"/>
</g>
</g>
<g clip-path="url(#a)">
<g transform="translate(1352.9 647.34) scale(.1 -.1)">
<use xlink:href="#c"/>
<use x="63.623047" xlink:href="#f"/>
<use x="95.410156" xlink:href="#m"/>
<use x="159.033203" xlink:href="#x"/>
</g>
</g>
<g clip-path="url(#a)">
<g transform="translate(1439.8 647.34) scale(.1 -.1)">
<use xlink:href="#c"/>
<use x="63.623047" xlink:href="#f"/>
<use x="95.410156" xlink:href="#m"/>
<use x="159.033203" xlink:href="#w"/>
</g>
</g>
<defs>
<clipPath id="a">
<rect width="1520" height="800"/>
</clipPath>
</defs>
</svg>
