<?xml version="1.0" encoding="UTF-8"?>
<!DOCTYPE svg  PUBLIC '-//W3C//DTD SVG 1.1//EN'  'http://www.w3.org/Graphics/SVG/1.1/DTD/svg11.dtd'>
<svg width="1013.3pt" height="533.33pt" version="1.1" viewBox="0 0 1013.3 533.33" xmlns="http://www.w3.org/2000/svg" xmlns:xlink="http://www.w3.org/1999/xlink">
<defs>
<style type="text/css">*{stroke-linecap:butt;stroke-linejoin:round;}</style>
</defs>
<path d="m0 533.33h1013.3v-533.33h-1013.3z" fill="#fff"/>
<g fill="none" stroke="#000">
<path d="m373.29 25.155-326.93 404.97" clip-path="url(#a)"/>
<path d="m373.29 25.155 326.93 84.603" clip-path="url(#a)"/>
<path d="m46.359 430.12v78.055" clip-path="url(#a)"/>
<path d="m700.23 109.76-470.15 82.503" clip-path="url(#a)"/>
<path d="m700.23 109.76-120.88 320.36" clip-path="url(#a)"/>
<path d="m700.23 109.76-15.899 82.503" clip-path="url(#a)"/>
<path d="m700.23 109.76 121.39 320.36" clip-path="url(#a)"/>
<path d="m700.23 109.76-169.33 320.36" clip-path="url(#a)"/>
<path d="m700.23 109.76 169.84 320.36" clip-path="url(#a)"/>
<path d="m700.23 109.76 218.29 320.36" clip-path="url(#a)"/>
<path d="m700.23 109.76 266.75 320.36" clip-path="url(#a)"/>
<path d="m230.08 192.26-135.27 237.86" clip-path="url(#a)"/>
<path d="m230.08 192.26-38.359 159.81" clip-path="url(#a)"/>
<path d="m230.08 192.26-38.359 237.86" clip-path="url(#a)"/>
<path d="m230.08 192.26 10.094 237.86" clip-path="url(#a)"/>
<path d="m230.08 192.26 143.34 80.665" clip-path="url(#a)"/>
<path d="m230.08 192.26 58.548 237.86" clip-path="url(#a)"/>
<path d="m579.35 430.12v78.055" clip-path="url(#a)"/>
<path d="m684.33 192.26-56.529 237.86" clip-path="url(#a)"/>
<path d="m684.33 192.26-8.0756 237.86" clip-path="url(#a)"/>
<path d="m684.33 192.26 64.605 80.665" clip-path="url(#a)"/>
<path d="m821.61 430.12v78.055" clip-path="url(#a)"/>
<path d="m627.8 430.12v78.055" clip-path="url(#a)"/>
<path d="m676.25 430.12v78.055" clip-path="url(#a)"/>
<path d="m748.93 272.93-24.227 157.2" clip-path="url(#a)"/>
<path d="m748.93 272.93 24.227 79.141" clip-path="url(#a)"/>
<path d="m724.71 430.12v78.055" clip-path="url(#a)"/>
<path d="m773.16 352.07v78.055" clip-path="url(#a)"/>
<path d="m773.16 430.12v78.055" clip-path="url(#a)"/>
<path d="m94.812 430.12v78.055" clip-path="url(#a)"/>
<path d="m191.72 352.07 48.453 78.055" clip-path="url(#a)" stroke-dasharray="3.7,1.6"/>
<path d="m191.72 352.07-48.453 78.055" clip-path="url(#a)"/>
<path d="m191.72 430.12v78.055" clip-path="url(#a)"/>
<path d="m240.17 430.12v78.055" clip-path="url(#a)"/>
<path d="m373.42 272.93-133.25 157.2" clip-path="url(#a)" stroke-dasharray="3.7,1.6"/>
<path d="m373.42 272.93-36.34 157.2" clip-path="url(#a)"/>
<path d="m373.42 272.93 60.567 79.141" clip-path="url(#a)"/>
<path d="m373.42 272.93 109.02 157.2" clip-path="url(#a)"/>
<path d="m337.08 430.12v78.055" clip-path="url(#a)"/>
<path d="m433.99 352.07 48.453 78.055" clip-path="url(#a)" stroke-dasharray="3.7,1.6"/>
<path d="m433.99 352.07-48.453 78.055" clip-path="url(#a)"/>
<path d="m433.99 352.07v78.055" clip-path="url(#a)"/>
<path d="m482.44 430.12v78.055" clip-path="url(#a)"/>
<path d="m385.53 430.12v78.055" clip-path="url(#a)"/>
<path d="m433.99 430.12v78.055" clip-path="url(#a)"/>
<path d="m143.27 430.12v78.055" clip-path="url(#a)"/>
<path d="m288.63 430.12v78.055" clip-path="url(#a)"/>
<path d="m530.89 430.12v78.055" clip-path="url(#a)"/>
<path d="m870.07 430.12v78.055" clip-path="url(#a)"/>
<path d="m918.52 430.12v78.055" clip-path="url(#a)"/>
<path d="m966.97 430.12v78.055" clip-path="url(#a)"/>
</g>
<path d="m213.31 233.31 2.8-3.4683q1.5076-1.8674-0.35983-3.375l-6.0243-4.8635q-1.8674-1.5076-3.375 0.35983l-2.8 3.4683q-1.5076 1.8674 0.35983 3.375l6.0243 4.8635q1.8674 1.5076 3.375-0.35983z" clip-path="url(#a)" fill="#fff" stroke="#fff"/>
<g clip-path="url(#a)">
<defs>
<path id="aq" d="m9.8125 72.906h9.8594v-64.609h35.5v-8.2969h-45.359z"/>
</defs>
<g transform="translate(210.14 230.76) rotate(-51.086) scale(.08 -.08)">
<use xlink:href="#aq"/>
</g>
</g>
<path d="m532.28 72.774 5.8244 1.5072q2.3235 0.60126 2.9247-1.7222l1.9397-7.4956q0.60126-2.3235-1.7222-2.9247l-5.8244-1.5072q-2.3235-0.60126-2.9247 1.7222l-1.9397 7.4956q-0.60126 2.3235 1.7222 2.9247z" clip-path="url(#a)" fill="#fff" stroke="#fff"/>
<g clip-path="url(#a)">
<defs>
<path id="ah" d="m9.8125 72.906h9.8594v-29.891h35.844v29.891h9.8594v-72.906h-9.8594v34.719h-35.844v-34.719h-9.8594z"/>
</defs>
<g transform="translate(533.3 68.84) rotate(14.509) scale(.08 -.08)">
<use xlink:href="#ah"/>
</g>
</g>
<path d="m40.088 451.51v35.285q0 2.4 2.4 2.4h7.7425q2.4 0 2.4-2.4v-35.285q0-2.4-2.4-2.4h-7.7425q-2.4 0-2.4 2.4z" clip-path="url(#a)" fill="#fff" stroke="#fff"/>
<g clip-path="url(#a)">
<defs>
<path id="k" d="m-0.29688 72.906h61.672v-8.3125h-25.875v-64.594h-9.9062v64.594h-25.891z"/>
<path id="d" d="m56.203 29.594v-4.3906h-41.312q0.59375-9.2812 5.5938-14.141t13.938-4.8594q5.1719 0 10.031 1.2656t9.6562 3.8125v-8.5q-4.8438-2.0469-9.9219-3.125t-10.297-1.0781q-13.094 0-20.734 7.6094-7.6406 7.625-7.6406 20.625 0 13.422 7.25 21.297 7.25 7.8906 19.562 7.8906 11.031 0 17.453-7.1094 6.4219-7.0938 6.4219-19.297zm-8.9844 2.6406q-0.09375 7.3594-4.125 11.75-4.0312 4.4062-10.672 4.4062-7.5156 0-12.031-4.25t-5.2031-11.969z"/>
<path id="f" d="m41.109 46.297q-1.5156 0.875-3.2969 1.2812-1.7812 0.42188-3.9219 0.42188-7.625 0-11.703-4.9531t-4.0781-14.234v-28.812h-9.0312v54.688h9.0312v-8.5q2.8438 4.9844 7.375 7.3906 4.5469 2.4219 11.047 2.4219 0.92188 0 2.0469-0.125 1.125-0.10938 2.4844-0.35938z"/>
<path id="l" d="m52 44.188q3.375 6.0625 8.0625 8.9375t11.031 2.875q8.5469 0 13.188-5.9844 4.6406-5.9688 4.6406-17v-33.016h-9.0312v32.719q0 7.8594-2.7969 11.656-2.7812 3.8125-8.4844 3.8125-6.9844 0-11.047-4.6406-4.0469-4.625-4.0469-12.641v-30.906h-9.0312v32.719q0 7.9062-2.7812 11.688t-8.5938 3.7812q-6.8906 0-10.953-4.6562-4.0469-4.6562-4.0469-12.625v-30.906h-9.0312v54.688h9.0312v-8.5q3.0781 5.0312 7.375 7.4219t10.203 2.3906q5.9688 0 10.141-3.0312 4.1719-3.0156 6.1719-8.7812z"/>
<path id="i" d="m9.4219 54.688h8.9844v-54.688h-8.9844zm0 21.297h8.9844v-11.391h-8.9844z"/>
<path id="g" d="m54.891 33.016v-33.016h-8.9844v32.719q0 7.7656-3.0312 11.609-3.0312 3.8594-9.0781 3.8594-7.2812 0-11.484-4.6406-4.2031-4.625-4.2031-12.641v-30.906h-9.0312v54.688h9.0312v-8.5q3.2344 4.9375 7.5938 7.375 4.375 2.4375 10.094 2.4375 9.4219 0 14.25-5.8281 4.8438-5.8281 4.8438-17.156z"/>
<path id="j" d="m34.281 27.484q-10.891 0-15.094-2.4844t-4.2031-8.5q0-4.7812 3.1562-7.5938 3.1562-2.7969 8.5625-2.7969 7.4844 0 12 5.2969t4.5156 14.078v2zm17.922 3.7188v-31.203h-8.9844v8.2969q-3.0781-4.9688-7.6719-7.3438t-11.234-2.375q-8.3906 0-13.359 4.7188-4.9531 4.7188-4.9531 12.625 0 9.2188 6.1719 13.906 6.1875 4.6875 18.438 4.6875h12.609v0.89062q0 6.2031-4.0781 9.5938t-11.453 3.3906q-4.6875 0-9.1406-1.125-4.4375-1.125-8.5312-3.375v8.3125q4.9219 1.9062 9.5625 2.8438 4.6406 0.95312 9.0312 0.95312 11.875 0 17.734-6.1562 5.8594-6.1406 5.8594-18.641z"/>
<path id="h" d="m9.4219 75.984h8.9844v-75.984h-8.9844z"/>
</defs>
<g transform="translate(44.151 451.51) rotate(90) scale(.08 -.08)">
<use xlink:href="#k"/>
<use x="60.818359" xlink:href="#d"/>
<use x="122.341797" xlink:href="#f"/>
<use x="163.439453" xlink:href="#l"/>
<use x="260.851562" xlink:href="#i"/>
<use x="288.634766" xlink:href="#g"/>
<use x="352.013672" xlink:href="#j"/>
<use x="413.292969" xlink:href="#h"/>
</g>
</g>
<path d="m463.54 157.66 5.3901-0.94588q2.3639-0.41482 1.9491-2.7787l-1.3382-7.626q-0.41482-2.3639-2.7787-1.9491l-5.3901 0.94588q-2.3639 0.41482-1.9491 2.7787l1.3382 7.626q0.41482 2.3639 2.7787 1.9491z" clip-path="url(#a)" fill="#fff" stroke="#fff"/>
<g clip-path="url(#a)">
<defs>
<path id="o" d="m34.188 63.188-13.391-36.281h26.812zm-5.5781 9.7188h11.188l27.781-72.906h-10.25l-6.6406 18.703h-32.859l-6.6406-18.703h-10.406z"/>
</defs>
<g transform="translate(462.84 153.66) rotate(-9.9531) scale(.08 -.08)">
<use xlink:href="#o"/>
</g>
</g>
<path d="m644.57 275.04 2.1747-5.7634q0.84727-2.2455-1.3982-3.0927l-7.244-2.7333q-2.2455-0.84727-3.0927 1.3982l-2.1747 5.7634q-0.84727 2.2455 1.3982 3.0927l7.244 2.7333q2.2455 0.84727 3.0927-1.3982z" clip-path="url(#a)" fill="#fff" stroke="#fff"/>
<g clip-path="url(#a)">
<defs>
<path id="y" d="m19.672 64.797v-56.688h11.922q15.094 0 22.094 6.8281 7 6.8438 7 21.594 0 14.641-7 21.453t-22.094 6.8125zm-9.8594 8.1094h20.266q21.188 0 31.094-8.8125 9.9219-8.8125 9.9219-27.562 0-18.859-9.9688-27.703-9.9531-8.8281-31.047-8.8281h-20.266z"/>
</defs>
<g transform="translate(640.77 273.6) rotate(-69.327) scale(.08 -.08)">
<use xlink:href="#y"/>
</g>
</g>
<path d="m697.92 154.88 1.0355-5.3736q0.45414-2.3566-1.9025-2.8108l-7.6026-1.4651q-2.3566-0.45414-2.8108 1.9025l-1.0355 5.3736q-0.45414 2.3566 1.9025 2.8108l7.6026 1.4651q2.3566 0.45414 2.8108-1.9025z" clip-path="url(#a)" fill="#fff" stroke="#fff"/>
<g clip-path="url(#a)">
<g transform="translate(693.93 154.11) rotate(-79.092) scale(.08 -.08)">
<use xlink:href="#o"/>
</g>
</g>
<path d="m754.2 269.91 1.7091 4.5108q0.85036 2.2443 3.0947 1.3939l7.2402-2.7433q2.2443-0.85036 1.3939-3.0947l-1.7091-4.5108q-0.85036-2.2443-3.0947-1.3939l-7.2402 2.7433q-2.2443 0.85036-1.3939 3.0947z" clip-path="url(#a)" fill="#fff" stroke="#fff"/>
<g clip-path="url(#a)">
<defs>
<path id="x" d="m19.672 64.797v-27.391h12.406q6.8906 0 10.641 3.5625 3.7656 3.5625 3.7656 10.156 0 6.5469-3.7656 10.109-3.75 3.5625-10.641 3.5625zm-9.8594 8.1094h22.266q12.266 0 18.531-5.5469 6.2812-5.5469 6.2812-16.234 0-10.797-6.2812-16.312-6.2656-5.5156-18.531-5.5156h-12.406v-29.297h-9.8594z"/>
</defs>
<g transform="translate(758 268.47) rotate(69.248) scale(.08 -.08)">
<use xlink:href="#x"/>
</g>
</g>
<path d="m619.74 275.46 2.7361-5.1764q1.1215-2.1218-1.0003-3.2434l-6.8451-3.6181q-2.1218-1.1215-3.2434 1.0003l-2.7361 5.1764q-1.1215 2.1218 1.0003 3.2434l6.8451 3.6181q2.1218 1.1215 3.2434-1.0003z" clip-path="url(#a)" fill="#fff" stroke="#fff"/>
<g clip-path="url(#a)">
<defs>
<path id="p" d="m8.6875 72.906h9.9219v-44.297q0-11.719 4.2344-16.875 4.25-5.1406 13.781-5.1406 9.4688 0 13.719 5.1406 4.25 5.1562 4.25 16.875v44.297h9.9062v-45.516q0-14.25-7.0625-21.531-7.0469-7.2812-20.812-7.2812-13.828 0-20.891 7.2812-7.0469 7.2812-7.0469 21.531z"/>
</defs>
<g transform="translate(616.14 273.56) rotate(-62.14) scale(.08 -.08)">
<use xlink:href="#p"/>
</g>
</g>
<path d="m778.24 270.29 2.7424 5.173q1.1241 2.1204 3.2446 0.9963l6.8407-3.6265q2.1204-1.1241 0.99631-3.2446l-2.7424-5.173q-1.1241-2.1204-3.2446-0.9963l-6.8407 3.6265q-2.1204 1.1241-0.99631 3.2446z" clip-path="url(#a)" fill="#fff" stroke="#fff"/>
<g clip-path="url(#a)">
<g transform="translate(781.83 268.39) rotate(62.07) scale(.08 -.08)">
<use xlink:href="#p"/>
</g>
</g>
<path d="m802.54 271.05 3.2969 4.8385q1.3514 1.9833 3.3348 0.63192l6.3983-4.3598q1.9833-1.3514 0.63192-3.3348l-3.2969-4.8385q-1.3514-1.9833-3.3348-0.63192l-6.3983 4.3598q-1.9833 1.3514-0.63192 3.3348z" clip-path="url(#a)" fill="#fff" stroke="#fff"/>
<g clip-path="url(#a)">
<g transform="translate(805.9 268.76) rotate(55.73) scale(.08 -.08)">
<use xlink:href="#p"/>
</g>
</g>
<path d="m826.91 271.7 3.7464 4.4995q1.5357 1.8444 3.38 0.30869l5.95-4.9542q1.8444-1.5357 0.30868-3.38l-3.7464-4.4995q-1.5357-1.8444-3.38-0.30869l-5.95 4.9542q-1.8444 1.5357-0.30868 3.38z" clip-path="url(#a)" fill="#fff" stroke="#fff"/>
<g clip-path="url(#a)">
<g transform="translate(830.03 269.1) rotate(50.218) scale(.08 -.08)">
<use xlink:href="#p"/>
</g>
</g>
<path d="m166.76 316.29 2.2746-3.9997q1.1864-2.0863-0.89985-3.2727l-6.7303-3.8274q-2.0863-1.1864-3.2727 0.89985l-2.2746 3.9997q-1.1864 2.0863 0.89985 3.2727l6.7303 3.8274q2.0863 1.1864 3.2727-0.89985z" clip-path="url(#a)" fill="#fff" stroke="#fff"/>
<g clip-path="url(#a)">
<defs>
<path id="ai" d="m9.8125 72.906h41.891v-8.3125h-32.031v-21.484h28.906v-8.2969h-28.906v-34.812h-9.8594z"/>
</defs>
<g transform="translate(163.23 314.28) rotate(-60.374) scale(.08 -.08)">
<use xlink:href="#ai"/>
</g>
</g>
<path d="m216.41 276.09 1.1799-4.9154q0.56017-2.3337-1.7735-2.8939l-7.5286-1.8071q-2.3337-0.56017-2.8939 1.7735l-1.1799 4.9154q-0.56017 2.3337 1.7735 2.8939l7.5286 1.8071q2.3337 0.56017 2.8939-1.7735z" clip-path="url(#a)" fill="#fff" stroke="#fff"/>
<g clip-path="url(#a)">
<defs>
<path id="t" d="m9.8125 72.906h46.094v-8.3125h-36.234v-21.578h34.719v-8.2969h-34.719v-26.422h37.109v-8.2969h-46.969z"/>
</defs>
<g transform="translate(212.46 275.14) rotate(-76.502) scale(.08 -.08)">
<use xlink:href="#t"/>
</g>
</g>
<path d="m216.69 314.69 0.8048-4.9905q0.3821-2.3694-1.9873-2.7515l-7.6437-1.2327q-2.3694-0.3821-2.7515 1.9873l-0.8048 4.9905q-0.3821 2.3694 1.9873 2.7515l7.6437 1.2327q2.3694 0.3821 2.7515-1.9873z" clip-path="url(#a)" fill="#fff" stroke="#fff"/>
<g clip-path="url(#a)">
<g transform="translate(212.68 314.04) rotate(-80.839) scale(.08 -.08)">
<use xlink:href="#t"/>
</g>
</g>
<path d="m228.74 308.67 0.23686 5.5812q0.10176 2.3978 2.4996 2.2961l7.7355-0.32828q2.3978-0.10176 2.2961-2.4996l-0.23686-5.5812q-0.10176-2.3978-2.4996-2.2961l-7.7355 0.32828q-2.3978 0.10176-2.2961 2.4996z" clip-path="url(#a)" fill="#fff" stroke="#fff"/>
<g clip-path="url(#a)">
<defs>
<path id="z" d="m64.406 67.281v-10.391q-4.9844 4.6406-10.625 6.9219-5.6406 2.2969-11.984 2.2969-12.5 0-19.141-7.6406t-6.6406-22.094q0-14.406 6.6406-22.047t19.141-7.6406q6.3438 0 11.984 2.2969t10.625 6.9375v-10.312q-5.1719-3.5156-10.969-5.2812-5.7812-1.75-12.219-1.75-16.562 0-26.094 10.125-9.5156 10.141-9.5156 27.672 0 17.578 9.5156 27.703 9.5312 10.141 26.094 10.141 6.5312 0 12.312-1.7344 5.7969-1.7344 10.875-5.2031z"/>
</defs>
<g transform="translate(232.8 308.5) rotate(87.57) scale(.08 -.08)">
<use xlink:href="#z"/>
</g>
</g>
<path d="m296.47 236.82 4.4053 2.4791q2.0916 1.177 3.2686-0.91454l3.7971-6.7475q1.177-2.0916-0.91454-3.2686l-4.4053-2.4791q-2.0916-1.177-3.2686 0.91454l-3.7971 6.7475q-1.177 2.0916 0.91454 3.2686z" clip-path="url(#a)" fill="#fff" stroke="#fff"/>
<g clip-path="url(#a)">
<g transform="translate(298.46 233.28) rotate(29.369) scale(.08 -.08)">
<use xlink:href="#t"/>
</g>
</g>
<path d="m252.56 309.85 1.3994 5.6853q0.57362 2.3304 2.9041 1.7568l7.5181-1.8505q2.3304-0.57362 1.7568-2.9041l-1.3994-5.6853q-0.57362-2.3304-2.9041-1.7568l-7.5181 1.8505q-2.3304 0.57362-1.7568 2.9041z" clip-path="url(#a)" fill="#fff" stroke="#fff"/>
<g clip-path="url(#a)">
<g transform="translate(256.51 308.88) rotate(76.172) scale(.08 -.08)">
<use xlink:href="#p"/>
</g>
</g>
<path d="m573.08 451.51v35.285q0 2.4 2.4 2.4h7.7425q2.4 0 2.4-2.4v-35.285q0-2.4-2.4-2.4h-7.7425q-2.4 0-2.4 2.4z" clip-path="url(#a)" fill="#fff" stroke="#fff"/>
<g clip-path="url(#a)">
<g transform="translate(577.14 451.51) rotate(90) scale(.08 -.08)">
<use xlink:href="#k"/>
<use x="60.818359" xlink:href="#d"/>
<use x="122.341797" xlink:href="#f"/>
<use x="163.439453" xlink:href="#l"/>
<use x="260.851562" xlink:href="#i"/>
<use x="288.634766" xlink:href="#g"/>
<use x="352.013672" xlink:href="#j"/>
<use x="413.292969" xlink:href="#h"/>
</g>
</g>
<path d="m661.63 314.88 1.0639-4.4766q0.55492-2.335-1.78-2.8899l-7.5327-1.7902q-2.335-0.55492-2.8899 1.78l-1.0639 4.4766q-0.55492 2.335 1.78 2.8899l7.5327 1.7902q2.335 0.55492 2.8899-1.78z" clip-path="url(#a)" fill="#fff" stroke="#fff"/>
<g clip-path="url(#a)">
<g transform="translate(657.68 313.94) rotate(-76.631) scale(.08 -.08)">
<use xlink:href="#ai"/>
</g>
</g>
<path d="m686.46 314.2 0.18955-5.583q0.081435-2.3986-2.3172-2.4801l-7.738-0.26271q-2.3986-0.081435-2.4801 2.3172l-0.18955 5.583q-0.081435 2.3986 2.3172 2.4801l7.738 0.26271q2.3986 0.081435 2.4801-2.3172z" clip-path="url(#a)" fill="#fff" stroke="#fff"/>
<g clip-path="url(#a)">
<g transform="translate(682.4 314.06) rotate(-88.056) scale(.08 -.08)">
<use xlink:href="#z"/>
</g>
</g>
<path d="m710.16 234.54 3.16 3.9456q1.5003 1.8733 3.3736 0.37297l6.0432-4.84q1.8733-1.5003 0.37297-3.3736l-3.16-3.9456q-1.5003-1.8733-3.3736-0.37297l-6.0432 4.84q-1.8733 1.5003-0.37297 3.3736z" clip-path="url(#a)" fill="#fff" stroke="#fff"/>
<g clip-path="url(#a)">
<g transform="translate(713.33 232) rotate(51.309) scale(.08 -.08)">
<use xlink:href="#t"/>
</g>
</g>
<path d="m815.34 451.51v35.285q0 2.4 2.4 2.4h7.7425q2.4 0 2.4-2.4v-35.285q0-2.4-2.4-2.4h-7.7425q-2.4 0-2.4 2.4z" clip-path="url(#a)" fill="#fff" stroke="#fff"/>
<g clip-path="url(#a)">
<g transform="translate(819.41 451.51) rotate(90) scale(.08 -.08)">
<use xlink:href="#k"/>
<use x="60.818359" xlink:href="#d"/>
<use x="122.341797" xlink:href="#f"/>
<use x="163.439453" xlink:href="#l"/>
<use x="260.851562" xlink:href="#i"/>
<use x="288.634766" xlink:href="#g"/>
<use x="352.013672" xlink:href="#j"/>
<use x="413.292969" xlink:href="#h"/>
</g>
</g>
<path d="m621.53 451.51v35.285q0 2.4 2.4 2.4h7.7425q2.4 0 2.4-2.4v-35.285q0-2.4-2.4-2.4h-7.7425q-2.4 0-2.4 2.4z" clip-path="url(#a)" fill="#fff" stroke="#fff"/>
<g clip-path="url(#a)">
<g transform="translate(625.59 451.51) rotate(90) scale(.08 -.08)">
<use xlink:href="#k"/>
<use x="60.818359" xlink:href="#d"/>
<use x="122.341797" xlink:href="#f"/>
<use x="163.439453" xlink:href="#l"/>
<use x="260.851562" xlink:href="#i"/>
<use x="288.634766" xlink:href="#g"/>
<use x="352.013672" xlink:href="#j"/>
<use x="413.292969" xlink:href="#h"/>
</g>
</g>
<path d="m669.98 451.51v35.285q0 2.4 2.4 2.4h7.7425q2.4 0 2.4-2.4v-35.285q0-2.4-2.4-2.4h-7.7425q-2.4 0-2.4 2.4z" clip-path="url(#a)" fill="#fff" stroke="#fff"/>
<g clip-path="url(#a)">
<g transform="translate(674.05 451.51) rotate(90) scale(.08 -.08)">
<use xlink:href="#k"/>
<use x="60.818359" xlink:href="#d"/>
<use x="122.341797" xlink:href="#f"/>
<use x="163.439453" xlink:href="#l"/>
<use x="260.851562" xlink:href="#i"/>
<use x="288.634766" xlink:href="#g"/>
<use x="352.013672" xlink:href="#j"/>
<use x="413.292969" xlink:href="#h"/>
</g>
</g>
<path d="m742.6 355.23 0.8467-5.4939q0.36557-2.372-2.0064-2.7376l-7.6522-1.1793q-2.372-0.36557-2.7376 2.0064l-0.8467 5.4939q-0.36557 2.372 2.0064 2.7376l7.6522 1.1793q2.372 0.36557 2.7376-2.0064z" clip-path="url(#a)" fill="#fff" stroke="#fff"/>
<g clip-path="url(#a)">
<defs>
<path id="ag" d="m44.391 34.188q3.1719-1.0781 6.1719-4.5938t6.0312-9.6719l10.016-19.922h-10.609l-9.3125 18.703q-3.625 7.3281-7.0156 9.7188t-9.25 2.3906h-10.75v-30.812h-9.8594v72.906h22.266q12.5 0 18.656-5.2344 6.1562-5.2188 6.1562-15.766 0-6.8906-3.2031-11.438-3.2031-4.5312-9.2969-6.2812zm-24.719 30.609v-25.875h12.406q7.125 0 10.766 3.2969t3.6406 9.6875-3.6406 9.6406-10.766 3.25z"/>
</defs>
<g transform="translate(738.58 354.61) rotate(-81.239) scale(.08 -.08)">
<use xlink:href="#ag"/>
</g>
</g>
<path d="m754.23 311.66 1.6352 5.3416q0.70251 2.2949 2.9974 1.5924l7.4034-2.2663q2.2949-0.70251 1.5924-2.9974l-1.6352-5.3416q-0.70251-2.2949-2.9974-1.5924l-7.4034 2.2663q-2.2949 0.70251-1.5924 2.9974z" clip-path="url(#a)" fill="#fff" stroke="#fff"/>
<g clip-path="url(#a)">
<g transform="translate(758.12 310.47) rotate(72.98) scale(.08 -.08)">
<use xlink:href="#z"/>
</g>
</g>
<path d="m718.44 451.51v35.285q0 2.4 2.4 2.4h7.7425q2.4 0 2.4-2.4v-35.285q0-2.4-2.4-2.4h-7.7425q-2.4 0-2.4 2.4z" clip-path="url(#a)" fill="#fff" stroke="#fff"/>
<g clip-path="url(#a)">
<g transform="translate(722.5 451.51) rotate(90) scale(.08 -.08)">
<use xlink:href="#k"/>
<use x="60.818359" xlink:href="#d"/>
<use x="122.341797" xlink:href="#f"/>
<use x="163.439453" xlink:href="#l"/>
<use x="260.851562" xlink:href="#i"/>
<use x="288.634766" xlink:href="#g"/>
<use x="352.013672" xlink:href="#j"/>
<use x="413.292969" xlink:href="#h"/>
</g>
</g>
<path d="m766.76 384.47v13.246q0 2.4 2.4 2.4h8q2.4 0 2.4-2.4v-13.246q0-2.4-2.4-2.4h-8q-2.4 0-2.4 2.4z" clip-path="url(#a)" fill="#fff" stroke="#fff"/>
<g clip-path="url(#a)">
<defs>
<path id="w" d="m53.516 70.516v-9.625q-5.6094 2.6875-10.594 4-4.9844 1.3281-9.625 1.3281-8.0469 0-12.422-3.125t-4.375-8.8906q0-4.8438 2.9062-7.3125 2.9062-2.4531 11.016-3.9688l5.9531-1.2188q11.031-2.1094 16.281-7.4062t5.25-14.172q0-10.609-7.1094-16.078-7.0938-5.4688-20.812-5.4688-5.1719 0-11.016 1.1719-5.8281 1.1719-12.078 3.4688v10.156q6-3.3594 11.766-5.0781 5.7656-1.7031 11.328-1.7031 8.4375 0 13.031 3.3125 4.5938 3.3281 4.5938 9.4844 0 5.3594-3.2969 8.3906t-10.812 4.5469l-6.0156 1.1719q-11.031 2.1875-15.969 6.875-4.9219 4.6875-4.9219 13.047 0 9.6719 6.8125 15.234t18.766 5.5625q5.1406 0 10.453-0.9375 5.3281-0.92188 10.891-2.7656z"/>
<path id="av" d="m21 76.422v-100h-8.2969v100z"/>
</defs>
<g transform="translate(771.05 384.47) rotate(90) scale(.08 -.08)">
<use xlink:href="#w"/>
<use x="63.476562" xlink:href="#av"/>
<use x="97.167969" xlink:href="#o"/>
</g>
</g>
<path d="m766.89 451.51v35.285q0 2.4 2.4 2.4h7.7425q2.4 0 2.4-2.4v-35.285q0-2.4-2.4-2.4h-7.7425q-2.4 0-2.4 2.4z" clip-path="url(#a)" fill="#fff" stroke="#fff"/>
<g clip-path="url(#a)">
<g transform="translate(770.95 451.51) rotate(90) scale(.08 -.08)">
<use xlink:href="#k"/>
<use x="60.818359" xlink:href="#d"/>
<use x="122.341797" xlink:href="#f"/>
<use x="163.439453" xlink:href="#l"/>
<use x="260.851562" xlink:href="#i"/>
<use x="288.634766" xlink:href="#g"/>
<use x="352.013672" xlink:href="#j"/>
<use x="413.292969" xlink:href="#h"/>
</g>
</g>
<path d="m88.541 451.51v35.285q0 2.4 2.4 2.4h7.7425q2.4 0 2.4-2.4v-35.285q0-2.4-2.4-2.4h-7.7425q-2.4 0-2.4 2.4z" clip-path="url(#a)" fill="#fff" stroke="#fff"/>
<g clip-path="url(#a)">
<g transform="translate(92.605 451.51) rotate(90) scale(.08 -.08)">
<use xlink:href="#k"/>
<use x="60.818359" xlink:href="#d"/>
<use x="122.341797" xlink:href="#f"/>
<use x="163.439453" xlink:href="#l"/>
<use x="260.851562" xlink:href="#i"/>
<use x="288.634766" xlink:href="#g"/>
<use x="352.013672" xlink:href="#j"/>
<use x="413.292969" xlink:href="#h"/>
</g>
</g>
<path d="m209.17 392.08 2.8862 4.6495q1.2658 2.0391 3.3048 0.7733l6.5781-4.0834q2.0391-1.2658 0.7733-3.3048l-2.8862-4.6495q-1.2658-2.0391-3.3048-0.7733l-6.5781 4.0834q-2.0391 1.2658-0.7733 3.3048z" clip-path="url(#a)" fill="#fff" stroke="#fff"/>
<g clip-path="url(#a)">
<g transform="translate(212.63 389.93) rotate(58.17) scale(.08 -.08)">
<use xlink:href="#o"/>
</g>
</g>
<path d="m171.48 396.56 2.6786-4.315q1.2658-2.0391-0.7733-3.3048l-6.5781-4.0834q-2.0391-1.2658-3.3048 0.7733l-2.6786 4.315q-1.2658 2.0391 0.7733 3.3048l6.5781 4.0834q2.0391 1.2658 3.3048-0.7733z" clip-path="url(#a)" fill="#fff" stroke="#fff"/>
<g clip-path="url(#a)">
<g transform="translate(168.03 394.42) rotate(-58.17) scale(.08 -.08)">
<use xlink:href="#w"/>
</g>
</g>
<path d="m185.45 451.51v35.285q0 2.4 2.4 2.4h7.7425q2.4 0 2.4-2.4v-35.285q0-2.4-2.4-2.4h-7.7425q-2.4 0-2.4 2.4z" clip-path="url(#a)" fill="#fff" stroke="#fff"/>
<g clip-path="url(#a)">
<g transform="translate(189.51 451.51) rotate(90) scale(.08 -.08)">
<use xlink:href="#k"/>
<use x="60.818359" xlink:href="#d"/>
<use x="122.341797" xlink:href="#f"/>
<use x="163.439453" xlink:href="#l"/>
<use x="260.851562" xlink:href="#i"/>
<use x="288.634766" xlink:href="#g"/>
<use x="352.013672" xlink:href="#j"/>
<use x="413.292969" xlink:href="#h"/>
</g>
</g>
<path d="m233.9 451.51v35.285q0 2.4 2.4 2.4h7.7425q2.4 0 2.4-2.4v-35.285q0-2.4-2.4-2.4h-7.7425q-2.4 0-2.4 2.4z" clip-path="url(#a)" fill="#fff" stroke="#fff"/>
<g clip-path="url(#a)">
<g transform="translate(237.97 451.51) rotate(90) scale(.08 -.08)">
<use xlink:href="#k"/>
<use x="60.818359" xlink:href="#d"/>
<use x="122.341797" xlink:href="#f"/>
<use x="163.439453" xlink:href="#l"/>
<use x="260.851562" xlink:href="#i"/>
<use x="288.634766" xlink:href="#g"/>
<use x="352.013672" xlink:href="#j"/>
<use x="413.292969" xlink:href="#h"/>
</g>
</g>
<path d="m309.81 357.67 3.5385-4.1746q1.5519-1.8308-0.27893-3.3826l-5.9062-5.0063q-1.8308-1.5519-3.3826 0.27893l-3.5385 4.1746q-1.5519 1.8308 0.27893 3.3826l5.9062 5.0063q1.8308 1.5519 3.3826-0.27893z" clip-path="url(#a)" fill="#fff" stroke="#fff"/>
<g clip-path="url(#a)">
<g transform="translate(306.71 355.04) rotate(-49.714) scale(.08 -.08)">
<use xlink:href="#o"/>
</g>
</g>
<path d="m360.73 355.65 1.252-5.4159q0.54057-2.3383-1.7978-2.8789l-7.5436-1.7439q-2.3383-0.54057-2.8789 1.7978l-1.252 5.4159q-0.54057 2.3383 1.7978 2.8789l7.5436 1.7439q2.3383 0.54057 2.8789-1.7978z" clip-path="url(#a)" fill="#fff" stroke="#fff"/>
<g clip-path="url(#a)">
<g transform="translate(356.77 354.73) rotate(-76.983) scale(.08 -.08)">
<use xlink:href="#ag"/>
</g>
</g>
<path d="m397.06 314.14 3.3259 4.3459q1.4586 1.9059 3.3645 0.44732l6.1486-4.7055q1.9059-1.4586 0.44732-3.3645l-3.3259-4.3459q-1.4586-1.9059-3.3645-0.44732l-6.1485 4.7055q-1.9059 1.4586-0.44732 3.3645z" clip-path="url(#a)" fill="#fff" stroke="#fff"/>
<g clip-path="url(#a)">
<g transform="translate(400.29 311.67) rotate(52.573) scale(.08 -.08)">
<use xlink:href="#o"/>
</g>
</g>
<path d="m421.4 353.12 2.749 3.9638q1.3677 1.9721 3.3399 0.6044l6.3622-4.4124q1.9721-1.3677 0.6044-3.3399l-2.749-3.9638q-1.3677-1.9721-3.3399-0.6044l-6.3622 4.4124q-1.9721 1.3677-0.6044 3.3399z" clip-path="url(#a)" fill="#fff" stroke="#fff"/>
<g clip-path="url(#a)">
<g transform="translate(424.74 350.8) rotate(55.258) scale(.08 -.08)">
<use xlink:href="#x"/>
</g>
</g>
<path d="m330.81 451.51v35.285q0 2.4 2.4 2.4h7.7425q2.4 0 2.4-2.4v-35.285q0-2.4-2.4-2.4h-7.7425q-2.4 0-2.4 2.4z" clip-path="url(#a)" fill="#fff" stroke="#fff"/>
<g clip-path="url(#a)">
<g transform="translate(334.87 451.51) rotate(90) scale(.08 -.08)">
<use xlink:href="#k"/>
<use x="60.818359" xlink:href="#d"/>
<use x="122.341797" xlink:href="#f"/>
<use x="163.439453" xlink:href="#l"/>
<use x="260.851562" xlink:href="#i"/>
<use x="288.634766" xlink:href="#g"/>
<use x="352.013672" xlink:href="#j"/>
<use x="413.292969" xlink:href="#h"/>
</g>
</g>
<path d="m451.61 392.35 2.5441 4.0983q1.2658 2.0391 3.3048 0.7733l6.5781-4.0834q2.0391-1.2658 0.7733-3.3048l-2.5441-4.0983q-1.2658-2.0391-3.3048-0.7733l-6.5781 4.0834q-2.0391 1.2658-0.7733 3.3048z" clip-path="url(#a)" fill="#fff" stroke="#fff"/>
<g clip-path="url(#a)">
<g transform="translate(455.07 390.21) rotate(58.17) scale(.08 -.08)">
<use xlink:href="#x"/>
</g>
</g>
<path d="m413.46 397.02 3.2488-5.2336q1.2658-2.0391-0.7733-3.3048l-6.5781-4.0834q-2.0391-1.2658-3.3048 0.7733l-3.2488 5.2336q-1.2658 2.0391 0.7733 3.3048l6.5781 4.0834q2.0391 1.2658 3.3048-0.7733z" clip-path="url(#a)" fill="#fff" stroke="#fff"/>
<g clip-path="url(#a)">
<g transform="translate(410.01 394.88) rotate(-58.17) scale(.08 -.08)">
<use xlink:href="#y"/>
</g>
</g>
<path d="m427.72 388.36v5.4725q0 2.4 2.4 2.4h7.7425q2.4 0 2.4-2.4v-5.4725q0-2.4-2.4-2.4h-7.7425q-2.4 0-2.4 2.4z" clip-path="url(#a)" fill="#fff" stroke="#fff"/>
<g clip-path="url(#a)">
<g transform="translate(431.78 388.36) rotate(90) scale(.08 -.08)">
<use xlink:href="#o"/>
</g>
</g>
<path d="m476.17 451.51v35.285q0 2.4 2.4 2.4h7.7425q2.4 0 2.4-2.4v-35.285q0-2.4-2.4-2.4h-7.7425q-2.4 0-2.4 2.4z" clip-path="url(#a)" fill="#fff" stroke="#fff"/>
<g clip-path="url(#a)">
<g transform="translate(480.23 451.51) rotate(90) scale(.08 -.08)">
<use xlink:href="#k"/>
<use x="60.818359" xlink:href="#d"/>
<use x="122.341797" xlink:href="#f"/>
<use x="163.439453" xlink:href="#l"/>
<use x="260.851562" xlink:href="#i"/>
<use x="288.634766" xlink:href="#g"/>
<use x="352.013672" xlink:href="#j"/>
<use x="413.292969" xlink:href="#h"/>
</g>
</g>
<path d="m379.26 451.51v35.285q0 2.4 2.4 2.4h7.7425q2.4 0 2.4-2.4v-35.285q0-2.4-2.4-2.4h-7.7425q-2.4 0-2.4 2.4z" clip-path="url(#a)" fill="#fff" stroke="#fff"/>
<g clip-path="url(#a)">
<g transform="translate(383.33 451.51) rotate(90) scale(.08 -.08)">
<use xlink:href="#k"/>
<use x="60.818359" xlink:href="#d"/>
<use x="122.341797" xlink:href="#f"/>
<use x="163.439453" xlink:href="#l"/>
<use x="260.851562" xlink:href="#i"/>
<use x="288.634766" xlink:href="#g"/>
<use x="352.013672" xlink:href="#j"/>
<use x="413.292969" xlink:href="#h"/>
</g>
</g>
<path d="m427.72 451.51v35.285q0 2.4 2.4 2.4h7.7425q2.4 0 2.4-2.4v-35.285q0-2.4-2.4-2.4h-7.7425q-2.4 0-2.4 2.4z" clip-path="url(#a)" fill="#fff" stroke="#fff"/>
<g clip-path="url(#a)">
<g transform="translate(431.78 451.51) rotate(90) scale(.08 -.08)">
<use xlink:href="#k"/>
<use x="60.818359" xlink:href="#d"/>
<use x="122.341797" xlink:href="#f"/>
<use x="163.439453" xlink:href="#l"/>
<use x="260.851562" xlink:href="#i"/>
<use x="288.634766" xlink:href="#g"/>
<use x="352.013672" xlink:href="#j"/>
<use x="413.292969" xlink:href="#h"/>
</g>
</g>
<path d="m136.99 451.51v35.285q0 2.4 2.4 2.4h7.7425q2.4 0 2.4-2.4v-35.285q0-2.4-2.4-2.4h-7.7425q-2.4 0-2.4 2.4z" clip-path="url(#a)" fill="#fff" stroke="#fff"/>
<g clip-path="url(#a)">
<g transform="translate(141.06 451.51) rotate(90) scale(.08 -.08)">
<use xlink:href="#k"/>
<use x="60.818359" xlink:href="#d"/>
<use x="122.341797" xlink:href="#f"/>
<use x="163.439453" xlink:href="#l"/>
<use x="260.851562" xlink:href="#i"/>
<use x="288.634766" xlink:href="#g"/>
<use x="352.013672" xlink:href="#j"/>
<use x="413.292969" xlink:href="#h"/>
</g>
</g>
<path d="m282.35 451.51v35.285q0 2.4 2.4 2.4h7.7425q2.4 0 2.4-2.4v-35.285q0-2.4-2.4-2.4h-7.7425q-2.4 0-2.4 2.4z" clip-path="url(#a)" fill="#fff" stroke="#fff"/>
<g clip-path="url(#a)">
<g transform="translate(286.42 451.51) rotate(90) scale(.08 -.08)">
<use xlink:href="#k"/>
<use x="60.818359" xlink:href="#d"/>
<use x="122.341797" xlink:href="#f"/>
<use x="163.439453" xlink:href="#l"/>
<use x="260.851562" xlink:href="#i"/>
<use x="288.634766" xlink:href="#g"/>
<use x="352.013672" xlink:href="#j"/>
<use x="413.292969" xlink:href="#h"/>
</g>
</g>
<path d="m524.62 451.51v35.285q0 2.4 2.4 2.4h7.7425q2.4 0 2.4-2.4v-35.285q0-2.4-2.4-2.4h-7.7425q-2.4 0-2.4 2.4z" clip-path="url(#a)" fill="#fff" stroke="#fff"/>
<g clip-path="url(#a)">
<g transform="translate(528.69 451.51) rotate(90) scale(.08 -.08)">
<use xlink:href="#k"/>
<use x="60.818359" xlink:href="#d"/>
<use x="122.341797" xlink:href="#f"/>
<use x="163.439453" xlink:href="#l"/>
<use x="260.851562" xlink:href="#i"/>
<use x="288.634766" xlink:href="#g"/>
<use x="352.013672" xlink:href="#j"/>
<use x="413.292969" xlink:href="#h"/>
</g>
</g>
<path d="m863.8 451.51v35.285q0 2.4 2.4 2.4h7.7425q2.4 0 2.4-2.4v-35.285q0-2.4-2.4-2.4h-7.7425q-2.4 0-2.4 2.4z" clip-path="url(#a)" fill="#fff" stroke="#fff"/>
<g clip-path="url(#a)">
<g transform="translate(867.86 451.51) rotate(90) scale(.08 -.08)">
<use xlink:href="#k"/>
<use x="60.818359" xlink:href="#d"/>
<use x="122.341797" xlink:href="#f"/>
<use x="163.439453" xlink:href="#l"/>
<use x="260.851562" xlink:href="#i"/>
<use x="288.634766" xlink:href="#g"/>
<use x="352.013672" xlink:href="#j"/>
<use x="413.292969" xlink:href="#h"/>
</g>
</g>
<path d="m912.25 451.51v35.285q0 2.4 2.4 2.4h7.7425q2.4 0 2.4-2.4v-35.285q0-2.4-2.4-2.4h-7.7425q-2.4 0-2.4 2.4z" clip-path="url(#a)" fill="#fff" stroke="#fff"/>
<g clip-path="url(#a)">
<g transform="translate(916.31 451.51) rotate(90) scale(.08 -.08)">
<use xlink:href="#k"/>
<use x="60.818359" xlink:href="#d"/>
<use x="122.341797" xlink:href="#f"/>
<use x="163.439453" xlink:href="#l"/>
<use x="260.851562" xlink:href="#i"/>
<use x="288.634766" xlink:href="#g"/>
<use x="352.013672" xlink:href="#j"/>
<use x="413.292969" xlink:href="#h"/>
</g>
</g>
<path d="m960.7 451.51v35.285q0 2.4 2.4 2.4h7.7425q2.4 0 2.4-2.4v-35.285q0-2.4-2.4-2.4h-7.7425q-2.4 0-2.4 2.4z" clip-path="url(#a)" fill="#fff" stroke="#fff"/>
<g clip-path="url(#a)">
<g transform="translate(964.77 451.51) rotate(90) scale(.08 -.08)">
<use xlink:href="#k"/>
<use x="60.818359" xlink:href="#d"/>
<use x="122.341797" xlink:href="#f"/>
<use x="163.439453" xlink:href="#l"/>
<use x="260.851562" xlink:href="#i"/>
<use x="288.634766" xlink:href="#g"/>
<use x="352.013672" xlink:href="#j"/>
<use x="413.292969" xlink:href="#h"/>
</g>
</g>
<defs>
<path id="b" d="m0 8.6603c2.2967 0 4.4997-0.9125 6.1237-2.5365 1.624-1.624 2.5365-3.827 2.5365-6.1237s-0.9125-4.4997-2.5365-6.1237c-1.624-1.624-3.827-2.5365-6.1237-2.5365s-4.4997 0.9125-6.1237 2.5365c-1.624 1.624-2.5365 3.827-2.5365 6.1237s0.9125 4.4997 2.5365 6.1237c1.624 1.624 3.827 2.5365 6.1237 2.5365z"/>
</defs>
<g clip-path="url(#a)">
<use x="46.358757" y="508.178337" fill="#ffffff" stroke="#ffffff" xlink:href="#b"/>
</g>
<g clip-path="url(#a)">
<use x="94.812221" y="508.178337" fill="#ffffff" stroke="#ffffff" xlink:href="#b"/>
</g>
<g clip-path="url(#a)">
<use x="143.265685" y="508.178337" fill="#ffffff" stroke="#ffffff" xlink:href="#b"/>
</g>
<g clip-path="url(#a)">
<use x="191.719149" y="508.178337" fill="#ffffff" stroke="#ffffff" xlink:href="#b"/>
</g>
<g clip-path="url(#a)">
<use x="240.172613" y="508.178337" fill="#ffffff" stroke="#ffffff" xlink:href="#b"/>
</g>
<g clip-path="url(#a)">
<use x="288.626078" y="508.178337" fill="#ffffff" stroke="#ffffff" xlink:href="#b"/>
</g>
<g clip-path="url(#a)">
<use x="337.079542" y="508.178337" fill="#ffffff" stroke="#ffffff" xlink:href="#b"/>
</g>
<g clip-path="url(#a)">
<use x="385.533006" y="508.178337" fill="#ffffff" stroke="#ffffff" xlink:href="#b"/>
</g>
<g clip-path="url(#a)">
<use x="433.98647" y="508.178337" fill="#ffffff" stroke="#ffffff" xlink:href="#b"/>
</g>
<g clip-path="url(#a)">
<use x="482.439935" y="508.178337" fill="#ffffff" stroke="#ffffff" xlink:href="#b"/>
</g>
<g clip-path="url(#a)">
<use x="530.893399" y="508.178337" fill="#ffffff" stroke="#ffffff" xlink:href="#b"/>
</g>
<g clip-path="url(#a)">
<use x="579.346863" y="508.178337" fill="#ffffff" stroke="#ffffff" xlink:href="#b"/>
</g>
<g clip-path="url(#a)">
<use x="627.800327" y="508.178337" fill="#ffffff" stroke="#ffffff" xlink:href="#b"/>
</g>
<g clip-path="url(#a)">
<use x="676.253791" y="508.178337" fill="#ffffff" stroke="#ffffff" xlink:href="#b"/>
</g>
<g clip-path="url(#a)">
<use x="724.707256" y="508.178337" fill="#ffffff" stroke="#ffffff" xlink:href="#b"/>
</g>
<g clip-path="url(#a)">
<use x="773.16072" y="508.178337" fill="#ffffff" stroke="#ffffff" xlink:href="#b"/>
</g>
<g clip-path="url(#a)">
<use x="821.614184" y="508.178337" fill="#ffffff" stroke="#ffffff" xlink:href="#b"/>
</g>
<g clip-path="url(#a)">
<use x="870.067648" y="508.178337" fill="#ffffff" stroke="#ffffff" xlink:href="#b"/>
</g>
<g clip-path="url(#a)">
<use x="918.521112" y="508.178337" fill="#ffffff" stroke="#ffffff" xlink:href="#b"/>
</g>
<g clip-path="url(#a)">
<use x="966.974577" y="508.178337" fill="#ffffff" stroke="#ffffff" xlink:href="#b"/>
</g>
<g clip-path="url(#a)">
<use x="373.293459" y="25.154996" fill="#ffffff" stroke="#ffffff" xlink:href="#b"/>
</g>
<g clip-path="url(#a)">
<use x="46.358757" y="430.122972" fill="#ffffff" stroke="#ffffff" xlink:href="#b"/>
</g>
<g clip-path="url(#a)">
<use x="700.228162" y="109.758186" fill="#ffffff" stroke="#ffffff" xlink:href="#b"/>
</g>
<g clip-path="url(#a)">
<use x="230.078142" y="192.261283" fill="#ffffff" stroke="#ffffff" xlink:href="#b"/>
</g>
<g clip-path="url(#a)">
<use x="579.346863" y="430.122972" fill="#ffffff" stroke="#ffffff" xlink:href="#b"/>
</g>
<g clip-path="url(#a)">
<use x="684.329369" y="192.261283" fill="#ffffff" stroke="#ffffff" xlink:href="#b"/>
</g>
<g clip-path="url(#a)">
<use x="821.614184" y="430.122972" fill="#ffffff" stroke="#ffffff" xlink:href="#b"/>
</g>
<g clip-path="url(#a)">
<use x="627.800327" y="430.122972" fill="#ffffff" stroke="#ffffff" xlink:href="#b"/>
</g>
<g clip-path="url(#a)">
<use x="676.253791" y="430.122972" fill="#ffffff" stroke="#ffffff" xlink:href="#b"/>
</g>
<g clip-path="url(#a)">
<use x="748.933988" y="272.926407" fill="#ffffff" stroke="#ffffff" xlink:href="#b"/>
</g>
<g clip-path="url(#a)">
<use x="724.707256" y="430.122972" fill="#ffffff" stroke="#ffffff" xlink:href="#b"/>
</g>
<g clip-path="url(#a)">
<use x="773.16072" y="352.067608" fill="#ffffff" stroke="#ffffff" xlink:href="#b"/>
</g>
<g clip-path="url(#a)">
<use x="773.16072" y="430.122972" fill="#ffffff" stroke="#ffffff" xlink:href="#b"/>
</g>
<g clip-path="url(#a)">
<use x="94.812221" y="430.122972" fill="#ffffff" stroke="#ffffff" xlink:href="#b"/>
</g>
<g clip-path="url(#a)">
<use x="191.719149" y="352.067608" fill="#ffffff" stroke="#ffffff" xlink:href="#b"/>
</g>
<g clip-path="url(#a)">
<use x="191.719149" y="430.122972" fill="#ffffff" stroke="#ffffff" xlink:href="#b"/>
</g>
<g clip-path="url(#a)">
<use x="240.172613" y="430.122972" fill="#ffffff" stroke="#ffffff" xlink:href="#b"/>
</g>
<g clip-path="url(#a)">
<use x="373.41964" y="272.926407" fill="#ffffff" stroke="#ffffff" xlink:href="#b"/>
</g>
<g clip-path="url(#a)">
<use x="337.079542" y="430.122972" fill="#ffffff" stroke="#ffffff" xlink:href="#b"/>
</g>
<g clip-path="url(#a)">
<use x="433.98647" y="352.067608" fill="#ffffff" stroke="#ffffff" xlink:href="#b"/>
</g>
<g clip-path="url(#a)">
<use x="482.439935" y="430.122972" fill="#ffffff" stroke="#ffffff" xlink:href="#b"/>
</g>
<g clip-path="url(#a)">
<use x="385.533006" y="430.122972" fill="#ffffff" stroke="#ffffff" xlink:href="#b"/>
</g>
<g clip-path="url(#a)">
<use x="433.98647" y="430.122972" fill="#ffffff" stroke="#ffffff" xlink:href="#b"/>
</g>
<g clip-path="url(#a)">
<use x="143.265685" y="430.122972" fill="#ffffff" stroke="#ffffff" xlink:href="#b"/>
</g>
<g clip-path="url(#a)">
<use x="288.626078" y="430.122972" fill="#ffffff" stroke="#ffffff" xlink:href="#b"/>
</g>
<g clip-path="url(#a)">
<use x="530.893399" y="430.122972" fill="#ffffff" stroke="#ffffff" xlink:href="#b"/>
</g>
<g clip-path="url(#a)">
<use x="870.067648" y="430.122972" fill="#ffffff" stroke="#ffffff" xlink:href="#b"/>
</g>
<g clip-path="url(#a)">
<use x="918.521112" y="430.122972" fill="#ffffff" stroke="#ffffff" xlink:href="#b"/>
</g>
<g clip-path="url(#a)">
<use x="966.974577" y="430.122972" fill="#ffffff" stroke="#ffffff" xlink:href="#b"/>
</g>
<g clip-path="url(#a)">
<defs>
<path id="v" d="m45.406 46.391v29.594h8.9844v-75.984h-8.9844v8.2031q-2.8281-4.875-7.1562-7.25-4.3125-2.375-10.375-2.375-9.9062 0-16.141 7.9062-6.2188 7.9219-6.2188 20.812t6.2188 20.797q6.2344 7.9062 16.141 7.9062 6.0625 0 10.375-2.375 4.3281-2.3594 7.1562-7.2344zm-30.609-19.094q0-9.9062 4.0781-15.547t11.203-5.6406 11.219 5.6406q4.1094 5.6406 4.1094 15.547t-4.1094 15.547q-4.0938 5.6406-11.219 5.6406t-11.203-5.6406-4.0781-15.547z"/>
</defs>
<g transform="translate(36.356 510.94) scale(.1 -.1)">
<use xlink:href="#p"/>
<use x="73.193359" xlink:href="#g"/>
<use x="136.572266" xlink:href="#v"/>
</g>
</g>
<g clip-path="url(#a)">
<g transform="translate(87.178 510.94) scale(.1 -.1)">
<use xlink:href="#d"/>
<use x="61.523438" xlink:href="#i"/>
<use x="89.306641" xlink:href="#g"/>
</g>
</g>
<g clip-path="url(#a)">
<defs>
<path id="af" d="m8.5 21.578v33.109h8.9844v-32.766q0-7.7656 3.0156-11.656 3.0312-3.875 9.0938-3.875 7.2656 0 11.484 4.6406 4.2344 4.6406 4.2344 12.656v31h8.9844v-54.688h-8.9844v8.4062q-3.2656-4.9844-7.5938-7.4062-4.3125-2.4219-10.031-2.4219-9.4219 0-14.312 5.8594-4.875 5.8594-4.875 17.141z"/>
<path id="s" d="m48.781 52.594v-8.4062q-3.8125 2.1094-7.6406 3.1562t-7.7344 1.0469q-8.75 0-13.594-5.5469-4.8281-5.5312-4.8281-15.547t4.8281-15.562q4.8438-5.5312 13.594-5.5312 3.9062 0 7.7344 1.0469t7.6406 3.1562v-8.3125q-3.7656-1.75-7.7969-2.625-4.0156-0.89062-8.5625-0.89062-12.359 0-19.641 7.7656-7.2656 7.7656-7.2656 20.953 0 13.375 7.3438 21.031 7.3594 7.6719 20.156 7.6719 4.1406 0 8.0938-0.85938 3.9531-0.84375 7.6719-2.5469z"/>
<path id="u" d="m54.891 33.016v-33.016h-8.9844v32.719q0 7.7656-3.0312 11.609-3.0312 3.8594-9.0781 3.8594-7.2812 0-11.484-4.6406-4.2031-4.625-4.2031-12.641v-30.906h-9.0312v75.984h9.0312v-29.797q3.2344 4.9375 7.5938 7.375 4.375 2.4375 10.094 2.4375 9.4219 0 14.25-5.8281 4.8438-5.8281 4.8438-17.156z"/>
<path id="q" d="m18.312 70.219v-15.531h18.5v-6.9844h-18.5v-29.688q0-6.6875 1.8281-8.5938t7.4531-1.9062h9.2188v-7.5156h-9.2188q-10.406 0-14.359 3.875-3.9531 3.8906-3.9531 14.141v29.688h-6.5938v6.9844h6.5938v15.531z"/>
</defs>
<g transform="translate(112.45 510.94) scale(.1 -.1)">
<use xlink:href="#d"/>
<use x="61.523438" xlink:href="#f"/>
<use x="102.636719" xlink:href="#h"/>
<use x="130.419922" xlink:href="#d"/>
<use x="191.943359" xlink:href="#af"/>
<use x="255.322266" xlink:href="#s"/>
<use x="310.302734" xlink:href="#u"/>
<use x="373.681641" xlink:href="#q"/>
<use x="412.890625" xlink:href="#d"/>
<use x="474.414062" xlink:href="#q"/>
<use x="513.623047" xlink:href="#d"/>
<use x="575.146484" xlink:href="#f"/>
</g>
</g>
<g clip-path="url(#a)">
<g transform="translate(173.6 510.94) scale(.1 -.1)">
<use xlink:href="#w"/>
<use x="63.476562" xlink:href="#s"/>
<use x="118.457031" xlink:href="#u"/>
<use x="181.835938" xlink:href="#g"/>
<use x="245.214844" xlink:href="#d"/>
<use x="306.738281" xlink:href="#h"/>
<use x="334.521484" xlink:href="#h"/>
</g>
</g>
<g clip-path="url(#a)">
<defs>
<path id="am" d="m5.5156 54.688h42.672v-8.2031l-33.781-39.312h33.781v-7.1719h-43.891v8.2031l33.797 39.312h-32.578z"/>
<path id="ao" d="m45.406 27.984q0 9.7656-4.0312 15.125-4.0156 5.375-11.297 5.375-7.2188 0-11.25-5.375-4.0312-5.3594-4.0312-15.125 0-9.7188 4.0312-15.094t11.25-5.375q7.2812 0 11.297 5.375 4.0312 5.375 4.0312 15.094zm8.9844-21.203q0-13.953-6.2031-20.766-6.1875-6.8125-18.984-6.8125-4.7344 0-8.9375 0.70312t-8.1562 2.1719v8.7344q3.9531-2.1406 7.8125-3.1562 3.8594-1.0312 7.8594-1.0312 8.8438 0 13.234 4.6094t4.3906 13.938v4.4531q-2.7812-4.8438-7.125-7.2344t-10.406-2.3906q-10.047 0-16.203 7.6562-6.1562 7.6719-6.1562 20.328 0 12.688 6.1562 20.344 6.1562 7.6719 16.203 7.6719 6.0625 0 10.406-2.3906t7.125-7.2188v8.2969h8.9844z"/>
</defs>
<g transform="translate(231.21 510.94) scale(.1 -.1)">
<use xlink:href="#am"/>
<use x="52.490234" xlink:href="#af"/>
<use x="115.869141" xlink:href="#ao"/>
</g>
</g>
<g clip-path="url(#a)">
<defs>
<path id="al" d="m11.719 12.406h10.297v-8.4062l-8-15.625h-6.2969l4 15.625z"/>
</defs>
<g transform="translate(287.04 510.94) scale(.1 -.1)">
<use xlink:href="#al"/>
</g>
</g>
<g clip-path="url(#a)">
<g transform="translate(328.77 510.94) scale(.1 -.1)">
<use xlink:href="#v"/>
<use x="63.476562" xlink:href="#d"/>
<use x="125" xlink:href="#f"/>
</g>
</g>
<g clip-path="url(#a)">
<defs>
<path id="aw" d="m4.2031 54.688h8.9844l11.234-42.672 11.172 42.672h10.594l11.234-42.672 11.188 42.672h8.9844l-14.312-54.688h-10.594l-11.766 44.828-11.812-44.828h-10.609z"/>
</defs>
<g transform="translate(376.98 510.94) scale(.1 -.1)">
<use xlink:href="#aw"/>
<use x="81.787109" xlink:href="#i"/>
<use x="109.570312" xlink:href="#d"/>
</g>
</g>
<g clip-path="url(#a)">
<defs>
<path id="an" d="m30.609 48.391q-7.2188 0-11.422-5.6406t-4.2031-15.453 4.1719-15.453q4.1875-5.6406 11.453-5.6406 7.1875 0 11.375 5.6562 4.2031 5.6719 4.2031 15.438 0 9.7188-4.2031 15.406-4.1875 5.6875-11.375 5.6875zm0 7.6094q11.719 0 18.406-7.625 6.7031-7.6094 6.7031-21.078 0-13.422-6.7031-21.078-6.6875-7.6406-18.406-7.6406-11.766 0-18.438 7.6406-6.6562 7.6562-6.6562 21.078 0 13.469 6.6562 21.078 6.6719 7.625 18.438 7.625z"/>
</defs>
<g transform="translate(415.61 510.94) scale(.1 -.1)">
<use xlink:href="#y"/>
<use x="77.001953" xlink:href="#an"/>
<use x="138.183594" xlink:href="#g"/>
<use x="201.5625" xlink:href="#g"/>
<use x="264.941406" xlink:href="#d"/>
<use x="326.464844" xlink:href="#f"/>
</g>
</g>
<g clip-path="url(#a)">
<g transform="translate(466.34 510.94) scale(.1 -.1)">
<use xlink:href="#ao"/>
<use x="63.476562" xlink:href="#f"/>
<use x="104.558594" xlink:href="#an"/>
<use x="165.740234" xlink:href="#h"/>
<use x="193.523438" xlink:href="#h"/>
<use x="221.306641" xlink:href="#q"/>
<use x="260.515625" xlink:href="#d"/>
</g>
</g>
<g clip-path="url(#a)">
<g transform="translate(529.3 510.94) scale(.1 -.1)">
<use xlink:href="#al"/>
</g>
</g>
<g clip-path="url(#a)">
<defs>
<path id="au" d="m9.0781 55.516q0 9.7656 5.8281 15.109 5.8438 5.3594 16.484 5.3594 10.156 0 15.5-5.6719 5.3594-5.6562 5.5-16.594-7.375-0.39062-11.484-3.2031-4.0938-2.8125-4.0938-7.5 0-2.2969 1.4219-4.2812 1.4219-1.9688 4.5938-4.0156l2.7812-1.8125q8.1094-5.1719 10.453-8.6406t2.3438-8.3438q0-8.4062-5.5-12.875t-15.797-4.4688q-3.125 0-6.4531 0.60938-3.3125 0.60938-6.875 1.7969v8q3.9062-1.4688 7.3125-2.1719 3.4219-0.70312 6.6094-0.70312 5.6562 0 8.5781 2.3125 2.9375 2.3281 2.9375 6.7656 0 3.0781-1.4375 5.125t-6.375 5.0781l-4.4844 2.6875q-4.6875 2.875-6.8125 6.1719t-2.125 7.75q0 6.1875 4.0781 10.391t11.438 5.625q-0.39062 5.0156-3.5938 7.75-3.1875 2.7344-8.7031 2.7344-6.3438 0-9.6719-3.3906-3.3125-3.3906-3.3125-9.7812v-55.328h-9.1406z"/>
</defs>
<g transform="translate(570.34 510.94) scale(.1 -.1)">
<use xlink:href="#h"/>
<use x="27.783203" xlink:href="#i"/>
<use x="55.566406" xlink:href="#d"/>
<use x="117.089844" xlink:href="#au"/>
</g>
</g>
<g clip-path="url(#a)">
<defs>
<path id="r" d="m44.281 53.078v-8.5q-3.7969 1.9531-7.9062 2.9219-4.0938 0.98438-8.5 0.98438-6.6875 0-10.031-2.0469t-3.3438-6.1562q0-3.125 2.3906-4.9062t9.625-3.3906l3.0781-0.6875q9.5625-2.0469 13.594-5.7812t4.0312-10.422q0-7.625-6.0312-12.078-6.0312-4.4375-16.578-4.4375-4.3906 0-9.1562 0.85938t-10.031 2.5625v9.2812q4.9844-2.5938 9.8125-3.8906 4.8281-1.2812 9.5781-1.2812 6.3438 0 9.75 2.1719 3.4219 2.1719 3.4219 6.125 0 3.6562-2.4688 5.6094-2.4531 1.9531-10.812 3.7656l-3.125 0.73438q-8.3438 1.75-12.062 5.3906-3.7031 3.6406-3.7031 9.9844 0 7.7188 5.4688 11.906 5.4688 4.2031 15.531 4.2031 4.9688 0 9.3594-0.73438 4.4062-0.71875 8.1094-2.1875z"/>
</defs>
<g transform="translate(618.96 510.94) scale(.1 -.1)">
<use xlink:href="#v"/>
<use x="63.476562" xlink:href="#j"/>
<use x="124.755859" xlink:href="#r"/>
</g>
</g>
<g clip-path="url(#a)">
<defs>
<path id="at" d="m34.281 27.484q-10.891 0-15.094-2.4844t-4.2031-8.5q0-4.7812 3.1562-7.5938 3.1562-2.7969 8.5625-2.7969 7.4844 0 12 5.2969t4.5156 14.078v2zm17.922 3.7188v-31.203h-8.9844v8.2969q-3.0781-4.9688-7.6719-7.3438t-11.234-2.375q-8.3906 0-13.359 4.7188-4.9531 4.7188-4.9531 12.625 0 9.2188 6.1719 13.906 6.1875 4.6875 18.438 4.6875h12.609v0.89062q0 6.2031-4.0781 9.5938t-11.453 3.3906q-4.6875 0-9.1406-1.125-4.4375-1.125-8.5312-3.375v8.3125q4.9219 1.9062 9.5625 2.8438 4.6406 0.95312 9.0312 0.95312 11.875 0 17.734-6.1562 5.8594-6.1406 5.8594-18.641zm-18.609 44.578h9.9062v-9.8594h-9.9062zm-19.094 0h9.9062v-9.8594h-9.9062z"/>
</defs>
<g transform="translate(651.49 510.94) scale(.1 -.1)">
<use xlink:href="#ah"/>
<use x="75.195312" xlink:href="#at"/>
<use x="136.474609" xlink:href="#af"/>
<use x="199.853516" xlink:href="#r"/>
<use x="251.953125" xlink:href="#s"/>
<use x="306.933594" xlink:href="#u"/>
<use x="370.3125" xlink:href="#d"/>
<use x="431.835938" xlink:href="#g"/>
</g>
</g>
<g clip-path="url(#a)">
<g transform="translate(715.85 510.94) scale(.1 -.1)">
<use xlink:href="#v"/>
<use x="63.476562" xlink:href="#d"/>
<use x="125" xlink:href="#r"/>
</g>
</g>
<g clip-path="url(#a)">
<defs>
<path id="ap" d="m3.3281 72.906h9.9531l15.328-61.625 15.281 61.625h11.094l15.328-61.625 15.281 61.625h10.016l-18.312-72.906h-12.406l-15.375 63.281-15.531-63.281h-12.406z"/>
</defs>
<g transform="translate(733.44 510.94) scale(.1 -.1)">
<use xlink:href="#ap"/>
<use x="98.798828" xlink:href="#d"/>
<use x="160.322266" xlink:href="#i"/>
<use x="188.105469" xlink:href="#s"/>
<use x="243.085938" xlink:href="#u"/>
<use x="306.464844" xlink:href="#d"/>
<use x="367.988281" xlink:href="#g"/>
<use x="431.367188" xlink:href="#r"/>
<use x="483.466797" xlink:href="#q"/>
<use x="522.675781" xlink:href="#d"/>
<use x="584.199219" xlink:href="#h"/>
<use x="611.982422" xlink:href="#h"/>
<use x="639.765625" xlink:href="#d"/>
<use x="701.289062" xlink:href="#f"/>
<use x="742.402344" xlink:href="#r"/>
</g>
</g>
<g clip-path="url(#a)">
<g transform="translate(800.25 510.94) scale(.1 -.1)">
<use xlink:href="#d"/>
<use x="61.523438" xlink:href="#f"/>
<use x="102.636719" xlink:href="#am"/>
<use x="155.126953" xlink:href="#i"/>
<use x="182.910156" xlink:href="#q"/>
<use x="222.119141" xlink:href="#q"/>
<use x="261.328125" xlink:href="#d"/>
<use x="322.851562" xlink:href="#f"/>
<use x="363.949219" xlink:href="#g"/>
</g>
</g>
<g clip-path="url(#a)">
<defs>
<path id="e" d="m10.688 12.406h10.312v-12.406h-10.312z"/>
</defs>
<g transform="translate(868.48 510.94) scale(.1 -.1)">
<use xlink:href="#e"/>
</g>
</g>
<g clip-path="url(#a)">
<defs>
<path id="ar" d="m4.8906 31.391h26.312v-8h-26.312z"/>
</defs>
<g transform="translate(916.72 510.94) scale(.1 -.1)">
<use xlink:href="#ar"/>
</g>
</g>
<g clip-path="url(#a)">
<defs>
<path id="as" d="m17.922 72.906v-27.109h-8.2969v27.109zm18.453 0v-27.109h-8.2969v27.109z"/>
</defs>
<g transform="translate(964.67 510.94) scale(.1 -.1)">
<use xlink:href="#as"/>
</g>
</g>
<g clip-path="url(#a)">
<defs>
<path id="c" d="m12.406 8.2969h16.109v55.625l-17.531-3.5156v8.9844l17.438 3.5156h9.8594v-64.609h16.109v-8.2969h-41.984z"/>
</defs>
<g transform="translate(365.34 27.914) scale(.1 -.1)">
<use xlink:href="#c"/>
<use x="63.623047" xlink:href="#e"/>
<use x="95.410156" xlink:href="#c"/>
</g>
</g>
<g clip-path="url(#a)">
<defs>
<path id="m" d="m19.188 8.2969h34.422v-8.2969h-46.281v8.2969q5.6094 5.8125 15.297 15.594 9.7031 9.7969 12.188 12.641 4.7344 5.3125 6.6094 9 1.8906 3.6875 1.8906 7.25 0 5.8125-4.0781 9.4688-4.0781 3.6719-10.625 3.6719-4.6406 0-9.7969-1.6094-5.1406-1.6094-11-4.8906v9.9688q5.9531 2.3906 11.125 3.6094 5.1875 1.2188 9.4844 1.2188 11.328 0 18.062-5.6719 6.7344-5.6562 6.7344-15.125 0-4.5-1.6875-8.5312-1.6719-4.0156-6.125-9.4844-1.2188-1.4219-7.7656-8.1875-6.5312-6.7656-18.453-18.922z"/>
</defs>
<g transform="translate(38.407 432.88) scale(.1 -.1)">
<use xlink:href="#c"/>
<use x="63.623047" xlink:href="#e"/>
<use x="95.410156" xlink:href="#m"/>
</g>
</g>
<g clip-path="url(#a)">
<defs>
<path id="n" d="m40.578 39.312q7.0781-1.5156 11.047-6.3125 3.9844-4.7812 3.9844-11.812 0-10.781-7.4219-16.703-7.4219-5.9062-21.094-5.9062-4.5781 0-9.4375 0.90625t-10.031 2.7188v9.5156q4.0938-2.3906 8.9688-3.6094 4.8906-1.2188 10.219-1.2188 9.2656 0 14.125 3.6562t4.8594 10.641q0 6.4531-4.5156 10.078-4.5156 3.6406-12.562 3.6406h-8.5v8.1094h8.8906q7.2656 0 11.125 2.9062t3.8594 8.375q0 5.6094-3.9844 8.6094-3.9688 3.0156-11.391 3.0156-4.0625 0-8.7031-0.89062-4.6406-0.875-10.203-2.7188v8.7812q5.625 1.5625 10.531 2.3438t9.25 0.78125q11.234 0 17.766-5.1094 6.5469-5.0938 6.5469-13.781 0-6.0625-3.4688-10.234t-9.8594-5.7812z"/>
</defs>
<g transform="translate(692.28 112.52) scale(.1 -.1)">
<use xlink:href="#c"/>
<use x="63.623047" xlink:href="#e"/>
<use x="95.410156" xlink:href="#n"/>
</g>
</g>
<g clip-path="url(#a)">
<defs>
<path id="ac" d="m8.2031 72.906h46.875v-4.2031l-26.469-68.703h-10.297l24.906 64.594h-35.016z"/>
</defs>
<g transform="translate(222.13 195.02) scale(.1 -.1)">
<use xlink:href="#c"/>
<use x="63.623047" xlink:href="#e"/>
<use x="95.410156" xlink:href="#ac"/>
</g>
</g>
<g clip-path="url(#a)">
<defs>
<path id="ab" d="m31.781 34.625q-7.0312 0-11.062-3.7656-4.0156-3.7656-4.0156-10.344 0-6.5938 4.0156-10.359 4.0312-3.7656 11.062-3.7656t11.078 3.7812q4.0625 3.7969 4.0625 10.344 0 6.5781-4.0312 10.344-4.0156 3.7656-11.109 3.7656zm-9.8594 4.1875q-6.3438 1.5625-9.8906 5.9062-3.5312 4.3594-3.5312 10.609 0 8.7344 6.2188 13.812 6.2344 5.0781 17.062 5.0781 10.891 0 17.094-5.0781t6.2031-13.812q0-6.25-3.5469-10.609-3.5312-4.3438-9.8281-5.9062 7.125-1.6562 11.094-6.5 3.9844-4.8281 3.9844-11.797 0-10.609-6.4688-16.281-6.4688-5.6562-18.531-5.6562-12.047 0-18.531 5.6562-6.4688 5.6719-6.4688 16.281 0 6.9688 4 11.797 4.0156 4.8438 11.141 6.5zm-3.6094 15.578q0-5.6562 3.5312-8.8281 3.5469-3.1719 9.9375-3.1719 6.3594 0 9.9375 3.1719 3.5938 3.1719 3.5938 8.8281 0 5.6719-3.5938 8.8438-3.5781 3.1719-9.9375 3.1719-6.3906 0-9.9375-3.1719-3.5312-3.1719-3.5312-8.8438z"/>
</defs>
<g transform="translate(571.4 432.88) scale(.1 -.1)">
<use xlink:href="#c"/>
<use x="63.623047" xlink:href="#e"/>
<use x="95.410156" xlink:href="#ab"/>
</g>
</g>
<g clip-path="url(#a)">
<defs>
<path id="aa" d="m10.984 1.5156v8.9844q3.7188-1.7656 7.5156-2.6875 3.8125-0.92188 7.4844-0.92188 9.7656 0 14.906 6.5625 5.1562 6.5625 5.8906 19.953-2.8281-4.2031-7.1875-6.4531-4.3438-2.25-9.6094-2.25-10.938 0-17.312 6.6094-6.375 6.625-6.375 18.109 0 11.219 6.6406 18 6.6406 6.7969 17.672 6.7969 12.656 0 19.312-9.7031 6.6719-9.6875 6.6719-28.141 0-17.234-8.1875-27.516-8.1719-10.281-21.984-10.281-3.7188 0-7.5312 0.73438-3.7969 0.73438-7.9062 2.2031zm19.625 30.906q6.6406 0 10.516 4.5312 3.8906 4.5469 3.8906 12.469 0 7.8594-3.8906 12.422-3.875 4.5625-10.516 4.5625t-10.516-4.5625-3.875-12.422q0-7.9219 3.875-12.469 3.875-4.5312 10.516-4.5312z"/>
</defs>
<g transform="translate(676.38 195.02) scale(.1 -.1)">
<use xlink:href="#c"/>
<use x="63.623047" xlink:href="#e"/>
<use x="95.410156" xlink:href="#aa"/>
</g>
</g>
<g clip-path="url(#a)">
<defs>
<path id="ae" d="m31.781 66.406q-7.6094 0-11.453-7.5-3.8281-7.4844-3.8281-22.531 0-14.984 3.8281-22.484 3.8438-7.5 11.453-7.5 7.6719 0 11.5 7.5 3.8438 7.5 3.8438 22.484 0 15.047-3.8438 22.531-3.8281 7.5-11.5 7.5zm0 7.8125q12.266 0 18.734-9.7031 6.4688-9.6875 6.4688-28.141 0-18.406-6.4688-28.109-6.4688-9.6875-18.734-9.6875-12.25 0-18.719 9.6875-6.4688 9.7031-6.4688 28.109 0 18.453 6.4688 28.141 6.4688 9.7031 18.719 9.7031z"/>
</defs>
<g transform="translate(810.48 432.88) scale(.1 -.1)">
<use xlink:href="#c"/>
<use x="63.623047" xlink:href="#e"/>
<use x="95.410156" xlink:href="#c"/>
<use x="159.033203" xlink:href="#ae"/>
</g>
</g>
<g clip-path="url(#a)">
<g transform="translate(616.67 432.88) scale(.1 -.1)">
<use xlink:href="#c"/>
<use x="63.623047" xlink:href="#e"/>
<use x="95.410156" xlink:href="#c"/>
<use x="159.033203" xlink:href="#m"/>
</g>
</g>
<g clip-path="url(#a)">
<g transform="translate(665.12 432.88) scale(.1 -.1)">
<use xlink:href="#c"/>
<use x="63.623047" xlink:href="#e"/>
<use x="95.410156" xlink:href="#c"/>
<use x="159.033203" xlink:href="#n"/>
</g>
</g>
<g clip-path="url(#a)">
<defs>
<path id="ad" d="m37.797 64.312-24.906-38.922h24.906zm-2.5938 8.5938h12.406v-47.516h10.406v-8.2031h-10.406v-17.188h-9.8125v17.188h-32.906v9.5156z"/>
</defs>
<g transform="translate(737.8 275.69) scale(.1 -.1)">
<use xlink:href="#c"/>
<use x="63.623047" xlink:href="#e"/>
<use x="95.410156" xlink:href="#c"/>
<use x="159.033203" xlink:href="#ad"/>
</g>
</g>
<g clip-path="url(#a)">
<defs>
<path id="ak" d="m10.797 72.906h38.719v-8.3125h-29.688v-17.859q2.1406 0.73438 4.2812 1.0938 2.1562 0.35938 4.3125 0.35938 12.203 0 19.328-6.6875 7.1406-6.6875 7.1406-18.109 0-11.766-7.3281-18.297-7.3281-6.5156-20.656-6.5156-4.5938 0-9.3594 0.78125-4.75 0.78125-9.8281 2.3438v9.9219q4.3906-2.3906 9.0781-3.5625t9.9062-1.1719q8.4531 0 13.375 4.4375 4.9375 4.4375 4.9375 12.062 0 7.6094-4.9375 12.047-4.9219 4.4531-13.375 4.4531-3.9531 0-7.8906-0.875-3.9219-0.875-8.0156-2.7344z"/>
</defs>
<g transform="translate(713.57 432.88) scale(.1 -.1)">
<use xlink:href="#c"/>
<use x="63.623047" xlink:href="#e"/>
<use x="95.410156" xlink:href="#c"/>
<use x="159.033203" xlink:href="#ak"/>
</g>
</g>
<g clip-path="url(#a)">
<defs>
<path id="aj" d="m33.016 40.375q-6.6406 0-10.531-4.5469-3.875-4.5312-3.875-12.438 0-7.8594 3.875-12.438 3.8906-4.5625 10.531-4.5625t10.516 4.5625q3.875 4.5781 3.875 12.438 0 7.9062-3.875 12.438-3.875 4.5469-10.516 4.5469zm19.578 30.922v-8.9844q-3.7188 1.75-7.5 2.6719-3.7812 0.9375-7.5 0.9375-9.7656 0-14.922-6.5938-5.1406-6.5938-5.875-19.922 2.875 4.25 7.2188 6.5156 4.3594 2.2656 9.5781 2.2656 10.984 0 17.359-6.6719 6.375-6.6562 6.375-18.125 0-11.234-6.6406-18.031-6.6406-6.7812-17.672-6.7812-12.656 0-19.344 9.6875-6.6875 9.7031-6.6875 28.109 0 17.281 8.2031 27.562t22.016 10.281q3.7188 0 7.5-0.73438t7.8906-2.1875z"/>
</defs>
<g transform="translate(762.03 354.83) scale(.1 -.1)">
<use xlink:href="#c"/>
<use x="63.623047" xlink:href="#e"/>
<use x="95.410156" xlink:href="#c"/>
<use x="159.033203" xlink:href="#aj"/>
</g>
</g>
<g clip-path="url(#a)">
<g transform="translate(762.03 432.88) scale(.1 -.1)">
<use xlink:href="#c"/>
<use x="63.623047" xlink:href="#e"/>
<use x="95.410156" xlink:href="#c"/>
<use x="159.033203" xlink:href="#ac"/>
</g>
</g>
<g clip-path="url(#a)">
<g transform="translate(83.679 432.88) scale(.1 -.1)">
<use xlink:href="#c"/>
<use x="63.623047" xlink:href="#e"/>
<use x="95.410156" xlink:href="#c"/>
<use x="159.033203" xlink:href="#ab"/>
</g>
</g>
<g clip-path="url(#a)">
<g transform="translate(180.59 354.83) scale(.1 -.1)">
<use xlink:href="#c"/>
<use x="63.623047" xlink:href="#e"/>
<use x="95.410156" xlink:href="#c"/>
<use x="159.033203" xlink:href="#aa"/>
</g>
</g>
<g clip-path="url(#a)">
<g transform="translate(180.59 432.88) scale(.1 -.1)">
<use xlink:href="#c"/>
<use x="63.623047" xlink:href="#e"/>
<use x="95.410156" xlink:href="#m"/>
<use x="159.033203" xlink:href="#ae"/>
</g>
</g>
<g clip-path="url(#a)">
<g transform="translate(229.04 432.88) scale(.1 -.1)">
<use xlink:href="#c"/>
<use x="63.623047" xlink:href="#e"/>
<use x="95.410156" xlink:href="#m"/>
<use x="159.033203" xlink:href="#c"/>
</g>
</g>
<g clip-path="url(#a)">
<g transform="translate(362.29 275.69) scale(.1 -.1)">
<use xlink:href="#c"/>
<use x="63.623047" xlink:href="#e"/>
<use x="95.410156" xlink:href="#m"/>
<use x="159.033203" xlink:href="#m"/>
</g>
</g>
<g clip-path="url(#a)">
<g transform="translate(325.95 432.88) scale(.1 -.1)">
<use xlink:href="#c"/>
<use x="63.623047" xlink:href="#e"/>
<use x="95.410156" xlink:href="#m"/>
<use x="159.033203" xlink:href="#ad"/>
</g>
</g>
<g clip-path="url(#a)">
<g transform="translate(422.85 354.83) scale(.1 -.1)">
<use xlink:href="#c"/>
<use x="63.623047" xlink:href="#e"/>
<use x="95.410156" xlink:href="#m"/>
<use x="159.033203" xlink:href="#ak"/>
</g>
</g>
<g clip-path="url(#a)">
<g transform="translate(471.31 432.88) scale(.1 -.1)">
<use xlink:href="#c"/>
<use x="63.623047" xlink:href="#e"/>
<use x="95.410156" xlink:href="#m"/>
<use x="159.033203" xlink:href="#aj"/>
</g>
</g>
<g clip-path="url(#a)">
<g transform="translate(374.4 432.88) scale(.1 -.1)">
<use xlink:href="#c"/>
<use x="63.623047" xlink:href="#e"/>
<use x="95.410156" xlink:href="#m"/>
<use x="159.033203" xlink:href="#ac"/>
</g>
</g>
<g clip-path="url(#a)">
<g transform="translate(422.85 432.88) scale(.1 -.1)">
<use xlink:href="#c"/>
<use x="63.623047" xlink:href="#e"/>
<use x="95.410156" xlink:href="#m"/>
<use x="159.033203" xlink:href="#ab"/>
</g>
</g>
<g clip-path="url(#a)">
<g transform="translate(132.13 432.88) scale(.1 -.1)">
<use xlink:href="#c"/>
<use x="63.623047" xlink:href="#e"/>
<use x="95.410156" xlink:href="#m"/>
<use x="159.033203" xlink:href="#aa"/>
</g>
</g>
<g clip-path="url(#a)">
<g transform="translate(277.49 432.88) scale(.1 -.1)">
<use xlink:href="#c"/>
<use x="63.623047" xlink:href="#e"/>
<use x="95.410156" xlink:href="#n"/>
<use x="159.033203" xlink:href="#ae"/>
</g>
</g>
<g clip-path="url(#a)">
<g transform="translate(519.76 432.88) scale(.1 -.1)">
<use xlink:href="#c"/>
<use x="63.623047" xlink:href="#e"/>
<use x="95.410156" xlink:href="#n"/>
<use x="159.033203" xlink:href="#c"/>
</g>
</g>
<g clip-path="url(#a)">
<g transform="translate(858.93 432.88) scale(.1 -.1)">
<use xlink:href="#c"/>
<use x="63.623047" xlink:href="#e"/>
<use x="95.410156" xlink:href="#n"/>
<use x="159.033203" xlink:href="#m"/>
</g>
</g>
<g clip-path="url(#a)">
<g transform="translate(907.39 432.88) scale(.1 -.1)">
<use xlink:href="#c"/>
<use x="63.623047" xlink:href="#e"/>
<use x="95.410156" xlink:href="#n"/>
<use x="159.033203" xlink:href="#n"/>
</g>
</g>
<g clip-path="url(#a)">
<g transform="translate(955.84 432.88) scale(.1 -.1)">
<use xlink:href="#c"/>
<use x="63.623047" xlink:href="#e"/>
<use x="95.410156" xlink:href="#n"/>
<use x="159.033203" xlink:href="#ad"/>
</g>
</g>
<defs>
<clipPath id="a">
<rect width="1013.3" height="533.33"/>
</clipPath>
</defs>
</svg>
