<?xml version="1.0" encoding="UTF-8"?>
<!DOCTYPE svg  PUBLIC '-//W3C//DTD SVG 1.1//EN'  'http://www.w3.org/Graphics/SVG/1.1/DTD/svg11.dtd'>
<svg width="1976pt" height="1040pt" version="1.1" viewBox="0 0 1976 1040" xmlns="http://www.w3.org/2000/svg" xmlns:xlink="http://www.w3.org/1999/xlink">
<defs>
<style type="text/css">*{stroke-linecap:butt;stroke-linejoin:round;}</style>
</defs>
<path d="m0 1040h1976v-1040h-1976z" fill="#fff"/>
<g fill="none" stroke="#000">
<path d="m681.57 47.273-551.59 475.99" clip-path="url(#a)"/>
<path d="m681.57 47.273-477.41 790.68" clip-path="url(#a)"/>
<path d="m681.57 47.273-317.66 159.01" clip-path="url(#a)"/>
<path d="m681.57 47.273 791.25 475.99" clip-path="url(#a)"/>
<path d="m681.57 47.273-499.4 790.68" clip-path="url(#a)"/>
<path d="m681.57 47.273 492.23 790.68" clip-path="url(#a)"/>
<path d="m681.57 47.273 562.59 790.68" clip-path="url(#a)"/>
<path d="m129.98 523.27-32.834 157.75" clip-path="url(#a)"/>
<path d="m129.98 523.27-13.779 314.68" clip-path="url(#a)"/>
<path d="m129.98 523.27-0.58633 314.68" clip-path="url(#a)"/>
<path d="m129.98 523.27 14.805 314.68" clip-path="url(#a)"/>
<path d="m129.98 523.27 32.395 314.68" clip-path="url(#a)"/>
<path d="m204.15 837.95v154.78" clip-path="url(#a)"/>
<path d="m363.9 206.28-135.57 631.67" clip-path="url(#a)"/>
<path d="m363.9 206.28-109.18 631.67" clip-path="url(#a)"/>
<path d="m363.9 206.28 391.99 158.69" clip-path="url(#a)"/>
<path d="m363.9 206.28-80.597 631.67" clip-path="url(#a)"/>
<path d="m363.9 206.28-49.815 631.67" clip-path="url(#a)"/>
<path d="m363.9 206.28-16.834 631.67" clip-path="url(#a)"/>
<path d="m1472.8 523.27-156.11 314.68" clip-path="url(#a)"/>
<path d="m1472.8 523.27-81.353 314.68" clip-path="url(#a)"/>
<path d="m1472.8 523.27-4.3975 314.68" clip-path="url(#a)"/>
<path d="m1472.8 523.27 241.86 157.75" clip-path="url(#a)"/>
<path d="m1316.7 837.95v154.78" clip-path="url(#a)"/>
<path d="m1391.5 837.95v154.78" clip-path="url(#a)"/>
<path d="m1468.4 837.95v154.78" clip-path="url(#a)"/>
<path d="m1714.7 681.02-167.1 156.93" clip-path="url(#a)"/>
<path d="m1714.7 681.02-85.751 156.93" clip-path="url(#a)"/>
<path d="m1714.7 681.02-2.1987 156.93" clip-path="url(#a)"/>
<path d="m1714.7 681.02 83.552 156.93" clip-path="url(#a)"/>
<path d="m1714.7 681.02 171.5 156.93" clip-path="url(#a)"/>
<path d="m1547.6 837.95v154.78" clip-path="url(#a)"/>
<path d="m1628.9 837.95v154.78" clip-path="url(#a)"/>
<path d="m1712.5 837.95v154.78" clip-path="url(#a)"/>
<path d="m1798.2 837.95v154.78" clip-path="url(#a)"/>
<path d="m228.34 837.95v154.78" clip-path="url(#a)"/>
<path d="m254.72 837.95v154.78" clip-path="url(#a)"/>
<path d="m755.9 364.97-227.43 316.04" clip-path="url(#a)"/>
<path d="m755.9 364.97 41.913 472.98" clip-path="url(#a)"/>
<path d="m755.9 364.97 198.57 158.29" clip-path="url(#a)"/>
<path d="m755.9 364.97-13.055 472.98" clip-path="url(#a)"/>
<path d="m528.47 681.02-146.22 156.93" clip-path="url(#a)"/>
<path d="m528.47 681.02-69.26 156.93" clip-path="url(#a)"/>
<path d="m528.47 681.02 16.49 156.93" clip-path="url(#a)"/>
<path d="m528.47 681.02 62.664 156.93" clip-path="url(#a)"/>
<path d="m528.47 681.02 111.04 156.93" clip-path="url(#a)"/>
<path d="m528.47 681.02 161.61 156.93" clip-path="url(#a)"/>
<path d="m528.47 681.02-108.84 156.93" clip-path="url(#a)"/>
<path d="m528.47 681.02-27.484 156.93" clip-path="url(#a)"/>
<path d="m797.81 837.95v154.78" clip-path="url(#a)"/>
<path d="m954.47 523.27-99.493 314.68" clip-path="url(#a)"/>
<path d="m954.47 523.27-40.127 314.68" clip-path="url(#a)"/>
<path d="m954.47 523.27 21.438 314.68" clip-path="url(#a)"/>
<path d="m954.47 523.27 118.18 157.75" clip-path="url(#a)"/>
<path d="m854.98 837.95v154.78" clip-path="url(#a)"/>
<path d="m914.34 837.95v154.78" clip-path="url(#a)"/>
<path d="m975.91 837.95v154.78" clip-path="url(#a)"/>
<path d="m1072.7 681.02-32.981 156.93" clip-path="url(#a)"/>
<path d="m1072.7 681.02 32.981 156.93" clip-path="url(#a)"/>
<path d="m1039.7 837.95v154.78" clip-path="url(#a)"/>
<path d="m1105.6 837.95v154.78" clip-path="url(#a)"/>
<path d="m382.25 837.95v154.78" clip-path="url(#a)"/>
<path d="m459.21 837.95v154.78" clip-path="url(#a)"/>
<path d="m544.96 837.95v154.78" clip-path="url(#a)"/>
<path d="m591.13 837.95v154.78" clip-path="url(#a)"/>
<path d="m639.5 837.95v154.78" clip-path="url(#a)"/>
<path d="m690.07 837.95v154.78" clip-path="url(#a)"/>
<path d="m182.16 837.95v154.78" clip-path="url(#a)"/>
<path d="m283.31 837.95v154.78" clip-path="url(#a)"/>
<path d="m97.147 681.02-7.3291 156.93" clip-path="url(#a)"/>
<path d="m97.147 681.02-0.73291 156.93" clip-path="url(#a)"/>
<path d="m97.147 681.02 8.062 156.93" clip-path="url(#a)"/>
<path d="m116.2 837.95v154.78" clip-path="url(#a)"/>
<path d="m129.4 837.95v154.78" clip-path="url(#a)"/>
<path d="m144.79 837.95v154.78" clip-path="url(#a)"/>
<path d="m162.38 837.95v154.78" clip-path="url(#a)"/>
<path d="m89.818 837.95v154.78" clip-path="url(#a)"/>
<path d="m96.414 837.95v154.78" clip-path="url(#a)"/>
<path d="m105.21 837.95v154.78" clip-path="url(#a)"/>
<path d="m314.09 837.95v154.78" clip-path="url(#a)"/>
<path d="m347.07 837.95v154.78" clip-path="url(#a)"/>
<path d="m419.63 837.95v154.78" clip-path="url(#a)"/>
<path d="m500.98 837.95v154.78" clip-path="url(#a)"/>
<path d="m742.84 837.95v154.78" clip-path="url(#a)"/>
<path d="m1173.8 837.95v154.78" clip-path="url(#a)"/>
<path d="m1244.2 837.95v154.78" clip-path="url(#a)"/>
<path d="m1886.2 837.95v154.78" clip-path="url(#a)"/>
</g>
<path d="m407.59 291.98 4.5548-3.9306q1.817-1.568 0.24901-3.385l-5.0584-5.8617q-1.568-1.817-3.385-0.24901l-4.5548 3.9306q-1.817 1.568-0.24901 3.385l5.0584 5.8617q1.568 1.817 3.385 0.24901z" clip-path="url(#a)" fill="#fff" stroke="#fff"/>
<g clip-path="url(#a)">
<defs>
<path id="x" d="m9.8125 72.906h9.8594v-29.891h35.844v29.891h9.8594v-72.906h-9.8594v34.719h-35.844v-34.719h-9.8594z"/>
</defs>
<g transform="translate(404.94 288.91) rotate(-40.793) scale(.08 -.08)">
<use xlink:href="#x"/>
</g>
</g>
<path d="m447.08 447.76 2.304-3.8159q1.2405-2.0545-0.81399-3.2951l-6.628-4.002q-2.0545-1.2405-3.2951 0.81399l-2.304 3.8159q-1.2405 2.0545 0.81399 3.2951l6.628 4.002q2.0545 1.2405 3.2951-0.81399z" clip-path="url(#a)" fill="#fff" stroke="#fff"/>
<g clip-path="url(#a)">
<defs>
<path id="ap" d="m9.8125 72.906h9.8594v-64.609h35.5v-8.2969h-45.359z"/>
</defs>
<g transform="translate(443.6 445.66) rotate(-58.876) scale(.08 -.08)">
<use xlink:href="#ap"/>
</g>
</g>
<path d="m522.85 133.73 5.3799-2.693q2.1461-1.0743 1.0719-3.2204l-3.4657-6.9235q-1.0743-2.1461-3.2204-1.0719l-5.3799 2.693q-2.1461 1.0743-1.0719 3.2204l3.4657 6.9235q1.0743 2.1461 3.2204 1.0719z" clip-path="url(#a)" fill="#fff" stroke="#fff"/>
<g clip-path="url(#a)">
<g transform="translate(521.03 130.1) rotate(-26.591) scale(.08 -.08)">
<use xlink:href="#x"/>
</g>
</g>
<path d="m1071.4 289.09 5.1553 3.1013q2.0566 1.2372 3.2937-0.8194l3.9911-6.6345q1.2372-2.0566-0.8194-3.2937l-5.1553-3.1013q-2.0566-1.2372-3.2937 0.8194l-3.9911 6.6345q-1.2372 2.0566 0.8194 3.2937z" clip-path="url(#a)" fill="#fff" stroke="#fff"/>
<g clip-path="url(#a)">
<g transform="translate(1073.5 285.61) rotate(31.03) scale(.08 -.08)">
<use xlink:href="#x"/>
</g>
</g>
<path d="m435.6 448.44 3.1266-4.9503q1.2816-2.0291-0.74751-3.3108l-6.5461-4.1346q-2.0291-1.2816-3.3108 0.74751l-3.1266 4.9503q-1.2816 2.0291 0.74751 3.3108l6.5461 4.1346q2.0291 1.2816 3.3108-0.74751z" clip-path="url(#a)" fill="#fff" stroke="#fff"/>
<g clip-path="url(#a)">
<defs>
<path id="r" d="m8.6875 72.906h9.9219v-44.297q0-11.719 4.2344-16.875 4.25-5.1406 13.781-5.1406 9.4688 0 13.719 5.1406 4.25 5.1562 4.25 16.875v44.297h9.9062v-45.516q0-14.25-7.0625-21.531-7.0469-7.2812-20.812-7.2812-13.828 0-20.891 7.2812-7.0469 7.2812-7.0469 21.531z"/>
</defs>
<g transform="translate(432.17 446.27) rotate(-57.723) scale(.08 -.08)">
<use xlink:href="#r"/>
</g>
</g>
<path d="m920.81 443.44 3.0943 4.9705q1.2684 2.0374 3.3058 0.76906l6.5729-4.0919q2.0374-1.2684 0.76906-3.3058l-3.0943-4.9705q-1.2684-2.0374-3.3058-0.76906l-6.5729 4.0919q-2.0374 1.2684-0.76906 3.3058z" clip-path="url(#a)" fill="#fff" stroke="#fff"/>
<g clip-path="url(#a)">
<g transform="translate(924.26 441.29) rotate(58.096) scale(.08 -.08)">
<use xlink:href="#r"/>
</g>
</g>
<path d="m956.05 443.86 3.3944 4.7706q1.3914 1.9555 3.3469 0.56412l6.3086-4.4887q1.9555-1.3914 0.56412-3.3469l-3.3944-4.7706q-1.3914-1.9555-3.3469-0.56412l-6.3086 4.4887q-1.9555 1.3914-0.56412 3.3469z" clip-path="url(#a)" fill="#fff" stroke="#fff"/>
<g clip-path="url(#a)">
<g transform="translate(959.36 441.51) rotate(54.567) scale(.08 -.08)">
<use xlink:href="#r"/>
</g>
</g>
<path d="m119.15 606.1 1.1151-5.3577q0.48905-2.3496-1.8606-2.8387l-7.5801-1.5777q-2.3496-0.48905-2.8387 1.8606l-1.1151 5.3577q-0.48905 2.3496 1.8606 2.8387l7.5801 1.5777q2.3496 0.48905 2.8387-1.8606z" clip-path="url(#a)" fill="#fff" stroke="#fff"/>
<g clip-path="url(#a)">
<defs>
<path id="s" d="m34.188 63.188-13.391-36.281h26.812zm-5.5781 9.7188h11.188l27.781-72.906h-10.25l-6.6406 18.703h-32.859l-6.6406-18.703h-10.406z"/>
</defs>
<g transform="translate(115.17 605.27) rotate(-78.242) scale(.08 -.08)">
<use xlink:href="#s"/>
</g>
</g>
<path d="m129.22 683.96 0.26946-6.1541q0.10498-2.3977-2.2927-2.5027l-7.7351-0.33869q-2.3977-0.10499-2.5027 2.2927l-0.26946 6.1541q-0.10498 2.3977 2.2927 2.5027l7.7351 0.33869q2.3977 0.10498 2.5027-2.2927z" clip-path="url(#a)" fill="#fff" stroke="#fff"/>
<g clip-path="url(#a)">
<defs>
<path id="t" d="m19.672 64.797v-56.688h11.922q15.094 0 22.094 6.8281 7 6.8438 7 21.594 0 14.641-7 21.453t-22.094 6.8125zm-9.8594 8.1094h20.266q21.188 0 31.094-8.8125 9.9219-8.8125 9.9219-27.562 0-18.859-9.9688-27.703-9.9531-8.8281-31.047-8.8281h-20.266z"/>
</defs>
<g transform="translate(125.16 683.78) rotate(-87.493) scale(.08 -.08)">
<use xlink:href="#t"/>
</g>
</g>
<path d="m135.95 683.36 0.010196-5.4725q0.004472-2.4-2.3955-2.4045l-7.7425-0.014426q-2.4-0.004472-2.4045 2.3955l-0.010196 5.4725q-0.004472 2.4 2.3955 2.4045l7.7425 0.014426q2.4 0.004472 2.4045-2.3955z" clip-path="url(#a)" fill="#fff" stroke="#fff"/>
<g clip-path="url(#a)">
<g transform="translate(131.89 683.35) rotate(-89.893) scale(.08 -.08)">
<use xlink:href="#s"/>
</g>
</g>
<path d="m131.01 678.49 0.22669 4.8184q0.11279 2.3973 2.5101 2.2846l7.7339-0.36386q2.3973-0.11279 2.2846-2.5101l-0.22669-4.8184q-0.11279-2.3973-2.5101-2.2846l-7.7339 0.36386q-2.3973 0.11279-2.2846 2.5101z" clip-path="url(#a)" fill="#fff" stroke="#fff"/>
<g clip-path="url(#a)">
<defs>
<path id="ai" d="m19.672 64.797v-27.391h12.406q6.8906 0 10.641 3.5625 3.7656 3.5625 3.7656 10.156 0 6.5469-3.7656 10.109-3.75 3.5625-10.641 3.5625zm-9.8594 8.1094h22.266q12.266 0 18.531-5.5469 6.2812-5.5469 6.2812-16.234 0-10.797-6.2812-16.312-6.2656-5.5156-18.531-5.5156h-12.406v-29.297h-9.8594z"/>
</defs>
<g transform="translate(135.07 678.3) rotate(87.306) scale(.08 -.08)">
<use xlink:href="#ai"/>
</g>
</g>
<path d="m139.71 678.96 0.47118 4.5771q0.24576 2.3874 2.6331 2.1416l7.7018-0.79285q2.3874-0.24576 2.1416-2.6331l-0.47118-4.5771q-0.24576-2.3874-2.6331-2.1416l-7.7018 0.79285q-2.3874 0.24576-2.1416 2.6331z" clip-path="url(#a)" fill="#fff" stroke="#fff"/>
<g clip-path="url(#a)">
<defs>
<path id="v" d="m9.8125 72.906h41.891v-8.3125h-32.031v-21.484h28.906v-8.2969h-28.906v-34.812h-9.8594z"/>
</defs>
<g transform="translate(143.75 678.55) rotate(84.122) scale(.08 -.08)">
<use xlink:href="#v"/>
</g>
</g>
<path d="m197.88 898.43v33.808q0 2.4 2.4 2.4h7.7425q2.4 0 2.4-2.4v-33.808q0-2.4-2.4-2.4h-7.7425q-2.4 0-2.4 2.4z" clip-path="url(#a)" fill="#fff" stroke="#fff"/>
<g clip-path="url(#a)">
<defs>
<path id="k" d="m-0.29688 72.906h61.672v-8.3125h-25.875v-64.594h-9.9062v64.594h-25.891z"/>
<path id="d" d="m56.203 29.594v-4.3906h-41.312q0.59375-9.2812 5.5938-14.141t13.938-4.8594q5.1719 0 10.031 1.2656t9.6562 3.8125v-8.5q-4.8438-2.0469-9.9219-3.125t-10.297-1.0781q-13.094 0-20.734 7.6094-7.6406 7.625-7.6406 20.625 0 13.422 7.25 21.297 7.25 7.8906 19.562 7.8906 11.031 0 17.453-7.1094 6.4219-7.0938 6.4219-19.297zm-8.9844 2.6406q-0.09375 7.3594-4.125 11.75-4.0312 4.4062-10.672 4.4062-7.5156 0-12.031-4.25t-5.2031-11.969z"/>
<path id="f" d="m41.109 46.297q-1.5156 0.875-3.2969 1.2812-1.7812 0.42188-3.9219 0.42188-7.625 0-11.703-4.9531t-4.0781-14.234v-28.812h-9.0312v54.688h9.0312v-8.5q2.8438 4.9844 7.375 7.3906 4.5469 2.4219 11.047 2.4219 0.92188 0 2.0469-0.125 1.125-0.10938 2.4844-0.35938z"/>
<path id="j" d="m52 44.188q3.375 6.0625 8.0625 8.9375t11.031 2.875q8.5469 0 13.188-5.9844 4.6406-5.9688 4.6406-17v-33.016h-9.0312v32.719q0 7.8594-2.7969 11.656-2.7812 3.8125-8.4844 3.8125-6.9844 0-11.047-4.6406-4.0469-4.625-4.0469-12.641v-30.906h-9.0312v32.719q0 7.9062-2.7812 11.688t-8.5938 3.7812q-6.8906 0-10.953-4.6562-4.0469-4.6562-4.0469-12.625v-30.906h-9.0312v54.688h9.0312v-8.5q3.0781 5.0312 7.375 7.4219t10.203 2.3906q5.9688 0 10.141-3.0312 4.1719-3.0156 6.1719-8.7812z"/>
<path id="g" d="m9.4219 54.688h8.9844v-54.688h-8.9844zm0 21.297h8.9844v-11.391h-8.9844z"/>
<path id="h" d="m54.891 33.016v-33.016h-8.9844v32.719q0 7.7656-3.0312 11.609-3.0312 3.8594-9.0781 3.8594-7.2812 0-11.484-4.6406-4.2031-4.625-4.2031-12.641v-30.906h-9.0312v54.688h9.0312v-8.5q3.2344 4.9375 7.5938 7.375 4.375 2.4375 10.094 2.4375 9.4219 0 14.25-5.8281 4.8438-5.8281 4.8438-17.156z"/>
<path id="i" d="m34.281 27.484q-10.891 0-15.094-2.4844t-4.2031-8.5q0-4.7812 3.1562-7.5938 3.1562-2.7969 8.5625-2.7969 7.4844 0 12 5.2969t4.5156 14.078v2zm17.922 3.7188v-31.203h-8.9844v8.2969q-3.0781-4.9688-7.6719-7.3438t-11.234-2.375q-8.3906 0-13.359 4.7188-4.9531 4.7188-4.9531 12.625 0 9.2188 6.1719 13.906 6.1875 4.6875 18.438 4.6875h12.609v0.89062q0 6.2031-4.0781 9.5938t-11.453 3.3906q-4.6875 0-9.1406-1.125-4.4375-1.125-8.5312-3.375v8.3125q4.9219 1.9062 9.5625 2.8438 4.6406 0.95312 9.0312 0.95312 11.875 0 17.734-6.1562 5.8594-6.1406 5.8594-18.641z"/>
<path id="l" d="m9.4219 75.984h8.9844v-75.984h-8.9844z"/>
</defs>
<g transform="translate(201.94 898.43) rotate(90) scale(.08 -.08)">
<use xlink:href="#k"/>
<use x="44.083984" xlink:href="#d"/>
<use x="105.607422" xlink:href="#f"/>
<use x="144.970703" xlink:href="#j"/>
<use x="242.382812" xlink:href="#g"/>
<use x="270.166016" xlink:href="#h"/>
<use x="333.544922" xlink:href="#i"/>
<use x="394.824219" xlink:href="#l"/>
</g>
</g>
<path d="m301.68 526.11 1.1483-5.3507q0.50361-2.3466-1.843-2.8502l-7.5701-1.6247q-2.3466-0.50361-2.8502 1.843l-1.1483 5.3507q-0.50361 2.3466 1.843 2.8502l7.5701 1.6247q2.3466 0.50361 2.8502-1.843z" clip-path="url(#a)" fill="#fff" stroke="#fff"/>
<g clip-path="url(#a)">
<g transform="translate(297.71 525.26) rotate(-77.887) scale(.08 -.08)">
<use xlink:href="#s"/>
</g>
</g>
<path d="m315.08 525.56 0.82158-4.7533q0.40877-2.3649-1.9562-2.7737l-7.6294-1.3187q-2.3649-0.40877-2.7737 1.9562l-0.82158 4.7533q-0.40877 2.3649 1.9562 2.7737l7.6294 1.3187q2.3649 0.40877 2.7737-1.9562z" clip-path="url(#a)" fill="#fff" stroke="#fff"/>
<g clip-path="url(#a)">
<g transform="translate(311.08 524.87) rotate(-80.194) scale(.08 -.08)">
<use xlink:href="#ai"/>
</g>
</g>
<path d="m555.01 290.42 5.0726 2.0535q2.2246 0.9006 3.1252-1.324l2.9054-7.1767q0.9006-2.2246-1.324-3.1252l-5.0726-2.0535q-2.2246-0.9006-3.1252 1.324l-2.9054 7.1767q-0.9006 2.2246 1.324 3.1252z" clip-path="url(#a)" fill="#fff" stroke="#fff"/>
<g clip-path="url(#a)">
<g transform="translate(556.54 286.65) rotate(22.04) scale(.08 -.08)">
<use xlink:href="#s"/>
</g>
</g>
<path d="m329.46 525.81 0.74106-5.8079q0.30376-2.3807-2.0769-2.6845l-7.6802-0.97996q-2.3807-0.30376-2.6845 2.0769l-0.74106 5.8079q-0.30376 2.3807 2.0769 2.6845l7.6802 0.97996q2.3807 0.30376 2.6845-2.0769z" clip-path="url(#a)" fill="#fff" stroke="#fff"/>
<g clip-path="url(#a)">
<g transform="translate(325.42 525.3) rotate(-82.729) scale(.08 -.08)">
<use xlink:href="#r"/>
</g>
</g>
<path d="m345.02 525.53 0.46031-5.8369q0.18868-2.3926-2.2039-2.5813l-7.7185-0.60871q-2.3926-0.18868-2.5813 2.2039l-0.46031 5.8369q-0.18868 2.3926 2.2039 2.5813l7.7185 0.60871q2.3926 0.18868 2.5813-2.2039z" clip-path="url(#a)" fill="#fff" stroke="#fff"/>
<g clip-path="url(#a)">
<g transform="translate(340.97 525.21) rotate(-85.491) scale(.08 -.08)">
<use xlink:href="#r"/>
</g>
</g>
<path d="m361.68 525.21 0.15598-5.8529q0.063938-2.3991-2.3352-2.4631l-7.7398-0.20627q-2.3991-0.063937-2.4631 2.3352l-0.15598 5.8529q-0.063937 2.3991 2.3352 2.4631l7.7398 0.20627q2.3991 0.063937 2.4631-2.3352z" clip-path="url(#a)" fill="#fff" stroke="#fff"/>
<g clip-path="url(#a)">
<g transform="translate(357.62 525.1) rotate(-88.473) scale(.08 -.08)">
<use xlink:href="#r"/>
</g>
</g>
<path d="m1399.2 685.85 2.432-4.9024q1.0666-2.15-1.0834-3.2166l-6.9359-3.4408q-2.15-1.0666-3.2166 1.0834l-2.432 4.9024q-1.0666 2.15 1.0834 3.2166l6.9359 3.4408q2.15 1.0666 3.2166-1.0834z" clip-path="url(#a)" fill="#fff" stroke="#fff"/>
<g clip-path="url(#a)">
<g transform="translate(1395.5 684.04) rotate(-63.615) scale(.08 -.08)">
<use xlink:href="#s"/>
</g>
</g>
<path d="m1437.6 684.51 1.2074-4.6702q0.60071-2.3236-1.7229-2.9243l-7.4961-1.9379q-2.3236-0.6007-2.9243 1.7229l-1.2074 4.6702q-0.6007 2.3236 1.7229 2.9243l7.4961 1.9379q2.3236 0.6007 2.9243-1.7229z" clip-path="url(#a)" fill="#fff" stroke="#fff"/>
<g clip-path="url(#a)">
<g transform="translate(1433.7 683.5) rotate(-75.505) scale(.08 -.08)">
<use xlink:href="#ai"/>
</g>
</g>
<path d="m1476.8 683.77 0.086073-6.1594q0.033534-2.3998-2.3662-2.4333l-7.7417-0.10818q-2.3998-0.033535-2.4333 2.3662l-0.086073 6.1594q-0.033534 2.3998 2.3662 2.4333l7.7417 0.10818q2.3998 0.033535 2.4333-2.3662z" clip-path="url(#a)" fill="#fff" stroke="#fff"/>
<g clip-path="url(#a)">
<g transform="translate(1472.8 683.72) rotate(-89.199) scale(.08 -.08)">
<use xlink:href="#t"/>
</g>
</g>
<path d="m1588 605.9 4.5837 2.9897q2.0102 1.3112 3.3213-0.69904l4.2298-6.485q1.3112-2.0102-0.69904-3.3213l-4.5837-2.9897q-2.0102-1.3112-3.3213 0.69904l-4.2298 6.485q-1.3112 2.0102 0.69904 3.3213z" clip-path="url(#a)" fill="#fff" stroke="#fff"/>
<g clip-path="url(#a)">
<g transform="translate(1590.3 602.5) rotate(33.114) scale(.08 -.08)">
<use xlink:href="#s"/>
</g>
</g>
<path d="m1310.4 898.43v33.808q0 2.4 2.4 2.4h7.7425q2.4 0 2.4-2.4v-33.808q0-2.4-2.4-2.4h-7.7425q-2.4 0-2.4 2.4z" clip-path="url(#a)" fill="#fff" stroke="#fff"/>
<g clip-path="url(#a)">
<g transform="translate(1314.5 898.43) rotate(90) scale(.08 -.08)">
<use xlink:href="#k"/>
<use x="44.083984" xlink:href="#d"/>
<use x="105.607422" xlink:href="#f"/>
<use x="144.970703" xlink:href="#j"/>
<use x="242.382812" xlink:href="#g"/>
<use x="270.166016" xlink:href="#h"/>
<use x="333.544922" xlink:href="#i"/>
<use x="394.824219" xlink:href="#l"/>
</g>
</g>
<path d="m1385.2 898.43v33.808q0 2.4 2.4 2.4h7.7425q2.4 0 2.4-2.4v-33.808q0-2.4-2.4-2.4h-7.7425q-2.4 0-2.4 2.4z" clip-path="url(#a)" fill="#fff" stroke="#fff"/>
<g clip-path="url(#a)">
<g transform="translate(1389.3 898.43) rotate(90) scale(.08 -.08)">
<use xlink:href="#k"/>
<use x="44.083984" xlink:href="#d"/>
<use x="105.607422" xlink:href="#f"/>
<use x="144.970703" xlink:href="#j"/>
<use x="242.382812" xlink:href="#g"/>
<use x="270.166016" xlink:href="#h"/>
<use x="333.544922" xlink:href="#i"/>
<use x="394.824219" xlink:href="#l"/>
</g>
</g>
<path d="m1462.2 898.43v33.808q0 2.4 2.4 2.4h7.7425q2.4 0 2.4-2.4v-33.808q0-2.4-2.4-2.4h-7.7425q-2.4 0-2.4 2.4z" clip-path="url(#a)" fill="#fff" stroke="#fff"/>
<g clip-path="url(#a)">
<g transform="translate(1466.2 898.43) rotate(90) scale(.08 -.08)">
<use xlink:href="#k"/>
<use x="44.083984" xlink:href="#d"/>
<use x="105.607422" xlink:href="#f"/>
<use x="144.970703" xlink:href="#j"/>
<use x="242.382812" xlink:href="#g"/>
<use x="270.166016" xlink:href="#h"/>
<use x="333.544922" xlink:href="#i"/>
<use x="394.824219" xlink:href="#l"/>
</g>
</g>
<path d="m1633.4 765.96 4.052-3.8054q1.7495-1.643 0.1065-3.3924l-5.3003-5.6439q-1.643-1.7495-3.3924-0.1065l-4.052 3.8054q-1.7495 1.643-0.1065 3.3924l5.3003 5.6439q1.643 1.7495 3.3924 0.1065z" clip-path="url(#a)" fill="#fff" stroke="#fff"/>
<g clip-path="url(#a)">
<defs>
<path id="ao" d="m44.391 34.188q3.1719-1.0781 6.1719-4.5938t6.0312-9.6719l10.016-19.922h-10.609l-9.3125 18.703q-3.625 7.3281-7.0156 9.7188t-9.25 2.3906h-10.75v-30.812h-9.8594v72.906h22.266q12.5 0 18.656-5.2344 6.1562-5.2188 6.1562-15.766 0-6.8906-3.2031-11.438-3.2031-4.5312-9.2969-6.2812zm-24.719 30.609v-25.875h12.406q7.125 0 10.766 3.2969t3.6406 9.6875-3.6406 9.6406-10.766 3.25z"/>
</defs>
<g transform="translate(1630.6 763) rotate(-43.202) scale(.08 -.08)">
<use xlink:href="#ao"/>
</g>
</g>
<path d="m1676.2 764.51 2.2063-4.0378q1.1508-2.1061-0.95527-3.2569l-6.7943-3.7126q-2.1061-1.1508-3.2569 0.95527l-2.2063 4.0378q-1.1508 2.1061 0.95527 3.2569l6.7943 3.7126q2.1061 1.1508 3.2569-0.95528z" clip-path="url(#a)" fill="#fff" stroke="#fff"/>
<g clip-path="url(#a)">
<g transform="translate(1672.6 762.56) rotate(-61.347) scale(.08 -.08)">
<use xlink:href="#v"/>
</g>
</g>
<path d="m1719.8 762.37 0.07826-5.5857q0.033623-2.3998-2.3661-2.4334l-7.7417-0.10847q-2.3998-0.033622-2.4334 2.3661l-0.07826 5.5857q-0.033623 2.3998 2.3661 2.4334l7.7417 0.10847q2.3998 0.033623 2.4334-2.3661z" clip-path="url(#a)" fill="#fff" stroke="#fff"/>
<g clip-path="url(#a)">
<defs>
<path id="ak" d="m64.406 67.281v-10.391q-4.9844 4.6406-10.625 6.9219-5.6406 2.2969-11.984 2.2969-12.5 0-19.141-7.6406t-6.6406-22.094q0-14.406 6.6406-22.047t19.141-7.6406q6.3438 0 11.984 2.2969t10.625 6.9375v-10.312q-5.1719-3.5156-10.969-5.2812-5.7812-1.75-12.219-1.75-16.562 0-26.094 10.125-9.5156 10.141-9.5156 27.672 0 17.578 9.5156 27.703 9.5312 10.141 26.094 10.141 6.5312 0 12.312-1.7344 5.7969-1.7344 10.875-5.2031z"/>
</defs>
<g transform="translate(1715.7 762.31) rotate(-89.197) scale(.08 -.08)">
<use xlink:href="#ak"/>
</g>
</g>
<path d="m1749.6 759.98 2.6124 4.9067q1.1279 2.1185 3.2463 0.99056l6.8342-3.6386q2.1185-1.1279 0.99056-3.2463l-2.6124-4.9067q-1.1279-2.1185-3.2463-0.99056l-6.8342 3.6386q-2.1185 1.1279-0.99056 3.2464z" clip-path="url(#a)" fill="#fff" stroke="#fff"/>
<g clip-path="url(#a)">
<g transform="translate(1753.2 758.07) rotate(61.969) scale(.08 -.08)">
<use xlink:href="#ao"/>
</g>
</g>
<path d="m1794 762.13 4.3195 3.9526q1.7706 1.6202 3.3908-0.15043l5.2268-5.712q1.6202-1.7706-0.15043-3.3908l-4.3195-3.9526q-1.7706-1.6202-3.3908 0.15043l-5.2268 5.712q-1.6202 1.7706 0.15043 3.3908z" clip-path="url(#a)" fill="#fff" stroke="#fff"/>
<g clip-path="url(#a)">
<g transform="translate(1796.8 759.14) rotate(42.46) scale(.08 -.08)">
<use xlink:href="#r"/>
</g>
</g>
<path d="m1541.3 898.43v33.808q0 2.4 2.4 2.4h7.7425q2.4 0 2.4-2.4v-33.808q0-2.4-2.4-2.4h-7.7425q-2.4 0-2.4 2.4z" clip-path="url(#a)" fill="#fff" stroke="#fff"/>
<g clip-path="url(#a)">
<g transform="translate(1545.4 898.43) rotate(90) scale(.08 -.08)">
<use xlink:href="#k"/>
<use x="44.083984" xlink:href="#d"/>
<use x="105.607422" xlink:href="#f"/>
<use x="144.970703" xlink:href="#j"/>
<use x="242.382812" xlink:href="#g"/>
<use x="270.166016" xlink:href="#h"/>
<use x="333.544922" xlink:href="#i"/>
<use x="394.824219" xlink:href="#l"/>
</g>
</g>
<path d="m1622.7 898.43v33.808q0 2.4 2.4 2.4h7.7425q2.4 0 2.4-2.4v-33.808q0-2.4-2.4-2.4h-7.7425q-2.4 0-2.4 2.4z" clip-path="url(#a)" fill="#fff" stroke="#fff"/>
<g clip-path="url(#a)">
<g transform="translate(1626.7 898.43) rotate(90) scale(.08 -.08)">
<use xlink:href="#k"/>
<use x="44.083984" xlink:href="#d"/>
<use x="105.607422" xlink:href="#f"/>
<use x="144.970703" xlink:href="#j"/>
<use x="242.382812" xlink:href="#g"/>
<use x="270.166016" xlink:href="#h"/>
<use x="333.544922" xlink:href="#i"/>
<use x="394.824219" xlink:href="#l"/>
</g>
</g>
<path d="m1706.2 898.43v33.808q0 2.4 2.4 2.4h7.7425q2.4 0 2.4-2.4v-33.808q0-2.4-2.4-2.4h-7.7425q-2.4 0-2.4 2.4z" clip-path="url(#a)" fill="#fff" stroke="#fff"/>
<g clip-path="url(#a)">
<g transform="translate(1710.3 898.43) rotate(90) scale(.08 -.08)">
<use xlink:href="#k"/>
<use x="44.083984" xlink:href="#d"/>
<use x="105.607422" xlink:href="#f"/>
<use x="144.970703" xlink:href="#j"/>
<use x="242.382812" xlink:href="#g"/>
<use x="270.166016" xlink:href="#h"/>
<use x="333.544922" xlink:href="#i"/>
<use x="394.824219" xlink:href="#l"/>
</g>
</g>
<path d="m1792 898.43v33.808q0 2.4 2.4 2.4h7.7425q2.4 0 2.4-2.4v-33.808q0-2.4-2.4-2.4h-7.7425q-2.4 0-2.4 2.4z" clip-path="url(#a)" fill="#fff" stroke="#fff"/>
<g clip-path="url(#a)">
<g transform="translate(1796 898.43) rotate(90) scale(.08 -.08)">
<use xlink:href="#k"/>
<use x="44.083984" xlink:href="#d"/>
<use x="105.607422" xlink:href="#f"/>
<use x="144.970703" xlink:href="#j"/>
<use x="242.382812" xlink:href="#g"/>
<use x="270.166016" xlink:href="#h"/>
<use x="333.544922" xlink:href="#i"/>
<use x="394.824219" xlink:href="#l"/>
</g>
</g>
<path d="m222.07 898.43v33.808q0 2.4 2.4 2.4h7.7425q2.4 0 2.4-2.4v-33.808q0-2.4-2.4-2.4h-7.7425q-2.4 0-2.4 2.4z" clip-path="url(#a)" fill="#fff" stroke="#fff"/>
<g clip-path="url(#a)">
<g transform="translate(226.13 898.43) rotate(90) scale(.08 -.08)">
<use xlink:href="#k"/>
<use x="44.083984" xlink:href="#d"/>
<use x="105.607422" xlink:href="#f"/>
<use x="144.970703" xlink:href="#j"/>
<use x="242.382812" xlink:href="#g"/>
<use x="270.166016" xlink:href="#h"/>
<use x="333.544922" xlink:href="#i"/>
<use x="394.824219" xlink:href="#l"/>
</g>
</g>
<path d="m248.45 898.43v33.808q0 2.4 2.4 2.4h7.7425q2.4 0 2.4-2.4v-33.808q0-2.4-2.4-2.4h-7.7425q-2.4 0-2.4 2.4z" clip-path="url(#a)" fill="#fff" stroke="#fff"/>
<g clip-path="url(#a)">
<g transform="translate(252.52 898.43) rotate(90) scale(.08 -.08)">
<use xlink:href="#k"/>
<use x="44.083984" xlink:href="#d"/>
<use x="105.607422" xlink:href="#f"/>
<use x="144.970703" xlink:href="#j"/>
<use x="242.382812" xlink:href="#g"/>
<use x="270.166016" xlink:href="#h"/>
<use x="333.544922" xlink:href="#i"/>
<use x="394.824219" xlink:href="#l"/>
</g>
</g>
<path d="m645.51 529.1 3.5141-4.8833q1.4018-1.948-0.54619-3.3499l-6.2844-4.5224q-1.948-1.4018-3.3499 0.54619l-3.5141 4.8833q-1.4018 1.948 0.54619 3.3499l6.2844 4.5224q1.948 1.4018 3.3499-0.54619z" clip-path="url(#a)" fill="#fff" stroke="#fff"/>
<g clip-path="url(#a)">
<g transform="translate(642.22 526.73) rotate(-54.261) scale(.08 -.08)">
<use xlink:href="#x"/>
</g>
</g>
<path d="m770.41 599.8 0.39347 4.4401q0.21185 2.3906 2.6025 2.1788l7.7123-0.68343q2.3906-0.21185 2.1788-2.6025l-0.39347-4.4401q-0.21185-2.3906-2.6025-2.1788l-7.7123 0.68343q-2.3906 0.21185-2.1788 2.6025z" clip-path="url(#a)" fill="#fff" stroke="#fff"/>
<g clip-path="url(#a)">
<g transform="translate(774.46 599.44) rotate(84.936) scale(.08 -.08)">
<use xlink:href="#ap"/>
</g>
</g>
<path d="m848.92 447.15 4.7045 3.7501q1.8767 1.496 3.3727-0.3807l4.8261-6.0543q1.496-1.8767-0.38071-3.3727l-4.7045-3.7501q-1.8767-1.496-3.3727 0.3807l-4.8261 6.0543q-1.496 1.8767 0.3807 3.3727z" clip-path="url(#a)" fill="#fff" stroke="#fff"/>
<g clip-path="url(#a)">
<g transform="translate(851.45 443.97) rotate(38.56) scale(.08 -.08)">
<use xlink:href="#x"/>
</g>
</g>
<path d="m755.56 604.56 0.16155-5.8528q0.066219-2.3991-2.3329-2.4653l-7.7396-0.21363q-2.3991-0.066219-2.4653 2.3329l-0.16155 5.8528q-0.066219 2.3991 2.3329 2.4653l7.7396 0.21363q2.3991 0.066219 2.4653-2.3329z" clip-path="url(#a)" fill="#fff" stroke="#fff"/>
<g clip-path="url(#a)">
<g transform="translate(751.49 604.45) rotate(-88.419) scale(.08 -.08)">
<use xlink:href="#r"/>
</g>
</g>
<path d="m457.85 766.01 4.1992-4.5069q1.636-1.7559-0.11989-3.392l-5.6647-5.278q-1.7559-1.636-3.392 0.11989l-4.1992 4.5069q-1.6361 1.7559 0.11989 3.392l5.6647 5.278q1.7559 1.636 3.392-0.11989z" clip-path="url(#a)" fill="#fff" stroke="#fff"/>
<g clip-path="url(#a)">
<g transform="translate(454.87 763.24) rotate(-47.024) scale(.08 -.08)">
<use xlink:href="#t"/>
</g>
</g>
<path d="m498.33 764.83 2.4872-5.6356q0.96904-2.1957-1.2266-3.1647l-7.0833-3.1262q-2.1957-0.96904-3.1647 1.2266l-2.4872 5.6355q-0.96904 2.1957 1.2266 3.1647l7.0833 3.1262q2.1957 0.96904 3.1647-1.2266z" clip-path="url(#a)" fill="#fff" stroke="#fff"/>
<g clip-path="url(#a)">
<g transform="translate(494.61 763.19) rotate(-66.186) scale(.08 -.08)">
<use xlink:href="#t"/>
</g>
</g>
<path d="m530.19 757.42 0.57191 5.4425q0.25081 2.3869 2.6377 2.136l7.7001-0.80914q2.3869-0.25081 2.136-2.6377l-0.57191-5.4425q-0.25081-2.3869-2.6377-2.136l-7.7001 0.80914q-2.3869 0.25082-2.136 2.6377z" clip-path="url(#a)" fill="#fff" stroke="#fff"/>
<g clip-path="url(#a)">
<g transform="translate(534.23 756.99) rotate(84.001) scale(.08 -.08)">
<use xlink:href="#s"/>
</g>
</g>
<path d="m553.12 759.67 1.7063 4.2732q0.89001 2.2289 3.1189 1.3389l7.1904-2.8712q2.2289-0.89001 1.3389-3.1189l-1.7063-4.2732q-0.89001-2.2289-3.1189-1.3389l-7.1904 2.8712q-2.2289 0.89001-1.3389 3.1189z" clip-path="url(#a)" fill="#fff" stroke="#fff"/>
<g clip-path="url(#a)">
<g transform="translate(556.89 758.17) rotate(68.233) scale(.08 -.08)">
<use xlink:href="#v"/>
</g>
</g>
<path d="m577.4 761.03 2.9334 4.1459q1.3862 1.9592 3.3454 0.57297l6.3204-4.472q1.9592-1.3862 0.57297-3.3454l-2.9334-4.1459q-1.3862-1.9592-3.3454-0.57297l-6.3204 4.472q-1.9592 1.3862-0.57297 3.3454z" clip-path="url(#a)" fill="#fff" stroke="#fff"/>
<g clip-path="url(#a)">
<defs>
<path id="ah" d="m53.516 70.516v-9.625q-5.6094 2.6875-10.594 4-4.9844 1.3281-9.625 1.3281-8.0469 0-12.422-3.125t-4.375-8.8906q0-4.8438 2.9062-7.3125 2.9062-2.4531 11.016-3.9688l5.9531-1.2188q11.031-2.1094 16.281-7.4062t5.25-14.172q0-10.609-7.1094-16.078-7.0938-5.4688-20.812-5.4688-5.1719 0-11.016 1.1719-5.8281 1.1719-12.078 3.4688v10.156q6-3.3594 11.766-5.0781 5.7656-1.7031 11.328-1.7031 8.4375 0 13.031 3.3125 4.5938 3.3281 4.5938 9.4844 0 5.3594-3.2969 8.3906t-10.812 4.5469l-6.0156 1.1719q-11.031 2.1875-15.969 6.875-4.9219 4.6875-4.9219 13.047 0 9.6719 6.8125 15.234t18.766 5.5625q5.1406 0 10.453-0.9375 5.3281-0.92188 10.891-2.7656z"/>
</defs>
<g transform="translate(580.71 758.69) rotate(54.719) scale(.08 -.08)">
<use xlink:href="#ah"/>
</g>
</g>
<path d="m602.94 762.08 3.926 3.8124q1.7218 1.672 3.3937-0.04982l5.3938-5.5545q1.672-1.7218-0.04982-3.3937l-3.926-3.8124q-1.7218-1.672-3.3937 0.04982l-5.3938 5.5545q-1.672 1.7218 0.04982 3.3937z" clip-path="url(#a)" fill="#fff" stroke="#fff"/>
<g clip-path="url(#a)">
<g transform="translate(605.77 759.16) rotate(44.159) scale(.08 -.08)">
<use xlink:href="#s"/>
</g>
</g>
<path d="m477.53 765.46 3.3367-4.8112q1.3677-1.9721-0.60438-3.3399l-6.3622-4.4124q-1.9721-1.3677-3.3399 0.60438l-3.3367 4.8112q-1.3677 1.9721 0.60438 3.3399l6.3622 4.4124q1.9721 1.3677 3.3399-0.60438z" clip-path="url(#a)" fill="#fff" stroke="#fff"/>
<g clip-path="url(#a)">
<g transform="translate(474.19 763.15) rotate(-55.257) scale(.08 -.08)">
<use xlink:href="#r"/>
</g>
</g>
<path d="m520.4 763.45 1.01-5.7672q0.41402-2.364-1.95-2.778l-7.6264-1.3357q-2.364-0.41402-2.778 1.95l-1.01 5.7672q-0.41402 2.364 1.95 2.778l7.6264 1.3357q2.364 0.41402 2.778-1.95z" clip-path="url(#a)" fill="#fff" stroke="#fff"/>
<g clip-path="url(#a)">
<g transform="translate(516.39 762.75) rotate(-80.066) scale(.08 -.08)">
<use xlink:href="#r"/>
</g>
</g>
<path d="m791.54 898.43v33.808q0 2.4 2.4 2.4h7.7425q2.4 0 2.4-2.4v-33.808q0-2.4-2.4-2.4h-7.7425q-2.4 0-2.4 2.4z" clip-path="url(#a)" fill="#fff" stroke="#fff"/>
<g clip-path="url(#a)">
<g transform="translate(795.6 898.43) rotate(90) scale(.08 -.08)">
<use xlink:href="#k"/>
<use x="44.083984" xlink:href="#d"/>
<use x="105.607422" xlink:href="#f"/>
<use x="144.970703" xlink:href="#j"/>
<use x="242.382812" xlink:href="#g"/>
<use x="270.166016" xlink:href="#h"/>
<use x="333.544922" xlink:href="#i"/>
<use x="394.824219" xlink:href="#l"/>
</g>
</g>
<path d="m909.94 684.92 1.531-4.8425q0.7235-2.2884-1.5649-3.0118l-7.3823-2.334q-2.2884-0.7235-3.0118 1.5649l-1.531 4.8425q-0.7235 2.2884 1.5649 3.0118l7.3823 2.334q2.2884 0.7235 3.0118-1.5649z" clip-path="url(#a)" fill="#fff" stroke="#fff"/>
<g clip-path="url(#a)">
<g transform="translate(906.06 683.69) rotate(-72.455) scale(.08 -.08)">
<use xlink:href="#ah"/>
</g>
</g>
<path d="m940.34 683.68 0.58201-4.5643q0.30358-2.3807-2.0771-2.6843l-7.6803-0.97935q-2.3807-0.30358-2.6843 2.0771l-0.58201 4.5643q-0.30358 2.3807 2.0771 2.6843l7.6803 0.97935q2.3807 0.30358 2.6843-2.0771z" clip-path="url(#a)" fill="#fff" stroke="#fff"/>
<g clip-path="url(#a)">
<g transform="translate(936.3 683.17) rotate(-82.733) scale(.08 -.08)">
<use xlink:href="#v"/>
</g>
</g>
<path d="m958.72 677.96 0.41868 6.1458q0.16312 2.3944 2.5576 2.2313l7.7246-0.52623q2.3944-0.16312 2.2313-2.5576l-0.41867-6.1458q-0.16312-2.3944-2.5576-2.2313l-7.7246 0.52623q-2.3944 0.16312-2.2313 2.5576z" clip-path="url(#a)" fill="#fff" stroke="#fff"/>
<g clip-path="url(#a)">
<g transform="translate(962.78 677.68) rotate(86.103) scale(.08 -.08)">
<use xlink:href="#t"/>
</g>
</g>
<path d="m1006.9 603.71 3.2811 4.3798q1.439 1.9208 3.3597 0.48182l6.1965-4.6421q1.9208-1.439 0.48182-3.3597l-3.2811-4.3798q-1.439-1.9208-3.3597-0.48182l-6.1965 4.6421q-1.9208 1.439-0.48182 3.3597z" clip-path="url(#a)" fill="#fff" stroke="#fff"/>
<g clip-path="url(#a)">
<g transform="translate(1010.2 601.28) rotate(53.161) scale(.08 -.08)">
<use xlink:href="#s"/>
</g>
</g>
<path d="m848.71 898.43v33.808q0 2.4 2.4 2.4h7.7425q2.4 0 2.4-2.4v-33.808q0-2.4-2.4-2.4h-7.7425q-2.4 0-2.4 2.4z" clip-path="url(#a)" fill="#fff" stroke="#fff"/>
<g clip-path="url(#a)">
<g transform="translate(852.77 898.43) rotate(90) scale(.08 -.08)">
<use xlink:href="#k"/>
<use x="44.083984" xlink:href="#d"/>
<use x="105.607422" xlink:href="#f"/>
<use x="144.970703" xlink:href="#j"/>
<use x="242.382812" xlink:href="#g"/>
<use x="270.166016" xlink:href="#h"/>
<use x="333.544922" xlink:href="#i"/>
<use x="394.824219" xlink:href="#l"/>
</g>
</g>
<path d="m908.07 898.43v33.808q0 2.4 2.4 2.4h7.7425q2.4 0 2.4-2.4v-33.808q0-2.4-2.4-2.4h-7.7425q-2.4 0-2.4 2.4z" clip-path="url(#a)" fill="#fff" stroke="#fff"/>
<g clip-path="url(#a)">
<g transform="translate(912.13 898.43) rotate(90) scale(.08 -.08)">
<use xlink:href="#k"/>
<use x="44.083984" xlink:href="#d"/>
<use x="105.607422" xlink:href="#f"/>
<use x="144.970703" xlink:href="#j"/>
<use x="242.382812" xlink:href="#g"/>
<use x="270.166016" xlink:href="#h"/>
<use x="333.544922" xlink:href="#i"/>
<use x="394.824219" xlink:href="#l"/>
</g>
</g>
<path d="m969.64 898.43v33.808q0 2.4 2.4 2.4h7.7425q2.4 0 2.4-2.4v-33.808q0-2.4-2.4-2.4h-7.7425q-2.4 0-2.4 2.4z" clip-path="url(#a)" fill="#fff" stroke="#fff"/>
<g clip-path="url(#a)">
<g transform="translate(973.7 898.43) rotate(90) scale(.08 -.08)">
<use xlink:href="#k"/>
<use x="44.083984" xlink:href="#d"/>
<use x="105.607422" xlink:href="#f"/>
<use x="144.970703" xlink:href="#j"/>
<use x="242.382812" xlink:href="#g"/>
<use x="270.166016" xlink:href="#h"/>
<use x="333.544922" xlink:href="#i"/>
<use x="394.824219" xlink:href="#l"/>
</g>
</g>
<path d="m1061.8 763.03 0.94634-4.5029q0.49361-2.3487-1.8551-2.8423l-7.577-1.5924q-2.3487-0.49361-2.8423 1.8551l-0.94634 4.5029q-0.49361 2.3487 1.8551 2.8423l7.577 1.5924q2.3487 0.49361 2.8423-1.8551z" clip-path="url(#a)" fill="#fff" stroke="#fff"/>
<g clip-path="url(#a)">
<g transform="translate(1057.8 762.19) rotate(-78.131) scale(.08 -.08)">
<use xlink:href="#v"/>
</g>
</g>
<path d="m1082.4 758.04 1.1489 5.4668q0.49361 2.3487 2.8423 1.8551l7.577-1.5924q2.3487-0.49361 1.8551-2.8423l-1.1489-5.4668q-0.49361-2.3487-2.8423-1.8551l-7.577 1.5924q-2.3487 0.49361-1.8551 2.8423z" clip-path="url(#a)" fill="#fff" stroke="#fff"/>
<g clip-path="url(#a)">
<g transform="translate(1086.4 757.21) rotate(78.131) scale(.08 -.08)">
<use xlink:href="#ak"/>
</g>
</g>
<path d="m1033.4 898.43v33.808q0 2.4 2.4 2.4h7.7425q2.4 0 2.4-2.4v-33.808q0-2.4-2.4-2.4h-7.7425q-2.4 0-2.4 2.4z" clip-path="url(#a)" fill="#fff" stroke="#fff"/>
<g clip-path="url(#a)">
<g transform="translate(1037.5 898.43) rotate(90) scale(.08 -.08)">
<use xlink:href="#k"/>
<use x="44.083984" xlink:href="#d"/>
<use x="105.607422" xlink:href="#f"/>
<use x="144.970703" xlink:href="#j"/>
<use x="242.382812" xlink:href="#g"/>
<use x="270.166016" xlink:href="#h"/>
<use x="333.544922" xlink:href="#i"/>
<use x="394.824219" xlink:href="#l"/>
</g>
</g>
<path d="m1099.4 898.43v33.808q0 2.4 2.4 2.4h7.7425q2.4 0 2.4-2.4v-33.808q0-2.4-2.4-2.4h-7.7425q-2.4 0-2.4 2.4z" clip-path="url(#a)" fill="#fff" stroke="#fff"/>
<g clip-path="url(#a)">
<g transform="translate(1103.4 898.43) rotate(90) scale(.08 -.08)">
<use xlink:href="#k"/>
<use x="44.083984" xlink:href="#d"/>
<use x="105.607422" xlink:href="#f"/>
<use x="144.970703" xlink:href="#j"/>
<use x="242.382812" xlink:href="#g"/>
<use x="270.166016" xlink:href="#h"/>
<use x="333.544922" xlink:href="#i"/>
<use x="394.824219" xlink:href="#l"/>
</g>
</g>
<path d="m375.98 898.43v33.808q0 2.4 2.4 2.4h7.7425q2.4 0 2.4-2.4v-33.808q0-2.4-2.4-2.4h-7.7425q-2.4 0-2.4 2.4z" clip-path="url(#a)" fill="#fff" stroke="#fff"/>
<g clip-path="url(#a)">
<g transform="translate(380.04 898.43) rotate(90) scale(.08 -.08)">
<use xlink:href="#k"/>
<use x="44.083984" xlink:href="#d"/>
<use x="105.607422" xlink:href="#f"/>
<use x="144.970703" xlink:href="#j"/>
<use x="242.382812" xlink:href="#g"/>
<use x="270.166016" xlink:href="#h"/>
<use x="333.544922" xlink:href="#i"/>
<use x="394.824219" xlink:href="#l"/>
</g>
</g>
<path d="m452.93 898.43v33.808q0 2.4 2.4 2.4h7.7425q2.4 0 2.4-2.4v-33.808q0-2.4-2.4-2.4h-7.7425q-2.4 0-2.4 2.4z" clip-path="url(#a)" fill="#fff" stroke="#fff"/>
<g clip-path="url(#a)">
<g transform="translate(457 898.43) rotate(90) scale(.08 -.08)">
<use xlink:href="#k"/>
<use x="44.083984" xlink:href="#d"/>
<use x="105.607422" xlink:href="#f"/>
<use x="144.970703" xlink:href="#j"/>
<use x="242.382812" xlink:href="#g"/>
<use x="270.166016" xlink:href="#h"/>
<use x="333.544922" xlink:href="#i"/>
<use x="394.824219" xlink:href="#l"/>
</g>
</g>
<path d="m538.68 898.43v33.808q0 2.4 2.4 2.4h7.7425q2.4 0 2.4-2.4v-33.808q0-2.4-2.4-2.4h-7.7425q-2.4 0-2.4 2.4z" clip-path="url(#a)" fill="#fff" stroke="#fff"/>
<g clip-path="url(#a)">
<g transform="translate(542.75 898.43) rotate(90) scale(.08 -.08)">
<use xlink:href="#k"/>
<use x="44.083984" xlink:href="#d"/>
<use x="105.607422" xlink:href="#f"/>
<use x="144.970703" xlink:href="#j"/>
<use x="242.382812" xlink:href="#g"/>
<use x="270.166016" xlink:href="#h"/>
<use x="333.544922" xlink:href="#i"/>
<use x="394.824219" xlink:href="#l"/>
</g>
</g>
<path d="m584.86 898.43v33.808q0 2.4 2.4 2.4h7.7425q2.4 0 2.4-2.4v-33.808q0-2.4-2.4-2.4h-7.7425q-2.4 0-2.4 2.4z" clip-path="url(#a)" fill="#fff" stroke="#fff"/>
<g clip-path="url(#a)">
<g transform="translate(588.92 898.43) rotate(90) scale(.08 -.08)">
<use xlink:href="#k"/>
<use x="44.083984" xlink:href="#d"/>
<use x="105.607422" xlink:href="#f"/>
<use x="144.970703" xlink:href="#j"/>
<use x="242.382812" xlink:href="#g"/>
<use x="270.166016" xlink:href="#h"/>
<use x="333.544922" xlink:href="#i"/>
<use x="394.824219" xlink:href="#l"/>
</g>
</g>
<path d="m633.23 898.43v33.808q0 2.4 2.4 2.4h7.7425q2.4 0 2.4-2.4v-33.808q0-2.4-2.4-2.4h-7.7425q-2.4 0-2.4 2.4z" clip-path="url(#a)" fill="#fff" stroke="#fff"/>
<g clip-path="url(#a)">
<g transform="translate(637.29 898.43) rotate(90) scale(.08 -.08)">
<use xlink:href="#k"/>
<use x="44.083984" xlink:href="#d"/>
<use x="105.607422" xlink:href="#f"/>
<use x="144.970703" xlink:href="#j"/>
<use x="242.382812" xlink:href="#g"/>
<use x="270.166016" xlink:href="#h"/>
<use x="333.544922" xlink:href="#i"/>
<use x="394.824219" xlink:href="#l"/>
</g>
</g>
<path d="m683.8 898.43v33.808q0 2.4 2.4 2.4h7.7425q2.4 0 2.4-2.4v-33.808q0-2.4-2.4-2.4h-7.7425q-2.4 0-2.4 2.4z" clip-path="url(#a)" fill="#fff" stroke="#fff"/>
<g clip-path="url(#a)">
<g transform="translate(687.86 898.43) rotate(90) scale(.08 -.08)">
<use xlink:href="#k"/>
<use x="44.083984" xlink:href="#d"/>
<use x="105.607422" xlink:href="#f"/>
<use x="144.970703" xlink:href="#j"/>
<use x="242.382812" xlink:href="#g"/>
<use x="270.166016" xlink:href="#h"/>
<use x="333.544922" xlink:href="#i"/>
<use x="394.824219" xlink:href="#l"/>
</g>
</g>
<path d="m175.89 898.43v33.808q0 2.4 2.4 2.4h7.7425q2.4 0 2.4-2.4v-33.808q0-2.4-2.4-2.4h-7.7425q-2.4 0-2.4 2.4z" clip-path="url(#a)" fill="#fff" stroke="#fff"/>
<g clip-path="url(#a)">
<g transform="translate(179.96 898.43) rotate(90) scale(.08 -.08)">
<use xlink:href="#k"/>
<use x="44.083984" xlink:href="#d"/>
<use x="105.607422" xlink:href="#f"/>
<use x="144.970703" xlink:href="#j"/>
<use x="242.382812" xlink:href="#g"/>
<use x="270.166016" xlink:href="#h"/>
<use x="333.544922" xlink:href="#i"/>
<use x="394.824219" xlink:href="#l"/>
</g>
</g>
<path d="m277.04 898.43v33.808q0 2.4 2.4 2.4h7.7425q2.4 0 2.4-2.4v-33.808q0-2.4-2.4-2.4h-7.7425q-2.4 0-2.4 2.4z" clip-path="url(#a)" fill="#fff" stroke="#fff"/>
<g clip-path="url(#a)">
<g transform="translate(281.1 898.43) rotate(90) scale(.08 -.08)">
<use xlink:href="#k"/>
<use x="44.083984" xlink:href="#d"/>
<use x="105.607422" xlink:href="#f"/>
<use x="144.970703" xlink:href="#j"/>
<use x="242.382812" xlink:href="#g"/>
<use x="270.166016" xlink:href="#h"/>
<use x="333.544922" xlink:href="#i"/>
<use x="394.824219" xlink:href="#l"/>
</g>
</g>
<path d="m99.64 762.08 0.21466-4.5962q0.11196-2.3974-2.2854-2.5094l-7.7341-0.3612q-2.3974-0.11196-2.5094 2.2854l-0.21466 4.5962q-0.11196 2.3974 2.2854 2.5094l7.7341 0.3612q2.3974 0.11196 2.5094-2.2854z" clip-path="url(#a)" fill="#fff" stroke="#fff"/>
<g clip-path="url(#a)">
<g transform="translate(95.581 761.89) rotate(-87.326) scale(.08 -.08)">
<use xlink:href="#v"/>
</g>
</g>
<path d="m103.04 762.04 0.023608-5.0549q0.011209-2.4-2.3888-2.4112l-7.7424-0.036159q-2.4-0.011209-2.4112 2.3888l-0.023608 5.0549q-0.011209 2.4 2.3888 2.4112l7.7424 0.03616q2.4 0.011208 2.4112-2.3888z" clip-path="url(#a)" fill="#fff" stroke="#fff"/>
<g clip-path="url(#a)">
<defs>
<path id="aj" d="m9.8125 72.906h46.094v-8.3125h-36.234v-21.578h34.719v-8.2969h-34.719v-26.422h37.109v-8.2969h-46.969z"/>
</defs>
<g transform="translate(98.977 762.02) rotate(-89.732) scale(.08 -.08)">
<use xlink:href="#aj"/>
</g>
</g>
<path d="m94.772 757.02 0.2866 5.5789q0.12313 2.3968 2.52 2.2737l7.7323-0.39723q2.3968-0.12313 2.2737-2.52l-0.2866-5.5789q-0.12313-2.3968-2.52-2.2737l-7.7323 0.39723q-2.3968 0.12313-2.2737 2.52z" clip-path="url(#a)" fill="#fff" stroke="#fff"/>
<g clip-path="url(#a)">
<g transform="translate(98.83 756.81) rotate(87.059) scale(.08 -.08)">
<use xlink:href="#ak"/>
</g>
</g>
<path d="m109.93 898.43v33.808q0 2.4 2.4 2.4h7.7425q2.4 0 2.4-2.4v-33.808q0-2.4-2.4-2.4h-7.7425q-2.4 0-2.4 2.4z" clip-path="url(#a)" fill="#fff" stroke="#fff"/>
<g clip-path="url(#a)">
<g transform="translate(114 898.43) rotate(90) scale(.08 -.08)">
<use xlink:href="#k"/>
<use x="44.083984" xlink:href="#d"/>
<use x="105.607422" xlink:href="#f"/>
<use x="144.970703" xlink:href="#j"/>
<use x="242.382812" xlink:href="#g"/>
<use x="270.166016" xlink:href="#h"/>
<use x="333.544922" xlink:href="#i"/>
<use x="394.824219" xlink:href="#l"/>
</g>
</g>
<path d="m123.12 898.43v33.808q0 2.4 2.4 2.4h7.7425q2.4 0 2.4-2.4v-33.808q0-2.4-2.4-2.4h-7.7425q-2.4 0-2.4 2.4z" clip-path="url(#a)" fill="#fff" stroke="#fff"/>
<g clip-path="url(#a)">
<g transform="translate(127.19 898.43) rotate(90) scale(.08 -.08)">
<use xlink:href="#k"/>
<use x="44.083984" xlink:href="#d"/>
<use x="105.607422" xlink:href="#f"/>
<use x="144.970703" xlink:href="#j"/>
<use x="242.382812" xlink:href="#g"/>
<use x="270.166016" xlink:href="#h"/>
<use x="333.544922" xlink:href="#i"/>
<use x="394.824219" xlink:href="#l"/>
</g>
</g>
<path d="m138.52 898.43v33.808q0 2.4 2.4 2.4h7.7425q2.4 0 2.4-2.4v-33.808q0-2.4-2.4-2.4h-7.7425q-2.4 0-2.4 2.4z" clip-path="url(#a)" fill="#fff" stroke="#fff"/>
<g clip-path="url(#a)">
<g transform="translate(142.58 898.43) rotate(90) scale(.08 -.08)">
<use xlink:href="#k"/>
<use x="44.083984" xlink:href="#d"/>
<use x="105.607422" xlink:href="#f"/>
<use x="144.970703" xlink:href="#j"/>
<use x="242.382812" xlink:href="#g"/>
<use x="270.166016" xlink:href="#h"/>
<use x="333.544922" xlink:href="#i"/>
<use x="394.824219" xlink:href="#l"/>
</g>
</g>
<path d="m156.11 898.43v33.808q0 2.4 2.4 2.4h7.7425q2.4 0 2.4-2.4v-33.808q0-2.4-2.4-2.4h-7.7425q-2.4 0-2.4 2.4z" clip-path="url(#a)" fill="#fff" stroke="#fff"/>
<g clip-path="url(#a)">
<g transform="translate(160.17 898.43) rotate(90) scale(.08 -.08)">
<use xlink:href="#k"/>
<use x="44.083984" xlink:href="#d"/>
<use x="105.607422" xlink:href="#f"/>
<use x="144.970703" xlink:href="#j"/>
<use x="242.382812" xlink:href="#g"/>
<use x="270.166016" xlink:href="#h"/>
<use x="333.544922" xlink:href="#i"/>
<use x="394.824219" xlink:href="#l"/>
</g>
</g>
<path d="m83.547 898.43v33.808q0 2.4 2.4 2.4h7.7425q2.4 0 2.4-2.4v-33.808q0-2.4-2.4-2.4h-7.7425q-2.4 0-2.4 2.4z" clip-path="url(#a)" fill="#fff" stroke="#fff"/>
<g clip-path="url(#a)">
<g transform="translate(87.611 898.43) rotate(90) scale(.08 -.08)">
<use xlink:href="#k"/>
<use x="44.083984" xlink:href="#d"/>
<use x="105.607422" xlink:href="#f"/>
<use x="144.970703" xlink:href="#j"/>
<use x="242.382812" xlink:href="#g"/>
<use x="270.166016" xlink:href="#h"/>
<use x="333.544922" xlink:href="#i"/>
<use x="394.824219" xlink:href="#l"/>
</g>
</g>
<path d="m90.143 898.43v33.808q0 2.4 2.4 2.4h7.7425q2.4 0 2.4-2.4v-33.808q0-2.4-2.4-2.4h-7.7425q-2.4 0-2.4 2.4z" clip-path="url(#a)" fill="#fff" stroke="#fff"/>
<g clip-path="url(#a)">
<g transform="translate(94.207 898.43) rotate(90) scale(.08 -.08)">
<use xlink:href="#k"/>
<use x="44.083984" xlink:href="#d"/>
<use x="105.607422" xlink:href="#f"/>
<use x="144.970703" xlink:href="#j"/>
<use x="242.382812" xlink:href="#g"/>
<use x="270.166016" xlink:href="#h"/>
<use x="333.544922" xlink:href="#i"/>
<use x="394.824219" xlink:href="#l"/>
</g>
</g>
<path d="m98.938 898.43v33.808q0 2.4 2.4 2.4h7.7425q2.4 0 2.4-2.4v-33.808q0-2.4-2.4-2.4h-7.7425q-2.4 0-2.4 2.4z" clip-path="url(#a)" fill="#fff" stroke="#fff"/>
<g clip-path="url(#a)">
<g transform="translate(103 898.43) rotate(90) scale(.08 -.08)">
<use xlink:href="#k"/>
<use x="44.083984" xlink:href="#d"/>
<use x="105.607422" xlink:href="#f"/>
<use x="144.970703" xlink:href="#j"/>
<use x="242.382812" xlink:href="#g"/>
<use x="270.166016" xlink:href="#h"/>
<use x="333.544922" xlink:href="#i"/>
<use x="394.824219" xlink:href="#l"/>
</g>
</g>
<path d="m307.82 898.43v33.808q0 2.4 2.4 2.4h7.7425q2.4 0 2.4-2.4v-33.808q0-2.4-2.4-2.4h-7.7425q-2.4 0-2.4 2.4z" clip-path="url(#a)" fill="#fff" stroke="#fff"/>
<g clip-path="url(#a)">
<g transform="translate(311.88 898.43) rotate(90) scale(.08 -.08)">
<use xlink:href="#k"/>
<use x="44.083984" xlink:href="#d"/>
<use x="105.607422" xlink:href="#f"/>
<use x="144.970703" xlink:href="#j"/>
<use x="242.382812" xlink:href="#g"/>
<use x="270.166016" xlink:href="#h"/>
<use x="333.544922" xlink:href="#i"/>
<use x="394.824219" xlink:href="#l"/>
</g>
</g>
<path d="m340.8 898.43v33.808q0 2.4 2.4 2.4h7.7425q2.4 0 2.4-2.4v-33.808q0-2.4-2.4-2.4h-7.7425q-2.4 0-2.4 2.4z" clip-path="url(#a)" fill="#fff" stroke="#fff"/>
<g clip-path="url(#a)">
<g transform="translate(344.86 898.43) rotate(90) scale(.08 -.08)">
<use xlink:href="#k"/>
<use x="44.083984" xlink:href="#d"/>
<use x="105.607422" xlink:href="#f"/>
<use x="144.970703" xlink:href="#j"/>
<use x="242.382812" xlink:href="#g"/>
<use x="270.166016" xlink:href="#h"/>
<use x="333.544922" xlink:href="#i"/>
<use x="394.824219" xlink:href="#l"/>
</g>
</g>
<path d="m413.36 898.43v33.808q0 2.4 2.4 2.4h7.7425q2.4 0 2.4-2.4v-33.808q0-2.4-2.4-2.4h-7.7425q-2.4 0-2.4 2.4z" clip-path="url(#a)" fill="#fff" stroke="#fff"/>
<g clip-path="url(#a)">
<g transform="translate(417.42 898.43) rotate(90) scale(.08 -.08)">
<use xlink:href="#k"/>
<use x="44.083984" xlink:href="#d"/>
<use x="105.607422" xlink:href="#f"/>
<use x="144.970703" xlink:href="#j"/>
<use x="242.382812" xlink:href="#g"/>
<use x="270.166016" xlink:href="#h"/>
<use x="333.544922" xlink:href="#i"/>
<use x="394.824219" xlink:href="#l"/>
</g>
</g>
<path d="m494.71 898.43v33.808q0 2.4 2.4 2.4h7.7425q2.4 0 2.4-2.4v-33.808q0-2.4-2.4-2.4h-7.7425q-2.4 0-2.4 2.4z" clip-path="url(#a)" fill="#fff" stroke="#fff"/>
<g clip-path="url(#a)">
<g transform="translate(498.77 898.43) rotate(90) scale(.08 -.08)">
<use xlink:href="#k"/>
<use x="44.083984" xlink:href="#d"/>
<use x="105.607422" xlink:href="#f"/>
<use x="144.970703" xlink:href="#j"/>
<use x="242.382812" xlink:href="#g"/>
<use x="270.166016" xlink:href="#h"/>
<use x="333.544922" xlink:href="#i"/>
<use x="394.824219" xlink:href="#l"/>
</g>
</g>
<path d="m736.57 898.43v33.808q0 2.4 2.4 2.4h7.7425q2.4 0 2.4-2.4v-33.808q0-2.4-2.4-2.4h-7.7425q-2.4 0-2.4 2.4z" clip-path="url(#a)" fill="#fff" stroke="#fff"/>
<g clip-path="url(#a)">
<g transform="translate(740.63 898.43) rotate(90) scale(.08 -.08)">
<use xlink:href="#k"/>
<use x="44.083984" xlink:href="#d"/>
<use x="105.607422" xlink:href="#f"/>
<use x="144.970703" xlink:href="#j"/>
<use x="242.382812" xlink:href="#g"/>
<use x="270.166016" xlink:href="#h"/>
<use x="333.544922" xlink:href="#i"/>
<use x="394.824219" xlink:href="#l"/>
</g>
</g>
<path d="m1167.5 898.43v33.808q0 2.4 2.4 2.4h7.7425q2.4 0 2.4-2.4v-33.808q0-2.4-2.4-2.4h-7.7425q-2.4 0-2.4 2.4z" clip-path="url(#a)" fill="#fff" stroke="#fff"/>
<g clip-path="url(#a)">
<g transform="translate(1171.6 898.43) rotate(90) scale(.08 -.08)">
<use xlink:href="#k"/>
<use x="44.083984" xlink:href="#d"/>
<use x="105.607422" xlink:href="#f"/>
<use x="144.970703" xlink:href="#j"/>
<use x="242.382812" xlink:href="#g"/>
<use x="270.166016" xlink:href="#h"/>
<use x="333.544922" xlink:href="#i"/>
<use x="394.824219" xlink:href="#l"/>
</g>
</g>
<path d="m1237.9 898.43v33.808q0 2.4 2.4 2.4h7.7425q2.4 0 2.4-2.4v-33.808q0-2.4-2.4-2.4h-7.7425q-2.4 0-2.4 2.4z" clip-path="url(#a)" fill="#fff" stroke="#fff"/>
<g clip-path="url(#a)">
<g transform="translate(1241.9 898.43) rotate(90) scale(.08 -.08)">
<use xlink:href="#k"/>
<use x="44.083984" xlink:href="#d"/>
<use x="105.607422" xlink:href="#f"/>
<use x="144.970703" xlink:href="#j"/>
<use x="242.382812" xlink:href="#g"/>
<use x="270.166016" xlink:href="#h"/>
<use x="333.544922" xlink:href="#i"/>
<use x="394.824219" xlink:href="#l"/>
</g>
</g>
<path d="m1879.9 898.43v33.808q0 2.4 2.4 2.4h7.7425q2.4 0 2.4-2.4v-33.808q0-2.4-2.4-2.4h-7.7425q-2.4 0-2.4 2.4z" clip-path="url(#a)" fill="#fff" stroke="#fff"/>
<g clip-path="url(#a)">
<g transform="translate(1884 898.43) rotate(90) scale(.08 -.08)">
<use xlink:href="#k"/>
<use x="44.083984" xlink:href="#d"/>
<use x="105.607422" xlink:href="#f"/>
<use x="144.970703" xlink:href="#j"/>
<use x="242.382812" xlink:href="#g"/>
<use x="270.166016" xlink:href="#h"/>
<use x="333.544922" xlink:href="#i"/>
<use x="394.824219" xlink:href="#l"/>
</g>
</g>
<defs>
<path id="b" d="m0 8.6603c2.2967 0 4.4997-0.9125 6.1237-2.5365 1.624-1.624 2.5365-3.827 2.5365-6.1237s-0.9125-4.4997-2.5365-6.1237c-1.624-1.624-3.827-2.5365-6.1237-2.5365s-4.4997 0.9125-6.1237 2.5365c-1.624 1.624-2.5365 3.827-2.5365 6.1237s0.9125 4.4997 2.5365 6.1237c1.624 1.624 3.827 2.5365 6.1237 2.5365z"/>
</defs>
<g clip-path="url(#a)">
<use x="89.818182" y="992.727273" fill="#ffffff" stroke="#ffffff" xlink:href="#b"/>
</g>
<g clip-path="url(#a)">
<use x="96.414376" y="992.727273" fill="#ffffff" stroke="#ffffff" xlink:href="#b"/>
</g>
<g clip-path="url(#a)">
<use x="105.209302" y="992.727273" fill="#ffffff" stroke="#ffffff" xlink:href="#b"/>
</g>
<g clip-path="url(#a)">
<use x="116.20296" y="992.727273" fill="#ffffff" stroke="#ffffff" xlink:href="#b"/>
</g>
<g clip-path="url(#a)">
<use x="129.395349" y="992.727273" fill="#ffffff" stroke="#ffffff" xlink:href="#b"/>
</g>
<g clip-path="url(#a)">
<use x="144.786469" y="992.727273" fill="#ffffff" stroke="#ffffff" xlink:href="#b"/>
</g>
<g clip-path="url(#a)">
<use x="162.376321" y="992.727273" fill="#ffffff" stroke="#ffffff" xlink:href="#b"/>
</g>
<g clip-path="url(#a)">
<use x="182.164905" y="992.727273" fill="#ffffff" stroke="#ffffff" xlink:href="#b"/>
</g>
<g clip-path="url(#a)">
<use x="204.15222" y="992.727273" fill="#ffffff" stroke="#ffffff" xlink:href="#b"/>
</g>
<g clip-path="url(#a)">
<use x="228.338266" y="992.727273" fill="#ffffff" stroke="#ffffff" xlink:href="#b"/>
</g>
<g clip-path="url(#a)">
<use x="254.723044" y="992.727273" fill="#ffffff" stroke="#ffffff" xlink:href="#b"/>
</g>
<g clip-path="url(#a)">
<use x="283.306554" y="992.727273" fill="#ffffff" stroke="#ffffff" xlink:href="#b"/>
</g>
<g clip-path="url(#a)">
<use x="314.088795" y="992.727273" fill="#ffffff" stroke="#ffffff" xlink:href="#b"/>
</g>
<g clip-path="url(#a)">
<use x="347.069767" y="992.727273" fill="#ffffff" stroke="#ffffff" xlink:href="#b"/>
</g>
<g clip-path="url(#a)">
<use x="382.249471" y="992.727273" fill="#ffffff" stroke="#ffffff" xlink:href="#b"/>
</g>
<g clip-path="url(#a)">
<use x="419.627907" y="992.727273" fill="#ffffff" stroke="#ffffff" xlink:href="#b"/>
</g>
<g clip-path="url(#a)">
<use x="459.205074" y="992.727273" fill="#ffffff" stroke="#ffffff" xlink:href="#b"/>
</g>
<g clip-path="url(#a)">
<use x="500.980973" y="992.727273" fill="#ffffff" stroke="#ffffff" xlink:href="#b"/>
</g>
<g clip-path="url(#a)">
<use x="544.955603" y="992.727273" fill="#ffffff" stroke="#ffffff" xlink:href="#b"/>
</g>
<g clip-path="url(#a)">
<use x="591.128964" y="992.727273" fill="#ffffff" stroke="#ffffff" xlink:href="#b"/>
</g>
<g clip-path="url(#a)">
<use x="639.501057" y="992.727273" fill="#ffffff" stroke="#ffffff" xlink:href="#b"/>
</g>
<g clip-path="url(#a)">
<use x="690.071882" y="992.727273" fill="#ffffff" stroke="#ffffff" xlink:href="#b"/>
</g>
<g clip-path="url(#a)">
<use x="742.841438" y="992.727273" fill="#ffffff" stroke="#ffffff" xlink:href="#b"/>
</g>
<g clip-path="url(#a)">
<use x="797.809725" y="992.727273" fill="#ffffff" stroke="#ffffff" xlink:href="#b"/>
</g>
<g clip-path="url(#a)">
<use x="854.976744" y="992.727273" fill="#ffffff" stroke="#ffffff" xlink:href="#b"/>
</g>
<g clip-path="url(#a)">
<use x="914.342495" y="992.727273" fill="#ffffff" stroke="#ffffff" xlink:href="#b"/>
</g>
<g clip-path="url(#a)">
<use x="975.906977" y="992.727273" fill="#ffffff" stroke="#ffffff" xlink:href="#b"/>
</g>
<g clip-path="url(#a)">
<use x="1039.67019" y="992.727273" fill="#ffffff" stroke="#ffffff" xlink:href="#b"/>
</g>
<g clip-path="url(#a)">
<use x="1105.632135" y="992.727273" fill="#ffffff" stroke="#ffffff" xlink:href="#b"/>
</g>
<g clip-path="url(#a)">
<use x="1173.792812" y="992.727273" fill="#ffffff" stroke="#ffffff" xlink:href="#b"/>
</g>
<g clip-path="url(#a)">
<use x="1244.15222" y="992.727273" fill="#ffffff" stroke="#ffffff" xlink:href="#b"/>
</g>
<g clip-path="url(#a)">
<use x="1316.710359" y="992.727273" fill="#ffffff" stroke="#ffffff" xlink:href="#b"/>
</g>
<g clip-path="url(#a)">
<use x="1391.46723" y="992.727273" fill="#ffffff" stroke="#ffffff" xlink:href="#b"/>
</g>
<g clip-path="url(#a)">
<use x="1468.422833" y="992.727273" fill="#ffffff" stroke="#ffffff" xlink:href="#b"/>
</g>
<g clip-path="url(#a)">
<use x="1547.577167" y="992.727273" fill="#ffffff" stroke="#ffffff" xlink:href="#b"/>
</g>
<g clip-path="url(#a)">
<use x="1628.930233" y="992.727273" fill="#ffffff" stroke="#ffffff" xlink:href="#b"/>
</g>
<g clip-path="url(#a)">
<use x="1712.48203" y="992.727273" fill="#ffffff" stroke="#ffffff" xlink:href="#b"/>
</g>
<g clip-path="url(#a)">
<use x="1798.232558" y="992.727273" fill="#ffffff" stroke="#ffffff" xlink:href="#b"/>
</g>
<g clip-path="url(#a)">
<use x="1886.181818" y="992.727273" fill="#ffffff" stroke="#ffffff" xlink:href="#b"/>
</g>
<g clip-path="url(#a)">
<use x="681.566848" y="47.272727" fill="#ffffff" stroke="#ffffff" xlink:href="#b"/>
</g>
<g clip-path="url(#a)">
<use x="129.981677" y="523.265366" fill="#ffffff" stroke="#ffffff" xlink:href="#b"/>
</g>
<g clip-path="url(#a)">
<use x="204.15222" y="837.94975" fill="#ffffff" stroke="#ffffff" xlink:href="#b"/>
</g>
<g clip-path="url(#a)">
<use x="363.903805" y="206.283649" fill="#ffffff" stroke="#ffffff" xlink:href="#b"/>
</g>
<g clip-path="url(#a)">
<use x="1472.820296" y="523.265366" fill="#ffffff" stroke="#ffffff" xlink:href="#b"/>
</g>
<g clip-path="url(#a)">
<use x="1316.710359" y="837.94975" fill="#ffffff" stroke="#ffffff" xlink:href="#b"/>
</g>
<g clip-path="url(#a)">
<use x="1391.46723" y="837.94975" fill="#ffffff" stroke="#ffffff" xlink:href="#b"/>
</g>
<g clip-path="url(#a)">
<use x="1468.422833" y="837.94975" fill="#ffffff" stroke="#ffffff" xlink:href="#b"/>
</g>
<g clip-path="url(#a)">
<use x="1714.680761" y="681.019102" fill="#ffffff" stroke="#ffffff" xlink:href="#b"/>
</g>
<g clip-path="url(#a)">
<use x="1547.577167" y="837.94975" fill="#ffffff" stroke="#ffffff" xlink:href="#b"/>
</g>
<g clip-path="url(#a)">
<use x="1628.930233" y="837.94975" fill="#ffffff" stroke="#ffffff" xlink:href="#b"/>
</g>
<g clip-path="url(#a)">
<use x="1712.48203" y="837.94975" fill="#ffffff" stroke="#ffffff" xlink:href="#b"/>
</g>
<g clip-path="url(#a)">
<use x="1798.232558" y="837.94975" fill="#ffffff" stroke="#ffffff" xlink:href="#b"/>
</g>
<g clip-path="url(#a)">
<use x="228.338266" y="837.94975" fill="#ffffff" stroke="#ffffff" xlink:href="#b"/>
</g>
<g clip-path="url(#a)">
<use x="254.723044" y="837.94975" fill="#ffffff" stroke="#ffffff" xlink:href="#b"/>
</g>
<g clip-path="url(#a)">
<use x="755.896406" y="364.974727" fill="#ffffff" stroke="#ffffff" xlink:href="#b"/>
</g>
<g clip-path="url(#a)">
<use x="528.465116" y="681.019102" fill="#ffffff" stroke="#ffffff" xlink:href="#b"/>
</g>
<g clip-path="url(#a)">
<use x="797.809725" y="837.94975" fill="#ffffff" stroke="#ffffff" xlink:href="#b"/>
</g>
<g clip-path="url(#a)">
<use x="954.469345" y="523.265366" fill="#ffffff" stroke="#ffffff" xlink:href="#b"/>
</g>
<g clip-path="url(#a)">
<use x="854.976744" y="837.94975" fill="#ffffff" stroke="#ffffff" xlink:href="#b"/>
</g>
<g clip-path="url(#a)">
<use x="914.342495" y="837.94975" fill="#ffffff" stroke="#ffffff" xlink:href="#b"/>
</g>
<g clip-path="url(#a)">
<use x="975.906977" y="837.94975" fill="#ffffff" stroke="#ffffff" xlink:href="#b"/>
</g>
<g clip-path="url(#a)">
<use x="1072.651163" y="681.019102" fill="#ffffff" stroke="#ffffff" xlink:href="#b"/>
</g>
<g clip-path="url(#a)">
<use x="1039.67019" y="837.94975" fill="#ffffff" stroke="#ffffff" xlink:href="#b"/>
</g>
<g clip-path="url(#a)">
<use x="1105.632135" y="837.94975" fill="#ffffff" stroke="#ffffff" xlink:href="#b"/>
</g>
<g clip-path="url(#a)">
<use x="382.249471" y="837.94975" fill="#ffffff" stroke="#ffffff" xlink:href="#b"/>
</g>
<g clip-path="url(#a)">
<use x="459.205074" y="837.94975" fill="#ffffff" stroke="#ffffff" xlink:href="#b"/>
</g>
<g clip-path="url(#a)">
<use x="544.955603" y="837.94975" fill="#ffffff" stroke="#ffffff" xlink:href="#b"/>
</g>
<g clip-path="url(#a)">
<use x="591.128964" y="837.94975" fill="#ffffff" stroke="#ffffff" xlink:href="#b"/>
</g>
<g clip-path="url(#a)">
<use x="639.501057" y="837.94975" fill="#ffffff" stroke="#ffffff" xlink:href="#b"/>
</g>
<g clip-path="url(#a)">
<use x="690.071882" y="837.94975" fill="#ffffff" stroke="#ffffff" xlink:href="#b"/>
</g>
<g clip-path="url(#a)">
<use x="182.164905" y="837.94975" fill="#ffffff" stroke="#ffffff" xlink:href="#b"/>
</g>
<g clip-path="url(#a)">
<use x="283.306554" y="837.94975" fill="#ffffff" stroke="#ffffff" xlink:href="#b"/>
</g>
<g clip-path="url(#a)">
<use x="97.147287" y="681.019102" fill="#ffffff" stroke="#ffffff" xlink:href="#b"/>
</g>
<g clip-path="url(#a)">
<use x="116.20296" y="837.94975" fill="#ffffff" stroke="#ffffff" xlink:href="#b"/>
</g>
<g clip-path="url(#a)">
<use x="129.395349" y="837.94975" fill="#ffffff" stroke="#ffffff" xlink:href="#b"/>
</g>
<g clip-path="url(#a)">
<use x="144.786469" y="837.94975" fill="#ffffff" stroke="#ffffff" xlink:href="#b"/>
</g>
<g clip-path="url(#a)">
<use x="162.376321" y="837.94975" fill="#ffffff" stroke="#ffffff" xlink:href="#b"/>
</g>
<g clip-path="url(#a)">
<use x="89.818182" y="837.94975" fill="#ffffff" stroke="#ffffff" xlink:href="#b"/>
</g>
<g clip-path="url(#a)">
<use x="96.414376" y="837.94975" fill="#ffffff" stroke="#ffffff" xlink:href="#b"/>
</g>
<g clip-path="url(#a)">
<use x="105.209302" y="837.94975" fill="#ffffff" stroke="#ffffff" xlink:href="#b"/>
</g>
<g clip-path="url(#a)">
<use x="314.088795" y="837.94975" fill="#ffffff" stroke="#ffffff" xlink:href="#b"/>
</g>
<g clip-path="url(#a)">
<use x="347.069767" y="837.94975" fill="#ffffff" stroke="#ffffff" xlink:href="#b"/>
</g>
<g clip-path="url(#a)">
<use x="419.627907" y="837.94975" fill="#ffffff" stroke="#ffffff" xlink:href="#b"/>
</g>
<g clip-path="url(#a)">
<use x="500.980973" y="837.94975" fill="#ffffff" stroke="#ffffff" xlink:href="#b"/>
</g>
<g clip-path="url(#a)">
<use x="742.841438" y="837.94975" fill="#ffffff" stroke="#ffffff" xlink:href="#b"/>
</g>
<g clip-path="url(#a)">
<use x="1173.792812" y="837.94975" fill="#ffffff" stroke="#ffffff" xlink:href="#b"/>
</g>
<g clip-path="url(#a)">
<use x="1244.15222" y="837.94975" fill="#ffffff" stroke="#ffffff" xlink:href="#b"/>
</g>
<g clip-path="url(#a)">
<use x="1886.181818" y="837.94975" fill="#ffffff" stroke="#ffffff" xlink:href="#b"/>
</g>
<g clip-path="url(#a)">
<g transform="translate(79.024 995.49) scale(.1 -.1)">
<use xlink:href="#aj"/>
<use x="63.183594" xlink:href="#g"/>
<use x="90.966797" xlink:href="#h"/>
<use x="154.345703" xlink:href="#d"/>
</g>
</g>
<g clip-path="url(#a)">
<defs>
<path id="w" d="m45.406 46.391v29.594h8.9844v-75.984h-8.9844v8.2031q-2.8281-4.875-7.1562-7.25-4.3125-2.375-10.375-2.375-9.9062 0-16.141 7.9062-6.2188 7.9219-6.2188 20.812t6.2188 20.797q6.2344 7.9062 16.141 7.9062 6.0625 0 10.375-2.375 4.3281-2.3594 7.1562-7.2344zm-30.609-19.094q0-9.9062 4.0781-15.547t11.203-5.6406 11.219 5.6406q4.1094 5.6406 4.1094 15.547t-4.1094 15.547q-4.0938 5.6406-11.219 5.6406t-11.203-5.6406-4.0781-15.547z"/>
</defs>
<g transform="translate(78.911 995.49) scale(.1 -.1)">
<use xlink:href="#i"/>
<use x="61.279297" xlink:href="#h"/>
<use x="124.658203" xlink:href="#w"/>
<use x="188.134766" xlink:href="#d"/>
<use x="249.658203" xlink:href="#f"/>
<use x="288.521484" xlink:href="#d"/>
</g>
</g>
<g clip-path="url(#a)">
<defs>
<path id="q" d="m18.312 70.219v-15.531h18.5v-6.9844h-18.5v-29.688q0-6.6875 1.8281-8.5938t7.4531-1.9062h9.2188v-7.5156h-9.2188q-10.406 0-14.359 3.875-3.9531 3.8906-3.9531 14.141v29.688h-6.5938v6.9844h6.5938v15.531z"/>
</defs>
<g transform="translate(85.869 995.49) scale(.1 -.1)">
<use xlink:href="#ah"/>
<use x="63.476562" xlink:href="#q"/>
<use x="102.685547" xlink:href="#g"/>
<use x="130.46875" xlink:href="#j"/>
<use x="227.880859" xlink:href="#j"/>
<use x="325.292969" xlink:href="#d"/>
</g>
</g>
<g clip-path="url(#a)">
<defs>
<path id="af" d="m8.5 21.578v33.109h8.9844v-32.766q0-7.7656 3.0156-11.656 3.0312-3.875 9.0938-3.875 7.2656 0 11.484 4.6406 4.2344 4.6406 4.2344 12.656v31h8.9844v-54.688h-8.9844v8.4062q-3.2656-4.9844-7.5938-7.4062-4.3125-2.4219-10.031-2.4219-9.4219 0-14.312 5.8594-4.875 5.8594-4.875 17.141z"/>
<path id="aa" d="m44.281 53.078v-8.5q-3.7969 1.9531-7.9062 2.9219-4.0938 0.98438-8.5 0.98438-6.6875 0-10.031-2.0469t-3.3438-6.1562q0-3.125 2.3906-4.9062t9.625-3.3906l3.0781-0.6875q9.5625-2.0469 13.594-5.7812t4.0312-10.422q0-7.625-6.0312-12.078-6.0312-4.4375-16.578-4.4375-4.3906 0-9.1562 0.85938t-10.031 2.5625v9.2812q4.9844-2.5938 9.8125-3.8906 4.8281-1.2812 9.5781-1.2812 6.3438 0 9.75 2.1719 3.4219 2.1719 3.4219 6.125 0 3.6562-2.4688 5.6094-2.4531 1.9531-10.812 3.7656l-3.125 0.73438q-8.3438 1.75-12.062 5.3906-3.7031 3.6406-3.7031 9.9844 0 7.7188 5.4688 11.906 5.4688 4.2031 15.531 4.2031 4.9688 0 9.3594-0.73438 4.4062-0.71875 8.1094-2.1875z"/>
</defs>
<g transform="translate(97.918 995.49) scale(.1 -.1)">
<use xlink:href="#j"/>
<use x="97.412109" xlink:href="#af"/>
<use x="160.791016" xlink:href="#aa"/>
<use x="212.890625" xlink:href="#aa"/>
<use x="264.990234" xlink:href="#q"/>
<use x="304.199219" xlink:href="#d"/>
</g>
</g>
<g clip-path="url(#a)">
<defs>
<path id="u" d="m54.891 33.016v-33.016h-8.9844v32.719q0 7.7656-3.0312 11.609-3.0312 3.8594-9.0781 3.8594-7.2812 0-11.484-4.6406-4.2031-4.625-4.2031-12.641v-30.906h-9.0312v75.984h9.0312v-29.797q3.2344 4.9375 7.5938 7.375 4.375 2.4375 10.094 2.4375 9.4219 0 14.25-5.8281 4.8438-5.8281 4.8438-17.156z"/>
</defs>
<g transform="translate(119.97 995.49) scale(.1 -.1)">
<use xlink:href="#g"/>
<use x="27.783203" xlink:href="#u"/>
<use x="91.162109" xlink:href="#j"/>
</g>
</g>
<g clip-path="url(#a)">
<defs>
<path id="ag" d="m45.406 27.984q0 9.7656-4.0312 15.125-4.0156 5.375-11.297 5.375-7.2188 0-11.25-5.375-4.0312-5.3594-4.0312-15.125 0-9.7188 4.0312-15.094t11.25-5.375q7.2812 0 11.297 5.375 4.0312 5.375 4.0312 15.094zm8.9844-21.203q0-13.953-6.2031-20.766-6.1875-6.8125-18.984-6.8125-4.7344 0-8.9375 0.70312t-8.1562 2.1719v8.7344q3.9531-2.1406 7.8125-3.1562 3.8594-1.0312 7.8594-1.0312 8.8438 0 13.234 4.6094t4.3906 13.938v4.4531q-2.7812-4.8438-7.125-7.2344t-10.406-2.3906q-10.047 0-16.203 7.6562-6.1562 7.6719-6.1562 20.328 0 12.688 6.1562 20.344 6.1562 7.6719 16.203 7.6719 6.0625 0 10.406-2.3906t7.125-7.2188v8.2969h8.9844z"/>
<path id="al" d="m4.2031 54.688h8.9844l11.234-42.672 11.172 42.672h10.594l11.234-42.672 11.188 42.672h8.9844l-14.312-54.688h-10.594l-11.766 44.828-11.812-44.828h-10.609z"/>
<path id="am" d="m30.609 48.391q-7.2188 0-11.422-5.6406t-4.2031-15.453 4.1719-15.453q4.1875-5.6406 11.453-5.6406 7.1875 0 11.375 5.6562 4.2031 5.6719 4.2031 15.438 0 9.7188-4.2031 15.406-4.1875 5.6875-11.375 5.6875zm0 7.6094q11.719 0 18.406-7.625 6.7031-7.6094 6.7031-21.078 0-13.422-6.7031-21.078-6.6875-7.6406-18.406-7.6406-11.766 0-18.438 7.6406-6.6562 7.6562-6.6562 21.078 0 13.469 6.6562 21.078 6.6719 7.625 18.438 7.625z"/>
</defs>
<g transform="translate(114.14 995.49) scale(.1 -.1)">
<use xlink:href="#ag"/>
<use x="63.476562" xlink:href="#d"/>
<use x="125" xlink:href="#i"/>
<use x="186.279297" xlink:href="#h"/>
<use x="249.658203" xlink:href="#q"/>
<use x="288.867188" xlink:href="#al"/>
<use x="370.654297" xlink:href="#am"/>
<use x="431.835938" xlink:href="#f"/>
<use x="472.949219" xlink:href="#q"/>
<use x="512.158203" xlink:href="#d"/>
<use x="573.681641" xlink:href="#q"/>
</g>
</g>
<g clip-path="url(#a)">
<defs>
<path id="an" d="m48.688 27.297q0 9.9062-4.0781 15.547t-11.203 5.6406q-7.1406 0-11.219-5.6406t-4.0781-15.547 4.0781-15.547 11.219-5.6406q7.125 0 11.203 5.6406t4.0781 15.547zm-30.578 19.094q2.8438 4.875 7.1562 7.2344 4.3281 2.375 10.328 2.375 9.9688 0 16.188-7.9062 6.2344-7.9062 6.2344-20.797t-6.2344-20.812q-6.2188-7.9062-16.188-7.9062-6 0-10.328 2.375-4.3125 2.375-7.1562 7.25v-8.2031h-9.0312v75.984h9.0312z"/>
</defs>
<g transform="translate(146.72 995.49) scale(.1 -.1)">
<use xlink:href="#u"/>
<use x="63.378906" xlink:href="#i"/>
<use x="124.658203" xlink:href="#an"/>
<use x="188.134766" xlink:href="#d"/>
<use x="249.658203" xlink:href="#h"/>
</g>
</g>
<g clip-path="url(#a)">
<defs>
<path id="aq" d="m11.719 12.406h10.297v-8.4062l-8-15.625h-6.2969l4 15.625z"/>
</defs>
<g transform="translate(180.58 995.49) scale(.1 -.1)">
<use xlink:href="#aq"/>
</g>
</g>
<g clip-path="url(#a)">
<g transform="translate(191.56 995.49) scale(.1 -.1)">
<use xlink:href="#w"/>
<use x="63.476562" xlink:href="#d"/>
<use x="125" xlink:href="#h"/>
<use x="188.378906" xlink:href="#h"/>
</g>
</g>
<g clip-path="url(#a)">
<g transform="translate(223.21 995.49) scale(.1 -.1)">
<use xlink:href="#d"/>
<use x="61.523438" xlink:href="#f"/>
</g>
</g>
<g clip-path="url(#a)">
<g transform="translate(230.77 995.49) scale(.1 -.1)">
<use xlink:href="#d"/>
<use x="61.523438" xlink:href="#f"/>
<use x="102.636719" xlink:href="#al"/>
<use x="184.423828" xlink:href="#g"/>
<use x="212.207031" xlink:href="#w"/>
<use x="275.683594" xlink:href="#d"/>
<use x="337.207031" xlink:href="#f"/>
<use x="378.320312" xlink:href="#q"/>
<use x="417.529297" xlink:href="#d"/>
</g>
</g>
<g clip-path="url(#a)">
<defs>
<path id="aw" d="m11.719 12.406h10.297v-12.406h-10.297zm0 39.297h10.297v-12.391h-10.297z"/>
</defs>
<g transform="translate(281.62 995.49) scale(.1 -.1)">
<use xlink:href="#aw"/>
</g>
</g>
<g clip-path="url(#a)">
<defs>
<path id="ax" d="m4.8906 31.391h26.312v-8h-26.312z"/>
</defs>
<g transform="translate(312.28 995.49) scale(.1 -.1)">
<use xlink:href="#ax"/>
</g>
</g>
<g clip-path="url(#a)">
<defs>
<path id="ar" d="m17.922 72.906v-27.109h-8.2969v27.109zm18.453 0v-27.109h-8.2969v27.109z"/>
</defs>
<g transform="translate(344.77 995.49) scale(.1 -.1)">
<use xlink:href="#ar"/>
</g>
</g>
<g clip-path="url(#a)">
<defs>
<path id="ab" d="m48.781 52.594v-8.4062q-3.8125 2.1094-7.6406 3.1562t-7.7344 1.0469q-8.75 0-13.594-5.5469-4.8281-5.5312-4.8281-15.547t4.8281-15.562q4.8438-5.5312 13.594-5.5312 3.9062 0 7.7344 1.0469t7.6406 3.1562v-8.3125q-3.7656-1.75-7.7969-2.625-4.0156-0.89062-8.5625-0.89062-12.359 0-19.641 7.7656-7.2656 7.7656-7.2656 20.953 0 13.375 7.3438 21.031 7.3594 7.6719 20.156 7.6719 4.1406 0 8.0938-0.85938 3.9531-0.84375 7.6719-2.5469z"/>
</defs>
<g transform="translate(369.42 995.49) scale(.1 -.1)">
<use xlink:href="#t"/>
<use x="77.001953" xlink:href="#am"/>
<use x="138.183594" xlink:href="#ab"/>
<use x="193.164062" xlink:href="#u"/>
</g>
</g>
<g clip-path="url(#a)">
<defs>
<path id="as" d="m15.094 12.406h9.9062v-12.406h-9.9062zm0 60.5h9.9062v-31.984l-0.96875-17.438h-7.9219l-1.0156 17.438z"/>
</defs>
<g transform="translate(417.62 995.49) scale(.1 -.1)">
<use xlink:href="#as"/>
</g>
</g>
<g clip-path="url(#a)">
<g transform="translate(446.38 995.49) scale(.1 -.1)">
<use xlink:href="#t"/>
<use x="77.001953" xlink:href="#am"/>
<use x="138.183594" xlink:href="#ab"/>
<use x="193.164062" xlink:href="#u"/>
</g>
</g>
<g clip-path="url(#a)">
<g transform="translate(498.98 995.49) scale(.1 -.1)">
<use xlink:href="#as"/>
</g>
</g>
<g clip-path="url(#a)">
<g transform="translate(539.19 995.49) scale(.1 -.1)">
<use xlink:href="#aj"/>
<use x="63.183594" xlink:href="#aa"/>
</g>
</g>
<g clip-path="url(#a)">
<g transform="translate(585.18 995.49) scale(.1 -.1)">
<use xlink:href="#g"/>
<use x="27.783203" xlink:href="#aa"/>
<use x="79.882812" xlink:href="#q"/>
</g>
</g>
<g clip-path="url(#a)">
<g transform="translate(631.19 995.49) scale(.1 -.1)">
<use xlink:href="#w"/>
<use x="63.476562" xlink:href="#d"/>
<use x="125" xlink:href="#f"/>
</g>
</g>
<g clip-path="url(#a)">
<g transform="translate(681.6 995.49) scale(.1 -.1)">
<use xlink:href="#k"/>
<use x="44.583984" xlink:href="#i"/>
<use x="105.863281" xlink:href="#ag"/>
</g>
</g>
<g clip-path="url(#a)">
<g transform="translate(741.25 995.49) scale(.1 -.1)">
<use xlink:href="#aq"/>
</g>
</g>
<g clip-path="url(#a)">
<g transform="translate(786.44 995.49) scale(.1 -.1)">
<use xlink:href="#i"/>
<use x="61.279297" xlink:href="#an"/>
<use x="124.755859" xlink:href="#d"/>
<use x="186.279297" xlink:href="#f"/>
</g>
</g>
<g clip-path="url(#a)">
<g transform="translate(845.29 995.49) scale(.1 -.1)">
<use xlink:href="#u"/>
<use x="63.378906" xlink:href="#g"/>
<use x="91.162109" xlink:href="#d"/>
<use x="152.685547" xlink:href="#f"/>
</g>
</g>
<g clip-path="url(#a)">
<g transform="translate(908.39 995.49) scale(.1 -.1)">
<use xlink:href="#g"/>
<use x="27.783203" xlink:href="#aa"/>
<use x="79.882812" xlink:href="#q"/>
</g>
</g>
<g clip-path="url(#a)">
<g transform="translate(963.47 995.49) scale(.1 -.1)">
<use xlink:href="#h"/>
<use x="63.378906" xlink:href="#g"/>
<use x="91.162109" xlink:href="#ab"/>
<use x="146.142578" xlink:href="#u"/>
<use x="209.521484" xlink:href="#q"/>
</g>
</g>
<g clip-path="url(#a)">
<g transform="translate(1031.4 995.49) scale(.1 -.1)">
<use xlink:href="#w"/>
<use x="63.476562" xlink:href="#d"/>
<use x="125" xlink:href="#f"/>
</g>
</g>
<g clip-path="url(#a)">
<defs>
<path id="at" d="m39.406 66.219q-10.75 0-17.078-8.0156-6.3125-8-6.3125-21.828 0-13.766 6.3125-21.781 6.3281-8 17.078-8 10.734 0 17.016 8 6.2812 8.0156 6.2812 21.781 0 13.828-6.2812 21.828-6.2812 8.0156-17.016 8.0156zm0 8q15.328 0 24.5-10.281 9.1875-10.281 9.1875-27.562 0-17.234-9.1875-27.516-9.1719-10.281-24.5-10.281-15.375 0-24.594 10.25-9.2031 10.266-9.2031 27.547t9.2031 27.562q9.2188 10.281 24.594 10.281z"/>
</defs>
<g transform="translate(1097.7 995.49) scale(.1 -.1)">
<use xlink:href="#at"/>
<use x="78.710938" xlink:href="#f"/>
<use x="119.824219" xlink:href="#q"/>
</g>
</g>
<g clip-path="url(#a)">
<defs>
<path id="e" d="m10.688 12.406h10.312v-12.406h-10.312z"/>
</defs>
<g transform="translate(1169 995.49) scale(.1 -.1)">
<use xlink:href="#e"/>
<use x="31.787109" xlink:href="#e"/>
<use x="63.574219" xlink:href="#e"/>
</g>
</g>
<g clip-path="url(#a)">
<g transform="translate(1241.9 995.49) scale(.1 -.1)">
<use xlink:href="#ar"/>
</g>
</g>
<g clip-path="url(#a)">
<defs>
<path id="av" d="m9.8125 72.906h9.8594v-72.906h-9.8594z"/>
</defs>
<g transform="translate(1309.3 995.49) scale(.1 -.1)">
<use xlink:href="#av"/>
<use x="29.492188" xlink:href="#ab"/>
<use x="84.472656" xlink:href="#u"/>
</g>
</g>
<g clip-path="url(#a)">
<g transform="translate(1380.6 995.49) scale(.1 -.1)">
<use xlink:href="#ag"/>
<use x="63.476562" xlink:href="#g"/>
<use x="91.259766" xlink:href="#h"/>
<use x="154.638672" xlink:href="#ag"/>
</g>
</g>
<g clip-path="url(#a)">
<g transform="translate(1452.8 995.49) scale(.1 -.1)">
<use xlink:href="#al"/>
<use x="81.787109" xlink:href="#d"/>
<use x="143.310547" xlink:href="#g"/>
<use x="171.09375" xlink:href="#q"/>
<use x="210.302734" xlink:href="#d"/>
<use x="271.826172" xlink:href="#f"/>
</g>
</g>
<g clip-path="url(#a)">
<defs>
<path id="az" d="m37.109 75.984v-7.4844h-8.5938q-4.8281 0-6.7188-1.9531-1.875-1.9531-1.875-7.0312v-4.8281h14.797v-6.9844h-14.797v-47.703h-9.0312v47.703h-8.5938v6.9844h8.5938v3.8125q0 9.125 4.25 13.297 4.25 4.1875 13.469 4.1875z"/>
</defs>
<g transform="translate(1539.6 995.49) scale(.1 -.1)">
<use xlink:href="#i"/>
<use x="61.279297" xlink:href="#af"/>
<use x="124.658203" xlink:href="#az"/>
</g>
</g>
<g clip-path="url(#a)">
<g transform="translate(1621.3 995.49) scale(.1 -.1)">
<use xlink:href="#w"/>
<use x="63.476562" xlink:href="#g"/>
<use x="91.259766" xlink:href="#d"/>
</g>
</g>
<g clip-path="url(#a)">
<defs>
<path id="au" d="m9.8125 72.906h14.703l18.594-49.609 18.703 49.609h14.703v-72.906h-9.625v64.016l-18.797-50h-9.9062l-18.797 50v-64.016h-9.5781z"/>
</defs>
<g transform="translate(1696.8 995.49) scale(.1 -.1)">
<use xlink:href="#au"/>
<use x="86.279297" xlink:href="#i"/>
<use x="147.558594" xlink:href="#af"/>
<use x="210.9375" xlink:href="#d"/>
<use x="272.460938" xlink:href="#f"/>
</g>
</g>
<g clip-path="url(#a)">
<defs>
<path id="ay" d="m5.5156 54.688h42.672v-8.2031l-33.781-39.312h33.781v-7.1719h-43.891v8.2031l33.797 39.312h-32.578z"/>
</defs>
<g transform="translate(1792.4 995.49) scale(.1 -.1)">
<use xlink:href="#ay"/>
<use x="52.490234" xlink:href="#af"/>
</g>
</g>
<g clip-path="url(#a)">
<g transform="translate(1884.6 995.49) scale(.1 -.1)">
<use xlink:href="#e"/>
</g>
</g>
<g clip-path="url(#a)">
<defs>
<path id="c" d="m12.406 8.2969h16.109v55.625l-17.531-3.5156v8.9844l17.438 3.5156h9.8594v-64.609h16.109v-8.2969h-41.984z"/>
</defs>
<g transform="translate(673.62 50.032) scale(.1 -.1)">
<use xlink:href="#c"/>
<use x="63.623047" xlink:href="#e"/>
<use x="95.410156" xlink:href="#c"/>
</g>
</g>
<g clip-path="url(#a)">
<defs>
<path id="p" d="m19.188 8.2969h34.422v-8.2969h-46.281v8.2969q5.6094 5.8125 15.297 15.594 9.7031 9.7969 12.188 12.641 4.7344 5.3125 6.6094 9 1.8906 3.6875 1.8906 7.25 0 5.8125-4.0781 9.4688-4.0781 3.6719-10.625 3.6719-4.6406 0-9.7969-1.6094-5.1406-1.6094-11-4.8906v9.9688q5.9531 2.3906 11.125 3.6094 5.1875 1.2188 9.4844 1.2188 11.328 0 18.062-5.6719 6.7344-5.6562 6.7344-15.125 0-4.5-1.6875-8.5312-1.6719-4.0156-6.125-9.4844-1.2188-1.4219-7.7656-8.1875-6.5312-6.7656-18.453-18.922z"/>
</defs>
<g transform="translate(122.03 526.02) scale(.1 -.1)">
<use xlink:href="#c"/>
<use x="63.623047" xlink:href="#e"/>
<use x="95.410156" xlink:href="#p"/>
</g>
</g>
<g clip-path="url(#a)">
<defs>
<path id="n" d="m40.578 39.312q7.0781-1.5156 11.047-6.3125 3.9844-4.7812 3.9844-11.812 0-10.781-7.4219-16.703-7.4219-5.9062-21.094-5.9062-4.5781 0-9.4375 0.90625t-10.031 2.7188v9.5156q4.0938-2.3906 8.9688-3.6094 4.8906-1.2188 10.219-1.2188 9.2656 0 14.125 3.6562t4.8594 10.641q0 6.4531-4.5156 10.078-4.5156 3.6406-12.562 3.6406h-8.5v8.1094h8.8906q7.2656 0 11.125 2.9062t3.8594 8.375q0 5.6094-3.9844 8.6094-3.9688 3.0156-11.391 3.0156-4.0625 0-8.7031-0.89062-4.6406-0.875-10.203-2.7188v8.7812q5.625 1.5625 10.531 2.3438t9.25 0.78125q11.234 0 17.766-5.1094 6.5469-5.0938 6.5469-13.781 0-6.0625-3.4688-10.234t-9.8594-5.7812z"/>
</defs>
<g transform="translate(196.2 840.71) scale(.1 -.1)">
<use xlink:href="#c"/>
<use x="63.623047" xlink:href="#e"/>
<use x="95.410156" xlink:href="#n"/>
</g>
</g>
<g clip-path="url(#a)">
<defs>
<path id="m" d="m37.797 64.312-24.906-38.922h24.906zm-2.5938 8.5938h12.406v-47.516h10.406v-8.2031h-10.406v-17.188h-9.8125v17.188h-32.906v9.5156z"/>
</defs>
<g transform="translate(355.95 209.04) scale(.1 -.1)">
<use xlink:href="#c"/>
<use x="63.623047" xlink:href="#e"/>
<use x="95.410156" xlink:href="#m"/>
</g>
</g>
<g clip-path="url(#a)">
<defs>
<path id="o" d="m10.797 72.906h38.719v-8.3125h-29.688v-17.859q2.1406 0.73438 4.2812 1.0938 2.1562 0.35938 4.3125 0.35938 12.203 0 19.328-6.6875 7.1406-6.6875 7.1406-18.109 0-11.766-7.3281-18.297-7.3281-6.5156-20.656-6.5156-4.5938 0-9.3594 0.78125-4.75 0.78125-9.8281 2.3438v9.9219q4.3906-2.3906 9.0781-3.5625t9.9062-1.1719q8.4531 0 13.375 4.4375 4.9375 4.4375 4.9375 12.062 0 7.6094-4.9375 12.047-4.9219 4.4531-13.375 4.4531-3.9531 0-7.8906-0.875-3.9219-0.875-8.0156-2.7344z"/>
</defs>
<g transform="translate(1464.9 526.02) scale(.1 -.1)">
<use xlink:href="#c"/>
<use x="63.623047" xlink:href="#e"/>
<use x="95.410156" xlink:href="#o"/>
</g>
</g>
<g clip-path="url(#a)">
<defs>
<path id="z" d="m31.781 66.406q-7.6094 0-11.453-7.5-3.8281-7.4844-3.8281-22.531 0-14.984 3.8281-22.484 3.8438-7.5 11.453-7.5 7.6719 0 11.5 7.5 3.8438 7.5 3.8438 22.484 0 15.047-3.8438 22.531-3.8281 7.5-11.5 7.5zm0 7.8125q12.266 0 18.734-9.7031 6.4688-9.6875 6.4688-28.141 0-18.406-6.4688-28.109-6.4688-9.6875-18.734-9.6875-12.25 0-18.719 9.6875-6.4688 9.7031-6.4688 28.109 0 18.453 6.4688 28.141 6.4688 9.7031 18.719 9.7031z"/>
</defs>
<g transform="translate(1305.6 840.71) scale(.1 -.1)">
<use xlink:href="#c"/>
<use x="63.623047" xlink:href="#e"/>
<use x="95.410156" xlink:href="#c"/>
<use x="159.033203" xlink:href="#z"/>
</g>
</g>
<g clip-path="url(#a)">
<g transform="translate(1380.3 840.71) scale(.1 -.1)">
<use xlink:href="#c"/>
<use x="63.623047" xlink:href="#e"/>
<use x="95.410156" xlink:href="#c"/>
<use x="159.033203" xlink:href="#c"/>
</g>
</g>
<g clip-path="url(#a)">
<g transform="translate(1457.3 840.71) scale(.1 -.1)">
<use xlink:href="#c"/>
<use x="63.623047" xlink:href="#e"/>
<use x="95.410156" xlink:href="#c"/>
<use x="159.033203" xlink:href="#p"/>
</g>
</g>
<g clip-path="url(#a)">
<g transform="translate(1703.5 683.78) scale(.1 -.1)">
<use xlink:href="#c"/>
<use x="63.623047" xlink:href="#e"/>
<use x="95.410156" xlink:href="#c"/>
<use x="159.033203" xlink:href="#n"/>
</g>
</g>
<g clip-path="url(#a)">
<g transform="translate(1536.4 840.71) scale(.1 -.1)">
<use xlink:href="#c"/>
<use x="63.623047" xlink:href="#e"/>
<use x="95.410156" xlink:href="#c"/>
<use x="159.033203" xlink:href="#m"/>
</g>
</g>
<g clip-path="url(#a)">
<g transform="translate(1617.8 840.71) scale(.1 -.1)">
<use xlink:href="#c"/>
<use x="63.623047" xlink:href="#e"/>
<use x="95.410156" xlink:href="#c"/>
<use x="159.033203" xlink:href="#o"/>
</g>
</g>
<g clip-path="url(#a)">
<defs>
<path id="y" d="m33.016 40.375q-6.6406 0-10.531-4.5469-3.875-4.5312-3.875-12.438 0-7.8594 3.875-12.438 3.8906-4.5625 10.531-4.5625t10.516 4.5625q3.875 4.5781 3.875 12.438 0 7.9062-3.875 12.438-3.875 4.5469-10.516 4.5469zm19.578 30.922v-8.9844q-3.7188 1.75-7.5 2.6719-3.7812 0.9375-7.5 0.9375-9.7656 0-14.922-6.5938-5.1406-6.5938-5.875-19.922 2.875 4.25 7.2188 6.5156 4.3594 2.2656 9.5781 2.2656 10.984 0 17.359-6.6719 6.375-6.6562 6.375-18.125 0-11.234-6.6406-18.031-6.6406-6.7812-17.672-6.7812-12.656 0-19.344 9.6875-6.6875 9.7031-6.6875 28.109 0 17.281 8.2031 27.562t22.016 10.281q3.7188 0 7.5-0.73438t7.8906-2.1875z"/>
</defs>
<g transform="translate(1701.3 840.71) scale(.1 -.1)">
<use xlink:href="#c"/>
<use x="63.623047" xlink:href="#e"/>
<use x="95.410156" xlink:href="#c"/>
<use x="159.033203" xlink:href="#y"/>
</g>
</g>
<g clip-path="url(#a)">
<defs>
<path id="ae" d="m8.2031 72.906h46.875v-4.2031l-26.469-68.703h-10.297l24.906 64.594h-35.016z"/>
</defs>
<g transform="translate(1787.1 840.71) scale(.1 -.1)">
<use xlink:href="#c"/>
<use x="63.623047" xlink:href="#e"/>
<use x="95.410156" xlink:href="#c"/>
<use x="159.033203" xlink:href="#ae"/>
</g>
</g>
<g clip-path="url(#a)">
<defs>
<path id="ad" d="m31.781 34.625q-7.0312 0-11.062-3.7656-4.0156-3.7656-4.0156-10.344 0-6.5938 4.0156-10.359 4.0312-3.7656 11.062-3.7656t11.078 3.7812q4.0625 3.7969 4.0625 10.344 0 6.5781-4.0312 10.344-4.0156 3.7656-11.109 3.7656zm-9.8594 4.1875q-6.3438 1.5625-9.8906 5.9062-3.5312 4.3594-3.5312 10.609 0 8.7344 6.2188 13.812 6.2344 5.0781 17.062 5.0781 10.891 0 17.094-5.0781t6.2031-13.812q0-6.25-3.5469-10.609-3.5312-4.3438-9.8281-5.9062 7.125-1.6562 11.094-6.5 3.9844-4.8281 3.9844-11.797 0-10.609-6.4688-16.281-6.4688-5.6562-18.531-5.6562-12.047 0-18.531 5.6562-6.4688 5.6719-6.4688 16.281 0 6.9688 4 11.797 4.0156 4.8438 11.141 6.5zm-3.6094 15.578q0-5.6562 3.5312-8.8281 3.5469-3.1719 9.9375-3.1719 6.3594 0 9.9375 3.1719 3.5938 3.1719 3.5938 8.8281 0 5.6719-3.5938 8.8438-3.5781 3.1719-9.9375 3.1719-6.3906 0-9.9375-3.1719-3.5312-3.1719-3.5312-8.8438z"/>
</defs>
<g transform="translate(217.21 840.71) scale(.1 -.1)">
<use xlink:href="#c"/>
<use x="63.623047" xlink:href="#e"/>
<use x="95.410156" xlink:href="#c"/>
<use x="159.033203" xlink:href="#ad"/>
</g>
</g>
<g clip-path="url(#a)">
<defs>
<path id="ac" d="m10.984 1.5156v8.9844q3.7188-1.7656 7.5156-2.6875 3.8125-0.92188 7.4844-0.92188 9.7656 0 14.906 6.5625 5.1562 6.5625 5.8906 19.953-2.8281-4.2031-7.1875-6.4531-4.3438-2.25-9.6094-2.25-10.938 0-17.312 6.6094-6.375 6.625-6.375 18.109 0 11.219 6.6406 18 6.6406 6.7969 17.672 6.7969 12.656 0 19.312-9.7031 6.6719-9.6875 6.6719-28.141 0-17.234-8.1875-27.516-8.1719-10.281-21.984-10.281-3.7188 0-7.5312 0.73438-3.7969 0.73438-7.9062 2.2031zm19.625 30.906q6.6406 0 10.516 4.5312 3.8906 4.5469 3.8906 12.469 0 7.8594-3.8906 12.422-3.875 4.5625-10.516 4.5625t-10.516-4.5625-3.875-12.422q0-7.9219 3.875-12.469 3.875-4.5312 10.516-4.5312z"/>
</defs>
<g transform="translate(243.59 840.71) scale(.1 -.1)">
<use xlink:href="#c"/>
<use x="63.623047" xlink:href="#e"/>
<use x="95.410156" xlink:href="#c"/>
<use x="159.033203" xlink:href="#ac"/>
</g>
</g>
<g clip-path="url(#a)">
<g transform="translate(744.76 367.73) scale(.1 -.1)">
<use xlink:href="#c"/>
<use x="63.623047" xlink:href="#e"/>
<use x="95.410156" xlink:href="#p"/>
<use x="159.033203" xlink:href="#z"/>
</g>
</g>
<g clip-path="url(#a)">
<g transform="translate(517.33 683.78) scale(.1 -.1)">
<use xlink:href="#c"/>
<use x="63.623047" xlink:href="#e"/>
<use x="95.410156" xlink:href="#p"/>
<use x="159.033203" xlink:href="#m"/>
</g>
</g>
<g clip-path="url(#a)">
<g transform="translate(786.68 840.71) scale(.1 -.1)">
<use xlink:href="#c"/>
<use x="63.623047" xlink:href="#e"/>
<use x="95.410156" xlink:href="#p"/>
<use x="159.033203" xlink:href="#o"/>
</g>
</g>
<g clip-path="url(#a)">
<g transform="translate(943.34 526.02) scale(.1 -.1)">
<use xlink:href="#c"/>
<use x="63.623047" xlink:href="#e"/>
<use x="95.410156" xlink:href="#p"/>
<use x="159.033203" xlink:href="#y"/>
</g>
</g>
<g clip-path="url(#a)">
<g transform="translate(843.84 840.71) scale(.1 -.1)">
<use xlink:href="#c"/>
<use x="63.623047" xlink:href="#e"/>
<use x="95.410156" xlink:href="#p"/>
<use x="159.033203" xlink:href="#ad"/>
</g>
</g>
<g clip-path="url(#a)">
<g transform="translate(903.21 840.71) scale(.1 -.1)">
<use xlink:href="#c"/>
<use x="63.623047" xlink:href="#e"/>
<use x="95.410156" xlink:href="#p"/>
<use x="159.033203" xlink:href="#ac"/>
</g>
</g>
<g clip-path="url(#a)">
<g transform="translate(964.77 840.71) scale(.1 -.1)">
<use xlink:href="#c"/>
<use x="63.623047" xlink:href="#e"/>
<use x="95.410156" xlink:href="#n"/>
<use x="159.033203" xlink:href="#z"/>
</g>
</g>
<g clip-path="url(#a)">
<g transform="translate(1061.5 683.78) scale(.1 -.1)">
<use xlink:href="#c"/>
<use x="63.623047" xlink:href="#e"/>
<use x="95.410156" xlink:href="#n"/>
<use x="159.033203" xlink:href="#c"/>
</g>
</g>
<g clip-path="url(#a)">
<g transform="translate(1028.5 840.71) scale(.1 -.1)">
<use xlink:href="#c"/>
<use x="63.623047" xlink:href="#e"/>
<use x="95.410156" xlink:href="#n"/>
<use x="159.033203" xlink:href="#p"/>
</g>
</g>
<g clip-path="url(#a)">
<g transform="translate(1094.5 840.71) scale(.1 -.1)">
<use xlink:href="#c"/>
<use x="63.623047" xlink:href="#e"/>
<use x="95.410156" xlink:href="#n"/>
<use x="159.033203" xlink:href="#n"/>
</g>
</g>
<g clip-path="url(#a)">
<g transform="translate(371.12 840.71) scale(.1 -.1)">
<use xlink:href="#c"/>
<use x="63.623047" xlink:href="#e"/>
<use x="95.410156" xlink:href="#n"/>
<use x="159.033203" xlink:href="#m"/>
</g>
</g>
<g clip-path="url(#a)">
<g transform="translate(448.07 840.71) scale(.1 -.1)">
<use xlink:href="#c"/>
<use x="63.623047" xlink:href="#e"/>
<use x="95.410156" xlink:href="#n"/>
<use x="159.033203" xlink:href="#o"/>
</g>
</g>
<g clip-path="url(#a)">
<g transform="translate(533.82 840.71) scale(.1 -.1)">
<use xlink:href="#c"/>
<use x="63.623047" xlink:href="#e"/>
<use x="95.410156" xlink:href="#n"/>
<use x="159.033203" xlink:href="#y"/>
</g>
</g>
<g clip-path="url(#a)">
<g transform="translate(580 840.71) scale(.1 -.1)">
<use xlink:href="#c"/>
<use x="63.623047" xlink:href="#e"/>
<use x="95.410156" xlink:href="#n"/>
<use x="159.033203" xlink:href="#ae"/>
</g>
</g>
<g clip-path="url(#a)">
<g transform="translate(628.37 840.71) scale(.1 -.1)">
<use xlink:href="#c"/>
<use x="63.623047" xlink:href="#e"/>
<use x="95.410156" xlink:href="#n"/>
<use x="159.033203" xlink:href="#ad"/>
</g>
</g>
<g clip-path="url(#a)">
<g transform="translate(678.94 840.71) scale(.1 -.1)">
<use xlink:href="#c"/>
<use x="63.623047" xlink:href="#e"/>
<use x="95.410156" xlink:href="#n"/>
<use x="159.033203" xlink:href="#ac"/>
</g>
</g>
<g clip-path="url(#a)">
<g transform="translate(171.03 840.71) scale(.1 -.1)">
<use xlink:href="#c"/>
<use x="63.623047" xlink:href="#e"/>
<use x="95.410156" xlink:href="#m"/>
<use x="159.033203" xlink:href="#z"/>
</g>
</g>
<g clip-path="url(#a)">
<g transform="translate(272.17 840.71) scale(.1 -.1)">
<use xlink:href="#c"/>
<use x="63.623047" xlink:href="#e"/>
<use x="95.410156" xlink:href="#m"/>
<use x="159.033203" xlink:href="#c"/>
</g>
</g>
<g clip-path="url(#a)">
<g transform="translate(86.014 683.78) scale(.1 -.1)">
<use xlink:href="#c"/>
<use x="63.623047" xlink:href="#e"/>
<use x="95.410156" xlink:href="#m"/>
<use x="159.033203" xlink:href="#p"/>
</g>
</g>
<g clip-path="url(#a)">
<g transform="translate(105.07 840.71) scale(.1 -.1)">
<use xlink:href="#c"/>
<use x="63.623047" xlink:href="#e"/>
<use x="95.410156" xlink:href="#m"/>
<use x="159.033203" xlink:href="#n"/>
</g>
</g>
<g clip-path="url(#a)">
<g transform="translate(118.26 840.71) scale(.1 -.1)">
<use xlink:href="#c"/>
<use x="63.623047" xlink:href="#e"/>
<use x="95.410156" xlink:href="#m"/>
<use x="159.033203" xlink:href="#m"/>
</g>
</g>
<g clip-path="url(#a)">
<g transform="translate(133.65 840.71) scale(.1 -.1)">
<use xlink:href="#c"/>
<use x="63.623047" xlink:href="#e"/>
<use x="95.410156" xlink:href="#m"/>
<use x="159.033203" xlink:href="#o"/>
</g>
</g>
<g clip-path="url(#a)">
<g transform="translate(151.24 840.71) scale(.1 -.1)">
<use xlink:href="#c"/>
<use x="63.623047" xlink:href="#e"/>
<use x="95.410156" xlink:href="#m"/>
<use x="159.033203" xlink:href="#y"/>
</g>
</g>
<g clip-path="url(#a)">
<g transform="translate(78.685 840.71) scale(.1 -.1)">
<use xlink:href="#c"/>
<use x="63.623047" xlink:href="#e"/>
<use x="95.410156" xlink:href="#m"/>
<use x="159.033203" xlink:href="#ae"/>
</g>
</g>
<g clip-path="url(#a)">
<g transform="translate(85.282 840.71) scale(.1 -.1)">
<use xlink:href="#c"/>
<use x="63.623047" xlink:href="#e"/>
<use x="95.410156" xlink:href="#m"/>
<use x="159.033203" xlink:href="#ad"/>
</g>
</g>
<g clip-path="url(#a)">
<g transform="translate(94.076 840.71) scale(.1 -.1)">
<use xlink:href="#c"/>
<use x="63.623047" xlink:href="#e"/>
<use x="95.410156" xlink:href="#m"/>
<use x="159.033203" xlink:href="#ac"/>
</g>
</g>
<g clip-path="url(#a)">
<g transform="translate(302.96 840.71) scale(.1 -.1)">
<use xlink:href="#c"/>
<use x="63.623047" xlink:href="#e"/>
<use x="95.410156" xlink:href="#o"/>
<use x="159.033203" xlink:href="#z"/>
</g>
</g>
<g clip-path="url(#a)">
<g transform="translate(335.94 840.71) scale(.1 -.1)">
<use xlink:href="#c"/>
<use x="63.623047" xlink:href="#e"/>
<use x="95.410156" xlink:href="#o"/>
<use x="159.033203" xlink:href="#c"/>
</g>
</g>
<g clip-path="url(#a)">
<g transform="translate(408.5 840.71) scale(.1 -.1)">
<use xlink:href="#c"/>
<use x="63.623047" xlink:href="#e"/>
<use x="95.410156" xlink:href="#o"/>
<use x="159.033203" xlink:href="#p"/>
</g>
</g>
<g clip-path="url(#a)">
<g transform="translate(489.85 840.71) scale(.1 -.1)">
<use xlink:href="#c"/>
<use x="63.623047" xlink:href="#e"/>
<use x="95.410156" xlink:href="#o"/>
<use x="159.033203" xlink:href="#n"/>
</g>
</g>
<g clip-path="url(#a)">
<g transform="translate(731.71 840.71) scale(.1 -.1)">
<use xlink:href="#c"/>
<use x="63.623047" xlink:href="#e"/>
<use x="95.410156" xlink:href="#o"/>
<use x="159.033203" xlink:href="#m"/>
</g>
</g>
<g clip-path="url(#a)">
<g transform="translate(1162.7 840.71) scale(.1 -.1)">
<use xlink:href="#c"/>
<use x="63.623047" xlink:href="#e"/>
<use x="95.410156" xlink:href="#o"/>
<use x="159.033203" xlink:href="#o"/>
</g>
</g>
<g clip-path="url(#a)">
<g transform="translate(1233 840.71) scale(.1 -.1)">
<use xlink:href="#c"/>
<use x="63.623047" xlink:href="#e"/>
<use x="95.410156" xlink:href="#o"/>
<use x="159.033203" xlink:href="#y"/>
</g>
</g>
<g clip-path="url(#a)">
<g transform="translate(1875 840.71) scale(.1 -.1)">
<use xlink:href="#c"/>
<use x="63.623047" xlink:href="#e"/>
<use x="95.410156" xlink:href="#o"/>
<use x="159.033203" xlink:href="#ae"/>
</g>
</g>
<defs>
<clipPath id="a">
<rect width="1976" height="1040"/>
</clipPath>
</defs>
</svg>
