<?xml version="1.0" encoding="UTF-8"?>
<!DOCTYPE svg  PUBLIC '-//W3C//DTD SVG 1.1//EN'  'http://www.w3.org/Graphics/SVG/1.1/DTD/svg11.dtd'>
<svg width="1418.7pt" height="746.67pt" version="1.1" viewBox="0 0 1418.7 746.67" xmlns="http://www.w3.org/2000/svg" xmlns:xlink="http://www.w3.org/1999/xlink">
<defs>
<style type="text/css">*{stroke-linecap:butt;stroke-linejoin:round;}</style>
</defs>
<path d="m0 746.67h1418.7v-746.67h-1418.7z" fill="#fff"/>
<g fill="none" stroke="#000">
<path d="m711.09 33.939-613.59 273.59" clip-path="url(#a)"/>
<path d="m711.09 33.939-572.31 545.2" clip-path="url(#a)"/>
<path d="m711.09 33.939-464.5 136.97" clip-path="url(#a)"/>
<path d="m711.09 33.939 551.96 409.75" clip-path="url(#a)"/>
<path d="m711.09 33.939 164.66 545.2" clip-path="url(#a)"/>
<path d="m711.09 33.939 235.98 545.2" clip-path="url(#a)"/>
<path d="m711.09 33.939 310.27 545.2" clip-path="url(#a)"/>
<path d="m711.09 33.939 387.53 545.2" clip-path="url(#a)"/>
<path d="m97.503 307.53-23.113 136.16" clip-path="url(#a)"/>
<path d="m97.503 307.53 2.6415 271.61" clip-path="url(#a)"/>
<path d="m97.503 307.53 20.471 271.61" clip-path="url(#a)"/>
<path d="m138.78 579.14v133.59" clip-path="url(#a)"/>
<path d="m246.59 170.91-84.041 408.23" clip-path="url(#a)"/>
<path d="m246.59 170.91-57.296 408.23" clip-path="url(#a)"/>
<path d="m246.59 170.91 284.34 136.62" clip-path="url(#a)"/>
<path d="m246.59 170.91-161.3 408.23" clip-path="url(#a)" stroke-dasharray="3.7,1.6"/>
<path d="m246.59 170.91-27.58 408.23" clip-path="url(#a)"/>
<path d="m246.59 170.91 5.1084 408.23" clip-path="url(#a)"/>
<path d="m246.59 170.91 40.768 408.23" clip-path="url(#a)"/>
<path d="m1263.1 443.69 91.131 135.45" clip-path="url(#a)"/>
<path d="m1263.1 443.69 91.131 135.45" clip-path="url(#a)"/>
<path d="m1263.1 443.69-84.197 135.45" clip-path="url(#a)"/>
<path d="m1263.1 443.69-0.99055 135.45" clip-path="url(#a)"/>
<path d="m1263.1 443.69 85.187 135.45" clip-path="url(#a)"/>
<path d="m1178.9 579.14v133.59" clip-path="url(#a)"/>
<path d="m162.55 579.14v133.59" clip-path="url(#a)"/>
<path d="m189.29 579.14v133.59" clip-path="url(#a)"/>
<path d="m530.94 307.53-184.14 136.16" clip-path="url(#a)"/>
<path d="m530.94 307.53-14.759 271.61" clip-path="url(#a)"/>
<path d="m530.94 307.53-45.962 271.61" clip-path="url(#a)"/>
<path d="m530.94 307.53 32.787 271.61" clip-path="url(#a)"/>
<path d="m530.94 307.53 212.08 136.16" clip-path="url(#a)"/>
<path d="m346.79 443.69-20.802 135.45" clip-path="url(#a)"/>
<path d="m346.79 443.69 20.802 135.45" clip-path="url(#a)"/>
<path d="m516.18 579.14-104.01 133.59" clip-path="url(#a)"/>
<path d="m516.18 579.14 104.01 133.59" clip-path="url(#a)"/>
<path d="m484.97 579.14-25.259 133.59" clip-path="url(#a)"/>
<path d="m484.97 579.14 25.259 133.59" clip-path="url(#a)"/>
<path d="m563.72 579.14v133.59" clip-path="url(#a)"/>
<path d="m743.01 443.69-63.395 135.45" clip-path="url(#a)"/>
<path d="m743.01 443.69-0.99055 135.45" clip-path="url(#a)"/>
<path d="m743.01 443.69 64.386 135.45" clip-path="url(#a)"/>
<path d="m679.62 579.14v133.59" clip-path="url(#a)"/>
<path d="m742.02 579.14v133.59" clip-path="url(#a)"/>
<path d="m807.4 579.14v133.59" clip-path="url(#a)"/>
<path d="m325.99 579.14v133.59" clip-path="url(#a)"/>
<path d="m367.59 579.14v133.59" clip-path="url(#a)"/>
<path d="m74.39 443.69-9.9055 135.45" clip-path="url(#a)"/>
<path d="m74.39 443.69-0.99055 135.45" clip-path="url(#a)"/>
<path d="m74.39 443.69 10.896 135.45" clip-path="url(#a)"/>
<path d="m100.14 579.14v133.59" clip-path="url(#a)"/>
<path d="m117.97 579.14v133.59" clip-path="url(#a)"/>
<path d="m64.485 579.14v133.59" clip-path="url(#a)"/>
<path d="m73.4 579.14v133.59" clip-path="url(#a)"/>
<path d="m85.286 579.14v133.59" clip-path="url(#a)"/>
<path d="m219.01 579.14v133.59" clip-path="url(#a)"/>
<path d="m251.7 579.14v133.59" clip-path="url(#a)"/>
<path d="m287.36 579.14v133.59" clip-path="url(#a)"/>
<path d="m875.75 579.14v133.59" clip-path="url(#a)"/>
<path d="m947.07 579.14v133.59" clip-path="url(#a)"/>
<path d="m1021.4 579.14v133.59" clip-path="url(#a)"/>
<path d="m1098.6 579.14v133.59" clip-path="url(#a)"/>
<path d="m1262.1 579.14v133.59" clip-path="url(#a)"/>
<path d="m1348.2 579.14v133.59" clip-path="url(#a)"/>
</g>
<path d="m404.1 177.69 5.4948-2.4501q2.192-0.97737 1.2146-3.1693l-3.153-7.0714q-0.97737-2.192-3.1693-1.2146l-5.4948 2.4501q-2.192 0.97737-1.2146 3.1693l3.153 7.0714q0.97737 2.192 3.1693 1.2146z" clip-path="url(#a)" fill="#fff" stroke="#fff"/>
<g clip-path="url(#a)">
<defs>
<path id="ab" d="m9.8125 72.906h9.8594v-29.891h35.844v29.891h9.8594v-72.906h-9.8594v34.719h-35.844v-34.719h-9.8594z"/>
</defs>
<g transform="translate(402.45 173.98) rotate(-24.032) scale(.08 -.08)">
<use xlink:href="#ab"/>
</g>
</g>
<path d="m427.64 312.62 3.2275-3.0745q1.7377-1.6554 0.082328-3.3931l-5.3404-5.606q-1.6554-1.7377-3.3931-0.082328l-3.2275 3.0745q-1.7377 1.6554-0.082329 3.3931l5.3404 5.606q1.6554 1.7377 3.3931 0.082329z" clip-path="url(#a)" fill="#fff" stroke="#fff"/>
<g clip-path="url(#a)">
<defs>
<path id="aa" d="m9.8125 72.906h9.8594v-64.609h35.5v-8.2969h-45.359z"/>
</defs>
<g transform="translate(424.84 309.67) rotate(-43.61) scale(.08 -.08)">
<use xlink:href="#aa"/>
</g>
</g>
<path d="m477.73 109.29 5.7706-1.7016q2.302-0.6788 1.6232-2.9808l-2.1898-7.4264q-0.6788-2.302-2.9808-1.6232l-5.7706 1.7016q-2.302 0.6788-1.6232 2.9808l2.1898 7.4264q0.6788 2.302 2.9808 1.6232z" clip-path="url(#a)" fill="#fff" stroke="#fff"/>
<g clip-path="url(#a)">
<g transform="translate(476.58 105.39) rotate(-16.429) scale(.08 -.08)">
<use xlink:href="#ab"/>
</g>
</g>
<path d="m980.92 242.06 4.8307 3.5861q1.9271 1.4305 3.3576-0.4965l4.615-6.2168q1.4305-1.9271-0.49651-3.3576l-4.8307-3.5861q-1.9271-1.4305-3.3576 0.4965l-4.615 6.2168q-1.4305 1.9271 0.49651 3.3576z" clip-path="url(#a)" fill="#fff" stroke="#fff"/>
<g clip-path="url(#a)">
<g transform="translate(983.34 238.79) rotate(36.588) scale(.08 -.08)">
<use xlink:href="#ab"/>
</g>
</g>
<path d="m786.57 305.55 1.6928 5.605q0.69388 2.2975 2.9914 1.6036l7.4118-2.2385q2.2975-0.69388 1.6036-2.9914l-1.6928-5.605q-0.69388-2.2975-2.9914-1.6036l-7.4118 2.2385q-2.2975 0.69388-1.6036 2.9914z" clip-path="url(#a)" fill="#fff" stroke="#fff"/>
<g clip-path="url(#a)">
<defs>
<path id="p" d="m8.6875 72.906h9.9219v-44.297q0-11.719 4.2344-16.875 4.25-5.1406 13.781-5.1406 9.4688 0 13.719 5.1406 4.25 5.1562 4.25 16.875v44.297h9.9062v-45.516q0-14.25-7.0625-21.531-7.0469-7.2812-20.812-7.2812-13.828 0-20.891 7.2812-7.0469 7.2812-7.0469 21.531z"/>
</defs>
<g transform="translate(790.46 304.37) rotate(73.195) scale(.08 -.08)">
<use xlink:href="#p"/>
</g>
</g>
<path d="m822.16 306.34 2.3257 5.3733q0.95332 2.2025 3.1559 1.2492l7.1055-3.0755q2.2025-0.95332 1.2492-3.1559l-2.3257-5.3733q-0.95332-2.2025-3.1559-1.2492l-7.1055 3.0755q-2.2025 0.95332-1.2492 3.1559z" clip-path="url(#a)" fill="#fff" stroke="#fff"/>
<g clip-path="url(#a)">
<g transform="translate(825.89 304.73) rotate(66.596) scale(.08 -.08)">
<use xlink:href="#p"/>
</g>
</g>
<path d="m859.32 307.1 2.8959 5.0887q1.1871 2.0859 3.2729 0.89882l6.7291-3.8295q2.0859-1.1871 0.89882-3.2729l-2.8959-5.0887q-1.1871-2.0859-3.2729-0.89882l-6.7291 3.8295q-2.0859 1.1871-0.89882 3.2729z" clip-path="url(#a)" fill="#fff" stroke="#fff"/>
<g clip-path="url(#a)">
<g transform="translate(862.86 305.09) rotate(60.356) scale(.08 -.08)">
<use xlink:href="#p"/>
</g>
</g>
<path d="m898.05 307.79 3.3922 4.7722q1.3905 1.9562 3.3466 0.56571l6.3107-4.4857q1.9562-1.3905 0.56571-3.3466l-3.3922-4.7722q-1.3905-1.9562-3.3466-0.56571l-6.3107 4.4857q-1.9562 1.3905-0.56571 3.3466z" clip-path="url(#a)" fill="#fff" stroke="#fff"/>
<g clip-path="url(#a)">
<g transform="translate(901.36 305.43) rotate(54.594) scale(.08 -.08)">
<use xlink:href="#p"/>
</g>
</g>
<path d="m91.672 379.36 0.91585-5.3953q0.40165-2.3662-1.9645-2.7678l-7.6333-1.2957q-2.3662-0.40165-2.7678 1.9645l-0.91585 5.3953q-0.40165 2.3662 1.9645 2.7678l7.6333 1.2957q2.3662 0.40165 2.7678-1.9645z" clip-path="url(#a)" fill="#fff" stroke="#fff"/>
<g clip-path="url(#a)">
<defs>
<path id="q" d="m34.188 63.188-13.391-36.281h26.812zm-5.5781 9.7188h11.188l27.781-72.906h-10.25l-6.6406 18.703h-32.859l-6.6406-18.703h-10.406z"/>
</defs>
<g transform="translate(87.665 378.68) rotate(-80.366) scale(.08 -.08)">
<use xlink:href="#q"/>
</g>
</g>
<path d="m92.53 440.98 0.04691 4.8235q0.02334 2.3999 2.4232 2.3765l7.7421-0.075295q2.3999-0.023339 2.3765-2.4232l-0.04691-4.8235q-0.02334-2.3999-2.4232-2.3765l-7.7421 0.075295q-2.3999 0.02334-2.3765 2.4232z" clip-path="url(#a)" fill="#fff" stroke="#fff"/>
<g clip-path="url(#a)">
<defs>
<path id="s" d="m19.672 64.797v-27.391h12.406q6.8906 0 10.641 3.5625 3.7656 3.5625 3.7656 10.156 0 6.5469-3.7656 10.109-3.75 3.5625-10.641 3.5625zm-9.8594 8.1094h22.266q12.266 0 18.531-5.5469 6.2812-5.5469 6.2812-16.234 0-10.797-6.2812-16.312-6.2656-5.5156-18.531-5.5156h-12.406v-29.297h-9.8594z"/>
</defs>
<g transform="translate(96.593 440.94) rotate(89.443) scale(.08 -.08)">
<use xlink:href="#s"/>
</g>
</g>
<path d="m101.28 441.08 0.4113 5.457q0.18038 2.3932 2.5736 2.2128l7.7206-0.58191q2.3932-0.18038 2.2128-2.5736l-0.4113-5.457q-0.18038-2.3932-2.5736-2.2128l-7.7206 0.58191q-2.3932 0.18038-2.2128 2.5736z" clip-path="url(#a)" fill="#fff" stroke="#fff"/>
<g clip-path="url(#a)">
<g transform="translate(105.33 440.77) rotate(85.69) scale(.08 -.08)">
<use xlink:href="#q"/>
</g>
</g>
<path d="m132.5 629.03v33.808q0 2.4 2.4 2.4h7.7425q2.4 0 2.4-2.4v-33.808q0-2.4-2.4-2.4h-7.7425q-2.4 0-2.4 2.4z" clip-path="url(#a)" fill="#fff" stroke="#fff"/>
<g clip-path="url(#a)">
<defs>
<path id="k" d="m-0.29688 72.906h61.672v-8.3125h-25.875v-64.594h-9.9062v64.594h-25.891z"/>
<path id="c" d="m56.203 29.594v-4.3906h-41.312q0.59375-9.2812 5.5938-14.141t13.938-4.8594q5.1719 0 10.031 1.2656t9.6562 3.8125v-8.5q-4.8438-2.0469-9.9219-3.125t-10.297-1.0781q-13.094 0-20.734 7.6094-7.6406 7.625-7.6406 20.625 0 13.422 7.25 21.297 7.25 7.8906 19.562 7.8906 11.031 0 17.453-7.1094 6.4219-7.0938 6.4219-19.297zm-8.9844 2.6406q-0.09375 7.3594-4.125 11.75-4.0312 4.4062-10.672 4.4062-7.5156 0-12.031-4.25t-5.2031-11.969z"/>
<path id="i" d="m41.109 46.297q-1.5156 0.875-3.2969 1.2812-1.7812 0.42188-3.9219 0.42188-7.625 0-11.703-4.9531t-4.0781-14.234v-28.812h-9.0312v54.688h9.0312v-8.5q2.8438 4.9844 7.375 7.3906 4.5469 2.4219 11.047 2.4219 0.92188 0 2.0469-0.125 1.125-0.10938 2.4844-0.35938z"/>
<path id="l" d="m52 44.188q3.375 6.0625 8.0625 8.9375t11.031 2.875q8.5469 0 13.188-5.9844 4.6406-5.9688 4.6406-17v-33.016h-9.0312v32.719q0 7.8594-2.7969 11.656-2.7812 3.8125-8.4844 3.8125-6.9844 0-11.047-4.6406-4.0469-4.625-4.0469-12.641v-30.906h-9.0312v32.719q0 7.9062-2.7812 11.688t-8.5938 3.7812q-6.8906 0-10.953-4.6562-4.0469-4.6562-4.0469-12.625v-30.906h-9.0312v54.688h9.0312v-8.5q3.0781 5.0312 7.375 7.4219t10.203 2.3906q5.9688 0 10.141-3.0312 4.1719-3.0156 6.1719-8.7812z"/>
<path id="g" d="m9.4219 54.688h8.9844v-54.688h-8.9844zm0 21.297h8.9844v-11.391h-8.9844z"/>
<path id="f" d="m54.891 33.016v-33.016h-8.9844v32.719q0 7.7656-3.0312 11.609-3.0312 3.8594-9.0781 3.8594-7.2812 0-11.484-4.6406-4.2031-4.625-4.2031-12.641v-30.906h-9.0312v54.688h9.0312v-8.5q3.2344 4.9375 7.5938 7.375 4.375 2.4375 10.094 2.4375 9.4219 0 14.25-5.8281 4.8438-5.8281 4.8438-17.156z"/>
<path id="h" d="m34.281 27.484q-10.891 0-15.094-2.4844t-4.2031-8.5q0-4.7812 3.1562-7.5938 3.1562-2.7969 8.5625-2.7969 7.4844 0 12 5.2969t4.5156 14.078v2zm17.922 3.7188v-31.203h-8.9844v8.2969q-3.0781-4.9688-7.6719-7.3438t-11.234-2.375q-8.3906 0-13.359 4.7188-4.9531 4.7188-4.9531 12.625 0 9.2188 6.1719 13.906 6.1875 4.6875 18.438 4.6875h12.609v0.89062q0 6.2031-4.0781 9.5938t-11.453 3.3906q-4.6875 0-9.1406-1.125-4.4375-1.125-8.5312-3.375v8.3125q4.9219 1.9062 9.5625 2.8438 4.6406 0.95312 9.0312 0.95312 11.875 0 17.734-6.1562 5.8594-6.1406 5.8594-18.641z"/>
<path id="j" d="m9.4219 75.984h8.9844v-75.984h-8.9844z"/>
</defs>
<g transform="translate(136.57 629.03) rotate(90) scale(.08 -.08)">
<use xlink:href="#k"/>
<use x="44.083984" xlink:href="#c"/>
<use x="105.607422" xlink:href="#i"/>
<use x="144.970703" xlink:href="#l"/>
<use x="242.382812" xlink:href="#g"/>
<use x="270.166016" xlink:href="#f"/>
<use x="333.544922" xlink:href="#h"/>
<use x="394.824219" xlink:href="#j"/>
</g>
</g>
<path d="m210.23 378.65 0.97266-4.7247q0.48393-2.3507-1.8668-2.8346l-7.5835-1.5612q-2.3507-0.48393-2.8346 1.8668l-0.97266 4.7247q-0.48393 2.3507 1.8668 2.8346l7.5835 1.5612q2.3507 0.48393 2.8346-1.8668z" clip-path="url(#a)" fill="#fff" stroke="#fff"/>
<g clip-path="url(#a)">
<g transform="translate(206.25 377.83) rotate(-78.367) scale(.08 -.08)">
<use xlink:href="#s"/>
</g>
</g>
<path d="m223.72 378.94 0.85618-6.1002q0.33358-2.3767-2.0431-2.7103l-7.6673-1.0761q-2.3767-0.33358-2.7103 2.0431l-0.85618 6.1002q-0.33358 2.3767 2.0431 2.7103l7.6673 1.0761q2.3767 0.33358 2.7103-2.0431z" clip-path="url(#a)" fill="#fff" stroke="#fff"/>
<g clip-path="url(#a)">
<defs>
<path id="v" d="m19.672 64.797v-56.688h11.922q15.094 0 22.094 6.8281 7 6.8438 7 21.594 0 14.641-7 21.453t-22.094 6.8125zm-9.8594 8.1094h20.266q21.188 0 31.094-8.8125 9.9219-8.8125 9.9219-27.562 0-18.859-9.9688-27.703-9.9531-8.8281-31.047-8.8281h-20.266z"/>
</defs>
<g transform="translate(219.7 378.38) rotate(-82.011) scale(.08 -.08)">
<use xlink:href="#v"/>
</g>
</g>
<path d="m383.58 243.69 4.9327 2.3701q2.1632 1.0394 3.2026-1.1238l3.3532-6.9787q1.0394-2.1632-1.1238-3.2026l-4.9327-2.3701q-2.1632-1.0394-3.2026 1.1238l-3.3532 6.9787q-1.0394 2.1632 1.1238 3.2026z" clip-path="url(#a)" fill="#fff" stroke="#fff"/>
<g clip-path="url(#a)">
<g transform="translate(385.34 240.02) rotate(25.663) scale(.08 -.08)">
<use xlink:href="#q"/>
</g>
</g>
<path d="m170.77 379.87 2.0111-5.0896q0.88196-2.2321-1.3501-3.114l-7.2008-2.8452q-2.2321-0.88196-3.114 1.3501l-2.0111 5.0896q-0.88196 2.2321 1.3501 3.114l7.2008 2.8452q2.2321 0.88196 3.114-1.3501z" clip-path="url(#a)" fill="#fff" stroke="#fff"/>
<g clip-path="url(#a)">
<g transform="translate(166.99 378.38) rotate(-68.44) scale(.08 -.08)">
<use xlink:href="#q"/>
</g>
</g>
<path d="m238.86 378.37 0.39466-5.8417q0.16177-2.3945-2.2328-2.5563l-7.7249-0.52189q-2.3945-0.16177-2.5563 2.2328l-0.39466 5.8417q-0.16177 2.3945 2.2328 2.5563l7.7249 0.52189q2.3945 0.16177 2.5563-2.2328z" clip-path="url(#a)" fill="#fff" stroke="#fff"/>
<g clip-path="url(#a)">
<g transform="translate(234.81 378.09) rotate(-86.135) scale(.08 -.08)">
<use xlink:href="#p"/>
</g>
</g>
<path d="m242.84 372.17 0.073262 5.8545q0.03003 2.3998 2.4298 2.3698l7.7419-0.096878q2.3998-0.030031 2.3698-2.4298l-0.073261-5.8545q-0.030031-2.3998-2.4298-2.3698l-7.7419 0.096878q-2.3998 0.030031-2.3698 2.4298z" clip-path="url(#a)" fill="#fff" stroke="#fff"/>
<g clip-path="url(#a)">
<g transform="translate(246.9 372.12) rotate(89.283) scale(.08 -.08)">
<use xlink:href="#p"/>
</g>
</g>
<path d="m260.44 372.73 0.58182 5.826q0.23849 2.3881 2.6266 2.1496l7.7042-0.76938q2.3881-0.23849 2.1496-2.6266l-0.58182-5.826q-0.23849-2.3881-2.6266-2.1496l-7.7042 0.76938q-2.3881 0.23849-2.1496 2.6266z" clip-path="url(#a)" fill="#fff" stroke="#fff"/>
<g clip-path="url(#a)">
<g transform="translate(264.49 372.33) rotate(84.297) scale(.08 -.08)">
<use xlink:href="#p"/>
</g>
</g>
<path d="m1302.1 512.91 2.6927 4.0022q1.3397 1.9913 3.331 0.65153l6.4239-4.322q1.9913-1.3397 0.65153-3.331l-2.6927-4.0022q-1.3397-1.9913-3.331-0.65153l-6.4239 4.322q-1.9913 1.3397-0.65153 3.331z" clip-path="url(#a)" fill="#fff" stroke="#fff"/>
<g clip-path="url(#a)">
<g transform="translate(1305.4 510.64) rotate(56.067) scale(.08 -.08)">
<use xlink:href="#s"/>
</g>
</g>
<path d="m1301.9 512.64 3.0549 4.5405q1.3397 1.9913 3.331 0.65153l6.4239-4.322q1.9913-1.3397 0.65153-3.331l-3.0549-4.5405q-1.3397-1.9913-3.331-0.65153l-6.4239 4.322q-1.9913 1.3397-0.65153 3.331z" clip-path="url(#a)" fill="#fff" stroke="#fff"/>
<g clip-path="url(#a)">
<g transform="translate(1305.3 510.37) rotate(56.067) scale(.08 -.08)">
<use xlink:href="#q"/>
</g>
</g>
<path d="m1224.8 517.05 2.8891-4.6477q1.267-2.0383-0.77126-3.3053l-6.5756-4.0875q-2.0383-1.267-3.3053 0.77126l-2.8891 4.6477q-1.267 2.0383 0.77126 3.3053l6.5756 4.0875q2.0383 1.267 3.3053-0.77126z" clip-path="url(#a)" fill="#fff" stroke="#fff"/>
<g clip-path="url(#a)">
<g transform="translate(1221.4 514.9) rotate(-58.134) scale(.08 -.08)">
<use xlink:href="#q"/>
</g>
</g>
<path d="m1268.8 514.39 0.042817-5.8548q0.017551-2.3999-2.3824-2.4175l-7.7423-0.056621q-2.3999-0.017551-2.4175 2.3824l-0.042817 5.8548q-0.017551 2.3999 2.3824 2.4175l7.7423 0.05662q2.3999 0.017551 2.4175-2.3824z" clip-path="url(#a)" fill="#fff" stroke="#fff"/>
<g clip-path="url(#a)">
<g transform="translate(1264.7 514.36) rotate(-89.581) scale(.08 -.08)">
<use xlink:href="#p"/>
</g>
</g>
<path d="m1298.8 512.27 3.1171 4.9563q1.2777 2.0316 3.3093 0.75387l6.554-4.122q2.0316-1.2777 0.75387-3.3093l-3.1171-4.9563q-1.2777-2.0316-3.3093-0.75387l-6.554 4.122q-2.0316 1.2777-0.75387 3.3093z" clip-path="url(#a)" fill="#fff" stroke="#fff"/>
<g clip-path="url(#a)">
<g transform="translate(1302.2 510.11) rotate(57.833) scale(.08 -.08)">
<use xlink:href="#p"/>
</g>
</g>
<path d="m1172.6 629.03v33.808q0 2.4 2.4 2.4h7.7425q2.4 0 2.4-2.4v-33.808q0-2.4-2.4-2.4h-7.7425q-2.4 0-2.4 2.4z" clip-path="url(#a)" fill="#fff" stroke="#fff"/>
<g clip-path="url(#a)">
<g transform="translate(1176.6 629.03) rotate(90) scale(.08 -.08)">
<use xlink:href="#k"/>
<use x="44.083984" xlink:href="#c"/>
<use x="105.607422" xlink:href="#i"/>
<use x="144.970703" xlink:href="#l"/>
<use x="242.382812" xlink:href="#g"/>
<use x="270.166016" xlink:href="#f"/>
<use x="333.544922" xlink:href="#h"/>
<use x="394.824219" xlink:href="#j"/>
</g>
</g>
<path d="m156.28 629.03v33.808q0 2.4 2.4 2.4h7.7425q2.4 0 2.4-2.4v-33.808q0-2.4-2.4-2.4h-7.7425q-2.4 0-2.4 2.4z" clip-path="url(#a)" fill="#fff" stroke="#fff"/>
<g clip-path="url(#a)">
<g transform="translate(160.34 629.03) rotate(90) scale(.08 -.08)">
<use xlink:href="#k"/>
<use x="44.083984" xlink:href="#c"/>
<use x="105.607422" xlink:href="#i"/>
<use x="144.970703" xlink:href="#l"/>
<use x="242.382812" xlink:href="#g"/>
<use x="270.166016" xlink:href="#f"/>
<use x="333.544922" xlink:href="#h"/>
<use x="394.824219" xlink:href="#j"/>
</g>
</g>
<path d="m183.02 629.03v33.808q0 2.4 2.4 2.4h7.7425q2.4 0 2.4-2.4v-33.808q0-2.4-2.4-2.4h-7.7425q-2.4 0-2.4 2.4z" clip-path="url(#a)" fill="#fff" stroke="#fff"/>
<g clip-path="url(#a)">
<g transform="translate(187.09 629.03) rotate(90) scale(.08 -.08)">
<use xlink:href="#k"/>
<use x="44.083984" xlink:href="#c"/>
<use x="105.607422" xlink:href="#i"/>
<use x="144.970703" xlink:href="#l"/>
<use x="242.382812" xlink:href="#g"/>
<use x="270.166016" xlink:href="#f"/>
<use x="333.544922" xlink:href="#h"/>
<use x="394.824219" xlink:href="#j"/>
</g>
</g>
<path d="m440.39 382.28 4.4002-3.2536q1.9298-1.4269 0.50286-3.3567l-4.6032-6.2255q-1.4269-1.9298-3.3567-0.50286l-4.4002 3.2536q-1.9298 1.4269-0.50286 3.3567l4.6032 6.2255q1.4269 1.9298 3.3567 0.50286z" clip-path="url(#a)" fill="#fff" stroke="#fff"/>
<g clip-path="url(#a)">
<g transform="translate(437.98 379.01) rotate(-36.48) scale(.08 -.08)">
<use xlink:href="#q"/>
</g>
</g>
<path d="m529.68 446.21 0.27557-5.0713q0.13022-2.3965-2.2662-2.5267l-7.7311-0.42011q-2.3965-0.13022-2.5267 2.2662l-0.27557 5.0713q-0.13022 2.3965 2.2662 2.5267l7.7311 0.42011q2.3965 0.13022 2.5267-2.2662z" clip-path="url(#a)" fill="#fff" stroke="#fff"/>
<g clip-path="url(#a)">
<defs>
<path id="ar" d="m53.516 70.516v-9.625q-5.6094 2.6875-10.594 4-4.9844 1.3281-9.625 1.3281-8.0469 0-12.422-3.125t-4.375-8.8906q0-4.8438 2.9062-7.3125 2.9062-2.4531 11.016-3.9688l5.9531-1.2188q11.031-2.1094 16.281-7.4062t5.25-14.172q0-10.609-7.1094-16.078-7.0938-5.4688-20.812-5.4688-5.1719 0-11.016 1.1719-5.8281 1.1719-12.078 3.4688v10.156q6-3.3594 11.766-5.0781 5.7656-1.7031 11.328-1.7031 8.4375 0 13.031 3.3125 4.5938 3.3281 4.5938 9.4844 0 5.3594-3.2969 8.3906t-10.812 4.5469l-6.0156 1.1719q-11.031 2.1875-15.969 6.875-4.9219 4.6875-4.9219 13.047 0 9.6719 6.8125 15.234t18.766 5.5625q5.1406 0 10.453-0.9375 5.3281-0.92188 10.891-2.7656z"/>
</defs>
<g transform="translate(525.62 445.99) rotate(-86.89) scale(.08 -.08)">
<use xlink:href="#ar"/>
</g>
</g>
<path d="m513.62 447.42 1.0278-6.0737q0.40044-2.3664-1.9659-2.7668l-7.634-1.2918q-2.3664-0.40044-2.7668 1.9659l-1.0278 6.0737q-0.40044 2.3664 1.9659 2.7668l7.634 1.2918q2.3664 0.40044 2.7668-1.9659z" clip-path="url(#a)" fill="#fff" stroke="#fff"/>
<g clip-path="url(#a)">
<g transform="translate(509.62 446.74) rotate(-80.395) scale(.08 -.08)">
<use xlink:href="#v"/>
</g>
</g>
<path d="m540.73 441.03 0.73825 6.1156q0.28763 2.3827 2.6703 2.0951l7.6867-0.9279q2.3827-0.28763 2.0951-2.6703l-0.73825-6.1156q-0.28763-2.3827-2.6703-2.0951l-7.6867 0.9279q-2.3827 0.28763-2.0951 2.6703z" clip-path="url(#a)" fill="#fff" stroke="#fff"/>
<g clip-path="url(#a)">
<g transform="translate(544.77 440.54) rotate(83.117) scale(.08 -.08)">
<use xlink:href="#v"/>
</g>
</g>
<path d="m631.28 379.41 4.6051 2.9566q2.0196 1.2966 3.3162-0.72296l4.183-6.5153q1.2966-2.0196-0.72296-3.3162l-4.6051-2.9566q-2.0196-1.2966-3.3162 0.72296l-4.183 6.5153q-1.2966 2.0196 0.72296 3.3162z" clip-path="url(#a)" fill="#fff" stroke="#fff"/>
<g clip-path="url(#a)">
<g transform="translate(633.48 375.99) rotate(32.702) scale(.08 -.08)">
<use xlink:href="#q"/>
</g>
</g>
<path d="m342.21 514.86 0.76733-4.9964q0.36431-2.3722-2.0079-2.7365l-7.6528-1.1753q-2.3722-0.36431-2.7365 2.0079l-0.76733 4.9964q-0.36431 2.3722 2.0079 2.7365l7.6528 1.1753q2.3722 0.36431 2.7365-2.0079z" clip-path="url(#a)" fill="#fff" stroke="#fff"/>
<g clip-path="url(#a)">
<defs>
<path id="ac" d="m9.8125 72.906h46.094v-8.3125h-36.234v-21.578h34.719v-8.2969h-34.719v-26.422h37.109v-8.2969h-46.969z"/>
</defs>
<g transform="translate(338.19 514.25) rotate(-81.269) scale(.08 -.08)">
<use xlink:href="#ac"/>
</g>
</g>
<path d="m350.57 509.6 0.84797 5.5215q0.36431 2.3722 2.7365 2.0079l7.6528-1.1753q2.3722-0.36431 2.0079-2.7365l-0.84797-5.5215q-0.36431-2.3722-2.7365-2.0079l-7.6528 1.1753q-2.3722 0.36431-2.0079 2.7365z" clip-path="url(#a)" fill="#fff" stroke="#fff"/>
<g clip-path="url(#a)">
<defs>
<path id="w" d="m64.406 67.281v-10.391q-4.9844 4.6406-10.625 6.9219-5.6406 2.2969-11.984 2.2969-12.5 0-19.141-7.6406t-6.6406-22.094q0-14.406 6.6406-22.047t19.141-7.6406q6.3438 0 11.984 2.2969t10.625 6.9375v-10.312q-5.1719-3.5156-10.969-5.2812-5.7812-1.75-12.219-1.75-16.562 0-26.094 10.125-9.5156 10.141-9.5156 27.672 0 17.578 9.5156 27.703 9.5312 10.141 26.094 10.141 6.5312 0 12.312-1.7344 5.7969-1.7344 10.875-5.2031z"/>
</defs>
<g transform="translate(354.59 508.99) rotate(81.269) scale(.08 -.08)">
<use xlink:href="#w"/>
</g>
</g>
<path d="m458.74 663.12 20.769-26.676q1.4744-1.8937-0.41935-3.3681l-6.1092-4.7564q-1.8937-1.4744-3.3681 0.41935l-20.769 26.676q-1.4744 1.8937 0.41935 3.3681l6.1092 4.7564q1.8937 1.4744 3.3681-0.41935z" clip-path="url(#a)" fill="#fff" stroke="#fff"/>
<g clip-path="url(#a)">
<g transform="translate(455.53 660.63) rotate(-52.097) scale(.08 -.08)">
<use xlink:href="#k"/>
<use x="44.083984" xlink:href="#c"/>
<use x="105.607422" xlink:href="#i"/>
<use x="144.970703" xlink:href="#l"/>
<use x="242.382812" xlink:href="#g"/>
<use x="270.166016" xlink:href="#f"/>
<use x="333.544922" xlink:href="#h"/>
<use x="394.824219" xlink:href="#j"/>
</g>
</g>
<path d="m552.85 636.45 20.769 26.676q1.4744 1.8937 3.3681 0.41935l6.1092-4.7564q1.8937-1.4744 0.41935-3.3681l-20.769-26.676q-1.4744-1.8937-3.3681-0.41935l-6.1092 4.7564q-1.8937 1.4744-0.41935 3.3681z" clip-path="url(#a)" fill="#fff" stroke="#fff"/>
<g clip-path="url(#a)">
<g transform="translate(556.05 633.95) rotate(52.097) scale(.08 -.08)">
<use xlink:href="#k"/>
<use x="44.083984" xlink:href="#c"/>
<use x="105.607422" xlink:href="#i"/>
<use x="144.970703" xlink:href="#l"/>
<use x="242.382812" xlink:href="#g"/>
<use x="270.166016" xlink:href="#f"/>
<use x="333.544922" xlink:href="#h"/>
<use x="394.824219" xlink:href="#j"/>
</g>
</g>
<path d="m475.37 663.71 6.281-33.219q0.44589-2.3582-1.9123-2.8041l-7.6077-1.4385q-2.3582-0.44589-2.8041 1.9123l-6.281 33.219q-0.44589 2.3582 1.9123 2.8041l7.6077 1.4385q2.3582 0.44589 2.8041-1.9123z" clip-path="url(#a)" fill="#fff" stroke="#fff"/>
<g clip-path="url(#a)">
<g transform="translate(471.37 662.95) rotate(-79.293) scale(.08 -.08)">
<use xlink:href="#k"/>
<use x="44.083984" xlink:href="#c"/>
<use x="105.607422" xlink:href="#i"/>
<use x="144.970703" xlink:href="#l"/>
<use x="242.382812" xlink:href="#g"/>
<use x="270.166016" xlink:href="#f"/>
<use x="333.544922" xlink:href="#h"/>
<use x="394.824219" xlink:href="#j"/>
</g>
</g>
<path d="m488.3 630.49 6.281 33.219q0.44589 2.3582 2.8041 1.9123l7.6077-1.4385q2.3582-0.44589 1.9123-2.8041l-6.281-33.219q-0.44589-2.3582-2.8041-1.9123l-7.6077 1.4385q-2.3582 0.44589-1.9123 2.8041z" clip-path="url(#a)" fill="#fff" stroke="#fff"/>
<g clip-path="url(#a)">
<g transform="translate(492.29 629.73) rotate(79.293) scale(.08 -.08)">
<use xlink:href="#k"/>
<use x="44.083984" xlink:href="#c"/>
<use x="105.607422" xlink:href="#i"/>
<use x="144.970703" xlink:href="#l"/>
<use x="242.382812" xlink:href="#g"/>
<use x="270.166016" xlink:href="#f"/>
<use x="333.544922" xlink:href="#h"/>
<use x="394.824219" xlink:href="#j"/>
</g>
</g>
<path d="m557.45 629.03v33.808q0 2.4 2.4 2.4h7.7425q2.4 0 2.4-2.4v-33.808q0-2.4-2.4-2.4h-7.7425q-2.4 0-2.4 2.4z" clip-path="url(#a)" fill="#fff" stroke="#fff"/>
<g clip-path="url(#a)">
<g transform="translate(561.51 629.03) rotate(90) scale(.08 -.08)">
<use xlink:href="#k"/>
<use x="44.083984" xlink:href="#c"/>
<use x="105.607422" xlink:href="#i"/>
<use x="144.970703" xlink:href="#l"/>
<use x="242.382812" xlink:href="#g"/>
<use x="270.166016" xlink:href="#f"/>
<use x="333.544922" xlink:href="#h"/>
<use x="394.824219" xlink:href="#j"/>
</g>
</g>
<path d="m715.82 516.59 2.3564-5.0346q1.0174-2.1737-1.1563-3.1911l-7.0124-3.2821q-2.1737-1.0174-3.1911 1.1563l-2.3564 5.0346q-1.0174 2.1737 1.1563 3.1911l7.0124 3.2821q2.1737 1.0174 3.1911-1.1563z" clip-path="url(#a)" fill="#fff" stroke="#fff"/>
<g clip-path="url(#a)">
<defs>
<path id="as" d="m44.391 34.188q3.1719-1.0781 6.1719-4.5938t6.0312-9.6719l10.016-19.922h-10.609l-9.3125 18.703q-3.625 7.3281-7.0156 9.7188t-9.25 2.3906h-10.75v-30.812h-9.8594v72.906h22.266q12.5 0 18.656-5.2344 6.1562-5.2188 6.1562-15.766 0-6.8906-3.2031-11.438-3.2031-4.5312-9.2969-6.2812zm-24.719 30.609v-25.875h12.406q7.125 0 10.766 3.2969t3.6406 9.6875-3.6406 9.6406-10.766 3.25z"/>
</defs>
<g transform="translate(712.14 514.87) rotate(-64.919) scale(.08 -.08)">
<use xlink:href="#as"/>
</g>
</g>
<path d="m748.77 513.99 0.036966-5.0549q0.017551-2.3999-2.3824-2.4175l-7.7423-0.05662q-2.3999-0.017551-2.4175 2.3824l-0.036967 5.0549q-0.017551 2.3999 2.3824 2.4175l7.7423 0.056621q2.3999 0.017551 2.4175-2.3824z" clip-path="url(#a)" fill="#fff" stroke="#fff"/>
<g clip-path="url(#a)">
<g transform="translate(744.71 513.96) rotate(-89.581) scale(.08 -.08)">
<use xlink:href="#ac"/>
</g>
</g>
<path d="m768.34 511.58 2.3983 5.0452q1.0304 2.1676 3.1979 1.1372l6.9927-3.324q2.1676-1.0304 1.1372-3.1979l-2.3983-5.0452q-1.0304-2.1676-3.1979-1.1372l-6.9927 3.324q-2.1676 1.0304-1.1372 3.1979z" clip-path="url(#a)" fill="#fff" stroke="#fff"/>
<g clip-path="url(#a)">
<g transform="translate(772.01 509.84) rotate(64.576) scale(.08 -.08)">
<use xlink:href="#w"/>
</g>
</g>
<path d="m673.35 629.03v33.808q0 2.4 2.4 2.4h7.7425q2.4 0 2.4-2.4v-33.808q0-2.4-2.4-2.4h-7.7425q-2.4 0-2.4 2.4z" clip-path="url(#a)" fill="#fff" stroke="#fff"/>
<g clip-path="url(#a)">
<g transform="translate(677.41 629.03) rotate(90) scale(.08 -.08)">
<use xlink:href="#k"/>
<use x="44.083984" xlink:href="#c"/>
<use x="105.607422" xlink:href="#i"/>
<use x="144.970703" xlink:href="#l"/>
<use x="242.382812" xlink:href="#g"/>
<use x="270.166016" xlink:href="#f"/>
<use x="333.544922" xlink:href="#h"/>
<use x="394.824219" xlink:href="#j"/>
</g>
</g>
<path d="m735.75 629.03v33.808q0 2.4 2.4 2.4h7.7425q2.4 0 2.4-2.4v-33.808q0-2.4-2.4-2.4h-7.7425q-2.4 0-2.4 2.4z" clip-path="url(#a)" fill="#fff" stroke="#fff"/>
<g clip-path="url(#a)">
<g transform="translate(739.81 629.03) rotate(90) scale(.08 -.08)">
<use xlink:href="#k"/>
<use x="44.083984" xlink:href="#c"/>
<use x="105.607422" xlink:href="#i"/>
<use x="144.970703" xlink:href="#l"/>
<use x="242.382812" xlink:href="#g"/>
<use x="270.166016" xlink:href="#f"/>
<use x="333.544922" xlink:href="#h"/>
<use x="394.824219" xlink:href="#j"/>
</g>
</g>
<path d="m801.13 629.03v33.808q0 2.4 2.4 2.4h7.7425q2.4 0 2.4-2.4v-33.808q0-2.4-2.4-2.4h-7.7425q-2.4 0-2.4 2.4z" clip-path="url(#a)" fill="#fff" stroke="#fff"/>
<g clip-path="url(#a)">
<g transform="translate(805.19 629.03) rotate(90) scale(.08 -.08)">
<use xlink:href="#k"/>
<use x="44.083984" xlink:href="#c"/>
<use x="105.607422" xlink:href="#i"/>
<use x="144.970703" xlink:href="#l"/>
<use x="242.382812" xlink:href="#g"/>
<use x="270.166016" xlink:href="#f"/>
<use x="333.544922" xlink:href="#h"/>
<use x="394.824219" xlink:href="#j"/>
</g>
</g>
<path d="m319.72 629.03v33.808q0 2.4 2.4 2.4h7.7425q2.4 0 2.4-2.4v-33.808q0-2.4-2.4-2.4h-7.7425q-2.4 0-2.4 2.4z" clip-path="url(#a)" fill="#fff" stroke="#fff"/>
<g clip-path="url(#a)">
<g transform="translate(323.78 629.03) rotate(90) scale(.08 -.08)">
<use xlink:href="#k"/>
<use x="44.083984" xlink:href="#c"/>
<use x="105.607422" xlink:href="#i"/>
<use x="144.970703" xlink:href="#l"/>
<use x="242.382812" xlink:href="#g"/>
<use x="270.166016" xlink:href="#f"/>
<use x="333.544922" xlink:href="#h"/>
<use x="394.824219" xlink:href="#j"/>
</g>
</g>
<path d="m361.32 629.03v33.808q0 2.4 2.4 2.4h7.7425q2.4 0 2.4-2.4v-33.808q0-2.4-2.4-2.4h-7.7425q-2.4 0-2.4 2.4z" clip-path="url(#a)" fill="#fff" stroke="#fff"/>
<g clip-path="url(#a)">
<g transform="translate(365.39 629.03) rotate(90) scale(.08 -.08)">
<use xlink:href="#k"/>
<use x="44.083984" xlink:href="#c"/>
<use x="105.607422" xlink:href="#i"/>
<use x="144.970703" xlink:href="#l"/>
<use x="242.382812" xlink:href="#g"/>
<use x="270.166016" xlink:href="#f"/>
<use x="333.544922" xlink:href="#h"/>
<use x="394.824219" xlink:href="#j"/>
</g>
</g>
<path d="m75.524 514.16 0.3356-4.589q0.17505-2.3936-2.2186-2.5687l-7.7219-0.56471q-2.3936-0.17505-2.5687 2.2186l-0.3356 4.589q-0.17505 2.3936 2.2186 2.5687l7.7219 0.56471q2.3936 0.17505 2.5687-2.2186z" clip-path="url(#a)" fill="#fff" stroke="#fff"/>
<g clip-path="url(#a)">
<defs>
<path id="av" d="m9.8125 72.906h41.891v-8.3125h-32.031v-21.484h28.906v-8.2969h-28.906v-34.812h-9.8594z"/>
</defs>
<g transform="translate(71.471 513.87) rotate(-85.817) scale(.08 -.08)">
<use xlink:href="#av"/>
</g>
</g>
<path d="m80.148 513.99 0.036967-5.0549q0.017551-2.3999-2.3824-2.4175l-7.7423-0.05662q-2.3999-0.017551-2.4175 2.3824l-0.036967 5.0549q-0.017551 2.3999 2.3824 2.4175l7.7423 0.056621q2.3999 0.017551 2.4175-2.3824z" clip-path="url(#a)" fill="#fff" stroke="#fff"/>
<g clip-path="url(#a)">
<g transform="translate(76.084 513.96) rotate(-89.581) scale(.08 -.08)">
<use xlink:href="#ac"/>
</g>
</g>
<path d="m73.363 509.13 0.44794 5.5683q0.19244 2.3923 2.5847 2.1998l7.7176-0.62083q2.3923-0.19244 2.1998-2.5847l-0.44794-5.5683q-0.19244-2.3923-2.5847-2.1998l-7.7176 0.62083q-2.3923 0.19244-2.1998 2.5847z" clip-path="url(#a)" fill="#fff" stroke="#fff"/>
<g clip-path="url(#a)">
<g transform="translate(77.414 508.81) rotate(85.401) scale(.08 -.08)">
<use xlink:href="#w"/>
</g>
</g>
<path d="m93.873 629.03v33.808q0 2.4 2.4 2.4h7.7425q2.4 0 2.4-2.4v-33.808q0-2.4-2.4-2.4h-7.7425q-2.4 0-2.4 2.4z" clip-path="url(#a)" fill="#fff" stroke="#fff"/>
<g clip-path="url(#a)">
<g transform="translate(97.937 629.03) rotate(90) scale(.08 -.08)">
<use xlink:href="#k"/>
<use x="44.083984" xlink:href="#c"/>
<use x="105.607422" xlink:href="#i"/>
<use x="144.970703" xlink:href="#l"/>
<use x="242.382812" xlink:href="#g"/>
<use x="270.166016" xlink:href="#f"/>
<use x="333.544922" xlink:href="#h"/>
<use x="394.824219" xlink:href="#j"/>
</g>
</g>
<path d="m111.7 629.03v33.808q0 2.4 2.4 2.4h7.7425q2.4 0 2.4-2.4v-33.808q0-2.4-2.4-2.4h-7.7425q-2.4 0-2.4 2.4z" clip-path="url(#a)" fill="#fff" stroke="#fff"/>
<g clip-path="url(#a)">
<g transform="translate(115.77 629.03) rotate(90) scale(.08 -.08)">
<use xlink:href="#k"/>
<use x="44.083984" xlink:href="#c"/>
<use x="105.607422" xlink:href="#i"/>
<use x="144.970703" xlink:href="#l"/>
<use x="242.382812" xlink:href="#g"/>
<use x="270.166016" xlink:href="#f"/>
<use x="333.544922" xlink:href="#h"/>
<use x="394.824219" xlink:href="#j"/>
</g>
</g>
<path d="m58.214 629.03v33.808q0 2.4 2.4 2.4h7.7425q2.4 0 2.4-2.4v-33.808q0-2.4-2.4-2.4h-7.7425q-2.4 0-2.4 2.4z" clip-path="url(#a)" fill="#fff" stroke="#fff"/>
<g clip-path="url(#a)">
<g transform="translate(62.277 629.03) rotate(90) scale(.08 -.08)">
<use xlink:href="#k"/>
<use x="44.083984" xlink:href="#c"/>
<use x="105.607422" xlink:href="#i"/>
<use x="144.970703" xlink:href="#l"/>
<use x="242.382812" xlink:href="#g"/>
<use x="270.166016" xlink:href="#f"/>
<use x="333.544922" xlink:href="#h"/>
<use x="394.824219" xlink:href="#j"/>
</g>
</g>
<path d="m67.129 629.03v33.808q0 2.4 2.4 2.4h7.7425q2.4 0 2.4-2.4v-33.808q0-2.4-2.4-2.4h-7.7425q-2.4 0-2.4 2.4z" clip-path="url(#a)" fill="#fff" stroke="#fff"/>
<g clip-path="url(#a)">
<g transform="translate(71.192 629.03) rotate(90) scale(.08 -.08)">
<use xlink:href="#k"/>
<use x="44.083984" xlink:href="#c"/>
<use x="105.607422" xlink:href="#i"/>
<use x="144.970703" xlink:href="#l"/>
<use x="242.382812" xlink:href="#g"/>
<use x="270.166016" xlink:href="#f"/>
<use x="333.544922" xlink:href="#h"/>
<use x="394.824219" xlink:href="#j"/>
</g>
</g>
<path d="m79.015 629.03v33.808q0 2.4 2.4 2.4h7.7425q2.4 0 2.4-2.4v-33.808q0-2.4-2.4-2.4h-7.7425q-2.4 0-2.4 2.4z" clip-path="url(#a)" fill="#fff" stroke="#fff"/>
<g clip-path="url(#a)">
<g transform="translate(83.079 629.03) rotate(90) scale(.08 -.08)">
<use xlink:href="#k"/>
<use x="44.083984" xlink:href="#c"/>
<use x="105.607422" xlink:href="#i"/>
<use x="144.970703" xlink:href="#l"/>
<use x="242.382812" xlink:href="#g"/>
<use x="270.166016" xlink:href="#f"/>
<use x="333.544922" xlink:href="#h"/>
<use x="394.824219" xlink:href="#j"/>
</g>
</g>
<path d="m212.74 629.03v33.808q0 2.4 2.4 2.4h7.7425q2.4 0 2.4-2.4v-33.808q0-2.4-2.4-2.4h-7.7425q-2.4 0-2.4 2.4z" clip-path="url(#a)" fill="#fff" stroke="#fff"/>
<g clip-path="url(#a)">
<g transform="translate(216.8 629.03) rotate(90) scale(.08 -.08)">
<use xlink:href="#k"/>
<use x="44.083984" xlink:href="#c"/>
<use x="105.607422" xlink:href="#i"/>
<use x="144.970703" xlink:href="#l"/>
<use x="242.382812" xlink:href="#g"/>
<use x="270.166016" xlink:href="#f"/>
<use x="333.544922" xlink:href="#h"/>
<use x="394.824219" xlink:href="#j"/>
</g>
</g>
<path d="m245.43 629.03v33.808q0 2.4 2.4 2.4h7.7425q2.4 0 2.4-2.4v-33.808q0-2.4-2.4-2.4h-7.7425q-2.4 0-2.4 2.4z" clip-path="url(#a)" fill="#fff" stroke="#fff"/>
<g clip-path="url(#a)">
<g transform="translate(249.49 629.03) rotate(90) scale(.08 -.08)">
<use xlink:href="#k"/>
<use x="44.083984" xlink:href="#c"/>
<use x="105.607422" xlink:href="#i"/>
<use x="144.970703" xlink:href="#l"/>
<use x="242.382812" xlink:href="#g"/>
<use x="270.166016" xlink:href="#f"/>
<use x="333.544922" xlink:href="#h"/>
<use x="394.824219" xlink:href="#j"/>
</g>
</g>
<path d="m281.09 629.03v33.808q0 2.4 2.4 2.4h7.7425q2.4 0 2.4-2.4v-33.808q0-2.4-2.4-2.4h-7.7425q-2.4 0-2.4 2.4z" clip-path="url(#a)" fill="#fff" stroke="#fff"/>
<g clip-path="url(#a)">
<g transform="translate(285.15 629.03) rotate(90) scale(.08 -.08)">
<use xlink:href="#k"/>
<use x="44.083984" xlink:href="#c"/>
<use x="105.607422" xlink:href="#i"/>
<use x="144.970703" xlink:href="#l"/>
<use x="242.382812" xlink:href="#g"/>
<use x="270.166016" xlink:href="#f"/>
<use x="333.544922" xlink:href="#h"/>
<use x="394.824219" xlink:href="#j"/>
</g>
</g>
<path d="m869.47 629.03v33.808q0 2.4 2.4 2.4h7.7425q2.4 0 2.4-2.4v-33.808q0-2.4-2.4-2.4h-7.7425q-2.4 0-2.4 2.4z" clip-path="url(#a)" fill="#fff" stroke="#fff"/>
<g clip-path="url(#a)">
<g transform="translate(873.54 629.03) rotate(90) scale(.08 -.08)">
<use xlink:href="#k"/>
<use x="44.083984" xlink:href="#c"/>
<use x="105.607422" xlink:href="#i"/>
<use x="144.970703" xlink:href="#l"/>
<use x="242.382812" xlink:href="#g"/>
<use x="270.166016" xlink:href="#f"/>
<use x="333.544922" xlink:href="#h"/>
<use x="394.824219" xlink:href="#j"/>
</g>
</g>
<path d="m940.79 629.03v33.808q0 2.4 2.4 2.4h7.7425q2.4 0 2.4-2.4v-33.808q0-2.4-2.4-2.4h-7.7425q-2.4 0-2.4 2.4z" clip-path="url(#a)" fill="#fff" stroke="#fff"/>
<g clip-path="url(#a)">
<g transform="translate(944.86 629.03) rotate(90) scale(.08 -.08)">
<use xlink:href="#k"/>
<use x="44.083984" xlink:href="#c"/>
<use x="105.607422" xlink:href="#i"/>
<use x="144.970703" xlink:href="#l"/>
<use x="242.382812" xlink:href="#g"/>
<use x="270.166016" xlink:href="#f"/>
<use x="333.544922" xlink:href="#h"/>
<use x="394.824219" xlink:href="#j"/>
</g>
</g>
<path d="m1015.1 629.03v33.808q0 2.4 2.4 2.4h7.7425q2.4 0 2.4-2.4v-33.808q0-2.4-2.4-2.4h-7.7425q-2.4 0-2.4 2.4z" clip-path="url(#a)" fill="#fff" stroke="#fff"/>
<g clip-path="url(#a)">
<g transform="translate(1019.1 629.03) rotate(90) scale(.08 -.08)">
<use xlink:href="#k"/>
<use x="44.083984" xlink:href="#c"/>
<use x="105.607422" xlink:href="#i"/>
<use x="144.970703" xlink:href="#l"/>
<use x="242.382812" xlink:href="#g"/>
<use x="270.166016" xlink:href="#f"/>
<use x="333.544922" xlink:href="#h"/>
<use x="394.824219" xlink:href="#j"/>
</g>
</g>
<path d="m1092.3 629.03v33.808q0 2.4 2.4 2.4h7.7425q2.4 0 2.4-2.4v-33.808q0-2.4-2.4-2.4h-7.7425q-2.4 0-2.4 2.4z" clip-path="url(#a)" fill="#fff" stroke="#fff"/>
<g clip-path="url(#a)">
<g transform="translate(1096.4 629.03) rotate(90) scale(.08 -.08)">
<use xlink:href="#k"/>
<use x="44.083984" xlink:href="#c"/>
<use x="105.607422" xlink:href="#i"/>
<use x="144.970703" xlink:href="#l"/>
<use x="242.382812" xlink:href="#g"/>
<use x="270.166016" xlink:href="#f"/>
<use x="333.544922" xlink:href="#h"/>
<use x="394.824219" xlink:href="#j"/>
</g>
</g>
<path d="m1255.8 629.03v33.808q0 2.4 2.4 2.4h7.7425q2.4 0 2.4-2.4v-33.808q0-2.4-2.4-2.4h-7.7425q-2.4 0-2.4 2.4z" clip-path="url(#a)" fill="#fff" stroke="#fff"/>
<g clip-path="url(#a)">
<g transform="translate(1259.9 629.03) rotate(90) scale(.08 -.08)">
<use xlink:href="#k"/>
<use x="44.083984" xlink:href="#c"/>
<use x="105.607422" xlink:href="#i"/>
<use x="144.970703" xlink:href="#l"/>
<use x="242.382812" xlink:href="#g"/>
<use x="270.166016" xlink:href="#f"/>
<use x="333.544922" xlink:href="#h"/>
<use x="394.824219" xlink:href="#j"/>
</g>
</g>
<path d="m1342 629.03v33.808q0 2.4 2.4 2.4h7.7425q2.4 0 2.4-2.4v-33.808q0-2.4-2.4-2.4h-7.7425q-2.4 0-2.4 2.4z" clip-path="url(#a)" fill="#fff" stroke="#fff"/>
<g clip-path="url(#a)">
<g transform="translate(1346 629.03) rotate(90) scale(.08 -.08)">
<use xlink:href="#k"/>
<use x="44.083984" xlink:href="#c"/>
<use x="105.607422" xlink:href="#i"/>
<use x="144.970703" xlink:href="#l"/>
<use x="242.382812" xlink:href="#g"/>
<use x="270.166016" xlink:href="#f"/>
<use x="333.544922" xlink:href="#h"/>
<use x="394.824219" xlink:href="#j"/>
</g>
</g>
<defs>
<path id="b" d="m0 8.6603c2.2967 0 4.4997-0.9125 6.1237-2.5365 1.624-1.624 2.5365-3.827 2.5365-6.1237s-0.9125-4.4997-2.5365-6.1237c-1.624-1.624-3.827-2.5365-6.1237-2.5365s-4.4997 0.9125-6.1237 2.5365c-1.624 1.624-2.5365 3.827-2.5365 6.1237s0.9125 4.4997 2.5365 6.1237c1.624 1.624 3.827 2.5365 6.1237 2.5365z"/>
</defs>
<g clip-path="url(#a)" fill="#ffffff" stroke="#ffffff">
<use x="64.484848" y="712.727273" xlink:href="#b"/>
<use x="73.399804" y="712.727273" xlink:href="#b"/>
<use x="85.286413" y="712.727273" xlink:href="#b"/>
<use x="100.144673" y="712.727273" xlink:href="#b"/>
<use x="117.974585" y="712.727273" xlink:href="#b"/>
<use x="138.776149" y="712.727273" xlink:href="#b"/>
<use x="162.549365" y="712.727273" xlink:href="#b"/>
<use x="189.294233" y="712.727273" xlink:href="#b"/>
<use x="219.010753" y="712.727273" xlink:href="#b"/>
<use x="251.698925" y="712.727273" xlink:href="#b"/>
<use x="287.358749" y="712.727273" xlink:href="#b"/>
<use x="325.990225" y="712.727273" xlink:href="#b"/>
<use x="367.593353" y="712.727273" xlink:href="#b"/>
<use x="412.168133" y="712.727273" xlink:href="#b"/>
<use x="459.714565" y="712.727273" xlink:href="#b"/>
<use x="510.232649" y="712.727273" xlink:href="#b"/>
<use x="563.722385" y="712.727273" xlink:href="#b"/>
<use x="620.183773" y="712.727273" xlink:href="#b"/>
<use x="679.616813" y="712.727273" xlink:href="#b"/>
<use x="742.021505" y="712.727273" xlink:href="#b"/>
<use x="807.397849" y="712.727273" xlink:href="#b"/>
<use x="875.745846" y="712.727273" xlink:href="#b"/>
<use x="947.065494" y="712.727273" xlink:href="#b"/>
<use x="1021.356794" y="712.727273" xlink:href="#b"/>
<use x="1098.619746" y="712.727273" xlink:href="#b"/>
<use x="1178.85435" y="712.727273" xlink:href="#b"/>
<use x="1262.060606" y="712.727273" xlink:href="#b"/>
<use x="1348.238514" y="712.727273" xlink:href="#b"/>
<use x="1354.181818" y="579.137142" xlink:href="#b"/>
<use x="1354.181818" y="579.137142" xlink:href="#b"/>
<use x="711.088613" y="33.939394" xlink:href="#b"/>
<use x="97.503204" y="307.529694" xlink:href="#b"/>
<use x="138.776149" y="579.137142" xlink:href="#b"/>
<use x="246.590513" y="170.907356" xlink:href="#b"/>
<use x="1263.051157" y="443.688626" xlink:href="#b"/>
<use x="1178.85435" y="579.137142" xlink:href="#b"/>
<use x="162.549365" y="579.137142" xlink:href="#b"/>
<use x="189.294233" y="579.137142" xlink:href="#b"/>
<use x="530.935158" y="307.529694" xlink:href="#b"/>
<use x="346.791789" y="443.688626" xlink:href="#b"/>
<use x="516.175953" y="579.137142" xlink:href="#b"/>
<use x="484.973607" y="579.137142" xlink:href="#b"/>
<use x="563.722385" y="579.137142" xlink:href="#b"/>
<use x="743.012056" y="443.688626" xlink:href="#b"/>
<use x="679.616813" y="579.137142" xlink:href="#b"/>
<use x="742.021505" y="579.137142" xlink:href="#b"/>
<use x="807.397849" y="579.137142" xlink:href="#b"/>
<use x="325.990225" y="579.137142" xlink:href="#b"/>
<use x="367.593353" y="579.137142" xlink:href="#b"/>
<use x="74.390355" y="443.688626" xlink:href="#b"/>
<use x="100.144673" y="579.137142" xlink:href="#b"/>
<use x="117.974585" y="579.137142" xlink:href="#b"/>
<use x="64.484848" y="579.137142" xlink:href="#b"/>
<use x="73.399804" y="579.137142" xlink:href="#b"/>
<use x="85.286413" y="579.137142" xlink:href="#b"/>
<use x="219.010753" y="579.137142" xlink:href="#b"/>
<use x="251.698925" y="579.137142" xlink:href="#b"/>
<use x="287.358749" y="579.137142" xlink:href="#b"/>
<use x="875.745846" y="579.137142" xlink:href="#b"/>
<use x="947.065494" y="579.137142" xlink:href="#b"/>
<use x="1021.356794" y="579.137142" xlink:href="#b"/>
<use x="1098.619746" y="579.137142" xlink:href="#b"/>
<use x="1262.060606" y="579.137142" xlink:href="#b"/>
<use x="1348.238514" y="579.137142" xlink:href="#b"/>
</g>
<g clip-path="url(#a)">
<g transform="translate(55.503 715.49) scale(.1 -.1)">
<use xlink:href="#v"/>
<use x="77.001953" xlink:href="#c"/>
<use x="138.525391" xlink:href="#i"/>
</g>
</g>
<g clip-path="url(#a)">
<defs>
<path id="ap" d="m9.0781 75.984h9.0312v-44.875l26.812 23.578h11.469l-29-25.578 30.234-29.109h-11.719l-27.797 26.703v-26.703h-9.0312z"/>
</defs>
<g transform="translate(58.404 715.49) scale(.1 -.1)">
<use xlink:href="#ap"/>
<use x="57.910156" xlink:href="#j"/>
<use x="85.693359" xlink:href="#c"/>
<use x="147.216797" xlink:href="#g"/>
<use x="175" xlink:href="#f"/>
<use x="238.378906" xlink:href="#c"/>
</g>
</g>
<g clip-path="url(#a)">
<defs>
<path id="ba" d="m5.5156 54.688h42.672v-8.2031l-33.781-39.312h33.781v-7.1719h-43.891v8.2031l33.797 39.312h-32.578z"/>
</defs>
<g transform="translate(73.122 715.49) scale(.1 -.1)">
<use xlink:href="#s"/>
<use x="58.552734" xlink:href="#i"/>
<use x="99.666016" xlink:href="#g"/>
<use x="127.449219" xlink:href="#f"/>
<use x="190.828125" xlink:href="#ba"/>
</g>
</g>
<g clip-path="url(#a)">
<defs>
<path id="r" d="m44.281 53.078v-8.5q-3.7969 1.9531-7.9062 2.9219-4.0938 0.98438-8.5 0.98438-6.6875 0-10.031-2.0469t-3.3438-6.1562q0-3.125 2.3906-4.9062t9.625-3.3906l3.0781-0.6875q9.5625-2.0469 13.594-5.7812t4.0312-10.422q0-7.625-6.0312-12.078-6.0312-4.4375-16.578-4.4375-4.3906 0-9.1562 0.85938t-10.031 2.5625v9.2812q4.9844-2.5938 9.8125-3.8906 4.8281-1.2812 9.5781-1.2812 6.3438 0 9.75 2.1719 3.4219 2.1719 3.4219 6.125 0 3.6562-2.4688 5.6094-2.4531 1.9531-10.812 3.7656l-3.125 0.73438q-8.3438 1.75-12.062 5.3906-3.7031 3.6406-3.7031 9.9844 0 7.7188 5.4688 11.906 5.4688 4.2031 15.531 4.2031 4.9688 0 9.3594-0.73438 4.4062-0.71875 8.1094-2.1875z"/>
<path id="u" d="m54.891 33.016v-33.016h-8.9844v32.719q0 7.7656-3.0312 11.609-3.0312 3.8594-9.0781 3.8594-7.2812 0-11.484-4.6406-4.2031-4.625-4.2031-12.641v-30.906h-9.0312v75.984h9.0312v-29.797q3.2344 4.9375 7.5938 7.375 4.375 2.4375 10.094 2.4375 9.4219 0 14.25-5.8281 4.8438-5.8281 4.8438-17.156z"/>
</defs>
<g transform="translate(91.307 715.49) scale(.1 -.1)">
<use xlink:href="#r"/>
<use x="52.099609" xlink:href="#h"/>
<use x="113.378906" xlink:href="#u"/>
</g>
</g>
<g clip-path="url(#a)">
<g transform="translate(110.9 715.49) scale(.1 -.1)">
<use xlink:href="#r"/>
<use x="52.099609" xlink:href="#g"/>
<use x="79.882812" xlink:href="#c"/>
</g>
</g>
<g clip-path="url(#a)">
<defs>
<path id="af" d="m8.5 21.578v33.109h8.9844v-32.766q0-7.7656 3.0156-11.656 3.0312-3.875 9.0938-3.875 7.2656 0 11.484 4.6406 4.2344 4.6406 4.2344 12.656v31h8.9844v-54.688h-8.9844v8.4062q-3.2656-4.9844-7.5938-7.4062-4.3125-2.4219-10.031-2.4219-9.4219 0-14.312 5.8594-4.875 5.8594-4.875 17.141z"/>
<path id="aq" d="m45.406 46.391v29.594h8.9844v-75.984h-8.9844v8.2031q-2.8281-4.875-7.1562-7.25-4.3125-2.375-10.375-2.375-9.9062 0-16.141 7.9062-6.2188 7.9219-6.2188 20.812t6.2188 20.797q6.2344 7.9062 16.141 7.9062 6.0625 0 10.375-2.375 4.3281-2.3594 7.1562-7.2344zm-30.609-19.094q0-9.9062 4.0781-15.547t11.203-5.6406 11.219 5.6406q4.1094 5.6406 4.1094 15.547t-4.1094 15.547q-4.0938 5.6406-11.219 5.6406t-11.203-5.6406-4.0781-15.547z"/>
</defs>
<g transform="translate(129.26 715.49) scale(.1 -.1)">
<use xlink:href="#af"/>
<use x="63.378906" xlink:href="#f"/>
<use x="126.757812" xlink:href="#aq"/>
</g>
</g>
<g clip-path="url(#a)">
<defs>
<path id="bd" d="m45.406 27.984q0 9.7656-4.0312 15.125-4.0156 5.375-11.297 5.375-7.2188 0-11.25-5.375-4.0312-5.3594-4.0312-15.125 0-9.7188 4.0312-15.094t11.25-5.375q7.2812 0 11.297 5.375 4.0312 5.375 4.0312 15.094zm8.9844-21.203q0-13.953-6.2031-20.766-6.1875-6.8125-18.984-6.8125-4.7344 0-8.9375 0.70312t-8.1562 2.1719v8.7344q3.9531-2.1406 7.8125-3.1562 3.8594-1.0312 7.8594-1.0312 8.8438 0 13.234 4.6094t4.3906 13.938v4.4531q-2.7812-4.8438-7.125-7.2344t-10.406-2.3906q-10.047 0-16.203 7.6562-6.1562 7.6719-6.1562 20.328 0 12.688 6.1562 20.344 6.1562 7.6719 16.203 7.6719 6.0625 0 10.406-2.3906t7.125-7.2188v8.2969h8.9844z"/>
<path id="ao" d="m18.312 70.219v-15.531h18.5v-6.9844h-18.5v-29.688q0-6.6875 1.8281-8.5938t7.4531-1.9062h9.2188v-7.5156h-9.2188q-10.406 0-14.359 3.875-3.9531 3.8906-3.9531 14.141v29.688h-6.5938v6.9844h6.5938v15.531z"/>
</defs>
<g transform="translate(148.67 715.49) scale(.1 -.1)">
<use xlink:href="#r"/>
<use x="52.099609" xlink:href="#h"/>
<use x="113.378906" xlink:href="#bd"/>
<use x="176.855469" xlink:href="#ao"/>
<use x="216.064453" xlink:href="#c"/>
</g>
</g>
<g clip-path="url(#a)">
<defs>
<path id="ai" d="m48.781 52.594v-8.4062q-3.8125 2.1094-7.6406 3.1562t-7.7344 1.0469q-8.75 0-13.594-5.5469-4.8281-5.5312-4.8281-15.547t4.8281-15.562q4.8438-5.5312 13.594-5.5312 3.9062 0 7.7344 1.0469t7.6406 3.1562v-8.3125q-3.7656-1.75-7.7969-2.625-4.0156-0.89062-8.5625-0.89062-12.359 0-19.641 7.7656-7.2656 7.7656-7.2656 20.953 0 13.375 7.3438 21.031 7.3594 7.6719 20.156 7.6719 4.1406 0 8.0938-0.85938 3.9531-0.84375 7.6719-2.5469z"/>
</defs>
<g transform="translate(169.5 715.49) scale(.1 -.1)">
<use xlink:href="#j"/>
<use x="27.783203" xlink:href="#h"/>
<use x="89.0625" xlink:href="#ai"/>
<use x="144.042969" xlink:href="#u"/>
<use x="207.421875" xlink:href="#c"/>
<use x="268.945312" xlink:href="#f"/>
<use x="332.324219" xlink:href="#aq"/>
</g>
</g>
<g clip-path="url(#a)">
<defs>
<path id="aw" d="m11.719 12.406h10.297v-12.406h-10.297zm0 39.297h10.297v-12.391h-10.297z"/>
</defs>
<g transform="translate(217.33 715.49) scale(.1 -.1)">
<use xlink:href="#aw"/>
</g>
</g>
<g clip-path="url(#a)">
<defs>
<path id="an" d="m4.8906 31.391h26.312v-8h-26.312z"/>
</defs>
<g transform="translate(249.9 715.49) scale(.1 -.1)">
<use xlink:href="#an"/>
</g>
</g>
<g clip-path="url(#a)">
<defs>
<path id="y" d="m17.922 72.906v-27.109h-8.2969v27.109zm18.453 0v-27.109h-8.2969v27.109z"/>
</defs>
<g transform="translate(285.06 715.49) scale(.1 -.1)">
<use xlink:href="#y"/>
</g>
</g>
<g clip-path="url(#a)">
<g transform="translate(311.43 715.49) scale(.1 -.1)">
<use xlink:href="#v"/>
<use x="77.001953" xlink:href="#c"/>
<use x="138.525391" xlink:href="#g"/>
<use x="166.308594" xlink:href="#f"/>
<use x="229.6875" xlink:href="#c"/>
</g>
</g>
<g clip-path="url(#a)">
<defs>
<path id="ah" d="m37.109 75.984v-7.4844h-8.5938q-4.8281 0-6.7188-1.9531-1.875-1.9531-1.875-7.0312v-4.8281h14.797v-6.9844h-14.797v-47.703h-9.0312v47.703h-8.5938v6.9844h8.5938v3.8125q0 9.125 4.25 13.297 4.25 4.1875 13.469 4.1875z"/>
<path id="z" d="m48.688 27.297q0 9.9062-4.0781 15.547t-11.203 5.6406q-7.1406 0-11.219-5.6406t-4.0781-15.547 4.0781-15.547 11.219-5.6406q7.125 0 11.203 5.6406t4.0781 15.547zm-30.578 19.094q2.8438 4.875 7.1562 7.2344 4.3281 2.375 10.328 2.375 9.9688 0 16.188-7.9062 6.2344-7.9062 6.2344-20.797t-6.2344-20.812q-6.2188-7.9062-16.188-7.9062-6 0-10.328 2.375-4.3125 2.375-7.1562 7.25v-8.2031h-9.0312v75.984h9.0312z"/>
<path id="ag" d="m30.609 48.391q-7.2188 0-11.422-5.6406t-4.2031-15.453 4.1719-15.453q4.1875-5.6406 11.453-5.6406 7.1875 0 11.375 5.6562 4.2031 5.6719 4.2031 15.438 0 9.7188-4.2031 15.406-4.1875 5.6875-11.375 5.6875zm0 7.6094q11.719 0 18.406-7.625 6.7031-7.6094 6.7031-21.078 0-13.422-6.7031-21.078-6.6875-7.6406-18.406-7.6406-11.766 0-18.438 7.6406-6.6562 7.6562-6.6562 21.078 0 13.469 6.6562 21.078 6.6719 7.625 18.438 7.625z"/>
<path id="az" d="m34.281 27.484q-10.891 0-15.094-2.4844t-4.2031-8.5q0-4.7812 3.1562-7.5938 3.1562-2.7969 8.5625-2.7969 7.4844 0 12 5.2969t4.5156 14.078v2zm17.922 3.7188v-31.203h-8.9844v8.2969q-3.0781-4.9688-7.6719-7.3438t-11.234-2.375q-8.3906 0-13.359 4.7188-4.9531 4.7188-4.9531 12.625 0 9.2188 6.1719 13.906 6.1875 4.6875 18.438 4.6875h12.609v0.89062q0 6.2031-4.0781 9.5938t-11.453 3.3906q-4.6875 0-9.1406-1.125-4.4375-1.125-8.5312-3.375v8.3125q4.9219 1.9062 9.5625 2.8438 4.6406 0.95312 9.0312 0.95312 11.875 0 17.734-6.1562 5.8594-6.1406 5.8594-18.641zm-18.609 44.578h9.9062v-9.8594h-9.9062zm-19.094 0h9.9062v-9.8594h-9.9062z"/>
</defs>
<g transform="translate(327.1 715.49) scale(.1 -.1)">
<use xlink:href="#q"/>
<use x="64.783203" xlink:href="#ah"/>
<use x="99.988281" xlink:href="#ah"/>
<use x="135.193359" xlink:href="#c"/>
<use x="196.716797" xlink:href="#f"/>
<use x="260.095703" xlink:href="#z"/>
<use x="323.572266" xlink:href="#i"/>
<use x="362.435547" xlink:href="#ag"/>
<use x="423.617188" xlink:href="#ao"/>
<use x="462.826172" xlink:href="#z"/>
<use x="526.302734" xlink:href="#az"/>
<use x="587.582031" xlink:href="#af"/>
<use x="650.960938" xlink:href="#l"/>
<use x="748.373047" xlink:href="#c"/>
</g>
</g>
<g clip-path="url(#a)">
<g transform="translate(397.07 715.49) scale(.1 -.1)">
<use xlink:href="#r"/>
<use x="52.099609" xlink:href="#c"/>
<use x="113.623047" xlink:href="#u"/>
<use x="177.001953" xlink:href="#c"/>
<use x="238.525391" xlink:href="#f"/>
</g>
</g>
<g clip-path="url(#a)">
<g transform="translate(452.08 715.49) scale(.1 -.1)">
<use xlink:href="#c"/>
<use x="61.523438" xlink:href="#g"/>
<use x="89.306641" xlink:href="#f"/>
</g>
</g>
<g clip-path="url(#a)">
<g transform="translate(488.3 715.49) scale(.1 -.1)">
<use xlink:href="#z"/>
<use x="63.476562" xlink:href="#g"/>
<use x="91.259766" xlink:href="#r"/>
<use x="143.359375" xlink:href="#r"/>
<use x="195.458984" xlink:href="#ai"/>
<use x="250.439453" xlink:href="#u"/>
<use x="313.818359" xlink:href="#c"/>
<use x="375.341797" xlink:href="#f"/>
</g>
</g>
<g clip-path="url(#a)">
<g transform="translate(558.06 715.49) scale(.1 -.1)">
<use xlink:href="#r"/>
<use x="52.099609" xlink:href="#ag"/>
</g>
</g>
<g clip-path="url(#a)">
<g transform="translate(611.35 715.49) scale(.1 -.1)">
<use xlink:href="#h"/>
<use x="61.279297" xlink:href="#af"/>
<use x="124.658203" xlink:href="#r"/>
</g>
</g>
<g clip-path="url(#a)">
<defs>
<path id="bb" d="m4.2031 54.688h8.9844l11.234-42.672 11.172 42.672h10.594l11.234-42.672 11.188 42.672h8.9844l-14.312-54.688h-10.594l-11.766 44.828-11.812-44.828h-10.609z"/>
</defs>
<g transform="translate(671.06 715.49) scale(.1 -.1)">
<use xlink:href="#bb"/>
<use x="81.787109" xlink:href="#g"/>
<use x="109.570312" xlink:href="#c"/>
</g>
</g>
<g clip-path="url(#a)">
<defs>
<path id="au" d="m9.8125 72.906h9.8594v-30.812l32.719 30.812h12.703l-36.188-33.984 38.766-38.922h-12.984l-35.016 35.109v-35.109h-9.8594z"/>
</defs>
<g transform="translate(731.38 715.49) scale(.1 -.1)">
<use xlink:href="#au"/>
<use x="60.576172" xlink:href="#ag"/>
<use x="121.757812" xlink:href="#u"/>
<use x="185.136719" xlink:href="#j"/>
</g>
</g>
<g clip-path="url(#a)">
<defs>
<path id="ay" d="m30.609 48.391q-7.2188 0-11.422-5.6406t-4.2031-15.453 4.1719-15.453q4.1875-5.6406 11.453-5.6406 7.1875 0 11.375 5.6562 4.2031 5.6719 4.2031 15.438 0 9.7188-4.2031 15.406-4.1875 5.6875-11.375 5.6875zm0 7.6094q11.719 0 18.406-7.625 6.7031-7.6094 6.7031-21.078 0-13.422-6.7031-21.078-6.6875-7.6406-18.406-7.6406-11.766 0-18.438 7.6406-6.6562 7.6562-6.6562 21.078 0 13.469 6.6562 21.078 6.6719 7.625 18.438 7.625zm4.6094 19.781h9.9062v-9.8594h-9.9062zm-19.094 0h9.9062v-9.8594h-9.9062z"/>
<path id="bc" d="m18.109 8.2031v-29h-9.0312v75.484h9.0312v-8.2969q2.8438 4.875 7.1562 7.2344 4.3281 2.375 10.328 2.375 9.9688 0 16.188-7.9062 6.2344-7.9062 6.2344-20.797t-6.2344-20.812q-6.2188-7.9062-16.188-7.9062-6 0-10.328 2.375-4.3125 2.375-7.1562 7.25zm30.578 19.094q0 9.9062-4.0781 15.547t-11.203 5.6406q-7.1406 0-11.219-5.6406t-4.0781-15.547 4.0781-15.547 11.219-5.6406q7.125 0 11.203 5.6406t4.0781 15.547z"/>
</defs>
<g transform="translate(793.61 715.49) scale(.1 -.1)">
<use xlink:href="#ap"/>
<use x="54.285156" xlink:href="#ay"/>
<use x="115.466797" xlink:href="#bc"/>
<use x="178.943359" xlink:href="#ah"/>
<use x="214.148438" xlink:href="#c"/>
</g>
</g>
<g clip-path="url(#a)">
<defs>
<path id="e" d="m10.688 12.406h10.312v-12.406h-10.312z"/>
</defs>
<g transform="translate(870.98 715.49) scale(.1 -.1)">
<use xlink:href="#e"/>
<use x="31.787109" xlink:href="#e"/>
<use x="63.574219" xlink:href="#e"/>
</g>
</g>
<g clip-path="url(#a)">
<g transform="translate(944.77 715.49) scale(.1 -.1)">
<use xlink:href="#y"/>
</g>
</g>
<g clip-path="url(#a)">
<g transform="translate(1019.6 715.49) scale(.1 -.1)">
<use xlink:href="#an"/>
</g>
</g>
<g clip-path="url(#a)">
<g transform="translate(1096.3 715.49) scale(.1 -.1)">
<use xlink:href="#y"/>
</g>
</g>
<g clip-path="url(#a)">
<defs>
<path id="at" d="m39.406 66.219q-10.75 0-17.078-8.0156-6.3125-8-6.3125-21.828 0-13.766 6.3125-21.781 6.3281-8 17.078-8 10.734 0 17.016 8 6.2812 8.0156 6.2812 21.781 0 13.828-6.2812 21.828-6.2812 8.0156-17.016 8.0156zm0 8q15.328 0 24.5-10.281 9.1875-10.281 9.1875-27.562 0-17.234-9.1875-27.516-9.1719-10.281-24.5-10.281-15.375 0-24.594 10.25-9.2031 10.266-9.2031 27.547t9.2031 27.562q9.2188 10.281 24.594 10.281z"/>
</defs>
<g transform="translate(1171.7 715.49) scale(.1 -.1)">
<use xlink:href="#at"/>
<use x="78.710938" xlink:href="#u"/>
</g>
</g>
<g clip-path="url(#a)">
<defs>
<path id="ax" d="m15.094 12.406h9.9062v-12.406h-9.9062zm0 60.5h9.9062v-31.984l-0.96875-17.438h-7.9219l-1.0156 17.438z"/>
</defs>
<g transform="translate(1260.1 715.49) scale(.1 -.1)">
<use xlink:href="#ax"/>
</g>
</g>
<g clip-path="url(#a)">
<g transform="translate(1345.9 715.49) scale(.1 -.1)">
<use xlink:href="#y"/>
</g>
</g>
<g clip-path="url(#a)">
<defs>
<path id="t" d="m9.8125 72.906h9.8594v-72.906h-9.8594z"/>
<path id="aj" d="m9.8125 72.906h14.703l18.594-49.609 18.703 49.609h14.703v-72.906h-9.625v64.016l-18.797-50h-9.9062l-18.797 50v-64.016h-9.5781z"/>
</defs>
<g transform="translate(1333.1 581.9) scale(.1 -.1)">
<use xlink:href="#t"/>
<use x="29.492188" xlink:href="#aj"/>
<use x="115.771484" xlink:href="#s"/>
<use x="176.074219" xlink:href="#aa"/>
<use x="231.787109" xlink:href="#t"/>
<use x="261.279297" xlink:href="#w"/>
<use x="331.103516" xlink:href="#t"/>
<use x="360.595703" xlink:href="#k"/>
</g>
</g>
<g clip-path="url(#a)">
<g transform="translate(1333.1 581.9) scale(.1 -.1)">
<use xlink:href="#t"/>
<use x="29.492188" xlink:href="#aj"/>
<use x="115.771484" xlink:href="#s"/>
<use x="176.074219" xlink:href="#aa"/>
<use x="231.787109" xlink:href="#t"/>
<use x="261.279297" xlink:href="#w"/>
<use x="331.103516" xlink:href="#t"/>
<use x="360.595703" xlink:href="#k"/>
</g>
</g>
<g clip-path="url(#a)">
<defs>
<path id="d" d="m12.406 8.2969h16.109v55.625l-17.531-3.5156v8.9844l17.438 3.5156h9.8594v-64.609h16.109v-8.2969h-41.984z"/>
</defs>
<g transform="translate(703.14 36.699) scale(.1 -.1)">
<use xlink:href="#d"/>
<use x="63.623047" xlink:href="#e"/>
<use x="95.410156" xlink:href="#d"/>
</g>
</g>
<g clip-path="url(#a)">
<defs>
<path id="n" d="m19.188 8.2969h34.422v-8.2969h-46.281v8.2969q5.6094 5.8125 15.297 15.594 9.7031 9.7969 12.188 12.641 4.7344 5.3125 6.6094 9 1.8906 3.6875 1.8906 7.25 0 5.8125-4.0781 9.4688-4.0781 3.6719-10.625 3.6719-4.6406 0-9.7969-1.6094-5.1406-1.6094-11-4.8906v9.9688q5.9531 2.3906 11.125 3.6094 5.1875 1.2188 9.4844 1.2188 11.328 0 18.062-5.6719 6.7344-5.6562 6.7344-15.125 0-4.5-1.6875-8.5312-1.6719-4.0156-6.125-9.4844-1.2188-1.4219-7.7656-8.1875-6.5312-6.7656-18.453-18.922z"/>
</defs>
<g transform="translate(89.552 310.29) scale(.1 -.1)">
<use xlink:href="#d"/>
<use x="63.623047" xlink:href="#e"/>
<use x="95.410156" xlink:href="#n"/>
</g>
</g>
<g clip-path="url(#a)">
<defs>
<path id="m" d="m40.578 39.312q7.0781-1.5156 11.047-6.3125 3.9844-4.7812 3.9844-11.812 0-10.781-7.4219-16.703-7.4219-5.9062-21.094-5.9062-4.5781 0-9.4375 0.90625t-10.031 2.7188v9.5156q4.0938-2.3906 8.9688-3.6094 4.8906-1.2188 10.219-1.2188 9.2656 0 14.125 3.6562t4.8594 10.641q0 6.4531-4.5156 10.078-4.5156 3.6406-12.562 3.6406h-8.5v8.1094h8.8906q7.2656 0 11.125 2.9062t3.8594 8.375q0 5.6094-3.9844 8.6094-3.9688 3.0156-11.391 3.0156-4.0625 0-8.7031-0.89062-4.6406-0.875-10.203-2.7188v8.7812q5.625 1.5625 10.531 2.3438t9.25 0.78125q11.234 0 17.766-5.1094 6.5469-5.0938 6.5469-13.781 0-6.0625-3.4688-10.234t-9.8594-5.7812z"/>
</defs>
<g transform="translate(130.82 581.9) scale(.1 -.1)">
<use xlink:href="#d"/>
<use x="63.623047" xlink:href="#e"/>
<use x="95.410156" xlink:href="#m"/>
</g>
</g>
<g clip-path="url(#a)">
<defs>
<path id="o" d="m37.797 64.312-24.906-38.922h24.906zm-2.5938 8.5938h12.406v-47.516h10.406v-8.2031h-10.406v-17.188h-9.8125v17.188h-32.906v9.5156z"/>
</defs>
<g transform="translate(238.64 173.67) scale(.1 -.1)">
<use xlink:href="#d"/>
<use x="63.623047" xlink:href="#e"/>
<use x="95.410156" xlink:href="#o"/>
</g>
</g>
<g clip-path="url(#a)">
<defs>
<path id="x" d="m10.797 72.906h38.719v-8.3125h-29.688v-17.859q2.1406 0.73438 4.2812 1.0938 2.1562 0.35938 4.3125 0.35938 12.203 0 19.328-6.6875 7.1406-6.6875 7.1406-18.109 0-11.766-7.3281-18.297-7.3281-6.5156-20.656-6.5156-4.5938 0-9.3594 0.78125-4.75 0.78125-9.8281 2.3438v9.9219q4.3906-2.3906 9.0781-3.5625t9.9062-1.1719q8.4531 0 13.375 4.4375 4.9375 4.4375 4.9375 12.062 0 7.6094-4.9375 12.047-4.9219 4.4531-13.375 4.4531-3.9531 0-7.8906-0.875-3.9219-0.875-8.0156-2.7344z"/>
</defs>
<g transform="translate(1255.1 446.45) scale(.1 -.1)">
<use xlink:href="#d"/>
<use x="63.623047" xlink:href="#e"/>
<use x="95.410156" xlink:href="#x"/>
</g>
</g>
<g clip-path="url(#a)">
<g transform="translate(1167.7 581.9) scale(.1 -.1)">
<use xlink:href="#d"/>
<use x="63.623047" xlink:href="#e"/>
<use x="95.410156" xlink:href="#d"/>
<use x="159.033203" xlink:href="#o"/>
</g>
</g>
<g clip-path="url(#a)">
<g transform="translate(151.42 581.9) scale(.1 -.1)">
<use xlink:href="#d"/>
<use x="63.623047" xlink:href="#e"/>
<use x="95.410156" xlink:href="#d"/>
<use x="159.033203" xlink:href="#x"/>
</g>
</g>
<g clip-path="url(#a)">
<defs>
<path id="ae" d="m33.016 40.375q-6.6406 0-10.531-4.5469-3.875-4.5312-3.875-12.438 0-7.8594 3.875-12.438 3.8906-4.5625 10.531-4.5625t10.516 4.5625q3.875 4.5781 3.875 12.438 0 7.9062-3.875 12.438-3.875 4.5469-10.516 4.5469zm19.578 30.922v-8.9844q-3.7188 1.75-7.5 2.6719-3.7812 0.9375-7.5 0.9375-9.7656 0-14.922-6.5938-5.1406-6.5938-5.875-19.922 2.875 4.25 7.2188 6.5156 4.3594 2.2656 9.5781 2.2656 10.984 0 17.359-6.6719 6.375-6.6562 6.375-18.125 0-11.234-6.6406-18.031-6.6406-6.7812-17.672-6.7812-12.656 0-19.344 9.6875-6.6875 9.7031-6.6875 28.109 0 17.281 8.2031 27.562t22.016 10.281q3.7188 0 7.5-0.73438t7.8906-2.1875z"/>
</defs>
<g transform="translate(178.16 581.9) scale(.1 -.1)">
<use xlink:href="#d"/>
<use x="63.623047" xlink:href="#e"/>
<use x="95.410156" xlink:href="#d"/>
<use x="159.033203" xlink:href="#ae"/>
</g>
</g>
<g clip-path="url(#a)">
<defs>
<path id="ad" d="m8.2031 72.906h46.875v-4.2031l-26.469-68.703h-10.297l24.906 64.594h-35.016z"/>
</defs>
<g transform="translate(519.8 310.29) scale(.1 -.1)">
<use xlink:href="#d"/>
<use x="63.623047" xlink:href="#e"/>
<use x="95.410156" xlink:href="#d"/>
<use x="159.033203" xlink:href="#ad"/>
</g>
</g>
<g clip-path="url(#a)">
<g transform="translate(335.66 446.45) scale(.1 -.1)">
<use xlink:href="#d"/>
<use x="63.623047" xlink:href="#e"/>
<use x="95.410156" xlink:href="#n"/>
<use x="159.033203" xlink:href="#d"/>
</g>
</g>
<g clip-path="url(#a)">
<g transform="translate(505.04 581.9) scale(.1 -.1)">
<use xlink:href="#d"/>
<use x="63.623047" xlink:href="#e"/>
<use x="95.410156" xlink:href="#n"/>
<use x="159.033203" xlink:href="#n"/>
</g>
</g>
<g clip-path="url(#a)">
<g transform="translate(473.84 581.9) scale(.1 -.1)">
<use xlink:href="#d"/>
<use x="63.623047" xlink:href="#e"/>
<use x="95.410156" xlink:href="#n"/>
<use x="159.033203" xlink:href="#m"/>
</g>
</g>
<g clip-path="url(#a)">
<g transform="translate(552.59 581.9) scale(.1 -.1)">
<use xlink:href="#d"/>
<use x="63.623047" xlink:href="#e"/>
<use x="95.410156" xlink:href="#n"/>
<use x="159.033203" xlink:href="#o"/>
</g>
</g>
<g clip-path="url(#a)">
<g transform="translate(731.88 446.45) scale(.1 -.1)">
<use xlink:href="#d"/>
<use x="63.623047" xlink:href="#e"/>
<use x="95.410156" xlink:href="#n"/>
<use x="159.033203" xlink:href="#x"/>
</g>
</g>
<g clip-path="url(#a)">
<g transform="translate(668.48 581.9) scale(.1 -.1)">
<use xlink:href="#d"/>
<use x="63.623047" xlink:href="#e"/>
<use x="95.410156" xlink:href="#n"/>
<use x="159.033203" xlink:href="#ae"/>
</g>
</g>
<g clip-path="url(#a)">
<g transform="translate(730.89 581.9) scale(.1 -.1)">
<use xlink:href="#d"/>
<use x="63.623047" xlink:href="#e"/>
<use x="95.410156" xlink:href="#n"/>
<use x="159.033203" xlink:href="#ad"/>
</g>
</g>
<g clip-path="url(#a)">
<defs>
<path id="al" d="m31.781 34.625q-7.0312 0-11.062-3.7656-4.0156-3.7656-4.0156-10.344 0-6.5938 4.0156-10.359 4.0312-3.7656 11.062-3.7656t11.078 3.7812q4.0625 3.7969 4.0625 10.344 0 6.5781-4.0312 10.344-4.0156 3.7656-11.109 3.7656zm-9.8594 4.1875q-6.3438 1.5625-9.8906 5.9062-3.5312 4.3594-3.5312 10.609 0 8.7344 6.2188 13.812 6.2344 5.0781 17.062 5.0781 10.891 0 17.094-5.0781t6.2031-13.812q0-6.25-3.5469-10.609-3.5312-4.3438-9.8281-5.9062 7.125-1.6562 11.094-6.5 3.9844-4.8281 3.9844-11.797 0-10.609-6.4688-16.281-6.4688-5.6562-18.531-5.6562-12.047 0-18.531 5.6562-6.4688 5.6719-6.4688 16.281 0 6.9688 4 11.797 4.0156 4.8438 11.141 6.5zm-3.6094 15.578q0-5.6562 3.5312-8.8281 3.5469-3.1719 9.9375-3.1719 6.3594 0 9.9375 3.1719 3.5938 3.1719 3.5938 8.8281 0 5.6719-3.5938 8.8438-3.5781 3.1719-9.9375 3.1719-6.3906 0-9.9375-3.1719-3.5312-3.1719-3.5312-8.8438z"/>
</defs>
<g transform="translate(796.27 581.9) scale(.1 -.1)">
<use xlink:href="#d"/>
<use x="63.623047" xlink:href="#e"/>
<use x="95.410156" xlink:href="#n"/>
<use x="159.033203" xlink:href="#al"/>
</g>
</g>
<g clip-path="url(#a)">
<defs>
<path id="ak" d="m10.984 1.5156v8.9844q3.7188-1.7656 7.5156-2.6875 3.8125-0.92188 7.4844-0.92188 9.7656 0 14.906 6.5625 5.1562 6.5625 5.8906 19.953-2.8281-4.2031-7.1875-6.4531-4.3438-2.25-9.6094-2.25-10.938 0-17.312 6.6094-6.375 6.625-6.375 18.109 0 11.219 6.6406 18 6.6406 6.7969 17.672 6.7969 12.656 0 19.312-9.7031 6.6719-9.6875 6.6719-28.141 0-17.234-8.1875-27.516-8.1719-10.281-21.984-10.281-3.7188 0-7.5312 0.73438-3.7969 0.73438-7.9062 2.2031zm19.625 30.906q6.6406 0 10.516 4.5312 3.8906 4.5469 3.8906 12.469 0 7.8594-3.8906 12.422-3.875 4.5625-10.516 4.5625t-10.516-4.5625-3.875-12.422q0-7.9219 3.875-12.469 3.875-4.5312 10.516-4.5312z"/>
</defs>
<g transform="translate(314.86 581.9) scale(.1 -.1)">
<use xlink:href="#d"/>
<use x="63.623047" xlink:href="#e"/>
<use x="95.410156" xlink:href="#n"/>
<use x="159.033203" xlink:href="#ak"/>
</g>
</g>
<g clip-path="url(#a)">
<defs>
<path id="am" d="m31.781 66.406q-7.6094 0-11.453-7.5-3.8281-7.4844-3.8281-22.531 0-14.984 3.8281-22.484 3.8438-7.5 11.453-7.5 7.6719 0 11.5 7.5 3.8438 7.5 3.8438 22.484 0 15.047-3.8438 22.531-3.8281 7.5-11.5 7.5zm0 7.8125q12.266 0 18.734-9.7031 6.4688-9.6875 6.4688-28.141 0-18.406-6.4688-28.109-6.4688-9.6875-18.734-9.6875-12.25 0-18.719 9.6875-6.4688 9.7031-6.4688 28.109 0 18.453 6.4688 28.141 6.4688 9.7031 18.719 9.7031z"/>
</defs>
<g transform="translate(356.46 581.9) scale(.1 -.1)">
<use xlink:href="#d"/>
<use x="63.623047" xlink:href="#e"/>
<use x="95.410156" xlink:href="#m"/>
<use x="159.033203" xlink:href="#am"/>
</g>
</g>
<g clip-path="url(#a)">
<g transform="translate(63.258 446.45) scale(.1 -.1)">
<use xlink:href="#d"/>
<use x="63.623047" xlink:href="#e"/>
<use x="95.410156" xlink:href="#m"/>
<use x="159.033203" xlink:href="#d"/>
</g>
</g>
<g clip-path="url(#a)">
<g transform="translate(89.012 581.9) scale(.1 -.1)">
<use xlink:href="#d"/>
<use x="63.623047" xlink:href="#e"/>
<use x="95.410156" xlink:href="#m"/>
<use x="159.033203" xlink:href="#n"/>
</g>
</g>
<g clip-path="url(#a)">
<g transform="translate(106.84 581.9) scale(.1 -.1)">
<use xlink:href="#d"/>
<use x="63.623047" xlink:href="#e"/>
<use x="95.410156" xlink:href="#m"/>
<use x="159.033203" xlink:href="#m"/>
</g>
</g>
<g clip-path="url(#a)">
<g transform="translate(53.352 581.9) scale(.1 -.1)">
<use xlink:href="#d"/>
<use x="63.623047" xlink:href="#e"/>
<use x="95.410156" xlink:href="#m"/>
<use x="159.033203" xlink:href="#o"/>
</g>
</g>
<g clip-path="url(#a)">
<g transform="translate(62.267 581.9) scale(.1 -.1)">
<use xlink:href="#d"/>
<use x="63.623047" xlink:href="#e"/>
<use x="95.410156" xlink:href="#m"/>
<use x="159.033203" xlink:href="#x"/>
</g>
</g>
<g clip-path="url(#a)">
<g transform="translate(74.154 581.9) scale(.1 -.1)">
<use xlink:href="#d"/>
<use x="63.623047" xlink:href="#e"/>
<use x="95.410156" xlink:href="#m"/>
<use x="159.033203" xlink:href="#ae"/>
</g>
</g>
<g clip-path="url(#a)">
<g transform="translate(207.88 581.9) scale(.1 -.1)">
<use xlink:href="#d"/>
<use x="63.623047" xlink:href="#e"/>
<use x="95.410156" xlink:href="#m"/>
<use x="159.033203" xlink:href="#ad"/>
</g>
</g>
<g clip-path="url(#a)">
<g transform="translate(240.57 581.9) scale(.1 -.1)">
<use xlink:href="#d"/>
<use x="63.623047" xlink:href="#e"/>
<use x="95.410156" xlink:href="#m"/>
<use x="159.033203" xlink:href="#al"/>
</g>
</g>
<g clip-path="url(#a)">
<g transform="translate(276.23 581.9) scale(.1 -.1)">
<use xlink:href="#d"/>
<use x="63.623047" xlink:href="#e"/>
<use x="95.410156" xlink:href="#m"/>
<use x="159.033203" xlink:href="#ak"/>
</g>
</g>
<g clip-path="url(#a)">
<g transform="translate(864.61 581.9) scale(.1 -.1)">
<use xlink:href="#d"/>
<use x="63.623047" xlink:href="#e"/>
<use x="95.410156" xlink:href="#o"/>
<use x="159.033203" xlink:href="#am"/>
</g>
</g>
<g clip-path="url(#a)">
<g transform="translate(935.93 581.9) scale(.1 -.1)">
<use xlink:href="#d"/>
<use x="63.623047" xlink:href="#e"/>
<use x="95.410156" xlink:href="#o"/>
<use x="159.033203" xlink:href="#d"/>
</g>
</g>
<g clip-path="url(#a)">
<g transform="translate(1010.2 581.9) scale(.1 -.1)">
<use xlink:href="#d"/>
<use x="63.623047" xlink:href="#e"/>
<use x="95.410156" xlink:href="#o"/>
<use x="159.033203" xlink:href="#n"/>
</g>
</g>
<g clip-path="url(#a)">
<g transform="translate(1087.5 581.9) scale(.1 -.1)">
<use xlink:href="#d"/>
<use x="63.623047" xlink:href="#e"/>
<use x="95.410156" xlink:href="#o"/>
<use x="159.033203" xlink:href="#m"/>
</g>
</g>
<g clip-path="url(#a)">
<g transform="translate(1250.9 581.9) scale(.1 -.1)">
<use xlink:href="#d"/>
<use x="63.623047" xlink:href="#e"/>
<use x="95.410156" xlink:href="#o"/>
<use x="159.033203" xlink:href="#o"/>
</g>
</g>
<g clip-path="url(#a)">
<g transform="translate(1337.1 581.9) scale(.1 -.1)">
<use xlink:href="#d"/>
<use x="63.623047" xlink:href="#e"/>
<use x="95.410156" xlink:href="#o"/>
<use x="159.033203" xlink:href="#x"/>
</g>
</g>
<defs>
<clipPath id="a">
<rect width="1418.7" height="746.67"/>
</clipPath>
</defs>
</svg>
