<?xml version="1.0" encoding="UTF-8"?>
<!DOCTYPE svg  PUBLIC '-//W3C//DTD SVG 1.1//EN'  'http://www.w3.org/Graphics/SVG/1.1/DTD/svg11.dtd'>
<svg width="1216pt" height="640pt" version="1.1" viewBox="0 0 1216 640" xmlns="http://www.w3.org/2000/svg" xmlns:xlink="http://www.w3.org/1999/xlink">
<defs>
<style type="text/css">*{stroke-linecap:butt;stroke-linejoin:round;}</style>
</defs>
<path d="m0 640h1216v-640h-1216z" fill="#fff"/>
<g fill="none" stroke="#000">
<path d="m389.93 29.091-251.75 117.4" clip-path="url(#a)"/>
<path d="m389.93 29.091 479.84 234.51" clip-path="url(#a)"/>
<path d="m389.93 29.091-118.37 467.31" clip-path="url(#a)"/>
<path d="m389.93 29.091-77.175 467.31" clip-path="url(#a)"/>
<path d="m389.93 29.091-32.544 467.31" clip-path="url(#a)"/>
<path d="m138.18 146.49-65.356 117.1" clip-path="url(#a)"/>
<path d="m138.18 146.49 2.9245 349.91" clip-path="url(#a)"/>
<path d="m138.18 146.49 62.431 233.81" clip-path="url(#a)"/>
<path d="m869.77 263.6-354.47 116.71" clip-path="url(#a)"/>
<path d="m869.77 263.6 43.772 232.81" clip-path="url(#a)"/>
<path d="m869.77 263.6 122.73 232.81" clip-path="url(#a)"/>
<path d="m869.77 263.6 205.13 232.81" clip-path="url(#a)"/>
<path d="m869.77 263.6-172.51 232.81" clip-path="url(#a)"/>
<path d="m869.77 263.6-103.85 232.81" clip-path="url(#a)"/>
<path d="m869.77 263.6-31.756 232.81" clip-path="url(#a)"/>
<path d="m869.77 263.6 290.95 232.81" clip-path="url(#a)"/>
<path d="m515.31 380.3-109.86 116.1" clip-path="url(#a)"/>
<path d="m515.31 380.3-58.363 116.1" clip-path="url(#a)"/>
<path d="m515.31 380.3-3.4331 116.1" clip-path="url(#a)"/>
<path d="m515.31 380.3 54.929 116.1" clip-path="url(#a)"/>
<path d="m515.31 380.3 116.73 116.1" clip-path="url(#a)"/>
<path d="m913.54 496.4v114.51" clip-path="url(#a)"/>
<path d="m992.51 496.4v114.51" clip-path="url(#a)"/>
<path d="m1074.9 496.4v114.51" clip-path="url(#a)"/>
<path d="m405.45 496.4v114.51" clip-path="url(#a)"/>
<path d="m456.94 496.4v114.51" clip-path="url(#a)"/>
<path d="m511.87 496.4v114.51" clip-path="url(#a)"/>
<path d="m570.24 496.4v114.51" clip-path="url(#a)"/>
<path d="m632.03 496.4v114.51" clip-path="url(#a)"/>
<path d="m72.82 263.6-17.547 232.81" clip-path="url(#a)"/>
<path d="m72.82 263.6-7.2476 232.81" clip-path="url(#a)"/>
<path d="m72.82 263.6 24.795 116.71" clip-path="url(#a)"/>
<path d="m141.1 496.4v114.51" clip-path="url(#a)"/>
<path d="m200.61 380.3-32.042 116.1" clip-path="url(#a)"/>
<path d="m200.61 380.3-1.1444 116.1" clip-path="url(#a)"/>
<path d="m200.61 380.3 33.187 116.1" clip-path="url(#a)"/>
<path d="m168.56 496.4v114.51" clip-path="url(#a)"/>
<path d="m199.46 496.4v114.51" clip-path="url(#a)"/>
<path d="m233.79 496.4v114.51" clip-path="url(#a)"/>
<path d="m55.273 496.4v114.51" clip-path="url(#a)"/>
<path d="m65.572 496.4v114.51" clip-path="url(#a)"/>
<path d="m97.614 380.3-18.31 116.1" clip-path="url(#a)"/>
<path d="m97.614 380.3-1.1444 116.1" clip-path="url(#a)"/>
<path d="m97.614 380.3 19.454 116.1" clip-path="url(#a)"/>
<path d="m79.304 496.4v114.51" clip-path="url(#a)"/>
<path d="m96.47 496.4v114.51" clip-path="url(#a)"/>
<path d="m117.07 496.4v114.51" clip-path="url(#a)"/>
<path d="m271.56 496.4v114.51" clip-path="url(#a)"/>
<path d="m312.75 496.4v114.51" clip-path="url(#a)"/>
<path d="m357.38 496.4v114.51" clip-path="url(#a)"/>
<path d="m697.26 496.4v114.51" clip-path="url(#a)"/>
<path d="m765.92 496.4v114.51" clip-path="url(#a)"/>
<path d="m838.02 496.4v114.51" clip-path="url(#a)"/>
<path d="m1160.7 496.4v114.51" clip-path="url(#a)"/>
</g>
<path d="m263.98 94.746 5.4525-2.5427q2.1751-1.0143 1.1608-3.1894l-3.2723-7.017q-1.0143-2.1751-3.1894-1.1608l-5.4525 2.5427q-2.1751 1.0143-1.1608 3.1894l3.2723 7.017q1.0143 2.1751 3.1894 1.1608z" clip-path="url(#a)" fill="#fff" stroke="#fff"/>
<g clip-path="url(#a)">
<defs>
<path id="ag" d="m9.8125 72.906h9.8594v-29.891h35.844v29.891h9.8594v-72.906h-9.8594v34.719h-35.844v-34.719h-9.8594z"/>
</defs>
<g transform="translate(262.26 91.063) rotate(-25.001) scale(.08 -.08)">
<use xlink:href="#ag"/>
</g>
</g>
<path d="m624.39 150.66 5.4053 2.6416q2.1563 1.0538 3.2101-1.1025l3.3996-6.9562q1.0538-2.1563-1.1025-3.2101l-5.4053-2.6416q-2.1563-1.0538-3.2101 1.1025l-3.3996 6.9562q-1.0538 2.1563 1.1025 3.2101z" clip-path="url(#a)" fill="#fff" stroke="#fff"/>
<g clip-path="url(#a)">
<g transform="translate(626.18 147.01) rotate(26.045) scale(.08 -.08)">
<use xlink:href="#ag"/>
</g>
</g>
<path d="m336.1 267.12 1.4377-5.6757q0.58932-2.3265-1.7372-2.9158l-7.5055-1.9012q-2.3265-0.58932-2.9158 1.7372l-1.4377 5.6757q-0.58932 2.3265 1.7372 2.9158l7.5055 1.9012q2.3265 0.58932 2.9158-1.7372z" clip-path="url(#a)" fill="#fff" stroke="#fff"/>
<g clip-path="url(#a)">
<defs>
<path id="o" d="m8.6875 72.906h9.9219v-44.297q0-11.719 4.2344-16.875 4.25-5.1406 13.781-5.1406 9.4688 0 13.719 5.1406 4.25 5.1562 4.25 16.875v44.297h9.9062v-45.516q0-14.25-7.0625-21.531-7.0469-7.2812-20.812-7.2812-13.828 0-20.891 7.2812-7.0469 7.2812-7.0469 21.531z"/>
</defs>
<g transform="translate(332.16 266.13) rotate(-75.786) scale(.08 -.08)">
<use xlink:href="#o"/>
</g>
</g>
<path d="m357.05 266.66 0.95401-5.7768q0.39105-2.3679-1.9769-2.759l-7.639-1.2616q-2.3679-0.39105-2.759 1.9769l-0.954 5.7768q-0.39105 2.3679 1.9769 2.759l7.639 1.2616q2.3679 0.39105 2.759-1.9769z" clip-path="url(#a)" fill="#fff" stroke="#fff"/>
<g clip-path="url(#a)">
<g transform="translate(353.04 266) rotate(-80.622) scale(.08 -.08)">
<use xlink:href="#o"/>
</g>
</g>
<path d="m379.71 266.1 0.40677-5.8409q0.16674-2.3942-2.2275-2.5609l-7.7238-0.5379q-2.3942-0.16674-2.5609 2.2275l-0.40677 5.8409q-0.16674 2.3942 2.2275 2.5609l7.7238 0.5379q2.3942 0.16674 2.5609-2.2275z" clip-path="url(#a)" fill="#fff" stroke="#fff"/>
<g clip-path="url(#a)">
<g transform="translate(375.66 265.82) rotate(-86.016) scale(.08 -.08)">
<use xlink:href="#o"/>
</g>
</g>
<path d="m109.64 210.49 2.667-4.7787q1.1696-2.0957-0.9261-3.2653l-6.7609-3.7732q-2.0957-1.1696-3.2653 0.9261l-2.667 4.7787q-1.1696 2.0957 0.9261 3.2653l6.7609 3.7732q2.0957 1.1696 3.2653-0.9261z" clip-path="url(#a)" fill="#fff" stroke="#fff"/>
<g clip-path="url(#a)">
<defs>
<path id="r" d="m34.188 63.188-13.391-36.281h26.812zm-5.5781 9.7188h11.188l27.781-72.906h-10.25l-6.6406 18.703h-32.859l-6.6406-18.703h-10.406z"/>
</defs>
<g transform="translate(106.09 208.51) rotate(-60.834) scale(.08 -.08)">
<use xlink:href="#r"/>
</g>
</g>
<path d="m133.35 319.09 0.040314 4.8236q0.020058 2.3999 2.42 2.3799l7.7422-0.064708q2.3999-0.020058 2.3799-2.42l-0.040314-4.8236q-0.020058-2.3999-2.42-2.3799l-7.7422 0.064708q-2.3999 0.020058-2.3799 2.42z" clip-path="url(#a)" fill="#fff" stroke="#fff"/>
<g clip-path="url(#a)">
<defs>
<path id="v" d="m19.672 64.797v-27.391h12.406q6.8906 0 10.641 3.5625 3.7656 3.5625 3.7656 10.156 0 6.5469-3.7656 10.109-3.75 3.5625-10.641 3.5625zm-9.8594 8.1094h22.266q12.266 0 18.531-5.5469 6.2812-5.5469 6.2812-16.234 0-10.797-6.2812-16.312-6.2656-5.5156-18.531-5.5156h-12.406v-29.297h-9.8594z"/>
</defs>
<g transform="translate(137.41 319.05) rotate(89.521) scale(.08 -.08)">
<use xlink:href="#v"/>
</g>
</g>
<path d="m162.63 262.37 1.4118 5.2873q0.61914 2.3188 2.9379 1.6996l7.4804-1.9974q2.3188-0.61914 1.6996-2.9379l-1.4118-5.2873q-0.61914-2.3188-2.9379-1.6996l-7.4804 1.9974q-2.3188 0.61914-1.6996 2.9379z" clip-path="url(#a)" fill="#fff" stroke="#fff"/>
<g clip-path="url(#a)">
<g transform="translate(166.55 261.32) rotate(75.05) scale(.08 -.08)">
<use xlink:href="#r"/>
</g>
</g>
<path d="m691.9 328.76 5.198-1.7114q2.2796-0.75056 1.5291-3.0302l-2.4213-7.3541q-0.75056-2.2796-3.0302-1.5291l-5.198 1.7114q-2.2796 0.75056-1.5291 3.0302l2.4213 7.3541q0.75056 2.2796 3.0302 1.5291z" clip-path="url(#a)" fill="#fff" stroke="#fff"/>
<g clip-path="url(#a)">
<g transform="translate(690.63 324.9) rotate(-18.224) scale(.08 -.08)">
<use xlink:href="#r"/>
</g>
</g>
<path d="m885.05 378.79 0.89134 4.7407q0.44347 2.3587 2.8021 1.9152l7.6092-1.4307q2.3587-0.44347 1.9152-2.8021l-0.89134-4.7407q-0.44347-2.3587-2.8021-1.9152l-7.6092 1.4307q-2.3587 0.44347-1.9152 2.8021z" clip-path="url(#a)" fill="#fff" stroke="#fff"/>
<g clip-path="url(#a)">
<g transform="translate(889.04 378.04) rotate(79.352) scale(.08 -.08)">
<use xlink:href="#v"/>
</g>
</g>
<path d="m924.32 380.5 2.5521 4.841q1.1192 2.123 3.2423 1.0038l6.849-3.6107q2.123-1.1192 1.0038-3.2423l-2.5521-4.841q-1.1192-2.123-3.2423-1.0038l-6.849 3.6107q-2.123 1.1192-1.0038 3.2423z" clip-path="url(#a)" fill="#fff" stroke="#fff"/>
<g clip-path="url(#a)">
<g transform="translate(927.91 378.61) rotate(62.202) scale(.08 -.08)">
<use xlink:href="#r"/>
</g>
</g>
<path d="m965.82 382.09 3.6178 4.106q1.5866 1.8007 3.3874 0.2141l5.8092-5.1185q1.8007-1.5866 0.2141-3.3874l-3.6178-4.106q-1.5866-1.8007-3.3874-0.2141l-5.8092 5.1185q-1.8007 1.5866-0.2141 3.3874z" clip-path="url(#a)" fill="#fff" stroke="#fff"/>
<g clip-path="url(#a)">
<g transform="translate(968.87 379.41) rotate(48.617) scale(.08 -.08)">
<use xlink:href="#r"/>
</g>
</g>
<path d="m786.81 386.09 3.4859-4.7042q1.4289-1.9283-0.4994-3.3572l-6.2207-4.6096q-1.9283-1.4289-3.3572 0.4994l-3.4859 4.7042q-1.4289 1.9283 0.4994 3.3572l6.2207 4.6096q1.9283 1.4289 3.3572-0.4994z" clip-path="url(#a)" fill="#fff" stroke="#fff"/>
<g clip-path="url(#a)">
<g transform="translate(783.55 383.67) rotate(-53.461) scale(.08 -.08)">
<use xlink:href="#o"/>
</g>
</g>
<path d="m822.38 385.23 2.3853-5.3471q0.97773-2.1918-1.2141-3.1695l-7.0709-3.1542q-2.1918-0.97773-3.1695 1.2141l-2.3853 5.3471q-0.97773 2.1918 1.2141 3.1695l7.0709 3.1542q2.1918 0.97773 3.1695-1.2141z" clip-path="url(#a)" fill="#fff" stroke="#fff"/>
<g clip-path="url(#a)">
<g transform="translate(818.67 383.57) rotate(-65.959) scale(.08 -.08)">
<use xlink:href="#o"/>
</g>
</g>
<path d="m859.71 383.75 0.79133-5.8013q0.32437-2.378-2.0536-2.7023l-7.6715-1.0464q-2.378-0.32437-2.7023 2.0536l-0.79133 5.8013q-0.32437 2.378 2.0536 2.7023l7.6715 1.0464q2.378 0.32437 2.7023-2.0536z" clip-path="url(#a)" fill="#fff" stroke="#fff"/>
<g clip-path="url(#a)">
<g transform="translate(855.69 383.2) rotate(-82.232) scale(.08 -.08)">
<use xlink:href="#o"/>
</g>
</g>
<path d="m1009 383.07 4.5717 3.658q1.874 1.4994 3.3734-0.37451l4.8372-6.0454q1.4994-1.874-0.37451-3.3734l-4.5717-3.658q-1.874-1.4994-3.3734 0.37451l-4.8372 6.0454q-1.4994 1.874 0.37451 3.3734z" clip-path="url(#a)" fill="#fff" stroke="#fff"/>
<g clip-path="url(#a)">
<g transform="translate(1011.6 379.89) rotate(38.665) scale(.08 -.08)">
<use xlink:href="#o"/>
</g>
</g>
<path d="m463.05 444.65 3.7613-3.975q1.6496-1.7433-0.093694-3.3928l-5.6238-5.3216q-1.7433-1.6496-3.3928 0.093694l-3.7613 3.975q-1.6496 1.7433 0.093694 3.3928l5.6238 5.3216q1.7433 1.6496 3.3928-0.093694z" clip-path="url(#a)" fill="#fff" stroke="#fff"/>
<g clip-path="url(#a)">
<g transform="translate(460.1 441.86) rotate(-46.582) scale(.08 -.08)">
<use xlink:href="#r"/>
</g>
</g>
<path d="m490.7 443.23 2.0666-4.111q1.0779-2.1443-1.0664-3.2222l-6.9176-3.4775q-2.1443-1.0779-3.2222 1.0664l-2.0666 4.111q-1.0779 2.1443 1.0664 3.2222l6.9176 3.4775q2.1443 1.0779 3.2222-1.0664z" clip-path="url(#a)" fill="#fff" stroke="#fff"/>
<g clip-path="url(#a)">
<defs>
<path id="ah" d="m9.8125 72.906h41.891v-8.3125h-32.031v-21.484h28.906v-8.2969h-28.906v-34.812h-9.8594z"/>
</defs>
<g transform="translate(487.06 441.4) rotate(-63.311) scale(.08 -.08)">
<use xlink:href="#ah"/>
</g>
</g>
<path d="m519.77 441.62 0.18207-6.1573q0.070938-2.399-2.328-2.4699l-7.7391-0.22885q-2.399-0.070938-2.4699 2.328l-0.18207 6.1573q-0.070938 2.399 2.328 2.4699l7.7391 0.22885q2.399 0.070938 2.4699-2.328z" clip-path="url(#a)" fill="#fff" stroke="#fff"/>
<g clip-path="url(#a)">
<defs>
<path id="s" d="m19.672 64.797v-56.688h11.922q15.094 0 22.094 6.8281 7 6.8438 7 21.594 0 14.641-7 21.453t-22.094 6.8125zm-9.8594 8.1094h20.266q21.188 0 31.094-8.8125 9.9219-8.8125 9.9219-27.562 0-18.859-9.9688-27.703-9.9531-8.8281-31.047-8.8281h-20.266z"/>
</defs>
<g transform="translate(515.71 441.5) rotate(-88.306) scale(.08 -.08)">
<use xlink:href="#s"/>
</g>
</g>
<path d="m535.79 438.25 2.6345 5.5682q1.0264 2.1694 3.1959 1.143l6.9987-3.3113q2.1694-1.0264 1.143-3.1959l-2.6345-5.5682q-1.0264-2.1694-3.1959-1.143l-6.9987 3.3113q-2.1694 1.0264-1.143 3.1959z" clip-path="url(#a)" fill="#fff" stroke="#fff"/>
<g clip-path="url(#a)">
<g transform="translate(539.46 436.51) rotate(64.68) scale(.08 -.08)">
<use xlink:href="#s"/>
</g>
</g>
<path d="m567.54 441.1 3.4201 3.4017q1.7016 1.6925 3.3941-0.00913l5.46-5.4895q1.6925-1.7016-0.00913-3.3941l-3.4201-3.4017q-1.7016-1.6925-3.3941 0.009129l-5.46 5.4895q-1.6925 1.7016 0.00913 3.3941z" clip-path="url(#a)" fill="#fff" stroke="#fff"/>
<g clip-path="url(#a)">
<g transform="translate(570.4 438.22) rotate(44.846) scale(.08 -.08)">
<use xlink:href="#v"/>
</g>
</g>
<path d="m907.27 536.75v33.808q0 2.4 2.4 2.4h7.7425q2.4 0 2.4-2.4v-33.808q0-2.4-2.4-2.4h-7.7425q-2.4 0-2.4 2.4z" clip-path="url(#a)" fill="#fff" stroke="#fff"/>
<g clip-path="url(#a)">
<defs>
<path id="l" d="m-0.29688 72.906h61.672v-8.3125h-25.875v-64.594h-9.9062v64.594h-25.891z"/>
<path id="d" d="m56.203 29.594v-4.3906h-41.312q0.59375-9.2812 5.5938-14.141t13.938-4.8594q5.1719 0 10.031 1.2656t9.6562 3.8125v-8.5q-4.8438-2.0469-9.9219-3.125t-10.297-1.0781q-13.094 0-20.734 7.6094-7.6406 7.625-7.6406 20.625 0 13.422 7.25 21.297 7.25 7.8906 19.562 7.8906 11.031 0 17.453-7.1094 6.4219-7.0938 6.4219-19.297zm-8.9844 2.6406q-0.09375 7.3594-4.125 11.75-4.0312 4.4062-10.672 4.4062-7.5156 0-12.031-4.25t-5.2031-11.969z"/>
<path id="i" d="m41.109 46.297q-1.5156 0.875-3.2969 1.2812-1.7812 0.42188-3.9219 0.42188-7.625 0-11.703-4.9531t-4.0781-14.234v-28.812h-9.0312v54.688h9.0312v-8.5q2.8438 4.9844 7.375 7.3906 4.5469 2.4219 11.047 2.4219 0.92188 0 2.0469-0.125 1.125-0.10938 2.4844-0.35938z"/>
<path id="k" d="m52 44.188q3.375 6.0625 8.0625 8.9375t11.031 2.875q8.5469 0 13.188-5.9844 4.6406-5.9688 4.6406-17v-33.016h-9.0312v32.719q0 7.8594-2.7969 11.656-2.7812 3.8125-8.4844 3.8125-6.9844 0-11.047-4.6406-4.0469-4.625-4.0469-12.641v-30.906h-9.0312v32.719q0 7.9062-2.7812 11.688t-8.5938 3.7812q-6.8906 0-10.953-4.6562-4.0469-4.6562-4.0469-12.625v-30.906h-9.0312v54.688h9.0312v-8.5q3.0781 5.0312 7.375 7.4219t10.203 2.3906q5.9688 0 10.141-3.0312 4.1719-3.0156 6.1719-8.7812z"/>
<path id="g" d="m9.4219 54.688h8.9844v-54.688h-8.9844zm0 21.297h8.9844v-11.391h-8.9844z"/>
<path id="e" d="m54.891 33.016v-33.016h-8.9844v32.719q0 7.7656-3.0312 11.609-3.0312 3.8594-9.0781 3.8594-7.2812 0-11.484-4.6406-4.2031-4.625-4.2031-12.641v-30.906h-9.0312v54.688h9.0312v-8.5q3.2344 4.9375 7.5938 7.375 4.375 2.4375 10.094 2.4375 9.4219 0 14.25-5.8281 4.8438-5.8281 4.8438-17.156z"/>
<path id="h" d="m34.281 27.484q-10.891 0-15.094-2.4844t-4.2031-8.5q0-4.7812 3.1562-7.5938 3.1562-2.7969 8.5625-2.7969 7.4844 0 12 5.2969t4.5156 14.078v2zm17.922 3.7188v-31.203h-8.9844v8.2969q-3.0781-4.9688-7.6719-7.3438t-11.234-2.375q-8.3906 0-13.359 4.7188-4.9531 4.7188-4.9531 12.625 0 9.2188 6.1719 13.906 6.1875 4.6875 18.438 4.6875h12.609v0.89062q0 6.2031-4.0781 9.5938t-11.453 3.3906q-4.6875 0-9.1406-1.125-4.4375-1.125-8.5312-3.375v8.3125q4.9219 1.9062 9.5625 2.8438 4.6406 0.95312 9.0312 0.95312 11.875 0 17.734-6.1562 5.8594-6.1406 5.8594-18.641z"/>
<path id="j" d="m9.4219 75.984h8.9844v-75.984h-8.9844z"/>
</defs>
<g transform="translate(911.34 536.75) rotate(90) scale(.08 -.08)">
<use xlink:href="#l"/>
<use x="44.083984" xlink:href="#d"/>
<use x="105.607422" xlink:href="#i"/>
<use x="144.970703" xlink:href="#k"/>
<use x="242.382812" xlink:href="#g"/>
<use x="270.166016" xlink:href="#e"/>
<use x="333.544922" xlink:href="#h"/>
<use x="394.824219" xlink:href="#j"/>
</g>
</g>
<path d="m986.23 536.75v33.808q0 2.4 2.4 2.4h7.7425q2.4 0 2.4-2.4v-33.808q0-2.4-2.4-2.4h-7.7425q-2.4 0-2.4 2.4z" clip-path="url(#a)" fill="#fff" stroke="#fff"/>
<g clip-path="url(#a)">
<g transform="translate(990.3 536.75) rotate(90) scale(.08 -.08)">
<use xlink:href="#l"/>
<use x="44.083984" xlink:href="#d"/>
<use x="105.607422" xlink:href="#i"/>
<use x="144.970703" xlink:href="#k"/>
<use x="242.382812" xlink:href="#g"/>
<use x="270.166016" xlink:href="#e"/>
<use x="333.544922" xlink:href="#h"/>
<use x="394.824219" xlink:href="#j"/>
</g>
</g>
<path d="m1068.6 536.75v33.808q0 2.4 2.4 2.4h7.7425q2.4 0 2.4-2.4v-33.808q0-2.4-2.4-2.4h-7.7425q-2.4 0-2.4 2.4z" clip-path="url(#a)" fill="#fff" stroke="#fff"/>
<g clip-path="url(#a)">
<g transform="translate(1072.7 536.75) rotate(90) scale(.08 -.08)">
<use xlink:href="#l"/>
<use x="44.083984" xlink:href="#d"/>
<use x="105.607422" xlink:href="#i"/>
<use x="144.970703" xlink:href="#k"/>
<use x="242.382812" xlink:href="#g"/>
<use x="270.166016" xlink:href="#e"/>
<use x="333.544922" xlink:href="#h"/>
<use x="394.824219" xlink:href="#j"/>
</g>
</g>
<path d="m399.18 536.75v33.808q0 2.4 2.4 2.4h7.7425q2.4 0 2.4-2.4v-33.808q0-2.4-2.4-2.4h-7.7425q-2.4 0-2.4 2.4z" clip-path="url(#a)" fill="#fff" stroke="#fff"/>
<g clip-path="url(#a)">
<g transform="translate(403.24 536.75) rotate(90) scale(.08 -.08)">
<use xlink:href="#l"/>
<use x="44.083984" xlink:href="#d"/>
<use x="105.607422" xlink:href="#i"/>
<use x="144.970703" xlink:href="#k"/>
<use x="242.382812" xlink:href="#g"/>
<use x="270.166016" xlink:href="#e"/>
<use x="333.544922" xlink:href="#h"/>
<use x="394.824219" xlink:href="#j"/>
</g>
</g>
<path d="m450.67 536.75v33.808q0 2.4 2.4 2.4h7.7425q2.4 0 2.4-2.4v-33.808q0-2.4-2.4-2.4h-7.7425q-2.4 0-2.4 2.4z" clip-path="url(#a)" fill="#fff" stroke="#fff"/>
<g clip-path="url(#a)">
<g transform="translate(454.74 536.75) rotate(90) scale(.08 -.08)">
<use xlink:href="#l"/>
<use x="44.083984" xlink:href="#d"/>
<use x="105.607422" xlink:href="#i"/>
<use x="144.970703" xlink:href="#k"/>
<use x="242.382812" xlink:href="#g"/>
<use x="270.166016" xlink:href="#e"/>
<use x="333.544922" xlink:href="#h"/>
<use x="394.824219" xlink:href="#j"/>
</g>
</g>
<path d="m505.6 536.75v33.808q0 2.4 2.4 2.4h7.7425q2.4 0 2.4-2.4v-33.808q0-2.4-2.4-2.4h-7.7425q-2.4 0-2.4 2.4z" clip-path="url(#a)" fill="#fff" stroke="#fff"/>
<g clip-path="url(#a)">
<g transform="translate(509.67 536.75) rotate(90) scale(.08 -.08)">
<use xlink:href="#l"/>
<use x="44.083984" xlink:href="#d"/>
<use x="105.607422" xlink:href="#i"/>
<use x="144.970703" xlink:href="#k"/>
<use x="242.382812" xlink:href="#g"/>
<use x="270.166016" xlink:href="#e"/>
<use x="333.544922" xlink:href="#h"/>
<use x="394.824219" xlink:href="#j"/>
</g>
</g>
<path d="m563.96 536.75v33.808q0 2.4 2.4 2.4h7.7425q2.4 0 2.4-2.4v-33.808q0-2.4-2.4-2.4h-7.7425q-2.4 0-2.4 2.4z" clip-path="url(#a)" fill="#fff" stroke="#fff"/>
<g clip-path="url(#a)">
<g transform="translate(568.03 536.75) rotate(90) scale(.08 -.08)">
<use xlink:href="#l"/>
<use x="44.083984" xlink:href="#d"/>
<use x="105.607422" xlink:href="#i"/>
<use x="144.970703" xlink:href="#k"/>
<use x="242.382812" xlink:href="#g"/>
<use x="270.166016" xlink:href="#e"/>
<use x="333.544922" xlink:href="#h"/>
<use x="394.824219" xlink:href="#j"/>
</g>
</g>
<path d="m625.76 536.75v33.808q0 2.4 2.4 2.4h7.7425q2.4 0 2.4-2.4v-33.808q0-2.4-2.4-2.4h-7.7425q-2.4 0-2.4 2.4z" clip-path="url(#a)" fill="#fff" stroke="#fff"/>
<g clip-path="url(#a)">
<g transform="translate(629.82 536.75) rotate(90) scale(.08 -.08)">
<use xlink:href="#l"/>
<use x="44.083984" xlink:href="#d"/>
<use x="105.607422" xlink:href="#i"/>
<use x="144.970703" xlink:href="#k"/>
<use x="242.382812" xlink:href="#g"/>
<use x="270.166016" xlink:href="#e"/>
<use x="333.544922" xlink:href="#h"/>
<use x="394.824219" xlink:href="#j"/>
</g>
</g>
<path d="m70.127 382.77 0.34582-4.5882q0.18038-2.3932-2.2128-2.5736l-7.7206-0.58191q-2.3932-0.18038-2.5736 2.2128l-0.34582 4.5882q-0.18038 2.3932 2.2128 2.5736l7.7206 0.58191q2.3932 0.18038 2.5736-2.2128z" clip-path="url(#a)" fill="#fff" stroke="#fff"/>
<g clip-path="url(#a)">
<g transform="translate(66.075 382.46) rotate(-85.69) scale(.08 -.08)">
<use xlink:href="#ah"/>
</g>
</g>
<path d="m75.377 382.99 0.17382-5.5835q0.074679-2.3988-2.3242-2.4735l-7.7388-0.24092q-2.3988-0.07468-2.4735 2.3242l-0.17382 5.5835q-0.074679 2.3988 2.3242 2.4735l7.7388 0.24092q2.3988 0.074679 2.4735-2.3242z" clip-path="url(#a)" fill="#fff" stroke="#fff"/>
<g clip-path="url(#a)">
<defs>
<path id="aa" d="m64.406 67.281v-10.391q-4.9844 4.6406-10.625 6.9219-5.6406 2.2969-11.984 2.2969-12.5 0-19.141-7.6406t-6.6406-22.094q0-14.406 6.6406-22.047t19.141-7.6406q6.3438 0 11.984 2.2969t10.625 6.9375v-10.312q-5.1719-3.5156-10.969-5.2812-5.7812-1.75-12.219-1.75-16.562 0-26.094 10.125-9.5156 10.141-9.5156 27.672 0 17.578 9.5156 27.703 9.5312 10.141 26.094 10.141 6.5312 0 12.312-1.7344 5.7969-1.7344 10.875-5.2031z"/>
</defs>
<g transform="translate(71.315 382.86) rotate(-88.217) scale(.08 -.08)">
<use xlink:href="#aa"/>
</g>
</g>
<path d="m78.557 320.78 1.0505 4.9446q0.49875 2.3476 2.8464 1.8489l7.5735-1.609q2.3476-0.49875 1.8489-2.8464l-1.0505-4.9446q-0.49875-2.3476-2.8464-1.8489l-7.5735 1.609q-2.3476 0.49875-1.8489 2.8464z" clip-path="url(#a)" fill="#fff" stroke="#fff"/>
<g clip-path="url(#a)">
<defs>
<path id="z" d="m9.8125 72.906h46.094v-8.3125h-36.234v-21.578h34.719v-8.2969h-34.719v-26.422h37.109v-8.2969h-46.969z"/>
</defs>
<g transform="translate(82.532 319.94) rotate(78.006) scale(.08 -.08)">
<use xlink:href="#z"/>
</g>
</g>
<path d="m134.83 536.75v33.808q0 2.4 2.4 2.4h7.7425q2.4 0 2.4-2.4v-33.808q0-2.4-2.4-2.4h-7.7425q-2.4 0-2.4 2.4z" clip-path="url(#a)" fill="#fff" stroke="#fff"/>
<g clip-path="url(#a)">
<g transform="translate(138.89 536.75) rotate(90) scale(.08 -.08)">
<use xlink:href="#l"/>
<use x="44.083984" xlink:href="#d"/>
<use x="105.607422" xlink:href="#i"/>
<use x="144.970703" xlink:href="#k"/>
<use x="242.382812" xlink:href="#g"/>
<use x="270.166016" xlink:href="#e"/>
<use x="333.544922" xlink:href="#h"/>
<use x="394.824219" xlink:href="#j"/>
</g>
</g>
<path d="m189.89 442.7 1.4789-5.3584q0.63851-2.3135-1.675-2.952l-7.4635-2.0598q-2.3135-0.63851-2.952 1.675l-1.4789 5.3584q-0.63851 2.3135 1.675 2.952l7.4635 2.0598q2.3135 0.63851 2.952-1.675z" clip-path="url(#a)" fill="#fff" stroke="#fff"/>
<g clip-path="url(#a)">
<defs>
<path id="af" d="m44.391 34.188q3.1719-1.0781 6.1719-4.5938t6.0312-9.6719l10.016-19.922h-10.609l-9.3125 18.703q-3.625 7.3281-7.0156 9.7188t-9.25 2.3906h-10.75v-30.812h-9.8594v72.906h22.266q12.5 0 18.656-5.2344 6.1562-5.2188 6.1562-15.766 0-6.8906-3.2031-11.438-3.2031-4.5312-9.2969-6.2812zm-24.719 30.609v-25.875h12.406q7.125 0 10.766 3.2969t3.6406 9.6875-3.6406 9.6406-10.766 3.25z"/>
</defs>
<g transform="translate(185.97 441.62) rotate(-74.571) scale(.08 -.08)">
<use xlink:href="#af"/>
</g>
</g>
<path d="m206.28 440.94 0.049823-5.0548q0.023655-2.3999-2.3762-2.4235l-7.7421-0.076312q-2.3999-0.023655-2.4235 2.3762l-0.049824 5.0548q-0.023655 2.3999 2.3762 2.4235l7.7421 0.076313q2.3999 0.023655 2.4235-2.3762z" clip-path="url(#a)" fill="#fff" stroke="#fff"/>
<g clip-path="url(#a)">
<g transform="translate(202.22 440.9) rotate(-89.435) scale(.08 -.08)">
<use xlink:href="#z"/>
</g>
</g>
<path d="m210.4 437.39 1.5353 5.3711q0.65962 2.3076 2.9672 1.648l7.4443-2.1279q2.3076-0.65962 1.648-2.9672l-1.5353-5.3711q-0.65962-2.3076-2.9672-1.648l-7.4443 2.1279q-2.3076 0.65961-1.648 2.9672z" clip-path="url(#a)" fill="#fff" stroke="#fff"/>
<g clip-path="url(#a)">
<g transform="translate(214.31 436.28) rotate(74.048) scale(.08 -.08)">
<use xlink:href="#aa"/>
</g>
</g>
<path d="m162.29 536.75v33.808q0 2.4 2.4 2.4h7.7425q2.4 0 2.4-2.4v-33.808q0-2.4-2.4-2.4h-7.7425q-2.4 0-2.4 2.4z" clip-path="url(#a)" fill="#fff" stroke="#fff"/>
<g clip-path="url(#a)">
<g transform="translate(166.36 536.75) rotate(90) scale(.08 -.08)">
<use xlink:href="#l"/>
<use x="44.083984" xlink:href="#d"/>
<use x="105.607422" xlink:href="#i"/>
<use x="144.970703" xlink:href="#k"/>
<use x="242.382812" xlink:href="#g"/>
<use x="270.166016" xlink:href="#e"/>
<use x="333.544922" xlink:href="#h"/>
<use x="394.824219" xlink:href="#j"/>
</g>
</g>
<path d="m193.19 536.75v33.808q0 2.4 2.4 2.4h7.7425q2.4 0 2.4-2.4v-33.808q0-2.4-2.4-2.4h-7.7425q-2.4 0-2.4 2.4z" clip-path="url(#a)" fill="#fff" stroke="#fff"/>
<g clip-path="url(#a)">
<g transform="translate(197.25 536.75) rotate(90) scale(.08 -.08)">
<use xlink:href="#l"/>
<use x="44.083984" xlink:href="#d"/>
<use x="105.607422" xlink:href="#i"/>
<use x="144.970703" xlink:href="#k"/>
<use x="242.382812" xlink:href="#g"/>
<use x="270.166016" xlink:href="#e"/>
<use x="333.544922" xlink:href="#h"/>
<use x="394.824219" xlink:href="#j"/>
</g>
</g>
<path d="m227.52 536.75v33.808q0 2.4 2.4 2.4h7.7425q2.4 0 2.4-2.4v-33.808q0-2.4-2.4-2.4h-7.7425q-2.4 0-2.4 2.4z" clip-path="url(#a)" fill="#fff" stroke="#fff"/>
<g clip-path="url(#a)">
<g transform="translate(231.59 536.75) rotate(90) scale(.08 -.08)">
<use xlink:href="#l"/>
<use x="44.083984" xlink:href="#d"/>
<use x="105.607422" xlink:href="#i"/>
<use x="144.970703" xlink:href="#k"/>
<use x="242.382812" xlink:href="#g"/>
<use x="270.166016" xlink:href="#e"/>
<use x="333.544922" xlink:href="#h"/>
<use x="394.824219" xlink:href="#j"/>
</g>
</g>
<path d="m49.001 536.75v33.808q0 2.4 2.4 2.4h7.7425q2.4 0 2.4-2.4v-33.808q0-2.4-2.4-2.4h-7.7425q-2.4 0-2.4 2.4z" clip-path="url(#a)" fill="#fff" stroke="#fff"/>
<g clip-path="url(#a)">
<g transform="translate(53.065 536.75) rotate(90) scale(.08 -.08)">
<use xlink:href="#l"/>
<use x="44.083984" xlink:href="#d"/>
<use x="105.607422" xlink:href="#i"/>
<use x="144.970703" xlink:href="#k"/>
<use x="242.382812" xlink:href="#g"/>
<use x="270.166016" xlink:href="#e"/>
<use x="333.544922" xlink:href="#h"/>
<use x="394.824219" xlink:href="#j"/>
</g>
</g>
<path d="m59.301 536.75v33.808q0 2.4 2.4 2.4h7.7425q2.4 0 2.4-2.4v-33.808q0-2.4-2.4-2.4h-7.7425q-2.4 0-2.4 2.4z" clip-path="url(#a)" fill="#fff" stroke="#fff"/>
<g clip-path="url(#a)">
<g transform="translate(63.364 536.75) rotate(90) scale(.08 -.08)">
<use xlink:href="#l"/>
<use x="44.083984" xlink:href="#d"/>
<use x="105.607422" xlink:href="#i"/>
<use x="144.970703" xlink:href="#k"/>
<use x="242.382812" xlink:href="#g"/>
<use x="270.166016" xlink:href="#e"/>
<use x="333.544922" xlink:href="#h"/>
<use x="394.824219" xlink:href="#j"/>
</g>
</g>
<path d="m94.221 442.08 0.86596-5.4909q0.37388-2.3707-1.9968-2.7446l-7.648-1.2062q-2.3707-0.37388-2.7446 1.9968l-0.86596 5.4909q-0.37388 2.3707 1.9968 2.7446l7.648 1.2062q2.3707 0.37388 2.7446-1.9968z" clip-path="url(#a)" fill="#fff" stroke="#fff"/>
<g clip-path="url(#a)">
<g transform="translate(90.207 441.44) rotate(-81.038) scale(.08 -.08)">
<use xlink:href="#af"/>
</g>
</g>
<path d="m103.29 440.94 0.049824-5.0548q0.023655-2.3999-2.3762-2.4235l-7.7421-0.076312q-2.3999-0.023655-2.4235 2.3762l-0.049824 5.0548q-0.023655 2.3999 2.3762 2.4235l7.7421 0.076313q2.3999 0.023655 2.4235-2.3762z" clip-path="url(#a)" fill="#fff" stroke="#fff"/>
<g clip-path="url(#a)">
<g transform="translate(99.224 440.9) rotate(-89.435) scale(.08 -.08)">
<use xlink:href="#z"/>
</g>
</g>
<path d="m100.69 436.64 0.92319 5.5094q0.39663 2.367 2.7636 1.9704l7.636-1.2795q2.367-0.39663 1.9704-2.7636l-0.92319-5.5094q-0.39663-2.367-2.7636-1.9704l-7.636 1.2795q-2.367 0.39663-1.9704 2.7636z" clip-path="url(#a)" fill="#fff" stroke="#fff"/>
<g clip-path="url(#a)">
<g transform="translate(104.7 435.96) rotate(80.488) scale(.08 -.08)">
<use xlink:href="#aa"/>
</g>
</g>
<path d="m73.033 536.75v33.808q0 2.4 2.4 2.4h7.7425q2.4 0 2.4-2.4v-33.808q0-2.4-2.4-2.4h-7.7425q-2.4 0-2.4 2.4z" clip-path="url(#a)" fill="#fff" stroke="#fff"/>
<g clip-path="url(#a)">
<g transform="translate(77.097 536.75) rotate(90) scale(.08 -.08)">
<use xlink:href="#l"/>
<use x="44.083984" xlink:href="#d"/>
<use x="105.607422" xlink:href="#i"/>
<use x="144.970703" xlink:href="#k"/>
<use x="242.382812" xlink:href="#g"/>
<use x="270.166016" xlink:href="#e"/>
<use x="333.544922" xlink:href="#h"/>
<use x="394.824219" xlink:href="#j"/>
</g>
</g>
<path d="m90.199 536.75v33.808q0 2.4 2.4 2.4h7.7425q2.4 0 2.4-2.4v-33.808q0-2.4-2.4-2.4h-7.7425q-2.4 0-2.4 2.4z" clip-path="url(#a)" fill="#fff" stroke="#fff"/>
<g clip-path="url(#a)">
<g transform="translate(94.262 536.75) rotate(90) scale(.08 -.08)">
<use xlink:href="#l"/>
<use x="44.083984" xlink:href="#d"/>
<use x="105.607422" xlink:href="#i"/>
<use x="144.970703" xlink:href="#k"/>
<use x="242.382812" xlink:href="#g"/>
<use x="270.166016" xlink:href="#e"/>
<use x="333.544922" xlink:href="#h"/>
<use x="394.824219" xlink:href="#j"/>
</g>
</g>
<path d="m110.8 536.75v33.808q0 2.4 2.4 2.4h7.7425q2.4 0 2.4-2.4v-33.808q0-2.4-2.4-2.4h-7.7425q-2.4 0-2.4 2.4z" clip-path="url(#a)" fill="#fff" stroke="#fff"/>
<g clip-path="url(#a)">
<g transform="translate(114.86 536.75) rotate(90) scale(.08 -.08)">
<use xlink:href="#l"/>
<use x="44.083984" xlink:href="#d"/>
<use x="105.607422" xlink:href="#i"/>
<use x="144.970703" xlink:href="#k"/>
<use x="242.382812" xlink:href="#g"/>
<use x="270.166016" xlink:href="#e"/>
<use x="333.544922" xlink:href="#h"/>
<use x="394.824219" xlink:href="#j"/>
</g>
</g>
<path d="m265.29 536.75v33.808q0 2.4 2.4 2.4h7.7425q2.4 0 2.4-2.4v-33.808q0-2.4-2.4-2.4h-7.7425q-2.4 0-2.4 2.4z" clip-path="url(#a)" fill="#fff" stroke="#fff"/>
<g clip-path="url(#a)">
<g transform="translate(269.35 536.75) rotate(90) scale(.08 -.08)">
<use xlink:href="#l"/>
<use x="44.083984" xlink:href="#d"/>
<use x="105.607422" xlink:href="#i"/>
<use x="144.970703" xlink:href="#k"/>
<use x="242.382812" xlink:href="#g"/>
<use x="270.166016" xlink:href="#e"/>
<use x="333.544922" xlink:href="#h"/>
<use x="394.824219" xlink:href="#j"/>
</g>
</g>
<path d="m306.48 536.75v33.808q0 2.4 2.4 2.4h7.7425q2.4 0 2.4-2.4v-33.808q0-2.4-2.4-2.4h-7.7425q-2.4 0-2.4 2.4z" clip-path="url(#a)" fill="#fff" stroke="#fff"/>
<g clip-path="url(#a)">
<g transform="translate(310.55 536.75) rotate(90) scale(.08 -.08)">
<use xlink:href="#l"/>
<use x="44.083984" xlink:href="#d"/>
<use x="105.607422" xlink:href="#i"/>
<use x="144.970703" xlink:href="#k"/>
<use x="242.382812" xlink:href="#g"/>
<use x="270.166016" xlink:href="#e"/>
<use x="333.544922" xlink:href="#h"/>
<use x="394.824219" xlink:href="#j"/>
</g>
</g>
<path d="m351.11 536.75v33.808q0 2.4 2.4 2.4h7.7425q2.4 0 2.4-2.4v-33.808q0-2.4-2.4-2.4h-7.7425q-2.4 0-2.4 2.4z" clip-path="url(#a)" fill="#fff" stroke="#fff"/>
<g clip-path="url(#a)">
<g transform="translate(355.18 536.75) rotate(90) scale(.08 -.08)">
<use xlink:href="#l"/>
<use x="44.083984" xlink:href="#d"/>
<use x="105.607422" xlink:href="#i"/>
<use x="144.970703" xlink:href="#k"/>
<use x="242.382812" xlink:href="#g"/>
<use x="270.166016" xlink:href="#e"/>
<use x="333.544922" xlink:href="#h"/>
<use x="394.824219" xlink:href="#j"/>
</g>
</g>
<path d="m690.99 536.75v33.808q0 2.4 2.4 2.4h7.7425q2.4 0 2.4-2.4v-33.808q0-2.4-2.4-2.4h-7.7425q-2.4 0-2.4 2.4z" clip-path="url(#a)" fill="#fff" stroke="#fff"/>
<g clip-path="url(#a)">
<g transform="translate(695.05 536.75) rotate(90) scale(.08 -.08)">
<use xlink:href="#l"/>
<use x="44.083984" xlink:href="#d"/>
<use x="105.607422" xlink:href="#i"/>
<use x="144.970703" xlink:href="#k"/>
<use x="242.382812" xlink:href="#g"/>
<use x="270.166016" xlink:href="#e"/>
<use x="333.544922" xlink:href="#h"/>
<use x="394.824219" xlink:href="#j"/>
</g>
</g>
<path d="m759.65 536.75v33.808q0 2.4 2.4 2.4h7.7425q2.4 0 2.4-2.4v-33.808q0-2.4-2.4-2.4h-7.7425q-2.4 0-2.4 2.4z" clip-path="url(#a)" fill="#fff" stroke="#fff"/>
<g clip-path="url(#a)">
<g transform="translate(763.71 536.75) rotate(90) scale(.08 -.08)">
<use xlink:href="#l"/>
<use x="44.083984" xlink:href="#d"/>
<use x="105.607422" xlink:href="#i"/>
<use x="144.970703" xlink:href="#k"/>
<use x="242.382812" xlink:href="#g"/>
<use x="270.166016" xlink:href="#e"/>
<use x="333.544922" xlink:href="#h"/>
<use x="394.824219" xlink:href="#j"/>
</g>
</g>
<path d="m831.75 536.75v33.808q0 2.4 2.4 2.4h7.7425q2.4 0 2.4-2.4v-33.808q0-2.4-2.4-2.4h-7.7425q-2.4 0-2.4 2.4z" clip-path="url(#a)" fill="#fff" stroke="#fff"/>
<g clip-path="url(#a)">
<g transform="translate(835.81 536.75) rotate(90) scale(.08 -.08)">
<use xlink:href="#l"/>
<use x="44.083984" xlink:href="#d"/>
<use x="105.607422" xlink:href="#i"/>
<use x="144.970703" xlink:href="#k"/>
<use x="242.382812" xlink:href="#g"/>
<use x="270.166016" xlink:href="#e"/>
<use x="333.544922" xlink:href="#h"/>
<use x="394.824219" xlink:href="#j"/>
</g>
</g>
<path d="m1154.5 536.75v33.808q0 2.4 2.4 2.4h7.7425q2.4 0 2.4-2.4v-33.808q0-2.4-2.4-2.4h-7.7425q-2.4 0-2.4 2.4z" clip-path="url(#a)" fill="#fff" stroke="#fff"/>
<g clip-path="url(#a)">
<g transform="translate(1158.5 536.75) rotate(90) scale(.08 -.08)">
<use xlink:href="#l"/>
<use x="44.083984" xlink:href="#d"/>
<use x="105.607422" xlink:href="#i"/>
<use x="144.970703" xlink:href="#k"/>
<use x="242.382812" xlink:href="#g"/>
<use x="270.166016" xlink:href="#e"/>
<use x="333.544922" xlink:href="#h"/>
<use x="394.824219" xlink:href="#j"/>
</g>
</g>
<defs>
<path id="b" d="m0 8.6603c2.2967 0 4.4997-0.9125 6.1237-2.5365 1.624-1.624 2.5365-3.827 2.5365-6.1237s-0.9125-4.4997-2.5365-6.1237c-1.624-1.624-3.827-2.5365-6.1237-2.5365s-4.4997 0.9125-6.1237 2.5365c-1.624 1.624-2.5365 3.827-2.5365 6.1237s0.9125 4.4997 2.5365 6.1237c1.624 1.624 3.827 2.5365 6.1237 2.5365z"/>
</defs>
<g clip-path="url(#a)" fill="#ffffff" stroke="#ffffff">
<use x="55.272727" y="610.909091" xlink:href="#b"/>
<use x="65.571993" y="610.909091" xlink:href="#b"/>
<use x="79.304348" y="610.909091" xlink:href="#b"/>
<use x="96.469791" y="610.909091" xlink:href="#b"/>
<use x="117.068323" y="610.909091" xlink:href="#b"/>
<use x="141.099944" y="610.909091" xlink:href="#b"/>
<use x="168.564653" y="610.909091" xlink:href="#b"/>
<use x="199.462451" y="610.909091" xlink:href="#b"/>
<use x="233.793337" y="610.909091" xlink:href="#b"/>
<use x="271.557312" y="610.909091" xlink:href="#b"/>
<use x="312.754376" y="610.909091" xlink:href="#b"/>
<use x="357.384529" y="610.909091" xlink:href="#b"/>
<use x="405.44777" y="610.909091" xlink:href="#b"/>
<use x="456.944099" y="610.909091" xlink:href="#b"/>
<use x="511.873518" y="610.909091" xlink:href="#b"/>
<use x="570.236025" y="610.909091" xlink:href="#b"/>
<use x="632.031621" y="610.909091" xlink:href="#b"/>
<use x="697.260305" y="610.909091" xlink:href="#b"/>
<use x="765.922078" y="610.909091" xlink:href="#b"/>
<use x="838.01694" y="610.909091" xlink:href="#b"/>
<use x="913.54489" y="610.909091" xlink:href="#b"/>
<use x="992.505929" y="610.909091" xlink:href="#b"/>
<use x="1074.900056" y="610.909091" xlink:href="#b"/>
<use x="1160.727273" y="610.909091" xlink:href="#b"/>
<use x="389.928937" y="29.090909" xlink:href="#b"/>
<use x="138.175461" y="146.492019" xlink:href="#b"/>
<use x="869.77301" y="263.596881" xlink:href="#b"/>
<use x="515.306606" y="380.304537" xlink:href="#b"/>
<use x="913.54489" y="496.403265" xlink:href="#b"/>
<use x="992.505929" y="496.403265" xlink:href="#b"/>
<use x="1074.900056" y="496.403265" xlink:href="#b"/>
<use x="405.44777" y="496.403265" xlink:href="#b"/>
<use x="456.944099" y="496.403265" xlink:href="#b"/>
<use x="511.873518" y="496.403265" xlink:href="#b"/>
<use x="570.236025" y="496.403265" xlink:href="#b"/>
<use x="632.031621" y="496.403265" xlink:href="#b"/>
<use x="72.819625" y="263.596881" xlink:href="#b"/>
<use x="141.099944" y="496.403265" xlink:href="#b"/>
<use x="200.606813" y="380.304537" xlink:href="#b"/>
<use x="168.564653" y="496.403265" xlink:href="#b"/>
<use x="199.462451" y="496.403265" xlink:href="#b"/>
<use x="233.793337" y="496.403265" xlink:href="#b"/>
<use x="55.272727" y="496.403265" xlink:href="#b"/>
<use x="65.571993" y="496.403265" xlink:href="#b"/>
<use x="97.614154" y="380.304537" xlink:href="#b"/>
<use x="79.304348" y="496.403265" xlink:href="#b"/>
<use x="96.469791" y="496.403265" xlink:href="#b"/>
<use x="117.068323" y="496.403265" xlink:href="#b"/>
<use x="271.557312" y="496.403265" xlink:href="#b"/>
<use x="312.754376" y="496.403265" xlink:href="#b"/>
<use x="357.384529" y="496.403265" xlink:href="#b"/>
<use x="697.260305" y="496.403265" xlink:href="#b"/>
<use x="765.922078" y="496.403265" xlink:href="#b"/>
<use x="838.01694" y="496.403265" xlink:href="#b"/>
<use x="1160.727273" y="496.403265" xlink:href="#b"/>
</g>
<g clip-path="url(#a)">
<g transform="translate(46.957 613.67) scale(.1 -.1)">
<use xlink:href="#s"/>
<use x="77.001953" xlink:href="#g"/>
<use x="104.785156" xlink:href="#d"/>
</g>
</g>
<g clip-path="url(#a)">
<defs>
<path id="an" d="m3.3281 72.906h9.9531l15.328-61.625 15.281 61.625h11.094l15.328-61.625 15.281 61.625h10.016l-18.312-72.906h-12.406l-15.375 63.281-15.531-63.281h-12.406z"/>
<path id="al" d="m30.609 48.391q-7.2188 0-11.422-5.6406t-4.2031-15.453 4.1719-15.453q4.1875-5.6406 11.453-5.6406 7.1875 0 11.375 5.6562 4.2031 5.6719 4.2031 15.438 0 9.7188-4.2031 15.406-4.1875 5.6875-11.375 5.6875zm0 7.6094q11.719 0 18.406-7.625 6.7031-7.6094 6.7031-21.078 0-13.422-6.7031-21.078-6.6875-7.6406-18.406-7.6406-11.766 0-18.438 7.6406-6.6562 7.6562-6.6562 21.078 0 13.469 6.6562 21.078 6.6719 7.625 18.438 7.625z"/>
<path id="p" d="m18.312 70.219v-15.531h18.5v-6.9844h-18.5v-29.688q0-6.6875 1.8281-8.5938t7.4531-1.9062h9.2188v-7.5156h-9.2188q-10.406 0-14.359 3.875-3.9531 3.8906-3.9531 14.141v29.688h-6.5938v6.9844h6.5938v15.531z"/>
</defs>
<g transform="translate(50.77 613.67) scale(.1 -.1)">
<use xlink:href="#an"/>
<use x="93.001953" xlink:href="#al"/>
<use x="154.183594" xlink:href="#i"/>
<use x="195.296875" xlink:href="#p"/>
<use x="234.505859" xlink:href="#d"/>
</g>
</g>
<g clip-path="url(#a)">
<defs>
<path id="am" d="m45.406 46.391v29.594h8.9844v-75.984h-8.9844v8.2031q-2.8281-4.875-7.1562-7.25-4.3125-2.375-10.375-2.375-9.9062 0-16.141 7.9062-6.2188 7.9219-6.2188 20.812t6.2188 20.797q6.2344 7.9062 16.141 7.9062 6.0625 0 10.375-2.375 4.3281-2.3594 7.1562-7.2344zm-30.609-19.094q0-9.9062 4.0781-15.547t11.203-5.6406 11.219 5.6406q4.1094 5.6406 4.1094 15.547t-4.1094 15.547q-4.0938 5.6406-11.219 5.6406t-11.203-5.6406-4.0781-15.547z"/>
<path id="q" d="m44.281 53.078v-8.5q-3.7969 1.9531-7.9062 2.9219-4.0938 0.98438-8.5 0.98438-6.6875 0-10.031-2.0469t-3.3438-6.1562q0-3.125 2.3906-4.9062t9.625-3.3906l3.0781-0.6875q9.5625-2.0469 13.594-5.7812t4.0312-10.422q0-7.625-6.0312-12.078-6.0312-4.4375-16.578-4.4375-4.3906 0-9.1562 0.85938t-10.031 2.5625v9.2812q4.9844-2.5938 9.8125-3.8906 4.8281-1.2812 9.5781-1.2812 6.3438 0 9.75 2.1719 3.4219 2.1719 3.4219 6.125 0 3.6562-2.4688 5.6094-2.4531 1.9531-10.812 3.7656l-3.125 0.73438q-8.3438 1.75-12.062 5.3906-3.7031 3.6406-3.7031 9.9844 0 7.7188 5.4688 11.906 5.4688 4.2031 15.531 4.2031 4.9688 0 9.3594-0.73438 4.4062-0.71875 8.1094-2.1875z"/>
</defs>
<g transform="translate(70.449 613.67) scale(.1 -.1)">
<use xlink:href="#am"/>
<use x="63.476562" xlink:href="#d"/>
<use x="125" xlink:href="#q"/>
</g>
</g>
<g clip-path="url(#a)">
<defs>
<path id="au" d="m9.0781 75.984h9.0312v-44.875l26.812 23.578h11.469l-29-25.578 30.234-29.109h-11.719l-27.797 26.703v-26.703h-9.0312z"/>
</defs>
<g transform="translate(78.306 613.67) scale(.1 -.1)">
<use xlink:href="#au"/>
<use x="57.910156" xlink:href="#j"/>
<use x="85.693359" xlink:href="#d"/>
<use x="147.216797" xlink:href="#g"/>
<use x="175" xlink:href="#e"/>
<use x="238.378906" xlink:href="#d"/>
<use x="299.902344" xlink:href="#e"/>
</g>
</g>
<g clip-path="url(#a)">
<defs>
<path id="ak" d="m5.5156 54.688h42.672v-8.2031l-33.781-39.312h33.781v-7.1719h-43.891v8.2031l33.797 39.312h-32.578z"/>
</defs>
<g transform="translate(98.658 613.67) scale(.1 -.1)">
<use xlink:href="#v"/>
<use x="58.552734" xlink:href="#i"/>
<use x="99.666016" xlink:href="#g"/>
<use x="127.449219" xlink:href="#e"/>
<use x="190.828125" xlink:href="#ak"/>
<use x="243.318359" xlink:href="#d"/>
<use x="304.841797" xlink:href="#e"/>
</g>
</g>
<g clip-path="url(#a)">
<g transform="translate(122.08 613.67) scale(.1 -.1)">
<use xlink:href="#p"/>
<use x="39.208984" xlink:href="#h"/>
<use x="100.488281" xlink:href="#e"/>
<use x="163.867188" xlink:href="#ak"/>
<use x="216.357422" xlink:href="#p"/>
<use x="255.566406" xlink:href="#d"/>
<use x="317.089844" xlink:href="#e"/>
</g>
</g>
<g clip-path="url(#a)">
<defs>
<path id="t" d="m8.5 21.578v33.109h8.9844v-32.766q0-7.7656 3.0156-11.656 3.0312-3.875 9.0938-3.875 7.2656 0 11.484 4.6406 4.2344 4.6406 4.2344 12.656v31h8.9844v-54.688h-8.9844v8.4062q-3.2656-4.9844-7.5938-7.4062-4.3125-2.4219-10.031-2.4219-9.4219 0-14.312 5.8594-4.875 5.8594-4.875 17.141z"/>
<path id="y" d="m48.781 52.594v-8.4062q-3.8125 2.1094-7.6406 3.1562t-7.7344 1.0469q-8.75 0-13.594-5.5469-4.8281-5.5312-4.8281-15.547t4.8281-15.562q4.8438-5.5312 13.594-5.5312 3.9062 0 7.7344 1.0469t7.6406 3.1562v-8.3125q-3.7656-1.75-7.7969-2.625-4.0156-0.89062-8.5625-0.89062-12.359 0-19.641 7.7656-7.2656 7.7656-7.2656 20.953 0 13.375 7.3438 21.031 7.3594 7.6719 20.156 7.6719 4.1406 0 8.0938-0.85938 3.9531-0.84375 7.6719-2.5469z"/>
<path id="u" d="m54.891 33.016v-33.016h-8.9844v32.719q0 7.7656-3.0312 11.609-3.0312 3.8594-9.0781 3.8594-7.2812 0-11.484-4.6406-4.2031-4.625-4.2031-12.641v-30.906h-9.0312v75.984h9.0312v-29.797q3.2344 4.9375 7.5938 7.375 4.375 2.4375 10.094 2.4375 9.4219 0 14.25-5.8281 4.8438-5.8281 4.8438-17.156z"/>
</defs>
<g transform="translate(154.36 613.67) scale(.1 -.1)">
<use xlink:href="#am"/>
<use x="63.476562" xlink:href="#t"/>
<use x="126.855469" xlink:href="#i"/>
<use x="165.71875" xlink:href="#y"/>
<use x="220.699219" xlink:href="#u"/>
</g>
</g>
<g clip-path="url(#a)">
<g transform="translate(186.96 613.67) scale(.1 -.1)">
<use xlink:href="#k"/>
<use x="97.412109" xlink:href="#d"/>
<use x="158.935547" xlink:href="#g"/>
<use x="186.71875" xlink:href="#e"/>
</g>
</g>
<g clip-path="url(#a)">
<defs>
<path id="ao" d="m19.672 34.812v-26.703h15.828q7.9531 0 11.781 3.2969 3.8438 3.2969 3.8438 10.078 0 6.8438-3.8438 10.078-3.8281 3.25-11.781 3.25zm0 29.984v-21.969h14.609q7.2188 0 10.75 2.7031 3.5469 2.7188 3.5469 8.2812 0 5.5156-3.5469 8.25-3.5312 2.7344-10.75 2.7344zm-9.8594 8.1094h25.203q11.281 0 17.375-4.6875 6.1094-4.6875 6.1094-13.328 0-6.7031-3.125-10.656t-9.1875-4.9219q7.2812-1.5625 11.312-6.5312 4.0312-4.9531 4.0312-12.375 0-9.7656-6.6406-15.094-6.6406-5.3125-18.906-5.3125h-26.172z"/>
<path id="at" d="m4.2031 54.688h8.9844l11.234-42.672 11.172 42.672h10.594l11.234-42.672 11.188 42.672h8.9844l-14.312-54.688h-10.594l-11.766 44.828-11.812-44.828h-10.609z"/>
</defs>
<g transform="translate(202.62 613.67) scale(.1 -.1)">
<use xlink:href="#ao"/>
<use x="68.603516" xlink:href="#d"/>
<use x="130.126953" xlink:href="#at"/>
<use x="211.914062" xlink:href="#t"/>
<use x="275.292969" xlink:href="#q"/>
<use x="327.392578" xlink:href="#q"/>
<use x="379.492188" xlink:href="#p"/>
<use x="418.701172" xlink:href="#q"/>
<use x="470.800781" xlink:href="#d"/>
<use x="532.324219" xlink:href="#g"/>
<use x="560.107422" xlink:href="#e"/>
</g>
</g>
<g clip-path="url(#a)">
<defs>
<path id="aq" d="m11.719 12.406h10.297v-12.406h-10.297zm0 39.297h10.297v-12.391h-10.297z"/>
</defs>
<g transform="translate(269.87 613.67) scale(.1 -.1)">
<use xlink:href="#aq"/>
</g>
</g>
<g clip-path="url(#a)">
<defs>
<path id="ar" d="m4.8906 31.391h26.312v-8h-26.312z"/>
</defs>
<g transform="translate(310.95 613.67) scale(.1 -.1)">
<use xlink:href="#ar"/>
</g>
</g>
<g clip-path="url(#a)">
<defs>
<path id="aj" d="m17.922 72.906v-27.109h-8.2969v27.109zm18.453 0v-27.109h-8.2969v27.109z"/>
</defs>
<g transform="translate(355.08 613.67) scale(.1 -.1)">
<use xlink:href="#aj"/>
</g>
</g>
<g clip-path="url(#a)">
<g transform="translate(398.43 613.67) scale(.1 -.1)">
<use xlink:href="#s"/>
<use x="77.001953" xlink:href="#t"/>
</g>
</g>
<g clip-path="url(#a)">
<g transform="translate(446.15 613.67) scale(.1 -.1)">
<use xlink:href="#u"/>
<use x="63.378906" xlink:href="#h"/>
<use x="124.658203" xlink:href="#q"/>
<use x="176.757812" xlink:href="#p"/>
</g>
</g>
<g clip-path="url(#a)">
<g transform="translate(501.76 613.67) scale(.1 -.1)">
<use xlink:href="#h"/>
<use x="61.279297" xlink:href="#j"/>
<use x="89.0625" xlink:href="#q"/>
<use x="141.162109" xlink:href="#al"/>
</g>
</g>
<g clip-path="url(#a)">
<g transform="translate(558.09 613.67) scale(.1 -.1)">
<use xlink:href="#h"/>
<use x="61.279297" xlink:href="#t"/>
<use x="124.658203" xlink:href="#y"/>
<use x="179.638672" xlink:href="#u"/>
</g>
</g>
<g clip-path="url(#a)">
<g transform="translate(618.39 613.67) scale(.1 -.1)">
<use xlink:href="#s"/>
<use x="77.001953" xlink:href="#t"/>
<use x="140.380859" xlink:href="#i"/>
<use x="181.494141" xlink:href="#q"/>
<use x="233.59375" xlink:href="#p"/>
</g>
</g>
<g clip-path="url(#a)">
<defs>
<path id="ap" d="m19.094 12.406h9.9062v-12.406h-9.9062zm9.625 7.1719h-9.3281v7.5156q0 4.9375 1.3594 8.1094 1.375 3.1719 5.7656 7.375l4.3906 4.3438q2.7812 2.5938 4.0312 4.8906t1.25 4.6875q0 4.3438-3.2031 7.0312t-8.4688 2.6875q-3.8594 0-8.2344-1.7188-4.3594-1.7031-9.1094-4.9844v9.1875q4.5938 2.7812 9.2969 4.1406 4.7188 1.375 9.75 1.375 8.9844 0 14.422-4.7344 5.4531-4.7344 5.4531-12.5 0-3.7188-1.7656-7.0625-1.75-3.3438-6.1406-7.5312l-4.2969-4.2031q-2.2969-2.2969-3.25-3.5938t-1.3438-2.5156q-0.29688-1.0156-0.4375-2.4844t-0.14062-4z"/>
</defs>
<g transform="translate(694.61 613.67) scale(.1 -.1)">
<use xlink:href="#ap"/>
</g>
</g>
<g clip-path="url(#a)">
<g transform="translate(763.62 613.67) scale(.1 -.1)">
<use xlink:href="#aj"/>
</g>
</g>
<g clip-path="url(#a)">
<defs>
<path id="as" d="m11.719 12.406h10.297v-8.4062l-8-15.625h-6.2969l4 15.625z"/>
</defs>
<g transform="translate(836.43 613.67) scale(.1 -.1)">
<use xlink:href="#as"/>
</g>
</g>
<g clip-path="url(#a)">
<defs>
<path id="aw" d="m37.109 75.984v-7.4844h-8.5938q-4.8281 0-6.7188-1.9531-1.875-1.9531-1.875-7.0312v-4.8281h14.797v-6.9844h-14.797v-47.703h-9.0312v47.703h-8.5938v6.9844h8.5938v3.8125q0 9.125 4.25 13.297 4.25 4.1875 13.469 4.1875z"/>
<path id="av" d="m45.406 27.984q0 9.7656-4.0312 15.125-4.0156 5.375-11.297 5.375-7.2188 0-11.25-5.375-4.0312-5.3594-4.0312-15.125 0-9.7188 4.0312-15.094t11.25-5.375q7.2812 0 11.297 5.375 4.0312 5.375 4.0312 15.094zm8.9844-21.203q0-13.953-6.2031-20.766-6.1875-6.8125-18.984-6.8125-4.7344 0-8.9375 0.70312t-8.1562 2.1719v8.7344q3.9531-2.1406 7.8125-3.1562 3.8594-1.0312 7.8594-1.0312 8.8438 0 13.234 4.6094t4.3906 13.938v4.4531q-2.7812-4.8438-7.125-7.2344t-10.406-2.3906q-10.047 0-16.203 7.6562-6.1562 7.6719-6.1562 20.328 0 12.688 6.1562 20.344 6.1562 7.6719 16.203 7.6719 6.0625 0 10.406-2.3906t7.125-7.2188v8.2969h8.9844z"/>
</defs>
<g transform="translate(898.45 613.67) scale(.1 -.1)">
<use xlink:href="#aw"/>
<use x="35.205078" xlink:href="#i"/>
<use x="76.318359" xlink:href="#h"/>
<use x="137.597656" xlink:href="#av"/>
<use x="201.074219" xlink:href="#p"/>
<use x="240.283203" xlink:href="#d"/>
</g>
</g>
<g clip-path="url(#a)">
<g transform="translate(985.2 613.67) scale(.1 -.1)">
<use xlink:href="#g"/>
<use x="27.783203" xlink:href="#y"/>
<use x="82.763672" xlink:href="#u"/>
</g>
</g>
<g clip-path="url(#a)">
<g transform="translate(1067.2 613.67) scale(.1 -.1)">
<use xlink:href="#g"/>
<use x="27.783203" xlink:href="#u"/>
<use x="91.162109" xlink:href="#e"/>
</g>
</g>
<g clip-path="url(#a)">
<defs>
<path id="f" d="m10.688 12.406h10.312v-12.406h-10.312z"/>
</defs>
<g transform="translate(1159.1 613.67) scale(.1 -.1)">
<use xlink:href="#f"/>
</g>
</g>
<g clip-path="url(#a)">
<defs>
<path id="c" d="m12.406 8.2969h16.109v55.625l-17.531-3.5156v8.9844l17.438 3.5156h9.8594v-64.609h16.109v-8.2969h-41.984z"/>
</defs>
<g transform="translate(381.98 31.85) scale(.1 -.1)">
<use xlink:href="#c"/>
<use x="63.623047" xlink:href="#f"/>
<use x="95.410156" xlink:href="#c"/>
</g>
</g>
<g clip-path="url(#a)">
<defs>
<path id="m" d="m19.188 8.2969h34.422v-8.2969h-46.281v8.2969q5.6094 5.8125 15.297 15.594 9.7031 9.7969 12.188 12.641 4.7344 5.3125 6.6094 9 1.8906 3.6875 1.8906 7.25 0 5.8125-4.0781 9.4688-4.0781 3.6719-10.625 3.6719-4.6406 0-9.7969-1.6094-5.1406-1.6094-11-4.8906v9.9688q5.9531 2.3906 11.125 3.6094 5.1875 1.2188 9.4844 1.2188 11.328 0 18.062-5.6719 6.7344-5.6562 6.7344-15.125 0-4.5-1.6875-8.5312-1.6719-4.0156-6.125-9.4844-1.2188-1.4219-7.7656-8.1875-6.5312-6.7656-18.453-18.922z"/>
</defs>
<g transform="translate(130.22 149.25) scale(.1 -.1)">
<use xlink:href="#c"/>
<use x="63.623047" xlink:href="#f"/>
<use x="95.410156" xlink:href="#m"/>
</g>
</g>
<g clip-path="url(#a)">
<defs>
<path id="n" d="m40.578 39.312q7.0781-1.5156 11.047-6.3125 3.9844-4.7812 3.9844-11.812 0-10.781-7.4219-16.703-7.4219-5.9062-21.094-5.9062-4.5781 0-9.4375 0.90625t-10.031 2.7188v9.5156q4.0938-2.3906 8.9688-3.6094 4.8906-1.2188 10.219-1.2188 9.2656 0 14.125 3.6562t4.8594 10.641q0 6.4531-4.5156 10.078-4.5156 3.6406-12.562 3.6406h-8.5v8.1094h8.8906q7.2656 0 11.125 2.9062t3.8594 8.375q0 5.6094-3.9844 8.6094-3.9688 3.0156-11.391 3.0156-4.0625 0-8.7031-0.89062-4.6406-0.875-10.203-2.7188v8.7812q5.625 1.5625 10.531 2.3438t9.25 0.78125q11.234 0 17.766-5.1094 6.5469-5.0938 6.5469-13.781 0-6.0625-3.4688-10.234t-9.8594-5.7812z"/>
</defs>
<g transform="translate(861.82 266.36) scale(.1 -.1)">
<use xlink:href="#c"/>
<use x="63.623047" xlink:href="#f"/>
<use x="95.410156" xlink:href="#n"/>
</g>
</g>
<g clip-path="url(#a)">
<defs>
<path id="x" d="m8.2031 72.906h46.875v-4.2031l-26.469-68.703h-10.297l24.906 64.594h-35.016z"/>
</defs>
<g transform="translate(507.36 383.06) scale(.1 -.1)">
<use xlink:href="#c"/>
<use x="63.623047" xlink:href="#f"/>
<use x="95.410156" xlink:href="#x"/>
</g>
</g>
<g clip-path="url(#a)">
<defs>
<path id="w" d="m31.781 34.625q-7.0312 0-11.062-3.7656-4.0156-3.7656-4.0156-10.344 0-6.5938 4.0156-10.359 4.0312-3.7656 11.062-3.7656t11.078 3.7812q4.0625 3.7969 4.0625 10.344 0 6.5781-4.0312 10.344-4.0156 3.7656-11.109 3.7656zm-9.8594 4.1875q-6.3438 1.5625-9.8906 5.9062-3.5312 4.3594-3.5312 10.609 0 8.7344 6.2188 13.812 6.2344 5.0781 17.062 5.0781 10.891 0 17.094-5.0781t6.2031-13.812q0-6.25-3.5469-10.609-3.5312-4.3438-9.8281-5.9062 7.125-1.6562 11.094-6.5 3.9844-4.8281 3.9844-11.797 0-10.609-6.4688-16.281-6.4688-5.6562-18.531-5.6562-12.047 0-18.531 5.6562-6.4688 5.6719-6.4688 16.281 0 6.9688 4 11.797 4.0156 4.8438 11.141 6.5zm-3.6094 15.578q0-5.6562 3.5312-8.8281 3.5469-3.1719 9.9375-3.1719 6.3594 0 9.9375 3.1719 3.5938 3.1719 3.5938 8.8281 0 5.6719-3.5938 8.8438-3.5781 3.1719-9.9375 3.1719-6.3906 0-9.9375-3.1719-3.5312-3.1719-3.5312-8.8438z"/>
</defs>
<g transform="translate(905.59 499.16) scale(.1 -.1)">
<use xlink:href="#c"/>
<use x="63.623047" xlink:href="#f"/>
<use x="95.410156" xlink:href="#w"/>
</g>
</g>
<g clip-path="url(#a)">
<defs>
<path id="ab" d="m10.984 1.5156v8.9844q3.7188-1.7656 7.5156-2.6875 3.8125-0.92188 7.4844-0.92188 9.7656 0 14.906 6.5625 5.1562 6.5625 5.8906 19.953-2.8281-4.2031-7.1875-6.4531-4.3438-2.25-9.6094-2.25-10.938 0-17.312 6.6094-6.375 6.625-6.375 18.109 0 11.219 6.6406 18 6.6406 6.7969 17.672 6.7969 12.656 0 19.312-9.7031 6.6719-9.6875 6.6719-28.141 0-17.234-8.1875-27.516-8.1719-10.281-21.984-10.281-3.7188 0-7.5312 0.73438-3.7969 0.73438-7.9062 2.2031zm19.625 30.906q6.6406 0 10.516 4.5312 3.8906 4.5469 3.8906 12.469 0 7.8594-3.8906 12.422-3.875 4.5625-10.516 4.5625t-10.516-4.5625-3.875-12.422q0-7.9219 3.875-12.469 3.875-4.5312 10.516-4.5312z"/>
</defs>
<g transform="translate(984.55 499.16) scale(.1 -.1)">
<use xlink:href="#c"/>
<use x="63.623047" xlink:href="#f"/>
<use x="95.410156" xlink:href="#ab"/>
</g>
</g>
<g clip-path="url(#a)">
<defs>
<path id="ae" d="m31.781 66.406q-7.6094 0-11.453-7.5-3.8281-7.4844-3.8281-22.531 0-14.984 3.8281-22.484 3.8438-7.5 11.453-7.5 7.6719 0 11.5 7.5 3.8438 7.5 3.8438 22.484 0 15.047-3.8438 22.531-3.8281 7.5-11.5 7.5zm0 7.8125q12.266 0 18.734-9.7031 6.4688-9.6875 6.4688-28.141 0-18.406-6.4688-28.109-6.4688-9.6875-18.734-9.6875-12.25 0-18.719 9.6875-6.4688 9.7031-6.4688 28.109 0 18.453 6.4688 28.141 6.4688 9.7031 18.719 9.7031z"/>
</defs>
<g transform="translate(1063.8 499.16) scale(.1 -.1)">
<use xlink:href="#c"/>
<use x="63.623047" xlink:href="#f"/>
<use x="95.410156" xlink:href="#c"/>
<use x="159.033203" xlink:href="#ae"/>
</g>
</g>
<g clip-path="url(#a)">
<defs>
<path id="ad" d="m10.797 72.906h38.719v-8.3125h-29.688v-17.859q2.1406 0.73438 4.2812 1.0938 2.1562 0.35938 4.3125 0.35938 12.203 0 19.328-6.6875 7.1406-6.6875 7.1406-18.109 0-11.766-7.3281-18.297-7.3281-6.5156-20.656-6.5156-4.5938 0-9.3594 0.78125-4.75 0.78125-9.8281 2.3438v9.9219q4.3906-2.3906 9.0781-3.5625t9.9062-1.1719q8.4531 0 13.375 4.4375 4.9375 4.4375 4.9375 12.062 0 7.6094-4.9375 12.047-4.9219 4.4531-13.375 4.4531-3.9531 0-7.8906-0.875-3.9219-0.875-8.0156-2.7344z"/>
</defs>
<g transform="translate(394.31 499.16) scale(.1 -.1)">
<use xlink:href="#c"/>
<use x="63.623047" xlink:href="#f"/>
<use x="95.410156" xlink:href="#c"/>
<use x="159.033203" xlink:href="#ad"/>
</g>
</g>
<g clip-path="url(#a)">
<defs>
<path id="ac" d="m33.016 40.375q-6.6406 0-10.531-4.5469-3.875-4.5312-3.875-12.438 0-7.8594 3.875-12.438 3.8906-4.5625 10.531-4.5625t10.516 4.5625q3.875 4.5781 3.875 12.438 0 7.9062-3.875 12.438-3.875 4.5469-10.516 4.5469zm19.578 30.922v-8.9844q-3.7188 1.75-7.5 2.6719-3.7812 0.9375-7.5 0.9375-9.7656 0-14.922-6.5938-5.1406-6.5938-5.875-19.922 2.875 4.25 7.2188 6.5156 4.3594 2.2656 9.5781 2.2656 10.984 0 17.359-6.6719 6.375-6.6562 6.375-18.125 0-11.234-6.6406-18.031-6.6406-6.7812-17.672-6.7812-12.656 0-19.344 9.6875-6.6875 9.7031-6.6875 28.109 0 17.281 8.2031 27.562t22.016 10.281q3.7188 0 7.5-0.73438t7.8906-2.1875z"/>
</defs>
<g transform="translate(445.81 499.16) scale(.1 -.1)">
<use xlink:href="#c"/>
<use x="63.623047" xlink:href="#f"/>
<use x="95.410156" xlink:href="#c"/>
<use x="159.033203" xlink:href="#ac"/>
</g>
</g>
<g clip-path="url(#a)">
<g transform="translate(500.74 499.16) scale(.1 -.1)">
<use xlink:href="#c"/>
<use x="63.623047" xlink:href="#f"/>
<use x="95.410156" xlink:href="#c"/>
<use x="159.033203" xlink:href="#x"/>
</g>
</g>
<g clip-path="url(#a)">
<g transform="translate(559.1 499.16) scale(.1 -.1)">
<use xlink:href="#c"/>
<use x="63.623047" xlink:href="#f"/>
<use x="95.410156" xlink:href="#c"/>
<use x="159.033203" xlink:href="#w"/>
</g>
</g>
<g clip-path="url(#a)">
<g transform="translate(620.9 499.16) scale(.1 -.1)">
<use xlink:href="#c"/>
<use x="63.623047" xlink:href="#f"/>
<use x="95.410156" xlink:href="#c"/>
<use x="159.033203" xlink:href="#ab"/>
</g>
</g>
<g clip-path="url(#a)">
<g transform="translate(61.687 266.36) scale(.1 -.1)">
<use xlink:href="#c"/>
<use x="63.623047" xlink:href="#f"/>
<use x="95.410156" xlink:href="#m"/>
<use x="159.033203" xlink:href="#ae"/>
</g>
</g>
<g clip-path="url(#a)">
<g transform="translate(129.97 499.16) scale(.1 -.1)">
<use xlink:href="#c"/>
<use x="63.623047" xlink:href="#f"/>
<use x="95.410156" xlink:href="#m"/>
<use x="159.033203" xlink:href="#c"/>
</g>
</g>
<g clip-path="url(#a)">
<g transform="translate(189.47 383.06) scale(.1 -.1)">
<use xlink:href="#c"/>
<use x="63.623047" xlink:href="#f"/>
<use x="95.410156" xlink:href="#m"/>
<use x="159.033203" xlink:href="#m"/>
</g>
</g>
<g clip-path="url(#a)">
<g transform="translate(157.43 499.16) scale(.1 -.1)">
<use xlink:href="#c"/>
<use x="63.623047" xlink:href="#f"/>
<use x="95.410156" xlink:href="#m"/>
<use x="159.033203" xlink:href="#n"/>
</g>
</g>
<g clip-path="url(#a)">
<defs>
<path id="ai" d="m37.797 64.312-24.906-38.922h24.906zm-2.5938 8.5938h12.406v-47.516h10.406v-8.2031h-10.406v-17.188h-9.8125v17.188h-32.906v9.5156z"/>
</defs>
<g transform="translate(188.33 499.16) scale(.1 -.1)">
<use xlink:href="#c"/>
<use x="63.623047" xlink:href="#f"/>
<use x="95.410156" xlink:href="#m"/>
<use x="159.033203" xlink:href="#ai"/>
</g>
</g>
<g clip-path="url(#a)">
<g transform="translate(222.66 499.16) scale(.1 -.1)">
<use xlink:href="#c"/>
<use x="63.623047" xlink:href="#f"/>
<use x="95.410156" xlink:href="#m"/>
<use x="159.033203" xlink:href="#ad"/>
</g>
</g>
<g clip-path="url(#a)">
<g transform="translate(44.14 499.16) scale(.1 -.1)">
<use xlink:href="#c"/>
<use x="63.623047" xlink:href="#f"/>
<use x="95.410156" xlink:href="#m"/>
<use x="159.033203" xlink:href="#ac"/>
</g>
</g>
<g clip-path="url(#a)">
<g transform="translate(54.439 499.16) scale(.1 -.1)">
<use xlink:href="#c"/>
<use x="63.623047" xlink:href="#f"/>
<use x="95.410156" xlink:href="#m"/>
<use x="159.033203" xlink:href="#x"/>
</g>
</g>
<g clip-path="url(#a)">
<g transform="translate(86.481 383.06) scale(.1 -.1)">
<use xlink:href="#c"/>
<use x="63.623047" xlink:href="#f"/>
<use x="95.410156" xlink:href="#m"/>
<use x="159.033203" xlink:href="#w"/>
</g>
</g>
<g clip-path="url(#a)">
<g transform="translate(68.172 499.16) scale(.1 -.1)">
<use xlink:href="#c"/>
<use x="63.623047" xlink:href="#f"/>
<use x="95.410156" xlink:href="#m"/>
<use x="159.033203" xlink:href="#ab"/>
</g>
</g>
<g clip-path="url(#a)">
<g transform="translate(85.337 499.16) scale(.1 -.1)">
<use xlink:href="#c"/>
<use x="63.623047" xlink:href="#f"/>
<use x="95.410156" xlink:href="#n"/>
<use x="159.033203" xlink:href="#ae"/>
</g>
</g>
<g clip-path="url(#a)">
<g transform="translate(105.94 499.16) scale(.1 -.1)">
<use xlink:href="#c"/>
<use x="63.623047" xlink:href="#f"/>
<use x="95.410156" xlink:href="#n"/>
<use x="159.033203" xlink:href="#c"/>
</g>
</g>
<g clip-path="url(#a)">
<g transform="translate(260.42 499.16) scale(.1 -.1)">
<use xlink:href="#c"/>
<use x="63.623047" xlink:href="#f"/>
<use x="95.410156" xlink:href="#n"/>
<use x="159.033203" xlink:href="#m"/>
</g>
</g>
<g clip-path="url(#a)">
<g transform="translate(301.62 499.16) scale(.1 -.1)">
<use xlink:href="#c"/>
<use x="63.623047" xlink:href="#f"/>
<use x="95.410156" xlink:href="#n"/>
<use x="159.033203" xlink:href="#n"/>
</g>
</g>
<g clip-path="url(#a)">
<g transform="translate(346.25 499.16) scale(.1 -.1)">
<use xlink:href="#c"/>
<use x="63.623047" xlink:href="#f"/>
<use x="95.410156" xlink:href="#n"/>
<use x="159.033203" xlink:href="#ai"/>
</g>
</g>
<g clip-path="url(#a)">
<g transform="translate(686.13 499.16) scale(.1 -.1)">
<use xlink:href="#c"/>
<use x="63.623047" xlink:href="#f"/>
<use x="95.410156" xlink:href="#n"/>
<use x="159.033203" xlink:href="#ad"/>
</g>
</g>
<g clip-path="url(#a)">
<g transform="translate(754.79 499.16) scale(.1 -.1)">
<use xlink:href="#c"/>
<use x="63.623047" xlink:href="#f"/>
<use x="95.410156" xlink:href="#n"/>
<use x="159.033203" xlink:href="#ac"/>
</g>
</g>
<g clip-path="url(#a)">
<g transform="translate(826.88 499.16) scale(.1 -.1)">
<use xlink:href="#c"/>
<use x="63.623047" xlink:href="#f"/>
<use x="95.410156" xlink:href="#n"/>
<use x="159.033203" xlink:href="#x"/>
</g>
</g>
<g clip-path="url(#a)">
<g transform="translate(1149.6 499.16) scale(.1 -.1)">
<use xlink:href="#c"/>
<use x="63.623047" xlink:href="#f"/>
<use x="95.410156" xlink:href="#n"/>
<use x="159.033203" xlink:href="#w"/>
</g>
</g>
<defs>
<clipPath id="a">
<rect width="1216" height="640"/>
</clipPath>
</defs>
</svg>
