<?xml version="1.0" encoding="UTF-8"?>
<!DOCTYPE svg  PUBLIC '-//W3C//DTD SVG 1.1//EN'  'http://www.w3.org/Graphics/SVG/1.1/DTD/svg11.dtd'>
<svg width="2077.3pt" height="1093.3pt" version="1.1" viewBox="0 0 2077.3 1093.3" xmlns="http://www.w3.org/2000/svg" xmlns:xlink="http://www.w3.org/1999/xlink">
<defs>
<style type="text/css">*{stroke-linecap:butt;stroke-linejoin:round;}</style>
</defs>
<path d="m0 1093.3h2077.3v-1093.3h-2077.3z" fill="#fff"/>
<g fill="none" stroke="#000">
<path d="m176.95 49.697-82.525 854.68" clip-path="url(#a)"/>
<path d="m176.95 49.697 82.525 143.3" clip-path="url(#a)"/>
<path d="m94.424 904.38v139.26" clip-path="url(#a)"/>
<path d="m259.48 193-158.76 711.38" clip-path="url(#a)"/>
<path d="m259.48 193-139.17 570.19" clip-path="url(#a)"/>
<path d="m259.48 193-104.2 711.38" clip-path="url(#a)"/>
<path d="m259.48 193 567.84 143.06" clip-path="url(#a)"/>
<path d="m259.48 193-76.922 711.38" clip-path="url(#a)"/>
<path d="m259.48 193-55.938 711.38" clip-path="url(#a)"/>
<path d="m259.48 193-32.857 711.38" clip-path="url(#a)"/>
<path d="m100.72 904.38v139.26" clip-path="url(#a)"/>
<path d="m120.3 763.19-11.191 141.19" clip-path="url(#a)"/>
<path d="m120.3 763.19-0.69944 141.19" clip-path="url(#a)"/>
<path d="m120.3 763.19 11.89 141.19" clip-path="url(#a)"/>
<path d="m155.28 904.38-8.3933 139.26" clip-path="url(#a)"/>
<path d="m155.28 904.38 8.3933 139.26" clip-path="url(#a)"/>
<path d="m827.32 336.06-575.52 427.12" clip-path="url(#a)"/>
<path d="m827.32 336.06-426.51 142.78" clip-path="url(#a)"/>
<path d="m827.32 336.06 201.9 285.19" clip-path="url(#a)"/>
<path d="m827.32 336.06 896.3 285.19" clip-path="url(#a)"/>
<path d="m827.32 336.06-548.24 568.32" clip-path="url(#a)"/>
<path d="m827.32 336.06-57.238 568.32" clip-path="url(#a)"/>
<path d="m827.32 336.06 509.31 568.32" clip-path="url(#a)"/>
<path d="m251.8 763.19v141.19" clip-path="url(#a)"/>
<path d="m400.81 478.84-92.361 425.54" clip-path="url(#a)"/>
<path d="m400.81 478.84-60.886 425.54" clip-path="url(#a)"/>
<path d="m400.81 478.84-27.313 425.54" clip-path="url(#a)"/>
<path d="m400.81 478.84 172.2 142.42" clip-path="url(#a)"/>
<path d="m400.81 478.84 8.3583 425.54" clip-path="url(#a)"/>
<path d="m1029.2 621.26-204.59 283.12" clip-path="url(#a)"/>
<path d="m1029.2 621.26-147.93 283.12" clip-path="url(#a)"/>
<path d="m1029.2 621.26-89.178 283.12" clip-path="url(#a)"/>
<path d="m1029.2 621.26-28.327 283.12" clip-path="url(#a)"/>
<path d="m1029.2 621.26 67.146 141.93" clip-path="url(#a)"/>
<path d="m1029.2 621.26 166.82 283.12" clip-path="url(#a)"/>
<path d="m1029.2 621.26 236.06 283.12" clip-path="url(#a)"/>
<path d="m1723.6 621.26-275.78 141.93" clip-path="url(#a)"/>
<path d="m1723.6 621.26-160.37 283.12" clip-path="url(#a)"/>
<path d="m1723.6 621.26-80.635 283.12" clip-path="url(#a)"/>
<path d="m1723.6 621.26 1.199 283.12" clip-path="url(#a)"/>
<path d="m1723.6 621.26 85.132 283.12" clip-path="url(#a)"/>
<path d="m1723.6 621.26 171.16 283.12" clip-path="url(#a)"/>
<path d="m1723.6 621.26 259.29 283.12" clip-path="url(#a)"/>
<path d="m1447.8 763.19-37.77 141.19" clip-path="url(#a)"/>
<path d="m1447.8 763.19 37.77 141.19" clip-path="url(#a)"/>
<path d="m1563.2 904.38v139.26" clip-path="url(#a)"/>
<path d="m1643 904.38v139.26" clip-path="url(#a)"/>
<path d="m1724.8 904.38v139.26" clip-path="url(#a)"/>
<path d="m1808.7 904.38v139.26" clip-path="url(#a)"/>
<path d="m1410.1 904.38v139.26" clip-path="url(#a)"/>
<path d="m1485.6 904.38v139.26" clip-path="url(#a)"/>
<path d="m824.64 904.38v139.26" clip-path="url(#a)"/>
<path d="m881.29 904.38v139.26" clip-path="url(#a)"/>
<path d="m940.05 904.38v139.26" clip-path="url(#a)"/>
<path d="m1000.9 904.38v139.26" clip-path="url(#a)"/>
<path d="m1096.4 763.19-32.524 141.19" clip-path="url(#a)"/>
<path d="m1096.4 763.19 32.524 141.19" clip-path="url(#a)"/>
<path d="m1196 904.38v139.26" clip-path="url(#a)"/>
<path d="m1265.3 904.38v139.26" clip-path="url(#a)"/>
<path d="m1063.8 904.38v139.26" clip-path="url(#a)"/>
<path d="m1128.9 904.38v139.26" clip-path="url(#a)"/>
<path d="m308.45 904.38v139.26" clip-path="url(#a)"/>
<path d="m339.93 904.38v139.26" clip-path="url(#a)"/>
<path d="m373.5 904.38v139.26" clip-path="url(#a)"/>
<path d="m573.02 621.26-126.07 283.12" clip-path="url(#a)"/>
<path d="m573.02 621.26-65.223 141.93" clip-path="url(#a)"/>
<path d="m573.02 621.26 46.688 141.93" clip-path="url(#a)"/>
<path d="m573.02 621.26 144.61 283.12" clip-path="url(#a)"/>
<path d="m446.94 904.38v139.26" clip-path="url(#a)"/>
<path d="m507.79 763.19-20.983 141.19" clip-path="url(#a)"/>
<path d="m507.79 763.19 20.983 141.19" clip-path="url(#a)"/>
<path d="m619.7 763.19-46.862 141.19" clip-path="url(#a)"/>
<path d="m619.7 763.19-0.69944 141.19" clip-path="url(#a)"/>
<path d="m619.7 763.19 47.562 141.19" clip-path="url(#a)"/>
<path d="m717.62 904.38v139.26" clip-path="url(#a)"/>
<path d="m572.84 904.38v139.26" clip-path="url(#a)"/>
<path d="m619 904.38v139.26" clip-path="url(#a)"/>
<path d="m667.26 904.38v139.26" clip-path="url(#a)"/>
<path d="m486.81 904.38v139.26" clip-path="url(#a)"/>
<path d="m528.78 904.38v139.26" clip-path="url(#a)"/>
<path d="m251.8 904.38v139.26" clip-path="url(#a)"/>
<path d="m109.11 904.38v139.26" clip-path="url(#a)"/>
<path d="m119.6 904.38v139.26" clip-path="url(#a)"/>
<path d="m132.19 904.38v139.26" clip-path="url(#a)"/>
<path d="m182.55 904.38v139.26" clip-path="url(#a)"/>
<path d="m203.54 904.38v139.26" clip-path="url(#a)"/>
<path d="m226.62 904.38v139.26" clip-path="url(#a)"/>
<path d="m279.08 904.38v139.26" clip-path="url(#a)"/>
<path d="m409.17 904.38v139.26" clip-path="url(#a)"/>
<path d="m770.08 904.38v139.26" clip-path="url(#a)"/>
<path d="m1336.6 904.38v139.26" clip-path="url(#a)"/>
<path d="m1894.8 904.38v139.26" clip-path="url(#a)"/>
<path d="m1982.9 904.38v139.26" clip-path="url(#a)"/>
</g>
<path d="m141.71 479.86 0.42841-4.4369q0.23066-2.3889-2.1582-2.6196l-7.7067-0.74413q-2.3889-0.23066-2.6196 2.1582l-0.42841 4.4369q-0.23066 2.3889 2.1582 2.6196l7.7067 0.74413q2.3889 0.23066 2.6196-2.1582z" clip-path="url(#a)" fill="#fff" stroke="#fff"/>
<g clip-path="url(#a)">
<defs>
<path id="ar" d="m9.8125 72.906h9.8594v-64.609h35.5v-8.2969h-45.359z"/>
</defs>
<g transform="translate(137.67 479.47) rotate(-84.485) scale(.08 -.08)">
<use xlink:href="#ar"/>
</g>
</g>
<path d="m211.28 121.87 3.0024 5.2135q1.1977 2.0798 3.2775 0.88208l6.7095-3.8638q2.0798-1.1977 0.88208-3.2775l-3.0024-5.2135q-1.1977-2.0798-3.2775-0.88208l-6.7095 3.8638q-2.0798 1.1977-0.88208 3.2775z" clip-path="url(#a)" fill="#fff" stroke="#fff"/>
<g clip-path="url(#a)">
<defs>
<path id="y" d="m9.8125 72.906h9.8594v-29.891h35.844v29.891h9.8594v-72.906h-9.8594v34.719h-35.844v-34.719h-9.8594z"/>
</defs>
<g transform="translate(214.8 119.84) rotate(60.063) scale(.08 -.08)">
<use xlink:href="#y"/>
</g>
</g>
<path d="m88.153 957.11v33.808q0 2.4 2.4 2.4h7.7425q2.4 0 2.4-2.4v-33.808q0-2.4-2.4-2.4h-7.7425q-2.4 0-2.4 2.4z" clip-path="url(#a)" fill="#fff" stroke="#fff"/>
<g clip-path="url(#a)">
<defs>
<path id="l" d="m-0.29688 72.906h61.672v-8.3125h-25.875v-64.594h-9.9062v64.594h-25.891z"/>
<path id="d" d="m56.203 29.594v-4.3906h-41.312q0.59375-9.2812 5.5938-14.141t13.938-4.8594q5.1719 0 10.031 1.2656t9.6562 3.8125v-8.5q-4.8438-2.0469-9.9219-3.125t-10.297-1.0781q-13.094 0-20.734 7.6094-7.6406 7.625-7.6406 20.625 0 13.422 7.25 21.297 7.25 7.8906 19.562 7.8906 11.031 0 17.453-7.1094 6.4219-7.0938 6.4219-19.297zm-8.9844 2.6406q-0.09375 7.3594-4.125 11.75-4.0312 4.4062-10.672 4.4062-7.5156 0-12.031-4.25t-5.2031-11.969z"/>
<path id="f" d="m41.109 46.297q-1.5156 0.875-3.2969 1.2812-1.7812 0.42188-3.9219 0.42188-7.625 0-11.703-4.9531t-4.0781-14.234v-28.812h-9.0312v54.688h9.0312v-8.5q2.8438 4.9844 7.375 7.3906 4.5469 2.4219 11.047 2.4219 0.92188 0 2.0469-0.125 1.125-0.10938 2.4844-0.35938z"/>
<path id="j" d="m52 44.188q3.375 6.0625 8.0625 8.9375t11.031 2.875q8.5469 0 13.188-5.9844 4.6406-5.9688 4.6406-17v-33.016h-9.0312v32.719q0 7.8594-2.7969 11.656-2.7812 3.8125-8.4844 3.8125-6.9844 0-11.047-4.6406-4.0469-4.625-4.0469-12.641v-30.906h-9.0312v32.719q0 7.9062-2.7812 11.688t-8.5938 3.7812q-6.8906 0-10.953-4.6562-4.0469-4.6562-4.0469-12.625v-30.906h-9.0312v54.688h9.0312v-8.5q3.0781 5.0312 7.375 7.4219t10.203 2.3906q5.9688 0 10.141-3.0312 4.1719-3.0156 6.1719-8.7812z"/>
<path id="h" d="m9.4219 54.688h8.9844v-54.688h-8.9844zm0 21.297h8.9844v-11.391h-8.9844z"/>
<path id="g" d="m54.891 33.016v-33.016h-8.9844v32.719q0 7.7656-3.0312 11.609-3.0312 3.8594-9.0781 3.8594-7.2812 0-11.484-4.6406-4.2031-4.625-4.2031-12.641v-30.906h-9.0312v54.688h9.0312v-8.5q3.2344 4.9375 7.5938 7.375 4.375 2.4375 10.094 2.4375 9.4219 0 14.25-5.8281 4.8438-5.8281 4.8438-17.156z"/>
<path id="i" d="m34.281 27.484q-10.891 0-15.094-2.4844t-4.2031-8.5q0-4.7812 3.1562-7.5938 3.1562-2.7969 8.5625-2.7969 7.4844 0 12 5.2969t4.5156 14.078v2zm17.922 3.7188v-31.203h-8.9844v8.2969q-3.0781-4.9688-7.6719-7.3438t-11.234-2.375q-8.3906 0-13.359 4.7188-4.9531 4.7188-4.9531 12.625 0 9.2188 6.1719 13.906 6.1875 4.6875 18.438 4.6875h12.609v0.89062q0 6.2031-4.0781 9.5938t-11.453 3.3906q-4.6875 0-9.1406-1.125-4.4375-1.125-8.5312-3.375v8.3125q4.9219 1.9062 9.5625 2.8438 4.6406 0.95312 9.0312 0.95312 11.875 0 17.734-6.1562 5.8594-6.1406 5.8594-18.641z"/>
<path id="k" d="m9.4219 75.984h8.9844v-75.984h-8.9844z"/>
</defs>
<g transform="translate(92.217 957.11) rotate(90) scale(.08 -.08)">
<use xlink:href="#l"/>
<use x="44.083984" xlink:href="#d"/>
<use x="105.607422" xlink:href="#f"/>
<use x="144.970703" xlink:href="#j"/>
<use x="242.382812" xlink:href="#h"/>
<use x="270.166016" xlink:href="#g"/>
<use x="333.544922" xlink:href="#i"/>
<use x="394.824219" xlink:href="#k"/>
</g>
</g>
<path d="m185.69 552.41 1.0507-4.7079q0.52274-2.3424-1.8196-2.8651l-7.5566-1.6864q-2.3424-0.52274-2.8651 1.8196l-1.0507 4.7079q-0.52274 2.3424 1.8196 2.8651l7.5566 1.6864q2.3424 0.52274 2.8651-1.8196z" clip-path="url(#a)" fill="#fff" stroke="#fff"/>
<g clip-path="url(#a)">
<defs>
<path id="ai" d="m19.672 64.797v-27.391h12.406q6.8906 0 10.641 3.5625 3.7656 3.5625 3.7656 10.156 0 6.5469-3.7656 10.109-3.75 3.5625-10.641 3.5625zm-9.8594 8.1094h22.266q12.266 0 18.531-5.5469 6.2812-5.5469 6.2812-16.234 0-10.797-6.2812-16.312-6.2656-5.5156-18.531-5.5156h-12.406v-29.297h-9.8594z"/>
</defs>
<g transform="translate(181.73 551.53) rotate(-77.42) scale(.08 -.08)">
<use xlink:href="#ai"/>
</g>
</g>
<path d="m195.33 482.24 1.2976-5.3164q0.56909-2.3316-1.7625-2.9006l-7.5217-1.8359q-2.3316-0.56909-2.9006 1.7625l-1.2976 5.3164q-0.56909 2.3316 1.7625 2.9006l7.5217 1.8359q2.3316 0.56909 2.9006-1.7625z" clip-path="url(#a)" fill="#fff" stroke="#fff"/>
<g clip-path="url(#a)">
<defs>
<path id="q" d="m34.188 63.188-13.391-36.281h26.812zm-5.5781 9.7188h11.188l27.781-72.906h-10.25l-6.6406 18.703h-32.859l-6.6406-18.703h-10.406z"/>
</defs>
<g transform="translate(191.39 481.28) rotate(-76.283) scale(.08 -.08)">
<use xlink:href="#q"/>
</g>
</g>
<path d="m213.13 552.65 0.89276-6.095q0.34783-2.3747-2.0268-2.7225l-7.6608-1.1221q-2.3747-0.34783-2.7225 2.0268l-0.89276 6.095q-0.34783 2.3747 2.0268 2.7225l7.6608 1.1221q2.3747 0.34783 2.7225-2.0268z" clip-path="url(#a)" fill="#fff" stroke="#fff"/>
<g clip-path="url(#a)">
<defs>
<path id="ac" d="m19.672 64.797v-56.688h11.922q15.094 0 22.094 6.8281 7 6.8438 7 21.594 0 14.641-7 21.453t-22.094 6.8125zm-9.8594 8.1094h20.266q21.188 0 31.094-8.8125 9.9219-8.8125 9.9219-27.562 0-18.859-9.9688-27.703-9.9531-8.8281-31.047-8.8281h-20.266z"/>
</defs>
<g transform="translate(209.11 552.06) rotate(-81.667) scale(.08 -.08)">
<use xlink:href="#ac"/>
</g>
</g>
<path d="m539.21 269.95 5.3067 1.337q2.3273 0.58634 2.9136-1.7409l1.8916-7.5079q0.58634-2.3273-1.7409-2.9136l-5.3067-1.337q-2.3273-0.58634-2.9136 1.7409l-1.8916 7.5079q-0.58634 2.3273 1.7409 2.9136z" clip-path="url(#a)" fill="#fff" stroke="#fff"/>
<g clip-path="url(#a)">
<g transform="translate(540.2 266) rotate(14.141) scale(.08 -.08)">
<use xlink:href="#q"/>
</g>
</g>
<path d="m226.93 552.28 0.62943-5.8211q0.25801-2.3861-2.1281-2.6441l-7.6976-0.83234q-2.3861-0.25801-2.6441 2.1281l-0.62943 5.8211q-0.25801 2.3861 2.1281 2.6441l7.6976 0.83234q2.3861 0.25801 2.6441-2.1281z" clip-path="url(#a)" fill="#fff" stroke="#fff"/>
<g clip-path="url(#a)">
<defs>
<path id="s" d="m8.6875 72.906h9.9219v-44.297q0-11.719 4.2344-16.875 4.25-5.1406 13.781-5.1406 9.4688 0 13.719 5.1406 4.25 5.1562 4.25 16.875v44.297h9.9062v-45.516q0-14.25-7.0625-21.531-7.0469-7.2812-20.812-7.2812-13.828 0-20.891 7.2812-7.0469 7.2812-7.0469 21.531z"/>
</defs>
<g transform="translate(222.89 551.84) rotate(-83.829) scale(.08 -.08)">
<use xlink:href="#s"/>
</g>
</g>
<path d="m237.53 552.1 0.45898-5.837q0.18814-2.3926-2.2045-2.5808l-7.7187-0.60695q-2.3926-0.18814-2.5808 2.2045l-0.45898 5.837q-0.18814 2.3926 2.2045 2.5808l7.7187 0.60695q2.3926 0.18814 2.5808-2.2045z" clip-path="url(#a)" fill="#fff" stroke="#fff"/>
<g clip-path="url(#a)">
<g transform="translate(233.48 551.78) rotate(-85.504) scale(.08 -.08)">
<use xlink:href="#s"/>
</g>
</g>
<path d="m249.18 551.9 0.27014-5.8488q0.11073-2.3974-2.2867-2.5082l-7.7343-0.35723q-2.3974-0.11073-2.5082 2.2867l-0.27014 5.8488q-0.11073 2.3974 2.2867 2.5082l7.7343 0.35723q2.3974 0.11073 2.5082-2.2867z" clip-path="url(#a)" fill="#fff" stroke="#fff"/>
<g clip-path="url(#a)">
<g transform="translate(245.12 551.72) rotate(-87.356) scale(.08 -.08)">
<use xlink:href="#s"/>
</g>
</g>
<path d="m94.448 957.11v33.808q0 2.4 2.4 2.4h7.7425q2.4 0 2.4-2.4v-33.808q0-2.4-2.4-2.4h-7.7425q-2.4 0-2.4 2.4z" clip-path="url(#a)" fill="#fff" stroke="#fff"/>
<g clip-path="url(#a)">
<g transform="translate(98.512 957.11) rotate(90) scale(.08 -.08)">
<use xlink:href="#l"/>
<use x="44.083984" xlink:href="#d"/>
<use x="105.607422" xlink:href="#f"/>
<use x="144.970703" xlink:href="#j"/>
<use x="242.382812" xlink:href="#h"/>
<use x="270.166016" xlink:href="#g"/>
<use x="333.544922" xlink:href="#i"/>
<use x="394.824219" xlink:href="#k"/>
</g>
</g>
<path d="m120.78 836.57 0.36356-4.5869q0.18963-2.3925-2.2029-2.5821l-7.7183-0.61176q-2.3925-0.18963-2.5821 2.2029l-0.36356 4.5869q-0.18963 2.3925 2.2029 2.5821l7.7183 0.61176q2.3925 0.18963 2.5821-2.2029z" clip-path="url(#a)" fill="#fff" stroke="#fff"/>
<g clip-path="url(#a)">
<defs>
<path id="ab" d="m9.8125 72.906h41.891v-8.3125h-32.031v-21.484h28.906v-8.2969h-28.906v-34.812h-9.8594z"/>
</defs>
<g transform="translate(116.73 836.25) rotate(-85.468) scale(.08 -.08)">
<use xlink:href="#ab"/>
</g>
</g>
<path d="m126.21 836.34 0.025041-5.0549q0.011889-2.4-2.3881-2.4119l-7.7424-0.038355q-2.4-0.011889-2.4119 2.3881l-0.025041 5.0549q-0.011889 2.4 2.3881 2.4119l7.7424 0.038355q2.4 0.011889 2.4119-2.3881z" clip-path="url(#a)" fill="#fff" stroke="#fff"/>
<g clip-path="url(#a)">
<defs>
<path id="al" d="m9.8125 72.906h46.094v-8.3125h-36.234v-21.578h34.719v-8.2969h-34.719v-26.422h37.109v-8.2969h-46.969z"/>
</defs>
<g transform="translate(122.15 836.32) rotate(-89.716) scale(.08 -.08)">
<use xlink:href="#al"/>
</g>
</g>
<path d="m119.77 831.53 0.46878 5.5665q0.2014 2.3915 2.5929 2.1901l7.7152-0.64973q2.3915-0.2014 2.1901-2.5929l-0.46878-5.5665q-0.2014-2.3915-2.5929-2.1901l-7.7152 0.64973q-2.3915 0.2014-2.1901 2.5929z" clip-path="url(#a)" fill="#fff" stroke="#fff"/>
<g clip-path="url(#a)">
<defs>
<path id="ad" d="m64.406 67.281v-10.391q-4.9844 4.6406-10.625 6.9219-5.6406 2.2969-11.984 2.2969-12.5 0-19.141-7.6406t-6.6406-22.094q0-14.406 6.6406-22.047t19.141-7.6406q6.3438 0 11.984 2.2969t10.625 6.9375v-10.312q-5.1719-3.5156-10.969-5.2812-5.7812-1.75-12.219-1.75-16.562 0-26.094 10.125-9.5156 10.141-9.5156 27.672 0 17.578 9.5156 27.703 9.5312 10.141 26.094 10.141 6.5312 0 12.312-1.7344 5.7969-1.7344 10.875-5.2031z"/>
</defs>
<g transform="translate(123.81 831.19) rotate(85.186) scale(.08 -.08)">
<use xlink:href="#ad"/>
</g>
</g>
<path d="m156.32 991.26 2.034-33.746q0.14439-2.3957-2.2513-2.54l-7.7285-0.46582q-2.3957-0.14439-2.54 2.2513l-2.034 33.746q-0.14439 2.3957 2.2513 2.54l7.7285 0.46582q2.3957 0.14439 2.54-2.2513z" clip-path="url(#a)" fill="#fff" stroke="#fff"/>
<g clip-path="url(#a)">
<g transform="translate(152.27 991.01) rotate(-86.551) scale(.08 -.08)">
<use xlink:href="#l"/>
<use x="44.083984" xlink:href="#d"/>
<use x="105.607422" xlink:href="#f"/>
<use x="144.970703" xlink:href="#j"/>
<use x="242.382812" xlink:href="#h"/>
<use x="270.166016" xlink:href="#g"/>
<use x="333.544922" xlink:href="#i"/>
<use x="394.824219" xlink:href="#k"/>
</g>
</g>
<path d="m152.2 957.51 2.034 33.746q0.14439 2.3957 2.54 2.2513l7.7285-0.46582q2.3957-0.14439 2.2513-2.54l-2.034-33.746q-0.14439-2.3957-2.54-2.2513l-7.7285 0.46582q-2.3957 0.14439-2.2513 2.54z" clip-path="url(#a)" fill="#fff" stroke="#fff"/>
<g clip-path="url(#a)">
<g transform="translate(156.25 957.27) rotate(86.551) scale(.08 -.08)">
<use xlink:href="#l"/>
<use x="44.083984" xlink:href="#d"/>
<use x="105.607422" xlink:href="#f"/>
<use x="144.970703" xlink:href="#j"/>
<use x="242.382812" xlink:href="#h"/>
<use x="270.166016" xlink:href="#g"/>
<use x="333.544922" xlink:href="#i"/>
<use x="394.824219" xlink:href="#k"/>
</g>
</g>
<path d="m540.88 556.46 4.8311-3.5854q1.9272-1.4303 0.49693-3.3575l-4.6142-6.2173q-1.4303-1.9272-3.3575-0.49693l-4.8311 3.5854q-1.9272 1.4303-0.49693 3.3575l4.6142 6.2173q1.4303 1.9272 3.3575 0.49693z" clip-path="url(#a)" fill="#fff" stroke="#fff"/>
<g clip-path="url(#a)">
<g transform="translate(538.46 553.19) rotate(-36.581) scale(.08 -.08)">
<use xlink:href="#y"/>
</g>
</g>
<path d="m613.2 414.35 5.7051-1.9098q2.2759-0.76186 1.514-3.0377l-2.4578-7.342q-0.76186-2.2759-3.0377-1.514l-5.7051 1.9098q-2.2759 0.76186-1.514 3.0377l2.4578 7.342q0.76186 2.2759 3.0377 1.514z" clip-path="url(#a)" fill="#fff" stroke="#fff"/>
<g clip-path="url(#a)">
<g transform="translate(611.91 410.5) rotate(-18.508) scale(.08 -.08)">
<use xlink:href="#y"/>
</g>
</g>
<path d="m921.42 479.83 3.4763 4.9103q1.3868 1.9588 3.3456 0.57205l6.3192-4.4737q1.9588-1.3868 0.57205-3.3456l-3.4763-4.9103q-1.3868-1.9588-3.3456-0.57205l-6.3192 4.4737q-1.9588 1.3868-0.57205 3.3456z" clip-path="url(#a)" fill="#fff" stroke="#fff"/>
<g clip-path="url(#a)">
<g transform="translate(924.73 477.48) rotate(54.703) scale(.08 -.08)">
<use xlink:href="#y"/>
</g>
</g>
<path d="m1270.7 483.72 5.733 1.8242q2.287 0.7277 3.0147-1.5593l2.3476-7.378q0.7277-2.287-1.5593-3.0147l-5.733-1.8242q-2.287-0.7277-3.0147 1.5593l-2.3476 7.378q-0.7277 2.287 1.5593 3.0147z" clip-path="url(#a)" fill="#fff" stroke="#fff"/>
<g clip-path="url(#a)">
<g transform="translate(1271.9 479.85) rotate(17.65) scale(.08 -.08)">
<use xlink:href="#y"/>
</g>
</g>
<path d="m555.68 626.68 4.065-4.2139q1.6663-1.7273-0.061008-3.3936l-5.5723-5.3755q-1.7273-1.6663-3.3936 0.061008l-4.065 4.2139q-1.6663 1.7273 0.061009 3.3936l5.5723 5.3755q1.7273 1.6663 3.3936-0.061008z" clip-path="url(#a)" fill="#fff" stroke="#fff"/>
<g clip-path="url(#a)">
<g transform="translate(552.75 623.86) rotate(-46.03) scale(.08 -.08)">
<use xlink:href="#s"/>
</g>
</g>
<path d="m804.65 623.76 0.58672-5.8255q0.2405-2.3879-2.1474-2.6284l-7.7035-0.77586q-2.3879-0.2405-2.6284 2.1474l-0.58671 5.8255q-0.2405 2.3879 2.1474 2.6284l7.7035 0.77586q2.3879 0.2405 2.6284-2.1474z" clip-path="url(#a)" fill="#fff" stroke="#fff"/>
<g clip-path="url(#a)">
<g transform="translate(800.6 623.36) rotate(-84.249) scale(.08 -.08)">
<use xlink:href="#s"/>
</g>
</g>
<path d="m1075.3 622.23 3.9076 4.3603q1.6017 1.7873 3.389 0.18558l5.7659-5.1672q1.7873-1.6017 0.18558-3.389l-3.9076-4.3603q-1.6017-1.7873-3.389-0.18558l-5.7659 5.1672q-1.7873 1.6017-0.18558 3.389z" clip-path="url(#a)" fill="#fff" stroke="#fff"/>
<g clip-path="url(#a)">
<g transform="translate(1078.4 619.52) rotate(48.134) scale(.08 -.08)">
<use xlink:href="#s"/>
</g>
</g>
<path d="m245.53 831.25v5.0788q0 2.4 2.4 2.4h7.7425q2.4 0 2.4-2.4v-5.0788q0-2.4-2.4-2.4h-7.7425q-2.4 0-2.4 2.4z" clip-path="url(#a)" fill="#fff" stroke="#fff"/>
<g clip-path="url(#a)">
<defs>
<path id="aa" d="m53.516 70.516v-9.625q-5.6094 2.6875-10.594 4-4.9844 1.3281-9.625 1.3281-8.0469 0-12.422-3.125t-4.375-8.8906q0-4.8438 2.9062-7.3125 2.9062-2.4531 11.016-3.9688l5.9531-1.2188q11.031-2.1094 16.281-7.4062t5.25-14.172q0-10.609-7.1094-16.078-7.0938-5.4688-20.812-5.4688-5.1719 0-11.016 1.1719-5.8281 1.1719-12.078 3.4688v10.156q6-3.3594 11.766-5.0781 5.7656-1.7031 11.328-1.7031 8.4375 0 13.031 3.3125 4.5938 3.3281 4.5938 9.4844 0 5.3594-3.2969 8.3906t-10.812 4.5469l-6.0156 1.1719q-11.031 2.1875-15.969 6.875-4.9219 4.6875-4.9219 13.047 0 9.6719 6.8125 15.234t18.766 5.5625q5.1406 0 10.453-0.9375 5.3281-0.92188 10.891-2.7656z"/>
</defs>
<g transform="translate(249.59 831.25) rotate(90) scale(.08 -.08)">
<use xlink:href="#aa"/>
</g>
</g>
<path d="m360.18 695.62 1.1607-5.348q0.50905-2.3454-1.8363-2.8544l-7.5663-1.6422q-2.3454-0.50905-2.8544 1.8363l-1.1607 5.348q-0.50905 2.3454 1.8363 2.8544l7.5663 1.6422q2.3454 0.50905 2.8544-1.8363z" clip-path="url(#a)" fill="#fff" stroke="#fff"/>
<g clip-path="url(#a)">
<g transform="translate(356.21 694.75) rotate(-77.754) scale(.08 -.08)">
<use xlink:href="#q"/>
</g>
</g>
<path d="m376.25 694.78 0.65171-4.5549q0.33993-2.3758-2.0359-2.7157l-7.6644-1.0966q-2.3758-0.33993-2.7157 2.0359l-0.65171 4.5549q-0.33993 2.3758 2.0359 2.7157l7.6644 1.0966q2.3758 0.33993 2.7157-2.0359z" clip-path="url(#a)" fill="#fff" stroke="#fff"/>
<g clip-path="url(#a)">
<g transform="translate(372.23 694.2) rotate(-81.857) scale(.08 -.08)">
<use xlink:href="#ab"/>
</g>
</g>
<path d="m393.26 694.42 0.30897-4.8138q0.15373-2.3951-2.2413-2.5488l-7.7266-0.49593q-2.3951-0.15373-2.5488 2.2413l-0.30897 4.8138q-0.15373 2.3951 2.2413 2.5488l7.7266 0.49593q2.3951 0.15373 2.5488-2.2413z" clip-path="url(#a)" fill="#fff" stroke="#fff"/>
<g clip-path="url(#a)">
<g transform="translate(389.21 694.16) rotate(-86.328) scale(.08 -.08)">
<use xlink:href="#ai"/>
</g>
</g>
<path d="m480.81 553.14 4.2171 3.4877q1.8495 1.5296 3.379-0.3199l4.9344-5.9664q1.5296-1.8495-0.3199-3.379l-4.2171-3.4877q-1.8495-1.5296-3.379 0.3199l-4.9344 5.9664q-1.5296 1.8495 0.3199 3.379z" clip-path="url(#a)" fill="#fff" stroke="#fff"/>
<g clip-path="url(#a)">
<g transform="translate(483.4 550.01) rotate(39.592) scale(.08 -.08)">
<use xlink:href="#q"/>
</g>
</g>
<path d="m398.67 688.81 0.11498 5.8539q0.047131 2.3995 2.4467 2.3524l7.741-0.15205q2.3995-0.04713 2.3524-2.4467l-0.11498-5.8539q-0.047131-2.3995-2.4467-2.3524l-7.741 0.15205q-2.3995 0.04713-2.3524 2.4467z" clip-path="url(#a)" fill="#fff" stroke="#fff"/>
<g clip-path="url(#a)">
<g transform="translate(402.73 688.73) rotate(88.875) scale(.08 -.08)">
<use xlink:href="#s"/>
</g>
</g>
<path d="m930.41 768.71 3.2052-4.4356q1.4057-1.9453-0.53962-3.3509l-6.2756-4.5347q-1.9453-1.4057-3.3509 0.53962l-3.2052 4.4356q-1.4057 1.9453 0.53962 3.3509l6.2756 4.5347q1.9453 1.4057 3.3509-0.53962z" clip-path="url(#a)" fill="#fff" stroke="#fff"/>
<g clip-path="url(#a)">
<g transform="translate(927.12 766.33) rotate(-54.148) scale(.08 -.08)">
<use xlink:href="#q"/>
</g>
</g>
<path d="m959.39 768.45 2.8526-5.4597q1.1114-2.1271-1.0157-3.2386l-6.8623-3.5855q-2.1271-1.1114-3.2386 1.0157l-2.8526 5.4597q-1.1114 2.1271 1.0157 3.2386l6.8623 3.5855q2.1271 1.1114 3.2386-1.0157z" clip-path="url(#a)" fill="#fff" stroke="#fff"/>
<g clip-path="url(#a)">
<g transform="translate(955.79 766.57) rotate(-62.413) scale(.08 -.08)">
<use xlink:href="#ac"/>
</g>
</g>
<path d="m989.79 767.31 1.6441-5.2197q0.72103-2.2891-1.5681-3.0102l-7.3848-2.3261q-2.2891-0.72103-3.0102 1.5681l-1.6441 5.2197q-0.72103 2.2891 1.5681 3.0102l7.3848 2.3261q2.2891 0.72103 3.0102-1.5681z" clip-path="url(#a)" fill="#fff" stroke="#fff"/>
<g clip-path="url(#a)">
<g transform="translate(985.92 766.09) rotate(-72.517) scale(.08 -.08)">
<use xlink:href="#q"/>
</g>
</g>
<path d="m1021 766.51 0.61326-6.1294q0.23893-2.3881-2.1491-2.627l-7.704-0.77081q-2.3881-0.23893-2.627 2.1491l-0.61326 6.1294q-0.23893 2.3881 2.1491 2.627l7.704 0.77081q2.3881 0.23893 2.627-2.1491z" clip-path="url(#a)" fill="#fff" stroke="#fff"/>
<g clip-path="url(#a)">
<g transform="translate(1017 766.1) rotate(-84.286) scale(.08 -.08)">
<use xlink:href="#ac"/>
</g>
</g>
<path d="m1056 692.43 2.3403 4.9469q1.0263 2.1695 3.1958 1.1431l6.9988-3.311q2.1695-1.0263 1.1431-3.1958l-2.3403-4.9469q-1.0263-2.1695-3.1958-1.1431l-6.9988 3.311q-2.1695 1.0263-1.1431 3.1958z" clip-path="url(#a)" fill="#fff" stroke="#fff"/>
<g clip-path="url(#a)">
<g transform="translate(1059.6 690.69) rotate(64.682) scale(.08 -.08)">
<use xlink:href="#q"/>
</g>
</g>
<path d="m1106.1 764.02 2.3358 3.9643q1.2183 2.0678 3.2861 0.84945l6.6707-3.9304q2.0678-1.2183 0.84945-3.2861l-2.3358-3.9643q-1.2183-2.0678-3.2861-0.84945l-6.6707 3.9304q-2.0678 1.2183-0.84945 3.2861z" clip-path="url(#a)" fill="#fff" stroke="#fff"/>
<g clip-path="url(#a)">
<g transform="translate(1109.6 761.96) rotate(59.494) scale(.08 -.08)">
<use xlink:href="#ab"/>
</g>
</g>
<path d="m1140.9 764.98 3.089 3.7049q1.5369 1.8433 3.3803 0.30642l5.9467-4.9582q1.8433-1.5369 0.30642-3.3803l-3.089-3.7049q-1.5369-1.8433-3.3803-0.30642l-5.9467 4.9582q-1.8433 1.5369-0.30642 3.3803z" clip-path="url(#a)" fill="#fff" stroke="#fff"/>
<g clip-path="url(#a)">
<g transform="translate(1144 762.38) rotate(50.18) scale(.08 -.08)">
<use xlink:href="#ai"/>
</g>
</g>
<path d="m1586.4 698.92 4.3446-2.236q2.134-1.0983 1.0357-3.2322l-3.5431-6.8843q-1.0983-2.134-3.2322-1.0357l-4.3446 2.236q-2.134 1.0983-1.0357 3.2322l3.5431 6.8843q1.0983 2.134 3.2322 1.0357z" clip-path="url(#a)" fill="#fff" stroke="#fff"/>
<g clip-path="url(#a)">
<g transform="translate(1584.6 695.3) rotate(-27.233) scale(.08 -.08)">
<use xlink:href="#l"/>
</g>
</g>
<path d="m1647.8 767.91 2.2678-4.0036q1.1829-2.0883-0.9054-3.2711l-6.7368-3.816q-2.0883-1.1829-3.2711 0.9054l-2.2678 4.0036q-1.1829 2.0883 0.9054 3.2711l6.7368 3.816q2.0883 1.1829 3.2711-0.9054z" clip-path="url(#a)" fill="#fff" stroke="#fff"/>
<g clip-path="url(#a)">
<g transform="translate(1644.2 765.91) rotate(-60.471) scale(.08 -.08)">
<use xlink:href="#ab"/>
</g>
</g>
<path d="m1688.6 767.17 1.499-5.2632q0.65739-2.3082-1.6508-2.9656l-7.4464-2.1208q-2.3082-0.65739-2.9656 1.6508l-1.499 5.2632q-0.65739 2.3082 1.6508 2.9656l7.4464 2.1208q2.3082 0.65739 2.9656-1.6508z" clip-path="url(#a)" fill="#fff" stroke="#fff"/>
<g clip-path="url(#a)">
<g transform="translate(1684.7 766.06) rotate(-74.103) scale(.08 -.08)">
<use xlink:href="#q"/>
</g>
</g>
<path d="m1717.9 760.11 0.023176 5.4725q0.010164 2.4 2.4101 2.3898l7.7424-0.032789q2.4-0.010164 2.3898-2.4101l-0.023176-5.4725q-0.010164-2.4-2.4101-2.3898l-7.7424 0.032789q-2.4 0.010164-2.3898 2.4101z" clip-path="url(#a)" fill="#fff" stroke="#fff"/>
<g clip-path="url(#a)">
<g transform="translate(1722 760.09) rotate(89.757) scale(.08 -.08)">
<use xlink:href="#q"/>
</g>
</g>
<path d="m1759.4 762.19 1.4624 4.8636q0.69108 2.2983 2.9894 1.6073l7.4146-2.2295q2.2983-0.69108 1.6073-2.9894l-1.4624-4.8636q-0.69108-2.2983-2.9894-1.6073l-7.4146 2.2295q-2.2983 0.69108-1.6073 2.9894z" clip-path="url(#a)" fill="#fff" stroke="#fff"/>
<g clip-path="url(#a)">
<g transform="translate(1763.3 761.02) rotate(73.265) scale(.08 -.08)">
<use xlink:href="#aa"/>
</g>
</g>
<path d="m1802.3 763.56 3.0291 5.0105q1.2417 2.0539 3.2955 0.8122l6.6258-4.0056q2.0538-1.2417 0.8122-3.2955l-3.0291-5.0105q-1.2417-2.0539-3.2955-0.8122l-6.6258 4.0056q-2.0539 1.2417-0.8122 3.2955z" clip-path="url(#a)" fill="#fff" stroke="#fff"/>
<g clip-path="url(#a)">
<g transform="translate(1805.8 761.46) rotate(58.845) scale(.08 -.08)">
<use xlink:href="#s"/>
</g>
</g>
<path d="m1846.7 764.9 3.9544 4.3179q1.6209 1.7699 3.3908 0.14899l5.7098-5.2292q1.7699-1.6209 0.14899-3.3908l-3.9544-4.3179q-1.6209-1.7699-3.3908-0.14899l-5.7098 5.2292q-1.7699 1.6209-0.14899 3.3908z" clip-path="url(#a)" fill="#fff" stroke="#fff"/>
<g clip-path="url(#a)">
<g transform="translate(1849.7 762.15) rotate(47.516) scale(.08 -.08)">
<use xlink:href="#s"/>
</g>
</g>
<path d="m1434.4 837.85 1.3063-4.8833q0.62021-2.3185-1.6983-2.9387l-7.4795-2.0008q-2.3185-0.62021-2.9387 1.6983l-1.3063 4.8833q-0.62021 2.3185 1.6983 2.9387l7.4795 2.0008q2.3185 0.62021 2.9387-1.6983z" clip-path="url(#a)" fill="#fff" stroke="#fff"/>
<g clip-path="url(#a)">
<g transform="translate(1430.4 836.8) rotate(-75.024) scale(.08 -.08)">
<use xlink:href="#al"/>
</g>
</g>
<path d="m1459.9 832.71 1.4436 5.3965q0.62021 2.3185 2.9387 1.6983l7.4795-2.0008q2.3185-0.62021 1.6983-2.9387l-1.4436-5.3965q-0.62021-2.3185-2.9387-1.6983l-7.4795 2.0008q-2.3185 0.6202-1.6983 2.9387z" clip-path="url(#a)" fill="#fff" stroke="#fff"/>
<g clip-path="url(#a)">
<g transform="translate(1463.9 831.66) rotate(75.024) scale(.08 -.08)">
<use xlink:href="#ad"/>
</g>
</g>
<path d="m1557 957.11v33.808q0 2.4 2.4 2.4h7.7425q2.4 0 2.4-2.4v-33.808q0-2.4-2.4-2.4h-7.7425q-2.4 0-2.4 2.4z" clip-path="url(#a)" fill="#fff" stroke="#fff"/>
<g clip-path="url(#a)">
<g transform="translate(1561 957.11) rotate(90) scale(.08 -.08)">
<use xlink:href="#l"/>
<use x="44.083984" xlink:href="#d"/>
<use x="105.607422" xlink:href="#f"/>
<use x="144.970703" xlink:href="#j"/>
<use x="242.382812" xlink:href="#h"/>
<use x="270.166016" xlink:href="#g"/>
<use x="333.544922" xlink:href="#i"/>
<use x="394.824219" xlink:href="#k"/>
</g>
</g>
<path d="m1636.7 957.11v33.808q0 2.4 2.4 2.4h7.7425q2.4 0 2.4-2.4v-33.808q0-2.4-2.4-2.4h-7.7425q-2.4 0-2.4 2.4z" clip-path="url(#a)" fill="#fff" stroke="#fff"/>
<g clip-path="url(#a)">
<g transform="translate(1640.8 957.11) rotate(90) scale(.08 -.08)">
<use xlink:href="#l"/>
<use x="44.083984" xlink:href="#d"/>
<use x="105.607422" xlink:href="#f"/>
<use x="144.970703" xlink:href="#j"/>
<use x="242.382812" xlink:href="#h"/>
<use x="270.166016" xlink:href="#g"/>
<use x="333.544922" xlink:href="#i"/>
<use x="394.824219" xlink:href="#k"/>
</g>
</g>
<path d="m1718.5 957.11v33.808q0 2.4 2.4 2.4h7.7425q2.4 0 2.4-2.4v-33.808q0-2.4-2.4-2.4h-7.7425q-2.4 0-2.4 2.4z" clip-path="url(#a)" fill="#fff" stroke="#fff"/>
<g clip-path="url(#a)">
<g transform="translate(1722.6 957.11) rotate(90) scale(.08 -.08)">
<use xlink:href="#l"/>
<use x="44.083984" xlink:href="#d"/>
<use x="105.607422" xlink:href="#f"/>
<use x="144.970703" xlink:href="#j"/>
<use x="242.382812" xlink:href="#h"/>
<use x="270.166016" xlink:href="#g"/>
<use x="333.544922" xlink:href="#i"/>
<use x="394.824219" xlink:href="#k"/>
</g>
</g>
<path d="m1802.5 957.11v33.808q0 2.4 2.4 2.4h7.7425q2.4 0 2.4-2.4v-33.808q0-2.4-2.4-2.4h-7.7425q-2.4 0-2.4 2.4z" clip-path="url(#a)" fill="#fff" stroke="#fff"/>
<g clip-path="url(#a)">
<g transform="translate(1806.5 957.11) rotate(90) scale(.08 -.08)">
<use xlink:href="#l"/>
<use x="44.083984" xlink:href="#d"/>
<use x="105.607422" xlink:href="#f"/>
<use x="144.970703" xlink:href="#j"/>
<use x="242.382812" xlink:href="#h"/>
<use x="270.166016" xlink:href="#g"/>
<use x="333.544922" xlink:href="#i"/>
<use x="394.824219" xlink:href="#k"/>
</g>
</g>
<path d="m1403.8 957.11v33.808q0 2.4 2.4 2.4h7.7425q2.4 0 2.4-2.4v-33.808q0-2.4-2.4-2.4h-7.7425q-2.4 0-2.4 2.4z" clip-path="url(#a)" fill="#fff" stroke="#fff"/>
<g clip-path="url(#a)">
<g transform="translate(1407.9 957.11) rotate(90) scale(.08 -.08)">
<use xlink:href="#l"/>
<use x="44.083984" xlink:href="#d"/>
<use x="105.607422" xlink:href="#f"/>
<use x="144.970703" xlink:href="#j"/>
<use x="242.382812" xlink:href="#h"/>
<use x="270.166016" xlink:href="#g"/>
<use x="333.544922" xlink:href="#i"/>
<use x="394.824219" xlink:href="#k"/>
</g>
</g>
<path d="m1479.3 957.11v33.808q0 2.4 2.4 2.4h7.7425q2.4 0 2.4-2.4v-33.808q0-2.4-2.4-2.4h-7.7425q-2.4 0-2.4 2.4z" clip-path="url(#a)" fill="#fff" stroke="#fff"/>
<g clip-path="url(#a)">
<g transform="translate(1483.4 957.11) rotate(90) scale(.08 -.08)">
<use xlink:href="#l"/>
<use x="44.083984" xlink:href="#d"/>
<use x="105.607422" xlink:href="#f"/>
<use x="144.970703" xlink:href="#j"/>
<use x="242.382812" xlink:href="#h"/>
<use x="270.166016" xlink:href="#g"/>
<use x="333.544922" xlink:href="#i"/>
<use x="394.824219" xlink:href="#k"/>
</g>
</g>
<path d="m818.37 957.11v33.808q0 2.4 2.4 2.4h7.7425q2.4 0 2.4-2.4v-33.808q0-2.4-2.4-2.4h-7.7425q-2.4 0-2.4 2.4z" clip-path="url(#a)" fill="#fff" stroke="#fff"/>
<g clip-path="url(#a)">
<g transform="translate(822.43 957.11) rotate(90) scale(.08 -.08)">
<use xlink:href="#l"/>
<use x="44.083984" xlink:href="#d"/>
<use x="105.607422" xlink:href="#f"/>
<use x="144.970703" xlink:href="#j"/>
<use x="242.382812" xlink:href="#h"/>
<use x="270.166016" xlink:href="#g"/>
<use x="333.544922" xlink:href="#i"/>
<use x="394.824219" xlink:href="#k"/>
</g>
</g>
<path d="m875.02 957.11v33.808q0 2.4 2.4 2.4h7.7425q2.4 0 2.4-2.4v-33.808q0-2.4-2.4-2.4h-7.7425q-2.4 0-2.4 2.4z" clip-path="url(#a)" fill="#fff" stroke="#fff"/>
<g clip-path="url(#a)">
<g transform="translate(879.09 957.11) rotate(90) scale(.08 -.08)">
<use xlink:href="#l"/>
<use x="44.083984" xlink:href="#d"/>
<use x="105.607422" xlink:href="#f"/>
<use x="144.970703" xlink:href="#j"/>
<use x="242.382812" xlink:href="#h"/>
<use x="270.166016" xlink:href="#g"/>
<use x="333.544922" xlink:href="#i"/>
<use x="394.824219" xlink:href="#k"/>
</g>
</g>
<path d="m933.77 957.11v33.808q0 2.4 2.4 2.4h7.7425q2.4 0 2.4-2.4v-33.808q0-2.4-2.4-2.4h-7.7425q-2.4 0-2.4 2.4z" clip-path="url(#a)" fill="#fff" stroke="#fff"/>
<g clip-path="url(#a)">
<g transform="translate(937.84 957.11) rotate(90) scale(.08 -.08)">
<use xlink:href="#l"/>
<use x="44.083984" xlink:href="#d"/>
<use x="105.607422" xlink:href="#f"/>
<use x="144.970703" xlink:href="#j"/>
<use x="242.382812" xlink:href="#h"/>
<use x="270.166016" xlink:href="#g"/>
<use x="333.544922" xlink:href="#i"/>
<use x="394.824219" xlink:href="#k"/>
</g>
</g>
<path d="m994.63 957.11v33.808q0 2.4 2.4 2.4h7.7425q2.4 0 2.4-2.4v-33.808q0-2.4-2.4-2.4h-7.7425q-2.4 0-2.4 2.4z" clip-path="url(#a)" fill="#fff" stroke="#fff"/>
<g clip-path="url(#a)">
<g transform="translate(998.69 957.11) rotate(90) scale(.08 -.08)">
<use xlink:href="#l"/>
<use x="44.083984" xlink:href="#d"/>
<use x="105.607422" xlink:href="#f"/>
<use x="144.970703" xlink:href="#j"/>
<use x="242.382812" xlink:href="#h"/>
<use x="270.166016" xlink:href="#g"/>
<use x="333.544922" xlink:href="#i"/>
<use x="394.824219" xlink:href="#k"/>
</g>
</g>
<path d="m1085.6 837.9 1.2478-5.4169q0.53874-2.3388-1.8-2.8775l-7.5449-1.738q-2.3388-0.53874-2.8775 1.8l-1.2478 5.4169q-0.53874 2.3388 1.8 2.8775l7.5449 1.738q2.3388 0.53874 2.8775-1.8z" clip-path="url(#a)" fill="#fff" stroke="#fff"/>
<g clip-path="url(#a)">
<defs>
<path id="ao" d="m44.391 34.188q3.1719-1.0781 6.1719-4.5938t6.0312-9.6719l10.016-19.922h-10.609l-9.3125 18.703q-3.625 7.3281-7.0156 9.7188t-9.25 2.3906h-10.75v-30.812h-9.8594v72.906h22.266q12.5 0 18.656-5.2344 6.1562-5.2188 6.1562-15.766 0-6.8906-3.2031-11.438-3.2031-4.5312-9.2969-6.2812zm-24.719 30.609v-25.875h12.406q7.125 0 10.766 3.2969t3.6406 9.6875-3.6406 9.6406-10.766 3.25z"/>
</defs>
<g transform="translate(1081.6 836.99) rotate(-77.028) scale(.08 -.08)">
<use xlink:href="#ao"/>
</g>
</g>
<path d="m1105.9 832.47 1.254 5.4437q0.53874 2.3388 2.8775 1.8l7.5449-1.738q2.3388-0.53874 1.8-2.8775l-1.254-5.4437q-0.53874-2.3388-2.8775-1.8l-7.5449 1.738q-2.3388 0.53874-1.8 2.8775z" clip-path="url(#a)" fill="#fff" stroke="#fff"/>
<g clip-path="url(#a)">
<g transform="translate(1109.9 831.56) rotate(77.028) scale(.08 -.08)">
<use xlink:href="#ad"/>
</g>
</g>
<path d="m1189.8 957.11v33.808q0 2.4 2.4 2.4h7.7425q2.4 0 2.4-2.4v-33.808q0-2.4-2.4-2.4h-7.7425q-2.4 0-2.4 2.4z" clip-path="url(#a)" fill="#fff" stroke="#fff"/>
<g clip-path="url(#a)">
<g transform="translate(1193.8 957.11) rotate(90) scale(.08 -.08)">
<use xlink:href="#l"/>
<use x="44.083984" xlink:href="#d"/>
<use x="105.607422" xlink:href="#f"/>
<use x="144.970703" xlink:href="#j"/>
<use x="242.382812" xlink:href="#h"/>
<use x="270.166016" xlink:href="#g"/>
<use x="333.544922" xlink:href="#i"/>
<use x="394.824219" xlink:href="#k"/>
</g>
</g>
<path d="m1259 957.11v33.808q0 2.4 2.4 2.4h7.7425q2.4 0 2.4-2.4v-33.808q0-2.4-2.4-2.4h-7.7425q-2.4 0-2.4 2.4z" clip-path="url(#a)" fill="#fff" stroke="#fff"/>
<g clip-path="url(#a)">
<g transform="translate(1263.1 957.11) rotate(90) scale(.08 -.08)">
<use xlink:href="#l"/>
<use x="44.083984" xlink:href="#d"/>
<use x="105.607422" xlink:href="#f"/>
<use x="144.970703" xlink:href="#j"/>
<use x="242.382812" xlink:href="#h"/>
<use x="270.166016" xlink:href="#g"/>
<use x="333.544922" xlink:href="#i"/>
<use x="394.824219" xlink:href="#k"/>
</g>
</g>
<path d="m1057.6 957.11v33.808q0 2.4 2.4 2.4h7.7425q2.4 0 2.4-2.4v-33.808q0-2.4-2.4-2.4h-7.7425q-2.4 0-2.4 2.4z" clip-path="url(#a)" fill="#fff" stroke="#fff"/>
<g clip-path="url(#a)">
<g transform="translate(1061.6 957.11) rotate(90) scale(.08 -.08)">
<use xlink:href="#l"/>
<use x="44.083984" xlink:href="#d"/>
<use x="105.607422" xlink:href="#f"/>
<use x="144.970703" xlink:href="#j"/>
<use x="242.382812" xlink:href="#h"/>
<use x="270.166016" xlink:href="#g"/>
<use x="333.544922" xlink:href="#i"/>
<use x="394.824219" xlink:href="#k"/>
</g>
</g>
<path d="m1122.6 957.11v33.808q0 2.4 2.4 2.4h7.7425q2.4 0 2.4-2.4v-33.808q0-2.4-2.4-2.4h-7.7425q-2.4 0-2.4 2.4z" clip-path="url(#a)" fill="#fff" stroke="#fff"/>
<g clip-path="url(#a)">
<g transform="translate(1126.7 957.11) rotate(90) scale(.08 -.08)">
<use xlink:href="#l"/>
<use x="44.083984" xlink:href="#d"/>
<use x="105.607422" xlink:href="#f"/>
<use x="144.970703" xlink:href="#j"/>
<use x="242.382812" xlink:href="#h"/>
<use x="270.166016" xlink:href="#g"/>
<use x="333.544922" xlink:href="#i"/>
<use x="394.824219" xlink:href="#k"/>
</g>
</g>
<path d="m302.18 957.11v33.808q0 2.4 2.4 2.4h7.7425q2.4 0 2.4-2.4v-33.808q0-2.4-2.4-2.4h-7.7425q-2.4 0-2.4 2.4z" clip-path="url(#a)" fill="#fff" stroke="#fff"/>
<g clip-path="url(#a)">
<g transform="translate(306.25 957.11) rotate(90) scale(.08 -.08)">
<use xlink:href="#l"/>
<use x="44.083984" xlink:href="#d"/>
<use x="105.607422" xlink:href="#f"/>
<use x="144.970703" xlink:href="#j"/>
<use x="242.382812" xlink:href="#h"/>
<use x="270.166016" xlink:href="#g"/>
<use x="333.544922" xlink:href="#i"/>
<use x="394.824219" xlink:href="#k"/>
</g>
</g>
<path d="m333.66 957.11v33.808q0 2.4 2.4 2.4h7.7425q2.4 0 2.4-2.4v-33.808q0-2.4-2.4-2.4h-7.7425q-2.4 0-2.4 2.4z" clip-path="url(#a)" fill="#fff" stroke="#fff"/>
<g clip-path="url(#a)">
<g transform="translate(337.72 957.11) rotate(90) scale(.08 -.08)">
<use xlink:href="#l"/>
<use x="44.083984" xlink:href="#d"/>
<use x="105.607422" xlink:href="#f"/>
<use x="144.970703" xlink:href="#j"/>
<use x="242.382812" xlink:href="#h"/>
<use x="270.166016" xlink:href="#g"/>
<use x="333.544922" xlink:href="#i"/>
<use x="394.824219" xlink:href="#k"/>
</g>
</g>
<path d="m367.23 957.11v33.808q0 2.4 2.4 2.4h7.7425q2.4 0 2.4-2.4v-33.808q0-2.4-2.4-2.4h-7.7425q-2.4 0-2.4 2.4z" clip-path="url(#a)" fill="#fff" stroke="#fff"/>
<g clip-path="url(#a)">
<g transform="translate(371.29 957.11) rotate(90) scale(.08 -.08)">
<use xlink:href="#l"/>
<use x="44.083984" xlink:href="#d"/>
<use x="105.607422" xlink:href="#f"/>
<use x="144.970703" xlink:href="#j"/>
<use x="242.382812" xlink:href="#h"/>
<use x="270.166016" xlink:href="#g"/>
<use x="333.544922" xlink:href="#i"/>
<use x="394.824219" xlink:href="#k"/>
</g>
</g>
<path d="m514.59 767.87 2.2261-4.9993q0.97629-2.1925-1.2162-3.1687l-7.073-3.1495q-2.1925-0.97629-3.1687 1.2162l-2.2261 4.9993q-0.97629 2.1925 1.2162 3.1687l7.073 3.1495q2.1925 0.97629 3.1687-1.2162z" clip-path="url(#a)" fill="#fff" stroke="#fff"/>
<g clip-path="url(#a)">
<g transform="translate(510.88 766.22) rotate(-65.997) scale(.08 -.08)">
<use xlink:href="#q"/>
</g>
</g>
<path d="m544.96 697.33 2.2851-4.9726q1.0021-2.1808-1.1786-3.1829l-7.0352-3.2329q-2.1808-1.0021-3.1829 1.1786l-2.2851 4.9726q-1.0021 2.1808 1.1786 3.1829l7.0352 3.2329q2.1808 1.0021 3.1829-1.1786z" clip-path="url(#a)" fill="#fff" stroke="#fff"/>
<g clip-path="url(#a)">
<g transform="translate(541.27 695.63) rotate(-65.32) scale(.08 -.08)">
<use xlink:href="#q"/>
</g>
</g>
<path d="m589.55 691.58 1.71 5.1985q0.74993 2.2798 3.0298 1.5299l7.3548-2.4193q2.2798-0.74993 1.5299-3.0298l-1.71-5.1985q-0.74993-2.2798-3.0298-1.5299l-7.3548 2.4193q-2.2798 0.74993-1.5299 3.0298z" clip-path="url(#a)" fill="#fff" stroke="#fff"/>
<g clip-path="url(#a)">
<g transform="translate(593.41 690.31) rotate(71.792) scale(.08 -.08)">
<use xlink:href="#q"/>
</g>
</g>
<path d="m638.58 763.41 2.3101 4.5229q1.0917 2.1373 3.229 1.0457l6.8952-3.5218q2.1373-1.0917 1.0457-3.229l-2.3101-4.5229q-1.0917-2.1373-3.229-1.0457l-6.8952 3.5218q-2.1373 1.0917-1.0457 3.229z" clip-path="url(#a)" fill="#fff" stroke="#fff"/>
<g clip-path="url(#a)">
<g transform="translate(642.2 761.56) rotate(62.944) scale(.08 -.08)">
<use xlink:href="#aa"/>
</g>
</g>
<path d="m440.67 957.11v33.808q0 2.4 2.4 2.4h7.7425q2.4 0 2.4-2.4v-33.808q0-2.4-2.4-2.4h-7.7425q-2.4 0-2.4 2.4z" clip-path="url(#a)" fill="#fff" stroke="#fff"/>
<g clip-path="url(#a)">
<g transform="translate(444.73 957.11) rotate(90) scale(.08 -.08)">
<use xlink:href="#l"/>
<use x="44.083984" xlink:href="#d"/>
<use x="105.607422" xlink:href="#f"/>
<use x="144.970703" xlink:href="#j"/>
<use x="242.382812" xlink:href="#h"/>
<use x="270.166016" xlink:href="#g"/>
<use x="333.544922" xlink:href="#i"/>
<use x="394.824219" xlink:href="#k"/>
</g>
</g>
<path d="m503.13 837.21 0.74308-5.0001q0.3528-2.3739-2.0211-2.7267l-7.6584-1.1381q-2.3739-0.3528-2.7267 2.0211l-0.74308 5.0001q-0.3528 2.3739 2.0211 2.7267l7.6584 1.1381q2.3739 0.3528 2.7267-2.0211z" clip-path="url(#a)" fill="#fff" stroke="#fff"/>
<g clip-path="url(#a)">
<g transform="translate(499.11 836.61) rotate(-81.547) scale(.08 -.08)">
<use xlink:href="#al"/>
</g>
</g>
<path d="m511.67 831.94 0.82118 5.5256q0.3528 2.3739 2.7267 2.0211l7.6584-1.1381q2.3739-0.3528 2.0211-2.7267l-0.82118-5.5256q-0.3528-2.3739-2.7267-2.0211l-7.6584 1.1381q-2.3739 0.3528-2.0211 2.7267z" clip-path="url(#a)" fill="#fff" stroke="#fff"/>
<g clip-path="url(#a)">
<g transform="translate(515.69 831.35) rotate(81.547) scale(.08 -.08)">
<use xlink:href="#ad"/>
</g>
</g>
<path d="m601.35 838.4 1.751-5.2757q0.75602-2.2778-1.5218-3.0338l-7.3483-2.4389q-2.2778-0.75602-3.0338 1.5218l-1.751 5.2757q-0.75602 2.2778 1.5218 3.0338l7.3483 2.4389q2.2778 0.75602 3.0338-1.5218z" clip-path="url(#a)" fill="#fff" stroke="#fff"/>
<g clip-path="url(#a)">
<g transform="translate(597.49 837.12) rotate(-71.639) scale(.08 -.08)">
<use xlink:href="#ao"/>
</g>
</g>
<path d="m625.61 836.12 0.022793-4.6012q0.011889-2.4-2.3881-2.4119l-7.7424-0.038354q-2.4-0.011889-2.4119 2.3881l-0.022793 4.6012q-0.011889 2.4 2.3881 2.4119l7.7424 0.038355q2.4 0.011889 2.4119-2.3881z" clip-path="url(#a)" fill="#fff" stroke="#fff"/>
<g clip-path="url(#a)">
<g transform="translate(621.55 836.1) rotate(-89.716) scale(.08 -.08)">
<use xlink:href="#ab"/>
</g>
</g>
<path d="m636.65 833.14 1.7833 5.294q0.76616 2.2744 3.0406 1.5083l7.3374-2.4717q2.2744-0.76616 1.5083-3.0406l-1.7833-5.294q-0.76616-2.2744-3.0406-1.5083l-7.3374 2.4717q-2.2744 0.76616-1.5083 3.0406z" clip-path="url(#a)" fill="#fff" stroke="#fff"/>
<g clip-path="url(#a)">
<g transform="translate(640.5 831.84) rotate(71.383) scale(.08 -.08)">
<use xlink:href="#ad"/>
</g>
</g>
<path d="m711.35 957.11v33.808q0 2.4 2.4 2.4h7.7425q2.4 0 2.4-2.4v-33.808q0-2.4-2.4-2.4h-7.7425q-2.4 0-2.4 2.4z" clip-path="url(#a)" fill="#fff" stroke="#fff"/>
<g clip-path="url(#a)">
<g transform="translate(715.42 957.11) rotate(90) scale(.08 -.08)">
<use xlink:href="#l"/>
<use x="44.083984" xlink:href="#d"/>
<use x="105.607422" xlink:href="#f"/>
<use x="144.970703" xlink:href="#j"/>
<use x="242.382812" xlink:href="#h"/>
<use x="270.166016" xlink:href="#g"/>
<use x="333.544922" xlink:href="#i"/>
<use x="394.824219" xlink:href="#k"/>
</g>
</g>
<path d="m566.57 957.11v33.808q0 2.4 2.4 2.4h7.7425q2.4 0 2.4-2.4v-33.808q0-2.4-2.4-2.4h-7.7425q-2.4 0-2.4 2.4z" clip-path="url(#a)" fill="#fff" stroke="#fff"/>
<g clip-path="url(#a)">
<g transform="translate(570.63 957.11) rotate(90) scale(.08 -.08)">
<use xlink:href="#l"/>
<use x="44.083984" xlink:href="#d"/>
<use x="105.607422" xlink:href="#f"/>
<use x="144.970703" xlink:href="#j"/>
<use x="242.382812" xlink:href="#h"/>
<use x="270.166016" xlink:href="#g"/>
<use x="333.544922" xlink:href="#i"/>
<use x="394.824219" xlink:href="#k"/>
</g>
</g>
<path d="m612.73 957.11v33.808q0 2.4 2.4 2.4h7.7425q2.4 0 2.4-2.4v-33.808q0-2.4-2.4-2.4h-7.7425q-2.4 0-2.4 2.4z" clip-path="url(#a)" fill="#fff" stroke="#fff"/>
<g clip-path="url(#a)">
<g transform="translate(616.8 957.11) rotate(90) scale(.08 -.08)">
<use xlink:href="#l"/>
<use x="44.083984" xlink:href="#d"/>
<use x="105.607422" xlink:href="#f"/>
<use x="144.970703" xlink:href="#j"/>
<use x="242.382812" xlink:href="#h"/>
<use x="270.166016" xlink:href="#g"/>
<use x="333.544922" xlink:href="#i"/>
<use x="394.824219" xlink:href="#k"/>
</g>
</g>
<path d="m660.99 957.11v33.808q0 2.4 2.4 2.4h7.7425q2.4 0 2.4-2.4v-33.808q0-2.4-2.4-2.4h-7.7425q-2.4 0-2.4 2.4z" clip-path="url(#a)" fill="#fff" stroke="#fff"/>
<g clip-path="url(#a)">
<g transform="translate(665.06 957.11) rotate(90) scale(.08 -.08)">
<use xlink:href="#l"/>
<use x="44.083984" xlink:href="#d"/>
<use x="105.607422" xlink:href="#f"/>
<use x="144.970703" xlink:href="#j"/>
<use x="242.382812" xlink:href="#h"/>
<use x="270.166016" xlink:href="#g"/>
<use x="333.544922" xlink:href="#i"/>
<use x="394.824219" xlink:href="#k"/>
</g>
</g>
<path d="m480.54 957.11v33.808q0 2.4 2.4 2.4h7.7425q2.4 0 2.4-2.4v-33.808q0-2.4-2.4-2.4h-7.7425q-2.4 0-2.4 2.4z" clip-path="url(#a)" fill="#fff" stroke="#fff"/>
<g clip-path="url(#a)">
<g transform="translate(484.6 957.11) rotate(90) scale(.08 -.08)">
<use xlink:href="#l"/>
<use x="44.083984" xlink:href="#d"/>
<use x="105.607422" xlink:href="#f"/>
<use x="144.970703" xlink:href="#j"/>
<use x="242.382812" xlink:href="#h"/>
<use x="270.166016" xlink:href="#g"/>
<use x="333.544922" xlink:href="#i"/>
<use x="394.824219" xlink:href="#k"/>
</g>
</g>
<path d="m522.5 957.11v33.808q0 2.4 2.4 2.4h7.7425q2.4 0 2.4-2.4v-33.808q0-2.4-2.4-2.4h-7.7425q-2.4 0-2.4 2.4z" clip-path="url(#a)" fill="#fff" stroke="#fff"/>
<g clip-path="url(#a)">
<g transform="translate(526.57 957.11) rotate(90) scale(.08 -.08)">
<use xlink:href="#l"/>
<use x="44.083984" xlink:href="#d"/>
<use x="105.607422" xlink:href="#f"/>
<use x="144.970703" xlink:href="#j"/>
<use x="242.382812" xlink:href="#h"/>
<use x="270.166016" xlink:href="#g"/>
<use x="333.544922" xlink:href="#i"/>
<use x="394.824219" xlink:href="#k"/>
</g>
</g>
<path d="m245.53 957.11v33.808q0 2.4 2.4 2.4h7.7425q2.4 0 2.4-2.4v-33.808q0-2.4-2.4-2.4h-7.7425q-2.4 0-2.4 2.4z" clip-path="url(#a)" fill="#fff" stroke="#fff"/>
<g clip-path="url(#a)">
<g transform="translate(249.59 957.11) rotate(90) scale(.08 -.08)">
<use xlink:href="#l"/>
<use x="44.083984" xlink:href="#d"/>
<use x="105.607422" xlink:href="#f"/>
<use x="144.970703" xlink:href="#j"/>
<use x="242.382812" xlink:href="#h"/>
<use x="270.166016" xlink:href="#g"/>
<use x="333.544922" xlink:href="#i"/>
<use x="394.824219" xlink:href="#k"/>
</g>
</g>
<path d="m102.84 957.11v33.808q0 2.4 2.4 2.4h7.7425q2.4 0 2.4-2.4v-33.808q0-2.4-2.4-2.4h-7.7425q-2.4 0-2.4 2.4z" clip-path="url(#a)" fill="#fff" stroke="#fff"/>
<g clip-path="url(#a)">
<g transform="translate(106.9 957.11) rotate(90) scale(.08 -.08)">
<use xlink:href="#l"/>
<use x="44.083984" xlink:href="#d"/>
<use x="105.607422" xlink:href="#f"/>
<use x="144.970703" xlink:href="#j"/>
<use x="242.382812" xlink:href="#h"/>
<use x="270.166016" xlink:href="#g"/>
<use x="333.544922" xlink:href="#i"/>
<use x="394.824219" xlink:href="#k"/>
</g>
</g>
<path d="m113.33 957.11v33.808q0 2.4 2.4 2.4h7.7425q2.4 0 2.4-2.4v-33.808q0-2.4-2.4-2.4h-7.7425q-2.4 0-2.4 2.4z" clip-path="url(#a)" fill="#fff" stroke="#fff"/>
<g clip-path="url(#a)">
<g transform="translate(117.4 957.11) rotate(90) scale(.08 -.08)">
<use xlink:href="#l"/>
<use x="44.083984" xlink:href="#d"/>
<use x="105.607422" xlink:href="#f"/>
<use x="144.970703" xlink:href="#j"/>
<use x="242.382812" xlink:href="#h"/>
<use x="270.166016" xlink:href="#g"/>
<use x="333.544922" xlink:href="#i"/>
<use x="394.824219" xlink:href="#k"/>
</g>
</g>
<path d="m125.92 957.11v33.808q0 2.4 2.4 2.4h7.7425q2.4 0 2.4-2.4v-33.808q0-2.4-2.4-2.4h-7.7425q-2.4 0-2.4 2.4z" clip-path="url(#a)" fill="#fff" stroke="#fff"/>
<g clip-path="url(#a)">
<g transform="translate(129.99 957.11) rotate(90) scale(.08 -.08)">
<use xlink:href="#l"/>
<use x="44.083984" xlink:href="#d"/>
<use x="105.607422" xlink:href="#f"/>
<use x="144.970703" xlink:href="#j"/>
<use x="242.382812" xlink:href="#h"/>
<use x="270.166016" xlink:href="#g"/>
<use x="333.544922" xlink:href="#i"/>
<use x="394.824219" xlink:href="#k"/>
</g>
</g>
<path d="m176.28 957.11v33.808q0 2.4 2.4 2.4h7.7425q2.4 0 2.4-2.4v-33.808q0-2.4-2.4-2.4h-7.7425q-2.4 0-2.4 2.4z" clip-path="url(#a)" fill="#fff" stroke="#fff"/>
<g clip-path="url(#a)">
<g transform="translate(180.35 957.11) rotate(90) scale(.08 -.08)">
<use xlink:href="#l"/>
<use x="44.083984" xlink:href="#d"/>
<use x="105.607422" xlink:href="#f"/>
<use x="144.970703" xlink:href="#j"/>
<use x="242.382812" xlink:href="#h"/>
<use x="270.166016" xlink:href="#g"/>
<use x="333.544922" xlink:href="#i"/>
<use x="394.824219" xlink:href="#k"/>
</g>
</g>
<path d="m197.27 957.11v33.808q0 2.4 2.4 2.4h7.7425q2.4 0 2.4-2.4v-33.808q0-2.4-2.4-2.4h-7.7425q-2.4 0-2.4 2.4z" clip-path="url(#a)" fill="#fff" stroke="#fff"/>
<g clip-path="url(#a)">
<g transform="translate(201.33 957.11) rotate(90) scale(.08 -.08)">
<use xlink:href="#l"/>
<use x="44.083984" xlink:href="#d"/>
<use x="105.607422" xlink:href="#f"/>
<use x="144.970703" xlink:href="#j"/>
<use x="242.382812" xlink:href="#h"/>
<use x="270.166016" xlink:href="#g"/>
<use x="333.544922" xlink:href="#i"/>
<use x="394.824219" xlink:href="#k"/>
</g>
</g>
<path d="m220.35 957.11v33.808q0 2.4 2.4 2.4h7.7425q2.4 0 2.4-2.4v-33.808q0-2.4-2.4-2.4h-7.7425q-2.4 0-2.4 2.4z" clip-path="url(#a)" fill="#fff" stroke="#fff"/>
<g clip-path="url(#a)">
<g transform="translate(224.41 957.11) rotate(90) scale(.08 -.08)">
<use xlink:href="#l"/>
<use x="44.083984" xlink:href="#d"/>
<use x="105.607422" xlink:href="#f"/>
<use x="144.970703" xlink:href="#j"/>
<use x="242.382812" xlink:href="#h"/>
<use x="270.166016" xlink:href="#g"/>
<use x="333.544922" xlink:href="#i"/>
<use x="394.824219" xlink:href="#k"/>
</g>
</g>
<path d="m272.8 957.11v33.808q0 2.4 2.4 2.4h7.7425q2.4 0 2.4-2.4v-33.808q0-2.4-2.4-2.4h-7.7425q-2.4 0-2.4 2.4z" clip-path="url(#a)" fill="#fff" stroke="#fff"/>
<g clip-path="url(#a)">
<g transform="translate(276.87 957.11) rotate(90) scale(.08 -.08)">
<use xlink:href="#l"/>
<use x="44.083984" xlink:href="#d"/>
<use x="105.607422" xlink:href="#f"/>
<use x="144.970703" xlink:href="#j"/>
<use x="242.382812" xlink:href="#h"/>
<use x="270.166016" xlink:href="#g"/>
<use x="333.544922" xlink:href="#i"/>
<use x="394.824219" xlink:href="#k"/>
</g>
</g>
<path d="m402.9 957.11v33.808q0 2.4 2.4 2.4h7.7425q2.4 0 2.4-2.4v-33.808q0-2.4-2.4-2.4h-7.7425q-2.4 0-2.4 2.4z" clip-path="url(#a)" fill="#fff" stroke="#fff"/>
<g clip-path="url(#a)">
<g transform="translate(406.96 957.11) rotate(90) scale(.08 -.08)">
<use xlink:href="#l"/>
<use x="44.083984" xlink:href="#d"/>
<use x="105.607422" xlink:href="#f"/>
<use x="144.970703" xlink:href="#j"/>
<use x="242.382812" xlink:href="#h"/>
<use x="270.166016" xlink:href="#g"/>
<use x="333.544922" xlink:href="#i"/>
<use x="394.824219" xlink:href="#k"/>
</g>
</g>
<path d="m763.81 957.11v33.808q0 2.4 2.4 2.4h7.7425q2.4 0 2.4-2.4v-33.808q0-2.4-2.4-2.4h-7.7425q-2.4 0-2.4 2.4z" clip-path="url(#a)" fill="#fff" stroke="#fff"/>
<g clip-path="url(#a)">
<g transform="translate(767.87 957.11) rotate(90) scale(.08 -.08)">
<use xlink:href="#l"/>
<use x="44.083984" xlink:href="#d"/>
<use x="105.607422" xlink:href="#f"/>
<use x="144.970703" xlink:href="#j"/>
<use x="242.382812" xlink:href="#h"/>
<use x="270.166016" xlink:href="#g"/>
<use x="333.544922" xlink:href="#i"/>
<use x="394.824219" xlink:href="#k"/>
</g>
</g>
<path d="m1330.4 957.11v33.808q0 2.4 2.4 2.4h7.7425q2.4 0 2.4-2.4v-33.808q0-2.4-2.4-2.4h-7.7425q-2.4 0-2.4 2.4z" clip-path="url(#a)" fill="#fff" stroke="#fff"/>
<g clip-path="url(#a)">
<g transform="translate(1334.4 957.11) rotate(90) scale(.08 -.08)">
<use xlink:href="#l"/>
<use x="44.083984" xlink:href="#d"/>
<use x="105.607422" xlink:href="#f"/>
<use x="144.970703" xlink:href="#j"/>
<use x="242.382812" xlink:href="#h"/>
<use x="270.166016" xlink:href="#g"/>
<use x="333.544922" xlink:href="#i"/>
<use x="394.824219" xlink:href="#k"/>
</g>
</g>
<path d="m1888.5 957.11v33.808q0 2.4 2.4 2.4h7.7425q2.4 0 2.4-2.4v-33.808q0-2.4-2.4-2.4h-7.7425q-2.4 0-2.4 2.4z" clip-path="url(#a)" fill="#fff" stroke="#fff"/>
<g clip-path="url(#a)">
<g transform="translate(1892.6 957.11) rotate(90) scale(.08 -.08)">
<use xlink:href="#l"/>
<use x="44.083984" xlink:href="#d"/>
<use x="105.607422" xlink:href="#f"/>
<use x="144.970703" xlink:href="#j"/>
<use x="242.382812" xlink:href="#h"/>
<use x="270.166016" xlink:href="#g"/>
<use x="333.544922" xlink:href="#i"/>
<use x="394.824219" xlink:href="#k"/>
</g>
</g>
<path d="m1976.6 957.11v33.808q0 2.4 2.4 2.4h7.7425q2.4 0 2.4-2.4v-33.808q0-2.4-2.4-2.4h-7.7425q-2.4 0-2.4 2.4z" clip-path="url(#a)" fill="#fff" stroke="#fff"/>
<g clip-path="url(#a)">
<g transform="translate(1980.7 957.11) rotate(90) scale(.08 -.08)">
<use xlink:href="#l"/>
<use x="44.083984" xlink:href="#d"/>
<use x="105.607422" xlink:href="#f"/>
<use x="144.970703" xlink:href="#j"/>
<use x="242.382812" xlink:href="#h"/>
<use x="270.166016" xlink:href="#g"/>
<use x="333.544922" xlink:href="#i"/>
<use x="394.824219" xlink:href="#k"/>
</g>
</g>
<defs>
<path id="b" d="m0 8.6603c2.2967 0 4.4997-0.9125 6.1237-2.5365 1.624-1.624 2.5365-3.827 2.5365-6.1237s-0.9125-4.4997-2.5365-6.1237c-1.624-1.624-3.827-2.5365-6.1237-2.5365s-4.4997 0.9125-6.1237 2.5365c-1.624 1.624-2.5365 3.827-2.5365 6.1237s0.9125 4.4997 2.5365 6.1237c1.624 1.624 3.827 2.5365 6.1237 2.5365z"/>
</defs>
<g clip-path="url(#a)" fill="#ffffff" stroke="#ffffff">
<use x="94.424242" y="1043.636364" xlink:href="#b"/>
<use x="100.719192" y="1043.636364" xlink:href="#b"/>
<use x="109.112458" y="1043.636364" xlink:href="#b"/>
<use x="119.60404" y="1043.636364" xlink:href="#b"/>
<use x="132.193939" y="1043.636364" xlink:href="#b"/>
<use x="146.882155" y="1043.636364" xlink:href="#b"/>
<use x="163.668687" y="1043.636364" xlink:href="#b"/>
<use x="182.553535" y="1043.636364" xlink:href="#b"/>
<use x="203.5367" y="1043.636364" xlink:href="#b"/>
<use x="226.618182" y="1043.636364" xlink:href="#b"/>
<use x="251.79798" y="1043.636364" xlink:href="#b"/>
<use x="279.076094" y="1043.636364" xlink:href="#b"/>
<use x="308.452525" y="1043.636364" xlink:href="#b"/>
<use x="339.927273" y="1043.636364" xlink:href="#b"/>
<use x="373.500337" y="1043.636364" xlink:href="#b"/>
<use x="409.171717" y="1043.636364" xlink:href="#b"/>
<use x="446.941414" y="1043.636364" xlink:href="#b"/>
<use x="486.809428" y="1043.636364" xlink:href="#b"/>
<use x="528.775758" y="1043.636364" xlink:href="#b"/>
<use x="572.840404" y="1043.636364" xlink:href="#b"/>
<use x="619.003367" y="1043.636364" xlink:href="#b"/>
<use x="667.264646" y="1043.636364" xlink:href="#b"/>
<use x="717.624242" y="1043.636364" xlink:href="#b"/>
<use x="770.082155" y="1043.636364" xlink:href="#b"/>
<use x="824.638384" y="1043.636364" xlink:href="#b"/>
<use x="881.292929" y="1043.636364" xlink:href="#b"/>
<use x="940.045791" y="1043.636364" xlink:href="#b"/>
<use x="1000.89697" y="1043.636364" xlink:href="#b"/>
<use x="1063.846465" y="1043.636364" xlink:href="#b"/>
<use x="1128.894276" y="1043.636364" xlink:href="#b"/>
<use x="1196.040404" y="1043.636364" xlink:href="#b"/>
<use x="1265.284848" y="1043.636364" xlink:href="#b"/>
<use x="1336.627609" y="1043.636364" xlink:href="#b"/>
<use x="1410.068687" y="1043.636364" xlink:href="#b"/>
<use x="1485.608081" y="1043.636364" xlink:href="#b"/>
<use x="1563.245791" y="1043.636364" xlink:href="#b"/>
<use x="1642.981818" y="1043.636364" xlink:href="#b"/>
<use x="1724.816162" y="1043.636364" xlink:href="#b"/>
<use x="1808.748822" y="1043.636364" xlink:href="#b"/>
<use x="1894.779798" y="1043.636364" xlink:href="#b"/>
<use x="1982.909091" y="1043.636364" xlink:href="#b"/>
<use x="176.949715" y="49.69697" xlink:href="#b"/>
<use x="94.424242" y="904.381336" xlink:href="#b"/>
<use x="259.475188" y="193.000584" xlink:href="#b"/>
<use x="100.719192" y="904.381336" xlink:href="#b"/>
<use x="120.303479" y="763.189118" xlink:href="#b"/>
<use x="155.275421" y="904.381336" xlink:href="#b"/>
<use x="827.319804" y="336.064447" xlink:href="#b"/>
<use x="251.79798" y="763.189118" xlink:href="#b"/>
<use x="400.813423" y="478.840543" xlink:href="#b"/>
<use x="1029.224242" y="621.256359" xlink:href="#b"/>
<use x="1723.617124" y="621.256359" xlink:href="#b"/>
<use x="1447.838384" y="763.189118" xlink:href="#b"/>
<use x="1563.245791" y="904.381336" xlink:href="#b"/>
<use x="1642.981818" y="904.381336" xlink:href="#b"/>
<use x="1724.816162" y="904.381336" xlink:href="#b"/>
<use x="1808.748822" y="904.381336" xlink:href="#b"/>
<use x="1410.068687" y="904.381336" xlink:href="#b"/>
<use x="1485.608081" y="904.381336" xlink:href="#b"/>
<use x="824.638384" y="904.381336" xlink:href="#b"/>
<use x="881.292929" y="904.381336" xlink:href="#b"/>
<use x="940.045791" y="904.381336" xlink:href="#b"/>
<use x="1000.89697" y="904.381336" xlink:href="#b"/>
<use x="1096.37037" y="763.189118" xlink:href="#b"/>
<use x="1196.040404" y="904.381336" xlink:href="#b"/>
<use x="1265.284848" y="904.381336" xlink:href="#b"/>
<use x="1063.846465" y="904.381336" xlink:href="#b"/>
<use x="1128.894276" y="904.381336" xlink:href="#b"/>
<use x="308.452525" y="904.381336" xlink:href="#b"/>
<use x="339.927273" y="904.381336" xlink:href="#b"/>
<use x="373.500337" y="904.381336" xlink:href="#b"/>
<use x="573.015264" y="621.256359" xlink:href="#b"/>
<use x="446.941414" y="904.381336" xlink:href="#b"/>
<use x="507.792593" y="763.189118" xlink:href="#b"/>
<use x="619.702806" y="763.189118" xlink:href="#b"/>
<use x="717.624242" y="904.381336" xlink:href="#b"/>
<use x="572.840404" y="904.381336" xlink:href="#b"/>
<use x="619.003367" y="904.381336" xlink:href="#b"/>
<use x="667.264646" y="904.381336" xlink:href="#b"/>
<use x="486.809428" y="904.381336" xlink:href="#b"/>
<use x="528.775758" y="904.381336" xlink:href="#b"/>
<use x="251.79798" y="904.381336" xlink:href="#b"/>
<use x="109.112458" y="904.381336" xlink:href="#b"/>
<use x="119.60404" y="904.381336" xlink:href="#b"/>
<use x="132.193939" y="904.381336" xlink:href="#b"/>
<use x="182.553535" y="904.381336" xlink:href="#b"/>
<use x="203.5367" y="904.381336" xlink:href="#b"/>
<use x="226.618182" y="904.381336" xlink:href="#b"/>
<use x="279.076094" y="904.381336" xlink:href="#b"/>
<use x="409.171717" y="904.381336" xlink:href="#b"/>
<use x="770.082155" y="904.381336" xlink:href="#b"/>
<use x="1336.627609" y="904.381336" xlink:href="#b"/>
<use x="1894.779798" y="904.381336" xlink:href="#b"/>
<use x="1982.909091" y="904.381336" xlink:href="#b"/>
</g>
<g clip-path="url(#a)">
<defs>
<path id="z" d="m30.609 48.391q-7.2188 0-11.422-5.6406t-4.2031-15.453 4.1719-15.453q4.1875-5.6406 11.453-5.6406 7.1875 0 11.375 5.6562 4.2031 5.6719 4.2031 15.438 0 9.7188-4.2031 15.406-4.1875 5.6875-11.375 5.6875zm0 7.6094q11.719 0 18.406-7.625 6.7031-7.6094 6.7031-21.078 0-13.422-6.7031-21.078-6.6875-7.6406-18.406-7.6406-11.766 0-18.438 7.6406-6.6562 7.6562-6.6562 21.078 0 13.469 6.6562 21.078 6.6719 7.625 18.438 7.625z"/>
<path id="r" d="m18.312 70.219v-15.531h18.5v-6.9844h-18.5v-29.688q0-6.6875 1.8281-8.5938t7.4531-1.9062h9.2188v-7.5156h-9.2188q-10.406 0-14.359 3.875-3.9531 3.8906-3.9531 14.141v29.688h-6.5938v6.9844h6.5938v15.531z"/>
<path id="am" d="m5.5156 54.688h42.672v-8.2031l-33.781-39.312h33.781v-7.1719h-43.891v8.2031l33.797 39.312h-32.578z"/>
<path id="w" d="m45.406 46.391v29.594h8.9844v-75.984h-8.9844v8.2031q-2.8281-4.875-7.1562-7.25-4.3125-2.375-10.375-2.375-9.9062 0-16.141 7.9062-6.2188 7.9219-6.2188 20.812t6.2188 20.797q6.2344 7.9062 16.141 7.9062 6.0625 0 10.375-2.375 4.3281-2.3594 7.1562-7.2344zm-30.609-19.094q0-9.9062 4.0781-15.547t11.203-5.6406 11.219 5.6406q4.1094 5.6406 4.1094 15.547t-4.1094 15.547q-4.0938 5.6406-11.219 5.6406t-11.203-5.6406-4.0781-15.547z"/>
</defs>
<g transform="translate(71.4 1046.4) scale(.1 -.1)">
<use xlink:href="#l"/>
<use x="46.333984" xlink:href="#f"/>
<use x="85.197266" xlink:href="#z"/>
<use x="146.378906" xlink:href="#r"/>
<use x="185.587891" xlink:href="#am"/>
<use x="238.078125" xlink:href="#w"/>
<use x="301.554688" xlink:href="#d"/>
<use x="363.078125" xlink:href="#j"/>
</g>
</g>
<g clip-path="url(#a)">
<defs>
<path id="ah" d="m4.2031 54.688h8.9844l11.234-42.672 11.172 42.672h10.594l11.234-42.672 11.188 42.672h8.9844l-14.312-54.688h-10.594l-11.766 44.828-11.812-44.828h-10.609z"/>
<path id="v" d="m54.891 33.016v-33.016h-8.9844v32.719q0 7.7656-3.0312 11.609-3.0312 3.8594-9.0781 3.8594-7.2812 0-11.484-4.6406-4.2031-4.625-4.2031-12.641v-30.906h-9.0312v75.984h9.0312v-29.797q3.2344 4.9375 7.5938 7.375 4.375 2.4375 10.094 2.4375 9.4219 0 14.25-5.8281 4.8438-5.8281 4.8438-17.156z"/>
</defs>
<g transform="translate(71.292 1046.4) scale(.1 -.1)">
<use xlink:href="#ah"/>
<use x="81.787109" xlink:href="#h"/>
<use x="109.570312" xlink:href="#d"/>
<use x="171.09375" xlink:href="#w"/>
<use x="234.570312" xlink:href="#d"/>
<use x="296.09375" xlink:href="#f"/>
<use x="335.457031" xlink:href="#v"/>
<use x="398.835938" xlink:href="#z"/>
<use x="460.017578" xlink:href="#k"/>
<use x="487.800781" xlink:href="#r"/>
<use x="527.009766" xlink:href="#d"/>
</g>
</g>
<g clip-path="url(#a)">
<g transform="translate(100.81 1046.4) scale(.1 -.1)">
<use xlink:href="#w"/>
<use x="63.476562" xlink:href="#d"/>
<use x="125" xlink:href="#f"/>
</g>
</g>
<g clip-path="url(#a)">
<defs>
<path id="ax" d="m9.0781 75.984h9.0312v-44.875l26.812 23.578h11.469l-29-25.578 30.234-29.109h-11.719l-27.797 26.703v-26.703h-9.0312z"/>
</defs>
<g transform="translate(104.61 1046.4) scale(.1 -.1)">
<use xlink:href="#ax"/>
<use x="57.910156" xlink:href="#k"/>
<use x="85.693359" xlink:href="#d"/>
<use x="147.216797" xlink:href="#h"/>
<use x="175" xlink:href="#g"/>
<use x="238.378906" xlink:href="#d"/>
</g>
</g>
<g clip-path="url(#a)">
<g transform="translate(120.03 1046.4) scale(.1 -.1)">
<use xlink:href="#ai"/>
<use x="58.552734" xlink:href="#f"/>
<use x="99.666016" xlink:href="#h"/>
<use x="127.449219" xlink:href="#g"/>
<use x="190.828125" xlink:href="#am"/>
</g>
</g>
<g clip-path="url(#a)">
<defs>
<path id="x" d="m48.781 52.594v-8.4062q-3.8125 2.1094-7.6406 3.1562t-7.7344 1.0469q-8.75 0-13.594-5.5469-4.8281-5.5312-4.8281-15.547t4.8281-15.562q4.8438-5.5312 13.594-5.5312 3.9062 0 7.7344 1.0469t7.6406 3.1562v-8.3125q-3.7656-1.75-7.7969-2.625-4.0156-0.89062-8.5625-0.89062-12.359 0-19.641 7.7656-7.2656 7.7656-7.2656 20.953 0 13.375 7.3438 21.031 7.3594 7.6719 20.156 7.6719 4.1406 0 8.0938-0.85938 3.9531-0.84375 7.6719-2.5469z"/>
</defs>
<g transform="translate(134.74 1046.4) scale(.1 -.1)">
<use xlink:href="#g"/>
<use x="63.378906" xlink:href="#z"/>
<use x="124.560547" xlink:href="#x"/>
<use x="179.541016" xlink:href="#v"/>
</g>
</g>
<g clip-path="url(#a)">
<g transform="translate(146.71 1046.4) scale(.1 -.1)">
<use xlink:href="#d"/>
<use x="61.523438" xlink:href="#h"/>
<use x="89.306641" xlink:href="#g"/>
<use x="152.685547" xlink:href="#j"/>
<use x="250.097656" xlink:href="#i"/>
<use x="311.376953" xlink:href="#k"/>
</g>
</g>
<g clip-path="url(#a)">
<defs>
<path id="as" d="m11.719 12.406h10.297v-12.406h-10.297zm0 39.297h10.297v-12.391h-10.297z"/>
</defs>
<g transform="translate(180.87 1046.4) scale(.1 -.1)">
<use xlink:href="#as"/>
</g>
</g>
<g clip-path="url(#a)">
<defs>
<path id="at" d="m4.8906 31.391h26.312v-8h-26.312z"/>
</defs>
<g transform="translate(201.73 1046.4) scale(.1 -.1)">
<use xlink:href="#at"/>
</g>
</g>
<g clip-path="url(#a)">
<defs>
<path id="aq" d="m17.922 72.906v-27.109h-8.2969v27.109zm18.453 0v-27.109h-8.2969v27.109z"/>
</defs>
<g transform="translate(224.32 1046.4) scale(.1 -.1)">
<use xlink:href="#aq"/>
</g>
</g>
<g clip-path="url(#a)">
<defs>
<path id="ap" d="m9.8125 72.906h13.281l32.328-60.984v60.984h9.5625v-72.906h-13.281l-32.312 60.984v-60.984h-9.5781z"/>
<path id="av" d="m8.5 21.578v33.109h8.9844v-32.766q0-7.7656 3.0156-11.656 3.0312-3.875 9.0938-3.875 7.2656 0 11.484 4.6406 4.2344 4.6406 4.2344 12.656v31h8.9844v-54.688h-8.9844v8.4062q-3.2656-4.9844-7.5938-7.4062-4.3125-2.4219-10.031-2.4219-9.4219 0-14.312 5.8594-4.875 5.8594-4.875 17.141zm22.609 34.422m4.4844 19.781h9.9062v-9.8594h-9.9062zm-19.094 0h9.9062v-9.8594h-9.9062z"/>
</defs>
<g transform="translate(229.11 1046.4) scale(.1 -.1)">
<use xlink:href="#ap"/>
<use x="74.804688" xlink:href="#i"/>
<use x="136.083984" xlink:href="#r"/>
<use x="175.292969" xlink:href="#av"/>
<use x="238.671875" xlink:href="#f"/>
<use x="279.785156" xlink:href="#k"/>
<use x="307.568359" xlink:href="#h"/>
<use x="335.351562" xlink:href="#x"/>
<use x="390.332031" xlink:href="#v"/>
</g>
</g>
<g clip-path="url(#a)">
<defs>
<path id="e" d="m10.688 12.406h10.312v-12.406h-10.312z"/>
</defs>
<g transform="translate(277.49 1046.4) scale(.1 -.1)">
<use xlink:href="#e"/>
</g>
</g>
<g clip-path="url(#a)">
<defs>
<path id="u" d="m8.5 21.578v33.109h8.9844v-32.766q0-7.7656 3.0156-11.656 3.0312-3.875 9.0938-3.875 7.2656 0 11.484 4.6406 4.2344 4.6406 4.2344 12.656v31h8.9844v-54.688h-8.9844v8.4062q-3.2656-4.9844-7.5938-7.4062-4.3125-2.4219-10.031-2.4219-9.4219 0-14.312 5.8594-4.875 5.8594-4.875 17.141z"/>
</defs>
<g transform="translate(301.43 1046.4) scale(.1 -.1)">
<use xlink:href="#ac"/>
<use x="77.001953" xlink:href="#u"/>
</g>
</g>
<g clip-path="url(#a)">
<defs>
<path id="ak" d="m44.281 53.078v-8.5q-3.7969 1.9531-7.9062 2.9219-4.0938 0.98438-8.5 0.98438-6.6875 0-10.031-2.0469t-3.3438-6.1562q0-3.125 2.3906-4.9062t9.625-3.3906l3.0781-0.6875q9.5625-2.0469 13.594-5.7812t4.0312-10.422q0-7.625-6.0312-12.078-6.0312-4.4375-16.578-4.4375-4.3906 0-9.1562 0.85938t-10.031 2.5625v9.2812q4.9844-2.5938 9.8125-3.8906 4.8281-1.2812 9.5781-1.2812 6.3438 0 9.75 2.1719 3.4219 2.1719 3.4219 6.125 0 3.6562-2.4688 5.6094-2.4531 1.9531-10.812 3.7656l-3.125 0.73438q-8.3438 1.75-12.062 5.3906-3.7031 3.6406-3.7031 9.9844 0 7.7188 5.4688 11.906 5.4688 4.2031 15.531 4.2031 4.9688 0 9.3594-0.73438 4.4062-0.71875 8.1094-2.1875z"/>
</defs>
<g transform="translate(327.83 1046.4) scale(.1 -.1)">
<use xlink:href="#ah"/>
<use x="81.787109" xlink:href="#h"/>
<use x="109.570312" xlink:href="#f"/>
<use x="150.683594" xlink:href="#ak"/>
<use x="202.783203" xlink:href="#r"/>
</g>
</g>
<g clip-path="url(#a)">
<g transform="translate(358.41 1046.4) scale(.1 -.1)">
<use xlink:href="#ak"/>
<use x="52.099609" xlink:href="#d"/>
<use x="113.623047" xlink:href="#v"/>
<use x="177.001953" xlink:href="#d"/>
<use x="238.525391" xlink:href="#g"/>
</g>
</g>
<g clip-path="url(#a)">
<defs>
<path id="au" d="m11.719 12.406h10.297v-8.4062l-8-15.625h-6.2969l4 15.625z"/>
</defs>
<g transform="translate(407.58 1046.4) scale(.1 -.1)">
<use xlink:href="#au"/>
</g>
</g>
<g clip-path="url(#a)">
<g transform="translate(439.79 1046.4) scale(.1 -.1)">
<use xlink:href="#ah"/>
<use x="81.787109" xlink:href="#z"/>
</g>
</g>
<g clip-path="url(#a)">
<g transform="translate(471.23 1046.4) scale(.1 -.1)">
<use xlink:href="#j"/>
<use x="97.412109" xlink:href="#d"/>
<use x="158.935547" xlink:href="#h"/>
<use x="186.71875" xlink:href="#g"/>
<use x="250.097656" xlink:href="#d"/>
</g>
</g>
<g clip-path="url(#a)">
<defs>
<path id="aw" d="m18.109 8.2031v-29h-9.0312v75.484h9.0312v-8.2969q2.8438 4.875 7.1562 7.2344 4.3281 2.375 10.328 2.375 9.9688 0 16.188-7.9062 6.2344-7.9062 6.2344-20.797t-6.2344-20.812q-6.2188-7.9062-16.188-7.9062-6 0-10.328 2.375-4.3125 2.375-7.1562 7.25zm30.578 19.094q0 9.9062-4.0781 15.547t-11.203 5.6406q-7.1406 0-11.219-5.6406t-4.0781-15.547 4.0781-15.547 11.219-5.6406q7.125 0 11.203 5.6406t4.0781 15.547z"/>
</defs>
<g transform="translate(517.2 1046.4) scale(.1 -.1)">
<use xlink:href="#aa"/>
<use x="63.476562" xlink:href="#aw"/>
<use x="126.953125" xlink:href="#u"/>
<use x="190.332031" xlink:href="#f"/>
</g>
</g>
<g clip-path="url(#a)">
<g transform="translate(568.28 1046.4) scale(.1 -.1)">
<use xlink:href="#h"/>
<use x="27.783203" xlink:href="#g"/>
</g>
</g>
<g clip-path="url(#a)">
<g transform="translate(607.88 1046.4) scale(.1 -.1)">
<use xlink:href="#w"/>
<use x="63.476562" xlink:href="#d"/>
<use x="125" xlink:href="#j"/>
</g>
</g>
<g clip-path="url(#a)">
<g transform="translate(654.68 1046.4) scale(.1 -.1)">
<use xlink:href="#aa"/>
<use x="63.476562" xlink:href="#i"/>
<use x="124.755859" xlink:href="#g"/>
<use x="188.134766" xlink:href="#w"/>
</g>
</g>
<g clip-path="url(#a)">
<defs>
<path id="an" d="m48.688 27.297q0 9.9062-4.0781 15.547t-11.203 5.6406q-7.1406 0-11.219-5.6406t-4.0781-15.547 4.0781-15.547 11.219-5.6406q7.125 0 11.203 5.6406t4.0781 15.547zm-30.578 19.094q2.8438 4.875 7.1562 7.2344 4.3281 2.375 10.328 2.375 9.9688 0 16.188-7.9062 6.2344-7.9062 6.2344-20.797t-6.2344-20.812q-6.2188-7.9062-16.188-7.9062-6 0-10.328 2.375-4.3125 2.375-7.1562 7.25v-8.2031h-9.0312v75.984h9.0312z"/>
<path id="ay" d="m45.406 27.984q0 9.7656-4.0312 15.125-4.0156 5.375-11.297 5.375-7.2188 0-11.25-5.375-4.0312-5.3594-4.0312-15.125 0-9.7188 4.0312-15.094t11.25-5.375q7.2812 0 11.297 5.375 4.0312 5.375 4.0312 15.094zm8.9844-21.203q0-13.953-6.2031-20.766-6.1875-6.8125-18.984-6.8125-4.7344 0-8.9375 0.70312t-8.1562 2.1719v8.7344q3.9531-2.1406 7.8125-3.1562 3.8594-1.0312 7.8594-1.0312 8.8438 0 13.234 4.6094t4.3906 13.938v4.4531q-2.7812-4.8438-7.125-7.2344t-10.406-2.3906q-10.047 0-16.203 7.6562-6.1562 7.6719-6.1562 20.328 0 12.688 6.1562 20.344 6.1562 7.6719 16.203 7.6719 6.0625 0 10.406-2.3906t7.125-7.2188v8.2969h8.9844z"/>
</defs>
<g transform="translate(698.51 1046.4) scale(.1 -.1)">
<use xlink:href="#an"/>
<use x="63.476562" xlink:href="#d"/>
<use x="125" xlink:href="#ay"/>
<use x="188.476562" xlink:href="#h"/>
<use x="216.259766" xlink:href="#g"/>
<use x="279.638672" xlink:href="#g"/>
<use x="343.017578" xlink:href="#r"/>
</g>
</g>
<g clip-path="url(#a)">
<g transform="translate(768.49 1046.4) scale(.1 -.1)">
<use xlink:href="#e"/>
</g>
</g>
<g clip-path="url(#a)">
<g transform="translate(817.62 1046.4) scale(.1 -.1)">
<use xlink:href="#ac"/>
<use x="77.001953" xlink:href="#u"/>
</g>
</g>
<g clip-path="url(#a)">
<g transform="translate(859.35 1046.4) scale(.1 -.1)">
<use xlink:href="#an"/>
<use x="63.476562" xlink:href="#f"/>
<use x="104.589844" xlink:href="#i"/>
<use x="165.869141" xlink:href="#u"/>
<use x="229.248047" xlink:href="#x"/>
<use x="284.228516" xlink:href="#v"/>
<use x="347.607422" xlink:href="#ak"/>
<use x="399.707031" xlink:href="#r"/>
</g>
</g>
<g clip-path="url(#a)">
<g transform="translate(929.8 1046.4) scale(.1 -.1)">
<use xlink:href="#w"/>
<use x="63.476562" xlink:href="#z"/>
<use x="124.658203" xlink:href="#f"/>
<use x="165.771484" xlink:href="#r"/>
</g>
</g>
<g clip-path="url(#a)">
<g transform="translate(992.5 1046.4) scale(.1 -.1)">
<use xlink:href="#g"/>
<use x="63.378906" xlink:href="#u"/>
<use x="126.757812" xlink:href="#f"/>
</g>
</g>
<g clip-path="url(#a)">
<defs>
<path id="az" d="m37.109 75.984v-7.4844h-8.5938q-4.8281 0-6.7188-1.9531-1.875-1.9531-1.875-7.0312v-4.8281h14.797v-6.9844h-14.797v-47.703h-9.0312v47.703h-8.5938v6.9844h8.5938v3.8125q0 9.125 4.25 13.297 4.25 4.1875 13.469 4.1875z"/>
</defs>
<g transform="translate(1055.9 1046.4) scale(.1 -.1)">
<use xlink:href="#i"/>
<use x="61.279297" xlink:href="#u"/>
<use x="124.658203" xlink:href="#az"/>
</g>
</g>
<g clip-path="url(#a)">
<g transform="translate(1116.7 1046.4) scale(.1 -.1)">
<use xlink:href="#j"/>
<use x="97.412109" xlink:href="#h"/>
<use x="125.195312" xlink:href="#x"/>
<use x="180.175781" xlink:href="#v"/>
</g>
</g>
<g clip-path="url(#a)">
<g transform="translate(1190.2 1046.4) scale(.1 -.1)">
<use xlink:href="#am"/>
<use x="52.490234" xlink:href="#u"/>
</g>
</g>
<g clip-path="url(#a)">
<g transform="translate(1247.9 1046.4) scale(.1 -.1)">
<use xlink:href="#ah"/>
<use x="81.787109" xlink:href="#i"/>
<use x="143.066406" xlink:href="#f"/>
<use x="184.179688" xlink:href="#r"/>
<use x="223.388672" xlink:href="#d"/>
<use x="284.912109" xlink:href="#g"/>
</g>
</g>
<g clip-path="url(#a)">
<g transform="translate(1335 1046.4) scale(.1 -.1)">
<use xlink:href="#e"/>
</g>
</g>
<g clip-path="url(#a)">
<g transform="translate(1395 1046.4) scale(.1 -.1)">
<use xlink:href="#y"/>
<use x="75.195312" xlink:href="#d"/>
<use x="136.71875" xlink:href="#u"/>
<use x="200.097656" xlink:href="#r"/>
<use x="239.306641" xlink:href="#d"/>
</g>
</g>
<g clip-path="url(#a)">
<g transform="translate(1470.9 1046.4) scale(.1 -.1)">
<use xlink:href="#ap"/>
<use x="74.804688" xlink:href="#i"/>
<use x="136.083984" xlink:href="#x"/>
<use x="191.064453" xlink:href="#v"/>
<use x="254.443359" xlink:href="#r"/>
</g>
</g>
<g clip-path="url(#a)">
<g transform="translate(1547.9 1046.4) scale(.1 -.1)">
<use xlink:href="#ah"/>
<use x="81.787109" xlink:href="#d"/>
<use x="143.310547" xlink:href="#f"/>
<use x="182.673828" xlink:href="#w"/>
<use x="246.150391" xlink:href="#d"/>
</g>
</g>
<g clip-path="url(#a)">
<g transform="translate(1635.7 1046.4) scale(.1 -.1)">
<use xlink:href="#h"/>
<use x="27.783203" xlink:href="#x"/>
<use x="82.763672" xlink:href="#v"/>
</g>
</g>
<g clip-path="url(#a)">
<g transform="translate(1714.6 1046.4) scale(.1 -.1)">
<use xlink:href="#w"/>
<use x="63.476562" xlink:href="#z"/>
<use x="124.658203" xlink:href="#f"/>
<use x="165.771484" xlink:href="#r"/>
</g>
</g>
<g clip-path="url(#a)">
<g transform="translate(1798.5 1046.4) scale(.1 -.1)">
<use xlink:href="#ak"/>
<use x="52.099609" xlink:href="#d"/>
<use x="113.623047" xlink:href="#h"/>
<use x="141.40625" xlink:href="#g"/>
</g>
</g>
<g clip-path="url(#a)">
<g transform="translate(1893.2 1046.4) scale(.1 -.1)">
<use xlink:href="#e"/>
</g>
</g>
<g clip-path="url(#a)">
<g transform="translate(1980.6 1046.4) scale(.1 -.1)">
<use xlink:href="#aq"/>
</g>
</g>
<g clip-path="url(#a)">
<defs>
<path id="c" d="m12.406 8.2969h16.109v55.625l-17.531-3.5156v8.9844l17.438 3.5156h9.8594v-64.609h16.109v-8.2969h-41.984z"/>
</defs>
<g transform="translate(169 52.456) scale(.1 -.1)">
<use xlink:href="#c"/>
<use x="63.623047" xlink:href="#e"/>
<use x="95.410156" xlink:href="#c"/>
</g>
</g>
<g clip-path="url(#a)">
<defs>
<path id="n" d="m19.188 8.2969h34.422v-8.2969h-46.281v8.2969q5.6094 5.8125 15.297 15.594 9.7031 9.7969 12.188 12.641 4.7344 5.3125 6.6094 9 1.8906 3.6875 1.8906 7.25 0 5.8125-4.0781 9.4688-4.0781 3.6719-10.625 3.6719-4.6406 0-9.7969-1.6094-5.1406-1.6094-11-4.8906v9.9688q5.9531 2.3906 11.125 3.6094 5.1875 1.2188 9.4844 1.2188 11.328 0 18.062-5.6719 6.7344-5.6562 6.7344-15.125 0-4.5-1.6875-8.5312-1.6719-4.0156-6.125-9.4844-1.2188-1.4219-7.7656-8.1875-6.5312-6.7656-18.453-18.922z"/>
</defs>
<g transform="translate(86.473 907.14) scale(.1 -.1)">
<use xlink:href="#c"/>
<use x="63.623047" xlink:href="#e"/>
<use x="95.410156" xlink:href="#n"/>
</g>
</g>
<g clip-path="url(#a)">
<defs>
<path id="m" d="m40.578 39.312q7.0781-1.5156 11.047-6.3125 3.9844-4.7812 3.9844-11.812 0-10.781-7.4219-16.703-7.4219-5.9062-21.094-5.9062-4.5781 0-9.4375 0.90625t-10.031 2.7188v9.5156q4.0938-2.3906 8.9688-3.6094 4.8906-1.2188 10.219-1.2188 9.2656 0 14.125 3.6562t4.8594 10.641q0 6.4531-4.5156 10.078-4.5156 3.6406-12.562 3.6406h-8.5v8.1094h8.8906q7.2656 0 11.125 2.9062t3.8594 8.375q0 5.6094-3.9844 8.6094-3.9688 3.0156-11.391 3.0156-4.0625 0-8.7031-0.89062-4.6406-0.875-10.203-2.7188v8.7812q5.625 1.5625 10.531 2.3438t9.25 0.78125q11.234 0 17.766-5.1094 6.5469-5.0938 6.5469-13.781 0-6.0625-3.4688-10.234t-9.8594-5.7812z"/>
</defs>
<g transform="translate(251.52 195.76) scale(.1 -.1)">
<use xlink:href="#c"/>
<use x="63.623047" xlink:href="#e"/>
<use x="95.410156" xlink:href="#m"/>
</g>
</g>
<g clip-path="url(#a)">
<defs>
<path id="t" d="m33.016 40.375q-6.6406 0-10.531-4.5469-3.875-4.5312-3.875-12.438 0-7.8594 3.875-12.438 3.8906-4.5625 10.531-4.5625t10.516 4.5625q3.875 4.5781 3.875 12.438 0 7.9062-3.875 12.438-3.875 4.5469-10.516 4.5469zm19.578 30.922v-8.9844q-3.7188 1.75-7.5 2.6719-3.7812 0.9375-7.5 0.9375-9.7656 0-14.922-6.5938-5.1406-6.5938-5.875-19.922 2.875 4.25 7.2188 6.5156 4.3594 2.2656 9.5781 2.2656 10.984 0 17.359-6.6719 6.375-6.6562 6.375-18.125 0-11.234-6.6406-18.031-6.6406-6.7812-17.672-6.7812-12.656 0-19.344 9.6875-6.6875 9.7031-6.6875 28.109 0 17.281 8.2031 27.562t22.016 10.281q3.7188 0 7.5-0.73438t7.8906-2.1875z"/>
</defs>
<g transform="translate(92.768 907.14) scale(.1 -.1)">
<use xlink:href="#c"/>
<use x="63.623047" xlink:href="#e"/>
<use x="95.410156" xlink:href="#t"/>
</g>
</g>
<g clip-path="url(#a)">
<defs>
<path id="ag" d="m8.2031 72.906h46.875v-4.2031l-26.469-68.703h-10.297l24.906 64.594h-35.016z"/>
</defs>
<g transform="translate(112.35 765.95) scale(.1 -.1)">
<use xlink:href="#c"/>
<use x="63.623047" xlink:href="#e"/>
<use x="95.410156" xlink:href="#ag"/>
</g>
</g>
<g clip-path="url(#a)">
<defs>
<path id="af" d="m31.781 34.625q-7.0312 0-11.062-3.7656-4.0156-3.7656-4.0156-10.344 0-6.5938 4.0156-10.359 4.0312-3.7656 11.062-3.7656t11.078 3.7812q4.0625 3.7969 4.0625 10.344 0 6.5781-4.0312 10.344-4.0156 3.7656-11.109 3.7656zm-9.8594 4.1875q-6.3438 1.5625-9.8906 5.9062-3.5312 4.3594-3.5312 10.609 0 8.7344 6.2188 13.812 6.2344 5.0781 17.062 5.0781 10.891 0 17.094-5.0781t6.2031-13.812q0-6.25-3.5469-10.609-3.5312-4.3438-9.8281-5.9062 7.125-1.6562 11.094-6.5 3.9844-4.8281 3.9844-11.797 0-10.609-6.4688-16.281-6.4688-5.6562-18.531-5.6562-12.047 0-18.531 5.6562-6.4688 5.6719-6.4688 16.281 0 6.9688 4 11.797 4.0156 4.8438 11.141 6.5zm-3.6094 15.578q0-5.6562 3.5312-8.8281 3.5469-3.1719 9.9375-3.1719 6.3594 0 9.9375 3.1719 3.5938 3.1719 3.5938 8.8281 0 5.6719-3.5938 8.8438-3.5781 3.1719-9.9375 3.1719-6.3906 0-9.9375-3.1719-3.5312-3.1719-3.5312-8.8438z"/>
</defs>
<g transform="translate(147.32 907.14) scale(.1 -.1)">
<use xlink:href="#c"/>
<use x="63.623047" xlink:href="#e"/>
<use x="95.410156" xlink:href="#af"/>
</g>
</g>
<g clip-path="url(#a)">
<defs>
<path id="ae" d="m10.984 1.5156v8.9844q3.7188-1.7656 7.5156-2.6875 3.8125-0.92188 7.4844-0.92188 9.7656 0 14.906 6.5625 5.1562 6.5625 5.8906 19.953-2.8281-4.2031-7.1875-6.4531-4.3438-2.25-9.6094-2.25-10.938 0-17.312 6.6094-6.375 6.625-6.375 18.109 0 11.219 6.6406 18 6.6406 6.7969 17.672 6.7969 12.656 0 19.312-9.7031 6.6719-9.6875 6.6719-28.141 0-17.234-8.1875-27.516-8.1719-10.281-21.984-10.281-3.7188 0-7.5312 0.73438-3.7969 0.73438-7.9062 2.2031zm19.625 30.906q6.6406 0 10.516 4.5312 3.8906 4.5469 3.8906 12.469 0 7.8594-3.8906 12.422-3.875 4.5625-10.516 4.5625t-10.516-4.5625-3.875-12.422q0-7.9219 3.875-12.469 3.875-4.5312 10.516-4.5312z"/>
</defs>
<g transform="translate(819.37 338.82) scale(.1 -.1)">
<use xlink:href="#c"/>
<use x="63.623047" xlink:href="#e"/>
<use x="95.410156" xlink:href="#ae"/>
</g>
</g>
<g clip-path="url(#a)">
<g transform="translate(240.67 765.95) scale(.1 -.1)">
<use xlink:href="#c"/>
<use x="63.623047" xlink:href="#e"/>
<use x="95.410156" xlink:href="#c"/>
<use x="159.033203" xlink:href="#m"/>
</g>
</g>
<g clip-path="url(#a)">
<defs>
<path id="p" d="m37.797 64.312-24.906-38.922h24.906zm-2.5938 8.5938h12.406v-47.516h10.406v-8.2031h-10.406v-17.188h-9.8125v17.188h-32.906v9.5156z"/>
</defs>
<g transform="translate(389.68 481.6) scale(.1 -.1)">
<use xlink:href="#c"/>
<use x="63.623047" xlink:href="#e"/>
<use x="95.410156" xlink:href="#c"/>
<use x="159.033203" xlink:href="#p"/>
</g>
</g>
<g clip-path="url(#a)">
<defs>
<path id="o" d="m10.797 72.906h38.719v-8.3125h-29.688v-17.859q2.1406 0.73438 4.2812 1.0938 2.1562 0.35938 4.3125 0.35938 12.203 0 19.328-6.6875 7.1406-6.6875 7.1406-18.109 0-11.766-7.3281-18.297-7.3281-6.5156-20.656-6.5156-4.5938 0-9.3594 0.78125-4.75 0.78125-9.8281 2.3438v9.9219q4.3906-2.3906 9.0781-3.5625t9.9062-1.1719q8.4531 0 13.375 4.4375 4.9375 4.4375 4.9375 12.062 0 7.6094-4.9375 12.047-4.9219 4.4531-13.375 4.4531-3.9531 0-7.8906-0.875-3.9219-0.875-8.0156-2.7344z"/>
</defs>
<g transform="translate(1018.1 624.02) scale(.1 -.1)">
<use xlink:href="#c"/>
<use x="63.623047" xlink:href="#e"/>
<use x="95.410156" xlink:href="#c"/>
<use x="159.033203" xlink:href="#o"/>
</g>
</g>
<g clip-path="url(#a)">
<g transform="translate(1712.5 624.02) scale(.1 -.1)">
<use xlink:href="#c"/>
<use x="63.623047" xlink:href="#e"/>
<use x="95.410156" xlink:href="#c"/>
<use x="159.033203" xlink:href="#t"/>
</g>
</g>
<g clip-path="url(#a)">
<defs>
<path id="aj" d="m31.781 66.406q-7.6094 0-11.453-7.5-3.8281-7.4844-3.8281-22.531 0-14.984 3.8281-22.484 3.8438-7.5 11.453-7.5 7.6719 0 11.5 7.5 3.8438 7.5 3.8438 22.484 0 15.047-3.8438 22.531-3.8281 7.5-11.5 7.5zm0 7.8125q12.266 0 18.734-9.7031 6.4688-9.6875 6.4688-28.141 0-18.406-6.4688-28.109-6.4688-9.6875-18.734-9.6875-12.25 0-18.719 9.6875-6.4688 9.7031-6.4688 28.109 0 18.453 6.4688 28.141 6.4688 9.7031 18.719 9.7031z"/>
</defs>
<g transform="translate(1436.7 765.95) scale(.1 -.1)">
<use xlink:href="#c"/>
<use x="63.623047" xlink:href="#e"/>
<use x="95.410156" xlink:href="#n"/>
<use x="159.033203" xlink:href="#aj"/>
</g>
</g>
<g clip-path="url(#a)">
<g transform="translate(1552.1 907.14) scale(.1 -.1)">
<use xlink:href="#c"/>
<use x="63.623047" xlink:href="#e"/>
<use x="95.410156" xlink:href="#n"/>
<use x="159.033203" xlink:href="#c"/>
</g>
</g>
<g clip-path="url(#a)">
<g transform="translate(1631.8 907.14) scale(.1 -.1)">
<use xlink:href="#c"/>
<use x="63.623047" xlink:href="#e"/>
<use x="95.410156" xlink:href="#n"/>
<use x="159.033203" xlink:href="#n"/>
</g>
</g>
<g clip-path="url(#a)">
<g transform="translate(1713.7 907.14) scale(.1 -.1)">
<use xlink:href="#c"/>
<use x="63.623047" xlink:href="#e"/>
<use x="95.410156" xlink:href="#n"/>
<use x="159.033203" xlink:href="#m"/>
</g>
</g>
<g clip-path="url(#a)">
<g transform="translate(1797.6 907.14) scale(.1 -.1)">
<use xlink:href="#c"/>
<use x="63.623047" xlink:href="#e"/>
<use x="95.410156" xlink:href="#n"/>
<use x="159.033203" xlink:href="#p"/>
</g>
</g>
<g clip-path="url(#a)">
<g transform="translate(1398.9 907.14) scale(.1 -.1)">
<use xlink:href="#c"/>
<use x="63.623047" xlink:href="#e"/>
<use x="95.410156" xlink:href="#n"/>
<use x="159.033203" xlink:href="#o"/>
</g>
</g>
<g clip-path="url(#a)">
<g transform="translate(1474.5 907.14) scale(.1 -.1)">
<use xlink:href="#c"/>
<use x="63.623047" xlink:href="#e"/>
<use x="95.410156" xlink:href="#n"/>
<use x="159.033203" xlink:href="#t"/>
</g>
</g>
<g clip-path="url(#a)">
<g transform="translate(813.51 907.14) scale(.1 -.1)">
<use xlink:href="#c"/>
<use x="63.623047" xlink:href="#e"/>
<use x="95.410156" xlink:href="#n"/>
<use x="159.033203" xlink:href="#ag"/>
</g>
</g>
<g clip-path="url(#a)">
<g transform="translate(870.16 907.14) scale(.1 -.1)">
<use xlink:href="#c"/>
<use x="63.623047" xlink:href="#e"/>
<use x="95.410156" xlink:href="#n"/>
<use x="159.033203" xlink:href="#af"/>
</g>
</g>
<g clip-path="url(#a)">
<g transform="translate(928.91 907.14) scale(.1 -.1)">
<use xlink:href="#c"/>
<use x="63.623047" xlink:href="#e"/>
<use x="95.410156" xlink:href="#n"/>
<use x="159.033203" xlink:href="#ae"/>
</g>
</g>
<g clip-path="url(#a)">
<g transform="translate(989.76 907.14) scale(.1 -.1)">
<use xlink:href="#c"/>
<use x="63.623047" xlink:href="#e"/>
<use x="95.410156" xlink:href="#m"/>
<use x="159.033203" xlink:href="#aj"/>
</g>
</g>
<g clip-path="url(#a)">
<g transform="translate(1085.2 765.95) scale(.1 -.1)">
<use xlink:href="#c"/>
<use x="63.623047" xlink:href="#e"/>
<use x="95.410156" xlink:href="#m"/>
<use x="159.033203" xlink:href="#c"/>
</g>
</g>
<g clip-path="url(#a)">
<g transform="translate(1184.9 907.14) scale(.1 -.1)">
<use xlink:href="#c"/>
<use x="63.623047" xlink:href="#e"/>
<use x="95.410156" xlink:href="#m"/>
<use x="159.033203" xlink:href="#n"/>
</g>
</g>
<g clip-path="url(#a)">
<g transform="translate(1254.2 907.14) scale(.1 -.1)">
<use xlink:href="#c"/>
<use x="63.623047" xlink:href="#e"/>
<use x="95.410156" xlink:href="#m"/>
<use x="159.033203" xlink:href="#m"/>
</g>
</g>
<g clip-path="url(#a)">
<g transform="translate(1052.7 907.14) scale(.1 -.1)">
<use xlink:href="#c"/>
<use x="63.623047" xlink:href="#e"/>
<use x="95.410156" xlink:href="#m"/>
<use x="159.033203" xlink:href="#p"/>
</g>
</g>
<g clip-path="url(#a)">
<g transform="translate(1117.8 907.14) scale(.1 -.1)">
<use xlink:href="#c"/>
<use x="63.623047" xlink:href="#e"/>
<use x="95.410156" xlink:href="#m"/>
<use x="159.033203" xlink:href="#o"/>
</g>
</g>
<g clip-path="url(#a)">
<g transform="translate(297.32 907.14) scale(.1 -.1)">
<use xlink:href="#c"/>
<use x="63.623047" xlink:href="#e"/>
<use x="95.410156" xlink:href="#m"/>
<use x="159.033203" xlink:href="#t"/>
</g>
</g>
<g clip-path="url(#a)">
<g transform="translate(328.79 907.14) scale(.1 -.1)">
<use xlink:href="#c"/>
<use x="63.623047" xlink:href="#e"/>
<use x="95.410156" xlink:href="#m"/>
<use x="159.033203" xlink:href="#ag"/>
</g>
</g>
<g clip-path="url(#a)">
<g transform="translate(362.37 907.14) scale(.1 -.1)">
<use xlink:href="#c"/>
<use x="63.623047" xlink:href="#e"/>
<use x="95.410156" xlink:href="#m"/>
<use x="159.033203" xlink:href="#af"/>
</g>
</g>
<g clip-path="url(#a)">
<g transform="translate(561.88 624.02) scale(.1 -.1)">
<use xlink:href="#c"/>
<use x="63.623047" xlink:href="#e"/>
<use x="95.410156" xlink:href="#m"/>
<use x="159.033203" xlink:href="#ae"/>
</g>
</g>
<g clip-path="url(#a)">
<g transform="translate(435.81 907.14) scale(.1 -.1)">
<use xlink:href="#c"/>
<use x="63.623047" xlink:href="#e"/>
<use x="95.410156" xlink:href="#p"/>
<use x="159.033203" xlink:href="#c"/>
</g>
</g>
<g clip-path="url(#a)">
<g transform="translate(496.66 765.95) scale(.1 -.1)">
<use xlink:href="#c"/>
<use x="63.623047" xlink:href="#e"/>
<use x="95.410156" xlink:href="#p"/>
<use x="159.033203" xlink:href="#n"/>
</g>
</g>
<g clip-path="url(#a)">
<g transform="translate(608.57 765.95) scale(.1 -.1)">
<use xlink:href="#c"/>
<use x="63.623047" xlink:href="#e"/>
<use x="95.410156" xlink:href="#p"/>
<use x="159.033203" xlink:href="#m"/>
</g>
</g>
<g clip-path="url(#a)">
<g transform="translate(706.49 907.14) scale(.1 -.1)">
<use xlink:href="#c"/>
<use x="63.623047" xlink:href="#e"/>
<use x="95.410156" xlink:href="#p"/>
<use x="159.033203" xlink:href="#p"/>
</g>
</g>
<g clip-path="url(#a)">
<g transform="translate(561.71 907.14) scale(.1 -.1)">
<use xlink:href="#c"/>
<use x="63.623047" xlink:href="#e"/>
<use x="95.410156" xlink:href="#p"/>
<use x="159.033203" xlink:href="#o"/>
</g>
</g>
<g clip-path="url(#a)">
<g transform="translate(607.87 907.14) scale(.1 -.1)">
<use xlink:href="#c"/>
<use x="63.623047" xlink:href="#e"/>
<use x="95.410156" xlink:href="#p"/>
<use x="159.033203" xlink:href="#t"/>
</g>
</g>
<g clip-path="url(#a)">
<g transform="translate(656.13 907.14) scale(.1 -.1)">
<use xlink:href="#c"/>
<use x="63.623047" xlink:href="#e"/>
<use x="95.410156" xlink:href="#p"/>
<use x="159.033203" xlink:href="#ag"/>
</g>
</g>
<g clip-path="url(#a)">
<g transform="translate(475.68 907.14) scale(.1 -.1)">
<use xlink:href="#c"/>
<use x="63.623047" xlink:href="#e"/>
<use x="95.410156" xlink:href="#p"/>
<use x="159.033203" xlink:href="#af"/>
</g>
</g>
<g clip-path="url(#a)">
<g transform="translate(517.64 907.14) scale(.1 -.1)">
<use xlink:href="#c"/>
<use x="63.623047" xlink:href="#e"/>
<use x="95.410156" xlink:href="#p"/>
<use x="159.033203" xlink:href="#ae"/>
</g>
</g>
<g clip-path="url(#a)">
<g transform="translate(240.67 907.14) scale(.1 -.1)">
<use xlink:href="#c"/>
<use x="63.623047" xlink:href="#e"/>
<use x="95.410156" xlink:href="#o"/>
<use x="159.033203" xlink:href="#aj"/>
</g>
</g>
<g clip-path="url(#a)">
<g transform="translate(97.98 907.14) scale(.1 -.1)">
<use xlink:href="#c"/>
<use x="63.623047" xlink:href="#e"/>
<use x="95.410156" xlink:href="#o"/>
<use x="159.033203" xlink:href="#c"/>
</g>
</g>
<g clip-path="url(#a)">
<g transform="translate(108.47 907.14) scale(.1 -.1)">
<use xlink:href="#c"/>
<use x="63.623047" xlink:href="#e"/>
<use x="95.410156" xlink:href="#o"/>
<use x="159.033203" xlink:href="#n"/>
</g>
</g>
<g clip-path="url(#a)">
<g transform="translate(121.06 907.14) scale(.1 -.1)">
<use xlink:href="#c"/>
<use x="63.623047" xlink:href="#e"/>
<use x="95.410156" xlink:href="#o"/>
<use x="159.033203" xlink:href="#m"/>
</g>
</g>
<g clip-path="url(#a)">
<g transform="translate(171.42 907.14) scale(.1 -.1)">
<use xlink:href="#c"/>
<use x="63.623047" xlink:href="#e"/>
<use x="95.410156" xlink:href="#o"/>
<use x="159.033203" xlink:href="#p"/>
</g>
</g>
<g clip-path="url(#a)">
<g transform="translate(192.4 907.14) scale(.1 -.1)">
<use xlink:href="#c"/>
<use x="63.623047" xlink:href="#e"/>
<use x="95.410156" xlink:href="#o"/>
<use x="159.033203" xlink:href="#o"/>
</g>
</g>
<g clip-path="url(#a)">
<g transform="translate(215.49 907.14) scale(.1 -.1)">
<use xlink:href="#c"/>
<use x="63.623047" xlink:href="#e"/>
<use x="95.410156" xlink:href="#o"/>
<use x="159.033203" xlink:href="#t"/>
</g>
</g>
<g clip-path="url(#a)">
<g transform="translate(267.94 907.14) scale(.1 -.1)">
<use xlink:href="#c"/>
<use x="63.623047" xlink:href="#e"/>
<use x="95.410156" xlink:href="#o"/>
<use x="159.033203" xlink:href="#ag"/>
</g>
</g>
<g clip-path="url(#a)">
<g transform="translate(398.04 907.14) scale(.1 -.1)">
<use xlink:href="#c"/>
<use x="63.623047" xlink:href="#e"/>
<use x="95.410156" xlink:href="#o"/>
<use x="159.033203" xlink:href="#af"/>
</g>
</g>
<g clip-path="url(#a)">
<g transform="translate(758.95 907.14) scale(.1 -.1)">
<use xlink:href="#c"/>
<use x="63.623047" xlink:href="#e"/>
<use x="95.410156" xlink:href="#o"/>
<use x="159.033203" xlink:href="#ae"/>
</g>
</g>
<g clip-path="url(#a)">
<g transform="translate(1325.5 907.14) scale(.1 -.1)">
<use xlink:href="#c"/>
<use x="63.623047" xlink:href="#e"/>
<use x="95.410156" xlink:href="#t"/>
<use x="159.033203" xlink:href="#aj"/>
</g>
</g>
<g clip-path="url(#a)">
<g transform="translate(1883.6 907.14) scale(.1 -.1)">
<use xlink:href="#c"/>
<use x="63.623047" xlink:href="#e"/>
<use x="95.410156" xlink:href="#t"/>
<use x="159.033203" xlink:href="#c"/>
</g>
</g>
<g clip-path="url(#a)">
<g transform="translate(1971.8 907.14) scale(.1 -.1)">
<use xlink:href="#c"/>
<use x="63.623047" xlink:href="#e"/>
<use x="95.410156" xlink:href="#t"/>
<use x="159.033203" xlink:href="#n"/>
</g>
</g>
<defs>
<clipPath id="a">
<rect width="2077.3" height="1093.3"/>
</clipPath>
</defs>
</svg>
