<?xml version="1.0" encoding="UTF-8"?>
<!DOCTYPE svg  PUBLIC '-//W3C//DTD SVG 1.1//EN'  'http://www.w3.org/Graphics/SVG/1.1/DTD/svg11.dtd'>
<svg width="1874.7pt" height="986.67pt" version="1.1" viewBox="0 0 1874.7 986.67" xmlns="http://www.w3.org/2000/svg" xmlns:xlink="http://www.w3.org/1999/xlink">
<defs>
<style type="text/css">*{stroke-linecap:butt;stroke-linejoin:round;}</style>
</defs>
<path d="m0 986.67h1874.7v-986.67h-1874.7z" fill="#fff"/>
<g fill="none" stroke="#000">
<path d="m398.62 45.623v136.58" clip-path="url(#a)"/>
<path d="m398.62 182.21 641.81 132.91" clip-path="url(#a)"/>
<path d="m398.62 182.21-182.19 636.21" clip-path="url(#a)"/>
<path d="m398.62 182.21-138.5 636.21" clip-path="url(#a)"/>
<path d="m398.62 182.21-29.271 513.58" clip-path="url(#a)"/>
<path d="m398.62 182.21-269.57 636.21" clip-path="url(#a)"/>
<path d="m398.62 182.21-225.88 636.21" clip-path="url(#a)"/>
<path d="m398.62 182.21 79.957 636.21" clip-path="url(#a)"/>
<path d="m398.62 182.21 123.65 636.21" clip-path="url(#a)"/>
<path d="m1040.4 315.12 290.12 380.67" clip-path="url(#a)"/>
<path d="m1040.4 315.12-474.47 503.3" clip-path="url(#a)"/>
<path d="m1040.4 315.12-264.21 129.61" clip-path="url(#a)"/>
<path d="m1040.4 315.12 311.35 256.34" clip-path="url(#a)"/>
<path d="m1040.4 315.12 137.21 503.3" clip-path="url(#a)"/>
<path d="m216.43 818.42v122.63" clip-path="url(#a)"/>
<path d="m260.12 818.42v122.63" clip-path="url(#a)"/>
<path d="m369.35 695.79-65.537 122.63" clip-path="url(#a)"/>
<path d="m369.35 695.79-21.846 122.63" clip-path="url(#a)"/>
<path d="m369.35 695.79 21.846 122.63" clip-path="url(#a)"/>
<path d="m369.35 695.79 65.537 122.63" clip-path="url(#a)"/>
<path d="m303.81 818.42v122.63" clip-path="url(#a)"/>
<path d="m347.5 818.42v122.63" clip-path="url(#a)"/>
<path d="m391.19 818.42v122.63" clip-path="url(#a)"/>
<path d="m434.89 818.42v122.63" clip-path="url(#a)"/>
<path d="m1330.6 695.79 458.76 245.25" clip-path="url(#a)"/>
<path d="m1330.6 695.79 415.07 245.25" clip-path="url(#a)"/>
<path d="m1330.6 695.79 371.37 245.25" clip-path="url(#a)"/>
<path d="m1330.6 695.79-1245.2 122.63" clip-path="url(#a)"/>
<path d="m565.96 818.42v122.63" clip-path="url(#a)"/>
<path d="m776.22 444.73-166.57 373.68" clip-path="url(#a)"/>
<path d="m776.22 444.73 117.42 373.68" clip-path="url(#a)"/>
<path d="m776.22 444.73-79.19 373.68" clip-path="url(#a)"/>
<path d="m776.22 444.73 128.34 126.73" clip-path="url(#a)"/>
<path d="m1351.8 571.46-130.45 246.96" clip-path="url(#a)"/>
<path d="m1351.8 571.46-64.912 124.33" clip-path="url(#a)"/>
<path d="m1351.8 571.46 0.62416 246.96" clip-path="url(#a)"/>
<path d="m1351.8 571.46 150.42 124.33" clip-path="url(#a)"/>
<path d="m1351.8 571.46 44.315 246.96" clip-path="url(#a)"/>
<path d="m1221.3 818.42v122.63" clip-path="url(#a)"/>
<path d="m1286.9 695.79-21.846 122.63" clip-path="url(#a)"/>
<path d="m1286.9 695.79 21.846 122.63" clip-path="url(#a)"/>
<path d="m1352.4 818.42v122.63" clip-path="url(#a)"/>
<path d="m1502.2 695.79-280.87 122.63" clip-path="url(#a)" stroke-dasharray="3.7,1.6"/>
<path d="m1502.2 695.79-62.416 122.63" clip-path="url(#a)"/>
<path d="m1502.2 695.79-18.725 122.63" clip-path="url(#a)"/>
<path d="m1502.2 695.79 24.966 122.63" clip-path="url(#a)"/>
<path d="m1502.2 695.79 68.657 122.63" clip-path="url(#a)"/>
<path d="m1502.2 695.79 112.35 122.63" clip-path="url(#a)"/>
<path d="m1502.2 695.79 156.04 122.63" clip-path="url(#a)"/>
<path d="m1439.8 818.42v122.63" clip-path="url(#a)"/>
<path d="m1483.5 818.42v122.63" clip-path="url(#a)"/>
<path d="m1265 818.42v122.63" clip-path="url(#a)"/>
<path d="m1308.7 818.42v122.63" clip-path="url(#a)"/>
<path d="m609.65 818.42v122.63" clip-path="url(#a)"/>
<path d="m893.64 818.42-240.3 122.63" clip-path="url(#a)"/>
<path d="m893.64 818.42 240.3 122.63" clip-path="url(#a)"/>
<path d="m697.03 818.42v122.63" clip-path="url(#a)"/>
<path d="m904.57 571.46-163.84 246.96" clip-path="url(#a)"/>
<path d="m904.57 571.46-98.305 124.33" clip-path="url(#a)"/>
<path d="m904.57 571.46 32.768 124.33" clip-path="url(#a)"/>
<path d="m904.57 571.46 98.305 246.96" clip-path="url(#a)"/>
<path d="m904.57 571.46 163.84 124.33" clip-path="url(#a)"/>
<path d="m904.57 571.46-32.768 246.96" clip-path="url(#a)"/>
<path d="m740.72 818.42v122.63" clip-path="url(#a)"/>
<path d="m806.26 695.79-21.846 122.63" clip-path="url(#a)"/>
<path d="m806.26 695.79 21.846 122.63" clip-path="url(#a)"/>
<path d="m937.33 695.79-21.846 122.63" clip-path="url(#a)"/>
<path d="m937.33 695.79 21.846 122.63" clip-path="url(#a)"/>
<path d="m1002.9 818.42v122.63" clip-path="url(#a)"/>
<path d="m1068.4 695.79-21.846 122.63" clip-path="url(#a)"/>
<path d="m1068.4 695.79 21.846 122.63" clip-path="url(#a)"/>
<path d="m129.05 818.42v122.63" clip-path="url(#a)"/>
<path d="m1046.6 818.42v122.63" clip-path="url(#a)"/>
<path d="m1090.3 818.42v122.63" clip-path="url(#a)"/>
<path d="m915.49 818.42v122.63" clip-path="url(#a)"/>
<path d="m959.18 818.42v122.63" clip-path="url(#a)"/>
<path d="m784.41 818.42v122.63" clip-path="url(#a)"/>
<path d="m828.11 818.42v122.63" clip-path="url(#a)"/>
<path d="m85.357 818.42v122.63" clip-path="url(#a)"/>
<path d="m172.74 818.42v122.63" clip-path="url(#a)"/>
<path d="m478.58 818.42v122.63" clip-path="url(#a)"/>
<path d="m522.27 818.42v122.63" clip-path="url(#a)"/>
<path d="m871.8 818.42v122.63" clip-path="url(#a)"/>
<path d="m1177.6 818.42v122.63" clip-path="url(#a)"/>
<path d="m1396.1 818.42v122.63" clip-path="url(#a)"/>
<path d="m1527.2 818.42v122.63" clip-path="url(#a)"/>
<path d="m1570.9 818.42v122.63" clip-path="url(#a)"/>
<path d="m1614.5 818.42v122.63" clip-path="url(#a)"/>
<path d="m1658.2 818.42v122.63" clip-path="url(#a)"/>
</g>
<path d="m392.35 110.91v6.0162q0 2.4 2.4 2.4h7.7425q2.4 0 2.4-2.4v-6.0162q0-2.4-2.4-2.4h-7.7425q-2.4 0-2.4 2.4z" clip-path="url(#a)" fill="#fff" stroke="#fff"/>
<g clip-path="url(#a)">
<defs>
<path id="af" d="m9.8125 72.906h9.8594v-29.891h35.844v29.891h9.8594v-72.906h-9.8594v34.719h-35.844v-34.719h-9.8594z"/>
</defs>
<g transform="translate(396.41 110.91) rotate(90) scale(.08 -.08)">
<use xlink:href="#af"/>
</g>
</g>
<path d="m715.57 254.25 5.3588 1.1098q2.3501 0.48669 2.8368-1.8634l1.5701-7.5816q0.48669-2.3501-1.8634-2.8368l-5.3588-1.1098q-2.3501-0.48669-2.8368 1.8634l-1.5701 7.5816q-0.48669 2.3501 1.8634 2.8368z" clip-path="url(#a)" fill="#fff" stroke="#fff"/>
<g clip-path="url(#a)">
<defs>
<path id="u" d="m34.188 63.188-13.391-36.281h26.812zm-5.5781 9.7188h11.188l27.781-72.906h-10.25l-6.6406 18.703h-32.859l-6.6406-18.703h-10.406z"/>
</defs>
<g transform="translate(716.4 250.27) rotate(11.7) scale(.08 -.08)">
<use xlink:href="#u"/>
</g>
</g>
<path d="m312.89 504.36 1.328-4.6374q0.66072-2.3073-1.6465-2.968l-7.4433-2.1315q-2.3073-0.66072-2.968 1.6465l-1.328 4.6374q-0.66072 2.3073 1.6465 2.968l7.4433 2.1315q2.3073 0.66072 2.968-1.6465z" clip-path="url(#a)" fill="#fff" stroke="#fff"/>
<g clip-path="url(#a)">
<defs>
<path id="y" d="m19.672 64.797v-27.391h12.406q6.8906 0 10.641 3.5625 3.7656 3.5625 3.7656 10.156 0 6.5469-3.7656 10.109-3.75 3.5625-10.641 3.5625zm-9.8594 8.1094h22.266q12.266 0 18.531-5.5469 6.2812-5.5469 6.2812-16.234 0-10.797-6.2812-16.312-6.2656-5.5156-18.531-5.5156h-12.406v-29.297h-9.8594z"/>
</defs>
<g transform="translate(308.98 503.24) rotate(-74.02) scale(.08 -.08)">
<use xlink:href="#y"/>
</g>
</g>
<path d="m334.92 504.32 1.1641-5.3473q0.51051-2.3451-1.8346-2.8556l-7.5653-1.6469q-2.3451-0.51051-2.8556 1.8346l-1.1641 5.3473q-0.51051 2.3451 1.8346 2.8556l7.5653 1.6469q2.3451 0.51051 2.8556-1.8346z" clip-path="url(#a)" fill="#fff" stroke="#fff"/>
<g clip-path="url(#a)">
<g transform="translate(330.95 503.46) rotate(-77.719) scale(.08 -.08)">
<use xlink:href="#u"/>
</g>
</g>
<path d="m390.09 442.09 0.31139-5.4636q0.13656-2.3961-2.2595-2.5327l-7.73-0.44056q-2.3961-0.13656-2.5327 2.2595l-0.31139 5.4636q-0.13656 2.3961 2.2595 2.5327l7.73 0.44056q2.3961 0.13656 2.5327-2.2595z" clip-path="url(#a)" fill="#fff" stroke="#fff"/>
<g clip-path="url(#a)">
<g transform="translate(386.03 441.86) rotate(-86.738) scale(.08 -.08)">
<use xlink:href="#u"/>
</g>
</g>
<path d="m268.47 505.45 2.2843-5.391q0.93633-2.2098-1.2735-3.1461l-7.129-3.0206q-2.2098-0.93633-3.1461 1.2735l-2.2843 5.391q-0.93633 2.2098 1.2735 3.1461l7.129 3.0206q2.2098 0.93633 3.1461-1.2735z" clip-path="url(#a)" fill="#fff" stroke="#fff"/>
<g clip-path="url(#a)">
<defs>
<path id="q" d="m8.6875 72.906h9.9219v-44.297q0-11.719 4.2344-16.875 4.25-5.1406 13.781-5.1406 9.4688 0 13.719 5.1406 4.25 5.1562 4.25 16.875v44.297h9.9062v-45.516q0-14.25-7.0625-21.531-7.0469-7.2812-20.812-7.2812-13.828 0-20.891 7.2812-7.0469 7.2812-7.0469 21.531z"/>
</defs>
<g transform="translate(264.72 503.87) rotate(-67.037) scale(.08 -.08)">
<use xlink:href="#q"/>
</g>
</g>
<path d="m290.61 505.17 1.959-5.5176q0.80299-2.2617-1.4587-3.0647l-7.2963-2.5905q-2.2617-0.80299-3.0647 1.4587l-1.959 5.5176q-0.80299 2.2617 1.4587 3.0647l7.2963 2.5905q2.2617 0.80299 3.0647-1.4587z" clip-path="url(#a)" fill="#fff" stroke="#fff"/>
<g clip-path="url(#a)">
<g transform="translate(286.78 503.81) rotate(-70.453) scale(.08 -.08)">
<use xlink:href="#q"/>
</g>
</g>
<path d="m432.01 498.19 0.73009 5.8093q0.29927 2.3813 2.6805 2.082l7.6821-0.96546q2.3813-0.29927 2.082-2.6805l-0.73009-5.8093q-0.29927-2.3813-2.6805-2.082l-7.6821 0.96546q-2.3813 0.29927-2.082 2.6805z" clip-path="url(#a)" fill="#fff" stroke="#fff"/>
<g clip-path="url(#a)">
<g transform="translate(436.04 497.68) rotate(82.837) scale(.08 -.08)">
<use xlink:href="#q"/>
</g>
</g>
<path d="m453.73 498.63 1.117 5.7475q0.45787 2.3559 2.8138 1.898l7.6003-1.4771q2.3559-0.45787 1.898-2.8138l-1.117-5.7475q-0.45787-2.3559-2.8138-1.898l-7.6003 1.4771q-2.3559 0.45787-1.898 2.8138z" clip-path="url(#a)" fill="#fff" stroke="#fff"/>
<g clip-path="url(#a)">
<g transform="translate(457.72 497.86) rotate(79.002) scale(.08 -.08)">
<use xlink:href="#q"/>
</g>
</g>
<path d="m1178.7 506.86 3.6468 4.785q1.4548 1.9088 3.3636 0.45404l6.1579-4.6932q1.9088-1.4548 0.45404-3.3636l-3.6468-4.785q-1.4548-1.9088-3.3636-0.45404l-6.1579 4.6932q-1.9088 1.4548-0.45403 3.3636z" clip-path="url(#a)" fill="#fff" stroke="#fff"/>
<g clip-path="url(#a)">
<g transform="translate(1181.9 504.4) rotate(52.688) scale(.08 -.08)">
<use xlink:href="#af"/>
</g>
</g>
<path d="m806.23 572.69 3.0577-3.2434q1.6463-1.7463-0.10003-3.3926l-5.6337-5.3111q-1.7463-1.6463-3.3926 0.10003l-3.0577 3.2434q-1.6463 1.7463 0.10003 3.3926l5.6337 5.3111q1.7463 1.6463 3.3926-0.10003z" clip-path="url(#a)" fill="#fff" stroke="#fff"/>
<g clip-path="url(#a)">
<defs>
<path id="aj" d="m9.8125 72.906h9.8594v-64.609h35.5v-8.2969h-45.359z"/>
</defs>
<g transform="translate(803.27 569.9) rotate(-46.689) scale(.08 -.08)">
<use xlink:href="#aj"/>
</g>
</g>
<path d="m908.39 386.88 5.4013-2.6498q2.1547-1.057 1.0976-3.2117l-3.4101-6.9511q-1.057-2.1547-3.2117-1.0976l-5.4013 2.6498q-2.1547 1.057-1.0976 3.2117l3.4101 6.9511q1.057 2.1547 3.2117 1.0976z" clip-path="url(#a)" fill="#fff" stroke="#fff"/>
<g clip-path="url(#a)">
<g transform="translate(906.6 383.23) rotate(-26.132) scale(.08 -.08)">
<use xlink:href="#af"/>
</g>
</g>
<path d="m1189.8 446.22 4.6446 3.824q1.8528 1.5255 3.3783-0.32734l4.9212-5.9773q1.5255-1.8528-0.32734-3.3783l-4.6446-3.824q-1.8528-1.5255-3.3783 0.32734l-4.9212 5.9773q-1.5255 1.8528 0.32734 3.3783z" clip-path="url(#a)" fill="#fff" stroke="#fff"/>
<g clip-path="url(#a)">
<g transform="translate(1192.4 443.08) rotate(39.466) scale(.08 -.08)">
<use xlink:href="#af"/>
</g>
</g>
<path d="m1102.2 565.59 1.54 5.6489q0.63124 2.3155 2.9467 1.6843l7.4699-2.0364q2.3155-0.63124 1.6843-2.9467l-1.54-5.6489q-0.63124-2.3155-2.9467-1.6843l-7.4699 2.0364q-2.3155 0.63124-1.6843 2.9467z" clip-path="url(#a)" fill="#fff" stroke="#fff"/>
<g clip-path="url(#a)">
<g transform="translate(1106.1 564.52) rotate(74.751) scale(.08 -.08)">
<use xlink:href="#q"/>
</g>
</g>
<path d="m210.16 862.09v35.285q0 2.4 2.4 2.4h7.7425q2.4 0 2.4-2.4v-35.285q0-2.4-2.4-2.4h-7.7425q-2.4 0-2.4 2.4z" clip-path="url(#a)" fill="#fff" stroke="#fff"/>
<g clip-path="url(#a)">
<defs>
<path id="j" d="m-0.29688 72.906h61.672v-8.3125h-25.875v-64.594h-9.9062v64.594h-25.891z"/>
<path id="d" d="m56.203 29.594v-4.3906h-41.312q0.59375-9.2812 5.5938-14.141t13.938-4.8594q5.1719 0 10.031 1.2656t9.6562 3.8125v-8.5q-4.8438-2.0469-9.9219-3.125t-10.297-1.0781q-13.094 0-20.734 7.6094-7.6406 7.625-7.6406 20.625 0 13.422 7.25 21.297 7.25 7.8906 19.562 7.8906 11.031 0 17.453-7.1094 6.4219-7.0938 6.4219-19.297zm-8.9844 2.6406q-0.09375 7.3594-4.125 11.75-4.0312 4.4062-10.672 4.4062-7.5156 0-12.031-4.25t-5.2031-11.969z"/>
<path id="i" d="m41.109 46.297q-1.5156 0.875-3.2969 1.2812-1.7812 0.42188-3.9219 0.42188-7.625 0-11.703-4.9531t-4.0781-14.234v-28.812h-9.0312v54.688h9.0312v-8.5q2.8438 4.9844 7.375 7.3906 4.5469 2.4219 11.047 2.4219 0.92188 0 2.0469-0.125 1.125-0.10938 2.4844-0.35938z"/>
<path id="k" d="m52 44.188q3.375 6.0625 8.0625 8.9375t11.031 2.875q8.5469 0 13.188-5.9844 4.6406-5.9688 4.6406-17v-33.016h-9.0312v32.719q0 7.8594-2.7969 11.656-2.7812 3.8125-8.4844 3.8125-6.9844 0-11.047-4.6406-4.0469-4.625-4.0469-12.641v-30.906h-9.0312v32.719q0 7.9062-2.7812 11.688t-8.5938 3.7812q-6.8906 0-10.953-4.6562-4.0469-4.6562-4.0469-12.625v-30.906h-9.0312v54.688h9.0312v-8.5q3.0781 5.0312 7.375 7.4219t10.203 2.3906q5.9688 0 10.141-3.0312 4.1719-3.0156 6.1719-8.7812z"/>
<path id="g" d="m9.4219 54.688h8.9844v-54.688h-8.9844zm0 21.297h8.9844v-11.391h-8.9844z"/>
<path id="f" d="m54.891 33.016v-33.016h-8.9844v32.719q0 7.7656-3.0312 11.609-3.0312 3.8594-9.0781 3.8594-7.2812 0-11.484-4.6406-4.2031-4.625-4.2031-12.641v-30.906h-9.0312v54.688h9.0312v-8.5q3.2344 4.9375 7.5938 7.375 4.375 2.4375 10.094 2.4375 9.4219 0 14.25-5.8281 4.8438-5.8281 4.8438-17.156z"/>
<path id="h" d="m34.281 27.484q-10.891 0-15.094-2.4844t-4.2031-8.5q0-4.7812 3.1562-7.5938 3.1562-2.7969 8.5625-2.7969 7.4844 0 12 5.2969t4.5156 14.078v2zm17.922 3.7188v-31.203h-8.9844v8.2969q-3.0781-4.9688-7.6719-7.3438t-11.234-2.375q-8.3906 0-13.359 4.7188-4.9531 4.7188-4.9531 12.625 0 9.2188 6.1719 13.906 6.1875 4.6875 18.438 4.6875h12.609v0.89062q0 6.2031-4.0781 9.5938t-11.453 3.3906q-4.6875 0-9.1406-1.125-4.4375-1.125-8.5312-3.375v8.3125q4.9219 1.9062 9.5625 2.8438 4.6406 0.95312 9.0312 0.95312 11.875 0 17.734-6.1562 5.8594-6.1406 5.8594-18.641z"/>
<path id="l" d="m9.4219 75.984h8.9844v-75.984h-8.9844z"/>
</defs>
<g transform="translate(214.22 862.09) rotate(90) scale(.08 -.08)">
<use xlink:href="#j"/>
<use x="60.818359" xlink:href="#d"/>
<use x="122.341797" xlink:href="#i"/>
<use x="163.439453" xlink:href="#k"/>
<use x="260.851562" xlink:href="#g"/>
<use x="288.634766" xlink:href="#f"/>
<use x="352.013672" xlink:href="#h"/>
<use x="413.292969" xlink:href="#l"/>
</g>
</g>
<path d="m253.85 862.09v35.285q0 2.4 2.4 2.4h7.7425q2.4 0 2.4-2.4v-35.285q0-2.4-2.4-2.4h-7.7425q-2.4 0-2.4 2.4z" clip-path="url(#a)" fill="#fff" stroke="#fff"/>
<g clip-path="url(#a)">
<g transform="translate(257.91 862.09) rotate(90) scale(.08 -.08)">
<use xlink:href="#j"/>
<use x="60.818359" xlink:href="#d"/>
<use x="122.341797" xlink:href="#i"/>
<use x="163.439453" xlink:href="#k"/>
<use x="260.851562" xlink:href="#g"/>
<use x="288.634766" xlink:href="#f"/>
<use x="352.013672" xlink:href="#h"/>
<use x="413.292969" xlink:href="#l"/>
</g>
</g>
<path d="m340.8 762.51 2.6201-4.9025q1.1312-2.1167-0.98543-3.2479l-6.8285-3.6494q-2.1167-1.1312-3.2479 0.98543l-2.6201 4.9025q-1.1312 2.1167 0.98543 3.2479l6.8285 3.6494q2.1167 1.1312 3.2479-0.98543z" clip-path="url(#a)" fill="#fff" stroke="#fff"/>
<g clip-path="url(#a)">
<defs>
<path id="ap" d="m44.391 34.188q3.1719-1.0781 6.1719-4.5938t6.0312-9.6719l10.016-19.922h-10.609l-9.3125 18.703q-3.625 7.3281-7.0156 9.7188t-9.25 2.3906h-10.75v-30.812h-9.8594v72.906h22.266q12.5 0 18.656-5.2344 6.1562-5.2188 6.1562-15.766 0-6.8906-3.2031-11.438-3.2031-4.5312-9.2969-6.2812zm-24.719 30.609v-25.875h12.406q7.125 0 10.766 3.2969t3.6406 9.6875-3.6406 9.6406-10.766 3.25z"/>
</defs>
<g transform="translate(337.22 760.6) rotate(-61.878) scale(.08 -.08)">
<use xlink:href="#ap"/>
</g>
</g>
<path d="m364.2 760.47 0.807-4.5299q0.42093-2.3628-1.9419-2.7837l-7.6225-1.3579q-2.3628-0.42093-2.7837 1.9419l-0.807 4.5299q-0.42093 2.3628 1.9419 2.7837l7.6225 1.3579q2.3628 0.42093 2.7837-1.9419z" clip-path="url(#a)" fill="#fff" stroke="#fff"/>
<g clip-path="url(#a)">
<defs>
<path id="z" d="m9.8125 72.906h41.891v-8.3125h-32.031v-21.484h28.906v-8.2969h-28.906v-34.812h-9.8594z"/>
</defs>
<g transform="translate(360.2 759.76) rotate(-79.899) scale(.08 -.08)">
<use xlink:href="#z"/>
</g>
</g>
<path d="m373.65 755.72 0.88658 4.9766q0.42093 2.3628 2.7837 1.9419l7.6225-1.3579q2.3628-0.42093 1.9419-2.7837l-0.88658-4.9766q-0.42093-2.3628-2.7837-1.9419l-7.6225 1.3579q-2.3628 0.42093-1.9419 2.7837z" clip-path="url(#a)" fill="#fff" stroke="#fff"/>
<g clip-path="url(#a)">
<defs>
<path id="aq" d="m9.8125 72.906h46.094v-8.3125h-36.234v-21.578h34.719v-8.2969h-34.719v-26.422h37.109v-8.2969h-46.969z"/>
</defs>
<g transform="translate(377.66 755) rotate(79.899) scale(.08 -.08)">
<use xlink:href="#aq"/>
</g>
</g>
<path d="m395.27 757.6 2.6331 4.9268q1.1312 2.1167 3.2479 0.98543l6.8285-3.6494q2.1167-1.1312 0.98543-3.2479l-2.6331-4.9268q-1.1312-2.1167-3.2479-0.98543l-6.8285 3.6494q-2.1167 1.1312-0.98543 3.2479z" clip-path="url(#a)" fill="#fff" stroke="#fff"/>
<g clip-path="url(#a)">
<defs>
<path id="r" d="m64.406 67.281v-10.391q-4.9844 4.6406-10.625 6.9219-5.6406 2.2969-11.984 2.2969-12.5 0-19.141-7.6406t-6.6406-22.094q0-14.406 6.6406-22.047t19.141-7.6406q6.3438 0 11.984 2.2969t10.625 6.9375v-10.312q-5.1719-3.5156-10.969-5.2812-5.7812-1.75-12.219-1.75-16.562 0-26.094 10.125-9.5156 10.141-9.5156 27.672 0 17.578 9.5156 27.703 9.5312 10.141 26.094 10.141 6.5312 0 12.312-1.7344 5.7969-1.7344 10.875-5.2031z"/>
</defs>
<g transform="translate(398.85 755.68) rotate(61.878) scale(.08 -.08)">
<use xlink:href="#r"/>
</g>
</g>
<path d="m297.54 862.09v35.285q0 2.4 2.4 2.4h7.7425q2.4 0 2.4-2.4v-35.285q0-2.4-2.4-2.4h-7.7425q-2.4 0-2.4 2.4z" clip-path="url(#a)" fill="#fff" stroke="#fff"/>
<g clip-path="url(#a)">
<g transform="translate(301.61 862.09) rotate(90) scale(.08 -.08)">
<use xlink:href="#j"/>
<use x="60.818359" xlink:href="#d"/>
<use x="122.341797" xlink:href="#i"/>
<use x="163.439453" xlink:href="#k"/>
<use x="260.851562" xlink:href="#g"/>
<use x="288.634766" xlink:href="#f"/>
<use x="352.013672" xlink:href="#h"/>
<use x="413.292969" xlink:href="#l"/>
</g>
</g>
<path d="m341.23 862.09v35.285q0 2.4 2.4 2.4h7.7425q2.4 0 2.4-2.4v-35.285q0-2.4-2.4-2.4h-7.7425q-2.4 0-2.4 2.4z" clip-path="url(#a)" fill="#fff" stroke="#fff"/>
<g clip-path="url(#a)">
<g transform="translate(345.3 862.09) rotate(90) scale(.08 -.08)">
<use xlink:href="#j"/>
<use x="60.818359" xlink:href="#d"/>
<use x="122.341797" xlink:href="#i"/>
<use x="163.439453" xlink:href="#k"/>
<use x="260.851562" xlink:href="#g"/>
<use x="288.634766" xlink:href="#f"/>
<use x="352.013672" xlink:href="#h"/>
<use x="413.292969" xlink:href="#l"/>
</g>
</g>
<path d="m384.92 862.09v35.285q0 2.4 2.4 2.4h7.7425q2.4 0 2.4-2.4v-35.285q0-2.4-2.4-2.4h-7.7425q-2.4 0-2.4 2.4z" clip-path="url(#a)" fill="#fff" stroke="#fff"/>
<g clip-path="url(#a)">
<g transform="translate(388.99 862.09) rotate(90) scale(.08 -.08)">
<use xlink:href="#j"/>
<use x="60.818359" xlink:href="#d"/>
<use x="122.341797" xlink:href="#i"/>
<use x="163.439453" xlink:href="#k"/>
<use x="260.851562" xlink:href="#g"/>
<use x="288.634766" xlink:href="#f"/>
<use x="352.013672" xlink:href="#h"/>
<use x="413.292969" xlink:href="#l"/>
</g>
</g>
<path d="m428.61 862.09v35.285q0 2.4 2.4 2.4h7.7425q2.4 0 2.4-2.4v-35.285q0-2.4-2.4-2.4h-7.7425q-2.4 0-2.4 2.4z" clip-path="url(#a)" fill="#fff" stroke="#fff"/>
<g clip-path="url(#a)">
<g transform="translate(432.68 862.09) rotate(90) scale(.08 -.08)">
<use xlink:href="#j"/>
<use x="60.818359" xlink:href="#d"/>
<use x="122.341797" xlink:href="#i"/>
<use x="163.439453" xlink:href="#k"/>
<use x="260.851562" xlink:href="#g"/>
<use x="288.634766" xlink:href="#f"/>
<use x="352.013672" xlink:href="#h"/>
<use x="413.292969" xlink:href="#l"/>
</g>
</g>
<path d="m1554.6 822.66 4.8261 2.5801q2.1165 1.1315 3.248-0.98503l3.6503-6.828q1.1315-2.1165-0.98503-3.248l-4.8261-2.5801q-2.1165-1.1315-3.248 0.98503l-3.6503 6.828q-1.1315 2.1165 0.98503 3.248z" clip-path="url(#a)" fill="#fff" stroke="#fff"/>
<g clip-path="url(#a)">
<g transform="translate(1556.5 819.07) rotate(28.129) scale(.08 -.08)">
<use xlink:href="#u"/>
</g>
</g>
<path d="m1532.2 822.25 5.3034 3.1336q2.0663 1.2209 3.2872-0.84535l3.9387-6.6658q1.2209-2.0663-0.84535-3.2872l-5.3034-3.1336q-2.0663-1.2209-3.2872 0.84535l-3.9387 6.6658q-1.2209 2.0663 0.84535 3.2872z" clip-path="url(#a)" fill="#fff" stroke="#fff"/>
<g clip-path="url(#a)">
<defs>
<path id="ak" d="m19.672 64.797v-56.688h11.922q15.094 0 22.094 6.8281 7 6.8438 7 21.594 0 14.641-7 21.453t-22.094 6.8125zm-9.8594 8.1094h20.266q21.188 0 31.094-8.8125 9.9219-8.8125 9.9219-27.562 0-18.859-9.9688-27.703-9.9531-8.8281-31.047-8.8281h-20.266z"/>
</defs>
<g transform="translate(1534.3 818.75) rotate(30.578) scale(.08 -.08)">
<use xlink:href="#ak"/>
</g>
</g>
<path d="m1510.8 822.32 4.0252 2.6582q2.0027 1.3226 3.3253-0.68014l4.2667-6.4608q1.3226-2.0027-0.68014-3.3253l-4.0252-2.6582q-2.0027-1.3226-3.3253 0.68014l-4.2667 6.4608q-1.3226 2.0027 0.68014 3.3253z" clip-path="url(#a)" fill="#fff" stroke="#fff"/>
<g clip-path="url(#a)">
<g transform="translate(1513 818.93) rotate(33.44) scale(.08 -.08)">
<use xlink:href="#y"/>
</g>
</g>
<path d="m705.5 763.65 6.1303-0.60371q2.3884-0.23521 2.1532-2.6237l-0.75881-7.7052q-0.23521-2.3884-2.6237-2.1532l-6.1303 0.60371q-2.3884 0.23521-2.1532 2.6237l0.7588 7.7052q0.23521 2.3884 2.6237 2.1532z" clip-path="url(#a)" fill="#fff" stroke="#fff"/>
<g clip-path="url(#a)">
<g transform="translate(705.11 759.6) rotate(-5.6243) scale(.08 -.08)">
<use xlink:href="#ak"/>
</g>
</g>
<path d="m559.69 862.09v35.285q0 2.4 2.4 2.4h7.7425q2.4 0 2.4-2.4v-35.285q0-2.4-2.4-2.4h-7.7425q-2.4 0-2.4 2.4z" clip-path="url(#a)" fill="#fff" stroke="#fff"/>
<g clip-path="url(#a)">
<g transform="translate(563.75 862.09) rotate(90) scale(.08 -.08)">
<use xlink:href="#j"/>
<use x="60.818359" xlink:href="#d"/>
<use x="122.341797" xlink:href="#i"/>
<use x="163.439453" xlink:href="#k"/>
<use x="260.851562" xlink:href="#g"/>
<use x="288.634766" xlink:href="#f"/>
<use x="352.013672" xlink:href="#h"/>
<use x="413.292969" xlink:href="#l"/>
</g>
</g>
<path d="m697.73 636.23 1.8734-4.2026q0.97714-2.1921-1.2149-3.1692l-7.0717-3.1523q-2.1921-0.97713-3.1692 1.2149l-1.8733 4.2026q-0.97714 2.1921 1.2149 3.1692l7.0717 3.1523q2.1921 0.97714 3.1692-1.2149z" clip-path="url(#a)" fill="#fff" stroke="#fff"/>
<g clip-path="url(#a)">
<g transform="translate(694.02 634.58) rotate(-65.975) scale(.08 -.08)">
<use xlink:href="#z"/>
</g>
</g>
<path d="m828.19 631.03 1.5225 4.8452q0.71945 2.2896 3.0091 1.5702l7.3864-2.321q2.2896-0.71945 1.5702-3.0091l-1.5225-4.8452q-0.71945-2.2896-3.0091-1.5702l-7.3864 2.321q-2.2896 0.71945-1.5702 3.0091z" clip-path="url(#a)" fill="#fff" stroke="#fff"/>
<g clip-path="url(#a)">
<defs>
<path id="ae" d="m53.516 70.516v-9.625q-5.6094 2.6875-10.594 4-4.9844 1.3281-9.625 1.3281-8.0469 0-12.422-3.125t-4.375-8.8906q0-4.8438 2.9062-7.3125 2.9062-2.4531 11.016-3.9688l5.9531-1.2188q11.031-2.1094 16.281-7.4062t5.25-14.172q0-10.609-7.1094-16.078-7.0938-5.4688-20.812-5.4688-5.1719 0-11.016 1.1719-5.8281 1.1719-12.078 3.4688v10.156q6-3.3594 11.766-5.0781 5.7656-1.7031 11.328-1.7031 8.4375 0 13.031 3.3125 4.5938 3.3281 4.5938 9.4844 0 5.3594-3.2969 8.3906t-10.812 4.5469l-6.0156 1.1719q-11.031 2.1875-15.969 6.875-4.9219 4.6875-4.9219 13.047 0 9.6719 6.8125 15.234t18.766 5.5625q5.1406 0 10.453-0.9375 5.3281-0.92188 10.891-2.7656z"/>
</defs>
<g transform="translate(832.07 629.81) rotate(72.556) scale(.08 -.08)">
<use xlink:href="#ae"/>
</g>
</g>
<path d="m742.12 635.89 1.277-6.0262q0.49755-2.3479-1.8503-2.8454l-7.5743-1.6051q-2.3479-0.49755-2.8454 1.8503l-1.277 6.0262q-0.49755 2.3479 1.8503 2.8454l7.5743 1.6051q2.3479 0.49755 2.8454-1.8503z" clip-path="url(#a)" fill="#fff" stroke="#fff"/>
<g clip-path="url(#a)">
<g transform="translate(738.15 635.05) rotate(-78.035) scale(.08 -.08)">
<use xlink:href="#ak"/>
</g>
</g>
<path d="m834.04 510.64 3.8941 3.845q1.7078 1.6863 3.394-0.021511l5.44-5.5094q1.6863-1.7078-0.02151-3.394l-3.8941-3.845q-1.7078-1.6863-3.394 0.02151l-5.44 5.5094q-1.6863 1.7078 0.02151 3.394z" clip-path="url(#a)" fill="#fff" stroke="#fff"/>
<g clip-path="url(#a)">
<g transform="translate(836.9 507.74) rotate(44.637) scale(.08 -.08)">
<use xlink:href="#u"/>
</g>
</g>
<path d="m1290.8 700.29 2.556-4.8389q1.121-2.1221-1.0012-3.2431l-6.8461-3.6163q-2.1221-1.121-3.2431 1.0012l-2.556 4.8389q-1.121 2.1221 1.0012 3.2431l6.8461 3.6163q2.1221 1.121 3.2431-1.0012z" clip-path="url(#a)" fill="#fff" stroke="#fff"/>
<g clip-path="url(#a)">
<g transform="translate(1287.2 698.39) rotate(-62.156) scale(.08 -.08)">
<use xlink:href="#u"/>
</g>
</g>
<path d="m1323.6 638.95 2.5327-4.8511q1.1107-2.1275-1.0168-3.2382l-6.8634-3.5833q-2.1275-1.1107-3.2382 1.0168l-2.5327 4.8511q-1.1107 2.1275 1.0168 3.2382l6.8634 3.5833q2.1275 1.1107 3.2382-1.0168z" clip-path="url(#a)" fill="#fff" stroke="#fff"/>
<g clip-path="url(#a)">
<g transform="translate(1320 637.07) rotate(-62.431) scale(.08 -.08)">
<use xlink:href="#u"/>
</g>
</g>
<path d="m1345.8 692.41 0.012836 5.0787q0.006066 2.4 2.4061 2.3939l7.7425-0.019568q2.4-0.006065 2.3939-2.4061l-0.012836-5.0787q-0.006065-2.4-2.4061-2.3939l-7.7425 0.019568q-2.4 0.006066-2.3939 2.4061z" clip-path="url(#a)" fill="#fff" stroke="#fff"/>
<g clip-path="url(#a)">
<g transform="translate(1349.9 692.4) rotate(89.855) scale(.08 -.08)">
<use xlink:href="#ae"/>
</g>
</g>
<path d="m1420.9 636.72 4.2181 3.4865q1.8499 1.529 3.3789-0.32086l4.9327-5.9678q1.529-1.8499-0.32086-3.3789l-4.2181-3.4865q-1.8499-1.529-3.3789 0.32086l-4.9327 5.9678q-1.529 1.8499 0.32086 3.3789z" clip-path="url(#a)" fill="#fff" stroke="#fff"/>
<g clip-path="url(#a)">
<g transform="translate(1423.5 633.58) rotate(39.576) scale(.08 -.08)">
<use xlink:href="#u"/>
</g>
</g>
<path d="m1367.2 693.16 1.0341 5.763q0.4239 2.3623 2.7862 1.9384l7.6208-1.3675q2.3623-0.4239 1.9384-2.7862l-1.0341-5.763q-0.4239-2.3623-2.7862-1.9384l-7.6208 1.3675q-2.3623 0.4239-1.9384 2.7862z" clip-path="url(#a)" fill="#fff" stroke="#fff"/>
<g clip-path="url(#a)">
<g transform="translate(1371.2 692.45) rotate(79.827) scale(.08 -.08)">
<use xlink:href="#q"/>
</g>
</g>
<path d="m1215.1 862.09v35.285q0 2.4 2.4 2.4h7.7425q2.4 0 2.4-2.4v-35.285q0-2.4-2.4-2.4h-7.7425q-2.4 0-2.4 2.4z" clip-path="url(#a)" fill="#fff" stroke="#fff"/>
<g clip-path="url(#a)">
<g transform="translate(1219.1 862.09) rotate(90) scale(.08 -.08)">
<use xlink:href="#j"/>
<use x="60.818359" xlink:href="#d"/>
<use x="122.341797" xlink:href="#i"/>
<use x="163.439453" xlink:href="#k"/>
<use x="260.851562" xlink:href="#g"/>
<use x="288.634766" xlink:href="#f"/>
<use x="352.013672" xlink:href="#h"/>
<use x="413.292969" xlink:href="#l"/>
</g>
</g>
<path d="m1281.7 760.69 0.88658-4.9766q0.42093-2.3628-1.9419-2.7837l-7.6225-1.3579q-2.3628-0.42093-2.7837 1.9419l-0.88658 4.9766q-0.42093 2.3628 1.9419 2.7837l7.6225 1.3579q2.3628 0.42093 2.7837-1.9419z" clip-path="url(#a)" fill="#fff" stroke="#fff"/>
<g clip-path="url(#a)">
<g transform="translate(1277.7 759.98) rotate(-79.899) scale(.08 -.08)">
<use xlink:href="#aq"/>
</g>
</g>
<path d="m1291.1 755.45 0.97975 5.4997q0.42093 2.3628 2.7837 1.9419l7.6225-1.3579q2.3628-0.42093 1.9419-2.7837l-0.97975-5.4997q-0.42093-2.3628-2.7837-1.9419l-7.6225 1.3579q-2.3628 0.42093-1.9419 2.7837z" clip-path="url(#a)" fill="#fff" stroke="#fff"/>
<g clip-path="url(#a)">
<g transform="translate(1295.1 754.74) rotate(79.899) scale(.08 -.08)">
<use xlink:href="#r"/>
</g>
</g>
<path d="m1346.1 862.09v35.285q0 2.4 2.4 2.4h7.7425q2.4 0 2.4-2.4v-35.285q0-2.4-2.4-2.4h-7.7425q-2.4 0-2.4 2.4z" clip-path="url(#a)" fill="#fff" stroke="#fff"/>
<g clip-path="url(#a)">
<g transform="translate(1350.2 862.09) rotate(90) scale(.08 -.08)">
<use xlink:href="#j"/>
<use x="60.818359" xlink:href="#d"/>
<use x="122.341797" xlink:href="#i"/>
<use x="163.439453" xlink:href="#k"/>
<use x="260.851562" xlink:href="#g"/>
<use x="288.634766" xlink:href="#f"/>
<use x="352.013672" xlink:href="#h"/>
<use x="413.292969" xlink:href="#l"/>
</g>
</g>
<path d="m1361.8 763.95 5.0153-2.1897q2.1995-0.96029 1.2392-3.1598l-3.0979-7.0957q-0.96029-2.1995-3.1598-1.2392l-5.0153 2.1897q-2.1995 0.96029-1.2392 3.1598l3.0979 7.0957q0.96029 2.1995 3.1598 1.2392z" clip-path="url(#a)" fill="#fff" stroke="#fff"/>
<g clip-path="url(#a)">
<g transform="translate(1360.1 760.22) rotate(-23.586) scale(.08 -.08)">
<use xlink:href="#u"/>
</g>
</g>
<path d="m1475.5 762 2.0872-4.1006q1.0887-2.1389-1.0502-3.2276l-6.9001-3.5121q-2.1389-1.0887-3.2276 1.0502l-2.0872 4.1006q-1.0887 2.1389 1.0502 3.2275l6.9001 3.5121q2.1389 1.0887 3.2276-1.0502z" clip-path="url(#a)" fill="#fff" stroke="#fff"/>
<g clip-path="url(#a)">
<g transform="translate(1471.9 760.16) rotate(-63.024) scale(.08 -.08)">
<use xlink:href="#z"/>
</g>
</g>
<path d="m1498.1 764.96 2.1033-13.774q0.36228-2.3725-2.0102-2.7348l-7.9083-1.2076q-2.3725-0.36228-2.7348 2.0102l-2.1033 13.774q-0.36228 2.3725 2.0102 2.7348l7.9083 1.2076q2.3725 0.36228 2.7348-2.0102z" clip-path="url(#a)" fill="#fff" stroke="#fff"/>
<g clip-path="url(#a)">
<defs>
<path id="bb" d="m21 76.422v-100h-8.2969v100z"/>
</defs>
<g transform="translate(1493.9 764.31) rotate(-81.318) scale(.08 -.08)">
<use xlink:href="#ae"/>
<use x="63.476562" xlink:href="#bb"/>
<use x="97.167969" xlink:href="#ak"/>
</g>
</g>
<path d="m1508 755.49 1.1681 5.7373q0.47881 2.3518 2.8306 1.8729l7.5869-1.5447q2.3518-0.47881 1.8729-2.8306l-1.1681-5.7373q-0.47881-2.3518-2.8306-1.8729l-7.5869 1.5447q-2.3518 0.47881-1.8729 2.8306z" clip-path="url(#a)" fill="#fff" stroke="#fff"/>
<g clip-path="url(#a)">
<g transform="translate(1511.9 754.68) rotate(78.492) scale(.08 -.08)">
<use xlink:href="#q"/>
</g>
</g>
<path d="m1529.6 757.61 2.8604 5.1088q1.1725 2.0941 3.2666 0.92163l6.7557-3.7825q2.0941-1.1725 0.92163-3.2666l-2.8604-5.1088q-1.1725-2.0941-3.2666-0.92163l-6.7557 3.7825q-2.0941 1.1725-0.92163 3.2666z" clip-path="url(#a)" fill="#fff" stroke="#fff"/>
<g clip-path="url(#a)">
<g transform="translate(1533.2 755.63) rotate(60.756) scale(.08 -.08)">
<use xlink:href="#q"/>
</g>
</g>
<path d="m1551.8 759.18 3.9552 4.3171q1.6213 1.7696 3.3909 0.14831l5.7088-5.2303q1.7696-1.6213 0.14831-3.3909l-3.9552-4.3171q-1.6213-1.7696-3.3909-0.14831l-5.7088 5.2303q-1.7696 1.6213-0.14831 3.3909z" clip-path="url(#a)" fill="#fff" stroke="#fff"/>
<g clip-path="url(#a)">
<g transform="translate(1554.8 756.44) rotate(47.504) scale(.08 -.08)">
<use xlink:href="#q"/>
</g>
</g>
<path d="m1574 760.23 4.6036 3.6178q1.887 1.4829 3.37-0.40408l4.7841-6.0876q1.4829-1.887-0.40408-3.37l-4.6036-3.6178q-1.887-1.4829-3.37 0.40408l-4.784 6.0876q-1.4829 1.887 0.40408 3.37z" clip-path="url(#a)" fill="#fff" stroke="#fff"/>
<g clip-path="url(#a)">
<g transform="translate(1576.6 757.03) rotate(38.163) scale(.08 -.08)">
<use xlink:href="#q"/>
</g>
</g>
<path d="m1433.5 862.09v35.285q0 2.4 2.4 2.4h7.7425q2.4 0 2.4-2.4v-35.285q0-2.4-2.4-2.4h-7.7425q-2.4 0-2.4 2.4z" clip-path="url(#a)" fill="#fff" stroke="#fff"/>
<g clip-path="url(#a)">
<g transform="translate(1437.6 862.09) rotate(90) scale(.08 -.08)">
<use xlink:href="#j"/>
<use x="60.818359" xlink:href="#d"/>
<use x="122.341797" xlink:href="#i"/>
<use x="163.439453" xlink:href="#k"/>
<use x="260.851562" xlink:href="#g"/>
<use x="288.634766" xlink:href="#f"/>
<use x="352.013672" xlink:href="#h"/>
<use x="413.292969" xlink:href="#l"/>
</g>
</g>
<path d="m1477.2 862.09v35.285q0 2.4 2.4 2.4h7.7425q2.4 0 2.4-2.4v-35.285q0-2.4-2.4-2.4h-7.7425q-2.4 0-2.4 2.4z" clip-path="url(#a)" fill="#fff" stroke="#fff"/>
<g clip-path="url(#a)">
<g transform="translate(1481.3 862.09) rotate(90) scale(.08 -.08)">
<use xlink:href="#j"/>
<use x="60.818359" xlink:href="#d"/>
<use x="122.341797" xlink:href="#i"/>
<use x="163.439453" xlink:href="#k"/>
<use x="260.851562" xlink:href="#g"/>
<use x="288.634766" xlink:href="#f"/>
<use x="352.013672" xlink:href="#h"/>
<use x="413.292969" xlink:href="#l"/>
</g>
</g>
<path d="m1258.7 862.09v35.285q0 2.4 2.4 2.4h7.7425q2.4 0 2.4-2.4v-35.285q0-2.4-2.4-2.4h-7.7425q-2.4 0-2.4 2.4z" clip-path="url(#a)" fill="#fff" stroke="#fff"/>
<g clip-path="url(#a)">
<g transform="translate(1262.8 862.09) rotate(90) scale(.08 -.08)">
<use xlink:href="#j"/>
<use x="60.818359" xlink:href="#d"/>
<use x="122.341797" xlink:href="#i"/>
<use x="163.439453" xlink:href="#k"/>
<use x="260.851562" xlink:href="#g"/>
<use x="288.634766" xlink:href="#f"/>
<use x="352.013672" xlink:href="#h"/>
<use x="413.292969" xlink:href="#l"/>
</g>
</g>
<path d="m1302.4 862.09v35.285q0 2.4 2.4 2.4h7.7425q2.4 0 2.4-2.4v-35.285q0-2.4-2.4-2.4h-7.7425q-2.4 0-2.4 2.4z" clip-path="url(#a)" fill="#fff" stroke="#fff"/>
<g clip-path="url(#a)">
<g transform="translate(1306.5 862.09) rotate(90) scale(.08 -.08)">
<use xlink:href="#j"/>
<use x="60.818359" xlink:href="#d"/>
<use x="122.341797" xlink:href="#i"/>
<use x="163.439453" xlink:href="#k"/>
<use x="260.851562" xlink:href="#g"/>
<use x="288.634766" xlink:href="#f"/>
<use x="352.013672" xlink:href="#h"/>
<use x="413.292969" xlink:href="#l"/>
</g>
</g>
<path d="m603.38 862.09v35.285q0 2.4 2.4 2.4h7.7425q2.4 0 2.4-2.4v-35.285q0-2.4-2.4-2.4h-7.7425q-2.4 0-2.4 2.4z" clip-path="url(#a)" fill="#fff" stroke="#fff"/>
<g clip-path="url(#a)">
<g transform="translate(607.44 862.09) rotate(90) scale(.08 -.08)">
<use xlink:href="#j"/>
<use x="60.818359" xlink:href="#d"/>
<use x="122.341797" xlink:href="#i"/>
<use x="163.439453" xlink:href="#k"/>
<use x="260.851562" xlink:href="#g"/>
<use x="288.634766" xlink:href="#f"/>
<use x="352.013672" xlink:href="#h"/>
<use x="413.292969" xlink:href="#l"/>
</g>
</g>
<path d="m760.63 893.34 31.429-16.038q2.1377-1.0909 1.0468-3.2286l-3.5193-6.8964q-1.0909-2.1377-3.2286-1.0468l-31.429 16.038q-2.1377 1.0909-1.0468 3.2286l3.5193 6.8964q1.0909 2.1377 3.2286 1.0468z" clip-path="url(#a)" fill="#fff" stroke="#fff"/>
<g clip-path="url(#a)">
<g transform="translate(758.78 889.72) rotate(-27.035) scale(.08 -.08)">
<use xlink:href="#j"/>
<use x="60.818359" xlink:href="#d"/>
<use x="122.341797" xlink:href="#i"/>
<use x="163.439453" xlink:href="#k"/>
<use x="260.851562" xlink:href="#g"/>
<use x="288.634766" xlink:href="#f"/>
<use x="352.013672" xlink:href="#h"/>
<use x="413.292969" xlink:href="#l"/>
</g>
</g>
<path d="m995.23 877.3 31.429 16.038q2.1377 1.0909 3.2286-1.0468l3.5193-6.8964q1.0909-2.1377-1.0468-3.2286l-31.429-16.038q-2.1377-1.0909-3.2286 1.0468l-3.5193 6.8964q-1.0909 2.1377 1.0468 3.2286z" clip-path="url(#a)" fill="#fff" stroke="#fff"/>
<g clip-path="url(#a)">
<g transform="translate(997.07 873.68) rotate(27.035) scale(.08 -.08)">
<use xlink:href="#j"/>
<use x="60.818359" xlink:href="#d"/>
<use x="122.341797" xlink:href="#i"/>
<use x="163.439453" xlink:href="#k"/>
<use x="260.851562" xlink:href="#g"/>
<use x="288.634766" xlink:href="#f"/>
<use x="352.013672" xlink:href="#h"/>
<use x="413.292969" xlink:href="#l"/>
</g>
</g>
<path d="m690.76 862.09v35.285q0 2.4 2.4 2.4h7.7425q2.4 0 2.4-2.4v-35.285q0-2.4-2.4-2.4h-7.7425q-2.4 0-2.4 2.4z" clip-path="url(#a)" fill="#fff" stroke="#fff"/>
<g clip-path="url(#a)">
<g transform="translate(694.82 862.09) rotate(90) scale(.08 -.08)">
<use xlink:href="#j"/>
<use x="60.818359" xlink:href="#d"/>
<use x="122.341797" xlink:href="#i"/>
<use x="163.439453" xlink:href="#k"/>
<use x="260.851562" xlink:href="#g"/>
<use x="288.634766" xlink:href="#f"/>
<use x="352.013672" xlink:href="#h"/>
<use x="413.292969" xlink:href="#l"/>
</g>
</g>
<path d="m826.33 700.72 3.0731-4.632q1.3268-1.9999-0.67309-3.3267l-6.4517-4.2803q-1.9999-1.3268-3.3267 0.67309l-3.0731 4.632q-1.3268 1.9999 0.67309 3.3267l6.4517 4.2803q1.9999 1.3268 3.3267-0.67309z" clip-path="url(#a)" fill="#fff" stroke="#fff"/>
<g clip-path="url(#a)">
<g transform="translate(822.95 698.47) rotate(-56.438) scale(.08 -.08)">
<use xlink:href="#ap"/>
</g>
</g>
<path d="m858.6 639.71 3.4647-4.382q1.4885-1.8826-0.3941-3.3712l-6.0734-4.8021q-1.8826-1.4885-3.3712 0.3941l-3.4647 4.382q-1.4885 1.8826 0.3941 3.3712l6.0734 4.8021q1.8826 1.4885 3.3712-0.3941z" clip-path="url(#a)" fill="#fff" stroke="#fff"/>
<g clip-path="url(#a)">
<g transform="translate(855.41 637.19) rotate(-51.668) scale(.08 -.08)">
<use xlink:href="#r"/>
</g>
</g>
<path d="m914.17 632.52 1.4237 5.4018q0.61165 2.3208 2.9324 1.7091l7.4868-1.9732q2.3208-0.61165 1.7091-2.9324l-1.4237-5.4018q-0.61165-2.3208-2.9324-1.7091l-7.4868 1.9732q-2.3208 0.61165-1.7091 2.9324z" clip-path="url(#a)" fill="#fff" stroke="#fff"/>
<g clip-path="url(#a)">
<g transform="translate(918.1 631.49) rotate(75.235) scale(.08 -.08)">
<use xlink:href="#r"/>
</g>
</g>
<path d="m946.78 694.48 2.2135 5.5606q0.88761 2.2298 3.1174 1.3422l7.1935-2.8635q2.2298-0.88761 1.3422-3.1174l-2.2135-5.5606q-0.88761-2.2298-3.1174-1.3422l-7.1935 2.8635q-2.2298 0.88761-1.3422 3.1174z" clip-path="url(#a)" fill="#fff" stroke="#fff"/>
<g clip-path="url(#a)">
<defs>
<path id="au" d="m9.8125 72.906h13.281l32.328-60.984v60.984h9.5625v-72.906h-13.281l-32.312 60.984v-60.984h-9.5781z"/>
</defs>
<g transform="translate(950.56 692.97) rotate(68.294) scale(.08 -.08)">
<use xlink:href="#au"/>
</g>
</g>
<path d="m980.47 636.93 4.45 3.3769q1.9118 1.4508 3.3627-0.46103l4.6804-6.1677q1.4508-1.9118-0.46103-3.3627l-4.45-3.3769q-1.9118-1.4508-3.3627 0.46103l-4.6804 6.1677q-1.4508 1.9118 0.46103 3.3627z" clip-path="url(#a)" fill="#fff" stroke="#fff"/>
<g clip-path="url(#a)">
<g transform="translate(982.93 633.7) rotate(37.193) scale(.08 -.08)">
<use xlink:href="#r"/>
</g>
</g>
<path d="m894.01 698.67 0.77014-5.8041q0.31568-2.3791-2.0635-2.6948l-7.6752-1.0184q-2.3791-0.31568-2.6948 2.0635l-0.77014 5.8041q-0.31568 2.3791 2.0635 2.6948l7.6752 1.0184q2.3791 0.31568 2.6948-2.0635z" clip-path="url(#a)" fill="#fff" stroke="#fff"/>
<g clip-path="url(#a)">
<g transform="translate(889.98 698.13) rotate(-82.442) scale(.08 -.08)">
<use xlink:href="#q"/>
</g>
</g>
<path d="m734.45 862.09v35.285q0 2.4 2.4 2.4h7.7425q2.4 0 2.4-2.4v-35.285q0-2.4-2.4-2.4h-7.7425q-2.4 0-2.4 2.4z" clip-path="url(#a)" fill="#fff" stroke="#fff"/>
<g clip-path="url(#a)">
<g transform="translate(738.52 862.09) rotate(90) scale(.08 -.08)">
<use xlink:href="#j"/>
<use x="60.818359" xlink:href="#d"/>
<use x="122.341797" xlink:href="#i"/>
<use x="163.439453" xlink:href="#k"/>
<use x="260.851562" xlink:href="#g"/>
<use x="288.634766" xlink:href="#f"/>
<use x="352.013672" xlink:href="#h"/>
<use x="413.292969" xlink:href="#l"/>
</g>
</g>
<path d="m801.11 760.47 0.807-4.5299q0.42093-2.3628-1.9419-2.7837l-7.6225-1.3579q-2.3628-0.42093-2.7837 1.9419l-0.807 4.5299q-0.42093 2.3628 1.9419 2.7837l7.6225 1.3579q2.3628 0.42093 2.7837-1.9419z" clip-path="url(#a)" fill="#fff" stroke="#fff"/>
<g clip-path="url(#a)">
<g transform="translate(797.11 759.76) rotate(-79.899) scale(.08 -.08)">
<use xlink:href="#z"/>
</g>
</g>
<path d="m810.52 755.45 0.97975 5.4997q0.42093 2.3628 2.7837 1.9419l7.6225-1.3579q2.3628-0.42093 1.9419-2.7837l-0.97975-5.4997q-0.42093-2.3628-2.7837-1.9419l-7.6225 1.3579q-2.3628 0.42093-1.9419 2.7837z" clip-path="url(#a)" fill="#fff" stroke="#fff"/>
<g clip-path="url(#a)">
<g transform="translate(814.52 754.74) rotate(79.899) scale(.08 -.08)">
<use xlink:href="#r"/>
</g>
</g>
<path d="m932.18 760.47 0.807-4.5299q0.42093-2.3628-1.9419-2.7837l-7.6225-1.3579q-2.3628-0.42093-2.7837 1.9419l-0.807 4.5299q-0.42093 2.3628 1.9419 2.7837l7.6225 1.3579q2.3628 0.42093 2.7837-1.9419z" clip-path="url(#a)" fill="#fff" stroke="#fff"/>
<g clip-path="url(#a)">
<g transform="translate(928.18 759.76) rotate(-79.899) scale(.08 -.08)">
<use xlink:href="#z"/>
</g>
</g>
<path d="m941.59 755.45 0.97975 5.4997q0.42093 2.3628 2.7837 1.9419l7.6225-1.3579q2.3628-0.42093 1.9419-2.7837l-0.97975-5.4997q-0.42093-2.3628-2.7837-1.9419l-7.6225 1.3579q-2.3628 0.42093-1.9419 2.7837z" clip-path="url(#a)" fill="#fff" stroke="#fff"/>
<g clip-path="url(#a)">
<g transform="translate(945.59 754.74) rotate(79.899) scale(.08 -.08)">
<use xlink:href="#r"/>
</g>
</g>
<path d="m996.6 862.09v35.285q0 2.4 2.4 2.4h7.7425q2.4 0 2.4-2.4v-35.285q0-2.4-2.4-2.4h-7.7425q-2.4 0-2.4 2.4z" clip-path="url(#a)" fill="#fff" stroke="#fff"/>
<g clip-path="url(#a)">
<g transform="translate(1000.7 862.09) rotate(90) scale(.08 -.08)">
<use xlink:href="#j"/>
<use x="60.818359" xlink:href="#d"/>
<use x="122.341797" xlink:href="#i"/>
<use x="163.439453" xlink:href="#k"/>
<use x="260.851562" xlink:href="#g"/>
<use x="288.634766" xlink:href="#f"/>
<use x="352.013672" xlink:href="#h"/>
<use x="413.292969" xlink:href="#l"/>
</g>
</g>
<path d="m1063.3 760.47 0.807-4.5299q0.42093-2.3628-1.9419-2.7837l-7.6225-1.3579q-2.3628-0.42093-2.7837 1.9419l-0.807 4.5299q-0.42093 2.3628 1.9419 2.7837l7.6225 1.3579q2.3628 0.42093 2.7837-1.9419z" clip-path="url(#a)" fill="#fff" stroke="#fff"/>
<g clip-path="url(#a)">
<g transform="translate(1059.3 759.76) rotate(-79.899) scale(.08 -.08)">
<use xlink:href="#z"/>
</g>
</g>
<path d="m1072.7 755.45 0.97975 5.4997q0.42093 2.3628 2.7837 1.9419l7.6225-1.3579q2.3628-0.42093 1.9419-2.7837l-0.97975-5.4997q-0.42093-2.3628-2.7837-1.9419l-7.6225 1.3579q-2.3628 0.42093-1.9419 2.7837z" clip-path="url(#a)" fill="#fff" stroke="#fff"/>
<g clip-path="url(#a)">
<g transform="translate(1076.7 754.74) rotate(79.899) scale(.08 -.08)">
<use xlink:href="#r"/>
</g>
</g>
<path d="m122.78 862.09v35.285q0 2.4 2.4 2.4h7.7425q2.4 0 2.4-2.4v-35.285q0-2.4-2.4-2.4h-7.7425q-2.4 0-2.4 2.4z" clip-path="url(#a)" fill="#fff" stroke="#fff"/>
<g clip-path="url(#a)">
<g transform="translate(126.84 862.09) rotate(90) scale(.08 -.08)">
<use xlink:href="#j"/>
<use x="60.818359" xlink:href="#d"/>
<use x="122.341797" xlink:href="#i"/>
<use x="163.439453" xlink:href="#k"/>
<use x="260.851562" xlink:href="#g"/>
<use x="288.634766" xlink:href="#f"/>
<use x="352.013672" xlink:href="#h"/>
<use x="413.292969" xlink:href="#l"/>
</g>
</g>
<path d="m1040.3 862.09v35.285q0 2.4 2.4 2.4h7.7425q2.4 0 2.4-2.4v-35.285q0-2.4-2.4-2.4h-7.7425q-2.4 0-2.4 2.4z" clip-path="url(#a)" fill="#fff" stroke="#fff"/>
<g clip-path="url(#a)">
<g transform="translate(1044.4 862.09) rotate(90) scale(.08 -.08)">
<use xlink:href="#j"/>
<use x="60.818359" xlink:href="#d"/>
<use x="122.341797" xlink:href="#i"/>
<use x="163.439453" xlink:href="#k"/>
<use x="260.851562" xlink:href="#g"/>
<use x="288.634766" xlink:href="#f"/>
<use x="352.013672" xlink:href="#h"/>
<use x="413.292969" xlink:href="#l"/>
</g>
</g>
<path d="m1084 862.09v35.285q0 2.4 2.4 2.4h7.7425q2.4 0 2.4-2.4v-35.285q0-2.4-2.4-2.4h-7.7425q-2.4 0-2.4 2.4z" clip-path="url(#a)" fill="#fff" stroke="#fff"/>
<g clip-path="url(#a)">
<g transform="translate(1088 862.09) rotate(90) scale(.08 -.08)">
<use xlink:href="#j"/>
<use x="60.818359" xlink:href="#d"/>
<use x="122.341797" xlink:href="#i"/>
<use x="163.439453" xlink:href="#k"/>
<use x="260.851562" xlink:href="#g"/>
<use x="288.634766" xlink:href="#f"/>
<use x="352.013672" xlink:href="#h"/>
<use x="413.292969" xlink:href="#l"/>
</g>
</g>
<path d="m909.22 862.09v35.285q0 2.4 2.4 2.4h7.7425q2.4 0 2.4-2.4v-35.285q0-2.4-2.4-2.4h-7.7425q-2.4 0-2.4 2.4z" clip-path="url(#a)" fill="#fff" stroke="#fff"/>
<g clip-path="url(#a)">
<g transform="translate(913.28 862.09) rotate(90) scale(.08 -.08)">
<use xlink:href="#j"/>
<use x="60.818359" xlink:href="#d"/>
<use x="122.341797" xlink:href="#i"/>
<use x="163.439453" xlink:href="#k"/>
<use x="260.851562" xlink:href="#g"/>
<use x="288.634766" xlink:href="#f"/>
<use x="352.013672" xlink:href="#h"/>
<use x="413.292969" xlink:href="#l"/>
</g>
</g>
<path d="m952.91 862.09v35.285q0 2.4 2.4 2.4h7.7425q2.4 0 2.4-2.4v-35.285q0-2.4-2.4-2.4h-7.7425q-2.4 0-2.4 2.4z" clip-path="url(#a)" fill="#fff" stroke="#fff"/>
<g clip-path="url(#a)">
<g transform="translate(956.97 862.09) rotate(90) scale(.08 -.08)">
<use xlink:href="#j"/>
<use x="60.818359" xlink:href="#d"/>
<use x="122.341797" xlink:href="#i"/>
<use x="163.439453" xlink:href="#k"/>
<use x="260.851562" xlink:href="#g"/>
<use x="288.634766" xlink:href="#f"/>
<use x="352.013672" xlink:href="#h"/>
<use x="413.292969" xlink:href="#l"/>
</g>
</g>
<path d="m778.14 862.09v35.285q0 2.4 2.4 2.4h7.7425q2.4 0 2.4-2.4v-35.285q0-2.4-2.4-2.4h-7.7425q-2.4 0-2.4 2.4z" clip-path="url(#a)" fill="#fff" stroke="#fff"/>
<g clip-path="url(#a)">
<g transform="translate(782.21 862.09) rotate(90) scale(.08 -.08)">
<use xlink:href="#j"/>
<use x="60.818359" xlink:href="#d"/>
<use x="122.341797" xlink:href="#i"/>
<use x="163.439453" xlink:href="#k"/>
<use x="260.851562" xlink:href="#g"/>
<use x="288.634766" xlink:href="#f"/>
<use x="352.013672" xlink:href="#h"/>
<use x="413.292969" xlink:href="#l"/>
</g>
</g>
<path d="m821.83 862.09v35.285q0 2.4 2.4 2.4h7.7425q2.4 0 2.4-2.4v-35.285q0-2.4-2.4-2.4h-7.7425q-2.4 0-2.4 2.4z" clip-path="url(#a)" fill="#fff" stroke="#fff"/>
<g clip-path="url(#a)">
<g transform="translate(825.9 862.09) rotate(90) scale(.08 -.08)">
<use xlink:href="#j"/>
<use x="60.818359" xlink:href="#d"/>
<use x="122.341797" xlink:href="#i"/>
<use x="163.439453" xlink:href="#k"/>
<use x="260.851562" xlink:href="#g"/>
<use x="288.634766" xlink:href="#f"/>
<use x="352.013672" xlink:href="#h"/>
<use x="413.292969" xlink:href="#l"/>
</g>
</g>
<path d="m79.086 862.09v35.285q0 2.4 2.4 2.4h7.7425q2.4 0 2.4-2.4v-35.285q0-2.4-2.4-2.4h-7.7425q-2.4 0-2.4 2.4z" clip-path="url(#a)" fill="#fff" stroke="#fff"/>
<g clip-path="url(#a)">
<g transform="translate(83.15 862.09) rotate(90) scale(.08 -.08)">
<use xlink:href="#j"/>
<use x="60.818359" xlink:href="#d"/>
<use x="122.341797" xlink:href="#i"/>
<use x="163.439453" xlink:href="#k"/>
<use x="260.851562" xlink:href="#g"/>
<use x="288.634766" xlink:href="#f"/>
<use x="352.013672" xlink:href="#h"/>
<use x="413.292969" xlink:href="#l"/>
</g>
</g>
<path d="m166.47 862.09v35.285q0 2.4 2.4 2.4h7.7425q2.4 0 2.4-2.4v-35.285q0-2.4-2.4-2.4h-7.7425q-2.4 0-2.4 2.4z" clip-path="url(#a)" fill="#fff" stroke="#fff"/>
<g clip-path="url(#a)">
<g transform="translate(170.53 862.09) rotate(90) scale(.08 -.08)">
<use xlink:href="#j"/>
<use x="60.818359" xlink:href="#d"/>
<use x="122.341797" xlink:href="#i"/>
<use x="163.439453" xlink:href="#k"/>
<use x="260.851562" xlink:href="#g"/>
<use x="288.634766" xlink:href="#f"/>
<use x="352.013672" xlink:href="#h"/>
<use x="413.292969" xlink:href="#l"/>
</g>
</g>
<path d="m472.31 862.09v35.285q0 2.4 2.4 2.4h7.7425q2.4 0 2.4-2.4v-35.285q0-2.4-2.4-2.4h-7.7425q-2.4 0-2.4 2.4z" clip-path="url(#a)" fill="#fff" stroke="#fff"/>
<g clip-path="url(#a)">
<g transform="translate(476.37 862.09) rotate(90) scale(.08 -.08)">
<use xlink:href="#j"/>
<use x="60.818359" xlink:href="#d"/>
<use x="122.341797" xlink:href="#i"/>
<use x="163.439453" xlink:href="#k"/>
<use x="260.851562" xlink:href="#g"/>
<use x="288.634766" xlink:href="#f"/>
<use x="352.013672" xlink:href="#h"/>
<use x="413.292969" xlink:href="#l"/>
</g>
</g>
<path d="m516 862.09v35.285q0 2.4 2.4 2.4h7.7425q2.4 0 2.4-2.4v-35.285q0-2.4-2.4-2.4h-7.7425q-2.4 0-2.4 2.4z" clip-path="url(#a)" fill="#fff" stroke="#fff"/>
<g clip-path="url(#a)">
<g transform="translate(520.06 862.09) rotate(90) scale(.08 -.08)">
<use xlink:href="#j"/>
<use x="60.818359" xlink:href="#d"/>
<use x="122.341797" xlink:href="#i"/>
<use x="163.439453" xlink:href="#k"/>
<use x="260.851562" xlink:href="#g"/>
<use x="288.634766" xlink:href="#f"/>
<use x="352.013672" xlink:href="#h"/>
<use x="413.292969" xlink:href="#l"/>
</g>
</g>
<path d="m865.53 862.09v35.285q0 2.4 2.4 2.4h7.7425q2.4 0 2.4-2.4v-35.285q0-2.4-2.4-2.4h-7.7425q-2.4 0-2.4 2.4z" clip-path="url(#a)" fill="#fff" stroke="#fff"/>
<g clip-path="url(#a)">
<g transform="translate(869.59 862.09) rotate(90) scale(.08 -.08)">
<use xlink:href="#j"/>
<use x="60.818359" xlink:href="#d"/>
<use x="122.341797" xlink:href="#i"/>
<use x="163.439453" xlink:href="#k"/>
<use x="260.851562" xlink:href="#g"/>
<use x="288.634766" xlink:href="#f"/>
<use x="352.013672" xlink:href="#h"/>
<use x="413.292969" xlink:href="#l"/>
</g>
</g>
<path d="m1171.4 862.09v35.285q0 2.4 2.4 2.4h7.7425q2.4 0 2.4-2.4v-35.285q0-2.4-2.4-2.4h-7.7425q-2.4 0-2.4 2.4z" clip-path="url(#a)" fill="#fff" stroke="#fff"/>
<g clip-path="url(#a)">
<g transform="translate(1175.4 862.09) rotate(90) scale(.08 -.08)">
<use xlink:href="#j"/>
<use x="60.818359" xlink:href="#d"/>
<use x="122.341797" xlink:href="#i"/>
<use x="163.439453" xlink:href="#k"/>
<use x="260.851562" xlink:href="#g"/>
<use x="288.634766" xlink:href="#f"/>
<use x="352.013672" xlink:href="#h"/>
<use x="413.292969" xlink:href="#l"/>
</g>
</g>
<path d="m1389.8 862.09v35.285q0 2.4 2.4 2.4h7.7425q2.4 0 2.4-2.4v-35.285q0-2.4-2.4-2.4h-7.7425q-2.4 0-2.4 2.4z" clip-path="url(#a)" fill="#fff" stroke="#fff"/>
<g clip-path="url(#a)">
<g transform="translate(1393.9 862.09) rotate(90) scale(.08 -.08)">
<use xlink:href="#j"/>
<use x="60.818359" xlink:href="#d"/>
<use x="122.341797" xlink:href="#i"/>
<use x="163.439453" xlink:href="#k"/>
<use x="260.851562" xlink:href="#g"/>
<use x="288.634766" xlink:href="#f"/>
<use x="352.013672" xlink:href="#h"/>
<use x="413.292969" xlink:href="#l"/>
</g>
</g>
<path d="m1520.9 862.09v35.285q0 2.4 2.4 2.4h7.7425q2.4 0 2.4-2.4v-35.285q0-2.4-2.4-2.4h-7.7425q-2.4 0-2.4 2.4z" clip-path="url(#a)" fill="#fff" stroke="#fff"/>
<g clip-path="url(#a)">
<g transform="translate(1525 862.09) rotate(90) scale(.08 -.08)">
<use xlink:href="#j"/>
<use x="60.818359" xlink:href="#d"/>
<use x="122.341797" xlink:href="#i"/>
<use x="163.439453" xlink:href="#k"/>
<use x="260.851562" xlink:href="#g"/>
<use x="288.634766" xlink:href="#f"/>
<use x="352.013672" xlink:href="#h"/>
<use x="413.292969" xlink:href="#l"/>
</g>
</g>
<path d="m1564.6 862.09v35.285q0 2.4 2.4 2.4h7.7425q2.4 0 2.4-2.4v-35.285q0-2.4-2.4-2.4h-7.7425q-2.4 0-2.4 2.4z" clip-path="url(#a)" fill="#fff" stroke="#fff"/>
<g clip-path="url(#a)">
<g transform="translate(1568.6 862.09) rotate(90) scale(.08 -.08)">
<use xlink:href="#j"/>
<use x="60.818359" xlink:href="#d"/>
<use x="122.341797" xlink:href="#i"/>
<use x="163.439453" xlink:href="#k"/>
<use x="260.851562" xlink:href="#g"/>
<use x="288.634766" xlink:href="#f"/>
<use x="352.013672" xlink:href="#h"/>
<use x="413.292969" xlink:href="#l"/>
</g>
</g>
<path d="m1608.3 862.09v35.285q0 2.4 2.4 2.4h7.7425q2.4 0 2.4-2.4v-35.285q0-2.4-2.4-2.4h-7.7425q-2.4 0-2.4 2.4z" clip-path="url(#a)" fill="#fff" stroke="#fff"/>
<g clip-path="url(#a)">
<g transform="translate(1612.3 862.09) rotate(90) scale(.08 -.08)">
<use xlink:href="#j"/>
<use x="60.818359" xlink:href="#d"/>
<use x="122.341797" xlink:href="#i"/>
<use x="163.439453" xlink:href="#k"/>
<use x="260.851562" xlink:href="#g"/>
<use x="288.634766" xlink:href="#f"/>
<use x="352.013672" xlink:href="#h"/>
<use x="413.292969" xlink:href="#l"/>
</g>
</g>
<path d="m1652 862.09v35.285q0 2.4 2.4 2.4h7.7425q2.4 0 2.4-2.4v-35.285q0-2.4-2.4-2.4h-7.7425q-2.4 0-2.4 2.4z" clip-path="url(#a)" fill="#fff" stroke="#fff"/>
<g clip-path="url(#a)">
<g transform="translate(1656 862.09) rotate(90) scale(.08 -.08)">
<use xlink:href="#j"/>
<use x="60.818359" xlink:href="#d"/>
<use x="122.341797" xlink:href="#i"/>
<use x="163.439453" xlink:href="#k"/>
<use x="260.851562" xlink:href="#g"/>
<use x="288.634766" xlink:href="#f"/>
<use x="352.013672" xlink:href="#h"/>
<use x="413.292969" xlink:href="#l"/>
</g>
</g>
<defs>
<path id="b" d="m0 8.6603c2.2967 0 4.4997-0.9125 6.1237-2.5365 1.624-1.624 2.5365-3.827 2.5365-6.1237s-0.9125-4.4997-2.5365-6.1237c-1.624-1.624-3.827-2.5365-6.1237-2.5365s-4.4997 0.9125-6.1237 2.5365c-1.624 1.624-2.5365 3.827-2.5365 6.1237s0.9125 4.4997 2.5365 6.1237c1.624 1.624 3.827 2.5365 6.1237 2.5365z"/>
</defs>
<g clip-path="url(#a)">
<use x="85.357443" y="941.043229" fill="#ffffff" stroke="#ffffff" xlink:href="#b"/>
</g>
<g clip-path="url(#a)">
<use x="129.048515" y="941.043229" fill="#ffffff" stroke="#ffffff" xlink:href="#b"/>
</g>
<g clip-path="url(#a)">
<use x="172.739586" y="941.043229" fill="#ffffff" stroke="#ffffff" xlink:href="#b"/>
</g>
<g clip-path="url(#a)">
<use x="216.430657" y="941.043229" fill="#ffffff" stroke="#ffffff" xlink:href="#b"/>
</g>
<g clip-path="url(#a)">
<use x="260.121728" y="941.043229" fill="#ffffff" stroke="#ffffff" xlink:href="#b"/>
</g>
<g clip-path="url(#a)">
<use x="303.8128" y="941.043229" fill="#ffffff" stroke="#ffffff" xlink:href="#b"/>
</g>
<g clip-path="url(#a)">
<use x="347.503871" y="941.043229" fill="#ffffff" stroke="#ffffff" xlink:href="#b"/>
</g>
<g clip-path="url(#a)">
<use x="391.194942" y="941.043229" fill="#ffffff" stroke="#ffffff" xlink:href="#b"/>
</g>
<g clip-path="url(#a)">
<use x="434.886014" y="941.043229" fill="#ffffff" stroke="#ffffff" xlink:href="#b"/>
</g>
<g clip-path="url(#a)">
<use x="478.577085" y="941.043229" fill="#ffffff" stroke="#ffffff" xlink:href="#b"/>
</g>
<g clip-path="url(#a)">
<use x="522.268156" y="941.043229" fill="#ffffff" stroke="#ffffff" xlink:href="#b"/>
</g>
<g clip-path="url(#a)">
<use x="565.959227" y="941.043229" fill="#ffffff" stroke="#ffffff" xlink:href="#b"/>
</g>
<g clip-path="url(#a)">
<use x="609.650299" y="941.043229" fill="#ffffff" stroke="#ffffff" xlink:href="#b"/>
</g>
<g clip-path="url(#a)">
<use x="653.34137" y="941.043229" fill="#ffffff" stroke="#ffffff" xlink:href="#b"/>
</g>
<g clip-path="url(#a)">
<use x="697.032441" y="941.043229" fill="#ffffff" stroke="#ffffff" xlink:href="#b"/>
</g>
<g clip-path="url(#a)">
<use x="740.723513" y="941.043229" fill="#ffffff" stroke="#ffffff" xlink:href="#b"/>
</g>
<g clip-path="url(#a)">
<use x="784.414584" y="941.043229" fill="#ffffff" stroke="#ffffff" xlink:href="#b"/>
</g>
<g clip-path="url(#a)">
<use x="828.105655" y="941.043229" fill="#ffffff" stroke="#ffffff" xlink:href="#b"/>
</g>
<g clip-path="url(#a)">
<use x="871.796726" y="941.043229" fill="#ffffff" stroke="#ffffff" xlink:href="#b"/>
</g>
<g clip-path="url(#a)">
<use x="915.487798" y="941.043229" fill="#ffffff" stroke="#ffffff" xlink:href="#b"/>
</g>
<g clip-path="url(#a)">
<use x="959.178869" y="941.043229" fill="#ffffff" stroke="#ffffff" xlink:href="#b"/>
</g>
<g clip-path="url(#a)">
<use x="1002.86994" y="941.043229" fill="#ffffff" stroke="#ffffff" xlink:href="#b"/>
</g>
<g clip-path="url(#a)">
<use x="1046.561012" y="941.043229" fill="#ffffff" stroke="#ffffff" xlink:href="#b"/>
</g>
<g clip-path="url(#a)">
<use x="1090.252083" y="941.043229" fill="#ffffff" stroke="#ffffff" xlink:href="#b"/>
</g>
<g clip-path="url(#a)">
<use x="1133.943154" y="941.043229" fill="#ffffff" stroke="#ffffff" xlink:href="#b"/>
</g>
<g clip-path="url(#a)">
<use x="1177.634225" y="941.043229" fill="#ffffff" stroke="#ffffff" xlink:href="#b"/>
</g>
<g clip-path="url(#a)">
<use x="1221.325297" y="941.043229" fill="#ffffff" stroke="#ffffff" xlink:href="#b"/>
</g>
<g clip-path="url(#a)">
<use x="1265.016368" y="941.043229" fill="#ffffff" stroke="#ffffff" xlink:href="#b"/>
</g>
<g clip-path="url(#a)">
<use x="1308.707439" y="941.043229" fill="#ffffff" stroke="#ffffff" xlink:href="#b"/>
</g>
<g clip-path="url(#a)">
<use x="1352.398511" y="941.043229" fill="#ffffff" stroke="#ffffff" xlink:href="#b"/>
</g>
<g clip-path="url(#a)">
<use x="1396.089582" y="941.043229" fill="#ffffff" stroke="#ffffff" xlink:href="#b"/>
</g>
<g clip-path="url(#a)">
<use x="1439.780653" y="941.043229" fill="#ffffff" stroke="#ffffff" xlink:href="#b"/>
</g>
<g clip-path="url(#a)">
<use x="1483.471724" y="941.043229" fill="#ffffff" stroke="#ffffff" xlink:href="#b"/>
</g>
<g clip-path="url(#a)">
<use x="1527.162796" y="941.043229" fill="#ffffff" stroke="#ffffff" xlink:href="#b"/>
</g>
<g clip-path="url(#a)">
<use x="1570.853867" y="941.043229" fill="#ffffff" stroke="#ffffff" xlink:href="#b"/>
</g>
<g clip-path="url(#a)">
<use x="1614.544938" y="941.043229" fill="#ffffff" stroke="#ffffff" xlink:href="#b"/>
</g>
<g clip-path="url(#a)">
<use x="1658.236009" y="941.043229" fill="#ffffff" stroke="#ffffff" xlink:href="#b"/>
</g>
<g clip-path="url(#a)">
<use x="398.620474" y="45.623438" fill="#ffffff" stroke="#ffffff" xlink:href="#b"/>
</g>
<g clip-path="url(#a)">
<use x="398.620474" y="182.207163" fill="#ffffff" stroke="#ffffff" xlink:href="#b"/>
</g>
<g clip-path="url(#a)">
<use x="1040.428658" y="315.119894" fill="#ffffff" stroke="#ffffff" xlink:href="#b"/>
</g>
<g clip-path="url(#a)">
<use x="216.430657" y="818.417217" fill="#ffffff" stroke="#ffffff" xlink:href="#b"/>
</g>
<g clip-path="url(#a)">
<use x="260.121728" y="818.417217" fill="#ffffff" stroke="#ffffff" xlink:href="#b"/>
</g>
<g clip-path="url(#a)">
<use x="369.349407" y="695.791205" fill="#ffffff" stroke="#ffffff" xlink:href="#b"/>
</g>
<g clip-path="url(#a)">
<use x="303.8128" y="818.417217" fill="#ffffff" stroke="#ffffff" xlink:href="#b"/>
</g>
<g clip-path="url(#a)">
<use x="347.503871" y="818.417217" fill="#ffffff" stroke="#ffffff" xlink:href="#b"/>
</g>
<g clip-path="url(#a)">
<use x="391.194942" y="818.417217" fill="#ffffff" stroke="#ffffff" xlink:href="#b"/>
</g>
<g clip-path="url(#a)">
<use x="434.886014" y="818.417217" fill="#ffffff" stroke="#ffffff" xlink:href="#b"/>
</g>
<g clip-path="url(#a)">
<use x="1330.552975" y="695.791205" fill="#ffffff" stroke="#ffffff" xlink:href="#b"/>
</g>
<g clip-path="url(#a)">
<use x="565.959227" y="818.417217" fill="#ffffff" stroke="#ffffff" xlink:href="#b"/>
</g>
<g clip-path="url(#a)">
<use x="776.222508" y="444.733352" fill="#ffffff" stroke="#ffffff" xlink:href="#b"/>
</g>
<g clip-path="url(#a)">
<use x="1351.774352" y="571.459331" fill="#ffffff" stroke="#ffffff" xlink:href="#b"/>
</g>
<g clip-path="url(#a)">
<use x="1221.325297" y="818.417217" fill="#ffffff" stroke="#ffffff" xlink:href="#b"/>
</g>
<g clip-path="url(#a)">
<use x="1286.861904" y="695.791205" fill="#ffffff" stroke="#ffffff" xlink:href="#b"/>
</g>
<g clip-path="url(#a)">
<use x="1352.398511" y="818.417217" fill="#ffffff" stroke="#ffffff" xlink:href="#b"/>
</g>
<g clip-path="url(#a)">
<use x="1502.196469" y="695.791205" fill="#ffffff" stroke="#ffffff" xlink:href="#b"/>
</g>
<g clip-path="url(#a)">
<use x="1439.780653" y="818.417217" fill="#ffffff" stroke="#ffffff" xlink:href="#b"/>
</g>
<g clip-path="url(#a)">
<use x="1483.471724" y="818.417217" fill="#ffffff" stroke="#ffffff" xlink:href="#b"/>
</g>
<g clip-path="url(#a)">
<use x="1265.016368" y="818.417217" fill="#ffffff" stroke="#ffffff" xlink:href="#b"/>
</g>
<g clip-path="url(#a)">
<use x="1308.707439" y="818.417217" fill="#ffffff" stroke="#ffffff" xlink:href="#b"/>
</g>
<g clip-path="url(#a)">
<use x="609.650299" y="818.417217" fill="#ffffff" stroke="#ffffff" xlink:href="#b"/>
</g>
<g clip-path="url(#a)">
<use x="893.642262" y="818.417217" fill="#ffffff" stroke="#ffffff" xlink:href="#b"/>
</g>
<g clip-path="url(#a)">
<use x="697.032441" y="818.417217" fill="#ffffff" stroke="#ffffff" xlink:href="#b"/>
</g>
<g clip-path="url(#a)">
<use x="904.56503" y="571.459331" fill="#ffffff" stroke="#ffffff" xlink:href="#b"/>
</g>
<g clip-path="url(#a)">
<use x="740.723513" y="818.417217" fill="#ffffff" stroke="#ffffff" xlink:href="#b"/>
</g>
<g clip-path="url(#a)">
<use x="806.260119" y="695.791205" fill="#ffffff" stroke="#ffffff" xlink:href="#b"/>
</g>
<g clip-path="url(#a)">
<use x="937.333333" y="695.791205" fill="#ffffff" stroke="#ffffff" xlink:href="#b"/>
</g>
<g clip-path="url(#a)">
<use x="1002.86994" y="818.417217" fill="#ffffff" stroke="#ffffff" xlink:href="#b"/>
</g>
<g clip-path="url(#a)">
<use x="1068.406547" y="695.791205" fill="#ffffff" stroke="#ffffff" xlink:href="#b"/>
</g>
<g clip-path="url(#a)">
<use x="129.048515" y="818.417217" fill="#ffffff" stroke="#ffffff" xlink:href="#b"/>
</g>
<g clip-path="url(#a)">
<use x="1046.561012" y="818.417217" fill="#ffffff" stroke="#ffffff" xlink:href="#b"/>
</g>
<g clip-path="url(#a)">
<use x="1090.252083" y="818.417217" fill="#ffffff" stroke="#ffffff" xlink:href="#b"/>
</g>
<g clip-path="url(#a)">
<use x="915.487798" y="818.417217" fill="#ffffff" stroke="#ffffff" xlink:href="#b"/>
</g>
<g clip-path="url(#a)">
<use x="959.178869" y="818.417217" fill="#ffffff" stroke="#ffffff" xlink:href="#b"/>
</g>
<g clip-path="url(#a)">
<use x="784.414584" y="818.417217" fill="#ffffff" stroke="#ffffff" xlink:href="#b"/>
</g>
<g clip-path="url(#a)">
<use x="828.105655" y="818.417217" fill="#ffffff" stroke="#ffffff" xlink:href="#b"/>
</g>
<g clip-path="url(#a)">
<use x="1789.309223" y="941.043229" fill="#ffffff" stroke="#ffffff" xlink:href="#b"/>
</g>
<g clip-path="url(#a)">
<use x="1745.618152" y="941.043229" fill="#ffffff" stroke="#ffffff" xlink:href="#b"/>
</g>
<g clip-path="url(#a)">
<use x="1701.927081" y="941.043229" fill="#ffffff" stroke="#ffffff" xlink:href="#b"/>
</g>
<g clip-path="url(#a)">
<use x="85.357443" y="818.417217" fill="#ffffff" stroke="#ffffff" xlink:href="#b"/>
</g>
<g clip-path="url(#a)">
<use x="172.739586" y="818.417217" fill="#ffffff" stroke="#ffffff" xlink:href="#b"/>
</g>
<g clip-path="url(#a)">
<use x="478.577085" y="818.417217" fill="#ffffff" stroke="#ffffff" xlink:href="#b"/>
</g>
<g clip-path="url(#a)">
<use x="522.268156" y="818.417217" fill="#ffffff" stroke="#ffffff" xlink:href="#b"/>
</g>
<g clip-path="url(#a)">
<use x="871.796726" y="818.417217" fill="#ffffff" stroke="#ffffff" xlink:href="#b"/>
</g>
<g clip-path="url(#a)">
<use x="1177.634225" y="818.417217" fill="#ffffff" stroke="#ffffff" xlink:href="#b"/>
</g>
<g clip-path="url(#a)">
<use x="1396.089582" y="818.417217" fill="#ffffff" stroke="#ffffff" xlink:href="#b"/>
</g>
<g clip-path="url(#a)">
<use x="1527.162796" y="818.417217" fill="#ffffff" stroke="#ffffff" xlink:href="#b"/>
</g>
<g clip-path="url(#a)">
<use x="1570.853867" y="818.417217" fill="#ffffff" stroke="#ffffff" xlink:href="#b"/>
</g>
<g clip-path="url(#a)">
<use x="1614.544938" y="818.417217" fill="#ffffff" stroke="#ffffff" xlink:href="#b"/>
</g>
<g clip-path="url(#a)">
<use x="1658.236009" y="818.417217" fill="#ffffff" stroke="#ffffff" xlink:href="#b"/>
</g>
<g clip-path="url(#a)">
<defs>
<path id="av" d="m9.8125 72.906h9.8594v-67.828q0-13.188-5-19.141t-16.094-5.9531h-3.75v8.2969h3.0781q6.5312 0 9.2188 3.6719 2.6875 3.6562 2.6875 13.125z"/>
</defs>
<g transform="translate(80.818 943.8) scale(.1 -.1)">
<use xlink:href="#av"/>
<use x="29.492188" xlink:href="#h"/>
</g>
</g>
<g clip-path="url(#a)">
<defs>
<path id="al" d="m17.922 72.906v-27.109h-8.2969v27.109zm18.453 0v-27.109h-8.2969v27.109z"/>
</defs>
<g transform="translate(126.75 943.8) scale(.1 -.1)">
<use xlink:href="#al"/>
</g>
</g>
<g clip-path="url(#a)">
<defs>
<path id="an" d="m11.719 12.406h10.297v-8.4062l-8-15.625h-6.2969l4 15.625z"/>
</defs>
<g transform="translate(171.15 943.8) scale(.1 -.1)">
<use xlink:href="#an"/>
</g>
</g>
<g clip-path="url(#a)">
<defs>
<path id="s" d="m44.281 53.078v-8.5q-3.7969 1.9531-7.9062 2.9219-4.0938 0.98438-8.5 0.98438-6.6875 0-10.031-2.0469t-3.3438-6.1562q0-3.125 2.3906-4.9062t9.625-3.3906l3.0781-0.6875q9.5625-2.0469 13.594-5.7812t4.0312-10.422q0-7.625-6.0312-12.078-6.0312-4.4375-16.578-4.4375-4.3906 0-9.1562 0.85938t-10.031 2.5625v9.2812q4.9844-2.5938 9.8125-3.8906 4.8281-1.2812 9.5781-1.2812 6.3438 0 9.75 2.1719 3.4219 2.1719 3.4219 6.125 0 3.6562-2.4688 5.6094-2.4531 1.9531-10.812 3.7656l-3.125 0.73438q-8.3438 1.75-12.062 5.3906-3.7031 3.6406-3.7031 9.9844 0 7.7188 5.4688 11.906 5.4688 4.2031 15.531 4.2031 4.9688 0 9.3594-0.73438 4.4062-0.71875 8.1094-2.1875z"/>
<path id="bf" d="m45.406 27.984q0 9.7656-4.0312 15.125-4.0156 5.375-11.297 5.375-7.2188 0-11.25-5.375-4.0312-5.3594-4.0312-15.125 0-9.7188 4.0312-15.094t11.25-5.375q7.2812 0 11.297 5.375 4.0312 5.375 4.0312 15.094zm8.9844-21.203q0-13.953-6.2031-20.766-6.1875-6.8125-18.984-6.8125-4.7344 0-8.9375 0.70312t-8.1562 2.1719v8.7344q3.9531-2.1406 7.8125-3.1562 3.8594-1.0312 7.8594-1.0312 8.8438 0 13.234 4.6094t4.3906 13.938v4.4531q-2.7812-4.8438-7.125-7.2344t-10.406-2.3906q-10.047 0-16.203 7.6562-6.1562 7.6719-6.1562 20.328 0 12.688 6.1562 20.344 6.1562 7.6719 16.203 7.6719 6.0625 0 10.406-2.3906t7.125-7.2188v8.2969h8.9844z"/>
<path id="w" d="m18.312 70.219v-15.531h18.5v-6.9844h-18.5v-29.688q0-6.6875 1.8281-8.5938t7.4531-1.9062h9.2188v-7.5156h-9.2188q-10.406 0-14.359 3.875-3.9531 3.8906-3.9531 14.141v29.688h-6.5938v6.9844h6.5938v15.531z"/>
</defs>
<g transform="translate(202.55 943.8) scale(.1 -.1)">
<use xlink:href="#s"/>
<use x="52.099609" xlink:href="#h"/>
<use x="113.378906" xlink:href="#bf"/>
<use x="176.855469" xlink:href="#w"/>
<use x="216.064453" xlink:href="#d"/>
</g>
</g>
<g clip-path="url(#a)">
<defs>
<path id="ad" d="m48.781 52.594v-8.4062q-3.8125 2.1094-7.6406 3.1562t-7.7344 1.0469q-8.75 0-13.594-5.5469-4.8281-5.5312-4.8281-15.547t4.8281-15.562q4.8438-5.5312 13.594-5.5312 3.9062 0 7.7344 1.0469t7.6406 3.1562v-8.3125q-3.7656-1.75-7.7969-2.625-4.0156-0.89062-8.5625-0.89062-12.359 0-19.641 7.7656-7.2656 7.7656-7.2656 20.953 0 13.375 7.3438 21.031 7.3594 7.6719 20.156 7.6719 4.1406 0 8.0938-0.85938 3.9531-0.84375 7.6719-2.5469z"/>
<path id="x" d="m54.891 33.016v-33.016h-8.9844v32.719q0 7.7656-3.0312 11.609-3.0312 3.8594-9.0781 3.8594-7.2812 0-11.484-4.6406-4.2031-4.625-4.2031-12.641v-30.906h-9.0312v75.984h9.0312v-29.797q3.2344 4.9375 7.5938 7.375 4.375 2.4375 10.094 2.4375 9.4219 0 14.25-5.8281 4.8438-5.8281 4.8438-17.156z"/>
</defs>
<g transform="translate(252.81 943.8) scale(.1 -.1)">
<use xlink:href="#g"/>
<use x="27.783203" xlink:href="#ad"/>
<use x="82.763672" xlink:href="#x"/>
</g>
</g>
<g clip-path="url(#a)">
<defs>
<path id="ar" d="m5.5156 54.688h42.672v-8.2031l-33.781-39.312h33.781v-7.1719h-43.891v8.2031l33.797 39.312h-32.578z"/>
<path id="ab" d="m8.5 21.578v33.109h8.9844v-32.766q0-7.7656 3.0156-11.656 3.0312-3.875 9.0938-3.875 7.2656 0 11.484 4.6406 4.2344 4.6406 4.2344 12.656v31h8.9844v-54.688h-8.9844v8.4062q-3.2656-4.9844-7.5938-7.4062-4.3125-2.4219-10.031-2.4219-9.4219 0-14.312 5.8594-4.875 5.8594-4.875 17.141z"/>
</defs>
<g transform="translate(298.02 943.8) scale(.1 -.1)">
<use xlink:href="#ar"/>
<use x="52.490234" xlink:href="#ab"/>
</g>
</g>
<g clip-path="url(#a)">
<defs>
<path id="ac" d="m45.406 46.391v29.594h8.9844v-75.984h-8.9844v8.2031q-2.8281-4.875-7.1562-7.25-4.3125-2.375-10.375-2.375-9.9062 0-16.141 7.9062-6.2188 7.9219-6.2188 20.812t6.2188 20.797q6.2344 7.9062 16.141 7.9062 6.0625 0 10.375-2.375 4.3281-2.3594 7.1562-7.2344zm-30.609-19.094q0-9.9062 4.0781-15.547t11.203-5.6406 11.219 5.6406q4.1094 5.6406 4.1094 15.547t-4.1094 15.547q-4.0938 5.6406-11.219 5.6406t-11.203-5.6406-4.0781-15.547z"/>
</defs>
<g transform="translate(336.38 943.8) scale(.1 -.1)">
<use xlink:href="#ac"/>
<use x="63.476562" xlink:href="#d"/>
<use x="125" xlink:href="#k"/>
</g>
</g>
<g clip-path="url(#a)">
<defs>
<path id="be" d="m9.0781 75.984h9.0312v-44.875l26.812 23.578h11.469l-29-25.578 30.234-29.109h-11.719l-27.797 26.703v-26.703h-9.0312z"/>
</defs>
<g transform="translate(373.03 943.8) scale(.1 -.1)">
<use xlink:href="#be"/>
<use x="57.910156" xlink:href="#l"/>
<use x="85.693359" xlink:href="#d"/>
<use x="147.216797" xlink:href="#g"/>
<use x="175" xlink:href="#f"/>
<use x="238.378906" xlink:href="#d"/>
<use x="299.902344" xlink:href="#f"/>
</g>
</g>
<g clip-path="url(#a)">
<g transform="translate(416.39 943.8) scale(.1 -.1)">
<use xlink:href="#y"/>
<use x="60.287109" xlink:href="#i"/>
<use x="101.400391" xlink:href="#g"/>
<use x="129.183594" xlink:href="#f"/>
<use x="192.5625" xlink:href="#ar"/>
<use x="245.052734" xlink:href="#d"/>
<use x="306.576172" xlink:href="#f"/>
</g>
</g>
<g clip-path="url(#a)">
<defs>
<path id="e" d="m10.688 12.406h10.312v-12.406h-10.312z"/>
</defs>
<g transform="translate(476.99 943.8) scale(.1 -.1)">
<use xlink:href="#e"/>
</g>
</g>
<g clip-path="url(#a)">
<g transform="translate(519.97 943.8) scale(.1 -.1)">
<use xlink:href="#al"/>
</g>
</g>
<g clip-path="url(#a)">
<defs>
<path id="at" d="m39.406 66.219q-10.75 0-17.078-8.0156-6.3125-8-6.3125-21.828 0-13.766 6.3125-21.781 6.3281-8 17.078-8 10.734 0 17.016 8 6.2812 8.0156 6.2812 21.781 0 13.828-6.2812 21.828-6.2812 8.0156-17.016 8.0156zm0 8q15.328 0 24.5-10.281 9.1875-10.281 9.1875-27.562 0-17.234-9.1875-27.516-9.1719-10.281-24.5-10.281-15.375 0-24.594 10.25-9.2031 10.266-9.2031 27.547t9.2031 27.562q9.2188 10.281 24.594 10.281z"/>
<path id="ao" d="m48.688 27.297q0 9.9062-4.0781 15.547t-11.203 5.6406q-7.1406 0-11.219-5.6406t-4.0781-15.547 4.0781-15.547 11.219-5.6406q7.125 0 11.203 5.6406t4.0781 15.547zm-30.578 19.094q2.8438 4.875 7.1562 7.2344 4.3281 2.375 10.328 2.375 9.9688 0 16.188-7.9062 6.2344-7.9062 6.2344-20.797t-6.2344-20.812q-6.2188-7.9062-16.188-7.9062-6 0-10.328 2.375-4.3125 2.375-7.1562 7.25v-8.2031h-9.0312v75.984h9.0312z"/>
</defs>
<g transform="translate(558.85 943.8) scale(.1 -.1)">
<use xlink:href="#at"/>
<use x="78.710938" xlink:href="#ao"/>
</g>
</g>
<g clip-path="url(#a)">
<g transform="translate(603.97 943.8) scale(.1 -.1)">
<use xlink:href="#d"/>
<use x="61.523438" xlink:href="#s"/>
</g>
</g>
<g clip-path="url(#a)">
<g transform="translate(643.43 943.8) scale(.1 -.1)">
<use xlink:href="#s"/>
<use x="52.099609" xlink:href="#g"/>
<use x="79.882812" xlink:href="#ad"/>
<use x="134.863281" xlink:href="#x"/>
</g>
</g>
<g clip-path="url(#a)">
<g transform="translate(687.53 943.8) scale(.1 -.1)">
<use xlink:href="#f"/>
<use x="63.378906" xlink:href="#ab"/>
<use x="126.757812" xlink:href="#f"/>
</g>
</g>
<g clip-path="url(#a)">
<g transform="translate(732.68 943.8) scale(.1 -.1)">
<use xlink:href="#ab"/>
<use x="63.378906" xlink:href="#k"/>
</g>
</g>
<g clip-path="url(#a)">
<g transform="translate(775.57 943.8) scale(.1 -.1)">
<use xlink:href="#ac"/>
<use x="63.476562" xlink:href="#h"/>
<use x="124.755859" xlink:href="#s"/>
</g>
</g>
<g clip-path="url(#a)">
<g transform="translate(815.51 943.8) scale(.1 -.1)">
<use xlink:href="#af"/>
<use x="75.195312" xlink:href="#h"/>
<use x="136.474609" xlink:href="#ab"/>
<use x="199.853516" xlink:href="#s"/>
</g>
</g>
<g clip-path="url(#a)">
<g transform="translate(870.21 943.8) scale(.1 -.1)">
<use xlink:href="#an"/>
</g>
</g>
<g clip-path="url(#a)">
<g transform="translate(907.85 943.8) scale(.1 -.1)">
<use xlink:href="#ac"/>
<use x="63.476562" xlink:href="#g"/>
<use x="91.259766" xlink:href="#d"/>
</g>
</g>
<g clip-path="url(#a)">
<g transform="translate(942.67 943.8) scale(.1 -.1)">
<use xlink:href="#ae"/>
<use x="63.476562" xlink:href="#w"/>
<use x="102.685547" xlink:href="#d"/>
<use x="164.208984" xlink:href="#i"/>
<use x="205.306641" xlink:href="#f"/>
<use x="268.685547" xlink:href="#d"/>
</g>
</g>
<g clip-path="url(#a)">
<defs>
<path id="bd" d="m30.609 48.391q-7.2188 0-11.422-5.6406t-4.2031-15.453 4.1719-15.453q4.1875-5.6406 11.453-5.6406 7.1875 0 11.375 5.6562 4.2031 5.6719 4.2031 15.438 0 9.7188-4.2031 15.406-4.1875 5.6875-11.375 5.6875zm0 7.6094q11.719 0 18.406-7.625 6.7031-7.6094 6.7031-21.078 0-13.422-6.7031-21.078-6.6875-7.6406-18.406-7.6406-11.766 0-18.438 7.6406-6.6562 7.6562-6.6562 21.078 0 13.469 6.6562 21.078 6.6719 7.625 18.438 7.625z"/>
</defs>
<g transform="translate(991.5 943.8) scale(.1 -.1)">
<use xlink:href="#bd"/>
<use x="61.181641" xlink:href="#ac"/>
<use x="124.658203" xlink:href="#d"/>
<use x="186.181641" xlink:href="#i"/>
</g>
</g>
<g clip-path="url(#a)">
<g transform="translate(1038.9 943.8) scale(.1 -.1)">
<use xlink:href="#ac"/>
<use x="63.476562" xlink:href="#g"/>
<use x="91.259766" xlink:href="#d"/>
</g>
</g>
<g clip-path="url(#a)">
<defs>
<path id="as" d="m3.3281 72.906h9.9531l15.328-61.625 15.281 61.625h11.094l15.328-61.625 15.281 61.625h10.016l-18.312-72.906h-12.406l-15.375 63.281-15.531-63.281h-12.406z"/>
<path id="az" d="m8.5 21.578v33.109h8.9844v-32.766q0-7.7656 3.0156-11.656 3.0312-3.875 9.0938-3.875 7.2656 0 11.484 4.6406 4.2344 4.6406 4.2344 12.656v31h8.9844v-54.688h-8.9844v8.4062q-3.2656-4.9844-7.5938-7.4062-4.3125-2.4219-10.031-2.4219-9.4219 0-14.312 5.8594-4.875 5.8594-4.875 17.141zm22.609 34.422m4.4844 19.781h9.9062v-9.8594h-9.9062zm-19.094 0h9.9062v-9.8594h-9.9062z"/>
</defs>
<g transform="translate(1074.5 943.8) scale(.1 -.1)">
<use xlink:href="#as"/>
<use x="98.830078" xlink:href="#az"/>
<use x="162.208984" xlink:href="#s"/>
<use x="214.308594" xlink:href="#w"/>
<use x="253.517578" xlink:href="#d"/>
</g>
</g>
<g clip-path="url(#a)">
<g transform="translate(1114.9 943.8) scale(.1 -.1)">
<use xlink:href="#x"/>
<use x="63.378906" xlink:href="#h"/>
<use x="124.658203" xlink:href="#f"/>
<use x="188.037109" xlink:href="#ac"/>
<use x="251.513672" xlink:href="#d"/>
<use x="313.037109" xlink:href="#l"/>
<use x="340.820312" xlink:href="#w"/>
</g>
</g>
<g clip-path="url(#a)">
<defs>
<path id="aw" d="m11.719 51.703h10.297v-12.391h-10.297zm0-39.297h10.297v-8.4062l-8-15.625h-6.2969l4 15.625z"/>
</defs>
<g transform="translate(1175.9 943.8) scale(.1 -.1)">
<use xlink:href="#aw"/>
</g>
</g>
<g clip-path="url(#a)">
<defs>
<path id="bc" d="m4.2031 54.688h8.9844l11.234-42.672 11.172 42.672h10.594l11.234-42.672 11.188 42.672h8.9844l-14.312-54.688h-10.594l-11.766 44.828-11.812-44.828h-10.609z"/>
</defs>
<g transform="translate(1211.6 943.8) scale(.1 -.1)">
<use xlink:href="#bc"/>
<use x="81.787109" xlink:href="#h"/>
<use x="143.066406" xlink:href="#s"/>
</g>
</g>
<g clip-path="url(#a)">
<g transform="translate(1255.3 943.8) scale(.1 -.1)">
<use xlink:href="#g"/>
<use x="27.783203" xlink:href="#x"/>
<use x="91.162109" xlink:href="#i"/>
<use x="132.244141" xlink:href="#d"/>
</g>
</g>
<g clip-path="url(#a)">
<defs>
<path id="ba" d="m30.609 48.391q-7.2188 0-11.422-5.6406t-4.2031-15.453 4.1719-15.453q4.1875-5.6406 11.453-5.6406 7.1875 0 11.375 5.6562 4.2031 5.6719 4.2031 15.438 0 9.7188-4.2031 15.406-4.1875 5.6875-11.375 5.6875zm0 7.6094q11.719 0 18.406-7.625 6.7031-7.6094 6.7031-21.078 0-13.422-6.7031-21.078-6.6875-7.6406-18.406-7.6406-11.766 0-18.438 7.6406-6.6562 7.6562-6.6562 21.078 0 13.469 6.6562 21.078 6.6719 7.625 18.438 7.625zm4.6094 19.781h9.9062v-9.8594h-9.9062zm-19.094 0h9.9062v-9.8594h-9.9062z"/>
</defs>
<g transform="translate(1283.8 943.8) scale(.1 -.1)">
<use xlink:href="#ae"/>
<use x="63.476562" xlink:href="#ad"/>
<use x="118.457031" xlink:href="#x"/>
<use x="181.835938" xlink:href="#ba"/>
<use x="243.017578" xlink:href="#f"/>
<use x="306.396484" xlink:href="#x"/>
<use x="369.775391" xlink:href="#d"/>
<use x="431.298828" xlink:href="#g"/>
<use x="459.082031" xlink:href="#w"/>
</g>
</g>
<g clip-path="url(#a)">
<g transform="translate(1327.7 943.8) scale(.1 -.1)">
<use xlink:href="#h"/>
<use x="61.279297" xlink:href="#ab"/>
<use x="124.658203" xlink:href="#s"/>
<use x="176.757812" xlink:href="#k"/>
<use x="274.169922" xlink:href="#h"/>
<use x="335.449219" xlink:href="#ad"/>
<use x="390.429688" xlink:href="#x"/>
<use x="453.808594" xlink:href="#w"/>
</g>
</g>
<g clip-path="url(#a)">
<g transform="translate(1394.5 943.8) scale(.1 -.1)">
<use xlink:href="#an"/>
</g>
</g>
<g clip-path="url(#a)">
<g transform="translate(1433.8 943.8) scale(.1 -.1)">
<use xlink:href="#g"/>
<use x="27.783203" xlink:href="#s"/>
<use x="79.882812" xlink:href="#w"/>
</g>
</g>
<g clip-path="url(#a)">
<g transform="translate(1457 943.8) scale(.1 -.1)">
<use xlink:href="#ab"/>
<use x="63.378906" xlink:href="#f"/>
<use x="126.757812" xlink:href="#s"/>
<use x="178.857422" xlink:href="#g"/>
<use x="206.640625" xlink:href="#ad"/>
<use x="261.621094" xlink:href="#x"/>
<use x="325" xlink:href="#w"/>
<use x="364.208984" xlink:href="#ao"/>
<use x="427.685547" xlink:href="#h"/>
<use x="488.964844" xlink:href="#i"/>
</g>
</g>
<g clip-path="url(#a)">
<defs>
<path id="ay" d="m15.094 12.406h9.9062v-12.406h-9.9062zm0 60.5h9.9062v-31.984l-0.96875-17.438h-7.9219l-1.0156 17.438z"/>
</defs>
<g transform="translate(1525.2 943.8) scale(.1 -.1)">
<use xlink:href="#ay"/>
</g>
</g>
<g clip-path="url(#a)">
<g transform="translate(1568.6 943.8) scale(.1 -.1)">
<use xlink:href="#al"/>
</g>
</g>
<g clip-path="url(#a)">
<defs>
<path id="ax" d="m4.8906 31.391h26.312v-8h-26.312z"/>
</defs>
<g transform="translate(1612.7 943.8) scale(.1 -.1)">
<use xlink:href="#ax"/>
</g>
</g>
<g clip-path="url(#a)">
<g transform="translate(1655.9 943.8) scale(.1 -.1)">
<use xlink:href="#al"/>
</g>
</g>
<g clip-path="url(#a)">
<defs>
<path id="c" d="m12.406 8.2969h16.109v55.625l-17.531-3.5156v8.9844l17.438 3.5156h9.8594v-64.609h16.109v-8.2969h-41.984z"/>
</defs>
<g transform="translate(390.67 48.383) scale(.1 -.1)">
<use xlink:href="#c"/>
<use x="63.623047" xlink:href="#e"/>
<use x="95.410156" xlink:href="#c"/>
</g>
</g>
<g clip-path="url(#a)">
<defs>
<path id="m" d="m19.188 8.2969h34.422v-8.2969h-46.281v8.2969q5.6094 5.8125 15.297 15.594 9.7031 9.7969 12.188 12.641 4.7344 5.3125 6.6094 9 1.8906 3.6875 1.8906 7.25 0 5.8125-4.0781 9.4688-4.0781 3.6719-10.625 3.6719-4.6406 0-9.7969-1.6094-5.1406-1.6094-11-4.8906v9.9688q5.9531 2.3906 11.125 3.6094 5.1875 1.2188 9.4844 1.2188 11.328 0 18.062-5.6719 6.7344-5.6562 6.7344-15.125 0-4.5-1.6875-8.5312-1.6719-4.0156-6.125-9.4844-1.2188-1.4219-7.7656-8.1875-6.5312-6.7656-18.453-18.922z"/>
</defs>
<g transform="translate(390.67 184.97) scale(.1 -.1)">
<use xlink:href="#c"/>
<use x="63.623047" xlink:href="#e"/>
<use x="95.410156" xlink:href="#m"/>
</g>
</g>
<g clip-path="url(#a)">
<defs>
<path id="aa" d="m8.2031 72.906h46.875v-4.2031l-26.469-68.703h-10.297l24.906 64.594h-35.016z"/>
</defs>
<g transform="translate(1032.5 317.88) scale(.1 -.1)">
<use xlink:href="#c"/>
<use x="63.623047" xlink:href="#e"/>
<use x="95.410156" xlink:href="#aa"/>
</g>
</g>
<g clip-path="url(#a)">
<defs>
<path id="ah" d="m31.781 34.625q-7.0312 0-11.062-3.7656-4.0156-3.7656-4.0156-10.344 0-6.5938 4.0156-10.359 4.0312-3.7656 11.062-3.7656t11.078 3.7812q4.0625 3.7969 4.0625 10.344 0 6.5781-4.0312 10.344-4.0156 3.7656-11.109 3.7656zm-9.8594 4.1875q-6.3438 1.5625-9.8906 5.9062-3.5312 4.3594-3.5312 10.609 0 8.7344 6.2188 13.812 6.2344 5.0781 17.062 5.0781 10.891 0 17.094-5.0781t6.2031-13.812q0-6.25-3.5469-10.609-3.5312-4.3438-9.8281-5.9062 7.125-1.6562 11.094-6.5 3.9844-4.8281 3.9844-11.797 0-10.609-6.4688-16.281-6.4688-5.6562-18.531-5.6562-12.047 0-18.531 5.6562-6.4688 5.6719-6.4688 16.281 0 6.9688 4 11.797 4.0156 4.8438 11.141 6.5zm-3.6094 15.578q0-5.6562 3.5312-8.8281 3.5469-3.1719 9.9375-3.1719 6.3594 0 9.9375 3.1719 3.5938 3.1719 3.5938 8.8281 0 5.6719-3.5938 8.8438-3.5781 3.1719-9.9375 3.1719-6.3906 0-9.9375-3.1719-3.5312-3.1719-3.5312-8.8438z"/>
</defs>
<g transform="translate(208.48 821.18) scale(.1 -.1)">
<use xlink:href="#c"/>
<use x="63.623047" xlink:href="#e"/>
<use x="95.410156" xlink:href="#ah"/>
</g>
</g>
<g clip-path="url(#a)">
<defs>
<path id="ag" d="m10.984 1.5156v8.9844q3.7188-1.7656 7.5156-2.6875 3.8125-0.92188 7.4844-0.92188 9.7656 0 14.906 6.5625 5.1562 6.5625 5.8906 19.953-2.8281-4.2031-7.1875-6.4531-4.3438-2.25-9.6094-2.25-10.938 0-17.312 6.6094-6.375 6.625-6.375 18.109 0 11.219 6.6406 18 6.6406 6.7969 17.672 6.7969 12.656 0 19.312-9.7031 6.6719-9.6875 6.6719-28.141 0-17.234-8.1875-27.516-8.1719-10.281-21.984-10.281-3.7188 0-7.5312 0.73438-3.7969 0.73438-7.9062 2.2031zm19.625 30.906q6.6406 0 10.516 4.5312 3.8906 4.5469 3.8906 12.469 0 7.8594-3.8906 12.422-3.875 4.5625-10.516 4.5625t-10.516-4.5625-3.875-12.422q0-7.9219 3.875-12.469 3.875-4.5312 10.516-4.5312z"/>
</defs>
<g transform="translate(252.17 821.18) scale(.1 -.1)">
<use xlink:href="#c"/>
<use x="63.623047" xlink:href="#e"/>
<use x="95.410156" xlink:href="#ag"/>
</g>
</g>
<g clip-path="url(#a)">
<defs>
<path id="ai" d="m31.781 66.406q-7.6094 0-11.453-7.5-3.8281-7.4844-3.8281-22.531 0-14.984 3.8281-22.484 3.8438-7.5 11.453-7.5 7.6719 0 11.5 7.5 3.8438 7.5 3.8438 22.484 0 15.047-3.8438 22.531-3.8281 7.5-11.5 7.5zm0 7.8125q12.266 0 18.734-9.7031 6.4688-9.6875 6.4688-28.141 0-18.406-6.4688-28.109-6.4688-9.6875-18.734-9.6875-12.25 0-18.719 9.6875-6.4688 9.7031-6.4688 28.109 0 18.453 6.4688 28.141 6.4688 9.7031 18.719 9.7031z"/>
</defs>
<g transform="translate(358.22 698.55) scale(.1 -.1)">
<use xlink:href="#c"/>
<use x="63.623047" xlink:href="#e"/>
<use x="95.410156" xlink:href="#c"/>
<use x="159.033203" xlink:href="#ai"/>
</g>
</g>
<g clip-path="url(#a)">
<defs>
<path id="n" d="m10.797 72.906h38.719v-8.3125h-29.688v-17.859q2.1406 0.73438 4.2812 1.0938 2.1562 0.35938 4.3125 0.35938 12.203 0 19.328-6.6875 7.1406-6.6875 7.1406-18.109 0-11.766-7.3281-18.297-7.3281-6.5156-20.656-6.5156-4.5938 0-9.3594 0.78125-4.75 0.78125-9.8281 2.3438v9.9219q4.3906-2.3906 9.0781-3.5625t9.9062-1.1719q8.4531 0 13.375 4.4375 4.9375 4.4375 4.9375 12.062 0 7.6094-4.9375 12.047-4.9219 4.4531-13.375 4.4531-3.9531 0-7.8906-0.875-3.9219-0.875-8.0156-2.7344z"/>
</defs>
<g transform="translate(292.68 821.18) scale(.1 -.1)">
<use xlink:href="#c"/>
<use x="63.623047" xlink:href="#e"/>
<use x="95.410156" xlink:href="#c"/>
<use x="159.033203" xlink:href="#n"/>
</g>
</g>
<g clip-path="url(#a)">
<defs>
<path id="v" d="m33.016 40.375q-6.6406 0-10.531-4.5469-3.875-4.5312-3.875-12.438 0-7.8594 3.875-12.438 3.8906-4.5625 10.531-4.5625t10.516 4.5625q3.875 4.5781 3.875 12.438 0 7.9062-3.875 12.438-3.875 4.5469-10.516 4.5469zm19.578 30.922v-8.9844q-3.7188 1.75-7.5 2.6719-3.7812 0.9375-7.5 0.9375-9.7656 0-14.922-6.5938-5.1406-6.5938-5.875-19.922 2.875 4.25 7.2188 6.5156 4.3594 2.2656 9.5781 2.2656 10.984 0 17.359-6.6719 6.375-6.6562 6.375-18.125 0-11.234-6.6406-18.031-6.6406-6.7812-17.672-6.7812-12.656 0-19.344 9.6875-6.6875 9.7031-6.6875 28.109 0 17.281 8.2031 27.562t22.016 10.281q3.7188 0 7.5-0.73438t7.8906-2.1875z"/>
</defs>
<g transform="translate(336.37 821.18) scale(.1 -.1)">
<use xlink:href="#c"/>
<use x="63.623047" xlink:href="#e"/>
<use x="95.410156" xlink:href="#c"/>
<use x="159.033203" xlink:href="#v"/>
</g>
</g>
<g clip-path="url(#a)">
<g transform="translate(380.06 821.18) scale(.1 -.1)">
<use xlink:href="#c"/>
<use x="63.623047" xlink:href="#e"/>
<use x="95.410156" xlink:href="#c"/>
<use x="159.033203" xlink:href="#aa"/>
</g>
</g>
<g clip-path="url(#a)">
<g transform="translate(423.75 821.18) scale(.1 -.1)">
<use xlink:href="#c"/>
<use x="63.623047" xlink:href="#e"/>
<use x="95.410156" xlink:href="#c"/>
<use x="159.033203" xlink:href="#ah"/>
</g>
</g>
<g clip-path="url(#a)">
<g transform="translate(1319.4 698.55) scale(.1 -.1)">
<use xlink:href="#c"/>
<use x="63.623047" xlink:href="#e"/>
<use x="95.410156" xlink:href="#c"/>
<use x="159.033203" xlink:href="#ag"/>
</g>
</g>
<g clip-path="url(#a)">
<g transform="translate(554.83 821.18) scale(.1 -.1)">
<use xlink:href="#c"/>
<use x="63.623047" xlink:href="#e"/>
<use x="95.410156" xlink:href="#m"/>
<use x="159.033203" xlink:href="#ai"/>
</g>
</g>
<g clip-path="url(#a)">
<g transform="translate(765.09 447.49) scale(.1 -.1)">
<use xlink:href="#c"/>
<use x="63.623047" xlink:href="#e"/>
<use x="95.410156" xlink:href="#m"/>
<use x="159.033203" xlink:href="#c"/>
</g>
</g>
<g clip-path="url(#a)">
<g transform="translate(1340.6 574.22) scale(.1 -.1)">
<use xlink:href="#c"/>
<use x="63.623047" xlink:href="#e"/>
<use x="95.410156" xlink:href="#m"/>
<use x="159.033203" xlink:href="#m"/>
</g>
</g>
<g clip-path="url(#a)">
<defs>
<path id="o" d="m37.797 64.312-24.906-38.922h24.906zm-2.5938 8.5938h12.406v-47.516h10.406v-8.2031h-10.406v-17.188h-9.8125v17.188h-32.906v9.5156z"/>
</defs>
<g transform="translate(1210.2 821.18) scale(.1 -.1)">
<use xlink:href="#c"/>
<use x="63.623047" xlink:href="#e"/>
<use x="95.410156" xlink:href="#m"/>
<use x="159.033203" xlink:href="#o"/>
</g>
</g>
<g clip-path="url(#a)">
<g transform="translate(1275.7 698.55) scale(.1 -.1)">
<use xlink:href="#c"/>
<use x="63.623047" xlink:href="#e"/>
<use x="95.410156" xlink:href="#m"/>
<use x="159.033203" xlink:href="#n"/>
</g>
</g>
<g clip-path="url(#a)">
<g transform="translate(1341.3 821.18) scale(.1 -.1)">
<use xlink:href="#c"/>
<use x="63.623047" xlink:href="#e"/>
<use x="95.410156" xlink:href="#m"/>
<use x="159.033203" xlink:href="#v"/>
</g>
</g>
<g clip-path="url(#a)">
<g transform="translate(1491.1 698.55) scale(.1 -.1)">
<use xlink:href="#c"/>
<use x="63.623047" xlink:href="#e"/>
<use x="95.410156" xlink:href="#m"/>
<use x="159.033203" xlink:href="#aa"/>
</g>
</g>
<g clip-path="url(#a)">
<g transform="translate(1428.6 821.18) scale(.1 -.1)">
<use xlink:href="#c"/>
<use x="63.623047" xlink:href="#e"/>
<use x="95.410156" xlink:href="#m"/>
<use x="159.033203" xlink:href="#ag"/>
</g>
</g>
<g clip-path="url(#a)">
<defs>
<path id="p" d="m40.578 39.312q7.0781-1.5156 11.047-6.3125 3.9844-4.7812 3.9844-11.812 0-10.781-7.4219-16.703-7.4219-5.9062-21.094-5.9062-4.5781 0-9.4375 0.90625t-10.031 2.7188v9.5156q4.0938-2.3906 8.9688-3.6094 4.8906-1.2188 10.219-1.2188 9.2656 0 14.125 3.6562t4.8594 10.641q0 6.4531-4.5156 10.078-4.5156 3.6406-12.562 3.6406h-8.5v8.1094h8.8906q7.2656 0 11.125 2.9062t3.8594 8.375q0 5.6094-3.9844 8.6094-3.9688 3.0156-11.391 3.0156-4.0625 0-8.7031-0.89062-4.6406-0.875-10.203-2.7188v8.7812q5.625 1.5625 10.531 2.3438t9.25 0.78125q11.234 0 17.766-5.1094 6.5469-5.0938 6.5469-13.781 0-6.0625-3.4688-10.234t-9.8594-5.7812z"/>
</defs>
<g transform="translate(1472.3 821.18) scale(.1 -.1)">
<use xlink:href="#c"/>
<use x="63.623047" xlink:href="#e"/>
<use x="95.410156" xlink:href="#p"/>
<use x="159.033203" xlink:href="#ai"/>
</g>
</g>
<g clip-path="url(#a)">
<g transform="translate(1253.9 821.18) scale(.1 -.1)">
<use xlink:href="#c"/>
<use x="63.623047" xlink:href="#e"/>
<use x="95.410156" xlink:href="#p"/>
<use x="159.033203" xlink:href="#c"/>
</g>
</g>
<g clip-path="url(#a)">
<g transform="translate(1297.6 821.18) scale(.1 -.1)">
<use xlink:href="#c"/>
<use x="63.623047" xlink:href="#e"/>
<use x="95.410156" xlink:href="#p"/>
<use x="159.033203" xlink:href="#m"/>
</g>
</g>
<g clip-path="url(#a)">
<g transform="translate(598.52 821.18) scale(.1 -.1)">
<use xlink:href="#c"/>
<use x="63.623047" xlink:href="#e"/>
<use x="95.410156" xlink:href="#p"/>
<use x="159.033203" xlink:href="#p"/>
</g>
</g>
<g clip-path="url(#a)">
<g transform="translate(882.51 821.18) scale(.1 -.1)">
<use xlink:href="#c"/>
<use x="63.623047" xlink:href="#e"/>
<use x="95.410156" xlink:href="#p"/>
<use x="159.033203" xlink:href="#o"/>
</g>
</g>
<g clip-path="url(#a)">
<g transform="translate(685.9 821.18) scale(.1 -.1)">
<use xlink:href="#c"/>
<use x="63.623047" xlink:href="#e"/>
<use x="95.410156" xlink:href="#p"/>
<use x="159.033203" xlink:href="#n"/>
</g>
</g>
<g clip-path="url(#a)">
<g transform="translate(893.43 574.22) scale(.1 -.1)">
<use xlink:href="#c"/>
<use x="63.623047" xlink:href="#e"/>
<use x="95.410156" xlink:href="#p"/>
<use x="159.033203" xlink:href="#v"/>
</g>
</g>
<g clip-path="url(#a)">
<g transform="translate(729.59 821.18) scale(.1 -.1)">
<use xlink:href="#c"/>
<use x="63.623047" xlink:href="#e"/>
<use x="95.410156" xlink:href="#p"/>
<use x="159.033203" xlink:href="#aa"/>
</g>
</g>
<g clip-path="url(#a)">
<g transform="translate(795.13 698.55) scale(.1 -.1)">
<use xlink:href="#c"/>
<use x="63.623047" xlink:href="#e"/>
<use x="95.410156" xlink:href="#p"/>
<use x="159.033203" xlink:href="#ah"/>
</g>
</g>
<g clip-path="url(#a)">
<g transform="translate(926.2 698.55) scale(.1 -.1)">
<use xlink:href="#c"/>
<use x="63.623047" xlink:href="#e"/>
<use x="95.410156" xlink:href="#p"/>
<use x="159.033203" xlink:href="#ag"/>
</g>
</g>
<g clip-path="url(#a)">
<g transform="translate(991.74 821.18) scale(.1 -.1)">
<use xlink:href="#c"/>
<use x="63.623047" xlink:href="#e"/>
<use x="95.410156" xlink:href="#o"/>
<use x="159.033203" xlink:href="#ai"/>
</g>
</g>
<g clip-path="url(#a)">
<g transform="translate(1057.3 698.55) scale(.1 -.1)">
<use xlink:href="#c"/>
<use x="63.623047" xlink:href="#e"/>
<use x="95.410156" xlink:href="#o"/>
<use x="159.033203" xlink:href="#c"/>
</g>
</g>
<g clip-path="url(#a)">
<g transform="translate(117.92 821.18) scale(.1 -.1)">
<use xlink:href="#c"/>
<use x="63.623047" xlink:href="#e"/>
<use x="95.410156" xlink:href="#o"/>
<use x="159.033203" xlink:href="#m"/>
</g>
</g>
<g clip-path="url(#a)">
<g transform="translate(1035.4 821.18) scale(.1 -.1)">
<use xlink:href="#c"/>
<use x="63.623047" xlink:href="#e"/>
<use x="95.410156" xlink:href="#o"/>
<use x="159.033203" xlink:href="#p"/>
</g>
</g>
<g clip-path="url(#a)">
<g transform="translate(1079.1 821.18) scale(.1 -.1)">
<use xlink:href="#c"/>
<use x="63.623047" xlink:href="#e"/>
<use x="95.410156" xlink:href="#o"/>
<use x="159.033203" xlink:href="#o"/>
</g>
</g>
<g clip-path="url(#a)">
<g transform="translate(904.35 821.18) scale(.1 -.1)">
<use xlink:href="#c"/>
<use x="63.623047" xlink:href="#e"/>
<use x="95.410156" xlink:href="#o"/>
<use x="159.033203" xlink:href="#n"/>
</g>
</g>
<g clip-path="url(#a)">
<g transform="translate(948.05 821.18) scale(.1 -.1)">
<use xlink:href="#c"/>
<use x="63.623047" xlink:href="#e"/>
<use x="95.410156" xlink:href="#o"/>
<use x="159.033203" xlink:href="#v"/>
</g>
</g>
<g clip-path="url(#a)">
<g transform="translate(773.28 821.18) scale(.1 -.1)">
<use xlink:href="#c"/>
<use x="63.623047" xlink:href="#e"/>
<use x="95.410156" xlink:href="#o"/>
<use x="159.033203" xlink:href="#aa"/>
</g>
</g>
<g clip-path="url(#a)">
<g transform="translate(816.97 821.18) scale(.1 -.1)">
<use xlink:href="#c"/>
<use x="63.623047" xlink:href="#e"/>
<use x="95.410156" xlink:href="#o"/>
<use x="159.033203" xlink:href="#ah"/>
</g>
</g>
<g clip-path="url(#a)">
<defs>
<path id="t" d="m9.8125 72.906h9.8594v-72.906h-9.8594z"/>
<path id="am" d="m9.8125 72.906h14.703l18.594-49.609 18.703 49.609h14.703v-72.906h-9.625v64.016l-18.797-50h-9.9062l-18.797 50v-64.016h-9.5781z"/>
</defs>
<g transform="translate(1768.2 943.8) scale(.1 -.1)">
<use xlink:href="#t"/>
<use x="29.492188" xlink:href="#am"/>
<use x="115.771484" xlink:href="#y"/>
<use x="176.074219" xlink:href="#aj"/>
<use x="231.787109" xlink:href="#t"/>
<use x="261.279297" xlink:href="#r"/>
<use x="331.103516" xlink:href="#t"/>
<use x="360.595703" xlink:href="#j"/>
</g>
</g>
<g clip-path="url(#a)">
<g transform="translate(1724.5 943.8) scale(.1 -.1)">
<use xlink:href="#t"/>
<use x="29.492188" xlink:href="#am"/>
<use x="115.771484" xlink:href="#y"/>
<use x="176.074219" xlink:href="#aj"/>
<use x="231.787109" xlink:href="#t"/>
<use x="261.279297" xlink:href="#r"/>
<use x="331.103516" xlink:href="#t"/>
<use x="360.595703" xlink:href="#j"/>
</g>
</g>
<g clip-path="url(#a)">
<g transform="translate(1680.8 943.8) scale(.1 -.1)">
<use xlink:href="#t"/>
<use x="29.492188" xlink:href="#am"/>
<use x="115.771484" xlink:href="#y"/>
<use x="176.074219" xlink:href="#aj"/>
<use x="231.787109" xlink:href="#t"/>
<use x="261.279297" xlink:href="#r"/>
<use x="331.103516" xlink:href="#t"/>
<use x="360.595703" xlink:href="#j"/>
</g>
</g>
<g clip-path="url(#a)">
<g transform="translate(74.225 821.18) scale(.1 -.1)">
<use xlink:href="#c"/>
<use x="63.623047" xlink:href="#e"/>
<use x="95.410156" xlink:href="#n"/>
<use x="159.033203" xlink:href="#m"/>
</g>
</g>
<g clip-path="url(#a)">
<g transform="translate(161.61 821.18) scale(.1 -.1)">
<use xlink:href="#c"/>
<use x="63.623047" xlink:href="#e"/>
<use x="95.410156" xlink:href="#n"/>
<use x="159.033203" xlink:href="#p"/>
</g>
</g>
<g clip-path="url(#a)">
<g transform="translate(467.44 821.18) scale(.1 -.1)">
<use xlink:href="#c"/>
<use x="63.623047" xlink:href="#e"/>
<use x="95.410156" xlink:href="#n"/>
<use x="159.033203" xlink:href="#o"/>
</g>
</g>
<g clip-path="url(#a)">
<g transform="translate(511.14 821.18) scale(.1 -.1)">
<use xlink:href="#c"/>
<use x="63.623047" xlink:href="#e"/>
<use x="95.410156" xlink:href="#n"/>
<use x="159.033203" xlink:href="#n"/>
</g>
</g>
<g clip-path="url(#a)">
<g transform="translate(860.66 821.18) scale(.1 -.1)">
<use xlink:href="#c"/>
<use x="63.623047" xlink:href="#e"/>
<use x="95.410156" xlink:href="#n"/>
<use x="159.033203" xlink:href="#v"/>
</g>
</g>
<g clip-path="url(#a)">
<g transform="translate(1166.5 821.18) scale(.1 -.1)">
<use xlink:href="#c"/>
<use x="63.623047" xlink:href="#e"/>
<use x="95.410156" xlink:href="#n"/>
<use x="159.033203" xlink:href="#aa"/>
</g>
</g>
<g clip-path="url(#a)">
<g transform="translate(1385 821.18) scale(.1 -.1)">
<use xlink:href="#c"/>
<use x="63.623047" xlink:href="#e"/>
<use x="95.410156" xlink:href="#n"/>
<use x="159.033203" xlink:href="#ah"/>
</g>
</g>
<g clip-path="url(#a)">
<g transform="translate(1516 821.18) scale(.1 -.1)">
<use xlink:href="#c"/>
<use x="63.623047" xlink:href="#e"/>
<use x="95.410156" xlink:href="#n"/>
<use x="159.033203" xlink:href="#ag"/>
</g>
</g>
<g clip-path="url(#a)">
<g transform="translate(1559.7 821.18) scale(.1 -.1)">
<use xlink:href="#c"/>
<use x="63.623047" xlink:href="#e"/>
<use x="95.410156" xlink:href="#v"/>
<use x="159.033203" xlink:href="#ai"/>
</g>
</g>
<g clip-path="url(#a)">
<g transform="translate(1603.4 821.18) scale(.1 -.1)">
<use xlink:href="#c"/>
<use x="63.623047" xlink:href="#e"/>
<use x="95.410156" xlink:href="#v"/>
<use x="159.033203" xlink:href="#c"/>
</g>
</g>
<g clip-path="url(#a)">
<g transform="translate(1647.1 821.18) scale(.1 -.1)">
<use xlink:href="#c"/>
<use x="63.623047" xlink:href="#e"/>
<use x="95.410156" xlink:href="#v"/>
<use x="159.033203" xlink:href="#m"/>
</g>
</g>
<defs>
<clipPath id="a">
<rect width="1874.7" height="986.67"/>
</clipPath>
</defs>
</svg>
