<?xml version="1.0" encoding="UTF-8"?>
<!DOCTYPE svg  PUBLIC '-//W3C//DTD SVG 1.1//EN'  'http://www.w3.org/Graphics/SVG/1.1/DTD/svg11.dtd'>
<svg width="1418.7pt" height="746.67pt" version="1.1" viewBox="0 0 1418.7 746.67" xmlns="http://www.w3.org/2000/svg" xmlns:xlink="http://www.w3.org/1999/xlink">
<defs>
<style type="text/css">*{stroke-linecap:butt;stroke-linejoin:round;}</style>
</defs>
<path d="m0 746.67h1418.7v-746.67h-1418.7z" fill="#fff"/>
<g fill="none" stroke="#000">
<path d="m203.29 33.939-138.8 567.67" clip-path="url(#a)"/>
<path d="m203.29 33.939-82.577 341.74" clip-path="url(#a)"/>
<path d="m203.29 33.939 70.559 114.16" clip-path="url(#a)"/>
<path d="m203.29 33.939 16.439 567.67" clip-path="url(#a)"/>
<path d="m203.29 33.939 49.278 567.67" clip-path="url(#a)"/>
<path d="m203.29 33.939 85.103 567.67" clip-path="url(#a)"/>
<path d="m64.485 601.6v111.12" clip-path="url(#a)"/>
<path d="m120.71 375.68 69.162 225.93" clip-path="url(#a)" stroke-dasharray="3.7,1.6"/>
<path d="m120.71 375.68-33.835 113.26" clip-path="url(#a)"/>
<path d="m120.71 375.68-35.327 225.93" clip-path="url(#a)"/>
<path d="m273.85 148.1-155.62 453.5" clip-path="url(#a)"/>
<path d="m273.85 148.1-109.85 340.84" clip-path="url(#a)"/>
<path d="m273.85 148.1 265.47 113.93" clip-path="url(#a)"/>
<path d="m118.22 601.6v111.12" clip-path="url(#a)"/>
<path d="m164 488.94-24.878 112.67" clip-path="url(#a)"/>
<path d="m164 488.94-0.99514 112.67" clip-path="url(#a)"/>
<path d="m164 488.94 25.874 112.67" clip-path="url(#a)"/>
<path d="m539.32 262.03-161.37 113.64" clip-path="url(#a)"/>
<path d="m539.32 262.03 188.39 113.64" clip-path="url(#a)"/>
<path d="m539.32 262.03-27.023 339.57" clip-path="url(#a)"/>
<path d="m377.95 375.68-50.752 225.93" clip-path="url(#a)"/>
<path d="m377.95 375.68-8.9562 225.93" clip-path="url(#a)"/>
<path d="m377.95 375.68 59.708 113.26" clip-path="url(#a)"/>
<path d="m727.71 375.68-161.68 225.93" clip-path="url(#a)"/>
<path d="m727.71 375.68-104.95 225.93" clip-path="url(#a)"/>
<path d="m727.71 375.68-45.246 225.93" clip-path="url(#a)"/>
<path d="m727.71 375.68 294.43 113.26" clip-path="url(#a)"/>
<path d="m727.71 375.68 17.448 225.93" clip-path="url(#a)"/>
<path d="m566.03 601.6v111.12" clip-path="url(#a)"/>
<path d="m622.76 601.6v111.12" clip-path="url(#a)"/>
<path d="m682.46 601.6v111.12" clip-path="url(#a)"/>
<path d="m1022.1 488.94-399.38 112.67" clip-path="url(#a)" stroke-dasharray="3.7,1.6"/>
<path d="m1022.1 488.94-211.3 112.67" clip-path="url(#a)"/>
<path d="m1022.1 488.94-142.64 112.67" clip-path="url(#a)"/>
<path d="m1022.1 488.94-70.986 112.67" clip-path="url(#a)"/>
<path d="m1022.1 488.94 3.6488 112.67" clip-path="url(#a)"/>
<path d="m1022.1 488.94 81.269 112.67" clip-path="url(#a)"/>
<path d="m1022.1 488.94 161.88 112.67" clip-path="url(#a)"/>
<path d="m1022.1 488.94 245.47 112.67" clip-path="url(#a)"/>
<path d="m1022.1 488.94 332.04 112.67" clip-path="url(#a)"/>
<path d="m810.84 601.6v111.12" clip-path="url(#a)"/>
<path d="m879.5 601.6v111.12" clip-path="url(#a)"/>
<path d="m951.15 601.6v111.12" clip-path="url(#a)"/>
<path d="m1025.8 601.6v111.12" clip-path="url(#a)"/>
<path d="m1103.4 601.6v111.12" clip-path="url(#a)"/>
<path d="m1184 601.6v111.12" clip-path="url(#a)"/>
<path d="m327.2 601.6v111.12" clip-path="url(#a)"/>
<path d="m369 601.6v111.12" clip-path="url(#a)"/>
<path d="m437.66 488.94-23.883 112.67" clip-path="url(#a)"/>
<path d="m437.66 488.94 23.883 112.67" clip-path="url(#a)"/>
<path d="m413.78 601.6v111.12" clip-path="url(#a)"/>
<path d="m461.54 601.6v111.12" clip-path="url(#a)"/>
<path d="m139.12 601.6v111.12" clip-path="url(#a)"/>
<path d="m163 601.6v111.12" clip-path="url(#a)"/>
<path d="m189.87 601.6v111.12" clip-path="url(#a)"/>
<path d="m86.875 488.94-13.434 112.67" clip-path="url(#a)"/>
<path d="m86.875 488.94 13.434 112.67" clip-path="url(#a)"/>
<path d="m85.383 601.6v111.12" clip-path="url(#a)"/>
<path d="m73.441 601.6v111.12" clip-path="url(#a)"/>
<path d="m100.31 601.6v111.12" clip-path="url(#a)"/>
<path d="m219.73 601.6v111.12" clip-path="url(#a)"/>
<path d="m252.57 601.6v111.12" clip-path="url(#a)"/>
<path d="m288.39 601.6v111.12" clip-path="url(#a)"/>
<path d="m512.3 601.6v111.12" clip-path="url(#a)"/>
<path d="m745.16 601.6v111.12" clip-path="url(#a)"/>
<path d="m1267.6 601.6v111.12" clip-path="url(#a)"/>
<path d="m1354.2 601.6v111.12" clip-path="url(#a)"/>
</g>
<path d="m139.45 321.43 1.0587-4.3299q0.57004-2.3313-1.7613-2.9014l-7.5209-1.839q-2.3313-0.57004-2.9014 1.7613l-1.0587 4.3299q-0.57004 2.3313 1.7613 2.9014l7.5209 1.839q2.3313 0.57004 2.9014-1.7613z" clip-path="url(#a)" fill="#fff" stroke="#fff"/>
<g clip-path="url(#a)">
<defs>
<path id="aq" d="m9.8125 72.906h9.8594v-64.609h35.5v-8.2969h-45.359z"/>
</defs>
<g transform="translate(135.5 320.46) rotate(-76.26) scale(.08 -.08)">
<use xlink:href="#aq"/>
</g>
</g>
<path d="m167.39 209.21 1.4131-5.8479q0.56371-2.3329-1.7692-2.8966l-7.5259-1.8186q-2.3329-0.56371-2.8966 1.7692l-1.4131 5.8479q-0.56371 2.3329 1.7692 2.8966l7.5259 1.8186q2.3329 0.56371 2.8966-1.7691z" clip-path="url(#a)" fill="#fff" stroke="#fff"/>
<g clip-path="url(#a)">
<defs>
<path id="y" d="m9.8125 72.906h9.8594v-29.891h35.844v29.891h9.8594v-72.906h-9.8594v34.719h-35.844v-34.719h-9.8594z"/>
</defs>
<g transform="translate(163.44 208.25) rotate(-76.416) scale(.08 -.08)">
<use xlink:href="#y"/>
</g>
</g>
<path d="m231.65 91.759 3.163 5.1177q1.2618 2.0415 3.3033 0.77973l6.5861-4.0706q2.0415-1.2618 0.77973-3.3033l-3.163-5.1177q-1.2618-2.0415-3.3033-0.77973l-6.5861 4.0706q-2.0415 1.2618-0.77973 3.3033z" clip-path="url(#a)" fill="#fff" stroke="#fff"/>
<g clip-path="url(#a)">
<g transform="translate(235.11 89.622) rotate(58.281) scale(.08 -.08)">
<use xlink:href="#y"/>
</g>
</g>
<path d="m205.15 315.03 0.16948 5.8525q0.069472 2.399 2.4685 2.3295l7.7393-0.22412q2.399-0.069472 2.3295-2.4685l-0.16948-5.8525q-0.069472-2.399-2.4685-2.3295l-7.7393 0.22412q-2.399 0.069471-2.3295 2.4685z" clip-path="url(#a)" fill="#fff" stroke="#fff"/>
<g clip-path="url(#a)">
<defs>
<path id="q" d="m8.6875 72.906h9.9219v-44.297q0-11.719 4.2344-16.875 4.25-5.1406 13.781-5.1406 9.4688 0 13.719 5.1406 4.25 5.1562 4.25 16.875v44.297h9.9062v-45.516q0-14.25-7.0625-21.531-7.0469-7.2812-20.812-7.2812-13.828 0-20.891 7.2812-7.0469 7.2812-7.0469 21.531z"/>
</defs>
<g transform="translate(209.22 314.91) rotate(88.341) scale(.08 -.08)">
<use xlink:href="#q"/>
</g>
</g>
<path d="m221.43 315.4 0.50636 5.8331q0.20756 2.391 2.5986 2.1834l7.7135-0.6696q2.391-0.20756 2.1834-2.5986l-0.50636-5.8331q-0.20756-2.391-2.5986-2.1834l-7.7135 0.6696q-2.391 0.20756-2.1834 2.5986z" clip-path="url(#a)" fill="#fff" stroke="#fff"/>
<g clip-path="url(#a)">
<g transform="translate(225.47 315.05) rotate(85.039) scale(.08 -.08)">
<use xlink:href="#q"/>
</g>
</g>
<path d="m239.2 315.81 0.86807 5.7903q0.35583 2.3735 2.7293 2.0176l7.6569-1.1479q2.3735-0.35583 2.0176-2.7293l-0.86807-5.7903q-0.35583-2.3735-2.7293-2.0176l-7.6569 1.1479q-2.3735 0.35583-2.0176 2.7293z" clip-path="url(#a)" fill="#fff" stroke="#fff"/>
<g clip-path="url(#a)">
<g transform="translate(243.22 315.2) rotate(81.474) scale(.08 -.08)">
<use xlink:href="#q"/>
</g>
</g>
<path d="m58.214 640.26v33.808q0 2.4 2.4 2.4h7.7425q2.4 0 2.4-2.4v-33.808q0-2.4-2.4-2.4h-7.7425q-2.4 0-2.4 2.4z" clip-path="url(#a)" fill="#fff" stroke="#fff"/>
<g clip-path="url(#a)">
<defs>
<path id="l" d="m-0.29688 72.906h61.672v-8.3125h-25.875v-64.594h-9.9062v64.594h-25.891z"/>
<path id="d" d="m56.203 29.594v-4.3906h-41.312q0.59375-9.2812 5.5938-14.141t13.938-4.8594q5.1719 0 10.031 1.2656t9.6562 3.8125v-8.5q-4.8438-2.0469-9.9219-3.125t-10.297-1.0781q-13.094 0-20.734 7.6094-7.6406 7.625-7.6406 20.625 0 13.422 7.25 21.297 7.25 7.8906 19.562 7.8906 11.031 0 17.453-7.1094 6.4219-7.0938 6.4219-19.297zm-8.9844 2.6406q-0.09375 7.3594-4.125 11.75-4.0312 4.4062-10.672 4.4062-7.5156 0-12.031-4.25t-5.2031-11.969z"/>
<path id="i" d="m41.109 46.297q-1.5156 0.875-3.2969 1.2812-1.7812 0.42188-3.9219 0.42188-7.625 0-11.703-4.9531t-4.0781-14.234v-28.812h-9.0312v54.688h9.0312v-8.5q2.8438 4.9844 7.375 7.3906 4.5469 2.4219 11.047 2.4219 0.92188 0 2.0469-0.125 1.125-0.10938 2.4844-0.35938z"/>
<path id="k" d="m52 44.188q3.375 6.0625 8.0625 8.9375t11.031 2.875q8.5469 0 13.188-5.9844 4.6406-5.9688 4.6406-17v-33.016h-9.0312v32.719q0 7.8594-2.7969 11.656-2.7812 3.8125-8.4844 3.8125-6.9844 0-11.047-4.6406-4.0469-4.625-4.0469-12.641v-30.906h-9.0312v32.719q0 7.9062-2.7812 11.688t-8.5938 3.7812q-6.8906 0-10.953-4.6562-4.0469-4.6562-4.0469-12.625v-30.906h-9.0312v54.688h9.0312v-8.5q3.0781 5.0312 7.375 7.4219t10.203 2.3906q5.9688 0 10.141-3.0312 4.1719-3.0156 6.1719-8.7812z"/>
<path id="f" d="m9.4219 54.688h8.9844v-54.688h-8.9844zm0 21.297h8.9844v-11.391h-8.9844z"/>
<path id="g" d="m54.891 33.016v-33.016h-8.9844v32.719q0 7.7656-3.0312 11.609-3.0312 3.8594-9.0781 3.8594-7.2812 0-11.484-4.6406-4.2031-4.625-4.2031-12.641v-30.906h-9.0312v54.688h9.0312v-8.5q3.2344 4.9375 7.5938 7.375 4.375 2.4375 10.094 2.4375 9.4219 0 14.25-5.8281 4.8438-5.8281 4.8438-17.156z"/>
<path id="h" d="m34.281 27.484q-10.891 0-15.094-2.4844t-4.2031-8.5q0-4.7812 3.1562-7.5938 3.1562-2.7969 8.5625-2.7969 7.4844 0 12 5.2969t4.5156 14.078v2zm17.922 3.7188v-31.203h-8.9844v8.2969q-3.0781-4.9688-7.6719-7.3438t-11.234-2.375q-8.3906 0-13.359 4.7188-4.9531 4.7188-4.9531 12.625 0 9.2188 6.1719 13.906 6.1875 4.6875 18.438 4.6875h12.609v0.89062q0 6.2031-4.0781 9.5938t-11.453 3.3906q-4.6875 0-9.1406-1.125-4.4375-1.125-8.5312-3.375v8.3125q4.9219 1.9062 9.5625 2.8438 4.6406 0.95312 9.0312 0.95312 11.875 0 17.734-6.1562 5.8594-6.1406 5.8594-18.641z"/>
<path id="j" d="m9.4219 75.984h8.9844v-75.984h-8.9844z"/>
</defs>
<g transform="translate(62.277 640.26) rotate(90) scale(.08 -.08)">
<use xlink:href="#l"/>
<use x="44.083984" xlink:href="#d"/>
<use x="105.607422" xlink:href="#i"/>
<use x="144.970703" xlink:href="#k"/>
<use x="242.382812" xlink:href="#f"/>
<use x="270.166016" xlink:href="#g"/>
<use x="333.544922" xlink:href="#h"/>
<use x="394.824219" xlink:href="#j"/>
</g>
</g>
<path d="m148.49 487.86 1.6019 5.2328q0.70252 2.2949 2.9974 1.5924l7.4034-2.2664q2.2949-0.70252 1.5924-2.9974l-1.6019-5.2328q-0.70252-2.2949-2.9974-1.5924l-7.4034 2.2664q-2.2949 0.70252-1.5924 2.9974z" clip-path="url(#a)" fill="#fff" stroke="#fff"/>
<g clip-path="url(#a)">
<defs>
<path id="p" d="m34.188 63.188-13.391-36.281h26.812zm-5.5781 9.7188h11.188l27.781-72.906h-10.25l-6.6406 18.703h-32.859l-6.6406-18.703h-10.406z"/>
</defs>
<g transform="translate(152.38 486.67) rotate(72.979) scale(.08 -.08)">
<use xlink:href="#p"/>
</g>
</g>
<path d="m109.07 436.54 1.4537-4.8662q0.68697-2.2996-1.6126-2.9866l-7.4185-2.2162q-2.2996-0.68697-2.9866 1.6126l-1.4537 4.8662q-0.68697 2.2996 1.6126 2.9866l7.4185 2.2162q2.2996 0.68697 2.9866-1.6126z" clip-path="url(#a)" fill="#fff" stroke="#fff"/>
<g clip-path="url(#a)">
<defs>
<path id="x" d="m53.516 70.516v-9.625q-5.6094 2.6875-10.594 4-4.9844 1.3281-9.625 1.3281-8.0469 0-12.422-3.125t-4.375-8.8906q0-4.8438 2.9062-7.3125 2.9062-2.4531 11.016-3.9688l5.9531-1.2188q11.031-2.1094 16.281-7.4062t5.25-14.172q0-10.609-7.1094-16.078-7.0938-5.4688-20.812-5.4688-5.1719 0-11.016 1.1719-5.8281 1.1719-12.078 3.4688v10.156q6-3.3594 11.766-5.0781 5.7656-1.7031 11.328-1.7031 8.4375 0 13.031 3.3125 4.5938 3.3281 4.5938 9.4844 0 5.3594-3.2969 8.3906t-10.812 4.5469l-6.0156 1.1719q-11.031 2.1875-15.969 6.875-4.9219 4.6875-4.9219 13.047 0 9.6719 6.8125 15.234t18.766 5.5625q5.1406 0 10.453-0.9375 5.3281-0.92188 10.891-2.7656z"/>
</defs>
<g transform="translate(105.18 435.37) rotate(-73.367) scale(.08 -.08)">
<use xlink:href="#x"/>
</g>
</g>
<path d="m108.77 492.65 0.95165-6.086q0.37077-2.3712-2.0004-2.742l-7.6495-1.1961q-2.3712-0.37077-2.742 2.0004l-0.95165 6.086q-0.37077 2.3712 2.0004 2.742l7.6495 1.1961q2.3712 0.37077 2.742-2.0004z" clip-path="url(#a)" fill="#fff" stroke="#fff"/>
<g clip-path="url(#a)">
<defs>
<path id="v" d="m19.672 64.797v-56.688h11.922q15.094 0 22.094 6.8281 7 6.8438 7 21.594 0 14.641-7 21.453t-22.094 6.8125zm-9.8594 8.1094h20.266q21.188 0 31.094-8.8125 9.9219-8.8125 9.9219-27.562 0-18.859-9.9688-27.703-9.9531-8.8281-31.047-8.8281h-20.266z"/>
</defs>
<g transform="translate(104.75 492.03) rotate(-81.113) scale(.08 -.08)">
<use xlink:href="#v"/>
</g>
</g>
<path d="m201.18 379.17 1.5657-4.5626q0.779-2.2701-1.4911-3.0491l-7.3233-2.5131q-2.2701-0.779-3.0491 1.4911l-1.5657 4.5626q-0.779 2.2701 1.4911 3.0491l7.3233 2.5131q2.2701 0.779 3.0491-1.4911z" clip-path="url(#a)" fill="#fff" stroke="#fff"/>
<g clip-path="url(#a)">
<defs>
<path id="ab" d="m19.672 64.797v-27.391h12.406q6.8906 0 10.641 3.5625 3.7656 3.5625 3.7656 10.156 0 6.5469-3.7656 10.109-3.75 3.5625-10.641 3.5625zm-9.8594 8.1094h22.266q12.266 0 18.531-5.5469 6.2812-5.5469 6.2812-16.234 0-10.797-6.2812-16.312-6.2656-5.5156-18.531-5.5156h-12.406v-29.297h-9.8594z"/>
</defs>
<g transform="translate(197.34 377.85) rotate(-71.06) scale(.08 -.08)">
<use xlink:href="#ab"/>
</g>
</g>
<path d="m224.05 323.05 1.6787-5.2087q0.73621-2.2843-1.5481-3.0205l-7.3692-2.375q-2.2843-0.73621-3.0205 1.5481l-1.6787 5.2087q-0.73621 2.2843 1.5481 3.0205l7.3692 2.375q2.2843 0.73621 3.0205-1.5481z" clip-path="url(#a)" fill="#fff" stroke="#fff"/>
<g clip-path="url(#a)">
<g transform="translate(220.18 321.8) rotate(-72.136) scale(.08 -.08)">
<use xlink:href="#p"/>
</g>
</g>
<path d="m401.6 209.75 5.0289 2.1583q2.2055 0.94652 3.152-1.259l3.0535-7.1149q0.94652-2.2055-1.259-3.152l-5.0289-2.1583q-2.2055-0.94652-3.152 1.259l-3.0535 7.1149q-0.94652 2.2055 1.259 3.152z" clip-path="url(#a)" fill="#fff" stroke="#fff"/>
<g clip-path="url(#a)">
<g transform="translate(403.2 206.02) rotate(23.227) scale(.08 -.08)">
<use xlink:href="#p"/>
</g>
</g>
<path d="m111.95 640.26v33.808q0 2.4 2.4 2.4h7.7425q2.4 0 2.4-2.4v-33.808q0-2.4-2.4-2.4h-7.7425q-2.4 0-2.4 2.4z" clip-path="url(#a)" fill="#fff" stroke="#fff"/>
<g clip-path="url(#a)">
<g transform="translate(116.01 640.26) rotate(90) scale(.08 -.08)">
<use xlink:href="#l"/>
<use x="44.083984" xlink:href="#d"/>
<use x="105.607422" xlink:href="#i"/>
<use x="144.970703" xlink:href="#k"/>
<use x="242.382812" xlink:href="#f"/>
<use x="270.166016" xlink:href="#g"/>
<use x="333.544922" xlink:href="#h"/>
<use x="394.824219" xlink:href="#j"/>
</g>
</g>
<path d="m157.19 548.87 0.99211-4.493q0.51748-2.3435-1.8261-2.861l-7.5604-1.6694q-2.3435-0.51748-2.861 1.8261l-0.99211 4.493q-0.51748 2.3435 1.8261 2.861l7.5604 1.6694q2.3435 0.51748 2.861-1.8261z" clip-path="url(#a)" fill="#fff" stroke="#fff"/>
<g clip-path="url(#a)">
<defs>
<path id="z" d="m9.8125 72.906h41.891v-8.3125h-32.031v-21.484h28.906v-8.2969h-28.906v-34.812h-9.8594z"/>
</defs>
<g transform="translate(153.22 547.99) rotate(-77.548) scale(.08 -.08)">
<use xlink:href="#z"/>
</g>
</g>
<path d="m169.75 547.85 0.044646-5.0548q0.021197-2.3999-2.3787-2.4211l-7.7422-0.068382q-2.3999-0.021197-2.4211 2.3787l-0.044646 5.0548q-0.021197 2.3999 2.3787 2.4211l7.7422 0.068383q2.3999 0.021197 2.4211-2.3787z" clip-path="url(#a)" fill="#fff" stroke="#fff"/>
<g clip-path="url(#a)">
<defs>
<path id="al" d="m9.8125 72.906h46.094v-8.3125h-36.234v-21.578h34.719v-8.2969h-34.719v-26.422h37.109v-8.2969h-46.969z"/>
</defs>
<g transform="translate(165.69 547.82) rotate(-89.494) scale(.08 -.08)">
<use xlink:href="#al"/>
</g>
</g>
<path d="m170.2 543.95 1.2503 5.4445q0.53716 2.3391 2.8763 1.802l7.5461-1.7329q2.3391-0.53716 1.802-2.8763l-1.2503-5.4445q-0.53716-2.3391-2.8763-1.802l-7.5461 1.7329q-2.3391 0.53716-1.802 2.8763z" clip-path="url(#a)" fill="#fff" stroke="#fff"/>
<g clip-path="url(#a)">
<defs>
<path id="ac" d="m64.406 67.281v-10.391q-4.9844 4.6406-10.625 6.9219-5.6406 2.2969-11.984 2.2969-12.5 0-19.141-7.6406t-6.6406-22.094q0-14.406 6.6406-22.047t19.141-7.6406q6.3438 0 11.984 2.2969t10.625 6.9375v-10.312q-5.1719-3.5156-10.969-5.2812-5.7812-1.75-12.219-1.75-16.562 0-26.094 10.125-9.5156 10.141-9.5156 27.672 0 17.578 9.5156 27.703 9.5312 10.141 26.094 10.141 6.5312 0 12.312-1.7344 5.7969-1.7344 10.875-5.2031z"/>
</defs>
<g transform="translate(174.16 543.04) rotate(77.067) scale(.08 -.08)">
<use xlink:href="#ac"/>
</g>
</g>
<path d="m459.79 325.71 4.9188-3.4641q1.9622-1.3819 0.5803-3.3441l-4.4581-6.3302q-1.3819-1.9622-3.3441-0.5803l-4.9188 3.4641q-1.9622 1.3819-0.5803 3.3441l4.4581 6.3302q1.3819 1.9622 3.3441 0.5803z" clip-path="url(#a)" fill="#fff" stroke="#fff"/>
<g clip-path="url(#a)">
<g transform="translate(457.45 322.39) rotate(-35.156) scale(.08 -.08)">
<use xlink:href="#y"/>
</g>
</g>
<path d="m627.7 322.67 5.1515 3.1076q2.055 1.2397 3.2947-0.81536l3.9993-6.6296q1.2397-2.055-0.81536-3.2947l-5.1515-3.1076q-2.055-1.2397-3.2947 0.81536l-3.9993 6.6296q-1.2397 2.055 0.81536 3.2947z" clip-path="url(#a)" fill="#fff" stroke="#fff"/>
<g clip-path="url(#a)">
<g transform="translate(629.8 319.19) rotate(31.1) scale(.08 -.08)">
<use xlink:href="#y"/>
</g>
</g>
<path d="m531.83 435.23 0.46448-5.8365q0.19039-2.3924-2.202-2.5828l-7.7181-0.61422q-2.3924-0.19039-2.5828 2.202l-0.46448 5.8365q-0.19039 2.3924 2.202 2.5828l7.7181 0.61421q2.3924 0.19039 2.5828-2.202z" clip-path="url(#a)" fill="#fff" stroke="#fff"/>
<g clip-path="url(#a)">
<g transform="translate(527.78 434.91) rotate(-85.45) scale(.08 -.08)">
<use xlink:href="#q"/>
</g>
</g>
<path d="m358.1 492.69 1.1994-5.3394q0.52602-2.3416-1.8156-2.8677l-7.5542-1.697q-2.3416-0.52602-2.8677 1.8156l-1.1994 5.3394q-0.52602 2.3416 1.8156 2.8677l7.5542 1.697q2.3416 0.52602 2.8677-1.8156z" clip-path="url(#a)" fill="#fff" stroke="#fff"/>
<g clip-path="url(#a)">
<g transform="translate(354.13 491.79) rotate(-77.339) scale(.08 -.08)">
<use xlink:href="#p"/>
</g>
</g>
<path d="m379.64 491.43 0.20117-5.0748q0.095066-2.3981-2.303-2.4932l-7.7364-0.30669q-2.3981-0.095066-2.4932 2.303l-0.20117 5.0748q-0.095066 2.3981 2.303 2.4932l7.7364 0.30669q2.3981 0.095066 2.4932-2.303z" clip-path="url(#a)" fill="#fff" stroke="#fff"/>
<g clip-path="url(#a)">
<g transform="translate(375.58 491.27) rotate(-87.73) scale(.08 -.08)">
<use xlink:href="#x"/>
</g>
</g>
<path d="m400.98 432.81 2.5521 4.841q1.1192 2.123 3.2423 1.0038l6.849-3.6107q2.123-1.1192 1.0038-3.2423l-2.5521-4.841q-1.1192-2.123-3.2423-1.0038l-6.849 3.6107q-2.123 1.1192-1.0038 3.2423z" clip-path="url(#a)" fill="#fff" stroke="#fff"/>
<g clip-path="url(#a)">
<g transform="translate(404.58 430.92) rotate(62.203) scale(.08 -.08)">
<use xlink:href="#p"/>
</g>
</g>
<path d="m650.63 494.16 2.6777-3.7418q1.3967-1.9517-0.55505-3.3484l-6.2964-4.5058q-1.9517-1.3967-3.3484 0.55505l-2.6777 3.7418q-1.3967 1.9517 0.55505 3.3484l6.2964 4.5058q1.9517 1.3967 3.3484-0.55505z" clip-path="url(#a)" fill="#fff" stroke="#fff"/>
<g clip-path="url(#a)">
<g transform="translate(647.33 491.8) rotate(-54.412) scale(.08 -.08)">
<use xlink:href="#z"/>
</g>
</g>
<path d="m679.77 493.76 2.3056-4.9631q1.0111-2.1766-1.1655-3.1877l-7.0218-3.262q-2.1766-1.0111-3.1877 1.1655l-2.3056 4.9631q-1.0111 2.1766 1.1655 3.1877l7.0218 3.262q2.1766 1.0111 3.1877-1.1655z" clip-path="url(#a)" fill="#fff" stroke="#fff"/>
<g clip-path="url(#a)">
<g transform="translate(676.08 492.05) rotate(-65.083) scale(.08 -.08)">
<use xlink:href="#p"/>
</g>
</g>
<path d="m710.74 492.36 0.9973-4.9799q0.47128-2.3533-1.882-2.8246l-7.5918-1.5204q-2.3533-0.47128-2.8246 1.882l-0.9973 4.9799q-0.47128 2.3533 1.882 2.8246l7.5918 1.5204q2.3533 0.47128 2.8246-1.882z" clip-path="url(#a)" fill="#fff" stroke="#fff"/>
<g clip-path="url(#a)">
<g transform="translate(706.75 491.56) rotate(-78.675) scale(.08 -.08)">
<use xlink:href="#x"/>
</g>
</g>
<path d="m870.12 437.18 5.1076 1.9648q2.24 0.86167 3.1017-1.3783l2.7798-7.2263q0.86167-2.24-1.3783-3.1017l-5.1076-1.9648q-2.24-0.86167-3.1017 1.3783l-2.7798 7.2263q-0.86167 2.24 1.3783 3.1017z" clip-path="url(#a)" fill="#fff" stroke="#fff"/>
<g clip-path="url(#a)">
<g transform="translate(871.58 433.39) rotate(21.041) scale(.08 -.08)">
<use xlink:href="#p"/>
</g>
</g>
<path d="m729.96 486.21 0.45083 5.8376q0.1848 2.3929 2.5777 2.2081l7.7195-0.59617q2.3929-0.1848 2.2081-2.5777l-0.45083-5.8376q-0.1848-2.3929-2.5777-2.2081l-7.7195 0.59617q-2.3929 0.1848-2.2081 2.5777z" clip-path="url(#a)" fill="#fff" stroke="#fff"/>
<g clip-path="url(#a)">
<g transform="translate(734.01 485.89) rotate(85.584) scale(.08 -.08)">
<use xlink:href="#q"/>
</g>
</g>
<path d="m559.76 640.26v33.808q0 2.4 2.4 2.4h7.7425q2.4 0 2.4-2.4v-33.808q0-2.4-2.4-2.4h-7.7425q-2.4 0-2.4 2.4z" clip-path="url(#a)" fill="#fff" stroke="#fff"/>
<g clip-path="url(#a)">
<g transform="translate(563.83 640.26) rotate(90) scale(.08 -.08)">
<use xlink:href="#l"/>
<use x="44.083984" xlink:href="#d"/>
<use x="105.607422" xlink:href="#i"/>
<use x="144.970703" xlink:href="#k"/>
<use x="242.382812" xlink:href="#f"/>
<use x="270.166016" xlink:href="#g"/>
<use x="333.544922" xlink:href="#h"/>
<use x="394.824219" xlink:href="#j"/>
</g>
</g>
<path d="m616.49 640.26v33.808q0 2.4 2.4 2.4h7.7425q2.4 0 2.4-2.4v-33.808q0-2.4-2.4-2.4h-7.7425q-2.4 0-2.4 2.4z" clip-path="url(#a)" fill="#fff" stroke="#fff"/>
<g clip-path="url(#a)">
<g transform="translate(620.55 640.26) rotate(90) scale(.08 -.08)">
<use xlink:href="#l"/>
<use x="44.083984" xlink:href="#d"/>
<use x="105.607422" xlink:href="#i"/>
<use x="144.970703" xlink:href="#k"/>
<use x="242.382812" xlink:href="#f"/>
<use x="270.166016" xlink:href="#g"/>
<use x="333.544922" xlink:href="#h"/>
<use x="394.824219" xlink:href="#j"/>
</g>
</g>
<path d="m676.19 640.26v33.808q0 2.4 2.4 2.4h7.7425q2.4 0 2.4-2.4v-33.808q0-2.4-2.4-2.4h-7.7425q-2.4 0-2.4 2.4z" clip-path="url(#a)" fill="#fff" stroke="#fff"/>
<g clip-path="url(#a)">
<g transform="translate(680.26 640.26) rotate(90) scale(.08 -.08)">
<use xlink:href="#l"/>
<use x="44.083984" xlink:href="#d"/>
<use x="105.607422" xlink:href="#i"/>
<use x="144.970703" xlink:href="#k"/>
<use x="242.382812" xlink:href="#f"/>
<use x="270.166016" xlink:href="#g"/>
<use x="333.544922" xlink:href="#h"/>
<use x="394.824219" xlink:href="#j"/>
</g>
</g>
<path d="m821.52 552.05 5.2669-1.4858q2.3098-0.65162 1.6582-2.9615l-2.1022-7.4517q-0.65162-2.3098-2.9615-1.6582l-5.2669 1.4858q-2.3098 0.65162-1.6582 2.9615l2.1022 7.4517q0.65162 2.3098 2.9615 1.6582z" clip-path="url(#a)" fill="#fff" stroke="#fff"/>
<g clip-path="url(#a)">
<g transform="translate(820.41 548.14) rotate(-15.754) scale(.08 -.08)">
<use xlink:href="#p"/>
</g>
</g>
<path d="m917.02 552.09 4.8289-2.5748q2.1178-1.1292 0.98854-3.247l-3.6429-6.832q-1.1292-2.1178-3.247-0.98854l-4.8289 2.5748q-2.1178 1.1292-0.98854 3.247l3.6429 6.832q1.1292 2.1178 3.247 0.98854z" clip-path="url(#a)" fill="#fff" stroke="#fff"/>
<g clip-path="url(#a)">
<g transform="translate(915.11 548.51) rotate(-28.067) scale(.08 -.08)">
<use xlink:href="#p"/>
</g>
</g>
<path d="m952.29 552.1 4.8339-3.8183q1.8833-1.4876 0.39569-3.371l-4.7992-6.0757q-1.4876-1.8833-3.371-0.39569l-4.8339 3.8183q-1.8833 1.4876-0.39569 3.371l4.7992 6.0757q1.4876 1.8833 3.371 0.39569z" clip-path="url(#a)" fill="#fff" stroke="#fff"/>
<g clip-path="url(#a)">
<g transform="translate(949.77 548.91) rotate(-38.305) scale(.08 -.08)">
<use xlink:href="#v"/>
</g>
</g>
<path d="m990.31 551.22 3.2837-5.2118q1.2794-2.0306-0.75122-3.3099l-6.5507-4.1273q-2.0306-1.2794-3.3099 0.75121l-3.2837 5.2118q-1.2794 2.0306 0.75121 3.3099l6.5507 4.1273q2.0306 1.2794 3.3099-0.75122z" clip-path="url(#a)" fill="#fff" stroke="#fff"/>
<g clip-path="url(#a)">
<g transform="translate(986.87 549.05) rotate(-57.787) scale(.08 -.08)">
<use xlink:href="#v"/>
</g>
</g>
<path d="m1017.6 543.06 0.15614 4.8212q0.077685 2.3987 2.4764 2.3211l7.7384-0.25062q2.3987-0.077685 2.3211-2.4764l-0.15614-4.8212q-0.077685-2.3987-2.4764-2.3211l-7.7384 0.25062q-2.3987 0.077685-2.3211 2.4764z" clip-path="url(#a)" fill="#fff" stroke="#fff"/>
<g clip-path="url(#a)">
<g transform="translate(1021.7 542.93) rotate(88.145) scale(.08 -.08)">
<use xlink:href="#ab"/>
</g>
</g>
<path d="m1056.3 547.07 2.6918 3.7317q1.404 1.9465 3.3505 0.54245l6.2794-4.5294q1.9465-1.404 0.54245-3.3505l-2.6918-3.7317q-1.404-1.9465-3.3505-0.54245l-6.2794 4.5294q-1.9465 1.404-0.54245 3.3505z" clip-path="url(#a)" fill="#fff" stroke="#fff"/>
<g clip-path="url(#a)">
<g transform="translate(1059.6 544.7) rotate(54.196) scale(.08 -.08)">
<use xlink:href="#z"/>
</g>
</g>
<path d="m1097 548.66 5.0559 3.519q1.9698 1.371 3.3409-0.5988l4.423-6.3548q1.371-1.9698-0.5988-3.3409l-5.0559-3.519q-1.9698-1.371-3.3409 0.5988l-4.423 6.3548q-1.371 1.9698 0.5988 3.3409z" clip-path="url(#a)" fill="#fff" stroke="#fff"/>
<g clip-path="url(#a)">
<g transform="translate(1099.3 545.32) rotate(34.839) scale(.08 -.08)">
<use xlink:href="#v"/>
</g>
</g>
<path d="m1139.6 549.75 5.3212 2.4424q2.1812 1.0012 3.1824-1.18l3.2298-7.0367q1.0012-2.1812-1.18-3.1824l-5.3212-2.4424q-2.1812-1.0012-3.1824 1.18l-3.2298 7.0367q-1.0012 2.1812 1.18 3.1824z" clip-path="url(#a)" fill="#fff" stroke="#fff"/>
<g clip-path="url(#a)">
<g transform="translate(1141.3 546.06) rotate(24.655) scale(.08 -.08)">
<use xlink:href="#q"/>
</g>
</g>
<path d="m1183.4 550.27 5.5445 1.8813q2.2727 0.77118 3.0439-1.5016l2.4878-7.3319q0.77118-2.2727-1.5016-3.0439l-5.5445-1.8813q-2.2727-0.77118-3.0439 1.5016l-2.4878 7.3319q-0.77118 2.2727 1.5016 3.0439z" clip-path="url(#a)" fill="#fff" stroke="#fff"/>
<g clip-path="url(#a)">
<g transform="translate(1184.7 546.42) rotate(18.743) scale(.08 -.08)">
<use xlink:href="#q"/>
</g>
</g>
<path d="m804.57 640.26v33.808q0 2.4 2.4 2.4h7.7425q2.4 0 2.4-2.4v-33.808q0-2.4-2.4-2.4h-7.7425q-2.4 0-2.4 2.4z" clip-path="url(#a)" fill="#fff" stroke="#fff"/>
<g clip-path="url(#a)">
<g transform="translate(808.63 640.26) rotate(90) scale(.08 -.08)">
<use xlink:href="#l"/>
<use x="44.083984" xlink:href="#d"/>
<use x="105.607422" xlink:href="#i"/>
<use x="144.970703" xlink:href="#k"/>
<use x="242.382812" xlink:href="#f"/>
<use x="270.166016" xlink:href="#g"/>
<use x="333.544922" xlink:href="#h"/>
<use x="394.824219" xlink:href="#j"/>
</g>
</g>
<path d="m873.23 640.26v33.808q0 2.4 2.4 2.4h7.7425q2.4 0 2.4-2.4v-33.808q0-2.4-2.4-2.4h-7.7425q-2.4 0-2.4 2.4z" clip-path="url(#a)" fill="#fff" stroke="#fff"/>
<g clip-path="url(#a)">
<g transform="translate(877.29 640.26) rotate(90) scale(.08 -.08)">
<use xlink:href="#l"/>
<use x="44.083984" xlink:href="#d"/>
<use x="105.607422" xlink:href="#i"/>
<use x="144.970703" xlink:href="#k"/>
<use x="242.382812" xlink:href="#f"/>
<use x="270.166016" xlink:href="#g"/>
<use x="333.544922" xlink:href="#h"/>
<use x="394.824219" xlink:href="#j"/>
</g>
</g>
<path d="m944.88 640.26v33.808q0 2.4 2.4 2.4h7.7425q2.4 0 2.4-2.4v-33.808q0-2.4-2.4-2.4h-7.7425q-2.4 0-2.4 2.4z" clip-path="url(#a)" fill="#fff" stroke="#fff"/>
<g clip-path="url(#a)">
<g transform="translate(948.94 640.26) rotate(90) scale(.08 -.08)">
<use xlink:href="#l"/>
<use x="44.083984" xlink:href="#d"/>
<use x="105.607422" xlink:href="#i"/>
<use x="144.970703" xlink:href="#k"/>
<use x="242.382812" xlink:href="#f"/>
<use x="270.166016" xlink:href="#g"/>
<use x="333.544922" xlink:href="#h"/>
<use x="394.824219" xlink:href="#j"/>
</g>
</g>
<path d="m1019.5 640.26v33.808q0 2.4 2.4 2.4h7.7425q2.4 0 2.4-2.4v-33.808q0-2.4-2.4-2.4h-7.7425q-2.4 0-2.4 2.4z" clip-path="url(#a)" fill="#fff" stroke="#fff"/>
<g clip-path="url(#a)">
<g transform="translate(1023.6 640.26) rotate(90) scale(.08 -.08)">
<use xlink:href="#l"/>
<use x="44.083984" xlink:href="#d"/>
<use x="105.607422" xlink:href="#i"/>
<use x="144.970703" xlink:href="#k"/>
<use x="242.382812" xlink:href="#f"/>
<use x="270.166016" xlink:href="#g"/>
<use x="333.544922" xlink:href="#h"/>
<use x="394.824219" xlink:href="#j"/>
</g>
</g>
<path d="m1097.1 640.26v33.808q0 2.4 2.4 2.4h7.7425q2.4 0 2.4-2.4v-33.808q0-2.4-2.4-2.4h-7.7425q-2.4 0-2.4 2.4z" clip-path="url(#a)" fill="#fff" stroke="#fff"/>
<g clip-path="url(#a)">
<g transform="translate(1101.2 640.26) rotate(90) scale(.08 -.08)">
<use xlink:href="#l"/>
<use x="44.083984" xlink:href="#d"/>
<use x="105.607422" xlink:href="#i"/>
<use x="144.970703" xlink:href="#k"/>
<use x="242.382812" xlink:href="#f"/>
<use x="270.166016" xlink:href="#g"/>
<use x="333.544922" xlink:href="#h"/>
<use x="394.824219" xlink:href="#j"/>
</g>
</g>
<path d="m1177.7 640.26v33.808q0 2.4 2.4 2.4h7.7425q2.4 0 2.4-2.4v-33.808q0-2.4-2.4-2.4h-7.7425q-2.4 0-2.4 2.4z" clip-path="url(#a)" fill="#fff" stroke="#fff"/>
<g clip-path="url(#a)">
<g transform="translate(1181.8 640.26) rotate(90) scale(.08 -.08)">
<use xlink:href="#l"/>
<use x="44.083984" xlink:href="#d"/>
<use x="105.607422" xlink:href="#i"/>
<use x="144.970703" xlink:href="#k"/>
<use x="242.382812" xlink:href="#f"/>
<use x="270.166016" xlink:href="#g"/>
<use x="333.544922" xlink:href="#h"/>
<use x="394.824219" xlink:href="#j"/>
</g>
</g>
<path d="m320.93 640.26v33.808q0 2.4 2.4 2.4h7.7425q2.4 0 2.4-2.4v-33.808q0-2.4-2.4-2.4h-7.7425q-2.4 0-2.4 2.4z" clip-path="url(#a)" fill="#fff" stroke="#fff"/>
<g clip-path="url(#a)">
<g transform="translate(324.99 640.26) rotate(90) scale(.08 -.08)">
<use xlink:href="#l"/>
<use x="44.083984" xlink:href="#d"/>
<use x="105.607422" xlink:href="#i"/>
<use x="144.970703" xlink:href="#k"/>
<use x="242.382812" xlink:href="#f"/>
<use x="270.166016" xlink:href="#g"/>
<use x="333.544922" xlink:href="#h"/>
<use x="394.824219" xlink:href="#j"/>
</g>
</g>
<path d="m362.73 640.26v33.808q0 2.4 2.4 2.4h7.7425q2.4 0 2.4-2.4v-33.808q0-2.4-2.4-2.4h-7.7425q-2.4 0-2.4 2.4z" clip-path="url(#a)" fill="#fff" stroke="#fff"/>
<g clip-path="url(#a)">
<g transform="translate(366.79 640.26) rotate(90) scale(.08 -.08)">
<use xlink:href="#l"/>
<use x="44.083984" xlink:href="#d"/>
<use x="105.607422" xlink:href="#i"/>
<use x="144.970703" xlink:href="#k"/>
<use x="242.382812" xlink:href="#f"/>
<use x="270.166016" xlink:href="#g"/>
<use x="333.544922" xlink:href="#h"/>
<use x="394.824219" xlink:href="#j"/>
</g>
</g>
<path d="m431.33 549.04 1.0483-4.9451q0.49769-2.3478-1.8501-2.8455l-7.5742-1.6056q-2.3478-0.49769-2.8455 1.8501l-1.0483 4.9451q-0.49769 2.3478 1.8501 2.8455l7.5742 1.6056q2.3478 0.49769 2.8455-1.8501z" clip-path="url(#a)" fill="#fff" stroke="#fff"/>
<g clip-path="url(#a)">
<g transform="translate(427.35 548.2) rotate(-78.032) scale(.08 -.08)">
<use xlink:href="#al"/>
</g>
</g>
<path d="m442.89 543.84 1.1584 5.4648q0.49769 2.3478 2.8455 1.8501l7.5742-1.6056q2.3478-0.49769 1.8501-2.8455l-1.1584-5.4648q-0.49769-2.3478-2.8455-1.8501l-7.5742 1.6056q-2.3478 0.49769-1.8501 2.8455z" clip-path="url(#a)" fill="#fff" stroke="#fff"/>
<g clip-path="url(#a)">
<g transform="translate(446.86 543) rotate(78.032) scale(.08 -.08)">
<use xlink:href="#ac"/>
</g>
</g>
<path d="m407.51 640.26v33.808q0 2.4 2.4 2.4h7.7425q2.4 0 2.4-2.4v-33.808q0-2.4-2.4-2.4h-7.7425q-2.4 0-2.4 2.4z" clip-path="url(#a)" fill="#fff" stroke="#fff"/>
<g clip-path="url(#a)">
<g transform="translate(411.57 640.26) rotate(90) scale(.08 -.08)">
<use xlink:href="#l"/>
<use x="44.083984" xlink:href="#d"/>
<use x="105.607422" xlink:href="#i"/>
<use x="144.970703" xlink:href="#k"/>
<use x="242.382812" xlink:href="#f"/>
<use x="270.166016" xlink:href="#g"/>
<use x="333.544922" xlink:href="#h"/>
<use x="394.824219" xlink:href="#j"/>
</g>
</g>
<path d="m455.27 640.26v33.808q0 2.4 2.4 2.4h7.7425q2.4 0 2.4-2.4v-33.808q0-2.4-2.4-2.4h-7.7425q-2.4 0-2.4 2.4z" clip-path="url(#a)" fill="#fff" stroke="#fff"/>
<g clip-path="url(#a)">
<g transform="translate(459.34 640.26) rotate(90) scale(.08 -.08)">
<use xlink:href="#l"/>
<use x="44.083984" xlink:href="#d"/>
<use x="105.607422" xlink:href="#i"/>
<use x="144.970703" xlink:href="#k"/>
<use x="242.382812" xlink:href="#f"/>
<use x="270.166016" xlink:href="#g"/>
<use x="333.544922" xlink:href="#h"/>
<use x="394.824219" xlink:href="#j"/>
</g>
</g>
<path d="m132.85 640.26v33.808q0 2.4 2.4 2.4h7.7425q2.4 0 2.4-2.4v-33.808q0-2.4-2.4-2.4h-7.7425q-2.4 0-2.4 2.4z" clip-path="url(#a)" fill="#fff" stroke="#fff"/>
<g clip-path="url(#a)">
<g transform="translate(136.91 640.26) rotate(90) scale(.08 -.08)">
<use xlink:href="#l"/>
<use x="44.083984" xlink:href="#d"/>
<use x="105.607422" xlink:href="#i"/>
<use x="144.970703" xlink:href="#k"/>
<use x="242.382812" xlink:href="#f"/>
<use x="270.166016" xlink:href="#g"/>
<use x="333.544922" xlink:href="#h"/>
<use x="394.824219" xlink:href="#j"/>
</g>
</g>
<path d="m156.73 640.26v33.808q0 2.4 2.4 2.4h7.7425q2.4 0 2.4-2.4v-33.808q0-2.4-2.4-2.4h-7.7425q-2.4 0-2.4 2.4z" clip-path="url(#a)" fill="#fff" stroke="#fff"/>
<g clip-path="url(#a)">
<g transform="translate(160.8 640.26) rotate(90) scale(.08 -.08)">
<use xlink:href="#l"/>
<use x="44.083984" xlink:href="#d"/>
<use x="105.607422" xlink:href="#i"/>
<use x="144.970703" xlink:href="#k"/>
<use x="242.382812" xlink:href="#f"/>
<use x="270.166016" xlink:href="#g"/>
<use x="333.544922" xlink:href="#h"/>
<use x="394.824219" xlink:href="#j"/>
</g>
</g>
<path d="m183.6 640.26v33.808q0 2.4 2.4 2.4h7.7425q2.4 0 2.4-2.4v-33.808q0-2.4-2.4-2.4h-7.7425q-2.4 0-2.4 2.4z" clip-path="url(#a)" fill="#fff" stroke="#fff"/>
<g clip-path="url(#a)">
<g transform="translate(187.66 640.26) rotate(90) scale(.08 -.08)">
<use xlink:href="#l"/>
<use x="44.083984" xlink:href="#d"/>
<use x="105.607422" xlink:href="#i"/>
<use x="144.970703" xlink:href="#k"/>
<use x="242.382812" xlink:href="#f"/>
<use x="270.166016" xlink:href="#g"/>
<use x="333.544922" xlink:href="#h"/>
<use x="394.824219" xlink:href="#j"/>
</g>
</g>
<path d="m86.113 548.3 0.54478-4.5689q0.28416-2.3831-2.099-2.6673l-7.688-0.91671q-2.3831-0.28416-2.6673 2.099l-0.54479 4.5689q-0.28416 2.3831 2.099 2.6673l7.688 0.91671q2.3831 0.28416 2.6673-2.099z" clip-path="url(#a)" fill="#fff" stroke="#fff"/>
<g clip-path="url(#a)">
<g transform="translate(82.078 547.82) rotate(-83.2) scale(.08 -.08)">
<use xlink:href="#z"/>
</g>
</g>
<path d="m87.035 543.24 0.66141 5.547q0.28416 2.3831 2.6673 2.099l7.688-0.91671q2.3831-0.28416 2.099-2.6673l-0.66141-5.547q-0.28416-2.3831-2.6673-2.099l-7.688 0.91671q-2.3831 0.28416-2.099 2.6673z" clip-path="url(#a)" fill="#fff" stroke="#fff"/>
<g clip-path="url(#a)">
<g transform="translate(91.07 542.76) rotate(83.2) scale(.08 -.08)">
<use xlink:href="#ac"/>
</g>
</g>
<path d="m79.111 640.26v33.808q0 2.4 2.4 2.4h7.7425q2.4 0 2.4-2.4v-33.808q0-2.4-2.4-2.4h-7.7425q-2.4 0-2.4 2.4z" clip-path="url(#a)" fill="#fff" stroke="#fff"/>
<g clip-path="url(#a)">
<g transform="translate(83.175 640.26) rotate(90) scale(.08 -.08)">
<use xlink:href="#l"/>
<use x="44.083984" xlink:href="#d"/>
<use x="105.607422" xlink:href="#i"/>
<use x="144.970703" xlink:href="#k"/>
<use x="242.382812" xlink:href="#f"/>
<use x="270.166016" xlink:href="#g"/>
<use x="333.544922" xlink:href="#h"/>
<use x="394.824219" xlink:href="#j"/>
</g>
</g>
<path d="m67.17 640.26v33.808q0 2.4 2.4 2.4h7.7425q2.4 0 2.4-2.4v-33.808q0-2.4-2.4-2.4h-7.7425q-2.4 0-2.4 2.4z" clip-path="url(#a)" fill="#fff" stroke="#fff"/>
<g clip-path="url(#a)">
<g transform="translate(71.234 640.26) rotate(90) scale(.08 -.08)">
<use xlink:href="#l"/>
<use x="44.083984" xlink:href="#d"/>
<use x="105.607422" xlink:href="#i"/>
<use x="144.970703" xlink:href="#k"/>
<use x="242.382812" xlink:href="#f"/>
<use x="270.166016" xlink:href="#g"/>
<use x="333.544922" xlink:href="#h"/>
<use x="394.824219" xlink:href="#j"/>
</g>
</g>
<path d="m94.039 640.26v33.808q0 2.4 2.4 2.4h7.7425q2.4 0 2.4-2.4v-33.808q0-2.4-2.4-2.4h-7.7425q-2.4 0-2.4 2.4z" clip-path="url(#a)" fill="#fff" stroke="#fff"/>
<g clip-path="url(#a)">
<g transform="translate(98.102 640.26) rotate(90) scale(.08 -.08)">
<use xlink:href="#l"/>
<use x="44.083984" xlink:href="#d"/>
<use x="105.607422" xlink:href="#i"/>
<use x="144.970703" xlink:href="#k"/>
<use x="242.382812" xlink:href="#f"/>
<use x="270.166016" xlink:href="#g"/>
<use x="333.544922" xlink:href="#h"/>
<use x="394.824219" xlink:href="#j"/>
</g>
</g>
<path d="m213.45 640.26v33.808q0 2.4 2.4 2.4h7.7425q2.4 0 2.4-2.4v-33.808q0-2.4-2.4-2.4h-7.7425q-2.4 0-2.4 2.4z" clip-path="url(#a)" fill="#fff" stroke="#fff"/>
<g clip-path="url(#a)">
<g transform="translate(217.52 640.26) rotate(90) scale(.08 -.08)">
<use xlink:href="#l"/>
<use x="44.083984" xlink:href="#d"/>
<use x="105.607422" xlink:href="#i"/>
<use x="144.970703" xlink:href="#k"/>
<use x="242.382812" xlink:href="#f"/>
<use x="270.166016" xlink:href="#g"/>
<use x="333.544922" xlink:href="#h"/>
<use x="394.824219" xlink:href="#j"/>
</g>
</g>
<path d="m246.29 640.26v33.808q0 2.4 2.4 2.4h7.7425q2.4 0 2.4-2.4v-33.808q0-2.4-2.4-2.4h-7.7425q-2.4 0-2.4 2.4z" clip-path="url(#a)" fill="#fff" stroke="#fff"/>
<g clip-path="url(#a)">
<g transform="translate(250.36 640.26) rotate(90) scale(.08 -.08)">
<use xlink:href="#l"/>
<use x="44.083984" xlink:href="#d"/>
<use x="105.607422" xlink:href="#i"/>
<use x="144.970703" xlink:href="#k"/>
<use x="242.382812" xlink:href="#f"/>
<use x="270.166016" xlink:href="#g"/>
<use x="333.544922" xlink:href="#h"/>
<use x="394.824219" xlink:href="#j"/>
</g>
</g>
<path d="m282.12 640.26v33.808q0 2.4 2.4 2.4h7.7425q2.4 0 2.4-2.4v-33.808q0-2.4-2.4-2.4h-7.7425q-2.4 0-2.4 2.4z" clip-path="url(#a)" fill="#fff" stroke="#fff"/>
<g clip-path="url(#a)">
<g transform="translate(286.18 640.26) rotate(90) scale(.08 -.08)">
<use xlink:href="#l"/>
<use x="44.083984" xlink:href="#d"/>
<use x="105.607422" xlink:href="#i"/>
<use x="144.970703" xlink:href="#k"/>
<use x="242.382812" xlink:href="#f"/>
<use x="270.166016" xlink:href="#g"/>
<use x="333.544922" xlink:href="#h"/>
<use x="394.824219" xlink:href="#j"/>
</g>
</g>
<path d="m506.03 640.26v33.808q0 2.4 2.4 2.4h7.7425q2.4 0 2.4-2.4v-33.808q0-2.4-2.4-2.4h-7.7425q-2.4 0-2.4 2.4z" clip-path="url(#a)" fill="#fff" stroke="#fff"/>
<g clip-path="url(#a)">
<g transform="translate(510.09 640.26) rotate(90) scale(.08 -.08)">
<use xlink:href="#l"/>
<use x="44.083984" xlink:href="#d"/>
<use x="105.607422" xlink:href="#i"/>
<use x="144.970703" xlink:href="#k"/>
<use x="242.382812" xlink:href="#f"/>
<use x="270.166016" xlink:href="#g"/>
<use x="333.544922" xlink:href="#h"/>
<use x="394.824219" xlink:href="#j"/>
</g>
</g>
<path d="m738.89 640.26v33.808q0 2.4 2.4 2.4h7.7425q2.4 0 2.4-2.4v-33.808q0-2.4-2.4-2.4h-7.7425q-2.4 0-2.4 2.4z" clip-path="url(#a)" fill="#fff" stroke="#fff"/>
<g clip-path="url(#a)">
<g transform="translate(742.95 640.26) rotate(90) scale(.08 -.08)">
<use xlink:href="#l"/>
<use x="44.083984" xlink:href="#d"/>
<use x="105.607422" xlink:href="#i"/>
<use x="144.970703" xlink:href="#k"/>
<use x="242.382812" xlink:href="#f"/>
<use x="270.166016" xlink:href="#g"/>
<use x="333.544922" xlink:href="#h"/>
<use x="394.824219" xlink:href="#j"/>
</g>
</g>
<path d="m1261.3 640.26v33.808q0 2.4 2.4 2.4h7.7425q2.4 0 2.4-2.4v-33.808q0-2.4-2.4-2.4h-7.7425q-2.4 0-2.4 2.4z" clip-path="url(#a)" fill="#fff" stroke="#fff"/>
<g clip-path="url(#a)">
<g transform="translate(1265.4 640.26) rotate(90) scale(.08 -.08)">
<use xlink:href="#l"/>
<use x="44.083984" xlink:href="#d"/>
<use x="105.607422" xlink:href="#i"/>
<use x="144.970703" xlink:href="#k"/>
<use x="242.382812" xlink:href="#f"/>
<use x="270.166016" xlink:href="#g"/>
<use x="333.544922" xlink:href="#h"/>
<use x="394.824219" xlink:href="#j"/>
</g>
</g>
<path d="m1347.9 640.26v33.808q0 2.4 2.4 2.4h7.7425q2.4 0 2.4-2.4v-33.808q0-2.4-2.4-2.4h-7.7425q-2.4 0-2.4 2.4z" clip-path="url(#a)" fill="#fff" stroke="#fff"/>
<g clip-path="url(#a)">
<g transform="translate(1352 640.26) rotate(90) scale(.08 -.08)">
<use xlink:href="#l"/>
<use x="44.083984" xlink:href="#d"/>
<use x="105.607422" xlink:href="#i"/>
<use x="144.970703" xlink:href="#k"/>
<use x="242.382812" xlink:href="#f"/>
<use x="270.166016" xlink:href="#g"/>
<use x="333.544922" xlink:href="#h"/>
<use x="394.824219" xlink:href="#j"/>
</g>
</g>
<defs>
<path id="b" d="m0 8.6603c2.2967 0 4.4997-0.9125 6.1237-2.5365 1.624-1.624 2.5365-3.827 2.5365-6.1237s-0.9125-4.4997-2.5365-6.1237c-1.624-1.624-3.827-2.5365-6.1237-2.5365s-4.4997 0.9125-6.1237 2.5365c-1.624 1.624-2.5365 3.827-2.5365 6.1237s0.9125 4.4997 2.5365 6.1237c1.624 1.624 3.827 2.5365 6.1237 2.5365z"/>
</defs>
<g clip-path="url(#a)" fill="#ffffff" stroke="#ffffff">
<use x="64.484848" y="712.727273" xlink:href="#b"/>
<use x="73.441077" y="712.727273" xlink:href="#b"/>
<use x="85.382716" y="712.727273" xlink:href="#b"/>
<use x="100.309764" y="712.727273" xlink:href="#b"/>
<use x="118.222222" y="712.727273" xlink:href="#b"/>
<use x="139.12009" y="712.727273" xlink:href="#b"/>
<use x="163.003367" y="712.727273" xlink:href="#b"/>
<use x="189.872054" y="712.727273" xlink:href="#b"/>
<use x="219.72615" y="712.727273" xlink:href="#b"/>
<use x="252.565657" y="712.727273" xlink:href="#b"/>
<use x="288.390572" y="712.727273" xlink:href="#b"/>
<use x="327.200898" y="712.727273" xlink:href="#b"/>
<use x="368.996633" y="712.727273" xlink:href="#b"/>
<use x="413.777778" y="712.727273" xlink:href="#b"/>
<use x="461.544332" y="712.727273" xlink:href="#b"/>
<use x="512.296296" y="712.727273" xlink:href="#b"/>
<use x="566.03367" y="712.727273" xlink:href="#b"/>
<use x="622.756453" y="712.727273" xlink:href="#b"/>
<use x="682.464646" y="712.727273" xlink:href="#b"/>
<use x="745.158249" y="712.727273" xlink:href="#b"/>
<use x="810.837262" y="712.727273" xlink:href="#b"/>
<use x="879.501684" y="712.727273" xlink:href="#b"/>
<use x="951.151515" y="712.727273" xlink:href="#b"/>
<use x="1025.786756" y="712.727273" xlink:href="#b"/>
<use x="1103.407407" y="712.727273" xlink:href="#b"/>
<use x="1184.013468" y="712.727273" xlink:href="#b"/>
<use x="1267.604938" y="712.727273" xlink:href="#b"/>
<use x="1354.181818" y="712.727273" xlink:href="#b"/>
<use x="203.287355" y="33.939394" xlink:href="#b"/>
<use x="64.484848" y="601.604949" xlink:href="#b"/>
<use x="120.710064" y="375.677699" xlink:href="#b"/>
<use x="273.846836" y="148.101081" xlink:href="#b"/>
<use x="118.222222" y="601.604949" xlink:href="#b"/>
<use x="163.998504" y="488.936791" xlink:href="#b"/>
<use x="539.319782" y="262.033137" xlink:href="#b"/>
<use x="377.952862" y="375.677699" xlink:href="#b"/>
<use x="727.710188" y="375.677699" xlink:href="#b"/>
<use x="566.03367" y="601.604949" xlink:href="#b"/>
<use x="622.756453" y="601.604949" xlink:href="#b"/>
<use x="682.464646" y="601.604949" xlink:href="#b"/>
<use x="1022.137922" y="488.936791" xlink:href="#b"/>
<use x="810.837262" y="601.604949" xlink:href="#b"/>
<use x="879.501684" y="601.604949" xlink:href="#b"/>
<use x="951.151515" y="601.604949" xlink:href="#b"/>
<use x="1025.786756" y="601.604949" xlink:href="#b"/>
<use x="1103.407407" y="601.604949" xlink:href="#b"/>
<use x="1184.013468" y="601.604949" xlink:href="#b"/>
<use x="327.200898" y="601.604949" xlink:href="#b"/>
<use x="368.996633" y="601.604949" xlink:href="#b"/>
<use x="437.661055" y="488.936791" xlink:href="#b"/>
<use x="413.777778" y="601.604949" xlink:href="#b"/>
<use x="461.544332" y="601.604949" xlink:href="#b"/>
<use x="139.12009" y="601.604949" xlink:href="#b"/>
<use x="163.003367" y="601.604949" xlink:href="#b"/>
<use x="189.872054" y="601.604949" xlink:href="#b"/>
<use x="86.875421" y="488.936791" xlink:href="#b"/>
<use x="85.382716" y="601.604949" xlink:href="#b"/>
<use x="73.441077" y="601.604949" xlink:href="#b"/>
<use x="100.309764" y="601.604949" xlink:href="#b"/>
<use x="219.72615" y="601.604949" xlink:href="#b"/>
<use x="252.565657" y="601.604949" xlink:href="#b"/>
<use x="288.390572" y="601.604949" xlink:href="#b"/>
<use x="512.296296" y="601.604949" xlink:href="#b"/>
<use x="745.158249" y="601.604949" xlink:href="#b"/>
<use x="1267.604938" y="601.604949" xlink:href="#b"/>
<use x="1354.181818" y="601.604949" xlink:href="#b"/>
</g>
<g clip-path="url(#a)">
<defs>
<path id="ap" d="m9.8125 72.906h13.281l32.328-60.984v60.984h9.5625v-72.906h-13.281l-32.312 60.984v-60.984h-9.5781z"/>
<path id="u" d="m48.781 52.594v-8.4062q-3.8125 2.1094-7.6406 3.1562t-7.7344 1.0469q-8.75 0-13.594-5.5469-4.8281-5.5312-4.8281-15.547t4.8281-15.562q4.8438-5.5312 13.594-5.5312 3.9062 0 7.7344 1.0469t7.6406 3.1562v-8.3125q-3.7656-1.75-7.7969-2.625-4.0156-0.89062-8.5625-0.89062-12.359 0-19.641 7.7656-7.2656 7.7656-7.2656 20.953 0 13.375 7.3438 21.031 7.3594 7.6719 20.156 7.6719 4.1406 0 8.0938-0.85938 3.9531-0.84375 7.6719-2.5469z"/>
<path id="t" d="m54.891 33.016v-33.016h-8.9844v32.719q0 7.7656-3.0312 11.609-3.0312 3.8594-9.0781 3.8594-7.2812 0-11.484-4.6406-4.2031-4.625-4.2031-12.641v-30.906h-9.0312v75.984h9.0312v-29.797q3.2344 4.9375 7.5938 7.375 4.375 2.4375 10.094 2.4375 9.4219 0 14.25-5.8281 4.8438-5.8281 4.8438-17.156z"/>
</defs>
<g transform="translate(51.762 715.49) scale(.1 -.1)">
<use xlink:href="#ap"/>
<use x="74.804688" xlink:href="#h"/>
<use x="136.083984" xlink:href="#u"/>
<use x="191.064453" xlink:href="#t"/>
</g>
</g>
<g clip-path="url(#a)">
<g transform="translate(57.86 715.49) scale(.1 -.1)">
<use xlink:href="#d"/>
<use x="61.523438" xlink:href="#f"/>
<use x="89.306641" xlink:href="#g"/>
<use x="152.685547" xlink:href="#d"/>
<use x="214.208984" xlink:href="#k"/>
</g>
</g>
<g clip-path="url(#a)">
<defs>
<path id="ao" d="m9.0781 75.984h9.0312v-44.875l26.812 23.578h11.469l-29-25.578 30.234-29.109h-11.719l-27.797 26.703v-26.703h-9.0312z"/>
<path id="w" d="m8.5 21.578v33.109h8.9844v-32.766q0-7.7656 3.0156-11.656 3.0312-3.875 9.0938-3.875 7.2656 0 11.484 4.6406 4.2344 4.6406 4.2344 12.656v31h8.9844v-54.688h-8.9844v8.4062q-3.2656-4.9844-7.5938-7.4062-4.3125-2.4219-10.031-2.4219-9.4219 0-14.312 5.8594-4.875 5.8594-4.875 17.141z"/>
<path id="aj" d="m5.5156 54.688h42.672v-8.2031l-33.781-39.312h33.781v-7.1719h-43.891v8.2031l33.797 39.312h-32.578z"/>
</defs>
<g transform="translate(68.55 715.49) scale(.1 -.1)">
<use xlink:href="#ao"/>
<use x="54.785156" xlink:href="#w"/>
<use x="118.164062" xlink:href="#i"/>
<use x="159.277344" xlink:href="#aj"/>
<use x="211.767578" xlink:href="#d"/>
<use x="273.291016" xlink:href="#g"/>
</g>
</g>
<g clip-path="url(#a)">
<defs>
<path id="aw" d="m4.2031 54.688h8.9844l11.234-42.672 11.172 42.672h10.594l11.234-42.672 11.188 42.672h8.9844l-14.312-54.688h-10.594l-11.766 44.828-11.812-44.828h-10.609z"/>
<path id="aa" d="m45.406 27.984q0 9.7656-4.0312 15.125-4.0156 5.375-11.297 5.375-7.2188 0-11.25-5.375-4.0312-5.3594-4.0312-15.125 0-9.7188 4.0312-15.094t11.25-5.375q7.2812 0 11.297 5.375 4.0312 5.375 4.0312 15.094zm8.9844-21.203q0-13.953-6.2031-20.766-6.1875-6.8125-18.984-6.8125-4.7344 0-8.9375 0.70312t-8.1562 2.1719v8.7344q3.9531-2.1406 7.8125-3.1562 3.8594-1.0312 7.8594-1.0312 8.8438 0 13.234 4.6094t4.3906 13.938v4.4531q-2.7812-4.8438-7.125-7.2344t-10.406-2.3906q-10.047 0-16.203 7.6562-6.1562 7.6719-6.1562 20.328 0 12.688 6.1562 20.344 6.1562 7.6719 16.203 7.6719 6.0625 0 10.406-2.3906t7.125-7.2188v8.2969h8.9844z"/>
</defs>
<g transform="translate(73.243 715.49) scale(.1 -.1)">
<use xlink:href="#x"/>
<use x="63.476562" xlink:href="#u"/>
<use x="118.457031" xlink:href="#t"/>
<use x="181.835938" xlink:href="#aw"/>
<use x="263.623047" xlink:href="#d"/>
<use x="325.146484" xlink:href="#f"/>
<use x="352.929688" xlink:href="#aa"/>
<use x="416.40625" xlink:href="#d"/>
<use x="477.929688" xlink:href="#g"/>
</g>
</g>
<g clip-path="url(#a)">
<defs>
<path id="r" d="m44.281 53.078v-8.5q-3.7969 1.9531-7.9062 2.9219-4.0938 0.98438-8.5 0.98438-6.6875 0-10.031-2.0469t-3.3438-6.1562q0-3.125 2.3906-4.9062t9.625-3.3906l3.0781-0.6875q9.5625-2.0469 13.594-5.7812t4.0312-10.422q0-7.625-6.0312-12.078-6.0312-4.4375-16.578-4.4375-4.3906 0-9.1562 0.85938t-10.031 2.5625v9.2812q4.9844-2.5938 9.8125-3.8906 4.8281-1.2812 9.5781-1.2812 6.3438 0 9.75 2.1719 3.4219 2.1719 3.4219 6.125 0 3.6562-2.4688 5.6094-2.4531 1.9531-10.812 3.7656l-3.125 0.73438q-8.3438 1.75-12.062 5.3906-3.7031 3.6406-3.7031 9.9844 0 7.7188 5.4688 11.906 5.4688 4.2031 15.531 4.2031 4.9688 0 9.3594-0.73438 4.4062-0.71875 8.1094-2.1875z"/>
<path id="s" d="m18.312 70.219v-15.531h18.5v-6.9844h-18.5v-29.688q0-6.6875 1.8281-8.5938t7.4531-1.9062h9.2188v-7.5156h-9.2188q-10.406 0-14.359 3.875-3.9531 3.8906-3.9531 14.141v29.688h-6.5938v6.9844h6.5938v15.531z"/>
</defs>
<g transform="translate(104.34 715.49) scale(.1 -.1)">
<use xlink:href="#r"/>
<use x="52.099609" xlink:href="#h"/>
<use x="113.378906" xlink:href="#aa"/>
<use x="176.855469" xlink:href="#s"/>
<use x="216.064453" xlink:href="#d"/>
</g>
</g>
<g clip-path="url(#a)">
<defs>
<path id="ak" d="m45.406 46.391v29.594h8.9844v-75.984h-8.9844v8.2031q-2.8281-4.875-7.1562-7.25-4.3125-2.375-10.375-2.375-9.9062 0-16.141 7.9062-6.2188 7.9219-6.2188 20.812t6.2188 20.797q6.2344 7.9062 16.141 7.9062 6.0625 0 10.375-2.375 4.3281-2.3594 7.1562-7.2344zm-30.609-19.094q0-9.9062 4.0781-15.547t11.203-5.6406 11.219 5.6406q4.1094 5.6406 4.1094 15.547t-4.1094 15.547q-4.0938 5.6406-11.219 5.6406t-11.203-5.6406-4.0781-15.547z"/>
</defs>
<g transform="translate(130.81 715.49) scale(.1 -.1)">
<use xlink:href="#ak"/>
<use x="63.476562" xlink:href="#d"/>
<use x="125" xlink:href="#i"/>
</g>
</g>
<g clip-path="url(#a)">
<g transform="translate(148.01 715.49) scale(.1 -.1)">
<use xlink:href="#ao"/>
<use x="57.910156" xlink:href="#j"/>
<use x="85.693359" xlink:href="#d"/>
<use x="147.216797" xlink:href="#f"/>
<use x="175" xlink:href="#g"/>
<use x="238.378906" xlink:href="#d"/>
</g>
</g>
<g clip-path="url(#a)">
<g transform="translate(177.71 715.49) scale(.1 -.1)">
<use xlink:href="#ab"/>
<use x="58.552734" xlink:href="#i"/>
<use x="99.666016" xlink:href="#f"/>
<use x="127.449219" xlink:href="#g"/>
<use x="190.828125" xlink:href="#aj"/>
</g>
</g>
<g clip-path="url(#a)">
<defs>
<path id="at" d="m11.719 12.406h10.297v-12.406h-10.297zm0 39.297h10.297v-12.391h-10.297z"/>
</defs>
<g transform="translate(218.04 715.49) scale(.1 -.1)">
<use xlink:href="#at"/>
</g>
</g>
<g clip-path="url(#a)">
<defs>
<path id="au" d="m4.8906 31.391h26.312v-8h-26.312z"/>
</defs>
<g transform="translate(250.76 715.49) scale(.1 -.1)">
<use xlink:href="#au"/>
</g>
</g>
<g clip-path="url(#a)">
<defs>
<path id="an" d="m17.922 72.906v-27.109h-8.2969v27.109zm18.453 0v-27.109h-8.2969v27.109z"/>
</defs>
<g transform="translate(286.09 715.49) scale(.1 -.1)">
<use xlink:href="#an"/>
</g>
</g>
<g clip-path="url(#a)">
<g transform="translate(320.18 715.49) scale(.1 -.1)">
<use xlink:href="#v"/>
<use x="77.001953" xlink:href="#w"/>
</g>
</g>
<g clip-path="url(#a)">
<g transform="translate(358.2 715.49) scale(.1 -.1)">
<use xlink:href="#t"/>
<use x="63.378906" xlink:href="#h"/>
<use x="124.658203" xlink:href="#r"/>
<use x="176.757812" xlink:href="#s"/>
</g>
</g>
<g clip-path="url(#a)">
<g transform="translate(399.79 715.49) scale(.1 -.1)">
<use xlink:href="#aa"/>
<use x="63.476562" xlink:href="#w"/>
<use x="126.855469" xlink:href="#s"/>
<use x="166.064453" xlink:href="#d"/>
<use x="227.587891" xlink:href="#r"/>
</g>
</g>
<g clip-path="url(#a)">
<defs>
<path id="ar" d="m59.516 10.406v19.578h-16.109v8.1094h25.875v-31.312q-5.7031-4.0469-12.594-6.125-6.875-2.0781-14.688-2.0781-17.094 0-26.75 9.9844-9.6406 10-9.6406 27.812 0 17.875 9.6406 27.859 9.6562 9.9844 26.75 9.9844 7.125 0 13.547-1.7656 6.4219-1.75 11.844-5.1719v-10.5q-5.4688 4.6406-11.625 6.9844t-12.938 2.3438q-13.391 0-20.109-7.4688-6.7031-7.4688-6.7031-22.266 0-14.75 6.7031-22.219 6.7188-7.4688 20.109-7.4688 5.2188 0 9.3125 0.90625 4.1094 0.90625 7.375 2.8125z"/>
<path id="ax" d="m37.109 75.984v-7.4844h-8.5938q-4.8281 0-6.7188-1.9531-1.875-1.9531-1.875-7.0312v-4.8281h14.797v-6.9844h-14.797v-47.703h-9.0312v47.703h-8.5938v6.9844h8.5938v3.8125q0 9.125 4.25 13.297 4.25 4.1875 13.469 4.1875z"/>
</defs>
<g transform="translate(452.65 715.49) scale(.1 -.1)">
<use xlink:href="#ar"/>
<use x="77.490234" xlink:href="#f"/>
<use x="105.273438" xlink:href="#ax"/>
<use x="138.728516" xlink:href="#s"/>
</g>
</g>
<g clip-path="url(#a)">
<defs>
<path id="am" d="m19.094 12.406h9.9062v-12.406h-9.9062zm9.625 7.1719h-9.3281v7.5156q0 4.9375 1.3594 8.1094 1.375 3.1719 5.7656 7.375l4.3906 4.3438q2.7812 2.5938 4.0312 4.8906t1.25 4.6875q0 4.3438-3.2031 7.0312t-8.4688 2.6875q-3.8594 0-8.2344-1.7188-4.3594-1.7031-9.1094-4.9844v9.1875q4.5938 2.7812 9.2969 4.1406 4.7188 1.375 9.75 1.375 8.9844 0 14.422-4.7344 5.4531-4.7344 5.4531-12.5 0-3.7188-1.7656-7.0625-1.75-3.3438-6.1406-7.5312l-4.2969-4.2031q-2.2969-2.2969-3.25-3.5938t-1.3438-2.5156q-0.29688-1.0156-0.4375-2.4844t-0.14062-4z"/>
</defs>
<g transform="translate(509.64 715.49) scale(.1 -.1)">
<use xlink:href="#am"/>
</g>
</g>
<g clip-path="url(#a)">
<defs>
<path id="as" d="m19.672 34.812v-26.703h15.828q7.9531 0 11.781 3.2969 3.8438 3.2969 3.8438 10.078 0 6.8438-3.8438 10.078-3.8281 3.25-11.781 3.25zm0 29.984v-21.969h14.609q7.2188 0 10.75 2.7031 3.5469 2.7188 3.5469 8.2812 0 5.5156-3.5469 8.25-3.5312 2.7344-10.75 2.7344zm-9.8594 8.1094h25.203q11.281 0 17.375-4.6875 6.1094-4.6875 6.1094-13.328 0-6.7031-3.125-10.656t-9.1875-4.9219q7.2812-1.5625 11.312-6.5312 4.0312-4.9531 4.0312-12.375 0-9.7656-6.6406-15.094-6.6406-5.3125-18.906-5.3125h-26.172z"/>
</defs>
<g transform="translate(556.65 715.49) scale(.1 -.1)">
<use xlink:href="#as"/>
<use x="68.603516" xlink:href="#f"/>
<use x="96.386719" xlink:href="#r"/>
<use x="148.486328" xlink:href="#s"/>
</g>
</g>
<g clip-path="url(#a)">
<g transform="translate(616.41 715.49) scale(.1 -.1)">
<use xlink:href="#ak"/>
<use x="63.476562" xlink:href="#w"/>
</g>
</g>
<g clip-path="url(#a)">
<g transform="translate(667.42 715.49) scale(.1 -.1)">
<use xlink:href="#r"/>
<use x="52.099609" xlink:href="#f"/>
<use x="79.882812" xlink:href="#u"/>
<use x="134.863281" xlink:href="#t"/>
<use x="198.242188" xlink:href="#d"/>
<use x="259.765625" xlink:href="#i"/>
</g>
</g>
<g clip-path="url(#a)">
<defs>
<path id="av" d="m11.719 12.406h10.297v-8.4062l-8-15.625h-6.2969l4 15.625z"/>
</defs>
<g transform="translate(743.57 715.49) scale(.1 -.1)">
<use xlink:href="#av"/>
</g>
</g>
<g clip-path="url(#a)">
<g transform="translate(798.66 715.49) scale(.1 -.1)">
<use xlink:href="#k"/>
<use x="97.412109" xlink:href="#f"/>
<use x="125.195312" xlink:href="#u"/>
<use x="180.175781" xlink:href="#t"/>
</g>
</g>
<g clip-path="url(#a)">
<g transform="translate(867.07 715.49) scale(.1 -.1)">
<use xlink:href="#g"/>
<use x="63.378906" xlink:href="#f"/>
<use x="91.162109" xlink:href="#u"/>
<use x="146.142578" xlink:href="#t"/>
<use x="209.521484" xlink:href="#s"/>
</g>
</g>
<g clip-path="url(#a)">
<g transform="translate(937.28 715.49) scale(.1 -.1)">
<use xlink:href="#j"/>
<use x="27.783203" xlink:href="#h"/>
<use x="89.0625" xlink:href="#g"/>
<use x="152.441406" xlink:href="#aa"/>
<use x="215.917969" xlink:href="#d"/>
</g>
</g>
<g clip-path="url(#a)">
<g transform="translate(1010.5 715.49) scale(.1 -.1)">
<use xlink:href="#j"/>
<use x="27.783203" xlink:href="#d"/>
<use x="89.306641" xlink:href="#f"/>
<use x="117.089844" xlink:href="#ak"/>
<use x="180.566406" xlink:href="#d"/>
<use x="242.089844" xlink:href="#g"/>
</g>
</g>
<g clip-path="url(#a)">
<g transform="translate(1097.6 715.49) scale(.1 -.1)">
<use xlink:href="#aj"/>
<use x="52.490234" xlink:href="#w"/>
</g>
</g>
<g clip-path="url(#a)">
<g transform="translate(1168.1 715.49) scale(.1 -.1)">
<use xlink:href="#j"/>
<use x="27.783203" xlink:href="#h"/>
<use x="89.0625" xlink:href="#r"/>
<use x="141.162109" xlink:href="#r"/>
<use x="193.261719" xlink:href="#d"/>
<use x="254.785156" xlink:href="#g"/>
</g>
</g>
<g clip-path="url(#a)">
<g transform="translate(1265 715.49) scale(.1 -.1)">
<use xlink:href="#am"/>
</g>
</g>
<g clip-path="url(#a)">
<g transform="translate(1351.9 715.49) scale(.1 -.1)">
<use xlink:href="#an"/>
</g>
</g>
<g clip-path="url(#a)">
<defs>
<path id="c" d="m12.406 8.2969h16.109v55.625l-17.531-3.5156v8.9844l17.438 3.5156h9.8594v-64.609h16.109v-8.2969h-41.984z"/>
<path id="e" d="m10.688 12.406h10.312v-12.406h-10.312z"/>
</defs>
<g transform="translate(195.34 36.699) scale(.1 -.1)">
<use xlink:href="#c"/>
<use x="63.623047" xlink:href="#e"/>
<use x="95.410156" xlink:href="#c"/>
</g>
</g>
<g clip-path="url(#a)">
<defs>
<path id="n" d="m19.188 8.2969h34.422v-8.2969h-46.281v8.2969q5.6094 5.8125 15.297 15.594 9.7031 9.7969 12.188 12.641 4.7344 5.3125 6.6094 9 1.8906 3.6875 1.8906 7.25 0 5.8125-4.0781 9.4688-4.0781 3.6719-10.625 3.6719-4.6406 0-9.7969-1.6094-5.1406-1.6094-11-4.8906v9.9688q5.9531 2.3906 11.125 3.6094 5.1875 1.2188 9.4844 1.2188 11.328 0 18.062-5.6719 6.7344-5.6562 6.7344-15.125 0-4.5-1.6875-8.5312-1.6719-4.0156-6.125-9.4844-1.2188-1.4219-7.7656-8.1875-6.5312-6.7656-18.453-18.922z"/>
</defs>
<g transform="translate(56.533 604.36) scale(.1 -.1)">
<use xlink:href="#c"/>
<use x="63.623047" xlink:href="#e"/>
<use x="95.410156" xlink:href="#n"/>
</g>
</g>
<g clip-path="url(#a)">
<defs>
<path id="m" d="m40.578 39.312q7.0781-1.5156 11.047-6.3125 3.9844-4.7812 3.9844-11.812 0-10.781-7.4219-16.703-7.4219-5.9062-21.094-5.9062-4.5781 0-9.4375 0.90625t-10.031 2.7188v9.5156q4.0938-2.3906 8.9688-3.6094 4.8906-1.2188 10.219-1.2188 9.2656 0 14.125 3.6562t4.8594 10.641q0 6.4531-4.5156 10.078-4.5156 3.6406-12.562 3.6406h-8.5v8.1094h8.8906q7.2656 0 11.125 2.9062t3.8594 8.375q0 5.6094-3.9844 8.6094-3.9688 3.0156-11.391 3.0156-4.0625 0-8.7031-0.89062-4.6406-0.875-10.203-2.7188v8.7812q5.625 1.5625 10.531 2.3438t9.25 0.78125q11.234 0 17.766-5.1094 6.5469-5.0938 6.5469-13.781 0-6.0625-3.4688-10.234t-9.8594-5.7812z"/>
</defs>
<g transform="translate(112.76 378.44) scale(.1 -.1)">
<use xlink:href="#c"/>
<use x="63.623047" xlink:href="#e"/>
<use x="95.410156" xlink:href="#m"/>
</g>
</g>
<g clip-path="url(#a)">
<defs>
<path id="o" d="m37.797 64.312-24.906-38.922h24.906zm-2.5938 8.5938h12.406v-47.516h10.406v-8.2031h-10.406v-17.188h-9.8125v17.188h-32.906v9.5156z"/>
</defs>
<g transform="translate(265.9 150.86) scale(.1 -.1)">
<use xlink:href="#c"/>
<use x="63.623047" xlink:href="#e"/>
<use x="95.410156" xlink:href="#o"/>
</g>
</g>
<g clip-path="url(#a)">
<defs>
<path id="ai" d="m31.781 66.406q-7.6094 0-11.453-7.5-3.8281-7.4844-3.8281-22.531 0-14.984 3.8281-22.484 3.8438-7.5 11.453-7.5 7.6719 0 11.5 7.5 3.8438 7.5 3.8438 22.484 0 15.047-3.8438 22.531-3.8281 7.5-11.5 7.5zm0 7.8125q12.266 0 18.734-9.7031 6.4688-9.6875 6.4688-28.141 0-18.406-6.4688-28.109-6.4688-9.6875-18.734-9.6875-12.25 0-18.719 9.6875-6.4688 9.7031-6.4688 28.109 0 18.453 6.4688 28.141 6.4688 9.7031 18.719 9.7031z"/>
</defs>
<g transform="translate(107.09 604.36) scale(.1 -.1)">
<use xlink:href="#c"/>
<use x="63.623047" xlink:href="#e"/>
<use x="95.410156" xlink:href="#c"/>
<use x="159.033203" xlink:href="#ai"/>
</g>
</g>
<g clip-path="url(#a)">
<g transform="translate(152.87 491.7) scale(.1 -.1)">
<use xlink:href="#c"/>
<use x="63.623047" xlink:href="#e"/>
<use x="95.410156" xlink:href="#c"/>
<use x="159.033203" xlink:href="#c"/>
</g>
</g>
<g clip-path="url(#a)">
<g transform="translate(528.19 264.79) scale(.1 -.1)">
<use xlink:href="#c"/>
<use x="63.623047" xlink:href="#e"/>
<use x="95.410156" xlink:href="#c"/>
<use x="159.033203" xlink:href="#n"/>
</g>
</g>
<g clip-path="url(#a)">
<g transform="translate(366.82 378.44) scale(.1 -.1)">
<use xlink:href="#c"/>
<use x="63.623047" xlink:href="#e"/>
<use x="95.410156" xlink:href="#c"/>
<use x="159.033203" xlink:href="#m"/>
</g>
</g>
<g clip-path="url(#a)">
<g transform="translate(716.58 378.44) scale(.1 -.1)">
<use xlink:href="#c"/>
<use x="63.623047" xlink:href="#e"/>
<use x="95.410156" xlink:href="#c"/>
<use x="159.033203" xlink:href="#o"/>
</g>
</g>
<g clip-path="url(#a)">
<defs>
<path id="ag" d="m33.016 40.375q-6.6406 0-10.531-4.5469-3.875-4.5312-3.875-12.438 0-7.8594 3.875-12.438 3.8906-4.5625 10.531-4.5625t10.516 4.5625q3.875 4.5781 3.875 12.438 0 7.9062-3.875 12.438-3.875 4.5469-10.516 4.5469zm19.578 30.922v-8.9844q-3.7188 1.75-7.5 2.6719-3.7812 0.9375-7.5 0.9375-9.7656 0-14.922-6.5938-5.1406-6.5938-5.875-19.922 2.875 4.25 7.2188 6.5156 4.3594 2.2656 9.5781 2.2656 10.984 0 17.359-6.6719 6.375-6.6562 6.375-18.125 0-11.234-6.6406-18.031-6.6406-6.7812-17.672-6.7812-12.656 0-19.344 9.6875-6.6875 9.7031-6.6875 28.109 0 17.281 8.2031 27.562t22.016 10.281q3.7188 0 7.5-0.73438t7.8906-2.1875z"/>
</defs>
<g transform="translate(554.9 604.36) scale(.1 -.1)">
<use xlink:href="#c"/>
<use x="63.623047" xlink:href="#e"/>
<use x="95.410156" xlink:href="#c"/>
<use x="159.033203" xlink:href="#ag"/>
</g>
</g>
<g clip-path="url(#a)">
<defs>
<path id="af" d="m8.2031 72.906h46.875v-4.2031l-26.469-68.703h-10.297l24.906 64.594h-35.016z"/>
</defs>
<g transform="translate(611.62 604.36) scale(.1 -.1)">
<use xlink:href="#c"/>
<use x="63.623047" xlink:href="#e"/>
<use x="95.410156" xlink:href="#c"/>
<use x="159.033203" xlink:href="#af"/>
</g>
</g>
<g clip-path="url(#a)">
<defs>
<path id="ae" d="m31.781 34.625q-7.0312 0-11.062-3.7656-4.0156-3.7656-4.0156-10.344 0-6.5938 4.0156-10.359 4.0312-3.7656 11.062-3.7656t11.078 3.7812q4.0625 3.7969 4.0625 10.344 0 6.5781-4.0312 10.344-4.0156 3.7656-11.109 3.7656zm-9.8594 4.1875q-6.3438 1.5625-9.8906 5.9062-3.5312 4.3594-3.5312 10.609 0 8.7344 6.2188 13.812 6.2344 5.0781 17.062 5.0781 10.891 0 17.094-5.0781t6.2031-13.812q0-6.25-3.5469-10.609-3.5312-4.3438-9.8281-5.9062 7.125-1.6562 11.094-6.5 3.9844-4.8281 3.9844-11.797 0-10.609-6.4688-16.281-6.4688-5.6562-18.531-5.6562-12.047 0-18.531 5.6562-6.4688 5.6719-6.4688 16.281 0 6.9688 4 11.797 4.0156 4.8438 11.141 6.5zm-3.6094 15.578q0-5.6562 3.5312-8.8281 3.5469-3.1719 9.9375-3.1719 6.3594 0 9.9375 3.1719 3.5938 3.1719 3.5938 8.8281 0 5.6719-3.5938 8.8438-3.5781 3.1719-9.9375 3.1719-6.3906 0-9.9375-3.1719-3.5312-3.1719-3.5312-8.8438z"/>
</defs>
<g transform="translate(671.33 604.36) scale(.1 -.1)">
<use xlink:href="#c"/>
<use x="63.623047" xlink:href="#e"/>
<use x="95.410156" xlink:href="#c"/>
<use x="159.033203" xlink:href="#ae"/>
</g>
</g>
<g clip-path="url(#a)">
<defs>
<path id="ad" d="m10.984 1.5156v8.9844q3.7188-1.7656 7.5156-2.6875 3.8125-0.92188 7.4844-0.92188 9.7656 0 14.906 6.5625 5.1562 6.5625 5.8906 19.953-2.8281-4.2031-7.1875-6.4531-4.3438-2.25-9.6094-2.25-10.938 0-17.312 6.6094-6.375 6.625-6.375 18.109 0 11.219 6.6406 18 6.6406 6.7969 17.672 6.7969 12.656 0 19.312-9.7031 6.6719-9.6875 6.6719-28.141 0-17.234-8.1875-27.516-8.1719-10.281-21.984-10.281-3.7188 0-7.5312 0.73438-3.7969 0.73438-7.9062 2.2031zm19.625 30.906q6.6406 0 10.516 4.5312 3.8906 4.5469 3.8906 12.469 0 7.8594-3.8906 12.422-3.875 4.5625-10.516 4.5625t-10.516-4.5625-3.875-12.422q0-7.9219 3.875-12.469 3.875-4.5312 10.516-4.5312z"/>
</defs>
<g transform="translate(1011 491.7) scale(.1 -.1)">
<use xlink:href="#c"/>
<use x="63.623047" xlink:href="#e"/>
<use x="95.410156" xlink:href="#c"/>
<use x="159.033203" xlink:href="#ad"/>
</g>
</g>
<g clip-path="url(#a)">
<g transform="translate(799.7 604.36) scale(.1 -.1)">
<use xlink:href="#c"/>
<use x="63.623047" xlink:href="#e"/>
<use x="95.410156" xlink:href="#n"/>
<use x="159.033203" xlink:href="#c"/>
</g>
</g>
<g clip-path="url(#a)">
<g transform="translate(868.37 604.36) scale(.1 -.1)">
<use xlink:href="#c"/>
<use x="63.623047" xlink:href="#e"/>
<use x="95.410156" xlink:href="#n"/>
<use x="159.033203" xlink:href="#n"/>
</g>
</g>
<g clip-path="url(#a)">
<g transform="translate(940.02 604.36) scale(.1 -.1)">
<use xlink:href="#c"/>
<use x="63.623047" xlink:href="#e"/>
<use x="95.410156" xlink:href="#n"/>
<use x="159.033203" xlink:href="#m"/>
</g>
</g>
<g clip-path="url(#a)">
<g transform="translate(1014.7 604.36) scale(.1 -.1)">
<use xlink:href="#c"/>
<use x="63.623047" xlink:href="#e"/>
<use x="95.410156" xlink:href="#n"/>
<use x="159.033203" xlink:href="#o"/>
</g>
</g>
<g clip-path="url(#a)">
<defs>
<path id="ah" d="m10.797 72.906h38.719v-8.3125h-29.688v-17.859q2.1406 0.73438 4.2812 1.0938 2.1562 0.35938 4.3125 0.35938 12.203 0 19.328-6.6875 7.1406-6.6875 7.1406-18.109 0-11.766-7.3281-18.297-7.3281-6.5156-20.656-6.5156-4.5938 0-9.3594 0.78125-4.75 0.78125-9.8281 2.3438v9.9219q4.3906-2.3906 9.0781-3.5625t9.9062-1.1719q8.4531 0 13.375 4.4375 4.9375 4.4375 4.9375 12.062 0 7.6094-4.9375 12.047-4.9219 4.4531-13.375 4.4531-3.9531 0-7.8906-0.875-3.9219-0.875-8.0156-2.7344z"/>
</defs>
<g transform="translate(1092.3 604.36) scale(.1 -.1)">
<use xlink:href="#c"/>
<use x="63.623047" xlink:href="#e"/>
<use x="95.410156" xlink:href="#n"/>
<use x="159.033203" xlink:href="#ah"/>
</g>
</g>
<g clip-path="url(#a)">
<g transform="translate(1172.9 604.36) scale(.1 -.1)">
<use xlink:href="#c"/>
<use x="63.623047" xlink:href="#e"/>
<use x="95.410156" xlink:href="#n"/>
<use x="159.033203" xlink:href="#ag"/>
</g>
</g>
<g clip-path="url(#a)">
<g transform="translate(316.07 604.36) scale(.1 -.1)">
<use xlink:href="#c"/>
<use x="63.623047" xlink:href="#e"/>
<use x="95.410156" xlink:href="#n"/>
<use x="159.033203" xlink:href="#af"/>
</g>
</g>
<g clip-path="url(#a)">
<g transform="translate(357.86 604.36) scale(.1 -.1)">
<use xlink:href="#c"/>
<use x="63.623047" xlink:href="#e"/>
<use x="95.410156" xlink:href="#n"/>
<use x="159.033203" xlink:href="#ae"/>
</g>
</g>
<g clip-path="url(#a)">
<g transform="translate(426.53 491.7) scale(.1 -.1)">
<use xlink:href="#c"/>
<use x="63.623047" xlink:href="#e"/>
<use x="95.410156" xlink:href="#n"/>
<use x="159.033203" xlink:href="#ad"/>
</g>
</g>
<g clip-path="url(#a)">
<g transform="translate(402.64 604.36) scale(.1 -.1)">
<use xlink:href="#c"/>
<use x="63.623047" xlink:href="#e"/>
<use x="95.410156" xlink:href="#m"/>
<use x="159.033203" xlink:href="#ai"/>
</g>
</g>
<g clip-path="url(#a)">
<g transform="translate(450.41 604.36) scale(.1 -.1)">
<use xlink:href="#c"/>
<use x="63.623047" xlink:href="#e"/>
<use x="95.410156" xlink:href="#m"/>
<use x="159.033203" xlink:href="#c"/>
</g>
</g>
<g clip-path="url(#a)">
<g transform="translate(127.99 604.36) scale(.1 -.1)">
<use xlink:href="#c"/>
<use x="63.623047" xlink:href="#e"/>
<use x="95.410156" xlink:href="#m"/>
<use x="159.033203" xlink:href="#n"/>
</g>
</g>
<g clip-path="url(#a)">
<g transform="translate(151.87 604.36) scale(.1 -.1)">
<use xlink:href="#c"/>
<use x="63.623047" xlink:href="#e"/>
<use x="95.410156" xlink:href="#m"/>
<use x="159.033203" xlink:href="#m"/>
</g>
</g>
<g clip-path="url(#a)">
<g transform="translate(178.74 604.36) scale(.1 -.1)">
<use xlink:href="#c"/>
<use x="63.623047" xlink:href="#e"/>
<use x="95.410156" xlink:href="#m"/>
<use x="159.033203" xlink:href="#o"/>
</g>
</g>
<g clip-path="url(#a)">
<g transform="translate(75.743 491.7) scale(.1 -.1)">
<use xlink:href="#c"/>
<use x="63.623047" xlink:href="#e"/>
<use x="95.410156" xlink:href="#m"/>
<use x="159.033203" xlink:href="#ah"/>
</g>
</g>
<g clip-path="url(#a)">
<g transform="translate(74.25 604.36) scale(.1 -.1)">
<use xlink:href="#c"/>
<use x="63.623047" xlink:href="#e"/>
<use x="95.410156" xlink:href="#m"/>
<use x="159.033203" xlink:href="#ag"/>
</g>
</g>
<g clip-path="url(#a)">
<g transform="translate(62.308 604.36) scale(.1 -.1)">
<use xlink:href="#c"/>
<use x="63.623047" xlink:href="#e"/>
<use x="95.410156" xlink:href="#m"/>
<use x="159.033203" xlink:href="#af"/>
</g>
</g>
<g clip-path="url(#a)">
<g transform="translate(89.177 604.36) scale(.1 -.1)">
<use xlink:href="#c"/>
<use x="63.623047" xlink:href="#e"/>
<use x="95.410156" xlink:href="#m"/>
<use x="159.033203" xlink:href="#ae"/>
</g>
</g>
<g clip-path="url(#a)">
<g transform="translate(208.59 604.36) scale(.1 -.1)">
<use xlink:href="#c"/>
<use x="63.623047" xlink:href="#e"/>
<use x="95.410156" xlink:href="#m"/>
<use x="159.033203" xlink:href="#ad"/>
</g>
</g>
<g clip-path="url(#a)">
<g transform="translate(241.43 604.36) scale(.1 -.1)">
<use xlink:href="#c"/>
<use x="63.623047" xlink:href="#e"/>
<use x="95.410156" xlink:href="#o"/>
<use x="159.033203" xlink:href="#ai"/>
</g>
</g>
<g clip-path="url(#a)">
<g transform="translate(277.26 604.36) scale(.1 -.1)">
<use xlink:href="#c"/>
<use x="63.623047" xlink:href="#e"/>
<use x="95.410156" xlink:href="#o"/>
<use x="159.033203" xlink:href="#c"/>
</g>
</g>
<g clip-path="url(#a)">
<g transform="translate(501.16 604.36) scale(.1 -.1)">
<use xlink:href="#c"/>
<use x="63.623047" xlink:href="#e"/>
<use x="95.410156" xlink:href="#o"/>
<use x="159.033203" xlink:href="#n"/>
</g>
</g>
<g clip-path="url(#a)">
<g transform="translate(734.03 604.36) scale(.1 -.1)">
<use xlink:href="#c"/>
<use x="63.623047" xlink:href="#e"/>
<use x="95.410156" xlink:href="#o"/>
<use x="159.033203" xlink:href="#m"/>
</g>
</g>
<g clip-path="url(#a)">
<g transform="translate(1256.5 604.36) scale(.1 -.1)">
<use xlink:href="#c"/>
<use x="63.623047" xlink:href="#e"/>
<use x="95.410156" xlink:href="#o"/>
<use x="159.033203" xlink:href="#o"/>
</g>
</g>
<g clip-path="url(#a)">
<g transform="translate(1343 604.36) scale(.1 -.1)">
<use xlink:href="#c"/>
<use x="63.623047" xlink:href="#e"/>
<use x="95.410156" xlink:href="#o"/>
<use x="159.033203" xlink:href="#ah"/>
</g>
</g>
<defs>
<clipPath id="a">
<rect width="1418.7" height="746.67"/>
</clipPath>
</defs>
</svg>
