<?xml version="1.0" encoding="UTF-8"?>
<!DOCTYPE svg  PUBLIC '-//W3C//DTD SVG 1.1//EN'  'http://www.w3.org/Graphics/SVG/1.1/DTD/svg11.dtd'>
<svg width="1621.3pt" height="853.33pt" version="1.1" viewBox="0 0 1621.3 853.33" xmlns="http://www.w3.org/2000/svg" xmlns:xlink="http://www.w3.org/1999/xlink">
<defs>
<style type="text/css">*{stroke-linecap:butt;stroke-linejoin:round;}</style>
</defs>
<path d="m0 853.33h1621.3v-853.33h-1621.3z" fill="#fff"/>
<g fill="none" stroke="#000">
<path d="m398.99 38.788-243.48 312.67" clip-path="url(#a)"/>
<path d="m398.99 38.788 409.89 156.53" clip-path="url(#a)"/>
<path d="m398.99 38.788-93.261 623.08" clip-path="url(#a)"/>
<path d="m398.99 38.788-56.347 623.08" clip-path="url(#a)"/>
<path d="m398.99 38.788-16.796 623.08" clip-path="url(#a)"/>
<path d="m155.51 351.46-69.068 155.61" clip-path="url(#a)"/>
<path d="m155.51 351.46 28.931 310.41" clip-path="url(#a)"/>
<path d="m155.51 351.46 85.181 155.61" clip-path="url(#a)"/>
<path d="m155.51 351.46-34.351 310.41" clip-path="url(#a)"/>
<path d="m155.51 351.46-15.894 310.41" clip-path="url(#a)"/>
<path d="m155.51 351.46 5.2002 310.41" clip-path="url(#a)"/>
<path d="m808.88 195.32 86.824 156.14" clip-path="url(#a)"/>
<path d="m808.88 195.32-75.995 466.55" clip-path="url(#a)"/>
<path d="m808.88 195.32 16.291 156.14" clip-path="url(#a)"/>
<path d="m808.88 195.32-189.37 466.55" clip-path="url(#a)"/>
<path d="m808.88 195.32-134 466.55" clip-path="url(#a)"/>
<path d="m808.88 195.32 113.85 466.55" clip-path="url(#a)"/>
<path d="m808.88 195.32 182.41 466.55" clip-path="url(#a)"/>
<path d="m895.7 351.46-401.44 155.61" clip-path="url(#a)"/>
<path d="m895.7 351.46 401.44 155.61" clip-path="url(#a)"/>
<path d="m732.88 661.87v152.67" clip-path="url(#a)"/>
<path d="m825.17 351.46-31.641 310.41" clip-path="url(#a)"/>
<path d="m825.17 351.46 31.641 155.61" clip-path="url(#a)"/>
<path d="m793.53 661.87v152.67" clip-path="url(#a)"/>
<path d="m856.81 507.07v154.8" clip-path="url(#a)"/>
<path d="m856.81 661.87v152.67" clip-path="url(#a)"/>
<path d="m494.26 507.07-69.874 154.8" clip-path="url(#a)"/>
<path d="m494.26 507.07-25.049 154.8" clip-path="url(#a)"/>
<path d="m494.26 507.07 22.412 154.8" clip-path="url(#a)"/>
<path d="m494.26 507.07 72.51 154.8" clip-path="url(#a)"/>
<path d="m1297.1 507.07 250.49 154.8" clip-path="url(#a)"/>
<path d="m1297.1 507.07-234.67 154.8" clip-path="url(#a)"/>
<path d="m1297.1 507.07-160.84 154.8" clip-path="url(#a)"/>
<path d="m1297.1 507.07-84.376 154.8" clip-path="url(#a)"/>
<path d="m1297.1 507.07-5.2735 154.8" clip-path="url(#a)"/>
<path d="m1297.1 507.07 76.466 154.8" clip-path="url(#a)"/>
<path d="m1297.1 507.07 160.84 154.8" clip-path="url(#a)"/>
<path d="m1297.1 507.07 247.85 154.8" clip-path="url(#a)"/>
<path d="m1062.5 661.87v152.67" clip-path="url(#a)"/>
<path d="m1136.3 661.87v152.67" clip-path="url(#a)"/>
<path d="m1212.8 661.87v152.67" clip-path="url(#a)"/>
<path d="m424.38 661.87v152.67" clip-path="url(#a)"/>
<path d="m469.21 661.87v152.67" clip-path="url(#a)"/>
<path d="m516.67 661.87v152.67" clip-path="url(#a)"/>
<path d="m566.77 661.87v152.67" clip-path="url(#a)"/>
<path d="m86.441 507.07-12.744 154.8" clip-path="url(#a)"/>
<path d="m86.441 507.07 7.0313 154.8" clip-path="url(#a)"/>
<path d="m86.441 507.07 5.7129 154.8" clip-path="url(#a)"/>
<path d="m184.44 661.87v152.67" clip-path="url(#a)"/>
<path d="m240.69 507.07-29.883 154.8" clip-path="url(#a)"/>
<path d="m240.69 507.07-0.87891 154.8" clip-path="url(#a)"/>
<path d="m240.69 507.07 30.762 154.8" clip-path="url(#a)"/>
<path d="m121.16 661.87v152.67" clip-path="url(#a)"/>
<path d="m139.62 661.87v152.67" clip-path="url(#a)"/>
<path d="m160.71 661.87v152.67" clip-path="url(#a)"/>
<path d="m210.81 661.87v152.67" clip-path="url(#a)"/>
<path d="m239.81 661.87v152.67" clip-path="url(#a)"/>
<path d="m271.45 661.87v152.67" clip-path="url(#a)"/>
<path d="m73.697 661.87v152.67" clip-path="url(#a)"/>
<path d="m93.473 661.87-11.865 152.67" clip-path="url(#a)"/>
<path d="m93.473 661.87 11.865 152.67" clip-path="url(#a)"/>
<path d="m92.154 661.87v152.67" clip-path="url(#a)"/>
<path d="m305.73 661.87v152.67" clip-path="url(#a)"/>
<path d="m342.64 661.87v152.67" clip-path="url(#a)"/>
<path d="m382.2 661.87v152.67" clip-path="url(#a)"/>
<path d="m619.5 661.87v152.67" clip-path="url(#a)"/>
<path d="m674.87 661.87v152.67" clip-path="url(#a)"/>
<path d="m922.73 661.87v152.67" clip-path="url(#a)"/>
<path d="m991.28 661.87v152.67" clip-path="url(#a)"/>
<path d="m1291.9 661.87v152.67" clip-path="url(#a)"/>
<path d="m1373.6 661.87v152.67" clip-path="url(#a)"/>
<path d="m1458 661.87v152.67" clip-path="url(#a)"/>
<path d="m1545 661.87v152.67" clip-path="url(#a)"/>
</g>
<path d="m280.35 201.35 3.6964-4.7468q1.4746-1.8936-0.41904-3.3681l-6.1088-4.757q-1.8936-1.4746-3.3681 0.41904l-3.6964 4.7468q-1.4746 1.8936 0.41904 3.3681l6.1088 4.757q1.8936 1.4746 3.3681-0.41904z" clip-path="url(#a)" fill="#fff" stroke="#fff"/>
<g clip-path="url(#a)">
<defs>
<path id="z" d="m9.8125 72.906h9.8594v-29.891h35.844v29.891h9.8594v-72.906h-9.8594v34.719h-35.844v-34.719h-9.8594z"/>
</defs>
<g transform="translate(277.14 198.85) rotate(-52.092) scale(.08 -.08)">
<use xlink:href="#z"/>
</g>
</g>
<path d="m598.89 121.84 5.6203 2.1464q2.2421 0.85624 3.0983-1.3858l2.7623-7.233q0.85624-2.2421-1.3858-3.0983l-5.6203-2.1464q-2.2421-0.85624-3.0983 1.3858l-2.7623 7.233q-0.85624 2.2421 1.3858 3.0983z" clip-path="url(#a)" fill="#fff" stroke="#fff"/>
<g clip-path="url(#a)">
<g transform="translate(600.34 118.04) rotate(20.902) scale(.08 -.08)">
<use xlink:href="#z"/>
</g>
</g>
<path d="m358.13 354.15 0.8667-5.7905q0.35527-2.3736-2.0183-2.7288l-7.6572-1.1461q-2.3736-0.35527-2.7288 2.0183l-0.8667 5.7905q-0.35527 2.3736 2.0183 2.7288l7.6572 1.1461q2.3736 0.35527 2.7288-2.0183z" clip-path="url(#a)" fill="#fff" stroke="#fff"/>
<g clip-path="url(#a)">
<defs>
<path id="o" d="m8.6875 72.906h9.9219v-44.297q0-11.719 4.2344-16.875 4.25-5.1406 13.781-5.1406 9.4688 0 13.719 5.1406 4.25 5.1562 4.25 16.875v44.297h9.9062v-45.516q0-14.25-7.0625-21.531-7.0469-7.2812-20.812-7.2812-13.828 0-20.891 7.2812-7.0469 7.2812-7.0469 21.531z"/>
</defs>
<g transform="translate(354.11 353.55) rotate(-81.487) scale(.08 -.08)">
<use xlink:href="#o"/>
</g>
</g>
<path d="m376.8 353.81 0.52733-5.8312q0.21616-2.3902-2.1741-2.6064l-7.711-0.69733q-2.3902-0.21616-2.6064 2.1741l-0.52733 5.8312q-0.21616 2.3902 2.1741 2.6064l7.711 0.69733q2.3902 0.21616 2.6064-2.1741z" clip-path="url(#a)" fill="#fff" stroke="#fff"/>
<g clip-path="url(#a)">
<g transform="translate(372.75 353.44) rotate(-84.833) scale(.08 -.08)">
<use xlink:href="#o"/>
</g>
</g>
<path d="m396.78 353.42 0.15777-5.8529q0.06467-2.3991-2.3345-2.4638l-7.7397-0.20863q-2.3991-0.06467-2.4638 2.3345l-0.15777 5.8529q-0.06467 2.3991 2.3345 2.4638l7.7397 0.20863q2.3991 0.06467 2.4638-2.3345z" clip-path="url(#a)" fill="#fff" stroke="#fff"/>
<g clip-path="url(#a)">
<g transform="translate(392.72 353.32) rotate(-88.456) scale(.08 -.08)">
<use xlink:href="#o"/>
</g>
</g>
<path d="m125.6 434.31 2.2201-5.0019q0.97365-2.1936-1.22-3.1673l-7.0767-3.141q-2.1936-0.97365-3.1673 1.22l-2.2201 5.0019q-0.97365 2.1936 1.22 3.1673l7.0767 3.141q2.1936 0.97365 3.1673-1.22z" clip-path="url(#a)" fill="#fff" stroke="#fff"/>
<g clip-path="url(#a)">
<defs>
<path id="q" d="m34.188 63.188-13.391-36.281h26.812zm-5.5781 9.7188h11.188l27.781-72.906h-10.25l-6.6406 18.703h-32.859l-6.6406-18.703h-10.406z"/>
</defs>
<g transform="translate(121.88 432.66) rotate(-66.066) scale(.08 -.08)">
<use xlink:href="#q"/>
</g>
</g>
<path d="m163.51 504.85 0.44765 4.8029q0.22272 2.3896 2.6124 2.1669l7.7091-0.71851q2.3896-0.22272 2.1669-2.6124l-0.44765-4.8029q-0.22272-2.3896-2.6124-2.1669l-7.7091 0.71851q-2.3896 0.22272-2.1669 2.6124z" clip-path="url(#a)" fill="#fff" stroke="#fff"/>
<g clip-path="url(#a)">
<defs>
<path id="t" d="m19.672 64.797v-27.391h12.406q6.8906 0 10.641 3.5625 3.7656 3.5625 3.7656 10.156 0 6.5469-3.7656 10.109-3.75 3.5625-10.641 3.5625zm-9.8594 8.1094h22.266q12.266 0 18.531-5.5469 6.2812-5.5469 6.2812-16.234 0-10.797-6.2812-16.312-6.2656-5.5156-18.531-5.5156h-12.406v-29.297h-9.8594z"/>
</defs>
<g transform="translate(167.55 504.47) rotate(84.675) scale(.08 -.08)">
<use xlink:href="#t"/>
</g>
</g>
<path d="m191.29 429.88 2.6277 4.8003q1.1524 2.1052 3.2576 0.95282l6.7915-3.7177q2.1052-1.1524 0.95282-3.2576l-2.6277-4.8003q-1.1524-2.1052-3.2576-0.95282l-6.7915 3.7177q-2.1052 1.1524-0.95282 3.2576z" clip-path="url(#a)" fill="#fff" stroke="#fff"/>
<g clip-path="url(#a)">
<g transform="translate(194.85 427.93) rotate(61.304) scale(.08 -.08)">
<use xlink:href="#q"/>
</g>
</g>
<path d="m144.24 510.27 0.644-5.8195q0.26398-2.3854-2.1215-2.6494l-7.6955-0.85161q-2.3854-0.26398-2.6494 2.1215l-0.644 5.8195q-0.26398 2.3854 2.1215 2.6494l7.6955 0.85161q2.3854 0.26398 2.6494-2.1215z" clip-path="url(#a)" fill="#fff" stroke="#fff"/>
<g clip-path="url(#a)">
<g transform="translate(140.21 509.82) rotate(-83.685) scale(.08 -.08)">
<use xlink:href="#o"/>
</g>
</g>
<path d="m153.68 509.91 0.2994-5.8473q0.12272-2.3969-2.2741-2.5196l-7.7324-0.39592q-2.3969-0.12272-2.5196 2.2741l-0.2994 5.8473q-0.12272 2.3969 2.2741 2.5196l7.7324 0.39592q2.3969 0.12273 2.5196-2.2741z" clip-path="url(#a)" fill="#fff" stroke="#fff"/>
<g clip-path="url(#a)">
<g transform="translate(149.62 509.7) rotate(-87.069) scale(.08 -.08)">
<use xlink:href="#o"/>
</g>
</g>
<path d="m151.79 503.84 0.098074 5.8542q0.040202 2.3997 2.4399 2.3595l7.7414-0.12969q2.3997-0.040202 2.3595-2.4399l-0.098075-5.8542q-0.040201-2.3997-2.4399-2.3595l-7.7414 0.12969q-2.3997 0.040201-2.3595 2.4399z" clip-path="url(#a)" fill="#fff" stroke="#fff"/>
<g clip-path="url(#a)">
<g transform="translate(155.85 503.78) rotate(89.04) scale(.08 -.08)">
<use xlink:href="#o"/>
</g>
</g>
<path d="m845.48 274.05 2.6595 4.7828q1.1664 2.0975 3.2639 0.93116l6.7667-3.7627q2.0975-1.1664 0.93116-3.2639l-2.6595-4.7828q-1.1664-2.0975-3.2639-0.93116l-6.7667 3.7627q-2.0975 1.1664-0.93116 3.2639z" clip-path="url(#a)" fill="#fff" stroke="#fff"/>
<g clip-path="url(#a)">
<g transform="translate(849.03 272.07) rotate(60.923) scale(.08 -.08)">
<use xlink:href="#q"/>
</g>
</g>
<path d="m776.68 431.99 0.77551-4.761q0.38584-2.3688-1.9829-2.7546l-7.6418-1.2447q-2.3688-0.38584-2.7546 1.9829l-0.77551 4.761q-0.38584 2.3688 1.9829 2.7546l7.6418 1.2447q2.3688 0.38584 2.7546-1.9829z" clip-path="url(#a)" fill="#fff" stroke="#fff"/>
<g clip-path="url(#a)">
<g transform="translate(772.67 431.33) rotate(-80.749) scale(.08 -.08)">
<use xlink:href="#t"/>
</g>
</g>
<path d="m810.5 271.32 0.56791 5.443q0.24906 2.387 2.6361 2.138l7.7007-0.80348q2.387-0.24906 2.138-2.6361l-0.56791-5.443q-0.24906-2.387-2.6361-2.138l-7.7007 0.80348q-2.387 0.24906-2.138 2.6361z" clip-path="url(#a)" fill="#fff" stroke="#fff"/>
<g clip-path="url(#a)">
<g transform="translate(814.54 270.9) rotate(84.043) scale(.08 -.08)">
<use xlink:href="#q"/>
</g>
</g>
<path d="m718.9 433.67 2.2021-5.4251q0.90265-2.2238-1.3211-3.1264l-7.174-2.912q-2.2238-0.90265-3.1264 1.3211l-2.2021 5.4251q-0.90265 2.2238 1.3211 3.1264l7.174 2.912q2.2238 0.90265 3.1264-1.3211z" clip-path="url(#a)" fill="#fff" stroke="#fff"/>
<g clip-path="url(#a)">
<g transform="translate(715.13 432.14) rotate(-67.907) scale(.08 -.08)">
<use xlink:href="#o"/>
</g>
</g>
<path d="m747.1 433.14 1.6163-5.6275q0.66255-2.3067-1.6442-2.9693l-7.4416-2.1374q-2.3067-0.66255-2.9693 1.6442l-1.6163 5.6275q-0.66255 2.3067 1.6442 2.9693l7.4416 2.1374q2.3067 0.66255 2.9693-1.6442z" clip-path="url(#a)" fill="#fff" stroke="#fff"/>
<g clip-path="url(#a)">
<g transform="translate(743.19 432.02) rotate(-73.975) scale(.08 -.08)">
<use xlink:href="#o"/>
</g>
</g>
<path d="m859.02 427.24 1.3881 5.6881q0.56897 2.3316 2.9006 1.7626l7.5218-1.8355q2.3316-0.56897 1.7626-2.9006l-1.3881-5.6881q-0.56897-2.3316-2.9006-1.7626l-7.5218 1.8355q-2.3316 0.56897-1.7626 2.9006z" clip-path="url(#a)" fill="#fff" stroke="#fff"/>
<g clip-path="url(#a)">
<g transform="translate(862.96 426.28) rotate(76.286) scale(.08 -.08)">
<use xlink:href="#o"/>
</g>
</g>
<path d="m893.17 428.15 2.132 5.453q0.87391 2.2352 3.1091 1.3613l7.211-2.8193q2.2352-0.87391 1.3613-3.1091l-2.132-5.453q-0.87391-2.2352-3.1091-1.3613l-7.211 2.8193q-2.2352 0.87391-1.3613 3.1091z" clip-path="url(#a)" fill="#fff" stroke="#fff"/>
<g clip-path="url(#a)">
<g transform="translate(896.96 426.67) rotate(68.646) scale(.08 -.08)">
<use xlink:href="#o"/>
</g>
</g>
<path d="m694.44 436.2 5.6096-2.1744q2.2378-0.86742 1.3703-3.1052l-2.7983-7.2191q-0.86742-2.2378-3.1052-1.3703l-5.6096 2.1744q-2.2378 0.86742-1.3703 3.1052l2.7983 7.2191q0.86742 2.2378 3.1052 1.3703z" clip-path="url(#a)" fill="#fff" stroke="#fff"/>
<g clip-path="url(#a)">
<g transform="translate(692.97 432.41) rotate(-21.188) scale(.08 -.08)">
<use xlink:href="#z"/>
</g>
</g>
<path d="m1091.4 434.03 5.6096 2.1744q2.2378 0.86742 3.1052-1.3703l2.7983-7.2191q0.86742-2.2378-1.3703-3.1052l-5.6096-2.1744q-2.2378-0.86742-3.1052 1.3703l-2.7983 7.2191q-0.86742 2.2378 1.3703 3.1052z" clip-path="url(#a)" fill="#fff" stroke="#fff"/>
<g clip-path="url(#a)">
<g transform="translate(1092.8 430.24) rotate(21.188) scale(.08 -.08)">
<use xlink:href="#z"/>
</g>
</g>
<path d="m726.61 721.3v33.808q0 2.4 2.4 2.4h7.7425q2.4 0 2.4-2.4v-33.808q0-2.4-2.4-2.4h-7.7425q-2.4 0-2.4 2.4z" clip-path="url(#a)" fill="#fff" stroke="#fff"/>
<g clip-path="url(#a)">
<defs>
<path id="l" d="m-0.29688 72.906h61.672v-8.3125h-25.875v-64.594h-9.9062v64.594h-25.891z"/>
<path id="d" d="m56.203 29.594v-4.3906h-41.312q0.59375-9.2812 5.5938-14.141t13.938-4.8594q5.1719 0 10.031 1.2656t9.6562 3.8125v-8.5q-4.8438-2.0469-9.9219-3.125t-10.297-1.0781q-13.094 0-20.734 7.6094-7.6406 7.625-7.6406 20.625 0 13.422 7.25 21.297 7.25 7.8906 19.562 7.8906 11.031 0 17.453-7.1094 6.4219-7.0938 6.4219-19.297zm-8.9844 2.6406q-0.09375 7.3594-4.125 11.75-4.0312 4.4062-10.672 4.4062-7.5156 0-12.031-4.25t-5.2031-11.969z"/>
<path id="h" d="m41.109 46.297q-1.5156 0.875-3.2969 1.2812-1.7812 0.42188-3.9219 0.42188-7.625 0-11.703-4.9531t-4.0781-14.234v-28.812h-9.0312v54.688h9.0312v-8.5q2.8438 4.9844 7.375 7.3906 4.5469 2.4219 11.047 2.4219 0.92188 0 2.0469-0.125 1.125-0.10938 2.4844-0.35938z"/>
<path id="k" d="m52 44.188q3.375 6.0625 8.0625 8.9375t11.031 2.875q8.5469 0 13.188-5.9844 4.6406-5.9688 4.6406-17v-33.016h-9.0312v32.719q0 7.8594-2.7969 11.656-2.7812 3.8125-8.4844 3.8125-6.9844 0-11.047-4.6406-4.0469-4.625-4.0469-12.641v-30.906h-9.0312v32.719q0 7.9062-2.7812 11.688t-8.5938 3.7812q-6.8906 0-10.953-4.6562-4.0469-4.6562-4.0469-12.625v-30.906h-9.0312v54.688h9.0312v-8.5q3.0781 5.0312 7.375 7.4219t10.203 2.3906q5.9688 0 10.141-3.0312 4.1719-3.0156 6.1719-8.7812z"/>
<path id="g" d="m9.4219 54.688h8.9844v-54.688h-8.9844zm0 21.297h8.9844v-11.391h-8.9844z"/>
<path id="f" d="m54.891 33.016v-33.016h-8.9844v32.719q0 7.7656-3.0312 11.609-3.0312 3.8594-9.0781 3.8594-7.2812 0-11.484-4.6406-4.2031-4.625-4.2031-12.641v-30.906h-9.0312v54.688h9.0312v-8.5q3.2344 4.9375 7.5938 7.375 4.375 2.4375 10.094 2.4375 9.4219 0 14.25-5.8281 4.8438-5.8281 4.8438-17.156z"/>
<path id="i" d="m34.281 27.484q-10.891 0-15.094-2.4844t-4.2031-8.5q0-4.7812 3.1562-7.5938 3.1562-2.7969 8.5625-2.7969 7.4844 0 12 5.2969t4.5156 14.078v2zm17.922 3.7188v-31.203h-8.9844v8.2969q-3.0781-4.9688-7.6719-7.3438t-11.234-2.375q-8.3906 0-13.359 4.7188-4.9531 4.7188-4.9531 12.625 0 9.2188 6.1719 13.906 6.1875 4.6875 18.438 4.6875h12.609v0.89062q0 6.2031-4.0781 9.5938t-11.453 3.3906q-4.6875 0-9.1406-1.125-4.4375-1.125-8.5312-3.375v8.3125q4.9219 1.9062 9.5625 2.8438 4.6406 0.95312 9.0312 0.95312 11.875 0 17.734-6.1562 5.8594-6.1406 5.8594-18.641z"/>
<path id="j" d="m9.4219 75.984h8.9844v-75.984h-8.9844z"/>
</defs>
<g transform="translate(730.68 721.3) rotate(90) scale(.08 -.08)">
<use xlink:href="#l"/>
<use x="44.083984" xlink:href="#d"/>
<use x="105.607422" xlink:href="#h"/>
<use x="144.970703" xlink:href="#k"/>
<use x="242.382812" xlink:href="#g"/>
<use x="270.166016" xlink:href="#f"/>
<use x="333.544922" xlink:href="#i"/>
<use x="394.824219" xlink:href="#j"/>
</g>
</g>
<path d="m815.35 509.59 0.4666-4.5775q0.24338-2.3876-2.1442-2.631l-7.7026-0.78515q-2.3876-0.24338-2.631 2.1442l-0.4666 4.5775q-0.24338 2.3876 2.1442 2.631l7.7026 0.78515q2.3876 0.24338 2.631-2.1442z" clip-path="url(#a)" fill="#fff" stroke="#fff"/>
<g clip-path="url(#a)">
<defs>
<path id="aa" d="m9.8125 72.906h41.891v-8.3125h-32.031v-21.484h28.906v-8.2969h-28.906v-34.812h-9.8594z"/>
</defs>
<g transform="translate(811.31 509.18) rotate(-84.18) scale(.08 -.08)">
<use xlink:href="#aa"/>
</g>
</g>
<path d="m834.29 427.78 1.1131 5.4742q0.47822 2.3519 2.8301 1.8737l7.5872-1.5427q2.3519-0.47822 1.8737-2.8301l-1.1131-5.4742q-0.47822-2.3519-2.8301-1.8737l-7.5872 1.5427q-2.3519 0.47822-1.8737 2.8301z" clip-path="url(#a)" fill="#fff" stroke="#fff"/>
<g clip-path="url(#a)">
<defs>
<path id="ai" d="m64.406 67.281v-10.391q-4.9844 4.6406-10.625 6.9219-5.6406 2.2969-11.984 2.2969-12.5 0-19.141-7.6406t-6.6406-22.094q0-14.406 6.6406-22.047t19.141-7.6406q6.3438 0 11.984 2.2969t10.625 6.9375v-10.312q-5.1719-3.5156-10.969-5.2812-5.7812-1.75-12.219-1.75-16.562 0-26.094 10.125-9.5156 10.141-9.5156 27.672 0 17.578 9.5156 27.703 9.5312 10.141 26.094 10.141 6.5312 0 12.312-1.7344 5.7969-1.7344 10.875-5.2031z"/>
</defs>
<g transform="translate(838.27 426.97) rotate(78.506) scale(.08 -.08)">
<use xlink:href="#ai"/>
</g>
</g>
<path d="m787.26 721.3v33.808q0 2.4 2.4 2.4h7.7425q2.4 0 2.4-2.4v-33.808q0-2.4-2.4-2.4h-7.7425q-2.4 0-2.4 2.4z" clip-path="url(#a)" fill="#fff" stroke="#fff"/>
<g clip-path="url(#a)">
<g transform="translate(791.32 721.3) rotate(90) scale(.08 -.08)">
<use xlink:href="#l"/>
<use x="44.083984" xlink:href="#d"/>
<use x="105.607422" xlink:href="#h"/>
<use x="144.970703" xlink:href="#k"/>
<use x="242.382812" xlink:href="#g"/>
<use x="270.166016" xlink:href="#f"/>
<use x="333.544922" xlink:href="#i"/>
<use x="394.824219" xlink:href="#j"/>
</g>
</g>
<path d="m850.41 577.85v13.246q0 2.4 2.4 2.4h8q2.4 0 2.4-2.4v-13.246q0-2.4-2.4-2.4h-8q-2.4 0-2.4 2.4z" clip-path="url(#a)" fill="#fff" stroke="#fff"/>
<g clip-path="url(#a)">
<defs>
<path id="y" d="m53.516 70.516v-9.625q-5.6094 2.6875-10.594 4-4.9844 1.3281-9.625 1.3281-8.0469 0-12.422-3.125t-4.375-8.8906q0-4.8438 2.9062-7.3125 2.9062-2.4531 11.016-3.9688l5.9531-1.2188q11.031-2.1094 16.281-7.4062t5.25-14.172q0-10.609-7.1094-16.078-7.0938-5.4688-20.812-5.4688-5.1719 0-11.016 1.1719-5.8281 1.1719-12.078 3.4688v10.156q6-3.3594 11.766-5.0781 5.7656-1.7031 11.328-1.7031 8.4375 0 13.031 3.3125 4.5938 3.3281 4.5938 9.4844 0 5.3594-3.2969 8.3906t-10.812 4.5469l-6.0156 1.1719q-11.031 2.1875-15.969 6.875-4.9219 4.6875-4.9219 13.047 0 9.6719 6.8125 15.234t18.766 5.5625q5.1406 0 10.453-0.9375 5.3281-0.92188 10.891-2.7656z"/>
<path id="ay" d="m21 76.422v-100h-8.2969v100z"/>
</defs>
<g transform="translate(854.7 577.85) rotate(90) scale(.08 -.08)">
<use xlink:href="#y"/>
<use x="63.476562" xlink:href="#ay"/>
<use x="97.167969" xlink:href="#q"/>
</g>
</g>
<path d="m850.54 721.3v33.808q0 2.4 2.4 2.4h7.7425q2.4 0 2.4-2.4v-33.808q0-2.4-2.4-2.4h-7.7425q-2.4 0-2.4 2.4z" clip-path="url(#a)" fill="#fff" stroke="#fff"/>
<g clip-path="url(#a)">
<g transform="translate(854.6 721.3) rotate(90) scale(.08 -.08)">
<use xlink:href="#l"/>
<use x="44.083984" xlink:href="#d"/>
<use x="105.607422" xlink:href="#h"/>
<use x="144.970703" xlink:href="#k"/>
<use x="242.382812" xlink:href="#g"/>
<use x="270.166016" xlink:href="#f"/>
<use x="333.544922" xlink:href="#i"/>
<use x="394.824219" xlink:href="#j"/>
</g>
</g>
<path d="m463.91 589.55 2.2515-4.9879q0.9874-2.1875-1.2001-3.1749l-7.0569-3.1854q-2.1875-0.9874-3.1749 1.2001l-2.2515 4.9879q-0.9874 2.1875 1.2001 3.1749l7.0569 3.1854q2.1875 0.98739 3.1749-1.2001z" clip-path="url(#a)" fill="#fff" stroke="#fff"/>
<g clip-path="url(#a)">
<g transform="translate(460.21 587.87) rotate(-65.706) scale(.08 -.08)">
<use xlink:href="#q"/>
</g>
</g>
<path d="m487.56 587.74 0.735-4.5422q0.38337-2.3692-1.9858-2.7526l-7.6431-1.2368q-2.3692-0.38338-2.7526 1.9858l-0.735 4.5422q-0.38338 2.3692 1.9858 2.7526l7.6431 1.2368q2.3692 0.38338 2.7526-1.9858z" clip-path="url(#a)" fill="#fff" stroke="#fff"/>
<g clip-path="url(#a)">
<g transform="translate(483.54 587.1) rotate(-80.808) scale(.08 -.08)">
<use xlink:href="#aa"/>
</g>
</g>
<path d="m498.82 582.32 0.88267 6.0964q0.3439 2.3752 2.7191 2.0313l7.6626-1.1094q2.3752-0.3439 2.0313-2.7191l-0.88267-6.0964q-0.3439-2.3752-2.7191-2.0313l-7.6626 1.1094q-2.3752 0.3439-2.0313 2.7191z" clip-path="url(#a)" fill="#fff" stroke="#fff"/>
<g clip-path="url(#a)">
<defs>
<path id="ah" d="m19.672 64.797v-56.688h11.922q15.094 0 22.094 6.8281 7 6.8438 7 21.594 0 14.641-7 21.453t-22.094 6.8125zm-9.8594 8.1094h20.266q21.188 0 31.094-8.8125 9.9219-8.8125 9.9219-27.562 0-18.859-9.9688-27.703-9.9531-8.8281-31.047-8.8281h-20.266z"/>
</defs>
<g transform="translate(502.84 581.74) rotate(81.762) scale(.08 -.08)">
<use xlink:href="#ah"/>
</g>
</g>
<path d="m523.76 584.83 2.1543 4.5992q1.0181 2.1734 3.1914 1.1553l7.0114-3.2843q2.1734-1.0181 1.1553-3.1914l-2.1543-4.5992q-1.0181-2.1734-3.1914-1.1553l-7.0114 3.2843q-2.1734 1.0181-1.1553 3.1914z" clip-path="url(#a)" fill="#fff" stroke="#fff"/>
<g clip-path="url(#a)">
<g transform="translate(527.44 583.11) rotate(64.901) scale(.08 -.08)">
<use xlink:href="#y"/>
</g>
</g>
<path d="m1416.8 588.37 4.6553 2.8769q2.0416 1.2617 3.3033-0.77994l4.0702-6.5863q1.2617-2.0416-0.77994-3.3033l-4.6553-2.8769q-2.0416-1.2617-3.3033 0.77994l-4.0702 6.5863q-1.2617 2.0416 0.77994 3.3033z" clip-path="url(#a)" fill="#fff" stroke="#fff"/>
<g clip-path="url(#a)">
<g transform="translate(1418.9 584.91) rotate(31.715) scale(.08 -.08)">
<use xlink:href="#q"/>
</g>
</g>
<path d="m1181 591.21 4.5682-3.0133q2.0034-1.3215 0.68187-3.3249l-4.2633-6.463q-1.3215-2.0034-3.3249-0.68187l-4.5682 3.0133q-2.0034 1.3215-0.68187 3.3249l4.2633 6.463q1.3215 2.0034 3.3249 0.68187z" clip-path="url(#a)" fill="#fff" stroke="#fff"/>
<g clip-path="url(#a)">
<g transform="translate(1178.7 587.82) rotate(-33.411) scale(.08 -.08)">
<use xlink:href="#q"/>
</g>
</g>
<path d="m1219.4 590.59 3.3153-3.1907q1.7292-1.6643 0.06497-3.3935l-5.369-5.5786q-1.6643-1.7292-3.3935-0.064969l-3.3153 3.1907q-1.7292 1.6643-0.06497 3.3935l5.369 5.5786q1.6643 1.7292 3.3935 0.06497z" clip-path="url(#a)" fill="#fff" stroke="#fff"/>
<g clip-path="url(#a)">
<g transform="translate(1216.6 587.66) rotate(-43.903) scale(.08 -.08)">
<use xlink:href="#aa"/>
</g>
</g>
<path d="m1259.3 589.59 2.3086-4.2354q1.1486-2.1073-0.95867-3.2559l-6.7982-3.7055q-2.1073-1.1486-3.2559 0.95867l-2.3086 4.2354q-1.1486 2.1073 0.95867 3.2559l6.7982 3.7055q2.1073 1.1486 3.2559-0.95867z" clip-path="url(#a)" fill="#fff" stroke="#fff"/>
<g clip-path="url(#a)">
<g transform="translate(1255.7 587.65) rotate(-61.407) scale(.08 -.08)">
<use xlink:href="#t"/>
</g>
</g>
<path d="m1300.7 587.61 0.19935-5.8516q0.081713-2.3986-2.3169-2.4803l-7.738-0.26361q-2.3986-0.081713-2.4803 2.3169l-0.19935 5.8516q-0.081713 2.3986 2.3169 2.4803l7.738 0.26361q2.3986 0.081713 2.4803-2.3169z" clip-path="url(#a)" fill="#fff" stroke="#fff"/>
<g clip-path="url(#a)">
<g transform="translate(1296.6 587.47) rotate(-88.049) scale(.08 -.08)">
<use xlink:href="#o"/>
</g>
</g>
<path d="m1328.5 584.62 2.5931 5.2495q1.0629 2.1518 3.2147 1.0889l6.9418-3.429q2.1518-1.0629 1.0889-3.2147l-2.5931-5.2495q-1.0629-2.1518-3.2147-1.0889l-6.9418 3.429q-2.1518 1.0629-1.0889 3.2147z" clip-path="url(#a)" fill="#fff" stroke="#fff"/>
<g clip-path="url(#a)">
<g transform="translate(1332.1 582.82) rotate(63.712) scale(.08 -.08)">
<use xlink:href="#o"/>
</g>
</g>
<path d="m1371.1 586.96 4.2186 4.0601q1.7292 1.6643 3.3935-0.064969l5.369-5.5786q1.6643-1.7292-0.064969-3.3935l-4.2186-4.0601q-1.7292-1.6643-3.3935 0.06497l-5.369 5.5786q-1.6643 1.7292 0.06497 3.3935z" clip-path="url(#a)" fill="#fff" stroke="#fff"/>
<g clip-path="url(#a)">
<g transform="translate(1373.9 584.03) rotate(43.903) scale(.08 -.08)">
<use xlink:href="#o"/>
</g>
</g>
<path d="m1415.3 588.24 4.966 3.1016q2.0356 1.2713 3.3069-0.76426l4.1014-6.5669q1.2713-2.0356-0.76426-3.3069l-4.966-3.1016q-2.0356-1.2713-3.3069 0.76426l-4.1014 6.5669q-1.2713 2.0356 0.76426 3.3069z" clip-path="url(#a)" fill="#fff" stroke="#fff"/>
<g clip-path="url(#a)">
<g transform="translate(1417.4 584.79) rotate(31.987) scale(.08 -.08)">
<use xlink:href="#o"/>
</g>
</g>
<path d="m1056.2 721.3v33.808q0 2.4 2.4 2.4h7.7425q2.4 0 2.4-2.4v-33.808q0-2.4-2.4-2.4h-7.7425q-2.4 0-2.4 2.4z" clip-path="url(#a)" fill="#fff" stroke="#fff"/>
<g clip-path="url(#a)">
<g transform="translate(1060.3 721.3) rotate(90) scale(.08 -.08)">
<use xlink:href="#l"/>
<use x="44.083984" xlink:href="#d"/>
<use x="105.607422" xlink:href="#h"/>
<use x="144.970703" xlink:href="#k"/>
<use x="242.382812" xlink:href="#g"/>
<use x="270.166016" xlink:href="#f"/>
<use x="333.544922" xlink:href="#i"/>
<use x="394.824219" xlink:href="#j"/>
</g>
</g>
<path d="m1130 721.3v33.808q0 2.4 2.4 2.4h7.7425q2.4 0 2.4-2.4v-33.808q0-2.4-2.4-2.4h-7.7425q-2.4 0-2.4 2.4z" clip-path="url(#a)" fill="#fff" stroke="#fff"/>
<g clip-path="url(#a)">
<g transform="translate(1134.1 721.3) rotate(90) scale(.08 -.08)">
<use xlink:href="#l"/>
<use x="44.083984" xlink:href="#d"/>
<use x="105.607422" xlink:href="#h"/>
<use x="144.970703" xlink:href="#k"/>
<use x="242.382812" xlink:href="#g"/>
<use x="270.166016" xlink:href="#f"/>
<use x="333.544922" xlink:href="#i"/>
<use x="394.824219" xlink:href="#j"/>
</g>
</g>
<path d="m1206.5 721.3v33.808q0 2.4 2.4 2.4h7.7425q2.4 0 2.4-2.4v-33.808q0-2.4-2.4-2.4h-7.7425q-2.4 0-2.4 2.4z" clip-path="url(#a)" fill="#fff" stroke="#fff"/>
<g clip-path="url(#a)">
<g transform="translate(1210.6 721.3) rotate(90) scale(.08 -.08)">
<use xlink:href="#l"/>
<use x="44.083984" xlink:href="#d"/>
<use x="105.607422" xlink:href="#h"/>
<use x="144.970703" xlink:href="#k"/>
<use x="242.382812" xlink:href="#g"/>
<use x="270.166016" xlink:href="#f"/>
<use x="333.544922" xlink:href="#i"/>
<use x="394.824219" xlink:href="#j"/>
</g>
</g>
<path d="m418.11 721.3v33.808q0 2.4 2.4 2.4h7.7425q2.4 0 2.4-2.4v-33.808q0-2.4-2.4-2.4h-7.7425q-2.4 0-2.4 2.4z" clip-path="url(#a)" fill="#fff" stroke="#fff"/>
<g clip-path="url(#a)">
<g transform="translate(422.18 721.3) rotate(90) scale(.08 -.08)">
<use xlink:href="#l"/>
<use x="44.083984" xlink:href="#d"/>
<use x="105.607422" xlink:href="#h"/>
<use x="144.970703" xlink:href="#k"/>
<use x="242.382812" xlink:href="#g"/>
<use x="270.166016" xlink:href="#f"/>
<use x="333.544922" xlink:href="#i"/>
<use x="394.824219" xlink:href="#j"/>
</g>
</g>
<path d="m462.94 721.3v33.808q0 2.4 2.4 2.4h7.7425q2.4 0 2.4-2.4v-33.808q0-2.4-2.4-2.4h-7.7425q-2.4 0-2.4 2.4z" clip-path="url(#a)" fill="#fff" stroke="#fff"/>
<g clip-path="url(#a)">
<g transform="translate(467 721.3) rotate(90) scale(.08 -.08)">
<use xlink:href="#l"/>
<use x="44.083984" xlink:href="#d"/>
<use x="105.607422" xlink:href="#h"/>
<use x="144.970703" xlink:href="#k"/>
<use x="242.382812" xlink:href="#g"/>
<use x="270.166016" xlink:href="#f"/>
<use x="333.544922" xlink:href="#i"/>
<use x="394.824219" xlink:href="#j"/>
</g>
</g>
<path d="m510.4 721.3v33.808q0 2.4 2.4 2.4h7.7425q2.4 0 2.4-2.4v-33.808q0-2.4-2.4-2.4h-7.7425q-2.4 0-2.4 2.4z" clip-path="url(#a)" fill="#fff" stroke="#fff"/>
<g clip-path="url(#a)">
<g transform="translate(514.46 721.3) rotate(90) scale(.08 -.08)">
<use xlink:href="#l"/>
<use x="44.083984" xlink:href="#d"/>
<use x="105.607422" xlink:href="#h"/>
<use x="144.970703" xlink:href="#k"/>
<use x="242.382812" xlink:href="#g"/>
<use x="270.166016" xlink:href="#f"/>
<use x="333.544922" xlink:href="#i"/>
<use x="394.824219" xlink:href="#j"/>
</g>
</g>
<path d="m560.5 721.3v33.808q0 2.4 2.4 2.4h7.7425q2.4 0 2.4-2.4v-33.808q0-2.4-2.4-2.4h-7.7425q-2.4 0-2.4 2.4z" clip-path="url(#a)" fill="#fff" stroke="#fff"/>
<g clip-path="url(#a)">
<g transform="translate(564.56 721.3) rotate(90) scale(.08 -.08)">
<use xlink:href="#l"/>
<use x="44.083984" xlink:href="#d"/>
<use x="105.607422" xlink:href="#h"/>
<use x="144.970703" xlink:href="#k"/>
<use x="242.382812" xlink:href="#g"/>
<use x="270.166016" xlink:href="#f"/>
<use x="333.544922" xlink:href="#i"/>
<use x="394.824219" xlink:href="#j"/>
</g>
</g>
<path d="m86.095 587.71 0.44902-5.454q0.19692-2.3919-2.195-2.5888l-7.7164-0.63528q-2.3919-0.19692-2.5888 2.195l-0.44902 5.454q-0.19692 2.3919 2.195 2.5888l7.7164 0.63528q2.3919 0.19692 2.5888-2.195z" clip-path="url(#a)" fill="#fff" stroke="#fff"/>
<g clip-path="url(#a)">
<g transform="translate(82.045 587.38) rotate(-85.294) scale(.08 -.08)">
<use xlink:href="#q"/>
</g>
</g>
<path d="m83.583 582.35 0.21888 4.8188q0.1089 2.3975 2.5064 2.2886l7.7345-0.35132q2.3975-0.1089 2.2886-2.5064l-0.21888-4.8188q-0.1089-2.3975-2.5064-2.2886l-7.7345 0.35132q-2.3975 0.1089-2.2886 2.5064z" clip-path="url(#a)" fill="#fff" stroke="#fff"/>
<g clip-path="url(#a)">
<g transform="translate(87.642 582.16) rotate(87.399) scale(.08 -.08)">
<use xlink:href="#t"/>
</g>
</g>
<path d="m82.917 581.63 0.22718 6.1558q0.088514 2.3984 2.4869 2.3099l7.7372-0.28555q2.3984-0.088513 2.3099-2.4869l-0.22718-6.1558q-0.088514-2.3984-2.4869-2.3099l-7.7372 0.28555q-2.3984 0.088513-2.3099 2.4869z" clip-path="url(#a)" fill="#fff" stroke="#fff"/>
<g clip-path="url(#a)">
<g transform="translate(86.978 581.48) rotate(87.886) scale(.08 -.08)">
<use xlink:href="#ah"/>
</g>
</g>
<path d="m178.17 721.3v33.808q0 2.4 2.4 2.4h7.7425q2.4 0 2.4-2.4v-33.808q0-2.4-2.4-2.4h-7.7425q-2.4 0-2.4 2.4z" clip-path="url(#a)" fill="#fff" stroke="#fff"/>
<g clip-path="url(#a)">
<g transform="translate(182.23 721.3) rotate(90) scale(.08 -.08)">
<use xlink:href="#l"/>
<use x="44.083984" xlink:href="#d"/>
<use x="105.607422" xlink:href="#h"/>
<use x="144.970703" xlink:href="#k"/>
<use x="242.382812" xlink:href="#g"/>
<use x="270.166016" xlink:href="#f"/>
<use x="333.544922" xlink:href="#i"/>
<use x="394.824219" xlink:href="#j"/>
</g>
</g>
<path d="m231.47 587.92 0.87215-4.5178q0.45491-2.3565-1.9016-2.8114l-7.6021-1.4676q-2.3565-0.45491-2.8114 1.9016l-0.87215 4.5178q-0.45491 2.3565 1.9016 2.8114l7.6021 1.4676q2.3565 0.45491 2.8114-1.9016z" clip-path="url(#a)" fill="#fff" stroke="#fff"/>
<g clip-path="url(#a)">
<g transform="translate(227.48 587.15) rotate(-79.074) scale(.08 -.08)">
<use xlink:href="#aa"/>
</g>
</g>
<path d="m246.51 587.03 0.028701-5.0549q0.013626-2.4-2.3863-2.4136l-7.7424-0.04396q-2.4-0.013626-2.4136 2.3863l-0.028701 5.0549q-0.013627 2.4 2.3863 2.4136l7.7424 0.04396q2.4 0.013627 2.4136-2.3863z" clip-path="url(#a)" fill="#fff" stroke="#fff"/>
<g clip-path="url(#a)">
<defs>
<path id="av" d="m9.8125 72.906h46.094v-8.3125h-36.234v-21.578h34.719v-8.2969h-34.719v-26.422h37.109v-8.2969h-46.969z"/>
</defs>
<g transform="translate(242.44 587.01) rotate(-89.675) scale(.08 -.08)">
<use xlink:href="#av"/>
</g>
</g>
<path d="m249.38 582.95 1.0888 5.4791q0.46779 2.354 2.8218 1.8862l7.594-1.5091q2.354-0.46779 1.8862-2.8218l-1.0888-5.4791q-0.46779-2.354-2.8218-1.8862l-7.594 1.5091q-2.354 0.46779-1.8862 2.8218z" clip-path="url(#a)" fill="#fff" stroke="#fff"/>
<g clip-path="url(#a)">
<g transform="translate(253.36 582.16) rotate(78.76) scale(.08 -.08)">
<use xlink:href="#ai"/>
</g>
</g>
<path d="m114.89 721.3v33.808q0 2.4 2.4 2.4h7.7425q2.4 0 2.4-2.4v-33.808q0-2.4-2.4-2.4h-7.7425q-2.4 0-2.4 2.4z" clip-path="url(#a)" fill="#fff" stroke="#fff"/>
<g clip-path="url(#a)">
<g transform="translate(118.95 721.3) rotate(90) scale(.08 -.08)">
<use xlink:href="#l"/>
<use x="44.083984" xlink:href="#d"/>
<use x="105.607422" xlink:href="#h"/>
<use x="144.970703" xlink:href="#k"/>
<use x="242.382812" xlink:href="#g"/>
<use x="270.166016" xlink:href="#f"/>
<use x="333.544922" xlink:href="#i"/>
<use x="394.824219" xlink:href="#j"/>
</g>
</g>
<path d="m133.34 721.3v33.808q0 2.4 2.4 2.4h7.7425q2.4 0 2.4-2.4v-33.808q0-2.4-2.4-2.4h-7.7425q-2.4 0-2.4 2.4z" clip-path="url(#a)" fill="#fff" stroke="#fff"/>
<g clip-path="url(#a)">
<g transform="translate(137.41 721.3) rotate(90) scale(.08 -.08)">
<use xlink:href="#l"/>
<use x="44.083984" xlink:href="#d"/>
<use x="105.607422" xlink:href="#h"/>
<use x="144.970703" xlink:href="#k"/>
<use x="242.382812" xlink:href="#g"/>
<use x="270.166016" xlink:href="#f"/>
<use x="333.544922" xlink:href="#i"/>
<use x="394.824219" xlink:href="#j"/>
</g>
</g>
<path d="m154.44 721.3v33.808q0 2.4 2.4 2.4h7.7425q2.4 0 2.4-2.4v-33.808q0-2.4-2.4-2.4h-7.7425q-2.4 0-2.4 2.4z" clip-path="url(#a)" fill="#fff" stroke="#fff"/>
<g clip-path="url(#a)">
<g transform="translate(158.5 721.3) rotate(90) scale(.08 -.08)">
<use xlink:href="#l"/>
<use x="44.083984" xlink:href="#d"/>
<use x="105.607422" xlink:href="#h"/>
<use x="144.970703" xlink:href="#k"/>
<use x="242.382812" xlink:href="#g"/>
<use x="270.166016" xlink:href="#f"/>
<use x="333.544922" xlink:href="#i"/>
<use x="394.824219" xlink:href="#j"/>
</g>
</g>
<path d="m204.54 721.3v33.808q0 2.4 2.4 2.4h7.7425q2.4 0 2.4-2.4v-33.808q0-2.4-2.4-2.4h-7.7425q-2.4 0-2.4 2.4z" clip-path="url(#a)" fill="#fff" stroke="#fff"/>
<g clip-path="url(#a)">
<g transform="translate(208.6 721.3) rotate(90) scale(.08 -.08)">
<use xlink:href="#l"/>
<use x="44.083984" xlink:href="#d"/>
<use x="105.607422" xlink:href="#h"/>
<use x="144.970703" xlink:href="#k"/>
<use x="242.382812" xlink:href="#g"/>
<use x="270.166016" xlink:href="#f"/>
<use x="333.544922" xlink:href="#i"/>
<use x="394.824219" xlink:href="#j"/>
</g>
</g>
<path d="m233.54 721.3v33.808q0 2.4 2.4 2.4h7.7425q2.4 0 2.4-2.4v-33.808q0-2.4-2.4-2.4h-7.7425q-2.4 0-2.4 2.4z" clip-path="url(#a)" fill="#fff" stroke="#fff"/>
<g clip-path="url(#a)">
<g transform="translate(237.6 721.3) rotate(90) scale(.08 -.08)">
<use xlink:href="#l"/>
<use x="44.083984" xlink:href="#d"/>
<use x="105.607422" xlink:href="#h"/>
<use x="144.970703" xlink:href="#k"/>
<use x="242.382812" xlink:href="#g"/>
<use x="270.166016" xlink:href="#f"/>
<use x="333.544922" xlink:href="#i"/>
<use x="394.824219" xlink:href="#j"/>
</g>
</g>
<path d="m265.18 721.3v33.808q0 2.4 2.4 2.4h7.7425q2.4 0 2.4-2.4v-33.808q0-2.4-2.4-2.4h-7.7425q-2.4 0-2.4 2.4z" clip-path="url(#a)" fill="#fff" stroke="#fff"/>
<g clip-path="url(#a)">
<g transform="translate(269.25 721.3) rotate(90) scale(.08 -.08)">
<use xlink:href="#l"/>
<use x="44.083984" xlink:href="#d"/>
<use x="105.607422" xlink:href="#h"/>
<use x="144.970703" xlink:href="#k"/>
<use x="242.382812" xlink:href="#g"/>
<use x="270.166016" xlink:href="#f"/>
<use x="333.544922" xlink:href="#i"/>
<use x="394.824219" xlink:href="#j"/>
</g>
</g>
<path d="m67.426 721.3v33.808q0 2.4 2.4 2.4h7.7425q2.4 0 2.4-2.4v-33.808q0-2.4-2.4-2.4h-7.7425q-2.4 0-2.4 2.4z" clip-path="url(#a)" fill="#fff" stroke="#fff"/>
<g clip-path="url(#a)">
<g transform="translate(71.489 721.3) rotate(90) scale(.08 -.08)">
<use xlink:href="#l"/>
<use x="44.083984" xlink:href="#d"/>
<use x="105.607422" xlink:href="#h"/>
<use x="144.970703" xlink:href="#k"/>
<use x="242.382812" xlink:href="#g"/>
<use x="270.166016" xlink:href="#f"/>
<use x="333.544922" xlink:href="#i"/>
<use x="394.824219" xlink:href="#j"/>
</g>
</g>
<path d="m92.483 755.55 2.6195-33.706q0.18596-2.3928-2.2068-2.5787l-7.7192-0.59991q-2.3928-0.18596-2.5787 2.2068l-2.6195 33.706q-0.18596 2.3928 2.2068 2.5787l7.7192 0.59991q2.3928 0.18596 2.5787-2.2068z" clip-path="url(#a)" fill="#fff" stroke="#fff"/>
<g clip-path="url(#a)">
<g transform="translate(88.431 755.23) rotate(-85.556) scale(.08 -.08)">
<use xlink:href="#l"/>
<use x="44.083984" xlink:href="#d"/>
<use x="105.607422" xlink:href="#h"/>
<use x="144.970703" xlink:href="#k"/>
<use x="242.382812" xlink:href="#g"/>
<use x="270.166016" xlink:href="#f"/>
<use x="333.544922" xlink:href="#i"/>
<use x="394.824219" xlink:href="#j"/>
</g>
</g>
<path d="m91.843 721.84 2.6195 33.706q0.18596 2.3928 2.5787 2.2068l7.7192-0.59991q2.3928-0.18596 2.2068-2.5787l-2.6195-33.706q-0.18596-2.3928-2.5787-2.2068l-7.7192 0.59991q-2.3928 0.18596-2.2068 2.5787z" clip-path="url(#a)" fill="#fff" stroke="#fff"/>
<g clip-path="url(#a)">
<g transform="translate(95.895 721.53) rotate(85.556) scale(.08 -.08)">
<use xlink:href="#l"/>
<use x="44.083984" xlink:href="#d"/>
<use x="105.607422" xlink:href="#h"/>
<use x="144.970703" xlink:href="#k"/>
<use x="242.382812" xlink:href="#g"/>
<use x="270.166016" xlink:href="#f"/>
<use x="333.544922" xlink:href="#i"/>
<use x="394.824219" xlink:href="#j"/>
</g>
</g>
<path d="m85.883 721.3v33.808q0 2.4 2.4 2.4h7.7425q2.4 0 2.4-2.4v-33.808q0-2.4-2.4-2.4h-7.7425q-2.4 0-2.4 2.4z" clip-path="url(#a)" fill="#fff" stroke="#fff"/>
<g clip-path="url(#a)">
<g transform="translate(89.947 721.3) rotate(90) scale(.08 -.08)">
<use xlink:href="#l"/>
<use x="44.083984" xlink:href="#d"/>
<use x="105.607422" xlink:href="#h"/>
<use x="144.970703" xlink:href="#k"/>
<use x="242.382812" xlink:href="#g"/>
<use x="270.166016" xlink:href="#f"/>
<use x="333.544922" xlink:href="#i"/>
<use x="394.824219" xlink:href="#j"/>
</g>
</g>
<path d="m299.46 721.3v33.808q0 2.4 2.4 2.4h7.7425q2.4 0 2.4-2.4v-33.808q0-2.4-2.4-2.4h-7.7425q-2.4 0-2.4 2.4z" clip-path="url(#a)" fill="#fff" stroke="#fff"/>
<g clip-path="url(#a)">
<g transform="translate(303.52 721.3) rotate(90) scale(.08 -.08)">
<use xlink:href="#l"/>
<use x="44.083984" xlink:href="#d"/>
<use x="105.607422" xlink:href="#h"/>
<use x="144.970703" xlink:href="#k"/>
<use x="242.382812" xlink:href="#g"/>
<use x="270.166016" xlink:href="#f"/>
<use x="333.544922" xlink:href="#i"/>
<use x="394.824219" xlink:href="#j"/>
</g>
</g>
<path d="m336.37 721.3v33.808q0 2.4 2.4 2.4h7.7425q2.4 0 2.4-2.4v-33.808q0-2.4-2.4-2.4h-7.7425q-2.4 0-2.4 2.4z" clip-path="url(#a)" fill="#fff" stroke="#fff"/>
<g clip-path="url(#a)">
<g transform="translate(340.44 721.3) rotate(90) scale(.08 -.08)">
<use xlink:href="#l"/>
<use x="44.083984" xlink:href="#d"/>
<use x="105.607422" xlink:href="#h"/>
<use x="144.970703" xlink:href="#k"/>
<use x="242.382812" xlink:href="#g"/>
<use x="270.166016" xlink:href="#f"/>
<use x="333.544922" xlink:href="#i"/>
<use x="394.824219" xlink:href="#j"/>
</g>
</g>
<path d="m375.92 721.3v33.808q0 2.4 2.4 2.4h7.7425q2.4 0 2.4-2.4v-33.808q0-2.4-2.4-2.4h-7.7425q-2.4 0-2.4 2.4z" clip-path="url(#a)" fill="#fff" stroke="#fff"/>
<g clip-path="url(#a)">
<g transform="translate(379.99 721.3) rotate(90) scale(.08 -.08)">
<use xlink:href="#l"/>
<use x="44.083984" xlink:href="#d"/>
<use x="105.607422" xlink:href="#h"/>
<use x="144.970703" xlink:href="#k"/>
<use x="242.382812" xlink:href="#g"/>
<use x="270.166016" xlink:href="#f"/>
<use x="333.544922" xlink:href="#i"/>
<use x="394.824219" xlink:href="#j"/>
</g>
</g>
<path d="m613.23 721.3v33.808q0 2.4 2.4 2.4h7.7425q2.4 0 2.4-2.4v-33.808q0-2.4-2.4-2.4h-7.7425q-2.4 0-2.4 2.4z" clip-path="url(#a)" fill="#fff" stroke="#fff"/>
<g clip-path="url(#a)">
<g transform="translate(617.3 721.3) rotate(90) scale(.08 -.08)">
<use xlink:href="#l"/>
<use x="44.083984" xlink:href="#d"/>
<use x="105.607422" xlink:href="#h"/>
<use x="144.970703" xlink:href="#k"/>
<use x="242.382812" xlink:href="#g"/>
<use x="270.166016" xlink:href="#f"/>
<use x="333.544922" xlink:href="#i"/>
<use x="394.824219" xlink:href="#j"/>
</g>
</g>
<path d="m668.6 721.3v33.808q0 2.4 2.4 2.4h7.7425q2.4 0 2.4-2.4v-33.808q0-2.4-2.4-2.4h-7.7425q-2.4 0-2.4 2.4z" clip-path="url(#a)" fill="#fff" stroke="#fff"/>
<g clip-path="url(#a)">
<g transform="translate(672.67 721.3) rotate(90) scale(.08 -.08)">
<use xlink:href="#l"/>
<use x="44.083984" xlink:href="#d"/>
<use x="105.607422" xlink:href="#h"/>
<use x="144.970703" xlink:href="#k"/>
<use x="242.382812" xlink:href="#g"/>
<use x="270.166016" xlink:href="#f"/>
<use x="333.544922" xlink:href="#i"/>
<use x="394.824219" xlink:href="#j"/>
</g>
</g>
<path d="m916.46 721.3v33.808q0 2.4 2.4 2.4h7.7425q2.4 0 2.4-2.4v-33.808q0-2.4-2.4-2.4h-7.7425q-2.4 0-2.4 2.4z" clip-path="url(#a)" fill="#fff" stroke="#fff"/>
<g clip-path="url(#a)">
<g transform="translate(920.52 721.3) rotate(90) scale(.08 -.08)">
<use xlink:href="#l"/>
<use x="44.083984" xlink:href="#d"/>
<use x="105.607422" xlink:href="#h"/>
<use x="144.970703" xlink:href="#k"/>
<use x="242.382812" xlink:href="#g"/>
<use x="270.166016" xlink:href="#f"/>
<use x="333.544922" xlink:href="#i"/>
<use x="394.824219" xlink:href="#j"/>
</g>
</g>
<path d="m985.01 721.3v33.808q0 2.4 2.4 2.4h7.7425q2.4 0 2.4-2.4v-33.808q0-2.4-2.4-2.4h-7.7425q-2.4 0-2.4 2.4z" clip-path="url(#a)" fill="#fff" stroke="#fff"/>
<g clip-path="url(#a)">
<g transform="translate(989.08 721.3) rotate(90) scale(.08 -.08)">
<use xlink:href="#l"/>
<use x="44.083984" xlink:href="#d"/>
<use x="105.607422" xlink:href="#h"/>
<use x="144.970703" xlink:href="#k"/>
<use x="242.382812" xlink:href="#g"/>
<use x="270.166016" xlink:href="#f"/>
<use x="333.544922" xlink:href="#i"/>
<use x="394.824219" xlink:href="#j"/>
</g>
</g>
<path d="m1285.6 721.3v33.808q0 2.4 2.4 2.4h7.7425q2.4 0 2.4-2.4v-33.808q0-2.4-2.4-2.4h-7.7425q-2.4 0-2.4 2.4z" clip-path="url(#a)" fill="#fff" stroke="#fff"/>
<g clip-path="url(#a)">
<g transform="translate(1289.7 721.3) rotate(90) scale(.08 -.08)">
<use xlink:href="#l"/>
<use x="44.083984" xlink:href="#d"/>
<use x="105.607422" xlink:href="#h"/>
<use x="144.970703" xlink:href="#k"/>
<use x="242.382812" xlink:href="#g"/>
<use x="270.166016" xlink:href="#f"/>
<use x="333.544922" xlink:href="#i"/>
<use x="394.824219" xlink:href="#j"/>
</g>
</g>
<path d="m1367.3 721.3v33.808q0 2.4 2.4 2.4h7.7425q2.4 0 2.4-2.4v-33.808q0-2.4-2.4-2.4h-7.7425q-2.4 0-2.4 2.4z" clip-path="url(#a)" fill="#fff" stroke="#fff"/>
<g clip-path="url(#a)">
<g transform="translate(1371.4 721.3) rotate(90) scale(.08 -.08)">
<use xlink:href="#l"/>
<use x="44.083984" xlink:href="#d"/>
<use x="105.607422" xlink:href="#h"/>
<use x="144.970703" xlink:href="#k"/>
<use x="242.382812" xlink:href="#g"/>
<use x="270.166016" xlink:href="#f"/>
<use x="333.544922" xlink:href="#i"/>
<use x="394.824219" xlink:href="#j"/>
</g>
</g>
<path d="m1451.7 721.3v33.808q0 2.4 2.4 2.4h7.7425q2.4 0 2.4-2.4v-33.808q0-2.4-2.4-2.4h-7.7425q-2.4 0-2.4 2.4z" clip-path="url(#a)" fill="#fff" stroke="#fff"/>
<g clip-path="url(#a)">
<g transform="translate(1455.8 721.3) rotate(90) scale(.08 -.08)">
<use xlink:href="#l"/>
<use x="44.083984" xlink:href="#d"/>
<use x="105.607422" xlink:href="#h"/>
<use x="144.970703" xlink:href="#k"/>
<use x="242.382812" xlink:href="#g"/>
<use x="270.166016" xlink:href="#f"/>
<use x="333.544922" xlink:href="#i"/>
<use x="394.824219" xlink:href="#j"/>
</g>
</g>
<path d="m1538.7 721.3v33.808q0 2.4 2.4 2.4h7.7425q2.4 0 2.4-2.4v-33.808q0-2.4-2.4-2.4h-7.7425q-2.4 0-2.4 2.4z" clip-path="url(#a)" fill="#fff" stroke="#fff"/>
<g clip-path="url(#a)">
<g transform="translate(1542.8 721.3) rotate(90) scale(.08 -.08)">
<use xlink:href="#l"/>
<use x="44.083984" xlink:href="#d"/>
<use x="105.607422" xlink:href="#h"/>
<use x="144.970703" xlink:href="#k"/>
<use x="242.382812" xlink:href="#g"/>
<use x="270.166016" xlink:href="#f"/>
<use x="333.544922" xlink:href="#i"/>
<use x="394.824219" xlink:href="#j"/>
</g>
</g>
<defs>
<path id="b" d="m0 8.6603c2.2967 0 4.4997-0.9125 6.1237-2.5365 1.624-1.624 2.5365-3.827 2.5365-6.1237s-0.9125-4.4997-2.5365-6.1237c-1.624-1.624-3.827-2.5365-6.1237-2.5365s-4.4997 0.9125-6.1237 2.5365c-1.624 1.624-2.5365 3.827-2.5365 6.1237s0.9125 4.4997 2.5365 6.1237c1.624 1.624 3.827 2.5365 6.1237 2.5365z"/>
</defs>
<g clip-path="url(#a)">
<use x="73.69697" y="814.545455" fill="#ffffff" stroke="#ffffff" xlink:href="#b"/>
</g>
<g clip-path="url(#a)">
<use x="81.607199" y="814.545455" fill="#ffffff" stroke="#ffffff" xlink:href="#b"/>
</g>
<g clip-path="url(#a)">
<use x="92.154171" y="814.545455" fill="#ffffff" stroke="#ffffff" xlink:href="#b"/>
</g>
<g clip-path="url(#a)">
<use x="105.337887" y="814.545455" fill="#ffffff" stroke="#ffffff" xlink:href="#b"/>
</g>
<g clip-path="url(#a)">
<use x="121.158346" y="814.545455" fill="#ffffff" stroke="#ffffff" xlink:href="#b"/>
</g>
<g clip-path="url(#a)">
<use x="139.615547" y="814.545455" fill="#ffffff" stroke="#ffffff" xlink:href="#b"/>
</g>
<g clip-path="url(#a)">
<use x="160.709492" y="814.545455" fill="#ffffff" stroke="#ffffff" xlink:href="#b"/>
</g>
<g clip-path="url(#a)">
<use x="184.44018" y="814.545455" fill="#ffffff" stroke="#ffffff" xlink:href="#b"/>
</g>
<g clip-path="url(#a)">
<use x="210.807611" y="814.545455" fill="#ffffff" stroke="#ffffff" xlink:href="#b"/>
</g>
<g clip-path="url(#a)">
<use x="239.811785" y="814.545455" fill="#ffffff" stroke="#ffffff" xlink:href="#b"/>
</g>
<g clip-path="url(#a)">
<use x="271.452702" y="814.545455" fill="#ffffff" stroke="#ffffff" xlink:href="#b"/>
</g>
<g clip-path="url(#a)">
<use x="305.730363" y="814.545455" fill="#ffffff" stroke="#ffffff" xlink:href="#b"/>
</g>
<g clip-path="url(#a)">
<use x="342.644766" y="814.545455" fill="#ffffff" stroke="#ffffff" xlink:href="#b"/>
</g>
<g clip-path="url(#a)">
<use x="382.195913" y="814.545455" fill="#ffffff" stroke="#ffffff" xlink:href="#b"/>
</g>
<g clip-path="url(#a)">
<use x="424.383802" y="814.545455" fill="#ffffff" stroke="#ffffff" xlink:href="#b"/>
</g>
<g clip-path="url(#a)">
<use x="469.208435" y="814.545455" fill="#ffffff" stroke="#ffffff" xlink:href="#b"/>
</g>
<g clip-path="url(#a)">
<use x="516.669811" y="814.545455" fill="#ffffff" stroke="#ffffff" xlink:href="#b"/>
</g>
<g clip-path="url(#a)">
<use x="566.76793" y="814.545455" fill="#ffffff" stroke="#ffffff" xlink:href="#b"/>
</g>
<g clip-path="url(#a)">
<use x="619.502792" y="814.545455" fill="#ffffff" stroke="#ffffff" xlink:href="#b"/>
</g>
<g clip-path="url(#a)">
<use x="674.874397" y="814.545455" fill="#ffffff" stroke="#ffffff" xlink:href="#b"/>
</g>
<g clip-path="url(#a)">
<use x="732.882745" y="814.545455" fill="#ffffff" stroke="#ffffff" xlink:href="#b"/>
</g>
<g clip-path="url(#a)">
<use x="793.527837" y="814.545455" fill="#ffffff" stroke="#ffffff" xlink:href="#b"/>
</g>
<g clip-path="url(#a)">
<use x="856.809671" y="814.545455" fill="#ffffff" stroke="#ffffff" xlink:href="#b"/>
</g>
<g clip-path="url(#a)">
<use x="922.728248" y="814.545455" fill="#ffffff" stroke="#ffffff" xlink:href="#b"/>
</g>
<g clip-path="url(#a)">
<use x="991.283569" y="814.545455" fill="#ffffff" stroke="#ffffff" xlink:href="#b"/>
</g>
<g clip-path="url(#a)">
<use x="1062.475633" y="814.545455" fill="#ffffff" stroke="#ffffff" xlink:href="#b"/>
</g>
<g clip-path="url(#a)">
<use x="1136.30444" y="814.545455" fill="#ffffff" stroke="#ffffff" xlink:href="#b"/>
</g>
<g clip-path="url(#a)">
<use x="1212.76999" y="814.545455" fill="#ffffff" stroke="#ffffff" xlink:href="#b"/>
</g>
<g clip-path="url(#a)">
<use x="1291.872283" y="814.545455" fill="#ffffff" stroke="#ffffff" xlink:href="#b"/>
</g>
<g clip-path="url(#a)">
<use x="1373.611319" y="814.545455" fill="#ffffff" stroke="#ffffff" xlink:href="#b"/>
</g>
<g clip-path="url(#a)">
<use x="1457.987098" y="814.545455" fill="#ffffff" stroke="#ffffff" xlink:href="#b"/>
</g>
<g clip-path="url(#a)">
<use x="1544.999621" y="814.545455" fill="#ffffff" stroke="#ffffff" xlink:href="#b"/>
</g>
<g clip-path="url(#a)">
<use x="1547.636364" y="661.87102" fill="#ffffff" stroke="#ffffff" xlink:href="#b"/>
</g>
<g clip-path="url(#a)">
<use x="398.991548" y="38.787879" fill="#ffffff" stroke="#ffffff" xlink:href="#b"/>
</g>
<g clip-path="url(#a)">
<use x="155.509249" y="351.462508" fill="#ffffff" stroke="#ffffff" xlink:href="#b"/>
</g>
<g clip-path="url(#a)">
<use x="808.877448" y="195.322692" fill="#ffffff" stroke="#ffffff" xlink:href="#b"/>
</g>
<g clip-path="url(#a)">
<use x="895.701632" y="351.462508" fill="#ffffff" stroke="#ffffff" xlink:href="#b"/>
</g>
<g clip-path="url(#a)">
<use x="732.882745" y="661.87102" fill="#ffffff" stroke="#ffffff" xlink:href="#b"/>
</g>
<g clip-path="url(#a)">
<use x="825.168754" y="351.462508" fill="#ffffff" stroke="#ffffff" xlink:href="#b"/>
</g>
<g clip-path="url(#a)">
<use x="793.527837" y="661.87102" fill="#ffffff" stroke="#ffffff" xlink:href="#b"/>
</g>
<g clip-path="url(#a)">
<use x="856.809671" y="507.072715" fill="#ffffff" stroke="#ffffff" xlink:href="#b"/>
</g>
<g clip-path="url(#a)">
<use x="856.809671" y="661.87102" fill="#ffffff" stroke="#ffffff" xlink:href="#b"/>
</g>
<g clip-path="url(#a)">
<use x="494.257494" y="507.072715" fill="#ffffff" stroke="#ffffff" xlink:href="#b"/>
</g>
<g clip-path="url(#a)">
<use x="1297.145769" y="507.072715" fill="#ffffff" stroke="#ffffff" xlink:href="#b"/>
</g>
<g clip-path="url(#a)">
<use x="1062.475633" y="661.87102" fill="#ffffff" stroke="#ffffff" xlink:href="#b"/>
</g>
<g clip-path="url(#a)">
<use x="1136.30444" y="661.87102" fill="#ffffff" stroke="#ffffff" xlink:href="#b"/>
</g>
<g clip-path="url(#a)">
<use x="1212.76999" y="661.87102" fill="#ffffff" stroke="#ffffff" xlink:href="#b"/>
</g>
<g clip-path="url(#a)">
<use x="424.383802" y="661.87102" fill="#ffffff" stroke="#ffffff" xlink:href="#b"/>
</g>
<g clip-path="url(#a)">
<use x="469.208435" y="661.87102" fill="#ffffff" stroke="#ffffff" xlink:href="#b"/>
</g>
<g clip-path="url(#a)">
<use x="516.669811" y="661.87102" fill="#ffffff" stroke="#ffffff" xlink:href="#b"/>
</g>
<g clip-path="url(#a)">
<use x="566.76793" y="661.87102" fill="#ffffff" stroke="#ffffff" xlink:href="#b"/>
</g>
<g clip-path="url(#a)">
<use x="86.441228" y="507.072715" fill="#ffffff" stroke="#ffffff" xlink:href="#b"/>
</g>
<g clip-path="url(#a)">
<use x="184.44018" y="661.87102" fill="#ffffff" stroke="#ffffff" xlink:href="#b"/>
</g>
<g clip-path="url(#a)">
<use x="240.690699" y="507.072715" fill="#ffffff" stroke="#ffffff" xlink:href="#b"/>
</g>
<g clip-path="url(#a)">
<use x="121.158346" y="661.87102" fill="#ffffff" stroke="#ffffff" xlink:href="#b"/>
</g>
<g clip-path="url(#a)">
<use x="139.615547" y="661.87102" fill="#ffffff" stroke="#ffffff" xlink:href="#b"/>
</g>
<g clip-path="url(#a)">
<use x="160.709492" y="661.87102" fill="#ffffff" stroke="#ffffff" xlink:href="#b"/>
</g>
<g clip-path="url(#a)">
<use x="210.807611" y="661.87102" fill="#ffffff" stroke="#ffffff" xlink:href="#b"/>
</g>
<g clip-path="url(#a)">
<use x="239.811785" y="661.87102" fill="#ffffff" stroke="#ffffff" xlink:href="#b"/>
</g>
<g clip-path="url(#a)">
<use x="271.452702" y="661.87102" fill="#ffffff" stroke="#ffffff" xlink:href="#b"/>
</g>
<g clip-path="url(#a)">
<use x="73.69697" y="661.87102" fill="#ffffff" stroke="#ffffff" xlink:href="#b"/>
</g>
<g clip-path="url(#a)">
<use x="93.472543" y="661.87102" fill="#ffffff" stroke="#ffffff" xlink:href="#b"/>
</g>
<g clip-path="url(#a)">
<use x="92.154171" y="661.87102" fill="#ffffff" stroke="#ffffff" xlink:href="#b"/>
</g>
<g clip-path="url(#a)">
<use x="305.730363" y="661.87102" fill="#ffffff" stroke="#ffffff" xlink:href="#b"/>
</g>
<g clip-path="url(#a)">
<use x="342.644766" y="661.87102" fill="#ffffff" stroke="#ffffff" xlink:href="#b"/>
</g>
<g clip-path="url(#a)">
<use x="382.195913" y="661.87102" fill="#ffffff" stroke="#ffffff" xlink:href="#b"/>
</g>
<g clip-path="url(#a)">
<use x="619.502792" y="661.87102" fill="#ffffff" stroke="#ffffff" xlink:href="#b"/>
</g>
<g clip-path="url(#a)">
<use x="674.874397" y="661.87102" fill="#ffffff" stroke="#ffffff" xlink:href="#b"/>
</g>
<g clip-path="url(#a)">
<use x="922.728248" y="661.87102" fill="#ffffff" stroke="#ffffff" xlink:href="#b"/>
</g>
<g clip-path="url(#a)">
<use x="991.283569" y="661.87102" fill="#ffffff" stroke="#ffffff" xlink:href="#b"/>
</g>
<g clip-path="url(#a)">
<use x="1291.872283" y="661.87102" fill="#ffffff" stroke="#ffffff" xlink:href="#b"/>
</g>
<g clip-path="url(#a)">
<use x="1373.611319" y="661.87102" fill="#ffffff" stroke="#ffffff" xlink:href="#b"/>
</g>
<g clip-path="url(#a)">
<use x="1457.987098" y="661.87102" fill="#ffffff" stroke="#ffffff" xlink:href="#b"/>
</g>
<g clip-path="url(#a)">
<use x="1544.999621" y="661.87102" fill="#ffffff" stroke="#ffffff" xlink:href="#b"/>
</g>
<g clip-path="url(#a)">
<g transform="translate(66.057 817.3) scale(.1 -.1)">
<use xlink:href="#y"/>
<use x="63.476562" xlink:href="#g"/>
<use x="91.259766" xlink:href="#d"/>
</g>
</g>
<g clip-path="url(#a)">
<defs>
<path id="al" d="m9.0781 75.984h9.0312v-44.875l26.812 23.578h11.469l-29-25.578 30.234-29.109h-11.719l-27.797 26.703v-26.703h-9.0312z"/>
<path id="aq" d="m30.609 48.391q-7.2188 0-11.422-5.6406t-4.2031-15.453 4.1719-15.453q4.1875-5.6406 11.453-5.6406 7.1875 0 11.375 5.6562 4.2031 5.6719 4.2031 15.438 0 9.7188-4.2031 15.406-4.1875 5.6875-11.375 5.6875zm0 7.6094q11.719 0 18.406-7.625 6.7031-7.6094 6.7031-21.078 0-13.422-6.7031-21.078-6.6875-7.6406-18.406-7.6406-11.766 0-18.438 7.6406-6.6562 7.6562-6.6562 21.078 0 13.469 6.6562 21.078 6.6719 7.625 18.438 7.625z"/>
</defs>
<g transform="translate(59.848 817.3) scale(.1 -.1)">
<use xlink:href="#al"/>
<use x="54.285156" xlink:href="#aq"/>
<use x="115.466797" xlink:href="#k"/>
<use x="212.878906" xlink:href="#k"/>
<use x="310.291016" xlink:href="#d"/>
<use x="371.814453" xlink:href="#f"/>
</g>
</g>
<g clip-path="url(#a)">
<defs>
<path id="r" d="m44.281 53.078v-8.5q-3.7969 1.9531-7.9062 2.9219-4.0938 0.98438-8.5 0.98438-6.6875 0-10.031-2.0469t-3.3438-6.1562q0-3.125 2.3906-4.9062t9.625-3.3906l3.0781-0.6875q9.5625-2.0469 13.594-5.7812t4.0312-10.422q0-7.625-6.0312-12.078-6.0312-4.4375-16.578-4.4375-4.3906 0-9.1562 0.85938t-10.031 2.5625v9.2812q4.9844-2.5938 9.8125-3.8906 4.8281-1.2812 9.5781-1.2812 6.3438 0 9.75 2.1719 3.4219 2.1719 3.4219 6.125 0 3.6562-2.4688 5.6094-2.4531 1.9531-10.812 3.7656l-3.125 0.73438q-8.3438 1.75-12.062 5.3906-3.7031 3.6406-3.7031 9.9844 0 7.7188 5.4688 11.906 5.4688 4.2031 15.531 4.2031 4.9688 0 9.3594-0.73438 4.4062-0.71875 8.1094-2.1875z"/>
<path id="w" d="m48.781 52.594v-8.4062q-3.8125 2.1094-7.6406 3.1562t-7.7344 1.0469q-8.75 0-13.594-5.5469-4.8281-5.5312-4.8281-15.547t4.8281-15.562q4.8438-5.5312 13.594-5.5312 3.9062 0 7.7344 1.0469t7.6406 3.1562v-8.3125q-3.7656-1.75-7.7969-2.625-4.0156-0.89062-8.5625-0.89062-12.359 0-19.641 7.7656-7.2656 7.7656-7.2656 20.953 0 13.375 7.3438 21.031 7.3594 7.6719 20.156 7.6719 4.1406 0 8.0938-0.85938 3.9531-0.84375 7.6719-2.5469z"/>
<path id="af" d="m54.891 33.016v-33.016h-8.9844v32.719q0 7.7656-3.0312 11.609-3.0312 3.8594-9.0781 3.8594-7.2812 0-11.484-4.6406-4.2031-4.625-4.2031-12.641v-30.906h-9.0312v75.984h9.0312v-29.797q3.2344 4.9375 7.5938 7.375 4.375 2.4375 10.094 2.4375 9.4219 0 14.25-5.8281 4.8438-5.8281 4.8438-17.156z"/>
</defs>
<g transform="translate(77.403 817.3) scale(.1 -.1)">
<use xlink:href="#r"/>
<use x="52.099609" xlink:href="#w"/>
<use x="107.080078" xlink:href="#af"/>
<use x="170.458984" xlink:href="#aq"/>
<use x="231.640625" xlink:href="#f"/>
</g>
</g>
<g clip-path="url(#a)">
<defs>
<path id="ap" d="m5.5156 54.688h42.672v-8.2031l-33.781-39.312h33.781v-7.1719h-43.891v8.2031l33.797 39.312h-32.578z"/>
<path id="ae" d="m8.5 21.578v33.109h8.9844v-32.766q0-7.7656 3.0156-11.656 3.0312-3.875 9.0938-3.875 7.2656 0 11.484 4.6406 4.2344 4.6406 4.2344 12.656v31h8.9844v-54.688h-8.9844v8.4062q-3.2656-4.9844-7.5938-7.4062-4.3125-2.4219-10.031-2.4219-9.4219 0-14.312 5.8594-4.875 5.8594-4.875 17.141z"/>
<path id="ax" d="m8.5 21.578v33.109h8.9844v-32.766q0-7.7656 3.0156-11.656 3.0312-3.875 9.0938-3.875 7.2656 0 11.484 4.6406 4.2344 4.6406 4.2344 12.656v31h8.9844v-54.688h-8.9844v8.4062q-3.2656-4.9844-7.5938-7.4062-4.3125-2.4219-10.031-2.4219-9.4219 0-14.312 5.8594-4.875 5.8594-4.875 17.141zm22.609 34.422m4.4844 19.781h9.9062v-9.8594h-9.9062zm-19.094 0h9.9062v-9.8594h-9.9062z"/>
</defs>
<g transform="translate(88.676 817.3) scale(.1 -.1)">
<use xlink:href="#ap"/>
<use x="52.490234" xlink:href="#ae"/>
<use x="115.869141" xlink:href="#h"/>
<use x="156.982422" xlink:href="#ax"/>
<use x="220.361328" xlink:href="#w"/>
<use x="275.341797" xlink:href="#al"/>
</g>
</g>
<g clip-path="url(#a)">
<defs>
<path id="aw" d="m19.094 12.406h9.9062v-12.406h-9.9062zm9.625 7.1719h-9.3281v7.5156q0 4.9375 1.3594 8.1094 1.375 3.1719 5.7656 7.375l4.3906 4.3438q2.7812 2.5938 4.0312 4.8906t1.25 4.6875q0 4.3438-3.2031 7.0312t-8.4688 2.6875q-3.8594 0-8.2344-1.7188-4.3594-1.7031-9.1094-4.9844v9.1875q4.5938 2.7812 9.2969 4.1406 4.7188 1.375 9.75 1.375 8.9844 0 14.422-4.7344 5.4531-4.7344 5.4531-12.5 0-3.7188-1.7656-7.0625-1.75-3.3438-6.1406-7.5312l-4.2969-4.2031q-2.2969-2.2969-3.25-3.5938t-1.3438-2.5156q-0.29688-1.0156-0.4375-2.4844t-0.14062-4z"/>
</defs>
<g transform="translate(118.5 817.3) scale(.1 -.1)">
<use xlink:href="#aw"/>
</g>
</g>
<g clip-path="url(#a)">
<defs>
<path id="u" d="m17.922 72.906v-27.109h-8.2969v27.109zm18.453 0v-27.109h-8.2969v27.109z"/>
</defs>
<g transform="translate(137.32 817.3) scale(.1 -.1)">
<use xlink:href="#u"/>
</g>
</g>
<g clip-path="url(#a)">
<defs>
<path id="ao" d="m11.719 12.406h10.297v-8.4062l-8-15.625h-6.2969l4 15.625z"/>
</defs>
<g transform="translate(159.12 817.3) scale(.1 -.1)">
<use xlink:href="#ao"/>
</g>
</g>
<g clip-path="url(#a)">
<defs>
<path id="ba" d="m37.109 75.984v-7.4844h-8.5938q-4.8281 0-6.7188-1.9531-1.875-1.9531-1.875-7.0312v-4.8281h14.797v-6.9844h-14.797v-47.703h-9.0312v47.703h-8.5938v6.9844h8.5938v3.8125q0 9.125 4.25 13.297 4.25 4.1875 13.469 4.1875z"/>
<path id="am" d="m45.406 27.984q0 9.7656-4.0312 15.125-4.0156 5.375-11.297 5.375-7.2188 0-11.25-5.375-4.0312-5.3594-4.0312-15.125 0-9.7188 4.0312-15.094t11.25-5.375q7.2812 0 11.297 5.375 4.0312 5.375 4.0312 15.094zm8.9844-21.203q0-13.953-6.2031-20.766-6.1875-6.8125-18.984-6.8125-4.7344 0-8.9375 0.70312t-8.1562 2.1719v8.7344q3.9531-2.1406 7.8125-3.1562 3.8594-1.0312 7.8594-1.0312 8.8438 0 13.234 4.6094t4.3906 13.938v4.4531q-2.7812-4.8438-7.125-7.2344t-10.406-2.3906q-10.047 0-16.203 7.6562-6.1562 7.6719-6.1562 20.328 0 12.688 6.1562 20.344 6.1562 7.6719 16.203 7.6719 6.0625 0 10.406-2.3906t7.125-7.2188v8.2969h8.9844z"/>
<path id="v" d="m18.312 70.219v-15.531h18.5v-6.9844h-18.5v-29.688q0-6.6875 1.8281-8.5938t7.4531-1.9062h9.2188v-7.5156h-9.2188q-10.406 0-14.359 3.875-3.9531 3.8906-3.9531 14.141v29.688h-6.5938v6.9844h6.5938v15.531z"/>
</defs>
<g transform="translate(169.35 817.3) scale(.1 -.1)">
<use xlink:href="#ba"/>
<use x="35.205078" xlink:href="#h"/>
<use x="76.318359" xlink:href="#i"/>
<use x="137.597656" xlink:href="#am"/>
<use x="201.074219" xlink:href="#v"/>
<use x="240.283203" xlink:href="#d"/>
</g>
</g>
<g clip-path="url(#a)">
<defs>
<path id="x" d="m45.406 46.391v29.594h8.9844v-75.984h-8.9844v8.2031q-2.8281-4.875-7.1562-7.25-4.3125-2.375-10.375-2.375-9.9062 0-16.141 7.9062-6.2188 7.9219-6.2188 20.812t6.2188 20.797q6.2344 7.9062 16.141 7.9062 6.0625 0 10.375-2.375 4.3281-2.3594 7.1562-7.2344zm-30.609-19.094q0-9.9062 4.0781-15.547t11.203-5.6406 11.219 5.6406q4.1094 5.6406 4.1094 15.547t-4.1094 15.547q-4.0938 5.6406-11.219 5.6406t-11.203-5.6406-4.0781-15.547z"/>
</defs>
<g transform="translate(202.5 817.3) scale(.1 -.1)">
<use xlink:href="#x"/>
<use x="63.476562" xlink:href="#d"/>
<use x="125" xlink:href="#h"/>
</g>
</g>
<g clip-path="url(#a)">
<g transform="translate(224.82 817.3) scale(.1 -.1)">
<use xlink:href="#al"/>
<use x="57.910156" xlink:href="#j"/>
<use x="85.693359" xlink:href="#d"/>
<use x="147.216797" xlink:href="#g"/>
<use x="175" xlink:href="#f"/>
<use x="238.378906" xlink:href="#d"/>
</g>
</g>
<g clip-path="url(#a)">
<g transform="translate(259.29 817.3) scale(.1 -.1)">
<use xlink:href="#t"/>
<use x="58.552734" xlink:href="#h"/>
<use x="99.666016" xlink:href="#g"/>
<use x="127.449219" xlink:href="#f"/>
<use x="190.828125" xlink:href="#ap"/>
</g>
</g>
<g clip-path="url(#a)">
<defs>
<path id="e" d="m10.688 12.406h10.312v-12.406h-10.312z"/>
</defs>
<g transform="translate(300.96 817.3) scale(.1 -.1)">
<use xlink:href="#e"/>
<use x="31.787109" xlink:href="#e"/>
<use x="63.574219" xlink:href="#e"/>
</g>
</g>
<g clip-path="url(#a)">
<defs>
<path id="an" d="m4.8906 31.391h26.312v-8h-26.312z"/>
</defs>
<g transform="translate(340.84 817.3) scale(.1 -.1)">
<use xlink:href="#an"/>
</g>
</g>
<g clip-path="url(#a)">
<g transform="translate(379.9 817.3) scale(.1 -.1)">
<use xlink:href="#u"/>
</g>
</g>
<g clip-path="url(#a)">
<g transform="translate(414.87 817.3) scale(.1 -.1)">
<use xlink:href="#ah"/>
<use x="77.001953" xlink:href="#i"/>
<use x="138.28125" xlink:href="#r"/>
</g>
</g>
<g clip-path="url(#a)">
<g transform="translate(458.87 817.3) scale(.1 -.1)">
<use xlink:href="#r"/>
<use x="52.099609" xlink:href="#g"/>
<use x="79.882812" xlink:href="#f"/>
<use x="143.261719" xlink:href="#x"/>
</g>
</g>
<g clip-path="url(#a)">
<g transform="translate(504.23 817.3) scale(.1 -.1)">
<use xlink:href="#f"/>
<use x="63.378906" xlink:href="#g"/>
<use x="91.162109" xlink:href="#w"/>
<use x="146.142578" xlink:href="#af"/>
<use x="209.521484" xlink:href="#v"/>
</g>
</g>
<g clip-path="url(#a)">
<defs>
<path id="ar" d="m48.688 27.297q0 9.9062-4.0781 15.547t-11.203 5.6406q-7.1406 0-11.219-5.6406t-4.0781-15.547 4.0781-15.547 11.219-5.6406q7.125 0 11.203 5.6406t4.0781 15.547zm-30.578 19.094q2.8438 4.875 7.1562 7.2344 4.3281 2.375 10.328 2.375 9.9688 0 16.188-7.9062 6.2344-7.9062 6.2344-20.797t-6.2344-20.812q-6.2188-7.9062-16.188-7.9062-6 0-10.328 2.375-4.3125 2.375-7.1562 7.25v-8.2031h-9.0312v75.984h9.0312z"/>
</defs>
<g transform="translate(542.64 817.3) scale(.1 -.1)">
<use xlink:href="#x"/>
<use x="63.476562" xlink:href="#g"/>
<use x="91.259766" xlink:href="#d"/>
<use x="152.783203" xlink:href="#r"/>
<use x="204.882812" xlink:href="#d"/>
<use x="266.40625" xlink:href="#j"/>
<use x="294.189453" xlink:href="#ar"/>
<use x="357.666016" xlink:href="#d"/>
<use x="419.189453" xlink:href="#f"/>
</g>
</g>
<g clip-path="url(#a)">
<g transform="translate(617.2 817.3) scale(.1 -.1)">
<use xlink:href="#u"/>
</g>
</g>
<g clip-path="url(#a)">
<g transform="translate(673.29 817.3) scale(.1 -.1)">
<use xlink:href="#ao"/>
</g>
</g>
<g clip-path="url(#a)">
<g transform="translate(719 817.3) scale(.1 -.1)">
<use xlink:href="#r"/>
<use x="52.099609" xlink:href="#i"/>
<use x="113.378906" xlink:href="#am"/>
<use x="176.855469" xlink:href="#v"/>
<use x="216.064453" xlink:href="#d"/>
</g>
</g>
<g clip-path="url(#a)">
<g transform="translate(785.22 817.3) scale(.1 -.1)">
<use xlink:href="#x"/>
<use x="63.476562" xlink:href="#d"/>
<use x="125" xlink:href="#h"/>
</g>
</g>
<g clip-path="url(#a)">
<defs>
<path id="as" d="m3.3281 72.906h9.9531l15.328-61.625 15.281 61.625h11.094l15.328-61.625 15.281 61.625h10.016l-18.312-72.906h-12.406l-15.375 63.281-15.531-63.281h-12.406z"/>
</defs>
<g transform="translate(819.98 817.3) scale(.1 -.1)">
<use xlink:href="#as"/>
<use x="93.001953" xlink:href="#d"/>
<use x="154.525391" xlink:href="#g"/>
<use x="182.308594" xlink:href="#w"/>
<use x="237.289062" xlink:href="#af"/>
<use x="300.667969" xlink:href="#d"/>
<use x="362.191406" xlink:href="#f"/>
<use x="425.570312" xlink:href="#r"/>
<use x="477.669922" xlink:href="#v"/>
<use x="516.878906" xlink:href="#d"/>
<use x="578.402344" xlink:href="#j"/>
<use x="606.185547" xlink:href="#j"/>
<use x="633.96875" xlink:href="#d"/>
<use x="695.492188" xlink:href="#h"/>
</g>
</g>
<g clip-path="url(#a)">
<g transform="translate(921.14 817.3) scale(.1 -.1)">
<use xlink:href="#e"/>
</g>
</g>
<g clip-path="url(#a)">
<g transform="translate(988.98 817.3) scale(.1 -.1)">
<use xlink:href="#u"/>
</g>
</g>
<g clip-path="url(#a)">
<g transform="translate(1054.8 817.3) scale(.1 -.1)">
<use xlink:href="#y"/>
<use x="63.476562" xlink:href="#g"/>
<use x="91.259766" xlink:href="#d"/>
</g>
</g>
<g clip-path="url(#a)">
<defs>
<path id="az" d="m4.2031 54.688h8.9844l11.234-42.672 11.172 42.672h10.594l11.234-42.672 11.188 42.672h8.9844l-14.312-54.688h-10.594l-11.766 44.828-11.812-44.828h-10.609z"/>
</defs>
<g transform="translate(1117.7 817.3) scale(.1 -.1)">
<use xlink:href="#az"/>
<use x="81.787109" xlink:href="#ae"/>
<use x="145.166016" xlink:href="#h"/>
<use x="184.529297" xlink:href="#x"/>
<use x="248.005859" xlink:href="#d"/>
<use x="309.529297" xlink:href="#f"/>
</g>
</g>
<g clip-path="url(#a)">
<g transform="translate(1179 817.3) scale(.1 -.1)">
<use xlink:href="#i"/>
<use x="61.279297" xlink:href="#ae"/>
<use x="124.658203" xlink:href="#r"/>
<use x="176.757812" xlink:href="#am"/>
<use x="240.234375" xlink:href="#d"/>
<use x="301.757812" xlink:href="#v"/>
<use x="340.966797" xlink:href="#i"/>
<use x="402.246094" xlink:href="#ae"/>
<use x="465.625" xlink:href="#r"/>
<use x="517.724609" xlink:href="#w"/>
<use x="572.705078" xlink:href="#af"/>
<use x="636.083984" xlink:href="#v"/>
</g>
</g>
<g clip-path="url(#a)">
<g transform="translate(1290.3 817.3) scale(.1 -.1)">
<use xlink:href="#e"/>
</g>
</g>
<g clip-path="url(#a)">
<g transform="translate(1371.3 817.3) scale(.1 -.1)">
<use xlink:href="#u"/>
</g>
</g>
<g clip-path="url(#a)">
<g transform="translate(1456.2 817.3) scale(.1 -.1)">
<use xlink:href="#an"/>
</g>
</g>
<g clip-path="url(#a)">
<g transform="translate(1542.7 817.3) scale(.1 -.1)">
<use xlink:href="#u"/>
</g>
</g>
<g clip-path="url(#a)">
<defs>
<path id="ag" d="m9.8125 72.906h9.8594v-72.906h-9.8594z"/>
<path id="at" d="m9.8125 72.906h14.703l18.594-49.609 18.703 49.609h14.703v-72.906h-9.625v64.016l-18.797-50h-9.9062l-18.797 50v-64.016h-9.5781z"/>
<path id="au" d="m9.8125 72.906h9.8594v-64.609h35.5v-8.2969h-45.359z"/>
</defs>
<g transform="translate(1526.6 664.63) scale(.1 -.1)">
<use xlink:href="#ag"/>
<use x="29.492188" xlink:href="#at"/>
<use x="115.771484" xlink:href="#t"/>
<use x="176.074219" xlink:href="#au"/>
<use x="231.787109" xlink:href="#ag"/>
<use x="261.279297" xlink:href="#ai"/>
<use x="331.103516" xlink:href="#ag"/>
<use x="360.595703" xlink:href="#l"/>
</g>
</g>
<g clip-path="url(#a)">
<defs>
<path id="c" d="m12.406 8.2969h16.109v55.625l-17.531-3.5156v8.9844l17.438 3.5156h9.8594v-64.609h16.109v-8.2969h-41.984z"/>
</defs>
<g transform="translate(391.04 41.547) scale(.1 -.1)">
<use xlink:href="#c"/>
<use x="63.623047" xlink:href="#e"/>
<use x="95.410156" xlink:href="#c"/>
</g>
</g>
<g clip-path="url(#a)">
<defs>
<path id="n" d="m19.188 8.2969h34.422v-8.2969h-46.281v8.2969q5.6094 5.8125 15.297 15.594 9.7031 9.7969 12.188 12.641 4.7344 5.3125 6.6094 9 1.8906 3.6875 1.8906 7.25 0 5.8125-4.0781 9.4688-4.0781 3.6719-10.625 3.6719-4.6406 0-9.7969-1.6094-5.1406-1.6094-11-4.8906v9.9688q5.9531 2.3906 11.125 3.6094 5.1875 1.2188 9.4844 1.2188 11.328 0 18.062-5.6719 6.7344-5.6562 6.7344-15.125 0-4.5-1.6875-8.5312-1.6719-4.0156-6.125-9.4844-1.2188-1.4219-7.7656-8.1875-6.5312-6.7656-18.453-18.922z"/>
</defs>
<g transform="translate(147.56 354.22) scale(.1 -.1)">
<use xlink:href="#c"/>
<use x="63.623047" xlink:href="#e"/>
<use x="95.410156" xlink:href="#n"/>
</g>
</g>
<g clip-path="url(#a)">
<defs>
<path id="m" d="m40.578 39.312q7.0781-1.5156 11.047-6.3125 3.9844-4.7812 3.9844-11.812 0-10.781-7.4219-16.703-7.4219-5.9062-21.094-5.9062-4.5781 0-9.4375 0.90625t-10.031 2.7188v9.5156q4.0938-2.3906 8.9688-3.6094 4.8906-1.2188 10.219-1.2188 9.2656 0 14.125 3.6562t4.8594 10.641q0 6.4531-4.5156 10.078-4.5156 3.6406-12.562 3.6406h-8.5v8.1094h8.8906q7.2656 0 11.125 2.9062t3.8594 8.375q0 5.6094-3.9844 8.6094-3.9688 3.0156-11.391 3.0156-4.0625 0-8.7031-0.89062-4.6406-0.875-10.203-2.7188v8.7812q5.625 1.5625 10.531 2.3438t9.25 0.78125q11.234 0 17.766-5.1094 6.5469-5.0938 6.5469-13.781 0-6.0625-3.4688-10.234t-9.8594-5.7812z"/>
</defs>
<g transform="translate(800.93 198.08) scale(.1 -.1)">
<use xlink:href="#c"/>
<use x="63.623047" xlink:href="#e"/>
<use x="95.410156" xlink:href="#m"/>
</g>
</g>
<g clip-path="url(#a)">
<g transform="translate(884.57 354.22) scale(.1 -.1)">
<use xlink:href="#c"/>
<use x="63.623047" xlink:href="#e"/>
<use x="95.410156" xlink:href="#c"/>
<use x="159.033203" xlink:href="#c"/>
</g>
</g>
<g clip-path="url(#a)">
<g transform="translate(721.75 664.63) scale(.1 -.1)">
<use xlink:href="#c"/>
<use x="63.623047" xlink:href="#e"/>
<use x="95.410156" xlink:href="#c"/>
<use x="159.033203" xlink:href="#n"/>
</g>
</g>
<g clip-path="url(#a)">
<g transform="translate(814.04 354.22) scale(.1 -.1)">
<use xlink:href="#c"/>
<use x="63.623047" xlink:href="#e"/>
<use x="95.410156" xlink:href="#c"/>
<use x="159.033203" xlink:href="#m"/>
</g>
</g>
<g clip-path="url(#a)">
<defs>
<path id="ac" d="m31.781 34.625q-7.0312 0-11.062-3.7656-4.0156-3.7656-4.0156-10.344 0-6.5938 4.0156-10.359 4.0312-3.7656 11.062-3.7656t11.078 3.7812q4.0625 3.7969 4.0625 10.344 0 6.5781-4.0312 10.344-4.0156 3.7656-11.109 3.7656zm-9.8594 4.1875q-6.3438 1.5625-9.8906 5.9062-3.5312 4.3594-3.5312 10.609 0 8.7344 6.2188 13.812 6.2344 5.0781 17.062 5.0781 10.891 0 17.094-5.0781t6.2031-13.812q0-6.25-3.5469-10.609-3.5312-4.3438-9.8281-5.9062 7.125-1.6562 11.094-6.5 3.9844-4.8281 3.9844-11.797 0-10.609-6.4688-16.281-6.4688-5.6562-18.531-5.6562-12.047 0-18.531 5.6562-6.4688 5.6719-6.4688 16.281 0 6.9688 4 11.797 4.0156 4.8438 11.141 6.5zm-3.6094 15.578q0-5.6562 3.5312-8.8281 3.5469-3.1719 9.9375-3.1719 6.3594 0 9.9375 3.1719 3.5938 3.1719 3.5938 8.8281 0 5.6719-3.5938 8.8438-3.5781 3.1719-9.9375 3.1719-6.3906 0-9.9375-3.1719-3.5312-3.1719-3.5312-8.8438z"/>
</defs>
<g transform="translate(782.4 664.63) scale(.1 -.1)">
<use xlink:href="#c"/>
<use x="63.623047" xlink:href="#e"/>
<use x="95.410156" xlink:href="#c"/>
<use x="159.033203" xlink:href="#ac"/>
</g>
</g>
<g clip-path="url(#a)">
<defs>
<path id="ab" d="m10.984 1.5156v8.9844q3.7188-1.7656 7.5156-2.6875 3.8125-0.92188 7.4844-0.92188 9.7656 0 14.906 6.5625 5.1562 6.5625 5.8906 19.953-2.8281-4.2031-7.1875-6.4531-4.3438-2.25-9.6094-2.25-10.938 0-17.312 6.6094-6.375 6.625-6.375 18.109 0 11.219 6.6406 18 6.6406 6.7969 17.672 6.7969 12.656 0 19.312-9.7031 6.6719-9.6875 6.6719-28.141 0-17.234-8.1875-27.516-8.1719-10.281-21.984-10.281-3.7188 0-7.5312 0.73438-3.7969 0.73438-7.9062 2.2031zm19.625 30.906q6.6406 0 10.516 4.5312 3.8906 4.5469 3.8906 12.469 0 7.8594-3.8906 12.422-3.875 4.5625-10.516 4.5625t-10.516-4.5625-3.875-12.422q0-7.9219 3.875-12.469 3.875-4.5312 10.516-4.5312z"/>
</defs>
<g transform="translate(845.68 509.83) scale(.1 -.1)">
<use xlink:href="#c"/>
<use x="63.623047" xlink:href="#e"/>
<use x="95.410156" xlink:href="#c"/>
<use x="159.033203" xlink:href="#ab"/>
</g>
</g>
<g clip-path="url(#a)">
<defs>
<path id="ad" d="m31.781 66.406q-7.6094 0-11.453-7.5-3.8281-7.4844-3.8281-22.531 0-14.984 3.8281-22.484 3.8438-7.5 11.453-7.5 7.6719 0 11.5 7.5 3.8438 7.5 3.8438 22.484 0 15.047-3.8438 22.531-3.8281 7.5-11.5 7.5zm0 7.8125q12.266 0 18.734-9.7031 6.4688-9.6875 6.4688-28.141 0-18.406-6.4688-28.109-6.4688-9.6875-18.734-9.6875-12.25 0-18.719 9.6875-6.4688 9.7031-6.4688 28.109 0 18.453 6.4688 28.141 6.4688 9.7031 18.719 9.7031z"/>
</defs>
<g transform="translate(845.68 664.63) scale(.1 -.1)">
<use xlink:href="#c"/>
<use x="63.623047" xlink:href="#e"/>
<use x="95.410156" xlink:href="#n"/>
<use x="159.033203" xlink:href="#ad"/>
</g>
</g>
<g clip-path="url(#a)">
<g transform="translate(483.12 509.83) scale(.1 -.1)">
<use xlink:href="#c"/>
<use x="63.623047" xlink:href="#e"/>
<use x="95.410156" xlink:href="#n"/>
<use x="159.033203" xlink:href="#c"/>
</g>
</g>
<g clip-path="url(#a)">
<g transform="translate(1286 509.83) scale(.1 -.1)">
<use xlink:href="#c"/>
<use x="63.623047" xlink:href="#e"/>
<use x="95.410156" xlink:href="#n"/>
<use x="159.033203" xlink:href="#n"/>
</g>
</g>
<g clip-path="url(#a)">
<defs>
<path id="p" d="m37.797 64.312-24.906-38.922h24.906zm-2.5938 8.5938h12.406v-47.516h10.406v-8.2031h-10.406v-17.188h-9.8125v17.188h-32.906v9.5156z"/>
</defs>
<g transform="translate(1051.3 664.63) scale(.1 -.1)">
<use xlink:href="#c"/>
<use x="63.623047" xlink:href="#e"/>
<use x="95.410156" xlink:href="#n"/>
<use x="159.033203" xlink:href="#p"/>
</g>
</g>
<g clip-path="url(#a)">
<defs>
<path id="s" d="m10.797 72.906h38.719v-8.3125h-29.688v-17.859q2.1406 0.73438 4.2812 1.0938 2.1562 0.35938 4.3125 0.35938 12.203 0 19.328-6.6875 7.1406-6.6875 7.1406-18.109 0-11.766-7.3281-18.297-7.3281-6.5156-20.656-6.5156-4.5938 0-9.3594 0.78125-4.75 0.78125-9.8281 2.3438v9.9219q4.3906-2.3906 9.0781-3.5625t9.9062-1.1719q8.4531 0 13.375 4.4375 4.9375 4.4375 4.9375 12.062 0 7.6094-4.9375 12.047-4.9219 4.4531-13.375 4.4531-3.9531 0-7.8906-0.875-3.9219-0.875-8.0156-2.7344z"/>
</defs>
<g transform="translate(1125.2 664.63) scale(.1 -.1)">
<use xlink:href="#c"/>
<use x="63.623047" xlink:href="#e"/>
<use x="95.410156" xlink:href="#n"/>
<use x="159.033203" xlink:href="#s"/>
</g>
</g>
<g clip-path="url(#a)">
<defs>
<path id="ak" d="m33.016 40.375q-6.6406 0-10.531-4.5469-3.875-4.5312-3.875-12.438 0-7.8594 3.875-12.438 3.8906-4.5625 10.531-4.5625t10.516 4.5625q3.875 4.5781 3.875 12.438 0 7.9062-3.875 12.438-3.875 4.5469-10.516 4.5469zm19.578 30.922v-8.9844q-3.7188 1.75-7.5 2.6719-3.7812 0.9375-7.5 0.9375-9.7656 0-14.922-6.5938-5.1406-6.5938-5.875-19.922 2.875 4.25 7.2188 6.5156 4.3594 2.2656 9.5781 2.2656 10.984 0 17.359-6.6719 6.375-6.6562 6.375-18.125 0-11.234-6.6406-18.031-6.6406-6.7812-17.672-6.7812-12.656 0-19.344 9.6875-6.6875 9.7031-6.6875 28.109 0 17.281 8.2031 27.562t22.016 10.281q3.7188 0 7.5-0.73438t7.8906-2.1875z"/>
</defs>
<g transform="translate(1201.6 664.63) scale(.1 -.1)">
<use xlink:href="#c"/>
<use x="63.623047" xlink:href="#e"/>
<use x="95.410156" xlink:href="#n"/>
<use x="159.033203" xlink:href="#ak"/>
</g>
</g>
<g clip-path="url(#a)">
<defs>
<path id="aj" d="m8.2031 72.906h46.875v-4.2031l-26.469-68.703h-10.297l24.906 64.594h-35.016z"/>
</defs>
<g transform="translate(413.25 664.63) scale(.1 -.1)">
<use xlink:href="#c"/>
<use x="63.623047" xlink:href="#e"/>
<use x="95.410156" xlink:href="#n"/>
<use x="159.033203" xlink:href="#aj"/>
</g>
</g>
<g clip-path="url(#a)">
<g transform="translate(458.08 664.63) scale(.1 -.1)">
<use xlink:href="#c"/>
<use x="63.623047" xlink:href="#e"/>
<use x="95.410156" xlink:href="#n"/>
<use x="159.033203" xlink:href="#ac"/>
</g>
</g>
<g clip-path="url(#a)">
<g transform="translate(505.54 664.63) scale(.1 -.1)">
<use xlink:href="#c"/>
<use x="63.623047" xlink:href="#e"/>
<use x="95.410156" xlink:href="#n"/>
<use x="159.033203" xlink:href="#ab"/>
</g>
</g>
<g clip-path="url(#a)">
<g transform="translate(555.64 664.63) scale(.1 -.1)">
<use xlink:href="#c"/>
<use x="63.623047" xlink:href="#e"/>
<use x="95.410156" xlink:href="#m"/>
<use x="159.033203" xlink:href="#ad"/>
</g>
</g>
<g clip-path="url(#a)">
<g transform="translate(75.308 509.83) scale(.1 -.1)">
<use xlink:href="#c"/>
<use x="63.623047" xlink:href="#e"/>
<use x="95.410156" xlink:href="#m"/>
<use x="159.033203" xlink:href="#c"/>
</g>
</g>
<g clip-path="url(#a)">
<g transform="translate(173.31 664.63) scale(.1 -.1)">
<use xlink:href="#c"/>
<use x="63.623047" xlink:href="#e"/>
<use x="95.410156" xlink:href="#m"/>
<use x="159.033203" xlink:href="#n"/>
</g>
</g>
<g clip-path="url(#a)">
<g transform="translate(229.56 509.83) scale(.1 -.1)">
<use xlink:href="#c"/>
<use x="63.623047" xlink:href="#e"/>
<use x="95.410156" xlink:href="#m"/>
<use x="159.033203" xlink:href="#m"/>
</g>
</g>
<g clip-path="url(#a)">
<g transform="translate(110.03 664.63) scale(.1 -.1)">
<use xlink:href="#c"/>
<use x="63.623047" xlink:href="#e"/>
<use x="95.410156" xlink:href="#m"/>
<use x="159.033203" xlink:href="#p"/>
</g>
</g>
<g clip-path="url(#a)">
<g transform="translate(128.48 664.63) scale(.1 -.1)">
<use xlink:href="#c"/>
<use x="63.623047" xlink:href="#e"/>
<use x="95.410156" xlink:href="#m"/>
<use x="159.033203" xlink:href="#s"/>
</g>
</g>
<g clip-path="url(#a)">
<g transform="translate(149.58 664.63) scale(.1 -.1)">
<use xlink:href="#c"/>
<use x="63.623047" xlink:href="#e"/>
<use x="95.410156" xlink:href="#m"/>
<use x="159.033203" xlink:href="#ak"/>
</g>
</g>
<g clip-path="url(#a)">
<g transform="translate(199.67 664.63) scale(.1 -.1)">
<use xlink:href="#c"/>
<use x="63.623047" xlink:href="#e"/>
<use x="95.410156" xlink:href="#m"/>
<use x="159.033203" xlink:href="#aj"/>
</g>
</g>
<g clip-path="url(#a)">
<g transform="translate(228.68 664.63) scale(.1 -.1)">
<use xlink:href="#c"/>
<use x="63.623047" xlink:href="#e"/>
<use x="95.410156" xlink:href="#m"/>
<use x="159.033203" xlink:href="#ac"/>
</g>
</g>
<g clip-path="url(#a)">
<g transform="translate(260.32 664.63) scale(.1 -.1)">
<use xlink:href="#c"/>
<use x="63.623047" xlink:href="#e"/>
<use x="95.410156" xlink:href="#m"/>
<use x="159.033203" xlink:href="#ab"/>
</g>
</g>
<g clip-path="url(#a)">
<g transform="translate(62.564 664.63) scale(.1 -.1)">
<use xlink:href="#c"/>
<use x="63.623047" xlink:href="#e"/>
<use x="95.410156" xlink:href="#p"/>
<use x="159.033203" xlink:href="#ad"/>
</g>
</g>
<g clip-path="url(#a)">
<g transform="translate(82.34 664.63) scale(.1 -.1)">
<use xlink:href="#c"/>
<use x="63.623047" xlink:href="#e"/>
<use x="95.410156" xlink:href="#p"/>
<use x="159.033203" xlink:href="#c"/>
</g>
</g>
<g clip-path="url(#a)">
<g transform="translate(81.021 664.63) scale(.1 -.1)">
<use xlink:href="#c"/>
<use x="63.623047" xlink:href="#e"/>
<use x="95.410156" xlink:href="#p"/>
<use x="159.033203" xlink:href="#n"/>
</g>
</g>
<g clip-path="url(#a)">
<g transform="translate(294.6 664.63) scale(.1 -.1)">
<use xlink:href="#c"/>
<use x="63.623047" xlink:href="#e"/>
<use x="95.410156" xlink:href="#p"/>
<use x="159.033203" xlink:href="#m"/>
</g>
</g>
<g clip-path="url(#a)">
<g transform="translate(331.51 664.63) scale(.1 -.1)">
<use xlink:href="#c"/>
<use x="63.623047" xlink:href="#e"/>
<use x="95.410156" xlink:href="#p"/>
<use x="159.033203" xlink:href="#p"/>
</g>
</g>
<g clip-path="url(#a)">
<g transform="translate(371.06 664.63) scale(.1 -.1)">
<use xlink:href="#c"/>
<use x="63.623047" xlink:href="#e"/>
<use x="95.410156" xlink:href="#p"/>
<use x="159.033203" xlink:href="#s"/>
</g>
</g>
<g clip-path="url(#a)">
<g transform="translate(608.37 664.63) scale(.1 -.1)">
<use xlink:href="#c"/>
<use x="63.623047" xlink:href="#e"/>
<use x="95.410156" xlink:href="#p"/>
<use x="159.033203" xlink:href="#ak"/>
</g>
</g>
<g clip-path="url(#a)">
<g transform="translate(663.74 664.63) scale(.1 -.1)">
<use xlink:href="#c"/>
<use x="63.623047" xlink:href="#e"/>
<use x="95.410156" xlink:href="#p"/>
<use x="159.033203" xlink:href="#aj"/>
</g>
</g>
<g clip-path="url(#a)">
<g transform="translate(911.6 664.63) scale(.1 -.1)">
<use xlink:href="#c"/>
<use x="63.623047" xlink:href="#e"/>
<use x="95.410156" xlink:href="#p"/>
<use x="159.033203" xlink:href="#ac"/>
</g>
</g>
<g clip-path="url(#a)">
<g transform="translate(980.15 664.63) scale(.1 -.1)">
<use xlink:href="#c"/>
<use x="63.623047" xlink:href="#e"/>
<use x="95.410156" xlink:href="#p"/>
<use x="159.033203" xlink:href="#ab"/>
</g>
</g>
<g clip-path="url(#a)">
<g transform="translate(1280.7 664.63) scale(.1 -.1)">
<use xlink:href="#c"/>
<use x="63.623047" xlink:href="#e"/>
<use x="95.410156" xlink:href="#s"/>
<use x="159.033203" xlink:href="#ad"/>
</g>
</g>
<g clip-path="url(#a)">
<g transform="translate(1362.5 664.63) scale(.1 -.1)">
<use xlink:href="#c"/>
<use x="63.623047" xlink:href="#e"/>
<use x="95.410156" xlink:href="#s"/>
<use x="159.033203" xlink:href="#c"/>
</g>
</g>
<g clip-path="url(#a)">
<g transform="translate(1446.9 664.63) scale(.1 -.1)">
<use xlink:href="#c"/>
<use x="63.623047" xlink:href="#e"/>
<use x="95.410156" xlink:href="#s"/>
<use x="159.033203" xlink:href="#n"/>
</g>
</g>
<g clip-path="url(#a)">
<g transform="translate(1533.9 664.63) scale(.1 -.1)">
<use xlink:href="#c"/>
<use x="63.623047" xlink:href="#e"/>
<use x="95.410156" xlink:href="#s"/>
<use x="159.033203" xlink:href="#m"/>
</g>
</g>
<defs>
<clipPath id="a">
<rect width="1621.3" height="853.33"/>
</clipPath>
</defs>
</svg>
