<?xml version="1.0" encoding="UTF-8"?>
<!DOCTYPE svg  PUBLIC '-//W3C//DTD SVG 1.1//EN'  'http://www.w3.org/Graphics/SVG/1.1/DTD/svg11.dtd'>
<svg width="1469.3pt" height="773.33pt" version="1.1" viewBox="0 0 1469.3 773.33" xmlns="http://www.w3.org/2000/svg" xmlns:xlink="http://www.w3.org/1999/xlink">
<defs>
<style type="text/css">*{stroke-linecap:butt;stroke-linejoin:round;}</style>
</defs>
<path d="m0 773.33h1469.3v-773.33h-1469.3z" fill="#fff"/>
<g fill="none" stroke="#000">
<path d="m692.51 35.152-419.61 118.24" clip-path="url(#a)"/>
<path d="m692.51 35.152 98.412 587.94" clip-path="url(#a)"/>
<path d="m692.51 35.152 311.9 353.94" clip-path="url(#a)"/>
<path d="m692.51 35.152-25.643 587.94" clip-path="url(#a)"/>
<path d="m692.51 35.152 34.942 587.94" clip-path="url(#a)"/>
<path d="m272.9 153.39 21.122 118" clip-path="url(#a)"/>
<path d="m272.9 153.39-56.092 469.7" clip-path="url(#a)"/>
<path d="m272.9 153.39 11.225 353.01" clip-path="url(#a)"/>
<path d="m272.9 153.39-110.91 469.7" clip-path="url(#a)"/>
<path d="m272.9 153.39-84.942 469.7" clip-path="url(#a)"/>
<path d="m272.9 153.39 88.159 469.7" clip-path="url(#a)"/>
<path d="m272.9 153.39 131.43 469.7" clip-path="url(#a)"/>
<path d="m790.92 623.09v115.09" clip-path="url(#a)"/>
<path d="m1004.4 389.09-147.14 234" clip-path="url(#a)"/>
<path d="m1004.4 389.09-77.895 234" clip-path="url(#a)"/>
<path d="m1004.4 389.09 230.8 117.3" clip-path="url(#a)"/>
<path d="m1004.4 389.09-5.77 234" clip-path="url(#a)"/>
<path d="m857.28 623.09v115.09" clip-path="url(#a)"/>
<path d="m926.52 623.09v115.09" clip-path="url(#a)"/>
<path d="m1235.2 506.4-161.56 116.69" clip-path="url(#a)"/>
<path d="m1235.2 506.4-83.665 116.69" clip-path="url(#a)"/>
<path d="m1235.2 506.4-2.885 116.69" clip-path="url(#a)"/>
<path d="m1235.2 506.4 80.78 116.69" clip-path="url(#a)"/>
<path d="m1235.2 506.4 167.33 116.69" clip-path="url(#a)"/>
<path d="m1073.7 623.09v115.09" clip-path="url(#a)"/>
<path d="m1151.5 623.09v115.09" clip-path="url(#a)"/>
<path d="m1232.3 623.09v115.09" clip-path="url(#a)"/>
<path d="m1316 623.09v115.09" clip-path="url(#a)"/>
<path d="m294.02 271.39-206.8 117.7" clip-path="url(#a)"/>
<path d="m294.02 271.39 206.8 117.7" clip-path="url(#a)"/>
<path d="m216.81 623.09v115.09" clip-path="url(#a)"/>
<path d="m284.12 506.4-35.582 116.69" clip-path="url(#a)"/>
<path d="m284.12 506.4-0.96167 116.69" clip-path="url(#a)"/>
<path d="m284.12 506.4 36.543 116.69" clip-path="url(#a)"/>
<path d="m248.54 623.09v115.09" clip-path="url(#a)"/>
<path d="m283.16 623.09v115.09" clip-path="url(#a)"/>
<path d="m320.67 623.09v115.09" clip-path="url(#a)"/>
<path d="m87.223 389.09-20.435 234" clip-path="url(#a)"/>
<path d="m87.223 389.09-11.78 234" clip-path="url(#a)"/>
<path d="m87.223 389.09-0.24042 234" clip-path="url(#a)"/>
<path d="m87.223 389.09 32.456 117.3" clip-path="url(#a)"/>
<path d="m500.82 389.09 108.35 117.3" clip-path="url(#a)"/>
<path d="m500.82 389.09-50.327 234" clip-path="url(#a)"/>
<path d="m500.82 389.09-1.2822 234" clip-path="url(#a)"/>
<path d="m500.82 389.09 51.61 117.3" clip-path="url(#a)"/>
<path d="m450.49 623.09v115.09" clip-path="url(#a)"/>
<path d="m499.54 623.09v115.09" clip-path="url(#a)"/>
<path d="m552.43 506.4-52.892 116.69" clip-path="url(#a)" stroke-dasharray="3.7,1.6"/>
<path d="m552.43 506.4-0.96167 116.69" clip-path="url(#a)"/>
<path d="m552.43 506.4 53.853 116.69" clip-path="url(#a)"/>
<path d="m551.47 623.09v115.09" clip-path="url(#a)"/>
<path d="m606.28 623.09v115.09" clip-path="url(#a)"/>
<path d="m66.788 623.09v115.09" clip-path="url(#a)"/>
<path d="m75.443 623.09v115.09" clip-path="url(#a)"/>
<path d="m86.983 623.09v115.09" clip-path="url(#a)"/>
<path d="m119.68 506.4-18.272 116.69" clip-path="url(#a)"/>
<path d="m119.68 506.4-0.96167 116.69" clip-path="url(#a)"/>
<path d="m119.68 506.4 19.233 116.69" clip-path="url(#a)"/>
<path d="m101.41 623.09v115.09" clip-path="url(#a)"/>
<path d="m118.72 623.09v115.09" clip-path="url(#a)"/>
<path d="m138.91 623.09v115.09" clip-path="url(#a)"/>
<path d="m161.99 623.09v115.09" clip-path="url(#a)"/>
<path d="m187.96 623.09v115.09" clip-path="url(#a)"/>
<path d="m361.06 623.09v115.09" clip-path="url(#a)"/>
<path d="m404.33 623.09v115.09" clip-path="url(#a)"/>
<path d="m666.87 623.09v115.09" clip-path="url(#a)"/>
<path d="m727.45 623.09v115.09" clip-path="url(#a)"/>
<path d="m998.64 623.09v115.09" clip-path="url(#a)"/>
<path d="m1402.5 623.09v115.09" clip-path="url(#a)"/>
</g>
<path d="m481.51 101.12 5.7907-1.6317q2.31-0.65093 1.6591-2.961l-2.0999-7.4523q-0.65093-2.31-2.961-1.6591l-5.7907 1.6317q-2.31 0.65093-1.6591 2.961l2.0999 7.4523q0.65093 2.31 2.961 1.6591z" clip-path="url(#a)" fill="#fff" stroke="#fff"/>
<g clip-path="url(#a)">
<defs>
<path id="x" d="m9.8125 72.906h9.8594v-29.891h35.844v29.891h9.8594v-72.906h-9.8594v34.719h-35.844v-34.719h-9.8594z"/>
</defs>
<g transform="translate(480.41 97.212) rotate(-15.737) scale(.08 -.08)">
<use xlink:href="#x"/>
</g>
</g>
<path d="m735.17 327.96 0.73588 4.3963q0.39621 2.3671 2.7633 1.9709l7.6363-1.2782q2.3671-0.39621 1.9709-2.7633l-0.73588-4.3963q-0.39621-2.3671-2.7633-1.9709l-7.6363 1.2782q-2.3671 0.39621-1.9709 2.7633z" clip-path="url(#a)" fill="#fff" stroke="#fff"/>
<g clip-path="url(#a)">
<defs>
<path id="al" d="m9.8125 72.906h9.8594v-64.609h35.5v-8.2969h-45.359z"/>
</defs>
<g transform="translate(739.17 327.29) rotate(80.498) scale(.08 -.08)">
<use xlink:href="#al"/>
</g>
</g>
<path d="m841.77 214.01 3.9776 4.5137q1.5867 1.8006 3.3874 0.21388l5.8089-5.1189q1.8006-1.5867 0.21388-3.3874l-3.9776-4.5137q-1.5867-1.8006-3.3874-0.21388l-5.8089 5.1189q-1.8006 1.5867-0.21388 3.3874z" clip-path="url(#a)" fill="#fff" stroke="#fff"/>
<g clip-path="url(#a)">
<g transform="translate(844.82 211.33) rotate(48.613) scale(.08 -.08)">
<use xlink:href="#x"/>
</g>
</g>
<path d="m685.83 332.32 0.25513-5.8494q0.10458-2.3977-2.2931-2.5023l-7.7351-0.33737q-2.3977-0.10458-2.5023 2.2931l-0.25513 5.8494q-0.10458 2.3977 2.2931 2.5023l7.7351 0.33737q2.3977 0.10458 2.5023-2.2931z" clip-path="url(#a)" fill="#fff" stroke="#fff"/>
<g clip-path="url(#a)">
<defs>
<path id="q" d="m8.6875 72.906h9.9219v-44.297q0-11.719 4.2344-16.875 4.25-5.1406 13.781-5.1406 9.4688 0 13.719 5.1406 4.25 5.1562 4.25 16.875v44.297h9.9062v-45.516q0-14.25-7.0625-21.531-7.0469-7.2812-20.812-7.2812-13.828 0-20.891 7.2812-7.0469 7.2812-7.0469 21.531z"/>
</defs>
<g transform="translate(681.77 332.14) rotate(-87.503) scale(.08 -.08)">
<use xlink:href="#q"/>
</g>
</g>
<path d="m703.55 326.57 0.34736 5.8447q0.14238 2.3958 2.5382 2.2534l7.7289-0.45933q2.3958-0.14238 2.2534-2.5382l-0.34736-5.8447q-0.14238-2.3958-2.5382-2.2534l-7.7289 0.45933q-2.3958 0.14238-2.2534 2.5382z" clip-path="url(#a)" fill="#fff" stroke="#fff"/>
<g clip-path="url(#a)">
<g transform="translate(707.61 326.33) rotate(86.599) scale(.08 -.08)">
<use xlink:href="#q"/>
</g>
</g>
<path d="m276.81 210.8 0.96426 5.3869q0.42288 2.3624 2.7853 1.9396l7.6214-1.3642q2.3624-0.42288 1.9396-2.7853l-0.96426-5.3869q-0.42288-2.3624-2.7853-1.9396l-7.6214 1.3642q-2.3624 0.42288-1.9396 2.7853z" clip-path="url(#a)" fill="#fff" stroke="#fff"/>
<g clip-path="url(#a)">
<defs>
<path id="o" d="m34.188 63.188-13.391-36.281h26.812zm-5.5781 9.7188h11.188l27.781-72.906h-10.25l-6.6406 18.703h-32.859l-6.6406-18.703h-10.406z"/>
</defs>
<g transform="translate(280.81 210.09) rotate(79.851) scale(.08 -.08)">
<use xlink:href="#o"/>
</g>
</g>
<path d="m250.79 391.38 0.57199-4.7897q0.28459-2.3831-2.0985-2.6677l-7.6879-0.91808q-2.3831-0.28459-2.6677 2.0985l-0.57199 4.7897q-0.28459 2.3831 2.0985 2.6677l7.6879 0.91809q2.3831 0.28459 2.6677-2.0985z" clip-path="url(#a)" fill="#fff" stroke="#fff"/>
<g clip-path="url(#a)">
<defs>
<path id="t" d="m19.672 64.797v-27.391h12.406q6.8906 0 10.641 3.5625 3.7656 3.5625 3.7656 10.156 0 6.5469-3.7656 10.109-3.75 3.5625-10.641 3.5625zm-9.8594 8.1094h22.266q12.266 0 18.531-5.5469 6.2812-5.5469 6.2812-16.234 0-10.797-6.2812-16.312-6.2656-5.5156-18.531-5.5156h-12.406v-29.297h-9.8594z"/>
</defs>
<g transform="translate(246.76 390.9) rotate(-83.19) scale(.08 -.08)">
<use xlink:href="#t"/>
</g>
</g>
<path d="m272.16 327.36 0.17393 5.4697q0.076278 2.3988 2.4751 2.3225l7.7386-0.24608q2.3988-0.076278 2.3225-2.4751l-0.17393-5.4697q-0.076278-2.3988-2.4751-2.3225l-7.7386 0.24608q-2.3988 0.076278-2.3225 2.4751z" clip-path="url(#a)" fill="#fff" stroke="#fff"/>
<g clip-path="url(#a)">
<g transform="translate(276.22 327.23) rotate(88.179) scale(.08 -.08)">
<use xlink:href="#o"/>
</g>
</g>
<path d="m222.88 392.53 1.3455-5.6983q0.55153-2.3358-1.7842-2.8873l-7.5353-1.7792q-2.3358-0.55153-2.8873 1.7842l-1.3455 5.6983q-0.55153 2.3358 1.7842 2.8873l7.5353 1.7792q2.3358 0.55153 2.8873-1.7842z" clip-path="url(#a)" fill="#fff" stroke="#fff"/>
<g clip-path="url(#a)">
<g transform="translate(218.92 391.6) rotate(-76.715) scale(.08 -.08)">
<use xlink:href="#q"/>
</g>
</g>
<path d="m236.08 392.24 1.0419-5.7615q0.42709-2.3617-1.9346-2.7888l-7.6189-1.3778q-2.3617-0.42709-2.7888 1.9346l-1.0419 5.7615q-0.42709 2.3617 1.9346 2.7888l7.6189 1.3778q2.3617 0.42709 2.7888-1.9346z" clip-path="url(#a)" fill="#fff" stroke="#fff"/>
<g clip-path="url(#a)">
<g transform="translate(232.08 391.51) rotate(-79.749) scale(.08 -.08)">
<use xlink:href="#q"/>
</g>
</g>
<path d="m310.28 386.52 1.0801 5.7545q0.44273 2.3588 2.8015 1.9161l7.6096-1.4283q2.3588-0.44273 1.9161-2.8015l-1.0801-5.7545q-0.44273-2.3588-2.8015-1.9161l-7.6096 1.4283q-2.3588 0.44273-1.9161 2.8015z" clip-path="url(#a)" fill="#fff" stroke="#fff"/>
<g clip-path="url(#a)">
<g transform="translate(314.27 385.77) rotate(79.37) scale(.08 -.08)">
<use xlink:href="#q"/>
</g>
</g>
<path d="m331.79 387.11 1.5778 5.6384q0.64674 2.3112 2.958 1.6645l7.4561-2.0864q2.3112-0.64674 1.6645-2.958l-1.5778-5.6384q-0.64674-2.3112-2.958-1.6645l-7.4561 2.0864q-2.3112 0.64674-1.6645 2.958z" clip-path="url(#a)" fill="#fff" stroke="#fff"/>
<g clip-path="url(#a)">
<g transform="translate(335.7 386.02) rotate(74.367) scale(.08 -.08)">
<use xlink:href="#q"/>
</g>
</g>
<path d="m784.65 663.73v33.808q0 2.4 2.4 2.4h7.7425q2.4 0 2.4-2.4v-33.808q0-2.4-2.4-2.4h-7.7425q-2.4 0-2.4 2.4z" clip-path="url(#a)" fill="#fff" stroke="#fff"/>
<g clip-path="url(#a)">
<defs>
<path id="k" d="m-0.29688 72.906h61.672v-8.3125h-25.875v-64.594h-9.9062v64.594h-25.891z"/>
<path id="d" d="m56.203 29.594v-4.3906h-41.312q0.59375-9.2812 5.5938-14.141t13.938-4.8594q5.1719 0 10.031 1.2656t9.6562 3.8125v-8.5q-4.8438-2.0469-9.9219-3.125t-10.297-1.0781q-13.094 0-20.734 7.6094-7.6406 7.625-7.6406 20.625 0 13.422 7.25 21.297 7.25 7.8906 19.562 7.8906 11.031 0 17.453-7.1094 6.4219-7.0938 6.4219-19.297zm-8.9844 2.6406q-0.09375 7.3594-4.125 11.75-4.0312 4.4062-10.672 4.4062-7.5156 0-12.031-4.25t-5.2031-11.969z"/>
<path id="f" d="m41.109 46.297q-1.5156 0.875-3.2969 1.2812-1.7812 0.42188-3.9219 0.42188-7.625 0-11.703-4.9531t-4.0781-14.234v-28.812h-9.0312v54.688h9.0312v-8.5q2.8438 4.9844 7.375 7.3906 4.5469 2.4219 11.047 2.4219 0.92188 0 2.0469-0.125 1.125-0.10938 2.4844-0.35938z"/>
<path id="j" d="m52 44.188q3.375 6.0625 8.0625 8.9375t11.031 2.875q8.5469 0 13.188-5.9844 4.6406-5.9688 4.6406-17v-33.016h-9.0312v32.719q0 7.8594-2.7969 11.656-2.7812 3.8125-8.4844 3.8125-6.9844 0-11.047-4.6406-4.0469-4.625-4.0469-12.641v-30.906h-9.0312v32.719q0 7.9062-2.7812 11.688t-8.5938 3.7812q-6.8906 0-10.953-4.6562-4.0469-4.6562-4.0469-12.625v-30.906h-9.0312v54.688h9.0312v-8.5q3.0781 5.0312 7.375 7.4219t10.203 2.3906q5.9688 0 10.141-3.0312 4.1719-3.0156 6.1719-8.7812z"/>
<path id="g" d="m9.4219 54.688h8.9844v-54.688h-8.9844zm0 21.297h8.9844v-11.391h-8.9844z"/>
<path id="h" d="m54.891 33.016v-33.016h-8.9844v32.719q0 7.7656-3.0312 11.609-3.0312 3.8594-9.0781 3.8594-7.2812 0-11.484-4.6406-4.2031-4.625-4.2031-12.641v-30.906h-9.0312v54.688h9.0312v-8.5q3.2344 4.9375 7.5938 7.375 4.375 2.4375 10.094 2.4375 9.4219 0 14.25-5.8281 4.8438-5.8281 4.8438-17.156z"/>
<path id="i" d="m34.281 27.484q-10.891 0-15.094-2.4844t-4.2031-8.5q0-4.7812 3.1562-7.5938 3.1562-2.7969 8.5625-2.7969 7.4844 0 12 5.2969t4.5156 14.078v2zm17.922 3.7188v-31.203h-8.9844v8.2969q-3.0781-4.9688-7.6719-7.3438t-11.234-2.375q-8.3906 0-13.359 4.7188-4.9531 4.7188-4.9531 12.625 0 9.2188 6.1719 13.906 6.1875 4.6875 18.438 4.6875h12.609v0.89062q0 6.2031-4.0781 9.5938t-11.453 3.3906q-4.6875 0-9.1406-1.125-4.4375-1.125-8.5312-3.375v8.3125q4.9219 1.9062 9.5625 2.8438 4.6406 0.95312 9.0312 0.95312 11.875 0 17.734-6.1562 5.8594-6.1406 5.8594-18.641z"/>
<path id="l" d="m9.4219 75.984h8.9844v-75.984h-8.9844z"/>
</defs>
<g transform="translate(788.72 663.73) rotate(90) scale(.08 -.08)">
<use xlink:href="#k"/>
<use x="44.083984" xlink:href="#d"/>
<use x="105.607422" xlink:href="#f"/>
<use x="144.970703" xlink:href="#j"/>
<use x="242.382812" xlink:href="#g"/>
<use x="270.166016" xlink:href="#h"/>
<use x="333.544922" xlink:href="#i"/>
<use x="394.824219" xlink:href="#l"/>
</g>
</g>
<path d="m934.7 511.75 2.913-4.6328q1.2775-2.0317-0.75419-3.3093l-6.5544-4.1214q-2.0317-1.2775-3.3093 0.75419l-2.913 4.6328q-1.2775 2.0317 0.75419 3.3093l6.5544 4.1214q2.0317 1.2775 3.3093-0.75419z" clip-path="url(#a)" fill="#fff" stroke="#fff"/>
<g clip-path="url(#a)">
<g transform="translate(931.26 509.58) rotate(-57.839) scale(.08 -.08)">
<use xlink:href="#o"/>
</g>
</g>
<path d="m970.62 510.48 1.6041-4.8188q0.75804-2.2771-1.5191-3.0352l-7.3462-2.4455q-2.2771-0.75804-3.0352 1.5191l-1.6041 4.8188q-0.75804 2.2771 1.5191 3.0352l7.3462 2.4455q2.2771 0.75804 3.0352-1.5191z" clip-path="url(#a)" fill="#fff" stroke="#fff"/>
<g clip-path="url(#a)">
<defs>
<path id="as" d="m53.516 70.516v-9.625q-5.6094 2.6875-10.594 4-4.9844 1.3281-9.625 1.3281-8.0469 0-12.422-3.125t-4.375-8.8906q0-4.8438 2.9062-7.3125 2.9062-2.4531 11.016-3.9688l5.9531-1.2188q11.031-2.1094 16.281-7.4062t5.25-14.172q0-10.609-7.1094-16.078-7.0938-5.4688-20.812-5.4688-5.1719 0-11.016 1.1719-5.8281 1.1719-12.078 3.4688v10.156q6-3.3594 11.766-5.0781 5.7656-1.7031 11.328-1.7031 8.4375 0 13.031 3.3125 4.5938 3.3281 4.5938 9.4844 0 5.3594-3.2969 8.3906t-10.812 4.5469l-6.0156 1.1719q-11.031 2.1875-15.969 6.875-4.9219 4.6875-4.9219 13.047 0 9.6719 6.8125 15.234t18.766 5.5625q5.1406 0 10.453-0.9375 5.3281-0.92188 10.891-2.7656z"/>
</defs>
<g transform="translate(966.76 509.2) rotate(-71.588) scale(.08 -.08)">
<use xlink:href="#as"/>
</g>
</g>
<path d="m1114.5 452.1 4.8786 2.4795q2.1395 1.0874 3.2269-1.0521l3.508-6.9022q1.0874-2.1395-1.0521-3.2269l-4.8786-2.4795q-2.1395-1.0874-3.2269 1.0521l-3.508 6.9022q-1.0874 2.1395 1.0521 3.2269z" clip-path="url(#a)" fill="#fff" stroke="#fff"/>
<g clip-path="url(#a)">
<g transform="translate(1116.4 448.47) rotate(26.942) scale(.08 -.08)">
<use xlink:href="#o"/>
</g>
</g>
<path d="m1007.7 509.17 0.14433-5.8532q0.059162-2.3993-2.3401-2.4584l-7.7401-0.19086q-2.3993-0.059163-2.4584 2.3401l-0.14433 5.8532q-0.059163 2.3993 2.3401 2.4584l7.7401 0.19086q2.3993 0.059163 2.4584-2.3401z" clip-path="url(#a)" fill="#fff" stroke="#fff"/>
<g clip-path="url(#a)">
<g transform="translate(1003.7 509.07) rotate(-88.587) scale(.08 -.08)">
<use xlink:href="#q"/>
</g>
</g>
<path d="m851.01 663.73v33.808q0 2.4 2.4 2.4h7.7425q2.4 0 2.4-2.4v-33.808q0-2.4-2.4-2.4h-7.7425q-2.4 0-2.4 2.4z" clip-path="url(#a)" fill="#fff" stroke="#fff"/>
<g clip-path="url(#a)">
<g transform="translate(855.07 663.73) rotate(90) scale(.08 -.08)">
<use xlink:href="#k"/>
<use x="44.083984" xlink:href="#d"/>
<use x="105.607422" xlink:href="#f"/>
<use x="144.970703" xlink:href="#j"/>
<use x="242.382812" xlink:href="#g"/>
<use x="270.166016" xlink:href="#h"/>
<use x="333.544922" xlink:href="#i"/>
<use x="394.824219" xlink:href="#l"/>
</g>
</g>
<path d="m920.25 663.73v33.808q0 2.4 2.4 2.4h7.7425q2.4 0 2.4-2.4v-33.808q0-2.4-2.4-2.4h-7.7425q-2.4 0-2.4 2.4z" clip-path="url(#a)" fill="#fff" stroke="#fff"/>
<g clip-path="url(#a)">
<g transform="translate(924.31 663.73) rotate(90) scale(.08 -.08)">
<use xlink:href="#k"/>
<use x="44.083984" xlink:href="#d"/>
<use x="105.607422" xlink:href="#f"/>
<use x="144.970703" xlink:href="#j"/>
<use x="242.382812" xlink:href="#g"/>
<use x="270.166016" xlink:href="#h"/>
<use x="333.544922" xlink:href="#i"/>
<use x="394.824219" xlink:href="#l"/>
</g>
</g>
<path d="m1155.9 571.43 4.4363-3.2043q1.9456-1.4053 0.54032-3.3508l-4.5334-6.2765q-1.4053-1.9456-3.3508-0.54032l-4.4363 3.2043q-1.9456 1.4053-0.54032 3.3508l4.5334 6.2765q1.4053 1.9456 3.3508 0.54032z" clip-path="url(#a)" fill="#fff" stroke="#fff"/>
<g clip-path="url(#a)">
<g transform="translate(1153.5 568.14) rotate(-35.84) scale(.08 -.08)">
<use xlink:href="#o"/>
</g>
</g>
<path d="m1196.9 570.62 3.1887-4.4475q1.3984-1.9505-0.55204-3.3489l-6.2923-4.5114q-1.9505-1.3984-3.3489 0.55204l-3.1887 4.4475q-1.3984 1.9505 0.55204 3.3489l6.2923 4.5114q1.9505 1.3984 3.3489-0.55204z" clip-path="url(#a)" fill="#fff" stroke="#fff"/>
<g clip-path="url(#a)">
<g transform="translate(1193.6 568.25) rotate(-54.36) scale(.08 -.08)">
<use xlink:href="#o"/>
</g>
</g>
<path d="m1240 567.31 0.11922-4.8223q0.059317-2.3993-2.34-2.4586l-7.7401-0.19136q-2.3993-0.059318-2.4586 2.3399l-0.11922 4.8223q-0.059318 2.3993 2.3399 2.4586l7.7401 0.19136q2.3993 0.059318 2.4586-2.3399z" clip-path="url(#a)" fill="#fff" stroke="#fff"/>
<g clip-path="url(#a)">
<g transform="translate(1235.9 567.21) rotate(-88.584) scale(.08 -.08)">
<use xlink:href="#t"/>
</g>
</g>
<path d="m1269.1 566.42 2.6189 3.7832q1.366 1.9733 3.3393 0.60728l6.366-4.4069q1.9733-1.366 0.60729-3.3393l-2.6189-3.7832q-1.366-1.9733-3.3393-0.60728l-6.366 4.4069q-1.9733 1.366-0.60728 3.3393z" clip-path="url(#a)" fill="#fff" stroke="#fff"/>
<g clip-path="url(#a)">
<defs>
<path id="y" d="m9.8125 72.906h41.891v-8.3125h-32.031v-21.484h28.906v-8.2969h-28.906v-34.812h-9.8594z"/>
</defs>
<g transform="translate(1272.5 564.11) rotate(55.307) scale(.08 -.08)">
<use xlink:href="#y"/>
</g>
</g>
<path d="m1312.9 568.21 4.8025 3.3492q1.9686 1.3728 3.3414-0.59574l4.4288-6.3507q1.3728-1.9686-0.59574-3.3414l-4.8025-3.3492q-1.9686-1.3728-3.3414 0.59574l-4.4288 6.3507q-1.3728 1.9686 0.59574 3.3414z" clip-path="url(#a)" fill="#fff" stroke="#fff"/>
<g clip-path="url(#a)">
<g transform="translate(1315.2 564.88) rotate(34.891) scale(.08 -.08)">
<use xlink:href="#q"/>
</g>
</g>
<path d="m1067.4 663.73v33.808q0 2.4 2.4 2.4h7.7425q2.4 0 2.4-2.4v-33.808q0-2.4-2.4-2.4h-7.7425q-2.4 0-2.4 2.4z" clip-path="url(#a)" fill="#fff" stroke="#fff"/>
<g clip-path="url(#a)">
<g transform="translate(1071.4 663.73) rotate(90) scale(.08 -.08)">
<use xlink:href="#k"/>
<use x="44.083984" xlink:href="#d"/>
<use x="105.607422" xlink:href="#f"/>
<use x="144.970703" xlink:href="#j"/>
<use x="242.382812" xlink:href="#g"/>
<use x="270.166016" xlink:href="#h"/>
<use x="333.544922" xlink:href="#i"/>
<use x="394.824219" xlink:href="#l"/>
</g>
</g>
<path d="m1145.3 663.73v33.808q0 2.4 2.4 2.4h7.7425q2.4 0 2.4-2.4v-33.808q0-2.4-2.4-2.4h-7.7425q-2.4 0-2.4 2.4z" clip-path="url(#a)" fill="#fff" stroke="#fff"/>
<g clip-path="url(#a)">
<g transform="translate(1149.3 663.73) rotate(90) scale(.08 -.08)">
<use xlink:href="#k"/>
<use x="44.083984" xlink:href="#d"/>
<use x="105.607422" xlink:href="#f"/>
<use x="144.970703" xlink:href="#j"/>
<use x="242.382812" xlink:href="#g"/>
<use x="270.166016" xlink:href="#h"/>
<use x="333.544922" xlink:href="#i"/>
<use x="394.824219" xlink:href="#l"/>
</g>
</g>
<path d="m1226.1 663.73v33.808q0 2.4 2.4 2.4h7.7425q2.4 0 2.4-2.4v-33.808q0-2.4-2.4-2.4h-7.7425q-2.4 0-2.4 2.4z" clip-path="url(#a)" fill="#fff" stroke="#fff"/>
<g clip-path="url(#a)">
<g transform="translate(1230.1 663.73) rotate(90) scale(.08 -.08)">
<use xlink:href="#k"/>
<use x="44.083984" xlink:href="#d"/>
<use x="105.607422" xlink:href="#f"/>
<use x="144.970703" xlink:href="#j"/>
<use x="242.382812" xlink:href="#g"/>
<use x="270.166016" xlink:href="#h"/>
<use x="333.544922" xlink:href="#i"/>
<use x="394.824219" xlink:href="#l"/>
</g>
</g>
<path d="m1309.7 663.73v33.808q0 2.4 2.4 2.4h7.7425q2.4 0 2.4-2.4v-33.808q0-2.4-2.4-2.4h-7.7425q-2.4 0-2.4 2.4z" clip-path="url(#a)" fill="#fff" stroke="#fff"/>
<g clip-path="url(#a)">
<g transform="translate(1313.8 663.73) rotate(90) scale(.08 -.08)">
<use xlink:href="#k"/>
<use x="44.083984" xlink:href="#d"/>
<use x="105.607422" xlink:href="#f"/>
<use x="144.970703" xlink:href="#j"/>
<use x="242.382812" xlink:href="#g"/>
<use x="270.166016" xlink:href="#h"/>
<use x="333.544922" xlink:href="#i"/>
<use x="394.824219" xlink:href="#l"/>
</g>
</g>
<path d="m191.11 337.18 5.2287-2.976q2.0858-1.1872 0.89863-3.273l-3.8299-6.7289q-1.1872-2.0858-3.273-0.89863l-5.2287 2.976q-2.0858 1.1872-0.89863 3.273l3.8299 6.7289q1.1872 2.0858 3.273 0.89863z" clip-path="url(#a)" fill="#fff" stroke="#fff"/>
<g clip-path="url(#a)">
<g transform="translate(189.1 333.65) rotate(-29.647) scale(.08 -.08)">
<use xlink:href="#x"/>
</g>
</g>
<path d="m391.71 334.21 5.2287 2.976q2.0858 1.1872 3.273-0.89863l3.8299-6.7289q1.1872-2.0858-0.89863-3.273l-5.2287-2.976q-2.0858-1.1872-3.273 0.89863l-3.8299 6.7289q-1.1872 2.0858 0.89863 3.273z" clip-path="url(#a)" fill="#fff" stroke="#fff"/>
<g clip-path="url(#a)">
<g transform="translate(393.72 330.67) rotate(29.647) scale(.08 -.08)">
<use xlink:href="#x"/>
</g>
</g>
<path d="m210.54 663.73v33.808q0 2.4 2.4 2.4h7.7425q2.4 0 2.4-2.4v-33.808q0-2.4-2.4-2.4h-7.7425q-2.4 0-2.4 2.4z" clip-path="url(#a)" fill="#fff" stroke="#fff"/>
<g clip-path="url(#a)">
<g transform="translate(214.6 663.73) rotate(90) scale(.08 -.08)">
<use xlink:href="#k"/>
<use x="44.083984" xlink:href="#d"/>
<use x="105.607422" xlink:href="#f"/>
<use x="144.970703" xlink:href="#j"/>
<use x="242.382812" xlink:href="#g"/>
<use x="270.166016" xlink:href="#h"/>
<use x="333.544922" xlink:href="#i"/>
<use x="394.824219" xlink:href="#l"/>
</g>
</g>
<path d="m271.66 568.77 1.342-4.4012q0.69999-2.2957-1.5957-2.9956l-7.4059-2.2582q-2.2957-0.69999-2.9956 1.5957l-1.342 4.4012q-0.69999 2.2957 1.5957 2.9956l7.4059 2.2582q2.2957 0.69999 2.9956-1.5957z" clip-path="url(#a)" fill="#fff" stroke="#fff"/>
<g clip-path="url(#a)">
<g transform="translate(267.77 567.59) rotate(-73.042) scale(.08 -.08)">
<use xlink:href="#y"/>
</g>
</g>
<path d="m289.89 567.32 0.041657-5.0548q0.019778-2.3999-2.3801-2.4197l-7.7422-0.063804q-2.3999-0.019778-2.4197 2.3801l-0.041657 5.0548q-0.019778 2.3999 2.3801 2.4197l7.7422 0.063804q2.3999 0.019778 2.4197-2.3801z" clip-path="url(#a)" fill="#fff" stroke="#fff"/>
<g clip-path="url(#a)">
<defs>
<path id="am" d="m9.8125 72.906h46.094v-8.3125h-36.234v-21.578h34.719v-8.2969h-34.719v-26.422h37.109v-8.2969h-46.969z"/>
</defs>
<g transform="translate(285.83 567.29) rotate(-89.528) scale(.08 -.08)">
<use xlink:href="#am"/>
</g>
</g>
<path d="m295.58 563.95 1.6694 5.331q0.71724 2.2903 3.0076 1.5731l7.3887-2.3138q2.2903-0.71724 1.5731-3.0076l-1.6694-5.331q-0.71724-2.2903-3.0076-1.5731l-7.3887 2.3138q-2.2903 0.71724-1.5731 3.0076z" clip-path="url(#a)" fill="#fff" stroke="#fff"/>
<g clip-path="url(#a)">
<defs>
<path id="ae" d="m64.406 67.281v-10.391q-4.9844 4.6406-10.625 6.9219-5.6406 2.2969-11.984 2.2969-12.5 0-19.141-7.6406t-6.6406-22.094q0-14.406 6.6406-22.047t19.141-7.6406q6.3438 0 11.984 2.2969t10.625 6.9375v-10.312q-5.1719-3.5156-10.969-5.2812-5.7812-1.75-12.219-1.75-16.562 0-26.094 10.125-9.5156 10.141-9.5156 27.672 0 17.578 9.5156 27.703 9.5312 10.141 26.094 10.141 6.5312 0 12.312-1.7344 5.7969-1.7344 10.875-5.2031z"/>
</defs>
<g transform="translate(299.46 562.74) rotate(72.611) scale(.08 -.08)">
<use xlink:href="#ae"/>
</g>
</g>
<path d="m242.27 663.73v33.808q0 2.4 2.4 2.4h7.7425q2.4 0 2.4-2.4v-33.808q0-2.4-2.4-2.4h-7.7425q-2.4 0-2.4 2.4z" clip-path="url(#a)" fill="#fff" stroke="#fff"/>
<g clip-path="url(#a)">
<g transform="translate(246.34 663.73) rotate(90) scale(.08 -.08)">
<use xlink:href="#k"/>
<use x="44.083984" xlink:href="#d"/>
<use x="105.607422" xlink:href="#f"/>
<use x="144.970703" xlink:href="#j"/>
<use x="242.382812" xlink:href="#g"/>
<use x="270.166016" xlink:href="#h"/>
<use x="333.544922" xlink:href="#i"/>
<use x="394.824219" xlink:href="#l"/>
</g>
</g>
<path d="m276.89 663.73v33.808q0 2.4 2.4 2.4h7.7425q2.4 0 2.4-2.4v-33.808q0-2.4-2.4-2.4h-7.7425q-2.4 0-2.4 2.4z" clip-path="url(#a)" fill="#fff" stroke="#fff"/>
<g clip-path="url(#a)">
<g transform="translate(280.96 663.73) rotate(90) scale(.08 -.08)">
<use xlink:href="#k"/>
<use x="44.083984" xlink:href="#d"/>
<use x="105.607422" xlink:href="#f"/>
<use x="144.970703" xlink:href="#j"/>
<use x="242.382812" xlink:href="#g"/>
<use x="270.166016" xlink:href="#h"/>
<use x="333.544922" xlink:href="#i"/>
<use x="394.824219" xlink:href="#l"/>
</g>
</g>
<path d="m314.4 663.73v33.808q0 2.4 2.4 2.4h7.7425q2.4 0 2.4-2.4v-33.808q0-2.4-2.4-2.4h-7.7425q-2.4 0-2.4 2.4z" clip-path="url(#a)" fill="#fff" stroke="#fff"/>
<g clip-path="url(#a)">
<g transform="translate(318.46 663.73) rotate(90) scale(.08 -.08)">
<use xlink:href="#k"/>
<use x="44.083984" xlink:href="#d"/>
<use x="105.607422" xlink:href="#f"/>
<use x="144.970703" xlink:href="#j"/>
<use x="242.382812" xlink:href="#g"/>
<use x="270.166016" xlink:href="#h"/>
<use x="333.544922" xlink:href="#i"/>
<use x="394.824219" xlink:href="#l"/>
</g>
</g>
<path d="m83.015 509.36 0.47612-5.4517q0.2088-2.3909-2.1821-2.5997l-7.7131-0.67361q-2.3909-0.2088-2.5997 2.1821l-0.47612 5.4517q-0.2088 2.3909 2.1821 2.5997l7.7131 0.67361q2.3909 0.2088 2.5997-2.1821z" clip-path="url(#a)" fill="#fff" stroke="#fff"/>
<g clip-path="url(#a)">
<g transform="translate(78.967 509.01) rotate(-85.009) scale(.08 -.08)">
<use xlink:href="#o"/>
</g>
</g>
<path d="m87.475 508.82 0.24254-4.8176q0.12067-2.397-2.2763-2.5176l-7.7327-0.3893q-2.397-0.12067-2.5176 2.2763l-0.24254 4.8176q-0.12067 2.397 2.2763 2.5176l7.7327 0.3893q2.397 0.12067 2.5176-2.2763z" clip-path="url(#a)" fill="#fff" stroke="#fff"/>
<g clip-path="url(#a)">
<g transform="translate(83.417 508.61) rotate(-87.118) scale(.08 -.08)">
<use xlink:href="#t"/>
</g>
</g>
<path d="m93.372 508.4 0.004728-4.6012q0.002466-2.4-2.3975-2.4025l-7.7425-0.007955q-2.4-0.002465-2.4025 2.3975l-0.004727 4.6012q-0.002466 2.4 2.3975 2.4025l7.7425 0.007954q2.4 0.002466 2.4025-2.3975z" clip-path="url(#a)" fill="#fff" stroke="#fff"/>
<g clip-path="url(#a)">
<g transform="translate(89.308 508.4) rotate(-89.941) scale(.08 -.08)">
<use xlink:href="#y"/>
</g>
</g>
<path d="m96.678 446.78 1.4593 5.2743q0.64 2.3131 2.9531 1.6731l7.4621-2.0647q2.3131-0.64 1.6731-2.9531l-1.4593-5.2743q-0.64-2.3131-2.9531-1.6731l-7.4621 2.0647q-2.3131 0.64-1.6731 2.9531z" clip-path="url(#a)" fill="#fff" stroke="#fff"/>
<g clip-path="url(#a)">
<g transform="translate(100.59 445.7) rotate(74.534) scale(.08 -.08)">
<use xlink:href="#o"/>
</g>
</g>
<path d="m548.53 449.99 3.7131 4.0201q1.6284 1.763 3.3914 0.13461l5.6876-5.2533q1.763-1.6284 0.1346-3.3914l-3.7131-4.0201q-1.6284-1.763-3.3914-0.13461l-5.6876 5.2533q-1.763 1.6284-0.13461 3.3914z" clip-path="url(#a)" fill="#fff" stroke="#fff"/>
<g clip-path="url(#a)">
<g transform="translate(551.52 447.23) rotate(47.273) scale(.08 -.08)">
<use xlink:href="#o"/>
</g>
</g>
<path d="m481.28 509.77 1.0143-4.7159q0.50465-2.3463-1.8417-2.851l-7.5694-1.628q-2.3463-0.50465-2.851 1.8417l-1.0143 4.7159q-0.50465 2.3463 1.8417 2.851l7.5694 1.628q2.3463 0.50465 2.851-1.8417z" clip-path="url(#a)" fill="#fff" stroke="#fff"/>
<g clip-path="url(#a)">
<g transform="translate(477.31 508.91) rotate(-77.862) scale(.08 -.08)">
<use xlink:href="#t"/>
</g>
</g>
<path d="m506.44 508.86 0.029987-5.4724q0.013151-2.4-2.3868-2.4131l-7.7424-0.042425q-2.4-0.013151-2.4131 2.3868l-0.029987 5.4724q-0.013151 2.4 2.3868 2.4131l7.7424 0.042426q2.4 0.013151 2.4131-2.3868z" clip-path="url(#a)" fill="#fff" stroke="#fff"/>
<g clip-path="url(#a)">
<g transform="translate(502.37 508.84) rotate(-89.686) scale(.08 -.08)">
<use xlink:href="#o"/>
</g>
</g>
<path d="m519.78 447.77 2.2038 5.0091q0.96651 2.1968 3.1633 1.2303l7.0869-3.118q2.1968-0.96651 1.2303-3.1633l-2.2038-5.0091q-0.96651-2.1968-3.1633-1.2303l-7.0869 3.118q-2.1968 0.96651-1.2303 3.1633z" clip-path="url(#a)" fill="#fff" stroke="#fff"/>
<g clip-path="url(#a)">
<g transform="translate(523.5 446.13) rotate(66.252) scale(.08 -.08)">
<use xlink:href="#o"/>
</g>
</g>
<path d="m444.22 663.73v33.808q0 2.4 2.4 2.4h7.7425q2.4 0 2.4-2.4v-33.808q0-2.4-2.4-2.4h-7.7425q-2.4 0-2.4 2.4z" clip-path="url(#a)" fill="#fff" stroke="#fff"/>
<g clip-path="url(#a)">
<g transform="translate(448.29 663.73) rotate(90) scale(.08 -.08)">
<use xlink:href="#k"/>
<use x="44.083984" xlink:href="#d"/>
<use x="105.607422" xlink:href="#f"/>
<use x="144.970703" xlink:href="#j"/>
<use x="242.382812" xlink:href="#g"/>
<use x="270.166016" xlink:href="#h"/>
<use x="333.544922" xlink:href="#i"/>
<use x="394.824219" xlink:href="#l"/>
</g>
</g>
<path d="m493.27 663.73v33.808q0 2.4 2.4 2.4h7.7425q2.4 0 2.4-2.4v-33.808q0-2.4-2.4-2.4h-7.7425q-2.4 0-2.4 2.4z" clip-path="url(#a)" fill="#fff" stroke="#fff"/>
<g clip-path="url(#a)">
<g transform="translate(497.33 663.73) rotate(90) scale(.08 -.08)">
<use xlink:href="#k"/>
<use x="44.083984" xlink:href="#d"/>
<use x="105.607422" xlink:href="#f"/>
<use x="144.970703" xlink:href="#j"/>
<use x="242.382812" xlink:href="#g"/>
<use x="270.166016" xlink:href="#h"/>
<use x="333.544922" xlink:href="#i"/>
<use x="394.824219" xlink:href="#l"/>
</g>
</g>
<path d="m530.57 569.83 2.2592-4.9844q0.9908-2.1859-1.1951-3.1767l-7.0519-3.1964q-2.1859-0.9908-3.1767 1.1951l-2.2592 4.9844q-0.9908 2.1859 1.1951 3.1767l7.0519 3.1964q2.1859 0.9908 3.1767-1.1951z" clip-path="url(#a)" fill="#fff" stroke="#fff"/>
<g clip-path="url(#a)">
<g transform="translate(526.87 568.15) rotate(-65.617) scale(.08 -.08)">
<use xlink:href="#o"/>
</g>
</g>
<path d="m558.2 567.1 0.037918-4.6011q0.019778-2.3999-2.3801-2.4197l-7.7422-0.063804q-2.3999-0.019778-2.4197 2.3801l-0.037918 4.6011q-0.019778 2.3999 2.3801 2.4197l7.7422 0.063804q2.3999 0.019778 2.4197-2.3801z" clip-path="url(#a)" fill="#fff" stroke="#fff"/>
<g clip-path="url(#a)">
<g transform="translate(554.14 567.06) rotate(-89.528) scale(.08 -.08)">
<use xlink:href="#y"/>
</g>
</g>
<path d="m572.65 565.18 2.0213 4.3798q1.0057 2.1791 3.1848 1.1735l7.03-3.2443q2.1791-1.0057 1.1735-3.1848l-2.0213-4.3798q-1.0057-2.1791-3.1848-1.1735l-7.03 3.2443q-2.1791 1.0057-1.1735 3.1848z" clip-path="url(#a)" fill="#fff" stroke="#fff"/>
<g clip-path="url(#a)">
<g transform="translate(576.34 563.48) rotate(65.227) scale(.08 -.08)">
<use xlink:href="#t"/>
</g>
</g>
<path d="m545.2 663.73v33.808q0 2.4 2.4 2.4h7.7425q2.4 0 2.4-2.4v-33.808q0-2.4-2.4-2.4h-7.7425q-2.4 0-2.4 2.4z" clip-path="url(#a)" fill="#fff" stroke="#fff"/>
<g clip-path="url(#a)">
<g transform="translate(549.26 663.73) rotate(90) scale(.08 -.08)">
<use xlink:href="#k"/>
<use x="44.083984" xlink:href="#d"/>
<use x="105.607422" xlink:href="#f"/>
<use x="144.970703" xlink:href="#j"/>
<use x="242.382812" xlink:href="#g"/>
<use x="270.166016" xlink:href="#h"/>
<use x="333.544922" xlink:href="#i"/>
<use x="394.824219" xlink:href="#l"/>
</g>
</g>
<path d="m600.01 663.73v33.808q0 2.4 2.4 2.4h7.7425q2.4 0 2.4-2.4v-33.808q0-2.4-2.4-2.4h-7.7425q-2.4 0-2.4 2.4z" clip-path="url(#a)" fill="#fff" stroke="#fff"/>
<g clip-path="url(#a)">
<g transform="translate(604.08 663.73) rotate(90) scale(.08 -.08)">
<use xlink:href="#k"/>
<use x="44.083984" xlink:href="#d"/>
<use x="105.607422" xlink:href="#f"/>
<use x="144.970703" xlink:href="#j"/>
<use x="242.382812" xlink:href="#g"/>
<use x="270.166016" xlink:href="#h"/>
<use x="333.544922" xlink:href="#i"/>
<use x="394.824219" xlink:href="#l"/>
</g>
</g>
<path d="m60.517 663.73v33.808q0 2.4 2.4 2.4h7.7425q2.4 0 2.4-2.4v-33.808q0-2.4-2.4-2.4h-7.7425q-2.4 0-2.4 2.4z" clip-path="url(#a)" fill="#fff" stroke="#fff"/>
<g clip-path="url(#a)">
<g transform="translate(64.58 663.73) rotate(90) scale(.08 -.08)">
<use xlink:href="#k"/>
<use x="44.083984" xlink:href="#d"/>
<use x="105.607422" xlink:href="#f"/>
<use x="144.970703" xlink:href="#j"/>
<use x="242.382812" xlink:href="#g"/>
<use x="270.166016" xlink:href="#h"/>
<use x="333.544922" xlink:href="#i"/>
<use x="394.824219" xlink:href="#l"/>
</g>
</g>
<path d="m69.172 663.73v33.808q0 2.4 2.4 2.4h7.7425q2.4 0 2.4-2.4v-33.808q0-2.4-2.4-2.4h-7.7425q-2.4 0-2.4 2.4z" clip-path="url(#a)" fill="#fff" stroke="#fff"/>
<g clip-path="url(#a)">
<g transform="translate(73.235 663.73) rotate(90) scale(.08 -.08)">
<use xlink:href="#k"/>
<use x="44.083984" xlink:href="#d"/>
<use x="105.607422" xlink:href="#f"/>
<use x="144.970703" xlink:href="#j"/>
<use x="242.382812" xlink:href="#g"/>
<use x="270.166016" xlink:href="#h"/>
<use x="333.544922" xlink:href="#i"/>
<use x="394.824219" xlink:href="#l"/>
</g>
</g>
<path d="m80.712 663.73v33.808q0 2.4 2.4 2.4h7.7425q2.4 0 2.4-2.4v-33.808q0-2.4-2.4-2.4h-7.7425q-2.4 0-2.4 2.4z" clip-path="url(#a)" fill="#fff" stroke="#fff"/>
<g clip-path="url(#a)">
<g transform="translate(84.775 663.73) rotate(90) scale(.08 -.08)">
<use xlink:href="#k"/>
<use x="44.083984" xlink:href="#d"/>
<use x="105.607422" xlink:href="#f"/>
<use x="144.970703" xlink:href="#j"/>
<use x="242.382812" xlink:href="#g"/>
<use x="270.166016" xlink:href="#h"/>
<use x="333.544922" xlink:href="#i"/>
<use x="394.824219" xlink:href="#l"/>
</g>
</g>
<path d="m116.31 568.46 0.85992-5.4918q0.37127-2.3711-1.9998-2.7424l-7.6493-1.1977q-2.3711-0.37127-2.7424 1.9998l-0.85992 5.4918q-0.37127 2.3711 1.9998 2.7424l7.6493 1.1977q2.3711 0.37127 2.7424-1.9998z" clip-path="url(#a)" fill="#fff" stroke="#fff"/>
<g clip-path="url(#a)">
<defs>
<path id="at" d="m44.391 34.188q3.1719-1.0781 6.1719-4.5938t6.0312-9.6719l10.016-19.922h-10.609l-9.3125 18.703q-3.625 7.3281-7.0156 9.7188t-9.25 2.3906h-10.75v-30.812h-9.8594v72.906h22.266q12.5 0 18.656-5.2344 6.1562-5.2188 6.1562-15.766 0-6.8906-3.2031-11.438-3.2031-4.5312-9.2969-6.2812zm-24.719 30.609v-25.875h12.406q7.125 0 10.766 3.2969t3.6406 9.6875-3.6406 9.6406-10.766 3.25z"/>
</defs>
<g transform="translate(112.29 567.83) rotate(-81.101) scale(.08 -.08)">
<use xlink:href="#at"/>
</g>
</g>
<path d="m125.45 567.32 0.041657-5.0548q0.019778-2.3999-2.3801-2.4197l-7.7422-0.063804q-2.3999-0.019778-2.4197 2.3801l-0.041657 5.0548q-0.019778 2.3999 2.3801 2.4197l7.7422 0.063804q2.3999 0.019778 2.4197-2.3801z" clip-path="url(#a)" fill="#fff" stroke="#fff"/>
<g clip-path="url(#a)">
<g transform="translate(121.39 567.29) rotate(-89.528) scale(.08 -.08)">
<use xlink:href="#am"/>
</g>
</g>
<path d="m122.65 563.01 0.90848 5.5119q0.39031 2.368 2.7584 1.9777l7.6394-1.2591q2.368-0.39031 1.9777-2.7584l-0.90848-5.5119q-0.39031-2.368-2.7584-1.9777l-7.6394 1.2591q-2.368 0.39031-1.9777 2.7584z" clip-path="url(#a)" fill="#fff" stroke="#fff"/>
<g clip-path="url(#a)">
<g transform="translate(126.66 562.35) rotate(80.641) scale(.08 -.08)">
<use xlink:href="#ae"/>
</g>
</g>
<path d="m95.137 663.73v33.808q0 2.4 2.4 2.4h7.7425q2.4 0 2.4-2.4v-33.808q0-2.4-2.4-2.4h-7.7425q-2.4 0-2.4 2.4z" clip-path="url(#a)" fill="#fff" stroke="#fff"/>
<g clip-path="url(#a)">
<g transform="translate(99.2 663.73) rotate(90) scale(.08 -.08)">
<use xlink:href="#k"/>
<use x="44.083984" xlink:href="#d"/>
<use x="105.607422" xlink:href="#f"/>
<use x="144.970703" xlink:href="#j"/>
<use x="242.382812" xlink:href="#g"/>
<use x="270.166016" xlink:href="#h"/>
<use x="333.544922" xlink:href="#i"/>
<use x="394.824219" xlink:href="#l"/>
</g>
</g>
<path d="m112.45 663.73v33.808q0 2.4 2.4 2.4h7.7425q2.4 0 2.4-2.4v-33.808q0-2.4-2.4-2.4h-7.7425q-2.4 0-2.4 2.4z" clip-path="url(#a)" fill="#fff" stroke="#fff"/>
<g clip-path="url(#a)">
<g transform="translate(116.51 663.73) rotate(90) scale(.08 -.08)">
<use xlink:href="#k"/>
<use x="44.083984" xlink:href="#d"/>
<use x="105.607422" xlink:href="#f"/>
<use x="144.970703" xlink:href="#j"/>
<use x="242.382812" xlink:href="#g"/>
<use x="270.166016" xlink:href="#h"/>
<use x="333.544922" xlink:href="#i"/>
<use x="394.824219" xlink:href="#l"/>
</g>
</g>
<path d="m132.64 663.73v33.808q0 2.4 2.4 2.4h7.7425q2.4 0 2.4-2.4v-33.808q0-2.4-2.4-2.4h-7.7425q-2.4 0-2.4 2.4z" clip-path="url(#a)" fill="#fff" stroke="#fff"/>
<g clip-path="url(#a)">
<g transform="translate(136.71 663.73) rotate(90) scale(.08 -.08)">
<use xlink:href="#k"/>
<use x="44.083984" xlink:href="#d"/>
<use x="105.607422" xlink:href="#f"/>
<use x="144.970703" xlink:href="#j"/>
<use x="242.382812" xlink:href="#g"/>
<use x="270.166016" xlink:href="#h"/>
<use x="333.544922" xlink:href="#i"/>
<use x="394.824219" xlink:href="#l"/>
</g>
</g>
<path d="m155.72 663.73v33.808q0 2.4 2.4 2.4h7.7425q2.4 0 2.4-2.4v-33.808q0-2.4-2.4-2.4h-7.7425q-2.4 0-2.4 2.4z" clip-path="url(#a)" fill="#fff" stroke="#fff"/>
<g clip-path="url(#a)">
<g transform="translate(159.79 663.73) rotate(90) scale(.08 -.08)">
<use xlink:href="#k"/>
<use x="44.083984" xlink:href="#d"/>
<use x="105.607422" xlink:href="#f"/>
<use x="144.970703" xlink:href="#j"/>
<use x="242.382812" xlink:href="#g"/>
<use x="270.166016" xlink:href="#h"/>
<use x="333.544922" xlink:href="#i"/>
<use x="394.824219" xlink:href="#l"/>
</g>
</g>
<path d="m181.69 663.73v33.808q0 2.4 2.4 2.4h7.7425q2.4 0 2.4-2.4v-33.808q0-2.4-2.4-2.4h-7.7425q-2.4 0-2.4 2.4z" clip-path="url(#a)" fill="#fff" stroke="#fff"/>
<g clip-path="url(#a)">
<g transform="translate(185.75 663.73) rotate(90) scale(.08 -.08)">
<use xlink:href="#k"/>
<use x="44.083984" xlink:href="#d"/>
<use x="105.607422" xlink:href="#f"/>
<use x="144.970703" xlink:href="#j"/>
<use x="242.382812" xlink:href="#g"/>
<use x="270.166016" xlink:href="#h"/>
<use x="333.544922" xlink:href="#i"/>
<use x="394.824219" xlink:href="#l"/>
</g>
</g>
<path d="m354.79 663.73v33.808q0 2.4 2.4 2.4h7.7425q2.4 0 2.4-2.4v-33.808q0-2.4-2.4-2.4h-7.7425q-2.4 0-2.4 2.4z" clip-path="url(#a)" fill="#fff" stroke="#fff"/>
<g clip-path="url(#a)">
<g transform="translate(358.85 663.73) rotate(90) scale(.08 -.08)">
<use xlink:href="#k"/>
<use x="44.083984" xlink:href="#d"/>
<use x="105.607422" xlink:href="#f"/>
<use x="144.970703" xlink:href="#j"/>
<use x="242.382812" xlink:href="#g"/>
<use x="270.166016" xlink:href="#h"/>
<use x="333.544922" xlink:href="#i"/>
<use x="394.824219" xlink:href="#l"/>
</g>
</g>
<path d="m398.06 663.73v33.808q0 2.4 2.4 2.4h7.7425q2.4 0 2.4-2.4v-33.808q0-2.4-2.4-2.4h-7.7425q-2.4 0-2.4 2.4z" clip-path="url(#a)" fill="#fff" stroke="#fff"/>
<g clip-path="url(#a)">
<g transform="translate(402.13 663.73) rotate(90) scale(.08 -.08)">
<use xlink:href="#k"/>
<use x="44.083984" xlink:href="#d"/>
<use x="105.607422" xlink:href="#f"/>
<use x="144.970703" xlink:href="#j"/>
<use x="242.382812" xlink:href="#g"/>
<use x="270.166016" xlink:href="#h"/>
<use x="333.544922" xlink:href="#i"/>
<use x="394.824219" xlink:href="#l"/>
</g>
</g>
<path d="m660.6 663.73v33.808q0 2.4 2.4 2.4h7.7425q2.4 0 2.4-2.4v-33.808q0-2.4-2.4-2.4h-7.7425q-2.4 0-2.4 2.4z" clip-path="url(#a)" fill="#fff" stroke="#fff"/>
<g clip-path="url(#a)">
<g transform="translate(664.66 663.73) rotate(90) scale(.08 -.08)">
<use xlink:href="#k"/>
<use x="44.083984" xlink:href="#d"/>
<use x="105.607422" xlink:href="#f"/>
<use x="144.970703" xlink:href="#j"/>
<use x="242.382812" xlink:href="#g"/>
<use x="270.166016" xlink:href="#h"/>
<use x="333.544922" xlink:href="#i"/>
<use x="394.824219" xlink:href="#l"/>
</g>
</g>
<path d="m721.18 663.73v33.808q0 2.4 2.4 2.4h7.7425q2.4 0 2.4-2.4v-33.808q0-2.4-2.4-2.4h-7.7425q-2.4 0-2.4 2.4z" clip-path="url(#a)" fill="#fff" stroke="#fff"/>
<g clip-path="url(#a)">
<g transform="translate(725.25 663.73) rotate(90) scale(.08 -.08)">
<use xlink:href="#k"/>
<use x="44.083984" xlink:href="#d"/>
<use x="105.607422" xlink:href="#f"/>
<use x="144.970703" xlink:href="#j"/>
<use x="242.382812" xlink:href="#g"/>
<use x="270.166016" xlink:href="#h"/>
<use x="333.544922" xlink:href="#i"/>
<use x="394.824219" xlink:href="#l"/>
</g>
</g>
<path d="m992.37 663.73v33.808q0 2.4 2.4 2.4h7.7425q2.4 0 2.4-2.4v-33.808q0-2.4-2.4-2.4h-7.7425q-2.4 0-2.4 2.4z" clip-path="url(#a)" fill="#fff" stroke="#fff"/>
<g clip-path="url(#a)">
<g transform="translate(996.44 663.73) rotate(90) scale(.08 -.08)">
<use xlink:href="#k"/>
<use x="44.083984" xlink:href="#d"/>
<use x="105.607422" xlink:href="#f"/>
<use x="144.970703" xlink:href="#j"/>
<use x="242.382812" xlink:href="#g"/>
<use x="270.166016" xlink:href="#h"/>
<use x="333.544922" xlink:href="#i"/>
<use x="394.824219" xlink:href="#l"/>
</g>
</g>
<path d="m1396.3 663.73v33.808q0 2.4 2.4 2.4h7.7425q2.4 0 2.4-2.4v-33.808q0-2.4-2.4-2.4h-7.7425q-2.4 0-2.4 2.4z" clip-path="url(#a)" fill="#fff" stroke="#fff"/>
<g clip-path="url(#a)">
<g transform="translate(1400.3 663.73) rotate(90) scale(.08 -.08)">
<use xlink:href="#k"/>
<use x="44.083984" xlink:href="#d"/>
<use x="105.607422" xlink:href="#f"/>
<use x="144.970703" xlink:href="#j"/>
<use x="242.382812" xlink:href="#g"/>
<use x="270.166016" xlink:href="#h"/>
<use x="333.544922" xlink:href="#i"/>
<use x="394.824219" xlink:href="#l"/>
</g>
</g>
<defs>
<path id="b" d="m0 8.6603c2.2967 0 4.4997-0.9125 6.1237-2.5365 1.624-1.624 2.5365-3.827 2.5365-6.1237s-0.9125-4.4997-2.5365-6.1237c-1.624-1.624-3.827-2.5365-6.1237-2.5365s-4.4997 0.9125-6.1237 2.5365c-1.624 1.624-2.5365 3.827-2.5365 6.1237s0.9125 4.4997 2.5365 6.1237c1.624 1.624 3.827 2.5365 6.1237 2.5365z"/>
</defs>
<g clip-path="url(#a)">
<use x="66.787879" y="738.181818" fill="#ffffff" stroke="#ffffff" xlink:href="#b"/>
</g>
<g clip-path="url(#a)">
<use x="75.442895" y="738.181818" fill="#ffffff" stroke="#ffffff" xlink:href="#b"/>
</g>
<g clip-path="url(#a)">
<use x="86.982918" y="738.181818" fill="#ffffff" stroke="#ffffff" xlink:href="#b"/>
</g>
<g clip-path="url(#a)">
<use x="101.407946" y="738.181818" fill="#ffffff" stroke="#ffffff" xlink:href="#b"/>
</g>
<g clip-path="url(#a)">
<use x="118.717979" y="738.181818" fill="#ffffff" stroke="#ffffff" xlink:href="#b"/>
</g>
<g clip-path="url(#a)">
<use x="138.913018" y="738.181818" fill="#ffffff" stroke="#ffffff" xlink:href="#b"/>
</g>
<g clip-path="url(#a)">
<use x="161.993062" y="738.181818" fill="#ffffff" stroke="#ffffff" xlink:href="#b"/>
</g>
<g clip-path="url(#a)">
<use x="187.958112" y="738.181818" fill="#ffffff" stroke="#ffffff" xlink:href="#b"/>
</g>
<g clip-path="url(#a)">
<use x="216.808168" y="738.181818" fill="#ffffff" stroke="#ffffff" xlink:href="#b"/>
</g>
<g clip-path="url(#a)">
<use x="248.543229" y="738.181818" fill="#ffffff" stroke="#ffffff" xlink:href="#b"/>
</g>
<g clip-path="url(#a)">
<use x="283.163296" y="738.181818" fill="#ffffff" stroke="#ffffff" xlink:href="#b"/>
</g>
<g clip-path="url(#a)">
<use x="320.668368" y="738.181818" fill="#ffffff" stroke="#ffffff" xlink:href="#b"/>
</g>
<g clip-path="url(#a)">
<use x="361.058446" y="738.181818" fill="#ffffff" stroke="#ffffff" xlink:href="#b"/>
</g>
<g clip-path="url(#a)">
<use x="404.33353" y="738.181818" fill="#ffffff" stroke="#ffffff" xlink:href="#b"/>
</g>
<g clip-path="url(#a)">
<use x="450.493619" y="738.181818" fill="#ffffff" stroke="#ffffff" xlink:href="#b"/>
</g>
<g clip-path="url(#a)">
<use x="499.538713" y="738.181818" fill="#ffffff" stroke="#ffffff" xlink:href="#b"/>
</g>
<g clip-path="url(#a)">
<use x="551.468813" y="738.181818" fill="#ffffff" stroke="#ffffff" xlink:href="#b"/>
</g>
<g clip-path="url(#a)">
<use x="606.283919" y="738.181818" fill="#ffffff" stroke="#ffffff" xlink:href="#b"/>
</g>
<g clip-path="url(#a)">
<use x="666.869036" y="738.181818" fill="#ffffff" stroke="#ffffff" xlink:href="#b"/>
</g>
<g clip-path="url(#a)">
<use x="727.454153" y="738.181818" fill="#ffffff" stroke="#ffffff" xlink:href="#b"/>
</g>
<g clip-path="url(#a)">
<use x="790.924275" y="738.181818" fill="#ffffff" stroke="#ffffff" xlink:href="#b"/>
</g>
<g clip-path="url(#a)">
<use x="857.279403" y="738.181818" fill="#ffffff" stroke="#ffffff" xlink:href="#b"/>
</g>
<g clip-path="url(#a)">
<use x="926.519537" y="738.181818" fill="#ffffff" stroke="#ffffff" xlink:href="#b"/>
</g>
<g clip-path="url(#a)">
<use x="998.644676" y="738.181818" fill="#ffffff" stroke="#ffffff" xlink:href="#b"/>
</g>
<g clip-path="url(#a)">
<use x="1073.65482" y="738.181818" fill="#ffffff" stroke="#ffffff" xlink:href="#b"/>
</g>
<g clip-path="url(#a)">
<use x="1151.549971" y="738.181818" fill="#ffffff" stroke="#ffffff" xlink:href="#b"/>
</g>
<g clip-path="url(#a)">
<use x="1232.330126" y="738.181818" fill="#ffffff" stroke="#ffffff" xlink:href="#b"/>
</g>
<g clip-path="url(#a)">
<use x="1315.995288" y="738.181818" fill="#ffffff" stroke="#ffffff" xlink:href="#b"/>
</g>
<g clip-path="url(#a)">
<use x="1402.545455" y="738.181818" fill="#ffffff" stroke="#ffffff" xlink:href="#b"/>
</g>
<g clip-path="url(#a)">
<use x="609.168925" y="506.398819" fill="#ffffff" stroke="#ffffff" xlink:href="#b"/>
</g>
<g clip-path="url(#a)">
<use x="692.512385" y="35.151515" fill="#ffffff" stroke="#ffffff" xlink:href="#b"/>
</g>
<g clip-path="url(#a)">
<use x="272.899774" y="153.390406" fill="#ffffff" stroke="#ffffff" xlink:href="#b"/>
</g>
<g clip-path="url(#a)">
<use x="790.924275" y="623.09084" fill="#ffffff" stroke="#ffffff" xlink:href="#b"/>
</g>
<g clip-path="url(#a)">
<use x="1004.414687" y="389.094759" fill="#ffffff" stroke="#ffffff" xlink:href="#b"/>
</g>
<g clip-path="url(#a)">
<use x="857.279403" y="623.09084" fill="#ffffff" stroke="#ffffff" xlink:href="#b"/>
</g>
<g clip-path="url(#a)">
<use x="926.519537" y="623.09084" fill="#ffffff" stroke="#ffffff" xlink:href="#b"/>
</g>
<g clip-path="url(#a)">
<use x="1235.215132" y="506.398819" fill="#ffffff" stroke="#ffffff" xlink:href="#b"/>
</g>
<g clip-path="url(#a)">
<use x="1073.65482" y="623.09084" fill="#ffffff" stroke="#ffffff" xlink:href="#b"/>
</g>
<g clip-path="url(#a)">
<use x="1151.549971" y="623.09084" fill="#ffffff" stroke="#ffffff" xlink:href="#b"/>
</g>
<g clip-path="url(#a)">
<use x="1232.330126" y="623.09084" fill="#ffffff" stroke="#ffffff" xlink:href="#b"/>
</g>
<g clip-path="url(#a)">
<use x="1315.995288" y="623.09084" fill="#ffffff" stroke="#ffffff" xlink:href="#b"/>
</g>
<g clip-path="url(#a)">
<use x="294.022136" y="271.391464" fill="#ffffff" stroke="#ffffff" xlink:href="#b"/>
</g>
<g clip-path="url(#a)">
<use x="216.808168" y="623.09084" fill="#ffffff" stroke="#ffffff" xlink:href="#b"/>
</g>
<g clip-path="url(#a)">
<use x="284.124965" y="506.398819" fill="#ffffff" stroke="#ffffff" xlink:href="#b"/>
</g>
<g clip-path="url(#a)">
<use x="248.543229" y="623.09084" fill="#ffffff" stroke="#ffffff" xlink:href="#b"/>
</g>
<g clip-path="url(#a)">
<use x="283.163296" y="623.09084" fill="#ffffff" stroke="#ffffff" xlink:href="#b"/>
</g>
<g clip-path="url(#a)">
<use x="320.668368" y="623.09084" fill="#ffffff" stroke="#ffffff" xlink:href="#b"/>
</g>
<g clip-path="url(#a)">
<use x="87.223335" y="389.094759" fill="#ffffff" stroke="#ffffff" xlink:href="#b"/>
</g>
<g clip-path="url(#a)">
<use x="500.820938" y="389.094759" fill="#ffffff" stroke="#ffffff" xlink:href="#b"/>
</g>
<g clip-path="url(#a)">
<use x="450.493619" y="623.09084" fill="#ffffff" stroke="#ffffff" xlink:href="#b"/>
</g>
<g clip-path="url(#a)">
<use x="499.538713" y="623.09084" fill="#ffffff" stroke="#ffffff" xlink:href="#b"/>
</g>
<g clip-path="url(#a)">
<use x="552.430482" y="506.398819" fill="#ffffff" stroke="#ffffff" xlink:href="#b"/>
</g>
<g clip-path="url(#a)">
<use x="551.468813" y="623.09084" fill="#ffffff" stroke="#ffffff" xlink:href="#b"/>
</g>
<g clip-path="url(#a)">
<use x="606.283919" y="623.09084" fill="#ffffff" stroke="#ffffff" xlink:href="#b"/>
</g>
<g clip-path="url(#a)">
<use x="66.787879" y="623.09084" fill="#ffffff" stroke="#ffffff" xlink:href="#b"/>
</g>
<g clip-path="url(#a)">
<use x="75.442895" y="623.09084" fill="#ffffff" stroke="#ffffff" xlink:href="#b"/>
</g>
<g clip-path="url(#a)">
<use x="86.982918" y="623.09084" fill="#ffffff" stroke="#ffffff" xlink:href="#b"/>
</g>
<g clip-path="url(#a)">
<use x="119.679647" y="506.398819" fill="#ffffff" stroke="#ffffff" xlink:href="#b"/>
</g>
<g clip-path="url(#a)">
<use x="101.407946" y="623.09084" fill="#ffffff" stroke="#ffffff" xlink:href="#b"/>
</g>
<g clip-path="url(#a)">
<use x="118.717979" y="623.09084" fill="#ffffff" stroke="#ffffff" xlink:href="#b"/>
</g>
<g clip-path="url(#a)">
<use x="138.913018" y="623.09084" fill="#ffffff" stroke="#ffffff" xlink:href="#b"/>
</g>
<g clip-path="url(#a)">
<use x="161.993062" y="623.09084" fill="#ffffff" stroke="#ffffff" xlink:href="#b"/>
</g>
<g clip-path="url(#a)">
<use x="187.958112" y="623.09084" fill="#ffffff" stroke="#ffffff" xlink:href="#b"/>
</g>
<g clip-path="url(#a)">
<use x="361.058446" y="623.09084" fill="#ffffff" stroke="#ffffff" xlink:href="#b"/>
</g>
<g clip-path="url(#a)">
<use x="404.33353" y="623.09084" fill="#ffffff" stroke="#ffffff" xlink:href="#b"/>
</g>
<g clip-path="url(#a)">
<use x="666.869036" y="623.09084" fill="#ffffff" stroke="#ffffff" xlink:href="#b"/>
</g>
<g clip-path="url(#a)">
<use x="727.454153" y="623.09084" fill="#ffffff" stroke="#ffffff" xlink:href="#b"/>
</g>
<g clip-path="url(#a)">
<use x="998.644676" y="623.09084" fill="#ffffff" stroke="#ffffff" xlink:href="#b"/>
</g>
<g clip-path="url(#a)">
<use x="1402.545455" y="623.09084" fill="#ffffff" stroke="#ffffff" xlink:href="#b"/>
</g>
<g clip-path="url(#a)">
<defs>
<path id="ak" d="m9.8125 72.906h14.703l18.594-49.609 18.703 49.609h14.703v-72.906h-9.625v64.016l-18.797-50h-9.9062l-18.797 50v-64.016h-9.5781z"/>
<path id="w" d="m48.781 52.594v-8.4062q-3.8125 2.1094-7.6406 3.1562t-7.7344 1.0469q-8.75 0-13.594-5.5469-4.8281-5.5312-4.8281-15.547t4.8281-15.562q4.8438-5.5312 13.594-5.5312 3.9062 0 7.7344 1.0469t7.6406 3.1562v-8.3125q-3.7656-1.75-7.7969-2.625-4.0156-0.89062-8.5625-0.89062-12.359 0-19.641 7.7656-7.2656 7.7656-7.2656 20.953 0 13.375 7.3438 21.031 7.3594 7.6719 20.156 7.6719 4.1406 0 8.0938-0.85938 3.9531-0.84375 7.6719-2.5469z"/>
<path id="u" d="m54.891 33.016v-33.016h-8.9844v32.719q0 7.7656-3.0312 11.609-3.0312 3.8594-9.0781 3.8594-7.2812 0-11.484-4.6406-4.2031-4.625-4.2031-12.641v-30.906h-9.0312v75.984h9.0312v-29.797q3.2344 4.9375 7.5938 7.375 4.375 2.4375 10.094 2.4375 9.4219 0 14.25-5.8281 4.8438-5.8281 4.8438-17.156z"/>
</defs>
<g transform="translate(55.167 740.94) scale(.1 -.1)">
<use xlink:href="#ak"/>
<use x="86.279297" xlink:href="#g"/>
<use x="114.0625" xlink:href="#w"/>
<use x="169.042969" xlink:href="#u"/>
</g>
</g>
<g clip-path="url(#a)">
<defs>
<path id="v" d="m45.406 46.391v29.594h8.9844v-75.984h-8.9844v8.2031q-2.8281-4.875-7.1562-7.25-4.3125-2.375-10.375-2.375-9.9062 0-16.141 7.9062-6.2188 7.9219-6.2188 20.812t6.2188 20.797q6.2344 7.9062 16.141 7.9062 6.0625 0 10.375-2.375 4.3281-2.3594 7.1562-7.2344zm-30.609-19.094q0-9.9062 4.0781-15.547t11.203-5.6406 11.219 5.6406q4.1094 5.6406 4.1094 15.547t-4.1094 15.547q-4.0938 5.6406-11.219 5.6406t-11.203-5.6406-4.0781-15.547z"/>
<path id="av" d="m8.5 21.578v33.109h8.9844v-32.766q0-7.7656 3.0156-11.656 3.0312-3.875 9.0938-3.875 7.2656 0 11.484 4.6406 4.2344 4.6406 4.2344 12.656v31h8.9844v-54.688h-8.9844v8.4062q-3.2656-4.9844-7.5938-7.4062-4.3125-2.4219-10.031-2.4219-9.4219 0-14.312 5.8594-4.875 5.8594-4.875 17.141zm22.609 34.422m4.4844 19.781h9.9062v-9.8594h-9.9062zm-19.094 0h9.9062v-9.8594h-9.9062z"/>
<path id="r" d="m44.281 53.078v-8.5q-3.7969 1.9531-7.9062 2.9219-4.0938 0.98438-8.5 0.98438-6.6875 0-10.031-2.0469t-3.3438-6.1562q0-3.125 2.3906-4.9062t9.625-3.3906l3.0781-0.6875q9.5625-2.0469 13.594-5.7812t4.0312-10.422q0-7.625-6.0312-12.078-6.0312-4.4375-16.578-4.4375-4.3906 0-9.1562 0.85938t-10.031 2.5625v9.2812q4.9844-2.5938 9.8125-3.8906 4.8281-1.2812 9.5781-1.2812 6.3438 0 9.75 2.1719 3.4219 2.1719 3.4219 6.125 0 3.6562-2.4688 5.6094-2.4531 1.9531-10.812 3.7656l-3.125 0.73438q-8.3438 1.75-12.062 5.3906-3.7031 3.6406-3.7031 9.9844 0 7.7188 5.4688 11.906 5.4688 4.2031 15.531 4.2031 4.9688 0 9.3594-0.73438 4.4062-0.71875 8.1094-2.1875z"/>
<path id="s" d="m18.312 70.219v-15.531h18.5v-6.9844h-18.5v-29.688q0-6.6875 1.8281-8.5938t7.4531-1.9062h9.2188v-7.5156h-9.2188q-10.406 0-14.359 3.875-3.9531 3.8906-3.9531 14.141v29.688h-6.5938v6.9844h6.5938v15.531z"/>
</defs>
<g transform="translate(57.443 740.94) scale(.1 -.1)">
<use xlink:href="#v"/>
<use x="63.476562" xlink:href="#av"/>
<use x="126.855469" xlink:href="#f"/>
<use x="167.96875" xlink:href="#r"/>
<use x="220.068359" xlink:href="#s"/>
<use x="259.277344" xlink:href="#d"/>
<use x="320.800781" xlink:href="#s"/>
</g>
</g>
<g clip-path="url(#a)">
<g transform="translate(81.302 740.94) scale(.1 -.1)">
<use xlink:href="#d"/>
<use x="61.523438" xlink:href="#r"/>
</g>
</g>
<g clip-path="url(#a)">
<g transform="translate(89.257 740.94) scale(.1 -.1)">
<use xlink:href="#h"/>
<use x="63.378906" xlink:href="#i"/>
<use x="124.658203" xlink:href="#w"/>
<use x="179.638672" xlink:href="#u"/>
</g>
</g>
<g clip-path="url(#a)">
<g transform="translate(100.53 740.94) scale(.1 -.1)">
<use xlink:href="#v"/>
<use x="63.476562" xlink:href="#g"/>
<use x="91.259766" xlink:href="#d"/>
<use x="152.783203" xlink:href="#r"/>
<use x="204.882812" xlink:href="#d"/>
<use x="266.40625" xlink:href="#j"/>
</g>
</g>
<g clip-path="url(#a)">
<defs>
<path id="ar" d="m3.3281 72.906h9.9531l15.328-61.625 15.281 61.625h11.094l15.328-61.625 15.281 61.625h10.016l-18.312-72.906h-12.406l-15.375 63.281-15.531-63.281h-12.406z"/>
</defs>
<g transform="translate(120.88 740.94) scale(.1 -.1)">
<use xlink:href="#ar"/>
<use x="92.501953" xlink:href="#i"/>
<use x="153.78125" xlink:href="#r"/>
<use x="205.880859" xlink:href="#r"/>
<use x="257.980469" xlink:href="#d"/>
<use x="319.503906" xlink:href="#f"/>
</g>
</g>
<g clip-path="url(#a)">
<defs>
<path id="ai" d="m17.922 72.906v-27.109h-8.2969v27.109zm18.453 0v-27.109h-8.2969v27.109z"/>
</defs>
<g transform="translate(159.69 740.94) scale(.1 -.1)">
<use xlink:href="#ai"/>
</g>
</g>
<g clip-path="url(#a)">
<defs>
<path id="ah" d="m11.719 12.406h10.297v-8.4062l-8-15.625h-6.2969l4 15.625z"/>
</defs>
<g transform="translate(186.37 740.94) scale(.1 -.1)">
<use xlink:href="#ah"/>
</g>
</g>
<g clip-path="url(#a)">
<defs>
<path id="aj" d="m45.406 27.984q0 9.7656-4.0312 15.125-4.0156 5.375-11.297 5.375-7.2188 0-11.25-5.375-4.0312-5.3594-4.0312-15.125 0-9.7188 4.0312-15.094t11.25-5.375q7.2812 0 11.297 5.375 4.0312 5.375 4.0312 15.094zm8.9844-21.203q0-13.953-6.2031-20.766-6.1875-6.8125-18.984-6.8125-4.7344 0-8.9375 0.70312t-8.1562 2.1719v8.7344q3.9531-2.1406 7.8125-3.1562 3.8594-1.0312 7.8594-1.0312 8.8438 0 13.234 4.6094t4.3906 13.938v4.4531q-2.7812-4.8438-7.125-7.2344t-10.406-2.3906q-10.047 0-16.203 7.6562-6.1562 7.6719-6.1562 20.328 0 12.688 6.1562 20.344 6.1562 7.6719 16.203 7.6719 6.0625 0 10.406-2.3906t7.125-7.2188v8.2969h8.9844z"/>
</defs>
<g transform="translate(202.93 740.94) scale(.1 -.1)">
<use xlink:href="#r"/>
<use x="52.099609" xlink:href="#i"/>
<use x="113.378906" xlink:href="#aj"/>
<use x="176.855469" xlink:href="#s"/>
<use x="216.064453" xlink:href="#d"/>
</g>
</g>
<g clip-path="url(#a)">
<g transform="translate(240.24 740.94) scale(.1 -.1)">
<use xlink:href="#v"/>
<use x="63.476562" xlink:href="#d"/>
<use x="125" xlink:href="#f"/>
</g>
</g>
<g clip-path="url(#a)">
<defs>
<path id="ap" d="m9.0781 75.984h9.0312v-44.875l26.812 23.578h11.469l-29-25.578 30.234-29.109h-11.719l-27.797 26.703v-26.703h-9.0312z"/>
</defs>
<g transform="translate(268.17 740.94) scale(.1 -.1)">
<use xlink:href="#ap"/>
<use x="57.910156" xlink:href="#l"/>
<use x="85.693359" xlink:href="#d"/>
<use x="147.216797" xlink:href="#g"/>
<use x="175" xlink:href="#h"/>
<use x="238.378906" xlink:href="#d"/>
</g>
</g>
<g clip-path="url(#a)">
<defs>
<path id="an" d="m5.5156 54.688h42.672v-8.2031l-33.781-39.312h33.781v-7.1719h-43.891v8.2031l33.797 39.312h-32.578z"/>
</defs>
<g transform="translate(308.5 740.94) scale(.1 -.1)">
<use xlink:href="#t"/>
<use x="58.552734" xlink:href="#f"/>
<use x="99.666016" xlink:href="#g"/>
<use x="127.449219" xlink:href="#h"/>
<use x="190.828125" xlink:href="#an"/>
</g>
</g>
<g clip-path="url(#a)">
<g transform="translate(359.47 740.94) scale(.1 -.1)">
<use xlink:href="#ah"/>
</g>
</g>
<g clip-path="url(#a)">
<g transform="translate(402.03 740.94) scale(.1 -.1)">
<use xlink:href="#ai"/>
</g>
</g>
<g clip-path="url(#a)">
<defs>
<path id="aq" d="m48.688 27.297q0 9.9062-4.0781 15.547t-11.203 5.6406q-7.1406 0-11.219-5.6406t-4.0781-15.547 4.0781-15.547 11.219-5.6406q7.125 0 11.203 5.6406t4.0781 15.547zm-30.578 19.094q2.8438 4.875 7.1562 7.2344 4.3281 2.375 10.328 2.375 9.9688 0 16.188-7.9062 6.2344-7.9062 6.2344-20.797t-6.2344-20.812q-6.2188-7.9062-16.188-7.9062-6 0-10.328 2.375-4.3125 2.375-7.1562 7.25v-8.2031h-9.0312v75.984h9.0312z"/>
</defs>
<g transform="translate(442.76 740.94) scale(.1 -.1)">
<use xlink:href="#aj"/>
<use x="63.476562" xlink:href="#g"/>
<use x="91.259766" xlink:href="#aq"/>
</g>
</g>
<g clip-path="url(#a)">
<g transform="translate(491.22 740.94) scale(.1 -.1)">
<use xlink:href="#j"/>
<use x="97.412109" xlink:href="#g"/>
<use x="125.195312" xlink:href="#f"/>
</g>
</g>
<g clip-path="url(#a)">
<defs>
<path id="ao" d="m8.5 21.578v33.109h8.9844v-32.766q0-7.7656 3.0156-11.656 3.0312-3.875 9.0938-3.875 7.2656 0 11.484 4.6406 4.2344 4.6406 4.2344 12.656v31h8.9844v-54.688h-8.9844v8.4062q-3.2656-4.9844-7.5938-7.4062-4.3125-2.4219-10.031-2.4219-9.4219 0-14.312 5.8594-4.875 5.8594-4.875 17.141z"/>
</defs>
<g transform="translate(545.68 740.94) scale(.1 -.1)">
<use xlink:href="#an"/>
<use x="52.490234" xlink:href="#ao"/>
</g>
</g>
<g clip-path="url(#a)">
<g transform="translate(588.75 740.94) scale(.1 -.1)">
<use xlink:href="#s"/>
<use x="39.208984" xlink:href="#f"/>
<use x="80.322266" xlink:href="#g"/>
<use x="108.105469" xlink:href="#h"/>
<use x="171.484375" xlink:href="#ap"/>
<use x="225.769531" xlink:href="#d"/>
<use x="287.292969" xlink:href="#h"/>
</g>
</g>
<g clip-path="url(#a)">
<defs>
<path id="e" d="m10.688 12.406h10.312v-12.406h-10.312z"/>
</defs>
<g transform="translate(662.1 740.94) scale(.1 -.1)">
<use xlink:href="#e"/>
<use x="31.787109" xlink:href="#e"/>
<use x="63.574219" xlink:href="#e"/>
</g>
</g>
<g clip-path="url(#a)">
<g transform="translate(725.15 740.94) scale(.1 -.1)">
<use xlink:href="#ai"/>
</g>
</g>
<g clip-path="url(#a)">
<g transform="translate(780.92 740.94) scale(.1 -.1)">
<use xlink:href="#q"/>
<use x="73.193359" xlink:href="#h"/>
<use x="136.572266" xlink:href="#v"/>
</g>
</g>
<g clip-path="url(#a)">
<g transform="translate(849.97 740.94) scale(.1 -.1)">
<use xlink:href="#g"/>
<use x="27.783203" xlink:href="#w"/>
<use x="82.763672" xlink:href="#u"/>
</g>
</g>
<g clip-path="url(#a)">
<defs>
<path id="ax" d="m2.9844 54.688h9.5156l17.094-45.891 17.094 45.891h9.5156l-20.516-54.688h-12.203z"/>
</defs>
<g transform="translate(904.46 740.94) scale(.1 -.1)">
<use xlink:href="#ax"/>
<use x="59.179688" xlink:href="#d"/>
<use x="120.703125" xlink:href="#f"/>
<use x="161.816406" xlink:href="#r"/>
<use x="213.916016" xlink:href="#s"/>
<use x="253.125" xlink:href="#i"/>
<use x="314.404297" xlink:href="#h"/>
<use x="377.783203" xlink:href="#v"/>
</g>
</g>
<g clip-path="url(#a)">
<g transform="translate(997.06 740.94) scale(.1 -.1)">
<use xlink:href="#ah"/>
</g>
</g>
<g clip-path="url(#a)">
<defs>
<path id="aw" d="m4.2031 54.688h8.9844l11.234-42.672 11.172 42.672h10.594l11.234-42.672 11.188 42.672h8.9844l-14.312-54.688h-10.594l-11.766 44.828-11.812-44.828h-10.609z"/>
</defs>
<g transform="translate(1063.9 740.94) scale(.1 -.1)">
<use xlink:href="#aw"/>
<use x="81.787109" xlink:href="#i"/>
<use x="143.066406" xlink:href="#r"/>
</g>
</g>
<g clip-path="url(#a)">
<g transform="translate(1146.4 740.94) scale(.1 -.1)">
<use xlink:href="#d"/>
<use x="61.523438" xlink:href="#f"/>
</g>
</g>
<g clip-path="url(#a)">
<g transform="translate(1212.4 740.94) scale(.1 -.1)">
<use xlink:href="#aj"/>
<use x="63.476562" xlink:href="#d"/>
<use x="125" xlink:href="#r"/>
<use x="177.099609" xlink:href="#ao"/>
<use x="240.478516" xlink:href="#w"/>
<use x="295.458984" xlink:href="#u"/>
<use x="358.837891" xlink:href="#s"/>
</g>
</g>
<g clip-path="url(#a)">
<g transform="translate(1302.8 740.94) scale(.1 -.1)">
<use xlink:href="#u"/>
<use x="63.378906" xlink:href="#i"/>
<use x="124.658203" xlink:href="#s"/>
<use x="163.867188" xlink:href="#s"/>
<use x="203.076172" xlink:href="#d"/>
</g>
</g>
<g clip-path="url(#a)">
<defs>
<path id="au" d="m15.094 12.406h9.9062v-12.406h-9.9062zm0 60.5h9.9062v-31.984l-0.96875-17.438h-7.9219l-1.0156 17.438z"/>
</defs>
<g transform="translate(1400.5 740.94) scale(.1 -.1)">
<use xlink:href="#au"/>
</g>
</g>
<g clip-path="url(#a)">
<defs>
<path id="ad" d="m9.8125 72.906h9.8594v-72.906h-9.8594z"/>
</defs>
<g transform="translate(588.08 509.16) scale(.1 -.1)">
<use xlink:href="#ad"/>
<use x="29.492188" xlink:href="#ak"/>
<use x="115.771484" xlink:href="#t"/>
<use x="176.074219" xlink:href="#al"/>
<use x="231.787109" xlink:href="#ad"/>
<use x="261.279297" xlink:href="#ae"/>
<use x="331.103516" xlink:href="#ad"/>
<use x="360.595703" xlink:href="#k"/>
</g>
</g>
<g clip-path="url(#a)">
<defs>
<path id="c" d="m12.406 8.2969h16.109v55.625l-17.531-3.5156v8.9844l17.438 3.5156h9.8594v-64.609h16.109v-8.2969h-41.984z"/>
</defs>
<g transform="translate(684.56 37.911) scale(.1 -.1)">
<use xlink:href="#c"/>
<use x="63.623047" xlink:href="#e"/>
<use x="95.410156" xlink:href="#c"/>
</g>
</g>
<g clip-path="url(#a)">
<defs>
<path id="p" d="m19.188 8.2969h34.422v-8.2969h-46.281v8.2969q5.6094 5.8125 15.297 15.594 9.7031 9.7969 12.188 12.641 4.7344 5.3125 6.6094 9 1.8906 3.6875 1.8906 7.25 0 5.8125-4.0781 9.4688-4.0781 3.6719-10.625 3.6719-4.6406 0-9.7969-1.6094-5.1406-1.6094-11-4.8906v9.9688q5.9531 2.3906 11.125 3.6094 5.1875 1.2188 9.4844 1.2188 11.328 0 18.062-5.6719 6.7344-5.6562 6.7344-15.125 0-4.5-1.6875-8.5312-1.6719-4.0156-6.125-9.4844-1.2188-1.4219-7.7656-8.1875-6.5312-6.7656-18.453-18.922z"/>
</defs>
<g transform="translate(264.95 156.15) scale(.1 -.1)">
<use xlink:href="#c"/>
<use x="63.623047" xlink:href="#e"/>
<use x="95.410156" xlink:href="#p"/>
</g>
</g>
<g clip-path="url(#a)">
<defs>
<path id="m" d="m40.578 39.312q7.0781-1.5156 11.047-6.3125 3.9844-4.7812 3.9844-11.812 0-10.781-7.4219-16.703-7.4219-5.9062-21.094-5.9062-4.5781 0-9.4375 0.90625t-10.031 2.7188v9.5156q4.0938-2.3906 8.9688-3.6094 4.8906-1.2188 10.219-1.2188 9.2656 0 14.125 3.6562t4.8594 10.641q0 6.4531-4.5156 10.078-4.5156 3.6406-12.562 3.6406h-8.5v8.1094h8.8906q7.2656 0 11.125 2.9062t3.8594 8.375q0 5.6094-3.9844 8.6094-3.9688 3.0156-11.391 3.0156-4.0625 0-8.7031-0.89062-4.6406-0.875-10.203-2.7188v8.7812q5.625 1.5625 10.531 2.3438t9.25 0.78125q11.234 0 17.766-5.1094 6.5469-5.0938 6.5469-13.781 0-6.0625-3.4688-10.234t-9.8594-5.7812z"/>
</defs>
<g transform="translate(782.97 625.85) scale(.1 -.1)">
<use xlink:href="#c"/>
<use x="63.623047" xlink:href="#e"/>
<use x="95.410156" xlink:href="#m"/>
</g>
</g>
<g clip-path="url(#a)">
<defs>
<path id="n" d="m37.797 64.312-24.906-38.922h24.906zm-2.5938 8.5938h12.406v-47.516h10.406v-8.2031h-10.406v-17.188h-9.8125v17.188h-32.906v9.5156z"/>
</defs>
<g transform="translate(996.46 391.85) scale(.1 -.1)">
<use xlink:href="#c"/>
<use x="63.623047" xlink:href="#e"/>
<use x="95.410156" xlink:href="#n"/>
</g>
</g>
<g clip-path="url(#a)">
<defs>
<path id="z" d="m31.781 34.625q-7.0312 0-11.062-3.7656-4.0156-3.7656-4.0156-10.344 0-6.5938 4.0156-10.359 4.0312-3.7656 11.062-3.7656t11.078 3.7812q4.0625 3.7969 4.0625 10.344 0 6.5781-4.0312 10.344-4.0156 3.7656-11.109 3.7656zm-9.8594 4.1875q-6.3438 1.5625-9.8906 5.9062-3.5312 4.3594-3.5312 10.609 0 8.7344 6.2188 13.812 6.2344 5.0781 17.062 5.0781 10.891 0 17.094-5.0781t6.2031-13.812q0-6.25-3.5469-10.609-3.5312-4.3438-9.8281-5.9062 7.125-1.6562 11.094-6.5 3.9844-4.8281 3.9844-11.797 0-10.609-6.4688-16.281-6.4688-5.6562-18.531-5.6562-12.047 0-18.531 5.6562-6.4688 5.6719-6.4688 16.281 0 6.9688 4 11.797 4.0156 4.8438 11.141 6.5zm-3.6094 15.578q0-5.6562 3.5312-8.8281 3.5469-3.1719 9.9375-3.1719 6.3594 0 9.9375 3.1719 3.5938 3.1719 3.5938 8.8281 0 5.6719-3.5938 8.8438-3.5781 3.1719-9.9375 3.1719-6.3906 0-9.9375-3.1719-3.5312-3.1719-3.5312-8.8438z"/>
</defs>
<g transform="translate(849.33 625.85) scale(.1 -.1)">
<use xlink:href="#c"/>
<use x="63.623047" xlink:href="#e"/>
<use x="95.410156" xlink:href="#z"/>
</g>
</g>
<g clip-path="url(#a)">
<defs>
<path id="af" d="m10.984 1.5156v8.9844q3.7188-1.7656 7.5156-2.6875 3.8125-0.92188 7.4844-0.92188 9.7656 0 14.906 6.5625 5.1562 6.5625 5.8906 19.953-2.8281-4.2031-7.1875-6.4531-4.3438-2.25-9.6094-2.25-10.938 0-17.312 6.6094-6.375 6.625-6.375 18.109 0 11.219 6.6406 18 6.6406 6.7969 17.672 6.7969 12.656 0 19.312-9.7031 6.6719-9.6875 6.6719-28.141 0-17.234-8.1875-27.516-8.1719-10.281-21.984-10.281-3.7188 0-7.5312 0.73438-3.7969 0.73438-7.9062 2.2031zm19.625 30.906q6.6406 0 10.516 4.5312 3.8906 4.5469 3.8906 12.469 0 7.8594-3.8906 12.422-3.875 4.5625-10.516 4.5625t-10.516-4.5625-3.875-12.422q0-7.9219 3.875-12.469 3.875-4.5312 10.516-4.5312z"/>
</defs>
<g transform="translate(918.57 625.85) scale(.1 -.1)">
<use xlink:href="#c"/>
<use x="63.623047" xlink:href="#e"/>
<use x="95.410156" xlink:href="#af"/>
</g>
</g>
<g clip-path="url(#a)">
<defs>
<path id="ag" d="m31.781 66.406q-7.6094 0-11.453-7.5-3.8281-7.4844-3.8281-22.531 0-14.984 3.8281-22.484 3.8438-7.5 11.453-7.5 7.6719 0 11.5 7.5 3.8438 7.5 3.8438 22.484 0 15.047-3.8438 22.531-3.8281 7.5-11.5 7.5zm0 7.8125q12.266 0 18.734-9.7031 6.4688-9.6875 6.4688-28.141 0-18.406-6.4688-28.109-6.4688-9.6875-18.734-9.6875-12.25 0-18.719 9.6875-6.4688 9.7031-6.4688 28.109 0 18.453 6.4688 28.141 6.4688 9.7031 18.719 9.7031z"/>
</defs>
<g transform="translate(1224.1 509.16) scale(.1 -.1)">
<use xlink:href="#c"/>
<use x="63.623047" xlink:href="#e"/>
<use x="95.410156" xlink:href="#c"/>
<use x="159.033203" xlink:href="#ag"/>
</g>
</g>
<g clip-path="url(#a)">
<g transform="translate(1062.5 625.85) scale(.1 -.1)">
<use xlink:href="#c"/>
<use x="63.623047" xlink:href="#e"/>
<use x="95.410156" xlink:href="#c"/>
<use x="159.033203" xlink:href="#p"/>
</g>
</g>
<g clip-path="url(#a)">
<g transform="translate(1140.4 625.85) scale(.1 -.1)">
<use xlink:href="#c"/>
<use x="63.623047" xlink:href="#e"/>
<use x="95.410156" xlink:href="#c"/>
<use x="159.033203" xlink:href="#m"/>
</g>
</g>
<g clip-path="url(#a)">
<g transform="translate(1221.2 625.85) scale(.1 -.1)">
<use xlink:href="#c"/>
<use x="63.623047" xlink:href="#e"/>
<use x="95.410156" xlink:href="#c"/>
<use x="159.033203" xlink:href="#n"/>
</g>
</g>
<g clip-path="url(#a)">
<defs>
<path id="ac" d="m10.797 72.906h38.719v-8.3125h-29.688v-17.859q2.1406 0.73438 4.2812 1.0938 2.1562 0.35938 4.3125 0.35938 12.203 0 19.328-6.6875 7.1406-6.6875 7.1406-18.109 0-11.766-7.3281-18.297-7.3281-6.5156-20.656-6.5156-4.5938 0-9.3594 0.78125-4.75 0.78125-9.8281 2.3438v9.9219q4.3906-2.3906 9.0781-3.5625t9.9062-1.1719q8.4531 0 13.375 4.4375 4.9375 4.4375 4.9375 12.062 0 7.6094-4.9375 12.047-4.9219 4.4531-13.375 4.4531-3.9531 0-7.8906-0.875-3.9219-0.875-8.0156-2.7344z"/>
</defs>
<g transform="translate(1304.9 625.85) scale(.1 -.1)">
<use xlink:href="#c"/>
<use x="63.623047" xlink:href="#e"/>
<use x="95.410156" xlink:href="#c"/>
<use x="159.033203" xlink:href="#ac"/>
</g>
</g>
<g clip-path="url(#a)">
<defs>
<path id="ab" d="m33.016 40.375q-6.6406 0-10.531-4.5469-3.875-4.5312-3.875-12.438 0-7.8594 3.875-12.438 3.8906-4.5625 10.531-4.5625t10.516 4.5625q3.875 4.5781 3.875 12.438 0 7.9062-3.875 12.438-3.875 4.5469-10.516 4.5469zm19.578 30.922v-8.9844q-3.7188 1.75-7.5 2.6719-3.7812 0.9375-7.5 0.9375-9.7656 0-14.922-6.5938-5.1406-6.5938-5.875-19.922 2.875 4.25 7.2188 6.5156 4.3594 2.2656 9.5781 2.2656 10.984 0 17.359-6.6719 6.375-6.6562 6.375-18.125 0-11.234-6.6406-18.031-6.6406-6.7812-17.672-6.7812-12.656 0-19.344 9.6875-6.6875 9.7031-6.6875 28.109 0 17.281 8.2031 27.562t22.016 10.281q3.7188 0 7.5-0.73438t7.8906-2.1875z"/>
</defs>
<g transform="translate(282.89 274.15) scale(.1 -.1)">
<use xlink:href="#c"/>
<use x="63.623047" xlink:href="#e"/>
<use x="95.410156" xlink:href="#c"/>
<use x="159.033203" xlink:href="#ab"/>
</g>
</g>
<g clip-path="url(#a)">
<defs>
<path id="aa" d="m8.2031 72.906h46.875v-4.2031l-26.469-68.703h-10.297l24.906 64.594h-35.016z"/>
</defs>
<g transform="translate(205.68 625.85) scale(.1 -.1)">
<use xlink:href="#c"/>
<use x="63.623047" xlink:href="#e"/>
<use x="95.410156" xlink:href="#c"/>
<use x="159.033203" xlink:href="#aa"/>
</g>
</g>
<g clip-path="url(#a)">
<g transform="translate(272.99 509.16) scale(.1 -.1)">
<use xlink:href="#c"/>
<use x="63.623047" xlink:href="#e"/>
<use x="95.410156" xlink:href="#c"/>
<use x="159.033203" xlink:href="#z"/>
</g>
</g>
<g clip-path="url(#a)">
<g transform="translate(237.41 625.85) scale(.1 -.1)">
<use xlink:href="#c"/>
<use x="63.623047" xlink:href="#e"/>
<use x="95.410156" xlink:href="#p"/>
<use x="159.033203" xlink:href="#m"/>
</g>
</g>
<g clip-path="url(#a)">
<g transform="translate(272.03 625.85) scale(.1 -.1)">
<use xlink:href="#c"/>
<use x="63.623047" xlink:href="#e"/>
<use x="95.410156" xlink:href="#p"/>
<use x="159.033203" xlink:href="#n"/>
</g>
</g>
<g clip-path="url(#a)">
<g transform="translate(309.54 625.85) scale(.1 -.1)">
<use xlink:href="#c"/>
<use x="63.623047" xlink:href="#e"/>
<use x="95.410156" xlink:href="#p"/>
<use x="159.033203" xlink:href="#ac"/>
</g>
</g>
<g clip-path="url(#a)">
<g transform="translate(76.091 391.85) scale(.1 -.1)">
<use xlink:href="#c"/>
<use x="63.623047" xlink:href="#e"/>
<use x="95.410156" xlink:href="#p"/>
<use x="159.033203" xlink:href="#ab"/>
</g>
</g>
<g clip-path="url(#a)">
<g transform="translate(489.69 391.85) scale(.1 -.1)">
<use xlink:href="#c"/>
<use x="63.623047" xlink:href="#e"/>
<use x="95.410156" xlink:href="#p"/>
<use x="159.033203" xlink:href="#aa"/>
</g>
</g>
<g clip-path="url(#a)">
<g transform="translate(439.36 625.85) scale(.1 -.1)">
<use xlink:href="#c"/>
<use x="63.623047" xlink:href="#e"/>
<use x="95.410156" xlink:href="#p"/>
<use x="159.033203" xlink:href="#af"/>
</g>
</g>
<g clip-path="url(#a)">
<g transform="translate(488.41 625.85) scale(.1 -.1)">
<use xlink:href="#c"/>
<use x="63.623047" xlink:href="#e"/>
<use x="95.410156" xlink:href="#m"/>
<use x="159.033203" xlink:href="#ag"/>
</g>
</g>
<g clip-path="url(#a)">
<g transform="translate(541.3 509.16) scale(.1 -.1)">
<use xlink:href="#c"/>
<use x="63.623047" xlink:href="#e"/>
<use x="95.410156" xlink:href="#m"/>
<use x="159.033203" xlink:href="#c"/>
</g>
</g>
<g clip-path="url(#a)">
<g transform="translate(540.34 625.85) scale(.1 -.1)">
<use xlink:href="#c"/>
<use x="63.623047" xlink:href="#e"/>
<use x="95.410156" xlink:href="#m"/>
<use x="159.033203" xlink:href="#p"/>
</g>
</g>
<g clip-path="url(#a)">
<g transform="translate(595.15 625.85) scale(.1 -.1)">
<use xlink:href="#c"/>
<use x="63.623047" xlink:href="#e"/>
<use x="95.410156" xlink:href="#m"/>
<use x="159.033203" xlink:href="#m"/>
</g>
</g>
<g clip-path="url(#a)">
<g transform="translate(55.655 625.85) scale(.1 -.1)">
<use xlink:href="#c"/>
<use x="63.623047" xlink:href="#e"/>
<use x="95.410156" xlink:href="#m"/>
<use x="159.033203" xlink:href="#n"/>
</g>
</g>
<g clip-path="url(#a)">
<g transform="translate(64.31 625.85) scale(.1 -.1)">
<use xlink:href="#c"/>
<use x="63.623047" xlink:href="#e"/>
<use x="95.410156" xlink:href="#m"/>
<use x="159.033203" xlink:href="#ac"/>
</g>
</g>
<g clip-path="url(#a)">
<g transform="translate(75.85 625.85) scale(.1 -.1)">
<use xlink:href="#c"/>
<use x="63.623047" xlink:href="#e"/>
<use x="95.410156" xlink:href="#m"/>
<use x="159.033203" xlink:href="#ab"/>
</g>
</g>
<g clip-path="url(#a)">
<g transform="translate(108.55 509.16) scale(.1 -.1)">
<use xlink:href="#c"/>
<use x="63.623047" xlink:href="#e"/>
<use x="95.410156" xlink:href="#m"/>
<use x="159.033203" xlink:href="#aa"/>
</g>
</g>
<g clip-path="url(#a)">
<g transform="translate(90.275 625.85) scale(.1 -.1)">
<use xlink:href="#c"/>
<use x="63.623047" xlink:href="#e"/>
<use x="95.410156" xlink:href="#m"/>
<use x="159.033203" xlink:href="#z"/>
</g>
</g>
<g clip-path="url(#a)">
<g transform="translate(107.59 625.85) scale(.1 -.1)">
<use xlink:href="#c"/>
<use x="63.623047" xlink:href="#e"/>
<use x="95.410156" xlink:href="#m"/>
<use x="159.033203" xlink:href="#af"/>
</g>
</g>
<g clip-path="url(#a)">
<g transform="translate(127.78 625.85) scale(.1 -.1)">
<use xlink:href="#c"/>
<use x="63.623047" xlink:href="#e"/>
<use x="95.410156" xlink:href="#n"/>
<use x="159.033203" xlink:href="#ag"/>
</g>
</g>
<g clip-path="url(#a)">
<g transform="translate(150.86 625.85) scale(.1 -.1)">
<use xlink:href="#c"/>
<use x="63.623047" xlink:href="#e"/>
<use x="95.410156" xlink:href="#n"/>
<use x="159.033203" xlink:href="#c"/>
</g>
</g>
<g clip-path="url(#a)">
<g transform="translate(176.83 625.85) scale(.1 -.1)">
<use xlink:href="#c"/>
<use x="63.623047" xlink:href="#e"/>
<use x="95.410156" xlink:href="#n"/>
<use x="159.033203" xlink:href="#p"/>
</g>
</g>
<g clip-path="url(#a)">
<g transform="translate(349.93 625.85) scale(.1 -.1)">
<use xlink:href="#c"/>
<use x="63.623047" xlink:href="#e"/>
<use x="95.410156" xlink:href="#n"/>
<use x="159.033203" xlink:href="#m"/>
</g>
</g>
<g clip-path="url(#a)">
<g transform="translate(393.2 625.85) scale(.1 -.1)">
<use xlink:href="#c"/>
<use x="63.623047" xlink:href="#e"/>
<use x="95.410156" xlink:href="#n"/>
<use x="159.033203" xlink:href="#n"/>
</g>
</g>
<g clip-path="url(#a)">
<g transform="translate(655.74 625.85) scale(.1 -.1)">
<use xlink:href="#c"/>
<use x="63.623047" xlink:href="#e"/>
<use x="95.410156" xlink:href="#n"/>
<use x="159.033203" xlink:href="#ac"/>
</g>
</g>
<g clip-path="url(#a)">
<g transform="translate(716.32 625.85) scale(.1 -.1)">
<use xlink:href="#c"/>
<use x="63.623047" xlink:href="#e"/>
<use x="95.410156" xlink:href="#n"/>
<use x="159.033203" xlink:href="#ab"/>
</g>
</g>
<g clip-path="url(#a)">
<g transform="translate(987.51 625.85) scale(.1 -.1)">
<use xlink:href="#c"/>
<use x="63.623047" xlink:href="#e"/>
<use x="95.410156" xlink:href="#n"/>
<use x="159.033203" xlink:href="#aa"/>
</g>
</g>
<g clip-path="url(#a)">
<g transform="translate(1391.4 625.85) scale(.1 -.1)">
<use xlink:href="#c"/>
<use x="63.623047" xlink:href="#e"/>
<use x="95.410156" xlink:href="#n"/>
<use x="159.033203" xlink:href="#z"/>
</g>
</g>
<defs>
<clipPath id="a">
<rect width="1469.3" height="773.33"/>
</clipPath>
</defs>
</svg>
