<?xml version="1.0" encoding="UTF-8"?>
<!DOCTYPE svg  PUBLIC '-//W3C//DTD SVG 1.1//EN'  'http://www.w3.org/Graphics/SVG/1.1/DTD/svg11.dtd'>
<svg width="1165.3pt" height="613.33pt" version="1.1" viewBox="0 0 1165.3 613.33" xmlns="http://www.w3.org/2000/svg" xmlns:xlink="http://www.w3.org/1999/xlink">
<defs>
<style type="text/css">*{stroke-linecap:butt;stroke-linejoin:round;}</style>
</defs>
<path d="m0 613.33h1165.3v-613.33h-1165.3z" fill="#fff"/>
<g fill="none" stroke="#000">
<path d="m623.71 28.792-478.5 97.341" clip-path="url(#a)"/>
<path d="m623.71 28.792 103.35 465.94" clip-path="url(#a)"/>
<path d="m623.71 28.792 319.94 285.08" clip-path="url(#a)"/>
<path d="m623.71 28.792 55.217 465.94" clip-path="url(#a)"/>
<path d="m145.21 126.13-91.983 368.6" clip-path="url(#a)"/>
<path d="m145.21 126.13-43.853 368.6" clip-path="url(#a)"/>
<path d="m145.21 126.13 135.84 94.925" clip-path="url(#a)"/>
<path d="m727.06 494.73v89.808" clip-path="url(#a)"/>
<path d="m943.65 313.87-168.46 180.86" clip-path="url(#a)"/>
<path d="m943.65 313.87-24.065 180.86" clip-path="url(#a)"/>
<path d="m943.65 313.87 24.065 91.057" clip-path="url(#a)"/>
<path d="m943.65 313.87 168.46 180.86" clip-path="url(#a)"/>
<path d="m775.19 494.73v89.808" clip-path="url(#a)"/>
<path d="m919.58 494.73-96.262 89.808" clip-path="url(#a)"/>
<path d="m919.58 494.73-48.131 89.808" clip-path="url(#a)"/>
<path d="m919.58 494.73 144.39 89.808" clip-path="url(#a)"/>
<path d="m967.71 404.93-48.131 89.808" clip-path="url(#a)"/>
<path d="m967.71 404.93v89.808" clip-path="url(#a)"/>
<path d="m967.71 404.93 48.131 89.808" clip-path="url(#a)"/>
<path d="m919.58 494.73v89.808" clip-path="url(#a)"/>
<path d="m967.71 494.73v89.808" clip-path="url(#a)"/>
<path d="m1015.8 494.73v89.808" clip-path="url(#a)"/>
<path d="m53.227 494.73v89.808" clip-path="url(#a)"/>
<path d="m101.36 494.73v89.808" clip-path="url(#a)"/>
<path d="m281.05 221.06-131.56 273.68" clip-path="url(#a)"/>
<path d="m281.05 221.06-83.427 273.68" clip-path="url(#a)"/>
<path d="m281.05 221.06-35.296 273.68" clip-path="url(#a)"/>
<path d="m281.05 221.06 12.835 273.68" clip-path="url(#a)"/>
<path d="m281.05 221.06 176.48 92.81" clip-path="url(#a)"/>
<path d="m281.05 221.06 60.966 273.68" clip-path="url(#a)"/>
<path d="m149.49 494.73v89.808" clip-path="url(#a)"/>
<path d="m197.62 494.73v89.808" clip-path="url(#a)"/>
<path d="m245.75 494.73v89.808" clip-path="url(#a)"/>
<path d="m293.88 494.73v89.808" clip-path="url(#a)"/>
<path d="m457.53 313.87-163.64 180.86" clip-path="url(#a)" stroke-dasharray="3.7,1.6"/>
<path d="m457.53 313.87-67.383 180.86" clip-path="url(#a)"/>
<path d="m457.53 313.87-19.252 180.86" clip-path="url(#a)"/>
<path d="m457.53 313.87 77.009 91.057" clip-path="url(#a)"/>
<path d="m457.53 313.87 173.27 180.86" clip-path="url(#a)"/>
<path d="m390.14 494.73v89.808" clip-path="url(#a)"/>
<path d="m438.27 494.73v89.808" clip-path="url(#a)"/>
<path d="m534.54 404.93-48.131 89.808" clip-path="url(#a)"/>
<path d="m534.54 404.93v89.808" clip-path="url(#a)"/>
<path d="m534.54 404.93 48.131 89.808" clip-path="url(#a)"/>
<path d="m630.8 494.73v89.808" clip-path="url(#a)"/>
<path d="m486.4 494.73v89.808" clip-path="url(#a)"/>
<path d="m534.54 494.73v89.808" clip-path="url(#a)"/>
<path d="m582.67 494.73v89.808" clip-path="url(#a)"/>
<path d="m342.01 494.73v89.808" clip-path="url(#a)"/>
<path d="m678.93 494.73v89.808" clip-path="url(#a)"/>
<path d="m1112.1 494.73v89.808" clip-path="url(#a)"/>
</g>
<path d="m382.76 84.208 5.8955-1.1993q2.3518-0.47843 1.8734-2.8303l-1.5434-7.5871q-0.47843-2.3518-2.8303-1.8734l-5.8955 1.1993q-2.3518 0.47843-1.8734 2.8303l1.5434 7.5871q0.47843 2.3518 2.8303 1.8734z" clip-path="url(#a)" fill="#fff" stroke="#fff"/>
<g clip-path="url(#a)">
<defs>
<path id="ai" d="m9.8125 72.906h9.8594v-29.891h35.844v29.891h9.8594v-72.906h-9.8594v34.719h-35.844v-34.719h-9.8594z"/>
</defs>
<g transform="translate(381.95 80.225) rotate(-11.499) scale(.08 -.08)">
<use xlink:href="#ai"/>
</g>
</g>
<path d="m668.78 260.94 0.96523 4.3517q0.5197 2.3431 2.8628 1.8234l7.5588-1.6766q2.3431-0.5197 1.8234-2.8628l-0.96523-4.3517q-0.5197-2.3431-2.8628-1.8234l-7.5588 1.6766q-2.3431 0.5197-1.8234 2.8628z" clip-path="url(#a)" fill="#fff" stroke="#fff"/>
<g clip-path="url(#a)">
<defs>
<path id="ap" d="m9.8125 72.906h9.8594v-64.609h35.5v-8.2969h-45.359z"/>
</defs>
<g transform="translate(672.75 260.06) rotate(77.494) scale(.08 -.08)">
<use xlink:href="#ap"/>
</g>
</g>
<path d="m777.26 174.01 4.4918 4.0024q1.7919 1.5966 3.3885-0.19524l5.1508-5.7806q1.5966-1.7919-0.19524-3.3885l-4.4918-4.0024q-1.7919-1.5966-3.3885 0.19524l-5.1508 5.7806q-1.5966 1.7919 0.19524 3.3885z" clip-path="url(#a)" fill="#fff" stroke="#fff"/>
<g clip-path="url(#a)">
<g transform="translate(779.97 170.98) rotate(41.702) scale(.08 -.08)">
<use xlink:href="#ai"/>
</g>
</g>
<path d="m644.75 259.59 0.68903 5.8143q0.28244 2.3833 2.6658 2.1009l7.6887-0.91116q2.3833-0.28244 2.1009-2.6658l-0.68903-5.8143q-0.28244-2.3833-2.6658-2.1009l-7.6887 0.91116q-2.3833 0.28244-2.1009 2.6658z" clip-path="url(#a)" fill="#fff" stroke="#fff"/>
<g clip-path="url(#a)">
<defs>
<path id="t" d="m8.6875 72.906h9.9219v-44.297q0-11.719 4.2344-16.875 4.25-5.1406 13.781-5.1406 9.4688 0 13.719 5.1406 4.25 5.1562 4.25 16.875v44.297h9.9062v-45.516q0-14.25-7.0625-21.531-7.0469-7.2812-20.812-7.2812-13.828 0-20.891 7.2812-7.0469 7.2812-7.0469 21.531z"/>
</defs>
<g transform="translate(648.78 259.12) rotate(83.242) scale(.08 -.08)">
<use xlink:href="#t"/>
</g>
</g>
<path d="m104.64 314.61 1.325-5.3097q0.58109-2.3286-1.7475-2.9097l-7.5121-1.8746q-2.3286-0.58109-2.9097 1.7475l-1.325 5.3097q-0.5811 2.3286 1.7475 2.9097l7.5121 1.8746q2.3286 0.58109 2.9097-1.7475z" clip-path="url(#a)" fill="#fff" stroke="#fff"/>
<g clip-path="url(#a)">
<defs>
<path id="n" d="m34.188 63.188-13.391-36.281h26.812zm-5.5781 9.7188h11.188l27.781-72.906h-10.25l-6.6406 18.703h-32.859l-6.6406-18.703h-10.406z"/>
</defs>
<g transform="translate(100.7 313.62) rotate(-75.988) scale(.08 -.08)">
<use xlink:href="#n"/>
</g>
</g>
<path d="m129.21 313.7 0.59999-5.0432q0.28353-2.3832-2.0997-2.6667l-7.6883-0.91468q-2.3832-0.28353-2.6667 2.0997l-0.59999 5.0432q-0.28353 2.3832 2.0997 2.6667l7.6883 0.91468q2.3832 0.28353 2.6667-2.0997z" clip-path="url(#a)" fill="#fff" stroke="#fff"/>
<g clip-path="url(#a)">
<defs>
<path id="u" d="m53.516 70.516v-9.625q-5.6094 2.6875-10.594 4-4.9844 1.3281-9.625 1.3281-8.0469 0-12.422-3.125t-4.375-8.8906q0-4.8438 2.9062-7.3125 2.9062-2.4531 11.016-3.9688l5.9531-1.2188q11.031-2.1094 16.281-7.4062t5.25-14.172q0-10.609-7.1094-16.078-7.0938-5.4688-20.812-5.4688-5.1719 0-11.016 1.1719-5.8281 1.1719-12.078 3.4688v10.156q6-3.3594 11.766-5.0781 5.7656-1.7031 11.328-1.7031 8.4375 0 13.031 3.3125 4.5938 3.3281 4.5938 9.4844 0 5.3594-3.2969 8.3906t-10.812 4.5469l-6.0156 1.1719q-11.031 2.1875-15.969 6.875-4.9219 4.6875-4.9219 13.047 0 9.6719 6.8125 15.234t18.766 5.5625q5.1406 0 10.453-0.9375 5.3281-0.92188 10.891-2.7656z"/>
</defs>
<g transform="translate(125.18 313.22) rotate(-83.215) scale(.08 -.08)">
<use xlink:href="#u"/>
</g>
</g>
<path d="m207.29 177.17 4.4857 3.1347q1.9672 1.3748 3.342-0.59249l4.435-6.3464q1.3748-1.9672-0.59249-3.342l-4.4857-3.1347q-1.9672-1.3748-3.342 0.59249l-4.435 6.3464q-1.3748 1.9672 0.59249 3.342z" clip-path="url(#a)" fill="#fff" stroke="#fff"/>
<g clip-path="url(#a)">
<g transform="translate(209.62 173.84) rotate(34.947) scale(.08 -.08)">
<use xlink:href="#n"/>
</g>
</g>
<path d="m720.79 522v35.285q0 2.4 2.4 2.4h7.7425q2.4 0 2.4-2.4v-35.285q0-2.4-2.4-2.4h-7.7425q-2.4 0-2.4 2.4z" clip-path="url(#a)" fill="#fff" stroke="#fff"/>
<g clip-path="url(#a)">
<defs>
<path id="k" d="m-0.29688 72.906h61.672v-8.3125h-25.875v-64.594h-9.9062v64.594h-25.891z"/>
<path id="c" d="m56.203 29.594v-4.3906h-41.312q0.59375-9.2812 5.5938-14.141t13.938-4.8594q5.1719 0 10.031 1.2656t9.6562 3.8125v-8.5q-4.8438-2.0469-9.9219-3.125t-10.297-1.0781q-13.094 0-20.734 7.6094-7.6406 7.625-7.6406 20.625 0 13.422 7.25 21.297 7.25 7.8906 19.562 7.8906 11.031 0 17.453-7.1094 6.4219-7.0938 6.4219-19.297zm-8.9844 2.6406q-0.09375 7.3594-4.125 11.75-4.0312 4.4062-10.672 4.4062-7.5156 0-12.031-4.25t-5.2031-11.969z"/>
<path id="h" d="m41.109 46.297q-1.5156 0.875-3.2969 1.2812-1.7812 0.42188-3.9219 0.42188-7.625 0-11.703-4.9531t-4.0781-14.234v-28.812h-9.0312v54.688h9.0312v-8.5q2.8438 4.9844 7.375 7.3906 4.5469 2.4219 11.047 2.4219 0.92188 0 2.0469-0.125 1.125-0.10938 2.4844-0.35938z"/>
<path id="l" d="m52 44.188q3.375 6.0625 8.0625 8.9375t11.031 2.875q8.5469 0 13.188-5.9844 4.6406-5.9688 4.6406-17v-33.016h-9.0312v32.719q0 7.8594-2.7969 11.656-2.7812 3.8125-8.4844 3.8125-6.9844 0-11.047-4.6406-4.0469-4.625-4.0469-12.641v-30.906h-9.0312v32.719q0 7.9062-2.7812 11.688t-8.5938 3.7812q-6.8906 0-10.953-4.6562-4.0469-4.6562-4.0469-12.625v-30.906h-9.0312v54.688h9.0312v-8.5q3.0781 5.0312 7.375 7.4219t10.203 2.3906q5.9688 0 10.141-3.0312 4.1719-3.0156 6.1719-8.7812z"/>
<path id="f" d="m9.4219 54.688h8.9844v-54.688h-8.9844zm0 21.297h8.9844v-11.391h-8.9844z"/>
<path id="e" d="m54.891 33.016v-33.016h-8.9844v32.719q0 7.7656-3.0312 11.609-3.0312 3.8594-9.0781 3.8594-7.2812 0-11.484-4.6406-4.2031-4.625-4.2031-12.641v-30.906h-9.0312v54.688h9.0312v-8.5q3.2344 4.9375 7.5938 7.375 4.375 2.4375 10.094 2.4375 9.4219 0 14.25-5.8281 4.8438-5.8281 4.8438-17.156z"/>
<path id="i" d="m34.281 27.484q-10.891 0-15.094-2.4844t-4.2031-8.5q0-4.7812 3.1562-7.5938 3.1562-2.7969 8.5625-2.7969 7.4844 0 12 5.2969t4.5156 14.078v2zm17.922 3.7188v-31.203h-8.9844v8.2969q-3.0781-4.9688-7.6719-7.3438t-11.234-2.375q-8.3906 0-13.359 4.7188-4.9531 4.7188-4.9531 12.625 0 9.2188 6.1719 13.906 6.1875 4.6875 18.438 4.6875h12.609v0.89062q0 6.2031-4.0781 9.5938t-11.453 3.3906q-4.6875 0-9.1406-1.125-4.4375-1.125-8.5312-3.375v8.3125q4.9219 1.9062 9.5625 2.8438 4.6406 0.95312 9.0312 0.95312 11.875 0 17.734-6.1562 5.8594-6.1406 5.8594-18.641z"/>
<path id="j" d="m9.4219 75.984h8.9844v-75.984h-8.9844z"/>
</defs>
<g transform="translate(724.85 522) rotate(90) scale(.08 -.08)">
<use xlink:href="#k"/>
<use x="60.818359" xlink:href="#c"/>
<use x="122.341797" xlink:href="#h"/>
<use x="163.439453" xlink:href="#l"/>
<use x="260.851562" xlink:href="#f"/>
<use x="288.634766" xlink:href="#e"/>
<use x="352.013672" xlink:href="#i"/>
<use x="413.292969" xlink:href="#j"/>
</g>
</g>
<path d="m862.14 410.58 3.7299-4.0046q1.6358-1.7562-0.12047-3.392l-5.6656-5.277q-1.7562-1.6358-3.392 0.12047l-3.7299 4.0046q-1.6358 1.7562 0.12047 3.392l5.6656 5.277q1.7562 1.6358 3.392-0.12047z" clip-path="url(#a)" fill="#fff" stroke="#fff"/>
<g clip-path="url(#a)">
<g transform="translate(859.17 407.81) rotate(-47.034) scale(.08 -.08)">
<use xlink:href="#n"/>
</g>
</g>
<path d="m937.51 407.52 0.63623-4.7816q0.31655-2.379-2.0625-2.6956l-7.6749-1.0212q-2.379-0.31655-2.6956 2.0625l-0.63623 4.7816q-0.31655 2.379 2.0625 2.6956l7.6749 1.0212q2.379 0.31655 2.6956-2.0625z" clip-path="url(#a)" fill="#fff" stroke="#fff"/>
<g clip-path="url(#a)">
<defs>
<path id="w" d="m19.672 64.797v-27.391h12.406q6.8906 0 10.641 3.5625 3.7656 3.5625 3.7656 10.156 0 6.5469-3.7656 10.109-3.75 3.5625-10.641 3.5625zm-9.8594 8.1094h22.266q12.266 0 18.531-5.5469 6.2812-5.5469 6.2812-16.234 0-10.797-6.2812-16.312-6.2656-5.5156-18.531-5.5156h-12.406v-29.297h-9.8594z"/>
</defs>
<g transform="translate(933.49 406.98) rotate(-82.421) scale(.08 -.08)">
<use xlink:href="#w"/>
</g>
</g>
<path d="m948.92 358.35 1.3983 5.2908q0.61324 2.3203 2.9336 1.7071l7.4855-1.9783q2.3203-0.61324 1.7071-2.9336l-1.3983-5.2908q-0.61324-2.3203-2.9336-1.7071l-7.4855 1.9783q-2.3203 0.61324-1.7071 2.9336z" clip-path="url(#a)" fill="#fff" stroke="#fff"/>
<g clip-path="url(#a)">
<g transform="translate(952.85 357.32) rotate(75.196) scale(.08 -.08)">
<use xlink:href="#n"/>
</g>
</g>
<path d="m1021.3 406.43 3.9906 4.2845q1.6358 1.7562 3.392 0.12047l5.6656-5.277q1.7562-1.6358 0.12047-3.392l-3.9906-4.2845q-1.6358-1.7562-3.392-0.12047l-5.6656 5.277q-1.7562 1.6358-0.12047 3.392z" clip-path="url(#a)" fill="#fff" stroke="#fff"/>
<g clip-path="url(#a)">
<g transform="translate(1024.3 403.66) rotate(47.034) scale(.08 -.08)">
<use xlink:href="#t"/>
</g>
</g>
<path d="m768.92 522v35.285q0 2.4 2.4 2.4h7.7425q2.4 0 2.4-2.4v-35.285q0-2.4-2.4-2.4h-7.7425q-2.4 0-2.4 2.4z" clip-path="url(#a)" fill="#fff" stroke="#fff"/>
<g clip-path="url(#a)">
<g transform="translate(772.98 522) rotate(90) scale(.08 -.08)">
<use xlink:href="#k"/>
<use x="60.818359" xlink:href="#c"/>
<use x="122.341797" xlink:href="#h"/>
<use x="163.439453" xlink:href="#l"/>
<use x="260.851562" xlink:href="#f"/>
<use x="288.634766" xlink:href="#e"/>
<use x="352.013672" xlink:href="#i"/>
<use x="413.292969" xlink:href="#j"/>
</g>
</g>
<path d="m862.83 556.26 25.8-24.07q1.7549-1.6372 0.11766-3.3921l-5.2817-5.6613q-1.6372-1.7549-3.3921-0.11766l-25.8 24.07q-1.7549 1.6372-0.11766 3.3921l5.2817 5.6613q1.6372 1.7549 3.3921 0.11766z" clip-path="url(#a)" fill="#fff" stroke="#fff"/>
<g clip-path="url(#a)">
<g transform="translate(860.06 553.29) rotate(-43.013) scale(.08 -.08)">
<use xlink:href="#k"/>
<use x="60.818359" xlink:href="#c"/>
<use x="122.341797" xlink:href="#h"/>
<use x="163.439453" xlink:href="#l"/>
<use x="260.851562" xlink:href="#f"/>
<use x="288.634766" xlink:href="#e"/>
<use x="352.013672" xlink:href="#i"/>
<use x="413.292969" xlink:href="#j"/>
</g>
</g>
<path d="m892.71 558.15 16.668-31.1q1.1337-2.1154-0.98167-3.249l-6.8242-3.6573q-2.1154-1.1337-3.249 0.98167l-16.668 31.1q-1.1337 2.1154 0.98167 3.249l6.8242 3.6573q2.1154 1.1337 3.249-0.98167z" clip-path="url(#a)" fill="#fff" stroke="#fff"/>
<g clip-path="url(#a)">
<g transform="translate(889.13 556.23) rotate(-61.812) scale(.08 -.08)">
<use xlink:href="#k"/>
<use x="60.818359" xlink:href="#c"/>
<use x="122.341797" xlink:href="#h"/>
<use x="163.439453" xlink:href="#l"/>
<use x="260.851562" xlink:href="#f"/>
<use x="288.634766" xlink:href="#e"/>
<use x="352.013672" xlink:href="#i"/>
<use x="413.292969" xlink:href="#j"/>
</g>
</g>
<path d="m973.49 535.65 29.962 18.636q2.038 1.2676 3.3055-0.77041l4.0892-6.5746q1.2676-2.038-0.77041-3.3055l-29.962-18.636q-2.038-1.2676-3.3055 0.77041l-4.0892 6.5746q-1.2676 2.038 0.77041 3.3055z" clip-path="url(#a)" fill="#fff" stroke="#fff"/>
<g clip-path="url(#a)">
<g transform="translate(975.63 532.19) rotate(31.88) scale(.08 -.08)">
<use xlink:href="#k"/>
<use x="60.818359" xlink:href="#c"/>
<use x="122.341797" xlink:href="#h"/>
<use x="163.439453" xlink:href="#l"/>
<use x="260.851562" xlink:href="#f"/>
<use x="288.634766" xlink:href="#e"/>
<use x="352.013672" xlink:href="#i"/>
<use x="413.292969" xlink:href="#j"/>
</g>
</g>
<path d="m948.09 454.82 2.1735-4.0555q1.1337-2.1154-0.98167-3.249l-6.8242-3.6573q-2.1154-1.1337-3.249 0.98167l-2.1735 4.0555q-1.1337 2.1154 0.98167 3.249l6.8242 3.6573q2.1154 1.1337 3.249-0.98167z" clip-path="url(#a)" fill="#fff" stroke="#fff"/>
<g clip-path="url(#a)">
<defs>
<path id="aj" d="m9.8125 72.906h41.891v-8.3125h-32.031v-21.484h28.906v-8.2969h-28.906v-34.812h-9.8594z"/>
</defs>
<g transform="translate(944.51 452.9) rotate(-61.812) scale(.08 -.08)">
<use xlink:href="#aj"/>
</g>
</g>
<path d="m961.44 447.3v5.055q0 2.4 2.4 2.4h7.7425q2.4 0 2.4-2.4v-5.055q0-2.4-2.4-2.4h-7.7425q-2.4 0-2.4 2.4z" clip-path="url(#a)" fill="#fff" stroke="#fff"/>
<g clip-path="url(#a)">
<defs>
<path id="x" d="m9.8125 72.906h46.094v-8.3125h-36.234v-21.578h34.719v-8.2969h-34.719v-26.422h37.109v-8.2969h-46.969z"/>
</defs>
<g transform="translate(965.51 447.3) rotate(90) scale(.08 -.08)">
<use xlink:href="#x"/>
</g>
</g>
<path d="m984.93 450.33 2.6388 4.9237q1.1337 2.1154 3.249 0.98167l6.8242-3.6573q2.1154-1.1337 0.98167-3.249l-2.6388-4.9237q-1.1337-2.1154-3.249-0.98167l-6.8242 3.6573q-2.1154 1.1337-0.98167 3.249z" clip-path="url(#a)" fill="#fff" stroke="#fff"/>
<g clip-path="url(#a)">
<defs>
<path id="y" d="m64.406 67.281v-10.391q-4.9844 4.6406-10.625 6.9219-5.6406 2.2969-11.984 2.2969-12.5 0-19.141-7.6406t-6.6406-22.094q0-14.406 6.6406-22.047t19.141-7.6406q6.3438 0 11.984 2.2969t10.625 6.9375v-10.312q-5.1719-3.5156-10.969-5.2812-5.7812-1.75-12.219-1.75-16.562 0-26.094 10.125-9.5156 10.141-9.5156 27.672 0 17.578 9.5156 27.703 9.5312 10.141 26.094 10.141 6.5312 0 12.312-1.7344 5.7969-1.7344 10.875-5.2031z"/>
</defs>
<g transform="translate(988.51 448.41) rotate(61.812) scale(.08 -.08)">
<use xlink:href="#y"/>
</g>
</g>
<path d="m913.31 522v35.285q0 2.4 2.4 2.4h7.7425q2.4 0 2.4-2.4v-35.285q0-2.4-2.4-2.4h-7.7425q-2.4 0-2.4 2.4z" clip-path="url(#a)" fill="#fff" stroke="#fff"/>
<g clip-path="url(#a)">
<g transform="translate(917.38 522) rotate(90) scale(.08 -.08)">
<use xlink:href="#k"/>
<use x="60.818359" xlink:href="#c"/>
<use x="122.341797" xlink:href="#h"/>
<use x="163.439453" xlink:href="#l"/>
<use x="260.851562" xlink:href="#f"/>
<use x="288.634766" xlink:href="#e"/>
<use x="352.013672" xlink:href="#i"/>
<use x="413.292969" xlink:href="#j"/>
</g>
</g>
<path d="m961.44 522v35.285q0 2.4 2.4 2.4h7.7425q2.4 0 2.4-2.4v-35.285q0-2.4-2.4-2.4h-7.7425q-2.4 0-2.4 2.4z" clip-path="url(#a)" fill="#fff" stroke="#fff"/>
<g clip-path="url(#a)">
<g transform="translate(965.51 522) rotate(90) scale(.08 -.08)">
<use xlink:href="#k"/>
<use x="60.818359" xlink:href="#c"/>
<use x="122.341797" xlink:href="#h"/>
<use x="163.439453" xlink:href="#l"/>
<use x="260.851562" xlink:href="#f"/>
<use x="288.634766" xlink:href="#e"/>
<use x="352.013672" xlink:href="#i"/>
<use x="413.292969" xlink:href="#j"/>
</g>
</g>
<path d="m1009.6 522v35.285q0 2.4 2.4 2.4h7.7425q2.4 0 2.4-2.4v-35.285q0-2.4-2.4-2.4h-7.7425q-2.4 0-2.4 2.4z" clip-path="url(#a)" fill="#fff" stroke="#fff"/>
<g clip-path="url(#a)">
<g transform="translate(1013.6 522) rotate(90) scale(.08 -.08)">
<use xlink:href="#k"/>
<use x="60.818359" xlink:href="#c"/>
<use x="122.341797" xlink:href="#h"/>
<use x="163.439453" xlink:href="#l"/>
<use x="260.851562" xlink:href="#f"/>
<use x="288.634766" xlink:href="#e"/>
<use x="352.013672" xlink:href="#i"/>
<use x="413.292969" xlink:href="#j"/>
</g>
</g>
<path d="m46.956 522v35.285q0 2.4 2.4 2.4h7.7425q2.4 0 2.4-2.4v-35.285q0-2.4-2.4-2.4h-7.7425q-2.4 0-2.4 2.4z" clip-path="url(#a)" fill="#fff" stroke="#fff"/>
<g clip-path="url(#a)">
<g transform="translate(51.02 522) rotate(90) scale(.08 -.08)">
<use xlink:href="#k"/>
<use x="60.818359" xlink:href="#c"/>
<use x="122.341797" xlink:href="#h"/>
<use x="163.439453" xlink:href="#l"/>
<use x="260.851562" xlink:href="#f"/>
<use x="288.634766" xlink:href="#e"/>
<use x="352.013672" xlink:href="#i"/>
<use x="413.292969" xlink:href="#j"/>
</g>
</g>
<path d="m95.087 522v35.285q0 2.4 2.4 2.4h7.7425q2.4 0 2.4-2.4v-35.285q0-2.4-2.4-2.4h-7.7425q-2.4 0-2.4 2.4z" clip-path="url(#a)" fill="#fff" stroke="#fff"/>
<g clip-path="url(#a)">
<g transform="translate(99.151 522) rotate(90) scale(.08 -.08)">
<use xlink:href="#k"/>
<use x="60.818359" xlink:href="#c"/>
<use x="122.341797" xlink:href="#h"/>
<use x="163.439453" xlink:href="#l"/>
<use x="260.851562" xlink:href="#f"/>
<use x="288.634766" xlink:href="#e"/>
<use x="352.013672" xlink:href="#i"/>
<use x="413.292969" xlink:href="#j"/>
</g>
</g>
<path d="m219.92 362.69 1.9935-4.147q1.0398-2.1631-1.1233-3.2029l-6.9781-3.3544q-2.1631-1.0398-3.2029 1.1233l-1.9935 4.147q-1.0398 2.1631 1.1233 3.2029l6.9781 3.3544q2.1631 1.0398 3.2029-1.1233z" clip-path="url(#a)" fill="#fff" stroke="#fff"/>
<g clip-path="url(#a)">
<g transform="translate(216.26 360.93) rotate(-64.326) scale(.08 -.08)">
<use xlink:href="#aj"/>
</g>
</g>
<path d="m244.52 362.38 1.6209-5.3172q0.69982-2.2957-1.5959-2.9955l-7.406-2.2576q-2.2957-0.69982-2.9955 1.5959l-1.6209 5.3172q-0.69982 2.2957 1.5959 2.9955l7.406 2.2576q2.2957 0.69982 2.9955-1.5959z" clip-path="url(#a)" fill="#fff" stroke="#fff"/>
<g clip-path="url(#a)">
<defs>
<path id="v" d="m44.391 34.188q3.1719-1.0781 6.1719-4.5938t6.0312-9.6719l10.016-19.922h-10.609l-9.3125 18.703q-3.625 7.3281-7.0156 9.7188t-9.25 2.3906h-10.75v-30.812h-9.8594v72.906h22.266q12.5 0 18.656-5.2344 6.1562-5.2188 6.1562-15.766 0-6.8906-3.2031-11.438-3.2031-4.5312-9.2969-6.2812zm-24.719 30.609v-25.875h12.406q7.125 0 10.766 3.2969t3.6406 9.6875-3.6406 9.6406-10.766 3.25z"/>
</defs>
<g transform="translate(240.63 361.2) rotate(-73.047) scale(.08 -.08)">
<use xlink:href="#v"/>
</g>
</g>
<path d="m269.3 361.2 0.64659-5.0135q0.30698-2.3803-2.0733-2.6873l-7.6789-0.99035q-2.3803-0.30699-2.6873 2.0733l-0.64659 5.0135q-0.30699 2.3803 2.0733 2.6873l7.6789 0.99035q2.3803 0.30699 2.6873-2.0733z" clip-path="url(#a)" fill="#fff" stroke="#fff"/>
<g clip-path="url(#a)">
<g transform="translate(265.26 360.69) rotate(-82.651) scale(.08 -.08)">
<use xlink:href="#x"/>
</g>
</g>
<path d="m281.07 355.4 0.2617 5.5801q0.11243 2.3974 2.5098 2.2849l7.734-0.36271q2.3974-0.11243 2.2849-2.5098l-0.2617-5.5801q-0.11243-2.3974-2.5098-2.2849l-7.734 0.36271q-2.3974 0.11243-2.2849 2.5098z" clip-path="url(#a)" fill="#fff" stroke="#fff"/>
<g clip-path="url(#a)">
<g transform="translate(285.13 355.21) rotate(87.315) scale(.08 -.08)">
<use xlink:href="#y"/>
</g>
</g>
<path d="m364.13 271.84 4.474 2.3529q2.1242 1.1171 3.2413-1.0071l3.6038-6.8527q1.1171-2.1242-1.0071-3.2413l-4.474-2.3529q-2.1242-1.1171-3.2413 1.0071l-3.6038 6.8527q-1.1171 2.1242 1.0071 3.2413z" clip-path="url(#a)" fill="#fff" stroke="#fff"/>
<g clip-path="url(#a)">
<g transform="translate(366.02 268.24) rotate(27.74) scale(.08 -.08)">
<use xlink:href="#x"/>
</g>
</g>
<path d="m304.77 356.4 1.2731 5.7149q0.52185 2.3426 2.8644 1.8207l7.5573-1.6835q2.3426-0.52185 1.8207-2.8644l-1.2731-5.7149q-0.52185-2.3426-2.8644-1.8207l-7.5573 1.6835q-2.3426 0.52185-1.8207 2.8644z" clip-path="url(#a)" fill="#fff" stroke="#fff"/>
<g clip-path="url(#a)">
<g transform="translate(308.74 355.52) rotate(77.441) scale(.08 -.08)">
<use xlink:href="#t"/>
</g>
</g>
<path d="m143.22 522v35.285q0 2.4 2.4 2.4h7.7425q2.4 0 2.4-2.4v-35.285q0-2.4-2.4-2.4h-7.7425q-2.4 0-2.4 2.4z" clip-path="url(#a)" fill="#fff" stroke="#fff"/>
<g clip-path="url(#a)">
<g transform="translate(147.28 522) rotate(90) scale(.08 -.08)">
<use xlink:href="#k"/>
<use x="60.818359" xlink:href="#c"/>
<use x="122.341797" xlink:href="#h"/>
<use x="163.439453" xlink:href="#l"/>
<use x="260.851562" xlink:href="#f"/>
<use x="288.634766" xlink:href="#e"/>
<use x="352.013672" xlink:href="#i"/>
<use x="413.292969" xlink:href="#j"/>
</g>
</g>
<path d="m191.35 522v35.285q0 2.4 2.4 2.4h7.7425q2.4 0 2.4-2.4v-35.285q0-2.4-2.4-2.4h-7.7425q-2.4 0-2.4 2.4z" clip-path="url(#a)" fill="#fff" stroke="#fff"/>
<g clip-path="url(#a)">
<g transform="translate(195.41 522) rotate(90) scale(.08 -.08)">
<use xlink:href="#k"/>
<use x="60.818359" xlink:href="#c"/>
<use x="122.341797" xlink:href="#h"/>
<use x="163.439453" xlink:href="#l"/>
<use x="260.851562" xlink:href="#f"/>
<use x="288.634766" xlink:href="#e"/>
<use x="352.013672" xlink:href="#i"/>
<use x="413.292969" xlink:href="#j"/>
</g>
</g>
<path d="m239.48 522v35.285q0 2.4 2.4 2.4h7.7425q2.4 0 2.4-2.4v-35.285q0-2.4-2.4-2.4h-7.7425q-2.4 0-2.4 2.4z" clip-path="url(#a)" fill="#fff" stroke="#fff"/>
<g clip-path="url(#a)">
<g transform="translate(243.54 522) rotate(90) scale(.08 -.08)">
<use xlink:href="#k"/>
<use x="60.818359" xlink:href="#c"/>
<use x="122.341797" xlink:href="#h"/>
<use x="163.439453" xlink:href="#l"/>
<use x="260.851562" xlink:href="#f"/>
<use x="288.634766" xlink:href="#e"/>
<use x="352.013672" xlink:href="#i"/>
<use x="413.292969" xlink:href="#j"/>
</g>
</g>
<path d="m287.61 522v35.285q0 2.4 2.4 2.4h7.7425q2.4 0 2.4-2.4v-35.285q0-2.4-2.4-2.4h-7.7425q-2.4 0-2.4 2.4z" clip-path="url(#a)" fill="#fff" stroke="#fff"/>
<g clip-path="url(#a)">
<g transform="translate(291.67 522) rotate(90) scale(.08 -.08)">
<use xlink:href="#k"/>
<use x="60.818359" xlink:href="#c"/>
<use x="122.341797" xlink:href="#h"/>
<use x="163.439453" xlink:href="#l"/>
<use x="260.851562" xlink:href="#f"/>
<use x="288.634766" xlink:href="#e"/>
<use x="352.013672" xlink:href="#i"/>
<use x="413.292969" xlink:href="#j"/>
</g>
</g>
<path d="m378.52 410.54 3.6716-4.058q1.6102-1.7797-0.16944-3.3899l-5.7413-5.1946q-1.7797-1.6102-3.3899 0.16944l-3.6716 4.058q-1.6102 1.7797 0.16944 3.3899l5.7413 5.1946q1.7797 1.6102 3.3899-0.16944z" clip-path="url(#a)" fill="#fff" stroke="#fff"/>
<g clip-path="url(#a)">
<g transform="translate(375.51 407.81) rotate(-47.861) scale(.08 -.08)">
<use xlink:href="#n"/>
</g>
</g>
<path d="m428.74 409.1 1.9407-5.209q0.83788-2.249-1.4111-3.0869l-7.2553-2.7031q-2.249-0.83788-3.0869 1.4111l-1.9407 5.209q-0.83789 2.249 1.4111 3.0869l7.2553 2.7031q2.249 0.83789 3.0869-1.4111z" clip-path="url(#a)" fill="#fff" stroke="#fff"/>
<g clip-path="url(#a)">
<g transform="translate(424.93 407.68) rotate(-69.567) scale(.08 -.08)">
<use xlink:href="#v"/>
</g>
</g>
<path d="m453.85 407.69 0.57925-5.4418q0.25404-2.3865-2.1325-2.6406l-7.699-0.81953q-2.3865-0.25404-2.6406 2.1325l-0.57925 5.4418q-0.25404 2.3865 2.1325 2.6406l7.699 0.81953q2.3865 0.25404 2.6406-2.1325z" clip-path="url(#a)" fill="#fff" stroke="#fff"/>
<g clip-path="url(#a)">
<g transform="translate(449.81 407.26) rotate(-83.924) scale(.08 -.08)">
<use xlink:href="#n"/>
</g>
</g>
<path d="m489.67 361.58 3.1553 3.7309q1.5498 1.8325 3.3823 0.28271l5.9118-4.9997q1.8325-1.5498 0.28271-3.3823l-3.1553-3.7309q-1.5498-1.8325-3.3823-0.28271l-5.9118 4.9997q-1.8325 1.5498-0.28271 3.3823z" clip-path="url(#a)" fill="#fff" stroke="#fff"/>
<g clip-path="url(#a)">
<g transform="translate(492.77 358.96) rotate(49.778) scale(.08 -.08)">
<use xlink:href="#k"/>
</g>
</g>
<path d="m537.96 406.9 3.337 3.4832q1.6603 1.733 3.3933 0.072764l5.5909-5.3561q1.733-1.6603 0.072764-3.3933l-3.337-3.4832q-1.6603-1.733-3.3933-0.072763l-5.5909 5.3561q-1.733 1.6603-0.072763 3.3933z" clip-path="url(#a)" fill="#fff" stroke="#fff"/>
<g clip-path="url(#a)">
<g transform="translate(540.9 404.09) rotate(46.228) scale(.08 -.08)">
<use xlink:href="#w"/>
</g>
</g>
<path d="m383.87 522v35.285q0 2.4 2.4 2.4h7.7425q2.4 0 2.4-2.4v-35.285q0-2.4-2.4-2.4h-7.7425q-2.4 0-2.4 2.4z" clip-path="url(#a)" fill="#fff" stroke="#fff"/>
<g clip-path="url(#a)">
<g transform="translate(387.94 522) rotate(90) scale(.08 -.08)">
<use xlink:href="#k"/>
<use x="60.818359" xlink:href="#c"/>
<use x="122.341797" xlink:href="#h"/>
<use x="163.439453" xlink:href="#l"/>
<use x="260.851562" xlink:href="#f"/>
<use x="288.634766" xlink:href="#e"/>
<use x="352.013672" xlink:href="#i"/>
<use x="413.292969" xlink:href="#j"/>
</g>
</g>
<path d="m432 522v35.285q0 2.4 2.4 2.4h7.7425q2.4 0 2.4-2.4v-35.285q0-2.4-2.4-2.4h-7.7425q-2.4 0-2.4 2.4z" clip-path="url(#a)" fill="#fff" stroke="#fff"/>
<g clip-path="url(#a)">
<g transform="translate(436.07 522) rotate(90) scale(.08 -.08)">
<use xlink:href="#k"/>
<use x="60.818359" xlink:href="#c"/>
<use x="122.341797" xlink:href="#h"/>
<use x="163.439453" xlink:href="#l"/>
<use x="260.851562" xlink:href="#f"/>
<use x="288.634766" xlink:href="#e"/>
<use x="352.013672" xlink:href="#i"/>
<use x="413.292969" xlink:href="#j"/>
</g>
</g>
<path d="m514.68 455.24 2.6258-4.8995q1.1337-2.1154-0.98167-3.249l-6.8242-3.6573q-2.1154-1.1337-3.249 0.98167l-2.6258 4.8995q-1.1337 2.1154 0.98167 3.249l6.8242 3.6573q2.1154 1.1337 3.249-0.98167z" clip-path="url(#a)" fill="#fff" stroke="#fff"/>
<g clip-path="url(#a)">
<g transform="translate(511.1 453.32) rotate(-61.812) scale(.08 -.08)">
<use xlink:href="#v"/>
</g>
</g>
<path d="m528.26 446.68v6.2975q0 2.4 2.4 2.4h7.7425q2.4 0 2.4-2.4v-6.2975q0-2.4-2.4-2.4h-7.7425q-2.4 0-2.4 2.4z" clip-path="url(#a)" fill="#fff" stroke="#fff"/>
<g clip-path="url(#a)">
<defs>
<path id="ao" d="m39.406 66.219q-10.75 0-17.078-8.0156-6.3125-8-6.3125-21.828 0-13.766 6.3125-21.781 6.3281-8 17.078-8 10.734 0 17.016 8 6.2812 8.0156 6.2812 21.781 0 13.828-6.2812 21.828-6.2812 8.0156-17.016 8.0156zm13.812-64.906 13-14.203h-11.922l-10.797 11.672q-1.6094-0.09375-2.4688-0.14062-0.84375-0.0625-1.625-0.0625-15.375 0-24.594 10.281-9.2031 10.281-9.2031 27.516 0 17.281 9.2031 27.562 9.2188 10.281 24.594 10.281 15.328 0 24.5-10.281 9.1875-10.281 9.1875-27.562 0-12.688-5.1094-21.734-5.0938-9.0312-14.766-13.328z"/>
</defs>
<g transform="translate(532.33 446.68) rotate(90) scale(.08 -.08)">
<use xlink:href="#ao"/>
</g>
</g>
<path d="m551.75 450.33 2.6388 4.9237q1.1337 2.1154 3.249 0.98167l6.8242-3.6573q2.1154-1.1337 0.98167-3.249l-2.6388-4.9237q-1.1337-2.1154-3.249-0.98167l-6.8242 3.6573q-2.1154 1.1337-0.98167 3.249z" clip-path="url(#a)" fill="#fff" stroke="#fff"/>
<g clip-path="url(#a)">
<g transform="translate(555.34 448.41) rotate(61.812) scale(.08 -.08)">
<use xlink:href="#y"/>
</g>
</g>
<path d="m624.53 522v35.285q0 2.4 2.4 2.4h7.7425q2.4 0 2.4-2.4v-35.285q0-2.4-2.4-2.4h-7.7425q-2.4 0-2.4 2.4z" clip-path="url(#a)" fill="#fff" stroke="#fff"/>
<g clip-path="url(#a)">
<g transform="translate(628.59 522) rotate(90) scale(.08 -.08)">
<use xlink:href="#k"/>
<use x="60.818359" xlink:href="#c"/>
<use x="122.341797" xlink:href="#h"/>
<use x="163.439453" xlink:href="#l"/>
<use x="260.851562" xlink:href="#f"/>
<use x="288.634766" xlink:href="#e"/>
<use x="352.013672" xlink:href="#i"/>
<use x="413.292969" xlink:href="#j"/>
</g>
</g>
<path d="m480.13 522v35.285q0 2.4 2.4 2.4h7.7425q2.4 0 2.4-2.4v-35.285q0-2.4-2.4-2.4h-7.7425q-2.4 0-2.4 2.4z" clip-path="url(#a)" fill="#fff" stroke="#fff"/>
<g clip-path="url(#a)">
<g transform="translate(484.2 522) rotate(90) scale(.08 -.08)">
<use xlink:href="#k"/>
<use x="60.818359" xlink:href="#c"/>
<use x="122.341797" xlink:href="#h"/>
<use x="163.439453" xlink:href="#l"/>
<use x="260.851562" xlink:href="#f"/>
<use x="288.634766" xlink:href="#e"/>
<use x="352.013672" xlink:href="#i"/>
<use x="413.292969" xlink:href="#j"/>
</g>
</g>
<path d="m528.26 522v35.285q0 2.4 2.4 2.4h7.7425q2.4 0 2.4-2.4v-35.285q0-2.4-2.4-2.4h-7.7425q-2.4 0-2.4 2.4z" clip-path="url(#a)" fill="#fff" stroke="#fff"/>
<g clip-path="url(#a)">
<g transform="translate(532.33 522) rotate(90) scale(.08 -.08)">
<use xlink:href="#k"/>
<use x="60.818359" xlink:href="#c"/>
<use x="122.341797" xlink:href="#h"/>
<use x="163.439453" xlink:href="#l"/>
<use x="260.851562" xlink:href="#f"/>
<use x="288.634766" xlink:href="#e"/>
<use x="352.013672" xlink:href="#i"/>
<use x="413.292969" xlink:href="#j"/>
</g>
</g>
<path d="m576.4 522v35.285q0 2.4 2.4 2.4h7.7425q2.4 0 2.4-2.4v-35.285q0-2.4-2.4-2.4h-7.7425q-2.4 0-2.4 2.4z" clip-path="url(#a)" fill="#fff" stroke="#fff"/>
<g clip-path="url(#a)">
<g transform="translate(580.46 522) rotate(90) scale(.08 -.08)">
<use xlink:href="#k"/>
<use x="60.818359" xlink:href="#c"/>
<use x="122.341797" xlink:href="#h"/>
<use x="163.439453" xlink:href="#l"/>
<use x="260.851562" xlink:href="#f"/>
<use x="288.634766" xlink:href="#e"/>
<use x="352.013672" xlink:href="#i"/>
<use x="413.292969" xlink:href="#j"/>
</g>
</g>
<path d="m335.74 522v35.285q0 2.4 2.4 2.4h7.7425q2.4 0 2.4-2.4v-35.285q0-2.4-2.4-2.4h-7.7425q-2.4 0-2.4 2.4z" clip-path="url(#a)" fill="#fff" stroke="#fff"/>
<g clip-path="url(#a)">
<g transform="translate(339.8 522) rotate(90) scale(.08 -.08)">
<use xlink:href="#k"/>
<use x="60.818359" xlink:href="#c"/>
<use x="122.341797" xlink:href="#h"/>
<use x="163.439453" xlink:href="#l"/>
<use x="260.851562" xlink:href="#f"/>
<use x="288.634766" xlink:href="#e"/>
<use x="352.013672" xlink:href="#i"/>
<use x="413.292969" xlink:href="#j"/>
</g>
</g>
<path d="m672.66 522v35.285q0 2.4 2.4 2.4h7.7425q2.4 0 2.4-2.4v-35.285q0-2.4-2.4-2.4h-7.7425q-2.4 0-2.4 2.4z" clip-path="url(#a)" fill="#fff" stroke="#fff"/>
<g clip-path="url(#a)">
<g transform="translate(676.72 522) rotate(90) scale(.08 -.08)">
<use xlink:href="#k"/>
<use x="60.818359" xlink:href="#c"/>
<use x="122.341797" xlink:href="#h"/>
<use x="163.439453" xlink:href="#l"/>
<use x="260.851562" xlink:href="#f"/>
<use x="288.634766" xlink:href="#e"/>
<use x="352.013672" xlink:href="#i"/>
<use x="413.292969" xlink:href="#j"/>
</g>
</g>
<path d="m1105.8 522v35.285q0 2.4 2.4 2.4h7.7425q2.4 0 2.4-2.4v-35.285q0-2.4-2.4-2.4h-7.7425q-2.4 0-2.4 2.4z" clip-path="url(#a)" fill="#fff" stroke="#fff"/>
<g clip-path="url(#a)">
<g transform="translate(1109.9 522) rotate(90) scale(.08 -.08)">
<use xlink:href="#k"/>
<use x="60.818359" xlink:href="#c"/>
<use x="122.341797" xlink:href="#h"/>
<use x="163.439453" xlink:href="#l"/>
<use x="260.851562" xlink:href="#f"/>
<use x="288.634766" xlink:href="#e"/>
<use x="352.013672" xlink:href="#i"/>
<use x="413.292969" xlink:href="#j"/>
</g>
</g>
<defs>
<path id="b" d="m0 8.6603c2.2967 0 4.4997-0.9125 6.1237-2.5365 1.624-1.624 2.5365-3.827 2.5365-6.1237s-0.9125-4.4997-2.5365-6.1237c-1.624-1.624-3.827-2.5365-6.1237-2.5365s-4.4997 0.9125-6.1237 2.5365c-1.624 1.624-2.5365 3.827-2.5365 6.1237s0.9125 4.4997 2.5365 6.1237c1.624 1.624 3.827 2.5365 6.1237 2.5365z"/>
</defs>
<g clip-path="url(#a)">
<use x="53.227232" y="584.541525" fill="#ffffff" stroke="#ffffff" xlink:href="#b"/>
</g>
<g clip-path="url(#a)">
<use x="101.35809" y="584.541525" fill="#ffffff" stroke="#ffffff" xlink:href="#b"/>
</g>
<g clip-path="url(#a)">
<use x="149.488948" y="584.541525" fill="#ffffff" stroke="#ffffff" xlink:href="#b"/>
</g>
<g clip-path="url(#a)">
<use x="197.619805" y="584.541525" fill="#ffffff" stroke="#ffffff" xlink:href="#b"/>
</g>
<g clip-path="url(#a)">
<use x="245.750663" y="584.541525" fill="#ffffff" stroke="#ffffff" xlink:href="#b"/>
</g>
<g clip-path="url(#a)">
<use x="293.881521" y="584.541525" fill="#ffffff" stroke="#ffffff" xlink:href="#b"/>
</g>
<g clip-path="url(#a)">
<use x="342.012378" y="584.541525" fill="#ffffff" stroke="#ffffff" xlink:href="#b"/>
</g>
<g clip-path="url(#a)">
<use x="390.143236" y="584.541525" fill="#ffffff" stroke="#ffffff" xlink:href="#b"/>
</g>
<g clip-path="url(#a)">
<use x="438.274094" y="584.541525" fill="#ffffff" stroke="#ffffff" xlink:href="#b"/>
</g>
<g clip-path="url(#a)">
<use x="486.404951" y="584.541525" fill="#ffffff" stroke="#ffffff" xlink:href="#b"/>
</g>
<g clip-path="url(#a)">
<use x="534.535809" y="584.541525" fill="#ffffff" stroke="#ffffff" xlink:href="#b"/>
</g>
<g clip-path="url(#a)">
<use x="582.666667" y="584.541525" fill="#ffffff" stroke="#ffffff" xlink:href="#b"/>
</g>
<g clip-path="url(#a)">
<use x="630.797524" y="584.541525" fill="#ffffff" stroke="#ffffff" xlink:href="#b"/>
</g>
<g clip-path="url(#a)">
<use x="678.928382" y="584.541525" fill="#ffffff" stroke="#ffffff" xlink:href="#b"/>
</g>
<g clip-path="url(#a)">
<use x="727.05924" y="584.541525" fill="#ffffff" stroke="#ffffff" xlink:href="#b"/>
</g>
<g clip-path="url(#a)">
<use x="775.190097" y="584.541525" fill="#ffffff" stroke="#ffffff" xlink:href="#b"/>
</g>
<g clip-path="url(#a)">
<use x="823.320955" y="584.541525" fill="#ffffff" stroke="#ffffff" xlink:href="#b"/>
</g>
<g clip-path="url(#a)">
<use x="871.451813" y="584.541525" fill="#ffffff" stroke="#ffffff" xlink:href="#b"/>
</g>
<g clip-path="url(#a)">
<use x="919.58267" y="584.541525" fill="#ffffff" stroke="#ffffff" xlink:href="#b"/>
</g>
<g clip-path="url(#a)">
<use x="967.713528" y="584.541525" fill="#ffffff" stroke="#ffffff" xlink:href="#b"/>
</g>
<g clip-path="url(#a)">
<use x="1015.844386" y="584.541525" fill="#ffffff" stroke="#ffffff" xlink:href="#b"/>
</g>
<g clip-path="url(#a)">
<use x="1063.975244" y="584.541525" fill="#ffffff" stroke="#ffffff" xlink:href="#b"/>
</g>
<g clip-path="url(#a)">
<use x="1112.106101" y="584.541525" fill="#ffffff" stroke="#ffffff" xlink:href="#b"/>
</g>
<g clip-path="url(#a)">
<use x="623.711593" y="28.791808" fill="#ffffff" stroke="#ffffff" xlink:href="#b"/>
</g>
<g clip-path="url(#a)">
<use x="145.210649" y="126.133271" fill="#ffffff" stroke="#ffffff" xlink:href="#b"/>
</g>
<g clip-path="url(#a)">
<use x="727.05924" y="494.73376" fill="#ffffff" stroke="#ffffff" xlink:href="#b"/>
</g>
<g clip-path="url(#a)">
<use x="943.648099" y="313.868905" fill="#ffffff" stroke="#ffffff" xlink:href="#b"/>
</g>
<g clip-path="url(#a)">
<use x="775.190097" y="494.73376" fill="#ffffff" stroke="#ffffff" xlink:href="#b"/>
</g>
<g clip-path="url(#a)">
<use x="919.58267" y="494.73376" fill="#ffffff" stroke="#ffffff" xlink:href="#b"/>
</g>
<g clip-path="url(#a)">
<use x="967.713528" y="404.925995" fill="#ffffff" stroke="#ffffff" xlink:href="#b"/>
</g>
<g clip-path="url(#a)">
<use x="919.58267" y="494.73376" fill="#ffffff" stroke="#ffffff" xlink:href="#b"/>
</g>
<g clip-path="url(#a)">
<use x="967.713528" y="494.73376" fill="#ffffff" stroke="#ffffff" xlink:href="#b"/>
</g>
<g clip-path="url(#a)">
<use x="1015.844386" y="494.73376" fill="#ffffff" stroke="#ffffff" xlink:href="#b"/>
</g>
<g clip-path="url(#a)">
<use x="53.227232" y="494.73376" fill="#ffffff" stroke="#ffffff" xlink:href="#b"/>
</g>
<g clip-path="url(#a)">
<use x="101.35809" y="494.73376" fill="#ffffff" stroke="#ffffff" xlink:href="#b"/>
</g>
<g clip-path="url(#a)">
<use x="281.046625" y="221.058441" fill="#ffffff" stroke="#ffffff" xlink:href="#b"/>
</g>
<g clip-path="url(#a)">
<use x="149.488948" y="494.73376" fill="#ffffff" stroke="#ffffff" xlink:href="#b"/>
</g>
<g clip-path="url(#a)">
<use x="197.619805" y="494.73376" fill="#ffffff" stroke="#ffffff" xlink:href="#b"/>
</g>
<g clip-path="url(#a)">
<use x="245.750663" y="494.73376" fill="#ffffff" stroke="#ffffff" xlink:href="#b"/>
</g>
<g clip-path="url(#a)">
<use x="293.881521" y="494.73376" fill="#ffffff" stroke="#ffffff" xlink:href="#b"/>
</g>
<g clip-path="url(#a)">
<use x="457.526437" y="313.868905" fill="#ffffff" stroke="#ffffff" xlink:href="#b"/>
</g>
<g clip-path="url(#a)">
<use x="390.143236" y="494.73376" fill="#ffffff" stroke="#ffffff" xlink:href="#b"/>
</g>
<g clip-path="url(#a)">
<use x="438.274094" y="494.73376" fill="#ffffff" stroke="#ffffff" xlink:href="#b"/>
</g>
<g clip-path="url(#a)">
<use x="534.535809" y="404.925995" fill="#ffffff" stroke="#ffffff" xlink:href="#b"/>
</g>
<g clip-path="url(#a)">
<use x="630.797524" y="494.73376" fill="#ffffff" stroke="#ffffff" xlink:href="#b"/>
</g>
<g clip-path="url(#a)">
<use x="486.404951" y="494.73376" fill="#ffffff" stroke="#ffffff" xlink:href="#b"/>
</g>
<g clip-path="url(#a)">
<use x="534.535809" y="494.73376" fill="#ffffff" stroke="#ffffff" xlink:href="#b"/>
</g>
<g clip-path="url(#a)">
<use x="582.666667" y="494.73376" fill="#ffffff" stroke="#ffffff" xlink:href="#b"/>
</g>
<g clip-path="url(#a)">
<use x="342.012378" y="494.73376" fill="#ffffff" stroke="#ffffff" xlink:href="#b"/>
</g>
<g clip-path="url(#a)">
<use x="678.928382" y="494.73376" fill="#ffffff" stroke="#ffffff" xlink:href="#b"/>
</g>
<g clip-path="url(#a)">
<use x="1112.106101" y="494.73376" fill="#ffffff" stroke="#ffffff" xlink:href="#b"/>
</g>
<g clip-path="url(#a)">
<defs>
<path id="aq" d="m19.672 64.797v-56.688h11.922q15.094 0 22.094 6.8281 7 6.8438 7 21.594 0 14.641-7 21.453t-22.094 6.8125zm-9.8594 8.1094h20.266q21.188 0 31.094-8.8125 9.9219-8.8125 9.9219-27.562 0-18.859-9.9688-27.703-9.9531-8.8281-31.047-8.8281h-20.266z"/>
</defs>
<g transform="translate(46.313 587.3) scale(.1 -.1)">
<use xlink:href="#aq"/>
<use x="77.001953" xlink:href="#i"/>
</g>
</g>
<g clip-path="url(#a)">
<defs>
<path id="au" d="m4.2031 54.688h8.9844l11.234-42.672 11.172 42.672h10.594l11.234-42.672 11.188 42.672h8.9844l-14.312-54.688h-10.594l-11.766 44.828-11.812-44.828h-10.609z"/>
</defs>
<g transform="translate(92.149 587.3) scale(.1 -.1)">
<use xlink:href="#au"/>
<use x="81.787109" xlink:href="#i"/>
<use x="143.066406" xlink:href="#h"/>
</g>
</g>
<g clip-path="url(#a)">
<g transform="translate(138.78 587.3) scale(.1 -.1)">
<use xlink:href="#c"/>
<use x="61.523438" xlink:href="#f"/>
<use x="89.306641" xlink:href="#e"/>
<use x="152.685547" xlink:href="#c"/>
</g>
</g>
<g clip-path="url(#a)">
<defs>
<path id="o" d="m45.406 46.391v29.594h8.9844v-75.984h-8.9844v8.2031q-2.8281-4.875-7.1562-7.25-4.3125-2.375-10.375-2.375-9.9062 0-16.141 7.9062-6.2188 7.9219-6.2188 20.812t6.2188 20.797q6.2344 7.9062 16.141 7.9062 6.0625 0 10.375-2.375 4.3281-2.3594 7.1562-7.2344zm-30.609-19.094q0-9.9062 4.0781-15.547t11.203-5.6406 11.219 5.6406q4.1094 5.6406 4.1094 15.547t-4.1094 15.547q-4.0938 5.6406-11.219 5.6406t-11.203-5.6406-4.0781-15.547z"/>
<path id="af" d="m44.281 53.078v-8.5q-3.7969 1.9531-7.9062 2.9219-4.0938 0.98438-8.5 0.98438-6.6875 0-10.031-2.0469t-3.3438-6.1562q0-3.125 2.3906-4.9062t9.625-3.3906l3.0781-0.6875q9.5625-2.0469 13.594-5.7812t4.0312-10.422q0-7.625-6.0312-12.078-6.0312-4.4375-16.578-4.4375-4.3906 0-9.1562 0.85938t-10.031 2.5625v9.2812q4.9844-2.5938 9.8125-3.8906 4.8281-1.2812 9.5781-1.2812 6.3438 0 9.75 2.1719 3.4219 2.1719 3.4219 6.125 0 3.6562-2.4688 5.6094-2.4531 1.9531-10.812 3.7656l-3.125 0.73438q-8.3438 1.75-12.062 5.3906-3.7031 3.6406-3.7031 9.9844 0 7.7188 5.4688 11.906 5.4688 4.2031 15.531 4.2031 4.9688 0 9.3594-0.73438 4.4062-0.71875 8.1094-2.1875z"/>
</defs>
<g transform="translate(182.24 587.3) scale(.1 -.1)">
<use xlink:href="#o"/>
<use x="63.476562" xlink:href="#f"/>
<use x="91.259766" xlink:href="#c"/>
<use x="152.783203" xlink:href="#af"/>
<use x="204.882812" xlink:href="#c"/>
<use x="266.40625" xlink:href="#h"/>
</g>
</g>
<g clip-path="url(#a)">
<defs>
<path id="q" d="m45.406 27.984q0 9.7656-4.0312 15.125-4.0156 5.375-11.297 5.375-7.2188 0-11.25-5.375-4.0312-5.3594-4.0312-15.125 0-9.7188 4.0312-15.094t11.25-5.375q7.2812 0 11.297 5.375 4.0312 5.375 4.0312 15.094zm8.9844-21.203q0-13.953-6.2031-20.766-6.1875-6.8125-18.984-6.8125-4.7344 0-8.9375 0.70312t-8.1562 2.1719v8.7344q3.9531-2.1406 7.8125-3.1562 3.8594-1.0312 7.8594-1.0312 8.8438 0 13.234 4.6094t4.3906 13.938v4.4531q-2.7812-4.8438-7.125-7.2344t-10.406-2.3906q-10.047 0-16.203 7.6562-6.1562 7.6719-6.1562 20.328 0 12.688 6.1562 20.344 6.1562 7.6719 16.203 7.6719 6.0625 0 10.406-2.3906t7.125-7.2188v8.2969h8.9844z"/>
<path id="an" d="m48.688 27.297q0 9.9062-4.0781 15.547t-11.203 5.6406q-7.1406 0-11.219-5.6406t-4.0781-15.547 4.0781-15.547 11.219-5.6406q7.125 0 11.203 5.6406t4.0781 15.547zm-30.578 19.094q2.8438 4.875 7.1562 7.2344 4.3281 2.375 10.328 2.375 9.9688 0 16.188-7.9062 6.2344-7.9062 6.2344-20.797t-6.2344-20.812q-6.2188-7.9062-16.188-7.9062-6 0-10.328 2.375-4.3125 2.375-7.1562 7.25v-8.2031h-9.0312v75.984h9.0312z"/>
</defs>
<g transform="translate(228.69 587.3) scale(.1 -.1)">
<use xlink:href="#q"/>
<use x="63.476562" xlink:href="#c"/>
<use x="125" xlink:href="#j"/>
<use x="152.783203" xlink:href="#an"/>
<use x="216.259766" xlink:href="#c"/>
<use x="277.783203" xlink:href="#e"/>
</g>
</g>
<g clip-path="url(#a)">
<defs>
<path id="r" d="m48.781 52.594v-8.4062q-3.8125 2.1094-7.6406 3.1562t-7.7344 1.0469q-8.75 0-13.594-5.5469-4.8281-5.5312-4.8281-15.547t4.8281-15.562q4.8438-5.5312 13.594-5.5312 3.9062 0 7.7344 1.0469t7.6406 3.1562v-8.3125q-3.7656-1.75-7.7969-2.625-4.0156-0.89062-8.5625-0.89062-12.359 0-19.641 7.7656-7.2656 7.7656-7.2656 20.953 0 13.375 7.3438 21.031 7.3594 7.6719 20.156 7.6719 4.1406 0 8.0938-0.85938 3.9531-0.84375 7.6719-2.5469z"/>
<path id="ah" d="m54.891 33.016v-33.016h-8.9844v32.719q0 7.7656-3.0312 11.609-3.0312 3.8594-9.0781 3.8594-7.2812 0-11.484-4.6406-4.2031-4.625-4.2031-12.641v-30.906h-9.0312v75.984h9.0312v-29.797q3.2344 4.9375 7.5938 7.375 4.375 2.4375 10.094 2.4375 9.4219 0 14.25-5.8281 4.8438-5.8281 4.8438-17.156z"/>
</defs>
<g transform="translate(267.75 587.3) scale(.1 -.1)">
<use xlink:href="#u"/>
<use x="63.476562" xlink:href="#r"/>
<use x="118.457031" xlink:href="#ah"/>
<use x="181.835938" xlink:href="#j"/>
<use x="209.619141" xlink:href="#i"/>
<use x="270.898438" xlink:href="#e"/>
<use x="334.277344" xlink:href="#q"/>
<use x="397.753906" xlink:href="#c"/>
<use x="459.277344" xlink:href="#e"/>
</g>
</g>
<g clip-path="url(#a)">
<defs>
<path id="am" d="m11.719 12.406h10.297v-8.4062l-8-15.625h-6.2969l4 15.625z"/>
</defs>
<g transform="translate(340.42 587.3) scale(.1 -.1)">
<use xlink:href="#am"/>
</g>
</g>
<g clip-path="url(#a)">
<g transform="translate(382.5 587.3) scale(.1 -.1)">
<use xlink:href="#o"/>
<use x="63.476562" xlink:href="#f"/>
<use x="91.259766" xlink:href="#c"/>
</g>
</g>
<g clip-path="url(#a)">
<defs>
<path id="ae" d="m8.5 21.578v33.109h8.9844v-32.766q0-7.7656 3.0156-11.656 3.0312-3.875 9.0938-3.875 7.2656 0 11.484 4.6406 4.2344 4.6406 4.2344 12.656v31h8.9844v-54.688h-8.9844v8.4062q-3.2656-4.9844-7.5938-7.4062-4.3125-2.4219-10.031-2.4219-9.4219 0-14.312 5.8594-4.875 5.8594-4.875 17.141z"/>
</defs>
<g transform="translate(426.11 587.3) scale(.1 -.1)">
<use xlink:href="#c"/>
<use x="61.523438" xlink:href="#ae"/>
<use x="124.902344" xlink:href="#r"/>
<use x="179.882812" xlink:href="#ah"/>
</g>
</g>
<g clip-path="url(#a)">
<g transform="translate(481.85 587.3) scale(.1 -.1)">
<use xlink:href="#f"/>
<use x="27.783203" xlink:href="#e"/>
</g>
</g>
<g clip-path="url(#a)">
<defs>
<path id="as" d="m9.0781 55.516q0 9.7656 5.8281 15.109 5.8438 5.3594 16.484 5.3594 10.156 0 15.5-5.6719 5.3594-5.6562 5.5-16.594-7.375-0.39062-11.484-3.2031-4.0938-2.8125-4.0938-7.5 0-2.2969 1.4219-4.2812 1.4219-1.9688 4.5938-4.0156l2.7812-1.8125q8.1094-5.1719 10.453-8.6406t2.3438-8.3438q0-8.4062-5.5-12.875t-15.797-4.4688q-3.125 0-6.4531 0.60938-3.3125 0.60938-6.875 1.7969v8q3.9062-1.4688 7.3125-2.1719 3.4219-0.70312 6.6094-0.70312 5.6562 0 8.5781 2.3125 2.9375 2.3281 2.9375 6.7656 0 3.0781-1.4375 5.125t-6.375 5.0781l-4.4844 2.6875q-4.6875 2.875-6.8125 6.1719t-2.125 7.75q0 6.1875 4.0781 10.391t11.438 5.625q-0.39062 5.0156-3.5938 7.75-3.1875 2.7344-8.7031 2.7344-6.3438 0-9.6719-3.3906-3.3125-3.3906-3.3125-9.7812v-55.328h-9.1406z"/>
</defs>
<g transform="translate(517.13 587.3) scale(.1 -.1)">
<use xlink:href="#o"/>
<use x="63.476562" xlink:href="#h"/>
<use x="104.558594" xlink:href="#c"/>
<use x="166.082031" xlink:href="#f"/>
<use x="193.865234" xlink:href="#as"/>
<use x="256.853516" xlink:href="#f"/>
<use x="284.636719" xlink:href="#q"/>
</g>
</g>
<g clip-path="url(#a)">
<defs>
<path id="ag" d="m9.0781 75.984h9.0312v-44.875l26.812 23.578h11.469l-29-25.578 30.234-29.109h-11.719l-27.797 26.703v-26.703h-9.0312z"/>
</defs>
<g transform="translate(557.77 587.3) scale(.1 -.1)">
<use xlink:href="#u"/>
<use x="63.476562" xlink:href="#c"/>
<use x="125" xlink:href="#ag"/>
<use x="182.863281" xlink:href="#ae"/>
<use x="246.242188" xlink:href="#e"/>
<use x="309.621094" xlink:href="#o"/>
<use x="373.097656" xlink:href="#c"/>
<use x="434.621094" xlink:href="#e"/>
</g>
</g>
<g clip-path="url(#a)">
<defs>
<path id="s" d="m18.312 70.219v-15.531h18.5v-6.9844h-18.5v-29.688q0-6.6875 1.8281-8.5938t7.4531-1.9062h9.2188v-7.5156h-9.2188q-10.406 0-14.359 3.875-3.9531 3.8906-3.9531 14.141v29.688h-6.5938v6.9844h6.5938v15.531z"/>
<path id="ar" d="m30.609 48.391q-7.2188 0-11.422-5.6406t-4.2031-15.453 4.1719-15.453q4.1875-5.6406 11.453-5.6406 7.1875 0 11.375 5.6562 4.2031 5.6719 4.2031 15.438 0 9.7188-4.2031 15.406-4.1875 5.6875-11.375 5.6875zm0 7.6094q11.719 0 18.406-7.625 6.7031-7.6094 6.7031-21.078 0-13.422-6.7031-21.078-6.6875-7.6406-18.406-7.6406-11.766 0-18.438 7.6406-6.6562 7.6562-6.6562 21.078 0 13.469 6.6562 21.078 6.6719 7.625 18.438 7.625zm4.6094 19.781h9.9062v-9.8594h-9.9062zm-19.094 0h9.9062v-9.8594h-9.9062z"/>
</defs>
<g transform="translate(617.57 587.3) scale(.1 -.1)">
<use xlink:href="#s"/>
<use x="39.208984" xlink:href="#ar"/>
<use x="100.390625" xlink:href="#s"/>
<use x="139.599609" xlink:href="#c"/>
<use x="201.123047" xlink:href="#e"/>
</g>
</g>
<g clip-path="url(#a)">
<g transform="translate(677.34 587.3) scale(.1 -.1)">
<use xlink:href="#am"/>
</g>
</g>
<g clip-path="url(#a)">
<g transform="translate(717.55 587.3) scale(.1 -.1)">
<use xlink:href="#ae"/>
<use x="63.378906" xlink:href="#e"/>
<use x="126.757812" xlink:href="#o"/>
</g>
</g>
<g clip-path="url(#a)">
<g transform="translate(768.12 587.3) scale(.1 -.1)">
<use xlink:href="#af"/>
<use x="52.099609" xlink:href="#f"/>
<use x="79.882812" xlink:href="#c"/>
</g>
</g>
<g clip-path="url(#a)">
<g transform="translate(807.51 587.3) scale(.1 -.1)">
<use xlink:href="#h"/>
<use x="41.082031" xlink:href="#c"/>
<use x="102.605469" xlink:href="#r"/>
<use x="157.585938" xlink:href="#ag"/>
<use x="215.496094" xlink:href="#s"/>
<use x="254.705078" xlink:href="#c"/>
</g>
</g>
<g clip-path="url(#a)">
<g transform="translate(861.54 587.3) scale(.1 -.1)">
<use xlink:href="#af"/>
<use x="52.099609" xlink:href="#f"/>
<use x="79.882812" xlink:href="#r"/>
<use x="134.863281" xlink:href="#ah"/>
</g>
</g>
<g clip-path="url(#a)">
<g transform="translate(908.46 587.3) scale(.1 -.1)">
<use xlink:href="#o"/>
<use x="63.476562" xlink:href="#c"/>
<use x="125" xlink:href="#l"/>
</g>
</g>
<g clip-path="url(#a)">
<g transform="translate(949.55 587.3) scale(.1 -.1)">
<use xlink:href="#ag"/>
<use x="57.910156" xlink:href="#j"/>
<use x="85.693359" xlink:href="#c"/>
<use x="147.216797" xlink:href="#f"/>
<use x="175" xlink:href="#e"/>
<use x="238.378906" xlink:href="#c"/>
<use x="299.902344" xlink:href="#e"/>
</g>
</g>
<g clip-path="url(#a)">
<defs>
<path id="at" d="m5.5156 54.688h42.672v-8.2031l-33.781-39.312h33.781v-7.1719h-43.891v8.2031l33.797 39.312h-32.578z"/>
</defs>
<g transform="translate(997.35 587.3) scale(.1 -.1)">
<use xlink:href="#w"/>
<use x="60.287109" xlink:href="#h"/>
<use x="101.400391" xlink:href="#f"/>
<use x="129.183594" xlink:href="#e"/>
<use x="192.5625" xlink:href="#at"/>
<use x="245.052734" xlink:href="#c"/>
<use x="306.576172" xlink:href="#e"/>
</g>
</g>
<g clip-path="url(#a)">
<g transform="translate(1040.1 587.3) scale(.1 -.1)">
<use xlink:href="#c"/>
<use x="61.523438" xlink:href="#e"/>
<use x="124.902344" xlink:href="#s"/>
<use x="164.111328" xlink:href="#q"/>
<use x="227.587891" xlink:href="#c"/>
<use x="289.111328" xlink:href="#q"/>
<use x="352.587891" xlink:href="#c"/>
<use x="414.111328" xlink:href="#e"/>
</g>
</g>
<g clip-path="url(#a)">
<defs>
<path id="g" d="m10.688 12.406h10.312v-12.406h-10.312z"/>
</defs>
<g transform="translate(1110.5 587.3) scale(.1 -.1)">
<use xlink:href="#g"/>
</g>
</g>
<g clip-path="url(#a)">
<defs>
<path id="d" d="m12.406 8.2969h16.109v55.625l-17.531-3.5156v8.9844l17.438 3.5156h9.8594v-64.609h16.109v-8.2969h-41.984z"/>
</defs>
<g transform="translate(615.76 31.551) scale(.1 -.1)">
<use xlink:href="#d"/>
<use x="63.623047" xlink:href="#g"/>
<use x="95.410156" xlink:href="#d"/>
</g>
</g>
<g clip-path="url(#a)">
<defs>
<path id="m" d="m19.188 8.2969h34.422v-8.2969h-46.281v8.2969q5.6094 5.8125 15.297 15.594 9.7031 9.7969 12.188 12.641 4.7344 5.3125 6.6094 9 1.8906 3.6875 1.8906 7.25 0 5.8125-4.0781 9.4688-4.0781 3.6719-10.625 3.6719-4.6406 0-9.7969-1.6094-5.1406-1.6094-11-4.8906v9.9688q5.9531 2.3906 11.125 3.6094 5.1875 1.2188 9.4844 1.2188 11.328 0 18.062-5.6719 6.7344-5.6562 6.7344-15.125 0-4.5-1.6875-8.5312-1.6719-4.0156-6.125-9.4844-1.2188-1.4219-7.7656-8.1875-6.5312-6.7656-18.453-18.922z"/>
</defs>
<g transform="translate(137.26 128.89) scale(.1 -.1)">
<use xlink:href="#d"/>
<use x="63.623047" xlink:href="#g"/>
<use x="95.410156" xlink:href="#m"/>
</g>
</g>
<g clip-path="url(#a)">
<defs>
<path id="p" d="m40.578 39.312q7.0781-1.5156 11.047-6.3125 3.9844-4.7812 3.9844-11.812 0-10.781-7.4219-16.703-7.4219-5.9062-21.094-5.9062-4.5781 0-9.4375 0.90625t-10.031 2.7188v9.5156q4.0938-2.3906 8.9688-3.6094 4.8906-1.2188 10.219-1.2188 9.2656 0 14.125 3.6562t4.8594 10.641q0 6.4531-4.5156 10.078-4.5156 3.6406-12.562 3.6406h-8.5v8.1094h8.8906q7.2656 0 11.125 2.9062t3.8594 8.375q0 5.6094-3.9844 8.6094-3.9688 3.0156-11.391 3.0156-4.0625 0-8.7031-0.89062-4.6406-0.875-10.203-2.7188v8.7812q5.625 1.5625 10.531 2.3438t9.25 0.78125q11.234 0 17.766-5.1094 6.5469-5.0938 6.5469-13.781 0-6.0625-3.4688-10.234t-9.8594-5.7812z"/>
</defs>
<g transform="translate(719.11 497.49) scale(.1 -.1)">
<use xlink:href="#d"/>
<use x="63.623047" xlink:href="#g"/>
<use x="95.410156" xlink:href="#p"/>
</g>
</g>
<g clip-path="url(#a)">
<defs>
<path id="ac" d="m37.797 64.312-24.906-38.922h24.906zm-2.5938 8.5938h12.406v-47.516h10.406v-8.2031h-10.406v-17.188h-9.8125v17.188h-32.906v9.5156z"/>
</defs>
<g transform="translate(935.7 316.63) scale(.1 -.1)">
<use xlink:href="#d"/>
<use x="63.623047" xlink:href="#g"/>
<use x="95.410156" xlink:href="#ac"/>
</g>
</g>
<g clip-path="url(#a)">
<defs>
<path id="ab" d="m8.2031 72.906h46.875v-4.2031l-26.469-68.703h-10.297l24.906 64.594h-35.016z"/>
</defs>
<g transform="translate(767.24 497.49) scale(.1 -.1)">
<use xlink:href="#d"/>
<use x="63.623047" xlink:href="#g"/>
<use x="95.410156" xlink:href="#ab"/>
</g>
</g>
<g clip-path="url(#a)">
<defs>
<path id="aa" d="m31.781 34.625q-7.0312 0-11.062-3.7656-4.0156-3.7656-4.0156-10.344 0-6.5938 4.0156-10.359 4.0312-3.7656 11.062-3.7656t11.078 3.7812q4.0625 3.7969 4.0625 10.344 0 6.5781-4.0312 10.344-4.0156 3.7656-11.109 3.7656zm-9.8594 4.1875q-6.3438 1.5625-9.8906 5.9062-3.5312 4.3594-3.5312 10.609 0 8.7344 6.2188 13.812 6.2344 5.0781 17.062 5.0781 10.891 0 17.094-5.0781t6.2031-13.812q0-6.25-3.5469-10.609-3.5312-4.3438-9.8281-5.9062 7.125-1.6562 11.094-6.5 3.9844-4.8281 3.9844-11.797 0-10.609-6.4688-16.281-6.4688-5.6562-18.531-5.6562-12.047 0-18.531 5.6562-6.4688 5.6719-6.4688 16.281 0 6.9688 4 11.797 4.0156 4.8438 11.141 6.5zm-3.6094 15.578q0-5.6562 3.5312-8.8281 3.5469-3.1719 9.9375-3.1719 6.3594 0 9.9375 3.1719 3.5938 3.1719 3.5938 8.8281 0 5.6719-3.5938 8.8438-3.5781 3.1719-9.9375 3.1719-6.3906 0-9.9375-3.1719-3.5312-3.1719-3.5312-8.8438z"/>
</defs>
<g transform="translate(911.63 497.49) scale(.1 -.1)">
<use xlink:href="#d"/>
<use x="63.623047" xlink:href="#g"/>
<use x="95.410156" xlink:href="#aa"/>
</g>
</g>
<g clip-path="url(#a)">
<defs>
<path id="z" d="m10.984 1.5156v8.9844q3.7188-1.7656 7.5156-2.6875 3.8125-0.92188 7.4844-0.92188 9.7656 0 14.906 6.5625 5.1562 6.5625 5.8906 19.953-2.8281-4.2031-7.1875-6.4531-4.3438-2.25-9.6094-2.25-10.938 0-17.312 6.6094-6.375 6.625-6.375 18.109 0 11.219 6.6406 18 6.6406 6.7969 17.672 6.7969 12.656 0 19.312-9.7031 6.6719-9.6875 6.6719-28.141 0-17.234-8.1875-27.516-8.1719-10.281-21.984-10.281-3.7188 0-7.5312 0.73438-3.7969 0.73438-7.9062 2.2031zm19.625 30.906q6.6406 0 10.516 4.5312 3.8906 4.5469 3.8906 12.469 0 7.8594-3.8906 12.422-3.875 4.5625-10.516 4.5625t-10.516-4.5625-3.875-12.422q0-7.9219 3.875-12.469 3.875-4.5312 10.516-4.5312z"/>
</defs>
<g transform="translate(959.76 407.69) scale(.1 -.1)">
<use xlink:href="#d"/>
<use x="63.623047" xlink:href="#g"/>
<use x="95.410156" xlink:href="#z"/>
</g>
</g>
<g clip-path="url(#a)">
<defs>
<path id="ad" d="m31.781 66.406q-7.6094 0-11.453-7.5-3.8281-7.4844-3.8281-22.531 0-14.984 3.8281-22.484 3.8438-7.5 11.453-7.5 7.6719 0 11.5 7.5 3.8438 7.5 3.8438 22.484 0 15.047-3.8438 22.531-3.8281 7.5-11.5 7.5zm0 7.8125q12.266 0 18.734-9.7031 6.4688-9.6875 6.4688-28.141 0-18.406-6.4688-28.109-6.4688-9.6875-18.734-9.6875-12.25 0-18.719 9.6875-6.4688 9.7031-6.4688 28.109 0 18.453 6.4688 28.141 6.4688 9.7031 18.719 9.7031z"/>
</defs>
<g transform="translate(908.45 497.49) scale(.1 -.1)">
<use xlink:href="#d"/>
<use x="63.623047" xlink:href="#g"/>
<use x="95.410156" xlink:href="#d"/>
<use x="159.033203" xlink:href="#ad"/>
</g>
</g>
<g clip-path="url(#a)">
<g transform="translate(956.58 497.49) scale(.1 -.1)">
<use xlink:href="#d"/>
<use x="63.623047" xlink:href="#g"/>
<use x="95.410156" xlink:href="#d"/>
<use x="159.033203" xlink:href="#d"/>
</g>
</g>
<g clip-path="url(#a)">
<g transform="translate(1004.7 497.49) scale(.1 -.1)">
<use xlink:href="#d"/>
<use x="63.623047" xlink:href="#g"/>
<use x="95.410156" xlink:href="#d"/>
<use x="159.033203" xlink:href="#m"/>
</g>
</g>
<g clip-path="url(#a)">
<g transform="translate(42.094 497.49) scale(.1 -.1)">
<use xlink:href="#d"/>
<use x="63.623047" xlink:href="#g"/>
<use x="95.410156" xlink:href="#d"/>
<use x="159.033203" xlink:href="#p"/>
</g>
</g>
<g clip-path="url(#a)">
<g transform="translate(90.225 497.49) scale(.1 -.1)">
<use xlink:href="#d"/>
<use x="63.623047" xlink:href="#g"/>
<use x="95.410156" xlink:href="#d"/>
<use x="159.033203" xlink:href="#ac"/>
</g>
</g>
<g clip-path="url(#a)">
<defs>
<path id="al" d="m10.797 72.906h38.719v-8.3125h-29.688v-17.859q2.1406 0.73438 4.2812 1.0938 2.1562 0.35938 4.3125 0.35938 12.203 0 19.328-6.6875 7.1406-6.6875 7.1406-18.109 0-11.766-7.3281-18.297-7.3281-6.5156-20.656-6.5156-4.5938 0-9.3594 0.78125-4.75 0.78125-9.8281 2.3438v9.9219q4.3906-2.3906 9.0781-3.5625t9.9062-1.1719q8.4531 0 13.375 4.4375 4.9375 4.4375 4.9375 12.062 0 7.6094-4.9375 12.047-4.9219 4.4531-13.375 4.4531-3.9531 0-7.8906-0.875-3.9219-0.875-8.0156-2.7344z"/>
</defs>
<g transform="translate(269.91 223.82) scale(.1 -.1)">
<use xlink:href="#d"/>
<use x="63.623047" xlink:href="#g"/>
<use x="95.410156" xlink:href="#d"/>
<use x="159.033203" xlink:href="#al"/>
</g>
</g>
<g clip-path="url(#a)">
<defs>
<path id="ak" d="m33.016 40.375q-6.6406 0-10.531-4.5469-3.875-4.5312-3.875-12.438 0-7.8594 3.875-12.438 3.8906-4.5625 10.531-4.5625t10.516 4.5625q3.875 4.5781 3.875 12.438 0 7.9062-3.875 12.438-3.875 4.5469-10.516 4.5469zm19.578 30.922v-8.9844q-3.7188 1.75-7.5 2.6719-3.7812 0.9375-7.5 0.9375-9.7656 0-14.922-6.5938-5.1406-6.5938-5.875-19.922 2.875 4.25 7.2188 6.5156 4.3594 2.2656 9.5781 2.2656 10.984 0 17.359-6.6719 6.375-6.6562 6.375-18.125 0-11.234-6.6406-18.031-6.6406-6.7812-17.672-6.7812-12.656 0-19.344 9.6875-6.6875 9.7031-6.6875 28.109 0 17.281 8.2031 27.562t22.016 10.281q3.7188 0 7.5-0.73438t7.8906-2.1875z"/>
</defs>
<g transform="translate(138.36 497.49) scale(.1 -.1)">
<use xlink:href="#d"/>
<use x="63.623047" xlink:href="#g"/>
<use x="95.410156" xlink:href="#d"/>
<use x="159.033203" xlink:href="#ak"/>
</g>
</g>
<g clip-path="url(#a)">
<g transform="translate(186.49 497.49) scale(.1 -.1)">
<use xlink:href="#d"/>
<use x="63.623047" xlink:href="#g"/>
<use x="95.410156" xlink:href="#d"/>
<use x="159.033203" xlink:href="#ab"/>
</g>
</g>
<g clip-path="url(#a)">
<g transform="translate(234.62 497.49) scale(.1 -.1)">
<use xlink:href="#d"/>
<use x="63.623047" xlink:href="#g"/>
<use x="95.410156" xlink:href="#d"/>
<use x="159.033203" xlink:href="#aa"/>
</g>
</g>
<g clip-path="url(#a)">
<g transform="translate(282.75 497.49) scale(.1 -.1)">
<use xlink:href="#d"/>
<use x="63.623047" xlink:href="#g"/>
<use x="95.410156" xlink:href="#d"/>
<use x="159.033203" xlink:href="#z"/>
</g>
</g>
<g clip-path="url(#a)">
<g transform="translate(446.39 316.63) scale(.1 -.1)">
<use xlink:href="#d"/>
<use x="63.623047" xlink:href="#g"/>
<use x="95.410156" xlink:href="#m"/>
<use x="159.033203" xlink:href="#ad"/>
</g>
</g>
<g clip-path="url(#a)">
<g transform="translate(379.01 497.49) scale(.1 -.1)">
<use xlink:href="#d"/>
<use x="63.623047" xlink:href="#g"/>
<use x="95.410156" xlink:href="#m"/>
<use x="159.033203" xlink:href="#m"/>
</g>
</g>
<g clip-path="url(#a)">
<g transform="translate(427.14 497.49) scale(.1 -.1)">
<use xlink:href="#d"/>
<use x="63.623047" xlink:href="#g"/>
<use x="95.410156" xlink:href="#m"/>
<use x="159.033203" xlink:href="#p"/>
</g>
</g>
<g clip-path="url(#a)">
<g transform="translate(523.4 407.69) scale(.1 -.1)">
<use xlink:href="#d"/>
<use x="63.623047" xlink:href="#g"/>
<use x="95.410156" xlink:href="#m"/>
<use x="159.033203" xlink:href="#ac"/>
</g>
</g>
<g clip-path="url(#a)">
<g transform="translate(619.66 497.49) scale(.1 -.1)">
<use xlink:href="#d"/>
<use x="63.623047" xlink:href="#g"/>
<use x="95.410156" xlink:href="#m"/>
<use x="159.033203" xlink:href="#al"/>
</g>
</g>
<g clip-path="url(#a)">
<g transform="translate(475.27 497.49) scale(.1 -.1)">
<use xlink:href="#d"/>
<use x="63.623047" xlink:href="#g"/>
<use x="95.410156" xlink:href="#m"/>
<use x="159.033203" xlink:href="#ak"/>
</g>
</g>
<g clip-path="url(#a)">
<g transform="translate(523.4 497.49) scale(.1 -.1)">
<use xlink:href="#d"/>
<use x="63.623047" xlink:href="#g"/>
<use x="95.410156" xlink:href="#m"/>
<use x="159.033203" xlink:href="#ab"/>
</g>
</g>
<g clip-path="url(#a)">
<g transform="translate(571.53 497.49) scale(.1 -.1)">
<use xlink:href="#d"/>
<use x="63.623047" xlink:href="#g"/>
<use x="95.410156" xlink:href="#m"/>
<use x="159.033203" xlink:href="#aa"/>
</g>
</g>
<g clip-path="url(#a)">
<g transform="translate(330.88 497.49) scale(.1 -.1)">
<use xlink:href="#d"/>
<use x="63.623047" xlink:href="#g"/>
<use x="95.410156" xlink:href="#m"/>
<use x="159.033203" xlink:href="#z"/>
</g>
</g>
<g clip-path="url(#a)">
<g transform="translate(667.8 497.49) scale(.1 -.1)">
<use xlink:href="#d"/>
<use x="63.623047" xlink:href="#g"/>
<use x="95.410156" xlink:href="#p"/>
<use x="159.033203" xlink:href="#ad"/>
</g>
</g>
<g clip-path="url(#a)">
<g transform="translate(1101 497.49) scale(.1 -.1)">
<use xlink:href="#d"/>
<use x="63.623047" xlink:href="#g"/>
<use x="95.410156" xlink:href="#p"/>
<use x="159.033203" xlink:href="#d"/>
</g>
</g>
<defs>
<clipPath id="a">
<rect width="1165.3" height="613.33"/>
</clipPath>
</defs>
</svg>
