<?xml version="1.0" encoding="UTF-8"?>
<!DOCTYPE svg  PUBLIC '-//W3C//DTD SVG 1.1//EN'  'http://www.w3.org/Graphics/SVG/1.1/DTD/svg11.dtd'>
<svg width="1925.3pt" height="1013.3pt" version="1.1" viewBox="0 0 1925.3 1013.3" xmlns="http://www.w3.org/2000/svg" xmlns:xlink="http://www.w3.org/1999/xlink">
<defs>
<style type="text/css">*{stroke-linecap:butt;stroke-linejoin:round;}</style>
</defs>
<path d="m0 1013.3h1925.3v-1013.3h-1925.3z" fill="#fff"/>
<g fill="none" stroke="#000">
<path d="m659.41 46.061-568.51 556.09" clip-path="url(#a)"/>
<path d="m659.41 46.061-461.54 185.89" clip-path="url(#a)"/>
<path d="m659.41 46.061-308.33 739.91" clip-path="url(#a)"/>
<path d="m659.41 46.061-135.71 185.89" clip-path="url(#a)"/>
<path d="m659.41 46.061 335.92 739.91" clip-path="url(#a)"/>
<path d="m659.41 46.061 865.32 185.89" clip-path="url(#a)"/>
<path d="m659.41 46.061 272.85 739.91" clip-path="url(#a)"/>
<path d="m90.894 602.15-3.379 183.82" clip-path="url(#a)"/>
<path d="m90.894 602.15 3.379 183.82" clip-path="url(#a)"/>
<path d="m197.87 231.95-94.59 554.03" clip-path="url(#a)"/>
<path d="m197.87 231.95-83.327 554.03" clip-path="url(#a)"/>
<path d="m197.87 231.95-46.283 185.42" clip-path="url(#a)"/>
<path d="m197.87 231.95 31.558 554.03" clip-path="url(#a)"/>
<path d="m197.87 231.95 73.232 370.2" clip-path="url(#a)"/>
<path d="m197.87 231.95 119.41 554.03" clip-path="url(#a)"/>
<path d="m351.07 785.97v181.3" clip-path="url(#a)"/>
<path d="m523.7 231.95-136.59 554.03" clip-path="url(#a)"/>
<path d="m523.7 231.95-98.29 554.03" clip-path="url(#a)"/>
<path d="m523.7 231.95 145 554.03" clip-path="url(#a)"/>
<path d="m523.7 231.95-14.943 554.03" clip-path="url(#a)"/>
<path d="m523.7 231.95 104.82 185.42" clip-path="url(#a)"/>
<path d="m995.33 785.97v181.3" clip-path="url(#a)"/>
<path d="m1524.7 231.95-464.08 554.03" clip-path="url(#a)"/>
<path d="m1524.7 231.95-270.16 185.42" clip-path="url(#a)"/>
<path d="m1524.7 231.95 56.285 554.03" clip-path="url(#a)"/>
<path d="m1524.7 231.95 139.63 554.03" clip-path="url(#a)"/>
<path d="m1524.7 231.95 225.23 554.03" clip-path="url(#a)"/>
<path d="m1524.7 231.95 313.09 554.03" clip-path="url(#a)"/>
<path d="m1060.7 785.97v181.3" clip-path="url(#a)"/>
<path d="m1254.6 417.36-126.34 368.61" clip-path="url(#a)"/>
<path d="m1254.6 417.36-56.504 368.61" clip-path="url(#a)"/>
<path d="m1254.6 417.36 15.581 368.61" clip-path="url(#a)"/>
<path d="m1254.6 417.36 167.26 184.79" clip-path="url(#a)"/>
<path d="m1581 785.97v181.3" clip-path="url(#a)"/>
<path d="m1128.2 785.97v181.3" clip-path="url(#a)"/>
<path d="m1198.1 785.97v181.3" clip-path="url(#a)"/>
<path d="m1270.2 785.97v181.3" clip-path="url(#a)"/>
<path d="m1421.8 602.15-77.341 183.82" clip-path="url(#a)"/>
<path d="m1421.8 602.15-0.75088 183.82" clip-path="url(#a)"/>
<path d="m1421.8 602.15 78.092 183.82" clip-path="url(#a)"/>
<path d="m1344.5 785.97v181.3" clip-path="url(#a)"/>
<path d="m1421.1 785.97v181.3" clip-path="url(#a)"/>
<path d="m1499.9 785.97v181.3" clip-path="url(#a)"/>
<path d="m387.12 785.97v181.3" clip-path="url(#a)"/>
<path d="m425.41 785.97v181.3" clip-path="url(#a)"/>
<path d="m668.7 785.97-202.74 181.3" clip-path="url(#a)"/>
<path d="m668.7 785.97 202.74 181.3" clip-path="url(#a)"/>
<path d="m508.76 785.97v181.3" clip-path="url(#a)"/>
<path d="m628.52 417.36-74.713 368.61" clip-path="url(#a)"/>
<path d="m628.52 417.36-27.407 368.61" clip-path="url(#a)"/>
<path d="m628.52 417.36 102.12 184.79" clip-path="url(#a)"/>
<path d="m553.81 785.97v181.3" clip-path="url(#a)"/>
<path d="m601.12 785.97v181.3" clip-path="url(#a)"/>
<path d="m730.64 602.15-79.969 183.82" clip-path="url(#a)"/>
<path d="m730.64 602.15-28.158 183.82" clip-path="url(#a)"/>
<path d="m730.64 602.15 25.905 183.82" clip-path="url(#a)"/>
<path d="m730.64 602.15 82.221 183.82" clip-path="url(#a)"/>
<path d="m650.68 785.97v181.3" clip-path="url(#a)"/>
<path d="m702.49 785.97v181.3" clip-path="url(#a)"/>
<path d="m756.55 785.97v181.3" clip-path="url(#a)"/>
<path d="m812.87 785.97v181.3" clip-path="url(#a)"/>
<path d="m103.28 785.97v181.3" clip-path="url(#a)"/>
<path d="m114.55 785.97v181.3" clip-path="url(#a)"/>
<path d="m151.59 417.36-23.528 368.61" clip-path="url(#a)"/>
<path d="m151.59 417.36-7.7591 368.61" clip-path="url(#a)"/>
<path d="m151.59 417.36 31.287 184.79" clip-path="url(#a)"/>
<path d="m229.43 785.97v181.3" clip-path="url(#a)"/>
<path d="m271.11 602.15-14.642 183.82" clip-path="url(#a)"/>
<path d="m271.11 602.15 14.642 183.82" clip-path="url(#a)"/>
<path d="m317.28 785.97v181.3" clip-path="url(#a)"/>
<path d="m256.46 785.97v181.3" clip-path="url(#a)"/>
<path d="m285.75 785.97v181.3" clip-path="url(#a)"/>
<path d="m128.06 785.97v181.3" clip-path="url(#a)"/>
<path d="m143.83 785.97v181.3" clip-path="url(#a)"/>
<path d="m182.88 602.15-21.025 183.82" clip-path="url(#a)"/>
<path d="m182.88 602.15-0.75088 183.82" clip-path="url(#a)"/>
<path d="m182.88 602.15 21.776 183.82" clip-path="url(#a)"/>
<path d="m161.85 785.97v181.3" clip-path="url(#a)"/>
<path d="m182.13 785.97v181.3" clip-path="url(#a)"/>
<path d="m204.65 785.97v181.3" clip-path="url(#a)"/>
<path d="m87.515 785.97v181.3" clip-path="url(#a)"/>
<path d="m94.273 785.97v181.3" clip-path="url(#a)"/>
<path d="m932.26 785.97v181.3" clip-path="url(#a)"/>
<path d="m1664.4 785.97v181.3" clip-path="url(#a)"/>
<path d="m1750 785.97v181.3" clip-path="url(#a)"/>
<path d="m1837.8 785.97v181.3" clip-path="url(#a)"/>
</g>
<path d="m377.39 330.69 4.3009-4.2069q1.7157-1.6782 0.037502-3.3939l-5.4139-5.5349q-1.6782-1.7157-3.3939-0.037502l-4.3009 4.2069q-1.7157 1.6782-0.037502 3.3939l5.4139 5.5349q1.6782 1.7157 3.3939 0.037502z" clip-path="url(#a)" fill="#fff" stroke="#fff"/>
<g clip-path="url(#a)">
<defs>
<path id="ad" d="m9.8125 72.906h9.8594v-29.891h35.844v29.891h9.8594v-72.906h-9.8594v34.719h-35.844v-34.719h-9.8594z"/>
</defs>
<g transform="translate(374.54 327.79) rotate(-44.367) scale(.08 -.08)">
<use xlink:href="#ad"/>
</g>
</g>
<path d="m428.19 145.94 5.5806-2.2476q2.2262-0.89662 1.3296-3.1228l-2.8925-7.1819q-0.89662-2.2262-3.1228-1.3296l-5.5806 2.2476q-2.2262 0.89662-1.3296 3.1228l2.8925 7.1819q0.89662 2.2262 3.1228 1.3296z" clip-path="url(#a)" fill="#fff" stroke="#fff"/>
<g clip-path="url(#a)">
<g transform="translate(426.68 142.17) rotate(-21.937) scale(.08 -.08)">
<use xlink:href="#ad"/>
</g>
</g>
<path d="m510.17 420.49 1.7146-4.1145q0.92318-2.2153-1.2922-3.1385l-7.1468-2.9782q-2.2153-0.92317-3.1385 1.2922l-1.7146 4.1145q-0.92318 2.2153 1.2922 3.1385l7.1468 2.9782q2.2153 0.92317 3.1385-1.2922z" clip-path="url(#a)" fill="#fff" stroke="#fff"/>
<g clip-path="url(#a)">
<defs>
<path id="an" d="m9.8125 72.906h9.8594v-64.609h35.5v-8.2969h-45.359z"/>
</defs>
<g transform="translate(506.42 418.92) rotate(-67.378) scale(.08 -.08)">
<use xlink:href="#an"/>
</g>
</g>
<path d="m594.85 145.13 3.5474-4.8591q1.4151-1.9384-0.52325-3.3535l-6.2533-4.5653q-1.9384-1.4151-3.3535 0.52325l-3.5474 4.8591q-1.4151 1.9384 0.52325 3.3535l6.2533 4.5653q1.9384 1.4151 3.3535-0.52325z" clip-path="url(#a)" fill="#fff" stroke="#fff"/>
<g clip-path="url(#a)">
<g transform="translate(591.56 142.73) rotate(-53.868) scale(.08 -.08)">
<use xlink:href="#ad"/>
</g>
</g>
<path d="m820.74 416.58 1.8427 4.0588q0.99214 2.1853 3.1775 1.1932l7.05-3.2007q2.1853-0.99214 1.1932-3.1775l-1.8427-4.0588q-0.99214-2.1853-3.1775-1.1932l-7.05 3.2007q-2.1853 0.99214-1.1932 3.1775z" clip-path="url(#a)" fill="#fff" stroke="#fff"/>
<g clip-path="url(#a)">
<g transform="translate(824.44 414.9) rotate(65.582) scale(.08 -.08)">
<use xlink:href="#an"/>
</g>
</g>
<path d="m1087.8 144.5 5.8821 1.2636q2.3465 0.50406 2.8505-1.8424l1.6261-7.5698q0.50406-2.3465-1.8424-2.8505l-5.8821-1.2636q-2.3465-0.50406-2.8505 1.8424l-1.6261 7.5698q-0.50406 2.3465 1.8424 2.8505z" clip-path="url(#a)" fill="#fff" stroke="#fff"/>
<g clip-path="url(#a)">
<g transform="translate(1088.7 140.53) rotate(12.124) scale(.08 -.08)">
<use xlink:href="#ad"/>
</g>
</g>
<path d="m788.94 415.44 2.0257 5.4934q0.83036 2.2518 3.0821 1.4214l7.2643-2.6788q2.2518-0.83036 1.4214-3.0821l-2.0257-5.4934q-0.83036-2.2518-3.0821-1.4214l-7.2643 2.6788q-2.2518 0.83036-1.4214 3.0821z" clip-path="url(#a)" fill="#fff" stroke="#fff"/>
<g clip-path="url(#a)">
<defs>
<path id="ac" d="m8.6875 72.906h9.9219v-44.297q0-11.719 4.2344-16.875 4.25-5.1406 13.781-5.1406 9.4688 0 13.719 5.1406 4.25 5.1562 4.25 16.875v44.297h9.9062v-45.516q0-14.25-7.0625-21.531-7.0469-7.2812-20.812-7.2812-13.828 0-20.891 7.2812-7.0469 7.2812-7.0469 21.531z"/>
</defs>
<g transform="translate(792.75 414.03) rotate(69.758) scale(.08 -.08)">
<use xlink:href="#ac"/>
</g>
</g>
<path d="m95.428 696.7 0.092904-5.0541q0.044108-2.3996-2.3555-2.4437l-7.7412-0.1423q-2.3996-0.044108-2.4437 2.3555l-0.092903 5.0541q-0.044109 2.3996 2.3555 2.4437l7.7412 0.1423q2.3996 0.044109 2.4437-2.3555z" clip-path="url(#a)" fill="#fff" stroke="#fff"/>
<g clip-path="url(#a)">
<defs>
<path id="y" d="m9.8125 72.906h46.094v-8.3125h-36.234v-21.578h34.719v-8.2969h-34.719v-26.422h37.109v-8.2969h-46.969z"/>
</defs>
<g transform="translate(91.365 696.63) rotate(-88.947) scale(.08 -.08)">
<use xlink:href="#y"/>
</g>
</g>
<path d="m86.262 691.38 0.10267 5.5853q0.044109 2.3996 2.4437 2.3555l7.7412-0.1423q2.3996-0.044109 2.3555-2.4437l-0.10267-5.5853q-0.044109-2.3996-2.4437-2.3555l-7.7412 0.1423q-2.3996 0.044108-2.3555 2.4437z" clip-path="url(#a)" fill="#fff" stroke="#fff"/>
<g clip-path="url(#a)">
<defs>
<path id="t" d="m64.406 67.281v-10.391q-4.9844 4.6406-10.625 6.9219-5.6406 2.2969-11.984 2.2969-12.5 0-19.141-7.6406t-6.6406-22.094q0-14.406 6.6406-22.047t19.141-7.6406q6.3438 0 11.984 2.2969t10.625 6.9375v-10.312q-5.1719-3.5156-10.969-5.2812-5.7812-1.75-12.219-1.75-16.562 0-26.094 10.125-9.5156 10.141-9.5156 27.672 0 17.578 9.5156 27.703 9.5312 10.141 26.094 10.141 6.5312 0 12.312-1.7344 5.7969-1.7344 10.875-5.2031z"/>
</defs>
<g transform="translate(90.325 691.31) rotate(88.947) scale(.08 -.08)">
<use xlink:href="#t"/>
</g>
</g>
<path d="m156.24 513.05 1.0367-6.0721q0.40391-2.3658-1.9619-2.7697l-7.6321-1.303q-2.3658-0.40391-2.7697 1.9619l-1.0367 6.0721q-0.40391 2.3658 1.9619 2.7697l7.6321 1.303q2.3658 0.40391 2.7697-1.9619z" clip-path="url(#a)" fill="#fff" stroke="#fff"/>
<g clip-path="url(#a)">
<defs>
<path id="aj" d="m19.672 64.797v-56.688h11.922q15.094 0 22.094 6.8281 7 6.8438 7 21.594 0 14.641-7 21.453t-22.094 6.8125zm-9.8594 8.1094h20.266q21.188 0 31.094-8.8125 9.9219-8.8125 9.9219-27.562 0-18.859-9.9688-27.703-9.9531-8.8281-31.047-8.8281h-20.266z"/>
</defs>
<g transform="translate(152.24 512.37) rotate(-80.311) scale(.08 -.08)">
<use xlink:href="#aj"/>
</g>
</g>
<path d="m162.07 512.17 0.68434-4.5501q0.35695-2.3733-2.0164-2.7303l-7.6564-1.1515q-2.3733-0.35695-2.7303 2.0164l-0.68434 4.5501q-0.35695 2.3733 2.0164 2.7303l7.6564 1.1515q2.3733 0.35695 2.7303-2.0164z" clip-path="url(#a)" fill="#fff" stroke="#fff"/>
<g clip-path="url(#a)">
<defs>
<path id="x" d="m9.8125 72.906h41.891v-8.3125h-32.031v-21.484h28.906v-8.2969h-28.906v-34.812h-9.8594z"/>
</defs>
<g transform="translate(158.05 511.56) rotate(-81.447) scale(.08 -.08)">
<use xlink:href="#x"/>
</g>
</g>
<path d="m180.15 328.83 1.3254-5.3096q0.58125-2.3286-1.7473-2.9098l-7.512-1.8751q-2.3286-0.58125-2.9098 1.7473l-1.3254 5.3096q-0.58125 2.3286 1.7473 2.9098l7.512 1.8751q2.3286 0.58125 2.9098-1.7473z" clip-path="url(#a)" fill="#fff" stroke="#fff"/>
<g clip-path="url(#a)">
<defs>
<path id="u" d="m34.188 63.188-13.391-36.281h26.812zm-5.5781 9.7188h11.188l27.781-72.906h-10.25l-6.6406 18.703h-32.859l-6.6406-18.703h-10.406z"/>
</defs>
<g transform="translate(176.21 327.84) rotate(-75.984) scale(.08 -.08)">
<use xlink:href="#u"/>
</g>
</g>
<path d="m207.22 506.24 0.35031 6.15q0.13648 2.3961 2.5326 2.2596l7.73-0.44031q2.3961-0.13648 2.2596-2.5326l-0.35031-6.15q-0.13648-2.3961-2.5326-2.2596l-7.73 0.44031q-2.3961 0.13648-2.2596 2.5326z" clip-path="url(#a)" fill="#fff" stroke="#fff"/>
<g clip-path="url(#a)">
<g transform="translate(211.27 506.01) rotate(86.74) scale(.08 -.08)">
<use xlink:href="#aj"/>
</g>
</g>
<path d="m227.86 415.87 0.9482 4.7934q0.46573 2.3544 2.8201 1.8886l7.5953-1.5025q2.3544-0.46573 1.8886-2.8201l-0.9482-4.7934q-0.46573-2.3544-2.8201-1.8886l-7.5953 1.5025q-2.3544 0.46573-1.8886 2.8201z" clip-path="url(#a)" fill="#fff" stroke="#fff"/>
<g clip-path="url(#a)">
<defs>
<path id="l" d="m-0.29688 72.906h61.672v-8.3125h-25.875v-64.594h-9.9062v64.594h-25.891z"/>
</defs>
<g transform="translate(231.85 415.08) rotate(78.81) scale(.08 -.08)">
<use xlink:href="#l"/>
</g>
</g>
<path d="m250.91 507.8 1.0701 4.9647q0.50567 2.3461 2.8518 1.8405l7.5687-1.6313q2.3461-0.50567 1.8405-2.8518l-1.0701-4.9647q-0.50567-2.3461-2.8518-1.8405l-7.5687 1.6313q-2.3461 0.50567-1.8405 2.8518z" clip-path="url(#a)" fill="#fff" stroke="#fff"/>
<g clip-path="url(#a)">
<defs>
<path id="as" d="m53.516 70.516v-9.625q-5.6094 2.6875-10.594 4-4.9844 1.3281-9.625 1.3281-8.0469 0-12.422-3.125t-4.375-8.8906q0-4.8438 2.9062-7.3125 2.9062-2.4531 11.016-3.9688l5.9531-1.2188q11.031-2.1094 16.281-7.4062t5.25-14.172q0-10.609-7.1094-16.078-7.0938-5.4688-20.812-5.4688-5.1719 0-11.016 1.1719-5.8281 1.1719-12.078 3.4688v10.156q6-3.3594 11.766-5.0781 5.7656-1.7031 11.328-1.7031 8.4375 0 13.031 3.3125 4.5938 3.3281 4.5938 9.4844 0 5.3594-3.2969 8.3906t-10.812 4.5469l-6.0156 1.1719q-11.031 2.1875-15.969 6.875-4.9219 4.6875-4.9219 13.047 0 9.6719 6.8125 15.234t18.766 5.5625q5.1406 0 10.453-0.9375 5.3281-0.92188 10.891-2.7656z"/>
</defs>
<g transform="translate(254.89 506.94) rotate(77.837) scale(.08 -.08)">
<use xlink:href="#as"/>
</g>
</g>
<path d="m344.8 859.72v33.808q0 2.4 2.4 2.4h7.7425q2.4 0 2.4-2.4v-33.808q0-2.4-2.4-2.4h-7.7425q-2.4 0-2.4 2.4z" clip-path="url(#a)" fill="#fff" stroke="#fff"/>
<g clip-path="url(#a)">
<defs>
<path id="c" d="m56.203 29.594v-4.3906h-41.312q0.59375-9.2812 5.5938-14.141t13.938-4.8594q5.1719 0 10.031 1.2656t9.6562 3.8125v-8.5q-4.8438-2.0469-9.9219-3.125t-10.297-1.0781q-13.094 0-20.734 7.6094-7.6406 7.625-7.6406 20.625 0 13.422 7.25 21.297 7.25 7.8906 19.562 7.8906 11.031 0 17.453-7.1094 6.4219-7.0938 6.4219-19.297zm-8.9844 2.6406q-0.09375 7.3594-4.125 11.75-4.0312 4.4062-10.672 4.4062-7.5156 0-12.031-4.25t-5.2031-11.969z"/>
<path id="h" d="m41.109 46.297q-1.5156 0.875-3.2969 1.2812-1.7812 0.42188-3.9219 0.42188-7.625 0-11.703-4.9531t-4.0781-14.234v-28.812h-9.0312v54.688h9.0312v-8.5q2.8438 4.9844 7.375 7.3906 4.5469 2.4219 11.047 2.4219 0.92188 0 2.0469-0.125 1.125-0.10938 2.4844-0.35938z"/>
<path id="k" d="m52 44.188q3.375 6.0625 8.0625 8.9375t11.031 2.875q8.5469 0 13.188-5.9844 4.6406-5.9688 4.6406-17v-33.016h-9.0312v32.719q0 7.8594-2.7969 11.656-2.7812 3.8125-8.4844 3.8125-6.9844 0-11.047-4.6406-4.0469-4.625-4.0469-12.641v-30.906h-9.0312v32.719q0 7.9062-2.7812 11.688t-8.5938 3.7812q-6.8906 0-10.953-4.6562-4.0469-4.6562-4.0469-12.625v-30.906h-9.0312v54.688h9.0312v-8.5q3.0781 5.0312 7.375 7.4219t10.203 2.3906q5.9688 0 10.141-3.0312 4.1719-3.0156 6.1719-8.7812z"/>
<path id="i" d="m9.4219 54.688h8.9844v-54.688h-8.9844zm0 21.297h8.9844v-11.391h-8.9844z"/>
<path id="e" d="m54.891 33.016v-33.016h-8.9844v32.719q0 7.7656-3.0312 11.609-3.0312 3.8594-9.0781 3.8594-7.2812 0-11.484-4.6406-4.2031-4.625-4.2031-12.641v-30.906h-9.0312v54.688h9.0312v-8.5q3.2344 4.9375 7.5938 7.375 4.375 2.4375 10.094 2.4375 9.4219 0 14.25-5.8281 4.8438-5.8281 4.8438-17.156z"/>
<path id="f" d="m34.281 27.484q-10.891 0-15.094-2.4844t-4.2031-8.5q0-4.7812 3.1562-7.5938 3.1562-2.7969 8.5625-2.7969 7.4844 0 12 5.2969t4.5156 14.078v2zm17.922 3.7188v-31.203h-8.9844v8.2969q-3.0781-4.9688-7.6719-7.3438t-11.234-2.375q-8.3906 0-13.359 4.7188-4.9531 4.7188-4.9531 12.625 0 9.2188 6.1719 13.906 6.1875 4.6875 18.438 4.6875h12.609v0.89062q0 6.2031-4.0781 9.5938t-11.453 3.3906q-4.6875 0-9.1406-1.125-4.4375-1.125-8.5312-3.375v8.3125q4.9219 1.9062 9.5625 2.8438 4.6406 0.95312 9.0312 0.95312 11.875 0 17.734-6.1562 5.8594-6.1406 5.8594-18.641z"/>
<path id="j" d="m9.4219 75.984h8.9844v-75.984h-8.9844z"/>
</defs>
<g transform="translate(348.87 859.72) rotate(90) scale(.08 -.08)">
<use xlink:href="#l"/>
<use x="44.083984" xlink:href="#c"/>
<use x="105.607422" xlink:href="#h"/>
<use x="144.970703" xlink:href="#k"/>
<use x="242.382812" xlink:href="#i"/>
<use x="270.166016" xlink:href="#e"/>
<use x="333.544922" xlink:href="#f"/>
<use x="394.824219" xlink:href="#j"/>
</g>
</g>
<path d="m460.84 513.12 1.3099-5.3134q0.57448-2.3302-1.7558-2.9047l-7.5174-1.8533q-2.3302-0.57448-2.9047 1.7558l-1.3099 5.3134q-0.57448 2.3302 1.7558 2.9047l7.5174 1.8533q2.3302 0.57448 2.9047-1.7558z" clip-path="url(#a)" fill="#fff" stroke="#fff"/>
<g clip-path="url(#a)">
<g transform="translate(456.9 512.14) rotate(-76.151) scale(.08 -.08)">
<use xlink:href="#u"/>
</g>
</g>
<path d="m480.33 512.32 0.80376-4.5305q0.41924-2.3631-1.9439-2.7823l-7.6235-1.3525q-2.3631-0.41924-2.7823 1.9439l-0.80376 4.5305q-0.41924 2.3631 1.9439 2.7823l7.6235 1.3525q2.3631 0.41924 2.7823-1.9439z" clip-path="url(#a)" fill="#fff" stroke="#fff"/>
<g clip-path="url(#a)">
<g transform="translate(476.33 511.61) rotate(-79.94) scale(.08 -.08)">
<use xlink:href="#x"/>
</g>
</g>
<path d="m589.52 508.21 1.2213 4.6666q0.60764 2.3218 2.9294 1.7142l7.4902-1.9603q2.3218-0.60764 1.7142-2.9294l-1.2213-4.6666q-0.60764-2.3218-2.9294-1.7142l-7.4902 1.9603q-2.3218 0.60764-1.7142 2.9294z" clip-path="url(#a)" fill="#fff" stroke="#fff"/>
<g clip-path="url(#a)">
<defs>
<path id="z" d="m19.672 64.797v-27.391h12.406q6.8906 0 10.641 3.5625 3.7656 3.5625 3.7656 10.156 0 6.5469-3.7656 10.109-3.75 3.5625-10.641 3.5625zm-9.8594 8.1094h22.266q12.266 0 18.531-5.5469 6.2812-5.5469 6.2812-16.234 0-10.797-6.2812-16.312-6.2656-5.5156-18.531-5.5156h-12.406v-29.297h-9.8594z"/>
</defs>
<g transform="translate(593.45 507.18) rotate(75.334) scale(.08 -.08)">
<use xlink:href="#z"/>
</g>
</g>
<path d="m522.42 512.21 0.16608-6.1578q0.064707-2.3991-2.3344-2.4638l-7.7397-0.20874q-2.3991-0.064707-2.4638 2.3344l-0.16608 6.1578q-0.064706 2.3991 2.3344 2.4638l7.7397 0.20874q2.3991 0.064707 2.4638-2.3344z" clip-path="url(#a)" fill="#fff" stroke="#fff"/>
<g clip-path="url(#a)">
<g transform="translate(518.35 512.1) rotate(-88.455) scale(.08 -.08)">
<use xlink:href="#aj"/>
</g>
</g>
<path d="m569.31 325.36 2.6932 4.7639q1.1811 2.0892 3.2704 0.90811l6.74-3.8104q2.0892-1.1811 0.90811-3.2704l-2.6932-4.7639q-1.1811-2.0892-3.2704-0.90811l-6.74 3.8104q-2.0892 1.1811-0.90811 3.2704z" clip-path="url(#a)" fill="#fff" stroke="#fff"/>
<g clip-path="url(#a)">
<g transform="translate(572.84 323.36) rotate(60.519) scale(.08 -.08)">
<use xlink:href="#u"/>
</g>
</g>
<path d="m989.06 859.72v33.808q0 2.4 2.4 2.4h7.7425q2.4 0 2.4-2.4v-33.808q0-2.4-2.4-2.4h-7.7425q-2.4 0-2.4 2.4z" clip-path="url(#a)" fill="#fff" stroke="#fff"/>
<g clip-path="url(#a)">
<g transform="translate(993.12 859.72) rotate(90) scale(.08 -.08)">
<use xlink:href="#l"/>
<use x="44.083984" xlink:href="#c"/>
<use x="105.607422" xlink:href="#h"/>
<use x="144.970703" xlink:href="#k"/>
<use x="242.382812" xlink:href="#i"/>
<use x="270.166016" xlink:href="#e"/>
<use x="333.544922" xlink:href="#f"/>
<use x="394.824219" xlink:href="#j"/>
</g>
</g>
<path d="m1295.7 515.08 3.5141-4.1952q1.5411-1.8398-0.29871-3.3809l-5.9354-4.9717q-1.8398-1.5411-3.3809 0.29871l-3.5141 4.1952q-1.5411 1.8398 0.29871 3.3809l5.9354 4.9717q1.8398 1.5411 3.3809-0.29871z" clip-path="url(#a)" fill="#fff" stroke="#fff"/>
<g clip-path="url(#a)">
<g transform="translate(1292.6 512.47) rotate(-50.049) scale(.08 -.08)">
<use xlink:href="#u"/>
</g>
</g>
<path d="m1390.9 331.37 4.5121-3.0967q1.9788-1.3581 0.62071-3.3369l-4.3812-6.3837q-1.3581-1.9788-3.3369-0.62071l-4.5121 3.0967q-1.9788 1.3581-0.62071 3.3369l4.3812 6.3837q1.3581 1.9788 3.3369 0.62071z" clip-path="url(#a)" fill="#fff" stroke="#fff"/>
<g clip-path="url(#a)">
<g transform="translate(1388.6 328.02) rotate(-34.462) scale(.08 -.08)">
<use xlink:href="#u"/>
</g>
</g>
<path d="m1546.4 507.19 0.48755 4.799q0.24257 2.3877 2.6303 2.1451l7.7029-0.78255q2.3877-0.24257 2.1451-2.6303l-0.48755-4.799q-0.24257-2.3877-2.6303-2.1451l-7.7029 0.78255q-2.3877 0.24257-2.1451 2.6303z" clip-path="url(#a)" fill="#fff" stroke="#fff"/>
<g clip-path="url(#a)">
<g transform="translate(1550.4 506.78) rotate(84.199) scale(.08 -.08)">
<use xlink:href="#z"/>
</g>
</g>
<path d="m1587.8 507.65 1.4309 5.6775q0.58654 2.3272 2.9138 1.7407l7.5077-1.8922q2.3272-0.58654 1.7407-2.9138l-1.4309-5.6775q-0.58654-2.3272-2.9138-1.7407l-7.5077 1.8922q-2.3272 0.58654-1.7407 2.9138z" clip-path="url(#a)" fill="#fff" stroke="#fff"/>
<g clip-path="url(#a)">
<g transform="translate(1591.7 506.66) rotate(75.854) scale(.08 -.08)">
<use xlink:href="#ac"/>
</g>
</g>
<path d="m1630.4 508.61 2.205 5.4239q0.90386 2.2233 3.1272 1.3194l7.1724-2.9159q2.2233-0.90386 1.3194-3.1272l-2.205-5.4239q-0.90386-2.2233-3.1272-1.3194l-7.1724 2.9159q-2.2233 0.90386-1.3194 3.1272z" clip-path="url(#a)" fill="#fff" stroke="#fff"/>
<g clip-path="url(#a)">
<g transform="translate(1634.2 507.08) rotate(67.876) scale(.08 -.08)">
<use xlink:href="#ac"/>
</g>
</g>
<path d="m1674.4 509.5 2.8806 5.0974q1.1808 2.0894 3.2702 0.90868l6.7406-3.8092q2.0894-1.1808 0.90868-3.2702l-2.8806-5.0974q-1.1808-2.0894-3.2702-0.90868l-6.7406 3.8092q-2.0894 1.1808-0.90868 3.2702z" clip-path="url(#a)" fill="#fff" stroke="#fff"/>
<g clip-path="url(#a)">
<g transform="translate(1677.9 507.5) rotate(60.529) scale(.08 -.08)">
<use xlink:href="#ac"/>
</g>
</g>
<path d="m1054.4 859.72v33.808q0 2.4 2.4 2.4h7.7425q2.4 0 2.4-2.4v-33.808q0-2.4-2.4-2.4h-7.7425q-2.4 0-2.4 2.4z" clip-path="url(#a)" fill="#fff" stroke="#fff"/>
<g clip-path="url(#a)">
<g transform="translate(1058.4 859.72) rotate(90) scale(.08 -.08)">
<use xlink:href="#l"/>
<use x="44.083984" xlink:href="#c"/>
<use x="105.607422" xlink:href="#h"/>
<use x="144.970703" xlink:href="#k"/>
<use x="242.382812" xlink:href="#i"/>
<use x="270.166016" xlink:href="#e"/>
<use x="333.544922" xlink:href="#f"/>
<use x="394.824219" xlink:href="#j"/>
</g>
</g>
<path d="m1196.6 605.88 1.4918-4.3527q0.77813-2.2704-1.4922-3.0485l-7.3243-2.5103q-2.2704-0.77813-3.0485 1.4922l-1.4918 4.3527q-0.77813 2.2704 1.4922 3.0485l7.3243 2.5103q2.2704 0.77813 3.0485-1.4922z" clip-path="url(#a)" fill="#fff" stroke="#fff"/>
<g clip-path="url(#a)">
<g transform="translate(1192.7 604.56) rotate(-71.082) scale(.08 -.08)">
<use xlink:href="#x"/>
</g>
</g>
<path d="m1232.1 605.12 0.76593-4.9966q0.36364-2.3723-2.0086-2.7359l-7.6531-1.1731q-2.3723-0.36364-2.7359 2.0086l-0.76593 4.9966q-0.36365 2.3723 2.0086 2.7359l7.6531 1.1731q2.3723 0.36365 2.7359-2.0086z" clip-path="url(#a)" fill="#fff" stroke="#fff"/>
<g clip-path="url(#a)">
<g transform="translate(1228.1 604.5) rotate(-81.285) scale(.08 -.08)">
<use xlink:href="#y"/>
</g>
</g>
<path d="m1256 599.14 0.23591 5.5813q0.10136 2.3979 2.4992 2.2965l7.7356-0.32698q2.3979-0.10136 2.2965-2.4992l-0.23592-5.5813q-0.10136-2.3979-2.4992-2.2965l-7.7356 0.32698q-2.3979 0.10136-2.2965 2.4992z" clip-path="url(#a)" fill="#fff" stroke="#fff"/>
<g clip-path="url(#a)">
<g transform="translate(1260 598.97) rotate(87.58) scale(.08 -.08)">
<use xlink:href="#t"/>
</g>
</g>
<path d="m1331.9 512.09 3.3923 3.7478q1.6106 1.7793 3.3899 0.16878l5.7403-5.1957q1.7793-1.6106 0.16878-3.3899l-3.3923-3.7478q-1.6106-1.7793-3.3899-0.16878l-5.7403 5.1957q-1.7793 1.6106-0.16878 3.3899z" clip-path="url(#a)" fill="#fff" stroke="#fff"/>
<g clip-path="url(#a)">
<g transform="translate(1334.9 509.36) rotate(47.85) scale(.08 -.08)">
<use xlink:href="#y"/>
</g>
</g>
<path d="m1574.7 859.72v33.808q0 2.4 2.4 2.4h7.7425q2.4 0 2.4-2.4v-33.808q0-2.4-2.4-2.4h-7.7425q-2.4 0-2.4 2.4z" clip-path="url(#a)" fill="#fff" stroke="#fff"/>
<g clip-path="url(#a)">
<g transform="translate(1578.8 859.72) rotate(90) scale(.08 -.08)">
<use xlink:href="#l"/>
<use x="44.083984" xlink:href="#c"/>
<use x="105.607422" xlink:href="#h"/>
<use x="144.970703" xlink:href="#k"/>
<use x="242.382812" xlink:href="#i"/>
<use x="270.166016" xlink:href="#e"/>
<use x="333.544922" xlink:href="#f"/>
<use x="394.824219" xlink:href="#j"/>
</g>
</g>
<path d="m1122 859.72v33.808q0 2.4 2.4 2.4h7.7425q2.4 0 2.4-2.4v-33.808q0-2.4-2.4-2.4h-7.7425q-2.4 0-2.4 2.4z" clip-path="url(#a)" fill="#fff" stroke="#fff"/>
<g clip-path="url(#a)">
<g transform="translate(1126 859.72) rotate(90) scale(.08 -.08)">
<use xlink:href="#l"/>
<use x="44.083984" xlink:href="#c"/>
<use x="105.607422" xlink:href="#h"/>
<use x="144.970703" xlink:href="#k"/>
<use x="242.382812" xlink:href="#i"/>
<use x="270.166016" xlink:href="#e"/>
<use x="333.544922" xlink:href="#f"/>
<use x="394.824219" xlink:href="#j"/>
</g>
</g>
<path d="m1191.8 859.72v33.808q0 2.4 2.4 2.4h7.7425q2.4 0 2.4-2.4v-33.808q0-2.4-2.4-2.4h-7.7425q-2.4 0-2.4 2.4z" clip-path="url(#a)" fill="#fff" stroke="#fff"/>
<g clip-path="url(#a)">
<g transform="translate(1195.9 859.72) rotate(90) scale(.08 -.08)">
<use xlink:href="#l"/>
<use x="44.083984" xlink:href="#c"/>
<use x="105.607422" xlink:href="#h"/>
<use x="144.970703" xlink:href="#k"/>
<use x="242.382812" xlink:href="#i"/>
<use x="270.166016" xlink:href="#e"/>
<use x="333.544922" xlink:href="#f"/>
<use x="394.824219" xlink:href="#j"/>
</g>
</g>
<path d="m1263.9 859.72v33.808q0 2.4 2.4 2.4h7.7425q2.4 0 2.4-2.4v-33.808q0-2.4-2.4-2.4h-7.7425q-2.4 0-2.4 2.4z" clip-path="url(#a)" fill="#fff" stroke="#fff"/>
<g clip-path="url(#a)">
<g transform="translate(1267.9 859.72) rotate(90) scale(.08 -.08)">
<use xlink:href="#l"/>
<use x="44.083984" xlink:href="#c"/>
<use x="105.607422" xlink:href="#h"/>
<use x="144.970703" xlink:href="#k"/>
<use x="242.382812" xlink:href="#i"/>
<use x="270.166016" xlink:href="#e"/>
<use x="333.544922" xlink:href="#f"/>
<use x="394.824219" xlink:href="#j"/>
</g>
</g>
<path d="m1387.9 699.05 2.1557-5.1237q0.93074-2.2122-1.2814-3.1429l-7.1366-3.0026q-2.2122-0.93074-3.1429 1.2814l-2.1557 5.1237q-0.93074 2.2122 1.2814 3.1429l7.1366 3.0026q2.2122 0.93074 3.1429-1.2814z" clip-path="url(#a)" fill="#fff" stroke="#fff"/>
<g clip-path="url(#a)">
<defs>
<path id="ai" d="m44.391 34.188q3.1719-1.0781 6.1719-4.5938t6.0312-9.6719l10.016-19.922h-10.609l-9.3125 18.703q-3.625 7.3281-7.0156 9.7188t-9.25 2.3906h-10.75v-30.812h-9.8594v72.906h22.266q12.5 0 18.656-5.2344 6.1562-5.2188 6.1562-15.766 0-6.8906-3.2031-11.438-3.2031-4.5312-9.2969-6.2812zm-24.719 30.609v-25.875h12.406q7.125 0 10.766 3.2969t3.6406 9.6875-3.6406 9.6406-10.766 3.25z"/>
</defs>
<g transform="translate(1384.1 697.48) rotate(-67.182) scale(.08 -.08)">
<use xlink:href="#ai"/>
</g>
</g>
<path d="m1427.7 696.61 0.020648-5.055q0.009804-2.4-2.3902-2.4098l-7.7424-0.031626q-2.4-0.009804-2.4098 2.3902l-0.020648 5.055q-0.009804 2.4 2.3902 2.4098l7.7424 0.031626q2.4 0.009803 2.4098-2.3902z" clip-path="url(#a)" fill="#fff" stroke="#fff"/>
<g clip-path="url(#a)">
<g transform="translate(1423.7 696.6) rotate(-89.766) scale(.08 -.08)">
<use xlink:href="#y"/>
</g>
</g>
<path d="m1454 693.94 2.1842 5.1415q0.9384 2.2089 3.1473 1.2705l7.1261-3.0273q2.2089-0.9384 1.2705-3.1473l-2.1842-5.1415q-0.9384-2.2089-3.1473-1.2705l-7.1261 3.0273q-2.2089 0.9384-1.2705 3.1473z" clip-path="url(#a)" fill="#fff" stroke="#fff"/>
<g clip-path="url(#a)">
<g transform="translate(1457.8 692.35) rotate(66.983) scale(.08 -.08)">
<use xlink:href="#t"/>
</g>
</g>
<path d="m1338.2 859.72v33.808q0 2.4 2.4 2.4h7.7425q2.4 0 2.4-2.4v-33.808q0-2.4-2.4-2.4h-7.7425q-2.4 0-2.4 2.4z" clip-path="url(#a)" fill="#fff" stroke="#fff"/>
<g clip-path="url(#a)">
<g transform="translate(1342.3 859.72) rotate(90) scale(.08 -.08)">
<use xlink:href="#l"/>
<use x="44.083984" xlink:href="#c"/>
<use x="105.607422" xlink:href="#h"/>
<use x="144.970703" xlink:href="#k"/>
<use x="242.382812" xlink:href="#i"/>
<use x="270.166016" xlink:href="#e"/>
<use x="333.544922" xlink:href="#f"/>
<use x="394.824219" xlink:href="#j"/>
</g>
</g>
<path d="m1414.8 859.72v33.808q0 2.4 2.4 2.4h7.7425q2.4 0 2.4-2.4v-33.808q0-2.4-2.4-2.4h-7.7425q-2.4 0-2.4 2.4z" clip-path="url(#a)" fill="#fff" stroke="#fff"/>
<g clip-path="url(#a)">
<g transform="translate(1418.9 859.72) rotate(90) scale(.08 -.08)">
<use xlink:href="#l"/>
<use x="44.083984" xlink:href="#c"/>
<use x="105.607422" xlink:href="#h"/>
<use x="144.970703" xlink:href="#k"/>
<use x="242.382812" xlink:href="#i"/>
<use x="270.166016" xlink:href="#e"/>
<use x="333.544922" xlink:href="#f"/>
<use x="394.824219" xlink:href="#j"/>
</g>
</g>
<path d="m1493.7 859.72v33.808q0 2.4 2.4 2.4h7.7425q2.4 0 2.4-2.4v-33.808q0-2.4-2.4-2.4h-7.7425q-2.4 0-2.4 2.4z" clip-path="url(#a)" fill="#fff" stroke="#fff"/>
<g clip-path="url(#a)">
<g transform="translate(1497.7 859.72) rotate(90) scale(.08 -.08)">
<use xlink:href="#l"/>
<use x="44.083984" xlink:href="#c"/>
<use x="105.607422" xlink:href="#h"/>
<use x="144.970703" xlink:href="#k"/>
<use x="242.382812" xlink:href="#i"/>
<use x="270.166016" xlink:href="#e"/>
<use x="333.544922" xlink:href="#f"/>
<use x="394.824219" xlink:href="#j"/>
</g>
</g>
<path d="m380.85 859.72v33.808q0 2.4 2.4 2.4h7.7425q2.4 0 2.4-2.4v-33.808q0-2.4-2.4-2.4h-7.7425q-2.4 0-2.4 2.4z" clip-path="url(#a)" fill="#fff" stroke="#fff"/>
<g clip-path="url(#a)">
<g transform="translate(384.91 859.72) rotate(90) scale(.08 -.08)">
<use xlink:href="#l"/>
<use x="44.083984" xlink:href="#c"/>
<use x="105.607422" xlink:href="#h"/>
<use x="144.970703" xlink:href="#k"/>
<use x="242.382812" xlink:href="#i"/>
<use x="270.166016" xlink:href="#e"/>
<use x="333.544922" xlink:href="#f"/>
<use x="394.824219" xlink:href="#j"/>
</g>
</g>
<path d="m419.14 859.72v33.808q0 2.4 2.4 2.4h7.7425q2.4 0 2.4-2.4v-33.808q0-2.4-2.4-2.4h-7.7425q-2.4 0-2.4 2.4z" clip-path="url(#a)" fill="#fff" stroke="#fff"/>
<g clip-path="url(#a)">
<g transform="translate(423.2 859.72) rotate(90) scale(.08 -.08)">
<use xlink:href="#l"/>
<use x="44.083984" xlink:href="#c"/>
<use x="105.607422" xlink:href="#h"/>
<use x="144.970703" xlink:href="#k"/>
<use x="242.382812" xlink:href="#i"/>
<use x="270.166016" xlink:href="#e"/>
<use x="333.544922" xlink:href="#f"/>
<use x="394.824219" xlink:href="#j"/>
</g>
</g>
<path d="m558.91 892.56 25.201-22.536q1.789-1.5998 0.18916-3.3888l-5.1611-5.7714q-1.5998-1.789-3.3888-0.18916l-25.201 22.536q-1.789 1.5998-0.18916 3.3888l5.1611 5.7714q1.5998 1.789 3.3888 0.18916z" clip-path="url(#a)" fill="#fff" stroke="#fff"/>
<g clip-path="url(#a)">
<g transform="translate(556.2 889.54) rotate(-41.805) scale(.08 -.08)">
<use xlink:href="#l"/>
<use x="44.083984" xlink:href="#c"/>
<use x="105.607422" xlink:href="#h"/>
<use x="144.970703" xlink:href="#k"/>
<use x="242.382812" xlink:href="#i"/>
<use x="270.166016" xlink:href="#e"/>
<use x="333.544922" xlink:href="#f"/>
<use x="394.824219" xlink:href="#j"/>
</g>
</g>
<path d="m753.29 870.03 25.201 22.536q1.789 1.5998 3.3888-0.18916l5.1611-5.7714q1.5998-1.789-0.18916-3.3888l-25.201-22.536q-1.789-1.5998-3.3888 0.18916l-5.1611 5.7714q-1.5998 1.789 0.18916 3.3888z" clip-path="url(#a)" fill="#fff" stroke="#fff"/>
<g clip-path="url(#a)">
<g transform="translate(755.99 867) rotate(41.805) scale(.08 -.08)">
<use xlink:href="#l"/>
<use x="44.083984" xlink:href="#c"/>
<use x="105.607422" xlink:href="#h"/>
<use x="144.970703" xlink:href="#k"/>
<use x="242.382812" xlink:href="#i"/>
<use x="270.166016" xlink:href="#e"/>
<use x="333.544922" xlink:href="#f"/>
<use x="394.824219" xlink:href="#j"/>
</g>
</g>
<path d="m502.49 859.72v33.808q0 2.4 2.4 2.4h7.7425q2.4 0 2.4-2.4v-33.808q0-2.4-2.4-2.4h-7.7425q-2.4 0-2.4 2.4z" clip-path="url(#a)" fill="#fff" stroke="#fff"/>
<g clip-path="url(#a)">
<g transform="translate(506.55 859.72) rotate(90) scale(.08 -.08)">
<use xlink:href="#l"/>
<use x="44.083984" xlink:href="#c"/>
<use x="105.607422" xlink:href="#h"/>
<use x="144.970703" xlink:href="#k"/>
<use x="242.382812" xlink:href="#i"/>
<use x="270.166016" xlink:href="#e"/>
<use x="333.544922" xlink:href="#f"/>
<use x="394.824219" xlink:href="#j"/>
</g>
</g>
<path d="m596.86 605.17 0.91403-4.5096q0.47676-2.3522-1.8754-2.8289l-7.5882-1.538q-2.3522-0.47676-2.8289 1.8754l-0.91403 4.5096q-0.47676 2.3522 1.8754 2.8289l7.5882 1.538q2.3522 0.47676 2.8289-1.8754z" clip-path="url(#a)" fill="#fff" stroke="#fff"/>
<g clip-path="url(#a)">
<g transform="translate(592.87 604.36) rotate(-78.542) scale(.08 -.08)">
<use xlink:href="#x"/>
</g>
</g>
<path d="m620.87 604.92 0.41421-5.5709q0.17796-2.3934-2.2154-2.5713l-7.7212-0.57409q-2.3934-0.17796-2.5713 2.2154l-0.41421 5.5709q-0.17796 2.3934 2.2154 2.5713l7.7212 0.57409q2.3934 0.17796 2.5713-2.2154z" clip-path="url(#a)" fill="#fff" stroke="#fff"/>
<g clip-path="url(#a)">
<g transform="translate(616.82 604.62) rotate(-85.748) scale(.08 -.08)">
<use xlink:href="#t"/>
</g>
</g>
<path d="m672.87 510.58 2.445 4.4243q1.1609 2.1006 3.2614 0.93972l6.7765-3.745q2.1006-1.1609 0.93972-3.2614l-2.445-4.4243q-1.1609-2.1006-3.2614-0.93972l-6.7765 3.745q-2.1006 1.1609-0.93973 3.2614z" clip-path="url(#a)" fill="#fff" stroke="#fff"/>
<g clip-path="url(#a)">
<g transform="translate(676.43 508.61) rotate(61.073) scale(.08 -.08)">
<use xlink:href="#y"/>
</g>
</g>
<path d="m547.54 859.72v33.808q0 2.4 2.4 2.4h7.7425q2.4 0 2.4-2.4v-33.808q0-2.4-2.4-2.4h-7.7425q-2.4 0-2.4 2.4z" clip-path="url(#a)" fill="#fff" stroke="#fff"/>
<g clip-path="url(#a)">
<g transform="translate(551.6 859.72) rotate(90) scale(.08 -.08)">
<use xlink:href="#l"/>
<use x="44.083984" xlink:href="#c"/>
<use x="105.607422" xlink:href="#h"/>
<use x="144.970703" xlink:href="#k"/>
<use x="242.382812" xlink:href="#i"/>
<use x="270.166016" xlink:href="#e"/>
<use x="333.544922" xlink:href="#f"/>
<use x="394.824219" xlink:href="#j"/>
</g>
</g>
<path d="m594.85 859.72v33.808q0 2.4 2.4 2.4h7.7425q2.4 0 2.4-2.4v-33.808q0-2.4-2.4-2.4h-7.7425q-2.4 0-2.4 2.4z" clip-path="url(#a)" fill="#fff" stroke="#fff"/>
<g clip-path="url(#a)">
<g transform="translate(598.91 859.72) rotate(90) scale(.08 -.08)">
<use xlink:href="#l"/>
<use x="44.083984" xlink:href="#c"/>
<use x="105.607422" xlink:href="#h"/>
<use x="144.970703" xlink:href="#k"/>
<use x="242.382812" xlink:href="#i"/>
<use x="270.166016" xlink:href="#e"/>
<use x="333.544922" xlink:href="#f"/>
<use x="394.824219" xlink:href="#j"/>
</g>
</g>
<path d="m695.3 699.11 2.2175-5.0973q0.9574-2.2008-1.2434-3.1582l-7.0998-3.0886q-2.2008-0.9574-3.1582 1.2434l-2.2175 5.0973q-0.9574 2.2008 1.2434 3.1582l7.0998 3.0886q2.2008 0.9574 3.1582-1.2434z" clip-path="url(#a)" fill="#fff" stroke="#fff"/>
<g clip-path="url(#a)">
<g transform="translate(691.58 697.49) rotate(-66.489) scale(.08 -.08)">
<use xlink:href="#ai"/>
</g>
</g>
<path d="m722.42 697.28 0.69669-4.5482q0.36339-2.3723-2.0089-2.7357l-7.6532-1.1723q-2.3723-0.36339-2.7357 2.0089l-0.69669 4.5482q-0.36339 2.3723 2.0089 2.7357l7.6532 1.1723q2.3723 0.36339 2.7357-2.0089z" clip-path="url(#a)" fill="#fff" stroke="#fff"/>
<g clip-path="url(#a)">
<g transform="translate(718.4 696.67) rotate(-81.291) scale(.08 -.08)">
<use xlink:href="#x"/>
</g>
</g>
<path d="m737.03 692.43 0.70541 5.0055q0.33491 2.3765 2.7114 2.0416l7.6667-1.0804q2.3765-0.33491 2.0416-2.7114l-0.70541-5.0055q-0.33491-2.3765-2.7114-2.0416l-7.6667 1.0804q-2.3765 0.33491-2.0416 2.7114z" clip-path="url(#a)" fill="#fff" stroke="#fff"/>
<g clip-path="url(#a)">
<g transform="translate(741.06 691.87) rotate(81.978) scale(.08 -.08)">
<use xlink:href="#y"/>
</g>
</g>
<path d="m764.89 694.07 2.2809 5.0994q0.97993 2.1908 3.1708 1.2109l7.0677-3.1613q2.1908-0.97993 1.2109-3.1708l-2.2809-5.0994q-0.97993-2.1908-3.1708-1.2109l-7.0677 3.1613q-2.1908 0.97993-1.2109 3.1708z" clip-path="url(#a)" fill="#fff" stroke="#fff"/>
<g clip-path="url(#a)">
<g transform="translate(768.6 692.41) rotate(65.902) scale(.08 -.08)">
<use xlink:href="#t"/>
</g>
</g>
<path d="m644.4 859.72v33.808q0 2.4 2.4 2.4h7.7425q2.4 0 2.4-2.4v-33.808q0-2.4-2.4-2.4h-7.7425q-2.4 0-2.4 2.4z" clip-path="url(#a)" fill="#fff" stroke="#fff"/>
<g clip-path="url(#a)">
<g transform="translate(648.47 859.72) rotate(90) scale(.08 -.08)">
<use xlink:href="#l"/>
<use x="44.083984" xlink:href="#c"/>
<use x="105.607422" xlink:href="#h"/>
<use x="144.970703" xlink:href="#k"/>
<use x="242.382812" xlink:href="#i"/>
<use x="270.166016" xlink:href="#e"/>
<use x="333.544922" xlink:href="#f"/>
<use x="394.824219" xlink:href="#j"/>
</g>
</g>
<path d="m696.22 859.72v33.808q0 2.4 2.4 2.4h7.7425q2.4 0 2.4-2.4v-33.808q0-2.4-2.4-2.4h-7.7425q-2.4 0-2.4 2.4z" clip-path="url(#a)" fill="#fff" stroke="#fff"/>
<g clip-path="url(#a)">
<g transform="translate(700.28 859.72) rotate(90) scale(.08 -.08)">
<use xlink:href="#l"/>
<use x="44.083984" xlink:href="#c"/>
<use x="105.607422" xlink:href="#h"/>
<use x="144.970703" xlink:href="#k"/>
<use x="242.382812" xlink:href="#i"/>
<use x="270.166016" xlink:href="#e"/>
<use x="333.544922" xlink:href="#f"/>
<use x="394.824219" xlink:href="#j"/>
</g>
</g>
<path d="m750.28 859.72v33.808q0 2.4 2.4 2.4h7.7425q2.4 0 2.4-2.4v-33.808q0-2.4-2.4-2.4h-7.7425q-2.4 0-2.4 2.4z" clip-path="url(#a)" fill="#fff" stroke="#fff"/>
<g clip-path="url(#a)">
<g transform="translate(754.34 859.72) rotate(90) scale(.08 -.08)">
<use xlink:href="#l"/>
<use x="44.083984" xlink:href="#c"/>
<use x="105.607422" xlink:href="#h"/>
<use x="144.970703" xlink:href="#k"/>
<use x="242.382812" xlink:href="#i"/>
<use x="270.166016" xlink:href="#e"/>
<use x="333.544922" xlink:href="#f"/>
<use x="394.824219" xlink:href="#j"/>
</g>
</g>
<path d="m806.59 859.72v33.808q0 2.4 2.4 2.4h7.7425q2.4 0 2.4-2.4v-33.808q0-2.4-2.4-2.4h-7.7425q-2.4 0-2.4 2.4z" clip-path="url(#a)" fill="#fff" stroke="#fff"/>
<g clip-path="url(#a)">
<g transform="translate(810.66 859.72) rotate(90) scale(.08 -.08)">
<use xlink:href="#l"/>
<use x="44.083984" xlink:href="#c"/>
<use x="105.607422" xlink:href="#h"/>
<use x="144.970703" xlink:href="#k"/>
<use x="242.382812" xlink:href="#i"/>
<use x="270.166016" xlink:href="#e"/>
<use x="333.544922" xlink:href="#f"/>
<use x="394.824219" xlink:href="#j"/>
</g>
</g>
<path d="m97.012 859.72v33.808q0 2.4 2.4 2.4h7.7425q2.4 0 2.4-2.4v-33.808q0-2.4-2.4-2.4h-7.7425q-2.4 0-2.4 2.4z" clip-path="url(#a)" fill="#fff" stroke="#fff"/>
<g clip-path="url(#a)">
<g transform="translate(101.08 859.72) rotate(90) scale(.08 -.08)">
<use xlink:href="#l"/>
<use x="44.083984" xlink:href="#c"/>
<use x="105.607422" xlink:href="#h"/>
<use x="144.970703" xlink:href="#k"/>
<use x="242.382812" xlink:href="#i"/>
<use x="270.166016" xlink:href="#e"/>
<use x="333.544922" xlink:href="#f"/>
<use x="394.824219" xlink:href="#j"/>
</g>
</g>
<path d="m108.28 859.72v33.808q0 2.4 2.4 2.4h7.7425q2.4 0 2.4-2.4v-33.808q0-2.4-2.4-2.4h-7.7425q-2.4 0-2.4 2.4z" clip-path="url(#a)" fill="#fff" stroke="#fff"/>
<g clip-path="url(#a)">
<g transform="translate(112.34 859.72) rotate(90) scale(.08 -.08)">
<use xlink:href="#l"/>
<use x="44.083984" xlink:href="#c"/>
<use x="105.607422" xlink:href="#h"/>
<use x="144.970703" xlink:href="#k"/>
<use x="242.382812" xlink:href="#i"/>
<use x="270.166016" xlink:href="#e"/>
<use x="333.544922" xlink:href="#f"/>
<use x="394.824219" xlink:href="#j"/>
</g>
</g>
<path d="m145.91 604.8 0.34859-5.4614q0.15288-2.3951-2.2422-2.548l-7.7268-0.49318q-2.3951-0.15288-2.548 2.2422l-0.34859 5.4614q-0.15288 2.3951 2.2422 2.548l7.7268 0.49318q2.3951 0.15288 2.548-2.2422z" clip-path="url(#a)" fill="#fff" stroke="#fff"/>
<g clip-path="url(#a)">
<g transform="translate(141.86 604.54) rotate(-86.348) scale(.08 -.08)">
<use xlink:href="#u"/>
</g>
</g>
<path d="m153.93 604.21 0.10152-4.8227q0.050508-2.3995-2.349-2.45l-7.7408-0.16294q-2.3995-0.050508-2.45 2.349l-0.10152 4.8227q-0.050507 2.3995 2.349 2.45l7.7408 0.16294q2.3995 0.050508 2.45-2.349z" clip-path="url(#a)" fill="#fff" stroke="#fff"/>
<g clip-path="url(#a)">
<g transform="translate(149.87 604.12) rotate(-88.794) scale(.08 -.08)">
<use xlink:href="#z"/>
</g>
</g>
<path d="m160.59 508.1 0.91356 5.3957q0.40065 2.3663 2.767 1.9657l7.6339-1.2925q2.3663-0.40065 1.9657-2.767l-0.91356-5.3957q-0.40065-2.3663-2.767-1.9657l-7.6339 1.2925q-2.3663 0.40065-1.9657 2.767z" clip-path="url(#a)" fill="#fff" stroke="#fff"/>
<g clip-path="url(#a)">
<g transform="translate(164.6 507.43) rotate(80.39) scale(.08 -.08)">
<use xlink:href="#u"/>
</g>
</g>
<path d="m223.16 859.72v33.808q0 2.4 2.4 2.4h7.7425q2.4 0 2.4-2.4v-33.808q0-2.4-2.4-2.4h-7.7425q-2.4 0-2.4 2.4z" clip-path="url(#a)" fill="#fff" stroke="#fff"/>
<g clip-path="url(#a)">
<g transform="translate(227.22 859.72) rotate(90) scale(.08 -.08)">
<use xlink:href="#l"/>
<use x="44.083984" xlink:href="#c"/>
<use x="105.607422" xlink:href="#h"/>
<use x="144.970703" xlink:href="#k"/>
<use x="242.382812" xlink:href="#i"/>
<use x="270.166016" xlink:href="#e"/>
<use x="333.544922" xlink:href="#f"/>
<use x="394.824219" xlink:href="#j"/>
</g>
</g>
<path d="m269.79 697.7 0.50004-6.2776q0.19056-2.3924-2.2019-2.583l-7.7181-0.61477q-2.3924-0.19056-2.583 2.2019l-0.50004 6.2776q-0.19057 2.3924 2.2019 2.583l7.7181 0.61477q2.3924 0.19056 2.583-2.2019z" clip-path="url(#a)" fill="#fff" stroke="#fff"/>
<g clip-path="url(#a)">
<defs>
<path id="at" d="m39.406 66.219q-10.75 0-17.078-8.0156-6.3125-8-6.3125-21.828 0-13.766 6.3125-21.781 6.3281-8 17.078-8 10.734 0 17.016 8 6.2812 8.0156 6.2812 21.781 0 13.828-6.2812 21.828-6.2812 8.0156-17.016 8.0156zm13.812-64.906 13-14.203h-11.922l-10.797 11.672q-1.6094-0.09375-2.4688-0.14062-0.84375-0.0625-1.625-0.0625-15.375 0-24.594 10.281-9.2031 10.281-9.2031 27.516 0 17.281 9.2031 27.562 9.2188 10.281 24.594 10.281 15.328 0 24.5-10.281 9.1875-10.281 9.1875-27.562 0-12.688-5.1094-21.734-5.0938-9.0312-14.766-13.328z"/>
</defs>
<g transform="translate(265.73 697.37) rotate(-85.446) scale(.08 -.08)">
<use xlink:href="#at"/>
</g>
</g>
<path d="m271.95 691.77 0.44356 5.5686q0.19056 2.3924 2.583 2.2019l7.7181-0.61477q2.3924-0.19057 2.2019-2.583l-0.44356-5.5686q-0.19056-2.3924-2.583-2.2019l-7.7181 0.61477q-2.3924 0.19056-2.2019 2.583z" clip-path="url(#a)" fill="#fff" stroke="#fff"/>
<g clip-path="url(#a)">
<g transform="translate(276 691.45) rotate(85.446) scale(.08 -.08)">
<use xlink:href="#t"/>
</g>
</g>
<path d="m311.01 859.72v33.808q0 2.4 2.4 2.4h7.7425q2.4 0 2.4-2.4v-33.808q0-2.4-2.4-2.4h-7.7425q-2.4 0-2.4 2.4z" clip-path="url(#a)" fill="#fff" stroke="#fff"/>
<g clip-path="url(#a)">
<g transform="translate(315.08 859.72) rotate(90) scale(.08 -.08)">
<use xlink:href="#l"/>
<use x="44.083984" xlink:href="#c"/>
<use x="105.607422" xlink:href="#h"/>
<use x="144.970703" xlink:href="#k"/>
<use x="242.382812" xlink:href="#i"/>
<use x="270.166016" xlink:href="#e"/>
<use x="333.544922" xlink:href="#f"/>
<use x="394.824219" xlink:href="#j"/>
</g>
</g>
<path d="m250.19 859.72v33.808q0 2.4 2.4 2.4h7.7425q2.4 0 2.4-2.4v-33.808q0-2.4-2.4-2.4h-7.7425q-2.4 0-2.4 2.4z" clip-path="url(#a)" fill="#fff" stroke="#fff"/>
<g clip-path="url(#a)">
<g transform="translate(254.26 859.72) rotate(90) scale(.08 -.08)">
<use xlink:href="#l"/>
<use x="44.083984" xlink:href="#c"/>
<use x="105.607422" xlink:href="#h"/>
<use x="144.970703" xlink:href="#k"/>
<use x="242.382812" xlink:href="#i"/>
<use x="270.166016" xlink:href="#e"/>
<use x="333.544922" xlink:href="#f"/>
<use x="394.824219" xlink:href="#j"/>
</g>
</g>
<path d="m279.48 859.72v33.808q0 2.4 2.4 2.4h7.7425q2.4 0 2.4-2.4v-33.808q0-2.4-2.4-2.4h-7.7425q-2.4 0-2.4 2.4z" clip-path="url(#a)" fill="#fff" stroke="#fff"/>
<g clip-path="url(#a)">
<g transform="translate(283.54 859.72) rotate(90) scale(.08 -.08)">
<use xlink:href="#l"/>
<use x="44.083984" xlink:href="#c"/>
<use x="105.607422" xlink:href="#h"/>
<use x="144.970703" xlink:href="#k"/>
<use x="242.382812" xlink:href="#i"/>
<use x="270.166016" xlink:href="#e"/>
<use x="333.544922" xlink:href="#f"/>
<use x="394.824219" xlink:href="#j"/>
</g>
</g>
<path d="m121.79 859.72v33.808q0 2.4 2.4 2.4h7.7425q2.4 0 2.4-2.4v-33.808q0-2.4-2.4-2.4h-7.7425q-2.4 0-2.4 2.4z" clip-path="url(#a)" fill="#fff" stroke="#fff"/>
<g clip-path="url(#a)">
<g transform="translate(125.86 859.72) rotate(90) scale(.08 -.08)">
<use xlink:href="#l"/>
<use x="44.083984" xlink:href="#c"/>
<use x="105.607422" xlink:href="#h"/>
<use x="144.970703" xlink:href="#k"/>
<use x="242.382812" xlink:href="#i"/>
<use x="270.166016" xlink:href="#e"/>
<use x="333.544922" xlink:href="#f"/>
<use x="394.824219" xlink:href="#j"/>
</g>
</g>
<path d="m137.56 859.72v33.808q0 2.4 2.4 2.4h7.7425q2.4 0 2.4-2.4v-33.808q0-2.4-2.4-2.4h-7.7425q-2.4 0-2.4 2.4z" clip-path="url(#a)" fill="#fff" stroke="#fff"/>
<g clip-path="url(#a)">
<g transform="translate(141.62 859.72) rotate(90) scale(.08 -.08)">
<use xlink:href="#l"/>
<use x="44.083984" xlink:href="#c"/>
<use x="105.607422" xlink:href="#h"/>
<use x="144.970703" xlink:href="#k"/>
<use x="242.382812" xlink:href="#i"/>
<use x="270.166016" xlink:href="#e"/>
<use x="333.544922" xlink:href="#f"/>
<use x="394.824219" xlink:href="#j"/>
</g>
</g>
<path d="m178.28 697.53 0.63166-5.5227q0.27272-2.3845-2.1117-2.6572l-7.6924-0.87981q-2.3845-0.27272-2.6572 2.1117l-0.63166 5.5227q-0.27272 2.3845 2.1117 2.6572l7.6924 0.87981q2.3845 0.27272 2.6572-2.1117z" clip-path="url(#a)" fill="#fff" stroke="#fff"/>
<g clip-path="url(#a)">
<g transform="translate(174.24 697.07) rotate(-83.475) scale(.08 -.08)">
<use xlink:href="#ai"/>
</g>
</g>
<path d="m188.76 696.39 0.018795-4.6012q0.009803-2.4-2.3902-2.4098l-7.7424-0.031626q-2.4-0.009804-2.4098 2.3902l-0.018795 4.6012q-0.009803 2.4 2.3902 2.4098l7.7424 0.031627q2.4 0.009803 2.4098-2.3902z" clip-path="url(#a)" fill="#fff" stroke="#fff"/>
<g clip-path="url(#a)">
<g transform="translate(184.7 696.37) rotate(-89.766) scale(.08 -.08)">
<use xlink:href="#x"/>
</g>
</g>
<path d="m187.21 692.02 0.65715 5.5475q0.28233 2.3833 2.6657 2.101l7.6887-0.9108q2.3833-0.28233 2.101-2.6657l-0.65715-5.5475q-0.28233-2.3833-2.6657-2.101l-7.6887 0.9108q-2.3833 0.28233-2.101 2.6657z" clip-path="url(#a)" fill="#fff" stroke="#fff"/>
<g clip-path="url(#a)">
<g transform="translate(191.24 691.55) rotate(83.244) scale(.08 -.08)">
<use xlink:href="#t"/>
</g>
</g>
<path d="m155.58 859.72v33.808q0 2.4 2.4 2.4h7.7425q2.4 0 2.4-2.4v-33.808q0-2.4-2.4-2.4h-7.7425q-2.4 0-2.4 2.4z" clip-path="url(#a)" fill="#fff" stroke="#fff"/>
<g clip-path="url(#a)">
<g transform="translate(159.64 859.72) rotate(90) scale(.08 -.08)">
<use xlink:href="#l"/>
<use x="44.083984" xlink:href="#c"/>
<use x="105.607422" xlink:href="#h"/>
<use x="144.970703" xlink:href="#k"/>
<use x="242.382812" xlink:href="#i"/>
<use x="270.166016" xlink:href="#e"/>
<use x="333.544922" xlink:href="#f"/>
<use x="394.824219" xlink:href="#j"/>
</g>
</g>
<path d="m175.85 859.72v33.808q0 2.4 2.4 2.4h7.7425q2.4 0 2.4-2.4v-33.808q0-2.4-2.4-2.4h-7.7425q-2.4 0-2.4 2.4z" clip-path="url(#a)" fill="#fff" stroke="#fff"/>
<g clip-path="url(#a)">
<g transform="translate(179.92 859.72) rotate(90) scale(.08 -.08)">
<use xlink:href="#l"/>
<use x="44.083984" xlink:href="#c"/>
<use x="105.607422" xlink:href="#h"/>
<use x="144.970703" xlink:href="#k"/>
<use x="242.382812" xlink:href="#i"/>
<use x="270.166016" xlink:href="#e"/>
<use x="333.544922" xlink:href="#f"/>
<use x="394.824219" xlink:href="#j"/>
</g>
</g>
<path d="m198.38 859.72v33.808q0 2.4 2.4 2.4h7.7425q2.4 0 2.4-2.4v-33.808q0-2.4-2.4-2.4h-7.7425q-2.4 0-2.4 2.4z" clip-path="url(#a)" fill="#fff" stroke="#fff"/>
<g clip-path="url(#a)">
<g transform="translate(202.45 859.72) rotate(90) scale(.08 -.08)">
<use xlink:href="#l"/>
<use x="44.083984" xlink:href="#c"/>
<use x="105.607422" xlink:href="#h"/>
<use x="144.970703" xlink:href="#k"/>
<use x="242.382812" xlink:href="#i"/>
<use x="270.166016" xlink:href="#e"/>
<use x="333.544922" xlink:href="#f"/>
<use x="394.824219" xlink:href="#j"/>
</g>
</g>
<path d="m81.244 859.72v33.808q0 2.4 2.4 2.4h7.7425q2.4 0 2.4-2.4v-33.808q0-2.4-2.4-2.4h-7.7425q-2.4 0-2.4 2.4z" clip-path="url(#a)" fill="#fff" stroke="#fff"/>
<g clip-path="url(#a)">
<g transform="translate(85.308 859.72) rotate(90) scale(.08 -.08)">
<use xlink:href="#l"/>
<use x="44.083984" xlink:href="#c"/>
<use x="105.607422" xlink:href="#h"/>
<use x="144.970703" xlink:href="#k"/>
<use x="242.382812" xlink:href="#i"/>
<use x="270.166016" xlink:href="#e"/>
<use x="333.544922" xlink:href="#f"/>
<use x="394.824219" xlink:href="#j"/>
</g>
</g>
<path d="m88.002 859.72v33.808q0 2.4 2.4 2.4h7.7425q2.4 0 2.4-2.4v-33.808q0-2.4-2.4-2.4h-7.7425q-2.4 0-2.4 2.4z" clip-path="url(#a)" fill="#fff" stroke="#fff"/>
<g clip-path="url(#a)">
<g transform="translate(92.066 859.72) rotate(90) scale(.08 -.08)">
<use xlink:href="#l"/>
<use x="44.083984" xlink:href="#c"/>
<use x="105.607422" xlink:href="#h"/>
<use x="144.970703" xlink:href="#k"/>
<use x="242.382812" xlink:href="#i"/>
<use x="270.166016" xlink:href="#e"/>
<use x="333.544922" xlink:href="#f"/>
<use x="394.824219" xlink:href="#j"/>
</g>
</g>
<path d="m925.98 859.72v33.808q0 2.4 2.4 2.4h7.7425q2.4 0 2.4-2.4v-33.808q0-2.4-2.4-2.4h-7.7425q-2.4 0-2.4 2.4z" clip-path="url(#a)" fill="#fff" stroke="#fff"/>
<g clip-path="url(#a)">
<g transform="translate(930.05 859.72) rotate(90) scale(.08 -.08)">
<use xlink:href="#l"/>
<use x="44.083984" xlink:href="#c"/>
<use x="105.607422" xlink:href="#h"/>
<use x="144.970703" xlink:href="#k"/>
<use x="242.382812" xlink:href="#i"/>
<use x="270.166016" xlink:href="#e"/>
<use x="333.544922" xlink:href="#f"/>
<use x="394.824219" xlink:href="#j"/>
</g>
</g>
<path d="m1658.1 859.72v33.808q0 2.4 2.4 2.4h7.7425q2.4 0 2.4-2.4v-33.808q0-2.4-2.4-2.4h-7.7425q-2.4 0-2.4 2.4z" clip-path="url(#a)" fill="#fff" stroke="#fff"/>
<g clip-path="url(#a)">
<g transform="translate(1662.2 859.72) rotate(90) scale(.08 -.08)">
<use xlink:href="#l"/>
<use x="44.083984" xlink:href="#c"/>
<use x="105.607422" xlink:href="#h"/>
<use x="144.970703" xlink:href="#k"/>
<use x="242.382812" xlink:href="#i"/>
<use x="270.166016" xlink:href="#e"/>
<use x="333.544922" xlink:href="#f"/>
<use x="394.824219" xlink:href="#j"/>
</g>
</g>
<path d="m1743.7 859.72v33.808q0 2.4 2.4 2.4h7.7425q2.4 0 2.4-2.4v-33.808q0-2.4-2.4-2.4h-7.7425q-2.4 0-2.4 2.4z" clip-path="url(#a)" fill="#fff" stroke="#fff"/>
<g clip-path="url(#a)">
<g transform="translate(1747.8 859.72) rotate(90) scale(.08 -.08)">
<use xlink:href="#l"/>
<use x="44.083984" xlink:href="#c"/>
<use x="105.607422" xlink:href="#h"/>
<use x="144.970703" xlink:href="#k"/>
<use x="242.382812" xlink:href="#i"/>
<use x="270.166016" xlink:href="#e"/>
<use x="333.544922" xlink:href="#f"/>
<use x="394.824219" xlink:href="#j"/>
</g>
</g>
<path d="m1831.5 859.72v33.808q0 2.4 2.4 2.4h7.7425q2.4 0 2.4-2.4v-33.808q0-2.4-2.4-2.4h-7.7425q-2.4 0-2.4 2.4z" clip-path="url(#a)" fill="#fff" stroke="#fff"/>
<g clip-path="url(#a)">
<g transform="translate(1835.6 859.72) rotate(90) scale(.08 -.08)">
<use xlink:href="#l"/>
<use x="44.083984" xlink:href="#c"/>
<use x="105.607422" xlink:href="#h"/>
<use x="144.970703" xlink:href="#k"/>
<use x="242.382812" xlink:href="#i"/>
<use x="270.166016" xlink:href="#e"/>
<use x="333.544922" xlink:href="#f"/>
<use x="394.824219" xlink:href="#j"/>
</g>
</g>
<defs>
<path id="b" d="m0 8.6603c2.2967 0 4.4997-0.9125 6.1237-2.5365 1.624-1.624 2.5365-3.827 2.5365-6.1237s-0.9125-4.4997-2.5365-6.1237c-1.624-1.624-3.827-2.5365-6.1237-2.5365s-4.4997 0.9125-6.1237 2.5365c-1.624 1.624-2.5365 3.827-2.5365 6.1237s0.9125 4.4997 2.5365 6.1237c1.624 1.624 3.827 2.5365 6.1237 2.5365z"/>
</defs>
<g clip-path="url(#a)">
<use x="87.515152" y="967.272727" fill="#ffffff" stroke="#ffffff" xlink:href="#b"/>
</g>
<g clip-path="url(#a)">
<use x="94.273078" y="967.272727" fill="#ffffff" stroke="#ffffff" xlink:href="#b"/>
</g>
<g clip-path="url(#a)">
<use x="103.283647" y="967.272727" fill="#ffffff" stroke="#ffffff" xlink:href="#b"/>
</g>
<g clip-path="url(#a)">
<use x="114.546859" y="967.272727" fill="#ffffff" stroke="#ffffff" xlink:href="#b"/>
</g>
<g clip-path="url(#a)">
<use x="128.062712" y="967.272727" fill="#ffffff" stroke="#ffffff" xlink:href="#b"/>
</g>
<g clip-path="url(#a)">
<use x="143.831208" y="967.272727" fill="#ffffff" stroke="#ffffff" xlink:href="#b"/>
</g>
<g clip-path="url(#a)">
<use x="161.852346" y="967.272727" fill="#ffffff" stroke="#ffffff" xlink:href="#b"/>
</g>
<g clip-path="url(#a)">
<use x="182.126126" y="967.272727" fill="#ffffff" stroke="#ffffff" xlink:href="#b"/>
</g>
<g clip-path="url(#a)">
<use x="204.652549" y="967.272727" fill="#ffffff" stroke="#ffffff" xlink:href="#b"/>
</g>
<g clip-path="url(#a)">
<use x="229.431613" y="967.272727" fill="#ffffff" stroke="#ffffff" xlink:href="#b"/>
</g>
<g clip-path="url(#a)">
<use x="256.46332" y="967.272727" fill="#ffffff" stroke="#ffffff" xlink:href="#b"/>
</g>
<g clip-path="url(#a)">
<use x="285.74767" y="967.272727" fill="#ffffff" stroke="#ffffff" xlink:href="#b"/>
</g>
<g clip-path="url(#a)">
<use x="317.284661" y="967.272727" fill="#ffffff" stroke="#ffffff" xlink:href="#b"/>
</g>
<g clip-path="url(#a)">
<use x="351.074295" y="967.272727" fill="#ffffff" stroke="#ffffff" xlink:href="#b"/>
</g>
<g clip-path="url(#a)">
<use x="387.116571" y="967.272727" fill="#ffffff" stroke="#ffffff" xlink:href="#b"/>
</g>
<g clip-path="url(#a)">
<use x="425.411489" y="967.272727" fill="#ffffff" stroke="#ffffff" xlink:href="#b"/>
</g>
<g clip-path="url(#a)">
<use x="465.95905" y="967.272727" fill="#ffffff" stroke="#ffffff" xlink:href="#b"/>
</g>
<g clip-path="url(#a)">
<use x="508.759253" y="967.272727" fill="#ffffff" stroke="#ffffff" xlink:href="#b"/>
</g>
<g clip-path="url(#a)">
<use x="553.812098" y="967.272727" fill="#ffffff" stroke="#ffffff" xlink:href="#b"/>
</g>
<g clip-path="url(#a)">
<use x="601.117585" y="967.272727" fill="#ffffff" stroke="#ffffff" xlink:href="#b"/>
</g>
<g clip-path="url(#a)">
<use x="650.675715" y="967.272727" fill="#ffffff" stroke="#ffffff" xlink:href="#b"/>
</g>
<g clip-path="url(#a)">
<use x="702.486486" y="967.272727" fill="#ffffff" stroke="#ffffff" xlink:href="#b"/>
</g>
<g clip-path="url(#a)">
<use x="756.549901" y="967.272727" fill="#ffffff" stroke="#ffffff" xlink:href="#b"/>
</g>
<g clip-path="url(#a)">
<use x="812.865957" y="967.272727" fill="#ffffff" stroke="#ffffff" xlink:href="#b"/>
</g>
<g clip-path="url(#a)">
<use x="871.434655" y="967.272727" fill="#ffffff" stroke="#ffffff" xlink:href="#b"/>
</g>
<g clip-path="url(#a)">
<use x="932.255996" y="967.272727" fill="#ffffff" stroke="#ffffff" xlink:href="#b"/>
</g>
<g clip-path="url(#a)">
<use x="995.329979" y="967.272727" fill="#ffffff" stroke="#ffffff" xlink:href="#b"/>
</g>
<g clip-path="url(#a)">
<use x="1060.656605" y="967.272727" fill="#ffffff" stroke="#ffffff" xlink:href="#b"/>
</g>
<g clip-path="url(#a)">
<use x="1128.235872" y="967.272727" fill="#ffffff" stroke="#ffffff" xlink:href="#b"/>
</g>
<g clip-path="url(#a)">
<use x="1198.067782" y="967.272727" fill="#ffffff" stroke="#ffffff" xlink:href="#b"/>
</g>
<g clip-path="url(#a)">
<use x="1270.152334" y="967.272727" fill="#ffffff" stroke="#ffffff" xlink:href="#b"/>
</g>
<g clip-path="url(#a)">
<use x="1344.489528" y="967.272727" fill="#ffffff" stroke="#ffffff" xlink:href="#b"/>
</g>
<g clip-path="url(#a)">
<use x="1421.079365" y="967.272727" fill="#ffffff" stroke="#ffffff" xlink:href="#b"/>
</g>
<g clip-path="url(#a)">
<use x="1499.921844" y="967.272727" fill="#ffffff" stroke="#ffffff" xlink:href="#b"/>
</g>
<g clip-path="url(#a)">
<use x="1581.016965" y="967.272727" fill="#ffffff" stroke="#ffffff" xlink:href="#b"/>
</g>
<g clip-path="url(#a)">
<use x="1664.364728" y="967.272727" fill="#ffffff" stroke="#ffffff" xlink:href="#b"/>
</g>
<g clip-path="url(#a)">
<use x="1749.965134" y="967.272727" fill="#ffffff" stroke="#ffffff" xlink:href="#b"/>
</g>
<g clip-path="url(#a)">
<use x="1837.818182" y="967.272727" fill="#ffffff" stroke="#ffffff" xlink:href="#b"/>
</g>
<g clip-path="url(#a)">
<use x="659.408875" y="46.060606" fill="#ffffff" stroke="#ffffff" xlink:href="#b"/>
</g>
<g clip-path="url(#a)">
<use x="90.894115" y="602.14885" fill="#ffffff" stroke="#ffffff" xlink:href="#b"/>
</g>
<g clip-path="url(#a)">
<use x="197.873764" y="231.945697" fill="#ffffff" stroke="#ffffff" xlink:href="#b"/>
</g>
<g clip-path="url(#a)">
<use x="351.074295" y="785.971836" fill="#ffffff" stroke="#ffffff" xlink:href="#b"/>
</g>
<g clip-path="url(#a)">
<use x="523.70178" y="231.945697" fill="#ffffff" stroke="#ffffff" xlink:href="#b"/>
</g>
<g clip-path="url(#a)">
<use x="995.329979" y="785.971836" fill="#ffffff" stroke="#ffffff" xlink:href="#b"/>
</g>
<g clip-path="url(#a)">
<use x="1524.732195" y="231.945697" fill="#ffffff" stroke="#ffffff" xlink:href="#b"/>
</g>
<g clip-path="url(#a)">
<use x="1060.656605" y="785.971836" fill="#ffffff" stroke="#ffffff" xlink:href="#b"/>
</g>
<g clip-path="url(#a)">
<use x="1254.571559" y="417.361728" fill="#ffffff" stroke="#ffffff" xlink:href="#b"/>
</g>
<g clip-path="url(#a)">
<use x="1581.016965" y="785.971836" fill="#ffffff" stroke="#ffffff" xlink:href="#b"/>
</g>
<g clip-path="url(#a)">
<use x="1128.235872" y="785.971836" fill="#ffffff" stroke="#ffffff" xlink:href="#b"/>
</g>
<g clip-path="url(#a)">
<use x="1198.067782" y="785.971836" fill="#ffffff" stroke="#ffffff" xlink:href="#b"/>
</g>
<g clip-path="url(#a)">
<use x="1270.152334" y="785.971836" fill="#ffffff" stroke="#ffffff" xlink:href="#b"/>
</g>
<g clip-path="url(#a)">
<use x="1421.830246" y="602.14885" fill="#ffffff" stroke="#ffffff" xlink:href="#b"/>
</g>
<g clip-path="url(#a)">
<use x="1344.489528" y="785.971836" fill="#ffffff" stroke="#ffffff" xlink:href="#b"/>
</g>
<g clip-path="url(#a)">
<use x="1421.079365" y="785.971836" fill="#ffffff" stroke="#ffffff" xlink:href="#b"/>
</g>
<g clip-path="url(#a)">
<use x="1499.921844" y="785.971836" fill="#ffffff" stroke="#ffffff" xlink:href="#b"/>
</g>
<g clip-path="url(#a)">
<use x="387.116571" y="785.971836" fill="#ffffff" stroke="#ffffff" xlink:href="#b"/>
</g>
<g clip-path="url(#a)">
<use x="425.411489" y="785.971836" fill="#ffffff" stroke="#ffffff" xlink:href="#b"/>
</g>
<g clip-path="url(#a)">
<use x="668.696853" y="785.971836" fill="#ffffff" stroke="#ffffff" xlink:href="#b"/>
</g>
<g clip-path="url(#a)">
<use x="508.759253" y="785.971836" fill="#ffffff" stroke="#ffffff" xlink:href="#b"/>
</g>
<g clip-path="url(#a)">
<use x="628.524733" y="417.361728" fill="#ffffff" stroke="#ffffff" xlink:href="#b"/>
</g>
<g clip-path="url(#a)">
<use x="553.812098" y="785.971836" fill="#ffffff" stroke="#ffffff" xlink:href="#b"/>
</g>
<g clip-path="url(#a)">
<use x="601.117585" y="785.971836" fill="#ffffff" stroke="#ffffff" xlink:href="#b"/>
</g>
<g clip-path="url(#a)">
<use x="730.644515" y="602.14885" fill="#ffffff" stroke="#ffffff" xlink:href="#b"/>
</g>
<g clip-path="url(#a)">
<use x="650.675715" y="785.971836" fill="#ffffff" stroke="#ffffff" xlink:href="#b"/>
</g>
<g clip-path="url(#a)">
<use x="702.486486" y="785.971836" fill="#ffffff" stroke="#ffffff" xlink:href="#b"/>
</g>
<g clip-path="url(#a)">
<use x="756.549901" y="785.971836" fill="#ffffff" stroke="#ffffff" xlink:href="#b"/>
</g>
<g clip-path="url(#a)">
<use x="812.865957" y="785.971836" fill="#ffffff" stroke="#ffffff" xlink:href="#b"/>
</g>
<g clip-path="url(#a)">
<use x="103.283647" y="785.971836" fill="#ffffff" stroke="#ffffff" xlink:href="#b"/>
</g>
<g clip-path="url(#a)">
<use x="114.546859" y="785.971836" fill="#ffffff" stroke="#ffffff" xlink:href="#b"/>
</g>
<g clip-path="url(#a)">
<use x="151.590309" y="417.361728" fill="#ffffff" stroke="#ffffff" xlink:href="#b"/>
</g>
<g clip-path="url(#a)">
<use x="229.431613" y="785.971836" fill="#ffffff" stroke="#ffffff" xlink:href="#b"/>
</g>
<g clip-path="url(#a)">
<use x="271.105495" y="602.14885" fill="#ffffff" stroke="#ffffff" xlink:href="#b"/>
</g>
<g clip-path="url(#a)">
<use x="317.284661" y="785.971836" fill="#ffffff" stroke="#ffffff" xlink:href="#b"/>
</g>
<g clip-path="url(#a)">
<use x="256.46332" y="785.971836" fill="#ffffff" stroke="#ffffff" xlink:href="#b"/>
</g>
<g clip-path="url(#a)">
<use x="285.74767" y="785.971836" fill="#ffffff" stroke="#ffffff" xlink:href="#b"/>
</g>
<g clip-path="url(#a)">
<use x="128.062712" y="785.971836" fill="#ffffff" stroke="#ffffff" xlink:href="#b"/>
</g>
<g clip-path="url(#a)">
<use x="143.831208" y="785.971836" fill="#ffffff" stroke="#ffffff" xlink:href="#b"/>
</g>
<g clip-path="url(#a)">
<use x="182.877007" y="602.14885" fill="#ffffff" stroke="#ffffff" xlink:href="#b"/>
</g>
<g clip-path="url(#a)">
<use x="161.852346" y="785.971836" fill="#ffffff" stroke="#ffffff" xlink:href="#b"/>
</g>
<g clip-path="url(#a)">
<use x="182.126126" y="785.971836" fill="#ffffff" stroke="#ffffff" xlink:href="#b"/>
</g>
<g clip-path="url(#a)">
<use x="204.652549" y="785.971836" fill="#ffffff" stroke="#ffffff" xlink:href="#b"/>
</g>
<g clip-path="url(#a)">
<use x="87.515152" y="785.971836" fill="#ffffff" stroke="#ffffff" xlink:href="#b"/>
</g>
<g clip-path="url(#a)">
<use x="94.273078" y="785.971836" fill="#ffffff" stroke="#ffffff" xlink:href="#b"/>
</g>
<g clip-path="url(#a)">
<use x="932.255996" y="785.971836" fill="#ffffff" stroke="#ffffff" xlink:href="#b"/>
</g>
<g clip-path="url(#a)">
<use x="1664.364728" y="785.971836" fill="#ffffff" stroke="#ffffff" xlink:href="#b"/>
</g>
<g clip-path="url(#a)">
<use x="1749.965134" y="785.971836" fill="#ffffff" stroke="#ffffff" xlink:href="#b"/>
</g>
<g clip-path="url(#a)">
<use x="1837.818182" y="785.971836" fill="#ffffff" stroke="#ffffff" xlink:href="#b"/>
</g>
<g clip-path="url(#a)">
<defs>
<path id="av" d="m9.8125 72.906h9.8594v-30.812l32.719 30.812h12.703l-36.188-33.984 38.766-38.922h-12.984l-35.016 35.109v-35.109h-9.8594z"/>
<path id="aq" d="m18.109 8.2031v-29h-9.0312v75.484h9.0312v-8.2969q2.8438 4.875 7.1562 7.2344 4.3281 2.375 10.328 2.375 9.9688 0 16.188-7.9062 6.2344-7.9062 6.2344-20.797t-6.2344-20.812q-6.2188-7.9062-16.188-7.9062-6 0-10.328 2.375-4.3125 2.375-7.1562 7.25zm30.578 19.094q0 9.9062-4.0781 15.547t-11.203 5.6406q-7.1406 0-11.219-5.6406t-4.0781-15.547 4.0781-15.547 11.219-5.6406q7.125 0 11.203 5.6406t4.0781 15.547z"/>
<path id="p" d="m18.312 70.219v-15.531h18.5v-6.9844h-18.5v-29.688q0-6.6875 1.8281-8.5938t7.4531-1.9062h9.2188v-7.5156h-9.2188q-10.406 0-14.359 3.875-3.9531 3.8906-3.9531 14.141v29.688h-6.5938v6.9844h6.5938v15.531z"/>
</defs>
<g transform="translate(70.271 970.03) scale(.1 -.1)">
<use xlink:href="#av"/>
<use x="63.826172" xlink:href="#f"/>
<use x="125.105469" xlink:href="#aq"/>
<use x="188.582031" xlink:href="#i"/>
<use x="216.365234" xlink:href="#p"/>
<use x="255.574219" xlink:href="#c"/>
<use x="317.097656" xlink:href="#j"/>
</g>
</g>
<g clip-path="url(#a)">
<defs>
<path id="al" d="m6.2969 72.906h10.594l18.125-27.109 18.203 27.109h10.594l-23.438-35.016 25-37.891h-10.594l-20.5 31-20.656-31h-10.641l26.016 38.922z"/>
<path id="aw" d="m9.8125 72.906h9.8594v-72.906h-9.8594z"/>
<path id="ar" d="m28.609 0-27.828 72.906h10.297l23.109-61.375 23.141 61.375h10.25l-27.781-72.906z"/>
</defs>
<g transform="translate(82.528 970.03) scale(.1 -.1)">
<use xlink:href="#al"/>
<use x="68.505859" xlink:href="#al"/>
<use x="137.011719" xlink:href="#aw"/>
<use x="166.503906" xlink:href="#ar"/>
</g>
</g>
<g clip-path="url(#a)">
<defs>
<path id="au" d="m9.8125 72.906h13.281l32.328-60.984v60.984h9.5625v-72.906h-13.281l-32.312 60.984v-60.984h-9.5781z"/>
<path id="ap" d="m8.5 21.578v33.109h8.9844v-32.766q0-7.7656 3.0156-11.656 3.0312-3.875 9.0938-3.875 7.2656 0 11.484 4.6406 4.2344 4.6406 4.2344 12.656v31h8.9844v-54.688h-8.9844v8.4062q-3.2656-4.9844-7.5938-7.4062-4.3125-2.4219-10.031-2.4219-9.4219 0-14.312 5.8594-4.875 5.8594-4.875 17.141z"/>
</defs>
<g transform="translate(93.206 970.03) scale(.1 -.1)">
<use xlink:href="#au"/>
<use x="74.804688" xlink:href="#ap"/>
<use x="138.183594" xlink:href="#e"/>
</g>
</g>
<g clip-path="url(#a)">
<defs>
<path id="bf" d="m4.2031 54.688h8.9844l11.234-42.672 11.172 42.672h10.594l11.234-42.672 11.188 42.672h8.9844l-14.312-54.688h-10.594l-11.766 44.828-11.812-44.828h-10.609z"/>
</defs>
<g transform="translate(105.34 970.03) scale(.1 -.1)">
<use xlink:href="#bf"/>
<use x="81.787109" xlink:href="#f"/>
<use x="143.066406" xlink:href="#h"/>
</g>
</g>
<g clip-path="url(#a)">
<g transform="translate(112.48 970.03) scale(.1 -.1)">
<use xlink:href="#k"/>
<use x="97.412109" xlink:href="#c"/>
<use x="158.935547" xlink:href="#i"/>
<use x="186.71875" xlink:href="#e"/>
<use x="250.097656" xlink:href="#c"/>
</g>
</g>
<g clip-path="url(#a)">
<g transform="translate(128.56 970.03) scale(.1 -.1)">
<use xlink:href="#z"/>
<use x="55.802734" xlink:href="#f"/>
<use x="117.082031" xlink:href="#e"/>
<use x="180.460938" xlink:href="#e"/>
<use x="243.839844" xlink:href="#c"/>
</g>
</g>
<g clip-path="url(#a)">
<g transform="translate(157.29 970.03) scale(.1 -.1)">
<use xlink:href="#i"/>
<use x="27.783203" xlink:href="#e"/>
</g>
</g>
<g clip-path="url(#a)">
<defs>
<path id="v" d="m45.406 46.391v29.594h8.9844v-75.984h-8.9844v8.2031q-2.8281-4.875-7.1562-7.25-4.3125-2.375-10.375-2.375-9.9062 0-16.141 7.9062-6.2188 7.9219-6.2188 20.812t6.2188 20.797q6.2344 7.9062 16.141 7.9062 6.0625 0 10.375-2.375 4.3281-2.3594 7.1562-7.2344zm-30.609-19.094q0-9.9062 4.0781-15.547t11.203-5.6406 11.219 5.6406q4.1094 5.6406 4.1094 15.547t-4.1094 15.547q-4.0938 5.6406-11.219 5.6406t-11.203-5.6406-4.0781-15.547z"/>
</defs>
<g transform="translate(173.82 970.03) scale(.1 -.1)">
<use xlink:href="#v"/>
<use x="63.476562" xlink:href="#c"/>
<use x="125" xlink:href="#h"/>
</g>
</g>
<g clip-path="url(#a)">
<defs>
<path id="am" d="m3.3281 72.906h9.9531l15.328-61.625 15.281 61.625h11.094l15.328-61.625 15.281 61.625h10.016l-18.312-72.906h-12.406l-15.375 63.281-15.531-63.281h-12.406z"/>
<path id="bb" d="m8.5 21.578v33.109h8.9844v-32.766q0-7.7656 3.0156-11.656 3.0312-3.875 9.0938-3.875 7.2656 0 11.484 4.6406 4.2344 4.6406 4.2344 12.656v31h8.9844v-54.688h-8.9844v8.4062q-3.2656-4.9844-7.5938-7.4062-4.3125-2.4219-10.031-2.4219-9.4219 0-14.312 5.8594-4.875 5.8594-4.875 17.141zm22.609 34.422m4.4844 19.781h9.9062v-9.8594h-9.9062zm-19.094 0h9.9062v-9.8594h-9.9062z"/>
<path id="s" d="m44.281 53.078v-8.5q-3.7969 1.9531-7.9062 2.9219-4.0938 0.98438-8.5 0.98438-6.6875 0-10.031-2.0469t-3.3438-6.1562q0-3.125 2.3906-4.9062t9.625-3.3906l3.0781-0.6875q9.5625-2.0469 13.594-5.7812t4.0312-10.422q0-7.625-6.0312-12.078-6.0312-4.4375-16.578-4.4375-4.3906 0-9.1562 0.85938t-10.031 2.5625v9.2812q4.9844-2.5938 9.8125-3.8906 4.8281-1.2812 9.5781-1.2812 6.3438 0 9.75 2.1719 3.4219 2.1719 3.4219 6.125 0 3.6562-2.4688 5.6094-2.4531 1.9531-10.812 3.7656l-3.125 0.73438q-8.3438 1.75-12.062 5.3906-3.7031 3.6406-3.7031 9.9844 0 7.7188 5.4688 11.906 5.4688 4.2031 15.531 4.2031 4.9688 0 9.3594-0.73438 4.4062-0.71875 8.1094-2.1875z"/>
</defs>
<g transform="translate(189.08 970.03) scale(.1 -.1)">
<use xlink:href="#am"/>
<use x="95.251953" xlink:href="#bb"/>
<use x="158.630859" xlink:href="#s"/>
<use x="210.730469" xlink:href="#p"/>
<use x="249.939453" xlink:href="#c"/>
</g>
</g>
<g clip-path="url(#a)">
<defs>
<path id="w" d="m48.781 52.594v-8.4062q-3.8125 2.1094-7.6406 3.1562t-7.7344 1.0469q-8.75 0-13.594-5.5469-4.8281-5.5312-4.8281-15.547t4.8281-15.562q4.8438-5.5312 13.594-5.5312 3.9062 0 7.7344 1.0469t7.6406 3.1562v-8.3125q-3.7656-1.75-7.7969-2.625-4.0156-0.89062-8.5625-0.89062-12.359 0-19.641 7.7656-7.2656 7.7656-7.2656 20.953 0 13.375 7.3438 21.031 7.3594 7.6719 20.156 7.6719 4.1406 0 8.0938-0.85938 3.9531-0.84375 7.6719-2.5469z"/>
<path id="q" d="m54.891 33.016v-33.016h-8.9844v32.719q0 7.7656-3.0312 11.609-3.0312 3.8594-9.0781 3.8594-7.2812 0-11.484-4.6406-4.2031-4.625-4.2031-12.641v-30.906h-9.0312v75.984h9.0312v-29.797q3.2344 4.9375 7.5938 7.375 4.375 2.4375 10.094 2.4375 9.4219 0 14.25-5.8281 4.8438-5.8281 4.8438-17.156z"/>
<path id="ah" d="m30.609 48.391q-7.2188 0-11.422-5.6406t-4.2031-15.453 4.1719-15.453q4.1875-5.6406 11.453-5.6406 7.1875 0 11.375 5.6562 4.2031 5.6719 4.2031 15.438 0 9.7188-4.2031 15.406-4.1875 5.6875-11.375 5.6875zm0 7.6094q11.719 0 18.406-7.625 6.7031-7.6094 6.7031-21.078 0-13.422-6.7031-21.078-6.6875-7.6406-18.406-7.6406-11.766 0-18.438 7.6406-6.6562 7.6562-6.6562 21.078 0 13.469 6.6562 21.078 6.6719 7.625 18.438 7.625z"/>
</defs>
<g transform="translate(214.68 970.03) scale(.1 -.1)">
<use xlink:href="#s"/>
<use x="52.099609" xlink:href="#w"/>
<use x="107.080078" xlink:href="#q"/>
<use x="170.458984" xlink:href="#ah"/>
<use x="231.640625" xlink:href="#e"/>
</g>
</g>
<g clip-path="url(#a)">
<g transform="translate(245.52 970.03) scale(.1 -.1)">
<use xlink:href="#f"/>
<use x="61.279297" xlink:href="#w"/>
<use x="116.259766" xlink:href="#q"/>
<use x="179.638672" xlink:href="#p"/>
</g>
</g>
<g clip-path="url(#a)">
<defs>
<path id="ak" d="m45.406 27.984q0 9.7656-4.0312 15.125-4.0156 5.375-11.297 5.375-7.2188 0-11.25-5.375-4.0312-5.3594-4.0312-15.125 0-9.7188 4.0312-15.094t11.25-5.375q7.2812 0 11.297 5.375 4.0312 5.375 4.0312 15.094zm8.9844-21.203q0-13.953-6.2031-20.766-6.1875-6.8125-18.984-6.8125-4.7344 0-8.9375 0.70312t-8.1562 2.1719v8.7344q3.9531-2.1406 7.8125-3.1562 3.8594-1.0312 7.8594-1.0312 8.8438 0 13.234 4.6094t4.3906 13.938v4.4531q-2.7812-4.8438-7.125-7.2344t-10.406-2.3906q-10.047 0-16.203 7.6562-6.1562 7.6719-6.1562 20.328 0 12.688 6.1562 20.344 6.1562 7.6719 16.203 7.6719 6.0625 0 10.406-2.3906t7.125-7.2188v8.2969h8.9844z"/>
</defs>
<g transform="translate(274.2 970.03) scale(.1 -.1)">
<use xlink:href="#l"/>
<use x="44.583984" xlink:href="#f"/>
<use x="105.863281" xlink:href="#ak"/>
<use x="169.339844" xlink:href="#c"/>
</g>
</g>
<g clip-path="url(#a)">
<g transform="translate(308.98 970.03) scale(.1 -.1)">
<use xlink:href="#q"/>
<use x="63.378906" xlink:href="#c"/>
<use x="124.902344" xlink:href="#h"/>
</g>
</g>
<g clip-path="url(#a)">
<g transform="translate(341.56 970.03) scale(.1 -.1)">
<use xlink:href="#ap"/>
<use x="63.378906" xlink:href="#e"/>
<use x="126.757812" xlink:href="#v"/>
</g>
</g>
<g clip-path="url(#a)">
<g transform="translate(379.81 970.03) scale(.1 -.1)">
<use xlink:href="#i"/>
<use x="27.783203" xlink:href="#w"/>
<use x="82.763672" xlink:href="#q"/>
</g>
</g>
<g clip-path="url(#a)">
<g transform="translate(412.18 970.03) scale(.1 -.1)">
<use xlink:href="#q"/>
<use x="63.378906" xlink:href="#f"/>
<use x="124.658203" xlink:href="#p"/>
<use x="163.867188" xlink:href="#p"/>
<use x="203.076172" xlink:href="#c"/>
</g>
</g>
<g clip-path="url(#a)">
<g transform="translate(457.64 970.03) scale(.1 -.1)">
<use xlink:href="#k"/>
<use x="97.412109" xlink:href="#i"/>
<use x="125.195312" xlink:href="#h"/>
</g>
</g>
<g clip-path="url(#a)">
<g transform="translate(491.14 970.03) scale(.1 -.1)">
<use xlink:href="#ak"/>
<use x="63.476562" xlink:href="#c"/>
<use x="125" xlink:href="#h"/>
<use x="166.113281" xlink:href="#f"/>
<use x="227.392578" xlink:href="#v"/>
<use x="290.869141" xlink:href="#c"/>
</g>
</g>
<g clip-path="url(#a)">
<g transform="translate(546.17 970.03) scale(.1 -.1)">
<use xlink:href="#v"/>
<use x="63.476562" xlink:href="#i"/>
<use x="91.259766" xlink:href="#c"/>
</g>
</g>
<g clip-path="url(#a)">
<defs>
<path id="ax" d="m59.516 10.406v19.578h-16.109v8.1094h25.875v-31.312q-5.7031-4.0469-12.594-6.125-6.875-2.0781-14.688-2.0781-17.094 0-26.75 9.9844-9.6406 10-9.6406 27.812 0 17.875 9.6406 27.859 9.6562 9.9844 26.75 9.9844 7.125 0 13.547-1.7656 6.4219-1.75 11.844-5.1719v-10.5q-5.4688 4.6406-11.625 6.9844t-12.938 2.3438q-13.391 0-20.109-7.4688-6.7031-7.4688-6.7031-22.266 0-14.75 6.7031-22.219 6.7188-7.4688 20.109-7.4688 5.2188 0 9.3125 0.90625 4.1094 0.90625 7.375 2.8125z"/>
</defs>
<g transform="translate(573.3 970.03) scale(.1 -.1)">
<use xlink:href="#ax"/>
<use x="77.490234" xlink:href="#c"/>
<use x="139.013672" xlink:href="#s"/>
<use x="191.113281" xlink:href="#w"/>
<use x="246.09375" xlink:href="#q"/>
<use x="309.472656" xlink:href="#i"/>
<use x="337.255859" xlink:href="#w"/>
<use x="392.236328" xlink:href="#q"/>
<use x="455.615234" xlink:href="#p"/>
<use x="494.824219" xlink:href="#c"/>
</g>
</g>
<g clip-path="url(#a)">
<defs>
<path id="ao" d="m2.9844 54.688h9.5156l17.094-45.891 17.094 45.891h9.5156l-20.516-54.688h-12.203z"/>
</defs>
<g transform="translate(641.49 970.03) scale(.1 -.1)">
<use xlink:href="#ao"/>
<use x="59.179688" xlink:href="#ah"/>
<use x="120.361328" xlink:href="#e"/>
</g>
</g>
<g clip-path="url(#a)">
<g transform="translate(691.37 970.03) scale(.1 -.1)">
<use xlink:href="#v"/>
<use x="63.476562" xlink:href="#c"/>
<use x="125" xlink:href="#k"/>
</g>
</g>
<g clip-path="url(#a)">
<g transform="translate(743.24 970.03) scale(.1 -.1)">
<use xlink:href="#z"/>
<use x="58.052734" xlink:href="#i"/>
<use x="85.835938" xlink:href="#j"/>
<use x="113.619141" xlink:href="#j"/>
<use x="141.402344" xlink:href="#c"/>
<use x="202.925781" xlink:href="#e"/>
</g>
</g>
<g clip-path="url(#a)">
<defs>
<path id="bd" d="m34.281 27.484q-10.891 0-15.094-2.4844t-4.2031-8.5q0-4.7812 3.1562-7.5938 3.1562-2.7969 8.5625-2.7969 7.4844 0 12 5.2969t4.5156 14.078v2zm17.922 3.7188v-31.203h-8.9844v8.2969q-3.0781-4.9688-7.6719-7.3438t-11.234-2.375q-8.3906 0-13.359 4.7188-4.9531 4.7188-4.9531 12.625 0 9.2188 6.1719 13.906 6.1875 4.6875 18.438 4.6875h12.609v0.89062q0 6.2031-4.0781 9.5938t-11.453 3.3906q-4.6875 0-9.1406-1.125-4.4375-1.125-8.5312-3.375v8.3125q4.9219 1.9062 9.5625 2.8438 4.6406 0.95312 9.0312 0.95312 11.875 0 17.734-6.1562 5.8594-6.1406 5.8594-18.641zm-18.609 44.578h9.9062v-9.8594h-9.9062zm-19.094 0h9.9062v-9.8594h-9.9062z"/>
</defs>
<g transform="translate(793.77 970.03) scale(.1 -.1)">
<use xlink:href="#q"/>
<use x="63.378906" xlink:href="#bd"/>
<use x="124.658203" xlink:href="#e"/>
<use x="188.037109" xlink:href="#v"/>
<use x="251.513672" xlink:href="#j"/>
<use x="279.296875" xlink:href="#c"/>
<use x="340.820312" xlink:href="#h"/>
</g>
</g>
<g clip-path="url(#a)">
<defs>
<path id="bc" d="m30.609 48.391q-7.2188 0-11.422-5.6406t-4.2031-15.453 4.1719-15.453q4.1875-5.6406 11.453-5.6406 7.1875 0 11.375 5.6562 4.2031 5.6719 4.2031 15.438 0 9.7188-4.2031 15.406-4.1875 5.6875-11.375 5.6875zm0 7.6094q11.719 0 18.406-7.625 6.7031-7.6094 6.7031-21.078 0-13.422-6.7031-21.078-6.6875-7.6406-18.406-7.6406-11.766 0-18.438 7.6406-6.6562 7.6562-6.6562 21.078 0 13.469 6.6562 21.078 6.6719 7.625 18.438 7.625zm4.6094 19.781h9.9062v-9.8594h-9.9062zm-19.094 0h9.9062v-9.8594h-9.9062z"/>
</defs>
<g transform="translate(848.71 970.03) scale(.1 -.1)">
<use xlink:href="#f"/>
<use x="61.279297" xlink:href="#e"/>
<use x="124.658203" xlink:href="#ak"/>
<use x="188.134766" xlink:href="#c"/>
<use x="249.658203" xlink:href="#q"/>
<use x="313.037109" xlink:href="#bc"/>
<use x="374.21875" xlink:href="#h"/>
<use x="415.332031" xlink:href="#p"/>
</g>
</g>
<g clip-path="url(#a)">
<defs>
<path id="az" d="m11.719 12.406h10.297v-8.4062l-8-15.625h-6.2969l4 15.625z"/>
</defs>
<g transform="translate(930.67 970.03) scale(.1 -.1)">
<use xlink:href="#az"/>
</g>
</g>
<g clip-path="url(#a)">
<g transform="translate(988.27 970.03) scale(.1 -.1)">
<use xlink:href="#f"/>
<use x="61.279297" xlink:href="#j"/>
<use x="89.0625" xlink:href="#s"/>
</g>
</g>
<g clip-path="url(#a)">
<g transform="translate(1053.3 970.03) scale(.1 -.1)">
<use xlink:href="#i"/>
<use x="27.783203" xlink:href="#w"/>
<use x="82.763672" xlink:href="#q"/>
</g>
</g>
<g clip-path="url(#a)">
<g transform="translate(1118.8 970.03) scale(.1 -.1)">
<use xlink:href="#v"/>
<use x="63.476562" xlink:href="#c"/>
<use x="125" xlink:href="#e"/>
</g>
</g>
<g clip-path="url(#a)">
<defs>
<path id="be" d="m5.5156 54.688h42.672v-8.2031l-33.781-39.312h33.781v-7.1719h-43.891v8.2031l33.797 39.312h-32.578z"/>
</defs>
<g transform="translate(1180.8 970.03) scale(.1 -.1)">
<use xlink:href="#j"/>
<use x="27.783203" xlink:href="#c"/>
<use x="89.306641" xlink:href="#p"/>
<use x="128.515625" xlink:href="#be"/>
<use x="181.005859" xlink:href="#p"/>
<use x="220.214844" xlink:href="#c"/>
<use x="281.738281" xlink:href="#e"/>
</g>
</g>
<g clip-path="url(#a)">
<defs>
<path id="bh" d="m37.109 75.984v-7.4844h-8.5938q-4.8281 0-6.7188-1.9531-1.875-1.9531-1.875-7.0312v-4.8281h14.797v-6.9844h-14.797v-47.703h-9.0312v47.703h-8.5938v6.9844h8.5938v3.8125q0 9.125 4.25 13.297 4.25 4.1875 13.469 4.1875z"/>
</defs>
<g transform="translate(1251.7 970.03) scale(.1 -.1)">
<use xlink:href="#l"/>
<use x="46.333984" xlink:href="#h"/>
<use x="85.197266" xlink:href="#ah"/>
<use x="146.378906" xlink:href="#aq"/>
<use x="209.855469" xlink:href="#bh"/>
<use x="245.060547" xlink:href="#c"/>
<use x="306.583984" xlink:href="#e"/>
</g>
</g>
<g clip-path="url(#a)">
<g transform="translate(1326.3 970.03) scale(.1 -.1)">
<use xlink:href="#k"/>
<use x="97.412109" xlink:href="#c"/>
<use x="158.935547" xlink:href="#i"/>
<use x="186.71875" xlink:href="#e"/>
<use x="250.097656" xlink:href="#c"/>
<use x="311.621094" xlink:href="#s"/>
</g>
</g>
<g clip-path="url(#a)">
<g transform="translate(1403 970.03) scale(.1 -.1)">
<use xlink:href="#am"/>
<use x="92.501953" xlink:href="#f"/>
<use x="153.78125" xlink:href="#s"/>
<use x="205.880859" xlink:href="#s"/>
<use x="257.980469" xlink:href="#c"/>
<use x="319.503906" xlink:href="#h"/>
</g>
</g>
<g clip-path="url(#a)">
<g transform="translate(1479.2 970.03) scale(.1 -.1)">
<use xlink:href="#ao"/>
<use x="59.179688" xlink:href="#ah"/>
<use x="120.361328" xlink:href="#h"/>
<use x="159.724609" xlink:href="#h"/>
<use x="200.837891" xlink:href="#f"/>
<use x="262.117188" xlink:href="#p"/>
<use x="301.326172" xlink:href="#c"/>
<use x="362.849609" xlink:href="#s"/>
</g>
</g>
<g clip-path="url(#a)">
<defs>
<path id="bg" d="m9.0781 75.984h9.0312v-44.875l26.812 23.578h11.469l-29-25.578 30.234-29.109h-11.719l-27.797 26.703v-26.703h-9.0312z"/>
</defs>
<g transform="translate(1567.9 970.03) scale(.1 -.1)">
<use xlink:href="#p"/>
<use x="39.208984" xlink:href="#h"/>
<use x="80.322266" xlink:href="#f"/>
<use x="141.601562" xlink:href="#e"/>
<use x="204.980469" xlink:href="#bg"/>
</g>
</g>
<g clip-path="url(#a)">
<defs>
<path id="g" d="m10.688 12.406h10.312v-12.406h-10.312z"/>
</defs>
<g transform="translate(1662.8 970.03) scale(.1 -.1)">
<use xlink:href="#g"/>
</g>
</g>
<g clip-path="url(#a)">
<defs>
<path id="ay" d="m4.8906 31.391h26.312v-8h-26.312z"/>
</defs>
<g transform="translate(1748.2 970.03) scale(.1 -.1)">
<use xlink:href="#ay"/>
</g>
</g>
<g clip-path="url(#a)">
<defs>
<path id="ba" d="m17.922 72.906v-27.109h-8.2969v27.109zm18.453 0v-27.109h-8.2969v27.109z"/>
</defs>
<g transform="translate(1835.5 970.03) scale(.1 -.1)">
<use xlink:href="#ba"/>
</g>
</g>
<g clip-path="url(#a)">
<defs>
<path id="d" d="m12.406 8.2969h16.109v55.625l-17.531-3.5156v8.9844l17.438 3.5156h9.8594v-64.609h16.109v-8.2969h-41.984z"/>
</defs>
<g transform="translate(651.46 48.82) scale(.1 -.1)">
<use xlink:href="#d"/>
<use x="63.623047" xlink:href="#g"/>
<use x="95.410156" xlink:href="#d"/>
</g>
</g>
<g clip-path="url(#a)">
<defs>
<path id="n" d="m19.188 8.2969h34.422v-8.2969h-46.281v8.2969q5.6094 5.8125 15.297 15.594 9.7031 9.7969 12.188 12.641 4.7344 5.3125 6.6094 9 1.8906 3.6875 1.8906 7.25 0 5.8125-4.0781 9.4688-4.0781 3.6719-10.625 3.6719-4.6406 0-9.7969-1.6094-5.1406-1.6094-11-4.8906v9.9688q5.9531 2.3906 11.125 3.6094 5.1875 1.2188 9.4844 1.2188 11.328 0 18.062-5.6719 6.7344-5.6562 6.7344-15.125 0-4.5-1.6875-8.5312-1.6719-4.0156-6.125-9.4844-1.2188-1.4219-7.7656-8.1875-6.5312-6.7656-18.453-18.922z"/>
</defs>
<g transform="translate(82.943 604.91) scale(.1 -.1)">
<use xlink:href="#d"/>
<use x="63.623047" xlink:href="#g"/>
<use x="95.410156" xlink:href="#n"/>
</g>
</g>
<g clip-path="url(#a)">
<defs>
<path id="m" d="m40.578 39.312q7.0781-1.5156 11.047-6.3125 3.9844-4.7812 3.9844-11.812 0-10.781-7.4219-16.703-7.4219-5.9062-21.094-5.9062-4.5781 0-9.4375 0.90625t-10.031 2.7188v9.5156q4.0938-2.3906 8.9688-3.6094 4.8906-1.2188 10.219-1.2188 9.2656 0 14.125 3.6562t4.8594 10.641q0 6.4531-4.5156 10.078-4.5156 3.6406-12.562 3.6406h-8.5v8.1094h8.8906q7.2656 0 11.125 2.9062t3.8594 8.375q0 5.6094-3.9844 8.6094-3.9688 3.0156-11.391 3.0156-4.0625 0-8.7031-0.89062-4.6406-0.875-10.203-2.7188v8.7812q5.625 1.5625 10.531 2.3438t9.25 0.78125q11.234 0 17.766-5.1094 6.5469-5.0938 6.5469-13.781 0-6.0625-3.4688-10.234t-9.8594-5.7812z"/>
</defs>
<g transform="translate(189.92 234.71) scale(.1 -.1)">
<use xlink:href="#d"/>
<use x="63.623047" xlink:href="#g"/>
<use x="95.410156" xlink:href="#m"/>
</g>
</g>
<g clip-path="url(#a)">
<defs>
<path id="o" d="m37.797 64.312-24.906-38.922h24.906zm-2.5938 8.5938h12.406v-47.516h10.406v-8.2031h-10.406v-17.188h-9.8125v17.188h-32.906v9.5156z"/>
</defs>
<g transform="translate(343.12 788.73) scale(.1 -.1)">
<use xlink:href="#d"/>
<use x="63.623047" xlink:href="#g"/>
<use x="95.410156" xlink:href="#o"/>
</g>
</g>
<g clip-path="url(#a)">
<defs>
<path id="r" d="m10.797 72.906h38.719v-8.3125h-29.688v-17.859q2.1406 0.73438 4.2812 1.0938 2.1562 0.35938 4.3125 0.35938 12.203 0 19.328-6.6875 7.1406-6.6875 7.1406-18.109 0-11.766-7.3281-18.297-7.3281-6.5156-20.656-6.5156-4.5938 0-9.3594 0.78125-4.75 0.78125-9.8281 2.3438v9.9219q4.3906-2.3906 9.0781-3.5625t9.9062-1.1719q8.4531 0 13.375 4.4375 4.9375 4.4375 4.9375 12.062 0 7.6094-4.9375 12.047-4.9219 4.4531-13.375 4.4531-3.9531 0-7.8906-0.875-3.9219-0.875-8.0156-2.7344z"/>
</defs>
<g transform="translate(515.75 234.71) scale(.1 -.1)">
<use xlink:href="#d"/>
<use x="63.623047" xlink:href="#g"/>
<use x="95.410156" xlink:href="#r"/>
</g>
</g>
<g clip-path="url(#a)">
<defs>
<path id="ab" d="m33.016 40.375q-6.6406 0-10.531-4.5469-3.875-4.5312-3.875-12.438 0-7.8594 3.875-12.438 3.8906-4.5625 10.531-4.5625t10.516 4.5625q3.875 4.5781 3.875 12.438 0 7.9062-3.875 12.438-3.875 4.5469-10.516 4.5469zm19.578 30.922v-8.9844q-3.7188 1.75-7.5 2.6719-3.7812 0.9375-7.5 0.9375-9.7656 0-14.922-6.5938-5.1406-6.5938-5.875-19.922 2.875 4.25 7.2188 6.5156 4.3594 2.2656 9.5781 2.2656 10.984 0 17.359-6.6719 6.375-6.6562 6.375-18.125 0-11.234-6.6406-18.031-6.6406-6.7812-17.672-6.7812-12.656 0-19.344 9.6875-6.6875 9.7031-6.6875 28.109 0 17.281 8.2031 27.562t22.016 10.281q3.7188 0 7.5-0.73438t7.8906-2.1875z"/>
</defs>
<g transform="translate(987.38 788.73) scale(.1 -.1)">
<use xlink:href="#d"/>
<use x="63.623047" xlink:href="#g"/>
<use x="95.410156" xlink:href="#ab"/>
</g>
</g>
<g clip-path="url(#a)">
<defs>
<path id="aa" d="m8.2031 72.906h46.875v-4.2031l-26.469-68.703h-10.297l24.906 64.594h-35.016z"/>
</defs>
<g transform="translate(1516.8 234.71) scale(.1 -.1)">
<use xlink:href="#d"/>
<use x="63.623047" xlink:href="#g"/>
<use x="95.410156" xlink:href="#aa"/>
</g>
</g>
<g clip-path="url(#a)">
<g transform="translate(1049.5 788.73) scale(.1 -.1)">
<use xlink:href="#d"/>
<use x="63.623047" xlink:href="#g"/>
<use x="95.410156" xlink:href="#d"/>
<use x="159.033203" xlink:href="#n"/>
</g>
</g>
<g clip-path="url(#a)">
<g transform="translate(1243.4 420.12) scale(.1 -.1)">
<use xlink:href="#d"/>
<use x="63.623047" xlink:href="#g"/>
<use x="95.410156" xlink:href="#d"/>
<use x="159.033203" xlink:href="#m"/>
</g>
</g>
<g clip-path="url(#a)">
<g transform="translate(1569.9 788.73) scale(.1 -.1)">
<use xlink:href="#d"/>
<use x="63.623047" xlink:href="#g"/>
<use x="95.410156" xlink:href="#d"/>
<use x="159.033203" xlink:href="#o"/>
</g>
</g>
<g clip-path="url(#a)">
<g transform="translate(1117.1 788.73) scale(.1 -.1)">
<use xlink:href="#d"/>
<use x="63.623047" xlink:href="#g"/>
<use x="95.410156" xlink:href="#d"/>
<use x="159.033203" xlink:href="#r"/>
</g>
</g>
<g clip-path="url(#a)">
<g transform="translate(1186.9 788.73) scale(.1 -.1)">
<use xlink:href="#d"/>
<use x="63.623047" xlink:href="#g"/>
<use x="95.410156" xlink:href="#d"/>
<use x="159.033203" xlink:href="#ab"/>
</g>
</g>
<g clip-path="url(#a)">
<g transform="translate(1259 788.73) scale(.1 -.1)">
<use xlink:href="#d"/>
<use x="63.623047" xlink:href="#g"/>
<use x="95.410156" xlink:href="#d"/>
<use x="159.033203" xlink:href="#aa"/>
</g>
</g>
<g clip-path="url(#a)">
<defs>
<path id="af" d="m31.781 34.625q-7.0312 0-11.062-3.7656-4.0156-3.7656-4.0156-10.344 0-6.5938 4.0156-10.359 4.0312-3.7656 11.062-3.7656t11.078 3.7812q4.0625 3.7969 4.0625 10.344 0 6.5781-4.0312 10.344-4.0156 3.7656-11.109 3.7656zm-9.8594 4.1875q-6.3438 1.5625-9.8906 5.9062-3.5312 4.3594-3.5312 10.609 0 8.7344 6.2188 13.812 6.2344 5.0781 17.062 5.0781 10.891 0 17.094-5.0781t6.2031-13.812q0-6.25-3.5469-10.609-3.5312-4.3438-9.8281-5.9062 7.125-1.6562 11.094-6.5 3.9844-4.8281 3.9844-11.797 0-10.609-6.4688-16.281-6.4688-5.6562-18.531-5.6562-12.047 0-18.531 5.6562-6.4688 5.6719-6.4688 16.281 0 6.9688 4 11.797 4.0156 4.8438 11.141 6.5zm-3.6094 15.578q0-5.6562 3.5312-8.8281 3.5469-3.1719 9.9375-3.1719 6.3594 0 9.9375 3.1719 3.5938 3.1719 3.5938 8.8281 0 5.6719-3.5938 8.8438-3.5781 3.1719-9.9375 3.1719-6.3906 0-9.9375-3.1719-3.5312-3.1719-3.5312-8.8438z"/>
</defs>
<g transform="translate(1410.7 604.91) scale(.1 -.1)">
<use xlink:href="#d"/>
<use x="63.623047" xlink:href="#g"/>
<use x="95.410156" xlink:href="#d"/>
<use x="159.033203" xlink:href="#af"/>
</g>
</g>
<g clip-path="url(#a)">
<defs>
<path id="ae" d="m10.984 1.5156v8.9844q3.7188-1.7656 7.5156-2.6875 3.8125-0.92188 7.4844-0.92188 9.7656 0 14.906 6.5625 5.1562 6.5625 5.8906 19.953-2.8281-4.2031-7.1875-6.4531-4.3438-2.25-9.6094-2.25-10.938 0-17.312 6.6094-6.375 6.625-6.375 18.109 0 11.219 6.6406 18 6.6406 6.7969 17.672 6.7969 12.656 0 19.312-9.7031 6.6719-9.6875 6.6719-28.141 0-17.234-8.1875-27.516-8.1719-10.281-21.984-10.281-3.7188 0-7.5312 0.73438-3.7969 0.73438-7.9062 2.2031zm19.625 30.906q6.6406 0 10.516 4.5312 3.8906 4.5469 3.8906 12.469 0 7.8594-3.8906 12.422-3.875 4.5625-10.516 4.5625t-10.516-4.5625-3.875-12.422q0-7.9219 3.875-12.469 3.875-4.5312 10.516-4.5312z"/>
</defs>
<g transform="translate(1333.4 788.73) scale(.1 -.1)">
<use xlink:href="#d"/>
<use x="63.623047" xlink:href="#g"/>
<use x="95.410156" xlink:href="#d"/>
<use x="159.033203" xlink:href="#ae"/>
</g>
</g>
<g clip-path="url(#a)">
<defs>
<path id="ag" d="m31.781 66.406q-7.6094 0-11.453-7.5-3.8281-7.4844-3.8281-22.531 0-14.984 3.8281-22.484 3.8438-7.5 11.453-7.5 7.6719 0 11.5 7.5 3.8438 7.5 3.8438 22.484 0 15.047-3.8438 22.531-3.8281 7.5-11.5 7.5zm0 7.8125q12.266 0 18.734-9.7031 6.4688-9.6875 6.4688-28.141 0-18.406-6.4688-28.109-6.4688-9.6875-18.734-9.6875-12.25 0-18.719 9.6875-6.4688 9.7031-6.4688 28.109 0 18.453 6.4688 28.141 6.4688 9.7031 18.719 9.7031z"/>
</defs>
<g transform="translate(1409.9 788.73) scale(.1 -.1)">
<use xlink:href="#d"/>
<use x="63.623047" xlink:href="#g"/>
<use x="95.410156" xlink:href="#n"/>
<use x="159.033203" xlink:href="#ag"/>
</g>
</g>
<g clip-path="url(#a)">
<g transform="translate(1488.8 788.73) scale(.1 -.1)">
<use xlink:href="#d"/>
<use x="63.623047" xlink:href="#g"/>
<use x="95.410156" xlink:href="#n"/>
<use x="159.033203" xlink:href="#d"/>
</g>
</g>
<g clip-path="url(#a)">
<g transform="translate(375.98 788.73) scale(.1 -.1)">
<use xlink:href="#d"/>
<use x="63.623047" xlink:href="#g"/>
<use x="95.410156" xlink:href="#n"/>
<use x="159.033203" xlink:href="#n"/>
</g>
</g>
<g clip-path="url(#a)">
<g transform="translate(414.28 788.73) scale(.1 -.1)">
<use xlink:href="#d"/>
<use x="63.623047" xlink:href="#g"/>
<use x="95.410156" xlink:href="#n"/>
<use x="159.033203" xlink:href="#m"/>
</g>
</g>
<g clip-path="url(#a)">
<g transform="translate(657.56 788.73) scale(.1 -.1)">
<use xlink:href="#d"/>
<use x="63.623047" xlink:href="#g"/>
<use x="95.410156" xlink:href="#n"/>
<use x="159.033203" xlink:href="#o"/>
</g>
</g>
<g clip-path="url(#a)">
<g transform="translate(497.63 788.73) scale(.1 -.1)">
<use xlink:href="#d"/>
<use x="63.623047" xlink:href="#g"/>
<use x="95.410156" xlink:href="#n"/>
<use x="159.033203" xlink:href="#r"/>
</g>
</g>
<g clip-path="url(#a)">
<g transform="translate(617.39 420.12) scale(.1 -.1)">
<use xlink:href="#d"/>
<use x="63.623047" xlink:href="#g"/>
<use x="95.410156" xlink:href="#n"/>
<use x="159.033203" xlink:href="#ab"/>
</g>
</g>
<g clip-path="url(#a)">
<g transform="translate(542.68 788.73) scale(.1 -.1)">
<use xlink:href="#d"/>
<use x="63.623047" xlink:href="#g"/>
<use x="95.410156" xlink:href="#n"/>
<use x="159.033203" xlink:href="#aa"/>
</g>
</g>
<g clip-path="url(#a)">
<g transform="translate(589.98 788.73) scale(.1 -.1)">
<use xlink:href="#d"/>
<use x="63.623047" xlink:href="#g"/>
<use x="95.410156" xlink:href="#n"/>
<use x="159.033203" xlink:href="#af"/>
</g>
</g>
<g clip-path="url(#a)">
<g transform="translate(719.51 604.91) scale(.1 -.1)">
<use xlink:href="#d"/>
<use x="63.623047" xlink:href="#g"/>
<use x="95.410156" xlink:href="#n"/>
<use x="159.033203" xlink:href="#ae"/>
</g>
</g>
<g clip-path="url(#a)">
<g transform="translate(639.54 788.73) scale(.1 -.1)">
<use xlink:href="#d"/>
<use x="63.623047" xlink:href="#g"/>
<use x="95.410156" xlink:href="#m"/>
<use x="159.033203" xlink:href="#ag"/>
</g>
</g>
<g clip-path="url(#a)">
<g transform="translate(691.35 788.73) scale(.1 -.1)">
<use xlink:href="#d"/>
<use x="63.623047" xlink:href="#g"/>
<use x="95.410156" xlink:href="#m"/>
<use x="159.033203" xlink:href="#d"/>
</g>
</g>
<g clip-path="url(#a)">
<g transform="translate(745.42 788.73) scale(.1 -.1)">
<use xlink:href="#d"/>
<use x="63.623047" xlink:href="#g"/>
<use x="95.410156" xlink:href="#m"/>
<use x="159.033203" xlink:href="#n"/>
</g>
</g>
<g clip-path="url(#a)">
<g transform="translate(801.73 788.73) scale(.1 -.1)">
<use xlink:href="#d"/>
<use x="63.623047" xlink:href="#g"/>
<use x="95.410156" xlink:href="#m"/>
<use x="159.033203" xlink:href="#m"/>
</g>
</g>
<g clip-path="url(#a)">
<g transform="translate(92.151 788.73) scale(.1 -.1)">
<use xlink:href="#d"/>
<use x="63.623047" xlink:href="#g"/>
<use x="95.410156" xlink:href="#m"/>
<use x="159.033203" xlink:href="#o"/>
</g>
</g>
<g clip-path="url(#a)">
<g transform="translate(103.41 788.73) scale(.1 -.1)">
<use xlink:href="#d"/>
<use x="63.623047" xlink:href="#g"/>
<use x="95.410156" xlink:href="#m"/>
<use x="159.033203" xlink:href="#r"/>
</g>
</g>
<g clip-path="url(#a)">
<g transform="translate(140.46 420.12) scale(.1 -.1)">
<use xlink:href="#d"/>
<use x="63.623047" xlink:href="#g"/>
<use x="95.410156" xlink:href="#m"/>
<use x="159.033203" xlink:href="#ab"/>
</g>
</g>
<g clip-path="url(#a)">
<g transform="translate(218.3 788.73) scale(.1 -.1)">
<use xlink:href="#d"/>
<use x="63.623047" xlink:href="#g"/>
<use x="95.410156" xlink:href="#m"/>
<use x="159.033203" xlink:href="#aa"/>
</g>
</g>
<g clip-path="url(#a)">
<g transform="translate(259.97 604.91) scale(.1 -.1)">
<use xlink:href="#d"/>
<use x="63.623047" xlink:href="#g"/>
<use x="95.410156" xlink:href="#m"/>
<use x="159.033203" xlink:href="#af"/>
</g>
</g>
<g clip-path="url(#a)">
<g transform="translate(306.15 788.73) scale(.1 -.1)">
<use xlink:href="#d"/>
<use x="63.623047" xlink:href="#g"/>
<use x="95.410156" xlink:href="#m"/>
<use x="159.033203" xlink:href="#ae"/>
</g>
</g>
<g clip-path="url(#a)">
<g transform="translate(245.33 788.73) scale(.1 -.1)">
<use xlink:href="#d"/>
<use x="63.623047" xlink:href="#g"/>
<use x="95.410156" xlink:href="#o"/>
<use x="159.033203" xlink:href="#ag"/>
</g>
</g>
<g clip-path="url(#a)">
<g transform="translate(274.61 788.73) scale(.1 -.1)">
<use xlink:href="#d"/>
<use x="63.623047" xlink:href="#g"/>
<use x="95.410156" xlink:href="#o"/>
<use x="159.033203" xlink:href="#d"/>
</g>
</g>
<g clip-path="url(#a)">
<g transform="translate(116.93 788.73) scale(.1 -.1)">
<use xlink:href="#d"/>
<use x="63.623047" xlink:href="#g"/>
<use x="95.410156" xlink:href="#o"/>
<use x="159.033203" xlink:href="#n"/>
</g>
</g>
<g clip-path="url(#a)">
<g transform="translate(132.7 788.73) scale(.1 -.1)">
<use xlink:href="#d"/>
<use x="63.623047" xlink:href="#g"/>
<use x="95.410156" xlink:href="#o"/>
<use x="159.033203" xlink:href="#m"/>
</g>
</g>
<g clip-path="url(#a)">
<g transform="translate(171.74 604.91) scale(.1 -.1)">
<use xlink:href="#d"/>
<use x="63.623047" xlink:href="#g"/>
<use x="95.410156" xlink:href="#o"/>
<use x="159.033203" xlink:href="#o"/>
</g>
</g>
<g clip-path="url(#a)">
<g transform="translate(150.72 788.73) scale(.1 -.1)">
<use xlink:href="#d"/>
<use x="63.623047" xlink:href="#g"/>
<use x="95.410156" xlink:href="#o"/>
<use x="159.033203" xlink:href="#r"/>
</g>
</g>
<g clip-path="url(#a)">
<g transform="translate(170.99 788.73) scale(.1 -.1)">
<use xlink:href="#d"/>
<use x="63.623047" xlink:href="#g"/>
<use x="95.410156" xlink:href="#o"/>
<use x="159.033203" xlink:href="#ab"/>
</g>
</g>
<g clip-path="url(#a)">
<g transform="translate(193.52 788.73) scale(.1 -.1)">
<use xlink:href="#d"/>
<use x="63.623047" xlink:href="#g"/>
<use x="95.410156" xlink:href="#o"/>
<use x="159.033203" xlink:href="#aa"/>
</g>
</g>
<g clip-path="url(#a)">
<g transform="translate(76.382 788.73) scale(.1 -.1)">
<use xlink:href="#d"/>
<use x="63.623047" xlink:href="#g"/>
<use x="95.410156" xlink:href="#o"/>
<use x="159.033203" xlink:href="#af"/>
</g>
</g>
<g clip-path="url(#a)">
<g transform="translate(83.14 788.73) scale(.1 -.1)">
<use xlink:href="#d"/>
<use x="63.623047" xlink:href="#g"/>
<use x="95.410156" xlink:href="#o"/>
<use x="159.033203" xlink:href="#ae"/>
</g>
</g>
<g clip-path="url(#a)">
<g transform="translate(921.12 788.73) scale(.1 -.1)">
<use xlink:href="#d"/>
<use x="63.623047" xlink:href="#g"/>
<use x="95.410156" xlink:href="#r"/>
<use x="159.033203" xlink:href="#ag"/>
</g>
</g>
<g clip-path="url(#a)">
<g transform="translate(1653.2 788.73) scale(.1 -.1)">
<use xlink:href="#d"/>
<use x="63.623047" xlink:href="#g"/>
<use x="95.410156" xlink:href="#r"/>
<use x="159.033203" xlink:href="#d"/>
</g>
</g>
<g clip-path="url(#a)">
<g transform="translate(1738.8 788.73) scale(.1 -.1)">
<use xlink:href="#d"/>
<use x="63.623047" xlink:href="#g"/>
<use x="95.410156" xlink:href="#r"/>
<use x="159.033203" xlink:href="#n"/>
</g>
</g>
<g clip-path="url(#a)">
<g transform="translate(1826.7 788.73) scale(.1 -.1)">
<use xlink:href="#d"/>
<use x="63.623047" xlink:href="#g"/>
<use x="95.410156" xlink:href="#r"/>
<use x="159.033203" xlink:href="#m"/>
</g>
</g>
<defs>
<clipPath id="a">
<rect width="1925.3" height="1013.3"/>
</clipPath>
</defs>
</svg>
