<?xml version="1.0" encoding="UTF-8"?>
<!DOCTYPE svg  PUBLIC '-//W3C//DTD SVG 1.1//EN'  'http://www.w3.org/Graphics/SVG/1.1/DTD/svg11.dtd'>
<svg width="1013.3pt" height="533.33pt" version="1.1" viewBox="0 0 1013.3 533.33" xmlns="http://www.w3.org/2000/svg" xmlns:xlink="http://www.w3.org/1999/xlink">
<defs>
<style type="text/css">*{stroke-linecap:butt;stroke-linejoin:round;}</style>
</defs>
<path d="m0 533.33h1013.3v-533.33h-1013.3z" fill="#fff"/>
<g fill="none" stroke="#000">
<path d="m464.92 24.242v81.544" clip-path="url(#a)"/>
<path d="m464.92 105.79 502.36 81.38" clip-path="url(#a)"/>
<path d="m464.92 105.79 502.36 81.38" clip-path="url(#a)"/>
<path d="m464.92 105.79v81.38" clip-path="url(#a)"/>
<path d="m464.92 187.17-272.41 81.175" clip-path="url(#a)"/>
<path d="m464.92 187.17 222.65 81.175" clip-path="url(#a)"/>
<path d="m464.92 187.17 49.76 242.55" clip-path="url(#a)"/>
<path d="m192.5 268.34-140.43 80.899" clip-path="url(#a)"/>
<path d="m192.5 268.34-86.364 80.899" clip-path="url(#a)"/>
<path d="m192.5 268.34-14.269 161.38" clip-path="url(#a)"/>
<path d="m192.5 268.34 141.94 161.38" clip-path="url(#a)"/>
<path d="m192.5 268.34 83.86 161.38" clip-path="url(#a)"/>
<path d="m192.5 268.34 179.99 80.899" clip-path="url(#a)"/>
<path d="m192.5 268.34-118.41 161.38" clip-path="url(#a)"/>
<path d="m192.5 268.34-46.311 161.38" clip-path="url(#a)"/>
<path d="m687.57 268.34-108.81 161.38" clip-path="url(#a)"/>
<path d="m687.57 268.34-40.72 161.38" clip-path="url(#a)"/>
<path d="m687.57 268.34 149.53 80.899" clip-path="url(#a)"/>
<path d="m578.76 429.72v79.373" clip-path="url(#a)"/>
<path d="m646.85 429.72v79.373" clip-path="url(#a)"/>
<path d="m837.1 349.24-118.16 80.477" clip-path="url(#a)"/>
<path d="m837.1 349.24-42.055 80.477" clip-path="url(#a)"/>
<path d="m837.1 349.24 38.05 80.477" clip-path="url(#a)"/>
<path d="m837.1 349.24 122.16 80.477" clip-path="url(#a)"/>
<path d="m718.95 429.72v79.373" clip-path="url(#a)"/>
<path d="m795.05 429.72v79.373" clip-path="url(#a)"/>
<path d="m52.069 349.24-6.0079 80.477" clip-path="url(#a)"/>
<path d="m52.069 349.24 6.0079 80.477" clip-path="url(#a)"/>
<path d="m106.14 349.24-12.016 80.477" clip-path="url(#a)"/>
<path d="m106.14 349.24 12.016 80.477" clip-path="url(#a)"/>
<path d="m178.23 429.72v79.373" clip-path="url(#a)"/>
<path d="m334.44 429.72-120.16 79.373" clip-path="url(#a)"/>
<path d="m334.44 429.72 120.16 79.373" clip-path="url(#a)"/>
<path d="m276.36 429.72-22.029 79.373" clip-path="url(#a)"/>
<path d="m276.36 429.72 22.029 79.373" clip-path="url(#a)"/>
<path d="m372.49 349.24-26.034 80.477" clip-path="url(#a)"/>
<path d="m372.49 349.24 26.034 80.477" clip-path="url(#a)"/>
<path d="m346.46 429.72v79.373" clip-path="url(#a)"/>
<path d="m398.52 429.72v79.373" clip-path="url(#a)"/>
<path d="m94.124 429.72v79.373" clip-path="url(#a)"/>
<path d="m118.16 429.72v79.373" clip-path="url(#a)"/>
<path d="m46.061 429.72v79.373" clip-path="url(#a)"/>
<path d="m58.076 429.72v79.373" clip-path="url(#a)"/>
<path d="m74.097 429.72v79.373" clip-path="url(#a)"/>
<path d="m146.19 429.72v79.373" clip-path="url(#a)"/>
<path d="m514.68 429.72v79.373" clip-path="url(#a)"/>
<path d="m875.15 429.72v79.373" clip-path="url(#a)"/>
<path d="m959.26 429.72v79.373" clip-path="url(#a)"/>
</g>
<path d="m458.65 62.006v6.0162q0 2.4 2.4 2.4h7.7425q2.4 0 2.4-2.4v-6.0162q0-2.4-2.4-2.4h-7.7425q-2.4 0-2.4 2.4z" clip-path="url(#a)" fill="#fff" stroke="#fff"/>
<g clip-path="url(#a)">
<defs>
<path id="t" d="m9.8125 72.906h9.8594v-29.891h35.844v29.891h9.8594v-72.906h-9.8594v34.719h-35.844v-34.719h-9.8594z"/>
</defs>
<g transform="translate(462.71 62.006) rotate(90) scale(.08 -.08)">
<use xlink:href="#t"/>
</g>
</g>
<path d="m712.71 152.28 4.7617 0.77138q2.3691 0.38379 2.7529-1.9853l1.2381-7.6429q0.38379-2.3691-1.9853-2.7529l-4.7617-0.77138q-2.3691-0.38379-2.7529 1.9853l-1.2381 7.6429q-0.38379 2.3691 1.9853 2.7529z" clip-path="url(#a)" fill="#fff" stroke="#fff"/>
<g clip-path="url(#a)">
<defs>
<path id="v" d="m19.672 64.797v-27.391h12.406q6.8906 0 10.641 3.5625 3.7656 3.5625 3.7656 10.156 0 6.5469-3.7656 10.109-3.75 3.5625-10.641 3.5625zm-9.8594 8.1094h22.266q12.266 0 18.531-5.5469 6.2812-5.5469 6.2812-16.234 0-10.797-6.2812-16.312-6.2656-5.5156-18.531-5.5156h-12.406v-29.297h-9.8594z"/>
</defs>
<g transform="translate(713.36 148.27) rotate(9.2018) scale(.08 -.08)">
<use xlink:href="#v"/>
</g>
</g>
<path d="m712.39 152.23 5.4021 0.87512q2.3691 0.38379 2.7529-1.9853l1.2381-7.6429q0.38379-2.3691-1.9853-2.7529l-5.4021-0.87512q-2.3691-0.38379-2.7529 1.9853l-1.2381 7.6429q-0.38379 2.3691 1.9853 2.7529z" clip-path="url(#a)" fill="#fff" stroke="#fff"/>
<g clip-path="url(#a)">
<defs>
<path id="r" d="m34.188 63.188-13.391-36.281h26.812zm-5.5781 9.7188h11.188l27.781-72.906h-10.25l-6.6406 18.703h-32.859l-6.6406-18.703h-10.406z"/>
</defs>
<g transform="translate(713.04 148.22) rotate(9.2018) scale(.08 -.08)">
<use xlink:href="#r"/>
</g>
</g>
<path d="m458.65 143.74v5.4725q0 2.4 2.4 2.4h7.7425q2.4 0 2.4-2.4v-5.4725q0-2.4-2.4-2.4h-7.7425q-2.4 0-2.4 2.4z" clip-path="url(#a)" fill="#fff" stroke="#fff"/>
<g clip-path="url(#a)">
<g transform="translate(462.71 143.74) rotate(90) scale(.08 -.08)">
<use xlink:href="#r"/>
</g>
</g>
<path d="m327.62 234.62 5.7657-1.7181q2.3001-0.68538 1.6147-2.9854l-2.2111-7.4201q-0.68538-2.3001-2.9854-1.6147l-5.7657 1.7181q-2.3001 0.68538-1.6147 2.9854l2.2111 7.4201q0.68538 2.3001 2.9854 1.6147z" clip-path="url(#a)" fill="#fff" stroke="#fff"/>
<g clip-path="url(#a)">
<g transform="translate(326.46 230.73) rotate(-16.593) scale(.08 -.08)">
<use xlink:href="#t"/>
</g>
</g>
<path d="m571.27 232.62 5.6523 2.0607q2.2548 0.82206 3.0769-1.4328l2.652-7.2741q0.82206-2.2548-1.4328-3.0769l-5.6523-2.0607q-2.2548-0.82206-3.0769 1.4328l-2.652 7.2741q-0.82206 2.2548 1.4328 3.0769z" clip-path="url(#a)" fill="#fff" stroke="#fff"/>
<g clip-path="url(#a)">
<g transform="translate(572.66 228.8) rotate(20.031) scale(.08 -.08)">
<use xlink:href="#t"/>
</g>
</g>
<path d="m483.07 306.83 1.1767 5.7355q0.48232 2.351 2.8334 1.8687l7.5845-1.556q2.351-0.48232 1.8687-2.8334l-1.1767-5.7355q-0.48232-2.351-2.8334-1.8687l-7.5845 1.556q-2.351 0.48232-1.8687 2.8334z" clip-path="url(#a)" fill="#fff" stroke="#fff"/>
<g clip-path="url(#a)">
<defs>
<path id="s" d="m8.6875 72.906h9.9219v-44.297q0-11.719 4.2344-16.875 4.25-5.1406 13.781-5.1406 9.4688 0 13.719 5.1406 4.25 5.1562 4.25 16.875v44.297h9.9062v-45.516q0-14.25-7.0625-21.531-7.0469-7.2812-20.812-7.2812-13.828 0-20.891 7.2812-7.0469 7.2812-7.0469 21.531z"/>
</defs>
<g transform="translate(487.05 306.02) rotate(78.407) scale(.08 -.08)">
<use xlink:href="#s"/>
</g>
</g>
<path d="m123.05 315.59 4.742-2.7317q2.0796-1.198 0.88163-3.2776l-3.8648-6.7089q-1.198-2.0796-3.2776-0.88163l-4.742 2.7317q-2.0796 1.198-0.88163 3.2776l3.8648 6.7089q1.198 2.0796 3.2776 0.88163z" clip-path="url(#a)" fill="#fff" stroke="#fff"/>
<g clip-path="url(#a)">
<g transform="translate(121.02 312.07) rotate(-29.945) scale(.08 -.08)">
<use xlink:href="#r"/>
</g>
</g>
<path d="m151.61 315.24 3.9939-3.7412q1.7516-1.6407 0.11082-3.3923l-5.2931-5.6506q-1.6407-1.7516-3.3923-0.11082l-3.9939 3.7412q-1.7516 1.6407-0.11082 3.3923l5.2931 5.6506q1.6407 1.7516 3.3923 0.11082z" clip-path="url(#a)" fill="#fff" stroke="#fff"/>
<g clip-path="url(#a)">
<g transform="translate(148.83 312.27) rotate(-43.129) scale(.08 -.08)">
<use xlink:href="#r"/>
</g>
</g>
<path d="m191.41 351.87 0.40526-4.5834q0.21138-2.3907-2.1793-2.6021l-7.7124-0.68192q-2.3907-0.21138-2.6021 2.1793l-0.40526 4.5834q-0.21138 2.3907 2.1793 2.6021l7.7124 0.68192q2.3907 0.21138 2.6021-2.1793z" clip-path="url(#a)" fill="#fff" stroke="#fff"/>
<g clip-path="url(#a)">
<defs>
<path id="w" d="m9.8125 72.906h41.891v-8.3125h-32.031v-21.484h28.906v-8.2969h-28.906v-34.812h-9.8594z"/>
</defs>
<g transform="translate(187.37 351.52) rotate(-84.947) scale(.08 -.08)">
<use xlink:href="#w"/>
</g>
</g>
<path d="m257.09 351.26 3.3542 3.8136q1.585 1.8021 3.3872 0.21709l5.8137-5.1134q1.8021-1.585 0.21709-3.3872l-3.3542-3.8136q-1.585-1.8021-3.3872-0.21709l-5.8137 5.1134q-1.8021 1.585-0.21709 3.3872z" clip-path="url(#a)" fill="#fff" stroke="#fff"/>
<g clip-path="url(#a)">
<defs>
<path id="ae" d="m53.516 70.516v-9.625q-5.6094 2.6875-10.594 4-4.9844 1.3281-9.625 1.3281-8.0469 0-12.422-3.125t-4.375-8.8906q0-4.8438 2.9062-7.3125 2.9062-2.4531 11.016-3.9688l5.9531-1.2188q11.031-2.1094 16.281-7.4062t5.25-14.172q0-10.609-7.1094-16.078-7.0938-5.4688-20.812-5.4688-5.1719 0-11.016 1.1719-5.8281 1.1719-12.078 3.4688v10.156q6-3.3594 11.766-5.0781 5.7656-1.7031 11.328-1.7031 8.4375 0 13.031 3.3125 4.5938 3.3281 4.5938 9.4844 0 5.3594-3.2969 8.3906t-10.812 4.5469l-6.0156 1.1719q-11.031 2.1875-15.969 6.875-4.9219 4.6875-4.9219 13.047 0 9.6719 6.8125 15.234t18.766 5.5625q5.1406 0 10.453-0.9375 5.3281-0.92188 10.891-2.7656z"/>
</defs>
<g transform="translate(260.14 348.58) rotate(48.667) scale(.08 -.08)">
<use xlink:href="#ae"/>
</g>
</g>
<path d="m227.45 349.19 2.8405 5.466q1.1067 2.1296 3.2363 1.023l6.8702-3.5702q2.1296-1.1067 1.023-3.2363l-2.8405-5.466q-1.1067-2.1296-3.2363-1.023l-6.8702 3.5702q-2.1296 1.1067-1.023 3.2363z" clip-path="url(#a)" fill="#fff" stroke="#fff"/>
<g clip-path="url(#a)">
<defs>
<path id="ah" d="m19.672 64.797v-56.688h11.922q15.094 0 22.094 6.8281 7 6.8438 7 21.594 0 14.641-7 21.453t-22.094 6.8125zm-9.8594 8.1094h20.266q21.188 0 31.094-8.8125 9.9219-8.8125 9.9219-27.562 0-18.859-9.9688-27.703-9.9531-8.8281-31.047-8.8281h-20.266z"/>
</defs>
<g transform="translate(231.05 347.31) rotate(62.541) scale(.08 -.08)">
<use xlink:href="#ah"/>
</g>
</g>
<path d="m277.43 313.39 4.9915 2.2435q2.189 0.98392 3.173-1.2051l3.1742-7.0619q0.98392-2.189-1.2051-3.173l-4.9915-2.2435q-2.189-0.98392-3.173 1.2051l-3.1742 7.0619q-0.98392 2.189 1.2051 3.173z" clip-path="url(#a)" fill="#fff" stroke="#fff"/>
<g clip-path="url(#a)">
<g transform="translate(279.1 309.68) rotate(24.203) scale(.08 -.08)">
<use xlink:href="#r"/>
</g>
</g>
<path d="m136.62 355.1 3.4636-4.7206q1.4198-1.935-0.51525-3.3548l-6.2424-4.5802q-1.935-1.4198-3.3548 0.51525l-3.4636 4.7206q-1.4198 1.935 0.51525 3.3548l6.2424 4.5802q1.935 1.4198 3.3548-0.51525z" clip-path="url(#a)" fill="#fff" stroke="#fff"/>
<g clip-path="url(#a)">
<g transform="translate(133.35 352.7) rotate(-53.732) scale(.08 -.08)">
<use xlink:href="#s"/>
</g>
</g>
<path d="m174.57 353.57 1.615-5.6278q0.66202-2.3069-1.6449-2.9689l-7.4421-2.1357q-2.3069-0.66202-2.9689 1.6449l-1.615 5.6278q-0.66202 2.3069 1.6449 2.9689l7.4421 2.1357q2.3069 0.66202 2.9689-1.6449z" clip-path="url(#a)" fill="#fff" stroke="#fff"/>
<g clip-path="url(#a)">
<g transform="translate(170.66 352.45) rotate(-73.988) scale(.08 -.08)">
<use xlink:href="#s"/>
</g>
</g>
<path d="m636.84 354.8 3.0594-4.5374q1.3417-1.9899-0.6482-3.3316l-6.4196-4.3285q-1.9899-1.3417-3.3316 0.6482l-3.0594 4.5374q-1.3417 1.9899 0.6482 3.3316l6.4196 4.3285q1.9899 1.3417 3.3316-0.6482z" clip-path="url(#a)" fill="#fff" stroke="#fff"/>
<g clip-path="url(#a)">
<g transform="translate(633.47 352.53) rotate(-56.01) scale(.08 -.08)">
<use xlink:href="#r"/>
</g>
</g>
<path d="m672.73 352.79 1.1258-4.4614q0.58719-2.3271-1.7399-2.9142l-7.5072-1.8943q-2.3271-0.58719-2.9142 1.7399l-1.1258 4.4614q-0.58719 2.3271 1.7399 2.9142l7.5072 1.8943q2.3271 0.58719 2.9142-1.7399z" clip-path="url(#a)" fill="#fff" stroke="#fff"/>
<g clip-path="url(#a)">
<g transform="translate(668.79 351.8) rotate(-75.838) scale(.08 -.08)">
<use xlink:href="#w"/>
</g>
</g>
<path d="m757.12 313.1 4.4669 2.4167q2.1109 1.142 3.2529-0.96884l3.6842-6.8098q1.142-2.1109-0.96884-3.2529l-4.4669-2.4167q-2.1109-1.142-3.2529 0.96884l-3.6842 6.8098q-1.142 2.1109 0.96884 3.2529z" clip-path="url(#a)" fill="#fff" stroke="#fff"/>
<g clip-path="url(#a)">
<g transform="translate(759.05 309.52) rotate(28.414) scale(.08 -.08)">
<use xlink:href="#ae"/>
</g>
</g>
<path d="m572.49 452.5v33.808q0 2.4 2.4 2.4h7.7425q2.4 0 2.4-2.4v-33.808q0-2.4-2.4-2.4h-7.7425q-2.4 0-2.4 2.4z" clip-path="url(#a)" fill="#fff" stroke="#fff"/>
<g clip-path="url(#a)">
<defs>
<path id="j" d="m-0.29688 72.906h61.672v-8.3125h-25.875v-64.594h-9.9062v64.594h-25.891z"/>
<path id="e" d="m56.203 29.594v-4.3906h-41.312q0.59375-9.2812 5.5938-14.141t13.938-4.8594q5.1719 0 10.031 1.2656t9.6562 3.8125v-8.5q-4.8438-2.0469-9.9219-3.125t-10.297-1.0781q-13.094 0-20.734 7.6094-7.6406 7.625-7.6406 20.625 0 13.422 7.25 21.297 7.25 7.8906 19.562 7.8906 11.031 0 17.453-7.1094 6.4219-7.0938 6.4219-19.297zm-8.9844 2.6406q-0.09375 7.3594-4.125 11.75-4.0312 4.4062-10.672 4.4062-7.5156 0-12.031-4.25t-5.2031-11.969z"/>
<path id="h" d="m41.109 46.297q-1.5156 0.875-3.2969 1.2812-1.7812 0.42188-3.9219 0.42188-7.625 0-11.703-4.9531t-4.0781-14.234v-28.812h-9.0312v54.688h9.0312v-8.5q2.8438 4.9844 7.375 7.3906 4.5469 2.4219 11.047 2.4219 0.92188 0 2.0469-0.125 1.125-0.10938 2.4844-0.35938z"/>
<path id="l" d="m52 44.188q3.375 6.0625 8.0625 8.9375t11.031 2.875q8.5469 0 13.188-5.9844 4.6406-5.9688 4.6406-17v-33.016h-9.0312v32.719q0 7.8594-2.7969 11.656-2.7812 3.8125-8.4844 3.8125-6.9844 0-11.047-4.6406-4.0469-4.625-4.0469-12.641v-30.906h-9.0312v32.719q0 7.9062-2.7812 11.688t-8.5938 3.7812q-6.8906 0-10.953-4.6562-4.0469-4.6562-4.0469-12.625v-30.906h-9.0312v54.688h9.0312v-8.5q3.0781 5.0312 7.375 7.4219t10.203 2.3906q5.9688 0 10.141-3.0312 4.1719-3.0156 6.1719-8.7812z"/>
<path id="g" d="m9.4219 54.688h8.9844v-54.688h-8.9844zm0 21.297h8.9844v-11.391h-8.9844z"/>
<path id="f" d="m54.891 33.016v-33.016h-8.9844v32.719q0 7.7656-3.0312 11.609-3.0312 3.8594-9.0781 3.8594-7.2812 0-11.484-4.6406-4.2031-4.625-4.2031-12.641v-30.906h-9.0312v54.688h9.0312v-8.5q3.2344 4.9375 7.5938 7.375 4.375 2.4375 10.094 2.4375 9.4219 0 14.25-5.8281 4.8438-5.8281 4.8438-17.156z"/>
<path id="i" d="m34.281 27.484q-10.891 0-15.094-2.4844t-4.2031-8.5q0-4.7812 3.1562-7.5938 3.1562-2.7969 8.5625-2.7969 7.4844 0 12 5.2969t4.5156 14.078v2zm17.922 3.7188v-31.203h-8.9844v8.2969q-3.0781-4.9688-7.6719-7.3438t-11.234-2.375q-8.3906 0-13.359 4.7188-4.9531 4.7188-4.9531 12.625 0 9.2188 6.1719 13.906 6.1875 4.6875 18.438 4.6875h12.609v0.89062q0 6.2031-4.0781 9.5938t-11.453 3.3906q-4.6875 0-9.1406-1.125-4.4375-1.125-8.5312-3.375v8.3125q4.9219 1.9062 9.5625 2.8438 4.6406 0.95312 9.0312 0.95312 11.875 0 17.734-6.1562 5.8594-6.1406 5.8594-18.641z"/>
<path id="k" d="m9.4219 75.984h8.9844v-75.984h-8.9844z"/>
</defs>
<g transform="translate(576.55 452.5) rotate(90) scale(.08 -.08)">
<use xlink:href="#j"/>
<use x="44.083984" xlink:href="#e"/>
<use x="105.607422" xlink:href="#h"/>
<use x="144.970703" xlink:href="#l"/>
<use x="242.382812" xlink:href="#g"/>
<use x="270.166016" xlink:href="#f"/>
<use x="333.544922" xlink:href="#i"/>
<use x="394.824219" xlink:href="#k"/>
</g>
</g>
<path d="m640.58 452.5v33.808q0 2.4 2.4 2.4h7.7425q2.4 0 2.4-2.4v-33.808q0-2.4-2.4-2.4h-7.7425q-2.4 0-2.4 2.4z" clip-path="url(#a)" fill="#fff" stroke="#fff"/>
<g clip-path="url(#a)">
<g transform="translate(644.64 452.5) rotate(90) scale(.08 -.08)">
<use xlink:href="#j"/>
<use x="44.083984" xlink:href="#e"/>
<use x="105.607422" xlink:href="#h"/>
<use x="144.970703" xlink:href="#l"/>
<use x="242.382812" xlink:href="#g"/>
<use x="270.166016" xlink:href="#f"/>
<use x="333.544922" xlink:href="#i"/>
<use x="394.824219" xlink:href="#k"/>
</g>
</g>
<path d="m779.47 396.09 4.178-2.8457q1.9836-1.3511 0.63254-3.3346l-4.3586-6.3992q-1.3511-1.9836-3.3346-0.63254l-4.178 2.8457q-1.9836 1.3511-0.63254 3.3346l4.3586 6.3992q1.3511 1.9836 3.3346 0.63254z" clip-path="url(#a)" fill="#fff" stroke="#fff"/>
<g clip-path="url(#a)">
<defs>
<path id="x" d="m9.8125 72.906h46.094v-8.3125h-36.234v-21.578h34.719v-8.2969h-34.719v-26.422h37.109v-8.2969h-46.969z"/>
</defs>
<g transform="translate(777.18 392.73) rotate(-34.259) scale(.08 -.08)">
<use xlink:href="#x"/>
</g>
</g>
<path d="m820.34 394.86 2.5873-4.951q1.1116-2.1271-1.0155-3.2386l-6.862-3.5859q-2.1271-1.1116-3.2386 1.0155l-2.5873 4.951q-1.1116 2.1271 1.0155 3.2386l6.862 3.5859q2.1271 1.1116 3.2386-1.0155z" clip-path="url(#a)" fill="#fff" stroke="#fff"/>
<g clip-path="url(#a)">
<defs>
<path id="q" d="m64.406 67.281v-10.391q-4.9844 4.6406-10.625 6.9219-5.6406 2.2969-11.984 2.2969-12.5 0-19.141-7.6406t-6.6406-22.094q0-14.406 6.6406-22.047t19.141-7.6406q6.3438 0 11.984 2.2969t10.625 6.9375v-10.312q-5.1719-3.5156-10.969-5.2812-5.7812-1.75-12.219-1.75-16.562 0-26.094 10.125-9.5156 10.141-9.5156 27.672 0 17.578 9.5156 27.703 9.5312 10.141 26.094 10.141 6.5312 0 12.312-1.7344 5.7969-1.7344 10.875-5.2031z"/>
</defs>
<g transform="translate(816.74 392.98) rotate(-62.41) scale(.08 -.08)">
<use xlink:href="#q"/>
</g>
</g>
<path d="m849.21 389.51 2.5026 5.2932q1.0258 2.1697 3.1956 1.1439l6.9996-3.3094q2.1697-1.0258 1.1439-3.1956l-2.5026-5.2932q-1.0258-2.1697-3.1956-1.1439l-6.9996 3.3094q-2.1697 1.0258-1.1439 3.1956z" clip-path="url(#a)" fill="#fff" stroke="#fff"/>
<g clip-path="url(#a)">
<g transform="translate(852.88 387.78) rotate(64.695) scale(.08 -.08)">
<use xlink:href="#s"/>
</g>
</g>
<path d="m892.29 393.11 4.8894 3.221q2.0042 1.3203 3.3245-0.68386l4.2594-6.4656q1.3203-2.0042-0.68386-3.3245l-4.8894-3.221q-2.0042-1.3203-3.3245 0.68386l-4.2594 6.4656q-1.3203 2.0042 0.68386 3.3245z" clip-path="url(#a)" fill="#fff" stroke="#fff"/>
<g clip-path="url(#a)">
<g transform="translate(894.52 389.71) rotate(33.376) scale(.08 -.08)">
<use xlink:href="#s"/>
</g>
</g>
<path d="m712.67 452.5v33.808q0 2.4 2.4 2.4h7.7425q2.4 0 2.4-2.4v-33.808q0-2.4-2.4-2.4h-7.7425q-2.4 0-2.4 2.4z" clip-path="url(#a)" fill="#fff" stroke="#fff"/>
<g clip-path="url(#a)">
<g transform="translate(716.74 452.5) rotate(90) scale(.08 -.08)">
<use xlink:href="#j"/>
<use x="44.083984" xlink:href="#e"/>
<use x="105.607422" xlink:href="#h"/>
<use x="144.970703" xlink:href="#l"/>
<use x="242.382812" xlink:href="#g"/>
<use x="270.166016" xlink:href="#f"/>
<use x="333.544922" xlink:href="#i"/>
<use x="394.824219" xlink:href="#k"/>
</g>
</g>
<path d="m788.77 452.5v33.808q0 2.4 2.4 2.4h7.7425q2.4 0 2.4-2.4v-33.808q0-2.4-2.4-2.4h-7.7425q-2.4 0-2.4 2.4z" clip-path="url(#a)" fill="#fff" stroke="#fff"/>
<g clip-path="url(#a)">
<g transform="translate(792.84 452.5) rotate(90) scale(.08 -.08)">
<use xlink:href="#j"/>
<use x="44.083984" xlink:href="#e"/>
<use x="105.607422" xlink:href="#h"/>
<use x="144.970703" xlink:href="#l"/>
<use x="242.382812" xlink:href="#g"/>
<use x="270.166016" xlink:href="#f"/>
<use x="333.544922" xlink:href="#i"/>
<use x="394.824219" xlink:href="#k"/>
</g>
</g>
<path d="m55.13 392.47 0.37633-5.041q0.17867-2.3933-2.2147-2.572l-7.721-0.5764q-2.3933-0.17867-2.572 2.2147l-0.37633 5.041q-0.17867 2.3933 2.2147 2.572l7.721 0.5764q2.3933 0.17867 2.572-2.2147z" clip-path="url(#a)" fill="#fff" stroke="#fff"/>
<g clip-path="url(#a)">
<g transform="translate(51.078 392.16) rotate(-85.731) scale(.08 -.08)">
<use xlink:href="#x"/>
</g>
</g>
<path d="m48.611 387.16 0.41588 5.5707q0.17867 2.3933 2.572 2.2147l7.721-0.5764q2.3933-0.17867 2.2147-2.572l-0.41588-5.5707q-0.17867-2.3933-2.572-2.2147l-7.721 0.5764q-2.3933 0.17867-2.2147 2.572z" clip-path="url(#a)" fill="#fff" stroke="#fff"/>
<g clip-path="url(#a)">
<g transform="translate(52.663 386.86) rotate(85.731) scale(.08 -.08)">
<use xlink:href="#q"/>
</g>
</g>
<path d="m105.96 392.91 0.74647-4.9996q0.35441-2.3737-2.0193-2.7281l-7.6576-1.1433q-2.3737-0.35441-2.7281 2.0193l-0.74647 4.9996q-0.35441 2.3737 2.0193 2.7281l7.6576 1.1433q2.3737 0.35441 2.7281-2.0193z" clip-path="url(#a)" fill="#fff" stroke="#fff"/>
<g clip-path="url(#a)">
<g transform="translate(101.94 392.3) rotate(-81.508) scale(.08 -.08)">
<use xlink:href="#x"/>
</g>
</g>
<path d="m105.53 387.64 0.82492 5.525q0.35441 2.3737 2.7281 2.0193l7.6576-1.1433q2.3737-0.35441 2.0193-2.7281l-0.82492-5.525q-0.35441-2.3737-2.7281-2.0193l-7.6576 1.1433q-2.3737 0.35441-2.0193 2.7281z" clip-path="url(#a)" fill="#fff" stroke="#fff"/>
<g clip-path="url(#a)">
<g transform="translate(109.55 387.04) rotate(81.508) scale(.08 -.08)">
<use xlink:href="#q"/>
</g>
</g>
<path d="m171.96 452.5v33.808q0 2.4 2.4 2.4h7.7425q2.4 0 2.4-2.4v-33.808q0-2.4-2.4-2.4h-7.7425q-2.4 0-2.4 2.4z" clip-path="url(#a)" fill="#fff" stroke="#fff"/>
<g clip-path="url(#a)">
<g transform="translate(176.03 452.5) rotate(90) scale(.08 -.08)">
<use xlink:href="#j"/>
<use x="44.083984" xlink:href="#e"/>
<use x="105.607422" xlink:href="#h"/>
<use x="144.970703" xlink:href="#l"/>
<use x="242.382812" xlink:href="#g"/>
<use x="270.166016" xlink:href="#f"/>
<use x="333.544922" xlink:href="#i"/>
<use x="394.824219" xlink:href="#k"/>
</g>
</g>
<path d="m263.71 483.95 28.209-18.634q2.0025-1.3228 0.67972-3.3254l-4.2675-6.4603q-1.3228-2.0025-3.3254-0.67972l-28.209 18.634q-2.0025 1.3228-0.67972 3.3254l4.2675 6.4603q1.3228 2.0025 3.3254 0.67972z" clip-path="url(#a)" fill="#fff" stroke="#fff"/>
<g clip-path="url(#a)">
<g transform="translate(261.47 480.56) rotate(-33.448) scale(.08 -.08)">
<use xlink:href="#j"/>
<use x="44.083984" xlink:href="#e"/>
<use x="105.607422" xlink:href="#h"/>
<use x="144.970703" xlink:href="#l"/>
<use x="242.382812" xlink:href="#g"/>
<use x="270.166016" xlink:href="#f"/>
<use x="333.544922" xlink:href="#i"/>
<use x="394.824219" xlink:href="#k"/>
</g>
</g>
<path d="m376.96 465.32 28.209 18.634q2.0025 1.3228 3.3254-0.67972l4.2675-6.4603q1.3228-2.0025-0.67972-3.3254l-28.209-18.634q-2.0025-1.3228-3.3254 0.67972l-4.2675 6.4603q-1.3228 2.0025 0.67972 3.3254z" clip-path="url(#a)" fill="#fff" stroke="#fff"/>
<g clip-path="url(#a)">
<g transform="translate(379.2 461.93) rotate(33.448) scale(.08 -.08)">
<use xlink:href="#j"/>
<use x="44.083984" xlink:href="#e"/>
<use x="105.607422" xlink:href="#h"/>
<use x="144.970703" xlink:href="#l"/>
<use x="242.382812" xlink:href="#g"/>
<use x="270.166016" xlink:href="#f"/>
<use x="333.544922" xlink:href="#i"/>
<use x="394.824219" xlink:href="#k"/>
</g>
</g>
<path d="m266.87 487.37 9.0411-32.576q0.64183-2.3126-1.6708-2.9544l-7.4605-2.0706q-2.3126-0.64183-2.9544 1.6708l-9.0411 32.576q-0.64183 2.3126 1.6708 2.9544l7.4605 2.0706q2.3126 0.64183 2.9544-1.6708z" clip-path="url(#a)" fill="#fff" stroke="#fff"/>
<g clip-path="url(#a)">
<g transform="translate(262.96 486.28) rotate(-74.489) scale(.08 -.08)">
<use xlink:href="#j"/>
<use x="44.083984" xlink:href="#e"/>
<use x="105.607422" xlink:href="#h"/>
<use x="144.970703" xlink:href="#l"/>
<use x="242.382812" xlink:href="#g"/>
<use x="270.166016" xlink:href="#f"/>
<use x="333.544922" xlink:href="#i"/>
<use x="394.824219" xlink:href="#k"/>
</g>
</g>
<path d="m276.81 454.79 9.0411 32.576q0.64183 2.3126 2.9544 1.6708l7.4605-2.0706q2.3126-0.64183 1.6708-2.9544l-9.0411-32.576q-0.64183-2.3126-2.9544-1.6708l-7.4605 2.0706q-2.3126 0.64183-1.6708 2.9544z" clip-path="url(#a)" fill="#fff" stroke="#fff"/>
<g clip-path="url(#a)">
<g transform="translate(280.73 453.71) rotate(74.489) scale(.08 -.08)">
<use xlink:href="#j"/>
<use x="44.083984" xlink:href="#e"/>
<use x="105.607422" xlink:href="#h"/>
<use x="144.970703" xlink:href="#l"/>
<use x="242.382812" xlink:href="#g"/>
<use x="270.166016" xlink:href="#f"/>
<use x="333.544922" xlink:href="#i"/>
<use x="394.824219" xlink:href="#k"/>
</g>
</g>
<path d="m364.58 394.05 1.7109-5.2889q0.7387-2.2835-1.5448-3.0222l-7.3666-2.3831q-2.2835-0.7387-3.0222 1.5448l-1.7109 5.2889q-0.7387 2.2835 1.5448 3.0222l7.3666 2.3831q2.2835 0.7387 3.0222-1.5448z" clip-path="url(#a)" fill="#fff" stroke="#fff"/>
<g clip-path="url(#a)">
<defs>
<path id="am" d="m44.391 34.188q3.1719-1.0781 6.1719-4.5938t6.0312-9.6719l10.016-19.922h-10.609l-9.3125 18.703q-3.625 7.3281-7.0156 9.7188t-9.25 2.3906h-10.75v-30.812h-9.8594v72.906h22.266q12.5 0 18.656-5.2344 6.1562-5.2188 6.1562-15.766 0-6.8906-3.2031-11.438-3.2031-4.5312-9.2969-6.2812zm-24.719 30.609v-25.875h12.406q7.125 0 10.766 3.2969t3.6406 9.6875-3.6406 9.6406-10.766 3.25z"/>
</defs>
<g transform="translate(360.72 392.8) rotate(-72.074) scale(.08 -.08)">
<use xlink:href="#am"/>
</g>
</g>
<path d="m378.68 388.75 1.7194 5.3151q0.7387 2.2835 3.0222 1.5448l7.3666-2.3831q2.2835-0.7387 1.5448-3.0222l-1.7194-5.3151q-0.7387-2.2835-3.0222-1.5448l-7.3666 2.3831q-2.2835 0.7387-1.5448 3.0222z" clip-path="url(#a)" fill="#fff" stroke="#fff"/>
<g clip-path="url(#a)">
<g transform="translate(382.55 387.5) rotate(72.074) scale(.08 -.08)">
<use xlink:href="#q"/>
</g>
</g>
<path d="m340.18 452.5v33.808q0 2.4 2.4 2.4h7.7425q2.4 0 2.4-2.4v-33.808q0-2.4-2.4-2.4h-7.7425q-2.4 0-2.4 2.4z" clip-path="url(#a)" fill="#fff" stroke="#fff"/>
<g clip-path="url(#a)">
<g transform="translate(344.25 452.5) rotate(90) scale(.08 -.08)">
<use xlink:href="#j"/>
<use x="44.083984" xlink:href="#e"/>
<use x="105.607422" xlink:href="#h"/>
<use x="144.970703" xlink:href="#l"/>
<use x="242.382812" xlink:href="#g"/>
<use x="270.166016" xlink:href="#f"/>
<use x="333.544922" xlink:href="#i"/>
<use x="394.824219" xlink:href="#k"/>
</g>
</g>
<path d="m392.25 452.5v33.808q0 2.4 2.4 2.4h7.7425q2.4 0 2.4-2.4v-33.808q0-2.4-2.4-2.4h-7.7425q-2.4 0-2.4 2.4z" clip-path="url(#a)" fill="#fff" stroke="#fff"/>
<g clip-path="url(#a)">
<g transform="translate(396.32 452.5) rotate(90) scale(.08 -.08)">
<use xlink:href="#j"/>
<use x="44.083984" xlink:href="#e"/>
<use x="105.607422" xlink:href="#h"/>
<use x="144.970703" xlink:href="#l"/>
<use x="242.382812" xlink:href="#g"/>
<use x="270.166016" xlink:href="#f"/>
<use x="333.544922" xlink:href="#i"/>
<use x="394.824219" xlink:href="#k"/>
</g>
</g>
<path d="m87.853 452.5v33.808q0 2.4 2.4 2.4h7.7425q2.4 0 2.4-2.4v-33.808q0-2.4-2.4-2.4h-7.7425q-2.4 0-2.4 2.4z" clip-path="url(#a)" fill="#fff" stroke="#fff"/>
<g clip-path="url(#a)">
<g transform="translate(91.916 452.5) rotate(90) scale(.08 -.08)">
<use xlink:href="#j"/>
<use x="44.083984" xlink:href="#e"/>
<use x="105.607422" xlink:href="#h"/>
<use x="144.970703" xlink:href="#l"/>
<use x="242.382812" xlink:href="#g"/>
<use x="270.166016" xlink:href="#f"/>
<use x="333.544922" xlink:href="#i"/>
<use x="394.824219" xlink:href="#k"/>
</g>
</g>
<path d="m111.88 452.5v33.808q0 2.4 2.4 2.4h7.7425q2.4 0 2.4-2.4v-33.808q0-2.4-2.4-2.4h-7.7425q-2.4 0-2.4 2.4z" clip-path="url(#a)" fill="#fff" stroke="#fff"/>
<g clip-path="url(#a)">
<g transform="translate(115.95 452.5) rotate(90) scale(.08 -.08)">
<use xlink:href="#j"/>
<use x="44.083984" xlink:href="#e"/>
<use x="105.607422" xlink:href="#h"/>
<use x="144.970703" xlink:href="#l"/>
<use x="242.382812" xlink:href="#g"/>
<use x="270.166016" xlink:href="#f"/>
<use x="333.544922" xlink:href="#i"/>
<use x="394.824219" xlink:href="#k"/>
</g>
</g>
<path d="m39.789 452.5v33.808q0 2.4 2.4 2.4h7.7425q2.4 0 2.4-2.4v-33.808q0-2.4-2.4-2.4h-7.7425q-2.4 0-2.4 2.4z" clip-path="url(#a)" fill="#fff" stroke="#fff"/>
<g clip-path="url(#a)">
<g transform="translate(43.853 452.5) rotate(90) scale(.08 -.08)">
<use xlink:href="#j"/>
<use x="44.083984" xlink:href="#e"/>
<use x="105.607422" xlink:href="#h"/>
<use x="144.970703" xlink:href="#l"/>
<use x="242.382812" xlink:href="#g"/>
<use x="270.166016" xlink:href="#f"/>
<use x="333.544922" xlink:href="#i"/>
<use x="394.824219" xlink:href="#k"/>
</g>
</g>
<path d="m51.805 452.5v33.808q0 2.4 2.4 2.4h7.7425q2.4 0 2.4-2.4v-33.808q0-2.4-2.4-2.4h-7.7425q-2.4 0-2.4 2.4z" clip-path="url(#a)" fill="#fff" stroke="#fff"/>
<g clip-path="url(#a)">
<g transform="translate(55.869 452.5) rotate(90) scale(.08 -.08)">
<use xlink:href="#j"/>
<use x="44.083984" xlink:href="#e"/>
<use x="105.607422" xlink:href="#h"/>
<use x="144.970703" xlink:href="#l"/>
<use x="242.382812" xlink:href="#g"/>
<use x="270.166016" xlink:href="#f"/>
<use x="333.544922" xlink:href="#i"/>
<use x="394.824219" xlink:href="#k"/>
</g>
</g>
<path d="m67.826 452.5v33.808q0 2.4 2.4 2.4h7.7425q2.4 0 2.4-2.4v-33.808q0-2.4-2.4-2.4h-7.7425q-2.4 0-2.4 2.4z" clip-path="url(#a)" fill="#fff" stroke="#fff"/>
<g clip-path="url(#a)">
<g transform="translate(71.89 452.5) rotate(90) scale(.08 -.08)">
<use xlink:href="#j"/>
<use x="44.083984" xlink:href="#e"/>
<use x="105.607422" xlink:href="#h"/>
<use x="144.970703" xlink:href="#l"/>
<use x="242.382812" xlink:href="#g"/>
<use x="270.166016" xlink:href="#f"/>
<use x="333.544922" xlink:href="#i"/>
<use x="394.824219" xlink:href="#k"/>
</g>
</g>
<path d="m139.92 452.5v33.808q0 2.4 2.4 2.4h7.7425q2.4 0 2.4-2.4v-33.808q0-2.4-2.4-2.4h-7.7425q-2.4 0-2.4 2.4z" clip-path="url(#a)" fill="#fff" stroke="#fff"/>
<g clip-path="url(#a)">
<g transform="translate(143.98 452.5) rotate(90) scale(.08 -.08)">
<use xlink:href="#j"/>
<use x="44.083984" xlink:href="#e"/>
<use x="105.607422" xlink:href="#h"/>
<use x="144.970703" xlink:href="#l"/>
<use x="242.382812" xlink:href="#g"/>
<use x="270.166016" xlink:href="#f"/>
<use x="333.544922" xlink:href="#i"/>
<use x="394.824219" xlink:href="#k"/>
</g>
</g>
<path d="m508.41 452.5v33.808q0 2.4 2.4 2.4h7.7425q2.4 0 2.4-2.4v-33.808q0-2.4-2.4-2.4h-7.7425q-2.4 0-2.4 2.4z" clip-path="url(#a)" fill="#fff" stroke="#fff"/>
<g clip-path="url(#a)">
<g transform="translate(512.47 452.5) rotate(90) scale(.08 -.08)">
<use xlink:href="#j"/>
<use x="44.083984" xlink:href="#e"/>
<use x="105.607422" xlink:href="#h"/>
<use x="144.970703" xlink:href="#l"/>
<use x="242.382812" xlink:href="#g"/>
<use x="270.166016" xlink:href="#f"/>
<use x="333.544922" xlink:href="#i"/>
<use x="394.824219" xlink:href="#k"/>
</g>
</g>
<path d="m868.88 452.5v33.808q0 2.4 2.4 2.4h7.7425q2.4 0 2.4-2.4v-33.808q0-2.4-2.4-2.4h-7.7425q-2.4 0-2.4 2.4z" clip-path="url(#a)" fill="#fff" stroke="#fff"/>
<g clip-path="url(#a)">
<g transform="translate(872.94 452.5) rotate(90) scale(.08 -.08)">
<use xlink:href="#j"/>
<use x="44.083984" xlink:href="#e"/>
<use x="105.607422" xlink:href="#h"/>
<use x="144.970703" xlink:href="#l"/>
<use x="242.382812" xlink:href="#g"/>
<use x="270.166016" xlink:href="#f"/>
<use x="333.544922" xlink:href="#i"/>
<use x="394.824219" xlink:href="#k"/>
</g>
</g>
<path d="m952.99 452.5v33.808q0 2.4 2.4 2.4h7.7425q2.4 0 2.4-2.4v-33.808q0-2.4-2.4-2.4h-7.7425q-2.4 0-2.4 2.4z" clip-path="url(#a)" fill="#fff" stroke="#fff"/>
<g clip-path="url(#a)">
<g transform="translate(957.05 452.5) rotate(90) scale(.08 -.08)">
<use xlink:href="#j"/>
<use x="44.083984" xlink:href="#e"/>
<use x="105.607422" xlink:href="#h"/>
<use x="144.970703" xlink:href="#l"/>
<use x="242.382812" xlink:href="#g"/>
<use x="270.166016" xlink:href="#f"/>
<use x="333.544922" xlink:href="#i"/>
<use x="394.824219" xlink:href="#k"/>
</g>
</g>
<defs>
<path id="b" d="m0 8.6603c2.2967 0 4.4997-0.9125 6.1237-2.5365 1.624-1.624 2.5365-3.827 2.5365-6.1237s-0.9125-4.4997-2.5365-6.1237c-1.624-1.624-3.827-2.5365-6.1237-2.5365s-4.4997 0.9125-6.1237 2.5365c-1.624 1.624-2.5365 3.827-2.5365 6.1237s0.9125 4.4997 2.5365 6.1237c1.624 1.624 3.827 2.5365 6.1237 2.5365z"/>
</defs>
<g clip-path="url(#a)" fill="#ffffff" stroke="#ffffff">
<use x="46.060606" y="509.090909" xlink:href="#b"/>
<use x="58.076416" y="509.090909" xlink:href="#b"/>
<use x="74.097497" y="509.090909" xlink:href="#b"/>
<use x="94.123847" y="509.090909" xlink:href="#b"/>
<use x="118.155468" y="509.090909" xlink:href="#b"/>
<use x="146.192358" y="509.090909" xlink:href="#b"/>
<use x="178.234519" y="509.090909" xlink:href="#b"/>
<use x="214.28195" y="509.090909" xlink:href="#b"/>
<use x="254.334651" y="509.090909" xlink:href="#b"/>
<use x="298.392622" y="509.090909" xlink:href="#b"/>
<use x="346.455863" y="509.090909" xlink:href="#b"/>
<use x="398.524374" y="509.090909" xlink:href="#b"/>
<use x="454.598155" y="509.090909" xlink:href="#b"/>
<use x="514.677207" y="509.090909" xlink:href="#b"/>
<use x="578.761528" y="509.090909" xlink:href="#b"/>
<use x="646.85112" y="509.090909" xlink:href="#b"/>
<use x="718.945982" y="509.090909" xlink:href="#b"/>
<use x="795.046113" y="509.090909" xlink:href="#b"/>
<use x="875.151515" y="509.090909" xlink:href="#b"/>
<use x="959.262187" y="509.090909" xlink:href="#b"/>
<use x="967.272727" y="187.166527" xlink:href="#b"/>
<use x="967.272727" y="187.166527" xlink:href="#b"/>
<use x="464.917289" y="24.242424" xlink:href="#b"/>
<use x="464.917289" y="105.786487" xlink:href="#b"/>
<use x="464.917289" y="187.166527" xlink:href="#b"/>
<use x="192.503294" y="268.341213" xlink:href="#b"/>
<use x="687.571366" y="268.341213" xlink:href="#b"/>
<use x="578.761528" y="429.717821" xlink:href="#b"/>
<use x="646.85112" y="429.717821" xlink:href="#b"/>
<use x="837.101449" y="349.240565" xlink:href="#b"/>
<use x="718.945982" y="429.717821" xlink:href="#b"/>
<use x="795.046113" y="429.717821" xlink:href="#b"/>
<use x="52.068511" y="349.240565" xlink:href="#b"/>
<use x="106.139657" y="349.240565" xlink:href="#b"/>
<use x="178.234519" y="429.717821" xlink:href="#b"/>
<use x="334.440053" y="429.717821" xlink:href="#b"/>
<use x="276.363636" y="429.717821" xlink:href="#b"/>
<use x="372.490119" y="349.240565" xlink:href="#b"/>
<use x="346.455863" y="429.717821" xlink:href="#b"/>
<use x="398.524374" y="429.717821" xlink:href="#b"/>
<use x="94.123847" y="429.717821" xlink:href="#b"/>
<use x="118.155468" y="429.717821" xlink:href="#b"/>
<use x="46.060606" y="429.717821" xlink:href="#b"/>
<use x="58.076416" y="429.717821" xlink:href="#b"/>
<use x="74.097497" y="429.717821" xlink:href="#b"/>
<use x="146.192358" y="429.717821" xlink:href="#b"/>
<use x="514.677207" y="429.717821" xlink:href="#b"/>
<use x="875.151515" y="429.717821" xlink:href="#b"/>
<use x="959.262187" y="429.717821" xlink:href="#b"/>
</g>
<g clip-path="url(#a)">
<g transform="translate(34.576 511.85) scale(.1 -.1)">
<use xlink:href="#ah"/>
<use x="77.001953" xlink:href="#e"/>
<use x="138.525391" xlink:href="#g"/>
<use x="166.308594" xlink:href="#f"/>
</g>
</g>
<g clip-path="url(#a)">
<defs>
<path id="ac" d="m8.5 21.578v33.109h8.9844v-32.766q0-7.7656 3.0156-11.656 3.0312-3.875 9.0938-3.875 7.2656 0 11.484 4.6406 4.2344 4.6406 4.2344 12.656v31h8.9844v-54.688h-8.9844v8.4062q-3.2656-4.9844-7.5938-7.4062-4.3125-2.4219-10.031-2.4219-9.4219 0-14.312 5.8594-4.875 5.8594-4.875 17.141z"/>
<path id="ad" d="m48.781 52.594v-8.4062q-3.8125 2.1094-7.6406 3.1562t-7.7344 1.0469q-8.75 0-13.594-5.5469-4.8281-5.5312-4.8281-15.547t4.8281-15.562q4.8438-5.5312 13.594-5.5312 3.9062 0 7.7344 1.0469t7.6406 3.1562v-8.3125q-3.7656-1.75-7.7969-2.625-4.0156-0.89062-8.5625-0.89062-12.359 0-19.641 7.7656-7.2656 7.7656-7.2656 20.953 0 13.375 7.3438 21.031 7.3594 7.6719 20.156 7.6719 4.1406 0 8.0938-0.85938 3.9531-0.84375 7.6719-2.5469z"/>
<path id="u" d="m54.891 33.016v-33.016h-8.9844v32.719q0 7.7656-3.0312 11.609-3.0312 3.8594-9.0781 3.8594-7.2812 0-11.484-4.6406-4.2031-4.625-4.2031-12.641v-30.906h-9.0312v75.984h9.0312v-29.797q3.2344 4.9375 7.5938 7.375 4.375 2.4375 10.094 2.4375 9.4219 0 14.25-5.8281 4.8438-5.8281 4.8438-17.156z"/>
<path id="n" d="m44.281 53.078v-8.5q-3.7969 1.9531-7.9062 2.9219-4.0938 0.98438-8.5 0.98438-6.6875 0-10.031-2.0469t-3.3438-6.1562q0-3.125 2.3906-4.9062t9.625-3.3906l3.0781-0.6875q9.5625-2.0469 13.594-5.7812t4.0312-10.422q0-7.625-6.0312-12.078-6.0312-4.4375-16.578-4.4375-4.3906 0-9.1562 0.85938t-10.031 2.5625v9.2812q4.9844-2.5938 9.8125-3.8906 4.8281-1.2812 9.5781-1.2812 6.3438 0 9.75 2.1719 3.4219 2.1719 3.4219 6.125 0 3.6562-2.4688 5.6094-2.4531 1.9531-10.812 3.7656l-3.125 0.73438q-8.3438 1.75-12.062 5.3906-3.7031 3.6406-3.7031 9.9844 0 7.7188 5.4688 11.906 5.4688 4.2031 15.531 4.2031 4.9688 0 9.3594-0.73438 4.4062-0.71875 8.1094-2.1875z"/>
</defs>
<g transform="translate(43.784 511.85) scale(.1 -.1)">
<use xlink:href="#w"/>
<use x="52.019531" xlink:href="#ac"/>
<use x="115.398438" xlink:href="#ad"/>
<use x="170.378906" xlink:href="#u"/>
<use x="233.757812" xlink:href="#n"/>
</g>
</g>
<g clip-path="url(#a)">
<defs>
<path id="d" d="m10.688 12.406h10.312v-12.406h-10.312z"/>
</defs>
<g transform="translate(69.33 511.85) scale(.1 -.1)">
<use xlink:href="#d"/>
<use x="31.787109" xlink:href="#d"/>
<use x="63.574219" xlink:href="#d"/>
</g>
</g>
<g clip-path="url(#a)">
<g transform="translate(80.808 511.85) scale(.1 -.1)">
<use xlink:href="#n"/>
<use x="52.099609" xlink:href="#e"/>
<use x="113.623047" xlink:href="#g"/>
<use x="141.40625" xlink:href="#f"/>
<use x="204.785156" xlink:href="#e"/>
</g>
</g>
<g clip-path="url(#a)">
<defs>
<path id="an" d="m39.406 66.219q-10.75 0-17.078-8.0156-6.3125-8-6.3125-21.828 0-13.766 6.3125-21.781 6.3281-8 17.078-8 10.734 0 17.016 8 6.2812 8.0156 6.2812 21.781 0 13.828-6.2812 21.828-6.2812 8.0156-17.016 8.0156zm0 8q15.328 0 24.5-10.281 9.1875-10.281 9.1875-27.562 0-17.234-9.1875-27.516-9.1719-10.281-24.5-10.281-15.375 0-24.594 10.25-9.2031 10.266-9.2031 27.547t9.2031 27.562q9.2188 10.281 24.594 10.281z"/>
</defs>
<g transform="translate(102.86 511.85) scale(.1 -.1)">
<use xlink:href="#an"/>
<use x="78.710938" xlink:href="#u"/>
<use x="142.089844" xlink:href="#h"/>
<use x="180.953125" xlink:href="#e"/>
<use x="242.476562" xlink:href="#f"/>
</g>
</g>
<g clip-path="url(#a)">
<g transform="translate(141.43 511.85) scale(.1 -.1)">
<use xlink:href="#d"/>
<use x="31.787109" xlink:href="#d"/>
<use x="63.574219" xlink:href="#d"/>
</g>
</g>
<g clip-path="url(#a)">
<g transform="translate(171.16 511.85) scale(.1 -.1)">
<use xlink:href="#n"/>
<use x="52.099609" xlink:href="#g"/>
<use x="79.882812" xlink:href="#e"/>
</g>
</g>
<g clip-path="url(#a)">
<g transform="translate(199.19 511.85) scale(.1 -.1)">
<use xlink:href="#n"/>
<use x="52.099609" xlink:href="#e"/>
<use x="113.623047" xlink:href="#u"/>
<use x="177.001953" xlink:href="#e"/>
<use x="238.525391" xlink:href="#f"/>
</g>
</g>
<g clip-path="url(#a)">
<g transform="translate(246.7 511.85) scale(.1 -.1)">
<use xlink:href="#e"/>
<use x="61.523438" xlink:href="#g"/>
<use x="89.306641" xlink:href="#f"/>
</g>
</g>
<g clip-path="url(#a)">
<defs>
<path id="al" d="m48.688 27.297q0 9.9062-4.0781 15.547t-11.203 5.6406q-7.1406 0-11.219-5.6406t-4.0781-15.547 4.0781-15.547 11.219-5.6406q7.125 0 11.203 5.6406t4.0781 15.547zm-30.578 19.094q2.8438 4.875 7.1562 7.2344 4.3281 2.375 10.328 2.375 9.9688 0 16.188-7.9062 6.2344-7.9062 6.2344-20.797t-6.2344-20.812q-6.2188-7.9062-16.188-7.9062-6 0-10.328 2.375-4.3125 2.375-7.1562 7.25v-8.2031h-9.0312v75.984h9.0312z"/>
</defs>
<g transform="translate(276.46 511.85) scale(.1 -.1)">
<use xlink:href="#al"/>
<use x="63.476562" xlink:href="#g"/>
<use x="91.259766" xlink:href="#n"/>
<use x="143.359375" xlink:href="#n"/>
<use x="195.458984" xlink:href="#ad"/>
<use x="250.439453" xlink:href="#u"/>
<use x="313.818359" xlink:href="#e"/>
<use x="375.341797" xlink:href="#f"/>
</g>
</g>
<g clip-path="url(#a)">
<defs>
<path id="as" d="m4.2031 54.688h8.9844l11.234-42.672 11.172 42.672h10.594l11.234-42.672 11.188 42.672h8.9844l-14.312-54.688h-10.594l-11.766 44.828-11.812-44.828h-10.609z"/>
</defs>
<g transform="translate(337.9 511.85) scale(.1 -.1)">
<use xlink:href="#as"/>
<use x="81.787109" xlink:href="#g"/>
<use x="109.570312" xlink:href="#e"/>
</g>
</g>
<g clip-path="url(#a)">
<defs>
<path id="aq" d="m30.609 48.391q-7.2188 0-11.422-5.6406t-4.2031-15.453 4.1719-15.453q4.1875-5.6406 11.453-5.6406 7.1875 0 11.375 5.6562 4.2031 5.6719 4.2031 15.438 0 9.7188-4.2031 15.406-4.1875 5.6875-11.375 5.6875zm0 7.6094q11.719 0 18.406-7.625 6.7031-7.6094 6.7031-21.078 0-13.422-6.7031-21.078-6.6875-7.6406-18.406-7.6406-11.766 0-18.438 7.6406-6.6562 7.6562-6.6562 21.078 0 13.469 6.6562 21.078 6.6719 7.625 18.438 7.625zm4.6094 19.781h9.9062v-9.8594h-9.9062zm-19.094 0h9.9062v-9.8594h-9.9062z"/>
</defs>
<g transform="translate(381.44 511.85) scale(.1 -.1)">
<use xlink:href="#t"/>
<use x="75.195312" xlink:href="#aq"/>
<use x="136.376953" xlink:href="#h"/>
<use x="175.740234" xlink:href="#f"/>
<use x="239.119141" xlink:href="#e"/>
<use x="300.642578" xlink:href="#h"/>
</g>
</g>
<g clip-path="url(#a)">
<g transform="translate(445.76 511.85) scale(.1 -.1)">
<use xlink:href="#i"/>
<use x="61.279297" xlink:href="#ac"/>
<use x="124.658203" xlink:href="#n"/>
</g>
</g>
<g clip-path="url(#a)">
<g transform="translate(509.91 511.85) scale(.1 -.1)">
<use xlink:href="#d"/>
<use x="31.787109" xlink:href="#d"/>
<use x="63.574219" xlink:href="#d"/>
</g>
</g>
<g clip-path="url(#a)">
<g transform="translate(571.69 511.85) scale(.1 -.1)">
<use xlink:href="#n"/>
<use x="52.099609" xlink:href="#g"/>
<use x="79.882812" xlink:href="#e"/>
</g>
</g>
<g clip-path="url(#a)">
<defs>
<path id="au" d="m45.406 46.391v29.594h8.9844v-75.984h-8.9844v8.2031q-2.8281-4.875-7.1562-7.25-4.3125-2.375-10.375-2.375-9.9062 0-16.141 7.9062-6.2188 7.9219-6.2188 20.812t6.2188 20.797q6.2344 7.9062 16.141 7.9062 6.0625 0 10.375-2.375 4.3281-2.3594 7.1562-7.2344zm-30.609-19.094q0-9.9062 4.0781-15.547t11.203-5.6406 11.219 5.6406q4.1094 5.6406 4.1094 15.547t-4.1094 15.547q-4.0938 5.6406-11.219 5.6406t-11.203-5.6406-4.0781-15.547z"/>
</defs>
<g transform="translate(636.51 511.85) scale(.1 -.1)">
<use xlink:href="#n"/>
<use x="52.099609" xlink:href="#g"/>
<use x="79.882812" xlink:href="#f"/>
<use x="143.261719" xlink:href="#au"/>
</g>
</g>
<g clip-path="url(#a)">
<defs>
<path id="ar" d="m5.5156 54.688h42.672v-8.2031l-33.781-39.312h33.781v-7.1719h-43.891v8.2031l33.797 39.312h-32.578z"/>
</defs>
<g transform="translate(713.15 511.85) scale(.1 -.1)">
<use xlink:href="#ar"/>
<use x="52.490234" xlink:href="#ac"/>
</g>
</g>
<g clip-path="url(#a)">
<defs>
<path id="at" d="m45.406 27.984q0 9.7656-4.0312 15.125-4.0156 5.375-11.297 5.375-7.2188 0-11.25-5.375-4.0312-5.3594-4.0312-15.125 0-9.7188 4.0312-15.094t11.25-5.375q7.2812 0 11.297 5.375 4.0312 5.375 4.0312 15.094zm8.9844-21.203q0-13.953-6.2031-20.766-6.1875-6.8125-18.984-6.8125-4.7344 0-8.9375 0.70312t-8.1562 2.1719v8.7344q3.9531-2.1406 7.8125-3.1562 3.8594-1.0312 7.8594-1.0312 8.8438 0 13.234 4.6094t4.3906 13.938v4.4531q-2.7812-4.8438-7.125-7.2344t-10.406-2.3906q-10.047 0-16.203 7.6562-6.1562 7.6719-6.1562 20.328 0 12.688 6.1562 20.344 6.1562 7.6719 16.203 7.6719 6.0625 0 10.406-2.3906t7.125-7.2188v8.2969h8.9844z"/>
</defs>
<g transform="translate(784.25 511.85) scale(.1 -.1)">
<use xlink:href="#k"/>
<use x="27.783203" xlink:href="#i"/>
<use x="89.0625" xlink:href="#f"/>
<use x="152.441406" xlink:href="#at"/>
</g>
</g>
<g clip-path="url(#a)">
<defs>
<path id="ap" d="m15.094 12.406h9.9062v-12.406h-9.9062zm0 60.5h9.9062v-31.984l-0.96875-17.438h-7.9219l-1.0156 17.438z"/>
</defs>
<g transform="translate(873.15 511.85) scale(.1 -.1)">
<use xlink:href="#ap"/>
</g>
</g>
<g clip-path="url(#a)">
<defs>
<path id="ao" d="m17.922 72.906v-27.109h-8.2969v27.109zm18.453 0v-27.109h-8.2969v27.109z"/>
</defs>
<g transform="translate(956.96 511.85) scale(.1 -.1)">
<use xlink:href="#ao"/>
</g>
</g>
<g clip-path="url(#a)">
<defs>
<path id="p" d="m9.8125 72.906h9.8594v-72.906h-9.8594z"/>
<path id="af" d="m9.8125 72.906h14.703l18.594-49.609 18.703 49.609h14.703v-72.906h-9.625v64.016l-18.797-50h-9.9062l-18.797 50v-64.016h-9.5781z"/>
<path id="ag" d="m9.8125 72.906h9.8594v-64.609h35.5v-8.2969h-45.359z"/>
</defs>
<g transform="translate(946.19 189.93) scale(.1 -.1)">
<use xlink:href="#p"/>
<use x="29.492188" xlink:href="#af"/>
<use x="115.771484" xlink:href="#v"/>
<use x="176.074219" xlink:href="#ag"/>
<use x="231.787109" xlink:href="#p"/>
<use x="261.279297" xlink:href="#q"/>
<use x="331.103516" xlink:href="#p"/>
<use x="360.595703" xlink:href="#j"/>
</g>
</g>
<g clip-path="url(#a)">
<g transform="translate(946.19 189.93) scale(.1 -.1)">
<use xlink:href="#p"/>
<use x="29.492188" xlink:href="#af"/>
<use x="115.771484" xlink:href="#v"/>
<use x="176.074219" xlink:href="#ag"/>
<use x="231.787109" xlink:href="#p"/>
<use x="261.279297" xlink:href="#q"/>
<use x="331.103516" xlink:href="#p"/>
<use x="360.595703" xlink:href="#j"/>
</g>
</g>
<g clip-path="url(#a)">
<defs>
<path id="c" d="m12.406 8.2969h16.109v55.625l-17.531-3.5156v8.9844l17.438 3.5156h9.8594v-64.609h16.109v-8.2969h-41.984z"/>
</defs>
<g transform="translate(456.97 27.002) scale(.1 -.1)">
<use xlink:href="#c"/>
<use x="63.623047" xlink:href="#d"/>
<use x="95.410156" xlink:href="#c"/>
</g>
</g>
<g clip-path="url(#a)">
<defs>
<path id="m" d="m19.188 8.2969h34.422v-8.2969h-46.281v8.2969q5.6094 5.8125 15.297 15.594 9.7031 9.7969 12.188 12.641 4.7344 5.3125 6.6094 9 1.8906 3.6875 1.8906 7.25 0 5.8125-4.0781 9.4688-4.0781 3.6719-10.625 3.6719-4.6406 0-9.7969-1.6094-5.1406-1.6094-11-4.8906v9.9688q5.9531 2.3906 11.125 3.6094 5.1875 1.2188 9.4844 1.2188 11.328 0 18.062-5.6719 6.7344-5.6562 6.7344-15.125 0-4.5-1.6875-8.5312-1.6719-4.0156-6.125-9.4844-1.2188-1.4219-7.7656-8.1875-6.5312-6.7656-18.453-18.922z"/>
</defs>
<g transform="translate(456.97 108.55) scale(.1 -.1)">
<use xlink:href="#c"/>
<use x="63.623047" xlink:href="#d"/>
<use x="95.410156" xlink:href="#m"/>
</g>
</g>
<g clip-path="url(#a)">
<defs>
<path id="aa" d="m8.2031 72.906h46.875v-4.2031l-26.469-68.703h-10.297l24.906 64.594h-35.016z"/>
</defs>
<g transform="translate(456.97 189.93) scale(.1 -.1)">
<use xlink:href="#c"/>
<use x="63.623047" xlink:href="#d"/>
<use x="95.410156" xlink:href="#aa"/>
</g>
</g>
<g clip-path="url(#a)">
<defs>
<path id="z" d="m31.781 34.625q-7.0312 0-11.062-3.7656-4.0156-3.7656-4.0156-10.344 0-6.5938 4.0156-10.359 4.0312-3.7656 11.062-3.7656t11.078 3.7812q4.0625 3.7969 4.0625 10.344 0 6.5781-4.0312 10.344-4.0156 3.7656-11.109 3.7656zm-9.8594 4.1875q-6.3438 1.5625-9.8906 5.9062-3.5312 4.3594-3.5312 10.609 0 8.7344 6.2188 13.812 6.2344 5.0781 17.062 5.0781 10.891 0 17.094-5.0781t6.2031-13.812q0-6.25-3.5469-10.609-3.5312-4.3438-9.8281-5.9062 7.125-1.6562 11.094-6.5 3.9844-4.8281 3.9844-11.797 0-10.609-6.4688-16.281-6.4688-5.6562-18.531-5.6562-12.047 0-18.531 5.6562-6.4688 5.6719-6.4688 16.281 0 6.9688 4 11.797 4.0156 4.8438 11.141 6.5zm-3.6094 15.578q0-5.6562 3.5312-8.8281 3.5469-3.1719 9.9375-3.1719 6.3594 0 9.9375 3.1719 3.5938 3.1719 3.5938 8.8281 0 5.6719-3.5938 8.8438-3.5781 3.1719-9.9375 3.1719-6.3906 0-9.9375-3.1719-3.5312-3.1719-3.5312-8.8438z"/>
</defs>
<g transform="translate(184.55 271.1) scale(.1 -.1)">
<use xlink:href="#c"/>
<use x="63.623047" xlink:href="#d"/>
<use x="95.410156" xlink:href="#z"/>
</g>
</g>
<g clip-path="url(#a)">
<defs>
<path id="y" d="m10.984 1.5156v8.9844q3.7188-1.7656 7.5156-2.6875 3.8125-0.92188 7.4844-0.92188 9.7656 0 14.906 6.5625 5.1562 6.5625 5.8906 19.953-2.8281-4.2031-7.1875-6.4531-4.3438-2.25-9.6094-2.25-10.938 0-17.312 6.6094-6.375 6.625-6.375 18.109 0 11.219 6.6406 18 6.6406 6.7969 17.672 6.7969 12.656 0 19.312-9.7031 6.6719-9.6875 6.6719-28.141 0-17.234-8.1875-27.516-8.1719-10.281-21.984-10.281-3.7188 0-7.5312 0.73438-3.7969 0.73438-7.9062 2.2031zm19.625 30.906q6.6406 0 10.516 4.5312 3.8906 4.5469 3.8906 12.469 0 7.8594-3.8906 12.422-3.875 4.5625-10.516 4.5625t-10.516-4.5625-3.875-12.422q0-7.9219 3.875-12.469 3.875-4.5312 10.516-4.5312z"/>
</defs>
<g transform="translate(679.62 271.1) scale(.1 -.1)">
<use xlink:href="#c"/>
<use x="63.623047" xlink:href="#d"/>
<use x="95.410156" xlink:href="#y"/>
</g>
</g>
<g clip-path="url(#a)">
<g transform="translate(567.63 432.48) scale(.1 -.1)">
<use xlink:href="#c"/>
<use x="63.623047" xlink:href="#d"/>
<use x="95.410156" xlink:href="#c"/>
<use x="159.033203" xlink:href="#c"/>
</g>
</g>
<g clip-path="url(#a)">
<g transform="translate(635.72 432.48) scale(.1 -.1)">
<use xlink:href="#c"/>
<use x="63.623047" xlink:href="#d"/>
<use x="95.410156" xlink:href="#c"/>
<use x="159.033203" xlink:href="#m"/>
</g>
</g>
<g clip-path="url(#a)">
<defs>
<path id="o" d="m40.578 39.312q7.0781-1.5156 11.047-6.3125 3.9844-4.7812 3.9844-11.812 0-10.781-7.4219-16.703-7.4219-5.9062-21.094-5.9062-4.5781 0-9.4375 0.90625t-10.031 2.7188v9.5156q4.0938-2.3906 8.9688-3.6094 4.8906-1.2188 10.219-1.2188 9.2656 0 14.125 3.6562t4.8594 10.641q0 6.4531-4.5156 10.078-4.5156 3.6406-12.562 3.6406h-8.5v8.1094h8.8906q7.2656 0 11.125 2.9062t3.8594 8.375q0 5.6094-3.9844 8.6094-3.9688 3.0156-11.391 3.0156-4.0625 0-8.7031-0.89062-4.6406-0.875-10.203-2.7188v8.7812q5.625 1.5625 10.531 2.3438t9.25 0.78125q11.234 0 17.766-5.1094 6.5469-5.0938 6.5469-13.781 0-6.0625-3.4688-10.234t-9.8594-5.7812z"/>
</defs>
<g transform="translate(825.97 352) scale(.1 -.1)">
<use xlink:href="#c"/>
<use x="63.623047" xlink:href="#d"/>
<use x="95.410156" xlink:href="#c"/>
<use x="159.033203" xlink:href="#o"/>
</g>
</g>
<g clip-path="url(#a)">
<defs>
<path id="ab" d="m37.797 64.312-24.906-38.922h24.906zm-2.5938 8.5938h12.406v-47.516h10.406v-8.2031h-10.406v-17.188h-9.8125v17.188h-32.906v9.5156z"/>
</defs>
<g transform="translate(707.81 432.48) scale(.1 -.1)">
<use xlink:href="#c"/>
<use x="63.623047" xlink:href="#d"/>
<use x="95.410156" xlink:href="#c"/>
<use x="159.033203" xlink:href="#ab"/>
</g>
</g>
<g clip-path="url(#a)">
<defs>
<path id="aj" d="m10.797 72.906h38.719v-8.3125h-29.688v-17.859q2.1406 0.73438 4.2812 1.0938 2.1562 0.35938 4.3125 0.35938 12.203 0 19.328-6.6875 7.1406-6.6875 7.1406-18.109 0-11.766-7.3281-18.297-7.3281-6.5156-20.656-6.5156-4.5938 0-9.3594 0.78125-4.75 0.78125-9.8281 2.3438v9.9219q4.3906-2.3906 9.0781-3.5625t9.9062-1.1719q8.4531 0 13.375 4.4375 4.9375 4.4375 4.9375 12.062 0 7.6094-4.9375 12.047-4.9219 4.4531-13.375 4.4531-3.9531 0-7.8906-0.875-3.9219-0.875-8.0156-2.7344z"/>
</defs>
<g transform="translate(783.91 432.48) scale(.1 -.1)">
<use xlink:href="#c"/>
<use x="63.623047" xlink:href="#d"/>
<use x="95.410156" xlink:href="#c"/>
<use x="159.033203" xlink:href="#aj"/>
</g>
</g>
<g clip-path="url(#a)">
<defs>
<path id="ai" d="m33.016 40.375q-6.6406 0-10.531-4.5469-3.875-4.5312-3.875-12.438 0-7.8594 3.875-12.438 3.8906-4.5625 10.531-4.5625t10.516 4.5625q3.875 4.5781 3.875 12.438 0 7.9062-3.875 12.438-3.875 4.5469-10.516 4.5469zm19.578 30.922v-8.9844q-3.7188 1.75-7.5 2.6719-3.7812 0.9375-7.5 0.9375-9.7656 0-14.922-6.5938-5.1406-6.5938-5.875-19.922 2.875 4.25 7.2188 6.5156 4.3594 2.2656 9.5781 2.2656 10.984 0 17.359-6.6719 6.375-6.6562 6.375-18.125 0-11.234-6.6406-18.031-6.6406-6.7812-17.672-6.7812-12.656 0-19.344 9.6875-6.6875 9.7031-6.6875 28.109 0 17.281 8.2031 27.562t22.016 10.281q3.7188 0 7.5-0.73438t7.8906-2.1875z"/>
</defs>
<g transform="translate(40.936 352) scale(.1 -.1)">
<use xlink:href="#c"/>
<use x="63.623047" xlink:href="#d"/>
<use x="95.410156" xlink:href="#c"/>
<use x="159.033203" xlink:href="#ai"/>
</g>
</g>
<g clip-path="url(#a)">
<g transform="translate(95.007 352) scale(.1 -.1)">
<use xlink:href="#c"/>
<use x="63.623047" xlink:href="#d"/>
<use x="95.410156" xlink:href="#c"/>
<use x="159.033203" xlink:href="#aa"/>
</g>
</g>
<g clip-path="url(#a)">
<g transform="translate(167.1 432.48) scale(.1 -.1)">
<use xlink:href="#c"/>
<use x="63.623047" xlink:href="#d"/>
<use x="95.410156" xlink:href="#c"/>
<use x="159.033203" xlink:href="#z"/>
</g>
</g>
<g clip-path="url(#a)">
<g transform="translate(323.31 432.48) scale(.1 -.1)">
<use xlink:href="#c"/>
<use x="63.623047" xlink:href="#d"/>
<use x="95.410156" xlink:href="#c"/>
<use x="159.033203" xlink:href="#y"/>
</g>
</g>
<g clip-path="url(#a)">
<defs>
<path id="ak" d="m31.781 66.406q-7.6094 0-11.453-7.5-3.8281-7.4844-3.8281-22.531 0-14.984 3.8281-22.484 3.8438-7.5 11.453-7.5 7.6719 0 11.5 7.5 3.8438 7.5 3.8438 22.484 0 15.047-3.8438 22.531-3.8281 7.5-11.5 7.5zm0 7.8125q12.266 0 18.734-9.7031 6.4688-9.6875 6.4688-28.141 0-18.406-6.4688-28.109-6.4688-9.6875-18.734-9.6875-12.25 0-18.719 9.6875-6.4688 9.7031-6.4688 28.109 0 18.453 6.4688 28.141 6.4688 9.7031 18.719 9.7031z"/>
</defs>
<g transform="translate(265.23 432.48) scale(.1 -.1)">
<use xlink:href="#c"/>
<use x="63.623047" xlink:href="#d"/>
<use x="95.410156" xlink:href="#m"/>
<use x="159.033203" xlink:href="#ak"/>
</g>
</g>
<g clip-path="url(#a)">
<g transform="translate(361.36 352) scale(.1 -.1)">
<use xlink:href="#c"/>
<use x="63.623047" xlink:href="#d"/>
<use x="95.410156" xlink:href="#m"/>
<use x="159.033203" xlink:href="#c"/>
</g>
</g>
<g clip-path="url(#a)">
<g transform="translate(335.32 432.48) scale(.1 -.1)">
<use xlink:href="#c"/>
<use x="63.623047" xlink:href="#d"/>
<use x="95.410156" xlink:href="#m"/>
<use x="159.033203" xlink:href="#ab"/>
</g>
</g>
<g clip-path="url(#a)">
<g transform="translate(387.39 432.48) scale(.1 -.1)">
<use xlink:href="#c"/>
<use x="63.623047" xlink:href="#d"/>
<use x="95.410156" xlink:href="#m"/>
<use x="159.033203" xlink:href="#aj"/>
</g>
</g>
<g clip-path="url(#a)">
<g transform="translate(82.991 432.48) scale(.1 -.1)">
<use xlink:href="#c"/>
<use x="63.623047" xlink:href="#d"/>
<use x="95.410156" xlink:href="#m"/>
<use x="159.033203" xlink:href="#ai"/>
</g>
</g>
<g clip-path="url(#a)">
<g transform="translate(107.02 432.48) scale(.1 -.1)">
<use xlink:href="#c"/>
<use x="63.623047" xlink:href="#d"/>
<use x="95.410156" xlink:href="#m"/>
<use x="159.033203" xlink:href="#aa"/>
</g>
</g>
<g clip-path="url(#a)">
<g transform="translate(34.928 432.48) scale(.1 -.1)">
<use xlink:href="#c"/>
<use x="63.623047" xlink:href="#d"/>
<use x="95.410156" xlink:href="#m"/>
<use x="159.033203" xlink:href="#z"/>
</g>
</g>
<g clip-path="url(#a)">
<g transform="translate(46.944 432.48) scale(.1 -.1)">
<use xlink:href="#c"/>
<use x="63.623047" xlink:href="#d"/>
<use x="95.410156" xlink:href="#m"/>
<use x="159.033203" xlink:href="#y"/>
</g>
</g>
<g clip-path="url(#a)">
<g transform="translate(62.965 432.48) scale(.1 -.1)">
<use xlink:href="#c"/>
<use x="63.623047" xlink:href="#d"/>
<use x="95.410156" xlink:href="#o"/>
<use x="159.033203" xlink:href="#ak"/>
</g>
</g>
<g clip-path="url(#a)">
<g transform="translate(135.06 432.48) scale(.1 -.1)">
<use xlink:href="#c"/>
<use x="63.623047" xlink:href="#d"/>
<use x="95.410156" xlink:href="#o"/>
<use x="159.033203" xlink:href="#c"/>
</g>
</g>
<g clip-path="url(#a)">
<g transform="translate(503.54 432.48) scale(.1 -.1)">
<use xlink:href="#c"/>
<use x="63.623047" xlink:href="#d"/>
<use x="95.410156" xlink:href="#o"/>
<use x="159.033203" xlink:href="#m"/>
</g>
</g>
<g clip-path="url(#a)">
<g transform="translate(864.02 432.48) scale(.1 -.1)">
<use xlink:href="#c"/>
<use x="63.623047" xlink:href="#d"/>
<use x="95.410156" xlink:href="#o"/>
<use x="159.033203" xlink:href="#o"/>
</g>
</g>
<g clip-path="url(#a)">
<g transform="translate(948.13 432.48) scale(.1 -.1)">
<use xlink:href="#c"/>
<use x="63.623047" xlink:href="#d"/>
<use x="95.410156" xlink:href="#o"/>
<use x="159.033203" xlink:href="#ab"/>
</g>
</g>
<defs>
<clipPath id="a">
<rect width="1013.3" height="533.33"/>
</clipPath>
</defs>
</svg>
