<?xml version="1.0" encoding="UTF-8"?>
<!DOCTYPE svg  PUBLIC '-//W3C//DTD SVG 1.1//EN'  'http://www.w3.org/Graphics/SVG/1.1/DTD/svg11.dtd'>
<svg width="1064pt" height="560pt" version="1.1" viewBox="0 0 1064 560" xmlns="http://www.w3.org/2000/svg" xmlns:xlink="http://www.w3.org/1999/xlink">
<defs>
<style type="text/css">*{stroke-linecap:butt;stroke-linejoin:round;}</style>
</defs>
<path d="m0 560h1064v-560h-1064z" fill="#fff"/>
<g fill="none" stroke="#000">
<path d="m572.59 25.455v85.621" clip-path="url(#a)"/>
<path d="m572.59 111.08-524.23 340.13" clip-path="url(#a)"/>
<path d="m572.59 111.08-452.26 85.449" clip-path="url(#a)"/>
<path d="m572.59 111.08-9.6405 340.13" clip-path="url(#a)"/>
<path d="m572.59 111.08 56.134 340.13" clip-path="url(#a)"/>
<path d="m572.59 111.08 200.58 255.63" clip-path="url(#a)"/>
<path d="m572.59 111.08 357.92 340.13" clip-path="url(#a)"/>
<path d="m572.59 111.08-71.546 340.13" clip-path="url(#a)"/>
<path d="m572.59 111.08 443.04 340.13" clip-path="url(#a)"/>
<path d="m48.364 451.2v83.342" clip-path="url(#a)"/>
<path d="m120.33 196.52-60.358 254.68" clip-path="url(#a)"/>
<path d="m120.33 196.52-44.881 254.68" clip-path="url(#a)"/>
<path d="m120.33 196.52-25.536 254.68" clip-path="url(#a)"/>
<path d="m120.33 196.52 133.1 85.233" clip-path="url(#a)"/>
<path d="m120.33 196.52-2.3215 254.68" clip-path="url(#a)"/>
<path d="m562.95 451.2v83.342" clip-path="url(#a)"/>
<path d="m628.73 451.2v83.342" clip-path="url(#a)"/>
<path d="m773.17 366.7-74.802 84.501" clip-path="url(#a)"/>
<path d="m773.17 366.7-1.2897 84.501" clip-path="url(#a)"/>
<path d="m773.17 366.7 76.092 84.501" clip-path="url(#a)"/>
<path d="m930.52 451.2v83.342" clip-path="url(#a)"/>
<path d="m698.37 451.2v83.342" clip-path="url(#a)"/>
<path d="m771.88 451.2v83.342" clip-path="url(#a)"/>
<path d="m849.27 451.2v83.342" clip-path="url(#a)"/>
<path d="m59.971 451.2v83.342" clip-path="url(#a)"/>
<path d="m75.447 451.2v83.342" clip-path="url(#a)"/>
<path d="m94.793 451.2v83.342" clip-path="url(#a)"/>
<path d="m253.43 281.76-158.63 169.45" clip-path="url(#a)" stroke-dasharray="3.7,1.6"/>
<path d="m253.43 281.76-108.33 169.45" clip-path="url(#a)"/>
<path d="m253.43 281.76-77.382 169.45" clip-path="url(#a)"/>
<path d="m253.43 281.76 19.345 84.944" clip-path="url(#a)"/>
<path d="m253.43 281.76 135.42 169.45" clip-path="url(#a)"/>
<path d="m253.43 281.76 189.59 169.45" clip-path="url(#a)"/>
<path d="m145.09 451.2v83.342" clip-path="url(#a)"/>
<path d="m176.04 451.2v83.342" clip-path="url(#a)"/>
<path d="m272.77 366.7-61.905 84.501" clip-path="url(#a)"/>
<path d="m272.77 366.7-23.215 84.501" clip-path="url(#a)"/>
<path d="m272.77 366.7 19.345 84.501" clip-path="url(#a)"/>
<path d="m272.77 366.7 65.775 84.501" clip-path="url(#a)"/>
<path d="m388.84 451.2v83.342" clip-path="url(#a)"/>
<path d="m443.01 451.2v83.342" clip-path="url(#a)"/>
<path d="m210.87 451.2v83.342" clip-path="url(#a)"/>
<path d="m249.56 451.2v83.342" clip-path="url(#a)"/>
<path d="m292.12 451.2v83.342" clip-path="url(#a)"/>
<path d="m338.55 451.2v83.342" clip-path="url(#a)"/>
<path d="m118.01 451.2v83.342" clip-path="url(#a)"/>
<path d="m501.05 451.2v83.342" clip-path="url(#a)"/>
<path d="m1015.6 451.2v83.342" clip-path="url(#a)"/>
</g>
<path d="m566.32 65.257v6.0162q0 2.4 2.4 2.4h7.7425q2.4 0 2.4-2.4v-6.0162q0-2.4-2.4-2.4h-7.7425q-2.4 0-2.4 2.4z" clip-path="url(#a)" fill="#fff" stroke="#fff"/>
<g clip-path="url(#a)">
<defs>
<path id="an" d="m9.8125 72.906h9.8594v-29.891h35.844v29.891h9.8594v-72.906h-9.8594v34.719h-35.844v-34.719h-9.8594z"/>
</defs>
<g transform="translate(570.39 65.257) rotate(90) scale(.08 -.08)">
<use xlink:href="#an"/>
</g>
</g>
<path d="m311.56 287.91 4.6632-3.0256q2.0134-1.3063 0.70706-3.3196l-4.2142-6.4952q-1.3063-2.0134-3.3196-0.70706l-4.6632 3.0256q-2.0134 1.3063-0.70706 3.3196l4.2142 6.4952q1.3063 2.0134 3.3196 0.70706z" clip-path="url(#a)" fill="#fff" stroke="#fff"/>
<g clip-path="url(#a)">
<defs>
<path id="v" d="m44.391 34.188q3.1719-1.0781 6.1719-4.5938t6.0312-9.6719l10.016-19.922h-10.609l-9.3125 18.703q-3.625 7.3281-7.0156 9.7188t-9.25 2.3906h-10.75v-30.812h-9.8594v72.906h22.266q12.5 0 18.656-5.2344 6.1562-5.2188 6.1562-15.766 0-6.8906-3.2031-11.438-3.2031-4.5312-9.2969-6.2812zm-24.719 30.609v-25.875h12.406q7.125 0 10.766 3.2969t3.6406 9.6875-3.6406 9.6406-10.766 3.25z"/>
</defs>
<g transform="translate(309.35 284.5) rotate(-32.976) scale(.08 -.08)">
<use xlink:href="#v"/>
</g>
</g>
<path d="m344.94 160.47 5.3774-1.016q2.3583-0.44556 1.9127-2.8038l-1.4374-7.6079q-0.44556-2.3583-2.8038-1.9127l-5.3774 1.016q-2.3583 0.44556-1.9127 2.8038l1.4374 7.6079q0.44556 2.3583 2.8038 1.9127z" clip-path="url(#a)" fill="#fff" stroke="#fff"/>
<g clip-path="url(#a)">
<defs>
<path id="n" d="m34.188 63.188-13.391-36.281h26.812zm-5.5781 9.7188h11.188l27.781-72.906h-10.25l-6.6406 18.703h-32.859l-6.6406-18.703h-10.406z"/>
</defs>
<g transform="translate(344.18 156.48) rotate(-10.699) scale(.08 -.08)">
<use xlink:href="#n"/>
</g>
</g>
<path d="m573.98 283.62 0.13036-4.5994q0.067998-2.399-2.331-2.467l-7.7394-0.21936q-2.399-0.067998-2.467 2.331l-0.13036 4.5994q-0.067997 2.399 2.331 2.467l7.7394 0.21936q2.399 0.067997 2.467-2.331z" clip-path="url(#a)" fill="#fff" stroke="#fff"/>
<g clip-path="url(#a)">
<defs>
<path id="o" d="m9.8125 72.906h41.891v-8.3125h-32.031v-21.484h28.906v-8.2969h-28.906v-34.812h-9.8594z"/>
</defs>
<g transform="translate(569.91 283.5) rotate(-88.376) scale(.08 -.08)">
<use xlink:href="#o"/>
</g>
</g>
<path d="m594.03 279.46 0.89112 5.3995q0.3908 2.368 2.7588 1.9772l7.6392-1.2608q2.368-0.3908 1.9772-2.7588l-0.89112-5.3995q-0.3908-2.368-2.7588-1.9772l-7.6392 1.2608q-2.368 0.3908-1.9772 2.7588z" clip-path="url(#a)" fill="#fff" stroke="#fff"/>
<g clip-path="url(#a)">
<g transform="translate(598.04 278.8) rotate(80.628) scale(.08 -.08)">
<use xlink:href="#n"/>
</g>
</g>
<path d="m666.26 240.61 3.3782 4.3053q1.4815 1.8881 3.3697 0.40659l6.0912-4.7795q1.8881-1.4815 0.40659-3.3697l-3.3782-4.3053q-1.4815-1.8881-3.3697-0.40659l-6.0912 4.7795q-1.8881 1.4815-0.40659 3.3697z" clip-path="url(#a)" fill="#fff" stroke="#fff"/>
<g clip-path="url(#a)">
<g transform="translate(669.46 238.1) rotate(51.88) scale(.08 -.08)">
<use xlink:href="#n"/>
</g>
</g>
<path d="m745.49 284.02 3.4967 3.3229q1.7398 1.6533 3.393-0.086498l5.3335-5.6125q1.6533-1.7398-0.086498-3.393l-3.4967-3.3229q-1.7398-1.6533-3.393 0.086497l-5.3335 5.6125q-1.6533 1.7398 0.086497 3.393z" clip-path="url(#a)" fill="#fff" stroke="#fff"/>
<g clip-path="url(#a)">
<defs>
<path id="w" d="m19.672 64.797v-27.391h12.406q6.8906 0 10.641 3.5625 3.7656 3.5625 3.7656 10.156 0 6.5469-3.7656 10.109-3.75 3.5625-10.641 3.5625zm-9.8594 8.1094h22.266q12.266 0 18.531-5.5469 6.2812-5.5469 6.2812-16.234 0-10.797-6.2812-16.312-6.2656-5.5156-18.531-5.5156h-12.406v-29.297h-9.8594z"/>
</defs>
<g transform="translate(748.29 281.08) rotate(43.54) scale(.08 -.08)">
<use xlink:href="#w"/>
</g>
</g>
<path d="m542.35 285.3 1.2052-5.7296q0.49403-2.3486-1.8546-2.8426l-7.5767-1.5938q-2.3486-0.49403-2.8426 1.8546l-1.2052 5.7296q-0.49403 2.3486 1.8546 2.8426l7.5767 1.5938q2.3486 0.49403 2.8426-1.8546z" clip-path="url(#a)" fill="#fff" stroke="#fff"/>
<g clip-path="url(#a)">
<defs>
<path id="u" d="m8.6875 72.906h9.9219v-44.297q0-11.719 4.2344-16.875 4.25-5.1406 13.781-5.1406 9.4688 0 13.719 5.1406 4.25 5.1562 4.25 16.875v44.297h9.9062v-45.516q0-14.25-7.0625-21.531-7.0469-7.2812-20.812-7.2812-13.828 0-20.891 7.2812-7.0469 7.2812-7.0469 21.531z"/>
</defs>
<g transform="translate(538.38 284.46) rotate(-78.121) scale(.08 -.08)">
<use xlink:href="#u"/>
</g>
</g>
<path d="m787.97 284.33 4.6442 3.5654q1.9037 1.4615 3.3652-0.44221l4.7148-6.1414q1.4615-1.9037-0.44221-3.3652l-4.6442-3.5654q-1.9037-1.4615-3.3652 0.44221l-4.7148 6.1414q-1.4615 1.9037 0.44221 3.3652z" clip-path="url(#a)" fill="#fff" stroke="#fff"/>
<g clip-path="url(#a)">
<g transform="translate(790.45 281.11) rotate(37.514) scale(.08 -.08)">
<use xlink:href="#u"/>
</g>
</g>
<path d="m42.092 475.97v33.808q0 2.4 2.4 2.4h7.7425q2.4 0 2.4-2.4v-33.808q0-2.4-2.4-2.4h-7.7425q-2.4 0-2.4 2.4z" clip-path="url(#a)" fill="#fff" stroke="#fff"/>
<g clip-path="url(#a)">
<defs>
<path id="l" d="m-0.29688 72.906h61.672v-8.3125h-25.875v-64.594h-9.9062v64.594h-25.891z"/>
<path id="c" d="m56.203 29.594v-4.3906h-41.312q0.59375-9.2812 5.5938-14.141t13.938-4.8594q5.1719 0 10.031 1.2656t9.6562 3.8125v-8.5q-4.8438-2.0469-9.9219-3.125t-10.297-1.0781q-13.094 0-20.734 7.6094-7.6406 7.625-7.6406 20.625 0 13.422 7.25 21.297 7.25 7.8906 19.562 7.8906 11.031 0 17.453-7.1094 6.4219-7.0938 6.4219-19.297zm-8.9844 2.6406q-0.09375 7.3594-4.125 11.75-4.0312 4.4062-10.672 4.4062-7.5156 0-12.031-4.25t-5.2031-11.969z"/>
<path id="g" d="m41.109 46.297q-1.5156 0.875-3.2969 1.2812-1.7812 0.42188-3.9219 0.42188-7.625 0-11.703-4.9531t-4.0781-14.234v-28.812h-9.0312v54.688h9.0312v-8.5q2.8438 4.9844 7.375 7.3906 4.5469 2.4219 11.047 2.4219 0.92188 0 2.0469-0.125 1.125-0.10938 2.4844-0.35938z"/>
<path id="j" d="m52 44.188q3.375 6.0625 8.0625 8.9375t11.031 2.875q8.5469 0 13.188-5.9844 4.6406-5.9688 4.6406-17v-33.016h-9.0312v32.719q0 7.8594-2.7969 11.656-2.7812 3.8125-8.4844 3.8125-6.9844 0-11.047-4.6406-4.0469-4.625-4.0469-12.641v-30.906h-9.0312v32.719q0 7.9062-2.7812 11.688t-8.5938 3.7812q-6.8906 0-10.953-4.6562-4.0469-4.6562-4.0469-12.625v-30.906h-9.0312v54.688h9.0312v-8.5q3.0781 5.0312 7.375 7.4219t10.203 2.3906q5.9688 0 10.141-3.0312 4.1719-3.0156 6.1719-8.7812z"/>
<path id="h" d="m9.4219 54.688h8.9844v-54.688h-8.9844zm0 21.297h8.9844v-11.391h-8.9844z"/>
<path id="e" d="m54.891 33.016v-33.016h-8.9844v32.719q0 7.7656-3.0312 11.609-3.0312 3.8594-9.0781 3.8594-7.2812 0-11.484-4.6406-4.2031-4.625-4.2031-12.641v-30.906h-9.0312v54.688h9.0312v-8.5q3.2344 4.9375 7.5938 7.375 4.375 2.4375 10.094 2.4375 9.4219 0 14.25-5.8281 4.8438-5.8281 4.8438-17.156z"/>
<path id="i" d="m34.281 27.484q-10.891 0-15.094-2.4844t-4.2031-8.5q0-4.7812 3.1562-7.5938 3.1562-2.7969 8.5625-2.7969 7.4844 0 12 5.2969t4.5156 14.078v2zm17.922 3.7188v-31.203h-8.9844v8.2969q-3.0781-4.9688-7.6719-7.3438t-11.234-2.375q-8.3906 0-13.359 4.7188-4.9531 4.7188-4.9531 12.625 0 9.2188 6.1719 13.906 6.1875 4.6875 18.438 4.6875h12.609v0.89062q0 6.2031-4.0781 9.5938t-11.453 3.3906q-4.6875 0-9.1406-1.125-4.4375-1.125-8.5312-3.375v8.3125q4.9219 1.9062 9.5625 2.8438 4.6406 0.95312 9.0312 0.95312 11.875 0 17.734-6.1562 5.8594-6.1406 5.8594-18.641z"/>
<path id="k" d="m9.4219 75.984h8.9844v-75.984h-8.9844z"/>
</defs>
<g transform="translate(46.156 475.97) rotate(90) scale(.08 -.08)">
<use xlink:href="#l"/>
<use x="44.083984" xlink:href="#c"/>
<use x="105.607422" xlink:href="#g"/>
<use x="144.970703" xlink:href="#j"/>
<use x="242.382812" xlink:href="#h"/>
<use x="270.166016" xlink:href="#e"/>
<use x="333.544922" xlink:href="#i"/>
<use x="394.824219" xlink:href="#k"/>
</g>
</g>
<path d="m95.721 327.55 1.0611-4.4772q0.55346-2.3353-1.7819-2.8888l-7.5338-1.7855q-2.3353-0.55346-2.8888 1.7819l-1.0611 4.4772q-0.55346 2.3353 1.7819 2.8888l7.5338 1.7855q2.3353 0.55346 2.8888-1.7819z" clip-path="url(#a)" fill="#fff" stroke="#fff"/>
<g clip-path="url(#a)">
<g transform="translate(91.767 326.61) rotate(-76.667) scale(.08 -.08)">
<use xlink:href="#o"/>
</g>
</g>
<path d="m103.63 327.44 0.87731-4.9783q0.41653-2.3636-1.947-2.7801l-7.625-1.3437q-2.3636-0.41653-2.7801 1.9471l-0.87731 4.9783q-0.41653 2.3636 1.947 2.7801l7.625 1.3437q2.3636 0.41653 2.7801-1.9471z" clip-path="url(#a)" fill="#fff" stroke="#fff"/>
<g clip-path="url(#a)">
<defs>
<path id="r" d="m9.8125 72.906h46.094v-8.3125h-36.234v-21.578h34.719v-8.2969h-34.719v-26.422h37.109v-8.2969h-46.969z"/>
</defs>
<g transform="translate(99.623 326.74) rotate(-80.006) scale(.08 -.08)">
<use xlink:href="#r"/>
</g>
</g>
<path d="m113.52 327.27 0.55732-5.5584q0.23944-2.388-2.1486-2.6275l-7.7039-0.77245q-2.388-0.23944-2.6275 2.1486l-0.55732 5.5584q-0.23944 2.388 2.1486 2.6275l7.7039 0.77245q2.388 0.23944 2.6275-2.1486z" clip-path="url(#a)" fill="#fff" stroke="#fff"/>
<g clip-path="url(#a)">
<defs>
<path id="x" d="m64.406 67.281v-10.391q-4.9844 4.6406-10.625 6.9219-5.6406 2.2969-11.984 2.2969-12.5 0-19.141-7.6406t-6.6406-22.094q0-14.406 6.6406-22.047t19.141-7.6406q6.3438 0 11.984 2.2969t10.625 6.9375v-10.312q-5.1719-3.5156-10.969-5.2812-5.7812-1.75-12.219-1.75-16.562 0-26.094 10.125-9.5156 10.141-9.5156 27.672 0 17.578 9.5156 27.703 9.5312 10.141 26.094 10.141 6.5312 0 12.312-1.7344 5.7969-1.7344 10.875-5.2031z"/>
</defs>
<g transform="translate(109.48 326.86) rotate(-84.274) scale(.08 -.08)">
<use xlink:href="#x"/>
</g>
</g>
<path d="m181.37 243.06 4.2569 2.7261q2.0211 1.2943 3.3154-0.72681l4.1754-6.5201q1.2943-2.0211-0.72681-3.3154l-4.2569-2.7261q-2.0211-1.2943-3.3154 0.72681l-4.1754 6.5201q-1.2943 2.0211 0.72681 3.3154z" clip-path="url(#a)" fill="#fff" stroke="#fff"/>
<g clip-path="url(#a)">
<g transform="translate(183.56 239.64) rotate(32.635) scale(.08 -.08)">
<use xlink:href="#r"/>
</g>
</g>
<path d="m125.41 326.85 0.053367-5.8548q0.021876-2.3999-2.378-2.4218l-7.7422-0.070571q-2.3999-0.021876-2.4218 2.378l-0.053367 5.8548q-0.021876 2.3999 2.378 2.4218l7.7422 0.070572q2.3999 0.021875 2.4218-2.378z" clip-path="url(#a)" fill="#fff" stroke="#fff"/>
<g clip-path="url(#a)">
<g transform="translate(121.35 326.81) rotate(-89.478) scale(.08 -.08)">
<use xlink:href="#u"/>
</g>
</g>
<path d="m556.68 475.97v33.808q0 2.4 2.4 2.4h7.7425q2.4 0 2.4-2.4v-33.808q0-2.4-2.4-2.4h-7.7425q-2.4 0-2.4 2.4z" clip-path="url(#a)" fill="#fff" stroke="#fff"/>
<g clip-path="url(#a)">
<g transform="translate(560.75 475.97) rotate(90) scale(.08 -.08)">
<use xlink:href="#l"/>
<use x="44.083984" xlink:href="#c"/>
<use x="105.607422" xlink:href="#g"/>
<use x="144.970703" xlink:href="#j"/>
<use x="242.382812" xlink:href="#h"/>
<use x="270.166016" xlink:href="#e"/>
<use x="333.544922" xlink:href="#i"/>
<use x="394.824219" xlink:href="#k"/>
</g>
</g>
<path d="m622.46 475.97v33.808q0 2.4 2.4 2.4h7.7425q2.4 0 2.4-2.4v-33.808q0-2.4-2.4-2.4h-7.7425q-2.4 0-2.4 2.4z" clip-path="url(#a)" fill="#fff" stroke="#fff"/>
<g clip-path="url(#a)">
<g transform="translate(626.52 475.97) rotate(90) scale(.08 -.08)">
<use xlink:href="#l"/>
<use x="44.083984" xlink:href="#c"/>
<use x="105.607422" xlink:href="#g"/>
<use x="144.970703" xlink:href="#j"/>
<use x="242.382812" xlink:href="#h"/>
<use x="270.166016" xlink:href="#e"/>
<use x="333.544922" xlink:href="#i"/>
<use x="394.824219" xlink:href="#k"/>
</g>
</g>
<path d="m738.94 414.83 3.0498-3.4453q1.5908-1.797-0.20626-3.3878l-5.7974-5.132q-1.797-1.5908-3.3878 0.20626l-3.0498 3.4453q-1.5908 1.797 0.20626 3.3878l5.7974 5.132q1.797 1.5908 3.3878-0.20626z" clip-path="url(#a)" fill="#fff" stroke="#fff"/>
<g clip-path="url(#a)">
<g transform="translate(735.9 412.14) rotate(-48.484) scale(.08 -.08)">
<use xlink:href="#o"/>
</g>
</g>
<path d="m778.76 411.58 0.077143-5.0544q0.036626-2.3997-2.3631-2.4363l-7.7416-0.11816q-2.3997-0.036626-2.4363 2.3631l-0.077143 5.0544q-0.036626 2.3997 2.3631 2.4363l7.7416 0.11816q2.3997 0.036625 2.4363-2.3631z" clip-path="url(#a)" fill="#fff" stroke="#fff"/>
<g clip-path="url(#a)">
<g transform="translate(774.7 411.51) rotate(-89.126) scale(.08 -.08)">
<use xlink:href="#r"/>
</g>
</g>
<path d="m804.69 411.07 3.7381 4.1512q1.606 1.7835 3.3895 0.17748l5.7536-5.181q1.7835-1.606 0.17748-3.3895l-3.7381-4.1512q-1.606-1.7835-3.3895-0.17748l-5.7536 5.181q-1.7835 1.606-0.17748 3.3895z" clip-path="url(#a)" fill="#fff" stroke="#fff"/>
<g clip-path="url(#a)">
<g transform="translate(807.71 408.35) rotate(47.997) scale(.08 -.08)">
<use xlink:href="#x"/>
</g>
</g>
<path d="m924.25 475.97v33.808q0 2.4 2.4 2.4h7.7425q2.4 0 2.4-2.4v-33.808q0-2.4-2.4-2.4h-7.7425q-2.4 0-2.4 2.4z" clip-path="url(#a)" fill="#fff" stroke="#fff"/>
<g clip-path="url(#a)">
<g transform="translate(928.31 475.97) rotate(90) scale(.08 -.08)">
<use xlink:href="#l"/>
<use x="44.083984" xlink:href="#c"/>
<use x="105.607422" xlink:href="#g"/>
<use x="144.970703" xlink:href="#j"/>
<use x="242.382812" xlink:href="#h"/>
<use x="270.166016" xlink:href="#e"/>
<use x="333.544922" xlink:href="#i"/>
<use x="394.824219" xlink:href="#k"/>
</g>
</g>
<path d="m692.1 475.97v33.808q0 2.4 2.4 2.4h7.7425q2.4 0 2.4-2.4v-33.808q0-2.4-2.4-2.4h-7.7425q-2.4 0-2.4 2.4z" clip-path="url(#a)" fill="#fff" stroke="#fff"/>
<g clip-path="url(#a)">
<g transform="translate(696.16 475.97) rotate(90) scale(.08 -.08)">
<use xlink:href="#l"/>
<use x="44.083984" xlink:href="#c"/>
<use x="105.607422" xlink:href="#g"/>
<use x="144.970703" xlink:href="#j"/>
<use x="242.382812" xlink:href="#h"/>
<use x="270.166016" xlink:href="#e"/>
<use x="333.544922" xlink:href="#i"/>
<use x="394.824219" xlink:href="#k"/>
</g>
</g>
<path d="m765.61 475.97v33.808q0 2.4 2.4 2.4h7.7425q2.4 0 2.4-2.4v-33.808q0-2.4-2.4-2.4h-7.7425q-2.4 0-2.4 2.4z" clip-path="url(#a)" fill="#fff" stroke="#fff"/>
<g clip-path="url(#a)">
<g transform="translate(769.68 475.97) rotate(90) scale(.08 -.08)">
<use xlink:href="#l"/>
<use x="44.083984" xlink:href="#c"/>
<use x="105.607422" xlink:href="#g"/>
<use x="144.970703" xlink:href="#j"/>
<use x="242.382812" xlink:href="#h"/>
<use x="270.166016" xlink:href="#e"/>
<use x="333.544922" xlink:href="#i"/>
<use x="394.824219" xlink:href="#k"/>
</g>
</g>
<path d="m842.99 475.97v33.808q0 2.4 2.4 2.4h7.7425q2.4 0 2.4-2.4v-33.808q0-2.4-2.4-2.4h-7.7425q-2.4 0-2.4 2.4z" clip-path="url(#a)" fill="#fff" stroke="#fff"/>
<g clip-path="url(#a)">
<g transform="translate(847.06 475.97) rotate(90) scale(.08 -.08)">
<use xlink:href="#l"/>
<use x="44.083984" xlink:href="#c"/>
<use x="105.607422" xlink:href="#g"/>
<use x="144.970703" xlink:href="#j"/>
<use x="242.382812" xlink:href="#h"/>
<use x="270.166016" xlink:href="#e"/>
<use x="333.544922" xlink:href="#i"/>
<use x="394.824219" xlink:href="#k"/>
</g>
</g>
<path d="m53.7 475.97v33.808q0 2.4 2.4 2.4h7.7425q2.4 0 2.4-2.4v-33.808q0-2.4-2.4-2.4h-7.7425q-2.4 0-2.4 2.4z" clip-path="url(#a)" fill="#fff" stroke="#fff"/>
<g clip-path="url(#a)">
<g transform="translate(57.763 475.97) rotate(90) scale(.08 -.08)">
<use xlink:href="#l"/>
<use x="44.083984" xlink:href="#c"/>
<use x="105.607422" xlink:href="#g"/>
<use x="144.970703" xlink:href="#j"/>
<use x="242.382812" xlink:href="#h"/>
<use x="270.166016" xlink:href="#e"/>
<use x="333.544922" xlink:href="#i"/>
<use x="394.824219" xlink:href="#k"/>
</g>
</g>
<path d="m69.176 475.97v33.808q0 2.4 2.4 2.4h7.7425q2.4 0 2.4-2.4v-33.808q0-2.4-2.4-2.4h-7.7425q-2.4 0-2.4 2.4z" clip-path="url(#a)" fill="#fff" stroke="#fff"/>
<g clip-path="url(#a)">
<g transform="translate(73.24 475.97) rotate(90) scale(.08 -.08)">
<use xlink:href="#l"/>
<use x="44.083984" xlink:href="#c"/>
<use x="105.607422" xlink:href="#g"/>
<use x="144.970703" xlink:href="#j"/>
<use x="242.382812" xlink:href="#h"/>
<use x="270.166016" xlink:href="#e"/>
<use x="333.544922" xlink:href="#i"/>
<use x="394.824219" xlink:href="#k"/>
</g>
</g>
<path d="m88.521 475.97v33.808q0 2.4 2.4 2.4h7.7425q2.4 0 2.4-2.4v-33.808q0-2.4-2.4-2.4h-7.7425q-2.4 0-2.4 2.4z" clip-path="url(#a)" fill="#fff" stroke="#fff"/>
<g clip-path="url(#a)">
<g transform="translate(92.585 475.97) rotate(90) scale(.08 -.08)">
<use xlink:href="#l"/>
<use x="44.083984" xlink:href="#c"/>
<use x="105.607422" xlink:href="#g"/>
<use x="144.970703" xlink:href="#j"/>
<use x="242.382812" xlink:href="#h"/>
<use x="270.166016" xlink:href="#e"/>
<use x="333.544922" xlink:href="#i"/>
<use x="394.824219" xlink:href="#k"/>
</g>
</g>
<path d="m176.82 372.76 3.7401-3.995q1.6402-1.752-0.1118-3.3923l-5.6521-5.2915q-1.752-1.6402-3.3923 0.1118l-3.7401 3.995q-1.6402 1.752 0.1118 3.3923l5.6521 5.2915q1.752 1.6402 3.3923-0.1118z" clip-path="url(#a)" fill="#fff" stroke="#fff"/>
<g clip-path="url(#a)">
<g transform="translate(173.85 369.99) rotate(-46.888) scale(.08 -.08)">
<use xlink:href="#n"/>
</g>
</g>
<path d="m203.04 372.2 2.9943-4.6834q1.2928-2.022-0.72926-3.3148l-6.5232-4.1706q-2.022-1.2928-3.3148 0.72926l-2.9943 4.6834q-1.2928 2.022 0.72926 3.3148l6.5232 4.1706q2.022 1.2928 3.3148-0.72926z" clip-path="url(#a)" fill="#fff" stroke="#fff"/>
<g clip-path="url(#a)">
<g transform="translate(199.62 370.01) rotate(-57.407) scale(.08 -.08)">
<use xlink:href="#v"/>
</g>
</g>
<path d="m219.3 371.58 2.2733-4.978q0.99698-2.1831-1.1861-3.1801l-7.0428-3.2163q-2.1831-0.99698-3.1801 1.1861l-2.2733 4.978q-0.99698 2.1831 1.1861 3.1801l7.0428 3.2163q2.1831 0.99698 3.1801-1.1861z" clip-path="url(#a)" fill="#fff" stroke="#fff"/>
<g clip-path="url(#a)">
<g transform="translate(215.61 369.89) rotate(-65.455) scale(.08 -.08)">
<use xlink:href="#n"/>
</g>
</g>
<path d="m256.38 322.96 1.2152 5.3359q0.53294 2.3401 2.873 1.8071l7.5492-1.7193q2.3401-0.53294 1.8071-2.873l-1.2152-5.3359q-0.53294-2.3401-2.873-1.8071l-7.5492 1.7193q-2.3401 0.53294-1.8071 2.873z" clip-path="url(#a)" fill="#fff" stroke="#fff"/>
<g clip-path="url(#a)">
<g transform="translate(260.34 322.05) rotate(77.17) scale(.08 -.08)">
<use xlink:href="#n"/>
</g>
</g>
<path d="m314.73 368.51 3.0115 3.7682q1.4983 1.8748 3.3732 0.3765l6.0483-4.8337q1.8748-1.4983 0.37649-3.3732l-3.0115-3.7682q-1.4983-1.8748-3.3732-0.3765l-6.0483 4.8337q-1.8748 1.4983-0.37649 3.3732z" clip-path="url(#a)" fill="#fff" stroke="#fff"/>
<g clip-path="url(#a)">
<g transform="translate(317.9 365.98) rotate(51.369) scale(.08 -.08)">
<use xlink:href="#w"/>
</g>
</g>
<path d="m342.32 369.62 3.4307 3.0662q1.7894 1.5993 3.3888-0.1901l5.1596-5.7728q1.5993-1.7894-0.1901-3.3888l-3.4307-3.0662q-1.7894-1.5993-3.3888 0.1901l-5.1596 5.7728q-1.5993 1.7894 0.1901 3.3888z" clip-path="url(#a)" fill="#fff" stroke="#fff"/>
<g clip-path="url(#a)">
<g transform="translate(345.03 366.59) rotate(41.789) scale(.08 -.08)">
<use xlink:href="#o"/>
</g>
</g>
<path d="m138.82 475.97v33.808q0 2.4 2.4 2.4h7.7425q2.4 0 2.4-2.4v-33.808q0-2.4-2.4-2.4h-7.7425q-2.4 0-2.4 2.4z" clip-path="url(#a)" fill="#fff" stroke="#fff"/>
<g clip-path="url(#a)">
<g transform="translate(142.88 475.97) rotate(90) scale(.08 -.08)">
<use xlink:href="#l"/>
<use x="44.083984" xlink:href="#c"/>
<use x="105.607422" xlink:href="#g"/>
<use x="144.970703" xlink:href="#j"/>
<use x="242.382812" xlink:href="#h"/>
<use x="270.166016" xlink:href="#e"/>
<use x="333.544922" xlink:href="#i"/>
<use x="394.824219" xlink:href="#k"/>
</g>
</g>
<path d="m169.77 475.97v33.808q0 2.4 2.4 2.4h7.7425q2.4 0 2.4-2.4v-33.808q0-2.4-2.4-2.4h-7.7425q-2.4 0-2.4 2.4z" clip-path="url(#a)" fill="#fff" stroke="#fff"/>
<g clip-path="url(#a)">
<g transform="translate(173.84 475.97) rotate(90) scale(.08 -.08)">
<use xlink:href="#l"/>
<use x="44.083984" xlink:href="#c"/>
<use x="105.607422" xlink:href="#g"/>
<use x="144.970703" xlink:href="#j"/>
<use x="242.382812" xlink:href="#h"/>
<use x="270.166016" xlink:href="#e"/>
<use x="333.544922" xlink:href="#i"/>
<use x="394.824219" xlink:href="#k"/>
</g>
</g>
<path d="m245.23 414.9 3.2851-4.4842q1.4183-1.936-0.5177-3.3544l-6.2458-4.5757q-1.936-1.4183-3.3544 0.5177l-3.2851 4.4842q-1.4183 1.936 0.5177 3.3544l6.2458 4.5757q1.936 1.4183 3.3544-0.5177z" clip-path="url(#a)" fill="#fff" stroke="#fff"/>
<g clip-path="url(#a)">
<g transform="translate(241.96 412.5) rotate(-53.774) scale(.08 -.08)">
<use xlink:href="#v"/>
</g>
</g>
<path d="m266.6 412.83 1.2189-4.4369q0.63578-2.3143-1.6785-2.95l-7.4659-2.0511q-2.3143-0.63578-2.95 1.6785l-1.2189 4.4369q-0.63578 2.3143 1.6785 2.95l7.4659 2.0511q2.3143 0.63578 2.95-1.6785z" clip-path="url(#a)" fill="#fff" stroke="#fff"/>
<g clip-path="url(#a)">
<g transform="translate(262.68 411.76) rotate(-74.638) scale(.08 -.08)">
<use xlink:href="#o"/>
</g>
</g>
<path d="m275.77 407.89 1.1281 4.9275q0.53559 2.3395 2.8751 1.8039l7.5472-1.7278q2.3395-0.53559 1.8039-2.8751l-1.1281-4.9275q-0.53559-2.3395-2.8751-1.8039l-7.5472 1.7278q-2.3395 0.53559-1.8039 2.8751z" clip-path="url(#a)" fill="#fff" stroke="#fff"/>
<g clip-path="url(#a)">
<g transform="translate(279.73 406.98) rotate(77.105) scale(.08 -.08)">
<use xlink:href="#r"/>
</g>
</g>
<path d="m298.99 410.6 3.4313 4.4082q1.4742 1.8939 3.3681 0.41971l6.1098-4.7558q1.8939-1.4742 0.41971-3.3681l-3.4313-4.4082q-1.4742-1.8939-3.3681-0.41971l-6.1098 4.7558q-1.8939 1.4742-0.41971 3.3681z" clip-path="url(#a)" fill="#fff" stroke="#fff"/>
<g clip-path="url(#a)">
<g transform="translate(302.2 408.1) rotate(52.103) scale(.08 -.08)">
<use xlink:href="#x"/>
</g>
</g>
<path d="m382.57 475.97v33.808q0 2.4 2.4 2.4h7.7425q2.4 0 2.4-2.4v-33.808q0-2.4-2.4-2.4h-7.7425q-2.4 0-2.4 2.4z" clip-path="url(#a)" fill="#fff" stroke="#fff"/>
<g clip-path="url(#a)">
<g transform="translate(386.64 475.97) rotate(90) scale(.08 -.08)">
<use xlink:href="#l"/>
<use x="44.083984" xlink:href="#c"/>
<use x="105.607422" xlink:href="#g"/>
<use x="144.970703" xlink:href="#j"/>
<use x="242.382812" xlink:href="#h"/>
<use x="270.166016" xlink:href="#e"/>
<use x="333.544922" xlink:href="#i"/>
<use x="394.824219" xlink:href="#k"/>
</g>
</g>
<path d="m436.74 475.97v33.808q0 2.4 2.4 2.4h7.7425q2.4 0 2.4-2.4v-33.808q0-2.4-2.4-2.4h-7.7425q-2.4 0-2.4 2.4z" clip-path="url(#a)" fill="#fff" stroke="#fff"/>
<g clip-path="url(#a)">
<g transform="translate(440.8 475.97) rotate(90) scale(.08 -.08)">
<use xlink:href="#l"/>
<use x="44.083984" xlink:href="#c"/>
<use x="105.607422" xlink:href="#g"/>
<use x="144.970703" xlink:href="#j"/>
<use x="242.382812" xlink:href="#h"/>
<use x="270.166016" xlink:href="#e"/>
<use x="333.544922" xlink:href="#i"/>
<use x="394.824219" xlink:href="#k"/>
</g>
</g>
<path d="m204.59 475.97v33.808q0 2.4 2.4 2.4h7.7425q2.4 0 2.4-2.4v-33.808q0-2.4-2.4-2.4h-7.7425q-2.4 0-2.4 2.4z" clip-path="url(#a)" fill="#fff" stroke="#fff"/>
<g clip-path="url(#a)">
<g transform="translate(208.66 475.97) rotate(90) scale(.08 -.08)">
<use xlink:href="#l"/>
<use x="44.083984" xlink:href="#c"/>
<use x="105.607422" xlink:href="#g"/>
<use x="144.970703" xlink:href="#j"/>
<use x="242.382812" xlink:href="#h"/>
<use x="270.166016" xlink:href="#e"/>
<use x="333.544922" xlink:href="#i"/>
<use x="394.824219" xlink:href="#k"/>
</g>
</g>
<path d="m243.29 475.97v33.808q0 2.4 2.4 2.4h7.7425q2.4 0 2.4-2.4v-33.808q0-2.4-2.4-2.4h-7.7425q-2.4 0-2.4 2.4z" clip-path="url(#a)" fill="#fff" stroke="#fff"/>
<g clip-path="url(#a)">
<g transform="translate(247.35 475.97) rotate(90) scale(.08 -.08)">
<use xlink:href="#l"/>
<use x="44.083984" xlink:href="#c"/>
<use x="105.607422" xlink:href="#g"/>
<use x="144.970703" xlink:href="#j"/>
<use x="242.382812" xlink:href="#h"/>
<use x="270.166016" xlink:href="#e"/>
<use x="333.544922" xlink:href="#i"/>
<use x="394.824219" xlink:href="#k"/>
</g>
</g>
<path d="m285.85 475.97v33.808q0 2.4 2.4 2.4h7.7425q2.4 0 2.4-2.4v-33.808q0-2.4-2.4-2.4h-7.7425q-2.4 0-2.4 2.4z" clip-path="url(#a)" fill="#fff" stroke="#fff"/>
<g clip-path="url(#a)">
<g transform="translate(289.91 475.97) rotate(90) scale(.08 -.08)">
<use xlink:href="#l"/>
<use x="44.083984" xlink:href="#c"/>
<use x="105.607422" xlink:href="#g"/>
<use x="144.970703" xlink:href="#j"/>
<use x="242.382812" xlink:href="#h"/>
<use x="270.166016" xlink:href="#e"/>
<use x="333.544922" xlink:href="#i"/>
<use x="394.824219" xlink:href="#k"/>
</g>
</g>
<path d="m332.27 475.97v33.808q0 2.4 2.4 2.4h7.7425q2.4 0 2.4-2.4v-33.808q0-2.4-2.4-2.4h-7.7425q-2.4 0-2.4 2.4z" clip-path="url(#a)" fill="#fff" stroke="#fff"/>
<g clip-path="url(#a)">
<g transform="translate(336.34 475.97) rotate(90) scale(.08 -.08)">
<use xlink:href="#l"/>
<use x="44.083984" xlink:href="#c"/>
<use x="105.607422" xlink:href="#g"/>
<use x="144.970703" xlink:href="#j"/>
<use x="242.382812" xlink:href="#h"/>
<use x="270.166016" xlink:href="#e"/>
<use x="333.544922" xlink:href="#i"/>
<use x="394.824219" xlink:href="#k"/>
</g>
</g>
<path d="m111.74 475.97v33.808q0 2.4 2.4 2.4h7.7425q2.4 0 2.4-2.4v-33.808q0-2.4-2.4-2.4h-7.7425q-2.4 0-2.4 2.4z" clip-path="url(#a)" fill="#fff" stroke="#fff"/>
<g clip-path="url(#a)">
<g transform="translate(115.8 475.97) rotate(90) scale(.08 -.08)">
<use xlink:href="#l"/>
<use x="44.083984" xlink:href="#c"/>
<use x="105.607422" xlink:href="#g"/>
<use x="144.970703" xlink:href="#j"/>
<use x="242.382812" xlink:href="#h"/>
<use x="270.166016" xlink:href="#e"/>
<use x="333.544922" xlink:href="#i"/>
<use x="394.824219" xlink:href="#k"/>
</g>
</g>
<path d="m494.78 475.97v33.808q0 2.4 2.4 2.4h7.7425q2.4 0 2.4-2.4v-33.808q0-2.4-2.4-2.4h-7.7425q-2.4 0-2.4 2.4z" clip-path="url(#a)" fill="#fff" stroke="#fff"/>
<g clip-path="url(#a)">
<g transform="translate(498.84 475.97) rotate(90) scale(.08 -.08)">
<use xlink:href="#l"/>
<use x="44.083984" xlink:href="#c"/>
<use x="105.607422" xlink:href="#g"/>
<use x="144.970703" xlink:href="#j"/>
<use x="242.382812" xlink:href="#h"/>
<use x="270.166016" xlink:href="#e"/>
<use x="333.544922" xlink:href="#i"/>
<use x="394.824219" xlink:href="#k"/>
</g>
</g>
<path d="m1009.4 475.97v33.808q0 2.4 2.4 2.4h7.7425q2.4 0 2.4-2.4v-33.808q0-2.4-2.4-2.4h-7.7425q-2.4 0-2.4 2.4z" clip-path="url(#a)" fill="#fff" stroke="#fff"/>
<g clip-path="url(#a)">
<g transform="translate(1013.4 475.97) rotate(90) scale(.08 -.08)">
<use xlink:href="#l"/>
<use x="44.083984" xlink:href="#c"/>
<use x="105.607422" xlink:href="#g"/>
<use x="144.970703" xlink:href="#j"/>
<use x="242.382812" xlink:href="#h"/>
<use x="270.166016" xlink:href="#e"/>
<use x="333.544922" xlink:href="#i"/>
<use x="394.824219" xlink:href="#k"/>
</g>
</g>
<defs>
<path id="b" d="m0 8.6603c2.2967 0 4.4997-0.9125 6.1237-2.5365 1.624-1.624 2.5365-3.827 2.5365-6.1237s-0.9125-4.4997-2.5365-6.1237c-1.624-1.624-3.827-2.5365-6.1237-2.5365s-4.4997 0.9125-6.1237 2.5365c-1.624 1.624-2.5365 3.827-2.5365 6.1237s0.9125 4.4997 2.5365 6.1237c1.624 1.624 3.827 2.5365 6.1237 2.5365z"/>
</defs>
<g clip-path="url(#a)">
<use x="48.363636" y="534.545455" fill="#ffffff" stroke="#ffffff" xlink:href="#b"/>
</g>
<g clip-path="url(#a)">
<use x="59.970909" y="534.545455" fill="#ffffff" stroke="#ffffff" xlink:href="#b"/>
</g>
<g clip-path="url(#a)">
<use x="75.447273" y="534.545455" fill="#ffffff" stroke="#ffffff" xlink:href="#b"/>
</g>
<g clip-path="url(#a)">
<use x="94.792727" y="534.545455" fill="#ffffff" stroke="#ffffff" xlink:href="#b"/>
</g>
<g clip-path="url(#a)">
<use x="118.007273" y="534.545455" fill="#ffffff" stroke="#ffffff" xlink:href="#b"/>
</g>
<g clip-path="url(#a)">
<use x="145.090909" y="534.545455" fill="#ffffff" stroke="#ffffff" xlink:href="#b"/>
</g>
<g clip-path="url(#a)">
<use x="176.043636" y="534.545455" fill="#ffffff" stroke="#ffffff" xlink:href="#b"/>
</g>
<g clip-path="url(#a)">
<use x="210.865455" y="534.545455" fill="#ffffff" stroke="#ffffff" xlink:href="#b"/>
</g>
<g clip-path="url(#a)">
<use x="249.556364" y="534.545455" fill="#ffffff" stroke="#ffffff" xlink:href="#b"/>
</g>
<g clip-path="url(#a)">
<use x="292.116364" y="534.545455" fill="#ffffff" stroke="#ffffff" xlink:href="#b"/>
</g>
<g clip-path="url(#a)">
<use x="338.545455" y="534.545455" fill="#ffffff" stroke="#ffffff" xlink:href="#b"/>
</g>
<g clip-path="url(#a)">
<use x="388.843636" y="534.545455" fill="#ffffff" stroke="#ffffff" xlink:href="#b"/>
</g>
<g clip-path="url(#a)">
<use x="443.010909" y="534.545455" fill="#ffffff" stroke="#ffffff" xlink:href="#b"/>
</g>
<g clip-path="url(#a)">
<use x="501.047273" y="534.545455" fill="#ffffff" stroke="#ffffff" xlink:href="#b"/>
</g>
<g clip-path="url(#a)">
<use x="562.952727" y="534.545455" fill="#ffffff" stroke="#ffffff" xlink:href="#b"/>
</g>
<g clip-path="url(#a)">
<use x="628.727273" y="534.545455" fill="#ffffff" stroke="#ffffff" xlink:href="#b"/>
</g>
<g clip-path="url(#a)">
<use x="698.370909" y="534.545455" fill="#ffffff" stroke="#ffffff" xlink:href="#b"/>
</g>
<g clip-path="url(#a)">
<use x="771.883636" y="534.545455" fill="#ffffff" stroke="#ffffff" xlink:href="#b"/>
</g>
<g clip-path="url(#a)">
<use x="849.265455" y="534.545455" fill="#ffffff" stroke="#ffffff" xlink:href="#b"/>
</g>
<g clip-path="url(#a)">
<use x="930.516364" y="534.545455" fill="#ffffff" stroke="#ffffff" xlink:href="#b"/>
</g>
<g clip-path="url(#a)">
<use x="1015.636364" y="534.545455" fill="#ffffff" stroke="#ffffff" xlink:href="#b"/>
</g>
<g clip-path="url(#a)">
<use x="572.593212" y="25.454545" fill="#ffffff" stroke="#ffffff" xlink:href="#b"/>
</g>
<g clip-path="url(#a)">
<use x="572.593212" y="111.075811" fill="#ffffff" stroke="#ffffff" xlink:href="#b"/>
</g>
<g clip-path="url(#a)">
<use x="48.363636" y="451.203712" fill="#ffffff" stroke="#ffffff" xlink:href="#b"/>
</g>
<g clip-path="url(#a)">
<use x="120.328727" y="196.524853" fill="#ffffff" stroke="#ffffff" xlink:href="#b"/>
</g>
<g clip-path="url(#a)">
<use x="562.952727" y="451.203712" fill="#ffffff" stroke="#ffffff" xlink:href="#b"/>
</g>
<g clip-path="url(#a)">
<use x="628.727273" y="451.203712" fill="#ffffff" stroke="#ffffff" xlink:href="#b"/>
</g>
<g clip-path="url(#a)">
<use x="773.173333" y="366.702593" fill="#ffffff" stroke="#ffffff" xlink:href="#b"/>
</g>
<g clip-path="url(#a)">
<use x="930.516364" y="451.203712" fill="#ffffff" stroke="#ffffff" xlink:href="#b"/>
</g>
<g clip-path="url(#a)">
<use x="698.370909" y="451.203712" fill="#ffffff" stroke="#ffffff" xlink:href="#b"/>
</g>
<g clip-path="url(#a)">
<use x="771.883636" y="451.203712" fill="#ffffff" stroke="#ffffff" xlink:href="#b"/>
</g>
<g clip-path="url(#a)">
<use x="849.265455" y="451.203712" fill="#ffffff" stroke="#ffffff" xlink:href="#b"/>
</g>
<g clip-path="url(#a)">
<use x="59.970909" y="451.203712" fill="#ffffff" stroke="#ffffff" xlink:href="#b"/>
</g>
<g clip-path="url(#a)">
<use x="75.447273" y="451.203712" fill="#ffffff" stroke="#ffffff" xlink:href="#b"/>
</g>
<g clip-path="url(#a)">
<use x="94.792727" y="451.203712" fill="#ffffff" stroke="#ffffff" xlink:href="#b"/>
</g>
<g clip-path="url(#a)">
<use x="253.425455" y="281.758274" fill="#ffffff" stroke="#ffffff" xlink:href="#b"/>
</g>
<g clip-path="url(#a)">
<use x="145.090909" y="451.203712" fill="#ffffff" stroke="#ffffff" xlink:href="#b"/>
</g>
<g clip-path="url(#a)">
<use x="176.043636" y="451.203712" fill="#ffffff" stroke="#ffffff" xlink:href="#b"/>
</g>
<g clip-path="url(#a)">
<use x="272.770909" y="366.702593" fill="#ffffff" stroke="#ffffff" xlink:href="#b"/>
</g>
<g clip-path="url(#a)">
<use x="388.843636" y="451.203712" fill="#ffffff" stroke="#ffffff" xlink:href="#b"/>
</g>
<g clip-path="url(#a)">
<use x="443.010909" y="451.203712" fill="#ffffff" stroke="#ffffff" xlink:href="#b"/>
</g>
<g clip-path="url(#a)">
<use x="210.865455" y="451.203712" fill="#ffffff" stroke="#ffffff" xlink:href="#b"/>
</g>
<g clip-path="url(#a)">
<use x="249.556364" y="451.203712" fill="#ffffff" stroke="#ffffff" xlink:href="#b"/>
</g>
<g clip-path="url(#a)">
<use x="292.116364" y="451.203712" fill="#ffffff" stroke="#ffffff" xlink:href="#b"/>
</g>
<g clip-path="url(#a)">
<use x="338.545455" y="451.203712" fill="#ffffff" stroke="#ffffff" xlink:href="#b"/>
</g>
<g clip-path="url(#a)">
<use x="118.007273" y="451.203712" fill="#ffffff" stroke="#ffffff" xlink:href="#b"/>
</g>
<g clip-path="url(#a)">
<use x="501.047273" y="451.203712" fill="#ffffff" stroke="#ffffff" xlink:href="#b"/>
</g>
<g clip-path="url(#a)">
<use x="1015.636364" y="451.203712" fill="#ffffff" stroke="#ffffff" xlink:href="#b"/>
</g>
<g clip-path="url(#a)">
<g transform="translate(41.775 537.3) scale(.1 -.1)">
<use xlink:href="#n"/>
<use x="68.408203" xlink:href="#e"/>
</g>
</g>
<g clip-path="url(#a)">
<defs>
<path id="q" d="m45.406 46.391v29.594h8.9844v-75.984h-8.9844v8.2031q-2.8281-4.875-7.1562-7.25-4.3125-2.375-10.375-2.375-9.9062 0-16.141 7.9062-6.2188 7.9219-6.2188 20.812t6.2188 20.797q6.2344 7.9062 16.141 7.9062 6.0625 0 10.375-2.375 4.3281-2.3594 7.1562-7.2344zm-30.609-19.094q0-9.9062 4.0781-15.547t11.203-5.6406 11.219 5.6406q4.1094 5.6406 4.1094 15.547t-4.1094 15.547q-4.0938 5.6406-11.219 5.6406t-11.203-5.6406-4.0781-15.547z"/>
</defs>
<g transform="translate(48.85 537.3) scale(.1 -.1)">
<use xlink:href="#q"/>
<use x="63.476562" xlink:href="#c"/>
<use x="125" xlink:href="#j"/>
</g>
</g>
<g clip-path="url(#a)">
<defs>
<path id="al" d="m9.8125 72.906h14.703l18.594-49.609 18.703 49.609h14.703v-72.906h-9.625v64.016l-18.797-50h-9.9062l-18.797 50v-64.016h-9.5781z"/>
<path id="ar" d="m8.5 21.578v33.109h8.9844v-32.766q0-7.7656 3.0156-11.656 3.0312-3.875 9.0938-3.875 7.2656 0 11.484 4.6406 4.2344 4.6406 4.2344 12.656v31h8.9844v-54.688h-8.9844v8.4062q-3.2656-4.9844-7.5938-7.4062-4.3125-2.4219-10.031-2.4219-9.4219 0-14.312 5.8594-4.875 5.8594-4.875 17.141z"/>
</defs>
<g transform="translate(63.511 537.3) scale(.1 -.1)">
<use xlink:href="#al"/>
<use x="86.279297" xlink:href="#i"/>
<use x="147.558594" xlink:href="#ar"/>
<use x="210.9375" xlink:href="#k"/>
</g>
</g>
<g clip-path="url(#a)">
<defs>
<path id="aj" d="m9.0781 75.984h9.0312v-44.875l26.812 23.578h11.469l-29-25.578 30.234-29.109h-11.719l-27.797 26.703v-26.703h-9.0312z"/>
<path id="at" d="m30.609 48.391q-7.2188 0-11.422-5.6406t-4.2031-15.453 4.1719-15.453q4.1875-5.6406 11.453-5.6406 7.1875 0 11.375 5.6562 4.2031 5.6719 4.2031 15.438 0 9.7188-4.2031 15.406-4.1875 5.6875-11.375 5.6875zm0 7.6094q11.719 0 18.406-7.625 6.7031-7.6094 6.7031-21.078 0-13.422-6.7031-21.078-6.6875-7.6406-18.406-7.6406-11.766 0-18.438 7.6406-6.6562 7.6562-6.6562 21.078 0 13.469 6.6562 21.078 6.6719 7.625 18.438 7.625z"/>
<path id="t" d="m48.688 27.297q0 9.9062-4.0781 15.547t-11.203 5.6406q-7.1406 0-11.219-5.6406t-4.0781-15.547 4.0781-15.547 11.219-5.6406q7.125 0 11.203 5.6406t4.0781 15.547zm-30.578 19.094q2.8438 4.875 7.1562 7.2344 4.3281 2.375 10.328 2.375 9.9688 0 16.188-7.9062 6.2344-7.9062 6.2344-20.797t-6.2344-20.812q-6.2188-7.9062-16.188-7.9062-6 0-10.328 2.375-4.3125 2.375-7.1562 7.25v-8.2031h-9.0312v75.984h9.0312z"/>
</defs>
<g transform="translate(83.79 537.3) scale(.1 -.1)">
<use xlink:href="#aj"/>
<use x="54.285156" xlink:href="#at"/>
<use x="115.466797" xlink:href="#g"/>
<use x="156.580078" xlink:href="#t"/>
</g>
</g>
<g clip-path="url(#a)">
<defs>
<path id="ag" d="m11.719 12.406h10.297v-8.4062l-8-15.625h-6.2969l4 15.625z"/>
</defs>
<g transform="translate(116.42 537.3) scale(.1 -.1)">
<use xlink:href="#ag"/>
</g>
</g>
<g clip-path="url(#a)">
<g transform="translate(135.67 537.3) scale(.1 -.1)">
<use xlink:href="#q"/>
<use x="63.476562" xlink:href="#c"/>
<use x="125" xlink:href="#e"/>
</g>
</g>
<g clip-path="url(#a)">
<defs>
<path id="s" d="m48.781 52.594v-8.4062q-3.8125 2.1094-7.6406 3.1562t-7.7344 1.0469q-8.75 0-13.594-5.5469-4.8281-5.5312-4.8281-15.547t4.8281-15.562q4.8438-5.5312 13.594-5.5312 3.9062 0 7.7344 1.0469t7.6406 3.1562v-8.3125q-3.7656-1.75-7.7969-2.625-4.0156-0.89062-8.5625-0.89062-12.359 0-19.641 7.7656-7.2656 7.7656-7.2656 20.953 0 13.375 7.3438 21.031 7.3594 7.6719 20.156 7.6719 4.1406 0 8.0938-0.85938 3.9531-0.84375 7.6719-2.5469z"/>
<path id="p" d="m54.891 33.016v-33.016h-8.9844v32.719q0 7.7656-3.0312 11.609-3.0312 3.8594-9.0781 3.8594-7.2812 0-11.484-4.6406-4.2031-4.625-4.2031-12.641v-30.906h-9.0312v75.984h9.0312v-29.797q3.2344 4.9375 7.5938 7.375 4.375 2.4375 10.094 2.4375 9.4219 0 14.25-5.8281 4.8438-5.8281 4.8438-17.156z"/>
</defs>
<g transform="translate(168.74 537.3) scale(.1 -.1)">
<use xlink:href="#h"/>
<use x="27.783203" xlink:href="#s"/>
<use x="82.763672" xlink:href="#p"/>
</g>
</g>
<g clip-path="url(#a)">
<defs>
<path id="au" d="m37.109 75.984v-7.4844h-8.5938q-4.8281 0-6.7188-1.9531-1.875-1.9531-1.875-7.0312v-4.8281h14.797v-6.9844h-14.797v-47.703h-9.0312v47.703h-8.5938v6.9844h8.5938v3.8125q0 9.125 4.25 13.297 4.25 4.1875 13.469 4.1875z"/>
<path id="ap" d="m8.5 21.578v33.109h8.9844v-32.766q0-7.7656 3.0156-11.656 3.0312-3.875 9.0938-3.875 7.2656 0 11.484 4.6406 4.2344 4.6406 4.2344 12.656v31h8.9844v-54.688h-8.9844v8.4062q-3.2656-4.9844-7.5938-7.4062-4.3125-2.4219-10.031-2.4219-9.4219 0-14.312 5.8594-4.875 5.8594-4.875 17.141zm22.609 34.422m4.4844 19.781h9.9062v-9.8594h-9.9062zm-19.094 0h9.9062v-9.8594h-9.9062z"/>
</defs>
<g transform="translate(203.88 537.3) scale(.1 -.1)">
<use xlink:href="#au"/>
<use x="35.205078" xlink:href="#ap"/>
<use x="98.583984" xlink:href="#g"/>
</g>
</g>
<g clip-path="url(#a)">
<g transform="translate(240.14 537.3) scale(.1 -.1)">
<use xlink:href="#q"/>
<use x="63.476562" xlink:href="#c"/>
<use x="125" xlink:href="#e"/>
</g>
</g>
<g clip-path="url(#a)">
<g transform="translate(273.95 537.3) scale(.1 -.1)">
<use xlink:href="#aj"/>
<use x="57.910156" xlink:href="#k"/>
<use x="85.693359" xlink:href="#c"/>
<use x="147.216797" xlink:href="#h"/>
<use x="175" xlink:href="#e"/>
<use x="238.378906" xlink:href="#c"/>
<use x="299.902344" xlink:href="#e"/>
</g>
</g>
<g clip-path="url(#a)">
<defs>
<path id="ah" d="m5.5156 54.688h42.672v-8.2031l-33.781-39.312h33.781v-7.1719h-43.891v8.2031l33.797 39.312h-32.578z"/>
</defs>
<g transform="translate(320.14 537.3) scale(.1 -.1)">
<use xlink:href="#w"/>
<use x="58.552734" xlink:href="#g"/>
<use x="99.666016" xlink:href="#h"/>
<use x="127.449219" xlink:href="#e"/>
<use x="190.828125" xlink:href="#ah"/>
<use x="243.318359" xlink:href="#c"/>
<use x="304.841797" xlink:href="#e"/>
</g>
</g>
<g clip-path="url(#a)">
<defs>
<path id="ak" d="m45.406 27.984q0 9.7656-4.0312 15.125-4.0156 5.375-11.297 5.375-7.2188 0-11.25-5.375-4.0312-5.3594-4.0312-15.125 0-9.7188 4.0312-15.094t11.25-5.375q7.2812 0 11.297 5.375 4.0312 5.375 4.0312 15.094zm8.9844-21.203q0-13.953-6.2031-20.766-6.1875-6.8125-18.984-6.8125-4.7344 0-8.9375 0.70312t-8.1562 2.1719v8.7344q3.9531-2.1406 7.8125-3.1562 3.8594-1.0312 7.8594-1.0312 8.8438 0 13.234 4.6094t4.3906 13.938v4.4531q-2.7812-4.8438-7.125-7.2344t-10.406-2.3906q-10.047 0-16.203 7.6562-6.1562 7.6719-6.1562 20.328 0 12.688 6.1562 20.344 6.1562 7.6719 16.203 7.6719 6.0625 0 10.406-2.3906t7.125-7.2188v8.2969h8.9844z"/>
<path id="as" d="m18.312 70.219v-15.531h18.5v-6.9844h-18.5v-29.688q0-6.6875 1.8281-8.5938t7.4531-1.9062h9.2188v-7.5156h-9.2188q-10.406 0-14.359 3.875-3.9531 3.8906-3.9531 14.141v29.688h-6.5938v6.9844h6.5938v15.531z"/>
</defs>
<g transform="translate(361.38 537.3) scale(.1 -.1)">
<use xlink:href="#ak"/>
<use x="63.476562" xlink:href="#c"/>
<use x="125" xlink:href="#ah"/>
<use x="177.490234" xlink:href="#c"/>
<use x="239.013672" xlink:href="#h"/>
<use x="266.796875" xlink:href="#s"/>
<use x="321.777344" xlink:href="#p"/>
<use x="385.15625" xlink:href="#e"/>
<use x="448.535156" xlink:href="#c"/>
<use x="510.058594" xlink:href="#as"/>
</g>
</g>
<g clip-path="url(#a)">
<g transform="translate(430.53 537.3) scale(.1 -.1)">
<use xlink:href="#p"/>
<use x="63.378906" xlink:href="#i"/>
<use x="124.658203" xlink:href="#t"/>
<use x="188.134766" xlink:href="#c"/>
</g>
</g>
<g clip-path="url(#a)">
<g transform="translate(499.46 537.3) scale(.1 -.1)">
<use xlink:href="#ag"/>
</g>
</g>
<g clip-path="url(#a)">
<g transform="translate(550.47 537.3) scale(.1 -.1)">
<use xlink:href="#p"/>
<use x="63.378906" xlink:href="#i"/>
<use x="124.658203" xlink:href="#t"/>
<use x="188.134766" xlink:href="#c"/>
</g>
</g>
<g clip-path="url(#a)">
<g transform="translate(621.42 537.3) scale(.1 -.1)">
<use xlink:href="#h"/>
<use x="27.783203" xlink:href="#s"/>
<use x="82.763672" xlink:href="#p"/>
</g>
</g>
<g clip-path="url(#a)">
<g transform="translate(688.95 537.3) scale(.1 -.1)">
<use xlink:href="#q"/>
<use x="63.476562" xlink:href="#c"/>
<use x="125" xlink:href="#e"/>
</g>
</g>
<g clip-path="url(#a)">
<defs>
<path id="am" d="m9.8125 72.906h9.8594v-64.609h35.5v-8.2969h-45.359z"/>
</defs>
<g transform="translate(757.8 537.3) scale(.1 -.1)">
<use xlink:href="#am"/>
<use x="53.962891" xlink:href="#c"/>
<use x="115.486328" xlink:href="#q"/>
<use x="178.962891" xlink:href="#c"/>
<use x="240.486328" xlink:href="#g"/>
</g>
</g>
<g clip-path="url(#a)">
<g transform="translate(831.63 537.3) scale(.1 -.1)">
<use xlink:href="#g"/>
<use x="41.113281" xlink:href="#h"/>
<use x="68.896484" xlink:href="#c"/>
<use x="130.419922" xlink:href="#j"/>
<use x="227.832031" xlink:href="#c"/>
<use x="289.355469" xlink:href="#e"/>
</g>
</g>
<g clip-path="url(#a)">
<defs>
<path id="aq" d="m2.9844 54.688h9.5156l17.094-45.891 17.094 45.891h9.5156l-20.516-54.688h-12.203z"/>
<path id="ai" d="m44.281 53.078v-8.5q-3.7969 1.9531-7.9062 2.9219-4.0938 0.98438-8.5 0.98438-6.6875 0-10.031-2.0469t-3.3438-6.1562q0-3.125 2.3906-4.9062t9.625-3.3906l3.0781-0.6875q9.5625-2.0469 13.594-5.7812t4.0312-10.422q0-7.625-6.0312-12.078-6.0312-4.4375-16.578-4.4375-4.3906 0-9.1562 0.85938t-10.031 2.5625v9.2812q4.9844-2.5938 9.8125-3.8906 4.8281-1.2812 9.5781-1.2812 6.3438 0 9.75 2.1719 3.4219 2.1719 3.4219 6.125 0 3.6562-2.4688 5.6094-2.4531 1.9531-10.812 3.7656l-3.125 0.73438q-8.3438 1.75-12.062 5.3906-3.7031 3.6406-3.7031 9.9844 0 7.7188 5.4688 11.906 5.4688 4.2031 15.531 4.2031 4.9688 0 9.3594-0.73438 4.4062-0.71875 8.1094-2.1875z"/>
</defs>
<g transform="translate(904.81 537.3) scale(.1 -.1)">
<use xlink:href="#aq"/>
<use x="59.179688" xlink:href="#c"/>
<use x="120.703125" xlink:href="#g"/>
<use x="160.066406" xlink:href="#ak"/>
<use x="223.542969" xlink:href="#c"/>
<use x="285.066406" xlink:href="#ai"/>
<use x="337.166016" xlink:href="#ai"/>
<use x="389.265625" xlink:href="#c"/>
<use x="450.789062" xlink:href="#e"/>
</g>
</g>
<g clip-path="url(#a)">
<defs>
<path id="ao" d="m15.094 12.406h9.9062v-12.406h-9.9062zm0 60.5h9.9062v-31.984l-0.96875-17.438h-7.9219l-1.0156 17.438z"/>
</defs>
<g transform="translate(1013.6 537.3) scale(.1 -.1)">
<use xlink:href="#ao"/>
</g>
</g>
<g clip-path="url(#a)">
<defs>
<path id="d" d="m12.406 8.2969h16.109v55.625l-17.531-3.5156v8.9844l17.438 3.5156h9.8594v-64.609h16.109v-8.2969h-41.984z"/>
<path id="f" d="m10.688 12.406h10.312v-12.406h-10.312z"/>
</defs>
<g transform="translate(564.64 28.214) scale(.1 -.1)">
<use xlink:href="#d"/>
<use x="63.623047" xlink:href="#f"/>
<use x="95.410156" xlink:href="#d"/>
</g>
</g>
<g clip-path="url(#a)">
<defs>
<path id="m" d="m19.188 8.2969h34.422v-8.2969h-46.281v8.2969q5.6094 5.8125 15.297 15.594 9.7031 9.7969 12.188 12.641 4.7344 5.3125 6.6094 9 1.8906 3.6875 1.8906 7.25 0 5.8125-4.0781 9.4688-4.0781 3.6719-10.625 3.6719-4.6406 0-9.7969-1.6094-5.1406-1.6094-11-4.8906v9.9688q5.9531 2.3906 11.125 3.6094 5.1875 1.2188 9.4844 1.2188 11.328 0 18.062-5.6719 6.7344-5.6562 6.7344-15.125 0-4.5-1.6875-8.5312-1.6719-4.0156-6.125-9.4844-1.2188-1.4219-7.7656-8.1875-6.5312-6.7656-18.453-18.922z"/>
</defs>
<g transform="translate(564.64 113.84) scale(.1 -.1)">
<use xlink:href="#d"/>
<use x="63.623047" xlink:href="#f"/>
<use x="95.410156" xlink:href="#m"/>
</g>
</g>
<g clip-path="url(#a)">
<defs>
<path id="ac" d="m37.797 64.312-24.906-38.922h24.906zm-2.5938 8.5938h12.406v-47.516h10.406v-8.2031h-10.406v-17.188h-9.8125v17.188h-32.906v9.5156z"/>
</defs>
<g transform="translate(40.412 453.96) scale(.1 -.1)">
<use xlink:href="#d"/>
<use x="63.623047" xlink:href="#f"/>
<use x="95.410156" xlink:href="#ac"/>
</g>
</g>
<g clip-path="url(#a)">
<defs>
<path id="ab" d="m10.797 72.906h38.719v-8.3125h-29.688v-17.859q2.1406 0.73438 4.2812 1.0938 2.1562 0.35938 4.3125 0.35938 12.203 0 19.328-6.6875 7.1406-6.6875 7.1406-18.109 0-11.766-7.3281-18.297-7.3281-6.5156-20.656-6.5156-4.5938 0-9.3594 0.78125-4.75 0.78125-9.8281 2.3438v9.9219q4.3906-2.3906 9.0781-3.5625t9.9062-1.1719q8.4531 0 13.375 4.4375 4.9375 4.4375 4.9375 12.062 0 7.6094-4.9375 12.047-4.9219 4.4531-13.375 4.4531-3.9531 0-7.8906-0.875-3.9219-0.875-8.0156-2.7344z"/>
</defs>
<g transform="translate(112.38 199.28) scale(.1 -.1)">
<use xlink:href="#d"/>
<use x="63.623047" xlink:href="#f"/>
<use x="95.410156" xlink:href="#ab"/>
</g>
</g>
<g clip-path="url(#a)">
<defs>
<path id="aa" d="m33.016 40.375q-6.6406 0-10.531-4.5469-3.875-4.5312-3.875-12.438 0-7.8594 3.875-12.438 3.8906-4.5625 10.531-4.5625t10.516 4.5625q3.875 4.5781 3.875 12.438 0 7.9062-3.875 12.438-3.875 4.5469-10.516 4.5469zm19.578 30.922v-8.9844q-3.7188 1.75-7.5 2.6719-3.7812 0.9375-7.5 0.9375-9.7656 0-14.922-6.5938-5.1406-6.5938-5.875-19.922 2.875 4.25 7.2188 6.5156 4.3594 2.2656 9.5781 2.2656 10.984 0 17.359-6.6719 6.375-6.6562 6.375-18.125 0-11.234-6.6406-18.031-6.6406-6.7812-17.672-6.7812-12.656 0-19.344 9.6875-6.6875 9.7031-6.6875 28.109 0 17.281 8.2031 27.562t22.016 10.281q3.7188 0 7.5-0.73438t7.8906-2.1875z"/>
</defs>
<g transform="translate(555 453.96) scale(.1 -.1)">
<use xlink:href="#d"/>
<use x="63.623047" xlink:href="#f"/>
<use x="95.410156" xlink:href="#aa"/>
</g>
</g>
<g clip-path="url(#a)">
<defs>
<path id="z" d="m8.2031 72.906h46.875v-4.2031l-26.469-68.703h-10.297l24.906 64.594h-35.016z"/>
</defs>
<g transform="translate(620.78 453.96) scale(.1 -.1)">
<use xlink:href="#d"/>
<use x="63.623047" xlink:href="#f"/>
<use x="95.410156" xlink:href="#z"/>
</g>
</g>
<g clip-path="url(#a)">
<defs>
<path id="ae" d="m31.781 34.625q-7.0312 0-11.062-3.7656-4.0156-3.7656-4.0156-10.344 0-6.5938 4.0156-10.359 4.0312-3.7656 11.062-3.7656t11.078 3.7812q4.0625 3.7969 4.0625 10.344 0 6.5781-4.0312 10.344-4.0156 3.7656-11.109 3.7656zm-9.8594 4.1875q-6.3438 1.5625-9.8906 5.9062-3.5312 4.3594-3.5312 10.609 0 8.7344 6.2188 13.812 6.2344 5.0781 17.062 5.0781 10.891 0 17.094-5.0781t6.2031-13.812q0-6.25-3.5469-10.609-3.5312-4.3438-9.8281-5.9062 7.125-1.6562 11.094-6.5 3.9844-4.8281 3.9844-11.797 0-10.609-6.4688-16.281-6.4688-5.6562-18.531-5.6562-12.047 0-18.531 5.6562-6.4688 5.6719-6.4688 16.281 0 6.9688 4 11.797 4.0156 4.8438 11.141 6.5zm-3.6094 15.578q0-5.6562 3.5312-8.8281 3.5469-3.1719 9.9375-3.1719 6.3594 0 9.9375 3.1719 3.5938 3.1719 3.5938 8.8281 0 5.6719-3.5938 8.8438-3.5781 3.1719-9.9375 3.1719-6.3906 0-9.9375-3.1719-3.5312-3.1719-3.5312-8.8438z"/>
</defs>
<g transform="translate(765.22 369.46) scale(.1 -.1)">
<use xlink:href="#d"/>
<use x="63.623047" xlink:href="#f"/>
<use x="95.410156" xlink:href="#ae"/>
</g>
</g>
<g clip-path="url(#a)">
<defs>
<path id="y" d="m10.984 1.5156v8.9844q3.7188-1.7656 7.5156-2.6875 3.8125-0.92188 7.4844-0.92188 9.7656 0 14.906 6.5625 5.1562 6.5625 5.8906 19.953-2.8281-4.2031-7.1875-6.4531-4.3438-2.25-9.6094-2.25-10.938 0-17.312 6.6094-6.375 6.625-6.375 18.109 0 11.219 6.6406 18 6.6406 6.7969 17.672 6.7969 12.656 0 19.312-9.7031 6.6719-9.6875 6.6719-28.141 0-17.234-8.1875-27.516-8.1719-10.281-21.984-10.281-3.7188 0-7.5312 0.73438-3.7969 0.73438-7.9062 2.2031zm19.625 30.906q6.6406 0 10.516 4.5312 3.8906 4.5469 3.8906 12.469 0 7.8594-3.8906 12.422-3.875 4.5625-10.516 4.5625t-10.516-4.5625-3.875-12.422q0-7.9219 3.875-12.469 3.875-4.5312 10.516-4.5312z"/>
</defs>
<g transform="translate(922.56 453.96) scale(.1 -.1)">
<use xlink:href="#d"/>
<use x="63.623047" xlink:href="#f"/>
<use x="95.410156" xlink:href="#y"/>
</g>
</g>
<g clip-path="url(#a)">
<g transform="translate(687.24 453.96) scale(.1 -.1)">
<use xlink:href="#d"/>
<use x="63.623047" xlink:href="#f"/>
<use x="95.410156" xlink:href="#d"/>
<use x="159.033203" xlink:href="#d"/>
</g>
</g>
<g clip-path="url(#a)">
<g transform="translate(760.75 453.96) scale(.1 -.1)">
<use xlink:href="#d"/>
<use x="63.623047" xlink:href="#f"/>
<use x="95.410156" xlink:href="#d"/>
<use x="159.033203" xlink:href="#m"/>
</g>
</g>
<g clip-path="url(#a)">
<defs>
<path id="ad" d="m40.578 39.312q7.0781-1.5156 11.047-6.3125 3.9844-4.7812 3.9844-11.812 0-10.781-7.4219-16.703-7.4219-5.9062-21.094-5.9062-4.5781 0-9.4375 0.90625t-10.031 2.7188v9.5156q4.0938-2.3906 8.9688-3.6094 4.8906-1.2188 10.219-1.2188 9.2656 0 14.125 3.6562t4.8594 10.641q0 6.4531-4.5156 10.078-4.5156 3.6406-12.562 3.6406h-8.5v8.1094h8.8906q7.2656 0 11.125 2.9062t3.8594 8.375q0 5.6094-3.9844 8.6094-3.9688 3.0156-11.391 3.0156-4.0625 0-8.7031-0.89062-4.6406-0.875-10.203-2.7188v8.7812q5.625 1.5625 10.531 2.3438t9.25 0.78125q11.234 0 17.766-5.1094 6.5469-5.0938 6.5469-13.781 0-6.0625-3.4688-10.234t-9.8594-5.7812z"/>
</defs>
<g transform="translate(838.13 453.96) scale(.1 -.1)">
<use xlink:href="#d"/>
<use x="63.623047" xlink:href="#f"/>
<use x="95.410156" xlink:href="#d"/>
<use x="159.033203" xlink:href="#ad"/>
</g>
</g>
<g clip-path="url(#a)">
<g transform="translate(48.838 453.96) scale(.1 -.1)">
<use xlink:href="#d"/>
<use x="63.623047" xlink:href="#f"/>
<use x="95.410156" xlink:href="#d"/>
<use x="159.033203" xlink:href="#ac"/>
</g>
</g>
<g clip-path="url(#a)">
<g transform="translate(64.314 453.96) scale(.1 -.1)">
<use xlink:href="#d"/>
<use x="63.623047" xlink:href="#f"/>
<use x="95.410156" xlink:href="#d"/>
<use x="159.033203" xlink:href="#ab"/>
</g>
</g>
<g clip-path="url(#a)">
<g transform="translate(83.66 453.96) scale(.1 -.1)">
<use xlink:href="#d"/>
<use x="63.623047" xlink:href="#f"/>
<use x="95.410156" xlink:href="#d"/>
<use x="159.033203" xlink:href="#aa"/>
</g>
</g>
<g clip-path="url(#a)">
<g transform="translate(242.29 284.52) scale(.1 -.1)">
<use xlink:href="#d"/>
<use x="63.623047" xlink:href="#f"/>
<use x="95.410156" xlink:href="#d"/>
<use x="159.033203" xlink:href="#z"/>
</g>
</g>
<g clip-path="url(#a)">
<g transform="translate(133.96 453.96) scale(.1 -.1)">
<use xlink:href="#d"/>
<use x="63.623047" xlink:href="#f"/>
<use x="95.410156" xlink:href="#d"/>
<use x="159.033203" xlink:href="#y"/>
</g>
</g>
<g clip-path="url(#a)">
<defs>
<path id="af" d="m31.781 66.406q-7.6094 0-11.453-7.5-3.8281-7.4844-3.8281-22.531 0-14.984 3.8281-22.484 3.8438-7.5 11.453-7.5 7.6719 0 11.5 7.5 3.8438 7.5 3.8438 22.484 0 15.047-3.8438 22.531-3.8281 7.5-11.5 7.5zm0 7.8125q12.266 0 18.734-9.7031 6.4688-9.6875 6.4688-28.141 0-18.406-6.4688-28.109-6.4688-9.6875-18.734-9.6875-12.25 0-18.719 9.6875-6.4688 9.7031-6.4688 28.109 0 18.453 6.4688 28.141 6.4688 9.7031 18.719 9.7031z"/>
</defs>
<g transform="translate(164.91 453.96) scale(.1 -.1)">
<use xlink:href="#d"/>
<use x="63.623047" xlink:href="#f"/>
<use x="95.410156" xlink:href="#m"/>
<use x="159.033203" xlink:href="#af"/>
</g>
</g>
<g clip-path="url(#a)">
<g transform="translate(261.64 369.46) scale(.1 -.1)">
<use xlink:href="#d"/>
<use x="63.623047" xlink:href="#f"/>
<use x="95.410156" xlink:href="#m"/>
<use x="159.033203" xlink:href="#d"/>
</g>
</g>
<g clip-path="url(#a)">
<g transform="translate(377.71 453.96) scale(.1 -.1)">
<use xlink:href="#d"/>
<use x="63.623047" xlink:href="#f"/>
<use x="95.410156" xlink:href="#m"/>
<use x="159.033203" xlink:href="#m"/>
</g>
</g>
<g clip-path="url(#a)">
<g transform="translate(431.88 453.96) scale(.1 -.1)">
<use xlink:href="#d"/>
<use x="63.623047" xlink:href="#f"/>
<use x="95.410156" xlink:href="#m"/>
<use x="159.033203" xlink:href="#ad"/>
</g>
</g>
<g clip-path="url(#a)">
<g transform="translate(199.73 453.96) scale(.1 -.1)">
<use xlink:href="#d"/>
<use x="63.623047" xlink:href="#f"/>
<use x="95.410156" xlink:href="#m"/>
<use x="159.033203" xlink:href="#ac"/>
</g>
</g>
<g clip-path="url(#a)">
<g transform="translate(238.42 453.96) scale(.1 -.1)">
<use xlink:href="#d"/>
<use x="63.623047" xlink:href="#f"/>
<use x="95.410156" xlink:href="#m"/>
<use x="159.033203" xlink:href="#ab"/>
</g>
</g>
<g clip-path="url(#a)">
<g transform="translate(280.98 453.96) scale(.1 -.1)">
<use xlink:href="#d"/>
<use x="63.623047" xlink:href="#f"/>
<use x="95.410156" xlink:href="#m"/>
<use x="159.033203" xlink:href="#aa"/>
</g>
</g>
<g clip-path="url(#a)">
<g transform="translate(327.41 453.96) scale(.1 -.1)">
<use xlink:href="#d"/>
<use x="63.623047" xlink:href="#f"/>
<use x="95.410156" xlink:href="#m"/>
<use x="159.033203" xlink:href="#z"/>
</g>
</g>
<g clip-path="url(#a)">
<g transform="translate(106.87 453.96) scale(.1 -.1)">
<use xlink:href="#d"/>
<use x="63.623047" xlink:href="#f"/>
<use x="95.410156" xlink:href="#m"/>
<use x="159.033203" xlink:href="#ae"/>
</g>
</g>
<g clip-path="url(#a)">
<g transform="translate(489.91 453.96) scale(.1 -.1)">
<use xlink:href="#d"/>
<use x="63.623047" xlink:href="#f"/>
<use x="95.410156" xlink:href="#m"/>
<use x="159.033203" xlink:href="#y"/>
</g>
</g>
<g clip-path="url(#a)">
<g transform="translate(1004.5 453.96) scale(.1 -.1)">
<use xlink:href="#d"/>
<use x="63.623047" xlink:href="#f"/>
<use x="95.410156" xlink:href="#ad"/>
<use x="159.033203" xlink:href="#af"/>
</g>
</g>
<defs>
<clipPath id="a">
<rect width="1064" height="560"/>
</clipPath>
</defs>
</svg>
