<?xml version="1.0" encoding="UTF-8"?>
<!DOCTYPE svg  PUBLIC '-//W3C//DTD SVG 1.1//EN'  'http://www.w3.org/Graphics/SVG/1.1/DTD/svg11.dtd'>
<svg width="2128pt" height="1120pt" version="1.1" viewBox="0 0 2128 1120" xmlns="http://www.w3.org/2000/svg" xmlns:xlink="http://www.w3.org/1999/xlink">
<defs>
<style type="text/css">*{stroke-linecap:butt;stroke-linejoin:round;}</style>
</defs>
<path d="m0 1120h2128v-1120h-2128z" fill="#fff"/>
<g fill="none" stroke="#000">
<path d="m1181.3 50.909-990.91 171.24" clip-path="url(#a)"/>
<path d="m1181.3 50.909 275.6 851.5" clip-path="url(#a)"/>
<path d="m1181.3 50.909 513.57 512.61" clip-path="url(#a)"/>
<path d="m1181.3 50.909 201.74 851.5" clip-path="url(#a)"/>
<path d="m190.35 222.15-93.622 680.26" clip-path="url(#a)"/>
<path d="m190.35 222.15-87.467 680.26" clip-path="url(#a)"/>
<path d="m190.35 222.15-79.261 680.26" clip-path="url(#a)"/>
<path d="m190.35 222.15-69.004 680.26" clip-path="url(#a)"/>
<path d="m190.35 222.15 386.05 170.9" clip-path="url(#a)"/>
<path d="m190.35 222.15-56.695 680.26" clip-path="url(#a)"/>
<path d="m1456.9 902.41v166.68" clip-path="url(#a)"/>
<path d="m1694.8 563.52-162.07 338.89" clip-path="url(#a)"/>
<path d="m1694.8 563.52-44.107 169.89" clip-path="url(#a)"/>
<path d="m1694.8 563.52 206.17 169.89" clip-path="url(#a)"/>
<path d="m1532.8 902.41v166.68" clip-path="url(#a)"/>
<path d="m1650.7 733.41-40.004 169" clip-path="url(#a)"/>
<path d="m1650.7 733.41 40.004 169" clip-path="url(#a)"/>
<path d="m1901 733.41-128.22 169" clip-path="url(#a)"/>
<path d="m1901 733.41-44.107 169" clip-path="url(#a)"/>
<path d="m1901 733.41 42.055 169" clip-path="url(#a)"/>
<path d="m1901 733.41 130.27 169" clip-path="url(#a)"/>
<path d="m1772.8 902.41v166.68" clip-path="url(#a)"/>
<path d="m1856.9 902.41v166.68" clip-path="url(#a)"/>
<path d="m1610.7 902.41v166.68" clip-path="url(#a)"/>
<path d="m1690.7 902.41v166.68" clip-path="url(#a)"/>
<path d="m96.727 902.41v166.68" clip-path="url(#a)"/>
<path d="m102.88 902.41v166.68" clip-path="url(#a)"/>
<path d="m111.09 902.41v166.68" clip-path="url(#a)"/>
<path d="m121.35 902.41v166.68" clip-path="url(#a)"/>
<path d="m576.4 393.05-380.52 340.36" clip-path="url(#a)"/>
<path d="m576.4 393.05-299.14 509.36" clip-path="url(#a)"/>
<path d="m576.4 393.05-211.27 170.47" clip-path="url(#a)"/>
<path d="m576.4 393.05 85.625 170.47" clip-path="url(#a)"/>
<path d="m576.4 393.05 347.07 509.36" clip-path="url(#a)"/>
<path d="m576.4 393.05 593.25 170.47" clip-path="url(#a)"/>
<path d="m576.4 393.05-135.02 509.36" clip-path="url(#a)"/>
<path d="m195.88 733.41-47.868 169" clip-path="url(#a)"/>
<path d="m195.88 733.41-31.456 169" clip-path="url(#a)"/>
<path d="m195.88 733.41-12.993 169" clip-path="url(#a)"/>
<path d="m195.88 733.41 7.5221 169" clip-path="url(#a)"/>
<path d="m195.88 733.41 30.088 169" clip-path="url(#a)"/>
<path d="m195.88 733.41 54.706 169" clip-path="url(#a)"/>
<path d="m277.26 902.41v166.68" clip-path="url(#a)"/>
<path d="m365.13 563.52-43.765 169.89" clip-path="url(#a)"/>
<path d="m365.13 563.52 4.4449 338.89" clip-path="url(#a)"/>
<path d="m365.13 563.52 39.32 338.89" clip-path="url(#a)"/>
<path d="m662.02 563.52-181.67 338.89" clip-path="url(#a)"/>
<path d="m662.02 563.52-140.64 338.89" clip-path="url(#a)"/>
<path d="m662.02 563.52-74.993 169.89" clip-path="url(#a)"/>
<path d="m662.02 563.52 44.677 169.89" clip-path="url(#a)"/>
<path d="m662.02 563.52 148.62 338.89" clip-path="url(#a)"/>
<path d="m662.02 563.52 204.01 338.89" clip-path="url(#a)"/>
<path d="m923.47 902.41v166.68" clip-path="url(#a)"/>
<path d="m1169.7 563.52-155.91 169.89" clip-path="url(#a)"/>
<path d="m1169.7 563.52-61.544 338.89" clip-path="url(#a)"/>
<path d="m1169.7 563.52 4.103 338.89" clip-path="url(#a)"/>
<path d="m1169.7 563.52 71.802 338.89" clip-path="url(#a)"/>
<path d="m1169.7 563.52 141.55 338.89" clip-path="url(#a)"/>
<path d="m1013.7 733.41-30.772 169" clip-path="url(#a)"/>
<path d="m1013.7 733.41 30.772 169" clip-path="url(#a)"/>
<path d="m1108.1 902.41v166.68" clip-path="url(#a)"/>
<path d="m1173.8 902.41v166.68" clip-path="url(#a)"/>
<path d="m1241.5 902.41v166.68" clip-path="url(#a)"/>
<path d="m1311.2 902.41v166.68" clip-path="url(#a)"/>
<path d="m982.97 902.41v166.68" clip-path="url(#a)"/>
<path d="m1044.5 902.41v166.68" clip-path="url(#a)"/>
<path d="m480.35 902.41v166.68" clip-path="url(#a)"/>
<path d="m521.38 902.41v166.68" clip-path="url(#a)"/>
<path d="m587.03 733.41-22.566 169" clip-path="url(#a)"/>
<path d="m587.03 733.41 22.566 169" clip-path="url(#a)"/>
<path d="m706.7 733.41-49.919 169" clip-path="url(#a)"/>
<path d="m706.7 733.41-0.68383 169" clip-path="url(#a)"/>
<path d="m706.7 733.41 50.603 169" clip-path="url(#a)"/>
<path d="m810.64 902.41v166.68" clip-path="url(#a)"/>
<path d="m866.03 902.41v166.68" clip-path="url(#a)"/>
<path d="m656.78 902.41v166.68" clip-path="url(#a)"/>
<path d="m706.02 902.41v166.68" clip-path="url(#a)"/>
<path d="m757.3 902.41v166.68" clip-path="url(#a)"/>
<path d="m564.46 902.41v166.68" clip-path="url(#a)"/>
<path d="m609.6 902.41v166.68" clip-path="url(#a)"/>
<path d="m321.36 733.41-15.386 169" clip-path="url(#a)"/>
<path d="m321.36 733.41 15.386 169" clip-path="url(#a)"/>
<path d="m369.57 902.41v166.68" clip-path="url(#a)"/>
<path d="m404.45 902.41v166.68" clip-path="url(#a)"/>
<path d="m305.98 902.41v166.68" clip-path="url(#a)"/>
<path d="m336.75 902.41v166.68" clip-path="url(#a)"/>
<path d="m148.01 902.41v166.68" clip-path="url(#a)"/>
<path d="m164.43 902.41v166.68" clip-path="url(#a)"/>
<path d="m182.89 902.41v166.68" clip-path="url(#a)"/>
<path d="m203.4 902.41v166.68" clip-path="url(#a)"/>
<path d="m225.97 902.41v166.68" clip-path="url(#a)"/>
<path d="m250.59 902.41v166.68" clip-path="url(#a)"/>
<path d="m133.65 902.41v166.68" clip-path="url(#a)"/>
<path d="m441.38 902.41v166.68" clip-path="url(#a)"/>
<path d="m1383 902.41v166.68" clip-path="url(#a)"/>
<path d="m1943.1 902.41v166.68" clip-path="url(#a)"/>
<path d="m2031.3 902.41v166.68" clip-path="url(#a)"/>
</g>
<path d="m683.91 143.22 5.9284-1.0245q2.3649-0.40869 1.9563-2.7736l-1.3185-7.6294q-0.40869-2.3649-2.7736-1.9563l-5.9284 1.0245q-2.3649 0.40869-1.9563 2.7736l1.3185 7.6294q0.40869 2.3649 2.7736 1.9563z" clip-path="url(#a)" fill="#fff" stroke="#fff"/>
<g clip-path="url(#a)">
<defs>
<path id="y" d="m9.8125 72.906h9.8594v-29.891h35.844v29.891h9.8594v-72.906h-9.8594v34.719h-35.844v-34.719h-9.8594z"/>
</defs>
<g transform="translate(683.22 139.22) rotate(-9.8046) scale(.08 -.08)">
<use xlink:href="#y"/>
</g>
</g>
<path d="m1312.4 476.47 1.3726 4.2409q0.73904 2.2834 3.0224 1.5443l7.3663-2.3842q2.2834-0.73904 1.5443-3.0224l-1.3726-4.2409q-0.73904-2.2834-3.0224-1.5443l-7.3663 2.3842q-2.2834 0.73904-1.5443 3.0224z" clip-path="url(#a)" fill="#fff" stroke="#fff"/>
<g clip-path="url(#a)">
<defs>
<path id="am" d="m9.8125 72.906h9.8594v-64.609h35.5v-8.2969h-45.359z"/>
</defs>
<g transform="translate(1316.3 475.22) rotate(72.065) scale(.08 -.08)">
<use xlink:href="#am"/>
</g>
</g>
<path d="m1431.5 309.53 4.2581 4.2501q1.6986 1.6955 3.3941-0.003181l5.4696-5.4799q1.6955-1.6986-0.003182-3.3941l-4.2581-4.2501q-1.6986-1.6955-3.3941 0.003182l-5.4696 5.4799q-1.6955 1.6986 0.003182 3.3941z" clip-path="url(#a)" fill="#fff" stroke="#fff"/>
<g clip-path="url(#a)">
<g transform="translate(1434.4 306.65) rotate(44.946) scale(.08 -.08)">
<use xlink:href="#y"/>
</g>
</g>
<path d="m1275.4 475.26 1.3498 5.6973q0.55331 2.3353 2.8887 1.782l7.5339-1.785q2.3353-0.55331 1.782-2.8887l-1.3498-5.6973q-0.55331-2.3353-2.8887-1.782l-7.5339 1.785q-2.3353 0.55331-1.782 2.8887z" clip-path="url(#a)" fill="#fff" stroke="#fff"/>
<g clip-path="url(#a)">
<defs>
<path id="ad" d="m8.6875 72.906h9.9219v-44.297q0-11.719 4.2344-16.875 4.25-5.1406 13.781-5.1406 9.4688 0 13.719 5.1406 4.25 5.1562 4.25 16.875v44.297h9.9062v-45.516q0-14.25-7.0625-21.531-7.0469-7.2812-20.812-7.2812-13.828 0-20.891 7.2812-7.0469 7.2812-7.0469 21.531z"/>
</defs>
<g transform="translate(1279.3 474.32) rotate(76.671) scale(.08 -.08)">
<use xlink:href="#ad"/>
</g>
</g>
<path d="m149.33 566.19 0.83987-6.1025q0.32722-2.3776-2.0504-2.7048l-7.6702-1.0556q-2.3776-0.32722-2.7048 2.0504l-0.83987 6.1025q-0.32722 2.3776 2.0504 2.7048l7.6702 1.0556q2.3776 0.32722 2.7048-2.0504z" clip-path="url(#a)" fill="#fff" stroke="#fff"/>
<g clip-path="url(#a)">
<defs>
<path id="ae" d="m19.672 64.797v-56.688h11.922q15.094 0 22.094 6.8281 7 6.8438 7 21.594 0 14.641-7 21.453t-22.094 6.8125zm-9.8594 8.1094h20.266q21.188 0 31.094-8.8125 9.9219-8.8125 9.9219-27.562 0-18.859-9.9688-27.703-9.9531-8.8281-31.047-8.8281h-20.266z"/>
</defs>
<g transform="translate(145.31 565.63) rotate(-82.164) scale(.08 -.08)">
<use xlink:href="#ae"/>
</g>
</g>
<path d="m152.53 565.47 0.61518-4.7844q0.30607-2.3804-2.0743-2.6865l-7.6793-0.9874q-2.3804-0.30607-2.6865 2.0743l-0.61517 4.7844q-0.30607 2.3804 2.0743 2.6865l7.6793 0.9874q2.3804 0.30607 2.6865-2.0743z" clip-path="url(#a)" fill="#fff" stroke="#fff"/>
<g clip-path="url(#a)">
<defs>
<path id="ah" d="m19.672 64.797v-27.391h12.406q6.8906 0 10.641 3.5625 3.7656 3.5625 3.7656 10.156 0 6.5469-3.7656 10.109-3.75 3.5625-10.641 3.5625zm-9.8594 8.1094h22.266q12.266 0 18.531-5.5469 6.2812-5.5469 6.2812-16.234 0-10.797-6.2812-16.312-6.2656-5.5156-18.531-5.5156h-12.406v-29.297h-9.8594z"/>
</defs>
<g transform="translate(148.5 564.95) rotate(-82.673) scale(.08 -.08)">
<use xlink:href="#ah"/>
</g>
</g>
<path d="m156.63 565.72 0.63336-5.4357q0.27776-2.3839-2.1061-2.6616l-7.6905-0.89607q-2.3839-0.27776-2.6616 2.1061l-0.63336 5.4357q-0.27776 2.3839 2.1061 2.6616l7.6905 0.89607q2.3839 0.27776 2.6616-2.1061z" clip-path="url(#a)" fill="#fff" stroke="#fff"/>
<g clip-path="url(#a)">
<defs>
<path id="r" d="m34.188 63.188-13.391-36.281h26.812zm-5.5781 9.7188h11.188l27.781-72.906h-10.25l-6.6406 18.703h-32.859l-6.6406-18.703h-10.406z"/>
</defs>
<g transform="translate(152.59 565.25) rotate(-83.354) scale(.08 -.08)">
<use xlink:href="#r"/>
</g>
</g>
<path d="m161.81 565.63 0.55229-5.4446q0.24221-2.3877-2.1455-2.63l-7.703-0.78138q-2.3877-0.24221-2.63 2.1455l-0.55229 5.4446q-0.24221 2.3877 2.1455 2.63l7.703 0.78138q2.3877 0.24221 2.63-2.1455z" clip-path="url(#a)" fill="#fff" stroke="#fff"/>
<g clip-path="url(#a)">
<g transform="translate(157.77 565.22) rotate(-84.208) scale(.08 -.08)">
<use xlink:href="#r"/>
</g>
</g>
<path d="m378.33 312.23 5.0041 2.2152q2.1946 0.9715 3.1661-1.2231l3.1341-7.0798q0.9715-2.1946-1.2231-3.1661l-5.0041-2.2152q-2.1946-0.9715-3.1661 1.2231l-3.1341 7.0798q-0.9715 2.1946 1.2231 3.1661z" clip-path="url(#a)" fill="#fff" stroke="#fff"/>
<g clip-path="url(#a)">
<g transform="translate(379.98 308.51) rotate(23.878) scale(.08 -.08)">
<use xlink:href="#r"/>
</g>
</g>
<path d="m168.01 565.72 0.48629-5.8348q0.19934-2.3917-2.1924-2.591l-7.7157-0.64306q-2.3917-0.19933-2.591 2.1924l-0.48629 5.8348q-0.19933 2.3917 2.1924 2.591l7.7157 0.64306q2.3917 0.19933 2.591-2.1924z" clip-path="url(#a)" fill="#fff" stroke="#fff"/>
<g clip-path="url(#a)">
<g transform="translate(163.96 565.38) rotate(-85.236) scale(.08 -.08)">
<use xlink:href="#ad"/>
</g>
</g>
<path d="m1450.6 968.85v33.808q0 2.4 2.4 2.4h7.7425q2.4 0 2.4-2.4v-33.808q0-2.4-2.4-2.4h-7.7425q-2.4 0-2.4 2.4z" clip-path="url(#a)" fill="#fff" stroke="#fff"/>
<g clip-path="url(#a)">
<defs>
<path id="k" d="m-0.29688 72.906h61.672v-8.3125h-25.875v-64.594h-9.9062v64.594h-25.891z"/>
<path id="d" d="m56.203 29.594v-4.3906h-41.312q0.59375-9.2812 5.5938-14.141t13.938-4.8594q5.1719 0 10.031 1.2656t9.6562 3.8125v-8.5q-4.8438-2.0469-9.9219-3.125t-10.297-1.0781q-13.094 0-20.734 7.6094-7.6406 7.625-7.6406 20.625 0 13.422 7.25 21.297 7.25 7.8906 19.562 7.8906 11.031 0 17.453-7.1094 6.4219-7.0938 6.4219-19.297zm-8.9844 2.6406q-0.09375 7.3594-4.125 11.75-4.0312 4.4062-10.672 4.4062-7.5156 0-12.031-4.25t-5.2031-11.969z"/>
<path id="h" d="m41.109 46.297q-1.5156 0.875-3.2969 1.2812-1.7812 0.42188-3.9219 0.42188-7.625 0-11.703-4.9531t-4.0781-14.234v-28.812h-9.0312v54.688h9.0312v-8.5q2.8438 4.9844 7.375 7.3906 4.5469 2.4219 11.047 2.4219 0.92188 0 2.0469-0.125 1.125-0.10938 2.4844-0.35938z"/>
<path id="l" d="m52 44.188q3.375 6.0625 8.0625 8.9375t11.031 2.875q8.5469 0 13.188-5.9844 4.6406-5.9688 4.6406-17v-33.016h-9.0312v32.719q0 7.8594-2.7969 11.656-2.7812 3.8125-8.4844 3.8125-6.9844 0-11.047-4.6406-4.0469-4.625-4.0469-12.641v-30.906h-9.0312v32.719q0 7.9062-2.7812 11.688t-8.5938 3.7812q-6.8906 0-10.953-4.6562-4.0469-4.6562-4.0469-12.625v-30.906h-9.0312v54.688h9.0312v-8.5q3.0781 5.0312 7.375 7.4219t10.203 2.3906q5.9688 0 10.141-3.0312 4.1719-3.0156 6.1719-8.7812z"/>
<path id="i" d="m9.4219 54.688h8.9844v-54.688h-8.9844zm0 21.297h8.9844v-11.391h-8.9844z"/>
<path id="g" d="m54.891 33.016v-33.016h-8.9844v32.719q0 7.7656-3.0312 11.609-3.0312 3.8594-9.0781 3.8594-7.2812 0-11.484-4.6406-4.2031-4.625-4.2031-12.641v-30.906h-9.0312v54.688h9.0312v-8.5q3.2344 4.9375 7.5938 7.375 4.375 2.4375 10.094 2.4375 9.4219 0 14.25-5.8281 4.8438-5.8281 4.8438-17.156z"/>
<path id="f" d="m34.281 27.484q-10.891 0-15.094-2.4844t-4.2031-8.5q0-4.7812 3.1562-7.5938 3.1562-2.7969 8.5625-2.7969 7.4844 0 12 5.2969t4.5156 14.078v2zm17.922 3.7188v-31.203h-8.9844v8.2969q-3.0781-4.9688-7.6719-7.3438t-11.234-2.375q-8.3906 0-13.359 4.7188-4.9531 4.7188-4.9531 12.625 0 9.2188 6.1719 13.906 6.1875 4.6875 18.438 4.6875h12.609v0.89062q0 6.2031-4.0781 9.5938t-11.453 3.3906q-4.6875 0-9.1406-1.125-4.4375-1.125-8.5312-3.375v8.3125q4.9219 1.9062 9.5625 2.8438 4.6406 0.95312 9.0312 0.95312 11.875 0 17.734-6.1562 5.8594-6.1406 5.8594-18.641z"/>
<path id="j" d="m9.4219 75.984h8.9844v-75.984h-8.9844z"/>
</defs>
<g transform="translate(1454.7 968.85) rotate(90) scale(.08 -.08)">
<use xlink:href="#k"/>
<use x="44.083984" xlink:href="#d"/>
<use x="105.607422" xlink:href="#h"/>
<use x="144.970703" xlink:href="#l"/>
<use x="242.382812" xlink:href="#i"/>
<use x="270.166016" xlink:href="#g"/>
<use x="333.544922" xlink:href="#f"/>
<use x="394.824219" xlink:href="#j"/>
</g>
</g>
<path d="m1618.5 737.74 1.9851-4.151q1.0354-2.1652-1.1297-3.2006l-6.9849-3.3404q-2.1652-1.0354-3.2006 1.1297l-1.9851 4.151q-1.0354 2.1652 1.1297 3.2006l6.9849 3.3404q2.1652 1.0354 3.2006-1.1297z" clip-path="url(#a)" fill="#fff" stroke="#fff"/>
<g clip-path="url(#a)">
<defs>
<path id="t" d="m9.8125 72.906h41.891v-8.3125h-32.031v-21.484h28.906v-8.2969h-28.906v-34.812h-9.8594z"/>
</defs>
<g transform="translate(1614.8 735.99) rotate(-64.442) scale(.08 -.08)">
<use xlink:href="#t"/>
</g>
</g>
<path d="m1678.2 652.69 1.3752-5.2969q0.6031-2.323-1.7199-2.9261l-7.4941-1.9456q-2.323-0.6031-2.9261 1.7199l-1.3752 5.2969q-0.6031 2.323 1.7199 2.9261l7.4941 1.9456q2.323 0.6031 2.9261-1.7199z" clip-path="url(#a)" fill="#fff" stroke="#fff"/>
<g clip-path="url(#a)">
<g transform="translate(1674.2 651.66) rotate(-75.446) scale(.08 -.08)">
<use xlink:href="#r"/>
</g>
</g>
<path d="m1792.1 651.77 3.7227 3.0676q1.8522 1.5262 3.3784-0.32597l4.9237-5.9753q1.5262-1.8522-0.32597-3.3784l-3.7227-3.0676q-1.8522-1.5262-3.3784 0.32597l-4.9237 5.9753q-1.5262 1.8522 0.32597 3.3784z" clip-path="url(#a)" fill="#fff" stroke="#fff"/>
<g clip-path="url(#a)">
<g transform="translate(1794.7 648.63) rotate(39.489) scale(.08 -.08)">
<use xlink:href="#ah"/>
</g>
</g>
<path d="m1526.5 968.85v33.808q0 2.4 2.4 2.4h7.7425q2.4 0 2.4-2.4v-33.808q0-2.4-2.4-2.4h-7.7425q-2.4 0-2.4 2.4z" clip-path="url(#a)" fill="#fff" stroke="#fff"/>
<g clip-path="url(#a)">
<g transform="translate(1530.6 968.85) rotate(90) scale(.08 -.08)">
<use xlink:href="#k"/>
<use x="44.083984" xlink:href="#d"/>
<use x="105.607422" xlink:href="#h"/>
<use x="144.970703" xlink:href="#l"/>
<use x="242.382812" xlink:href="#i"/>
<use x="270.166016" xlink:href="#g"/>
<use x="333.544922" xlink:href="#f"/>
<use x="394.824219" xlink:href="#j"/>
</g>
</g>
<path d="m1636.3 821.59 1.0599-4.4775q0.55282-2.3355-1.7826-2.8883l-7.5343-1.7834q-2.3355-0.55282-2.8883 1.7826l-1.0599 4.4775q-0.55282 2.3355 1.7826 2.8883l7.5343 1.7834q2.3355 0.55282 2.8883-1.7826z" clip-path="url(#a)" fill="#fff" stroke="#fff"/>
<g clip-path="url(#a)">
<g transform="translate(1632.3 820.65) rotate(-76.683) scale(.08 -.08)">
<use xlink:href="#t"/>
</g>
</g>
<path d="m1664 816.63 1.2867 5.436q0.55282 2.3355 2.8883 1.7826l7.5343-1.7834q2.3355-0.55282 1.7826-2.8883l-1.2867-5.436q-0.55282-2.3355-2.8883-1.7826l-7.5343 1.7834q-2.3355 0.55282-1.7826 2.8883z" clip-path="url(#a)" fill="#fff" stroke="#fff"/>
<g clip-path="url(#a)">
<defs>
<path id="z" d="m64.406 67.281v-10.391q-4.9844 4.6406-10.625 6.9219-5.6406 2.2969-11.984 2.2969-12.5 0-19.141-7.6406t-6.6406-22.094q0-14.406 6.6406-22.047t19.141-7.6406q6.3438 0 11.984 2.2969t10.625 6.9375v-10.312q-5.1719-3.5156-10.969-5.2812-5.7812-1.75-12.219-1.75-16.562 0-26.094 10.125-9.5156 10.141-9.5156 27.672 0 17.578 9.5156 27.703 9.5312 10.141 26.094 10.141 6.5312 0 12.312-1.7344 5.7969-1.7344 10.875-5.2031z"/>
</defs>
<g transform="translate(1667.9 815.7) rotate(76.683) scale(.08 -.08)">
<use xlink:href="#z"/>
</g>
</g>
<path d="m1840.2 823.91 3.3598-4.4285q1.4506-1.912-0.46142-3.3626l-6.1682-4.6797q-1.912-1.4506-3.3626 0.46142l-3.3598 4.4285q-1.4506 1.912 0.46142 3.3626l6.1682 4.6797q1.912 1.4506 3.3626-0.46142z" clip-path="url(#a)" fill="#fff" stroke="#fff"/>
<g clip-path="url(#a)">
<defs>
<path id="au" d="m44.391 34.188q3.1719-1.0781 6.1719-4.5938t6.0312-9.6719l10.016-19.922h-10.609l-9.3125 18.703q-3.625 7.3281-7.0156 9.7188t-9.25 2.3906h-10.75v-30.812h-9.8594v72.906h22.266q12.5 0 18.656-5.2344 6.1562-5.2188 6.1562-15.766 0-6.8906-3.2031-11.438-3.2031-4.5312-9.2969-6.2812zm-24.719 30.609v-25.875h12.406q7.125 0 10.766 3.2969t3.6406 9.6875-3.6406 9.6406-10.766 3.25z"/>
</defs>
<g transform="translate(1837 821.45) rotate(-52.813) scale(.08 -.08)">
<use xlink:href="#au"/>
</g>
</g>
<path d="m1884.3 822.19 1.4107-5.4052q0.60606-2.3222-1.7162-2.9283l-7.4916-1.9552q-2.3222-0.60606-2.9283 1.7162l-1.4107 5.4052q-0.60606 2.3222 1.7162 2.9283l7.4916 1.9552q2.3222 0.60606 2.9283-1.7162z" clip-path="url(#a)" fill="#fff" stroke="#fff"/>
<g clip-path="url(#a)">
<g transform="translate(1880.4 821.17) rotate(-75.373) scale(.08 -.08)">
<use xlink:href="#z"/>
</g>
</g>
<path d="m1915.2 816.58 1.4139 5.6817q0.57955 2.329 2.9085 1.7494l7.5134-1.8697q2.329-0.57955 1.7494-2.9085l-1.4139-5.6817q-0.57955-2.329-2.9085-1.7494l-7.5134 1.8697q-2.329 0.57955-1.7494 2.9085z" clip-path="url(#a)" fill="#fff" stroke="#fff"/>
<g clip-path="url(#a)">
<g transform="translate(1919.2 815.6) rotate(76.026) scale(.08 -.08)">
<use xlink:href="#ad"/>
</g>
</g>
<path d="m1959.4 819.42 3.5745 4.6373q1.4652 1.9008 3.366 0.43565l6.1322-4.7268q1.9008-1.4652 0.43565-3.366l-3.5745-4.6373q-1.4652-1.9008-3.366-0.43565l-6.1322 4.7268q-1.9008 1.4652-0.43565 3.366z" clip-path="url(#a)" fill="#fff" stroke="#fff"/>
<g clip-path="url(#a)">
<g transform="translate(1962.6 816.94) rotate(52.375) scale(.08 -.08)">
<use xlink:href="#ad"/>
</g>
</g>
<path d="m1766.5 968.85v33.808q0 2.4 2.4 2.4h7.7425q2.4 0 2.4-2.4v-33.808q0-2.4-2.4-2.4h-7.7425q-2.4 0-2.4 2.4z" clip-path="url(#a)" fill="#fff" stroke="#fff"/>
<g clip-path="url(#a)">
<g transform="translate(1770.6 968.85) rotate(90) scale(.08 -.08)">
<use xlink:href="#k"/>
<use x="44.083984" xlink:href="#d"/>
<use x="105.607422" xlink:href="#h"/>
<use x="144.970703" xlink:href="#l"/>
<use x="242.382812" xlink:href="#i"/>
<use x="270.166016" xlink:href="#g"/>
<use x="333.544922" xlink:href="#f"/>
<use x="394.824219" xlink:href="#j"/>
</g>
</g>
<path d="m1850.6 968.85v33.808q0 2.4 2.4 2.4h7.7425q2.4 0 2.4-2.4v-33.808q0-2.4-2.4-2.4h-7.7425q-2.4 0-2.4 2.4z" clip-path="url(#a)" fill="#fff" stroke="#fff"/>
<g clip-path="url(#a)">
<g transform="translate(1854.7 968.85) rotate(90) scale(.08 -.08)">
<use xlink:href="#k"/>
<use x="44.083984" xlink:href="#d"/>
<use x="105.607422" xlink:href="#h"/>
<use x="144.970703" xlink:href="#l"/>
<use x="242.382812" xlink:href="#i"/>
<use x="270.166016" xlink:href="#g"/>
<use x="333.544922" xlink:href="#f"/>
<use x="394.824219" xlink:href="#j"/>
</g>
</g>
<path d="m1604.4 968.85v33.808q0 2.4 2.4 2.4h7.7425q2.4 0 2.4-2.4v-33.808q0-2.4-2.4-2.4h-7.7425q-2.4 0-2.4 2.4z" clip-path="url(#a)" fill="#fff" stroke="#fff"/>
<g clip-path="url(#a)">
<g transform="translate(1608.5 968.85) rotate(90) scale(.08 -.08)">
<use xlink:href="#k"/>
<use x="44.083984" xlink:href="#d"/>
<use x="105.607422" xlink:href="#h"/>
<use x="144.970703" xlink:href="#l"/>
<use x="242.382812" xlink:href="#i"/>
<use x="270.166016" xlink:href="#g"/>
<use x="333.544922" xlink:href="#f"/>
<use x="394.824219" xlink:href="#j"/>
</g>
</g>
<path d="m1684.5 968.85v33.808q0 2.4 2.4 2.4h7.7425q2.4 0 2.4-2.4v-33.808q0-2.4-2.4-2.4h-7.7425q-2.4 0-2.4 2.4z" clip-path="url(#a)" fill="#fff" stroke="#fff"/>
<g clip-path="url(#a)">
<g transform="translate(1688.5 968.85) rotate(90) scale(.08 -.08)">
<use xlink:href="#k"/>
<use x="44.083984" xlink:href="#d"/>
<use x="105.607422" xlink:href="#h"/>
<use x="144.970703" xlink:href="#l"/>
<use x="242.382812" xlink:href="#i"/>
<use x="270.166016" xlink:href="#g"/>
<use x="333.544922" xlink:href="#f"/>
<use x="394.824219" xlink:href="#j"/>
</g>
</g>
<path d="m90.456 968.85v33.808q0 2.4 2.4 2.4h7.7425q2.4 0 2.4-2.4v-33.808q0-2.4-2.4-2.4h-7.7425q-2.4 0-2.4 2.4z" clip-path="url(#a)" fill="#fff" stroke="#fff"/>
<g clip-path="url(#a)">
<g transform="translate(94.52 968.85) rotate(90) scale(.08 -.08)">
<use xlink:href="#k"/>
<use x="44.083984" xlink:href="#d"/>
<use x="105.607422" xlink:href="#h"/>
<use x="144.970703" xlink:href="#l"/>
<use x="242.382812" xlink:href="#i"/>
<use x="270.166016" xlink:href="#g"/>
<use x="333.544922" xlink:href="#f"/>
<use x="394.824219" xlink:href="#j"/>
</g>
</g>
<path d="m96.61 968.85v33.808q0 2.4 2.4 2.4h7.7425q2.4 0 2.4-2.4v-33.808q0-2.4-2.4-2.4h-7.7425q-2.4 0-2.4 2.4z" clip-path="url(#a)" fill="#fff" stroke="#fff"/>
<g clip-path="url(#a)">
<g transform="translate(100.67 968.85) rotate(90) scale(.08 -.08)">
<use xlink:href="#k"/>
<use x="44.083984" xlink:href="#d"/>
<use x="105.607422" xlink:href="#h"/>
<use x="144.970703" xlink:href="#l"/>
<use x="242.382812" xlink:href="#i"/>
<use x="270.166016" xlink:href="#g"/>
<use x="333.544922" xlink:href="#f"/>
<use x="394.824219" xlink:href="#j"/>
</g>
</g>
<path d="m104.82 968.85v33.808q0 2.4 2.4 2.4h7.7425q2.4 0 2.4-2.4v-33.808q0-2.4-2.4-2.4h-7.7425q-2.4 0-2.4 2.4z" clip-path="url(#a)" fill="#fff" stroke="#fff"/>
<g clip-path="url(#a)">
<g transform="translate(108.88 968.85) rotate(90) scale(.08 -.08)">
<use xlink:href="#k"/>
<use x="44.083984" xlink:href="#d"/>
<use x="105.607422" xlink:href="#h"/>
<use x="144.970703" xlink:href="#l"/>
<use x="242.382812" xlink:href="#i"/>
<use x="270.166016" xlink:href="#g"/>
<use x="333.544922" xlink:href="#f"/>
<use x="394.824219" xlink:href="#j"/>
</g>
</g>
<path d="m115.07 968.85v33.808q0 2.4 2.4 2.4h7.7425q2.4 0 2.4-2.4v-33.808q0-2.4-2.4-2.4h-7.7425q-2.4 0-2.4 2.4z" clip-path="url(#a)" fill="#fff" stroke="#fff"/>
<g clip-path="url(#a)">
<g transform="translate(119.14 968.85) rotate(90) scale(.08 -.08)">
<use xlink:href="#k"/>
<use x="44.083984" xlink:href="#d"/>
<use x="105.607422" xlink:href="#h"/>
<use x="144.970703" xlink:href="#l"/>
<use x="242.382812" xlink:href="#i"/>
<use x="270.166016" xlink:href="#g"/>
<use x="333.544922" xlink:href="#f"/>
<use x="394.824219" xlink:href="#j"/>
</g>
</g>
<path d="m388.08 569.91 4.4842-4.0109q1.7888-1.6 0.1888-3.3889l-5.1618-5.7708q-1.6-1.7888-3.3889-0.1888l-4.4842 4.0109q-1.7888 1.6-0.1888 3.3889l5.1618 5.7708q1.6 1.7888 3.3889 0.1888z" clip-path="url(#a)" fill="#fff" stroke="#fff"/>
<g clip-path="url(#a)">
<g transform="translate(385.37 566.88) rotate(-41.811) scale(.08 -.08)">
<use xlink:href="#y"/>
</g>
</g>
<path d="m431.11 652.83 2.2573-3.8437q1.2154-2.0695-0.8541-3.2849l-6.6763-3.9209q-2.0695-1.2154-3.2849 0.8541l-2.2573 3.8437q-1.2154 2.0695 0.8541 3.2849l6.6763 3.9209q2.0695 1.2154 3.2849-0.8541z" clip-path="url(#a)" fill="#fff" stroke="#fff"/>
<g clip-path="url(#a)">
<g transform="translate(427.6 650.77) rotate(-59.575) scale(.08 -.08)">
<use xlink:href="#am"/>
</g>
</g>
<path d="m472.36 485.05 4.6822-3.7779q1.8678-1.5071 0.36073-3.3749l-4.8619-6.0256q-1.5071-1.8678-3.3749-0.36073l-4.6822 3.7779q-1.8678 1.5071-0.36073 3.3749l4.8619 6.0256q1.5071 1.8678 3.3749 0.36073z" clip-path="url(#a)" fill="#fff" stroke="#fff"/>
<g clip-path="url(#a)">
<g transform="translate(469.81 481.89) rotate(-38.899) scale(.08 -.08)">
<use xlink:href="#y"/>
</g>
</g>
<path d="m612.26 478.41 2.7004 5.3762q1.0773 2.1447 3.2219 1.0674l6.9187-3.4753q2.1447-1.0772 1.0674-3.2219l-2.7004-5.3762q-1.0772-2.1447-3.2219-1.0674l-6.9187 3.4753q-2.1447 1.0772-1.0674 3.2219z" clip-path="url(#a)" fill="#fff" stroke="#fff"/>
<g clip-path="url(#a)">
<g transform="translate(615.89 476.59) rotate(63.33) scale(.08 -.08)">
<use xlink:href="#y"/>
</g>
</g>
<path d="m743.5 649.42 2.51 3.6836q1.3514 1.9833 3.3348 0.6319l6.3983-4.3598q1.9833-1.3514 0.6319-3.3348l-2.51-3.6836q-1.3514-1.9833-3.3348-0.6319l-6.3983 4.3598q-1.9833 1.3514-0.6319 3.3348z" clip-path="url(#a)" fill="#fff" stroke="#fff"/>
<g clip-path="url(#a)">
<g transform="translate(746.86 647.13) rotate(55.73) scale(.08 -.08)">
<use xlink:href="#am"/>
</g>
</g>
<path d="m868.4 483.48 5.7823 1.6615q2.3067 0.6628 2.9695-1.6439l2.1382-7.4414q0.6628-2.3067-1.6439-2.9695l-5.7823-1.6615q-2.3067-0.6628-2.9695 1.6439l-2.1382 7.4414q-0.6628 2.3067 1.6439 2.9695z" clip-path="url(#a)" fill="#fff" stroke="#fff"/>
<g clip-path="url(#a)">
<g transform="translate(869.52 479.57) rotate(16.032) scale(.08 -.08)">
<use xlink:href="#y"/>
</g>
</g>
<path d="m514.2 652.17 1.5003-5.6595q0.61496-2.3199-1.7049-2.9348l-7.484-1.9839q-2.3199-0.61496-2.9348 1.7049l-1.5003 5.6595q-0.61496 2.3199 1.7049 2.9348l7.484 1.9839q2.3199 0.61496 2.9348-1.7049z" clip-path="url(#a)" fill="#fff" stroke="#fff"/>
<g clip-path="url(#a)">
<g transform="translate(510.27 651.12) rotate(-75.153) scale(.08 -.08)">
<use xlink:href="#ad"/>
</g>
</g>
<path d="m177.32 821.97 1.3316-4.7013q0.65404-2.3092-1.6551-2.9632l-7.4495-2.11q-2.3092-0.65404-2.9632 1.6551l-1.3316 4.7013q-0.65404 2.3092 1.6551 2.9632l7.4495 2.11q2.3092 0.65404 2.9632-1.6551z" clip-path="url(#a)" fill="#fff" stroke="#fff"/>
<g clip-path="url(#a)">
<g transform="translate(173.41 820.86) rotate(-74.186) scale(.08 -.08)">
<use xlink:href="#k"/>
</g>
</g>
<path d="m185.9 821.32 0.84196-4.5236q0.43916-2.3595-1.9203-2.7986l-7.6118-1.4168q-2.3595-0.43916-2.7986 1.9203l-0.84196 4.5236q-0.43916 2.3595 1.9203 2.7986l7.6118 1.4168q2.3595 0.43916 2.7986-1.9203z" clip-path="url(#a)" fill="#fff" stroke="#fff"/>
<g clip-path="url(#a)">
<g transform="translate(181.9 820.57) rotate(-79.456) scale(.08 -.08)">
<use xlink:href="#t"/>
</g>
</g>
<path d="m195.43 821.12 0.41948-5.4564q0.18397-2.3929-2.209-2.5769l-7.7197-0.59348q-2.3929-0.18397-2.5769 2.209l-0.41948 5.4564q-0.18397 2.3929 2.209 2.5769l7.7197 0.59348q2.3929 0.18397 2.5769-2.209z" clip-path="url(#a)" fill="#fff" stroke="#fff"/>
<g clip-path="url(#a)">
<g transform="translate(191.38 820.8) rotate(-85.604) scale(.08 -.08)">
<use xlink:href="#r"/>
</g>
</g>
<path d="m193.24 815.09 0.27563 6.1926q0.10672 2.3976 2.5043 2.2909l7.7348-0.34427q2.3976-0.10672 2.2909-2.5043l-0.27563-6.1926q-0.10672-2.3976-2.5043-2.2909l-7.7348 0.34427q-2.3976 0.10672-2.2909 2.5043z" clip-path="url(#a)" fill="#fff" stroke="#fff"/>
<g clip-path="url(#a)">
<defs>
<path id="an" d="m59.516 10.406v19.578h-16.109v8.1094h25.875v-31.312q-5.7031-4.0469-12.594-6.125-6.875-2.0781-14.688-2.0781-17.094 0-26.75 9.9844-9.6406 10-9.6406 27.812 0 17.875 9.6406 27.859 9.6562 9.9844 26.75 9.9844 7.125 0 13.547-1.7656 6.4219-1.75 11.844-5.1719v-10.5q-5.4688 4.6406-11.625 6.9844t-12.938 2.3438q-13.391 0-20.109-7.4688-6.7031-7.4688-6.7031-22.266 0-14.75 6.7031-22.219 6.7188-7.4688 20.109-7.4688 5.2188 0 9.3125 0.90625 4.1094 0.90625 7.375 2.8125z"/>
</defs>
<g transform="translate(197.3 814.91) rotate(87.452) scale(.08 -.08)">
<use xlink:href="#an"/>
</g>
</g>
<path d="m204.21 815.97 1.0797 6.0646q0.42067 2.3628 2.7835 1.9422l7.6226-1.3571q2.3628-0.42067 1.9422-2.7835l-1.0797-6.0646q-0.42067-2.3628-2.7835-1.9422l-7.6226 1.3571q-2.3628 0.42067-1.9422 2.7835z" clip-path="url(#a)" fill="#fff" stroke="#fff"/>
<g clip-path="url(#a)">
<g transform="translate(208.21 815.26) rotate(79.905) scale(.08 -.08)">
<use xlink:href="#ae"/>
</g>
</g>
<path d="m216.49 817.42 1.5641 4.8319q0.73912 2.2834 3.0225 1.5442l7.3662-2.3844q2.2834-0.73912 1.5442-3.0225l-1.5641-4.8319q-0.73912-2.2834-3.0225-1.5442l-7.3662 2.3844q-2.2834 0.73912-1.5442 3.0225z" clip-path="url(#a)" fill="#fff" stroke="#fff"/>
<g clip-path="url(#a)">
<defs>
<path id="al" d="m53.516 70.516v-9.625q-5.6094 2.6875-10.594 4-4.9844 1.3281-9.625 1.3281-8.0469 0-12.422-3.125t-4.375-8.8906q0-4.8438 2.9062-7.3125 2.9062-2.4531 11.016-3.9688l5.9531-1.2188q11.031-2.1094 16.281-7.4062t5.25-14.172q0-10.609-7.1094-16.078-7.0938-5.4688-20.812-5.4688-5.1719 0-11.016 1.1719-5.8281 1.1719-12.078 3.4688v10.156q6-3.3594 11.766-5.0781 5.7656-1.7031 11.328-1.7031 8.4375 0 13.031 3.3125 4.5938 3.3281 4.5938 9.4844 0 5.3594-3.2969 8.3906t-10.812 4.5469l-6.0156 1.1719q-11.031 2.1875-15.969 6.875-4.9219 4.6875-4.9219 13.047 0 9.6719 6.8125 15.234t18.766 5.5625q5.1406 0 10.453-0.9375 5.3281-0.92188 10.891-2.7656z"/>
</defs>
<g transform="translate(220.35 816.17) rotate(72.063) scale(.08 -.08)">
<use xlink:href="#al"/>
</g>
</g>
<path d="m270.99 968.85v33.808q0 2.4 2.4 2.4h7.7425q2.4 0 2.4-2.4v-33.808q0-2.4-2.4-2.4h-7.7425q-2.4 0-2.4 2.4z" clip-path="url(#a)" fill="#fff" stroke="#fff"/>
<g clip-path="url(#a)">
<g transform="translate(275.05 968.85) rotate(90) scale(.08 -.08)">
<use xlink:href="#k"/>
<use x="44.083984" xlink:href="#d"/>
<use x="105.607422" xlink:href="#h"/>
<use x="144.970703" xlink:href="#l"/>
<use x="242.382812" xlink:href="#i"/>
<use x="270.166016" xlink:href="#g"/>
<use x="333.544922" xlink:href="#f"/>
<use x="394.824219" xlink:href="#j"/>
</g>
</g>
<path d="m348.64 652.68 1.3652-5.2995q0.59872-2.3241-1.7254-2.9228l-7.4977-1.9315q-2.3241-0.59872-2.9228 1.7254l-1.3652 5.2995q-0.59872 2.3241 1.7254 2.9228l7.4977 1.9315q2.3241 0.59872 2.9228-1.7254z" clip-path="url(#a)" fill="#fff" stroke="#fff"/>
<g clip-path="url(#a)">
<g transform="translate(344.7 651.66) rotate(-75.554) scale(.08 -.08)">
<use xlink:href="#r"/>
</g>
</g>
<path d="m361.05 730.51 0.066607 5.0783q0.031475 2.3998 2.4313 2.3683l7.7418-0.10154q2.3998-0.031476 2.3683-2.4313l-0.066607-5.0783q-0.031475-2.3998-2.4313-2.3683l-7.7418 0.10154q-2.3998 0.031476-2.3683 2.4313z" clip-path="url(#a)" fill="#fff" stroke="#fff"/>
<g clip-path="url(#a)">
<g transform="translate(365.11 730.45) rotate(89.249) scale(.08 -.08)">
<use xlink:href="#al"/>
</g>
</g>
<path d="m378.2 730.63 0.70996 6.119q0.27661 2.384 2.6606 2.1074l7.6909-0.89234q2.384-0.27661 2.1074-2.6606l-0.70996-6.119q-0.27661-2.384-2.6606-2.1074l-7.6909 0.89234q-2.384 0.27661-2.1074 2.6606z" clip-path="url(#a)" fill="#fff" stroke="#fff"/>
<g clip-path="url(#a)">
<g transform="translate(382.24 730.16) rotate(83.382) scale(.08 -.08)">
<use xlink:href="#ae"/>
</g>
</g>
<path d="m575.42 738.34 2.5856-4.8232q1.1339-2.1152-0.98132-3.2492l-6.8238-3.6581q-2.1152-1.1339-3.2492 0.98132l-2.5856 4.8232q-1.1339 2.1152 0.98132 3.2492l6.8238 3.6581q2.1152 1.1339 3.2492-0.98132z" clip-path="url(#a)" fill="#fff" stroke="#fff"/>
<g clip-path="url(#a)">
<g transform="translate(571.84 736.42) rotate(-61.805) scale(.08 -.08)">
<use xlink:href="#r"/>
</g>
</g>
<path d="m596.61 737.49 1.7637-4.2498q0.91993-2.2167-1.2968-3.1366l-7.1511-2.9677q-2.2167-0.91993-3.1366 1.2968l-1.7637 4.2498q-0.91993 2.2167 1.2968 3.1366l7.1511 2.9677q2.2167 0.91993 3.1366-1.2968z" clip-path="url(#a)" fill="#fff" stroke="#fff"/>
<g clip-path="url(#a)">
<g transform="translate(592.86 735.93) rotate(-67.461) scale(.08 -.08)">
<use xlink:href="#t"/>
</g>
</g>
<path d="m629.28 653.23 1.9732-4.4701q0.96919-2.1956-1.2264-3.1648l-7.0831-3.1267q-2.1956-0.96919-3.1648 1.2264l-1.9732 4.4701q-0.96919 2.1956 1.2264 3.1648l7.0831 3.1267q2.1956 0.96919 3.1648-1.2264z" clip-path="url(#a)" fill="#fff" stroke="#fff"/>
<g clip-path="url(#a)">
<g transform="translate(625.56 651.59) rotate(-66.182) scale(.08 -.08)">
<use xlink:href="#k"/>
</g>
</g>
<path d="m677.6 647.41 1.3918 5.2926q0.61039 2.3211 2.9315 1.7107l7.4879-1.9691q2.3211-0.61039 1.7107-2.9315l-1.3918-5.2926q-0.61039-2.3211-2.9315-1.7107l-7.4879 1.9691q-2.3211 0.61039-1.7107 2.9315z" clip-path="url(#a)" fill="#fff" stroke="#fff"/>
<g clip-path="url(#a)">
<g transform="translate(681.53 646.38) rotate(75.266) scale(.08 -.08)">
<use xlink:href="#r"/>
</g>
</g>
<path d="m729.62 733.27 1.9373 4.4176q0.96389 2.1979 3.1618 1.234l7.0906-3.1095q2.1979-0.96389 1.234-3.1618l-1.9373-4.4176q-0.96389-2.1979-3.1618-1.234l-7.0906 3.1095q-2.1979 0.96389-1.234 3.1618z" clip-path="url(#a)" fill="#fff" stroke="#fff"/>
<g clip-path="url(#a)">
<g transform="translate(733.34 731.64) rotate(66.32) scale(.08 -.08)">
<use xlink:href="#ah"/>
</g>
</g>
<path d="m757.47 734.23 2.3731 3.9421q1.2378 2.0562 3.294 0.81838l6.6333-3.9932q2.0562-1.2378 0.81838-3.294l-2.3731-3.9421q-1.2378-2.0562-3.294-0.81838l-6.6333 3.9932q-2.0562 1.2378-0.81838 3.294z" clip-path="url(#a)" fill="#fff" stroke="#fff"/>
<g clip-path="url(#a)">
<g transform="translate(760.95 732.13) rotate(58.953) scale(.08 -.08)">
<use xlink:href="#t"/>
</g>
</g>
<path d="m917.2 968.85v33.808q0 2.4 2.4 2.4h7.7425q2.4 0 2.4-2.4v-33.808q0-2.4-2.4-2.4h-7.7425q-2.4 0-2.4 2.4z" clip-path="url(#a)" fill="#fff" stroke="#fff"/>
<g clip-path="url(#a)">
<g transform="translate(921.27 968.85) rotate(90) scale(.08 -.08)">
<use xlink:href="#k"/>
<use x="44.083984" xlink:href="#d"/>
<use x="105.607422" xlink:href="#h"/>
<use x="144.970703" xlink:href="#l"/>
<use x="242.382812" xlink:href="#i"/>
<use x="270.166016" xlink:href="#g"/>
<use x="333.544922" xlink:href="#f"/>
<use x="394.824219" xlink:href="#j"/>
</g>
</g>
<path d="m1094.5 654.72 3.7002-4.0319q1.6228-1.7682-0.14547-3.391l-5.7044-5.2351q-1.7682-1.6228-3.391 0.14547l-3.7002 4.0319q-1.6228 1.7682 0.14547 3.391l5.7044 5.2351q1.7682 1.6228 3.391-0.14547z" clip-path="url(#a)" fill="#fff" stroke="#fff"/>
<g clip-path="url(#a)">
<g transform="translate(1091.5 651.97) rotate(-47.456) scale(.08 -.08)">
<use xlink:href="#r"/>
</g>
</g>
<path d="m1144.6 736.35 0.82216-4.5272q0.42884-2.3614-1.9325-2.7902l-7.6179-1.3835q-2.3614-0.42884-2.7902 1.9325l-0.82216 4.5272q-0.42884 2.3614 1.9325 2.7902l7.6179 1.3835q2.3614 0.42884 2.7902-1.9325z" clip-path="url(#a)" fill="#fff" stroke="#fff"/>
<g clip-path="url(#a)">
<g transform="translate(1140.6 735.62) rotate(-79.707) scale(.08 -.08)">
<use xlink:href="#t"/>
</g>
</g>
<path d="m1165.4 730.59 0.059154 4.8859q0.029055 2.3998 2.4289 2.3708l7.7419-0.093731q2.3998-0.029055 2.3708-2.4289l-0.059154-4.8859q-0.029054-2.3998-2.4289-2.3708l-7.7419 0.093732q-2.3998 0.029055-2.3708 2.4289z" clip-path="url(#a)" fill="#fff" stroke="#fff"/>
<g clip-path="url(#a)">
<g transform="translate(1169.5 730.55) rotate(89.306) scale(.08 -.08)">
<use xlink:href="#k"/>
</g>
</g>
<path d="m1198.8 731.25 1.2768 6.0262q0.49745 2.3479 2.8453 1.8504l7.5744-1.6048q2.3479-0.49745 1.8504-2.8453l-1.2768-6.0262q-0.49745-2.3479-2.8453-1.8504l-7.5744 1.6048q-2.3479 0.49745-1.8504 2.8453z" clip-path="url(#a)" fill="#fff" stroke="#fff"/>
<g clip-path="url(#a)">
<g transform="translate(1202.8 730.41) rotate(78.037) scale(.08 -.08)">
<use xlink:href="#ae"/>
</g>
</g>
<path d="m1233.7 733.15 1.8592 4.4511q0.92501 2.2146 3.1396 1.2896l7.1443-2.9841q2.2146-0.92501 1.2896-3.1396l-1.8592-4.4511q-0.92501-2.2146-3.1396-1.2896l-7.1443 2.9841q-2.2146 0.92501-1.2896 3.1396z" clip-path="url(#a)" fill="#fff" stroke="#fff"/>
<g clip-path="url(#a)">
<g transform="translate(1237.5 731.59) rotate(67.33) scale(.08 -.08)">
<use xlink:href="#ah"/>
</g>
</g>
<path d="m1004.1 821.29 0.82425-4.5268q0.42993-2.3612-1.9313-2.7911l-7.6173-1.387q-2.3612-0.42993-2.7911 1.9313l-0.82425 4.5268q-0.42993 2.3612 1.9313 2.7911l7.6173 1.387q2.3612 0.42993 2.7911-1.9313z" clip-path="url(#a)" fill="#fff" stroke="#fff"/>
<g clip-path="url(#a)">
<g transform="translate(1000.1 820.57) rotate(-79.681) scale(.08 -.08)">
<use xlink:href="#t"/>
</g>
</g>
<path d="m1022.5 816.28 1.0007 5.4959q0.42993 2.3612 2.7911 1.9313l7.6173-1.387q2.3612-0.42993 1.9313-2.7911l-1.0007-5.4959q-0.42993-2.3612-2.7911-1.9313l-7.6173 1.387q-2.3612 0.42993-1.9313 2.7911z" clip-path="url(#a)" fill="#fff" stroke="#fff"/>
<g clip-path="url(#a)">
<g transform="translate(1026.5 815.55) rotate(79.681) scale(.08 -.08)">
<use xlink:href="#z"/>
</g>
</g>
<path d="m1101.8 968.85v33.808q0 2.4 2.4 2.4h7.7425q2.4 0 2.4-2.4v-33.808q0-2.4-2.4-2.4h-7.7425q-2.4 0-2.4 2.4z" clip-path="url(#a)" fill="#fff" stroke="#fff"/>
<g clip-path="url(#a)">
<g transform="translate(1105.9 968.85) rotate(90) scale(.08 -.08)">
<use xlink:href="#k"/>
<use x="44.083984" xlink:href="#d"/>
<use x="105.607422" xlink:href="#h"/>
<use x="144.970703" xlink:href="#l"/>
<use x="242.382812" xlink:href="#i"/>
<use x="270.166016" xlink:href="#g"/>
<use x="333.544922" xlink:href="#f"/>
<use x="394.824219" xlink:href="#j"/>
</g>
</g>
<path d="m1167.5 968.85v33.808q0 2.4 2.4 2.4h7.7425q2.4 0 2.4-2.4v-33.808q0-2.4-2.4-2.4h-7.7425q-2.4 0-2.4 2.4z" clip-path="url(#a)" fill="#fff" stroke="#fff"/>
<g clip-path="url(#a)">
<g transform="translate(1171.5 968.85) rotate(90) scale(.08 -.08)">
<use xlink:href="#k"/>
<use x="44.083984" xlink:href="#d"/>
<use x="105.607422" xlink:href="#h"/>
<use x="144.970703" xlink:href="#l"/>
<use x="242.382812" xlink:href="#i"/>
<use x="270.166016" xlink:href="#g"/>
<use x="333.544922" xlink:href="#f"/>
<use x="394.824219" xlink:href="#j"/>
</g>
</g>
<path d="m1235.2 968.85v33.808q0 2.4 2.4 2.4h7.7425q2.4 0 2.4-2.4v-33.808q0-2.4-2.4-2.4h-7.7425q-2.4 0-2.4 2.4z" clip-path="url(#a)" fill="#fff" stroke="#fff"/>
<g clip-path="url(#a)">
<g transform="translate(1239.2 968.85) rotate(90) scale(.08 -.08)">
<use xlink:href="#k"/>
<use x="44.083984" xlink:href="#d"/>
<use x="105.607422" xlink:href="#h"/>
<use x="144.970703" xlink:href="#l"/>
<use x="242.382812" xlink:href="#i"/>
<use x="270.166016" xlink:href="#g"/>
<use x="333.544922" xlink:href="#f"/>
<use x="394.824219" xlink:href="#j"/>
</g>
</g>
<path d="m1304.9 968.85v33.808q0 2.4 2.4 2.4h7.7425q2.4 0 2.4-2.4v-33.808q0-2.4-2.4-2.4h-7.7425q-2.4 0-2.4 2.4z" clip-path="url(#a)" fill="#fff" stroke="#fff"/>
<g clip-path="url(#a)">
<g transform="translate(1309 968.85) rotate(90) scale(.08 -.08)">
<use xlink:href="#k"/>
<use x="44.083984" xlink:href="#d"/>
<use x="105.607422" xlink:href="#h"/>
<use x="144.970703" xlink:href="#l"/>
<use x="242.382812" xlink:href="#i"/>
<use x="270.166016" xlink:href="#g"/>
<use x="333.544922" xlink:href="#f"/>
<use x="394.824219" xlink:href="#j"/>
</g>
</g>
<path d="m976.7 968.85v33.808q0 2.4 2.4 2.4h7.7425q2.4 0 2.4-2.4v-33.808q0-2.4-2.4-2.4h-7.7425q-2.4 0-2.4 2.4z" clip-path="url(#a)" fill="#fff" stroke="#fff"/>
<g clip-path="url(#a)">
<g transform="translate(980.76 968.85) rotate(90) scale(.08 -.08)">
<use xlink:href="#k"/>
<use x="44.083984" xlink:href="#d"/>
<use x="105.607422" xlink:href="#h"/>
<use x="144.970703" xlink:href="#l"/>
<use x="242.382812" xlink:href="#i"/>
<use x="270.166016" xlink:href="#g"/>
<use x="333.544922" xlink:href="#f"/>
<use x="394.824219" xlink:href="#j"/>
</g>
</g>
<path d="m1038.2 968.85v33.808q0 2.4 2.4 2.4h7.7425q2.4 0 2.4-2.4v-33.808q0-2.4-2.4-2.4h-7.7425q-2.4 0-2.4 2.4z" clip-path="url(#a)" fill="#fff" stroke="#fff"/>
<g clip-path="url(#a)">
<g transform="translate(1042.3 968.85) rotate(90) scale(.08 -.08)">
<use xlink:href="#k"/>
<use x="44.083984" xlink:href="#d"/>
<use x="105.607422" xlink:href="#h"/>
<use x="144.970703" xlink:href="#l"/>
<use x="242.382812" xlink:href="#i"/>
<use x="270.166016" xlink:href="#g"/>
<use x="333.544922" xlink:href="#f"/>
<use x="394.824219" xlink:href="#j"/>
</g>
</g>
<path d="m474.08 968.85v33.808q0 2.4 2.4 2.4h7.7425q2.4 0 2.4-2.4v-33.808q0-2.4-2.4-2.4h-7.7425q-2.4 0-2.4 2.4z" clip-path="url(#a)" fill="#fff" stroke="#fff"/>
<g clip-path="url(#a)">
<g transform="translate(478.15 968.85) rotate(90) scale(.08 -.08)">
<use xlink:href="#k"/>
<use x="44.083984" xlink:href="#d"/>
<use x="105.607422" xlink:href="#h"/>
<use x="144.970703" xlink:href="#l"/>
<use x="242.382812" xlink:href="#i"/>
<use x="270.166016" xlink:href="#g"/>
<use x="333.544922" xlink:href="#f"/>
<use x="394.824219" xlink:href="#j"/>
</g>
</g>
<path d="m515.11 968.85v33.808q0 2.4 2.4 2.4h7.7425q2.4 0 2.4-2.4v-33.808q0-2.4-2.4-2.4h-7.7425q-2.4 0-2.4 2.4z" clip-path="url(#a)" fill="#fff" stroke="#fff"/>
<g clip-path="url(#a)">
<g transform="translate(519.18 968.85) rotate(90) scale(.08 -.08)">
<use xlink:href="#k"/>
<use x="44.083984" xlink:href="#d"/>
<use x="105.607422" xlink:href="#h"/>
<use x="144.970703" xlink:href="#l"/>
<use x="242.382812" xlink:href="#i"/>
<use x="270.166016" xlink:href="#g"/>
<use x="333.544922" xlink:href="#f"/>
<use x="394.824219" xlink:href="#j"/>
</g>
</g>
<path d="m581.66 821.02 0.60898-4.5608q0.31764-2.3789-2.0612-2.6965l-7.6744-1.0247q-2.3789-0.31764-2.6965 2.0612l-0.60898 4.5608q-0.31764 2.3789 2.0612 2.6965l7.6744 1.0247q2.3789 0.31764 2.6965-2.0612z" clip-path="url(#a)" fill="#fff" stroke="#fff"/>
<g clip-path="url(#a)">
<g transform="translate(577.63 820.48) rotate(-82.394) scale(.08 -.08)">
<use xlink:href="#t"/>
</g>
</g>
<path d="m591.73 815.97 0.73935 5.5371q0.31764 2.3789 2.6965 2.0612l7.6744-1.0247q2.3789-0.31764 2.0612-2.6965l-0.73935-5.5371q-0.31764-2.3789-2.6965-2.0612l-7.6744 1.0247q-2.3789 0.31764-2.0612 2.6965z" clip-path="url(#a)" fill="#fff" stroke="#fff"/>
<g clip-path="url(#a)">
<g transform="translate(595.76 815.43) rotate(82.394) scale(.08 -.08)">
<use xlink:href="#z"/>
</g>
</g>
<path d="m687.1 821.89 1.3034-4.4128q0.67987-2.3017-1.6218-2.9816l-7.4254-2.1933q-2.3017-0.67987-2.9816 1.6218l-1.3034 4.4128q-0.67987 2.3017 1.6218 2.9816l7.4254 2.1933q2.3017 0.67987 2.9816-1.6218z" clip-path="url(#a)" fill="#fff" stroke="#fff"/>
<g clip-path="url(#a)">
<g transform="translate(683.21 820.74) rotate(-73.544) scale(.08 -.08)">
<use xlink:href="#t"/>
</g>
</g>
<path d="m712.62 820.46 0.020454-5.055q0.009711-2.4-2.3903-2.4097l-7.7424-0.031328q-2.4-0.009711-2.4097 2.3903l-0.020454 5.055q-0.009711 2.4 2.3903 2.4097l7.7424 0.031327q2.4 0.009711 2.4097-2.3903z" clip-path="url(#a)" fill="#fff" stroke="#fff"/>
<g clip-path="url(#a)">
<defs>
<path id="ao" d="m9.8125 72.906h46.094v-8.3125h-36.234v-21.578h34.719v-8.2969h-34.719v-26.422h37.109v-8.2969h-46.969z"/>
</defs>
<g transform="translate(708.56 820.44) rotate(-89.768) scale(.08 -.08)">
<use xlink:href="#ao"/>
</g>
</g>
<path d="m725.19 817.03 1.6024 5.3515q0.68842 2.2991 2.9876 1.6107l7.4171-2.2209q2.2991-0.68842 1.6107-2.9876l-1.6024-5.3515q-0.68842-2.2991-2.9876-1.6107l-7.4171 2.2209q-2.2991 0.68842-1.6107 2.9876z" clip-path="url(#a)" fill="#fff" stroke="#fff"/>
<g clip-path="url(#a)">
<g transform="translate(729.09 815.86) rotate(73.331) scale(.08 -.08)">
<use xlink:href="#z"/>
</g>
</g>
<path d="m804.37 968.85v33.808q0 2.4 2.4 2.4h7.7425q2.4 0 2.4-2.4v-33.808q0-2.4-2.4-2.4h-7.7425q-2.4 0-2.4 2.4z" clip-path="url(#a)" fill="#fff" stroke="#fff"/>
<g clip-path="url(#a)">
<g transform="translate(808.43 968.85) rotate(90) scale(.08 -.08)">
<use xlink:href="#k"/>
<use x="44.083984" xlink:href="#d"/>
<use x="105.607422" xlink:href="#h"/>
<use x="144.970703" xlink:href="#l"/>
<use x="242.382812" xlink:href="#i"/>
<use x="270.166016" xlink:href="#g"/>
<use x="333.544922" xlink:href="#f"/>
<use x="394.824219" xlink:href="#j"/>
</g>
</g>
<path d="m859.76 968.85v33.808q0 2.4 2.4 2.4h7.7425q2.4 0 2.4-2.4v-33.808q0-2.4-2.4-2.4h-7.7425q-2.4 0-2.4 2.4z" clip-path="url(#a)" fill="#fff" stroke="#fff"/>
<g clip-path="url(#a)">
<g transform="translate(863.82 968.85) rotate(90) scale(.08 -.08)">
<use xlink:href="#k"/>
<use x="44.083984" xlink:href="#d"/>
<use x="105.607422" xlink:href="#h"/>
<use x="144.970703" xlink:href="#l"/>
<use x="242.382812" xlink:href="#i"/>
<use x="270.166016" xlink:href="#g"/>
<use x="333.544922" xlink:href="#f"/>
<use x="394.824219" xlink:href="#j"/>
</g>
</g>
<path d="m650.51 968.85v33.808q0 2.4 2.4 2.4h7.7425q2.4 0 2.4-2.4v-33.808q0-2.4-2.4-2.4h-7.7425q-2.4 0-2.4 2.4z" clip-path="url(#a)" fill="#fff" stroke="#fff"/>
<g clip-path="url(#a)">
<g transform="translate(654.57 968.85) rotate(90) scale(.08 -.08)">
<use xlink:href="#k"/>
<use x="44.083984" xlink:href="#d"/>
<use x="105.607422" xlink:href="#h"/>
<use x="144.970703" xlink:href="#l"/>
<use x="242.382812" xlink:href="#i"/>
<use x="270.166016" xlink:href="#g"/>
<use x="333.544922" xlink:href="#f"/>
<use x="394.824219" xlink:href="#j"/>
</g>
</g>
<path d="m699.75 968.85v33.808q0 2.4 2.4 2.4h7.7425q2.4 0 2.4-2.4v-33.808q0-2.4-2.4-2.4h-7.7425q-2.4 0-2.4 2.4z" clip-path="url(#a)" fill="#fff" stroke="#fff"/>
<g clip-path="url(#a)">
<g transform="translate(703.81 968.85) rotate(90) scale(.08 -.08)">
<use xlink:href="#k"/>
<use x="44.083984" xlink:href="#d"/>
<use x="105.607422" xlink:href="#h"/>
<use x="144.970703" xlink:href="#l"/>
<use x="242.382812" xlink:href="#i"/>
<use x="270.166016" xlink:href="#g"/>
<use x="333.544922" xlink:href="#f"/>
<use x="394.824219" xlink:href="#j"/>
</g>
</g>
<path d="m751.03 968.85v33.808q0 2.4 2.4 2.4h7.7425q2.4 0 2.4-2.4v-33.808q0-2.4-2.4-2.4h-7.7425q-2.4 0-2.4 2.4z" clip-path="url(#a)" fill="#fff" stroke="#fff"/>
<g clip-path="url(#a)">
<g transform="translate(755.1 968.85) rotate(90) scale(.08 -.08)">
<use xlink:href="#k"/>
<use x="44.083984" xlink:href="#d"/>
<use x="105.607422" xlink:href="#h"/>
<use x="144.970703" xlink:href="#l"/>
<use x="242.382812" xlink:href="#i"/>
<use x="270.166016" xlink:href="#g"/>
<use x="333.544922" xlink:href="#f"/>
<use x="394.824219" xlink:href="#j"/>
</g>
</g>
<path d="m558.19 968.85v33.808q0 2.4 2.4 2.4h7.7425q2.4 0 2.4-2.4v-33.808q0-2.4-2.4-2.4h-7.7425q-2.4 0-2.4 2.4z" clip-path="url(#a)" fill="#fff" stroke="#fff"/>
<g clip-path="url(#a)">
<g transform="translate(562.26 968.85) rotate(90) scale(.08 -.08)">
<use xlink:href="#k"/>
<use x="44.083984" xlink:href="#d"/>
<use x="105.607422" xlink:href="#h"/>
<use x="144.970703" xlink:href="#l"/>
<use x="242.382812" xlink:href="#i"/>
<use x="270.166016" xlink:href="#g"/>
<use x="333.544922" xlink:href="#f"/>
<use x="394.824219" xlink:href="#j"/>
</g>
</g>
<path d="m603.33 968.85v33.808q0 2.4 2.4 2.4h7.7425q2.4 0 2.4-2.4v-33.808q0-2.4-2.4-2.4h-7.7425q-2.4 0-2.4 2.4z" clip-path="url(#a)" fill="#fff" stroke="#fff"/>
<g clip-path="url(#a)">
<g transform="translate(607.39 968.85) rotate(90) scale(.08 -.08)">
<use xlink:href="#k"/>
<use x="44.083984" xlink:href="#d"/>
<use x="105.607422" xlink:href="#h"/>
<use x="144.970703" xlink:href="#l"/>
<use x="242.382812" xlink:href="#i"/>
<use x="270.166016" xlink:href="#g"/>
<use x="333.544922" xlink:href="#f"/>
<use x="394.824219" xlink:href="#j"/>
</g>
</g>
<path d="m319.66 821.26 0.50648-5.5632q0.2176-2.3901-2.1725-2.6077l-7.7106-0.70198q-2.3901-0.2176-2.6077 2.1725l-0.50648 5.5632q-0.2176 2.3901 2.1725 2.6077l7.7106 0.70198q2.3901 0.2176 2.6077-2.1725z" clip-path="url(#a)" fill="#fff" stroke="#fff"/>
<g clip-path="url(#a)">
<g transform="translate(315.62 820.89) rotate(-84.798) scale(.08 -.08)">
<use xlink:href="#z"/>
</g>
</g>
<path d="m322.58 815.96 0.45832 5.0342q0.2176 2.3901 2.6077 2.1725l7.7106-0.70198q2.3901-0.2176 2.1725-2.6077l-0.45832-5.0342q-0.2176-2.3901-2.6077-2.1725l-7.7106 0.70198q-2.3901 0.2176-2.1725 2.6077z" clip-path="url(#a)" fill="#fff" stroke="#fff"/>
<g clip-path="url(#a)">
<g transform="translate(326.63 815.59) rotate(84.798) scale(.08 -.08)">
<use xlink:href="#ao"/>
</g>
</g>
<path d="m363.3 968.85v33.808q0 2.4 2.4 2.4h7.7425q2.4 0 2.4-2.4v-33.808q0-2.4-2.4-2.4h-7.7425q-2.4 0-2.4 2.4z" clip-path="url(#a)" fill="#fff" stroke="#fff"/>
<g clip-path="url(#a)">
<g transform="translate(367.37 968.85) rotate(90) scale(.08 -.08)">
<use xlink:href="#k"/>
<use x="44.083984" xlink:href="#d"/>
<use x="105.607422" xlink:href="#h"/>
<use x="144.970703" xlink:href="#l"/>
<use x="242.382812" xlink:href="#i"/>
<use x="270.166016" xlink:href="#g"/>
<use x="333.544922" xlink:href="#f"/>
<use x="394.824219" xlink:href="#j"/>
</g>
</g>
<path d="m398.18 968.85v33.808q0 2.4 2.4 2.4h7.7425q2.4 0 2.4-2.4v-33.808q0-2.4-2.4-2.4h-7.7425q-2.4 0-2.4 2.4z" clip-path="url(#a)" fill="#fff" stroke="#fff"/>
<g clip-path="url(#a)">
<g transform="translate(402.24 968.85) rotate(90) scale(.08 -.08)">
<use xlink:href="#k"/>
<use x="44.083984" xlink:href="#d"/>
<use x="105.607422" xlink:href="#h"/>
<use x="144.970703" xlink:href="#l"/>
<use x="242.382812" xlink:href="#i"/>
<use x="270.166016" xlink:href="#g"/>
<use x="333.544922" xlink:href="#f"/>
<use x="394.824219" xlink:href="#j"/>
</g>
</g>
<path d="m299.71 968.85v33.808q0 2.4 2.4 2.4h7.7425q2.4 0 2.4-2.4v-33.808q0-2.4-2.4-2.4h-7.7425q-2.4 0-2.4 2.4z" clip-path="url(#a)" fill="#fff" stroke="#fff"/>
<g clip-path="url(#a)">
<g transform="translate(303.77 968.85) rotate(90) scale(.08 -.08)">
<use xlink:href="#k"/>
<use x="44.083984" xlink:href="#d"/>
<use x="105.607422" xlink:href="#h"/>
<use x="144.970703" xlink:href="#l"/>
<use x="242.382812" xlink:href="#i"/>
<use x="270.166016" xlink:href="#g"/>
<use x="333.544922" xlink:href="#f"/>
<use x="394.824219" xlink:href="#j"/>
</g>
</g>
<path d="m330.48 968.85v33.808q0 2.4 2.4 2.4h7.7425q2.4 0 2.4-2.4v-33.808q0-2.4-2.4-2.4h-7.7425q-2.4 0-2.4 2.4z" clip-path="url(#a)" fill="#fff" stroke="#fff"/>
<g clip-path="url(#a)">
<g transform="translate(334.54 968.85) rotate(90) scale(.08 -.08)">
<use xlink:href="#k"/>
<use x="44.083984" xlink:href="#d"/>
<use x="105.607422" xlink:href="#h"/>
<use x="144.970703" xlink:href="#l"/>
<use x="242.382812" xlink:href="#i"/>
<use x="270.166016" xlink:href="#g"/>
<use x="333.544922" xlink:href="#f"/>
<use x="394.824219" xlink:href="#j"/>
</g>
</g>
<path d="m141.74 968.85v33.808q0 2.4 2.4 2.4h7.7425q2.4 0 2.4-2.4v-33.808q0-2.4-2.4-2.4h-7.7425q-2.4 0-2.4 2.4z" clip-path="url(#a)" fill="#fff" stroke="#fff"/>
<g clip-path="url(#a)">
<g transform="translate(145.81 968.85) rotate(90) scale(.08 -.08)">
<use xlink:href="#k"/>
<use x="44.083984" xlink:href="#d"/>
<use x="105.607422" xlink:href="#h"/>
<use x="144.970703" xlink:href="#l"/>
<use x="242.382812" xlink:href="#i"/>
<use x="270.166016" xlink:href="#g"/>
<use x="333.544922" xlink:href="#f"/>
<use x="394.824219" xlink:href="#j"/>
</g>
</g>
<path d="m158.15 968.85v33.808q0 2.4 2.4 2.4h7.7425q2.4 0 2.4-2.4v-33.808q0-2.4-2.4-2.4h-7.7425q-2.4 0-2.4 2.4z" clip-path="url(#a)" fill="#fff" stroke="#fff"/>
<g clip-path="url(#a)">
<g transform="translate(162.22 968.85) rotate(90) scale(.08 -.08)">
<use xlink:href="#k"/>
<use x="44.083984" xlink:href="#d"/>
<use x="105.607422" xlink:href="#h"/>
<use x="144.970703" xlink:href="#l"/>
<use x="242.382812" xlink:href="#i"/>
<use x="270.166016" xlink:href="#g"/>
<use x="333.544922" xlink:href="#f"/>
<use x="394.824219" xlink:href="#j"/>
</g>
</g>
<path d="m176.62 968.85v33.808q0 2.4 2.4 2.4h7.7425q2.4 0 2.4-2.4v-33.808q0-2.4-2.4-2.4h-7.7425q-2.4 0-2.4 2.4z" clip-path="url(#a)" fill="#fff" stroke="#fff"/>
<g clip-path="url(#a)">
<g transform="translate(180.68 968.85) rotate(90) scale(.08 -.08)">
<use xlink:href="#k"/>
<use x="44.083984" xlink:href="#d"/>
<use x="105.607422" xlink:href="#h"/>
<use x="144.970703" xlink:href="#l"/>
<use x="242.382812" xlink:href="#i"/>
<use x="270.166016" xlink:href="#g"/>
<use x="333.544922" xlink:href="#f"/>
<use x="394.824219" xlink:href="#j"/>
</g>
</g>
<path d="m197.13 968.85v33.808q0 2.4 2.4 2.4h7.7425q2.4 0 2.4-2.4v-33.808q0-2.4-2.4-2.4h-7.7425q-2.4 0-2.4 2.4z" clip-path="url(#a)" fill="#fff" stroke="#fff"/>
<g clip-path="url(#a)">
<g transform="translate(201.2 968.85) rotate(90) scale(.08 -.08)">
<use xlink:href="#k"/>
<use x="44.083984" xlink:href="#d"/>
<use x="105.607422" xlink:href="#h"/>
<use x="144.970703" xlink:href="#l"/>
<use x="242.382812" xlink:href="#i"/>
<use x="270.166016" xlink:href="#g"/>
<use x="333.544922" xlink:href="#f"/>
<use x="394.824219" xlink:href="#j"/>
</g>
</g>
<path d="m219.7 968.85v33.808q0 2.4 2.4 2.4h7.7425q2.4 0 2.4-2.4v-33.808q0-2.4-2.4-2.4h-7.7425q-2.4 0-2.4 2.4z" clip-path="url(#a)" fill="#fff" stroke="#fff"/>
<g clip-path="url(#a)">
<g transform="translate(223.76 968.85) rotate(90) scale(.08 -.08)">
<use xlink:href="#k"/>
<use x="44.083984" xlink:href="#d"/>
<use x="105.607422" xlink:href="#h"/>
<use x="144.970703" xlink:href="#l"/>
<use x="242.382812" xlink:href="#i"/>
<use x="270.166016" xlink:href="#g"/>
<use x="333.544922" xlink:href="#f"/>
<use x="394.824219" xlink:href="#j"/>
</g>
</g>
<path d="m244.32 968.85v33.808q0 2.4 2.4 2.4h7.7425q2.4 0 2.4-2.4v-33.808q0-2.4-2.4-2.4h-7.7425q-2.4 0-2.4 2.4z" clip-path="url(#a)" fill="#fff" stroke="#fff"/>
<g clip-path="url(#a)">
<g transform="translate(248.38 968.85) rotate(90) scale(.08 -.08)">
<use xlink:href="#k"/>
<use x="44.083984" xlink:href="#d"/>
<use x="105.607422" xlink:href="#h"/>
<use x="144.970703" xlink:href="#l"/>
<use x="242.382812" xlink:href="#i"/>
<use x="270.166016" xlink:href="#g"/>
<use x="333.544922" xlink:href="#f"/>
<use x="394.824219" xlink:href="#j"/>
</g>
</g>
<path d="m127.38 968.85v33.808q0 2.4 2.4 2.4h7.7425q2.4 0 2.4-2.4v-33.808q0-2.4-2.4-2.4h-7.7425q-2.4 0-2.4 2.4z" clip-path="url(#a)" fill="#fff" stroke="#fff"/>
<g clip-path="url(#a)">
<g transform="translate(131.45 968.85) rotate(90) scale(.08 -.08)">
<use xlink:href="#k"/>
<use x="44.083984" xlink:href="#d"/>
<use x="105.607422" xlink:href="#h"/>
<use x="144.970703" xlink:href="#l"/>
<use x="242.382812" xlink:href="#i"/>
<use x="270.166016" xlink:href="#g"/>
<use x="333.544922" xlink:href="#f"/>
<use x="394.824219" xlink:href="#j"/>
</g>
</g>
<path d="m435.1 968.85v33.808q0 2.4 2.4 2.4h7.7425q2.4 0 2.4-2.4v-33.808q0-2.4-2.4-2.4h-7.7425q-2.4 0-2.4 2.4z" clip-path="url(#a)" fill="#fff" stroke="#fff"/>
<g clip-path="url(#a)">
<g transform="translate(439.17 968.85) rotate(90) scale(.08 -.08)">
<use xlink:href="#k"/>
<use x="44.083984" xlink:href="#d"/>
<use x="105.607422" xlink:href="#h"/>
<use x="144.970703" xlink:href="#l"/>
<use x="242.382812" xlink:href="#i"/>
<use x="270.166016" xlink:href="#g"/>
<use x="333.544922" xlink:href="#f"/>
<use x="394.824219" xlink:href="#j"/>
</g>
</g>
<path d="m1376.7 968.85v33.808q0 2.4 2.4 2.4h7.7425q2.4 0 2.4-2.4v-33.808q0-2.4-2.4-2.4h-7.7425q-2.4 0-2.4 2.4z" clip-path="url(#a)" fill="#fff" stroke="#fff"/>
<g clip-path="url(#a)">
<g transform="translate(1380.8 968.85) rotate(90) scale(.08 -.08)">
<use xlink:href="#k"/>
<use x="44.083984" xlink:href="#d"/>
<use x="105.607422" xlink:href="#h"/>
<use x="144.970703" xlink:href="#l"/>
<use x="242.382812" xlink:href="#i"/>
<use x="270.166016" xlink:href="#g"/>
<use x="333.544922" xlink:href="#f"/>
<use x="394.824219" xlink:href="#j"/>
</g>
</g>
<path d="m1936.8 968.85v33.808q0 2.4 2.4 2.4h7.7425q2.4 0 2.4-2.4v-33.808q0-2.4-2.4-2.4h-7.7425q-2.4 0-2.4 2.4z" clip-path="url(#a)" fill="#fff" stroke="#fff"/>
<g clip-path="url(#a)">
<g transform="translate(1940.9 968.85) rotate(90) scale(.08 -.08)">
<use xlink:href="#k"/>
<use x="44.083984" xlink:href="#d"/>
<use x="105.607422" xlink:href="#h"/>
<use x="144.970703" xlink:href="#l"/>
<use x="242.382812" xlink:href="#i"/>
<use x="270.166016" xlink:href="#g"/>
<use x="333.544922" xlink:href="#f"/>
<use x="394.824219" xlink:href="#j"/>
</g>
</g>
<path d="m2025 968.85v33.808q0 2.4 2.4 2.4h7.7425q2.4 0 2.4-2.4v-33.808q0-2.4-2.4-2.4h-7.7425q-2.4 0-2.4 2.4z" clip-path="url(#a)" fill="#fff" stroke="#fff"/>
<g clip-path="url(#a)">
<g transform="translate(2029.1 968.85) rotate(90) scale(.08 -.08)">
<use xlink:href="#k"/>
<use x="44.083984" xlink:href="#d"/>
<use x="105.607422" xlink:href="#h"/>
<use x="144.970703" xlink:href="#l"/>
<use x="242.382812" xlink:href="#i"/>
<use x="270.166016" xlink:href="#g"/>
<use x="333.544922" xlink:href="#f"/>
<use x="394.824219" xlink:href="#j"/>
</g>
</g>
<defs>
<path id="b" d="m0 8.6603c2.2967 0 4.4997-0.9125 6.1237-2.5365 1.624-1.624 2.5365-3.827 2.5365-6.1237s-0.9125-4.4997-2.5365-6.1237c-1.624-1.624-3.827-2.5365-6.1237-2.5365s-4.4997 0.9125-6.1237 2.5365c-1.624 1.624-2.5365 3.827-2.5365 6.1237s0.9125 4.4997 2.5365 6.1237c1.624 1.624 3.827 2.5365 6.1237 2.5365z"/>
</defs>
<g clip-path="url(#a)" fill="#ffffff" stroke="#ffffff">
<use x="96.727273" y="1069.090909" xlink:href="#b"/>
<use x="102.881712" y="1069.090909" xlink:href="#b"/>
<use x="111.087631" y="1069.090909" xlink:href="#b"/>
<use x="121.34503" y="1069.090909" xlink:href="#b"/>
<use x="133.653909" y="1069.090909" xlink:href="#b"/>
<use x="148.014268" y="1069.090909" xlink:href="#b"/>
<use x="164.426106" y="1069.090909" xlink:href="#b"/>
<use x="182.889424" y="1069.090909" xlink:href="#b"/>
<use x="203.404223" y="1069.090909" xlink:href="#b"/>
<use x="225.9705" y="1069.090909" xlink:href="#b"/>
<use x="250.588258" y="1069.090909" xlink:href="#b"/>
<use x="277.257495" y="1069.090909" xlink:href="#b"/>
<use x="305.978213" y="1069.090909" xlink:href="#b"/>
<use x="336.75041" y="1069.090909" xlink:href="#b"/>
<use x="369.574087" y="1069.090909" xlink:href="#b"/>
<use x="404.449243" y="1069.090909" xlink:href="#b"/>
<use x="441.37588" y="1069.090909" xlink:href="#b"/>
<use x="480.353996" y="1069.090909" xlink:href="#b"/>
<use x="521.383592" y="1069.090909" xlink:href="#b"/>
<use x="564.464668" y="1069.090909" xlink:href="#b"/>
<use x="609.597224" y="1069.090909" xlink:href="#b"/>
<use x="656.781259" y="1069.090909" xlink:href="#b"/>
<use x="706.016774" y="1069.090909" xlink:href="#b"/>
<use x="757.303769" y="1069.090909" xlink:href="#b"/>
<use x="810.642244" y="1069.090909" xlink:href="#b"/>
<use x="866.032199" y="1069.090909" xlink:href="#b"/>
<use x="923.473633" y="1069.090909" xlink:href="#b"/>
<use x="982.966548" y="1069.090909" xlink:href="#b"/>
<use x="1044.510942" y="1069.090909" xlink:href="#b"/>
<use x="1108.106816" y="1069.090909" xlink:href="#b"/>
<use x="1173.754169" y="1069.090909" xlink:href="#b"/>
<use x="1241.453003" y="1069.090909" xlink:href="#b"/>
<use x="1311.203316" y="1069.090909" xlink:href="#b"/>
<use x="1383.005109" y="1069.090909" xlink:href="#b"/>
<use x="1456.858382" y="1069.090909" xlink:href="#b"/>
<use x="1532.763135" y="1069.090909" xlink:href="#b"/>
<use x="1610.719368" y="1069.090909" xlink:href="#b"/>
<use x="1690.72708" y="1069.090909" xlink:href="#b"/>
<use x="1772.786272" y="1069.090909" xlink:href="#b"/>
<use x="1856.896944" y="1069.090909" xlink:href="#b"/>
<use x="1943.059096" y="1069.090909" xlink:href="#b"/>
<use x="2031.272727" y="1069.090909" xlink:href="#b"/>
<use x="1181.260659" y="50.909091" xlink:href="#b"/>
<use x="190.349104" y="222.151622" xlink:href="#b"/>
<use x="1456.858382" y="902.407423" xlink:href="#b"/>
<use x="1694.83004" y="563.516548" xlink:href="#b"/>
<use x="1532.763135" y="902.407423" xlink:href="#b"/>
<use x="1650.723224" y="733.405186" xlink:href="#b"/>
<use x="1901.00376" y="733.405186" xlink:href="#b"/>
<use x="1772.786272" y="902.407423" xlink:href="#b"/>
<use x="1856.896944" y="902.407423" xlink:href="#b"/>
<use x="1610.719368" y="902.407423" xlink:href="#b"/>
<use x="1690.72708" y="902.407423" xlink:href="#b"/>
<use x="96.727273" y="902.407423" xlink:href="#b"/>
<use x="102.881712" y="902.407423" xlink:href="#b"/>
<use x="111.087631" y="902.407423" xlink:href="#b"/>
<use x="121.34503" y="902.407423" xlink:href="#b"/>
<use x="576.39907" y="393.049706" xlink:href="#b"/>
<use x="195.88213" y="733.405186" xlink:href="#b"/>
<use x="277.257495" y="902.407423" xlink:href="#b"/>
<use x="365.129214" y="563.516548" xlink:href="#b"/>
<use x="662.02393" y="563.516548" xlink:href="#b"/>
<use x="923.473633" y="902.407423" xlink:href="#b"/>
<use x="1169.65121" y="563.516548" xlink:href="#b"/>
<use x="1013.738745" y="733.405186" xlink:href="#b"/>
<use x="1108.106816" y="902.407423" xlink:href="#b"/>
<use x="1173.754169" y="902.407423" xlink:href="#b"/>
<use x="1241.453003" y="902.407423" xlink:href="#b"/>
<use x="1311.203316" y="902.407423" xlink:href="#b"/>
<use x="982.966548" y="902.407423" xlink:href="#b"/>
<use x="1044.510942" y="902.407423" xlink:href="#b"/>
<use x="480.353996" y="902.407423" xlink:href="#b"/>
<use x="521.383592" y="902.407423" xlink:href="#b"/>
<use x="587.030946" y="733.405186" xlink:href="#b"/>
<use x="706.700601" y="733.405186" xlink:href="#b"/>
<use x="810.642244" y="902.407423" xlink:href="#b"/>
<use x="866.032199" y="902.407423" xlink:href="#b"/>
<use x="656.781259" y="902.407423" xlink:href="#b"/>
<use x="706.016774" y="902.407423" xlink:href="#b"/>
<use x="757.303769" y="902.407423" xlink:href="#b"/>
<use x="564.464668" y="902.407423" xlink:href="#b"/>
<use x="609.597224" y="902.407423" xlink:href="#b"/>
<use x="321.364311" y="733.405186" xlink:href="#b"/>
<use x="369.574087" y="902.407423" xlink:href="#b"/>
<use x="404.449243" y="902.407423" xlink:href="#b"/>
<use x="305.978213" y="902.407423" xlink:href="#b"/>
<use x="336.75041" y="902.407423" xlink:href="#b"/>
<use x="148.014268" y="902.407423" xlink:href="#b"/>
<use x="164.426106" y="902.407423" xlink:href="#b"/>
<use x="182.889424" y="902.407423" xlink:href="#b"/>
<use x="203.404223" y="902.407423" xlink:href="#b"/>
<use x="225.9705" y="902.407423" xlink:href="#b"/>
<use x="250.588258" y="902.407423" xlink:href="#b"/>
<use x="133.653909" y="902.407423" xlink:href="#b"/>
<use x="441.37588" y="902.407423" xlink:href="#b"/>
<use x="1383.005109" y="902.407423" xlink:href="#b"/>
<use x="1943.059096" y="902.407423" xlink:href="#b"/>
<use x="2031.272727" y="902.407423" xlink:href="#b"/>
</g>
<g clip-path="url(#a)">
<defs>
<path id="aq" d="m9.8125 72.906h14.703l18.594-49.609 18.703 49.609h14.703v-72.906h-9.625v64.016l-18.797-50h-9.9062l-18.797 50v-64.016h-9.5781z"/>
</defs>
<g transform="translate(87.96 1071.9) scale(.1 -.1)">
<use xlink:href="#aq"/>
<use x="86.279297" xlink:href="#f"/>
<use x="147.558594" xlink:href="#j"/>
</g>
</g>
<g clip-path="url(#a)">
<defs>
<path id="o" d="m44.281 53.078v-8.5q-3.7969 1.9531-7.9062 2.9219-4.0938 0.98438-8.5 0.98438-6.6875 0-10.031-2.0469t-3.3438-6.1562q0-3.125 2.3906-4.9062t9.625-3.3906l3.0781-0.6875q9.5625-2.0469 13.594-5.7812t4.0312-10.422q0-7.625-6.0312-12.078-6.0312-4.4375-16.578-4.4375-4.3906 0-9.1562 0.85938t-10.031 2.5625v9.2812q4.9844-2.5938 9.8125-3.8906 4.8281-1.2812 9.5781-1.2812 6.3438 0 9.75 2.1719 3.4219 2.1719 3.4219 6.125 0 3.6562-2.4688 5.6094-2.4531 1.9531-10.812 3.7656l-3.125 0.73438q-8.3438 1.75-12.062 5.3906-3.7031 3.6406-3.7031 9.9844 0 7.7188 5.4688 11.906 5.4688 4.2031 15.531 4.2031 4.9688 0 9.3594-0.73438 4.4062-0.71875 8.1094-2.1875z"/>
<path id="aj" d="m45.406 27.984q0 9.7656-4.0312 15.125-4.0156 5.375-11.297 5.375-7.2188 0-11.25-5.375-4.0312-5.3594-4.0312-15.125 0-9.7188 4.0312-15.094t11.25-5.375q7.2812 0 11.297 5.375 4.0312 5.375 4.0312 15.094zm8.9844-21.203q0-13.953-6.2031-20.766-6.1875-6.8125-18.984-6.8125-4.7344 0-8.9375 0.70312t-8.1562 2.1719v8.7344q3.9531-2.1406 7.8125-3.1562 3.8594-1.0312 7.8594-1.0312 8.8438 0 13.234 4.6094t4.3906 13.938v4.4531q-2.7812-4.8438-7.125-7.2344t-10.406-2.3906q-10.047 0-16.203 7.6562-6.1562 7.6719-6.1562 20.328 0 12.688 6.1562 20.344 6.1562 7.6719 16.203 7.6719 6.0625 0 10.406-2.3906t7.125-7.2188v8.2969h8.9844z"/>
</defs>
<g transform="translate(90.962 1071.9) scale(.1 -.1)">
<use xlink:href="#o"/>
<use x="52.099609" xlink:href="#f"/>
<use x="113.378906" xlink:href="#aj"/>
<use x="176.855469" xlink:href="#d"/>
</g>
</g>
<g clip-path="url(#a)">
<defs>
<path id="s" d="m48.781 52.594v-8.4062q-3.8125 2.1094-7.6406 3.1562t-7.7344 1.0469q-8.75 0-13.594-5.5469-4.8281-5.5312-4.8281-15.547t4.8281-15.562q4.8438-5.5312 13.594-5.5312 3.9062 0 7.7344 1.0469t7.6406 3.1562v-8.3125q-3.7656-1.75-7.7969-2.625-4.0156-0.89062-8.5625-0.89062-12.359 0-19.641 7.7656-7.2656 7.7656-7.2656 20.953 0 13.375 7.3438 21.031 7.3594 7.6719 20.156 7.6719 4.1406 0 8.0938-0.85938 3.9531-0.84375 7.6719-2.5469z"/>
<path id="w" d="m54.891 33.016v-33.016h-8.9844v32.719q0 7.7656-3.0312 11.609-3.0312 3.8594-9.0781 3.8594-7.2812 0-11.484-4.6406-4.2031-4.625-4.2031-12.641v-30.906h-9.0312v75.984h9.0312v-29.797q3.2344 4.9375 7.5938 7.375 4.375 2.4375 10.094 2.4375 9.4219 0 14.25-5.8281 4.8438-5.8281 4.8438-17.156z"/>
</defs>
<g transform="translate(103.78 1071.9) scale(.1 -.1)">
<use xlink:href="#i"/>
<use x="27.783203" xlink:href="#s"/>
<use x="82.763672" xlink:href="#w"/>
</g>
</g>
<g clip-path="url(#a)">
<g transform="translate(113.03 1071.9) scale(.1 -.1)">
<use xlink:href="#l"/>
<use x="97.412109" xlink:href="#i"/>
<use x="125.195312" xlink:href="#h"/>
</g>
</g>
<g clip-path="url(#a)">
<defs>
<path id="av" d="m11.719 12.406h10.297v-12.406h-10.297zm0 39.297h10.297v-12.391h-10.297z"/>
</defs>
<g transform="translate(131.97 1071.9) scale(.1 -.1)">
<use xlink:href="#av"/>
</g>
</g>
<g clip-path="url(#a)">
<g transform="translate(122.23 1071.9) scale(.1 -.1)">
<use xlink:href="#aq"/>
<use x="86.279297" xlink:href="#f"/>
<use x="147.558594" xlink:href="#g"/>
<use x="210.9375" xlink:href="#s"/>
<use x="265.917969" xlink:href="#w"/>
<use x="329.296875" xlink:href="#l"/>
<use x="426.708984" xlink:href="#f"/>
<use x="487.988281" xlink:href="#j"/>
</g>
</g>
<g clip-path="url(#a)">
<defs>
<path id="v" d="m18.312 70.219v-15.531h18.5v-6.9844h-18.5v-29.688q0-6.6875 1.8281-8.5938t7.4531-1.9062h9.2188v-7.5156h-9.2188q-10.406 0-14.359 3.875-3.9531 3.8906-3.9531 14.141v29.688h-6.5938v6.9844h6.5938v15.531z"/>
</defs>
<g transform="translate(158.47 1071.9) scale(.1 -.1)">
<use xlink:href="#i"/>
<use x="27.783203" xlink:href="#o"/>
<use x="79.882812" xlink:href="#v"/>
</g>
</g>
<g clip-path="url(#a)">
<g transform="translate(171.79 1071.9) scale(.1 -.1)">
<use xlink:href="#l"/>
<use x="97.412109" xlink:href="#f"/>
<use x="158.691406" xlink:href="#g"/>
</g>
</g>
<g clip-path="url(#a)">
<defs>
<path id="ay" d="m9.4219 54.688h8.9844v-55.672q0-10.438-3.9844-15.125-3.9688-4.6875-12.812-4.6875h-3.4219v7.6094h2.4062q5.125 0 6.9688 2.375 1.8594 2.3594 1.8594 9.8281zm0 21.297h8.9844v-11.391h-8.9844z"/>
</defs>
<g transform="translate(198.95 1071.9) scale(.1 -.1)">
<use xlink:href="#ay"/>
<use x="27.783203" xlink:href="#f"/>
</g>
</g>
<g clip-path="url(#a)">
<defs>
<path id="ap" d="m4.2031 54.688h8.9844l11.234-42.672 11.172 42.672h10.594l11.234-42.672 11.188 42.672h8.9844l-14.312-54.688h-10.594l-11.766 44.828-11.812-44.828h-10.609z"/>
</defs>
<g transform="translate(211.18 1071.9) scale(.1 -.1)">
<use xlink:href="#d"/>
<use x="61.523438" xlink:href="#v"/>
<use x="100.732422" xlink:href="#ap"/>
<use x="182.519531" xlink:href="#f"/>
<use x="243.798828" xlink:href="#o"/>
</g>
</g>
<g clip-path="url(#a)">
<defs>
<path id="as" d="m5.5156 54.688h42.672v-8.2031l-33.781-39.312h33.781v-7.1719h-43.891v8.2031l33.797 39.312h-32.578z"/>
<path id="ag" d="m8.5 21.578v33.109h8.9844v-32.766q0-7.7656 3.0156-11.656 3.0312-3.875 9.0938-3.875 7.2656 0 11.484 4.6406 4.2344 4.6406 4.2344 12.656v31h8.9844v-54.688h-8.9844v8.4062q-3.2656-4.9844-7.5938-7.4062-4.3125-2.4219-10.031-2.4219-9.4219 0-14.312 5.8594-4.875 5.8594-4.875 17.141z"/>
</defs>
<g transform="translate(228.12 1071.9) scale(.1 -.1)">
<use xlink:href="#as"/>
<use x="52.490234" xlink:href="#d"/>
<use x="114.013672" xlink:href="#h"/>
<use x="155.126953" xlink:href="#o"/>
<use x="207.226562" xlink:href="#v"/>
<use x="246.435547" xlink:href="#h"/>
<use x="285.298828" xlink:href="#d"/>
<use x="346.822266" xlink:href="#ag"/>
<use x="410.201172" xlink:href="#v"/>
</g>
</g>
<g clip-path="url(#a)">
<defs>
<path id="u" d="m45.406 46.391v29.594h8.9844v-75.984h-8.9844v8.2031q-2.8281-4.875-7.1562-7.25-4.3125-2.375-10.375-2.375-9.9062 0-16.141 7.9062-6.2188 7.9219-6.2188 20.812t6.2188 20.797q6.2344 7.9062 16.141 7.9062 6.0625 0 10.375-2.375 4.3281-2.3594 7.1562-7.2344zm-30.609-19.094q0-9.9062 4.0781-15.547t11.203-5.6406 11.219 5.6406q4.1094 5.6406 4.1094 15.547t-4.1094 15.547q-4.0938 5.6406-11.219 5.6406t-11.203-5.6406-4.0781-15.547z"/>
</defs>
<g transform="translate(267.75 1071.9) scale(.1 -.1)">
<use xlink:href="#ag"/>
<use x="63.378906" xlink:href="#g"/>
<use x="126.757812" xlink:href="#u"/>
</g>
</g>
<g clip-path="url(#a)">
<g transform="translate(297.14 1071.9) scale(.1 -.1)">
<use xlink:href="#u"/>
<use x="63.476562" xlink:href="#f"/>
<use x="124.755859" xlink:href="#o"/>
</g>
</g>
<g clip-path="url(#a)">
<g transform="translate(323.27 1071.9) scale(.1 -.1)">
<use xlink:href="#f"/>
<use x="61.279297" xlink:href="#j"/>
<use x="89.0625" xlink:href="#j"/>
<use x="116.845703" xlink:href="#d"/>
<use x="178.369141" xlink:href="#i"/>
<use x="206.152344" xlink:href="#g"/>
</g>
</g>
<g clip-path="url(#a)">
<g transform="translate(355.29 1071.9) scale(.1 -.1)">
<use xlink:href="#h"/>
<use x="38.863281" xlink:href="#d"/>
<use x="100.386719" xlink:href="#i"/>
<use x="128.169922" xlink:href="#s"/>
<use x="183.150391" xlink:href="#w"/>
<use x="246.529297" xlink:href="#v"/>
</g>
</g>
<g clip-path="url(#a)">
<defs>
<path id="ac" d="m30.609 48.391q-7.2188 0-11.422-5.6406t-4.2031-15.453 4.1719-15.453q4.1875-5.6406 11.453-5.6406 7.1875 0 11.375 5.6562 4.2031 5.6719 4.2031 15.438 0 9.7188-4.2031 15.406-4.1875 5.6875-11.375 5.6875zm0 7.6094q11.719 0 18.406-7.625 6.7031-7.6094 6.7031-21.078 0-13.422-6.7031-21.078-6.6875-7.6406-18.406-7.6406-11.766 0-18.438 7.6406-6.6562 7.6562-6.6562 21.078 0 13.469 6.6562 21.078 6.6719 7.625 18.438 7.625z"/>
</defs>
<g transform="translate(389.7 1071.9) scale(.1 -.1)">
<use xlink:href="#o"/>
<use x="52.099609" xlink:href="#s"/>
<use x="107.080078" xlink:href="#w"/>
<use x="170.458984" xlink:href="#ac"/>
<use x="231.640625" xlink:href="#g"/>
</g>
</g>
<g clip-path="url(#a)">
<defs>
<path id="ar" d="m15.094 12.406h9.9062v-12.406h-9.9062zm0 60.5h9.9062v-31.984l-0.96875-17.438h-7.9219l-1.0156 17.438z"/>
</defs>
<g transform="translate(439.37 1071.9) scale(.1 -.1)">
<use xlink:href="#ar"/>
</g>
</g>
<g clip-path="url(#a)">
<g transform="translate(475.14 1071.9) scale(.1 -.1)">
<use xlink:href="#ao"/>
<use x="63.183594" xlink:href="#h"/>
</g>
</g>
<g clip-path="url(#a)">
<g transform="translate(510.76 1071.9) scale(.1 -.1)">
<use xlink:href="#ap"/>
<use x="81.787109" xlink:href="#i"/>
<use x="109.570312" xlink:href="#h"/>
<use x="148.933594" xlink:href="#u"/>
</g>
</g>
<g clip-path="url(#a)">
<g transform="translate(551.15 1071.9) scale(.1 -.1)">
<use xlink:href="#d"/>
<use x="61.523438" xlink:href="#i"/>
<use x="89.306641" xlink:href="#g"/>
<use x="152.685547" xlink:href="#d"/>
<use x="214.208984" xlink:href="#o"/>
</g>
</g>
<g clip-path="url(#a)">
<defs>
<path id="ak" d="m48.688 27.297q0 9.9062-4.0781 15.547t-11.203 5.6406q-7.1406 0-11.219-5.6406t-4.0781-15.547 4.0781-15.547 11.219-5.6406q7.125 0 11.203 5.6406t4.0781 15.547zm-30.578 19.094q2.8438 4.875 7.1562 7.2344 4.3281 2.375 10.328 2.375 9.9688 0 16.188-7.9062 6.2344-7.9062 6.2344-20.797t-6.2344-20.812q-6.2188-7.9062-16.188-7.9062-6 0-10.328 2.375-4.3125 2.375-7.1562 7.25v-8.2031h-9.0312v75.984h9.0312z"/>
</defs>
<g transform="translate(590.98 1071.9) scale(.1 -.1)">
<use xlink:href="#r"/>
<use x="68.408203" xlink:href="#ak"/>
<use x="131.884766" xlink:href="#d"/>
<use x="193.408203" xlink:href="#g"/>
<use x="256.787109" xlink:href="#u"/>
<use x="320.263672" xlink:href="#o"/>
</g>
</g>
<g clip-path="url(#a)">
<g transform="translate(649.14 1071.9) scale(.1 -.1)">
<use xlink:href="#u"/>
<use x="63.476562" xlink:href="#i"/>
<use x="91.259766" xlink:href="#d"/>
</g>
</g>
<g clip-path="url(#a)">
<g transform="translate(695.08 1071.9) scale(.1 -.1)">
<use xlink:href="#an"/>
<use x="77.490234" xlink:href="#j"/>
<use x="105.273438" xlink:href="#f"/>
<use x="166.552734" xlink:href="#o"/>
</g>
</g>
<g clip-path="url(#a)">
<defs>
<path id="at" d="m9.0781 75.984h9.0312v-44.875l26.812 23.578h11.469l-29-25.578 30.234-29.109h-11.719l-27.797 26.703v-26.703h-9.0312z"/>
</defs>
<g transform="translate(741.14 1071.9) scale(.1 -.1)">
<use xlink:href="#aj"/>
<use x="63.476562" xlink:href="#j"/>
<use x="91.259766" xlink:href="#ac"/>
<use x="152.441406" xlink:href="#s"/>
<use x="207.421875" xlink:href="#at"/>
<use x="261.707031" xlink:href="#d"/>
</g>
</g>
<g clip-path="url(#a)">
<defs>
<path id="ax" d="m2.9844 54.688h9.5156l17.094-45.891 17.094 45.891h9.5156l-20.516-54.688h-12.203z"/>
</defs>
<g transform="translate(784.93 1071.9) scale(.1 -.1)">
<use xlink:href="#ax"/>
<use x="59.179688" xlink:href="#d"/>
<use x="120.703125" xlink:href="#h"/>
<use x="160.066406" xlink:href="#aj"/>
<use x="223.542969" xlink:href="#d"/>
<use x="285.066406" xlink:href="#o"/>
<use x="337.166016" xlink:href="#o"/>
<use x="389.265625" xlink:href="#d"/>
<use x="450.789062" xlink:href="#g"/>
</g>
</g>
<g clip-path="url(#a)">
<g transform="translate(850.38 1071.9) scale(.1 -.1)">
<use xlink:href="#w"/>
<use x="63.378906" xlink:href="#f"/>
<use x="124.658203" xlink:href="#ak"/>
<use x="188.134766" xlink:href="#d"/>
<use x="249.658203" xlink:href="#g"/>
</g>
</g>
<g clip-path="url(#a)">
<g transform="translate(912.11 1071.9) scale(.1 -.1)">
<use xlink:href="#ac"/>
<use x="61.181641" xlink:href="#u"/>
<use x="124.658203" xlink:href="#d"/>
<use x="186.181641" xlink:href="#h"/>
</g>
</g>
<g clip-path="url(#a)">
<g transform="translate(974.12 1071.9) scale(.1 -.1)">
<use xlink:href="#u"/>
<use x="63.476562" xlink:href="#f"/>
<use x="124.755859" xlink:href="#o"/>
</g>
</g>
<g clip-path="url(#a)">
<defs>
<path id="az" d="m37.109 75.984v-7.4844h-8.5938q-4.8281 0-6.7188-1.9531-1.875-1.9531-1.875-7.0312v-4.8281h14.797v-6.9844h-14.797v-47.703h-9.0312v47.703h-8.5938v6.9844h8.5938v3.8125q0 9.125 4.25 13.297 4.25 4.1875 13.469 4.1875z"/>
</defs>
<g transform="translate(1030.6 1071.9) scale(.1 -.1)">
<use xlink:href="#al"/>
<use x="63.476562" xlink:href="#s"/>
<use x="118.457031" xlink:href="#w"/>
<use x="181.835938" xlink:href="#f"/>
<use x="243.115234" xlink:href="#az"/>
</g>
</g>
<g clip-path="url(#a)">
<g transform="translate(1102.2 1071.9) scale(.1 -.1)">
<use xlink:href="#i"/>
<use x="27.783203" xlink:href="#o"/>
<use x="79.882812" xlink:href="#v"/>
</g>
</g>
<g clip-path="url(#a)">
<g transform="translate(1157 1071.9) scale(.1 -.1)">
<use xlink:href="#g"/>
<use x="63.378906" xlink:href="#f"/>
<use x="124.658203" xlink:href="#s"/>
<use x="179.638672" xlink:href="#w"/>
<use x="243.017578" xlink:href="#v"/>
<use x="282.226562" xlink:href="#o"/>
</g>
</g>
<g clip-path="url(#a)">
<g transform="translate(1224.8 1071.9) scale(.1 -.1)">
<use xlink:href="#j"/>
<use x="27.783203" xlink:href="#f"/>
<use x="89.0625" xlink:href="#ag"/>
<use x="152.441406" xlink:href="#v"/>
<use x="191.650391" xlink:href="#j"/>
<use x="219.433594" xlink:href="#ac"/>
<use x="280.615234" xlink:href="#o"/>
</g>
</g>
<g clip-path="url(#a)">
<g transform="translate(1275.8 1071.9) scale(.1 -.1)">
<use xlink:href="#f"/>
<use x="61.279297" xlink:href="#ag"/>
<use x="124.658203" xlink:href="#o"/>
<use x="176.757812" xlink:href="#aj"/>
<use x="240.234375" xlink:href="#d"/>
<use x="301.757812" xlink:href="#ak"/>
<use x="365.234375" xlink:href="#h"/>
<use x="404.097656" xlink:href="#ac"/>
<use x="465.279297" xlink:href="#s"/>
<use x="520.259766" xlink:href="#w"/>
<use x="583.638672" xlink:href="#d"/>
<use x="645.162109" xlink:href="#g"/>
</g>
</g>
<g clip-path="url(#a)">
<defs>
<path id="e" d="m10.688 12.406h10.312v-12.406h-10.312z"/>
</defs>
<g transform="translate(1378.2 1071.9) scale(.1 -.1)">
<use xlink:href="#e"/>
<use x="31.787109" xlink:href="#e"/>
<use x="63.574219" xlink:href="#e"/>
</g>
</g>
<g clip-path="url(#a)">
<g transform="translate(1443.6 1071.9) scale(.1 -.1)">
<use xlink:href="#ae"/>
<use x="77.001953" xlink:href="#f"/>
<use x="138.28125" xlink:href="#g"/>
<use x="201.660156" xlink:href="#g"/>
</g>
</g>
<g clip-path="url(#a)">
<g transform="translate(1514.2 1071.9) scale(.1 -.1)">
<use xlink:href="#ap"/>
<use x="81.787109" xlink:href="#d"/>
<use x="143.310547" xlink:href="#h"/>
<use x="182.673828" xlink:href="#u"/>
<use x="246.150391" xlink:href="#d"/>
<use x="307.673828" xlink:href="#g"/>
</g>
</g>
<g clip-path="url(#a)">
<g transform="translate(1603.1 1071.9) scale(.1 -.1)">
<use xlink:href="#u"/>
<use x="63.476562" xlink:href="#i"/>
<use x="91.259766" xlink:href="#d"/>
</g>
</g>
<g clip-path="url(#a)">
<g transform="translate(1670.7 1071.9) scale(.1 -.1)">
<use xlink:href="#an"/>
<use x="77.490234" xlink:href="#j"/>
<use x="105.273438" xlink:href="#ac"/>
<use x="166.455078" xlink:href="#s"/>
<use x="221.435547" xlink:href="#at"/>
<use x="275.720703" xlink:href="#d"/>
<use x="337.244141" xlink:href="#g"/>
</g>
</g>
<g clip-path="url(#a)">
<g transform="translate(1767 1071.9) scale(.1 -.1)">
<use xlink:href="#as"/>
<use x="52.490234" xlink:href="#ag"/>
</g>
</g>
<g clip-path="url(#a)">
<defs>
<path id="aw" d="m34.281 27.484q-10.891 0-15.094-2.4844t-4.2031-8.5q0-4.7812 3.1562-7.5938 3.1562-2.7969 8.5625-2.7969 7.4844 0 12 5.2969t4.5156 14.078v2zm17.922 3.7188v-31.203h-8.9844v8.2969q-3.0781-4.9688-7.6719-7.3438t-11.234-2.375q-8.3906 0-13.359 4.7188-4.9531 4.7188-4.9531 12.625 0 9.2188 6.1719 13.906 6.1875 4.6875 18.438 4.6875h12.609v0.89062q0 6.2031-4.0781 9.5938t-11.453 3.3906q-4.6875 0-9.1406-1.125-4.4375-1.125-8.5312-3.375v8.3125q4.9219 1.9062 9.5625 2.8438 4.6406 0.95312 9.0312 0.95312 11.875 0 17.734-6.1562 5.8594-6.1406 5.8594-18.641zm-18.609 44.578h9.9062v-9.8594h-9.9062zm-19.094 0h9.9062v-9.8594h-9.9062z"/>
</defs>
<g transform="translate(1840 1071.9) scale(.1 -.1)">
<use xlink:href="#k"/>
<use x="46.333984" xlink:href="#h"/>
<use x="87.447266" xlink:href="#aw"/>
<use x="148.726562" xlink:href="#g"/>
<use x="212.105469" xlink:href="#d"/>
<use x="273.628906" xlink:href="#g"/>
</g>
</g>
<g clip-path="url(#a)">
<g transform="translate(1941.1 1071.9) scale(.1 -.1)">
<use xlink:href="#ar"/>
</g>
</g>
<g clip-path="url(#a)">
<g transform="translate(2026.5 1071.9) scale(.1 -.1)">
<use xlink:href="#e"/>
<use x="31.787109" xlink:href="#e"/>
<use x="63.574219" xlink:href="#e"/>
</g>
</g>
<g clip-path="url(#a)">
<defs>
<path id="c" d="m12.406 8.2969h16.109v55.625l-17.531-3.5156v8.9844l17.438 3.5156h9.8594v-64.609h16.109v-8.2969h-41.984z"/>
</defs>
<g transform="translate(1173.3 53.668) scale(.1 -.1)">
<use xlink:href="#c"/>
<use x="63.623047" xlink:href="#e"/>
<use x="95.410156" xlink:href="#c"/>
</g>
</g>
<g clip-path="url(#a)">
<defs>
<path id="q" d="m19.188 8.2969h34.422v-8.2969h-46.281v8.2969q5.6094 5.8125 15.297 15.594 9.7031 9.7969 12.188 12.641 4.7344 5.3125 6.6094 9 1.8906 3.6875 1.8906 7.25 0 5.8125-4.0781 9.4688-4.0781 3.6719-10.625 3.6719-4.6406 0-9.7969-1.6094-5.1406-1.6094-11-4.8906v9.9688q5.9531 2.3906 11.125 3.6094 5.1875 1.2188 9.4844 1.2188 11.328 0 18.062-5.6719 6.7344-5.6562 6.7344-15.125 0-4.5-1.6875-8.5312-1.6719-4.0156-6.125-9.4844-1.2188-1.4219-7.7656-8.1875-6.5312-6.7656-18.453-18.922z"/>
</defs>
<g transform="translate(182.4 224.91) scale(.1 -.1)">
<use xlink:href="#c"/>
<use x="63.623047" xlink:href="#e"/>
<use x="95.410156" xlink:href="#q"/>
</g>
</g>
<g clip-path="url(#a)">
<defs>
<path id="n" d="m40.578 39.312q7.0781-1.5156 11.047-6.3125 3.9844-4.7812 3.9844-11.812 0-10.781-7.4219-16.703-7.4219-5.9062-21.094-5.9062-4.5781 0-9.4375 0.90625t-10.031 2.7188v9.5156q4.0938-2.3906 8.9688-3.6094 4.8906-1.2188 10.219-1.2188 9.2656 0 14.125 3.6562t4.8594 10.641q0 6.4531-4.5156 10.078-4.5156 3.6406-12.562 3.6406h-8.5v8.1094h8.8906q7.2656 0 11.125 2.9062t3.8594 8.375q0 5.6094-3.9844 8.6094-3.9688 3.0156-11.391 3.0156-4.0625 0-8.7031-0.89062-4.6406-0.875-10.203-2.7188v8.7812q5.625 1.5625 10.531 2.3438t9.25 0.78125q11.234 0 17.766-5.1094 6.5469-5.0938 6.5469-13.781 0-6.0625-3.4688-10.234t-9.8594-5.7812z"/>
</defs>
<g transform="translate(1448.9 905.17) scale(.1 -.1)">
<use xlink:href="#c"/>
<use x="63.623047" xlink:href="#e"/>
<use x="95.410156" xlink:href="#n"/>
</g>
</g>
<g clip-path="url(#a)">
<defs>
<path id="m" d="m37.797 64.312-24.906-38.922h24.906zm-2.5938 8.5938h12.406v-47.516h10.406v-8.2031h-10.406v-17.188h-9.8125v17.188h-32.906v9.5156z"/>
</defs>
<g transform="translate(1686.9 566.28) scale(.1 -.1)">
<use xlink:href="#c"/>
<use x="63.623047" xlink:href="#e"/>
<use x="95.410156" xlink:href="#m"/>
</g>
</g>
<g clip-path="url(#a)">
<defs>
<path id="ab" d="m31.781 34.625q-7.0312 0-11.062-3.7656-4.0156-3.7656-4.0156-10.344 0-6.5938 4.0156-10.359 4.0312-3.7656 11.062-3.7656t11.078 3.7812q4.0625 3.7969 4.0625 10.344 0 6.5781-4.0312 10.344-4.0156 3.7656-11.109 3.7656zm-9.8594 4.1875q-6.3438 1.5625-9.8906 5.9062-3.5312 4.3594-3.5312 10.609 0 8.7344 6.2188 13.812 6.2344 5.0781 17.062 5.0781 10.891 0 17.094-5.0781t6.2031-13.812q0-6.25-3.5469-10.609-3.5312-4.3438-9.8281-5.9062 7.125-1.6562 11.094-6.5 3.9844-4.8281 3.9844-11.797 0-10.609-6.4688-16.281-6.4688-5.6562-18.531-5.6562-12.047 0-18.531 5.6562-6.4688 5.6719-6.4688 16.281 0 6.9688 4 11.797 4.0156 4.8438 11.141 6.5zm-3.6094 15.578q0-5.6562 3.5312-8.8281 3.5469-3.1719 9.9375-3.1719 6.3594 0 9.9375 3.1719 3.5938 3.1719 3.5938 8.8281 0 5.6719-3.5938 8.8438-3.5781 3.1719-9.9375 3.1719-6.3906 0-9.9375-3.1719-3.5312-3.1719-3.5312-8.8438z"/>
</defs>
<g transform="translate(1524.8 905.17) scale(.1 -.1)">
<use xlink:href="#c"/>
<use x="63.623047" xlink:href="#e"/>
<use x="95.410156" xlink:href="#ab"/>
</g>
</g>
<g clip-path="url(#a)">
<defs>
<path id="aa" d="m10.984 1.5156v8.9844q3.7188-1.7656 7.5156-2.6875 3.8125-0.92188 7.4844-0.92188 9.7656 0 14.906 6.5625 5.1562 6.5625 5.8906 19.953-2.8281-4.2031-7.1875-6.4531-4.3438-2.25-9.6094-2.25-10.938 0-17.312 6.6094-6.375 6.625-6.375 18.109 0 11.219 6.6406 18 6.6406 6.7969 17.672 6.7969 12.656 0 19.312-9.7031 6.6719-9.6875 6.6719-28.141 0-17.234-8.1875-27.516-8.1719-10.281-21.984-10.281-3.7188 0-7.5312 0.73438-3.7969 0.73438-7.9062 2.2031zm19.625 30.906q6.6406 0 10.516 4.5312 3.8906 4.5469 3.8906 12.469 0 7.8594-3.8906 12.422-3.875 4.5625-10.516 4.5625t-10.516-4.5625-3.875-12.422q0-7.9219 3.875-12.469 3.875-4.5312 10.516-4.5312z"/>
</defs>
<g transform="translate(1642.8 736.16) scale(.1 -.1)">
<use xlink:href="#c"/>
<use x="63.623047" xlink:href="#e"/>
<use x="95.410156" xlink:href="#aa"/>
</g>
</g>
<g clip-path="url(#a)">
<defs>
<path id="af" d="m31.781 66.406q-7.6094 0-11.453-7.5-3.8281-7.4844-3.8281-22.531 0-14.984 3.8281-22.484 3.8438-7.5 11.453-7.5 7.6719 0 11.5 7.5 3.8438 7.5 3.8438 22.484 0 15.047-3.8438 22.531-3.8281 7.5-11.5 7.5zm0 7.8125q12.266 0 18.734-9.7031 6.4688-9.6875 6.4688-28.141 0-18.406-6.4688-28.109-6.4688-9.6875-18.734-9.6875-12.25 0-18.719 9.6875-6.4688 9.7031-6.4688 28.109 0 18.453 6.4688 28.141 6.4688 9.7031 18.719 9.7031z"/>
</defs>
<g transform="translate(1889.9 736.16) scale(.1 -.1)">
<use xlink:href="#c"/>
<use x="63.623047" xlink:href="#e"/>
<use x="95.410156" xlink:href="#c"/>
<use x="159.033203" xlink:href="#af"/>
</g>
</g>
<g clip-path="url(#a)">
<g transform="translate(1761.7 905.17) scale(.1 -.1)">
<use xlink:href="#c"/>
<use x="63.623047" xlink:href="#e"/>
<use x="95.410156" xlink:href="#c"/>
<use x="159.033203" xlink:href="#c"/>
</g>
</g>
<g clip-path="url(#a)">
<g transform="translate(1845.8 905.17) scale(.1 -.1)">
<use xlink:href="#c"/>
<use x="63.623047" xlink:href="#e"/>
<use x="95.410156" xlink:href="#c"/>
<use x="159.033203" xlink:href="#q"/>
</g>
</g>
<g clip-path="url(#a)">
<g transform="translate(1599.6 905.17) scale(.1 -.1)">
<use xlink:href="#c"/>
<use x="63.623047" xlink:href="#e"/>
<use x="95.410156" xlink:href="#c"/>
<use x="159.033203" xlink:href="#n"/>
</g>
</g>
<g clip-path="url(#a)">
<g transform="translate(1679.6 905.17) scale(.1 -.1)">
<use xlink:href="#c"/>
<use x="63.623047" xlink:href="#e"/>
<use x="95.410156" xlink:href="#c"/>
<use x="159.033203" xlink:href="#m"/>
</g>
</g>
<g clip-path="url(#a)">
<defs>
<path id="p" d="m10.797 72.906h38.719v-8.3125h-29.688v-17.859q2.1406 0.73438 4.2812 1.0938 2.1562 0.35938 4.3125 0.35938 12.203 0 19.328-6.6875 7.1406-6.6875 7.1406-18.109 0-11.766-7.3281-18.297-7.3281-6.5156-20.656-6.5156-4.5938 0-9.3594 0.78125-4.75 0.78125-9.8281 2.3438v9.9219q4.3906-2.3906 9.0781-3.5625t9.9062-1.1719q8.4531 0 13.375 4.4375 4.9375 4.4375 4.9375 12.062 0 7.6094-4.9375 12.047-4.9219 4.4531-13.375 4.4531-3.9531 0-7.8906-0.875-3.9219-0.875-8.0156-2.7344z"/>
</defs>
<g transform="translate(85.594 905.17) scale(.1 -.1)">
<use xlink:href="#c"/>
<use x="63.623047" xlink:href="#e"/>
<use x="95.410156" xlink:href="#c"/>
<use x="159.033203" xlink:href="#p"/>
</g>
</g>
<g clip-path="url(#a)">
<defs>
<path id="x" d="m33.016 40.375q-6.6406 0-10.531-4.5469-3.875-4.5312-3.875-12.438 0-7.8594 3.875-12.438 3.8906-4.5625 10.531-4.5625t10.516 4.5625q3.875 4.5781 3.875 12.438 0 7.9062-3.875 12.438-3.875 4.5469-10.516 4.5469zm19.578 30.922v-8.9844q-3.7188 1.75-7.5 2.6719-3.7812 0.9375-7.5 0.9375-9.7656 0-14.922-6.5938-5.1406-6.5938-5.875-19.922 2.875 4.25 7.2188 6.5156 4.3594 2.2656 9.5781 2.2656 10.984 0 17.359-6.6719 6.375-6.6562 6.375-18.125 0-11.234-6.6406-18.031-6.6406-6.7812-17.672-6.7812-12.656 0-19.344 9.6875-6.6875 9.7031-6.6875 28.109 0 17.281 8.2031 27.562t22.016 10.281q3.7188 0 7.5-0.73438t7.8906-2.1875z"/>
</defs>
<g transform="translate(91.749 905.17) scale(.1 -.1)">
<use xlink:href="#c"/>
<use x="63.623047" xlink:href="#e"/>
<use x="95.410156" xlink:href="#c"/>
<use x="159.033203" xlink:href="#x"/>
</g>
</g>
<g clip-path="url(#a)">
<defs>
<path id="ai" d="m8.2031 72.906h46.875v-4.2031l-26.469-68.703h-10.297l24.906 64.594h-35.016z"/>
</defs>
<g transform="translate(99.955 905.17) scale(.1 -.1)">
<use xlink:href="#c"/>
<use x="63.623047" xlink:href="#e"/>
<use x="95.410156" xlink:href="#c"/>
<use x="159.033203" xlink:href="#ai"/>
</g>
</g>
<g clip-path="url(#a)">
<g transform="translate(110.21 905.17) scale(.1 -.1)">
<use xlink:href="#c"/>
<use x="63.623047" xlink:href="#e"/>
<use x="95.410156" xlink:href="#c"/>
<use x="159.033203" xlink:href="#ab"/>
</g>
</g>
<g clip-path="url(#a)">
<g transform="translate(565.27 395.81) scale(.1 -.1)">
<use xlink:href="#c"/>
<use x="63.623047" xlink:href="#e"/>
<use x="95.410156" xlink:href="#c"/>
<use x="159.033203" xlink:href="#aa"/>
</g>
</g>
<g clip-path="url(#a)">
<g transform="translate(184.75 736.16) scale(.1 -.1)">
<use xlink:href="#c"/>
<use x="63.623047" xlink:href="#e"/>
<use x="95.410156" xlink:href="#q"/>
<use x="159.033203" xlink:href="#c"/>
</g>
</g>
<g clip-path="url(#a)">
<g transform="translate(266.12 905.17) scale(.1 -.1)">
<use xlink:href="#c"/>
<use x="63.623047" xlink:href="#e"/>
<use x="95.410156" xlink:href="#q"/>
<use x="159.033203" xlink:href="#q"/>
</g>
</g>
<g clip-path="url(#a)">
<g transform="translate(354 566.28) scale(.1 -.1)">
<use xlink:href="#c"/>
<use x="63.623047" xlink:href="#e"/>
<use x="95.410156" xlink:href="#q"/>
<use x="159.033203" xlink:href="#n"/>
</g>
</g>
<g clip-path="url(#a)">
<g transform="translate(650.89 566.28) scale(.1 -.1)">
<use xlink:href="#c"/>
<use x="63.623047" xlink:href="#e"/>
<use x="95.410156" xlink:href="#q"/>
<use x="159.033203" xlink:href="#m"/>
</g>
</g>
<g clip-path="url(#a)">
<g transform="translate(912.34 905.17) scale(.1 -.1)">
<use xlink:href="#c"/>
<use x="63.623047" xlink:href="#e"/>
<use x="95.410156" xlink:href="#q"/>
<use x="159.033203" xlink:href="#p"/>
</g>
</g>
<g clip-path="url(#a)">
<g transform="translate(1158.5 566.28) scale(.1 -.1)">
<use xlink:href="#c"/>
<use x="63.623047" xlink:href="#e"/>
<use x="95.410156" xlink:href="#q"/>
<use x="159.033203" xlink:href="#x"/>
</g>
</g>
<g clip-path="url(#a)">
<g transform="translate(1002.6 736.16) scale(.1 -.1)">
<use xlink:href="#c"/>
<use x="63.623047" xlink:href="#e"/>
<use x="95.410156" xlink:href="#q"/>
<use x="159.033203" xlink:href="#ab"/>
</g>
</g>
<g clip-path="url(#a)">
<g transform="translate(1097 905.17) scale(.1 -.1)">
<use xlink:href="#c"/>
<use x="63.623047" xlink:href="#e"/>
<use x="95.410156" xlink:href="#q"/>
<use x="159.033203" xlink:href="#aa"/>
</g>
</g>
<g clip-path="url(#a)">
<g transform="translate(1162.6 905.17) scale(.1 -.1)">
<use xlink:href="#c"/>
<use x="63.623047" xlink:href="#e"/>
<use x="95.410156" xlink:href="#n"/>
<use x="159.033203" xlink:href="#af"/>
</g>
</g>
<g clip-path="url(#a)">
<g transform="translate(1230.3 905.17) scale(.1 -.1)">
<use xlink:href="#c"/>
<use x="63.623047" xlink:href="#e"/>
<use x="95.410156" xlink:href="#n"/>
<use x="159.033203" xlink:href="#c"/>
</g>
</g>
<g clip-path="url(#a)">
<g transform="translate(1300.1 905.17) scale(.1 -.1)">
<use xlink:href="#c"/>
<use x="63.623047" xlink:href="#e"/>
<use x="95.410156" xlink:href="#n"/>
<use x="159.033203" xlink:href="#q"/>
</g>
</g>
<g clip-path="url(#a)">
<g transform="translate(971.83 905.17) scale(.1 -.1)">
<use xlink:href="#c"/>
<use x="63.623047" xlink:href="#e"/>
<use x="95.410156" xlink:href="#n"/>
<use x="159.033203" xlink:href="#n"/>
</g>
</g>
<g clip-path="url(#a)">
<g transform="translate(1033.4 905.17) scale(.1 -.1)">
<use xlink:href="#c"/>
<use x="63.623047" xlink:href="#e"/>
<use x="95.410156" xlink:href="#n"/>
<use x="159.033203" xlink:href="#m"/>
</g>
</g>
<g clip-path="url(#a)">
<g transform="translate(469.22 905.17) scale(.1 -.1)">
<use xlink:href="#c"/>
<use x="63.623047" xlink:href="#e"/>
<use x="95.410156" xlink:href="#n"/>
<use x="159.033203" xlink:href="#p"/>
</g>
</g>
<g clip-path="url(#a)">
<g transform="translate(510.25 905.17) scale(.1 -.1)">
<use xlink:href="#c"/>
<use x="63.623047" xlink:href="#e"/>
<use x="95.410156" xlink:href="#n"/>
<use x="159.033203" xlink:href="#x"/>
</g>
</g>
<g clip-path="url(#a)">
<g transform="translate(575.9 736.16) scale(.1 -.1)">
<use xlink:href="#c"/>
<use x="63.623047" xlink:href="#e"/>
<use x="95.410156" xlink:href="#n"/>
<use x="159.033203" xlink:href="#ai"/>
</g>
</g>
<g clip-path="url(#a)">
<g transform="translate(695.57 736.16) scale(.1 -.1)">
<use xlink:href="#c"/>
<use x="63.623047" xlink:href="#e"/>
<use x="95.410156" xlink:href="#n"/>
<use x="159.033203" xlink:href="#ab"/>
</g>
</g>
<g clip-path="url(#a)">
<g transform="translate(799.51 905.17) scale(.1 -.1)">
<use xlink:href="#c"/>
<use x="63.623047" xlink:href="#e"/>
<use x="95.410156" xlink:href="#n"/>
<use x="159.033203" xlink:href="#aa"/>
</g>
</g>
<g clip-path="url(#a)">
<g transform="translate(854.9 905.17) scale(.1 -.1)">
<use xlink:href="#c"/>
<use x="63.623047" xlink:href="#e"/>
<use x="95.410156" xlink:href="#m"/>
<use x="159.033203" xlink:href="#af"/>
</g>
</g>
<g clip-path="url(#a)">
<g transform="translate(645.65 905.17) scale(.1 -.1)">
<use xlink:href="#c"/>
<use x="63.623047" xlink:href="#e"/>
<use x="95.410156" xlink:href="#m"/>
<use x="159.033203" xlink:href="#c"/>
</g>
</g>
<g clip-path="url(#a)">
<g transform="translate(694.88 905.17) scale(.1 -.1)">
<use xlink:href="#c"/>
<use x="63.623047" xlink:href="#e"/>
<use x="95.410156" xlink:href="#m"/>
<use x="159.033203" xlink:href="#q"/>
</g>
</g>
<g clip-path="url(#a)">
<g transform="translate(746.17 905.17) scale(.1 -.1)">
<use xlink:href="#c"/>
<use x="63.623047" xlink:href="#e"/>
<use x="95.410156" xlink:href="#m"/>
<use x="159.033203" xlink:href="#n"/>
</g>
</g>
<g clip-path="url(#a)">
<g transform="translate(553.33 905.17) scale(.1 -.1)">
<use xlink:href="#c"/>
<use x="63.623047" xlink:href="#e"/>
<use x="95.410156" xlink:href="#m"/>
<use x="159.033203" xlink:href="#m"/>
</g>
</g>
<g clip-path="url(#a)">
<g transform="translate(598.46 905.17) scale(.1 -.1)">
<use xlink:href="#c"/>
<use x="63.623047" xlink:href="#e"/>
<use x="95.410156" xlink:href="#m"/>
<use x="159.033203" xlink:href="#p"/>
</g>
</g>
<g clip-path="url(#a)">
<g transform="translate(310.23 736.16) scale(.1 -.1)">
<use xlink:href="#c"/>
<use x="63.623047" xlink:href="#e"/>
<use x="95.410156" xlink:href="#m"/>
<use x="159.033203" xlink:href="#x"/>
</g>
</g>
<g clip-path="url(#a)">
<g transform="translate(358.44 905.17) scale(.1 -.1)">
<use xlink:href="#c"/>
<use x="63.623047" xlink:href="#e"/>
<use x="95.410156" xlink:href="#m"/>
<use x="159.033203" xlink:href="#ai"/>
</g>
</g>
<g clip-path="url(#a)">
<g transform="translate(393.32 905.17) scale(.1 -.1)">
<use xlink:href="#c"/>
<use x="63.623047" xlink:href="#e"/>
<use x="95.410156" xlink:href="#m"/>
<use x="159.033203" xlink:href="#ab"/>
</g>
</g>
<g clip-path="url(#a)">
<g transform="translate(294.85 905.17) scale(.1 -.1)">
<use xlink:href="#c"/>
<use x="63.623047" xlink:href="#e"/>
<use x="95.410156" xlink:href="#m"/>
<use x="159.033203" xlink:href="#aa"/>
</g>
</g>
<g clip-path="url(#a)">
<g transform="translate(325.62 905.17) scale(.1 -.1)">
<use xlink:href="#c"/>
<use x="63.623047" xlink:href="#e"/>
<use x="95.410156" xlink:href="#p"/>
<use x="159.033203" xlink:href="#af"/>
</g>
</g>
<g clip-path="url(#a)">
<g transform="translate(136.88 905.17) scale(.1 -.1)">
<use xlink:href="#c"/>
<use x="63.623047" xlink:href="#e"/>
<use x="95.410156" xlink:href="#p"/>
<use x="159.033203" xlink:href="#c"/>
</g>
</g>
<g clip-path="url(#a)">
<g transform="translate(153.29 905.17) scale(.1 -.1)">
<use xlink:href="#c"/>
<use x="63.623047" xlink:href="#e"/>
<use x="95.410156" xlink:href="#p"/>
<use x="159.033203" xlink:href="#q"/>
</g>
</g>
<g clip-path="url(#a)">
<g transform="translate(171.76 905.17) scale(.1 -.1)">
<use xlink:href="#c"/>
<use x="63.623047" xlink:href="#e"/>
<use x="95.410156" xlink:href="#p"/>
<use x="159.033203" xlink:href="#n"/>
</g>
</g>
<g clip-path="url(#a)">
<g transform="translate(192.27 905.17) scale(.1 -.1)">
<use xlink:href="#c"/>
<use x="63.623047" xlink:href="#e"/>
<use x="95.410156" xlink:href="#p"/>
<use x="159.033203" xlink:href="#m"/>
</g>
</g>
<g clip-path="url(#a)">
<g transform="translate(214.84 905.17) scale(.1 -.1)">
<use xlink:href="#c"/>
<use x="63.623047" xlink:href="#e"/>
<use x="95.410156" xlink:href="#p"/>
<use x="159.033203" xlink:href="#p"/>
</g>
</g>
<g clip-path="url(#a)">
<g transform="translate(239.46 905.17) scale(.1 -.1)">
<use xlink:href="#c"/>
<use x="63.623047" xlink:href="#e"/>
<use x="95.410156" xlink:href="#p"/>
<use x="159.033203" xlink:href="#x"/>
</g>
</g>
<g clip-path="url(#a)">
<g transform="translate(122.52 905.17) scale(.1 -.1)">
<use xlink:href="#c"/>
<use x="63.623047" xlink:href="#e"/>
<use x="95.410156" xlink:href="#p"/>
<use x="159.033203" xlink:href="#ai"/>
</g>
</g>
<g clip-path="url(#a)">
<g transform="translate(430.24 905.17) scale(.1 -.1)">
<use xlink:href="#c"/>
<use x="63.623047" xlink:href="#e"/>
<use x="95.410156" xlink:href="#p"/>
<use x="159.033203" xlink:href="#ab"/>
</g>
</g>
<g clip-path="url(#a)">
<g transform="translate(1371.9 905.17) scale(.1 -.1)">
<use xlink:href="#c"/>
<use x="63.623047" xlink:href="#e"/>
<use x="95.410156" xlink:href="#p"/>
<use x="159.033203" xlink:href="#aa"/>
</g>
</g>
<g clip-path="url(#a)">
<g transform="translate(1931.9 905.17) scale(.1 -.1)">
<use xlink:href="#c"/>
<use x="63.623047" xlink:href="#e"/>
<use x="95.410156" xlink:href="#x"/>
<use x="159.033203" xlink:href="#af"/>
</g>
</g>
<g clip-path="url(#a)">
<g transform="translate(2020.1 905.17) scale(.1 -.1)">
<use xlink:href="#c"/>
<use x="63.623047" xlink:href="#e"/>
<use x="95.410156" xlink:href="#x"/>
<use x="159.033203" xlink:href="#c"/>
</g>
</g>
<defs>
<clipPath id="a">
<rect width="2128" height="1120"/>
</clipPath>
</defs>
</svg>
