<?xml version="1.0" encoding="UTF-8"?>
<!DOCTYPE svg  PUBLIC '-//W3C//DTD SVG 1.1//EN'  'http://www.w3.org/Graphics/SVG/1.1/DTD/svg11.dtd'>
<svg width="962.67pt" height="506.67pt" version="1.1" viewBox="0 0 962.67 506.67" xmlns="http://www.w3.org/2000/svg" xmlns:xlink="http://www.w3.org/1999/xlink">
<defs>
<style type="text/css">*{stroke-linecap:butt;stroke-linejoin:round;}</style>
</defs>
<path d="m0 506.67h962.67v-506.67h-962.67z" fill="#fff"/>
<g fill="none" stroke="#000">
<path d="m362.3 24.422-293.94 231.59" clip-path="url(#a)"/>
<path d="m362.3 24.422-221.06 344.71" clip-path="url(#a)"/>
<path d="m362.3 24.422-38.868 116.9" clip-path="url(#a)"/>
<path d="m362.3 24.422 386.25 116.9" clip-path="url(#a)"/>
<path d="m362.3 24.422 167.62 344.71" clip-path="url(#a)"/>
<path d="m68.365 256.01-24.292 113.12" clip-path="url(#a)"/>
<path d="m68.365 256.01 24.292 113.12" clip-path="url(#a)"/>
<path d="m141.24 369.13v113.12" clip-path="url(#a)"/>
<path d="m323.43 141.32-133.61 227.81" clip-path="url(#a)"/>
<path d="m323.43 141.32-85.023 227.81" clip-path="url(#a)"/>
<path d="m323.43 141.32-36.438 227.81" clip-path="url(#a)"/>
<path d="m323.43 141.32 12.146 227.81" clip-path="url(#a)"/>
<path d="m323.43 141.32 85.023 114.69" clip-path="url(#a)"/>
<path d="m323.43 141.32 157.9 227.81" clip-path="url(#a)"/>
<path d="m748.55 141.32-170.05 227.81" clip-path="url(#a)"/>
<path d="m748.55 141.32-121.46 227.81" clip-path="url(#a)"/>
<path d="m748.55 141.32-48.585 114.69" clip-path="url(#a)"/>
<path d="m748.55 141.32 48.585 114.69" clip-path="url(#a)"/>
<path d="m748.55 141.32 121.46 227.81" clip-path="url(#a)"/>
<path d="m748.55 141.32 170.05 227.81" clip-path="url(#a)"/>
<path d="m578.5 369.13v113.12" clip-path="url(#a)"/>
<path d="m627.09 369.13v113.12" clip-path="url(#a)"/>
<path d="m699.96 256.01-24.292 113.12" clip-path="url(#a)"/>
<path d="m699.96 256.01 24.292 113.12" clip-path="url(#a)"/>
<path d="m797.13 256.01-24.292 113.12" clip-path="url(#a)"/>
<path d="m797.13 256.01 24.292 113.12" clip-path="url(#a)"/>
<path d="m870.01 369.13v113.12" clip-path="url(#a)"/>
<path d="m772.84 369.13v113.12" clip-path="url(#a)"/>
<path d="m821.43 369.13v113.12" clip-path="url(#a)"/>
<path d="m675.67 369.13v113.12" clip-path="url(#a)"/>
<path d="m724.26 369.13v113.12" clip-path="url(#a)"/>
<path d="m189.83 369.13v113.12" clip-path="url(#a)"/>
<path d="m238.41 369.13v113.12" clip-path="url(#a)"/>
<path d="m287 369.13v113.12" clip-path="url(#a)"/>
<path d="m335.58 369.13v113.12" clip-path="url(#a)"/>
<path d="m408.46 256.01-24.292 113.12" clip-path="url(#a)"/>
<path d="m408.46 256.01 24.292 113.12" clip-path="url(#a)"/>
<path d="m481.33 369.13v113.12" clip-path="url(#a)"/>
<path d="m384.16 369.13v113.12" clip-path="url(#a)"/>
<path d="m432.75 369.13v113.12" clip-path="url(#a)"/>
<path d="m44.072 369.13v113.12" clip-path="url(#a)"/>
<path d="m92.657 369.13v113.12" clip-path="url(#a)"/>
<path d="m529.92 369.13v113.12" clip-path="url(#a)"/>
<path d="m918.59 369.13v113.12" clip-path="url(#a)"/>
</g>
<path d="m216.85 147 4.7257-3.7233q1.8852-1.4853 0.39987-3.3705l-4.7916-6.0816q-1.4853-1.8852-3.3705-0.39987l-4.7257 3.7233q-1.8852 1.4853-0.39987 3.3705l4.7916 6.0816q1.4853 1.8852 3.3705 0.39987z" clip-path="url(#a)" fill="#fff" stroke="#fff"/>
<g clip-path="url(#a)">
<defs>
<path id="u" d="m9.8125 72.906h9.8594v-29.891h35.844v29.891h9.8594v-72.906h-9.8594v34.719h-35.844v-34.719h-9.8594z"/>
</defs>
<g transform="translate(214.34 143.81) rotate(-38.234) scale(.08 -.08)">
<use xlink:href="#u"/>
</g>
</g>
<path d="m255.85 202.04 2.4063-3.7522q1.2956-2.0203-0.72466-3.3158l-6.5174-4.1796q-2.0203-1.2956-3.3158 0.72466l-2.4063 3.7522q-1.2956 2.0203 0.72466 3.3158l6.5174 4.1796q2.0203 1.2956 3.3158-0.72466z" clip-path="url(#a)" fill="#fff" stroke="#fff"/>
<g clip-path="url(#a)">
<defs>
<path id="aq" d="m9.8125 72.906h9.8594v-64.609h35.5v-8.2969h-45.359z"/>
</defs>
<g transform="translate(252.43 199.84) rotate(-57.328) scale(.08 -.08)">
<use xlink:href="#aq"/>
</g>
</g>
<path d="m347.87 87.705 1.8982-5.709q0.75722-2.2774-1.5202-3.0346l-7.347-2.4428q-2.2774-0.75722-3.0346 1.5202l-1.8982 5.709q-0.75722 2.2774 1.5202 3.0346l7.347 2.4428q2.2774 0.75722 3.0346-1.5202z" clip-path="url(#a)" fill="#fff" stroke="#fff"/>
<g clip-path="url(#a)">
<g transform="translate(344.01 86.423) rotate(-71.609) scale(.08 -.08)">
<use xlink:href="#u"/>
</g>
</g>
<path d="m550.73 88.003 5.7583 1.7428q2.2971 0.69522 2.9923-1.6019l2.2428-7.4105q0.69522-2.2971-1.6019-2.9923l-5.7583-1.7428q-2.2971-0.69522-2.9923 1.6019l-2.2428 7.4105q-0.69522 2.2971 1.6019 2.9923z" clip-path="url(#a)" fill="#fff" stroke="#fff"/>
<g clip-path="url(#a)">
<g transform="translate(551.91 84.113) rotate(16.839) scale(.08 -.08)">
<use xlink:href="#u"/>
</g>
</g>
<path d="m439.19 196.88 2.5604 5.2655q1.0495 2.1584 3.2079 1.1088l6.9629-3.3858q2.1584-1.0495 1.1088-3.2079l-2.5604-5.2655q-1.0495-2.1584-3.2079-1.1088l-6.9629 3.3858q-2.1584 1.0495-1.1088 3.2079z" clip-path="url(#a)" fill="#fff" stroke="#fff"/>
<g clip-path="url(#a)">
<defs>
<path id="s" d="m8.6875 72.906h9.9219v-44.297q0-11.719 4.2344-16.875 4.25-5.1406 13.781-5.1406 9.4688 0 13.719 5.1406 4.25 5.1562 4.25 16.875v44.297h9.9062v-45.516q0-14.25-7.0625-21.531-7.0469-7.2812-20.812-7.2812-13.828 0-20.891 7.2812-7.0469 7.2812-7.0469 21.531z"/>
</defs>
<g transform="translate(442.84 195.11) rotate(64.068) scale(.08 -.08)">
<use xlink:href="#s"/>
</g>
</g>
<path d="m61.819 316.36 1.0614-4.9423q0.50392-2.3465-1.8426-2.8504l-7.5699-1.6257q-2.3465-0.50392-2.8504 1.8426l-1.0614 4.9423q-0.50392 2.3465 1.8426 2.8504l7.5699 1.6257q2.3465 0.50392 2.8504-1.8426z" clip-path="url(#a)" fill="#fff" stroke="#fff"/>
<g clip-path="url(#a)">
<defs>
<path id="v" d="m9.8125 72.906h46.094v-8.3125h-36.234v-21.578h34.719v-8.2969h-34.719v-26.422h37.109v-8.2969h-46.969z"/>
</defs>
<g transform="translate(57.846 315.5) rotate(-77.88) scale(.08 -.08)">
<use xlink:href="#v"/>
</g>
</g>
<path d="m73.793 311.16 1.1729 5.4617q0.50392 2.3465 2.8504 1.8426l7.5699-1.6257q2.3465-0.50392 1.8426-2.8504l-1.1729-5.4617q-0.50392-2.3465-2.8504-1.8426l-7.5699 1.6257q-2.3465 0.50392-1.8426 2.8504z" clip-path="url(#a)" fill="#fff" stroke="#fff"/>
<g clip-path="url(#a)">
<defs>
<path id="r" d="m64.406 67.281v-10.391q-4.9844 4.6406-10.625 6.9219-5.6406 2.2969-11.984 2.2969-12.5 0-19.141-7.6406t-6.6406-22.094q0-14.406 6.6406-22.047t19.141-7.6406q6.3438 0 11.984 2.2969t10.625 6.9375v-10.312q-5.1719-3.5156-10.969-5.2812-5.7812-1.75-12.219-1.75-16.562 0-26.094 10.125-9.5156 10.141-9.5156 27.672 0 17.578 9.5156 27.703 9.5312 10.141 26.094 10.141 6.5312 0 12.312-1.7344 5.7969-1.7344 10.875-5.2031z"/>
</defs>
<g transform="translate(77.766 310.3) rotate(77.88) scale(.08 -.08)">
<use xlink:href="#r"/>
</g>
</g>
<path d="m134.97 408.04v35.285q0 2.4 2.4 2.4h7.7425q2.4 0 2.4-2.4v-35.285q0-2.4-2.4-2.4h-7.7425q-2.4 0-2.4 2.4z" clip-path="url(#a)" fill="#fff" stroke="#fff"/>
<g clip-path="url(#a)">
<defs>
<path id="j" d="m-0.29688 72.906h61.672v-8.3125h-25.875v-64.594h-9.9062v64.594h-25.891z"/>
<path id="d" d="m56.203 29.594v-4.3906h-41.312q0.59375-9.2812 5.5938-14.141t13.938-4.8594q5.1719 0 10.031 1.2656t9.6562 3.8125v-8.5q-4.8438-2.0469-9.9219-3.125t-10.297-1.0781q-13.094 0-20.734 7.6094-7.6406 7.625-7.6406 20.625 0 13.422 7.25 21.297 7.25 7.8906 19.562 7.8906 11.031 0 17.453-7.1094 6.4219-7.0938 6.4219-19.297zm-8.9844 2.6406q-0.09375 7.3594-4.125 11.75-4.0312 4.4062-10.672 4.4062-7.5156 0-12.031-4.25t-5.2031-11.969z"/>
<path id="i" d="m41.109 46.297q-1.5156 0.875-3.2969 1.2812-1.7812 0.42188-3.9219 0.42188-7.625 0-11.703-4.9531t-4.0781-14.234v-28.812h-9.0312v54.688h9.0312v-8.5q2.8438 4.9844 7.375 7.3906 4.5469 2.4219 11.047 2.4219 0.92188 0 2.0469-0.125 1.125-0.10938 2.4844-0.35938z"/>
<path id="l" d="m52 44.188q3.375 6.0625 8.0625 8.9375t11.031 2.875q8.5469 0 13.188-5.9844 4.6406-5.9688 4.6406-17v-33.016h-9.0312v32.719q0 7.8594-2.7969 11.656-2.7812 3.8125-8.4844 3.8125-6.9844 0-11.047-4.6406-4.0469-4.625-4.0469-12.641v-30.906h-9.0312v32.719q0 7.9062-2.7812 11.688t-8.5938 3.7812q-6.8906 0-10.953-4.6562-4.0469-4.6562-4.0469-12.625v-30.906h-9.0312v54.688h9.0312v-8.5q3.0781 5.0312 7.375 7.4219t10.203 2.3906q5.9688 0 10.141-3.0312 4.1719-3.0156 6.1719-8.7812z"/>
<path id="f" d="m9.4219 54.688h8.9844v-54.688h-8.9844zm0 21.297h8.9844v-11.391h-8.9844z"/>
<path id="h" d="m54.891 33.016v-33.016h-8.9844v32.719q0 7.7656-3.0312 11.609-3.0312 3.8594-9.0781 3.8594-7.2812 0-11.484-4.6406-4.2031-4.625-4.2031-12.641v-30.906h-9.0312v54.688h9.0312v-8.5q3.2344 4.9375 7.5938 7.375 4.375 2.4375 10.094 2.4375 9.4219 0 14.25-5.8281 4.8438-5.8281 4.8438-17.156z"/>
<path id="g" d="m34.281 27.484q-10.891 0-15.094-2.4844t-4.2031-8.5q0-4.7812 3.1562-7.5938 3.1562-2.7969 8.5625-2.7969 7.4844 0 12 5.2969t4.5156 14.078v2zm17.922 3.7188v-31.203h-8.9844v8.2969q-3.0781-4.9688-7.6719-7.3438t-11.234-2.375q-8.3906 0-13.359 4.7188-4.9531 4.7188-4.9531 12.625 0 9.2188 6.1719 13.906 6.1875 4.6875 18.438 4.6875h12.609v0.89062q0 6.2031-4.0781 9.5938t-11.453 3.3906q-4.6875 0-9.1406-1.125-4.4375-1.125-8.5312-3.375v8.3125q4.9219 1.9062 9.5625 2.8438 4.6406 0.95312 9.0312 0.95312 11.875 0 17.734-6.1562 5.8594-6.1406 5.8594-18.641z"/>
<path id="k" d="m9.4219 75.984h8.9844v-75.984h-8.9844z"/>
</defs>
<g transform="translate(139.03 408.04) rotate(90) scale(.08 -.08)">
<use xlink:href="#j"/>
<use x="60.818359" xlink:href="#d"/>
<use x="122.341797" xlink:href="#i"/>
<use x="163.439453" xlink:href="#l"/>
<use x="260.851562" xlink:href="#f"/>
<use x="288.634766" xlink:href="#h"/>
<use x="352.013672" xlink:href="#g"/>
<use x="413.292969" xlink:href="#k"/>
</g>
</g>
<path d="m260.8 260.5 2.472-4.2148q1.2142-2.0702-0.85604-3.2844l-6.6786-3.917q-2.0702-1.2142-3.2844 0.85604l-2.472 4.2148q-1.2142 2.0702 0.85604 3.2844l6.6786 3.917q2.0702 1.2142 3.2844-0.85604z" clip-path="url(#a)" fill="#fff" stroke="#fff"/>
<g clip-path="url(#a)">
<g transform="translate(257.3 258.45) rotate(-59.609) scale(.08 -.08)">
<use xlink:href="#j"/>
</g>
</g>
<path d="m285.99 259.57 1.6089-4.3108q0.83919-2.2485-1.4093-3.0877l-7.2538-2.7073q-2.2485-0.83919-3.0877 1.4093l-1.6089 4.3108q-0.83919 2.2485 1.4093 3.0877l7.2538 2.7073q2.2485 0.83919 3.0877-1.4093z" clip-path="url(#a)" fill="#fff" stroke="#fff"/>
<g clip-path="url(#a)">
<defs>
<path id="ad" d="m9.8125 72.906h41.891v-8.3125h-32.031v-21.484h28.906v-8.2969h-28.906v-34.812h-9.8594z"/>
</defs>
<g transform="translate(282.19 258.15) rotate(-69.533) scale(.08 -.08)">
<use xlink:href="#ad"/>
</g>
</g>
<path d="m310.97 258.92 0.86436-5.4038q0.37907-2.3699-1.9908-2.7489l-7.6453-1.2229q-2.3699-0.37907-2.7489 1.9908l-0.86436 5.4038q-0.37907 2.3699 1.9908 2.7489l7.6453 1.2229q2.3699 0.37907 2.7489-1.9908z" clip-path="url(#a)" fill="#fff" stroke="#fff"/>
<g clip-path="url(#a)">
<defs>
<path id="w" d="m34.188 63.188-13.391-36.281h26.812zm-5.5781 9.7188h11.188l27.781-72.906h-10.25l-6.6406 18.703h-32.859l-6.6406-18.703h-10.406z"/>
</defs>
<g transform="translate(306.96 258.27) rotate(-80.912) scale(.08 -.08)">
<use xlink:href="#w"/>
</g>
</g>
<path d="m323.08 252.48 0.32797 6.1513q0.12778 2.3966 2.5244 2.2688l7.7315-0.41223q2.3966-0.12778 2.2688-2.5244l-0.32797-6.1513q-0.12778-2.3966-2.5244-2.2688l-7.7315 0.41223q-2.3966 0.12778-2.2688 2.5244z" clip-path="url(#a)" fill="#fff" stroke="#fff"/>
<g clip-path="url(#a)">
<defs>
<path id="ae" d="m19.672 64.797v-56.688h11.922q15.094 0 22.094 6.8281 7 6.8438 7 21.594 0 14.641-7 21.453t-22.094 6.8125zm-9.8594 8.1094h20.266q21.188 0 31.094-8.8125 9.9219-8.8125 9.9219-27.562 0-18.859-9.9688-27.703-9.9531-8.8281-31.047-8.8281h-20.266z"/>
</defs>
<g transform="translate(327.14 252.27) rotate(86.948) scale(.08 -.08)">
<use xlink:href="#ae"/>
</g>
</g>
<path d="m359.45 200.44 2.9099 3.9253q1.4293 1.928 3.3573 0.49872l6.2198-4.6109q1.928-1.4293 0.49872-3.3573l-2.9099-3.9253q-1.4293-1.928-3.3573-0.49872l-6.2198 4.6109q-1.928 1.4293-0.49872 3.3573z" clip-path="url(#a)" fill="#fff" stroke="#fff"/>
<g clip-path="url(#a)">
<g transform="translate(362.72 198.02) rotate(53.449) scale(.08 -.08)">
<use xlink:href="#j"/>
</g>
</g>
<path d="m395.78 256.71 2.8932 4.1741q1.3672 1.9725 3.3397 0.6053l6.3634-4.4106q1.9725-1.3672 0.6053-3.3397l-2.8932-4.1741q-1.3672-1.9725-3.3397-0.6053l-6.3634 4.4106q-1.9725 1.3672-0.6053 3.3397z" clip-path="url(#a)" fill="#fff" stroke="#fff"/>
<g clip-path="url(#a)">
<defs>
<path id="an" d="m53.516 70.516v-9.625q-5.6094 2.6875-10.594 4-4.9844 1.3281-9.625 1.3281-8.0469 0-12.422-3.125t-4.375-8.8906q0-4.8438 2.9062-7.3125 2.9062-2.4531 11.016-3.9688l5.9531-1.2188q11.031-2.1094 16.281-7.4062t5.25-14.172q0-10.609-7.1094-16.078-7.0938-5.4688-20.812-5.4688-5.1719 0-11.016 1.1719-5.8281 1.1719-12.078 3.4688v10.156q6-3.3594 11.766-5.0781 5.7656-1.7031 11.328-1.7031 8.4375 0 13.031 3.3125 4.5938 3.3281 4.5938 9.4844 0 5.3594-3.2969 8.3906t-10.812 4.5469l-6.0156 1.1719q-11.031 2.1875-15.969 6.875-4.9219 4.6875-4.9219 13.047 0 9.6719 6.8125 15.234t18.766 5.5625q5.1406 0 10.453-0.9375 5.3281-0.92188 10.891-2.7656z"/>
</defs>
<g transform="translate(399.12 254.39) rotate(55.273) scale(.08 -.08)">
<use xlink:href="#an"/>
</g>
</g>
<path d="m666.91 261.17 3.2735-4.3855q1.4356-1.9233-0.48765-3.3589l-6.2046-4.6314q-1.9233-1.4356-3.3589 0.48765l-3.2735 4.3855q-1.4356 1.9233 0.48765 3.3589l6.2046 4.6314q1.9233 1.4356 3.3589-0.48765z" clip-path="url(#a)" fill="#fff" stroke="#fff"/>
<g clip-path="url(#a)">
<g transform="translate(663.66 258.74) rotate(-53.261) scale(.08 -.08)">
<use xlink:href="#w"/>
</g>
</g>
<path d="m692.27 260.2 2.1648-4.0602q1.1292-2.1178-0.98863-3.2469l-6.8321-3.6427q-2.1178-1.1292-3.2469 0.98863l-2.1648 4.0602q-1.1292 2.1178 0.98863 3.2469l6.8321 3.6427q2.1178 1.1292 3.2469-0.98863z" clip-path="url(#a)" fill="#fff" stroke="#fff"/>
<g clip-path="url(#a)">
<g transform="translate(688.68 258.29) rotate(-61.934) scale(.08 -.08)">
<use xlink:href="#ad"/>
</g>
</g>
<path d="m728.96 203.63 2.1346-5.039q0.93615-2.2099-1.2737-3.146l-7.1292-3.02q-2.2099-0.93615-3.146 1.2737l-2.1346 5.039q-0.93615 2.2099 1.2737 3.146l7.1292 3.02q2.2099 0.93615 3.146-1.2737z" clip-path="url(#a)" fill="#fff" stroke="#fff"/>
<g clip-path="url(#a)">
<g transform="translate(725.22 202.05) rotate(-67.042) scale(.08 -.08)">
<use xlink:href="#w"/>
</g>
</g>
<path d="m765.86 198.28 2.4028 5.6721q0.93615 2.2099 3.146 1.2737l7.1292-3.02q2.2099-0.93615 1.2737-3.146l-2.4028-5.6721q-0.93615-2.2099-3.146-1.2737l-7.1292 3.02q-2.2099 0.93615-1.2737 3.146z" clip-path="url(#a)" fill="#fff" stroke="#fff"/>
<g clip-path="url(#a)">
<g transform="translate(769.61 196.69) rotate(67.042) scale(.08 -.08)">
<use xlink:href="#ae"/>
</g>
</g>
<path d="m802.61 256.05 2.2695 4.2565q1.1292 2.1178 3.2469 0.98863l6.8321-3.6427q2.1178-1.1292 0.98863-3.2469l-2.2695-4.2565q-1.1292-2.1178-3.2469-0.98863l-6.8321 3.6427q-2.1178 1.1292-0.98863 3.2469z" clip-path="url(#a)" fill="#fff" stroke="#fff"/>
<g clip-path="url(#a)">
<defs>
<path id="ap" d="m19.672 64.797v-27.391h12.406q6.8906 0 10.641 3.5625 3.7656 3.5625 3.7656 10.156 0 6.5469-3.7656 10.109-3.75 3.5625-10.641 3.5625zm-9.8594 8.1094h22.266q12.266 0 18.531-5.5469 6.2812-5.5469 6.2812-16.234 0-10.797-6.2812-16.312-6.2656-5.5156-18.531-5.5156h-12.406v-29.297h-9.8594z"/>
</defs>
<g transform="translate(806.2 254.13) rotate(61.934) scale(.08 -.08)">
<use xlink:href="#ap"/>
</g>
</g>
<path d="m826.79 256.63 3.5023 4.692q1.4356 1.9233 3.3589 0.48765l6.2046-4.6314q1.9233-1.4356 0.48765-3.3589l-3.5023-4.692q-1.4356-1.9233-3.3589-0.48765l-6.2046 4.6314q-1.9233 1.4356-0.48765 3.3589z" clip-path="url(#a)" fill="#fff" stroke="#fff"/>
<g clip-path="url(#a)">
<g transform="translate(830.05 254.2) rotate(53.261) scale(.08 -.08)">
<use xlink:href="#s"/>
</g>
</g>
<path d="m572.23 408.04v35.285q0 2.4 2.4 2.4h7.7425q2.4 0 2.4-2.4v-35.285q0-2.4-2.4-2.4h-7.7425q-2.4 0-2.4 2.4z" clip-path="url(#a)" fill="#fff" stroke="#fff"/>
<g clip-path="url(#a)">
<g transform="translate(576.29 408.04) rotate(90) scale(.08 -.08)">
<use xlink:href="#j"/>
<use x="60.818359" xlink:href="#d"/>
<use x="122.341797" xlink:href="#i"/>
<use x="163.439453" xlink:href="#l"/>
<use x="260.851562" xlink:href="#f"/>
<use x="288.634766" xlink:href="#h"/>
<use x="352.013672" xlink:href="#g"/>
<use x="413.292969" xlink:href="#k"/>
</g>
</g>
<path d="m620.82 408.04v35.285q0 2.4 2.4 2.4h7.7425q2.4 0 2.4-2.4v-35.285q0-2.4-2.4-2.4h-7.7425q-2.4 0-2.4 2.4z" clip-path="url(#a)" fill="#fff" stroke="#fff"/>
<g clip-path="url(#a)">
<g transform="translate(624.88 408.04) rotate(90) scale(.08 -.08)">
<use xlink:href="#j"/>
<use x="60.818359" xlink:href="#d"/>
<use x="122.341797" xlink:href="#i"/>
<use x="163.439453" xlink:href="#l"/>
<use x="260.851562" xlink:href="#f"/>
<use x="288.634766" xlink:href="#h"/>
<use x="352.013672" xlink:href="#g"/>
<use x="413.292969" xlink:href="#k"/>
</g>
</g>
<path d="m693.42 316.36 1.0614-4.9423q0.50392-2.3465-1.8426-2.8504l-7.5699-1.6257q-2.3465-0.50392-2.8504 1.8426l-1.0614 4.9423q-0.50392 2.3465 1.8426 2.8504l7.5699 1.6257q2.3465 0.50392 2.8504-1.8426z" clip-path="url(#a)" fill="#fff" stroke="#fff"/>
<g clip-path="url(#a)">
<g transform="translate(689.45 315.5) rotate(-77.88) scale(.08 -.08)">
<use xlink:href="#v"/>
</g>
</g>
<path d="m705.39 311.16 1.1729 5.4617q0.50392 2.3465 2.8504 1.8426l7.5699-1.6257q2.3465-0.50392 1.8426-2.8504l-1.1729-5.4617q-0.50392-2.3465-2.8504-1.8426l-7.5699 1.6257q-2.3465 0.50392-1.8426 2.8504z" clip-path="url(#a)" fill="#fff" stroke="#fff"/>
<g clip-path="url(#a)">
<g transform="translate(709.37 310.3) rotate(77.88) scale(.08 -.08)">
<use xlink:href="#r"/>
</g>
</g>
<path d="m790.59 316.36 1.0614-4.9423q0.50392-2.3465-1.8426-2.8504l-7.5699-1.6257q-2.3465-0.50392-2.8504 1.8426l-1.0614 4.9423q-0.50392 2.3465 1.8426 2.8504l7.5699 1.6257q2.3465 0.50392 2.8504-1.8426z" clip-path="url(#a)" fill="#fff" stroke="#fff"/>
<g clip-path="url(#a)">
<g transform="translate(786.61 315.5) rotate(-77.88) scale(.08 -.08)">
<use xlink:href="#v"/>
</g>
</g>
<path d="m802.56 311.16 1.1729 5.4617q0.50392 2.3465 2.8504 1.8426l7.5699-1.6257q2.3465-0.50392 1.8426-2.8504l-1.1729-5.4617q-0.50392-2.3465-2.8504-1.8426l-7.5699 1.6257q-2.3465 0.50392-1.8426 2.8504z" clip-path="url(#a)" fill="#fff" stroke="#fff"/>
<g clip-path="url(#a)">
<g transform="translate(806.53 310.3) rotate(77.88) scale(.08 -.08)">
<use xlink:href="#r"/>
</g>
</g>
<path d="m863.74 408.04v35.285q0 2.4 2.4 2.4h7.7425q2.4 0 2.4-2.4v-35.285q0-2.4-2.4-2.4h-7.7425q-2.4 0-2.4 2.4z" clip-path="url(#a)" fill="#fff" stroke="#fff"/>
<g clip-path="url(#a)">
<g transform="translate(867.8 408.04) rotate(90) scale(.08 -.08)">
<use xlink:href="#j"/>
<use x="60.818359" xlink:href="#d"/>
<use x="122.341797" xlink:href="#i"/>
<use x="163.439453" xlink:href="#l"/>
<use x="260.851562" xlink:href="#f"/>
<use x="288.634766" xlink:href="#h"/>
<use x="352.013672" xlink:href="#g"/>
<use x="413.292969" xlink:href="#k"/>
</g>
</g>
<path d="m766.57 408.04v35.285q0 2.4 2.4 2.4h7.7425q2.4 0 2.4-2.4v-35.285q0-2.4-2.4-2.4h-7.7425q-2.4 0-2.4 2.4z" clip-path="url(#a)" fill="#fff" stroke="#fff"/>
<g clip-path="url(#a)">
<g transform="translate(770.63 408.04) rotate(90) scale(.08 -.08)">
<use xlink:href="#j"/>
<use x="60.818359" xlink:href="#d"/>
<use x="122.341797" xlink:href="#i"/>
<use x="163.439453" xlink:href="#l"/>
<use x="260.851562" xlink:href="#f"/>
<use x="288.634766" xlink:href="#h"/>
<use x="352.013672" xlink:href="#g"/>
<use x="413.292969" xlink:href="#k"/>
</g>
</g>
<path d="m815.15 408.04v35.285q0 2.4 2.4 2.4h7.7425q2.4 0 2.4-2.4v-35.285q0-2.4-2.4-2.4h-7.7425q-2.4 0-2.4 2.4z" clip-path="url(#a)" fill="#fff" stroke="#fff"/>
<g clip-path="url(#a)">
<g transform="translate(819.22 408.04) rotate(90) scale(.08 -.08)">
<use xlink:href="#j"/>
<use x="60.818359" xlink:href="#d"/>
<use x="122.341797" xlink:href="#i"/>
<use x="163.439453" xlink:href="#l"/>
<use x="260.851562" xlink:href="#f"/>
<use x="288.634766" xlink:href="#h"/>
<use x="352.013672" xlink:href="#g"/>
<use x="413.292969" xlink:href="#k"/>
</g>
</g>
<path d="m669.4 408.04v35.285q0 2.4 2.4 2.4h7.7425q2.4 0 2.4-2.4v-35.285q0-2.4-2.4-2.4h-7.7425q-2.4 0-2.4 2.4z" clip-path="url(#a)" fill="#fff" stroke="#fff"/>
<g clip-path="url(#a)">
<g transform="translate(673.46 408.04) rotate(90) scale(.08 -.08)">
<use xlink:href="#j"/>
<use x="60.818359" xlink:href="#d"/>
<use x="122.341797" xlink:href="#i"/>
<use x="163.439453" xlink:href="#l"/>
<use x="260.851562" xlink:href="#f"/>
<use x="288.634766" xlink:href="#h"/>
<use x="352.013672" xlink:href="#g"/>
<use x="413.292969" xlink:href="#k"/>
</g>
</g>
<path d="m717.98 408.04v35.285q0 2.4 2.4 2.4h7.7425q2.4 0 2.4-2.4v-35.285q0-2.4-2.4-2.4h-7.7425q-2.4 0-2.4 2.4z" clip-path="url(#a)" fill="#fff" stroke="#fff"/>
<g clip-path="url(#a)">
<g transform="translate(722.05 408.04) rotate(90) scale(.08 -.08)">
<use xlink:href="#j"/>
<use x="60.818359" xlink:href="#d"/>
<use x="122.341797" xlink:href="#i"/>
<use x="163.439453" xlink:href="#l"/>
<use x="260.851562" xlink:href="#f"/>
<use x="288.634766" xlink:href="#h"/>
<use x="352.013672" xlink:href="#g"/>
<use x="413.292969" xlink:href="#k"/>
</g>
</g>
<path d="m183.55 408.04v35.285q0 2.4 2.4 2.4h7.7425q2.4 0 2.4-2.4v-35.285q0-2.4-2.4-2.4h-7.7425q-2.4 0-2.4 2.4z" clip-path="url(#a)" fill="#fff" stroke="#fff"/>
<g clip-path="url(#a)">
<g transform="translate(187.62 408.04) rotate(90) scale(.08 -.08)">
<use xlink:href="#j"/>
<use x="60.818359" xlink:href="#d"/>
<use x="122.341797" xlink:href="#i"/>
<use x="163.439453" xlink:href="#l"/>
<use x="260.851562" xlink:href="#f"/>
<use x="288.634766" xlink:href="#h"/>
<use x="352.013672" xlink:href="#g"/>
<use x="413.292969" xlink:href="#k"/>
</g>
</g>
<path d="m232.14 408.04v35.285q0 2.4 2.4 2.4h7.7425q2.4 0 2.4-2.4v-35.285q0-2.4-2.4-2.4h-7.7425q-2.4 0-2.4 2.4z" clip-path="url(#a)" fill="#fff" stroke="#fff"/>
<g clip-path="url(#a)">
<g transform="translate(236.2 408.04) rotate(90) scale(.08 -.08)">
<use xlink:href="#j"/>
<use x="60.818359" xlink:href="#d"/>
<use x="122.341797" xlink:href="#i"/>
<use x="163.439453" xlink:href="#l"/>
<use x="260.851562" xlink:href="#f"/>
<use x="288.634766" xlink:href="#h"/>
<use x="352.013672" xlink:href="#g"/>
<use x="413.292969" xlink:href="#k"/>
</g>
</g>
<path d="m280.72 408.04v35.285q0 2.4 2.4 2.4h7.7425q2.4 0 2.4-2.4v-35.285q0-2.4-2.4-2.4h-7.7425q-2.4 0-2.4 2.4z" clip-path="url(#a)" fill="#fff" stroke="#fff"/>
<g clip-path="url(#a)">
<g transform="translate(284.79 408.04) rotate(90) scale(.08 -.08)">
<use xlink:href="#j"/>
<use x="60.818359" xlink:href="#d"/>
<use x="122.341797" xlink:href="#i"/>
<use x="163.439453" xlink:href="#l"/>
<use x="260.851562" xlink:href="#f"/>
<use x="288.634766" xlink:href="#h"/>
<use x="352.013672" xlink:href="#g"/>
<use x="413.292969" xlink:href="#k"/>
</g>
</g>
<path d="m329.31 408.04v35.285q0 2.4 2.4 2.4h7.7425q2.4 0 2.4-2.4v-35.285q0-2.4-2.4-2.4h-7.7425q-2.4 0-2.4 2.4z" clip-path="url(#a)" fill="#fff" stroke="#fff"/>
<g clip-path="url(#a)">
<g transform="translate(333.37 408.04) rotate(90) scale(.08 -.08)">
<use xlink:href="#j"/>
<use x="60.818359" xlink:href="#d"/>
<use x="122.341797" xlink:href="#i"/>
<use x="163.439453" xlink:href="#l"/>
<use x="260.851562" xlink:href="#f"/>
<use x="288.634766" xlink:href="#h"/>
<use x="352.013672" xlink:href="#g"/>
<use x="413.292969" xlink:href="#k"/>
</g>
</g>
<path d="m401.78 316.96 1.3223-6.1571q0.50392-2.3465-1.8426-2.8504l-7.5699-1.6257q-2.3465-0.50392-2.8504 1.8426l-1.3223 6.1571q-0.50392 2.3465 1.8426 2.8504l7.5699 1.6257q2.3465 0.50392 2.8504-1.8426z" clip-path="url(#a)" fill="#fff" stroke="#fff"/>
<g clip-path="url(#a)">
<defs>
<path id="ao" d="m39.406 66.219q-10.75 0-17.078-8.0156-6.3125-8-6.3125-21.828 0-13.766 6.3125-21.781 6.3281-8 17.078-8 10.734 0 17.016 8 6.2812 8.0156 6.2812 21.781 0 13.828-6.2812 21.828-6.2812 8.0156-17.016 8.0156zm13.812-64.906 13-14.203h-11.922l-10.797 11.672q-1.6094-0.09375-2.4688-0.14062-0.84375-0.0625-1.625-0.0625-15.375 0-24.594 10.281-9.2031 10.281-9.2031 27.516 0 17.281 9.2031 27.562 9.2188 10.281 24.594 10.281 15.328 0 24.5-10.281 9.1875-10.281 9.1875-27.562 0-12.688-5.1094-21.734-5.0938-9.0312-14.766-13.328z"/>
</defs>
<g transform="translate(397.81 316.11) rotate(-77.88) scale(.08 -.08)">
<use xlink:href="#ao"/>
</g>
</g>
<path d="m413.88 311.16 1.1729 5.4617q0.50392 2.3465 2.8504 1.8426l7.5699-1.6257q2.3465-0.50392 1.8426-2.8504l-1.1729-5.4617q-0.50392-2.3465-2.8504-1.8426l-7.5699 1.6257q-2.3465 0.50392-1.8426 2.8504z" clip-path="url(#a)" fill="#fff" stroke="#fff"/>
<g clip-path="url(#a)">
<g transform="translate(417.86 310.3) rotate(77.88) scale(.08 -.08)">
<use xlink:href="#r"/>
</g>
</g>
<path d="m475.06 408.04v35.285q0 2.4 2.4 2.4h7.7425q2.4 0 2.4-2.4v-35.285q0-2.4-2.4-2.4h-7.7425q-2.4 0-2.4 2.4z" clip-path="url(#a)" fill="#fff" stroke="#fff"/>
<g clip-path="url(#a)">
<g transform="translate(479.13 408.04) rotate(90) scale(.08 -.08)">
<use xlink:href="#j"/>
<use x="60.818359" xlink:href="#d"/>
<use x="122.341797" xlink:href="#i"/>
<use x="163.439453" xlink:href="#l"/>
<use x="260.851562" xlink:href="#f"/>
<use x="288.634766" xlink:href="#h"/>
<use x="352.013672" xlink:href="#g"/>
<use x="413.292969" xlink:href="#k"/>
</g>
</g>
<path d="m377.89 408.04v35.285q0 2.4 2.4 2.4h7.7425q2.4 0 2.4-2.4v-35.285q0-2.4-2.4-2.4h-7.7425q-2.4 0-2.4 2.4z" clip-path="url(#a)" fill="#fff" stroke="#fff"/>
<g clip-path="url(#a)">
<g transform="translate(381.96 408.04) rotate(90) scale(.08 -.08)">
<use xlink:href="#j"/>
<use x="60.818359" xlink:href="#d"/>
<use x="122.341797" xlink:href="#i"/>
<use x="163.439453" xlink:href="#l"/>
<use x="260.851562" xlink:href="#f"/>
<use x="288.634766" xlink:href="#h"/>
<use x="352.013672" xlink:href="#g"/>
<use x="413.292969" xlink:href="#k"/>
</g>
</g>
<path d="m426.48 408.04v35.285q0 2.4 2.4 2.4h7.7425q2.4 0 2.4-2.4v-35.285q0-2.4-2.4-2.4h-7.7425q-2.4 0-2.4 2.4z" clip-path="url(#a)" fill="#fff" stroke="#fff"/>
<g clip-path="url(#a)">
<g transform="translate(430.54 408.04) rotate(90) scale(.08 -.08)">
<use xlink:href="#j"/>
<use x="60.818359" xlink:href="#d"/>
<use x="122.341797" xlink:href="#i"/>
<use x="163.439453" xlink:href="#l"/>
<use x="260.851562" xlink:href="#f"/>
<use x="288.634766" xlink:href="#h"/>
<use x="352.013672" xlink:href="#g"/>
<use x="413.292969" xlink:href="#k"/>
</g>
</g>
<path d="m37.801 408.04v35.285q0 2.4 2.4 2.4h7.7425q2.4 0 2.4-2.4v-35.285q0-2.4-2.4-2.4h-7.7425q-2.4 0-2.4 2.4z" clip-path="url(#a)" fill="#fff" stroke="#fff"/>
<g clip-path="url(#a)">
<g transform="translate(41.865 408.04) rotate(90) scale(.08 -.08)">
<use xlink:href="#j"/>
<use x="60.818359" xlink:href="#d"/>
<use x="122.341797" xlink:href="#i"/>
<use x="163.439453" xlink:href="#l"/>
<use x="260.851562" xlink:href="#f"/>
<use x="288.634766" xlink:href="#h"/>
<use x="352.013672" xlink:href="#g"/>
<use x="413.292969" xlink:href="#k"/>
</g>
</g>
<path d="m86.386 408.04v35.285q0 2.4 2.4 2.4h7.7425q2.4 0 2.4-2.4v-35.285q0-2.4-2.4-2.4h-7.7425q-2.4 0-2.4 2.4z" clip-path="url(#a)" fill="#fff" stroke="#fff"/>
<g clip-path="url(#a)">
<g transform="translate(90.449 408.04) rotate(90) scale(.08 -.08)">
<use xlink:href="#j"/>
<use x="60.818359" xlink:href="#d"/>
<use x="122.341797" xlink:href="#i"/>
<use x="163.439453" xlink:href="#l"/>
<use x="260.851562" xlink:href="#f"/>
<use x="288.634766" xlink:href="#h"/>
<use x="352.013672" xlink:href="#g"/>
<use x="413.292969" xlink:href="#k"/>
</g>
</g>
<path d="m523.65 408.04v35.285q0 2.4 2.4 2.4h7.7425q2.4 0 2.4-2.4v-35.285q0-2.4-2.4-2.4h-7.7425q-2.4 0-2.4 2.4z" clip-path="url(#a)" fill="#fff" stroke="#fff"/>
<g clip-path="url(#a)">
<g transform="translate(527.71 408.04) rotate(90) scale(.08 -.08)">
<use xlink:href="#j"/>
<use x="60.818359" xlink:href="#d"/>
<use x="122.341797" xlink:href="#i"/>
<use x="163.439453" xlink:href="#l"/>
<use x="260.851562" xlink:href="#f"/>
<use x="288.634766" xlink:href="#h"/>
<use x="352.013672" xlink:href="#g"/>
<use x="413.292969" xlink:href="#k"/>
</g>
</g>
<path d="m912.32 408.04v35.285q0 2.4 2.4 2.4h7.7425q2.4 0 2.4-2.4v-35.285q0-2.4-2.4-2.4h-7.7425q-2.4 0-2.4 2.4z" clip-path="url(#a)" fill="#fff" stroke="#fff"/>
<g clip-path="url(#a)">
<g transform="translate(916.39 408.04) rotate(90) scale(.08 -.08)">
<use xlink:href="#j"/>
<use x="60.818359" xlink:href="#d"/>
<use x="122.341797" xlink:href="#i"/>
<use x="163.439453" xlink:href="#l"/>
<use x="260.851562" xlink:href="#f"/>
<use x="288.634766" xlink:href="#h"/>
<use x="352.013672" xlink:href="#g"/>
<use x="413.292969" xlink:href="#k"/>
</g>
</g>
<defs>
<path id="b" d="m0 8.6603c2.2967 0 4.4997-0.9125 6.1237-2.5365 1.624-1.624 2.5365-3.827 2.5365-6.1237s-0.9125-4.4997-2.5365-6.1237c-1.624-1.624-3.827-2.5365-6.1237-2.5365s-4.4997 0.9125-6.1237 2.5365c-1.624 1.624-2.5365 3.827-2.5365 6.1237s0.9125 4.4997 2.5365 6.1237c1.624 1.624 3.827 2.5365 6.1237 2.5365z"/>
</defs>
<g clip-path="url(#a)">
<use x="44.072268" y="482.244275" fill="#ffffff" stroke="#ffffff" xlink:href="#b"/>
</g>
<g clip-path="url(#a)">
<use x="92.65683" y="482.244275" fill="#ffffff" stroke="#ffffff" xlink:href="#b"/>
</g>
<g clip-path="url(#a)">
<use x="141.241393" y="482.244275" fill="#ffffff" stroke="#ffffff" xlink:href="#b"/>
</g>
<g clip-path="url(#a)">
<use x="189.825956" y="482.244275" fill="#ffffff" stroke="#ffffff" xlink:href="#b"/>
</g>
<g clip-path="url(#a)">
<use x="238.410519" y="482.244275" fill="#ffffff" stroke="#ffffff" xlink:href="#b"/>
</g>
<g clip-path="url(#a)">
<use x="286.995082" y="482.244275" fill="#ffffff" stroke="#ffffff" xlink:href="#b"/>
</g>
<g clip-path="url(#a)">
<use x="335.579645" y="482.244275" fill="#ffffff" stroke="#ffffff" xlink:href="#b"/>
</g>
<g clip-path="url(#a)">
<use x="384.164208" y="482.244275" fill="#ffffff" stroke="#ffffff" xlink:href="#b"/>
</g>
<g clip-path="url(#a)">
<use x="432.74877" y="482.244275" fill="#ffffff" stroke="#ffffff" xlink:href="#b"/>
</g>
<g clip-path="url(#a)">
<use x="481.333333" y="482.244275" fill="#ffffff" stroke="#ffffff" xlink:href="#b"/>
</g>
<g clip-path="url(#a)">
<use x="529.917896" y="482.244275" fill="#ffffff" stroke="#ffffff" xlink:href="#b"/>
</g>
<g clip-path="url(#a)">
<use x="578.502459" y="482.244275" fill="#ffffff" stroke="#ffffff" xlink:href="#b"/>
</g>
<g clip-path="url(#a)">
<use x="627.087022" y="482.244275" fill="#ffffff" stroke="#ffffff" xlink:href="#b"/>
</g>
<g clip-path="url(#a)">
<use x="675.671585" y="482.244275" fill="#ffffff" stroke="#ffffff" xlink:href="#b"/>
</g>
<g clip-path="url(#a)">
<use x="724.256148" y="482.244275" fill="#ffffff" stroke="#ffffff" xlink:href="#b"/>
</g>
<g clip-path="url(#a)">
<use x="772.84071" y="482.244275" fill="#ffffff" stroke="#ffffff" xlink:href="#b"/>
</g>
<g clip-path="url(#a)">
<use x="821.425273" y="482.244275" fill="#ffffff" stroke="#ffffff" xlink:href="#b"/>
</g>
<g clip-path="url(#a)">
<use x="870.009836" y="482.244275" fill="#ffffff" stroke="#ffffff" xlink:href="#b"/>
</g>
<g clip-path="url(#a)">
<use x="918.594399" y="482.244275" fill="#ffffff" stroke="#ffffff" xlink:href="#b"/>
</g>
<g clip-path="url(#a)">
<use x="362.301154" y="24.422392" fill="#ffffff" stroke="#ffffff" xlink:href="#b"/>
</g>
<g clip-path="url(#a)">
<use x="68.364549" y="256.011132" fill="#ffffff" stroke="#ffffff" xlink:href="#b"/>
</g>
<g clip-path="url(#a)">
<use x="141.241393" y="369.127703" fill="#ffffff" stroke="#ffffff" xlink:href="#b"/>
</g>
<g clip-path="url(#a)">
<use x="323.433504" y="141.320985" fill="#ffffff" stroke="#ffffff" xlink:href="#b"/>
</g>
<g clip-path="url(#a)">
<use x="748.548429" y="141.320985" fill="#ffffff" stroke="#ffffff" xlink:href="#b"/>
</g>
<g clip-path="url(#a)">
<use x="578.502459" y="369.127703" fill="#ffffff" stroke="#ffffff" xlink:href="#b"/>
</g>
<g clip-path="url(#a)">
<use x="627.087022" y="369.127703" fill="#ffffff" stroke="#ffffff" xlink:href="#b"/>
</g>
<g clip-path="url(#a)">
<use x="699.963866" y="256.011132" fill="#ffffff" stroke="#ffffff" xlink:href="#b"/>
</g>
<g clip-path="url(#a)">
<use x="797.132992" y="256.011132" fill="#ffffff" stroke="#ffffff" xlink:href="#b"/>
</g>
<g clip-path="url(#a)">
<use x="870.009836" y="369.127703" fill="#ffffff" stroke="#ffffff" xlink:href="#b"/>
</g>
<g clip-path="url(#a)">
<use x="772.84071" y="369.127703" fill="#ffffff" stroke="#ffffff" xlink:href="#b"/>
</g>
<g clip-path="url(#a)">
<use x="821.425273" y="369.127703" fill="#ffffff" stroke="#ffffff" xlink:href="#b"/>
</g>
<g clip-path="url(#a)">
<use x="675.671585" y="369.127703" fill="#ffffff" stroke="#ffffff" xlink:href="#b"/>
</g>
<g clip-path="url(#a)">
<use x="724.256148" y="369.127703" fill="#ffffff" stroke="#ffffff" xlink:href="#b"/>
</g>
<g clip-path="url(#a)">
<use x="189.825956" y="369.127703" fill="#ffffff" stroke="#ffffff" xlink:href="#b"/>
</g>
<g clip-path="url(#a)">
<use x="238.410519" y="369.127703" fill="#ffffff" stroke="#ffffff" xlink:href="#b"/>
</g>
<g clip-path="url(#a)">
<use x="286.995082" y="369.127703" fill="#ffffff" stroke="#ffffff" xlink:href="#b"/>
</g>
<g clip-path="url(#a)">
<use x="335.579645" y="369.127703" fill="#ffffff" stroke="#ffffff" xlink:href="#b"/>
</g>
<g clip-path="url(#a)">
<use x="408.456489" y="256.011132" fill="#ffffff" stroke="#ffffff" xlink:href="#b"/>
</g>
<g clip-path="url(#a)">
<use x="481.333333" y="369.127703" fill="#ffffff" stroke="#ffffff" xlink:href="#b"/>
</g>
<g clip-path="url(#a)">
<use x="384.164208" y="369.127703" fill="#ffffff" stroke="#ffffff" xlink:href="#b"/>
</g>
<g clip-path="url(#a)">
<use x="432.74877" y="369.127703" fill="#ffffff" stroke="#ffffff" xlink:href="#b"/>
</g>
<g clip-path="url(#a)">
<use x="44.072268" y="369.127703" fill="#ffffff" stroke="#ffffff" xlink:href="#b"/>
</g>
<g clip-path="url(#a)">
<use x="92.65683" y="369.127703" fill="#ffffff" stroke="#ffffff" xlink:href="#b"/>
</g>
<g clip-path="url(#a)">
<use x="529.917896" y="369.127703" fill="#ffffff" stroke="#ffffff" xlink:href="#b"/>
</g>
<g clip-path="url(#a)">
<use x="918.594399" y="369.127703" fill="#ffffff" stroke="#ffffff" xlink:href="#b"/>
</g>
<g clip-path="url(#a)">
<defs>
<path id="ar" d="m9.8125 72.906h9.8594v-30.812l32.719 30.812h12.703l-36.188-33.984 38.766-38.922h-12.984l-35.016 35.109v-35.109h-9.8594z"/>
<path id="av" d="m18.109 8.2031v-29h-9.0312v75.484h9.0312v-8.2969q2.8438 4.875 7.1562 7.2344 4.3281 2.375 10.328 2.375 9.9688 0 16.188-7.9062 6.2344-7.9062 6.2344-20.797t-6.2344-20.812q-6.2188-7.9062-16.188-7.9062-6 0-10.328 2.375-4.3125 2.375-7.1562 7.25zm30.578 19.094q0 9.9062-4.0781 15.547t-11.203 5.6406q-7.1406 0-11.219-5.6406t-4.0781-15.547 4.0781-15.547 11.219-5.6406q7.125 0 11.203 5.6406t4.0781 15.547z"/>
<path id="q" d="m18.312 70.219v-15.531h18.5v-6.9844h-18.5v-29.688q0-6.6875 1.8281-8.5938t7.4531-1.9062h9.2188v-7.5156h-9.2188q-10.406 0-14.359 3.875-3.9531 3.8906-3.9531 14.141v29.688h-6.5938v6.9844h6.5938v15.531z"/>
</defs>
<g transform="translate(26.741 485) scale(.1 -.1)">
<use xlink:href="#ar"/>
<use x="65.560547" xlink:href="#g"/>
<use x="126.839844" xlink:href="#av"/>
<use x="190.316406" xlink:href="#f"/>
<use x="218.099609" xlink:href="#q"/>
<use x="257.308594" xlink:href="#d"/>
<use x="318.832031" xlink:href="#k"/>
</g>
</g>
<g clip-path="url(#a)">
<defs>
<path id="ac" d="m6.2969 72.906h10.594l18.125-27.109 18.203 27.109h10.594l-23.438-35.016 25-37.891h-10.594l-20.5 31-20.656-31h-10.641l26.016 38.922z"/>
<path id="am" d="m28.609 0-27.828 72.906h10.297l23.109-61.375 23.141 61.375h10.25l-27.781-72.906z"/>
<path id="t" d="m9.8125 72.906h9.8594v-72.906h-9.8594z"/>
</defs>
<g transform="translate(79.437 485) scale(.1 -.1)">
<use xlink:href="#ac"/>
<use x="68.505859" xlink:href="#ac"/>
<use x="137.011719" xlink:href="#am"/>
<use x="205.419922" xlink:href="#t"/>
<use x="234.912109" xlink:href="#t"/>
</g>
</g>
<g clip-path="url(#a)">
<defs>
<path id="ab" d="m45.406 46.391v29.594h8.9844v-75.984h-8.9844v8.2031q-2.8281-4.875-7.1562-7.25-4.3125-2.375-10.375-2.375-9.9062 0-16.141 7.9062-6.2188 7.9219-6.2188 20.812t6.2188 20.797q6.2344 7.9062 16.141 7.9062 6.0625 0 10.375-2.375 4.3281-2.3594 7.1562-7.2344zm-30.609-19.094q0-9.9062 4.0781-15.547t11.203-5.6406 11.219 5.6406q4.1094 5.6406 4.1094 15.547t-4.1094 15.547q-4.0938 5.6406-11.219 5.6406t-11.203-5.6406-4.0781-15.547z"/>
</defs>
<g transform="translate(131.24 485) scale(.1 -.1)">
<use xlink:href="#s"/>
<use x="73.193359" xlink:href="#h"/>
<use x="136.572266" xlink:href="#ab"/>
</g>
</g>
<g clip-path="url(#a)">
<defs>
<path id="aw" d="m9.4219 54.688h8.9844v-55.672q0-10.438-3.9844-15.125-3.9688-4.6875-12.812-4.6875h-3.4219v7.6094h2.4062q5.125 0 6.9688 2.375 1.8594 2.3594 1.8594 9.8281zm0 21.297h8.9844v-11.391h-8.9844z"/>
<path id="aj" d="m5.5156 54.688h42.672v-8.2031l-33.781-39.312h33.781v-7.1719h-43.891v8.2031l33.797 39.312h-32.578z"/>
</defs>
<g transform="translate(178.82 485) scale(.1 -.1)">
<use xlink:href="#aw"/>
<use x="27.783203" xlink:href="#d"/>
<use x="89.306641" xlink:href="#q"/>
<use x="128.515625" xlink:href="#aj"/>
<use x="181.005859" xlink:href="#q"/>
</g>
</g>
<g clip-path="url(#a)">
<defs>
<path id="o" d="m44.281 53.078v-8.5q-3.7969 1.9531-7.9062 2.9219-4.0938 0.98438-8.5 0.98438-6.6875 0-10.031-2.0469t-3.3438-6.1562q0-3.125 2.3906-4.9062t9.625-3.3906l3.0781-0.6875q9.5625-2.0469 13.594-5.7812t4.0312-10.422q0-7.625-6.0312-12.078-6.0312-4.4375-16.578-4.4375-4.3906 0-9.1562 0.85938t-10.031 2.5625v9.2812q4.9844-2.5938 9.8125-3.8906 4.8281-1.2812 9.5781-1.2812 6.3438 0 9.75 2.1719 3.4219 2.1719 3.4219 6.125 0 3.6562-2.4688 5.6094-2.4531 1.9531-10.812 3.7656l-3.125 0.73438q-8.3438 1.75-12.062 5.3906-3.7031 3.6406-3.7031 9.9844 0 7.7188 5.4688 11.906 5.4688 4.2031 15.531 4.2031 4.9688 0 9.3594-0.73438 4.4062-0.71875 8.1094-2.1875z"/>
</defs>
<g transform="translate(232.46 485) scale(.1 -.1)">
<use xlink:href="#f"/>
<use x="27.783203" xlink:href="#o"/>
<use x="79.882812" xlink:href="#q"/>
</g>
</g>
<g clip-path="url(#a)">
<g transform="translate(278.15 485) scale(.1 -.1)">
<use xlink:href="#ab"/>
<use x="63.476562" xlink:href="#g"/>
<use x="124.755859" xlink:href="#o"/>
</g>
</g>
<g clip-path="url(#a)">
<defs>
<path id="p" d="m48.781 52.594v-8.4062q-3.8125 2.1094-7.6406 3.1562t-7.7344 1.0469q-8.75 0-13.594-5.5469-4.8281-5.5312-4.8281-15.547t4.8281-15.562q4.8438-5.5312 13.594-5.5312 3.9062 0 7.7344 1.0469t7.6406 3.1562v-8.3125q-3.7656-1.75-7.7969-2.625-4.0156-0.89062-8.5625-0.89062-12.359 0-19.641 7.7656-7.2656 7.7656-7.2656 20.953 0 13.375 7.3438 21.031 7.3594 7.6719 20.156 7.6719 4.1406 0 8.0938-0.85938 3.9531-0.84375 7.6719-2.5469z"/>
<path id="n" d="m54.891 33.016v-33.016h-8.9844v32.719q0 7.7656-3.0312 11.609-3.0312 3.8594-9.0781 3.8594-7.2812 0-11.484-4.6406-4.2031-4.625-4.2031-12.641v-30.906h-9.0312v75.984h9.0312v-29.797q3.2344 4.9375 7.5938 7.375 4.375 2.4375 10.094 2.4375 9.4219 0 14.25-5.8281 4.8438-5.8281 4.8438-17.156z"/>
<path id="ak" d="m30.609 48.391q-7.2188 0-11.422-5.6406t-4.2031-15.453 4.1719-15.453q4.1875-5.6406 11.453-5.6406 7.1875 0 11.375 5.6562 4.2031 5.6719 4.2031 15.438 0 9.7188-4.2031 15.406-4.1875 5.6875-11.375 5.6875zm0 7.6094q11.719 0 18.406-7.625 6.7031-7.6094 6.7031-21.078 0-13.422-6.7031-21.078-6.6875-7.6406-18.406-7.6406-11.766 0-18.438 7.6406-6.6562 7.6562-6.6562 21.078 0 13.469 6.6562 21.078 6.6719 7.625 18.438 7.625z"/>
</defs>
<g transform="translate(320.83 485) scale(.1 -.1)">
<use xlink:href="#o"/>
<use x="52.099609" xlink:href="#p"/>
<use x="107.080078" xlink:href="#n"/>
<use x="170.458984" xlink:href="#ak"/>
<use x="231.640625" xlink:href="#h"/>
</g>
</g>
<g clip-path="url(#a)">
<g transform="translate(369.96 485) scale(.1 -.1)">
<use xlink:href="#o"/>
<use x="52.099609" xlink:href="#d"/>
<use x="113.623047" xlink:href="#p"/>
<use x="168.603516" xlink:href="#n"/>
<use x="231.982422" xlink:href="#o"/>
</g>
</g>
<g clip-path="url(#a)">
<defs>
<path id="as" d="m9.8125 72.906h9.8594v-67.828q0-13.188-5-19.141t-16.094-5.9531h-3.75v8.2969h3.0781q6.5312 0 9.2188 3.6719 2.6875 3.6562 2.6875 13.125z"/>
</defs>
<g transform="translate(419.91 485) scale(.1 -.1)">
<use xlink:href="#as"/>
<use x="29.492188" xlink:href="#g"/>
<use x="90.771484" xlink:href="#n"/>
<use x="154.150391" xlink:href="#i"/>
<use x="195.232422" xlink:href="#d"/>
</g>
</g>
<g clip-path="url(#a)">
<g transform="translate(473.03 485) scale(.1 -.1)">
<use xlink:href="#n"/>
<use x="63.378906" xlink:href="#d"/>
<use x="124.902344" xlink:href="#i"/>
</g>
</g>
<g clip-path="url(#a)">
<defs>
<path id="e" d="m10.688 12.406h10.312v-12.406h-10.312z"/>
</defs>
<g transform="translate(525.15 485) scale(.1 -.1)">
<use xlink:href="#e"/>
<use x="31.787109" xlink:href="#e"/>
<use x="63.574219" xlink:href="#e"/>
</g>
</g>
<g clip-path="url(#a)">
<g transform="translate(571.11 485) scale(.1 -.1)">
<use xlink:href="#t"/>
<use x="29.492188" xlink:href="#p"/>
<use x="84.472656" xlink:href="#n"/>
</g>
</g>
<g clip-path="url(#a)">
<defs>
<path id="al" d="m48.688 27.297q0 9.9062-4.0781 15.547t-11.203 5.6406q-7.1406 0-11.219-5.6406t-4.0781-15.547 4.0781-15.547 11.219-5.6406q7.125 0 11.203 5.6406t4.0781 15.547zm-30.578 19.094q2.8438 4.875 7.1562 7.2344 4.3281 2.375 10.328 2.375 9.9688 0 16.188-7.9062 6.2344-7.9062 6.2344-20.797t-6.2344-20.812q-6.2188-7.9062-16.188-7.9062-6 0-10.328 2.375-4.3125 2.375-7.1562 7.25v-8.2031h-9.0312v75.984h9.0312z"/>
</defs>
<g transform="translate(614.6 485) scale(.1 -.1)">
<use xlink:href="#n"/>
<use x="63.378906" xlink:href="#g"/>
<use x="124.658203" xlink:href="#al"/>
<use x="188.134766" xlink:href="#d"/>
</g>
</g>
<g clip-path="url(#a)">
<g transform="translate(662.35 485) scale(.1 -.1)">
<use xlink:href="#ab"/>
<use x="63.476562" xlink:href="#f"/>
<use x="91.259766" xlink:href="#d"/>
<use x="152.783203" xlink:href="#o"/>
<use x="204.882812" xlink:href="#d"/>
</g>
</g>
<g clip-path="url(#a)">
<defs>
<path id="at" d="m59.516 10.406v19.578h-16.109v8.1094h25.875v-31.312q-5.7031-4.0469-12.594-6.125-6.875-2.0781-14.688-2.0781-17.094 0-26.75 9.9844-9.6406 10-9.6406 27.812 0 17.875 9.6406 27.859 9.6562 9.9844 26.75 9.9844 7.125 0 13.547-1.7656 6.4219-1.75 11.844-5.1719v-10.5q-5.4688 4.6406-11.625 6.9844t-12.938 2.3438q-13.391 0-20.109-7.4688-6.7031-7.4688-6.7031-22.266 0-14.75 6.7031-22.219 6.7188-7.4688 20.109-7.4688 5.2188 0 9.3125 0.90625 4.1094 0.90625 7.375 2.8125z"/>
</defs>
<g transform="translate(696.44 485) scale(.1 -.1)">
<use xlink:href="#at"/>
<use x="77.490234" xlink:href="#d"/>
<use x="139.013672" xlink:href="#o"/>
<use x="191.113281" xlink:href="#p"/>
<use x="246.09375" xlink:href="#n"/>
<use x="309.472656" xlink:href="#f"/>
<use x="337.255859" xlink:href="#p"/>
<use x="392.236328" xlink:href="#n"/>
<use x="455.615234" xlink:href="#q"/>
<use x="494.824219" xlink:href="#d"/>
</g>
</g>
<g clip-path="url(#a)">
<g transform="translate(760.69 485) scale(.1 -.1)">
<use xlink:href="#h"/>
<use x="63.378906" xlink:href="#ak"/>
<use x="124.560547" xlink:href="#p"/>
<use x="179.541016" xlink:href="#n"/>
</g>
</g>
<g clip-path="url(#a)">
<g transform="translate(813.79 485) scale(.1 -.1)">
<use xlink:href="#h"/>
<use x="63.378906" xlink:href="#f"/>
<use x="91.162109" xlink:href="#d"/>
</g>
</g>
<g clip-path="url(#a)">
<defs>
<path id="au" d="m34.281 27.484q-10.891 0-15.094-2.4844t-4.2031-8.5q0-4.7812 3.1562-7.5938 3.1562-2.7969 8.5625-2.7969 7.4844 0 12 5.2969t4.5156 14.078v2zm17.922 3.7188v-31.203h-8.9844v8.2969q-3.0781-4.9688-7.6719-7.3438t-11.234-2.375q-8.3906 0-13.359 4.7188-4.9531 4.7188-4.9531 12.625 0 9.2188 6.1719 13.906 6.1875 4.6875 18.438 4.6875h12.609v0.89062q0 6.2031-4.0781 9.5938t-11.453 3.3906q-4.6875 0-9.1406-1.125-4.4375-1.125-8.5312-3.375v8.3125q4.9219 1.9062 9.5625 2.8438 4.6406 0.95312 9.0312 0.95312 11.875 0 17.734-6.1562 5.8594-6.1406 5.8594-18.641zm-18.609 44.578h9.9062v-9.8594h-9.9062zm-19.094 0h9.9062v-9.8594h-9.9062z"/>
</defs>
<g transform="translate(852.67 485) scale(.1 -.1)">
<use xlink:href="#d"/>
<use x="61.523438" xlink:href="#i"/>
<use x="102.636719" xlink:href="#aj"/>
<use x="155.126953" xlink:href="#au"/>
<use x="216.40625" xlink:href="#n"/>
<use x="279.785156" xlink:href="#k"/>
<use x="307.568359" xlink:href="#q"/>
</g>
</g>
<g clip-path="url(#a)">
<g transform="translate(917.01 485) scale(.1 -.1)">
<use xlink:href="#e"/>
</g>
</g>
<g clip-path="url(#a)">
<defs>
<path id="c" d="m12.406 8.2969h16.109v55.625l-17.531-3.5156v8.9844l17.438 3.5156h9.8594v-64.609h16.109v-8.2969h-41.984z"/>
</defs>
<g transform="translate(354.35 27.182) scale(.1 -.1)">
<use xlink:href="#c"/>
<use x="63.623047" xlink:href="#e"/>
<use x="95.410156" xlink:href="#c"/>
</g>
</g>
<g clip-path="url(#a)">
<defs>
<path id="m" d="m19.188 8.2969h34.422v-8.2969h-46.281v8.2969q5.6094 5.8125 15.297 15.594 9.7031 9.7969 12.188 12.641 4.7344 5.3125 6.6094 9 1.8906 3.6875 1.8906 7.25 0 5.8125-4.0781 9.4688-4.0781 3.6719-10.625 3.6719-4.6406 0-9.7969-1.6094-5.1406-1.6094-11-4.8906v9.9688q5.9531 2.3906 11.125 3.6094 5.1875 1.2188 9.4844 1.2188 11.328 0 18.062-5.6719 6.7344-5.6562 6.7344-15.125 0-4.5-1.6875-8.5312-1.6719-4.0156-6.125-9.4844-1.2188-1.4219-7.7656-8.1875-6.5312-6.7656-18.453-18.922z"/>
</defs>
<g transform="translate(60.413 258.77) scale(.1 -.1)">
<use xlink:href="#c"/>
<use x="63.623047" xlink:href="#e"/>
<use x="95.410156" xlink:href="#m"/>
</g>
</g>
<g clip-path="url(#a)">
<defs>
<path id="aa" d="m40.578 39.312q7.0781-1.5156 11.047-6.3125 3.9844-4.7812 3.9844-11.812 0-10.781-7.4219-16.703-7.4219-5.9062-21.094-5.9062-4.5781 0-9.4375 0.90625t-10.031 2.7188v9.5156q4.0938-2.3906 8.9688-3.6094 4.8906-1.2188 10.219-1.2188 9.2656 0 14.125 3.6562t4.8594 10.641q0 6.4531-4.5156 10.078-4.5156 3.6406-12.562 3.6406h-8.5v8.1094h8.8906q7.2656 0 11.125 2.9062t3.8594 8.375q0 5.6094-3.9844 8.6094-3.9688 3.0156-11.391 3.0156-4.0625 0-8.7031-0.89062-4.6406-0.875-10.203-2.7188v8.7812q5.625 1.5625 10.531 2.3438t9.25 0.78125q11.234 0 17.766-5.1094 6.5469-5.0938 6.5469-13.781 0-6.0625-3.4688-10.234t-9.8594-5.7812z"/>
</defs>
<g transform="translate(133.29 371.89) scale(.1 -.1)">
<use xlink:href="#c"/>
<use x="63.623047" xlink:href="#e"/>
<use x="95.410156" xlink:href="#aa"/>
</g>
</g>
<g clip-path="url(#a)">
<defs>
<path id="z" d="m37.797 64.312-24.906-38.922h24.906zm-2.5938 8.5938h12.406v-47.516h10.406v-8.2031h-10.406v-17.188h-9.8125v17.188h-32.906v9.5156z"/>
</defs>
<g transform="translate(315.48 144.08) scale(.1 -.1)">
<use xlink:href="#c"/>
<use x="63.623047" xlink:href="#e"/>
<use x="95.410156" xlink:href="#z"/>
</g>
</g>
<g clip-path="url(#a)">
<defs>
<path id="y" d="m10.797 72.906h38.719v-8.3125h-29.688v-17.859q2.1406 0.73438 4.2812 1.0938 2.1562 0.35938 4.3125 0.35938 12.203 0 19.328-6.6875 7.1406-6.6875 7.1406-18.109 0-11.766-7.3281-18.297-7.3281-6.5156-20.656-6.5156-4.5938 0-9.3594 0.78125-4.75 0.78125-9.8281 2.3438v9.9219q4.3906-2.3906 9.0781-3.5625t9.9062-1.1719q8.4531 0 13.375 4.4375 4.9375 4.4375 4.9375 12.062 0 7.6094-4.9375 12.047-4.9219 4.4531-13.375 4.4531-3.9531 0-7.8906-0.875-3.9219-0.875-8.0156-2.7344z"/>
</defs>
<g transform="translate(740.6 144.08) scale(.1 -.1)">
<use xlink:href="#c"/>
<use x="63.623047" xlink:href="#e"/>
<use x="95.410156" xlink:href="#y"/>
</g>
</g>
<g clip-path="url(#a)">
<defs>
<path id="x" d="m31.781 34.625q-7.0312 0-11.062-3.7656-4.0156-3.7656-4.0156-10.344 0-6.5938 4.0156-10.359 4.0312-3.7656 11.062-3.7656t11.078 3.7812q4.0625 3.7969 4.0625 10.344 0 6.5781-4.0312 10.344-4.0156 3.7656-11.109 3.7656zm-9.8594 4.1875q-6.3438 1.5625-9.8906 5.9062-3.5312 4.3594-3.5312 10.609 0 8.7344 6.2188 13.812 6.2344 5.0781 17.062 5.0781 10.891 0 17.094-5.0781t6.2031-13.812q0-6.25-3.5469-10.609-3.5312-4.3438-9.8281-5.9062 7.125-1.6562 11.094-6.5 3.9844-4.8281 3.9844-11.797 0-10.609-6.4688-16.281-6.4688-5.6562-18.531-5.6562-12.047 0-18.531 5.6562-6.4688 5.6719-6.4688 16.281 0 6.9688 4 11.797 4.0156 4.8438 11.141 6.5zm-3.6094 15.578q0-5.6562 3.5312-8.8281 3.5469-3.1719 9.9375-3.1719 6.3594 0 9.9375 3.1719 3.5938 3.1719 3.5938 8.8281 0 5.6719-3.5938 8.8438-3.5781 3.1719-9.9375 3.1719-6.3906 0-9.9375-3.1719-3.5312-3.1719-3.5312-8.8438z"/>
</defs>
<g transform="translate(570.55 371.89) scale(.1 -.1)">
<use xlink:href="#c"/>
<use x="63.623047" xlink:href="#e"/>
<use x="95.410156" xlink:href="#x"/>
</g>
</g>
<g clip-path="url(#a)">
<defs>
<path id="af" d="m10.984 1.5156v8.9844q3.7188-1.7656 7.5156-2.6875 3.8125-0.92188 7.4844-0.92188 9.7656 0 14.906 6.5625 5.1562 6.5625 5.8906 19.953-2.8281-4.2031-7.1875-6.4531-4.3438-2.25-9.6094-2.25-10.938 0-17.312 6.6094-6.375 6.625-6.375 18.109 0 11.219 6.6406 18 6.6406 6.7969 17.672 6.7969 12.656 0 19.312-9.7031 6.6719-9.6875 6.6719-28.141 0-17.234-8.1875-27.516-8.1719-10.281-21.984-10.281-3.7188 0-7.5312 0.73438-3.7969 0.73438-7.9062 2.2031zm19.625 30.906q6.6406 0 10.516 4.5312 3.8906 4.5469 3.8906 12.469 0 7.8594-3.8906 12.422-3.875 4.5625-10.516 4.5625t-10.516-4.5625-3.875-12.422q0-7.9219 3.875-12.469 3.875-4.5312 10.516-4.5312z"/>
</defs>
<g transform="translate(619.14 371.89) scale(.1 -.1)">
<use xlink:href="#c"/>
<use x="63.623047" xlink:href="#e"/>
<use x="95.410156" xlink:href="#af"/>
</g>
</g>
<g clip-path="url(#a)">
<defs>
<path id="ai" d="m31.781 66.406q-7.6094 0-11.453-7.5-3.8281-7.4844-3.8281-22.531 0-14.984 3.8281-22.484 3.8438-7.5 11.453-7.5 7.6719 0 11.5 7.5 3.8438 7.5 3.8438 22.484 0 15.047-3.8438 22.531-3.8281 7.5-11.5 7.5zm0 7.8125q12.266 0 18.734-9.7031 6.4688-9.6875 6.4688-28.141 0-18.406-6.4688-28.109-6.4688-9.6875-18.734-9.6875-12.25 0-18.719 9.6875-6.4688 9.7031-6.4688 28.109 0 18.453 6.4688 28.141 6.4688 9.7031 18.719 9.7031z"/>
</defs>
<g transform="translate(688.83 258.77) scale(.1 -.1)">
<use xlink:href="#c"/>
<use x="63.623047" xlink:href="#e"/>
<use x="95.410156" xlink:href="#c"/>
<use x="159.033203" xlink:href="#ai"/>
</g>
</g>
<g clip-path="url(#a)">
<g transform="translate(786 258.77) scale(.1 -.1)">
<use xlink:href="#c"/>
<use x="63.623047" xlink:href="#e"/>
<use x="95.410156" xlink:href="#c"/>
<use x="159.033203" xlink:href="#c"/>
</g>
</g>
<g clip-path="url(#a)">
<g transform="translate(858.88 371.89) scale(.1 -.1)">
<use xlink:href="#c"/>
<use x="63.623047" xlink:href="#e"/>
<use x="95.410156" xlink:href="#c"/>
<use x="159.033203" xlink:href="#m"/>
</g>
</g>
<g clip-path="url(#a)">
<g transform="translate(761.71 371.89) scale(.1 -.1)">
<use xlink:href="#c"/>
<use x="63.623047" xlink:href="#e"/>
<use x="95.410156" xlink:href="#c"/>
<use x="159.033203" xlink:href="#aa"/>
</g>
</g>
<g clip-path="url(#a)">
<g transform="translate(810.29 371.89) scale(.1 -.1)">
<use xlink:href="#c"/>
<use x="63.623047" xlink:href="#e"/>
<use x="95.410156" xlink:href="#c"/>
<use x="159.033203" xlink:href="#z"/>
</g>
</g>
<g clip-path="url(#a)">
<g transform="translate(664.54 371.89) scale(.1 -.1)">
<use xlink:href="#c"/>
<use x="63.623047" xlink:href="#e"/>
<use x="95.410156" xlink:href="#c"/>
<use x="159.033203" xlink:href="#y"/>
</g>
</g>
<g clip-path="url(#a)">
<defs>
<path id="ah" d="m33.016 40.375q-6.6406 0-10.531-4.5469-3.875-4.5312-3.875-12.438 0-7.8594 3.875-12.438 3.8906-4.5625 10.531-4.5625t10.516 4.5625q3.875 4.5781 3.875 12.438 0 7.9062-3.875 12.438-3.875 4.5469-10.516 4.5469zm19.578 30.922v-8.9844q-3.7188 1.75-7.5 2.6719-3.7812 0.9375-7.5 0.9375-9.7656 0-14.922-6.5938-5.1406-6.5938-5.875-19.922 2.875 4.25 7.2188 6.5156 4.3594 2.2656 9.5781 2.2656 10.984 0 17.359-6.6719 6.375-6.6562 6.375-18.125 0-11.234-6.6406-18.031-6.6406-6.7812-17.672-6.7812-12.656 0-19.344 9.6875-6.6875 9.7031-6.6875 28.109 0 17.281 8.2031 27.562t22.016 10.281q3.7188 0 7.5-0.73438t7.8906-2.1875z"/>
</defs>
<g transform="translate(713.12 371.89) scale(.1 -.1)">
<use xlink:href="#c"/>
<use x="63.623047" xlink:href="#e"/>
<use x="95.410156" xlink:href="#c"/>
<use x="159.033203" xlink:href="#ah"/>
</g>
</g>
<g clip-path="url(#a)">
<defs>
<path id="ag" d="m8.2031 72.906h46.875v-4.2031l-26.469-68.703h-10.297l24.906 64.594h-35.016z"/>
</defs>
<g transform="translate(178.69 371.89) scale(.1 -.1)">
<use xlink:href="#c"/>
<use x="63.623047" xlink:href="#e"/>
<use x="95.410156" xlink:href="#c"/>
<use x="159.033203" xlink:href="#ag"/>
</g>
</g>
<g clip-path="url(#a)">
<g transform="translate(227.28 371.89) scale(.1 -.1)">
<use xlink:href="#c"/>
<use x="63.623047" xlink:href="#e"/>
<use x="95.410156" xlink:href="#c"/>
<use x="159.033203" xlink:href="#x"/>
</g>
</g>
<g clip-path="url(#a)">
<g transform="translate(275.86 371.89) scale(.1 -.1)">
<use xlink:href="#c"/>
<use x="63.623047" xlink:href="#e"/>
<use x="95.410156" xlink:href="#c"/>
<use x="159.033203" xlink:href="#af"/>
</g>
</g>
<g clip-path="url(#a)">
<g transform="translate(324.45 371.89) scale(.1 -.1)">
<use xlink:href="#c"/>
<use x="63.623047" xlink:href="#e"/>
<use x="95.410156" xlink:href="#m"/>
<use x="159.033203" xlink:href="#ai"/>
</g>
</g>
<g clip-path="url(#a)">
<g transform="translate(397.32 258.77) scale(.1 -.1)">
<use xlink:href="#c"/>
<use x="63.623047" xlink:href="#e"/>
<use x="95.410156" xlink:href="#m"/>
<use x="159.033203" xlink:href="#c"/>
</g>
</g>
<g clip-path="url(#a)">
<g transform="translate(470.2 371.89) scale(.1 -.1)">
<use xlink:href="#c"/>
<use x="63.623047" xlink:href="#e"/>
<use x="95.410156" xlink:href="#m"/>
<use x="159.033203" xlink:href="#m"/>
</g>
</g>
<g clip-path="url(#a)">
<g transform="translate(373.03 371.89) scale(.1 -.1)">
<use xlink:href="#c"/>
<use x="63.623047" xlink:href="#e"/>
<use x="95.410156" xlink:href="#m"/>
<use x="159.033203" xlink:href="#aa"/>
</g>
</g>
<g clip-path="url(#a)">
<g transform="translate(421.62 371.89) scale(.1 -.1)">
<use xlink:href="#c"/>
<use x="63.623047" xlink:href="#e"/>
<use x="95.410156" xlink:href="#m"/>
<use x="159.033203" xlink:href="#z"/>
</g>
</g>
<g clip-path="url(#a)">
<g transform="translate(32.939 371.89) scale(.1 -.1)">
<use xlink:href="#c"/>
<use x="63.623047" xlink:href="#e"/>
<use x="95.410156" xlink:href="#m"/>
<use x="159.033203" xlink:href="#y"/>
</g>
</g>
<g clip-path="url(#a)">
<g transform="translate(81.524 371.89) scale(.1 -.1)">
<use xlink:href="#c"/>
<use x="63.623047" xlink:href="#e"/>
<use x="95.410156" xlink:href="#m"/>
<use x="159.033203" xlink:href="#ah"/>
</g>
</g>
<g clip-path="url(#a)">
<g transform="translate(518.79 371.89) scale(.1 -.1)">
<use xlink:href="#c"/>
<use x="63.623047" xlink:href="#e"/>
<use x="95.410156" xlink:href="#m"/>
<use x="159.033203" xlink:href="#ag"/>
</g>
</g>
<g clip-path="url(#a)">
<g transform="translate(907.46 371.89) scale(.1 -.1)">
<use xlink:href="#c"/>
<use x="63.623047" xlink:href="#e"/>
<use x="95.410156" xlink:href="#m"/>
<use x="159.033203" xlink:href="#x"/>
</g>
</g>
<defs>
<clipPath id="a">
<rect width="962.67" height="506.67"/>
</clipPath>
</defs>
</svg>
