<?xml version="1.0" encoding="UTF-8"?>
<!DOCTYPE svg  PUBLIC '-//W3C//DTD SVG 1.1//EN'  'http://www.w3.org/Graphics/SVG/1.1/DTD/svg11.dtd'>
<svg width="1114.7pt" height="586.67pt" version="1.1" viewBox="0 0 1114.7 586.67" xmlns="http://www.w3.org/2000/svg" xmlns:xlink="http://www.w3.org/1999/xlink">
<defs>
<style type="text/css">*{stroke-linecap:butt;stroke-linejoin:round;}</style>
</defs>
<path d="m0 586.67h1114.7v-586.67h-1114.7z" fill="#fff"/>
<g fill="none" stroke="#000">
<path d="m289.05 26.667-238.38 401.84" clip-path="url(#a)"/>
<path d="m289.05 26.667-227.32 401.84" clip-path="url(#a)"/>
<path d="m289.05 26.667-192.93 268.51" clip-path="url(#a)"/>
<path d="m289.05 26.667-82.387 268.51" clip-path="url(#a)"/>
<path d="m289.05 26.667 37.985 401.84" clip-path="url(#a)"/>
<path d="m289.05 26.667 138.4 268.51" clip-path="url(#a)"/>
<path d="m289.05 26.667 461.74 134.48" clip-path="url(#a)"/>
<path d="m289.05 26.667-146.26 401.84" clip-path="url(#a)"/>
<path d="m289.05 26.667-6.2335 401.84" clip-path="url(#a)"/>
<path d="m289.05 26.667 255.39 401.84" clip-path="url(#a)"/>
<path d="m50.667 428.5v131.5" clip-path="url(#a)"/>
<path d="m61.721 428.5v131.5" clip-path="url(#a)"/>
<path d="m96.113 295.18-19.653 133.33" clip-path="url(#a)"/>
<path d="m96.113 295.18-1.2283 133.33" clip-path="url(#a)"/>
<path d="m96.113 295.18 20.881 133.33" clip-path="url(#a)"/>
<path d="m206.66 295.18-34.392 133.33" clip-path="url(#a)"/>
<path d="m206.66 295.18-1.2283 133.33" clip-path="url(#a)"/>
<path d="m206.66 295.18 35.62 133.33" clip-path="url(#a)"/>
<path d="m327.03 428.5v131.5" clip-path="url(#a)"/>
<path d="m427.44 295.18 58.036 133.33" clip-path="url(#a)"/>
<path d="m427.44 295.18 0.92121 133.33" clip-path="url(#a)"/>
<path d="m427.44 295.18-0.92121 133.33" clip-path="url(#a)"/>
<path d="m750.79 161.15 313.21 134.03" clip-path="url(#a)"/>
<path d="m750.79 161.15-143.71 267.35" clip-path="url(#a)"/>
<path d="m750.79 161.15-42.376 134.03" clip-path="url(#a)"/>
<path d="m750.79 161.15 186.08 134.03" clip-path="url(#a)"/>
<path d="m607.08 428.5v131.5" clip-path="url(#a)"/>
<path d="m708.41 295.18-35.006 133.33" clip-path="url(#a)"/>
<path d="m708.41 295.18 35.006 133.33" clip-path="url(#a)"/>
<path d="m936.87 295.18-119.76 133.33" clip-path="url(#a)"/>
<path d="m936.87 295.18-42.376 133.33" clip-path="url(#a)"/>
<path d="m936.87 295.18 38.691 133.33" clip-path="url(#a)"/>
<path d="m936.87 295.18 123.44 133.33" clip-path="url(#a)"/>
<path d="m817.12 428.5v131.5" clip-path="url(#a)"/>
<path d="m894.5 428.5v131.5" clip-path="url(#a)"/>
<path d="m975.56 428.5v131.5" clip-path="url(#a)"/>
<path d="m673.41 428.5v131.5" clip-path="url(#a)"/>
<path d="m743.42 428.5v131.5" clip-path="url(#a)"/>
<path d="m428.36 428.5-53.43 131.5" clip-path="url(#a)"/>
<path d="m428.36 428.5 53.43 131.5" clip-path="url(#a)"/>
<path d="m426.52 428.5v131.5" clip-path="url(#a)"/>
<path d="m172.27 428.5v131.5" clip-path="url(#a)"/>
<path d="m205.43 428.5v131.5" clip-path="url(#a)"/>
<path d="m242.28 428.5v131.5" clip-path="url(#a)"/>
<path d="m76.461 428.5v131.5" clip-path="url(#a)"/>
<path d="m94.885 428.5v131.5" clip-path="url(#a)"/>
<path d="m116.99 428.5v131.5" clip-path="url(#a)"/>
<path d="m142.79 428.5v131.5" clip-path="url(#a)"/>
<path d="m282.81 428.5v131.5" clip-path="url(#a)"/>
<path d="m544.44 428.5v131.5" clip-path="url(#a)"/>
<path d="m1060.3 428.5v131.5" clip-path="url(#a)"/>
</g>
<path d="m174.11 232.7 2.2742-3.8337q1.2245-2.0641-0.83964-3.2886l-6.659-3.9503q-2.0641-1.2245-3.2886 0.83964l-2.2742 3.8337q-1.2245 2.0641 0.83964 3.2886l6.659 3.9503q2.0641 1.2245 3.2886-0.83964z" clip-path="url(#a)" fill="#fff" stroke="#fff"/>
<g clip-path="url(#a)">
<defs>
<path id="u" d="m9.8125 72.906h9.8594v-64.609h35.5v-8.2969h-45.359z"/>
</defs>
<g transform="translate(170.62 230.63) rotate(-59.323) scale(.08 -.08)">
<use xlink:href="#u"/>
</g>
</g>
<path d="m179.74 232.61 2.1948-3.8797q1.1817-2.0889-0.90718-3.2706l-6.7389-3.8123q-2.0889-1.1817-3.2706 0.90718l-2.1948 3.8797q-1.1817 2.0889 0.90718 3.2706l6.7389 3.8123q2.0889 1.1817 3.2706-0.90718z" clip-path="url(#a)" fill="#fff" stroke="#fff"/>
<g clip-path="url(#a)">
<g transform="translate(176.21 230.61) rotate(-60.503) scale(.08 -.08)">
<use xlink:href="#u"/>
</g>
</g>
<path d="m195.92 167.02 3.5106-4.8858q1.4004-1.949-0.54859-3.3495l-6.2877-4.5179q-1.949-1.4004-3.3495 0.54859l-3.5106 4.8858q-1.4004 1.949 0.54859 3.3495l6.2877 4.5179q1.949 1.4004 3.3495-0.54859z" clip-path="url(#a)" fill="#fff" stroke="#fff"/>
<g clip-path="url(#a)">
<defs>
<path id="w" d="m9.8125 72.906h9.8594v-29.891h35.844v29.891h9.8594v-72.906h-9.8594v34.719h-35.844v-34.719h-9.8594z"/>
</defs>
<g transform="translate(192.62 164.65) rotate(-54.301) scale(.08 -.08)">
<use xlink:href="#w"/>
</g>
</g>
<path d="m252.97 165.64 1.7648-5.7516q0.704-2.2944-1.5904-2.9984l-7.4019-2.2711q-2.2944-0.704-2.9984 1.5904l-1.7648 5.7516q-0.704 2.2944 1.5904 2.9984l7.4019 2.2711q2.2944 0.704 2.9984-1.5904z" clip-path="url(#a)" fill="#fff" stroke="#fff"/>
<g clip-path="url(#a)">
<g transform="translate(249.08 164.44) rotate(-72.942) scale(.08 -.08)">
<use xlink:href="#w"/>
</g>
</g>
<path d="m301.58 225.96 0.41949 4.4377q0.22586 2.3893 2.6152 2.1635l7.7081-0.72863q2.3893-0.22586 2.1635-2.6152l-0.41949-4.4377q-0.22586-2.3893-2.6152-2.1635l-7.7081 0.72863q-2.3893 0.22586-2.1635 2.6152z" clip-path="url(#a)" fill="#fff" stroke="#fff"/>
<g clip-path="url(#a)">
<g transform="translate(305.63 225.57) rotate(84.6) scale(.08 -.08)">
<use xlink:href="#u"/>
</g>
</g>
<path d="m351.29 161.12 2.7563 5.3477q1.0996 2.1333 3.2329 1.0337l6.8821-3.5472q2.1333-1.0996 1.0337-3.2329l-2.7563-5.3477q-1.0996-2.1333-3.2329-1.0337l-6.8821 3.5472q-2.1333 1.0996-1.0337 3.2329z" clip-path="url(#a)" fill="#fff" stroke="#fff"/>
<g clip-path="url(#a)">
<g transform="translate(354.9 159.26) rotate(62.732) scale(.08 -.08)">
<use xlink:href="#w"/>
</g>
</g>
<path d="m515.28 99.088 5.7762 1.6823q2.3043 0.67112 2.9754-1.6331l2.165-7.4336q0.67112-2.3043-1.6331-2.9754l-5.7762-1.6823q-2.3043-0.67112-2.9754 1.6331l-2.165 7.4336q-0.67112 2.3043 1.6331 2.9754z" clip-path="url(#a)" fill="#fff" stroke="#fff"/>
<g clip-path="url(#a)">
<g transform="translate(516.41 95.186) rotate(16.238) scale(.08 -.08)">
<use xlink:href="#w"/>
</g>
</g>
<path d="m220.81 232.48 2.0025-5.5019q0.82086-2.2553-1.4344-3.0761l-7.2756-2.6481q-2.2553-0.82086-3.0761 1.4344l-2.0025 5.5019q-0.82086 2.2553 1.4344 3.0761l7.2756 2.6481q2.2553 0.82086 3.0761-1.4344z" clip-path="url(#a)" fill="#fff" stroke="#fff"/>
<g clip-path="url(#a)">
<defs>
<path id="t" d="m8.6875 72.906h9.9219v-44.297q0-11.719 4.2344-16.875 4.25-5.1406 13.781-5.1406 9.4688 0 13.719 5.1406 4.25 5.1562 4.25 16.875v44.297h9.9062v-45.516q0-14.25-7.0625-21.531-7.0469-7.2812-20.812-7.2812-13.828 0-20.891 7.2812-7.0469 7.2812-7.0469 21.531z"/>
</defs>
<g transform="translate(216.99 231.09) rotate(-70) scale(.08 -.08)">
<use xlink:href="#t"/>
</g>
</g>
<path d="m292.15 230.61 0.090815-5.8543q0.037226-2.3997-2.3625-2.4369l-7.7416-0.12009q-2.3997-0.037226-2.4369 2.3625l-0.090816 5.8543q-0.037225 2.3997 2.3625 2.4369l7.7416 0.12009q2.3997 0.037225 2.4369-2.3625z" clip-path="url(#a)" fill="#fff" stroke="#fff"/>
<g clip-path="url(#a)">
<g transform="translate(288.09 230.55) rotate(-89.111) scale(.08 -.08)">
<use xlink:href="#t"/>
</g>
</g>
<path d="m409.88 228.48 3.1406 4.9414q1.2873 2.0255 3.3129 0.73818l6.5344-4.153q2.0255-1.2873 0.73818-3.3129l-3.1406-4.9414q-1.2873-2.0255-3.3129-0.73818l-6.5344 4.153q-2.0255 1.2873-0.73818 3.3129z" clip-path="url(#a)" fill="#fff" stroke="#fff"/>
<g clip-path="url(#a)">
<g transform="translate(413.31 226.3) rotate(57.562) scale(.08 -.08)">
<use xlink:href="#t"/>
</g>
</g>
<path d="m44.395 477.35v33.808q0 2.4 2.4 2.4h7.7425q2.4 0 2.4-2.4v-33.808q0-2.4-2.4-2.4h-7.7425q-2.4 0-2.4 2.4z" clip-path="url(#a)" fill="#fff" stroke="#fff"/>
<g clip-path="url(#a)">
<defs>
<path id="k" d="m-0.29688 72.906h61.672v-8.3125h-25.875v-64.594h-9.9062v64.594h-25.891z"/>
<path id="d" d="m56.203 29.594v-4.3906h-41.312q0.59375-9.2812 5.5938-14.141t13.938-4.8594q5.1719 0 10.031 1.2656t9.6562 3.8125v-8.5q-4.8438-2.0469-9.9219-3.125t-10.297-1.0781q-13.094 0-20.734 7.6094-7.6406 7.625-7.6406 20.625 0 13.422 7.25 21.297 7.25 7.8906 19.562 7.8906 11.031 0 17.453-7.1094 6.4219-7.0938 6.4219-19.297zm-8.9844 2.6406q-0.09375 7.3594-4.125 11.75-4.0312 4.4062-10.672 4.4062-7.5156 0-12.031-4.25t-5.2031-11.969z"/>
<path id="h" d="m41.109 46.297q-1.5156 0.875-3.2969 1.2812-1.7812 0.42188-3.9219 0.42188-7.625 0-11.703-4.9531t-4.0781-14.234v-28.812h-9.0312v54.688h9.0312v-8.5q2.8438 4.9844 7.375 7.3906 4.5469 2.4219 11.047 2.4219 0.92188 0 2.0469-0.125 1.125-0.10938 2.4844-0.35938z"/>
<path id="i" d="m52 44.188q3.375 6.0625 8.0625 8.9375t11.031 2.875q8.5469 0 13.188-5.9844 4.6406-5.9688 4.6406-17v-33.016h-9.0312v32.719q0 7.8594-2.7969 11.656-2.7812 3.8125-8.4844 3.8125-6.9844 0-11.047-4.6406-4.0469-4.625-4.0469-12.641v-30.906h-9.0312v32.719q0 7.9062-2.7812 11.688t-8.5938 3.7812q-6.8906 0-10.953-4.6562-4.0469-4.6562-4.0469-12.625v-30.906h-9.0312v54.688h9.0312v-8.5q3.0781 5.0312 7.375 7.4219t10.203 2.3906q5.9688 0 10.141-3.0312 4.1719-3.0156 6.1719-8.7812z"/>
<path id="g" d="m9.4219 54.688h8.9844v-54.688h-8.9844zm0 21.297h8.9844v-11.391h-8.9844z"/>
<path id="e" d="m54.891 33.016v-33.016h-8.9844v32.719q0 7.7656-3.0312 11.609-3.0312 3.8594-9.0781 3.8594-7.2812 0-11.484-4.6406-4.2031-4.625-4.2031-12.641v-30.906h-9.0312v54.688h9.0312v-8.5q3.2344 4.9375 7.5938 7.375 4.375 2.4375 10.094 2.4375 9.4219 0 14.25-5.8281 4.8438-5.8281 4.8438-17.156z"/>
<path id="j" d="m34.281 27.484q-10.891 0-15.094-2.4844t-4.2031-8.5q0-4.7812 3.1562-7.5938 3.1562-2.7969 8.5625-2.7969 7.4844 0 12 5.2969t4.5156 14.078v2zm17.922 3.7188v-31.203h-8.9844v8.2969q-3.0781-4.9688-7.6719-7.3438t-11.234-2.375q-8.3906 0-13.359 4.7188-4.9531 4.7188-4.9531 12.625 0 9.2188 6.1719 13.906 6.1875 4.6875 18.438 4.6875h12.609v0.89062q0 6.2031-4.0781 9.5938t-11.453 3.3906q-4.6875 0-9.1406-1.125-4.4375-1.125-8.5312-3.375v8.3125q4.9219 1.9062 9.5625 2.8438 4.6406 0.95312 9.0312 0.95312 11.875 0 17.734-6.1562 5.8594-6.1406 5.8594-18.641z"/>
<path id="l" d="m9.4219 75.984h8.9844v-75.984h-8.9844z"/>
</defs>
<g transform="translate(48.459 477.35) rotate(90) scale(.08 -.08)">
<use xlink:href="#k"/>
<use x="44.083984" xlink:href="#d"/>
<use x="105.607422" xlink:href="#h"/>
<use x="144.970703" xlink:href="#i"/>
<use x="242.382812" xlink:href="#g"/>
<use x="270.166016" xlink:href="#e"/>
<use x="333.544922" xlink:href="#j"/>
<use x="394.824219" xlink:href="#l"/>
</g>
</g>
<path d="m55.45 477.35v33.808q0 2.4 2.4 2.4h7.7425q2.4 0 2.4-2.4v-33.808q0-2.4-2.4-2.4h-7.7425q-2.4 0-2.4 2.4z" clip-path="url(#a)" fill="#fff" stroke="#fff"/>
<g clip-path="url(#a)">
<g transform="translate(59.514 477.35) rotate(90) scale(.08 -.08)">
<use xlink:href="#k"/>
<use x="44.083984" xlink:href="#d"/>
<use x="105.607422" xlink:href="#h"/>
<use x="144.970703" xlink:href="#i"/>
<use x="242.382812" xlink:href="#g"/>
<use x="270.166016" xlink:href="#e"/>
<use x="333.544922" xlink:href="#j"/>
<use x="394.824219" xlink:href="#l"/>
</g>
</g>
<path d="m92.092 365.46 0.79803-5.414q0.34998-2.3743-2.0244-2.7243l-7.6597-1.1291q-2.3743-0.34998-2.7243 2.0244l-0.79803 5.414q-0.34998 2.3743 2.0244 2.7243l7.6597 1.1291q2.3743 0.34998 2.7243-2.0244z" clip-path="url(#a)" fill="#fff" stroke="#fff"/>
<g clip-path="url(#a)">
<defs>
<path id="o" d="m34.188 63.188-13.391-36.281h26.812zm-5.5781 9.7188h11.188l27.781-72.906h-10.25l-6.6406 18.703h-32.859l-6.6406-18.703h-10.406z"/>
</defs>
<g transform="translate(88.072 364.87) rotate(-81.615) scale(.08 -.08)">
<use xlink:href="#o"/>
</g>
</g>
<path d="m101.74 364.63 0.050414-5.4723q0.022109-2.3999-2.3778-2.422l-7.7422-0.071325q-2.3999-0.02211-2.422 2.3778l-0.050414 5.4723q-0.022109 2.3999 2.3778 2.422l7.7422 0.071325q2.3999 0.022109 2.422-2.3778z" clip-path="url(#a)" fill="#fff" stroke="#fff"/>
<g clip-path="url(#a)">
<g transform="translate(97.681 364.6) rotate(-89.472) scale(.08 -.08)">
<use xlink:href="#o"/>
</g>
</g>
<path d="m99.985 360.43 0.74637 4.7657q0.37135 2.3711 2.7424 1.9998l7.6493-1.198q2.3711-0.37135 1.9998-2.7424l-0.74637-4.7657q-0.37135-2.3711-2.7424-1.9998l-7.6493 1.198q-2.3711 0.37134-1.9998 2.7424z" clip-path="url(#a)" fill="#fff" stroke="#fff"/>
<g clip-path="url(#a)">
<defs>
<path id="q" d="m19.672 64.797v-27.391h12.406q6.8906 0 10.641 3.5625 3.7656 3.5625 3.7656 10.156 0 6.5469-3.7656 10.109-3.75 3.5625-10.641 3.5625zm-9.8594 8.1094h22.266q12.266 0 18.531-5.5469 6.2812-5.5469 6.2812-16.234 0-10.797-6.2812-16.312-6.2656-5.5156-18.531-5.5156h-12.406v-29.297h-9.8594z"/>
</defs>
<g transform="translate(104 359.8) rotate(81.099) scale(.08 -.08)">
<use xlink:href="#q"/>
</g>
</g>
<path d="m194.85 366.05 1.3669-5.299q0.59946-2.3239-1.7245-2.9234l-7.4971-1.9339q-2.3239-0.59946-2.9234 1.7245l-1.3669 5.299q-0.59946 2.3239 1.7245 2.9234l7.4971 1.9339q2.3239 0.59946 2.9234-1.7245z" clip-path="url(#a)" fill="#fff" stroke="#fff"/>
<g clip-path="url(#a)">
<g transform="translate(190.92 365.04) rotate(-75.536) scale(.08 -.08)">
<use xlink:href="#o"/>
</g>
</g>
<path d="m212.29 364.31 0.044437-4.8235q0.022109-2.3999-2.3778-2.422l-7.7422-0.071325q-2.3999-0.022109-2.422 2.3778l-0.044437 4.8235q-0.022109 2.3999 2.3778 2.422l7.7422 0.071325q2.3999 0.022109 2.422-2.3778z" clip-path="url(#a)" fill="#fff" stroke="#fff"/>
<g clip-path="url(#a)">
<g transform="translate(208.23 364.27) rotate(-89.472) scale(.08 -.08)">
<use xlink:href="#q"/>
</g>
</g>
<path d="m217.7 360.81 1.4125 5.2871q0.61947 2.3187 2.9381 1.6992l7.4801-1.9984q2.3187-0.61947 1.6992-2.9381l-1.4125-5.2871q-0.61947-2.3187-2.9381-1.6992l-7.4801 1.9984q-2.3187 0.61947-1.6992 2.9381z" clip-path="url(#a)" fill="#fff" stroke="#fff"/>
<g clip-path="url(#a)">
<g transform="translate(221.63 359.77) rotate(75.042) scale(.08 -.08)">
<use xlink:href="#o"/>
</g>
</g>
<path d="m320.76 477.35v33.808q0 2.4 2.4 2.4h7.7425q2.4 0 2.4-2.4v-33.808q0-2.4-2.4-2.4h-7.7425q-2.4 0-2.4 2.4z" clip-path="url(#a)" fill="#fff" stroke="#fff"/>
<g clip-path="url(#a)">
<g transform="translate(324.82 477.35) rotate(90) scale(.08 -.08)">
<use xlink:href="#k"/>
<use x="44.083984" xlink:href="#d"/>
<use x="105.607422" xlink:href="#h"/>
<use x="144.970703" xlink:href="#i"/>
<use x="242.382812" xlink:href="#g"/>
<use x="270.166016" xlink:href="#e"/>
<use x="333.544922" xlink:href="#j"/>
<use x="394.824219" xlink:href="#l"/>
</g>
</g>
<path d="m449.62 361.83 2.1842 5.0177q0.95789 2.2006 3.1584 1.2427l7.0991-3.0902q2.2006-0.95789 1.2427-3.1584l-2.1842-5.0177q-0.95789-2.2006-3.1584-1.2427l-7.0991 3.0902q-2.2006 0.95789-1.2427 3.1584z" clip-path="url(#a)" fill="#fff" stroke="#fff"/>
<g clip-path="url(#a)">
<g transform="translate(453.34 360.21) rotate(66.477) scale(.08 -.08)">
<use xlink:href="#o"/>
</g>
</g>
<path d="m421.62 359.47 0.033328 4.8236q0.016582 2.3999 2.4165 2.3834l7.7423-0.053495q2.3999-0.016582 2.3834-2.4165l-0.033329-4.8236q-0.016582-2.3999-2.4165-2.3834l-7.7423 0.053495q-2.3999 0.016582-2.3834 2.4165z" clip-path="url(#a)" fill="#fff" stroke="#fff"/>
<g clip-path="url(#a)">
<g transform="translate(425.68 359.44) rotate(89.604) scale(.08 -.08)">
<use xlink:href="#q"/>
</g>
</g>
<path d="m433.23 364.62 0.037811-5.4724q0.016582-2.3999-2.3834-2.4165l-7.7423-0.053495q-2.3999-0.016582-2.4165 2.3834l-0.037811 5.4724q-0.016582 2.3999 2.3834 2.4165l7.7423 0.053495q2.3999 0.016582 2.4165-2.3834z" clip-path="url(#a)" fill="#fff" stroke="#fff"/>
<g clip-path="url(#a)">
<g transform="translate(429.17 364.59) rotate(-89.604) scale(.08 -.08)">
<use xlink:href="#o"/>
</g>
</g>
<path d="m902.41 232.85 5.0312 2.1529q2.2065 0.94417 3.1506-1.2623l3.0459-7.1182q0.94417-2.2065-1.2623-3.1506l-5.0312-2.1529q-2.2065-0.94417-3.1506 1.2623l-3.0459 7.1182q-0.94417 2.2065 1.2623 3.1506z" clip-path="url(#a)" fill="#fff" stroke="#fff"/>
<g clip-path="url(#a)">
<g transform="translate(904.01 229.12) rotate(23.167) scale(.08 -.08)">
<use xlink:href="#o"/>
</g>
</g>
<path d="m683.32 299.92 2.2839-4.2488q1.1363-2.114-0.97765-3.2503l-6.8197-3.6658q-2.114-1.1363-3.2503 0.97765l-2.2839 4.2488q-1.1363 2.114 0.97765 3.2503l6.8197 3.6658q2.114 1.1363 3.2503-0.97765z" clip-path="url(#a)" fill="#fff" stroke="#fff"/>
<g clip-path="url(#a)">
<g transform="translate(679.74 298) rotate(-61.741) scale(.08 -.08)">
<use xlink:href="#q"/>
</g>
</g>
<path d="m734.65 232.99 1.857-5.8734q0.72352-2.2883-1.5648-3.0119l-7.3823-2.3341q-2.2883-0.72352-3.0119 1.5648l-1.857 5.8734q-0.72352 2.2883 1.5648 3.0119l7.3823 2.3341q2.2883 0.72352 3.0119-1.5648z" clip-path="url(#a)" fill="#fff" stroke="#fff"/>
<g clip-path="url(#a)">
<defs>
<path id="ar" d="m19.672 64.797v-56.688h11.922q15.094 0 22.094 6.8281 7 6.8438 7 21.594 0 14.641-7 21.453t-22.094 6.8125zm-9.8594 8.1094h20.266q21.188 0 31.094-8.8125 9.9219-8.8125 9.9219-27.562 0-18.859-9.9688-27.703-9.9531-8.8281-31.047-8.8281h-20.266z"/>
</defs>
<g transform="translate(730.78 231.76) rotate(-72.454) scale(.08 -.08)">
<use xlink:href="#ar"/>
</g>
</g>
<path d="m837.94 231.65 4.4406 3.1983q1.9475 1.4026 3.3501-0.54482l4.525-6.2826q1.4026-1.9475-0.54482-3.3501l-4.4406-3.1983q-1.9475-1.4026-3.3501 0.54482l-4.525 6.2826q-1.4026 1.9475 0.54482 3.3501z" clip-path="url(#a)" fill="#fff" stroke="#fff"/>
<g clip-path="url(#a)">
<g transform="translate(840.32 228.35) rotate(35.763) scale(.08 -.08)">
<use xlink:href="#o"/>
</g>
</g>
<path d="m600.81 477.35v33.808q0 2.4 2.4 2.4h7.7425q2.4 0 2.4-2.4v-33.808q0-2.4-2.4-2.4h-7.7425q-2.4 0-2.4 2.4z" clip-path="url(#a)" fill="#fff" stroke="#fff"/>
<g clip-path="url(#a)">
<g transform="translate(604.87 477.35) rotate(90) scale(.08 -.08)">
<use xlink:href="#k"/>
<use x="44.083984" xlink:href="#d"/>
<use x="105.607422" xlink:href="#h"/>
<use x="144.970703" xlink:href="#i"/>
<use x="242.382812" xlink:href="#g"/>
<use x="270.166016" xlink:href="#e"/>
<use x="333.544922" xlink:href="#j"/>
<use x="394.824219" xlink:href="#l"/>
</g>
</g>
<path d="m696.39 365.66 1.1685-4.4504q0.60948-2.3213-1.7118-2.9308l-7.4887-1.9662q-2.3213-0.60948-2.9308 1.7118l-1.1685 4.4504q-0.60948 2.3213 1.7118 2.9308l7.4887 1.9662q2.3213 0.60948 2.9308-1.7118z" clip-path="url(#a)" fill="#fff" stroke="#fff"/>
<g clip-path="url(#a)">
<defs>
<path id="aj" d="m9.8125 72.906h41.891v-8.3125h-32.031v-21.484h28.906v-8.2969h-28.906v-34.812h-9.8594z"/>
</defs>
<g transform="translate(692.46 364.62) rotate(-75.289) scale(.08 -.08)">
<use xlink:href="#aj"/>
</g>
</g>
<path d="m719.14 360.73 1.4186 5.4031q0.60948 2.3213 2.9308 1.7118l7.4887-1.9662q2.3213-0.60948 1.7118-2.9308l-1.4186-5.4031q-0.60948-2.3213-2.9308-1.7118l-7.4887 1.9662q-2.3213 0.60948-1.7118 2.9308z" clip-path="url(#a)" fill="#fff" stroke="#fff"/>
<g clip-path="url(#a)">
<defs>
<path id="x" d="m64.406 67.281v-10.391q-4.9844 4.6406-10.625 6.9219-5.6406 2.2969-11.984 2.2969-12.5 0-19.141-7.6406t-6.6406-22.094q0-14.406 6.6406-22.047t19.141-7.6406q6.3438 0 11.984 2.2969t10.625 6.9375v-10.312q-5.1719-3.5156-10.969-5.2812-5.7812-1.75-12.219-1.75-16.562 0-26.094 10.125-9.5156 10.141-9.5156 27.672 0 17.578 9.5156 27.703 9.5312 10.141 26.094 10.141 6.5312 0 12.312-1.7344 5.7969-1.7344 10.875-5.2031z"/>
</defs>
<g transform="translate(723.07 359.7) rotate(75.289) scale(.08 -.08)">
<use xlink:href="#x"/>
</g>
</g>
<path d="m879.8 368.1 3.7146-4.1354q1.6038-1.7855-0.18172-3.3892l-5.76-5.1738q-1.7855-1.6038-3.3892 0.18172l-3.7146 4.1354q-1.6038 1.7855 0.18172 3.3892l5.76 5.1738q1.7855 1.6038 3.3892-0.18172z" clip-path="url(#a)" fill="#fff" stroke="#fff"/>
<g clip-path="url(#a)">
<defs>
<path id="aq" d="m44.391 34.188q3.1719-1.0781 6.1719-4.5938t6.0312-9.6719l10.016-19.922h-10.609l-9.3125 18.703q-3.625 7.3281-7.0156 9.7188t-9.25 2.3906h-10.75v-30.812h-9.8594v72.906h22.266q12.5 0 18.656-5.2344 6.1562-5.2188 6.1562-15.766 0-6.8906-3.2031-11.438-3.2031-4.5312-9.2969-6.2812zm-24.719 30.609v-25.875h12.406q7.125 0 10.766 3.2969t3.6406 9.6875-3.6406 9.6406-10.766 3.25z"/>
</defs>
<g transform="translate(876.78 365.38) rotate(-48.069) scale(.08 -.08)">
<use xlink:href="#aq"/>
</g>
</g>
<path d="m920.96 365.93 1.3937-4.3851q0.72696-2.2873-1.5603-3.0142l-7.3788-2.3452q-2.2873-0.72696-3.0142 1.5603l-1.3937 4.3851q-0.72696 2.2873 1.5603 3.0142l7.3788 2.3452q2.2873 0.72696 3.0142-1.5603z" clip-path="url(#a)" fill="#fff" stroke="#fff"/>
<g clip-path="url(#a)">
<g transform="translate(917.09 364.7) rotate(-72.368) scale(.08 -.08)">
<use xlink:href="#aj"/>
</g>
</g>
<path d="m949.42 360.9 1.5569 5.3649q0.66887 2.3049 2.9738 1.636l7.4357-2.1578q2.3049-0.66888 1.636-2.9738l-1.5569-5.3649q-0.66888-2.3049-2.9738-1.636l-7.4357 2.1578q-2.3049 0.66887-1.636 2.9738z" clip-path="url(#a)" fill="#fff" stroke="#fff"/>
<g clip-path="url(#a)">
<g transform="translate(953.32 359.77) rotate(73.818) scale(.08 -.08)">
<use xlink:href="#x"/>
</g>
</g>
<path d="m992 363.95 3.9778 4.2963q1.6305 1.7611 3.3916 0.13056l5.6813-5.2601q1.7611-1.6305 0.13056-3.3916l-3.9778-4.2963q-1.6305-1.7611-3.3916-0.13056l-5.6813 5.2601q-1.7611 1.6305-0.13056 3.3916z" clip-path="url(#a)" fill="#fff" stroke="#fff"/>
<g clip-path="url(#a)">
<g transform="translate(994.99 361.19) rotate(47.205) scale(.08 -.08)">
<use xlink:href="#t"/>
</g>
</g>
<path d="m810.84 477.35v33.808q0 2.4 2.4 2.4h7.7425q2.4 0 2.4-2.4v-33.808q0-2.4-2.4-2.4h-7.7425q-2.4 0-2.4 2.4z" clip-path="url(#a)" fill="#fff" stroke="#fff"/>
<g clip-path="url(#a)">
<g transform="translate(814.91 477.35) rotate(90) scale(.08 -.08)">
<use xlink:href="#k"/>
<use x="44.083984" xlink:href="#d"/>
<use x="105.607422" xlink:href="#h"/>
<use x="144.970703" xlink:href="#i"/>
<use x="242.382812" xlink:href="#g"/>
<use x="270.166016" xlink:href="#e"/>
<use x="333.544922" xlink:href="#j"/>
<use x="394.824219" xlink:href="#l"/>
</g>
</g>
<path d="m888.23 477.35v33.808q0 2.4 2.4 2.4h7.7425q2.4 0 2.4-2.4v-33.808q0-2.4-2.4-2.4h-7.7425q-2.4 0-2.4 2.4z" clip-path="url(#a)" fill="#fff" stroke="#fff"/>
<g clip-path="url(#a)">
<g transform="translate(892.29 477.35) rotate(90) scale(.08 -.08)">
<use xlink:href="#k"/>
<use x="44.083984" xlink:href="#d"/>
<use x="105.607422" xlink:href="#h"/>
<use x="144.970703" xlink:href="#i"/>
<use x="242.382812" xlink:href="#g"/>
<use x="270.166016" xlink:href="#e"/>
<use x="333.544922" xlink:href="#j"/>
<use x="394.824219" xlink:href="#l"/>
</g>
</g>
<path d="m969.29 477.35v33.808q0 2.4 2.4 2.4h7.7425q2.4 0 2.4-2.4v-33.808q0-2.4-2.4-2.4h-7.7425q-2.4 0-2.4 2.4z" clip-path="url(#a)" fill="#fff" stroke="#fff"/>
<g clip-path="url(#a)">
<g transform="translate(973.36 477.35) rotate(90) scale(.08 -.08)">
<use xlink:href="#k"/>
<use x="44.083984" xlink:href="#d"/>
<use x="105.607422" xlink:href="#h"/>
<use x="144.970703" xlink:href="#i"/>
<use x="242.382812" xlink:href="#g"/>
<use x="270.166016" xlink:href="#e"/>
<use x="333.544922" xlink:href="#j"/>
<use x="394.824219" xlink:href="#l"/>
</g>
</g>
<path d="m667.13 477.35v33.808q0 2.4 2.4 2.4h7.7425q2.4 0 2.4-2.4v-33.808q0-2.4-2.4-2.4h-7.7425q-2.4 0-2.4 2.4z" clip-path="url(#a)" fill="#fff" stroke="#fff"/>
<g clip-path="url(#a)">
<g transform="translate(671.2 477.35) rotate(90) scale(.08 -.08)">
<use xlink:href="#k"/>
<use x="44.083984" xlink:href="#d"/>
<use x="105.607422" xlink:href="#h"/>
<use x="144.970703" xlink:href="#i"/>
<use x="242.382812" xlink:href="#g"/>
<use x="270.166016" xlink:href="#e"/>
<use x="333.544922" xlink:href="#j"/>
<use x="394.824219" xlink:href="#l"/>
</g>
</g>
<path d="m737.15 477.35v33.808q0 2.4 2.4 2.4h7.7425q2.4 0 2.4-2.4v-33.808q0-2.4-2.4-2.4h-7.7425q-2.4 0-2.4 2.4z" clip-path="url(#a)" fill="#fff" stroke="#fff"/>
<g clip-path="url(#a)">
<g transform="translate(741.21 477.35) rotate(90) scale(.08 -.08)">
<use xlink:href="#k"/>
<use x="44.083984" xlink:href="#d"/>
<use x="105.607422" xlink:href="#h"/>
<use x="144.970703" xlink:href="#i"/>
<use x="242.382812" xlink:href="#g"/>
<use x="270.166016" xlink:href="#e"/>
<use x="333.544922" xlink:href="#j"/>
<use x="394.824219" xlink:href="#l"/>
</g>
</g>
<path d="m401.1 512.27 12.726-31.321q0.90344-2.2235-1.32-3.1269l-7.173-2.9145q-2.2235-0.90344-3.1269 1.32l-12.726 31.321q-0.90344 2.2235 1.32 3.1269l7.173 2.9145q2.2235 0.90344 3.1269-1.32z" clip-path="url(#a)" fill="#fff" stroke="#fff"/>
<g clip-path="url(#a)">
<g transform="translate(397.33 510.74) rotate(-67.887) scale(.08 -.08)">
<use xlink:href="#k"/>
<use x="44.083984" xlink:href="#d"/>
<use x="105.607422" xlink:href="#h"/>
<use x="144.970703" xlink:href="#i"/>
<use x="242.382812" xlink:href="#g"/>
<use x="270.166016" xlink:href="#e"/>
<use x="333.544922" xlink:href="#j"/>
<use x="394.824219" xlink:href="#l"/>
</g>
</g>
<path d="m442.91 480.95 12.726 31.321q0.90344 2.2235 3.1269 1.32l7.173-2.9145q2.2235-0.90344 1.32-3.1269l-12.726-31.321q-0.90344-2.2235-3.1269-1.32l-7.173 2.9145q-2.2235 0.90344-1.32 3.1269z" clip-path="url(#a)" fill="#fff" stroke="#fff"/>
<g clip-path="url(#a)">
<g transform="translate(446.67 479.42) rotate(67.887) scale(.08 -.08)">
<use xlink:href="#k"/>
<use x="44.083984" xlink:href="#d"/>
<use x="105.607422" xlink:href="#h"/>
<use x="144.970703" xlink:href="#i"/>
<use x="242.382812" xlink:href="#g"/>
<use x="270.166016" xlink:href="#e"/>
<use x="333.544922" xlink:href="#j"/>
<use x="394.824219" xlink:href="#l"/>
</g>
</g>
<path d="m420.25 477.35v33.808q0 2.4 2.4 2.4h7.7425q2.4 0 2.4-2.4v-33.808q0-2.4-2.4-2.4h-7.7425q-2.4 0-2.4 2.4z" clip-path="url(#a)" fill="#fff" stroke="#fff"/>
<g clip-path="url(#a)">
<g transform="translate(424.31 477.35) rotate(90) scale(.08 -.08)">
<use xlink:href="#k"/>
<use x="44.083984" xlink:href="#d"/>
<use x="105.607422" xlink:href="#h"/>
<use x="144.970703" xlink:href="#i"/>
<use x="242.382812" xlink:href="#g"/>
<use x="270.166016" xlink:href="#e"/>
<use x="333.544922" xlink:href="#j"/>
<use x="394.824219" xlink:href="#l"/>
</g>
</g>
<path d="m166 477.35v33.808q0 2.4 2.4 2.4h7.7425q2.4 0 2.4-2.4v-33.808q0-2.4-2.4-2.4h-7.7425q-2.4 0-2.4 2.4z" clip-path="url(#a)" fill="#fff" stroke="#fff"/>
<g clip-path="url(#a)">
<g transform="translate(170.06 477.35) rotate(90) scale(.08 -.08)">
<use xlink:href="#k"/>
<use x="44.083984" xlink:href="#d"/>
<use x="105.607422" xlink:href="#h"/>
<use x="144.970703" xlink:href="#i"/>
<use x="242.382812" xlink:href="#g"/>
<use x="270.166016" xlink:href="#e"/>
<use x="333.544922" xlink:href="#j"/>
<use x="394.824219" xlink:href="#l"/>
</g>
</g>
<path d="m199.16 477.35v33.808q0 2.4 2.4 2.4h7.7425q2.4 0 2.4-2.4v-33.808q0-2.4-2.4-2.4h-7.7425q-2.4 0-2.4 2.4z" clip-path="url(#a)" fill="#fff" stroke="#fff"/>
<g clip-path="url(#a)">
<g transform="translate(203.22 477.35) rotate(90) scale(.08 -.08)">
<use xlink:href="#k"/>
<use x="44.083984" xlink:href="#d"/>
<use x="105.607422" xlink:href="#h"/>
<use x="144.970703" xlink:href="#i"/>
<use x="242.382812" xlink:href="#g"/>
<use x="270.166016" xlink:href="#e"/>
<use x="333.544922" xlink:href="#j"/>
<use x="394.824219" xlink:href="#l"/>
</g>
</g>
<path d="m236.01 477.35v33.808q0 2.4 2.4 2.4h7.7425q2.4 0 2.4-2.4v-33.808q0-2.4-2.4-2.4h-7.7425q-2.4 0-2.4 2.4z" clip-path="url(#a)" fill="#fff" stroke="#fff"/>
<g clip-path="url(#a)">
<g transform="translate(240.07 477.35) rotate(90) scale(.08 -.08)">
<use xlink:href="#k"/>
<use x="44.083984" xlink:href="#d"/>
<use x="105.607422" xlink:href="#h"/>
<use x="144.970703" xlink:href="#i"/>
<use x="242.382812" xlink:href="#g"/>
<use x="270.166016" xlink:href="#e"/>
<use x="333.544922" xlink:href="#j"/>
<use x="394.824219" xlink:href="#l"/>
</g>
</g>
<path d="m70.189 477.35v33.808q0 2.4 2.4 2.4h7.7425q2.4 0 2.4-2.4v-33.808q0-2.4-2.4-2.4h-7.7425q-2.4 0-2.4 2.4z" clip-path="url(#a)" fill="#fff" stroke="#fff"/>
<g clip-path="url(#a)">
<g transform="translate(74.253 477.35) rotate(90) scale(.08 -.08)">
<use xlink:href="#k"/>
<use x="44.083984" xlink:href="#d"/>
<use x="105.607422" xlink:href="#h"/>
<use x="144.970703" xlink:href="#i"/>
<use x="242.382812" xlink:href="#g"/>
<use x="270.166016" xlink:href="#e"/>
<use x="333.544922" xlink:href="#j"/>
<use x="394.824219" xlink:href="#l"/>
</g>
</g>
<path d="m88.614 477.35v33.808q0 2.4 2.4 2.4h7.7425q2.4 0 2.4-2.4v-33.808q0-2.4-2.4-2.4h-7.7425q-2.4 0-2.4 2.4z" clip-path="url(#a)" fill="#fff" stroke="#fff"/>
<g clip-path="url(#a)">
<g transform="translate(92.677 477.35) rotate(90) scale(.08 -.08)">
<use xlink:href="#k"/>
<use x="44.083984" xlink:href="#d"/>
<use x="105.607422" xlink:href="#h"/>
<use x="144.970703" xlink:href="#i"/>
<use x="242.382812" xlink:href="#g"/>
<use x="270.166016" xlink:href="#e"/>
<use x="333.544922" xlink:href="#j"/>
<use x="394.824219" xlink:href="#l"/>
</g>
</g>
<path d="m110.72 477.35v33.808q0 2.4 2.4 2.4h7.7425q2.4 0 2.4-2.4v-33.808q0-2.4-2.4-2.4h-7.7425q-2.4 0-2.4 2.4z" clip-path="url(#a)" fill="#fff" stroke="#fff"/>
<g clip-path="url(#a)">
<g transform="translate(114.79 477.35) rotate(90) scale(.08 -.08)">
<use xlink:href="#k"/>
<use x="44.083984" xlink:href="#d"/>
<use x="105.607422" xlink:href="#h"/>
<use x="144.970703" xlink:href="#i"/>
<use x="242.382812" xlink:href="#g"/>
<use x="270.166016" xlink:href="#e"/>
<use x="333.544922" xlink:href="#j"/>
<use x="394.824219" xlink:href="#l"/>
</g>
</g>
<path d="m136.52 477.35v33.808q0 2.4 2.4 2.4h7.7425q2.4 0 2.4-2.4v-33.808q0-2.4-2.4-2.4h-7.7425q-2.4 0-2.4 2.4z" clip-path="url(#a)" fill="#fff" stroke="#fff"/>
<g clip-path="url(#a)">
<g transform="translate(140.58 477.35) rotate(90) scale(.08 -.08)">
<use xlink:href="#k"/>
<use x="44.083984" xlink:href="#d"/>
<use x="105.607422" xlink:href="#h"/>
<use x="144.970703" xlink:href="#i"/>
<use x="242.382812" xlink:href="#g"/>
<use x="270.166016" xlink:href="#e"/>
<use x="333.544922" xlink:href="#j"/>
<use x="394.824219" xlink:href="#l"/>
</g>
</g>
<path d="m276.54 477.35v33.808q0 2.4 2.4 2.4h7.7425q2.4 0 2.4-2.4v-33.808q0-2.4-2.4-2.4h-7.7425q-2.4 0-2.4 2.4z" clip-path="url(#a)" fill="#fff" stroke="#fff"/>
<g clip-path="url(#a)">
<g transform="translate(280.6 477.35) rotate(90) scale(.08 -.08)">
<use xlink:href="#k"/>
<use x="44.083984" xlink:href="#d"/>
<use x="105.607422" xlink:href="#h"/>
<use x="144.970703" xlink:href="#i"/>
<use x="242.382812" xlink:href="#g"/>
<use x="270.166016" xlink:href="#e"/>
<use x="333.544922" xlink:href="#j"/>
<use x="394.824219" xlink:href="#l"/>
</g>
</g>
<path d="m538.17 477.35v33.808q0 2.4 2.4 2.4h7.7425q2.4 0 2.4-2.4v-33.808q0-2.4-2.4-2.4h-7.7425q-2.4 0-2.4 2.4z" clip-path="url(#a)" fill="#fff" stroke="#fff"/>
<g clip-path="url(#a)">
<g transform="translate(542.23 477.35) rotate(90) scale(.08 -.08)">
<use xlink:href="#k"/>
<use x="44.083984" xlink:href="#d"/>
<use x="105.607422" xlink:href="#h"/>
<use x="144.970703" xlink:href="#i"/>
<use x="242.382812" xlink:href="#g"/>
<use x="270.166016" xlink:href="#e"/>
<use x="333.544922" xlink:href="#j"/>
<use x="394.824219" xlink:href="#l"/>
</g>
</g>
<path d="m1054 477.35v33.808q0 2.4 2.4 2.4h7.7425q2.4 0 2.4-2.4v-33.808q0-2.4-2.4-2.4h-7.7425q-2.4 0-2.4 2.4z" clip-path="url(#a)" fill="#fff" stroke="#fff"/>
<g clip-path="url(#a)">
<g transform="translate(1058.1 477.35) rotate(90) scale(.08 -.08)">
<use xlink:href="#k"/>
<use x="44.083984" xlink:href="#d"/>
<use x="105.607422" xlink:href="#h"/>
<use x="144.970703" xlink:href="#i"/>
<use x="242.382812" xlink:href="#g"/>
<use x="270.166016" xlink:href="#e"/>
<use x="333.544922" xlink:href="#j"/>
<use x="394.824219" xlink:href="#l"/>
</g>
</g>
<defs>
<path id="b" d="m0 8.6603c2.2967 0 4.4997-0.9125 6.1237-2.5365 1.624-1.624 2.5365-3.827 2.5365-6.1237s-0.9125-4.4997-2.5365-6.1237c-1.624-1.624-3.827-2.5365-6.1237-2.5365s-4.4997 0.9125-6.1237 2.5365c-1.624 1.624-2.5365 3.827-2.5365 6.1237s0.9125 4.4997 2.5365 6.1237c1.624 1.624 3.827 2.5365 6.1237 2.5365z"/>
</defs>
<g clip-path="url(#a)" fill="#ffffff" stroke="#ffffff">
<use x="50.666667" y="560" xlink:href="#b"/>
<use x="61.721212" y="560" xlink:href="#b"/>
<use x="76.460606" y="560" xlink:href="#b"/>
<use x="94.884848" y="560" xlink:href="#b"/>
<use x="116.993939" y="560" xlink:href="#b"/>
<use x="142.787879" y="560" xlink:href="#b"/>
<use x="172.266667" y="560" xlink:href="#b"/>
<use x="205.430303" y="560" xlink:href="#b"/>
<use x="242.278788" y="560" xlink:href="#b"/>
<use x="282.812121" y="560" xlink:href="#b"/>
<use x="327.030303" y="560" xlink:href="#b"/>
<use x="374.933333" y="560" xlink:href="#b"/>
<use x="426.521212" y="560" xlink:href="#b"/>
<use x="481.793939" y="560" xlink:href="#b"/>
<use x="544.436364" y="560" xlink:href="#b"/>
<use x="607.078788" y="560" xlink:href="#b"/>
<use x="673.406061" y="560" xlink:href="#b"/>
<use x="743.418182" y="560" xlink:href="#b"/>
<use x="817.115152" y="560" xlink:href="#b"/>
<use x="894.49697" y="560" xlink:href="#b"/>
<use x="975.563636" y="560" xlink:href="#b"/>
<use x="1060.315152" y="560" xlink:href="#b"/>
<use x="1064" y="295.175335" xlink:href="#b"/>
<use x="485.478788" y="428.502306" xlink:href="#b"/>
<use x="289.045657" y="26.666667" xlink:href="#b"/>
<use x="50.666667" y="428.502306" xlink:href="#b"/>
<use x="61.721212" y="428.502306" xlink:href="#b"/>
<use x="96.113131" y="295.175335" xlink:href="#b"/>
<use x="206.658586" y="295.175335" xlink:href="#b"/>
<use x="327.030303" y="428.502306" xlink:href="#b"/>
<use x="427.442424" y="295.175335" xlink:href="#b"/>
<use x="750.787879" y="161.149075" xlink:href="#b"/>
<use x="607.078788" y="428.502306" xlink:href="#b"/>
<use x="708.412121" y="295.175335" xlink:href="#b"/>
<use x="936.872727" y="295.175335" xlink:href="#b"/>
<use x="817.115152" y="428.502306" xlink:href="#b"/>
<use x="894.49697" y="428.502306" xlink:href="#b"/>
<use x="975.563636" y="428.502306" xlink:href="#b"/>
<use x="673.406061" y="428.502306" xlink:href="#b"/>
<use x="743.418182" y="428.502306" xlink:href="#b"/>
<use x="428.363636" y="428.502306" xlink:href="#b"/>
<use x="426.521212" y="428.502306" xlink:href="#b"/>
<use x="172.266667" y="428.502306" xlink:href="#b"/>
<use x="205.430303" y="428.502306" xlink:href="#b"/>
<use x="242.278788" y="428.502306" xlink:href="#b"/>
<use x="76.460606" y="428.502306" xlink:href="#b"/>
<use x="94.884848" y="428.502306" xlink:href="#b"/>
<use x="116.993939" y="428.502306" xlink:href="#b"/>
<use x="142.787879" y="428.502306" xlink:href="#b"/>
<use x="282.812121" y="428.502306" xlink:href="#b"/>
<use x="544.436364" y="428.502306" xlink:href="#b"/>
<use x="1060.315152" y="428.502306" xlink:href="#b"/>
</g>
<g clip-path="url(#a)">
<defs>
<path id="z" d="m45.406 46.391v29.594h8.9844v-75.984h-8.9844v8.2031q-2.8281-4.875-7.1562-7.25-4.3125-2.375-10.375-2.375-9.9062 0-16.141 7.9062-6.2188 7.9219-6.2188 20.812t6.2188 20.797q6.2344 7.9062 16.141 7.9062 6.0625 0 10.375-2.375 4.3281-2.3594 7.1562-7.2344zm-30.609-19.094q0-9.9062 4.0781-15.547t11.203-5.6406 11.219 5.6406q4.1094 5.6406 4.1094 15.547t-4.1094 15.547q-4.0938 5.6406-11.219 5.6406t-11.203-5.6406-4.0781-15.547z"/>
</defs>
<g transform="translate(40.664 562.76) scale(.1 -.1)">
<use xlink:href="#t"/>
<use x="73.193359" xlink:href="#e"/>
<use x="136.572266" xlink:href="#z"/>
</g>
</g>
<g clip-path="url(#a)">
<defs>
<path id="am" d="m4.2031 54.688h8.9844l11.234-42.672 11.172 42.672h10.594l11.234-42.672 11.188 42.672h8.9844l-14.312-54.688h-10.594l-11.766 44.828-11.812-44.828h-10.609z"/>
</defs>
<g transform="translate(48.218 562.76) scale(.1 -.1)">
<use xlink:href="#am"/>
<use x="81.787109" xlink:href="#d"/>
<use x="143.310547" xlink:href="#e"/>
<use x="206.689453" xlink:href="#e"/>
</g>
</g>
<g clip-path="url(#a)">
<defs>
<path id="s" d="m54.891 33.016v-33.016h-8.9844v32.719q0 7.7656-3.0312 11.609-3.0312 3.8594-9.0781 3.8594-7.2812 0-11.484-4.6406-4.2031-4.625-4.2031-12.641v-30.906h-9.0312v75.984h9.0312v-29.797q3.2344 4.9375 7.5938 7.375 4.375 2.4375 10.094 2.4375 9.4219 0 14.25-5.8281 4.8438-5.8281 4.8438-17.156z"/>
</defs>
<g transform="translate(69.847 562.76) scale(.1 -.1)">
<use xlink:href="#g"/>
<use x="27.783203" xlink:href="#s"/>
<use x="91.162109" xlink:href="#h"/>
</g>
</g>
<g clip-path="url(#a)">
<defs>
<path id="ah" d="m30.609 48.391q-7.2188 0-11.422-5.6406t-4.2031-15.453 4.1719-15.453q4.1875-5.6406 11.453-5.6406 7.1875 0 11.375 5.6562 4.2031 5.6719 4.2031 15.438 0 9.7188-4.2031 15.406-4.1875 5.6875-11.375 5.6875zm0 7.6094q11.719 0 18.406-7.625 6.7031-7.6094 6.7031-21.078 0-13.422-6.7031-21.078-6.6875-7.6406-18.406-7.6406-11.766 0-18.438 7.6406-6.6562 7.6562-6.6562 21.078 0 13.469 6.6562 21.078 6.6719 7.625 18.438 7.625z"/>
<path id="n" d="m18.312 70.219v-15.531h18.5v-6.9844h-18.5v-29.688q0-6.6875 1.8281-8.5938t7.4531-1.9062h9.2188v-7.5156h-9.2188q-10.406 0-14.359 3.875-3.9531 3.8906-3.9531 14.141v29.688h-6.5938v6.9844h6.5938v15.531z"/>
</defs>
<g transform="translate(84.636 562.76) scale(.1 -.1)">
<use xlink:href="#z"/>
<use x="63.476562" xlink:href="#ah"/>
<use x="124.658203" xlink:href="#h"/>
<use x="165.771484" xlink:href="#n"/>
</g>
</g>
<g clip-path="url(#a)">
<defs>
<path id="as" d="m2.9844 54.688h9.5156l17.094-45.891 17.094 45.891h9.5156l-20.516-54.688h-12.203z"/>
<path id="aa" d="m48.688 27.297q0 9.9062-4.0781 15.547t-11.203 5.6406q-7.1406 0-11.219-5.6406t-4.0781-15.547 4.0781-15.547 11.219-5.6406q7.125 0 11.203 5.6406t4.0781 15.547zm-30.578 19.094q2.8438 4.875 7.1562 7.2344 4.3281 2.375 10.328 2.375 9.9688 0 16.188-7.9062 6.2344-7.9062 6.2344-20.797t-6.2344-20.812q-6.2188-7.9062-16.188-7.9062-6 0-10.328 2.375-4.3125 2.375-7.1562 7.25v-8.2031h-9.0312v75.984h9.0312z"/>
<path id="at" d="m9.0781 75.984h9.0312v-44.875l26.812 23.578h11.469l-29-25.578 30.234-29.109h-11.719l-27.797 26.703v-26.703h-9.0312z"/>
</defs>
<g transform="translate(83.806 562.76) scale(.1 -.1)">
<use xlink:href="#as"/>
<use x="59.179688" xlink:href="#ah"/>
<use x="120.361328" xlink:href="#h"/>
<use x="161.474609" xlink:href="#aa"/>
<use x="224.951172" xlink:href="#d"/>
<use x="286.474609" xlink:href="#g"/>
<use x="314.257812" xlink:href="#at"/>
<use x="368.542969" xlink:href="#ah"/>
<use x="429.724609" xlink:href="#i"/>
<use x="527.136719" xlink:href="#i"/>
<use x="624.548828" xlink:href="#n"/>
</g>
</g>
<g clip-path="url(#a)">
<defs>
<path id="af" d="m11.719 12.406h10.297v-8.4062l-8-15.625h-6.2969l4 15.625z"/>
</defs>
<g transform="translate(141.2 562.76) scale(.1 -.1)">
<use xlink:href="#af"/>
</g>
</g>
<g clip-path="url(#a)">
<defs>
<path id="v" d="m48.781 52.594v-8.4062q-3.8125 2.1094-7.6406 3.1562t-7.7344 1.0469q-8.75 0-13.594-5.5469-4.8281-5.5312-4.8281-15.547t4.8281-15.562q4.8438-5.5312 13.594-5.5312 3.9062 0 7.7344 1.0469t7.6406 3.1562v-8.3125q-3.7656-1.75-7.7969-2.625-4.0156-0.89062-8.5625-0.89062-12.359 0-19.641 7.7656-7.2656 7.7656-7.2656 20.953 0 13.375 7.3438 21.031 7.3594 7.6719 20.156 7.6719 4.1406 0 8.0938-0.85938 3.9531-0.84375 7.6719-2.5469z"/>
</defs>
<g transform="translate(164.96 562.76) scale(.1 -.1)">
<use xlink:href="#g"/>
<use x="27.783203" xlink:href="#v"/>
<use x="82.763672" xlink:href="#s"/>
</g>
</g>
<g clip-path="url(#a)">
<g transform="translate(193.87 562.76) scale(.1 -.1)">
<use xlink:href="#aa"/>
<use x="63.476562" xlink:href="#g"/>
<use x="91.259766" xlink:href="#n"/>
<use x="130.46875" xlink:href="#n"/>
<use x="169.677734" xlink:href="#d"/>
</g>
</g>
<g clip-path="url(#a)">
<defs>
<path id="ag" d="m8.5 21.578v33.109h8.9844v-32.766q0-7.7656 3.0156-11.656 3.0312-3.875 9.0938-3.875 7.2656 0 11.484 4.6406 4.2344 4.6406 4.2344 12.656v31h8.9844v-54.688h-8.9844v8.4062q-3.2656-4.9844-7.5938-7.4062-4.3125-2.4219-10.031-2.4219-9.4219 0-14.312 5.8594-4.875 5.8594-4.875 17.141z"/>
</defs>
<g transform="translate(230.12 562.76) scale(.1 -.1)">
<use xlink:href="#d"/>
<use x="61.523438" xlink:href="#ag"/>
<use x="124.902344" xlink:href="#v"/>
<use x="179.882812" xlink:href="#s"/>
</g>
</g>
<g clip-path="url(#a)">
<g transform="translate(281.22 562.76) scale(.1 -.1)">
<use xlink:href="#af"/>
</g>
</g>
<g clip-path="url(#a)">
<g transform="translate(314.45 562.76) scale(.1 -.1)">
<use xlink:href="#z"/>
<use x="63.476562" xlink:href="#j"/>
<use x="124.755859" xlink:href="#e"/>
<use x="188.134766" xlink:href="#e"/>
</g>
</g>
<g clip-path="url(#a)">
<g transform="translate(358.69 562.76) scale(.1 -.1)">
<use xlink:href="#e"/>
<use x="63.378906" xlink:href="#d"/>
<use x="124.902344" xlink:href="#s"/>
<use x="188.28125" xlink:href="#i"/>
<use x="285.693359" xlink:href="#n"/>
</g>
</g>
<g clip-path="url(#a)">
<g transform="translate(414.36 562.76) scale(.1 -.1)">
<use xlink:href="#d"/>
<use x="61.523438" xlink:href="#ag"/>
<use x="124.902344" xlink:href="#v"/>
<use x="179.882812" xlink:href="#s"/>
</g>
</g>
<g clip-path="url(#a)">
<defs>
<path id="ao" d="m5.6094 72.906h57.281v-7.5312l-46.094-57.078h47.219v-8.2969h-59.516v7.5156l46.094 57.078h-44.984z"/>
</defs>
<g transform="translate(471.94 562.76) scale(.1 -.1)">
<use xlink:href="#ao"/>
<use x="68.505859" xlink:href="#d"/>
<use x="130.029297" xlink:href="#g"/>
<use x="157.8125" xlink:href="#n"/>
</g>
</g>
<g clip-path="url(#a)">
<g transform="translate(542.85 562.76) scale(.1 -.1)">
<use xlink:href="#af"/>
</g>
</g>
<g clip-path="url(#a)">
<g transform="translate(590.87 562.76) scale(.1 -.1)">
<use xlink:href="#am"/>
<use x="81.787109" xlink:href="#j"/>
<use x="143.066406" xlink:href="#h"/>
<use x="184.179688" xlink:href="#n"/>
<use x="223.388672" xlink:href="#d"/>
<use x="284.912109" xlink:href="#n"/>
</g>
</g>
<g clip-path="url(#a)">
<g transform="translate(665.77 562.76) scale(.1 -.1)">
<use xlink:href="#d"/>
<use x="61.523438" xlink:href="#g"/>
<use x="89.306641" xlink:href="#e"/>
</g>
</g>
<g clip-path="url(#a)">
<defs>
<path id="an" d="m44.281 53.078v-8.5q-3.7969 1.9531-7.9062 2.9219-4.0938 0.98438-8.5 0.98438-6.6875 0-10.031-2.0469t-3.3438-6.1562q0-3.125 2.3906-4.9062t9.625-3.3906l3.0781-0.6875q9.5625-2.0469 13.594-5.7812t4.0312-10.422q0-7.625-6.0312-12.078-6.0312-4.4375-16.578-4.4375-4.3906 0-9.1562 0.85938t-10.031 2.5625v9.2812q4.9844-2.5938 9.8125-3.8906 4.8281-1.2812 9.5781-1.2812 6.3438 0 9.75 2.1719 3.4219 2.1719 3.4219 6.125 0 3.6562-2.4688 5.6094-2.4531 1.9531-10.812 3.7656l-3.125 0.73438q-8.3438 1.75-12.062 5.3906-3.7031 3.6406-3.7031 9.9844 0 7.7188 5.4688 11.906 5.4688 4.2031 15.531 4.2031 4.9688 0 9.3594-0.73438 4.4062-0.71875 8.1094-2.1875z"/>
</defs>
<g transform="translate(721.48 562.76) scale(.1 -.1)">
<use xlink:href="#aa"/>
<use x="63.476562" xlink:href="#g"/>
<use x="91.259766" xlink:href="#an"/>
<use x="143.359375" xlink:href="#an"/>
<use x="195.458984" xlink:href="#v"/>
<use x="250.439453" xlink:href="#s"/>
<use x="313.818359" xlink:href="#d"/>
<use x="375.341797" xlink:href="#e"/>
</g>
</g>
<g clip-path="url(#a)">
<g transform="translate(803.69 562.76) scale(.1 -.1)">
<use xlink:href="#ag"/>
<use x="63.378906" xlink:href="#e"/>
<use x="126.757812" xlink:href="#n"/>
<use x="165.966797" xlink:href="#d"/>
<use x="227.490234" xlink:href="#h"/>
</g>
</g>
<g clip-path="url(#a)">
<g transform="translate(883.38 562.76) scale(.1 -.1)">
<use xlink:href="#z"/>
<use x="63.476562" xlink:href="#d"/>
<use x="125" xlink:href="#i"/>
</g>
</g>
<g clip-path="url(#a)">
<defs>
<path id="ap" d="m53.516 70.516v-9.625q-5.6094 2.6875-10.594 4-4.9844 1.3281-9.625 1.3281-8.0469 0-12.422-3.125t-4.375-8.8906q0-4.8438 2.9062-7.3125 2.9062-2.4531 11.016-3.9688l5.9531-1.2188q11.031-2.1094 16.281-7.4062t5.25-14.172q0-10.609-7.1094-16.078-7.0938-5.4688-20.812-5.4688-5.1719 0-11.016 1.1719-5.8281 1.1719-12.078 3.4688v10.156q6-3.3594 11.766-5.0781 5.7656-1.7031 11.328-1.7031 8.4375 0 13.031 3.3125 4.5938 3.3281 4.5938 9.4844 0 5.3594-3.2969 8.3906t-10.812 4.5469l-6.0156 1.1719q-11.031 2.1875-15.969 6.875-4.9219 4.6875-4.9219 13.047 0 9.6719 6.8125 15.234t18.766 5.5625q5.1406 0 10.453-0.9375 5.3281-0.92188 10.891-2.7656z"/>
</defs>
<g transform="translate(962.22 562.76) scale(.1 -.1)">
<use xlink:href="#ap"/>
<use x="63.476562" xlink:href="#n"/>
<use x="102.685547" xlink:href="#d"/>
<use x="164.208984" xlink:href="#h"/>
<use x="203.572266" xlink:href="#e"/>
</g>
</g>
<g clip-path="url(#a)">
<defs>
<path id="f" d="m10.688 12.406h10.312v-12.406h-10.312z"/>
</defs>
<g transform="translate(1058.7 562.76) scale(.1 -.1)">
<use xlink:href="#f"/>
</g>
</g>
<g clip-path="url(#a)">
<defs>
<path id="r" d="m9.8125 72.906h9.8594v-72.906h-9.8594z"/>
<path id="ai" d="m9.8125 72.906h14.703l18.594-49.609 18.703 49.609h14.703v-72.906h-9.625v64.016l-18.797-50h-9.9062l-18.797 50v-64.016h-9.5781z"/>
</defs>
<g transform="translate(1042.9 297.93) scale(.1 -.1)">
<use xlink:href="#r"/>
<use x="29.492188" xlink:href="#ai"/>
<use x="115.771484" xlink:href="#q"/>
<use x="176.074219" xlink:href="#u"/>
<use x="231.787109" xlink:href="#r"/>
<use x="261.279297" xlink:href="#x"/>
<use x="331.103516" xlink:href="#r"/>
<use x="360.595703" xlink:href="#k"/>
</g>
</g>
<g clip-path="url(#a)">
<g transform="translate(464.39 431.26) scale(.1 -.1)">
<use xlink:href="#r"/>
<use x="29.492188" xlink:href="#ai"/>
<use x="115.771484" xlink:href="#q"/>
<use x="176.074219" xlink:href="#u"/>
<use x="231.787109" xlink:href="#r"/>
<use x="261.279297" xlink:href="#x"/>
<use x="331.103516" xlink:href="#r"/>
<use x="360.595703" xlink:href="#k"/>
</g>
</g>
<g clip-path="url(#a)">
<defs>
<path id="c" d="m12.406 8.2969h16.109v55.625l-17.531-3.5156v8.9844l17.438 3.5156h9.8594v-64.609h16.109v-8.2969h-41.984z"/>
</defs>
<g transform="translate(281.09 29.426) scale(.1 -.1)">
<use xlink:href="#c"/>
<use x="63.623047" xlink:href="#f"/>
<use x="95.410156" xlink:href="#c"/>
</g>
</g>
<g clip-path="url(#a)">
<defs>
<path id="m" d="m19.188 8.2969h34.422v-8.2969h-46.281v8.2969q5.6094 5.8125 15.297 15.594 9.7031 9.7969 12.188 12.641 4.7344 5.3125 6.6094 9 1.8906 3.6875 1.8906 7.25 0 5.8125-4.0781 9.4688-4.0781 3.6719-10.625 3.6719-4.6406 0-9.7969-1.6094-5.1406-1.6094-11-4.8906v9.9688q5.9531 2.3906 11.125 3.6094 5.1875 1.2188 9.4844 1.2188 11.328 0 18.062-5.6719 6.7344-5.6562 6.7344-15.125 0-4.5-1.6875-8.5312-1.6719-4.0156-6.125-9.4844-1.2188-1.4219-7.7656-8.1875-6.5312-6.7656-18.453-18.922z"/>
</defs>
<g transform="translate(42.715 431.26) scale(.1 -.1)">
<use xlink:href="#c"/>
<use x="63.623047" xlink:href="#f"/>
<use x="95.410156" xlink:href="#m"/>
</g>
</g>
<g clip-path="url(#a)">
<defs>
<path id="p" d="m40.578 39.312q7.0781-1.5156 11.047-6.3125 3.9844-4.7812 3.9844-11.812 0-10.781-7.4219-16.703-7.4219-5.9062-21.094-5.9062-4.5781 0-9.4375 0.90625t-10.031 2.7188v9.5156q4.0938-2.3906 8.9688-3.6094 4.8906-1.2188 10.219-1.2188 9.2656 0 14.125 3.6562t4.8594 10.641q0 6.4531-4.5156 10.078-4.5156 3.6406-12.562 3.6406h-8.5v8.1094h8.8906q7.2656 0 11.125 2.9062t3.8594 8.375q0 5.6094-3.9844 8.6094-3.9688 3.0156-11.391 3.0156-4.0625 0-8.7031-0.89062-4.6406-0.875-10.203-2.7188v8.7812q5.625 1.5625 10.531 2.3438t9.25 0.78125q11.234 0 17.766-5.1094 6.5469-5.0938 6.5469-13.781 0-6.0625-3.4688-10.234t-9.8594-5.7812z"/>
</defs>
<g transform="translate(53.77 431.26) scale(.1 -.1)">
<use xlink:href="#c"/>
<use x="63.623047" xlink:href="#f"/>
<use x="95.410156" xlink:href="#p"/>
</g>
</g>
<g clip-path="url(#a)">
<defs>
<path id="y" d="m37.797 64.312-24.906-38.922h24.906zm-2.5938 8.5938h12.406v-47.516h10.406v-8.2031h-10.406v-17.188h-9.8125v17.188h-32.906v9.5156z"/>
</defs>
<g transform="translate(88.162 297.93) scale(.1 -.1)">
<use xlink:href="#c"/>
<use x="63.623047" xlink:href="#f"/>
<use x="95.410156" xlink:href="#y"/>
</g>
</g>
<g clip-path="url(#a)">
<defs>
<path id="ae" d="m10.797 72.906h38.719v-8.3125h-29.688v-17.859q2.1406 0.73438 4.2812 1.0938 2.1562 0.35938 4.3125 0.35938 12.203 0 19.328-6.6875 7.1406-6.6875 7.1406-18.109 0-11.766-7.3281-18.297-7.3281-6.5156-20.656-6.5156-4.5938 0-9.3594 0.78125-4.75 0.78125-9.8281 2.3438v9.9219q4.3906-2.3906 9.0781-3.5625t9.9062-1.1719q8.4531 0 13.375 4.4375 4.9375 4.4375 4.9375 12.062 0 7.6094-4.9375 12.047-4.9219 4.4531-13.375 4.4531-3.9531 0-7.8906-0.875-3.9219-0.875-8.0156-2.7344z"/>
</defs>
<g transform="translate(198.71 297.93) scale(.1 -.1)">
<use xlink:href="#c"/>
<use x="63.623047" xlink:href="#f"/>
<use x="95.410156" xlink:href="#ae"/>
</g>
</g>
<g clip-path="url(#a)">
<defs>
<path id="ad" d="m33.016 40.375q-6.6406 0-10.531-4.5469-3.875-4.5312-3.875-12.438 0-7.8594 3.875-12.438 3.8906-4.5625 10.531-4.5625t10.516 4.5625q3.875 4.5781 3.875 12.438 0 7.9062-3.875 12.438-3.875 4.5469-10.516 4.5469zm19.578 30.922v-8.9844q-3.7188 1.75-7.5 2.6719-3.7812 0.9375-7.5 0.9375-9.7656 0-14.922-6.5938-5.1406-6.5938-5.875-19.922 2.875 4.25 7.2188 6.5156 4.3594 2.2656 9.5781 2.2656 10.984 0 17.359-6.6719 6.375-6.6562 6.375-18.125 0-11.234-6.6406-18.031-6.6406-6.7812-17.672-6.7812-12.656 0-19.344 9.6875-6.6875 9.7031-6.6875 28.109 0 17.281 8.2031 27.562t22.016 10.281q3.7188 0 7.5-0.73438t7.8906-2.1875z"/>
</defs>
<g transform="translate(319.08 431.26) scale(.1 -.1)">
<use xlink:href="#c"/>
<use x="63.623047" xlink:href="#f"/>
<use x="95.410156" xlink:href="#ad"/>
</g>
</g>
<g clip-path="url(#a)">
<defs>
<path id="ac" d="m8.2031 72.906h46.875v-4.2031l-26.469-68.703h-10.297l24.906 64.594h-35.016z"/>
</defs>
<g transform="translate(419.49 297.93) scale(.1 -.1)">
<use xlink:href="#c"/>
<use x="63.623047" xlink:href="#f"/>
<use x="95.410156" xlink:href="#ac"/>
</g>
</g>
<g clip-path="url(#a)">
<defs>
<path id="ab" d="m31.781 34.625q-7.0312 0-11.062-3.7656-4.0156-3.7656-4.0156-10.344 0-6.5938 4.0156-10.359 4.0312-3.7656 11.062-3.7656t11.078 3.7812q4.0625 3.7969 4.0625 10.344 0 6.5781-4.0312 10.344-4.0156 3.7656-11.109 3.7656zm-9.8594 4.1875q-6.3438 1.5625-9.8906 5.9062-3.5312 4.3594-3.5312 10.609 0 8.7344 6.2188 13.812 6.2344 5.0781 17.062 5.0781 10.891 0 17.094-5.0781t6.2031-13.812q0-6.25-3.5469-10.609-3.5312-4.3438-9.8281-5.9062 7.125-1.6562 11.094-6.5 3.9844-4.8281 3.9844-11.797 0-10.609-6.4688-16.281-6.4688-5.6562-18.531-5.6562-12.047 0-18.531 5.6562-6.4688 5.6719-6.4688 16.281 0 6.9688 4 11.797 4.0156 4.8438 11.141 6.5zm-3.6094 15.578q0-5.6562 3.5312-8.8281 3.5469-3.1719 9.9375-3.1719 6.3594 0 9.9375 3.1719 3.5938 3.1719 3.5938 8.8281 0 5.6719-3.5938 8.8438-3.5781 3.1719-9.9375 3.1719-6.3906 0-9.9375-3.1719-3.5312-3.1719-3.5312-8.8438z"/>
</defs>
<g transform="translate(742.84 163.91) scale(.1 -.1)">
<use xlink:href="#c"/>
<use x="63.623047" xlink:href="#f"/>
<use x="95.410156" xlink:href="#ab"/>
</g>
</g>
<g clip-path="url(#a)">
<g transform="translate(595.95 431.26) scale(.1 -.1)">
<use xlink:href="#c"/>
<use x="63.623047" xlink:href="#f"/>
<use x="95.410156" xlink:href="#c"/>
<use x="159.033203" xlink:href="#y"/>
</g>
</g>
<g clip-path="url(#a)">
<g transform="translate(697.28 297.93) scale(.1 -.1)">
<use xlink:href="#c"/>
<use x="63.623047" xlink:href="#f"/>
<use x="95.410156" xlink:href="#c"/>
<use x="159.033203" xlink:href="#ae"/>
</g>
</g>
<g clip-path="url(#a)">
<g transform="translate(925.74 297.93) scale(.1 -.1)">
<use xlink:href="#c"/>
<use x="63.623047" xlink:href="#f"/>
<use x="95.410156" xlink:href="#c"/>
<use x="159.033203" xlink:href="#ad"/>
</g>
</g>
<g clip-path="url(#a)">
<g transform="translate(805.98 431.26) scale(.1 -.1)">
<use xlink:href="#c"/>
<use x="63.623047" xlink:href="#f"/>
<use x="95.410156" xlink:href="#c"/>
<use x="159.033203" xlink:href="#ac"/>
</g>
</g>
<g clip-path="url(#a)">
<g transform="translate(883.36 431.26) scale(.1 -.1)">
<use xlink:href="#c"/>
<use x="63.623047" xlink:href="#f"/>
<use x="95.410156" xlink:href="#c"/>
<use x="159.033203" xlink:href="#ab"/>
</g>
</g>
<g clip-path="url(#a)">
<defs>
<path id="ak" d="m10.984 1.5156v8.9844q3.7188-1.7656 7.5156-2.6875 3.8125-0.92188 7.4844-0.92188 9.7656 0 14.906 6.5625 5.1562 6.5625 5.8906 19.953-2.8281-4.2031-7.1875-6.4531-4.3438-2.25-9.6094-2.25-10.938 0-17.312 6.6094-6.375 6.625-6.375 18.109 0 11.219 6.6406 18 6.6406 6.7969 17.672 6.7969 12.656 0 19.312-9.7031 6.6719-9.6875 6.6719-28.141 0-17.234-8.1875-27.516-8.1719-10.281-21.984-10.281-3.7188 0-7.5312 0.73438-3.7969 0.73438-7.9062 2.2031zm19.625 30.906q6.6406 0 10.516 4.5312 3.8906 4.5469 3.8906 12.469 0 7.8594-3.8906 12.422-3.875 4.5625-10.516 4.5625t-10.516-4.5625-3.875-12.422q0-7.9219 3.875-12.469 3.875-4.5312 10.516-4.5312z"/>
</defs>
<g transform="translate(964.43 431.26) scale(.1 -.1)">
<use xlink:href="#c"/>
<use x="63.623047" xlink:href="#f"/>
<use x="95.410156" xlink:href="#c"/>
<use x="159.033203" xlink:href="#ak"/>
</g>
</g>
<g clip-path="url(#a)">
<defs>
<path id="al" d="m31.781 66.406q-7.6094 0-11.453-7.5-3.8281-7.4844-3.8281-22.531 0-14.984 3.8281-22.484 3.8438-7.5 11.453-7.5 7.6719 0 11.5 7.5 3.8438 7.5 3.8438 22.484 0 15.047-3.8438 22.531-3.8281 7.5-11.5 7.5zm0 7.8125q12.266 0 18.734-9.7031 6.4688-9.6875 6.4688-28.141 0-18.406-6.4688-28.109-6.4688-9.6875-18.734-9.6875-12.25 0-18.719 9.6875-6.4688 9.7031-6.4688 28.109 0 18.453 6.4688 28.141 6.4688 9.7031 18.719 9.7031z"/>
</defs>
<g transform="translate(662.27 431.26) scale(.1 -.1)">
<use xlink:href="#c"/>
<use x="63.623047" xlink:href="#f"/>
<use x="95.410156" xlink:href="#m"/>
<use x="159.033203" xlink:href="#al"/>
</g>
</g>
<g clip-path="url(#a)">
<g transform="translate(732.29 431.26) scale(.1 -.1)">
<use xlink:href="#c"/>
<use x="63.623047" xlink:href="#f"/>
<use x="95.410156" xlink:href="#m"/>
<use x="159.033203" xlink:href="#c"/>
</g>
</g>
<g clip-path="url(#a)">
<g transform="translate(417.23 431.26) scale(.1 -.1)">
<use xlink:href="#c"/>
<use x="63.623047" xlink:href="#f"/>
<use x="95.410156" xlink:href="#m"/>
<use x="159.033203" xlink:href="#p"/>
</g>
</g>
<g clip-path="url(#a)">
<g transform="translate(415.39 431.26) scale(.1 -.1)">
<use xlink:href="#c"/>
<use x="63.623047" xlink:href="#f"/>
<use x="95.410156" xlink:href="#m"/>
<use x="159.033203" xlink:href="#y"/>
</g>
</g>
<g clip-path="url(#a)">
<g transform="translate(161.13 431.26) scale(.1 -.1)">
<use xlink:href="#c"/>
<use x="63.623047" xlink:href="#f"/>
<use x="95.410156" xlink:href="#m"/>
<use x="159.033203" xlink:href="#ae"/>
</g>
</g>
<g clip-path="url(#a)">
<g transform="translate(194.3 431.26) scale(.1 -.1)">
<use xlink:href="#c"/>
<use x="63.623047" xlink:href="#f"/>
<use x="95.410156" xlink:href="#m"/>
<use x="159.033203" xlink:href="#ad"/>
</g>
</g>
<g clip-path="url(#a)">
<g transform="translate(231.15 431.26) scale(.1 -.1)">
<use xlink:href="#c"/>
<use x="63.623047" xlink:href="#f"/>
<use x="95.410156" xlink:href="#m"/>
<use x="159.033203" xlink:href="#ac"/>
</g>
</g>
<g clip-path="url(#a)">
<g transform="translate(65.328 431.26) scale(.1 -.1)">
<use xlink:href="#c"/>
<use x="63.623047" xlink:href="#f"/>
<use x="95.410156" xlink:href="#m"/>
<use x="159.033203" xlink:href="#ab"/>
</g>
</g>
<g clip-path="url(#a)">
<g transform="translate(83.752 431.26) scale(.1 -.1)">
<use xlink:href="#c"/>
<use x="63.623047" xlink:href="#f"/>
<use x="95.410156" xlink:href="#m"/>
<use x="159.033203" xlink:href="#ak"/>
</g>
</g>
<g clip-path="url(#a)">
<g transform="translate(105.86 431.26) scale(.1 -.1)">
<use xlink:href="#c"/>
<use x="63.623047" xlink:href="#f"/>
<use x="95.410156" xlink:href="#p"/>
<use x="159.033203" xlink:href="#al"/>
</g>
</g>
<g clip-path="url(#a)">
<g transform="translate(131.66 431.26) scale(.1 -.1)">
<use xlink:href="#c"/>
<use x="63.623047" xlink:href="#f"/>
<use x="95.410156" xlink:href="#p"/>
<use x="159.033203" xlink:href="#c"/>
</g>
</g>
<g clip-path="url(#a)">
<g transform="translate(271.68 431.26) scale(.1 -.1)">
<use xlink:href="#c"/>
<use x="63.623047" xlink:href="#f"/>
<use x="95.410156" xlink:href="#p"/>
<use x="159.033203" xlink:href="#m"/>
</g>
</g>
<g clip-path="url(#a)">
<g transform="translate(533.3 431.26) scale(.1 -.1)">
<use xlink:href="#c"/>
<use x="63.623047" xlink:href="#f"/>
<use x="95.410156" xlink:href="#p"/>
<use x="159.033203" xlink:href="#p"/>
</g>
</g>
<g clip-path="url(#a)">
<g transform="translate(1049.2 431.26) scale(.1 -.1)">
<use xlink:href="#c"/>
<use x="63.623047" xlink:href="#f"/>
<use x="95.410156" xlink:href="#p"/>
<use x="159.033203" xlink:href="#y"/>
</g>
</g>
<defs>
<clipPath id="a">
<rect width="1114.7" height="586.67"/>
</clipPath>
</defs>
</svg>
